<?xml version="1.0" encoding="UTF-8"?>
<svg width="200px" height="200px" viewBox="0 0 200 200" version="1.1" xmlns="http://www.w3.org/2000/svg" xmlns:xlink="http://www.w3.org/1999/xlink">
    <!-- Generator: Sketch 51.3 (57544) - http://www.bohemiancoding.com/sketch -->
    <title>agnes-scott</title>
    <desc>Created with Sketch.</desc>
    <defs></defs>
    <g id="agnes-scott" stroke="none" stroke-width="1" fill="none" fill-rule="evenodd">
        <g id="agnes-scott_BGL">
            <g id="agnes-scott" transform="translate(33.000000, 0.000000)">
                <g id="g10" transform="translate(66.886687, 99.889994) scale(-1, 1) rotate(-180.000000) translate(-66.886687, -99.889994) translate(0.440044, 0.000007)" fill-rule="nonzero">
                    <g id="g12" transform="translate(0.792079, 0.000000)">
                        <path d="M130.388556,79.5520332 C127.344331,83.5282707 125.481185,88.8466424 124.687346,95.8098986 C123.946312,102.32255 124.214738,109.354453 124.476125,116.154012 C124.884485,126.851482 125.275244,137.03586 121.466224,144.044001 C123.272164,146.918368 125.044661,150.93949 125.773374,156.257862 C126.2363,159.625959 125.063143,161.786575 123.998237,163.006377 C122.276785,164.979534 119.641801,165.981074 116.162813,165.981074 L98.7520327,165.981074 C99.6884464,166.780194 100.169854,167.855661 100.299227,168.823758 C100.553573,170.74059 99.5529128,173.079864 96.7480724,173.987234 C90.4836061,176.010557 83.9504489,177.037619 77.329107,177.037619 C67.1307354,177.037619 58.3714837,174.604176 52.3380405,172.284264 C44.5926502,175.802856 37.149658,176.574693 32.1149387,176.574693 C30.8429475,176.574693 29.5933106,176.526288 28.3814294,176.432119 C24.4554449,180.331789 20.1632558,183.420017 16.8509567,185.240919 C16.0688225,188.073923 14.9497906,190.812757 13.6726069,192.986574 C10.6920129,198.057641 7.44499871,199.121667 5.24821109,199.121667 C3.52756867,199.121667 1.99429698,198.34983 1.04200657,197.007696 C-0.659721876,194.608576 0.246150049,192.018477 1.20702307,189.275243 C1.90663142,187.276563 2.77812094,184.787674 2.77812094,182.54521 C2.77812094,181.177553 2.62341908,179.699885 2.4085544,177.655441 C2.06133328,174.329589 1.56455882,169.585034 1.41158192,161.757532 L1.36860723,161.762812 L1.36860723,158.43608 C1.36689105,157.890425 1.36344991,157.331569 1.36344991,156.758632 L1.36344991,155.281844 L1.36860723,155.275684 L1.36860723,118.570734 C1.36860723,94.0374014 6.24002625,71.5019564 15.8453681,51.5882935 C16.8423318,49.5217589 18.3258081,48.8438272 19.4481843,48.6513519 C21.8667541,39.750054 26.3221996,33.4557527 27.4549608,31.9499222 C28.8095042,30.1536626 30.3891742,29.7751368 31.4772269,29.7751368 C32.1132665,29.7751368 32.76814,29.9089101 33.3818253,30.1880741 C34.3237835,28.0634536 35.4204612,25.9299443 36.6752906,23.7915946 C40.8384588,16.6821558 45.1856534,12.162728 46.0141683,11.3293727 C47.102221,10.2344552 48.3260714,9.68096785 49.6513959,9.68096785 C50.5882496,9.68096785 51.4837391,9.96426818 52.2349822,10.4836961 C54.203123,7.51512412 56.4978644,4.61152024 59.1123418,1.78389434 C60.2072592,0.60024729 61.4793384,0 62.8939918,0 C64.446203,0 67.1788762,0.950565433 67.5794043,4.51389208 L67.5845968,4.54482717 C67.8647288,6.83649708 69.5716594,10.3963914 71.7547177,14.3550271 C72.1345637,13.5605717 72.5350917,12.8193616 72.957886,12.1321889 C73.8242446,10.7246642 75.3059607,9.8834761 76.9200421,9.8834761 C77.719338,9.8834761 78.9036724,10.092145 80.0243764,11.0784596 C87.3676546,17.5550271 94.8690845,26.1932667 100.604618,34.7775569 C105.091307,41.4934203 110.438721,51.0846192 110.438721,58.6341019 C110.438721,64.1996904 108.350272,69.2278971 104.051043,74.0064228 C102.712429,75.4929794 101.208358,76.9117693 99.5854761,78.2979078 C99.6611636,78.2951796 99.735091,78.2934194 99.8107786,78.2934194 C101.379975,78.2934194 102.808358,78.9985459 103.731571,80.2261806 C103.92783,80.4858066 104.158413,80.8484908 104.344992,81.3087768 C106.872605,79.2061586 109.62904,77.3799761 112.599337,75.8415823 C118.146532,72.9699432 123.084705,71.847831 125.53487,71.4349817 C125.874584,71.3785681 126.209898,71.3486451 126.538171,71.3486451 C128.478765,71.3486451 130.199337,72.3889971 131.02838,74.0645966 C131.889106,75.8099871 131.643561,77.9115492 130.388556,79.5520332" id="path14" fill="#FFFFFF"></path>
                        <path d="M126.858523,76.849195 C112.195377,96.0017578 126.605057,131.999117 116.042241,144.119688 C118.083165,146.568973 120.520129,150.668423 121.369414,156.861602 C121.565674,158.304066 121.677445,161.533989 116.162813,161.533989 L79.1718352,161.533989 C76.8805261,161.533989 77.9633864,162.634099 78.5323633,163.125188 C84.3389198,168.118808 91.9137491,169.055221 95.2264003,169.215397 C96.2798656,169.267323 95.8864662,169.592075 95.3812957,169.755771 C77.2638044,175.611877 61.1303835,171.169193 52.1747842,167.427939 C42.280659,172.475243 32.2232775,172.524528 26.6900763,171.783494 C21.6741909,177.207476 15.8951811,180.923208 13.022926,182.189654 C11.7199557,188.326508 8.42649924,194.674583 5.24821109,194.674583 C2.86750268,194.674583 7.22325174,188.696145 7.22325174,182.54521 C7.22325174,177.933549 5.81202186,173.097465 5.81202186,156.758632 L5.84124078,156.717268 L5.8154542,156.719908 C5.8154542,150.685145 5.8154542,121.976675 5.8154542,118.570734 C5.8154542,91.7104488 11.7749612,70.2591842 19.8504726,53.5207027 C20.005192,53.1985905 20.3179753,52.5614948 20.5895704,53.5946301 C21.1241359,55.6188325 21.7034098,57.5375123 22.3222877,59.3592064 C22.5938828,47.2060714 28.886864,37.4415832 31.007964,34.6245976 C31.6508683,33.7699442 31.6732225,34.4870398 31.6903842,34.8408352 C31.8932445,39.3787449 32.5996912,43.2676777 33.66891,46.6904279 C34.5936185,31.2245537 45.8251254,17.8269743 49.1684036,14.4650381 C49.9195587,13.7084265 49.7785686,14.4096806 49.7150263,14.7573154 C48.8538602,19.4200215 48.8246412,23.4904285 49.3832331,27.1489542 C52.5219789,15.52396 60.0285134,7.34357737 62.3765881,4.80438272 C63.1019566,4.01849935 63.126071,4.71637392 63.1706915,5.0842243 C63.7688873,9.95634739 68.1776001,17.1510667 73.0060268,25.4035637 C73.6953117,21.715115 74.8418903,17.5515947 76.7429684,14.4650381 C76.8839585,14.2381515 77.0163237,14.3550271 77.0832984,14.4148731 C91.3988976,27.0372711 105.995157,47.9393607 105.995157,58.6341019 C105.995157,76.2623523 79.7253225,81.350053 64.7641788,103.750932 C66.9761039,105.652803 69.0129796,107.746532 70.7989421,110.176455 C70.7989421,110.176455 70.8007023,110.177335 70.8007023,110.179095 C73.3275229,109.457423 77.1950696,108.794717 81.6281608,109.548072 C81.6281608,109.548072 83.0290848,91.8987876 99.3108886,82.8812301 C99.7782153,82.6227482 100.493727,82.6357735 100.204178,83.6393378 C99.7042879,85.3685347 99.0996675,88.5676546 99.5062681,93.1608338 C108.694387,79.8662246 121.766334,76.5800641 126.273264,75.8195801 C127.291526,75.6480509 127.181515,76.4266648 126.858523,76.849195" id="path16" fill="#171A1E"></path>
                        <path d="M48.8486676,102.409678 C51.0368304,103.82222 53.1201747,105.166994 55.0642891,106.535531 C36.2747626,105.299007 28.2697463,97.5911967 28.2697463,97.5911967 C28.2697463,103.22376 29.3887781,106.377115 29.3887781,106.377115 C16.4109127,93.6624839 18.1590314,83.0617361 20.5981953,75.228953 C28.7716604,89.4495027 39.6180408,96.4523628 48.8486676,102.409678 Z M109.056983,114.375355 C109.051702,115.397137 109.048182,116.500767 109.048182,117.699447 C109.048182,130.942131 96.2376214,128.582615 89.9370715,133.827059 C89.4935071,122.198457 90.9157293,112.885366 93.4371814,105.42662 C95.0671043,111.520349 98.6728248,118.737951 98.6728248,118.737951 C100.147852,112.722549 106.701868,104.674145 108.912649,102.085806 C108.800877,106.288226 108.914409,110.444882 109.056983,114.375355 Z M69.0955318,123.236081 C78.950053,136.193616 72.358018,146.952692 72.358018,146.952692 C72.358018,146.952692 72.1293711,145.811217 71.7993381,144.161053 C68.2996683,130.148292 57.8816267,136.157532 53.4467753,119.459623 C57.6185684,126.842681 64.985873,128.051922 69.4685131,131.739491 C69.7211864,130.868204 70.2815384,128.090646 69.0955318,123.236081 Z M19.4517047,156.977774 C23.106094,155.095266 25.7669521,152.550931 27.3432776,150.859402 C26.7932227,164.294825 18.0403956,171.031019 13.5901427,173.725848 C13.5420019,162.403516 13.8256542,149.797136 25.6053679,138.813638 C23.8417596,152.13993 19.4517047,156.977774 19.4517047,156.977774 Z M30.4355548,75.5324954 C29.9199112,70.4492832 29.7531346,64.8071271 30.377117,59.1859171 C33.438503,64.3423526 37.129064,68.4726055 40.6115721,72.3697232 C46.5986347,79.0707131 51.942705,85.0543433 53.953882,96.0017578 C45.9849493,90.8532431 37.4040915,85.4733532 30.4355548,75.5324954 Z M60.8604605,89.7672145 C59.024685,83.3831442 56.1454771,78.5224183 52.8950482,74.2626164 C53.0238931,71.3101852 53.9486895,67.6206804 55.5301196,63.8565441 C56.2589205,62.1218026 56.9997786,60.6590084 57.6684694,59.4832988 C60.0835188,63.2332657 61.9571382,67.01694 62.7547619,71.5387441 C63.6743658,76.7577539 63.0521436,82.7836283 60.8604605,89.7672145 Z M48.0149603,60.6979083 C47.1761484,62.6949159 46.5384367,64.5393163 46.0588767,66.2311095 C44.5496138,64.5393163 43.0559285,62.8444429 41.6326502,61.0719457 C41.110054,56.014168 41.2166326,51.1004608 41.9558185,46.4026391 C42.4130242,43.510758 43.1075017,40.689988 44.0356425,37.9662037 C46.3149823,43.4323421 49.4743222,47.9507139 52.6113958,52.2862033 C50.8306258,54.7026609 49.1615389,57.9706036 48.0149603,60.6979083 Z M62.6086673,52.2297897 C60.124795,48.6688657 57.4690415,45.2664455 55.1708677,41.6326502 C55.6951361,34.1394931 57.594542,27.1675241 60.8535958,20.8113526 C60.865653,20.7886463 60.8777102,20.7683163 60.8880073,20.7435858 C62.1067531,22.935885 63.456104,25.2337947 64.8827267,27.6646858 C66.7319675,30.8137286 68.717358,34.1975789 70.5823525,37.6722543 C68.0881831,40.4169847 64.7882052,46.0770946 62.6086673,52.2297897 Z M68.5213624,62.5082493 C68.7757959,59.294872 69.9325835,55.3187225 71.8492391,51.1207028 C72.8238486,48.992738 73.788161,47.2500758 74.6166758,45.921319 C76.8426823,51.0901637 78.3673468,56.2015387 78.3673468,60.7824847 C78.3673468,70.0505153 75.3523414,76.1602621 70.9399322,82.1235623 C71.9867089,74.1642226 70.79727,67.9094372 68.5213624,62.5082493 Z M97.8429018,58.6341019 C97.8429018,56.1681834 95.803738,50.2461594 90.0576435,41.670406 C87.1647943,37.3501421 83.7888648,33.0304942 80.2289969,29.0553128 C79.8009221,31.0626175 79.3832323,33.4123644 79.0033864,36.1541025 C83.1700749,44.2429912 86.5202179,52.7674354 86.5202179,60.7824847 C86.5202179,65.8693933 85.7483807,70.2265329 84.4523631,74.0954877 C93.0173794,67.7826166 97.8429018,63.79573 97.8429018,58.6341019 Z" id="path18" fill="#592B94"></path>
                        <path d="M65.7147618,150.285585 C65.7181942,150.223099 65.7232987,150.161492 65.7232987,150.099886 C65.7232987,148.406597 64.3515936,147.03454 62.6602405,147.03454 C60.9670392,147.03454 59.595334,148.406597 59.595334,150.099886 C59.595334,150.353352 59.6297455,150.598016 59.6881833,150.83476 C58.9490854,150.979974 58.2305816,151.14103 57.5309117,151.328489 C57.0547841,151.454342 56.8812307,151.178874 56.8021108,151.03982 C56.6181724,150.721228 56.4531559,150.393836 56.313926,150.061162 C54.8184805,146.509127 56.5150261,143.629479 60.1007686,143.629479 C63.6864231,143.629479 67.8046188,146.509127 69.2983041,150.061162 C69.3137936,150.097246 69.3292832,150.132449 69.3430126,150.168533 C69.4066429,150.326949 69.5132216,150.63762 69.0181721,150.559292 C67.8802183,150.382394 66.7784362,150.305827 65.7147618,150.285585" id="path20" fill="#FFFFFF"></path>
                        <path d="M53.8868193,95.6629239 C53.9091736,95.7764553 53.9332,95.8873463 53.953882,96.0017578 C45.9849493,90.8532431 37.4040915,85.4733532 30.4355548,75.5324954 C30.2241577,73.4443986 30.0728705,71.2616924 30.007568,69.0236286 C39.1969187,80.0010541 46.961319,88.8246402 53.8868193,95.6629239 Z M84.6139473,73.9758837 C84.5606139,74.0153997 84.5073686,74.0549156 84.4523631,74.0954877 C85.7483807,70.2265329 86.5202179,65.8693933 86.5202179,60.7824847 C86.5202179,52.7674354 83.1700749,44.2429912 79.0033864,36.1541025 C79.3626383,33.5674359 79.7545415,31.3277 80.1567417,29.3966989 C99.2211196,59.6593164 84.6500309,73.9493931 84.6139473,73.9758837 Z M28.2697463,97.5911967 C28.2697463,103.22376 29.3887781,106.377115 29.3887781,106.377115 C16.3575793,93.6624839 18.1590314,83.0617361 20.5981953,75.228953 L20.5998675,75.2300091 C19.5478983,88.4057184 28.2697463,97.5911967 28.2697463,97.5911967 Z M109.056983,114.375355 C109.051702,115.397137 109.048182,116.500767 109.048182,117.699447 C109.048182,130.942131 96.2376214,128.582615 89.9370715,133.827059 C89.8772255,132.222659 89.8517029,130.664023 89.8596237,129.146751 C95.1163893,124.592296 106.701868,126.481845 106.701868,115.480745 C106.701868,110.433441 106.950932,106.231901 107.089106,104.299227 C107.82486,103.376895 108.460283,102.616499 108.912649,102.085806 C108.800877,106.288226 108.914409,110.444882 109.056983,114.375355 Z M62.6086673,52.2297897 C60.124795,48.6688657 57.4690415,45.2664455 55.1708677,41.6326502 C55.3788325,38.6719462 55.8017148,35.7948506 56.4376664,33.0050597 C59.9065332,37.8262697 62.8321216,42.120131 65.2351139,46.0365225 C64.275994,47.9699878 63.3735518,50.0690857 62.6086673,52.2297897 Z M68.5213624,62.5082493 C68.6915714,60.3599545 69.2656528,57.8709777 70.2025065,55.2017588 C74.6871709,65.0729137 74.8453227,72.7471929 71.1392721,81.8499429 C71.0739696,81.94068 71.0069069,82.0321212 70.9399322,82.1235623 C71.9867089,74.1642226 70.79727,67.9094372 68.5213624,62.5082493 Z M54.0689975,67.9146298 C58.9541899,74.7978859 60.8209446,79.8972037 60.9601745,89.442462 C60.9275232,89.5507128 60.894872,89.6589637 60.8604605,89.7672145 C59.024685,83.3831442 56.1454771,78.5224183 52.8950482,74.2626164 C52.9758403,72.3872369 53.3780405,70.2162359 54.0689975,67.9146298 Z M48.192034,60.2842669 C46.2084037,57.8156201 43.9531782,55.0426389 41.390274,51.8203727 C41.2269297,54.8374024 41.3094819,57.9256311 41.6326502,61.0719457 C43.0559285,62.8444429 44.5496138,64.5393163 46.0588767,66.2311095 C46.5384367,64.5393163 47.1761484,62.6949159 48.0149603,60.6979083 C48.071726,60.5614066 48.131836,60.4232328 48.192034,60.2842669 Z" id="path22" fill="#FFFFFF"></path>
                    </g>
                </g>
            </g>
        </g>
    </g>
</svg>