<?xml version="1.0" encoding="UTF-8"?>
<svg width="200px" height="200px" viewBox="0 0 200 200" version="1.1" xmlns="http://www.w3.org/2000/svg" xmlns:xlink="http://www.w3.org/1999/xlink">
    <!-- Generator: Sketch 51.3 (57544) - http://www.bohemiancoding.com/sketch -->
    <title>ala-huntsville</title>
    <desc>Created with Sketch.</desc>
    <defs></defs>
    <g id="ala-huntsville" stroke="none" stroke-width="1" fill="none" fill-rule="evenodd">
        <g id="ala-huntsville_BGL" transform="translate(0.000000, 31.840796)">
            <g id="ala-huntsville" transform="translate(0.000000, 13.898551)">
                <g id="g10" transform="translate(100.000000, 55.202503) scale(-1, 1) rotate(-180.000000) translate(-100.000000, -55.202503) translate(0.000000, 0.634464)" fill-rule="nonzero">
                    <g id="g12">
                        <path d="M125.045286,5.843731 C94.0050465,0.665213093 57.4271846,45.0074233 0.903686485,29.1461027 C6.13106797,50.1867084 23.484049,58.9989083 27.0914404,60.4608961 C54.6912816,71.5392729 55.0139117,80.1692838 45.3381713,78.3473926 C50.566069,91.9418971 81.2785806,94.208074 86.83298,94.208074 C114.604977,94.208074 129.961523,96.4742509 117.544782,104.242539 C138.783519,114.923936 153.812273,99.0638934 153.812273,99.0638934 C161.981267,91.6184315 169.776009,85.7922153 167.861523,95.8260412 C170.801973,88.7053234 179.460074,85.9539481 181.583625,83.8501432 C183.707176,81.7463383 190.536609,75.7577501 180.733817,66.0467505 C183.81687,62.4867112 186.449532,55.0770478 186.449532,55.0770478 C182.270182,53.1349758 186.674727,45.2618488 199.226973,17.1439311 C199.226973,17.1439311 198.448144,10.782015 199.028233,6.48823299 C197.026636,5.4179838 194.149421,0.509936824 194.149421,0.509936824 C194.149421,0.509936824 192.156858,1.40215209 187.791673,1.88933218 C189.296419,17.4852321 178.525737,10.4943479 185.20418,2.94730759 C183.284531,2.94730759 181.253252,1.14644807 181.253252,1.14644807 C181.253252,1.14644807 174.94777,5.36754618 173.08942,5.83746625 C173.174595,6.74719725 174.396072,12.9620196 167.861523,19.4357424 C161.326973,25.909529 145.670381,17.1996107 139.439749,37.2384958 C138.56284,38.106611 113.282193,32.0630464 125.045286,5.843731" id="path96" fill="#1A64B7"></path>
                        <path d="M188.141404,2.17073446 C191.463848,1.77541604 193.351879,1.15814653 194.013271,0.909474363 C194.60691,1.89054678 196.885324,5.5273612 198.681083,6.65706158 C198.188749,10.6574232 198.807554,16.3218427 198.8966,17.0941967 C197.104067,21.1093252 195.478012,24.710405 194.020369,27.939819 C185.340975,47.1630083 182.577971,53.2820056 186.04947,55.232388 C185.550684,56.5735556 183.172901,62.7385797 180.488618,65.8383517 L180.29504,66.0633712 L180.50604,66.2730485 C183.867201,69.6029542 185.56617,72.8139575 185.557137,75.8172013 C185.545522,79.5210741 182.976096,82.0365624 181.594594,83.3885974 L181.355203,83.6238451 C180.773823,84.1998185 179.606548,84.867206 178.254728,85.6400714 C175.253623,87.3564846 170.901343,89.8457633 168.446774,93.9485344 C168.586795,92.0486535 168.220287,90.8800861 167.338217,90.3948877 C165.375335,89.3158167 161.265028,91.8370584 153.59353,98.8280064 C153.428989,98.9999674 138.701571,114.154906 118.195849,104.206741 C121.283419,102.193071 122.573939,100.486247 122.140325,98.9980496 C121.107908,95.46422 110.218498,93.888444 86.83298,93.888444 C84.3558263,93.888444 75.2202331,93.3693648 66.0426981,91.0654715 C58.4286284,89.1540839 48.8478058,85.4783386 45.8581865,78.7603546 C48.8629048,79.216147 50.8913446,78.6216352 51.3339931,77.1334377 C52.2967212,73.8930285 45.2118939,67.3891966 27.2126848,60.1649187 C26.3904943,59.8312249 7.13928695,51.80084 1.35265849,29.6031736 C34.837853,38.7989296 60.8335129,27.1797387 83.7828353,16.9216604 C99.0335588,10.1045272 112.230419,4.2078645 124.581989,6.09368168 C121.445379,13.2706544 118.211981,26.0718371 129.911838,34.0389992 C134.116998,36.902245 139.034526,38.0925473 139.668171,37.4647939 L139.724954,37.4091782 L139.748183,37.332467 C143.721695,24.5542977 151.522245,23.6556259 158.403945,22.8628155 C162.160004,22.4300365 165.707644,22.0214854 168.089945,19.6614651 C170.940704,16.8372781 174.178619,12.1878757 173.440442,6.0644675 C175.383965,5.38876961 180.168569,2.25115338 181.231313,1.54668879 C181.726873,1.94699344 183.099341,2.96009279 184.564081,3.21081058 C182.289539,6.07770018 182.325029,8.95264446 183.378093,10.4803482 C184.003996,11.387586 184.932525,11.7588683 185.802981,11.4449916 C186.526318,11.1860273 188.808603,9.75293413 188.141404,2.17073446 Z M194.282345,0.100618607 L194.017143,0.218242458 C193.997785,0.227256025 192.005221,1.09722504 187.755538,1.57168386 L187.440006,1.60690709 L187.470333,1.91924956 C188.038162,7.80370235 186.808296,10.4049794 185.582947,10.844215 C184.997696,11.0544676 184.370503,10.7852752 183.911078,10.1198055 C182.935445,8.70518689 183.000616,5.92242391 185.446797,3.15762415 L185.915901,2.62767756 L185.20418,2.62767756 C183.428424,2.62767756 181.487481,0.925903346 181.468123,0.90870725 L181.280998,0.742627486 L181.072579,0.88198618 C181.009989,0.924177344 174.792907,5.07661893 173.009408,5.52812831 L172.74227,5.59499491 L172.768081,5.86744755 C172.772598,5.92242391 172.782276,5.99529956 172.793891,6.08620234 C173.526261,11.9813947 170.392233,16.4766715 167.633101,19.2095082 C165.410179,21.4124623 161.970943,21.8087396 158.32974,22.2280303 C151.27253,23.0411052 143.277756,23.9610004 139.169385,37.0237044 C138.306027,37.1931083 131.695982,35.6646375 127.023008,30.7698232 C119.821905,23.2266184 122.133227,13.1218347 125.34017,5.97356472 L125.508583,5.59704054 L125.098842,5.52857579 C112.426578,3.41530988 99.0322683,9.40383421 83.5176333,16.3391027 C60.5463722,26.6069617 34.5107061,38.2434126 0.991441865,28.8386186 L0.457811725,28.6890317 L0.590412685,29.2228139 C6.28334936,52.1358123 26.1273572,60.4155086 26.9692281,60.7568735 C35.3074088,64.1033999 41.9309396,67.5560435 46.1248725,70.7421156 C49.4124084,73.2397047 51.1281551,75.5614972 50.7151886,76.9531664 C50.3538429,78.1683998 48.3169502,78.5813618 45.3984386,78.0335159 L44.8313195,77.9267595 L45.0367703,78.4611809 C50.1665884,91.8006206 79.3092467,94.527704 86.83298,94.527704 C95.0761783,94.527704 120.161957,94.527704 121.52023,99.1757639 C121.880285,100.410814 120.485232,102.024946 117.373143,103.972132 L116.892424,104.272584 L117.398953,104.527649 C138.608654,115.195621 153.894867,99.4429746 154.047148,99.2825204 C158.581391,95.1509826 164.878485,89.776084 167.025265,90.953601 C167.875718,91.4221786 168.055746,93.0868118 167.5447,95.76659 L168.160278,95.9475006 C170.212205,90.9778929 175.04714,88.2130931 178.577358,86.1936706 C180.025967,85.3658288 181.170013,84.7112265 181.811402,84.075802 L182.048212,83.8431113 C183.495531,82.4258718 186.190137,79.788924 186.202397,75.8184798 C186.211431,72.7027262 184.518913,69.4105369 181.170013,66.0288512 C184.171118,62.3946578 186.647626,55.4816994 186.753449,55.183165 L186.850883,54.910201 L186.586327,54.787463 C183.2955,53.258353 186.146259,46.9443813 194.608846,28.2006371 C196.077458,24.9493604 197.715774,21.3207924 199.521857,17.2732534 L199.557991,17.1925788 L199.547022,17.1057034 C199.539924,17.0422888 198.780453,10.7340705 199.347637,6.53042416 L199.377319,6.31166937 L199.18116,6.20683071 C197.283449,5.19174966 194.45721,0.398066313 194.428819,0.349354697 L194.282345,0.100618607 Z" id="path98" fill="#1A64B7"></path>
                        <path d="M178.258599,70.2607528 C175.76725,80.7311934 166.321287,85.2833643 166.321287,85.2833643 C167.201421,82.1458759 166.321287,78.8805355 166.321287,78.8805355 C92.7616302,103.492048 39.2052317,39.9054888 39.2052317,39.9054888 C39.2052317,39.9054888 23.3963582,42.1333101 13.0721959,38.6173798 C16.9520161,48.1199806 26.6415005,55.3934816 36.6904594,61.1941274 C56.7244963,72.7589811 72.1133055,80.8085438 57.8775762,84.3193601 C75.6622363,98.3830814 145.672962,77.2926135 128.896198,102.543386 C145.995592,108.616357 171.156866,77.2926135 171.156866,89.1016646 C171.156866,85.9226243 190.472083,82.3606673 178.258599,70.2607528" id="path100" fill="#FFFFFF"></path>
                        <path d="M49.5545592,37.0192296 C49.5545592,42.1333101 108.731819,101.424681 168.579697,73.7817972 C170.276086,76.7006587 168.828122,81.5225973 168.828122,81.5225973 C175.935018,76.9269567 175.700143,67.3610692 177.290709,65.7859324 C183.070304,60.0594408 183.581996,56.0372164 183.581996,56.0372164 C178.262471,54.2754157 190.104285,35.8787897 198.302315,16.0906223 C197.415083,11.9563996 197.978395,6.7886213 197.978395,6.7886213 L193.962941,1.43935703 C193.962941,1.43935703 191.070885,2.94730759 188.860224,2.94730759 C187.690367,20.5199913 178.516058,9.97546056 183.591029,3.56611133 C181.160979,3.56611133 181.160979,2.30280559 181.160979,2.30280559 C181.160979,2.30280559 177.844342,6.25228211 175.032299,7.61320285 C173.875347,10.6197068 173.419148,15.2843236 173.419148,15.2843236 L165.993495,24.5535945 C145.34517,21.9965542 141.796239,37.9730056 141.796239,41.488936 C139.439749,41.488936 110.159779,37.9391248 115.996157,10.479645 C94.1153859,10.479645 83.4305232,27.7499587 49.5545592,37.0192296" id="path102" fill="#FFFFFF"></path>
                        <path d="M149.349654,35.759248 C145.811693,45.9241223 151.981025,51.4876026 151.981025,51.4876026 C134.392524,49.9763918 123.608291,40.7883069 123.608291,40.7883069 C131.721792,47.6456496 140.382474,47.1585334 144.479876,46.3811932 C144.148212,43.1497336 144.137888,27.3063122 163.043365,27.2717922 C163.043365,27.2717922 152.633383,26.3205093 149.349654,35.759248" id="path104" fill="#1A64B7"></path>
                        <path d="M139.773994,46.9808192 C141.627826,46.9808192 143.243558,46.778813 144.510203,46.5384512 L144.654742,46.510963 L144.640546,46.3652117 C144.554081,45.527781 143.941084,38.027982 148.796666,32.693996 C150.656306,30.6509209 153.076032,29.1972435 156.028097,28.3425528 C153.353494,29.4842713 150.611138,31.6436918 149.196728,35.7068287 C147.353219,41.0050161 148.174636,45.0419434 149.188985,47.4960628 C150.002658,49.4637052 151.044107,50.7358328 151.557735,51.289432 C143.303567,50.515288 136.548338,48.0279271 131.758572,45.655633 C134.660952,46.6522395 137.410406,46.9808192 139.773994,46.9808192 Z M162.3239,27.0896031 C161.744456,27.0896031 160.86045,27.1247624 159.811257,27.2845774 C154.996326,27.8138847 151.219618,29.5552291 148.557275,32.4798439 C143.82042,37.6834208 144.188218,44.8949136 144.305656,46.2514234 C140.831575,46.8874872 134.830011,47.2000854 128.54066,43.9245168 C125.500194,42.1518486 123.810258,40.7493121 123.716695,40.6700438 C123.715405,40.6687653 123.714114,40.668126 123.712824,40.6668475 C123.713469,40.6674868 123.713469,40.6674868 123.713469,40.6674868 C123.712824,40.6668475 123.712824,40.6668475 123.712824,40.6668475 L123.503114,40.9097663 C123.503759,40.9104056 123.50505,40.9110449 123.506986,40.9129626 C125.133686,42.2873718 126.779745,43.3702783 128.406446,44.2160194 C133.231056,47.0242888 141.401985,50.7396683 151.966829,51.6474176 L152.441741,51.687691 L152.089429,51.3699787 C152.028774,51.3143631 146.042696,45.7515221 149.501936,35.8116674 C151.562251,29.8902014 156.524302,28.1149762 159.83126,27.6042074 C160.854643,27.4910584 161.925129,27.433525 163.043365,27.4316072 L163.058851,27.1126164 C163.042075,27.1106987 162.774937,27.0896031 162.3239,27.0896031 Z" id="path106" fill="#1A64B7"></path>
                        <path d="M171.62468,76.5964593 C173.295904,74.4466277 174.166359,68.8460703 174.166359,68.8460703 C174.166359,68.8460703 172.472552,70.7715216 171.342701,71.6441116 C172.190573,73.8553121 171.62468,76.5964593 171.62468,76.5964593" id="path108" fill="#1A64B7"></path>
                        <path d="M171.533698,71.6971702 C172.338983,71.0540746 173.367527,69.9647754 173.912127,69.368985 C173.672735,70.6737148 172.984888,73.9978671 171.893108,75.8996658 C172.003447,74.9471683 172.085396,73.2250017 171.533698,71.6971702 Z M174.410913,68.3257126 L174.045051,68.7412316 C174.028274,68.7604094 172.348016,70.6647652 171.243331,71.5181774 L171.149768,71.5904137 L171.19171,71.7010057 C172.013772,73.8438055 171.472398,76.5376474 171.466591,76.5644963 L171.752441,76.6936268 C173.429472,74.5361241 174.290249,69.1004958 174.326384,68.8703622 L174.410913,68.3257126 Z" id="path110" fill="#1A64B7"></path>
                        <path d="M195.621259,9.2428046 C195.046978,9.73944574 194.285571,10.2303975 193.654506,10.007935 C192.991179,9.77396578 192.47368,8.75185287 192.469809,6.12193698 C192.469809,5.63725 192.654998,4.49955887 192.52272,4.49955887 C192.390442,4.49955887 192.122014,5.44042183 191.96457,5.88720068 C189.157688,13.8799332 195.407033,16.8340178 196.003253,16.2432137 C196.588504,15.6628934 194.953415,11.620021 195.772895,9.36541468 C195.83484,9.19486009 196.060036,8.94363089 196.003253,8.88673675 C195.94518,8.82977867 195.761281,9.12070593 195.621259,9.2428046" id="path112" fill="#1A64B7"></path>
                        <path d="M180.344725,33.5231163 L175.862748,31.246072 C181.502967,31.246072 187.23804,19.9766203 187.23804,19.9766203 L180.344725,33.5231163" id="path114" fill="#D3D2D2"></path>
                        <path d="M176.455097,31.3675314 C178.692859,31.0798644 181.158398,29.1799835 183.794286,25.7075228 C184.225965,25.1391567 184.629253,24.5690646 184.998987,24.0216662 L180.273102,33.3076857 L176.455097,31.3675314 Z M187.094146,19.9041921 L187.093501,19.9062378 C186.995422,20.0975044 181.318423,31.086257 175.862748,31.086257 L175.789189,31.388627 L180.415704,33.738547 L187.381287,20.0500713 C187.381933,20.0487928 187.381933,20.0482813 187.382578,20.0482813 L187.094146,19.9041921 Z" id="path116" fill="#D3D2D2"></path>
                        <path d="M108.99444,15.0503544 C95.6659461,15.0503544 79.9835435,33.5940742 56.7283679,39.3423007 C82.2516329,59.8791694 101.926905,72.588938 133.520132,74.8167593 C93.2133123,60.7504809 81.2637396,36.4707445 81.2637396,36.4707445 C81.2637396,36.4707445 87.914436,21.1285669 101.57911,21.1285669 C105.233218,28.1603637 111.570963,30.7174039 111.570963,30.7174039 C111.570963,30.7174039 106.99865,26.2426474 108.99444,15.0503544" id="path118" fill="#D3D2D2"></path>
                        <path d="M57.0800347,39.4196511 C68.7644054,36.4656304 78.471699,30.3453546 87.0452705,24.9398993 C95.2433007,19.7705868 102.335355,15.2990266 108.802797,15.2116397 C107.814904,20.9245151 108.569213,24.8440103 109.381596,27.1343513 C109.928131,28.6736895 110.562422,29.6933093 110.985067,30.2648078 C109.285452,29.4030852 104.624738,26.6396918 101.723003,21.0556274 L101.677835,20.9687519 L101.57911,20.9687519 C94.4599549,20.9687519 89.2727086,25.1706083 86.1754599,28.6947851 C82.8265597,32.5054143 81.1321066,36.3691021 81.1153298,36.408097 L81.0862931,36.4752193 L81.1185561,36.5410631 C81.1488833,36.6017928 84.2099975,42.7252649 92.1641193,50.4826858 C99.3645772,57.5062361 112.142019,67.3265491 132.336725,74.5674478 C102.854144,72.225199 83.7228261,60.8323062 57.0800347,39.4196511 Z M109.186727,14.8905394 L108.99444,14.8905394 C102.381168,14.8905394 95.1942609,19.422254 86.8716956,24.6699398 C78.2426316,30.1107461 68.4630689,36.2776879 56.6896523,39.1875997 L56.3767011,39.2649502 L56.6270621,39.4663171 C83.8112267,61.3392394 103.165159,72.8369709 133.509163,74.975935 L133.573689,74.6658939 C112.78986,67.4128492 99.713663,57.3943656 92.4035108,50.2678944 C84.9249457,42.9771334 81.7934982,37.1451638 81.4418314,36.4662697 C81.6825135,35.9369623 83.3492204,32.3954616 86.4245303,28.8980698 C89.4630603,25.4428052 94.5367408,21.3273129 101.48103,21.2888294 C105.128041,28.2268467 111.445783,30.8401419 111.509664,30.8657123 L111.683884,30.6042549 C111.639361,30.5595067 107.19739,26.0438375 109.153819,15.0785458 L109.186727,14.8905394 Z" id="path120" fill="#D3D2D2"></path>
                        <path d="M180.679615,16.0049615 C181.502967,15.6533684 183.645231,15.5714792 183.645231,15.2690453 C183.645231,14.9674424 182.473439,15.6181452 180.983533,14.1426051 C179.223909,12.5412587 180.578955,10.3008439 179.847875,10.3008439 C179.415551,10.3008439 177.499128,17.3102027 178.58252,17.3102027 C179.36522,17.3102027 179.856909,16.3557874 180.679615,16.0049615" id="path122" fill="#D3D2D2"></path>
                        <path d="M179.7356,48.3430823 C179.522664,49.1236189 178.823202,54.8187868 176.285394,56.0333809 C176.285394,56.0333809 177.491385,53.0173519 176.853868,52.385763 C176.215706,51.7535348 174.912925,50.7984802 175.578189,48.4568706 C176.112464,46.5800031 177.83789,46.2264923 179.311019,46.5716927 C179.981444,45.9215652 180.904166,45.7905169 181.699126,46.5787246 C180.586698,46.1651233 179.948536,47.5619065 179.7356,48.3430823" id="path124" fill="#1A64B7"></path>
                        <path d="M177.079064,48.3660957 C176.931944,47.9090248 177.184886,47.4187123 177.647538,47.2716825 C178.107608,47.1246527 178.602523,47.3765211 178.751578,47.8335921 C178.899988,48.2925808 178.645755,48.7816147 178.185685,48.9292838 C177.723033,49.0763136 177.228119,48.8244452 177.079064,48.3660957" id="path126" fill="#FFFFFF"></path>
                        <path d="M179.170997,45.0796597 C179.767218,45.2324429 179.894334,44.1866134 180.304074,43.445711 C174.746448,44.001228 176.692553,44.6002147 173.910836,47.749849 C176.446709,45.306597 176.210544,44.8929958 179.170997,45.0796597" id="path128" fill="#D3D2D2"></path>
                    </g>
                </g>
            </g>
        </g>
    </g>
</svg>