<?xml version="1.0" encoding="UTF-8"?>
<svg width="200px" height="200px" viewBox="0 0 200 200" version="1.1" xmlns="http://www.w3.org/2000/svg" xmlns:xlink="http://www.w3.org/1999/xlink">
    <!-- Generator: Sketch 51.3 (57544) - http://www.bohemiancoding.com/sketch -->
    <title>alas-anchorage</title>
    <desc>Created with Sketch.</desc>
    <defs></defs>
    <g id="alas-anchorage" stroke="none" stroke-width="1" fill="none" fill-rule="evenodd">
        <g id="alas-anchorage_BGL" transform="translate(-1.005025, 35.000000)">
            <g id="alas-anchorage">
                <g id="g10" transform="translate(100.306356, 65.356454) scale(-1, 1) rotate(-180.000000) translate(-100.306356, -65.356454) translate(0.000000, 0.231215)" fill-rule="nonzero">
                    <g id="g12">
                        <path d="M105.835986,129.900575 C101.855489,129.900575 97.8199976,129.533715 93.8433734,128.809245 C82.9305066,127.153754 71.7542098,121.462039 62.3632112,112.776876 C53.7748958,104.831597 47.3671399,95.0682057 44.1454856,85.0759131 C32.0613194,78.8755279 18.2419695,71.2629655 5.50668726,61.5344879 L0,57.3271662 L5.78141049,53.5025035 C17.1415429,45.9877445 58.4945615,18.5094408 63.7861672,14.9741037 C69.4141671,10.8245855 78.6595472,5.46754514 86.7336279,2.78841612 L86.8165065,2.76161843 L86.8986105,2.73753365 C93.0835237,0.920339091 99.4303212,0 105.763177,0 C122.177014,0 137.659049,6.09104416 149.700459,17.2215025 C152.020285,16.410173 153.836644,15.7032751 156.659938,14.504123 L156.738944,14.4701345 L156.818724,14.4394601 C157.862065,14.0383812 158.941811,13.8358378 160.024655,13.8358378 C163.226713,13.8358378 166.166192,15.6623503 167.514713,18.4887086 C168.422504,20.3899032 168.557279,22.4539493 168.026701,24.3259339 C174.015649,25.799614 178.803244,29.3232363 182.148597,32.1378027 C185.818492,35.267976 196.436249,45.8495557 198.897047,50.248939 L198.98922,50.4154901 L199.069775,50.5879756 C201.095267,54.9731778 199.764561,59.3488232 195.595845,62.0071661 C189.707591,65.7643914 179.550701,70.295952 169.58203,73.6599596 C168.20795,83.5098245 164.779718,92.7136778 159.370146,101.061269 L159.344586,101.102117 L159.316701,101.143735 C146.951522,119.418879 127.457234,129.900575 105.835986,129.900575" id="path14" fill="#1E513D"></path>
                        <path d="M105.835986,128.794602 C101.915905,128.794602 97.9423791,128.432367 94.0253965,127.717916 C83.3263101,126.099419 72.3535693,120.507897 63.1208146,111.966857 C54.5448923,104.033909 48.1829132,94.2682057 45.0658255,84.3036588 C32.9278269,78.0855472 18.995003,70.4425416 6.183821,60.6568771 L1.90918238,57.3922144 L6.39712886,54.4237366 C17.7681672,46.9008851 59.2222667,19.3548357 64.4266562,15.8776104 C69.9817693,11.7789592 79.1165414,6.48241988 87.0852811,3.83670896 L87.1487955,3.81593054 L87.2130845,3.79726387 C93.2965295,2.01168396 99.5372114,1.10609631 105.763177,1.10609631 C122.115049,1.10609631 137.527372,7.25945261 149.43091,18.4862423 C152.093869,17.5692481 153.990008,16.8410015 157.095245,15.521464 L157.157985,15.4958763 L157.21995,15.4705198 C158.134713,15.1192289 159.078135,14.940963 160.024655,14.940963 C162.799927,14.940963 165.345152,16.5203849 166.509325,18.9634677 C167.467464,20.9643155 167.401626,23.2315986 166.507002,25.128246 C172.863869,26.3312518 177.950446,30.0554135 181.432123,32.9819645 C185.174053,36.1756446 195.616758,46.6612705 197.925741,50.7869737 L197.99855,50.9155286 L198.059741,51.0497868 C199.862931,54.9548348 198.718897,58.7018097 194.997105,61.0756825 C189.048435,64.87206 178.667695,69.4740638 168.57277,72.8320598 C167.284666,82.7761058 163.880447,92.060884 158.436794,100.462425 L158.415106,100.494795 L158.394967,100.525624 C146.239696,118.490941 127.082344,128.794602 105.835986,128.794602" id="path16" fill="#FFFFFF"></path>
                        <path d="M190.815995,56.7356441 C192.21951,55.5677828 195.390585,54.5860487 194.507579,52.661964 C193.752377,51.3912126 191.489093,48.6621182 189.917498,46.8969545 L183.96573,40.711367 C183.96573,40.711367 180.328365,37.1775713 178.887672,35.9206157 C178.148735,35.2754519 163.510204,29.6417719 158.601002,28.9535253 C157.236216,28.212639 155.752921,27.5905966 154.235545,27.1878221 C132.276586,33.5862034 96.2414311,34.1925232 69.0256445,19.2139494 L66.6278191,19.024277 L14.727684,53.6136403 C28.5821218,65.6604993 59.4461939,82.0007687 83.774784,90.4724448 C87.5763562,91.9845834 91.985963,94.8593425 90.9209341,99.3973 C89.8566798,103.93757 88.1828417,108.474756 88.6398359,109.232367 C89.0960556,109.987666 96.6984253,112.863196 108.405223,112.410016 C117.072621,104.843928 130.299118,88.3545257 132.883846,84.1186877 C138.511846,81.3942176 141.096575,77.7633892 142.465233,74.8894779 C143.832343,72.0147188 145.657996,69.1386495 152.195337,67.6282835 C158.734227,66.1151429 180.475533,61.1220794 190.815995,56.7356441" id="path18" fill="#FFFFFF"></path>
                        <path d="M163.238331,69.7404992 C162.300331,79.8874739 159.082782,89.097493 153.671661,97.4481671 C140.25617,117.272444 117.667488,126.561076 94.6845525,122.346818 C74.3689912,119.303273 54.9155223,100.72678 49.502697,81.1375702 C63.0246135,86.9641597 79.33342,93.1676277 81.8925875,94.1217703 C84.450206,95.0789957 86.3680325,98.8947952 85.0892233,101.599227 C83.8119632,104.3052 82.8515008,107.805007 82.6911656,109.236221 C82.5316049,110.669747 83.8111887,112.57649 85.0892233,113.055103 C86.3680325,113.532174 104.116448,116.235835 106.835177,116.235835 C109.55313,116.235835 110.299812,115.050479 112.91165,112.895566 C118.507118,108.282078 131.139523,92.850094 134.337708,87.9175315 C137.694679,87.2816934 142.330459,84.1001906 143.928389,80.7583795 C145.529418,77.4173391 148.696621,73.2379172 155.281985,71.0527921 C158.158724,70.1008846 160.643534,70.0186495 163.238331,69.7404992" id="path20" fill="#FBC01C"></path>
                        <path d="M147.237337,24.0031593 C132.020979,8.55036587 109.743674,2.61892094 88.4880209,8.86080903 C83.5462869,10.5000383 78.8733275,12.7784968 74.3623299,15.4982655 C94.683778,26.1895176 121.605384,31.5236986 147.237337,24.0031593" id="path22" fill="#FBC01C"></path>
                        <polyline id="path24" fill="#1E513D" points="174.351036 22.5719455 174.351036 22.141117 173.126447 22.141117 173.126447 18.9511363 172.627626 18.9511363 172.627626 22.141117 171.403036 22.141117 171.403036 22.5719455 174.351036 22.5719455"></polyline>
                        <path d="M174.791764,22.5719455 L175.501267,22.5719455 L176.544608,19.5099032 L177.584076,22.5719455 L178.287383,22.5719455 L178.287383,18.9511363 L177.815672,18.9511363 L177.815672,21.0928704 C177.815672,21.166011 177.81877,21.2855486 177.821094,21.458959 C177.824967,21.6268973 177.824967,21.8111748 177.824967,22.0053944 L176.787048,18.9511363 L176.297522,18.9511363 L175.248759,22.0053944 L175.248759,21.8945659 C175.248759,21.8087856 175.251857,21.6723694 175.25573,21.4899417 C175.260377,21.30867 175.262701,21.1753367 175.262701,21.0928704 L175.262701,18.9511363 L174.791764,18.9511363 L174.791764,22.5719455" id="path26" fill="#1E513D"></path>
                        <path d="M95.4157433,88.2990344 C98.1321478,91.0019245 100.196367,97.1306334 98.1855929,102.017724 C97.2971652,103.835836 94.7356739,106.122541 93.0145873,107.47283 C103.406171,105.654718 113.539049,99.6801517 120.952425,93.0805372 C111.398148,95.0535622 102.830668,92.6643522 95.4157433,88.2990344" id="path28" fill="#1E513D"></path>
                        <path d="M178.944215,35.9106735 C173.227915,31.1036601 166.548054,27.3419646 158.65832,28.9441997 C158.65832,28.9441997 163.095811,31.5028894 164.666632,33.8412323 C163.93699,34.0986504 160.126123,35.0087082 158.09521,35.509055 C159.494852,36.9072052 160.806967,38.6527929 161.669834,39.9939874 C168.043741,38.8330626 173.93277,37.4244307 178.944215,35.9106735" id="path30" fill="#1E513D"></path>
                        <path d="M159.928609,40.3052784 C153.972967,35.5792669 146.574308,32.7878219 138.60402,34.309055 C140.213569,37.1932168 141.914517,39.672446 143.92684,42.3955288 C149.418516,41.9084383 154.817245,41.189209 159.928609,40.3052784" id="path32" fill="#1E513D"></path>
                        <path d="M142.485372,42.5162224 C136.529731,37.6285154 129.67869,34.0694404 121.385407,35.1075136 L125.974714,43.0473207 C131.429985,43.1529854 136.995245,42.9573014 142.485372,42.5162224" id="path34" fill="#1E513D"></path>
                        <path d="M124.609153,43.0313669 C119.132194,37.2655097 112.532887,33.9893633 104.726807,33.747899 C105.368148,36.3915212 106.093142,38.9526002 107.460252,41.2762225 C112.861304,42.2991897 118.658159,42.8579565 124.609153,43.0313669" id="path36" fill="#1E513D"></path>
                        <path d="M125.896482,82.2034662 C116.697731,82.0894006 112.959673,78.0408458 110.467119,73.3932159 C108.038853,68.8665108 105.052125,67.4033895 100.654136,66.5787267 C100.599917,64.7308654 101.101061,61.8885534 101.976321,60.0547962 C107.298367,60.8899407 110.177431,59.9852779 112.592529,58.1087461 C115.71713,55.687937 118.445153,53.7981489 126.255107,53.8957212 C134.061962,53.9932934 135.890713,55.9790352 139.142343,58.2273589 C141.660459,59.9632355 144.585996,60.7099021 149.853048,59.5818097 C150.827453,61.365933 151.486609,64.1760292 151.535407,66.0221178 C147.191638,67.0890157 144.126678,68.678611 141.771996,73.2433122 C139.353025,77.9290925 135.096783,82.3190731 125.896482,82.2034662 Z M145.290852,23.9661651 C130.615141,28.0199608 100.012021,28.3330243 77.1147518,15.4873985 C81.3798246,13.0018494 85.890125,11.0750672 90.6374428,9.71884369 C110.440783,4.67214632 130.965245,9.95213848 145.290852,23.9661651 Z M146.126609,80.4007687 C149.645464,74.0808459 155.994586,72.6057015 162.120632,70.7697863 C161.159395,80.3013467 157.934875,89.6570305 152.45869,97.5845833 C138.533534,117.529091 114.866656,126.578802 91.0425411,120.253562 C74.055834,116.167242 57.3131153,100.548745 52.1606993,83.7271655 C61.1759557,87.892098 70.0652676,91.7556817 79.642472,94.6396893 C81.175339,95.1992269 83.1861135,95.679381 83.8313274,97.5213848 C85.2859632,103.264737 77.6076859,110.696722 83.7182407,113.864352 C92.2516393,117.390363 104.547882,118.286702 108.997766,117.97071 C110.457824,117.865122 111.457789,117.038147 112.127015,116.463196 C121.108887,108.409246 130.510575,97.8604985 135.835719,89.3394968 C139.128401,88.5595354 142.940043,86.1163755 146.126609,80.4007687 Z M183.837151,40.5280915 C161.696944,46.3499796 131.713476,51.0937174 105.691142,46.0802301 C100.985651,44.8578794 99.5426333,38.3083613 98.524853,33.9893633 C98.0275814,31.7642381 99.1406334,31.0690551 100.457396,31.1036601 C120.065546,33.4775329 142.158505,33.7388816 161.717857,24.937957 C163.376204,23.9661651 163.693002,21.992986 163.028424,20.6057028 C162.368493,19.2223502 160.590088,18.2851633 158.607198,19.0480149 C154.63832,20.7331016 152.516782,21.5092095 148.423199,22.8763 C132.80639,7.01740252 110.11624,1.06816182 88.3044487,7.47351041 C80.5773737,10.0385354 73.4915623,14.1242386 66.6508238,19.0094793 C72.1236005,22.7730245 78.5999055,25.94235 84.0652465,28.0199608 C86.5732926,29.0242767 86.9226221,31.8674366 86.2123447,33.747899 C85.4950961,35.6439297 82.9700095,36.8716754 80.3240905,36.0747583 C75.4451738,34.6040839 66.1976249,30.2296717 57.9551535,24.7774946 C57.016224,25.4019261 51.6357756,28.9734097 51.6357756,28.9734097 C62.4518216,36.6257409 74.2842536,42.7522918 88.5585065,47.3163765 C90.458518,47.9304805 92.0851075,50.7845845 91.1990035,53.2107887 C90.3338128,55.5966845 87.7181019,56.7919061 85.2441366,56.0934861 C71.1847485,52.1308657 57.3977754,43.76655 43.4655712,34.3861263 L37.1068453,38.5549123 C54.8181593,50.7291702 72.8349623,60.1532162 93.3623676,65.9194589 C95.4157433,66.4730619 96.9145294,69.3488229 96.1144022,71.7042757 C95.4513733,73.6557978 93.3282867,75.4470887 90.4771076,74.7552197 C68.0223486,69.3210773 48.3770971,56.8151046 28.8148016,44.1594594 L22.6197416,48.1665499 C53.2880807,69.869979 87.11394,83.779574 124.713719,89.0789958 C126.12498,89.3418089 126.348055,90.2258166 125.810506,91.0019245 C123.877962,93.7973002 115.03009,105.352599 108.02646,111.04123 C101.888795,111.263196 95.3646219,110.592675 90.6645526,109.08439 C90.0379284,108.823889 89.7226798,108.201153 90.0379284,107.421963 C92.0130728,102.501732 94.3716277,95.9383406 90.2447376,91.9352578 C89.4996047,91.1737935 87.9489227,90.2227338 86.9350152,89.8967222 C61.256743,81.6446993 36.9455806,70.1119828 14.727684,53.6120989 L8.52960325,57.6161835 C21.0083336,67.1480523 34.6104176,74.6778401 48.2969294,81.6446993 C53.8490218,101.750286 73.8134721,120.812328 94.6628647,123.936798 C118.247639,128.26281 141.432736,118.731404 155.198331,98.385354 C160.750424,89.8150267 164.053175,80.3630038 165.015961,69.9497478 C176.416805,66.3710195 187.380018,61.3815784 192.917394,57.8470891 C195.213984,56.3833512 195.447128,54.5724842 194.557926,52.6510969 C190.231198,54.5908272 183.715545,57.2088618 179.704839,58.2971854 C179.094481,58.464276 178.384204,58.6446228 177.826516,58.1593049 C175.183695,56.4420795 170.514608,51.3023494 167.352054,47.2016173 C169.887984,46.3647002 172.672551,46.4507888 174.412227,47.0050855 C176.154227,47.5599217 178.541441,48.6433899 180.636643,50.3266269 C183.691533,49.4080913 187.070192,48.1300951 189.972492,46.8831588 C188.429556,45.0388428 186.037695,42.6782263 183.837151,40.5280915 Z" id="path38" fill="#1E513D"></path>
                        <path d="M135.893812,68.1349501 C135.962748,62.8778404 131.732066,58.56154 126.447974,58.4950274 C121.163107,58.4290544 116.827858,62.638457 116.761246,67.8961833 C116.693858,73.1526764 120.92454,77.4682062 126.208633,77.5360289 C131.490401,77.5992273 135.827199,73.3932159 135.893812,68.1349501" id="path40" fill="#1E513D"></path>
                    </g>
                </g>
            </g>
        </g>
    </g>
</svg>