<?xml version="1.0" encoding="UTF-8"?>
<svg width="200px" height="200px" viewBox="0 0 200 200" version="1.1" xmlns="http://www.w3.org/2000/svg" xmlns:xlink="http://www.w3.org/1999/xlink">
    <!-- Generator: Sketch 51.3 (57544) - http://www.bohemiancoding.com/sketch -->
    <title>albany-st-ga</title>
    <desc>Created with Sketch.</desc>
    <defs></defs>
    <g id="albany-st-ga" stroke="none" stroke-width="1" fill="none" fill-rule="evenodd">
        <g id="albany-st-ga_BGL" transform="translate(-1.000000, 8.000000)">
            <g id="albany-st-ga" transform="translate(0.430199, 0.000000)">
                <g id="g10" transform="translate(100.569801, 91.859447) scale(-1, 1) rotate(-180.000000) translate(-100.569801, -91.859447) translate(0.000000, 0.121556)" fill-rule="nonzero">
                    <g id="g12" transform="translate(0.075973, 0.000000)">
                        <path d="M106.302875,181.685088 C139.357385,176.697434 162.247289,154.807214 169.319654,122.184992 C169.624307,120.784043 170.197147,119.568468 170.889264,118.360491 C173.528581,113.753463 175.779673,108.865334 178.883186,104.596389 C183.148334,98.7289624 184.183851,92.5075001 182.592968,85.688127 C181.941116,82.8945848 182.573975,80.5659999 183.927061,78.1280132 C188.590309,69.7284693 193.086415,61.2369215 197.694202,52.8060006 C198.206263,51.8693244 200.096896,48.9791722 200.096896,43.6348806 C200.096896,41.2656466 199.824237,37.7400785 199.190535,34.4902597 C198.425401,30.1095158 198.776791,25.6325465 198.483566,21.2208922 C198.168276,16.4717185 196.568276,13.14188 192.284895,10.8977015 C187.942256,8.62207006 183.980242,5.6790122 179.826016,3.06713003 C178.35428,2.14202808 176.859438,1.31170211 175.283379,0.636810412 C174.798621,0.429230004 173.622314,0.0599478048 169.53151,0.0599478048 C165.237417,0.0599478048 163.676052,0.405527687 163.162505,0.521374591 C160.737729,1.06835974 158.209779,0.863552648 155.758401,1.24584232 C153.140357,1.65390309 151.425637,2.76709585 150.222218,5.18666654 C147.249379,11.1642162 143.255457,16.2864953 137.387271,19.7963908 C134.871032,21.301348 132.831146,21.2330479 130.508639,19.3489074 C117.999617,9.19574526 103.572267,5.07567699 87.5456768,5.05757252 C62.515706,5.02937879 41.2505973,13.7345486 24.129838,31.8396953 C11.2968658,45.4107491 3.29386508,61.5408152 1.28234756,80.360112 C1.16601404,81.4510901 0.584638936,85.6194576 0.584638936,96.8290015 C0.584638936,100.280236 0.331304368,105.781388 1.58146642,114.632308 C2.939632,121.821251 5.4140225,128.675703 8.96812894,135.209873 C22.3284325,159.772836 42.9620502,174.718324 69.9115652,181.313576 C72.3439298,181.909207 81.6456142,183.227426 89.396374,183.227426 C96.5633161,183.227426 97.8564211,182.934003 99.7650286,182.673696 C101.646419,182.388622 103.813079,182.060778 106.302875,181.685088 Z" id="path14" fill="#2954AB"></path>
                        <path d="M5.48462666,95.2995228 C4.93174538,130.453178 28.1288502,161.865903 62.9430564,173.242161 C84.2810995,180.214241 105.482239,178.893823 125.969987,170.183472 C146.640832,161.395627 158.918894,145.214051 163.982522,123.507689 C164.797717,120.012912 165.90161,116.776445 167.744725,113.707879 C170.739597,108.720225 173.467042,103.569228 176.511297,98.6127231 C178.054317,96.1002825 178.762389,93.6326662 178.104459,90.7251639 C176.589549,84.0319067 177.581002,77.9304824 181.489074,72.0325908 C184.967897,66.7797134 187.319274,60.7879187 190.704649,55.4635504 C194.069511,50.170635 195.2433,44.8130663 194.205503,38.6226771 C193.203414,32.6495718 192.793917,26.5693441 192.30085,20.5211011 C192.151182,18.6849758 191.525161,17.5664953 189.949473,16.5924402 C184.569036,13.2671602 179.24558,9.84448219 173.98746,6.32864562 C172.063813,5.04243862 170.204744,4.41179856 167.95973,5.21189731 C167.375494,5.42082418 166.717565,5.46236644 166.088505,5.50213851 C159.647479,5.91138447 154.792779,7.96596371 151.393728,14.3910348 C147.924783,20.944349 141.614431,25.2119272 134.365049,27.6003032 C133.044631,28.0357068 131.879199,28.4959537 130.549664,27.2545482 C110.909779,8.91411184 87.6315268,7.22726668 63.5101979,14.4738458 C30.5119081,24.3865521 12.6403796,48.1003597 6.66132558,81.431337 C5.8101879,86.1758763 5.67218981,90.9880319 5.48462666,95.2995228" id="path16" fill="#FFFFFF"></path>
                        <path d="M87.6695135,171.321553 C103.668753,171.108068 117.060586,168.843301 129.262675,161.887175 C145.576445,152.585751 154.972836,138.317186 158.512437,120.066094 C158.956881,117.774736 159.626207,115.704461 160.790879,113.710159 C164.108638,108.028107 167.282047,102.260206 170.667422,96.6184211 C171.911867,94.5443471 172.512816,92.5173766 171.933139,90.1606815 C170.109018,82.7517548 171.753082,76.1960095 175.854127,69.7391056 C180.116995,63.0267791 183.489454,55.7508058 187.314715,48.7568459 C188.199046,47.1391441 188.568276,45.5703692 188.369226,43.699828 C187.658875,37.031718 187.04273,30.3522879 186.534468,23.6657164 C186.399995,21.8948523 185.527061,20.9603793 184.155741,20.1148713 C181.031714,18.1878818 177.81728,16.3654317 174.906738,14.1491354 C171.642161,11.6634375 168.407213,10.9932761 164.332,11.9423359 C161.305219,12.6480529 159.206834,13.5743206 157.506549,16.3927821 C153.225447,23.4902938 147.227347,28.8986887 139.511488,32.1255073 C137.292304,33.0537504 137.030196,33.7656972 138.285277,35.8823163 C144.856976,46.9675962 148.73162,58.8823537 148.603985,71.9073106 C148.383662,94.4866073 132.966378,111.737129 110.599048,114.360491 C109.085657,114.538269 108.110159,115.047291 107.146816,116.231716 C100.456598,124.458117 91.7773956,126.827727 81.9608717,123.503131 C67.1117932,118.475211 57.704462,108.270463 56.4307678,92.3046511 C55.2142816,77.0560285 63.2757439,66.2396185 75.5561615,58.4470261 C86.7122486,51.3672162 98.4660944,50.007976 110.365049,56.9565798 C116.209684,60.370065 120.142067,65.2679946 121.573406,72.0150409 C123.408164,80.6640056 120.181573,88.2104441 112.575116,92.7711278 C108.167139,95.4142426 103.316237,96.7977184 98.2609662,97.5247839 C96.3175665,97.804366 94.3992379,98.1568826 94.0224098,100.553084 C93.6691335,102.807975 95.1156672,104.122315 96.8068352,105.089456 C102.358212,108.260586 108.355553,108.761251 114.456217,107.396009 C133.074261,103.229627 145.055267,84.6974338 142.318705,64.506741 C138.061915,33.0909014 112.072172,13.8864954 80.4687539,17.0940167 C41.2319078,21.0757829 9.5225069,53.4550414 11.8378725,100.265904 C13.5740168,135.36182 41.1182516,165.021078 76.2072536,170.35821 C80.7293427,171.04577 85.2634357,171.279008 87.6695135,171.321553" id="path18" fill="#2A55AB"></path>
                        <path d="M100.887367,113.53542 C97.2262084,112.330482 93.8241192,111.320795 90.984993,109.060586 C84.8189912,104.150425 85.405506,96.4892663 92.4657147,93.1266833 C96.210444,91.3428277 100.300092,90.2875571 104.219561,88.8638154 C109.799048,86.8368449 114.73504,84.1413084 115.209874,77.2930655 C115.662675,70.746361 111.854128,64.7058673 105.375876,61.5272159 C105.034755,61.3606822 104.698953,61.1829045 104.350235,61.0339206 C89.8188012,54.8011382 70.194946,65.1949841 64.5165416,82.1302923 C59.5177193,97.0385541 68.946475,113.603796 84.6222201,117.455648 C90.6537489,118.937889 96.0744516,117.70712 100.887367,113.53542" id="path20" fill="#2B56AB"></path>
                        <path d="M13.4564859,95.8001875 C12.7875401,138.500281 48.5010434,167.10123 83.1202259,169.309777 C99.6877468,170.367327 115.76296,168.104839 130.281478,159.265333 C144.605504,150.543586 153.126682,137.655457 156.41861,121.353843 C157.212532,117.4207 158.507878,113.882618 160.55992,110.494964 C162.920414,106.599807 164.819749,102.398478 167.428676,98.6879368 C170.124212,94.8543186 170.706169,90.8961041 169.734469,86.5321916 C168.638932,81.6129134 169.532379,77.2816695 172.172455,72.8454303 C176.893443,64.9147942 180.990689,56.6138637 185.384231,48.4855448 C186.177393,47.0192581 186.841401,45.6161052 186.648428,43.8444054 C185.963148,37.5576059 185.38727,31.2585747 184.755931,24.9650136 C184.616899,23.5829054 184.44292,22.3225066 182.992588,21.4488124 C178.982712,19.0322502 175.117944,16.3761439 171.114146,13.9494014 C167.999236,12.0637414 161.403225,13.8212342 159.418799,16.9533139 C155.057926,23.8343014 149.508828,29.4640069 142.052038,32.9163904 C139.835894,33.9426392 139.775115,34.7441587 140.891924,36.7910342 C146.858876,47.7249751 150.542826,59.3221638 150.410633,71.9337494 C150.165238,95.1620109 134.181193,113.206455 111.10655,116.170178 C109.650899,116.357072 108.90712,117.088696 108.037984,118.032286 C100.224879,126.522314 90.9667594,128.90484 80.1359904,124.809873 C66.3042719,119.580624 57.2414801,109.871222 54.9082607,95.0624858 C52.5887166,80.3411186 59.0767697,68.8758197 70.2394664,59.9575294 C83.3914509,49.4494954 98.2374145,47.8641583 110.913577,55.1323823 C117.109969,58.6849748 121.429817,63.7737496 123.127822,70.8559147 C125.570367,81.0469116 121.666854,89.8681839 112.481669,94.8953443 C108.209684,97.233046 103.552514,98.412913 98.8231694,99.3625806 C97.6410232,99.6003774 96.0144326,99.3040811 95.8396937,101.02184 C95.6892664,102.490406 97.0096842,103.214432 98.1135778,103.778155 C104.064575,106.819371 110.245012,107.030577 116.542447,105.025638 C131.522884,100.255268 141.67521,85.1487158 140.820509,68.9419926 C139.27521,39.6308442 118.654508,19.5304838 89.3523245,18.7737127 C51.1945286,17.7884896 19.2512816,45.282506 14.3287366,83.3093996 C13.7909208,87.4613463 13.4882428,91.6186112 13.4564859,95.8001875" id="path22" fill="#E09A14"></path>
                        <path d="M96.6100641,114.474451 C94.4698932,113.255838 92.5713177,112.312248 90.8201307,111.148335 C86.9849931,108.599427 84.7240245,105.101612 85.019561,100.340358 C85.3150976,95.5844231 88.2529893,92.7756862 92.3996178,91.1354203 C96.3912607,89.5566929 100.493065,88.2575477 104.519656,86.7654299 C109.127443,85.0575477 113.082618,82.577016 113.407784,77.0613466 C113.744347,71.3488301 111.060206,66.9607581 106.30807,64.0948132 C99.4119633,59.9377003 92.1063605,60.0676908 84.7954395,63.0481276 C70.4682983,68.8912423 62.2284505,84.042543 65.9841199,97.5255436 C69.4029233,109.800567 83.3838536,118.744157 94.1918305,115.550235 C94.8953443,115.341308 95.5456766,114.953843 96.6100641,114.474451" id="path24" fill="#E09A14"></path>
                        <path d="M148.714906,108.686037 C153.168467,102.257927 157.556691,95.7827137 162.115096,89.4298173 C163.442351,87.5798649 163.491734,86.1758763 162.077869,84.4201308 C160.523453,82.491166 159.195438,80.3791053 157.294583,77.6714131 C154.962959,88.3327613 151.603415,97.7846129 147.93162,107.132381 C147.550993,107.974166 147.297242,108.752134 148.714906,108.686037" id="path26" fill="#2D5AAB"></path>
                        <path d="M148.714906,108.686037 C148.001516,108.396578 148.071411,107.712058 147.93162,107.132381 C146.880148,108.645012 146.24805,110.308069 145.783852,112.428487 C147.420319,111.326113 148.180053,110.090026 148.714906,108.686037" id="path28" fill="#4C7273"></path>
                        <path d="M158.011012,82.6545089 C156.497622,87.6968639 154.984991,92.7384592 153.472361,97.7808143 C153.625067,97.867424 153.777774,97.9547934 153.93048,98.0414031 C156.207404,94.7426377 158.641591,91.5388391 160.711867,88.1154774 C162.400756,85.3242144 158.890025,84.5659998 158.011012,82.6545089" id="path30" fill="#F5F9FC"></path>
                    </g>
                </g>
            </g>
        </g>
    </g>
</svg>