<?xml version="1.0" encoding="UTF-8"?>
<svg width="200px" height="200px" viewBox="0 0 200 200" version="1.1" xmlns="http://www.w3.org/2000/svg" xmlns:xlink="http://www.w3.org/1999/xlink">
    <!-- Generator: Sketch 51.3 (57544) - http://www.bohemiancoding.com/sketch -->
    <title>alfred-st</title>
    <desc>Created with Sketch.</desc>
    <defs></defs>
    <g id="alfred-st" stroke="none" stroke-width="1" fill="none" fill-rule="evenodd">
        <g id="alfred-st_BGL">
            <g id="alfred-st" transform="translate(0.000000, 15.000000)">
                <g id="g10" transform="translate(100.000000, 84.217350) scale(-1, 1) rotate(-180.000000) translate(-100.000000, -84.217350) translate(0.000000, 0.217350)">
                    <g id="g12">
                        <path d="M194.868288,40.3497009 L117.337883,164.599454 L115.80661,167.054305 L84.1025453,167.054305 L82.5723557,164.588397 L5.47670447,40.3388608 L0.533959878,32.3724653 L9.9088778,32.3724653 L53.8850935,32.3724653 L59.0432506,32.3724653 L59.1002695,37.529972 C59.151218,42.0396737 62.4342532,45.7068823 66.4201609,45.7068823 L133.851487,45.7068823 C137.838262,45.7068823 141.121731,42.0396737 141.172246,37.5314896 L141.228398,32.3724653 L146.387205,32.3724653 L190.442705,32.3724653 L199.846065,32.3724653 L194.868288,40.3497009" id="path14" fill="#FCD006" fill-rule="nonzero"></path>
                        <path d="M66.4201609,50.9227088 L133.851487,50.9227088 C140.716961,50.9227088 146.305687,44.9556628 146.387205,37.5885085 L190.442705,37.5885085 L112.913602,161.838262 L87.0044423,161.838262 L9.9088778,37.5885085 L53.8850935,37.5885085 C53.9672615,44.9556628 59.5540365,50.9227088 66.4201609,50.9227088" id="path16" fill="#0A0065" fill-rule="nonzero"></path>
                        <path d="M66.4201609,50.9227088 L133.851487,50.9227088 C140.716961,50.9227088 146.305687,44.9556628 146.387205,37.5885085 L190.442705,37.5885085 L112.913602,161.838262 L87.0044423,161.838262 L9.9088778,37.5885085 L53.8850935,37.5885085 C53.9672615,44.9556628 59.5540365,50.9227088 66.4201609,50.9227088 Z" id="path18" stroke="#FCD006" stroke-width="6.42662643"></path>
                        <path d="M151.527367,100.452247 C149.156636,101.358913 152.466121,101.379076 150.243682,102.113602 C143.309915,104.405201 135.570728,106.905146 129.415281,108.145688 C126.167585,108.800214 119.491596,109.676312 110.062653,109.676312 C92.1923012,109.676312 79.5392934,106.307856 79.5392934,101.56184 C79.5392934,98.4231954 85.0003231,96.3570708 94.178209,94.7490491 C102.860702,93.2184259 115.768669,91.3044964 131.154035,88.7796184 C156.213763,84.56867 161.421785,80.1298625 161.421785,75.6119222 C161.421785,63.4417328 123.707531,59.9969633 98.8930057,59.9969633 C80.3544695,59.9969633 44.4726276,64.0589686 28.1341998,66.5437382 C26.1110021,66.8511636 28.7982649,65.6615702 27.3563137,65.9332233 C27.3563137,65.9332233 27.426124,66.3265024 27.1820047,65.9332233 C28.8099722,68.5554454 28.1149044,67.20802 29.7968556,69.9898085 L32.1571808,73.6624372 C32.3132783,73.5499169 31.9828718,73.6624372 31.9828718,73.6624372 C33.1663948,73.226448 30.9003786,73.9483992 32.4691591,73.4629792 C42.7087252,70.2931148 62.100161,65.187207 73.5854724,64.7427626 C76.4552826,64.6313263 84.00867,63.3656353 96.4162578,63.4417328 C117.25333,63.5189144 130.406934,66.7330065 130.406934,72.3206486 C130.406934,75.6893206 124.207043,77.9850387 114.030566,79.7450387 C100.877613,81.96596 89.9616238,83.650296 77.3081823,86.0234125 C59.9410283,89.0848758 51.7478578,93.0660139 51.7478578,98.5766913 C52.0017331,106.155011 71.354795,113.27371 106.093222,113.27371 L106.584496,113.27371 C117.75436,113.27371 125.052355,112.016041 130.136365,111.724008 C134.98211,111.444984 140.347097,110.607477 145.635335,109.679997 C147.284983,109.390566 143.642706,109.997612 145.87707,109.515011" id="path20" fill="#FCD006" fill-rule="nonzero"></path>
                        <path d="M13.4702652,16.6148289 C17.1672624,16.6148289 19.1644656,18.3993925 19.1644656,21.1614087 C19.1644656,23.880975 17.4646933,25.3257446 14.1927585,25.3257446 L10.7933656,25.3257446 L9.26354448,16.6148289 L13.4702652,16.6148289 Z M5.22662318,30.0424925 L15.5099834,30.0424925 C22.2239561,30.0424925 25.7084004,26.7705142 25.7084004,21.4164114 C25.7084004,15.7222977 21.6715875,11.8981244 14.3202164,11.8981244 L8.41370169,11.8981244 L6.41649848,0.55242275 L0,0.55242275 L5.22662318,30.0424925 Z" id="path22" fill="#0A0065" fill-rule="nonzero"></path>
                        <polyline id="path24" fill="#0A0065" fill-rule="nonzero" points="37.7335492 30.0424925 32.5495927 0.55242275 25.6656904 0.55242275 30.892357 30.0424925 37.7335492 30.0424925"></polyline>
                        <path d="M51.3313808,5.22644973 C53.456042,5.22644973 55.155771,6.41649848 56.4730609,8.79590222 C57.6628712,11.0057667 58.7252018,14.9999129 58.7252018,18.6968234 C58.7252018,23.0738206 56.8130067,25.4532243 53.456042,25.4532243 C51.6288334,25.4532243 50.1415706,24.5608666 48.9092671,22.776368 C47.4220042,20.5664819 46.0622211,16.2747313 46.0622211,12.1955553 C46.0622211,7.77625997 48.144389,5.22644973 51.3313808,5.22644973 Z M39.0508391,13.4276853 C39.0508391,18.2294196 41.0480207,23.2435767 44.3199989,26.6005413 C46.8270991,29.192628 50.1840638,30.6373976 53.7110014,30.6373976 C60.8923562,30.6373976 65.7790769,25.4959343 65.7790769,17.8469589 C65.7790769,12.3230783 63.696909,7.22365294 60.3399443,3.9093766 C57.7053644,1.3173268 54.6033591,0 51.1614079,0 C43.8950667,0 39.0508391,5.31165298 39.0508391,13.4276853 Z" id="path26" fill="#0A0065" fill-rule="nonzero"></path>
                        <polyline id="path28" fill="#0A0065" fill-rule="nonzero" points="72.1528437 30.0424925 78.4418409 30.0424925 87.4504043 10.3258751 90.9348487 30.0424925 95.9913255 30.0424925 90.764659 0.55242275 85.7504586 0.55242275 75.7647678 22.1387528 71.9828708 0.55242275 66.9261772 0.55242275 72.1528437 30.0424925"></polyline>
                        <polyline id="path30" fill="#0A0065" fill-rule="nonzero" points="101.388182 30.0424925 121.997395 30.0424925 121.147531 25.1132785 106.869808 25.1132785 105.637504 18.357051 117.833059 18.357051 116.940702 13.4276853 104.745146 13.4276853 103.427856 5.86406489 118.640431 5.86406489 117.748073 0.55242275 96.1615152 0.55242275 101.388182 30.0424925"></polyline>
                        <polyline id="path32" fill="#0A0065" fill-rule="nonzero" points="126.076745 30.0424925 146.685742 30.0424925 145.835877 25.1132785 131.558154 25.1132785 130.32585 18.357051 142.521406 18.357051 141.629048 13.4276853 129.433493 13.4276853 128.116203 5.86406489 143.328777 5.86406489 142.436419 0.55242275 120.849861 0.55242275 126.076745 30.0424925"></polyline>
                        <path d="M159.858424,17.0823194 C163.852787,17.0823194 165.892462,18.8242814 165.892462,21.4588396 C165.892462,24.263414 164.192733,25.4959343 160.623302,25.4959343 L156.2465,25.4959343 L154.759454,17.0823194 L159.858424,17.0823194 Z M150.765091,30.0424925 L162.323031,30.0424925 C169.16444,30.0424925 172.606391,27.1529533 172.606391,21.7138206 C172.606391,17.7621893 170.056798,14.4901677 166.105145,13.5126284 L169.674576,0.55242275 L163.172896,0.55242275 L160.071107,12.6205092 L153.994359,12.6205092 L151.827205,0.55242275 L145.538208,0.55242275 L150.765091,30.0424925 Z" id="path34" fill="#0A0065" fill-rule="nonzero"></path>
                        <path d="M185.609535,5.18419499 C188.583844,5.18419499 190.326066,6.75644428 190.326066,8.79590222 C190.326066,11.4307206 187.606499,12.0255824 183.867096,13.3851704 C178.513166,15.2973438 176.048559,17.6770077 176.048559,21.7990238 C176.048559,26.7705142 180.382868,30.6373976 186.544386,30.6373976 C192.365957,30.6373976 196.955225,27.7053652 198.357285,23.2435767 L192.705903,21.6713274 C191.856039,24.263414 189.561404,25.7933869 186.629372,25.7933869 C183.994792,25.7933869 182.507529,24.4758801 182.507529,22.5214087 C182.507529,19.8440971 185.227096,19.4617231 189.688884,17.804444 C194.660591,15.9772137 197.125198,13.3851704 197.125198,9.43351738 C197.125198,4.1218644 192.578423,0 184.972136,0 C178.343193,0 173.541459,3.2720216 172.224169,8.49847133 L178.3007,9.9431759 C179.235551,7.0114253 182.040104,5.18419499 185.609535,5.18419499" id="path36" fill="#0A0065" fill-rule="nonzero"></path>
                    </g>
                </g>
            </g>
        </g>
    </g>
</svg>