<?xml version="1.0" encoding="UTF-8"?>
<svg width="200px" height="200px" viewBox="0 0 200 200" version="1.1" xmlns="http://www.w3.org/2000/svg" xmlns:xlink="http://www.w3.org/1999/xlink">
    <!-- Generator: Sketch 51.3 (57544) - http://www.bohemiancoding.com/sketch -->
    <title>angelo-st</title>
    <desc>Created with Sketch.</desc>
    <defs></defs>
    <g id="angelo-st" stroke="none" stroke-width="1" fill="none" fill-rule="evenodd">
        <g id="angelo-st_BGL" transform="translate(0.000000, 38.000000)">
            <g id="angelo-st">
                <g id="g10" transform="translate(99.817848, 61.602916) scale(-1, 1) rotate(-180.000000) translate(-99.817848, -61.602916) translate(0.000000, 0.036433)" fill-rule="nonzero">
                    <g id="g12">
                        <path d="M130.871399,41.8303086 C129.879778,41.8303086 128.857556,41.9088514 127.823676,42.0657184 C124.073585,42.6286328 120.15956,44.2637512 116.958103,47.3434597 L108.623677,47.3434597 C108.68415,51.668924 106.279779,53.8319841 101.140981,53.8319841 C97.6269557,53.8319841 95.0069193,51.8488147 94.6688501,49.4171208 C94.1566461,45.7194888 99.3136587,44.5480499 109.299087,39.8617112 C117.738431,35.9189791 121.965753,30.9443344 122.098358,24.0306005 C122.448084,23.9569393 122.792711,23.8783236 123.145352,23.8177043 C125.335516,23.4375222 127.579596,23.2379593 129.865935,23.2379593 C134.411654,23.2379593 139.2867,24.2287061 143.932965,26.0860467 C155.453548,30.6907096 165.543165,40.6338059 165.543165,54.1231316 C165.543165,73.1591967 147.902364,79.7253168 137.64517,77.3151165 C137.64517,77.3151165 144.9071,73.4571931 148.513657,66.6230949 C149.7071,64.3667743 150.501271,61.7844793 150.501271,58.9090696 C150.501271,46.8880863 139.997082,41.8303086 130.871399,41.8303086" id="path14" fill="#FBBF15"></path>
                        <path d="M103.51548,68.3446977 C105.845535,68.3446977 108.004369,68.1739874 110.019669,67.8714009 C110.706008,86.7846973 127.903822,98.7074657 146.118758,98.7074657 C172.059741,98.7074657 171.562837,74.6987231 171.562837,74.6987231 C176.48087,88.5923475 167.940979,116.0714 136.251363,116.0714 C109.195626,116.0714 85.7092875,96.6134766 85.7092875,70.2709636 C85.7092875,68.3591968 85.844078,66.4580676 86.0852437,64.5736232 C90.6841507,67.00794 96.5457171,68.3446977 103.51548,68.3446977" id="path16" fill="#FBBF15"></path>
                        <path d="M150.501271,58.9090696 C150.501271,61.7850622 149.705643,64.3667743 148.513657,66.6236778 L135.077592,66.6236778 L127.823676,42.0639698 C128.857556,41.9088514 129.879778,41.8303086 130.869942,41.8303086 C139.997082,41.8303086 150.501271,46.8880863 150.501271,58.9090696" id="path18" fill="#1B4F9C"></path>
                        <path d="M195.652454,66.6236778 L175.28087,66.6236778 L163.963566,27.9556277 C161.539522,19.5736243 158.642619,16.2369395 151.162838,16.2369395 C144.118758,16.2369395 143.032419,21.1745714 143.932965,26.0846624 C139.2867,24.2301633 134.411654,23.236575 129.865935,23.236575 C127.579596,23.236575 125.335516,23.436065 123.145352,23.81632 C121.486336,8.3518395 130.445898,0 148.996718,0 C168.64699,0 178.813839,8.3051364 184.222946,27.1430959 L195.652454,66.6236778" id="path20" fill="#1B4F9C"></path>
                        <path d="M168.414568,59.9416378 L170.080141,59.9416378 L173.05209,70.2097615 L164.684149,70.2097615 C166.524586,67.0856085 167.788703,63.5983226 168.414568,59.9416378" id="path22" fill="#1B4F9C"></path>
                        <path d="M45.531365,46.6142793 L45.6295799,22.6383237 L32.2888152,22.6383237 L45.531365,46.6142793 Z M25.3372671,9.56714002 L45.9785052,9.56714002 L45.8944979,1.81409103 L65.4544975,1.81409103 L61.4671751,66.6230949 L40.7362467,66.6230949 L0,1.81409103 L21.0177773,1.81409103 L25.3372671,9.56714002 Z" id="path24" fill="#1B4F9C"></path>
                        <path d="M91.1606535,0.0967672107 C109.189797,0.0967672107 120.116573,8.04305991 121.905279,20.9318028 C122.053185,22.0059011 122.11803,23.0362107 122.098358,24.027759 C121.965753,30.9428772 117.738431,35.9207277 109.296172,39.8599626 C99.3136587,44.5480499 94.1573747,45.7194888 94.6695787,49.4171208 C95.0076479,51.8493976 97.6254985,53.8305269 101.140981,53.8305269 C106.281236,53.8305269 108.68415,51.6697983 108.623677,47.3420753 L116.958103,47.3420753 L128.00364,47.3420753 C128.719851,58.653769 122.350452,66.0194519 110.019669,67.8700165 C108.004369,68.173113 105.845535,68.3438963 103.51548,68.3438963 C96.5457171,68.3438963 90.6848793,67.0087415 86.0837866,64.574206 C79.7369743,61.2144247 75.8098342,55.7496525 74.8305992,48.6950807 C73.4163916,38.5092158 79.4236774,33.7318024 91.5256808,28.0532598 C98.0400704,24.9894347 102.126045,23.9073947 101.601455,20.1200724 C101.140981,16.7876134 98.4415276,14.8923858 93.8440778,14.8923858 C87.6269559,14.8923858 84.5639323,17.5082691 85.226956,22.2842982 L85.2517283,22.464116 L65.1519838,22.464116 C63.2371569,8.67402528 72.4118015,0.0967672107 91.1606535,0.0967672107" id="path26" fill="#1B4F9C"></path>
                        <path d="M173.05209,70.2106358 L198.928957,70.2106358 C203.387973,97.3326023 183.025861,122.622948 147.460106,122.622948 C121.170124,122.622948 107.357374,109.453549 107.357374,109.453549 C107.357374,109.453549 120.845899,118.359196 136.222947,118.359196 C158.877956,118.359196 182.818939,102.574132 173.05209,70.2106358" id="path28" fill="#1B4F9C"></path>
                        <path d="M180.810924,4.39492157 L181.300542,4.39492157 C181.714385,4.39492157 182.093256,4.41541701 182.093256,4.89099441 C182.093256,5.29115469 181.749358,5.35377036 181.431689,5.35377036 L180.810924,5.35377036 L180.810924,4.39492157 Z M180.341708,5.73258273 L181.507464,5.73258273 C182.225132,5.73258273 182.562473,5.45053538 182.562473,4.87079041 C182.562473,4.3263314 182.217117,4.09836055 181.769759,4.05025855 L182.631689,2.71914747 L182.128229,2.71914747 L181.307099,4.01525673 L180.810924,4.01525673 L180.810924,2.71914747 L180.341708,2.71914747 L180.341708,5.73258273 Z M181.348629,2.02271033 C182.542072,2.02271033 183.465933,2.97330412 183.465933,4.23610918 C183.465933,5.47102354 182.542072,6.42246978 181.348629,6.42246978 C180.142072,6.42246978 179.21821,5.47102354 179.21821,4.23610918 C179.21821,2.97330412 180.142072,2.02271033 181.348629,2.02271033 Z M181.348629,6.8015736 C182.75628,6.8015736 183.93515,5.69188328 183.93515,4.23610918 C183.93515,2.75415658 182.75628,1.6430455 181.348629,1.6430455 C179.934422,1.6430455 178.748994,2.75415658 178.748994,4.23610918 C178.748994,5.69188328 179.934422,6.8015736 181.348629,6.8015736 Z" id="path30" fill="#1B4F9C"></path>
                    </g>
                </g>
            </g>
        </g>
    </g>
</svg>