<?xml version="1.0" encoding="UTF-8"?>
<svg width="200px" height="200px" viewBox="0 0 200 200" version="1.1" xmlns="http://www.w3.org/2000/svg" xmlns:xlink="http://www.w3.org/1999/xlink">
    <!-- Generator: Sketch 51.3 (57544) - http://www.bohemiancoding.com/sketch -->
    <title>ark-fort-smith</title>
    <desc>Created with Sketch.</desc>
    <defs></defs>
    <g id="ark-fort-smith" stroke="none" stroke-width="1" fill="none" fill-rule="evenodd">
        <g id="ark-fort-smith_BGL" transform="translate(-2.000000, -2.000000)">
            <g id="ark-fort-smith" transform="translate(0.989899, 0.989899)">
                <g fill-rule="nonzero" id="g10">
                    <g transform="translate(101.165260, 100.743229) scale(-1, 1) rotate(-180.000000) translate(-101.165260, -100.743229) translate(0.620646, 0.819261)">
                        <g id="g12" transform="translate(1.117162, 0.000000)">
                            <path d="M195.077653,92.9315249 C193.789193,93.8261237 191.949599,95.2866274 190.502253,96.0105486 C190.910638,93.3529434 191.17255,90.8683743 191.247028,88.681591 C191.671549,75.4545125 187.436263,64.6959906 181.614605,57.1042515 C180.960445,58.2771479 179.967412,60.5168102 178.889971,61.6636395 C178.742257,59.6901101 178.561028,57.6618397 178.345044,55.5317834 C169.572836,43.2391493 166.518018,41.6206292 162.353485,38.5459501 C162.087848,39.7548439 161.709254,41.9658324 161.254942,43.4103234 C158.341631,38.848577 154.766711,34.5404265 150.30675,30.6201795 C150.391158,32.4922954 150.497909,34.8467772 150.40233,36.5535531 C144.544675,27.0417843 135.035141,16.7859854 119.858366,6.66708854 C127.502984,20.5830962 130.840817,33.9755147 131.751925,44.7882811 C127.805859,31.7485135 122.745734,20.0284871 114.039812,5.84037597 C109.65408,18.290679 103.54705,22.8746445 94.7924692,26.2349448 C87.4878409,29.0335607 84.1886121,37.997051 83.1845314,48.3458226 C80.5491454,42.6073319 79.3869241,35.2216472 79.0770977,31.8294457 C79.0814423,31.806606 79.0833042,31.7882349 79.0877729,31.7673812 C79.0824353,31.7722222 79.0775943,31.7785528 79.0727532,31.7833938 C79.0722567,31.7785528 79.0717602,31.7722222 79.0707672,31.7673812 L79.0634435,31.7930759 C76.3476218,34.4720313 73.9329374,37.4186091 71.7626633,40.6396365 C70.8225091,38.478548 69.9040774,35.9625742 69.7430819,34.717807 C58.9623408,37.5689295 48.6411259,38.209436 37.8777629,35.2900424 C38.2434474,38.9406808 38.80538,42.6892571 39.5399764,46.4912089 C37.2576136,43.1674026 34.4758793,37.5577579 33.1938734,35.5891937 C33.1918873,35.5805046 33.1905219,35.573181 33.1885358,35.564492 C24.7879713,46.3088632 18.8826509,60.3776614 14.0756253,78.0733894 C15.9641263,81.6589841 18.1083333,85.1138709 20.4119221,88.470199 C16.6653319,86.7929659 12.6248038,84.1208376 11.1066546,83.0133573 C5.16929652,102.127261 13.1993976,129.690139 20.6548428,140.400003 C23.7770634,144.874859 27.868981,149.303787 32.7245411,153.673133 C30.5454538,153.895324 27.6973104,153.995869 25.9681913,154.116274 C37.894272,170.781854 73.9940089,193.724646 104.798024,194.85298 C116.924821,195.291156 131.619106,192.201581 141.348349,187.41392 C142.785765,187.854578 144.708526,188.863748 145.787208,190.23041 C159.247773,184.983471 198.786633,151.44998 195.077653,92.9315249 Z M143.813554,194.417286 C140.305665,191.461771 133.219131,192.57521 125.662148,195.647406 C118.289746,198.632712 108.895155,200.097436 102.029323,199.660502 C46.4810304,196.171231 9.53855583,151.787611 4.47689169,133.164514 C8.86408766,138.665918 13.1993976,142.746044 18.7488397,147.181178 C7.26155547,130.129557 -2.89279268,86.3371637 0.952303968,62.0112011 C2.28475843,66.4513009 4.08898809,70.9199504 6.53568542,74.7829738 C11.6982045,51.8239215 28.0104882,26.4705419 36.9676479,17.6136786 C39.279181,29.5737708 62.4054353,31.0933599 75.0225431,28.310136 C82.2602658,26.7076286 88.7877214,24.0897448 94.3701818,21.1044386 C100.495211,17.8173745 114.628929,5.01608391 113.264004,0 C120.939655,3.54495484 138.044031,14.1085196 149.076631,27.2972421 C182.710666,41.1982177 198.333561,73.5862446 198.974068,93.3543088 C201.083022,157.287774 159.519616,186.504053 143.813554,194.417286 Z" id="path14" fill="#FFFFFF"></path>
                            <path d="M177.653644,92.8034565 C177.664419,92.7377326 177.672499,92.6756451 177.68058,92.6099212 L177.723678,92.5194161 C177.699435,92.610864 177.67654,92.7109313 177.653644,92.8034565" id="path16" fill="#FFFFFF"></path>
                            <path d="M25.9681913,154.116274 C27.6973104,153.995869 30.5454538,153.895324 32.7245411,153.673133 C41.3790739,161.463479 52.4911157,169.060183 65.0713571,176.367666 C53.9539778,172.501043 37.0336846,163.546366 25.9681913,154.116274" id="path18" fill="#9C8103"></path>
                            <path d="M69.4390896,136.656267 C59.4360177,131.764338 37.5757566,122.604723 11.1066546,83.0133573 C12.6248038,84.1208376 16.6653319,86.7929659 20.4119221,88.470199 C33.9521784,108.198914 53.7547505,124.04189 69.4390896,136.656267" id="path20" fill="#9C8103"></path>
                            <path d="M33.1938734,35.5891937 C34.4758793,37.5577579 37.2576136,43.1674026 39.5399764,46.4912089 C42.2950229,60.7563795 47.6233909,75.7920197 55.4556923,89.3913615 C45.5912726,79.0518995 37.664509,58.2824855 33.1938734,35.5891937" id="path22" fill="#9C8103"></path>
                            <path d="M69.7430819,34.717807 C69.9040774,35.9625742 70.8225091,38.478548 71.7626633,40.6396365 C63.9705798,52.20115 59.5155845,67.4952271 57.2609025,88.3939837 C56.3996945,75.0535754 56.3996945,58.3508806 69.7430819,34.717807" id="path24" fill="#9C8103"></path>
                            <path d="M83.3386998,66.0095253 C78.9272739,53.967632 76.1285338,47.1181853 79.0770977,31.8294457 C79.3869241,35.2216472 80.5491454,42.6073319 83.1845314,48.3458226 C82.6278122,54.0795965 82.772795,60.2375196 83.3386998,66.0095253" id="path26" fill="#9C8103"></path>
                            <path d="M79.0713897,31.7673812 C79.0724671,31.7726337 79.0730058,31.7795024 79.0735445,31.7847549 C79.0692348,31.78893 79.0666759,31.7925664 79.0634435,31.79526 L79.0713897,31.7673812" id="path28" fill="#9C8103"></path>
                            <path d="M159.080199,63.6001784 C158.782289,56.1883025 156.713056,46.8015318 150.40233,36.5535531 C150.497909,34.8467772 150.391158,32.4922954 150.30675,30.6201795 C161.575195,46.6463704 160.852763,57.4582679 159.080199,63.6001784" id="path30" fill="#9C8103"></path>
                            <path d="M161.254942,43.4103234 C161.709254,41.9658324 162.087848,39.7548439 162.353485,38.5459501 C177.127337,63.6845862 175.03576,75.979703 175.527312,90.3166202 C173.034798,74.9813322 170.521183,57.9135736 161.254942,43.4103234" id="path32" fill="#9C8103"></path>
                            <path d="M177.718191,92.5194161 L177.67847,92.6028309 C179.443587,80.9365525 179.680673,72.1884263 178.889971,61.6636395 C179.967412,60.5168102 180.960445,58.2771479 181.614605,57.1042515 C182.452477,63.7156185 180.547095,81.3691426 177.718191,92.5194161" id="path34" fill="#9C8103"></path>
                            <path d="M190.502253,96.0105486 C191.949599,95.2866274 193.789193,93.8261237 195.077653,92.9315249 C191.651689,109.34475 187.232691,120.480873 180.907069,128.157144 C185.23297,118.793586 188.959327,106.102249 190.502253,96.0105486" id="path36" fill="#9C8103"></path>
                            <path d="M118.090891,167.208176 C114.628929,166.953711 112.842089,165.670216 112.386287,165.554776 C110.194663,164.946543 109.753508,166.412508 111.659014,169.413951 C112.589983,169.549252 113.81911,169.567871 114.546507,168.840474 C115.33932,168.04853 116.570805,167.544566 118.090891,167.208176 Z M165.235764,160.523821 C163.381274,162.028266 161.727874,162.632775 160.141503,162.769317 C161.591332,163.056056 163.092053,164.119843 164.442578,162.919514 C165.286657,161.535474 165.167493,161.132054 165.235764,160.523821 Z M162.353485,165.652838 C157.562099,164.138462 155.014969,164.875789 153.107104,166.227556 C154.389358,165.096739 155.552448,163.982059 155.895045,163.006404 C159.519616,162.009647 165.574636,159.566785 172.37319,152.244407 C174.210301,150.26827 174.952594,148.904091 174.446147,146.034225 C173.248301,139.270427 171.597383,135.189061 167.936814,131.408087 C168.206174,133.89067 165.726074,135.391391 162.99275,136.384425 C157.965519,138.222777 156.345634,140.03258 155.537553,141.955341 C155.620719,141.934239 155.702645,141.918102 155.773398,141.900724 C161.847038,145.073465 163.969646,150.118074 166.331824,155.043519 C163.092053,156.848357 159.736842,158.433486 156.142062,159.566785 C152.11283,160.404657 148.386472,160.62809 145.349032,159.431484 C139.764461,159.277564 136.441524,160.309078 132.425946,160.978134 C133.201753,157.944417 139.730947,155.379909 145.093326,152.72851 C149.228068,145.61591 151.133451,143.691908 152.687548,142.609502 C150.779682,139.933277 147.237036,140.066095 141.939204,139.795494 C141.159673,139.757014 140.385107,139.718534 139.616748,139.67633 C139.439243,139.666399 139.26298,139.655228 139.086716,139.645297 C138.549237,139.611783 138.016723,139.573303 137.486691,139.531099 C137.260776,139.512479 137.034861,139.495101 136.810188,139.473999 C136.529656,139.447932 136.250365,139.4169 135.972316,139.385868 C135.738953,139.3598 135.508073,139.332492 135.27471,139.30146 C135.002867,139.266704 134.728542,139.231947 134.456699,139.190985 C134.076864,139.133885 133.700752,139.068097 133.324641,138.996102 C133.04535,138.943968 132.768542,138.883144 132.490493,138.822321 C132.209961,138.760257 131.928188,138.694468 131.647656,138.622473 C131.419258,138.564133 131.192102,138.503309 130.964946,138.437521 C130.627314,138.339459 130.292166,138.231466 129.958258,138.117268 C129.717448,138.034101 129.475396,137.948452 129.237068,137.856596 C128.878335,137.718813 128.522084,137.572341 128.165833,137.412214 C126.302655,136.57186 124.489128,135.411252 122.728852,133.773988 C117.499415,137.366286 111.494171,138.51324 109.013946,150.624521 C108.86375,151.922912 109.334075,152.969321 110.446769,153.760023 C116.098121,158.383834 120.469329,159.390522 124.887582,160.575955 C125.251281,160.701326 125.628633,160.825455 126.028329,160.943378 C126.055638,161.016614 126.094118,161.083644 126.122667,161.155638 L126.117702,161.164327 C126.148735,161.240046 126.190939,161.307076 126.221971,161.380312 C126.328722,161.623605 126.437956,161.865657 126.568291,162.094055 C126.648975,162.236803 126.744555,162.369622 126.833928,162.507405 C126.948126,162.679944 127.058601,162.856208 127.188937,163.020058 C127.318031,163.18515 127.466986,163.335346 127.612217,163.489266 C127.73014,163.615878 127.840615,163.744973 127.969709,163.864137 C128.148455,164.03047 128.353268,164.180666 128.553116,164.332103 C128.677245,164.4252 128.790203,164.524504 128.920539,164.612635 C129.147695,164.765314 129.40216,164.900615 129.654142,165.035916 C129.78696,165.109152 129.909848,165.189836 130.051355,165.258107 C130.319474,165.38596 130.617384,165.496435 130.914053,165.608151 C131.067973,165.666492 131.206998,165.734763 131.368366,165.788138 C131.681171,165.892407 132.025009,165.975573 132.366364,166.061223 C132.538903,166.104668 132.694065,166.159285 132.875293,166.197765 C133.406566,166.311963 133.970113,166.407543 134.569656,166.480779 C134.023488,166.499398 133.540626,166.53912 133.097485,166.594978 C133.086313,166.59746 133.071417,166.59746 133.057763,166.599943 C132.879017,166.623528 132.712684,166.650836 132.548834,166.680627 C132.499182,166.688075 132.445807,166.696764 132.397396,166.706694 C132.263337,166.732761 132.139208,166.762552 132.015078,166.792343 C131.945566,166.809721 131.87233,166.825858 131.8053,166.844478 C131.707238,166.871786 131.616624,166.900336 131.527251,166.930127 C131.444084,166.957435 131.362159,166.985985 131.285199,167.015776 C131.218169,167.041843 131.153622,167.069151 131.090316,167.09646 C131.002185,167.13494 130.919018,167.175902 130.838334,167.218106 C130.794889,167.241691 130.751444,167.265275 130.710481,167.290101 C130.622349,167.342235 130.541665,167.395611 130.465947,167.451469 C130.439879,167.47133 130.41133,167.49119 130.386504,167.511051 C130.357954,167.533394 130.325681,167.553255 130.299613,167.57684 C130.303337,167.578081 130.307061,167.579322 130.309544,167.581805 C130.248721,167.63518 130.185415,167.687314 130.13328,167.744414 C128.95033,165.807999 126.152458,165.857651 122.896054,166.444782 C116.924821,168.521462 116.149014,170.461601 114.025288,172.437737 C113.433689,173.093139 112.420299,173.024868 111.358374,172.838674 C107.952146,171.877915 107.44545,170.745857 105.993263,169.668416 C104.798024,169.395332 104.206424,169.431329 103.563932,169.449948 C107.207867,168.756066 108.357055,166.748898 109.181272,164.556777 C109.569176,163.140464 110.78378,162.06054 112.774191,161.30087 C116.301693,165.061983 120.095949,166.444782 124.280591,164.015574 C123.824664,162.737044 122.728852,161.825936 121.429344,160.996753 C112.536608,160.440654 106.012627,158.213777 101.4232,154.604102 C98.6554926,152.627966 98.1327847,149.880987 99.1453062,146.643699 C104.591845,135.778674 111.508694,131.244236 118.980648,128.981362 C119.404922,128.879576 119.809831,128.779031 120.231746,128.66235 C117.278838,123.076538 114.665298,115.233562 112.536608,109.280203 C111.341368,105.922386 111.542705,104.28686 111.695384,103.422921 C113.870127,91.3445337 120.095949,78.0021393 125.948887,72.1475878 C126.686214,71.407778 127.521603,70.6930423 128.416574,70.0200141 C128.818753,69.7160218 129.233344,69.423077 129.657866,69.1399384 C129.800614,69.0429935 129.947087,68.9498966 130.091077,68.8567998 C130.537941,68.5716751 130.989772,68.2923845 131.450291,68.031465 C131.508631,67.9990673 131.569455,67.967042 131.629037,67.9335271 C132.108175,67.6678908 132.591038,67.4196324 133.076383,67.1863938 C133.165756,67.1427003 133.25637,67.0981379 133.346984,67.055934 C133.865844,66.8149993 134.383463,66.5928082 134.901081,66.3955669 C134.963146,66.3707411 135.026452,66.348522 135.090999,66.3246892 C136.174646,65.919904 137.235951,65.6206286 138.23519,65.4509441 C138.279877,65.4432481 138.324563,65.433566 138.36925,65.4272354 C138.853353,65.3501512 139.320079,65.3069543 139.766944,65.2944172 C139.826526,65.2934242 139.883625,65.2944172 139.940725,65.2944172 C140.38759,65.2919346 140.817077,65.3166363 141.21429,65.386521 C144.303865,65.9586323 147.018569,67.7284658 149.429157,70.3797404 C148.842026,60.0746622 140.659433,49.7831141 132.697789,47.3369009 C132.615863,47.4046754 132.547592,47.4730705 132.460702,47.5376177 C132.456978,47.5429553 132.454496,47.5477963 132.452013,47.5526373 C127.01888,52.3204381 125.392788,55.5589677 115.438623,75.0535754 C109.721979,86.2517628 102.281429,91.5011847 99.6680141,102.093374 C95.2482714,96.4561722 90.6598373,88.311562 85.5827067,73.1779839 C85.4479024,82.0872297 87.723438,99.126811 98.0493699,113.379817 C97.3561086,115.687874 97.1378895,118.825983 97.7608938,122.772918 C88.0119142,124.93351 81.584879,130.94012 79.9983843,142.595847 C73.4218977,134.042107 66.2505841,118.102559 64.2940604,103.118308 C71.7001022,114.220171 79.5774624,118.370181 87.6405198,119.989694 C71.8524086,111.204205 63.9570497,100.81174 57.6987061,90.0668723 C54.3074976,110.980649 76.5241334,135.455939 82.5957869,157.203366 C76.5905425,159.44638 73.0830251,167.091495 75.4778488,170.024666 C75.6383478,169.917915 75.8026948,169.816129 75.9695244,169.718067 C75.9990671,169.700689 76.0286099,169.684553 76.0586491,169.667174 C76.1944464,169.588973 76.3317333,169.513254 76.4713786,169.441259 C76.5289745,169.411468 76.5871911,169.38416 76.6454076,169.35561 C76.7608477,169.298511 76.8776533,169.243894 76.9954518,169.19176 C77.0691846,169.159486 77.1429173,169.129695 77.2175189,169.099904 C77.3247665,169.055218 77.4323865,169.014255 77.5409995,168.974534 C77.6229247,168.944743 77.7053465,168.917434 77.7877682,168.891367 C77.8943952,168.857852 78.0011462,168.824338 78.1092627,168.795788 C78.193174,168.772203 78.2774577,168.751101 78.3623621,168.731241 C78.4724646,168.705174 78.5844291,168.681589 78.6963936,168.660487 C78.7793119,168.645592 78.8622302,168.631937 78.9461415,168.618283 C79.0639401,168.600905 79.1827317,168.587251 79.3025163,168.576079 C79.38109,168.568631 79.4601603,168.562425 79.5391065,168.558701 C79.6677043,168.550012 79.7975434,168.548771 79.9270101,168.548771 C79.9987567,168.550012 80.070131,168.550012 80.1423741,168.552495 C80.2843779,168.558701 80.4274988,168.569873 80.5709921,168.584768 C80.6330567,168.592216 80.6941282,168.597181 80.7556963,168.60587 C80.9128438,168.626972 81.0708602,168.658004 81.2290007,168.691519 C81.2798937,168.702691 81.3302901,168.71138 81.3806866,168.723793 C81.5543433,168.765997 81.7278758,168.818131 81.9024014,168.876472 C81.9402608,168.888885 81.9781202,168.898815 82.016352,168.912469 C82.2060213,168.979499 82.3970561,169.0577 82.5880908,169.143349 C82.6127925,169.155762 82.6369977,169.164451 82.6618236,169.175623 C82.8673814,169.272444 83.0744289,169.380436 83.2814763,169.500841 C83.2935168,169.508289 83.305185,169.514496 83.3173496,169.520702 C83.9820612,169.911709 84.654593,170.433051 85.3301038,171.10459 C88.2995214,174.053899 89.2595363,176.668059 97.189279,176.803359 C101.607532,184.057467 129.354991,195.966418 148.11463,172.754266 C147.928436,175.591859 146.613908,178.623093 144.790451,181.779697 C152.735958,179.113403 160.0422,172.653722 166.99095,164.083845 C165.167493,165.301552 163.533953,166.025225 162.353485,165.652838 Z M175.10279,98.8198396 C172.777851,107.40275 170.16245,114.861174 166.705453,119.56691 C168.610835,117.84797 171.012734,115.288799 174.960042,105.328428 C174.370428,113.316883 172.406705,123.206874 171.360296,131.004667 C173.840397,121.322221 176.068515,111.513039 176.000244,100.751165 C176.031276,98.3543553 175.626615,97.6779755 175.10279,98.8198396 Z M165.9433,127.665593 C164.983782,120.24478 162.132535,115.856193 158.910142,113.159239 C158.10082,112.464364 157.712296,113.005567 157.863733,114.137749 C158.726431,119.873882 158.709053,125.946404 157.545963,132.57366 C156.178059,133.500904 154.86229,134.328846 153.445977,134.465388 C147.77824,135.020245 143.225182,134.378497 139.107818,133.620068 C137.723778,126.552154 134.88991,121.036103 131.550835,116.142187 C130.942603,115.251436 130.637245,115.266952 130.115902,116.347373 C128.139766,120.410616 128.447607,125.829723 128.54691,131.144933 C128.581666,132.286921 128.968949,133.06397 129.660348,133.418979 C138.026653,137.753569 148.536669,137.991897 154.119998,136.502347 C159.232878,135.155546 164.561742,132.944806 165.759589,129.251963 C165.87627,128.862198 165.994193,128.121147 165.9433,127.665593 Z M157.157438,78.998524 C157.27412,85.8823544 155.97697,98.1788366 155.302949,99.6480293 C154.609067,101.185121 153.916426,103.880089 153.916426,106.106717 C149.887194,99.5123561 147.593287,91.4671733 144.926993,83.7067428 C145.787208,92.663406 147.053325,102.025475 155.302949,118.571519 C154.997591,114.795758 154.81388,111.337023 155.384874,110.157796 C159.247773,93.2195046 157.814082,86.0690447 157.157438,78.998524 Z M147.91354,74.0056771 C147.389715,72.8948453 146.563015,72.2024528 145.7028,71.578828 C144.252972,70.8491968 142.803143,70.126641 140.8779,69.7692732 C137.352632,69.6699699 133.270024,70.9359631 128.663591,73.6037469 C127.60477,74.1249652 126.961781,74.6461835 126.508709,75.1873866 C125.03902,79.216743 123.419755,83.2674497 124.651737,87.2996611 C125.376651,88.4289882 126.084187,89.2570537 126.676284,87.8388782 C126.925783,86.1329712 127.330444,84.4146513 128.073978,82.7127165 C129.759652,80.1622348 131.684895,77.6335998 132.578625,75.0869661 C135.02521,73.4669565 137.741156,72.53996 140.659433,72.114197 C141.282561,72.2358436 141.908172,72.5040867 142.548678,72.8764742 C143.02161,75.0185709 144.640255,77.5166702 147.407093,80.3667996 C148.24993,81.3801901 149.023255,82.659341 149.615351,84.5164372 C150.121798,85.4595705 150.492944,85.3746662 150.747409,84.2798471 C150.625762,79.7428024 149.465155,76.6202094 147.91354,74.0056771 Z M145.787208,190.23041 C144.708526,188.863748 142.785765,187.854578 141.348349,187.41392 C131.619106,192.201581 116.924821,195.291156 104.798024,194.85298 C73.9940089,193.724646 37.894272,170.781854 25.9681913,154.116274 C37.0336846,163.546366 53.9539778,172.501043 65.0713571,176.367666 C52.4911157,169.060183 41.3790739,161.463479 32.7245411,153.673133 C27.868981,149.303787 23.7770634,144.874859 20.6548428,140.400003 C13.1993976,129.690139 5.16929652,102.127261 11.1066546,83.0133573 C37.5757566,122.604723 59.4360177,131.764338 69.4390896,136.656267 C53.7547505,124.04189 33.9521784,108.198914 20.4119221,88.470199 C18.1083333,85.1138709 15.9641263,81.6589841 14.0756253,78.0733894 C18.8826509,60.3776614 24.7879713,46.3088632 33.1885358,35.564492 C33.1905219,35.573181 33.1918873,35.5805046 33.1938734,35.5891937 C37.664509,58.2824855 45.5912726,79.0518995 55.4556923,89.3913615 C47.6233909,75.7920197 42.2950229,60.7563795 39.5399764,46.4912089 C38.80538,42.6892571 38.2434474,38.9406808 37.8777629,35.2900424 C48.6411259,38.209436 58.9623408,37.5689295 69.7430819,34.717807 C56.3996945,58.3508806 56.3996945,75.0535754 57.2609025,88.3939837 C59.5155845,67.4952271 63.9705798,52.20115 71.7626633,40.6396365 C73.9329374,37.4186091 76.3476218,34.4720313 79.0634435,31.7930759 C79.0664226,31.7905933 79.0687811,31.7872418 79.0727532,31.7833938 C79.0775943,31.7785528 79.0824353,31.7722222 79.0877729,31.7673812 C79.0833042,31.7882349 79.0814423,31.806606 79.0770977,31.8294457 C76.1285338,47.1181853 78.9272739,53.967632 83.3386998,66.0095253 C82.772795,60.2375196 82.6278122,54.0795965 83.1845314,48.3458226 C84.1886121,37.997051 87.4878409,29.0335607 94.7924692,26.2349448 C103.54705,22.8746445 109.65408,18.290679 114.039812,5.84037597 C122.745734,20.0284871 127.805859,31.7485135 131.751925,44.7882811 C130.840817,33.9755147 127.502984,20.5830962 119.858366,6.66708854 C135.035141,16.7859854 144.544675,27.0417843 150.40233,36.5535531 C156.713056,46.8015318 158.782289,56.1883025 159.080199,63.6001784 C160.852763,57.4582679 161.575195,46.6463704 150.30675,30.6201795 C154.766711,34.5404265 158.341631,38.848577 161.254942,43.4103234 C170.521183,57.9135736 173.034798,74.9813322 175.527312,90.3166202 C175.03576,75.979703 177.127337,63.6845862 162.353485,38.5459501 C166.518018,41.6206292 169.572836,43.2391493 178.345044,55.5317834 C178.561028,57.6618397 178.742257,59.6901101 178.889971,61.6636395 C179.680673,72.1884263 179.443587,80.9365525 177.67847,92.6028309 C177.671022,92.663406 177.663575,92.7206295 177.653644,92.7812045 C177.674746,92.6959278 177.695848,92.6036998 177.718191,92.5194161 C180.547095,81.3691426 182.452477,63.7156185 181.614605,57.1042515 C187.436263,64.6959906 191.671549,75.4545125 191.247028,88.681591 C191.17255,90.8683743 190.910638,93.3529434 190.502253,96.0105486 C188.959327,106.102249 185.23297,118.793586 180.907069,128.157144 C187.232691,120.480873 191.651689,109.34475 195.077653,92.9315249 C198.786633,151.44998 159.247773,184.983471 145.787208,190.23041 Z" id="path38" fill="#104076"></path>
                            <path d="M154.119998,136.502347 C148.536669,137.991897 138.026653,137.753569 129.660348,133.418979 C128.968949,133.06397 128.581666,132.286921 128.54691,131.144933 C128.447607,125.829723 128.139766,120.410616 130.115902,116.347373 C130.637245,115.266952 130.942603,115.251436 131.550835,116.142187 C134.88991,121.036103 137.723778,126.552154 139.107818,133.620068 C143.225182,134.378497 147.77824,135.020245 153.445977,134.465388 C154.86229,134.328846 156.178059,133.500904 157.545963,132.57366 C158.709053,125.946404 158.726431,119.873882 157.863733,114.137749 C157.712296,113.005567 158.10082,112.464364 158.910142,113.159239 C162.132535,115.856193 164.983782,120.24478 165.9433,127.665593 C165.994193,128.121147 165.87627,128.862198 165.759589,129.251963 C164.561742,132.944806 159.232878,135.155546 154.119998,136.502347" id="path40" fill="#FFFFFF"></path>
                            <path d="M149.615351,84.5164372 C149.023255,82.659341 148.24993,81.3801901 147.407093,80.3667996 C144.640255,77.5166702 143.02161,75.0185709 142.548678,72.8764742 C141.908172,72.5040867 141.282561,72.2358436 140.659433,72.114197 C137.741156,72.53996 135.02521,73.4669565 132.578625,75.0869661 C131.684895,77.6335998 129.759652,80.1622348 128.073978,82.7127165 C127.330444,84.4146513 126.925783,86.1329712 126.676284,87.8388782 C126.084187,89.2570537 125.376651,88.4289882 124.651737,87.2996611 C123.419755,83.2674497 125.03902,79.216743 126.508709,75.1873866 C126.961781,74.6461835 127.60477,74.1249652 128.663591,73.6037469 C133.270024,70.9359631 137.352632,69.6699699 140.8779,69.7692732 C142.803143,70.126641 144.252972,70.8491968 145.7028,71.578828 C146.563015,72.2024528 147.389715,72.8948453 147.91354,74.0056771 C149.465155,76.6202094 150.625762,79.7428024 150.747409,84.2798471 C150.492944,85.3746662 150.121798,85.4595705 149.615351,84.5164372" id="path42" fill="#FFFFFF"></path>
                            <path d="M174.960042,105.328428 C171.012734,115.288799 168.610835,117.84797 166.705453,119.56691 C170.16245,114.861174 172.777851,107.40275 175.10279,98.8198396 C175.626615,97.6779755 176.031276,98.3543553 176.000244,100.751165 C176.068515,111.513039 173.840397,121.322221 171.360296,131.004667 C172.406705,123.206874 174.370428,113.316883 174.960042,105.328428" id="path44" fill="#DEBF89"></path>
                            <path d="M160.141503,162.769317 C161.727874,162.632775 163.381274,162.028266 165.235764,160.523821 C165.167493,161.132054 165.286657,161.535474 164.442578,162.919514 C163.092053,164.119843 161.591332,163.056056 160.141503,162.769317" id="path46" fill="#8D2332"></path>
                            <path d="M155.302949,118.571519 C147.053325,102.025475 145.787208,92.663406 144.926993,83.7067428 C147.593287,91.4671733 149.887194,99.5123561 153.916426,106.106717 C153.916426,103.880089 154.609067,101.185121 155.302949,99.6480293 C155.97697,98.1788366 157.27412,85.8823544 157.157438,78.998524 C157.814082,86.0690447 159.247773,93.2195046 155.384874,110.157796 C154.81388,111.337023 154.997591,114.795758 155.302949,118.571519" id="path48" fill="#DEBF89"></path>
                            <path d="M111.659014,169.413951 C109.753508,166.412508 110.194663,164.946543 112.386287,165.554776 C112.842089,165.670216 114.628929,166.953711 118.090891,167.208176 C116.570805,167.544566 115.33932,168.04853 114.546507,168.840474 C113.81911,169.567871 112.589983,169.549252 111.659014,169.413951" id="path50" fill="#8D2332"></path>
                            <path d="M145.265866,166.968607 C137.502828,174.966248 118.340638,189.723963 101.859638,177.797634 C101.557508,176.263398 101.035793,174.811087 100.106314,173.059624 C98.8752012,170.68131 95.3156736,168.82682 92.516437,167.966605 C84.2332986,165.451748 79.2569609,166.513053 75.8492432,169.786338 C75.8889646,169.762754 75.9301755,169.741652 75.9695244,169.718067 C75.8026948,169.816129 75.6383478,169.917915 75.4778488,170.024666 C73.0830251,167.091495 76.5905425,159.44638 82.5957869,157.203366 C76.5241334,135.455939 54.3074976,110.980649 57.6987061,90.0668723 C63.9570497,100.81174 71.8524086,111.204205 87.6405198,119.989694 C79.5774624,118.370181 71.7001022,114.220171 64.2940604,103.118308 C66.2505841,118.102559 73.4218977,134.042107 79.9983843,142.595847 C81.584879,130.94012 88.0119142,124.93351 97.7608938,122.772918 C97.1378895,118.825983 97.3561086,115.687874 98.0493699,113.379817 C87.723438,99.126811 85.4479024,82.0872297 85.5827067,73.1779839 C90.6598373,88.311562 95.2482714,96.4561722 99.6680141,102.093374 C102.281429,91.5011847 109.721979,86.2517628 115.438623,75.0535754 C125.392788,55.5589677 127.01888,52.3204381 132.452013,47.5526373 C128.796409,53.606292 126.776828,60.7214992 128.241552,70.1431502 C128.29741,70.1004498 128.359475,70.062218 128.416574,70.0200141 C127.521603,70.6930423 126.686214,71.407778 125.948887,72.1475878 C120.095949,78.0021393 113.870127,91.3445337 111.695384,103.422921 C111.542705,104.28686 111.341368,105.922386 112.536608,109.280203 C114.665298,115.233562 117.278838,123.076538 120.231746,128.66235 C119.809831,128.779031 119.404922,128.879576 118.980648,128.981362 C111.508694,131.244236 104.591845,135.778674 99.1453062,146.643699 C98.1327847,149.880987 98.6554926,152.627966 101.4232,154.604102 C106.012627,158.213777 112.536608,160.440654 121.429344,160.996753 C122.728852,161.825936 123.824664,162.737044 124.280591,164.015574 C120.095949,166.444782 116.301693,165.061983 112.774191,161.30087 C110.78378,162.06054 109.569176,163.140464 109.181272,164.556777 C108.357055,166.748898 107.207867,168.756066 103.563932,169.449948 C104.206424,169.431329 104.798024,169.395332 105.993263,169.668416 C107.44545,170.745857 107.952146,171.877915 111.358374,172.838674 C112.420299,173.024868 113.433689,173.093139 114.025288,172.437737 C116.149014,170.461601 116.924821,168.521462 122.896054,166.444782 C126.152458,165.857651 128.95033,165.807999 130.13328,167.744414 C130.185415,167.687314 130.248721,167.63518 130.309544,167.581805 C133.58283,169.785097 138.572822,169.584008 145.265866,166.968607" id="path52" fill="#DEBF89"></path>
                            <path d="M134.569656,166.480779 C134.025971,166.502328 133.538143,166.544079 133.097485,166.604685 C133.540626,166.544079 134.023488,166.500981 134.569656,166.480779" id="path54" fill="#DEBF89"></path>
                            <path d="M126.130686,161.173681 C126.09971,161.095566 126.057959,161.022839 126.028329,160.943378 C126.091629,160.962233 126.150888,160.982435 126.215535,161.00129 L126.130686,161.173681" id="path56" fill="#DEBF89"></path>
                            <path d="M125.796208,145.781001 C124.348862,149.003394 121.225648,152.296541 120.02805,154.975248 C119.032534,157.198401 120.797527,159.149711 124.887582,160.575955 C120.469329,159.390522 116.098121,158.383834 110.446769,153.760023 C109.334075,152.969321 108.86375,151.922912 109.013946,150.624521 C111.494171,138.51324 117.499415,137.366286 122.728852,133.773988 C124.489128,135.411252 126.302655,136.57186 128.165833,137.412214 C128.073978,137.371251 127.980881,137.340219 127.890267,137.298015 C127.516638,141.194429 126.522363,144.195872 125.796208,145.781001" id="path58" fill="#DEBF89"></path>
                            <path d="M83.3173496,169.520702 C83.9825578,169.91295 84.655586,170.430569 85.3301038,171.10459 C84.654593,170.433051 83.9820612,169.911709 83.3173496,169.520702" id="path60" fill="#DEBF89"></path>
                            <path d="M132.452013,47.5526373 C132.454496,47.5477963 132.456978,47.5429553 132.460702,47.5376177 C132.547592,47.4730705 132.615863,47.4046754 132.697789,47.3369009 C140.659433,49.7831141 148.842026,60.0746622 149.429157,70.3797404 C147.018569,67.7284658 144.303865,65.9586323 141.21429,65.386521 C140.817077,65.3166363 140.38759,65.2919346 139.940725,65.2944172 C139.883625,65.2944172 139.826526,65.2934242 139.766944,65.2944172 C139.320079,65.3069543 138.853353,65.3501512 138.36925,65.4272354 C138.324563,65.433566 138.279877,65.4432481 138.23519,65.4509441 C137.235951,65.6206286 136.174646,65.919904 135.090999,66.3246892 C135.026452,66.348522 134.963146,66.3707411 134.901081,66.3955669 C134.383463,66.5928082 133.865844,66.8149993 133.346984,67.055934 C133.25637,67.0981379 133.165756,67.1427003 133.076383,67.1863938 C132.591038,67.4196324 132.108175,67.6678908 131.629037,67.9335271 C131.569455,67.967042 131.508631,67.9990673 131.450291,68.031465 C130.989772,68.2923845 130.537941,68.5716751 130.091077,68.8567998 C129.947087,68.9498966 129.800614,69.0429935 129.657866,69.1399384 C129.233344,69.423077 128.818753,69.7160218 128.416574,70.0200141 C128.359475,70.062218 128.29741,70.1004498 128.241552,70.1431502 C126.776828,60.7214992 128.796409,53.606292 132.452013,47.5526373" id="path62" fill="#CBA569"></path>
                            <path d="M144.790451,181.779697 C146.613908,178.623093 147.928436,175.591859 148.11463,172.754266 C129.354991,195.966418 101.607532,184.057467 97.189279,176.803359 C89.2595363,176.668059 88.2995214,174.053899 85.3301038,171.10459 C84.655586,170.430569 83.9825578,169.91295 83.3173496,169.520702 C83.305185,169.514496 83.2935168,169.508289 83.2814763,169.500841 C83.0744289,169.380436 82.8673814,169.272444 82.6618236,169.175623 C82.6369977,169.164451 82.6127925,169.155762 82.5880908,169.143349 C82.3970561,169.0577 82.2060213,168.979499 82.016352,168.912469 C81.9781202,168.898815 81.9402608,168.888885 81.9024014,168.876472 C81.7278758,168.818131 81.5543433,168.765997 81.3806866,168.723793 C81.3302901,168.71138 81.2798937,168.702691 81.2290007,168.691519 C81.0708602,168.658004 80.9128438,168.626972 80.7556963,168.60587 C80.6941282,168.597181 80.6330567,168.592216 80.5709921,168.584768 C80.4274988,168.569873 80.2843779,168.558701 80.1423741,168.552495 C80.070131,168.550012 79.9987567,168.550012 79.9270101,168.548771 C79.7975434,168.548771 79.6677043,168.550012 79.5391065,168.558701 C79.4601603,168.562425 79.38109,168.568631 79.3025163,168.576079 C79.1827317,168.587251 79.0639401,168.600905 78.9461415,168.618283 C78.8622302,168.631937 78.7793119,168.645592 78.6963936,168.660487 C78.5844291,168.681589 78.4724646,168.705174 78.3623621,168.731241 C78.2774577,168.751101 78.193174,168.772203 78.1092627,168.795788 C78.0011462,168.824338 77.8943952,168.857852 77.7877682,168.891367 C77.7053465,168.917434 77.6229247,168.944743 77.5409995,168.974534 C77.4323865,169.014255 77.3247665,169.055218 77.2175189,169.099904 C77.1429173,169.129695 77.0691846,169.159486 76.9954518,169.19176 C76.8776533,169.243894 76.7608477,169.298511 76.6454076,169.35561 C76.5871911,169.38416 76.5289745,169.411468 76.4713786,169.441259 C76.3317333,169.513254 76.1944464,169.588973 76.0586491,169.667174 C76.0286099,169.684553 75.9990671,169.700689 75.9695244,169.718067 C75.9301755,169.741652 75.8889646,169.762754 75.8492432,169.786338 C79.2569609,166.513053 84.2332986,165.451748 92.516437,167.966605 C95.3156736,168.82682 98.8752012,170.68131 100.106314,173.059624 C101.035793,174.811087 101.557508,176.263398 101.859638,177.797634 C118.340638,189.723963 137.502828,174.966248 145.265866,166.968607 C138.572822,169.584008 133.58283,169.785097 130.309544,167.581805 C130.307061,167.579322 130.303337,167.578081 130.299613,167.57684 C130.325681,167.553255 130.357954,167.533394 130.386504,167.511051 C130.41133,167.49119 130.439879,167.47133 130.465947,167.451469 C130.541665,167.395611 130.622349,167.342235 130.710481,167.290101 C130.751444,167.265275 130.794889,167.241691 130.838334,167.218106 C130.919018,167.175902 131.002185,167.13494 131.090316,167.09646 C131.153622,167.069151 131.218169,167.041843 131.285199,167.015776 C131.362159,166.985985 131.444084,166.957435 131.527251,166.930127 C131.616624,166.900336 131.707238,166.871786 131.8053,166.844478 C131.87233,166.825858 131.945566,166.809721 132.015078,166.792343 C132.139208,166.762552 132.263337,166.732761 132.397396,166.706694 C132.445807,166.696764 132.499182,166.688075 132.548834,166.680627 C132.712684,166.650836 132.879017,166.623528 133.057763,166.599943 C133.071417,166.59746 133.086313,166.59746 133.097485,166.594978 C133.538143,166.53912 134.025971,166.50064 134.569656,166.480779 C133.970113,166.407543 133.406566,166.311963 132.875293,166.197765 C132.694065,166.159285 132.538903,166.104668 132.366364,166.061223 C132.025009,165.975573 131.681171,165.892407 131.368366,165.788138 C131.206998,165.734763 131.067973,165.666492 130.914053,165.608151 C130.617384,165.496435 130.319474,165.38596 130.051355,165.258107 C129.909848,165.189836 129.78696,165.109152 129.654142,165.035916 C129.40216,164.900615 129.147695,164.765314 128.920539,164.612635 C128.790203,164.524504 128.677245,164.4252 128.553116,164.332103 C128.353268,164.180666 128.148455,164.03047 127.969709,163.864137 C127.840615,163.744973 127.73014,163.615878 127.612217,163.489266 C127.466986,163.335346 127.318031,163.18515 127.188937,163.020058 C127.058601,162.856208 126.948126,162.679944 126.833928,162.507405 C126.744555,162.369622 126.648975,162.236803 126.568291,162.094055 C126.437956,161.865657 126.328722,161.623605 126.221971,161.380312 C126.190939,161.307076 126.148735,161.240046 126.117702,161.164327 L126.122667,161.155638 L126.200869,160.996753 C126.141287,160.979375 126.08667,160.960756 126.028329,160.943378 C125.628633,160.825455 125.251281,160.701326 124.887582,160.575955 C120.797527,159.149711 119.032534,157.198401 120.02805,154.975248 C121.225648,152.296541 124.348862,149.003394 125.796208,145.781001 C126.522363,144.195872 127.516638,141.194429 127.890267,137.298015 C127.980881,137.340219 128.073978,137.371251 128.165833,137.412214 C128.522084,137.572341 128.878335,137.718813 129.237068,137.856596 C129.475396,137.948452 129.717448,138.034101 129.958258,138.117268 C130.292166,138.231466 130.627314,138.339459 130.964946,138.437521 C131.192102,138.503309 131.419258,138.564133 131.647656,138.622473 C131.928188,138.694468 132.209961,138.760257 132.490493,138.822321 C132.768542,138.883144 133.04535,138.943968 133.324641,138.996102 C133.700752,139.068097 134.076864,139.133885 134.456699,139.190985 C134.728542,139.231947 135.002867,139.266704 135.27471,139.30146 C135.508073,139.332492 135.738953,139.3598 135.972316,139.385868 C136.250365,139.4169 136.529656,139.447932 136.810188,139.473999 C137.034861,139.495101 137.260776,139.512479 137.486691,139.531099 C138.016723,139.573303 138.549237,139.611783 139.086716,139.645297 C139.26298,139.655228 139.439243,139.666399 139.616748,139.67633 C140.385107,139.718534 141.159673,139.757014 141.939204,139.795494 C147.237036,140.066095 150.779682,139.933277 152.687548,142.609502 C151.133451,143.691908 149.228068,145.61591 145.093326,152.72851 C139.730947,155.379909 133.201753,157.944417 132.425946,160.978134 C136.441524,160.309078 139.764461,159.277564 145.349032,159.431484 C148.386472,160.62809 152.11283,160.404657 156.142062,159.566785 C159.736842,158.433486 163.092053,156.848357 166.331824,155.043519 C163.969646,150.118074 161.847038,145.073465 155.773398,141.900724 C155.702645,141.918102 155.620719,141.934239 155.537553,141.955341 C156.345634,140.03258 157.965519,138.222777 162.99275,136.384425 C165.726074,135.391391 168.206174,133.89067 167.936814,131.408087 C171.597383,135.189061 173.248301,139.270427 174.446147,146.034225 C174.952594,148.904091 174.210301,150.26827 172.37319,152.244407 C165.574636,159.566785 159.519616,162.009647 155.895045,163.006404 C155.552448,163.982059 154.389358,165.096739 153.107104,166.227556 C155.014969,164.875789 157.562099,164.138462 162.353485,165.652838 C163.533953,166.025225 165.167493,165.301552 166.99095,164.083845 C160.0422,172.653722 152.735958,179.113403 144.790451,181.779697" id="path64" fill="#CBA569"></path>
                            <path d="M157.29398,21.8355594 C157.001036,21.310493 156.592651,20.9007427 156.065102,20.607922 C155.537553,20.3149772 154.988902,20.1685048 154.416667,20.1685048 C153.84319,20.1685048 153.293298,20.3149772 152.76699,20.607922 C152.240683,20.9007427 151.829815,21.310493 151.53687,21.8355594 C151.243926,22.3607498 151.097453,22.9091524 151.097453,23.4817602 C151.097453,24.0573471 151.246408,24.6134457 151.545559,25.1448426 C151.843469,25.6763636 152.256819,26.0854933 152.78561,26.372604 C153.3144,26.6592183 153.858085,26.8007255 154.416667,26.8007255 C154.971524,26.8007255 155.513968,26.6592183 156.045241,26.372604 C156.574031,26.0854933 156.988623,25.6763636 157.285291,25.1448426 C157.58196,24.6134457 157.729674,24.0573471 157.729674,23.4817602 C157.729674,22.9091524 157.584443,22.3607498 157.29398,21.8355594 Z M156.37046,26.9462049 C155.73616,27.2900426 155.08324,27.4597272 154.416667,27.4597272 C153.748852,27.4597272 153.098415,27.2900426 152.461633,26.9462049 C151.826091,26.6048497 151.329575,26.1141671 150.973324,25.4760192 C150.617073,24.8393607 150.438327,24.1741526 150.438327,23.4817602 C150.438327,22.7975603 150.614591,22.1386827 150.965876,21.5078584 C151.31592,20.875048 151.807472,20.3818828 152.436807,20.0333282 C153.068624,19.6846494 153.72775,19.5096273 154.416667,19.5096273 C155.105583,19.5096273 155.764709,19.6846494 156.395285,20.0333282 C157.025861,20.3818828 157.516172,20.875048 157.864975,21.5078584 C158.215019,22.1386827 158.3888,22.7975603 158.3888,23.4817602 C158.3888,24.1741526 158.212536,24.8393607 157.857527,25.4760192 C157.502517,26.1141671 157.007242,26.6048497 156.37046,26.9462049 Z" id="path66" fill="#104076"></path>
                            <path d="M154.200682,23.6936486 L153.36281,23.6936486 L153.36281,24.9834747 L154.147306,24.9834747 C154.484938,24.9834747 154.715818,24.9601384 154.839947,24.9102385 C154.966559,24.861704 155.06338,24.7861093 155.132892,24.6866819 C155.203646,24.5862614 155.238402,24.4733039 155.238402,24.3468163 C155.238402,24.1494509 155.166407,23.9927999 155.019934,23.8725188 C154.873462,23.7523617 154.601619,23.6936486 154.200682,23.6936486 Z M155.113031,22.971217 C155.019934,23.0594728 154.899529,23.1350675 154.749333,23.1986216 C155.116755,23.2256817 155.413424,23.3561415 155.636856,23.5870217 C155.859047,23.8201363 155.970764,24.0922274 155.970764,24.4049087 C155.970764,24.6261068 155.903734,24.8345197 155.769674,25.0303955 C155.638098,25.2277609 155.45811,25.3660407 155.233437,25.4439938 C155.008763,25.5245537 154.645064,25.563282 154.1411,25.563282 L152.672652,25.563282 L152.672652,21.2856672 L153.36281,21.2856672 L153.36281,23.1040352 L153.768713,23.1040352 C154.010764,23.1040352 154.194476,23.0545076 154.322329,22.9552043 C154.503557,22.822262 154.745609,22.4910854 155.043519,21.9596885 L155.423354,21.2856672 L156.26495,21.2856672 L155.744849,22.123539 C155.494108,22.5197592 155.284329,22.8038909 155.113031,22.971217 Z" id="path68" fill="#104076"></path>
                        </g>
                    </g>
                </g>
            </g>
        </g>
    </g>
</svg>