<?xml version="1.0" encoding="UTF-8"?>
<svg width="200px" height="200px" viewBox="0 0 200 200" version="1.1" xmlns="http://www.w3.org/2000/svg" xmlns:xlink="http://www.w3.org/1999/xlink">
    <!-- Generator: Sketch 51.3 (57544) - http://www.bohemiancoding.com/sketch -->
    <title>arkansas-tech</title>
    <desc>Created with Sketch.</desc>
    <defs></defs>
    <g id="arkansas-tech" stroke="none" stroke-width="1" fill="none" fill-rule="evenodd">
        <g id="arkansas-tech_BGL" transform="translate(10.714286, 0.000000)">
            <g id="arkansas-tech">
                <g id="g10" transform="translate(89.453016, 99.756283) scale(-1, 1) rotate(-180.000000) translate(-89.453016, -99.756283) translate(0.000000, 0.018753)" fill-rule="nonzero">
                    <g id="g12">
                        <polyline id="path14" fill="#FFFFFF" points="43.0253973 58.1927245 64.9071837 116.235093 59.9921539 116.235093 38.1107434 58.1927245 43.0253973 58.1927245"></polyline>
                        <polyline id="path16" fill="#FFFFFF" points="88.6667316 183.428192 83.7520777 183.428192 84.7368126 181.872136 73.8171551 152.907008 73.8160276 152.904383 78.7310573 152.904383 78.7321849 152.907008 89.6518424 181.872136 88.6667316 183.428192"></polyline>
                        <polyline id="path18" fill="#FFFFFF" points="101.083412 166.109482 106.061585 152.906633 106.062336 152.904383 110.97699 152.904383 110.976239 152.906633 105.99769 166.109482 101.083412 166.109482"></polyline>
                        <polyline id="path20" fill="#FFFFFF" points="130.075209 102.253091 124.802743 116.236593 124.80124 116.240342 119.886586 116.240342 119.888089 116.236967 125.160555 102.253091 130.075209 102.253091"></polyline>
                        <polyline id="path22" fill="#FFFFFF" points="137.875663 81.5665521 132.960633 81.5665521 141.773634 58.1927245 146.688664 58.1927245 137.875663 81.5665521"></polyline>
                        <polyline id="path24" fill="#FFFFFF" points="90.4234686 124.236217 90.4234686 110.247466 95.076153 110.247466 95.076153 124.236217 90.4234686 124.236217"></polyline>
                        <polyline id="path26" fill="#FFFFFF" points="95.076153 15.7849265 95.076153 73.5755512 90.4234686 73.5755512 90.4234686 15.7849265 95.076153 15.7849265"></polyline>
                        <polyline id="path28" fill="#FFFFFF" points="40.4135948 128.138355 45.0662792 128.138355 45.0662792 141.002996 40.4135948 141.002996 40.4135948 128.138355"></polyline>
                        <path d="M146.546967,116.236218 L165.298274,116.235843 L165.298274,152.905883 L132.720087,152.906258 L116.722655,195.332204 L62.1044478,195.332204 L71.4808528,180.520805 L61.0704762,152.907383 L28.4814269,152.907758 L28.4814269,116.235093 L47.2447232,116.235093 L27.7839189,64.6160464 L9.39779105,46.2883378 L60.2815607,46.2883378 L70.56753,73.5718017 L78.491639,73.5718017 L78.491639,20.0809519 L68.2526513,3.88016488 L115.298548,3.88016488 L115.298548,73.5718017 L123.22604,73.5718017 L133.514264,46.2883378 L172.921701,46.2883378 L146.546967,116.236218 Z M80.3855623,181.427442 L76.6450731,187.335953 L111.175817,187.335953 L124.15778,152.906633 L110.976239,152.906633 L110.97699,152.904383 L106.062336,152.904383 L106.061585,152.906633 L101.87571,152.906633 L96.8975367,166.109482 L88.0931799,166.109482 L95.1111073,161.3697 L91.9201153,152.907008 L78.7321849,152.907008 L78.7310573,152.904383 L73.8160276,152.904383 L73.8171551,152.907008 L69.6335353,152.907008 L80.3855623,181.427442 Z M36.497244,124.230218 L36.497244,144.911507 L157.284712,144.910008 L157.284712,124.230968 L100.255783,124.230968 L107.28461,119.491561 L107.28461,110.247466 L95.076153,110.247466 L90.4234686,110.247466 L86.5067044,110.247466 L86.5067044,124.230218 L36.497244,124.230218 Z M107.28461,11.8757777 L82.7808735,11.8757777 L86.5067044,17.7710157 L86.5067044,73.5718017 L90.4234686,73.5718017 L90.4234686,73.5755512 L95.076153,73.5755512 L95.076153,73.5718017 L107.28461,73.5718017 L107.28461,11.8757777 Z M128.775134,81.5665521 L65.0206913,81.5665521 L54.7335944,54.2838382 L28.7587688,54.2838382 L34.6761234,60.1826007 L55.8077823,116.235093 L59.9921539,116.235093 L64.9071837,116.235093 L78.0928589,116.235093 L72.8207688,102.253091 L120.975432,102.253091 L115.70259,116.236967 L119.888089,116.236967 L119.886586,116.240342 L124.80124,116.240342 L124.802743,116.236593 L137.985036,116.236218 L161.345052,54.2838382 L139.062606,54.2838382 L128.775134,81.5665521 Z" id="path30" fill="#024D36"></path>
                        <polyline id="path32" fill="#024D36" points="156.24623 110.017245 156.248485 104.713158 157.538789 104.713158 157.538789 110.017245 158.558478 110.017245 158.558478 111.226469 155.232931 111.226469 155.232931 110.017245 156.24623 110.017245"></polyline>
                        <polyline id="path34" fill="#024D36" points="160.873732 107.831268 161.507421 104.713158 162.503431 104.713158 163.055559 107.797148 163.262654 109.403447 163.279943 109.403447 163.594157 104.713158 164.918663 104.713158 164.231603 111.226469 162.500048 111.226469 161.982123 107.38245 161.964834 107.38245 161.331146 111.226469 159.633793 111.226469 159.065128 104.713158 160.450522 104.713158 160.6392 109.403447 160.656865 109.403447 160.656489 109.282712 160.873732 107.831268"></polyline>
                        <path d="M152.166722,112.355453 L169.188729,112.355453 L169.188729,156.787398 L135.412698,156.787773 L119.415266,199.213343 L55.0463041,199.213343 L67.1581673,180.08061 L58.3771135,156.788523 L24.5909348,156.788897 L24.5909348,112.354328 L41.624969,112.354328 L24.4385264,66.7682773 L0,42.4079479 L62.9737958,42.4079479 L73.260141,69.6910369 L74.6015603,69.6910369 L74.6015603,21.2021367 L61.2001455,0 L119.188627,0 L119.188627,69.6910369 L120.533053,69.6910369 L130.820902,42.4079479 L178.541831,42.4079479 L152.166722,112.355453 Z M123.22604,73.5718017 L115.298548,73.5718017 L115.298548,3.88016488 L68.2526513,3.88016488 L78.491639,20.0809519 L78.491639,73.5718017 L70.56753,73.5718017 L60.2815607,46.2883378 L9.39779105,46.2883378 L27.7839189,64.6160464 L47.2447232,116.235093 L28.4814269,116.235093 L28.4814269,152.907758 L61.0704762,152.907383 L71.4808528,180.520805 L62.1044478,195.332204 L116.722655,195.332204 L132.720087,152.906258 L165.298274,152.905883 L165.298274,116.235843 L146.546967,116.236218 L172.921701,46.2883378 L133.514264,46.2883378 L123.22604,73.5718017 Z" id="path36" fill="#FCD006"></path>
                        <polyline id="path38" fill="#FCD006" points="84.7368126 181.872136 83.7520777 183.428192 88.6667316 183.428192 89.6518424 181.872136 78.7321849 152.907008 91.9201153 152.907008 95.1111073 161.3697 88.0931799 166.109482 96.8975367 166.109482 101.87571 152.906633 106.061585 152.906633 101.083412 166.109482 105.99769 166.109482 110.976239 152.906633 124.15778 152.906633 111.175817 187.335953 76.6450731 187.335953 80.3855623 181.427442 69.6335353 152.907008 73.8171551 152.907008 84.7368126 181.872136"></polyline>
                        <path d="M137.985036,116.236218 L124.802743,116.236593 L130.075209,102.253091 L125.160555,102.253091 L119.888089,116.236967 L115.70259,116.236967 L120.975432,102.253091 L72.8207688,102.253091 L78.0928589,116.235093 L64.9071837,116.235093 L43.0253973,58.1927245 L38.1107434,58.1927245 L59.9921539,116.235093 L55.8077823,116.235093 L34.6761234,60.1826007 L28.7587688,54.2838382 L54.7335944,54.2838382 L65.0206913,81.5665521 L128.775134,81.5665521 L139.062606,54.2838382 L161.345052,54.2838382 L137.985036,116.236218 Z M132.960633,81.5665521 L137.875663,81.5665521 L146.688664,58.1927245 L141.773634,58.1927245 L132.960633,81.5665521 Z" id="path40" fill="#FCD006"></path>
                        <polyline id="path42" fill="#FCD006" points="95.076153 15.7849265 90.4234686 15.7849265 90.4234686 73.5718017 86.5067044 73.5718017 86.5067044 17.7710157 82.7808735 11.8757777 107.28461 11.8757777 107.28461 73.5718017 95.076153 73.5718017 95.076153 15.7849265"></polyline>
                        <path d="M86.5067044,110.247466 L90.4234686,110.247466 L90.4234686,124.236217 L95.076153,124.236217 L95.076153,110.247466 L107.28461,110.247466 L107.28461,119.491561 L100.255783,124.230968 L157.284712,124.230968 L157.284712,144.910008 L36.497244,144.911507 L36.497244,124.230218 L86.5067044,124.230218 L86.5067044,110.247466 Z M45.0662792,128.138355 L40.4135948,128.138355 L40.4135948,141.002996 L45.0662792,141.002996 L45.0662792,128.138355 Z" id="path44" fill="#FCD006"></path>
                    </g>
                </g>
            </g>
        </g>
    </g>
</svg>