<?xml version="1.0" encoding="UTF-8"?>
<svg width="200px" height="200px" viewBox="0 0 200 200" version="1.1" xmlns="http://www.w3.org/2000/svg" xmlns:xlink="http://www.w3.org/1999/xlink">
    <!-- Generator: Sketch 51.3 (57544) - http://www.bohemiancoding.com/sketch -->
    <title>armstrong</title>
    <desc>Created with Sketch.</desc>
    <defs>
        <rect id="path-1" x="0" y="0" width="187.29961" height="199.874642"></rect>
        <rect id="path-3" x="0" y="0" width="187.29961" height="199.874642"></rect>
        <rect id="path-5" x="0" y="0" width="187.29961" height="199.874642"></rect>
        <rect id="path-7" x="0" y="0" width="187.29961" height="199.874642"></rect>
        <rect id="path-9" x="0" y="0" width="187.29961" height="199.874642"></rect>
        <rect id="path-11" x="0" y="0" width="187.29961" height="199.874642"></rect>
        <rect id="path-13" x="0" y="0" width="187.29961" height="199.874642"></rect>
        <rect id="path-15" x="0" y="0" width="187.29961" height="199.874642"></rect>
        <rect id="path-17" x="0" y="0" width="187.29961" height="199.874642"></rect>
        <rect id="path-19" x="0" y="0" width="187.29961" height="199.874642"></rect>
        <rect id="path-21" x="0" y="0" width="187.29961" height="199.874642"></rect>
        <rect id="path-23" x="0" y="0" width="187.29961" height="199.874642"></rect>
        <rect id="path-25" x="0" y="0" width="187.29961" height="199.874642"></rect>
        <rect id="path-27" x="0" y="0" width="187.29961" height="199.874642"></rect>
        <rect id="path-29" x="0" y="0" width="187.29961" height="199.874642"></rect>
        <rect id="path-31" x="0" y="0" width="187.29961" height="199.874642"></rect>
        <rect id="path-33" x="0" y="0" width="187.29961" height="199.874642"></rect>
    </defs>
    <g id="armstrong" stroke="none" stroke-width="1" fill="none" fill-rule="evenodd">
        <g id="armstrong_BGL">
            <g id="armstrong-copy" transform="translate(6.000000, 0.000000)">
                <g id="Clipped">
                    <mask id="mask-2" fill="white">
                        <use xlink:href="#path-1"></use>
                    </mask>
                    <g id="SVGID_1_"></g>
                    <path d="M186.879064,15.7630689 L186.962289,15.1760728 L186.738882,14.5055917 L186.659298,14.2782835 C186.538101,13.6608583 186.386736,13.0775033 186.197139,12.4944083 C186.13264,12.2975293 186.045514,12.0397919 185.950845,11.7784135 C185.863719,11.5511053 185.772952,11.3427828 185.678023,11.1308192 C185.575813,10.8959688 185.4658,10.6650195 185.348505,10.4338101 L185.121196,9.9869961 L185.09857,9.94148244 L185.072042,9.89596879 C184.909233,9.60806242 184.742523,9.33550065 184.564369,9.0626788 L184.394018,8.78985696 L184.344863,8.71027308 L184.291808,8.63823147 C184.015345,8.24811443 183.731339,7.88062419 183.428349,7.52093628 L183.401821,7.49076723 L183.375293,7.4603381 L183.151886,7.20650195 L183.1329,7.18751625 L183.113914,7.16462939 C182.807022,6.83511053 182.591157,6.61170351 182.363849,6.38829649 C182.220026,6.24811443 182.049415,6.08530559 181.863979,5.92613784 C181.625228,5.71027308 181.356307,5.49050715 181.087386,5.27464239 L181.068401,5.25955787 L181.045774,5.24447334 L180.708713,4.97919376 L180.678283,4.95656697 L180.651756,4.93758127 C180.204681,4.60806242 179.76541,4.31261378 179.307152,4.03224967 C179.16697,3.94512354 179.03433,3.86944083 178.901951,3.79739922 C178.530819,3.58517555 178.159688,3.3846554 177.777113,3.19505852 C177.614304,3.11183355 177.402081,3.01326398 177.182575,2.91105332 C176.853056,2.75942783 176.485566,2.59661899 176.076463,2.43381014 L175.568791,2.23302991 L175.542263,2.22548765 L175.519636,2.21794538 C175.008322,2.02470741 174.489467,1.85045514 173.978153,1.69518856 L173.762289,1.62704811 L173.728218,1.61560468 L173.694148,1.60416125 C173.148765,1.44135241 172.523797,1.27854356 171.83433,1.11937581 L171.803901,1.11183355 L171.777373,1.10793238 L171.349285,1.01326398 C170.690247,0.876983095 170.197919,0.782314694 169.709233,0.698829649 C169.531079,0.66840052 169.285046,0.626788036 169.027308,0.589076723 L168.576593,0.513394018 L168.508453,0.505851756 L168.440312,0.494408322 L167.330559,0.365669701 C167.046554,0.33159948 166.815345,0.308972692 166.569311,0.282444733 C166.152666,0.236931079 165.641352,0.202860858 165.122497,0.164889467 L165.050455,0.160988296 L164.130039,0.0964889467 L164.09987,0.0964889467 L164.0658,0.0928478544 C163.463459,0.066319896 162.849935,0.0436931079 162.243953,0.0322496749 L161.387776,0.00962288687 L161.361248,0.00962288687 L161.33472,0.00962288687 C160.331079,-0.00182054616 159.380234,0.00962288687 158.437191,0.0361508453 C145.592978,0.39609883 133.347204,5.54720416 122.037191,15.3461638 C114.007282,22.3079324 108.378674,29.9856957 105.325618,34.6977893 C97.8447334,34.6522757 89.5422627,36.2356307 81.7355007,39.216645 C71.2018205,43.2429129 58.9409623,54.8637191 55.0395319,58.7310793 L53.0054616,58.2158648 L52.8957087,58.1817945 L52.7024707,58.1172952 L52.5016905,58.083225 C52.3919376,58.0605982 49.7328999,57.583355 48.5851756,57.416645 L48.2481144,57.3635891 L48.2026008,57.3560468 L48.153446,57.3485046 L47.3162549,57.2423927 C46.9336801,57.1893368 46.4980494,57.1326398 46.0663199,57.083225 C45.6345904,57.0301691 45.1763329,56.9846554 44.7217165,56.9355007 L41.1006502,56.6286086 L41.0514954,56.6249675 L41.0059818,56.6210663 C40.6803641,56.6059818 40.3620286,56.5908973 40.0439532,56.5755527 L39.7560468,56.5641092 L39.6954486,56.5602081 L39.6387516,56.5602081 L34.1768531,56.5185956 L34.1087126,56.5185956 L34.0481144,56.5222367 C33.7261378,56.5297789 33.4231469,56.5487646 33.120156,56.5638492 L33.0369311,56.5677503 L31.9042913,56.6358908 L31.8741222,56.6358908 L31.8436931,56.6397919 C31.4725618,56.6663199 31.1126138,56.7003901 30.7529259,56.7344603 L29.8059818,56.8215865 L29.7794538,56.8254876 L29.7529259,56.8254876 C29.2,56.8860858 28.6543563,56.9617685 28.1204161,57.0377113 L27.2114434,57.1739922 C26.7227568,57.2535761 26.2304291,57.3331599 25.7646294,57.4239272 L24.7115735,57.6436931 L24.6169051,57.6626788 C24.3518856,57.723277 24.0829649,57.7802341 23.8291287,57.8444733 L23.7950585,57.8520156 L23.7648895,57.8595579 L21.2915475,58.5414824 L21.2460338,58.5529259 L21.1968791,58.5680104 L21.0301691,58.6171651 C20.7498049,58.7079324 20.4959688,58.7838752 20.249935,58.8671001 L19.473342,59.1474642 C19.113394,59.2762029 18.83329,59.3747724 18.5643693,59.4808843 C18.2728218,59.6020806 18.0114434,59.7081925 17.750065,59.8218466 C17.4054616,59.9656697 17.16671,60.0681404 16.943303,60.1703511 C16.6819246,60.2879064 16.4205462,60.4127438 16.1630689,60.5414824 C15.9472042,60.6436931 15.6743823,60.7724317 15.4130039,60.9089727 L15.3903771,60.9204161 L15.3713914,60.9355007 L14.7009103,61.2915475 L14.5947984,61.3482445 C14.3638492,61.4769831 14.1326398,61.6057217 13.9131339,61.7383615 C13.6858257,61.8710013 13.4473342,62.0148244 13.2124837,62.1625488 C12.9776333,62.306632 12.7087126,62.4730819 12.4548765,62.6473342 L12.386736,62.6928479 L12.3222367,62.7420026 L9.47776333,64.9162549 L9.40208062,64.9729519 L9.32639792,65.0374512 C9.18621586,65.1625488 9.03849155,65.2988296 8.88712614,65.4351105 L8.8,65.5146944 L8.74694408,65.5638492 L8.69388817,65.6169051 L7.18647594,67.1396619 L7.14096229,67.1812744 L7.09544863,67.2304291 C6.88322497,67.4652796 6.70143043,67.6736021 6.52717815,67.8780234 L6.47802341,67.9386216 L6.43250975,67.9992198 L4.83407022,70.0824447 L4.7810143,70.1505852 L4.73550065,70.2187256 L4.62574772,70.3815345 L4.59921977,70.4156047 L4.58023407,70.4457737 L3.9893368,71.3661899 L3.8,71.6691808 L3.78491547,71.6918075 L3.76983095,71.7183355 L3.54642393,72.0970091 C3.40260078,72.3508453 3.28140442,72.5742523 3.16384915,72.7976593 L3.1183355,72.8772432 L2.85331599,73.3771131 L2.83823147,73.4036411 L2.82678804,73.4301691 C2.70559168,73.6725618 2.59193758,73.9113134 2.47828349,74.1461638 L2.47438231,74.1537061 L2.44785436,74.206762 L2.21690507,74.7029909 C2.09570871,74.983355 1.99349805,75.2218466 1.89492848,75.4642393 L1.81924577,75.6421326 L1.6449935,76.0663199 L1.63355007,76.0964889 L1.62210663,76.1230169 C1.53107932,76.3617685 1.43276983,76.6228869 1.34174252,76.8881664 L1.27724317,77.0585176 L1.26970091,77.0814044 L1.25825748,77.1079324 L1.15968791,77.3882965 C0.985435631,77.8996099 0.849154746,78.3427828 0.716514954,78.7859558 C0.553706112,79.3578674 0.42106632,79.9185956 0.311313394,80.4829649 C0.277243173,80.6762029 0.250715215,80.8504551 0.228088427,81.0244473 L0.205461638,81.1760728 C0.163849155,81.4715215 0.106892068,81.8161248 0.0767230169,82.1950585 L0.0691807542,82.2405722 L0.0691807542,82.2897269 L0.0275682705,83.0208062 C0.0150845254,83.3248375 0,83.5937581 0,83.8626788 C0.00390117035,84.0520156 0.011443433,84.256697 0.0189856957,84.4611183 L0.0304291287,84.7602081 C0.0418725618,85.0026008 0.0530559168,85.260078 0.0759427828,85.5139142 C0.0949284785,85.7146944 0.121456437,85.926658 0.151625488,86.1427828 L0.181794538,86.3927178 C0.208322497,86.6351105 0.246293888,86.8964889 0.299089727,87.1654096 C0.325617685,87.3131339 0.363589077,87.5175553 0.408842653,87.7222367 L0.412743823,87.7524057 L0.420286086,87.7828349 L0.458257477,87.9381014 L0.462158648,87.9682705 C0.53029909,88.3053316 0.571911573,88.4871261 0.617425228,88.6652796 C0.666579974,88.8585176 0.727178153,89.0668401 0.784135241,89.2751625 L0.822106632,89.4002601 L0.90923277,89.6842653 L1.0343303,90.1009103 C1.12145644,90.373472 1.20104031,90.5895969 1.28062419,90.8015605 L1.34122237,90.9643693 L1.34876463,90.9869961 L1.35630689,91.0135241 L1.42444733,91.1953186 L1.57607282,91.5929779 C1.71235371,91.9339402 1.84889467,92.2408322 1.98881664,92.5513654 L2.17451235,92.9680104 L2.19349805,93.0059818 L2.20858257,93.040052 C2.36384915,93.3656697 2.526658,93.680104 2.69336801,93.9945384 L2.87516255,94.3505852 L2.89024707,94.3807542 L2.9053316,94.4111834 C3.08712614,94.7407022 3.27282185,95.0663199 3.46970091,95.3921977 L3.61352406,95.6460338 L3.63615085,95.6840052 L3.65877763,95.7180754 C3.88218466,96.0741222 4.08686606,96.3997399 4.30273082,96.7217165 L4.49960988,97.0208062 C4.6663199,97.2746424 4.92015605,97.6343303 5.17763329,97.9903771 L5.27230169,98.126658 L5.29882965,98.1646294 L5.3289987,98.1986996 C5.60546164,98.5737321 5.86684005,98.9183355 6.13576073,99.2592978 C6.52977893,99.7555267 6.8213264,100.107672 7.11677503,100.456177 C7.4046814,100.797139 7.66970091,101.096229 7.93498049,101.388036 L8.43875163,101.940962 C14.2416125,108.183095 21.7752926,112.891287 26.4684005,115.035111 C32.7560468,117.906112 43.7708713,124.640832 48.9979194,127.901951 C48.9979194,127.917035 48.9940182,127.924577 48.9940182,127.936021 C36.2369311,133.382835 33.5136541,139.802861 33.5172952,144.283745 C33.5172952,151.726658 38.3617685,157.404421 45.5622887,158.415865 C46.8954486,158.60156 48.9144343,158.69987 50.9256177,158.105332 L57.2473342,156.207542 C78.1139142,167.362549 105.484005,189.516775 106.662159,190.471261 L112.154486,194.952146 L118.180754,199.872302 L117.017945,192.179454 L115.957347,185.16827 C115.930819,184.978934 115.90065,184.785696 115.881664,184.596359 C116.472562,184.857737 116.855137,184.982575 116.953706,185.013004 L118.703511,185.56593 L120.623927,186.16827 L121.915475,184.618986 L123.089727,183.209883 C123.714694,182.456177 124.317035,181.69857 124.888947,180.948505 L125.987256,181.743823 L127.775033,180.30065 L129.453056,178.948505 L129.475683,178.929519 L129.502211,178.910533 C132.937581,176.013004 134.941482,173.975033 134.960468,173.952406 C138.403381,170.36541 145.622887,161.388557 143.069961,151.358648 C143.759428,150.775293 144.36541,150.116255 144.876723,149.381534 C145.721456,148.161769 146.285826,146.756567 146.554746,145.249155 C147.202341,144.790897 147.816125,144.275683 148.380494,143.703771 C150.83485,141.218986 152.224967,138.010923 152.520416,134.147464 C157.743563,129.996099 157.830949,123.678023 155.524057,119.057217 C154.804421,116.898309 152.607542,110.659818 150.03199,106.917555 C149.759168,106.515995 149.660858,106.213004 149.63433,106.016125 C154.975033,99.1490247 155.872822,91.5394018 155.785696,86.7706112 C158.857477,84.0548765 161.698309,79.8049415 164.440572,73.8353706 C167.163849,67.9076723 178.182575,42.0751625 184.504291,27.2046814 L184.901951,26.2691808 L185.064759,25.9472042 L185.284525,25.5076723 L185.29961,25.4054616 C186.045774,23.656697 187.29961,19.9711313 186.879064,15.7630689 M182.386736,24.5771131 L182.382835,24.6036411 L182.178414,25.0127438 C181.481404,26.6491547 165.092068,65.2384915 161.713394,72.5828349 C158.849935,78.8249675 155.830949,83.1204161 152.725098,85.3854356 C153.024187,89.8096229 152.546944,97.7864759 146.804941,104.752146 C146.611704,105.289987 146.293628,106.778674 147.562549,108.615605 C150.081404,112.282185 152.289727,118.819766 152.747984,120.217425 C154.145644,122.895449 155.274382,128.448114 150.285826,132.084525 L150.123017,132.190637 C150.039792,132.243693 149.842653,132.364889 149.581274,132.520156 C149.585176,136.30039 148.460078,139.353186 146.248114,141.595579 C145.490507,142.360728 144.645774,142.985696 143.721717,143.470481 C143.683745,145.046294 143.240572,146.474122 142.411183,147.66736 C141.69909,148.697529 140.725618,149.519636 139.509753,150.129259 C141.755787,155.613784 140.914954,163.420286 132.816905,171.859558 C132.73368,171.939142 130.790377,173.90117 127.56723,176.616905 L125.889207,177.969051 L124.215085,176.753186 C123.43485,177.904551 122.29857,179.472822 120.783355,181.290767 L119.605462,182.703511 L117.855657,182.150585 C117.696489,182.10143 115.639792,181.415865 112.935501,179.287126 C112.685566,181.279584 112.655137,183.392978 112.992458,185.616385 L114.053056,192.631209 L108.557087,188.146424 C108.20104,187.854876 79.1188557,164.226788 57.5628088,152.981014 L50.0707412,155.227048 C48.5745124,155.670221 47.0179454,155.590637 45.979974,155.446814 C40.0749025,154.617165 36.5219766,150.037971 36.5183355,144.284265 C36.5144343,135.314954 51.3396619,130.315215 51.7110533,130.053836 C51.7185956,130.03485 51.7261378,130.019766 51.7336801,130.00078 C51.8509753,128.807542 52.0746424,127.637191 52.4117035,126.50091 C47.7149545,123.542783 34.9123537,115.592198 27.7157347,112.304551 C23.2728218,110.278023 16.1328999,105.816125 10.6595579,99.9261378 L10.163329,99.3807542 C9.92457737,99.1154746 9.67854356,98.8353706 9.40572172,98.513394 C9.12925878,98.1877763 8.85643693,97.8579974 8.49284785,97.4036411 C8.24291287,97.0816645 7.99661899,96.7557867 7.73159948,96.4075423 L7.62548765,96.2522757 C7.38673602,95.9302991 7.15968791,95.6083225 6.99661899,95.3583875 L6.80338101,95.06658 C6.60650195,94.7674902 6.41716515,94.4681404 6.20884265,94.1386216 L6.04603381,93.8546164 C5.86788036,93.5591678 5.70143043,93.2676203 5.54226268,92.9721717 L5.34902471,92.6010403 C5.20130039,92.3206762 5.05747724,92.0405722 4.91729519,91.7487646 L4.72041612,91.3094928 C4.59921977,91.0442133 4.4816645,90.7752926 4.37945384,90.5253576 L4.23172952,90.1313394 L4.16358908,89.9495449 C4.07646294,89.7146944 3.9893368,89.4762029 3.90611183,89.2223667 L3.7810143,88.8171651 L3.7053316,88.5672302 C3.64473342,88.3513654 3.57659298,88.1355007 3.52353706,87.923277 C3.48556567,87.7680104 3.45149545,87.6127438 3.38725618,87.3022107 L3.34564369,87.116515 C3.3076723,86.9386216 3.27360208,86.7643693 3.24707412,86.616645 C3.2130039,86.4197659 3.18257477,86.2189857 3.16384915,86.0257477 L3.12587776,85.7378414 C3.0993498,85.5635891 3.08036411,85.3968791 3.06527958,85.256697 C3.05019506,85.0522757 3.03875163,84.8439532 3.03120936,84.6392718 L3.01976593,84.3058518 C3.01222367,84.1505852 3.00078023,83.9989597 3.00078023,83.8702211 C3.0046814,83.6429129 3.01222367,83.4156047 3.02340702,83.1885566 L3.06501951,82.4538362 C3.08764629,82.1773732 3.12951886,81.8970091 3.17477243,81.6205462 L3.20130039,81.4348505 C3.21638492,81.310013 3.23146944,81.1849155 3.2579974,81.0447334 C3.34876463,80.5789337 3.45877763,80.1128739 3.59141743,79.6470741 C3.71651495,79.2379714 3.83771131,78.8288687 3.98543563,78.393238 L4.08764629,78.1128739 L4.15968791,77.9120936 C4.24681404,77.6697009 4.33394018,77.4273082 4.42106632,77.2075423 L4.58023407,76.8174252 L4.67126138,76.6015605 C4.75838752,76.393238 4.84551365,76.1812744 4.93628088,75.9690507 L5.17113134,75.4728218 C5.27724317,75.2455137 5.3869961,75.0221066 5.5006502,74.7872562 L5.76957087,74.2910273 C5.88322497,74.0676203 6.00442133,73.8442133 6.12561769,73.6319896 L6.35292588,73.2494148 L6.51573472,72.9880364 L7.10273082,72.0676203 L7.21248375,71.9084525 L8.81092328,69.8252276 C8.96618986,69.643433 9.12535761,69.4577373 9.31469441,69.2494148 L10.8221066,67.7305592 C10.9849155,67.586736 11.1440832,67.4351105 11.2993498,67.2988296 L14.1401821,65.1284785 C14.359948,64.9768531 14.5908973,64.8369311 14.8031209,64.7079324 C15.0114434,64.5752926 15.2236671,64.4429129 15.4280884,64.3292588 C15.6478544,64.1929779 15.8863459,64.0639792 16.1175553,63.9352406 L16.7880364,63.5752926 C17.026528,63.4540962 17.2691808,63.336541 17.4775033,63.2382315 C17.7123537,63.1245774 17.9472042,63.0072822 18.1895969,62.8972692 C18.3903771,62.8062419 18.6023407,62.7193758 18.9396619,62.5752926 C19.1820546,62.4730819 19.4244473,62.3745124 19.6707412,62.2723017 C19.9170351,62.1737321 20.1745124,62.0829649 20.4850455,61.9693108 L21.2312094,61.7040312 C21.4925878,61.6130039 21.7654096,61.5336801 22.0873862,61.4314694 L24.5607282,60.753446 C24.8070221,60.6928479 25.0720416,60.6358908 25.3295189,60.5791938 L26.3331599,60.3669701 C26.7724317,60.2837451 27.223407,60.2117035 27.6626788,60.1396619 L28.5490247,60.0070221 C29.0488947,59.9349805 29.5604681,59.8668401 30.0754226,59.810143 L31.0449935,59.7191157 C31.3820546,59.6889467 31.7230169,59.6546164 32.0715215,59.6283485 L33.2078023,59.5638492 C33.5183355,59.5487646 33.8252276,59.5297789 34.1547464,59.5183355 L39.616645,59.559948 C40.0218466,59.5789337 40.4273082,59.5940182 40.8475943,59.616645 L44.4195059,59.9235371 C44.8551365,59.9651495 45.2907672,60.0106632 45.7263979,60.0637191 C46.1355007,60.1128739 46.5521456,60.1659298 46.9422627,60.2189857 L47.7755527,60.3250975 L48.1581274,60.3856957 C49.2678804,60.5448635 51.9685306,61.03329 51.9685306,61.03329 L52.1768531,61.1014304 L55.9682705,62.0598179 C55.9682705,62.0598179 70.846554,46.5906372 82.8080624,42.0189857 C90.9061118,38.9243173 99.4059818,37.4244473 106.951105,37.7388817 C112.015345,29.5537061 130.16619,3.82730819 158.520936,3.03563069 C159.494408,3.00546164 160.414824,3.00156047 161.308713,3.00910273 L162.176073,3.03172952 C162.759428,3.04317295 163.346424,3.06189857 163.926138,3.08842653 L164.842653,3.15292588 C165.346424,3.1869961 165.846294,3.22106632 166.289467,3.27022107 C166.527958,3.29310793 166.751625,3.31937581 166.982575,3.34590377 L168.092328,3.47464239 L168.569571,3.55422627 C168.80052,3.58829649 169.024187,3.62236671 169.221066,3.6603381 C169.702211,3.73992198 170.16801,3.83068921 170.724837,3.94824447 L171.156567,4.04291287 C171.758908,4.17919376 172.33446,4.33081925 172.842133,4.47854356 L173.080884,4.55812744 C173.56567,4.70585176 174.027828,4.86111834 174.471001,5.02782835 L174.963329,5.22106632 C175.307932,5.3573472 175.641352,5.50143043 175.929259,5.63771131 C176.111053,5.72093628 176.289207,5.80052016 176.421586,5.8686606 C176.777633,6.04655397 177.107152,6.22470741 177.444213,6.42158648 C177.542783,6.47464239 177.648635,6.5313394 177.735761,6.58439532 C178.129779,6.82678804 178.504551,7.08062419 178.872042,7.34954486 L179.209103,7.61456437 C179.440052,7.79635891 179.671261,7.98569571 179.883225,8.17893368 C180.023407,8.30013004 180.152146,8.41768531 180.254356,8.52353706 C180.455137,8.71677503 180.644473,8.9136541 180.905852,9.20156047 L181.13316,9.45149545 C181.383095,9.74694408 181.614304,10.0460338 181.848895,10.3758127 L182.038231,10.6827048 C182.185956,10.8985696 182.318596,11.1183355 182.454876,11.3607282 L182.674642,11.7888166 C182.761769,11.96671 182.852536,12.1487646 182.939922,12.353186 C183.011964,12.5159948 183.080104,12.6751625 183.13316,12.8189857 C183.212744,13.0273082 183.284785,13.2356307 183.345384,13.4249675 C183.512094,13.9362809 183.644473,14.46658 183.750585,15.0384915 L183.890767,15.4587776 L183.856697,15.720156 C184.360208,19.7477243 182.924577,23.3989597 182.386736,24.5771131" id="Shape" fill="#FFC600" fill-rule="nonzero" mask="url(#mask-2)"></path>
                </g>
                <g id="Clipped">
                    <mask id="mask-4" fill="white">
                        <use xlink:href="#path-3"></use>
                    </mask>
                    <g id="SVGID_1_"></g>
                    <path d="M142.29935,112.237971 C139.261638,107.821586 140.212224,103.435371 141.250195,101.537581 L141.43199,101.211964 L141.674382,100.924057 C142.306892,100.181795 142.856177,99.4202861 143.337061,98.6475943 C141.196879,98.3786736 135.776853,97.83329 129.659558,98.2725618 C131.00052,99.530039 132.420806,100.802861 133.818466,101.946684 C136.662939,104.272302 138.841092,101.935241 138.841092,101.935241 C138.841092,101.935241 139.636411,104.094148 136.587256,106.188817 C136.424447,108.253056 135.93186,112.029389 134.397919,113.510533 C134.397919,113.510533 132.708713,112.828609 130.113914,111.980234 C131.163069,110.419766 131.295709,109.003121 130.962289,107.794798 C130.901691,108.018205 130.844993,108.237971 130.746424,108.453836 C130.068401,109.93498 128.640572,110.836411 127.053316,110.984135 C125.837451,110.609103 124.670741,110.275943 123.572432,110.007022 C121.822367,108.704031 121.110533,106.420026 121.996619,104.473082 C122.364109,103.66632 122.962549,103.03381 123.685826,102.594278 C118.542003,102.306372 117.159688,107.578934 116.909493,108.859038 C115.758127,108.752926 114.70117,108.69987 113.750585,108.69987 C111.288687,108.643173 108.970351,108.885566 107.038752,109.6013 C107.031209,109.616385 107.023667,109.627828 107.016125,109.642913 C107.016125,109.642913 107.038752,109.654356 107.054096,109.661899 C106.989597,109.688427 106.951886,109.703511 106.951886,109.703511 L107.228349,109.749025 C108.224447,110.260338 112.56515,112.5329 114.356827,114.275423 C114.356827,114.275423 87.5396619,116.044213 106.239792,136.016905 C106.239792,136.016905 96.6416125,132.30117 100.902991,142.285566 C105.179454,152.30039 107.808062,145.630169 107.808062,145.630169 C107.808062,145.630169 110.951886,135.259298 119.031209,131.979194 C119.031209,131.979194 116.838231,131.39974 114.201821,131.145904 C114.201821,131.145904 121.53498,126.149805 133.227568,126.850715 C133.390377,124.26762 135.681925,123.097009 135.681925,123.097009 C137.041612,131.505852 146.295189,127.123277 146.295189,127.123277 C146.662679,126.922497 146.927698,126.672562 147.120936,126.39974 C147.230689,126.271001 147.317815,126.138362 147.382315,126.002081 C147.423927,125.922497 147.412744,125.824187 147.439012,125.737061 C147.457997,125.66502 147.473082,125.592978 147.484525,125.521196 C147.518596,125.339402 147.549025,125.169051 147.537581,124.979714 C147.541482,123.703251 146.83303,122.373732 146.594538,121.968531 C145.874902,119.771912 144.03407,114.760728 142.29935,112.237971" id="Shape" fill="#FFC600" fill-rule="nonzero" mask="url(#mask-4)"></path>
                </g>
                <g id="Clipped">
                    <mask id="mask-6" fill="white">
                        <use xlink:href="#path-5"></use>
                    </mask>
                    <g id="SVGID_1_"></g>
                    <path d="M176.547984,17.4382315 C176.551886,17.2868661 176.544083,17.1276983 176.536541,16.9875163 L176.525098,16.8624187 C176.513654,16.7185956 176.491027,16.5669701 176.460598,16.3625488 C176.43407,16.203381 176.396099,16.0444733 176.354486,15.8892068 L176.293888,15.69987 L176.293888,15.6962289 C176.040052,14.9274382 175.559168,14.2681404 174.941743,13.7115735 C171.775293,12.893368 167.688166,12.446554 162.362809,12.5942783 C130.364109,13.4876463 111.720936,48.2478544 111.720936,48.2478544 C91.4754226,83.1895969 54.8330299,70.4403121 54.8330299,70.4403121 C27.3227568,65.5882965 14.8041612,73.9893368 10.573472,85.4509753 C10.9180754,87.3183355 11.793238,89.1552666 12.8954486,90.8447334 C17.0052016,79.2163849 29.4970091,70.6031209 57.2725618,75.5042913 C57.2725618,75.5042913 93.9188557,88.249935 114.156827,53.3120936 C114.156827,53.3120936 132.803901,18.5521456 164.7987,17.6543563 C170.294668,17.5029909 173.688427,17.8587776 176.449675,18.6657997 C176.502731,18.3022107 176.544343,17.9271782 176.551886,17.5446034 L176.547984,17.5180754 L176.547984,17.4382315 Z" id="Shape" fill="#FFC600" fill-rule="nonzero" mask="url(#mask-6)"></path>
                </g>
                <g id="Clipped">
                    <mask id="mask-8" fill="white">
                        <use xlink:href="#path-7"></use>
                    </mask>
                    <g id="SVGID_1_"></g>
                    <path d="M162.647854,38.2514954 C162.182055,38.183355 161.670481,38.240052 161.208583,38.3537061 C160.507932,38.5204161 160.246554,38.8460338 159.708713,40.0923277 C159.553446,40.6 159.261638,41.5050715 159.015605,42.4254876 C158.848895,43.0314694 159.076203,43.5391417 159.572432,43.9102731 C160.125358,44.323277 160.742783,44.5882965 161.451235,44.5427828 C162.79974,44.4517555 164.064759,44.0845254 165.216125,43.3724317 C165.488947,43.2057217 165.738882,42.9784135 165.93212,42.7248375 C166.693368,41.7248375 166.648114,40.880104 165.788296,39.9596879 C164.935501,39.0507152 163.890247,38.4371912 162.647854,38.2514954" id="Shape" fill="#79242F" fill-rule="nonzero" mask="url(#mask-8)"></path>
                </g>
                <g id="Clipped">
                    <mask id="mask-10" fill="white">
                        <use xlink:href="#path-9"></use>
                    </mask>
                    <g id="SVGID_1_"></g>
                    <path d="M134.748244,129.19844 C131.498309,128.956047 124.907672,128.743823 121.801821,130.675683 C121.801821,130.675683 123.438231,130.997659 125.097269,131.452016 C115.245514,135.982055 110.253056,147.095449 110.370611,149.186216 C110.374512,149.277243 110.397139,149.318856 110.435111,149.326398 C111.014564,149.405982 115.487906,139.925098 122.695969,136.906372 C122.695969,136.906372 121.779454,138.288947 121.089987,139.921456 C121.089987,139.921456 126.449675,135.364889 133.491027,136.353446 C135.222107,136.595839 137.051495,137.171651 138.930299,138.23225 C138.930299,138.23225 143.324057,137.258778 143.096749,131.827048 C140.33498,132.274122 137.123017,131.948244 134.748244,129.19844" id="Shape" fill="#FFC600" fill-rule="nonzero" mask="url(#mask-10)"></path>
                </g>
                <g id="Clipped">
                    <mask id="mask-12" fill="white">
                        <use xlink:href="#path-11"></use>
                    </mask>
                    <g id="SVGID_1_"></g>
                    <path d="M130.13368,139.677503 C130.13368,139.677503 130.463199,138.957867 131.235891,138.457997 C131.235891,138.457997 120.751365,137.628609 115.763069,154.317295 C115.763069,154.317295 114.342783,153.014304 114.782055,149.881925 C114.782055,149.881925 108.252016,159.737581 95.0252276,154.10143 L106.520936,162.688166 C108.410923,161.229909 110.062419,161.695709 110.062419,161.695709 C107.475423,165.146424 117.940962,173.661118 118.190897,173.8658 C118.202341,173.873342 118.209883,173.873342 118.217425,173.880884 C119.380234,172.324057 121.902991,168.547724 121.990117,164.941743 C121.990117,164.941743 124.240052,166.649935 125.0013,169.824187 C125.701951,168.964369 126.546684,168.161248 127.452016,167.437971 L127.43303,167.441612 C127.43303,167.441612 133.451756,162.017685 131.717035,157.411704 C131.717035,157.411704 133.09961,158.119896 133.872302,159.722237 C134.853316,156.76775 134.345644,153.673342 132.345904,150.453576 L131.569311,149.196099 C131.569311,149.196099 128.152666,144.23407 133.497269,144.177373 C133.497269,144.177373 136.125878,144.351625 135.406242,145.36671 C135.406242,145.36671 138.974252,144.344083 137.788817,142.052536 C136.602861,139.757087 132.357087,139.412484 130.13368,139.677503" id="Shape" fill="#FFC600" fill-rule="nonzero" mask="url(#mask-12)"></path>
                </g>
                <g id="Clipped">
                    <mask id="mask-14" fill="white">
                        <use xlink:href="#path-13"></use>
                    </mask>
                    <g id="SVGID_1_"></g>
                    <path d="M97.2829649,143.551105 C97.0215865,143.839012 96.7526658,144.115475 96.4382315,144.361769 C93.2564369,146.929779 88.5672302,146.395839 85.9726918,143.176073 C83.3742523,139.956567 83.8590377,135.263459 87.0408322,132.695449 C87.3513654,132.445514 87.673342,132.237191 88.006762,132.043953 C86.6241873,132.271261 85.2756827,132.835631 84.1092328,133.778674 C80.4996099,136.683745 79.9539662,142.001821 82.893368,145.653316 C85.8327698,149.308453 91.1505852,149.903251 94.7604681,146.994278 C95.9308192,146.054876 96.7716515,144.857997 97.2829649,143.551105" id="Shape" fill="#FFC600" fill-rule="nonzero" mask="url(#mask-14)"></path>
                </g>
                <g id="Clipped">
                    <mask id="mask-16" fill="white">
                        <use xlink:href="#path-15"></use>
                    </mask>
                    <g id="SVGID_1_"></g>
                    <path d="M69.6912874,121.008583 C61.1953186,125.796359 60.2106632,127.629649 60.2106632,127.629649 C60.7258778,125.614564 61.9758127,123.376073 63.6725618,121.06554 C58.093368,126.243433 57.8697009,127.818986 57.8697009,127.818986 C57.3659298,129.985696 58.0213264,132.129519 60.2408322,133.417165 C63.6119636,135.371651 66.4754226,131.693888 66.4754226,131.693888 C69.8996099,128.053836 73.4335501,124.73212 76.9524057,121.713134 C68.1875163,126.102991 63.3771131,130.224187 63.3771131,130.224187 C63.8504551,127.773472 66.5209363,124.349285 69.6912874,121.008583" id="Shape" fill="#FFC600" fill-rule="nonzero" mask="url(#mask-16)"></path>
                </g>
                <g id="Clipped">
                    <mask id="mask-18" fill="white">
                        <use xlink:href="#path-17"></use>
                    </mask>
                    <g id="SVGID_1_"></g>
                    <path d="M166.545124,26.2254876 C163.905072,26.8655397 161.624967,28.2291287 159.806762,30.2707412 C158.79922,31.3994798 157.79922,32.5547464 156.969831,33.8122237 C155.753966,35.6644993 155.227568,37.76671 155.227568,39.9862159 C155.231469,40.1945384 155.26554,40.4104031 155.329779,40.6150845 C155.488947,41.1414824 155.886606,41.2475943 156.307152,40.8879064 C156.435891,40.7742523 156.560988,40.6379714 156.640572,40.4863459 C156.86788,40.0546164 157.076203,39.6114434 157.276983,39.1682705 C157.636931,38.3654096 157.973992,37.5583875 158.341222,36.7630689 C158.416905,36.6078023 158.606242,36.4221066 158.753966,36.4031209 C158.890247,36.3916775 159.121456,36.573472 159.163069,36.7175553 C159.212224,36.8691808 159.159168,37.1456437 159.041873,37.2517555 C158.011704,38.1646294 157.568531,39.4184655 157.057217,40.6189857 C156.712614,41.4257477 156.151886,41.7856957 155.314954,41.7742523 C155.2013,41.7778934 155.087646,41.7893368 154.973992,41.7742523 C154.364109,41.6946684 153.989077,42.0091027 153.769571,42.5204161 C153.390897,43.3916775 153.341482,44.2931079 153.606762,45.2059818 C153.815085,45.8951886 154.337841,46.2361508 154.992978,46.3877763 C155.379194,46.4749025 155.784655,46.489987 156.182315,46.5391417 C157.303511,46.6793238 157.909493,47.4860858 157.712614,48.5997399 C157.617945,49.1755527 157.383095,49.739922 157.583875,50.3344603 C157.780754,50.9328999 157.939922,51.5427828 158.182315,52.1146944 C158.36801,52.5503251 158.223927,52.8228869 157.943823,53.0996099 C157.781014,53.2587776 157.606762,53.3986996 157.455137,53.5654096 C157.193758,53.853316 156.939922,54.1789337 157.137061,54.5729519 C157.341482,54.9895969 157.720416,55.2736021 158.205202,55.30013 C158.360468,55.3040312 158.606762,55.1222367 158.66736,54.9630689 C158.860598,54.4972692 158.985436,53.9971391 159.144603,53.493368 C159.557347,53.716775 160.00078,53.9555267 160.386996,54.159948 C160.046034,54.6257477 159.716515,55.0689207 159.39844,55.5196359 C159.212744,55.7771131 159.296229,55.9968791 159.523537,56.1672302 C159.659818,56.2769831 159.807542,56.3755527 159.96671,56.4551365 C160.648635,56.8150845 160.947724,56.6938882 161.186476,55.9739922 C161.326658,55.5459038 161.519896,55.1256177 161.250975,54.606762 C161.709233,54.8111834 162.106892,54.9893368 162.455397,55.1446034 C162.13342,55.5612484 161.796359,55.9739922 161.493368,56.4096229 C161.273602,56.7276983 161.323017,56.9284785 161.656177,57.1253576 C161.815345,57.2163849 161.978153,57.2996099 162.148505,57.3791938 C162.216645,57.4057217 162.288687,57.4322497 162.360728,57.4587776 C163.319116,55.2314694 164.387256,52.7355007 165.553706,50.0309493 C165.53472,49.9817945 165.527178,49.9061118 165.504551,49.8717815 C165.405982,49.8907672 165.284785,49.9474642 165.140962,50.0460338 C164.682705,50.3529259 164.383355,50.746684 163.925098,51.0460338 C163.489467,51.3188557 163.277503,51.246814 163.06528,50.7810143 C162.807802,50.1937581 162.875943,49.606762 163.129779,49.0083225 C163.182835,48.9061118 163.23199,48.773472 163.319116,48.6673602 C165.951625,45.4137841 166.981795,45.5045514 167.379454,45.6827048 C167.386996,45.686606 167.39844,45.6977893 167.405982,45.7016905 C169.720156,40.2964889 172.345124,34.1378414 175.250455,27.3159948 C173.946164,26.7937581 169.783615,25.4413524 166.545124,26.2254876 M165.931339,42.7248375 C165.738101,42.9786736 165.488166,43.2059818 165.215345,43.3724317 C164.063979,44.0845254 162.7987,44.4520156 161.450195,44.5427828 C160.742003,44.5882965 160.124577,44.3230169 159.571391,43.9102731 C159.075163,43.5391417 158.847854,43.0314694 159.014564,42.4254876 C159.260858,41.5050715 159.552406,40.5997399 159.707672,40.0923277 C160.245514,38.8462939 160.506892,38.5204161 161.207542,38.3537061 C161.669701,38.240052 162.181014,38.183355 162.646814,38.2514954 C163.889207,38.4371912 164.93472,39.0507152 165.786736,39.9596879 C166.647334,40.880104 166.692848,41.7248375 165.931339,42.7248375" id="Shape" fill="#FFC600" fill-rule="nonzero" mask="url(#mask-18)"></path>
                </g>
                <g id="Clipped">
                    <mask id="mask-20" fill="white">
                        <use xlink:href="#path-19"></use>
                    </mask>
                    <g id="SVGID_1_"></g>
                    <path d="M160.128218,59.7885566 C160.359168,59.409883 160.609363,59.0538362 160.809883,58.6712614 C161.059818,58.1979194 161.022107,58.1219766 160.586476,57.8153446 C160.548505,57.7851756 160.506892,57.7472042 160.46528,57.7282185 C159.457737,57.1789337 159.094148,57.3607282 158.90091,58.3758127 C158.859298,58.6296489 158.828869,58.8907672 158.794798,59.1864759 C158.453836,59.0197659 158.007022,58.8002601 157.66606,58.6296489 C157.802341,58.493368 157.90091,58.4023407 157.991938,58.3040312 C158.287386,57.993498 158.586476,57.6905072 158.416125,57.1903771 C158.241873,56.6639792 157.893368,56.3495449 157.351886,56.243433 C157.018466,56.1752926 156.779974,56.2624187 156.704291,56.6145644 C156.617165,56.9401821 156.549025,57.269961 156.480884,57.5955787 C155.889987,57.2964889 155.295449,56.0993498 155.416645,55.2473342 C155.515215,54.5578674 155.746164,53.8912874 155.90143,53.2096229 C156.117295,52.2325098 156.412744,51.2626788 156.503771,50.2741222 C156.564369,49.5695709 156.390117,48.8348505 156.242393,48.1263979 C156.189337,47.880104 155.943043,47.6340702 155.723537,47.4710013 C155.215865,47.09987 154.875163,47.2059818 154.742523,47.8195059 C154.386476,49.3953186 154.117555,50.9823147 153.757607,52.5542263 C153.541743,53.4897269 153.261378,54.4215865 152.950845,55.3269181 C152.788036,55.8117035 152.753966,56.2512354 152.946944,56.7094928 C153.056697,56.989857 153.170351,57.2738622 153.321977,57.5313394 C153.871261,58.4556567 154.227308,59.4553966 154.439272,60.5084525 C154.458257,60.6182055 154.503771,60.7243173 154.522497,60.8340702 C154.745904,61.9477243 155.469441,62.5461638 156.530039,62.8226268 C157.473082,63.0764629 158.397399,63.3641092 159.264759,63.8150845 C159.363329,63.8530559 159.450455,63.9061118 159.545124,63.9477243 C160.037451,62.826528 160.564109,61.6070221 161.151105,60.2470741 C161.071521,60.2130039 160.984395,60.1713914 160.908713,60.1373212 C160.673602,60.0309493 160.382055,59.9022107 160.128218,59.7885566" id="Shape" fill="#FFC600" fill-rule="nonzero" mask="url(#mask-20)"></path>
                </g>
                <g id="Clipped">
                    <mask id="mask-22" fill="white">
                        <use xlink:href="#path-21"></use>
                    </mask>
                    <g id="SVGID_1_"></g>
                    <path d="M142.802341,70.2530559 C140.253056,70.1849155 137.681404,69.9651495 135.117035,69.7719116 C133.992198,69.6847854 132.878544,69.2985696 131.768791,68.9310793 C130.678023,68.5713914 129.56801,68.2644993 128.481144,67.893368 C128.208322,67.7986996 127.935761,67.6964889 127.670481,67.5752926 C127.662939,67.5713914 127.651495,67.5677503 127.640052,67.5677503 C127.397659,67.4579974 127.16671,67.3404421 126.935501,67.2156047 C126.768791,67.1245774 126.594538,67.0452536 126.43173,66.9693108 C126.117295,66.8330299 125.818205,66.7383615 125.526398,66.669961 C125.477243,66.6585176 125.427828,66.643433 125.378674,66.6358908 C125.094668,66.5828349 124.814304,66.5602081 124.545384,66.5752926 C124.496229,66.5752926 124.454616,66.5828349 124.412744,66.586736 C124.143823,66.6093628 123.878804,66.6663199 123.63251,66.7609883 C123.59844,66.7760728 123.571912,66.7950585 123.541482,66.806502 C123.284005,66.9162549 123.037711,67.0603381 122.806762,67.253316 C122.560468,67.4577373 122.424187,67.7911573 122.382575,68.1055917 C122.306892,68.5979194 122.321977,69.1206762 122.340962,69.6319896 C122.356047,69.9690507 122.575813,70.2455137 122.954486,70.4879064 C123.439272,70.7908973 123.503771,71.2039012 123.443173,71.5862159 C123.382575,71.9953186 123.23485,72.3739922 123.159168,72.7755527 C122.93186,74.1011704 123.340962,74.7602081 124.893888,75.5784135 C125.246034,75.7677503 125.613524,75.9420026 125.973472,76.120156 C125.973472,76.1162549 125.973472,76.1126138 125.977373,76.1087126 C126.018986,76.1276983 126.053056,76.1427828 126.094668,76.1578674 C126.117295,76.1693108 126.136281,76.1804941 126.162809,76.1919376 C126.378674,76.3094928 126.586996,76.3776333 126.795319,76.453316 C126.908973,76.4912874 127.018726,76.536541 127.128739,76.5669701 C127.295449,76.6049415 127.454356,76.6275683 127.613524,76.6426528 C127.715735,76.6501951 127.817945,76.6691808 127.916515,76.6728218 C128.090767,76.676723 128.261118,76.6501951 128.43173,76.6273082 C128.514954,76.6197659 128.590897,76.6197659 128.674122,76.6044213 C128.920416,76.5552666 129.16645,76.4871261 129.412744,76.3921977 C130.310533,76.0551365 131.249675,75.7711313 132.192978,75.5019506 C133.389857,75.1573472 134.730819,75.153446 136.029909,75.0816645 C140.730559,74.8052016 145.43485,74.5474642 150.146684,74.3089727 C151.676983,74.23329 153.226008,74.2218466 154.771391,74.1953186 C155.40026,73.0626788 156.051756,71.7940182 156.737321,70.2977893 C156.737321,70.2977893 156.741222,70.2977893 156.741222,70.2938882 C152.112614,70.3513654 147.476463,70.3817945 142.802341,70.2530559" id="Shape" fill="#FFC600" fill-rule="nonzero" mask="url(#mask-22)"></path>
                </g>
                <g id="Clipped">
                    <mask id="mask-24" fill="white">
                        <use xlink:href="#path-23"></use>
                    </mask>
                    <g id="SVGID_1_"></g>
                    <path d="M131.450195,53.5820546 C132.385696,54.0782835 133.33264,54.5440832 134.294668,54.9760728 C135.83251,55.6730819 137.347464,56.426788 138.669441,57.4192458 C139.582315,58.0972692 140.385176,58.9003901 141.154226,59.6996099 C144.172952,62.843433 147.157867,66.0062419 150.146424,69.1690507 C150.161508,69.1841352 150.176593,69.1880364 150.191938,69.1992198 C151.930559,69.1992198 153.66528,69.1916775 155.392458,69.1726918 C154.915215,68.6348505 154.627308,68.3243173 154.097009,67.7105332 C153.574252,67.1159948 153.078023,66.5097529 152.559168,65.9152146 C151.619766,64.8356307 150.684265,63.7485046 149.718336,62.6728218 C147.756307,60.5061118 145.816905,58.3206762 144.172952,55.9986996 C142.775293,54.0327698 141.684525,52.006502 140.892848,49.9042913 C140.854876,49.7945384 140.843693,49.6694408 140.854876,49.5596879 C140.907932,49.0824447 140.748765,48.6241873 140.320936,48.2 C139.707412,47.5864759 139.131599,46.9310793 138.442133,46.3742523 C137.161769,45.3401821 136.025488,45.3136541 135.03329,46.1924577 C134.635631,46.5409623 134.275683,46.9310793 133.805982,47.1924577 C133.404421,47.4122237 132.862939,47.4954486 132.370351,47.6054616 C131.927178,47.6964889 131.446034,47.7115735 131.006762,47.809883 C130.476463,47.9235371 129.696229,48.5256177 129.821326,49.2150845 C129.99922,50.1924577 130.139402,51.1659298 130.325098,52.1391417 C130.435111,52.7183355 130.7987,53.2374512 131.450195,53.5820546" id="Shape" fill="#FFC600" fill-rule="nonzero" mask="url(#mask-24)"></path>
                </g>
                <g id="Clipped">
                    <mask id="mask-26" fill="white">
                        <use xlink:href="#path-25"></use>
                    </mask>
                    <g id="SVGID_1_"></g>
                    <path d="M183.892848,15.4569571 L183.752666,15.0403121 C183.642913,14.4644993 183.510273,13.9381014 183.343563,13.4228869 C183.282965,13.2371912 183.210923,13.0288687 183.135241,12.8205462 C183.082185,12.6728218 183.010143,12.5175553 182.938362,12.3547464 C182.851235,12.1503251 182.764109,11.9682705 182.673342,11.7903771 L182.453576,11.3622887 C182.317295,11.119896 182.184655,10.90013 182.036931,10.6806242 L181.847594,10.3776333 C181.612744,10.0442133 181.381795,9.74876463 181.131599,9.45331599 L180.908192,9.20338101 C180.643173,8.91547464 180.457477,8.71859558 180.256697,8.52535761 C180.154486,8.41924577 180.021847,8.29804941 179.881664,8.17685306 C179.669441,7.98751625 179.438492,7.79817945 179.207542,7.61248375 L178.870481,7.35110533 C178.502991,7.08218466 178.13186,6.8283485 177.737841,6.58595579 C177.646814,6.53289987 177.544603,6.47620286 177.442393,6.41924577 C177.108973,6.2260078 176.775813,6.04811443 176.423407,5.86996099 C176.290767,5.80182055 176.108973,5.7183355 175.927178,5.6390117 C175.639272,5.50273082 175.309753,5.35864759 174.961248,5.22236671 L174.472562,5.02912874 C174.029389,4.86241873 173.563589,4.70351105 173.078544,4.55578674 L172.840052,4.48010403 C172.33238,4.32873862 171.756827,4.1810143 171.154486,4.04083225 L170.726398,3.94980494 C170.169571,3.83250975 169.69987,3.74148244 169.218986,3.65825748 C169.025748,3.62418726 168.79844,3.59011704 168.571391,3.55604681 L168.094148,3.47646294 L166.980494,3.34772432 C166.749545,3.32119636 166.525878,3.2946684 166.287386,3.27204161 C165.844213,3.22288687 165.344343,3.18881664 164.844213,3.15474642 L163.923797,3.09024707 C163.344343,3.06371912 162.757087,3.04473342 162.173992,3.02964889 L161.310533,3.0106632 C160.412744,3.00312094 159.492328,3.00702211 158.522757,3.03328999 C130.163849,3.82860858 112.016905,29.5550065 106.952666,37.7362809 C99.4036411,37.4257477 90.9040312,38.9256177 82.8059818,42.0202861 C70.8442133,46.5921977 55.9661899,62.0611183 55.9661899,62.0611183 L52.1784135,61.0990897 L51.9661899,61.0345904 C51.9661899,61.0345904 49.2655397,60.5459038 48.1594278,60.3869961 L47.7768531,60.3263979 L46.9396619,60.2202861 C46.5495449,60.1672302 46.1328999,60.1105332 45.7237971,60.0650195 C45.2881664,60.0119636 44.8525358,59.9664499 44.4208062,59.9211964 L40.8452536,59.6182055 C40.4286086,59.5953186 40.0195059,59.576593 39.6179454,59.5615085 L34.1521456,59.519896 C33.826528,59.5313394 33.5157347,59.550065 33.2091027,59.5654096 L32.0689207,59.629909 C31.7204161,59.6564369 31.383355,59.686606 31.0423927,59.7209363 L30.0728218,59.8080624 C29.5576073,59.8647594 29.0462939,59.936801 28.5464239,60.0088427 L27.6639792,60.1414824 C27.2208062,60.2135241 26.770091,60.2853056 26.3305592,60.3687906 L25.3305592,60.5810143 C25.0691808,60.6377113 24.8041612,60.6907672 24.5578674,60.7552666 L22.0881664,61.43329 C21.7661899,61.5318596 21.4897269,61.6150845 21.2283485,61.7061118 L20.4860858,61.9713914 C20.1755527,62.0811443 19.9141743,62.1758127 19.6678804,62.2743823 C19.4215865,62.376593 19.1791938,62.4712614 18.936801,62.5773732 C18.5997399,62.7214564 18.3875163,62.8083225 18.186736,62.8993498 C17.9482445,63.0091027 17.7094928,63.1227568 17.4746424,63.2403121 C17.2663199,63.3388817 17.0239272,63.4561769 16.7851756,63.5773732 L16.1185956,63.9373212 C15.8837451,64.0660598 15.6488947,64.1947984 15.4254876,64.3274382 C15.2210663,64.4449935 15.0088427,64.5773732 14.8005202,64.7061118 C14.5882965,64.8387516 14.3612484,64.9786736 14.1414824,65.1302991 L11.2970091,67.3006502 C11.1417425,67.4369311 10.9825748,67.5846554 10.8197659,67.7323797 L9.31235371,69.2512354 C9.12301691,69.4595579 8.96775033,69.6413524 8.81248375,69.8270481 L7.21404421,71.9102731 L7.10429129,72.0694408 L6.51339402,72.9859558 L6.35058518,73.2512354 L6.12717815,73.629909 C6.00208062,73.8457737 5.88478544,74.0694408 5.76723017,74.2889467 L5.50221066,74.7888166 C5.38491547,75.0197659 5.27490247,75.2470741 5.16879064,75.4743823 L4.93784135,75.9706112 C4.84317295,76.1828349 4.75604681,76.3908973 4.66892068,76.6031209 L4.57815345,76.8189857 L4.4189857,77.2052016 C4.33576073,77.4249675 4.24473342,77.6710013 4.16150845,77.9136541 L4.08582575,78.1105332 L3.98725618,78.3908973 C3.83953186,78.8301691 3.71443433,79.2356307 3.58959688,79.6483745 C3.45695709,80.1141743 3.34720416,80.5802341 3.25617685,81.0460338 C3.22964889,81.1862159 3.21456437,81.3110533 3.19921977,81.4361508 L3.17269181,81.6218466 C3.12717815,81.8983095 3.08556567,82.1786736 3.06293888,82.4551365 L3.0213264,83.189857 C3.01378414,83.413264 3.0023407,83.6405722 3.0023407,83.8717815 C3.0023407,84.0005202 3.00988296,84.1521456 3.01742523,84.3074122 L3.03250975,84.6408322 C3.03641092,84.8452536 3.05149545,85.0538362 3.06657997,85.2582575 C3.0816645,85.3945384 3.1006502,85.5651495 3.12327698,85.7394018 L3.16124837,86.0273082 C3.18387516,86.2205462 3.21040312,86.4174252 3.24837451,86.6182055 C3.2710013,86.7659298 3.30897269,86.9401821 3.34304291,87.1144343 L3.38855657,87.3037711 C3.45305592,87.6106632 3.48322497,87.7695709 3.52483745,87.9248375 C3.57789337,88.1370611 3.64213264,88.3490247 3.70273082,88.5648895 L3.77841352,88.8187256 L3.90351105,89.2239272 C3.98673602,89.4777633 4.07386216,89.7126138 4.1609883,89.9511053 L4.22912874,90.1328999 L4.38075423,90.526658 C4.4793238,90.776593 4.60052016,91.0418726 4.71781534,91.3107932 L4.91469441,91.7503251 C5.05487646,92.0418726 5.19869961,92.3222367 5.3503251,92.6026008 L5.5396619,92.9737321 C5.69882965,93.2652796 5.86918075,93.5607282 6.04343303,93.8525358 L6.21014304,94.136541 C6.41456437,94.469961 6.60416125,94.7690507 6.8046814,95.0684005 L6.99791938,95.359948 C7.16072822,95.609883 7.38803641,95.9318596 7.62288687,96.249935 L7.73263979,96.4091027 C7.99401821,96.7576073 8.24005202,97.083225 8.49024707,97.4015605 C8.85383615,97.8561769 9.13029909,98.1893368 9.40676203,98.5152146 C9.67958388,98.8371912 9.92197659,99.1136541 10.1604681,99.3786736 L10.6603381,99.9240572 C16.1336801,105.814044 23.2736021,110.279844 27.7126138,112.306112 C34.9092328,115.594018 47.7118336,123.540442 52.4085826,126.502471 C52.0751625,127.638752 51.8481144,128.809363 51.7305592,130.002341 C51.7230169,130.017425 51.7191157,130.036411 51.7079324,130.051495 C51.336801,130.312874 36.5115735,135.316515 36.5152146,144.281925 C36.5191157,150.039272 40.0756827,154.618726 45.9768531,155.444473 C47.0145644,155.592198 48.5713914,155.671782 50.0712614,155.228609 L57.563329,152.982575 C79.1193758,164.228349 108.197659,187.856177 108.553706,188.144083 L114.049675,192.63251 L112.992978,185.617685 C112.655917,183.394278 112.686086,181.280624 112.936281,179.288427 C115.636931,181.413264 117.697529,182.102731 117.852796,182.151886 L119.602601,182.704811 L120.780494,181.292068 C122.295709,179.470221 123.43199,177.905852 124.215865,176.754226 L125.889987,177.970091 L127.56801,176.617945 C130.787516,173.902211 132.73446,171.936281 132.814044,171.860598 C140.912094,163.417685 141.756827,155.611183 139.506892,150.130299 C140.726658,149.520416 141.696229,148.694668 142.412224,147.66814 C143.241612,146.475163 143.681144,145.047074 143.718856,143.471521 C144.646814,142.986736 145.491547,142.357867 146.245254,141.596619 C148.461118,139.354226 149.585956,136.30143 149.578414,132.521196 C149.843433,132.362029 150.036671,132.240832 150.120156,132.191678 L150.282965,132.081925 C155.275163,128.449415 154.146424,122.892848 152.745124,120.215085 C152.286866,118.817425 150.078544,112.279844 147.559688,108.616905 C146.290767,106.776073 146.612744,105.287386 146.802081,104.749545 C152.544343,97.7877763 153.021586,89.8106632 152.726138,85.386736 C155.83199,83.1217165 158.847074,78.826528 161.710533,72.5841352 C165.089207,65.2397919 181.478804,26.646554 182.175553,25.010143 L182.379974,24.6049415 L182.383875,24.5784135 C182.921717,23.396619 184.360988,19.7453836 183.853576,15.7188557 L183.892848,15.4569571 Z M49.413264,146.023927 C43.883225,147.288947 48.2579974,149.103251 48.2579974,149.103251 C47.996619,149.182835 47.4814044,149.209363 46.8639792,149.122237 C45.1594278,148.883745 42.716515,147.796619 42.8944083,144.648895 C43.0611183,141.679324 48.3146944,138.914434 51.5115735,137.50143 C51.50013,138.156827 51.6707412,138.823407 51.9888166,139.478544 C50.0949285,140.247334 46.4322497,141.89883 46.0041612,143.43277 C46.0041612,143.43277 50.0192458,141.448114 53.3068921,141.455657 C54.0304291,142.262419 54.9620286,142.974512 56.16671,143.144863 C56.3068921,143.163849 56.4395319,143.152406 56.5758127,143.156307 C55.3524057,144.360988 52.9282185,145.217165 49.413264,146.023927 Z M60.2764629,139.012744 C58.6894668,140.823147 57.4660598,141.482185 56.4205462,141.33446 C55.4356307,141.198179 54.6137841,140.349805 53.8031209,139.069441 C52.1289987,136.43329 55.1287386,135.020286 55.973472,135.122497 C55.9810143,135.122497 55.9924577,135.126398 55.9960988,135.126398 C56.7120936,135.224967 58.49987,136.114954 60.1589077,136.345904 C60.5339402,136.39896 60.9050715,136.417945 61.2535761,136.383875 C61.3747724,136.372432 61.4808843,136.376333 61.5641092,136.387516 C62.8028609,136.562029 60.2764629,139.012744 60.2764629,139.012744 Z M66.4730819,131.691027 C66.4730819,131.691027 63.6096229,135.368791 60.2384915,133.414564 C58.0189857,132.130559 57.3635891,129.986736 57.8712614,127.820026 C57.8712614,127.820026 58.0946684,126.240572 63.6702211,121.062679 C61.9771131,123.376853 60.7271782,125.615605 60.2119636,127.630689 C60.2119636,127.630689 61.1929779,125.797399 69.6925878,121.009623 C66.5222367,124.350325 63.8481144,127.774512 63.3784135,130.221326 C63.3784135,130.221326 68.1888166,126.104031 76.9498049,121.714174 C73.4351105,124.7329 69.9011704,128.054876 66.4730819,131.691027 Z M82.8931079,145.656437 C79.9537061,142.0013 80.4993498,136.683225 84.1089727,133.778153 C85.2756827,132.835111 86.6239272,132.270741 88.006502,132.043433 C87.6730819,132.236671 87.3513654,132.444993 87.0405722,132.694928 C83.8587776,135.262939 83.3739922,139.956047 85.9724317,143.175553 C88.5708713,146.395059 93.2561769,146.929259 96.4379714,144.361248 C96.7524057,144.114954 97.0213264,143.838492 97.2827048,143.550585 C96.7713914,144.857477 95.9305592,146.054356 94.759948,146.993498 C91.1503251,149.902471 85.8361508,149.307932 82.8931079,145.656437 Z M107.486866,181.317815 C103.505852,178.098309 98.1651495,174.261378 92.5214564,170.386476 L93.2031209,164.803381 C101.649675,170.659298 107.577633,175.329519 107.577633,175.329519 C107.331339,176.662939 107.486866,181.317815 107.486866,181.317815 Z M135.405982,145.364889 C136.125618,144.353446 133.497009,144.175553 133.497009,144.175553 C128.152406,144.23225 131.569051,149.198179 131.569051,149.198179 L132.345644,150.452016 C134.345644,153.671521 134.853056,156.769831 133.872042,159.720676 C133.09935,158.122237 131.716775,157.414044 131.716775,157.414044 C133.451495,162.016125 127.43277,167.443953 127.43277,167.443953 L127.451756,167.440052 C126.546424,168.163589 125.701951,168.96645 125.00104,169.826268 C124.239792,166.648375 121.989857,164.940182 121.989857,164.940182 C121.902731,168.546164 119.380234,172.326138 118.217425,173.879324 C118.209883,173.871782 118.202341,173.871782 118.190897,173.864239 C117.940962,173.663459 107.475423,165.148765 110.062419,161.694148 C110.062419,161.694148 108.410923,161.228349 106.520936,162.686606 L95.0213264,154.09987 C108.251756,159.736021 114.781795,149.884005 114.781795,149.884005 C114.342523,153.016385 115.762809,154.319376 115.762809,154.319376 C120.751365,137.626788 131.235631,138.460078 131.235631,138.460078 C130.462939,138.959948 130.13342,139.675943 130.13342,139.675943 C132.356827,139.410663 136.602861,139.759168 137.788557,142.050975 C138.974252,144.342003 135.405982,145.364889 135.405982,145.364889 Z M138.928739,138.23251 C137.049935,137.171912 135.220546,136.596359 133.489467,136.353706 C126.448114,135.36515 121.088427,139.918075 121.088427,139.918075 C121.777893,138.285566 122.694408,136.906892 122.694408,136.906892 C115.486346,139.925618 111.013004,149.406242 110.43355,149.323017 C110.395579,149.319116 110.376853,149.277503 110.372952,149.186736 C110.251756,147.095969 115.247854,135.982835 125.095709,131.452536 C123.436671,130.997919 121.80052,130.675943 121.80052,130.675943 C124.906372,128.744343 131.497009,128.956307 134.746944,129.1987 C137.121717,131.948505 140.337581,132.274382 143.095189,131.827308 C143.322497,137.255137 138.928739,138.23251 138.928739,138.23251 Z M147.538101,124.979194 C147.545644,125.168531 147.519116,125.342783 147.485046,125.520936 C147.473602,125.592978 147.458518,125.668661 147.439532,125.736801 C147.413004,125.823927 147.424447,125.922497 147.382835,126.002081 C147.318336,126.138362 147.231209,126.271001 147.121456,126.39974 C146.928218,126.672302 146.659298,126.922497 146.295709,127.123277 C146.295709,127.123277 137.042393,131.505592 135.682445,123.097009 C135.682445,123.097009 133.390897,124.26736 133.224187,126.850715 C121.535241,126.153706 114.202081,131.145904 114.202081,131.145904 C116.838231,131.39974 119.031469,131.979194 119.031469,131.979194 C110.948505,135.259298 107.808322,145.630169 107.808322,145.630169 C107.808322,145.630169 105.179714,152.30039 100.903251,142.285566 C96.6421326,132.30117 106.240052,136.020546 106.240052,136.020546 C87.539922,116.043953 114.353446,114.275163 114.353446,114.275163 C112.56567,112.536541 108.224967,110.260078 107.228609,109.748765 L106.948244,109.703251 C106.948244,109.703251 106.989857,109.688166 107.054356,109.661638 C107.035371,109.654096 107.016385,109.642653 107.016385,109.642653 C107.023927,109.627568 107.031469,109.616125 107.039012,109.60104 C108.970871,108.885046 111.288947,108.639012 113.750845,108.69961 C114.701691,108.69961 115.758388,108.752666 116.909753,108.862419 C117.159688,107.578414 118.542263,102.305852 123.686086,102.593758 C122.962549,103.03303 122.364109,103.6658 121.996619,104.472562 C121.110273,106.419506 121.822367,108.703511 123.572432,110.006502 C124.671001,110.275423 125.837451,110.608843 127.053316,110.983615 C128.640312,110.835891 130.068401,109.93446 130.746424,108.453316 C130.844993,108.237451 130.901691,108.017685 130.962289,107.794278 C131.295709,109.002601 131.159168,110.422887 130.113914,111.979714 C132.708453,112.828088 134.397919,113.510013 134.397919,113.510013 C135.93186,112.028869 136.424447,108.252536 136.587256,106.188296 C139.636411,104.093628 138.837191,101.938362 138.837191,101.938362 C138.837191,101.938362 136.662939,104.271521 133.818466,101.945904 C132.420806,100.802081 131.00052,99.5331599 129.659558,98.2717815 C135.776853,97.8322497 141.193238,98.3778934 143.337061,98.646814 C142.855917,99.4195059 142.306892,100.180754 141.674382,100.923277 L141.43199,101.211183 L141.250195,101.537061 C140.212484,103.43459 139.261638,107.820806 142.29935,112.237451 C144.03407,114.760208 145.874902,119.771131 146.594538,121.96801 C146.83381,122.373212 147.542003,123.702731 147.538101,124.979194 Z M146.352666,91.4501951 C146.246554,92.2002601 146.09883,92.7947984 145.913394,93.283485 L145.924837,93.283485 C145.924837,93.283485 145.227828,95.3326398 144.731599,95.6395319 C144.731599,95.6395319 139.129519,94.503251 128.205722,95.36671 C125.114954,95.726658 120.808322,96.3552666 115.490247,97.8249675 C114.054616,98.2642393 106.979194,100.491547 99.9339402,103.908192 C103.653576,100.548505 106.149545,98.9084525 106.149545,98.9084525 C103.672302,98.6775033 99.6384915,100.291027 95.5513654,102.411964 C102.505592,95.5789337 104.543563,95.143303 104.543563,95.143303 C100.73316,95.0221066 95.5172952,97.0673602 90.2941482,99.809883 C94.8130039,96.4842653 100.846814,92.8330299 108.346424,89.9126138 C118.880104,85.2876463 131.978153,81.83329 146.776853,82.8296489 C146.776853,82.8293888 146.992718,86.9843953 146.352666,91.4501951 Z M156.738622,70.2996099 C156.053056,71.7958388 155.397659,73.0647594 154.769051,74.1971391 C153.223667,74.2197659 151.674382,74.2312094 150.144343,74.3107932 C145.436151,74.5456437 140.727958,74.8031209 136.031209,75.079844 C134.73212,75.1555267 133.387256,75.1594278 132.194278,75.50013 C131.251235,75.7729519 130.311834,76.0530559 129.414044,76.3940182 C129.16775,76.4850455 128.921717,76.556827 128.675423,76.6062419 C128.592198,76.6213264 128.512614,76.6213264 128.429129,76.6288687 C128.262419,76.6514954 128.092068,76.6743823 127.913914,76.6743823 C127.815345,76.6707412 127.717035,76.6517555 127.610923,76.6403121 C127.451756,76.6252276 127.296489,76.6062419 127.129779,76.5646294 C127.020026,76.5381014 126.910013,76.4925878 126.796359,76.4548765 C126.588036,76.3791938 126.379714,76.3110533 126.163849,76.193498 C126.137321,76.1820546 126.118336,76.1708713 126.095709,76.1594278 C126.054096,76.1404421 126.020026,76.1292588 125.978414,76.1063719 C125.974512,76.1139142 125.974512,76.1178153 125.970871,76.1214564 C125.610923,75.9396619 125.247334,75.7693108 124.891287,75.5797139 C123.342003,74.7615085 122.93316,74.0988296 123.160208,72.7729519 C123.235891,72.3752926 123.379974,71.9963589 123.444213,71.5872562 C123.504811,71.2010403 123.436671,70.7919376 122.955527,70.4889467 C122.576853,70.246554 122.357087,69.970091 122.342003,69.6330299 C122.323017,69.1217165 122.307932,68.5989597 122.379974,68.1027308 C122.425488,67.7921977 122.561769,67.4551365 122.808062,67.2543563 C123.039012,67.0611183 123.285306,66.913394 123.539142,66.8036411 C123.573212,66.7921977 123.59974,66.773472 123.63381,66.7620286 C123.880104,66.6673602 124.141222,66.6104031 124.410403,66.5877763 C124.455917,66.5802341 124.497529,66.5763329 124.543043,66.5726918 C124.811964,66.5576073 125.095969,66.5802341 125.380234,66.6371912 C125.429389,66.6447334 125.474902,66.6561769 125.527958,66.6712614 C125.819506,66.7357607 126.118856,66.8340702 126.43329,66.9703511 C126.596099,67.0423927 126.770351,67.1219766 126.937061,67.216645 C127.16801,67.3417425 127.39922,67.4553966 127.641612,67.5651495 C127.653056,67.5690507 127.660598,67.5726918 127.671782,67.576593 C127.936801,67.6938882 128.209623,67.8 128.478544,67.8910273 C129.569311,68.2660598 130.679324,68.5690507 131.770091,68.9326398 C132.879844,69.30013 133.989597,69.6863459 135.118336,69.773472 C137.682705,69.9628088 140.254616,70.1825748 142.803641,70.2546164 C147.477763,70.3794538 152.110013,70.353186 156.738622,70.2925878 C156.738622,70.2957087 156.738622,70.2957087 156.738622,70.2996099 Z M131.008583,47.8080624 C131.444213,47.713394 131.928999,47.6944083 132.36827,47.6036411 C132.864499,47.4975293 133.402341,47.4143043 133.803901,47.1906372 C134.277243,46.9292588 134.637191,46.5391417 135.031209,46.1906372 C136.027308,45.3118336 137.159948,45.3422627 138.443953,46.3763329 C139.129519,46.9331599 139.705332,47.5846554 140.318856,48.1981795 C140.746944,48.6223667 140.909753,49.0806242 140.856697,49.5578674 C140.841612,49.6676203 140.856697,49.7927178 140.894668,49.9024707 C141.686346,52.0046814 142.777113,54.0312094 144.171131,55.9968791 C145.818726,58.3224967 147.758127,60.5042913 149.716255,62.6746424 C150.685826,63.7503251 151.617685,64.8335501 152.557087,65.9170351 C153.075943,66.5115735 153.572172,67.1178153 154.09883,67.7123537 C154.629129,68.3222367 154.917035,68.636671 155.394278,69.1745124 C153.6671,69.1895969 151.93238,69.2010403 150.193758,69.2010403 C150.178674,69.1895969 150.159688,69.1820546 150.148244,69.1669701 C147.159688,66.0041612 144.175033,62.8413524 141.152406,59.6975293 C140.383615,58.9019506 139.580494,58.0990897 138.66762,57.4174252 C137.345644,56.4288687 135.83433,55.6712614 134.292848,54.9781534 C133.330819,54.5425228 132.387516,54.076723 131.452016,53.5804941 C130.796879,53.2395319 130.43303,52.7206762 130.327178,52.1373212 C130.141482,51.1638492 129.997659,50.1942783 129.823407,49.213264 C129.698049,48.5276983 130.474382,47.9253576 131.008583,47.8080624 Z M159.545384,63.9474642 C159.450715,63.9058518 159.363589,63.8527958 159.26502,63.8148244 C158.397659,63.3641092 157.473342,63.0762029 156.530299,62.8223667 C155.469701,62.5459038 154.746164,61.9474642 154.522757,60.829909 C154.503771,60.7237971 154.458257,60.6176853 154.439532,60.5079324 C154.227308,59.4548765 153.871261,58.4548765 153.322237,57.5308192 C153.170611,57.273342 153.057217,56.9893368 152.947204,56.7089727 C152.753966,56.2507152 152.788036,55.8111834 152.951105,55.3263979 C153.261638,54.4210663 153.542003,53.4894668 153.757867,52.5537061 C154.117815,50.9817945 154.386736,49.3947984 154.742783,47.8189857 C154.875423,47.2054616 155.216125,47.0993498 155.723797,47.4704811 C155.943563,47.63329 156.189597,47.8795839 156.242653,48.1256177 C156.390377,48.8301691 156.564629,49.5687906 156.504031,50.273342 C156.413264,51.2618986 156.117815,52.2317295 155.901691,53.2049415 C155.746424,53.8868661 155.515475,54.5570871 155.416905,55.246554 C155.295709,56.0949285 155.890247,57.2957087 156.481144,57.5947984 C156.549285,57.2691808 156.617425,56.9396619 156.704551,56.6137841 C156.780234,56.2616385 157.018986,56.1742523 157.352146,56.2426528 C157.893888,56.3487646 158.242133,56.663199 158.416385,57.1895969 C158.586736,57.6858257 158.287646,57.9927178 157.992198,58.303251 C157.90117,58.4018205 157.802861,58.4925878 157.66632,58.6288687 C158.007282,58.7992198 158.454096,59.0189857 158.795059,59.1856957 C158.829129,58.8902471 158.859558,58.6288687 158.90117,58.3750325 C159.094408,57.359948 159.457997,57.1781534 160.46554,57.7274382 C160.507152,57.7464239 160.545124,57.7841352 160.586736,57.8145644 C161.022367,58.1214564 161.060078,58.1971391 160.806502,58.6704811 C160.609623,59.0530559 160.359688,59.4091027 160.128479,59.7877763 C160.382315,59.9014304 160.670221,60.0301691 160.908713,60.139922 C160.984395,60.170091 161.071521,60.2119636 161.151105,60.2460338 C160.564109,61.606762 160.037711,62.8262679 159.545384,63.9474642 Z M167.404941,45.7019506 C167.397399,45.6983095 167.385956,45.6868661 167.378414,45.6829649 C166.980754,45.5050715 165.950325,45.4140442 163.318075,48.6676203 C163.230949,48.7737321 163.181795,48.9063719 163.128739,49.0085826 C162.871261,49.6070221 162.806762,50.1942783 163.064239,50.7812744 C163.276463,51.2470741 163.488427,51.3191157 163.924057,51.046554 C164.382315,50.7472042 164.681664,50.353446 165.139922,50.046554 C165.283745,49.9479844 165.404941,49.8912874 165.503511,49.8723017 C165.526138,49.9063719 165.53394,49.9820546 165.552666,50.0314694 C164.385956,52.7360208 163.317815,55.2319896 162.355787,57.4592978 C162.287646,57.4327698 162.215605,57.4062419 162.147464,57.3760728 C161.977113,57.3003901 161.814044,57.2169051 161.655137,57.1261378 C161.321717,56.9292588 161.272562,56.7284785 161.492328,56.4104031 C161.795319,55.9747724 162.13238,55.5620286 162.454356,55.1453836 C162.105852,54.990117 161.708192,54.8119636 161.249935,54.6075423 C161.518856,55.1224967 161.325618,55.5469441 161.185436,55.9711313 C160.946944,56.6946684 160.647594,56.8119636 159.96567,56.4559168 C159.806502,56.3763329 159.658778,56.2780234 159.522497,56.1680104 C159.295189,55.9937581 159.211964,55.7778934 159.397399,55.5204161 C159.715475,55.0697009 160.044993,54.626528 160.385956,54.1604681 C159.99974,53.9560468 159.556307,53.7172952 159.143563,53.4938882 C158.984395,53.9937581 158.859558,54.4938882 158.66632,54.9635891 C158.605722,55.1227568 158.359428,55.3045514 158.204161,55.3006502 C157.719376,55.2741222 157.340442,54.990117 157.136021,54.573472 C156.939142,54.1794538 157.192718,53.8538362 157.454096,53.5659298 C157.605722,53.3992198 157.779974,53.2553966 157.942783,53.10013 C158.223147,52.8236671 158.36697,52.5472042 158.181274,52.1152146 C157.938882,51.543303 157.779714,50.93342 157.582835,50.3349805 C157.382055,49.7404421 157.616905,49.1758127 157.711573,48.6002601 C157.908453,47.486606 157.302471,46.679844 156.181274,46.5396619 C155.783615,46.4905072 155.378153,46.4751625 154.991938,46.3880364 C154.336541,46.236671 153.810143,45.8957087 153.605722,45.2026008 C153.340702,44.2936281 153.389857,43.3919376 153.768531,42.5209363 C153.988296,42.0096229 154.363329,41.6951886 154.972952,41.7747724 C155.086606,41.789857 155.20026,41.7784135 155.313914,41.7747724 C156.151105,41.7862159 156.707672,41.4262679 157.056177,40.6195059 C157.56749,39.4187256 158.007022,38.1612484 159.040832,37.2522757 C159.158127,37.1461638 159.211183,36.8697009 159.162029,36.7144343 C159.120416,36.5742523 158.889207,36.3924577 158.752926,36.4039012 C158.605202,36.4228869 158.419506,36.6083225 158.340182,36.7635891 C157.972692,37.5591678 157.635631,38.3659298 157.275943,39.1687906 C157.075163,39.6119636 156.86684,40.0551365 156.639532,40.4868661 C156.559948,40.6384915 156.435111,40.7747724 156.306112,40.8884265 C155.885566,41.2483745 155.487906,41.1422627 155.328739,40.6158648 C155.264239,40.4114434 155.230169,40.1953186 155.226528,39.9869961 C155.226528,37.7674902 155.752926,35.6652796 156.968791,33.8130039 C157.79844,32.5555267 158.798179,31.4002601 159.805722,30.2715215 C161.623927,28.229909 163.904031,26.8663199 166.544083,26.2223667 C169.782575,25.4421326 173.945384,26.7942783 175.248375,27.3170351 C172.344083,34.1381014 169.719116,40.2970091 167.404941,45.7019506 Z M176.449935,18.6652796 C173.688687,17.8585176 170.294928,17.5024707 164.79896,17.6538362 C132.803901,18.5516255 114.157087,53.3154746 114.157087,53.3154746 C93.9191157,88.2535761 57.2728218,75.5040312 57.2728218,75.5040312 C29.4936281,70.6026008 17.0054616,79.2158648 12.8957087,90.8442133 C11.793498,89.1550065 10.9185956,87.3178153 10.5737321,85.4504551 C14.8046814,73.9927178 27.3230169,65.5875163 54.8296489,70.4397919 C54.8296489,70.4397919 91.4759428,83.1893368 111.721456,48.2475943 C111.721456,48.2475943 130.364629,13.4876463 162.363329,12.5937581 C167.688947,12.4460338 171.775813,12.8931079 174.942263,13.7110533 C175.559688,14.2678804 176.040832,14.9269181 176.294408,15.6957087 L176.294408,15.6996099 L176.355007,15.8889467 C176.396619,16.0481144 176.43459,16.203381 176.461118,16.3622887 C176.491287,16.56671 176.514174,16.7183355 176.525618,16.8621586 L176.537061,16.9872562 C176.544603,17.1310793 176.552146,17.2863459 176.548505,17.4379714 L176.548505,17.5175553 L176.552406,17.5440832 C176.544603,17.9302991 176.502991,18.3016905 176.449935,18.6652796 Z" id="Shape" fill="#79242F" fill-rule="nonzero" mask="url(#mask-26)"></path>
                </g>
                <g id="Clipped">
                    <mask id="mask-28" fill="white">
                        <use xlink:href="#path-27"></use>
                    </mask>
                    <g id="SVGID_1_"></g>
                    <path d="M53.3074122,141.457737 C50.0197659,141.446294 46.0007802,143.43485 46.0007802,143.43485 C46.4325098,141.90091 50.0915475,140.245514 51.9890767,139.480624 C51.6710013,138.821586 51.496749,138.155007 51.5079324,137.503511 C48.3149545,138.912614 43.0613784,141.677503 42.8907672,144.650975 C42.7126138,147.794798 45.1596879,148.881925 46.8639792,149.120416 C47.4814044,149.207542 47.996619,149.181014 48.2579974,149.10143 C48.2579974,149.10143 43.883225,147.287126 49.413264,146.022107 C52.9245774,145.215345 55.3524057,144.363069 56.5758127,143.158648 C56.4395319,143.155007 56.3068921,143.16619 56.16671,143.147204 C54.9589077,142.976593 54.0270481,142.264499 53.3074122,141.457737" id="Shape" fill="#FFC600" fill-rule="nonzero" mask="url(#mask-28)"></path>
                </g>
                <g id="Clipped">
                    <mask id="mask-30" fill="white">
                        <use xlink:href="#path-29"></use>
                    </mask>
                    <g id="SVGID_1_"></g>
                    <path d="M108.345384,89.9115735 C100.845774,92.8319896 94.8117035,96.483225 90.2931079,99.8127438 C95.516515,97.06658 100.73212,95.0213264 104.542523,95.1425228 C104.542523,95.1425228 102.508453,95.5781534 95.5503251,102.411183 C99.6410923,100.289987 103.671261,98.6764629 106.152146,98.9074122 C106.152146,98.9074122 103.652276,100.547464 99.936541,103.907152 C106.977893,100.490767 114.053316,98.263459 115.488947,97.8278283 C120.807022,96.3544863 125.113654,95.7256177 128.208062,95.3695709 C139.128218,94.5058518 144.730039,95.6384915 144.730039,95.6384915 C145.226268,95.3315995 145.923277,93.2824447 145.923277,93.2824447 L145.911834,93.2824447 C146.097529,92.7937581 146.245254,92.1992198 146.355007,91.4491547 C146.991417,86.983355 146.779194,82.8283485 146.779194,82.8283485 C131.977113,81.8361508 118.882965,85.2907672 108.345384,89.9115735" id="Shape" fill="#FFC600" fill-rule="nonzero" mask="url(#mask-30)"></path>
                </g>
                <g id="Clipped">
                    <mask id="mask-32" fill="white">
                        <use xlink:href="#path-31"></use>
                    </mask>
                    <g id="SVGID_1_"></g>
                    <path d="M93.2044213,164.802601 L92.5227568,170.385696 C98.1628088,174.260598 103.507152,178.097529 107.484265,181.317035 C107.484265,181.317035 107.328999,176.6658 107.578934,175.328739 C107.578674,175.328739 101.647074,170.658518 93.2044213,164.802601" id="Shape" fill="#FFC600" fill-rule="nonzero" mask="url(#mask-32)"></path>
                </g>
                <g id="Clipped">
                    <mask id="mask-34" fill="white">
                        <use xlink:href="#path-33"></use>
                    </mask>
                    <g id="SVGID_1_"></g>
                    <path d="M61.5654096,136.388296 C61.4821847,136.376853 61.3760728,136.373212 61.2548765,136.384655 C60.9063719,136.418726 60.5352406,136.39974 60.1602081,136.346684 C58.5011704,136.115735 56.713394,135.225488 55.9973992,135.126918 C55.993498,135.126918 55.9823147,135.123017 55.9747724,135.123017 C55.1263979,135.020806 52.1302991,136.43355 53.8005202,139.069961 C54.6111834,140.346424 55.4369311,141.1987 56.4179454,141.33498 C57.463459,141.482705 58.6905072,140.823667 60.2775033,139.013004 C60.2775033,139.013004 62.8039012,136.562549 61.5654096,136.388296" id="Shape" fill="#FFC600" fill-rule="nonzero" mask="url(#mask-34)"></path>
                </g>
            </g>
        </g>
    </g>
</svg>