<?xml version="1.0" encoding="UTF-8"?>
<svg width="200px" height="200px" viewBox="0 0 200 200" version="1.1" xmlns="http://www.w3.org/2000/svg" xmlns:xlink="http://www.w3.org/1999/xlink">
    <!-- Generator: Sketch 51.3 (57544) - http://www.bohemiancoding.com/sketch -->
    <title>augustana-sd</title>
    <desc>Created with Sketch.</desc>
    <defs></defs>
    <g id="augustana-sd" stroke="none" stroke-width="1" fill="none" fill-rule="evenodd">
        <g id="augustana-sd_BGL" transform="translate(0.000000, 16.915423)">
            <g id="augustana-sd">
                <g id="g10" transform="translate(99.999998, 83.925728) scale(-1, 1) rotate(-180.000000) translate(-99.999998, -83.925728) translate(0.000000, 0.006349)" fill-rule="nonzero">
                    <g id="g12">
                        <path d="M96.1094484,159.437934 C92.4125137,152.335891 90.6648764,145.10816 90.6648764,138.623135 C90.6648764,127.073746 96.9754765,118.002328 102.328478,113.725486 C99.9081712,113.816515 98.3611725,113.675846 96.0005085,113.457097 C90.9166005,113.000936 86.9171115,112.641136 81.1808409,116.527708 L73.9513391,121.4335 L74.4754771,119.754478 C74.5427823,119.539538 75.8381846,115.486778 78.070113,112.195005 C73.5669203,114.864301 71.0162179,118.864755 71.0162179,123.499745 C71.0162179,124.627515 71.3978271,129.087303 72.5676866,132.720847 L73.2943788,134.975625 L71.557214,133.355638 C69.4154516,131.353507 67.2555539,128.721664 67.163089,128.60994 C64.2157072,124.789133 62.7261798,120.929095 62.7261798,117.123269 C62.7261798,115.887458 62.8771376,114.674626 63.1710074,113.517148 C63.3607902,112.746004 63.6517225,111.967369 63.9936127,111.176673 C61.4759882,112.251501 58.9541492,113.059971 56.3220931,113.472712 C52.7825019,114.017617 48.2996157,113.447702 47.0555544,113.095901 C46.1565761,112.841984 45.4362696,112.637327 45.4362696,112.637327 L47.3703692,112.139905 C50.7473806,111.125255 53.8675593,109.682121 56.0768824,108.50598 C50.5662823,109.39875 45.0272019,108.998451 39.5616848,107.203516 C28.3422726,103.743143 22.2057466,95.6508262 21.9508296,95.3058808 L20.5464874,93.4163617 C20.6467428,93.4694302 32.6950183,99.7305015 41.8512122,98.5048469 C45.4805863,98.0352285 49.2496795,96.7078803 51.9997433,95.3839601 C46.3731789,94.3251286 42.8362697,92.3582919 41.4060015,91.4167698 C35.8077897,91.0426239 17.3793099,88.4741323 4.75260525,71.1473831 C3.2524648,69.2945549 1.16588886,65.5353222 1.07783522,65.3768784 L0,63.4294663 L2.3931417,64.819024 C4.71918251,66.1746838 11.7985693,70.3008257 18.0383137,71.5296543 C22.5462319,72.4176 27.1978282,72.3345694 31.8633453,71.2777692 C37.8752226,69.8247324 42.9979555,66.821282 46.6467421,64.3515638 C38.2094499,63.5377617 30.4388243,59.0833058 24.6293736,51.5920094 L22.9858232,49.5109104 L25.0559381,50.2984322 L26.6854399,50.9299223 C29.8743288,52.2067411 35.2116211,54.3434478 41.4054907,54.3801387 C46.7565761,54.4054034 51.2533831,53.2588438 60.9697303,46.9307386 L61.0584914,46.8744961 C63.7821185,45.1647498 66.6007646,43.4320241 69.7100877,41.8364133 C69.2406113,41.9483904 65.7933572,42.402393 65.384545,42.5004048 L67.912642,41.0328948 L70.3996151,39.5170137 L76.5642382,35.7679376 C96.7415046,23.8732226 112.90038,29.4936627 116.470112,31.005735 C119.375093,24.2579059 124.855808,17.4961115 133.257979,10.3585461 L134.66794,9.15750867 C134.66794,9.15750867 136.630903,10.5159616 136.947634,10.735612 C136.706255,10.094473 136.298847,9.18418259 136.298847,9.18418259 C141.724134,12.1245094 144.380584,14.483393 146.407404,16.5959777 C148.768834,17.0403315 150.598975,17.4631023 152.005105,17.8807949 C152.399741,17.5507035 153.564492,16.5832819 153.564492,16.5832819 C153.564492,16.5832819 153.876114,16.3280959 154.182627,16.081797 C148.803317,9.85830531 135.69476,1.78123644 135.560661,1.6987136 L132.99872,0 L136.102168,0.590355695 C138.100891,0.920447051 145.189013,2.28395288 152.487863,5.96450959 C156.361426,7.91331817 169.556828,15.4812846 177.006381,31.1593545 C189.745845,42.3742083 191.122601,54.9128554 191.266917,57.317317 C191.675602,60.0994793 191.888884,62.9196021 191.888884,65.6457759 L191.782882,69.063491 C191.729242,70.2782272 191.596419,71.6261425 191.389523,72.9522211 C190.260532,81.0186382 187.552997,86.6262555 185.860787,89.4950033 C186.38186,89.9016505 187.621962,90.8709764 187.621962,90.8709764 L187.619408,91.1688204 L187.619408,101.948081 L185.871004,102.441059 C185.871004,102.441059 184.831413,102.734587 182.772665,103.140345 C182.584925,103.705944 181.47126,107.070591 181.223495,107.818628 C186.116215,110.703754 199.876112,120.624777 199.876112,140.833477 C199.876112,143.357406 199.664107,145.970207 199.245206,148.599511 L199.227326,148.695999 C198.214554,154.894099 193.945078,162.750274 191.836521,165.407509 L190.50702,167.087166 L190.78799,164.49341 C191.035755,162.24371 191.268194,160.11843 191.295014,156.893691 C191.295014,156.823864 191.295014,156.752768 191.295014,156.682941 C191.295014,142.086555 178.003827,134.460175 169.715194,131.124983 C163.72158,140.588448 156.62324,148.957533 148.583649,155.98594 C148.581095,155.988479 147.431669,156.982562 147.431669,156.982562 C147.429115,156.983832 145.8378,158.349902 145.8378,158.349902 L144.272027,156.962249 C131.854403,146.227932 123.858107,134.976895 121.258873,131.169418 C116.09591,132.634516 101.713918,139.355684 100.361683,158.663489 C100.197826,161.432447 100.361683,164.528958 100.799742,167.749888 C98.4619388,164.061752 96.1094484,159.437934 96.1094484,159.437934" id="path14" fill="#FFFFFF"></path>
                        <path d="M161.174964,72.6175592 C169.982116,67.9698729 179.499357,73.9188809 179.499357,73.9188809 C179.499357,73.9188809 185.261809,54.9906808 174.297569,34.2863353 C190.899101,47.2103006 195.044695,70.7694285 179.249038,85.2473624 C177.882499,84.3507834 180.219663,79.0034304 161.174964,72.6175592" id="path16" fill="#FCD006"></path>
                        <path d="M179.54278,74.0320007 L179.570877,73.9400829 C179.584925,73.8927275 181.014044,69.1141473 181.084287,61.8673725 C181.146866,55.2433276 180.054912,45.1544662 174.523623,34.5567563 C178.810979,37.9528885 182.393354,42.2123366 184.897824,46.8920163 C187.416343,51.6007695 188.855679,56.7498138 189.060021,61.7825644 C189.234989,66.1188222 188.521068,70.2958744 186.938693,74.1974272 C185.272026,78.302875 182.683265,81.988345 179.243929,85.1527785 C179.02043,84.9752909 178.901656,84.6358046 178.742013,84.1769777 C178.394632,83.1841644 177.813533,81.5224084 175.416343,79.506185 C172.567045,77.1092139 167.839076,74.7870212 161.362704,72.602959 C165.842908,70.3042536 170.491694,70.7818704 173.616854,71.5951647 C177.04725,72.487681 179.436777,73.9661094 179.459766,73.9809635 L179.54278,74.0320007 Z M174.343546,34.2279345 L174.232435,34.3193444 C179.887607,44.9998311 180.999995,55.1912748 180.936139,61.8602628 C180.873559,68.5394075 179.651337,73.113585 179.455934,73.8065229 C179.00255,73.5381332 176.750953,72.2594101 173.658999,71.454495 C170.47126,70.6240614 165.711362,70.1407314 161.140481,72.5528105 L160.989779,72.6325403 L161.151976,72.6870054 C167.69476,74.8810972 172.46232,77.2130657 175.320558,79.6181621 C177.687096,81.608486 178.237543,83.1831488 178.602805,84.2250948 C178.782882,84.7419417 178.914427,85.1154528 179.208169,85.3085562 L179.2567,85.3401688 L179.298846,85.3011926 C182.777773,82.113018 185.393354,78.3955545 187.075347,74.2524001 C188.666662,70.3312957 189.383137,66.1338032 189.206892,61.7767243 C189.00255,56.7221369 187.556828,51.5511289 185.026815,46.823205 C182.461043,42.0272315 178.767556,37.6723108 174.343546,34.2279345 Z" id="path18" fill="#FCD006"></path>
                        <path d="M37.9941242,101.003385 C55.0955286,104.596556 60.9961671,98.7673965 75.6655153,92.9692148 C94.4581075,85.5417785 102.64061,98.5048469 112.361811,95.4836223 C115.753254,91.3915051 95.0321815,79.8729672 88.3403554,81.5608767 C71.2060008,86.2980685 54.2292451,103.247371 37.9941242,101.003385" id="path20" fill="#FCD006"></path>
                        <path d="M40.9699862,101.277614 C44.5864612,101.277614 48.5259247,100.43093 52.9220932,98.7162323 C57.9508287,96.7547279 63.1315438,93.8503048 68.1417607,91.0416083 C74.7519777,87.335825 81.5870989,83.5040991 88.360151,81.6315924 C90.8339696,81.0078467 95.709193,82.2351518 101.082373,84.8355099 C106.271262,87.3468703 110.586204,90.4777869 112.074838,92.8117867 C112.763216,93.8909315 112.84508,94.7683397 112.318643,95.4202701 C108.420048,96.6224374 104.771006,95.2422747 100.547379,93.6445056 C97.4817345,92.4848693 94.0070219,91.1703439 89.9620667,90.7251015 C85.3210707,90.2140946 80.6357579,90.9259493 75.6383123,92.9011652 C72.45632,94.1588133 69.7472524,95.3904349 67.1272014,96.5815569 C58.3388236,100.577059 51.8950179,103.507001 39.5320552,101.231909 C40.0058738,101.262379 40.4850565,101.277614 40.9699862,101.277614 Z M89.8813515,81.320037 C89.2966772,81.320037 88.7740719,81.3758986 88.32222,81.4897801 C81.5302662,83.367619 74.687099,87.2039154 68.069347,90.9138883 C63.0636,93.7201727 57.8873549,96.6219296 52.8681979,98.5796253 C47.2564484,100.768639 42.3942518,101.537752 38.0043413,100.930637 L37.9789263,101.075116 C51.3965504,103.894477 58.0206882,100.882901 67.1886318,96.714863 C69.8068948,95.5245028 72.5143021,94.2937699 75.6927184,93.0373914 C80.6673032,91.0713165 85.3297552,90.3623818 89.9457193,90.8708495 C93.9720283,91.3140606 97.4375455,92.6250311 100.494889,93.7816205 C104.752105,95.3919584 108.429116,96.7829126 112.383778,95.5535762 L112.404723,95.5471014 L112.418643,95.5302159 C113.005489,94.8222969 112.93167,93.8812827 112.199359,92.7333265 C110.697188,90.3779977 106.358746,87.2261331 101.146741,84.7036003 C96.6356298,82.5202999 92.5914409,81.320037 89.8813515,81.320037 Z" id="path22" fill="#FCD006"></path>
                        <path d="M12.980204,72.4176 C28.3475089,82.6722689 40.5090667,83.2812875 51.3849285,80.21093 C67.6454645,75.6104722 80.8805855,63.6166027 96.5365238,70.2127167 C81.6840337,65.8133607 70.5901643,79.3651344 54.5862055,84.6099052 C70.0914414,86.4726361 83.6446978,67.6706324 97.0079158,71.390889 C108.118771,74.6133424 114.481351,87.8331203 114.481351,87.8331203 C114.481351,87.8331203 114.155553,59.2078518 82.0090656,59.5411171 C49.8550435,59.8780642 38.6012762,85.2863385 12.980204,72.4176" id="path24" fill="#FCD006"></path>
                        <path d="M27.018007,76.118432 C34.7140477,76.118432 41.4575979,72.7983477 48.8496795,69.1593444 C57.7976997,64.7544022 67.9395896,59.7618974 82.0098319,59.614372 C89.3289888,59.5409901 95.5859491,60.9752371 100.607533,63.8844846 C104.62273,66.2107399 107.862322,69.4790252 110.236013,73.5985653 C113.780712,79.7499447 114.315834,86.0013672 114.394378,87.4980776 C113.927073,86.5959125 112.403445,83.8044823 109.968835,80.7747514 C107.243803,77.3835706 102.786587,72.9904355 97.0286055,71.3204272 C90.2203043,69.425068 83.4409941,73.304784 76.2633442,77.4120092 C69.4561924,81.3072142 62.4192832,85.3338209 54.9275848,84.573849 C60.5066396,82.7003267 65.4590022,79.8498608 70.2513392,77.0915667 C74.6549151,74.5569729 78.814302,72.1630488 83.0978268,70.737689 C87.9021689,69.1390311 92.1657704,68.9946796 96.515451,70.2830516 L96.5652594,70.1453019 C85.6987207,65.5670618 75.9698576,69.9313773 65.6698579,74.5517676 C61.0952731,76.6037932 56.365005,78.7257728 51.3647497,80.1404682 C45.357087,81.836503 39.6374192,82.1956678 33.8789264,81.2387837 C27.410855,80.1640824 20.8881221,77.4596185 13.9687097,72.9796441 C18.7273303,75.2136008 23.0034477,76.118432 27.018007,76.118432 Z M82.5587463,59.4649422 C82.3757323,59.4649422 82.1925905,59.4658309 82.0082994,59.4677353 C67.9043406,59.6156416 57.7463587,64.6160178 48.78429,69.0279427 C37.2971894,74.6825346 27.3767554,79.5664901 13.0134096,72.3522166 L12.9390801,72.47854 C20.2295014,77.3434518 27.0710083,80.256381 33.8546607,81.3835161 C39.6351203,82.3440819 45.3759886,81.9836475 51.4049796,80.2815188 C56.4158351,78.8637764 61.151084,76.7396385 65.730522,74.6854546 C75.626818,70.2461067 84.9943785,66.0439168 95.3326924,69.8183845 C93.7527435,69.4498248 92.20881,69.2823669 90.6952723,69.28224 C83.5243913,69.2817322 77.0011475,73.0370292 70.1773929,76.9646085 C65.3006369,79.7715276 60.2578529,82.6740463 54.5630893,84.5402051 L54.5773933,84.6826522 C62.2432935,85.6037341 69.408172,81.5038725 76.3369074,77.5390944 C83.4870988,73.447612 90.2408662,69.5832579 96.9881202,71.4613508 C100.144442,72.3768465 104.93895,74.7513459 109.851466,80.8634952 C112.792207,84.5225579 114.398848,87.8318507 114.414812,87.8647329 L114.555042,87.8323585 C114.554276,87.7606272 114.426434,80.5753001 110.36411,73.5256913 C107.977264,69.3835526 104.719665,66.0971123 100.681734,63.7577803 C95.7634714,60.9083301 89.6683247,59.4649422 82.5587463,59.4649422 Z" id="path26" fill="#FCD006"></path>
                        <path d="M163.609191,101.760182 L163.24393,101.765896 C159.425283,132.451696 145.27075,152.650748 145.27075,152.650748 C145.27075,152.650748 132.158362,131.616311 130.948911,102.004831 C130.867174,100.266138 130.673049,95.9183272 130.867174,93.5820421 C141.017876,93.6975741 159.189013,93.8222471 163.886376,93.2732798 C163.886331,95.9480354 163.896548,94.04125 163.609191,101.760182" id="path28" fill="#9AA0C3"></path>
                        <path d="M164.808425,88.7685484 C161.186458,88.5123467 157.066407,92.0810152 157.066407,92.0810152 L161.771388,92.6075109 C161.75734,92.5187671 161.745845,92.4290076 161.744568,92.3364551 C161.706254,91.033356 162.735628,89.9523068 164.044696,89.9146002 C164.10983,89.912315 164.17241,89.9239951 164.236267,89.9271691 C163.919536,90.1176064 163.708808,90.4625519 163.717748,90.8556145 C163.743291,91.449525 164.231158,91.8998458 164.817365,91.8801673 C165.411235,91.8707724 165.879945,91.3824911 165.855679,90.7978485 C165.854402,90.7457956 165.844185,90.696155 165.835245,90.6463874 C166.222218,91.0487179 166.47126,91.5830851 166.491694,92.1852479 C166.504466,92.5172436 166.441886,92.8299417 166.328221,93.1169942 L169.674325,93.4915209 C169.674325,93.4915209 154.522346,94.6742637 133.513407,94.2462875 C132.8825,94.2340995 132.595144,95.8426601 132.650061,97.4392866 C133.139205,98.0105986 133.429115,98.3238045 133.429115,98.3238045 C133.429115,98.3238045 133.19029,98.4512705 132.76628,98.6789066 C132.931031,99.7042211 133.260533,100.514849 133.756063,100.558777 C153.228604,102.144485 185.134095,99.8857714 185.134095,99.8857714 C185.134095,99.8857714 170.310341,104.643911 138.185182,103.55169 C137.236267,127.171504 145.026816,148.894054 145.026816,148.894054 C145.026816,148.894054 136.643675,131.967985 134.692206,103.457995 C133.845463,103.444791 132.563215,103.32253 132.563215,103.32253 C132.563215,103.32253 133.237545,126.434892 145.789268,151.904233 C153.441886,146.306646 164.767557,133.933298 164.767557,133.933298 C164.767557,133.933298 157.042142,145.673124 145.789268,155.221652 C130.899103,142.34555 122.119409,128.480443 122.119409,128.480443 C122.119409,128.480443 99.8699847,132.879545 98.1768813,158.396876 C83.3563198,129.932845 104.339972,113.349817 111.899869,109.727699 C97.3619388,114.659772 91.5795635,106.594497 79.7489124,114.603275 C81.9544041,110.286696 84.4754768,108.359978 86.8839059,107.53767 C84.4261792,107.551635 82.8666646,107.541733 80.6458473,108.316559 C69.2756049,112.561279 67.4716458,121.342471 68.9922077,127.195626 C56.6128977,111.125255 77.2057452,100.862207 79.7750938,99.9635968 C69.9121311,102.049774 70.5449535,108.133104 55.7393345,111.324199 C62.4201772,108.487698 63.4615565,105.437654 66.1068949,102.744109 C47.4250307,112.404486 32.1642393,101.398098 29.2330772,99.3032871 C55.5317994,112.166059 67.6454645,95.1116347 81.8616838,92.3421682 C96.9625774,89.0769299 102.621326,98.1158469 111.916089,95.9284839 C101.730649,95.1982202 96.5933565,83.0526357 82.0090656,86.4726361 C68.7941234,89.781421 58.8616844,105.718359 37.5353758,101.451674 C52.1536385,100.49644 58.4563204,94.0761635 58.884162,93.7522931 C47.8385684,93.5929605 42.1393348,89.1153983 42.1393348,89.1153983 C42.1393348,89.1153983 19.8687096,88.4788298 6.64735616,69.8148297 C28.7738179,90.4365254 49.924903,84.379476 51.4490409,83.899447 C65.8749664,80.4482149 80.895528,64.5253696 97.1978264,70.8782317 C78.2681973,68.2843484 73.6934847,81.4750529 53.571263,87.0153824 C71.9971885,87.8224558 82.0282227,69.5521532 97.0079158,71.8386706 C108.16296,73.7170174 113.134863,84.625521 114.380329,88.0987169 C114.391951,87.9730282 114.404467,87.8489901 114.415451,87.7225397 C109.925285,66.4671955 93.8674306,59.3717548 76.2886316,62.3391492 C52.6370357,66.7913198 38.2330769,88.9353715 12.4550955,72.5280537 C33.6546607,80.1232019 49.2374189,65.2390017 56.4919526,60.1505165 C45.2554267,66.5813309 31.5600248,55.6624167 30.7868447,54.9977905 C59.1650049,63.7937094 61.6947622,37.3028624 97.0523603,38.2867886 C90.6274562,36.0751765 79.074583,37.5555093 77.0245191,38.2867886 C95.6344804,27.1627099 111.051721,30.7010353 117.779946,34.3548927 C121.095527,23.8440222 131.90932,14.6484387 134.743292,12.2425933 C138.581095,14.9125118 140.458489,17.3501095 140.458489,17.3501095 C140.458489,17.3501095 139.883777,15.6298257 138.35121,13.3826653 C145.496804,17.6344959 149.528732,23.7894301 149.528732,23.7894301 C149.528732,23.7894301 152.833968,19.636627 157.518515,16.5959777 C154.699868,11.9950248 143.461044,4.5920659 143.461044,4.5920659 C143.461044,4.5920659 169.15453,11.4668532 177.825027,40.2063968 C180.712639,49.7838705 184.888884,59.9774725 180.257978,76.4649009 C179.754785,75.477293 171.784159,71.0404843 163.625794,72.7454061 C165.043419,73.0296656 180.810979,75.8353152 180.445717,88.8146342 C183.098335,90.0858668 184.888884,92.1368768 184.888884,92.1368768 L172.173687,93.3446303 C172.173687,93.3446303 169.10983,89.0677889 164.808425,88.7685484" id="path30" fill="#0E1B3B"></path>
                        <path d="M149.522346,23.9151188 L149.586203,23.8351351 C149.619409,23.7932389 152.938693,19.6556707 157.558106,16.6569177 L157.618131,16.6175606 L157.581094,16.5578903 C155.090673,12.4913933 145.942525,6.17651711 143.905488,4.80031546 C145.512129,5.30432688 151.084287,7.24806983 157.353764,11.6852594 C161.706254,14.7652403 165.537671,18.4254456 168.742014,22.565553 C172.747122,27.7391002 175.780328,33.6820142 177.754785,40.2267101 C178.021707,41.1135132 178.306509,42.0246923 178.581094,42.9057823 C181.29246,51.5939138 184.36398,61.4360954 180.228603,76.2938882 C179.325666,75.2085225 173.724134,72.2926732 167.41762,72.2921653 C166.166024,72.2921653 164.887608,72.4069355 163.610468,72.6736748 L163.611746,72.8173915 L163.722857,72.8392283 C168.054913,73.6888326 171.120047,75.1555809 172.928476,76.2365031 C178.016598,79.2779141 180.521068,83.5091774 180.371643,88.8126029 L180.370366,88.8600853 L180.413789,88.8806525 C182.676879,89.9652565 184.326943,91.6405971 184.735628,92.0777143 L172.208169,93.2676936 C171.902933,92.859396 168.89527,88.9792991 164.813534,88.6952935 C161.201784,88.438584 157.060022,91.9898592 157.017876,92.0257884 L156.891439,92.1353533 L161.859511,92.6911764 L161.844185,92.5960847 C161.827582,92.4921059 161.819919,92.4114874 161.817365,92.3349316 C161.781605,91.0828697 162.772665,90.0340679 164.02937,89.9884899 C163.780328,90.2074928 163.637288,90.5250153 163.643674,90.857265 C163.671771,91.4938334 164.183904,91.9748781 164.819919,91.9534222 C165.12771,91.9485978 165.415066,91.823417 165.625794,91.6008592 C165.817365,91.3991226 165.924645,91.1407626 165.929753,90.8667868 C166.229881,91.2467728 166.402295,91.7081389 166.418897,92.187787 C166.430392,92.4904554 166.376752,92.7940125 166.259255,93.090333 L166.224772,93.1792037 L168.869728,93.4751433 C165.472537,93.7058264 151.58748,94.5410845 133.515961,94.1730326 C133.389524,94.1703665 133.264364,94.2243237 133.157085,94.3332539 C132.666663,94.8272483 132.537672,96.3165951 132.575986,97.4418258 L132.577264,97.4674713 L132.593866,97.4868959 C132.948911,97.9002719 133.200508,98.1812304 133.311619,98.3037451 L132.68582,98.6391687 L132.693483,98.6904598 C132.805872,99.3905074 133.093228,100.573631 133.749677,100.631778 C151.435501,102.072119 179.715193,100.318064 184.457211,100.004985 C183.077901,100.382813 179.512128,101.263014 173.689651,102.05663 C166.648783,103.016434 154.773942,104.04251 138.187736,103.478435 L138.113662,103.475896 L138.111108,103.54877 C137.840354,110.287585 138.153253,121.230748 141.178796,135.096235 C142.462321,140.980749 143.817365,145.447139 144.503189,147.564802 C143.715194,145.754378 142.237544,142.095442 140.660277,136.841911 C138.527455,129.73479 135.772666,118.171436 134.765003,103.453043 L134.761172,103.385628 L134.693483,103.38474 C133.859511,103.371663 132.583649,103.250799 132.570878,103.249656 L132.487864,103.241658 L132.490418,103.324689 C132.491695,103.382455 132.678158,109.211233 134.397187,118.076344 C135.983394,126.257278 139.23499,138.772945 145.722857,151.935973 L145.761171,152.015957 L145.832691,151.963904 C152.33333,147.209319 161.58748,137.45385 164.144313,134.712822 C162.174964,137.540181 155.180073,147.1433 145.789268,155.125163 C131.107276,142.414107 122.269473,128.57947 122.181862,128.441086 L122.154914,128.39792 L122.105106,128.408077 C122.049295,128.419503 116.46015,129.560857 110.73895,133.811418 C107.378414,136.307417 104.629499,139.372188 102.568197,142.92067 C100.03116,147.288033 98.535502,152.404449 98.1214535,158.130264 C92.8752212,147.943137 91.7111088,138.323513 94.6613003,129.532927 C98.2808405,118.748842 107.220304,112.051161 111.931926,109.793717 L111.875987,109.65838 C105.298209,111.889924 100.438184,111.447602 96.1496783,111.057079 C90.8740718,110.576923 86.308427,110.161388 79.9461027,114.382622 C81.8393338,110.776882 84.1185164,108.559303 86.9077884,107.607116 L86.883395,107.464415 L86.7108535,107.465431 C84.3567029,107.478253 82.8014028,107.48676 80.6214539,108.247366 C69.6418884,112.346212 67.4079166,120.753639 68.835375,126.867566 C65.4469971,122.345695 64.3796919,117.88413 65.6628336,113.601702 C68.0476356,105.642438 77.9489125,100.680022 79.7996149,100.032789 L79.7597681,99.8918654 C75.3021693,100.834784 72.9321821,102.627815 70.4231145,104.526094 C67.4349919,106.786712 64.0606625,109.339842 56.4591301,111.088691 C60.9954008,109.034253 62.7240086,106.898943 64.3980827,104.830921 C64.971135,104.123002 65.5123866,103.454313 66.1596407,102.795273 L66.072923,102.678979 C54.3372911,108.747455 41.5586197,107.702462 30.0044692,99.7551314 C48.1747114,108.316178 59.5250304,102.519646 69.5556815,97.3963747 C73.7587466,95.2496383 77.7288614,93.2219886 81.87586,92.4141535 C90.2579799,90.6015711 95.712769,92.5849123 100.525413,94.3346504 C104.422347,95.7515041 107.788248,96.9752543 111.933075,95.9998344 L111.921325,95.8553559 C107.829627,95.5619555 104.579052,93.4326123 101.137801,91.1782153 C96.0166004,87.8234715 90.7211982,84.3543383 81.9920797,86.4012856 C77.369219,87.5587636 73.1650046,90.2457072 68.7140468,93.0905869 C64.5528719,95.7501076 60.2500624,98.5002764 55.2238811,100.258394 C49.6925914,102.192983 44.0851841,102.595948 38.0982111,101.485445 C43.6482748,101.064959 48.6180064,99.8160713 52.8782873,97.7705206 C55.173051,96.6686502 57.1581084,95.3802783 58.7784149,93.940953 C58.8523612,93.8753156 58.9021697,93.8308802 58.9288619,93.8106939 L59.0985937,93.6820852 L58.8851837,93.6790382 C53.194507,93.5968963 48.9569592,92.3448343 46.4040857,91.3088553 C43.6381854,90.1864178 42.1992327,89.0690585 42.1850564,89.0578862 L42.1658993,89.0427782 L42.141506,89.0421434 C42.0858227,89.0404929 36.4985942,88.8541183 29.3706251,86.3931602 C25.18544,84.9481218 21.2957849,83.0131517 17.8097058,80.6420801 C13.6564492,77.8171329 10.0675987,74.3613303 7.13376738,70.3635431 C12.049259,74.8518968 17.2956573,78.3781612 22.7372919,80.8495298 C27.300127,82.9218687 32.0196671,84.2654675 36.7651332,84.8431274 C45.1298839,85.8612053 50.8468697,84.1660592 51.4712631,83.969401 C56.4697304,82.7737085 61.4432935,80.1329777 66.709066,77.3371039 C76.2784144,72.2561092 86.1671754,67.0049905 96.5757319,70.7243583 C85.832948,69.4301463 79.6974437,73.3266209 72.6158347,77.8238617 C67.5707518,81.0277792 61.8524889,84.6591649 53.5515951,86.9446667 L53.5680702,87.0886373 C62.934992,87.4992202 70.0358859,83.054921 76.9039572,78.7575124 C83.45351,74.6593012 89.6397168,70.7878374 96.996677,71.9111637 C108.64623,73.8726681 113.463471,85.7602735 114.310853,88.1233468 L114.453765,88.1054457 L114.466025,87.9759483 C114.473943,87.8938063 114.481734,87.8119183 114.488886,87.7288876 L114.489908,87.7180962 L114.487609,87.7075586 C113.398975,82.5543247 111.585438,78.0539099 109.097188,74.3314951 C106.74955,70.8189422 103.789142,67.9768556 100.298337,65.8844573 C93.7643655,61.9680503 85.4577246,60.7170041 76.2762433,62.266783 C68.3296279,63.7627316 61.4486575,67.2410058 54.7943792,70.6048907 C48.1768826,73.9501126 41.9264357,77.1097217 35.1283516,78.1052011 C27.6681985,79.1979304 20.6351208,77.5147184 13.0438055,72.8110435 C17.2311618,74.2319599 21.4750952,74.8640848 25.6679432,74.6912947 C29.4355037,74.535517 33.2743287,73.7227305 37.0775214,72.2752799 C44.0311611,69.6290898 49.6158353,65.4015083 53.6934852,62.3145193 C54.7688364,61.5004632 55.697572,60.7974956 56.5344813,60.2104408 L56.455171,60.0869105 C45.9159631,66.1185683 33.2204334,56.8141816 31.1314168,55.1799755 C45.6019146,59.5441641 53.3132809,54.6896629 62.2293726,49.0753167 C70.5590021,43.830419 80.0003811,37.8881398 97.0503169,38.3591548 L97.0764982,38.2169616 C91.1379288,36.1729343 80.6274565,37.304132 77.5559368,38.0569942 C85.6219647,33.3328791 93.7959108,30.9092468 101.85849,30.8521156 C101.952105,30.8521156 102.045974,30.8521156 102.13895,30.8521156 C110.287609,30.8521156 115.756958,33.3404966 117.744442,34.4196414 L117.823496,34.4628072 L117.850316,34.3777452 C120.583777,25.7115775 128.537672,17.6141826 134.747123,12.3352855 C138.499358,14.954408 140.380584,17.3704228 140.399741,17.3945449 L140.527455,17.3259875 C140.522346,17.3094829 139.980839,15.7123486 138.596421,13.6149989 C145.469984,17.8033503 149.426561,23.7691168 149.466152,23.8300568 L149.522346,23.9151188 Z M143.480201,4.52100739 L143.420175,4.65301854 C143.532563,4.726667 154.57854,12.0343945 157.417621,16.5731253 C153.159639,19.3535101 150.014045,23.0822729 149.53384,23.6662807 C149.019153,22.914688 145.017876,17.2650475 138.389524,13.3191862 L138.291184,13.423292 C139.362704,14.9963042 139.968068,16.3204784 140.229882,16.9603478 C139.567046,16.1935202 137.752232,14.2472508 134.785437,12.1829356 L134.738183,12.1499011 L134.69476,12.1866936 C133.25287,13.4118657 129.874837,16.2798518 126.386842,20.2104781 C122.066664,25.0805952 119.156702,29.8034407 117.736523,34.2482478 C115.675859,33.1424418 110.216089,30.704844 102.138695,30.704844 C102.045336,30.704844 101.951466,30.704844 101.857341,30.7061136 C93.6034459,30.7632448 85.2356301,33.293522 76.9864604,38.2233095 L77.0492956,38.355346 C79.0302662,37.6494584 90.1140463,36.2427613 96.5500614,38.200457 C96.0784139,38.1915699 95.6108533,38.1864916 95.1508278,38.1864916 C79.2455919,38.1864916 70.1830123,43.8935172 62.1504454,48.9514055 C53.190037,54.5935555 45.4514676,59.4667196 30.8086838,54.9278365 L30.7385688,55.0532712 C30.8739456,55.1696919 44.2249031,66.2057885 55.5879935,60.7102753 C54.9813524,61.1552638 54.3257969,61.6516705 53.6042132,62.1978447 C49.5335875,65.2793745 43.9587473,69.4995924 37.0247756,72.138292 C33.2365254,73.5800294 29.4134092,74.389642 25.6619406,74.544658 C21.2836521,74.7259543 16.8481477,74.0240023 12.4800891,72.4591154 L12.415287,72.5897554 C20.2490416,77.5757853 27.4727962,79.3746562 35.1499353,78.2503143 C41.9717742,77.2514071 48.2326936,74.0863388 54.8611736,70.7355307 C61.5063842,67.3763433 68.3776484,63.9028935 76.3022969,62.4111345 C85.4469966,60.8673226 93.7188993,62.1120209 100.22222,66.0101459 C103.694123,68.091118 106.638695,70.9182235 108.974454,74.4124945 C111.450572,78.1171351 113.256064,82.5964748 114.340993,87.7269832 C114.339844,87.7409486 114.338567,87.7547871 114.337417,87.7686255 C113.225923,84.8181166 108.31379,73.6680115 97.0203041,71.7664314 C96.1339695,71.6310939 95.2642377,71.5674878 94.4097039,71.5674878 C88.1172392,71.5672339 82.612897,75.0118642 76.8252854,78.6332203 C70.0922077,82.8464556 63.1333318,87.2013762 54.0458479,86.9587591 C62.1231147,84.6614502 67.7339702,81.098241 72.6952728,77.947392 C79.8902917,73.3781659 86.1043401,69.4317968 97.1876093,70.9509788 L97.2247741,70.8099282 C94.5489121,69.7672204 91.9080437,69.3221049 89.3006363,69.3219779 C81.4911857,69.3214701 73.9722842,73.3143059 66.6394619,77.2077335 C61.3823739,79.9990367 56.4168568,82.635578 51.4316718,83.8280965 C50.8056181,84.0251356 45.1171125,85.7117755 36.7830131,84.6975063 C32.052745,84.1217508 27.3476366,82.7822147 22.7985946,80.7162237 C17.1729242,78.1611896 11.7558618,74.4753388 6.69780315,69.7613803 L6.58704964,69.8571068 C9.60787971,74.1212523 13.3565769,77.7913604 17.7291183,80.7649756 C21.2266917,83.1435378 25.1288627,85.084221 29.3272023,86.5334491 C36.2360144,88.9179782 41.7039581,89.1720216 42.1131535,89.1877644 C42.2943795,89.3250063 43.732566,90.3823143 46.3417613,91.4419075 C48.8785428,92.4721734 53.0698582,93.7148404 58.69042,93.822501 C58.6870994,93.825421 58.6836512,93.828468 58.6802029,93.831515 C57.0701135,95.2618263 55.0964226,96.5425807 52.8141749,97.638484 C48.4288621,99.744086 43.2867167,101.002369 37.5305227,101.378546 L37.5209441,101.523532 C43.7406119,102.767977 49.5473806,102.399417 55.2729233,100.396651 C60.3153242,98.6329477 64.6255412,95.8780814 68.793868,93.2138633 C73.2343532,90.3758394 77.428606,87.6949898 82.0270733,86.5437327 C90.6929735,84.5118934 95.961428,87.9628716 101.056575,91.30073 C104.379435,93.4774286 107.525285,95.5382143 111.430776,95.9585729 C107.540227,96.7285745 104.302424,95.5517988 100.576115,94.1969008 C95.7446975,92.4403069 90.2684524,90.4494752 81.845975,92.2705638 C77.679947,93.0820807 73.7010199,95.1143008 69.4882486,97.2659886 C59.3413778,102.44855 47.8407395,108.322526 29.2655165,99.2375227 L29.1900376,99.3628305 L29.2278409,99.3898726 C40.8835239,107.721505 53.8380574,108.999467 65.7545322,103.00615 C65.230522,103.568575 64.7681976,104.13976 64.2831402,104.739003 C62.5379295,106.894753 60.7333318,109.12414 55.7103434,111.256657 L55.7550433,111.395803 C63.9094492,109.638194 67.4173674,106.984386 70.5123865,104.642769 C72.9425269,102.804287 75.0629611,101.199789 78.9320542,100.233002 C77.5828844,100.846464 75.232182,102.116173 72.8959113,103.904761 C70.2429101,105.935838 66.80996,109.259604 65.5214543,113.559933 C64.1973164,117.979221 65.3453368,122.581964 68.933587,127.240061 L69.0635998,127.177852 C67.4840341,121.097188 69.5763712,112.527255 80.6717732,108.385243 C82.7499341,107.660185 84.2610451,107.626414 86.4635994,107.613337 C83.7523606,108.67293 81.5310324,110.953481 79.6831398,114.570012 L79.7904195,114.663834 C86.2343529,110.301677 90.8228585,110.719116 96.1362684,111.20308 C100.242271,111.576719 104.870751,111.998347 111.027839,110.088133 C106.138822,112.701568 97.9512108,119.267466 94.5214536,129.487222 C91.5355022,138.383184 92.7434204,148.120879 98.1113641,158.431155 L98.2330754,158.664758 L98.2504445,158.401955 C98.6357574,152.594886 100.130777,147.411182 102.693995,142.998115 C104.744186,139.467407 107.479052,136.416601 110.822092,133.932029 C116.23167,129.911262 121.520687,128.684846 122.084799,128.562966 C122.643037,129.43009 131.42273,142.895279 145.740737,155.277513 L145.787991,155.31814 L145.836523,155.277513 C156.969345,145.830552 164.750954,134.091996 164.828859,133.973925 L164.71264,133.885054 C164.598974,134.008204 153.375475,146.239358 145.816088,151.79378 C139.362704,138.672648 136.122602,126.204336 134.541504,118.04854 C132.93614,109.767818 132.669218,104.143569 132.639843,103.403276 C132.929754,103.429556 133.911874,103.514618 134.623241,103.52998 C135.636012,118.231995 138.388247,129.783034 140.521069,136.888885 C142.835245,144.600327 144.939971,148.885167 144.960405,148.927063 L145.095782,148.869932 C145.076625,148.81534 143.128987,143.34598 141.321836,135.061957 C139.657723,127.434307 137.776497,115.793255 138.255424,103.627484 C154.817365,104.186608 166.679434,103.160785 173.716471,102.200981 C181.356317,101.159162 185.120046,99.9674055 185.157083,99.9554714 L185.128986,99.8126434 C184.809702,99.835242 153.006382,102.052567 133.762449,100.485649 C133.361427,100.450228 133.029371,99.8071842 132.848017,98.7186445 L133.547889,98.3437369 L133.482755,98.2742908 C133.480201,98.2712438 133.195399,97.9624814 132.722857,97.4112288 C132.678158,96.001104 132.893994,94.8074428 133.26181,94.43609 C133.340993,94.3559794 133.417621,94.3159876 133.512129,94.3196694 C154.283521,94.7426941 169.528731,93.576456 169.679434,93.5645219 L169.681988,93.4186469 L166.430392,93.0546577 C166.531286,92.7678591 166.577263,92.4748396 166.565769,92.1824548 C166.545334,91.5931148 166.305232,91.0295472 165.888885,90.595731 L165.72158,90.4209096 L165.766279,90.678 C165.773942,90.7201501 165.781605,90.759888 165.782882,90.8000068 C165.793099,91.0615407 165.699868,91.309871 165.518514,91.5001813 C165.334606,91.6937926 165.085564,91.8025958 164.816088,91.8069124 C164.804594,91.8072933 164.793099,91.8075472 164.781605,91.8075472 C164.245207,91.8075472 163.814811,91.3942982 163.791822,90.8525675 C163.784159,90.504575 163.969345,90.173468 164.274581,89.9900134 L164.481477,89.8661022 L164.240098,89.8540411 C164.21711,89.8528985 164.194121,89.8504863 164.171133,89.8482011 C164.130264,89.8440114 164.086841,89.8395679 164.042141,89.8413453 C162.696037,89.8800676 161.63218,91.0003469 161.670494,92.3386134 C161.671771,92.3962524 161.675603,92.4557958 161.684543,92.5240993 L157.246484,92.0273119 C157.97573,91.4322587 161.610469,88.6155638 164.802039,88.8416763 L164.803316,88.8416763 C169.02043,89.1349498 172.08301,93.3447572 172.113661,93.3871613 L172.137927,93.4216939 L185.03831,92.1962932 L184.945078,92.0887596 C184.927198,92.0683194 183.132818,90.0341949 180.521068,88.7691832 C180.655168,83.4310981 178.126432,79.1725388 173.005104,76.1106875 C171.220941,75.0450003 168.223495,73.6060559 164.00255,72.7455331 C172.112384,71.226605 179.757339,75.6450048 180.191566,76.498037 L180.277135,76.6666375 L180.32822,76.4847064 C184.537671,61.5013519 181.448271,51.5991191 178.721579,42.8624896 C178.446994,41.9815265 178.163469,41.0707283 177.896547,40.1848139 C175.915704,33.6210742 172.874836,27.6616557 168.856956,22.4728735 C165.642397,18.3200703 161.799485,14.6497083 157.434223,11.5620719 C150.002551,6.30347532 143.545335,4.53746118 143.480201,4.52100739 Z" id="path32" fill="#0E1B3B"></path>
                        <path d="M174.629625,117.074009 C198.333328,135.93416 193.615576,158.043933 193.615576,158.043933 C193.615576,158.043933 202.581093,130.369581 175.630902,114.88398 C175.306509,115.710859 174.818642,116.52428 174.629625,117.074009" id="path34" fill="#9AA0C3"></path>
                        <path d="M168.598974,128.188439 C172.266918,122.463766 174.717748,116.913534 174.717748,116.913534 C174.717748,116.913534 199.394631,129.376768 193.615576,158.043933 C194.445717,136.537211 170.416343,128.973041 168.598974,128.188439" id="path36" fill="#0E1B3B"></path>
                        <path d="M120.245208,124.620278 C119.885948,123.903218 119.156063,122.662075 118.449933,121.588643 C95.4731777,128.807995 97.312769,151.433218 97.312769,151.433218 C97.312769,151.433218 99.4180052,131.552832 120.245208,124.620278" id="path38" fill="#FFFFFF"></path>
                        <path d="M117.0613,88.080181 C117.917877,88.423349 118.896421,89.0102769 120.914684,89.2780317 C124.904722,86.008096 128.245208,84.4975471 135.31545,83.9269969 C129.744569,82.2549572 121.727072,82.5107781 117.0613,88.080181" id="path40" fill="#FFFFFF"></path>
                        <path d="M176.463597,112.945582 L178.049804,108.93129 C178.049804,108.93129 201.357594,119.402423 196.776496,148.284655 C197.569599,122.092033 176.463597,112.945582 176.463597,112.945582" id="path42" fill="#0E1B3B"></path>
                        <path d="M135.320559,95.3011833 C134.206893,95.2825205 133.295016,96.1479946 133.295016,97.231329 C133.295016,98.3238045 134.206893,99.2455211 135.334607,99.2743406 C135.879946,99.288433 136.372921,99.0902512 136.736906,98.759779 C136.219665,99.8525083 135.076625,100.591532 133.742015,100.55281 C131.920814,100.501265 130.453381,99.0181389 130.45849,97.2446597 C130.45849,95.4719421 131.920814,94.0761635 133.742015,94.1334217 C134.93614,94.1654151 135.974454,94.8123942 136.551721,95.7507424 C136.209447,95.4866693 135.786714,95.3175609 135.320559,95.3011833" id="path44" fill="#0E1B3B"></path>
                        <path d="M166.54278,97.2479606 C166.54278,96.0005961 165.514683,94.9643632 164.243929,94.9307192 C162.964236,94.8870456 161.934862,95.87021 161.934862,97.107037 C161.934862,98.3461491 162.964236,99.3860639 164.243929,99.4161529 C165.514683,99.4595727 166.54278,98.4793283 166.54278,97.2479606" id="path46" fill="#FFFFFF"></path>
                        <path d="M164.661554,95.4224284 C163.618131,95.3936089 162.773942,96.1912874 162.773942,97.2082226 C162.773942,98.2202066 163.618131,99.0759049 164.661554,99.0997731 C165.338438,99.1175472 165.928476,98.7793305 166.260532,98.2621028 C165.916982,99.5286379 164.727965,100.441721 163.312895,100.40173 C161.625794,100.353232 160.27075,98.9853837 160.27075,97.331753 C160.27075,95.6964042 161.620686,94.3958443 163.312895,94.4476432 C164.394632,94.481795 165.343546,95.065295 165.885053,95.9110906 C165.555551,95.6222606 165.130264,95.4349973 164.661554,95.4224284" id="path48" fill="#0E1B3B"></path>
                        <path d="M178.168578,94.9261488 C177.183904,94.8930127 176.3908,95.6527306 176.378029,96.6074564 C176.3908,97.5630709 177.183904,98.3672242 178.158361,98.395028 C178.687096,98.4101361 179.154529,98.1993854 179.481477,97.8567252 C179.070238,98.9127636 178.012767,99.6459473 176.777773,99.6021467 C175.189012,99.5646941 173.899102,98.2712438 173.90421,96.7130856 C173.899102,95.1589901 175.183904,93.9385408 176.777773,93.9864041 C177.736905,94.0147157 178.588757,94.4996961 179.114938,95.2215805 C178.840353,95.0444738 178.517237,94.934655 178.168578,94.9261488" id="path50" fill="#0E1B3B"></path>
                        <path d="M134.357596,92.4321816 C134.363981,92.3499127 134.37803,92.2695481 134.375476,92.1852479 C134.357596,91.5811807 134.104722,91.0452901 133.713917,90.6420708 C133.724135,90.6932349 133.733075,90.7442721 133.734352,90.7978485 C133.756063,91.3824911 133.283522,91.8707724 132.702423,91.8801673 C132.108554,91.8998458 131.616855,91.449525 131.595144,90.8556145 C131.583649,90.4625519 131.795654,90.1176064 132.112385,89.9271691 C132.048528,89.9239951 131.985948,89.912315 131.920814,89.9146002 C130.606638,89.9523068 129.584927,91.033356 129.627072,92.3364551 C129.630904,92.4659525 129.652615,92.5901176 129.675603,92.713394 C127.803317,92.8070892 125.838311,92.8814867 123.972283,92.9070053 C126.401657,90.2655127 129.116216,88.678662 131.854403,88.7144642 C134.913151,88.745442 138.996165,92.0708585 138.996165,92.0708585 C138.996165,92.0708585 137.093228,92.2432678 134.357596,92.4321816" id="path52" fill="#FFFFFF"></path>
                        <path d="M121.481862,126.235187 C116.505361,127.876122 112.143803,130.355616 108.518005,133.604476 C105.617239,136.204581 103.178158,139.299822 101.268324,142.806408 C98.0150678,148.778522 97.4206872,153.938104 97.4150678,153.990157 L97.2679414,153.985079 C97.2670474,153.960956 97.23282,153.004961 97.3528711,151.440836 L97.2392057,151.439566 C97.234608,151.382435 96.8057447,145.692168 99.195783,139.193177 C100.59987,135.375544 102.687609,132.028925 105.400891,129.246001 C108.792207,125.768996 113.174965,123.169019 118.427711,121.518689 L118.480968,121.502058 L118.511619,121.548524 C118.840227,122.047978 119.181223,122.595422 119.489014,123.113031 C119.637673,123.069484 119.784416,123.023779 119.934352,122.98201 L119.985821,122.96779 L120.015706,123.011845 C120.530137,123.776514 120.874965,124.611391 121.152104,125.282366 C121.288375,125.612076 121.405872,125.896716 121.524646,126.132859 L121.562704,126.208526 L121.481862,126.235187" id="path54" fill="#9AA0C3"></path>
                        <path d="M137.054914,97.3406401 C137.054914,96.642116 136.469984,96.0718197 135.770112,96.0522681 C135.056191,96.0346209 134.49425,96.575209 134.48531,97.2692895 C134.48531,97.9543561 135.056191,98.534809 135.770112,98.5524562 C136.469984,98.5758165 137.054914,98.030531 137.054914,97.3406401" id="path56" fill="#FFFFFF"></path>
                        <path d="M149.655169,95.7575981 C148.611746,95.7296673 147.772666,96.5183317 147.768834,97.5357748 C147.772666,98.5524562 148.611746,99.3935544 149.655169,99.4265635 C150.164747,99.440402 150.625794,99.2551699 150.965513,98.9437414 C150.486586,99.9609306 149.427838,100.647521 148.19029,100.605878 C146.498081,100.567156 145.139205,99.1991814 145.139205,97.5451697 C145.139205,95.9061392 146.500635,94.6177673 148.19029,94.6669001 C149.286075,94.6966083 150.245207,95.2905188 150.781605,96.1540886 C150.467429,95.9152802 150.080456,95.7650886 149.655169,95.7575981" id="path58" fill="#0E1B3B"></path>
                        <path d="M151.245207,97.6067445 C151.249038,96.9414834 150.690929,96.3772811 150.003828,96.3614114 C149.30651,96.3376702 148.75734,96.8593415 148.75734,97.5451697 C148.75734,98.203829 149.316727,98.7673965 150.003828,98.780854 C150.690929,98.8098005 151.245207,98.2774647 151.245207,97.6067445" id="path60" fill="#FFFFFF"></path>
                        <path d="M123.260661,96.7740256 C123.240482,95.7575981 122.381095,94.922213 121.344952,94.922213 C120.302807,94.9128181 119.488375,95.7341108 119.499103,96.7563784 C119.533458,97.7636648 120.383139,98.5982881 121.420814,98.5982881 C122.462704,98.6097144 123.291312,97.7889295 123.260661,96.7740256" id="path62" fill="#9AA0C3"></path>
                        <path d="M155.23499,83.4987669 C162.960405,87.4669728 166.955296,82.6722689 173.593865,90.2746537 C175.252869,89.9424041 177.41762,88.9539074 178.376752,88.0610103 C178.249038,85.6523591 174.592588,81.3585053 170.272026,80.8615909 C165.03831,80.3686121 163.043419,83.1754043 155.23499,83.4987669" id="path64" fill="#FFFFFF"></path>
                        <path d="M178.485308,89.2007142 C183.126432,84.9153666 187.848016,77.1880549 189.316726,67.2289448 C189.540225,73.4925552 186.657722,84.8149427 181.795653,91.1826589 C180.694759,90.5300936 178.927199,89.4189553 178.485308,89.2007142" id="path66" fill="#0E1B3B"></path>
                        <path d="M178.611745,89.1837018 C183.906764,84.2555648 187.845461,76.4320188 189.254146,68.0967042 C189.228603,71.1684582 188.551719,75.2171556 187.392077,79.1462584 C185.979561,83.9348683 183.985947,88.1717179 181.776496,91.0860437 C181.371643,90.8453309 180.883776,90.5469791 180.409957,90.2578952 C179.660276,89.799703 178.947633,89.3644903 178.611745,89.1837018 Z M189.243929,67.2182803 C187.96679,75.8800045 183.925921,84.0776963 178.4355,89.1468839 L178.356317,89.2191231 L178.452103,89.2663516 C178.724133,89.4008003 179.505743,89.8777823 180.333329,90.3829491 C180.828859,90.6858714 181.342269,90.9990773 181.757339,91.2456301 L181.813533,91.2792741 L181.854402,91.2269673 C184.090672,88.2974065 186.107275,84.0217078 187.53384,79.1873929 C188.809702,74.8629422 189.503188,70.3914739 189.3908,67.2264056 L189.243929,67.2182803 Z" id="path68" fill="#0E1B3B"></path>
                        <path d="M150.787991,70.9057816 C151.347378,71.4723961 153.835245,74.6133424 158.951465,76.0387022 C158.927199,76.1805145 159.080456,80.7242221 154.321835,80.0678481 C153.994888,77.7680001 153.00255,74.9746654 153.00255,74.9746654 C153.00255,74.9746654 154.231158,82.7380333 149.890162,91.613682 C148.344824,91.5444898 146.924645,91.5720397 146.13665,91.5720397 C141.878668,82.9475143 143.579818,74.9746654 143.579818,74.9746654 C143.579818,74.9746654 142.084288,78.9934007 142.084288,79.6177812 C136.510852,80.7242221 137.463598,75.4684059 137.463598,75.4684059 C137.463598,75.4684059 142.164747,75.4684059 146.162193,71.1741713 C147.260533,70.0568121 149.720303,69.7961668 150.787991,70.9057816" id="path70" fill="#FFFFFF"></path>
                        <path d="M167.911873,61.4127351 C167.664108,61.887051 167.049804,62.9091916 166.791822,63.3808413 C168.040864,62.9540078 169.817365,62.4390653 171.128987,62.4390653 C167.776496,64.4394189 164.708808,68.4638673 163.504466,70.163203 C161.937416,73.0151924 160.805871,73.763611 158.22605,73.6200213 C154.791822,73.4529443 152.284798,71.5808185 150.282244,70.6266005 C149.338438,70.3034919 147.776497,70.0232951 146.380584,70.9789096 C145.33333,71.4702378 144.513406,71.8319418 143.841631,72.0993158 C142.384415,72.7283937 140.505744,73.3120207 137.840354,73.505505 C135.66794,73.6356371 134.455935,73.0734662 132.890163,70.5894018 C131.777774,69.0547309 128.45849,64.7302802 124.951849,62.6289948 C126.260916,62.6289948 128.048528,63.1487617 129.302679,63.5764839 C129.04342,63.1090238 128.42273,62.0705056 128.178796,61.6011411 C126.522091,58.3855434 121.679946,52.8407704 119.366664,51.5394487 C134.139205,54.9266939 134.275859,67.8940789 139.464875,68.3507476 C141.531286,68.7594261 144.215833,67.5665267 147.467429,67.431824 C147.665386,67.4037663 149.311618,67.374058 149.734351,67.4503599 C152.538949,67.6986902 154.744568,68.5253151 156.6143,68.1603103 C161.809702,67.7041494 161.877391,55.2120959 176.716471,51.3490114 C174.418897,52.6432234 169.56066,58.1916782 167.911873,61.4127351" id="path72" fill="#FCD006"></path>
                        <path d="M155.592589,68.3254829 C155.948911,68.3254829 156.292461,68.297679 156.628349,68.2322956 C158.662831,68.0539193 159.936139,66.0338871 161.547889,63.4765678 C164.079179,59.4577056 167.530009,53.9799665 176.261809,51.5474471 C173.825028,53.2122501 169.403572,58.3364106 167.845462,61.379472 C167.7037,61.6524322 167.441886,62.1022452 167.19029,62.5374579 C167.007659,62.8505369 166.836522,63.1462225 166.726688,63.3456739 L166.636011,63.5114813 L166.814811,63.4501605 C167.982116,63.0516387 169.595143,62.5817663 170.856956,62.5194298 C167.570877,64.5783112 164.591311,68.5019548 163.44444,70.1210529 C161.887608,72.9531098 160.768834,73.6880709 158.229881,73.5468934 C155.583649,73.4180308 153.457212,72.2516657 151.7484,71.3143332 C151.242653,71.0373103 150.765003,70.7756495 150.314172,70.5605822 C149.260533,70.1991322 147.722857,69.9708613 146.338438,70.9186044 C145.312895,71.3987604 144.484032,71.7646539 143.814811,72.0312662 C141.975731,72.824755 140.076625,73.2696166 137.833968,73.432377 C135.572155,73.5682223 134.430393,72.894836 132.952743,70.5504256 C131.740737,68.8785129 128.605361,64.8332433 125.223113,62.7093593 C126.482883,62.7720767 128.103445,63.2447421 129.278413,63.6458031 L129.45849,63.7073779 L129.366536,63.5410626 C129.263087,63.3522757 129.099614,63.0701746 128.925923,62.7716958 C128.674326,62.3380066 128.389524,61.8462974 128.24393,61.5674972 C126.666536,58.5051381 122.208937,53.3503807 119.787609,51.7150319 C128.541504,53.8773842 132.008937,59.4804311 134.550444,63.5895606 C136.159639,66.1908075 137.43167,68.2453723 139.458489,68.4237485 C140.616855,68.6536699 141.955297,68.3846454 143.504466,68.0734708 C144.692206,67.8347894 146.038311,67.5643684 147.469984,67.5050789 C147.655169,67.4791794 149.300124,67.4466781 149.720303,67.5225991 C150.78416,67.6169291 151.736906,67.7894653 152.659,67.9562884 C153.73052,68.1502806 154.697314,68.3254829 155.592589,68.3254829 Z M176.697314,51.2781687 C167.56066,53.6568578 164.012767,59.2874546 161.422729,63.3986155 C159.832691,65.9215291 158.577263,67.9143922 156.606637,68.0873093 C155.450826,68.3126601 154.168579,68.0807075 152.684543,67.8120639 C151.759894,67.644606 150.803317,67.471435 149.740737,67.3773589 C149.32439,67.3020727 147.680712,67.3277183 147.457212,67.3592039 C146.020431,67.4184934 144.66794,67.6899301 143.475092,67.9296272 C141.941248,68.2377548 140.618132,68.5038592 139.478924,68.2788892 C137.518515,68.1058452 136.264364,66.0789573 134.67688,63.5127509 C132.077902,59.3138619 128.52107,53.5631626 119.383266,51.4680982 L119.330265,51.6033087 C121.613662,52.8877449 126.456446,58.4190604 128.113662,61.6346581 C128.260533,61.9167592 128.545335,62.4097379 128.798209,62.8449507 C128.925923,63.0644615 129.047251,63.2750851 129.144314,63.445717 C127.887609,63.0257392 126.201529,62.5557399 124.951849,62.5557399 L124.686715,62.5557399 L124.91379,62.6917121 C126.062194,63.3800796 129.132819,65.5315135 132.830137,70.6323136 C134.340993,73.0290308 135.512129,73.7189217 137.844186,73.5786329 C140.104722,73.4147299 142.019154,72.9660595 143.871005,72.1664767 C144.541503,71.8996105 145.372921,71.5327013 146.411235,71.0453087 C147.756063,70.1263852 149.24393,70.3488159 150.257978,70.6959197 C150.697314,70.9060355 151.173687,71.1668077 151.67688,71.4428149 C153.398464,72.387257 155.54278,73.5628901 158.222218,73.6932762 C160.832691,73.8383894 161.982116,73.0871777 163.5696,70.1983705 C164.733074,68.5556581 167.813533,64.5025171 171.166024,62.5019096 L171.394632,62.3658104 L171.128987,62.3658104 C169.874836,62.3658104 168.197952,62.8327627 166.94891,63.2502013 C167.051081,63.0692859 167.18135,62.8448237 167.318003,62.6107128 C167.570877,62.1741035 167.832691,61.7225131 167.977007,61.446379 L167.977007,61.4459981 C169.620685,58.2372562 174.458489,52.7049251 176.752231,51.4128714 L176.697314,51.2781687 Z" id="path74" fill="#FCD006"></path>
                        <path d="M167.661554,53.3027713 C166.914428,54.3315138 166.157084,55.2079063 165.338438,56.0479888 C166.661554,53.4482655 165.300124,51.8713175 163.665385,51.7901912 C160.141758,51.5438922 157.346101,55.2929683 157.346101,55.2929683 C157.346101,55.2929683 157.584926,52.8703517 160.750954,48.1089108 C155.936139,52.3940044 153.54278,57.2838001 153.54278,57.2838001 C153.54278,57.2838001 155.312895,50.055942 158.398463,44.5439242 C153.865897,48.4864845 148.597697,60.4054486 148.597697,60.4054486 C148.597697,60.4054486 145.435501,51.4340734 140.489141,44.1589869 C142.546612,49.1181017 143.439332,56.873725 143.439332,56.873725 C143.439332,56.873725 141.983394,51.8336109 137.720303,47.3429719 C140.209447,52.5935828 140.020431,55.0226743 140.020431,55.0226743 C140.020431,55.0226743 138.362704,52.2897718 135.100891,51.4306455 C132.771389,50.7724941 130.587481,52.2360684 130.867174,55.3229304 C130.255425,54.5869537 129.518515,53.5629087 128.781606,52.2246422 C126.232947,46.9369595 126.599358,41.2120328 128.0166,36.1653168 C129.062577,32.8910645 130.347379,29.9227815 131.597698,27.4978796 C132.878668,25.1275697 134.094505,23.3361893 134.750954,22.419551 L135.256702,21.7352462 C137.988502,23.7132552 142.524901,28.0742699 145.197953,37.0464068 C145.010213,32.9443869 144.435501,31.036205 144.435501,31.036205 C144.435501,31.036205 148.19923,35.4213417 149.025539,41.797691 C150.348655,35.5533782 153.767557,31.762406 154.224773,31.2253727 C153.356318,34.1860383 153.07407,37.2355746 153.07407,37.2355746 C153.07407,37.2355746 156.819919,26.0543647 162.476369,21.6704975 C163.609191,23.0505333 165.481477,26.0251643 167.228604,29.8872332 C166.636011,29.5114368 166.015322,29.1546843 165.357595,28.8258625 C169.128987,34.8271773 172.745845,45.6597599 167.661554,53.3027713" id="path76" fill="#FCD006"></path>
                        <path d="M153.144313,37.2584271 C153.153253,37.2317658 154.098336,34.4285285 155.72158,31.1276149 C157.20817,28.1047398 159.579817,24.0369987 162.464875,21.7720641 C163.513406,23.0683075 165.315449,25.8804319 167.060021,29.6942567 C166.499357,29.3463912 165.951465,29.0404219 165.3908,28.7611138 L165.155807,28.6430427 L165.295015,28.8652195 C168.638565,34.1860383 172.887607,45.3129101 167.600251,53.2610021 C166.98467,54.1092099 166.339715,54.8856864 165.591311,55.6777787 C166.048527,54.5897468 166.062576,53.5959179 165.624517,52.8462296 C165.234989,52.1805877 164.504466,51.7584516 163.669217,51.7169363 C163.556829,51.7090649 163.445717,51.7053831 163.334606,51.7053831 C160.47126,51.7050022 158.122601,54.2436587 157.467429,55.0241978 C157.629626,54.263845 158.291184,51.9416523 160.812257,48.1492835 L160.702423,48.0541918 C156.874836,51.4604807 154.552997,55.2899213 153.772665,56.6962374 C154.27075,54.8434093 155.931031,49.1003275 158.46232,44.5795994 L158.349932,44.4886973 C154.149421,48.1425547 149.265641,58.7471204 148.60536,60.2090443 C148.13665,58.9271472 145.070239,50.7660193 140.550443,44.1179794 L140.420175,44.1870446 C142.084288,48.1951154 142.992334,54.1032429 143.27075,56.1515867 C142.7037,54.6046009 141.070239,50.7643688 137.773943,47.2925695 L137.653892,47.3742036 C139.461044,51.1876475 139.938694,53.7582974 139.952742,54.7899599 C139.498081,54.1452661 137.863343,52.0825759 135.118771,51.3596759 C133.943803,51.0274262 132.796932,51.2258619 131.973177,51.9035649 C131.126434,52.6006924 130.706255,53.7282083 130.776497,55.0966909 C130.086842,54.2407386 129.438056,53.2637952 128.84674,52.1893478 C126.644697,47.6213913 126.38863,42.2355699 128.086842,36.1856301 C129.031925,33.2313125 130.268196,30.2376378 131.662832,27.5308887 C132.959128,25.132648 134.191568,23.3260327 134.81098,22.4627168 L135.273304,21.8380824 C138.38697,24.1106344 142.601529,28.5909898 145.12771,37.0667202 L145.272027,37.0425981 C145.128987,33.9321218 144.758617,32.0620274 144.591312,31.3485222 C145.39591,32.38831 148.251593,36.4014591 148.952742,41.8070859 L149.098336,41.8127991 C149.900379,38.0239851 151.659,34.3828235 154.061299,31.5300724 C153.273304,34.359971 153.003828,37.2000263 153.001273,37.2292267 L153.144313,37.2584271 Z M162.487863,21.568931 L162.430392,21.6120968 C159.49808,23.8859184 157.090673,28.006982 155.58748,31.0654054 C154.408681,33.463646 153.58748,35.5990832 153.219664,36.6045923 C153.351209,35.5546478 153.674326,33.3658882 154.296292,31.245686 L154.168579,31.1783982 L154.10983,31.2469556 C151.696037,34.0451147 149.905488,37.6316842 149.042142,41.3825377 C148.11877,35.2753398 144.527455,31.0311267 144.491695,30.9879609 L144.363981,31.0565183 C144.370367,31.0742925 144.8825,32.8161591 145.093228,36.4522424 C142.523624,28.2532809 138.367813,23.8973446 135.300124,21.6768455 L135.241376,21.6336797 L134.692206,22.3763852 C134.070239,23.2435098 132.832691,25.0564731 131.532564,27.4623313 C130.134096,30.1779675 128.893994,33.1792596 127.946357,36.1437339 C126.236651,42.2313803 126.495782,47.6517343 128.715195,52.2563817 C129.355041,53.4181764 130.058745,54.464439 130.809703,55.3695241 L130.961683,55.5524709 L130.939971,55.3163286 C130.81098,53.8927462 131.212002,52.7209218 132.067685,52.0165577 C132.853126,51.3699595 133.951465,51.1820613 135.080456,51.5011073 C138.277136,52.3433481 139.939971,55.0334657 139.956574,55.0605078 L140.075348,55.2566583 L140.093228,55.0283874 C140.10089,54.9310104 140.246484,52.650587 137.984671,47.7350189 C141.943802,52.0744506 143.353764,56.8449055 143.367813,56.8939114 L143.512129,56.8653458 C143.503189,56.7910752 142.671772,49.688271 140.81098,44.7728298 C145.477646,51.8504963 148.496803,60.3424774 148.527455,60.4298246 L148.590035,60.6051539 L148.665386,60.4350299 C148.716471,60.3188631 153.726688,49.0520834 158.120047,44.8950906 C155.195398,50.3009713 153.487863,57.195818 153.471261,57.2665337 L153.609192,57.3159205 C153.63218,57.2685651 155.908042,52.681057 160.374198,48.5504715 C157.530009,52.9584607 157.274581,55.2622444 157.272027,55.2857317 L157.246484,55.54917 L157.404849,55.336515 C157.432946,55.2993162 160.214555,51.6198133 163.660277,51.8633191 C164.446995,51.9024222 165.132818,52.2972623 165.496803,52.9198654 C165.962959,53.717036 165.882499,54.8161133 165.272027,56.0148527 L165.3908,56.098899 C166.278412,55.1887356 167.017876,54.3138666 167.721579,53.3456832 L167.722857,53.3431441 C172.978284,45.4430422 168.897825,34.445033 165.559383,29.0112215 C166.102167,29.2905295 166.638565,29.599038 167.189012,29.9494427 L167.397186,30.0814792 L167.296292,29.8567632 C165.48914,25.8613882 163.600251,22.9248447 162.532563,21.623523 L162.487863,21.568931 Z" id="path78" fill="#FCD006"></path>
                        <path d="M163.478923,70.2033218 C161.925922,73.0177315 160.798208,73.7573901 158.22605,73.6200213 C157.13665,73.5674606 156.135373,73.3393167 155.222218,73.0261108 C155.782882,73.1642413 156.390801,73.259206 157.03831,73.2917073 C159.517237,73.4253943 160.606637,72.7078265 162.10983,69.9855885 C163.021707,68.3683948 166.762448,63.7984069 171.128987,62.4390653 C167.762448,64.4527495 164.665385,68.5206177 163.478923,70.2033218" id="path80" fill="#FFFFFF"></path>
                        <path d="M167.610468,61.8982233 C167.42656,62.2436766 167.05619,62.8858313 166.758617,63.4087721 C166.103444,63.5835936 165.454657,63.789012 164.918259,63.9748788 C165.177518,63.5036099 165.789268,62.4536655 166.034479,61.9778261 C167.591311,58.9082304 171.888885,53.49816 176.716471,51.3490114 C174.325666,52.7075912 169.316726,58.5187226 167.610468,61.8982233" id="path82" fill="#FFFFFF"></path>
                        <path d="M156.946356,60.6908507 C154.754785,60.2914401 152.389524,61.2316927 148.407404,61.1749424 C145.090673,61.1287296 140.999996,59.9392581 138.977008,61.1473924 C137.572155,61.9731287 138.69476,64.9105608 140.411235,65.7464537 C142.026816,66.5396886 145.989779,65.8810294 148.597697,65.9093411 C151.157084,65.9465399 154.149421,66.4496753 156.334607,65.6643118 C158.742014,64.4829656 159.09195,60.9234381 156.946356,60.6908507" id="path84" fill="#FFFFFF"></path>
                        <path d="M165.206892,39.9867591 C165.206892,39.9867591 187.68965,47.1214298 187.107275,66.9388453 C187.900378,63.4901523 194.971898,43.8688873 164.362703,32.6409568 C165.10089,35.7895205 165.206892,39.9867591 165.206892,39.9867591" id="path86" fill="#FCD006"></path>
                        <path d="M165.279689,39.9334366 C165.264364,39.4484562 165.126433,35.6714494 164.464875,32.7577584 C176.656445,37.2533487 184.266917,43.6006246 187.085564,51.6233681 C189.349931,58.0668783 187.853124,63.7789823 187.214555,66.2179765 C187.206892,66.2465421 187.199229,66.2748538 187.191566,66.3025307 C187.210723,62.0080422 186.136649,57.9835937 183.994887,54.3302442 C182.197952,51.2645842 179.648782,48.4529676 176.420174,45.9732197 C171.200507,41.964768 165.850571,40.1226044 165.279689,39.9334366 Z M164.259255,32.5254248 L164.291184,32.658731 C165.019153,35.7628593 165.131541,39.9461324 165.132818,39.9880287 L165.134095,40.0400815 L165.183904,40.0565861 C165.240098,40.0743602 170.85951,41.8866887 176.333329,46.0920526 C179.546611,48.5599933 182.081732,51.3573906 183.86845,54.4061652 C186.100889,58.2152925 187.166023,62.4311939 187.034478,66.9368139 L187.180072,66.9552229 C187.222218,66.7685943 187.284797,66.5305477 187.357594,66.2549214 C187.999995,63.8029774 189.504465,58.0606574 187.224772,51.575124 C184.380583,43.48103 176.697314,37.088303 164.388246,32.5723994 L164.259255,32.5254248 Z" id="path88" fill="#FCD006"></path>
                        <path d="M180.257978,82.6150107 C188.869727,74.489685 198.178795,44.2257669 153.185181,36.1043769 C192.623239,49.8761691 183.56066,74.2625568 180.257978,82.6150107" id="path90" fill="#0E1B3B"></path>
                        <path d="M180.450826,82.325546 C181.303955,80.1601467 182.735628,76.3996444 183.334606,71.9568687 C184.058744,66.5864093 183.371643,61.5729564 181.291183,57.0555292 C177.291183,48.3684134 168.140481,41.4032319 154.086842,36.3455975 C163.618131,38.1611 171.251592,41.1149098 176.785436,45.1317407 C181.655168,48.6665113 184.88633,52.9983255 186.388246,58.006954 C188.100889,63.7137258 187.181349,69.0100416 186.109829,72.44807 C184.893993,76.3454333 182.791822,80.0077969 180.450826,82.325546 Z M153.197953,36.0320107 L153.159639,36.1729343 C167.673048,41.2409793 177.09195,48.2872871 181.157084,57.1165961 C186.054912,67.7532822 181.943801,78.1490017 180.189012,82.5882226 L180.307786,82.6682062 C182.763725,80.3513458 184.985947,76.5469159 186.250315,72.4914897 C187.32822,69.0340367 188.252869,63.7071239 186.530008,57.9650578 C185.017875,52.9249437 181.768833,48.5674839 176.872282,45.0132887 C171.14559,40.8555341 163.180073,37.8335478 153.197953,36.0320107 Z" id="path92" fill="#0E1B3B"></path>
                        <path d="M161.045973,31.8614334 C187.213278,41.570055 188.798207,57.9687396 188.798207,57.9687396 C188.798207,57.9687396 188.722856,30.0230784 147.300124,19.0703933 C163.845462,27.9803208 167.295015,32.8732903 167.295015,32.8732903 C167.295015,32.8732903 163.266918,31.6481436 161.045973,31.8614334" id="path94" fill="#0E1B3B"></path>
                        <path d="M167.478923,33.0053269 L167.355041,32.8313941 C167.321835,32.7818804 163.786714,27.9333462 147.885054,19.3027269 C157.061299,21.7898383 164.906765,25.3294333 171.210724,29.8250236 C176.362703,33.4979248 180.503188,37.8157736 183.51596,42.6571981 C186.195398,46.9646364 187.469983,50.8981828 188.066407,53.4396323 C188.386968,54.804687 188.551719,55.9249663 188.636011,56.7099489 C188.537671,56.3015244 188.401017,55.8035942 188.212,55.2319014 C187.702422,53.6861852 186.694759,51.2661077 184.795653,48.5142884 C182.661554,45.4229828 179.85951,42.5509341 176.466151,39.977872 C172.302678,36.8216908 167.233712,34.1098633 161.393355,31.9134862 C163.625794,31.8398505 167.234989,32.9316911 167.273304,32.9431174 L167.478923,33.0053269 Z M147.319281,18.9992967 L147.265641,19.135142 C161.872282,27.0014729 166.298846,31.7827193 167.094504,32.7374451 C166.215832,32.4873374 162.94891,31.6062474 161.03831,31.7877976 L161.019153,31.9299908 C166.982116,34.1416029 172.148144,36.8889787 176.376752,40.0946736 C179.757339,42.6580869 182.549165,45.5187093 184.674325,48.5971921 C186.563214,51.3347921 187.564491,53.7410311 188.071515,55.2776064 C188.620685,56.9396163 188.724133,57.9655657 188.72541,57.9758493 L188.872281,57.9684857 C188.872281,57.9509655 188.860787,56.1815488 188.212,53.4143676 C187.613022,50.8625075 186.335883,46.9128375 183.646228,42.5881329 C180.623239,37.7281724 176.47126,33.3950886 171.302678,29.7094917 C164.845462,25.1034476 156.776497,21.5003735 147.319281,18.9992967 Z" id="path96" fill="#0E1B3B"></path>
                        <path d="M179.461043,29.058196 L179.800762,29.058196 C180.187735,29.058196 180.514683,29.1991196 180.514683,29.559681 C180.514683,29.8161366 180.32822,30.0725921 179.800762,30.0725921 C179.648782,30.0725921 179.54278,30.0598963 179.461043,30.0484701 L179.461043,29.058196 Z M179.461043,27.4407484 L178.992333,27.4407484 L178.992333,30.3633265 C179.238821,30.3976052 179.472537,30.4331535 179.82375,30.4331535 C180.269472,30.4331535 180.561937,30.3392044 180.736905,30.2122462 C180.91315,30.0840184 181.006381,29.8859636 181.006381,29.6066555 C181.006381,29.2219721 180.748399,28.9896386 180.432946,28.8956895 L180.432946,28.872837 C180.690928,28.8258625 180.865896,28.593529 180.924644,28.1631406 C180.994887,27.7086302 181.06513,27.5334279 181.112384,27.4407484 L180.620685,27.4407484 C180.550442,27.5334279 180.4802,27.8013097 180.421451,28.1859931 C180.351209,28.5579807 180.163469,28.6976347 179.789268,28.6976347 L179.461043,28.6976347 L179.461043,27.4407484 Z M179.952741,31.1783982 C178.793099,31.1783982 177.844185,30.1881241 177.844185,28.9655165 C177.844185,27.7200564 178.793099,26.7424782 179.964236,26.7424782 C181.135372,26.731052 182.072792,27.7200564 182.072792,28.9540903 C182.072792,30.1881241 181.135372,31.1783982 179.964236,31.1783982 L179.952741,31.1783982 Z M179.964236,31.5859341 C181.404849,31.5859341 182.552997,30.4204576 182.552997,28.9655165 C182.552997,27.4877229 181.404849,26.3349423 179.952741,26.3349423 C178.512128,26.3349423 177.340992,27.4877229 177.340992,28.9655165 C177.340992,30.4204576 178.512128,31.5859341 179.952741,31.5859341 L179.964236,31.5859341 Z" id="path98" fill="#0E1B3B"></path>
                        <path d="M179.53384,29.1318318 L179.800762,29.1318318 C180.039587,29.1318318 180.441886,29.1864238 180.441886,29.559681 C180.441886,29.838989 180.208169,29.9989564 179.800762,29.9989564 C179.689651,29.9989564 179.604082,29.9926085 179.53384,29.984991 L179.53384,29.1318318 Z M179.800762,28.9858298 L179.388246,28.9858298 L179.388246,30.1119492 L179.450826,30.1208363 C179.536394,30.1322625 179.644951,30.1449583 179.800762,30.1449583 C180.380583,30.1449583 180.588757,29.8427978 180.588757,29.559681 C180.588757,29.2003892 180.293738,28.9858298 179.800762,28.9858298 Z M180.660276,27.5131145 L180.999995,27.5131145 C180.955296,27.6311857 180.90421,27.8178143 180.853124,28.1517144 C180.816087,28.4195962 180.711362,28.748418 180.420174,28.8004708 L180.360149,28.8118971 L180.360149,28.9502815 L180.412511,28.9655165 C180.5696,29.0112215 180.933584,29.1673801 180.933584,29.6066555 C180.933584,29.8567632 180.855679,30.0357743 180.693482,30.1525758 C180.564491,30.2477945 180.307786,30.3595177 179.82375,30.3595177 C179.50702,30.3595177 179.288629,30.3315869 179.06513,30.2998473 L179.06513,27.5131145 L179.388246,27.5131145 L179.388246,28.7700009 L179.789268,28.7700009 C180.206892,28.7700009 180.41762,28.5998769 180.492971,28.1986889 C180.56066,27.7568743 180.624517,27.581672 180.660276,27.5131145 Z M181.229881,27.3683822 L180.583648,27.3683822 L180.561937,27.3975826 C180.482754,27.5004187 180.411234,27.7619526 180.348654,28.1745668 C180.287352,28.502119 180.135372,28.6252685 179.789268,28.6252685 L179.53384,28.6252685 L179.53384,27.3683822 L178.919536,27.3683822 L178.919536,30.425536 L179.003827,30.4382318 C179.247761,30.4725105 179.477646,30.5055197 179.82375,30.5055197 C180.238821,30.5055197 180.5696,30.4242664 180.780328,30.270647 C180.979561,30.124645 181.080455,29.9011986 181.080455,29.6066555 C181.080455,29.2867208 180.908041,29.0264565 180.611745,28.8868024 C180.777773,28.7966621 180.93997,28.5973377 180.997441,28.1720277 C181.06513,27.7327523 181.132818,27.5626283 181.177518,27.4724879 L181.229881,27.3683822 Z M179.952741,31.1047624 C178.831413,31.1047624 177.918259,30.1449583 177.918259,28.9655165 C177.918259,27.7594135 178.817365,26.8148444 179.964236,26.8148444 C179.970621,26.8148444 179.977007,26.8148444 179.983393,26.8148444 C180.49808,26.8148444 180.98467,27.0154384 181.356317,27.3823476 C181.771388,27.7898835 181.999995,28.3484996 181.999995,28.9540903 C181.999995,30.13988 181.086841,31.1047624 179.964236,31.1047624 L179.952741,31.1047624 Z M179.98467,26.6688424 C178.748399,26.654877 177.771388,27.6705427 177.771388,28.9655165 C177.771388,30.2262116 178.749676,31.2507644 179.952741,31.2507644 L179.964236,31.2507644 C181.167301,31.2507644 182.145589,30.2211333 182.145589,28.9540903 C182.145589,28.3091426 181.901656,27.7149781 181.459766,27.2795114 C181.060021,26.8846714 180.536394,26.6688424 179.98467,26.6688424 Z M179.952741,31.5122983 C178.552997,31.5122983 177.413789,30.3696744 177.413789,28.9655165 C177.413789,27.5308887 178.528731,26.4073085 179.952741,26.4073085 C181.369089,26.4073085 182.478923,27.5308887 182.478923,28.9655165 C182.478923,30.3937964 181.374197,31.5122983 179.964236,31.5122983 L179.952741,31.5122983 Z M179.952741,26.2613066 C178.446994,26.2613066 177.268195,27.4496354 177.268195,28.9655165 C177.268195,30.4509276 178.472537,31.6583002 179.952741,31.6583002 L179.964236,31.6583002 C181.431669,31.6583002 182.625794,30.4509276 182.625794,28.9655165 C182.625794,27.4496354 181.452103,26.2613066 179.952741,26.2613066 Z" id="path100" fill="#0E1B3B"></path>
                    </g>
                </g>
            </g>
        </g>
    </g>
</svg>