<?xml version="1.0" encoding="UTF-8"?>
<svg width="200px" height="200px" viewBox="0 0 200 200" version="1.1" xmlns="http://www.w3.org/2000/svg" xmlns:xlink="http://www.w3.org/1999/xlink">
    <!-- Generator: Sketch 51.3 (57544) - http://www.bohemiancoding.com/sketch -->
    <title>aurora</title>
    <desc>Created with Sketch.</desc>
    <defs></defs>
    <g id="aurora" stroke="none" stroke-width="1" fill="none" fill-rule="evenodd">
        <g id="aurora_BGL" transform="translate(0.000000, 2.985075)">
            <g id="aurora">
                <g id="g10" transform="translate(99.999998, 97.575015) scale(-1, 1) rotate(-180.000000) translate(-99.999998, -97.575015) translate(0.000000, 0.256625)" fill-rule="nonzero">
                    <g id="g12">
                        <path d="M199.181741,27.0380095 C199.178566,27.0496956 199.175392,27.0612633 199.172217,27.072673 L199.741265,43.827228 L197.966265,45.6081743 C196.603567,46.9749745 195.173805,48.1435848 193.654757,49.1353243 L193.564678,49.2253389 C189.480154,53.3237657 184.803567,55.6791471 178.84563,56.6385129 C177.281742,56.8915802 175.865869,57.0143632 174.520234,57.0143632 C173.028964,57.0143632 171.641662,56.8509157 170.359123,56.5354699 L170.383726,57.2626929 L165.021821,57.8714757 C164.213488,57.9634643 163.393647,58.0443985 162.578171,58.1296754 C163.746028,61.9837205 164.35952,65.9123829 164.35952,69.8035393 L164.341663,113.74368 L176.635313,142.441748 L176.5619,142.441748 L168.577377,150.056665 L168.598012,150.104436 L136.103171,150.104436 L136.103171,186.638115 L136.03333,186.638115 L128.105156,194.279484 L128.066267,194.25698 L128.066267,194.300803 L59.12857,194.300803 L59.12857,166.517094 L17.9904361,109.011204 C15.830079,106.560675 13.0123013,102.506466 13.0123013,95.4908565 C13.0123013,89.9265344 15.2999599,84.9619148 19.289444,81.5089873 L26.0103565,75.0978176 C27.4941263,73.529669 29.2782929,72.2007696 31.3290468,71.1809992 C34.5494039,69.5796873 38.2440467,68.8011402 42.6238085,68.8011402 L55.62857,68.8011402 C56.9333319,62.9328216 59.4626969,57.2390049 63.0468238,52.0655356 L61.8571413,51.7919387 C57.6912684,50.8333624 53.4940463,49.7784548 49.381348,48.656431 L46.0539671,47.7491788 L45.4126973,45.0988813 C45.3289671,45.1300705 45.2464274,45.1640234 45.1615068,45.1928439 C44.1492052,45.5359257 43.0392846,45.7088485 41.8535704,45.7088485 L41.8531736,45.7088485 C39.2784117,45.7088485 36.7133324,44.9381974 34.0931738,44.0802953 C30.3106342,42.8457533 26.5055946,41.5255395 22.788928,40.1591341 L19.1071424,38.805836 L19.0832535,38.099498 C16.8857139,37.9829133 14.5359123,37.4050434 11.9275394,36.3378574 C8.5799601,34.9671487 6.05174588,33.3358319 4.1974999,31.3491944 C1.60559123,28.5678625 0.534630939,26.2005976 0.242435708,22.6126877 L0.231894835,22.4843775 L0.227244439,22.3560672 L0.212208725,21.9182332 C0.176556345,20.8419273 0.253441264,19.8438315 0.441623005,18.9251301 L0,5.72769058 L4.40103164,2.11064044 L8.44619027,0.69845783 C9.77273785,0.234875662 11.2475394,0 12.8294044,0 C14.9699203,0 17.3147615,0.412997135 19.9972217,1.26259259 C21.6779756,1.78601156 23.1415867,2.40350364 24.4216661,3.09008587 L30.0953167,4.68348203 C33.4388881,5.62235773 36.8387292,6.51298878 40.199999,7.33066065 L44.501983,8.37688269 L44.5031735,8.4150994 L50.8099194,9.70653219 C53.890078,10.3374633 57.0083319,10.9240978 60.0777763,11.4504461 L61.3353159,11.6658889 L62.3150778,11.8262965 C65.8519825,12.4058245 69.4309506,12.9254218 72.9523791,13.3711124 L73.713887,13.4674833 L74.5492045,13.5685128 C77.9837282,13.9842775 81.4460297,14.3423618 84.8400772,14.6329351 L86.0464264,14.7354649 L87.281347,14.8310856 C90.2912676,15.063189 93.3543627,15.2519433 96.3849182,15.3916632 L100.322617,15.5736664 L104.292855,15.6498235 C106.141664,15.685474 108.016267,15.7032005 109.86468,15.7032005 C111.438092,15.7032005 113.031743,15.6897773 114.601981,15.6645101 L117.882537,15.6108172 L121.045632,15.4896133 C124.167457,15.3696334 127.309521,15.0568722 130.384124,14.8409557 L131.493251,14.7627851 L132.628171,14.6739549 C136.16706,14.3975944 139.744441,14.05167 143.260314,13.6471571 L144.201187,13.5385869 L145.008727,13.4406368 C147.757933,13.1069117 150.569838,12.7247841 153.366663,12.3036106 L155.340869,12.0062467 L157.499202,11.648952 C160.163091,11.2075647 162.88452,10.5748175 165.586901,10.0481533 L172.311504,8.59599711 C172.311504,8.59599711 177.291662,6.72025919 180.207535,5.98324511 C182.539678,5.37916046 184.607535,5.08538921 186.528964,5.08538921 C190.405551,5.08538921 199.471424,6.94419018 199.933328,20.2074825 L199.937297,20.3271466 L199.93809,20.3654028 C200.018646,22.6592347 199.756741,24.9625024 199.181741,27.0380095" id="path14" fill="#100F0D"></path>
                        <path d="M98.6484102,78.3774276 L98.576188,84.1659964 L117.347616,84.1659964 L117.347616,78.2925454 C117.347616,75.2399459 116.262696,72.9283874 114.03095,71.2244273 C112.021823,69.6906263 109.495235,68.9918289 107.998013,68.9918289 C106.501585,68.9918289 103.975394,69.6906263 101.965474,71.2244273 C99.7337277,72.9283874 98.6492039,75.2399459 98.6492039,78.2925454 L98.6492039,78.3347891 L98.6484102,78.3774276 Z M157.168647,142.590193 L120.513489,142.590193 L120.513489,186.78656 L66.6813475,186.78656 L66.6813475,164.11631 L23.9270232,104.35137 C23.8885708,104.304389 23.794801,104.198582 23.7245629,104.120017 C22.0834915,102.273139 20.5651582,99.9497363 20.5651582,95.4908565 C20.5651582,91.1109367 22.7900391,87.4925877 26.669166,85.5643808 C28.8158723,84.4972343 31.4057929,83.9780713 34.5865864,83.9780713 L62.1559508,83.9780713 L62.1559508,77.9996032 C62.1559508,67.6364779 66.966665,57.1612291 75.3555537,49.2600814 C83.6480138,41.4497378 94.5853151,36.9703283 105.363093,36.9703283 C111.10595,36.9703283 116.777775,38.1787739 122.221822,40.5626205 C127.244838,42.7624503 131.835711,45.8497923 135.86587,49.7393695 C144.066663,57.6539405 148.770234,67.7600505 148.770234,77.4658326 L148.75079,122.93938 L157.168647,142.590193 Z" id="path16" fill="#FFFFFF"></path>
                        <path d="M93.3142834,89.497386 L93.3142834,78.4488865 C93.3142834,67.7742634 102.915474,63.8408633 107.998013,63.8408633 C113.080156,63.8408633 122.680552,67.7742634 122.680552,78.4488865 L122.680552,89.497386 L93.3142834,89.497386 Z M87.1980137,149.520131 L87.1980137,137.534769 L78.9162679,137.534769 L87.1980137,149.520131 Z M75.6222203,135.755402 L88.9865057,135.755402 L88.9865057,154.482382 L75.6222203,135.755402 Z M141.881742,124.329868 L146.775393,135.755402 L118.540473,135.755402 L118.540473,123.307729 L124.21587,123.307729 L124.21587,78.2909662 C124.21587,66.5006361 113.612696,62.1554588 107.998013,62.1554588 C102.384521,62.1554588 91.7805533,66.5006361 91.7805533,78.2909662 L91.6218231,90.9948653 L122.680552,90.9948653 L122.680552,103.543608 L113.645235,103.543608 L113.645235,179.952164 L73.5499982,179.952164 L73.5499982,167.592926 L77.5988076,167.592926 L29.5022612,100.35875 C28.5628961,99.0503802 27.4336501,98.6749246 27.4336501,95.4896721 C27.4336501,91.5578512 31.197777,90.8100986 34.5865864,90.8100986 C37.9766657,90.8100986 59.8091255,90.8100986 59.8091255,90.8100986 L59.8091255,103.543608 L52.2805542,103.543608 L66.5861094,123.207055 L69.0238078,123.207055 L69.0238078,77.9984188 C69.0238078,60.1869822 86.3869026,43.8051192 105.363093,43.8051192 C125.232933,43.8051192 141.901981,61.491404 141.901981,77.4642534 L141.881742,124.329868 Z M60.3940461,146.670459 L74.5853156,166.281398 L71.8571411,166.281398 L71.8571411,181.450038 L115.339283,181.450038 L115.339283,105.228617 L122.680552,105.228617 L122.680552,121.895921 L117.032934,121.895921 L117.032934,137.254066 L149.221425,137.254066 L143.386901,123.58251 C143.386901,123.58251 143.386901,95.1157957 143.386901,77.6983703 C143.386901,59.7219069 126.256743,42.3068503 105.363093,42.3068503 C85.4095217,42.3068503 67.1511888,59.5339817 67.1511888,78.2613562 C67.1511888,97.7372728 67.1511888,121.148564 67.1511888,121.148564 L55.4801573,105.041482 L61.3158715,105.041482 L61.3158715,89.3106452 C61.3158715,89.3106452 33.4557928,89.3106452 31.0097214,89.3106452 C28.5628961,89.3106452 25.3619438,91.7441972 25.3619438,95.4896721 C25.3619438,98.3006535 27.2437692,100.172404 27.8084517,101.110056 L60.3940461,146.670459 Z" id="path18" fill="#100F0D"></path>
                        <path d="M88.9865057,133.351855 L69.9297602,133.351855 L91.6218231,163.846267 L91.6218231,93.9921927 L119.480553,93.9921927 L119.480553,101.017672 L113.738886,101.017672 C111.480553,101.017672 110.823013,102.233659 110.823013,104.29136 C110.823013,106.355774 110.823013,176.955231 110.823013,176.955231 L75.9984108,176.955231 L75.9984108,170.214008 C75.9984108,170.214008 78.068252,170.214008 79.1992044,170.214008 C81.0805535,170.214008 81.456744,169.092379 80.515871,167.592926 C79.574998,166.095447 31.9498802,99.0503802 31.9498802,99.0503802 C30.8218643,97.5493477 30.4447215,97.1754713 30.2559119,96.0526579 C30.0680548,94.9278706 31.197777,93.619106 33.8332531,93.619106 C36.4691658,93.619106 56.9869033,93.619106 56.9869033,93.619106 L56.9869033,100.922131 C56.9869033,100.922131 52.6563479,100.922131 51.3400781,100.922131 C48.5146813,100.922131 47.1968242,101.671857 48.5146813,103.543608 C49.8325384,105.416937 64.5158714,126.391518 64.5158714,126.391518 C64.5158714,126.391518 67.7154745,126.391518 69.2226173,126.391518 C70.727776,126.391518 71.8571411,125.828532 71.8571411,123.394585 L71.9464268,80.1836411 C71.9464268,55.7857433 93.883331,46.8004726 105.499204,46.8004726 C117.113489,46.8004726 139.052774,55.7857433 139.052774,80.1836411 L139.056743,125.455445 L142.633727,133.133925 L121.551584,133.133925 L121.551584,126.205172 C121.551584,126.205172 122.869838,126.205172 124.562298,126.205172 C126.256743,126.205172 127.291267,125.549408 127.291267,123.489337 L127.381346,78.9463355 C127.381346,64.8973502 114.934918,59.7219069 108.246823,59.7219069 C101.55595,59.7219069 88.9206327,64.8973502 88.9206327,78.9463355 L88.9865057,133.351855" id="path20" fill="#1D50A0"></path>
                        <path d="M192.681344,30.1043481 C192.459916,30.9819902 192.149202,31.8024257 191.737297,32.5849603 L192.656344,32.3704256 L193.139678,46.5853062 L192.023805,47.7049611 C188.277773,51.4630697 183.980154,53.6242091 178.499996,54.5069836 C177.050392,54.7411004 175.748805,54.8548031 174.520234,54.8548031 C171.996821,54.8548031 169.832139,54.3466945 168.076186,53.3431109 L168.146028,55.3435664 L164.77579,55.7261283 C161.857139,56.0569714 158.87698,56.3495188 155.91825,56.5950848 L153.815869,56.769192 L151.959917,56.8967126 C148.819044,57.1134582 145.644441,57.282433 142.5246,57.3977148 L138.847219,57.5339211 L138.29087,57.5406327 L135.165076,57.5809024 C131.070235,57.6322265 126.891267,57.5986684 122.727378,57.4782542 L121.802775,57.4518025 L121.803568,57.4766749 L117.829362,57.2966458 C109.775791,56.9326395 101.609124,56.2362109 93.5563469,55.2267054 L90.4547596,54.8382214 L90.4003946,53.271652 C89.2444422,53.7643633 87.9230137,54.0040074 86.3646804,54.0040074 C84.7119026,54.0040074 83.1277757,53.7418597 81.731744,53.5109012 C77.6872996,52.8448723 73.5924585,52.0872497 69.5603157,51.2585629 L66.7317444,50.6778109 L66.0091253,50.530945 L62.346427,49.6880454 C58.2099192,48.735786 54.0412685,47.6883795 49.9543638,46.5742518 L47.8642845,46.0037646 L47.3567448,43.906583 C47.1865068,43.2034428 47.0158718,42.4999078 46.8456337,41.7963729 C45.9980147,42.5212271 45.1099195,42.9282667 44.4555544,43.1513291 C43.6761894,43.4154508 42.8007926,43.5492883 41.8535704,43.5492883 C39.4134514,43.5492883 36.7306737,42.6704618 34.7735309,42.0293053 C31.0184119,40.8038437 27.2396025,39.4931052 23.5408724,38.1337272 L21.2275392,37.2830894 L21.1811899,35.9015631 C18.6334519,36.1562096 15.9932933,35.6666961 12.7531346,34.3408762 C9.70253944,33.091845 7.42404743,31.6329377 5.78666652,29.8788774 C3.24342849,27.1493433 2.62106343,25.083272 2.40559915,22.4368829 L2.38110708,21.8372595 C2.32685312,20.1948489 2.56619041,18.8276933 3.1091904,17.7040508 L2.56448406,17.4967804 L2.22144836,7.24029076 L4.76361099,6.35305499 C5.85845223,5.97057201 7.09154744,5.77672483 8.42849185,5.77672483 C10.3196426,5.77672483 12.5151981,6.16876199 14.9446425,6.93941309 C17.0248805,7.58574143 18.795436,8.38442338 20.2821027,9.35247486 L20.2709519,9.02119754 L25.1050787,10.3792332 C28.4785707,11.3264787 31.9032135,12.2233871 35.2835309,13.0454018 L37.9870229,13.7026661 L38.200634,19.9923555 C39.4647609,20.3365429 40.6055545,20.7293696 41.6325386,21.1752181 L41.4047609,14.5033615 L45.9710306,15.4387235 C49.0753956,16.0747081 52.2166654,16.6656853 55.308332,17.1955869 L57.5615065,17.5744772 C61.121427,18.1572821 64.7265857,18.6811827 68.2769824,19.1301107 L69.0793634,19.2311007 L69.6956332,19.3065471 L69.8861094,19.3295245 C73.3388871,19.7475791 76.827379,20.1079927 80.2531726,20.4013297 L82.7126963,20.6007435 C85.7456328,20.8356105 88.8309502,21.0254702 91.8829342,21.1656245 L95.2642833,21.3220051 L95.9761881,21.3516151 L99.8496007,21.4262719 C103.292061,21.4921247 106.79087,21.4961122 110.236108,21.4412349 L113.567457,21.3863181 L116.727378,21.2643247 C119.882537,21.142805 123.048013,20.9710272 126.136505,20.754321 L128.397616,20.5865307 C131.953965,20.3084725 135.557933,19.9602582 139.108727,19.5517184 L140.870235,19.3436979 C141.108727,19.314838 141.347616,19.2855437 141.586901,19.2559337 L141.710314,18.7388631 L141.731742,19.2378913 C144.228965,18.9271436 146.767457,18.5781397 149.290076,18.1983019 L151.463488,17.8710515 L153.453964,17.5385503 C156.157933,17.0900961 158.899599,16.5958056 161.60198,16.068865 L165.828964,15.2444026 L165.884916,16.8718898 C168.719837,14.7516517 172.225393,13.1579595 176.346821,12.1188438 C178.467059,11.5681363 180.412694,11.2889726 182.12817,11.2889726 C185.921424,11.2889726 188.947614,12.6743285 190.87936,15.2942264 C192.422217,17.3882102 193.234519,20.2027054 193.36309,23.9064104 L193.367455,24.04692 C193.440471,26.1385744 193.20317,28.2325582 192.681344,30.1043481" id="path22" fill="#100F0D"></path>
                        <path d="M164.886504,36.7726121 C165.600393,34.8498139 166.776583,33.4057116 168.324599,32.185343 C167.723012,32.2959267 167.121424,32.4040626 166.521821,32.5110536 L164.749996,32.8253545 L164.886504,36.7726121 Z M191.050392,29.6755945 C190.602376,31.4660949 189.708725,32.9896311 188.239281,34.4676467 C187.937297,34.7688402 187.612297,35.0613876 187.269837,35.3457626 C187.743249,35.2382978 188.215471,35.1297276 188.684916,35.0196177 L191.040471,34.4708841 L191.42936,45.9184877 L190.826583,46.5233225 C187.344043,50.0169144 183.341662,52.02724 178.229757,52.8503996 C176.870234,53.0703036 175.656345,53.1768998 174.520234,53.1768998 C172.147218,53.1768998 170.163885,52.6841884 168.623805,51.7129785 C167.628567,51.0832713 166.862694,50.4342189 166.263488,49.7370007 C166.288488,50.4689613 166.313885,51.2013167 166.339678,51.9332774 L166.342853,52.029214 L166.406345,53.8520091 L164.584917,54.0588847 C161.682932,54.3881485 158.720234,54.6787219 155.778171,54.9227088 L153.703171,55.0952367 L153.222615,55.1272156 L151.84325,55.2227574 C148.724203,55.4383186 145.56825,55.6061089 142.461901,55.7209959 L140.473806,55.7944289 L140.404758,53.8168718 L140.215076,48.357172 L140.179362,47.3452977 L140.98452,46.7266448 C141.007139,46.7096684 141.014679,46.7001932 141.014679,46.7001932 C141.094838,46.5545117 141.069044,45.9378329 141.054362,45.5686942 L141.042854,45.283648 C140.934917,42.2093345 140.828171,39.1346261 140.721028,36.0594834 L140.559123,31.420298 L140.55079,31.1332779 C140.548409,31.0541598 140.546028,30.9670273 140.54206,30.8764995 C140.479362,31.1391209 140.411901,31.4987844 140.346028,31.999076 L140.344441,32.0120254 L140.342854,32.0246591 C139.263885,39.4780633 138.166663,46.9453645 137.081346,54.218779 L136.83333,55.881285 L135.144044,55.9029991 C133.910711,55.9183963 132.657536,55.9262923 131.419838,55.9262923 C128.563092,55.9262923 125.653965,55.8840487 122.776187,55.8011405 L121.213092,55.7561332 L120.891267,54.2329918 C120.538092,52.5574574 120.18214,50.8736321 119.824997,49.1850692 L119.979362,53.5795966 L120.054362,55.7178375 L117.905949,55.6207165 C109.900394,55.2586842 101.778569,54.5662037 93.7670611,53.5618305 L92.0904739,53.3517965 L92.0321406,51.6719193 C92.0154739,51.1898675 91.9976167,50.6912342 91.9797596,50.180362 C91.3861088,50.824282 90.6551565,51.3371282 89.7956327,51.7035033 C88.8400771,52.1227817 87.7178549,52.3261041 86.3646804,52.3261041 C84.8547598,52.3261041 83.3416646,52.0761952 82.0071408,51.8555016 C77.97976,51.1922363 73.9091251,50.4389565 69.9011887,49.6154021 L68.3726173,49.3015355 L68.3198396,47.748784 L68.2329348,45.2327187 L68.1682523,43.3637319 L68.1198396,41.9499504 L69.0404745,41.6037101 C69.0380935,41.5140903 69.0341253,41.4217069 69.0305538,41.3451156 L69.0214268,41.1106039 C68.8916649,37.395963 68.7622999,33.6808088 68.6337284,29.9661679 L68.6265856,29.7312614 C68.6238078,29.6159006 68.6198396,29.4723511 68.611903,29.3435671 C68.5928554,29.4331868 68.5726173,29.5315712 68.5511888,29.6490639 L68.5476173,29.6680538 L68.5436491,29.6870042 C67.3888872,35.4637685 66.2361095,41.130344 65.116665,46.5288497 L64.7063476,48.5087755 L62.7261889,48.0531754 C58.6095223,47.1060484 54.4626971,46.0637744 50.4007924,44.9559634 L49.2706337,44.647624 L48.9964273,43.514151 C48.5107131,41.5065891 48.0234115,39.499422 47.5353163,37.494979 C46.8908718,40.1129424 45.1126973,41.1532424 43.9119037,41.5630456 C43.3067449,41.7679472 42.6154751,41.871385 41.8535704,41.871385 C39.684126,41.871385 37.1496816,41.041119 35.2993245,40.4350998 C31.5584516,39.21406 27.798412,37.9099541 24.1257534,36.5600908 L22.8751185,36.1002269 L22.8306343,34.7740911 L22.8003963,33.8921062 L22.7441264,33.9078192 C21.842301,34.1593468 20.8883725,34.2869069 19.9093249,34.2869069 C17.9622218,34.2869069 15.8920631,33.8111325 13.3945632,32.7889933 C10.5741664,31.6346354 8.4901982,30.309605 7.02349189,28.7379427 C4.78841258,26.3390542 4.28107132,24.688945 4.08666656,22.3022164 L4.08313482,22.2592226 L4.08154752,22.2158735 L4.06666656,21.7819085 C4.00051577,19.7759652 4.4354364,18.3195452 5.39682526,17.3312799 C5.53619034,17.1880067 5.68206335,17.0596965 5.83242049,16.9452832 C5.7021824,16.8954594 5.57182526,16.8461093 5.44178558,16.7964433 L4.21269831,16.3282491 L3.94825784,8.41604692 L5.32226177,7.93628503 C6.23746016,7.61657537 7.2825395,7.45462809 8.42849185,7.45462809 C10.1452378,7.45462809 12.1684521,7.82013464 14.4419838,8.54111981 C17.8977376,9.61493841 20.4351185,11.1507924 22.0982137,13.1701588 L22.0338883,11.2601522 L24.6470232,11.9940868 C28.033531,12.9446881 31.4771024,13.8468473 34.883134,14.6751788 L36.3444039,15.0304995 L36.394761,16.5264391 L36.4978562,19.5529818 L36.5265467,20.3780364 L36.558015,21.2967378 C36.7827769,21.3563922 37.0065864,21.4143884 37.2292054,21.4723847 C40.256745,22.2411802 42.5595227,23.2775322 44.2242052,24.6643884 C44.2011894,24.6367918 44.176983,24.6115245 44.1511894,24.5913107 L43.4182529,24.0244163 L43.3865069,23.1009378 L43.3436497,21.8554599 L43.2480148,19.0823003 L43.1630942,16.5765393 L45.6309512,17.0822396 C48.7515861,17.7214615 51.9111098,18.315992 55.021824,18.848973 L56.2896811,19.0665477 L57.2873002,19.2298768 C60.8722207,19.816985 64.4988079,20.3433334 68.0646808,20.7945907 L68.9595221,20.9074642 L69.6825379,20.9950705 C73.1519823,21.4147043 76.6599187,21.7775657 80.1087282,22.0729161 L81.2523789,22.1708267 L82.581744,22.2735539 C85.6313471,22.5094868 88.7337279,22.7005704 91.8047596,22.841988 L93.6325373,22.9260411 L93.6956326,24.7461516 L93.7956326,27.6132342 L93.8603151,29.4660342 L93.9122992,30.9554596 L92.8797596,31.2867369 C92.8662675,31.5122077 92.876585,31.8083082 92.8825374,31.9945752 C92.9011882,32.5035129 92.9186485,33.0109109 92.935712,33.5173613 C92.974204,34.6050769 92.8523786,35.5360961 92.5761882,36.3264477 L93.726585,36.4274772 C95.5404738,36.5861477 97.3595214,36.7286707 99.144442,36.8523223 L98.9996007,32.6993736 L98.9916642,32.4415292 C98.9837277,32.1628393 98.9722197,31.746285 98.9206324,31.6085785 C98.9130928,31.6022617 98.9007912,31.5931418 98.8821404,31.5812978 L98.003569,31.0234838 L97.9666642,29.986658 L97.7964261,25.1460453 L97.7238071,23.0634712 L99.817061,23.1037014 C101.690474,23.1393519 103.590077,23.1573943 105.463489,23.1573943 C107.056743,23.1573943 108.67222,23.1444054 110.263886,23.1186644 L112.210711,23.0867645 L112.279759,25.0225121 C112.316267,26.0619436 112.352775,27.1010592 112.389283,28.1402143 L112.455156,30.0215189 L112.493648,31.1351335 L111.600791,31.7143851 C111.576188,31.8931114 111.591664,32.2579863 111.601585,32.5106193 L111.612696,32.7747805 L111.776981,37.4618158 C113.635315,37.511916 115.50714,37.5440133 117.351981,37.5581866 C117.076584,36.2707808 116.801584,34.983375 116.526188,33.699325 C116.46587,33.4719987 116.413886,33.2434485 116.362696,33.0220048 C116.266664,32.6018973 116.088489,31.8249688 115.917854,31.6310822 L115.101188,31.0794665 L115.066267,30.0779754 L115.001188,28.2393488 L114.887299,24.9825583 L114.818251,23.0173585 L116.792854,22.9414778 C119.967457,22.8186948 123.151584,22.645851 126.255552,22.4282368 L127.377775,22.3492767 L128.529759,22.2592226 C132.115076,21.978993 135.739282,21.6282915 139.302774,21.2182119 L140.252377,21.1087337 L141.0746,21.0092439 C143.859917,20.6713734 146.709123,20.283679 149.542853,19.8572547 L151.745234,19.5252273 L152.512695,19.3958116 L153.730949,19.1936341 C156.449202,18.7431664 159.206742,18.2456385 161.926583,17.7154606 L164.211504,17.26977 L164.291266,19.5848817 L164.323012,20.5051228 L164.429758,20.3929994 C167.387297,17.29938 171.540075,15.062123 176.772615,13.7426199 C178.749599,13.2289052 180.555551,12.9668759 182.12817,12.9668759 C185.408329,12.9668759 187.895233,14.0837278 189.519043,16.2867555 C190.855154,18.0996017 191.561106,20.6086001 191.677376,23.957616 L191.679757,24.033023 L191.682138,24.1053505 C191.749598,26.0418877 191.530948,27.9612906 191.050392,29.6755945 Z" id="path24" fill="#FFFFFF"></path>
                        <path d="M15.6527377,25.2131219 C15.6831345,26.1006341 15.6983329,27.3324125 14.3640076,26.8132889 C13.4928568,26.4726153 13.0121425,25.7121896 12.9870235,24.9734779 C12.9743251,24.5819145 13.0121425,24.2091436 13.3589282,24.022087 C13.7323409,23.8001695 14.6958726,23.8877758 15.2553171,23.957616 C16.8830551,24.1740063 19.0765868,24.4232046 20.4369836,24.0385897 C21.2177772,23.8128031 21.7903566,23.4112118 22.0703169,22.6473907 C22.4017058,21.8759895 22.522182,20.9363242 22.4896026,19.9736815 C22.4885312,19.9414657 22.487301,19.9093684 22.4865074,19.8766789 C22.3546026,15.869767 20.3631741,12.4484235 13.8392854,10.4219507 C11.0514283,9.53751798 8.13801567,9.04496455 5.97936493,9.79859973 C6.03623001,11.5170885 6.09345223,13.2361695 6.15158715,14.9530791 C8.36416646,15.796334 10.584087,16.6140059 12.8098806,17.4048708 C12.7692457,16.2263115 12.7139283,15.3400233 12.9307536,15.0029029 C13.1470235,14.6889179 13.6246028,14.5992981 14.135833,14.7711154 C15.058452,15.0793758 15.4955552,16.0321485 15.5200393,16.7572791 C15.5893647,18.8170337 14.1844838,18.4959422 12.3062299,18.2271618 C8.19523789,17.6460546 5.912857,17.5815836 6.0498808,21.7175954 C6.05452366,21.8593289 6.05916652,22.0014967 6.06428556,22.1432301 C6.23543635,24.2438466 6.64992047,25.4334997 8.47734106,27.3948699 C9.96559499,28.989036 12.0961902,30.1228248 14.149325,30.9634741 C17.1257932,32.1813555 19.7612693,32.6895036 22.2088883,32.0069325 C22.1544836,30.3889995 22.0999201,28.7711059 22.0448804,27.1532124 C19.905436,26.4063283 17.7694043,25.6339796 15.640198,24.8380612 C15.6446821,24.9636079 15.6484123,25.0883649 15.6527377,25.2131219" id="path26" fill="#1D50A0"></path>
                        <path d="M33.8580547,27.1476457 C34.1230944,27.2242765 34.3889674,27.3012627 34.6544833,27.3771039 C37.1721419,28.0916143 37.1158721,29.2081504 37.1861102,31.2568111 C37.2566261,33.3254881 37.3917848,34.5159309 34.8705547,33.732962 C34.6051975,33.6509224 34.339642,33.5667114 34.0742849,33.4838822 C34.0021817,31.3716981 33.9301182,29.259514 33.8580547,27.1476457 Z M25.5378962,29.29019 C25.5649994,30.0691714 25.6859121,30.8865274 24.6881343,31.0159036 C24.7295232,32.2465766 24.7721422,33.4767758 24.8136899,34.7080804 C28.5021421,36.0642605 32.2051579,37.3476789 35.9196816,38.5601515 C38.2494832,39.3233803 41.3865069,40.3332412 43.2686497,39.6952432 C46.3424592,38.6479157 45.7698401,34.8632371 45.7488084,34.2924736 C45.7285703,33.6934819 45.7083322,33.0946481 45.6876973,32.4944325 C45.5420624,28.1571513 43.7099195,25.1554415 36.7275784,23.3825492 C35.7173801,23.1198883 34.7095229,22.851858 33.7017849,22.5785769 C33.6642849,21.5158522 33.5425785,20.6870865 34.5431737,20.4451131 C34.4994833,19.1607867 34.4552769,17.8773684 34.4119039,16.5927261 C30.9671024,15.75488 27.5321025,14.8551685 24.1079359,13.8939076 C24.1494438,15.1239488 24.1911502,16.3546218 24.2326978,17.584821 C25.2611898,18.3696454 25.1929756,19.1230043 25.2201184,19.9027358 C25.3263089,23.0325978 25.4324597,26.1618677 25.5378962,29.29019 Z" id="path28" fill="#1D50A0"></path>
                        <path d="M57.435316,31.9935093 C57.044443,34.236333 56.65357,36.4664835 56.2607129,38.6829345 C56.240078,38.6778416 56.2178557,38.6730645 56.1960303,38.6679716 C55.6654748,36.2363937 55.1349193,33.8162255 54.6047605,31.4068748 C55.5476177,31.6078284 56.4916653,31.8027416 57.435316,31.9935093 Z M54.6853161,20.7945907 C51.5277765,20.2532794 48.3761893,19.6598543 45.2309513,19.0155 C45.276983,20.355059 45.3234116,21.6950918 45.3694433,23.0333874 C46.3162687,23.7662166 46.4523798,24.9549617 46.7376972,25.8895341 C48.1297607,31.5437917 49.5257924,37.2656393 50.9253956,43.0522341 C54.9988081,44.1628087 59.082935,45.1885011 63.1734111,46.1301009 C64.3174587,40.6135498 65.4583317,35.0038651 66.5980142,29.3020735 C66.7317444,28.557045 67.0067444,27.2356863 67.9658713,27.1141666 C67.9154745,25.6605102 67.8654745,24.2068537 67.8146808,22.7527236 C64.1920619,22.2948336 60.5757921,21.7692354 56.9654748,21.1779817 C57.0142843,22.5770372 57.062697,23.9758163 57.1111097,25.3750297 C57.794443,25.7169667 58.1313478,26.2159948 58.1531731,26.8547825 C58.1611097,27.1025989 58.1047605,27.3131067 58.0484112,27.5231802 C56.6646811,27.2700734 55.2825383,27.0071361 53.9003955,26.7343288 C53.8297606,26.5037651 53.7567447,26.2448548 53.7484114,26.0267668 C53.7257923,25.3722661 54.0948399,24.9837822 54.8293637,24.9572516 C54.780951,23.5696058 54.7325383,22.1834998 54.6853161,20.7945907 Z" id="path30" fill="#1D50A0"></path>
                        <path d="M79.5257917,39.0071054 C79.8178551,39.0473356 80.109125,39.0872895 80.4003948,39.1270854 C82.2789662,39.3790472 82.8948392,40.3510073 82.956744,42.160774 C83.0146805,43.8181476 82.4626964,44.6444656 80.5833313,44.3566558 C80.2912678,44.3132278 79.9992043,44.2670361 79.7083313,44.2220288 C79.6480139,42.4845106 79.5869028,40.7450184 79.5257917,39.0071054 Z M79.2464266,30.9906364 C79.2134901,30.0356923 79.0829345,29.0755368 80.0968234,28.5835756 C80.0444424,27.0686855 79.9912678,25.5547036 79.9384901,24.0398135 C76.4361092,23.7397255 72.9384902,23.3777721 69.4428554,22.954901 C69.4940459,24.4168878 69.5452364,25.8784007 69.5956332,27.3404269 C70.6484109,28.057701 70.5841252,28.9712699 70.6170617,29.8986174 C70.7456332,33.6125083 70.8746014,37.327623 71.0043633,41.0423034 C71.0365062,41.9673216 71.1650776,42.9148434 70.1511887,43.296221 C70.2015855,44.7577734 70.252776,46.2205103 70.3023792,47.6824575 C74.3055537,48.5048275 78.3126965,49.2458685 82.3242043,49.906765 C84.4650773,50.2609013 87.1599185,50.7078158 89.0047597,49.892947 C91.2325374,48.9493732 91.9317437,46.7653353 91.8468231,44.3487598 C91.7452358,41.4303926 90.7484104,38.8089155 87.4805534,37.7161069 C87.4797597,37.6956168 87.4797597,37.6750871 87.4781724,37.6541232 C90.1793628,37.3233196 91.0472199,36.2750841 90.9527755,33.5836483 C90.935712,33.0784613 90.9178549,32.5722872 90.8999977,32.0669027 C90.8694422,31.1695206 90.8234104,29.8722448 91.8773787,29.5341769 C91.8226168,27.9609748 91.7670612,26.388128 91.7122993,24.8140178 C88.6166645,24.671021 85.5214264,24.480727 82.4281725,24.2415567 C82.1218233,25.631216 81.9369027,26.8132889 82.1845218,31.1252634 C82.2559503,33.1700551 82.0654741,34.1771128 79.7043631,33.9540899 C79.5861091,33.9394428 79.4666647,33.9252694 79.3484107,33.9113725 C79.3138869,32.9377938 79.2797599,31.9642151 79.2464266,30.9906364 Z" id="path32" fill="#1D50A0"></path>
                        <path d="M94.015077,51.6032239 C102.011902,52.6056231 110.011902,53.2878388 117.996029,53.6486867 C117.844045,49.3224599 117.653172,43.8603913 117.501584,39.5341645 C115.463092,39.5195568 113.422219,39.4832352 111.38095,39.4256337 C111.435711,41.0059817 111.491664,42.5863692 111.546823,44.1675463 C111.591664,45.4518332 111.324997,46.1320749 110.094442,46.100096 C109.926188,41.3008979 109.798013,37.6414896 109.629362,32.8431205 C109.592854,31.7933453 109.459521,30.7474391 110.471823,30.0904511 C110.413489,28.4244314 110.356346,26.7584116 110.296426,25.0923524 C106.792458,25.1492827 103.285315,25.1445056 99.7789658,25.0773894 C99.8357118,26.6908612 99.8924578,28.3044514 99.9496007,29.917252 C101.007537,30.5895188 100.946426,31.6088944 100.98214,32.631073 C101.145632,37.3046456 101.269442,40.8397706 101.432934,45.5130273 C100.19841,45.378795 99.8837277,44.6843405 99.8404737,43.4446661 C99.7869023,41.9187611 99.7333308,40.3932509 99.6805531,38.867346 C97.6384896,38.7311792 95.5944421,38.5725088 93.5531723,38.393585 C93.6940453,42.4169997 93.8746008,47.5790197 94.015077,51.6032239" id="path34" fill="#1D50A0"></path>
                        <path d="M129.256743,37.7832231 C128.886108,40.7394912 128.515473,43.6819413 128.143648,46.6117578 C128.121029,46.6117578 128.0996,46.6117578 128.078568,46.6117578 C127.52341,43.6926009 126.968648,40.7833141 126.415076,37.8831471 C127.362298,37.8550768 128.309521,37.8214398 129.256743,37.7832231 Z M126.395235,24.3971477 C123.22341,24.6198548 120.048013,24.7911589 116.869838,24.9139419 C116.929362,26.6111115 116.989283,28.3102945 117.048807,30.0088853 C118.009124,30.6570692 118.159521,32.1352428 118.456346,33.2402111 C119.913489,40.038325 121.372616,46.9011468 122.833727,53.8279263 C126.935314,53.9463665 131.031346,53.9807142 135.119044,53.9289953 C136.208727,46.6243914 137.295235,39.229023 138.378965,31.7432056 C138.506743,30.7696269 138.767854,29.0300558 139.720631,28.6116459 C139.657933,26.8011291 139.594838,24.9904148 139.530552,23.1791084 C135.921822,23.5949126 132.304759,23.9441928 128.684521,24.2268701 C128.745632,25.9837336 128.807933,27.7410707 128.869044,29.499158 C129.556346,29.7325248 129.899203,30.2670455 129.926981,31.0684911 C129.938489,31.3803442 129.882933,31.6634953 129.827775,31.944475 C128.441267,32.0269884 127.053965,32.0993159 125.66587,32.1623656 C125.59206,31.8895582 125.516267,31.5835876 125.505949,31.3089248 C125.476584,30.4849361 125.844044,29.8821148 126.578965,29.6345747 C126.517457,27.8883709 126.455552,26.1424435 126.395235,24.3971477 Z" id="path36" fill="#1D50A0"></path>
                        <path d="M155.97579,38.4508312 C155.997218,38.4477517 156.017456,38.4449486 156.039282,38.4425009 C156.105155,40.319818 156.169441,42.1974904 156.23452,44.0747681 C156.276187,45.2674612 156.413488,46.4546271 155.416663,47.2995008 C155.481742,49.1850692 155.547218,51.0714273 155.613091,52.9558114 C158.53571,52.7134037 161.451186,52.4275679 164.360313,52.0975145 C164.292853,50.1681231 164.226186,48.2395214 164.15952,46.3097352 C163.113885,45.6796332 163.167456,44.4529872 163.124599,43.2381853 C162.853567,35.3764781 162.580551,27.5148499 162.308726,19.6524321 C159.563488,20.1877424 156.813488,20.684007 154.057536,21.1407915 C152.532139,26.191004 151.001187,31.1619799 149.466663,36.0547063 C149.445234,36.056404 149.424996,36.0592071 149.402377,36.0610232 C149.338885,34.2406363 149.276187,32.4189861 149.212695,30.5985992 C149.170631,29.4240669 149.034917,28.267735 150.03333,27.3948699 C149.96825,25.5321999 149.903965,23.6710696 149.839679,21.8087154 C147.00198,22.2359294 144.159917,22.6236237 141.314679,22.9687585 C141.377377,24.7876452 141.441266,26.608032 141.504758,28.4279846 C142.557933,29.0363726 142.501584,30.1987055 142.542457,31.3514843 C142.703568,35.9726667 142.863488,40.5938097 143.026187,45.2153475 C143.065473,46.3657969 143.201981,47.517036 142.197615,48.2888715 C142.261108,50.1085082 142.3246,51.9285398 142.388092,53.7485713 C145.499996,53.6332895 148.605552,53.467868 151.705155,53.2534911 C153.132139,48.3919145 154.555552,43.4580893 155.97579,38.4508312" id="path38" fill="#1D50A0"></path>
                        <path d="M180.012297,39.5519305 C180.063488,41.0553318 180.100789,43.1714639 178.180154,43.5192834 C176.924599,43.7451095 176.225392,42.8777322 176.182138,41.6222657 C176.157932,40.9546576 176.209916,40.2756003 176.706742,39.6297062 C177.240472,38.8977456 178.62817,38.1519275 179.430154,37.7512837 C181.76944,36.6119281 184.899599,35.0038651 186.828964,33.0795272 C187.937297,31.9646888 188.744043,30.7435701 189.132138,29.1726973 C189.592456,27.540433 189.756344,25.8131796 189.700392,24.1894035 C189.698011,24.1349605 189.696424,24.0796095 189.694837,24.025956 C189.459519,17.2654272 186.650392,13.2167453 177.259916,15.6558639 C173.241266,16.6692385 169.00952,18.4668059 165.867456,21.7535223 C165.969837,24.6917086 166.070631,27.6302107 166.173012,30.5674494 C169.407139,29.9937644 172.633726,29.3653206 175.848011,28.681802 C175.778964,26.6781881 175.689678,25.1958297 175.999202,24.4133345 C176.307535,23.6706353 176.994837,23.0773287 177.731345,22.9040112 C179.059519,22.5924739 179.696027,23.8368859 179.738488,25.0678353 C179.857932,28.5590584 177.842059,29.3020735 175.130948,30.5697788 C169.194043,33.3611386 165.850393,35.3610414 166.096424,42.4406877 C166.105551,42.6830954 166.113885,42.9258979 166.121821,43.1683055 C166.392456,46.6666351 167.013091,48.3544084 169.686107,50.0457349 C171.862694,51.418852 174.956742,51.3797667 177.912694,50.9020578 C182.20317,50.2111564 185.958329,48.6039225 189.417456,45.1332289 C189.324598,42.402392 189.230551,39.6723447 189.138487,36.9414683 C186.101186,37.6498199 183.051186,38.3078738 179.989678,38.9166961 C179.997615,39.1278355 180.004361,39.3391329 180.012297,39.5519305" id="path40" fill="#1D50A0"></path>
                    </g>
                </g>
            </g>
        </g>
    </g>
</svg>