<?xml version="1.0" encoding="UTF-8"?>
<svg width="200px" height="200px" viewBox="0 0 200 200" version="1.1" xmlns="http://www.w3.org/2000/svg" xmlns:xlink="http://www.w3.org/1999/xlink">
    <!-- Generator: Sketch 51.3 (57544) - http://www.bohemiancoding.com/sketch -->
    <title>babson</title>
    <desc>Created with Sketch.</desc>
    <defs></defs>
    <g id="babson" stroke="none" stroke-width="1" fill="none" fill-rule="evenodd">
        <g id="babson_BGL" transform="translate(1.000000, 31.000000)">
            <g id="babson">
                <g fill-rule="nonzero" id="g10">
                    <g transform="translate(99.724099, 68.652218) scale(-1, 1) rotate(-180.000000) translate(-99.724099, -68.652218) translate(0.896396, 0.823786)">
                        <g id="g12" transform="translate(0.268919, 0.000000)">
                            <path d="M96.7677776,135.130348 C128.546822,135.130348 158.66574,125.153525 182.816451,110.480735 C196.420162,103.7826 199.779856,93.1066286 192.171244,82.7610694 C190.677847,76.0201323 185.783523,65.2610659 176.900235,59.2008308 L174.234352,59.7072831 C166.057425,47.8821239 160.675461,43.7470521 160.675461,43.7470521 L162.545344,42.7006587 C162.545344,42.7006587 150.35256,22.1519128 125.366408,27.1265349 C125.366408,27.1265349 107.678714,23.9511794 87.6263274,0.961863623 C77.2388862,27.552578 39.8896349,44.756554 34.8859503,48.9258311 L40.0545718,49.4582506 C16.3221193,65.1323038 6.2034177,84.1735125 6.2034177,84.1735125 L9.38903114,84.2951112 C4.65139702,90.2937411 0.94820432,98.6960494 0.94820432,98.6960494 C0.94820432,98.6960494 18.1156291,111.213551 38.4858782,118.667067 L35.1871395,120.081838 C35.1871395,120.081838 69.5298774,135.130348 96.7677776,135.130348" id="path14" fill="#9FA7AA"></path>
                            <path d="M181.500541,107.871467 C131.646561,136.747485 89.5033814,131.883537 86.0307418,131.410753 C66.1773549,128.701198 43.0324006,119.970806 43.0324006,119.970806 C43.0324006,119.970806 45.1425176,119.064636 47.1916797,118.371577 C25.4976325,112.241499 4.70894567,97.6643409 4.70894567,97.6643409 C4.70894567,97.6643409 8.67962305,88.579898 15.749322,81.7159296 C15.749322,81.7159296 13.6280896,81.4942224 11.6174725,81.4172159 C25.6383668,59.9556739 48.8518058,47.5742768 48.8518058,47.5742768 C48.8518058,47.5742768 46.0640131,47.0952246 43.7459321,46.8572206 C53.8536976,40.4445463 78.8057871,26.6417519 88.4886607,6.21836545 C92.3037237,10.4107444 106.267786,24.0589885 119.69939,28.3835322 C117.119561,30.0561858 115.556246,31.8540197 115.556246,31.8540197 C119.315732,30.7641086 128.928687,29.6763466 128.928687,29.6763466 L128.934065,29.664527 C138.274515,29.2160982 147.484092,29.1747296 158.06874,41.8596757 C158.06874,41.8596757 157.141866,42.3800966 155.867191,43.3650639 L161.24019,48.1389317 C161.24019,48.1389317 160.490803,48.5712428 158.332281,49.7807827 C156.390686,50.8692611 153.271227,50.264133 150.492398,49.3056703 C149.142425,51.6029722 148.242443,54.3879224 148.541839,57.6059001 C153.17083,60.3922831 157.948623,61.8102778 162.211884,62.4796974 C162.052326,61.8521837 161.883803,61.1820477 161.702731,60.4628425 C160.596578,56.1108988 159.373893,52.1914453 163.642533,50.6237356 L172.963262,62.8364346 C175.032145,62.6482163 176.267379,62.3788725 176.267379,62.3788725 C183.323811,67.7899247 188.080091,76.8700696 189.487433,84.0132315 C195.322973,91.5340836 195.595478,100.970966 181.500541,107.871467" id="path16" fill="#125E40"></path>
                            <path d="M166.204434,62.1473157 C165.112623,59.430955 163.574407,55.3093146 164.11583,54.9232074 L169.094415,62.1131105 C167.993641,62.2279039 167.01119,62.2137562 166.204434,62.1473157" id="path18" fill="#FFFFFF"></path>
                            <path d="M143.634966,56.9155276 C139.78584,53.1427447 137.779705,46.3865854 137.779705,46.3865854 C137.779705,46.3865854 140.022488,46.2409893 141.675443,46.8034952 C138.541641,40.738962 135.230353,38.2702758 122.343759,36.0800667 C142.734984,31.9240419 150.433236,41.1657214 150.433236,41.1657214 C150.433236,41.1657214 142.143362,48.3738912 143.634966,56.9155276" id="path20" fill="#FFFFFF"></path>
                            <path d="M154.863227,47.5148206 L152.546938,46.4739788 C152.995137,45.9612586 153.450506,45.4875788 153.900497,45.0574168 L157.491461,47.650567 C156.085911,48.2417265 154.863227,47.5148206 154.863227,47.5148206" id="path22" fill="#FFFFFF"></path>
                            <path d="M175.222181,88.6155359 C176.869758,89.0738144 178.481478,89.8005411 179.342019,90.6008718 C182.04555,93.1220299 177.360983,96.3638259 170.356542,92.5743881 C170.360127,92.5854914 170.367298,92.5939084 170.370884,92.605728 C170.347578,92.5847751 170.324271,92.5674038 170.300965,92.5462718 C169.804361,93.6383319 169.528271,95.2683632 170.507136,97.3529122 C170.507136,97.3529122 162.020055,93.3242169 159.424091,85.7922615 C163.393334,85.9985674 168.531479,85.8621046 173.316442,84.4917465 C167.895037,83.782391 163.23019,82.3909008 159.990614,81.2135963 C163.420226,81.0638812 167.246046,80.5756956 170.693587,79.4032264 C166.880316,78.9316957 162.961271,77.8369493 159.5711,76.4952447 C162.717452,76.1594604 166.044875,75.5158291 168.927686,74.3566121 C163.47401,73.7389481 155.881533,70.7980148 150.757731,66.827343 C147.803209,64.259981 146.334911,62.0851732 146.324155,62.0704882 L146.324155,62.0690556 C158.905974,69.3723194 176.106028,67.9836946 176.106028,67.9836946 C178.619523,70.7106214 180.186424,73.5136592 181.014694,76.2545546 C181.020073,76.2803428 181.03083,76.3140108 181.039794,76.3462461 C181.457514,77.7543911 181.679821,79.1449859 181.731812,80.4979727 C181.545361,84.6575792 178.415145,87.2423124 175.222181,88.6155359" id="path24" fill="#FFFFFF"></path>
                            <path d="M140.379254,106.719951 C141.788389,106.261673 143.055894,107.020098 143.055894,107.020098 C143.055894,107.020098 142.613074,108.449196 141.107128,108.987167 C140.361326,109.253108 139.579668,108.924308 139.378876,108.297511 C139.178083,107.67125 139.624488,106.96476 140.379254,106.719951" id="path26" fill="#FFFFFF"></path>
                            <path d="M75.6450934,116.070335 C80.7366248,113.498675 81.9700663,112.261198 87.819949,110.298785 C71.7224629,111.174152 69.2430305,103.99589 69.2430305,103.99589 C69.2430305,103.99589 75.4658142,107.909254 82.0955618,105.366248 C76.9215619,100.284712 71.5431836,96.7282638 66.3225712,98.3176429 C63.0937514,99.3011775 62.1740487,101.946979 62.2367965,103.715443 C62.4608956,110.063826 69.0637513,113.351826 75.544697,111.922728 C70.1609404,115.839316 64.9510847,113.735067 61.8907875,110.653015 C63.0471388,116.335381 70.9497692,118.443211 75.6450934,116.070335 Z M120.585029,115.087159 C138.652795,119.449669 149.040236,114.173825 152.089776,110.393342 C155.141109,106.615007 159.66074,105.832943 159.66074,105.832943 C160.458533,107.441843 159.98165,108.768862 159.98165,108.768862 C168.777091,106.505945 173.986947,102.047624 173.986947,102.047624 C173.986947,102.047624 160.143001,105.663708 149.531461,98.8751344 C149.531461,98.8751344 150.241407,100.973115 148.323119,103.967953 C147.179317,102.28133 144.482957,101.420827 141.623452,101.999451 C138.156191,102.698957 135.764605,105.239635 136.279137,107.671967 C136.397461,108.223907 136.657416,108.717107 137.023146,109.15085 C131.87066,109.794482 124.609849,105.832227 124.609849,105.832227 C119.69939,107.245386 104.600489,109.481083 104.600489,109.481083 C113.905083,112.354322 132.761678,113.059917 132.761678,113.059917 C128.944822,114.723616 120.585029,115.087159 120.585029,115.087159 Z M178.917127,102.898278 C173.151505,107.160679 166.372956,110.564726 159.216127,113.260492 C159.452776,112.250453 159.657154,110.610035 159.657154,110.610035 L159.644605,110.617198 C148.068542,123.249851 107.709192,126.656047 95.6956875,125.688989 C93.5855705,125.52244 87.0400841,125.391708 80.2436068,123.033159 C80.2436068,123.033159 84.8636338,121.756283 86.1436878,115.916322 C80.293805,120.604767 69.766526,124.46942 60.2306614,119.951106 C60.2306614,119.951106 61.3798415,119.720087 62.4716523,118.998374 C56.9193732,116.392688 53.418049,108.660516 55.2682111,100.489764 C49.8952112,104.691277 50.4438058,111.389054 50.4438058,111.389054 C41.7613105,109.396376 31.7378063,104.523295 31.7378063,104.523295 C31.7378063,104.523295 38.43568,99.1962337 50.6033643,98.2617684 C39.3715178,93.9873685 22.9065092,98.0531344 22.9065092,98.0531344 C22.9065092,98.0531344 40.9760673,75.0204801 84.4333635,75.4212722 C84.4333635,75.4212722 68.5205351,69.4101064 51.3437877,72.4112122 C62.5594992,65.0280764 93.5479218,66.0236097 103.722021,71.5430083 C103.722021,71.5430083 93.4098768,58.81544 74.0925349,59.4085694 C93.3543002,52.1661944 122.185993,54.7992806 135.787912,73.9103324 C125.127966,71.0750593 118.103804,67.1616946 118.103804,67.1616946 C131.547957,83.249255 154.415028,85.4319426 159.424091,85.7929778 C162.020055,93.3242169 170.507136,97.3536285 170.507136,97.3536285 C169.528271,95.2676469 169.804361,93.6376156 170.299172,92.5450182 C170.324271,92.5659711 170.347578,92.5847751 170.370884,92.605728 C172.956091,98.8129919 179.962325,100.571606 183.354289,99.9770442 C184.614622,99.7558742 185.65982,99.3810494 186.523947,98.903788 C184.749082,101.035436 182.038379,102.513604 178.917127,102.898278 Z" id="path28" fill="#9FA7AA"></path>
                        </g>
                    </g>
                </g>
            </g>
        </g>
    </g>
</svg>