<?xml version="1.0" encoding="UTF-8"?>
<svg width="200px" height="200px" viewBox="0 0 200 200" version="1.1" xmlns="http://www.w3.org/2000/svg" xmlns:xlink="http://www.w3.org/1999/xlink">
    <!-- Generator: Sketch 51.3 (57544) - http://www.bohemiancoding.com/sketch -->
    <title>barry</title>
    <desc>Created with Sketch.</desc>
    <defs></defs>
    <g id="barry" stroke="none" stroke-width="1" fill="none" fill-rule="evenodd">
        <g id="barry_BGL" transform="translate(0.000000, 22.885572)">
            <g id="barry">
                <g id="g10" transform="translate(99.999998, 77.951923) scale(-1, 1) rotate(-180.000000) translate(-99.999998, -77.951923) translate(0.107527, 0.064109)" fill-rule="nonzero">
                    <g id="g12" transform="translate(0.193548, 0.000000)">
                        <path d="M149.631609,126.352838 C149.576555,125.826321 149.507953,125.236981 149.663007,124.705549 C149.849459,124.066206 149.861932,124.045265 150.244082,123.446309 C151.23548,121.893895 151.162147,122.691791 149.831179,122.753118 C147.709459,122.850772 149.311394,119.69701 146.663437,119.791244 C144.534835,119.867102 144.191179,121.862056 142.481287,122.545844 C142.384728,122.522767 141.732039,122.986675 141.709674,122.912099 C141.184513,121.830217 140.767523,118.93779 139.097631,118.879668 C135.266878,118.746116 135.568814,123.416393 134.105588,125.199586 C134.088599,125.272452 134.074835,125.346387 134.054405,125.417971 C133.999567,125.61221 133.837846,125.03334 133.837201,124.97244 C133.828384,124.072617 133.775481,123.200572 133.445588,122.338144 C133.352255,122.094117 133.361717,121.853081 133.208384,121.618029 C132.978921,121.266518 132.216341,121.446868 131.865373,121.52764 C130.766233,121.77936 129.878276,122.193052 129.449459,122.983683 C129.309029,123.241813 129.106663,123.478148 128.908169,123.717687 C128.896556,123.731577 128.780427,123.864488 128.653115,124.013853 C128.595481,125.683794 128.061932,127.380231 126.947739,128.704431 C126.915051,128.74268 126.619567,127.890508 126.715051,127.681098 C127.277846,126.453911 128.111825,125.026075 127.725588,123.758501 C127.573545,123.261258 127.458276,123.262113 127.405803,122.750554 C127.357416,122.27297 126.999567,123.429641 126.683008,122.763802 C126.341717,124.136935 125.333115,123.230915 124.73247,124.492719 C124.378061,125.235485 123.976556,125.968848 123.131825,126.509469 C122.289889,127.04838 121.355911,127.761016 120.226018,127.949485 C120.136556,127.964443 119.214836,127.692637 118.923653,127.544554 C118.406664,127.443268 118.482148,126.144497 118.492255,125.884016 C118.507954,125.491265 118.37075,123.890344 118.39161,123.186469 C117.507954,124.253393 116.273115,125.139541 115.342578,126.375275 C114.761718,127.147315 112.836556,127.812941 111.684728,128.003334 C110.197632,128.24907 109.463653,127.670841 108.19161,127.572974 C106.525589,127.445618 105.756126,126.356257 104.214621,127.041756 C103.152255,127.514638 102.284514,128.688618 101.345159,129.277745 C99.5804276,130.384414 97.5868793,128.189239 96.5453739,127.493484 C96.3172019,127.341341 96.1139761,127.220395 95.9333309,127.1174 C93.2731159,128.989485 90.4666644,131.145343 87.4913957,133.60164 C95.1722557,138.070841 104.65204,141.031646 114.947524,141.507948 C120.983868,141.78766 128.388599,140.979935 133.739351,138.707619 C136.841072,137.390258 140.639781,135.469238 143.605373,134.078797 C144.565803,133.548219 145.687093,133.100338 146.707738,132.666559 C148.506018,131.902853 150.945803,130.335053 151.521932,128.672164 C150.329459,128.034745 149.77462,127.704603 149.631609,126.352838 Z M77.719783,144.176647 C77.7451593,146.988942 80.7896754,148.843506 84.1969871,149.730294 C86.5070946,150.331174 87.9092451,149.288396 87.7015032,147.778505 C87.6952666,147.735768 87.6913957,147.414387 87.7215032,147.124845 C87.3322559,146.454305 87.1427935,145.784833 87.0858043,144.987578 C87.0187075,144.04395 86.576557,143.121689 86.6944064,142.155624 C86.9273097,140.241016 87.5903204,138.465729 87.0466645,136.585524 C87.0092451,136.454749 87.0720408,136.083153 87.0374172,136.028236 C88.2268795,137.939212 87.6513957,140.201057 88.1885999,142.212037 C89.1137612,145.674999 90.0778472,147.021636 91.4264493,149.043728 C95.2972019,151.623748 100.489245,154.463181 104.824083,152.32805 C104.796772,152.139154 104.761288,151.950685 104.735051,151.76542 C104.733331,151.753027 104.730535,151.723966 104.727524,151.686571 C103.220858,150.807475 102.021718,149.208905 101.350105,148.035566 C100.233331,146.082067 100.061503,143.666156 100.114836,141.542778 C100.123868,141.195115 100.242148,141.775053 100.250105,141.849415 C100.487954,144.094379 101.035266,146.047878 102.723438,147.969324 C104.386234,149.861924 106.881073,150.99338 109.663868,151.901965 C111.998277,152.366941 114.486234,152.477416 116.9529,152.181677 C119.561287,151.869271 124.606233,150.001673 124.444513,148.542639 C124.280212,147.064373 125.641932,146.376738 127.728384,147.017576 C129.267524,147.490031 132.062792,147.24579 133.670104,146.950265 C135.226018,146.66457 134.966018,145.13908 135.148599,144.313191 C135.409889,143.128314 135.375696,142.549444 137.505803,142.357983 C139.524943,142.176565 140.550964,141.94365 141.739566,140.754712 C141.969674,140.524574 142.447308,139.555517 142.522147,138.432181 C142.547523,138.049473 142.428814,137.162257 142.438276,136.30517 C141.575695,136.69899 140.698706,137.032337 140.341502,137.201575 C138.543652,138.052892 136.529674,138.723218 134.858921,139.677317 C132.407954,141.077161 128.291395,141.545343 125.35419,142.033397 C122.362363,142.53064 119.09032,142.837062 116.044083,142.70351 C109.867954,142.432986 104.150965,141.270972 98.4920405,139.704455 C93.9503202,138.447352 90.5587074,136.192131 87.3481699,133.719167 C84.5879549,136.002594 81.6836539,138.542655 78.6182776,141.35089 C78.4864497,141.471835 78.3505357,141.591285 78.2131163,141.71052 C77.9393529,142.489826 77.711611,143.294346 77.719783,144.176647 Z M150.335695,132.463346 C148.653115,134.136705 147.148168,134.347611 144.818061,135.347866 C143.436771,135.940839 143.591179,137.820617 143.785803,138.823222 C144.064082,140.258324 144.043222,141.355164 142.687523,142.544743 C140.926233,144.089464 138.989459,144.426871 136.416126,144.81428 C135.681072,144.924969 135.727739,146.013048 135.719351,145.438665 C135.726018,145.877572 135.619782,146.315197 135.637416,146.751967 C135.695265,148.169546 135.136126,149.298866 133.021502,149.723884 C131.640642,150.001245 126.018707,148.46443 124.988169,149.390323 C124.912685,151.266896 123.757201,152.867603 121.000642,153.895209 C116.130535,155.709813 109.735696,154.627504 105.49118,152.742384 C105.563868,153.263132 105.599137,153.785803 105.522793,154.305482 C105.368815,155.352106 102.481718,155.550405 101.411395,155.660239 C99.1804276,155.88888 96.3393524,153.971494 94.6187073,153.235353 C92.1322558,152.171847 90.5468795,150.532464 88.5027935,149.159544 C88.5989225,150.154457 88.4827935,151.173302 87.5240838,151.824611 C84.6853742,153.753323 80.4023636,150.842306 78.8301056,149.274934 C77.2427938,147.691963 77.1270948,145.45811 77.0146217,143.567007 C76.9993529,143.305244 76.9823637,143.014847 76.9703207,142.708852 C71.8842993,146.510504 63.814192,149.349082 52.9273105,151.157062 C41.3477409,153.080004 29.8438702,153.287492 25.4352682,153.287492 C21.5686016,153.287492 18.2900641,153.146246 16.6651609,152.909271 C15.485548,152.737255 14.4396771,152.126119 13.7198491,151.18826 C12.6139997,149.746962 12.677075,147.880646 12.7074836,144.762355 C12.4429674,146.539779 12.2788169,147.850089 12.223118,148.307372 C11.9465803,150.028383 11.3376126,151.793627 9.18296751,152.128042 C8.97412881,152.160522 8.76453742,152.176976 8.56032237,152.176976 C6.66010736,152.176976 5.3989461,150.780765 4.98513966,149.424085 C4.5400644,148.390709 3.06139777,144.064891 2.60281714,131.456253 C2.04796769,116.191524 9.82804277,106.710365 16.4525372,101.444551 C23.5208596,95.8259438 30.7193541,93.7703038 31.0223648,93.6854713 L31.5763433,93.5305504 C30.8374186,92.4961062 30.1886014,91.3001169 29.6756982,89.9160857 C25.9479563,91.1073739 19.0553544,92.9963404 12.8456771,92.9963404 C7.31425788,92.9963404 3.52645152,91.4952104 1.58770104,88.534405 C-0.698673101,85.0423813 -0.576277405,79.503906 2.58122574,72.1286031 C2.66599993,71.9478264 11.232946,53.9915335 27.0832251,46.350194 L27.7929025,46.0082997 L27.4881714,46.7269189 C27.4799993,46.7463641 26.6767735,48.6917432 27.7524724,50.683278 C28.946881,52.8944799 31.8918272,54.3287268 36.5109668,54.9467009 C36.6408593,54.9663598 49.0245149,56.9581083 52.4208589,67.5903825 C52.7963428,65.1272472 53.4247298,60.2558933 53.4103212,55.3135963 C53.3870954,47.3322856 51.6793535,42.3850739 48.4948375,41.0160006 C48.456988,41.0033933 44.6479559,39.7524872 39.9090313,39.7522735 C37.9384937,39.7522735 36.0692464,39.9674533 34.3533325,40.3914023 L33.4686013,40.6102147 C33.4686013,40.6102147 43.696558,21.6267428 58.5690308,21.2818355 C60.0503211,17.5648239 93.5578471,-15.4350783 121.429244,24.1052634 C121.429244,24.1052634 113.276341,20.3724392 105.606234,22.2387338 C114.528599,26.4380515 117.567954,29.9116985 121.429244,35.5629989 C121.429244,35.5629989 115.781072,32.8930175 107.406234,35.0704573 C107.737632,35.0230195 120.176126,38.9541638 122.511825,47.5134897 C122.511825,47.5134897 110.067309,42.0957458 104.172471,52.1183796 C104.157417,52.1707322 104.107524,52.3410383 104.024514,52.6094254 C115.189029,46.415154 121.429244,55.4458667 121.429244,55.4458667 C113.85032,53.5795507 111.084943,56.0161893 109.258492,59.956522 C106.773116,65.3195628 101.214191,70.8321823 98.0445137,73.7047362 C98.2827932,73.694052 98.5232233,73.6884962 98.766019,73.6884962 L98.9982771,73.6902057 C99.0477395,73.6908467 99.0991373,73.6949067 99.1490298,73.6964025 C101.899137,72.4360943 103.101718,69.9368464 103.101718,69.9368464 C104.953761,66.9123632 107.982148,65.2009682 107.982148,65.2009682 C115.477847,59.3541469 121.310965,65.5781204 121.310965,65.5781204 C116.575481,62.2198628 110.95161,75.6648594 110.257417,77.3830924 C115.301072,80.0673906 121.355051,84.2269632 128.502792,89.9103162 C138.106233,97.5463136 146.281717,105.294281 146.363222,105.372062 L151.438921,110.194269 L144.409889,111.458851 C144.190534,111.498169 122.219997,115.475682 112.105374,118.580297 C107.827524,119.893385 103.13118,122.263995 97.8440836,125.805166 C98.2380621,126.088084 98.6318255,126.452629 98.9823631,126.601353 C99.5531158,126.843884 99.4423631,127.417198 100.033976,127.558443 C100.605589,127.69456 102.191825,126.320572 102.577202,126.107529 C103.605159,125.53913 104.896341,124.90748 106.196341,124.996159 C108.564298,125.15749 110.386879,126.205824 112.811825,125.317753 C115.388384,124.373484 118.249244,121.46033 119.23247,119.613245 C119.141072,119.785475 119.450105,120.571191 119.443653,120.986165 C119.673545,122.346477 119.834191,125.325446 120.21376,126.827217 C121.755481,125.797046 123.107309,124.928848 124.012685,123.539902 C124.818061,122.304809 125.178922,123.570673 125.446664,122.238994 C125.455051,122.197753 125.824943,122.415497 125.846664,122.391778 C125.840857,122.387932 125.218707,124.924788 125.736986,122.002232 L125.31118,122.002019 C121.978707,119.442512 129.696771,127.769136 128.606879,122.508663 C128.807309,122.707176 129.567954,121.657988 129.33161,122.002019 C128.560427,123.126424 132.648814,119.735473 132.616341,119.722652 C131.817846,119.407681 133.726233,121.548154 133.908169,122.098604 C134.641717,120.407722 134.798276,118.330287 136.381502,116.899459 C137.485803,115.900486 140.073545,116.402216 140.793115,117.291783 C141.653545,118.355929 140.427523,121.563539 141.439996,122.373615 C143.403652,123.94462 144.059566,118.522175 144.07462,118.482216 C144.256986,117.989674 144.988599,117.617864 145.602362,117.405249 C147.665158,116.690048 148.424082,117.99288 148.721932,119.047197 C149.127738,120.477811 151.330964,120.296607 151.627738,121.9377 C151.85677,123.209547 151.729244,124.525413 150.634835,125.628022 C150.428168,125.835723 151.869244,126.399635 151.990964,126.620157 C152.281717,127.145392 152.272039,127.787299 152.337416,128.342664 C152.542577,130.096155 151.75419,131.053031 150.335695,132.463346 Z" id="path14" fill="#231F20"></path>
                        <path d="M126.078921,119.289312 L126.044254,119.383978 C125.962921,119.259978 125.994921,119.247978 126.078921,119.289312" id="path16" fill="#231F20"></path>
                        <path d="M84.9105355,136.425474 C84.8825785,136.356668 84.9167721,135.989559 84.9612882,136.048749 C85.7686,137.118665 85.460428,138.415086 84.4894603,139.590989 C81.9449442,142.673808 81.9079549,146.639783 85.0529011,148.292201 C85.1042989,148.318911 85.0219334,148.463362 85.0634387,148.471909 C81.0623636,147.642815 81.3019335,145.354687 81.1578474,143.614872 C81.0894603,142.798813 81.4225786,141.957966 81.7898904,141.12353 C82.476342,139.563637 85.5427936,137.9687 84.9105355,136.425474" id="path18" fill="#231F20"></path>
                        <path d="M93.7630084,142.791334 C93.8027934,144.096729 93.6750514,145.392509 94.4161267,146.585293 C95.6062342,148.502252 97.4907503,150.356816 99.9556964,151.492973 C99.9744061,151.501734 99.9677394,151.612636 99.9683846,151.612636 C97.7507502,151.582721 95.3636535,149.700378 93.9339761,148.675764 C93.0395676,148.034284 92.7049439,147.162026 92.6116106,146.279725 C92.3681697,143.982622 93.4546213,141.658595 92.281073,139.474531 C92.2055891,139.333713 92.2896751,138.892456 92.2384923,138.842881 C93.3361267,139.902968 93.7232235,141.488289 93.7630084,142.791334" id="path20" fill="#231F20"></path>
                        <path d="M108.95118,145.085018 C109.885804,146.093179 110.467094,147.562684 111.876986,148.099458 C114.141933,148.962314 117.126019,149.019581 119.856986,148.570845 C119.877631,148.56764 119.949244,148.658455 119.949889,148.658028 C118.179352,149.844829 114.793976,150.182236 112.956986,150.15403 C111.807739,150.13608 110.273116,149.222367 109.589245,148.577042 C107.807739,146.897486 107.924298,144.359561 105.487309,143.276824 C105.330535,143.206949 105.09161,142.812916 105.017202,142.801805 C106.616341,143.038994 108.018492,144.078566 108.95118,145.085018" id="path22" fill="#231F20"></path>
                        <path d="M131.838276,144.209768 C131.825803,144.211691 131.885588,144.401657 131.860212,144.411913 C130.495911,144.954457 128.355911,145.562602 126.827524,145.503198 C125.077846,145.434605 123.084728,145.118566 121.489889,144.689489 C121.465588,144.682865 121.451395,144.425589 121.461717,144.422811 C124.967524,143.534527 128.343438,144.755517 131.838276,144.209768" id="path24" fill="#231F20"></path>
                        <path d="M132.138276,134.172177 C130.797846,135.519882 127.951395,135.890623 126.242362,136.959684 C122.490965,139.305721 115.991825,139.834375 111.357847,139.15486 C111.335266,139.151655 111.347739,138.989255 111.339782,138.989468 C116.429029,138.96404 122.280212,138.61253 126.123438,135.83592 C127.803438,134.621768 129.826663,133.515526 131.485803,132.262055 C132.928384,131.172267 136.553975,126.509255 136.959351,124.801279 C136.822792,125.509214 136.301502,128.03154 135.925588,129.132653 C135.21376,131.217141 133.880857,132.419968 132.138276,134.172177" id="path26" fill="#231F20"></path>
                        <path d="M136.985803,124.89516 C136.997803,124.804494 137.021803,124.70316 137.031136,124.61516 C137.027136,124.65116 137.011136,124.752494 136.985803,124.89516" id="path28" fill="#231F20"></path>
                        <path d="M136.959351,125.160034 C137.032685,124.941426 137.088685,124.773498 137.123351,124.660034 C137.084685,124.818128 137.032685,124.983786 136.959351,125.160034" id="path30" fill="#231F20"></path>
                        <path d="M141.261932,132.945417 C139.990534,133.783485 137.993545,134.04247 136.640642,134.796989 C136.028599,135.138028 133.776986,135.949814 133.137416,135.785491 C133.103007,135.776943 133.0929,135.642322 133.11505,135.623518 C134.621502,134.358295 136.540642,133.575144 138.553975,132.680876 C142.716341,130.831655 144.857846,126.41673 146.047093,123.251856 C146.092469,123.131552 146.501932,124.253393 146.325158,124.958978 C145.651824,127.647122 144.13505,131.051536 141.261932,132.945417" id="path32" fill="#231F20"></path>
                        <path d="M105.65118,135.375431 C102.973976,136.247048 98.8264491,136.915238 96.0273094,135.904299 C96.00946,135.897889 96.0230084,135.784636 96.0141911,135.784636 C99.2817179,135.818398 101.812686,135.580354 104.726019,134.216837 C107.477847,132.92875 110.941288,130.928454 112.784298,129.007007 C112.753331,129.039274 112.816556,129.131585 112.802363,129.172612 C111.911395,131.666304 108.937202,134.305515 105.65118,135.375431" id="path34" fill="#231F20"></path>
                        <path d="M124.635696,129.586091 C123.208814,135.601936 115.271395,138.097124 108.119782,137.300297 C108.102148,137.298373 108.095051,137.051782 108.093761,137.051996 C111.834621,136.761172 115.157416,135.786345 118.362793,134.341201 C121.55376,132.902253 122.663653,131.060938 124.566233,128.933286 C124.446018,129.068121 124.674621,129.422409 124.635696,129.586091" id="path36" fill="#231F20"></path>
                        <path d="M96.9036535,130.367106 C96.8234384,130.576516 96.6038686,131.38702 96.4834384,131.545787 C96.1589223,131.975505 95.6103202,132.560572 95.0683847,132.842421 C93.6425783,133.584759 90.2227934,133.357186 88.6931161,132.966358 C88.6604279,132.957811 88.6948365,132.793915 88.6750515,132.791564 C90.3980623,132.995846 92.0167719,132.693483 93.5658041,132.122092 C94.3129009,131.846654 94.9858041,131.434244 95.5832234,131.018842 C95.8552664,130.829732 96.7447288,130.281632 96.8836535,130.178423 C96.8509653,130.198937 96.9260191,130.33078 96.9036535,130.367106" id="path38" fill="#231F20"></path>
                        <path d="M95.1995675,74.5955847 C101.665589,71.1428788 106.177417,59.9689157 106.177417,59.9689157 C109.127739,52.4203151 113.667524,53.2684269 113.667524,53.2684269 C108.37032,50.6779359 102.182578,59.3496595 99.0270943,64.6216709 C98.7361266,65.1890019 98.4333309,65.7648802 98.1152664,66.3495196 C96.8860191,68.6090141 95.3959116,71.1405283 93.6116106,73.7348656 C93.8759116,73.833374 94.2070944,73.9744054 94.5589224,74.1735589 C96.6019331,72.9128233 98.5638685,68.1694661 98.5638685,68.1694661 C99.5449437,66.0881841 100.703008,64.6447487 101.604514,63.726335 C100.013976,65.5565383 99.4799975,67.9549274 99.4799975,67.9549274 C97.7232234,72.7019172 95.6529008,74.13766 95.0363417,74.475067 C95.0911804,74.5137438 95.145374,74.55413 95.1995675,74.5955847" id="path40" fill="#0EAA4C"></path>
                        <path d="M89.1894601,83.4519313 C89.86903,82.1371338 89.5619332,80.6719026 89.1070945,79.5628827 C85.9111806,83.2269221 82.0668797,86.704629 77.4692454,89.3919189 C77.3019336,89.4972651 63.0281705,99.8233302 45.6698913,100.105179 C49.6107514,100.370361 54.6939771,100.121847 58.1464502,99.6237493 C63.5825791,98.8393154 68.6640843,96.7020481 68.6640843,96.7020481 C68.0062349,97.0732172 65.6219338,99.7179839 57.8823641,100.728923 C51.1348374,101.610156 46.996773,101.154154 43.4443,100.021202 C43.4088161,100.017355 43.3737624,100.013509 43.3374183,100.009449 C67.2064499,109.867973 87.5419333,85.4936819 89.1894601,83.4519313" id="path42" fill="#0EAA4C"></path>
                        <path d="M108.257417,77.0903453 C112.606234,65.963179 117.362363,64.8272349 117.362363,64.8272349 C113.841072,63.2233228 110.45161,65.6719277 110.45161,65.6719277 C108.036556,67.0884388 105.670105,70.2936987 105.670105,70.2936987 C101.595696,75.6445594 97.8159115,74.4351081 97.4015029,74.2810419 C96.805804,74.8086277 96.3395675,75.2050115 96.0485997,75.4483975 C96.2701051,75.7479825 96.4544062,76.0894495 96.5750513,76.4798502 C101.991825,77.074319 103.541718,73.8425624 103.541718,73.8425624 C108.104513,68.4598627 110.584083,68.932318 110.584083,68.932318 C107.035481,69.6891867 105.668384,72.6192215 105.668384,72.6192215 C102.723223,77.9940149 110.418062,71.0133863 110.418062,71.0133863 C106.213546,77.469207 99.8567717,78.3297124 97.3109653,78.4008692 C102.34989,80.1135464 105.655696,77.3717671 105.903008,77.1576558 C100.662578,81.9044319 97.3997825,79.9763613 96.4316105,79.1720547 C96.229675,79.7592583 95.9118256,80.4056524 95.4612879,81.112519 C105.89075,83.3183788 108.257417,77.0903453 108.257417,77.0903453" id="path44" fill="#0EAA4C"></path>
                        <path d="M93.6038686,81.8529341 C94.2346213,80.9251182 96.6234384,76.9418349 93.1290299,74.4282702 C92.825374,74.8586297 92.5118256,75.2902714 92.1918257,75.7221267 C94.8329009,75.3802323 93.7264493,79.9740107 93.7264493,79.9740107 C94.2311804,77.5038238 92.7477396,76.6046416 91.7707504,76.2836883 C91.6460192,76.4484386 91.5219332,76.613189 91.3948364,76.7777256 C93.0855891,78.3921082 92.2135461,81.613608 92.2135461,81.613608 C92.2154816,79.2812472 91.3318257,78.2378283 90.6066644,77.7739204 C90.5197827,77.8820445 90.4322558,77.9897412 90.3440838,78.0976516 C91.8163418,79.623569 90.9701053,82.7427142 90.9701053,82.7427142 L89.9944064,83.4038524 C91.1696751,83.3715862 92.6118256,82.5382186 93.6038686,81.8529341" id="path46" fill="#0EAA4C"></path>
                        <path d="M24.3868811,84.7562584 C23.26215,83.7339942 21.9122575,83.332482 21.4060855,83.8540846 C20.9095264,84.3842346 21.4216124,85.6398417 22.5612898,86.6655249 C23.7172037,87.6946269 25.0378488,88.0967802 25.5443004,87.5732544 C26.06258,87.0351982 25.5436553,85.7817279 24.3868811,84.7562584 Z M61.6344071,46.9822713 C60.561934,50.9813671 60.5972028,60.474492 60.5989232,60.8766453 C59.513762,74.6487921 55.0161277,75.5045964 54.9707513,75.5114343 L54.9382782,75.5165627 L54.9025793,75.5287427 C54.5748373,75.6490468 54.2238696,75.7103741 53.8591384,75.7103741 C49.7935471,75.7103741 44.9307516,68.4137069 44.8821494,68.339986 L44.3195688,68.6579477 C44.5716118,69.3145986 44.8397838,69.9515906 45.1174182,70.5539658 C41.5756979,77.9660223 32.7587089,87.5865028 31.9034401,88.5106861 C25.8703219,90.2263548 20.7469672,91.0962624 16.6744727,91.0962624 C11.405075,91.0962624 7.8315697,89.6558186 6.05333318,86.8151036 C3.04948379,82.0157613 6.19522565,74.7378983 6.22731167,74.6648184 C9.79847287,65.1022462 14.7151394,59.059904 18.2121071,55.671517 C21.1616339,52.8134936 23.6243005,51.3115089 24.5843005,50.7800768 C24.7761284,57.085464 33.6501067,58.5645845 33.7419346,58.5793287 C41.2892463,59.5451803 46.0062354,62.9927578 48.6359128,65.7150918 C51.4806439,68.6600846 52.5548374,71.3973765 52.565375,71.424728 L52.933332,72.3801091 L53.1668804,71.3336986 C58.0251598,49.5783181 54.2152675,41.8767197 54.0507513,41.559399 C52.9120417,39.3746939 49.976988,36.7707408 42.4595688,36.7707408 C41.2909667,36.7707408 40.2991388,36.8380513 39.6281711,36.9008744 C49.8950525,27.7464386 55.4288158,26.3587748 57.8369878,26.3589885 C58.9116114,26.3589885 59.3894609,26.6382734 59.393977,26.6410513 L59.4286007,26.661565 L59.4707512,26.673745 C64.8520414,28.0981624 61.6673103,46.7935883 61.6344071,46.9822713 Z" id="path48" fill="#FBC01C"></path>
                        <path d="M51.0191385,31.4393253 C51.0191385,31.4393253 62.2931167,22.373141 60.2169877,40.683722 C60.2169877,40.683722 60.7858049,28.7926354 51.0191385,31.4393253" id="path50" fill="#FFFFFF"></path>
                        <path d="M51.0363428,72.008299 C51.0363428,72.008299 53.169246,74.9654717 54.5890309,71.2796366 C54.5890309,71.2796366 54.5782782,78.0521369 51.0363428,72.008299" id="path52" fill="#FFFFFF"></path>
                        <path d="M52.8501062,92.8939858 C49.5707514,92.0364719 48.2956977,89.5850892 48.2956977,89.5850892 C48.1438698,89.2363569 47.9875257,88.9139078 47.828816,88.6066302 C50.2098912,89.3055905 52.8434395,88.4724367 53.7488159,86.7157406 C54.6649449,84.9387445 53.4638696,82.8779761 51.0576331,82.127518 C49.3993536,81.6099754 47.6025795,81.8548572 46.3477408,82.641428 C47.0458053,81.3385967 48.0855902,80.149659 49.6324719,79.532967 C51.0202138,81.2336779 54.2036546,84.2026032 59.9617189,85.0537065 C58.6094609,89.5380787 54.529461,92.0345488 52.8501062,92.8939858" id="path54" fill="#FFFFFF"></path>
                        <path d="M48.7735472,78.3126177 C48.7735472,78.3126177 48.9253751,78.5940395 49.2522568,79.0417075 C48.2298913,79.4141587 44.896558,80.8832361 43.9595688,84.4782555 C42.3217194,83.7205321 41.0389237,84.0630676 41.0389237,84.0630676 C35.9232249,85.0663139 38.5262356,90.0861781 38.5262356,90.0861781 C38.5741926,87.2373432 40.2473108,86.5734271 40.2473108,86.5734271 C42.596128,85.5674028 43.5825796,87.403803 43.5825796,87.403803 C44.132472,88.2459316 46.4520418,91.6714997 46.4520418,91.6714997 C52.8595686,99.3701064 63.1739769,90.8379184 63.1739769,90.8379184 C59.8404286,92.6140597 57.1705362,93.2147254 55.0645148,93.185237 C59.8195684,90.9800183 60.7090307,86.3101684 60.8572028,85.1665317 C62.0898909,85.2949557 63.4301059,85.3291452 64.8888156,85.2364063 C64.8888156,85.2364063 58.5468803,84.7534805 48.7735472,78.3126177 Z M71.1916111,73.3053608 C71.0374176,73.9509001 69.4002133,74.9620528 69.4002133,74.9620528 C69.9116112,75.3105714 71.3795681,75.1242389 71.3795681,75.1242389 C71.3335466,75.9693591 69.1765574,77.0446169 69.1765574,77.0446169 C69.5154821,77.3407829 71.2924713,77.0732506 71.2924713,77.0732506 C71.0883853,77.9732876 69.1696757,78.974397 69.1696757,78.974397 C69.5051596,79.1739779 71.1264498,79.0970516 71.1264498,79.0970516 C70.7449445,80.18278 68.750966,81.0537559 68.750966,81.0537559 C69.3242993,81.3071851 70.6275251,81.1732053 70.6275251,81.1732053 C70.0567724,82.5587323 68.2597832,83.0824717 68.2597832,83.0824717 C68.7273101,83.2886768 70.1516111,83.1818348 70.1516111,83.1818348 C69.7851595,84.1782432 67.5247295,85.3201705 67.5247295,85.3201705 C68.2604284,85.7665563 69.482794,85.569326 69.482794,85.569326 C69.1434391,86.6655249 67.0896757,87.4988924 67.0896757,87.4988924 C67.4847295,87.942073 68.963009,87.7837332 68.963009,87.7837332 C68.6494606,88.464744 66.014622,90.1272055 66.014622,90.1272055 C66.6804284,90.6731681 68.3172026,90.3515737 68.3172026,90.3515737 C68.2204284,90.7037249 67.9698908,91.087074 67.626665,91.4776883 C59.8535469,95.3938747 53.8270954,96.8217112 53.7161277,96.8471396 C51.7215041,97.3623317 49.7797837,97.6223851 47.9356977,97.6223851 C38.1167732,97.6223851 33.3077411,90.2710148 32.4735476,88.8557857 C41.1625796,82.6717711 45.2580634,75.4716891 46.4529021,73.0741547 C49.5238697,78.0841895 52.8554825,78.6386995 54.173547,78.6386995 C54.5797836,78.6386995 54.8187083,78.5884838 54.8447298,78.5827143 C61.934192,77.1422705 62.7720414,66.5944015 62.8012888,62.0764809 C63.3363425,61.8303169 63.8189231,61.3856405 63.8189231,61.3856405 C63.96645,62.1262693 63.8718264,62.916259 63.8718264,62.916259 C64.2860199,62.9664747 65.2380629,62.4662405 65.2380629,62.4662405 C65.3541919,63.4107237 65.1847296,64.1094704 65.1847296,64.1094704 C65.7079553,64.1094704 66.4817188,63.714155 66.4817188,63.714155 C66.6202134,64.6131235 66.1933317,65.3518291 66.1933317,65.3518291 C66.8995682,65.4383711 67.6273101,65.1052377 67.6273101,65.1052377 C67.774837,65.7909497 67.1447295,66.7388518 67.1447295,66.7388518 C67.3920413,66.8856527 68.635052,66.6307277 68.635052,66.6307277 C68.614837,67.530551 67.954837,68.3201134 67.954837,68.3201134 C68.5834391,68.5196942 69.7092456,68.0805736 69.7092456,68.0805736 C69.5952671,68.7282498 68.6417187,69.8058581 68.6417187,69.8058581 C69.1924714,70.1554451 70.3483853,69.8428255 70.3483853,69.8428255 C70.2075251,70.6439267 69.0279553,71.4437459 69.0279553,71.4437459 C69.4141918,71.6892688 71.0075251,71.5446047 71.0075251,71.5446047 C70.7842993,72.1931357 69.3042993,73.0339821 69.3042993,73.0339821 C70.0045144,73.4245965 71.1916111,73.3053608 71.1916111,73.3053608 Z" id="path56" fill="#FFFFFF"></path>
                        <path d="M51.4539772,86.0858002 C51.9247299,85.1797801 51.6681708,84.1639264 50.9066654,83.4438114 C52.1956976,84.1305917 52.8204288,85.3218799 52.2864503,86.3492725 C51.7380632,87.4042304 50.1948375,87.9271151 48.6062353,87.7106532 C49.8591385,87.5920586 50.9662353,87.0238729 51.4539772,86.0858002" id="path58" fill="#7CCCED"></path>
                        <path d="M47.1679558,85.9244688 C47.912687,86.1567433 48.7645149,85.828952 49.0881708,85.2005074 C49.4094611,84.5774049 49.0913966,83.8694699 48.3468805,83.6371954 C47.6189235,83.4100493 46.7529021,83.7485247 46.4316117,84.3718409 C46.1077408,85.0000718 46.4399988,85.6973227 47.1679558,85.9244688" id="path60" fill="#FFFFFF"></path>
                        <path d="M46.3477408,82.641428 C47.6025795,81.8548572 49.3993536,81.6099754 51.0576331,82.127518 C53.4638696,82.8779761 54.6649449,84.9387445 53.7488159,86.7157406 C52.8434395,88.4724367 50.2098912,89.3055905 47.828816,88.6066302 C47.9875257,88.9139078 48.1438698,89.2363569 48.2956977,89.5850892 C48.2956977,89.5850892 49.5707514,92.0364719 52.8501062,92.8939858 C54.529461,92.0345488 58.6094609,89.5380787 59.9617189,85.0537065 C54.2036546,84.2026032 51.0202138,81.2336779 49.6324719,79.532967 C48.0855902,80.149659 47.0458053,81.3385967 46.3477408,82.641428" id="path62" fill="#FEEAB4"></path>
                        <path d="M32.4264508,96.6633713 C33.4247303,96.3550253 33.9180637,96.2689107 34.1060207,96.2449781 C34.899569,96.9020563 35.7286013,97.4471642 36.559569,97.9006016 C33.551182,98.9604742 25.0827951,102.082184 20.0023436,106.281929 C12.029075,112.682619 8.17516109,121.121641 8.54763419,131.364583 C8.55425785,131.551129 8.56133312,131.736179 8.56855893,131.918879 C10.4946234,124.545927 12.6703653,121.464817 15.7899781,121.464817 C16.2595695,121.464817 16.7268168,121.546444 17.1784297,121.707349 C22.0554833,123.445881 20.7898274,131.321419 19.4496769,139.659368 C19.0604941,142.081903 18.505806,145.532472 18.5180641,147.222072 C19.9534619,147.327204 22.2415048,147.410327 25.1221499,147.410327 C42.4860204,147.410327 65.6997833,144.720046 73.9761272,137.137469 C88.6774171,123.668968 100.086234,115.995575 109.880427,112.989255 C117.554621,110.633817 131.038276,107.933492 138.19505,106.568693 C134.976556,103.655325 129.827954,99.1200961 124.162793,94.6169198 C115.689459,87.8811731 109.785374,84.1449085 105.705589,82.1082864 C106.581288,81.7525026 107.399567,81.272141 108.115481,80.6338669 C122.841717,88.505985 143.403652,108.040975 143.403652,108.040975 C143.403652,108.040975 121.259352,112.27085 110.719782,115.505812 C109.226019,115.964378 107.707094,116.528931 106.163653,117.193702 C105.82989,117.337297 106.610105,118.388836 105.306234,118.388836 C104.983653,118.388836 104.57161,117.909329 104.276126,118.049933 C95.445589,122.256944 85.8554817,129.572842 75.7079551,138.869592 C65.8359123,147.913767 39.1468807,149.807861 25.1221499,149.807861 C21.1459995,149.807861 18.1859135,149.655505 16.9179351,149.470668 C13.4357416,148.963169 21.6292468,125.852177 16.3044297,123.954236 C16.1303867,123.892054 15.9592469,123.862352 15.7899781,123.862352 C10.9719352,123.862352 8.15625786,148.194334 8.15625786,148.194334 C8.15625786,148.194334 6.5306665,144.818554 6.04451598,131.447919 C5.07275256,104.719899 32.4264508,96.6633713 32.4264508,96.6633713" id="path64" fill="#FFFFFF"></path>
                        <path d="M15.5909028,66.5048679 C15.5909028,66.5048679 -5.54503212,90.1641728 20.9091823,88.7824921 C20.9091823,88.7824921 4.59240849,88.6600512 15.5909028,66.5048679" id="path66" fill="#FFFFFF"></path>
                        <path d="M56.0748373,78.4071252 C56.2440102,78.3351252 56.4069175,78.2564586 56.5748373,78.1831252 C56.4069175,78.2564586 56.2440102,78.3351252 56.0748373,78.4071252" id="path68" fill="#D21C2D"></path>
                        <path d="M59.8805146,75.022098 C59.8605146,75.054098 59.837848,75.0847646 59.817848,75.1167646 C59.837848,75.0847646 59.8605146,75.054098 59.8805146,75.022098" id="path70" fill="#D21C2D"></path>
                        <path d="M55.4230094,78.6207667 C55.5899753,78.5487668 55.7578388,78.4794334 55.9230094,78.4034334 C55.7578388,78.4794334 55.5899753,78.5487668 55.4230094,78.6207667" id="path72" fill="#D21C2D"></path>
                        <path d="M57.1759125,78.0028195 C57.3447024,77.8734862 57.5092459,77.7388195 57.6759125,77.6068195 C57.5092459,77.7388195 57.3447024,77.8734862 57.1759125,78.0028195" id="path74" fill="#D21C2D"></path>
                        <path d="M56.6206437,78.1850125 C56.7860184,78.1010125 56.9565611,78.0210125 57.1206437,77.9356792 C56.9565611,78.0210125 56.7873104,78.1010125 56.6206437,78.1850125" id="path76" fill="#D21C2D"></path>
                        <path d="M57.7262351,77.3225247 C57.7382351,77.3131914 57.7489018,77.3065247 57.7595684,77.2971914 C57.7489018,77.3065247 57.7382351,77.3131914 57.7262351,77.3225247" id="path78" fill="#D21C2D"></path>
                        <path d="M59.4276544,76.0063264 C59.2983211,76.1609931 59.1623211,76.3103264 59.0303211,76.4636598 C59.1623211,76.3103264 59.2983211,76.1609931 59.4276544,76.0063264" id="path80" fill="#D21C2D"></path>
                        <path d="M113.922363,31.0264878 C113.922363,31.0264878 104.275696,31.4153927 99.3969868,34.7854029 C99.1408577,34.9623332 98.9920405,35.06191 99.0318255,35.0704573 C99.1197825,35.0901162 99.8556964,35.3538023 100.075266,35.407437 C110.771825,38.0257069 116.093976,42.7694914 116.093976,42.7694914 C103.962578,41.8363335 100.885159,52.2551374 100.854836,52.3459531 C96.4909653,64.3742248 90.9670945,72.7190119 88.6561268,75.450107 C82.0864496,83.032897 74.2268799,88.1521244 67.626665,91.4774746 C67.9698908,91.087074 68.2204284,90.7037249 68.3172026,90.3515737 C68.3172026,90.3515737 66.6804284,90.6731681 66.014622,90.1272055 C66.014622,90.1272055 68.6494606,88.464744 68.963009,87.7837332 C68.963009,87.7837332 67.4847295,87.942073 67.0896757,87.4988924 C67.0896757,87.4988924 69.1434391,86.6655249 69.482794,85.569326 C69.482794,85.569326 68.2604284,85.7665563 67.5247295,85.3201705 C67.5247295,85.3201705 69.7851595,84.1782432 70.1516111,83.1818348 C70.1516111,83.1818348 68.7273101,83.2886768 68.2597832,83.0824717 C68.2597832,83.0824717 70.0567724,82.5587323 70.6275251,81.1732053 C70.6275251,81.1732053 69.3242993,81.3071851 68.750966,81.0537559 C68.750966,81.0537559 70.7449445,80.18278 71.1264498,79.0970516 C71.1264498,79.0970516 69.5051596,79.1739779 69.1696757,78.974397 C69.1696757,78.974397 71.0883853,77.9732876 71.2924713,77.0732506 C71.2924713,77.0732506 69.5154821,77.3407829 69.1765574,77.0446169 C69.1765574,77.0446169 71.3335466,75.9693591 71.3795681,75.1242389 C71.3795681,75.1242389 69.9116112,75.3105714 69.4002133,74.9620528 C69.4002133,74.9620528 71.0374176,73.9509001 71.1916111,73.3053608 C71.1916111,73.3053608 70.0045144,73.4245965 69.3042993,73.0339821 C69.3042993,73.0339821 70.7842993,72.1931357 71.0075251,71.5446047 C71.0075251,71.5446047 69.4141918,71.6892688 69.0279553,71.4437459 C69.0279553,71.4437459 70.2075251,70.6439267 70.3483853,69.8428255 C70.3483853,69.8428255 69.1924714,70.1554451 68.6417187,69.8058581 C68.6417187,69.8058581 69.5952671,68.7282498 69.7092456,68.0805736 C69.7092456,68.0805736 68.5834391,68.5196942 67.954837,68.3201134 C67.954837,68.3201134 68.614837,67.530551 68.635052,66.6307277 C68.635052,66.6307277 67.3920413,66.8856527 67.1447295,66.7388518 C67.1447295,66.7388518 67.774837,65.7909497 67.6273101,65.1052377 C67.6273101,65.1052377 66.8995682,65.4383711 66.1933317,65.3518291 C66.1933317,65.3518291 66.6202134,64.6131235 66.4817188,63.714155 C66.4817188,63.714155 65.7079553,64.1094704 65.1847296,64.1094704 C65.1847296,64.1094704 65.3541919,63.4107237 65.2380629,62.4662405 C65.2380629,62.4662405 64.2860199,62.9664747 63.8718264,62.916259 C63.8718264,62.916259 63.96645,62.1262693 63.8189231,61.3856405 C63.8189231,61.3856405 63.3363425,61.8303169 62.8012888,62.0764809 C62.8012888,62.0769082 62.8012888,62.0773356 62.8012888,62.0775493 C62.8086006,60.9448105 62.7651597,60.1900786 62.7565576,60.0533209 C62.5698909,54.3612068 63.4098909,48.4665203 63.4180629,48.4077572 C67.7322564,26.061113 62.142149,23.4308768 62.3154823,23.2565106 C81.1086001,4.35188812 99.762148,6.65901278 113.537201,18.5836691 C113.819352,18.8278886 105.919137,16.2506674 97.5380621,22.2387338 C97.3670943,22.360961 105.997417,25.1162024 113.922363,31.0264878" id="path82" fill="#D21C2D"></path>
                        <path d="M59.8936329,75.483228 C59.7402996,75.6502471 59.5869663,75.8172661 59.4309663,75.983228 C59.5869663,75.8172661 59.7402996,75.6502471 59.8936329,75.483228" id="path84" fill="#D21C2D"></path>
                        <path d="M58.6359125,76.8674639 C58.7732458,76.7261305 58.9065792,76.5807972 59.0425792,76.4394639 C58.9065792,76.5807972 58.7732458,76.7261305 58.6359125,76.8674639" id="path86" fill="#D21C2D"></path>
                        <path d="M54.381289,96.9715661 C54.5375714,96.8635661 54.7037189,96.7462328 54.881289,96.6195661 C54.7037189,96.7462328 54.5375714,96.8635661 54.381289,96.9715661" id="path88" fill="#D21C2D"></path>
                        <path d="M53.7161277,96.9546259 C53.756634,96.9452926 53.9287859,96.9012926 54.2161277,96.8266259 C53.9287859,96.9012926 53.756634,96.9452926 53.7161277,96.9546259" id="path90" fill="#D21C2D"></path>
                        <path d="M54.5984933,96.6165745 C56.553762,96.075954 61.5569877,94.5355062 67.6251596,91.4783293 C61.554192,94.5367883 56.5516115,96.0770225 54.5984933,96.6165745" id="path92" fill="#D21C2D"></path>
                        <path d="M58.1572028,77.3676441 C58.3246557,77.2049775 58.4921085,77.0423108 58.6572028,76.8743108 C58.4921085,77.0423108 58.3246557,77.2049775 58.1572028,77.3676441" id="path94" fill="#D21C2D"></path>
                        <path d="M53.9120417,96.9412561 C54.0615366,96.8905895 54.2271932,96.8345895 54.4120417,96.7719228 C54.2261831,96.8359228 54.0615366,96.8905895 53.9120417,96.9412561" id="path96" fill="#D21C2D"></path>
                        <path d="M54.1954825,96.968731 C54.3501409,96.880731 54.5166005,96.784731 54.6954825,96.6793976 C54.5166005,96.7833976 54.3501409,96.880731 54.1954825,96.968731" id="path98" fill="#D21C2D"></path>
                        <path d="M53.8189234,96.922001 C53.9562567,96.8873343 54.1082567,96.850001 54.2909234,96.8033343 C54.10959,96.850001 53.9562567,96.8873343 53.8189234,96.922001" id="path100" fill="#D21C2D"></path>
                        <path d="M54.0417191,96.9506818 C54.1953815,96.8840151 54.3609866,96.8106818 54.5417191,96.7306818 C54.3609866,96.8106818 54.1945853,96.8840151 54.0417191,96.9506818" id="path102" fill="#D21C2D"></path>
                        <path d="M60.5325576,74.4314754 C60.3965576,74.5997264 60.2605576,74.7651256 60.1232243,74.9314754 C60.2605576,74.7651256 60.3965576,74.5997264 60.5325576,74.4314754" id="path104" fill="#D21C2D"></path>
                        <path d="M62.6205576,66.2905428 C62.5925576,66.4575136 62.5645576,66.623572 62.5365576,66.7905428 C62.5645576,66.623572 62.5925576,66.4575136 62.6205576,66.2905428" id="path106" fill="#D21C2D"></path>
                        <path d="M62.6112673,65.7473581 C62.6112673,65.7593581 62.6099339,65.7700248 62.6086006,65.7806915 C62.6099339,65.7700248 62.6112673,65.7593581 62.6112673,65.7473581" id="path108" fill="#D21C2D"></path>
                        <path d="M62.7131597,65.1063062 C62.6958264,65.2729728 62.6771597,65.4386043 62.6584931,65.6063062 C62.6771597,65.4396395 62.6958264,65.2719376 62.7131597,65.1063062" id="path110" fill="#D21C2D"></path>
                        <path d="M62.5417619,66.9486895 C62.5137619,67.1153562 62.4830952,67.2820228 62.4537619,67.4486895 C62.4830952,67.2820228 62.5124285,67.1153562 62.5417619,66.9486895" id="path112" fill="#D21C2D"></path>
                        <path d="M62.7618049,64.0032694 C62.7551382,64.1299361 62.7458049,64.2592694 62.7391382,64.3859361 C62.7458049,64.2592694 62.7551382,64.1299361 62.7618049,64.0032694" id="path114" fill="#D21C2D"></path>
                        <path d="M62.7315683,64.5336331 C62.722235,64.6642997 62.7155683,64.7922997 62.706235,64.9242997 C62.7155683,64.7936331 62.722235,64.6642997 62.7315683,64.5336331" id="path116" fill="#D21C2D"></path>
                        <path d="M62.7831382,63.4513237 C62.7778049,63.6019903 62.7711382,63.7499903 62.7658049,63.900657 C62.7711382,63.7499903 62.7778049,63.6019903 62.7831382,63.4513237" id="path118" fill="#D21C2D"></path>
                        <path d="M62.8006006,62.4953015 C62.7992672,62.5939682 62.7979339,62.6926348 62.7952672,62.7926348 C62.7979339,62.6926348 62.7992672,62.5939682 62.8006006,62.4953015" id="path120" fill="#D21C2D"></path>
                        <path d="M60.7483856,73.8515371 C60.6497189,74.0185825 60.5550522,74.185628 60.4550523,74.3515371 C60.5550522,74.185628 60.6497189,74.0185825 60.7483856,73.8515371" id="path122" fill="#D21C2D"></path>
                        <path d="M62.4555683,67.5489278 C62.426235,67.7167131 62.3969017,67.8822612 62.366235,68.0489278 C62.3969017,67.8822612 62.426235,67.7167131 62.4555683,67.5489278" id="path124" fill="#D21C2D"></path>
                        <path d="M61.3124716,72.1046705 C61.2911383,72.1660038 61.2684716,72.2246705 61.2458049,72.2846705 C61.2684716,72.2246705 61.2911383,72.1660038 61.3124716,72.1046705" id="path126" fill="#D21C2D"></path>
                        <path d="M61.31402,72.6555478 C61.2073533,72.8224941 61.1006866,72.9894404 60.9926866,73.1555478 C61.1006866,72.9894404 61.2073533,72.8224941 61.31402,72.6555478" id="path128" fill="#D21C2D"></path>
                        <path d="M61.0081275,73.3000187 C60.9147942,73.468497 60.8174608,73.6326274 60.7227942,73.8000187 C60.8174608,73.6326274 60.9147942,73.468497 61.0081275,73.3000187" id="path130" fill="#D21C2D"></path>
                        <path d="M61.7151382,71.4223775 C61.6271382,71.5895801 61.5364716,71.7559788 61.4458049,71.9223775 C61.5364716,71.7559788 61.6271382,71.5895801 61.7151382,71.4223775" id="path132" fill="#D21C2D"></path>
                        <path d="M61.8449877,70.7695729 C61.782321,70.9362396 61.7209877,71.1039043 61.6569877,71.2695729 C61.7209877,71.1039043 61.782321,70.9362396 61.8449877,70.7695729" id="path134" fill="#D21C2D"></path>
                        <path d="M62.1761705,68.8983422 C62.1628372,68.9623422 62.1481705,69.0290089 62.1348372,69.0943422 C62.1481705,69.0290089 62.1615038,68.9623422 62.1761705,68.8983422" id="path136" fill="#D21C2D"></path>
                        <path d="M62.3976759,68.1972451 C62.3496759,68.3644476 62.2990092,68.5308463 62.2496759,68.6972451 C62.2990092,68.5308463 62.3496759,68.3636438 62.3976759,68.1972451" id="path138" fill="#D21C2D"></path>
                        <path d="M62.1773318,69.4742206 C62.1146651,69.6406244 62.0506651,69.8070281 61.9866651,69.9742206 C62.0506651,69.8070281 62.1146651,69.6406244 62.1773318,69.4742206" id="path140" fill="#D21C2D"></path>
                        <path d="M62.0025791,70.1644199 C61.9439124,70.3320555 61.8825791,70.4977532 61.8225791,70.6644199 C61.8825791,70.4977532 61.9452458,70.3310865 62.0025791,70.1644199" id="path142" fill="#D21C2D"></path>
                        <path d="M131.838276,144.209768 C128.343438,144.755517 124.967524,143.534527 121.461717,144.422811 C121.451395,144.425589 121.465588,144.682865 121.489889,144.689489 C123.084728,145.118566 125.077846,145.434605 126.827524,145.503198 C128.355911,145.562602 130.495911,144.954457 131.860212,144.411913 C131.885588,144.401657 131.825803,144.211691 131.838276,144.209768 Z M119.856986,148.570845 C117.126019,149.019581 114.141933,148.962314 111.876986,148.099458 C110.467094,147.562684 109.885804,146.093179 108.95118,145.085018 C108.018492,144.078566 106.616341,143.038994 105.017202,142.801805 C105.09161,142.812916 105.330535,143.206949 105.487309,143.276824 C107.924298,144.359561 107.807739,146.897486 109.589245,148.577042 C110.273116,149.222367 111.807739,150.13608 112.956986,150.15403 C114.793976,150.182236 118.179352,149.844829 119.949889,148.658028 C119.949244,148.658455 119.877631,148.56764 119.856986,148.570845 Z M99.9556964,151.492973 C97.4907503,150.356816 95.6062342,148.502252 94.4161267,146.585293 C93.6750514,145.392509 93.8027934,144.096729 93.7630084,142.791334 C93.7232235,141.488289 93.3361267,139.902968 92.2384923,138.842881 C92.2896751,138.892456 92.2055891,139.333713 92.281073,139.474531 C93.4546213,141.658595 92.3681697,143.982622 92.6116106,146.279725 C92.7049439,147.162026 93.0395676,148.034284 93.9339761,148.675764 C95.3636535,149.700378 97.7507502,151.582721 99.9683846,151.612636 C99.9677394,151.612636 99.9744061,151.501734 99.9556964,151.492973 Z M84.9612882,136.048749 C84.9167721,135.989559 84.8825785,136.356668 84.9105355,136.425474 C85.5427936,137.9687 82.476342,139.563637 81.7898904,141.12353 C81.4225786,141.957966 81.0894603,142.798813 81.1578474,143.614872 C81.3019335,145.354687 81.0623636,147.642815 85.0634387,148.471909 C85.0219334,148.463362 85.1042989,148.318911 85.0529011,148.292201 C81.9079549,146.639783 81.9449442,142.673808 84.4894603,139.590989 C85.460428,138.415086 85.7686,137.118665 84.9612882,136.048749 Z M142.522147,138.432181 C142.447308,139.555517 141.969674,140.524574 141.739566,140.754712 C140.550964,141.94365 139.524943,142.176565 137.505803,142.357983 C135.375696,142.549444 135.409889,143.128314 135.148599,144.313191 C134.966018,145.13908 135.226018,146.66457 133.670104,146.950265 C132.062792,147.24579 129.267524,147.490031 127.728384,147.017576 C125.641932,146.376738 124.280212,147.064373 124.444513,148.542639 C124.606233,150.001673 119.561287,151.869271 116.9529,152.181677 C114.486234,152.477416 111.998277,152.366941 109.663868,151.901965 C106.881073,150.99338 104.386234,149.861924 102.723438,147.969324 C101.035266,146.047878 100.487954,144.094379 100.250105,141.849415 C100.242148,141.775053 100.123868,141.195115 100.114836,141.542778 C100.061503,143.666156 100.233331,146.082067 101.350105,148.035566 C102.021718,149.208905 103.220858,150.807475 104.727524,151.686571 C104.730535,151.723966 104.733331,151.753027 104.735051,151.76542 C104.761288,151.950685 104.796772,152.139154 104.824083,152.32805 C100.489245,154.463181 95.2972019,151.623748 91.4264493,149.043728 C90.0778472,147.021636 89.1137612,145.674999 88.1885999,142.212037 C87.6513957,140.201057 88.2268795,137.939212 87.0374172,136.028236 C87.0720408,136.083153 87.0092451,136.454749 87.0466645,136.585524 C87.5903204,138.465729 86.9273097,140.241016 86.6944064,142.155624 C86.576557,143.121689 87.0187075,144.04395 87.0858043,144.987578 C87.1427935,145.784833 87.3322559,146.454305 87.7215032,147.124845 C87.6913957,147.414387 87.6952666,147.735768 87.7015032,147.778505 C87.9092451,149.288396 86.5070946,150.331174 84.1969871,149.730294 C80.7896754,148.843506 77.7451593,146.988942 77.719783,144.176647 C77.711611,143.294346 77.9393529,142.489826 78.2131163,141.71052 C78.3505357,141.591285 78.4864497,141.471835 78.6182776,141.35089 C81.6836539,138.542655 84.5879549,136.002594 87.3481699,133.719167 C90.5587074,136.192131 93.9503202,138.447352 98.4920405,139.704455 C104.150965,141.270972 109.867954,142.432986 116.044083,142.70351 C119.09032,142.837062 122.362363,142.53064 125.35419,142.033397 C128.291395,141.545343 132.407954,141.077161 134.858921,139.677317 C136.529674,138.723218 138.543652,138.052892 140.341502,137.201575 C140.698706,137.032337 141.575695,136.69899 142.438276,136.30517 C142.428814,137.162257 142.547523,138.049473 142.522147,138.432181 Z" id="path144" fill="#AB1B2C"></path>
                        <path d="M146.047093,123.251856 C144.857846,126.41673 142.716341,130.831655 138.553975,132.680876 C136.540642,133.575144 134.621502,134.358295 133.11505,135.623518 C133.0929,135.642322 133.103007,135.776943 133.137416,135.785491 C133.776986,135.949814 136.028599,135.138028 136.640642,134.796989 C137.993545,134.04247 139.990534,133.783485 141.261932,132.945417 C144.13505,131.051536 145.651824,127.647122 146.325158,124.958978 C146.501932,124.253393 146.092469,123.131552 146.047093,123.251856 Z M136.959351,124.801279 C136.553975,126.509255 132.928384,131.172267 131.485803,132.262055 C129.826663,133.515526 127.803438,134.621768 126.123438,135.83592 C122.280212,138.61253 116.429029,138.96404 111.339782,138.989468 C111.347739,138.989255 111.335266,139.151655 111.357847,139.15486 C115.991825,139.834375 122.490965,139.305721 126.242362,136.959684 C127.951395,135.890623 130.797846,135.519882 132.138276,134.172177 C133.880857,132.419968 135.21376,131.217141 135.925588,129.132653 C136.301502,128.03154 136.822792,125.509214 136.959351,124.801279 C136.971179,124.739524 136.980212,124.692086 136.985803,124.660034 C136.979566,124.704694 136.971179,124.751491 136.959351,124.801279 Z M124.566233,128.933286 C122.663653,131.060938 121.55376,132.902253 118.362793,134.341201 C115.157416,135.786345 111.834621,136.761172 108.093761,137.051996 C108.095051,137.051782 108.102148,137.298373 108.119782,137.300297 C115.271395,138.097124 123.208814,135.601936 124.635696,129.586091 C124.674621,129.422409 124.446018,129.068121 124.566233,128.933286 Z M112.784298,129.007007 C110.941288,130.928454 107.477847,132.92875 104.726019,134.216837 C101.812686,135.580354 99.2817179,135.818398 96.0141911,135.784636 C96.0230084,135.784636 96.00946,135.897889 96.0273094,135.904299 C98.8264491,136.915238 102.973976,136.247048 105.65118,135.375431 C108.937202,134.305515 111.911395,131.666304 112.802363,129.172612 C112.816556,129.131585 112.753331,129.039274 112.784298,129.007007 Z M149.663007,124.705549 C149.507953,125.236981 149.576555,125.826321 149.631609,126.352838 C149.77462,127.704603 150.329459,128.034745 151.521932,128.672164 C150.945803,130.335053 148.506018,131.902853 146.707738,132.666559 C145.687093,133.100338 144.565803,133.548219 143.605373,134.078797 C140.639781,135.469238 136.841072,137.390258 133.739351,138.707619 C128.388599,140.979935 120.983868,141.78766 114.947524,141.507948 C104.65204,141.031646 95.1722557,138.070841 87.4913957,133.60164 C90.4666644,131.145343 93.2731159,128.989485 95.9333309,127.1174 C96.1139761,127.220395 96.3172019,127.341341 96.5453739,127.493484 C97.5868793,128.189239 99.5804276,130.384414 101.345159,129.277745 C102.284514,128.688618 104.823653,131.015637 105.886234,130.542968 C107.427739,129.857256 106.525589,127.445618 108.19161,127.572974 C109.463653,127.670841 110.197632,128.24907 111.684728,128.003334 C112.836556,127.812941 114.761718,127.147315 115.342578,126.375275 C116.273115,125.139541 117.507954,124.253393 118.39161,123.186469 C118.37075,123.890344 118.507954,125.491265 118.492255,125.884016 C118.482148,126.144497 118.406664,127.443268 118.923653,127.544554 C119.214836,127.692637 120.136556,127.964443 120.226018,127.949485 C121.355911,127.761016 122.289889,127.04838 123.131825,126.509469 C123.976556,125.968848 124.378061,125.235485 124.73247,124.492719 C125.29161,123.317885 126.307524,123.722816 126.720427,122.676619 C126.750965,122.599052 127.387954,122.501612 127.414405,122.6326 C127.490965,123.011889 127.61247,123.389042 127.725588,123.758501 C128.111825,125.026075 127.277846,126.453911 126.715051,127.681098 C126.619567,127.890508 126.915051,128.74268 126.947739,128.704431 C128.061932,127.380231 128.595481,125.683794 128.653115,124.013853 C128.780427,123.864488 128.896556,123.731577 128.908169,123.717687 C129.106663,123.478148 129.309029,123.241813 129.449459,122.983683 C129.878276,122.193052 130.766233,121.77936 131.865373,121.52764 C132.216341,121.446868 132.978921,121.266518 133.208384,121.618029 C133.361717,121.853081 133.352255,122.094117 133.445588,122.338144 C133.775481,123.200572 133.828384,124.072617 133.837201,124.97244 C133.837846,125.03334 133.999567,125.61221 134.054405,125.417971 C134.074835,125.346387 134.088599,125.272452 134.105588,125.199586 C135.568814,123.416393 135.266878,118.746116 139.097631,118.879668 C140.767523,118.93779 141.365158,121.560975 141.890319,122.642857 C141.9129,122.717433 142.384728,122.522767 142.481287,122.545844 C144.191179,121.862056 144.534835,119.867102 146.663437,119.791244 C149.311394,119.69701 147.709459,122.850772 149.831179,122.753118 C151.162147,122.691791 151.23548,121.893895 150.244082,123.446309 C149.861932,124.045265 149.849459,124.066206 149.663007,124.705549 Z" id="path146" fill="#AB1B2C"></path>
                        <path d="M144.472039,0 C131.350534,0 121.138707,3.20184089 113.240427,9.78546596 C101.966879,19.2029253 100.415051,29.6734408 100.415051,39.5894463 L100.415051,75.6770394 L89.2533311,75.6770394 L89.2533311,103.831187 L143.746663,103.831187 L143.746663,75.6770394 L134.320857,75.6770394 L134.320857,41.3149445 C134.320857,37.9045481 134.438921,35.1512299 135.866233,33.3212402 C137.557631,31.1662371 140.776986,29.8807143 144.472039,29.8807143 C146.89376,29.8807143 150.264297,30.4072316 152.609674,32.9193006 C153.987093,34.4385938 154.483867,36.6401799 154.483867,41.3149445 L154.483867,75.6770394 L145.063222,75.6770394 L145.063222,103.831187 L199.555694,103.831187 L199.555694,75.6770394 L188.393544,75.6770394 L188.393544,39.0971184 C188.393544,29.733486 186.95935,19.807245 176.585372,10.6499673 C168.587308,3.58388649 157.789243,0 144.472039,0" id="path148" fill="#AB1B2C"></path>
                        <path d="M144.472039,1.94961639 C131.8329,1.94961639 122.029459,5.00170113 114.501287,11.2801855 C103.846664,20.1858717 102.378062,30.149315 102.378062,39.5894463 L102.378062,77.6281879 L91.2184923,77.6281879 L91.2184923,101.876192 L141.781717,101.876192 L141.781717,77.6281879 L132.356341,77.6281879 L132.356341,41.3149445 C132.356341,37.5233358 132.500857,34.4394485 134.318706,32.1248235 C136.377201,29.4952284 140.17247,27.9255058 144.472039,27.9255058 C147.278061,27.9255058 151.216555,28.5624977 154.043222,31.5961693 C156.05376,33.800747 156.447523,36.8292902 156.447523,41.3149445 L156.447523,77.6281879 L147.027953,77.6281879 L147.027953,101.876192 L197.592468,101.876192 L197.592468,77.6281879 L186.430963,77.6281879 L186.430963,39.0971184 C186.430963,30.1929066 185.079995,20.7604893 175.27892,12.1090443 C167.65548,5.36772043 157.290534,1.94961639 144.472039,1.94961639" id="path150" fill="#231F20"></path>
                        <path d="M144.472039,8.06998952 C133.342362,8.06998952 124.835481,10.6523178 118.465588,15.9656129 C110.229675,22.846451 108.541933,30.3858632 108.541933,39.5894463 L108.541933,83.7470289 L97.3746212,83.7470289 L97.3746212,95.7597017 L135.621072,95.7597017 L135.621072,83.7470289 L126.200427,83.7470289 L126.200427,41.3149445 C126.200427,36.6790704 126.449889,32.200254 129.463653,28.3622758 C132.722792,24.198216 138.19333,21.809229 144.472039,21.809229 C150.177201,21.809229 155.181717,23.8069606 158.563867,27.43446 C162.292469,31.5254399 162.603867,36.5344063 162.603867,41.3149445 L162.603867,83.7470289 L153.188813,83.7470289 L153.188813,95.7597017 L191.430318,95.7597017 L191.430318,83.7470289 L180.267307,83.7470289 L180.267307,39.0971184 C180.267307,30.4542421 178.724082,23.3357874 171.193114,16.6869673 C164.724297,10.9689975 155.73419,8.06998952 144.472039,8.06998952" id="path152" fill="#FFFFFF"></path>
                        <path d="M192.457199,96.7800428 L152.161932,96.7800428 L152.161932,82.7266879 L161.5772,82.7266879 L161.5772,41.3149445 C161.5772,36.7532187 161.292469,31.9481069 157.810749,28.1278645 C154.478276,24.5535724 149.69634,22.82957 144.472039,22.82957 C138.819997,22.82957 133.45505,24.9245278 130.273115,28.9898657 C127.37118,32.6855303 127.227094,37.1254562 127.227094,41.3149445 L127.227094,82.7266879 L136.647954,82.7266879 L136.647954,96.7800428 L96.3477395,96.7800428 L96.3477395,82.7266879 L107.515266,82.7266879 L107.515266,39.5894463 C107.515266,29.9775131 109.394406,22.2111685 117.805588,15.1839141 C125.195696,9.02022086 134.470534,7.04964848 144.472039,7.04964848 C154.763652,7.04964848 164.485372,9.39224468 171.874834,15.9241369 C179.554189,22.7039238 181.293974,29.9775131 181.293974,39.0971184 L181.293974,82.7266879 L192.457199,82.7266879 L192.457199,96.7800428 Z M190.403651,94.7395744 L190.403651,84.7671563 L179.240426,84.7671563 L179.240426,39.0971184 C179.240426,34.178754 178.714404,30.5501862 177.534619,27.3312506 C176.192684,23.6695618 173.895264,20.4371213 170.510103,17.4487935 C167.225372,14.5452768 163.239996,12.3720465 158.664297,10.9895325 C154.492684,9.72905338 149.717631,9.09007415 144.472039,9.09007415 C139.23505,9.09007415 134.736341,9.63907106 130.718706,10.7685833 C126.226664,12.0316693 122.434621,13.9871129 119.127094,16.7457304 C115.419567,19.8433149 112.901288,23.2417664 111.428384,27.1353024 C110.142363,30.535442 109.568814,34.3766254 109.568814,39.5894463 L109.568814,82.7266879 L109.568814,84.7671563 L107.515266,84.7671563 L98.4012879,84.7671563 L98.4012879,94.7395744 L134.594405,94.7395744 L134.594405,84.7671563 L127.227094,84.7671563 L125.173545,84.7671563 L125.173545,82.7266879 L125.173545,41.3149445 C125.173545,36.4942337 125.439782,31.8282301 128.65204,27.7372502 C132.108169,23.3216842 137.874405,20.789123 144.472039,20.789123 C150.466448,20.789123 155.738491,22.9028636 159.3172,26.7408417 L159.324942,26.7496028 L159.332684,26.7581501 C163.298706,31.1091835 163.630749,36.5534242 163.630749,41.3149445 L163.630749,82.7266879 L163.630749,84.7671563 L161.5772,84.7671563 L154.21548,84.7671563 L154.21548,94.7395744 L190.403651,94.7395744 Z" id="path154" fill="#D3D4D3"></path>
                        <path d="M157.21634,117.140708 L157.21634,122.057363 L156.55505,122.056294 C155.77419,122.008857 155.233975,121.790258 154.752684,121.328059 C154.249028,120.844065 154.024297,120.378234 154.024297,118.89719 L154.024297,117.140708 L154.507523,117.140708 L157.21634,117.140708 Z M127.621502,122.4093 C126.057846,122.4093 124.8329,121.123778 124.8329,119.482471 C124.8329,118.047797 126.099352,116.789625 127.543223,116.789625 C129.150749,116.789625 130.410104,118.075148 130.410104,119.716455 C130.410104,121.201345 129.159352,122.4093 127.621502,122.4093 Z M174.226662,98.065993 L174.226662,109.533772 L177.977845,109.533772 L173.033759,122.058218 L171.59634,122.058218 C170.820641,122.010352 170.282361,121.790899 169.800856,121.328487 C169.296555,120.844279 169.071824,120.378448 169.071824,118.89719 L169.071824,117.140708 L171.780856,117.140708 L171.780856,105.67357 L130.904513,105.67357 C129.721502,105.310308 128.450965,105.12718 127.110965,105.12718 C122.865803,105.12718 118.923008,106.990077 116.223008,110.194483 C115.733761,109.524797 115.175266,108.917721 114.564298,108.395477 C111.813546,106.00414 108.735696,105.67357 105.820858,105.67357 L89.2533311,105.67357 L89.2533311,117.140708 L92.2763418,117.140708 L92.2763418,129.080515 L89.2533311,129.080515 L89.2533311,140.547866 L105.23204,140.547866 C107.844298,140.547866 110.61204,140.288881 113.15204,138.409958 C115.807954,136.402396 117.206019,133.516167 117.206019,130.0547 C117.206019,130.016237 117.205804,129.977774 117.205373,129.93931 C119.851395,132.533007 123.451825,134.071959 127.346663,134.071959 C128.578491,134.071959 129.768599,133.888618 130.899137,133.525996 L153.670749,133.525996 L153.670749,133.372785 C154.148813,133.497576 154.639351,133.593093 155.141286,133.659121 L155.141286,133.757843 L156.427523,133.759125 L168.71849,133.759125 L168.71849,133.372785 C169.329243,133.532193 169.960641,133.644163 170.609888,133.707414 L170.627523,133.758484 L199.509457,133.759125 L199.509457,122.058218 L195.708597,122.058218 L190.500855,109.533772 L191.499565,109.533772 L191.499565,98.065993 L174.226662,98.065993 Z" id="path156" fill="#AB1B2C"></path>
                        <path d="M144.078706,115.243194 L140.35548,115.243194 L140.35548,123.955731 L144.078706,123.955731 L144.078706,115.243194 Z M127.543223,114.891898 C125.038707,114.891898 122.923223,116.994121 122.923223,119.482471 C122.923223,122.18771 124.987094,124.307028 127.621502,124.307028 C130.21204,124.307028 132.319782,122.247755 132.319782,119.716455 C132.319782,117.011002 130.221717,114.891898 127.543223,114.891898 Z M107.091395,115.877622 L107.068599,115.86245 C106.439782,115.438074 105.249675,115.438074 104.461933,115.438074 L102.771395,115.438288 L102.771395,119.937618 L104.132471,119.937618 C105.324944,119.937618 106.354836,119.937618 107.053546,119.434819 C107.633546,119.008092 107.927739,118.380716 107.927739,117.57064 C107.927739,116.871894 107.599997,116.20755 107.091395,115.877622 Z M102.81075,130.978242 L103.936772,130.978242 L104.628169,130.981234 C105.30903,130.981234 106.009675,130.958369 106.438062,130.685922 C106.905589,130.388688 107.142793,129.913882 107.142793,129.27454 C107.142793,128.853368 107.042363,128.278559 106.565589,127.933886 C106.084944,127.592419 105.506019,127.530024 104.539137,127.530024 L102.81075,127.531947 L102.81075,130.978242 Z M184.577845,123.955731 L185.873544,123.955731 L184.323006,119.974585 L182.864727,123.955731 L184.211178,123.955731 L184.211178,131.861612 L171.617845,131.861612 L171.501286,131.861612 L171.501286,131.861398 L171.396985,131.861184 C169.700856,131.787891 168.120211,131.330607 166.808598,130.536344 L166.808598,131.861612 L156.4172,131.861612 L156.4172,131.860971 L156.349028,131.861184 C154.653114,131.787891 153.072469,131.330607 151.761071,130.536344 L151.761071,131.628482 L142.986018,131.628482 L141.369459,131.628482 L132.241502,131.628482 L132.241502,130.846185 C130.798921,131.715879 129.111825,132.174445 127.346663,132.174445 C121.299137,132.174445 116.233761,127.870849 115.012685,122.148392 C114.477201,122.956759 113.807309,123.677088 113.006664,124.285446 C114.484083,125.794696 115.296126,127.837515 115.296126,130.0547 C115.296126,132.900757 114.160642,135.263461 112.011825,136.887459 C109.917632,138.436668 107.515481,138.650138 105.231825,138.650138 L91.1630085,138.650138 L91.1630085,130.978242 L94.1862342,130.978242 L94.1862342,115.243194 L91.1630085,115.243194 L91.1630085,107.571084 L105.820858,107.571084 C108.189245,107.571084 110.916771,107.745878 113.318492,109.83357 C114.567954,110.90199 115.502793,112.340297 116.028814,113.938012 C118.059782,109.844254 122.263223,107.024481 127.110965,107.024481 C129.030965,107.024481 130.755696,107.456122 132.241502,108.30808 L132.241502,107.571084 L141.369459,107.571084 L142.986018,107.571084 L154.823437,107.571084 L154.823437,115.243194 L152.114405,115.243194 L152.114405,118.896977 C152.114405,120.769276 152.457416,121.762479 153.425373,122.692645 C154.242577,123.477293 155.249243,123.889917 156.496985,123.953808 L157.620856,123.955731 L159.126018,123.955731 L159.126018,115.243194 L156.4172,115.243194 L156.4172,107.571084 L169.870963,107.571084 L169.870963,115.243194 L167.161931,115.243194 L167.161931,118.896977 C167.161931,120.769276 167.504942,121.762479 168.473114,122.692645 C169.290748,123.47772 170.295695,123.890985 171.53849,123.955731 L174.336125,123.955731 L180.055049,109.469025 L179.300211,107.636044 L176.13634,107.636044 L176.13634,99.9639342 L189.589888,99.9639342 L189.589888,107.636044 L187.645587,107.636044 L194.431393,123.955731 L197.599995,123.955731 L197.599995,131.861612 L184.577845,131.861612 L184.577845,123.955731 Z" id="path158" fill="#231F20"></path>
                        <path d="M107.980212,114.528208 C106.881073,113.78651 105.349675,113.826042 104.093116,113.826042 L101.1486,113.826042 L101.1486,121.550077 L104.132471,121.550077 C105.506664,121.550077 106.881073,121.550077 108.019352,120.730813 C109.079567,119.950652 109.550535,118.819409 109.550535,117.57064 C109.550535,116.40072 109.000857,115.191269 107.980212,114.528208 Z M101.187954,132.590488 L103.936126,132.590488 C105.074621,132.590488 106.33118,132.668269 107.312901,132.044098 C108.294406,131.419927 108.765374,130.405783 108.765374,129.274753 C108.765374,128.221291 108.372685,127.245824 107.50903,126.621867 C106.409675,125.841279 105.19247,125.919487 103.896987,125.919487 L101.187954,125.919487 L101.187954,132.590488 Z M110.021718,124.124755 C112.377632,125.217108 113.67333,127.518912 113.67333,130.0547 C113.67333,132.278295 112.848599,134.228803 111.042578,135.594244 C109.354406,136.842799 107.312901,137.037679 105.231825,137.037679 L92.7858041,137.037679 L92.7858041,132.590488 L95.8088148,132.590488 L95.8088148,113.630735 L92.7858041,113.630735 L92.7858041,109.183544 L105.820858,109.183544 C108.215911,109.183544 110.375266,109.417741 112.259997,111.056056 C113.947954,112.499492 114.890535,114.723087 114.890535,116.946683 C114.890535,120.263058 113.123653,122.876414 110.021718,124.124755 Z" id="path160" fill="#D3D4D3"></path>
                        <path d="M127.543223,113.279438 C124.166449,113.279438 121.300427,116.088314 121.300427,119.482471 C121.300427,122.993512 124.048814,125.919487 127.621502,125.919487 C131.076556,125.919487 133.942792,123.149502 133.942792,119.716455 C133.942792,116.166523 131.15505,113.279438 127.543223,113.279438 Z M133.864083,127.05073 C132.41161,129.313644 130.055696,130.561772 127.346663,130.561772 C121.221717,130.561772 116.35333,125.529514 116.35333,119.482471 C116.35333,113.591844 121.104083,108.637154 127.110965,108.637154 C129.859352,108.637154 132.3329,109.690616 133.864083,111.99242 L133.864083,109.183544 L141.363222,109.183544 L141.363222,113.630735 L138.73247,113.630735 L138.73247,125.568405 L141.363222,125.568405 L141.363222,130.015809 L133.864083,130.015809 L133.864083,127.05073 Z" id="path162" fill="#D3D4D3"></path>
                        <path d="M150.138061,126.465877 L150.138061,130.015809 L142.99247,130.015809 L142.99247,125.568405 L145.701287,125.568405 L145.701287,113.630735 L142.99247,113.630735 L142.99247,109.183544 L153.200641,109.183544 L153.200641,113.630735 L150.491609,113.630735 L150.491609,118.89719 C150.491609,120.847698 150.81548,122.428318 152.297416,123.851881 C153.482577,124.990389 154.888598,125.496607 156.419566,125.574815 L156.419566,130.250007 C153.710964,130.132908 151.355265,128.923457 150.138061,126.465877" id="path164" fill="#D3D4D3"></path>
                        <path d="M165.185802,126.465877 L165.185802,130.248939 L158.039996,130.248939 L158.039996,125.568405 L160.749028,125.568405 L160.749028,113.630735 L158.039996,113.630735 L158.039996,109.183544 L168.248168,109.183544 L168.248168,113.630735 L165.539351,113.630735 L165.539351,118.89719 C165.539351,120.847698 165.863007,122.428318 167.345157,123.851881 C168.530318,124.990389 169.93634,125.496607 171.467308,125.574815 L171.467308,130.250007 C168.75849,130.132908 166.402792,128.923457 165.185802,126.465877" id="path166" fill="#D3D4D3"></path>
                        <polyline id="path168" fill="#D3D4D3" points="186.200641 125.568405 188.241931 125.568405 184.276555 115.386576 180.547092 125.568405 182.588167 125.568405 182.588167 130.248939 173.124082 130.248939 173.124082 125.568405 175.442576 125.568405 181.803006 109.456632 180.389458 106.023585 177.75935 106.023585 177.75935 101.57618 187.967307 101.57618 187.967307 106.023585 185.21892 106.023585 193.346017 125.568405 195.976984 125.568405 195.976984 130.248939 186.200641 130.248939 186.200641 125.568405"></polyline>
                        <path d="M100.532686,125.268606 L103.896987,125.268606 L104.538707,125.266469 C105.691825,125.266469 106.815696,125.329506 107.88989,126.092144 C108.877202,126.805635 109.420642,127.935382 109.420642,129.27454 C109.420642,130.694897 108.797632,131.873364 107.666019,132.592411 C106.719782,133.194359 105.601718,133.244574 104.627954,133.244574 L103.935696,133.241583 L100.532686,133.241583 L100.532686,125.268606 Z M100.493546,113.174947 L104.461933,113.174519 C105.816987,113.174519 107.233116,113.237343 108.348169,113.98951 C109.493331,114.733344 110.205804,116.105836 110.205804,117.570426 C110.205804,119.115362 109.584513,120.389132 108.409245,121.253911 C107.093331,122.200959 105.588169,122.200959 104.132471,122.200959 L100.493546,122.200959 L100.493546,113.174947 Z M93.4410729,109.834211 L93.4410729,112.97964 L96.4640836,112.97964 L96.4640836,133.241583 L93.4410729,133.241583 L93.4410729,136.386797 L105.231825,136.386797 C107.123653,136.386797 109.089245,136.227389 110.65161,135.072 C112.199352,133.901866 113.018062,132.166752 113.018062,130.054914 C113.018062,127.661653 111.794406,125.66499 109.744728,124.714737 L108.381288,124.082446 L109.775911,123.521526 C112.609675,122.38088 114.235266,119.984628 114.235266,116.946469 C114.235266,114.853221 113.336986,112.83583 111.83247,111.549239 C110.18989,110.121189 108.314406,109.834211 105.820858,109.834211 L93.4410729,109.834211 Z" id="path170" fill="#FFFFFF"></path>
                        <path d="M127.621502,126.570369 C123.774836,126.570369 120.645373,123.390751 120.645373,119.482471 C120.645373,115.767147 123.804083,112.628557 127.543223,112.628557 C131.498921,112.628557 134.597846,115.741719 134.597846,119.716455 C134.597846,123.49567 131.468384,126.570369 127.621502,126.570369 Z M127.110965,109.287821 C121.540427,109.287821 117.008599,113.861513 117.008599,119.482471 C117.008599,125.232921 121.646018,129.911104 127.346663,129.911104 C129.864298,129.911104 131.982577,128.770673 133.311825,126.700502 L134.519351,124.819656 L134.519351,129.365142 L140.708169,129.365142 L140.708169,126.219286 L138.077416,126.219286 L138.077416,112.97964 L140.708169,112.97964 L140.708169,109.834211 L134.519351,109.834211 L134.519351,114.157893 L133.317631,112.351195 C132.003653,110.3759 129.799352,109.287821 127.110965,109.287821 Z" id="path172" fill="#FFFFFF"></path>
                        <path d="M143.647523,109.834211 L143.647523,112.97964 L146.356555,112.97964 L146.356555,126.219286 L143.647523,126.219286 L143.647523,129.365142 L149.482792,129.365142 L149.482792,126.377412 L150.686663,126.099196 L150.726018,126.178686 C151.664512,128.073422 153.450964,129.265351 155.764512,129.544209 L155.764512,126.170139 C154.23677,125.975045 152.917631,125.353011 151.842147,124.319849 C150.079351,122.626617 149.83634,120.712863 149.83634,118.896977 L149.83634,112.97964 L152.545588,112.97964 L152.545588,109.834211 L143.647523,109.834211" id="path174" fill="#FFFFFF"></path>
                        <path d="M158.69505,109.834211 L158.69505,112.97964 L161.404297,112.97964 L161.404297,126.219286 L158.69505,126.219286 L158.69505,129.598271 L164.530749,129.598271 L164.530749,126.377412 L165.734189,126.099196 L165.773544,126.178686 C166.712254,128.073422 168.49849,129.265351 170.812254,129.544209 L170.812254,126.170139 C169.284512,125.975045 167.965157,125.353011 166.889888,124.319849 C165.127308,122.626403 164.884297,120.71265 164.884297,118.896977 L164.884297,112.97964 L167.593114,112.97964 L167.593114,109.834211 L158.69505,109.834211" id="path176" fill="#FFFFFF"></path>
                        <polyline id="path178" fill="#FFFFFF" points="178.414404 102.227061 178.414404 105.37249 180.829243 105.37249 182.509028 109.45129 175.889458 126.219286 173.779135 126.219286 173.779135 129.598271 181.933114 129.598271 181.933114 126.219286 179.610963 126.219286 184.257845 113.53415 189.19806 126.219286 186.855694 126.219286 186.855694 129.598271 195.321931 129.598271 195.321931 126.219286 192.907952 126.219286 184.239565 105.37249 187.312253 105.37249 187.312253 102.227061 178.414404 102.227061"></polyline>
                        <path d="M16.6651609,152.909271 C15.485548,152.737255 14.4396771,152.126119 13.7198491,151.18826 C12.6139997,149.746962 12.677075,147.880646 12.7074836,144.762355 C12.4429674,146.539779 12.2788169,147.850089 12.223118,148.307372 C11.9465803,150.028383 11.3376126,151.793627 9.18296751,152.128042 C8.97412881,152.160522 8.76453742,152.176976 8.56032237,152.176976 C6.66010736,152.176976 5.3989461,150.780765 4.98513966,149.424085 C4.5400644,148.390709 3.06139777,144.064891 2.60281714,131.456253 C2.04796769,116.191524 9.82804277,106.710365 16.4525372,101.444551 C23.5208596,95.8259438 30.7193541,93.7703038 31.0223648,93.6854713 L31.5763433,93.5305504 C30.8374186,92.4961062 30.1886014,91.3001169 29.6756982,89.9160857 C25.9479563,91.1073739 19.0553544,92.9963404 12.8456771,92.9963404 C7.31425788,92.9963404 3.52645152,91.4952104 1.58770104,88.534405 C-0.698673101,85.0423813 -0.576277405,79.503906 2.58122574,72.1286031 C2.66599993,71.9478264 11.232946,53.9915335 27.0832251,46.350194 L27.7929025,46.0082997 L27.4881714,46.7269189 C27.4799993,46.7463641 26.6767735,48.6917432 27.7524724,50.683278 C28.946881,52.8944799 31.8918272,54.3287268 36.5109668,54.9467009 C36.6408593,54.9663598 49.0245149,56.9581083 52.4208589,67.5903825 C52.7963428,65.1272472 53.4247298,60.2558933 53.4103212,55.3135963 C53.3870954,47.3322856 51.6793535,42.3850739 48.4948375,41.0160006 C48.456988,41.0033933 44.6479559,39.7524872 39.9090313,39.7522735 C37.9384937,39.7522735 36.0692464,39.9674533 34.3533325,40.3914023 L33.4686013,40.6102147 C33.4686013,40.6102147 43.696558,21.6267428 58.5690308,21.2818355 C60.0503211,17.5648239 93.5578471,-15.4350783 121.429244,24.1052634 C121.429244,24.1052634 113.276341,20.3724392 105.606234,22.2387338 C114.528599,26.4380515 117.567954,29.9116985 121.429244,35.5629989 C121.429244,35.5629989 115.781072,32.8930175 107.406234,35.0704573 C107.737632,35.0230195 120.176126,38.9541638 122.511825,47.5134897 C122.511825,47.5134897 110.067309,42.0957458 104.172471,52.1183796 C104.157417,52.1707322 104.107524,52.3410383 104.024514,52.6094254 C115.189029,46.415154 121.429244,55.4458667 121.429244,55.4458667 C113.85032,53.5795507 111.084943,56.0161893 109.258492,59.956522 C106.773116,65.3195628 101.214191,70.8321823 98.0445137,73.7047362 C98.2827932,73.694052 98.5232233,73.6884962 98.766019,73.6884962 L98.9982771,73.6902057 C99.0477395,73.6908467 99.0991373,73.6949067 99.1490298,73.6964025 C101.899137,72.4360943 103.101718,69.9368464 103.101718,69.9368464 C104.953761,66.9123632 107.982148,65.2009682 107.982148,65.2009682 C115.477847,59.3541469 121.310965,65.5781204 121.310965,65.5781204 C116.575481,62.2198628 110.95161,75.6648594 110.257417,77.3830924 C110.257417,77.3830924 108.816987,81.6742942 102.678922,82.7606636 C99.7225782,83.283762 94.9875245,82.1219622 94.9875245,82.1219622 C94.9875245,82.1219622 93.7047288,83.5827059 92.4909654,84.1438401 C90.9505354,84.8556215 89.5855892,84.615227 89.5855892,84.615227 C89.5855892,84.615227 78.8030088,101.042397 62.7961275,103.179237 C46.7894612,105.316077 18.2900641,153.146246 16.6651609,152.909271" id="path180" fill="#231F20"></path>
                        <path d="M95.1995675,74.5955847 C101.665589,71.1428788 106.177417,59.9689157 106.177417,59.9689157 C109.127739,52.4203151 113.667524,53.2684269 113.667524,53.2684269 C108.37032,50.6779359 102.182578,59.3496595 99.0270943,64.6216709 C98.7361266,65.1890019 98.4333309,65.7648802 98.1152664,66.3495196 C96.8860191,68.6090141 95.3959116,71.1405283 93.6116106,73.7348656 C93.8759116,73.833374 94.2070944,73.9744054 94.5589224,74.1735589 C96.6019331,72.9128233 98.5638685,68.1694661 98.5638685,68.1694661 C99.5449437,66.0881841 100.703008,64.6447487 101.604514,63.726335 C100.013976,65.5565383 99.4799975,67.9549274 99.4799975,67.9549274 C97.7232234,72.7019172 95.6529008,74.13766 95.0363417,74.475067 C95.0911804,74.5137438 95.145374,74.55413 95.1995675,74.5955847" id="path182" fill="#0EAA4C"></path>
                        <path d="M89.1894601,83.4519313 C89.86903,82.1371338 89.5619332,80.6719026 89.1070945,79.5628827 C85.9111806,83.2269221 82.0668797,86.704629 77.4692454,89.3919189 C77.3019336,89.4972651 63.0281705,99.8233302 45.6698913,100.105179 C49.6107514,100.370361 54.6939771,100.121847 58.1464502,99.6237493 C63.5825791,98.8393154 68.6640843,96.7020481 68.6640843,96.7020481 C68.0062349,97.0732172 65.6219338,99.7179839 57.8823641,100.728923 C51.1348374,101.610156 46.996773,101.154154 43.4443,100.021202 C43.4088161,100.017355 43.3737624,100.013509 43.3374183,100.009449 C67.2064499,109.867973 87.5419333,85.4936819 89.1894601,83.4519313" id="path184" fill="#0EAA4C"></path>
                        <path d="M108.257417,77.0903453 C112.606234,65.963179 117.362363,64.8272349 117.362363,64.8272349 C113.841072,63.2233228 110.45161,65.6719277 110.45161,65.6719277 C108.036556,67.0884388 105.670105,70.2936987 105.670105,70.2936987 C101.595696,75.6445594 97.8159115,74.4351081 97.4015029,74.2810419 C96.805804,74.8086277 96.3395675,75.2050115 96.0485997,75.4483975 C96.2701051,75.7479825 96.4544062,76.0894495 96.5750513,76.4798502 C101.991825,77.074319 103.541718,73.8425624 103.541718,73.8425624 C108.104513,68.4598627 110.584083,68.932318 110.584083,68.932318 C107.035481,69.6891867 105.668384,72.6192215 105.668384,72.6192215 C102.723223,77.9940149 110.418062,71.0133863 110.418062,71.0133863 C106.213546,77.469207 99.8567717,78.3297124 97.3109653,78.4008692 C102.34989,80.1135464 105.655696,77.3717671 105.903008,77.1576558 C100.662578,81.9044319 97.3997825,79.9763613 96.4316105,79.1720547 C96.229675,79.7592583 95.9118256,80.4056524 95.4612879,81.112519 C105.89075,83.3183788 108.257417,77.0903453 108.257417,77.0903453" id="path186" fill="#0EAA4C"></path>
                        <path d="M93.6038686,81.8529341 C94.2346213,80.9251182 96.6234384,76.9418349 93.1290299,74.4282702 C92.825374,74.8586297 92.5118256,75.2902714 92.1918257,75.7221267 C94.8329009,75.3802323 93.7264493,79.9740107 93.7264493,79.9740107 C94.2311804,77.5038238 92.7477396,76.6046416 91.7707504,76.2836883 C91.6460192,76.4484386 91.5219332,76.613189 91.3948364,76.7777256 C93.0855891,78.3921082 92.2135461,81.613608 92.2135461,81.613608 C92.2154816,79.2812472 91.3318257,78.2378283 90.6066644,77.7739204 C90.5197827,77.8820445 90.4322558,77.9897412 90.3440838,78.0976516 C91.8163418,79.623569 90.9701053,82.7427142 90.9701053,82.7427142 L89.9944064,83.4038524 C91.1696751,83.3715862 92.6118256,82.5382186 93.6038686,81.8529341" id="path188" fill="#0EAA4C"></path>
                        <path d="M24.3868811,84.7562584 C23.26215,83.7339942 21.9122575,83.332482 21.4060855,83.8540846 C20.9095264,84.3842346 21.4216124,85.6398417 22.5612898,86.6655249 C23.7172037,87.6946269 25.0378488,88.0967802 25.5443004,87.5732544 C26.06258,87.0351982 25.5436553,85.7817279 24.3868811,84.7562584 Z M61.6344071,46.9822713 C60.561934,50.9813671 60.5972028,60.474492 60.5989232,60.8766453 C59.513762,74.6487921 55.0161277,75.5045964 54.9707513,75.5114343 L54.9382782,75.5165627 L54.9025793,75.5287427 C54.5748373,75.6490468 54.2238696,75.7103741 53.8591384,75.7103741 C49.7935471,75.7103741 44.9307516,68.4137069 44.8821494,68.339986 L44.3195688,68.6579477 C44.5716118,69.3145986 44.8397838,69.9515906 45.1174182,70.5539658 C41.5756979,77.9660223 32.7587089,87.5865028 31.9034401,88.5106861 C25.8703219,90.2263548 20.7469672,91.0962624 16.6744727,91.0962624 C11.405075,91.0962624 7.8315697,89.6558186 6.05333318,86.8151036 C3.04948379,82.0157613 6.19522565,74.7378983 6.22731167,74.6648184 C9.79847287,65.1022462 14.7151394,59.059904 18.2121071,55.671517 C21.1616339,52.8134936 23.6243005,51.3115089 24.5843005,50.7800768 C24.7761284,57.085464 33.6501067,58.5645845 33.7419346,58.5793287 C41.2892463,59.5451803 46.0062354,62.9927578 48.6359128,65.7150918 C51.4806439,68.6600846 52.5548374,71.3973765 52.565375,71.424728 L52.933332,72.3801091 L53.1668804,71.3336986 C58.0251598,49.5783181 54.2152675,41.8767197 54.0507513,41.559399 C52.9120417,39.3746939 49.976988,36.7707408 42.4595688,36.7707408 C41.2909667,36.7707408 40.2991388,36.8380513 39.6281711,36.9008744 C49.8950525,27.7464386 55.4288158,26.3587748 57.8369878,26.3589885 C58.9116114,26.3589885 59.3894609,26.6382734 59.393977,26.6410513 L59.4286007,26.661565 L59.4707512,26.673745 C64.8520414,28.0981624 61.6673103,46.7935883 61.6344071,46.9822713 Z" id="path190" fill="#FBC01C"></path>
                        <path d="M51.0191385,31.4393253 C51.0191385,31.4393253 62.2931167,22.373141 60.2169877,40.683722 C60.2169877,40.683722 60.7858049,28.7926354 51.0191385,31.4393253" id="path192" fill="#FFFFFF"></path>
                        <path d="M51.0363428,72.008299 C51.0363428,72.008299 53.169246,74.9654717 54.5890309,71.2796366 C54.5890309,71.2796366 54.5782782,78.0521369 51.0363428,72.008299" id="path194" fill="#FFFFFF"></path>
                        <path d="M52.8501062,92.8939858 C49.5707514,92.0364719 48.2956977,89.5850892 48.2956977,89.5850892 C48.1438698,89.2363569 47.9875257,88.9139078 47.828816,88.6066302 C50.2098912,89.3055905 52.8434395,88.4724367 53.7488159,86.7157406 C54.6649449,84.9387445 53.4638696,82.8779761 51.0576331,82.127518 C49.3993536,81.6099754 47.6025795,81.8548572 46.3477408,82.641428 C47.0458053,81.3385967 48.0855902,80.149659 49.6324719,79.532967 C51.0202138,81.2336779 54.2036546,84.2026032 59.9617189,85.0537065 C58.6094609,89.5380787 54.529461,92.0345488 52.8501062,92.8939858" id="path196" fill="#FFFFFF"></path>
                        <path d="M48.7735472,78.3126177 C48.7735472,78.3126177 48.9253751,78.5940395 49.2522568,79.0417075 C48.2298913,79.4141587 44.896558,80.8832361 43.9595688,84.4782555 C42.3217194,83.7205321 41.0389237,84.0630676 41.0389237,84.0630676 C35.9232249,85.0663139 38.5262356,90.0861781 38.5262356,90.0861781 C38.5741926,87.2373432 40.2473108,86.5734271 40.2473108,86.5734271 C42.596128,85.5674028 43.5825796,87.403803 43.5825796,87.403803 C44.132472,88.2459316 46.4520418,91.6714997 46.4520418,91.6714997 C52.8595686,99.3701064 63.1739769,90.8379184 63.1739769,90.8379184 C59.8404286,92.6140597 57.1705362,93.2147254 55.0645148,93.185237 C59.8195684,90.9800183 60.7090307,86.3101684 60.8572028,85.1665317 C62.0898909,85.2949557 63.4301059,85.3291452 64.8888156,85.2364063 C64.8888156,85.2364063 58.5468803,84.7534805 48.7735472,78.3126177 Z M71.1916111,73.3053608 C71.0374176,73.9509001 69.4002133,74.9620528 69.4002133,74.9620528 C69.9116112,75.3105714 71.3795681,75.1242389 71.3795681,75.1242389 C71.3335466,75.9693591 69.1765574,77.0446169 69.1765574,77.0446169 C69.5154821,77.3407829 71.2924713,77.0732506 71.2924713,77.0732506 C71.0883853,77.9732876 69.1696757,78.974397 69.1696757,78.974397 C69.5051596,79.1739779 71.1264498,79.0970516 71.1264498,79.0970516 C70.7449445,80.18278 68.750966,81.0537559 68.750966,81.0537559 C69.3242993,81.3071851 70.6275251,81.1732053 70.6275251,81.1732053 C70.0567724,82.5587323 68.2597832,83.0824717 68.2597832,83.0824717 C68.7273101,83.2886768 70.1516111,83.1818348 70.1516111,83.1818348 C69.7851595,84.1782432 67.5247295,85.3201705 67.5247295,85.3201705 C68.2604284,85.7665563 69.482794,85.569326 69.482794,85.569326 C69.1434391,86.6655249 67.0896757,87.4988924 67.0896757,87.4988924 C67.4847295,87.942073 68.963009,87.7837332 68.963009,87.7837332 C68.6494606,88.464744 66.014622,90.1272055 66.014622,90.1272055 C66.6804284,90.6731681 68.3172026,90.3515737 68.3172026,90.3515737 C68.2204284,90.7037249 67.9698908,91.087074 67.626665,91.4776883 C59.8535469,95.3938747 53.8270954,96.8217112 53.7161277,96.8471396 C51.7215041,97.3623317 49.7797837,97.6223851 47.9356977,97.6223851 C38.1167732,97.6223851 33.3077411,90.2710148 32.4735476,88.8557857 C41.1625796,82.6717711 45.2580634,75.4716891 46.4529021,73.0741547 C49.5238697,78.0841895 52.8554825,78.6386995 54.173547,78.6386995 C54.5797836,78.6386995 54.8187083,78.5884838 54.8447298,78.5827143 C61.934192,77.1422705 62.7720414,66.5944015 62.8012888,62.0764809 C63.3363425,61.8303169 63.8189231,61.3856405 63.8189231,61.3856405 C63.96645,62.1262693 63.8718264,62.916259 63.8718264,62.916259 C64.2860199,62.9664747 65.2380629,62.4662405 65.2380629,62.4662405 C65.3541919,63.4107237 65.1847296,64.1094704 65.1847296,64.1094704 C65.7079553,64.1094704 66.4817188,63.714155 66.4817188,63.714155 C66.6202134,64.6131235 66.1933317,65.3518291 66.1933317,65.3518291 C66.8995682,65.4383711 67.6273101,65.1052377 67.6273101,65.1052377 C67.774837,65.7909497 67.1447295,66.7388518 67.1447295,66.7388518 C67.3920413,66.8856527 68.635052,66.6307277 68.635052,66.6307277 C68.614837,67.530551 67.954837,68.3201134 67.954837,68.3201134 C68.5834391,68.5196942 69.7092456,68.0805736 69.7092456,68.0805736 C69.5952671,68.7282498 68.6417187,69.8058581 68.6417187,69.8058581 C69.1924714,70.1554451 70.3483853,69.8428255 70.3483853,69.8428255 C70.2075251,70.6439267 69.0279553,71.4437459 69.0279553,71.4437459 C69.4141918,71.6892688 71.0075251,71.5446047 71.0075251,71.5446047 C70.7842993,72.1931357 69.3042993,73.0339821 69.3042993,73.0339821 C70.0045144,73.4245965 71.1916111,73.3053608 71.1916111,73.3053608 Z" id="path198" fill="#FFFFFF"></path>
                        <path d="M51.4539772,86.0858002 C51.9247299,85.1797801 51.6681708,84.1639264 50.9066654,83.4438114 C52.1956976,84.1305917 52.8204288,85.3218799 52.2864503,86.3492725 C51.7380632,87.4042304 50.1948375,87.9271151 48.6062353,87.7106532 C49.8591385,87.5920586 50.9662353,87.0238729 51.4539772,86.0858002" id="path200" fill="#7CCCED"></path>
                        <path d="M47.1679558,85.9244688 C47.912687,86.1567433 48.7645149,85.828952 49.0881708,85.2005074 C49.4094611,84.5774049 49.0913966,83.8694699 48.3468805,83.6371954 C47.6189235,83.4100493 46.7529021,83.7485247 46.4316117,84.3718409 C46.1077408,85.0000718 46.4399988,85.6973227 47.1679558,85.9244688" id="path202" fill="#FFFFFF"></path>
                        <path d="M46.3477408,82.641428 C47.6025795,81.8548572 49.3993536,81.6099754 51.0576331,82.127518 C53.4638696,82.8779761 54.6649449,84.9387445 53.7488159,86.7157406 C52.8434395,88.4724367 50.2098912,89.3055905 47.828816,88.6066302 C47.9875257,88.9139078 48.1438698,89.2363569 48.2956977,89.5850892 C48.2956977,89.5850892 49.5707514,92.0364719 52.8501062,92.8939858 C54.529461,92.0345488 58.6094609,89.5380787 59.9617189,85.0537065 C54.2036546,84.2026032 51.0202138,81.2336779 49.6324719,79.532967 C48.0855902,80.149659 47.0458053,81.3385967 46.3477408,82.641428" id="path204" fill="#FEEAB4"></path>
                        <path d="M25.1221499,149.807861 C21.1459995,149.807861 18.1859135,149.655505 16.9179351,149.470668 C13.4357416,148.963169 21.6292468,125.852177 16.3044297,123.954236 C16.1303867,123.892054 15.9592469,123.862352 15.7899781,123.862352 C10.9719352,123.862352 8.15625786,148.194334 8.15625786,148.194334 C8.15625786,148.194334 6.5306665,144.818554 6.04451598,131.447919 C5.07275256,104.719899 32.4264508,96.6633713 32.4264508,96.6633713 C33.4247303,96.3550253 33.9180637,96.2689107 34.1060207,96.2449781 C34.899569,96.9020563 35.7286013,97.4471642 36.559569,97.9006016 C33.551182,98.9604742 25.0827951,102.082184 20.0023436,106.281929 C12.029075,112.682619 8.17516109,121.121641 8.54763419,131.364583 C8.55425785,131.551129 8.56133312,131.736179 8.56855893,131.918879 C10.4946234,124.545927 12.6703653,121.464817 15.7899781,121.464817 C16.2595695,121.464817 16.7268168,121.546444 17.1784297,121.707349 C22.0554833,123.445881 20.7898274,131.321419 19.4496769,139.659368 C19.0604941,142.081903 18.505806,145.532472 18.5180641,147.222072 C19.9534619,147.327204 22.2415048,147.410327 25.1221499,147.410327" id="path206" fill="#FFFFFF"></path>
                        <path d="M15.5909028,66.5048679 C15.5909028,66.5048679 -5.54503212,90.1641728 20.9091823,88.7824921 C20.9091823,88.7824921 4.59240849,88.6600512 15.5909028,66.5048679" id="path208" fill="#FFFFFF"></path>
                        <path d="M56.0748373,78.4071252 C56.2440102,78.3351252 56.4069175,78.2564586 56.5748373,78.1831252 C56.4069175,78.2564586 56.2440102,78.3351252 56.0748373,78.4071252" id="path210" fill="#D21C2D"></path>
                        <path d="M59.8805146,75.022098 C59.8605146,75.054098 59.837848,75.0847646 59.817848,75.1167646 C59.837848,75.0847646 59.8605146,75.054098 59.8805146,75.022098" id="path212" fill="#D21C2D"></path>
                        <path d="M55.4230094,78.6207667 C55.5899753,78.5487668 55.7578388,78.4794334 55.9230094,78.4034334 C55.7578388,78.4794334 55.5899753,78.5487668 55.4230094,78.6207667" id="path214" fill="#D21C2D"></path>
                        <path d="M57.1759125,78.0028195 C57.3447024,77.8734862 57.5092459,77.7388195 57.6759125,77.6068195 C57.5092459,77.7388195 57.3447024,77.8734862 57.1759125,78.0028195" id="path216" fill="#D21C2D"></path>
                        <path d="M56.6206437,78.1850125 C56.7860184,78.1010125 56.9565611,78.0210125 57.1206437,77.9356792 C56.9565611,78.0210125 56.7873104,78.1010125 56.6206437,78.1850125" id="path218" fill="#D21C2D"></path>
                        <path d="M57.7262351,77.3225247 C57.7382351,77.3131914 57.7489018,77.3065247 57.7595684,77.2971914 C57.7489018,77.3065247 57.7382351,77.3131914 57.7262351,77.3225247" id="path220" fill="#D21C2D"></path>
                        <path d="M59.4276544,76.0063264 C59.2983211,76.1609931 59.1623211,76.3103264 59.0303211,76.4636598 C59.1623211,76.3103264 59.2983211,76.1609931 59.4276544,76.0063264" id="path222" fill="#D21C2D"></path>
                        <path d="M113.922363,31.0264878 C113.922363,31.0264878 104.275696,31.4153927 99.3969868,34.7854029 C99.1408577,34.9623332 98.9920405,35.06191 99.0318255,35.0704573 C99.1197825,35.0901162 99.8556964,35.3538023 100.075266,35.407437 C110.771825,38.0257069 116.093976,42.7694914 116.093976,42.7694914 C103.962578,41.8363335 100.885159,52.2551374 100.854836,52.3459531 C96.4909653,64.3742248 90.9670945,72.7190119 88.6561268,75.450107 C82.0864496,83.032897 74.2268799,88.1521244 67.626665,91.4774746 C67.9698908,91.087074 68.2204284,90.7037249 68.3172026,90.3515737 C68.3172026,90.3515737 66.6804284,90.6731681 66.014622,90.1272055 C66.014622,90.1272055 68.6494606,88.464744 68.963009,87.7837332 C68.963009,87.7837332 67.4847295,87.942073 67.0896757,87.4988924 C67.0896757,87.4988924 69.1434391,86.6655249 69.482794,85.569326 C69.482794,85.569326 68.2604284,85.7665563 67.5247295,85.3201705 C67.5247295,85.3201705 69.7851595,84.1782432 70.1516111,83.1818348 C70.1516111,83.1818348 68.7273101,83.2886768 68.2597832,83.0824717 C68.2597832,83.0824717 70.0567724,82.5587323 70.6275251,81.1732053 C70.6275251,81.1732053 69.3242993,81.3071851 68.750966,81.0537559 C68.750966,81.0537559 70.7449445,80.18278 71.1264498,79.0970516 C71.1264498,79.0970516 69.5051596,79.1739779 69.1696757,78.974397 C69.1696757,78.974397 71.0883853,77.9732876 71.2924713,77.0732506 C71.2924713,77.0732506 69.5154821,77.3407829 69.1765574,77.0446169 C69.1765574,77.0446169 71.3335466,75.9693591 71.3795681,75.1242389 C71.3795681,75.1242389 69.9116112,75.3105714 69.4002133,74.9620528 C69.4002133,74.9620528 71.0374176,73.9509001 71.1916111,73.3053608 C71.1916111,73.3053608 70.0045144,73.4245965 69.3042993,73.0339821 C69.3042993,73.0339821 70.7842993,72.1931357 71.0075251,71.5446047 C71.0075251,71.5446047 69.4141918,71.6892688 69.0279553,71.4437459 C69.0279553,71.4437459 70.2075251,70.6439267 70.3483853,69.8428255 C70.3483853,69.8428255 69.1924714,70.1554451 68.6417187,69.8058581 C68.6417187,69.8058581 69.5952671,68.7282498 69.7092456,68.0805736 C69.7092456,68.0805736 68.5834391,68.5196942 67.954837,68.3201134 C67.954837,68.3201134 68.614837,67.530551 68.635052,66.6307277 C68.635052,66.6307277 67.3920413,66.8856527 67.1447295,66.7388518 C67.1447295,66.7388518 67.774837,65.7909497 67.6273101,65.1052377 C67.6273101,65.1052377 66.8995682,65.4383711 66.1933317,65.3518291 C66.1933317,65.3518291 66.6202134,64.6131235 66.4817188,63.714155 C66.4817188,63.714155 65.7079553,64.1094704 65.1847296,64.1094704 C65.1847296,64.1094704 65.3541919,63.4107237 65.2380629,62.4662405 C65.2380629,62.4662405 64.2860199,62.9664747 63.8718264,62.916259 C63.8718264,62.916259 63.96645,62.1262693 63.8189231,61.3856405 C63.8189231,61.3856405 63.3363425,61.8303169 62.8012888,62.0764809 C62.8012888,62.0769082 62.8012888,62.0773356 62.8012888,62.0775493 C62.8086006,60.9448105 62.7651597,60.1900786 62.7565576,60.0533209 C62.5698909,54.3612068 63.4098909,48.4665203 63.4180629,48.4077572 C67.7322564,26.061113 62.142149,23.4308768 62.3154823,23.2565106 C81.1086001,4.35188812 99.762148,6.65901278 113.537201,18.5836691 C113.819352,18.8278886 105.919137,16.2506674 97.5380621,22.2387338 C97.3670943,22.360961 105.997417,25.1162024 113.922363,31.0264878" id="path224" fill="#D21C2D"></path>
                        <path d="M59.8936329,75.483228 C59.7402996,75.6502471 59.5869663,75.8172661 59.4309663,75.983228 C59.5869663,75.8172661 59.7402996,75.6502471 59.8936329,75.483228" id="path226" fill="#D21C2D"></path>
                        <path d="M58.6359125,76.8674639 C58.7732458,76.7261305 58.9065792,76.5807972 59.0425792,76.4394639 C58.9065792,76.5807972 58.7732458,76.7261305 58.6359125,76.8674639" id="path228" fill="#D21C2D"></path>
                        <path d="M54.381289,96.9715661 C54.5375714,96.8635661 54.7037189,96.7462328 54.881289,96.6195661 C54.7037189,96.7462328 54.5375714,96.8635661 54.381289,96.9715661" id="path230" fill="#D21C2D"></path>
                        <path d="M53.7161277,96.9546259 C53.756634,96.9452926 53.9287859,96.9012926 54.2161277,96.8266259 C53.9287859,96.9012926 53.756634,96.9452926 53.7161277,96.9546259" id="path232" fill="#D21C2D"></path>
                        <path d="M54.5984933,96.6165745 C56.553762,96.075954 61.5569877,94.5355062 67.6251596,91.4783293 C61.554192,94.5367883 56.5516115,96.0770225 54.5984933,96.6165745" id="path234" fill="#D21C2D"></path>
                        <path d="M58.1572028,77.3676441 C58.3246557,77.2049775 58.4921085,77.0423108 58.6572028,76.8743108 C58.4921085,77.0423108 58.3246557,77.2049775 58.1572028,77.3676441" id="path236" fill="#D21C2D"></path>
                        <path d="M53.9120417,96.9412561 C54.0615366,96.8905895 54.2271932,96.8345895 54.4120417,96.7719228 C54.2261831,96.8359228 54.0615366,96.8905895 53.9120417,96.9412561" id="path238" fill="#D21C2D"></path>
                        <path d="M54.1954825,96.968731 C54.3501409,96.880731 54.5166005,96.784731 54.6954825,96.6793976 C54.5166005,96.7833976 54.3501409,96.880731 54.1954825,96.968731" id="path240" fill="#D21C2D"></path>
                        <path d="M53.8189234,96.922001 C53.9562567,96.8873343 54.1082567,96.850001 54.2909234,96.8033343 C54.10959,96.850001 53.9562567,96.8873343 53.8189234,96.922001" id="path242" fill="#D21C2D"></path>
                        <path d="M54.0417191,96.9506818 C54.1953815,96.8840151 54.3609866,96.8106818 54.5417191,96.7306818 C54.3609866,96.8106818 54.1945853,96.8840151 54.0417191,96.9506818" id="path244" fill="#D21C2D"></path>
                        <path d="M60.5325576,74.4314754 C60.3965576,74.5997264 60.2605576,74.7651256 60.1232243,74.9314754 C60.2605576,74.7651256 60.3965576,74.5997264 60.5325576,74.4314754" id="path246" fill="#D21C2D"></path>
                        <path d="M62.6205576,66.2905428 C62.5925576,66.4575136 62.5645576,66.623572 62.5365576,66.7905428 C62.5645576,66.623572 62.5925576,66.4575136 62.6205576,66.2905428" id="path248" fill="#D21C2D"></path>
                        <path d="M62.6112673,65.7473581 C62.6112673,65.7593581 62.6099339,65.7700248 62.6086006,65.7806915 C62.6099339,65.7700248 62.6112673,65.7593581 62.6112673,65.7473581" id="path250" fill="#D21C2D"></path>
                        <path d="M62.7131597,65.1063062 C62.6958264,65.2729728 62.6771597,65.4386043 62.6584931,65.6063062 C62.6771597,65.4396395 62.6958264,65.2719376 62.7131597,65.1063062" id="path252" fill="#D21C2D"></path>
                        <path d="M62.5417619,66.9486895 C62.5137619,67.1153562 62.4830952,67.2820228 62.4537619,67.4486895 C62.4830952,67.2820228 62.5124285,67.1153562 62.5417619,66.9486895" id="path254" fill="#D21C2D"></path>
                        <path d="M62.7618049,64.0032694 C62.7551382,64.1299361 62.7458049,64.2592694 62.7391382,64.3859361 C62.7458049,64.2592694 62.7551382,64.1299361 62.7618049,64.0032694" id="path256" fill="#D21C2D"></path>
                        <path d="M62.7315683,64.5336331 C62.722235,64.6642997 62.7155683,64.7922997 62.706235,64.9242997 C62.7155683,64.7936331 62.722235,64.6642997 62.7315683,64.5336331" id="path258" fill="#D21C2D"></path>
                        <path d="M62.7831382,63.4513237 C62.7778049,63.6019903 62.7711382,63.7499903 62.7658049,63.900657 C62.7711382,63.7499903 62.7778049,63.6019903 62.7831382,63.4513237" id="path260" fill="#D21C2D"></path>
                        <path d="M62.8006006,62.4953015 C62.7992672,62.5939682 62.7979339,62.6926348 62.7952672,62.7926348 C62.7979339,62.6926348 62.7992672,62.5939682 62.8006006,62.4953015" id="path262" fill="#D21C2D"></path>
                        <path d="M60.7483856,73.8515371 C60.6497189,74.0185825 60.5550522,74.185628 60.4550523,74.3515371 C60.5550522,74.185628 60.6497189,74.0185825 60.7483856,73.8515371" id="path264" fill="#D21C2D"></path>
                        <path d="M62.4555683,67.5489278 C62.426235,67.7167131 62.3969017,67.8822612 62.366235,68.0489278 C62.3969017,67.8822612 62.426235,67.7167131 62.4555683,67.5489278" id="path266" fill="#D21C2D"></path>
                        <path d="M61.3124716,72.1046705 C61.2911383,72.1660038 61.2684716,72.2246705 61.2458049,72.2846705 C61.2684716,72.2246705 61.2911383,72.1660038 61.3124716,72.1046705" id="path268" fill="#D21C2D"></path>
                        <path d="M61.31402,72.6555478 C61.2073533,72.8224941 61.1006866,72.9894404 60.9926866,73.1555478 C61.1006866,72.9894404 61.2073533,72.8224941 61.31402,72.6555478" id="path270" fill="#D21C2D"></path>
                        <path d="M61.0081275,73.3000187 C60.9147942,73.468497 60.8174608,73.6326274 60.7227942,73.8000187 C60.8174608,73.6326274 60.9147942,73.468497 61.0081275,73.3000187" id="path272" fill="#D21C2D"></path>
                        <path d="M61.7151382,71.4223775 C61.6271382,71.5895801 61.5364716,71.7559788 61.4458049,71.9223775 C61.5364716,71.7559788 61.6271382,71.5895801 61.7151382,71.4223775" id="path274" fill="#D21C2D"></path>
                        <path d="M61.8449877,70.7695729 C61.782321,70.9362396 61.7209877,71.1039043 61.6569877,71.2695729 C61.7209877,71.1039043 61.782321,70.9362396 61.8449877,70.7695729" id="path276" fill="#D21C2D"></path>
                        <path d="M62.1761705,68.8983422 C62.1628372,68.9623422 62.1481705,69.0290089 62.1348372,69.0943422 C62.1481705,69.0290089 62.1615038,68.9623422 62.1761705,68.8983422" id="path278" fill="#D21C2D"></path>
                        <path d="M62.3976759,68.1972451 C62.3496759,68.3644476 62.2990092,68.5308463 62.2496759,68.6972451 C62.2990092,68.5308463 62.3496759,68.3636438 62.3976759,68.1972451" id="path280" fill="#D21C2D"></path>
                        <path d="M62.1773318,69.4742206 C62.1146651,69.6406244 62.0506651,69.8070281 61.9866651,69.9742206 C62.0506651,69.8070281 62.1146651,69.6406244 62.1773318,69.4742206" id="path282" fill="#D21C2D"></path>
                        <path d="M62.0025791,70.1644199 C61.9439124,70.3320555 61.8825791,70.4977532 61.8225791,70.6644199 C61.8825791,70.4977532 61.9452458,70.3310865 62.0025791,70.1644199" id="path284" fill="#D21C2D"></path>
                    </g>
                </g>
            </g>
        </g>
    </g>
</svg>