<?xml version="1.0" encoding="UTF-8"?>
<svg width="200px" height="200px" viewBox="0 0 200 200" version="1.1" xmlns="http://www.w3.org/2000/svg" xmlns:xlink="http://www.w3.org/1999/xlink">
    <!-- Generator: Sketch 51.3 (57544) - http://www.bohemiancoding.com/sketch -->
    <title>bates</title>
    <desc>Created with Sketch.</desc>
    <defs></defs>
    <g id="bates" stroke="none" stroke-width="1" fill="none" fill-rule="evenodd">
        <g id="bates_BGL" fill="#A21A34">
            <g id="bates" transform="translate(38.000000, 0.000000)">
                <g id="g10" transform="translate(61.904760, 100.070178) scale(-1, 1) rotate(-180.000000) translate(-61.904760, -100.070178) translate(0.000000, 0.320807)" fill-rule="nonzero">
                    <g id="g12">
                        <polyline id="path14" points="105.642103 30.0440594 107.591977 30.0440594 107.591977 24.5357387 108.661651 24.5357387 108.661651 30.0440594 110.620047 30.0440594 110.620047 31.1027561 105.642103 31.1027561 105.642103 30.0440594"></polyline>
                        <polyline id="path16" points="116.692228 31.1027561 114.544859 26.2621547 112.40902 31.1027561 111.441601 31.1027561 111.441601 24.5357387 112.535336 24.5357387 112.535336 28.1639592 114.122303 24.5357387 114.975937 24.5357387 116.562403 28.1639592 116.562403 24.5357387 117.656137 24.5357387 117.656137 31.1027561 116.692228 31.1027561"></polyline>
                        <path d="M80.1879679,93.701752 C71.0776925,89.5909752 63.0957378,82.9293212 63.0957378,82.9293212 C63.0957378,82.9293212 68.2621537,93.2280678 78.5794467,97.4922281 C90.1278173,102.276188 99.0957369,99.9789449 99.0957369,99.9789449 C92.0380929,98.5102732 86.75288,96.6676668 80.1879679,93.701752 Z M71.7373416,47.1984449 C70.4230559,47.301252 50.106114,51.6300739 48.3119787,71.5939832 C45.3381442,68.8245597 43.5009513,65.1443593 43.4821543,65.1097728 C40.3195479,70.0315772 38.5469665,75.2711761 37.7549364,81.1353363 C35.2793976,78.4115269 34.0619039,75.2305746 34.0619039,75.2305746 C28.73629,80.2115268 25.7784956,87.2611507 25.315037,95.8756868 C24.9299242,102.965912 27.0633577,109.6411 31.53233,113.956388 C26.2956384,99.8085188 31.8233075,87.2125291 33.7143851,84.4541332 C34.6814528,85.7629051 35.8989465,86.8892209 37.3349364,87.7999978 C37.4398988,98.747366 41.7070165,108.47719 48.6623045,112.547366 C48.6623045,112.547366 42.4261644,103.736338 42.7251618,88.6456118 C42.8493222,82.1213012 44.2418535,77.9378427 44.8102746,76.4806998 C45.8581943,77.7894717 47.423257,78.8992461 48.6597482,79.6641584 C51.3478684,97.1634061 66.2907252,99.8676667 66.4390961,99.8952356 C61.9669157,96.7568898 51.6416027,87.382454 53.1634072,72.1999982 C54.1523796,62.2761889 61.9157879,57.2731815 64.2135322,56.0045099 C63.9363393,57.8631564 63.3864646,62.9629057 64.6877177,68.1889707 C65.7784445,72.5799481 68.9167903,78.4200482 75.0456122,80.8606496 C74.9969906,80.8070155 69.9273165,75.3378427 68.8847101,65.9288204 C68.1764394,59.5042592 69.27268,52.8907255 71.7373416,47.1984449 Z M98.4411003,105.64912 C98.4411003,105.64912 85.0827046,107.978945 73.8496222,106.807015 C59.7769409,105.341351 49.9070163,100.428068 49.8208509,100.374434 C53.2822042,104.183456 61.9107754,110.034584 73.8360884,110.772428 C90.5077672,111.812529 98.4411003,105.64912 98.4411003,105.64912 Z M73.6280683,124.338343 C93.5949851,120.928318 98.8992456,111.610022 98.8992456,111.610022 C98.8992456,111.610022 90.3784439,117.34536 73.175938,119.985461 C57.62456,122.371927 42.3776431,119.570423 42.3182947,119.559897 C42.3883699,119.608017 53.7699235,127.14536 73.6280683,124.338343 Z M71.0130308,136.719295 C72.5238077,139.011525 74.9969906,140.242603 78.154384,140.267164 C81.0556371,140.248117 82.8010004,139.329821 83.8701733,138.674683 C87.1889703,136.622553 89.400499,133.416538 89.9744338,132.643606 C89.9744338,132.643606 88.7298223,132.851124 87.6686695,132.796989 C85.4947347,132.691726 83.8571408,132.064157 82.9789453,131.697741 C81.8200481,131.213029 80.5273163,130.924809 79.395988,130.978443 C77.50476,131.110774 75.9934818,132.14536 74.783958,134.138844 C73.9273164,135.539345 72.4461135,135.598493 71.6350859,135.663155 C71.3092714,135.690222 71.1152864,135.795485 70.9964895,135.980949 C70.8536323,136.223555 70.8621536,136.503756 71.0130308,136.719295 Z M122.903756,107.846614 C122.693731,108.342854 121.901751,110.002002 121.901751,110.002002 L122.919796,112.975937 C123.105761,113.439596 123.491225,114.406513 123.393982,114.848117 C123.162403,115.960398 122.21704,116.976438 121.616037,117.145862 C120.918293,117.339847 120.120799,117.014032 119.504258,115.643105 L117.884709,112.060148 C117.675185,111.446113 117.111777,110.998995 116.427566,110.998995 C115.737842,110.998995 115.169421,111.456639 114.964909,112.086714 C114.964909,112.086714 113.968418,114.543857 112.952879,116.30526 C112.626564,116.881701 112.036589,117.073681 111.420047,117.124308 C110.711777,117.183456 109.981451,116.860147 109.391476,116.25714 L106.719296,113.452629 L105.275185,116.607015 C104.181952,119.392478 105.625561,121.526313 107.126313,122.269671 C107.6812,122.549872 108.801501,122.886212 110.434082,122.711275 C111.301752,122.62506 112.063656,122.512278 112.85313,122.326313 C112.85313,122.326313 115.830072,121.633581 117.456639,121.617541 C118.66917,121.604007 120.226062,121.811526 120.791476,122.134834 C118.895235,123.678192 107.78897,133.058142 107.78897,133.058142 C107.066664,133.678192 106.091727,134.515786 106.161902,135.501751 C106.25313,136.697741 107.505762,137.160899 108.330323,136.837591 C108.586463,136.740849 111.988468,134.952378 113.831075,134.224558 C113.981451,135.326312 113.610022,136.966914 112.7213,137.947365 C109.650123,141.772929 107.470674,145.231575 107.44912,145.261651 C107.44912,145.261651 109.957391,154.003004 107.322804,165.378943 C105.092228,175.063154 106.589972,180.827564 107.381952,182.936838 C99.0526291,180.135334 88.1994965,173.446612 83.089221,161.480698 C77.4345845,163.862151 70.4551361,163.862151 70.3824544,163.862151 C66.0320785,163.862151 61.8997478,163.318292 57.945362,162.159896 C49.0932319,176.900246 30.4358388,193.747364 3.16122298,199.067664 C6.29934821,194.601499 10.9891727,184.809519 11.0161902,172.778442 C11.0432579,158.878693 14.05213,149.418041 20.8756386,142.898743 C17.8074181,140.517791 10.4480198,132.314784 8.31157874,120.550874 C13.4003004,123.934333 19.0707263,123.977441 19.0707263,123.977441 C11.207719,117.024558 0.472861642,103.55288 0.00920270654,79.6912261 C-0.472861642,54.4340839 18.2626562,33.5543851 35.9474678,29.7478188 C23.9923804,39.720801 17.35218,53.8681691 18.8312777,67.3644093 C23.8198992,50.2345852 36.9631068,38.265563 60.6230561,29.473082 C83.3719277,21.0095734 94.454133,8.52581432 97.2501229,0.000587408507 C100.828068,7.5023557 104.930824,26.3729818 96.5744337,42.7754877 C92.16491,51.4115275 85.1528801,61.0340837 85.0882184,61.1202992 C81.9012511,65.508269 81.1468651,69.3418529 81.5002486,71.4751862 C82.1408501,75.2441084 84.5899728,76.5904743 86.4967397,76.5904743 C87.6255617,76.5614016 88.5629051,76.1598978 89.1689201,75.494735 C90.4972408,73.8731811 90.1067647,71.9438579 89.7834564,70.8771912 L100.383456,70.8771912 C105.229571,70.8771912 107.344358,72.4130308 109.504759,77.7789454 C110.531326,75.4566397 112.556889,69.8320785 112.05313,63.0867152 C113.760899,64.7894721 115.086213,66.502254 115.993982,68.1889707 C118.823055,73.3769405 119.129822,80.2165393 116.303756,87.9533813 C117.658644,89.244108 118.536839,90.5177922 118.068669,92.3388448 C118.03308,92.4817019 117.989972,92.6812007 117.831075,92.7994964 C117.831075,92.7994964 115.799997,94.1117771 114.72531,94.8466142 C113.717792,94.582955 106.156388,92.7513761 99.7102732,91.9323285 C99.7749348,91.9699225 109.938343,97.2736818 111.506263,98.0872156 C112.818042,98.7689198 113.170924,99.5233058 114.504258,104.932328 C114.623055,105.599997 115.202002,106.117291 115.907767,106.117291 C116.699746,106.117291 117.343355,105.476188 117.343355,104.679195 C117.391977,102.114283 117.257641,100.077692 117.19298,98.9303233 C117.181952,98.7744336 117.214533,98.3488697 117.364909,98.1734311 C117.61303,97.8857118 118.345862,97.3413509 119.415035,96.264158 C122.612528,101.570424 123.442102,104.242604 123.46115,104.538845 C123.525811,105.298243 123.534333,106.440599 122.903756,107.846614 Z" id="path18"></path>
                    </g>
                </g>
            </g>
        </g>
    </g>
</svg>