<?xml version="1.0" encoding="UTF-8"?>
<svg width="200px" height="200px" viewBox="0 0 200 200" version="1.1" xmlns="http://www.w3.org/2000/svg" xmlns:xlink="http://www.w3.org/1999/xlink">
    <!-- Generator: Sketch 51.3 (57544) - http://www.bohemiancoding.com/sketch -->
    <title>bay-path</title>
    <desc>Created with Sketch.</desc>
    <defs></defs>
    <g id="bay-path" stroke="none" stroke-width="1" fill="none" fill-rule="evenodd">
        <g id="bay-path_BGL" transform="translate(10.000000, 0.000000)">
            <g id="bay-path" transform="translate(0.331384, 0.000000)">
                <g fill-rule="nonzero" id="Shape">
                    <path d="M117.836257,0.136452242 C118.654971,0.272904483 119.415205,0.662768031 119.766082,1.4619883 C120,2.39766082 119.610136,3.52826511 119.239766,4.38596491 C118.34308,6.47173489 117.017544,8.40155945 115.672515,10.214425 C112.02729,15.2241715 109.025341,20.6432749 106.354776,26.2183236 C105.107212,28.7134503 104.424951,31.5009747 104.522417,34.3079922 C104.619883,37.7192982 105.88694,40.994152 107.91423,43.7426901 C109.707602,46.1403509 112.124756,48.245614 114.912281,49.3762183 C118.401559,50.6432749 121.773879,52.1832359 125.107212,53.8206628 C128.031189,55.2826511 130.994152,56.6471735 133.937622,58.0896686 C133.450292,57.1345029 132.690058,56.3157895 131.773879,55.7504873 C130.409357,54.8732943 128.986355,54.0935673 127.54386,53.3528265 C124.366472,51.7348928 121.111111,50.2534113 117.797271,48.9278752 C117.563353,47.0955166 118.440546,45.5165692 119.649123,44.2300195 C121.559454,42.2222222 124.210526,40.7602339 126.666667,39.5321637 C132.475634,36.7446394 138.810916,34.7173489 144.912281,32.6510721 C148.031189,31.6179337 151.091618,30.4483431 154.230019,29.4736842 C155.672515,29.0253411 157.153996,28.5964912 158.674464,28.4015595 C159.57115,28.3235867 160.584795,28.3040936 161.28655,28.9668616 C161.851852,29.5516569 161.734893,30.331384 161.481481,31.0331384 C161.150097,31.8323587 160.545809,32.748538 159.922027,33.3723197 C158.460039,34.6003899 156.803119,35.5555556 155.02924,36.2962963 C151.559454,37.9532164 148.440546,40.3703704 145.672515,43.0214425 C147.777778,42.417154 150.038986,42.202729 152.222222,42.1637427 C150.760234,44.6588694 148.499025,46.7641326 146.354776,48.6744639 C144.132554,50.4873294 142.183236,52.4756335 140.8577,55.0487329 C140.409357,55.9649123 139.94152,56.8421053 139.902534,57.8752437 C139.844055,59.1423002 140.175439,60.4483431 140.721248,61.5789474 C141.345029,61.871345 141.929825,62.1832359 142.495127,62.5730994 C144.054581,63.6062378 145.633528,64.6393762 147.192982,65.6725146 C150.8577,67.9922027 154.152047,70.9356725 156.822612,74.3664717 C159.551657,77.8167641 161.520468,81.539961 163.567251,85.3996101 C165.341131,88.7134503 166.978558,91.9688109 169.610136,94.7368421 C171.481481,96.7251462 173.74269,98.0506823 175.692008,99.9415205 C176.842105,101.091618 177.875244,102.202729 178.499025,103.74269 C179.220273,105.536062 179.044834,107.699805 177.933723,109.298246 C178.401559,112.45614 178.011696,115.672515 176.374269,118.460039 C174.502924,121.676413 171.189084,124.074074 167.719298,125.282651 C167.153996,130.79922 166.237817,136.276803 164.658869,141.598441 C164.132554,143.333333 163.508772,145.204678 162.51462,146.725146 C161.832359,147.777778 160.916179,148.654971 159.649123,148.908382 C158.167641,149.20078 157.017544,148.635478 155.653021,148.245614 C150.838207,146.822612 145.984405,145.594542 141.130604,144.366472 C139.766082,144.054581 138.479532,143.528265 137.134503,143.157895 C130.077973,141.150097 122.553606,139.883041 115.204678,140.253411 C111.695906,140.487329 108.245614,141.072125 104.97076,142.378168 C99.5126706,144.288499 94.5224172,147.524366 90.6237817,151.793372 C86.6471735,156.140351 83.957115,161.403509 82.4561404,167.05653 C81.0916179,172.105263 80.662768,177.446394 80.877193,182.651072 C81.0526316,187.933723 81.8908382,193.099415 83.0214425,198.265107 C80.994152,197.017544 79.1812865,195.341131 77.6023392,193.567251 C73.6647173,189.103314 71.1111111,183.567251 69.8440546,177.777778 C68.5380117,171.890838 68.5185185,165.945419 69.1812865,159.961014 C66.9590643,161.851852 64.9512671,163.957115 63.0214425,166.120858 C57.3879142,172.553606 52.7095517,179.94152 49.5126706,187.894737 C48.1481481,191.267057 47.1150097,194.736842 46.2768031,198.265107 C45.6725146,195.867446 44.9902534,193.469786 44.4834308,191.033138 C43.3528265,185.847953 42.5730994,180.526316 42.3781676,175.224172 C42.2417154,172.046784 42.4561404,168.869396 42.9044834,165.711501 C41.6569201,166.998051 40.5263158,168.401559 39.4346979,169.824561 C36.374269,173.918129 33.8011696,178.440546 31.9688109,183.235867 C29.9805068,188.421053 28.8499025,193.976608 28.9278752,199.551657 C28.1871345,198.421053 27.5438596,197.231969 26.9785575,196.003899 C24.2495127,190.038986 22.9434698,183.31384 22.5341131,176.803119 C22.417154,175.302144 22.4951267,173.80117 22.3781676,172.319688 C22.4951267,170.42885 22.4366472,168.538012 22.4951267,166.647173 C22.8849903,157.348928 23.9181287,148.031189 25.8089669,138.908382 C23.1189084,142.066277 20.6822612,145.497076 18.7524366,149.161793 C17.5633528,151.461988 16.588694,153.80117 16.2962963,156.393762 C16.0233918,154.54191 15.6530214,152.709552 15.3411306,150.877193 C14.619883,147.329435 14.3079922,143.762183 14.1325536,140.155945 C13.8986355,133.898635 14.2690058,127.446394 16.1403509,121.442495 C17.0175439,118.615984 18.2846004,115.847953 20.0194932,113.430799 C21.1890838,111.890838 22.4366472,110.448343 23.7231969,108.986355 C19.3567251,110.545809 15.3606238,112.962963 11.7738791,115.88694 C7.17348928,119.668616 3.15789474,124.288499 0.0389863548,129.356725 C0.136452242,126.62768 0.409356725,123.918129 0.799220273,121.22807 C2.57309942,108.576998 7.54385965,96.4912281 14.9317739,86.1013645 C22.2807018,75.711501 31.9298246,66.8810916 42.6120858,59.9805068 C45.5945419,58.0896686 48.791423,56.4522417 51.9688109,54.8927875 C55.0097466,53.4307992 58.0701754,52.0077973 61.1695906,50.6822612 C61.4814815,50.5263158 61.754386,50.4873294 61.7933723,50.0974659 C64.1520468,40.1754386 69.2007797,31.1500975 75.9649123,23.5672515 C80.9746589,17.9337232 86.8615984,13.0604288 93.2358674,9.06432749 C95.8089669,7.62183236 98.4795322,6.33528265 101.150097,5.06822612 C105.107212,3.25536062 109.259259,1.4619883 113.508772,0.44834308 C114.912281,0.155945419 116.432749,-0.0779727096 117.836257,0.136452242 Z" fill="#000000"></path>
                    <path d="M115.126706,6.41325536 C113.294347,9.37621832 110.916179,12.0662768 108.615984,14.6783626 C106.68616,16.9005848 105.360624,19.4152047 103.937622,21.9688109 C103.508772,22.4366472 103.177388,22.962963 102.807018,23.4892788 C101.384016,25.497076 99.9220273,27.4853801 98.4795322,29.4931774 C96.5692008,32.2612086 94.9512671,35.2436647 93.3333333,38.1871345 C93.1384016,38.5380117 92.962963,38.9083821 92.7875244,39.2787524 C92.6900585,39.4346979 92.5925926,39.5711501 92.4951267,39.7270955 C93.7037037,39.454191 94.9317739,39.1812865 96.1208577,38.8499025 C95.3021442,39.7660819 94.6003899,40.7992203 94.17154,41.9688109 C93.7231969,43.2358674 93.294347,44.5419103 93.0214425,45.8479532 C93.9766082,45.8479532 94.9317739,45.8674464 95.8869396,45.8674464 C95.3996101,46.4132554 94.9122807,46.9590643 94.4444444,47.5243665 C93.4892788,48.6744639 92.7875244,50.0779727 92.08577,51.4035088 C91.754386,52.0467836 91.3840156,52.6510721 91.1695906,53.3333333 C90.2923977,53.8791423 89.0253411,54.4054581 88.0311891,53.8596491 C87.0175439,53.3138402 86.705653,51.9298246 86.5107212,50.8966862 C86.0623782,47.797271 86.6861598,44.4834308 87.6413255,41.5009747 C88.2066277,39.668616 89.0253411,37.9532164 89.7270955,36.1598441 C91.539961,31.9103314 93.5087719,27.4853801 96.2378168,23.7231969 C92.8654971,26.1598441 90.3508772,29.3177388 88.0896686,32.7875244 C85.6725146,36.5497076 83.6647173,40.6237817 81.9103314,44.7368421 C80.3898635,48.3430799 79.0448343,52.0272904 77.91423,55.7699805 C74.7953216,57.3294347 71.8128655,59.2982456 68.9083821,61.2280702 C71.9883041,59.785575 75.2046784,58.8693957 78.4795322,57.9922027 C82.7875244,56.8810916 87.1539961,55.9454191 91.539961,55.1072125 C91.6959064,55.0877193 91.8128655,55.0292398 91.9103314,54.9512671 C93.6452242,53.3723197 95.4580897,51.754386 97.4853801,50.5653021 C98.0116959,50.2923977 98.8304094,49.8635478 99.3957115,50.214425 C99.9805068,50.5653021 100.409357,51.2280702 100.779727,51.7933723 C101.559454,53.079922 102.183236,54.4834308 102.709552,55.9064327 C99.8050682,57.7582846 96.920078,59.668616 94.0155945,61.5204678 C98.4015595,61.6764133 102.768031,61.6764133 107.153996,61.7933723 C114.775828,61.8128655 122.573099,62.5925926 129.961014,64.5224172 C136.25731,66.1988304 142.417154,68.8109162 147.660819,72.748538 C151.910331,75.9454191 155.477583,79.9805068 157.836257,84.7563353 C158.109162,85.380117 158.635478,86.0623782 158.635478,86.7446394 C158.499025,87.2709552 157.933723,87.6803119 157.465887,87.8947368 C156.666667,88.2261209 155.925926,87.9337232 155.224172,87.5438596 C154.074074,86.8810916 153.040936,85.9649123 152.066277,85.0877193 C150.097466,83.3333333 148.323587,81.4424951 146.081871,79.9805068 C146.959064,81.0331384 147.699805,82.1442495 147.97271,83.5087719 C148.089669,84.1325536 148.34308,85.0487329 147.953216,85.6140351 C147.660819,86.042885 147.076023,85.9064327 146.666667,85.7894737 C145.575049,85.3606238 144.522417,84.7173489 143.508772,84.1520468 C140.79922,82.5730994 138.089669,81.0331384 135.204678,79.7660819 C134.17154,79.3177388 133.196881,78.8499025 132.105263,78.5380117 C129.103314,77.6998051 125.88694,76.9590643 122.748538,77.0760234 C121.617934,77.0760234 120.526316,77.3294347 119.395712,77.4463938 C121.442495,77.7777778 123.684211,78.1481481 125.575049,79.0253411 C126.25731,79.3177388 126.822612,79.7270955 127.329435,80.2534113 C120.292398,80.3508772 112.982456,81.2280702 106.413255,83.8986355 C102.066277,85.6920078 98.1481481,88.2846004 95.6530214,92.3586745 C100.8577,88.8888889 106.725146,86.1208577 112.807018,84.6783626 C117.660819,83.5672515 122.631579,83.3138402 127.465887,84.6978558 C131.539961,90.2729045 138.34308,93.7621832 145.185185,94.3079922 C145.516569,94.288499 145.614035,94.4639376 145.769981,94.7173489 C146.452242,95.9259259 147.134503,97.1150097 147.816764,98.3235867 C147.797271,96.6471735 148.011696,94.9512671 148.576998,93.3528265 C150.05848,93.4502924 151.481481,93.8791423 152.280702,95.2046784 C153.333333,96.9785575 153.508772,99.3762183 153.547758,101.384016 C153.099415,101.559454 152.670565,101.754386 152.222222,101.929825 C150.155945,100.409357 147.290448,99.7076023 144.892788,98.8693957 C142.573099,98.2846004 139.844055,98.7524366 137.54386,99.3567251 C133.859649,100.350877 130.272904,101.968811 126.881092,103.684211 C123.294347,105.536062 119.805068,107.582846 116.491228,109.883041 C115.419103,110.643275 114.249513,111.442495 113.352827,112.397661 C113.996101,111.851852 114.697856,111.403509 115.438596,110.974659 C119.415205,108.71345 123.606238,106.783626 127.85575,105.107212 C131.423002,103.723197 135.185185,102.475634 138.966862,101.832359 C140.955166,101.539961 143.001949,101.384016 144.97076,101.851852 C146.491228,102.124756 147.97271,102.495127 149.298246,103.31384 C148.226121,103.898635 147.153996,104.502924 146.101365,105.146199 C145.107212,104.775828 144.11306,104.483431 143.118908,104.132554 C142.14425,103.80117 141.130604,103.723197 140.097466,103.781676 C138.050682,103.898635 136.159844,104.405458 134.230019,105.048733 C130.701754,106.276803 127.270955,107.97271 124.015595,109.785575 C121.851852,111.013645 119.707602,112.319688 117.660819,113.762183 C116.764133,114.405458 115.867446,115.009747 115.126706,115.808967 C116.296296,114.892788 117.621832,114.210526 118.947368,113.508772 C123.021442,111.403509 127.270955,109.551657 131.637427,108.109162 C134.463938,107.231969 137.54386,106.374269 140.506823,106.354776 C141.578947,106.335283 142.612086,106.588694 143.645224,106.783626 C142.651072,107.602339 141.637427,108.401559 140.721248,109.298246 C139.94152,109.122807 139.161793,109.005848 138.34308,109.083821 C136.179337,109.259259 134.132554,109.902534 132.105263,110.682261 C128.226121,112.241715 124.522417,114.307992 121.033138,116.588694 C120.019493,117.290448 118.927875,117.97271 118.089669,118.869396 C119.298246,117.91423 120.779727,117.212476 122.14425,116.491228 C125.769981,114.697856 129.551657,113.099415 133.430799,112.007797 C135.224172,111.559454 137.134503,111.091618 138.966862,111.169591 C137.758285,112.670565 136.744639,114.366472 136.023392,116.159844 C135.497076,117.524366 135.263158,118.966862 135.516569,120.409357 C135.867446,121.988304 137.037037,123.235867 138.518519,123.820663 C137.992203,126.393762 137.153996,128.927875 136.608187,131.520468 C135.614035,131.325536 134.658869,130.974659 133.645224,130.760234 C130.136452,130.019493 126.510721,129.805068 122.923977,129.824561 C120,129.805068 117.05653,129.961014 114.152047,130.253411 C108.888889,130.779727 103.703704,131.676413 98.6159844,133.177388 C96.1793372,128.791423 95.2826511,123.840156 95.3411306,118.849903 C95.4775828,114.093567 96.042885,109.317739 97.2709552,104.717349 C98.3430799,100.8577 99.785575,97.251462 102.495127,94.2300195 C101.832359,94.7758285 101.22807,95.380117 100.584795,95.9259259 C100.331384,96.0623782 100.077973,96.1793372 99.8440546,96.374269 C97.3294347,98.4210526 95.3021442,101.033138 93.625731,103.80117 C90.7797271,108.538012 88.8693957,113.859649 87.582846,119.220273 C86.2573099,123.781676 85.6920078,128.499025 85.6725146,133.235867 C83.5477583,136.491228 81.8128655,139.922027 80.331384,143.528265 C78.1481481,148.869396 76.6276803,154.483431 75.82846,160.194932 C75.6335283,161.734893 75.380117,163.31384 75.380117,164.873294 C75.380117,165.146199 75.380117,165.419103 75.3606238,165.692008 C74.5808967,161.910331 74.7173489,158.011696 75.1267057,154.191033 C75.6725146,149.376218 76.7251462,144.639376 78.0311891,139.961014 C78.9863548,136.608187 80.0389864,133.274854 81.2865497,130.019493 C81.4424951,129.668616 81.5594542,129.298246 81.6764133,128.927875 C80.5847953,129.454191 79.6296296,130.233918 78.6939571,131.013645 C75.4775828,133.781676 72.8849903,137.368421 71.1306043,141.22807 C69.9220273,132.962963 70.1169591,124.522417 71.9298246,116.354776 C73.8791423,107.48538 77.6998051,99.0253411 83.0019493,91.6569201 C84.6783626,89.3567251 86.4717349,87.1150097 88.5185185,85.1267057 C85.9064327,86.6471735 83.5672515,88.7134503 81.4814815,90.9161793 C77.2124756,95.5360624 74.17154,101.033138 71.9298246,106.881092 C69.9025341,112.163743 68.5185185,117.738791 67.6023392,123.333333 C66.4522417,130.37037 65.9454191,137.504873 66.0818713,144.639376 C66.0818713,145.02924 66.1013645,145.419103 66.1208577,145.808967 C65.0682261,146.159844 64.0740741,146.68616 63.0994152,147.192982 C58.5185185,149.62963 54.5808967,153.040936 51.3255361,157.05653 C50.214425,158.440546 49.1617934,159.902534 48.2651072,161.442495 C48.3235867,157.270955 48.8304094,153.099415 49.5516569,149.005848 C50.4288499,144.17154 51.6764133,139.376218 53.294347,134.736842 L52.8654971,134.736842 C49.5516569,134.697856 46.1013645,136.042885 43.2553606,137.680312 C38.791423,140.350877 34.834308,144.17154 31.3840156,148.128655 C33.3333333,136.783626 38.5380117,126.120858 45.3606238,116.920078 C47.1539961,114.54191 49.0448343,112.202729 51.1111111,110.05848 C51.2670565,109.902534 51.4230019,109.746589 51.5594542,109.57115 C50,109.493177 48.4990253,109.707602 46.9785575,110.019493 C43.0409357,110.79922 39.1812865,112.319688 35.6335283,114.210526 C31.5204678,116.393762 27.7582846,119.083821 24.2495127,122.105263 C23.8791423,122.417154 23.4697856,122.748538 23.1578947,123.118908 C26.4132554,114.775828 31.1306043,107.095517 36.8810916,100.253411 C40.3508772,96.1208577 44.17154,92.2222222 48.4015595,88.8304094 C47.9922027,88.8499025 47.582846,88.8888889 47.1929825,88.9473684 C46.1988304,89.005848 45.2241715,88.9278752 44.2300195,88.9863548 C39.3177388,89.2982456 34.3469786,90.4678363 29.5906433,91.7153996 C24.8732943,92.6900585 20.5847953,94.7368421 16.5497076,97.3099415 C19.0643275,92.8654971 22.1052632,88.7719298 25.5945419,85.0292398 C30.3703704,79.9025341 35.9064327,75.4191033 41.754386,71.5594542 C45.711501,68.9278752 49.9025341,66.6081871 54.0935673,64.3859649 C58.9278752,61.8323587 63.8011696,59.3762183 68.7329435,57.037037 C68.8888889,56.9785575 68.9668616,56.8810916 69.005848,56.7446394 C70.545809,51.4230019 72.7095517,46.2573099 75.2631579,41.3450292 C78.0311891,36.0623782 81.3060429,31.0331384 85.1851852,26.5107212 C86.9005848,24.502924 88.8304094,22.748538 90.877193,21.0916179 C93.6842105,18.8888889 96.6861598,16.920078 99.8440546,15.2631579 C101.091618,14.6588694 102.261209,13.9181287 103.469786,13.2163743 C107.076023,11.0916179 110.740741,9.02534113 114.327485,6.86159844 C114.60039,6.7251462 114.873294,6.56920078 115.126706,6.41325536 Z" fill="#FEFEFE"></path>
                    <path d="M114.346979,6.86159844 C110.760234,9.02534113 107.095517,11.0916179 103.489279,13.2163743 C102.280702,13.8986355 101.111111,14.6393762 99.8635478,15.2631579 C96.705653,16.9395712 93.7037037,18.8888889 90.8966862,21.0916179 C88.8304094,22.7290448 86.9005848,24.4834308 85.2046784,26.5107212 C81.3450292,31.0526316 78.0506823,36.0818713 75.2826511,41.3450292 C72.7290448,46.2573099 70.5653021,51.4230019 69.0253411,56.7446394 C69.7465887,52.08577 71.0526316,47.4853801 72.6900585,43.0409357 C75.3996101,35.82846 79.3567251,29.0448343 84.7758285,23.5282651 C86.9005848,21.3450292 89.2397661,19.3567251 91.754386,17.6413255 C95.0877193,15.3606238 98.6354776,13.5087719 102.261209,11.754386 C105.867446,10.0194932 109.57115,8.46003899 113.31384,7.03703704 C113.625731,6.9005848 113.976608,6.88109162 114.346979,6.86159844 Z" fill="#660B2B"></path>
                    <path d="M103.937622,21.9688109 C103.450292,23.6062378 102.573099,25.1267057 101.929825,26.6861598 C101.364522,27.7582846 101.052632,29.0253411 100.272904,29.9220273 C98.0116959,32.7875244 95.7699805,35.6725146 93.4892788,38.5380117 C93.2748538,38.8109162 93.0409357,39.0448343 92.7875244,39.2592593 C92.9434698,38.8888889 93.1189084,38.5185185 93.3333333,38.1676413 C94.9512671,35.2241715 96.5692008,32.2417154 98.4795322,29.4736842 C99.9220273,27.4853801 101.384016,25.4775828 102.807018,23.4697856 C103.177388,22.962963 103.528265,22.4366472 103.937622,21.9688109 Z" fill="#660B2B"></path>
                    <path d="M100.79922,37.6803119 C100.077973,38.3820663 99.2592593,38.9863548 98.5769981,39.7076023 C96.588694,41.6374269 94.834308,43.7426901 93.0604288,45.8479532 C93.3333333,44.5224172 93.7621832,43.2358674 94.2105263,41.9688109 C94.6393762,40.7992203 95.3216374,39.785575 96.1598441,38.8499025 C97.6608187,38.3625731 99.2592593,38.0896686 100.79922,37.6803119 Z" fill="#660B2B"></path>
                    <path d="M95.9259259,45.8479532 C97.4269006,45.8479532 98.9083821,45.7894737 100.409357,45.8674464 C98.6159844,47.5633528 96.6666667,49.1423002 94.7758285,50.7212476 C93.6062378,51.5789474 92.5146199,52.6705653 91.2280702,53.3138402 C91.4424951,52.6315789 91.8323587,52.0272904 92.1442495,51.3840156 C92.8460039,50.0584795 93.5282651,48.6549708 94.502924,47.5048733 C94.9512671,46.9395712 95.4385965,46.3937622 95.9259259,45.8479532 Z" fill="#660B2B"></path>
                    <path d="M136.608187,83.6842105 C138.070175,84.2495127 139.746589,84.7758285 141.013645,85.711501 C141.520468,86.1013645 141.364522,86.5692008 141.442495,87.1345029 C141.481481,88.0896686 142.007797,88.8499025 142.612086,89.5516569 C142.94347,89.8635478 143.196881,90.214425 143.684211,90.214425 C143.781676,89.1033138 143.820663,88.0116959 144.015595,86.9005848 C144.931774,87.2904483 145.925926,87.7192982 146.68616,88.3820663 C147.290448,88.9083821 147.407407,89.7660819 146.939571,90.4093567 C146.315789,91.3060429 145.087719,91.7348928 144.054581,91.8518519 C142.241715,92.0272904 140.448343,91.4035088 138.888889,90.4873294 C136.959064,89.3177388 134.931774,88.0896686 133.216374,86.6081871 C132.553606,86.0038986 131.812865,85.3216374 131.423002,84.502924 C131.247563,84.0545809 131.22807,83.8011696 131.500975,83.3918129 C133.157895,82.7875244 135.02924,83.079922 136.608187,83.6842105 Z" fill="#FEFEFE"></path>
                    <path d="M47.1929825,88.9473684 C42.4366472,89.8050682 37.7192982,91.9103314 33.3918129,93.9961014 C27.0955166,97.1345029 21.0136452,100.760234 15.1267057,104.580897 C14.288499,105.107212 13.5672515,105.692008 12.6900585,106.101365 C12.8070175,105.692008 12.9239766,105.263158 13.079922,104.873294 C14.0350877,102.280702 15.1461988,99.6881092 16.5692008,97.3099415 C20.6237817,94.7173489 24.8927875,92.6900585 29.6101365,91.7153996 C34.3664717,90.4678363 39.337232,89.2982456 44.2495127,88.9863548 C45.2241715,88.9278752 46.1988304,89.005848 47.1929825,88.9473684 Z" fill="#660B2B"></path>
                    <path d="M156.881092,90.2534113 C157.426901,90.8576998 158.109162,91.3060429 158.849903,91.6179337 C160.8577,92.5730994 162.729045,93.5087719 164.288499,95.1461988 C165.750487,96.7836257 167.017544,98.6354776 168.34308,100.37037 C168.576998,100.350877 168.830409,100.350877 169.064327,100.331384 C167.290448,100.701754 165.341131,100.42885 163.547758,100.272904 C162.261209,100.136452 161.247563,99.6296296 160.409357,98.6354776 C158.888889,96.8421053 157.699805,94.619883 156.452242,92.6315789 C156.101365,92.0272904 155.536062,91.6179337 155.224172,91.0136452 C155.614035,90.3898635 156.218324,90.3703704 156.881092,90.2534113 Z" fill="#FEFEFE"></path>
                    <path d="M156.881092,90.2534113 C157.426901,90.1559454 157.933723,90.1754386 158.479532,90.2339181 C161.247563,90.4678363 163.957115,92.0467836 166.179337,93.625731 C166.920078,94.0935673 167.348928,94.7758285 167.816764,95.497076 C168.499025,96.5692008 169.044834,97.7192982 169.473684,98.9278752 C169.590643,99.2982456 169.863548,99.4931774 170.116959,99.7660819 C169.785575,99.9610136 169.434698,100.194932 169.064327,100.311891 C168.830409,100.331384 168.576998,100.350877 168.34308,100.350877 C167.037037,98.6159844 165.750487,96.7641326 164.288499,95.1267057 C162.729045,93.4892788 160.8577,92.5536062 158.849903,91.5984405 C158.109162,91.3060429 157.426901,90.877193 156.881092,90.2534113 Z" fill="#660B2B"></path>
                    <path d="M151.22807,91.3060429 C152.904483,91.539961 154.385965,93.0409357 155.419103,94.2690058 C156.783626,95.8869396 157.97271,97.6608187 159.044834,99.4931774 C157.192982,100.077973 155.39961,100.760234 153.586745,101.423002 C153.547758,99.4152047 153.37232,96.9980507 152.319688,95.2436647 C151.500975,93.8986355 150.097466,93.4697856 148.615984,93.3918129 C148.986355,92.2222222 149.902534,91.1500975 151.22807,91.3060429 Z" fill="#660B2B"></path>
                    <path d="M100.662768,95.9844055 C100.116959,96.7836257 99.3957115,97.4463938 98.791423,98.2261209 C94.7173489,103.333333 92.5730994,109.746589 91.9883041,116.19883 C91.8128655,117.426901 91.7348928,118.654971 91.7738791,119.902534 C91.754386,121.734893 91.754386,123.547758 91.871345,125.360624 C92.0662768,127.095517 91.9883041,128.869396 92.202729,130.623782 C92.3001949,132.319688 92.3001949,133.996101 92.4366472,135.692008 C89.122807,137.251462 86.4912281,140.175439 84.4834308,143.177388 C81.9493177,146.978558 80.0584795,151.247563 78.4990253,155.536062 C77.5243665,158.323587 76.6276803,161.169591 75.9454191,164.035088 C75.8479532,164.385965 75.8479532,164.717349 75.497076,164.931774 C75.497076,163.37232 75.7309942,161.793372 75.9454191,160.253411 C76.7446394,154.54191 78.2846004,148.927875 80.4483431,143.586745 C81.9298246,139.980507 83.6452242,136.549708 85.7894737,133.294347 C85.7894737,128.557505 86.374269,123.840156 87.6998051,119.278752 C88.9863548,113.918129 90.877193,108.596491 93.7426901,103.859649 C95.4191033,101.091618 97.4463938,98.4795322 99.9610136,96.4327485 C100.155945,96.2378168 100.409357,96.1013645 100.662768,95.9844055 Z" fill="#660B2B"></path>
                    <path d="M172.319688,101.208577 L172.417154,101.345029 C173.138402,102.729045 174.269006,103.450292 175.516569,104.307992 C174.775828,105.243665 173.937622,106.296296 173.567251,107.446394 L173.489279,107.699805 C173.31384,107.777778 173.157895,107.758285 173.040936,107.660819 C171.949318,106.939571 170.896686,106.19883 169.902534,105.341131 C168.810916,104.444444 167.992203,103.177388 167.05653,102.105263 C168.791423,101.7154 170.565302,101.325536 172.319688,101.208577 Z" fill="#FEFEFE"></path>
                    <path d="M172.417154,101.325536 C173.352827,101.598441 174.132554,102.163743 175.02924,102.534113 C175.692008,102.865497 176.549708,103.079922 177.11501,103.567251 C177.173489,103.859649 177.153996,104.015595 176.959064,104.249513 C176.354776,104.990253 175.614035,105.633528 174.931774,106.315789 C174.483431,106.744639 174.152047,107.212476 173.567251,107.407407 C173.937622,106.25731 174.775828,105.224172 175.516569,104.269006 C174.288499,103.450292 173.138402,102.709552 172.417154,101.325536 Z" fill="#660B2B"></path>
                    <path d="M159.649123,101.929825 C161.461988,101.676413 163.352827,102.08577 164.814815,103.216374 C167.251462,105.02924 169.454191,107.192982 171.637427,109.298246 C171.481481,110.701754 171.247563,112.280702 170.409357,113.469786 C169.551657,114.736842 168.109162,115.536062 166.647173,115.906433 C164.912281,116.335283 163.157895,116.666667 161.403509,116.998051 C159.181287,117.407407 156.842105,117.54386 154.580897,117.758285 C152.007797,118.031189 149.512671,118.654971 147.037037,119.415205 C146.159844,119.688109 145.263158,119.922027 144.346979,120.077973 C142.846004,120.331384 141.22807,120.526316 139.746589,120.077973 C139.103314,119.863548 138.479532,119.473684 138.362573,118.732943 C138.304094,118.050682 138.421053,117.348928 138.732943,116.744639 C139.220273,115.730994 139.883041,114.775828 140.604288,113.898635 C141.189084,113.157895 142.007797,112.651072 142.709552,111.968811 C143.859649,112.358674 144.873294,113.177388 145.380117,114.288499 C145.614035,114.775828 145.82846,115.380117 146.276803,115.711501 C146.62768,115.925926 147.153996,115.867446 147.563353,115.867446 C149.278752,115.789474 151.013645,115.555556 152.709552,115.204678 C151.033138,115.146199 149.415205,114.249513 148.031189,113.37232 C147.309942,112.923977 146.725146,112.358674 146.159844,111.734893 C145.555556,111.111111 144.834308,110.79922 144.054581,110.42885 C144.873294,109.57115 145.750487,108.752437 146.62768,107.953216 C147.48538,108.440546 148.128655,109.220273 148.557505,110.097466 C148.830409,110.643275 149.064327,111.28655 149.454191,111.734893 C149.922027,112.163743 150.467836,112.163743 151.072125,112.14425 C152.51462,112.08577 153.937622,111.929825 155.360624,111.734893 C156.159844,111.637427 156.920078,111.403509 157.719298,111.364522 C155.302144,111.22807 153.138402,109.980507 151.189084,108.615984 C150.253411,107.953216 149.649123,106.998051 148.693957,106.354776 C149.415205,105.789474 150.194932,105.282651 150.994152,104.853801 C151.461988,105.555556 151.773879,106.335283 152.163743,107.095517 C152.417154,107.602339 152.807018,108.011696 153.391813,108.109162 C156.120858,108.265107 159.064327,107.641326 161.676413,107.290448 C159.766082,106.998051 158.187135,106.393762 156.549708,105.419103 C155.614035,104.834308 154.60039,104.269006 153.80117,103.508772 C155.692008,102.826511 157.660819,102.241715 159.649123,101.929825 Z" fill="#FEFEFE"></path>
                    <path d="M51.5789474,109.57115 C51.4230019,109.727096 51.2865497,109.883041 51.1306043,110.05848 L51.2670565,109.610136 C50.1169591,110.05848 48.9473684,110.448343 47.8167641,110.994152 C44.9317739,112.378168 42.2417154,114.210526 39.6881092,116.101365 C35.2241715,119.493177 30.994152,123.255361 26.9980507,127.192982 C25.165692,128.869396 23.5087719,130.721248 21.754386,132.475634 C21.1890838,133.060429 20.7017544,133.684211 20.0974659,134.210526 C20.1364522,133.664717 20.1949318,133.118908 20.331384,132.573099 C21.0526316,129.376218 21.9688109,126.179337 23.1968811,123.138402 C23.4892788,122.768031 23.9181287,122.436647 24.288499,122.124756 C27.797271,119.083821 31.5789474,116.413255 35.6725146,114.230019 C39.2202729,112.358674 43.0604288,110.818713 47.0175439,110.038986 C48.4990253,109.707602 50.0194932,109.493177 51.5789474,109.57115 Z" fill="#660B2B"></path>
                    <path d="M173.840156,109.863548 C174.288499,110.097466 174.736842,110.311891 175.165692,110.604288 C175.808967,110.994152 176.237817,111.734893 176.354776,112.475634 C176.452242,113.411306 175.964912,114.307992 175.536062,115.107212 C174.931774,116.179337 174.249513,117.192982 173.567251,118.206628 C172.534113,119.668616 171.013645,120.623782 169.239766,120.8577 C167.875244,121.013645 166.296296,120.8577 165.087719,120.155945 C167.387914,119.376218 169.707602,118.206628 171.325536,116.354776 C172.183236,115.39961 172.631579,114.288499 173.157895,113.138402 C173.645224,112.105263 173.937622,111.013645 173.840156,109.863548 Z" fill="#FEFEFE"></path>
                    <path d="M153.840156,120.331384 C155.750487,120.233918 157.641326,120.331384 159.532164,120.467836 C159.025341,124.522417 157.953216,128.888889 155.769981,132.397661 C154.152047,134.990253 151.812865,137.095517 148.869396,138.011696 C147.212476,137.368421 145.614035,136.68616 143.879142,136.237817 C142.475634,135.847953 140.8577,135.107212 139.980507,133.898635 C139.181287,132.88499 139.512671,131.403509 139.727096,130.233918 C140.136452,128.362573 140.779727,126.081871 142.222222,124.717349 C143.898635,123.118908 146.179337,122.046784 148.362573,121.306043 C150.175439,120.838207 152.007797,120.448343 153.840156,120.331384 Z" fill="#FEFEFE"></path>
                    <path d="M159.551657,120.467836 C160.37037,120.42885 161.169591,120.409357 161.968811,120.623782 C162.202729,122.88499 161.988304,125.224172 161.988304,127.48538 C161.637427,130.409357 161.949318,133.528265 160.838207,136.276803 C160.311891,137.699805 159.259259,138.986355 157.777778,139.454191 C156.744639,139.824561 155.575049,139.805068 154.502924,139.688109 C152.573099,139.395712 150.662768,138.810916 148.888889,138.011696 C151.832359,137.076023 154.17154,134.990253 155.789474,132.397661 C157.97271,128.888889 159.044834,124.522417 159.551657,120.467836 Z" fill="#660B2B"></path>
                    <path d="M81.7738791,128.966862 C81.6569201,129.337232 81.539961,129.707602 81.3840156,130.05848 C81.0721248,130.097466 81.0526316,130.136452 80.877193,130.389864 C78.8499025,133.547758 76.9980507,136.822612 75.5165692,140.272904 C75.0487329,140.448343 74.5614035,140.584795 74.0545809,140.682261 C73.0994152,140.877193 72.1832359,141.208577 71.2280702,141.345029 L71.2280702,141.247563 C72.9824561,137.387914 75.5750487,133.80117 78.791423,131.033138 C79.7270955,130.272904 80.7017544,129.493177 81.7738791,128.966862 Z" fill="#660B2B"></path>
                    <path d="M52.962963,134.775828 C52.3391813,135.243665 51.6179337,135.380117 50.9161793,135.730994 C48.5380117,136.842105 46.6081871,138.460039 44.7173489,140.253411 C39.7465887,145.302144 36.0233918,151.520468 32.8265107,157.797271 C32.1247563,159.181287 31.5594542,160.662768 30.7797271,161.988304 C30.545809,160.818713 30.6822612,159.649123 30.545809,158.479532 C30.4483431,157.563353 30.5068226,156.666667 30.5847953,155.750487 C30.6237817,153.196881 30.8576998,150.643275 31.3450292,148.128655 C34.7953216,144.17154 38.7719298,140.350877 43.3333333,137.699805 C46.1988304,136.062378 49.6491228,134.736842 52.962963,134.775828 Z" fill="#660B2B"></path>
                    <path d="M66.1988304,144.658869 L66.1988304,144.697856 C66.2378168,145.185185 66.2573099,145.653021 66.2378168,146.140351 C64.4639376,147.660819 62.8265107,149.376218 61.3255361,151.169591 C57.1150097,156.296296 53.5477583,162.124756 50.4093567,167.933723 C49.9025341,168.830409 49.4931774,169.785575 48.9278752,170.662768 C48.6159844,169.239766 48.4795322,167.758285 48.4405458,166.296296 C48.3040936,164.697856 48.245614,163.060429 48.3820663,161.442495 C49.2787524,159.902534 50.331384,158.440546 51.4424951,157.05653 C54.6978558,153.021442 58.6354776,149.610136 63.2163743,147.192982 C64.1910331,146.68616 65.1851852,146.159844 66.2378168,145.808967 C66.2183236,145.438596 66.1988304,145.048733 66.1988304,144.658869 Z" fill="#660B2B"></path>
                </g>
            </g>
        </g>
    </g>
</svg>