<?xml version="1.0" encoding="UTF-8"?>
<svg width="200px" height="200px" viewBox="0 0 200 200" version="1.1" xmlns="http://www.w3.org/2000/svg" xmlns:xlink="http://www.w3.org/1999/xlink">
    <!-- Generator: Sketch 51.3 (57544) - http://www.bohemiancoding.com/sketch -->
    <title>belmont-abbey</title>
    <desc>Created with Sketch.</desc>
    <defs></defs>
    <g id="belmont-abbey" stroke="none" stroke-width="1" fill="none" fill-rule="evenodd">
        <g id="belmont-abbey_BGL" transform="translate(10.666667, 0.000000)">
            <g id="belmont-abbey">
                <g id="g10" transform="translate(88.999998, 100.465078) scale(-1, 1) rotate(-180.000000) translate(-88.999998, -100.465078) translate(0.000000, 0.470567)" fill-rule="nonzero">
                    <g id="g12">
                        <path d="M63.0751408,31.6239257 L94.8036766,17.8827683 C94.8036766,17.8827683 94.8036766,17.8827683 94.8051417,17.8827683 C98.6207877,19.0813054 100.767043,22.080332 100.767043,22.080332 C75.6749035,24.4971846 64.5501967,40.9662805 64.5501967,40.9662805 C71.5293348,36.2626416 79.7103025,34.0502631 83.5347387,33.2188381 C77.8431339,37.1699447 68.8699563,50.6245002 61.3368939,58.5356836 C51.2179238,69.1638501 42.9516919,68.5021217 37.0418723,65.9066025 L37.0418723,64.4671227 C44.2444993,63.904433 52.2594802,61.6091178 58.9433434,52.5132201 C58.9433434,52.5132201 48.9064877,59.4593094 37.0186517,58.349885 C37.0295662,58.0609302 37.0570353,57.7070526 37.1073587,57.3050159 C37.6681686,52.8412168 41.3516697,41.7580752 63.0751408,31.6239257" id="path14" fill="#D41042"></path>
                        <path d="M37.0418723,135.541824 C38.4676303,135.957242 39.8027768,136.481478 40.9848286,137.116737 C52.7356119,143.418597 55.5946727,148.760951 61.6908429,152.712205 C61.6908429,152.712205 59.6775384,144.681028 62.4215951,136.398394 C63.6076758,138.947519 64.9685334,141.390032 66.532223,143.676671 C70.8600402,150.010882 76.6007964,155.23339 83.0659321,159.064062 C81.2969198,161.114685 75.394352,166.732023 66.3577391,167.152588 C67.1425506,167.523156 67.9302921,167.839315 68.7189127,168.1143 C74.146887,170.006108 79.5945659,169.700978 84.16836,168.1143 C87.3357344,167.015831 90.084113,165.304896 92.1175615,163.289565 C95.1069359,164.394652 98.0787301,165.138728 101.230722,165.725461 C100.816121,166.562915 100.351709,167.350372 99.8660551,168.1143 C96.4613474,173.466212 91.4238743,177.019694 86.1908209,178.841653 C83.0747222,179.926887 79.8948951,180.41289 76.9560639,180.283485 C76.9560639,180.283485 77.5896853,179.801159 78.3705413,178.841653 C78.8027223,178.311535 79.278854,177.640248 79.7212902,176.812352 C70.4466114,178.42991 62.3684149,176.898377 57.6233599,174.38675 C58.8760989,173.703699 60.0887697,172.947123 61.2504577,172.132462 C54.7780702,171.262657 49.8616078,169.856852 46.0313849,168.1143 C42.0174483,166.28793 39.1999208,164.089521 37.0418723,161.746268 C32.3111745,156.607579 30.7490964,150.771135 26.7372109,146.61254 C24.0646471,143.842103 20.3054044,141.815009 13.7897988,141.23857 C15.8974506,137.106444 21.1028884,134.980825 26.7372109,134.53085 C30.2191984,134.252189 33.8614592,134.616139 37.0418723,135.541824" id="path16" fill="#D41042"></path>
                        <path d="M138.725725,48.3819763 C140.902745,45.6969031 144.337486,39.6537055 145.763684,35.5664298 L145.764416,35.5664298 C147.772227,36.7560704 149.563214,37.9707096 151.153494,39.1933631 C148.093066,43.0821202 141.811058,47.6548103 138.725725,48.3819763" id="path18" fill="#D41042"></path>
                        <path d="M145.204046,121.255108 C145.66919,117.657511 147.282177,114.75473 149.78956,112.584261 C149.78956,112.584261 148.999181,106.836782 147.698243,101.315762 L154.961815,97.335833 C151.130054,87.0393394 142.80068,68.3794814 136.170729,58.3401061 C139.384984,57.0651761 149.64086,52.5485123 156.908095,44.4866019 C164.002457,52.4192547 164.033222,59.3401247 164.033222,59.3401247 L164.033222,72.4431554 L164.033222,168.1143 L111.168689,168.1143 C111.181141,166.306311 111.028047,164.570377 110.76947,162.955025 C135.54956,151.796814 143.216745,136.954981 145.204046,121.255108" id="path20" fill="#C6C5C5"></path>
                        <path d="M47.8600967,76.6354988 C53.6612118,82.9594163 56.5763829,91.7515807 57.8064874,96.4895559 C55.9325797,106.777962 55.9927188,117.492815 58.7908347,127.438592 C50.5314884,121.760963 42.9897825,121.424216 42.9897825,121.424216 C44.9340845,123.878493 46.9804984,127.299629 48.9085387,131.267794 C45.9498565,128.609116 41.8494837,125.76736 37.0418723,123.95643 L37.0418723,75.4561517 C40.5839257,76.4016881 44.2401775,76.7604919 47.8600967,76.6354988" id="path22" fill="#C6C5C5"></path>
                        <path d="M129.429437,114.671646 C129.569347,124.584337 126.901544,132.486109 122.527725,138.562981 C118.02352,144.819991 112.208853,149.651343 107.732483,152.491629 C112.598549,150.500561 119.010944,146.775031 124.433717,141.417237 C129.880663,136.042532 133.691182,129.826696 134.98919,119.512557 C135.17305,117.971465 135.433824,116.411256 135.907025,115.220145 C134.291108,114.607679 133.02533,114.288579 133.02533,114.288579 C133.02533,114.288579 131.04975,114.456217 129.429437,114.671646 Z M141.108581,113.415833 C141.108581,113.415833 139.687511,115.704677 139.009206,119.915476 C137.000663,149.197692 103.197512,158.744226 103.197512,158.744226 C79.2722614,154.962816 56.4358875,134.072052 64.2629062,95.8947356 C64.2629062,95.8947356 62.4236462,82.0771118 56.6605484,74.0179954 C57.8376924,73.3340624 59.0125656,72.5166808 60.1960092,71.5858495 C65.9396955,78.890522 68.9532427,95.6991581 68.9532427,95.6991581 C68.1142987,99.6489413 67.5817637,103.395794 67.3334428,106.972069 C67.2160946,107.842609 67.1563218,108.703591 67.1854757,109.536634 C67.1875267,109.599866 67.1977819,109.660892 67.2012247,109.724123 C66.9153992,120.340452 69.3807357,129.335547 74.7175125,137.100562 C83.3435535,149.671195 97.6172486,153.043069 97.6172486,153.043069 C97.6172486,153.043069 84.2130432,146.747826 77.4695536,131.969226 C75.2705578,127.15699 74.0963438,122.491805 73.4832327,117.694274 C74.1945002,117.894998 74.932138,118.020727 75.6895537,118.052343 C77.996961,118.147926 80.4581955,117.464875 82.7048045,116.020837 C88.0360143,112.588672 107.601364,97.9402115 131.552252,93.6816218 C131.552252,93.6816218 135.510005,94.4007 139.595947,96.1998659 C140.567256,98.025501 141.169379,101.13636 141.169379,101.13636 C141.169379,101.13636 137.084902,99.097501 132.639297,98.1629934 C120.252548,100.35405 107.079816,106.580914 101.509808,109.570455 C101.509808,109.570455 98.4955284,112.990856 96.4738001,118.475849 C96.4738001,118.475849 112.89375,111.834302 133.374005,110.012343 C133.374005,110.012343 139.842071,111.659311 141.108581,113.415833 Z" id="path24" fill="#C6C5C5"></path>
                        <path d="M66.710809,65.3583237 C66.9374477,65.1067199 67.1623284,64.8648949 67.3912378,64.6046886 C75.0991504,55.8476694 82.1649444,47.4767319 86.6222694,43.1881438 C91.938829,38.0654838 99.9246559,33.8076293 106.839553,31.9327323 C112.160507,30.4989874 117.269034,30.2909842 121.80254,30.7967652 C112.893018,31.3579844 101.31203,37.1363437 97.0041375,43.1329997 C118.999956,32.1291185 130.026433,36.7075437 134.777495,41.2411183 C133.065618,44.5615243 130.842449,47.7642161 128.507939,49.1781091 C126.7631,47.7202479 124.690828,45.8189552 124.690828,45.8189552 C104.933561,51.2890961 90.2079072,62.2868747 90.2079072,62.2868747 C82.6689115,71.2084438 76.8747553,82.5484095 73.6275373,89.6369909 C72.323083,83.1152901 69.9140764,74.8929474 64.6216897,67.5904806 C65.3087111,66.8919895 66.0066469,66.139825 66.710809,65.3583237" id="path26" fill="#C6C5C5"></path>
                        <path d="M122.097009,60.3502898 C120.590236,60.9459189 118.906927,61.4680961 117.284417,62.1576906 C120.33459,66.2133503 124.542129,72.8585002 129.285133,82.4351804 C131.135454,81.9874108 132.751371,81.7521296 134.532104,81.4896441 C129.594252,71.4299022 125.228491,64.5001356 122.097009,60.3502898 Z M109.905108,65.4737586 C112.843207,69.4168509 116.744557,75.5370297 121.203347,84.4269828 C122.932804,83.8968648 124.564836,83.4777702 126.224705,83.0844094 C121.58059,73.7577156 117.499042,67.3624784 114.49282,63.369977 C112.953084,64.0500867 111.419207,64.7546069 109.905108,65.4737586 Z M102.847372,69.1822315 C105.674129,73.060695 109.196771,78.6912683 113.347174,86.9239045 C115.00924,86.3158497 116.650063,85.7982311 118.22789,85.2813477 C113.872384,76.6171174 110.094096,70.6871489 107.20068,66.7837602 C105.649956,67.5609234 104.201783,68.355071 102.847372,69.1822315 Z M74.323422,107.333814 C74.323422,108.755059 75.4405002,109.904996 76.8132244,109.904996 C78.1866812,109.904996 79.3008293,108.755059 79.3008293,107.333814 C79.3008293,105.911833 78.1866812,104.75969 76.8132244,104.75969 C75.4405002,104.75969 74.323422,105.911833 74.323422,107.333814 Z M131.501709,87.9753174 C123.209692,89.3370074 101.999858,94.9697864 79.9183355,110.98876 C79.0239404,111.636518 78.1866812,112.01738 77.4190104,112.189429 C76.9868294,112.286483 76.5773561,112.317363 76.1920557,112.293835 C75.9349446,112.27766 75.6888212,112.236486 75.4544179,112.174724 C75.3372162,112.143844 75.2229446,112.107816 75.1108706,112.066642 C74.8325166,111.963706 74.5724755,111.82989 74.3322121,111.671811 C73.6106895,111.196101 73.0684854,110.499081 72.7397348,109.746916 C72.5353644,109.269001 72.4369883,108.767558 72.4317875,108.218324 C72.4163315,106.569885 73.2387208,104.491322 74.5431751,101.353995 C74.8779323,100.545216 75.430245,99.257051 76.1730104,97.6203762 C79.3901955,90.53253 86.1783682,76.9354823 94.3539153,67.6904751 L94.3539153,67.6895928 C94.3539153,67.6895928 106.828565,58.664353 123.891659,53.6074982 C123.891659,53.6074982 126.2584,55.3404913 130.209561,60.9209203 C128.998721,60.5297653 127.235569,60.0122202 125.259989,59.6049631 C128.577528,64.3789657 132.285495,70.6931779 137.419659,81.5719925 C139.323453,82.2800418 141.512927,83.3821872 142.942054,84.1394986 C144.311848,87.1885959 145.727791,90.5075313 147.185486,94.1565957 C147.185486,94.1565957 140.973799,90.3943023 131.501709,87.9753174 Z" id="path28" fill="#C6C5C5"></path>
                        <path d="M174.352827,58.3070932 C174.36235,53.4472129 172.951535,48.9305491 170.607502,44.8159956 C164.615568,34.2989994 152.525486,26.4031094 142.4564,22.0670974 L100.55022,3.91293225 L58.6142998,22.0670974 C44.615589,28.0984575 26.7071779,41.024292 26.7372109,58.3070932 L26.7372109,122.074181 C25.5898068,122.090356 24.4254817,122.180057 23.2457739,122.363871 C4.35557199,125.305621 -0.465831116,143.808282 4.31007578,153.020276 C6.71906765,146.651508 15.0814342,149.780748 19.8001188,153.622449 C23.3656126,156.525231 25.0252611,159.630943 26.7372109,162.403584 L26.7372109,178.841653 L45.0107783,178.841653 C50.1062662,181.279754 55.2126686,182.553949 58.5478611,182.834816 C55.546913,183.759765 51.7243814,184.191359 51.7243814,184.191359 C62.9627005,191.259353 76.5180228,191.304204 85.6509608,190.016774 C84.7250678,191.485811 83.3054629,192.719567 83.3054629,192.719567 C87.4749114,192.043134 91.0393064,190.912313 94.1041293,189.466805 C93.8426232,190.897608 93.5027384,192.200478 93.1657837,193.299682 C101.597709,189.238876 106.329726,184.098717 108.804878,178.841653 L174.355757,178.841653 L174.352827,58.3070932 Z M111.489528,182.423074 L111.055149,183.042893 C106.83589,189.07712 102.427644,194.3783 89.0688537,199.358909 L89.8680224,194.926064 L87.4404834,195.453976 C81.7466811,196.694349 77.3245166,197.003156 74.324887,196.997274 L73.3352657,196.984039 L76.8776853,194.085669 L73.0999834,193.898914 C65.1859424,193.507759 58.9453212,191.637274 53.8875575,189.404308 C48.7505362,187.13605 46.2554597,184.494283 43.0489693,182.620122 L42.7101833,182.423074 L23.1624875,182.423074 L23.1624875,161.288204 L22.8294151,160.883815 C19.8415789,157.255338 15.9449905,153.5526 12.5067338,152.78573 C8.7981076,151.95857 6.44494766,153.355552 4.30149808,158.728786 C-3.90891653,146.336819 1.13138409,133.628694 7.00377242,127.282718 C10.9882401,122.970455 16.3135165,120.2184 21.9916431,119.092727 L23.1624875,118.861122 L23.1624875,58.3070932 C23.1659303,39.5491524 40.904985,25.8338024 57.2056093,18.7828659 L100.5385,0 L143.878202,18.7834541 C160.057156,25.7801288 177.661576,39.3493104 177.909164,57.9638767 L177.909164,182.423074 L111.489528,182.423074 Z" id="path30" fill="#FFFFFF"></path>
                        <path d="M134.98919,119.512557 C133.691182,129.826696 129.880663,136.042532 124.433717,141.417237 C119.010944,146.775031 112.598549,150.500561 107.732483,152.491629 C112.208853,149.651343 118.02352,144.819991 122.527725,138.562981 C126.901544,132.486109 129.569347,124.584337 129.429437,114.671646 C131.04975,114.456217 133.02533,114.288579 133.02533,114.288579 C133.02533,114.288579 134.291108,114.607679 135.907025,115.220145 C135.433824,116.411256 135.17305,117.971465 134.98919,119.512557" id="path32" fill="#FFFFFF"></path>
                        <path d="M60.1960092,71.5858495 C60.6724339,71.2107966 61.1509096,70.8181711 61.6307038,70.4020174 C62.6161499,69.5492701 63.6105326,68.6190271 64.621177,67.5904806 L64.6216897,67.5904806 C69.9140764,74.8929474 72.323083,83.1152901 73.6275373,89.6369909 C72.147134,92.8676959 71.1956764,95.2160964 70.8503711,96.0469331 C69.701209,98.810752 67.8685415,102.997287 67.3334428,106.972069 C67.5817637,103.395794 68.1142987,99.6489413 68.9532427,95.6991581 C68.9532427,95.6991581 65.9396955,78.890522 60.1960092,71.5858495" id="path34" fill="#FFFFFF"></path>
                        <path d="M97.6172486,153.043069 C97.6172486,153.043069 83.3435535,149.671195 74.7175125,137.100562 C69.3807357,129.335547 66.9153992,120.340452 67.2012247,109.724123 C67.2747687,111.197572 67.6104049,112.583525 68.3400584,113.778313 C69.5850328,115.817171 71.4097159,117.110483 73.4832327,117.694274 C74.0963438,122.491805 75.2705578,127.15699 77.4695536,131.969226 C84.2130432,146.747826 97.6172486,153.043069 97.6172486,153.043069" id="path36" fill="#FFFFFF"></path>
                        <path d="M164.033222,168.1143 L164.033222,59.3401247 C164.033222,59.3401247 164.002457,52.4192547 156.908095,44.4866019 C149.64086,52.5485123 139.384984,57.0651761 136.170729,58.3401061 C142.80068,68.3794814 151.130054,87.0393394 154.961815,97.335833 L147.698243,101.315762 C148.999181,106.836782 149.78956,112.584261 149.78956,112.584261 C147.282177,114.75473 145.66919,117.657511 145.204046,121.255108 C143.216745,136.954981 135.54956,151.796814 110.76947,162.955025 C111.028047,164.570377 111.181141,166.306311 111.168689,168.1143 L164.033222,168.1143 Z M48.9085387,131.267794 C46.9804984,127.299629 44.9340845,123.878493 42.9897825,121.424216 C42.9897825,121.424216 50.5314884,121.760963 58.7908347,127.438592 C55.9927188,117.492815 55.9325797,106.777962 57.8064874,96.4895559 C56.5763829,91.7515807 53.6612118,82.9594163 47.8600967,76.6354988 C44.2401775,76.7604919 40.5839257,76.4016881 37.0418723,75.4561517 L37.0418723,123.95643 C41.8494837,125.76736 45.9498565,128.609116 48.9085387,131.267794 Z M145.764416,35.5664298 L145.763684,35.5664298 C144.337486,39.6537055 140.902745,45.6969031 138.725725,48.3819763 C141.811058,47.6548103 148.093066,43.0821202 151.153494,39.1933631 C149.563214,37.9707096 147.772227,36.7560704 145.764416,35.5664298 Z M58.9433434,52.5132201 C52.2594802,61.6091178 44.2444993,63.904433 37.0418723,64.4671227 L37.0418723,65.9066025 C42.9516919,68.5021217 51.2179238,69.1638501 61.3368939,58.5356836 C68.8699563,50.6245002 77.8431339,37.1699447 83.5347387,33.2188381 C79.7103025,34.0502631 71.5293348,36.2626416 64.5501967,40.9662805 C64.5501967,40.9662805 75.6749035,24.4971846 100.767043,22.080332 C100.767043,22.080332 98.6207877,19.0813054 94.8051417,17.8827683 C94.8036766,17.8827683 94.8036766,17.8827683 94.8036766,17.8827683 L63.0751408,31.6239257 C41.3516697,41.7580752 37.6681686,52.8412168 37.1073587,57.3050159 C37.0570353,57.7070526 37.0295662,58.0609302 37.0186517,58.349885 C48.9064877,59.4593094 58.9433434,52.5132201 58.9433434,52.5132201 Z M142.942054,84.1394986 C141.512927,83.3821872 139.323453,82.2800418 137.419659,81.5719925 C132.285495,70.6931779 128.577528,64.3789657 125.259989,59.6049631 C127.235569,60.0122202 128.998721,60.5297653 130.209561,60.9209203 C126.2584,55.3404913 123.891659,53.6074982 123.891659,53.6074982 C106.828565,58.664353 94.3539153,67.6895928 94.3539153,67.6895928 L94.3539153,67.6904751 C86.1783682,76.9354823 79.3901955,90.53253 76.1730104,97.6203762 C75.430245,99.257051 74.8779323,100.545216 74.5431751,101.353995 C73.2387208,104.491322 72.4163315,106.569885 72.4317875,108.218324 C72.4369883,108.767558 72.5353644,109.269001 72.7397348,109.746916 C73.0684854,110.499081 73.6106895,111.196101 74.3322121,111.671811 C74.5724755,111.82989 74.8325166,111.963706 75.1108706,112.066642 C75.2229446,112.107816 75.3372162,112.143844 75.4544179,112.174724 C75.6888212,112.236486 75.9349446,112.27766 76.1920557,112.293835 C76.5773561,112.317363 76.9868294,112.286483 77.4190104,112.189429 C78.1866812,112.01738 79.0239404,111.636518 79.9183355,110.98876 C101.999858,94.9697864 123.209692,89.3370074 131.501709,87.9753174 C140.973799,90.3943023 147.185486,94.1565957 147.185486,94.1565957 C145.727791,90.5075313 144.311848,87.1885959 142.942054,84.1394986 Z M101.509808,109.570455 C107.079816,106.580914 120.252548,100.35405 132.639297,98.1629934 C137.084902,99.097501 141.169379,101.13636 141.169379,101.13636 C141.169379,101.13636 140.567256,98.025501 139.595947,96.1998659 C135.510005,94.4007 131.552252,93.6816218 131.552252,93.6816218 C107.601364,97.9402115 88.0360143,112.588672 82.7048045,116.020837 C80.4581955,117.464875 77.996961,118.147926 75.6895537,118.052343 C74.932138,118.020727 74.1945002,117.894998 73.4832327,117.694274 C71.4097159,117.110483 69.5850328,115.817171 68.3400584,113.778313 C67.6104049,112.583525 67.2747687,111.197572 67.2012247,109.724123 C67.1977819,109.660892 67.1875267,109.599866 67.1854757,109.536634 C67.1563218,108.703591 67.2160946,107.842609 67.3334428,106.972069 C67.8685415,102.997287 69.701209,98.810752 70.8503711,96.0469331 C71.1956764,95.2160964 72.147134,92.8676959 73.6275373,89.6369909 C76.8747553,82.5484095 82.6689115,71.2084438 90.2079072,62.2868747 C90.2079072,62.2868747 104.933561,51.2890961 124.690828,45.8189552 C124.690828,45.8189552 126.7631,47.7202479 128.507939,49.1781091 C130.842449,47.7642161 133.065618,44.5615243 134.777495,41.2411183 C130.026433,36.7075437 118.999956,32.1291185 97.0041375,43.1329997 C101.31203,37.1363437 112.893018,31.3579844 121.80254,30.7967652 C117.269034,30.2909842 112.160507,30.4989874 106.839553,31.9327323 C99.9246559,33.8076293 91.938829,38.0654838 86.6222694,43.1881438 C82.1649444,47.4767319 75.0991504,55.8476694 67.3912378,64.6046886 C67.1623284,64.8648949 66.9374477,65.1067199 66.710809,65.3583237 C66.0066469,66.139825 65.3087111,66.8919895 64.6216897,67.5904806 L64.621177,67.5904806 C63.6105326,68.6190271 62.6161499,69.5492701 61.6307038,70.4020174 C61.1509096,70.8181711 60.6724339,71.2107966 60.1960092,71.5858495 C59.0125656,72.5166808 57.8376924,73.3340624 56.6605484,74.0179954 C62.4236462,82.0771118 64.2629062,95.8947356 64.2629062,95.8947356 C56.4358875,134.072052 79.2722614,154.962816 103.197512,158.744226 C103.197512,158.744226 137.000663,149.197692 139.009206,119.915476 C139.687511,115.704677 141.108581,113.415833 141.108581,113.415833 C139.842071,111.659311 133.374005,110.012343 133.374005,110.012343 C112.89375,111.834302 96.4738001,118.475849 96.4738001,118.475849 C98.4955284,112.990856 101.509808,109.570455 101.509808,109.570455 Z M13.7897988,141.23857 C20.3054044,141.815009 24.0646471,143.842103 26.7372109,146.61254 C30.7490964,150.771135 32.3111745,156.607579 37.0418723,161.746268 C39.1999208,164.089521 42.0174483,166.28793 46.0313849,168.1143 C49.8616078,169.856852 54.7780702,171.262657 61.2504577,172.132462 C60.0887697,172.947123 58.8760989,173.703699 57.6233599,174.38675 C62.3684149,176.898377 70.4466114,178.42991 79.7212902,176.812352 C79.278854,177.640248 78.8027223,178.311535 78.3705413,178.841653 C77.5896853,179.801159 76.9560639,180.283485 76.9560639,180.283485 C79.8948951,180.41289 83.0747222,179.926887 86.1908209,178.841653 C91.4238743,177.019694 96.4613474,173.466212 99.8660551,168.1143 C100.351709,167.350372 100.816121,166.562915 101.230722,165.725461 C98.0787301,165.138728 95.1069359,164.394652 92.1175615,163.289565 C90.084113,165.304896 87.3357344,167.015831 84.16836,168.1143 C79.5945659,169.700978 74.146887,170.006108 68.7189127,168.1143 C67.9302921,167.839315 67.1425506,167.523156 66.3577391,167.152588 C75.394352,166.732023 81.2969198,161.114685 83.0659321,159.064062 C76.6007964,155.23339 70.8600402,150.010882 66.532223,143.676671 C64.9685334,141.390032 63.6076758,138.947519 62.4215951,136.398394 C59.6775384,144.681028 61.6908429,152.712205 61.6908429,152.712205 C55.5946727,148.760951 52.7356119,143.418597 40.9848286,137.116737 C39.8027768,136.481478 38.4676303,135.957242 37.0418723,135.541824 C33.8614592,134.616139 30.2191984,134.252189 26.7372109,134.53085 C21.1028884,134.980825 15.8974506,137.106444 13.7897988,141.23857 Z M93.1657837,193.299682 C93.5027384,192.200478 93.8426232,190.897608 94.1041293,189.466805 C91.0393064,190.912313 87.4749114,192.043134 83.3054629,192.719567 C83.3054629,192.719567 84.7250678,191.485811 85.6509608,190.016774 C76.5180228,191.304204 62.9627005,191.259353 51.7243814,184.191359 C51.7243814,184.191359 55.546913,183.759765 58.5478611,182.834816 C55.2126686,182.553949 50.1062662,181.279754 45.0107783,178.841653 L26.7372109,178.841653 L26.7372109,162.403584 C25.0252611,159.630943 23.3656126,156.525231 19.8001188,153.622449 C15.0814342,149.780748 6.71906765,146.651508 4.31007578,153.020276 C-0.465831116,143.808282 4.35557199,125.305621 23.2457739,122.363871 C24.4254817,122.180057 25.5898068,122.090356 26.7372109,122.074181 L26.7372109,58.3070932 C26.7071779,41.024292 44.615589,28.0984575 58.6142998,22.0670974 L100.55022,3.91293225 L142.4564,22.0670974 C152.525486,26.4031094 164.615568,34.2989994 170.607502,44.8159956 C172.951535,48.9305491 174.36235,53.4472129 174.352827,58.3070932 L174.355757,178.841653 L108.804878,178.841653 C106.329726,184.098717 101.597709,189.238876 93.1657837,193.299682 Z" id="path38" fill="#231F20"></path>
                        <polyline id="path40" fill="#231F20" points="151.05314 17.4114706 153.441124 17.4114706 153.441124 11.1707103 155.152268 11.1707103 155.152268 17.4114706 157.526334 17.4114706 157.526334 19.0005746 151.05314 19.0005746 151.05314 17.4114706"></polyline>
                        <polyline id="path42" fill="#231F20" points="162.743272 15.6925209 160.68858 19.0005746 158.85877 19.0005746 158.85877 11.1715191 160.525231 11.1715191 160.525231 16.2557252 162.717634 12.9381868 162.757922 12.9381868 164.970835 16.2815327 164.970835 11.1715191 166.643889 11.1715191 166.643889 19.0005746 164.803823 19.0005746 162.743272 15.6925209"></polyline>
                        <path d="M117.284417,62.1576906 C118.906927,61.4680961 120.590236,60.9459189 122.097009,60.3502898 C125.228491,64.5001356 129.594252,71.4299022 134.532104,81.4896441 C132.751371,81.7521296 131.135454,81.9874108 129.285133,82.4351804 C124.542129,72.8585002 120.33459,66.2133503 117.284417,62.1576906" id="path44" fill="#231F20"></path>
                        <path d="M121.203347,84.4269828 C116.744557,75.5370297 112.843207,69.4168509 109.905108,65.4737586 C111.419207,64.7546069 112.953084,64.0500867 114.49282,63.369977 C117.499042,67.3624784 121.58059,73.7577156 126.224705,83.0844094 C124.564836,83.4777702 122.932804,83.8968648 121.203347,84.4269828" id="path46" fill="#231F20"></path>
                        <path d="M113.347174,86.9239045 C109.196771,78.6912683 105.674129,73.060695 102.847372,69.1822315 C104.201783,68.355071 105.649956,67.5609234 107.20068,66.7837602 C110.094096,70.6871489 113.872384,76.6171174 118.22789,85.2813477 C116.650063,85.7982311 115.00924,86.3158497 113.347174,86.9239045" id="path48" fill="#231F20"></path>
                        <path d="M79.3008293,107.333814 C79.3008293,108.755059 78.1866812,109.904996 76.8132244,109.904996 C75.4405002,109.904996 74.323422,108.755059 74.323422,107.333814 C74.323422,105.911833 75.4405002,104.75969 76.8132244,104.75969 C78.1866812,104.75969 79.3008293,105.911833 79.3008293,107.333814" id="path50" fill="#231F20"></path>
                    </g>
                </g>
            </g>
        </g>
    </g>
</svg>