<?xml version="1.0" encoding="UTF-8"?>
<svg width="200px" height="200px" viewBox="0 0 200 200" version="1.1" xmlns="http://www.w3.org/2000/svg" xmlns:xlink="http://www.w3.org/1999/xlink">
    <!-- Generator: Sketch 51.3 (57544) - http://www.bohemiancoding.com/sketch -->
    <title>belmont</title>
    <desc>Created with Sketch.</desc>
    <defs></defs>
    <g id="belmont" stroke="none" stroke-width="1" fill="none" fill-rule="evenodd">
        <g id="belmont_BGL" transform="translate(0.000000, 14.925373)">
            <g id="belmont">
                <g id="g10" transform="translate(100.052657, 85.782462) scale(-1, 1) rotate(-180.000000) translate(-100.052657, -85.782462) translate(0.105319, 0.129839)" fill-rule="nonzero">
                    <g id="g12" transform="translate(0.189573, 0.000000)">
                        <path d="M178.340596,48.2109087 L22.1611369,48.4718455 L22.1611369,54.1601012 C28.682885,53.8993737 30.8686669,57.4781456 31.234965,60.8433094 C30.4804626,60.8433094 29.9778823,60.6757737 29.1408102,60.2592381 C28.8890988,62.5915443 30.0888881,65.0174612 32.9935747,67.0892494 C32.2700361,67.3920702 31.2829903,67.2373091 29.673301,66.3596315 C29.7246965,68.3740388 31.4915211,71.265286 34.010531,72.492485 C33.586729,72.5299711 31.6438117,73.279065 31.0563447,73.9075333 C34.15566,75.07421 37.5151123,77.2037981 37.879304,81.9014989 C36.7892566,81.6518707 35.698156,81.7469472 33.915323,81.9972037 C35.3396516,82.4975071 36.6803572,84.4128589 37.6857284,85.9956524 C36.6803572,85.912094 35.6751966,85.568227 34.0825689,85.984972 C37.3078453,87.8391733 39.7135324,91.7643251 39.7135324,96.8465204 C38.7608205,96.513962 38.1392302,95.6880111 37.4338063,94.7297069 C37.1818843,96.8117567 37.4338063,99.1555811 38.8581349,100.987165 C38.0200096,101.070305 37.3594514,100.748008 36.595681,99.904675 C36.3450228,103.736216 39.4443381,106.306633 41.5384929,106.723168 C40.1141643,107.306611 38.0200096,108.982806 37.9363866,110.649367 C43.9555545,112.262317 45.461189,115.87669 45.8951015,119.311172 C45.1405992,119.311172 44.470773,119.311172 43.0464444,118.394752 C43.2147435,122.892247 46.2293827,126.139927 48.3248013,127.056347 C45.6431795,128.306163 44.1628214,129.766237 43.8835165,131.72075 C46.903843,131.25165 50.1636638,131.4106 51.4230635,133.803219 C50.3947328,134.464775 47.2518156,134.478178 46.0623475,133.886359 C46.5649277,136.135316 49.5955754,139.266767 52.1086875,139.266767 C50.6843589,139.93335 49.8234848,141.745458 49.8325422,143.381234 C51.3394405,142.298744 54.9653488,142.261677 56.7825157,143.035902 C55.4818312,143.560079 54.7056332,144.533252 54.0299091,145.927777 C55.7051066,145.344334 57.8748801,145.547052 59.5498669,146.962519 C57.1981028,148.509502 56.3359649,151.210387 56.5329106,153.375367 C55.8904673,152.674858 55.3605041,151.799275 55.2884662,150.293757 C54.0815152,151.142535 53.7689297,154.411994 54.1044747,156.493834 C53.700262,155.891544 53.2240113,155.103916 52.8048433,154.104566 C50.6329635,161.762204 55.6008412,166.168602 58.8789875,168.034321 C62.2279079,169.937736 68.5961015,170.699395 74.1253273,168.534206 C79.6267489,166.379278 83.0055798,164.11964 89.4563432,164.691775 C89.2044212,164.941612 88.450972,165.618875 87.9483917,165.784945 C95.8234836,167.951182 103.446232,165.03606 105.793573,163.03715 C107.469824,169.515337 116.933962,172.656003 124.577564,170.70484 C133.430644,168.445412 140.369033,161.190069 137.61769,154.886539 C138.573772,154.410737 140.128485,153.339975 140.128485,153.339975 C143.837174,153.578085 150.177774,152.1511 154.244757,148.58238 C153.528169,148.701959 151.852971,148.701959 151.852971,148.701959 C151.852971,148.701959 156.159238,146.679175 157.594941,145.37114 C163.456973,146.084842 168.241807,145.490509 170.754077,143.825204 C173.901417,141.738547 177.812739,136.689021 175.180406,128.838927 C174.817479,129.860057 174.347968,130.170836 174.03433,130.559728 C173.79968,128.925417 173.01632,126.434161 171.529222,124.877545 C171.372297,125.889461 171.058448,126.278353 170.825062,126.978862 C170.432223,125.188324 169.336489,123.708984 168.00484,122.93099 C168.474351,120.751141 170.119638,119.116412 173.25097,118.727101 C171.998521,117.793718 169.650338,116.002342 167.222745,116.157941 C168.632329,114.679229 169.650338,111.955099 169.728063,109.852526 C167.770191,110.787165 167.457605,110.631148 166.282882,110.553872 C166.987042,107.906599 167.066031,103.469416 165.891307,101.679297 C165.264872,102.924506 164.794519,103.858099 164.168084,104.559235 C162.994625,101.756573 164.012423,97.7861862 166.048232,96.3072649 C165.342808,96.1514567 164.247073,96.2293608 163.228011,96.5407678 C163.07235,94.360919 164.403787,91.4809804 165.499733,90.5461312 C165.029169,90.5461312 163.151339,90.4688554 162.525325,90.624873 C163.698785,89.1455328 165.578722,86.4209836 164.090149,83.2290098 C163.228011,84.007632 162.680986,84.0855361 162.132276,84.3184107 C161.66424,81.905059 162.445072,77.7011697 165.499733,76.4559606 L163.07235,75.9893737 C164.168084,74.7441647 165.499733,73.8095249 166.752392,73.4985368 L163.933435,73.4985368 C166.282882,72.2522807 169.100575,69.6831208 168.944914,65.402165 C168.396626,65.7131531 167.927115,65.790429 167.066031,66.0237224 C167.927115,64.9343216 168.866978,63.2995921 168.55334,61.0424674 C167.770191,61.2757609 167.378827,61.1972285 166.203682,61.0424674 C166.831381,58.2398047 169.805999,54.1601012 178.340596,54.1601012 L178.340596,48.2109087" id="path14" fill="#313E75"></path>
                        <path d="M154.24602,103.795901 C153.616215,103.021886 152.953129,102.256457 152.177985,101.478882 C152.248969,98.9700353 152.122166,97.1975077 151.425799,94.6492898 C153.663187,97.894875 154.683303,101.360979 154.24602,103.795901" id="path16" fill="#FFFFFF"></path>
                        <path d="M157.053393,107.852568 C156.605578,107.099495 156.080249,106.288413 155.486884,105.457436 C155.97809,103.99464 156.186621,102.736866 156.061923,100.99973 C157.112792,103.69517 157.299627,105.169903 157.053393,107.852568" id="path18" fill="#FFFFFF"></path>
                        <path d="M153.830223,84.1146454 C153.143335,83.1117349 152.435594,82.1431691 151.649075,81.2060163 C151.649075,80.5704278 151.669717,78.7302576 151.564399,78.0957162 C153.054025,79.5771506 154.044441,81.913017 153.830223,84.1146454" id="path20" fill="#FFFFFF"></path>
                        <path d="M164.873508,126.044432 C164.873508,124.877545 165.578722,122.853505 166.360817,122.152996 C166.282882,123.008266 166.312581,123.84741 166.439806,124.098923 C166.674456,124.56572 169.336489,125.266857 169.728063,128.536106 C168.632329,127.601676 166.518795,125.966946 164.873508,126.044432" id="path22" fill="#FFFFFF"></path>
                        <path d="M68.2654011,154.960464 C70.4888871,157.792655 75.7682972,162.021675 81.118692,161.607233 C80.8404403,161.883876 79.7286973,162.420619 78.9649269,162.628363 C79.3415462,162.926158 79.9153219,163.294946 80.547444,163.441749 C77.8258011,164.30016 75.8038949,165.170298 74.3096348,166.082111 C74.1013146,165.598352 73.6145321,164.078594 73.4759329,163.594835 C72.0301193,166.444198 68.0202195,167.716841 65.1384923,167.048583 C62.3058436,166.391843 59.2339111,163.595463 59.6494982,159.105297 C60.3443903,160.141086 61.1780922,160.694373 61.8030527,160.901489 C61.3876762,159.451258 61.6646641,157.792236 61.9429158,156.963981 C63.0546588,159.03577 64.8602406,160.624846 66.4585555,161.108814 C65.3468125,159.243095 64.7216414,155.237107 66.1803038,153.717558 C66.5272232,155.582021 67.64023,156.480222 68.1255381,156.756865 C67.8485502,155.858665 68.0558172,155.582021 68.2654011,154.960464" id="path24" fill="#FFFFFF"></path>
                        <path d="M59.2602408,154.517751 C59.1582924,153.512537 58.720799,150.196586 61.5844113,147.951189 C62.7637688,147.985325 64.5499721,148.487304 66.0659278,149.057134 C64.17904,149.626756 61.752921,151.703779 61.752921,153.043437 C61.5170074,152.206387 61.3154276,151.80451 61.2480237,151.402215 C60.3376499,152.139163 59.4961544,153.378089 59.2602408,154.517751" id="path26" fill="#FFFFFF"></path>
                        <path d="M83.9191132,156.438129 C87.4308562,159.63806 94.7448107,161.185462 99.370403,157.840612 C100.816427,158.818392 101.93154,159.405814 103.177249,159.993236 C101.340703,162.472346 96.822957,164.543087 92.8749845,164.625179 C93.5311193,163.710853 94.056659,162.92888 94.2536048,162.341458 C91.3659798,163.581222 87.6265381,163.059349 85.7236419,162.145651 C86.7736682,161.42797 87.3645055,160.645369 87.6918356,160.057947 C80.6057905,161.493518 72.6666648,158.231598 69.9106881,149.947168 C70.8301193,150.272815 71.7482868,150.72935 72.2725627,150.926204 C72.3378602,147.467849 67.1547113,141.987966 64.9242743,140.944637 C65.1865176,140.814378 67.0241163,140.487684 67.4833053,140.357215 C64.9895718,139.118289 60.9215361,135.465173 60.9868337,131.224426 C62.9550274,131.877187 63.7428104,132.203253 65.645496,132.39906 C63.2183239,130.246017 60.3970496,125.680041 61.5776709,120.787371 C62.8897299,122.026507 63.2836214,122.483042 63.9397562,122.613301 C62.8897299,120.460676 62.1032107,116.743059 62.4958384,114.459338 C63.1530263,115.372408 63.6122154,115.89491 64.0714044,116.351235 C63.4805671,114.133272 64.2017888,111.98002 64.7926261,110.479737 C65.5138478,112.046196 66.3669283,113.023976 67.221062,113.676109 C68.2710883,112.763249 69.1892558,110.154299 68.6639267,107.67498 C69.7790399,107.870578 70.5668229,108.131306 71.8135843,109.24123 C72.0758276,107.479173 71.6166385,103.826267 70.1729314,102.978117 C71.8788818,103.108376 75.7499718,104.543948 76.7999981,106.957718 C76.7347006,105.847794 76.340809,103.499991 75.88162,102.586503 C76.7347006,103.108376 77.5222729,103.434652 77.981462,103.69517 C76.5375442,101.411868 75.6193767,97.0416995 76.7999981,93.9106668 C77.1285921,95.4109489 78.0467595,96.5198258 78.8996294,97.4982342 C79.2935209,95.9977427 80.3435472,94.9539953 81.1313303,94.3016532 C81.6556062,96.5851647 83.2299084,98.5419816 84.8054744,99.7168257 C83.5585024,97.2375068 82.8372807,94.1058459 83.4932049,89.5400794 C84.2146372,90.9754414 84.7389131,91.0403615 85.9858852,91.8229626 C85.0677177,89.0179963 85.5919936,86.5393057 86.6430731,84.972847 C87.1675597,86.6042258 87.6918356,87.4521658 88.6765644,88.169428 C88.6765644,86.082771 89.0051584,81.8424426 92.1537628,79.2977848 C92.0884653,80.3421604 92.4823568,81.2546017 92.6129519,81.5817151 C94.3189023,79.0370574 96.2217985,76.427689 101.668244,75.7104268 C100.22559,77.3403397 95.7626095,82.8863993 96.3534468,86.4733385 C95.6322251,85.8869636 95.3023673,84.972847 95.1066854,84.0599869 C93.2701398,86.2126111 90.9722989,91.561607 92.6793026,96.9112311 C91.8251688,96.4549057 91.2355954,95.9328226 90.9080546,94.8241552 C90.1845159,97.3677658 90.3172173,101.411868 92.1537628,103.434652 C91.6292763,103.434652 90.4488656,103.369732 90.1202716,103.303765 C90.7764064,104.217672 91.1690341,104.870014 91.497628,105.913971 C90.3172173,105.522147 89.3979967,105.587067 88.2826729,105.717954 C90.9722989,107.67498 93.4007349,109.762475 92.2843579,116.612172 C94.3831467,114.708129 95.0860429,110.688529 94.5811456,108.262193 C95.1719829,108.849196 95.8932046,109.566877 96.2217985,110.28393 C97.0748791,106.631024 95.6322251,100.825493 94.056659,98.4770615 C94.7127938,98.6728689 95.3689286,98.802709 95.8932046,99.1943237 C94.5811456,96.5851647 94.8444421,92.4103847 97.7973646,89.6047901 C98.256343,90.0613248 98.7808295,91.2361689 98.9114246,91.8883016 C99.2400186,89.1482553 101.077407,84.6474089 103.89847,82.8204322 C104.424221,83.8641795 104.883199,84.7776679 105.409792,85.2995416 C106.064874,82.2989773 107.18104,80.7986952 109.148181,79.4280438 C110.920482,80.2761933 112.757027,81.9073626 113.872351,83.9290996 C114.200945,82.7555121 114.200945,82.10317 114.003999,80.9283259 C115.446653,81.3861172 117.349549,82.9506912 118.137332,84.6474089 C118.268981,83.7339205 118.465926,83.7988406 118.465926,82.6246248 C120.565558,83.7339205 122.337016,85.7560764 123.256448,88.1045079 C123.649075,87.7782322 123.911319,87.3868269 124.174615,86.8649532 C125.355236,87.7128932 126.994836,91.301089 126.994836,94.5634277 C127.454868,94.1058459 127.914057,93.9760057 128.307948,93.1929858 C129.816953,98.7377889 126.47035,106.888819 126.47035,109.566877 C126.47035,111.915309 127.666769,114.057672 128.96303,115.503295 C131.129223,117.916647 131.785147,121.185268 131.785147,123.265643 C132.179038,122.744188 132.834962,121.830699 132.966821,121.374793 C134.409475,123.135803 135.001576,125.8103 134.803367,128.875994 C135.263609,128.615267 135.788096,127.767746 136.050128,127.310583 C137.295836,128.549718 138.674457,131.812476 138.215268,136.704309 L139.133646,136.507873 C140.119217,138.987192 141.692466,148.837872 135.065399,153.991898 C136.772824,156.666396 136.441703,160.671546 134.081935,162.211199 C131.982303,163.581222 130.079196,162.92888 129.685305,161.624406 C129.291413,160.319721 129.751866,159.210007 130.670034,158.818392 C131.681092,158.388244 133.293098,158.296937 133.950286,158.558293 C133.556395,157.384077 130.866979,156.40504 128.570192,157.384077 C125.790202,158.568554 124.865084,160.371029 125.15808,162.9938 C125.355236,164.755438 127.191571,167.038321 128.897522,167.169209 C126.5367,169.191574 122.467611,170.169982 118.859818,169.908627 C122.403367,168.147198 122.861503,164.68989 121.484147,162.01602 C120.273825,159.666332 117.583146,158.672845 114.562609,158.835355 C112.067822,158.969174 110.525537,160.710917 110.786727,162.257272 C111.258344,161.73477 113.120166,161.226927 114.200945,161.42797 C115.250761,161.624406 116.628117,162.667734 116.432435,163.90666 C116.218428,165.252391 114.528275,166.102635 112.035595,165.799186 C109.736701,165.51982 107.26361,163.34772 107.738807,159.729577 C105.85866,159.490001 92.3094237,152.885953 95.3689286,138.922481 C94.9750371,138.987192 93.8919408,139.705501 93.4660324,139.966229 C93.1384916,138.530867 93.7933626,134.877751 94.7780914,133.410557 C94.2536048,133.31213 93.8276964,133.345009 93.2037891,133.377469 C93.1052109,132.072994 92.9415459,129.952411 93.2037891,127.636858 C89.8569751,134.81304 89.8902558,145.54412 93.7933626,150.468623 C92.0884653,150.045176 90.3814617,150.012088 88.4132679,150.66443 C88.8069488,150.795317 89.5947318,151.186932 89.8569751,151.316772 C89.1024728,152.328059 88.7751426,154.285504 89.1357534,155.49218 C88.2173754,155.687988 86.6430731,155.296373 86.3144791,154.773871 C86.5103717,155.687988 87.0243264,156.710165 87.2979441,156.926495 C86.4233786,157.090471 84.6519199,156.883145 83.9191132,156.438129" id="path28" fill="#FFFFFF"></path>
                        <path d="M91.5652426,157.804173 C92.4846738,157.543445 94.5158481,156.307241 95.2714036,155.361293 C95.7295395,155.556891 96.5171119,155.980966 97.2109507,156.287765 C97.3221671,155.952066 97.3805136,155.593539 97.3805136,155.221191 C97.3805136,153.30584 95.8188496,151.753831 93.8919408,151.753831 C91.9671383,151.753831 90.4054743,153.30584 90.4054743,155.221191 C90.4054743,156.246929 90.8530783,157.169003 91.5652426,157.804173" id="path30" fill="#FFFFFF"></path>
                        <path d="M142.030328,144.734295 C142.743546,144.429799 143.595362,143.537252 143.652866,143.461023 C144.56303,143.919652 146.35829,144.277132 147.488359,144.067712 C147.586937,143.742064 147.640439,143.394428 147.640439,143.034017 C147.640439,141.177512 146.489938,139.673879 144.749654,139.673879 C143.008106,139.673879 141.597469,141.177512 141.597469,143.034017 C141.597469,143.654527 141.755447,144.235038 142.030328,144.734295" id="path32" fill="#FFFFFF"></path>
                        <path d="M79.3177442,84.0627093 C78.9902034,83.429215 78.4680338,82.0962591 78.3947321,81.5787833 C77.4262224,83.2801082 77.0426521,84.3661584 76.8250639,85.414513 C75.2311724,86.326326 73.7381761,87.2747874 72.3437581,88.2546618 C72.2898349,85.8712571 73.406212,82.0968874 74.1503931,80.8384849 C74.3736685,81.4303048 75.0447585,82.6147821 75.0447585,82.6147821 C76.08657,80.7645598 79.8089501,77.8777104 82.563663,77.211756 C80.999682,79.6540076 79.6897294,83.1004262 79.3177442,84.0627093" id="path34" fill="#FFFFFF"></path>
                        <path d="M70.9594506,89.2611325 C68.1164807,91.4018198 65.7166914,93.675698 63.7289084,96.0249672 C62.9093191,93.7904599 62.1649274,90.6083289 63.1336477,87.0561533 C63.505633,88.6100469 64.0256961,89.1279416 64.3989452,89.4977766 C64.62201,85.7971226 66.4082132,82.6895449 69.1629261,80.9863352 C68.8652958,82.7628418 68.9396507,84.3171542 69.2374917,85.5010033 C69.7583974,84.3161071 70.5025785,84.0953788 71.0247481,83.6507809 C70.5781973,85.5751378 70.5965227,88.0624146 70.9594506,89.2611325" id="path36" fill="#FFFFFF"></path>
                        <path d="M63.0293823,96.8760486 C60.6776183,99.8225826 58.9602934,102.875711 57.8199038,105.921929 C56.3576605,103.856842 54.7949433,98.9723389 55.390204,95.3454006 C55.7623999,96.8992941 56.5076342,98.1583249 57.6240112,99.2682488 C57.1031055,97.3432637 57.252026,94.3096112 57.6240112,92.4587606 C58.1451276,94.8275059 59.1125841,95.3454006 59.5589243,96.011355 C59.4845693,93.124715 59.8567652,91.2742832 60.8254856,89.8684494 C60.8254856,92.9027302 62.1065809,95.8907293 63.0293823,96.8760486" id="path38" fill="#FFFFFF"></path>
                        <path d="M57.0024209,108.458 C56.6932055,109.597453 56.4619259,110.73125 56.3096352,111.85374 C55.2412835,110.815018 53.3063704,106.743691 53.9761966,102.894978 C54.3483925,105.337858 55.7840955,107.581579 57.0024209,108.458" id="path40" fill="#FFFFFF"></path>
                        <path d="M56.0922577,114.297876 C55.7623999,115.995641 56.1562914,117.987221 56.4905726,119.735666 C54.5716679,118.068057 52.1145853,112.442837 52.3378607,109.186571 C53.15745,111.332494 55.1566074,113.858514 56.0922577,114.297876" id="path42" fill="#FFFFFF"></path>
                        <path d="M45.1176397,99.7867718 C46.0850963,88.5359123 51.1469182,79.3580977 62.9093191,71.5863263 C61.0485503,74.4731757 59.4112676,82.022334 59.8567652,84.6865704 C58.8147431,84.243229 58.2194825,83.1326768 57.9218522,82.0962591 C56.6565547,84.0201972 56.4322261,85.8712571 56.5821997,87.9438831 C55.7623999,87.0561533 55.2412835,86.0936608 54.7949433,85.353153 C53.8274868,86.9074654 53.5296458,90.1647781 53.8274868,91.3488366 C53.083095,90.4598504 52.5621893,89.6458363 52.264559,88.5359123 C51.2214837,90.8303137 50.9982083,94.1609232 51.3704042,98.3057563 C50.1038429,97.0473538 48.7654543,95.4195351 48.2434954,94.6796556 C46.8292774,96.2333398 46.0107413,97.4917422 45.1176397,99.7867718" id="path44" fill="#FFFFFF"></path>
                        <path d="M90.1569224,55.968649 C86.2114776,58.9296329 83.0100032,62.1865268 82.1171122,66.1833002 C81.4462328,65.4432113 81.0740369,64.0363303 81.0740369,63.0742566 C78.8412829,64.7762098 77.7238527,68.6265988 77.9471281,70.2544175 C77.2040002,69.4404035 76.3842003,68.0335225 76.2354905,66.8490451 C74.8214831,68.1074476 74.224748,70.3285521 74.3736685,72.2522807 C73.7038423,71.5121917 73.0340161,70.3285521 72.6620308,68.8473271 C70.8747744,69.8091914 69.535122,72.3262058 68.7909409,75.2130552 C67.8978393,72.7701754 67.6745639,68.700524 69.982726,64.7762098 C70.9503932,66.1833002 71.1724048,66.5529258 71.5456538,66.9229703 C71.6200087,64.3322402 72.9596612,61.5944975 74.8214831,59.743647 C74.8214831,61.1507374 75.4167438,63.444301 75.7889397,63.9621957 C76.7563962,60.8535709 77.9471281,59.5955873 79.7343845,58.4856633 C79.7343845,59.6695124 79.883305,60.7065584 80.3298558,61.223406 C81.7438631,58.9296329 85.1684023,56.0427835 90.1569224,55.968649" id="path46" fill="#FFFFFF"></path>
                        <path d="M139.96482,150.751548 C140.228117,149.272837 141.802419,147.185551 142.065926,146.490069 C144.690044,146.837286 149.676458,146.490069 151.163767,144.401946 L149.676458,143.706882 L150.726273,142.488269 L149.238964,142.749625 C148.888464,141.270913 148.364188,139.096509 145.914056,139.096509 L146.264346,138.052762 C144.600734,138.139252 143.638964,137.617797 142.503209,138.661754 C141.977669,135.79082 140.335752,132.040534 138.564504,129.615245 C141.277932,130.050629 144.51374,131.61604 144.951023,133.094752 L145.21453,130.74674 C146.788833,131.790068 149.150707,135.355856 149.238964,136.57405 C149.325957,133.181871 148.888464,129.789483 147.314372,127.006296 C146.614636,127.266814 146.264346,127.963134 145.827063,128.485008 C145.476563,127.615288 144.690044,124.831892 143.989465,123.875263 C143.376721,125.006129 143.026431,125.614074 142.503209,126.223066 C141.890676,124.744773 140.665399,122.309433 139.440544,120.569993 C139.178301,121.61395 138.916058,122.221895 138.739754,123.004915 C137.253498,117.003158 133.578301,112.046196 130.167243,110.13252 C134.27888,110.479737 140.752392,113.262924 142.239912,119.177772 C142.590202,118.221143 142.764188,117.525032 142.676142,116.743059 C144.777248,118.308052 146.614636,121.004958 147.838648,123.875263 C148.451181,123.265643 148.713424,122.830678 149.063714,122.048286 C150.726273,123.788145 153.350602,128.22428 153.612634,130.484965 C155.275404,127.876016 155.712687,123.004915 155.100154,120.657112 C154.662661,121.091448 153.963135,121.61395 153.612634,121.960958 C153.350602,119.874092 153.000312,115.87334 151.601049,114.046153 C151.251813,114.481118 150.63928,115.177648 150.11374,115.785593 C149.676458,113.611398 147.926905,110.828002 146.614636,109.262172 C146.351339,110.13252 146.089096,110.393247 145.301523,111.437204 C144.951023,109.784255 143.727011,106.91395 142.852445,105.783084 C142.590202,107.001068 142.590202,106.652594 141.715426,107.958325 C141.189886,103.434652 137.078459,97.5202233 133.317111,96.5635945 C138.739754,96.3893574 144.86403,98.9995635 147.663609,105.348119 L147.663609,103.434652 C149.500997,104.304372 152.475826,107.696551 152.649812,108.56627 C152.475826,107.696551 153.000312,106.479194 152.825062,106.04423 C155.450444,108.740298 157.024746,112.741679 157.198732,115.438375 C157.637279,115.002992 158.250022,114.655146 158.512055,114.046153 C159.824114,117.69906 160.08741,123.962382 157.812529,126.223066 C158.425062,126.310185 159.386831,126.223066 160.000417,125.962339 C159.91216,126.483794 159.211581,127.52817 158.774298,127.876016 L160.436647,128.485008 C155.97472,130.050629 154.836858,134.1385 155.97472,138.052762 L158.774298,136.66054 C156.674246,142.923653 150.726273,148.490235 146.614636,149.099228 C147.226115,149.620683 147.576616,149.881201 148.626431,150.229465 C145.476563,151.360541 142.152919,151.447659 139.96482,150.751548" id="path48" fill="#FFFFFF"></path>
                        <path d="M143.647179,95.4775444 C144.696995,95.4775444 146.876879,95.5196377 147.576616,95.6938748 C147.401365,93.8668981 147.401365,91.8667313 146.351339,89.9532643 C148.443177,91.6583588 150.703524,97.4617952 150.965768,100.3321 C148.995046,98.5522432 146.585146,96.8953152 143.647179,95.4775444" id="path50" fill="#FFFFFF"></path>
                        <path d="M149.682145,79.0638631 C148.943651,78.3078583 148.159238,77.8184446 147.35671,77.121915 C147.463293,75.5351426 147.298153,72.7301762 147.149233,71.4736585 C148.958395,73.2711071 149.575562,77.1596105 149.682145,79.0638631" id="path52" fill="#FFFFFF"></path>
                        <path d="M144.676352,74.766782 C141.866452,72.7270349 138.785463,71.0171238 135.486884,69.8140081 C134.821692,67.5217009 133.413372,62.559922 132.242019,61.1848728 C135.009581,62.6656789 136.452024,65.3977672 137.94165,67.6197093 C137.94165,66.7728164 138.259923,65.6094904 138.15334,64.9741113 C139.963556,65.9269706 141.453182,68.149541 141.98462,69.7365228 C142.411581,69.20711 142.944072,68.2555073 142.83749,67.9367706 C143.794836,70.0540029 144.56977,73.0740432 144.676352,74.766782" id="path54" fill="#FFFFFF"></path>
                        <path d="M132.481513,68.9055458 C129.417374,68.0879716 126.367137,67.6919591 123.09847,67.7535285 C124.587885,67.2236968 127.086253,66.2446601 128.14997,65.9269706 C127.404526,64.2331847 126.873509,62.3287227 125.808528,61.2711537 C128.895205,62.6462029 131.416532,66.260576 132.481513,68.9055458" id="path56" fill="#FFFFFF"></path>
                        <path d="M117.219165,76.6450665 L117.219165,78.6450239 C114.157554,75.6011097 108.82085,73.8629269 105.146496,73.7753895 C110.219692,71.9482034 116.869929,72.0359502 121.943125,74.9921175 C121.680882,74.1226072 121.505632,72.817923 120.981356,71.9482034 C125.092993,73.0786505 129.37967,76.1238211 131.304262,79.0810355 C131.566505,78.3842964 132.092045,77.6021142 132.179038,76.6450665 C133.578301,78.1233596 134.54007,81.2546017 134.628117,83.6034521 C134.978406,83.0809502 135.67709,82.0378311 135.853393,81.4294671 C136.552919,84.7345275 135.590939,91.083502 133.491308,94.1274161 C133.403051,91.8667313 132.616321,85.604666 129.816953,82.4732144 C129.903946,83.6905707 129.55492,85.082164 129.378406,85.777856 C129.20442,84.5609186 126.667295,80.6460283 125.44223,79.5157906 C125.704262,81.3417203 125.44223,82.1247402 125.266979,83.168697 C123.605473,80.5589097 120.631066,77.8628416 117.219165,76.6450665" id="path58" fill="#FFFFFF"></path>
                        <path d="M158.374509,143.950018 C159.078669,143.2493 162.524061,138.266789 163.228011,136.398137 C164.55987,135.853856 167.222745,136.320652 168.474351,137.95601 C168.7882,136.788077 168.161765,133.985414 167.222745,133.518618 L168.474351,133.596103 C167.692466,132.350684 166.831381,131.416045 164.873508,131.182751 C165.029169,130.638051 165.108158,129.860057 165.187147,129.236196 C166.595467,129.625507 169.805999,130.79344 169.805999,133.596103 C170.275299,133.051402 170.666873,132.27278 170.666873,131.649548 C171.606947,132.896013 172.859606,135.153347 171.606947,137.254664 L173.017584,136.165263 C173.877405,137.799992 172.233171,141.146727 169.100575,142.315289 C165.962292,143.485525 163.015267,143.2493 161.193466,143.2493 C160.018743,143.2493 158.766294,143.715887 158.374509,143.950018" id="path60" fill="#FFFFFF"></path>
                        <path d="M92.8018934,155.089048 L93.562083,154.225192 L94.4676122,154.985594 C94.599471,154.80675 94.676143,154.586022 94.676143,154.347074 C94.676143,153.750647 94.1908349,153.267935 93.5907296,153.267935 C92.990835,153.267935 92.5053163,153.750647 92.5053163,154.347074 C92.5053163,154.634398 92.6186391,154.895544 92.8018934,155.089048" id="path62" fill="#313E75"></path>
                        <path d="M143.834646,142.711929 L144.593993,141.847864 L145.500576,142.608267 C145.631171,142.429632 145.709106,142.208903 145.709106,141.970793 C145.709106,141.374366 145.224852,140.891235 144.624746,140.891235 C144.024852,140.891235 143.53828,141.374366 143.53828,141.970793 C143.53828,142.257698 143.651603,142.518426 143.834646,142.711929" id="path64" fill="#313E75"></path>
                        <path d="M84.6234839,149.702566 C82.8749848,153.032756 80.6022097,154.553562 76.3464962,153.89389 L77.5555536,153.020819 C77.5555536,153.020819 76.7724046,153.020819 76.4242214,152.674858 C77.1203772,152.06796 77.4799349,151.564934 77.6436,150.683278 C77.207581,150.509669 76.660135,150.517627 76.1632419,150.509669 C76.9463909,149.644347 77.5555536,148.086056 77.1203772,146.614255 C76.6854115,145.142872 73.9888344,142.631722 72.5074231,140.467161 C70.1396507,137.01048 68.9305933,132.625024 69.0232737,129.906129 C69.5454432,130.944851 70.2415991,131.550492 70.7648218,131.9842 C70.2415991,129.55954 70.9697718,125.75983 72.0139003,124.474413 C72.4490767,125.426853 72.8543426,126.096786 73.2023152,126.529238 C72.6390714,123.503543 73.0683499,120.12728 74.769877,117.786178 C74.9815674,118.535901 75.3320676,119.468237 75.8152693,120.123301 C75.7282761,116.920647 76.660135,113.606791 78.0787764,111.639713 C78.3764067,112.403466 78.888255,113.2357 79.0371755,113.457056 C79.2741423,110.889572 81.3876757,106.964629 84.8705613,106.01177 C81.8514987,108.871814 81.4999453,113.800923 82.5200611,116.313749 C81.6488658,116.227259 81.3006825,115.881298 81.0397031,115.794598 C80.7304877,117.022844 80.5634524,118.031409 80.6915198,119.688965 C80.1339632,119.15683 79.7436526,118.807937 79.2741423,117.992876 C78.0558169,120.849987 78.6112671,127.229956 79.9073176,129.64603 C78.8619254,129.47305 78.2997347,129.170229 77.3826205,128.172973 C77.4399138,130.063194 78.5333314,132.858527 79.6461276,133.888662 C78.4153746,133.867092 76.9326995,132.973498 75.9172177,132.042838 C75.9172177,133.788978 76.4254852,136.428294 77.1203772,137.524605 C75.8152693,137.264506 75.2301192,136.523999 74.7068965,136.350809 C74.5122678,139.727072 76.3601877,146.559596 84.6234839,149.702566" id="path66" fill="#313E75"></path>
                        <path d="M87.8487603,145.824114 C85.3927309,144.71419 82.3403876,139.754506 81.7438631,135.683807 C82.4147425,136.127777 83.3821991,136.497821 83.9776704,136.572375 C82.8612933,135.017853 82.4880443,132.649107 82.4147425,131.465049 C83.3078442,131.982944 83.8287499,132.131003 84.2009458,132.279063 C83.6054745,131.021079 82.4880443,127.172366 83.3078442,124.285516 C84.1263802,126.653843 85.0951006,127.09844 85.9882022,127.912245 C86.2114776,125.617425 85.3927309,121.990696 84.2753007,120.880772 C85.9882022,121.102757 87.1045792,121.546726 87.4767751,122.509219 C87.1045792,120.880772 86.7323833,118.363967 85.8392817,117.624088 C87.4767751,117.919998 87.6254849,117.919998 88.4452848,118.659877 C88.369666,117.032058 88.0720357,114.293897 87.3278546,113.331404 C89.115111,114.367194 91.8687707,117.772566 91.497628,119.91828 L93.3583968,119.252325 C87.4022095,127.468276 84.8705613,136.572375 87.8487603,145.824114" id="path68" fill="#313E75"></path>
                        <path d="M122.713636,116.709971 C122.60263,116.291551 122.570613,115.595021 122.730908,115.307488 C127.84897,106.109778 124.633804,93.9106668 122.07372,90.1922121 C119.121851,90.5176502 111.31332,89.4091921 109.214742,88.6263816 C107.376933,90.9094743 100.22559,95.606128 98.1246948,96.3244373 C98.9777753,99.9120047 100.056238,109.28458 99.5686126,113.742286 C99.1734572,117.329644 97.1401766,120.787371 95.0403346,122.939995 C94.8467591,123.138734 94.7127938,123.33161 94.7780914,123.592337 C95.8932046,124.440277 102.915005,131.812476 102.128486,143.94583 C101.340703,143.488248 100.816427,143.031923 100.092888,142.184401 C99.9612403,143.619135 100.487623,145.707049 100.946812,146.619909 C100.684779,146.424102 99.5020512,145.184547 98.9114246,144.271477 C99.5686126,151.186932 104.817902,156.40504 109.935964,156.666396 C109.013162,155.582021 108.055816,154.020379 107.376933,152.556327 C108.032857,153.208669 109.935964,153.535363 111.379671,153.600284 C110.394942,153.143749 108.885937,150.926204 108.557343,149.295035 C109.082883,149.881201 110.264558,150.468623 111.444968,150.468623 C110.394942,149.75157 109.60737,148.185111 109.60737,146.881265 C115.905632,148.511806 126.339755,146.293214 129.685305,143.358617 C129.55492,144.663092 129.685305,146.424102 127.980618,147.403138 C129.424325,147.598317 130.276142,147.533397 131.325958,147.011524 C130.800418,148.316627 130.079196,149.424875 129.48857,150.077008 C130.670034,150.207895 132.507843,149.947168 133.42601,149.099228 C133.032119,150.338782 132.441282,151.512579 131.523114,151.969114 C134.54007,151.186932 137.82264,148.576726 137.624641,141.662528 C136.968296,142.249112 136.574615,142.37958 136.050128,142.510468 C136.510581,140.618571 136.115636,138.791594 134.869718,136.639389 C134.606421,137.357279 133.754604,138.270139 133.556395,138.661754 C133.097416,128.615267 126.994836,121.960958 123.518691,117.981986 C123.160186,117.57278 122.824641,117.127135 122.713636,116.709971" id="path70" fill="#313E75"></path>
                        <path d="M104.709213,122.135405 C108.032857,122.657279 113.413162,118.786785 113.150919,114.003013 C113.938702,115.242568 114.003999,118.56878 113.806843,119.743624 C115.578301,119.808544 118.072035,119.547816 118.859818,118.961022 C119.750392,118.296743 119.187148,115.829362 119.450445,114.655146 C119.711635,113.480302 122.403367,107.805868 121.418638,104.021865 C120.898786,102.024211 118.592941,98.5088933 115.053815,98.9335963 C111.248022,99.3901311 108.952499,100.760573 108.426748,102.586503 C107.891098,104.451594 108.032857,106.957718 107.048339,108.327113 C105.811688,110.04959 102.258871,112.502103 101.864979,114.19882 C101.472351,115.89491 102.71806,119.352009 102.783357,120.004351 C102.849708,120.657112 102.325432,121.569553 101.93154,121.830699 C102.587675,121.830699 104.24202,122.062318 104.709213,122.135405" id="path72" fill="#E62449"></path>
                        <path d="M107.272667,98.4180052 C107.103104,98.9641716 106.638439,101.235327 106.723325,102.202218 C106.088886,101.697516 105.580619,101.318886 104.904895,100.51974 C104.523641,101.907983 104.438965,107.247346 104.693204,108.845217 C102.663083,106.364642 100.778512,100.806645 100.537965,99.0810277 C100.328591,97.5652485 100.844863,96.7183556 101.52164,96.2982598 C102.197154,95.8777452 108.414321,94.406363 111.04539,92.1682956 C113.616848,92.8082819 118.099418,92.934562 120.382514,92.6817925 C121.775879,92.5280785 122.413688,93.6578973 122.792835,94.961325 C122.977143,95.5879085 124.147022,101.613749 124.061292,104.262069 C123.428117,102.70671 121.652446,99.0064743 120.763767,98.0389557 C120.680144,98.5019825 120.043599,99.9739929 120.043599,99.9739929 L117.675826,96.6938535 L116.661398,97.74514 L115.519744,96.652179 L114.546601,98.0389557 L112.686042,96.9880881 L111.670561,98.5019825 L109.852341,97.7872333 L109.217901,99.2592438 L107.272667,98.4180052" id="path74" fill="#FFFFFF"></path>
                        <path d="M109.935964,138.530867 C107.368928,136.157305 105.047917,132.827114 104.177986,127.713715 C101.17114,133.613275 103.046864,141.140445 107.902472,145.054078 C108.885937,144.141847 111.248022,142.902082 112.429486,142.706275 C113.610108,142.510468 117.612846,144.337026 120.762714,143.684055 C124.594836,142.890564 125.727222,141.005578 127.191571,140.422764 C128.1763,140.031149 129.55492,139.901309 131.195573,139.835342 C132.113951,136.117515 129.685305,128.810655 125.355236,125.157539 C126.667295,128.420088 126.864241,132.659788 126.601998,135.073768 C125.617269,134.094731 124.436858,133.246582 123.714373,132.856223 C123.583988,133.964891 123.649075,136.57405 123.649075,136.57405 L122.009476,135.660561 L121.155342,137.357279 L119.64739,136.443163 L118.72817,137.813605 L117.547548,136.899697 L116.628117,138.595787 L115.18441,137.161472 L113.479513,138.595787 C112.494784,137.48691 111.511319,136.247984 110.920482,135.204655 C110.328591,136.182435 110.132909,137.096552 109.935964,138.530867" id="path76" fill="#FFFFFF"></path>
                        <path d="M118.266664,153.459135 C119.455079,151.9888 120.486569,149.92099 120.801682,147.866374 C123.780724,152.459575 130.295731,155.050514 133.919533,155.292813 C132.168717,155.657831 128.951445,155.292813 127.654341,155.096587 C127.023483,155.252395 125.684884,156.035834 125.055078,156.583885 C124.819375,155.722542 124.582198,154.547907 124.582198,153.84321 C123.794626,153.451596 122.69194,153.059981 122.062135,152.589834 C122.762925,154.969678 123.170508,158.167306 123.006632,161.595924 C122.396627,158.734205 118.772825,155.576367 114.184726,157.20984 C115.681303,156.355617 116.26877,155.539928 116.899628,154.928632 C117.958502,154.928632 119.488359,155.096587 120.591045,155.644638 C119.99431,154.362361 119.133436,153.772008 118.266664,153.459135" id="path78" fill="#313E75"></path>
                        <path d="M199.623165,61.8881038 L135.645916,61.8881038 C135.645916,61.8881038 135.645916,59.8709741 135.645916,59.7583063 C133.171771,61.5934504 130.304789,62.5653669 127.179144,62.5653669 C123.892993,62.5653669 120.905947,61.5021435 118.357027,59.4952753 C118.357027,59.716213 118.357027,61.8881038 118.357027,61.8881038 L3.04716159,61.8881038 L3.04716159,58.3501688 L0.0245194939,58.3501688 L0.0245194939,43.9705803 C0.0245194939,43.9705803 2.21704049,43.9705803 2.75983142,43.9705803 L2.75983142,15.0432812 C2.10612528,14.9678482 0.0209814371,14.7291518 0.0209814371,14.7291518 L0.0245194939,0 L1.84842333,0.237724772 C36.8063182,4.78670417 78.6993135,5.53227989 87.4868856,5.64034041 C87.800735,4.28237985 88.57925,0.916455842 88.57925,0.916455842 L97.6541313,0.916455842 C97.6541313,0.916455842 97.986938,2.9044616 98.246443,4.4543343 L100.678881,4.4543343 C100.678881,4.4543343 100.763136,4.95784188 100.879829,5.65407834 C132.291097,5.39902619 172.315109,2.43703702 188.931433,0.372128187 L190.746072,0.146839171 L190.746072,4.05643703 C191.159974,4.00743284 191.565451,3.95844959 191.953866,3.9100946 L193.769979,3.68471721 L193.769979,18.3863931 C193.769979,18.3863931 191.488147,18.6438326 190.648758,18.738239 L190.648758,32.7408722 L196.599258,32.7670497 L196.599258,36.2913724 L199.623165,36.3049847 L199.623165,61.8881038" id="path80" fill="#313E75"></path>
                        <path d="M100.10658,10.82201 C133.123746,10.7891102 176.002523,7.50957802 192.154392,5.50275172 L192.154392,16.9533347 C192.154392,16.9533347 189.273718,17.2788356 189.034434,17.305013 C189.034434,20.1872343 189.034434,30.8707551 189.034434,40.7195502 C190.881301,40.0309785 192.278036,38.9652421 192.717636,37.8794014 L198.008842,37.9032752 L198.008842,60.2831119 L137.260449,60.2831119 L137.260449,56.032522 C134.62917,59.204182 131.202314,60.9616315 127.179144,60.9616315 C122.972509,60.9616315 119.416111,59.047955 116.742704,55.6021646 L116.742704,60.2831119 L4.66272763,60.2831119 L4.66272763,49.1137167 C4.66272763,49.1137167 7.38209566,49.1137167 7.39806195,49.1137167 C7.39806195,44.7607205 7.39806195,21.0638438 7.39806195,17.1525346 C7.33626101,17.1445976 4.65927319,16.8370858 4.65927319,16.8370858 L4.66272763,5.3671944 C43.5022633,10.4213274 91.0913089,10.7903457 91.7918882,10.7982827 C91.8847792,10.39982 92.8888866,6.05934718 92.8888866,6.05934718 L99.3097395,6.05934718 L100.10658,10.82201" id="path82" fill="#FFFFFF"></path>
                        <path d="M19.2804629,31.8324099 C22.3443912,31.9121988 24.3136381,32.0648657 24.3136381,29.2245075 C24.3136381,26.1636303 24.3275402,23.3370938 24.3275402,21.1092879 C24.3275402,18.1723872 24.7052127,16.5319615 23.0635065,16.1952566 C22.2997361,16.040307 21.2166398,15.8934829 19.7339016,15.7338842 C19.5828326,15.7192249 19.4316162,15.7033718 19.2804629,15.6886287 L19.2804629,31.8324099 Z M19.2804629,52.1142809 C20.4872665,52.1142809 21.3942069,52.1119773 22.0501311,52.1119773 C23.8477087,52.1119773 23.9313317,51.3082248 23.9313317,49.3275341 C23.9313317,48.1928986 23.902685,43.5155115 23.902685,42.1107247 L19.2804629,37.2532367 L19.2804629,52.1142809 Z M26.0254864,36.0853035 C27.533438,37.0779525 31.0723531,39.6234479 31.0723531,42.3586775 C31.0723531,45.7215377 31.0953125,49.8956895 31.0953125,51.9094685 C31.0953125,57.5669395 26.6116897,57.5545837 20.7025166,57.5545837 L7.4060451,57.5545838 L7.4060451,51.8409883 L10.1425169,51.8409883 L10.1425169,14.7209634 C9.22763537,14.6185573 8.31753534,14.5135961 7.40949955,14.4079021 L7.40949955,13.2866066 L7.4060451,13.2855386 L7.4060451,8.44067858 L7.40949955,8.44067858 L7.40949955,8.46013366 C14.2174404,9.26600128 21.2509737,9.98661418 28.4768819,10.6125904 C30.6866764,11.1134802 31.6254863,12.1961587 31.6254863,14.0300463 C31.6254863,17.600902 31.6265395,26.7669683 31.6265395,29.8871111 C31.6265395,34.0761317 29.9469187,35.8679259 26.0254864,36.0853035 Z" id="path84" fill="#E62449"></path>
                        <path d="M55.9500776,46.8869579 L55.9500776,57.5545837 L32.4840434,57.5545837 L32.4840434,51.8409883 L35.8218001,51.8409883 L35.8218001,17.1319905 C34.7064762,17.0478248 33.5924162,16.9613554 32.4840434,16.8725196 L32.4840434,10.9484785 C40.1084771,11.5677323 47.941231,12.0822763 55.9500776,12.4863933 L55.9500776,14.3747719 L55.9500776,30.3095105 C55.2541324,27.9474666 52.6731951,25.9904403 49.2040009,25.0524499 L49.1113205,24.9785247 L49.0917313,18.0189245 C47.7099514,17.9390728 46.3325949,17.8559751 44.9596619,17.7671184 L44.9596619,32.4870557 L50.0490772,32.4870557 L50.0490772,38.198138 L44.9596619,38.198138 L44.9596619,51.8409883 L49.1113205,51.8409883 L49.1113205,42.826521 C50.3410203,44.7127634 52.8368602,46.2006898 55.9500776,46.8869579" id="path86" fill="#E62449"></path>
                        <path d="M78.8229575,19.2184172 L78.8229575,31.5593268 L78.8229575,31.5582797 C78.3180602,29.0289095 75.672036,26.9104207 72.0379129,25.9131645 L71.9842004,25.867511 L71.9842004,19.0328924 C70.8358065,18.9964953 69.6897297,18.9613128 68.5459699,18.9214812 L68.5459699,51.8409883 L72.7593452,51.8409883 L72.7593452,57.5545837 L56.8385452,57.5545837 L56.8385452,51.8409883 L59.4078974,51.8409883 L59.4078974,18.5524419 C58.5527105,18.5139297 57.6928896,18.4775116 56.8408622,18.4353973 L56.8408622,17.6134253 L56.8385452,17.6134253 L56.8385452,14.2097702 L56.8408622,14.2097702 L56.8408622,12.5306646 C64.0358067,12.8847932 71.3706143,13.1511331 78.8265383,13.3230875 L78.8265383,19.2184172 L78.8229575,19.2184172" id="path88" fill="#E62449"></path>
                        <path d="M113.997048,51.8409883 L113.997048,57.5545837 L99.8868853,57.5545837 L97.2591866,40.9017453 L97.1504978,40.9017453 L94.5238523,57.5545837 L79.5867279,57.5545837 L79.5867279,51.8409883 L82.2121096,51.8409883 L82.2121096,19.2844472 C81.3373334,19.2684895 80.4602402,19.253851 79.5877811,19.2356106 L79.5877811,17.9583813 L79.5867279,17.9583813 L79.5867279,14.3431076 L79.5877811,14.3431076 L79.5877811,13.3402809 C82.9025782,13.4129076 86.2411774,13.4664981 89.6006297,13.502979 L89.6006297,19.3972407 C88.9238524,19.3891571 88.250656,19.3780159 87.5751426,19.3687805 L87.5751426,40.499869 L87.7377545,40.499869 L95.0723515,8.78687014 L96.9843051,8.78687014 L102.291098,40.499869 L102.343757,40.499869 L102.343757,19.4325069 C101.66698,19.4347896 100.996101,19.441512 100.317217,19.4427266 L100.317217,13.5497005 C104.915216,13.5427477 109.476775,13.5006963 113.995995,13.4231482 L113.995995,15.2468161 L113.997048,15.2468161 L113.997048,18.7734006 L113.995995,18.7734006 L113.995995,19.3164256 C113.160187,19.3323834 112.319744,19.3390848 111.480566,19.3495558 L111.480566,51.8409883 L113.997048,51.8409883" id="path90" fill="#E62449"></path>
                        <path d="M127.179144,51.9379496 C124.71511,51.9379496 124.058975,48.4967665 124.058975,35.3477276 C124.058975,22.1965945 124.71511,18.7564795 127.179144,18.7564795 C129.64065,18.7564795 130.296785,22.1965945 130.296785,35.3477276 C130.296785,48.4967665 129.64065,51.9379496 127.179144,51.9379496 Z M127.179144,58.2328939 C135.166295,58.2328939 140.309423,49.2548655 140.309423,35.3477276 C140.309423,21.4395426 135.166295,12.4623519 127.179144,12.4623519 C119.189465,12.4623519 114.046337,21.4395426 114.046337,35.3477276 C114.046337,49.2548655 119.189465,58.2328939 127.179144,58.2328939 Z" id="path92" fill="#E62449"></path>
                        <path d="M156.638859,57.5545837 L156.638859,51.8409883 L158.883198,51.8409883 L158.883198,44.3894195 C158.883198,40.8539976 159.101839,39.2215717 159.265504,34.7069036 L159.047916,34.7069036 C156.450128,42.5626522 154.315741,49.0967537 151.057184,57.5545837 L140.004841,57.5545837 L140.004841,51.8409883 L142.412635,51.8409883 L142.412635,18.357912 C141.61116,18.3977646 140.812213,18.4411145 140.005894,18.4798152 L140.005894,18.288636 L140.004841,18.288636 L140.004841,14.3942479 L140.005894,14.3942479 L140.005894,12.5762972 C143.44897,12.408929 146.86087,12.2234042 150.237384,12.0160997 L150.237384,17.9275547 C149.546916,17.9686219 148.849707,18.0060871 148.157132,18.0471543 L148.157132,32.5301961 C148.157132,34.2708919 147.939333,39.5403083 147.664662,43.0212812 L147.883303,43.0212812 C151.413372,32.123922 156.397258,19.5520227 159.569875,11.1204329 L164.627273,10.7241691 L164.627273,51.8409883 L166.707737,51.8409883 L166.707737,57.5545837 L156.638859,57.5545837" id="path94" fill="#E62449"></path>
                        <path d="M168.178827,57.5545837 L168.178827,38.939274 C168.979248,40.905096 171.100786,42.5467363 173.924377,43.4845174 L173.924377,51.8409883 L177.153234,51.8409883 L177.153234,15.8195159 C176.115846,15.9196604 175.079511,16.0199514 174.035383,16.117541 L174.035383,15.7215285 L174.033066,15.7215285 L174.033066,12.7368801 L174.035383,12.7368801 L174.035383,10.1857304 C179.272455,9.69637954 184.400838,9.15794076 189.40979,8.57156584 L189.40979,14.5184337 C188.374929,14.6367977 187.334171,14.7527952 186.291096,14.8700283 L186.291096,51.8409883 L189.518689,51.8409883 L189.518689,43.4652508 L189.549653,43.4413769 C192.361659,42.4987793 194.470769,40.8583954 195.262976,38.8959242 L195.262976,57.5545837 L168.178827,57.5545837" id="path96" fill="#E62449"></path>
                    </g>
                </g>
            </g>
        </g>
    </g>
</svg>