<?xml version="1.0" encoding="UTF-8"?>
<svg width="200px" height="200px" viewBox="0 0 200 200" version="1.1" xmlns="http://www.w3.org/2000/svg" xmlns:xlink="http://www.w3.org/1999/xlink">
    <!-- Generator: Sketch 51.3 (57544) - http://www.bohemiancoding.com/sketch -->
    <title>bemidji-st</title>
    <desc>Created with Sketch.</desc>
    <defs></defs>
    <g id="bemidji-st" stroke="none" stroke-width="1" fill="none" fill-rule="evenodd">
        <g id="bemidji-st_BGL" transform="translate(0.000000, 20.000000)">
            <g id="bemidji-st" transform="translate(0.000000, 0.100503)">
                <g id="g10">
                    <g transform="translate(100.289129, 79.941111) scale(-1, 1) rotate(-180.000000) translate(-100.289129, -79.941111) translate(0.000000, 0.136570)">
                        <g id="g12">
                            <path d="M199.772531,79.5547996 C199.772531,35.6176628 155.051261,0 99.8854118,0 C44.7203309,0 0,35.6176628 0,79.5547996 C0,123.491339 44.7203309,159.10977 99.8854118,159.10977 C155.051261,159.10977 199.772531,123.491339 199.772531,79.5547996" id="path14" fill="#FFFFFF" fill-rule="nonzero"></path>
                            <path d="M114.588225,18.4404822 C111.387508,24.2017726 107.433129,29.3229196 110.320602,35.5109722 C122.269945,61.1167073 124.741752,78.4425718 141.901009,84.1622102 C144.461582,85.0157347 160.678548,91.843504 160.678548,112.328092 C160.678548,120.009813 151.716541,121.290099 144.461582,123.423911 C129.524904,127.691533 120.349515,125.984484 104.772693,125.984484 C65.2969289,125.984484 14.7256022,118.516145 14.7256022,79.0410632 C14.7256022,36.791259 58.682114,13.3193352 100.931833,13.3193352 C106.693123,13.3193352 110.960746,14.1728597 114.588225,18.4404822" id="path16" fill="#CFAA6D" fill-rule="nonzero"></path>
                            <path d="M69.7156252,37.2239959 L64.1363916,37.225703 L69.7156252,37.2273247 C69.8846231,38.924046 68.8120842,41.5069819 65.804776,45.0891388 C60.076773,51.9139208 56.3499436,58.4987769 53.9637452,64.53678 C50.7857321,72.5786025 49.9855528,79.6501383 50.0018552,85.021368 C50.0128656,88.6974127 50.4069379,91.5780579 50.6830531,93.428499 C51.3631414,97.9905874 48.4975182,92.8745616 48.4975182,92.8745616 C48.4975182,92.8745616 46.7467688,90.0895111 45.4454853,85.0264038 L45.4445464,85.0264038 C44.8217296,82.609137 44.3032988,79.6735249 44.1265339,76.2744489 C43.9654738,73.1787155 44.4489955,69.0141134 45.4068207,64.53678 L45.4078449,64.53678 C47.7006678,53.815744 52.7138439,41.3242423 58.0973644,37.5403974 C58.2497185,37.4337069 58.4030968,37.3290648 58.557158,37.2239959 L58.5627913,37.2239959 C63.4635583,34.0085984 69.3572303,33.6442288 69.7156252,37.2239959" id="path18" fill="#231F20"></path>
                            <path d="M24.0996911,85.0246967 C19.5993978,80.773718 15.2584575,75.6459135 12.2794009,69.7882602 C12.2794009,69.7882602 12.7895525,67.3387302 13.8097704,64.53678 L13.811136,64.53678 C15.0720478,61.078384 17.112142,57.0887545 19.9311627,56.5256843 C20.7990265,59.3336092 21.7268929,62.0018975 22.6957286,64.5351583 L22.6977771,64.5351583 C25.889788,72.8723002 29.5205959,79.7068123 32.840038,85.021368 C38.5836604,94.2171556 43.394722,98.8628895 43.394722,98.8628895 C43.394722,98.8628895 33.4107898,93.8211203 24.1033612,85.0246967 L24.0996911,85.0246967" id="path20" fill="#231F20"></path>
                            <path d="M38.7986633,70.1126848 C36.8162673,68.147274 34.8074973,67.1220203 32.4579151,64.53678 L32.4533061,64.53678 C29.8866725,61.7081144 26.9143588,57.0220942 23.1285509,47.2229501 C22.0372345,44.3685935 25.4740362,40.1796659 28.9381508,37.2239959 C31.947166,34.6564235 34.977178,33.0193635 35.0778939,33.9933203 C35.1945707,35.125862 35.3049314,36.2014736 35.4092321,37.2239959 L35.4095735,37.2239959 C37.2933875,55.7631456 37.1132938,56.6866591 39.5408882,64.53678 L39.5412296,64.53678 C39.9032947,65.7087545 40.3223752,67.0306932 40.8147735,68.5893996 C41.9687386,72.2388144 39.7355771,71.0412341 38.7986633,70.1126848" id="path22" fill="#231F20"></path>
                            <path d="M63.6582472,85.3264177 C63.6582472,85.3264177 64.5360971,90.4394562 67.9445619,97.1993702 C71.8867355,105.017655 75.9526702,107.754908 75.9526702,107.754908 C76.9471969,108.043399 77.1406056,108.973741 76.2370645,109.336489 C74.1682918,110.170382 69.1764538,110.754193 66.8082647,110.343648 C63.40586,109.753862 62.2739158,107.952925 61.4987448,102.434036 C60.6936152,96.6992049 61.0759942,89.1292961 61.6954822,86.3570485 C62.1416195,84.3628738 63.6582472,85.3264177 63.6582472,85.3264177" id="path24" fill="#231F20"></path>
                            <path d="M151.830913,81.9240129 L145.852827,64.9635422 C145.817833,64.8661551 145.56775,64.7184953 145.184518,64.5418158 L145.174275,64.5418158 C143.490272,63.7846542 139.262765,62.5743564 139.284956,63.2051964 C139.284956,63.2051964 139.55467,63.7419779 139.92766,64.53678 C140.596824,65.968738 141.585205,68.2409909 141.873696,69.7166495 C141.873696,69.7166495 139.692941,67.1706712 137.865545,64.53678 C137.555716,64.0920083 137.254422,63.6428837 136.978733,63.2051964 C136.588672,62.5863911 131.57763,61.7591552 131.709926,62.2892792 L132.30654,64.53678 L136.097042,78.8350224 C144.158581,83.8827663 151.830913,81.9240129 151.830913,81.9240129 Z M161.959688,112.285416 C162.426566,118.860969 162.183312,117.887097 160.34738,119.615484 C157.94727,121.878178 135.230715,131.128676 104.779521,130.65497 C81.9934045,130.299904 41.0775737,121.002462 20.5679774,106.969665 C12.4594946,101.421756 15.4468304,90.7526997 15.4468304,90.7526997 C39.3455164,113.797861 78.5125609,121.892688 89.4988722,123.788365 C131.954888,131.109899 152.219267,119.210914 152.219267,119.210914 C152.219267,119.210914 141.65178,117.637014 146.646605,108.681835 C147.808252,106.911626 150.668413,111.786104 154.146525,111.662343 C155.756272,111.607717 154.939449,109.343317 153.414201,108.681835 C150.183611,107.959754 149.56822,107.581642 148.534601,106.390976 C148.534601,106.390976 147.311501,104.335689 148.60203,103.430099 C153.874251,92.7098314 138.858194,86.6771202 134.343049,85.0264038 L134.330247,85.0264038 C133.774602,84.8246306 133.382834,84.6913101 133.206155,84.6213211 C127.033466,82.2124189 123.832749,82.9309158 122.444064,85.021368 L122.44065,85.021368 C120.480105,87.9753309 122.14277,93.6649253 124.140871,97.1157248 C125.22314,98.98409 119.108491,100.482879 112.009727,91.4927054 C110.151605,89.0601606 108.890949,86.9297634 107.964021,85.023075 C104.158155,77.1929266 106.022253,73.1557557 95.3531967,67.4121333 C92.854077,66.0661252 89.8010199,65.0009266 86.5525056,64.5418158 L86.5217787,64.5418158 C84.4088788,64.2500811 82.2134431,64.2167083 80.0339683,64.53678 L80.0242381,64.53678 C74.1245914,65.4013149 68.336671,68.836751 64.6001115,76.6628026 C64.2277187,77.3562912 62.7307221,77.304653 62.7090426,75.110839 C62.6789985,72.1168457 61.8422031,68.3546804 62.0205897,64.53678 L74.0295941,64.5357557 L62.0205897,64.5331098 C62.0905787,63.0251027 62.3189819,61.5074508 62.8174402,60.0258176 C66.2315382,51.9173349 70.0723985,46.3694256 82.4485037,48.0764746 C90.2474132,49.1520008 94.3989563,63.4399156 114.225477,60.5625992 C117.522642,60.0837719 116.126276,58.0669789 112.518428,57.6718824 C101.042791,56.4136166 88.9432277,46.5587373 79.9929137,37.225703 L79.9912921,37.225703 C71.7610967,28.6434287 66.1948367,20.5069504 66.2315382,19.910166 C62.6607331,13.2789635 89.8385749,9.91121186 91.4116206,15.2157813 C94.8257186,26.7383621 96.5327676,28.0186488 105.495628,33.9933203 C105.495628,33.9933203 101.010357,20.9316642 102.934201,15.6425435 C104.64125,10.9481588 119.806674,14.9743192 122.992881,18.6298793 C114.034287,22.2506156 112.388692,29.7486576 114.972311,37.2239959 C118.173028,46.4897725 127.871627,55.7214936 138.202687,57.5018603 C143.640492,58.4391156 147.892751,57.9756518 148.718109,61.3673874 L149.781601,64.53678 L155.544598,81.6956098 C156.848784,82.6408028 157.952391,83.7660895 158.881879,85.021368 L146.60649,85.0240139 L158.881879,85.0264038 C164.381991,92.4947432 163.719656,104.700997 161.959688,112.285416 Z" id="path26" fill="#231F20"></path>
                            <path d="M108.070712,111.153642 C108.070712,111.153642 105.790094,109.647172 107.909396,107.998162 C112.21372,104.645518 115.189106,106.669225 117.326331,108.010112 C118.533215,107.961461 119.944945,107.37765 120.805297,106.87151 C121.242302,107.424594 120.143816,109.213581 119.051305,110.317188 C114.300587,115.131066 108.070712,111.153642 108.070712,111.153642" id="path28" fill="#231F20"></path>
                            <path d="M129.824491,117.881976 C127.850289,123.790073 118.800368,123.078233 109.257964,121.523111 C94.2265444,119.076057 92.6039943,110.625311 92.6039943,110.625311 C106.139186,117.121486 122.424433,116.343071 129.425895,114.541281 C130.262349,115.736215 130.083962,117.103562 129.824491,117.881976" id="path30" fill="#231F20"></path>
                            <path d="M178.668284,11.3782498 L180.742348,16.7964233 L182.743863,16.7964233 L182.743863,9.42973869 L181.437971,9.42973869 L181.437971,15.4187494 L181.402976,15.4187494 L179.096753,9.42973869 L178.203113,9.42973869 L175.89689,15.4187494 L175.861042,15.4187494 L175.861042,9.42973869 L174.556003,9.42973869 L174.556003,16.7964233 L176.557518,16.7964233 L178.668284,11.3782498 Z M173.268034,15.723543 L170.998513,15.723543 L170.998513,9.42973869 L169.69262,9.42973869 L169.69262,15.723543 L167.421392,15.723543 L167.421392,16.7964233 L173.268034,16.7964233 L173.268034,15.723543 Z" id="path32" fill="#FFFFFF" fill-rule="nonzero"></path>
                            <path d="M85.7373897,2.13547563 C89.7549295,1.72504983 93.8492866,1.51500599 98.0050974,1.51500599 C151.408418,1.51500599 194.697474,36.2894719 194.697474,79.186077 C194.697474,122.08217 151.408418,156.857319 98.0050974,156.857319 C67.8918994,156.857319 41.0065604,145.799055 23.2735647,128.462266 L23.4545972,128.338505 C40.3373972,142.890244 64.3160585,151.979426 90.9336469,151.979426 C142.046108,151.979426 183.479602,118.461519 183.479602,77.1139756 C183.479602,35.7643837 142.046108,2.24716784 90.9336469,2.24716784 C89.1992851,2.24716784 87.4751656,2.28584957 85.763849,2.36186447 L85.7373897,2.13547563" id="path34" fill="#004C40" fill-rule="nonzero"></path>
                            <path d="M89.2146485,2.04579581 C92.1260206,1.83507768 95.0706801,1.72838712 98.0050974,1.72838712 C151.203572,1.72838712 194.484093,36.4761377 194.484093,79.186077 C194.484093,121.896102 151.203572,156.643938 98.0050974,156.643938 C70.3287119,156.643938 44.2916055,147.225295 25.9621669,130.694232 C43.3957462,144.581076 66.3218411,152.192807 90.9336469,152.192807 C142.081103,152.192807 183.692983,118.511877 183.692983,77.1139756 C183.692983,35.7149646 142.081103,2.03378672 90.9336469,2.03378672 C90.3617854,2.03378672 89.7873635,2.03812262 89.2146485,2.04579581 Z M98.0050974,1.30162486 C93.8885487,1.30162486 89.754076,1.51067009 85.7160516,1.92310166 L85.5001099,1.94510552 L85.57522,2.58458315 L85.7740913,2.57524559 C87.4734585,2.4992307 89.2103809,2.46054897 90.9336469,2.46054897 C141.84553,2.46054897 183.26622,35.9496838 183.26622,77.1139756 C183.26622,118.277158 141.84553,151.766045 90.9336469,151.766045 C65.1572923,151.766045 41.2422186,143.387849 23.5936364,128.177188 L23.4696193,128.069644 L22.9381296,128.432392 L23.1245393,128.614193 C41.6213541,146.69867 68.9144218,157.0707 98.0050974,157.0707 C151.439999,157.0707 194.910855,122.131674 194.910855,79.186077 C194.910855,36.240821 151.439999,1.30162486 98.0050974,1.30162486 Z" id="path36" fill="#004C40" fill-rule="nonzero"></path>
                            <path d="M119.262125,138.914527 C111.821952,140.747897 103.902098,141.737132 95.6886319,141.737132 C52.3200277,141.737132 17.1648045,114.169144 17.1648045,80.1613141 C17.1648045,46.1533132 52.3200277,18.585496 95.6886319,18.585496 C127.995388,18.585496 155.758833,33.8959332 167.812306,55.759134 L168.123842,55.6404941 C157.201289,28.8814767 125.944368,9.56382739 89.1045439,9.56382739 C43.1769879,9.56382739 5.9463345,39.5872346 5.9463345,76.6255035 C5.9463345,113.663858 43.1769879,143.689143 89.1045439,143.689143 C99.7787213,143.689143 109.98346,142.066593 119.36028,139.110837 L119.262125,138.914527" id="path38" fill="#004C40" fill-rule="nonzero"></path>
                            <path d="M89.1045439,143.475762 C43.3683481,143.475762 6.15971562,113.486325 6.15971562,76.6255035 C6.15971562,39.7649384 43.3683481,9.77720852 89.1045439,9.77720852 C124.69993,9.77720852 156.120727,27.8982165 167.608313,54.9576745 C154.9275,32.7069735 126.804721,18.3721149 95.6886319,18.3721149 C52.2730839,18.3721149 16.9514234,46.0903231 16.9514234,80.1613141 C16.9514234,114.232305 52.2730839,141.950513 95.6886319,141.950513 C102.621811,141.950513 109.472199,141.246356 116.098963,139.854257 C107.439957,142.258636 98.3746735,143.475762 89.1045439,143.475762 Z M89.1045439,9.35044627 C43.1330314,9.35044627 5.73295337,39.5302191 5.73295337,76.6255035 C5.73295337,113.721898 43.1330314,143.902524 89.1045439,143.902524 C99.5661937,143.902524 109.766665,142.358498 119.424295,139.31483 L119.661575,139.23972 L119.377351,138.666151 L119.211767,138.70712 C111.629055,140.576339 103.715176,141.523751 95.6886319,141.523751 C52.5080592,141.523751 17.3781856,113.995879 17.3781856,80.1613141 C17.3781856,46.3260665 52.5080592,18.7988771 95.6886319,18.7988771 C126.97628,18.7988771 155.213431,33.3471169 167.626237,55.8621544 L167.715004,56.0245801 L168.403798,55.7624627 L168.321006,55.5600921 C157.03912,27.9205788 125.204363,9.35044627 89.1045439,9.35044627 Z" id="path40" fill="#004C40" fill-rule="nonzero"></path>
                        </g>
                    </g>
                </g>
            </g>
        </g>
    </g>
</svg>