<?xml version="1.0" encoding="UTF-8"?>
<svg width="200px" height="200px" viewBox="0 0 200 200" version="1.1" xmlns="http://www.w3.org/2000/svg" xmlns:xlink="http://www.w3.org/1999/xlink">
    <!-- Generator: Sketch 51.3 (57544) - http://www.bohemiancoding.com/sketch -->
    <title>benedict</title>
    <desc>Created with Sketch.</desc>
    <defs></defs>
    <g id="benedict" stroke="none" stroke-width="1" fill="none" fill-rule="evenodd">
        <g id="benedict_BGL" transform="translate(11.453744, 0.000000)">
            <g id="benedict">
                <g id="g10" transform="translate(88.000000, 100.256429) scale(-1, 1) rotate(-180.000000) translate(-88.000000, -100.256429) translate(0.000000, 0.199160)">
                    <g id="g12">
                        <path d="M38.3177813,155.722785 C37.2093423,154.195088 34.0020726,152.866954 31.891818,152.489859 C31.4554872,152.769248 31.0191563,153.048637 30.5828255,153.328025 C29.55245,152.935604 29.1740322,151.853172 29.1548336,150.454313 C27.9602391,149.634826 26.1992078,149.285191 24.8708581,148.658243 C25.3841418,151.242189 26.4359371,154.154856 26.6558479,156.560951 C27.4920164,157.035593 28.5747516,156.997756 29.6308309,157.399117 C33.3709002,157.387782 35.2406176,156.333768 38.3177813,155.722785 Z M34.0338058,183.622219 C33.1611441,183.063442 32.2884824,182.504664 31.4158207,181.945887 C31.4158207,182.345014 31.4158207,182.74414 31.4158207,183.143267 C31.4158207,183.18318 31.4158207,183.223092 31.4158207,183.263005 C31.9127619,183.623816 32.2772171,183.694062 32.9628119,183.981433 C33.3198098,183.861695 33.6768078,183.741957 34.0338058,183.622219 Z M113.88235,38.4997593 C113.827134,36.7388124 112.803899,35.4887476 112.335359,34.3089292 C112.375025,33.9098025 112.414692,33.5106758 112.454358,33.1115491 C111.709105,31.545376 111.689431,30.2075034 111.145366,28.681243 C111.145366,27.124649 111.145366,25.5680549 111.145366,24.0114609 C111.397962,23.3888233 111.400342,22.253707 111.740362,21.3772248 C112.182405,20.2357225 113.395564,18.7733224 113.88235,17.4258707 C113.922017,16.5877047 113.961683,15.7495387 114.001349,14.9113727 C115.479162,11.8588678 117.776008,11.1372627 119.594317,9.0442105 C120.245799,8.29385235 121.748205,5.7059469 122.450301,5.0928564 C124.276703,3.49797813 130.434362,0.965886558 133.16024,0.183598271 C136.207257,-0.691300177 142.530247,1.81047054 144.465176,2.69809634 C144.504842,2.69809634 144.544508,2.69809634 144.584175,2.69809634 C145.106979,2.72522099 149.551207,3.11799357 150.65314,3.53626236 C151.541034,3.8731572 152.077483,4.95715333 152.795128,5.45207041 C157.426264,8.64508382 163.47968,9.61414743 167.432044,12.7560886 C167.636723,12.9189163 169.515326,16.0672435 169.93103,16.5877047 C170.783065,17.6525747 171.922286,18.6408123 172.668015,19.8206308 C173.497837,21.1313628 176.215781,28.3810997 175.286,29.878623 C174.465698,31.0935646 173.44389,29.8419034 172.549015,29.519409 C172.588682,30.2777497 172.628348,31.0360904 172.668015,31.7944311 C172.430016,31.9540818 172.192017,32.1137324 171.954019,32.2733831 C169.039329,32.3037167 167.389205,29.8834126 165.409056,28.920719 C163.901731,28.920719 162.394407,28.920719 160.887082,28.920719 C159.808155,28.7019976 158.978333,28.2262386 158.269097,27.843077 C155.255082,26.2130436 153.053912,21.7827375 148.273154,24.2509369 C145.968058,22.6209035 142.579433,21.1393453 139.348205,20.6587968 C138.180901,20.4847776 135.612737,19.2107652 133.993235,19.8206308 C132.565402,21.2175741 131.137093,22.6145175 129.70926,24.0114609 C131.636573,27.6658647 131.80571,33.8491352 133.993235,36.9431652 C138.164558,42.8417786 148.050704,53.0391459 156.722106,52.8678407 C156.5444,52.0015761 156.390336,50.9588976 157.436102,50.4730806 C157.312501,49.3777174 156.827142,49.670357 156.484107,49.0362246 C155.596848,47.3961332 155.853569,45.0645948 155.88911,43.8874905 C156.512032,43.532587 156.884103,43.2824144 157.436102,43.0493244 C157.483384,42.2914627 157.517656,41.7885631 157.079104,41.4927304 C157.402623,40.3884267 158.217054,40.3006188 158.864093,39.5774013 C160.155633,39.5917699 167.162313,42.4407361 167.551044,43.0493244 C167.908042,43.9272435 168.26504,44.8054818 168.622038,45.6835605 C169.653365,46.3220035 170.684693,46.9607659 171.71602,47.5993685 C174.280059,49.574407 175.941289,53.3099134 175.880996,57.8968368 C174.748123,59.4729082 172.569642,60.4394334 171.71602,61.7284529 C170.992504,62.8209425 170.760852,63.900181 169.693032,64.602165 C169.098035,64.6819903 168.503038,64.7618157 167.908042,64.841641 C164.672847,66.2952604 156.315763,68.384928 151.010138,66.039021 C150.265202,66.5082343 147.335757,65.6676736 146.726163,65.320593 C146.607163,65.3605057 146.488164,65.4004183 146.369165,65.440331 C148.157804,69.4823667 146.780585,77.5964524 143.394182,78.2522973 C143.402115,79.9268732 144.541018,84.7555078 143.75118,86.6339576 C143.386566,87.5008607 142.940715,89.244725 142.799185,89.8668836 C142.302561,90.219552 142.09455,90.3707412 141.133195,90.3458357 C139.635866,89.2212563 136.968536,83.9462385 136.135223,82.0839134 C135.738559,81.7246994 135.341894,81.3654854 134.94523,81.0062714 C132.140654,83.0553878 129.669435,86.2884735 128.519267,89.9866216 C128.094994,91.350677 130.561136,94.6699741 131.018252,95.4945698 C133.728264,100.382754 138.669909,105.614666 143.75118,107.707846 C144.028845,107.707846 144.30651,107.707846 144.584175,107.707846 C145.79654,103.72999 144.22559,100.02338 144.227177,96.2129978 C144.760929,95.8957719 145.082544,95.7196772 146.012167,95.7340458 C146.92624,97.2331656 148.81944,98.8328653 150.177143,100.28409 C153.079616,103.386422 154.843979,108.449743 155.88911,112.018414 C156.922342,115.546375 157.996826,121.345526 157.912099,124.590905 C158.070765,126.346902 158.22943,128.103379 158.388096,129.859377 C158.663064,139.822377 153.469458,142.634464 146.012167,144.347675 C144.838992,144.617006 143.773076,144.298183 142.442187,144.826627 C140.678935,145.526695 131.365413,147.940294 128.281268,146.742435 C126.459785,146.034704 124.124701,146.278331 121.974304,145.784531 C118.65692,145.022678 113.210718,143.401106 109.479375,144.108199 C105.371201,144.886496 100.370691,147.280298 96.5084492,149.137195 C95.2789483,149.855464 94.0489713,150.574051 92.8194703,151.292479 C91.5503029,150.773615 90.2806595,150.25475 89.011492,149.735885 C85.4418297,148.538505 81.8712154,147.340965 78.3015531,146.143745 C74.3172972,144.899108 68.1458338,144.108199 62.7126421,144.826627 C62.434977,144.746802 62.1573119,144.666976 61.8796469,144.587151 C60.6772777,145.014855 57.2859557,145.577305 56.1676795,145.545055 C57.0849262,147.181953 59.1972435,147.604549 60.451655,148.897719 C62.0911483,150.587781 68.0276278,156.693142 66.9966177,159.554401 C66.8876143,159.85662 65.9908354,162.056606 65.8066245,162.308854 C65.5289594,162.508418 65.2512943,162.707981 64.9736292,162.907544 C64.4611388,164.087363 65.1335643,164.61421 64.3786326,165.541781 C63.2679723,166.419859 62.1573119,167.297938 61.0466516,168.176017 C60.9673187,168.654969 60.8879859,169.133921 60.808653,169.612873 C58.6435,172.025194 53.0364107,171.53826 51.2887073,173.564227 C52.8261785,176.712538 57.0298692,178.29308 57.119674,182.784053 C58.7136303,183.662132 58.885624,184.291155 59.6186598,186.016979 C59.5789933,186.33628 59.5393269,186.655582 59.4996604,186.974883 C61.1128152,189.949175 58.2549275,191.981528 56.8816754,192.842045 C57.5479129,195.884987 56.0148843,196.490063 54.2636903,197.751303 C47.7331663,202.453016 38.3042947,198.793822 31.53482,197.392089 C29.3607818,196.941874 28.6298086,195.222437 25.8228526,195.236805 C25.0869608,196.08455 24.6196902,196.940278 22.9668689,196.913137 C22.9007053,197.697022 22.6861892,197.401668 22.3718723,198.110517 C18.114394,197.195719 19.7965684,193.445525 17.6118995,191.644665 C15.8640375,190.20302 11.0432639,189.283432 9.99594295,187.334097 C10.1942752,186.735407 10.3926074,186.136717 10.5909396,185.538027 C9.38228726,183.962275 7.57268838,182.27796 6.06896537,180.987983 C6.06896537,180.628769 6.06896537,180.269555 6.06896537,179.910341 C6.10863181,179.830516 6.14829825,179.75069 6.18796469,179.670865 C7.41024638,179.310054 7.49714762,179.118474 8.5679511,179.551127 C9.68195928,179.484074 9.67675504,178.642715 9.99594295,177.755057 C11.5866307,177.426176 12.5042265,177.507598 14.3989178,177.515581 C14.9475523,176.682204 14.5055254,176.192077 14.2799185,175.360297 C14.3195849,174.522131 14.3592514,173.683965 14.3989178,172.845799 C13.7426286,171.696314 12.2994525,169.820419 11.1859362,168.894445 C10.2867456,168.145683 9.33110168,167.910997 8.68695043,166.978637 C7.52837304,165.300708 8.73548628,164.397085 6.90196061,163.027282 C6.94162705,162.468505 6.98129349,161.909728 7.02095993,161.35095 C7.440615,160.685207 8.31278483,160.630926 8.68695043,159.914094 C8.68961601,159.910901 9.55291642,156.797713 9.87694363,156.321475 C9.6143994,155.377461 8.98233847,154.330472 8.68695043,153.328025 C7.91934134,150.722526 8.20871595,146.012832 6.90196061,143.868723 C5.73576727,141.95499 1.74779856,141.145402 0,139.318679 C0.565743398,137.028171 1.99069997,137.47647 2.8559837,135.846277 C2.53238488,135.393986 2.08905688,134.760014 1.54699117,134.529159 C1.53633042,133.353491 1.75566838,132.983421 2.02298846,132.254137 C3.3999058,132.334281 4.13379841,132.090814 4.40297487,131.056757 C6.37731641,129.548377 7.56891214,131.113113 9.75794431,131.176495 C14.254881,128.049736 17.7175709,129.076769 22.7288703,130.817281 C24.6744299,131.492922 28.032908,131.174419 30.4638261,131.176495 C30.4013118,130.395484 31.0970612,128.828991 31.53482,128.063307 C31.53482,127.943569 31.53482,127.823831 31.53482,127.704093 C24.2717362,127.21636 16.7267032,126.981035 12.2569301,123.513263 C12.2569301,123.273787 12.2569301,123.034311 12.2569301,122.794834 C27.8959795,113.402426 29.5992564,93.1952808 37.7227847,75.8575373 C43.2142067,64.1371026 56.5603772,49.3569628 67.9486122,44.3664425 C69.9068651,43.5081605 71.6161713,43.2758687 73.6605796,42.3308964 C77.2526138,40.6702101 81.7136603,39.7226834 86.036509,38.6194973 C88.0196724,38.4598466 90.0034704,38.3001959 91.986475,38.1405453 C92.3706049,38.0176142 94.4705462,37.5833644 94.8424588,37.6615932 C98.5707868,37.6216806 102.300067,37.5817679 106.028395,37.5418552 C107.818621,38.0383688 111.794626,38.3640562 113.88235,38.4997593 Z M114.001349,57.4178848 C117.296044,57.3267243 120.45857,55.908707 122.569301,54.4244347 C123.475123,53.7872689 123.920181,52.6709914 125.187286,52.3888887 C125.187286,52.2691507 125.187286,52.1494127 125.187286,52.0296747 C123.31027,50.0258991 119.870555,48.4605243 118.761322,45.8032985 C115.579915,46.6181555 108.915636,50.9565029 110.193371,55.5020768 C110.691582,56.9975246 112.541783,56.8715602 114.001349,57.4178848 Z" id="path14" fill="#341C4B"></path>
                        <path d="M35.1047997,188.770953 C35.3824647,188.770953 35.6601298,188.770953 35.9377949,188.770953 C36.3741258,188.411739 36.8104566,188.052525 37.2467874,187.693311 C37.2467874,186.615669 37.2467874,185.538027 37.2467874,184.460385 C36.4893171,182.654736 27.7217645,176.82589 25.4658547,176.437939 C25.2998903,177.261736 25.2064362,179.432985 24.7518587,179.910341 C25.9253507,181.605831 26.5422432,185.847749 27.8458411,186.735407 C30.2140862,188.346282 32.9302854,187.192008 35.1047997,188.770953 Z M45.5767399,198.709207 C44.3959493,197.839111 42.5603451,198.428222 41.2927643,198.110517 C38.1706982,197.325036 34.4956818,196.68803 31.6538194,195.715757 C30.5666416,195.343771 26.3080525,192.747851 26.1798506,192.961783 C25.235948,193.215628 22.1789348,196.071778 21.5388771,195.715757 C20.3647504,195.059593 19.7135862,190.46804 18.0878968,189.249905 C16.1185373,190.506356 14.5055888,187.873716 12.8519267,187.214359 C13.4134607,183.288549 9.65444664,183.714816 9.87694363,181.826149 C10.5464338,182.217293 12.5580301,183.172004 13.8039212,182.664315 C14.2574832,182.47912 14.4961641,181.877237 15.2319131,181.945887 C15.9352784,182.009747 16.5115524,182.975634 17.2549015,182.424839 C18.3273234,181.602638 16.6940181,178.294676 16.4219063,177.276105 C15.600684,174.19804 15.5604623,171.341889 13.6849219,168.535231 C12.783383,167.184586 10.8708418,166.887636 9.99594295,165.781257 C10.1072629,165.034091 9.58837821,163.233232 9.51994567,162.787806 C9.46528532,161.714954 11.6342304,161.231212 12.3759294,160.273308 C12.1392318,158.685582 11.4510825,157.565793 10.9479375,156.201737 C10.6435055,155.376024 11.1685781,154.530993 10.8289382,153.687239 C9.40199354,150.142036 9.66472818,143.880058 7.02095993,141.354225 C5.71290353,140.10448 3.78219508,140.267802 2.73698438,138.959465 C3.1017887,138.510847 3.88247184,138.165682 4.04597691,137.881823 C4.16497623,137.323046 4.28397555,136.764268 4.40297487,136.205491 C6.22112583,135.852503 9.16077399,137.310912 11.3049355,136.564705 C12.6138645,135.846277 13.922984,135.127689 15.2319131,134.409421 C17.4732256,133.651399 22.5981297,136.315969 24.3948608,137.043657 C25.6067499,137.534423 27.8234692,136.753412 28.916835,137.522609 C28.2556747,140.086918 27.8783676,144.778572 28.6788363,147.580601 C28.6391699,147.660426 28.5995035,147.740252 28.559837,147.820077 C24.8235757,147.768031 22.7482275,145.330165 19.1588907,145.305579 C18.3879337,145.709815 17.9841294,146.118999 17.3739009,146.622697 C19.0240248,153.132932 20.7687135,156.661212 21.895875,163.027282 C24.5321067,162.527576 27.1191519,164.151223 29.0358343,163.386496 C30.5885374,162.767052 31.4389859,162.248187 32.9628119,161.710164 C36.9283453,160.306835 39.7467252,162.519593 43.0777542,159.195187 C42.9998493,153.728589 38.4104421,153.982114 34.3908037,151.292479 C34.4701366,151.172741 34.5494695,151.053003 34.6288024,150.933265 C35.9720667,150.745676 36.7358837,149.848279 37.841784,149.376671 C39.9171322,148.491408 41.7962108,148.706298 43.9107494,147.939815 C44.807687,147.614607 47.4389999,146.354803 48.194725,146.862173 C49.7970905,147.239907 50.9580479,148.844715 52.0027032,149.855623 C54.5492887,152.319672 61.2559318,155.788402 61.8796469,159.914094 C61.9986462,160.033832 62.1176455,160.15357 62.2366448,160.273308 C62.7743631,161.137019 63.2919308,163.798395 62.4746435,164.943091 C61.5692966,165.070811 60.5403492,166.231471 60.2136564,166.619423 C60.4846575,168.682109 58.3237885,168.725215 57.0006747,169.493135 C54.2795569,171.070483 51.0948177,171.100817 47.837727,172.007633 C46.4098938,172.007633 44.9815846,172.007633 43.5537514,172.007633 C42.3748648,171.386592 40.42518,171.286012 39.1507766,171.528681 C38.7588721,173.26568 38.9784656,172.971923 39.5077745,174.641869 C41.8996609,175.349121 44.3995986,178.35215 45.9337379,179.670865 C46.6399592,180.277537 47.5037356,180.323836 48.3137243,180.868245 C49.1235543,181.412654 49.2565162,182.493489 49.8607155,183.263005 C52.7465283,186.93497 54.8428204,189.293011 55.4536835,194.757853 C51.751218,197.596442 51.1011644,198.206308 45.5767399,198.709207 Z" id="path16" fill="#F7CF07"></path>
                        <path d="M31.53482,149.256933 C31.4554872,149.137195 31.3761543,149.017457 31.2968214,148.897719 C31.6368421,146.339636 30.7110274,141.173181 31.2968214,138.360775 C31.9310084,135.315598 32.8446059,132.569606 33.7958071,130.218591 C34.0614136,129.562107 34.874893,128.706858 34.9858003,127.943569 C35.4702069,127.949955 35.3480343,127.959853 35.8187956,127.823831 C35.6407726,129.47414 34.7116259,130.482493 34.1528051,131.775185 C32.6334218,135.289096 32.5807447,142.231026 34.6288024,145.305579 C39.3814766,146.3746 43.7633489,142.450706 46.8857324,140.156845 C51.4156399,136.828767 54.7609488,133.132375 57.9526693,128.901473 C59.3011696,126.945912 60.6501459,124.989872 61.9986462,123.034311 C62.5931668,122.692498 63.432826,122.853905 64.140634,122.555358 C65.8388336,121.839006 67.0137536,120.553978 69.2576048,120.160598 C71.3183557,124.80308 78.1447914,130.199752 82.1095314,133.212041 C82.5458623,133.172128 82.9821931,133.132215 83.4185239,133.092303 C83.3090446,130.922969 81.9235751,129.884601 81.2765362,128.183045 C80.1119295,125.120306 79.9164533,121.548442 78.7775504,118.125052 C78.7775504,117.04741 78.7775504,115.969609 78.7775504,114.892126 C77.9277366,111.872813 78.8316555,108.691294 78.5395518,104.714396 C78.4905241,104.047854 78.7838971,101.516433 79.1345484,100.643304 C79.094882,100.124439 79.0552155,99.6055746 79.0155491,99.0867099 C79.3923803,97.1396103 79.5656433,95.0807552 80.086543,93.2195477 C81.8093358,87.0642161 83.6803225,80.3240841 87.1075029,75.1391093 C87.4794154,75.271779 87.4365757,75.1450163 87.7024995,75.3785853 C86.3311513,79.0519876 86.3198861,83.2258947 86.036509,87.2326476 C85.9559068,88.3730323 85.6117608,92.305388 86.2745076,92.8603337 C85.2304869,94.2441857 87.0505419,101.117307 87.1075029,102.798588 C87.3962746,111.309725 90.8534428,122.808564 94.2474621,127.105403 C94.5647937,127.823671 94.8821252,128.542259 95.1994567,129.260687 C96.9060656,132.019291 99.5718091,135.795189 102.577415,137.163395 C103.640951,137.647456 105.324078,137.217197 106.742391,137.642347 C106.86139,137.801998 106.980389,137.961648 107.099389,138.121299 C107.871139,138.443155 111.341477,138.384084 111.502364,138.360775 C113.62785,138.050893 116.467015,137.610417 118.166326,137.043657 C118.602498,137.08357 119.038987,137.123482 119.475318,137.163395 C120.548216,136.738884 122.250065,135.831589 123.283296,135.846277 C124.104074,135.857931 125.579666,134.210815 126.258279,134.768635 C127.113647,134.208261 129.200736,132.613191 130.066258,132.613351 C131.254347,132.61351 136.664849,128.682911 137.087218,129.021211 C139.099417,127.436358 141.845763,124.722297 143.989178,123.872477 C143.949512,123.952302 143.909845,124.032127 143.870179,124.111953 C145.48143,131.451573 130.385176,129.245839 132.803242,138.241037 C133.53723,138.450499 134.275184,139.302395 135.302228,139.079203 C137.81597,138.532719 149.128045,136.136681 150.296142,139.558155 C143.316435,143.09314 128.615577,144.844508 119.832316,141.114749 C119.197653,141.154662 118.562831,141.194574 117.928327,141.234487 C116.711043,140.978886 114.746285,140.564912 113.88235,140.156845 C112.454517,140.116932 111.026208,140.07702 109.598375,140.037107 C106.372382,139.101235 100.88334,139.085749 98.0554404,138.121299 C97.5397767,138.161212 97.024113,138.201124 96.5084492,138.241037 C94.6298466,137.612971 93.2602438,135.133596 91.1534798,134.529159 C90.3103299,134.951914 85.3809021,136.586577 83.5375233,135.966015 C82.1990189,135.515321 80.0321206,134.669971 78.5395518,135.008111 C78.7897677,139.075212 84.5149044,142.69545 87.9404981,144.706889 C88.7742867,145.196378 91.2144075,147.323085 92.1054744,146.742435 C93.6815014,146.334049 97.8534589,143.748666 99.2454336,144.227937 C99.4040994,144.347675 99.5627651,144.467413 99.7214309,144.587151 C99.642098,144.587151 99.5627651,144.587151 99.4834323,144.587151 C98.3216816,145.771759 93.3140315,147.253637 91.5104778,147.700339 C83.4307412,142.697206 66.9277567,139.407764 53.9066924,142.551605 C50.9282187,143.270672 48.4865113,142.706785 45.8147385,143.748985 C43.4253908,144.680866 40.5219661,145.470339 38.198782,146.502959 C38.0401162,146.463046 37.8814505,146.423134 37.7227847,146.383221 C36.1826162,147.450167 33.7656606,148.770158 31.53482,149.256933" id="path18" fill="#F7CF07"></path>
                        <path d="M88.4164954,141.114749 C87.5835002,140.356408 86.7505049,139.597908 85.9175097,138.839727 C85.9968426,138.719989 86.0761754,138.600251 86.1555083,138.480513 C87.1814411,138.311443 89.8763791,137.719139 90.4394839,138.001561 C91.3914784,138.560338 92.343473,139.119116 93.2954676,139.677893 C93.2558011,139.757718 93.2161347,139.837544 93.1764683,139.917369 C91.298659,140.078456 90.3269899,141.013211 88.4164954,141.114749" id="path20" fill="#FFFFFF"></path>
                        <path d="M116.619334,132.613351 C115.88376,132.336836 112.885136,132.317199 112.692357,132.493613 C110.002655,131.04175 106.279087,131.669177 104.005406,129.619901 C103.375662,129.052183 100.721501,126.132651 102.101417,125.548809 C102.911247,126.610007 105.366759,127.251802 106.504392,127.584355 C108.233214,128.089649 110.900862,128.867148 112.930356,129.619901 C114.992693,129.579988 117.055983,129.540075 119.11832,129.500163 C124.920568,129.366695 131.928359,126.883648 136.016224,124.830381 C137.761388,124.07204 139.507029,123.31354 141.252194,122.555358 C141.223158,121.913722 141.208878,121.899035 140.895196,121.597454 C139.577159,122.407522 137.605261,122.247233 136.016224,122.794834 C126.177043,126.184378 114.886704,125.056606 107.337387,120.519812 C106.137557,119.798511 102.965194,118.44627 102.815413,116.568458 C103.093078,116.129419 103.370743,115.69022 103.648408,115.25134 C103.767408,115.331166 103.886407,115.410991 104.005406,115.490816 C107.167139,119.685797 122.965013,123.519649 130.780254,120.998764 C133.829651,120.014997 137.328072,121.11515 139.110206,119.082956 C138.991207,118.923306 138.872207,118.763655 138.753208,118.604004 C136.448588,118.640245 130.728529,119.965026 128.638266,119.202694 C127.119041,118.648547 124.557224,118.986527 122.6883,118.24479 C116.534131,115.802295 108.588467,114.739341 106.623392,107.228894 C103.162415,108.162531 101.094842,112.333884 99.2454336,115.011864 C98.761979,115.711773 98.6215599,117.291676 97.9364411,117.885576 C91.0168686,109.789531 86.1393244,86.8613001 90.9154812,72.8640872 C91.3716452,71.5270128 92.9505282,64.5482031 93.4144669,64.123213 C93.335134,63.9635623 93.2558011,63.8039116 93.1764683,63.644261 C84.2277193,70.3586892 79.8152245,80.8930791 74.7315735,90.3458357 C72.6267135,94.2593525 72.5315141,98.8137072 70.8045959,102.67885 C70.5301042,103.293186 70.8691729,104.702742 70.2095993,105.432824 C70.2095993,105.512649 70.2095993,105.592475 70.2095993,105.6723 C66.2845257,104.623555 65.4448665,99.9109863 62.7126421,97.7695918 C62.6333092,97.8494172 62.5539763,97.9292425 62.4746435,98.0090679 C62.960954,99.9919292 62.3673854,101.702267 63.0696401,104.115706 C64.4797027,108.961264 65.7790166,113.788621 68.1866109,118.364528 C64.3378555,119.367933 57.6255005,123.542319 53.5496944,122.43562 C53.7083602,122.27597 53.8670259,122.116319 54.0256917,121.956668 C54.9776863,119.44233 55.9296808,116.927353 56.8816754,114.413174 C57.5096745,112.630675 57.121102,110.787986 57.9526693,108.905226 C57.8733364,108.66575 57.7940035,108.426274 57.7146706,108.186798 C58.5594071,106.31681 58.5479832,102.468111 58.5476659,99.9248759 C58.5476659,98.8472339 58.5476659,97.7694322 58.5476659,96.6919498 C58.8207297,95.6931752 59.167573,93.4489657 59.1426625,92.2616437 C59.102996,91.3037397 59.0633296,90.3458357 59.0236632,89.3879316 C60.977156,84.6546085 60.9525628,80.0392673 63.426638,75.8575373 C66.1647331,71.2292643 69.2444355,67.0355605 72.5895857,62.8060949 C73.94713,61.0895309 76.0161315,59.914502 77.3495586,58.1363128 C77.166617,57.6330939 77.3714545,57.8431942 76.8735613,57.6573608 C76.0267621,58.5723188 74.4313779,58.6875866 73.422581,59.4534309 C72.0466315,60.4980252 70.2205473,62.0459981 68.9006068,63.404785 C64.6282138,67.802682 61.1023433,72.659415 57.83367,77.7733453 C56.662558,79.6054964 55.9168289,82.0264392 54.9776863,83.8799835 C54.9380198,84.3190228 54.8983534,84.7580622 54.8586869,85.1971015 C53.1457314,87.7866354 52.5816746,91.8136639 51.4077066,94.8958798 C50.166147,98.1553079 48.8669918,102.137155 47.5997284,105.792038 C47.5600619,106.430481 47.5203955,107.069243 47.480729,107.707846 C46.3592794,111.136823 44.9885659,115.416898 43.6727508,118.005314 C43.6330843,118.444194 43.5934179,118.883393 43.5537514,119.322432 C42.7123469,120.798403 41.3847905,123.360317 40.1027711,124.471167 C39.366562,125.108971 31.5308534,125.27836 30.2258275,124.590905 C30.3051604,124.511079 30.3844933,124.431254 30.4638261,124.351429 C31.007891,122.748695 32.4688854,120.754659 33.6768078,119.44217 C33.7164743,119.082956 33.7561407,118.723742 33.7958071,118.364528 C35.3629489,115.131123 36.9883209,111.656486 38.55578,108.66575 C38.5954464,108.226711 38.6351128,107.787512 38.6747793,107.348632 C40.2384304,103.814286 41.4085904,98.5448555 42.6017569,94.1774518 C43.0214278,92.6411333 43.8460138,90.8471388 44.6247453,89.5076696 C45.5630946,87.8936014 45.9131113,84.9347955 46.7667331,83.1615555 C48.8661985,78.8002184 50.9634425,74.4621904 54.0256917,70.7088031 C55.2115596,69.2553434 55.8228988,67.4841789 57.0006747,66.039021 C58.819143,63.8072643 60.9238443,61.6176553 62.9506408,59.5731689 C63.3852263,59.1346085 65.7474421,56.2644087 66.1636224,56.5797188 C69.2371369,54.012536 75.2002722,48.123342 79.2535477,47.4796305 C79.2535477,47.4796305 82.3949711,45.9736458 82.704528,46.1625125 C87.203337,43.9392173 95.9063127,42.0917397 102.458415,42.0914204 C105.063548,42.0912608 110.598445,41.7717998 112.09736,42.4506344 C107.824015,44.5189089 102.010026,46.5602023 99.2454336,51.5507226 C98.9880778,52.0153061 97.2270465,57.4046338 97.8174418,57.6573608 C97.8804321,57.9622936 97.5794431,59.5690179 97.5794431,60.2915969 C97.5794431,63.5358582 98.7089847,65.7816641 100.673425,66.996925 C102.559803,68.1636522 105.742162,68.0448721 109.003378,67.8350911 C110.684283,67.7270076 112.807072,66.4477267 114.239348,65.919283 C116.27979,65.1663705 118.572034,65.1599844 120.90331,64.123213 C122.722572,63.3141034 125.532066,61.8671893 127.686271,61.2495009 C128.817082,60.9250907 130.698065,62.1320498 131.37525,62.4468809 C134.713419,63.9990048 138.60073,65.4002587 142.799185,66.398235 C143.211081,69.1790304 143.731346,70.9952164 143.037184,73.8219912 C141.600783,73.7922962 140.452994,74.3504349 140.1812,75.4983233 C140.895672,76.2427743 140.559935,81.9632175 140.538198,83.1615555 C140.458865,83.1216428 140.379532,83.0817301 140.300199,83.0418175 C139.880846,81.4920884 138.928375,79.0055292 137.682214,77.6536073 C136.318641,76.1741246 124.159766,75.813314 121.379307,77.1746553 C121.356142,78.0128213 120.819693,78.5118893 120.90331,78.9707254 C121.401679,81.7018694 123.295672,85.3005552 122.331302,88.9089796 C122.291635,88.9089796 122.251969,88.9089796 122.212303,88.9089796 C120.563131,85.9685336 119.885152,81.9188346 116.857333,80.4075814 C113.351772,78.65781 104.724004,88.5128863 103.41041,91.5432157 C102.672931,93.2447725 103.649043,97.175851 104.362404,98.4880199 C105.058947,99.7693761 104.977869,101.20719 105.909396,102.199898 C108.429167,104.884584 116.864314,111.275879 120.665311,111.898676 C121.887355,110.697305 122.453157,109.021771 122.926298,107.348632 C123.23649,106.251992 122.622612,104.776819 123.164297,103.995968 C122.843792,103.382909 122.73463,101.311921 123.045298,100.523566 C123.362629,100.802955 123.679961,101.082343 123.997292,101.361732 C124.433465,102.239651 124.869954,103.117889 125.306285,103.995968 C126.358715,106.649043 125.553645,111.243949 127.805271,112.85658 C129.393198,113.993772 132.317249,112.529935 134.350233,112.85658 C138.718778,113.558245 140.815704,116.019579 144.822174,113.45527 C145.694677,112.816668 146.567497,112.177905 147.440159,111.539462 C148.449114,110.005219 148.630469,108.253372 148.630152,105.792038 C148.669818,104.794221 148.709485,103.796245 148.749151,102.798588 C148.86815,102.878413 148.98715,102.958239 149.106149,103.038064 C149.798408,105.364334 151.822031,107.586991 152.676129,110.102606 C154.565997,115.668508 154.677539,122.447754 154.699117,130.098853 C154.269292,130.4247 154.30991,130.534699 153.509124,130.577805 C150.729141,128.949368 146.257464,124.298425 145.060172,121.23824 C137.833899,126.421459 127.308488,132.152599 116.619334,132.613351" id="path22" fill="#FFFFFF"></path>
                        <path d="M154.937116,65.320593 C152.652329,63.8356821 147.965184,64.6958799 145.41717,63.0455709 C144.913882,60.6367616 144.390761,57.6508151 143.156183,55.6218148 C142.398554,54.3763799 140.463784,54.6420386 139.110206,54.1849587 C135.055979,52.8157946 130.997784,50.8002048 127.210274,49.1559626 C126.932609,49.6347549 126.654944,50.1138666 126.377279,50.5928186 C126.258279,50.5928186 126.13928,50.5928186 126.020281,50.5928186 C124.43997,49.0070085 122.005085,47.4132159 120.546312,45.4440845 C120.585979,45.2844338 120.625645,45.1247831 120.665311,44.9651325 C121.974304,44.7352355 124.929771,45.1100953 126.496278,44.3664425 C125.201565,41.4299877 119.011062,39.8488074 116.500335,39.0984493 C114.475919,34.6138619 112.100851,31.3250581 112.930356,24.0114609 C113.160104,21.9838974 114.880516,19.7248404 115.66734,17.5456087 C115.627673,17.2263074 115.588007,16.907006 115.548341,16.5877047 C116.451942,13.7539053 118.251529,12.8056122 120.90331,11.1994946 C121.379149,10.8801932 121.855305,10.5608919 122.331302,10.2415905 C124.137077,10.5385727 130.923529,4.29623148 132.922241,6.64945044 C133.794268,7.02462952 141.769603,9.45449676 142.680186,8.80473449 C143.679304,9.298087 149.951203,11.3814644 150.415142,11.0797566 C155.199232,13.4314269 161.78989,16.7665134 164.69506,21.2574868 C166.031026,23.3233665 171.316182,26.5068009 170.645026,29.519409 C170.645026,29.7189724 170.645026,29.9185357 170.645026,30.118099 C170.48636,30.118099 170.327695,30.118099 170.169029,30.118099 C169.443926,28.807367 166.004053,27.3242123 164.576061,26.525959 C162.941803,27.5956184 160.910882,26.9346647 159.221091,26.2864829 C158.65402,26.0677615 156.519013,23.930039 156.127109,24.2509369 C155.415334,23.7272827 154.809866,22.606535 153.985121,22.2153908 C153.117854,21.8034921 148.816108,21.415541 148.035155,21.9759148 C147.208348,21.5336825 136.897929,16.8543213 134.588232,17.6653467 C132.22554,18.4939337 127.819233,23.3026119 126.972275,25.3285789 C127.011942,25.8474436 127.051608,26.3663083 127.091275,26.885173 C125.263604,33.5713431 130.290452,41.9488524 134.112235,45.9230365 C136.095398,47.5193836 138.079196,49.1162096 140.062201,50.7125566 C140.736372,51.191349 141.41086,51.6704607 142.085189,52.1494127 C143.362766,53.2565901 146.534177,55.3071433 147.916156,55.1428627 C148.463235,55.0775656 149.377944,55.7591143 149.701146,55.8612908 C149.780479,55.8213781 149.859811,55.7814654 149.939144,55.7415528 C151.859952,54.5909504 155.647621,57.3363033 158.269097,55.1428627 C161.375772,52.5431112 156.922976,48.3668093 157.6741,45.3243465 C157.872432,45.3243465 158.070765,45.3243465 158.269097,45.3243465 C159.022759,45.5638225 159.776422,45.8032985 160.530084,46.0427745 C160.68875,46.2822505 160.847415,46.5217265 161.006081,46.7612025 C161.680411,46.7612025 162.35474,46.7612025 163.02907,46.7612025 C163.108403,46.8410279 163.187735,46.9208532 163.267068,47.0006785 C164.814059,48.1654898 165.683548,50.0322851 167.194046,51.1915086 C168.328506,52.0612855 169.693032,51.8947698 170.526027,53.4665307 C171.006784,54.3736658 171.230503,55.233225 171.478021,55.7415528 C172.39035,57.6150534 169.834244,63.0522763 168.503038,62.9258329 C165.918373,64.5673611 160.303192,65.2921752 154.937116,65.320593" id="path24" fill="#F7CF07"></path>
                    </g>
                </g>
            </g>
        </g>
    </g>
</svg>