<?xml version="1.0" encoding="UTF-8"?>
<svg width="200px" height="200px" viewBox="0 0 200 200" version="1.1" xmlns="http://www.w3.org/2000/svg" xmlns:xlink="http://www.w3.org/1999/xlink">
    <!-- Generator: Sketch 51.3 (57544) - http://www.bohemiancoding.com/sketch -->
    <title>bentley</title>
    <desc>Created with Sketch.</desc>
    <defs></defs>
    <g id="bentley" stroke="none" stroke-width="1" fill="none" fill-rule="evenodd">
        <g id="bentley_BGL" transform="translate(18.000000, 0.000000)">
            <g id="bentley" transform="translate(0.699187, 0.000000)">
                <g id="g10">
                    <g transform="translate(81.187421, 100.087314) scale(-1, 1) rotate(-180.000000) translate(-81.187421, -100.087314) translate(0.000000, 0.077112)">
                        <g id="g12">
                            <path d="M81.4894924,199.755526 C113.087727,199.907015 141.20851,192.347514 162.072316,181.613085 C162.072316,181.613085 159.71516,86.0745406 159.50244,79.0330059 C159.275659,71.5492493 158.443828,65.9550278 153.757182,57.1863328 C150.315108,50.7453129 146.009,42.9749057 124.426752,25.5880979 C111.201367,14.9334962 81.1357148,0.253533347 81.1357148,0.253533347 L80.4313345,0 C80.4313345,0 50.8704957,14.9334962 37.6455638,25.5880979 C16.0634981,42.9749057 11.7573446,50.7453129 8.31504328,57.1863328 C3.62848808,65.9550278 2.79684315,71.5492493 2.57006264,79.0330059 C2.35692072,86.0745406 0,181.613085 0,181.613085 C20.8638064,192.347514 48.984589,199.907015 80.5828239,199.755526 L81.4894924,199.755526" id="path14" fill="#FFFFFF"></path>
                            <path d="M80.4313345,189.814829 C48.720163,189.134941 28.9899869,183.918989 8.23957073,174.507598 C8.23957073,174.507598 10.521028,92.084224 10.7341563,85.0426893 C10.9609368,77.5589326 10.5452935,71.0575891 15.2318487,62.2888941 C18.67415,55.8478742 22.9803035,48.077467 44.5623692,30.6906593 C53.7528759,23.2862758 70.8661864,13.851345 80.4313345,8.76189158 L80.4063887,3.74860917 C72.3171281,7.9672527 51.4555894,19.1525208 40.9338811,27.6291225 C19.3518155,45.0159302 15.0456619,52.7863374 11.6033606,59.2273573 C6.9168054,67.9960523 6.65210719,73.9304446 6.42532669,81.4142012 C6.21219837,88.4557359 3.81735542,179.269989 3.81735542,179.269989 C24.4602278,188.857815 49.0680443,196.015008 80.4313345,195.940752 L80.4313345,189.814829" id="path16" fill="#253B7D"></path>
                            <path d="M80.4313345,16.2142618 C71.1714329,20.6370259 59.0813107,26.8031425 49.7406752,34.0170757 C26.8355721,51.7059551 25.1373943,57.095167 21.6950931,63.5361869 C17.0085379,72.3048819 17.4241812,78.8062254 17.1974007,86.2899821 C16.9842723,93.3315168 15.1563761,170.53894 15.1563761,170.53894 C37.2674753,178.816428 52.1218705,181.764575 80.4313345,183.011867 L80.4313345,16.2142618" id="path18" fill="#253B7D"></path>
                            <path d="M80.3982246,189.85066 C112.109396,189.170319 131.8393,183.954367 152.589716,174.542976 C152.589716,174.542976 150.308304,92.1200553 150.095131,85.0785206 C149.86835,77.594764 150.283812,71.0934205 145.597166,62.3247255 C142.155092,55.8837056 137.848983,48.1128448 116.266736,30.7260824 C107.076683,23.3220618 89.9969362,13.851345 80.4313345,8.76189158 L80.4231704,3.7840459 C88.5119775,8.00267581 109.37397,19.1883067 119.895678,27.6645456 C141.477471,45.0513533 145.78358,52.8221687 149.225654,59.2631886 C153.9123,68.0314301 154.17718,73.9662759 154.40396,81.4500325 C154.617134,88.4915672 157.011936,179.305367 157.011936,179.305367 C136.369467,188.893647 111.761515,196.050386 80.397771,195.976576 L80.3982246,189.85066" id="path20" fill="#100F0D"></path>
                            <path d="M80.3982246,16.2502292 C89.6581261,20.6724491 101.748702,26.8385656 111.088884,34.0524988 C133.993715,51.7413329 135.691847,57.1309983 139.133922,63.5720182 C143.820568,72.3407132 143.405106,78.8420567 143.631886,86.3258134 C143.84506,93.3673481 145.672911,170.574317 145.672911,170.574317 C123.561812,178.851806 108.707689,181.799952 80.3982246,183.047245 L80.3982246,16.2502292" id="path22" fill="#231F20"></path>
                            <path d="M37.9478169,54.4663274 L37.9478169,70.4919986 L48.2285028,70.4919986 L48.2285028,149.865175 L35.0751428,149.865175 L35.0751428,168.158651 L87.2347497,168.158651 C87.2347497,168.158651 101.21985,168.460723 110.593142,163.698332 C118.252426,159.807233 123.559997,151.854947 124.124681,141.701077 C124.653533,132.175842 121.968452,124.193622 116.414144,119.174062 C110.139581,113.50455 102.202263,112.597428 102.202263,112.597428 C102.202263,112.597428 118.076898,111.614561 125.031803,101.788162 C131.525436,92.6126226 132.099644,81.2654332 126.392486,70.6439415 C120.420448,59.5298825 105.75546,54.9942724 98.4984838,54.0871504 C91.2415076,53.1800284 37.9478169,54.4663274 37.9478169,54.4663274" id="path24" fill="#FFFFFF"></path>
                            <polyline id="path26" fill="#312827" points="37.9478169 54.5407114 37.9478169 70.528737 48.1532117 70.528737 48.1532117 149.788523 34.88628 149.788523 34.88628 168.271135 42.1432562 158.632963 60.0591882 158.632963 60.0591882 63.0449803 43.2771587 63.0449803 37.9478169 54.5407114"></polyline>
                            <path d="M72.1919452,119.399936 L72.1919452,149.334962 C72.1919452,149.334962 85.4586048,150.582255 91.0147271,148.42784 C96.5708495,146.273426 101.614901,142.009952 100.426118,133.687108 C99.1788253,124.956058 93.2825322,120.987399 87.6130195,120.080277 C82.5843886,119.27566 72.1919452,119.399936 72.1919452,119.399936" id="path28" fill="#100F0D"></path>
                            <path d="M72.3053355,101.144105 L72.3053355,70.3019565 C72.3053355,70.3019565 88.9737026,69.5082247 94.1896542,71.7760298 C99.4056058,74.0438348 105.075118,79.2597864 103.714435,88.5577871 C102.499799,96.8575 96.0038982,99.8968124 88.7469221,101.030715 C81.4899459,102.164617 72.3053355,101.144105 72.3053355,101.144105" id="path30" fill="#100F0D"></path>
                            <path d="M72.1896774,119.401296 C72.1896774,119.401296 82.5821208,119.277021 87.6112053,120.081638 C93.2807179,120.98876 99.177011,124.957419 100.424304,133.688468 C101.613087,142.011313 96.5690352,146.274786 91.0129129,148.429201 C85.4563369,150.583616 72.1896774,149.336323 72.1896774,149.336323 L60.0591882,158.632963 L82.6238484,158.632963 C82.6238484,158.632963 93.8494834,158.632963 100.312728,155.344646 C106.775972,152.056328 112.332095,145.933255 112.445485,139.583401 C112.558875,133.233547 112.558875,125.523009 105.301899,120.533838 C98.407318,115.793672 93.8494834,115.317887 89.4272636,114.183984 C85.0050437,113.050082 79.5623116,112.25635 79.5623116,112.25635 C79.5623116,112.25635 96.6842397,111.916179 106.889362,105.339544 C115.509289,99.7838757 120.949754,92.4130557 117.207875,79.5999572 C113.465997,66.7868587 100.570804,63.5080661 94.3030444,62.7048096 C85.4586048,61.5709071 60.5127492,62.7048096 60.5127492,62.7048096 L72.3030677,70.3033172 C72.3030677,70.3033172 88.9718883,69.5095854 94.1878399,71.7773905 C99.4037916,74.0451955 105.073304,79.2611471 103.712621,88.5591478 C102.497985,96.8588607 96.002084,99.8981731 88.7451078,101.032076 C81.4876781,102.165978 72.3030677,101.145466 72.3030677,101.145466" id="path32" fill="#312827"></path>
                            <path d="M80.3886998,183.026381 C108.698164,181.779089 123.552287,178.830942 145.663386,170.553454 C145.663386,170.553454 143.835535,93.3464843 143.622362,86.3049496 C143.395581,78.8211929 143.811043,72.3198494 139.124397,63.551608 C135.682322,57.1105881 133.98419,51.7209226 111.079359,34.0321339 C101.738724,26.8185636 89.6486014,20.6520842 80.3886998,16.2298643 L80.4218097,8.74148134 C89.9874114,13.8309348 107.066705,23.3016969 116.257212,30.7057175 C137.839459,48.0924345 142.145567,55.8632953 145.587641,62.3043152 C150.274287,71.0725566 149.858825,77.5739002 150.085606,85.0576568 C150.29878,92.0991915 152.580191,174.522112 152.580191,174.522112 C131.829775,183.933503 112.099871,189.149455 80.3886998,189.829796 L80.3886998,183.026381" id="path34" fill="#312827"></path>
                        </g>
                    </g>
                </g>
            </g>
        </g>
    </g>
</svg>