<?xml version="1.0" encoding="UTF-8"?>
<svg width="200px" height="200px" viewBox="0 0 200 200" version="1.1" xmlns="http://www.w3.org/2000/svg" xmlns:xlink="http://www.w3.org/1999/xlink">
    <!-- Generator: Sketch 51.3 (57544) - http://www.bohemiancoding.com/sketch -->
    <title>berry</title>
    <desc>Created with Sketch.</desc>
    <defs></defs>
    <g id="berry" stroke="none" stroke-width="1" fill="none" fill-rule="evenodd">
        <g id="berry_BGL" transform="translate(2.898551, 0.000000)">
            <g id="berry">
                <g id="g10" transform="translate(96.017500, 100.538876) scale(-1, 1) rotate(-180.000000) translate(-96.017500, -100.538876) translate(0.000000, 0.522049)" fill-rule="nonzero">
                    <g id="g12">
                        <path d="M22.7927818,199.449398 C24.8702308,199.464208 23.5467389,196.303775 23.2654469,195.378156 C21.533919,189.734102 22.5033558,182.869712 24.9672484,178.715535 C25.0089542,178.644447 25.2029894,178.600018 25.2503151,178.525968 C25.735699,177.745486 26.0933036,177.034611 26.6691978,176.348912 C26.7813005,176.214142 27.1804629,176.034943 27.2359227,175.874996 L27.2359227,175.685429 C27.3335319,175.578798 27.6859602,175.412927 27.8038307,175.307776 C28.2741296,174.884213 28.6281847,174.288855 29.1273226,173.887507 C29.7542399,173.38397 30.4301096,173.01076 31.1123387,172.560539 C31.9430521,172.014054 32.6311969,171.566795 33.5704635,171.046967 C33.7276735,170.96107 34.0349946,170.605632 34.2331708,170.573051 C34.6993286,170.499001 34.8611233,170.70634 35.0835539,170.857401 C35.7103232,171.297255 36.2094612,171.889651 36.7849117,172.372454 C37.0043845,172.559058 37.2250404,172.566463 37.4468795,172.751587 C37.6178435,172.898205 37.7420734,173.179593 37.9199883,173.318806 C38.2210979,173.564651 38.5548918,173.65351 38.8651707,173.887507 C39.1263492,174.090402 39.352773,174.448802 39.6213461,174.644293 C39.7548933,174.745 39.9524779,174.742038 40.0950465,174.833859 C40.5017515,175.109324 40.8356932,175.584722 41.2284963,175.874996 C41.4769561,176.0616 41.7317752,176.07641 41.9860028,176.254129 C42.6913031,176.759147 43.3556372,177.363391 44.0650786,177.863965 C44.4614311,178.146835 44.8663613,178.268276 45.2945107,178.525968 C45.7282801,178.792546 46.0801169,179.219072 46.5232034,179.472321 C47.0207145,179.762595 47.4717873,179.91958 47.9414946,180.229107 C48.062175,180.313523 48.1927643,180.538634 48.3193605,180.609721 C49.0200762,181.016994 49.6758325,181.25099 50.3990279,181.649377 C50.5526884,181.736755 50.8104654,182.040358 50.9675275,182.123293 C51.8127343,182.594248 52.6631175,182.88156 53.5204515,183.353996 C54.2402454,183.756826 55.0496622,184.313678 55.7885342,184.680964 C56.2523258,184.913479 56.6337411,184.940137 57.1120262,185.153399 C57.4811664,185.322232 57.8687932,185.676189 58.2472507,185.815402 C58.4834353,185.907223 58.5124223,185.809478 58.7197679,185.910185 C58.7549663,185.930919 58.952551,186.173802 59.0034261,186.194536 C59.4343855,186.39595 59.7862223,186.398912 60.2327104,186.573669 C61.1663571,186.945398 62.2328115,187.54668 63.1635003,187.897674 C64.1230283,188.26496 64.9300788,188.398249 65.905875,188.750725 C67.8400159,189.455676 69.982094,190.280588 72.0503737,190.832997 C78.2254862,192.491706 84.937745,193.606892 92.1886291,194.147453 C94.2561693,194.304438 96.4185087,194.221503 98.3335715,194.147453 C99.5178964,194.103023 101.135547,194.257046 102.59022,194.147453 C109.792447,193.609854 116.603646,192.561313 122.536658,190.738214 C123.49382,190.446459 124.333259,190.393143 125.27785,190.076211 C125.830673,189.892568 126.528578,189.503068 127.07445,189.317944 C128.688108,188.780345 130.061292,188.392325 131.614165,187.804372 C131.68752,187.777714 131.914535,187.549642 131.990848,187.520022 C132.778229,187.223824 133.419492,187.099421 134.165906,186.763236 C134.479587,186.622542 134.79445,186.336711 135.110349,186.194536 C135.468545,186.034589 135.696744,186.073094 136.056715,185.910185 C136.452476,185.733948 137.241039,185.162285 137.663865,185.058616 C137.738994,185.040844 137.868992,185.097122 137.948706,185.058616 C137.974735,185.046768 138.01792,184.883859 138.042322,184.869049 C138.562165,184.532865 139.220731,184.45141 139.743532,184.112263 L139.838923,183.922697 C140.003528,183.833837 140.12199,183.916773 140.310849,183.827913 C140.48196,183.74794 140.792091,183.442856 140.972964,183.353996 C141.472694,183.106671 142.009988,182.965977 142.485907,182.691994 C143.119183,182.324708 143.828033,181.724907 144.470331,181.366507 C145.130672,181.002184 145.730377,180.80225 146.361288,180.418674 C147.120865,179.961048 147.869054,179.270906 148.63218,178.808837 C149.152763,178.493386 149.65264,178.306782 150.143644,177.958749 C150.68641,177.573691 151.202556,177.022763 151.751238,176.631782 C152.372387,176.191928 153.048257,175.877958 153.639828,175.401079 C154.102732,175.032312 154.481337,174.528775 154.964946,174.170376 C155.12467,174.05634 155.275521,174.099288 155.438203,173.980809 C155.586096,173.874178 155.668916,173.620928 155.816808,173.508373 C155.967659,173.394337 156.134778,173.431362 156.287107,173.318806 C156.424647,173.221061 156.534088,172.951521 156.667191,172.846371 C157.273552,172.359125 157.871038,172.02294 158.462609,171.519403 C158.742126,171.285407 158.938824,170.903311 159.221299,170.667834 C159.459406,170.466419 159.74336,170.405699 159.97703,170.195398 C160.068724,170.113944 160.061329,169.902162 160.164854,169.816265 C162.25162,168.096835 164.193452,166.202648 165.93267,164.135186 C166.295007,163.701256 166.794885,163.43764 167.161659,162.999266 C168.003168,161.999598 168.775168,160.976234 169.621115,159.96916 C169.76457,159.798847 170.048524,159.677405 170.186065,159.496725 C170.301421,159.348626 170.264448,159.176831 170.376846,159.022808 C170.48185,158.87619 170.733268,158.788811 170.848624,158.643674 C171.21244,158.184567 171.437237,157.691397 171.793659,157.223405 C172.027329,156.91684 172.402977,156.672476 172.644042,156.371835 C172.996026,155.934943 173.166103,155.416596 173.495904,154.951566 C173.629007,154.764961 173.926272,154.572432 174.062333,154.384346 C174.303398,154.04668 174.389176,153.682357 174.63172,153.341729 C175.366747,152.306517 176.234877,151.223913 176.900394,150.123537 C177.16808,149.677759 177.283436,149.240867 177.561474,148.798051 C177.632463,148.682534 177.867612,148.540359 177.94008,148.418918 C178.050999,148.226389 178.014026,148.046449 178.129383,147.85081 C178.197413,147.732182 178.43552,147.594006 178.507988,147.471972 C178.820042,146.930967 178.953145,146.421358 179.265199,145.863025 C179.513658,145.406583 179.975084,144.913118 180.208754,144.442903 C180.457214,143.942477 180.51785,143.49581 180.776662,143.022633 C180.797367,142.984424 181.051743,142.762275 181.059137,142.73858 C181.102026,142.632096 181.002938,142.560416 181.059137,142.454526 C181.448095,141.697147 182.045582,140.888527 182.384256,140.087163 C182.918149,138.812771 183.326333,137.664411 183.89572,136.395202 C184.028823,136.098412 184.345313,135.676033 184.462149,135.35377 C184.788992,134.454216 184.953152,133.69121 185.314011,132.797433 C185.436762,132.489683 185.772478,132.084632 185.88044,131.755556 C185.914455,131.654849 185.859735,131.487052 185.88044,131.377163 C185.958823,130.951378 186.392149,130.196369 186.542999,129.767771 C187.022172,128.407037 187.288378,127.238536 187.677336,125.791016 L187.866639,125.602486 C188.035237,125.007128 187.984953,124.688419 188.150593,124.087877 C188.245244,123.737919 188.533635,123.220165 188.622371,122.85747 C188.822026,122.013306 188.796884,121.442977 189.000976,120.584447 C189.125206,120.055141 189.45057,119.246372 189.568884,118.691001 C189.76706,117.728949 189.761145,116.945061 189.946011,115.945393 C190.352716,113.767893 190.904355,111.114255 191.081827,108.749854 C191.192746,107.243983 191.152815,106.040086 191.271129,104.489637 C191.280003,104.343908 191.454516,103.590084 191.458953,103.448353 C191.677834,98.0779861 191.33916,91.9215096 190.703221,87.0677122 C190.531666,85.7817684 190.552371,84.8127565 190.324616,83.5660589 C189.925306,81.4023322 189.497896,79.1565586 189.000976,76.93922 C188.858999,76.3201661 188.484831,75.4801484 188.338417,74.8553186 C188.137283,74.000343 188.103267,73.4218682 187.866639,72.5830353 C187.745367,72.165248 187.42444,71.5867732 187.298731,71.1645429 C187.13457,70.6032476 187.196685,70.2938687 187.016256,69.742496 L186.826953,69.6487494 C186.616946,69.1107056 186.634693,68.697065 186.449827,68.1342887 C186.36257,67.8825204 186.057911,67.4429625 185.975091,67.1871955 C185.614233,66.1122928 185.421972,65.2907875 185.030057,64.2524652 C185.006394,64.1991496 184.768287,63.9302018 184.747582,63.8734798 C184.481375,63.2602018 184.41926,62.8061302 184.179674,62.1685639 C184.150095,62.0945144 183.925298,61.8649609 183.89572,61.7909114 C183.46831,60.792872 183.147382,59.9558164 182.761382,58.9503721 C182.73772,58.8972045 182.594264,58.9115701 182.57208,58.8548482 C182.397566,58.4788248 182.458202,58.2879252 182.288126,57.9090879 C181.878463,56.9938359 181.242524,56.027786 180.776662,55.1639244 C180.609543,54.8545455 180.646517,54.6363956 180.494187,54.3107259 C180.480877,54.2904363 180.313758,54.2488205 180.303405,54.2169792 C180.043114,53.5441653 179.751766,53.1508143 179.451543,52.6069947 C179.268156,52.2819173 179.254846,51.9879408 179.075896,51.6599014 C178.707643,51.0010089 178.116072,50.3079055 177.750777,49.6721164 C177.604363,49.4234581 177.607321,49.1659139 177.466823,48.9126646 C177.338156,48.6962919 177.023145,48.4741434 176.900394,48.2519948 C176.739191,47.9737167 176.787996,47.7573441 176.61644,47.494024 C176.560241,47.4125695 176.388685,47.3859117 176.332486,47.3043092 C175.736478,46.5181995 175.346042,45.682773 174.819544,44.8427553 C174.76926,44.767521 174.457206,44.5483344 174.442417,44.4649547 C174.290088,43.7204609 175.050256,43.2049282 175.2928,42.7606311 C175.737957,41.9403106 175.945007,41.1998155 176.332486,40.2990772 C176.359107,40.2371718 176.592777,39.9896984 176.61644,39.9202399 C177.33372,37.8584053 177.747819,35.1647803 177.94008,32.6291769 C178.157482,29.6719356 177.573306,26.7480166 176.993566,24.3935383 C176.909268,24.0557244 176.987651,23.820247 176.900394,23.4470374 C176.65785,22.4485538 176.0929,21.3308505 175.766057,20.4167833 C175.647743,20.0998514 175.699505,19.8822939 175.575275,19.5652139 C175.507245,19.3991949 175.267658,19.1637175 175.198149,18.9966618 C174.958563,18.4695773 174.889053,17.9922542 174.63172,17.4832378 L174.442417,17.3865292 C173.920356,16.5888678 173.70739,15.7267834 173.213429,14.9255677 C173.166103,14.8544802 172.973842,14.8099024 172.929475,14.7375856 C172.692846,14.3569267 172.601153,13.9733798 172.363045,13.6013847 C172.290578,13.4932132 172.151559,13.5123032 172.077613,13.4116402 C171.889789,13.1657662 171.882394,12.9054378 171.699007,12.6537879 C171.620624,12.5496595 171.401743,12.4698193 171.321881,12.370904 C171.043842,12.0330457 170.931444,11.6714767 170.659321,11.3278426 C170.057398,10.5804016 169.261735,9.92090183 168.57995,9.24577762 C168.356632,9.02651702 167.562448,7.99561452 167.350961,7.92156501 L167.161659,7.92156501 C166.803758,7.62247903 166.485789,7.17123612 166.121973,6.87908117 C165.697521,6.53833494 165.231659,6.35784666 164.798333,6.02635661 C164.709597,5.95925295 164.70664,5.80826599 164.607551,5.7417251 C164.310287,5.55082546 164.057391,5.55660132 163.757168,5.36396892 C163.306096,5.07702706 162.815092,4.58933698 162.338877,4.32321784 C161.970624,4.11842651 161.571314,4.05652112 161.206019,3.84884186 C160.709099,3.57635446 160.139712,3.13205739 159.598425,2.90297782 C159.165099,2.72074197 158.801283,2.70569511 158.369437,2.5223189 C158.189008,2.44826939 157.979,2.21569468 157.803008,2.14454791 C156.951146,1.8246244 156.216119,1.75925349 155.345031,1.48099024 C155.112839,1.4098331 154.673598,1.15818028 154.398517,1.10206556 C152.898885,0.807024162 151.363759,0.425205626 149.861169,0.25049617 C145.811275,-0.211735693 140.845924,-0.00289256646 137.190164,0.631156571 C135.689201,0.893222237 133.959004,1.44975023 132.558608,1.76677692 C131.370882,2.03924951 130.474356,2.18157267 129.344899,2.5223189 C128.657494,2.73230851 127.845711,3.15751562 127.169841,3.37388829 C124.811692,4.14215197 122.663698,4.81321827 120.456843,5.7417251 C119.575846,6.1148754 118.586887,6.67660019 117.713877,7.06884045 C117.337342,7.24065013 117.145525,7.18280265 116.770025,7.3517244 C115.488683,7.92908844 114.164452,8.76907648 112.893609,9.34064985 C111.953012,9.76296903 110.994075,10.0261854 110.152418,10.5711454 C110.144875,10.5775137 110.057027,10.7591571 110.057027,10.7591571 C109.733438,10.922303 109.500655,10.8852782 109.206052,11.0437886 C109.137874,11.0819686 108.979629,11.3012292 108.922986,11.3278426 C108.609897,11.4851978 108.358627,11.4522161 108.070828,11.6124741 C107.595353,11.876268 107.032769,12.2980096 106.559069,12.5600709 C106.307651,12.6966034 106.042036,12.686192 105.803337,12.8429696 L105.708094,13.0309813 C105.516277,13.1351098 105.416302,13.0385048 105.235429,13.1275863 C104.875014,13.3069342 104.454407,13.693369 104.100944,13.8842835 C102.884822,14.5478411 101.716174,15.0159081 100.50863,15.6833904 C100.262093,15.8199377 99.9985477,16.1161358 99.7518626,16.2520907 C99.255091,16.521779 98.7293324,16.6402582 98.2401033,16.9145376 C97.7085769,17.2107356 97.1567891,17.6637706 96.6323616,17.9552294 C95.4647486,18.6043475 94.3040865,19.0116198 93.1336636,19.6583682 C92.7136483,19.8926609 92.2325532,20.2866043 91.8095801,20.5117148 C91.4756383,20.6922475 91.2960966,20.618198 90.959197,20.7963611 C90.5987824,20.9884455 90.1821686,21.3650614 89.8239725,21.552999 C89.4929886,21.7289407 89.2983618,21.6774022 88.9741809,21.8358682 C88.7056077,21.9736002 88.3768422,22.2727603 88.1232062,22.4045684 C87.9389319,22.5023138 87.8210614,22.4266352 87.6495059,22.4994999 C87.6177089,22.5140136 87.5797005,22.6810693 87.5558898,22.6886223 C86.5275917,23.0843429 85.7141818,23.4649574 84.7194554,23.9197695 C84.6864753,23.9341351 84.648319,24.1013389 84.6246561,24.108892 C84.2318531,24.2627669 83.9129964,24.274911 83.5842309,24.4884698 C83.5553918,24.5057974 83.5114676,24.6688544 83.4900232,24.6764074 C82.6950998,25.0524309 82.0215964,25.179796 81.2213489,25.5309388 C81.1497689,25.5632244 80.993742,25.7871501 80.9376907,25.8138079 C80.3160976,26.1054149 79.7793949,26.2314472 79.1416815,26.4756625 L79.0462907,26.6665621 C78.6564455,26.8250281 78.3849145,26.8029613 78.0064571,26.9494312 C76.7742149,27.4399352 75.4656602,28.1105276 74.2248403,28.5576385 C73.3883591,28.8642035 72.7296449,28.9400302 71.8613668,29.2228994 C71.2588519,29.4195749 70.5730733,29.7961907 69.9693753,29.9796854 C64.6551463,31.6115885 58.7931227,33.185733 51.5342524,32.5360226 C49.0552746,32.3150589 46.6122349,31.6798622 44.5375958,30.9260381 C44.3666318,30.8670947 44.0448173,30.6119201 43.8762196,30.5472008 C42.8189346,30.1485183 41.8882457,29.8401761 40.9448381,29.3160536 C40.6468342,29.1546257 40.298399,28.815627 39.9998036,28.6541991 C39.792458,28.5443096 39.627114,28.5888874 39.4324871,28.4632995 C39.1903868,28.3135714 38.924032,27.9582818 38.6763117,27.8026297 C38.4457469,27.6604547 38.2395845,27.6811885 38.0147876,27.5181315 C37.863937,27.4098711 37.7778634,27.1600281 37.6363301,27.0442146 C37.2995784,26.7776364 36.9206772,26.6607862 36.5964964,26.3825082 C36.421983,26.2354459 36.2943516,25.9601298 36.1233876,25.8138079 C35.3879171,25.1959388 34.5456681,24.581476 33.948921,23.824838 C33.8131555,23.661781 33.798662,23.4263036 33.6652628,23.2561378 C33.1337363,22.5966528 32.4342038,21.9909278 31.9633134,21.2683527 C31.6772889,20.8345707 31.5675525,20.4052316 31.3017893,19.9430145 C31.2308008,19.8261644 30.9922498,19.6868032 30.9234797,19.5652139 C30.5774107,18.967042 30.1319579,18.0784478 29.8840897,17.4832378 C28.8587495,15.0499709 28.2324238,12.3720592 27.9920982,9.15090539 C27.8477549,7.2418053 28.4063456,5.0885936 27.7090315,3.56305517 C27.4607196,3.02850656 26.7755327,2.4390132 26.1012898,2.33429238 C23.6021986,1.95769137 21.2768815,4.33016368 20.0509987,5.36396892 L19.8615482,5.36396892 C19.6997535,5.42066123 19.5224302,5.81867735 19.3894746,5.93263955 C18.7193727,6.50131018 18.050454,6.95197551 17.4034233,7.54148368 C17.2907291,7.64330175 17.2203321,7.8995723 17.1197651,8.01354931 L16.9313498,8.01354931 C16.9128632,8.02396067 16.7649705,8.36586208 16.7418992,8.3913203 C16.4963973,8.68577078 15.2052939,9.69759812 15.134749,9.90758773 L15.134749,10.097347 L14.9452985,10.097347 C14.9452985,10.097347 14.0977549,11.0380128 14.094871,11.0437886 C13.7927262,11.4007369 13.6309759,11.8137851 13.3386512,12.1811447 C13.2288852,12.3188324 12.9689194,12.4183401 12.8655128,12.5600709 C12.7540165,12.7145381 12.7921432,12.8828823 12.6765946,13.0309813 L12.4871145,13.0309813 C12.4871145,13.0309813 12.2184821,13.5794068 12.204033,13.6013847 C11.8793641,14.056108 11.3617396,14.4558568 11.0688529,14.9255677 C11.0070337,15.0233131 11.0370708,15.2142127 10.9746748,15.3045531 C10.8481674,15.4914541 10.5373561,15.6897587 10.4073731,15.8720686 C9.57432306,17.0475305 8.96311204,18.3017812 8.23346853,19.5652139 C8.10925344,19.7769955 7.78112387,20.0188412 7.66557529,20.2258837 C7.48591522,20.5562926 7.45933889,20.947274 7.28775376,21.2683527 C7.09827362,21.6254194 6.70890167,22.0506117 6.53097194,22.4045684 C6.49283041,22.4827647 6.54945853,22.61635 6.53097194,22.6886223 C6.4627934,22.9640865 6.08208797,23.3104901 5.96423226,23.5431537 C5.90819571,23.6472673 6.0052577,23.7195396 5.96423226,23.824838 C5.94055464,23.8809676 5.79554583,23.8658615 5.7753289,23.9197695 C5.57428354,24.4393009 5.50091396,24.7307598 5.30219052,25.2462925 C5.27907489,25.3012372 5.13406608,25.2861311 5.11269558,25.3400392 C4.57197023,26.6607862 4.21724955,27.9051142 3.69443401,29.2228994 C3.67131838,29.2790289 3.4431347,29.5087305 3.41135256,29.5989228 C3.1011328,30.4419024 3.01794314,31.1806204 2.74871924,32.0616614 C2.64878813,32.3815553 2.3651299,32.7963807 2.27615764,33.1047229 C2.09071497,33.7411044 2.13174041,34.0390796 1.99309098,34.714115 C1.80128892,35.6461021 1.33161271,36.8748797 1.14270195,37.8375234 C0.660895577,40.2783434 0.273832238,43.2049282 0.102253912,45.506387 C-0.163490961,49.0444727 0.146737379,52.7272511 0.385908297,55.9207104 C0.418259829,56.364415 0.329292007,56.8087121 0.385908297,57.2454561 C0.545354392,58.521033 0.970545953,60.0814043 1.14270195,61.3164021 C1.17505348,61.5697995 1.09475217,61.8313424 1.14270195,62.0743729 C1.17158835,62.2409843 1.39111587,62.5937562 1.42577896,62.7366717 C1.62335919,63.6178609 1.59678287,64.2367667 1.80417283,65.104627 C1.8746585,65.4066009 1.97285926,65.8172795 2.08725428,66.241287 L2.27615764,66.4305576 C2.74352821,68.3442932 3.19009027,69.9421335 3.78917408,71.7325026 C4.02314036,72.4413046 4.64649337,73.4294212 4.82903735,74.0974959 C4.85561367,74.2073854 4.79091061,74.3735525 4.82903735,74.4776661 C4.85561367,74.5545295 5.09478577,74.7860083 5.11269558,74.8553186 C5.34089404,75.9672461 4.54308678,77.6449119 4.35705253,78.5474273 C4.0491399,80.018643 3.9584373,81.158265 3.69443401,82.7144895 C3.63319163,83.0743702 3.38189233,83.6614347 3.31718927,84.0404201 C3.18142375,84.8231234 3.25767724,85.4085589 3.12769433,86.2155505 L2.93879096,86.596313 C2.92724054,86.8346044 3.05606989,86.7350818 3.03295425,86.9751503 L2.84405089,87.3523586 C1.57656594,98.607292 2.32988707,108.491865 4.26231246,118.974462 C4.33856595,119.395063 4.64649337,120.086834 4.73545084,120.489515 C4.98964884,121.670901 5.09478577,122.58719 5.39750737,123.708447 C5.55001434,124.293883 5.94055464,125.02801 6.05898713,125.602486 C6.09075448,125.770726 6.01102552,125.913049 6.05898713,126.07507 C6.13812452,126.368898 6.43390995,126.82371 6.53097194,127.116354 C6.87989523,128.197033 7.01623753,129.078074 7.38250863,130.146608 C7.53213169,130.590313 7.89031306,131.134725 8.04397359,131.566878 C8.07921643,131.673361 8.01451336,131.83938 8.04397359,131.945271 C8.11215213,132.199261 8.42179512,132.646372 8.51711197,132.892216 C8.71700377,133.43026 8.78286039,133.87115 8.98911158,134.407417 C9.00932851,134.462954 9.15549088,134.44844 9.17859172,134.501164 C9.29933134,134.806544 9.23751218,135.05535 9.36749509,135.35377 C9.3790603,135.386204 9.624577,135.584656 9.65057654,135.637824 C9.74243271,135.856566 9.66039662,135.984375 9.74531661,136.205339 C10.005874,136.901405 10.4934467,137.637161 10.7857715,138.288648 C11.0902234,138.972421 11.2115398,139.522017 11.5419913,140.182094 C11.8516343,140.809145 12.2069317,141.353557 12.4871145,142.07554 C12.4871145,142.08487 12.6765946,142.170472 12.6765946,142.170472 C12.7095303,142.531389 12.5177283,142.558047 12.3929512,142.73858 C12.0382305,143.247596 11.5506578,143.605699 11.163593,144.063918 C10.5847261,144.751245 10.1947774,145.518843 9.65057654,146.241418 C9.60666719,146.29814 9.40909731,146.371597 9.36749509,146.43054 C9.28547379,146.549167 9.34727816,146.690898 9.2733318,146.808933 C9.08673556,147.108686 8.69390292,147.458051 8.51711197,147.756619 C8.32705504,148.075328 8.3160814,148.380412 8.13872846,148.703268 L7.94923352,148.798051 C7.74818816,149.104616 7.76957345,149.43932 7.57083521,149.744404 C7.55640088,149.7681 7.39348227,149.812529 7.38250863,149.839187 C7.28198595,150.06726 7.39348227,150.182777 7.28775376,150.407887 C7.09827362,150.803312 6.70254228,151.212065 6.53097194,151.63859 C6.43969256,151.859258 6.51882995,151.983661 6.43679386,152.20581 C6.22652,152.758219 5.78976323,153.433551 5.58525718,154.005213 C5.46741626,154.32955 5.50091396,154.624267 5.39750737,154.951566 C5.36689358,155.046349 5.13118217,155.351433 5.11269558,155.425482 C5.06878623,155.591353 5.16006562,155.735009 5.11269558,155.897918 L4.92379221,156.087485 C4.4246543,157.940204 4.0612671,159.764784 3.88449094,161.768564 C3.61239792,164.810518 3.67998489,167.791751 4.07283231,170.667834 C4.14099607,171.192104 4.47144755,172.028864 4.54597069,172.560539 C4.57831483,172.812308 4.49860065,173.075924 4.54597069,173.318806 C4.57197023,173.478753 4.79438609,173.844558 4.82903735,173.980809 C5.04799252,174.912352 5.06878623,175.70172 5.39750737,176.538479 L5.58525718,176.726565 C5.77994315,177.381163 5.74181641,177.738081 5.96423226,178.336401 C6.14100843,178.825128 6.53963846,179.472321 6.72045209,179.946238 C6.90358764,180.434965 6.90877868,180.80225 7.09827362,181.271724 C7.35823943,181.935208 7.86083804,182.620906 8.13872846,183.259213 C8.22653236,183.472476 8.20343152,183.73313 8.32705504,183.922697 L8.51711197,184.01748 C8.72913097,184.433638 8.77073319,184.833506 8.98911158,185.248183 C9.08673556,185.440712 9.4790062,185.809478 9.55641325,186.004969 C9.59453999,186.1116 9.49749279,186.191574 9.55641325,186.289319 C9.6124498,186.390026 9.7788291,186.384102 9.84007148,186.477405 C9.99663071,186.735097 9.97639898,186.975017 10.1242917,187.235672 C10.2421474,187.454858 10.5633556,187.697741 10.6916082,187.897674 C11.1046577,188.570044 11.3617396,189.260185 11.8250579,189.886644 C12.0532564,190.200614 12.4339618,190.440535 12.6765946,190.738214 C12.8181427,190.920375 12.815244,191.126233 12.9602529,191.306914 C13.1526317,191.552758 13.5125434,191.733439 13.7164727,191.970397 C13.9209787,192.216242 13.9827979,192.484301 14.1896111,192.727184 C14.3663872,192.940446 15.1578203,193.475084 15.2295483,193.673536 L15.2295483,193.863103 L15.4184073,193.863103 C16.1481099,194.702824 16.8452762,195.407776 17.6882647,196.136423 C17.7373651,196.182334 17.7171038,196.3719 17.7811413,196.419292 C18.8962524,197.266419 21.0764868,199.439031 22.7927818,199.449398" id="path14" fill="#20377D"></path>
                        <path d="M155.627506,72.6772263 C152.696272,72.4586321 150.220548,71.6590455 148.064272,70.6900336 C147.546648,70.4587029 147.107554,70.3933913 146.645389,70.1231105 C146.326533,69.9391715 145.997324,69.5677392 145.699763,69.3635106 C145.046965,68.9267666 144.415463,68.6190169 143.809547,68.1342887 C143.677774,68.030027 143.56227,67.7668551 143.430498,67.6597795 C143.235871,67.509459 143.052632,67.5325624 142.863181,67.3763179 C142.399833,67.0060704 142.086153,66.4363334 141.634488,66.0503874 C141.093645,65.5991297 140.525293,65.2173304 140.026747,64.7256416 C138.788589,63.5020475 137.663865,62.0568972 136.340964,60.939342 L136.150331,60.939342 C135.977,60.8796581 135.480081,60.1449388 135.299948,59.9916563 C134.222401,59.0823283 133.131692,58.0594084 131.990848,57.2454561 C131.258188,56.7248881 130.508963,56.3863337 129.723357,55.9207104 C128.662079,55.2988426 127.49905,54.7619836 126.317683,54.2169792 C126.322268,54.2169792 126.317683,53.9480314 126.317683,53.9317405 C126.459217,53.9144129 126.670112,53.8437697 126.697916,53.8379938 C128.26336,53.479298 130.463856,54.0965747 131.614165,54.3107259 C135.832509,55.1021671 139.607767,56.5772333 142.863181,58.380487 C143.204074,58.5713867 143.573806,58.9503721 143.903015,59.1400869 C144.550045,59.5161104 145.139398,59.7243376 145.793971,60.0871802 C146.784704,60.6395896 147.815812,61.4455444 148.913176,61.8851023 C149.300655,62.0443088 149.56982,62.0268331 149.954341,62.1685639 C150.516333,62.3855289 151.229176,62.7760661 151.84441,62.9275714 C153.904556,63.438513 156.622824,63.7548525 159.125168,63.4944944 C160.849598,63.3169237 162.463107,62.7963556 164.137253,62.5475493 C164.830869,63.4413269 165.277505,64.4288512 165.459413,65.8606725 C166.154509,71.3524805 161.132073,73.0920517 155.627506,72.6772263" id="path16" fill="#FFFFFF"></path>
                        <path d="M159.125168,108.086814 C158.174218,101.071808 157.221789,94.0764985 156.384716,86.9751503 C156.14513,84.9602631 155.757651,82.8950222 155.532854,80.7255196 C155.436724,79.8028627 155.154249,78.9831346 155.154249,77.8849804 C156.890509,77.6940807 158.881145,77.8849804 160.731283,77.8849804 C163.663996,77.8909043 166.997498,77.7913818 170.091413,77.7913818 C170.116555,77.9862801 170.299942,77.9516249 170.280716,78.262781 C170.271842,78.3652655 170.024862,78.7343283 169.998241,78.832666 C169.950915,78.9975002 170.038172,79.139231 169.998241,79.30525 C169.906547,79.662761 169.545689,80.3466823 169.430333,80.7255196 C169.042854,81.9867309 168.859467,83.0483047 168.57995,84.4164435 C168.537061,84.6304466 168.245712,85.1760434 168.201344,85.3639811 C168.156977,85.5578427 168.230923,85.7383754 168.201344,85.9320889 C168.177682,86.072783 167.94549,86.4806477 167.91739,86.596313 C167.788724,87.1343568 167.844923,87.4767617 167.731046,88.0165827 C167.637873,88.4359991 167.33913,89.1024447 167.25631,89.5304509 C166.737207,92.1586162 166.283176,94.5578204 165.554065,97.0106364 C165.521528,97.1135652 165.29821,97.4057646 165.27159,97.4838128 C165.067498,98.0895378 165.09264,98.4888127 164.892984,99.093353 C164.805728,99.3443808 164.508463,99.7052981 164.419728,99.94433 C164.381276,100.051257 164.446348,100.217276 164.419728,100.324352 C164.335429,100.643061 163.980486,101.08099 163.853299,101.3646 C163.672869,101.761949 163.65808,102.039635 163.474693,102.407069 C163.312011,102.728592 163.119751,103.211098 162.906785,103.542692 C162.891996,103.564018 162.727835,103.610817 162.718961,103.636883 C162.67903,103.743959 162.775161,103.823191 162.718961,103.920937 C162.603605,104.116576 162.26641,104.383154 162.151053,104.583384 C161.487015,105.73515 160.786004,106.628335 159.8809,107.518706 C159.778854,107.619414 159.625046,107.918426 159.503774,107.991439 C159.406165,108.054973 159.221299,108.027871 159.125168,108.086814" id="path18" fill="#FFFFFF"></path>
                        <path d="M122.064585,111.212 C122.00809,111.078859 121.818491,111.125214 121.779891,111.022137 C121.552728,110.456991 121.836386,109.542924 121.779891,108.749854 C121.712304,107.880364 121.556277,106.632482 121.496825,105.814975 C121.45926,105.323286 121.556277,104.793981 121.496825,104.299922 C121.466654,104.074812 121.250139,103.578532 121.21361,103.352829 C120.832343,100.963547 120.581073,99.1049047 119.984917,97.0106364 C119.741634,96.1763946 119.241904,95.3114963 118.945084,94.5478977 C118.711117,93.9618699 118.645749,93.4932846 118.377176,92.9396904 C118.111412,92.3986847 117.634754,91.8474601 117.337342,91.3297059 C117.157061,91.02477 117.151293,90.7731498 116.958884,90.4763594 C116.837612,90.2958267 116.518608,90.0905614 116.390976,89.9094363 C116.195166,89.6317506 116.122995,89.3251857 115.919051,89.0560897 C115.085971,87.9714125 114.034602,87.0069916 112.987078,86.1229886 C112.266692,85.5144497 111.605316,84.7652167 110.812019,84.2283578 C110.524368,84.0364214 110.269105,84.0364214 109.962819,83.8495205 C109.861809,83.7933909 109.867577,83.6297415 109.772186,83.5660589 C109.468858,83.3797503 109.217588,83.3827123 108.922986,83.1870735 L108.827595,82.9979511 C108.719042,82.9573719 108.645687,83.0540806 108.544528,82.9979511 C108.252884,82.8399294 107.88892,82.4830108 107.598902,82.333875 C107.521998,82.2990718 107.38919,82.3557937 107.317019,82.333875 C106.892419,82.2353892 106.313419,81.7367398 105.897544,81.5776814 C104.907994,81.20462 104.139544,81.0380086 103.060371,80.7255196 C102.709717,80.624368 102.275356,80.3570493 101.925886,80.2511585 C101.470524,80.1227566 101.178879,80.1673344 100.698228,80.0630727 C100.385583,80.0013154 99.8490282,79.744956 99.5641868,79.6830506 C97.6306374,79.2879224 95.4375363,79.0814724 93.4173218,78.9280418 C89.7160108,78.6503561 86.0747442,78.8037867 83.017506,79.0217885 C81.7471075,79.1131656 80.5558317,79.4007739 79.1416815,79.4007739 C78.709539,76.5041051 79.0492486,72.5163908 80.2751313,70.5003188 C80.5148654,70.1069677 80.9376907,69.8135836 81.2213489,69.4590345 C81.3479451,69.3016053 81.3571144,69.1222573 81.5050072,68.9864505 C82.0365336,68.4975757 82.6777964,68.2545452 83.3011642,67.8478652 L83.3959634,67.6597795 C83.8627128,67.4244501 84.309201,67.3647662 84.7194554,67.0928564 C85.1301534,66.8209466 85.4368829,66.06031 84.8141067,65.7669259 C84.131286,65.4499939 82.0215964,66.2251442 81.4103558,66.4305576 C78.709539,67.3347021 76.8753736,68.7098016 75.453533,70.8793042 C75.3119996,71.0950844 75.011038,71.3264151 74.8862165,71.541603 C74.5084985,72.1953121 74.3554296,72.8306569 74.0358334,73.5287957 C74.0208962,73.5624142 73.8557001,73.6028452 73.8469744,73.6260967 C73.5448296,74.4099849 73.2293744,75.2285282 72.9954081,75.9903496 C72.7326028,76.849472 72.4783752,77.7016338 72.3340319,78.5474273 C72.2450005,79.0478539 72.3282641,79.4441669 72.1444334,79.8739503 C72.1006572,79.9734728 71.9001147,80.0630727 71.8613668,80.1574118 C68.0588971,80.1574118 64.3506352,80.7428472 60.326918,80.4420581 C56.5747319,80.1631877 53.0767734,79.7929401 49.832303,79.0217885 C49.4568034,78.9350024 48.8773597,78.648727 48.508811,78.5474273 C48.0865773,78.4345758 47.8617804,78.4954445 47.4689774,78.3594896 C47.3002318,78.3033601 46.9726494,78.035449 46.8074532,77.9805042 C46.4353552,77.859063 46.2043467,77.9168217 45.8612356,77.7913818 C45.5925146,77.6958579 45.2667069,77.4181722 45.0108525,77.3170206 C44.699982,77.202392 44.4671989,77.2561519 44.1598778,77.1271577 C43.1880748,76.7367686 42.1182189,76.0916493 41.2284963,75.6132894 C41.1257108,75.5593814 41.0517645,75.6577192 40.9448381,75.6132894 C40.915999,75.6045516 40.8686733,75.4379402 40.8507783,75.4234265 C40.56993,75.2440786 40.0564465,74.9954203 39.8109446,74.8553186 C38.2718251,74.003305 36.7646504,73.2962802 35.3672121,72.2995738 C35.0066497,72.0449916 34.6784758,71.6255751 34.326639,71.3524805 C32.1827862,69.7106548 30.2850268,68.0126994 28.5594146,65.9561964 C28.3942184,65.764112 27.8835449,65.5268573 27.8038307,65.2925647 L27.8038307,65.104627 C27.5410254,64.7933229 27.1122844,64.5705819 26.8586484,64.2524652 C26.7015863,64.0631947 26.7258407,63.8792557 26.5739549,63.6843574 C26.3294882,63.3788291 25.9597564,63.1445364 25.7241633,62.8321956 C25.1984047,62.1494591 24.8286729,61.4350294 24.3058722,60.7484423 C23.8979841,60.2173592 23.3595067,59.6936811 22.9822324,59.1400869 C22.9164201,59.0487098 22.9464423,58.8595874 22.887581,58.7612496 C22.787014,58.6020432 22.5178492,58.4557214 22.4150638,58.2879252 C22.1751818,57.9148637 22.0868899,57.5213646 21.8471558,57.1511171 C21.7408209,56.9938359 21.4780156,56.8475141 21.3744907,56.6785331 C20.8540562,55.8639884 20.5212976,55.0685486 20.0509987,54.2169792 L19.8615482,54.1214553 C19.6581957,53.8073373 19.6848164,53.4920345 19.4836823,53.1739178 L19.2942317,53.0801711 C19.249716,52.9732436 19.3479168,52.8991941 19.2942317,52.7967096 C19.2942317,52.7967096 19.1093658,52.7071096 19.1059643,52.7023705 C18.9400286,52.4479364 18.9614731,52.2251954 18.8217145,51.9445478 C18.6241298,51.550012 18.4172279,51.0218909 18.1601904,50.6186172 L17.9713314,50.5236857 C17.7759651,50.1344815 17.7731551,49.7925209 17.5934655,49.3892472 C17.2028808,48.5243489 16.6234371,47.5264577 16.2699735,46.6424546 C16.1421942,46.3283366 16.1954356,46.10915 16.0803751,45.7908852 C15.4651414,44.0982615 14.7297744,42.1903018 14.2831976,40.2990772 C13.2883972,36.1037281 13.0099448,30.4932928 14.0001309,26.0978619 C14.26934,24.8967788 14.7922295,23.5390069 15.2295483,22.4045684 L15.4184073,22.3108217 C15.548405,22.0060339 15.4651414,21.852159 15.6072663,21.552999 C15.7048755,21.3424022 16.0596701,21.0034035 16.1745827,20.7963611 C16.2900869,20.5839871 16.2393597,20.4406273 16.3635896,20.2258837 C16.4258525,20.1195486 16.6945735,19.9678952 16.7418992,19.8482312 C16.7806471,19.749301 16.68008,19.6583682 16.7418992,19.5652139 C16.8043099,19.4674686 17.0498118,19.3790535 17.1197651,19.2823448 C17.3623091,18.949122 17.4368471,18.5713214 17.6882647,18.2380986 C17.7880923,18.1080676 18.0532639,17.9922542 18.1601904,17.8620752 C18.292998,17.6948714 18.3074915,17.4605787 18.443257,17.293523 C18.9372187,16.6744691 19.5991865,16.1647122 20.145798,15.5874222 C20.3231213,15.4005213 20.4877259,15.0644846 20.7131144,14.9255677 C20.8077658,14.8660319 20.9932232,14.8943188 21.0908324,14.831821 C21.4843749,15.6748007 21.5992876,16.6090093 21.9418071,17.5763921 C22.0695864,17.9408638 22.4115144,18.4486954 22.5091236,18.8067988 C22.5363358,18.9178731 22.4709673,19.0838921 22.5091236,19.1863766 C22.7339205,19.8291264 23.1855849,20.4822431 23.4543059,21.0786378 C24.1405281,22.613388 24.7992423,24.0406183 25.7241633,25.3400392 C26.9880545,27.12404 28.441692,28.7491306 29.9777058,30.2653684 C30.1613885,30.4459011 30.4982881,31.0354833 30.7340291,31.1169378 L30.9234797,31.1169378 C30.982341,31.1672914 30.964446,31.3553772 31.0187226,31.399955 C31.2457379,31.6000368 31.4550061,31.7823467 31.6802467,31.9674705 C32.1233333,32.3445306 32.6397747,32.5493515 33.0985379,32.915008 C33.227944,33.0203064 33.3406382,33.2882176 33.4762559,33.387592 C34.0199095,33.8006402 34.5929938,34.0598135 35.1782053,34.430061 C35.5554796,34.6713143 35.9102742,35.0594819 36.3122466,35.2800013 C36.7849117,35.5467277 37.2516611,35.6785358 37.7305378,35.943485 C37.8720711,36.0280495 38.0356404,36.2490132 38.203055,36.3230628 C38.463642,36.4427268 38.6282465,36.390744 38.8651707,36.5110004 C38.8651707,36.5110004 38.9542021,36.697309 38.9599699,36.700271 C39.3730343,36.9715884 39.792458,36.9831401 40.2834618,37.1758169 C40.5856066,37.2954809 41.019376,37.6287037 41.3244787,37.7433324 C41.9142748,37.9712568 42.4169622,38.0156865 43.0246533,38.215324 C43.8704518,38.5011551 44.9836403,38.9413054 45.8612356,39.1634539 C46.2188402,39.2549791 46.4434893,39.1843359 46.8074532,39.257793 C47.9830524,39.5054146 49.4776562,39.899358 50.7786685,40.0150233 C54.6006599,40.356984 58.2645541,40.2441325 61.8394168,39.7305251 C62.864757,39.5852399 64.0935976,39.1843359 65.0543087,38.9737391 C66.6111753,38.6377024 67.8400159,38.4496166 69.3085906,38.0273863 C69.6608711,37.9249018 70.1711009,37.6454389 70.5378749,37.5534694 C70.8567316,37.476606 70.9797783,37.5582086 71.2940503,37.4586861 C71.9440388,37.2572714 72.7799284,36.7343337 73.4686648,36.6059319 C73.5742602,36.5891967 73.7430058,36.6411795 73.8469744,36.6059319 C74.0121706,36.553801 74.3433024,36.2900367 74.5084985,36.2281313 C75.3091897,35.9394863 75.9741153,35.8578837 76.778208,35.5656843 C77.5899912,35.2712635 78.52349,34.7367741 79.3305405,34.430061 C82.5120087,33.2227578 85.4195795,31.9408126 88.4062729,30.5472008 C88.4744514,30.5187658 88.6310698,30.2938034 88.6899311,30.2653684 C88.7374047,30.2404877 88.9204959,30.2775125 88.9741809,30.2653684 C89.2751426,30.1913189 89.6241694,29.8210713 89.9193633,29.6968162 C90.1851265,29.5873711 90.341597,29.6215819 90.5808874,29.5057685 C92.0083479,28.8319179 93.4642038,27.9831624 94.835613,27.2340776 C95.1538781,27.0633194 95.3556037,27.12404 95.6859961,26.9494312 C96.2683976,26.6444954 96.8969416,26.1215577 97.4831884,25.8138079 C97.6797378,25.7102867 97.7604872,25.8166218 97.9552619,25.7170993 C97.981291,25.7067323 98.0256589,25.5441196 98.0494696,25.5309388 C98.5347056,25.215636 99.0424213,25.1455851 99.5641868,24.8655299 C99.7836596,24.7486798 100.09453,24.4154569 100.317996,24.2986068 C100.487333,24.2112284 100.63005,24.2864627 100.791844,24.2054525 C101.003774,24.098525 101.334758,23.7547872 101.548611,23.6369004 C102.399586,23.1659455 103.244201,22.8812992 104.100944,22.4045684 C104.323227,22.2801652 104.631731,21.9644181 104.857711,21.8358682 C104.959905,21.7809234 105.897544,21.2683527 105.897544,21.2683527 C105.969125,21.2522099 106.103855,21.3111533 106.18002,21.2683527 C106.762421,20.9635649 107.392,20.4585472 107.977212,20.1327294 C108.405953,19.8974 108.889414,19.8301631 109.301443,19.5652139 C109.321557,19.5536622 109.364889,19.3894204 109.394911,19.3760915 C109.575784,19.2881206 109.676943,19.3848293 109.867577,19.2823448 C110.115888,19.1505367 110.443471,18.8513766 110.718551,18.7136445 C111.045986,18.5494027 111.354046,18.5342966 111.664177,18.3348072 L111.759568,18.1450924 C111.865311,18.1033285 111.938666,18.2000371 112.044262,18.1450924 L112.136695,17.9552294 C112.539406,17.6948714 113.031593,17.6122321 113.460926,17.3865292 C113.806403,17.2077737 114.12807,16.8641839 114.50076,16.7248227 C114.706922,16.6478113 114.811482,16.7369669 114.97446,16.6298913 C114.994721,16.6183395 115.038054,16.4551344 115.068668,16.4419536 C115.38575,16.2891154 115.625484,16.3261402 115.919051,16.1578997 C115.98368,16.1190977 116.122995,15.9119072 116.202117,15.8720686 C116.677592,15.642367 117.047324,15.6331848 117.526792,15.4005213 C117.793591,15.2703422 118.099877,14.9580014 118.377176,14.831821 C120.763129,13.7419751 123.017901,12.8192442 125.563874,11.895358 C126.057688,11.7160249 126.670112,11.3220519 127.169841,11.1398308 C127.770581,10.9194151 128.258775,10.8765996 128.871199,10.6660176 C129.049114,10.6052822 129.444875,10.3403183 129.627966,10.2853587 C129.928336,10.2026306 130.082588,10.2853587 130.38355,10.1922192 C131.374431,9.88387707 132.653999,9.32271506 133.693241,9.05601834 C136.562212,8.32594939 139.633796,7.73644123 142.863181,7.44661144 C145.424239,7.21809465 148.117514,7.56925224 150.143644,7.92156501 C150.624295,8.00602588 150.909728,7.90999848 151.372632,8.01354931 C151.729054,8.09685501 152.336893,8.39594099 152.696272,8.48908047 C155.197138,9.13181542 157.266157,9.95503865 159.221299,11.1398308 C159.817306,11.5042877 160.36303,12.0683377 160.922065,12.4640435 C161.099536,12.5942077 161.31546,12.6092397 161.489973,12.7480826 C162.211689,13.3347028 162.897912,14.0856093 163.569345,14.7375856 C163.637375,14.8070144 163.755689,15.0841818 163.853299,15.1148383 L164.041122,15.1148383 L164.041122,15.3045531 C164.118027,15.5352914 164.996509,16.1057688 165.082287,16.3458373 L165.082287,16.5349598 C165.562938,17.1406848 166.198877,17.748187 166.593751,18.4295906 C166.706149,18.6234522 166.667697,18.8039849 166.783053,18.9966618 C167.00785,19.3894204 167.407161,19.8233505 167.633436,20.2258837 C167.859712,20.6389318 167.90408,21.0091794 168.108172,21.4582156 C168.213176,21.699469 168.479383,21.9707864 168.57995,22.2166307 C168.667207,22.4370021 168.597697,22.5596281 168.673122,22.785331 C168.88313,23.4175657 169.319413,24.1950856 169.526463,24.8655299 C169.961268,26.3026828 170.128387,27.6053618 170.280716,29.3160536 C170.487766,31.6619422 170.512908,34.3711176 169.902111,36.4172537 C169.871053,36.5215154 169.647735,36.8141591 169.621115,36.891763 C169.467306,37.3522029 169.520547,37.7015685 169.335682,38.1203925 C169.141942,38.5646896 167.68372,40.9909959 167.350961,41.0574923 C167.17349,41.092888 167.312509,40.8856975 167.065528,40.9609318 C167.189758,40.1099548 167.377582,39.2920039 167.445613,38.4050388 C167.686678,35.1277555 166.584877,32.5238785 165.554065,30.4522694 C165.363283,30.0716549 165.307084,29.6805253 165.082287,29.3160536 C164.989115,29.1737305 164.694808,28.9979369 164.607551,28.8440621 C164.496632,28.6513852 164.539521,28.4632995 164.419728,28.2753618 C164.177184,27.9015599 163.736463,27.592181 163.474693,27.2340776 C163.356379,27.0738344 163.400747,26.9227734 163.285391,26.7601607 L162.718961,26.0978619 L162.529659,26.0978619 L162.529659,25.9085913 C162.494165,25.810846 162.225,25.6981426 162.151053,25.6257222 C161.655613,25.1455851 161.256302,24.553189 160.731283,24.108892 C160.490218,23.9092545 160.219575,23.835205 159.97703,23.6369004 C159.46828,23.2306648 158.853046,22.5197894 158.274785,22.2166307 C158.174218,22.1644999 157.990831,22.1836047 157.89618,22.1216993 C157.822234,22.0754924 157.777866,21.8845927 157.706877,21.8358682 C157.507222,21.7156117 157.334188,21.7723337 157.140448,21.6479305 C157.081291,21.6137196 157.014739,21.4020861 156.951146,21.3650614 C156.770716,21.2637616 156.646487,21.3545463 156.477889,21.2683527 C156.44831,21.256801 156.403942,21.0937439 156.384716,21.0786378 C155.929207,20.7870309 155.479613,20.745415 154.964946,20.5117148 C154.525705,20.3178532 154.000686,19.9222807 153.546655,19.7550769 C153.441651,19.7190888 153.276011,19.7827714 153.169529,19.7550769 C152.89149,19.6792502 152.427107,19.3760915 152.129843,19.2823448 C151.020648,18.9433461 149.862648,18.6413722 148.726832,18.4295906 C143.784701,17.5051565 138.214469,18.0414231 133.789223,19.0914451 C131.713549,19.5860959 129.309109,20.3399199 127.357517,21.0786378 C127.282536,21.1087019 127.054337,21.3366263 126.980982,21.3650614 C126.67307,21.4819115 126.433188,21.4391109 126.130008,21.552999 C125.742824,21.699469 125.274892,22.0649773 124.900575,22.2166307 C124.194683,22.5023138 123.677651,22.5793253 123.008584,22.8783372 C122.674051,23.0339893 122.392167,23.1890489 121.970525,23.3522541 C121.914474,23.3741727 121.928819,23.5164959 121.875134,23.5431537 C121.391673,23.7623403 121.033477,23.7981802 120.550459,24.0157377 C120.397982,24.0822341 120.140944,24.3535516 119.984917,24.3935383 C119.906978,24.4126431 119.775205,24.3576983 119.701851,24.3935383 C119.701851,24.3935383 119.609418,24.581476 119.604833,24.5826607 C119.246637,24.8169534 118.850876,24.8655299 118.471383,25.0570219 C117.99014,25.2982752 117.498989,25.659933 117.053092,25.9085913 C116.419815,26.2609189 115.790828,26.4119799 115.162284,26.7601607 C115.009067,26.84591 114.749219,27.1542522 114.594967,27.2340776 C114.519838,27.2739162 114.385255,27.2161576 114.311901,27.2340776 C114.057673,27.295983 113.776825,27.6811885 113.554394,27.8026297 C113.22696,27.9861244 112.935167,27.9994533 112.610543,28.1804303 C112.452741,28.2660316 112.195704,28.5715599 112.044262,28.6541991 C111.607534,28.8972296 111.150102,28.981646 110.718551,29.2228994 C110.115888,29.5561222 109.506423,30.1162327 108.922986,30.4522694 C108.66018,30.6061442 108.426214,30.5854104 108.166219,30.7363233 C107.436516,31.1597384 106.708588,31.8158171 105.991161,32.2515244 C105.546299,32.5210646 105.107206,32.6425058 104.668112,32.915008 C104.594758,32.9607706 104.549798,33.1532993 104.478662,33.1961 C104.162763,33.398107 103.944917,33.3847781 103.628279,33.5768626 C103.323915,33.7636154 102.978438,34.1501539 102.682653,34.3352777 C101.107743,35.3140641 99.6248228,36.1951052 98.0494696,37.1758169 C98.0003692,37.2069177 97.9079362,37.4302511 97.8598711,37.4586861 C96.5081317,38.2987037 95.2168804,39.0507506 93.8899869,39.9202399 C93.6379777,40.0844818 93.3763555,40.4264424 93.1336636,40.5820945 C92.4069188,41.0634163 91.691118,41.3462854 90.959197,41.8125012 C90.7910429,41.9207616 90.6431502,42.1845259 90.4860882,42.2868623 C90.1082223,42.5356687 89.7362721,42.6184561 89.3520468,42.8555626 C89.2775089,42.9029543 89.2329932,43.0950387 89.1625962,43.1396165 C88.4149986,43.6036108 87.715466,43.8952177 86.9881296,44.3707637 C86.8285534,44.4754697 86.6812522,44.7392341 86.5148729,44.8427553 C86.0896814,45.1152575 85.6298829,45.2546187 85.191381,45.506387 C84.4946584,45.9106973 83.8008937,46.5267893 83.1117136,46.9265086 C82.1428684,47.4894329 81.2537374,47.9012963 80.2751313,48.4417097 C79.8562992,48.6742251 79.4599467,49.0653547 79.0462907,49.2932791 C78.6125214,49.5361614 78.1537582,49.6219108 77.7222073,49.8619793 C75.6135529,51.0334426 73.6661016,51.9983077 71.199399,52.8904562 C70.8366182,53.0234492 70.346058,53.3375672 69.9693753,53.4603413 C64.1323455,55.3549721 56.7335687,55.5098837 50.2107604,54.2169792 C49.7792095,54.1341918 49.193998,53.8525075 48.7924693,53.742618 C46.5388801,53.1392626 44.7351805,52.51621 42.8357943,51.6599014 C41.1084074,50.8853436 39.5803799,50.2037918 38.0147876,49.2932791 C37.4508726,48.968646 36.9455232,48.416829 36.4070458,48.0627243 C35.8633922,47.7069904 35.287498,47.5160908 34.7998957,47.1163715 L34.7998957,46.9265086 C34.0471218,46.5060554 33.6213386,45.9361704 33.0037386,45.4102707 C32.2527394,44.7808499 31.4550061,44.172311 30.8286805,43.4224857 C30.5895379,43.1425785 30.4982881,42.8555626 30.2619556,42.5726935 C30.0164537,42.2852332 29.6328199,42.023098 29.4103893,41.7193469 C29.2982866,41.568434 29.3342246,41.3982682 29.2221219,41.2455781 C29.1631127,41.1685666 28.9887472,41.1402797 28.9384636,41.0574923 C28.8760529,40.9609318 28.9026736,40.7746232 28.8436644,40.6768779 C28.7969303,40.6074194 28.6045219,40.5640264 28.5594146,40.4889402 C28.7691265,41.5226714 28.9644928,42.3077443 29.315738,43.234548 C29.3405839,43.3010445 29.5819449,43.5498508 29.5999878,43.6122005 C29.6264606,43.7232748 29.562423,43.8876647 29.5999878,43.9911859 C29.6264606,44.0710113 29.8534759,44.2977509 29.8840897,44.3707637 C30.0315387,44.752563 29.9892414,45.0336549 30.1671563,45.4102707 C30.1931855,45.4709913 30.418574,45.6278282 30.4508146,45.6972867 C30.6316874,46.0900453 30.6080245,46.3966102 30.8286805,46.7385709 L31.0187226,46.8317252 C31.0713724,46.9340616 30.9747985,47.0098883 31.0187226,47.1163715 C31.0238988,47.1382902 31.2775349,47.3634007 31.3017893,47.4004254 C31.6830567,48.1067097 31.9257486,48.7228016 32.3417708,49.3892472 C32.3861387,49.4621119 32.5785471,49.5066897 32.6258727,49.5779254 C32.6848819,49.6738935 32.6548597,49.8636084 32.7188973,49.9567627 C32.7848574,50.054508 32.9349685,50.060432 33.0037386,50.1448484 C33.4289302,50.7105867 33.6889256,51.3192737 34.1383716,51.849172 C34.2834543,52.0227441 34.5635631,52.1487763 34.7050965,52.3223484 C34.8472214,52.5045102 34.8350941,52.7198462 34.9887547,52.8904562 L35.1782053,52.8904562 C35.3845156,52.9645057 35.494252,53.4111724 35.6514619,53.5545323 C35.7600152,53.6598307 35.9200351,53.6396892 36.0291799,53.742618 L36.0291799,53.9317405 C36.0615684,54.0300782 37.3665738,55.2160552 37.5416788,55.3520101 C37.7068749,55.487965 37.9408412,55.5041078 38.1084036,55.6354716 C38.5318205,55.9768399 38.8923829,56.4587541 39.3382795,56.7740569 C39.848953,57.1395653 40.4422986,57.3437939 40.9448381,57.7198173 C41.0102066,57.773133 41.0604902,57.9598858 41.1344365,58.0032788 C41.8502373,58.4557214 42.5324664,58.6611347 43.3089031,59.0447112 C43.5867935,59.1874786 43.8583246,59.4884158 44.1598778,59.612819 C48.405434,61.4061501 53.930558,62.8946934 60.0432598,62.4532102 C65.0866972,62.0934777 69.896612,60.5643552 73.8469744,58.7612496 C73.9002158,58.7379981 73.8851307,58.5946382 73.9417736,58.5713867 C74.3218579,58.4284711 74.647074,58.4095145 74.9810157,58.1941785 C75.0018686,58.1809977 75.0457928,58.0189773 75.075815,58.0032788 C75.4628502,57.8123792 75.742959,57.8251157 76.1150571,57.6256263 L76.2104479,57.4347267 C76.5142195,57.2379031 76.8487529,57.2570079 77.1554824,57.0557413 C77.1584402,57.0527793 77.2502816,56.8676555 77.2502816,56.8676555 C77.3566165,56.8272245 77.4311544,56.9243774 77.5339398,56.8676555 C78.0006892,56.6132214 78.4853337,56.1810684 78.9516394,55.9207104 C79.1913735,55.7875693 79.4663061,55.7714265 79.7084064,55.6354716 C79.9302455,55.5128457 80.2405244,55.1957656 80.4645819,55.0685486 C81.5761436,54.4542338 82.6062163,53.9201887 83.6790301,53.2694416 C83.8857841,53.1466675 84.1278845,52.8255889 84.3409979,52.7023705 C85.1711197,52.2222334 85.8980124,51.8780513 86.7044714,51.3748108 C86.7760515,51.3314178 86.8199756,51.1399258 86.8945135,51.0912012 C87.1366139,50.9414731 87.3225151,50.9651689 87.5558898,50.8083321 C87.7125082,50.7030337 87.8598093,50.4410465 88.0279633,50.3327861 C89.074748,49.6681177 90.1412023,49.160138 91.1476123,48.4417097 C91.6795824,48.0656862 92.2035663,47.5738494 92.7559456,47.2095258 C93.9458904,46.4290439 95.1862666,45.7655603 96.3487033,44.9393159 C96.5936137,44.7629299 96.8478413,44.4448132 97.1048788,44.2758322 C97.4410389,44.0536837 97.8194964,43.9571231 98.1441209,43.707132 C98.197806,43.6655161 98.2717523,43.4652863 98.3335715,43.4224857 C98.9044374,43.0510533 99.4860994,42.8700763 100.034929,42.477762 C100.410429,42.2099989 100.783119,41.7848066 101.170154,41.5284472 C101.636903,41.2218823 102.133823,41.0887412 102.59022,40.7718093 C102.741514,40.6665109 102.8934,40.4043756 103.060371,40.2990772 C103.43942,40.0590087 103.820095,39.9763695 104.194412,39.7305251 C104.444646,39.5679124 104.682606,39.2243226 104.951327,39.0686706 C105.142996,38.9558191 105.326826,39.0003969 105.519087,38.8789557 C105.678072,38.7782484 105.819605,38.5087081 105.991161,38.4050388 C106.385738,38.1649703 106.75547,38.0851449 107.126385,37.8375234 C107.224586,37.7710269 107.402501,37.4985247 107.50292,37.4586861 C107.611621,37.4216613 107.687786,37.5182219 107.787761,37.4586861 C108.180564,37.2335756 108.519682,36.8396321 108.922986,36.6059319 C109.980123,35.9938386 110.965236,35.5009651 112.044262,34.9027931 C112.192746,34.8194134 112.452741,34.5100345 112.610543,34.430061 C112.813895,34.3249107 113.065165,34.3438674 113.271327,34.2391614 C113.299131,34.2270173 113.342464,34.0657374 113.36731,34.0494465 C113.936253,33.679199 114.557403,33.535691 115.162284,33.1961 C115.390334,33.073474 115.687894,32.7581712 115.919051,32.6291769 C116.018878,32.5771941 116.092381,32.6749395 116.202117,32.6291769 C116.381215,32.5609033 116.663099,32.2467852 116.863494,32.1565929 C117.738723,31.7626495 118.445354,31.5110293 119.321766,31.1169378 C119.694308,30.9509188 120.078533,30.6119201 120.456843,30.4522694 C123.901116,28.9991217 127.701368,27.6899264 131.614165,26.7601607 C132.044533,26.6607862 132.281309,26.7555696 132.747615,26.6665621 C132.94801,26.6311664 133.380152,26.4205696 133.59859,26.3825082 C135.162407,26.1082288 136.91464,25.9352491 138.516023,25.8138079 C139.663818,25.7276143 141.105772,25.8345418 142.108189,25.9085913 C143.925051,26.0463234 145.377357,25.9704967 147.024438,26.2857995 L147.308688,26.4756625 C147.900111,26.5988809 148.250617,26.5200922 148.820004,26.6665621 C148.939797,26.697811 149.26664,26.9199595 149.386433,26.9494312 C149.550594,26.9956381 149.689613,26.9187747 149.861169,26.9494312 C150.253084,27.0326629 150.822471,27.3895815 151.184808,27.5181315 C154.21513,28.6219135 156.33887,29.769681 158.180134,32.0616614 C158.433031,32.3787415 158.826425,32.6604258 159.030517,33.0099395 C159.145873,33.214168 159.104463,33.3708568 159.221299,33.5768626 C159.375107,33.8672847 159.755191,34.1292719 159.8809,34.430061 C159.974073,34.6522096 159.883858,34.7777975 159.97703,34.9987613 C159.988862,35.0283811 160.154502,35.0670349 160.164854,35.0907308 C160.287605,35.4165486 160.453245,35.7034164 160.54346,35.943485 C160.69431,36.3600875 160.617406,36.5625389 160.731283,36.985954 C160.842203,37.4025565 161.146862,38.0690021 161.206019,38.5011551 C161.414548,40.0590087 161.617161,42.4570281 161.299191,44.0861174 C161.254824,44.3140418 160.990096,44.7392341 160.922065,44.9393159 C160.811145,45.2661704 160.85995,45.4739533 160.731283,45.7908852 C160.565643,46.1981576 160.182601,46.5655912 159.97703,46.9265086 C158.838257,48.8905978 157.489475,50.4410465 155.91146,51.9445478 C156.554793,53.341714 157.467291,54.5450185 158.180134,55.8251865 C158.319153,56.0797687 158.320632,56.331389 158.462609,56.5831573 C158.532119,56.7074124 159.486027,58.2809645 159.503774,58.2879252 C159.506732,58.2908871 159.391375,58.4672731 159.409122,58.5713867 C154.981215,59.173113 150.928954,58.2387563 147.874822,56.8676555 C147.502132,56.7016365 147.106519,56.3805578 146.739597,56.2053567 C146.39412,56.0403744 146.02217,56.014457 145.699763,55.8251865 C145.578491,55.75869 145.441543,55.5168443 145.321306,55.447534 C145.220295,55.3914045 145.145166,55.487965 145.038239,55.447534 L144.942996,55.2582634 C144.679008,55.0858762 144.147481,54.8255181 143.903015,54.6895632 C143.348417,54.3818134 142.848836,54.2430446 142.295273,53.9317405 C141.998452,53.7697201 141.647207,53.436053 141.351422,53.2694416 C140.816346,52.9732436 140.322976,52.8673528 139.743532,52.6069947 C139.440352,52.469855 139.102417,52.1672887 138.799089,52.0400716 C138.0509,51.7247688 137.448977,51.6003656 136.624031,51.3748108 L136.434433,51.1873175 C132.131198,49.916924 126.479478,50.3755867 122.347651,51.4719638 C121.109641,51.8000031 119.818538,52.3350849 118.564851,52.7023705 C118.628445,52.7272511 118.876905,52.9645057 118.945084,52.985832 C119.599065,53.2201247 120.038011,53.216126 120.646441,53.4603413 C121.371412,53.7553545 122.076268,54.3135398 122.727292,54.6895632 C123.07972,54.8967537 123.40612,54.9556971 123.765351,55.1639244 C124.040431,55.3247599 124.26508,55.6458386 124.52271,55.8251865 C125.525126,56.540801 126.522811,57.1280136 127.454683,57.9090879 C128.179061,58.5251798 128.810563,59.2917403 129.532575,59.8979096 C130.599621,60.7986479 131.755699,61.672284 132.653999,62.7366717 C133.721045,64.0066209 134.804211,65.2607234 135.867264,66.5247486 C136.131844,66.8400514 136.245574,67.2636146 136.530415,67.5661809 C136.632609,67.6818462 136.886836,67.7495275 137.002341,67.8478652 C137.451195,68.2575071 137.669633,68.7665235 138.231773,69.0800491 L138.231773,69.2699121 C138.526375,69.5243462 138.878803,69.6845893 139.176364,69.9322109 C139.492262,70.2023435 139.707151,70.6119854 140.026747,70.8793042 C140.236311,71.0602812 140.476193,71.0805707 140.689898,71.2581415 C141.289011,71.7673059 141.852186,72.4025026 142.485907,72.8681259 C142.857413,73.1458116 143.238681,73.2598479 143.619948,73.5287957 C144.134171,73.9008204 144.671465,74.4416781 145.22769,74.7611277 C145.549504,74.9490653 145.844107,74.9595804 146.173464,75.139965 C146.397669,75.2673301 146.699222,75.5958138 146.929048,75.7086652 C147.138168,75.8139636 147.392396,75.7735326 147.591755,75.8977877 C147.612016,75.9111166 147.656384,76.0760989 147.685963,76.0858734 C148.462104,76.4346466 149.163115,76.4850003 150.050471,76.7499495 C150.304847,76.8293305 150.622816,76.9738752 150.711552,77.2226815 C150.896418,77.7607253 150.815077,78.78172 150.900854,79.4007739 C151.202556,81.6789812 151.470241,83.8975045 151.751238,86.3110743 C151.863636,87.2945999 152.189,88.65874 152.319146,89.62479 C152.465559,90.7701878 152.427107,91.6159814 152.601621,92.7499756 C152.634157,92.9743456 152.855996,93.5279397 152.885575,93.790075 C153.240517,97.2524821 153.613207,100.293696 154.019912,103.732407 C154.250624,105.699902 154.759375,107.883178 154.964946,109.886069 C154.993046,110.166569 155.000441,111.253023 154.964946,110.927946 L154.964946,111.116476 C148.565628,111.116476 141.91578,111.222959 135.67944,111.212 C131.069329,111.205632 126.501366,111.042426 122.064585,111.212" id="path20" fill="#FFFFFF"></path>
                        <path d="M103.060371,111.212 C99.1781868,111.205632 94.9009815,111.116476 90.8645456,111.116476 C87.42604,111.116476 83.9805833,111.170236 80.7482401,110.927946 C78.3733789,110.749783 76.2786264,110.915802 73.9417736,110.737639 C71.2588519,110.539778 68.3600067,110.211147 65.8098926,109.980853 C63.4759976,109.77381 61.4106759,109.602015 59.1916935,109.22303 C49.9889214,107.663992 41.8166656,104.85011 34.9887547,100.891868 C34.3948175,100.551092 33.8541218,100.036299 33.2873969,99.6608684 C32.7582367,99.317723 32.1799762,99.0961668 31.6802467,98.7137752 C31.532354,98.6050705 31.446872,98.3556717 31.3017893,98.2417836 C31.1516781,98.1259701 30.979531,98.1635873 30.8286805,98.0508839 C30.7310713,97.9842394 30.636272,97.7499467 30.5456138,97.6730833 C30.0816743,97.2970599 29.5946636,97.1003844 29.1273226,96.7259901 C28.6576154,96.3511514 28.2705801,95.7754905 27.8038307,95.4012443 C27.6350851,95.2681033 27.4011189,95.2519605 27.2359227,95.1160056 C26.7367848,94.7168787 26.3682361,94.1499556 25.9124308,93.6957359 C25.0031863,92.8007735 23.9886423,91.9272855 23.1706477,90.9495357 C22.7166171,90.4126768 22.3936194,89.7879951 21.9418071,89.2458046 C21.7616738,89.0358002 21.4519864,88.8940694 21.2798393,88.6788815 C20.8725428,88.1726791 20.6177236,87.6069408 20.2398577,87.0677122 C20.006483,86.7450045 19.61368,86.4498431 19.3894746,86.1229886 C19.3242539,86.0304267 19.353093,85.839527 19.2942317,85.7441513 C19.0729842,85.3884174 18.6680539,85.0603781 18.443257,84.702867 C18.2011566,84.3226968 18.1099068,83.9478582 17.8765321,83.5660589 C17.829798,83.4937866 17.6373896,83.4503936 17.5934655,83.3767884 C17.1197651,82.6173366 16.8395084,81.8641049 16.3635896,81.104505 C16.2843191,80.9801019 16.0567122,80.8528848 15.9863153,80.7255196 C15.6985161,80.2308689 15.5980969,79.7103008 15.323608,79.2115033 C13.9238626,76.683453 12.7857838,74.0813531 11.7314714,71.1645429 C11.6159376,70.8462781 11.2762429,70.3470363 11.163593,70.0277348 C10.412579,67.9577547 9.90881201,65.970562 9.36749509,63.6843574 C9.27044789,63.2764927 8.98332897,62.6990546 8.89493349,62.2652725 C6.87412741,52.5912962 7.29065246,40.7184937 10.5021132,32.4394621 C10.5050119,32.4556048 10.7707456,32.4394621 10.7857715,32.4394621 C10.7857715,34.7025632 10.5021132,36.6545084 10.5021132,39.0686706 C10.5021132,39.0686706 10.2069046,39.0657086 10.4073731,39.1634539 C10.6638783,39.2920039 10.472653,40.5942386 10.5021132,40.9609318 C10.6788894,43.3577664 11.0965828,45.9389843 11.5419913,48.0627243 C11.7101009,48.8756398 11.7170371,49.4859559 11.9203896,50.2396318 C12.0151297,50.5977353 12.2953124,51.1415549 12.3929512,51.4719638 C12.6592764,52.3784779 12.7482339,53.0917228 13.0544161,53.9317405 C13.1133514,54.0965747 13.373894,54.4293532 13.4333912,54.5959646 C13.61595,55.1206794 13.5980402,55.4358342 13.8112128,55.9207104 C13.9296452,56.1995808 14.2600967,56.5744195 14.3779524,56.8676555 C14.4848197,57.1453412 14.4495769,57.3525317 14.5668558,57.6256263 C14.7095427,57.9668465 15.1439184,58.4095145 15.2295483,58.7612496 C15.2474433,58.8375206 15.1908004,58.9722907 15.2295483,59.0447112 C15.2387176,59.0689994 15.4005123,59.1140215 15.4184073,59.1400869 C15.5807935,59.397483 15.5569828,59.6387364 15.7014739,59.8979096 C15.8314716,60.1379782 16.1393843,60.4168486 16.2699735,60.6541033 C16.3635896,60.8350803 16.2727835,60.9335661 16.3635896,61.1272796 C16.437536,61.2921139 16.7448571,61.542105 16.8366984,61.6942027 C17.0134302,62.0077283 17.0249659,62.249574 17.2144164,62.5475493 C17.2861444,62.6661766 17.5218854,62.8090922 17.5934655,62.9275714 C17.7049766,63.121433 17.6604609,63.3065568 17.7811413,63.4944944 C17.8967934,63.6796182 18.2138754,63.8822177 18.3496409,64.0631947 C18.7714309,64.6400404 19.0463635,65.2925647 19.4836823,65.8606725 C19.6818585,66.1228078 20.0452309,66.3571005 20.2398577,66.6184952 C20.3491504,66.7717777 20.3109941,66.944165 20.4294562,67.0928564 C21.0608102,67.9143617 21.9354477,68.5756238 22.6039228,69.3635106 C23.5374216,70.4760305 24.6241373,71.7557542 25.7241633,72.6772263 C25.9655243,72.8856016 26.2354285,72.947507 26.4803388,73.1517356 C26.6807334,73.3251595 26.8401618,73.6520141 27.0476553,73.8140344 C27.2273449,73.9599119 27.4346905,73.95695 27.6143802,74.0974959 C27.8246836,74.2692908 27.9719847,74.5875556 28.1822882,74.7611277 C28.7402874,75.2354888 29.3930859,75.5478297 29.9777058,75.9903496 C30.2110805,76.1754733 30.3885517,76.4907762 30.6398215,76.6557585 C31.054069,76.9292974 31.4671333,77.0421488 31.8691057,77.3170206 C32.0285341,77.4280949 32.1799762,77.6940807 32.3417708,77.7913818 C32.460085,77.8676528 32.6016183,77.8057474 32.7188973,77.8849804 C32.7876674,77.9341492 32.8373593,78.119273 32.9090873,78.16859 C33.1158413,78.3292774 33.3406382,78.3177257 33.5704635,78.4536806 C34.2089164,78.8442177 34.8939554,79.4151395 35.5554796,79.7785745 C36.0327294,80.0445603 36.4988872,80.1631877 36.9749539,80.4420581 C37.0389914,80.4796753 37.1783064,80.6908645 37.2586121,80.7255196 C37.4411117,80.8140829 37.5359109,80.7255196 37.7305378,80.8198587 C37.7871807,80.8499228 37.9460174,81.0697018 38.0147876,81.104505 C38.8212465,81.5488021 39.5716542,81.7986452 40.4729124,82.1446045 L40.5677116,82.333875 C41.4827239,82.7549206 42.3342901,82.9296774 43.3089031,83.2825974 C43.4590142,83.3393193 43.8166188,83.6082671 43.9708709,83.6614347 C44.3638219,83.8061274 44.5614065,83.7297083 45.0108525,83.8495205 C45.4330862,83.9681478 45.9079697,84.3024073 46.3343444,84.4164435 C48.3730455,84.9821818 50.7508646,85.4507671 52.9525435,85.7441513 C63.2396651,87.122657 73.8700457,85.1338352 83.3959634,84.4164435 C89.8800238,83.9321597 97.0395102,84.9186473 101.925886,86.6900597 C102.179374,86.7842507 102.53757,87.0631212 102.776269,87.1644209 C103.368283,87.4148563 103.793031,87.4767617 104.38401,87.731344 C104.454407,87.7648143 104.612209,87.9933311 104.668112,88.0165827 C104.928108,88.1350619 105.09286,88.0842639 105.329636,88.2057051 L105.425027,88.3936428 C105.816056,88.651187 106.249973,88.7164987 106.65372,88.962343 C106.960449,89.1516136 107.206099,89.5103094 107.50292,89.7203138 C107.649186,89.8254642 107.832869,89.8053227 107.977212,89.9094363 C108.122886,90.0193258 108.213544,90.2639854 108.355078,90.3826127 C108.680294,90.6644451 109.081823,90.85416 109.394911,91.1404354 C109.506423,91.2457338 109.641005,91.5483001 109.772186,91.6131675 C109.806941,91.6131675 109.83859,91.6131675 109.867577,91.6131675 L109.867577,91.8028823 L110.057027,91.8028823 C110.057027,91.8028823 110.891882,92.7342771 110.909185,92.7499756 C111.027499,92.9060719 110.986533,93.0593544 111.096269,93.223152 C111.348131,93.6049512 111.801718,93.9722368 112.044262,94.3599601 C112.099278,94.4565206 112.001077,94.5403447 112.044262,94.6434216 C112.099278,94.792113 112.435438,95.0714278 112.516335,95.2115294 C112.814931,95.7581629 113.15183,96.3858066 113.36731,96.9152606 C114.970467,100.909195 115.540593,106.051637 115.540593,111.116476 C114.093463,111.315521 112.789641,111.116476 111.664177,111.116476 C109.74734,111.119438 105.691826,111.217776 103.060371,111.212" id="path22" fill="#FFFFFF"></path>
                        <path d="M39.2436281,130.336471 C38.9685477,130.234579 38.8063094,129.356944 38.6763117,129.010392 C38.5791462,128.759365 38.2978542,128.423772 38.203055,128.158231 C37.7929485,127.031345 37.582645,126.070479 37.2586121,124.845107 C37.1158956,124.327353 36.7970389,123.690527 36.6912956,123.140932 C36.1816573,120.575709 35.6387432,117.850983 35.3672121,115.187422 C35.2781807,114.353328 35.3672121,113.749825 35.2730045,112.915731 C35.1014489,111.447922 34.8611233,109.602015 34.9887547,107.991439 C35.1839731,108.086814 35.2781807,107.998843 35.4612719,108.086814 C35.9466558,108.332066 36.4664987,108.882254 36.9749539,109.128099 C37.5271853,109.401193 37.9928994,109.465468 38.5815124,109.696799 C38.8946013,109.823572 39.3764358,110.161385 39.7161454,110.264314 C40.0234664,110.36206 40.1592319,110.276458 40.4729124,110.359246 C40.7889591,110.448253 41.2089744,110.741045 41.5121545,110.83183 C42.197933,111.042426 42.6768097,111.039613 43.404146,111.212 C44.1095943,111.379796 45.1199973,111.817725 45.8612356,111.968638 C53.1888761,113.486653 61.2333525,114.483952 69.4026504,115.093231 C72.0446059,115.291091 74.5945721,115.368547 77.1554824,115.566407 C77.6194218,115.605209 78.7562731,115.510278 79.5195474,115.566407 C83.545483,115.870751 87.5467204,115.909997 91.6213127,115.945393 C113.016065,116.146659 135.327012,116.040176 156.57254,116.040176 C156.57254,117.188536 156.62726,118.163916 156.477889,119.259108 L156.287107,119.732877 C156.275276,119.826624 156.395069,119.924962 156.384716,120.11127 C156.298939,121.273403 156.121467,122.510326 156.004632,123.803231 C155.816808,125.918825 155.337636,128.173929 155.059598,130.24154 C152.225973,130.558027 148.886556,130.336471 145.890397,130.336471 C139.963153,130.336471 134.037535,130.336471 128.114432,130.336471 C125.52631,130.336471 122.946765,130.336471 120.363227,130.336471 C119.611636,130.336471 118.422135,130.566617 117.713877,130.336471 C117.400788,130.237985 117.077346,129.383602 116.863494,129.105324 C116.770025,128.983883 116.489177,128.844966 116.390976,128.726339 C115.806356,128.042565 115.340199,127.255271 114.689619,126.64377 C110.650373,122.86843 105.793576,119.995457 98.52317,119.448231 C97.7415569,119.392101 96.6929976,119.498585 96.0650451,119.54257 C94.1736452,119.685486 92.5935594,119.598699 90.959197,119.921407 C88.5594897,120.397546 86.3733396,121.409358 84.5300048,122.4773 C84.1642661,122.690859 83.8355006,123.104351 83.4900232,123.329462 C83.253247,123.486299 83.0447182,123.456679 82.828647,123.614701 C82.1722991,124.093061 81.6407727,124.791347 81.0318984,125.318432 C80.8869635,125.442243 80.2312072,125.836186 80.1803321,125.981323 L80.1803321,126.170001 L79.9920647,126.170001 C79.8032057,126.237683 79.7614999,126.62585 79.6136072,126.738109 C79.5374425,126.797645 79.3595275,126.743885 79.3305405,126.832892 L79.3305405,127.021571 L79.1416815,127.021571 C78.7777176,127.416106 78.5407934,127.935638 78.1953161,128.348094 C77.9146157,128.681909 77.5073191,128.945673 77.2502816,129.294446 C77.0399782,129.5785 76.8336678,130.225841 76.4941061,130.336471 C75.9383253,130.516856 75.0018686,130.336471 74.4142909,130.336471 C72.5165315,130.336471 70.6354841,130.336471 68.7412741,130.336471 C61.3373211,130.336471 53.9247902,130.336471 46.5232034,130.336471 C44.6236694,130.336471 42.7473545,130.336471 40.8507783,130.336471 C40.4192273,130.336471 39.642199,130.486199 39.2436281,130.336471" id="path24" fill="#FFFFFF"></path>
                        <path d="M100.602246,163.282136 C100.641585,163.256959 100.644395,163.037772 100.698228,162.999266 C101.048882,162.732688 101.504096,162.72084 101.925886,162.52535 C101.994508,162.49573 102.153936,162.273581 102.209987,162.24248 C102.311146,162.187684 102.383318,162.28691 102.493054,162.24248 C102.519083,162.232114 102.567001,162.067724 102.59022,162.051433 C103.163304,161.679704 103.699415,161.543453 104.291577,161.199863 C104.564144,161.039916 104.789532,160.721503 105.044795,160.53638 C105.191061,160.434191 105.374744,160.454925 105.519087,160.348294 C106.368435,159.727759 107.106124,158.880633 107.787761,158.076455 C107.962866,157.872078 108.279948,157.721017 108.45106,157.509236 C108.582093,157.341884 108.60058,157.11233 108.732352,156.939054 C108.913225,156.706539 109.228088,156.527339 109.394911,156.277052 C109.546945,156.051941 109.524909,155.850527 109.67857,155.613568 C109.968587,155.170752 110.452788,154.767923 110.718551,154.288082 C111.912637,152.128798 112.964006,149.331208 113.271327,146.336349 C113.394374,145.099426 113.225776,143.611475 113.082468,142.643056 C113.003346,142.107974 113.079511,141.771789 112.987078,141.223971 C112.858263,140.456818 112.446973,139.457742 112.230311,138.761825 C111.971498,137.936913 111.879065,137.323635 111.568934,136.584917 C111.389836,136.164316 110.916136,135.691732 110.812019,135.258986 C110.791906,135.185529 110.848549,135.052388 110.812019,134.974933 C110.799449,134.948275 110.634105,134.903697 110.624344,134.880001 C110.455006,134.62379 110.48562,134.389497 110.341277,134.123363 C110.177708,133.832941 109.84909,133.554663 109.67857,133.270609 C109.471816,132.933387 109.432476,132.637782 109.206052,132.3247 C109.03568,132.096184 108.712091,131.894917 108.544528,131.661809 C107.911991,130.806686 107.298532,129.847596 106.464861,129.199071 C106.307651,129.081628 106.15399,129.119838 105.991161,129.010392 C105.710904,128.826453 105.425027,128.435916 105.140777,128.253162 C104.495965,127.844705 103.884281,127.634701 103.156353,127.306217 C102.71445,127.110578 102.20422,126.720633 101.736287,126.548839 C98.6213707,125.418399 94.2174214,124.842294 90.3912889,125.507554 C88.6899311,125.80316 87.1209373,126.445317 85.5710216,126.832892 L85.4750392,126.548839 C89.1717656,123.93341 94.1198122,122.347121 100.13032,123.140932 C108.821827,124.290921 115.295091,130.685244 117.243726,138.573295 C117.464382,139.478031 117.676904,140.797594 117.713877,141.697147 C117.713877,141.697147 117.628986,141.959875 117.620409,141.792079 C117.657973,141.936771 117.529011,141.966836 117.713877,141.980757 C117.828346,141.992901 117.620409,142.549901 117.620409,142.549901 C117.756174,145.930114 117.171406,148.644028 116.202117,151.164673 C116.190582,151.191331 116.024794,151.229837 116.013111,151.259457 C115.839928,151.662286 115.82366,152.020686 115.635984,152.395376 C115.552129,152.561247 115.247766,152.807092 115.162284,152.962596 C114.984221,153.283971 114.976235,153.602383 114.785601,153.910429 C114.736501,153.984479 114.551635,154.033352 114.50076,154.099996 C113.934626,154.850858 113.566521,155.650593 112.987078,156.371835 C112.679165,156.756893 112.163907,157.030876 111.853628,157.412971 C111.748032,157.543298 111.681481,157.780257 111.568934,157.886888 C111.274184,158.163833 110.839823,158.384501 110.530136,158.643674 C110.352813,158.794735 110.240118,159.070199 110.057027,159.212374 C109.906177,159.327892 109.734621,159.289386 109.58451,159.401941 C109.33605,159.584103 109.17884,159.89363 108.922986,160.063944 C108.547486,160.318674 108.18648,160.40161 107.787761,160.632644 C107.628925,160.727427 107.377655,161.020664 107.221628,161.10508 C106.687292,161.401278 106.187562,161.507909 105.612703,161.768564 L105.519087,161.956649 C103.95941,162.560893 102.504738,163.002228 100.602246,163.282136" id="path26" fill="#FFFFFF"></path>
                        <path d="M98.4289623,182.59721 C98.0003692,182.179571 97.6161439,181.687882 97.1048788,181.366507 C96.5647746,181.028842 96.0465585,180.939982 95.403521,180.704505 C95.2337401,180.643784 94.9026084,180.381649 94.7408137,180.325371 C94.2354643,180.1595 93.9222275,180.198006 93.4173218,180.041021 C92.6669142,179.812949 91.7270559,179.395309 90.959197,179.187971 C90.2654322,179.004328 89.7541671,179.008771 89.067797,178.808837 C86.3826568,178.041684 83.6402822,177.274531 80.9376907,176.443696 C80.3496693,176.265977 79.6905114,175.886844 79.1416815,175.685429 C78.1809705,175.338877 77.4242034,175.187816 76.4941061,174.833859 C75.9625797,174.635407 75.3119996,174.180743 74.7921568,173.980809 C74.5673598,173.897874 74.4437215,173.977847 74.2248403,173.887507 C74.1924518,173.874178 74.1542955,173.709788 74.1300411,173.69794 C73.7845637,173.567613 73.5390618,173.437286 73.2790664,173.318806 C71.941081,172.721967 70.7475867,172.215469 69.4974496,171.519403 C69.0312918,171.263192 68.625622,170.836667 68.1739577,170.573051 C67.9785914,170.460495 67.7990496,170.501963 67.6072328,170.383484 C67.3524136,170.232423 67.1017355,169.875504 66.8504658,169.721481 C66.5487646,169.5408 66.2773815,169.531914 65.9994911,169.342348 C65.8076742,169.216463 65.6182236,168.909899 65.4321746,168.775128 C65.1190857,168.555942 64.8116168,168.517436 64.4869923,168.301212 C64.0166934,167.993166 63.6008191,167.502958 63.1635003,167.163811 C62.8884199,166.957953 62.593226,166.89279 62.3125256,166.691375 C62.040403,166.498846 61.8104299,166.141928 61.5563502,165.934589 C60.9329824,165.436976 60.326918,165.057843 59.7601931,164.514319 C59.7601931,164.514319 59.8450836,164.339563 59.8532177,164.324753 C62.0380368,164.324753 64.0791041,164.810518 66.0941424,164.988236 C71.1081492,165.436976 76.1329521,165.940513 81.1266976,166.312242 C87.6351603,166.800968 93.5206988,167.397807 99.8472534,166.596592 C101.135547,166.433683 102.647306,165.95088 103.817729,165.650239 C104.977208,165.351079 105.840902,165.183727 106.936787,164.797189 C107.032769,164.766088 107.225621,164.551344 107.317019,164.514319 C107.60467,164.389916 107.776226,164.447675 108.070828,164.324753 C108.296216,164.229969 108.60058,163.948581 108.827595,163.850836 C109.093358,163.739762 109.262695,163.809368 109.490894,163.66275 L109.58451,163.473183 C109.955869,163.268807 110.349855,163.215491 110.718551,162.999266 C110.927672,162.877825 111.170216,162.557931 111.382885,162.430566 C115.913283,159.689253 119.434313,155.443254 120.73991,149.460054 C120.806461,149.162375 121.059506,148.697344 121.118367,148.418918 C121.228103,147.895388 121.124135,147.540246 121.21361,146.998648 C121.375405,145.96314 121.600793,144.350786 121.590293,143.117417 C121.580532,141.889232 121.375405,140.75657 121.21361,139.803701 C121.128128,139.314974 121.216568,138.966646 121.118367,138.478363 C121.041463,138.10234 120.734142,137.515719 120.646441,137.153025 C120.560812,136.812249 120.646441,136.655412 120.550459,136.300271 C120.401975,135.761635 119.850335,134.909473 119.701851,134.407417 C119.604833,134.099667 119.722112,133.909804 119.701851,133.74497 C124.768359,133.74497 129.852171,133.74497 134.922673,133.74497 C137.6754,133.74497 140.745949,133.936462 143.335846,133.649594 C143.445583,133.637895 143.768432,133.738009 143.715339,133.74497 C146.361288,133.74497 149.269598,133.804062 151.184808,133.74497 C152.007092,133.720089 153.364747,133.653001 154.209215,133.74497 C154.031743,135.32726 153.545176,136.593062 153.169529,137.90907 C152.829375,139.099638 152.620847,140.094123 152.224494,141.223971 C152.138717,141.466409 151.814831,141.92522 151.751238,142.170472 C151.721659,142.280361 151.785253,142.445788 151.751238,142.549901 C151.721659,142.629134 151.493904,142.856614 151.467284,142.928294 C151.340096,143.259148 151.402211,143.451232 151.277981,143.779864 C151.220303,143.933739 150.952617,144.220162 150.900854,144.348564 C150.448303,145.451754 150.177659,146.365821 149.671866,147.377633 C149.447069,147.828299 148.936839,148.412994 148.820004,148.892834 C148.799299,148.969846 148.855498,149.101654 148.820004,149.177185 C148.672111,149.46894 148.318648,149.836225 148.157445,150.123537 C147.715985,150.924753 147.403931,151.629704 146.929048,152.395376 C146.877137,152.481274 146.699222,152.499046 146.645389,152.584943 C146.490102,152.827826 146.517166,153.002582 146.361288,153.246946 C146.169471,153.546106 145.803732,153.812684 145.605556,154.099996 C145.363455,154.44951 145.292467,154.812352 145.038239,155.141132 C144.919777,155.292193 144.690544,155.375129 144.566314,155.520266 C144.005948,156.177825 143.605603,156.946459 143.052632,157.602538 C142.397023,158.384501 141.531555,159.002074 140.878757,159.781075 C140.851692,159.812175 140.704391,160.152803 140.689898,160.158727 L140.500447,160.158727 L140.500447,160.348294 C140.107496,160.568962 139.607767,161.306495 139.366997,161.38943 L139.176364,161.38943 C139.07062,161.484213 139.090734,161.676742 138.986765,161.768564 C138.517649,162.192127 137.954474,162.498692 137.475006,162.904483 C137.291175,163.058506 137.186023,163.325084 137.002341,163.473183 C136.491076,163.883418 135.920949,164.1263 135.394599,164.514319 C135.150872,164.696481 134.980351,164.998603 134.73204,165.176322 C134.314834,165.475482 133.822056,165.632467 133.408991,165.934589 C133.30384,166.014563 133.228858,166.242635 133.125925,166.312242 C132.747615,166.569934 132.380693,166.645464 131.990848,166.880942 C131.655723,167.085319 131.380199,167.436313 131.046257,167.637728 C130.321287,168.079063 129.684609,168.339717 128.966442,168.775128 C128.839402,168.85214 128.712362,169.075769 128.588132,169.152781 C127.326903,169.946592 126.088302,170.58786 124.805924,171.331318 C124.639545,171.427582 124.400846,171.714894 124.238016,171.803753 C122.155391,172.960407 120.087111,173.872697 117.809859,174.833859 C117.498989,174.964187 117.077346,175.281119 116.770025,175.401079 C113.697702,176.621415 110.612808,177.514452 107.317019,178.525968 C106.862249,178.665181 106.346399,178.956936 105.897544,179.094668 C103.787115,179.741861 101.664115,180.221702 99.9414611,181.271724 C99.3821308,181.612352 98.9547209,182.185495 98.4289623,182.59721" id="path28" fill="#FFFFFF"></path>
                        <path d="M16.3635896,185.625835 C13.7199334,181.886335 11.3201522,176.188966 10.8805115,170.290181 C10.7794121,168.979505 10.5194463,167.298581 10.5968533,166.029373 C10.6529046,165.048957 10.9400236,163.613877 11.0688529,162.714916 C11.1404773,162.217304 11.0688529,161.830765 11.163593,161.38943 C11.2525504,160.961424 11.545452,160.294978 11.6367314,159.874377 C12.3455811,156.614718 13.5327604,153.940049 15.0399498,151.449024 C15.1699475,151.232799 15.4680992,151.001765 15.6072663,150.78554 C15.9735965,150.209435 16.2248663,149.69405 16.6476915,149.177185 C16.7095107,149.098692 16.990359,148.99058 17.0249659,148.892834 L17.0249659,148.703268 C18.0711589,147.460421 19.406926,146.484448 20.7131144,145.483595 C21.244493,145.07573 21.7499903,144.531318 22.3208561,144.158849 C22.4260079,144.090576 22.5854362,144.122269 22.6981305,144.063918 C23.0793979,143.864873 23.4577075,143.430498 23.8326155,143.212348 C25.118099,142.466077 26.3913074,141.954691 27.8038307,141.31831 C28.1666116,141.155697 28.5693234,140.812107 28.9384636,140.655271 C29.315738,140.496212 29.5819449,140.52287 29.9777058,140.371809 C30.7466,140.081387 31.7299387,139.528385 32.531813,139.235593 C33.6531356,138.830691 34.6784758,138.646159 35.8397294,138.288648 C36.3925523,138.119667 37.0540765,137.770894 37.6363301,137.625609 C42.88593,136.329742 48.0269766,135.289051 53.8981695,134.501164 C57.1033005,134.075971 60.7972169,133.528597 64.2027425,133.270609 C67.997078,132.987147 71.8464296,132.895178 75.6431314,132.608162 C77.0353935,132.504641 78.2964747,132.513379 79.6136072,132.513379 C80.1548945,132.513379 80.7834386,132.629044 81.3155566,132.513379 C81.6801121,132.435775 82.0573865,132.016358 82.3547987,131.850339 C83.2624163,131.348284 84.2497481,130.829937 85.191381,130.43007 C88.5662928,129.006986 93.1753693,128.048341 97.3879455,128.726339 C99.5236642,129.072298 101.628325,129.776953 103.249969,130.714716 C103.355564,130.776029 103.5215,131.040386 103.628279,131.093109 C103.725296,131.146277 103.911345,131.125543 104.004961,131.18804 C104.095028,131.25039 104.207131,131.500974 104.291577,131.566878 C104.889508,132.05753 105.628971,132.555587 106.085368,133.175677 C106.189337,133.320963 106.169076,133.507864 106.276002,133.649594 C106.53999,134.009919 107.084088,134.487835 107.317019,134.880001 C107.371887,134.980708 107.273686,135.061126 107.317019,135.163463 C107.3534,135.267576 107.64046,135.445887 107.692518,135.54304 C107.88892,135.90692 107.872652,136.208894 108.070828,136.584917 C108.390276,137.194048 108.966318,138.081458 109.206052,138.761825 C110.573469,142.694002 110.477042,147.471972 108.922986,151.164673 C108.795946,151.460872 108.500161,151.749665 108.355078,152.017724 C108.148915,152.395376 108.10721,152.78932 107.883152,153.153643 C107.84958,153.202516 107.628925,153.294337 107.598902,153.341729 C107.276496,153.860076 107.107898,154.385827 106.747928,154.856782 C106.632423,155.004881 106.393725,155.096703 106.276002,155.235916 C105.155123,156.555478 104.057611,157.572918 102.59022,158.548891 C102.46244,158.631826 102.333034,158.856937 102.209987,158.928024 C101.850756,159.138325 101.430149,159.194603 101.075946,159.401941 C101.007324,159.443409 100.869784,159.650748 100.791844,159.68481 C100.34861,159.901035 100.051197,159.89363 99.5641868,160.063944 C98.9853347,160.26832 98.2816611,160.647454 97.6721953,160.82073 C97.2118052,160.9555 96.9269639,160.906627 96.4427631,161.010297 C96.1562949,161.076941 95.6126413,161.33019 95.3081302,161.38943 C93.5300161,161.741906 91.1567816,162.026256 89.2572476,162.051433 C88.8350139,162.060319 88.5276928,161.928511 88.0279633,161.956649 C84.7252232,162.168431 81.2006439,161.907777 78.1018479,161.67378 C73.3651399,161.321305 69.0780259,161.066574 64.4869923,160.53638 C62.5101103,160.31275 60.1732575,159.933617 58.153043,159.781075 C53.638322,159.443409 48.6451681,159.529306 44.3481453,159.96916 C42.5706227,160.152803 40.4816381,160.588214 38.7703714,161.010297 C38.4047806,161.102118 37.8935155,161.38943 37.5416788,161.484213 C37.3880182,161.528643 37.2169063,161.454594 37.06857,161.484213 C36.6612734,161.570111 36.1233876,161.919625 35.7455217,162.051433 C34.8263685,162.378732 34.0673831,162.538679 33.1931892,162.904483 C32.8852766,163.03481 32.5542927,163.357666 32.2469716,163.473183 C32.010639,163.565005 31.9783984,163.462816 31.7750459,163.567967 L31.6802467,163.756052 C31.375144,163.954505 31.0511111,163.96191 30.7340291,164.135186 C30.2740828,164.392878 29.7743533,164.840137 29.315738,165.08302 C29.1008498,165.197056 28.9505908,165.146702 28.7490131,165.271106 C28.4687564,165.448824 28.1735625,165.833882 27.89863,166.029373 C27.1122844,166.587706 26.3561089,167.024598 25.6293641,167.637728 C25.2423289,167.965027 25.0626392,168.318983 24.5889388,168.584081 L24.5889388,168.775128 C24.0695396,169.289032 23.4370025,169.721481 22.9822324,170.290181 C22.2290148,171.227648 21.6668746,172.197697 20.9967727,173.224023 C20.3143957,174.262197 19.5131129,175.436622 19.011165,176.631782 C18.2987658,178.321591 17.6576509,180.249841 17.2144164,182.123293 C16.9458433,183.25477 16.9070954,184.398094 16.7418992,185.531052 L16.3635896,185.625835" id="path30" fill="#FFFFFF"></path>
                        <path d="M139.271015,108.4658 C141.147478,108.613899 144.405702,108.459431 146.45653,108.371461 C147.279701,108.338435 148.808173,108.406708 149.766517,108.276529 C149.50031,108.078225 149.186778,107.832232 148.913176,107.613638 C147.723379,106.663731 146.775387,105.468424 145.793971,104.299922 C145.614873,104.089918 145.311545,103.944633 145.13363,103.732407 C144.784012,103.32395 144.568532,102.868101 144.186229,102.50126 C144.085071,102.545837 143.913515,102.466012 143.809547,102.50126 C143.601462,102.572495 143.404468,102.96007 143.243413,103.069367 C142.926775,103.285148 142.134218,103.702343 141.823347,103.82719 C139.65805,104.702603 136.957973,104.909646 134.355357,105.057745 C133.622844,105.102323 132.555798,105.170004 131.803024,105.057745 C131.840589,105.039825 131.837631,104.808939 131.897232,104.773691 C132.23916,104.571832 132.731347,104.619816 133.125925,104.489637 C133.476578,104.376786 133.930757,104.048302 134.259374,103.920937 C134.658685,103.767654 134.906405,103.788536 135.299948,103.636883 L135.394599,103.448353 C135.820974,103.278779 136.039411,103.344832 136.434433,103.164891 C137.09078,102.870322 137.805398,102.365305 138.420632,102.026898 C138.520607,101.974916 138.595737,102.072661 138.702515,102.026898 C138.702515,102.026898 138.793321,101.844144 138.799089,101.837776 C139.054352,101.672942 139.288318,101.708189 139.554082,101.554314 C139.673135,101.486633 139.811711,101.249971 139.933131,101.175329 C140.320166,100.942814 140.689898,100.856028 141.068207,100.607814 C141.219649,100.510068 141.370944,100.223645 141.540281,100.134045 C141.673088,100.066956 141.789776,100.131675 141.91859,100.039706 C142.045778,99.9471438 142.172818,99.6724201 142.295273,99.5665293 C142.504985,99.3889586 142.744719,99.3680766 142.958572,99.1875439 C143.506219,98.7259193 143.909966,98.1329308 144.376863,97.5775595 C144.566314,97.3536337 144.87186,97.1754706 145.038239,96.9152606 C146.615367,94.4350463 147.230601,90.2784991 146.834988,86.4065982 C146.563457,83.7904289 145.880636,81.4515011 144.65993,79.7785745 C144.580659,79.6754976 144.359412,79.5944874 144.281472,79.495113 C144.012899,79.1635192 143.833801,78.7401041 143.52648,78.4536806 C142.828574,77.8144852 141.524604,76.9334441 140.689898,76.4664879 C140.320166,76.2612227 139.921595,76.1987249 139.554082,75.9903496 C139.258296,75.8301064 138.907051,75.4801484 138.608456,75.3298279 C138.533326,75.2932475 138.399335,75.3499694 138.325389,75.3298279 C138.152059,75.2874716 137.918092,75.0330375 137.759108,74.9490653 C137.443209,74.792969 137.243258,74.8206635 136.908725,74.6656038 C136.470962,74.4735194 136.01915,74.1044566 135.584049,73.9095583 C134.216042,73.2962802 132.978623,72.817328 131.707781,72.1103032 C131.415989,71.9494677 131.140465,71.6140234 130.857398,71.4480044 C129.99193,70.9458006 129.193605,70.5958426 128.397499,70.0277348 C128.076867,69.8020319 127.770581,69.4040898 127.454683,69.175573 C127.169841,68.9747507 126.864739,68.9140301 126.602525,68.7012118 C126.389855,68.5322308 126.242554,68.216928 126.036391,68.0387649 C125.822687,67.8623789 125.582805,67.8409046 125.373093,67.6597795 C124.861828,67.2317733 124.664391,66.944165 124.048418,66.5247486 C124.282975,66.944165 124.440185,67.3520297 124.711716,67.7553033 C124.835946,67.9404271 125.149627,68.1400646 125.27785,68.3222264 C125.341444,68.4177503 125.311421,68.6074651 125.373093,68.7012118 C125.423376,68.7879978 125.598481,68.8139152 125.656307,68.8909267 C125.896041,69.2148192 125.966438,69.5358979 126.224067,69.8380199 C126.401539,70.052023 126.704719,70.1965677 126.886775,70.4065721 C127.062915,70.6189461 127.084951,70.8578298 127.264049,71.069019 C128.139278,72.1132652 129.551653,73.4003938 130.6678,74.1942046 C131.264547,74.6193969 131.917345,74.8479137 132.558608,75.2354888 C132.773644,75.367297 133.00066,75.6722329 133.221315,75.8024119 C133.838324,76.1772505 134.448973,76.417319 135.016881,76.8436961 C135.104581,76.9159685 135.110349,77.0652523 135.20574,77.1271577 C135.298173,77.1926174 135.485849,77.16359 135.584049,77.2226815 C135.689201,77.2909552 135.671898,77.4338707 135.773648,77.5079203 C136.01915,77.6958579 136.274413,77.7074096 136.530415,77.8849804 C137.347226,78.4710082 138.133572,79.3110259 138.799089,80.0630727 C139.008801,80.3032893 139.362265,80.4796753 139.554082,80.7255196 C139.668551,80.8730263 139.638528,81.0425997 139.743532,81.198696 C139.905327,81.4486872 140.253762,81.6933468 140.406831,81.9577035 C141.75857,84.3024073 142.219108,87.0920005 142.108189,90.4763594 C142.089111,90.9536825 142.194854,91.4481852 142.108189,92.0863439 C142.048588,92.5214588 141.738457,93.2376657 141.634488,93.6019893 C141.466926,94.1933487 141.469144,94.5837377 141.257214,95.1160056 C141.176317,95.3114963 140.875947,95.6019185 140.783514,95.7784525 C140.636213,96.0577673 140.662094,96.2759171 140.500447,96.5362752 C140.428128,96.6461647 140.291327,96.6288371 140.21738,96.7259901 C140.037099,96.9614675 140.016246,97.2524821 139.838923,97.4838128 C139.633796,97.7453556 139.306213,97.9032292 139.082156,98.1462597 L139.082156,98.3353822 C138.331157,98.7577606 137.783954,99.5723052 137.095957,100.039706 C136.977495,100.119531 136.839511,100.072732 136.718091,100.134045 C136.417129,100.290882 136.154915,100.631509 135.867264,100.796936 C135.20574,101.181697 134.52987,101.350678 133.789223,101.649098 C133.530411,101.752175 133.185525,102.034451 132.936474,102.122422 C131.246652,102.728592 129.356435,102.974584 127.548299,103.448353 C128.073909,104.31488 128.684558,105.024719 129.248473,105.814975 C129.48244,106.145977 129.571323,106.534144 129.81579,106.856408 C129.883821,106.948377 130.038073,106.951191 130.099892,107.046122 C130.314336,107.374162 130.407804,107.924202 130.763191,108.086814 C131.31483,108.349986 132.219047,108.12843 132.936474,108.181746 C135.034184,108.341989 137.039905,108.294449 139.271015,108.4658" id="path32" fill="#20377D"></path>
                    </g>
                </g>
            </g>
        </g>
    </g>
</svg>