<?xml version="1.0" encoding="UTF-8"?>
<svg width="200px" height="200px" viewBox="0 0 200 200" version="1.1" xmlns="http://www.w3.org/2000/svg" xmlns:xlink="http://www.w3.org/1999/xlink">
    <!-- Generator: Sketch 51.3 (57544) - http://www.bohemiancoding.com/sketch -->
    <title>birmingham-so</title>
    <desc>Created with Sketch.</desc>
    <defs></defs>
    <g id="birmingham-so" stroke="none" stroke-width="1" fill="none" fill-rule="evenodd">
        <g id="birmingham-so_BGL">
            <g id="birmingham-so" transform="translate(19.000000, 0.000000)">
                <g id="g10" transform="translate(80.503143, 101.635221) scale(-1, 1) rotate(-180.000000) translate(-80.503143, -101.635221) translate(0.000000, 3.522016)" fill-rule="nonzero">
                    <g id="g12">
                        <path d="M152.80855,135.080751 C152.80855,165.978864 128.926789,195.697605 98.3471674,195.94163 L0.01572327,195.955215 C0.01572327,195.955215 0.00196540876,153.116977 0,153.113455 C13.2822135,156.263644 35.0904142,158.887543 27.4449804,122.759242 C35.9866155,139.455594 33.8934834,154.062386 25.5778107,156.95748 C34.0782381,157.99899 36.1045526,157.753455 36.2421626,157.761505 L36.863194,157.767543 L37.4017098,158.075971 C37.610062,158.195719 57.0223885,169.253329 79.4319477,164.71899 C76.660627,159.713204 79.4359729,155.949178 84.2983627,151.919996 C79.2176081,158.942386 84.1745891,163.795216 84.1745891,163.795216 C86.0810041,165.646788 86.4935827,166.484021 88.3823877,166.651065 C90.2732053,166.814084 94.1610039,164.852826 96.6782366,159.471191 L96.9202491,158.920751 L103.274463,154.862386 C106.332576,152.633455 113.795217,142.207292 111.763016,139.516474 C111.30918,138.936852 110.114211,137.89333 108.610312,139.00528 L103.641758,143.423896 C103.641758,143.423896 103.732324,143.060122 104.754211,141.136097 C103.795218,139.587418 104.202262,137.887292 105.838991,136.939871 C106.759243,136.403519 107.957733,136.707921 107.957733,136.707921 L109.931066,133.91094 L109.416349,136.173582 C109.056601,137.814336 111.741381,137.848047 112.682764,136.112198 C114.850815,132.112701 115.552198,126.908173 115.552198,124.223896 C115.552198,123.966286 115.548173,123.740374 115.532576,123.510437 C115.532576,123.510437 114.079997,124.559997 113.213582,124.840752 C112.358739,125.122009 109.363016,125.677984 108.482513,124.313959 C109.852576,124.775846 113.606538,121.307167 109.809305,119.341381 C108.781381,118.895595 105.727293,117.415343 103.008802,117.896852 C100.292828,118.37484 103.008802,117.889305 103.008802,117.889305 C101.660878,118.256601 98.7934566,119.400752 98.7124504,122.671192 C98.5927019,126.957481 91.3856581,124.255091 91.3856581,124.255091 C91.3856581,124.255091 92.0558468,122.411569 94.2510668,120.683771 C96.9318215,118.586664 99.6482994,118.523771 101.719746,116.532827 C101.829935,116.454337 101.934086,116.399494 102.022639,116.344148 C101.240249,115.117985 101.098865,113.103393 99.8681736,112.635469 C98.2978592,111.882764 94.9252806,112.157985 94.3199976,112.592198 C93.5023876,113.476727 93.0681738,114.483016 92.4805008,115.890312 C91.9813813,117.061632 91.4228908,118.408047 90.4855323,119.948676 C88.4412557,123.339368 84.8347149,125.670437 79.1295578,127.287544 C77.2779855,127.808802 75.571822,128.716475 74.7562245,129.176349 C73.5552183,130.275217 66.9771052,136.971066 73.8208787,147.010814 C62.3723255,138.893581 68.5690549,129.750437 69.0998725,129.017355 C65.2518223,127.830437 59.3610048,125.041506 56.703898,118.759745 C55.705659,116.373834 54.9549672,114.154966 54.2354703,112.012576 C52.4920742,106.849306 51.8455333,103.129054 47.1560743,97.5708152 C46.5526529,96.8533309 44.7543133,95.3242743 43.5298605,94.2827649 C36.6529299,88.4573563 22.6297353,78.4533314 21.3954208,47.1973322 C16.8219367,47.1973322 0.01572327,47.1973322 0.01572327,47.1973322 L0.01572327,0 L100.791947,0 C100.847293,0 101.737356,0.017688704 101.737356,0.017688704 L101.708174,0.017688704 C134.652072,0.367531563 160.455845,26.8474962 160.455845,60.2988664 C160.455845,76.5937088 152.413581,93.0520731 140.227921,102.565029 C147.641757,110.487544 152.80855,123.506412 152.80855,135.080751 M108.451318,50.9373572 C105.62918,48.3195963 101.737356,47.4272693 96.7079221,47.4272693 L96.6118215,47.4390932 C96.6118215,47.4390932 72.6083001,47.4390932 67.6452813,47.4272693 C67.6452813,51.9949673 67.6452813,71.9164762 67.6452813,76.4779855 C72.6083001,76.4779855 96.5428907,76.4779855 96.5428907,76.4779855 C105.964777,76.4543377 112.8005,70.6898096 112.8005,62.2168538 C112.8005,57.5552187 111.251821,53.5476716 108.451318,50.9373572" id="path14" fill="#231F20"></path>
                        <path d="M114.019117,44.3612568 C109.347419,40.0451814 103.052073,38.4493072 95.8606265,38.4493072 L58.0010048,38.4434204 L57.9381118,85.4696834 L96.4211297,85.4757211 L96.5564756,85.4757211 L96.5625133,85.4757211 C110.943393,85.4460356 121.562261,75.6719478 121.41333,62.2168538 C121.334337,55.0394955 118.71094,48.6949925 114.019117,44.3612568 Z M132.370311,97.250312 L125.636726,101.678488 L131.886789,106.887041 C138.807041,112.649557 144.099619,124.771821 144.20377,135.080751 C144.489053,161.244273 124.07245,186.383895 98.7934566,186.383895 C98.6656579,186.383895 8.66747148,186.509681 8.66747148,186.509681 L8.69499349,161.839493 L9.13524505,161.930059 C20.7252322,163.836474 36.3305651,164.610813 36.3305651,164.610813 C43.4374832,168.51421 63.7695582,174.850813 82.0457841,170.410562 L82.706413,170.273203 C82.706413,170.273203 85.2890545,174.00553 89.8802493,172.93836 C92.1776078,172.397983 97.7710667,170.634964 101.627167,163.356977 L101.778614,163.089807 C101.778614,163.089807 105.986412,160.15899 108.598739,158.040248 C114.290312,152.299367 120.811569,143.054084 118.284274,138.78943 C119.416349,136.377858 121.867167,128.639997 121.867167,124.311947 C121.867167,121.476223 121.293079,119.1844 120.261632,117.889305 L120.145406,117.755469 C115.300626,112.920752 106.621381,111.774588 106.621381,111.774588 L106.237985,111.161758 C106.237985,111.161758 103.871696,107.684526 102.374337,106.853331 C100.866916,106.026161 93.1959725,104.685784 89.9094317,108.197733 C88.3215072,109.897859 87.5491802,111.711695 86.876979,113.30767 C86.8437714,113.382639 85.3106897,116.540878 85.3106897,116.540878 C84.0724507,118.575091 81.6155954,120.025657 77.5355955,121.179368 C76.1222622,121.587921 74.632451,122.201255 72.9660359,123.064148 L72.4644007,123.327293 L71.9104385,123.183896 C69.2196209,122.49811 64.4181116,120.683771 62.5474198,116.244022 C62.5197469,116.195217 60.5816337,110.912198 60.5816337,110.912198 L60.1710677,109.874211 C60.1298098,109.77006 56.5449042,99.1194944 51.2558478,92.804526 C50.3125019,91.6900606 49.0743132,90.6425135 47.6336592,89.4238971 C47.5530554,89.3514443 47.4135334,89.2040229 47.2877472,89.0742116 L47.2897095,89.1350921 C41.4308417,84.1766017 31.6312948,75.8883 29.2177603,52.3406276 C29.2118735,52.2525773 28.7421376,44.2000995 28.5377603,39.7386154 C28.5141628,39.1548669 28.5573829,38.6124267 28.5377603,38.2016594 C26.0789931,38.2016594 14.4634462,38.2095085 14.4634462,38.2095085 C11.9968802,38.2095085 9.72679221,38.2095085 9.08216329,38.2095085 C9.06249034,36.0082507 9.08216329,11.193006 9.06249034,8.99567273 C11.4858362,8.99567273 99.7207522,8.99567273 99.7207522,8.99567273 C99.7207522,8.99567273 100.644526,9.01927021 100.650564,9.01927021 C128.612324,9.31602492 150.74465,31.8337099 151.043518,60.2988664 C151.206537,74.9705642 143.700625,89.826916 132.370311,97.250312 Z" id="path16" fill="#FBC108"></path>
                        <path d="M59.4238979,83.9798721 C59.3947155,81.2991175 59.5340866,42.6690304 59.5049042,39.9371059 C66.6490549,39.9371059 95.8686768,39.9410304 95.9471674,39.9371059 C102.671192,39.9371059 108.639997,41.432804 113.003268,45.4599234 C117.386161,49.5066654 119.84855,55.4581118 119.917481,62.2269167 C119.9844,68.0915706 117.828425,73.1250296 113.862136,77.1521993 C109.522513,81.5426395 103.382639,83.9723249 96.5564756,83.9838973 L96.4211297,83.9838973 C96.4211297,83.9838973 62.162011,83.9798721 59.4238979,83.9798721 Z M96.5625133,86.9695576 C104.192199,86.9534569 111.084777,84.2098092 115.986412,79.2493062 C120.524777,74.6560988 122.981632,68.8578599 122.904651,62.1952186 C122.818613,54.6027659 120.025657,47.8793447 115.027419,43.2665146 C110.060878,38.6772821 103.361004,36.9516469 95.8606265,36.9516469 L56.4880489,36.9477223 L56.4679231,86.967545 L96.4211297,86.9695576 L96.5625133,86.9695576 Z M152.535342,60.7647784 C152.535342,60.5977343 152.535342,60.4402501 152.527292,60.2792438 C152.228927,31.0141376 129.444022,7.82430169 100.676224,7.51964761 C100.676224,7.51964761 99.7504378,7.50787403 99.7207522,7.50787403 L7.54913189,7.50787403 L7.53932057,39.6599739 C7.53932057,39.6599739 26.0613327,39.6992694 28.5298609,39.6992694 C28.5298609,39.7248292 28.5298609,36.715823 28.5298609,36.715823 C23.4964522,36.715823 10.8412073,36.715823 10.8412073,36.715823 L10.8412073,10.4894085 L99.6915698,10.4894085 C99.6915698,10.4894085 100.650564,10.4992199 100.636979,10.4992199 C127.779116,10.7940123 149.255342,32.6768797 149.54616,60.3164765 C149.553707,60.4618853 149.553707,60.617357 149.553707,60.7647784 C149.553707,74.7974824 142.354713,88.9247777 131.550689,96.0045259 L123.129054,101.535092 L130.931821,108.032702 C137.547166,113.551695 142.61182,125.184903 142.719996,135.094336 C142.719996,135.271443 142.719996,135.448047 142.719996,135.623141 C142.719996,160.764776 123.154714,184.897605 98.7934566,184.897605 L10.2279746,185.013832 L10.2613834,162.164021 C9.57745888,162.038235 7.1894841,161.499367 7.1894841,161.499367 L7.2228929,188.063895 L8.94455324,188.003014 C8.94455324,188.003014 98.7934566,187.946159 98.9091799,187.942134 C125.115972,187.942134 145.707669,162.316977 145.707669,135.623141 C145.707669,135.438487 145.707669,135.24377 145.707669,135.070688 C145.593455,124.363267 140.056852,111.754966 132.840248,105.736853 C132.840248,105.736853 129.893833,103.276475 128.132827,101.825909 C130.029682,100.577608 133.187921,98.5041485 133.187921,98.5041485 C144.807544,90.884526 152.535342,75.7685516 152.535342,60.7647784 Z" id="path18" fill="#FFFFFF"></path>
                    </g>
                </g>
            </g>
        </g>
    </g>
</svg>