<?xml version="1.0" encoding="UTF-8"?>
<svg width="200px" height="200px" viewBox="0 0 200 200" version="1.1" xmlns="http://www.w3.org/2000/svg" xmlns:xlink="http://www.w3.org/1999/xlink">
    <!-- Generator: Sketch 51.3 (57544) - http://www.bohemiancoding.com/sketch -->
    <title>bloomfield</title>
    <desc>Created with Sketch.</desc>
    <defs></defs>
    <g id="bloomfield" stroke="none" stroke-width="1" fill="none" fill-rule="evenodd">
        <g id="bloomfield_BGL" transform="translate(7.373272, 0.000000)">
            <g id="bloomfield">
                <g id="g10" transform="translate(91.999998, 100.112265) scale(-1, 1) rotate(-180.000000) translate(-91.999998, -100.112265) translate(0.129395, 0.000008)" fill-rule="nonzero">
                    <g id="g12">
                        <path d="M182.171382,147.602814 C184.611258,156.250854 183.47051,165.133352 179.194257,170.787361 C176.605835,174.208295 173.039186,176.092273 169.148013,176.092273 C165.687985,176.092273 162.164294,174.655947 158.669071,171.822719 L158.633875,171.793152 L158.599197,171.763066 C153.564688,167.442159 148.650775,165.801978 145.122427,165.220497 C140.85756,167.695293 135.908452,169.762896 130.386382,171.370398 C125.518534,172.78805 121.53782,172.84459 117.327817,172.904761 C115.161741,172.936403 112.921651,172.967526 110.44865,173.194205 C108.991142,173.328033 106.588014,174.15798 103.804464,175.11968 C98.4231762,176.979278 91.0497192,179.525138 83.0365324,179.525656 C81.6732244,179.525656 80.3161274,179.45148 79.0009544,179.305202 C75.8395705,178.952475 72.7040657,178.442577 69.6637957,177.786401 C66.039177,178.722165 58.1776413,181.789853 50.4755205,191.600855 C45.6215437,198.404338 40.2194488,199.834958 36.538776,199.836514 L36.5363434,199.836514 C26.0874728,199.836514 17.1024243,188.614086 16.5077757,174.818306 C16.1347552,166.195684 19.4570032,158.133275 25.938306,151.743208 C16.5427641,144.906008 8.85425576,128.5514 8.85425576,128.5514 L11.3653511,129.894357 C7.57469236,123.620482 2.94232814,108.748884 2.94232814,108.748884 L4.82582041,110.263017 C2.1797038,104.399448 0.594814275,98.2246482 0.148804497,91.9123888 C-0.610383107,81.1474683 2.4714486,70.4676172 7.69839418,60.2852151 C16.3029689,43.5161527 40.2309908,29.5720195 40.2309908,29.5720195 L38.0682792,35.2887925 C43.0360203,30.9180885 50.2188004,26.0935077 60.3297425,22.22129 L60.4700069,22.1704558 L60.6138944,22.1279211 C62.2230533,21.6771566 63.9129548,21.2445471 65.6608254,20.842542 C66.5940237,18.2925323 68.202665,16.5439395 68.6524427,16.0853942 C73.4969996,10.7685516 79.8151091,6.84238747 87.2610274,4.46770399 L82.2881105,3.09569922 C82.2881105,3.09569922 93.6515982,1.70002901e-15 102.032267,0.0492261823 C116.324745,0.132324543 126.249876,6.4087406 127.039704,6.92693824 C132.241392,10.2591721 135.486106,16.5527577 137.249504,26.7336036 C137.250539,26.7481277 137.253645,26.7636892 137.256233,26.7771758 C144.196992,30.366693 149.539979,34.938659 153.435293,39.0992829 L152.311625,34.0485417 L160.0919,41.3826723 C171.701239,52.3244751 178.013655,65.833924 178.350083,80.4544632 C178.394077,82.3908314 178.342837,84.3251247 178.191185,86.2485249 L179.641447,83.8385687 C179.641447,83.8385687 178.571607,103.231298 176.363607,108.6052 L179.785334,104.897415 C179.785334,104.897415 176.566499,123.293691 170.211641,131.082736 C176.064963,135.051953 180.252192,140.802962 182.171382,147.602814" id="path14" fill="#FFFFFF"></path>
                        <path d="M179.008963,148.496563 C183.525374,164.5 173.913897,179.954116 160.738876,169.269078 C154.668171,164.055979 148.700463,162.302717 144.434562,161.804231 C140.272177,164.352166 135.320998,166.509507 129.466641,168.214009 C122.596273,170.214698 117.498619,169.246773 110.149488,169.920586 C104.493882,170.439821 92.5455279,177.504738 79.3642962,176.037808 C75.9963975,175.662257 72.750648,175.116049 69.6342936,174.413707 C66.2513851,175.159102 56.8138157,178.174919 47.8432596,189.631289 C36.9650039,204.969731 20.5574836,192.494084 19.790584,174.676696 C19.4315382,166.364785 22.9446183,158.010858 31.1070237,151.557508 C29.1042446,150.164236 21.6393311,144.633682 17.2213126,136.752824 C17.2213126,136.752824 19.3031264,137.866508 21.7189868,138.607235 C17.354745,133.820521 12.8410776,127.230748 9.79863379,118.471185 C9.79863379,118.471185 12.8853308,120.949612 17.2497796,123.358012 C9.24389063,114.300187 4.26196783,103.496363 3.42757572,91.6800039 C1.94679241,70.7088203 13.8573994,51.1848553 33.5238675,38.0177593 C32.3864318,41.024758 31.5732605,44.5136442 31.2184071,48.5694874 C31.2184071,48.5694874 37.9955073,34.291301 61.5020632,25.2915722 C63.7359421,24.6649628 66.0179562,24.1114924 68.3330953,23.6192306 C68.7502655,20.5650287 71.0302092,18.3563345 71.0302092,18.3563345 C78.1039868,10.5584715 88.0700062,6.49795981 99.11984,5.39983728 C96.9760201,4.43243128 95.3218317,3.84420693 95.3218317,3.84420693 C112.615761,1.20762355 125.246804,9.68495311 125.246804,9.68495311 C129.632784,12.4803156 132.405983,18.035249 134.011001,27.294336 C134.108306,27.8623304 134.190084,28.4132072 134.264098,28.960453 C151.236092,37.0768078 158.766893,51.8161331 158.766893,51.8161331 C158.715653,48.9108028 158.386471,46.2357825 157.838353,43.7775857 C168.444103,53.7716938 174.741509,66.450159 175.064997,80.5296771 C175.251844,88.5785988 173.638027,96.4013602 170.497346,103.732378 C173.339382,100.71708 175.08156,97.8018944 175.08156,97.8018944 C174.084181,108.827729 169.85037,117.01463 166.464873,121.95644 C170.493205,119.832815 173.47033,116.581501 173.47033,116.581501 C171.477127,123.71022 168.110263,128.780154 165.333959,132.011757 C172.535062,135.689975 177.083562,141.671293 179.008963,148.496563" id="path16" fill="#231F20"></path>
                        <path d="M146.210899,127.31478 C146.212452,124.20352 145.069634,119.823479 143.960975,117.601298 C142.704289,115.089673 137.223108,115.104716 133.334523,113.598882 C130.409673,112.466006 129.030838,110.608483 128.494624,108.801275 C128.11679,106.969169 127.257088,103.130149 130.010101,101.692786 L129.99095,101.67878 C132.122348,100.92716 134.71077,99.9078828 137.14133,98.6598512 C147.832998,93.1749444 136.185358,77.9335017 132.662703,72.5035789 C129.143153,67.073656 126.515395,59.6793544 125.837364,40.5158973 C125.594101,33.6423868 123.703896,27.4276461 120.7718,25.4990587 C119.608796,24.7349895 117.665797,24.2826688 115.339789,24.0559898 C117.372847,22.8567176 119.258394,22.1657874 119.258394,22.1657874 C110.751435,21.4836754 98.9800932,22.9739475 92.4989456,26.7185609 L92.5336236,26.7403469 C87.7874071,29.5248164 84.0670359,37.1115618 84.6777813,48.6322521 C85.9111765,71.8001995 79.7545522,81.4908585 79.7545522,81.4908585 C79.7545522,81.4908585 86.9696293,97.7406858 99.3646557,102.426251 C105.860296,104.881854 115.469702,104.338758 121.000053,103.732378 C125.149499,103.9741 125.752998,109.171638 125.752998,109.171638 L125.760762,109.171638 C126.99778,115.940368 113.529809,117.578993 110.107564,123.01929 C107.435812,127.269652 113.784976,134.822162 113.784976,134.822162 C116.434472,138.10823 124.848267,138.333872 133.12749,137.023076 C135.644486,136.624183 137.70394,135.956076 139.376762,135.184226 C140.955383,135.413499 142.618371,135.909392 144.333634,136.792766 C152.759332,141.126641 156.899979,136.853455 156.899979,136.853455 C156.815614,140.806593 152.075608,142.596683 147.118736,141.675443 C148.00794,142.864859 149.112975,143.34156 149.112975,143.34156 C149.112975,143.34156 146.776615,143.837971 143.832615,141.6604 C141.281977,139.772272 136.93585,138.747807 136.682236,138.69023 C133.917319,138.339578 131.411192,138.430353 129.563946,138.618647 C124.709555,140.161828 120.934838,140.292545 120.934838,140.292545 C120.934838,140.292545 115.775592,141.120935 108.55948,140.199176 C106.930653,140.337154 105.273359,140.85224 103.617618,141.604897 C103.384189,141.765699 103.085545,141.948806 102.693218,142.163036 C96.3233506,145.64051 96.3347374,149.904878 91.755182,151.561658 C91.755182,151.561658 92.9419949,150.0413 93.1899161,148.428611 C92.3079583,149.087381 91.4555026,149.720215 90.6392776,150.293396 C84.794237,154.400074 76.9125157,148.547397 76.9125157,148.547397 C76.9125157,148.547397 84.2254156,151.725053 90.8608022,144.259687 C92.852971,142.018314 94.8073563,140.506775 96.6613309,139.521214 C101.69791,139.205315 106.153764,138.509717 106.153764,138.509717 C98.7119863,138.410123 91.9958571,135.142729 88.1378093,132.816286 C81.9848081,128.760961 76.1035368,122.669157 71.6673512,113.552198 C74.5295734,115.053882 76.8680037,115.75778 76.8680037,115.75778 C68.552032,107.017409 65.3999646,91.9372872 64.2649098,83.7794351 C64.1619112,82.5246602 64.0739224,81.2512115 64.0081897,79.9393779 C64.0081897,79.9393779 78.9424678,69.2294412 77.8912611,33.9691781 C77.8560656,32.7911733 76.8400543,25.502171 80.1158236,22.4272204 C84.0106196,18.7728637 88.3986701,16.3011803 92.9564871,14.7445125 C90.6159865,16.8977041 89.8649767,18.8517086 89.8649767,18.8517086 C104.503716,12.8766149 121.001606,14.4981222 124.776323,17.585522 C131.276621,25.0622995 130.159164,41.445437 130.523541,47.7353915 C131.223828,59.8448249 136.43742,65.0631114 138.362821,68.5737838 C140.90052,73.1986588 148.940621,79.6146614 150.386742,100.933385 C151.463827,99.1619686 152.117532,96.6762799 152.117532,96.6762799 C155.25873,117.69726 147.918916,125.754481 146.210899,127.31478" id="path18" fill="#FCD13B"></path>
                        <path d="M111.086827,72.278456 C109.578596,74.0343108 106.697224,75.4234333 103.206658,76.4053633 C104.94366,70.3379381 104.205072,59.7493811 104.205072,59.7493811 C100.691215,77.982261 91.2686559,78.1088278 91.2686559,78.1088278 C89.601528,78.1518813 87.9695956,78.1166086 86.4261694,77.9967851 C86.4261694,77.9967851 91.5528078,67.5316826 90.8840934,56.8523502 C90.8840934,56.8523502 90.3613367,52.1958335 94.3151369,50.8336843 C98.3698653,49.4357437 100.98986,52.1745661 106.682732,51.2569569 C111.296965,50.5131176 111.241584,48.3360651 115.386371,48.3988297 C118.863479,48.4501827 119.330337,62.6744226 111.086827,72.278456" id="path20" fill="#B4131D"></path>
                        <path d="M148.243957,135.180595 C147.732587,135.016162 147.137887,134.800895 146.537493,134.536868 C146.50385,134.427938 146.480559,134.316414 146.480559,134.19659 C146.480559,133.557013 146.99814,133.038297 147.638905,133.038297 C148.279152,133.038297 148.796216,133.557013 148.796216,134.19659 C148.796216,134.613638 148.575209,134.975702 148.243957,135.180595" id="path22" fill="#FFFFFF"></path>
                        <path d="M89.0120034,142.554148 C88.545663,142.380378 88.2097531,141.934282 88.2097531,141.407266 C88.2097531,140.728785 88.7599415,140.179465 89.4359021,140.179465 C90.0306025,140.179465 90.5248923,140.602218 90.6392776,141.16347 C90.1284253,141.679592 89.5482172,142.154737 89.0120034,142.554148" id="path24" fill="#FFFFFF"></path>
                        <path d="M107.432706,97.1592048 C107.071435,98.6655571 105.316836,99.5063963 103.579834,99.0509633 C101.943244,98.6240598 100.883238,97.1939588 101.093376,95.7773444 L101.09027,95.7773444 C101.09027,95.7773444 101.093376,95.7695637 101.094411,95.7602268 C101.109421,95.6787883 102.118186,91.9144637 100.745044,82.7196975 C100.745044,82.7196975 100.83355,81.7673343 101.829376,81.9992005 C102.141477,82.0713021 102.36973,82.2948688 102.466518,82.546965 C105.010945,87.2636528 107.928549,95.1076816 107.432706,97.1592048" id="path26" fill="#FFFFFF"></path>
                        <path d="M137.728784,91.1638811 C137.673403,92.6531158 136.179147,93.779249 134.455085,93.6812116 C132.833504,93.5899175 131.561291,92.4440731 131.488312,91.0679186 L131.486759,91.0679186 C131.486759,91.0679186 131.488312,91.0622127 131.488312,91.0528758 C131.486759,90.9729935 131.721223,87.2325299 128.6794,78.82725 C128.6794,78.82725 128.580542,77.9122343 129.562393,77.9412825 C129.870354,77.9511381 130.129662,78.1166086 130.266821,78.3365443 C133.564846,82.2974624 137.802798,89.1357002 137.728784,91.1638811" id="path28" fill="#FFFFFF"></path>
                        <path d="M130.670534,96.1041357 C129.872942,96.7250392 127.97549,97.7557286 123.664559,98.5140919 C116.024548,99.8596421 112.02106,99.4929097 110.441404,99.2050221 C110.205387,99.1012788 109.730248,98.9337334 109.966264,98.3221669 C110.316149,97.4393116 110.751435,95.6341787 110.406726,92.4907576 C110.40362,92.4746774 110.397409,92.4596346 110.397409,92.4425169 C110.394821,92.1795278 110.607547,91.9647792 110.868408,91.9627043 C111.037139,91.9611482 111.180509,92.0539984 111.264875,92.1852336 L111.269016,92.1847149 C111.269016,92.1847149 113.004982,93.9535377 113.284475,94.3794038 C114.882247,94.4411311 123.672841,93.7574629 127.17531,92.0835652 C127.17531,92.0835652 127.300565,91.6193141 127.323856,89.6383363 C127.323856,89.6367802 127.322821,89.6341866 127.322821,89.6321117 C127.322821,89.3903899 127.514844,89.1917215 127.758624,89.189128 C127.914416,89.1880905 128.045881,89.2721226 128.121448,89.3935022 L128.133353,89.3903899 C128.133353,89.3903899 129.776672,91.2551752 130.926737,94.7943769 C131.145673,95.3504408 130.990917,95.8318096 130.670534,96.1041357" id="path30" fill="#FFFFFF"></path>
                        <path d="M122.909927,45.0531092 C122.233448,45.7865742 121.631502,45.071783 121.631502,45.071783 C117.631119,36.9315672 114.71921,34.4692207 114.663311,34.4131993 C114.656065,34.4038624 114.651924,34.4017876 114.651924,34.4017876 L114.653477,34.3986753 C114.605342,34.3473223 114.570146,34.2866325 114.527705,34.2332047 C114.32533,34.0998946 113.197004,33.5951836 108.097798,34.0163813 C103.469072,34.3986753 100.616684,35.165338 99.449539,35.5362202 C100.131193,38.7776787 100.554057,43.4575377 100.498675,46.8945523 C100.530765,47.1559853 100.432943,47.4500975 100.192785,47.6560279 C99.4303885,48.3007924 98.9216065,47.5201242 98.9216065,47.5201242 C95.9501748,38.9498926 93.3617529,36.1462307 93.3151707,36.083466 C93.307407,36.076204 93.3037839,36.0720542 93.3037839,36.0720542 C92.47876,34.938659 92.7556658,33.2258576 93.9900961,32.1183981 C95.2938823,30.9460992 97.2068611,30.8833345 98.204757,32.0208795 C98.470276,32.3248473 98.7218203,32.8777989 98.9552493,33.609189 L99.3563744,31.3149065 C106.025404,29.0948005 113.534985,29.8526451 113.534985,29.8526451 C113.534985,29.8526451 113.910231,30.6187892 114.198523,31.4834893 C114.344481,31.1001579 114.555654,30.7313506 114.84757,30.394185 C116.001257,29.0678272 117.88991,28.7731964 119.019789,29.7826184 C120.561662,31.1541044 122.561077,39.062454 123.1211,44.2584358 C123.183727,44.5157191 123.1211,44.8196869 122.909927,45.0531092" id="path32" fill="#FFFFFF"></path>
                        <path d="M124.301184,125.746182 C121.767108,125.833845 119.666765,127.060091 118.957162,128.687822 C119.624323,124.011076 125.37827,122.700798 127.184627,122.993873 C128.53396,123.212253 129.373476,126.248818 129.768391,128.131758 C128.860554,126.65601 126.736919,125.66215 124.301184,125.746182" id="path34" fill="#FFFFFF"></path>
                        <path d="M137.016075,123.838862 C134.684374,124.417749 132.991884,125.922027 132.588171,127.560133 C132.361988,125.650738 132.19895,122.552445 133.411642,121.968889 C135.067383,121.173697 141.133431,120.82097 143.182534,125.30631 C142.009178,123.862204 139.533071,123.211215 137.016075,123.838862" id="path36" fill="#FFFFFF"></path>
                    </g>
                </g>
            </g>
        </g>
    </g>
</svg>