<?xml version="1.0" encoding="UTF-8"?>
<svg width="200px" height="200px" viewBox="0 0 200 200" version="1.1" xmlns="http://www.w3.org/2000/svg" xmlns:xlink="http://www.w3.org/1999/xlink">
    <!-- Generator: Sketch 51.3 (57544) - http://www.bohemiancoding.com/sketch -->
    <title>brandeis</title>
    <desc>Created with Sketch.</desc>
    <defs></defs>
    <g id="brandeis" stroke="none" stroke-width="1" fill="none" fill-rule="evenodd">
        <g id="brandeis_BGL" transform="translate(0.000000, 56.716418)">
            <g id="brandeis">
                <g id="g10" transform="translate(99.999998, 44.440254) scale(-1, 1) rotate(-180.000000) translate(-99.999998, -44.440254) translate(0.000000, 0.205454)">
                    <g id="g12">
                        <path d="M180.280918,88.4442166 C182.044021,88.7763811 180.849891,87.2810724 180.280918,88.4442166" id="path14" fill="#104076"></path>
                        <path d="M185.915299,78.5282999 C185.912784,78.5190756 186.351777,77.8566018 186.145069,77.4234781 C185.864146,76.8419268 184.594125,76.6503125 184.986578,75.8280903 C184.992867,74.6046103 185.776096,74.1010464 186.254922,73.3157214 C181.488046,70.8813399 175.672113,70.2532477 169.935426,68.760166 C164.392868,67.3194952 158.739619,64.964359 153.35052,64.4918223 C152.483015,64.4142542 151.787837,65.1153024 151.155552,64.3027238 C151.269598,64.942556 151.629766,65.3132059 151.505237,66.2058684 C149.513623,68.7517803 145.661632,69.4817593 145.776097,73.544233 C145.799158,74.3115285 146.464986,74.7433944 146.670017,75.4238975 C146.888885,76.1526186 146.637732,77.0419268 147.03899,77.872954 C147.440248,78.6918219 147.937942,79.1987402 148.75639,79.7199141 C148.56226,79.0163502 148.825992,78.7312349 149.541715,78.8679226 C152.711527,78.6159309 154.100625,79.6960148 156.718654,80.4993691 C163.865405,82.6893061 171.376096,84.4859518 178.272113,85.9425555 C179.400415,86.1811299 181.656599,85.7815492 182.172742,87.7035617 C181.881756,87.7052389 181.484691,87.8599559 181.910687,87.9865806 C183.090561,87.3232683 184.594964,86.9589077 184.818444,85.41048 C177.272113,85.1132054 170.946746,83.2616331 164.42138,81.5631007 C159.81509,80.3668743 155.558067,79.067084 151.683434,77.6905641 C150.657019,77.3245264 148.555971,77.4226396 148.331233,75.9052392 C150.102302,76.4549247 152.159745,76.7002077 153.596223,77.6134153 C154.240667,77.5945473 154.382386,77.112367 155.223057,77.2763083 C164.595803,80.4020944 176.447375,83.6457002 185.62683,85.1056582 C187.000834,83.9740021 187.563517,82.4859518 187.378612,80.9324927 C187.247375,79.8436039 186.088884,79.2528282 185.915299,78.5282999" id="path16" fill="#104076"></path>
                        <path d="M4.52616341,9.07970627 C4.65672944,11.6406286 9.55878383,11.7790353 10.2941717,9.67341695 C9.38188656,9.71106894 9.52763079,8.60373144 8.87333311,8.35970629 C8.11584885,9.15094317 6.20905645,8.97224296 6.13157217,8.19459099 C5.61236883,8.50054486 5.06205438,8.78733731 4.52616341,9.07970627 Z M57.6377344,27.4998316 C57.0800824,27.3555549 56.5253655,27.2130392 55.9807114,27.0682593 C56.5081747,27.228427 57.0205436,27.3769804 57.5056589,27.5077142 C57.5605856,27.4998316 57.5949671,27.5014668 57.6377344,27.4998316 Z M161.636893,38.7216762 C162.280499,40.0176929 163.932491,39.693542 164.969807,39.9580703 C173.643602,42.1610052 182.301044,44.7232693 191.472951,46.0259947 C191.498528,46.31111 191.831861,46.2268332 191.733748,45.7412986 C192.037312,45.671697 192.148004,45.4218018 192.259115,45.1735838 C184.961002,43.0410891 175.920331,40.443521 169.296851,38.6918649 C168.090562,38.3731227 166.98574,37.897651 165.976516,37.7312779 C165.012574,37.5689718 162.148424,36.8787831 161.636893,38.7216762 Z M165.260793,26.5417184 C166.006704,27.5039406 167.513203,27.5375255 168.592449,27.7764773 C177.714461,29.7999993 186.332071,31.7760579 194.834796,34.1286784 C194.209219,33.3140034 192.937521,33.1010893 192.049471,32.8708168 C190.909848,32.577777 189.577354,32.5157225 188.463727,32.191278 C180.940876,30.0129552 173.4914,27.3106492 165.260793,26.5417184 Z M41.1633533,22.8229764 C41.0033533,22.7727038 40.838238,22.7210896 40.6826405,22.6729554 L41.1633533,22.8229764 Z M27.0967708,17.9199576 C24.8062468,17.0176516 23.2937101,16.3559744 22.5424313,16.0167711 C22.4526619,15.9773162 22.362599,15.935052 22.2731651,15.8955552 C22.0751357,15.8028508 21.9750519,15.7547166 21.9750519,15.7547166 L21.9732909,15.7522428 C21.0752615,15.3206705 20.1146326,14.7965615 18.9566872,14.2544651 C17.2525363,13.4599577 15.4558067,13.137442 13.9637313,12.5371905 C12.7697691,12.0582806 12.0687628,11.1320752 10.8944232,11.0172744 C9.46788236,10.8754295 7.89798722,11.552201 6.53450717,11.4620961 C3.5061257,11.2629347 0.475794537,9.58234777 0.0682981115,7.06549249 C-0.493807116,3.59620536 2.50098107,-0.0486440239 5.8080921,0.000491354285 C8.23291384,0.0357049467 10.2338782,1.76264566 11.7051569,3.87038145 C20.8098947,4.63853238 29.6029762,6.64733736 37.8727873,8.31073354 C56.0276716,11.9623058 72.9798724,17.7772742 89.6444422,23.7786577 C98.6280898,27.0142132 108.401255,30.0972739 118.471276,33.3115296 C124.927041,35.3711522 133.059116,37.8943806 140.888885,39.8121583 C143.935845,40.5614665 146.844021,41.4033113 148.87421,41.138783 C149.957648,41.0012149 151.030185,39.9425147 152.109011,39.9186154 C153.807963,39.8766866 154.53291,41.010565 156.010059,41.6792862 C158.35639,38.7166028 154.805447,35.7815924 156.200835,32.6439824 C157.927459,31.2658692 160.626411,31.6109845 160.998319,29.4460789 C161.135426,28.6435213 160.749262,28.6922005 160.389095,27.827253 C160.161422,27.2834794 160.231023,26.5857436 160.047375,26.1982383 C159.807124,25.6842761 158.691401,24.8709428 158.58574,23.7932489 C158.321589,21.004989 160.654923,19.7412154 162.742134,18.1584063 C164.118235,17.1165614 165.011736,16.0218445 165.933748,15.8447795 C167.949681,15.4558067 171.915719,16.4436055 174.180708,16.8889304 C179.104817,17.8495174 183.978192,19.3383224 188.556809,20.6968968 C192.130813,21.756729 196.101043,22.4600414 198.030184,24.9731231 C199.113622,26.3852824 200.763098,31.8386575 199.466662,33.673039 C198.275047,35.3614666 194.575257,36.0334582 194.449052,38.2499781 C194.334586,40.2674623 197.237312,40.9162254 197.375257,43.0566027 C197.489723,44.8385733 196.309848,45.632284 194.236892,46.7379443 C192.845697,52.9958058 191.160163,58.9840656 189.766452,65.2436042 C190.046536,66.1173988 188.891819,65.66373 188.706914,66.106078 C189.344649,67.7899354 190.408381,69.0117383 190.288884,71.5165601 C189.718234,72.1291387 188.899366,72.5115286 188.157228,72.9677131 C187.064985,73.0096418 186.930394,72.0155118 186.192029,71.6771471 C177.536683,70.1350087 169.370646,68.1802918 161.064985,65.8293485 C157.475887,64.8129963 154.500206,63.1111095 150.577355,63.5060781 C146.946328,62.1098517 149.444021,57.5605856 152.514881,57.1379441 C152.483854,55.79329 152.964776,54.9211726 153.206285,53.8272523 C153.301044,52.561005 154.96813,53.5241077 155.044021,51.8410889 C154.280499,51.2465396 153.639828,53.3480071 153.119493,51.6406696 C152.701883,52.0477974 152.189095,52.5052398 150.944231,52.0008373 C150.529975,51.1287199 150.743812,50.2264138 151.382386,49.2486361 C149.512785,48.2100617 148.391611,49.4385732 148.463728,51.5522 C146.712365,50.6364767 147.931652,48.7874202 146.938361,47.5073363 C145.432281,45.5731645 137.984064,44.7542966 134.199158,43.6339612 C120.766035,39.6508166 107.337104,36.4121584 93.2842744,32.9374835 C91.969809,32.6105652 90.8423457,31.9677141 89.6817588,31.7090977 C88.6926603,31.4917393 87.576937,31.685995 86.9383626,31.5451564 C80.5698093,30.144276 73.6779856,27.7325779 67.2976922,26.0264144 C65.1781954,25.4617184 62.8813401,25.4163516 61.2121578,24.3509428 C60.5672941,24.3723684 60.4272522,24.8545486 59.5823884,24.6927457 C58.9010467,24.1928715 57.9404598,24.0004187 57.3442334,23.4099785 C54.4373152,23.419664 51.9920322,22.2474628 49.3266235,21.2637731 C44.989936,20.5198318 39.6114875,18.764402 35.2119488,17.1706495 C34.2254499,17.4721589 33.7259111,16.7660792 32.4811732,17.2779031 C31.0496848,15.3911107 28.0638987,15.8885111 25.2591189,14.5543393 C26.26197,16.1299367 27.8173997,16.7013832 29.5158483,17.6251149 C39.0085944,21.7010477 54.1752607,26.4024731 57.7425562,27.4896848 C57.9186568,27.4867498 58.0046107,27.5211314 58.0184472,27.5735423 C58.3337512,27.6691817 56.8985311,27.3383641 56.8985311,27.3383641 C56.7312355,27.2960999 58.1886778,27.6415087 58.0226401,27.5971062 C58.0075457,27.7283012 57.641508,27.9124102 57.2427659,27.7911943 C53.1580699,26.4301461 47.8750512,25.1282593 43.4050304,23.6867919 C42.7375251,23.4720749 42.2771478,23.222599 41.9295587,23.0629344 C41.7595377,23.009685 41.5947579,22.9572741 41.427043,22.907337 L27.0967708,17.9199576 Z" id="path18" fill="#104076"></path>
                        <path d="M17.1902721,7.72993691 L24.3206283,44.8427662 L32.9844855,47.2846948 C34.0808377,47.5937095 35.1234792,47.7501036 36.082431,47.7501036 C38.6906909,47.7501036 40.3137935,46.6289297 41.2162673,45.6888877 C42.7035629,44.1383637 43.3995796,41.9379444 43.2846949,39.1488041 C43.1689717,36.3245274 42.1857432,33.6276721 40.5254078,31.389559 C41.2793281,29.9932907 41.6291394,28.2499783 41.5470849,26.2524522 C41.4254078,23.3148422 40.2486363,19.9413831 38.3994959,17.2281337 C36.2203345,14.075094 33.7557224,12.3979452 29.5949678,11.225115 L17.1902721,7.72993691" id="path20" fill="#104076" fill-rule="nonzero"></path>
                        <path d="M33.6306071,12.3609641 L39.4477139,42.744653 L47.0125774,44.8779863 C48.2293489,45.2209632 49.2884684,45.3882588 50.2494746,45.3882588 C52.7454913,45.3882588 54.2247366,44.262892 55.026833,43.3194958 C56.4368959,41.6586572 56.9924514,39.3928711 56.6788246,36.5841081 C56.4230594,34.1953451 55.4347995,31.6688042 53.9681328,29.6699783 C53.5559735,29.1178609 53.1236884,28.6150517 52.6733739,28.1623473 C52.8377345,27.7618861 53.0075458,27.3194962 53.1828079,26.8330811 C53.7672943,25.206708 54.2825982,23.5279239 54.5970636,22.2267919 L55.3526192,19.1057438 L44.8171897,14.7358068 L44.6310261,15.4666244 L33.6306071,12.3609641" id="path22" fill="#104076" fill-rule="nonzero"></path>
                        <polyline id="path24" fill="#104076" fill-rule="nonzero" points="44.2209633 15.349182 58.0813403 48.0784055 67.8452813 50.8289295 69.7463295 22.5450309 58.8423465 19.4699785 58.6570216 22.9400833 57.0176086 18.9568549 44.2209633 15.349182 44.2209633 15.349182"></polyline>
                        <polyline id="path26" fill="#104076" fill-rule="nonzero" points="62.3048202 20.4456599 68.1215916 50.8289295 88.286371 56.5123676 82.5090126 26.1433956 73.0591177 23.4771483 73.0582791 23.4795801 62.3048202 20.4456599 62.3048202 20.4456599"></polyline>
                        <path d="M77.9140442,24.8481755 L83.6914025,55.2176087 L89.4410879,56.8389923 C91.3228489,57.3689713 92.781549,57.6972732 94.2352178,57.6972732 C94.4029327,57.6972732 94.5668739,57.6930803 94.7291381,57.6842753 L94.8247356,57.6775667 C98.1756789,57.4075457 101.988677,54.6566024 101.706496,47.7949674 C101.403352,40.4230598 97.9987397,34.2146742 94.7593268,31.3317393 C92.3664547,29.2062886 90.5303961,28.4045695 88.165197,27.7363515 L77.9140442,24.8481755" id="path28" fill="#104076" fill-rule="nonzero"></path>
                        <polyline id="path30" fill="#104076" fill-rule="nonzero" points="93.3693897 29.2046534 99.1463288 59.5735834 117.959326 64.8784051 114.180291 52.5740029 113.426832 52.3622628 112.195804 45.9501037 113.86876 46.4218018 111.608802 34.3458272 93.3693897 29.2046534 93.3693897 29.2046534"></polyline>
                        <polyline id="path32" fill="#104076" fill-rule="nonzero" points="106.224316 32.8269174 112.042764 63.2113192 123.518236 66.4436042 117.702303 36.0641081 106.224316 32.8269174 106.224316 32.8269174"></polyline>
                        <path d="M120.431863,36.7739613 C118.465406,36.7739613 116.620542,37.2923261 114.948425,38.315303 L112.077985,40.0701038 L117.168551,50.9077555 L120.724106,48.8004181 C121.405448,48.3962252 121.706077,48.3626822 121.934588,48.3626822 C122.178613,48.3626822 122.488886,48.4150931 122.856601,48.5190764 C123.950521,48.8276717 124.766454,49.7153027 125.016768,50.8150931 L123.709012,51.1140448 C120.703561,51.7928708 117.161003,53.890984 117.413414,60.0205436 C117.69266,66.8125769 122.590353,73.2561827 128.805028,75.0075453 C129.912785,75.3199143 131.023477,75.4775662 132.105238,75.4775662 C134.457439,75.4775662 136.62725,74.7081742 138.213833,73.3094321 L140.478403,71.3144636 L134.82138,61.0901452 L131.367292,63.7048202 C131.034378,63.9572311 130.923267,63.9572311 130.841925,63.9572311 C130.730814,63.9572311 130.525364,63.936686 130.177775,63.8385728 C129.749682,63.7182374 129.338781,63.3446525 129.075888,62.9433947 L130.118236,62.7236882 C132.663728,62.1744219 136.859535,60.2385729 136.578194,53.3970637 C136.270018,45.9115293 131.143812,39.2985315 124.111947,37.3178607 C122.832701,36.957693 121.594546,36.7739613 120.431863,36.7739613" id="path34" fill="#104076" fill-rule="nonzero"></path>
                        <path d="M28.9332907,25.9861629 L27.7053662,19.5497689 L29.1209636,19.9492238 C29.9924521,20.1948842 30.7319489,20.683815 31.3821795,21.4440665 C32.175387,22.3756808 32.7940034,24.0571063 32.8513199,25.4386157 C32.8943807,26.4930392 32.6935841,26.7349679 32.6703556,26.7585318 C32.6384059,26.791949 32.5184898,26.8247373 32.3214667,26.8247373 C32.0467917,26.8247373 31.6890977,26.7634794 31.2585317,26.6424312 L28.9332907,25.9861629 Z M24.6345906,16.1995384 L26.8630601,27.8855339 L30.6104395,28.9418022 C31.2614667,29.1254081 31.8207959,29.2146743 32.3214667,29.2146743 C33.1862465,29.2146743 33.883647,28.9450727 34.394171,28.4129133 C35.228301,27.5438987 35.2753031,26.2428086 35.2384897,25.3399994 C35.1590348,23.4222636 34.3397895,21.2336263 33.2001669,19.8927039 C32.2441501,18.7757228 31.0906491,18.0213413 29.7697267,17.6498528 L24.6345906,16.1995384 Z M31.1582801,37.7962674 L30.1788672,32.5735422 L31.30306,32.8906071 C32.2818441,33.1672528 32.8807958,33.5392025 33.3709845,34.1764771 C34.0846113,35.1026826 34.5030599,36.2385316 34.5497685,37.3751773 C34.5879237,38.2922422 34.4231438,38.5120326 34.411865,38.5265818 L34.4113618,38.5265818 C34.4069174,38.5265818 34.3425568,38.5518229 34.1850306,38.5518229 C33.9584897,38.5518229 33.6620537,38.5010473 33.304192,38.4005022 L31.1582801,37.7962674 Z M28.6044018,40.9076719 L23.5631021,14.6678403 L28.2522425,15.9890981 C31.3309007,16.8569807 32.8038147,17.8363937 34.3143807,20.021467 C35.899496,22.3480078 36.5364771,24.8717394 36.6019697,26.4565193 C36.6581542,27.818406 36.3960997,28.9055758 35.8834373,29.4406701 C35.6173157,29.7182802 35.2843178,29.8470433 34.8360578,29.8470433 L34.7782381,29.846037 L30.5334584,29.73958 L31.7744227,30.541299 L27.1210056,29.2285947 L29.0831439,39.6943806 L32.6563933,40.6998313 C33.2329132,40.8620116 33.7329551,40.9412568 34.1850306,40.9412568 C34.9949257,40.9412568 35.6511941,40.6851143 36.1351773,40.1806699 C36.9275882,39.3551772 36.9721165,38.1279655 36.9368964,37.2767706 C36.8804184,35.9019698 36.4468754,34.5315715 35.7019698,33.3467497 C37.2898523,34.9585735 38.2471689,37.0942968 38.3397055,39.3517391 C38.3962255,40.7237726 38.1559739,41.7300618 37.6452821,42.2624727 C37.2970641,42.6243176 36.7862465,42.8012568 36.082431,42.8012568 C35.5771899,42.8012568 34.9867496,42.7069172 34.3268335,42.5211729 L28.6044018,40.9076719 Z M20.4864565,11.3186161 L26.5366031,42.8071268 L33.6792444,44.820544 C36.1946322,45.5291393 38.1292653,45.2079653 39.3690975,43.9165607 C40.3549256,42.8888878 40.8120325,41.3199151 40.7268753,39.2536259 C40.6059948,36.300628 39.3204602,33.5160998 37.1961836,31.4650307 C37.340628,31.3527036 37.4779026,31.2296848 37.6072947,31.0947162 C38.596519,30.0637309 39.0747999,28.426037 38.9891395,26.3581125 C38.8880493,23.9152615 37.8516552,20.9697689 36.2840662,18.6692658 C34.4454079,16.0095593 32.5144227,14.7081338 28.9000412,13.689224 L20.4864565,11.3186161 Z" id="path36" fill="#DAD9D9" fill-rule="nonzero"></path>
                        <path d="M46.2792441,36.250649 L45.6125775,32.7450306 C46.5714873,33.0578608 47.0285104,33.3760998 47.3941288,33.7472109 C47.8838562,34.2566029 48.286372,35.164779 48.3874202,35.9953031 C48.4373154,36.3984058 48.4067074,36.6070431 48.382808,36.6968125 C48.2582797,36.7131647 47.9245271,36.7140033 47.1752609,36.5035211 L46.2792441,36.250649 Z M42.5438145,29.3915297 L44.2079654,38.1479236 L46.5266236,38.8033953 C47.731655,39.1420955 48.5542965,39.1807537 49.231026,38.939999 C49.7752608,38.7568963 51.0528289,38.0602925 50.7584893,35.703605 C50.5966444,34.3630599 49.9635208,32.9736679 49.106917,32.0816763 C48.2993699,31.2611313 47.32285,30.7353871 45.8314454,30.3153032 L42.5438145,29.3915297 Z M43.7337515,38.8112359 L39.9985315,19.3006284 L40.6703554,19.4906494 L42.3962254,28.6692655 L43.0574413,28.8934584 C43.3748417,29.0017184 43.662892,29.0541293 43.9371058,29.0541293 C45.147588,29.0541293 45.7127871,28.0498106 45.8989506,27.7199574 C46.3723259,26.8502719 46.8872106,25.8020539 47.4955963,23.9375256 C47.7555544,23.1153453 47.9752609,22.3316137 48.1958059,21.4956808 L49.5278814,22.0483013 C49.2603761,22.9987416 48.9111099,24.0864145 48.525785,25.1585319 C47.5786152,27.7903976 46.9815502,28.4021377 46.9752609,28.4088462 L46.8939192,28.4889301 L45.665827,29.823102 L47.3752609,30.4254919 C48.2327032,30.7278399 49.1589086,31.501886 49.9840658,32.6049887 C50.9283006,33.8931648 51.5949673,35.5875044 51.7593278,37.1278817 C51.915722,38.5329969 51.7463299,39.5371479 51.2549253,40.115303 C51.1802922,40.2037307 50.9798729,40.4386153 50.2494746,40.4386153 C49.7563929,40.4386153 49.1190763,40.3295168 48.3551351,40.1144644 L43.7337515,38.8112359 Z M36.9243177,15.9506076 L41.6643595,40.7106489 L47.706917,42.4138354 C48.6955963,42.6922421 49.5266235,42.8280912 50.2494746,42.8280912 C51.4679232,42.8280912 52.4184473,42.4360576 53.0763089,41.6620954 C54.023898,40.5459109 54.3702292,38.9778187 54.1341706,36.868301 C53.924527,34.9035211 53.1115291,32.8293493 51.9044012,31.1831858 C51.1677136,30.1986575 50.3631015,29.414297 49.5257849,28.8590768 C49.9274621,28.1228504 50.3484264,27.1501461 50.7744222,25.9668337 C51.3287199,24.4239826 51.8146738,22.8411734 52.1090134,21.6247374 L52.3496842,20.6314041 L46.5668751,18.2327878 L46.2259947,19.5702301 C45.8830177,20.913249 45.5911938,22.034381 45.2205439,23.2070434 C44.8591184,24.3157227 44.5438144,25.081383 44.2637305,25.6733327 L42.744653,17.5933748 L36.9243177,15.9506076 Z" id="path38" fill="#DAD9D9" fill-rule="nonzero"></path>
                        <path d="M60.7308161,35.0968125 C60.6251557,34.8260788 60.5194953,34.5564771 60.4155121,34.2901459 C60.2909838,33.9714457 60.1698098,33.6628503 60.0549251,33.3698524 L60.7886777,33.5768964 C60.7740027,34.0036889 60.7534576,34.5270012 60.7308161,35.0968125 Z M60.3685519,40.7874623 L52.7970637,22.9089722 L53.3572314,23.0670015 L55.7123676,28.78784 L63.1899355,30.8963934 L63.4553443,25.9127876 L64.5387825,26.2188673 L63.316141,44.4113196 L61.7115289,43.959328 L60.6775666,41.5156384 L62.9597469,41.0683428 C62.9140445,40.3593281 63.0251557,37.5379865 63.1073359,35.4776092 C63.1563926,34.2280914 63.1987406,33.14893 63.2020949,32.6877141 L63.2079649,31.7760579 L56.1316548,29.7820118 L56.9580699,31.9899782 C57.1505227,32.5047371 57.6322837,33.7367287 58.1903549,35.1615086 C58.9266233,37.0418859 59.8805016,39.4796636 60.3685519,40.7874623 Z M48.6570218,19.2600414 L59.9593276,45.9475879 L65.5023044,47.5090135 L67.0528285,24.4452824 L61.22851,22.8025152 L60.9631012,27.7861209 L57.4796631,26.8037729 L55.1245269,21.0825991 L48.6570218,19.2600414 Z" id="path40" fill="#DAD9D9" fill-rule="nonzero"></path>
                        <path d="M72.4075454,46.895177 L68.6716964,27.3840245 L69.278405,27.5555129 L70.8985307,36.4817601 C71.3127865,38.7236468 71.7526188,41.4771478 71.9467487,42.750523 L74.3161407,42.6867914 C74.3903545,41.9324937 74.7958053,39.5879235 75.2008367,37.5676301 L76.830606,29.6838986 L78.2197045,30.0758483 L81.9291384,49.5786151 L81.4083837,49.4318646 L79.8310253,40.7941709 C79.4725347,38.7663722 79.0972727,36.2498523 78.9555536,35.0838566 L76.5790337,35.1303555 C76.506497,36.0256175 76.2402497,37.8334582 75.8268325,39.6860367 L74.0884677,47.368133 L72.4075454,46.895177 Z M65.5974826,24.0348002 L70.338363,48.7941288 L75.8633105,50.3509421 L77.6805012,42.3182379 L79.3257842,51.3270427 L84.99874,52.9262041 L80.290564,28.1777351 L75.010061,26.6871272 L73.1677131,35.6046951 L71.3631009,25.6612153 L65.5974826,24.0348002 Z" id="path42" fill="#DAD9D9" fill-rule="nonzero"></path>
                        <path d="M90.6423457,48.7169799 L88.2880481,36.3505651 L88.3341697,36.3635211 C89.5614233,36.7102297 90.4754694,37.576477 91.2981109,39.1751772 C92.2951759,41.1337097 93.015092,44.2129968 93.1295574,47.0146739 C93.1878383,48.4230596 92.8616329,48.8767283 92.7601654,48.9823887 C92.7161402,49.028091 92.6234778,49.1249464 92.3337503,49.1249464 C92.1740019,49.1249464 91.9865805,49.0955963 91.7769369,49.0364768 L90.6423457,48.7169799 Z M85.2176079,33.0029761 L88.5719055,50.6155124 L91.1291382,51.3358478 C92.5014652,51.7207534 93.6897251,51.4645689 94.4842744,50.6364767 C95.2389913,49.8503132 95.5861611,48.5991602 95.5165595,46.91698 C95.3861611,43.750523 94.5857419,40.3673784 93.4251549,38.0868334 C92.2867901,35.8742968 90.8758887,34.5973996 88.9823877,34.0641501 L85.2176079,33.0029761 Z M87.9819685,51.285114 L84.2712767,31.7811313 L86.8213815,32.5001669 C88.3668741,32.9366449 89.6058678,33.3731229 91.470438,35.0289719 C93.9241067,37.2130389 96.5295573,42.3698103 96.7614232,47.9979024 C96.8310248,49.6947577 96.6205427,52.5677136 94.426832,52.7446528 C94.3840647,52.7471685 94.3102702,52.7484264 94.2352178,52.7484264 C93.3538761,52.7484264 92.218027,52.479244 90.7840648,52.0754704 L87.9819685,51.285114 Z M81.202933,28.4338777 L85.9106897,53.1836465 L90.1354275,54.3748414 C91.9794526,54.8951768 93.3467482,55.1987408 94.5882576,55.1283005 C97.6310248,54.8825982 99.3249451,52.1819693 99.1488445,47.8997892 C98.8779849,41.3140451 95.8016748,35.6856176 93.05744,33.2435631 C91.0234778,31.4368965 89.5245261,30.7802508 87.4700188,30.2004605 L81.202933,28.4338777 Z" id="path44" fill="#DAD9D9" fill-rule="nonzero"></path>
                        <path d="M103.436895,55.6410888 L99.7270415,36.13828 L107.309431,38.2758481 L107.537104,39.4935839 L100.718656,37.5697685 L102.302723,46.0712777 L107.457859,47.5241078 L107.667503,48.6171896 L102.525364,47.1668751 L103.960165,54.8343802 L110.241087,56.6058686 L110.562261,57.6507323 L103.436895,55.6410888 Z M96.6582785,32.7907329 L101.365616,57.5392019 L114.13333,61.1400404 L112.142555,54.6591181 L106.036056,52.9371056 L105.581549,50.5115291 L110.743813,51.9664557 L109.527041,45.6247368 L104.379452,44.1744224 L103.771905,40.9135839 L110.593289,42.8381541 L109.385322,36.3785735 L96.6582785,32.7907329 Z" id="path46" fill="#DAD9D9" fill-rule="nonzero"></path>
                        <path d="M116.328299,59.2771474 L112.59245,39.7648208 L113.41593,39.9975252 L117.152198,59.5090132 L116.328299,59.2771474 Z M109.518236,36.4155966 L114.259536,61.1760991 L120.225574,62.8566022 L115.485532,38.0981542 L109.518236,36.4155966 Z" id="path48" fill="#DAD9D9" fill-rule="nonzero"></path>
                        <path d="M118.483435,42.065827 C119.712785,41.599999 121.093498,41.6088459 122.769808,42.0813407 C127.766873,43.4893071 131.412156,48.2264139 131.63354,53.6012565 C131.766873,56.8532481 130.490982,57.5802921 129.09224,57.8825981 L126.850311,58.3542962 C124.028508,58.9643591 123.781968,60.9501033 123.841926,62.3899355 C123.954714,65.1618432 126.102722,67.833122 128.836894,68.6020947 C130.529556,69.0796628 131.880081,69.0050297 133.193288,68.3710675 L134.155552,70.1098515 C133.102722,70.6092226 131.64528,70.6666649 130.148005,70.2440234 C125.971905,69.0670842 122.550521,64.4872101 122.358907,59.81677 C122.244022,57.0477973 123.131653,56.3182376 124.808802,55.9400405 L126.825154,55.4788246 C129.120332,54.933332 130.137942,53.5731643 130.039829,51.1949673 C129.895594,47.6901456 127.548005,44.69937 124.198739,43.7551352 C122.369389,43.2394119 120.925783,43.2876299 119.367293,43.9467494 L118.483435,42.065827 Z M120.431863,39.3337097 C118.923267,39.3337097 117.565616,39.7156803 116.283016,40.4993701 L115.370228,41.0578606 L118.288047,47.2691812 L119.418865,46.598741 C120.914882,45.7115293 121.929557,45.598741 123.55094,46.0549255 C125.902303,46.7182378 127.550521,48.8234789 127.652408,51.2934998 C127.702303,52.5136255 127.43354,52.8779861 126.282177,53.1513614 L124.280081,53.6100616 C121.19245,54.3060783 119.822639,56.3102711 119.971485,59.9148832 C120.207544,65.6498935 124.303561,71.0784049 129.499368,72.5433944 C130.381129,72.7916124 131.258278,72.9178179 132.105238,72.9178179 C133.859116,72.9178179 135.386579,72.3886774 136.522428,71.3882582 L137.242345,70.7534574 L134.011737,64.9144638 L132.912366,65.7463296 C131.819284,66.5735832 130.922429,66.7077551 129.484693,66.3027237 C127.759326,65.8176084 126.299368,64.0176085 126.228928,62.2914031 C126.179871,61.1039817 126.409221,60.8943381 127.349263,60.6914031 L129.591192,60.2188664 C132.688047,59.5505226 134.176936,57.2909839 134.020542,53.502724 C133.757649,47.1085942 129.3979,41.4662044 123.417607,39.7820116 C122.364358,39.484737 121.359745,39.3337097 120.431863,39.3337097 Z" id="path50" fill="#DAD9D9" fill-rule="nonzero"></path>
                        <path d="M32.9802088,39.5501038 L30.120712,38.7450724 L28.649601,30.9014667 L31.6275045,31.7408797 C32.9083011,32.1026407 33.6960998,32.6402088 34.3176931,33.4473367 C35.0956385,34.4573996 35.6810054,35.8066238 35.7433953,37.3257433 C35.825953,39.3240661 35.1537937,40.1626405 32.9802088,39.5501038 Z M30.9347162,27.7920328 L27.897819,26.9362677 L26.17023,17.875052 L29.4457435,18.7996222 C30.6669175,19.1433957 31.5784059,19.8355551 32.2900202,20.6665823 C33.2186994,21.7588674 33.9737098,23.6712363 34.0449887,25.3886786 C34.1347161,27.5882593 33.3775673,28.4809217 30.9347162,27.7920328 Z M34.7484268,31.0406701 C36.8997475,31.0947162 37.9091395,29.1657016 37.7956385,26.4070853 C37.7111102,24.3689302 36.8636888,21.6411315 35.297106,19.3425572 C33.6690977,16.9873371 32.0017602,15.8046537 28.5762257,14.8394965 L22.0248632,12.993333 L27.5706073,41.8578187 L34.0032277,43.6708584 C37.9045274,44.7698102 39.686498,43.020544 39.5330388,39.3027663 C39.4102296,36.3057014 37.8930808,33.0725778 34.7484268,31.0406701 Z" id="path52" fill="#FFFFFF" fill-rule="nonzero"></path>
                        <path d="M45.2436047,37.1991186 L44.077567,31.0637728 L45.5073364,31.4650307 C46.8176089,31.8343808 47.6004181,32.253668 48.2457011,32.9094751 C48.9224306,33.6138776 49.4394118,34.747127 49.5731644,35.8519907 C49.7060784,36.9149676 49.4691812,37.5995798 48.8306067,37.8146322 C48.3958059,37.9697265 47.7442336,37.9048628 46.8511519,37.6536259 L45.2436047,37.1991186 Z M50.9404599,31.8900621 C50.0062881,30.6394122 48.9073363,29.6984898 47.7723258,29.298993 C47.8012567,29.2678819 48.5144642,28.7190349 49.6503132,25.5622635 C50.2046109,24.018448 50.670439,22.4914879 50.9480071,21.3438569 L47.3836466,19.8650309 C47.0540869,21.1555131 46.7496844,22.3342552 46.3597473,23.5672112 C45.7580701,25.4120748 45.2683427,26.3803767 44.8578605,27.1337939 C44.4737934,27.8159322 44.1278815,27.9954291 43.4410891,27.7627247 L41.70763,18.5424733 L38.4614246,17.6259534 L42.69937,39.7605441 L48.0314453,41.2640661 C50.0259946,41.8268333 51.4071266,41.7806698 52.1656171,40.8885105 C52.9232691,39.9967286 53.133332,38.6720326 52.9467492,37.0007957 C52.7551349,35.2075044 52.0008373,33.3362675 50.9404599,31.8900621 Z" id="path54" fill="#FFFFFF" fill-rule="nonzero"></path>
                        <path d="M61.7672941,41.1463302 C61.3308161,39.8376929 58.6054493,32.9849468 58.0767281,31.5714877 L62.0075456,32.6791606 C61.9991599,33.9026407 61.6888873,39.9392443 61.7672941,41.1463302 Z M62.3412982,24.3576514 L62.0763087,29.3412571 L56.5958057,27.795471 L54.2406695,22.074968 L50.7270428,21.0842343 L60.8356379,44.953458 L64.4092227,45.9605859 L65.7958055,25.3321587 L62.3412982,24.3576514 Z" id="path56" fill="#FFFFFF" fill-rule="nonzero"></path>
                        <path d="M79.2545054,29.1270433 L75.9199142,28.186079 L74.0297675,37.3324519 C73.6394112,39.2775672 73.2100611,41.725282 73.1274615,42.5702295 C72.9262036,41.251152 72.4897257,38.5190766 72.0733735,36.2688461 L70.3211722,26.6080496 L67.1345895,25.7095172 L71.3723253,47.844024 L74.9756795,48.8595376 L76.9928702,39.9462883 C77.4155117,38.0508167 77.6914027,36.1924939 77.7698094,35.2273366 C77.903562,36.3307328 78.2725347,38.8448208 78.6561825,41.0087621 L80.3668743,50.3794537 L83.4637296,51.2524096 L79.2545054,29.1270433" id="path58" fill="#FFFFFF" fill-rule="nonzero"></path>
                        <path d="M91.4532472,50.1861623 L89.6075449,49.6662461 L86.7526184,34.6766868 L88.6582787,35.2139195 C90.2960145,35.675932 91.4327021,36.8263722 92.3605847,38.6289718 C93.4171884,40.7047789 94.1983205,43.9274622 94.3228488,46.9660366 C94.4415071,49.8431853 93.2113184,50.6809212 91.4532472,50.1861623 Z M92.2633101,34.1361836 C90.3085931,32.3999153 88.9622619,31.8628923 87.1450712,31.3500621 L82.7362663,30.1080915 L86.9459098,52.2343802 L90.4595365,53.2251559 C92.2171885,53.7207534 93.4645679,53.9932901 94.5224295,53.9354284 C96.8104798,53.7509421 98.1060772,51.6285102 97.9542952,47.9488458 C97.7031422,41.8338774 94.8612136,36.4490138 92.2633101,34.1361836 Z" id="path60" fill="#FFFFFF" fill-rule="nonzero"></path>
                        <polyline id="path62" fill="#FFFFFF" fill-rule="nonzero" points="111.192031 55.632703 104.997482 53.8859525 104.053247 48.8389925 109.205867 50.2918226 108.49266 46.5748416 103.340878 45.12285 102.24528 39.2415085 109.064987 41.1659948 108.347167 37.3275462 98.1920311 34.4645694 102.400836 56.590355 112.347586 59.3949671 111.192031 55.632703"></polyline>
                        <polyline id="path64" fill="#FFFFFF" fill-rule="nonzero" points="114.450312 39.048259 111.055343 38.0901039 115.293917 60.2259943 118.688467 61.1828077 114.450312 39.048259"></polyline>
                        <path d="M133.63312,66.6989501 C132.263309,67.7358474 130.948005,67.9559731 129.160164,67.4524092 C126.926622,66.824317 125.126622,64.5777762 125.034798,62.3404597 C124.96855,60.7404597 125.433959,59.8830174 127.096014,59.5236882 L129.344651,59.050313 C131.882177,58.5023046 132.958487,56.7505227 132.826412,53.5517806 C132.599577,48.0356382 128.900626,42.5677138 123.093079,40.9316132 C120.472114,40.192955 118.542555,40.5181961 116.906496,41.5186153 L118.809641,45.5706488 C120.389934,44.6339611 121.790353,44.3178186 123.87463,44.90524 C126.793288,45.7278815 128.725783,48.3266235 128.845699,51.2452817 C128.918655,53.0041915 128.307334,53.8985311 126.558068,54.3144641 L124.545909,54.7748414 C122.212995,55.3010468 121.031444,56.6276715 121.164777,59.8658266 C121.378613,65.0628915 125.177355,70.084275 129.823477,71.3937089 C132.145909,72.0482162 134.340877,71.7182372 135.732072,70.4922414 L133.63312,66.6989501" id="path66" fill="#FFFFFF" fill-rule="nonzero"></path>
                        <polygon id="path68" fill="#104076" fill-rule="nonzero" points="60.8960152 33.6120746 59.7387826 33.2779866 60.8960152 36.0901458"></polygon>
                        <path d="M96.0863708,13.4930395 L91.8046099,18.5596641 L94.2331213,20.5875047 C94.2867901,20.6314041 94.3312345,20.6695592 94.3677125,20.7018024 C94.3744211,20.7366871 94.3811297,20.773207 94.3890962,20.8114041 L95.7526182,27.6234794 L103.687628,29.7986995 L101.705239,19.8671693 C101.417188,18.4029346 100.902304,16.7023895 98.4213812,15.0491401 L96.0863708,13.4930395" id="path70" fill="#104076" fill-rule="nonzero"></path>
                        <path d="M101.256601,17.1036474 C99.943813,17.1036474 99.0553434,17.5963098 98.5807103,17.9581128 C97.5874189,18.7152616 97.0176076,19.8946746 97.0167691,21.1941294 C97.0167691,21.7416766 97.1039808,22.282641 97.1559724,22.5563516 L98.3031422,28.3228504 L109.474211,31.386582 L107.700207,22.4990351 C107.454505,21.297316 107.090144,20.2838569 106.109851,19.2457857 C105.272115,18.3416767 104.177775,17.6909849 102.877985,17.3342553 C102.279662,17.1698109 101.73962,17.1036474 101.256601,17.1036474" id="path72" fill="#104076" fill-rule="nonzero"></path>
                        <path d="M101.449054,17.048595 L103.980291,29.880125 L107.091821,30.7332487 C107.927041,30.961886 108.585322,31.106037 109.291402,31.1207539 L109.350521,31.1215925 C109.353876,31.1215925 109.35723,31.1215925 109.360584,31.1215925 C110.568131,31.1215925 111.680081,30.6759321 112.491402,29.8658693 C113.093079,29.2657435 113.81006,28.1890559 113.81006,26.4709427 C113.810899,23.7244439 112.265406,21.3341714 110.734169,20.1836054 L110.729138,20.1798318 C109.703142,19.4121588 108.855343,19.0800415 107.89853,18.8171484 L101.449054,17.048595" id="path74" fill="#104076" fill-rule="nonzero"></path>
                        <path d="M112.576517,20.2569806 C111.300626,20.2569806 110.384484,20.711488 109.785741,21.1680917 C108.655343,22.030272 108.033121,23.3765613 108.033121,24.9585738 C108.032282,26.6511104 108.642345,28.4776094 109.664987,29.8422634 C110.693079,31.2226407 112.124525,32.198322 113.799159,32.6570642 C115.759326,33.1949258 117.180291,32.7022633 118.026831,32.1940453 L119.116559,31.5403766 L120.17484,31.8306072 L120.008383,31.0049887 L121.05115,30.3794961 L119.467922,28.3174416 L118.358068,22.8003768 L117.407544,22.0813831 C116.403771,21.3215928 115.374001,20.8038569 114.259117,20.4980708 C113.640668,20.3278821 113.0805,20.2569806 112.576517,20.2569806" id="path76" fill="#104076" fill-rule="nonzero"></path>
                        <polyline id="path78" fill="#104076" fill-rule="nonzero" points="112.571066 20.0989094 115.101884 32.9299363 126.244861 35.9848209 124.452827 30.8457854 122.923687 22.9371483 112.571066 20.0989094"></polyline>
                        <path d="M121.734169,22.7501043 C121.090982,22.7501043 120.474211,22.8419701 119.914462,23.0260791 L116.399578,24.1818862 L118.785741,28.769014 C118.70985,29.0934584 118.672953,29.4239825 118.672953,29.7513619 C118.672114,32.297735 120.664148,34.6242759 123.516978,35.4071689 C124.19245,35.5920746 125.925364,35.9458691 127.490563,35.2574834 L130.785741,33.8058692 L128.620542,30.2741712 C128.751359,29.8720747 128.823477,29.4259531 128.823477,28.9353871 C128.824315,26.2401671 126.759745,23.8625151 123.685531,23.0193705 C123.029766,22.8398317 122.369389,22.7501043 121.734169,22.7501043" id="path80" fill="#104076" fill-rule="nonzero"></path>
                        <path d="M98.6482156,20.6009219 C98.4599556,19.6591609 98.3555531,18.7827668 96.6813393,17.6667501 L96.2524085,18.1739618 C97.235637,18.99501 97.2985301,19.3086788 97.4763078,20.1940875 L98.4595363,25.1048212 L99.6104797,25.4205864 L98.6482156,20.6009219" id="path82" fill="#FEFFFF" fill-rule="nonzero"></path>
                        <path d="M104.622639,23.129098 C104.434379,22.208469 104.246119,21.8494334 103.82767,21.40675 C103.419704,20.9664984 102.854085,20.5883014 102.048215,20.3673789 C100.876308,20.0462049 100.164777,20.3806284 100.164777,21.1966032 C100.164777,21.397903 100.196224,21.6927039 100.248216,21.9714879 L101.011738,25.8046534 L102.173163,26.1232279 L101.430605,22.3912363 C101.368132,22.0776095 101.347167,21.88088 101.347167,21.7542972 C101.347167,21.3726619 101.629767,21.2062888 102.174002,21.3554712 C102.613834,21.4763517 102.927041,21.6787835 103.125784,21.9768548 C103.293498,22.2238569 103.387419,22.4829764 103.471276,22.9191189 L104.224316,26.685492 L105.395804,27.0071691 L104.622639,23.129098" id="path84" fill="#FEFFFF" fill-rule="nonzero"></path>
                        <path d="M108.325364,26.9198735 L107.676308,26.7421796 L106.881339,22.7202929 L107.55136,22.9044019 C108.127041,23.0620959 108.514043,23.390817 108.817188,23.8875885 C109.162681,24.4586996 109.392869,25.3270853 109.392869,26.1320748 C109.39245,26.8951356 108.942136,27.0892236 108.325364,26.9198735 Z M108.849054,22.6989931 C108.179033,22.1969806 107.708593,22.025534 107.070018,21.8507751 L105.521171,21.4260791 L106.692241,27.3627666 L107.927461,27.7011314 C108.544651,27.8708169 108.984064,27.9697268 109.361004,27.9777771 C110.177775,27.9790769 110.66918,27.4466241 110.669599,26.4720748 C110.669599,24.8507751 109.738362,23.3664145 108.849054,22.6989931 Z" id="path86" fill="#FEFFFF" fill-rule="nonzero"></path>
                        <path d="M115.72201,28.5991607 C115.376517,28.7797896 114.979452,28.8187833 114.455762,28.6759741 C113.932911,28.532494 113.482597,28.2185318 113.189515,27.7882593 C112.73962,27.1350937 112.436056,25.9605864 112.436475,25.197861 C112.436475,24.4030183 112.939201,24.2339617 113.682177,24.4372321 C113.964777,24.5148841 114.205029,24.6441084 114.425154,24.7895172 L114.696852,26.1458274 L113.734169,25.8818023 L113.73375,26.8037729 L116.088047,27.4495591 L115.513205,24.5898946 C114.832702,24.0750937 114.153037,23.7295172 113.431444,23.5316556 C111.934588,23.1212154 111.181129,23.740838 111.18071,24.9593704 C111.18071,25.8705235 111.515301,27.0641503 112.185322,27.9576094 C112.761003,28.7295171 113.587419,29.3383221 114.63354,29.6251146 C115.355553,29.8234374 115.951779,29.7748001 116.412576,29.4984898 L115.72201,28.5991607" id="path88" fill="#FEFFFF" fill-rule="nonzero"></path>
                        <polyline id="path90" fill="#FEFFFF" fill-rule="nonzero" points="120.953037 30.3521166 118.776517 29.7551355 118.515301 28.4012991 120.325364 28.8977351 120.126622 27.9002928 118.31614 27.4033536 118.012995 25.8264564 120.409221 26.4833956 120.210479 25.4545067 116.642345 24.4758904 117.813414 30.4125779 121.309012 31.3710265 120.953037 30.3521166"></polyline>
                        <path d="M125.608802,31.3744646 C125.158907,31.5156386 124.667083,31.5186156 124.217188,31.395429 C123.568131,31.2172319 123.1392,30.8238147 123.1392,30.4109426 C123.1392,30.14545 123.306496,30.0117812 123.75681,29.9870433 L124.436894,29.9513619 C125.242764,29.9072948 125.682177,29.5828504 125.682177,28.9367288 C125.682596,27.6649469 124.458278,26.4927457 122.857439,26.0536262 C122.176936,25.8667499 121.444861,25.8356388 120.900626,26.0146325 L121.433959,27.0397478 C121.946747,26.8948002 122.470018,26.8787834 123.077146,27.0456597 C123.820123,27.2490979 124.322009,27.7157226 124.322009,28.1820119 C124.322009,28.5102299 124.13375,28.6709008 123.651989,28.7082173 L123.013833,28.7550936 C122.176517,28.8122425 121.820961,29.1597896 121.820961,29.7527037 C121.820961,30.8549678 122.898529,31.9768545 124.352617,32.3756805 C125.032701,32.5619279 125.797062,32.5702717 126.225993,32.3802927 L125.608802,31.3744646" id="path92" fill="#FEFFFF" fill-rule="nonzero"></path>
                    </g>
                </g>
            </g>
        </g>
    </g>
</svg>