<?xml version="1.0" encoding="UTF-8"?>
<svg width="200px" height="200px" viewBox="0 0 200 200" version="1.1" xmlns="http://www.w3.org/2000/svg" xmlns:xlink="http://www.w3.org/1999/xlink">
    <!-- Generator: Sketch 51.3 (57544) - http://www.bohemiancoding.com/sketch -->
    <title>bridgeport</title>
    <desc>Created with Sketch.</desc>
    <defs></defs>
    <g id="bridgeport" stroke="none" stroke-width="1" fill="none" fill-rule="evenodd">
        <g id="bridgeport_BGL" transform="translate(3.827751, 0.000000)">
            <g id="bridgeport">
                <g id="g10" transform="translate(95.245331, 100.533186) scale(-1, 1) rotate(-180.000000) translate(-95.245331, -100.533186) translate(0.000000, 0.479855)" fill-rule="nonzero">
                    <g id="g12" transform="translate(0.000000, 0.918857)">
                        <path d="M172.463318,97.2306018 C204.346566,45.6725078 126.96661,5.22440718 126.96661,5.22440718 C120.600962,51.8564162 92.5371038,82.2245419 65.815033,101.012107 C64.6375563,105.143799 63.9574944,109.127555 63.6789909,112.920393 C63.62928,113.60341 63.5914875,114.280302 63.5664283,114.951068 L63.5584827,115.194054 L63.516208,115.432957 C63.135023,117.657612 62.9496256,120.151799 62.9571638,122.806275 C62.9579787,122.915517 62.952376,123.021696 62.953191,123.131959 C62.9690822,124.759357 63.0757366,126.452096 63.2528827,128.18261 C63.4720997,130.332736 63.8186501,132.541056 64.3060821,134.781025 C76.3745314,134.338953 87.5011215,132.385871 97.2289805,129.478199 C99.6410812,133.46706 101.160321,137.666237 102.06836,140.98229 C113.897117,184.156323 180.787862,177.297565 178.949169,135.160819 L185.480859,137.206808 C184.581377,124.386709 179.614358,109.856515 172.463318,97.2306018 Z M112.678792,163.487143 C106.151176,158.276202 101.032274,151.10197 98.527373,141.95832 C97.8636098,139.549894 96.8768274,136.685101 95.4427485,133.83154 C88.6880719,135.674359 81.3349286,137.065917 73.5250152,137.851029 C84.153783,153.775844 98.5878818,160.856148 112.678792,163.487143 Z M73.8178819,76.6787287 C45.4245866,104.30866 46.809362,131.214839 52.2006552,148.249429 L52.2807224,148.506709 L54.3112306,153.604324 L51.059443,148.721109 C47.7393028,143.645955 44.6326752,137.859197 41.8978608,131.253635 C41.4628902,173.35771 73.7665411,190.366776 96.2950669,194.183096 C113.147379,197.042784 145.548108,195.857458 162.298044,169.36987 C128.345885,197.7891 92.3011806,184.464651 92.3011806,184.464651 L99.4306247,185.689793 C116.692338,187.469313 135.204567,182.378845 148.36574,174.560392 C137.191986,177.089291 125.8746,174.587958 117.061096,167.883363 C100.018293,165.840438 81.5419217,158.129185 68.9004724,137.454899 C72.3293043,182.313504 129.794429,175.688544 129.794429,175.688544 L127.899709,176.225565 C70.2103758,187.319233 55.9980407,137.542701 59.8940332,114.809155 C60.3305318,103.351007 64.0335888,90.3379482 73.8178819,76.6787287 Z M12.6836221,127.294382 C21.2427648,130.138755 29.6722313,132.091837 37.8649596,133.308812 C37.8327697,131.38738 37.8716828,129.410816 37.9751793,127.383204 C38.0117494,126.664454 38.0567745,125.938557 38.1108657,125.205513 C38.2079446,123.897673 38.3257025,122.571456 38.4809473,121.219715 L40.8735915,124.24786 L43.7859594,127.93554 L45.2940954,129.844721 L45.4444506,130.20818 C45.4281519,129.524142 45.4333471,128.802328 45.4488309,128.065201 C45.4866234,126.279555 45.6231247,124.343829 45.8710682,122.287631 C46.2466506,119.163517 46.8861695,115.76885 47.8391321,112.217978 C28.1868116,123.035989 12.6836221,127.294382 12.6836221,127.294382 Z M189.52191,142.330968 L182.564417,140.152256 C181.722998,152.492507 175.765836,161.421756 167.353686,166.971653 C150.774887,200.076033 112.730744,200.706982 95.6814221,197.816666 C74.7434424,194.266814 40.6324731,178.511477 38.0154166,137.053665 C29.4016734,135.81525 20.5317355,133.779471 11.5257037,130.78706 L0,126.958488 L11.7106936,123.743509 C11.7970765,123.719006 28.7005251,119.035898 49.3986089,107.111174 C54.5719074,92.0827558 65.4775488,75.4288789 85.9384869,65.3676997 L76.8054274,78.8267104 C72.8310995,84.3712985 69.9302425,89.7776496 67.8646922,94.9864464 C92.6258297,76.4733131 117.464488,47.6541763 123.326914,4.7238955 L123.958488,0.100898802 L128.298007,1.7926494 C128.391725,1.8297406 165.544535,20.5661663 178.970561,47.1751455 C186.777622,62.6406339 189.118518,78.5622838 177.105382,98.0289865 C183.689025,110.389452 188.261819,124.354039 189.147041,136.946465 L189.52191,142.330968 Z" id="path14" fill="#B3B5B7"></path>
                        <path d="M45.4444506,130.20818 L45.2940954,129.844721 L43.7859594,127.93554 C44.3398085,127.977399 44.8989546,128.028446 45.4488309,128.065201 C45.4333471,128.802328 45.4281519,129.524142 45.4444506,130.20818" id="path16" fill="#231F20"></path>
                        <path d="M40.8735915,124.24786 L38.4809473,121.219715 C38.3257025,122.571456 38.2079446,123.897673 38.1108657,125.205513 C36.397061,125.7701 34.6816263,126.287723 32.9674141,126.742046 C34.6538167,126.987075 36.3194386,127.194328 37.9751793,127.383204 C37.8716828,129.410816 37.8327697,131.38738 37.8649596,133.308812 C29.6722313,132.091837 21.2427648,130.138755 12.6836221,127.294382 C12.6836221,127.294382 28.1868116,123.035989 47.8391321,112.217978 C46.8861695,115.76885 46.2466506,119.163517 45.8710682,122.287631 C44.2085024,122.991067 42.5416581,123.642435 40.8735915,124.24786" id="path18" fill="#231F20"></path>
                        <path d="M45.4488309,128.065201 C44.8989546,128.028446 44.3398085,127.977399 43.7859594,127.93554 L40.8735915,124.24786 C42.5416581,123.642435 44.2085024,122.991067 45.8710682,122.287631 C45.6231247,124.343829 45.4866234,126.279555 45.4488309,128.065201" id="path20" fill="#302A83"></path>
                        <path d="M92.3532345,123.263662 C83.8677414,125.819105 74.0801885,127.598625 63.2528827,128.18261 C63.0757366,126.452096 62.9690822,124.759357 62.953191,123.131959 C70.6520697,122.30805 77.6438919,120.477483 83.989472,117.889368 C87.2976938,119.115532 90.0521684,121.014504 92.3532345,123.263662" id="path22" fill="#302A83"></path>
                        <path d="M132.783197,15.6552834 C146.772546,21.9229099 189.979291,63.855363 169.025318,91.5610491 C162.107553,80.9339561 153.686236,72.2526961 145.072391,68.0688333 C136.498274,72.3639799 134.622909,76.155899 130.373031,81.774302 C133.431069,75.0379562 136.296578,69.9076706 144.050668,64.9980129 C148.947399,66.8416486 154.255671,70.7264744 154.255671,70.7264744 C147.614983,61.5674087 143.95797,52.2400901 142.08566,39.7405704 C142.424876,38.2713179 142.580732,37.4454695 142.580732,37.4454695 C142.276151,38.1959716 141.942028,38.9748562 141.584476,39.776508 C140.432364,42.1776858 139.084669,44.8995448 137.551575,47.874702 C123.190413,74.3357452 90.6394297,115.539136 62.9569429,122.806275 C62.9496256,120.151799 63.135023,117.657612 63.516208,115.432957 L63.5584827,115.194054 L63.5664283,114.951068 C63.5914875,114.280302 63.62928,113.60341 63.6789909,112.920393 C99.4155484,90.4268732 129.670151,49.008878 132.783197,15.6552834" id="path24" fill="#302A83"></path>
                        <path d="M38.1108657,125.205513 C38.0567745,125.938557 38.0117494,126.664454 37.9751793,127.383204 C36.3194386,127.194328 34.6538167,126.987075 32.9674141,126.742046 C34.6816263,126.287723 36.397061,125.7701 38.1108657,125.205513" id="path26" fill="#302A83"></path>
                        <path d="M102.06836,140.98229 C101.160321,137.666237 99.6410812,133.46706 97.2289805,129.478199 C87.5011215,132.385871 76.3745314,134.338953 64.3060821,134.781025 C63.8186501,132.541056 63.4720997,130.332736 63.2528827,128.18261 C74.0801885,127.598625 83.8677414,125.819105 92.3532345,123.263662 C90.0521684,121.014504 87.2976938,119.115532 83.989472,117.889368 C77.6438919,120.477483 70.6520697,122.30805 62.953191,123.131959 C62.952376,123.021696 62.9579787,122.915517 62.9571638,122.806275 C90.6394297,115.539136 123.190413,74.3357452 137.551575,47.874702 C139.084669,44.8995448 140.432364,42.1776858 141.584476,39.776508 C141.942028,38.9748562 142.276151,38.1959716 142.580732,37.4454695 C142.580732,37.4454695 142.424876,38.2713179 142.08566,39.7405704 C143.95797,52.2400901 147.614983,61.5674087 154.255671,70.7264744 C154.255671,70.7264744 148.947399,66.8416486 144.050668,64.9980129 C136.296578,69.9076706 133.431069,75.0379562 130.373031,81.774302 C134.622909,76.155899 136.498274,72.3639799 145.072391,68.0688333 C153.686236,72.2526961 162.107553,80.9339561 169.025318,91.5610491 C189.979291,63.855363 146.772546,21.9229099 132.783197,15.6552834 C129.670151,49.008878 99.4155484,90.4268732 63.6789909,112.920393 C63.9574944,109.127555 64.6375563,105.143799 65.815033,101.012107 C92.5371038,82.2245419 120.600962,51.8564162 126.96661,5.22440718 C126.96661,5.22440718 204.346566,45.6725078 172.463318,97.2306018 C179.614358,109.856515 184.581377,124.386709 185.480859,137.206808 L178.949169,135.160819 C180.787862,177.297565 113.897117,184.156323 102.06836,140.98229" id="path28" fill="#231F20"></path>
                        <path d="M120.620317,150.595577 C119.034253,151.72373 118.193853,152.407768 118.193853,152.407768 C118.193853,152.407768 128.828733,143.725589 145.764066,137.408957 C137.885698,142.539242 138.280941,173.924339 165.658625,154.581375 C164.604305,155.931074 163.337084,157.132735 161.908913,158.194526 C148.944343,165.623996 130.41989,160.964369 120.620317,150.595577" id="path30" fill="#302A83"></path>
                        <path d="M117.472637,148.398488 C117.339192,147.58581 117.206765,146.773132 117.090637,145.976789 C116.535464,145.056911 116.046504,144.109467 115.630888,143.132415 C110.086285,134.08882 108.250648,115.651441 102.700952,106.895754 C112.923272,98.7926589 120.706904,88.6780839 126.555069,78.6886777 C125.895992,81.8313732 125.127917,85.5323255 124.098045,90.0308457 C123.719101,92.3175748 111.630584,112.956127 117.472637,148.398488" id="path32" fill="#302A83"></path>
                        <path d="M160.40638,127.714138 C160.41838,127.711471 160.429047,127.708804 160.441047,127.704804 C160.429047,127.708804 160.41838,127.711471 160.40638,127.714138" id="path34" fill="#302A83"></path>
                        <path d="M157.974823,128.360149 C158.001489,128.353483 158.026823,128.345483 158.054823,128.338816 C158.026823,128.345483 158.001489,128.353483 157.974823,128.360149" id="path36" fill="#302A83"></path>
                        <path d="M146.95285,131.970938 C147.02885,131.942938 147.10485,131.913604 147.182183,131.885604 C147.10485,131.913604 147.02885,131.942938 146.95285,131.970938" id="path38" fill="#302A83"></path>
                        <path d="M143.303986,130.795227 L142.650002,124.327494 C148.903596,121.21461 156.047505,118.235471 161.126577,116.878626 C161.126577,116.878626 161.936417,121.204401 162.465105,124.950275 L162.418247,124.629696 C157.251569,125.694549 147.682215,128.799265 143.303986,130.795227" id="path40" fill="#302A83"></path>
                        <path d="M139.689757,115.919951 C139.658178,114.450801 139.641879,112.938771 139.658178,111.397132 C144.116882,107.70639 149.078807,104.320912 154.211868,102.363746 C153.632247,100.432615 153.035308,98.5793819 152.411884,96.8457027 C151.44517,97.4737926 150.519202,98.1266916 149.625831,98.7926589 C150.506978,98.1147465 151.423778,97.436732 152.397623,96.7647412 C147.905303,98.9673438 143.92741,102.238169 139.811997,106.196401 C139.889415,104.636386 139.998413,103.056973 140.1451,101.476641 C143.492439,98.2722794 147.23502,95.1048769 150.83397,92.9453584 C150.472343,91.5507375 149.609532,89.9570309 149.025836,89.078093 C148.841458,89.1781463 148.66421,89.2854484 148.483906,89.3895856 C148.646892,89.2751368 148.803767,89.1606881 148.96981,89.0454225 C145.61534,90.390221 143.28565,91.9570766 141.159692,93.8031626 C142.136594,88.2071186 143.669687,82.7461465 145.99021,77.8926411 C146.147084,77.8149466 146.298866,77.7331683 146.456759,77.6597619 C151.071319,84.404071 154.689623,92.0244594 157.746641,103.380615 C163.521463,105.342885 168.065734,107.37458 172.746508,111.746298 C168.398838,109.094885 163.487847,106.87023 158.370065,106.418969 L158.362935,106.403654 C157.070247,106.980493 155.853959,107.562435 154.682492,108.144378 C155.850903,107.526702 157.028481,106.926382 158.226433,106.363837 C151.040759,108.397574 146.075778,111.625826 139.689757,115.919951" id="path42" fill="#302A83"></path>
                        <polyline id="path44" fill="#302A83" points="154.945308 115.574869 151.565372 113.418618 158.173463 109.722771 158.018625 114.188416 154.945308 115.574869"></polyline>
                        <path d="M115.630888,143.132415 C116.046504,144.109467 116.535464,145.056911 117.090637,145.976789 C117.206765,146.773132 117.339192,147.58581 117.472637,148.398488 C117.505234,148.587364 117.530701,148.771135 117.561261,148.960012 C117.754808,150.095311 117.963634,151.242861 118.193853,152.407768 C118.193853,152.407768 119.034253,151.72373 120.620317,150.595577 C130.41989,160.964369 148.944343,165.623996 161.908913,158.194526 C161.921137,158.1884 161.933361,158.182274 161.946604,158.175127 C161.762225,158.311935 161.565623,158.438533 161.376151,158.571257 C161.147969,158.730526 160.926919,158.894899 160.691607,159.048042 C160.258673,159.326762 159.814535,159.595272 159.358172,159.85051 C159.112673,159.987318 158.856988,160.111874 158.606396,160.241535 C158.363953,160.367112 158.124567,160.496773 157.874993,160.616225 C157.616252,160.740781 157.348343,160.854106 157.082471,160.971516 C156.83086,161.0828 156.580268,161.196125 156.321527,161.301284 C156.05158,161.410525 155.77654,161.512621 155.500481,161.615737 C155.235628,161.714769 154.970775,161.813802 154.699809,161.905687 C154.423751,162.000636 154.140561,162.089459 153.858391,162.177261 C153.581313,162.264042 153.302199,162.348781 153.020028,162.428415 C152.73582,162.508049 152.449575,162.584621 152.161292,162.658129 C151.869954,162.731638 151.578615,162.801063 151.283202,162.868445 C150.995938,162.932765 150.705618,162.997085 150.414279,163.056301 C150.109698,163.116537 149.80206,163.171668 149.493404,163.225779 C149.20614,163.274784 148.917858,163.325832 148.627538,163.369733 C148.301564,163.418739 147.972535,163.457535 147.642487,163.498373 C147.363372,163.533085 147.085276,163.570861 146.804124,163.600468 C146.435367,163.636202 146.062535,163.661725 145.690722,163.689291 C145.443186,163.706647 145.198706,163.730129 144.950151,163.744423 C144.33997,163.776072 143.727751,163.79547 143.112476,163.800575 C142.912818,163.802617 142.711122,163.794449 142.509426,163.792407 C142.077511,163.790365 141.645596,163.786282 141.210626,163.769946 C140.953922,163.760758 140.697218,163.740339 140.439495,163.726045 C140.059532,163.704605 139.680589,163.683165 139.300626,163.651516 C139.027623,163.628034 138.754621,163.596384 138.481618,163.568819 C138.115917,163.530023 137.750215,163.491226 137.382477,163.442221 C137.106418,163.405466 136.829341,163.363607 136.553282,163.321748 C136.189618,163.266617 135.82901,163.208423 135.466365,163.144103 C135.190306,163.094076 134.914247,163.040986 134.639207,162.985855 C134.275543,162.913367 133.913917,162.834754 133.55229,162.752057 C133.282343,162.689779 133.013415,162.627501 132.744487,162.560118 C132.37573,162.467211 132.00901,162.367158 131.64229,162.264042 C131.385586,162.191554 131.126845,162.120087 130.871159,162.043516 C130.488141,161.926106 130.109197,161.800529 129.730253,161.67291 C129.494941,161.593276 129.25861,161.517725 129.024317,161.434007 C128.597495,161.280865 128.175767,161.114449 127.754039,160.945992 C127.573735,160.873505 127.391394,160.807143 127.212109,160.732613 C126.613133,160.48248 126.01925,160.218053 125.434536,159.935249 C125.378509,159.908705 125.323501,159.878076 125.269512,159.85051 C124.742861,159.594251 124.221304,159.32472 123.708914,159.042937 C123.524536,158.939821 123.343213,158.828537 123.158834,158.722358 C122.781928,158.504895 122.40604,158.286411 122.037282,158.053634 C121.826418,157.92091 121.621666,157.78104 121.41284,157.644232 C121.078717,157.423707 120.74765,157.201139 120.421677,156.968362 C120.207757,156.815219 119.996893,156.654929 119.78501,156.496682 C119.476354,156.263905 119.170754,156.029086 118.870248,155.785078 C118.660402,155.614579 118.452594,155.438975 118.246824,155.263371 C117.955485,155.014259 117.670258,154.760042 117.387069,154.499699 C117.18741,154.314907 116.98877,154.128072 116.792168,153.938175 C116.51509,153.666602 116.244125,153.387882 115.976216,153.105078 C115.790818,152.911097 115.604402,152.718137 115.426136,152.51803 C115.15517,152.21685 114.89541,151.905459 114.636669,151.592027 C114.473682,151.394983 114.306621,151.202023 114.148728,150.999874 C113.872669,150.647646 113.609853,150.282145 113.349074,149.914602 C113.22276,149.736956 113.091352,149.565436 112.968093,149.384728 C112.592205,148.82933 112.230579,148.260659 111.890344,147.670549 C111.512419,147.053893 111.154867,146.409673 110.813613,145.739928 C105.670365,135.657002 104.190243,120.012949 92.9787977,113.509483 C96.4450147,111.520668 99.6773458,109.29295 102.700952,106.895754 C108.250648,115.651441 110.086285,134.08882 115.630888,143.132415" id="path46" fill="#B3B5B7"></path>
                        <path d="M148.483906,89.3895856 C145.356599,91.5877981 142.776316,93.7848876 140.676844,95.80719 C140.738983,95.7366422 140.796028,95.6664007 140.859186,95.5958528 C140.951884,94.9975748 141.05477,94.4002155 141.159692,93.8031626 C143.28565,91.9570766 145.61534,90.390221 148.96981,89.0454225 C148.803767,89.1606881 148.646892,89.2751368 148.483906,89.3895856" id="path48" fill="#B3B5B7"></path>
                        <path d="M126.32485,135.735616 C126.056941,135.863235 125.573074,104.806885 139.108098,84.9360893 C130.317005,92.3922065 126.133341,104.602695 124.318077,116.437574 C123.190413,123.821102 123.025389,130.804416 123.16189,135.925513 C123.201618,137.481444 123.270888,138.863814 123.347288,140.032804 C127.70005,137.506968 140.296882,131.867227 140.296882,131.867227 L140.894839,131.626282 C140.894839,131.626282 130.621586,133.648789 126.32485,135.735616 Z M160.432865,127.704804 C160.423697,127.707867 160.415548,127.709909 160.40638,127.711951 C159.645436,127.901848 158.853932,128.111143 158.035943,128.338816 C158.014551,128.343921 157.995196,128.350046 157.974823,128.355151 C157.166001,128.580782 156.332732,128.823768 155.477052,129.082069 C155.445473,129.091258 155.412876,129.101467 155.381297,129.111677 C154.533767,129.368957 153.666881,129.64053 152.78166,129.928439 C152.74397,129.94069 152.70526,129.952942 152.668588,129.965193 C151.78846,130.253102 150.89509,130.552241 149.988476,130.865673 C149.941618,130.882008 149.894759,130.899364 149.848919,130.9157 C148.950455,131.22709 148.042823,131.550732 147.12806,131.885604 C147.068978,131.907044 147.010914,131.929505 146.95285,131.950945 C146.049292,132.282755 145.139623,132.624774 144.229954,132.977002 C144.15661,133.005589 144.082247,133.035197 144.007884,133.063783 C143.113495,133.410907 142.217068,133.76722 141.324716,134.130679 C141.296194,134.14293 141.266652,134.15416 141.237111,134.166412 L140.564791,134.444111 L139.844594,134.74325 L139.779399,134.770816 C139.746802,134.784088 139.714205,134.798381 139.682626,134.811654 C138.83917,135.165924 138.001826,135.52632 137.170594,135.891821 C137.145127,135.903052 137.118642,135.914282 137.094194,135.925513 C136.295559,136.277741 135.506093,136.636096 134.726813,136.996492 C134.623927,137.044477 134.522061,137.090419 134.420194,137.137383 C133.677586,137.484507 132.946183,137.834694 132.224967,138.186922 C132.097634,138.250221 131.970301,138.310457 131.843986,138.373757 C131.13805,138.72088 130.448413,139.072088 129.772018,139.423296 C129.643666,139.489657 129.516333,139.556019 129.390018,139.622381 C128.715661,139.975631 128.057602,140.330922 127.418898,140.687235 C127.306845,140.749513 127.19581,140.81077 127.085794,140.874069 C126.440978,141.236507 125.81348,141.598945 125.20941,141.962404 C125.123842,142.014473 125.040312,142.066541 124.954744,142.11861 C124.33845,142.493299 123.741512,142.867989 123.174114,143.241657 C123.1242,143.274328 123.077341,143.305977 123.027426,143.339669 C122.437618,143.731715 121.87124,144.12376 121.342552,144.511722 C121.028802,144.74552 114.844477,90.6270819 145.994284,77.8815127 C145.993266,77.8854944 145.992247,77.888251 145.99021,77.8926411 C143.669687,82.7461465 142.136594,88.2071186 141.159692,93.8031626 C141.05477,94.4002155 140.951884,94.9975748 140.859186,95.5958528 C140.796028,95.6664007 140.738983,95.7366422 140.676844,95.80719 C140.388562,96.126646 140.106391,96.4473271 139.835426,96.7699481 C139.759026,96.8616296 139.687719,96.9521881 139.612338,97.0438696 C139.380082,97.3250399 139.153938,97.6074353 138.934925,97.8894223 C138.843245,98.0062193 138.751565,98.1227099 138.662941,98.2395069 C138.39605,98.5892852 138.135271,98.9394718 137.886717,99.2872082 C137.838839,99.3541827 137.795037,99.4208508 137.747159,99.4886421 C137.535277,99.787679 137.330525,100.084878 137.132903,100.381567 C137.055485,100.497649 136.979085,100.613221 136.902685,100.728895 C136.707101,101.025992 136.519666,101.320333 136.338343,101.611508 C136.295559,101.678891 136.252775,101.747091 136.21101,101.813657 C136.01237,102.136686 135.823917,102.45359 135.641575,102.766001 C135.577399,102.876264 135.514242,102.985506 135.452103,103.093727 C135.305415,103.348965 135.164839,103.602161 135.030375,103.848211 C134.98861,103.921719 134.946845,103.99727 134.907117,104.070778 C134.742093,104.37298 134.589293,104.664973 134.442605,104.949818 C134.393709,105.046809 134.34685,105.139715 134.297954,105.234664 C134.189975,105.449064 134.088109,105.656317 133.989298,105.858466 C133.950589,105.937079 133.910861,106.017734 133.874189,106.095327 C133.751949,106.350565 133.636839,106.595594 133.530898,106.828371 C133.496263,106.903921 133.465703,106.972325 133.433106,107.043792 C133.35365,107.220416 133.278269,107.389894 133.208999,107.550184 C133.180477,107.615525 133.151954,107.679845 133.125469,107.743144 C133.040919,107.941209 132.962482,108.127022 132.892194,108.2965 C132.872839,108.346527 132.856541,108.388386 132.836167,108.43535 C132.785234,108.565011 132.736338,108.686504 132.693554,108.795746 C132.675218,108.840668 132.658919,108.883548 132.642621,108.924386 C132.594743,109.048942 132.551959,109.163289 132.518343,109.255174 C132.509175,109.278656 132.505101,109.290908 132.496951,109.313369 C132.470466,109.384835 132.448055,109.450176 132.431757,109.494077 C132.424626,109.514496 132.42157,109.521643 132.416477,109.535936 C132.40629,109.566565 132.395085,109.598214 132.395085,109.598214 C132.648733,109.310306 132.913586,109.010146 133.189645,108.700797 C133.273175,108.607891 133.363837,108.508858 133.448386,108.41391 C133.647026,108.192363 133.846685,107.970816 134.055511,107.741102 C134.161453,107.623693 134.275543,107.501178 134.385559,107.380706 C134.581143,107.167327 134.776727,106.953948 134.980461,106.734443 C135.103719,106.600698 135.234109,106.46287 135.360423,106.327083 C135.561101,106.111662 135.760759,105.897262 135.969586,105.677757 C136.103031,105.536866 136.242589,105.392912 136.380109,105.248957 C136.584861,105.034557 136.790631,104.820157 137.001495,104.600653 C137.157351,104.441384 137.317282,104.279053 137.474157,104.117742 C137.672797,103.914573 137.871437,103.712424 138.07517,103.506192 C138.253437,103.327525 138.435778,103.146816 138.617101,102.966108 C138.805554,102.780295 138.99197,102.59346 139.182461,102.406626 C139.38925,102.204477 139.599095,102.002329 139.808941,101.79967 C139.920994,101.69002 140.03101,101.581594 140.1451,101.472659 C140.1451,101.473884 140.1451,101.474701 140.1451,101.476641 C139.998413,103.056973 139.889415,104.636386 139.811997,106.196401 C143.92741,102.238169 147.905303,98.9673438 152.397623,96.7647412 C151.423778,97.436732 150.506978,98.1147465 149.625831,98.7926589 C144.105676,103.037575 140.345778,107.289841 138.272791,109.908584 L138.111842,110.1189 C135.029357,114.040378 133.477927,116.937841 133.477927,116.937841 C133.908823,116.525376 134.348887,116.108828 134.794045,115.691258 C134.920359,115.573849 135.047693,115.456439 135.175026,115.338009 C135.516279,115.022534 135.862626,114.705018 136.212029,114.388523 C136.345474,114.26805 136.477901,114.147578 136.610327,114.026085 C137.060578,113.62383 137.513885,113.221574 137.975341,112.82034 C137.99877,112.800942 138.021181,112.780523 138.04461,112.760104 C138.526439,112.343555 139.017437,111.929049 139.512509,111.516584 C139.561405,111.475746 139.609282,111.433887 139.658178,111.393049 C139.658178,111.39407 139.658178,111.396112 139.658178,111.397132 C139.641879,112.938771 139.658178,114.450801 139.689757,115.919951 C146.075778,111.625826 151.040759,108.397574 158.226433,106.363837 C157.028481,106.926382 155.850903,107.526702 154.682492,108.144378 C149.299858,110.991814 144.228935,114.408942 139.517602,118.305917 C139.512509,118.310001 139.505378,118.316127 139.499266,118.32021 C139.452407,118.364111 139.411661,118.406991 139.366839,118.450892 C138.999101,118.799037 138.649698,119.143098 138.315575,119.483075 C138.225933,119.575982 138.13629,119.666847 138.049703,119.757711 C137.727805,120.092584 137.421186,120.42133 137.130866,120.745993 C137.076877,120.805208 137.021869,120.864424 136.969917,120.922618 C136.625607,121.312622 136.300653,121.695479 135.99709,122.070168 C135.975698,122.094671 135.958381,122.119174 135.938007,122.144698 C135.668061,122.480591 135.414413,122.809338 135.175026,123.131959 C135.107794,123.222824 135.042599,123.311646 134.978423,123.40149 C134.784877,123.667959 134.602535,123.928302 134.429362,124.184561 C134.373335,124.266237 134.315271,124.349955 134.262301,124.43061 C133.832423,125.079936 133.466722,125.693528 133.15501,126.264241 C133.10917,126.346938 133.068423,126.425551 133.024621,126.507227 C132.916642,126.709376 132.816813,126.90642 132.722077,127.096317 C132.682349,127.180035 132.641602,127.262732 132.602893,127.342366 C132.505101,127.546557 132.416477,127.74258 132.333965,127.931456 C132.31461,127.977399 132.290162,128.026404 132.271826,128.071326 C132.175053,128.297978 132.089485,128.513399 132.012066,128.715547 C131.986599,128.779867 131.967245,128.837041 131.943815,128.899319 C131.893901,129.037147 131.846023,129.171913 131.804258,129.29749 C131.780829,129.36181 131.761474,129.423067 131.741101,129.484324 C131.70341,129.603776 131.669794,129.71506 131.639234,129.819197 C131.62701,129.863098 131.61173,129.909041 131.600525,129.9509 C131.562834,130.086686 131.530237,130.211242 131.50477,130.318442 C131.496621,130.350092 131.492546,130.371532 131.485415,130.40114 C131.469117,130.477711 131.452818,130.549178 131.440594,130.607372 C131.434482,130.639021 131.429389,130.661482 131.425314,130.688027 C131.417165,130.73397 131.409015,130.77685 131.403922,130.806458 C131.400866,130.822793 131.398829,130.831981 131.39781,130.844233 C131.393735,130.869757 131.389661,130.893239 131.389661,130.893239 C131.71869,130.643105 132.087447,130.380721 132.475559,130.11221 C132.533623,130.072393 132.592706,130.031555 132.652807,129.990717 C133.051106,129.718122 133.473853,129.439402 133.926141,129.152515 C133.946514,129.139242 133.968925,129.12597 133.989298,129.112698 C134.451773,128.820705 134.940733,128.520545 135.452103,128.216302 C135.473495,128.203029 135.494887,128.189757 135.517298,128.176484 C136.037837,127.867136 136.581805,127.552683 137.145127,127.234145 C137.187911,127.210663 137.232733,127.186161 137.275517,127.161658 C137.853101,126.835974 138.446983,126.507227 139.063277,126.176439 L140.218444,125.564888 C140.33661,125.50261 140.459868,125.442374 140.578034,125.382138 C141.097554,125.111585 141.626242,124.842054 142.163079,124.573544 C142.327084,124.490846 142.483959,124.407128 142.650002,124.324431 L142.650002,124.327494 L143.303986,130.795227 C147.682215,128.799265 157.251569,125.694549 162.418247,124.629696 L162.465105,124.950275 C167.843665,125.890572 177.081953,127.735433 181.807547,133.851959 C175.897244,128.920759 167.836534,127.672134 162.640316,127.191265 C161.940492,127.341345 161.201959,127.513886 160.432865,127.704804 Z" id="path50" fill="#FFFFFF"></path>
                        <path d="M59.8940332,114.809155 C55.9980407,137.542701 70.2103758,187.319233 127.899709,176.225565 L129.794429,175.688544 C129.794429,175.688544 72.3293043,182.313504 68.9004724,137.454899 C81.5419217,158.129185 100.018293,165.840438 117.061096,167.883363 C125.8746,174.587958 137.191986,177.089291 148.36574,174.560392 C135.204567,182.378845 116.692338,187.469313 99.4306247,185.689793 L92.3011806,184.464651 C92.3011806,184.464651 128.345885,197.7891 162.298044,169.36987 C145.548108,195.857458 113.147379,197.042784 96.2950669,194.183096 C73.7665411,190.366776 41.4628902,173.35771 41.8978608,131.253635 C44.6326752,137.859197 47.7393028,143.645955 51.059443,148.721109 L54.3112306,153.604324 L52.2807224,148.506709 L52.2006552,148.249429 C46.809362,131.214839 45.4245866,104.30866 73.8178819,76.6787287 C64.0335888,90.3379482 60.3305318,103.351007 59.8940332,114.809155" id="path52" fill="#302A83"></path>
                        <path d="M123.347288,140.032804 C123.270888,138.863814 123.201618,137.481444 123.16189,135.925513 C123.025389,130.804416 123.190413,123.821102 124.318077,116.437574 C126.133341,104.602695 130.317005,92.3922065 139.108098,84.9360893 C125.573074,104.806885 126.056941,135.863235 126.32485,135.735616 C130.621586,133.648789 140.894839,131.626282 140.894839,131.626282 L140.296882,131.867227 C140.296882,131.867227 127.70005,137.506968 123.347288,140.032804" id="path54" fill="#B3B5B7"></path>
                    </g>
                </g>
            </g>
        </g>
    </g>
</svg>