<?xml version="1.0" encoding="UTF-8"?>
<svg width="200px" height="200px" viewBox="0 0 200 200" version="1.1" xmlns="http://www.w3.org/2000/svg" xmlns:xlink="http://www.w3.org/1999/xlink">
    <!-- Generator: Sketch 51.3 (57544) - http://www.bohemiancoding.com/sketch -->
    <title>bryn-mawr</title>
    <desc>Created with Sketch.</desc>
    <defs></defs>
    <g id="bryn-mawr" stroke="none" stroke-width="1" fill="none" fill-rule="evenodd">
        <g id="bryn-mawr_BGL" transform="translate(0.000000, 9.000000)">
            <g id="bryn-mawr">
                <g id="g10" transform="translate(99.934251, 91.066405) scale(-1, 1) rotate(-180.000000) translate(-99.934251, -91.066405) translate(0.000000, 0.336624)" fill-rule="nonzero">
                    <g id="g12">
                        <path d="M199.403019,50.4661657 C199.403019,51.2099395 199.342533,52.0068889 199.206833,52.8620631 C199.173171,53.1455608 198.330567,59.2389203 186.867582,59.2389203 L171.613934,59.2305048 C172.163572,59.6281379 172.52018,59.8963825 172.52018,59.8963825 L169.892435,60.4770531 C176.642205,62.8439169 182.60302,72.4870462 182.60302,72.4870462 C180.586452,71.6097287 178.921232,71.3472697 178.921232,71.3472697 C186.810778,78.3600243 189.6163,89.0550931 189.6163,89.0550931 L186.898615,87.30151 C192.421297,95.6297149 191.19421,106.67508 191.19421,106.67508 L189.791448,105.184481 C193.035104,119.824323 187.073763,134.288491 187.073763,134.288491 C186.284808,130.255355 183.654959,125.084021 183.654959,125.084021 C182.953316,139.548188 171.996314,146.210121 171.996314,146.210121 C172.259299,144.193553 171.908477,141.476394 171.908477,141.476394 C167.525571,151.732804 154.989608,154.625637 154.989608,154.625637 C156.654828,149.103481 155.691252,138.58356 155.691252,138.58356 C154.639312,127.626558 148.327675,119.035368 148.327675,119.035368 L148.152002,123.243126 C146.486255,120.087308 140.438129,112.548058 140.438129,112.548058 C134.739773,105.447466 132.109924,100.100458 132.109924,100.100458 C130.795,100.187769 128.866795,100.012621 128.866795,100.012621 C123.344113,104.921496 113.350688,105.798288 113.350688,105.798288 C114.752923,103.782246 116.330832,98.0838897 116.330832,98.0838897 C110.457328,96.3313585 105.285467,93.0871772 105.285467,93.0871772 C104.934646,100.187769 99.4998003,109.567913 99.4998003,109.567913 C97.3959213,113.161338 95.905849,117.457459 95.905849,117.457459 C92.1362239,128.064165 92.3923711,136.810516 92.3923711,136.810516 C88.3182095,135.910582 86.745034,133.806177 86.745034,133.806177 C84.7726475,139.591844 83.8522004,147.744375 83.8522004,147.744375 C82.2742912,169.309134 95.0290575,180.836813 95.0290575,180.836813 C73.376461,184.605913 61.104009,168.30085 61.104009,168.30085 C61.8051267,171.545032 64.2598275,177.242336 64.2598275,177.242336 C44.71111,174.174881 37.9612351,153.310713 37.9612351,153.310713 C36.7338321,156.816827 36.2078623,165.758839 36.2078623,165.758839 C17.8866531,150.067583 20.2537273,133.762521 20.2537273,133.762521 C19.3772513,135.164757 17.7114,137.707294 17.7114,137.707294 C9.38340542,123.593422 17.4484151,109.9403 17.4484151,109.9403 C15.9362521,110.926493 11.4655092,115.002758 11.4655092,115.002758 C12.583195,99.3551586 20.14401,90.413673 20.14401,90.413673 C18.4346083,91.1368814 14.4240891,93.5037452 14.4240891,93.5037452 C17.0539378,82.589873 24.4238784,75.7270198 24.4238784,75.7270198 C22.7338324,76.540695 21.0435235,77.3543702 21.0435235,77.3543702 C24.2800783,71.0742915 28.6458375,66.4815237 32.7886908,63.2015763 C30.3147395,63.2015763 2.66025503,63.2015763 0.799226804,63.2015763 C1.87150554,61.7541076 9.04710037,52.0693741 9.04710037,52.0693741 C9.04710037,52.0693741 0.512614846,29.7004595 0,28.3565542 C1.43408806,28.3565542 24.0255089,28.3565542 24.0255089,28.3565542 L24.1075076,28.3292038 C24.4267712,28.22138 31.9779085,25.6605385 36.3266263,22.9842466 L37.0393679,22.5455879 L36.3350418,22.0934117 C36.2037598,22.0091513 23.5069554,13.9125309 20.9829318,1.54318471 C25.3135036,2.62512551 46.1550547,7.11579206 75.5187358,5.72155147 C75.5907936,5.71786968 81.0314247,5.43374082 88.3702805,4.86213795 C90.5967104,4.68791047 102.747663,3.4656462 107.247861,2.90290065 C109.605257,2.60765805 111.956342,2.30789738 114.042338,2.04183032 L120.701115,1.20973041 C126.720312,0.523915306 135.187373,-0.231344636 141.345953,0.0673898734 C141.453777,0.0641025625 147.20999,-0.160461797 153.553711,3.13588947 C161.936091,7.49196562 167.559233,16.0268767 169.814591,27.8184345 L169.896643,28.2452064 C169.896643,28.2452064 194.651935,28.2871262 195.586583,28.2887567 C195.651277,29.1781715 195.778036,31.2085199 195.778036,33.5426685 C195.778036,36.1499531 195.620771,39.1352521 195.043256,41.3291245 L194.942796,41.7100318 L195.28152,41.9140555 C195.469818,42.0270338 199.403019,44.473845 199.403019,50.4661657" id="path14" fill="#B2B1B1"></path>
                        <path d="M159.834316,55.924259 L63.3830359,55.924259 C63.3830359,55.924259 39.73207,59.4477303 33.4866001,69.0556196 C33.4866001,69.0556196 39.5720174,68.5748832 45.0166458,69.0556196 C45.0166458,69.0556196 27.4016035,74.1801428 23.238027,84.2682425 C23.238027,84.2682425 28.842445,82.6666646 36.2089143,82.1864542 C36.2089143,82.1864542 23.0779744,89.3927657 19.2346609,102.043916 C19.2346609,102.043916 27.8817613,99.001181 31.7252326,97.8803394 C31.7252326,97.8803394 15.8715578,111.171595 19.0743979,127.024849 C19.0743979,127.024849 25.8000257,121.100326 30.4441807,118.858117 C30.4441807,118.858117 17.3128201,138.234842 32.5258637,154.728727 C32.5258637,154.728727 35.4082305,146.881785 40.3724908,137.915052 C40.3724908,137.915052 37.3732535,157.623139 56.5680459,169.867714 C56.5680459,169.867714 55.1047981,164.977774 57.6673227,151.525571 C57.6673227,151.525571 62.1512148,173.62419 86.0113062,176.827346 C86.0113062,176.827346 74.801839,162.415775 82.0081505,135.031686 L85.0508854,126.224323 C85.0508854,126.224323 87.2925685,128.946742 88.7337256,130.54832 C88.7337256,130.54832 90.655619,115.495066 97.3811941,102.684021 C97.3811941,102.684021 102.986454,89.3917137 97.0608786,83.7875061 C97.0608786,83.7875061 109.391187,91.3141332 121.561601,92.5948695 C121.561601,92.5948695 124.308215,96.7689654 129.65575,96.9446393 L134.476788,96.8568023 C134.476788,96.8568023 139.911634,105.797762 145.259168,112.285073 L145.960812,109.480076 C145.960812,109.480076 156.480206,120.613278 159.110055,137.794605 C159.110055,137.794605 160.073632,144.632212 159.986321,148.226689 C159.986321,148.226689 172.609595,142.878629 170.242731,124.382377 C170.242731,124.382377 174.275341,130.431029 175.415117,137.093488 C175.415117,137.093488 183.479285,124.645362 176.904664,110.795001 C176.904664,110.795001 182.07705,113.775671 186.547793,120.087308 C186.547793,120.087308 190.405255,102.642469 178.833921,93.7009839 C178.833921,93.7009839 184.005255,95.1037452 186.372119,96.4186695 C186.372119,96.4186695 184.531751,83.2694259 170.418405,78.2727134 C170.418405,78.2727134 175.663375,77.7835615 180.316629,79.0358955 C180.316629,79.0358955 173.749371,69.8571975 165.421692,68.1914513 C165.421692,68.1914513 167.700193,67.1395118 172.433921,66.9643639 C172.433921,66.9643639 165.684151,59.6880984 155.865874,60.3019051 C155.865874,60.3019051 160.249306,58.1101892 162.265874,57.4969085 L159.834316,55.924259" id="path16" fill="#FEE60E"></path>
                        <path d="M136.337143,79.1510828 C134.498353,76.348716 131.328859,74.4983545 127.727544,74.4983545 C122.044441,74.4983545 117.437472,79.1053235 117.437472,84.7884265 C117.437472,90.4710037 122.044441,95.0779726 127.727544,95.0779726 C127.727544,95.0779726 130.665611,93.4148563 132.116236,87.8737651 C132.116236,87.8737651 133.160812,82.1875062 136.032607,79.4314247 L136.337143,79.1510828" id="path18" fill="#FFFFFF"></path>
                        <path d="M136.645887,70.8812606 C136.645887,70.8812606 135.487176,72.5506885 136.923074,73.9876379 C136.923074,73.9876379 138.489411,75.8295839 140.558576,76.2435221 C140.704796,76.2724504 141.151344,76.3187358 141.370148,76.3082164 C142.136486,76.2735024 143.834842,75.7391171 143.52452,71.638657 C143.52452,71.638657 143.075342,65.5042719 137.432738,65.1276775 C136.700062,65.0792883 138.96331,66.8039431 136.645887,70.8812606" id="path20" fill="#231F20"></path>
                        <path d="M140.63116,73.49796 C140.4902,73.6941467 139.997893,74.158578 139.856933,74.2990119 C139.623928,74.5330685 139.418274,74.8938837 139.999996,75.1568686 C139.999996,75.1568686 141.877708,76.089413 142.375802,74.3821152 C142.375802,74.3821152 143.506111,70.803417 140.720575,67.2499654 C140.720575,67.2499654 142.451016,70.9233381 140.63116,73.49796" id="path22" fill="#FFFFFF"></path>
                        <path d="M127.661798,88.3024304 C128.408675,88.7374074 129.277577,88.987243 130.204862,88.987243 C130.864954,88.987243 131.492962,88.8631141 132.071529,88.6327394 C133.945033,87.892174 134.953843,81.8987488 134.408938,81.0913852 C133.49901,79.7427988 132.209333,78.9948698 130.457853,78.9948698 C127.660746,78.9948698 124.562785,82.4247185 125.849832,85.7472694 L130.315316,84.1751458 L127.661798,88.3024304" id="path24" fill="#FEE60E"></path>
                        <path d="M130.30164,84.2003924 L129.20289,85.94556 C129.576854,86.2001293 130.029188,86.3479268 130.514658,86.3479268 C131.812226,86.3479268 132.863113,85.2949354 132.863113,83.998946 C132.863113,82.7013786 131.812226,81.6504911 130.514658,81.6504911 C129.219195,81.6504911 128.167781,82.7013786 128.167781,83.998946 C128.167781,84.3076902 128.22669,84.6043371 128.336091,84.8752116 L130.30164,84.2003924" id="path26" fill="#231F20"></path>
                        <path d="M92.4786302,88.4028906 C92.4786302,88.4028906 94.7655466,91.0706092 93.1439819,96.6374729 C93.1439819,96.6374729 91.4345802,101.414856 90.9527919,102.94911 C90.9527919,102.94911 87.753318,112.109925 86.9643634,115.002758 C86.9643634,115.002758 85.3207079,113.868242 83.6418125,113.709925 C83.6418125,113.709925 84.6869144,111.809596 86.3658098,110.827085 C86.3658098,110.827085 85.0671905,109.274948 82.7865857,108.325047 C82.7865857,108.325047 84.1483214,106.265875 86.4604844,105.505849 C86.4604844,105.505849 85.0356323,103.416171 83.1037455,102.022351 C83.1037455,102.022351 84.7815889,100.343982 87.5061122,99.9952638 C87.5061122,99.9952638 86.9038769,96.8594322 84.623798,94.4205105 C84.623798,94.4205105 86.4289262,93.3438504 88.6148564,93.1850075 C88.6148564,93.1850075 88.2030221,89.3212338 86.6508854,86.9769866 C86.6508854,86.9769866 90.0397085,85.2980912 92.4786302,88.4028906" id="path28" fill="#231F20"></path>
                        <path d="M54.0486509,76.6637719 C53.3143971,76.6390513 52.5452189,76.6206424 51.7443248,76.610649 C51.7443248,76.610649 53.1702814,73.8451001 54.1349099,72.7931606 C54.1349099,72.7931606 56.7211031,72.9688345 57.991846,73.0561454 L57.6594331,73.2975656 C55.5076909,75.0164347 54.0486509,76.6637719 54.0486509,76.6637719" id="path30" fill="#231F20"></path>
                        <path d="M60.4838907,77.0671907 C59.8611425,77.0082821 59.1337263,76.9462177 58.3137395,76.8867831 C58.3137395,76.8867831 59.3614712,74.6235353 60.3476645,73.3911882 C60.3476645,73.3911882 62.008151,73.6047319 63.6186703,74.0649554 L63.4871779,74.1964478 C62.303746,75.2320823 60.4838907,77.0671907 60.4838907,77.0671907" id="path32" fill="#231F20"></path>
                        <path d="M47.8131218,84.2824437 L52.0151466,83.807493 C49.5075333,86.5856652 48.430505,88.5480583 48.430505,88.5480583 C47.6990915,88.6432588 46.9487431,88.7479268 46.1832467,88.8641661 C46.1832467,88.8641661 46.7289403,86.1796165 47.8131218,84.2824437" id="path34" fill="#231F20"></path>
                        <path d="M53.3775135,88.0226145 C53.3775135,88.0226145 53.8451006,85.2307671 54.6582498,83.7396429 L54.9038777,83.7275456 C56.6222208,83.6749486 58.5214976,83.7396429 58.5214976,83.7396429 C56.8946731,85.2307671 55.4077567,87.8716612 55.4077567,87.8716612 C54.776067,87.9126868 54.0970401,87.962128 53.3775135,88.0226145" id="path36" fill="#231F20"></path>
                        <path d="M44.241682,104.330832 C44.241682,104.330832 44.4222474,100.761076 45.0112809,98.6408917 C45.0112809,98.6408917 47.307507,97.7583145 49.6626418,97.228137 L49.4729771,97.5442448 C47.8088088,100.224587 46.7391967,103.356736 46.7391967,103.356736 C45.935252,103.658643 45.1008536,103.983692 44.241682,104.330832" id="path38" fill="#231F20"></path>
                        <path d="M52.0048376,101.532147 C52.0048376,101.532147 51.960288,98.3679134 52.6437857,96.5633112 C52.6437857,96.5633112 54.3253109,96.1257044 56.7431938,95.7228115 L56.566468,95.9736991 C55.3830361,97.6831008 54.2595647,100.846283 54.2595647,100.846283 C53.5978948,101.038262 52.8415503,101.266533 52.0048376,101.532147" id="path40" fill="#231F20"></path>
                        <path d="M43.8697688,113.915579 L44.1066656,113.767256 C45.9350416,112.578564 47.6179344,111.595526 47.6179344,111.595526 C47.0824972,114.183824 46.9285984,118.773436 46.9285984,118.773436 C46.3611297,119.196315 45.7807221,119.636026 45.1912678,120.090464 C45.1912678,120.090464 44.0928852,116.816302 43.8697688,113.915579" id="path42" fill="#231F20"></path>
                        <path d="M53.1487166,114.378432 C52.6264287,114.727676 52.0471782,115.12005 51.4217476,115.551871 C51.4217476,115.551871 50.1900316,112.361864 50.3215241,110.126493 C50.3215241,110.126493 52.5568955,108.910451 53.7404326,108.351345 C53.7404326,108.351345 52.951478,111.277315 53.1155805,114.170148 L53.1487166,114.378432" id="path44" fill="#231F20"></path>
                        <path d="M55.5813267,125.018274 L55.6218264,125.612094 C55.8206429,130.337406 56.3192622,132.491252 56.3192622,132.491252 C55.819065,133.22235 55.3178158,133.975013 54.8218264,134.747137 C54.8218264,134.747137 53.4117015,131.329911 52.951478,128.437078 C52.951478,128.437078 54.5951334,126.201706 55.5813267,125.018274" id="path46" fill="#231F20"></path>
                        <path d="M59.9000642,120.612226 L59.9247848,121.084547 C60.1735685,124.392896 60.6327401,126.638261 60.6327401,126.638261 C60.1157118,127.293619 59.5702812,127.999471 59.0074936,128.748978 C59.0074936,128.748978 57.9844824,126.109136 57.3875068,123.174224 C57.3875068,123.174224 58.6561458,121.656802 59.9000642,120.612226" id="path48" fill="#231F20"></path>
                        <path d="M67.4156459,140.600128 C67.4156459,140.600128 67.9605506,138.565677 68.5349095,136.936749 L68.631688,136.655355 C69.6510173,139.252068 71.8690317,143.040102 71.8690317,143.040102 C71.6959877,143.852199 71.5271514,144.69375 71.3688345,145.555815 C71.3688345,145.555815 68.8178813,142.835499 67.4156459,140.600128" id="path50" fill="#231F20"></path>
                        <path d="M71.0185387,131.152133 C72.1093999,134.018143 73.5800113,136.173567 73.5800113,136.173567 C73.3801428,136.865743 73.2165662,137.486387 72.9830357,138.37212 C72.9830357,138.37212 71.7543703,137.340693 69.5984204,134.322153 C69.5984204,134.322153 70.4604848,131.83642 70.89178,130.82235 L71.0185387,131.152133" id="path52" fill="#231F20"></path>
                        <path d="M61.8929636,65.5179471 C61.8929636,65.5179471 63.2736342,63.5013791 64.8951989,62.4278748 C64.8951989,62.4278748 66.9769871,62.9538446 68.2919115,63.4356329 C68.2919115,63.4356329 65.5742258,64.4660076 63.5581838,65.8682429 L61.8929636,65.5179471" id="path54" fill="#231F20"></path>
                        <path d="M67.744377,66.701379 C67.744377,66.701379 69.1687031,64.9477959 70.3742257,64.1372765 C70.3742257,64.1372765 72.1272829,64.8604849 72.959893,65.276527 C72.959893,65.276527 70.264298,66.5041403 69.343851,67.1174211 L67.744377,66.701379" id="path56" fill="#231F20"></path>
                        <path d="M89.1555533,60.4770531 C98.6230087,67.4019707 109.844047,73.6262966 109.844047,73.6262966 C87.2273482,65.6489135 73.376461,56.0941472 73.376461,56.0941472 L103.357262,55.7433254 C107.740168,60.2140682 116.681654,66.701379 116.681654,66.701379 C110.895987,64.9477959 98.7108457,59.6007875 98.7108457,59.6007875 C104.496513,65.0356328 118.434711,72.5743572 118.434711,72.5743572 C105.197631,68.2787623 89.1555533,60.4770531 89.1555533,60.4770531" id="path58" fill="#231F20"></path>
                        <path d="M177.343322,77.2865201 C174.665084,73.0335287 170.29112,71.2578549 167.211041,70.5172895 C168.959365,72.5659416 169.618931,74.1222861 169.618931,74.1222861 C169.117682,74.1096628 168.519128,74.1022993 167.839049,74.1091369 C167.839049,74.1091369 165.664164,71.4877037 163.434578,69.9907938 C163.056406,69.9918457 162.681916,70.0007872 162.311107,70.0176182 C163.573434,71.5786964 164.706373,74.2343177 164.706373,74.2343177 C164.203546,74.2695576 163.681258,74.3126872 163.142139,74.3658101 C163.142139,74.3658101 160.933592,71.8048634 158.985926,70.3679141 C153.288096,71.3099259 148.903086,73.7577891 147.301508,74.7518719 C147.714395,75.6449685 148.169885,77.1371447 147.985795,79.1879007 C147.985795,79.1879007 152.954105,85.2880978 148.553316,92.9598925 C148.553316,92.9598925 145.595789,98.1790902 141.005651,100.633791 C141.005651,100.633791 141.068241,98.4320817 140.188294,95.6028904 C140.188294,95.6028904 138.745033,96.4991429 135.981588,97.1213651 C138.260615,101.512686 144.821035,109.129254 144.821035,109.129254 C144.908872,106.938064 144.908872,105.447466 144.908872,105.447466 C148.502823,109.216565 153.762521,118.59671 153.762521,118.59671 C162.704006,133.586847 161.213934,145.596841 161.213934,145.596841 C168.840495,140.337143 169.015643,130.869688 169.015643,130.869688 C168.963572,129.053514 168.623796,127.261009 168.091515,125.521627 C167.207359,128.616959 165.228661,132.975145 165.228661,132.975145 C165.049832,132.327676 164.812619,131.546085 164.502297,130.650884 C164.502297,130.650884 166.085466,124.740562 166.330568,121.166072 C166.127544,120.758971 165.917156,120.358182 165.69993,119.963179 C164.933592,122.924389 162.99855,126.877577 162.99855,126.877577 C162.711896,126.23905 162.39684,125.573172 162.050226,124.882574 C162.050226,124.882574 163.186321,119.815908 163.189477,115.986322 C159.560811,110.880734 155.581324,107.464034 155.581324,107.464034 L155.712817,106.280602 C174.581981,118.83813 175.765413,133.368044 175.765413,133.368044 C180.696379,121.467979 176.422875,113.249701 176.422875,113.249701 C176.028924,112.476 175.570278,111.732279 175.070081,111.0117 C175.315183,115.229451 174.860219,118.944376 174.860219,118.944376 C174.470476,118.396315 173.978694,117.749898 173.365413,117.018275 C173.365413,117.018275 172.938852,110.844442 171.786452,107.193686 C171.454565,106.872844 171.112685,106.561996 170.768175,106.255882 C171.222612,109.62051 170.810778,114.237998 170.810778,114.237998 C170.332146,113.75884 169.814065,113.259169 169.254434,112.742141 C169.254434,112.742141 168.629582,106.6998 166.850752,103.209991 C161.324914,99.4140672 155.841153,97.3943434 155.841153,97.3943434 L155.691252,96.1556846 C176.291383,101.59053 185.145558,116.317683 185.145558,116.317683 C186.898615,101.678367 179.11847,96.6816544 179.11847,96.6816544 C178.775538,96.4286629 178.429976,96.1851389 178.083888,95.9479266 C178.62774,99.3041395 178.77133,103.520839 178.77133,103.520839 C178.246938,103.170543 177.648385,102.786585 176.977773,102.378959 C176.977773,102.378959 176.20828,97.3727786 174.57041,93.8256387 C174.173829,93.6141988 173.777773,93.4117005 173.382244,93.2165657 C173.902954,96.5038766 173.747793,100.559629 173.747793,100.559629 C173.193421,100.26982 172.610121,99.9763289 171.997366,99.6796819 C171.997366,99.6796819 171.001705,94.4357636 169.822481,91.6712666 C161.786189,88.621694 154.923862,88.7921082 154.923862,88.7921082 L154.529385,87.7401687 C173.990265,87.7401687 183.98369,93.854567 183.98369,93.854567 C182.471527,87.3456914 176.291383,83.2036797 176.291383,83.2036797 C175.67442,82.8255075 175.042205,82.4867829 174.398418,82.1811945 C175.778562,84.8720557 176.912027,87.9300438 176.912027,87.9300438 C176.305058,87.7512141 175.592895,87.562391 174.762915,87.3693601 C174.762915,87.3693601 172.135696,82.8239296 169.884019,80.5996035 C169.489542,80.5028251 169.094013,80.416566 168.69901,80.3376706 C170.132803,82.7260992 171.080601,86.6435218 171.080601,86.6435218 C170.505716,86.5472694 169.896643,86.4531208 169.252856,86.3605501 C169.252856,86.3605501 166.77133,81.8692945 164.566991,79.8064411 C157.628398,79.3604188 151.702297,81.0340545 151.702297,81.0340545 L151.044835,80.1793537 C166.758181,74.4594327 177.343322,77.2865201 177.343322,77.2865201 Z M158.903349,61.7619971 C160.434973,63.0269544 161.681521,64.7831673 161.681521,64.7831673 C161.192369,64.8646927 160.630108,64.9683087 160.010515,65.101905 C160.010515,65.101905 157.779878,63.0543048 155.381456,61.9676513 C154.992238,62.0312936 154.610384,62.1065073 154.23642,62.1917144 C155.853777,63.5497683 157.358576,65.7767242 157.358576,65.7767242 C156.893093,65.9134763 156.412356,66.0649556 155.917945,66.231688 C155.917945,66.231688 153.804072,64.0305046 151.259957,63.1189991 C148.91308,64.0473357 147.096906,65.2328715 146.071265,65.9855342 C146.06548,66.5714645 146.014986,67.187375 145.91663,67.8301101 C146.092304,67.7007215 146.687176,67.2736341 147.48139,66.8202482 C147.48139,66.8202482 148.388162,67.5218918 149.529516,68.8678484 L149.682048,69.04773 C149.334382,69.2497024 148.987242,69.4606163 148.640627,69.6809976 C148.640627,69.6809976 147.930568,68.8957248 145.907163,67.8979602 C145.857196,68.2166978 145.798287,68.5396433 145.723073,68.8720561 C145.723073,68.8720561 147.103218,71.0721876 146.730305,73.7740941 C158.718734,65.4027597 169.190791,65.8466782 169.190791,65.8466782 C165.641547,63.0069675 162.118076,61.9071648 158.903349,61.7619971 Z M130.991713,88.4049945 C131.630766,85.9729104 131.986321,83.2704779 131.986321,83.2704779 C132.14569,82.18961 132.540168,81.304403 133.059826,80.5769868 C132.386058,80.1330683 131.581851,79.8700835 130.715053,79.8700835 C128.353448,79.8700835 126.437867,81.7861912 126.437867,84.1477954 C126.437867,86.5104515 128.353448,88.4265593 130.715053,88.4265593 C130.809201,88.4265593 130.899142,88.4107802 130.991713,88.4049945 Z M141.849306,57.1145285 C143.16423,58.183825 145.410121,60.5059814 145.950292,64.2061785 C151.646545,59.0495712 159.834316,57.2833648 159.834316,57.2833648 C158.594079,56.6206429 157.399602,56.148848 156.282968,55.8174871 L161.446413,55.889545 C164.97567,57.0929637 166.736616,58.7239959 166.736616,58.7239959 C164.194079,58.7239959 160.42498,59.5129505 160.42498,59.5129505 C170.330568,60.3897421 176.817353,68.892569 176.817353,68.892569 C173.398549,68.1036143 169.804072,68.2792882 169.804072,68.2792882 C179.447201,71.3472697 184.443914,83.093752 184.443914,83.093752 C180.323467,80.5512143 176.730042,80.0257705 176.730042,80.0257705 C189.002494,88.0031536 188.738983,100.889412 188.738983,100.889412 C185.846149,97.9965787 183.304663,96.5938174 183.304663,96.5938174 C192.33346,108.252989 186.810778,126.398945 186.810778,126.398945 C184.79421,119.999471 180.674815,115.703876 180.674815,115.703876 C183.830633,132.973567 174.187504,141.213409 174.187504,141.213409 C174.625637,136.655355 171.82064,130.694014 171.82064,130.694014 C171.557655,146.385795 157.969753,151.294145 157.969753,151.294145 C159.547662,142.002363 157.027741,132.316105 157.027741,132.316105 C154.463638,121.730963 146.396841,112.357657 146.396841,112.357657 C146.508346,113.583166 146.340562,116.173041 146.340562,116.173041 C145.226558,114.502561 143.583428,112.496513 143.583428,112.496513 C137.708872,105.339116 134.703481,99.7243894 133.631029,97.5205761 C131.993159,97.7157109 130.059168,97.7783013 127.84431,97.5836925 C125.600523,99.6176175 122.562522,101.378038 118.462587,102.209596 L117.388557,102.407887 C117.388557,102.407887 118.879155,99.3598923 118.745033,95.9263618 C118.745033,95.9263618 112.784218,95.1021672 102.585665,88.6895441 C103.191582,91.3919767 103.274685,97.4069667 97.5463486,108.165678 C97.5463486,108.165678 90.9091365,119.122679 90.1201818,133.236552 C90.1201818,133.236552 88.1041398,132.622219 85.9124239,128.677446 C85.9124239,128.677446 73.2013131,158.351607 90.4268222,178.995919 C90.4268222,178.995919 70.0454946,181.362783 58.2111754,159.666531 C58.2111754,159.666531 57.4222208,167.424585 60.1835619,173.867714 C60.1835619,173.867714 43.352425,169.265479 38.22422,145.596841 C38.22422,145.596841 34.6739242,151.645493 34.1479544,160.586978 C34.1479544,160.586978 16.1334907,143.361469 25.0749764,124.821036 C25.0749764,124.821036 20.0782638,128.897301 17.9743848,132.579089 C17.9743848,132.579089 11.5312555,117.588952 25.2064688,102.467322 C25.2064688,102.467322 18.7633394,105.09717 14.6870739,109.173436 C14.6870739,109.173436 17.7114,91.5534494 29.4142267,84.7158427 C29.4142267,84.7158427 22.7081125,85.8992746 18.8948319,88.2661385 C18.8948319,88.2661385 24.0230369,74.7224176 38.3557124,70.2516748 C38.3557124,70.2516748 30.992136,70.6461521 27.3103478,72.2240613 C27.3103478,72.2240613 35.5943712,60.1267572 51.6364484,57.1024312 C51.6364484,57.1024312 56.2387889,56.444969 60.9725166,56.1819841 L63.3830359,56.1819841 L69.2844164,61.5579209 C69.2844164,61.5579209 67.2462837,60.9072963 64.0694264,60.4323456 C62.9343837,60.9451661 60.426034,62.2416815 57.487967,64.7947387 L55.8111755,64.5643639 C55.8111755,64.5643639 57.3380656,61.7956592 59.5976316,59.9931609 C58.9038776,59.9600248 58.1875068,59.9447717 57.4506232,59.9479275 C56.3555541,60.5764613 54.1980263,61.9345152 51.800814,64.1041404 L49.7626812,63.9069018 C49.7626812,63.9069018 51.2315043,61.6715303 52.8262972,60.2429965 C47.5343052,60.9236014 41.8164355,62.8954619 37.0666657,67.4603533 C37.0666657,67.4603533 50.4704787,64.2635092 72.2356326,72.8710041 L71.3746202,73.9776444 C71.3746202,73.9776444 62.841813,70.960156 52.9046667,70.838131 C49.9956858,73.1702809 47.6123591,76.6301099 47.6123591,76.6301099 C46.7533453,76.6495707 45.8707155,76.680077 44.9683618,76.7226805 C44.9683618,76.7226805 46.3716491,73.0692947 48.1369087,71.0211685 C47.6666392,71.064298 47.1955281,71.1142652 46.7246274,71.1742257 C43.5507155,73.7404321 41.1039043,76.9735681 41.1039043,76.9735681 C40.1479543,77.0535155 39.17612,77.148716 38.1923988,77.2607476 C38.1923988,77.2607476 39.3807748,74.6966451 41.0776058,72.3655472 C36.1698873,73.8614051 31.5962122,76.6195905 28.2131222,81.355422 C28.2131222,81.355422 41.7745157,76.7605503 66.1007216,81.6915167 L65.5090056,82.7434562 C65.5090056,82.7434562 55.7627862,81.0750802 45.4275334,82.6345804 C43.0434177,85.5684397 41.3648379,89.7236006 41.3648379,89.7236006 C40.5717807,89.8882292 39.7725697,90.064955 38.971097,90.255882 C38.971097,90.255882 39.470926,86.066533 40.9666788,83.5218914 C40.2003409,83.7143963 39.4391049,83.9274141 38.6846539,84.1651524 C35.9465606,87.1321477 34.2638256,91.5492416 34.2638256,91.5492416 C33.3768828,91.8280056 32.4969354,92.1278083 31.6288749,92.4481239 C31.6288749,92.4481239 32.1796705,89.1197874 33.3845094,86.344771 C33.0890196,86.4999321 32.7930038,86.6540412 32.504299,86.8197217 C32.504299,86.8197217 24.8777377,91.0274796 21.7876655,99.4429955 C21.7876655,99.4429955 34.2137007,91.421957 62.2216947,91.1589721 L61.8272174,92.2766578 C61.8272174,92.2766578 51.7383813,93.2886236 42.2826025,96.3618648 C40.0156203,100.276132 38.8533324,106.687177 38.8533324,106.687177 C38.0097295,107.085336 37.1550287,107.503482 36.2935428,107.941615 C36.2935428,107.941615 35.7720964,103.311503 36.9592627,98.3784328 C36.4398676,98.6088075 35.9290984,98.8460199 35.4304265,99.0921737 C32.3403542,103.921628 31.2194075,110.732936 31.2194075,110.732936 C30.2966988,111.282048 29.3749894,111.854304 28.4590657,112.451805 C28.4590657,112.451805 28.6201702,107.005914 29.9753313,102.595658 C29.5124253,102.998551 29.082445,103.415645 28.6910183,103.847992 C28.6910183,103.847992 20.3412487,111.934777 21.0644571,122.256933 C21.0644571,122.256933 35.5941608,108.778433 61.19132,101.765678 L61.19132,103.168439 C61.19132,103.168439 49.7447982,107.28836 40.4098872,113.472712 C39.8931745,117.654698 40.9118201,123.537144 40.9118201,123.537144 C40.2683488,124.081522 39.6256663,124.636946 38.988717,125.20289 C38.988717,125.20289 36.9565803,120.478629 36.0942529,116.634317 C35.5995257,117.039313 35.1209985,117.451674 34.6601964,117.869294 C34.2465738,122.827084 35.2934113,128.688491 35.2934113,128.688491 C34.5621556,129.425375 33.8543581,130.172252 33.1792234,130.924389 C33.1792234,130.924389 31.4503082,126.544639 30.7755942,122.13333 C28.151689,125.83195 22.5690461,136.349241 31.7371195,149.716762 C31.7371195,149.716762 36.2078623,128.502824 63.9968426,112.460747 L64.3476644,113.862982 C64.3476644,113.862982 56.4702156,119.461404 50.2157515,127.228925 C50.4659553,131.396709 52.4498606,138.679812 52.4498606,138.679812 C51.9734372,139.527676 51.5140027,140.38711 51.0786575,141.253382 C51.0786575,141.253382 48.3025366,136.181456 47.2448114,131.322548 C46.8540685,131.926887 46.4762119,132.53596 46.1226024,133.1545 C46.890413,139.079549 49.0649823,145.807228 49.0649823,145.807228 C48.6343183,146.949635 48.2655083,148.089411 47.9741737,149.215512 C47.9741737,149.215512 46.1476912,146.64352 43.4077044,139.475079 C43.1161593,140.516499 42.896304,141.564756 42.7824841,142.615644 C42.7824841,142.615644 41.9060082,155.501903 54.2664023,165.758313 C54.2664023,165.758313 49.7080329,146.034973 69.5195249,124.821036 L70.1328056,125.960286 C70.1328056,125.960286 66.3994724,131.66811 63.867454,139.056933 C64.8136736,141.212357 67.3541075,146.630897 70.3821153,150.050752 L70.6408924,150.359497 C70.5278089,151.329385 70.5067701,151.870608 70.4436537,152.841022 C70.4436537,152.841022 65.6262968,149.237077 62.3079537,144.672186 C62.199604,145.191318 62.1017736,145.714132 62.0149886,146.237998 C64.7400378,151.630765 70.3410896,158.423665 70.3410896,158.423665 C70.4120955,159.54924 70.5420101,160.639049 70.7413526,161.674684 C70.7413526,161.674684 66.2990121,158.501508 61.7067703,153.626295 C62.0518065,157.047202 63.1784337,160.321889 65.4869149,163.12899 C65.4869149,163.12899 71.0974341,171.456669 82.7560795,174.174355 C82.7560795,174.174355 74.2090711,162.515183 78.8113064,141.476394 C78.8113064,141.476394 81.4853366,129.817748 83.720708,124.821036 C83.720708,124.821036 82.4615364,124.483889 79.0706095,125.874553 C79.0706095,125.874553 76.9346463,122.551476 79.1042715,118.482048 C79.1042715,118.482048 77.0698206,118.24431 74.1875064,119.4998 C74.1875064,119.4998 72.9330685,115.361996 76.3239955,111.937933 C76.3239955,111.937933 74.0186701,111.564494 72.0173552,111.937933 C72.0173552,111.937933 71.3388542,108.275605 74.7303071,104.477578 C74.7303071,104.477578 72.5259679,103.494015 69.6436537,103.392502 C69.6436537,103.392502 69.3049292,99.1537122 74.662457,95.9321475 C74.662457,95.9321475 72.4244558,93.5584461 69.135041,92.4055204 C69.135041,92.4055204 70.1517405,89.4553561 75.306244,87.6239294 C75.306244,87.6239294 74.3910567,85.0124897 71.0001297,82.8092024 C71.0001297,82.8092024 77.5784333,75.2468094 85.1066382,82.2322136 C85.1066382,82.2322136 80.2908593,82.5041399 78.4936207,85.3522661 C78.4936207,85.3522661 81.0030223,87.353055 81.6473352,89.7262305 C81.6473352,89.7262305 78.1207081,90.2353692 76.3576575,92.8799451 C76.3576575,92.8799451 79.4098599,94.1343829 81.3422728,98.2038108 C81.3422728,98.2038108 77.7477956,98.4746852 75.7811947,101.6284 C75.7811947,101.6284 78.5619967,102.306901 80.5964477,104.816302 C80.5964477,104.816302 77.2055208,106.477841 76.4933577,108.986717 C76.4933577,108.986717 79.0027594,109.530043 81.2070986,111.258906 C81.2070986,111.258906 78.6298468,113.768307 78.2905963,115.938459 C78.2905963,115.938459 80.83366,115.734382 83.8853365,116.480733 C83.8853365,116.480733 81.8850736,118.854961 81.7493734,121.364363 C81.7493734,121.364363 83.4787619,120.957262 85.5132129,121.499537 C85.5132129,121.499537 85.8182753,124.652725 87.6155139,126.755552 C87.6155139,126.755552 87.840629,120.26193 93.3633113,107.81433 C93.3633113,107.81433 97.3959213,98.4347115 97.7467431,94.8407603 C97.7467431,94.8407603 98.8859936,87.6523318 93.3633113,82.4804713 C93.3633113,82.4804713 92.5249155,81.6662701 91.6007867,80.6974339 C88.8299781,78.4199849 85.8898072,75.8174866 82.7860597,72.8157773 C82.7860597,72.8157773 98.8670587,84.6532523 118.6593,90.3731733 C118.6593,90.3731733 117.344376,89.1897414 116.555947,87.0211681 C116.555947,87.0211681 106.165415,83.1400374 95.9079529,75.2494393 C95.9079529,75.2494393 110.11124,80.904666 116.160944,82.8770525 L116.345033,82.9449026 C116.978301,78.1485845 119.457196,76.2866516 119.457196,76.2866516 C124.117288,72.2240613 129.956078,74.7655471 129.956078,74.7655471 C124.548583,74.7655471 120.163574,79.148979 120.163574,84.5575258 C120.163574,86.3026934 120.620115,87.9395113 121.419063,89.3559478 C121.419063,89.3559478 121.948189,90.3894783 123.065349,91.4251128 C126.956473,95.0316873 129.575802,91.8195901 129.575802,91.8195901 C129.95976,91.385665 130.302692,90.621431 130.603021,89.7236006 C127.573435,89.6631141 125.135566,87.1915823 125.135566,84.1477954 C125.135566,81.0677166 127.633396,78.5672564 130.715053,78.5672564 C131.91479,78.5672564 133.02143,78.9506884 133.930832,79.5939494 C135.887965,77.7814576 138.561469,77.3974997 138.561469,77.3974997 C141.36857,77.0472039 139.394605,78.1412209 139.394605,78.1412209 C139.394605,78.1412209 135.252594,80.5801426 133.902955,87.0905961 C133.902955,87.0905961 133.040365,92.0352377 129.071397,96.3623908 C131.563442,96.2645604 135.675999,95.4908589 140.53859,92.1961844 C142.016564,90.9706749 143.303086,89.3890839 143.747005,87.423535 C143.747005,87.423535 144.479155,90.1554218 142.848649,92.8510167 C143.021167,93.8009181 143.157919,94.9585775 143.078497,96.0284 C143.078497,96.0284 150.442074,91.2052574 146.93596,82.0880979 C146.93596,82.0880979 145.796709,79.4561453 143.342534,78.2295838 C143.342534,78.2295838 146.664033,73.7783019 143.709661,68.8084138 C143.709661,68.8084138 145.029845,61.6131477 141.108741,57.0724509 L141.849306,57.1145285 Z" id="path60" fill="#231F20"></path>
                        <path d="M146.212751,56.4470729 L145.226032,56.775804 C146.165414,57.6210373 147.675473,59.3888217 147.675473,59.3888217 L146.656144,60.0794199 C144.872054,58.201182 141.093488,56.306113 141.093488,56.306113 L149.356472,56.3071649 C150.375276,57.3827731 150.765545,57.8109124 150.765545,57.8109124 L149.483231,58.4357645 C148.120969,57.2144627 146.212751,56.4470729 146.212751,56.4470729" id="path62" fill="#231F20"></path>
                        <path d="M156.567517,111.309925 C156.567517,111.309925 157.53951,112.567519 158.104401,113.372778 L158.211173,113.545296 C158.112291,114.761864 157.197629,116.959892 157.197629,116.959892 C156.879943,116.524389 156.550686,116.085204 156.208806,115.644442 C156.208806,115.644442 156.764756,112.756342 156.567517,111.309925" id="path64" fill="#231F20"></path>
                        <path d="M159.526097,115.057459 C159.526097,115.057459 160.695328,116.765809 161.161337,117.51479 L161.235499,117.654698 C161.104006,119.035368 160.226689,121.547926 160.226689,121.547926 C159.905321,121.005651 159.565019,120.453383 159.206308,119.893225 C159.206308,119.893225 159.6902,116.865743 159.526097,115.057459" id="path66" fill="#231F20"></path>
                        <path d="M162.241153,107.089018 C161.801442,106.77554 161.348582,106.459432 160.882573,106.139642 C160.882573,106.139642 160.446544,104.045231 159.739641,102.302693 L159.608149,101.990793 C160.578037,102.516763 161.958707,103.486125 161.958707,103.486125 C162.271133,104.883627 162.241153,107.089018 162.241153,107.089018" id="path68" fill="#231F20"></path>
                        <path d="M166.08494,106.077052 C166.46206,108.018932 166.473632,110.32268 166.473632,110.32268 C165.992895,109.92715 165.490068,109.524784 164.963572,109.115053 C164.963572,109.115053 164.358181,106.004994 163.531357,104.333462 C163.531357,104.333462 164.482836,104.890464 165.90348,105.951871 L166.08494,106.077052" id="path70" fill="#231F20"></path>
                        <path d="M163.142139,92.342404 C163.558181,94.0297149 163.47876,96.2550929 163.47876,96.2550929 C162.964361,96.0867826 162.439444,95.9205762 161.902955,95.7580515 C161.902955,95.7580515 161.169753,93.0429957 160.293487,91.7065066 L160.578037,91.750688 C161.717287,91.9915822 163.142139,92.342404 163.142139,92.342404" id="path72" fill="#231F20"></path>
                        <path d="M168.051541,93.6573284 C168.577511,95.2352376 168.637997,98.1706747 168.637997,98.1706747 C168.067846,97.9329364 167.479286,97.696776 166.872317,97.4632454 C166.872317,97.4632454 166.079154,94.446283 165.027215,92.7368813 C165.027215,92.7368813 166.246413,93.0077557 167.924256,93.6015756 L168.051541,93.6573284" id="path74" fill="#231F20"></path>
                        <path d="M159.925834,85.4369472 C159.374092,85.4022332 158.808675,85.3696231 158.22853,85.3391169 C158.22853,85.3391169 157.443783,83.981063 155.712817,82.3594983 L155.515578,82.173305 C156.830502,81.9760663 158.367386,81.9213655 158.367386,81.9213655 C159.295723,82.990136 159.925834,85.4369472 159.925834,85.4369472" id="path76" fill="#231F20"></path>
                        <path d="M163.489805,81.7541071 C164.506505,83.2936205 165.397498,85.8877033 165.397498,85.8877033 C164.849963,85.8303726 164.283494,85.7756718 163.697563,85.7230748 C163.697563,85.7230748 161.665216,82.9953957 160.561732,81.9792221 L160.322941,81.7541071 C162.18277,81.6084135 163.489805,81.7541071 163.489805,81.7541071" id="path78" fill="#231F20"></path>
                        <path d="M154.192238,76.1346464 C154.192238,76.1346464 152.63379,74.5030882 151.417748,73.8345807 C151.417748,73.8345807 152.41446,73.3848765 153.390134,73.0671908 L153.619983,73.0014446 C154.81446,74.2180126 155.441942,75.7675195 155.441942,75.7675195 C155.026426,75.8821809 154.609332,76.0042059 154.192238,76.1346464" id="path80" fill="#231F20"></path>
                        <path d="M155.186847,72.4644295 C155.186847,72.4644295 156.192501,72.2046004 157.594736,71.9200508 L157.874026,71.8706096 C158.816038,72.768966 160.006834,74.7760665 160.006834,74.7760665 C159.533461,74.85391 159.052199,74.9396431 158.567254,75.0348436 C158.567254,75.0348436 157.027741,73.5384597 155.186847,72.4644295" id="path82" fill="#231F20"></path>
                        <path d="M148.856801,66.0160404 C148.856801,66.0160404 150.348451,65.2844165 151.065348,65.0072305 C151.065348,65.0072305 152.293487,65.9140023 153.229713,67.0401035 L153.354894,67.2099917 C152.924651,67.3930292 152.4902,67.58869 152.051541,67.7974999 C152.051541,67.7974999 150.406834,66.5425361 148.856801,66.0160404" id="path84" fill="#231F20"></path>
                        <path d="M186.529384,57.1781708 L136.200917,57.1781708 L137.7783,60.9257052 L106.441023,60.8794199 L103.275211,59.76489 L96.7447708,57.1781708 L40.8390785,57.1329374 C38.4837334,61.2965139 32.7073233,60.8767901 32.3816428,60.8578552 L5.69567376,60.8578552 L12.0551739,52.2891769 L3.28792628,30.633635 L23.5336746,30.633635 C23.7684675,30.633635 23.9926358,30.6397888 24.2168041,30.6461531 C28.9774615,29.186587 32.6847066,27.410808 32.6847066,27.410808 C32.6847066,27.410808 38.344404,25.2411828 41.7916097,22.3305188 C41.7916097,22.3305188 30.2397889,18.2184874 24.6480467,4.95623919 C24.6480467,4.95623919 55.4330032,10.8397104 94.4305039,6.67613396 C97.4106485,6.35744889 105.958709,5.50685062 109.02406,5.06410507 C111.772778,4.66736609 130.125441,2.37795655 143.138458,2.78969618 C143.138458,2.78969618 154.967517,3.44201964 160.913605,13.0267978 C160.913605,13.0267978 166.281653,20.4696905 167.667583,30.8080466 L177.562652,30.8080466 L178.810778,33.7021425 C179.008543,31.6640097 178.745558,30.8080466 178.745558,30.8080466 L193.363309,30.8080466 C193.625768,37.8441542 192.112553,42.1844039 192.112553,42.1844039 C196.773697,45.3749364 196.910449,49.8124379 196.910449,49.8124379 C197.523729,57.4616685 186.529384,57.1781708 186.529384,57.1781708" id="path86" fill="#231F20"></path>
                        <path d="M35.3640491,29.907113 C35.3640491,29.907113 51.011649,33.2396573 75.8784991,31.6913076 C81.0308987,31.370992 101.542141,30.0612221 114.410517,28.7732274 C131.723337,27.0412091 156.181982,26.8571196 163.691778,31.3461662 C163.691778,31.3461662 161.754105,8.68218256 142.818142,6.6440498 C142.818142,6.6440498 135.575013,5.7158184 116.869951,7.73443768 C110.975408,8.37070328 87.6623252,11.1263114 77.1918455,11.4519392 C58.1811951,12.0393422 47.579486,11.2861536 31.1316758,9.33759345 C31.1316758,9.33759345 34.7795389,16.1567386 48.7037463,21.8429449 C48.7037463,21.8429449 42.4400252,27.3767252 35.3640491,29.907113" id="path88" fill="#FEE60E"></path>
                        <path d="M34.8021556,34.6225895 L41.2462843,50.5366457 L39.0199596,53.2870467 L52.6232728,53.2965141 C58.5199196,53.2965141 57.7514778,49.4847062 57.7514778,49.4847062 C57.5879013,45.4396833 52.1632597,44.025298 52.1632597,44.025298 C54.2343182,41.3621554 54.463115,34.5578427 54.463115,34.5578427 L48.3808009,34.5578427 C48.1835622,39.4567774 46.6282697,44.3261001 46.6282697,44.3261001 C50.3049034,45.2907287 50.9787758,46.8706892 50.9787758,46.8706892 C52.5406956,49.946192 48.3483486,49.7476911 48.3483486,49.7476911 L45.1921093,49.7476911 L46.5727799,48.2345287 L40.9832994,34.6225895 L34.8021556,34.6225895" id="path90" fill="#FFFFFF"></path>
                        <polyline id="path92" fill="#FFFFFF" points="90.3021674 53.2312939 86.4888867 44.2225367 85.6994061 53.2965141 70.8228779 53.2965141 65.5111095 47.1164222 63.6633778 53.281787 58.0076251 53.281787 61.1713331 42.2501502 58.0365534 34.447915 64.2182758 34.447915 67.2867833 41.8567248 76.5364872 51.8505707 77.4132788 50.5366457 70.8370791 34.4920964 77.0188015 34.4920964 81.5342517 45.3628391 82.1927659 34.4567513 88.3203134 34.4567513 95.8921738 53.2312939 90.3021674 53.2312939"></polyline>
                        <path d="M23.1486122,34.4752654 C25.0162255,34.4752654 33.7266001,34.1169222 35.7312286,41.933569 C36.9933456,46.101248 32.7876389,48.089887 32.7876389,48.089887 C36.2680859,49.1214715 37.0704001,52.0679014 37.0704001,52.0679014 C38.5240227,57.3070334 32.4044699,56.9798802 32.4044699,56.9798802 L13.7592633,56.9798802 L16.9150818,53.0351072 L9.55087419,34.6225895 L23.1486122,34.4752654 Z M18.2540429,39.7154494 L23.0315313,51.4556726 L21.6508607,53.3591045 L27.4714523,53.3591045 C27.4714523,53.3591045 31.2569617,53.368046 29.6893615,50.3858502 C29.6893615,50.3858502 28.8480203,48.7011165 25.1764885,48.6252716 C25.1764885,48.6252716 29.8424187,45.9471389 27.7395391,41.9703343 C27.7395391,41.9703343 26.5534773,39.6766328 22.5004071,39.6766328 L18.2540429,39.7154494 Z" id="path94" fill="#FFFFFF"></path>
                        <polyline id="path96" fill="#FFFFFF" points="97.7067694 34.4783686 105.133462 53.0351072 101.97554 56.9798802 114.296907 56.9798802 114.250622 45.9761198 121.573173 56.9798802 131.943192 56.9798802 122.824455 34.5352786 116.249833 34.4920964 120.959892 46.5604196 112.565941 34.4920964 107.860615 34.4920964 109.079287 46.2111757 104.303482 34.46827 97.7067694 34.4783686"></polyline>
                        <path d="M134.556736,41.9429838 L138.746085,49.4253242 L138.812883,41.9429838 L134.556736,41.9429838 Z M144.475473,34.4920964 L144.35713,53.2965141 L133.09717,53.2965141 L134.149109,51.0616161 L124.111502,34.4888354 L130.386322,34.4920964 L134.124388,41.1702817 L136.464428,38.3495585 L138.844967,38.3495585 L138.878629,34.4920964 L144.475473,34.4920964 Z" id="path98" fill="#FFFFFF"></path>
                        <path d="M187.411435,53.3885588 L174.2259,53.2623261 L168.172514,53.2591703 L163.797498,45.5321488 L163.797498,53.2591703 L158.201705,53.2591703 L158.201705,53.246021 L158.178037,53.2591703 L153.801969,45.5321488 L153.801969,53.2591703 L148.206176,53.2591703 L148.326624,34.4516494 L153.385926,34.4516494 L158.268504,42.5961331 L158.318997,34.4516494 L163.294145,34.4516494 L174.380535,52.6953307 L176.033658,50.6293215 L169.529516,34.5352786 L175.710712,34.5352786 L181.361205,48.327152 L179.978431,49.8403669 L183.136353,49.8403669 C183.136353,49.8403669 187.32728,50.0386049 185.766202,46.9627339 C185.766202,46.9627339 185.090857,45.3834045 181.41538,44.418776 C181.41538,44.418776 182.986978,39.3877176 183.185268,34.4888354 L189.266004,34.4888354 C189.266004,34.4888354 189.021429,41.4548313 186.95016,44.1173427 C186.95016,44.1173427 192.375538,45.5321488 192.538588,49.5773821 C192.538588,49.5773821 193.30703,53.3885588 187.411435,53.3885588" id="path100" fill="#FFFFFF"></path>
                        <path d="M55.1316226,21.2413933 L57.6741603,21.3422743 L58.4531215,25.0482571 L58.4210373,25.0472578 L55.1316226,21.2413933 Z M56.8110439,27.3919257 L62.8649557,27.6312945 L60.774226,16.3455617 L56.1641012,16.1624717 L56.7452977,18.608231 L53.037211,18.461538 L50.9956595,15.9568175 L46.6152783,15.7831949 L56.8110439,27.3919257 Z" id="path102" fill="#231F20"></path>
                        <polyline id="path104" fill="#231F20" points="74.7239955 24.3034839 71.2447056 24.4002624 67.7712015 16.1992369 63.4361588 16.2682968 66.909663 24.4680599 63.3740944 24.475476 64.685337 27.5624451 76.035764 27.3919257 74.7239955 24.3034839"></polyline>
                        <polyline id="path106" fill="#231F20" points="84.6537783 26.9107686 88.8499649 26.6818665 84.2161715 15.1957919 80.0194589 15.4240627 81.685731 19.5556077 78.8828383 19.7064032 77.2170921 15.5771199 73.0203795 15.8047596 77.6541729 27.2920966 81.8508855 27.0631946 80.2508856 23.0974879 83.0543043 22.9443781 84.6537783 26.9107686"></polyline>
                        <polyline id="path108" fill="#231F20" points="91.124784 26.4998284 95.245231 26.1602097 91.977381 18.0023664 97.035632 17.5862717 95.6675847 14.1695197 86.4894127 14.9254434 91.124784 26.4998284"></polyline>
                        <polyline id="path110" fill="#231F20" points="101.69888 25.459618 111.028005 24.5439047 109.912423 21.7835629 104.622746 22.3037996 103.965283 20.6773959 109.023534 20.1804071 107.907953 17.4206965 102.849702 17.9183164 102.219064 16.357659 107.615513 15.8273763 106.499406 13.0682968 97.0624565 13.9951081 101.69888 25.459618"></polyline>
                        <polyline id="path112" fill="#231F20" points="121.911897 20.5080863 118.598814 20.8614853 114.954369 12.18998 110.831818 12.6017091 114.475737 21.2734248 111.103745 21.6142532 112.259826 24.399263 123.194211 23.2920441 121.911897 20.5080863"></polyline>
                        <polyline id="path114" fill="#231F20" points="128.779484 22.8297693 123.996315 11.3919787 119.821693 11.7069294 124.603284 23.14472 128.779484 22.8297693"></polyline>
                        <path d="M135.640759,11.2068373 C134.758182,11.0217486 133.497959,10.8585928 132.427084,10.9169754 C128.774224,11.1205783 126.674553,13.2780536 128.365546,17.3481652 C129.953448,21.1723335 133.803021,22.9160284 137.3307,22.7198416 C138.495197,22.6540954 139.127413,22.4689541 140.173041,22.1938719 L138.923862,19.1857983 C138.325835,19.4530962 137.698353,19.6880994 136.990398,19.7279679 C135.194737,19.8280074 133.426953,18.906561 132.652199,17.0430502 C131.837472,15.0805519 132.682179,14.0144112 134.430503,13.9166334 C135.2021,13.8735039 136.010516,13.9961601 136.896775,14.2311634 L135.640759,11.2068373" id="path116" fill="#231F20"></path>
                        <path d="M150.67613,19.8368437 C149.873501,20.2087569 148.851541,20.4686385 147.65759,20.4976195 C146.997498,20.51282 145.844572,20.5253381 145.543718,19.7775143 C144.935697,18.2674026 151.275736,19.5556077 149.479023,15.0899667 C148.228793,11.9857459 145.009332,11.2756868 142.573566,11.3352791 C140.955684,11.3740957 139.687045,11.5723863 138.269556,11.9927413 L139.47876,14.9965019 C140.410253,14.4715841 141.685204,14.1728333 142.942797,14.1418011 C143.93162,14.1169227 144.914132,14.3121101 145.148188,14.8927281 C145.77567,16.4533855 139.442469,15.1826426 141.252856,19.6807359 C142.535697,22.8675865 145.904007,23.3567384 148.402363,23.2947266 C149.581061,23.2663768 150.82498,23.085338 151.87166,22.8092039 L150.67613,19.8368437" id="path118" fill="#231F20"></path>
                    </g>
                </g>
            </g>
        </g>
    </g>
</svg>