<?xml version="1.0" encoding="UTF-8"?>
<svg width="200px" height="200px" viewBox="0 0 200 200" version="1.1" xmlns="http://www.w3.org/2000/svg" xmlns:xlink="http://www.w3.org/1999/xlink">
    <!-- Generator: Sketch 51.3 (57544) - http://www.bohemiancoding.com/sketch -->
    <title>byu-hawaii</title>
    <desc>Created with Sketch.</desc>
    <defs></defs>
    <g id="byu-hawaii" stroke="none" stroke-width="1" fill="none" fill-rule="evenodd">
        <g id="byu-hawaii_BGL" transform="translate(0.000000, 44.000000)">
            <g id="byu-hawaii">
                <ellipse id="Oval" fill="#231F20" cx="100" cy="56.1331169" rx="100" ry="56.1331169"></ellipse>
                <path d="M101.01821,91.9665622 C110.60234,94.1170449 118.303541,95.1878373 124.121812,95.1789392 C164.819584,95.116699 191.0544,80.9643792 191.0544,55.7579457 C191.0544,22.6496106 140.946691,5.97474888 104.420381,5.97474888 C82.7751608,5.97474888 55.753102,9.20391765 33.8235294,22.6496106 C59.1753791,17.0876053 95.8266314,16.6182101 95.8266314,49.5850442 C95.8266314,71.5629336 95.8266314,81.9622776 95.8266314,80.7830763 L101.01821,91.9665622 Z" id="Path-3" fill="#FFFFFF"></path>
                <g id="g10" transform="translate(101.470588, 65.957583) scale(-1, 1) rotate(-180.000000) translate(-101.470588, -65.957583) translate(10.294118, 33.671869)" fill-rule="nonzero">
                    <g id="g12">
                        <path d="M155.555977,27.1973522 C155.535819,27.2262456 155.524824,27.2613567 155.509431,27.2935418 C153.86164,26.3788257 150.558359,25.8762987 150.285316,25.2304015 C148.708625,26.2592286 146.106463,27.4336203 144.529406,28.4620817 C146.196622,28.9466874 154.359715,29.1116362 156.15704,29.0395854 C156.167302,29.0264187 156.173899,29.0139836 156.184161,29.0015484 C158.306939,28.988016 160.264058,29.1708861 162.33516,28.860007 C160.254163,27.5012822 157.944835,28.1991145 155.555977,27.1973522 Z M180.258927,37.9135391 C177.461786,38.8630006 173.76305,37.639234 170.72585,37.9135391 C168.528306,38.3367005 167.40791,35.0249233 166.477362,33.3644629 C163.014287,32.9522737 159.495138,33.3831156 156.024733,33.0656532 L155.730432,33.2342594 L150.162904,33.2514492 C144.501552,33.2620557 139.133767,33.1033244 133.553779,33.3077732 C131.204869,36.0749633 128.170601,37.7613912 124.674908,37.8180809 C125.668494,39.9543693 126.268457,42.3466757 126.680039,44.726547 C128.947218,45.3073424 126.830304,48.2200971 127.285133,49.944562 C125.956931,52.9655758 130.453907,56.3636677 125.940805,57.5779251 C124.178664,60.0060741 121.130103,60.4680039 118.525742,61.3355396 C113.880332,61.6943307 109.130836,60.7284109 106.554695,56.7956069 C105.245918,56.6167599 104.655117,55.5436783 104.058452,54.5631289 C103.844049,53.5134546 104.719621,53.0994367 104.774597,52.2560399 C104.753706,51.1244398 104.731716,49.9932055 104.423854,48.9376793 C103.668861,50.3955196 102.576686,52.0387902 101.161622,52.68103 C90.0987677,56.4331584 87.6032574,58.9234832 83.0531384,60.2416107 C77.3338789,61.2133824 74.6364262,61.7835713 68.1126953,63.1174257 C65.7220045,63.0263564 62.3542201,63.226782 60.3901374,61.8080759 C58.6668462,57.8361377 59.9114861,53.5401536 60.1973574,49.1333503 C61.2129337,42.7519158 61.6347772,43.5792201 61.9294446,40.4909101 L63.0168553,39.4163655 C60.6752757,41.4184272 58.0533223,44.1991497 54.0390288,45.8683878 C46.6078397,48.957795 44.5873157,49.2105215 36.3340632,49.9014047 C32.369614,49.9270065 24.2574646,48.7968694 16.8966438,44.9079541 C9.96902811,41.4513438 4.47333464,37.685683 1.14586542,31.6308545 C2.32050347,23.4273025 11.6912197,13.6847158 18.8981098,11.3227658 C26.9039736,9.37958831 34.0247358,8.61153395 44.8772186,10.8908267 C46.8138137,11.1552568 54.6639143,14.4421637 59.1656551,17.3721082 C59.8235257,17.4141684 63.3397433,20.4136035 64.7947552,21.2610235 C64.8163788,19.4729198 62.8420339,18.0033758 63.4211067,16.3469385 C47.5281256,6.33333844 143.102615,2.47770557 148.031696,9.38653737 C149.484143,8.82183455 151.351103,9.13125074 152.891143,8.6656635 C158.013005,8.24359934 160.49019,13.6755723 164.009706,16.1626055 C167.678388,19.2253137 172.197721,20.2497519 176.747107,21.3901297 C179.216596,22.5861001 180.254895,26.6805613 180.761034,29.0677474 C180.796585,31.424577 181.626711,35.7428712 180.258927,37.9135391 Z" id="path18" fill="#231F20"></path>
                        <path d="M72.7910899,59.5097647 C76.4223891,58.8027889 80.0533218,58.0961789 83.5204281,57.0022501 C84.3212344,56.3003947 85.3609998,56.2736956 86.1669371,55.4782108 C84.7064277,54.724786 83.0098912,54.7086935 81.7608533,53.5931859 C82.0980349,52.7673446 83.3826235,53.3210753 84.1401826,53.2753577 C89.1161766,55.1036928 95.0058594,53.0365294 99.7674499,50.8962179 C101.2866,49.2997621 103.211833,47.2592977 102.230342,44.9353846 C101.960596,44.7294729 101.885097,44.4420012 101.903055,44.160747 C102.903972,43.2840678 103.176649,44.9021023 103.915517,45.1383704 C106.222278,43.0284154 106.805749,39.8647629 109.112511,37.7537107 L109.487442,37.7782153 C109.830121,39.7777168 107.259112,41.5888621 109.023085,43.4918082 C109.719804,44.3838485 110.822242,44.8318802 111.898657,44.2426728 C113.266075,42.0709076 112.245368,38.8981117 113.055337,36.596143 C114.903971,37.1868134 113.627446,40.8701827 116.061384,39.7093234 L117.237854,39.032704 C116.013006,37.5408499 114.977272,36.0614309 114.911301,34.1742116 L115.311521,33.8234668 L116.89261,35.6203483 C119.393984,33.4284674 121.529223,36.8616704 124.715589,35.7490888 C126.430817,35.4831957 128.176465,34.7491552 129.489641,33.4211526 C124.898107,32.9365469 120.339192,33.3955508 115.635509,33.185616 C107.355502,32.8385285 98.3567847,33.3871388 89.7890738,33.1153938 C89.636609,35.4597883 91.1935084,37.6311877 90.7474758,40.1456514 C87.6560337,41.2629876 85.5636753,44.4233484 83.5204281,46.8328446 C82.7108258,46.2162067 83.9122185,45.1639723 84.0602852,44.3264273 C84.2853173,43.7756226 84.6034408,43.2314012 84.8277398,42.6809622 C82.9545495,42.465907 81.1964407,43.3883037 79.5501149,44.0345666 C78.5686232,44.6303573 77.3980167,45.2137129 76.6800398,46.1090449 C76.9039724,48.4772124 76.726952,51.1957591 75.654568,53.1981866 C75.3474395,53.5547832 74.928528,54.187148 74.3652149,54.1502082 C73.7681836,53.1703903 74.6873699,52.0998688 74.6664793,50.9682687 C75.2730397,47.4300983 72.0371959,44.9613522 73.4075459,41.2838348 C72.9721418,39.2784814 75.4214729,36.4235137 72.6452223,35.5852372 C71.7997028,35.5311077 71.2851343,34.7440348 70.7515078,34.2389476 C70.7694664,33.9576935 70.787425,33.676805 71.0758618,33.600731 C72.1793986,34.0487628 73.1641887,34.8654606 74.5854824,34.7692709 C75.5827336,35.3987097 76.933659,34.9210531 77.9679269,34.9883493 C78.8530286,32.9738524 79.2239283,30.1726484 78.6056399,28.0612304 C78.1548428,27.7503513 77.3030928,27.7891198 77.2635106,26.9395053 C77.463254,26.7646815 77.3939852,26.3821173 77.4119438,26.1015946 C76.9036059,25.2223552 76.0031111,26.0105253 75.3639321,25.6868453 C74.4179911,25.7204934 75.3599006,27.1925975 74.4084621,27.3198751 C72.9358581,26.7537093 71.0388452,26.9139035 69.9312769,27.9712584 C70.2882496,31.1959894 68.6723435,34.2927114 67.5314236,37.3261604 C65.6538352,44.4544363 61.6028916,51.6313557 63.4408978,59.6582552 C65.4104781,61.2920165 68.7353818,60.9423689 70.793289,59.7573708 L72.7910899,59.5097647" id="path20" fill="#AF8006"></path>
                        <path d="M125.386654,55.9416036 C125.798602,55.403234 125.75902,54.5532539 125.614252,53.8843151 L124.911301,53.0862701 C118.780094,53.0668858 112.557994,51.5348003 106.605273,53.127233 C105.92248,53.4596908 105.774413,54.2972358 106.119291,54.7906193 L106.746742,55.3015583 C112.972507,55.3271601 119.348538,55.9280712 125.386654,55.9416036" id="path22" fill="#B20D35"></path>
                        <path d="M124.514746,51.9308969 C124.814545,51.6675639 124.933291,51.2985321 124.962611,50.830019 C123.478279,50.4514779 121.671059,52.1236419 120.353119,50.6263017 C120.965544,49.9127426 121.978554,48.848073 122.993398,49.1962576 C123.426969,49.7894882 124.096568,49.6442893 124.648153,49.8681223 C124.726951,48.6491103 126.119291,47.3971817 125.346339,46.2176697 C124.881981,46.0936838 123.882164,45.6760085 123.825357,45.1069168 L123.92248,43.6070164 C123.446394,43.6706551 123.075861,43.5521553 122.813079,43.2529799 C122.96701,42.3210739 124.095468,42.3938562 123.304558,41.4955984 C122.965177,40.9082196 123.220262,39.889999 122.475164,39.7469946 C119.625247,40.0337349 116.858159,40.5146832 114.330396,41.6685935 C113.769282,43.0448737 114.287149,45.2440693 112.559093,45.6975872 C111.807765,45.6489437 110.585848,45.5699438 110.613336,46.6075487 C110.227409,48.1831574 110.312071,49.7891224 111.461054,50.9931391 C113.579068,51.7889897 113.55268,47.833144 115.440163,49.2730631 C116.250132,49.889701 115.770748,51.4594578 116.997796,51.4451939 C119.398382,52.2589658 122.126255,50.9291345 124.514746,51.9308969" id="path24" fill="#AF8006"></path>
                        <path d="M88.0954693,38.8432506 C88.142015,36.6809948 86.8299388,35.0896593 86.4876262,33.0905235 L82.7174228,33.034931 C82.9292608,35.5910891 82.9461199,38.2284414 83.8458817,40.3577807 C85.3921525,39.7989297 87.7432611,41.3632004 88.0954693,38.8432506" id="path26" fill="#AF8006"></path>
                        <path d="M123.398016,31.3335077 C131.702578,31.3046143 140.176465,31.5701416 148.769098,31.4670029 C155.376758,31.4223826 162.077142,31.3847114 169.148793,31.4659057 C169.066697,31.2713319 169.354767,31.1959894 169.273404,31.0025129 C162.315002,30.6470134 154.949417,30.7369855 147.89719,30.3749028 C142.228875,30.4791387 136.121856,30.0837736 130.829571,30.2125141 C114.163271,29.7004779 98.1302867,29.6061169 81.8268236,29.3058442 C81.4207397,29.7498528 81.4665524,30.5062035 81.6179177,31.081147 C82.5268419,31.6107388 83.591163,31.2084246 84.5301404,31.2695032 C97.468751,31.0694433 110.44108,31.8137246 123.398016,31.3335077" id="path28" fill="#B20D35"></path>
                        <path d="M173.694514,34.1134988 C173.597758,32.6944269 174.37694,30.8620687 172.910201,30.2022734 C172.246099,30.2538428 171.873367,31.6418267 170.945751,31.3934891 C170.854492,32.8001258 168.111593,32.9047275 169.805931,34.4265724 C170.777893,35.4308949 172.242434,34.6778358 173.458121,34.8508309 L173.694514,34.1134988" id="path30" fill="#AF8006"></path>
                        <path d="M88.7115587,26.4556311 C92.3091397,24.80468 95.7432609,22.7671415 99.7260352,22.4591883 C100.283851,22.5893918 100.941721,22.6325491 101.487076,22.9503773 C102.51548,20.1919649 105.291731,18.1116349 107.04764,15.7771154 C104.132119,14.1770021 100.561659,13.9454886 97.3214174,12.9832262 C94.0067757,11.7331263 91.328381,8.4070852 87.2092681,9.36422722 C83.1707855,13.4349153 79.8781339,18.6342776 77.4826786,23.5644551 C78.304009,23.993834 79.3313133,24.1532967 79.8279232,25.2223552 C79.9616963,26.0778215 80.1940584,26.8466073 80.9215644,27.2701345 C83.4643534,27.3407223 86.4652696,27.6285598 88.7115587,26.4556311" id="path32" fill="#AF8006"></path>
                        <path d="M75.4738826,21.0807136 C78.0716469,17.3878351 82.5187789,11.6021913 84.5656911,7.68584559 C79.0575366,9.18757472 67.4650868,11.6373024 67.1766499,16.5345633 C67.8975588,20.6111032 71.3672307,21.2836994 74.9607802,22.6844842 L75.4738826,21.0807136" id="path34" fill="#B20D35"></path>
                        <path d="M140.673808,10.3714757 C140.673808,10.3714757 149.162721,9.66596286 154.4682,8.60677933 C158.573752,7.78752135 162.858891,14.4970248 166.113059,16.9398034 C170.417622,20.1703863 173.47388,20.8287186 173.47388,20.8287186 C160.484692,-8.12071307 110.691034,0.952203321 90.4458449,6.48877801 C91.118009,6.9320551 92.9087365,7.34643871 94.3366272,7.90053506 C95.8587089,8.49230266 97.02675,9.02335739 98.9351245,9.66596286 C103.672526,11.2602243 106.595011,11.4156638 108.485793,12.4887455 C109.934208,13.4312579 112.702396,12.5139816 114.144946,13.547929 C117.917349,15.0156443 120.417623,17.3849091 124.40223,18.4901759 C128.622131,14.5255525 135.547914,12.3003893 140.673808,10.3714757" id="path36" fill="#FFFFFF"></path>
                        <path d="M54.1618069,41.2644506 C57.1187429,39.9284017 58.8805167,38.5608992 60.6609821,37.0708738 C61.6673959,36.0998336 63.2316253,35.2593627 63.9745243,33.9887814 C63.1777495,33.1848845 61.6622649,33.2744908 60.6771082,32.4574273 C62.4414475,31.4421326 65.0480079,31.9870854 67.2393217,31.658285 C67.4760818,30.9198556 67.3364447,30.1583846 67.0974855,29.4832282 C65.1363348,29.1679602 63.2206302,29.6097743 61.3719955,29.0202012 C61.9397067,27.5495599 63.6303792,27.6589163 64.8006192,27.0751949 C64.9069047,26.8941536 65.1070146,26.718964 65.0249183,26.524756 C61.0978522,23.0696086 59.2719406,22.3498319 53.7916402,19.0292769 C47.1367017,15.7087219 42.4396155,14.3419509 35.980389,13.7553037 C28.3468909,13.3650589 22.7951227,14.7797419 18.5609282,17.0762244 C13.2693762,20.396048 7.94923707,24.126232 6.77459902,30.7666105 C8.53637284,35.0640575 17.5992277,40.7045024 25.2155002,43.444262 C31.8880307,46.3215399 37.3503725,45.5933512 43.809599,44.6164592 C49.0941875,43.444262 50.464171,42.6634067 54.1618069,41.2644506" id="path146" fill="#B20D35"></path>
                        <path d="M176.564589,34.9576271 C177.545714,34.3622021 176.861822,33.2818056 177.004025,32.5382559 C176.598674,30.0640236 177.063032,27.2690372 175.494404,25.2848968 C174.551762,23.8124269 173.093451,24.4711249 171.927243,23.547631 C168.556893,23.1416594 166.184161,20.4461544 163.462885,18.7641153 C160.039026,16.282934 157.800067,11.5246544 153.184344,11.4145666 C152.214214,11.8230984 150.999261,11.6501033 150.0229,12.1515331 C147.819125,12.6686897 145.867137,13.6719149 143.430634,13.4210172 C137.168585,13.9568265 131.581266,17.1746085 126.604539,21.1838523 C127.485243,23.59408 130.291913,23.9645748 131.986251,25.4856882 L131.962062,25.8609376 C130.187827,25.557739 128.364481,24.5929164 126.721453,23.733427 C122.339192,21.4735185 117.584199,20.600131 113.63331,17.5205987 C112.265892,16.7733916 110.481395,16.6581834 109.029682,17.223252 C107.140365,18.7019395 104.406262,20.125766 103.672159,22.7137434 C103.378591,22.8838126 103.259478,23.2532102 102.965911,23.4225479 C104.120391,24.5318378 105.369429,25.649174 106.317569,27.0283802 C106.399299,27.2218567 106.204686,27.3034168 106.098767,27.4848239 C103.786874,26.7705334 102.259662,24.1295236 99.6043566,24.3347038 C97.1953408,25.119948 94.8728193,26.0061364 92.5393028,27.0799496 C97.1249724,27.6574533 101.628546,28.0433092 106.275055,27.6841523 L107.095652,28.1142628 C115.98222,27.8406891 125.271939,28.6306879 134.251964,28.3629661 C134.783025,27.4555647 132.333694,27.3911944 133.616084,26.533168 C137.346705,28.6562897 142.223377,27.6545274 145.56404,25.6104056 C147.158689,24.3010558 149.249215,24.0596672 150.587313,22.3571468 C152.974705,23.3585433 155.108478,25.3796235 158.044524,25.1934618 C161.300159,24.4619814 163.273404,27.5078656 166.042325,28.4401373 C166.254896,28.0765915 166.55506,27.8147216 166.855592,27.5510229 C167.88253,27.7119486 167.1334,29.0757937 167.967925,29.3179137 C167.601056,27.6936616 167.740327,25.536526 168.765432,24.2849632 C169.271571,23.753177 169.860173,23.4148673 170.599041,23.650404 C171.590061,24.3734723 169.875566,24.6386339 169.919546,25.3946189 C169.916248,26.9018341 169.306755,29.0278817 170.937688,30.0749958 C171.71907,29.6540289 172.43778,28.7594284 173.54095,29.2074601 C175.82902,30.2973658 175.388485,32.7160056 175.254712,34.7791459 C175.594093,35.3654274 176.094001,34.9272706 176.564589,34.9576271" id="path148" fill="#AF8006"></path>
                    </g>
                </g>
                <path d="M191.459386,64.680347 C177.556775,91.732722 144.278971,100.587121 91.6259766,91.2435445 C12.6464844,77.2281795 81.2184053,101.350028 106.284467,103.655946 C130.02735,105.840139 157.907284,101.808632 172.459501,92.711077 C182.16098,86.6460405 188.494275,77.3024638 191.459386,64.680347 Z" id="Path-2" fill="#231F20"></path>
                <path d="M167.649931,91.7451426 C166.462737,87.8326781 169.658107,83.4874061 177.236041,78.7093268 C184.813974,73.9312475 187.046664,75.2363577 183.934111,82.6246576 L167.649931,91.7451426 Z" id="Path-4" fill="#231F20"></path>
            </g>
        </g>
    </g>
</svg>