<?xml version="1.0" encoding="UTF-8"?>
<svg width="200px" height="200px" viewBox="0 0 200 200" version="1.1" xmlns="http://www.w3.org/2000/svg" xmlns:xlink="http://www.w3.org/1999/xlink">
    <!-- Generator: Sketch 51.3 (57544) - http://www.bohemiancoding.com/sketch -->
    <title>cal-st-stanislaus</title>
    <desc>Created with Sketch.</desc>
    <defs></defs>
    <g id="cal-st-stanislaus" stroke="none" stroke-width="1" fill="none" fill-rule="evenodd">
        <g id="cal-st-stanislaus_BGL" transform="translate(0.000000, 28.855721)" fill="#E21D25">
            <g id="cal-st-stanislaus">
                <g id="g10" transform="translate(99.915609, 71.540228) scale(-1, 1) rotate(-180.000000) translate(-99.915609, -71.540228) translate(0.000000, 0.140793)" fill-rule="nonzero">
                    <g id="g12" transform="translate(0.000000, 0.603376)">
                        <path d="M92.4678458,66.7246162 L93.5453141,69.6999279 C92.9660736,69.3332097 92.3416011,69.0134207 91.6597445,68.7479355 L92.4678458,66.7246162" id="path14"></path>
                        <path d="M39.2365222,88.8765426 L39.2370623,88.7793321 C39.4746994,88.062656 39.7454842,87.3627404 40.0474589,86.6795853 L41.1273576,88.8765426 L56.7449775,88.8765426 L54.485737,85.3105933 L64.0835765,85.3105933 L71.0973822,85.3105933 L87.3154409,85.3105933 L88.4253142,85.3105933 L110.54717,85.3105933 L111.658394,85.3105933 L130.35949,85.3105933 C113.996959,92.9238514 98.1934153,98.6458625 100.508352,107.268099 C101.770124,111.775314 103.5362,115.03086 111.856875,115.03086 C111.856875,115.03086 132.034427,115.03086 127.748858,102.2574 L125.223963,94.992759 L179.703624,94.992759 C181.46835,111.022435 176.423962,141.830118 110.344639,141.830118 C110.344639,141.830118 49.0564038,141.830118 40.23075,108.018295 C37.5316784,100.514315 37.4530286,94.2298242 39.2053999,88.8765426 L39.2365222,88.8765426" id="path16"></path>
                        <path d="M115.70025,66.7246162 L116.777719,69.6985871 C116.197803,69.3332097 115.57333,69.0134207 114.891474,68.7479355 L115.70025,66.7246162" id="path18"></path>
                        <path d="M51.2982266,80.2811232 L48.5134165,75.887879 C48.9538553,75.515127 49.4040156,75.1490792 49.8647076,74.7890652 L52.8916105,79.2433173 L51.2982266,80.2811232" id="path20"></path>
                        <path d="M161.067338,61.1205986 L147.899406,61.1205986 L148.580587,63.0011189 C144.733836,60.4407284 140.337549,60.3415067 140.060081,60.3375512 L140.006748,60.3375512 C138.618056,60.3375512 131.546326,60.5455147 128.598815,64.6557087 C128.486748,64.8117818 128.376706,64.9822689 128.270039,65.1637508 L126.838815,61.1205986 L117.939575,61.1205986 L113.669533,61.1205986 L105.467002,61.1205986 L104.486748,63.6058353 L103.606411,61.1205986 L94.7071706,61.1205986 L90.4371285,61.1205986 L82.233922,61.1205986 L81.254344,63.6071761 L80.3740064,61.1205986 L76.2140065,61.1205986 C93.9341749,53.99346 109.975356,48.5892937 104.290293,37.6386985 C101.266495,31.8775351 95.7157782,26.6189834 87.898732,26.6189834 C87.898732,26.6189834 67.7218548,26.8661662 72.0074244,39.3896272 L75.7927407,50.4106832 L0,50.4106832 L19.9820417,37.4173938 C21.8117125,21.0565986 34.7705645,0.066256075 89.409618,0.066256075 C89.409618,0.066256075 150.698393,0.066256075 161.797802,42.6471846 C164.481346,50.1372871 163.938561,56.4169512 161.30835,61.802547 L161.067338,61.1205986" id="path22"></path>
                        <polygon id="path24" points="71.2337535 80.5593463 71.4538379 72.8488777 73.6621079 78.945652"></polygon>
                        <path d="M56.4477961,68.0540536 L61.7022769,76.2539268 L61.2521166,68.0902562 L56.4477961,68.0540536 Z M69.6600826,63.3934471 L69.0970447,83.1122952 L51.3045726,83.1122952 L56.2215007,79.9070304 L44.9994925,63.3934471 L53.6321337,63.3934471 L54.9828847,65.5186027 L60.988893,65.5186027 L60.9514921,63.3934471 L69.6600826,63.3934471 Z" id="path26"></path>
                        <path d="M87.2621075,75.0605842 C87.2621075,75.0605842 86.6990696,74.8004623 85.4224451,74.8004623 L83.0204199,74.8004623 L84.2963692,78.3791495 L86.3237109,78.3791495 C87.4491117,78.3791495 87.8622763,77.9688541 87.8622763,77.9688541 C88.2754408,77.5592292 88.3125716,77.2608935 88.3125716,76.8874711 C88.3125716,76.4778462 87.9750189,75.3957928 87.2621075,75.0605842 Z M95.5193225,75.4340066 C96.7210102,79.0495667 94.6187318,81.1365756 94.6187318,81.1365756 C94.6187318,81.1365756 92.5164534,83.1122952 88.6129936,83.1122952 L71.6853991,83.1122952 L76.5643863,79.8688166 L70.5964539,63.3934471 L78.9664115,63.3934471 L81.331306,70.0666462 L83.9581414,63.3934471 L91.5780568,63.3934471 L88.8384788,70.2523517 C90.1893648,70.513144 91.7664112,70.9978557 93.0794913,72.0048224 C93.0794913,72.0048224 95.144639,73.6071196 95.5193225,75.4340066 Z" id="path28"></path>
                        <path d="M110.493837,75.0605842 C110.493837,75.0605842 109.931474,74.8004623 108.65485,74.8004623 L106.252149,74.8004623 L107.528099,78.3791495 L109.55544,78.3791495 C110.681516,78.3791495 111.094681,77.9688541 111.094681,77.9688541 C111.507845,77.5592292 111.545651,77.2608935 111.545651,76.8874711 C111.545651,76.4778462 111.207423,75.3957928 110.493837,75.0605842 Z M118.751727,75.4340066 C119.95274,79.0495667 117.850461,81.1365756 117.850461,81.1365756 C117.850461,81.1365756 115.748858,83.1122952 111.845398,83.1122952 L94.9171284,83.1122952 L99.7967908,79.8688166 L93.8281833,63.3934471 L102.198816,63.3934471 L104.56371,70.0666462 L107.191221,63.3934471 L114.810461,63.3934471 L112.070208,70.2523517 C113.421769,70.513144 114.998141,70.9978557 116.311896,72.0048224 C116.311896,72.0048224 118.376368,73.6071196 118.751727,75.4340066 Z" id="path30"></path>
                        <polyline id="path32" points="132.413161 83.1122952 118.149533 83.1122952 123.02852 79.8688166 117.060588 63.3934471 125.43122 63.3934471 132.413161 83.1122952"></polyline>
                        <path d="M137.628351,68.5005515 L140.443541,76.5140487 C141.232064,79.7575273 143.559153,79.7575273 143.559153,79.7575273 C143.559153,79.7575273 146.562022,79.7575273 145.924047,77.856224 L143.108182,69.8427268 C142.321009,66.5991141 139.956115,66.5991141 139.956115,66.5991141 C139.956115,66.5991141 136.95257,66.5991141 137.628351,68.5005515 Z M140.218731,62.6109361 C140.218731,62.6109361 149.001853,62.7230298 151.553751,70.1410625 L153.319152,75.3227173 C156.245734,83.8571287 143.333667,83.7096369 143.333667,83.7096369 C143.333667,83.7096369 134.55122,83.5970068 131.998646,76.1788401 L130.234596,70.9978557 C127.269533,62.4988423 140.218731,62.6109361 140.218731,62.6109361 Z" id="path34"></path>
                        <path d="M167.955439,75.0605842 C167.955439,75.0605842 167.392401,74.8004623 166.117127,74.8004623 L163.713751,74.8004623 L164.990376,78.3791495 L167.017717,78.3791495 C168.143793,78.3791495 168.556283,77.9688541 168.556283,77.9688541 C168.968772,77.5592292 169.006578,77.2608935 169.006578,76.8874711 C169.006578,76.4778462 168.669025,75.3957928 167.955439,75.0605842 Z M175.312738,81.1365756 C175.312738,81.1365756 173.21046,83.1122952 169.307,83.1122952 L152.378055,83.1122952 L157.257718,79.8688166 L151.29046,63.3934471 L159.660418,63.3934471 L162.025312,70.0666462 L164.652148,63.3934471 L172.272738,63.3934471 L169.53181,70.2523517 C170.883371,70.513144 172.459743,70.9978557 173.772823,72.0048224 C173.772823,72.0048224 175.83797,73.6071196 176.213329,75.4340066 C177.414342,79.0495667 175.312738,81.1365756 175.312738,81.1365756 Z" id="path36"></path>
                        <path d="M191.525396,77.0001012 L199.633413,77.0001012 C199.896029,79.3861162 199.145311,83.9697588 189.31105,83.9697588 C189.31105,83.9697588 180.190375,83.9697588 178.87662,78.9382774 C176.24911,71.6314 190.287253,72.0792387 188.410459,68.4636786 C187.960164,67.6062149 187.13451,66.8230335 185.970628,66.8230335 C185.970628,66.8230335 182.967759,66.8594371 183.606409,68.7244709 L184.169447,70.363641 L175.949363,70.363641 C175.536198,68.2028862 175.573329,62.8723318 186.196113,62.8723318 C186.196113,62.8723318 195.316788,62.8723318 196.968771,69.2085121 C199.145311,75.2845035 187.096704,76.0300075 187.847421,78.8256473 C188.035101,79.4974054 188.297717,79.9814467 189.536535,79.9814467 C189.536535,79.9814467 192.539404,79.9814467 191.90143,78.0801434 L191.525396,77.0001012" id="path38"></path>
                        <polyline id="path40" points="9.483139 63.0166056 20.2478982 63.0166056 27.543493 75.4065194 27.543493 63.0166056 37.8573493 63.0166056 52.8546822 86.6769036 42.7215517 86.6769036 37.2270708 75.4956849 37.1817037 86.6769036 27.0930626 86.6769036 20.2022611 75.4956849 21.2389531 86.6769036 2.95358642 86.6769036 10.6096875 81.712464 9.483139 63.0166056"></polyline>
                    </g>
                </g>
            </g>
        </g>
    </g>
</svg>