<?xml version="1.0" encoding="UTF-8"?>
<svg width="200px" height="200px" viewBox="0 0 200 200" version="1.1" xmlns="http://www.w3.org/2000/svg" xmlns:xlink="http://www.w3.org/1999/xlink">
    <!-- Generator: Sketch 51.2 (57519) - http://www.bohemiancoding.com/sketch -->
    <title>caldwell</title>
    <desc>Created with Sketch.</desc>
    <defs></defs>
    <g id="caldwell" stroke="none" stroke-width="1" fill="none" fill-rule="evenodd">
        <g id="caldwell_BGL" transform="translate(0.000000, 40.796020)">
            <g id="caldwell">
                <g id="g10" transform="translate(99.999998, 59.950414) scale(-1, 1) rotate(-180.000000) translate(-99.999998, -59.950414) translate(0.000000, 0.033060)" fill-rule="nonzero">
                    <g id="g12">
                        <path d="M189.919995,59.7953704 C191.868329,65.7150397 195.419995,76.4494196 195.529995,76.7682625 L196.373328,79.1183451 L157.063663,75.0528907 C157.151496,76.1735518 157.010329,77.3396675 156.639829,78.473717 C156.047663,80.3335517 154.436996,81.1935517 153.130663,81.5932211 C153.17533,81.8899153 153.196996,82.188593 153.196996,82.4877665 C153.196996,85.1155351 151.569663,87.2142127 150.904996,87.8973532 L150.772663,88.0540474 L150.006163,88.565287 C149.336496,89.0299151 148.544496,89.5780143 147.13233,89.86413 C147.101996,91.4272704 146.775996,93.4755349 145.488663,94.9155348 L145.382996,95.0633034 L144.85583,95.4485927 C144.04483,96.0748736 142.496496,97.2472703 140.06583,97.1960306 C139.985663,98.0211546 139.63433,98.8452868 139.02183,99.6495843 C137.45583,101.692725 134.40133,103.237683 131.80133,103.268592 C130.20833,103.351898 127.94083,101.952725 127.031663,101.327105 L126.664997,101.083469 L126.492997,100.720989 C126.242164,102.683303 125.78133,104.150576 125.530497,104.848923 C128.559497,107.289749 127.71533,109.496361 127.621163,109.704625 C126.88133,111.615039 124.597164,112.582477 120.833497,112.582477 C120.185497,112.582477 119.49533,112.554543 118.779664,112.498344 L118.390164,112.80727 C115.259164,115.280824 110.742997,116.344129 107.058164,116.791071 C107.025164,116.921154 106.986831,117.041815 106.939831,117.160989 C106.108497,119.277352 103.495664,119.666278 102.412164,119.735204 L102.067164,119.743964 C97.2818309,119.743964 92.6046644,117.60165 90.1204977,116.2476 C88.0648311,115.768262 86.0784978,115.191733 84.2011646,114.526939 C82.8789979,116.270245 79.7403313,118.95603 72.9386648,118.95603 C72.5209982,118.95603 72.0899982,118.945947 71.5756649,118.923138 L71.4189982,118.904129 C71.2038316,118.886609 66.1483317,118.413551 62.5643318,116.619336 C59.0228319,114.847105 58.6056652,112.5957 58.6724985,111.42446 C58.7074985,110.703964 58.9316652,110.005782 59.3529985,109.32446 L59.4238318,109.214708 C60.1654985,108.047931 61.9174985,106.823138 64.672665,106.823138 C65.0808317,106.823138 65.4964984,106.852063 65.918665,106.906444 C64.875165,105.728262 65.0279984,104.145452 65.7454984,102.763469 C53.5611653,97.2161959 48.5661655,90.8672705 46.5219988,86.4723945 C44.2294989,81.519998 44.9831655,77.757684 45.1684989,77.016527 L46.0113322,73.9019816 C45.0113322,70.0563619 45.4663322,66.4069405 46.2488322,63.5912381 L0,58.8117341 L3.34419992,56.3993374 C3.34419992,56.3993374 7.74836647,53.2274367 9.90208309,51.6722301 L4.56653322,35.6026437 L4.51679989,35.4219826 C4.33353322,34.7262801 4.24056656,34.040495 4.24056656,33.3915694 C4.24056656,31.5051232 5.06693321,29.8180158 6.5209665,28.7219828 C7.54914981,27.3606605 9.1578831,26.4970241 11.3096331,26.1535531 L15.2432996,23.1433052 L10.7748664,9.79616504 L10.7430331,9.69401629 C9.95358308,6.64960314 11.1612664,4.51537179 12.703183,3.40560322 C13.2602163,2.21849581 14.2311163,1.28544625 15.4387996,0.798037997 C16.5713496,0.253745448 17.9241662,0 19.6894995,0 C20.4941662,0 21.3753328,0.0528796681 22.3886661,0.160317682 L121.89283,10.5082642 L122.27983,11.7257848 C123.90333,11.1322311 125.852664,10.9932229 128.579997,11.2775039 L184.976662,17.1502475 L193.708328,44.5312386 L195.004995,44.6700815 L199.918328,60.8390067 L189.919995,59.7953704" id="path14" fill="#A2934F"></path>
                        <path d="M194.716662,20.6758673 L194.201662,20.6758673 L194.201662,22.5649581 L194.189995,22.5649581 L193.504995,20.6758673 L193.201662,20.6758673 L192.521662,22.5649581 L192.506662,22.5649581 L192.506662,20.6758673 L191.993329,20.6758673 L191.993329,23.0170242 L192.824995,23.0170242 L193.351662,21.631735 L193.886662,23.0170242 L194.716662,23.0170242 L194.716662,20.6758673 Z M191.704995,22.5649581 L190.984995,22.5649581 L190.984995,20.6758673 L190.421662,20.6758673 L190.421662,22.5649581 L189.699995,22.5649581 L189.699995,23.0170242 L191.704995,23.0170242 L191.704995,22.5649581 Z" id="path16" fill="#A2934F"></path>
                        <path d="M106.891497,44.0527262 L107.278164,44.0527262 C107.307497,44.5100595 107.126164,44.4193928 106.891497,44.0527262" id="path18" fill="#FFFFFF"></path>
                        <path d="M107.278164,44.0527262 L106.891497,44.0527262 C107.126164,44.4193928 107.307497,44.5100595 107.278164,44.0527262" id="path20" fill="#FFFFFF"></path>
                        <path d="M106.890164,42.9477675 L107.287497,43.0304342 C107.308831,43.4877675 107.124831,43.3757675 106.890164,42.9477675" id="path22" fill="#FFFFFF"></path>
                        <path d="M107.287497,43.0304342 L106.890164,42.9477675 C107.124831,43.3757675 107.308831,43.4877675 107.287497,43.0304342" id="path24" fill="#FFFFFF"></path>
                        <path d="M60.1119985,88.7642953 C63.3466651,92.3226423 69.2983316,95.283634 71.9276649,96.3348736 L72.3814982,96.5186753 C72.5859982,95.8778488 73.1034982,94.6940472 74.2341648,94.1175183 C68.7128316,92.7360307 63.9851651,90.9449564 60.1119985,88.7642953 Z M187.656662,57.9783457 C189.239995,62.8120645 193.986662,77.1603286 194.034995,77.2943782 L155.022829,73.2618164 C155.619829,74.669089 155.670829,76.3408245 155.128496,78.0001633 C154.440829,80.1593368 151.329163,80.3576839 151.196663,80.3633038 L151.154663,80.3664443 L151.093496,80.3442955 C151.457496,81.0856178 151.61033,81.808593 151.61033,82.4877665 C151.61033,84.9413202 149.740163,86.8353697 149.71333,86.8561962 L149.69933,86.8752044 L149.099496,87.2761962 C148.26683,87.8525598 147.46983,88.3885928 145.49633,88.4775184 C145.516663,88.7289234 145.550996,89.1147085 145.550996,89.6077664 C145.550996,90.8988407 145.33583,92.7639646 144.253663,93.9267745 L144.239663,93.9446258 L143.883163,94.2059481 C142.959996,94.9206588 141.24233,96.2504108 138.191663,95.2874356 L138.17133,95.2811546 L137.90383,95.1340472 C138.13933,95.656196 138.408163,96.240824 138.408163,96.240824 L138.415663,96.2604935 C138.471663,96.4434687 138.498663,96.6328901 138.498663,96.8267744 C138.498663,97.4214852 138.24783,98.0578488 137.757497,98.6993364 C136.451163,100.40727 133.80783,101.722973 131.740163,101.696361 C130.538163,101.792394 128.233663,100.239832 127.975163,100.059336 L127.911497,100.01884 C127.911497,100.01884 125.978664,95.939667 125.866664,95.6902455 C125.60433,95.6479315 125.266997,95.7067745 124.96133,95.8337166 C125.516497,100.715865 124.01033,104.411898 123.912164,104.651237 L123.592664,105.401981 C126.872497,107.48413 126.141664,109.140163 126.141664,109.140163 C125.325497,111.246443 120.818164,111.123303 118.28433,110.878344 C117.805664,111.255369 117.40083,111.577353 117.40083,111.577353 C114.061164,114.219005 108.822997,115.090906 105.406831,115.379997 C105.514997,115.617352 105.574997,115.869253 105.563331,116.13008 C105.549331,116.280328 105.522664,116.4357 105.461664,116.590906 C104.928164,117.953385 102.743164,118.139005 102.308997,118.166774 L102.231331,118.169419 L102.153664,118.169419 C97.4581642,118.198344 92.7324977,115.894543 90.6953311,114.763633 C87.8929978,114.123468 85.5113312,113.363964 83.5314979,112.602642 C83.2933313,113.142972 80.966498,117.799832 71.7176649,117.353055 L71.6393315,117.35041 L71.5609982,117.339666 C71.0498316,117.293716 66.4718317,116.815038 63.2784984,115.215204 C60.9669985,114.059832 60.1896652,112.697848 60.2578318,111.500328 C60.2806652,110.99322 60.4633318,110.517848 60.7371651,110.098014 L60.7339985,110.108096 L60.7473318,110.084129 C61.4023318,109.00132 63.6178317,107.774543 67.116165,108.755039 C68.9469983,109.270906 69.6154983,109.474212 70.0566649,109.606774 L70.4589982,109.725452 C72.1708315,110.232394 73.5613315,110.05884 74.5938315,109.223468 C72.6654982,108.403468 72.5164982,108.154047 72.5164982,108.154047 L74.8484981,107.002311 L67.149165,105.910245 C65.9759984,104.675865 67.7978316,102.533055 67.7978316,102.533055 L68.2353316,102.14413 L67.2014983,101.692064 C54.8636653,96.252229 49.9354988,90.0547085 47.9639988,85.8176838 C45.7604989,81.0603286 46.6619988,77.5707419 46.6976655,77.4242956 L47.6531655,73.89818 C46.3156655,69.2532214 47.3941655,64.8254529 48.3496655,62.2274365 L4.27746656,57.67223 C4.27746656,57.67223 10.4909497,53.193883 11.7705664,52.2677673 C11.0619831,50.1330566 6.07206651,35.1100818 6.07206651,35.1100818 L6.05109985,35.0242966 C5.90026652,34.4547099 5.82571652,33.9003297 5.82571652,33.3915694 C5.82571652,31.8750405 6.50819984,30.6247926 7.66178314,29.8446274 C9.37239977,27.3152059 13.3442663,27.3808258 16.5413996,27.7117348 C16.5465496,27.7117348 17.9559996,27.8595034 19.5036662,28.020991 C20.6329995,27.2067762 137.232997,39.1659494 178.853329,42.7723956 L179.451662,44.629751 C185.698329,45.2750402 192.608329,45.9971889 192.608329,45.9971889 L193.789995,46.1223129 L197.711662,59.028263 C194.864995,58.7322299 189.661662,58.1861142 187.656662,57.9783457 Z" id="path26" fill="#231F20"></path>
                        <path d="M168.349996,48.2421476 L152.845496,53.4842962 C151.230996,53.313883 128.828163,50.3325607 70.9491649,42.3808254 C45.4861655,38.8842965 68.8304983,38.2669412 53.000832,36.0988421 L7.42239981,31.1123959 L17.1016662,23.7064457 L12.2786497,9.30249564 C11.6260497,6.7846114 12.6968163,5.17471061 13.9846997,4.45357014 C14.336783,3.42199991 15.1038996,2.61505779 16.0824163,2.23618176 C16.9984996,1.78428095 18.1444995,1.57341153 19.6894995,1.57341153 C20.4329995,1.57341153 21.2638328,1.62267599 22.2233328,1.72365285 L120.69333,11.9655865 L121.350497,14.0287269 C121.686497,13.7284294 122.07233,13.4922476 122.47983,13.3419997 C123.90083,12.7206939 125.75333,12.5654708 128.415663,12.8418179 L183.776662,18.6062805 L194.296662,51.5978499 L168.349996,48.2421476" id="path28" fill="#231F20"></path>
                        <path d="M61.0011651,110.042477 L60.8184985,110.378477 C60.7931651,110.41981 60.7518318,110.449143 60.7371651,110.490477 L61.0011651,110.042477" id="path30" fill="#231F20"></path>
                        <polyline id="path32" fill="#FFFFFF" points="151.102496 41.1443185 151.42783 41.0016519 151.51983 40.9616519 151.102496 41.1443185"></polyline>
                        <polyline id="path34" fill="#FFFFFF" points="96.9734976 64.3841306 96.9374976 64.3841306 96.9734976 64.3841306"></polyline>
                        <path d="M131.085663,47.0631393 C130.89583,46.8976848 129.266163,45.4933873 127.773997,44.1990072 C126.769497,45.004627 125.67833,45.8747096 125.325497,46.1614864 C125.67433,47.2411558 128.159663,54.9757011 128.159663,54.9757011 C128.159663,54.9737176 128.531663,56.0968581 129.021663,57.5856184 C130.319163,56.6960316 132.849163,54.9477672 133.45133,54.5330565 C133.109997,53.4395028 131.223163,47.5024782 131.085663,47.0631393 Z M52.588332,38.9107428 C52.422332,38.7732222 51.2469987,37.7504123 49.9813321,36.6543792 L56.2494986,56.4598333 C56.4309986,56.9492548 56.5244986,57.4125605 56.5244986,57.8381804 C56.5244986,58.2340481 56.4463319,58.5971886 56.2858319,58.9272713 C56.2284986,59.047106 56.1463319,59.1710729 56.0413319,59.3003291 C57.0988319,58.5421473 58.1976652,57.7510729 58.5674985,57.4902465 C58.1759985,56.2818168 52.7404987,39.3882635 52.588332,38.9107428 Z M46.0681655,49.7138831 C45.4096655,49.6451227 44.2191656,49.5219822 42.9726656,49.3923955 C43.4871656,51.0199987 44.3988322,53.8857838 44.6451656,54.67504 C45.3098322,54.7438003 46.4996655,54.8714036 47.7488321,54.9995028 C47.2336655,53.3725606 46.3188322,50.5079326 46.0681655,49.7138831 Z M186.673329,56.0912383 C186.673329,56.0912383 186.078329,54.2590069 185.846662,53.5619821 C185.201662,53.4912383 184.009995,53.3694202 182.753329,53.2386764 C183.551662,55.6795027 189.943329,75.1059485 189.943329,75.1059485 L175.371662,73.590742 C175.371662,73.590742 179.391662,70.6927255 180.173329,70.1327255 C179.779996,68.9300809 174.341662,52.0322301 174.188329,51.5586764 C174.023329,51.411569 172.671662,50.2454533 171.318329,49.0647922 L173.023329,54.6725606 L165.930663,53.9289243 C165.930663,53.9289243 165.344996,52.092726 165.113163,51.3976847 C164.462663,51.3333871 163.272163,51.2044615 162.017996,51.0763624 C162.822663,53.5127259 169.213329,72.946775 169.213329,72.946775 L153.698663,71.3140478 C152.025496,69.5216512 149.170996,67.1399983 147.15533,65.5276017 C147.431663,65.5565273 147.713163,65.5844612 148.007163,65.6147091 C147.713163,64.7395025 146.95283,62.4464447 146.95283,62.4464447 L154.233329,63.2047918 L156.461496,70.1069404 C157.636829,69.2639652 159.014329,68.2733867 159.433329,67.9740479 C159.043663,66.7669405 153.614496,49.8666103 153.459163,49.395536 C153.190496,49.1595029 149.994663,46.3961972 148.42733,45.0325609 L150.649163,52.3378499 L143.55833,51.6021475 C143.55833,51.6021475 142.96633,49.7624781 142.748663,49.0647922 C142.092996,48.9965277 140.901163,48.8702467 139.64833,48.7396682 C140.21483,50.4467756 141.304663,53.728759 141.568163,54.5360317 C142.520663,54.6309077 146.606496,55.0576846 146.606496,55.0576846 L148.310163,60.2057836 C148.310163,60.2057836 144.645663,59.8262795 143.12683,59.6685935 C143.494663,60.7373539 144.05883,62.3998332 144.490496,63.6738827 C143.978496,63.6353703 142.887496,63.6738827 142.215163,64.4461141 C141.25633,64.181486 138.815663,63.5393373 138.228497,63.7249571 C138.12033,63.754048 138.040163,63.8355356 138.009663,63.9383455 L137.992997,64.0361967 C137.992997,64.2471058 138.200497,64.4833042 138.666497,65.0041306 C139.11483,65.5067752 139.752663,66.2295851 139.983163,66.8003289 C138.498663,66.5307421 137.016497,66.6715686 135.581497,66.8180149 C135.581497,66.8180149 135.499997,66.8307421 135.393163,66.8408248 C136.13283,66.3072711 136.790997,65.8357008 137.054663,65.6424777 C136.71733,64.6190066 135.087497,59.7115688 134.78333,58.7940481 C134.103163,58.727106 130.883163,58.3912382 129.23683,58.2188415 C130.045497,60.6659489 131.066663,63.747767 131.345497,64.596362 C131.513497,64.7395025 132.76633,65.8256182 134.059997,66.9474363 L133.923663,66.9537173 C133.266663,67.0099157 132.585497,67.0662793 132.024163,66.998676 C131.20533,66.4991719 127.456997,65.5995025 123.792497,66.2864446 L118.550497,49.8191723 C118.553164,49.8314037 117.645164,47.1538831 117.241664,45.9631393 C116.603664,45.8950402 115.453997,45.7775195 114.209997,45.6438005 C114.930664,47.7676021 120.050497,62.8821472 121.442164,66.9814859 C120.880664,67.2118991 120.368664,67.492395 119.886164,67.8047917 L113.350664,67.1236347 C113.350664,67.1236347 106.250997,45.8823129 105.881664,44.7763625 C105.225997,44.7080981 103.960497,44.5791724 102.659164,44.4403295 C103.498331,46.9039658 110.233831,66.7978496 110.233831,66.7978496 L103.700497,66.1147091 L103.914664,64.3639653 L101.514497,65.891238 L95.6884976,65.2851223 C95.6884976,65.2851223 96.2269976,64.8968579 96.9374976,64.3841306 L96.9146642,64.4004943 L96.9374976,64.3841306 L96.9419976,64.3841306 L96.9374976,64.3841306 C96.5968309,64.5338827 96.2091643,64.6494199 95.7838309,64.7395025 C95.9068309,64.1555356 95.9863309,63.5742133 95.9996643,63.0185108 L96.1053309,57.3778498 L93.0801643,62.1624778 C92.9929977,62.3051224 92.8859977,62.441486 92.7599977,62.5697505 L92.065331,62.1370232 L91.6541644,62.1125604 C90.1511644,62.0272712 88.6288311,62.0178497 87.1621645,62.0178497 L85.0294979,62.0019819 C84.4806646,61.0114034 83.9191646,60.0340481 83.2296646,59.1072712 L82.8374979,58.5838002 C82.9074979,58.3381804 82.9781646,58.1052878 83.0558313,57.8950399 L84.8466645,53.1755359 C85.8219979,56.0968581 86.6311645,58.5314035 86.7636645,58.9373539 C87.4073311,59.0029737 88.5924978,59.1318993 89.8479978,59.2606597 C89.0803311,56.9492548 84.5429979,43.2876022 84.2088312,42.276032 C83.5619979,42.2104122 82.3798313,42.0852882 81.1218313,41.9552056 C81.5853313,43.3342138 83.3736646,48.7446269 84.8244979,53.103635 L79.8746647,56.6391721 L79.8001647,56.6960316 C78.960498,56.6436349 78.091498,56.5876019 78.091498,56.5876019 L77.9068314,56.5793374 C76.1581648,51.3099161 72.7693315,41.1066105 72.6541649,40.7581808 C72.5164982,40.6345444 71.5941649,39.8213213 70.5386649,38.8918999 L72.1498315,44.1851229 L65.0654984,43.4452882 C65.0654984,43.4452882 64.4728317,41.6092552 64.2449984,40.9173543 C63.5929984,40.8452882 62.4044984,40.7241312 61.1439985,40.5942139 C61.6099985,42.0133874 63.9908317,49.2385112 65.8874984,55.0021474 C65.4888317,55.3588416 65.131665,55.7813209 64.8534984,56.3102465 L64.3913317,56.4644614 L62.7526651,57.0028085 L62.4719984,57.6310729 L61.6099985,61.7583456 L53.762332,60.9419819 C53.762332,60.9419819 54.2829986,60.5638001 54.9864986,60.056858 L54.7891653,60.1325605 L54.7394986,60.1596679 L54.7706653,60.1401638 C53.6031653,60.6925605 51.6416654,60.8206596 48.7838321,60.5214861 L32.2431659,58.8009903 C32.2431659,58.8009903 36.0653324,55.9042961 36.8001657,55.343635 C36.4969991,54.3586763 34.9558325,49.4624781 34.6571658,48.5242963 C34.2331658,48.4808252 32.7836658,48.3317343 31.3339992,48.1776847 L30.4466659,48.0859492 C29.0319993,47.9393376 27.8089993,47.815536 27.8089993,47.815536 L27.8089993,47.8132219 L22.9329994,47.302974 C22.9329994,47.302974 19.5124995,36.6884288 19.1693329,35.6251231 C18.5194995,35.5583462 17.3454996,35.4358669 16.0830663,35.3019826 C16.8533329,37.6178503 21.3906661,51.2788417 21.7316661,52.2879326 C22.3793328,52.3547094 23.5651661,52.4811557 24.8224994,52.6105772 C24.5799994,51.8839656 23.8861661,49.7309078 23.8861661,49.7309078 L32.1883325,50.8009905 L33.3393325,54.0821474 L33.3508325,54.1181805 C33.4648325,54.5664449 33.5183325,54.9611557 33.5183325,55.3102466 C33.5183325,56.9031391 32.4678325,57.5193374 31.9158325,57.733387 C30.6011659,58.3009903 28.7256659,58.4391721 26.0238327,58.1525605 L9.09029977,56.3930564 C9.09029977,56.3930564 13.094733,53.5038003 13.868233,52.9419821 C13.466533,51.7178499 7.78716647,34.6100818 7.78716647,34.6100818 L7.77701647,34.5809909 C7.66178314,34.1314041 7.60449981,33.7386768 7.60449981,33.3915694 C7.60449981,31.7664455 8.70259978,31.1576852 9.24824977,30.9557017 L9.13554977,30.9998339 C10.3050831,30.3912389 12.2467497,30.253553 15.255983,30.5618174 L22.1354994,31.2814868 L22.1698328,31.2890901 C25.4318327,31.8598339 26.5593327,33.5252884 26.928666,34.8171892 C26.9184993,34.7943793 29.7813326,43.4616518 30.6323326,46.0591724 C31.7783325,45.3494204 32.9254992,44.6409906 33.3171658,44.3985113 C32.9414992,43.2495857 30.9793326,37.2515693 30.8418326,36.8198338 C30.4841659,36.5128916 24.9569994,31.7271066 24.9569994,31.7271066 L37.7098324,33.058181 C37.7098324,33.058181 40.8503323,42.738346 41.1851656,43.7914039 C41.834499,43.8568584 43.0198323,43.9806601 44.2766656,44.1147096 C43.6551656,42.2128915 42.0859989,37.4132222 41.9961656,37.1456189 C41.7956656,36.8968586 38.6176657,33.0140488 38.6176657,33.0140488 L87.1404978,37.9297511 L87.1729978,37.9360321 L87.2021645,37.9398338 C90.4604977,38.5094205 91.585331,40.1710734 91.9616644,41.4679328 L98.3648309,60.7109076 L98.3743309,60.7373539 L98.3858309,60.7684282 C98.4978309,61.219172 98.5519975,61.616858 98.5519975,61.965453 C98.5519975,62.7104117 98.3194975,63.2363621 98.0133309,63.608924 C99.0358309,62.8770232 100.077997,62.1257836 100.438164,61.8680976 C100.029664,60.6451225 94.4221643,43.745784 94.4221643,43.745784 L94.4151643,43.7142138 C94.2961643,43.2723956 94.2451643,42.8809907 94.2451643,42.5375196 C94.2451643,40.919999 95.3363309,40.3175197 95.8781643,40.1193378 L95.7641643,40.1661147 C96.9241642,39.561156 98.8459975,39.4236354 101.818664,39.7315693 L191.321662,48.8533872 L193.758328,56.8330564 L186.673329,56.0912383 Z" id="path36" fill="#D01C2E"></path>
                        <polyline id="path38" fill="#FFFFFF" points="31.8846659 57.9097727 32.1339992 57.7777727 32.2673325 57.727106 31.8846659 57.9097727"></polyline>
                        <polyline id="path40" fill="#D01C2E" points="106.714331 43.9087592 107.092997 43.9394259 106.714331 43.9087592"></polyline>
                        <path d="M43.9258322,55.5576846 L49.1039988,56.0912383 L46.7911655,48.8368583 L41.6218323,48.2976847 L43.9258322,55.5576846 Z M35.3823324,47.6438005 L30.6724992,47.1590071 L34.4584991,44.8077675 L31.6674992,36.2844619 L27.865666,32.9823132 L36.9929991,33.9332223 L40.4656657,44.6664452 L45.6371655,45.2094204 L42.8543323,36.6872718 L40.830499,34.2123958 L48.4731655,35.0633049 L55.3359986,56.745949 C55.8166653,58.0175192 55.5709986,58.9102465 54.4561653,59.2480977 C53.478332,59.7512382 51.623832,59.8680977 48.8818321,59.580825 L34.7348325,58.1052878 L37.9191657,55.6953705 L35.3823324,47.6438005 Z" id="path42" fill="#FFFFFF"></path>
                        <polyline id="path44" fill="#FFFFFF" points="154.284163 48.8583459 150.472163 45.5489245 169.863329 47.5694203 171.684996 53.5785111 166.652496 53.0485937 165.835163 50.5175194 160.650496 49.9770235 167.839996 71.8550395 157.210163 70.7388412 160.558829 68.3371884 154.284163 48.8583459"></polyline>
                        <polyline id="path46" fill="#FFFFFF" points="187.386662 55.21223 186.578329 52.683635 181.381662 52.1426433 188.576662 74.013056 177.948329 72.9069403 181.293329 70.495866 175.023329 51.0199987 171.201662 47.7120649 190.591662 49.7309078 192.426662 55.7413209 187.386662 55.21223"></polyline>
                        <path d="M142.215163,64.4461141 C141.25633,64.181486 138.815663,63.5393373 138.228497,63.7249571 C138.12033,63.754048 138.040163,63.8355356 138.009663,63.9383455 L137.992997,64.0361967 C137.992997,64.2471058 138.200497,64.4833042 138.666497,65.0041306 C139.11483,65.5067752 139.752663,66.2295851 139.983163,66.8003289 C139.06883,66.6355355 138.153497,66.6254529 137.24833,66.6766925 L138.18533,66.0074364 L135.493663,57.9171886 L130.912497,57.4373539 L134.575663,54.9143788 L131.91583,46.5238005 L128.101163,43.2180154 L147.48633,45.237189 L149.321163,51.2447921 L144.286663,50.7233045 L143.466663,48.1839657 L138.28083,47.6438005 L140.85283,55.4143788 L145.890996,55.9371887 L146.941496,59.1104117 L141.752996,58.5680977 L143.504996,63.7408249 C143.060663,63.8317339 142.57933,64.0332215 142.215163,64.4461141" id="path48" fill="#FFFFFF"></path>
                        <path d="M149.37983,66.7082628 L148.32033,63.5393373 L153.515163,64.0829736 L155.609829,70.5753701 L152.662163,70.268428 C151.424496,69.075866 149.885163,67.7588413 148.504996,66.6218165 L149.37983,66.7082628" id="path50" fill="#FFFFFF"></path>
                        <path d="M26.011166,35.0785115 L29.9619993,47.0833046 L23.6549994,46.422974 L19.8894995,34.7477677 L14.7143163,34.2072719 L21.0136661,53.1672714 L26.1849993,53.7090896 L25.2568327,50.8679326 L31.4778325,51.6641309 L32.4238325,54.3593375 C32.7498325,55.6152052 32.5093325,56.499668 31.5414992,56.8628085 C30.4108326,57.3494201 28.7071659,57.4828085 26.120166,57.2112382 L11.6667997,55.7029738 L14.999483,53.3006598 L8.70259978,34.3423132 C8.37161646,33.0872719 8.61926645,32.2008256 9.58378309,31.843305 C10.5570997,31.330743 12.416733,31.222148 15.1510496,31.5061149 L22.0011661,32.2234703 C24.1146661,32.5922306 25.5573327,33.5064454 26.011166,35.0785115" id="path52" fill="#FFFFFF"></path>
                        <path d="M106.714331,43.9087592 L106.814331,43.9317592 L106.714331,43.9087592 Z M106.714331,42.8165279 L106.814331,42.8395279 L106.714331,42.8165279 Z M132.024163,66.998676 C131.27283,66.5414859 128.08333,65.7497504 124.743497,66.1406595 L119.46233,49.5325607 L117.94433,45.0818171 L112.832331,44.5438005 L120.400664,66.9071058 L114.063664,66.2434694 L106.598497,43.8986766 L101.281164,43.3444617 L108.849664,65.6966926 L103.812664,65.1753703 L103.914664,64.3639653 L102.800497,65.0717339 L98.2718309,64.5981802 L101.561497,62.2280976 L95.3394976,43.4781807 C95.0181643,42.2406601 95.2574976,41.3566932 96.2091643,41.0057841 C97.1761642,40.5018172 99.0148309,40.3947097 101.719497,40.6761973 L127.325663,43.3444617 L124.213997,45.8330567 L127.250663,55.2661143 L130.526663,65.1386761 L132.694997,67.0251223 C132.459497,67.0277669 132.23283,67.0251223 132.024163,66.998676 Z" id="path54" fill="#FFFFFF"></path>
                        <path d="M96.1053309,57.3778498 L93.0801643,62.1624778 C92.9929977,62.3051224 92.8859977,62.441486 92.7599977,62.5697505 L92.065331,62.1370232 L91.6541644,62.1125604 C90.1511644,62.0272712 88.6288311,62.0178497 87.1621645,62.0178497 L85.0294979,62.0019819 C84.4806646,61.0114034 83.9191646,60.0340481 83.2296646,59.1072712 L82.8374979,58.5838002 C82.9074979,58.3381804 82.9781646,58.1052878 83.0558313,57.8950399 L84.3133312,54.59223 L86.0448312,59.8155357 L91.2193311,60.3598332 L84.9249979,41.3985114 L79.7518313,40.8581808 L84.0133312,53.6838003 L79.8746647,56.6391721 L79.8001647,56.6960316 C79.5066647,56.6727259 79.202998,56.6570234 78.937498,56.6391721 L73.4836648,40.2166932 L69.9268316,37.0862801 L80.6711646,38.2011561 L80.6711646,38.20628 L87.0379978,38.8766932 C89.1458311,39.2442965 90.5871644,40.1583461 91.0416644,41.7292552 L97.4581642,61.0057836 C97.7848309,62.2621472 97.5384976,63.1504116 96.5789976,63.5064447 C96.3886643,63.5861141 96.1793309,63.6580149 95.9538309,63.7193372 C95.9786643,63.4824778 95.9971643,63.247767 95.9996643,63.0185108 L96.1053309,57.3778498" id="path56" fill="#FFFFFF"></path>
                        <path d="M64.3913317,56.4644614 L62.7526651,57.0028085 L62.4719984,57.6310729 L61.8059985,60.8251224 L56.3424986,60.2575192 L59.6866652,57.8571886 L53.4134987,38.3728916 L49.5974988,35.0659495 L68.9889983,37.0862801 L70.8218316,43.0942138 L65.7848317,42.5652882 L64.9699984,40.0371891 L59.7778318,39.4953709 L65.1539984,55.8241308 C65.0444984,55.9761969 64.9399984,56.1398333 64.8534984,56.3102465 L64.3913317,56.4644614" id="path58" fill="#FFFFFF"></path>
                        <polyline id="path60" fill="#D01C2E" points="106.714331 42.8165279 107.092997 42.8471945 106.714331 42.8165279"></polyline>
                        <path d="M113.168497,87.849254 L113.193831,87.8545433 L113.215664,87.8550391 C113.425664,87.8809895 114.74483,88.0849565 115.430997,88.1928904 C115.467997,88.2034689 118.64733,89.2080969 118.884164,89.2806589 C119.26733,90.3312374 121.70183,93.5595018 123.216997,95.1732208 C124.01783,100.297353 122.351164,104.266113 122.351164,104.266113 C118.884164,102.326444 114.850497,101.237353 114.850497,101.237353 C122.562497,105.141154 121.301997,107.591568 121.301997,107.591568 C120.01733,111.427601 103.456164,108.29289 103.456164,108.29289 C108.393831,109.885121 116.21933,110.703964 116.21933,110.703964 C111.473831,114.463964 102.065831,114.261815 102.065831,114.261815 C106.174497,116.700824 102.181664,116.914212 102.181664,116.914212 C97.3188309,116.829584 93.3029977,114.523138 93.3029977,114.523138 C94.5334976,114.679171 97.0749976,114.606609 97.0749976,114.606609 C83.8064979,112.929584 77.3868314,107.963468 77.3868314,107.963468 L80.7048313,106.888097 C81.742498,108.862477 84.1203312,108.943303 84.1203312,108.943303 C82.5058313,107.186774 84.0871646,106.605948 84.0871646,106.605948 C86.3076645,105.655204 87.7446645,106.928592 93.0464977,107.42727 C98.3564975,107.919832 99.7003308,106.898179 99.7003308,106.898179 C97.1946642,107.289088 96.1194976,106.107766 95.7838309,105.616526 C95.4489976,105.13289 94.965831,104.364625 93.385831,103.875204 C91.8081644,103.387931 90.1784977,103.925121 90.1784977,103.925121 L91.6979977,102.433882 L91.4599977,102.570907 C95.0639976,100.087601 98.0273309,96.1575183 95.7024976,90.3066093 C95.4223309,88.822973 94.565331,87.4983449 92.9929977,86.5644606 C86.4173312,82.6628079 79.9536647,88.4971879 79.9536647,88.4971879 C82.4433313,81.3785104 89.2718311,81.4953699 89.2718311,81.4953699 L88.4601645,83.085783 C106.235664,82.6968574 111.797331,95.2376836 111.797331,95.2376836 C112.111664,92.1981795 108.596164,84.0833037 108.596164,84.0833037 C110.017331,84.7259483 111.420331,84.4961962 111.420331,84.4961962 C111.495497,84.6262789 111.566831,84.754378 111.646997,84.885783 C112.054331,86.1737169 112.640164,87.696692 113.168497,87.849254" id="path62" fill="#AEA057"></path>
                        <path d="M109.435497,84.3737169 C110.517664,84.6421466 111.420331,84.4961962 111.420331,84.4961962 C111.495497,84.6262789 111.566831,84.754378 111.646997,84.885783 C111.927164,85.7765268 112.296497,86.7811549 112.669331,87.3633036 C111.692997,86.3302458 110.614497,85.3226425 109.435497,84.3737169" id="path64" fill="#856C40"></path>
                        <path d="M113.193831,87.8545433 L113.215664,87.8550391 C113.425664,87.8809895 114.74483,88.0849565 115.430997,88.1928904 C115.467997,88.2034689 118.64733,89.2080969 118.884164,89.2806589 C119.26733,90.3312374 121.70183,93.5595018 123.216997,95.1732208 C124.01783,100.297353 122.351164,104.266113 122.351164,104.266113 C119.44183,102.640989 116.146664,101.610576 115.148497,101.322642 C114.50283,101.070741 113.835664,100.863634 113.193831,100.738014 C113.193831,100.738014 118.23483,100.901485 121.561664,102.512064 C121.561664,102.512064 119.37433,94.6674356 113.085831,87.8057829 L113.168497,87.849254 L113.193831,87.8545433" id="path66" fill="#856C40"></path>
                        <path d="M112.669331,87.3633036 C112.839198,87.531589 113.004264,87.6957653 113.169331,87.8633036 C113.004264,87.7813088 112.837598,87.6057392 112.669331,87.3633036" id="path68" fill="#231F20"></path>
                        <path d="M73.8229982,69.5487586 L73.7968201,69.5805343 L73.7229982,69.6487586 L73.8229982,69.5487586 Z M100.149331,71.815866 L100.128594,71.819866 L100.049331,71.899866 L100.149331,71.815866 Z M86.5261645,70.642147 L86.5209264,70.681147 L86.4261645,70.742147 L86.5261645,70.642147 Z" id="path70" fill="#856C40"></path>
                        <polyline id="path72" fill="#231F20" points="140.899496 66.1798331 140.637542 66.3678331 140.399496 66.4291664 140.899496 66.1798331"></polyline>
                        <path d="M76.4259981,102.917518 L72.3554982,102.851898 L68.7948316,104.033055 C68.7948316,104.033055 70.0451649,102.2357 70.8123316,101.58727 C70.8123316,101.58727 70.5296649,102.349254 70.7141649,102.819006 L72.4038315,101.945287 L76.4259981,102.917518" id="path74" fill="#FFFFFF"></path>
                        <path d="M73.9934982,98.2580141 C73.9934982,98.2580141 74.8701648,95.4441298 78.1208314,94.2552043 C78.1208314,94.2552043 76.9824981,95.216196 77.3529981,96.2289232 C77.3529981,96.2289232 78.0648314,95.4390059 79.361498,95.0203282 C79.361498,95.0203282 79.3583313,95.7849563 79.5748313,96.1852869 C79.5748313,96.1852869 80.3731647,95.4226422 80.7188313,95.2943778 C80.7188313,95.2943778 80.830998,95.9958654 81.0378313,96.2130554 C81.0378313,96.2130554 82.7738313,94.4112373 84.8244979,94.1528902 C84.8244979,94.1528902 83.8859979,95.193386 83.7216646,96.023634 L84.7601645,95.4112373 L87.7738311,97.6305761 C87.7738311,97.6305761 83.3456646,95.1284274 73.9934982,98.2580141" id="path76" fill="#FFFFFF"></path>
                        <path d="M89.2336644,94.7690885 C89.2336644,94.7690885 85.7181645,94.5095844 83.7638312,91.1672704 L84.5271646,90.539006 L86.1809978,92.0403283 L88.5328311,88.9302457 L91.0893311,88.3444606 C91.0893311,88.3444606 94.3921643,91.9872704 92.1614977,94.0532208 L88.4034978,92.603634 C88.4034978,92.603634 88.8369978,94.1990059 89.2336644,94.7690885" id="path78" fill="#856C40"></path>
                        <path d="M88.0623311,88.0540474 L86.0448312,90.6166919 L84.9791645,88.835535 L83.8986646,89.7517333 L83.3633312,88.8973531 L82.1341646,90.3204936 L81.8366646,89.5213201 C81.8366646,89.5213201 79.9708313,90.9646258 79.3901647,92.2254522 C79.3901647,92.2254522 78.7446647,89.3905763 82.0518313,88.3368573 C85.3636645,87.2867747 87.2799978,87.9138821 88.0623311,88.0540474" id="path80" fill="#FFFFFF"></path>
                        <path d="M68.430665,100.07008 C68.430665,100.07008 69.5294983,98.5163612 70.7964982,98.0016504 C70.7964982,98.0016504 57.2083319,92.5714026 55.6039986,85.481816 C55.6039986,85.481816 51.1776654,81.4795021 49.1084988,77.8145435 C49.1084988,77.8145435 45.7986655,90.0856176 68.430665,100.07008" id="path82" fill="#231F20"></path>
                        <path d="M69.1056649,99.2593364 C68.6929983,99.696857 68.430665,100.07008 68.430665,100.07008 C45.7986655,90.0856176 49.1084988,77.8145435 49.1084988,77.8145435 C49.7458321,78.9484278 50.6129987,80.1178492 51.5079987,81.188593 C52.108332,85.3611549 55.3169986,92.7071051 69.1056649,99.2593364" id="path84" fill="#856C40"></path>
                        <path d="M55.6039986,85.481816 C57.2083319,92.5714026 70.7964982,98.0016504 70.7964982,98.0016504 C70.1476649,98.2656174 69.5423316,98.799667 69.1056649,99.2593364 C55.3169986,92.7071051 52.108332,85.3611549 51.5079987,81.188593 C53.496832,83.5768574 55.6039986,85.481816 55.6039986,85.481816" id="path86" fill="#AEA057"></path>
                        <path d="M94.0139976,106.419006 L92.4671644,106.300989 C92.4671644,106.300989 92.4881644,105.299006 91.3446644,104.960493 C91.3446644,104.960493 93.274331,104.697353 94.0139976,106.419006" id="path88" fill="#FFFFFF"></path>
                        <path d="M91.4599977,102.570907 C83.1343313,107.319336 70.9396649,104.500328 70.9396649,104.500328 L72.6629982,103.334212 C77.6311647,104.254708 81.2543313,103.306444 81.2543313,103.306444 C81.5266646,101.059997 79.1456647,100.027766 79.1456647,100.027766 C79.020998,100.419171 76.4769981,102.628427 75.6754981,101.059997 C74.8758315,99.4897496 78.718498,98.3509066 78.718498,98.3509066 C85.7379979,96.7712373 88.9159978,99.2902455 88.9159978,99.2902455 C88.6823311,100.788593 84.9843312,102.205948 84.9843312,102.205948 C91.6044977,101.465287 96.5968309,95.0532208 95.7024976,90.3066093 C98.0273309,96.1575183 95.0639976,100.087601 91.4599977,102.570907" id="path90" fill="#FFFFFF"></path>
                        <path d="M97.3404976,91.16413 C97.3404976,91.16413 96.2168309,89.0507416 94.113331,87.4074358 C93.7989977,87.0999978 93.4176643,86.8196673 92.9929977,86.5644606 C86.4173312,82.6628079 79.9536647,88.4971879 79.9536647,88.4971879 C82.4433313,81.3785104 89.2718311,81.4953699 89.2718311,81.4953699 L88.4601645,83.085783 C97.8643309,82.8804938 103.846997,86.2918987 107.391831,89.5509069 C104.836331,87.72694 99.5018308,84.5776838 92.7891643,84.2386756 C92.7891643,84.2386756 97.3404976,85.8485929 97.3404976,91.16413" id="path92" fill="#FFFFFF"></path>
                        <path d="M110.944164,109.973055 C113.876497,110.45603 116.21933,110.703964 116.21933,110.703964 C112.201997,113.883634 104.851664,114.232724 102.681997,114.261815 C100.820831,114.163964 99.3719975,114.016857 99.3719975,114.016857 C107.023831,113.448592 110.276831,110.639667 110.944164,109.973055" id="path94" fill="#856C40"></path>
                        <path d="M120.269497,107.736692 C121.31733,106.822477 119.978997,104.885452 119.26733,104.005948 C121.977997,106.260659 121.301997,107.591568 121.301997,107.591568 C120.203164,110.862642 107.993997,109.063138 104.431497,108.462146 C103.163331,108.145782 102.381497,107.903468 102.381497,107.903468 C118.317664,110.075204 120.269497,107.736692 120.269497,107.736692" id="path96" fill="#856C40"></path>
                        <path d="M101.079997,114.740989 C99.5246642,114.774543 98.0223309,114.725286 96.5694976,114.61851 C96.8789976,114.61289 97.0749976,114.606609 97.0749976,114.606609 C83.8064979,112.929584 77.3868314,107.963468 77.3868314,107.963468 L80.7048313,106.888097 C80.982998,107.419832 81.355498,107.809254 81.7571646,108.10165 C86.1694978,112.689088 101.079997,114.740989 101.079997,114.740989" id="path98" fill="#856C40"></path>
                        <path d="M108.512331,107.42727 C108.512331,107.42727 126.726163,109.128262 113.932497,103.060163 C113.932497,103.060163 120.35333,107.744295 108.512331,107.42727" id="path100" fill="#231F20"></path>
                        <path d="M84.7906645,100.034708 L85.1396645,99.5396669 C85.1396645,99.5396669 92.041831,101.075204 100.202164,97.1046257 C100.202164,97.1046257 94.161831,101.12694 84.7906645,100.034708" id="path102" fill="#231F20"></path>
                        <path d="M84.0038312,101.130741 L84.4614979,100.556857 C84.4614979,100.556857 92.5904977,102.113716 101.956331,97.1727248 C101.956331,97.1727248 95.0811643,102.098014 84.0038312,101.130741" id="path104" fill="#231F20"></path>
                        <path d="M97.4746642,76.8100807 C97.6956642,76.4247915 97.8579976,76.0485931 97.9834976,75.7550394 C98.0796642,75.5195022 98.1871642,75.2790064 98.2718309,75.1261138 L98.2959975,75.0806593 L98.8976642,74.1557006 C99.0014975,74.1090891 99.0988309,74.0591717 99.1968309,74.0092543 C99.6379975,73.7795023 100.049331,73.5054527 100.438164,73.1966924 C102.750831,76.6242956 106.281497,82.2492541 107.897331,86.8233036 C107.897331,86.8233036 100.631164,82.3887583 92.945831,80.5596674 C92.945831,80.5596674 93.337331,79.9952046 94.252831,79.719998 C94.252831,79.719998 93.5409977,79.3550393 92.1289977,79.4213203 C92.975831,79.1013203 93.7899977,78.8315683 94.544331,78.6036344 C96.0754976,78.6446261 96.9533309,77.7122295 97.4746642,76.8100807" id="path106" fill="#FFFFFF"></path>
                        <path d="M140.04683,88.5887581 C136.47283,91.2044605 132.495163,78.5785104 131.479163,76.09537 C134.08683,77.3183452 143.83333,85.7545433 140.04683,88.5887581" id="path108" fill="#FFFFFF"></path>
                        <path d="M124.67233,80.1776839 C124.935997,80.3892542 127.142497,82.4619814 127.376663,82.7228078 L130.06583,83.1261136 C130.08483,81.7264442 130.791497,80.3442955 131.616663,79.1927253 C131.616663,79.1927253 130.195663,75.5157006 129.998497,74.6899155 C129.998497,74.6899155 133.191663,75.6603287 134.461163,76.7758658 C134.825163,77.1049568 136.001663,76.6148741 136.001663,76.6148741 C135.83233,76.0074361 135.390497,74.5168576 136.22583,72.9757007 C135.74183,71.7995023 134.375663,70.0247916 134.375663,70.0247916 C134.375663,70.0247916 136.73383,70.5803288 138.068163,70.9983453 C138.28083,70.4300809 139.58583,70.430742 140.092663,70.3044611 C140.092663,70.3044611 139.613997,69.1016512 139.77433,68.6471057 C136.737663,68.3239652 133.89333,70.1560313 131.187497,68.3239652 C127.759997,66.9537173 123.72383,67.7557008 120.49733,69.2943784 C115.978497,74.7436345 116.86483,77.7659485 116.86483,77.7659485 C116.86483,77.7659485 115.276997,77.8971881 114.628997,78.2084278 C115.083497,79.3966922 115.742997,80.3393368 116.43183,81.2757004 C116.69933,81.7985104 117.54733,81.9152046 117.514164,82.622312 C116.977997,83.7530558 116.458497,84.7707417 115.254164,85.2879318 C114.462164,85.3176838 113.308664,84.9697499 112.595664,84.5087582 L113.77833,86.5178491 L117.318164,86.9137168 L119.37183,87.1775185 C119.54633,87.1523945 120.539497,88.9454523 124.62283,93.797353 C125.14983,94.4074357 122.530664,87.8026424 122.90883,88.0849565 C123.09483,86.5563615 124.803497,83.4406591 124.803497,83.4406591 L124.53733,80.2876013 L124.67233,80.1776839" id="path110" fill="#856C40"></path>
                        <path d="M113.969497,84.1123946 C110.703497,81.7029732 111.697997,76.4085931 112.292497,76.1231386 C113.020831,78.3006592 114.669664,81.0388409 116.27533,82.5257831 C116.295664,83.1115682 115.76333,83.6413202 115.308997,84.0138822 C114.863164,84.2702458 114.42783,84.1717334 113.969497,84.1123946" id="path112" fill="#FFFFFF"></path>
                        <path d="M139.894163,64.9208248 C142.468496,65.6120645 149.582163,69.9742131 150.228996,72.8128907 C150.262163,73.1646263 150.30533,74.1626428 149.582163,74.7221469 C147.083996,77.1813204 141.629496,66.5408248 139.894163,64.9208248" id="path114" fill="#FFFFFF"></path>
                        <path d="M121.144164,81.7213203 C120.410664,81.8981798 119.18333,76.9507419 119.18333,76.9507419 L121.882497,71.0361966 C121.882497,71.0361966 126.950163,69.389585 130.883163,70.6157007 C131.959163,71.2728908 134.039663,72.2390065 127.63133,79.4580145 C127.456997,79.6252873 121.38083,81.9953699 121.144164,81.7213203" id="path116" fill="#231F20"></path>
                        <path d="M129.00633,99.2593364 C127.43533,95.7755348 125.63483,92.6085927 124.132497,89.2971879 C124.31583,87.6783449 124.77933,86.800659 125.17783,85.3952045 C125.642497,86.8752044 127.147497,91.8799977 127.810997,93.5228076 C128.323997,94.7646257 129.884997,97.1001629 133.141997,95.952229 C134.311997,95.5160307 134.924497,94.3037993 134.440663,92.5284274 C133.768497,90.4480969 129.878663,86.0570226 128.461497,84.1054524 C129.31583,84.1507417 129.923163,84.8517334 130.547163,85.3492541 C132.646663,87.3424772 136.920997,94.048758 136.920997,94.048758 C136.875163,101.883964 130.735497,99.8679314 129.00633,99.2593364" id="path118" fill="#AEA057"></path>
                        <path d="M141.861163,93.3662787 C139.65733,94.2520638 137.414997,93.867601 137.414997,93.867601 C136.875163,93.2406588 133.02733,86.3523945 131.392497,83.9930558 C131.336497,82.6185103 131.728663,81.7846261 132.414997,80.5016509 C133.01333,82.7277665 135.465663,89.455535 137.835163,90.3123944 C139.84183,90.9563614 142.208663,89.202973 142.166663,86.9067747 C142.054663,84.4343781 137.091497,79.2357005 135.279663,77.6294195 C135.279663,77.6294195 138.47933,79.7647914 140.04683,81.556031 C141.715996,83.5004938 143.955663,87.0071053 143.955663,87.0071053 C144.354163,91.7928903 142.41383,93.2279316 141.861163,93.3662787" id="path120" fill="#AEA057"></path>
                        <path d="M144.382163,86.8208243 C143.307663,84.8757004 138.46033,78.2135518 137.164163,77.1768576 C136.90833,76.2259485 136.651163,75.2158659 136.992163,74.1677667 C138.34183,76.3099154 142.67483,85.7115681 146.369663,83.8213202 C152.196163,80.0558658 141.687996,72.5704114 139.137663,71.8361966 C139.481497,71.5355354 141.21183,71.9333866 141.21183,71.9333866 C141.21183,71.9333866 148.282163,77.6667749 149.368163,79.2836344 C151.359663,85.6441301 146.095996,86.5185102 144.382163,86.8208243" id="path122" fill="#AEA057"></path>
                        <path d="M149.343996,78.7381798 C146.556996,75.741651 144.052496,73.2459486 141.19783,70.2375189 C140.743163,69.7829735 141.387663,68.9780148 141.15583,68.2013206 C141.86633,68.9267751 147.77033,78.9560311 150.769996,75.5517336 C153.279663,73.15818 147.761496,68.6793371 146.81033,67.5076016 C148.595496,68.60099 152.451996,72.1183453 153.279663,73.15818 C155.716663,78.5626427 150.24933,79.3203286 149.343996,78.7381798" id="path124" fill="#AEA057"></path>
                        <path d="M125.405664,81.9279318 C127.03033,84.0676012 136.951497,93.1049564 132.41883,94.9938819 C128.31383,97.0237992 125.566164,84.5485929 125.405664,81.9279318" id="path126" fill="#FFFFFF"></path>
                        <path d="M136.27033,71.3039652 C139.193663,72.2300808 150.791663,79.226279 145.58283,82.5421467 C142.94333,84.4917334 138.415663,73.199337 136.27033,71.3039652" id="path128" fill="#FFFFFF"></path>
                        <path d="M65.1803317,77.3145435 C65.0044058,77.3798769 64.8592606,77.4265435 64.7463978,77.4412102 L64.6803317,77.3798769 C64.6803317,77.3798769 64.8545059,77.3798769 65.1803317,77.3145435" id="path130" fill="#AEA057"></path>
                        <polyline id="path132" fill="#AEA057" points="63.1108318 68.4451223 63.1108318 68.5824556 62.9321651 68.5464556 63.1108318 68.4451223"></polyline>
                        <path d="M90.9411644,75.5271055 C90.9933311,75.3211551 95.180331,67.4393372 95.180331,67.4393372 L97.3811642,67.5965272 C94.3921643,68.1685933 93.402331,72.0520643 93.402331,72.0520643 C92.565831,74.3343783 96.9584976,74.2839651 96.9584976,74.2839651 C95.9684976,76.8770229 95.1294976,76.9766923 94.187331,77.1358658 C93.2449977,77.2897501 89.3699978,78.9484278 89.3699978,78.9484278 L84.8148312,77.0335518 C83.5071646,77.0335518 74.7556648,76.2001634 74.7556648,76.2001634 C71.7729982,76.9885931 65.9179984,77.2778493 64.6803317,77.330246 L64.7243317,77.330246 C70.0546649,78.6667749 75.6289981,77.5342129 75.6289981,77.5342129 C80.8678313,78.4074361 85.4903312,80.9991715 85.4903312,80.9991715 C75.0459981,83.8661136 76.0931648,92.4066093 76.0931648,92.4066093 C75.7296648,92.5904109 75.2579981,93.056196 75.2579981,93.056196 C42.2514989,85.048097 49.9909988,65.3247918 49.9909988,65.3247918 L62.9321651,68.4576842 L62.9544984,68.4451223 C62.7788318,71.9763618 64.7789984,73.6127254 64.7789984,73.6127254 C63.6464984,71.5476015 64.4988317,66.8155355 64.4988317,66.8155355 C64.2869984,66.246114 62.8183318,63.1327257 62.8183318,63.1327257 L63.8699984,58.4702465 L64.9198317,58.2132217 C64.4448317,60.3347092 65.017165,63.4976844 67.6418316,62.2532216 C70.2571649,61.0133869 70.0998316,56.8085936 70.0998316,56.8085936 L70.9956649,56.4472713 L72.1389982,59.9229737 L69.0023316,63.1839654 C68.8413316,65.3641306 69.4671649,66.9203289 69.4671649,66.9203289 C69.4199983,66.0882628 69.9408316,63.1327257 69.9408316,63.1327257 L76.4896648,58.2132217 L78.585498,58.2132217 C75.9658314,59.4537175 71.7768315,64.8469405 76.1746648,66.0882628 C80.574998,67.3370231 81.933498,60.1280977 81.933498,60.1280977 C82.6669979,61.165453 83.9203312,63.4976844 83.9203312,63.4976844 L81.0938313,68.9943784 L72.6146649,70.3940478 C75.2846648,70.9654528 81.826498,70.0803288 81.826498,70.0803288 L85.1338312,63.5999984 L91.8284977,63.7571885 C86.7998312,64.2755356 85.5979979,67.2859487 86.4383312,69.9786759 C87.2748312,72.6752048 91.776331,70.1352049 91.776331,70.1352049 L94.3469976,66.5591719 C93.7689977,68.8391718 89.6824978,74.2302461 89.6824978,74.2302461 C88.1654978,74.8528907 78.8981647,75.7335518 78.8981647,75.7335518 C84.8148312,76.8244609 90.8901644,75.7335518 90.9411644,75.5271055" id="path134" fill="#856C40"></path>
                        <path d="M69.7574983,54.5565276 C69.7574983,54.5565276 67.929665,57.4214862 68.9604983,58.7940481 C68.9604983,58.7940481 68.2899983,60.6900811 67.3089983,61.2209902 C66.329165,61.7489241 65.2169984,61.2209902 65.5264984,59.2347093 C65.8383317,57.2517341 67.0829983,55.3095854 69.7574983,54.5565276" id="path136" fill="#FFFFFF"></path>
                        <path d="M81.562998,57.2517341 C81.562998,57.2517341 80.6768313,63.9983455 77.9099981,64.8337174 C75.1509981,65.6765273 75.1973315,62.6737174 76.9768314,60.8667753 C78.755498,59.0560316 80.985498,57.6872713 81.562998,57.2517341" id="path138" fill="#FFFFFF"></path>
                        <path d="M94.4399976,63.0733869 C94.4399976,63.0733869 93.2819977,65.276362 89.0051644,65.4082628 C89.0051644,65.4082628 87.3143312,66.378676 87.3996645,68.895866 C87.3996645,68.895866 87.4868311,71.2766924 91.0951644,69.2469404 C91.0951644,69.2469404 94.3921643,67.1742132 94.4399976,63.0733869" id="path140" fill="#FFFFFF"></path>
                        <path d="M101.921997,67.4393372 C101.921997,67.4393372 99.6063308,69.3795024 97.0239976,68.4975189 C97.0239976,68.4975189 94.2609976,70.3512379 94.4399976,72.9074362 C94.4399976,72.9074362 100.764164,74.6292543 101.921997,67.4393372" id="path142" fill="#FFFFFF"></path>
                        <path d="M93.845331,73.5723949 C94.8691643,74.3047915 96.9584976,74.2839651 96.9584976,74.2839651 C95.9684976,76.8770229 95.1294976,76.9766923 94.187331,77.1358658 C93.2449977,77.2897501 89.3699978,78.9484278 89.3699978,78.9484278 L84.8148312,77.0335518 C83.5071646,77.0335518 74.7556648,76.2001634 74.7556648,76.2001634 C71.8048315,76.9766923 66.0274983,77.2733865 64.7243317,77.330246 L64.6803317,77.330246 L64.7243317,77.330246 C70.0546649,78.6667749 75.6289981,77.5342129 75.6289981,77.5342129 C80.8678313,78.4074361 85.4903312,80.9991715 85.4903312,80.9991715 C75.0459981,83.8661136 76.0931648,92.4066093 76.0931648,92.4066093 C75.7296648,92.5904109 75.2579981,93.056196 75.2579981,93.056196 C75.0006648,92.9957002 74.7479981,92.9305762 74.4976648,92.8680969 C69.3488316,91.0257828 49.3013321,82.7991715 54.3874986,68.088428 L62.9474984,69.1957007 C63.0671651,72.2042957 64.7789984,73.6127254 64.7789984,73.6127254 C64.3723317,72.8791717 64.2271651,71.815866 64.1939984,70.7413205 C64.830665,68.691238 66.5908317,66.7927256 66.5908317,66.7927256 L64.1926651,63.6309075 L64.8363317,60.4923952 C65.0654984,61.9636348 65.897665,63.0778497 67.6418316,62.2532216 C70.2571649,61.0133869 70.0998316,56.8085936 70.0998316,56.8085936 L70.9956649,56.4472713 L72.1389982,59.9229737 L69.0023316,63.1839654 C68.8413316,65.3641306 69.4671649,66.9203289 69.4671649,66.9203289 C69.4626649,66.7561967 69.4709983,66.5029735 69.5001649,66.2107421 L69.6396649,68.8099156 C69.6396649,68.8099156 71.0218316,64.2988414 74.6613315,62.3411555 C73.9349982,63.9358662 74.0573315,65.4947091 76.1746648,66.0882628 C80.574998,67.3370231 81.933498,60.1280977 81.933498,60.1280977 C82.6669979,61.165453 83.9203312,63.4976844 83.9203312,63.4976844 L81.0938313,68.9943784 L72.6146649,70.3940478 C73.9171648,70.6737172 76.1473314,70.6024776 78.0863314,70.4616511 L82.7223313,70.7509073 L86.0619978,65.3570232 L87.6886645,65.2447918 C86.1854978,66.4942132 85.9129979,68.2955355 86.4383312,69.9786759 C87.2748312,72.6752048 91.776331,70.1352049 91.776331,70.1352049 L94.3469976,66.5591719 C93.7689977,68.8391718 89.6824978,74.2302461 89.6824978,74.2302461 C88.1654978,74.8528907 78.8981647,75.7335518 78.8981647,75.7335518 C82.2263313,76.3466097 85.5941645,76.2689237 87.9254978,76.0492543 L91.582831,76.0752047 L93.845331,73.5723949" id="path144" fill="#AEA057"></path>
                        <path d="M74.4976648,92.8680969 C42.3711656,84.7431384 49.9909988,65.3247918 49.9909988,65.3247918 L62.9321651,68.4576842 L62.9544984,68.4451223 C62.9359984,68.7095851 62.9393318,68.9527255 62.9474984,69.1957007 L54.3874986,68.088428 C49.3013321,82.7991715 69.3488316,91.0257828 74.4976648,92.8680969" id="path146" fill="#856C40"></path>
                        <path d="M66.5908317,66.7927256 C66.5908317,66.7927256 64.830665,68.691238 64.1939984,70.7413205 C64.1449984,68.7890892 64.4988317,66.8155355 64.4988317,66.8155355 C64.2869984,66.246114 62.8183318,63.1327257 62.8183318,63.1327257 L63.8699984,58.4702465 L64.9198317,58.2132217 C64.7593317,58.9223126 64.7243317,59.7512382 64.8363317,60.4923952 L64.1926651,63.6309075 L66.5908317,66.7927256" id="path148" fill="#856C40"></path>
                        <path d="M69.6396649,68.8099156 L69.5001649,66.2107421 C69.6109983,65.0274364 69.9408316,63.1327257 69.9408316,63.1327257 L76.4896648,58.2132217 L78.585498,58.2132217 C77.2238314,58.8558663 75.4449981,60.6206596 74.6613315,62.3411555 C71.0218316,64.2988414 69.6396649,68.8099156 69.6396649,68.8099156" id="path150" fill="#856C40"></path>
                        <path d="M82.7223313,70.7509073 L78.0863314,70.4616511 C80.1191647,70.3114032 81.826498,70.0803288 81.826498,70.0803288 L85.1338312,63.5999984 L91.8284977,63.7571885 C89.9434978,63.9504116 88.5924978,64.4965273 87.6886645,65.2447918 L86.0619978,65.3570232 L82.7223313,70.7509073" id="path152" fill="#856C40"></path>
                        <path d="M95.180331,67.4393372 L97.3811642,67.5965272 C94.3921643,68.1685933 93.402331,72.0520643 93.402331,72.0520643 C93.1406643,72.7623122 93.385831,73.2459486 93.845331,73.5723949 L91.582831,76.0752047 L87.9254978,76.0492543 C89.7429978,75.8781799 90.9206644,75.6198328 90.9411644,75.5271055 C90.9933311,75.3211551 95.180331,67.4393372 95.180331,67.4393372" id="path154" fill="#856C40"></path>
                        <path d="M83.2016646,81.2585104 L77.5248314,77.9256179 C81.9366646,79.0059484 85.4903312,80.9991715 85.4903312,80.9991715 C82.5179979,81.8166922 80.474498,83.0952045 79.0693314,84.5024772 C80.078998,83.1842954 81.4313313,81.9272707 83.2016646,81.2585104" id="path156" fill="#856C40"></path>
                        <path d="M76.6551648,110.288096 C76.6551648,110.288096 79.6168313,111.64165 81.2038313,112.003468 C81.2038313,112.003468 79.6493313,115.854708 71.8569982,115.482311 C71.8569982,115.482311 67.431165,115.051072 64.6168317,113.646278 C61.8059985,112.238344 62.8939984,111.020328 62.9754984,110.882807 C63.0524984,110.746939 63.9068317,109.853055 66.2783317,110.520989 C68.652165,111.185948 69.0106649,111.310741 69.5524983,111.468758 C70.0878316,111.625286 73.8968315,112.81603 76.6551648,110.288096" id="path158" fill="#856C40"></path>
                        <path d="M72.3814982,96.5186753 L71.9276649,96.3348736 C69.2983316,95.283634 63.3466651,92.3226423 60.1119985,88.7642953 C63.9851651,90.9449564 68.7128316,92.7360307 74.2341648,94.1175183 C73.1034982,94.6940472 72.5859982,95.8778488 72.3814982,96.5186753" id="path160" fill="#856C40"></path>
                        <polyline id="path162" fill="#856C40" points="104.103664 64.3639653 104.060997 64.486632 103.887664 64.486632 104.103664 64.3639653"></polyline>
                        <polyline id="path164" fill="#856C40" points="61.0233318 110.042477 60.7593318 110.46565 60.7339985 110.542477 61.0233318 110.042477"></polyline>
                        <path d="M97.3118309,62.7793373 L97.4448309,62.712891 C97.2901642,63.0747092 97.0093309,63.3474364 96.5789976,63.5064447 C96.3886643,63.5861141 96.1793309,63.6580149 95.9538309,63.7193372 C95.9716643,63.5229736 95.9824976,63.3310728 95.9876643,63.1385108 C96.4956643,63.0601637 96.9374976,62.941486 97.3118309,62.7793373" id="path166" fill="#856C40"></path>
                        <polyline id="path168" fill="#856C40" points="155.022829 48.1262798 161.292163 67.6104115 160.509163 68.1766925 154.284163 48.8583459 150.472163 45.5489245 152.263663 45.7358666 155.022829 48.1262798"></polyline>
                        <polyline id="path170" fill="#856C40" points="108.565831 64.8666099 108.849664 65.6966926 103.812664 65.1753703 103.909331 64.3791719 108.565831 64.8666099"></polyline>
                        <path d="M119.46233,49.5325607 L117.94433,45.0818171 L113.845997,44.6537179 L113.56583,43.8191725 L118.682997,44.3545443 L120.19433,48.8034699 L125.68833,66.0604942 C125.37383,66.0781802 125.059497,66.1052876 124.743497,66.1406595 L119.46233,49.5325607" id="path172" fill="#856C40"></path>
                        <polyline id="path174" fill="#856C40" points="98.2718309 64.5981802 99.2446642 63.8966926 103.887664 64.3791719 102.800497 65.0717339 98.2718309 64.5981802"></polyline>
                        <polyline id="path176" fill="#856C40" points="29.6558326 33.1692554 32.3989992 35.5533875 35.1938325 44.0766931 34.3866658 44.5791724 31.6674992 36.2844619 27.865666 32.9823132 29.6558326 33.1692554"></polyline>
                        <path d="M138.009663,63.9383455 L137.992997,64.0361967 C137.992997,64.2471058 138.200497,64.4833042 138.666497,65.0041306 L138.91233,65.2795025 L138.127997,65.8433041 L135.493663,57.9171886 L130.912497,57.4373539 L131.92733,56.7370234 L136.233497,57.1866101 L138.394163,63.6985108 L138.228497,63.7249571 C138.12033,63.754048 138.040163,63.8355356 138.009663,63.9383455" id="path178" fill="#856C40"></path>
                        <polyline id="path180" fill="#856C40" points="36.1194991 46.916693 38.6538324 54.9631391 37.8721657 55.5576846 35.3823324 47.6438005 30.6724992 47.1590071 31.7789992 46.466941 36.1194991 46.916693"></polyline>
                        <path d="M79.8001647,56.6960316 C79.5066647,56.6727259 79.202998,56.6570234 78.937498,56.6391721 L73.4836648,40.2166932 L69.9503316,37.1077677 L69.9408316,37.0862801 L71.6991649,37.2680982 L74.2163315,39.4917345 L79.9096647,56.6190068 L79.8746647,56.6391721 L79.8001647,56.6960316" id="path182" fill="#856C40"></path>
                        <polyline id="path184" fill="#856C40" points="56.3424986 60.2575192 57.3209986 59.5523952 61.9746651 60.0385109 61.8059985 60.8251224 56.3424986 60.2575192"></polyline>
                        <path d="M155.337329,69.7426429 L155.609829,70.5753701 L152.662163,70.268428 C152.350163,69.9730561 152.02933,69.6699156 151.693163,69.3624776 L155.337329,69.7426429" id="path186" fill="#856C40"></path>
                        <polyline id="path188" fill="#856C40" points="165.835163 50.5175194 161.662663 50.0824781 161.386496 49.2490897 166.569829 49.7909078 167.389996 52.3219822 171.433329 52.7451226 171.684996 53.5785111 166.652496 53.0485937 165.835163 50.5175194"></polyline>
                        <polyline id="path190" fill="#856C40" points="188.304995 73.1771883 188.576662 74.013056 177.948329 72.9069403 178.926662 72.2016511 188.304995 73.1771883"></polyline>
                        <polyline id="path192" fill="#856C40" points="167.568329 71.0166924 167.839996 71.8550395 157.210163 70.7388412 158.193163 70.0386759 167.568329 71.0166924"></polyline>
                        <path d="M102.294997,61.4988414 L101.506831,62.0676018 L95.3394976,43.4781807 C95.0351643,42.2963626 95.245331,41.4514039 96.0863309,41.06628 C95.8966643,41.5046271 95.8966643,42.0664452 96.0723309,42.744627 L102.294997,61.4988414" id="path194" fill="#856C40"></path>
                        <polyline id="path196" fill="#856C40" points="135.311497 54.1819821 134.51583 54.7338829 131.91583 46.5238005 128.101163 43.2180154 129.89133 43.4036353 132.646663 45.7976848 135.311497 54.1819821"></polyline>
                        <polyline id="path198" fill="#856C40" points="139.01283 46.916693 144.203996 47.4581806 145.014996 49.9928913 149.066496 50.4133872 149.321163 51.2447921 144.286663 50.7233045 143.466663 48.1839657 139.290497 47.7512385 139.01283 46.916693"></polyline>
                        <polyline id="path200" fill="#856C40" points="146.941496 59.1104117 142.768996 58.6760316 142.481163 57.8406597 146.665163 58.2790068 146.941496 59.1104117"></polyline>
                        <polyline id="path202" fill="#856C40" points="84.9249979 41.3985114 80.7633313 40.9652882 80.488998 40.1294205 85.6621645 40.6699163 91.9564977 59.630577 90.9411644 59.5246266 84.9249979 41.3985114"></polyline>
                        <polyline id="path204" fill="#856C40" points="150.10933 65.981486 149.099496 65.8780149 148.32033 63.5393373 149.335163 63.6474364 150.10933 65.981486"></polyline>
                        <polyline id="path206" fill="#856C40" points="114.803497 65.5155356 120.12183 66.0718992 120.400664 66.9071058 114.063664 66.2434694 106.598497 43.8986766 102.301331 43.4479328 102.012497 42.6120651 107.331997 43.1714039 114.803497 65.5155356"></polyline>
                        <polyline id="path208" fill="#856C40" points="124.98683 45.2170237 124.95233 45.1019823 127.169163 43.3279328 127.325663 43.3444617 124.98683 45.2170237"></polyline>
                        <polyline id="path210" fill="#856C40" points="187.386662 55.21223 186.578329 52.683635 182.393329 52.2480979 182.116662 51.411569 187.311662 51.9533871 188.131662 54.4842962 192.173329 54.9085937 192.426662 55.7413209 187.386662 55.21223"></polyline>
                        <polyline id="path212" fill="#856C40" points="45.3669989 44.3747096 42.8543323 36.6872718 40.830499 34.2123958 42.2934989 34.3738834 43.5838322 35.9573545 46.3709988 44.478346 45.3669989 44.3747096"></polyline>
                        <polyline id="path214" fill="#856C40" points="175.023329 51.0199987 171.201662 47.7120649 172.989996 47.8990071 175.753329 50.2909078 182.028329 69.7697503 181.236662 70.3328908 175.023329 51.0199987"></polyline>
                        <polyline id="path216" fill="#856C40" points="70.8218316 43.0942138 65.7848317 42.5652882 64.9699984 40.0371891 60.7906651 39.6016519 60.5116652 38.7707428 65.7014984 39.3097511 66.517665 41.8390072 70.5653316 42.2596684 70.8218316 43.0942138"></polyline>
                        <polyline id="path218" fill="#856C40" points="54.151332 37.6419825 60.4233318 57.1290895 59.6358318 57.6872713 53.4134987 38.3728916 49.5974988 35.0659495 51.390832 35.2515694 54.151332 37.6419825"></polyline>
                        <path d="M26.854166,56.4799986 C29.4388326,56.751073 31.1531659,56.6216515 32.2826659,56.1317341 L32.4118325,56.0677672 C32.2526659,56.4257837 31.9724992,56.6998333 31.5414992,56.8628085 C30.4108326,57.3494201 28.7071659,57.4828085 26.120166,57.2112382 L11.6667997,55.7029738 L12.6453164,55.0021474 L26.854166,56.4799986" id="path220" fill="#856C40"></path>
                        <path d="M49.6223321,58.8515688 C52.3539987,59.136858 54.2116653,59.0244613 55.1889986,58.5188415 C55.291332,58.4910729 55.3768319,58.4462795 55.4633319,58.4102465 C55.3061653,58.7985109 54.9819986,59.0889241 54.4561653,59.2480977 C53.478332,59.7512382 51.623832,59.8680977 48.8818321,59.580825 L34.7348325,58.1052878 L35.6706658,57.4006597 L49.6223321,58.8515688" id="path222" fill="#856C40"></path>
                        <path d="M9.44049976,33.6148752 L15.7328829,52.5732218 L14.944083,53.1395028 L8.70259978,34.3423132 C8.39068312,33.1540488 8.60716645,32.3004951 9.44941643,31.9064455 C9.25846644,32.3497513 9.25526644,32.9254537 9.44049976,33.6148752" id="path224" fill="#856C40"></path>
                        <polyline id="path226" fill="#856C40" points="29.6889993 46.2499162 29.9619993 47.0833046 23.6549994 46.422974 19.8894995 34.7477677 15.7278663 34.3107429 15.4470663 33.4748752 20.6221662 34.0191727 24.3928327 45.6930567 29.6889993 46.2499162"></polyline>
                        <polyline id="path228" fill="#856C40" points="25.2568327 50.8679326 26.274166 50.9973541 26.9184993 52.9793375 25.9124994 52.8745441 25.2568327 50.8679326"></polyline>
                        <polyline id="path230" fill="#856C40" points="46.7911655 48.8368583 42.6181656 48.401817 42.3533323 47.5667757 47.5291655 48.1059492 49.8368321 55.3619821 48.8379988 55.259668 46.7911655 48.8368583"></polyline>
                        <path d="M115.024997,28.8950406 L112.239164,28.6033051 L113.715997,33.2525612 L116.506997,33.5418173 L115.024997,28.8950406 Z M105.248831,27.8733877 L99.5189975,27.2773547 L104.122164,24.4110738 L101.984331,17.8689252 L98.7881642,15.093355 L100.405831,20.3879334 L94.4564976,19.7666111 L93.763831,17.5986772 L90.9723311,17.3006607 L92.6554977,22.390578 L96.9731642,22.8401647 L98.3959975,27.1246274 L93.9554977,26.6611564 L95.6379976,31.6224785 L98.3054975,31.9014868 L97.4048309,29.1816522 L103.509664,29.8142141 L105.247664,35.2085942 L107.109164,33.794214 L105.248831,27.8733877 Z M86.9309978,25.9325613 L82.2594979,25.442644 L86.7424978,33.4446273 L88.9109978,31.8813215 L86.9309978,25.9325613 Z M73.4288315,21.3943796 L77.1231647,32.2550405 L78.9598314,30.9380158 L73.4288315,21.3943796 Z M181.141662,44.7307427 L177.133329,32.3094207 L175.396662,32.1274372 L179.506662,44.5590072 L169.973329,43.5652882 L169.991662,43.624627 L151.90083,41.7507428 L140.219996,40.5335527 L143.98883,37.6760321 L139.05883,21.8325614 L136.47283,19.5999995 L138.900997,27.0791729 C139.461163,29.2018175 138.23383,29.9152059 137.717997,30.1109083 C136.600163,30.5920654 135.002163,30.704462 132.688663,30.4657844 L129.592163,30.1424786 L131.36833,35.0948752 L134.160497,35.3892553 L133.35083,32.9168587 L140.33583,33.8132223 L141.318663,36.622809 C141.881496,38.7517346 140.646496,39.457685 140.13333,39.6381808 C139.02183,40.1282635 137.425163,40.2431395 135.11033,40.0044618 L120.756997,38.5029742 L121.234664,38.1633048 C120.26183,38.3238007 118.96683,38.3135528 117.309164,38.1444619 L56.1299986,31.7689248 L59.8929985,28.9036356 L54.9641653,13.0654707 L52.1184987,10.6031072 L50.0513321,12.0881319 L55.2246653,27.6801646 C55.7733319,29.7890902 54.554832,30.4871067 54.095332,30.6538835 C53.1224987,31.1603298 51.444332,31.2788422 48.9468321,31.0201645 L35.0811658,29.5793381 L35.0829991,29.5768588 L30.3541659,29.0818175 L23.7683327,9.71667744 L20.9958328,9.42742125 L27.5563326,28.7876026 L15.2432996,27.507272 L19.2488329,24.6294209 L14.0171163,8.85421465 C13.4646497,6.72642958 14.6862663,6.02446266 15.1541663,5.86034696 C16.1466829,5.3401321 17.7968329,5.22133871 20.3593328,5.49289242 L26.2479993,6.10530563 L26.2779993,6.10912381 C29.0408326,6.59633041 29.9901659,7.99935517 30.2963326,9.0637849 L36.6599991,28.3115695 L38.766499,26.6168588 L36.3244991,19.036859 L33.5894992,10.7697518 L28.8294993,6.64960314 L32.3246659,7.01452875 L32.3048325,6.96894197 L39.434999,7.75819815 L44.4426656,23.4702473 L45.5778322,26.8239663 L48.2993321,27.1094208 L41.815999,7.95770228 L54.0251653,9.23191712 L53.960332,9.27983448 L60.6793318,9.97933859 L67.305165,31.3773546 L69.4174983,29.8520654 L62.8131651,9.96409892 L63.9806651,10.0867766 C64.5518317,10.1446278 71.3433315,10.8505948 74.2398315,11.1523799 L82.0041646,24.9970242 L85.8219979,22.359173 L83.7771646,15.8990244 L78.8593314,11.64876 L107.744497,14.6563798 L110.751831,23.9247928 L113.527497,24.2165283 L111.542497,18.1378508 L108.841997,14.6982145 L117.66183,15.60595 L120.255497,23.7859498 L120.284664,24.0082639 C120.284664,24.0714044 120.29633,24.1395035 120.302497,24.2052887 L120.322997,24.3479333 C120.377664,24.9285944 120.251664,25.4818175 119.944664,25.9578506 C120.231164,26.1044622 120.475664,26.2647927 120.69983,26.4553712 C120.967164,26.7218175 121.172164,27.044958 121.31483,27.4452886 L123.64233,34.7489248 C123.828164,35.3436355 123.80783,35.9358669 123.595164,36.471404 L124.75633,35.635371 L122.337164,28.8507431 C121.788497,26.7280985 123.01083,26.0236357 123.474164,25.8492556 C124.471164,25.334049 126.12133,25.2203299 128.68433,25.4867762 L130.073497,25.6320655 C130.181663,25.6497514 130.284663,25.6737184 130.398163,25.7052886 L131.638163,25.8353713 L130.269497,21.5218176 L127.495163,21.2302474 L128.29733,23.6571895 L121.433164,22.9590077 L120.340664,19.9976855 C119.776664,17.8699169 121.005497,17.1591731 121.523664,16.964793 C122.640164,16.4773384 124.23683,16.3662806 126.55033,16.6061153 L144.775663,18.5077681 L149.45483,33.8561975 L153.271996,36.7515693 L156.535329,37.097685 L152.159163,23.1988424 L147.31583,19.0028094 L157.868329,20.1024788 L163.403329,37.8299164 L165.403496,38.0433048 L167.101662,34.5671066 L169.408329,41.777189 L171.286662,40.422313 L168.486662,31.5580157 C167.939996,29.4568588 169.149996,28.7548753 169.618329,28.5818175 C170.583329,28.0791729 172.269996,27.9591729 174.764996,28.2193381 L175.853329,28.3368588 L175.018329,25.7557018 L170.179996,21.5609912 L180.728329,22.6609912 L187.974995,45.4404947 L181.141662,44.7307427 Z" id="path232" fill="#D01C2E"></path>
                        <polyline id="path234" fill="#FFFFFF" points="66.7423317 32.1198339 58.1021652 31.2183463 60.7739985 29.1879332 55.6256653 12.6411402 52.4291654 9.87209893 60.0966652 10.6714212 66.7423317 32.1198339"></polyline>
                        <polyline id="path236" fill="#FFFFFF" points="150.833663 40.8846271 142.19483 39.9816519 144.86983 37.9523957 139.71833 21.4069416 136.248663 18.3309086 144.22433 19.1378508 150.833663 40.8846271"></polyline>
                        <polyline id="path238" fill="#FFFFFF" points="102.935497 30.5148753 104.729331 36.0811561 86.9399978 34.2287595 89.8091644 32.1667761 87.5008311 25.2330572 83.5753312 24.8264457 86.7151645 22.6621482 84.4366646 15.4671401 81.1638313 12.6411402 97.7746642 14.3672558 99.3431642 19.5218177 95.0274976 19.0735532 94.3336643 16.9003302 89.8868311 16.4356855 92.0894977 23.088925 96.4064976 23.5371895 97.3093309 26.2583465 92.859331 25.7950407 95.0741643 32.3183463 99.3916642 32.7689248 98.4914975 30.0515695 102.935497 30.5148753"></polyline>
                        <polyline id="path240" fill="#FFFFFF" points="152.188496 41.0259494 150.44933 35.5623132 152.97783 37.4738834 157.607496 37.970247 152.817496 22.7707432 149.62033 19.9990078 157.291663 20.8008259 162.822663 38.5206602 165.851829 38.8464453 166.951662 36.5912388 168.923329 42.7545444 152.188496 41.0259494"></polyline>
                        <path d="M86.2784978,34.1555363 L77.1021647,33.2021479 L79.9568313,31.1476025 L70.2444982,14.3963633 L76.6259981,33.1490901 L67.463665,32.198181 L70.3106649,30.1399992 L63.9036651,10.8341981 C64.1341651,10.8606609 73.7629982,11.8582146 73.7681648,11.8505947 L86.2784978,34.1555363" id="path242" fill="#FFFFFF"></path>
                        <path d="M53.743832,29.9897513 C52.9149987,30.4216521 51.3404987,30.5125612 49.0213321,30.2714042 L36.9846657,29.0175199 L39.6438323,26.8783464 L37.0476657,18.8006607 L34.2464991,10.3418179 L31.1314992,7.64442956 L33.4284992,7.88823121 L33.4151658,7.84277666 L38.5011657,8.37305764 L38.5158324,8.41735516 L38.8646657,8.45138822 L43.7208322,23.7127267 L45.0156655,27.524958 L49.3931654,27.9757018 L42.9159989,8.83024771 L51.9726654,9.77472703 L49.1531654,11.8014543 L54.489832,27.8684291 C54.769332,28.9315695 54.554832,29.6877679 53.743832,29.9897513" id="path244" fill="#FFFFFF"></path>
                        <path d="M111.166831,27.7357018 L113.143164,33.9497512 L117.572664,34.4119 L117.082497,32.8624785 L115.596497,28.1978505 L111.166831,27.7357018 Z M122.160164,37.115371 C121.32883,37.5457842 119.738497,37.6419825 117.382997,37.4018172 L105.270497,36.1380156 L107.992664,34.0722306 L105.826997,27.176363 L101.786997,26.7596688 L105.029997,24.7357019 L102.639997,17.4368591 L99.3821642,14.6071071 L107.199664,15.4254211 L110.178997,24.6218176 L114.611164,25.087768 L112.222497,17.7766938 L110.533997,15.6274542 L117.090164,16.3067599 L119.53233,24.0132225 C119.533497,24.1495862 119.554997,24.2897515 119.566664,24.4236358 C119.641664,25.1396688 119.310664,25.7545448 118.727664,26.1497514 C118.672664,26.1788423 118.59883,26.2052886 118.535164,26.2343795 C119.261164,26.4414869 119.80733,26.6851233 120.161164,26.9795035 C120.35983,27.1826439 120.501164,27.4161977 120.59283,27.6725613 L122.917664,34.9710735 C123.193997,35.8626437 122.85533,36.6378503 122.160164,37.115371 Z" id="path246" fill="#FFFFFF"></path>
                        <path d="M24.3266661,9.01717333 L19.8996662,8.55371879 L26.4568327,27.9213216 L17.2926662,26.9667762 L20.1466662,24.9110738 L14.7537163,8.66742127 C14.473633,7.59155353 14.6830663,6.82631388 15.5043663,6.52576843 C16.3421829,6.09142134 17.9336662,5.99535522 20.2803328,6.24031389 L26.1454993,6.85026429 C27.9529993,7.16709073 29.1841659,7.94892542 29.5743326,9.29867745 L36.0628324,28.9176852 L30.9156659,28.3823133 L24.3266661,9.01717333" id="path248" fill="#FFFFFF"></path>
                        <path d="M139.82783,38.9512387 C138.868997,39.3742139 137.400997,39.4804949 135.190663,39.2555362 L122.805664,37.9613214 L125.658997,35.9118999 L123.074497,28.6651233 C122.79433,27.5829745 123.00683,26.8266109 123.828164,26.5196688 C124.66583,26.0841316 126.253664,25.9932225 128.60283,26.2343795 L129.957497,26.3809911 C130.083497,26.3998341 130.19833,26.4262803 130.320497,26.4553712 L132.708997,26.7028092 L130.84883,20.8236358 L126.414164,20.3601648 L127.214997,22.7922308 L121.980664,22.2604953 L121.074164,19.8046276 C120.787664,18.7300822 121.004164,17.9672723 121.830497,17.6565285 C122.792997,17.2350409 124.25483,17.1226442 126.46883,17.3535533 L135.257997,18.2728921 L138.167497,27.2748754 C138.447663,28.3494208 138.23383,29.109586 137.412497,29.4201646 C136.444663,29.8381811 134.98683,29.9456191 132.768997,29.7168588 L128.485663,29.2725613 L130.814497,35.7918999 L135.243997,36.255371 L134.443163,33.8208256 L139.77683,34.5064454 L140.587996,36.8148751 C140.864163,37.8842966 140.65683,38.6507428 139.82783,38.9512387" id="path250" fill="#FFFFFF"></path>
                        <path d="M181.711662,44.0312386 L177.703329,31.6123959 L174.316662,31.2586769 L178.421662,43.6902468 L169.354996,42.7433047 L172.171662,40.7128915 L169.221662,31.3699166 C168.948329,30.3092554 169.149996,29.5553712 169.969996,29.2510736 C170.793329,28.8229745 172.369996,28.7307431 174.689996,28.9694208 L176.928329,29.2031398 L175.671662,25.327768 L172.483329,22.5611565 L180.153329,23.3580159 L186.898329,44.5755361 L181.711662,44.0312386" id="path252" fill="#FFFFFF"></path>
                        <polyline id="path254" fill="#A2934F" points="66.5074983 31.3723959 66.7423317 32.1198339 58.1021652 31.2183463 58.9418319 30.5781811 66.5074983 31.3723959"></polyline>
                        <polyline id="path256" fill="#A2934F" points="56.4259986 11.9983137 61.5723318 28.5439662 60.7676651 29.1601646 55.6256653 12.6411402 52.4291654 9.87209893 54.1824986 10.059008 56.4259986 11.9983137"></polyline>
                        <polyline id="path258" fill="#A2934F" points="150.613496 40.1357015 150.833663 40.8846271 142.19483 39.9816519 143.032663 39.3477676 150.613496 40.1357015"></polyline>
                        <polyline id="path260" fill="#A2934F" points="140.52033 20.765454 145.669496 37.3122305 144.859663 37.9272718 139.71833 21.4069416 136.248663 18.3309086 137.964997 18.5028095 140.52033 20.765454"></polyline>
                        <polyline id="path262" fill="#A2934F" points="97.3093309 26.2583465 93.9186643 25.9061151 93.658831 25.1484291 97.0578309 25.5071068 97.3093309 26.2583465"></polyline>
                        <polyline id="path264" fill="#A2934F" points="104.490164 35.3323958 104.729331 36.0811561 86.9399978 34.2287595 87.8241645 33.5923959 104.490164 35.3323958"></polyline>
                        <polyline id="path266" fill="#A2934F" points="95.0274976 19.0735532 94.3336643 16.9003302 90.9334977 16.5429748 90.6863311 15.7928756 95.1364976 16.2550409 95.8316643 18.4280987 99.1178309 18.7679334 99.3431642 19.5218177 95.0274976 19.0735532"></polyline>
                        <polyline id="path268" fill="#A2934F" points="100.192664 32.1261149 99.1414975 32.0163628 98.4914975 30.0515695 99.5393308 30.1588422 100.192664 32.1261149"></polyline>
                        <polyline id="path270" fill="#A2934F" points="85.2344979 14.8294211 87.5148311 22.016859 86.6916645 22.5851234 84.4366646 15.4671401 81.1638313 12.6411402 82.9209979 12.8241154 85.2344979 14.8294211"></polyline>
                        <polyline id="path272" fill="#A2934F" points="88.2984978 24.5904126 90.6106644 31.5239662 89.7881644 32.1135529 87.5008311 25.2330572 83.5753312 24.8264457 84.4901646 24.1950407 88.2984978 24.5904126"></polyline>
                        <polyline id="path274" fill="#A2934F" points="152.98933 40.3819825 168.679996 42.0071064 168.923329 42.7545444 152.188496 41.0259494 150.44933 35.5623132 151.772163 36.5585115 152.98933 40.3819825"></polyline>
                        <polyline id="path276" fill="#A2934F" points="153.620996 22.1319003 158.409496 37.3274371 157.370663 37.2137181 152.817496 22.7707432 149.62033 19.9990078 151.37483 20.1834706 153.620996 22.1319003"></polyline>
                        <polyline id="path278" fill="#A2934F" points="166.655163 38.2011561 166.191663 38.1558668 166.951662 36.5912388 167.148329 37.1973544 166.655163 38.2011561"></polyline>
                        <polyline id="path280" fill="#A2934F" points="85.8436645 33.3839661 86.2784978 34.1555363 77.1021647 33.2021479 77.9864981 32.566776 85.8436645 33.3839661"></polyline>
                        <polyline id="path282" fill="#A2934F" points="80.7558313 30.5036356 79.9261647 31.1008257 72.7113315 18.6530574 71.0466649 13.7535534 80.7558313 30.5036356"></polyline>
                        <path d="M71.1134982,29.495867 L70.2984982,30.0857844 L63.9036651,10.8341981 C63.9463317,10.8367105 64.3466651,10.8784791 64.949665,10.9439501 L71.1134982,29.495867" id="path284" fill="#A2934F"></path>
                        <polyline id="path286" fill="#A2934F" points="76.3713314 32.3976851 76.6259981 33.1490901 67.463665 32.198181 68.339665 31.5593381 76.3713314 32.3976851"></polyline>
                        <polyline id="path288" fill="#A2934F" points="51.8956654 9.76975182 51.9726654 9.77472703 49.9763321 11.2117187 49.9603321 11.1573551 51.8956654 9.76975182"></polyline>
                        <polyline id="path290" fill="#A2934F" points="50.1914987 27.3366935 49.1411654 27.2294208 42.9159989 8.83024771 43.9633322 8.94130556 50.1914987 27.3366935"></polyline>
                        <path d="M35.0499991,9.69770224 L37.8473324,18.1591731 L40.4446657,26.2330572 L37.7811657,28.3760323 L49.8209988,29.627272 C52.061832,29.8634703 53.5961653,29.7814869 54.4421653,29.386115 C54.3091653,29.6550406 54.0761653,29.8634703 53.743832,29.9897513 C52.9149987,30.4216521 51.3404987,30.5125612 49.0213321,30.2714042 L36.9846657,29.0175199 L39.6438323,26.8783464 L37.0476657,18.8006607 L34.2464991,10.3418179 L31.1314992,7.64442956 L32.8848325,7.83142129 L35.0499991,9.69770224" id="path292" fill="#A2934F"></path>
                        <polyline id="path294" fill="#A2934F" points="117.884664 32.2246273 118.373664 33.7715694 117.33583 33.6629744 117.082497 32.8624785 115.596497 28.1978505 112.208497 27.8429745 111.967831 27.0917349 116.397497 27.5552059 117.884664 32.2246273"></polyline>
                        <polyline id="path296" fill="#A2934F" points="106.622831 26.5348754 108.793664 33.4294207 107.984997 34.0429744 105.826997 27.176363 101.786997 26.7596688 102.786497 26.1358671 106.622831 26.5348754"></polyline>
                        <path d="M118.19033,36.7604949 C120.30633,36.9826437 121.80483,36.9195032 122.692497,36.5876024 C122.55233,36.7880983 122.376664,36.9674371 122.160164,37.115371 C121.32883,37.5457842 119.738497,37.6419825 117.382997,37.4018172 L105.270497,36.1380156 L106.108497,35.5003297 L118.19033,36.7604949" id="path298" fill="#A2934F"></path>
                        <polyline id="path300" fill="#A2934F" points="113.025997 17.1376855 115.410664 24.443801 114.365497 24.336363 112.222497 17.7766938 110.533997 15.6274542 111.955164 15.7727269 113.025997 17.1376855"></polyline>
                        <polyline id="path302" fill="#A2934F" points="103.443331 16.7904128 105.826997 24.0978506 104.989164 24.6204953 102.639997 17.4368591 99.3821642 14.6071071 101.137331 14.7904129 103.443331 16.7904128"></polyline>
                        <polyline id="path304" fill="#A2934F" points="26.204666 27.1687597 26.4568327 27.9213216 17.2926662 26.9667762 18.1743329 26.3315696 26.204666 27.1687597"></polyline>
                        <polyline id="path306" fill="#A2934F" points="20.9589995 8.66613201 20.7023328 7.91224774 25.125666 8.37687582 31.7166659 27.7433051 35.8119991 28.1725613 36.0628324 28.9176852 30.9156659 28.3823133 24.3266661 9.01717333 20.9589995 8.66613201"></polyline>
                        <path d="M15.5540329,8.02330558 L20.9468328,24.2695862 L20.1293328,24.8580159 L14.7537163,8.66742127 C14.473633,7.59155353 14.6830663,6.82631388 15.5043663,6.52576843 C15.5342496,6.51304116 15.5673829,6.50051223 15.5947996,6.48411554 C15.3968163,6.8706114 15.3878329,7.39076015 15.5540329,8.02330558" id="path308" fill="#A2934F"></path>
                        <polyline id="path310" fill="#A2934F" points="131.64583 20.1796689 133.505997 26.0588423 132.468497 25.9502473 130.84883 20.8236358 127.461997 20.4674375 127.214997 19.7186772 131.64583 20.1796689"></polyline>
                        <polyline id="path312" fill="#A2934F" points="134.443163 33.8208256 135.502497 33.9547099 136.041163 35.6112388 134.997163 35.5039661 134.443163 33.8208256"></polyline>
                        <path d="M138.126663,28.8104125 C137.984163,29.0842968 137.753663,29.2952059 137.412497,29.4201646 C136.444663,29.8381811 134.98683,29.9456191 132.768997,29.7168588 L129.555163,29.3811563 L129.281497,28.6271067 L133.570997,29.0743794 C135.726663,29.2976852 137.16033,29.2018175 138.126663,28.8104125" id="path314" fill="#A2934F"></path>
                        <path d="M121.873664,19.1604954 L122.783997,21.6178507 L126.96533,22.0472722 L127.214997,22.7922308 L121.980664,22.2604953 L121.074164,19.8046276 C120.787664,18.7300822 121.004164,17.9672723 121.830497,17.6565285 C121.857164,17.6439665 121.888997,17.6314045 121.916997,17.6238012 C121.71583,18.0076029 121.70433,18.5266111 121.873664,19.1604954" id="path316" fill="#A2934F"></path>
                        <path d="M135.987663,38.6128916 C138.140663,38.8390073 139.57833,38.7378503 140.539663,38.343966 C140.40333,38.6193379 140.177996,38.82628 139.82783,38.9512387 C138.868997,39.3742139 137.400997,39.4804949 135.190663,39.2555362 L122.805664,37.9613214 L123.688164,37.3323958 L135.987663,38.6128916" id="path318" fill="#A2934F"></path>
                        <path d="M123.828164,26.5196688 C123.85483,26.5057845 123.893164,26.4970241 123.91983,26.4844621 C123.722497,26.8682638 123.71483,27.386115 123.879164,28.0223133 L126.462497,35.2704123 L125.638664,35.8626437 L123.074497,28.6651233 C122.79433,27.5829745 123.00683,26.8266109 123.828164,26.5196688" id="path320" fill="#A2934F"></path>
                        <polyline id="path322" fill="#A2934F" points="175.363329 31.3661149 175.111662 30.6198339 178.503329 30.9657843 182.511662 43.389751 186.658329 43.8228088 186.898329 44.5755361 181.711662 44.0312386 177.703329 31.6123959 175.363329 31.3661149"></polyline>
                        <polyline id="path324" fill="#A2934F" points="178.173329 42.9378502 178.421662 43.6902468 169.354996 42.7433047 170.231662 42.1107427 178.173329 42.9378502"></polyline>
                        <path d="M170.018329,30.727272 L172.974996,40.067437 L172.158329,40.6571891 L169.221662,31.3699166 C168.948329,30.3092554 169.149996,29.5553712 169.969996,29.2510736 C169.999996,29.2385117 170.034996,29.2219827 170.066662,29.2054538 C169.868329,29.5932224 169.856662,30.1059497 170.018329,30.727272" id="path326" fill="#A2934F"></path>
                        <polyline id="path328" fill="#A2934F" points="176.474996 24.6849581 177.729996 28.5614869 176.689996 28.4530571 175.671662 25.327768 172.483329 22.5611565 174.234996 22.745454 176.474996 24.6849581"></polyline>
                    </g>
                </g>
            </g>
        </g>
    </g>
</svg>