<?xml version="1.0" encoding="UTF-8"?>
<svg width="200px" height="200px" viewBox="0 0 200 200" version="1.1" xmlns="http://www.w3.org/2000/svg" xmlns:xlink="http://www.w3.org/1999/xlink">
    <!-- Generator: Sketch 51.3 (57544) - http://www.bohemiancoding.com/sketch -->
    <title>capital</title>
    <desc>Created with Sketch.</desc>
    <defs></defs>
    <g id="capital" stroke="none" stroke-width="1" fill="none" fill-rule="evenodd">
        <g id="capital_BGL" transform="translate(23.000000, 0.000000)">
            <g id="capital" transform="translate(0.033735, 0.767791)">
                <g fill-rule="nonzero" id="g10">
                    <g transform="translate(76.779114, 100.118173) scale(-1, 1) rotate(-180.000000) translate(-76.779114, -100.118173) translate(0.000000, 0.215524)">
                        <g id="g12">
                            <polyline id="path14" fill="#302A83" points="62.8412354 44.0299484 66.7327242 47.0229419 105.795782 47.1729081 105.945749 51.9619493 108.938787 50.0164294 108.938787 43.8799821 62.8412354 44.0299484"></polyline>
                            <path d="M44.2826908,91.9230087 C44.8814781,92.3720093 45.1806922,92.3720093 45.6296928,92.3720093 C46.0786935,92.3720093 46.378177,92.2220431 46.8271776,91.9230087 C47.2761783,91.6239742 47.5752127,91.0250073 47.5752127,91.0250073 L47.725179,51.2139141 L44.7316915,47.6219088 L44.2826908,91.9230087" id="path16" fill="#302A83"></path>
                            <path d="M116.170392,69.269129 L147.003268,69.269129 L147.160418,28.0193928 L124.337714,5.87436553 L28.8423212,5.87436553 L5.81842005,29.0629601 L5.38800801,170.940391 L28.1099113,193.609088 L125.120771,193.399854 L147.507944,171.20171 L147.370999,129.631432 L120.724157,129.631432 L127.52966,138.217223 C127.52966,138.217223 125.383436,140.834896 124.650667,141.567665 C123.973125,142.245657 122.558324,143.65507 121.510806,144.553071 C120.463287,145.451072 118.82668,147.005962 117.479678,147.903963 C116.132676,148.801964 114.668035,149.862953 113.92,150.311953 C113.171965,150.760954 112.454013,151.253508 112.454013,151.253508 L112.244779,157.74516 L96.0668358,158.05946 C96.0668358,158.05946 91.0411714,158.321227 89.482241,158.524625 C88.4710915,158.65708 87.1371106,158.687612 86.5381437,158.687612 C85.9391768,158.687612 85.5961403,158.687612 84.2343212,158.740145 C83.1764757,158.780555 81.1456457,158.792229 80.3078104,158.740145 C79.7101905,158.702429 78.5805048,158.740145 77.6376034,158.582995 C76.5730229,158.40564 70.3606496,158.268694 70.3606496,158.268694 L40.8478357,158.27049 L40.8844742,138.270205 C40.8844742,138.270205 39.2885911,136.186841 38.738251,135.4415 C37.8482868,134.23773 36.2555916,131.732755 35.8065909,130.834754 C35.3575903,129.936752 33.1592381,125.839621 32.5606304,124.343102 C31.9622023,122.846583 30.5011991,118.038684 30.0998823,116.33293 C29.681234,114.553091 28.9482853,111.306367 28.4771489,104.761734 C28.3905367,103.558412 29.0473798,95.2254086 29.3671132,93.6103532 C29.7321058,91.7663074 31.52968,84.6083388 32.1940663,83.1401066 C32.7037269,82.0135639 34.2191042,78.4309876 35.4922905,76.2308843 C36.4744794,74.5336618 37.8776065,72.3124555 38.4763938,71.4144542 C39.0751811,70.5164528 41.2510383,67.5930095 41.2510383,67.5930095 L41.1396862,41.0363711 L111.877496,41.1037212 L111.930029,47.7000349 L117.898146,42.7264545 L116.170392,69.269129" id="path18" fill="#302A83"></path>
                            <polyline id="path20" fill="#302A83" points="44.0401407 142.439176 47.729669 145.364864 47.729669 152.107507 58.0337853 152.234574 63.88606 155.415295 44.1672977 155.669878 44.0401407 142.439176"></polyline>
                            <polygon id="path22" fill="#302A83" points="105.595977 154.918251 109.575021 152.876196 109.575021 154.970335"></polygon>
                            <polyline id="path24" fill="#302A83" points="153.389853 75.1604668 115.867765 75.1604668 116.012792 72.8395823 116.122798 72.3169455 150.415224 72.3169455 150.386937 26.6311725 126.253151 2.86237926 27.5202387 2.87132335 2.8904418 27.4169237 2.94656688 172.472381 26.5471645 196.157167 126.309276 196.101042 150.428694 171.894518 150.472247 126.970205 118.489031 126.99939 116.266927 123.890958 153.362464 123.963247 153.389853 173.114901 126.954939 199.55251 26.1732367 199.683169 0 173.482633 0.280625417 25.9297886 25.8175384 0 128.273654 0.0561250835 153.539819 25.1719203 153.389853 75.1604668"></polyline>
                            <path d="M38.2848501,89.2496587 C38.5202163,89.8611976 38.6730112,90.5620877 39.112538,91.4138419 C39.5772985,92.3145373 40.0159722,92.9727722 40.8555585,93.6507632 C41.6833811,94.3188762 42.5403438,94.79796 43.3827588,95.0013573 C44.1001272,95.1746715 45.3998045,95.1832025 45.8663162,95.1032804 C46.4621401,95.0013573 46.8976707,94.8706981 47.5370477,94.5945627 C48.1512806,94.3287543 48.6757134,93.8034235 49.0183009,93.476551 C49.6572288,92.8668081 50.5579242,92.0384018 50.5579242,92.0384018 C50.5579242,92.0384018 51.08101,95.3937838 51.5457256,96.860669 C51.9183962,98.0374998 52.6071632,100.102454 53.0561639,101.000455 C53.5051646,101.898457 54.1836046,103.431345 55.1911621,104.951212 C56.1062254,106.330542 57.13758,107.695953 58.0090903,108.698123 C58.8765595,109.696251 60.7461983,111.380004 61.4942334,112.128488 C62.2427175,112.876523 64.5016399,114.362715 65.5473625,114.972907 C67.0672297,115.859683 67.2028279,115.858785 68.1906294,116.352686 C69.5560404,117.035167 71.311184,117.641767 72.6788401,118.022968 C74.1892783,118.444131 75.7077986,118.746309 76.9052833,118.894479 C78.1979563,119.054323 79.6854955,119.171512 80.6090899,119.19935 C81.5677063,119.228535 82.1927152,119.176002 83.2384378,119.112244 C84.2967323,119.047588 84.7053229,119.021546 85.3006978,118.9524 C85.9252578,118.880111 86.7240299,118.807373 86.7240299,118.807373 C86.7240299,118.807373 86.6418628,118.98832 86.4918966,119.736804 C86.3419304,120.485288 86.3464204,120.353731 86.3464204,121.102215 C86.3464204,121.85025 86.3648294,122.283536 86.767583,123.019448 C87.1891946,123.789035 87.5201081,124.167992 88.118626,124.616992 C88.7171439,125.065993 89.3969309,125.401396 89.3969309,125.401396 L90.4426535,125.866112 C90.4426535,125.866112 89.9671618,126.179515 88.7140009,126.432751 C87.6628903,126.645128 86.8766902,126.83326 85.8246816,126.947306 C84.5032726,127.091435 82.8531952,127.153846 82.1464681,127.153846 C81.2480178,127.153846 79.6518204,127.226135 78.4345796,127.141723 C77.1881538,127.055515 75.5726494,126.776237 74.5067218,126.551287 C73.4219362,126.322297 72.0228501,126.005751 71.1248488,125.706268 C70.2268474,125.406784 69.2094119,125.095178 68.1618933,124.646177 C67.1139258,124.197177 65.7157377,123.624701 64.9600696,123.188721 C64.1383984,122.714576 63.3140331,122.249861 62.4824839,121.755511 C61.7546538,121.323572 60.7062373,120.588109 59.9555081,120.042124 C59.2707821,119.543734 58.1994665,118.645283 57.6031936,118.115014 C57.0437388,117.61797 56.7137233,117.274035 56.1390025,116.789564 C55.6271417,116.358074 55.3828853,116.126839 54.9338847,116.126839 C54.484884,116.126839 54.3914919,116.388606 54.3914919,116.837607 C54.3914919,117.286607 54.9096386,117.669156 55.5077075,118.264531 C56.1259815,118.88056 56.9687557,119.699986 57.9583532,120.476757 C59.4032373,121.610484 60.8993075,122.5691 61.8291879,123.164924 C62.7379653,123.746829 63.9758601,124.399676 64.7485903,124.806022 C65.5760985,125.241552 66.8768534,125.867459 68.0743382,126.31646 C69.7531517,126.945959 71.4247812,127.380591 72.2891075,127.636073 C73.6123125,128.027152 74.9970305,128.243122 76.0373651,128.371087 C77.2011748,128.514318 78.2181613,128.64812 79.4107071,128.708286 C80.6068449,128.768901 81.7464085,128.731634 82.9807114,128.700204 C84.3573474,128.665182 84.9082712,128.611302 86.3464204,128.43709 C87.7598745,128.265572 89.2366377,127.972374 90.3842834,127.725424 C91.449313,127.496434 93.0742464,126.94551 93.9722477,126.646026 C94.8702491,126.346543 95.2622266,126.198822 96.3101942,125.749821 C97.3581618,125.30082 99.0607723,124.401023 99.0607723,124.401023 C99.0607723,124.401023 99.1101624,124.608012 99.6597392,125.448542 C100.217398,126.302092 100.375895,126.474059 100.972617,126.926652 C101.451701,127.289893 101.524439,127.332997 102.352396,127.609133 C103.231539,127.90233 104.008311,127.768977 104.008311,127.768977 L105.197264,127.693545 C105.197264,127.693545 103.81973,128.713225 102.652778,129.34003 C101.473702,129.97357 99.4307488,130.943861 98.4456414,131.356492 C97.7245463,131.65867 94.7553049,132.702596 93.6085572,133.084696 C92.7105558,133.384179 90.1826821,133.966533 89.1351635,134.11605 C87.5079851,134.348633 84.2464443,134.73163 83.4413861,134.74061 C82.1343451,134.755427 80.4299386,134.768897 78.6483039,134.711425 C77.1230487,134.662484 75.2556549,134.402064 73.7537477,134.130418 C72.2284924,133.854732 71.4063722,133.709705 69.5852255,133.215804 C66.8544034,132.474953 63.2938281,130.886838 62.9763846,130.731932 C61.2481811,129.889607 60.0277973,129.322968 59.0404448,128.68404 C58.1972215,128.138505 55.4533785,126.277397 54.7592234,125.748025 C54.0116373,125.177794 51.8878642,123.320278 50.9503508,122.438441 C50.0254094,121.568727 48.7022044,120.180417 48.1032375,119.431933 C47.2496873,118.364658 45.730269,116.314521 45.3872325,115.8296 C44.7918576,114.987275 43.3524064,112.530343 42.9034057,111.632342 C42.454405,110.734341 41.7851246,109.3375 41.1896599,108.117116 C40.6287683,106.968572 40.3895408,105.862234 39.9405401,104.515232 C39.4915394,103.16823 39.0777853,101.432394 38.7783917,100.085392 C38.4791776,98.7383898 38.1978338,97.0528413 38.1105032,95.8584995 C38.0231725,94.6673008 38.0088045,94.0342098 38.0088045,92.837174 C38.0088045,90.6438058 38.2848501,89.2496587 38.2848501,89.2496587" id="path26" fill="#A09D9E"></path>
                            <path d="M68.9867076,86.0092209 C68.9867076,85.0600335 68.1686284,84.2899973 67.1597239,84.2899973 C66.1508194,84.2899973 65.3327401,85.0600335 65.3327401,86.0092209 C65.3327401,86.9588573 66.1508194,87.7288934 67.1597239,87.7288934 C68.1686284,87.7288934 68.9867076,86.9588573 68.9867076,86.0092209" id="path28" fill="#A09D9E"></path>
                            <path d="M112.121304,83.7529925 L104.126398,84.2994263 C103.945451,84.3106514 86.0325689,85.4515621 83.9644718,85.6361013 C82.6762889,85.7510455 70.8163853,86.741092 70.0441041,86.741092 L69.8676469,86.741092 L69.5614284,85.4785021 L69.7091496,85.394988 C69.7333957,85.381518 70.3076675,85.0577885 70.8850824,84.8216141 C71.314327,84.6460549 71.6398525,84.4462496 72.1782043,84.1153361 C72.3905816,83.9851259 72.634838,83.8347107 72.9316274,83.6578044 C73.1722918,83.5141242 73.3882611,83.388404 73.5871684,83.2725618 C74.1457252,82.9474853 74.5493768,82.712209 74.9795195,82.3893775 C75.0827896,82.3121494 75.2125508,82.2165122 75.3616191,82.1078541 C76.0557741,81.5986873 77.2173388,80.7473821 77.9487609,80.015511 C78.4053946,79.5593263 78.7345121,79.2903749 79.0537515,79.0304035 C79.359072,78.7812081 79.6473304,78.5463808 80.012817,78.1665262 C80.6575819,77.4975152 81.4392921,76.647108 82.3512124,75.4110091 C83.1706387,74.3010795 84.6051958,72.1027722 85.1107705,71.1199097 C85.3500879,70.6542961 85.5063401,70.4068967 85.6567554,70.1675793 C85.8327636,69.8891989 85.9988939,69.6256355 86.2862543,69.0212806 C86.3738094,68.8367414 86.4577726,68.6638761 86.5367967,68.5004399 C86.9296723,67.6899936 87.2138897,67.1049458 87.3337729,66.3869937 C87.3669989,66.1871884 87.402021,65.9968121 87.437043,65.8082318 C87.5591712,65.1490989 87.6741154,64.5267839 87.6952184,63.5843315 C87.7230564,62.3706827 87.6090103,61.8372699 87.2071547,61.3011631 C86.9027322,60.8948175 86.730765,60.6204781 86.5650837,60.3551187 C86.4829166,60.2235615 86.4007495,60.0920043 86.3019693,59.9438341 L86.2413542,59.854034 C85.9885669,59.4782204 85.7699035,59.154042 85.9275028,58.9008056 C86.06355,58.6821423 86.3634824,58.7225523 86.4627116,58.7369203 C86.764889,58.7782284 87.0176764,58.8352515 87.2843828,58.8954176 C87.6821974,58.9856667 88.093482,59.0786098 88.7234299,59.1284489 C89.0736504,59.155838 89.3125188,59.17739 89.5118751,59.19535 C89.9689578,59.2366581 90.2203981,59.2595571 91.1561155,59.2959262 C92.3441713,59.3448672 93.2040076,59.2716801 94.2919362,59.181431 L94.9461302,59.1284489 C96.3761973,59.0157497 98.201834,58.5501361 99.4505049,58.2093446 C101.14638,57.7473229 103.081124,57.0203908 103.834547,56.7289893 C105.002847,56.2777437 106.155881,55.6495917 106.916488,55.2019381 C108.281001,54.3991249 109.264312,53.7530129 109.920751,53.2272331 C110.783731,52.5371191 112.104691,51.3531044 112.966772,50.5453522 C113.849058,49.7178439 114.56252,49.2252902 114.592603,49.2046362 L114.981887,48.9374808 L112.121304,83.7529925" id="path30" fill="#A09D9E"></path>
                            <path d="M94.1222139,93.7769324 C94.8738411,93.4083029 96.1198179,92.9076671 96.1328389,92.9031771 L110.933697,87.3463449 C110.919329,88.2843073 110.884756,90.0187968 110.816957,91.1480335 C110.72132,92.7312099 110.495472,93.7459514 110.209908,95.0305423 L110.192397,95.1082194 C109.859687,96.6051876 109.349623,98.200038 108.827884,99.3737258 C108.234305,100.709952 107.420267,102.432767 106.389361,103.906387 C106.001874,104.460005 105.745943,104.850636 105.530872,105.177508 C105.171222,105.725738 104.933252,106.088082 104.369307,106.765175 C103.386894,107.945149 102.330395,108.974258 101.334961,109.910424 C100.198989,110.978597 99.2403726,111.703284 98.2768171,112.411807 C97.4237159,113.039061 96.1108379,113.820322 94.7638359,114.501456 C93.5340231,115.122873 92.3693153,115.565588 91.0209663,116.077898 L90.9172472,116.116961 C89.6798013,116.587064 88.4809696,116.96198 86.3293584,117.378204 C84.5984608,117.713158 84.0147599,117.733812 83.1311266,117.764793 C82.9200963,117.772426 82.693351,117.780059 82.4329306,117.793529 C81.9520509,117.817326 81.4581501,117.829449 80.9642494,117.829449 C79.8062767,117.829449 78.6110369,117.759405 77.7669156,117.642216 C77.0036145,117.535803 75.9197269,117.328813 74.632442,117.0428 L74.3720216,116.984879 C73.1372697,116.711887 71.971215,116.453262 70.7629542,115.990791 C69.288436,115.425949 68.2534895,114.951355 67.0712707,114.298059 C65.893542,113.646559 65.4373573,113.365934 64.3597557,112.629123 C63.2965221,111.90264 62.2180225,111.050886 61.3231642,110.230113 C60.2931566,109.285864 59.5675716,108.620895 58.5460951,107.398715 C57.6269907,106.298663 57.4514314,106.05755 56.499999,104.670587 C55.6271417,103.398568 54.9114346,102.074016 54.5639081,101.32643 C54.3955329,100.964535 54.2455667,100.66146 54.1059274,100.380385 C53.7027248,99.567694 53.4117724,98.9808502 53.0229378,97.6688702 C52.6825953,96.5216735 52.3418038,95.2599816 52.1496315,93.8061175 C51.9659903,92.4173584 51.8223101,90.9127572 51.7163459,88.086298 C51.6629148,86.6607209 51.9116612,83.9703089 52.476953,81.7926556 C52.9439137,79.9966529 53.3336463,79.0299545 53.827547,77.8068767 L54.0381283,77.2837909 C54.6564023,75.7360856 54.8140015,75.301004 55.1071989,73.4542642 L55.1844271,72.9720375 C55.4084784,71.5760944 55.5108505,70.9389625 55.5355456,69.1371228 C55.5633836,67.0636377 55.5292596,66.2536405 55.2207961,64.0948453 C54.9433137,62.1524684 54.6083592,59.9451811 54.1364595,58.3274317 C53.6843158,56.7752364 52.8621956,54.4341469 52.1666936,52.9636698 C51.4312305,51.4096784 50.0842285,49.0299749 49.2836603,47.8724512 C48.422926,46.6273723 47.8059991,45.8703572 46.6614964,44.5391151 C46.1842087,43.9831176 45.5125037,43.2801622 44.9970509,42.7529456 C45.5919768,42.7555498 46.3054389,42.7687055 46.7414185,42.8122137 L47.1356411,42.8504685 C48.1036865,42.9420197 49.4291365,43.067246 51.088194,43.4241567 C52.3925409,43.7047821 53.2519282,43.8898153 55.2401031,44.55263 C56.5772271,44.9983979 57.7769569,45.5479747 59.0947739,46.1680446 C60.509126,46.8325656 61.0955208,47.1621321 62.6755542,48.1180545 C64.2488525,49.070385 65.4746244,50.0851265 66.7722363,51.1600341 C68.0447042,52.2138386 68.6764481,52.7997845 69.4833023,53.6739888 L69.6121655,53.81273 C70.4387757,54.7066903 71.8216978,56.2032096 72.659533,57.3203232 C73.295318,58.1680365 73.6069244,58.6825913 74.0379651,59.3938083 C74.2063403,59.6708417 74.3913286,59.9766112 74.6189719,60.3403017 C75.4815022,61.7200808 75.7764957,62.2234105 76.3588495,63.3876692 C76.9223454,64.5137629 77.7732016,66.2159245 78.7928822,67.4830043 C79.7667646,68.6921631 80.6589289,69.0410367 80.9521264,69.1559808 C81.2367928,69.266884 82.3287624,69.6498816 83.5096342,69.5802865 C83.8347107,69.5614284 84.083008,69.5353864 84.2711393,69.5151814 C84.2316272,69.7315997 84.1638281,69.8986279 83.9119388,70.4131827 L83.8508747,70.5384539 C83.5275942,71.1998319 83.1930887,71.8832109 82.3431304,73.2302129 C81.6898345,74.2656084 81.2789989,74.7366101 80.6580309,75.4500722 L80.4672056,75.6691845 C79.7074965,76.5429398 78.7448391,77.5711513 77.8252857,78.4907047 C76.7396021,79.5759393 75.4514192,80.5448828 74.9476404,80.9112673 C74.1012742,81.5263982 73.0663276,82.1343451 72.4480537,82.4975867 L72.1198342,82.691106 C71.9555,82.7894371 71.7835327,82.8989933 71.6039325,83.0134884 C71.0372936,83.374036 70.4024067,83.7781366 69.7239667,84.0129639 L69.2062689,83.5989853 C69.1847169,83.5805763 68.3926797,82.9129123 67.1902559,82.8805842 L67.1053948,82.8796862 C66.1175933,82.8796862 65.5253614,83.3475449 65.240246,83.5724943 C64.7737343,83.9402258 64.3557147,84.3560004 64.2537915,85.0694625 C64.0468022,86.5179386 64.2578325,87.4716161 64.9174145,88.07193 C65.3956002,88.5065626 65.937993,88.9991163 66.7866043,89.1014885 C67.6594616,89.2061056 68.5103179,88.8716001 68.9242965,88.5896277 C69.269578,88.3552494 69.6763726,87.9938038 69.8752799,87.8115096 L88.6430588,86.6602719 C88.4495395,87.0217174 88.2322232,87.462187 88.091686,87.8555116 C87.9129837,88.3565964 87.8617976,89.1665936 87.9399238,90.2644002 C88.0036819,91.1525235 88.4854596,92.155591 89.1396535,92.7603949 C90.2248882,93.7639114 90.8633671,93.9399197 91.7865125,94.1114379 C91.9584797,94.143317 92.172204,94.160828 92.3895204,94.160828 C92.822806,94.160828 93.476102,94.0943759 94.1222139,93.7769324" id="path32" fill="#A09D9E"></path>
                            <path d="M48.1360146,122.246269 L48.3129208,122.434849 C49.6172678,123.82271 50.8488766,125.133792 52.8550116,126.727744 C54.496109,128.031642 55.3685173,128.677305 56.9961447,129.703721 L57.5183325,130.033736 C58.6578962,130.754382 58.8949686,130.904798 60.0870653,131.507357 L60.2805846,131.605239 C61.6163616,132.280985 63.1299429,133.046531 64.7360183,133.630681 C66.4238118,134.244465 67.5301494,134.640932 68.9525835,135.040543 C70.1410883,135.37415 72.4413187,135.902175 75.0131945,136.291459 C76.9425504,136.583758 79.4142991,136.638087 81.2192818,136.677599 C83.7992396,136.732826 86.9013852,136.482733 89.8989137,135.986138 C92.4366654,135.565874 96.5005705,134.302835 98.7038168,133.387322 C100.150497,132.786559 104.265139,130.690175 105.692961,129.826747 C108.595301,128.072052 110.862755,126.191638 111.843821,125.333597 L122.892381,138.353719 C122.657553,138.610996 122.521057,138.764554 122.407011,138.892969 C122.278597,139.037547 122.179817,139.148899 121.992134,139.349153 C121.618117,139.747866 121.11344,140.227848 120.625376,140.691665 C120.272911,141.027069 119.921343,141.361574 119.611084,141.671834 C119.065997,142.21692 118.020274,143.072267 117.179745,143.760136 C116.904957,143.985085 116.648577,144.195217 116.431261,144.376165 C115.692655,144.991296 114.721018,145.63651 113.595373,146.383647 L113.031877,146.758562 C112.023422,147.430716 111.153707,147.934495 110.232358,148.467908 C109.944997,148.634038 109.655841,148.801515 109.35995,148.975279 C108.201079,149.657311 104.383675,151.404372 102.942832,151.946765 C101.640281,152.436625 98.2278761,153.549248 96.8947931,153.868039 C95.501544,154.201197 92.6876568,154.808246 90.9738213,154.971233 L90.2572162,155.040829 C88.8563341,155.178672 87.1133135,155.350639 85.5373212,155.374885 C85.1547726,155.380722 84.728222,155.384763 84.2715883,155.384763 C82.6776359,155.384763 80.3944675,155.335822 78.5737698,155.104138 C75.97226,154.772775 74.0904982,154.467006 72.2814745,154.082212 C70.644418,153.733788 68.9153165,153.155924 67.243238,152.596918 L66.8350964,152.460871 C65.0004796,151.849332 62.8991565,150.904634 60.9042466,149.989571 C59.4063803,149.302151 57.188766,148.020254 55.9104611,147.177929 C54.9909078,146.571778 53.0772669,145.310984 51.106154,143.754748 C50.0285524,142.903891 47.6888099,140.737463 46.2919688,139.297069 L46.1671466,139.168655 C44.8876294,137.84994 43.564649,136.486774 42.4330326,134.930089 C42.0871674,134.455046 41.7291791,133.979554 41.3764442,133.511696 C40.5118036,132.363601 39.6951612,131.279713 39.1840638,130.359711 C38.4526866,129.043241 36.9520365,126.041671 36.3671234,124.72565 C35.8000804,123.450489 34.4410003,119.761948 34.0137313,118.490827 C33.6248967,117.333752 32.7747588,113.503328 32.4724018,111.543889 C32.2280556,109.96161 32.0365568,107.621868 31.8964237,105.91342 L31.8387271,105.214326 C31.6966633,103.508124 31.828894,100.410019 31.9823625,99.0266482 C32.1273897,97.7187093 32.6730602,93.9884117 32.9754172,92.4752795 C33.2618348,91.0443144 34.2880258,87.437043 34.8056338,86.0415489 C35.2963466,84.72014 36.6724887,81.5659103 37.3314421,80.0824121 C37.3461693,80.049635 37.3621089,80.013715 37.380024,79.9737539 C37.2733863,80.5071667 37.1911294,81.0495595 37.1062234,81.6108103 C37.0276483,82.1289571 36.9459301,82.6695539 36.8383945,83.2433768 C36.5390008,84.8409211 36.4597522,85.6096103 36.3022428,87.1407026 L36.2790743,87.3638559 C36.1059846,89.0449144 36.1005517,93.0679604 36.1885558,94.803348 C36.2750333,96.5032645 37.2198654,101.545542 37.8360291,103.928389 C38.5133915,106.548307 39.8865253,109.819726 40.4708997,110.989373 C41.3975024,112.842848 42.7374999,115.297983 43.6423261,116.605024 C45.1039131,118.716226 46.6996614,120.719666 48.1360146,122.246269" id="path34" fill="#A09D9E"></path>
                        </g>
                    </g>
                </g>
            </g>
        </g>
    </g>
</svg>