<?xml version="1.0" encoding="UTF-8"?>
<svg width="200px" height="200px" viewBox="0 0 200 200" version="1.1" xmlns="http://www.w3.org/2000/svg" xmlns:xlink="http://www.w3.org/1999/xlink">
    <!-- Generator: Sketch 51.3 (57544) - http://www.bohemiancoding.com/sketch -->
    <title>catawba</title>
    <desc>Created with Sketch.</desc>
    <defs>
        <path d="M83.9750594,50.3371532 C83.9750594,50.3371532 78.1234966,50.6884036 74.1696586,49.6919011 C72.4634242,49.2620005 71.2675516,48.5006459 69.5277959,47.6387046 C67.6271379,46.6975783 56.9983701,45.6328588 64.8855142,45.0467281 C61.0561241,44.1355637 55.0713141,42.0371568 55.0713141,42.0371568 L59.5811867,41.4435356 L56.3514089,41.3523121 L53.9412271,40.1971718 L53.0826627,40.1209293 L50.7374283,38.3542441 L46.5866527,36.9516501 L45.9438817,36.7935473 L42.7241604,36.3077356 L42.5695433,35.3703545 L40.5850821,34.8259565 L39.4382344,34.1649208 L38.5855362,33.0440227 L35.3125998,32.5089878 L33.9348742,30.9809282 L33.6059464,30.6160344 C33.6059464,30.6160344 31.2816629,29.9488459 30.6652899,29.6572518 C30.0476598,29.3656578 27.5830059,27.8515091 27.5830059,27.8515091 L22.3260272,25.719395 L14.5981093,18.7957759 L23.1238343,19.755361 L17.2764616,18.644361 C17.2764616,18.644361 17.4465822,17.0210652 14.2909704,16.0724483 C11.1345205,15.1238314 8.61623245,14.9063397 8.61623245,14.9063397 L9.75344273,14.3381327 L6.01581721,13.017399 L5.32485931,11.1792866 L10.6472045,11.9291381 L5.18993606,10.8050297 L2.9846532,7.45892149 L6.087469,7.70022223 L1.99284159,6.66064943 L0.796130996,5.64889844 L1.1097228,4.9238994 L0.00507009739,3.84232636 L0.41918392,1.1683022 C0.41918392,1.1683022 1.19616587,-0.426984599 3.18578103,0.125706449 C5.17610852,0.678210235 9.84604533,3.13476946 9.84604533,3.13476946 L16.8591214,4.64174875 L18.3981683,5.89311512 L22.2878967,6.71950327 L26.3435556,8.53653528 L26.4214927,9.38611719 L28.3091612,9.83260381 L31.3952163,12.8592962 L33.5569215,13.3574137 L34.0819489,14.2051765 L36.3136298,14.541981 L38.246552,15.0839713 L44.5950682,20.8735839 L49.1313388,22.7975694 L50.573174,25.459368 L53.0835007,27.0698231 L55.5117002,29.0130698 L57.7086028,29.4306646 L58.5839278,31.0421897 L60.8834894,31.5665239 L61.3737384,30.97103 L63.8987308,33.5338472 L64.6399706,33.8187533 L76.8999689,44.976371 L83.9750594,50.3371532 Z" id="path-1"></path>
        <path d="M65.5844334,67.7113414 L66.0399041,63.7967585 L63.8698186,64.9411982 L63.7550082,61.1039279 L61.4055837,62.5030441 L61.9431816,60.8166142 L59.7726771,59.7941625 L60.1564961,58.9078772 C60.1133374,57.8640241 58.5998505,57.1208606 56.8336967,55.7220119 C55.7425782,55.5283292 54.247947,56.5649593 54.247947,56.5649593 C54.247947,56.5649593 56.9778383,55.5387624 55.7836418,54.1789712 C54.5890263,52.818645 53.0487223,51.093425 52.6460477,49.6223465 C52.2421159,48.1510006 51.3106427,45.4338258 50.3033274,46.2500216 C48.8744818,47.4073021 48.0276498,48.9233234 46.4429302,50.3879815 C47.364347,48.5089389 49.6517571,47.9562479 47.7682788,44.8963833 C45.8848004,41.8362512 44.9441088,41.6069887 44.9441088,41.6069887 L44.8804183,40.7239136 C44.8804183,40.7239136 42.0034523,37.2130147 41.8295605,37.6161634 C41.6552498,38.0185097 38.0554806,40.6543591 38.5851172,39.9628265 C38.9475663,39.4895881 40.8251784,36.5027558 40.8251784,36.5027558 L37.7881482,32.8754867 C37.7881482,32.8754867 38.3701619,31.3300384 36.3764822,29.0697835 C34.3823836,26.8095286 34.0509417,25.5345404 34.0509417,25.5345404 C34.0509417,25.5345404 32.5906698,27.7910501 31.8653526,28.648176 C32.2458194,27.6776227 32.6903957,26.0698964 32.6903957,26.0698964 C32.6903957,26.0698964 32.363982,25.7795864 31.3637901,23.9698844 C30.3631791,22.1600486 31.0319292,21.5025442 29.0336404,20.4257865 C27.0353516,19.3487345 26.5886802,19.3509281 26.5886802,19.3509281 L26.8484703,21.840392 L26.1503891,17.9603457 L24.5267009,16.9038658 L23.014471,15.0475354 L20.6185357,13.3721004 C20.6185357,13.3721004 19.6719779,12.2696343 17.9565251,11.7688951 C16.2414913,11.2686375 16.206713,11.3497488 16.206713,11.3497488 C16.206713,11.3497488 16.9668086,10.6223153 14.9094385,9.88257607 C12.8516494,9.14294383 13.1923096,9.73041215 13.1923096,9.73041215 L10.5483167,7.39790076 L9.45007492,7.18899639 C9.45007492,7.18899639 9.40482116,6.60685167 9.06457991,6.01914259 C8.72433866,5.43143351 8.07318731,5.22036224 8.07318731,5.22036224 L7.03570292,4.32626542 L5.43045142,2.21934883 L5.26242588,1.57783129 L3.27251741,1.02482189 C3.27251741,1.02482189 2.71480669,0.396155889 1.51432496,0.0807776961 C0.313005186,-0.234600229 0.0326832724,0.757617439 0.0326832724,0.757617439 L3.7321783,7.49664145 L4.71979975,8.99203724 L6.75077183,12.7401975 L8.5043551,14.6126056 L11.0787913,17.3615614 L13.3125673,19.7540769 L15.0917106,23.0562321 C15.0917106,23.0562321 17.1285489,23.8421716 17.1247777,24.5390813 C17.1201685,25.2349477 18.2385231,25.8090669 18.8205367,26.1816919 C19.4029694,26.5531934 22.6842862,30.0914327 22.6842862,30.0914327 L28.4528837,35.1606208 L31.0926865,38.1899884 L59.6721132,66.0645039 L65.5844334,67.7113414 Z" id="path-3"></path>
        <path d="M58.742316,29.9517886 C58.742316,29.9517886 35.1240425,21.787156 24.4801901,16.3758131 C13.8363796,10.9650052 12.4308732,10.6752838 12.4308732,10.6752838 L7.43297229,8.21385573 L4.53438504,5.6475341 C4.53438504,5.6475341 4.66302304,4.80330254 3.42822387,4.2324203 C2.19375991,3.6620731 0.551257862,1.50237799 0.551257862,1.50237799 L0.0415664183,0.0329046461 C0.0415664183,0.0329046461 1.84254044,-0.157781791 2.09147803,0.590411008 C2.34028991,1.33812228 2.39937121,2.52512395 2.66812828,1.90469748 C2.93671773,1.28376273 4.10799404,1.33812228 4.10799404,1.33812228 L6.08654717,2.72231106 L9.92511371,3.11625725 L11.0882192,4.5129926 L20.4062621,7.14563181 L22.1662982,8.4877936 L29.7509963,10.2659821 L30.0631634,11.5297345 L33.9394834,13.2742158 L38.7652942,14.695001 L41.8953461,17.5023291 L38.5402825,17.2005694 L45.6819965,23.2140941 L58.742316,29.9517886 Z" id="path-5"></path>
    </defs>
    <g id="catawba" stroke="none" stroke-width="1" fill="none" fill-rule="evenodd">
        <g id="catawba_BGL" transform="translate(0.000000, 36.158192)">
            <g id="catawba" transform="translate(0.000000, 23.680000)">
                <g id="g10">
                    <g>
                        <g transform="translate(100.040147, 40.571697) scale(-1, 1) rotate(-180.000000) translate(-100.040147, -40.571697) translate(0.104754, 0.042802)">
                            <g id="g12" transform="translate(0.293311, 0.000000)">
                                <path d="M80.2751453,55.011218 C82.0161581,55.5687244 83.7504666,55.5930685 83.8975414,57.0694973 C84.7917222,57.387308 85.8107698,57.8115907 86.9467231,58.0908789 C88.0118625,58.3554536 89.2504748,58.767163 90.3956464,58.805953 C90.8578213,58.8195964 91.4482153,58.6170857 91.8408336,58.9019918 C91.9732428,59.2807965 91.5588356,59.3067457 91.6045084,59.6280341 C92.1743706,59.9923929 93.1657632,60.5563197 94.2602338,60.8607545 C95.3831975,61.1764251 96.9909631,61.5223252 97.9438062,61.1576989 C97.0215513,60.430854 95.7360093,59.9453098 94.5690488,59.4100074 C93.3999933,58.874705 92.1890362,58.3554536 91.0317131,57.816941 C88.7053345,56.7404508 86.5155553,55.5580237 84.2754941,54.4258898 C79.7798681,52.1514565 75.3131541,49.8837111 70.9256343,47.5349079 C62.1514327,42.8413142 54.1507352,37.6442528 45.8940188,32.6106445 C45.5349218,32.9375508 44.8946649,32.7864034 44.691442,32.4594971 C44.6943751,32.2727699 44.9277672,32.2305022 45.2525048,32.2516361 C44.4852859,31.7401427 43.9506211,31.124585 43.1549091,30.6005184 C42.7371499,30.3252429 42.1308333,30.1617897 41.7080458,29.8314057 C41.5496576,29.7062075 41.4964426,29.521353 41.3036951,29.3653903 C40.9441791,29.0770065 40.3416336,28.8533619 40.0143819,28.5438442 C39.3326423,27.8868214 38.8151572,27.0620651 37.9963993,26.6337696 C37.5560132,26.4010562 37.0163201,26.3194366 36.6333392,26.1209922 C35.4885867,25.5326678 34.6945508,24.607325 33.5728441,23.905921 C32.8391465,23.4492687 31.9164726,23.1469472 31.3164412,22.6199646 C30.7155718,22.0886749 30.462067,21.4415235 29.4631321,21.1239535 C29.4832449,22.2900621 30.8098505,23.0835188 31.6516543,23.9131439 C32.5311695,24.7849566 33.5384847,25.5768617 34.6316983,26.2846326 C35.0528097,26.4839064 35.8937754,26.662394 35.7588522,27.0540396 C35.061609,27.5320932 34.6308603,26.6605214 33.8347293,26.7011573 C34.0287338,27.6837756 34.7368714,28.6150039 35.2191592,29.3873267 C35.6649925,30.1106939 36.96101,30.6088114 37.7944334,31.1387635 C38.2867776,31.269312 38.938348,31.5194408 39.8836488,31.7529835 C40.5771208,31.9268699 41.7985533,32.0633038 41.7302537,32.4718029 C41.6254996,33.1066218 40.3336723,32.5071152 39.7294508,32.6323134 C40.3793451,33.3519353 41.6405842,33.7235171 42.945401,34.0734299 C44.1203227,34.3896355 45.6308765,34.7539943 45.8416417,35.5632345 C45.4155022,35.9417717 44.4446414,35.4294758 43.7595497,35.6726492 C44.0180827,36.3903985 45.1066871,36.5656224 45.692891,37.0658801 C47.6153378,38.384206 49.5578974,39.8229149 51.3336886,41.2378147 C52.3275953,42.0363542 53.5486088,42.6484342 54.7134741,43.3495974 C56.9652678,44.7104587 59.3155303,45.8543633 62.1908203,47.0496312 C63.8945406,47.7585525 65.190558,48.8572466 66.8569859,49.6739774 C67.6606592,50.0691007 68.75932,50.2900701 69.5881343,50.7001743 C70.45466,51.1255271 71.2063753,51.5455295 72.0817003,51.8809963 C72.971272,52.2231512 73.8943649,52.5404269 74.8132677,52.9596267 C76.541291,53.7485357 78.1427713,54.3250358 80.2751453,55.011218" id="path24" fill="#D01C2E" fill-rule="nonzero"></path>
                                <path d="M73.5595709,32.825461 C74.7022284,33.9321807 75.6211311,34.9005938 76.8069473,35.9080645 C77.4748593,36.475469 78.1293628,37.018797 78.7792571,37.4446848 C78.8433666,37.4337165 78.8563561,37.3906462 78.9334551,37.3901112 C78.9682335,36.2074166 78.7222709,35.0637795 78.6686368,33.6962303 C78.6606755,33.4324581 78.8462997,33.1518323 78.8781449,32.8597032 C79.0268957,31.5360269 78.9921174,29.8835716 79.2967422,28.8439988 C79.3968871,28.5045192 79.8892313,28.0978926 79.8850411,27.7937253 C79.8699566,27.3100537 78.9200466,26.6532984 78.4473962,26.1980105 C78.2207083,25.9778169 77.184062,24.883938 76.6376647,24.8673252 C76.2014687,24.8537353 74.9155077,25.7429098 74.591189,26.0947487 C74.4344769,26.2640605 74.2756698,26.6008382 74.077056,26.8822933 C73.9102875,27.1179762 73.7024554,27.3964619 73.5574758,27.6187689 C73.0043743,28.4633215 72.7219573,28.8482791 72.4634242,29.7177108 C72.329758,30.1748981 71.8298715,30.609614 71.9719181,31.2345347 C72.0867285,31.7291745 72.9419408,32.2286296 73.5595709,32.825461" id="path26" fill="#D01C2E" fill-rule="nonzero"></path>
                                <path d="M67.2294914,26.6608424 C67.3531012,27.1498108 68.1454611,27.513902 68.4697797,27.8145917 C68.527604,27.8135216 68.579981,27.8119165 68.631939,27.8124515 C68.6688125,27.1353649 69.3949677,26.8649047 69.8567237,26.3665732 C70.2317433,25.961525 70.4659734,25.3638911 71.0806704,24.8732641 C71.7536106,24.3336279 72.7609258,23.7814719 73.2528509,23.2132915 C73.5046797,22.9206007 73.8394738,22.4904862 73.8541393,22.2389662 C73.8952029,21.5725535 72.8966871,20.7724088 72.3427475,20.1745876 C71.7293076,19.5178055 71.0517582,18.8246678 70.4412515,18.3712257 C70.0159499,18.0590061 69.4423166,17.7099761 68.8125351,17.5311674 C68.4986918,17.7762134 68.6700695,18.037364 68.6005128,18.3501186 C68.5200617,18.738768 68.1509083,19.1652175 68.0901509,19.5779969 C67.9719883,20.3615288 68.3574833,21.426061 68.2690709,22.3716817 C68.2225601,22.917979 68.1018834,23.5099684 68.0130519,24.0559715 C67.8546638,25.0369045 67.0614659,25.9762653 67.2294914,26.6608424" id="path28" fill="#D01C2E" fill-rule="nonzero"></path>
                                <path d="M57.1555012,15.2639571 C59.1831212,17.7171723 61.1068251,20.2387383 63.1453394,22.6863089 C63.2530266,22.6726388 63.2790056,22.5964498 63.3963302,22.5854816 C63.5115597,21.0271925 62.7464359,19.5656644 62.0936085,18.095977 C61.7852125,17.4033744 61.4696932,16.6457382 61.157945,15.930664 C60.8399117,15.2166332 60.3232646,14.4930788 60.2151583,13.8154036 C59.9562063,12.1888707 60.6299845,10.2809363 59.9105335,8.75397346 C59.4160942,8.78417618 59.2983506,9.06247458 58.9974969,9.22266403 C59.100994,11.5163051 57.6947752,13.2204715 57.1555012,15.2639571" id="path30" fill="#D01C2E" fill-rule="nonzero"></path>
                                <path d="M139.090789,66.2504286 C125.251518,66.2504286 113.560125,65.0136954 104.325006,62.5720637 C96.1797475,60.4185482 90.0658805,57.2984922 86.6441933,53.5489676 C82.1058276,48.5752832 82.3643607,42.5443699 87.3531689,37.0022109 C93.8621683,29.7714818 110.100308,22.0453104 136.154742,22.0453104 C148.480945,22.0453104 173.459345,22.0458454 190.552697,34.1911376 C186.339488,34.1932777 179.897531,34.1871248 175.610994,34.1817744 C172.500636,32.756709 157.214502,26.3026098 135.715194,26.5435895 C111.93518,26.8116687 99.5901213,36.398424 99.685657,45.7297001 C99.7376151,50.8015634 103.320624,55.494622 109.775151,58.9442595 C116.958348,62.7834024 127.26154,64.8317835 139.571401,64.8678984 C139.697944,64.8684334 139.825744,64.8687009 139.951868,64.8687009 C164.760986,64.8687009 175.4723,57.693883 178.119645,55.5491956 L192.071631,55.5582912 L193.854545,57.594099 L179.568184,61.9407225 L176.828655,60.8639647 L175.789495,61.2649734 C175.759745,61.2762091 172.521168,62.5033117 166.511636,63.7247963 C160.968469,64.8515798 151.864502,66.204148 139.973657,66.2488235 C139.679507,66.2498935 139.383682,66.2504286 139.090789,66.2504286 Z M136.154742,19.502343 C124.186379,19.502343 112.915678,21.1341994 103.561139,24.2212973 C94.9092901,27.076511 88.1103314,31.0579732 83.9000555,35.7349807 C78.1809018,42.0879851 77.9269779,49.0474515 83.2032313,54.8290386 C87.9791793,60.0630175 101.577516,68.7934494 139.078638,68.7934494 C139.383682,68.7934494 139.689563,68.7929144 139.99754,68.7915768 C160.385617,68.7150668 173.095639,65.0444599 176.76287,63.8243128 L179.325155,64.831516 L199.404835,58.7222201 L194.409742,53.0168754 L176.024563,53.0051047 L175.440035,53.5864201 C175.375926,53.6476816 173.068403,55.831694 167.598983,57.9766489 C162.525953,59.9659087 153.622275,62.3256801 139.941392,62.3256801 C139.824068,62.3256801 139.707162,62.3254126 139.589419,62.325145 C128.21983,62.2919729 118.794477,60.4485101 112.331988,56.9945924 C106.789241,54.0321041 103.712404,50.0257628 103.668407,45.7131141 C103.559463,35.0364927 119.742711,29.2669439 135.785589,29.0858346 C157.972502,28.847744 173.582117,36.382908 173.737153,36.4591505 L174.272237,36.7221201 L174.949786,36.7239928 C175.709044,36.7247953 193.553692,36.7467317 194.837977,36.7234577 L198.734409,36.6520306 L196.360263,34.6782868 C188.512506,28.1535363 177.730798,23.6870917 164.31599,21.4019309 C153.163033,19.502343 142.515829,19.502343 136.154742,19.502343 Z" id="path32" fill="#1B458F" fill-rule="nonzero"></path>
                                <path d="M139.069838,66.571717 C103.312662,66.571717 90.6089257,58.5317476 86.2096734,53.7105482 C81.5778671,48.6349396 81.8355621,42.4865861 86.9165539,36.8422355 C95.3115457,27.5168447 114.178174,21.7239952 136.154742,21.7239952 C148.687101,21.7239952 174.263019,21.7245034 191.631245,34.497445 C186.720793,34.496375 177.690153,34.5009228 175.442968,34.5022603 C172.747437,33.2601768 157.827942,26.8592868 136.80296,26.8590193 C136.44512,26.8590193 136.086861,26.860892 135.726088,26.8649047 C112.267879,27.1091481 100.091265,36.5423484 100.186801,45.7339804 C100.23834,50.7162254 103.758496,55.3263536 110.097793,58.7147296 C117.19174,62.5062544 127.385149,64.5230684 139.57601,64.5468775 C139.657718,64.5468775 139.744455,64.547145 139.825744,64.547145 C165.029156,64.547145 175.567416,57.142797 177.872006,55.2279071 L192.417738,55.2370027 L194.566035,57.7337431 L179.537596,62.3058838 L176.826141,61.2403618 L176.049285,61.5399813 C175.921904,61.5886695 162.894687,66.4839713 139.977009,66.5701119 C139.67406,66.571182 139.369016,66.571717 139.069838,66.571717 Z M136.154742,19.823578 C113.115968,19.823578 93.2604609,25.9818029 84.3362514,35.8952237 C78.7092814,42.1455014 78.4549385,48.9877951 83.6377512,54.6671906 C88.3592271,59.8412455 101.831021,68.472161 139.077381,68.472161 C139.382425,68.472161 139.686211,68.4716259 139.994188,68.4705559 C152.408804,68.4237403 161.930111,66.9968022 167.73223,65.8079547 C172.370322,64.8577327 175.420761,63.9136637 176.78005,63.4538012 L179.355743,64.4660872 L198.693346,58.5828435 L194.179702,53.3378964 L176.30279,53.3263931 L175.864918,53.7584338 C175.773153,53.8475171 166.417357,62.646701 139.819459,62.646701 C139.741103,62.646701 139.663584,62.646701 139.584809,62.6464335 C128.098315,62.6242296 118.562761,60.760703 112.008508,57.257562 C106.350112,54.2335448 103.209165,50.1362475 103.163073,45.7214071 C103.04952,34.8136507 119.482921,28.9344197 135.774275,28.7645461 C158.07977,28.5422391 173.89177,36.1303715 174.048901,36.207149 L174.449481,36.4024368 L174.955233,36.4027043 C181.522476,36.398424 194.110145,36.3936087 194.74705,36.4024368 L197.86956,36.4481823 L195.957588,34.8708994 C188.134135,28.417576 177.432877,23.9944425 164.15006,21.7245034 C153.026434,19.823578 142.464709,19.823578 136.154742,19.823578 Z" id="path34" fill="#FFFFFF" fill-rule="nonzero"></path>
                                <path d="M177.11191,54.2771501 L193.29893,54.2873158 L196.62969,58.1582933 L179.446669,63.3855842 L176.819018,62.3532344 C176.819018,62.3532344 163.652687,67.4312506 139.985389,67.5200664 C53.6068521,67.8453676 71.7779135,20.7732649 136.154742,20.7732649 C149.300541,20.7732649 177.145432,20.8639533 194.78099,35.4522148 C193.044168,35.4754888 174.953557,35.4522148 174.953557,35.4522148 C174.953557,35.4522148 158.882187,27.5339659 135.750391,27.8148592 C90.7350496,28.3605948 88.5561647,63.4559413 139.5802,63.5961204 C167.565462,63.6737005 177.11191,54.2771501 177.11191,54.2771501" id="path36" fill="#222D62" fill-rule="nonzero"></path>
                                <path d="M109.870268,67.859546 C109.870268,67.859546 104.018705,68.2107964 100.064867,67.2142939 C98.3586324,66.7843934 97.1627598,66.0230387 95.4230041,65.1610975 C93.5223461,64.2199711 82.8935783,63.1552517 90.7807223,62.569121 C86.9513323,61.6579565 80.9665222,59.5595497 80.9665222,59.5595497 L85.4763948,58.9659284 L82.2466171,58.874705 L79.8364353,57.7195647 L78.9778708,57.6433222 L76.6326365,55.876637 L72.4818609,54.474043 L71.8390899,54.3159402 L68.6193685,53.8301285 L68.4647515,52.8927473 L66.4802903,52.3483493 L65.3334426,51.6873137 L64.4807444,50.5664156 L61.207808,50.0313807 L59.8300823,48.503321 L59.5011545,48.1384272 C59.5011545,48.1384272 57.1768711,47.4712387 56.5604981,47.1796447 C55.942868,46.8880507 53.4782141,45.3739019 53.4782141,45.3739019 L48.2212354,43.2417879 L40.4933175,36.3181688 L49.0190424,37.2777539 L43.1716698,36.1667539 C43.1716698,36.1667539 43.3417904,34.543458 40.1861786,33.5948412 C37.0297287,32.6462243 34.5114406,32.4287326 34.5114406,32.4287326 L35.6486509,31.8605255 L31.9110254,30.5397919 L31.2200675,28.7016795 L36.5424127,29.4515309 L31.0851442,28.3274226 L28.8798614,24.9813144 L31.9826772,25.2226151 L27.8880498,24.1830423 L26.6913392,23.1712913 L27.004931,22.4462923 L25.9002783,21.3647192 L26.3143921,18.6906951 C26.3143921,18.6906951 27.091374,17.0954083 29.0809892,17.6480993 C31.0713167,18.2006031 35.7412535,20.6571623 35.7412535,20.6571623 L42.7543295,22.1641416 L44.2933765,23.415508 L48.1831049,24.2418961 L52.2387638,26.0589281 L52.3167008,26.9085101 L54.2043693,27.3549967 L57.2904245,30.3816891 L59.4521296,30.8798066 L59.9771571,31.7275694 L62.208838,32.0643738 L64.1417602,32.6063642 L70.4902764,38.3959768 L75.026547,40.3199623 L76.4683821,42.9817609 L78.9787089,44.5922159 L81.4069084,46.5354627 L83.6038109,46.9530574 L84.479136,48.5645825 L86.7786975,49.0889167 L87.2689466,48.4934229 L89.7939389,51.0562401 L90.5351788,51.3411461 L102.795177,62.4987639 L109.870268,67.859546" id="path38" fill="#FFFFFF"></path>
                                <g id="g40" transform="translate(25.895208, 17.522393)">
                                    <g id="g42-Clipped">
                                        <mask id="mask-2" fill="white">
                                            <use xlink:href="#path-1"></use>
                                        </mask>
                                        <g id="path44"></g>
                                        <g id="g42" mask="url(#mask-2)">
                                            <g transform="translate(-0.419016, 0.936311)">
                                                <path d="M10.633377,7.42925381 L8.95479763,2.04273648 L6.93052982,0.650308165 C6.93052982,0.650308165 7.84105227,1.96970422 7.88462997,3.85497993 C7.92736963,5.73961361 7.92736963,5.73961361 7.92736963,5.73961361 L10.633377,7.42925381" id="path48" fill="#D01C2E" fill-rule="evenodd"></path>
                                                <path d="M16.1409274,11.360396 C16.1409274,11.360396 18.0147684,13.7610975 18.4333657,12.1321838 C18.851963,10.5032701 17.4084518,9.75395368 17.23456,7.50867974 C17.0610872,5.26287076 17.1360912,3.76562911 17.1360912,3.76562911 C17.1360912,3.76562911 16.7237791,2.84748247 15.153306,3.05293587 C13.5832518,3.25860329 13.408103,5.10185201 14.718786,7.36582542 C16.0298881,9.63089566 16.1409274,11.360396 16.1409274,11.360396" id="path50" fill="#D01C2E" fill-rule="nonzero"></path>
                                                <path d="M26.1168678,17.6524063 L24.4852183,13.7637727 L24.6612051,11.6362065 L23.8847679,12.3817776 L22.5682186,9.19430718 L23.9036236,7.43270478 L23.4611424,5.80721527 L24.6930504,8.25449163 L25.1510352,9.18146634 C25.1510352,9.18146634 24.7269907,10.2758802 26.7487444,13.5449434 C28.7704981,16.8134716 30.3728165,20.506015 30.3728165,20.506015 L26.1168678,17.6524063" id="path52" fill="#222D62" fill-rule="nonzero"></path>
                                                <path d="M34.1146322,22.561084 C34.1146322,22.561084 33.0226757,20.3377465 33.5753582,18.3985125 C34.1280407,16.459011 35.2065887,13.3047128 35.2065887,13.3047128 L36.7942415,13.6062049 L35.9134692,16.9670266 L37.4122906,17.5871321 C37.4122906,17.5871321 36.4896166,18.2802698 35.4274103,18.750833 C34.3652039,19.2205936 37.1240073,19.5769269 37.1240073,19.5769269 C37.1240073,19.5769269 36.8038789,19.655042 36.2549675,20.9233422 C35.7060561,22.1916424 34.1146322,22.561084 34.1146322,22.561084" id="path54" fill="#D01C2E" fill-rule="nonzero"></path>
                                                <path d="M41.7864019,27.5703482 C41.7864019,27.5703482 44.2661404,20.4380655 43.5135871,18.7543107 C42.7606148,17.0708234 44.4999515,22.7534291 45.2143743,23.4949874 C45.3375651,24.3266992 46.3515846,23.5139812 44.9378236,25.4580305 C43.5240625,27.4018122 42.6458043,28.1594216 42.6458043,28.1594216 L41.7864019,27.5703482" id="path56" fill="#222D62" fill-rule="evenodd"></path>
                                                <path d="M55.7153422,35.4447243 C55.7153422,35.4447243 55.96759,30.5365817 56.532843,28.6695774 C56.4745997,31.4892113 57.5778697,34.972556 57.5778697,34.972556 C57.5778697,34.972556 59.6448771,32.7735626 58.9878596,33.6999755 C58.253324,34.7360706 58.6032026,36.6092278 58.6032026,36.6092278 L55.7153422,35.4447243" id="path58" fill="#222D62" fill-rule="nonzero"></path>
                                                <path d="M66.3143598,39.3924793 C68.0520205,38.6859657 69.2927278,36.8318023 69.2927278,36.8318023 C69.2927278,36.8318023 70.763475,37.8283048 69.7528077,38.8411258 C68.7417213,39.8536794 68.3604165,40.6209194 66.7727636,40.3191597 C65.1846918,40.0174001 64.5771182,40.0989929 66.3143598,39.3924793" id="path60" fill="#222D62" fill-rule="nonzero"></path>
                                                <path d="M47.0722927,31.7128559 L43.6560527,30.7444428 L41.6150242,30.4196766 L41.0937679,30.595168 L40.4053241,30.4627469 L39.066148,30.0622733 L40.0135438,30.4964541 L38.4053592,30.3236378 L37.5643935,30.157242 L37.2585116,30.2005798 L35.8749197,30.042477 L34.2872669,29.5662959 L34.1146322,29.8410363 C34.1146322,29.8410363 24.0540505,26.6393875 12.5034468,17.7813498 C0.173514655,8.32541051 0.0014665571,0.00510958326 0.0014665571,0.00510958326 L47.0722927,31.7128559" id="path62" fill="#D01C2E" fill-rule="evenodd"></path>
                                            </g>
                                        </g>
                                    </g>
                                </g>
                                <path d="M26.5099889,18.7032416 C26.5145562,18.7032416 26.8876064,17.9768515 27.7162531,17.7353635 C28.099653,17.6235412 28.5324968,17.6328508 29.0026332,17.7631586 C30.9447738,18.3024737 35.5698758,20.7293653 35.6163866,20.7540304 L35.6784011,20.7759668 L42.6361669,22.2713626 L44.1752139,23.522836 L48.0938544,24.355377 L52.0481114,26.1268508 L52.1277245,26.9978609 L54.0748933,27.4582584 L57.1617865,30.4854859 L59.3021218,30.9785205 L59.8321774,31.8348439 L62.1635842,32.1866293 L64.0122842,32.7072183 L70.3813321,38.5005761 L74.8627116,40.4010201 L76.3288497,43.0703092 L78.8391764,44.6807642 L81.2920979,46.6446098 L83.45087,47.0549816 L84.324519,48.6624939 L86.8729762,49.2438093 L87.2840312,48.7446218 L89.6523114,51.1485336 L90.3981604,51.4350448 L102.634275,62.5709936 L109.471783,67.752539 C108.116265,67.8084502 103.427054,67.9266929 100.137357,67.0976563 C98.8585188,66.7752978 97.8549748,66.2536388 96.6926235,65.6495844 C96.3305934,65.4609846 95.9518027,65.2643593 95.5432618,65.0621161 C94.880378,64.7336046 93.2470524,64.4005454 91.6677799,64.0787219 C90.4094739,63.8221727 88.0671727,63.344654 88.101113,63.1226146 C88.1023701,63.1132514 88.1664796,62.8896069 90.8033492,62.6937841 L90.849441,62.4514133 C87.6980193,61.7015619 83.0226353,60.124279 81.5338703,59.6130532 L85.5162014,59.0889865 L85.4851942,58.8407303 L82.3161738,58.7508444 L79.9139533,57.5997168 L79.0792728,57.525882 L76.7248201,55.7658847 L72.5736255,54.3630232 L71.9094846,54.1987675 L68.8003836,53.7284718 L68.6482807,52.8063392 L66.5879775,52.2410748 L65.4935068,51.6105362 L64.6181818,50.4594086 L61.337284,49.9230361 L59.6398489,48.0407834 L59.5816057,48.0239298 C59.5585598,48.0175094 57.2698927,47.3591489 56.6774036,47.0787906 C56.0769532,46.7952221 53.6391163,45.2987295 53.6143944,45.283481 L48.3590918,43.1489593 L40.9324466,36.4949978 L48.9851021,37.4013469 L49.0751906,37.1571035 L43.3698645,36.0733903 C43.3535229,35.6892353 43.0903806,34.328909 40.2699818,33.4811462 C37.8903882,32.7660721 35.8472646,32.4608347 34.9807389,32.3532927 L36.0039767,31.8423344 L32.0824031,30.4568615 L31.4844668,28.8675403 L36.500092,29.5740539 L36.602751,29.3319506 L31.2313809,28.2254985 L29.1924475,25.1318999 L31.9587932,25.3472782 L32.055167,25.1059775 L28.0120786,24.0794863 L26.9067555,23.1450746 L27.2180427,22.4251851 L26.1029146,21.3331522 L26.5099889,18.7032416 Z M28.2773159,17.405782 C28.0250681,17.405782 27.7824576,17.43973 27.5511606,17.5071444 C26.5523934,17.7993269 26.1436848,18.6186794 26.1266309,18.6531891 L25.6978096,21.3962863 L26.7918193,22.4675064 L26.4757553,23.1975348 L27.7644399,24.2868123 L30.4972643,24.9808061 L28.5668562,24.8304345 L30.9389075,28.4290792 L32.542064,28.7594633 L30.9556682,28.5358187 L31.7400667,30.6229898 L35.2933251,31.8784492 L34.0232866,32.5130006 L34.4850426,32.5528607 C34.5097646,32.5550008 37.013387,32.779983 40.1023753,33.7085361 C43.0899616,34.6063246 42.9818554,36.0958618 42.9755702,36.1587284 L42.9659328,36.2582449 L45.6811585,36.7745536 L40.0546074,36.1413398 L48.1160623,43.3477248 L53.373041,45.4798388 C53.4430167,45.5266544 55.8230293,46.9875672 56.4431735,47.2807663 C57.021835,47.5541691 58.9895356,48.1285291 59.3624601,48.2360711 L61.078751,50.1399928 L64.3437261,50.6736901 L65.2018715,51.7804098 L66.4027722,52.4636493 L68.2812224,52.978888 L68.4387725,53.9317851 L71.7938361,54.4381956 L72.4110472,54.5912156 L76.5073506,55.976421 L78.8764689,57.7610299 L79.7593363,57.83968 L82.1774794,58.9982981 L83.888742,59.0467187 L80.4033643,59.5055111 L80.8718246,59.6694993 C80.9279727,59.6892956 86.2029691,61.5343635 89.9917146,62.508127 C88.0571163,62.6892363 87.739921,62.8978999 87.7093328,63.098538 C87.6481564,63.5024893 89.0556322,63.8095994 91.5479412,64.3178825 C93.0949494,64.6332856 94.6943347,64.9593894 95.3023274,65.2603465 C95.7083542,65.4615196 96.0846308,65.6568073 96.4445659,65.8440696 C97.6320581,66.4614998 98.657391,66.9946621 99.992796,67.3311991 C103.94412,68.3271665 109.829204,67.9882219 109.888704,67.9844767 L110.262467,67.9620052 L102.945604,62.4179736 L90.6721971,51.2472475 L89.9355664,50.964214 L87.253862,48.242224 L86.6839998,48.9340241 L84.634172,48.4666712 L83.7563329,46.8508658 L81.5221379,46.4263156 L79.1320688,44.5141009 L76.6397598,42.913544 L75.1908014,40.238637 L70.6298088,38.3044858 L64.2712363,32.5055101 L62.288032,31.9496089 L60.1225557,31.6205624 L59.6025565,30.7808251 L57.4190625,30.2781598 L54.3338454,27.2517349 L52.5056772,26.8191592 L52.4294162,25.9908985 L48.2451193,24.1228509 L44.4115391,23.308501 L42.8729112,22.0571346 L42.817182,22.0453104 L35.8380463,20.5456611 C35.4102306,20.3211872 31.0931055,18.0697603 29.1593453,17.5328528 C28.8547204,17.4482905 28.5597329,17.405782 28.2773159,17.405782 Z" id="path64" fill="#1B458F" fill-rule="nonzero"></path>
                                <path d="M103.768133,63.3342209 L99.3894125,61.7756642 L98.4059812,60.0771959 L95.8483056,59.2551148 L96.2635508,58.2971348 L93.8944326,57.0871534 L91.5621878,54.8062996 L86.0730741,51.1338201 L86.1275462,50.1440056 C86.1275462,50.1440056 81.8933863,48.3511036 79.8456536,46.7845214 C77.8653825,45.2695701 75.8846924,42.4028531 75.8846924,42.4028531 L71.3186716,40.016865 L78.7398696,41.0976355 L70.7442003,39.0246428 L67.6749058,36.4265134 L66.8946974,35.6046998 L66.9550357,35.0471934 L64.3131379,33.8733268 L61.2187024,28.3041486 L58.5080859,26.0934111 L62.9601342,26.9261662 L56.5047689,24.5238328 L55.6717645,21.8170912 L54.041791,20.83565 L52.8136542,17.7171723 L51.7598282,16.845547 L51.1753004,14.887025 L49.8968816,12.4312951 L48.6415087,12.0249093 L48.724474,9.18598739 L47.8835082,7.82060508 L47.1188035,6.16386953 L48.2354819,0.857101828 L82.5139495,39.770749 L103.768133,63.3342209" id="path66" fill="#D01C2E" fill-rule="nonzero"></path>
                                <path d="M47.3190933,6.15426565 L48.3523875,1.24552379 L82.3421528,39.832278 L103.243106,63.0038368 L99.5486387,61.688721 L98.5635313,59.9875776 L96.0808597,59.1893055 L96.4877245,58.2508543 L94.0419263,57.0018153 L91.7268612,54.7375477 L86.2725258,51.085667 L86.327836,50.0781963 L86.2360714,50.0394062 C86.1937508,50.0217501 82.0023306,48.2384788 79.9964995,46.7039987 C78.056454,45.2198119 76.0841442,42.3806492 76.0644504,42.3520248 L76.0455947,42.3247381 L72.0904997,40.2578982 L78.6958728,41.219891 L78.8136164,40.9812654 L70.8686481,38.9213811 L67.8316179,36.3510734 L67.0949872,35.5734002 L67.1590967,34.9845943 L64.4773923,33.7933391 L61.3733194,28.226836 L59.0402366,26.3237169 L62.9048241,27.0465491 L63.0590221,26.8178216 L56.6803367,24.4438718 L55.8527795,21.7531278 L54.2186159,20.7694929 L52.9695282,17.6403681 L51.9441953,16.7923645 L51.3680479,14.8635102 L50.0582029,12.3426933 L48.8405415,11.9486133 L48.9218307,9.16330191 L48.0661993,7.77461884 L47.3190933,6.15426565 Z M48.1189954,0.468677194 L46.9180947,6.17379442 L47.6945319,7.85623841 L48.5271173,9.20875312 L48.442895,12.1012053 L49.7359794,12.5198166 L50.9884191,14.9269386 L51.575461,16.8985422 L52.6330581,17.7730835 L53.8649661,20.9016733 L55.4907494,21.8808406 L56.328782,24.603874 L61.4680171,26.5163027 L57.9759352,25.8630786 L61.0439726,28.3651426 L64.1484645,33.9533145 L66.7513938,35.109525 L66.6939886,35.6357318 L67.5064612,36.4915201 L70.6201714,39.1279045 L76.414329,40.6302825 L71.3622493,39.894342 L71.1938048,40.1139739 L75.7237901,42.4812358 C75.9349744,42.7813903 77.8234809,45.4335583 79.6948077,46.8647767 C81.5699057,48.2994727 85.2953798,49.936412 85.9272564,50.2092798 L85.8736223,51.1825083 L91.4197222,54.8927078 L93.7716608,57.1853323 L96.0393771,58.3436829 L95.6157516,59.3209241 L98.2484311,60.1673493 L99.2301863,61.8628749 L104.293579,63.6648724 L82.6840701,39.7081499 L48.1189954,0.468677194 Z" id="path68" fill="#1B458F" fill-rule="nonzero"></path>
                                <path d="M113.436096,67.8183483 L113.891567,63.9037655 L111.721482,65.0482052 L111.606671,61.2109349 L109.257247,62.6100511 L109.794845,60.9236211 L107.62434,59.9011694 L108.008159,59.0148841 C107.965,57.9710311 106.451513,57.2278676 104.68536,55.8290188 C103.594241,55.6353362 102.09961,56.6719663 102.09961,56.6719663 C102.09961,56.6719663 104.829501,55.6457694 103.635305,54.2859782 C102.440689,52.925652 100.900385,51.200432 100.497711,49.7293535 C100.093779,48.2580075 99.1623057,45.5408328 98.1549904,46.3570286 C96.7261448,47.514309 95.8793128,49.0303304 94.2945931,50.4949884 C95.21601,48.6159459 97.5034201,48.0632548 95.6199417,45.0033903 C93.7364634,41.9432582 92.7957718,41.7139957 92.7957718,41.7139957 L92.7320813,40.8309206 C92.7320813,40.8309206 89.8551153,37.3200216 89.6812235,37.7231704 C89.5069128,38.1255167 85.9071436,40.7613661 86.4367802,40.0698335 C86.7992293,39.5965951 88.6768414,36.6097628 88.6768414,36.6097628 L85.6398112,32.9824937 C85.6398112,32.9824937 86.2218249,31.4370454 84.2281452,29.1767905 C82.2340466,26.9165356 81.9026047,25.6415474 81.9026047,25.6415474 C81.9026047,25.6415474 80.4423328,27.8980571 79.7170156,28.755183 C80.0974824,27.7846297 80.5420587,26.1769033 80.5420587,26.1769033 C80.5420587,26.1769033 80.215645,25.8865934 79.2154531,24.0768914 C78.2148421,22.2670556 78.8835922,21.6095512 76.8853034,20.5327935 C74.8870146,19.4557415 74.4403432,19.4579351 74.4403432,19.4579351 L74.7001333,21.947399 L74.0020521,18.0673527 L72.3783639,17.0108728 L70.866134,15.1545424 L68.4701987,13.4791074 C68.4701987,13.4791074 67.5236409,12.3766412 65.8081881,11.8759021 C64.0931543,11.3756445 64.058376,11.4567557 64.058376,11.4567557 C64.058376,11.4567557 64.8184716,10.7293223 62.7611015,9.98958305 C60.7033123,9.24995081 61.0439726,9.83741913 61.0439726,9.83741913 L58.3999797,7.50490774 L57.3017379,7.29600337 C57.3017379,7.29600337 57.2564842,6.71385865 56.9162429,6.12614957 C56.5760017,5.53844048 55.9248503,5.32736922 55.9248503,5.32736922 L54.8873659,4.4332724 L53.2821144,2.32635581 L53.1140889,1.68483827 L51.1241804,1.13182887 C51.1241804,1.13182887 50.5664697,0.503162868 49.365988,0.187784675 C48.1646682,-0.12759325 47.8843463,0.864624419 47.8843463,0.864624419 L51.5838413,7.60364843 L52.5714628,9.09904422 L54.6024348,12.8472044 L56.3560181,14.7196126 L58.9304543,17.4685684 L61.1642303,19.8610839 L62.9433736,23.163239 C62.9433736,23.163239 64.9802119,23.9491785 64.9764407,24.6460882 C64.9718315,25.3419546 66.0901861,25.9160738 66.6721997,26.2886989 C67.2546324,26.6602004 70.5359492,30.1984396 70.5359492,30.1984396 L76.3045467,35.2676278 L78.9443495,38.2969954 L107.523776,66.1715109 L113.436096,67.8183483" id="path70" fill="#FFFFFF"></path>
                                <g id="g72" transform="translate(47.851663, 0.107007)">
                                    <g id="g74-Clipped">
                                        <mask id="mask-4" fill="white">
                                            <use xlink:href="#path-3"></use>
                                        </mask>
                                        <g id="path76"></g>
                                        <g id="g74" mask="url(#mask-4)">
                                            <g transform="translate(6.955671, 7.811509)">
                                                <path d="M1.07142471,6.68689289 C1.07142471,6.68689289 3.99783465,6.54216595 3.47657835,5.09912333 C2.95532206,3.65672275 2.74623292,3.47772683 3.48831081,3.08637555 C4.23080772,2.69419497 6.72898298,2.32980946 6.53539744,1.4526465 C6.34223092,0.576740867 4.24673034,0.0101389113 4.24673034,0.0101389113 L2.39048807,0.329287227 C2.39048807,0.329287227 1.51139184,2.97508829 0.569862186,3.87504374 C-0.895437862,5.27624663 1.07142471,6.68689289 1.07142471,6.68689289" id="path80" fill="#222D62" fill-rule="nonzero"></path>
                                                <path d="M9.24266184,15.826894 L10.04424,14.6356121 L11.7073158,13.4403441 L10.6530708,12.5682105 L11.2015631,11.2998835 L11.4110713,9.49175983 L11.2371795,7.24627188 C11.2371795,7.24627188 11.6821748,6.99475197 11.1780982,6.05959123 C10.6744406,5.12400245 10.4766649,4.91836179 10.4766649,4.91836179 L11.7110869,5.48870899 L12.5918592,4.11548843 L15.281525,6.50340267 C15.281525,6.50340267 12.8130998,7.57470305 13.1328093,9.48317252 C13.4525187,11.391642 14.510954,11.5926011 14.510954,11.5926011 L10.6723455,18.4790888 L9.24266184,15.826894" id="path82" fill="#222D62" fill-rule="evenodd"></path>
                                                <path d="M21.9204194,15.2136905 C24.8506005,14.3977623 23.9069758,15.2551825 23.9069758,15.2551825 L22.8368081,17.0667839 C22.8368081,17.0667839 21.6954077,17.7187507 20.7635154,18.5494191 C19.8312041,19.380034 20.0918322,20.1015286 20.0918322,20.1015286 L18.697765,20.6761561 L17.9632294,21.7125187 L18.0105782,22.9259778 L14.718786,23.1402593 L13.5338079,21.9072714 L15.6921609,22.1071069 L16.8792342,19.8960752 L17.3409901,18.4031138 L19.1498836,16.8702121 C19.1498836,16.8702121 18.9902383,16.0291105 21.9204194,15.2136905" id="path84" fill="#D01C2E" fill-rule="nonzero"></path>
                                                <path d="M25.5444915,31.6820914 L26.1520652,29.3734158 L27.6135941,28.6436282 L26.6377051,27.589342 L27.4501777,26.7167 L27.4476636,25.0559517 L28.434866,26.0832187 L29.8947189,22.3358343 L29.4748645,20.8891 L28.2094353,21.6860344 L26.9419109,22.9152771 L26.6418952,23.8470404 C26.6418952,23.8470404 26.8752873,25.580821 26.0414449,26.1575886 C25.8164331,26.8911214 24.8694562,27.7824896 24.8694562,27.7824896 L23.630425,29.7886029 L25.5444915,31.6820914" id="path86" fill="#D01C2E" fill-rule="nonzero"></path>
                                            </g>
                                        </g>
                                    </g>
                                </g>
                                <path d="M48.0879882,0.856577494 C48.1265377,0.754169139 48.2748695,0.42186164 48.6301953,0.298030489 C48.8145625,0.234077767 49.0303559,0.235958682 49.2914031,0.30388377 C50.4160428,0.599196282 50.9481936,1.18773467 50.9532217,1.19390095 L50.985486,1.23058026 L52.938102,1.77282475 L53.1052895,2.38121829 L54.710541,4.48814023 L55.8355998,5.43916476 C55.840628,5.44106413 56.4251558,5.63980285 56.7318757,6.16972816 C57.0570324,6.73097977 57.1048002,7.2965384 57.1052193,7.30239704 L57.1123425,7.39099881 L58.280141,7.61306505 L60.8843274,9.91120044 L61.2283398,9.79386729 C61.2203785,9.77880606 61.2166073,9.75341865 61.2216355,9.74515236 C61.2216355,9.74536637 61.2220545,9.74536637 61.2220545,9.74536637 C61.2275018,9.74515236 61.4684361,9.66866912 62.6647277,10.0991047 C63.4059676,10.3654718 63.8576672,10.6658939 63.9703825,10.9673861 C64.0416153,11.1570559 63.9607452,11.3007396 63.9180055,11.3590316 L63.8974737,11.3649973 L63.8689806,11.4233161 L64.0638232,11.4802705 L64.0877071,11.5773526 C64.1124291,11.5778609 64.36761,11.5939654 65.7264799,11.9901053 C67.3598055,12.4666341 68.2887647,13.5286516 68.297983,13.5392988 L68.3252191,13.5636697 L70.7035557,15.2270664 L72.2379934,17.0989662 L73.8143328,18.1246281 L74.5048717,21.9618182 L74.8962329,21.9391594 L74.6565556,19.6427897 C74.9456768,19.7381864 75.567078,19.9867904 76.7583414,20.6285112 C78.0204185,21.3088081 78.1666552,21.7896172 78.4080086,22.5859899 C78.5370657,23.0102726 78.6828833,23.4909479 79.0298288,24.1185706 C79.8355972,25.5768617 80.2127119,26.0618441 80.3354837,26.2009264 C80.2600607,26.4705305 79.8649284,27.8608722 79.5263632,28.724686 L79.8900693,28.8148394 C80.445266,28.1588866 81.4090035,26.7174758 81.8519037,26.0452313 C82.0873909,26.5835031 82.6761088,27.67361 84.0567676,29.238587 C85.9829856,31.4220644 85.454187,32.9383533 85.4483207,32.9536018 L85.4315601,32.9993473 L85.4663384,33.0418826 L88.459791,36.6172533 C88.203772,37.0241473 86.5884641,39.5858944 86.2599553,40.0147249 C86.2138635,40.0751838 86.1363455,40.1763054 86.2331383,40.2565607 L86.3068852,40.3180897 L86.4531219,40.307389 C86.8914129,40.2530829 89.2932144,38.4104228 89.7868156,37.8681649 C90.2251067,38.1771475 91.4704232,39.5636905 92.5376577,40.8643603 L92.6055384,41.8017414 L92.7257961,41.8311684 C92.7538702,41.8405315 93.6551743,42.154597 95.4368316,45.0494033 C96.7512858,47.1847275 95.9916092,48.0565669 95.111675,49.0659102 C94.7496449,49.4816324 94.3746253,49.9115329 94.1072929,50.457536 L94.4567525,50.5661481 C95.2076297,49.8719403 95.7888053,49.1731847 96.3507062,48.4974357 C96.9742025,47.7475843 97.5629204,47.039198 98.3091884,46.4348761 C98.4051432,46.3570286 98.4914605,46.3230538 98.5639504,46.3353596 C98.9511214,46.3976912 99.6391462,47.329722 100.303706,49.7510224 C100.701772,51.2036422 102.179642,52.8857919 103.367134,54.23729 L103.463927,54.3472397 C104.04636,55.010683 103.61184,55.5893232 103.067957,55.9889943 C102.457031,56.2423333 101.989828,56.5628192 101.955049,56.5868958 L102.199336,56.7800434 C102.211906,56.7752281 102.770874,56.5609466 103.284588,56.1989955 C103.711566,56.0218989 104.185473,55.8918854 104.57432,55.9411087 C105.017221,56.2899514 105.448388,56.6018768 105.83095,56.8782223 C106.953495,57.6901377 107.767644,58.2786761 107.810802,58.9999032 L107.398909,59.9509277 L109.576956,60.9768571 L108.941727,62.9693271 L111.418533,61.4945034 L111.532505,65.3106398 L113.661527,64.187869 L113.260529,67.6324237 L107.656185,66.0714594 L79.1086039,38.2282434 L76.4763434,35.2063663 L70.6947563,30.1246048 C70.5707275,29.989241 67.4042212,26.5781795 66.8108941,26.1998831 C66.7317,26.1490013 66.6416115,26.0942404 66.5460758,26.0356006 C65.9649002,25.6806317 65.1696072,25.194285 65.1729594,24.6466233 C65.1767305,23.9513722 63.4625348,23.2237515 63.1063709,23.0800679 L61.3502735,19.8203142 L54.7712984,12.7827327 L52.757087,9.05787328 L51.7652754,7.55463924 L48.0879882,0.856577494 Z M48.9214116,0 C48.750034,0 48.5895507,0.0262292565 48.4403809,0.0781653882 C47.8550151,0.282982632 47.697046,0.819689513 47.6907607,0.842366967 L47.6815424,0.874760655 L51.3982171,7.64514039 L52.3900287,9.14773239 L54.4168106,12.8884824 L60.9957857,19.9252346 L62.7803762,23.2469452 L62.8415526,23.270567 C63.3812456,23.4792574 64.7824362,24.1333108 64.779503,24.64558 C64.7757319,25.3009977 65.6418386,25.8306823 66.2741342,26.217031 C66.3671559,26.2739854 66.4551493,26.3274889 66.5326673,26.3772204 C66.9965184,26.673068 69.4574012,29.2819249 70.3666666,30.2623763 L76.1457396,35.3411951 L78.7721338,38.3582568 L107.391367,66.2715624 L113.611664,68.004273 L114.122026,63.6193945 L111.910039,64.7857705 L111.794809,60.9270989 L109.572347,62.2507752 L110.012733,60.8701176 L107.849771,59.8514112 L108.205516,59.0304002 L108.205097,59.0116739 C108.170737,58.1909304 107.313011,57.5705574 106.125519,56.7120939 C105.734158,56.4290605 105.29,56.1080395 104.838301,55.7503687 L104.798913,55.7190692 L104.738156,55.708101 C104.434788,55.65433 104.111307,55.6818843 103.79495,55.7527764 C104.164103,55.3322389 104.31872,54.8071022 103.806682,54.2244492 L103.70989,54.1144995 C102.537482,52.7795875 101.077629,51.1180366 100.691296,49.7074171 C100.260128,48.1378922 99.5582761,46.2363782 98.6603241,46.0919188 C98.4977458,46.0662371 98.2501071,46.0769378 98.0003734,46.2794485 C97.3588594,46.7986999 96.8371841,47.3850981 96.3142518,48.0068087 C96.6628734,47.275416 96.6725107,46.3701369 95.8026329,44.9576448 C94.2472443,42.4293374 93.3132569,41.7971936 92.9876813,41.6428361 L92.9063921,40.7728693 C90.2494097,37.5300228 89.8534392,37.5535644 89.7059455,37.5664052 C89.6020295,37.5733607 89.5219973,37.6193737 89.4914091,37.6897307 C89.3820459,37.9425347 87.7365688,39.188631 86.8616628,39.7694114 C87.4763597,38.8550367 88.793747,36.7603751 88.8591135,36.6563108 L88.8934729,36.6020048 L85.8468053,32.9635 C85.9310275,32.6769888 86.2369094,31.1986874 84.3995229,29.1152615 C82.450259,26.9058349 82.0999614,25.6334951 82.0966092,25.6209486 L81.9830558,25.1888544 L81.7207516,25.5936886 C81.7106952,25.6096861 80.9627511,26.7632481 80.2780784,27.7257759 C80.5273932,26.9497077 80.7327111,26.209701 80.7356443,26.1990538 L80.7503098,26.1465936 L80.7017039,26.1038443 C80.6899715,26.0925551 80.3623007,25.7747711 79.4006583,24.0350784 C79.0637692,23.4251119 78.9204656,22.9540404 78.7943417,22.538024 C78.5538263,21.7462526 78.3799345,21.174006 77.0122653,20.4367547 C75.1132834,19.4135005 74.564372,19.3327369 74.4399242,19.3324159 C74.4395051,19.3324159 74.4390861,19.3324159 74.4386671,19.3324159 L74.4273537,19.3327369 L74.1893524,18.0100772 L72.5392662,16.9362621 L71.0111137,15.0700069 L68.630682,13.4050318 C68.5100053,13.2688654 67.5609333,12.2493832 65.8898963,11.7618861 C65.0480925,11.5163051 64.5934598,11.4042956 64.3378599,11.356945 C64.3881418,11.2480654 64.4220821,11.0928785 64.3529444,10.9088533 C64.212155,10.5324562 63.7089164,10.1862619 62.8578942,9.88016842 C61.540926,9.40668928 61.1537549,9.45642078 60.9668736,9.55548249 L58.5202374,7.39653643 L57.4877812,7.20049964 C57.4609641,7.0113648 57.3721327,6.55144881 57.1006101,6.08257097 C56.7859288,5.5386545 56.2206758,5.29288622 56.0576785,5.23133045 L55.0453351,4.35866179 L53.4715098,2.28811151 L53.2904947,1.5968491 L51.2599417,1.03266015 C51.114962,0.886568875 50.5333674,0.358746249 49.4409919,0.0716863831 C49.2587198,0.0240347841 49.085247,0 48.9214116,0 Z" id="path88" fill="#1B458F" fill-rule="nonzero"></path>
                                <path d="M61.465922,49.1060379 C61.465922,49.1060379 37.8476485,40.9414053 27.2037961,35.5300624 C16.5599856,30.1192545 15.1544792,29.8295331 15.1544792,29.8295331 L10.1565783,27.368105 L7.25799107,24.8017834 C7.25799107,24.8017834 7.38662908,23.9575518 6.15182991,23.3866696 C4.91736595,22.8163224 3.2748639,20.6566273 3.2748639,20.6566273 L2.76517246,19.1871539 C2.76517246,19.1871539 4.56614647,18.9964675 4.81508406,19.7446603 C5.06389595,20.4923716 5.12297725,21.6793732 5.39173432,21.0589468 C5.66032377,20.438012 6.83160007,20.4923716 6.83160007,20.4923716 L8.8101532,21.8765604 L12.6487197,22.2705066 L13.8118252,23.6672419 L23.1298681,26.2998811 L24.8899042,27.6420429 L32.4746023,29.4202314 L32.7867695,30.6839838 L36.6630894,32.4284651 L41.4889003,33.8492503 L44.6189521,36.6565784 L41.2638885,36.3548187 L48.4056026,42.3683434 L61.465922,49.1060379" id="path90" fill="#FFFFFF" fill-rule="nonzero"></path>
                                <g id="g92" transform="translate(2.723606, 19.154249)">
                                    <g id="g94-Clipped">
                                        <mask id="mask-6" fill="white">
                                            <use xlink:href="#path-5"></use>
                                        </mask>
                                        <g id="path96"></g>
                                        <g id="g94" mask="url(#mask-6)" fill-rule="nonzero">
                                            <g transform="translate(5.614819, 2.701926)">
                                                <polyline id="path100" fill="#D01C2E" points="14.3748994 11.4767661 13.555513 9.9489739 13.831938 7.98566335 13.3895406 6.36049485 12.998347 5.27892181 11.9481664 3.73531938 15.5181854 4.74979905 15.2260053 7.41050084 15.2885225 10.4088364 17.5463081 12.7514867 14.3748994 11.4767661 14.3748994 11.4767661"></polyline>
                                                <polyline id="path102" fill="#D01C2E" points="0.0412312052 3.66226036 0.258281656 2.49920151 0.992691548 1.46307968 1.33234617 0.0161045504 4.24304299 0.569517896 3.30712816 2.07085257 1.55773505 4.79043495 0.0412312052 3.66226036 0.0412312052 3.66226036"></polyline>
                                                <path d="M5.97064725,8.17105294 L5.58372759,6.41747607 C5.58372759,6.41747607 4.7543686,3.03956 6.34596017,2.67057318 C7.93759363,2.30147936 9.78549748,3.32443933 9.78549748,3.32443933 L7.70415964,6.14862103 L8.52794572,8.99259903 L8.77692521,9.74057781 L5.97064725,8.17105294" id="path104" fill="#222D62"></path>
                                            </g>
                                        </g>
                                    </g>
                                </g>
                                <path d="M3.00480789,19.2967826 C3.44837855,19.2770398 4.46122479,19.2852793 4.62275558,19.7705828 C4.70182395,20.0078975 4.7620366,20.2951577 4.81558688,20.548577 C4.94129178,21.1453817 4.98369623,21.346528 5.2398409,21.3574963 C5.46962945,21.3687855 5.53658825,21.1951132 5.58108779,21.0923865 C5.76851378,20.659356 6.50556348,20.6185863 6.74322953,20.6168207 L8.71113965,21.9937062 L12.5210455,22.3848435 L13.670072,23.764324 L23.0085629,26.4029288 L24.772873,27.7482473 L32.2981965,29.5125249 L32.6057544,30.7562135 L36.549536,32.5309243 L41.3590052,33.9493018 L44.1936506,36.4915201 L40.8188932,36.1881553 L48.2819928,42.4659873 L59.6214122,48.3160588 C53.7526697,46.2419961 36.0580298,39.871068 27.3264003,35.4318835 C17.5453444,30.4595367 15.540938,29.7993036 15.2536604,29.7198509 L10.2992953,27.2798243 L7.45798756,24.7640634 C7.46699641,24.5642547 7.4178877,23.8167842 6.267227,23.2849862 C5.13558964,22.7622839 3.60060718,20.7946663 3.46178708,20.6146271 L3.00480789,19.2967826 Z M3.25835466,19.038976 C2.9717475,19.038976 2.75897101,19.0602972 2.73311771,19.0633469 L2.52834444,19.0849623 L3.09795521,20.7114951 C3.16604536,20.8008459 4.77661837,22.9061815 6.03676803,23.488353 C7.15994126,24.0076044 7.06662632,24.7584188 7.06222665,24.7900929 L7.05569,24.8369084 L7.09838776,24.8751634 L10.0364044,27.467354 L15.094099,29.9488459 C15.152007,29.9627568 16.732327,30.3675107 27.0812338,35.6285088 C37.6167705,40.9844756 61.1357372,49.1349297 61.3720624,49.2165226 L61.5895319,49.0086615 L48.5476491,42.2803302 L41.7084648,36.521482 L45.0442537,36.8216366 L41.6187953,33.7491987 L41.5714465,33.7352878 L36.7452166,32.3145027 L32.9682035,30.6122891 L32.6505892,29.3276703 L25.0069355,27.5358385 L23.2093974,26.1853569 L13.9537461,23.5698656 L12.776394,22.1563034 L8.90899915,21.7596285 L6.92407697,20.3709187 L6.84601423,20.3674944 C6.42502854,20.3484739 5.61628516,20.4367547 5.28647742,20.8802719 C5.25815191,20.766577 5.23032923,20.6341558 5.20531396,20.5151373 C5.15113515,20.2574378 5.08941404,19.9650679 5.00741255,19.7184436 C4.81361751,19.1362721 3.86835861,19.038976 3.25835466,19.038976 Z" id="path106" fill="#1B458F" fill-rule="nonzero"></path>
                                <path d="M84.5729957,58.9501449 L74.4780546,57.7479215 L71.7934171,56.5403477 L68.1211581,55.7549165 L61.4412001,53.7137584 L66.5896535,53.1805961 L58.3467646,52.9283272 L56.8123269,52.298056 L51.5151226,51.2911204 L51.9203114,50.0105143 L50.0108541,49.959686 L44.7132308,48.9524828 L43.0099295,47.8808079 L39.3033112,46.9576052 L46.3784016,45.2789332 L36.6509379,46.2363782 L29.8896907,42.7725623 L24.9018462,41.7372697 L24.6560093,40.2447899 L26.0004651,39.5420216 C26.0004651,39.5420216 21.8874009,39.6316399 20.2293115,39.142083 C18.5715991,38.6527936 12.661835,35.7660128 12.0387158,34.1151626 C11.415429,32.4645799 11.9260842,33.3457824 11.9260842,33.3457824 C11.9260842,33.3457824 3.25508633,28.9453879 2.78758983,26.590191 C2.32063805,24.2357165 3.75296151,26.0762633 2.76337069,24.9297102 C1.77344465,23.7831305 -0.779747458,22.8154663 0.441433686,19.992649 C0.880101865,18.9795337 2.0831396,18.9463882 2.0831396,18.9463882 C2.0831396,18.9463882 5.60417559,23.6020479 7.82332788,25.4556495 C10.0470475,27.313264 14.0326468,29.1634146 14.0326468,29.1634146 C14.0326468,29.1634146 15.7152487,28.9092731 16.6843916,30.1029359 C17.6539953,31.2968663 22.1356681,34.0504234 22.1356681,34.0504234 L24.5677645,35.2973222 L27.8981062,35.8427903 C27.8981062,35.8427903 27.1647019,34.4468842 26.230086,33.1729661 C25.2956377,31.897978 26.5788752,29.9632918 26.5788752,29.9632918 L27.0538721,33.3294639 C27.0538721,33.3294639 29.6609078,36.0905114 29.3143813,36.5474312 C28.9682738,37.0048861 30.7528643,37.3440982 30.7528643,37.3440982 C30.7528643,37.3440982 29.6709642,31.9458636 30.3267247,31.4603194 C30.9829042,30.9750428 29.9290782,35.2700354 32.0953926,36.9891025 C34.2617069,38.7081697 32.6732161,38.0578348 33.4643189,37.946815 C34.2554217,37.8355278 35.2962582,33.7117463 35.6817532,32.4776883 C36.0672482,31.2438978 34.084882,37.0557144 35.6364994,38.620959 C37.1881168,40.1867386 36.5470219,39.5936524 39.8157681,40.8250352 C43.0845144,42.0566856 43.4649812,42.3637956 43.4649812,42.3637956 L46.4429302,43.7885935 L49.6995249,43.6104269 C49.6995249,43.6104269 59.5099539,47.0951092 60.9811202,48.1592936 C62.4527055,49.2232105 61.2006847,49.5883718 61.2006847,49.5883718 L65.9259317,50.6678047 L66.6064142,51.8430089 L68.6662984,52.2346544 L69.8952732,53.8587528 L73.0957198,54.7059806 L75.9701717,55.3298313 L77.6856245,55.8298214 L80.4234771,57.7447113 L84.5729957,58.9501449" id="path108" fill="#222D62"></path>
                                <path d="M3.12020498,25.4133283 C3.14295756,25.4133283 3.16684149,25.408299 3.18925887,25.3946288 C3.25194371,25.3553305 3.23673341,25.3381826 3.09091574,25.1730709 C3.03527037,25.1099635 2.95716573,25.021442 2.85144791,24.8988655 C2.62178507,24.6330334 2.31259294,24.3791058 1.98508979,24.1103311 C0.871260621,23.1951271 -0.391361237,22.158176 0.538184553,20.0097701 C0.898412878,19.1772291 1.77641966,19.0378257 2.02355548,19.014846 C2.37678623,19.4776779 5.65395472,23.7488615 7.74346337,25.4947338 C9.95067371,27.3381431 13.9335914,29.1965868 13.9736912,29.2150455 L14.0106904,29.2321666 L14.0555251,29.2257462 C14.1205146,29.2161156 15.6751489,28.9994264 16.5955182,30.1326303 C17.5613508,31.3220129 21.8826242,33.9838115 22.0661114,34.0967039 L24.5429168,35.3596538 L28.0518851,35.9342812 L27.9932229,35.822459 C27.9856806,35.8082805 27.2473738,34.4083617 26.3209287,33.1456794 C25.6169394,32.1850242 26.2137444,30.8177425 26.5188302,30.2506055 L26.9679737,33.362636 C27.9647297,34.4185274 29.4589419,36.2092892 29.2238738,36.5196094 C29.153479,36.6127055 29.1509649,36.7079417 29.2163315,36.8026429 C29.4652272,37.1627214 30.6728322,37.3957291 30.7243712,37.4053597 L30.8718649,37.433449 L30.8525902,37.3358052 C30.4197463,35.1774744 29.9433248,31.8426019 30.4025667,31.5023197 C30.4034047,31.5017846 30.4042427,31.5012496 30.4050808,31.5007146 C30.4733804,31.6117343 30.487208,32.0405648 30.5001975,32.4562869 C30.5416801,33.7491987 30.6103987,35.9131474 32.0170365,37.0294977 C32.7436108,37.6057303 33.0235137,37.8967893 33.1312009,38.0340257 C33.1249156,38.0471341 33.1224015,38.0594399 33.1215635,38.0701406 C33.1148593,38.1354148 33.1705884,38.2022942 33.2455923,38.2188803 L33.3168251,38.2351988 L33.3759064,38.1929311 C33.4069136,38.1651093 33.3964382,38.1132109 33.3541176,38.0436563 C33.3826107,38.0294779 33.4278644,38.0174396 33.4861077,38.0094141 C33.9683955,37.9414647 34.4502642,36.850261 35.0507146,34.940989 C34.8512629,36.3510734 34.8365973,37.9337067 35.5518581,38.6552012 L35.6662496,38.7710363 C36.6940966,39.809004 36.7150474,39.8226474 37.8773987,40.2118852 C38.3085665,40.3563447 38.8985414,40.5540401 39.7650672,40.8801438 C42.9382777,42.0759468 43.3702835,42.3913499 43.3874632,42.4044583 L46.41318,43.8546703 L49.6773171,43.6759687 C50.2471793,43.8790144 59.5003165,47.1849951 60.9056972,48.2018289 C61.4319817,48.5819712 61.6645358,48.9206483 61.5794755,49.1814778 C61.4994433,49.4262562 61.1721916,49.5260402 61.1583641,49.5303205 L60.9371235,49.5961298 L65.8479946,50.718098 L66.5297342,51.8951748 L68.5950656,52.2878904 L69.8219454,53.9085111 L73.0571703,54.7653695 L75.9379075,55.3902902 L77.6252862,55.8825223 L80.3819945,57.8030301 L83.7823119,58.7907045 L74.5178612,57.6874626 L71.8252624,56.4793538 L68.1530034,55.6941901 L61.77348,53.7442554 L66.6055761,53.2439977 L66.5942627,53.1166594 L58.3781908,52.8649255 L56.841239,52.2367946 L51.6316092,51.246445 L52.0422451,49.9497879 L50.0150442,49.8957494 L44.7660269,48.8957691 L43.0463839,47.8211515 L39.5848901,46.9592103 L46.413599,45.3388571 L46.3633171,45.2155316 L36.679431,46.1686963 L29.9206979,42.7115683 L24.9948259,41.6893841 L24.7613919,40.2726117 L26.2936089,39.4716645 L25.9968615,39.4780849 C25.9555884,39.4794225 21.8888675,39.5615503 20.2713807,39.0840317 C18.5470448,38.574946 12.7395625,35.6988659 12.1362628,34.1004491 C12.0121921,33.7722052 11.9373977,33.5547135 11.892521,33.4107892 L12.1447688,33.5386625 L12.0201953,33.3235785 C11.8706065,33.0654241 11.8084244,33.0317169 11.7124697,33.0499081 C11.6732079,33.0573986 11.6412788,33.063819 11.6321024,33.1103671 C9.99731022,32.2513685 3.2902418,28.6133988 2.8871062,26.5821388 C2.68367378,25.5561826 2.85781696,25.3970097 2.91610213,25.3729867 C2.93965085,25.3633828 2.97861937,25.3732007 3.03279818,25.3937728 C3.05081588,25.4004607 3.08387626,25.4133283 3.12020498,25.4133283 Z M2.1446931,18.880579 L2.07869803,18.8824516 C2.06595993,18.8827726 0.797597553,18.9297754 0.344724721,19.9758221 C-0.611680014,22.185971 0.740318023,23.2964895 1.82682732,24.1886869 C2.14926038,24.4535024 2.45371763,24.703872 2.67550296,24.9607423 C2.78189121,25.0840411 2.86012155,25.1728569 2.91610213,25.235991 C2.9177363,25.2378636 2.91937046,25.2394419 2.92100462,25.2411006 C2.88337696,25.2424649 2.84457605,25.2498751 2.80644556,25.2656587 C2.65455215,25.329087 2.47726635,25.5359048 2.68790585,26.5984573 C2.88467591,27.589877 4.49101685,29.0360763 7.46175871,30.8969277 C9.26696479,32.027724 11.0528542,32.9750032 11.6525923,33.2871961 C11.6898847,33.439681 11.7769982,33.6956952 11.9410012,34.1301436 C12.5837303,35.8323571 18.5174203,38.7073671 20.1870746,39.2004018 C21.6082942,39.6198691 24.7329407,39.6220093 25.7109248,39.610506 L24.5505848,40.2172356 L24.8090341,41.7854229 L29.8410848,42.829811 L36.6224448,46.3040601 L45.4192733,45.4381061 L39.0213132,46.9562676 L42.9542003,47.935649 L44.6847377,49.0140119 L49.982361,50.0209475 L51.7987967,50.0712408 L51.3982171,51.3357958 L56.7700062,52.3569099 L58.3149194,52.9914613 L58.3421554,52.9922638 L65.6280111,53.2153734 L61.1089201,53.6832614 L68.0775804,55.8127003 L71.7477443,56.597864 L74.4596179,57.8110556 L84.5545589,59.013279 L84.6144783,58.8920936 L80.4838155,57.6917428 L77.7271071,55.7717701 L76.0116543,55.2715125 L73.1279841,54.6455217 L69.9690201,53.8089946 L68.7371121,52.1814184 L66.6830942,51.790843 L66.0038687,50.6175114 L61.4240204,49.5712507 C61.5539155,49.5038363 61.7160748,49.3874662 61.7751561,49.2098346 C61.8773961,48.9032596 61.6352046,48.5356907 61.0565431,48.1170258 C59.590405,47.0565867 50.1495485,43.6971026 49.7481308,43.5545158 L49.7213138,43.5451527 L49.6911446,43.5467578 L46.4722613,43.7227842 L43.5332809,42.3167125 C43.4545058,42.2613364 42.8833866,41.9063408 39.8668881,40.7699266 C38.9965912,40.4419503 38.4036832,40.2434523 37.9708393,40.0987254 C36.8449425,39.7212582 36.8449425,39.7212582 35.8359512,38.7025518 L35.7211407,38.5867167 C34.5009652,37.3556015 35.5317453,33.3661137 35.779384,32.4937393 C35.779384,32.4926693 35.779803,32.4913317 35.780222,32.4902616 C35.8032679,32.4164268 35.8187715,32.3674711 35.8258948,32.3345665 C35.8279899,32.3289486 35.8288279,32.3254709 35.8292469,32.3244008 L35.8279899,32.3241333 C35.8380463,32.2695597 35.8217046,32.2639419 35.7777079,32.250031 L35.7098273,32.2280945 L35.6582883,32.2639419 C35.6566122,32.2652794 35.651165,32.2778528 35.6432037,32.3008593 L35.6331473,32.3000567 C35.6310522,32.3099549 35.6155486,32.3629233 35.5837034,32.465115 C35.5200129,32.6684282 35.4387237,32.9503916 35.343607,33.2797056 C34.9530838,34.6325413 34.0383712,37.800483 33.442949,37.8842159 C33.3687831,37.8943816 33.3117969,37.9093626 33.2678002,37.9262162 C33.0515878,37.6683293 32.5919269,37.2812316 32.1733296,36.9489749 C30.8098505,35.8665993 30.7415509,33.730205 30.7009063,32.4536117 C30.6757653,31.66069 30.6585856,31.407886 30.4683522,31.3640132 C30.4180703,31.3530449 30.3397142,31.3527774 30.2508828,31.4185867 C29.614816,31.8891499 30.4595529,36.3665894 30.6334446,37.2518047 C30.2441785,37.1653965 29.5532206,36.9725165 29.3998606,36.751012 C29.358797,36.6913556 29.3604731,36.6338394 29.4044698,36.5755206 C29.7597956,36.107365 27.4719666,33.6488797 27.1515867,33.3091325 L26.6787268,29.9574064 L26.4863983,29.9381452 C26.4335603,30.0184004 25.1966242,31.9142966 26.1392433,33.1999854 C26.9091857,34.2494564 27.5490656,35.3949661 27.7426511,35.7512993 L24.6136049,35.2387359 L22.1985205,34.0006651 C22.1607253,33.9768561 17.7243901,31.2444329 16.7734325,30.073509 C15.8720446,28.9630441 14.3446045,29.0647007 14.0570336,29.0954652 C13.6608956,28.9084705 9.98272846,27.1540911 7.90302479,25.4168863 C5.71546632,23.5897153 2.20867689,18.9649005 2.17347952,18.9185932 L2.1446931,18.880579 Z" id="path110" fill="#1B458F" fill-rule="nonzero"></path>
                                <path d="M149.802941,80.131909 C149.802941,80.131909 147.147216,80.5283698 143.240308,80.7726132 C131.78105,77.6340985 119.688658,72.4370371 119.195057,72.0991625 C116.087632,69.8006526 115.958156,69.7974424 115.958156,69.7974424 C115.958156,69.7974424 120.891654,71.3156039 125.401107,72.7914977 C134.294309,75.7023551 149.802941,80.131909 149.802941,80.131909" id="path112" fill="#FFFFFF" fill-rule="nonzero"></path>
                                <path d="M143.271315,80.6444724 C131.888318,77.5217412 119.7645,72.3048835 119.338779,72.013557 C118.122375,71.1138958 117.356832,70.5601347 116.869516,70.2193174 C118.543486,70.7391038 122.054843,71.8375305 125.311438,72.90332 C133.166318,75.4744302 146.336,79.2739805 149.174417,80.0893737 C148.191824,80.216712 146.041851,80.470051 143.271315,80.6444724 Z M115.965698,69.6719767 L115.890694,69.8645893 L115.852144,69.9028443 C115.885247,69.9186278 116.254819,70.1168582 119.046306,72.1812904 C119.499262,72.4913431 131.454636,77.6811816 143.16279,80.8879133 L143.209301,80.9007541 L143.259582,80.8975439 C147.134645,80.6554406 149.820959,80.2581772 149.847357,80.2541644 L150.415543,80.1693614 L149.882973,80.0174115 C149.727937,79.9730036 134.277549,75.556023 125.490358,72.6799429 C121.030767,71.2201002 116.093079,69.6997985 116.043635,69.6842825 L116.040702,69.6882953 C116.001733,69.6727793 115.983297,69.6725118 115.965698,69.6719767 Z" id="path114" fill="#222D62" fill-rule="nonzero"></path>
                                <path d="M11.9434315,28.0984277 C31.4522025,39.0575475 38.4870674,41.6519317 56.6933262,49.2403316 C64.1932992,52.366273 82.4020721,59.1427575 78.4138749,56.4116718 C74.6385379,54.5112279 67.6908284,51.9933537 60.8348835,49.1678344 C53.7706874,46.255907 49.7330462,44.6652482 42.7229033,41.7006198 C30.5534125,36.5525141 11.9434315,28.0984277 11.9434315,28.0984277" id="path116" fill="#FFFFFF" fill-rule="nonzero"></path>
                                <path d="M78.7042532,56.927713 C77.0617092,56.927713 63.9519458,52.1158767 56.8010134,49.1351973 C54.9544085,48.3655496 53.2226141,47.6472652 51.5809082,46.9661658 C37.7747397,41.2396873 30.4541057,38.2030967 14.9713272,29.6214045 C20.8111994,32.2559163 33.5615306,37.9757069 42.6143781,41.8052192 C47.1778848,43.7353576 50.4235851,45.0590339 54.1809044,46.5919089 C56.1645276,47.4011492 58.2621233,48.25667 60.7284533,49.2732363 C63.1415683,50.2678661 65.5391796,51.2135403 67.8580159,52.12845 C72.1483239,53.8210329 75.8536852,55.2827482 78.2923601,56.5103858 C78.6527142,56.7589095 78.7478309,56.8768847 78.7725528,56.9239678 C78.7528591,56.9263754 78.7298132,56.927713 78.7042532,56.927713 Z M12.0575296,27.9959685 L11.8136621,28.1928613 C29.3541878,38.0463315 36.7108573,41.0976355 51.3667909,47.176702 C53.0080778,47.8575339 54.7394532,48.5758183 56.5860581,49.345466 C60.0886154,50.8053087 65.5718629,52.9157538 69.9199952,54.4777882 C78.4842696,57.5539714 78.9158564,57.2267975 79.0993856,57.0868859 C79.291295,56.9413564 79.1341639,56.720922 78.5580165,56.3263338 C76.079535,55.0767598 72.3649554,53.6115667 68.0645909,51.9147035 C65.7474307,51.0005964 63.3514954,50.0554573 60.9417326,49.0624325 C58.4745646,48.0455987 56.3769689,47.1898104 54.3925077,46.3803026 C50.6364454,44.8479626 47.3928401,43.5248213 42.8314285,41.5960205 C30.8039843,36.5078387 12.2436148,28.0807715 12.0575296,27.9959685 Z" id="path118" fill="#222D62" fill-rule="nonzero"></path>
                                <path d="M47.1537168,30.1714204 C47.1593628,29.820705 47.144683,29.4218365 47.1141943,28.9705346 C47.2305033,29.3308806 47.2203404,29.7487428 47.1537168,30.1714204 Z M26.9331116,18.5381299 L26.5489574,18.5914193 C26.8026299,19.3334592 27.7179291,19.9048765 29.2343492,20.8519418 C30.3971194,21.5776899 31.8435638,22.4810695 33.6273162,23.8411282 C35.3876037,25.1833168 36.0928082,25.6586953 40.6806178,28.7519728 L41.2437757,29.1318476 C42.4245637,29.927712 44.8812564,31.58311 46.2191754,32.4300702 C46.3976764,32.5301217 46.5514554,32.4996247 46.6092796,32.4830386 C46.7534212,32.4397008 46.8648796,32.31263 46.9470068,32.0697242 C46.8891825,32.7077533 46.9122284,32.9129392 47.055113,33.0020225 C51.7015849,35.8960263 56.4293459,38.9941458 56.4762758,39.0249103 L56.7582738,38.8499539 C56.7109249,38.8186544 51.9798117,35.7181272 47.3295687,32.8222508 C47.2646211,32.7270146 47.33753,32.0622337 47.4024775,31.476103 C47.5252493,30.3589501 47.6777712,28.9686619 47.3237024,28.2538553 C47.1045569,26.915198 47.1041379,26.9162681 46.8711648,26.9253637 C46.6490862,26.9347268 46.6490862,26.9347268 46.6918258,28.0748861 C46.7316324,29.1248921 46.8342914,31.8626657 46.4676521,32.2321073 C45.1209337,31.3800642 42.6990194,29.7474052 41.5295449,28.9592988 L40.9663869,28.5796916 C36.3857006,25.4906408 35.6813342,25.0161184 33.9290079,23.6798955 C32.132685,22.3104202 30.6782794,21.4022252 29.5092239,20.6724108 C28.0451809,19.7583572 27.1617688,19.2067095 26.9331116,18.5381299 Z" id="path120" fill="#1B458F" fill-rule="nonzero"></path>
                                <path d="M157.608796,77.9628775 C155.866526,78.7761305 155.033941,79.2370631 154.619953,79.5069882 C154.38279,79.6613458 117.979909,71.7051093 97.5687866,63.1959143 C74.7089326,53.6658728 54.8764715,39.5623529 46.5845577,32.5681092 C58.7205272,40.292943 76.1394543,52.8978302 99.4405325,62.0819717 C120.431574,70.3557513 151.663793,75.9500762 157.608796,77.9628775" id="path122" fill="#FFFFFF" fill-rule="nonzero"></path>
                                <path d="M154.545368,79.3767072 C152.696668,79.1102598 117.578073,71.3875661 97.6764738,63.09078 C76.4826287,54.2554812 57.8447831,41.4352425 48.7328543,34.1277359 C50.035995,34.9728235 51.3944459,35.8633891 52.8010837,36.7857893 C64.2008415,44.2586217 79.8129703,54.4935717 99.3370355,62.1889787 C113.989198,67.9641453 133.356132,72.373903 146.171327,75.2922508 C151.248967,76.4484612 155.311749,77.3735365 157.235453,77.9821387 C155.970442,78.5781676 155.066624,79.0465907 154.545368,79.3767072 Z M46.7236711,32.4792934 L46.4278456,32.6438166 C54.5957306,39.533461 74.5354599,53.7434528 97.4615184,63.3010487 C108.159843,67.7610996 123.011038,71.9707542 133.585334,74.7165533 C140.295461,76.4588944 145.753568,77.7333475 148.410131,78.3382045 C154.539921,79.733843 154.663949,79.6576005 154.760323,79.5950014 C155.287027,79.251509 156.284286,78.7365379 157.724864,78.0642666 L157.978369,77.9460239 L157.70098,77.8518577 C155.887896,77.2381727 151.867854,76.322728 146.303317,75.0554979 C133.504045,72.1408953 114.160576,67.736488 99.5440295,61.9752322 C80.061028,54.2961439 64.4681739,44.0743022 53.0830817,36.6102978 C50.83045,35.133869 48.7026851,33.7387656 46.7236711,32.4792934 Z" id="path124" fill="#222D62" fill-rule="nonzero"></path>
                                <path d="M125.589246,79.4807715 C109.302081,69.3078855 69.1213501,31.8268183 62.6001992,22.7721018 C74.5224704,33.4102541 118.807047,74.9452807 130.950559,79.6551929 C128.744857,79.4970901 127.548566,79.5249119 125.589246,79.4807715" id="path126" fill="#FFFFFF" fill-rule="nonzero"></path>
                                <path d="M125.672211,79.3571784 C110.373087,69.7739009 72.9813284,35.2146593 63.8836462,24.140721 C65.6208878,25.7073835 67.810248,27.7025018 70.2564653,29.9303872 C87.4767787,45.6184129 119.220617,74.5367815 130.173284,79.4783638 C128.958975,79.4077392 128.041329,79.3946309 127.006778,79.3796499 C126.589437,79.3737645 126.153661,79.3676116 125.672211,79.3571784 Z M62.7602634,22.6988555 L62.4212792,22.8245619 C69.0182721,31.9838511 109.4391,69.5689825 125.451808,79.5706574 L125.50628,79.6046321 L125.582122,79.6062372 C126.095836,79.6180079 126.557173,79.6244284 126.997978,79.6308488 C128.237848,79.6485049 129.308853,79.6637534 130.928351,79.779856 L131.05238,79.5479184 C120.862742,75.5956156 88.151814,45.7957769 70.5782698,29.7864628 C67.3937458,26.885236 64.6437418,24.3799351 62.7602634,22.6988555 Z" id="path128" fill="#222D62" fill-rule="nonzero"></path>
                                <path d="M194.099251,21.7266971 L194.508211,21.7266971 C194.974995,21.7266971 195.370965,21.8350684 195.370965,22.1142764 C195.370965,22.3128278 195.145116,22.5110582 194.508211,22.5110582 C194.325101,22.5110582 194.197301,22.5021767 194.099251,22.4934021 L194.099251,21.7266971 Z M194.099251,20.4728161 L193.533579,20.4728161 L193.533579,22.7365755 C193.830661,22.7638622 194.113078,22.7909082 194.537123,22.7909082 C195.073883,22.7909082 195.426694,22.7185983 195.638717,22.6194296 C195.85032,22.5203679 195.963454,22.3668663 195.963454,22.1501237 C195.963454,21.8529386 195.653382,21.6721503 195.271239,21.6001613 L195.271239,21.5825052 C195.58215,21.5464438 195.794172,21.3655485 195.865405,21.0316868 C195.949627,20.6804631 196.034687,20.545019 196.091254,20.4728161 L195.497927,20.4728161 C195.412867,20.545019 195.328226,20.752345 195.256993,21.0501722 C195.172771,21.3387968 194.946921,21.4468471 194.494383,21.4468471 L194.099251,21.4468471 L194.099251,20.4728161 Z M194.692578,23.3676491 C193.293901,23.3676491 192.149568,22.6009441 192.149568,21.6544941 C192.149568,20.6895587 193.293901,19.9319225 194.706405,19.9319225 C196.119747,19.9228269 197.248996,20.6895587 197.248996,21.6453985 C197.248996,22.6009441 196.119747,23.3676491 194.706405,23.3676491 L194.692578,23.3676491 Z M194.706405,23.6838547 C196.443647,23.6838547 197.828496,22.7818394 197.828496,21.6544941 C197.828496,20.5086634 196.443647,19.6160379 194.692578,19.6160379 C192.954079,19.6160379 191.541575,20.5086634 191.541575,21.6544941 C191.541575,22.7818394 192.954079,23.6838547 194.692578,23.6838547 L194.706405,23.6838547 Z" id="path130" fill="#222D62" fill-rule="nonzero"></path>
                            </g>
                        </g>
                    </g>
                </g>
            </g>
        </g>
    </g>
</svg>