<?xml version="1.0" encoding="UTF-8"?>
<svg width="200px" height="200px" viewBox="0 0 200 200" version="1.1" xmlns="http://www.w3.org/2000/svg" xmlns:xlink="http://www.w3.org/1999/xlink">
    <!-- Generator: Sketch 51.3 (57544) - http://www.bohemiancoding.com/sketch -->
    <title>cedar-crest</title>
    <desc>Created with Sketch.</desc>
    <defs></defs>
    <g id="cedar-crest" stroke="none" stroke-width="1" fill="none" fill-rule="evenodd">
        <g id="cedar-crest_BGL">
            <g id="cedar-crest" transform="translate(0.000000, 35.000000)">
                <path d="M94.4928458,0 L106.510334,0 L106.610493,0.0858505564 C107.236884,0.120826709 107.809221,0.0333863275 108.427663,0.141494436 C109.063593,0.246422893 109.689984,0.101748808 110.324324,0.249602544 C111.570747,0.286168521 112.895072,0.480127186 114.151033,0.543720191 C116.220986,0.707472178 118.08744,0.980922099 120.174881,1.20190779 C121.963434,1.46104928 123.806041,1.74721781 125.594595,2.02384738 C127.128776,2.3227345 128.672496,2.58187599 130.205087,2.88871224 C132.243243,3.37201908 134.321145,3.74085851 136.333863,4.32114467 C138.114467,4.76152623 139.890302,5.24006359 141.63911,5.79332273 C143.791733,6.36565978 145.875994,7.17329094 147.99841,7.85214626 C149.395866,8.40222576 150.81717,8.90143084 152.211447,9.45310016 C153.99682,10.2241653 155.798092,10.9236884 157.54849,11.7742448 C158.610493,12.290938 159.72337,12.7265501 160.744038,13.3243243 C161.834658,13.8744038 162.937997,14.391097 163.99682,15.0047695 C165.403816,15.8282989 166.848967,16.5691574 168.217806,17.4562798 C169.349762,18.1796502 170.532591,18.8394277 171.612083,19.6406995 C174.63434,21.6406995 177.521463,23.8839428 180.241653,26.2766296 C180.880763,26.8076312 181.435612,27.4149444 182.084261,27.9316375 C183.165342,29.0190779 184.263911,30.1033386 185.341812,31.1923688 C186.225755,32.263911 187.203498,33.2575517 188.069952,34.3418124 C188.987281,35.5500795 189.980922,36.7011129 190.796502,37.9761526 C191.984102,39.6041335 192.980922,41.3338633 194.006359,43.0667727 C194.585056,44.3163752 195.325914,45.4658188 195.812401,46.7599364 C196.499205,48.2050874 197.038156,49.6947536 197.54849,51.2082671 C198.009539,52.3799682 198.235294,53.5802862 198.589825,54.7853736 C198.853736,55.6120827 198.914149,56.4658188 199.116057,57.3100159 C199.435612,58.7058824 199.529412,60.1081081 199.694754,61.5278219 C199.880763,62.4785374 199.675676,63.4324324 199.866455,64.3879173 C199.852146,65.0747218 199.922099,65.7790143 199.802862,66.4578696 C199.718601,67.1621622 199.844197,67.8950715 199.736089,68.5977742 C199.531002,70.1494436 199.461049,71.682035 199.096979,73.2082671 C198.777424,75.3386328 198.104928,77.4372019 197.515103,79.5103339 C197.09221,80.6772655 196.689984,81.8537361 196.222576,83.0031797 C195.806041,83.9205087 195.399046,84.845787 194.993641,85.7678855 C194.244833,87.0985692 193.604134,88.4610493 192.761526,89.7488076 C190.125596,94.1065183 186.720191,98.1319555 183.082671,101.685215 C182.524642,102.286169 181.826709,102.763116 181.278219,103.373609 C181.08903,103.63911 180.806041,103.72814 180.567568,103.937997 C179.670906,104.806041 178.672496,105.535771 177.718601,106.335453 C176.496025,107.356121 175.173291,108.238474 173.928458,109.232114 C173.249603,109.659777 172.608903,110.139905 171.941176,110.581876 C170.383148,111.694754 168.718601,112.655008 167.109698,113.689984 C165.739269,114.426073 164.410175,115.243243 163.038156,115.974563 C161.704293,116.580286 160.473768,117.372019 159.127186,117.937997 C154.798092,120.014308 150.329094,121.826709 145.772655,123.341812 C144.249603,123.926868 142.643879,124.346582 141.085851,124.828299 C139.645469,125.27504 138.195548,125.683625 136.72496,126.019078 C134.941176,126.54372 133.135135,126.887122 131.319555,127.303657 C129.880763,127.662957 128.399046,127.896661 126.941176,128.158983 C125.356121,128.519873 123.678855,128.694754 122.103339,128.966614 C118.227345,129.538951 114.241653,129.928458 110.340223,130.205087 C109.688394,130.341812 109.038156,130.17806 108.395866,130.311606 C107.888712,130.405405 107.349762,130.314785 106.836248,130.357711 C105.531002,130.577107 104.166932,130.300477 102.863275,130.527822 C101.27504,130.535771 99.6804452,130.529412 98.0922099,130.531002 C96.736089,130.306836 95.3116057,130.572337 93.9586645,130.354531 C93.4197138,130.325914 92.9077901,130.402226 92.3704293,130.298887 C91.7233704,130.18601 91.1160572,130.349762 90.4705882,130.193959 C87.3116057,129.990461 84.2384738,129.675676 81.0922099,129.287758 C79.2750397,129.074722 77.4674086,128.737679 75.6550079,128.499205 C73.9761526,128.154213 72.281399,127.883943 70.6025437,127.54213 C68.481717,127.038156 66.3195548,126.653418 64.227345,126.042925 C62.4101749,125.607313 60.6041335,125.147854 58.8155803,124.608903 C58.2241653,124.491256 57.6661367,124.224165 57.0651828,124.17965 C56.5882353,124.060413 56.1462639,123.901431 55.6422893,123.933227 C55.1780604,123.992051 54.9459459,123.677266 54.5230525,123.558029 C54.2893482,123.478537 54.0556439,123.492846 53.8124006,123.445151 C53.0079491,123.100159 52.0779014,123.039746 51.2782194,122.613672 C51.0556439,122.462639 50.7949126,122.524642 50.572337,122.399046 C50.1112878,122.122417 49.5484897,122.076312 49.0492846,121.875994 C48.3402226,121.801272 47.9014308,121.279809 47.2225755,121.128776 C46.7551669,121.052464 46.4213037,120.734499 45.9618442,120.623211 C45.54531,120.422893 45.0874404,120.392687 44.6740859,120.193959 C44.2225755,120.025437 43.9125596,119.697933 43.4165342,119.650238 C42.4435612,118.877583 41.2432432,118.599364 40.2384738,117.952305 C39.9062003,117.63911 39.7837838,117.604134 39.3211447,117.581876 C38.9014308,117.338633 38.5405405,116.992051 38.1176471,116.755167 C37.6438792,116.588235 37.2066773,116.351351 36.7440382,116.162162 C36.418124,116.055644 36.3131955,115.766296 35.9348172,115.766296 C35.5755167,115.406995 35.0063593,115.321145 34.5771065,115.044515 C33.4260731,114.381558 32.3211447,113.833068 31.1812401,113.17965 C30.5659777,112.974563 30.1430843,112.491256 29.5421304,112.265501 C29.1923688,112.030207 28.8537361,111.790143 28.4864865,111.578696 C28.1605723,111.394277 28.0476948,111.082671 27.8028617,110.823529 C23.9936407,107.645469 20.1717011,104.475358 16.3624801,101.297297 C16.1653418,101.0938 15.9236884,101.004769 15.6788553,100.874404 C15.0922099,100.267091 14.5294118,99.6740859 13.7869634,99.2511924 C13.5707472,98.7965024 13.2511924,98.4244833 12.8918919,98.0763116 C7.51828299,92.100159 3.31160572,85.0858506 1.28139905,77.2670906 C0.93481717,76.0937997 0.748807631,74.8934817 0.508744038,73.6963434 C0.26709062,72.5039746 0.238473768,71.2416534 -5.68434189e-13,70.0572337 L-5.68434189e-13,63.5961844 C0.174880763,63.1860095 0.104928458,62.6168521 0.217806041,62.1685215 C0.3354531,60.6041335 0.689984102,59.0937997 0.985691574,57.5596184 C1.290938,56.3243243 1.64705882,55.1017488 2.01112878,53.8823529 C2.42925278,52.7885533 2.78855326,51.672496 3.23529412,50.5914149 C3.81399046,49.4149444 4.25278219,48.1860095 4.91732909,47.0524642 C5.43243243,45.7599364 6.13831479,44.5739269 6.7281399,43.3147854 C8.87599364,39.4419714 11.4356121,35.8139905 14.3831479,32.5103339 C14.9316375,31.9348172 15.3751987,31.2861685 15.9650238,30.7488076 C17.1208267,29.6295707 18.2066773,28.4244833 19.4292528,27.3799682 C20.7837838,26.036566 22.317965,24.8537361 23.772655,23.6168521 C24.7535771,22.9046105 25.6947536,22.1414944 26.6709062,21.4244833 C30.6375199,18.5945946 34.7694754,16.0476948 39.1096979,13.8282989 C46.2496025,10.1287758 53.7837838,7.30206677 61.5198728,5.11128776 C65.5007949,4.0190779 69.5500795,3.04769475 73.618442,2.34022258 C74.9332273,2.06995231 76.2591415,1.84419714 77.5898251,1.6709062 C80.1717011,1.21303657 82.7678855,0.982511924 85.3672496,0.653418124 C87.09062,0.546899841 88.9046105,0.327503975 90.6009539,0.241653418 C91.2972973,0.0969793323 91.990461,0.262321145 92.6899841,0.119236884 C93.2686804,0.00476947536 93.9475358,0.213036566 94.4928458,0 Z" id="Shape" fill="#181619" fill-rule="nonzero"></path>
                <path d="M120.766296,6.2782194 C131.038156,7.71701113 141.139905,10.2384738 150.788553,14.0699523 C160.982512,18.127186 170.869634,23.7583466 178.980922,31.1971383 C185.168521,36.8839428 190.403816,43.745628 193.389507,51.6534181 C194.806041,55.3751987 195.678855,59.3020668 195.950715,63.2750397 C196,64.6677266 196.149444,66.0079491 196.00159,67.4069952 C195.920509,69.9173291 195.580286,72.4117647 195.012719,74.8569157 C193.375199,81.9586645 189.794913,88.4992051 185.189189,94.1049285 C179.031797,101.580286 171.08903,107.570747 162.627981,112.211447 C154.119237,116.882353 145.025437,120.252782 135.63593,122.666137 C135.63593,122.337043 135.661367,122.020668 135.717011,121.697933 C136.106518,119.213037 136.736089,116.761526 137.602544,114.399046 C138.920509,110.777424 140.755167,107.45469 142.880763,104.249603 C146.887122,98.2098569 151.794913,92.6613672 155.777424,86.6168521 L155.550079,86.5007949 C156.103339,86.1399046 156.721781,85.5564388 156.947536,84.926868 C157.112878,84.7694754 157.300477,84.6470588 157.461049,84.4880763 C158.351351,83.3036566 159.252782,82.1510334 159.893482,80.8044515 C160.348172,80.217806 160.72337,79.6406995 161.052464,78.9745628 C161.717011,78.0206677 162.217806,76.9618442 162.825119,75.9697933 C162.720191,75.8744038 162.612083,75.782194 162.500795,75.6947536 C163.979332,76.3449921 165.308426,77.2511924 166.535771,78.2941176 C169.631161,80.845787 172.114467,84.1144674 173.45151,87.9189189 C174.109698,89.8282989 174.524642,91.9030207 174.446741,93.926868 C176.437202,92.7694754 178.279809,91.2193959 179.947536,89.6438792 C182.562798,87.0556439 184.755167,84.09062 186.279809,80.7313196 C188.241653,76.4801272 188.972973,71.745628 188.550079,67.09062 C188.297297,64.1208267 187.581876,61.1669316 186.583466,58.3624801 C185.214626,54.5500795 183.259141,50.963434 180.368839,48.0890302 C178.868045,46.5993641 177.124006,45.3513514 175.227345,44.4165342 L175.419714,44.4054054 C175.508744,44.0047695 175.612083,43.6152623 175.782194,43.2416534 C175.5469,42.5357711 175.18124,41.9077901 174.883943,41.2321145 C174.596184,40.3799682 174.084261,39.6391097 173.790143,38.7949126 C173.655008,38.4244833 173.432432,38.0985692 173.290938,37.7344992 C173.198728,37.4228935 173.122417,37.1128776 172.979332,36.8187599 C173.122417,36.4213037 173.260731,36.0238474 173.357711,35.6120827 C171.785374,32.7631161 169.890302,30.1049285 167.667727,27.7265501 C163.292528,23.0127186 158.015898,19.4324324 152.314785,16.5103339 C142.489666,11.5246423 131.510334,8.54531002 120.774245,6.28139905 L120.766296,6.2782194 Z" id="Shape" fill="#FFCE33" fill-rule="nonzero"></path>
                <path d="M63.718601,9.61685215 C61.1160572,10.6661367 58.5612083,11.8426073 56.0747218,13.1414944 C50.0238474,16.2734499 44.4133545,20.1780604 39.2670906,24.6375199 C36.6104928,26.8982512 34.0667727,29.2893482 31.6375199,31.7965024 C24.1017488,39.5612083 17.8298887,48.4833068 13.6550079,58.4960254 C10.6041335,65.8108108 8.7217806,73.6279809 8.17647059,81.5357711 C8.10492846,81.4992051 8.05246423,81.4483307 8.02066773,81.3847377 C6.32591415,77.2607313 5.23370429,72.8187599 4.98569157,68.3608903 C4.88712242,66.9411765 4.83147854,65.491256 4.95707472,64.0715421 C5.13672496,59.5389507 6.18759936,55.0127186 7.87758347,50.809221 C9.95230525,45.6581876 12.9618442,40.9682035 16.5707472,36.7599364 C20.5691574,32.0937997 25.327504,27.9968203 30.3783784,24.5103339 C34.7662957,21.4864865 39.4403816,18.8585056 44.2686804,16.608903 C50.5214626,13.7058824 57.0476948,11.3513514 63.718601,9.61685215 Z" id="Shape" fill="#FFCE33" fill-rule="nonzero"></path>
                <path d="M93.9602544,9.74880763 C94.8616852,9.71383148 95.7615262,9.75198728 96.6613672,9.68203498 C100.802862,9.72496025 104.944356,9.87281399 109.065183,10.3195548 C117.995231,11.2225755 126.829889,13.09062 135.372019,15.8426073 C144.335453,18.7519873 153.124006,22.7011129 161.038156,27.8394277 C165.114467,30.4896661 169.014308,33.4880763 172.515103,36.8664547 C172.650238,37.036566 172.804452,37.0206677 172.979332,36.8187599 C173.122417,37.1128776 173.198728,37.4228935 173.290938,37.7344992 C173.432432,38.0985692 173.655008,38.4244833 173.790143,38.7949126 C174.084261,39.6391097 174.596184,40.3799682 174.883943,41.2321145 C175.18124,41.9077901 175.5469,42.5357711 175.782194,43.2416534 C175.612083,43.6152623 175.508744,44.0047695 175.419714,44.4054054 L175.227345,44.4165342 C172.227345,42.9411765 168.833068,42.2877583 165.500795,42.3736089 C163.888712,42.4022258 162.227345,42.5898251 160.672496,43.0254372 C160.510334,45.5945946 159.190779,48.1732909 157.709062,50.2384738 C154.90461,54.0858506 150.82194,57.0127186 146.63911,59.200318 C141.224165,61.9554849 135.90461,64.9379968 130.685215,68.0461049 C130.26868,68.317965 129.81558,68.5373609 129.413355,68.8282989 C129.329094,69.1287758 129.874404,69.0333863 130.046105,69.0794913 C135.503975,69.5866455 140.945946,70.3211447 146.344992,71.2670906 C148.667727,71.6868045 150.979332,72.1573927 153.27663,72.7011129 C156.426073,73.4785374 159.538951,74.3465819 162.500795,75.6947536 C162.612083,75.782194 162.720191,75.8744038 162.825119,75.9697933 C162.217806,76.9618442 161.717011,78.0206677 161.052464,78.9745628 C160.72337,79.6406995 160.348172,80.217806 159.893482,80.8044515 C159.252782,82.1510334 158.351351,83.3036566 157.461049,84.4880763 C157.300477,84.6470588 157.112878,84.7694754 156.947536,84.926868 C156.721781,85.5564388 156.103339,86.1399046 155.550079,86.5007949 C153.588235,88.9475358 151.244833,91.0540541 148.81558,93.0222576 C143.713831,97.1383148 138.049285,100.799682 133.295707,105.314785 C130.313196,108.149444 127.73132,111.27186 125.972973,115.019078 C125.166932,116.839428 124.26868,118.618442 123.45469,120.435612 C122.764706,122.017488 122.044515,123.691574 121.696343,125.384738 C120.047695,125.710652 118.344992,125.852146 116.677266,126.065183 C104.971383,127.332273 93.0937997,127.235294 81.4149444,125.720191 C71.8934817,124.478537 62.5246423,122.300477 53.491256,119.033386 C44.4944356,115.763116 35.6629571,111.341812 27.9856916,105.596184 C29.1208267,101.717011 30.6295707,97.9745628 32.3402226,94.3163752 C32.6693164,94.3004769 32.9777424,94.3386328 33.2972973,94.4133545 C34.8441971,94.7742448 36.3195548,95.2750397 37.8346582,95.7424483 C43.317965,97.5198728 48.736089,99.2559618 54.3593005,100.562798 C57.9030207,101.376789 61.5500795,102.044515 65.1828299,102.27186 C67.3879173,102.395866 69.6709062,102.399046 71.8489666,101.995231 C65.4499205,99.4260731 58.9220986,96.2496025 53.445151,92.0190779 C51.4038156,90.4197138 49.4054054,88.572337 47.8871224,86.4594595 C46.7583466,84.8505564 46.1621622,82.8314785 45.7662957,80.926868 C45.3926868,78.9252782 45.163752,76.8775835 45.1764706,74.8410175 L45.2416534,74.6915739 C46.8473768,72.8807631 48.5739269,71.163752 50.3990461,69.5755167 C53.4006359,70.8918919 56.3243243,72.3958665 59.3084261,73.7567568 C64.6963434,76.2480127 70.3449921,78.6470588 76.0747218,80.2225755 C79.3958665,81.1049285 82.8759936,81.7790143 86.3243243,81.6295707 C86.2686804,81.5707472 86.2098569,81.5166932 86.1462639,81.4689984 C80.6375199,78.4944356 75.1955485,75.0047695 70.5357711,70.8044515 C68.2448331,68.6915739 65.9920509,66.2972973 64.4499205,63.5707472 C63.8060413,62.4419714 63.3434022,61.2464229 63.2702703,59.936407 C63.2718601,59.682035 63.1589825,59.2702703 63.427663,59.1192369 C66.0763116,57.1923688 68.7678855,55.3211447 71.5214626,53.5468998 C73.381558,52.3751987 75.2734499,51.163752 77.2782194,50.2559618 C77.7154213,50.0969793 78.2448331,49.8028617 78.6868045,50.0969793 C79.7058824,50.6661367 80.6343402,51.4292528 81.5596184,52.1383148 C86.972973,56.4244833 92.1701113,60.5564388 98.2527822,63.9062003 C101.284579,65.5580286 104.553259,67.0461049 107.920509,67.8473768 C106.745628,66.6597774 105.605723,65.4403816 104.476948,64.2082671 C100.858506,60.1653418 97.4022258,55.7329094 94.8553259,50.9284579 C93.7027027,48.7313196 92.7503975,46.4689984 92.2130366,44.0381558 C91.6899841,41.5596184 91.5405405,39.0079491 91.863275,36.491256 C92.3227345,32.5675676 93.8298887,28.5659777 94.8187599,24.7694754 C90.4069952,24.5151033 85.963434,25.5945946 81.8759936,27.1955485 C76.2464229,29.4213037 70.9157393,32.7424483 66.0683625,36.3449921 C62.0969793,39.3195548 58.3227345,42.5612083 54.7551669,46.009539 C49.391097,51.1589825 44.4292528,56.7472178 39.9491256,62.6836248 C36.2893482,67.5882353 32.7742448,72.8982512 30.3624801,78.5373609 C27.1287758,85.8712242 24.4833068,93.5357711 22.7790143,101.372019 C18.6295707,97.6788553 14.8251192,93.4260731 11.8569157,88.7233704 C11.9777424,88.4960254 12.0015898,88.3322734 11.9984102,88.0763116 C11.9984102,87.1240064 12.0031797,86.1669316 12.009539,85.2130366 C12.2527822,84.2352941 12.0429253,83.200318 12.2321145,82.2034976 C12.4578696,80.9046105 12.7933227,79.6406995 13.1065183,78.36407 C13.9475358,75.1430843 14.8759936,71.9459459 15.8330684,68.7583466 C17.8759936,62.3593005 21.1860095,56.2193959 24.8616852,50.6152623 C29.9586645,42.9220986 36.009539,35.8537361 42.7965024,29.6025437 C47.2321145,25.5596184 52.0810811,21.7917329 57.3131955,18.8314785 C61.5643879,16.4435612 66.09062,14.6152623 70.7631161,13.2337043 C78.2607313,11.0317965 86.1573927,9.96025437 93.9602544,9.74880763 Z" id="Shape" fill="#FEFEFE" fill-rule="nonzero"></path>
                <path d="M119.872814,23.4801272 C122.685215,23.4848967 125.464229,24.200318 127.960254,25.491256 C131.192369,27.09062 134.168521,29.6057234 136.926868,31.9109698 C139.791733,34.3259141 142.763116,36.8235294 145.987281,38.7440382 L146.222576,38.9252782 C142.427663,41.254372 139.260731,44.6438792 137.038156,48.4896661 C136.847377,48.8139905 136.712242,49.1494436 136.473768,49.4435612 C135.885533,46.7472178 135.034976,43.9523052 133.63752,41.5596184 C132.877583,40.2925278 131.853736,39.0127186 130.551669,38.2766296 C129.554849,37.7249603 128.403816,37.508744 127.322734,37.9523052 C125.966614,38.4689984 125.065183,39.8887122 125.155803,41.3338633 C125.195548,42.445151 125.774245,43.4292528 126.585056,44.1621622 C127.63752,45.1351351 129.082671,45.7170111 130.45628,46.0683625 C130.300477,46.3672496 130.00159,46.5580286 129.748808,46.7853736 C128.875994,47.5389507 127.852146,48.1033386 126.707472,48.3052464 C125.162162,48.6120827 123.535771,48.1430843 122.325914,47.1510334 C120.599364,45.7615262 119.721781,43.5341812 119.915739,41.3370429 C120.0938,38.7837838 121.774245,36.5405405 123.807631,35.0985692 C123.903021,34.9984102 124.230525,34.8759936 124.128776,34.7058824 C122.435612,32.9332273 120.168521,32.290938 117.804452,32 C114.286169,31.5675676 111.0938,31.7631161 107.720191,30.391097 C107.793323,29.1383148 107.756757,27.90938 107.696343,26.6581876 C109.233704,26.2798092 110.831479,26.1780604 112.399046,26.4117647 C113.871224,26.6104928 115.228935,27.0953895 116.613672,27.6009539 C114.965024,26.7472178 113.259141,25.9618442 111.63275,25.0715421 C114.286169,24.0985692 117.036566,23.4705882 119.872814,23.4801272 Z" id="Shape" fill="#181619" fill-rule="nonzero"></path>
                <path d="M165.500795,42.3736089 C168.833068,42.2877583 172.227345,42.9411765 175.227345,44.4165342 C177.124006,45.3513514 178.868045,46.5993641 180.368839,48.0890302 C183.259141,50.963434 185.214626,54.5500795 186.583466,58.3624801 C187.581876,61.1669316 188.297297,64.1208267 188.550079,67.09062 C188.972973,71.745628 188.241653,76.4801272 186.279809,80.7313196 C184.755167,84.09062 182.562798,87.0556439 179.947536,89.6438792 C178.279809,91.2193959 176.437202,92.7694754 174.446741,93.926868 C174.524642,91.9030207 174.109698,89.8282989 173.45151,87.9189189 C172.114467,84.1144674 169.631161,80.845787 166.535771,78.2941176 C165.308426,77.2511924 163.979332,76.3449921 162.500795,75.6947536 C159.538951,74.3465819 156.426073,73.4785374 153.27663,72.7011129 C150.979332,72.1573927 148.667727,71.6868045 146.344992,71.2670906 C140.945946,70.3211447 135.503975,69.5866455 130.046105,69.0794913 C129.874404,69.0333863 129.329094,69.1287758 129.413355,68.8282989 C129.81558,68.5373609 130.26868,68.317965 130.685215,68.0461049 C135.90461,64.9379968 141.224165,61.9554849 146.63911,59.200318 C150.82194,57.0127186 154.90461,54.0858506 157.709062,50.2384738 C159.190779,48.1732909 160.510334,45.5945946 160.672496,43.0254372 C162.227345,42.5898251 163.888712,42.4022258 165.500795,42.3736089 Z" id="Shape" fill="#181619" fill-rule="nonzero"></path>
                <path d="M162.381558,48.2337043 C164.572337,48.4992051 166.758347,49.0063593 168.853736,49.7027027 C172.198728,50.8410175 175.27027,52.6200318 177.527822,55.3847377 C179.825119,58.1844197 180.99682,61.6565978 181.510334,65.2019078 C181.895072,67.7678855 181.976153,70.3847377 181.895072,72.9745628 C181.782194,74.1303657 181.855326,75.3306836 181.666137,76.4737679 C181.430843,76.1748808 181.26868,75.8426073 181.069952,75.5198728 C178.893482,71.9189189 176.286169,68.4642289 173.189189,65.6025437 C170.610493,63.2575517 167.519873,61.2019078 164.071542,60.45469 C163.573927,60.3227345 163.042925,60.327504 162.564388,60.1462639 C162.034976,57.5166932 161.524642,54.8426073 161.577107,52.1462639 C161.570747,50.8553259 161.717011,49.3688394 162.381558,48.2337043 Z" id="Shape" fill="#FFCE33" fill-rule="nonzero"></path>
                <path d="M12.2321145,82.2034976 C12.0429253,83.200318 12.2527822,84.2352941 12.009539,85.2130366 C12.0031797,86.1669316 11.9984102,87.1240064 11.9984102,88.0763116 C12.0015898,88.3322734 11.9777424,88.4960254 11.8569157,88.7233704 C11.5596184,88.3656598 11.6963434,88.0238474 11.6963434,87.5993641 C11.7758347,85.7806041 11.8076312,83.9856916 12.2321145,82.2034976 Z" id="Shape" fill="#FFCE33" fill-rule="nonzero"></path>
            </g>
        </g>
    </g>
</svg>