<?xml version="1.0" encoding="UTF-8"?>
<svg width="200px" height="200px" viewBox="0 0 200 200" version="1.1" xmlns="http://www.w3.org/2000/svg" xmlns:xlink="http://www.w3.org/1999/xlink">
    <!-- Generator: Sketch 51.3 (57544) - http://www.bohemiancoding.com/sketch -->
    <title>central-mo</title>
    <desc>Created with Sketch.</desc>
    <defs></defs>
    <g id="central-mo" stroke="none" stroke-width="1" fill="none" fill-rule="evenodd">
        <g id="central-mo_BGL" transform="translate(2.898551, 0.000000)">
            <g id="central-mo">
                <g id="g10" transform="translate(96.499998, 100.549557) scale(-1, 1) rotate(-180.000000) translate(-96.499998, -100.549557) translate(0.000000, 0.611196)" fill-rule="nonzero">
                    <g id="g12">
                        <path d="M192.797098,53.9188103 C189.320623,53.5297114 186.019004,52.4437696 182.727282,51.3419699 C177.355449,49.5439879 171.962171,47.743363 167.006855,44.9712711 C161.335624,41.7981868 156.097406,37.9707954 151.422518,33.4249215 C147.922125,30.0202446 144.591637,26.4316315 140.9733,23.1600956 C136.036954,18.6952461 130.404488,15.3392168 124.018168,13.2794955 C120.122702,12.0222544 116.207442,11.0426933 112.085984,11.0665628 C111.431929,11.0707751 110.77045,10.8881605 110.122993,10.9352389 C108.810758,11.0304694 108.316711,11.778603 108.912207,12.9307849 C110.151036,15.3285622 110.653331,17.9312545 111.162224,20.5287433 C111.598536,22.7555517 111.782463,25.0142412 111.885561,27.2914318 C112.063715,31.2527076 111.796484,35.2023376 111.75442,39.1568407 C111.731326,41.295852 111.535027,43.4320551 111.432754,45.5710664 C111.40966,46.047632 111.379967,46.3186219 110.75313,46.1030523 C104.074835,43.805296 97.3759206,41.5642815 90.7042242,39.2436467 C87.1477457,38.0063107 83.8189082,36.3205735 81.0468839,33.6917817 C79.88476,32.5896516 79.2467878,31.3707339 79.2974296,29.6288331 C79.3498861,27.80343 78.5734322,26.0460842 77.9919579,24.2983192 C76.2514938,19.0674958 74.0522836,14.0747901 69.7756017,10.3945806 C65.8791462,7.04111176 61.5268314,4.34842543 56.7552776,2.39037691 C54.4532991,1.44635586 52.0266128,1.06048641 49.5493671,1.01757899 C48.9320971,1.00693267 48.2554424,1.012739 47.7048975,1.24567798 C46.6033129,1.71124207 45.5932796,1.53056838 44.5742562,1.10275786 C43.2877545,0.563960427 41.8891643,0.447813056 40.5794862,0.000967898891 C40.4473554,0.000967898891 40.315637,0.000967898891 40.1835063,0.000967898891 C37.7735632,0.276817695 35.6459444,1.21341688 33.6921906,2.64719372 C32.2823009,3.68219172 31.3992022,5.10016013 30.5999018,6.57781073 C29.5173698,8.57974954 28.4850672,10.6122976 27.89551,12.8348937 C27.5826685,14.0144967 27.542419,15.1865837 27.92446,16.3477683 C28.1432758,17.011739 28.0182382,17.6198763 27.8790967,18.2812865 C27.2478878,21.2810892 26.6634442,24.2909683 27.050104,27.3904616 C27.1918848,28.5261248 27.7939788,29.269468 28.8027749,29.7156391 C29.8594911,30.1822108 30.9178569,30.6529122 32.1170137,30.5945185 C32.6348146,30.5680885 33.0774774,30.778372 33.4953141,31.0642288 C34.9158436,32.0347046 36.4149752,32.8638626 37.9955956,33.5404701 C38.486261,33.7511666 38.8187324,34.0599018 38.9054174,34.6125361 C39.3603695,37.5149608 40.5846823,40.1595281 41.6929477,42.8412625 C42.2699682,44.2373436 42.9456331,45.5891544 43.7388301,47.0841827 C42.8479784,46.7358026 42.110537,46.5002454 41.3221238,46.4606004 C40.9345567,46.439952 40.7118644,46.0979315 40.468305,45.8295021 C39.4950571,44.7567753 38.5420166,43.6762847 37.4430713,42.7109297 C34.3996923,40.0372894 30.7964484,38.7299966 26.8760741,38.1763711 C25.7275592,38.0147352 24.7542289,37.662721 23.8234575,36.9474596 C22.5160063,35.9414685 20.9608717,35.4839821 19.3025564,35.425258 C18.6971632,35.4046096 18.2252205,35.6168753 17.8595102,36.1189624 C14.3977172,40.8774324 11.1220784,45.7430265 8.96889123,51.2716826 C8.63155363,52.1382556 8.37446774,53.027707 8.29042201,53.9511044 C8.23626655,54.5441271 8.03715488,54.8322139 7.39665883,54.859635 C5.37818405,54.9471017 3.85523264,55.9423556 2.65768416,57.5290629 C1.08543527,59.611002 0.0956884079,61.8981863 0.101164989,64.5527474 C0.101809972,64.7138051 0.130162001,64.8837829 0.00032218215,65.0176673 C0.00032218215,65.2161399 0.00032218215,65.4141995 0.00032218215,65.6122592 C0.500670855,66.6473233 0.384685281,67.8084253 0.693980145,68.893789 C1.84352936,72.925352 4.26633912,76.0284794 7.53841485,78.5249561 C9.86716599,80.3017115 12.2625929,81.9584583 15.2266274,82.5466079 C15.9535116,82.6911468 16.6442701,83.0173919 17.2985731,83.4064082 C18.2078175,83.9465709 18.7145662,84.7122144 18.9513623,85.7413317 C19.8338837,89.5786343 22.0659204,92.683331 25.6221515,94.0130894 C31.2268219,96.1076653 35.5063906,99.8970636 39.8767682,103.665813 C45.3925266,108.42321 50.8754586,113.218599 56.2269195,118.162657 C56.60129,118.508725 56.848396,118.886178 57.0361999,119.361092 C57.7930238,121.278917 58.6413165,123.162879 59.3720771,125.090616 C60.8708788,129.046027 63.6077672,131.878991 67.4839329,133.347507 C71.2277204,134.76564 74.0748003,137.129471 76.5137759,140.198653 C78.0334446,142.110697 79.911483,143.694018 81.8226779,145.214567 C82.1497056,145.473912 82.3188693,145.776204 82.4827543,146.14292 C84.9101004,151.584192 86.779891,157.256727 89.5231302,162.572456 C93.1876558,169.671384 98.1899847,175.725501 103.550271,181.557441 C108.905608,187.3836 115.086557,192.120348 121.88857,196.101363 C124.974095,197.907687 128.366441,198.684894 131.833843,199.252313 C132.948954,199.13503 133.121334,198.853385 132.671826,197.801967 C132.020245,196.27894 131.003283,194.979741 130.086945,193.619423 C129.66548,192.994189 129.175557,192.392907 128.873685,191.712335 C127.047608,187.597517 124.247458,184.153361 121.438236,180.710856 C118.756031,177.424453 116.875518,173.662311 115.031296,169.877042 C112.502501,164.690159 110.121343,159.442982 108.415685,153.913334 C108.356301,153.724195 108.240831,153.557356 108.385168,153.269104 C109.950613,154.361818 111.502036,155.452881 113.060882,156.531554 C118.083006,160.001315 123.075437,163.516502 128.797804,165.803521 C131.932817,167.055642 135.18165,167.96665 138.354603,169.09901 C141.01289,170.048837 143.312394,171.608206 145.60365,173.205568 C152.812283,178.229742 159.78915,183.567772 166.855919,188.782737 C170.188056,191.241551 173.597722,193.594645 177.092342,195.820545 C178.178585,196.511854 179.31844,197.072665 180.57459,197.365873 C181.641863,197.615306 182.013017,197.365047 182.241483,196.287199 C182.500466,195.07142 182.114466,193.959709 181.735064,192.826524 C180.331278,188.636546 179.287098,184.308637 177.263072,180.352399 C175.009756,175.947678 172.728397,171.55039 170.272184,167.25717 C168.372701,163.940208 165.873598,161.018869 163.441304,158.076882 C159.879052,153.767144 155.722953,150.047124 151.474479,146.446039 C149.000945,144.348986 145.899748,143.298394 142.99815,141.933946 C139.116706,140.1078 134.987001,138.907713 131.056894,137.203806 C130.482843,136.955199 129.573928,136.899035 129.535988,136.179644 C129.501347,135.53211 130.350877,135.323148 130.873792,135.010943 C135.803539,132.063175 140.290377,128.502561 144.735975,124.896521 C152.084821,118.93656 158.619603,112.125885 164.702402,104.9105 C169.091915,99.7029684 172.576637,93.8231239 176.193325,88.0572586 C182.752025,77.6032106 187.765077,66.3863272 192.525743,55.0429104 C192.67338,54.6927957 192.920816,54.3440852 192.797098,53.9188103" id="path14" fill="#100F0D"></path>
                        <path d="M103.163446,8.31231118 C101.548515,7.27824649 99.6333608,8.14967596 99.1986984,10.1151662 C99.4535573,10.4868378 98.9999249,11.0379028 99.5104676,11.344408 C99.7537796,11.2220868 99.798318,10.9833084 99.7933693,10.7578276 C99.7719249,9.65858827 100.362472,8.98627566 101.295305,8.54522538 C101.607899,8.3748346 101.930391,8.33196848 102.268553,8.46684397 C102.47475,8.53680082 102.677647,8.62525866 102.905288,8.59651606 C103.039728,8.54522538 103.128805,8.45420714 103.163446,8.31231118" id="path16" fill="#181615"></path>
                        <path d="M100.560421,13.2462928 C102.130814,13.9499084 103.67069,13.350526 104.528467,11.7002216 C104.482279,11.5473407 104.388254,11.4514494 104.221647,11.441786 C104.057514,11.491177 103.933797,11.5995399 103.850493,11.7415184 C103.144476,12.958206 101.988126,12.8739605 100.83095,12.7978091 C100.62228,12.8746212 100.511758,13.0117267 100.560421,13.2462928" id="path18" fill="#1E1D1C"></path>
                        <path d="M104.28763,11.4343525 C104.367634,11.5234711 104.447638,11.6118464 104.528467,11.7002216 C105.08025,10.1525811 104.61672,9.00105993 103.163446,8.31231118 C103.087566,8.37425645 103.010036,8.43521059 102.932506,8.49814698 C103.775438,9.29501086 104.045143,10.3597261 104.28763,11.4343525" id="path20" fill="#1A1817"></path>
                        <path d="M100.560421,13.2462928 C100.625579,13.1281838 100.689912,13.0101575 100.75507,12.8920485 C100.514233,12.3222347 100.122459,11.8909304 99.5805744,11.5959884 C99.4840744,11.6011918 99.4032454,11.6392675 99.3364377,11.7093069 C99.4840744,12.4286979 100.008639,12.8481912 100.560421,13.2462928" id="path22" fill="#1B1918"></path>
                        <path d="M99.3364377,11.7093069 C99.4345873,11.6992305 99.531912,11.6886585 99.6300616,11.6780039 C99.6910958,11.5285919 99.6704761,11.3989198 99.5335616,11.3004682 C99.1665317,10.978518 99.5574804,10.4396768 99.1986984,10.1151662 C99.1426129,10.6555767 99.0205445,11.2014383 99.3364377,11.7093069" id="path24" fill="#131211"></path>
                        <path d="M75.2205109,38.2383164 C75.2308208,38.4463698 75.2414605,38.6548363 75.2517703,38.8619813 C75.4592866,39.7085666 75.1728383,40.5857941 75.4157379,41.4297364 C75.4267075,41.7659753 75.4376772,42.1021316 75.4483169,42.4382879 C75.6696071,43.4146279 75.3574255,44.4205364 75.613934,45.3942333 C75.6239139,45.5907237 75.6342238,45.7859752 75.6442037,45.9814744 C75.8194708,46.3134185 75.6190477,46.7002873 75.7968716,47.0313228 C76.1403126,50.0881977 77.1249425,52.9796375 78.1172429,55.8639742 C78.950442,58.2862818 79.7397625,60.717014 80.1966117,63.2435549 C80.3712189,63.5690566 80.1727753,63.9498135 80.3493621,64.275976 C80.4479241,66.0823825 80.4492437,67.8739221 78.7513386,69.0615367 C77.686457,69.8048799 76.4335242,70.1004001 75.1821584,70.3649477 C74.7346293,70.4588567 74.2804195,70.5227842 73.8293439,70.6011656 C73.2391268,70.7118412 72.6484973,70.7118412 72.0579503,70.6011656 C68.4102504,70.1484696 65.0946095,68.6982897 61.8464361,67.1015886 C58.8584827,65.6323295 55.7964636,64.4362903 52.4905551,63.9407282 C52.0365927,63.8730014 51.5752073,63.8565652 51.1171209,63.8168377 C50.4566321,63.5929262 49.7587804,63.8630075 49.0967244,63.663296 C47.3758903,63.6623049 45.6548087,63.6623049 43.934057,63.6616441 C42.8966408,63.8739925 41.8318417,63.5754989 40.7969823,63.8284834 C40.5240605,63.839138 40.2521285,63.8497925 39.9792892,63.8606949 C39.3265533,64.0604064 38.636702,63.7904077 37.9862755,64.0191096 C37.7314166,64.0324072 37.4765576,64.0456222 37.2213687,64.0598283 C36.6987841,64.2553275 36.1305064,63.9904496 35.6104786,64.2175822 C35.4164889,64.2298061 35.2219218,64.2436818 35.0273547,64.2562361 C34.5179667,64.4585906 33.9586791,64.1810758 33.4528376,64.4214234 C33.2569509,64.4305087 33.0610641,64.4411633 32.8648475,64.4511572 C32.3496859,64.6566503 31.7868518,64.3866515 31.2732573,64.6114715 C31.0129548,64.6263384 30.7525697,64.6402141 30.4919373,64.655081 C29.6916471,64.858344 28.8607574,64.5782688 28.0626942,64.808953 C27.4802301,64.8228288 26.8983433,64.8370349 26.3161267,64.8509106 C25.591222,64.9663766 24.8663173,64.9615861 24.1407528,64.853471 C23.6159413,64.840256 23.0914597,64.8286103 22.5665657,64.8163864 C21.9251294,64.5782688 21.2408042,64.855701 20.596811,64.6527684 C18.6488307,64.3527055 16.6916128,64.0901402 14.874856,63.2535487 C14.2005108,62.9428313 13.5384548,62.6043623 13.1179787,61.9559193 C12.9207723,61.6519745 12.6320971,61.5578177 12.3176886,61.4358269 C10.9007057,60.8847618 9.60034762,60.2214519 8.8103673,58.7718501 C8.14701642,57.5555755 6.38854728,57.5529325 5.24222628,58.8957406 C3.20667842,61.2812941 1.9205314,64.0217526 2.13864614,67.2751179 C2.32583139,70.0633156 3.590402,72.3710657 5.43553145,74.3813961 C8.46758611,77.6858043 12.0650565,80.1497391 16.3530381,81.5364045 C17.0057739,81.7480921 17.6874598,81.8932918 18.3876209,81.8719827 C18.8318508,82.0997761 19.332826,81.8381193 19.780685,82.034527 C20.5897179,82.112991 21.3989982,82.1907117 22.3346358,82.2823081 C21.745326,82.7382252 21.0262773,82.9827026 20.9647482,83.7756019 C20.8538969,84.3331093 20.8204106,84.8897908 20.9734085,85.4464722 C21.4521969,87.6186862 22.8913665,89.1532769 24.4114477,90.6317038 C25.4875464,91.6781659 26.743366,92.3917753 28.3094702,92.7923547 C28.0479305,91.4023029 26.5442626,90.9843789 26.3299831,89.5926753 C26.9402425,89.7834667 27.3007566,90.2079982 27.6602809,90.5788439 C33.2920868,96.3917875 39.6084652,101.437436 45.6744386,106.764729 C49.5873898,110.200626 53.7377145,113.349923 57.6731823,116.755261 C59.6903622,118.500465 61.5293882,120.45298 63.4370364,122.323727 C63.6947822,122.57729 64.2276766,122.872149 63.8439035,123.274381 C63.4592232,123.677438 62.8647997,123.646052 62.4231266,123.239691 C61.5999074,122.482307 60.7921942,121.707578 60.2555058,120.698283 C60.1742643,120.545485 60.0927754,120.325786 59.7863673,120.314223 C59.6394729,121.439149 60.0601964,122.437707 60.4884254,123.412312 C61.2610027,125.171558 62.3074916,126.773049 63.5031018,128.270473 C64.1654877,129.099713 65.0572467,129.568019 66.1336753,129.639876 C66.4948492,129.870312 66.925965,129.615098 67.2929124,129.806715 C68.3087192,129.807541 68.5983842,129.483774 68.1466487,128.590936 C67.6740462,127.656802 68.0075073,127.331382 68.8561299,127.026612 C70.9693149,126.26675 70.9483653,126.24445 71.9886683,128.271299 C74.6602336,133.477179 77.7335523,138.410499 82.0043783,142.474935 C85.0206218,145.345065 88.4385363,147.578399 92.5599934,148.539789 C93.2841558,148.70828 94.0338865,148.768574 94.7712455,148.878423 C95.2949848,149.095645 95.8649121,148.837952 96.390301,149.034525 C97.5854164,149.034525 98.7797069,149.034525 99.9739975,149.034525 C100.612382,148.830519 101.290356,149.110512 101.924617,148.86686 C102.219066,148.853645 102.513515,148.84043 103.132929,148.812348 C101.870181,147.968241 101.094882,146.979594 100.143079,146.171828 C98.9586856,145.165011 97.7305788,144.205273 96.5989719,143.143118 C95.1069335,141.743155 93.5901515,140.611621 91.4184892,140.306025 C88.8913439,139.950872 86.4821431,139.013433 84.3294509,137.556481 C83.4980663,136.993192 83.0493825,136.093747 82.4757437,135.31241 C81.5671591,134.075157 80.7478988,132.807344 80.2375211,131.310746 C79.355742,128.725564 78.3472758,126.176723 77.2663934,123.667526 C76.7995643,122.583897 75.758849,121.862854 74.8773998,121.098863 C74.3431857,120.635512 73.8751195,120.186203 73.6031875,119.537842 C73.49712,119.141392 73.4891195,118.745769 73.6054144,118.350145 C73.7301221,117.547334 73.9114926,116.753609 73.2429208,116.049911 C73.0187439,115.814519 72.7735349,115.416417 73.0537973,115.067046 C73.3573187,114.687941 73.826787,114.702808 74.2414071,114.838261 C75.9972947,115.40981 77.4036378,116.376156 78.1475126,118.175046 C79.0354775,120.324134 79.3682788,122.593809 79.8032711,124.85192 C80.5332894,128.642144 81.9992646,132.139161 84.3137799,135.24138 C86.0837714,137.61347 88.6686516,138.497223 91.4531302,138.959748 C93.0358951,139.110894 94.6194848,139.110894 96.2022497,138.959748 C96.9033181,138.994437 97.4930403,138.813557 97.8947112,138.175933 C98.0522454,137.924023 98.2881343,137.720842 98.6295958,137.762139 C99.0518864,137.814173 98.9661086,138.188322 99.0444633,138.450144 C99.1013736,138.639284 99.211895,138.86972 99.1516856,139.024997 C98.7186727,140.136708 99.5352112,140.724775 100.13648,141.362398 C102.511865,143.877376 104.553211,146.687213 107.021796,149.122075 C111.48554,153.525144 116.643753,156.956912 122.051877,160.060782 C126.501599,162.615405 131.249894,164.359784 136.149125,165.848122 C142.390283,167.742821 148.132445,170.647641 153.117453,175.004458 C157.525111,178.854976 161.952564,182.725316 166.690962,186.142217 C170.867679,189.155234 175.254718,191.892389 179.384423,194.990478 C179.644231,195.185399 179.89909,195.539726 180.318906,195.283686 C180.502008,194.685708 180.460769,194.085252 180.344474,193.48397 C179.880119,191.0425 178.916769,188.761263 178.056517,186.451117 C177.206162,184.166576 176.234564,181.926635 175.36194,179.649527 C174.158577,176.507663 172.260744,173.74986 170.568282,170.879729 C169.209859,168.577017 167.921543,166.227227 166.281043,164.101266 C164.875607,162.280075 163.383569,160.532392 161.894829,158.778103 C159.738013,156.235869 157.271902,154.006665 154.94518,151.645312 C151.837385,148.491885 148.36256,145.801808 144.17512,144.050822 C139.00371,141.88852 133.840548,139.714654 128.628723,137.649812 C125.232253,136.30436 121.938057,134.766466 119.043882,132.455495 C117.558442,131.270275 116.356728,129.799282 114.886959,128.608281 C114.533125,128.321681 114.522403,127.936794 114.848194,127.565123 C115.140993,127.23227 115.399976,126.958885 115.898147,127.267785 C116.404565,127.581641 116.891189,127.905409 117.318429,128.324984 C121.583399,132.506703 126.983275,133.180667 132.2883,130.465813 C135.8588,128.638015 139.12083,126.387337 142.230274,123.905396 C144.325231,122.232874 146.351731,120.469499 148.332043,118.647482 C151.288077,115.928498 154.108847,113.076538 156.877654,110.184107 C159.163962,107.796324 161.299334,105.251612 163.456975,102.734983 C166.938398,98.6738511 170.069286,94.3740238 172.97006,89.8999238 C175.056769,86.6804219 176.939756,83.3328998 178.778205,79.9591129 C181.088431,75.7194138 183.21473,71.3948084 185.205765,67.0009069 C186.821521,63.4351722 188.343252,59.8291319 189.646414,56.1324037 C189.928491,55.3335575 189.747863,55.0957703 188.937923,54.8735107 C182.784192,53.1845524 176.634585,51.4755239 170.739838,48.9812771 C168.108769,47.8679142 165.750705,46.2921093 163.368722,44.739348 C160.555376,42.9064289 157.938329,40.8102837 155.297364,38.7570873 C153.618099,37.4520245 151.931411,36.1124375 150.44927,34.556455 C148.223172,32.2199622 146.041612,29.8369692 143.737159,27.5798489 C141.978714,25.8566968 140.097377,24.2486804 138.075826,22.8322812 C132.795544,19.131093 126.800172,16.9697814 120.765211,14.9198061 C119.309463,14.424244 117.772061,14.1467292 116.217339,14.0699996 C115.841236,13.8502178 115.40245,14.0944474 115.022224,13.9063816 C114.820976,13.8947358 114.618903,13.8831727 114.417655,13.8708663 C113.624211,13.6702462 112.81757,13.8212275 112.018352,13.7867033 C111.657095,13.7699368 111.4476,13.9121631 111.629053,14.3177807 C112.251766,16.5535918 113.074903,18.7365429 113.348732,21.0623811 C113.433685,21.7783032 113.550805,22.4893522 113.653078,23.2030443 C113.852677,23.7201634 113.584621,24.2851042 113.813087,24.7987543 C113.827108,25.0539688 113.84113,25.3085225 113.853501,25.563737 C114.062997,26.4754887 113.765249,27.4168916 114.017634,28.3264132 C114.027531,28.8690538 114.038254,29.4097946 114.048976,29.951857 C114.167745,31.8556415 114.167745,33.7585174 114.048976,35.6614759 C114.031655,36.3205735 114.01516,36.9796712 113.998664,37.6378603 C113.827933,38.4424879 113.967322,39.2568617 113.921959,40.0637194 C113.891442,40.4492667 113.992066,40.843569 113.851852,41.2216829 C113.840305,41.5478454 113.827108,41.8740078 113.814736,42.2005007 C113.569775,42.9825803 113.867523,43.8010837 113.653078,44.5848152 C113.639057,44.8393689 113.625036,45.0919404 113.610189,45.3464942 C113.490595,46.0169071 113.436984,46.6877331 113.641531,47.3542641 C117.056971,49.1994071 120.47901,51.0412463 123.676706,53.248067 C128.811001,56.7905928 132.127467,61.7445621 134.407176,67.4668178 C136.300885,72.2181848 137.152065,77.1499364 136.97886,82.2607511 C136.737197,82.9025867 137.01845,83.5872883 136.813078,84.2315191 C136.801531,84.3744062 136.789159,84.5164673 136.776787,84.6593544 C136.555744,85.0219407 136.808954,85.4522538 136.611005,85.8181438 C136.384189,87.0413563 136.165621,88.2662207 135.928907,89.4861294 C135.226189,93.1004291 133.704458,96.4330844 132.338612,99.8152958 C131.389283,102.165086 130.331082,104.471102 129.319894,106.796114 C129.24154,106.976994 129.178856,107.17109 129.069984,107.332147 C128.787082,107.748419 128.414279,107.738508 128.053847,107.456038 C127.757749,107.222298 127.680219,107.038114 127.90621,106.570633 C130.288193,101.652179 132.293249,96.5908383 133.364646,91.2032522 C133.428155,90.8827887 133.410009,90.5449805 133.429804,90.2162576 C133.647548,89.6934396 133.385266,89.1243691 133.586514,88.5998992 C133.586514,87.4815807 133.586514,86.3616103 133.586514,85.2432918 C133.377018,84.6659619 133.65992,84.0448574 133.424031,83.4708312 C133.412484,83.3279442 133.401762,83.1850571 133.391039,83.04217 C133.214535,82.7184028 133.414958,82.3374807 133.235155,82.0138786 C132.75018,78.0239428 131.477535,74.2659301 129.930236,70.5820865 C128.622125,67.4683871 127.017091,64.5073209 125.134104,61.719784 C123.498552,59.2980545 121.689796,57.0251588 119.382869,55.1287252 C117.3308,53.4413362 115.233369,51.8646227 112.940463,50.5415545 C110.679724,49.2358309 108.346403,48.0630831 105.933079,47.0767493 C101.657386,45.3281584 97.3412796,43.6798362 93.0565148,41.9543715 C89.5643696,40.5477184 86.1522286,38.9571292 82.7516347,37.3407708 C82.1087962,37.0358349 81.3922219,36.8903048 80.8106651,36.4502456 C80.174095,36.6519394 80.5123399,37.094559 80.5591053,37.4646613 C80.9221762,40.4470367 82.6122458,42.615121 84.9043269,44.3553699 C86.598438,45.6420144 86.8541218,46.2086071 86.2833696,48.2347128 C86.1225363,48.802214 85.7093184,48.982929 85.2061987,49.1061588 C84.4754381,49.2820007 83.7636475,49.0177009 83.4444552,48.4850543 C81.3871082,45.0565077 78.960092,41.8081807 78.0157942,37.8114722 C77.9252327,37.4271638 77.8478677,37.0407079 77.7641519,36.6551606 C77.5569656,36.0718014 77.8382177,35.4459064 77.6014216,34.8651902 C77.5898746,34.0163749 77.578575,33.1671466 77.5666156,32.3173402 C77.3713887,31.8605145 77.623031,31.3542978 77.4097412,30.9000325 C77.1284891,28.4180096 76.1874079,26.1212444 75.3619618,23.7992055 C74.4263242,21.1704137 73.5619482,18.4977646 72.0373307,16.1238568 C70.8729799,14.3119166 69.5497752,12.6623555 67.8689432,11.2459563 C66.0064107,9.67568516 64.0037471,8.31809274 62.0432301,6.89818338 C59.903322,5.34890753 57.4727592,4.45005696 54.8347627,4.15517273 C54.4645986,3.93804218 54.0299363,4.18743382 53.6568854,3.99256228 C53.4628957,3.97610961 53.2698957,3.95965695 53.0759884,3.94288217 C51.4933885,3.82415375 49.9112009,3.81254108 48.3292608,3.95224004 C46.7202676,4.11162108 45.3813095,5.04563178 43.8776416,5.5089328 C43.3467267,5.67347594 42.8596079,5.96094327 42.2789583,5.98643168 C40.5962293,6.05902327 39.7085943,4.83496006 40.3139875,3.26341695 C40.4090853,3.0156359 40.7028742,2.79657266 40.3964661,2.47200425 C40.0888208,2.1464695 39.7582464,2.19131787 39.4016088,2.30358747 C37.9527067,2.75849697 36.7896756,3.69026113 35.6642547,4.64848004 C34.663294,5.50151589 33.7288936,6.42907602 32.8387017,7.40858759 C31.5374364,8.84008484 31.2159347,10.6122976 30.9143103,12.3907048 C30.7783856,13.1926895 31.3022898,13.160478 31.8464013,12.8581851 C32.9115304,12.7342946 33.9766594,12.7326427 35.0417884,12.8590936 C37.5651397,13.1166207 39.8983776,14.1028719 42.3176408,14.7604003 C43.2938579,15.0256086 44.244919,15.3962891 45.2662519,15.4756616 C45.5955066,15.654064 45.9792796,15.4624466 46.3101014,15.6282947 C47.1774467,15.6292033 48.044462,15.6292033 48.9114774,15.6292033 C50.2340222,15.4104952 51.5771867,15.7124577 52.8987418,15.4714493 C53.5489209,15.4714493 54.1984401,15.4705408 54.8486191,15.46988 C55.7501106,15.7134488 56.6850883,15.4069436 57.587487,15.6350674 C61.5258416,16.1570595 64.65838,18.3860979 67.9601645,20.3567833 C72.067023,22.8080813 73.4069708,26.7158364 74.2378605,31.0039354 C74.4749866,32.2289649 74.6492639,33.4662183 74.8522439,34.6977728 C75.0374909,35.0923228 74.814881,35.5369247 75.0059015,35.9299054 C75.0220674,36.1140893 75.0381507,36.298934 75.054234,36.4825398 C75.2610904,37.0539229 74.9714255,37.6717237 75.2205109,38.2383164" id="path26" fill="#C81840"></path>
                        <path d="M94.827331,150.682269 C91.9191345,150.322161 89.0942414,149.650674 86.3543013,148.285401 C86.5101859,149.211276 86.6594722,150.006653 87.0982585,150.654188 C88.5960704,152.861917 89.4703439,155.356246 90.3817328,157.81919 C92.7909336,164.331702 96.1717326,170.195854 101.095707,175.166342 C104.779203,178.886361 107.737711,183.307601 111.664519,186.782318 C116.442506,191.01194 121.627112,194.6791 127.90951,196.422653 C128.37139,196.550673 128.920698,196.890133 129.303398,196.45982 C129.716616,195.994818 129.215971,195.533119 129.001527,195.12428 C127.334634,191.930382 125.171219,189.067685 122.999557,186.214899 C121.260082,183.928706 119.620407,181.539271 117.666489,179.450476 C114.889433,176.480407 113.68442,172.732306 112.000207,169.2006 C110.028143,165.06596 108.233408,160.853682 106.388361,156.662878 C105.411814,154.443586 104.11195,152.481986 102.106895,151.054767 C100.991784,150.83259 99.8634761,151.00934 98.7442411,150.951525 C98.2955574,150.918487 97.8386258,151.025033 97.3957155,150.882146 C97.0789976,150.867279 96.7639292,150.853238 96.4480361,150.838371 C95.923472,150.620324 95.3535446,150.878016 94.827331,150.682269" id="path28" fill="#C81840"></path>
                        <path d="M73.2491067,46.2053859 C73.1714118,45.4668332 73.0941294,44.7302627 73.0164345,43.9917925 C72.8160939,43.5426481 73.070623,43.0419651 72.8570033,42.5944726 C72.7896183,42.311837 72.6659003,42.0301925 72.6655704,41.748548 C72.6643332,41.003553 72.0895397,40.8087145 71.6848995,41.0781351 C70.019491,42.1905068 68.5590419,41.2851974 67.1408218,40.6509605 C65.9639342,40.1247561 64.7486116,39.773733 63.5388151,39.3733188 C61.9849177,38.8593383 60.4819921,38.2425286 59.2908357,37.0516929 C59.110125,36.8706475 58.9103618,36.6790301 58.6197896,36.6706056 C58.2437695,36.4454552 57.8017665,36.693897 57.4206328,36.5038489 C55.3724409,36.3947427 53.4184397,35.9256931 51.5826303,34.98842 C51.1757633,34.7809446 50.7524004,34.6018815 50.3283778,34.4299215 C49.2909616,34.0111715 49.1337573,34.1054109 49.0786616,35.1949042 C49.0609287,35.5508004 49.1031577,35.9118174 49.117674,36.2708522 C49.3251077,36.8648659 49.0593616,37.500094 49.2723214,38.0937774 C49.4964983,39.6762724 50.1534406,41.1242223 50.7301312,42.586048 C52.315288,46.6051394 54.1069713,50.5631114 56.7417511,53.9866197 C59.341725,57.3638755 62.0033104,60.743444 65.494136,63.3170633 C66.7558116,64.2472334 68.1501953,64.7295805 69.6973295,64.8202683 C70.3314252,65.0621853 71.0102243,64.7831012 71.6478666,64.9863643 C71.7802448,64.9854557 71.9129529,64.984795 72.0454136,64.9838038 C72.6320841,64.7847531 73.2613136,65.060616 73.8447674,64.8253892 C76.4431742,63.9603855 77.993525,61.949477 76.7730887,59.3806482 C74.9276293,55.4965149 74.253614,51.3145488 73.4114247,47.1684283 C73.2261777,46.8693566 73.4556332,46.5002454 73.2491067,46.2053859" id="path30" fill="#C81840"></path>
                        <path d="M26.4041314,62.3095029 C27.7863083,62.3095029 29.1690625,62.2820818 30.5502497,62.3169363 C32.253021,62.359885 33.4141551,61.3819758 34.1403795,60.0769129 C36.1227534,56.5147298 37.880208,52.8335293 39.2952939,49.0012648 C39.5871858,48.2098521 39.4937375,47.3981213 38.9689259,46.7470353 C36.3169905,43.457494 32.9485633,41.1893888 28.9322664,39.91439 C27.9663591,39.6078849 26.9379331,39.5014216 25.9395293,39.2965067 C25.5325797,39.2130044 25.220728,39.2929551 24.8573272,39.5598153 C24.0119212,40.1808373 23.372052,40.963908 22.8320644,41.832711 C20.5561491,45.4916939 18.3218854,49.1755375 16.5594821,53.1209553 C15.6174936,55.2303154 15.3800376,57.4984207 15.0849291,59.7481075 C14.9627783,60.6782776 15.4718364,61.2506518 16.5981645,61.4777845 C19.832564,62.1285401 23.0894802,62.5863569 26.4041314,62.3095029" id="path32" fill="#FFFFFF"></path>
                        <path d="M33.7205633,27.4236643 C33.7205633,27.7531305 33.7369765,28.0844137 33.7173466,28.4132192 C33.6509513,29.528234 34.1155534,30.244156 35.140103,30.7545024 C38.4840341,32.4196737 41.9374968,33.5404701 45.7344006,33.3668581 C46.8414287,33.3158978 47.9452403,33.5494728 49.0448454,33.1200682 C50.385453,32.5974154 51.4321893,31.8060027 52.155197,30.5357944 C54.2567525,26.8419569 55.7162119,22.9213998 56.468252,18.7345607 C56.6325494,17.8179359 56.2162798,17.3843191 55.3763174,17.2033563 C53.6149863,16.8235906 51.9061115,17.2901623 50.1872569,17.5272888 C47.7228779,17.8676573 45.2672416,17.8451093 42.8163891,17.4489074 C41.5972725,17.2504347 40.5154003,16.6897062 39.4779841,16.0389505 C38.9209234,15.69024 38.3738426,15.3227807 37.797152,15.0088421 C37.2075123,14.6894523 36.7236102,14.785261 36.4648747,15.4837558 C35.0346953,19.3450106 33.5395227,23.1913986 33.7205633,27.4236643" id="path34" fill="#FFFFFF"></path>
                        <path d="M66.2416398,22.0269928 C66.265806,21.6485485 66.1816778,21.3059499 65.9117253,21.0268658 C64.8478334,19.9215145 63.6844723,18.9801117 62.1383279,18.6274367 C61.0818592,18.3860979 60.0309164,18.1208896 58.9815408,17.8476697 C58.1387742,17.6279705 57.7843635,17.9086238 57.6010135,18.7984882 C56.7762272,22.8007304 55.7088713,26.7264909 53.5876034,30.2822317 C53.0598226,31.1649105 52.5066384,32.0118261 51.6818521,32.6477149 C51.1074709,33.0909952 51.1972902,33.3969222 51.8346026,33.7082178 C53.8955786,34.7157782 56.0993251,35.2123315 58.3387849,35.587885 C58.9541579,35.6911271 59.4374827,35.3690943 59.8257096,34.9567866 C63.2259736,31.3533067 65.5862646,27.2213923 66.2281133,22.225135 C66.2361137,22.1599686 66.2377633,22.0938111 66.2416398,22.0269928" id="path36" fill="#FFFFFF"></path>
                        <path d="M19.7974281,37.0910075 C19.1453521,37.0226199 18.5825179,37.3274732 18.2110342,37.9375927 C15.0403906,43.1477677 11.266416,48.0366531 9.68546557,54.0946522 C9.4209566,55.107416 9.42186387,55.9084922 10.2901989,56.66249 C11.1062425,57.3703178 11.7748142,58.2466369 12.5421954,59.0157493 C12.825427,59.2980545 13.1137723,59.7797409 13.5941279,59.5791208 C13.994974,59.4119512 13.9647044,58.8999529 14.0042941,58.5266295 C14.3770975,55.0048347 15.5600885,51.7439533 17.1719684,48.6244724 C18.6598004,45.7452565 20.6828362,43.2181375 22.5160063,40.5677061 C23.8147148,38.6893605 23.6871203,38.2170072 21.5182623,37.4017249 C20.9914713,37.2026741 20.4469474,37.0820047 19.7974281,37.0910075" id="path38" fill="#FFFFFF"></path>
                        <path d="M36.5863658,62.0840221 C38.3728529,61.8701045 40.2688716,61.6578387 42.1597767,61.4093969 C43.1153741,61.2835241 43.8493515,60.756659 44.4843544,60.0371854 C46.1635369,58.1343094 47.0038292,55.8243292 47.7480338,53.4613239 C47.9555501,52.802887 47.8572356,52.1711279 47.3369604,51.737511 C45.6957181,50.3731459 44.0802916,48.9531953 41.9748596,48.3083038 C40.8243652,47.9556287 40.8256024,48.0027071 40.4512319,49.1358099 C39.1589567,53.0500073 37.5403136,56.8186746 35.3549598,60.3289063 C35.0840175,60.7640924 34.4425812,61.2061338 34.815632,61.7800774 C35.1916521,62.359885 35.9033602,62.0268673 36.5863658,62.0840221" id="path40" fill="#FFFFFF"></path>
                        <path d="M72.1936277,30.6529122 C71.6913328,27.7044002 70.6355239,24.8564873 68.1489581,22.7107033 C67.6015475,22.23835 67.4323838,22.5057884 67.3412449,23.0378569 C67.1398321,24.212174 66.7229851,25.3191771 66.3363253,26.4389823 C65.1986975,29.7327359 63.4073441,32.6128604 60.9997104,35.1213132 C60.1411079,36.0150595 60.1662639,36.2289772 61.1814109,36.9268112 C62.44886,37.7972661 63.8697193,38.3011701 65.3672014,38.5893395 C65.9786979,38.708357 66.5722141,38.5680303 67.0335171,38.1518408 C68.651253,36.6932363 70.2254401,35.1933349 71.4445568,33.3629762 C71.9574914,32.592212 72.1536255,31.7430663 72.1936277,30.6529122" id="path42" fill="#FFFFFF"></path>
                        <path d="M44.3486771,34.5192878 C44.0902715,34.4654368 43.8341754,34.4028307 43.5745327,34.3599646 C41.952343,34.0895529 41.3321037,34.7332055 41.6523682,36.3735161 C42.2506682,39.4374941 43.2687019,42.3376888 44.9772467,44.9780437 C46.1561138,46.7993171 47.1929527,48.7121869 48.5844496,50.3928032 C49.0148231,50.9125653 49.5071381,51.2222916 50.1833804,51.4213424 C51.7879196,51.8969168 53.0401927,53.0087105 54.3314781,54.0262647 C54.4526392,54.1211648 54.5038585,54.3217849 54.7748008,54.2301885 C54.8895285,53.420027 54.214276,52.9796375 53.8105431,52.4512031 C52.6226859,50.8973681 51.829159,49.1383703 51.0742321,47.3616975 C49.3866368,43.3939794 47.7383838,39.4088341 46.0855946,35.425258 C45.9344937,35.062011 45.6732014,34.8519752 45.3529369,34.6771244 C45.0400955,34.4845159 44.663498,34.698351 44.3486771,34.5192878" id="path44" fill="#C81840"></path>
                        <path d="M32.4279582,26.7254998 C32.2652278,23.8218362 33.246971,21.1524082 34.1000474,18.4564677 C34.3968056,17.5182861 34.7373598,16.5896852 34.981909,15.6372974 C35.2280252,14.6793759 34.8839243,14.2993623 33.8941808,14.2706197 C33.2714671,14.2516232 32.7134167,14.4728917 32.2420513,14.8255667 C30.5867052,16.0661239 29.3694856,17.6031098 29.0936771,19.7424514 C28.812095,21.9286237 28.4155378,24.1024895 28.451251,26.3218645 C28.478304,28.0173477 28.5643292,28.1676682 30.1923749,28.7029579 C30.6901334,28.8664934 31.1988616,29.0035989 31.7098167,29.1184867 C32.2839505,29.2481588 32.5832654,29.0465476 32.51753,28.4015735 C32.4611146,27.845718 32.455671,27.2849895 32.4279582,26.7254998" id="path46" fill="#FFFFFF"></path>
                        <path d="M51.2856248,61.9743377 C52.3732705,61.889101 53.2477089,61.4264938 53.7757371,60.4521361 C54.0715055,59.905944 54.2934555,59.3164729 54.517055,58.7341048 C55.2922717,56.7137806 55.219773,56.447003 53.57152,55.0116074 C52.4696055,54.0526947 51.1103577,53.509063 49.8960248,52.7302871 C49.526768,52.4940692 49.2590424,52.658348 49.1043949,53.0044982 C48.943974,53.3619637 48.8021932,53.7336352 48.7084975,54.1137314 C48.1939133,56.199222 47.3862001,58.1675947 46.3191741,60.0233096 C45.9154412,60.725356 46.0746249,60.9847827 46.8343356,61.151622 C48.3102082,61.4720029 49.7822868,61.8023776 51.2856248,61.9743377" id="path48" fill="#FFFFFF"></path>
                        <path d="M73.3708452,36.7531993 C73.1801546,35.9876384 73.3106358,35.1371712 72.9897114,34.3564131 C72.7980311,33.8914932 72.5096858,33.7998142 72.2335473,34.2508584 C71.1842542,35.9631081 69.6532034,37.2248918 68.2456231,38.6025545 C67.7510812,39.087462 67.7848975,39.4655759 68.396394,39.8531055 C69.4934423,40.5486269 70.6983726,40.4651247 71.6110811,39.5342939 C72.0711469,39.0651617 72.5003657,38.5648092 72.923976,38.0624744 C73.2297242,37.6998055 73.3895678,37.2720528 73.3708452,36.7531993" id="path50" fill="#FFFFFF"></path>
                        <path d="M58.2547391,59.725229 C58.3227015,58.724111 57.9528674,57.9511166 57.1286584,57.3623063 C56.6934187,57.0505977 56.4211567,57.0864433 56.2346725,57.5867959 C55.756214,58.8750922 55.2346191,60.1430705 54.6211431,61.3745424 C54.3691709,61.8800983 54.5799038,62.2326908 55.086405,62.4714691 C56.4040836,63.0925736 57.8223862,62.2920756 58.1574144,60.7047076 C58.2244695,60.3859785 58.2241396,60.0520522 58.2547391,59.725229" id="path52" fill="#FFFFFF"></path>
                        <path d="M114.049484,35.6614759 C114.494818,33.7585174 114.494818,31.8556415 114.048151,29.951857 C114.049484,31.8556415 114.049484,33.7585174 114.049484,35.6614759" id="path54" fill="#A5333F"></path>
                        <path d="M96.2022497,138.959748 C94.6194848,138.959748 93.0358951,138.959748 91.4531302,138.959748 C93.0358951,139.493081 94.6194848,139.435748 96.2022497,138.959748" id="path56" fill="#A3343F"></path>
                        <path d="M48.3292608,4.09101969 C49.9115308,4.08684636 51.4933885,4.08164636 53.0756585,4.07591303 C51.4930585,3.63059304 49.9112009,3.58424637 48.3292608,4.09101969" id="path58" fill="#764140"></path>
                        <path d="M52.8987418,15.4985742 C51.5697637,15.5851075 50.2275889,15.1507075 48.9111475,15.7532408 C50.2433423,15.7747075 51.5775167,15.9105742 52.8987418,15.4985742" id="path60" fill="#A7313F"></path>
                        <path d="M98.5850574,151.159612 C99.7579035,151.172945 100.932399,151.186279 102.106895,151.199612 C100.946421,150.494279 99.7504804,151.000945 98.571036,150.920945 C98.5124762,150.983612 98.4943309,151.039612 98.5182497,151.090279 C98.5396941,151.136945 98.5619633,151.159612 98.5850574,151.159612" id="path62" fill="#774240"></path>
                        <path d="M111.629053,14.3177807 C111.670292,13.842867 112.018352,13.8747482 112.351566,13.8747482 C113.040262,13.8757393 113.728959,13.8725181 114.417655,13.8708663 C113.578023,13.5511461 112.701275,13.7063396 111.841848,13.6899035 C111.280168,13.6782578 111.404711,14.0064025 111.629053,14.3177807" id="path64" fill="#9E333E"></path>
                        <path d="M40.7969823,63.952904 C41.8421515,63.8419707 42.9043938,64.263304 43.934057,63.6835707 C42.8846814,63.6674374 41.8292024,63.458104 40.7969823,63.952904" id="path66" fill="#A6333F"></path>
                        <path d="M35.0417884,12.9937967 C33.9769893,12.5401967 32.9118603,12.5043301 31.8464013,12.99233 C32.9115304,12.9937967 33.9766594,12.9937967 35.0417884,12.9937967" id="path68" fill="#853C3F"></path>
                        <path d="M75.7404075,45.3942333 C75.6330742,44.4098818 76.0574742,43.4062033 75.4726742,42.4382879 C75.4830742,43.4268517 75.2028075,44.4254094 75.7404075,45.3942333" id="path70" fill="#A7313F"></path>
                        <path d="M57.587487,15.7591663 C56.6924289,15.1752997 55.7613277,15.5695663 54.8486191,15.4924997 C55.7478012,15.9455663 56.6721392,15.736233 57.587487,15.7591663" id="path72" fill="#8B3A40"></path>
                        <path d="M114.135671,28.3264132 C114.034338,27.406237 114.443671,26.4664034 113.870338,25.563737 C113.862338,26.4877126 113.675671,27.419452 114.135671,28.3264132" id="path74" fill="#A3343F"></path>
                        <path d="M114.105701,40.2279983 C114.107034,39.3648942 114.108367,38.5018728 114.109701,37.6388514 C113.652367,38.4928701 113.872367,39.3707584 113.865701,40.2421218 C113.960367,40.3273585 114.040367,40.3273585 114.105701,40.2279983" id="path76" fill="#7B4240"></path>
                        <path d="M75.5325777,41.4297364 C75.436311,40.5741484 75.8476443,39.6984901 75.267511,38.8619813 C75.241511,39.7226901 75.1049777,40.5873634 75.5325777,41.4297364" id="path78" fill="#A7323F"></path>
                        <path d="M113.671297,44.5848152 C114.233964,43.810169 113.85263,42.9957953 113.93263,42.2005007 C113.47663,42.9800199 113.655297,43.7853083 113.671297,44.5848152" id="path80" fill="#A82F3F"></path>
                        <path d="M28.0626942,64.9198406 C28.8727168,64.8490406 29.7007198,65.2354406 30.4916074,64.6714406 C29.6781206,64.646374 28.8591078,64.5062406 28.0626942,64.9198406" id="path82" fill="#A3343F"></path>
                        <path d="M24.1407528,64.8550439 C24.8663173,65.2774439 25.5915519,65.2842439 26.3161267,64.8509106 C25.591222,64.8523773 24.8663173,64.8534439 24.1407528,64.8550439" id="path84" fill="#A4333F"></path>
                        <path d="M71.6478666,65.102342 C71.021194,64.5664754 70.3475085,64.9184754 69.6969995,64.8342087 C70.3236722,65.3742087 70.9931512,65.0998087 71.6478666,65.102342" id="path86" fill="#A6333F"></path>
                        <path d="M20.596811,64.6674533 C21.2295871,65.2179866 21.9093759,64.8554533 22.5665657,64.9315866 C21.9273563,64.4982533 21.2585371,64.65292 20.596811,64.6674533" id="path88" fill="#A3333F"></path>
                        <path d="M113.791758,47.3542641 C113.775758,46.6850901 113.758425,46.0153379 113.741091,45.3464942 C113.435758,46.0178983 113.130425,46.6909542 113.791758,47.3542641" id="path90" fill="#A1343F"></path>
                        <path d="M37.9862755,64.1371413 C38.6518781,64.0772747 39.337193,64.412208 39.9792892,63.881408 C39.3097276,63.8559413 38.6322482,63.6799414 37.9862755,64.1371413" id="path92" fill="#A1353F"></path>
                        <path d="M49.0967244,63.6879005 C49.7491304,64.2103005 50.441456,63.8879005 51.116791,63.9357672 C50.4620757,63.4623005 49.7751936,63.6597672 49.0967244,63.6879005" id="path94" fill="#A2353F"></path>
                        <path d="M101.924617,148.880868 C101.273861,148.962202 100.600835,148.614202 99.9739975,149.151535 C100.629703,149.170202 101.295305,149.367535 101.924617,148.880868" id="path96" fill="#A7323F"></path>
                        <path d="M136.826451,84.2315191 C137.381117,83.5988515 137.015784,82.9182795 137.094451,82.2607511 C136.667784,82.9001089 136.811784,83.5691177 136.826451,84.2315191" id="path98" fill="#AA2D3F"></path>
                        <path d="M72.0579503,70.6011656 C72.6484973,71.0183656 73.2391268,71.0198323 73.8293439,70.6011656 C73.2391268,70.6011656 72.6484973,70.6011656 72.0579503,70.6011656" id="path100" fill="#A3343F"></path>
                        <path d="M73.8447674,64.8407663 C73.2442405,64.9142329 72.6217743,64.5776996 72.0457435,65.0964996 C72.649817,65.0964996 73.2700563,65.3886329 73.8447674,64.8407663" id="path102" fill="#A3343F"></path>
                        <path d="M75.33988,38.2383164 C75.2513467,37.6537182 75.62428,37.0407079 75.07108,36.4825398 C75.04508,37.0745713 74.89828,37.6743667 75.33988,38.2383164" id="path104" fill="#A7313F"></path>
                        <path d="M49.3938525,38.0937774 C49.3329192,37.4843186 49.6901192,36.8542114 49.1438525,36.2708522 C49.1859859,36.8806413 48.8395859,37.5107486 49.3938525,38.0937774" id="path106" fill="#893C40"></path>
                        <path d="M180.360239,193.48397 C180.346906,194.0836 180.333572,194.68323 180.318906,195.28286 C180.920239,194.688185 180.772239,194.087729 180.360239,193.48397" id="path108" fill="#7E3F3F"></path>
                        <path d="M133.440937,83.4708312 C133.499603,84.063028 133.17827,84.677525 133.703603,85.2432918 C133.71827,84.6461394 133.947603,84.0382499 133.440937,83.4708312" id="path110" fill="#923A40"></path>
                        <path d="M77.6218439,34.8651902 C77.6922439,35.4633337 77.3259773,36.0850164 77.8849106,36.6551606 C77.9093106,36.0521441 78.0365106,35.4443371 77.6218439,34.8651902" id="path112" fill="#A72F3F"></path>
                        <path d="M21.1082412,85.4464722 C21.1035745,84.8897908 21.0983745,84.3331093 21.0942412,83.7756019 C20.6410412,84.3339353 20.6374412,84.8906167 21.1082412,85.4464722" id="path114" fill="#993840"></path>
                        <path d="M33.4528376,64.5407892 C33.9786389,64.4647892 34.5311632,64.8074558 35.0273547,64.2741225 C34.4953675,64.2513225 33.9544727,64.0887892 33.4528376,64.5407892" id="path116" fill="#A7313F"></path>
                        <path d="M31.2732573,64.7291232 C31.8061518,64.6780566 32.361233,64.9957899 32.8648475,64.4703233 C32.3270868,64.4411233 31.7813257,64.2848566 31.2732573,64.7291232" id="path118" fill="#8D3B40"></path>
                        <path d="M133.701761,88.5998992 C133.189761,89.112806 133.493761,89.675269 133.448428,90.2162576 C133.933761,89.7016989 133.723094,89.1450175 133.701761,88.5998992" id="path120" fill="#923A40"></path>
                        <path d="M96.390301,149.150459 C95.8772839,148.622459 95.3131301,148.953125 94.7712455,148.898459 C95.2883865,149.358459 95.8442925,149.177125 96.390301,149.150459" id="path122" fill="#A3333F"></path>
                        <path d="M94.827331,150.699566 C95.340348,151.234232 95.9053267,150.898232 96.4472113,150.951566 C95.9267711,150.542232 95.3741643,150.662232 94.827331,150.699566" id="path124" fill="#A3333F"></path>
                        <path d="M113.929017,24.7987543 C113.865017,24.2651165 114.20635,23.7076091 113.670351,23.2030443 C113.645017,23.7424637 113.495684,24.2893165 113.929017,24.7987543" id="path126" fill="#A3333F"></path>
                        <path d="M35.6104786,64.3346597 C36.1491465,64.2742597 36.7107435,64.6038597 37.2213687,64.0799931 C36.6778346,64.0527931 36.1256401,63.8851931 35.6104786,64.3346597" id="path128" fill="#A0363F"></path>
                        <path d="M72.8764254,42.5944726 C72.9160254,43.0636047 72.6160254,43.5565238 73.1341587,43.9917925 C73.1696254,43.51787 73.3133587,43.0355228 72.8764254,42.5944726" id="path130" fill="#93383F"></path>
                        <path d="M77.4265987,30.9000325 C77.4719321,31.3749462 77.1796654,31.8727384 77.6801987,32.3164316 C77.6995321,31.8373057 77.9271321,31.344304 77.4265987,30.9000325" id="path132" fill="#943940"></path>
                        <path d="M19.780685,82.1515395 C19.3480021,81.6250062 18.8537901,81.9474062 18.3876209,81.8891395 C18.8264072,82.3287395 19.3077525,82.1823395 19.780685,82.1515395" id="path134" fill="#AA2D3F"></path>
                        <path d="M80.5831528,37.4646613 C80.6812847,37.1275139 80.4110046,36.7086813 80.8660473,36.4502456 C80.6337956,36.2511949 80.4124886,36.1956919 80.3878165,36.5651335 C80.3678748,36.8696564 80.2994236,37.2026741 80.5831528,37.4646613" id="path136" fill="#9C3740"></path>
                        <path d="M136.628739,85.8181438 C137.120739,85.4671206 136.856739,85.0491966 136.896739,84.6593544 C136.451406,85.0136813 136.600739,85.4208682 136.628739,85.8181438" id="path138" fill="#93383F"></path>
                        <path d="M73.7252963,118.350145 C73.2998296,118.744943 73.3138296,119.141392 73.7216963,119.537842 C73.7226296,119.142218 73.7242296,118.745769 73.7252963,118.350145" id="path140" fill="#A6333F"></path>
                        <path d="M115.022224,13.9263695 C115.386779,14.4247694 115.815668,14.1419694 116.217339,14.1905028 C115.849484,13.7367695 115.430493,13.8941028 115.022224,13.9263695" id="path142" fill="#AA2D3F"></path>
                        <path d="M98.5850574,151.120813 C98.5801086,151.042146 98.5751599,150.962146 98.571036,150.882146 C98.1792625,150.882146 97.787489,150.882146 97.3957155,150.882146 C97.7602711,151.374146 98.1858608,151.074146 98.5850574,151.120813" id="path144" fill="#A2353F"></path>
                        <path d="M67.2929124,129.920185 C66.9420483,129.429519 66.5232218,129.705519 66.1336753,129.650852 C66.4861889,130.124185 66.8966026,129.942852 67.2929124,129.920185" id="path146" fill="#A3333F"></path>
                        <path d="M75.1188875,35.9299054 C75.0996875,35.514294 75.3674209,35.0767952 74.8704875,34.6977728 C74.8204875,35.1187528 74.7242209,35.543367 75.1188875,35.9299054" id="path148" fill="#913A40"></path>
                        <path d="M57.4206328,36.5285282 C57.7852708,37.0285281 58.2179537,36.7274615 58.6197896,36.7977281 C58.2576259,36.2711948 57.8288195,36.5233282 57.4206328,36.5285282" id="path150" fill="#A82F3F"></path>
                        <path d="M53.6568854,4.01265522 C54.0148427,4.50589521 54.4377931,4.23818855 54.8347627,4.27516188 C54.4739187,3.81422856 54.0592986,3.98713522 53.6568854,4.01265522" id="path152" fill="#96373F"></path>
                        <path d="M73.2622925,46.2053859 C73.2836258,46.5331177 73.0622925,46.8867838 73.5246925,47.1684283 C73.5528258,46.8354932 73.6913591,46.4912427 73.2622925,46.2053859" id="path154" fill="#8D3B40"></path>
                        <path d="M75.9102404,47.0313228 C75.9091737,46.6738573 76.1159737,46.2986342 75.6634404,45.9814744 C75.6091737,46.3440607 75.5149071,46.70929 75.9102404,47.0313228" id="path156" fill="#8D3B40"></path>
                        <path d="M114.087728,40.2279983 C114.009061,40.2331191 113.927728,40.2379921 113.847728,40.2421218 C113.850395,40.5692754 113.851728,40.8945293 113.854395,41.2216829 C114.315728,40.9241804 114.073061,40.5651457 114.087728,40.2279983" id="path158" fill="#A6333F"></path>
                        <path d="M44.3486771,34.5351926 C44.6467549,35.0003926 45.011063,34.7779926 45.3529369,34.7899926 C45.0468587,34.4123926 44.6966544,34.4831926 44.3486771,34.5351926" id="path160" fill="#923A40"></path>
                        <path d="M80.4595812,64.275976 C80.4527812,63.9249528 80.6886479,63.5516293 80.2126479,63.2435549 C80.1621145,63.5996989 80.0881146,63.9581555 80.4595812,64.275976" id="path162" fill="#8D3B40"></path>
                        <path d="M46.3101014,15.7387374 C45.9973424,15.2746041 45.6206625,15.5111374 45.2665818,15.4923374 C45.5836296,15.9095374 45.9505771,15.7840708 46.3101014,15.7387374" id="path164" fill="#A3333F"></path>
                        <path d="M133.252572,82.0138786 C133.261905,82.3633325 133.037905,82.7357474 133.504572,83.04217 C133.560572,82.6870172 133.643238,82.3278172 133.252572,82.0138786" id="path166" fill="#93383F"></path>
                        <path d="M99.5335616,11.3004682 C99.5657283,11.4270017 99.5978949,11.5524615 99.6300616,11.6780039 C99.9484291,12.1354903 100.299788,12.5626649 100.75507,12.8920485 C102.460728,13.4156925 103.307784,13.0655778 104.28763,11.4343525 C104.498775,10.1490296 104.150715,9.12172931 102.932506,8.49814698 C102.733732,8.4219956 102.534959,8.34683534 102.334536,8.27101434 C102.005446,8.21807179 101.677181,8.18419186 101.351391,8.29579245 C99.8659505,8.93333311 99.5162411,9.51148891 99.5335616,11.3004682" id="path168" fill="#FEFEFE"></path>
                        <path d="M101.351391,8.41424334 C101.679656,8.40237668 102.007096,8.38877668 102.334536,8.37424334 C102.001322,8.01533669 101.673057,7.99659002 101.351391,8.41424334" id="path170" fill="#1E1C1B"></path>
                        <path d="M76.424534,110.381506 C75.8928767,110.450885 75.8236772,110.814297 75.8748964,111.251218 C75.9379925,111.789728 76.3655618,111.608848 76.644587,111.589852 C78.5622151,111.463483 79.9923121,112.53142 81.4415441,113.534933 C83.8395278,115.196718 85.4247671,117.545682 86.9159807,119.993759 C88.8938183,123.240517 90.1870832,126.849035 92.2234806,130.052844 C93.657784,132.31013 95.572113,134.049553 98.3491685,134.537682 C99.0584847,134.663224 99.7372838,134.559982 100.358348,134.219696 C100.901057,133.923185 101.310976,133.469745 101.271386,132.804866 C101.233446,132.163939 100.883737,131.693981 100.268446,131.457763 C99.1021984,131.010931 97.91863,130.602918 96.834036,129.970251 C95.7354207,129.329324 95.7164506,129.243426 96.7688779,128.549639 C100.308861,126.21802 102.700741,122.910968 104.709096,119.271065 C105.362326,118.087497 106.10216,116.963397 106.938493,115.900416 C107.368207,115.353646 107.872151,115.036486 108.59054,114.963804 C109.342745,114.888644 110.13454,114.736671 110.24836,113.748851 C110.275578,113.504373 110.319292,113.13518 109.899476,113.208688 C107.275006,113.674516 105.417587,112.02925 103.406758,110.840727 C101.109728,109.482887 98.8390915,108.084576 96.1783309,107.530372 C95.7279976,107.436215 95.2784891,107.305717 94.823207,107.277635 C93.6610831,107.204953 92.6432968,106.82337 91.7954165,106.013952 C91.2287883,105.472137 90.7858781,105.692663 90.4947285,106.292293 C90.0658396,107.179349 89.3548738,107.806235 88.5333867,108.228289 C86.4417286,109.302007 85.0131987,111.030692 83.730656,112.905569 C83.394968,113.396176 83.2399082,113.311104 82.8497843,113.010463 C81.224048,111.754213 79.4788001,110.721792 77.4084216,110.377376 C77.0798267,110.284046 76.7521391,110.27909 76.424534,110.381506" id="path172" fill="#100F0D"></path>
                        <path d="M58.230243,91.9763291 C58.2018703,89.5414672 57.2334063,87.555915 55.5316247,85.8230994 C53.0898448,83.3362035 50.4598487,81.2334509 46.9216805,80.5594864 C45.0098258,80.1942571 43.1170237,80.0365032 41.2528417,80.7453222 C40.9880028,80.8453431 40.5404738,80.7898402 40.5637327,81.2902753 C40.5843524,81.733886 40.8162823,81.9519334 41.2205926,82.1510667 C41.7370737,82.4061986 42.2834947,82.4904442 42.8196058,82.6275497 C45.2788711,83.2585655 47.1597138,84.6940437 48.5035381,86.8109199 C49.8067829,88.864199 49.5967099,91.2660234 48.0392659,93.128511 C47.5663334,93.6942777 46.9455168,93.8148645 46.2521189,93.6397659 C43.3389737,92.8989005 41.0988541,91.231334 39.5056144,88.6907522 C38.7014478,87.4088982 37.9447063,86.0964845 37.1369931,84.8162824 C36.2055619,83.3403332 34.6948008,82.8026483 33.264374,83.4237528 C33.6074851,84.1563588 34.3984551,84.3752321 34.9222769,84.8897908 C35.7773329,85.7289426 36.2838341,86.7886196 36.8347914,87.8185629 C37.9511396,89.9032275 38.8413315,92.0969158 39.9999088,94.1691914 C41.321134,96.5321968 43.3051575,98.1535109 45.3912895,99.7459171 C47.6648954,101.482036 50.0078658,103.128129 52.0813786,105.132677 C53.6619991,106.659835 55.4520328,107.968945 57.1254417,109.402771 C58.6719161,110.727574 60.1671711,112.113496 61.7265946,113.422606 C62.269469,113.878523 62.8877288,114.246065 63.3552176,114.793661 C63.8771424,114.917551 64.399727,114.904336 64.9226415,114.803572 C65.4716193,114.576439 65.2367202,114.319573 64.9203321,114.12713 C61.1298617,111.815333 58.2927618,108.47194 55.325758,105.268131 C54.3153948,104.177068 54.4581653,103.669117 55.8963452,103.232197 C56.3342242,103.099221 56.788764,103.023235 57.2269729,102.891911 C57.763084,102.730853 57.8587592,102.521065 57.2530362,102.295584 C56.7914033,102.516109 56.2797059,102.273284 55.8128768,102.449208 C55.3518213,102.450034 54.8911781,102.450034 54.4304525,102.45086 C54.1091982,102.288151 53.7306213,102.498765 53.4155529,102.294758 C53.1304243,102.226206 52.8214594,102.207209 52.5637136,102.082493 C48.3682731,100.049862 44.3589869,97.7620168 41.5283203,93.8850692 C41.3933028,93.7000593 41.2548212,93.5167013 41.1326703,93.3234321 C40.9587229,93.0475692 40.7985494,92.762621 40.5314836,92.3100076 C41.6262225,92.8072215 42.1964797,93.6422437 42.9120643,94.3046451 C45.0742416,96.3050642 47.2509351,98.3335651 50.1096445,99.2734812 C52.6957619,100.12337 55.0203397,99.4130646 57.0300964,97.6067407 C57.8812759,96.8419231 58.0156336,95.7855499 58.220593,94.7539547 C58.3468678,93.8289054 58.3259182,92.9022043 58.230243,91.9763291" id="path174" fill="#100F0D"></path>
                        <path d="M113.450181,131.216589 C113.153258,130.544277 112.495903,130.426168 111.902057,130.294018 C110.59642,130.002462 109.413677,129.449085 108.286194,128.756124 C108.040408,128.605803 107.83916,128.315073 107.538113,128.66527 C107.278305,128.966737 107.096027,129.372272 107.433365,129.623357 C109.585232,131.220719 110.161758,133.740652 111.162224,135.992156 C113.211818,140.602536 116.708912,143.636202 121.214719,145.686177 C124.468501,147.167082 127.766822,148.561264 130.908433,150.276734 C133.308561,151.587496 135.797766,152.709118 138.235834,153.933157 C141.70571,155.674232 145.060116,157.654002 148.225646,159.910462 C150.434424,161.483046 152.220911,163.510721 153.816047,165.715146 C155.444176,167.963346 157.070654,170.212372 158.583312,172.539863 C159.587902,174.087668 160.495167,175.719719 161.771936,177.052782 C163.127885,178.470089 164.490432,179.885745 165.951128,181.208896 C168.145885,183.198578 170.858607,184.483736 172.984081,186.554359 C174.165175,187.705715 175.131,189.014825 175.873308,190.477559 C176.137239,190.999551 176.495196,191.339837 177.00409,191.111053 C177.564119,190.858316 177.286991,190.280986 177.142654,189.874625 C176.339312,187.623122 174.845624,185.888654 172.937068,184.510991 C171.416987,183.414147 169.772363,182.478361 168.311667,181.310486 C164.991077,178.657577 162.269282,175.440553 159.931838,171.898936 C157.608415,168.378793 155.323757,164.836349 152.324834,161.822506 C147.743971,157.220386 142.82742,153.108872 136.851843,150.375021 C129.926937,147.206727 123.377309,143.339691 116.974493,139.226525 C115.310074,138.157763 114.253523,136.583527 113.812262,134.626883 C113.605241,134.315505 113.818036,133.937225 113.652254,133.61924 C113.636583,133.424319 113.620087,133.228572 113.604416,133.033651 C113.382548,132.44228 113.649779,131.809612 113.450181,131.216589" id="path176" fill="#100F0D"></path>
                        <path d="M55.6147631,75.5551349 C56.5490811,75.2577151 56.5259046,74.6076202 56.2855618,73.8323132 C55.7242948,72.0249156 54.2171627,71.771353 52.6654923,71.5748626 C51.749897,71.8062075 50.8065064,71.5310054 49.8889317,71.7251831 C47.0166958,72.4107933 44.5890198,74.0113764 42.110537,75.5102866 C39.1976392,77.273827 36.2545542,78.9924364 32.9794928,80.0036309 C30.4033552,80.7989255 27.8339809,80.2652877 25.28069,79.7697256 C21.4183807,79.0182882 18.5618983,76.8937308 16.6919427,73.4364417 C16.4548167,72.9963825 16.1474188,72.5634264 15.6374535,72.8237617 C15.2092244,73.0424698 15.1992445,73.5067289 15.3626347,74.0262432 C15.6589804,74.965416 15.8490936,75.9291192 16.3871842,76.7872676 C17.9436384,79.2682993 20.4450503,80.2820542 23.063087,81.0567004 C24.830934,81.5793532 26.6824968,81.7106772 28.5144296,81.8980823 C29.5657023,82.0065278 30.616645,82.0023155 31.6679176,81.9000645 C33.2092782,81.7990524 34.5904654,81.1980182 35.9510329,80.5298353 C38.9250473,79.0670185 41.8115519,77.4109325 44.9939899,76.4098144 C46.4045394,75.9665341 47.8269659,75.5657895 49.3193342,75.5112777 C50.6231564,75.3609572 51.9270611,75.3667387 53.2312957,75.5080565 C53.4407089,75.5235016 53.6501222,75.5393596 53.8595354,75.5542264 C54.4445563,75.6615982 55.0296597,75.6590378 55.6147631,75.5551349" id="path178" fill="#100F0D"></path>
                        <path d="M8.12189343,64.0365369 C7.54582968,66.2311337 7.3531596,68.3975661 8.07807253,70.6333772 C9.15867456,73.9652065 11.1085519,76.5817745 14.2465338,78.1023242 C15.7897915,78.8498797 16.9471316,80.0194063 18.290956,80.9782364 C18.6234273,81.2166844 18.9359388,81.3324807 19.5313521,81.5199684 C17.7080795,79.143748 15.1387052,77.4835323 15.0423701,74.3278754 C14.7482513,73.8678285 14.2833193,74.0949612 13.888989,74.0410275 C13.5435685,73.9932883 13.178518,74.1400573 12.8479437,73.9377854 C12.4948527,73.6306195 11.7009959,73.4119114 12.7316488,72.898922 C13.2484599,72.6421382 13.0209839,72.2366032 12.6717693,71.9587581 C12.3124924,71.6732317 11.920389,71.4286718 11.5456886,71.1628853 C11.3759476,71.0427941 11.2390331,70.8870224 11.3127689,70.6673232 C11.4143001,70.3656084 11.6407865,70.5959622 11.8089604,70.5788653 C12.0483134,70.5530961 12.3920843,70.7472739 12.489739,70.4217722 C12.5751044,70.1369065 12.2438702,69.9891464 12.0486433,69.8271802 C11.5418946,69.4109906 11.0141138,69.0186706 10.5109117,68.5966169 C10.1964207,68.3330604 9.84654634,68.0678521 9.91805531,67.4880444 C10.0897758,67.54586 10.2016168,67.5922776 10.3175818,67.6219288 C10.754801,67.7293832 11.2841489,68.3114209 11.6011142,67.7919892 C11.8540762,67.37836 11.1623279,67.0792883 10.870766,66.7514739 C10.6784258,66.5340873 10.4122673,66.3814542 10.1722544,66.2094942 C8.80269679,65.2293549 8.76145747,65.1086855 9.51110575,63.571617 C9.71086899,63.1618697 9.6822489,62.8273653 9.41831729,62.4763421 C9.03363695,61.9642613 8.6347703,61.7604201 8.1260751,61.8394622 C8.27013227,62.5714901 8.27557586,63.3038483 8.12189343,64.0365369" id="path180" fill="#100F0D"></path>
                        <path d="M62.5764544,87.8094776 C61.8741489,83.578203 58.8810819,81.4077236 55.3325213,79.7384226 C53.8069965,79.0198575 52.1702906,78.6562801 50.5316876,78.3565476 C49.9727299,78.2542966 49.347377,78.5269384 48.6878778,78.8324524 C50.0068761,79.4889896 51.2160128,80.1036518 52.4347995,80.6965919 C56.2923251,82.5730379 59.0492558,85.4704244 60.5705741,89.5043 C61.0157938,90.6845638 61.2432698,91.9036466 60.993607,93.1780672 C60.9194587,93.5579982 60.9484912,93.9569257 61.0316297,94.3806313 C61.9791442,93.442367 62.5223484,92.3281782 62.5861044,90.9868567 C62.6792228,89.9271797 62.7018219,88.8683286 62.5764544,87.8094776" id="path182" fill="#100F0D"></path>
                        <path d="M86.3336816,61.2496607 C85.8915961,60.0085254 84.8300962,59.3816393 83.8189082,58.7044537 C83.5137372,58.4995387 83.3083654,58.6366442 83.0972201,58.8654288 C82.8151432,59.1699517 82.9842244,59.3467848 83.2126902,59.5923358 C83.7273569,60.1424097 84.5397714,60.3563274 84.9290705,61.0086523 C84.7723611,61.2929398 84.6074039,61.2029127 84.4556432,61.1764001 C83.6993141,61.0431765 83.1838227,61.575245 83.6259082,62.1385339 C85.309297,64.2834094 84.456468,66.4879175 83.9665449,68.7030801 C83.9244808,68.8953582 83.9096347,69.0944916 83.8700449,69.2876782 C83.8015876,69.6232564 83.8799423,69.8906948 84.2395492,69.9717192 C84.5892586,70.0501006 84.7731859,69.8471679 84.9026774,69.53389 C85.6326132,67.7648985 85.865203,65.8933255 85.6317885,64.0381887 C85.5220919,63.1667428 85.5039466,62.6217896 86.3262585,62.2449972 C86.4450278,61.9139617 86.4343055,61.5820177 86.3336816,61.2496607" id="path184" fill="#110F0D"></path>
                        <path d="M82.3848522,66.0823825 C82.6691561,68.1414431 81.3329198,69.5148109 79.6978634,70.7282773 C79.2558604,71.0570002 78.4265378,71.3758118 78.9210797,72.0207033 C79.3444425,72.5727595 79.9343296,71.9365404 80.3576924,71.6203717 C83.3537287,69.384478 84.166968,66.9257466 83.1458825,63.3202844 C83.0163911,62.8612287 82.8464851,62.4746903 82.2849706,62.6366565 C81.7025065,62.8060561 82.0391843,63.2222457 82.1267766,63.5245386 C82.351036,64.2927425 82.4154518,65.073831 82.3848522,66.0823825" id="path186" fill="#110F0E"></path>
                        <path d="M53.2312957,75.6430779 C51.9267312,75.1920113 50.6225791,75.1466779 49.3190043,75.6482779 C50.6231564,75.6466779 51.9270611,75.6456112 53.2312957,75.6430779" id="path188" fill="#774240"></path>
                        <path d="M62.5764544,87.8094776 C62.5816544,88.8683286 62.5868544,89.9271797 62.5920544,90.9868567 C63.0447211,89.9263538 63.0577877,88.8675027 62.5764544,87.8094776" id="path190" fill="#813E3F"></path>
                        <path d="M31.6679176,81.9012823 C30.616645,81.9012823 29.5657023,81.8996823 28.5144296,81.8980823 C29.5657023,82.3491489 30.616645,82.3423489 31.6679176,81.9012823" id="path192" fill="#A6333F"></path>
                        <path d="M58.236193,91.9763291 C58.230993,92.9022043 58.225793,93.8280795 58.220593,94.7539547 C58.680993,93.8289054 58.6659263,92.9030302 58.236193,91.9763291" id="path194" fill="#7D3F3F"></path>
                        <path d="M49.8889317,71.8450336 C50.8152492,71.778367 51.7563303,72.1663669 52.6654923,71.600767 C51.7399171,71.6706336 50.7978462,71.271567 49.8889317,71.8450336" id="path196" fill="#A0363F"></path>
                        <path d="M12.8479437,73.9430797 C13.1988078,74.3715186 13.6370168,74.1642894 14.0377804,74.1553657 C14.3970573,74.148425 14.7466018,74.0988486 15.0423701,74.4113779 C14.9305291,73.6855802 14.4508334,73.9729247 14.1077223,73.9430797 C13.690133,73.9062941 13.2680898,73.9404026 12.8479437,73.9430797" id="path198" fill="#92383F"></path>
                        <path d="M8.12189343,64.0365369 C8.60260008,63.3048394 8.63393342,62.5714901 8.12865343,61.8394622 C8.12657343,62.5714901 8.12449343,63.3038483 8.12189343,64.0365369" id="path200" fill="#A2353F"></path>
                        <path d="M55.6147631,75.5556931 C55.0296597,75.5556931 54.4445563,75.5542264 53.8595354,75.5542264 C54.4445563,75.9822264 55.0296597,75.9796931 55.6147631,75.5556931" id="path202" fill="#A7313F"></path>
                        <path d="M113.462262,131.216589 C113.460928,131.826957 113.300928,132.444758 113.712928,133.033651 C113.680928,132.424935 114.007595,131.798049 113.462262,131.216589" id="path204" fill="#804040"></path>
                        <path d="M64.9226415,114.809661 C64.4003869,114.804328 63.8778022,114.798994 63.3552176,114.793661 C63.8764826,115.252327 64.3987373,115.241661 64.9226415,114.809661" id="path206" fill="#9E333F"></path>
                        <path d="M55.8128768,102.562821 C56.3003255,102.597488 56.7968469,102.765488 57.2527063,102.314821 C56.7704537,102.357488 56.2649422,102.056154 55.8128768,102.562821" id="path208" fill="#A3343F"></path>
                        <path d="M53.4155529,102.308673 C53.7206414,102.740673 54.0802482,102.604673 54.4304525,102.560673 C54.127591,102.100673 53.7596538,102.33534 53.4155529,102.308673" id="path210" fill="#A0363F"></path>
                        <path d="M76.424534,110.497705 C76.752469,110.495038 77.0801566,110.493705 77.4080917,110.491038 C77.0794968,110.100372 76.7512318,110.083038 76.424534,110.497705" id="path212" fill="#A82F3F"></path>
                        <path d="M113.671451,133.61924 C113.630118,133.967785 113.502118,134.32459 113.930118,134.626057 C113.904784,134.284945 114.136784,133.918229 113.671451,133.61924" id="path214" fill="#A72F3F"></path>
                        <path d="M86.3382585,61.2496607 C86.3342585,61.5820177 86.3302585,61.9129706 86.3262585,62.2449972 C86.7515918,61.9146225 86.7542585,61.583587 86.3382585,61.2496607" id="path216" fill="#A6333F"></path>
                        <path d="M100.75507,10.7720338 C100.75507,10.8378609 100.75507,10.9033577 100.75507,10.9691849 C100.75507,12.2825897 101.292006,12.6510401 102.577848,12.2403017 C103.071895,12.0825478 103.396861,11.6250613 103.160972,11.286262 C102.760126,10.7090974 103.09004,10.2687078 103.138703,9.76249113 C103.157673,9.56509222 103.367168,9.18367457 102.937455,9.14080845 C102.570425,9.10430204 102.699916,9.44698325 102.657027,9.64281288 C102.594344,9.93866346 102.536609,10.2326144 102.177002,10.3077746 C101.687903,10.4100256 101.247468,10.4677586 101.338194,9.71219157 C101.363762,9.50405548 101.505626,9.1414692 101.062715,9.12338118 C100.60001,9.10496279 100.778164,9.47019207 100.761668,9.68898275 C100.7361,10.0483479 100.75507,10.4110168 100.75507,10.7720338" id="path218" fill="#12100F"></path>
                        <path d="M100.395463,110.920017 C100.431754,113.394524 100.00369,115.706321 99.041989,117.91405 C97.7965617,120.777573 95.7659378,122.830027 92.8000062,123.862448 C92.1583225,124.086276 92.0799678,124.367095 92.2746174,124.938643 C92.5352498,125.706765 93.0012541,126.358429 93.5060233,126.947322 C94.0198652,127.544474 94.7275318,127.309908 95.3197284,126.967144 C97.474895,125.715024 99.3883992,124.154003 100.961267,122.219659 C102.125865,120.788311 103.22613,119.269413 103.725126,117.467218 C104.570532,114.421989 103.596459,112.026772 100.395463,110.920017" id="path220" fill="#FFFFFF"></path>
                        <path d="M88.2941986,114.997667 C87.7597371,114.9828 87.2054807,115.948321 87.3489935,116.652019 C87.3613653,116.715616 87.3976559,116.774257 87.4248739,116.834551 C87.6104508,117.241738 87.6723098,117.877709 88.1671816,117.890924 C88.6768995,117.904139 88.5993696,117.254127 88.751955,116.881629 C88.8509294,116.63963 88.9094892,116.380286 89.0076388,116.13746 C89.3293055,115.337953 89.1338311,115.019968 88.2941986,114.997667" id="path222" fill="#FAFAFA"></path>
                        <path d="M89.7408738,113.825663 C90.369361,113.68195 90.6151473,113.080668 90.6910276,112.615665 C90.7702071,112.129189 90.1582157,111.846718 89.7243781,111.864889 C89.0777456,111.892145 88.7668012,112.453782 88.7453568,113.028634 C88.7247371,113.600182 89.2641473,113.701772 89.7408738,113.825663" id="path224" fill="#F9F9F9"></path>
                        <path d="M101.360463,11.2904743 C101.286233,11.7257431 101.375309,11.9586572 101.85616,11.9034847 C102.238036,11.8596274 102.633933,11.8225429 102.643006,11.35498 C102.653728,10.8907209 102.262779,10.8081272 101.881728,10.7668304 C101.445416,10.7190912 101.251591,10.8827093 101.360463,11.2904743" id="path226" fill="#F2F2F2"></path>
                    </g>
                </g>
            </g>
        </g>
    </g>
</svg>