<?xml version="1.0" encoding="UTF-8"?>
<svg width="200px" height="200px" viewBox="0 0 200 200" version="1.1" xmlns="http://www.w3.org/2000/svg" xmlns:xlink="http://www.w3.org/1999/xlink">
    <!-- Generator: Sketch 51.3 (57544) - http://www.bohemiancoding.com/sketch -->
    <title>central-wash</title>
    <desc>Created with Sketch.</desc>
    <defs></defs>
    <g id="central-wash" stroke="none" stroke-width="1" fill="none" fill-rule="evenodd">
        <g id="central-wash_BGL" transform="translate(2.898551, 0.000000)">
            <g id="central-wash">
                <g id="g10" transform="translate(96.499998, 99.849364) scale(-1, 1) rotate(-180.000000) translate(-96.499998, -99.849364) translate(0.000000, 0.114287)" fill-rule="nonzero">
                    <g id="g12">
                        <path d="M96.4521626,-4.18404875e-15 C116.422578,-4.18404875e-15 127.42669,14.2975426 127.42669,14.2975426 C127.859384,27.5910855 131.053223,41.7234419 131.053223,41.7234419 C140.894147,32.3440852 140.9149,18.6057862 140.9149,18.6057862 C164.983867,38.099838 168.975646,62.139212 168.975646,62.139212 L175.730646,55.0786958 C182.335189,75.1235761 182.03635,92.0345933 182.03635,92.0345933 C186.845786,87.956052 192.904533,81.3951463 192.904533,81.3951463 C188.238291,120.784372 172.786877,139.845199 172.786877,139.845199 C175.738947,154.025242 174.181458,168.948102 174.181458,168.948102 L169.866974,166.885872 C171.551055,175.493217 175.736872,198.809408 175.736872,198.809408 C175.736872,198.809408 150.328319,184.78624 127.390373,177.085861 C127.390373,177.085861 114.534083,184.398728 96.4521626,184.398728 C78.3701384,184.398728 65.5136408,177.085861 65.5136408,177.085861 C42.5757989,184.78624 17.1679722,198.809408 17.1679722,198.809408 C17.1679722,198.809408 21.3529591,175.493217 23.0371435,166.885872 L18.7228673,168.948102 C18.7228673,168.948102 17.1660006,154.025242 20.1175516,139.845199 C20.1175516,139.845199 4.66570225,120.784372 -3.41060505e-14,81.3951463 C-3.41060505e-14,81.3951463 6.05840474,87.956052 10.867975,92.0345933 C10.867975,92.0345933 10.5696551,75.1235761 17.1736791,55.0786958 L23.9291978,62.139212 C23.9291978,62.139212 27.9204584,38.099838 51.9899444,18.6057862 C51.9899444,18.6057862 52.0101783,32.3440852 61.8515178,41.7234419 C61.8515178,41.7234419 65.0446301,27.5910855 65.4771161,14.2975426 C65.4771161,14.2975426 76.4817476,-1.89478058e-14 96.4521626,-1.89478058e-14" id="path14" fill="#FFFFFF"></path>
                        <path d="M96.4521626,4.50869034 C113.586723,4.50869034 122.92232,15.9366263 122.92232,15.9366263 C122.92232,27.4210164 128.191427,49.9069127 128.191427,49.9069127 C141.268733,40.8444226 144.294475,28.2135986 144.294475,28.2135986 C163.873598,46.7069751 165.867931,70.9520527 165.867931,70.9520527 L173.487281,63.9779736 C179.908162,84.3937437 176.518211,102.539294 176.518211,102.539294 L186.054071,94.5133216 C180.446694,124.263672 167.991969,138.901872 167.991969,138.901872 C170.75934,149.040566 170.025732,161.965608 170.025732,161.965608 L163.513539,158.853043 C166.274684,171.03215 170.086953,190.947998 170.086953,190.947998 C170.086953,190.947998 147.472749,179.319511 127.121626,172.19157 C127.121626,172.19157 114.747836,179.89091 96.4521626,179.89091 C78.1557631,179.89091 65.7828032,172.19157 65.7828032,172.19157 C45.4305386,179.319511 22.8170613,190.947998 22.8170613,190.947998 C22.8170613,190.947998 26.6291225,171.03215 29.3901638,158.853043 L22.878593,161.965608 C22.878593,161.965608 22.1441554,149.040566 24.9117338,138.901872 C24.9117338,138.901872 12.4577346,124.263672 6.85041031,94.5133216 L16.3861146,102.539294 C16.3861146,102.539294 12.9955405,84.3937437 19.4163183,63.9779736 L27.0360827,70.9520527 C27.0360827,70.9520527 29.0314536,46.7069751 48.6095391,28.2135986 C48.6095391,28.2135986 51.635696,40.8444226 64.7126909,49.9069127 C64.7126909,49.9069127 69.9820058,27.4210164 69.9820058,15.9366263 C69.9820058,15.9366263 79.3173948,4.50869034 96.4521626,4.50869034" id="path16" fill="#231F20"></path>
                        <path d="M143.1344,98.5484366 C156.803157,94.9488315 167.8467,86.7800093 167.8467,86.7800093 C167.376652,104.849616 159.038222,114.18004 159.038222,114.18004 C147.637733,119.547034 135.781722,118.298267 135.781722,118.298267 C145.966104,122.758295 162.380442,121.232141 162.380442,121.232141 C154.461217,143.005555 136.871239,149.589109 136.871239,149.589109 C139.557674,156.719128 145.939125,161.046175 145.939125,161.046175 L149.589523,149.825979 C151.269453,162.775956 155.524792,173.226322 155.524792,173.226322 C155.524792,173.226322 135.259792,167.193388 113.706051,151.509009 L117.760088,164.029916 C117.760088,164.029916 110.598336,167.906079 96.4521626,167.906079 C82.3058856,167.906079 75.1438218,164.029916 75.1438218,164.029916 L79.1978593,151.509009 C57.6438066,167.193388 37.3795335,173.226322 37.3795335,173.226322 C37.3795335,173.226322 41.6346646,162.775956 43.3143871,149.825979 L46.9655112,161.046175 C46.9655112,161.046175 53.3461325,156.719128 56.0326717,149.589109 C56.0326717,149.589109 38.4431087,143.005555 30.5234681,121.232141 C30.5234681,121.232141 46.9379101,122.758295 57.1217728,118.298267 C57.1217728,118.298267 45.2663849,119.547034 33.8653771,114.18004 C33.8653771,114.18004 25.527466,104.849616 25.0572101,86.7800093 C25.0572101,86.7800093 36.1011679,94.9488315 49.7699256,98.5484366 C49.7699256,98.5484366 40.804142,92.696481 35.4688335,78.9748045 C35.4688335,78.9748045 35.551533,66.8402664 44.2072715,53.9699742 C44.2072715,53.9699742 48.5848434,64.4621043 60.2759738,71.001193 C60.2759738,71.001193 54.8725965,78.3303705 56.0330868,85.7004809 C56.0330868,85.7004809 53.2185035,84.9412477 49.4826047,83.1425879 C49.4826047,83.1425879 53.595061,93.7500366 66.5002236,98.8325777 C66.5002236,98.8325777 59.2189356,91.6616257 62.8441189,82.8415127 C62.8441189,82.8415127 75.4323879,72.8107613 94.259745,83.5042315 C94.259745,83.5042315 84.8508914,85.9208331 77.5826776,93.9585453 C77.5826776,93.9585453 78.796191,105.040774 82.2082442,112.72557 C82.2082442,112.72557 80.0039975,112.372341 76.7266293,112.616485 C77.0037814,113.828889 76.7902363,115.384133 76.0079637,116.987167 C75.5049185,118.017762 74.8236078,118.92265 74.0656159,119.674819 C72.908031,116.229803 72.693967,112.699597 72.693967,112.699597 C70.9673434,115.844369 70.4541294,119.235361 70.3467343,121.721466 C69.9167386,121.778606 69.4943176,121.791073 69.1003278,121.700688 C66.8130704,121.169806 66.1986871,118.20061 67.7271225,115.068305 C67.8094069,114.900002 67.9115101,114.748322 68.0018881,114.587291 C63.5878952,116.331616 58.916984,119.484699 55.2260147,125.114536 L62.8441189,124.130691 C62.8441189,124.130691 62.6727017,131.553682 50.695288,130.389067 C50.695288,130.389067 60.0352426,140.144405 76.1777207,125.114536 C83.0647076,118.702402 87.8799537,118.301384 91.1448703,119.941818 C89.8214714,117.843226 84.9891043,109.43639 83.1242678,95.8074881 C83.1242678,95.8074881 89.8108875,97.5225159 96.4521626,97.5225159 C103.093023,97.5225159 109.779642,95.8074881 109.779642,95.8074881 C107.915013,109.43639 103.082543,117.843226 101.759144,119.941818 C105.024164,118.301384 109.838788,118.702402 116.726605,125.114536 C132.869083,140.144405 142.20883,130.389067 142.20883,130.389067 C130.231416,131.553682 130.060206,124.130691 130.060206,124.130691 L137.67748,125.114536 C133.986615,119.484699 129.316223,116.331616 124.902126,114.587291 C124.9924,114.748322 125.095126,114.900002 125.177099,115.068305 C126.705534,118.20061 126.090217,121.169806 123.803271,121.700688 C123.40897,121.791073 122.98769,121.778606 122.557072,121.721466 C122.450196,119.235361 121.936567,115.844369 120.209943,112.699597 C120.209943,112.699597 119.996191,116.229803 118.838191,119.674819 C118.080717,118.92265 117.398992,118.017762 116.895739,116.987167 C116.113363,115.384133 115.900648,113.828889 116.177696,112.616485 C112.899809,112.372341 110.695874,112.72557 110.695874,112.72557 C114.107615,105.040774 115.321648,93.9585453 115.321648,93.9585453 C108.053019,85.9208331 98.6437502,83.5042315 98.6437502,83.5042315 C117.471626,72.8107613 130.060206,82.8415127 130.060206,82.8415127 C133.684663,91.6616257 126.403583,98.8325777 126.403583,98.8325777 C139.308642,93.7500366 143.421824,83.1425879 143.421824,83.1425879 C139.685303,84.9412477 136.871239,85.7004809 136.871239,85.7004809 C138.031314,78.3303705 132.628352,71.001193 132.628352,71.001193 C144.319378,64.4621043 148.697158,53.9699742 148.697158,53.9699742 C157.352066,66.8402664 157.435077,78.9748045 157.435077,78.9748045 C152.099561,92.696481 143.1344,98.5484366 143.1344,98.5484366" id="path18" fill="#AA1835"></path>
                        <path d="M56.0326717,149.589109 C56.0326717,149.589109 38.4431087,143.005555 30.5234681,121.232141 C30.5234681,121.232141 46.9379101,122.758295 57.1217728,118.298267 C49.6937633,125.049085 41.0233941,128.171001 41.0233941,128.171001 C44.4528795,140.636847 56.0326717,149.589109 56.0326717,149.589109" id="path20" fill="#871C30"></path>
                        <path d="M40.858099,89.1621192 C38.9610958,86.4216902 37.0548577,83.0533458 35.4688335,78.9748045 C35.4688335,78.9748045 35.551533,66.8402664 44.2072715,53.9699742 C44.2072715,53.9699742 48.5848434,64.4621043 60.2759738,71.001193 C60.2759738,71.001193 58.8140507,72.9957906 57.5744926,75.9388065 C50.2191176,75.7684257 45.3722236,73.4494813 45.3722236,73.4494813 C43.0160672,78.2069483 41.5974135,84.8194878 40.858099,89.1621192" id="path22" fill="#871C30"></path>
                        <path d="M25.0572101,86.7800093 C25.0572101,86.7800093 36.1011679,94.9488315 49.7699256,98.5484366 C42.6528952,99.770399 34.9784475,99.3722899 34.9784475,99.3722899 C35.733119,106.484855 39.5829501,113.803955 41.3395613,116.836525 C38.9117044,116.212142 36.3808104,115.363355 33.8653771,114.18004 C33.8653771,114.18004 25.527466,104.849616 25.0572101,86.7800093" id="path24" fill="#871C30"></path>
                        <path d="M136.871239,149.589109 C136.871239,149.589109 154.461217,143.005555 162.380442,121.232141 C162.380442,121.232141 145.966104,122.758295 135.781722,118.298267 C143.210147,125.049085 151.88062,128.171001 151.88062,128.171001 C148.451238,140.636847 136.871239,149.589109 136.871239,149.589109" id="path26" fill="#871C30"></path>
                        <path d="M152.045604,89.1621192 C153.942399,86.4216902 155.849571,83.0533458 157.435077,78.9748045 C157.435077,78.9748045 157.353104,66.8402664 148.697158,53.9699742 C148.697158,53.9699742 144.319378,64.4621043 132.628352,71.001193 C132.628352,71.001193 134.089341,72.9957906 135.330351,75.9388065 C142.685104,75.7684257 147.531894,73.4494813 147.531894,73.4494813 C149.887324,78.2069483 151.306808,84.8194878 152.045604,89.1621192" id="path28" fill="#871C30"></path>
                        <path d="M167.8467,86.7800093 C167.8467,86.7800093 156.803157,94.9488315 143.1344,98.5484366 C150.251534,99.770399 157.925878,99.3722899 157.925878,99.3722899 C157.17048,106.484855 153.320856,113.803955 151.564141,116.836525 C153.992206,116.212142 156.522996,115.363355 159.038222,114.18004 C159.038222,114.18004 167.376652,104.849616 167.8467,86.7800093" id="path30" fill="#871C30"></path>
                        <path d="M83.2608205,29.0321534 L83.0622173,29.1900673 L83.0030721,29.4363922 C82.9320979,29.7325846 77.2327873,53.5098423 73.2635245,65.5018424 C75.5089653,49.7657252 77.1201002,25.1249279 77.1387776,24.8404752 L77.2153551,23.6623546 L77.9713755,22.8591756 C78.0353975,22.7934128 85.1062532,16.060464 96.4817352,16.060464 C107.857944,16.060464 114.928384,22.7934128 114.994793,22.8612534 L115.748115,23.6623546 L115.8249,24.8404752 C115.843578,25.1236813 117.47889,49.8176706 119.732631,65.5656313 C115.755379,53.566255 110.029712,29.7334157 109.959153,29.4376389 L109.89897,29.1900673 L109.700782,29.0334001 C107.651454,27.4137441 103.210587,24.6967944 96.4817352,24.6967944 C89.7481107,24.6967944 85.3081769,27.4137441 83.2608205,29.0321534" id="path32" fill="#AA1835"></path>
                        <path d="M97.1140696,55.2418042 C97.1140696,55.2418042 100.193353,61.378732 106.157261,61.7195974 C106.157261,61.7195974 104.197169,53.4237169 103.116162,43.0813973 L97.1140696,47.0592685 L91.1111472,43.0813973 C90.0301397,53.4237169 88.0700483,61.7195974 88.0700483,61.7195974 C94.0335407,61.378732 97.1140696,55.2418042 97.1140696,55.2418042" id="path34" fill="#871C30"></path>
                        <path d="M100.348584,48.8079568 L97.1140696,52.4002896 L93.8791407,48.8079568 C92.1143321,55.9991675 88.0700483,61.7195974 88.0700483,61.7195974 C89.573373,54.9643122 91.1111472,43.0813973 91.1111472,43.0813973 L97.1140696,47.0592685 L103.116162,43.0813973 C103.116162,43.0813973 104.653729,54.9643122 106.157261,61.7195974 C106.157261,61.7195974 102.112977,55.9991675 100.348584,48.8079568" id="path36" fill="#AA1835"></path>
                        <path d="M113.416551,74.0521513 C113.416551,74.0521513 102.734728,74.6516006 96.9422374,76.5800199 C91.1500585,74.6516006 80.4413604,74.0687738 80.4413604,74.0687738 C81.3700431,67.2339082 85.5363527,62.7772048 85.5363527,62.7772048 C85.4297876,66.4214829 85.9218339,69.2938531 86.5240769,71.5234515 L89.097929,68.8596939 L91.7726391,71.5421519 L94.3651686,68.8596939 L96.7715465,71.2722438 L99.1771981,68.8596939 L102.048955,71.8310719 L104.920401,68.8596939 L107.386858,71.3335393 C107.965858,69.1311603 108.427605,66.3195662 108.323841,62.7772048 C108.323841,62.7772048 112.48268,67.2266359 113.416551,74.0521513" id="path38" fill="#FFFFFF"></path>
                        <path d="M106.611745,32.587605 L106.612782,32.587605 L106.611745,32.5884361 C106.649099,36.6048508 105.195374,39.555139 105.195374,39.555139 C104.500159,36.9757406 103.553525,35.0432696 102.654103,33.5720733 L102.606995,33.5720733 L99.6664427,35.6072922 L96.5389089,33.5720733 L96.5312304,33.5720733 L96.5231368,33.5720733 L93.5820659,35.6072922 L90.4545321,33.5720733 L90.4083574,33.5720733 C89.5089359,35.0432696 88.5625096,36.9757406 87.8669833,39.555139 C87.8669833,39.555139 86.4126349,36.6048508 86.4499898,32.587605 C86.4499898,32.587605 90.4128192,29.3150478 96.5312304,29.3150478 C102.228466,29.3150478 106.05246,32.1501213 106.552599,32.5405425 C106.571277,32.5531133 106.594105,32.5624635 106.612782,32.5758654 C106.612782,32.579086 106.611745,32.5831377 106.611745,32.587605" id="path40" fill="#FFFFFF"></path>
                        <path d="M84.1598269,72.0209841 L80.4413604,74.0687738 C81.1895985,68.5638132 84.0345845,64.6053695 85.1147619,63.2726596 C85.2562952,63.1074734 85.3864145,62.9431183 85.5363527,62.7772048 C85.5363527,62.7772048 83.225956,67.4311967 84.1598269,72.0209841" id="path42" fill="#C1C4C6"></path>
                        <path d="M113.416551,74.0527107 L113.416551,74.0501774 C113.421884,74.0543107 113.423218,74.0553774 113.428551,74.0579107 L113.416551,74.0527107" id="path44" fill="#C1C4C6"></path>
                        <path d="M113.416551,74.0501774 C113.073094,73.8622391 109.724648,72.0209841 109.724648,72.0209841 C110.599374,67.7254152 108.632019,63.3745764 108.376761,62.834033 C108.85096,63.3660573 112.542863,67.6681714 113.416551,74.0501774" id="path46" fill="#C1C4C6"></path>
                        <path d="M105.195374,39.555139 C105.195374,39.555139 105.423653,35.462053 104.096519,33.3022692 C104.096519,33.3022692 101.00883,31.4415867 96.5312304,31.4415867 C92.0535267,31.4415867 88.9658381,33.3022692 88.9658381,33.3022692 C87.6388075,35.462053 87.8669833,39.555139 87.8669833,39.555139 C87.8669833,39.555139 86.4126349,36.6048508 86.4499898,32.587605 C86.4499898,32.587605 90.432223,29.3284497 96.5312304,29.315879 C102.630134,29.3284497 106.612782,32.587605 106.612782,32.587605 C106.650137,36.6048508 105.195374,39.555139 105.195374,39.555139" id="path48" fill="#C1C4C6"></path>
                        <path d="M178.721108,37.6031366 L177.271533,37.6031366 L177.271533,41.8366828 L177.113813,41.8366828 L175.784603,38.8749666 L174.767721,38.8749666 L173.422947,41.8898748 L173.22891,41.8898748 L173.22891,37.6031366 L171.854044,37.6031366 L171.854044,43.0192707 L174.207399,43.0192707 L175.29899,40.3708888 L176.434162,43.0192707 L178.721108,43.0192707 L178.721108,37.6031366 Z M170.994883,41.8452018 L169.44777,41.8452018 L169.44777,37.6031366 L167.990931,37.6031366 L167.990931,41.8452018 L166.444856,41.8452018 L166.444856,43.0192707 L170.994883,43.0192707 L170.994883,41.8452018 Z" id="path50" fill="#FFFFFF"></path>
                    </g>
                </g>
            </g>
        </g>
    </g>
</svg>