<?xml version="1.0" encoding="UTF-8"?>
<svg width="200px" height="200px" viewBox="0 0 200 200" version="1.1" xmlns="http://www.w3.org/2000/svg" xmlns:xlink="http://www.w3.org/1999/xlink">
    <!-- Generator: Sketch 51.3 (57544) - http://www.bohemiancoding.com/sketch -->
    <title>centre</title>
    <desc>Created with Sketch.</desc>
    <defs></defs>
    <g id="centre" stroke="none" stroke-width="1" fill="none" fill-rule="evenodd">
        <g id="centre_BGL">
            <g id="centre" transform="translate(0.000000, 5.000000)">
                <g id="g10" transform="translate(99.888515, 94.858422) scale(-1, 1) rotate(-180.000000) translate(-99.888515, -94.858422) translate(0.000000, 0.321077)">
                    <g id="g12">
                        <path d="M146.467778,96.0606442 C146.723742,95.9875115 147.05819,95.9143789 147.46042,95.8706776 C148.474467,95.7600868 149.95139,95.8314357 151.727978,96.584167 C153.800665,97.4635427 155.274913,98.9832751 156.238123,100.312149 C156.717053,100.973019 157.063095,101.576809 157.289628,102.016497 C157.506351,102.43478 158.453508,104.841915 158.453508,104.841915 C158.453508,104.841915 159.495202,101.211146 159.758301,99.0305438 C160.017833,96.8740221 160.139126,93.9433644 159.570119,90.8833868 C158.450832,84.8668875 154.655069,78.4180136 144.311256,76.3914362 C150.017388,58.2866429 136.7777,42.0198875 132.827644,38.859397 L132.072238,38.2556066 L131.779707,38.8405787 C130.240353,29.6739346 126.227868,19.5558524 123.245482,14.1823854 C119.73779,7.85918375 116.411145,4.14541796 116.280042,3.9990902 L112.677812,0 L109.987957,4.66171672 C99.2365639,23.3009582 84.1119265,35.6762533 71.5945579,43.4102999 C65.3553607,47.2641237 59.7934433,49.9477357 55.7905003,51.6656397 C51.8805784,53.344837 45.0801327,55.4584602 45.0801327,55.4584602 L46.9621393,59.132217 L43.7984381,58.5273564 L42.3595976,60.6894076 C39.2429868,65.3723952 33.5301664,79.5140225 40.5375241,92.3496075 C37.8515041,93.088069 35.636833,94.5703432 34.0600214,95.9081358 C32.7020728,97.0604212 31.7879145,98.1288716 31.4200215,98.5863966 C7.24846359,104.301447 -6.01971891,124.194423 2.67384609,137.442137 C11.661449,151.002895 36.1249489,153.385949 54.4450377,150.745147 C54.9244133,151.265102 55.9939339,152.460197 57.295517,154.131546 C59.0840565,156.427198 61.2977465,159.605793 63.0246584,163.155403 C64.1520608,165.474243 64.9627631,168.007131 66.1757843,171.146484 C67.8501655,175.481824 69.97351,180.23188 74.3986603,183.25975 C78.3096524,185.935335 82.410076,186.500776 86.3729744,186.192192 C88.2263523,186.04771 90.1395741,185.703451 92.1150479,185.25752 L92.3781471,185.197766 L101.708805,186.845034 C129.439462,191.77703 136.359417,186.894087 141.283386,173.443028 C142.483831,170.161869 142.935113,166.791523 144.417388,160.922181 C145.704344,155.824299 147.093865,150.962761 148.655515,147.511256 C165.857744,150.699662 178.388401,150.515938 186.642582,147.945593 C195.434555,145.207577 200.429872,139.168781 198.76655,131.390855 C196.125748,119.051056 175.942025,106.946709 150.517722,104.627868 C150.391969,102.696096 149.346708,100.839239 148.403118,99.3346686 C147.870676,98.4847244 147.329316,97.6927512 146.925303,96.9926397 C146.702337,96.6046799 146.554288,96.2978794 146.467778,96.0606442" id="path14" fill="#F2CF0E"></path>
                        <path d="M87.9051929,131.86265 C108.580599,125.253955 121.139796,118.338459 145.826529,112.186396 C147.488068,101.385951 141.575024,98.9431413 141.330654,94.0075785 C141.722182,93.4207335 148.367443,88.3389053 156.382605,94.9850589 C155.209807,77.7835432 138.593531,80.3236546 138.593531,80.3236546 C146.80401,62.1450152 135.360532,47.953622 132.730431,45.7249487 L131.948269,49.0489174 C131.948269,49.0489174 129.212037,42.2073568 127.452394,40.6431205 C125.888068,20.5093417 113.374356,6.61580363 113.374356,6.61580363 C91.0350033,45.3403779 50.6782596,57.8121725 50.6782596,57.8121725 L54.0928415,64.4763418 L45.6141795,62.8550263 C42.3864426,67.7048813 36.4848151,83.3890726 47.4982374,95.3694514 C43.0672007,95.3168315 40.9322621,96.0588605 38.2326858,98.4981023 L43.999107,101.806909 C37.7752499,102.568559 35.6925744,104.683163 32.3818944,108.067779 C53.7461748,109.560755 47.2268439,155.121512 87.9051929,131.86265" id="path16" fill="#231F20"></path>
                        <path d="M49.5147368,69.2450373 C41.788271,90.308136 60.1599093,97.739128 60.1599093,97.739128 C59.0074456,72.4522613 104.776809,58.2358068 113.768559,17.9682493 C96.1765862,46.1162084 70.5212023,58.3884043 59.6132872,61.4562303 L64.7230307,71.9785043 L49.5147368,69.2450373 Z M69.1527296,116.980153 C58.9105894,127.407801 55.878973,114.758526 56.8436106,108.701892 C58.1905002,100.2408 48.4608238,100.236341 48.4608238,100.236341 C52.4575238,103.340912 55.0341123,108.809808 53.8485605,112.267556 C52.9897869,108.958749 48.7751158,107.084947 44.3035886,108.207801 C53.0089619,107.367667 53.5921503,139.095649 79.3739111,127.777031 C79.3948698,127.822516 69.262161,127.354289 69.1527296,116.980153 Z" id="path18" fill="#FFFFFF"></path>
                        <path d="M118.837009,111.246374 C120.415605,110.426753 123.60401,110.67915 123.933999,110.036118 C124.185504,109.234334 124.457522,105.552729 124.48071,104.603788 C124.637678,98.2885148 127.825192,97.9656609 126.376808,95.8644346 C124.712594,93.449273 117.873799,94.4963187 115.91973,95.8644346 C113.768559,97.8185037 119.046597,100.457523 118.837009,111.246374" id="path20" fill="#F2CF0E"></path>
                        <path d="M96.7634312,116.290744 C93.0069096,116.280934 90.7139331,113.558972 91.2891839,113.359194 C105.950499,108.276474 102.613152,98.3482696 97.7400199,97.3306553 C97.7400199,97.3306553 86.9885374,94.3732418 84.0568987,108.276474 C77.8017372,87.5567425 91.1125953,81.7321719 99.5852818,80.1445688 L99.8448136,76.4395076 C97.6151592,76.4084708 92.9016699,79.4087829 91.5362296,80.3658397 C91.4470434,75.492618 94.6479352,69.7505445 95.4006665,68.3737776 C77.3724841,75.1644128 62.3798424,89.9487157 64.9467096,106.771904 C61.1472003,107.126865 59.7947811,112.816943 60.9360966,115.120621 C61.7698089,116.313932 64.7407788,119.274913 70.5309235,108.409362 L76.2036993,107.039462 C74.6345578,112.519061 74.497657,114.480265 75.1916146,118.110142 C75.5538889,120.103453 79.9261518,126.866441 96.7634312,116.290744" id="path22" fill="#F2CF0E"></path>
                        <path d="M113.377924,113.750722 C103.348046,113.62051 100.699217,120.665326 87.9668205,123.914378 C102.253732,126.713932 104.4709,117.171012 113.377924,113.750722" id="path24" fill="#FFFFFF"></path>
                        <path d="M87.5755608,95.7672217 C94.3206219,83.5217816 113.366329,96.9400199 120.80624,87.1662854 C110.20022,88.7625396 92.056185,78.7353381 87.5755608,95.7672217" id="path26" fill="#FFFFFF"></path>
                        <path d="M5.72602884,131.947377 C9.89618704,146.958302 34.6021842,150.303675 55.7135326,146.003118 C61.9617376,150.557856 72.5494742,172.532437 78.0779468,179.447933 C91.0992173,178.822738 113.550945,171.049271 123.542472,174.738011 C129.099662,162.248379 140.744701,136.619841 162.00936,136.422739 L189.586617,139.813597 L194.317944,133.408246 L187.672682,123.461312 C146.723742,101.088069 98.6372328,134.944924 57.9874233,137.000665 C45.144971,137.649049 34.2614038,138.398213 21.16049,136.58149 C19.5851054,136.362984 7.6386531,131.78595 5.72602884,131.947377" id="path28" fill="#FFFFFF"></path>
                        <path d="M101.086285,134.494534 C108.160532,134.205571 117.137121,131.09119 121.587511,134.470454 C103.214267,145.8078 111.032327,173.369003 111.032327,173.369003 C99.7672216,171.424745 89.0485596,179.950943 80.9294963,177.474243 C73.5319491,175.218725 70.1783706,150.889628 55.7135326,146.003118 L60.4048145,151.476473 C70.1783706,164.181936 68.2239448,173.173686 76.6060182,180.032994 C87.7717704,189.169226 103.017166,171.509472 123.064434,181.524187 C111.727979,181.250386 109.731993,178.615826 99.848381,183.021623 C125.888068,187.248156 133.511702,184.315714 137.030097,173.369003 C139.238347,166.499884 141.995983,150.396429 146.552505,143.123296 C221.91393,158.273352 201.085391,108.207801 142.285838,108.407578 L143.373909,109.659752 L136.326418,109.558972 L129.786396,113.411814 L115.256184,119.449718 L95.4925283,127.473798 L76.7537996,132.041914 L66.8404889,133.700777 L55.748672,129.789963 L48.4939118,121.444813 L42.6278696,110.06109 L46.9913924,103.703899 L43.2549376,101.090744 C-6.48655502,105.252171 -15.2713486,157.398435 58.213867,139.367667 C109.399328,126.80847 121.662427,118.316162 152.886507,119.338236 C160.206016,119.770789 185.32441,123.22051 186.949382,136.612706 C173.467108,122.939573 134.073575,119.60847 101.086285,134.494534" id="path30" fill="#231F20"></path>
                        <path d="M112.851725,56.3040343 C105.302116,61.2577019 102.353621,67.3418043 100.280934,71.7234319 C106.120845,66.8112358 109.272684,67.4229638 109.859529,66.8359404 C109.940688,79.7965643 122.561424,80.0337996 122.561424,80.0337996 C135.127756,80.0337996 136.87848,65.2780363 132.316608,57.710411 C131.607578,58.7844801 129.791747,61.1381925 129.015827,62.1450152 C126.820064,50.3964313 119.445259,44.3604002 113.937121,43.9001104 C115.566552,49.0105673 112.898994,56.5377912 112.898994,56.5377912 L112.851725,56.3040343" id="path32" fill="#FFFFFF"></path>
                        <path d="M114.355404,34.5837227 C115.822517,34.7327528 118.68896,36.1781931 119.827868,37.1248151 C119.960755,34.2056625 118.317946,29.4376804 117.091636,26.5694531 C116.310365,29.891638 114.355404,34.5837227 114.355404,34.5837227" id="path34" fill="#FFFFFF"></path>
                        <path d="M40.0310358,106.103007 C27.1328421,109.905906 1.17195984,123.795761 16.5499215,136.528871 C-3.62353614,129.583943 15.4003118,109.215605 40.0310358,106.103007" id="path36" fill="#3C434E"></path>
                    </g>
                </g>
            </g>
        </g>
    </g>
</svg>