<?xml version="1.0" encoding="UTF-8"?>
<svg width="200px" height="200px" viewBox="0 0 200 200" version="1.1" xmlns="http://www.w3.org/2000/svg" xmlns:xlink="http://www.w3.org/1999/xlink">
    <!-- Generator: Sketch 51.3 (57544) - http://www.bohemiancoding.com/sketch -->
    <title>centenary-la</title>
    <desc>Created with Sketch.</desc>
    <defs></defs>
    <g id="centenary-la" stroke="none" stroke-width="1" fill="none" fill-rule="evenodd">
        <g id="centenary-la_BGL" transform="translate(-2.000000, 0.000000)">
            <g id="centenary-la" transform="translate(0.989899, 0.000000)">
                <g id="g10">
                    <g transform="translate(101.196121, 100.615736) scale(-1, 1) rotate(-180.000000) translate(-101.196121, -100.615736) translate(0.744089, 0.907794)">
                        <g id="g12" transform="translate(1.339360, 0.000000)">
                            <path d="M1.65211596,100.747286 C2.59326965,154.617255 47.025242,197.52441 100.895062,196.583882 C154.764585,195.643353 197.67174,151.212303 196.731211,97.3408462 C195.790683,43.4699842 151.359633,0.563879667 97.489664,1.50445892 C43.6192485,2.44503221 0.712117102,46.875829 1.65211596,100.747286" id="path14" fill="#960A2C"></path>
                            <path d="M1.65211596,100.747286 L3.14029421,100.721243 C2.21540631,47.7589139 44.5523363,3.91692979 97.515856,2.99263716 C123.14794,2.51653918 147.466261,12.1152889 165.925922,29.9379794 C184.383797,47.762932 194.795092,71.7103987 195.243033,97.3670381 C196.167192,150.329814 153.831497,194.171545 100.86887,195.095704 C47.8915106,196.040697 4.06458684,153.684168 3.14029421,100.721243 L1.65211596,100.747286 Z M99.2382735,0 C98.6476155,0 98.0563623,0.00581319628 97.4634721,0.0162769496 C42.8589382,0.969060005 -0.788270159,46.1689443 0.163932209,100.773478 C1.11845971,155.376226 46.2503476,199.021518 100.921105,198.07206 C155.525044,197.118138 199.173312,151.919188 198.21939,97.3146543 C197.758054,70.8628812 187.023825,46.1737065 167.993001,27.7975326 C149.389285,9.8335991 125.034355,0 99.2382735,0 Z" id="path16" fill="#231F20" fill-rule="nonzero"></path>
                            <path d="M121.487134,82.0754114 L121.417338,78.0701284 C121.136519,62.043044 113.832242,61.0763234 98.7162205,61.3409215 C76.8603884,61.7233833 76.0871309,69.5693567 76.4435496,89.9679647 L76.8155942,111.276147 C77.1556429,130.764437 79.2698978,137.10363 100.032961,136.740961 C112.416687,136.525175 120.961063,135.464848 122.023027,123.239761 L121.931801,117.958514 L159.447882,117.303269 L159.540149,122.58526 C159.528243,163.576088 142.110605,167.707271 104.592144,168.360581 C64.52473,169.061513 40.1872118,162.927243 39.3989238,117.759693 L38.7822227,82.4270679 C37.9107456,32.5242844 65.0159777,30.2292159 102.169836,29.580519 C118.013725,29.3037179 133.127961,28.8590502 145.690269,38.8414522 C158.257339,49.0058585 158.674029,62.4802708 158.935949,77.4142883 L159.005893,81.421357 L121.487134,82.0754114" id="path18" fill="#FFFFFF"></path>
                            <path d="M98.8370606,166.927466 C83.5187955,166.927466 68.4829865,165.607452 58.0627625,159.002917 C46.7101947,151.810551 41.2521522,138.695831 40.8871021,117.733502 L40.270401,82.400876 C39.8761826,59.8485764 45.1894254,45.9951251 56.9908277,38.802462 C67.8633091,32.1788782 83.2327676,31.3987752 102.196028,31.0686973 L103.00515,31.0541131 C118.340381,30.7832647 132.832707,30.525661 144.764325,40.0063982 C156.965601,49.8743593 157.199245,63.2637966 157.44777,77.4404802 L157.490927,79.9593707 L122.94912,80.5610412 L122.905516,78.0439365 C122.595677,60.3340201 113.502611,59.5957349 98.6900286,59.8527433 C75.4174507,60.2596112 74.5955299,69.3880966 74.9553714,89.9941567 L75.3274159,111.302339 C75.5088249,121.720182 76.2441337,128.164738 79.601315,132.379854 C83.0647523,136.728162 88.9890411,138.425578 100.059004,138.229139 C112.630687,138.00993 122.33986,136.776974 123.505401,123.368191 L123.512991,123.29155 L123.446171,119.4205 L157.986491,118.816449 L158.051971,122.611303 C158.040065,162.019454 142.564053,166.210164 104.5661,166.872403 C102.659298,166.906631 100.743863,166.927466 98.8370606,166.927466 Z M110.646648,27.9865313 C108.107965,27.9865313 105.542643,28.0329624 102.952915,28.0777566 L102.143644,28.0923408 C82.7229177,28.4317942 66.9534369,29.2473159 55.4416341,36.262737 C42.646724,44.0588563 36.879438,58.7366096 37.2940445,82.4532598 L37.9107456,117.785885 C38.2955885,139.842324 44.19309,153.737742 56.46937,161.517938 C68.8486319,169.363614 86.9160088,170.158301 104.618335,169.84876 C142.953509,169.180568 161.016422,164.299343 161.028327,122.585707 L160.910761,115.789643 L120.417431,116.496528 L120.533658,123.186931 C119.549525,134.123255 112.116224,135.042354 100.006769,135.252782 C89.9771914,135.425411 84.7441614,134.058073 81.9294211,130.525435 C79.1018824,126.975833 78.4735736,121.012702 78.3037724,111.250104 L77.9317279,89.9417728 C77.577095,69.6275444 78.433988,63.1835838 98.7424125,62.8290998 C114.236283,62.5458994 119.677509,63.7434365 119.92916,78.0961716 L120.024998,83.5896327 L160.51937,82.8833434 L160.424127,77.3882452 C160.174113,63.1533738 159.916658,48.434398 146.626185,37.6835007 C135.93288,29.1863006 123.674011,27.9865313 110.646648,27.9865313 Z" id="path20" fill="#231F20" fill-rule="nonzero"></path>
                        </g>
                    </g>
                </g>
            </g>
        </g>
    </g>
</svg>