<?xml version="1.0" encoding="UTF-8"?>
<svg width="200px" height="200px" viewBox="0 0 200 200" version="1.1" xmlns="http://www.w3.org/2000/svg" xmlns:xlink="http://www.w3.org/1999/xlink">
    <!-- Generator: Sketch 51.3 (57544) - http://www.bohemiancoding.com/sketch -->
    <title>chadron-st</title>
    <desc>Created with Sketch.</desc>
    <defs></defs>
    <g id="chadron-st" stroke="none" stroke-width="1" fill="none" fill-rule="evenodd">
        <g id="chadron-st_BGL" transform="translate(0.000000, 34.000000)">
            <g id="chadron-st">
                <g id="g10" transform="translate(99.815835, 65.760589) scale(-1, 1) rotate(-180.000000) translate(-99.815835, -65.760589) translate(0.000000, 0.198896)" fill-rule="nonzero">
                    <g id="g12">
                        <path d="M86.0029444,90.9060751 C76.0081012,95.465191 57.1924111,85.7627971 52.0467759,76.7970515 C57.3388568,82.0876591 72.4786722,77.5322264 72.4786722,77.5322264 C61.8128161,76.1274382 45.1269234,59.5836449 41.464382,44.2725587 C41.2761684,44.673369 41.0897227,45.0739584 40.9199253,45.4799989 C40.9188203,45.4828718 40.917347,45.4857447 40.9159474,45.4889123 C40.7556528,45.8732954 40.6033876,46.261509 40.4598148,46.6520062 C40.4471445,46.6859657 40.4336638,46.7204408 40.4209935,46.7549896 C40.29208,47.1095384 40.171196,47.4674758 40.0567209,47.8268865 C40.0356528,47.8916378 40.0123747,47.9566839 39.9919695,48.0214353 C39.8633508,48.4346213 39.7427614,48.8501645 39.6328535,49.2699804 C36.6254871,60.7518954 41.2479548,73.3258177 52.6536267,84.6755043 C53.3784885,85.3966829 54.1312694,86.1016553 54.8967205,86.7992612 C55.1225769,87.0055227 55.3507905,87.2103109 55.5806984,87.4150991 C56.2131846,87.9771617 56.8574571,88.5325945 57.515505,89.0791875 C57.8723374,89.3767933 58.2357996,89.6692427 58.5997775,89.9609554 C59.113737,90.3734784 59.6322637,90.7823182 60.1602932,91.1845281 C60.6077333,91.5270695 61.060109,91.8651911 61.5176412,92.2011027 C61.8108272,92.4154673 62.1092434,92.6268853 62.4064809,92.8383034 C63.444713,93.5808448 64.5059284,94.3064433 65.5904956,95.0143623 C65.6937737,95.0813973 65.7953575,95.1499055 65.8989302,95.2169405 C66.571711,95.6522996 67.2594458,96.076609 67.9474753,96.4994451 C80.0758728,95.6942886 83.890974,92.4913421 86.0029444,90.9060751 Z M63.8648234,24.5119699 C63.8601826,24.5142535 63.85591,24.5163161 63.8512691,24.5185998 C60.8528898,25.8578262 58.0959101,27.3423198 55.5941791,28.9629459 C54.3453393,29.771491 53.1600723,30.6143639 52.0404407,31.488839 C52.0355788,31.4925959 52.0304223,31.4968685 52.0251921,31.5006254 C51.469833,31.9345848 50.9311958,32.3765738 50.4086175,32.8265922 C50.3971258,32.835211 50.3858551,32.8455977 50.374658,32.8559844 C49.8581203,33.3008463 49.3574205,33.752559 48.8737373,34.2129642 C48.8699804,34.2158371 48.8665181,34.2187837 48.8628349,34.2224669 C48.8628349,34.2224669 48.8628349,34.2224669 48.8628349,34.2233509 C47.2363892,35.7703122 45.7938847,37.3995571 44.5433506,39.1042347 C44.543056,39.1051187 44.542172,39.1056344 44.5418773,39.1065184 C44.0290965,39.8054502 43.5482862,40.5179364 43.1002567,41.2419143 C43.091638,41.2560579 43.0824299,41.2698332 43.0738111,41.2839769 C42.863719,41.6257816 42.6611407,41.969649 42.4657816,42.3160947 C42.4493544,42.3448977 42.4315275,42.3734059 42.4153949,42.4030192 C42.2064814,42.7756895 42.0151002,43.156684 41.8237927,43.5367945 C50.068507,57.3074755 68.3650075,60.3337738 68.3650075,60.3337738 C57.6018402,54.4176045 61.7342894,31.0373473 63.8648234,24.5119699 Z M41.5691334,44.0397779 C41.6018373,43.9721536 41.6358252,43.9057079 41.6691334,43.8380836 C41.6355231,43.9057079 41.6021394,43.9727429 41.5691334,44.0397779 Z M168.164268,85.38195 L168.278449,85.3333312 C169.690603,85.1204399 171.404784,84.6541415 173.241248,83.8998137 C175.081395,83.1639022 176.951745,82.1834234 178.733697,80.9775302 L199.311966,98.049353 L198.016201,100.242355 C191.402573,111.790789 178.963531,120.643828 162.050825,125.840144 C141.029094,132.296129 115.331121,132.41252 89.6972353,126.156903 C78.7057071,123.47403 68.2740314,119.747327 58.7209562,115.163165 C46.0019878,109.059297 34.8440507,101.428358 26.0364634,92.6637178 C10.1231673,76.8272541 3.68928168,59.2043447 7.92360938,43.038673 C12.1261875,27.0039036 26.2879551,14.5312704 47.8033137,7.9212521 C73.2078803,0.114813257 105.256719,1.67673661 134.839776,11.9365743 C137.131488,12.7299444 139.986,13.7980844 141.667031,14.4618781 C143.347326,15.1240512 146.413993,16.6609204 146.419886,16.6643826 C146.419886,16.6643826 146.404416,16.6908283 146.37495,16.7380475 C146.36832,16.7483605 146.361691,16.7587473 146.355061,16.7696497 C146.316018,16.8315281 146.253403,16.9288394 146.180475,17.0425042 C146.144379,17.0968688 146.11123,17.1492445 146.067768,17.2148062 C146.047878,17.2441985 146.022832,17.2810309 146.00147,17.3127067 C145.944748,17.3975686 145.884343,17.487366 145.815834,17.5851929 C145.788578,17.6265926 145.756902,17.6715281 145.7267,17.7149167 C145.658928,17.8122279 145.587473,17.9138117 145.510862,18.020552 C145.473293,18.0720437 145.434987,18.1258927 145.395945,18.180552 C145.317123,18.2872924 145.234619,18.4000732 145.149168,18.5134434 C145.105705,18.5710493 145.06298,18.6276975 145.018044,18.686703 C144.925963,18.806703 144.828726,18.9309756 144.730751,19.0556165 C144.685079,19.1116754 144.642354,19.1675133 144.596681,19.2242352 C144.450088,19.4055244 144.299812,19.5882131 144.141433,19.7723752 C143.98379,19.9556533 143.832041,20.1266293 143.686184,20.2909019 C143.635356,20.3470345 143.588947,20.3976422 143.539591,20.4523752 C143.443827,20.5568319 143.350273,20.66011 143.261138,20.7565372 C143.212519,20.8080289 143.166111,20.8566477 143.119702,20.9067398 C143.034987,20.9959479 142.953219,21.0827987 142.876608,21.1630934 C142.835356,21.2045667 142.796313,21.2456717 142.758007,21.285377 C142.676976,21.3688392 142.599628,21.4468503 142.528173,21.5190418 C142.503127,21.5432039 142.477345,21.5697232 142.453772,21.593296 C142.366111,21.6802205 142.285816,21.7584525 142.215098,21.8260768 C142.212151,21.8307177 142.206258,21.8364635 142.201838,21.8401468 C141.963164,22.0701284 141.827621,22.1892444 141.827621,22.1892444 L139.132962,21.3434985 C117.408469,15.6184158 94.5163881,15.2839775 75.7583775,20.3404046 C74.7653757,20.6033881 73.7826869,20.8782315 72.8164991,21.1748798 C72.1432026,21.3820989 71.4816188,21.5964635 70.8264439,21.8151744 C70.6554678,21.8727066 70.4868491,21.9308282 70.31742,21.9898337 C69.8005876,22.165598 69.289501,22.3454875 68.7836447,22.5290602 C68.6423556,22.5805519 68.5005508,22.6320436 68.3603666,22.683609 C67.0309376,23.1756164 65.7502009,23.6987839 64.5015822,24.2414727 C66.452595,43.4740321 81.5933681,45.0460394 81.5933681,45.0460394 C80.8581932,41.9581573 76.0081012,36.229023 74.978267,35.7855608 C80.8581932,35.1962422 97.7613235,42.2528166 97.7613235,42.2528166 C96.5863696,38.7235349 88.6467749,30.2025775 85.2677695,28.5828354 C90.7550622,29.2500913 96.2401449,30.8125959 101.244933,32.674106 C110.590789,36.151896 118.260771,40.6770524 121.133699,42.4016196 C123.158745,43.6147319 126.764638,42.7198516 130.441249,41.0445662 C125.943275,46.4220983 121.720071,52.5437188 121.720071,52.5437188 C133.179371,63.6136264 150.719702,63.6366098 157.56832,60.9049709 C159.940327,60.3619874 160.808099,58.7485805 162.290972,57.8326321 C164.203311,56.6586358 165.821727,57.395284 168.612887,57.6867757 C174.097233,57.8096486 175.035723,49.3827612 175.194102,46.8117115 C175.212519,46.9003303 175.226515,46.9561683 175.226515,46.9561683 C175.226515,46.9561683 175.212519,46.9003303 175.194102,46.8111222 C175.222832,46.3498331 175.226515,46.074474 175.226515,46.074474 C175.281764,46.1585255 175.339959,46.2539952 175.398154,46.3446766 C177.399627,49.5042345 180.053771,57.2030188 177.183789,64.7717848 C175.621358,68.8133316 172.529646,72.7883591 167.071082,75.9867384 C161.850456,76.5208084 151.277344,76.0331473 142.888394,71.9463702 C142.984895,72.0082487 143.077713,72.0663702 143.175687,72.1276593 C146.799996,74.4427237 150.085447,76.1613241 153.046773,77.3723738 C155.801838,78.5009188 158.277712,79.1941048 160.477344,79.5160201 C150.086921,93.4659277 136.157639,95.5941044 128.630568,94.4353568 C122.492815,93.492447 105.117493,102.520808 74.45893,100.180476 C72.2956888,99.0585611 70.1980093,97.8740307 68.1644182,96.6349884 C70.9815084,98.3557986 73.9219134,99.9734782 76.9841601,101.464454 C78.1959465,102.053773 79.4180459,102.624675 80.6489851,103.180845 C80.7941048,103.246406 80.9414344,103.307548 81.0872908,103.372373 C82.198893,103.870347 83.3178616,104.356535 84.4449334,104.826517 C84.487659,104.844933 84.5311213,104.861876 84.5745835,104.878819 C101.187474,111.789316 119.371636,115.61252 137.830567,114.937014 C137.830567,114.937014 138.366847,114.912704 139.428357,114.742539 C140.507547,114.569426 140.969426,114.390421 140.969426,114.390421 C158.657086,110.743275 166.935539,100.15543 168.707178,91.2942887 C168.707178,91.2942887 168.932592,90.4250438 168.739591,88.3049702 C168.547325,86.1848966 168.164268,85.38195 168.164268,85.38195 Z" id="path14" fill="#FFFFFF"></path>
                        <path d="M175.194102,46.8111222 C175.222832,46.3498331 175.226515,46.074474 175.226515,46.074474 C175.281764,46.1585255 175.339959,46.2539952 175.398154,46.3446766 C177.399627,49.5042345 180.053771,57.2030188 177.183789,64.7717848 C175.621358,68.8133316 172.529646,72.7883591 167.071082,75.9867384 C161.850456,76.5208084 151.277344,76.0331473 142.888394,71.9463702 C142.984895,72.0082487 143.077713,72.0663702 143.175687,72.1276593 C140.397787,70.4825765 139.077713,69.2083961 139.077713,69.2083961 C152.595945,74.2069963 184.10018,75.1432762 175.226515,46.9561683 C175.226515,46.9561683 175.212519,46.9003303 175.194102,46.8111222" id="path16" fill="#DEDDDE"></path>
                        <path d="M151.920438,57.2168678 C150.79042,57.3737002 149.412888,57.4542159 147.870346,57.4455971 C146.807363,52.2594462 148.527436,40.2969419 152.297602,33.579373 C155.83867,27.2686549 153.180107,25.3496126 151.268505,30.0537746 C149.97495,33.2374946 136.067032,44.7306803 131.06077,53.9638292 C129.662612,53.3460023 128.304233,52.6306433 127.011415,51.8076598 C129.367216,46.8088386 138.626884,36.9604411 141.271451,34.0207726 C143.595577,31.7863712 152.734434,22.8507545 155.090972,20.2054507 C157.442353,17.5586736 158.620991,25.7930749 156.119333,32.9914541 C154.11786,38.7609567 149.578633,50.5553579 151.920438,57.2168678" id="path18" fill="#DEDDDE"></path>
                        <path d="M128.630568,94.4353568 C122.492815,93.492447 105.117493,102.520808 74.45893,100.180476 C72.2153941,99.0173088 70.0391143,97.7900528 67.9350996,96.5001817 C80.0736628,95.6964985 83.8902373,92.4913421 86.0029444,90.9060751 C76.0081012,95.465191 57.1924111,85.7627971 52.0467759,76.7970515 C57.3388568,82.0876591 72.4786722,77.5322264 72.4786722,77.5322264 C61.8108272,76.1274382 45.1197042,59.5764258 41.4618038,44.263056 C41.5780468,44.0162052 41.693406,43.7695753 41.8168682,43.5255238 C50.0587096,57.3060759 68.3650075,60.3337738 68.3650075,60.3337738 C57.6018402,54.4176045 61.7342894,31.0373473 63.8648234,24.5119699 C64.0760205,24.4184156 64.2869229,24.3249349 64.5001825,24.2319699 C66.4471438,43.4740321 81.5933681,45.0460394 81.5933681,45.0460394 C80.8581932,41.9581573 76.0081012,36.229023 74.978267,35.7855608 C80.8581932,35.1962422 97.7613235,42.2528166 97.7613235,42.2528166 C96.5863696,38.7235349 88.6467749,30.2025775 85.2677695,28.5828354 C90.7550622,29.2500913 96.2401449,30.8125959 101.244933,32.674106 C105.710495,38.6481022 108.271084,48.1834242 107.619887,52.746297 C104.974583,50.3956525 91.7414342,43.9241241 87.0401452,46.8663708 C92.6261487,51.8637924 93.5079166,65.3887276 69.4005876,54.8037555 C79.3981564,64.2097958 77.9292798,74.5016556 62.3465914,66.5641972 C74.1060755,76.5591141 96.1532204,74.5016556 79.3981564,83.9071802 C79.3981564,83.9071802 96.1532204,90.9635336 105.561692,86.8471433 C97.2979718,93.2743991 85.5948413,96.489132 76.6836077,97.9270694 C89.0386718,97.1115998 103.311231,94.6534046 117.027621,90.0810291 C127.551378,93.5889479 145.046774,90.6990769 153.046773,77.3723738 C155.801838,78.5009188 158.277712,79.1941048 160.477344,79.5160201 C150.086921,93.4659277 136.157639,95.5941044 128.630568,94.4353568" id="path20" fill="#DEDDDE"></path>
                        <path d="M124.362428,76.0972357 C121.72891,76.0972357 119.59484,77.8438286 119.59484,80.0007346 C119.59484,81.4011029 120.499445,82.6246757 121.851194,83.3134417 C121.516756,82.8125209 121.330384,82.238672 121.330384,81.6309372 C121.330384,79.6847126 123.255982,78.1082853 125.630936,78.1082853 C127.051931,78.1082853 128.308652,78.6747678 129.092446,79.5462227 C128.81473,77.6036813 126.806627,76.0972357 124.362428,76.0972357 Z M123.899813,84.7027603 C125.434251,84.087659 126.82136,83.0976038 127.958744,81.6699795 C127.45414,81.1572724 126.679923,80.827254 125.812152,80.827254 C124.290973,80.827254 123.057824,81.836462 123.057824,83.0821342 C123.057824,83.7185983 123.380476,84.290974 123.899813,84.7027603 Z M141.758376,81.4519317 C141.57495,78.0073645 135.955061,79.6368304 131.426884,84.3491692 C126.898708,89.0622446 116.025043,89.9675852 108.053036,81.0865541 C111.61473,84.0397769 116.436093,85.8482483 120.750642,85.4519316 C118.572373,84.3720053 117.110863,82.4198874 117.110863,80.1819501 C117.110863,76.7808452 120.479555,74.0213609 124.630568,74.0213609 C127.514546,74.0213609 130.013993,75.3502744 131.274398,77.2979723 C136.194472,73.0614346 144.525963,73.9034972 141.758376,81.4519317 Z" id="path22" fill="#231F20"></path>
                        <path d="M172.291708,6.39560205 C172.066294,6.52164256 171.705336,6.58408087 171.208099,6.58408087 L170.444195,6.58408087 L170.444195,4.744766 L171.251561,4.744766 C171.630935,4.744766 171.915281,4.78246029 172.105336,4.85813616 C172.454508,4.99654499 172.62983,5.26185622 172.62983,5.65233872 C172.62983,6.0220993 172.516386,6.2695689 172.291708,6.39560205 Z M171.325226,7.19555783 C171.95506,7.19555783 172.417675,7.13513058 172.711598,7.01283224 C173.236091,6.79414348 173.498338,6.36539211 173.498338,5.72514166 C173.498338,5.2722135 173.334066,4.93697962 173.003311,4.7234695 C172.827988,4.61009197 172.583421,4.52750633 172.269609,4.47744372 C172.666662,4.41413617 172.956902,4.2489649 173.141064,3.98020616 C173.325226,3.71201464 173.417307,3.449871 173.417307,3.19406254 L173.417307,2.82199625 C173.417307,2.70488391 173.42099,2.57913069 173.42983,2.44503861 C173.437196,2.31094654 173.452666,2.22260768 173.473292,2.18059663 L173.504968,2.11700179 L172.667399,2.11700179 C172.662979,2.13398153 172.659296,2.15095391 172.654876,2.16793365 C172.650456,2.18491339 172.6453,2.2033296 172.641616,2.22461873 L172.6232,2.38749165 L172.6232,2.78976789 C172.6232,3.3753443 172.463347,3.76265921 172.143642,3.95142532 C171.95506,4.06048609 171.622832,4.11487283 171.149167,4.11487283 L170.444195,4.11487283 L170.444195,2.11700179 L169.54843,2.11700179 L169.54843,7.19555783 L171.325226,7.19555783 Z M168.604047,7.45340681 C167.830567,6.6761619 167.4453,5.73779728 167.4453,4.63714169 C167.4453,3.52842717 167.829093,2.58430933 168.596681,1.80248983 C169.370162,1.02181213 170.308651,0.630467019 171.412887,0.630467019 C172.517859,0.630467019 173.457086,1.02181213 174.229093,1.80248983 C175.002574,2.58430933 175.389314,3.52842717 175.389314,4.63714169 C175.389314,5.73779728 175.002574,6.6761619 174.229093,7.45340681 C173.452666,8.23491692 172.51344,8.62541415 171.412887,8.62541415 C170.317491,8.62541415 169.380475,8.23491692 168.604047,7.45340681 Z M174.688762,1.36193735 C173.786368,0.454650449 172.693918,0.00086326333 171.412887,0.00086326333 C170.132592,0.00086326333 169.041616,0.454650449 168.144379,1.36193735 C167.249351,2.26433144 166.800732,3.3592338 166.800732,4.64462603 C166.800732,5.9167807 167.253771,7.00477331 168.156165,7.90718212 C169.055613,8.8058193 170.140696,9.25532205 171.412887,9.25532205 C172.693918,9.25532205 173.786368,8.8058193 174.688762,7.90718212 C175.591892,7.00909006 176.042721,5.92052287 176.042721,4.64462603 C176.042721,3.36268132 175.591892,2.26893549 174.688762,1.36193735 Z" id="path24" fill="#231F20"></path>
                        <path d="M68.3650075,60.3337738 C68.3650075,60.3337738 50.0587096,57.3060759 41.8168682,43.5255238 C42.5877706,42.0016196 43.4999621,40.5274391 44.5433506,39.1042347 C45.6149528,40.9510119 46.6033874,42.4229087 47.3451922,43.2824299 C47.6148054,39.933848 48.1440135,36.9311225 48.8628349,34.2224669 C52.8170889,30.4632773 57.8582674,27.1932222 63.8648234,24.5119699 C61.7342894,31.0373473 57.6018402,54.4176045 68.3650075,60.3337738" id="path26" fill="#231F20"></path>
                        <path d="M72.4786722,77.5322264 C72.4786722,77.5322264 57.3388568,82.0876591 52.0467759,76.7970515 C57.1924111,85.7627971 76.0081012,95.465191 86.0029444,90.9060751 C83.8902373,92.4913421 80.0736628,95.6964985 67.9350996,96.5001817 C62.2246025,93.0011026 57.0534056,89.0534048 52.6536267,84.6755043 C41.2479548,73.3258177 36.6254871,60.7518954 39.6328535,49.2699804 C40.0828719,47.5506434 40.6983415,45.8805145 41.4618038,44.263056 C45.1197042,59.5764258 61.8108272,76.1274382 72.4786722,77.5322264" id="path28" fill="#231F20"></path>
                        <path d="M155.090972,20.2054507 C152.734434,22.8507545 143.595577,31.7863712 141.271451,34.0207726 C138.626884,36.9604411 129.367216,46.8088386 127.011415,51.8076598 C128.304233,52.6306433 129.662612,53.3460023 131.06077,53.9638292 C136.067032,44.7306803 149.97495,33.2374946 151.268505,30.0537746 C153.180107,25.3496126 155.83867,27.2686549 152.297602,33.579373 C148.527436,40.2969419 146.807363,52.2594462 147.870346,57.4455971 C149.412888,57.4542159 150.79042,57.3737002 151.920438,57.2168678 C149.578633,50.5553579 154.11786,38.7609567 156.119333,32.9914541 C158.620991,25.7930749 157.442353,17.5586736 155.090972,20.2054507 Z M189.043826,64.5980094 C189.00994,64.8368308 188.962058,65.066444 188.920069,65.3015822 C189.042353,66.34556 188.769056,67.9129265 187.889498,70.1090222 C187.681763,70.6293168 187.445299,71.1340682 187.196312,71.6315268 C187.127804,71.767954 187.056349,71.902024 186.985631,72.0364623 C186.777159,72.4321161 186.556165,72.820256 186.321911,73.2000718 C186.262242,73.300256 186.204784,73.4018398 186.142168,73.5007716 C185.844563,73.9697956 185.530014,74.4265175 185.199995,74.871453 C185.14401,74.9473278 185.084342,75.0195193 185.026883,75.0946574 C184.738854,75.472558 184.439774,75.8401454 184.131119,76.1996298 C184.048614,76.295394 183.96611,76.391895 183.882132,76.4861859 C183.131487,77.3311215 182.329277,78.1230183 181.484342,78.8581932 C181.415097,78.9185984 181.345115,78.9767936 181.275134,79.0364621 C180.885447,79.3686905 180.48913,79.6898691 180.085447,79.9985247 C180.040511,80.0324105 179.997049,80.0677696 179.952113,80.1016555 C179.486552,80.4523 179.01436,80.7882116 178.535539,81.1071803 C178.534802,81.1071803 178.534802,81.1079169 178.534802,81.1079169 C176.812519,82.2526683 175.013624,83.1911581 173.241248,83.8998137 C171.357638,84.6725577 169.597049,85.1491691 168.166478,85.3539574 C168.153955,85.38195 168.132592,85.4158358 168.119333,85.4453017 C168.133329,85.4239389 168.151009,85.4040494 168.164268,85.38195 C168.164268,85.38195 168.547325,86.1848966 168.739591,88.3049702 C168.932592,90.4250438 168.707178,91.2942887 168.707178,91.2942887 C166.935539,100.15543 158.657086,110.743275 140.969426,114.390421 C140.019149,114.585632 139.046774,114.764638 138.044195,114.920807 C137.926332,114.931121 137.862243,114.934804 137.84309,114.93554 C138.4081,114.783054 138.959113,114.621728 139.502759,114.453772 C150.332961,111.114546 163.655245,99.5499054 161.103495,92.6187822 C161.108652,92.6158356 160.964269,92.2784507 160.968688,92.2747675 C160.883237,92.3351726 157.375318,94.6187822 155.729646,95.3524838 L155.737013,95.331121 C149.03204,98.8810288 139.932962,101.412889 131.868873,103.08066 C129.363533,103.411415 126.008837,103.938856 121.443828,104.769058 C114.620255,106.009574 104.176793,107.418782 92.1672168,107.776793 C86.9664803,105.963165 81.890974,103.851931 76.9841601,101.464454 C76.1303848,101.048248 75.2950257,100.614362 74.45893,100.180476 C105.117493,102.520808 122.492815,93.492447 128.630568,94.4353568 C136.157639,95.5941044 150.086921,93.4659277 160.477344,79.5160201 C158.277712,79.1941048 155.801838,78.5009188 153.046773,77.3723738 C150.085447,76.1613241 146.799996,74.4427237 143.175687,72.1276593 C143.077713,72.0663702 142.984895,72.0082487 142.888394,71.9463702 C148.65635,74.7557992 155.455613,75.8644548 160.839038,76.1097587 C160.841985,76.1097587 160.844932,76.1097587 160.847878,76.1097587 C161.282501,76.1296482 161.705337,76.1421712 162.120806,76.151011 C162.209204,76.1524843 162.298338,76.1546942 162.386,76.1561675 C162.787473,76.1627974 163.180106,76.1650073 163.55948,76.1627974 C163.624305,76.1613241 163.686184,76.1605874 163.750272,76.1598508 C164.095024,76.1554309 164.430198,76.1480644 164.753587,76.1370147 C164.811782,76.1355414 164.873661,76.1340681 164.931856,76.1311215 C165.281027,76.1178618 165.615465,76.1001823 165.938117,76.0795561 C166.007362,76.0743996 166.076607,76.069243 166.144379,76.0648231 C166.466294,76.041987 166.77937,76.016941 167.071082,75.9867384 C183.050456,66.6234974 178.458191,51.1763523 175.398154,46.3446766 C175.339959,46.2539952 175.281764,46.1585255 175.226515,46.074474 C175.226515,46.074474 175.083605,57.8326321 168.612887,57.6867757 C165.821727,57.395284 164.203311,56.6586358 162.290972,57.8326321 C162.046405,57.9828346 161.822464,58.156389 161.602206,58.3376781 C161.536644,58.3900538 161.471819,58.4441238 161.408467,58.499667 C161.216939,58.6628346 161.029094,58.8305694 160.839038,59.0023558 C159.994839,59.7663337 159.092445,60.5562416 157.56832,60.9049709 C150.719702,63.6366098 133.179371,63.6136264 121.720071,52.5437188 C121.720071,52.5437188 125.943275,46.4220983 130.441249,41.0445662 C126.764638,42.7198516 123.158745,43.6147319 121.133699,42.4016196 C118.260771,40.6770524 110.590789,36.151896 101.244933,32.674106 C96.2401449,30.8125959 90.7550622,29.2500913 85.2677695,28.5828354 C88.6467749,30.2025775 96.5863696,38.7235349 97.7613235,42.2528166 C97.7613235,42.2528166 80.8581932,35.1962422 74.978267,35.7855608 C76.0081012,36.229023 80.8581932,41.9581573 81.5933681,45.0460394 C81.5933681,45.0460394 66.4471438,43.4740321 64.5001825,24.2319699 C67.1000352,23.1014359 69.8730738,22.0795575 72.8164991,21.1748798 C74.6504585,20.6106072 76.5414346,20.1194102 78.4589299,19.6641616 C80.6401453,20.0892076 83.1388561,20.3763531 85.8556148,20.50011 C98.7896845,21.0888393 114.370531,25.9375316 121.425411,29.6089127 C126.755061,32.3860765 135.683975,28.1206623 141.890236,22.1325225 C142.118597,21.9256716 142.987105,21.1130013 144.141433,19.7723752 C145.287658,18.4383789 146.12891,17.1299443 146.355061,16.7696497 C146.361691,16.7587473 146.36832,16.7483605 146.37495,16.7380475 C146.404416,16.6908283 146.419886,16.6643826 146.419886,16.6643826 C146.570899,16.4243826 146.718228,16.1834987 146.855982,15.9432777 C149.768689,10.8877345 156.545116,7.22864807 160.839038,9.41502739 L160.839775,9.4158377 C161.021727,9.50850805 161.198523,9.61325943 161.371635,9.72751357 C161.390051,9.74069957 161.409941,9.75307526 161.429094,9.76662959 C161.595576,9.87999975 161.758375,10.0022834 161.916755,10.1378266 C161.930014,10.1488027 161.942537,10.1613994 161.955797,10.1737751 C162.439775,10.5959482 162.873661,11.1205154 163.243458,11.7575688 C163.255981,11.7788579 163.270714,11.7981581 163.282501,11.8203312 C163.376055,11.9846038 163.460769,12.1627253 163.546221,12.3417308 C163.590419,12.4352851 163.635355,12.5281765 163.677344,12.6260034 C163.749536,12.7935172 163.815834,12.9687658 163.879186,13.1491709 C163.926331,13.2766111 163.969793,13.4092814 164.011782,13.5439407 C164.067031,13.7186 164.118596,13.8953219 164.167215,14.0808836 C164.209941,14.2466295 164.246773,14.4213624 164.283605,14.5960217 C164.321175,14.77267 164.360954,14.9450457 164.392629,15.1306074 C164.439038,15.4025779 164.474397,15.6920806 164.508283,15.9837933 C164.528909,16.1737749 164.548062,16.3668504 164.563532,16.5650825 C164.588578,16.8839038 164.609941,17.20825 164.620254,17.5497602 C164.624674,17.7207362 164.621727,17.9020253 164.622464,18.0789682 C164.623937,18.3742169 164.622464,18.6749167 164.612887,18.9856349 C164.606257,19.1801837 164.595208,19.3804783 164.584895,19.580773 C164.566478,19.9012886 164.543642,20.2290234 164.514176,20.565156 C164.496497,20.7706072 164.477344,20.9760584 164.455245,21.1866661 C164.415466,21.5616201 164.364637,21.9498337 164.310125,22.3440142 C164.283605,22.5325225 164.261506,22.7152112 164.23204,22.9082867 C164.139959,23.5042351 164.036092,24.1172001 163.910861,24.7571265 C159.206626,48.7226507 169.198522,47.1029086 174.198154,34.7557266 C182.282132,39.0201832 191.395944,48.2806618 189.043826,64.5980094 Z" id="path30" fill="#231F20"></path>
                        <path d="M194.45377,98.4692425 C188.541432,108.789684 177.144747,117.301655 160.684342,122.358745 C118.722649,135.250089 59.7499064,120.858929 28.9557267,90.2195189 C-1.83529277,59.580772 7.21109374,24.2932591 49.1692805,11.4047879 C76.444197,3.02601097 110.907548,6.1737457 140.149536,17.8202574 C117.343643,11.8114178 92.3152831,11.2816203 71.4511216,17.6936276 C32.8412515,29.5536641 23.1183788,60.6368309 49.7370153,87.1197032 C63.3980831,100.713073 83.980845,110.438303 105.997051,115.09392 C108.248248,115.443828 110.825043,115.865927 113.767216,116.364638 C132.286553,119.515282 145.97274,117.381949 155.546957,112.749168 C166.973108,107.21915 172.524489,98.1252277 173.415834,90.1922629 C173.415834,90.1922629 173.449719,89.3974195 173.406257,88.9797399 C173.365005,88.5620604 173.236828,87.7907897 173.236828,87.7907897 C173.236828,87.7907897 174.392629,87.4379352 175.741432,86.8913422 C177.089498,86.3454859 178.439038,85.6073643 178.439038,85.6073643 L193.064452,97.3583769 L194.45377,98.4692425" id="path32" fill="#601030"></path>
                        <path d="M146.10681,16.5084342 C145.283974,16.1009204 143.023937,14.9965374 141.667031,14.4618781 C139.986,13.7980844 137.131488,12.7299444 134.839776,11.9365743 C105.256719,1.67673661 73.2078803,0.114813257 47.8033137,7.9212521 C26.2879551,14.5312704 12.1261875,27.0039036 7.92360938,43.038673 C3.68928168,59.2043447 10.1231673,76.8272541 26.0364634,92.6637178 C34.8440507,101.428358 46.0019878,109.059297 58.7209562,115.163165 C43.2285809,108.642355 29.6946586,99.9366458 19.3810677,89.6766092 C3.46799991,73.8430921 -2.96500913,56.2151735 1.2707182,40.0495018 C5.46817666,24.0156163 19.6313807,11.5440881 41.1493176,4.93324481 C68.520072,-3.47260396 103.607364,-1.03418782 135.010678,11.4718229 C135.010678,11.4718229 139.410678,13.2119334 142.150273,14.3623569 C144.271083,15.2537749 145.918228,16.1009204 146.555429,16.4390419 C146.514177,16.5066663 146.475871,16.5737012 146.433882,16.6416202 L146.10681,16.5084342" id="path34" fill="#231F20"></path>
                        <path d="M49.1692805,11.4047879 C7.21109374,24.2932591 -1.83529277,59.580772 28.9557267,90.2195189 C59.7499064,120.858929 118.722649,135.250089 160.684342,122.358745 C161.703127,122.046406 162.700548,121.719334 163.681027,121.380476 C164.068504,121.246406 164.438302,121.102023 164.819885,120.96427 C165.400364,120.753588 165.987473,120.547327 166.554692,120.327805 C167.046036,120.137014 167.519701,119.934435 168.000732,119.737014 C168.436092,119.558745 168.88029,119.385632 169.30681,119.20147 C169.851193,118.967216 170.375686,118.720439 170.906073,118.476608 C171.248615,118.319702 171.599996,118.167953 171.935907,118.006627 C172.512703,117.73112 173.069609,117.443091 173.629462,117.157271 C173.899075,117.018782 174.178265,116.885448 174.443458,116.744012 C175.044563,116.427253 175.624305,116.098708 176.202574,115.769426 C176.410309,115.651562 176.62541,115.538119 176.830935,115.418045 C177.443089,115.060771 178.034618,114.692446 178.6232,114.322649 C178.779369,114.223938 178.942169,114.128911 179.096865,114.029463 C179.714176,113.63241 180.312334,113.224307 180.903126,112.81252 C181.013623,112.734435 181.130751,112.660034 181.241248,112.581949 C181.856349,112.145117 182.453771,111.698708 183.037933,111.247143 C183.113071,111.188947 183.191156,111.133699 183.265557,111.075504 C183.872555,110.601839 184.460401,110.117861 185.032776,109.627253 C185.078448,109.589684 185.124857,109.552852 185.169793,109.514546 C185.760585,109.005522 186.331487,108.486922 186.886183,107.962428 C186.908283,107.940329 186.933329,107.920439 186.954691,107.89834 C187.522647,107.358377 188.070714,106.809574 188.59889,106.253404 C188.606257,106.245301 188.61436,106.237198 188.621726,106.229832 C190.938485,103.787843 192.892813,101.194104 194.45377,98.4692425 L193.064452,97.3583769 L178.439038,85.6073643 C178.439038,85.6073643 177.089498,86.3454859 175.741432,86.8913422 C174.392629,87.4379352 173.236828,87.7907897 173.236828,87.7907897 C173.236828,87.7907897 173.365005,88.5620604 173.406257,88.9797399 C173.449719,89.3974195 173.415834,90.1922629 173.415834,90.1922629 C173.326699,90.987843 173.177896,91.7959461 172.993734,92.6099424 C172.89355,93.0504581 172.778633,93.4939203 172.650456,93.9381192 C172.642353,93.9646385 172.63425,93.9926312 172.626147,94.0206238 C172.50018,94.4530363 172.35948,94.8869221 172.205521,95.3208079 C172.193734,95.3569037 172.179738,95.3929995 172.166478,95.4290952 C172.011782,95.8607711 171.843826,96.2931836 171.661874,96.7255961 C171.650088,96.7543254 171.635355,96.7830547 171.622832,96.8125206 C170.702022,98.9701633 169.430567,101.116756 167.800364,103.172005 C167.679554,103.323754 167.565373,103.476977 167.44088,103.627253 C167.219149,103.895393 166.984158,104.159113 166.749904,104.422833 C166.576055,104.619519 166.402942,104.81694 166.221727,105.011415 C165.999996,105.250089 165.766478,105.48508 165.533698,105.720071 C165.320806,105.935172 165.106442,106.1488 164.88471,106.360218 C164.655613,106.57753 164.420622,106.792631 164.183421,107.006259 C163.934434,107.229463 163.681027,107.450458 163.422464,107.669242 C163.187473,107.868137 162.948799,108.065559 162.704968,108.260034 C162.420622,108.487658 162.126699,108.711599 161.830567,108.933331 C161.59042,109.113073 161.350272,109.294288 161.101285,109.470347 C160.77495,109.703128 160.434618,109.929279 160.09355,110.154693 C159.854876,110.313073 159.620622,110.472925 159.374582,110.626885 C158.979738,110.875135 158.568688,111.114546 158.154692,111.35322 C157.944011,111.475504 157.740696,111.602207 157.524121,111.722281 C156.884711,112.075872 156.22762,112.419887 155.546957,112.749168 C145.97274,117.381949 132.286553,119.515282 113.767216,116.364638 C110.825043,115.865927 108.248248,115.443828 105.997051,115.09392 C83.980845,110.438303 63.3980831,100.713073 49.7370153,87.1197032 C23.1183788,60.6368309 32.8412515,29.5536641 71.4511216,17.6936276 C92.3152831,11.2816203 117.343643,11.8114178 140.149536,17.8202574 C110.907548,6.1737457 76.444197,3.02601097 49.1692805,11.4047879 Z M146.355061,16.7696497 C146.316018,16.8315281 146.253403,16.9288394 146.180475,17.0425042 C146.144379,17.0968688 146.11123,17.1492445 146.067768,17.2148062 C146.047878,17.2441985 146.022832,17.2810309 146.00147,17.3127067 C145.944748,17.3975686 145.884343,17.487366 145.815834,17.5851929 C145.788578,17.6265926 145.756902,17.6715281 145.7267,17.7149167 C145.658928,17.8122279 145.587473,17.9138117 145.510862,18.020552 C145.473293,18.0720437 145.434987,18.1258927 145.395945,18.180552 C145.317123,18.2872924 145.234619,18.4000732 145.149168,18.5134434 C145.105705,18.5710493 145.06298,18.6276975 145.018044,18.686703 C144.925963,18.806703 144.828726,18.9309756 144.730751,19.0556165 C144.685079,19.1116754 144.642354,19.1675133 144.596681,19.2242352 C144.450088,19.4055244 144.299812,19.5882131 144.141433,19.7723752 C143.98379,19.9556533 143.832041,20.1266293 143.686184,20.2909019 C143.635356,20.3470345 143.588947,20.3976422 143.539591,20.4523752 C143.443827,20.5568319 143.350273,20.66011 143.261138,20.7565372 C143.212519,20.8080289 143.166111,20.8566477 143.119702,20.9067398 C143.034987,20.9959479 142.953219,21.0827987 142.876608,21.1630934 C142.835356,21.2045667 142.796313,21.2456717 142.758007,21.285377 C142.676976,21.3688392 142.599628,21.4468503 142.528173,21.5190418 C142.503127,21.5432039 142.477345,21.5697232 142.453772,21.593296 C142.366111,21.6802205 142.285816,21.7584525 142.215098,21.8260768 C142.212151,21.8307177 142.206258,21.8364635 142.201838,21.8401468 C141.963164,22.0701284 141.827621,22.1892444 141.827621,22.1892444 L139.132962,21.3434985 C117.408469,15.6184158 94.5163881,15.2839775 75.7583775,20.3404046 C74.7653757,20.6033881 73.7826869,20.8782315 72.8164991,21.1748798 C72.1432026,21.3820989 71.4816188,21.5964635 70.8264439,21.8151744 C70.6554678,21.8727066 70.4868491,21.9308282 70.31742,21.9898337 C69.8005876,22.165598 69.289501,22.3454875 68.7836447,22.5290602 C68.6423556,22.5805519 68.5005508,22.6320436 68.3603666,22.683609 C66.8067755,23.2581946 65.3085067,23.8682867 63.8648234,24.5128539 C63.8648234,24.5119699 63.8648234,24.5119699 63.8648234,24.5119699 C63.8601826,24.5142535 63.85591,24.5163161 63.8512691,24.5185998 C60.8528898,25.8578262 58.0959101,27.3423198 55.5941791,28.9629459 C54.3453393,29.771491 53.1600723,30.6143639 52.0404407,31.488839 C52.0355788,31.4925959 52.0304223,31.4968685 52.0251921,31.5006254 C51.469833,31.9345848 50.9311958,32.3765738 50.4086175,32.8265922 C50.3971258,32.835211 50.3858551,32.8455977 50.374658,32.8559844 C49.8581203,33.3008463 49.3574205,33.752559 48.8737373,34.2129642 C48.8699804,34.2158371 48.8665181,34.2187837 48.8628349,34.2224669 C48.8628349,34.2224669 48.8628349,34.2224669 48.8628349,34.2233509 C47.2363892,35.7703122 45.7938847,37.3995571 44.5433506,39.1042347 C44.543056,39.1051187 44.542172,39.1056344 44.5418773,39.1065184 C44.0290965,39.8054502 43.5482862,40.5179364 43.1002567,41.2419143 C43.091638,41.2560579 43.0824299,41.2698332 43.0738111,41.2839769 C42.863719,41.6257816 42.6611407,41.969649 42.4657816,42.3160947 C42.4493544,42.3448977 42.4315275,42.3734059 42.4153949,42.4030192 C41.8539953,43.4061131 41.357347,44.4325587 40.9199253,45.4799989 C40.9188203,45.4828718 40.917347,45.4857447 40.9159474,45.4889123 C40.7556528,45.8732954 40.6033876,46.261509 40.4598148,46.6520062 C40.4471445,46.6859657 40.4336638,46.7204408 40.4209935,46.7549896 C40.29208,47.1095384 40.171196,47.4674758 40.0567209,47.8268865 C40.0356528,47.8916378 40.0123747,47.9566839 39.9919695,48.0214353 C39.8633508,48.4346213 39.7427614,48.8501645 39.6328535,49.2699804 C36.6254871,60.7518954 41.2479548,73.3258177 52.6536267,84.6755043 C53.3784885,85.3966829 54.1312694,86.1016553 54.8967205,86.7992612 C55.1225769,87.0055227 55.3507905,87.2103109 55.5806984,87.4150991 C56.2131846,87.9771617 56.8574571,88.5325945 57.515505,89.0791875 C57.8723374,89.3767933 58.2357996,89.6692427 58.5997775,89.9609554 C59.113737,90.3734784 59.6322637,90.7823182 60.1602932,91.1845281 C60.6077333,91.5270695 61.060109,91.8651911 61.5176412,92.2011027 C61.8108272,92.4154673 62.1092434,92.6268853 62.4064809,92.8383034 C63.444713,93.5808448 64.5059284,94.3064433 65.5904956,95.0143623 C65.6937737,95.0813973 65.7953575,95.1499055 65.8989302,95.2169405 C69.3893905,97.4769773 73.0924475,99.5697949 76.9841601,101.464454 C78.1959465,102.053773 79.4180459,102.624675 80.6489851,103.180845 C80.7941048,103.246406 80.9414344,103.307548 81.0872908,103.372373 C82.198893,103.870347 83.3178616,104.356535 84.4449334,104.826517 C84.487659,104.844933 84.5311213,104.861876 84.5745835,104.878819 C101.187474,111.789316 119.371636,115.61252 137.830567,114.937014 C137.830567,114.937014 138.366847,114.912704 139.428357,114.742539 C140.507547,114.569426 140.969426,114.390421 140.969426,114.390421 C158.657086,110.743275 166.935539,100.15543 168.707178,91.2942887 C168.707178,91.2942887 168.932592,90.4250438 168.739591,88.3049702 C168.547325,86.1848966 168.164268,85.38195 168.164268,85.38195 L168.278449,85.3333312 C169.690603,85.1204399 171.404784,84.6541415 173.241248,83.8998137 C175.081395,83.1639022 176.951745,82.1834234 178.733697,80.9775302 L199.311966,98.049353 L198.016201,100.242355 C191.402573,111.790789 178.963531,120.643828 162.050825,125.840144 C141.029094,132.296129 115.331121,132.41252 89.6972353,126.156903 C78.7057071,123.47403 68.2740314,119.747327 58.7209562,115.163165 C46.0019878,109.059297 34.8440507,101.428358 26.0364634,92.6637178 C10.1231673,76.8272541 3.68928168,59.2043447 7.92360938,43.038673 C12.1261875,27.0039036 26.2879551,14.5312704 47.8033137,7.9212521 C73.2078803,0.114813257 105.256719,1.67673661 134.839776,11.9365743 C137.131488,12.7299444 139.986,13.7980844 141.667031,14.4618781 C143.347326,15.1240512 146.413993,16.6609204 146.419886,16.6643826 C146.419886,16.6643826 146.404416,16.6908283 146.37495,16.7380475 C146.36832,16.7483605 146.361691,16.7587473 146.355061,16.7696497 Z" id="path36" fill="#FFFFFF"></path>
                    </g>
                </g>
            </g>
        </g>
    </g>
</svg>