<?xml version="1.0" encoding="UTF-8"?>
<svg width="200px" height="200px" viewBox="0 0 200 200" version="1.1" xmlns="http://www.w3.org/2000/svg" xmlns:xlink="http://www.w3.org/1999/xlink">
    <!-- Generator: Sketch 51.3 (57544) - http://www.bohemiancoding.com/sketch -->
    <title>chaminade</title>
    <desc>Created with Sketch.</desc>
    <defs>
        <path d="M5.32660413,0.0313661639 C5.32660413,0.0313661639 5.08707083,147.762851 4.39223975,155.992941 C3.75330339,163.565319 2.53056567,168.245281 2.53056567,168.245281 C2.53056567,168.245281 1.36980054,163.565319 0.730430046,155.992941 C0.0364672356,147.762851 0.0898656876,0.455731911 0.0898656876,0.455731911 L5.32660413,0.0313661639 Z" id="path-1"></path>
        <path d="M8.37867297,1.02470761 C8.37867297,1.02470761 8.42534235,2.32370093 8.25364245,2.61120601 C8.08064015,2.90109883 7.21280677,3.01516747 7.01060897,3.8974358 C6.80710877,4.77883586 7.56597458,17.5074205 7.56597458,17.5074205 L7.32383647,23.2074882 L0.188631117,24.6629216 C0.188631117,24.6629216 -0.0716320698,7.96743977 0.155636952,6.93007716 C0.38279744,5.89217188 0.879337924,5.5741689 0.879337924,5.5741689 L3.74353538,0.0368796626 L8.14977595,0.0737701786 L8.37867297,1.02470761 Z" id="path-3"></path>
    </defs>
    <g id="chaminade" stroke="none" stroke-width="1" fill="none" fill-rule="evenodd">
        <g id="chaminade_BGL" transform="translate(21.000000, -1.000000)">
            <g id="chaminade" transform="translate(0.880342, 0.218559)">
                <g id="g10">
                    <g transform="translate(78.500000, 100.547350) scale(-1, 1) rotate(-180.000000) translate(-78.500000, -100.547350) translate(0.000000, 0.047350)">
                        <g id="g12">
                            <path d="M87.0269803,19.9454715 C86.6454471,20.5554637 86.1511336,21.2893324 85.6133286,22.145881 C85.0884647,21.9443138 84.5951709,21.7693072 84.1358759,21.6174353 C84.4800542,21.1026934 84.7698551,20.7194398 84.9371841,20.5997553 C85.1002897,20.4835161 85.2988301,20.2209948 85.5101199,19.8802446 C85.9890556,19.8845264 86.495248,19.9048083 87.0269803,19.9454715 Z M90.0970656,20.3805466 C96.6969885,21.7389904 105.868543,26.319513 115.512139,39.4803409 C136.374437,67.9503985 127.662458,87.7103221 127.662458,87.7103221 C127.662458,87.7103221 128.151944,66.3563679 112.93447,45.3703421 C104.413184,33.6187426 96.1693841,27.4346865 90.0666293,24.1893802 C90.246606,23.0563268 90.2162159,21.691366 90.0970656,20.3805466 Z M84.74893,31.4868947 C85.5667237,31.342505 86.4160666,31.0191725 86.9030503,30.5194946 C87.1833195,30.2317244 87.4708316,29.9242527 87.7564738,29.5705189 C94.5639492,32.0684864 104.113493,38.5509343 108.271874,55.37159 C114.419208,80.2355156 99.9877332,91.7599217 99.9877332,91.7599217 C99.9877332,91.7599217 106.062567,67.7673026 101.092169,53.1627174 C97.8311666,43.5830542 89.852308,35.7454359 84.74893,31.4868947 Z M82.6392339,29.7929453 C81.1347131,28.632391 80.1875438,28.0049601 80.1875438,28.0049601 C80.1875438,28.0049601 81.2396898,27.9958846 82.950918,28.2847974 C82.8132445,28.8367252 82.7078645,29.3512582 82.639237,29.7929476 Z M81.1328292,20.3276517 C81.1407704,20.4914435 81.1486841,20.6542822 81.1565472,20.8157355 C80.4342403,20.6724888 80.0447138,20.6408895 80.0447138,20.6408895 C80.0447138,20.6408895 80.4244352,20.4930506 81.1328292,20.3276517 Z M80.8079001,12.8609818 C80.8082631,12.9199676 80.809747,12.9988018 80.8122522,13.0956185 C80.3947971,13.1569494 80.1875438,13.2173108 80.1875438,13.2173108 C80.1875438,13.2173108 80.3919219,13.0719171 80.8079001,12.8609818 Z M86.3495457,11.3990758 C92.2643634,10.8208161 102.581507,12.2458101 117.918326,22.4999587 C147.262512,42.1185717 145.832041,63.6666922 145.832041,63.6666922 C145.832041,63.6666922 138.168495,44.5814125 117.511325,28.9177581 C103.358679,18.185495 93.3651777,14.5459682 87.3036328,13.4230387 C87.2397893,13.0359314 87.133184,12.6670692 86.9645888,12.3588112 C86.8055232,12.0670271 86.5898629,11.7370494 86.3495457,11.3990758 Z M97.9620651,108.204908 C93.2997942,109.677382 92.0109596,103.478603 91.4585244,101.577097 C90.9065233,99.6756996 90.7822525,96.7299935 94.464358,95.6255572 C98.1464634,94.5212295 100.724133,98.5712633 101.092169,100.780461 C101.460966,102.989334 102.62477,106.732435 97.9620651,108.204908 Z M102.152867,126.815897 C97.5508319,127.754711 96.9423935,121.705057 96.6061569,119.832856 C96.2695947,117.961739 96.447698,115.135528 100.074669,114.450682 C103.702399,113.765836 105.757805,117.892278 105.886634,120.040154 C106.0172,122.18586 106.754033,125.877083 102.152867,126.815897 Z M102.413564,145.730019 C97.9175664,146.086009 98.0455273,140.24691 97.9442656,138.423548 C97.8420271,136.601272 98.341498,133.928093 101.880231,133.699088 C105.418638,133.471167 106.894042,137.645364 106.76684,139.706414 C106.639639,141.768549 106.90967,145.37403 102.413564,145.730019 Z M99.5137677,162.818609 C95.2367905,162.559214 96.1296951,157.083702 96.2746957,155.354765 C96.4201305,153.625827 97.2442249,151.177313 100.603335,151.430196 C103.962336,151.683079 104.798369,155.805179 104.40537,157.728391 C104.013238,159.650518 103.790636,163.078004 99.5137677,162.818609 Z M94.9527584,178.437657 C91.5326527,177.743043 92.8736919,173.428838 93.1873535,172.050464 C93.4998213,170.673174 94.4423257,168.791205 97.122559,169.3762 C99.8033349,169.96011 100.009766,173.379998 99.4755639,174.886443 C98.9400599,176.392887 98.3732983,179.132271 94.9527584,178.437657 Z M88.7799191,191.429109 C86.0474812,190.463162 87.6492177,187.068236 88.0659861,185.970963 C88.4836228,184.87369 89.4751843,183.434536 91.6132931,184.225745 C93.7499909,185.016954 93.5253267,187.852932 92.9114615,189.03052 C92.2966196,190.208108 91.5136594,192.395057 88.7799191,191.429109 Z M87.7764189,82.4951818 C85.7520532,75.6825378 89.6757541,66.1718611 88.1444558,57.5812223 C85.9351491,45.1868121 80.1452157,36.1654041 80.1875438,34.8781975 C80.2291121,33.5889287 91.0904875,42.241106 94.464358,59.054021 C97.2328289,72.8517686 87.7764189,82.4951818 87.7764189,82.4951818 Z M80.1875438,6.95801366 C80.1875438,6.95801366 86.9510221,-3.11270647 117.537373,4.38161433 C151.820916,12.7798125 155.766107,35.4297644 155.766107,35.4297644 C155.766107,35.4297644 144.146517,19.0302532 119.377015,11.3764751 C89.0207548,1.99472522 80.1875438,6.95801366 80.1875438,6.95801366 Z" id="path14" fill="#231F20"></path>
                            <path d="M87.1580865,19.733286 C86.7275538,20.4398229 86.1177786,21.3300542 85.4536649,22.4018227 C84.9252944,22.1985213 84.4297113,22.0223691 83.9695206,21.8698437 C84.3857573,21.2299174 84.7435085,20.7382846 84.9371841,20.5997553 C85.1347643,20.4589474 85.3843414,20.1034849 85.6455913,19.6543364 C86.1243936,19.6636347 86.62911,19.6886076 87.1580865,19.733286 Z M90.0756906,20.1553826 C96.7634721,21.5196134 106.052097,26.1114701 115.730292,39.3196029 C136.447154,67.5891992 127.998911,87.6200222 127.910999,87.8188555 L127.391124,87.7034844 C127.396551,87.4910845 127.699359,66.1943275 112.715233,45.5297777 C104.289188,33.9099128 96.0901544,27.7524208 90.0104377,24.501337 C90.264174,23.2500182 90.2241072,21.6559559 90.0756906,20.1553826 Z M83.0167811,28.027365 C82.809603,28.8175352 82.6647732,29.5447053 82.5946451,30.1106641 C81.0606136,28.9169183 80.0767965,28.2573907 80.0378762,28.2318267 L79.2994147,27.7413641 L80.1854816,27.7336582 C80.1854816,27.7336582 80.1875438,27.7336582 80.1904742,27.7336582 C80.2770061,27.7336582 81.3408632,27.7414745 83.0167811,28.027365 Z M87.9297548,29.3496362 C89.1541685,29.8015612 90.4622141,30.3798406 91.806157,31.119793 C97.4829985,34.2456646 104.993404,40.9798389 108.534524,55.3075553 C111.729749,68.2285697 109.288832,77.5013412 106.679905,83.0064828 C103.846531,88.9834193 100.305302,91.8523922 100.156828,91.9718875 L99.5264661,92.474723 L99.7248652,91.6933907 C99.7851013,91.4534233 105.7234,67.6129681 100.835162,53.2496527 C97.5709441,43.6598688 89.4469398,35.7573894 84.3725696,31.5411097 C85.2948525,31.4384586 86.3406193,31.0965865 86.9030503,30.5194946 C87.2400934,30.173431 87.5876111,29.7988756 87.9297548,29.3496362 Z M81.170555,21.1029934 C80.447893,20.95241 80.046768,20.9133238 80.0222474,20.9113548 L79.9459483,20.3889833 C79.9717086,20.3786695 80.380593,20.2277689 81.1201116,20.0650076 C81.1370692,20.4156709 81.1539578,20.7630571 81.170555,21.1029934 Z M87.3377507,13.6637099 C87.2809983,13.1901421 87.1678412,12.730436 86.9645888,12.3588112 C86.7590714,11.9818176 86.4590783,11.541066 86.133494,11.1016878 C86.9035878,11.0179106 87.7492961,10.9682808 88.6722539,10.9682808 C94.8480237,10.9682808 104.483839,13.1910457 118.069187,22.2743177 C147.206074,41.7548762 146.117484,63.4670992 146.102289,63.68536 L145.581329,63.7676283 C145.50427,63.5776948 137.709398,44.5737067 117.34744,29.1348249 C104.112978,19.0975714 93.9053081,14.9593391 87.3377507,13.6637099 Z M80.8197004,13.3470164 C80.6188796,13.3854542 80.4331468,13.4296516 80.2626489,13.4788763 L80.030713,12.9968793 C80.0946124,12.9511716 80.3577297,12.7712232 80.8284045,12.5360159 C80.8150312,12.6273835 80.8078124,12.7264465 80.8078124,12.8340792 C80.8078124,12.935071 80.8120105,13.1104636 80.8197004,13.3470164 Z M90.4694591,183.730832 C90.8577918,183.730832 91.2719554,183.810062 91.7078257,183.970691 C92.4789558,184.256134 93.0471283,184.823764 93.3501537,185.611717 C93.8106611,186.805585 93.5986953,188.29792 93.1521887,189.156419 C93.0992244,189.25627 93.0462601,189.363718 92.9898227,189.476593 C92.3997264,190.662863 91.411855,192.650111 88.6900534,191.684163 C87.9685231,191.429109 87.463517,190.99389 87.189253,190.390444 C86.5651857,189.013155 87.3058179,187.151806 87.7030503,186.151128 L87.812452,185.874368 C88.3466536,184.469945 89.2836228,183.730832 90.4694591,183.730832 Z M96.1932957,168.998503 C96.5057634,168.998503 96.8355965,169.035405 97.1806244,169.111378 C98.1315943,169.318677 98.8913284,169.889563 99.3772326,170.763257 C100.117865,172.094962 100.115694,173.891191 99.7308346,174.977611 C99.6854676,175.106765 99.6387982,175.244603 99.5908264,175.387867 C99.0932006,176.883458 98.2516323,179.379727 94.8989259,178.703564 C94.0106882,178.523398 93.3472233,178.095776 92.9288269,177.435893 C91.9651585,175.91751 92.5345249,173.588383 92.8392868,172.338077 L92.9232917,171.99077 C93.3633948,170.050192 94.5321914,168.998503 96.1932957,168.998503 Z M100.1552,151.142582 C100.307798,151.142582 100.464195,151.148009 100.623197,151.159947 C101.797637,151.248945 102.804936,151.805721 103.532869,152.770584 C104.638065,154.233614 104.944672,156.444441 104.671168,157.782658 C104.637306,157.946543 104.605505,158.121282 104.571534,158.304704 C104.202738,160.310402 103.656598,163.337399 99.4967279,163.088858 C98.4042303,163.022652 97.5401956,162.624335 96.9283926,161.906929 C95.5149617,160.246367 95.8061569,157.334415 95.9630962,155.770448 C95.978725,155.606562 95.9940283,155.458957 96.0046645,155.331973 C96.230197,152.646855 97.7330596,151.142582 100.1552,151.142582 Z M102.150696,133.420157 C103.270001,133.420157 104.291735,133.851035 105.119737,134.675889 C106.483568,136.034727 107.125869,138.291138 107.036872,139.723779 C107.026235,139.899603 107.019072,140.087366 107.010606,140.282726 C106.919438,142.42192 106.782469,145.656217 102.434837,146.000268 C101.290134,146.092521 100.334063,145.804907 99.5942995,145.147195 C97.882293,143.627727 97.7593246,140.55406 97.6940961,138.902181 C97.6872584,138.728527 97.6813976,138.572239 97.6736918,138.439828 C97.5062247,135.437793 99.0325304,133.611176 101.862431,133.428839 C101.960003,133.422327 102.055404,133.420157 102.150696,133.420157 Z M100.855567,114.105546 C101.815762,114.105546 102.731567,114.42789 103.541335,115.05847 C105.120605,116.289239 106.068102,118.534796 106.1571,120.022789 C106.169038,120.206211 106.184667,120.400485 106.200838,120.604528 C106.378508,122.822952 106.646802,126.17555 102.207134,127.081804 C101.037903,127.320577 100.016929,127.145839 99.1702594,126.561929 C97.2124246,125.210687 96.6965652,122.052364 96.4201305,120.355987 C96.3899582,120.177992 96.3636932,120.018448 96.3391646,119.881696 C95.7862953,116.808029 97.1289624,114.730699 100.024635,114.18369 C100.304434,114.131594 100.581194,114.105546 100.855567,114.105546 Z M95.6951272,95.1698253 C96.5298578,95.1698253 97.3493938,95.4110952 98.1146631,95.8871228 C99.8812619,96.9881946 101.104868,99.2071607 101.358836,100.735963 C101.390636,100.924268 101.427863,101.123861 101.46737,101.332028 C101.892169,103.607432 102.53447,107.044903 98.0438993,108.463109 C96.863164,108.836247 95.7892257,108.767871 94.8522565,108.25657 C92.682456,107.073773 91.8039863,103.862703 91.3333853,102.137129 C91.2834599,101.955336 91.2388527,101.792536 91.1977185,101.652962 C90.66699,99.82146 90.37319,96.5697982 94.3867566,95.3661623 C94.8239293,95.2351625 95.2614275,95.1698253 95.6951272,95.1698253 Z M80.3134426,34.4809651 C81.8317169,34.4809651 91.5686858,43.2429782 94.7301564,59.0010567 C97.4948287,72.7792683 88.0659861,82.5875437 87.9701511,82.6838129 L87.6479153,83.0127777 L87.5164813,82.572349 C86.4629472,79.0276469 86.9886832,74.8122081 87.5466536,70.3512667 C88.0731493,66.1358279 88.6166848,61.7784274 87.877355,57.6290855 C86.3307535,48.9519456 82.9942185,41.8765422 81.2021144,38.0745073 C80.3007442,36.1623651 79.9022094,35.2983304 79.9166443,34.8697319 C79.9234819,34.6548357 80.0709789,34.5005011 80.2851153,34.4822675 C80.2944492,34.4809651 80.3041087,34.4809651 80.3134426,34.4809651 Z M97.4587956,1.31554467 C102.62553,1.31554467 109.224797,2.06553244 117.601408,4.11875719 C151.663543,12.4618095 155.992941,35.1550663 156.033099,35.3832036 L155.543613,35.5871379 C155.428568,35.4230353 143.685249,19.1714552 119.2967,11.6346761 C103.715097,6.81894977 93.938622,5.88030917 88.4929567,5.91931609 C82.5892803,5.97485265 80.3410101,7.18271044 80.3202802,7.194584 L79.9628796,6.80622965 C80.1650774,6.50437645 83.862486,1.31554467 97.4587956,1.31554467 Z" id="path16" fill="#231F20" fill-rule="nonzero"></path>
                            <path d="M58.0700569,108.204908 C62.732762,109.677382 64.0220307,103.478603 64.5735976,101.577097 C65.126467,99.6756996 65.249761,96.7299935 61.5680896,95.6255572 C57.8865268,94.5212295 55.3091833,98.5712633 54.9408208,100.780461 C54.5723497,102.989334 53.4077859,106.732435 58.0700569,108.204908 Z M53.8801235,126.815897 C58.4812901,127.754711 59.0897285,121.705057 59.4262907,119.832856 C59.7629615,117.961739 59.5852922,115.135528 55.9578876,114.450682 C52.3300489,113.765836 50.2751853,117.892278 50.1453793,120.040154 C50.0152477,122.18586 49.2788483,125.877083 53.8801235,126.815897 Z M53.6188835,145.730019 C58.1154239,146.086009 57.9873544,140.24691 58.0891588,138.423548 C58.1908546,136.601272 57.690624,133.928093 54.1522168,133.699088 C50.6143523,133.471167 49.1389487,137.645364 49.2661499,139.706414 C49.3933511,141.768549 49.1236455,145.37403 53.6188835,145.730019 Z M56.5192226,162.818609 C60.795223,162.559214 59.9028611,157.083702 59.7574263,155.354765 C59.6115573,153.625827 58.7882227,151.177313 55.4296554,151.430196 C52.070654,151.683079 51.2346209,155.805179 51.6271863,157.728391 C52.0197518,159.650518 52.2423539,163.078004 56.5192226,162.818609 Z M61.0796892,178.437657 C64.4993608,177.743043 63.1588642,173.428838 62.8459623,172.050464 C62.5321922,170.673174 61.5902305,168.791205 58.9098886,169.3762 C56.2296554,169.96011 56.0232248,173.379998 56.5573178,174.886443 C57.0919535,176.392887 57.6601261,179.132271 61.0796892,178.437657 Z M67.2525285,191.429109 C69.9854005,190.463162 68.3832299,187.068236 67.96657,185.970963 C67.5493675,184.87369 66.5568292,183.434536 64.4196972,184.225745 C62.2821311,185.016954 62.5076636,187.852932 63.1210946,189.03052 C63.7353939,190.208108 64.5193309,192.395057 67.2525285,191.429109 Z M68.2557031,82.4951818 C70.2809371,75.6825378 66.356802,66.1718611 67.8881003,57.5812223 C70.0968643,45.1868121 75.8877745,36.1654041 75.8457721,34.8781975 C75.8038782,33.5889287 64.9419601,42.241106 61.5680896,59.054021 C58.7992931,72.8517686 68.2557031,82.4951818 68.2557031,82.4951818 Z M56.045257,91.7599217 C56.045257,91.7599217 49.9698807,67.7673026 54.9408208,53.1627174 C59.9113267,38.5598688 75.8457721,28.0049601 75.8457721,28.0049601 C75.8457721,28.0049601 54.5723497,27.8214618 47.7611167,55.37159 C41.6136742,80.2355156 56.045257,91.7599217 56.045257,91.7599217 Z M75.9878424,20.6408895 C75.9878424,20.6408895 60.0948567,21.9301582 43.0979775,45.3703421 C27.8808296,66.3563679 28.3700983,87.7103221 28.3700983,87.7103221 C28.3700983,87.7103221 19.6572509,67.9503985 40.5211766,39.4803409 C59.133359,14.0788492 75.9878424,20.6408895 75.9878424,20.6408895 Z M75.8457721,13.2173108 C75.8457721,13.2173108 63.8376324,9.72010286 38.5204712,28.9177581 C17.8648212,44.5814125 10.2000269,63.6666922 10.2000269,63.6666922 C10.2000269,63.6666922 8.77001199,42.1185717 38.1134708,22.4999587 C64.2911936,4.9980517 75.8457721,13.2173108 75.8457721,13.2173108 Z M75.8457721,6.95801366 C75.8457721,6.95801366 67.0122355,1.99472522 36.6549984,11.3764751 C11.8865823,19.0302532 0.267094282,35.4297644 0.267094282,35.4297644 C0.267094282,35.4297644 4.21160755,12.7798125 38.4955085,4.38161433 C69.0819682,-3.11270647 75.8457721,6.95801366 75.8457721,6.95801366 Z" id="path22" fill="#231F20"></path>
                            <path d="M66.0005953,191.397635 C64.6032273,191.397635 64.0173638,190.218961 63.528095,189.234563 C63.4704638,189.118432 63.4153288,189.007728 63.3619303,188.904622 C62.9798926,188.174191 62.7899591,186.83923 63.1876256,185.805992 C63.4373611,185.159133 63.883325,184.71306 64.5137957,184.479713 C66.3957655,183.781843 67.2924688,184.958346 67.7130359,186.067557 L67.8244997,186.35083 C68.1932964,187.27662 68.8797704,188.999046 68.3502357,190.16578 C68.1360992,190.636815 67.7477666,190.966757 67.1619031,191.17297 C66.7218,191.329259 66.3381343,191.397635 66.0005953,191.397635 Z M65.5635311,183.730832 C65.1756326,183.730832 64.7613605,183.810062 64.3251646,183.970691 C63.5534918,184.256134 62.9854278,184.823764 62.6822939,185.611717 C62.2218951,186.805585 62.4338609,188.29792 62.8802589,189.155334 C62.9328976,189.25627 62.9867302,189.363718 63.0426249,189.476593 C63.6315274,190.662863 64.6180963,192.649025 67.3432625,191.684163 C68.0649013,191.429109 68.5693647,190.99389 68.8437373,190.389359 C69.4682387,189.01207 68.7266297,187.150721 68.3286376,186.150043 L68.21967,185.874368 C67.6866623,184.469945 66.7493675,183.730832 65.5635311,183.730832 Z M60.0516604,178.278112 C57.9759584,178.278112 57.41636,176.5991 56.9550929,175.215299 C56.9062528,175.068779 56.8592578,174.9266 56.8125885,174.795274 C56.4763519,173.848863 56.4734215,172.205667 57.1297232,171.026993 C57.543127,170.282454 58.161225,169.816846 58.967954,169.641021 C61.3739233,169.11572 62.2599903,170.694881 62.5813578,172.111242 L62.6674248,172.469403 C62.9531934,173.641564 63.4853328,175.824171 62.6458267,177.146109 C62.3041634,177.684435 61.7741946,178.019803 61.0254224,178.17175 C60.668456,178.244467 60.3445922,178.278112 60.0516604,178.278112 Z M59.8388263,168.998503 C59.5263586,168.998503 59.1973937,169.035405 58.8522574,169.111378 C57.9008533,169.318677 57.1411192,169.889563 56.6553235,170.763257 C55.9142572,172.094962 55.9163193,173.891191 56.3017216,174.977611 C56.3475227,175.10568 56.3928896,175.242432 56.441187,175.386782 C56.9393555,176.882372 57.7749545,179.389495 61.1336303,178.703564 C62.0213253,178.523398 62.6844646,178.096862 63.1037293,177.435893 C64.0665294,175.919681 63.4988995,173.591639 63.1944632,172.340248 L63.1104583,171.99077 C62.6682931,170.050192 61.4986282,168.998503 59.8388263,168.998503 Z M56.0779256,162.561385 C52.7959829,162.561385 52.33515,160.056433 51.994355,158.207024 C51.9599499,158.020346 51.9268472,157.841266 51.8925506,157.674124 C51.6428152,156.452038 51.9226144,154.432231 52.9320839,153.096184 C53.5735165,152.247452 54.42062,151.778588 55.449517,151.700444 C58.5168891,151.472524 59.3355568,153.572646 59.4873951,155.377557 C59.4983569,155.506712 59.513226,155.657573 59.5301572,155.824715 C59.6785225,157.308367 59.954523,160.070543 58.6911938,161.55528 C58.1790245,162.156555 57.4426251,162.490838 56.5027255,162.548361 C56.3564224,162.557044 56.2147863,162.561385 56.0779256,162.561385 Z M55.8773558,151.142582 C55.7247578,151.142582 55.5686867,151.148009 55.4092511,151.159947 C54.2344851,151.248945 53.2284887,151.805721 52.5001208,152.769498 C51.393948,154.232529 51.0883178,156.444441 51.3612794,157.782658 C51.3948162,157.947629 51.4274848,158.122368 51.4609131,158.305789 C51.8302524,160.310402 52.3673844,163.326546 56.5352855,163.088858 C57.6283258,163.022652 58.4927946,162.62542 59.104055,161.906929 C60.5171603,160.246367 60.2258566,157.334415 60.069894,155.770448 C60.0532884,155.606562 60.0385279,155.458957 60.0278916,155.331973 C59.8014908,152.646855 58.2981942,151.142582 55.8773558,151.142582 Z M53.6188835,145.730019 L53.6404816,145.459771 C49.7719157,145.153707 49.6518777,142.325325 49.5646169,140.259934 C49.5561513,140.060233 49.5476856,139.869214 49.5370494,139.690134 C49.4560834,138.376879 50.0445517,136.307146 51.2960508,135.059012 C52.0922521,134.265632 53.0546181,133.896619 54.1348514,133.970421 C57.372621,134.178805 57.9250562,136.49925 57.8186934,138.408354 C57.8109876,138.545106 57.8046926,138.703565 57.797855,138.880474 C57.7346886,140.452038 57.6181236,143.374844 56.0786853,144.74128 C55.4538583,145.295886 54.6389893,145.535745 53.6404816,145.459771 L53.6188835,145.730019 Z M53.8817515,133.420157 C52.7621205,133.420157 51.7411464,133.851035 50.9132534,134.675889 C49.5488795,136.034727 48.9074469,138.291138 48.9952504,139.723779 C49.0062123,139.899603 49.0142438,140.087366 49.0223838,140.282726 C49.1131178,142.42192 49.2499784,145.656217 53.5981536,146.000268 C54.7428558,146.092521 55.6992524,145.802737 56.4386908,145.147195 C58.1505887,143.627727 58.2731229,140.55406 58.3392198,138.902181 C58.3464916,138.728527 58.3524609,138.572239 58.3600582,138.439828 C58.5275253,135.437793 57.0004598,133.611176 54.1695821,133.428839 C54.0734215,133.422327 53.9775865,133.420157 53.8817515,133.420157 Z M53.9339561,126.551075 C49.9652138,125.740331 50.2005143,122.797989 50.3722142,120.649027 C50.3888198,120.440643 50.4044486,120.243112 50.4159532,120.055349 C50.4985471,118.685657 51.3714816,116.61918 52.825287,115.485006 C53.752054,114.764344 54.789091,114.504949 55.9074196,114.717675 C59.235489,115.346083 59.5127919,117.81956 59.1591899,119.785101 C59.1342273,119.925109 59.1078536,120.088994 59.0773557,120.270245 C58.813728,121.887394 58.3214203,124.897026 56.5535191,126.115856 C55.8337254,126.611854 54.9548216,126.758374 53.9339561,126.551075 Z M55.1765554,114.105546 C54.2162515,114.105546 53.3013146,114.42789 52.4924149,115.057384 C50.9128192,116.288153 49.9643455,118.53371 49.8744798,120.022789 C49.863518,120.206211 49.8477806,120.401571 49.8317177,120.605614 C49.6544825,122.824037 49.3865135,126.17555 53.8258567,127.081804 C54.9950875,127.320577 56.0155189,127.144753 56.86132,126.563014 C58.8187205,125.211773 59.3355568,122.054535 59.6128597,120.358157 C59.6420552,120.179077 59.6684288,120.018448 59.6933915,119.881696 C60.0176895,118.074614 59.9711286,114.932571 56.0083557,114.18369 C55.7285565,114.131594 55.4503853,114.105546 55.1765554,114.105546 Z M58.1518911,107.946273 C54.1204165,106.673067 54.6859843,103.644767 55.098954,101.434267 C55.1379175,101.220999 55.1761213,101.017498 55.2083557,100.825069 C55.4436562,99.4128316 56.5743576,97.3633947 58.2057237,96.3471961 C59.2474276,95.6989258 60.3530578,95.5429633 61.4905968,95.8854948 C64.8775998,96.9012593 64.8949651,99.500201 64.3132259,101.501232 C64.2722003,101.643302 64.2271589,101.808599 64.1767994,101.992563 C63.7269283,103.640101 62.8887245,106.707473 60.9203621,107.780109 C60.1186255,108.216304 59.1863233,108.273176 58.1518911,107.946273 Z M60.337429,95.1698253 C59.5025897,95.1698253 58.683922,95.410661 57.9190869,95.8871228 C56.1529222,96.9873263 54.9281224,99.2067266 54.6732858,100.735963 C54.6419197,100.924702 54.60415,101.125164 54.5656207,101.334633 C54.1412549,103.6083 53.4993882,107.045771 57.9886568,108.463109 C59.1702604,108.836247 60.2440902,108.766786 61.179757,108.25657 C63.3508599,107.072471 64.2280272,103.860966 64.6999305,102.135936 C64.7490962,101.954468 64.7935949,101.791668 64.8338608,101.652962 C65.3664344,99.8218941 65.6602344,96.5701238 61.6461252,95.3661623 C61.2094951,95.2351625 60.7715627,95.1698253 60.337429,95.1698253 Z M68.1251374,81.9469794 C66.4987638,80.0845455 59.4195617,71.1394366 61.8344307,59.107528 C64.8885617,43.8857132 73.9791055,35.6706001 75.5494758,35.0596654 C75.4345389,35.5231032 74.9419056,36.566001 74.3407389,37.8425713 C72.5372387,41.6657702 69.1798653,48.7844785 67.6209995,57.5345529 C66.8672348,61.7631242 67.4166311,66.1629613 67.9479022,70.4174721 C68.4732041,74.6222746 68.9700702,78.6053433 68.1251374,81.9469794 Z M75.719005,34.4809651 C74.2025758,34.4809651 64.4646301,43.2429782 61.3022912,59.0010567 C58.5377275,72.7792683 67.96657,82.5875437 68.0622965,82.6838129 L68.3845323,83.0127777 L68.5155321,82.572349 C69.5695004,79.0263445 69.0433303,74.8122081 68.4863366,70.3503985 C67.9592983,66.1350682 67.4157628,61.777125 68.1552011,57.6290855 C69.7013685,48.9507517 73.0387717,41.8752398 74.83131,38.073639 C75.7325717,36.1611713 76.1306724,35.2983304 76.1162374,34.8697319 C76.1095083,34.6548357 75.9620114,34.5005011 75.7483091,34.4822675 C75.7394093,34.4809651 75.7292072,34.4809651 75.719005,34.4809651 Z M55.579323,90.9739226 C54.4235504,89.863517 51.905249,87.1336839 49.8299811,82.7456769 C47.2658786,77.3258426 44.871848,68.1874355 48.0243103,55.4368186 C51.5151798,41.3156413 58.8904612,34.6848994 64.4628935,31.6090618 C69.0123982,29.0967297 73.1346068,28.4781976 74.9152064,28.3259252 C71.639233,30.6814264 58.9938935,40.4134029 54.6843563,53.0762163 C52.1002836,60.666828 52.5373478,70.8027658 53.3594886,77.9694459 C54.0543196,84.0264801 55.1336847,89.0419188 55.579323,90.9739226 Z M75.8437099,27.7336582 C75.4329109,27.7336582 54.2502225,27.9952238 47.4978146,55.3075553 C44.3032413,68.2285697 46.7431816,77.5013412 49.3530852,83.0064828 C52.1867847,88.9834193 55.7268199,91.8523922 55.8760534,91.9718875 L56.5056559,92.474723 L56.308125,91.6933907 C56.247889,91.4534233 50.3094819,67.6107974 55.1972853,53.2496527 C60.0800962,38.9050051 75.8364382,28.3356932 75.9954397,28.2318267 L76.7340097,27.7413641 L75.8479428,27.7336582 C75.8475086,27.7336582 75.8457721,27.7336582 75.8437099,27.7336582 Z M28.1330613,86.17338 C26.6623247,81.1558791 23.3647532,63.3499916 40.7398715,39.639668 C56.2368186,18.4909506 70.6272673,19.6890512 74.7303739,20.5789169 C70.6476715,21.4387188 57.0534242,25.6626232 42.8787399,45.2117747 C30.1158587,62.8124255 28.365757,80.8790103 28.1330613,86.17338 Z M70.8223019,19.6500877 C64.3306998,19.6500877 52.6327487,22.4913846 40.301939,39.3196029 C19.586053,67.5891992 28.0342959,87.6200222 28.1219909,87.8188555 L28.6409978,87.7034844 C28.6363309,87.4910845 28.333197,66.1943275 43.3175406,45.5297777 C60.0312561,22.4804227 75.8521756,20.9240532 76.0098746,20.9113548 L76.0861737,20.3889833 C76.0289765,20.3660828 74.0812354,19.6500877 70.8223019,19.6500877 Z M10.4900065,62.3490963 C10.7592237,57.4128869 13.4928772,39.2878026 38.2640066,22.7259254 C58.7686866,9.01590535 70.2907051,11.2094421 74.1796753,12.7060097 C70.0142704,12.4457465 58.3727566,13.5255457 38.3563686,28.7015595 C20.8549174,41.9731369 12.575444,57.883922 10.4900065,62.3490963 Z M67.3610619,10.9682808 C61.1852922,10.9682808 51.5504532,13.1901774 37.9629349,22.2743177 C8.82639511,41.7548762 9.91470332,63.4670992 9.92953984,63.68536 L10.4514337,63.7676283 C10.5281669,63.5776948 18.3307552,44.5669776 38.6841396,29.1348249 C63.6061305,10.2347901 75.6516058,13.4420835 75.7699072,13.4788763 L76.003037,12.9968793 C75.77414,12.8340792 73.0188016,10.9682808 67.3610619,10.9682808 Z M0.85215681,34.2380672 C2.29403874,29.4070268 9.46487563,11.7716453 38.5598688,4.64404818 C63.0617268,-1.35793783 72.2230344,4.02888065 74.79061,6.25381615 C71.5299399,5.2430985 61.0568971,3.55022647 36.5749007,11.118274 C15.5961467,17.6010849 3.89788079,30.5000671 0.85215681,34.2380672 Z M58.5745203,1.31554467 C53.4069177,1.31554467 46.8105808,2.06425175 38.4310396,4.11875719 C20.6459905,8.47408472 11.1475781,16.7302126 6.31190325,22.8874231 C1.05820103,29.5766646 0.0101750099,35.326332 0,35.3832036 L0.48797611,35.5871379 C0.604141621,35.4230353 12.3478494,19.1714552 36.7352046,11.6346761 C52.319087,6.81894977 62.0735299,5.87183271 67.5404677,5.91931609 C73.4444697,5.97485265 75.6914375,7.18271044 75.7134698,7.194584 L76.0708704,6.80622965 C75.8673702,6.50437645 72.168008,1.31554467 58.5745203,1.31554467 Z" id="path24" fill="#231F20" fill-rule="nonzero"></path>
                            <path d="M81.0829447,31.9401973 C81.0829447,31.9401973 80.8434114,179.671682 80.1485803,187.901773 C79.5096439,195.474151 78.2869062,200.154112 78.2869062,200.154112 C78.2869062,200.154112 77.1261411,195.474151 76.4867706,187.901773 C75.7928078,179.671682 75.8462062,32.364563 75.8462062,32.364563 L81.0829447,31.9401973" id="path26" fill="#8A9889" fill-rule="nonzero"></path>
                            <g id="g28" transform="translate(75.756341, 31.908831)">
                                <g id="g30-Clipped">
                                    <mask id="mask-2" fill="white">
                                        <use xlink:href="#path-1"></use>
                                    </mask>
                                    <g id="path32"></g>
                                    <g id="g30" mask="url(#mask-2)" fill="#231F20" fill-rule="nonzero">
                                        <g transform="translate(2.279202, 5.426672)" id="path36">
                                            <polyline points="0.231935959 0.0945326255 0.0796635443 162.958618 0.411667335 162.958618 0.563831216 0.0945326255 0.231935959 0.0945326255"></polyline>
                                        </g>
                                    </g>
                                </g>
                            </g>
                            <path d="M76.1655116,32.6600996 L80.7633137,32.2865275 C80.7506153,40.2888065 80.5004457,179.945186 79.8301432,187.874639 C79.4011105,192.965943 78.6998759,196.771125 78.2946121,198.687826 C77.9070392,196.77004 77.2342404,192.964857 76.8047736,187.874639 C76.134471,179.926735 76.1629068,40.0619716 76.1655116,32.6600996 Z M81.4030098,31.5950609 L75.5274435,32.0703289 L75.5274435,32.364563 C75.5265752,33.8386642 75.4816424,179.77913 76.1688761,187.928906 C76.8027114,195.43942 77.9659728,200.183417 77.9779115,200.231171 L78.5955753,200.234427 C78.6082737,200.187758 79.832748,195.441591 80.4661491,187.928906 C81.1541426,179.780215 81.4000794,33.4185312 81.40225,31.9401973 L81.4030098,31.5950609 Z" id="path38" fill="#231F20" fill-rule="nonzero"></path>
                            <path d="M82.3984785,9.59884931 C82.3984785,9.59884931 82.4451479,10.8978426 82.2734479,11.1853477 C82.1004456,11.4752405 81.2326123,11.5893092 81.0304145,12.4715775 C80.8269143,13.3529776 81.5857801,26.0815622 81.5857801,26.0815622 L81.343642,31.7816299 L74.2084366,33.2370633 C74.2084366,33.2370633 73.9481734,16.5415815 74.1754425,15.5042188 C74.4026029,14.4663136 74.8991434,14.1483106 74.8991434,14.1483106 L77.7633409,8.61102136 L82.1695814,8.64791187 L82.3984785,9.59884931" id="path40" fill="#231F20" fill-rule="nonzero"></path>
                            <g id="g42" transform="translate(74.019806, 8.574142)">
                                <g id="g44-Clipped">
                                    <mask id="mask-4" fill="white">
                                        <use xlink:href="#path-3"></use>
                                    </mask>
                                    <g id="path46"></g>
                                    <g id="g44" mask="url(#mask-4)" fill="#D29908" fill-rule="nonzero">
                                        <g transform="translate(-1.302401, 4.232804)" id="path50">
                                            <path d="M5.69843969,0.00759734074 L5.66370899,0.64566543 C6.01600853,0.665201449 7.02536952,0.777099424 7.45950327,1.06243384 C8.05101052,1.45120061 8.36554042,1.70093606 8.50674243,1.82010577 L8.49057094,3.26783332 C8.01834195,2.83923477 7.24330466,2.33563961 6.11607636,2.18043679 C4.22607505,1.92093334 1.18247182,1.6030389 1.15143126,1.59956583 L0.79999998,1.56266446 L0.796635443,4.74074062 L1.12136749,4.73520542 C1.15913713,4.73650782 5.10020337,4.67334136 6.77910714,4.93957388 C8.12513886,5.15403596 8.56524195,6.02697041 8.65087483,6.23513755 L8.6488127,6.95721052 C8.31170784,6.65407662 7.80377134,6.36526914 7.05000661,6.24490556 C5.38380125,5.97910716 1.10866908,6.32337523 0.925898769,6.33737605 L0.632532883,6.36103634 L0.634269418,9.36860647 L0.997964973,9.31857255 C1.04289782,9.31227761 5.46313919,8.69374554 6.78377408,9.01587279 C7.76263717,9.25464636 8.44183943,9.51621194 8.74074052,9.64211073 L8.78947204,10.793542 C8.09843963,10.616741 6.69521079,10.275946 5.61063614,10.1338757 C4.11406854,9.93721316 0.887803532,10.6104461 0.750834332,10.6375794 L0.483299405,10.6947766 L0.627431812,13.3822816 L0.973002282,13.3322477 C1.01033779,13.3258442 4.70253685,12.8014106 6.68120998,12.9167817 C8.01834195,12.9968793 8.73650772,13.1583771 9.04940962,13.2486769 L8.98873943,14.8677788 C8.27437233,14.6282455 6.75327618,14.1843437 5.19820907,14.1483106 C3.11784011,14.1127116 0.181902044,14.5803822 0.0571971224,14.5999182 L0.16062949,15.2294122 C0.190801786,15.2251794 3.16440095,14.735585 5.18333999,14.7863787 C7.16027658,14.8321798 9.15533826,15.6050464 9.17574255,15.6114499 L9.59413895,15.7763122 L9.70310653,12.8230088 L9.51154501,12.7331431 C9.4394788,12.700583 8.75050853,12.4021161 6.71930522,12.2803416 C5.02260196,12.1744129 2.20887255,12.5216114 1.22740466,12.6526113 L1.15023739,11.2094421 C1.95577257,11.051743 4.36933919,10.6222762 5.52804219,10.7664086 C6.95080704,10.9534117 9.02184213,11.5143126 9.04300615,11.5198478 L9.46357323,11.6338079 L9.36231153,9.22664473 L9.19061163,9.14263985 C9.15620653,9.1278793 8.34904334,8.74030639 6.93474409,8.39734072 C5.72090611,8.09681163 2.3881698,8.49274161 1.27233751,8.63817642 L1.27103511,6.95167531 C2.27746569,6.87874084 5.59967426,6.6637361 6.95037291,6.87581044 C8.35837722,7.09917226 8.64664203,8.01410915 8.65803804,8.05307265 L9.28340772,7.96613737 L9.28894292,6.12660411 L9.27287997,6.07787259 C9.25421222,6.01807067 8.77677362,4.6105005 6.87874084,4.3099714 C5.41603568,4.07640744 2.42930397,4.08736932 1.4355718,4.09290452 L1.4371998,2.27160488 C2.2940713,2.36277297 4.52953455,2.60697321 6.02914108,2.81210141 C7.75210942,3.04870431 8.49957922,4.21967158 8.53007712,4.2697055 L9.10877741,5.19983707 L9.14687265,1.55213671 L9.0558131,1.45760409 C9.02477253,1.42699766 8.73140665,1.13406591 7.80930655,0.528666382 C7.15387311,0.0987654296 5.84506837,0.016062949 5.69843969,0.00759734074"></path>
                                        </g>
                                    </g>
                                </g>
                            </g>
                            <path d="M74.3204431,33.0984661 C74.2962402,31.4933651 74.0758088,16.4915475 74.2864722,15.5278791 C74.4993062,14.5587841 74.9563405,14.2471846 74.9614416,14.2437115 L74.9859702,14.2276485 L77.8324767,8.72591485 L82.0797158,8.76068897 L82.284844,9.61368583 C82.3023178,10.1046368 82.2874488,10.9402792 82.1758764,11.128042 C82.1335483,11.1984803 82.0021144,11.2734769 81.8635172,11.3528148 C81.5259782,11.5448105 81.0651452,11.809415 80.9188421,12.4466148 C80.7145822,13.3322477 81.4403453,25.5672223 81.4721456,26.0882913 L81.2339147,31.6875314 L74.3204431,33.0984661 Z M77.6946392,8.49698527 L74.8104716,14.0724457 C74.6977054,14.1572103 74.2711689,14.5350152 74.0638701,15.4791476 C73.8367096,16.5186809 74.0842744,32.5566672 74.0948021,33.2396681 L74.0969728,33.3762032 L81.453912,31.8761625 L81.4572765,31.7871651 L81.6989805,26.0869889 C81.4374149,21.6773838 80.983311,13.1812777 81.1414442,12.4966487 C81.265715,11.9573461 81.660017,11.7313794 81.9767175,11.5503457 C82.1491772,11.4524485 82.2988448,11.3655132 82.370911,11.2442814 C82.5554178,10.9360464 82.5172141,9.73112986 82.5116788,9.59418237 L82.5100508,9.57171595 L82.2598813,8.53386493 L82.1708838,8.53301837 L77.6946392,8.49698527 Z" id="path52" fill="#231F20" fill-rule="nonzero"></path>
                            <path d="M79.6435742,0.114044767 C80.9952496,0.139058469 81.1067135,1.82768141 81.1067135,1.82768141 L80.6526096,3.89957391 C80.6526096,3.89957391 82.2755101,5.0056816 82.288317,5.32365202 C82.3010154,5.64162243 82.1216097,6.37082605 82.1216097,6.37082605 C82.1216097,6.37082605 86.6304143,6.74094679 89.6143242,10.2063869 C92.5981255,13.6709805 92.5133609,21.5743856 92.0210532,24.6782249 C91.5292882,27.7823898 89.9373197,30.6551614 87.461889,31.9630978 C84.9846133,33.2719026 82.5922107,33.8700304 81.6671802,33.7234017 C80.7429094,33.5770986 80.4991433,32.9398988 80.4991433,32.9398988 C80.4991433,32.9398988 79.615247,40.3028073 78.6133748,40.4600722 C77.6120453,40.6173372 75.9136055,33.8221671 75.9136055,33.8221671 C75.9136055,33.8221671 73.2380391,33.9967974 71.9916411,34.9019663 C70.7447004,35.8075693 70.6523385,37.5915335 70.6523385,37.5915335 C70.6523385,37.5915335 71.8419735,37.624202 72.3888735,38.5607371 C72.9353394,39.4977062 71.6163325,40.6444706 70.7057369,40.6262369 C69.7950329,40.6088716 68.503702,38.6065382 68.6847358,37.4678053 C68.864033,36.3302664 71.4968372,34.0363036 71.4968372,34.0363036 C71.4968372,34.0363036 70.6434387,34.0579017 70.7255986,33.5355303 C70.808301,33.0148954 73.6700022,30.2841941 74.2568425,29.5558262 C74.8435743,28.8274582 80.7068763,21.8750232 82.021976,20.1307823 C83.3383781,18.3853475 87.0802854,16.2668833 87.0802854,16.2668833 C87.0802854,16.2668833 87.67125,13.3335501 86.5066862,11.730077 C85.3415797,10.1271033 84.3644532,8.93238887 84.1189505,8.89338195 C83.8717114,8.85395175 83.3608445,9.68787929 82.3468166,9.52592569 C81.332246,9.36652263 79.7733802,9.05618211 79.7733802,9.05618211 C79.7733802,9.05618211 77.8705719,9.13291525 77.4241739,10.3551971 C76.9777759,11.577479 76.1197105,12.8256136 75.6847085,13.57851 C75.2492723,14.3306468 74.2597729,15.2133492 74.2597729,15.2133492 C74.2597729,15.2133492 75.3366417,9.39238614 75.6402097,8.27440489 C75.9437778,7.15769349 76.2425703,7.04831349 75.7894432,6.53362621 C75.3366417,6.02021963 74.9681707,5.55470886 75.0758359,4.87637486 C75.1827413,4.19804087 77.5912069,3.13220993 77.5912069,3.13220993 C77.5912069,3.13220993 77.8036068,1.20785779 77.9474136,0.884378217 C78.0906777,0.562169569 78.2920073,0.0898792543 79.6435742,0.114044767 Z M86.5723489,17.4794189 C86.5723489,17.4794189 84.4915458,20.6777908 83.2930111,22.664821 C82.0932824,24.6510915 80.8743434,26.9790252 80.4906777,28.2110968 C80.1057096,29.4430599 79.9840436,31.4051274 79.9335755,30.926495 C79.8831075,30.4469942 79.3939473,28.3530586 79.1128457,27.5514306 C78.8321782,26.7479575 78.4637072,26.2824576 78.4637072,26.2824576 C78.4637072,26.2824576 82.844985,20.9219911 83.935312,19.8018174 C85.0270498,18.6830547 86.5723489,17.4794189 86.5723489,17.4794189 Z M76.7577786,28.091493 L76.0904065,32.3047611 C76.0904065,32.3047611 74.6892398,32.778401 74.3983701,32.0369006 C74.1080432,31.296594 76.7577786,28.091493 76.7577786,28.091493 Z M89.289158,15.4507119 C89.289158,15.4507119 90.7399245,21.4137561 89.967492,24.6977609 C89.1945168,27.9808974 87.9939199,29.3994295 86.9030503,30.5194946 C85.8121807,31.6387999 82.9030504,31.8732321 82.6032811,31.1935957 C82.3023178,30.5152618 83.2251777,26.2490293 84.7112175,23.6471572 C86.1971488,21.0436571 87.6420545,19.2854153 87.7828224,18.3942473 L88.085088,16.4894854 L89.289158,15.4507119 Z" id="path54" fill="#D29908"></path>
                            <path d="M75.2069443,32.3416625 C74.9033762,32.3416625 74.6100103,32.2637355 74.5044073,31.9957664 C74.3276063,31.5429649 75.5910441,29.730565 76.5783728,28.4933923 L75.9891448,32.2170661 C75.8530438,32.2560296 75.5244046,32.3416625 75.2069443,32.3416625 Z M76.9353393,27.6967569 L76.669975,28.0176903 C76.3944086,28.3521903 73.9859431,31.2987646 74.2924415,32.0780347 C74.6189101,32.9127654 76.0645755,32.434133 76.1273078,32.4132945 L76.1922108,32.3916964 L76.9353393,27.6967569 Z M78.6078396,26.2866904 C79.1217454,25.6570879 83.0089791,20.9164559 84.016712,19.8811554 C84.6891852,19.191751 85.5421495,18.4638172 86.0912202,18.0131864 C85.4298174,19.0365482 84.0709788,21.1542526 83.195548,22.6054532 C82.0881814,24.4395598 80.7874081,26.8738563 80.381276,28.17756 C80.1684419,28.8622975 80.0327751,29.7792965 79.9501812,30.3609272 C79.7818458,29.5384608 79.4413764,28.1448914 79.2205108,27.5119244 C78.9979088,26.876027 78.7232106,26.4494906 78.6078396,26.2866904 Z M86.5024534,17.3891191 C86.4862819,17.4022516 84.9380524,18.6101203 83.8534778,19.722588 C82.7724847,20.8328851 78.4192085,26.1552564 78.3751439,26.2095232 L78.3175126,26.2811552 L78.3738415,26.3528958 C78.3776402,26.3575628 78.7350408,26.8162251 79.0051805,27.5890917 C79.2892125,28.4001621 79.7720778,30.4805311 79.8203752,30.9384336 C79.8259104,30.9938942 79.8386088,31.1121957 79.9501812,31.1143663 C79.954414,31.1143663 79.9577785,31.1143663 79.9607089,31.1143663 C80.073041,31.1143663 80.0794445,31.0719298 80.1663798,30.4596926 C80.2469116,29.8911945 80.3825784,28.9394647 80.6000794,28.2445251 C80.9994824,26.9607916 82.2890768,24.5459226 83.3905826,22.7237547 C84.5742483,20.761253 86.6478882,17.5739515 86.6677498,17.5421512 L86.5024534,17.3891191 Z M88.1905825,16.5491788 L89.2213246,15.6601814 C89.453152,16.6857139 90.5384864,21.772025 89.8559196,24.6706275 C89.0970538,27.8973267 87.9409556,29.2900278 86.8212161,30.4402651 C86.0021143,31.2813993 84.1549837,31.5798663 83.2429772,31.4161978 C82.9547123,31.3639932 82.7596778,31.2652278 82.7071476,31.1477946 C82.4273484,30.5165642 83.3587823,26.2443624 84.809983,23.703486 C85.4136459,22.6465874 85.9987497,21.7469537 86.5164542,20.9511866 C87.265552,19.7975846 87.8082192,18.9640478 87.8951545,18.4124809 L88.1905825,16.5491788 Z M89.355689,15.243413 L87.9786167,16.4296835 L87.6703817,18.375688 C87.5911523,18.8805856 87.0598812,19.6975168 86.32435,20.8273499 C85.8063199,21.6252878 85.219154,22.528286 84.6128862,23.5907198 C83.1552821,26.1434263 82.1560148,30.4673985 82.4994146,31.2402651 C82.5863499,31.4364936 82.8224101,31.5721604 83.2027113,31.6396682 C84.1841791,31.817663 86.0996858,31.5073659 86.9844504,30.5988325 C88.1262222,29.4265628 89.3060892,28.0058601 90.0785217,24.724026 C90.8480238,21.4506574 89.4141885,15.4833804 89.3988853,15.4248809 L89.355689,15.243413 Z M79.6419462,0.228938266 L79.6435742,0.114044767 L79.6419462,0.228938266 C80.8086807,0.248439554 80.9761478,1.65853204 80.9909083,1.8213322 L80.5246486,3.94959697 L80.5882492,3.99284755 C81.3344166,4.50202132 82.1526502,5.15745476 82.1751167,5.32916552 C82.1865127,5.62635178 82.0127506,6.33733263 82.0118824,6.34369269 L81.9800821,6.47384599 L82.1123843,6.48360315 C82.156883,6.48827009 86.6105527,6.89187339 89.5286913,10.2801571 C92.4717926,13.700176 92.3954936,21.587084 91.9087211,24.6599912 C91.3864582,27.958431 89.704624,30.6496262 87.408382,31.8621617 C84.9888461,33.1416624 82.5935131,33.7560702 81.6854138,33.6118293 C80.8425431,33.4770308 80.6149485,32.9225334 80.6051805,32.8987646 L80.3855088,32.9267662 C80.0489466,35.7388676 79.2633815,40.2421371 78.5960094,40.3486084 C78.5884121,40.3494767 78.5803806,40.3494767 78.5726747,40.3494767 C77.9452429,40.3494767 76.7106751,36.54017 76.0243096,33.7941655 L76.0009749,33.7029974 L75.9060081,33.7080985 C75.795304,33.7156958 73.1833383,33.8959698 71.9245675,34.8099299 C70.6485398,35.7368055 70.5425026,37.5101334 70.5382698,37.5852385 L70.5323005,37.7013693 L70.6488654,37.7042997 C70.66037,37.7056021 71.7830399,37.7489069 72.2901081,38.6183683 C72.4999032,38.9775055 72.3786714,39.3336037 72.2403998,39.5702066 C71.9327075,40.0933378 71.2581721,40.5134707 70.7273351,40.5134707 C70.7209316,40.5134707 70.7146367,40.5134707 70.7077991,40.5134707 C70.4208367,40.5067416 70.0507376,40.2583086 69.6924688,39.8304698 C69.1629341,39.1979369 68.685604,38.1884674 68.7970679,37.4864731 C68.9678995,36.4018984 71.5455687,34.144837 71.5713996,34.1219365 L71.8093049,33.9153973 L71.4942324,33.9231032 C71.364969,33.9285299 71.0193986,33.8993344 70.8859024,33.7474961 C70.8409696,33.6954001 70.8252323,33.633536 70.8384733,33.554198 C70.8872048,33.2481338 72.2341048,31.8545644 73.125707,30.9333326 C73.6695681,30.3686331 74.139735,29.8822947 74.3454058,29.6274582 C74.5099425,29.4236324 75.0788748,28.7418254 75.8673702,27.7985612 C77.8489738,25.4273227 81.1647789,21.4560841 82.1131441,20.1990498 C83.4003506,18.4931212 87.0993873,16.3863786 87.1362887,16.3669512 L87.1816557,16.3398178 L87.1913151,16.2897839 C87.2168205,16.1672496 87.7793493,13.287749 86.598614,11.6639802 C85.6651179,10.3789334 84.4814522,8.83572899 84.13675,8.78146227 C84.005316,8.76068897 83.8823477,8.85310519 83.7106478,8.98114209 C83.4104443,9.20583887 83.0026841,9.50981933 82.364616,9.41400601 C81.3640463,9.25587278 79.8106071,8.94637883 79.7954125,8.94426243 C79.6877473,8.94553227 77.7841793,9.03667865 77.317377,10.3161902 C76.9777759,11.2450411 76.4053705,12.1773433 75.9454058,12.9265497 C75.809739,13.146547 75.6867706,13.3474423 75.585943,13.5208788 C75.2980038,14.018179 74.7545769,14.5816846 74.4352715,14.8906793 C74.6714403,13.6264818 75.4939067,9.24823203 75.7503712,8.30407794 C75.8360041,7.98695408 75.9213114,7.75378084 75.9903386,7.56469388 C76.1637751,7.09155321 76.2425703,6.87576702 75.8750761,6.45900947 C75.4112042,5.93245949 75.0898367,5.51231569 75.1882765,4.89503176 C75.2590403,4.44435751 76.7280404,3.63798661 77.6374421,3.23522987 L77.697244,3.20936636 L77.7048414,3.14408349 C77.7629068,2.61454884 77.9392736,1.18284083 78.0516057,0.93101395 C78.189009,0.620675605 78.3798108,0.192053177 79.6419462,0.228938266 Z M79.545677,0 C78.2157083,0 77.9939744,0.499423132 77.8456092,0.832655521 C77.7074462,1.14384477 77.5276063,2.67857272 77.4852782,3.0541961 C77.0520127,3.25048968 75.0704092,4.17980725 74.9630696,4.85814124 C74.8498692,5.57336575 75.2149757,6.05498289 75.7042445,6.60951279 C75.981873,6.92536681 75.9429095,7.03305368 75.7763107,7.48753746 C75.7063066,7.68001066 75.6189372,7.9186974 75.5299398,8.24429772 C75.2289765,9.35464907 74.1919395,14.954714 74.147875,15.1925108 L74.0867706,15.5202818 L74.3352037,15.2976797 C74.3759037,15.2620807 75.3438049,14.3946815 75.7830398,13.6349474 C75.8826735,13.4623793 76.0052077,13.2639801 76.139138,13.0447426 C76.5801093,12.327011 77.1837723,11.3459772 77.5314049,10.3941932 C77.9469795,9.25671935 79.7593794,9.16980577 79.7780471,9.16895921 C79.7661084,9.16980577 81.3237804,9.48056956 82.3285829,9.63870278 C83.0620519,9.75613597 83.5325444,9.39788879 83.847617,9.16471555 C83.938785,9.09518903 84.0595828,9.00954529 84.1020193,9.00615905 C84.2673158,9.04643581 85.0630829,9.93632318 86.4142157,11.7974763 C87.4554855,13.2292494 87.0471827,15.8026858 86.9772872,16.194383 C86.5236174,16.4546462 83.1828496,18.4028214 81.9313505,20.0613209 C80.9866755,21.3136882 77.6721728,25.2827561 75.6923058,27.6522582 C74.9033762,28.5963905 74.3331415,29.2790659 74.1681707,29.4854965 C73.9684692,29.7317589 73.5017754,30.2154924 72.9611703,30.7734628 C71.6214336,32.1606287 70.6684014,33.1680361 70.6132664,33.5181649 C70.5899318,33.6640339 70.6252051,33.7941655 70.7146367,33.8971637 C70.8396672,34.0405364 71.0491367,34.1032687 71.2208366,34.1304021 C70.5929707,34.6993344 68.7279321,36.4617004 68.5724037,37.45044 C68.4498694,38.2211359 68.9552011,39.3044082 69.5178384,39.977207 C69.9239706,40.4622429 70.3449718,40.7335765 70.7035663,40.7411739 C70.7117063,40.7411739 70.7197378,40.7411739 70.7273351,40.7411739 C71.3400064,40.7411739 72.0861738,40.2812091 72.4371709,39.685035 C72.6758359,39.2772748 72.6940695,38.8583358 72.4876389,38.5035399 C72.0141075,37.6924696 71.10514,37.5220721 70.7760666,37.4864731 C70.8209995,37.0900004 71.0469661,35.7290996 72.0581721,34.9944368 C73.1333044,34.212996 75.3433708,33.9849673 75.8266702,33.9425307 C76.1595423,35.2615376 77.5640735,40.5775054 78.5866756,40.5775054 C78.6015446,40.5775054 78.6164137,40.5754433 78.6311743,40.5728385 C79.5961451,40.4211087 80.3550109,35.0053987 80.5733802,33.2688636 C80.7506153,33.4792014 81.0800143,33.7463022 81.6493807,33.8366021 C82.5879779,33.9925646 84.9613871,33.4142984 87.5148533,32.0640339 C89.8737191,30.8170932 91.6004861,28.0634914 92.1334938,24.6968926 C92.625693,21.5896888 92.6964568,13.6111786 89.7003912,10.1326168 C87.0056144,7.00167667 83.0302516,6.36786309 82.2616178,6.27204977 C82.3137139,6.04437917 82.4120452,5.56996866 82.401843,5.31940836 C82.3887105,4.99380804 81.3110819,4.21414723 80.7811132,3.84869343 L81.2212163,1.836592 L81.2199139,1.8213322 C81.2186115,1.8026753 81.0855495,0.0258614564 79.646179,0 C79.6117739,0 79.5787797,0 79.545677,0 Z" id="path56" fill="#231F20" fill-rule="nonzero"></path>
                            <path d="M88.1905825,16.5491788 L89.2213246,15.6601814 C89.453152,16.6857139 90.5384864,21.772025 89.8559196,24.6706275 C89.0970538,27.8973267 87.9409556,29.2900278 86.8212161,30.4402651 C86.0021143,31.2813993 84.1549837,31.5798663 83.2429772,31.4161978 C82.9547123,31.3639932 82.7596778,31.2652278 82.7071476,31.1477946 C82.4273484,30.5165642 83.3587823,26.2443624 84.809983,23.703486 C85.4136459,22.6465874 85.9987497,21.7469537 86.5164542,20.9511866 C87.265552,19.7975846 87.8082192,18.9640478 87.8951545,18.4124809 L88.1905825,16.5491788 Z M89.355689,15.243413 L87.9786167,16.4296835 L87.6703817,18.375688 C87.5911523,18.8805856 87.0598812,19.6975168 86.32435,20.8273499 C85.8063199,21.6252878 85.219154,22.528286 84.6128862,23.5907198 C83.1552821,26.1434263 82.1560148,30.4673985 82.4994146,31.2402651 C82.5863499,31.4364936 82.8224101,31.5721604 83.2027113,31.6396682 C84.1841791,31.817663 86.0996858,31.5073659 86.9844504,30.5988325 C88.1262222,29.4265628 89.3060892,28.0058601 90.0785217,24.724026 C90.8480238,21.4506574 89.4141885,15.4833804 89.3988853,15.4248809 L89.355689,15.243413 Z" id="path60" fill="#231F20" fill-rule="nonzero"></path>
                        </g>
                    </g>
                </g>
            </g>
        </g>
    </g>
</svg>