<?xml version="1.0" encoding="UTF-8"?>
<svg width="200px" height="200px" viewBox="0 0 200 200" version="1.1" xmlns="http://www.w3.org/2000/svg" xmlns:xlink="http://www.w3.org/1999/xlink">
    <!-- Generator: Sketch 51.3 (57544) - http://www.bohemiancoding.com/sketch -->
    <title>cheyney</title>
    <desc>Created with Sketch.</desc>
    <defs></defs>
    <g id="cheyney" stroke="none" stroke-width="1" fill="none" fill-rule="evenodd">
        <g id="cheyney_BGL" transform="translate(0.000000, 46.000000)">
            <g id="cheyney">
                <g id="g10" transform="translate(99.835794, 54.298852) scale(-1, 1) rotate(-180.000000) translate(-99.835794, -54.298852) translate(0.000000, 0.440068)" fill-rule="nonzero">
                    <g id="g12">
                        <polyline id="path14" fill="#96AFE0" points="184.86305 61.3492924 186.208862 64.5923137 187.136284 64.4301462 185.301802 60.0677161 184.86305 61.3492924 184.86305 61.3492924"></polyline>
                        <polyline id="path16" fill="#96AFE0" points="28.1368137 56.3777983 27.3848269 56.2764518 27.3460749 60.6008523 28.1594082 60.710409 28.1368137 56.3777983 28.1368137 56.3777983"></polyline>
                        <path d="M27.2844657,55.2103763 L27.2844657,51.0083403 C23.34463,50.4549084 18.0975365,49.8660743 14.1674216,49.2489971 L14.1674216,53.5734634 L13.0785547,53.3964519 L13.0785547,57.5136275 L15.3430538,57.8825601 L15.3430538,53.5580939 C19.2729059,54.1751054 23.3428566,54.6587835 27.2844657,55.2103763" id="path18" fill="#96AFE0"></path>
                        <polyline id="path20" fill="#96AFE0" points="73.0174038 52.2051875 73.0174038 48.3758937 71.4075516 48.2920185 71.4075516 52.1205241 73.0174038 52.2051875 73.0174038 52.2051875"></polyline>
                        <polyline id="path22" fill="#96AFE0" points="73.0174038 61.744432 71.4075516 61.6604911 71.4075516 64.8150394 73.0174038 64.8997028 73.0174038 61.744432 73.0174038 61.744432"></polyline>
                        <path d="M83.87586,38.4636444 L83.87586,34.0979302 C74.7940868,33.8036116 65.7609179,33.3018054 56.7041037,32.599014 C51.838291,32.1549417 46.4545144,31.5776675 41.5978972,31.063973 L41.5978972,44.7167805 L40.564728,44.6846623 L40.564728,49.0271252 L42.0615425,49.1931022 L42.0615425,35.5395722 C46.9655817,36.0591124 51.8713944,36.5301797 56.7852203,36.9444983 C65.8633809,37.654449 74.8472888,38.1601304 83.87586,38.4636444" id="path24" fill="#96AFE0"></path>
                        <path d="M40.4292272,35.3569121 L40.4292272,31.0252209 C36.1812142,30.536748 31.9404261,30.0053851 27.7029221,29.4365838 L27.7029221,25.5218384 C21.4296218,24.645648 15.1408863,23.3353689 8.85799649,22.6436776 C8.01825924,22.5510668 7.16978636,22.5161899 6.33851544,22.5818714 C0.936216725,23.1165183 0.00153940883,27.2434148 0,31.5624951 L0,32.1846954 C0.609605896,29.4037431 2.21674871,27.2362555 6.07168458,26.8675855 C6.91165828,26.8047284 7.76761885,26.8405905 8.61530356,26.9353031 C14.9722821,27.6408532 21.3305742,28.9621668 27.6782916,29.8483408 L27.6782916,33.7628235 C31.923743,34.3336609 36.1732667,34.8663374 40.4292272,35.3569121" id="path26" fill="#96AFE0"></path>
                        <polyline id="path28" fill="#96AFE0" points="160.038748 49.5620349 160.038748 45.7494241 158.445316 45.9251877 158.445316 49.7383239 160.038748 49.5620349 160.038748 49.5620349"></polyline>
                        <polyline id="path30" fill="#96AFE0" points="160.038748 59.1178967 158.445316 59.2928721 158.445316 62.4332989 160.038748 62.2570099 160.038748 59.1178967 160.038748 59.1178967"></polyline>
                        <polyline id="path32" fill="#96AFE0" points="58.6530035 47.4535292 58.6530035 59.6297522 54.5823303 59.3026586 54.5823303 63.6378966 59.0609509 64.0034795 59.0609509 47.485122 58.6530035 47.4535292 58.6530035 47.4535292"></polyline>
                        <polyline id="path34" fill="#96AFE0" points="146.116909 63.6340214 146.116909 47.1187509 144.623313 47.2482747 144.623313 59.2692924 141.589487 59.5412793 141.589487 64.0034795 146.116909 63.6340214 146.116909 63.6340214"></polyline>
                        <polyline id="path36" fill="#96AFE0" points="142.374381 63.9439721 142.374381 62.9561889 142.395714 63.943184 142.374381 63.9439721 142.374381 63.9439721"></polyline>
                        <polyline id="path38" fill="#96AFE0" points="128.862394 64.6187176 128.862394 70.7454826 130.153691 70.6686353 130.153691 62.0125436 128.862394 64.6187176 128.862394 64.6187176"></polyline>
                        <polyline id="path40" fill="#96AFE0" points="41.2107707 59.5194731 41.2107707 68.4374367 42.0615425 68.5267635 42.0615425 59.6135946 41.2107707 59.5194731 41.2107707 59.5194731"></polyline>
                        <path d="M89.8850552,48.9672894 L89.8850552,49.3414109 C88.09852,53.1385865 86.3119847,56.9260413 84.5254494,60.7047604 L83.3536925,60.6714599 L83.3536925,56.9234797 C81.6748748,56.8678475 79.9960571,56.8054501 78.3172394,56.738258 L78.3172394,61.098652 C80.2213445,61.1768786 82.1254495,61.2474205 84.0295545,61.3115912 L84.0295545,65.059243 L85.2577975,65.0946453 C87.0673213,61.3146783 88.8768451,57.5259099 90.6870256,53.7279461 L90.6870256,48.9814109 L89.8850552,48.9672894" id="path42" fill="#96AFE0"></path>
                        <path d="M104.363873,38.7007544 L104.364529,34.3046954 C98.7619023,34.3383243 93.1619024,34.3021338 87.5612458,34.1943505 L87.5612458,44.5512633 L88.3336595,44.5645966 L88.3336595,38.5844982 C93.6775018,38.6871583 99.0187167,38.7259104 104.363873,38.7007544" id="path44" fill="#96AFE0"></path>
                        <path d="M111.173068,48.9377984 L111.173068,60.7578967 L107.278158,60.7578967 L102.952378,51.4072894 L102.952378,53.7967146 C104.72118,57.6226587 108.258125,65.1908686 108.258125,65.1908686 L112.155662,65.1908686 L112.155662,48.9377984 L111.173068,48.9377984" id="path46" fill="#96AFE0"></path>
                        <path d="M122.541869,38.2543176 L122.592444,33.8192438 C118.030867,34.0052537 113.469291,34.1464031 108.905088,34.2423637 L108.905088,44.5992107 L109.946795,44.5756311 L109.946795,38.6311977 C114.146467,38.5444982 118.344168,38.417733 122.541869,38.2543176" id="path48" fill="#96AFE0"></path>
                        <path d="M169.770768,34.191789 L169.770768,29.6282423 C160.794085,30.8012472 151.404266,31.8470271 142.374381,32.616748 C137.930374,32.9282094 133.484397,33.2381601 129.035136,33.4955 C127.25911,37.0417725 125.4798,40.5860088 123.696549,44.1284061 L123.61576,51.0724454 C125.858782,46.6769118 128.095235,42.277306 130.327747,37.8750729 C134.820358,37.6164851 139.307714,37.3024621 143.794413,36.9525114 L143.913297,36.9406887 C152.566827,36.2102454 161.161244,35.2912306 169.770768,34.191789" id="path50" fill="#96AFE0"></path>
                        <path d="M176.639733,40.5103438 L176.639733,41.1507379 C174.614117,45.8294898 172.585874,50.4959593 170.556974,55.1506062 L169.252541,55.3270922 L169.252541,52.5387179 L165.330045,53.0377655 L165.330045,57.5913286 C167.224955,57.3591447 169.118551,57.1197358 171.012147,56.8747441 L171.012147,59.6623302 L172.375694,59.4784222 C174.430866,54.8191119 176.484725,50.1475193 178.53727,45.4639069 L178.53727,40.2290959 L176.639733,40.5103438" id="path52" fill="#96AFE0"></path>
                        <path d="M192.240389,26.8480781 L192.240389,22.2028894 C186.197696,23.2558286 180.147779,24.2313294 174.078157,25.1121176 L174.078157,36.291559 L175.94351,36.0157626 L175.94351,29.4345477 C181.388501,28.6424952 186.817729,27.7773392 192.240389,26.8480781" id="path54" fill="#96AFE0"></path>
                        <path d="M198.851883,55.2065668 L198.851883,50.5370102 L195.377992,51.178915 C195.377992,51.178915 195.552048,51.5996703 197.471916,55.4618049 L198.851883,55.2065668" id="path56" fill="#96AFE0"></path>
                        <path d="M124.749422,0 L72.3047601,0 L53.3505405,17.0910341 L53.3505405,36.4814441 C54.893529,36.6763866 56.5429871,36.8511649 58.264038,37.0063702 L58.264038,19.3162557 L74.9510654,4.26929382 L122.244989,4.26929382 L138.932016,19.3162557 L138.932016,23.2591784 L138.932016,36.6692273 L143.703773,36.3883078 L143.703773,17.3478485 L143.703773,17.0910341 L124.749422,0" id="path58" fill="#96AFE0"></path>
                        <path d="M81.072576,38.1747774 C82.5261063,38.5588825 85.8922803,38.5182913 85.8922803,38.5182913 L85.9862047,27.4995067 L89.8338237,24.158226 L107.220359,24.158226 L110.926106,27.4995067 L110.926106,38.1609186 C112.54384,38.0867642 114.238421,38.0059761 115.981606,37.9199991 L115.981606,25.5500815 L109.457469,19.8896547 L87.4627236,19.8896547 L81.072576,25.5416086 L81.072576,38.1747774" id="path60" fill="#96AFE0"></path>
                        <path d="M115.981606,75.3215088 C114.279143,75.3701131 112.593757,75.4101787 110.926106,75.4423626 L110.926106,83.1415414 L103.800326,83.1415414 L103.800326,107.171754 L150.829553,107.171754 L150.829553,83.1415414 L143.703773,83.1415414 L143.703773,73.791788 C142.10443,73.9238077 140.514282,74.046632 138.932016,74.1622313 L138.932016,87.4108353 L146.058453,87.4108353 L146.058453,103.031196 L108.713955,103.031196 L108.713955,87.4108353 L115.981606,87.4108353 L115.981606,75.3215088" id="path62" fill="#96AFE0"></path>
                        <path d="M53.3505405,73.501476 L53.3505405,83.1415414 L46.2248264,83.1415414 L46.2248264,107.171754 L93.1113277,107.171754 L93.1113277,83.1415414 L85.9862047,83.1415414 L85.9862047,75.3497518 C84.3178961,75.3064021 82.6798009,75.2545137 81.072576,75.1980277 L81.072576,87.4108353 L88.1983558,87.4108353 L88.1983558,103.031196 L51.1386523,103.031196 L51.1386523,87.4108353 L58.264038,87.4108353 L58.264038,85.8397351 L58.264038,73.9106714 C56.5504091,73.7766812 54.9111973,73.639407 53.3505405,73.501476" id="path64" fill="#96AFE0"></path>
                        <path d="M25.6183245,68.7034466 C25.6183245,64.6418375 25.6183245,60.5808852 25.6183245,56.5194075 C22.7408861,56.108373 19.866075,55.6734961 16.9937598,55.2147769 C16.9937598,56.6579296 16.9937598,58.1006225 16.9937598,59.5430527 C15.1437106,59.2480117 13.2945809,58.9421989 11.4467649,58.6265995 C11.4467649,51.2879462 11.4467649,43.9488331 11.4467649,36.6107052 C13.2945809,36.9255163 15.1437106,37.2316575 16.9937598,37.527224 C16.9937598,39.5394407 16.9937598,41.5525113 16.9937598,43.5652534 C20.0068961,44.0463043 23.0231193,44.501214 26.0419041,44.9297197 C26.0419041,40.2989152 26.0419041,35.6683735 26.0419041,31.0365181 C20.9221013,30.3094245 15.8099832,29.5066002 10.7075859,28.6278482 C9.17694558,28.3646627 7.6998356,28.1037103 6.22382907,28.2101799 C1.37418059,28.6602292 1.32440719,32.9056149 1.32389488,35.5297856 C1.32389488,42.191329 1.32389488,48.8531351 1.32389488,55.5157293 C1.32389488,57.7594074 1.32363215,60.0595059 2.90383572,62.3339886 C4.95792434,65.285844 8.06857123,65.9041034 10.9718881,66.401312 C15.8456482,67.2374367 20.7284067,68.004596 25.6183245,68.7034466" id="path66" fill="#3777C5"></path>
                        <path d="M27.6121504,69.1238078 C31.3795723,69.6472889 35.1508694,70.1300475 38.925779,70.5720836 C38.925779,66.1799655 38.925779,61.7887669 38.925779,57.3963204 C40.518751,57.5823303 42.1120515,57.761969 43.7061401,57.9338573 C43.7061401,62.3255157 43.7061401,66.7172397 43.7061401,71.1100146 C47.5159266,71.5198668 51.3289971,71.8889966 55.1446948,72.2160901 C55.1446948,69.8607536 55.1446948,67.5041034 55.1446948,65.1477816 C54.4103763,65.084399 53.6761235,65.0202939 52.9418049,64.954087 C52.9418049,58.350015 52.9418049,51.7459429 52.9418049,45.1418708 C53.6761235,45.2086031 54.4103763,45.2727082 55.1446948,45.3363535 C55.1446948,42.979769 55.1446948,40.6231845 55.1446948,38.2679137 C51.3289971,37.9395064 47.5159266,37.5710992 43.7061401,37.1600648 C43.7061401,41.7123142 43.7061401,46.2651548 43.7061401,50.8166818 C42.1120515,50.6447278 40.518751,50.4656802 38.925779,50.2791449 C38.925779,45.7268297 38.925779,41.1755655 38.925779,36.623316 C35.1508694,36.1807544 31.3795723,35.6991781 27.6121504,35.1757627 C27.6121504,37.5318217 27.6121504,39.8884062 27.6121504,42.2434144 C28.3433162,42.3452863 29.0750732,42.4453191 29.8065674,42.5436443 C29.8065674,49.1476507 29.8065674,55.7517227 29.8065674,62.3557948 C29.0750732,62.2575354 28.3433162,62.1575026 27.6121504,62.0556306 C27.6121504,64.411427 27.6121504,66.7678144 27.6121504,69.1238078" id="path68" fill="#3777C5"></path>
                        <path d="M58.4990462,72.4932658 C66.4532003,73.1257781 74.4183889,73.5770097 82.3875185,73.8476172 C82.3875185,70.1451542 82.3875185,66.4413776 82.3875185,62.7393745 C79.8114923,62.6521495 77.235466,62.5448917 74.6600967,62.4199656 C74.6600967,63.7669606 74.6600967,65.1131675 74.6600967,66.4597685 C73.0285696,66.3802939 71.3970426,66.2929376 69.7661723,66.1990131 C69.7661723,64.0509672 69.7661723,61.902987 69.7661723,59.754744 C72.0689637,59.8889312 74.3717551,60.0068951 76.6752033,60.1100806 C76.6752033,58.0262054 76.6752033,55.9428557 76.6752033,53.8587835 C74.3717551,53.7556637 72.0689637,53.6376341 69.7661723,53.5042351 C69.7661723,51.131493 69.7661723,48.7589479 69.7661723,46.3869939 C71.3970426,46.4811811 73.0285696,46.5678806 74.6600967,46.6479463 C74.6600967,48.1065341 74.6600967,49.5651219 74.6600967,51.0237097 C77.4108355,51.1571087 80.162888,51.2694897 82.9155973,51.3605898 C82.9155973,47.5454175 82.9155973,43.7307707 82.9155973,39.9158611 C74.7697847,39.647224 66.6292266,39.1902782 58.4990462,38.5452864 C58.4990462,40.9005573 58.4990462,43.256879 58.4990462,45.6134636 C59.2338901,45.6711975 59.9689312,45.7281434 60.7040379,45.7841039 C60.7040379,52.3873879 60.7040379,58.9914599 60.7040379,65.5954663 C59.9689312,65.5403596 59.2338901,65.4833481 58.4990462,65.4248916 C58.4990462,67.7806223 58.4990462,70.1372725 58.4990462,72.4932658" id="path70" fill="#3777C5"></path>
                        <path d="M83.8771736,73.8962215 C86.8860405,73.9901459 89.8955643,74.0577978 92.905088,74.1004908 C93.9934295,71.1343168 95.0824278,68.1642019 96.1707694,65.1921823 C96.5550058,63.9439721 96.6509007,63.5603925 96.8433473,62.4076175 C97.1310321,63.8995715 97.2275838,64.2857127 97.7556626,65.682757 C98.8768448,68.5096863 99.9973702,71.3326747 101.117896,74.1517223 C103.999997,74.1477814 106.882099,74.1195384 109.762887,74.06765 C109.762887,71.6151049 109.762887,69.1625598 109.762887,66.7100148 C108.914283,66.7257783 108.065679,66.7382578 107.217731,66.7494236 C105.248602,62.5123137 103.279472,58.26279 101.309685,54.003217 C101.309685,51.7587508 101.309685,49.5145472 101.309685,47.2701466 C102.094579,47.268833 102.879472,47.2657459 103.663708,47.2606228 C103.663708,44.9045637 103.663708,42.5487674 103.663708,40.1919202 C99.1008185,40.2214111 94.5379287,40.1903438 89.9756956,40.1018709 C89.9756956,42.4576672 89.9756956,44.8142518 89.9756956,47.1700481 C90.759932,47.1854175 91.5441685,47.1990136 92.3290617,47.2105735 C92.3290617,49.4547771 92.3290617,51.6992434 92.3290617,53.9429215 C90.3119846,58.1762875 88.2949075,62.3981594 86.2778304,66.6075517 C85.4778304,66.5865336 84.6771736,66.5635451 83.8771736,66.5385862 C83.8771736,68.9904745 83.8771736,71.4436764 83.8771736,73.8962215" id="path72" fill="#3777C5"></path>
                        <path d="M142.151721,72.4939227 C142.151721,70.1372725 142.151721,67.7812791 142.151721,65.4256141 C141.416745,65.4833481 140.68177,65.5403596 139.946138,65.5962545 C139.946138,58.9921824 139.946138,52.3881103 139.946138,45.7841039 C140.68177,45.7289315 141.416745,45.671723 142.151721,45.6134636 C142.151721,43.2574045 142.151721,40.9010827 142.151721,38.5452864 C138.557632,38.8302782 134.961573,39.0784227 131.3642,39.2900483 C129.062066,43.8341533 126.758618,48.3625604 124.455169,52.875598 C122.679143,56.5137588 122.439406,57.1949411 121.71888,59.4847933 C121.86338,58.1326751 121.86338,57.603414 121.911327,56.3039066 C121.975038,50.7871252 122.039406,45.2709348 122.103117,39.7536936 C118.599012,39.8981271 115.093593,40.0079465 111.588831,40.082889 C111.588831,42.4397362 111.588831,44.7950071 111.588831,47.1515916 C112.32512,47.135434 113.061409,47.1182254 113.797698,47.0995062 C113.797698,53.7035783 113.797698,60.3076504 113.797698,66.911 C113.061409,66.9307044 112.32512,66.9477816 111.588831,66.9628883 C111.588831,69.3195385 111.588831,71.6755319 111.588831,74.0321821 C115.205908,73.9553348 118.822986,73.8403922 122.439406,73.6899817 C124.967485,68.6141198 127.49425,63.521115 130.021015,58.4097851 C131.220358,56.0339559 131.412148,55.4443993 132.084069,53.3374699 C131.795071,56.2397359 131.795727,56.9607211 131.795071,59.6059098 C131.795071,64.1415419 131.795071,68.6778308 131.795071,73.2144481 C135.249258,73.0082084 138.701474,72.7684711 142.151721,72.4939227" id="path74" fill="#3777C5"></path>
                        <path d="M145.554019,72.2121493 C153.504758,71.5297191 161.444331,70.6666649 169.365513,69.62233 C169.365513,65.919867 169.365513,62.2172727 169.365513,58.5142186 C166.804594,58.8516241 164.241704,59.1705076 161.676843,59.4699493 C161.676843,60.8164188 161.676843,62.1634139 161.676843,63.5090953 C160.052541,63.6994401 158.426925,63.8816404 156.800653,64.0568785 C156.800653,61.9086356 156.800653,59.7605896 156.800653,57.6131348 C159.096876,57.3660413 161.391129,57.1043664 163.684068,56.8272564 C163.684068,54.7434469 163.684068,52.6600972 163.684068,50.576025 C161.391129,50.8530693 159.096876,51.1148099 156.800653,51.3618378 C156.800653,48.9898838 156.800653,46.6171417 156.800653,44.2446623 C158.426925,44.0702124 160.052541,43.8872895 161.676843,43.6974045 C161.676843,45.1559923 161.676843,46.6145801 161.676843,48.0731679 C164.417073,47.7532336 167.154676,47.4112303 169.890308,47.048209 C169.890308,43.2330367 169.890308,39.4185869 169.890308,35.6032175 C161.79507,36.6784884 153.680784,37.5659104 145.554019,38.2640385 C145.554019,40.619375 145.554019,42.9764193 145.554019,45.332544 C146.288995,45.2688987 147.023313,45.2047279 147.756975,45.1380613 C147.756975,51.7420677 147.756975,58.3461398 147.756975,64.9502118 C147.023313,65.0164187 146.288995,65.0805895 145.554019,65.1439064 C145.554019,67.5001625 145.554019,69.8568127 145.554019,72.2121493" id="path76" fill="#3777C5"></path>
                        <path d="M170.851884,69.2834137 C174.173395,68.8367799 177.491621,68.3573054 180.806564,67.8463037 C182.005907,64.3485698 183.204593,60.8471578 184.401966,57.3404255 C184.824954,55.8826259 184.930701,55.4379625 185.141539,54.121772 C185.458123,55.7266324 185.563871,56.136616 186.145808,57.5905404 C187.377992,60.5226257 188.610176,63.4505731 189.84236,66.3737258 C193.008862,65.8298834 196.172737,65.2562874 199.331358,64.6533974 C199.331358,61.9278802 199.331358,59.2025601 199.331358,56.4778311 C198.401309,56.6548426 197.470603,56.829818 196.539897,57.0024945 C194.378977,52.6639724 192.216744,48.3125768 190.05254,43.9470597 C190.05254,41.4529382 190.05254,38.9588168 190.05254,36.4657462 C190.915595,36.316715 191.776678,36.1668956 192.639076,36.0132011 C192.639076,33.3956642 192.639076,30.7763539 192.639076,28.1575691 C187.627582,29.0468301 182.607549,29.8635132 177.578321,30.606239 C177.578321,33.2250895 177.578321,35.8430861 177.578321,38.4623964 C178.443345,38.3335951 179.307713,38.2042683 180.172081,38.0721173 C180.172081,40.5662387 180.172081,43.0598347 180.172081,45.5536934 C177.950078,50.6319199 175.726104,55.6953024 173.500817,60.7445633 C172.618058,60.8682415 171.735299,60.9895551 170.851884,61.1081101 C170.851884,63.8336273 170.851884,66.5582906 170.851884,69.2834137" id="path78" fill="#3777C5"></path>
                        <polyline id="path80" fill="#3777C5" points="193.20525 17.5230866 193.20525 20.8433492 191.965841 20.8433492 191.965841 21.2846629 194.945151 21.2846629 194.945151 20.8433492 193.704429 20.8433492 193.704429 17.5230866 193.20525 17.5230866 193.20525 17.5230866"></polyline>
                        <path d="M195.450241,17.5230866 L195.450241,21.2846629 L196.197039,21.2846629 L197.086366,18.6220028 C197.168468,18.3743838 197.228238,18.1886367 197.266333,18.0657467 C197.309026,18.2022327 197.376678,18.4033493 197.467975,18.6679141 L198.373066,21.2846629 L199.039732,21.2846629 L199.039732,17.5230866 L198.561571,17.5230866 L198.561571,20.6706727 L197.463378,17.5230866 L197.014773,17.5230866 L195.929059,20.7284067 L195.929059,17.5230866 L195.450241,17.5230866" id="path82" fill="#3777C5"></path>
                    </g>
                </g>
            </g>
        </g>
    </g>
</svg>