<?xml version="1.0" encoding="UTF-8"?>
<svg width="200px" height="200px" viewBox="0 0 200 200" version="1.1" xmlns="http://www.w3.org/2000/svg" xmlns:xlink="http://www.w3.org/1999/xlink">
    <!-- Generator: Sketch 51.3 (57544) - http://www.bohemiancoding.com/sketch -->
    <title>claflin</title>
    <desc>Created with Sketch.</desc>
    <defs></defs>
    <g id="claflin" stroke="none" stroke-width="1" fill="none" fill-rule="evenodd">
        <g id="claflin_BGL" transform="translate(0.000000, 55.000000)">
            <g id="claflin">
                <g id="g10" transform="translate(99.999998, 45.078300) scale(-1, 1) rotate(-180.000000) translate(-99.999998, -45.078300) translate(0.223714, 0.111858)" fill-rule="nonzero">
                    <g id="g12" transform="translate(0.402685, 0.000000)">
                        <path d="M24.6612969,16.5570913 C23.8459502,16.0173598 23.1153909,15.7015656 22.4625945,15.5463531 C24.0565542,13.2983889 27.5765541,12.0799997 30.6132878,13.4004471 C29.4165988,13.8349437 28.3796413,14.4997759 27.5253237,15.1884113 C26.4107823,15.1763307 25.3420575,15.5334224 24.6612969,16.5570913" id="path14" fill="#FFFFFF"></path>
                        <path d="M23.2450553,15.3077849 C24.5969569,13.8438475 26.9702454,12.9199997 29.3344512,13.4598654 C28.666129,13.8008498 28.0068449,14.2259057 27.3643841,14.7315433 C26.1823707,14.7548095 25.220581,15.1714538 24.5511851,15.9462188 C24.1076057,15.6791942 23.6711851,15.4657714 23.2450553,15.3077849 Z M27.9636682,12.3923487 C25.5218786,12.3923487 23.2620128,13.6276507 22.0892612,15.2813866 L21.6969122,15.8348989 L22.3568675,15.9914985 C22.9996862,16.1444291 23.6898876,16.4630421 24.4087242,16.9387915 L24.7895743,17.1910063 L25.0424602,16.8103352 C25.5643394,16.0255924 26.4127063,15.6241159 27.5204467,15.6464873 L27.684742,15.6482323 L27.8126615,15.5449661 C28.772393,14.771409 29.7672028,14.1946305 30.7695294,13.8309169 L31.8494847,13.4388811 L30.7957487,12.980805 C29.8591491,12.5736015 28.8980306,12.3923487 27.9636682,12.3923487 Z" id="path16" fill="#100F0D"></path>
                        <path d="M33.2165987,18.7082322 C32.6943616,17.8233553 32.0036234,16.9181651 31.2285003,16.3856372 C30.8329746,16.1150779 30.3170462,15.8466215 29.7432655,15.6318117 C33.2317665,13.6479191 38.1683659,14.4636238 40.3195068,16.1271137 C36.4398201,15.9069347 34.1498873,17.735928 33.2165987,18.7082322" id="path18" fill="#FFFFFF"></path>
                        <path d="M30.8254578,15.6134672 C33.4125271,14.5459504 36.5409834,14.8551227 38.6171802,15.7012077 C36.0446523,15.9498877 34.3120797,17.0756595 33.3053683,17.9851897 C32.8523482,17.2976282 32.2303348,16.5186126 31.487695,16.008098 C31.2854578,15.869843 31.062997,15.7373598 30.8254578,15.6134672 Z M34.5494399,14.0133777 C32.8025495,14.0133777 31.0147643,14.3825052 29.516912,15.2340041 L28.6662633,15.7181652 L29.582997,16.0608945 C30.0959724,16.2522591 30.5882766,16.502013 30.9698426,16.7633105 C31.5852341,17.1857714 32.2432654,17.9596416 32.8222811,18.9408496 L33.1290372,19.4608049 L33.5468895,19.0251002 C34.5068,18.0250107 36.6614309,16.3812524 40.2934666,16.5838027 L41.7667999,16.6675611 L40.5994621,15.7646528 C39.2129744,14.6925723 36.9192385,14.0133777 34.5494399,14.0133777 Z" id="path20" fill="#100F0D"></path>
                        <path d="M40.5446075,27.3860396 C40.357046,26.7378069 40.1114979,26.0144065 39.7885001,25.1875161 C39.2498424,23.8094401 38.6052787,22.82859 37.9210281,22.1476505 C41.9576723,20.9901113 47.1767326,22.5069793 49.4165536,24.9446079 C44.5590593,24.0934222 41.6961958,26.2309613 40.5446075,27.3860396" id="path22" fill="#FFFFFF"></path>
                        <path d="M38.7686791,22.4126169 C42.0163748,21.7607153 45.7503344,22.759373 47.9807594,24.3122589 C44.4585224,24.0997309 42.1060392,25.4233103 40.7685001,26.557449 C40.6103346,26.0720799 40.4271578,25.5641604 40.2149878,25.0209837 C39.8117663,23.9897981 39.3269341,23.1153909 38.7686791,22.4126169 Z M40.91199,21.2889928 C39.8556142,21.2889928 38.8004912,21.4191941 37.7948536,21.7079189 L37.0460841,21.9221918 L37.5982094,22.4720352 C38.2905136,23.1615207 38.8840706,24.1310061 39.3624151,25.3539144 C39.6686344,26.1382991 39.9115426,26.8447421 40.104697,27.5132879 L40.3203569,28.2590597 L40.8688133,27.7095743 C42.0724822,26.5015206 44.7743613,24.5950329 49.3373589,25.3955251 L50.6666654,25.6281425 L49.7534663,24.6348987 C48.032661,22.7619681 44.4662181,21.2894849 40.91199,21.2889928 Z" id="path24" fill="#100F0D"></path>
                        <path d="M47.2241599,40.9978066 C47.4465313,39.7341825 47.3950771,38.4483212 46.9525715,37.2581199 C46.5042494,36.0537351 45.9391487,35.1448761 45.3114083,34.4576725 C49.709171,34.2514533 53.9579405,36.0397306 56.0876943,38.6370908 C52.1127504,37.7038022 48.7794171,39.7691265 47.2241599,40.9978066" id="path26" fill="#FFFFFF"></path>
                        <path d="M47.799104,40.0111847 C47.8559272,38.9749431 47.7163299,37.9995069 47.3816543,37.0988805 C47.0738243,36.27114 46.6948534,35.536017 46.2505581,34.9016099 C49.512303,34.9592832 52.7257258,36.1222362 54.8120792,37.9740035 C51.8917213,37.7347194 49.4084999,38.9252787 47.799104,40.0111847 Z M45.9874709,33.983847 C45.7548087,33.983847 45.5221465,33.9897978 45.2899318,34.0004466 L44.3159273,34.0460842 L44.9736007,34.7659947 C45.6044731,35.4572251 46.1261733,36.3494398 46.5234888,37.4178514 C46.9131979,38.4670236 46.9973143,39.6443391 46.7731532,40.9181198 L46.5650995,42.1015202 L47.5078288,41.3569565 C49.0621912,40.1288133 52.2304238,38.201744 55.9829964,39.08331 L57.2984326,39.3919453 L56.4416093,38.3471579 C54.2644282,35.6917664 50.1306475,33.983847 45.9874709,33.983847 Z" id="path28" fill="#100F0D"></path>
                        <path d="M45.5588356,73.9565977 C41.0586119,74.3668885 34.796017,72.7158819 30.8724824,71.2272913 C25.817449,69.309618 21.5048317,68.4098417 19.3685454,67.1825487 C17.0597311,65.8568216 12.5358386,64.1194615 11.2562861,63.5225935 C9.97606239,62.9270678 7.54894836,60.2093945 6.03310947,57.9042491 C4.5174406,55.5991038 0.720778505,50.4657706 0.949387001,47.6689026 C1.17781653,44.8706924 1.88391494,37.4778067 4.79829966,34.7628179 C7.71463068,32.0478739 9.39718097,30.5467106 10.9189706,27.7825944 C12.4423263,25.0152119 13.6227737,23.3172701 14.6434448,22.2818786 C15.6641607,21.2470241 17.9017893,18.2421025 18.3195074,17.3719011 C18.7375834,16.502013 20.7445632,13.962371 24.6612969,16.5570913 C26.1865765,14.2652345 29.654138,15.3074269 31.2285003,16.3856372 C32.8023705,17.4648765 34.0310506,20.0868451 34.1927061,20.9534223 C35.9085002,20.5271136 38.2702451,21.3001784 39.7885001,25.1875161 C41.3064419,29.0752565 41.2033547,30.782997 40.6533323,32.3647419 C42.6876947,32.5119008 45.467113,33.2599097 46.9525715,37.2581199 C48.438925,41.2573591 45.534227,46.340491 42.5300661,48.063086 C39.5259945,49.7856811 35.888366,50.0953008 33.1740931,51.3941822 C30.4603572,52.693511 31.4060842,51.1776274 29.2439366,54.4693499 C26.0558383,58.8935108 40.5225941,71.2724814 45.5588356,73.9565977" id="path30" fill="#100F0D"></path>
                        <path d="M24.9114088,17.7958832 L25.4061739,17.0527513 C25.7342275,16.5602233 26.1965094,16.2616998 26.8192387,16.1409392 C28.0823707,15.897494 29.7390597,16.4506484 30.7226838,17.1238922 C32.0882319,18.0603127 33.1948985,20.4846527 33.3128851,21.1171807 L33.486979,22.0510062 L34.408545,21.8218786 C36.1799096,21.3807153 37.8799543,22.7614759 38.9551668,25.5127958 C40.4856813,29.4331984 40.2319453,30.8518561 39.8080974,32.0707375 L39.4248312,33.173243 L40.5886343,33.2573146 C42.3191041,33.3821021 44.7747192,33.9655025 46.1136454,37.5700662 C47.4782986,41.2407149 44.5922584,45.8492159 42.0849206,47.2867997 C40.4984777,48.1964194 38.6773145,48.7011174 36.9158827,49.1888131 C35.4430416,49.5968668 34.051856,49.9825491 32.7878739,50.5870233 C32.0034444,50.9628623 31.5700216,51.0756139 31.2531536,51.158388 C30.1606256,51.4438466 29.971006,51.7324372 28.495883,53.9780747 C27.9047868,54.7973141 27.7425944,55.8697973 28.0363751,57.1333319 C29.1672029,61.999551 37.3308268,69.4143159 42.493198,73.0648751 C38.6568223,72.7803114 34.2512743,71.5516761 31.1898874,70.3906023 C28.9429523,69.5382533 26.8618785,68.8912734 25.0258607,68.3203562 C22.8259502,67.6357925 20.9261292,67.0451885 19.8142277,66.4067097 C18.1340935,65.4420565 15.4140488,64.3069335 13.4276954,63.4778508 C12.6579863,63.156598 11.993333,62.8791931 11.6344964,62.7118553 C10.6017447,62.2308709 8.28876937,59.7051439 6.7808052,57.4125265 C6.58259491,57.111408 6.34577165,56.7619673 6.08429515,56.3758375 C4.54085,54.0997749 1.6678881,49.8626386 1.84109168,47.7418333 C2.49877846,39.6894397 4.1441207,36.5955248 5.40845624,35.4178962 L5.79682312,35.0564644 C8.53064856,32.5136457 10.1808946,30.9789254 11.7028632,28.214317 C13.1071585,25.6625944 14.2776283,23.9279189 15.2808497,22.9100218 C16.3550331,21.8209838 18.6552568,18.7400443 19.1261293,17.7588362 C19.1463977,17.7172255 19.6368228,16.7203128 20.7753015,16.4067557 C21.7313194,16.1444291 22.8717668,16.4446976 24.167024,17.3028631 L24.9114088,17.7958832 Z M27.4734221,14.2921697 C27.1370016,14.2921697 26.803355,14.321163 26.4787913,14.3838923 C25.6938696,14.5359728 25.013288,14.8815209 24.4735564,15.3955253 C22.9836236,14.568635 21.5824156,14.3274717 20.29991,14.6810287 C18.8707825,15.0751674 17.9053239,16.1681875 17.5129302,16.9844291 C17.1537803,17.732438 14.9973598,20.6487691 14.0065768,21.6537355 C12.8703352,22.8058607 11.6404471,24.6165542 10.1351228,27.3507376 C8.75158815,29.864384 7.26912734,31.242997 4.57789698,33.7458157 L4.18868893,34.1077844 C2.01272478,36.1351669 0.622903788,40.6725269 0.0575013856,47.595972 C-0.149783441,50.1328847 2.18942276,53.8205803 4.60290816,57.3803118 C4.85928399,57.7583878 5.09140927,58.1006697 5.28559271,58.3959717 C6.83883652,60.7583877 9.35592818,63.6250543 10.8786127,64.3342266 C11.2702905,64.5167769 11.9183442,64.787023 12.7383889,65.1293049 C14.5712748,65.8944055 17.3407602,67.0501102 18.9228631,67.958835 C20.2060398,68.6957477 22.098344,69.2841146 24.4943618,70.029081 C26.3059501,70.592392 28.3593729,71.2313181 30.5548986,72.0644277 C34.6327956,73.6107364 41.0276947,75.2680071 45.6402673,74.8478728 L48.623265,74.5758371 L45.9798646,73.1668886 C41.8821466,70.982996 30.953601,61.7807591 29.7795966,56.7284102 C29.6057263,55.9794169 29.6677398,55.4116317 29.9699321,54.9928398 C31.2786569,53.0017884 31.2786569,53.0017884 31.7054578,52.8899316 C32.0702453,52.7946296 32.6216547,52.6510054 33.5603571,52.201341 C34.6819231,51.6648757 35.9990148,51.299775 37.3935561,50.9136453 C39.261744,50.3964193 41.193377,49.8612963 42.9752115,48.8393724 C46.4961957,46.8205805 49.3673366,41.1862182 47.7914977,36.9463078 C46.6519004,33.879686 44.682594,32.122997 41.788679,31.6049657 C42.0976723,30.0389702 41.9038468,28.1445631 40.6221914,24.8617443 C38.9099319,20.4792389 36.3017441,19.8921695 34.8225942,19.9638026 C34.3143616,18.6344514 33.1534667,16.6205365 31.7344959,15.6478743 C30.6701111,14.9185679 29.0406704,14.2921697 27.4734221,14.2921697 Z" id="path32" fill="#CD2C23"></path>
                        <path d="M41.7002227,32.4970462 C39.8432205,32.7602229 38.4978066,33.451498 37.1740483,34.3968671 C35.8504689,35.3418783 33.6162855,36.1212072 30.8999097,37.0948537 C28.1844288,38.0675158 24.8259054,42.1100661 22.373467,42.8268446 C23.7877399,41.8126164 27.1090374,38.6827283 27.8408047,38.028187 C28.5722588,37.3753906 32.0481871,35.9126613 34.7991938,34.8407598 C38.4930639,33.4004466 40.8030862,31.7096636 40.9923927,30.8791044 C40.6533323,32.3647419 40.6533323,32.3647419 40.6533323,32.3647419 L41.7002227,32.4970462" id="path34" fill="#CD2C23"></path>
                        <path d="M34.830111,21.4340487 C33.1606703,21.6153015 32.1308717,22.479731 29.3465317,24.7051448 C26.5625049,26.9302454 23.0135117,28.033959 21.1185677,30.0929746 C19.2231315,32.152214 15.2936462,36.1426837 15.2936462,36.1426837 C15.2936462,36.1426837 20.1620129,30.3060395 20.6484111,29.5253236 C21.1346303,28.744563 23.0598205,27.5624154 25.3469345,26.3681425 C27.6333326,25.1744065 32.6765093,21.3615207 34.157762,20.7982098 C34.1927061,20.9534223 34.3106927,20.9229972 34.3106927,20.9229972 C34.3106927,20.9229972 34.4452788,21.3436684 34.830111,21.4340487" id="path36" fill="#CD2C23"></path>
                        <path d="M25.0312745,17.0756595 C24.4055922,18.1090823 22.3148988,21.5135565 20.0331986,23.3370017 C17.7509615,25.1592387 15.6012524,28.4773595 12.0433107,31.4707375 C14.2621026,29.0465765 16.7399101,25.0255027 17.8436237,24.2112298 C22.0973149,21.0715431 24.1617891,16.9144962 24.485637,16.4434895 C24.5293059,16.4716327 25.0312745,17.0756595 25.0312745,17.0756595" id="path38" fill="#CD2C23"></path>
                        <path d="M100.007156,79.2944052 C87.9548076,79.3284096 53.3959718,68.4492153 53.3959718,46.4487684 C53.3959718,28.8407152 67.1928395,18.01557 89.4420559,11.9248319 C89.9391476,10.6817894 88.6961947,9.43897068 88.6961947,9.43897068 C88.6961947,9.43897068 49.915435,18.1400443 49.915435,45.6098423 C49.915435,73.0791928 90.1879172,81.4071568 99.1373577,82.1525707 C99.7588342,80.4129734 100.007156,79.2944052 100.007156,79.2944052" id="path40" fill="#CD2C23"></path>
                        <path d="M106.222369,22.162863 C106.222369,22.162863 101.995971,19.1341382 95.6568209,17.0211181 C89.3176711,14.9078743 88.2782976,11.7633107 86.9114072,9.89932861 C90.391944,8.90433982 94.6626375,8.1449215 94.6626375,8.1449215 C94.6626375,8.1449215 98.1029058,16.5574493 106.719908,19.8930196 C106.719908,19.8930196 106.971809,21.673288 106.222369,22.162863" id="path42" fill="#CD2C23"></path>
                        <path d="M49.0451889,49.4626386 C48.442057,45.146755 49.1695737,32.9315428 56.5029069,25.9705139 C63.8371349,19.0093508 75.1476491,11.8003576 90.1879172,8.69301992 C91.8035771,12.4224158 95.6210267,16.0927065 99.3861273,17.5181651 C103.417895,19.0446528 106.649214,21.7140487 106.649214,21.7140487 C106.649214,21.7140487 109.48814,18.3471584 112.081876,14.8308274 C113.873375,12.4026395 117.493957,9.42952997 122.280086,9.11807583 C127.065769,8.80626376 130.270243,11.8473823 130.432212,12.8210735 C131.205813,15.7113195 125.815209,15.3995522 124.204024,16.0344962 C123.57852,16.2809392 121.184337,18.192796 120.435791,19.7462187 C123.765545,20.08774 129.551675,22.0644737 129.289482,22.9337802 C129.200444,23.2291717 127.526619,27.68944 127.174046,31.0711849 C126.992391,32.8170462 126.714538,34.789753 127.835791,36.1713637 C128.33154,36.7816546 133.235791,37.2336456 135.141831,37.0309163 C137.048319,36.8281423 143.663979,36.7059946 143.663979,36.7059946 C143.663979,36.7059946 144.612077,34.2774936 145.279191,33.5740036 C145.945858,32.8712296 149.788811,31.0608941 151.46711,31.3150328 C153.144963,31.5694847 155.197312,31.6026838 156.226394,31.3038471 C157.255477,31.0049657 162.067557,31.8533325 164.338698,33.5163303 C166.609839,35.17897 169.408497,37.8965539 169.448765,39.6810281 C169.489034,41.4658603 166.123038,50.5503343 164.784336,52.6192381 C163.446081,54.6876944 161.134672,58.3378061 160.363754,61.2984325 C159.593285,64.2595062 154.929303,69.8156582 149.737356,72.4926156 C144.546753,75.1695731 129.904695,80.4013403 124.470243,81.0908257 C119.035344,81.7803112 105.123487,83.362414 104.110065,83.6058145 C103.095747,83.8487675 99.3239349,83.8089465 99.3239349,83.5650986 C99.3239349,83.3221456 99.0966418,82.9565975 99.1373577,82.6729286 C99.1776262,82.3888123 96.403577,82.4697966 94.6187896,82.1458592 C92.8344496,81.8205796 73.0827722,76.3051435 68.7838909,73.3445172 C64.4845621,70.3834434 51.2232649,65.0438462 49.0451889,49.4626386" id="path44" fill="#100F0D"></path>
                        <path d="M173.732434,31.0720798 C165.129302,17.1347199 143.518117,6.51548082 113.936462,6.51548082 C75.1310943,6.51548082 50.0371352,24.7869345 50.0371352,44.854585 C50.0371352,64.9216986 75.1310943,83.1937339 113.936462,83.1937339 C143.518117,83.1937339 165.129302,72.5740474 173.732434,58.6366876 L197.695297,58.6366876 L195.941382,65.4022355 C192.596863,65.4022355 188.870241,68.0084994 188.315432,68.4344502 C188.315432,68.4335553 188.314537,68.4331079 188.314537,68.4322131 C172.647423,80.6232642 145.19239,88.7069329 113.936462,88.7069329 C65.2214749,88.7069329 25.7303797,69.0733763 25.7303797,44.854585 C25.7303797,20.6349436 65.2214749,1.00216552 113.936462,1.00216552 C145.19239,1.00216552 172.64787,9.08590581 188.314537,21.2765543 C188.314984,21.2757042 188.315432,21.2746303 188.315879,21.2742724 C188.870241,21.7002232 192.596863,24.3064871 195.941382,24.3064871 L197.695744,31.0720798 L173.732434,31.0720798" id="path46" fill="#52131C"></path>
                        <path d="M113.936462,87.7046958 C65.8518999,87.7046958 26.732751,68.4818775 26.732751,44.854585 C26.732751,21.2269346 65.8518999,2.00451002 113.936462,2.00451002 C143.979415,2.00451002 171.554358,9.50469775 187.698877,22.0670688 L188.663977,22.8182545 L188.698429,22.7493954 C190.050107,23.6112298 192.594179,25.0157488 195.155252,25.2693506 L196.399995,30.0697532 L174.286349,30.0697532 C164.574493,14.9078743 141.527513,5.51279628 113.936462,5.51279628 C95.5655457,5.51279628 78.8599533,9.70375815 66.8966426,17.3136908 C55.3780747,24.6411627 49.0348981,34.4223705 49.0348981,44.854585 C49.0348981,55.2867995 55.3780747,65.0675599 66.8966426,72.3950765 C78.8599533,80.0049197 95.5655457,84.195971 113.936462,84.195971 C141.527513,84.195971 164.574493,74.8004456 174.286349,59.6389247 L196.399995,59.6389247 L195.155252,64.4398194 C192.944962,64.6586114 190.746751,65.7351214 189.316774,66.5798641 L189.316774,66.3825487 L187.698877,67.6411616 C171.553463,80.2040248 143.97852,87.7046958 113.936462,87.7046958 Z M113.936462,0 C90.2237114,0 67.9145397,4.59821018 51.1190144,12.9484561 C34.1007598,21.4093954 24.728232,32.7404914 24.728232,44.854585 C24.728232,56.9682312 34.1007598,68.2993272 51.1190144,76.7601771 C67.9149871,85.1105124 90.2237114,89.70917 113.936462,89.70917 C143.434896,89.70917 170.648765,82.5328838 187.313194,70.438477 L187.313194,70.4675598 L188.925722,69.2295285 C188.962411,69.2013406 192.696192,66.4044726 195.941382,66.4044726 L196.716774,66.4044726 L198.990152,57.6344505 L173.17315,57.6344505 L172.879638,58.1100657 C163.710958,72.9637566 141.124829,82.1910494 113.936462,82.1910494 C95.9418321,82.1910494 79.6183425,78.1114074 67.9727052,70.7033539 C57.052795,63.7570454 51.0393723,54.5771798 51.0393723,44.854585 C51.0393723,35.1319454 57.052795,25.9516772 67.9727052,19.0053687 C79.6183425,11.5972704 95.9418321,7.51767319 113.936462,7.51767319 C141.124829,7.51767319 163.710958,16.744966 172.879638,31.5986569 L173.17315,32.0747643 L198.991046,32.0747643 L196.716774,23.3043395 L195.941382,23.3043395 C192.693955,23.3043395 188.963306,20.507919 188.926617,20.4792389 L188.229078,19.9435342 L188.226394,19.946353 C171.655029,7.44425037 143.980757,0 113.936462,0 Z" id="path48" fill="#CD2C23"></path>
                        <path d="M136.17852,52.8187906 C136.17852,52.8187906 117.7821,57.541833 109.826843,57.1691261 C119.025053,56.0505579 133.692167,52.3216989 135.556596,51.3270681 C135.432211,52.3216989 136.17852,52.8187906 136.17852,52.8187906" id="path50" fill="#CD2C23"></path>
                        <path d="M134.527513,49.6129742 C134.527513,49.6129742 115.903353,53.3355691 107.979863,52.5337794 C117.225053,51.9136452 132.072032,48.9821017 133.987469,48.0899317 C133.810287,49.0765088 134.527513,49.6129742 134.527513,49.6129742" id="path52" fill="#CD2C23"></path>
                        <path d="M134.36107,45.7803121 C134.36107,45.7803121 115.536015,48.2975379 107.680534,46.9879183 C116.945858,46.9633098 131.951227,44.99284 133.920355,44.225547 C133.679191,45.1986566 134.36107,45.7803121 134.36107,45.7803121" id="path54" fill="#CD2C23"></path>
                        <path d="M150.720802,60.6496629 C150.720802,60.6496629 148.303352,60.1512289 145.693509,60.8970902 C143.083665,61.6425041 141.212077,66.3055912 134.127513,69.0398193 C135.618789,67.9208037 139.658162,62.8867993 139.658162,62.8867993 C139.658162,62.8867993 138.912748,59.9038016 139.658162,58.0393722 C142.144515,57.6666652 144.408945,59.4885891 144.408945,59.4885891 C144.408945,59.4885891 148.483665,58.6604012 150.720802,60.6496629" id="path56" fill="#FFFFFF"></path>
                        <path d="M156.438475,39.8916321 C156.438475,39.8916321 159.42192,36.908187 156.935567,34.1740036 C159.42192,34.2984331 164.890824,36.2872474 166.258161,38.275659 C163.523933,37.1574487 158.924828,37.1570908 156.438475,39.8916321" id="path58" fill="#CD2C23"></path>
                        <path d="M100.256373,78.6724813 C100.256373,78.6724813 89.0689016,75.0680071 86.334226,74.0738237 C90.8093937,74.4465306 100.62908,78.0514522 101.126172,76.4353448 C101.126172,77.8026826 100.256373,78.6724813 100.256373,78.6724813" id="path60" fill="#CD2C23"></path>
                        <path d="M91.6867986,70.8595061 C91.6867986,70.8595061 85.8823245,68.4201325 83.6111836,66.5548082 C81.3400427,64.6894838 76.7977609,62.8241595 76.7977609,62.8241595 L81.5923917,63.540938 C81.5923917,63.540938 79.8255014,58.0890366 77.0496625,56.0800881 C78.061743,56.1436228 80.1619667,57.0205802 80.0782978,56.9413856 C80.0782978,56.9413856 80.8353447,52.3494394 78.5642039,50.4841151 C81.5923917,51.2017884 81.5923917,51.2017884 81.5923917,51.2017884 C81.5923917,51.2017884 84.8729285,46.753019 88.9105123,44.8876946 C92.9485435,43.022415 97.7427269,39.0053682 99.2572682,37.1395964 C94.2102885,43.1660839 85.8823245,50.4841151 85.8823245,56.366889 C85.8823245,62.2501103 84.8729285,65.1199089 91.6867986,70.8595061" id="path62" fill="#CD2C23"></path>
                        <path d="M120.410288,21.2238026 C120.410288,21.2238026 124.793285,19.2215655 132.584784,25.8228629 C131.557044,18.4644291 127.433554,16.2138251 123.73512,15.5028184 C121.331093,17.6352568 120.410288,21.2238026 120.410288,21.2238026" id="path64" fill="#CD2C23"></path>
                        <path d="M136.805366,24.1995072 C136.805366,24.1995072 136.426395,17.7605812 130.957939,13.680984 C130.143173,15.6536461 124.491719,14.988277 122.218341,17.2979414 C126.416552,18.6806259 129.068006,19.0053687 136.805366,24.1995072" id="path66" fill="#CD2C23"></path>
                        <path d="M144.754806,34.2984331 C144.754806,34.2984331 144.80805,31.8536905 136.127961,25.3745408 C142.821473,25.2214311 147.803128,25.3745408 152.989258,32.1306927 C147.489034,30.3208941 145.544515,33.1127509 144.754806,34.2984331" id="path68" fill="#CD2C23"></path>
                        <path d="M162.901114,32.8317218 C162.901114,32.8317218 156.513643,24.1212075 144.288587,24.5184781 C151.282323,29.5964198 151.46711,31.3150328 151.46711,31.3150328 C154.155701,31.7633102 159.292166,30.0929746 162.901114,32.8317218" id="path70" fill="#CD2C23"></path>
                        <path d="M118.145411,25.9740486 C117.479192,28.5297979 117.04474,29.5020574 116.802234,30.6241156 C116.559729,31.7467106 116.344964,35.5583884 118.481876,34.228724 C119.127066,33.8272475 121.515433,30.0473818 122.324829,27.1798203 C122.324829,29.092214 121.515433,31.0032207 121.515433,31.0032207 C121.515433,31.0032207 125.603576,26.3947197 126.561518,21.91991 C124.271585,20.0076952 121.003576,20.2165543 120.02729,20.3892165 C119.231317,22.7565542 118.145411,25.9740486 118.145411,25.9740486" id="path72" fill="#CD2C23"></path>
                        <path d="M143.755701,36.3342273 C143.755701,36.3342273 134.066216,37.1694845 129.723039,36.3342273 C125.379863,35.499328 128.493509,25.1795072 129.745858,23.2814312 C128.599997,22.3638473 128.599997,22.6392836 128.599997,22.6392836 C128.599997,22.6392836 124.541831,36.3141378 128.026842,37.0782541 C131.512748,37.8425494 143.307379,37.2693056 143.307379,37.2693056 L143.755701,36.3342273" id="path74" fill="#CD2C23"></path>
                        <path d="M121.013867,19.0569123 C121.013867,19.0569123 125.488587,18.6984335 130.957491,23.2380755 C129.663084,18.8966438 127.495299,16.1280085 125.00984,15.6505142 C122.520802,16.3540041 121.013867,19.0569123 121.013867,19.0569123" id="path76" fill="#FFFFFF"></path>
                        <path d="M135.680981,22.5213417 C135.680981,22.5213417 134.313643,17.2649213 129.714538,15.1144963 C127.476954,14.9954359 123.499773,15.9507826 123.499773,15.9507826 C123.499773,15.9507826 129.963308,17.9811629 135.680981,22.5213417" id="path78" fill="#FFFFFF"></path>
                        <path d="M145.873374,32.6822811 C145.873374,32.6822811 142.39239,28.0837577 138.539594,26.0948092 C142.37852,26.2559278 147.354806,27.1686347 151.083665,31.1458158 C148.970466,31.1458158 146.370466,31.9365093 145.873374,32.6822811" id="path80" fill="#FFFFFF"></path>
                        <path d="M158.427289,31.1910954 C158.427289,31.1910954 155.816998,26.7162857 146.74362,25.3490374 C151.342278,27.9593282 153.08277,31.3150328 153.08277,31.3150328 C154.574045,31.5637129 154.574045,30.4451447 158.427289,31.1910954" id="path82" fill="#FFFFFF"></path>
                        <path d="M119.652793,78.8518996 C119.652793,78.8518996 109.043398,82.8053671 106.42729,83.338253 C103.809841,83.8706914 100.683666,84.217895 100.104695,84.1950762 C99.5257246,84.17181 98.8774024,84.0331075 98.9467537,83.384338 C99.0161049,82.7360158 98.83087,82.7127496 99.4791921,81.578074 C100.127514,80.4433984 100.544517,80.2348973 100.845635,79.4246065 C101.146754,78.6138683 102.8604,77.363309 102.327514,79.1002217 C101.795076,80.8371344 110.016105,80.0729286 111.498431,79.6559264 C112.98031,79.2393716 119.652793,78.8518996 119.652793,78.8518996" id="path84" fill="#100F0D"></path>
                        <path d="M106.719908,19.8930196 C107.206709,19.2675163 109.722592,17.3682322 110.490825,16.1793732 C113.863532,10.9596865 118.399997,8.14143156 124.742726,8.78304229 C134.189258,9.73870222 131.205813,15.7113195 131.205813,15.7113195 C131.205813,15.7113195 124.867111,15.1144963 122.50559,17.623221 C120.143621,20.1319458 112.312749,37.4058156 119.398207,38.1517216 C126.482771,38.8974934 128.595523,40.0165986 142.268453,37.7789252 C144.009392,34.4229074 145.500668,29.4505138 153.08277,31.3150328 C156.314537,29.9480977 162.514985,31.0551223 165.76107,33.8013862 C168.992837,36.5355696 172.473374,37.6541378 169.117222,45.2366879 C165.76107,52.8187906 163.274716,56.29888 162.280533,58.2876943 C161.286349,60.2765086 163.399548,63.383891 157.433106,68.2317656 C151.46711,73.0791928 144.629974,78.9212508 121.013867,82.1525707 C97.3968656,85.3847853 97.3968656,85.7574923 98.3914964,82.1525707 C99.3861273,78.5480965 100.877402,78.9212508 101.498879,73.204025 C101.995971,76.5597296 101.250109,79.6666647 100.753018,80.5369107 C100.256373,81.4071568 99.883219,83.3955236 99.883219,83.3955236 C99.883219,83.3955236 101.872033,82.8984319 107.340937,82.1525707 C112.809841,81.4071568 117.284561,79.9154342 119.895299,79.7914969 C122.50559,79.6666647 122.008498,81.4071568 127.974493,79.7914969 C133.940936,78.175837 149.522591,72.4935105 154.325276,68.2317656 C163.150779,60.4008933 156.56286,62.5140924 161.410734,56.6720344 C165.064873,52.2675602 167.003575,46.4800883 167.749437,43.7454575 C168.495298,41.0102003 169.738251,38.772706 166.382546,36.1624152 C163.026394,33.5524824 161.907826,31.4398202 156.811629,31.5637129 C154.946752,31.8126167 153.828632,32.3096636 153.828632,32.3096636 C153.828632,32.3096636 147.365097,30.569082 145.500668,34.2984331 C143.636238,38.0272921 143.387468,38.7730639 143.387468,38.7730639 C143.387468,38.7730639 129.466216,41.6322137 118.279639,39.6434442 C113.556149,39.2706478 115.171809,35.3033996 115.669348,32.6751222 C116.16644,30.0473818 119.398207,19.0572702 121.759281,16.7874269 C124.12125,14.5172703 128.098431,14.6366439 128.720355,14.6366439 C129.341831,14.6366439 130.067111,13.7816551 129.303352,12.1642503 C128.783442,11.0621026 126.548543,9.20004451 121.328409,9.79776262 C116.107827,10.3951675 114.64116,13.2295299 113.476955,14.9919459 C112.47785,16.5051897 106.346753,25.3880083 105.72483,26.1051 C106.097984,23.954854 106.222369,22.162863 106.222369,22.162863 C106.222369,22.162863 106.30559,20.4241606 106.719908,19.8930196" id="path86" fill="#CD2C23"></path>
                        <path d="M116.911854,76.9324366 C116.911854,76.9324366 112.437134,78.4237117 110.945859,78.796866 C109.454136,79.169573 104.481877,80.9100651 102.866664,81.7798637 C102.990601,80.4129734 104.482324,78.0510048 105.476507,77.1812061 C106.470691,76.3109601 106.346753,73.9494389 105.72483,72.9552554 C109.330199,75.9382531 111.442503,73.9494389 116.911854,76.9324366" id="path88" fill="#CD2C23"></path>
                    </g>
                </g>
            </g>
        </g>
    </g>
</svg>