<?xml version="1.0" encoding="UTF-8"?>
<svg width="200px" height="200px" viewBox="0 0 200 200" version="1.1" xmlns="http://www.w3.org/2000/svg" xmlns:xlink="http://www.w3.org/1999/xlink">
    <!-- Generator: Sketch 51.3 (57544) - http://www.bohemiancoding.com/sketch -->
    <title>claremont-m-s</title>
    <desc>Created with Sketch.</desc>
    <defs>
        <path d="M25.2648337,34.4361032 C25.255399,34.6250445 25.0302918,34.6362726 24.9249117,34.4539132 C24.1333327,33.0883476 23.2766856,31.7642097 22.3573094,30.48692 C16.9139957,22.9281446 9.31543836,17.0046796 0.452912269,13.6034649 C-0.154269002,13.3694951 -0.0941169567,13.0455072 0.546265094,13.1163215 C8.542261,14.0072495 15.947407,16.8366457 22.2743074,21.119922 C22.95536,13.4171176 25.4693561,6.23773487 29.3817147,0.0128542042 C31.1280304,2.1271772 32.7247945,4.36768047 34.1552428,6.72065803 C30.7104476,12.0927087 28.143586,18.0733595 26.6582839,24.4671258 C25.9082645,27.6938408 25.4376992,31.0262545 25.2648337,34.4361032 Z" id="path-1"></path>
        <linearGradient x1="-6.803615e-05%" y1="49.9997902%" x2="99.9999429%" y2="49.9997902%" id="linearGradient-3">
            <stop stop-color="#960A2B" offset="0%"></stop>
            <stop stop-color="#45030D" offset="100%"></stop>
        </linearGradient>
        <path d="M8.57883019,9.89657568 C5.86167627,15.6821291 4.34132543,22.1340103 4.34132543,28.938995 C4.34132543,38.8119531 7.53988285,47.9395995 12.9584012,55.3667742 C13.0155162,55.4202043 13.0612083,55.4844753 13.0965299,55.5553283 C13.1403895,55.6436042 13.1673291,55.7415594 13.1673291,55.8476453 C13.1673291,56.214687 12.8670172,56.5131988 12.4969588,56.5131988 C12.3545806,56.5131988 12.2235864,56.4678994 12.1146976,56.3927875 C12.04191,56.3110936 11.9723194,56.2259151 11.8999607,56.1430597 C4.50549696,47.7181355 0.023586744,36.705722 0.023586744,24.651421 C0.023586744,18.2390316 1.29372316,12.1228309 3.59251453,6.53125211 C4.52074063,4.27402288 5.61649109,2.10239801 6.86600373,0.0317483356 C8.50955144,1.4627852 10.0552824,3.00060489 11.4898633,4.63796722 C15.8679138,9.6317481 19.2201165,15.5346155 21.2247168,22.0228912 C21.6374264,23.3590315 20.858479,23.8166721 20.1716174,22.7093521 C17.1106039,17.7751962 13.1749704,13.4338049 8.57883019,9.89657568 Z" id="path-4"></path>
        <linearGradient x1="56.7898826%" y1="11.3064758%" x2="35.4958714%" y2="101.313399%" id="linearGradient-6">
            <stop stop-color="#960A2B" offset="0%"></stop>
            <stop stop-color="#45030D" offset="100%"></stop>
        </linearGradient>
        <path d="M8.16881071,6.87854792 C4.04132544,14.7978218 2.05547753,23.5286141 2.27933717,34.2854922 C2.29302139,34.9398176 2.31937616,35.5891098 2.35290442,36.2356918 C2.35972704,36.3642338 2.24931768,36.7479241 2.18721242,36.8118079 C1.67855746,37.3317837 1.18436644,37.8629876 0.704327468,38.4046451 C0.631539945,38.4871134 0.457933712,38.4050323 0.443937611,38.2811364 C0.212748533,36.2174946 0.0703703686,34.1104892 0.0254191027,31.9670893 C-0.225380111,19.900786 2.86534106,8.58211715 7.73645205,0.134736839 C7.81988285,-0.00929219577 8.04951247,-0.0166485174 8.04990233,0.13163944 C8.05808947,2.09693885 8.14346958,4.13038102 8.34229999,5.95978207 C8.37582825,6.26565018 8.26120837,6.70122185 8.16881071,6.87854792 Z" id="path-7"></path>
        <linearGradient x1="0.000125459264%" y1="49.9996456%" x2="100.001394%" y2="49.9996456%" id="linearGradient-9">
            <stop stop-color="#960A2B" offset="0%"></stop>
            <stop stop-color="#45030D" offset="100%"></stop>
        </linearGradient>
        <path d="M11.3387911,17.7070534 C11.0842102,17.6482028 10.8280699,17.590901 10.5715397,17.5359221 C10.4865494,17.5177249 10.2869393,17.3136838 10.2717346,17.230054 C9.08148125,10.7158376 5.42651059,4.8458801 0.0662768015,0.183133692 C-0.071734891,0.0634966711 0.141130601,-0.0240048391 0.385964903,0.0545916502 C2.26705647,0.653551103 4.08070165,1.35472471 5.81325522,2.14959462 C5.89239751,2.18560188 6.20467821,2.46862668 6.28031173,2.57277671 C9.47836234,6.99082862 11.3867444,12.0519779 11.6109159,17.4654563 C11.6152044,17.5684448 11.433528,17.7287352 11.3387911,17.7070534 Z" id="path-10"></path>
        <linearGradient x1="-0.0010896835%" y1="50.0014243%" x2="99.9990198%" y2="50.0014243%" id="linearGradient-12">
            <stop stop-color="#960A2B" offset="0%"></stop>
            <stop stop-color="#45030D" offset="100%"></stop>
        </linearGradient>
        <path d="M16.0775824,21.5342765 C16.11306,21.6523649 16.0327481,21.8823467 15.8440542,21.8928004 C15.5391809,21.9098361 15.2335279,21.9071259 14.927485,21.9175796 C14.8269002,21.920677 14.5395708,21.7433509 14.4966858,21.6508162 C12.4756332,17.2614152 9.48537988,13.4194794 5.76569186,10.220641 C3.66393753,14.9019718 2.48771924,19.9956438 2.35750481,25.6619473 C2.35438591,25.8005559 2.10136447,26.1873436 1.97816759,26.2423224 C1.51461985,26.4502353 1.05653019,26.6658917 0.602339166,26.8877428 C0.484600378,26.9462062 0.227290443,26.8408947 0.216764127,26.7301627 C0.118908379,25.6917598 0.0569200765,24.6436775 0.0350877184,23.5851416 C-0.117738788,16.2462428 1.60467832,9.29219577 4.77465875,3.14928002 C4.88187122,2.94175431 5.32787511,2.45236533 5.56569187,2.24793703 C6.02339166,1.85418023 6.8206626,1.40041134 7.53177369,1.08408951 C9.02300172,0.419697509 9.89941496,0.293478517 11.8136449,0.0325226852 C12.0405455,0.00232304894 12.1376215,0.157192979 11.9816761,0.346908642 C10.1380114,2.58477912 8.53879121,4.90821524 7.20116941,7.34122184 C11.3212473,11.2648515 14.4054577,16.0464606 16.0775824,21.5342765 Z" id="path-13"></path>
        <linearGradient x1="8.45475896e-05%" y1="50.0004672%" x2="99.9998047%" y2="50.0004672%" id="linearGradient-15">
            <stop stop-color="#960A2B" offset="0%"></stop>
            <stop stop-color="#45030D" offset="100%"></stop>
        </linearGradient>
        <path d="M54.3415191,53.9249351 C56.3142286,52.6573248 62.1524351,49.5088191 62.1524351,49.5088191 C62.1524351,49.5088191 61.8920062,49.2432172 59.9555541,49.8444997 C59.2920063,50.0086618 57.9812851,50.1546267 57.2140337,50.1546267 C56.373098,50.1546267 55.321636,49.8495329 55.321636,49.8495329 L54.7929811,50.0857096 C54.7929811,50.0857096 54.9134489,50.1159092 55.9048719,50.5127634 C56.6003884,50.7903678 57.0842091,50.8426364 57.3446379,50.8488312 C56.0853787,51.4036527 54.7099402,52.0850804 53.4483417,52.7769618 C53.2740727,51.7687585 52.382065,51.0110574 51.3212463,51.0331264 C50.3653009,51.0524851 49.3629617,51.7037132 49.0428838,52.5748565 C49.2569188,52.3948202 49.5282639,52.2794421 49.8304081,52.2732473 C50.5286537,52.2589219 51.1060416,52.8090973 51.1204666,53.5025274 C51.1345016,54.1820192 50.0202717,54.8452497 50.0713438,54.874675 C48.9255348,55.6672218 48.2826499,56.1550621 47.7001937,56.5166834 C47.2869384,56.7729931 46.3473673,56.7811238 46.2791411,56.8244874 C45.8935661,57.0715049 45.693956,57.1923035 45.693956,57.1923035 C45.693956,57.1923035 47.2576986,57.2325697 48.0853789,57.4486132 C48.9134491,57.6654311 49.1512658,57.7769375 49.1512658,57.7769375 C49.1512658,57.7769375 52.3680299,55.191384 54.3415191,53.9249351 Z M79.8179317,74.4088064 C79.5711481,74.6039425 79.3270935,74.8029503 79.0849883,75.0023454 C79.0116939,75.0623575 78.6382047,75.0344809 78.5231949,74.9609177 C75.1508753,72.7989334 71.4931756,71.0353521 67.6175422,69.7402523 C62.9738776,68.1884556 58.0202715,67.3076329 52.8787511,67.2116136 C52.4506809,67.174832 52.3072112,67.2065803 52.0393749,67.201547 C51.6604276,67.2007727 51.2795309,67.2038701 50.8982443,67.2120007 C44.0974648,67.3513837 40.1356715,70.4886613 38.1582836,73.9283224 C37.9352817,74.3170459 37.717348,74.7080925 37.5103304,75.1041724 C35.1079913,79.698776 33.8230011,84.7684431 33.9337223,90.0762228 C33.9727087,91.9365978 34.1816756,93.7598041 34.5477574,95.5377109 C35.3142291,99.2572994 36.771539,102.77517 38.8038977,106.003046 C38.8732934,106.11223 38.8884981,106.384026 38.8268996,106.410354 C38.4818704,106.559417 38.1399601,106.713512 37.7996092,106.869931 C37.702923,106.914456 37.3980497,106.837408 37.3422993,106.753391 C33.6440537,101.173815 31.3329427,94.7722662 30.8339174,87.9111412 C30.7859641,87.2482979 30.7524359,86.58197 30.7384008,85.910996 C30.7243657,85.2206633 30.7298238,84.533428 30.7524359,83.8508388 C30.8268998,81.5498588 31.1072117,79.2934039 31.5762175,77.0942509 C31.6202721,76.8878868 31.2775821,76.686943 31.0615977,76.7945776 C30.2545801,77.198401 29.4627673,77.6262292 28.6826504,78.0726417 C24.1590637,80.6609054 20.1046389,83.9588606 16.6625727,87.8038938 C16.553216,87.9258538 16.4268222,88.5027443 16.4744635,88.6878139 C17.0821048,91.0453214 17.9527481,95.4486607 17.4163738,99.823349 C16.8890054,104.118279 15.1739177,110.347922 14.9028456,111.370838 C14.8343076,111.629858 14.5830406,111.691032 14.5830406,111.691032 L13.3608964,111.214419 C13.3608964,111.214419 13.2261205,111.080844 13.2629626,110.948043 C13.5741127,109.830657 14.7886156,104.66497 14.978986,102.71206 C15.3635084,98.7655874 15.3277189,96.4007235 14.2784402,94.0683824 C13.7637034,92.9250551 12.5712667,93.0435306 12.0659646,93.8271725 C8.29801149,99.6696406 5.77150083,106.370088 4.85317727,113.554891 C4.8402338,113.657493 4.70545797,113.825139 4.65017532,113.806942 C4.22682251,113.66601 3.80011686,113.531661 3.37142292,113.401957 C3.29680304,113.379501 3.15364515,113.178945 3.15699797,113.10151 C3.6306042,102.146398 7.85711481,92.1108265 14.6241322,84.2360777 C14.7683817,84.0680439 14.6099801,83.7850191 14.3523193,83.822575 C13.1731381,83.9956422 11.5722414,84.3541661 9.88183211,85.0998648 C6.25274838,86.699284 1.96226116,92.2060715 1.13122804,93.303325 C1.00007795,93.4771664 0.823586724,93.3946982 0.768771911,93.3865675 L0.0746198812,93.0725688 C0.0746198812,93.0725688 -0.0414035077,92.9417037 0.0182845999,92.8259384 C0.633216358,91.6369245 4.30951256,84.8284552 9.16257287,82.112811 C12.9139178,80.0131619 16.9605844,79.5268704 19.0245609,79.4223332 C19.1573874,79.4157512 19.6047948,79.2260355 19.7083816,79.1365981 C22.418362,76.7938033 25.3957109,74.7413895 28.5906426,73.0293025 C29.6740733,72.4485402 30.7812858,71.9057211 31.9130596,71.4051041 C32.4421045,71.1716377 32.9773871,70.948625 33.5161785,70.7329686 C33.6619875,70.6779898 33.7929816,70.6257212 33.9165684,70.5738397 C34.0678354,70.113876 34.189083,69.7375421 34.2502915,69.5327266 C34.5465878,68.5384617 33.6307984,67.7188126 33.2128647,67.4055882 C32.4331376,66.9796958 31.5750479,66.9975059 31.123586,67.5112869 C30.9649115,67.6913232 30.8736834,67.9131743 30.8452234,68.1551586 C30.8218316,68.3541665 30.4362565,69.9501011 28.3945412,70.4243903 C21.8548922,71.9440514 17.0943076,72.3281289 8.95360601,70.5986189 C8.82721225,70.5719039 8.78760212,70.4751102 8.86604266,70.3845112 C8.89575026,70.3697986 10.1806235,69.373985 10.7722804,68.8644629 C13.5527872,66.4678507 15.2934499,64.5288792 18.3890834,62.6444993 C19.215711,62.1415592 20.0883426,62.1423336 20.6345804,62.2441606 C21.4173484,62.3893511 22.6037031,63.7216197 21.4988299,65.0159451 C21.1018318,65.4821036 20.7906817,65.4704884 19.4387909,65.9350982 C15.6224168,67.248008 14.793177,67.9704762 9.86537987,70.1642088 C9.77520443,70.23119 9.80370346,70.3113352 9.95189059,70.2981713 C15.5112277,69.8068464 20.8338006,68.2825391 25.6986348,65.9021883 C25.8046777,65.8506941 26.5532157,65.5196596 26.0253405,64.9721944 C21.1377772,59.9052375 16.7766078,52.9972643 14.9127482,44.3984986 C11.739298,29.8054923 17.1949703,17.2045005 19.0149703,14.047477 C19.0149703,14.047477 19.4703309,17.2819354 20.3038202,20.5349783 C20.3794927,18.4674648 20.8946973,16.6783299 21.5685765,15.2000964 C23.0202333,12.0125635 25.1886933,10.2613331 25.1886933,10.2613331 C25.1886933,10.2613331 24.9044828,12.8730983 24.9173483,15.9969022 C24.9196875,16.556757 24.9317733,17.1320988 24.9571144,17.7120867 C25.4222216,16.2381121 26.05536,14.9639972 26.7699798,13.8623687 C28.2343073,11.6035908 30.0444437,10.0836198 31.4916171,9.12915646 C31.9769973,8.80942749 32.8413247,8.32305847 32.8483423,8.32472332 C33.2658861,8.10558237 33.5961005,7.95721698 33.7984397,7.87250313 C33.6374261,8.16288425 33.4374261,8.53252005 33.2077964,8.97355089 C32.0284592,11.2389495 30.097855,15.333633 28.9851845,19.7552082 C28.6709544,21.0022983 28.5091611,22.2273195 28.4541903,23.3958131 L28.9504866,23.0469686 L30.1142293,22.2296425 C30.8140343,18.9665331 32.3103306,15.2000964 35.3294338,11.5981703 C41.8187124,3.85509972 51.4526303,0.717473666 55.0635464,0.00665940697 C55.1356711,0.461589825 56.035866,6.37916983 55.1851838,12.4732241 C54.8998037,14.5140613 54.5181273,16.2776039 54.1306029,17.73493 C55.3469772,17.3287836 56.8031175,17.156878 56.8031175,17.156878 C56.8031175,17.156878 55.6842091,24.5623708 49.7013633,31.0765872 C41.751266,39.7326548 31.4588686,43.8525821 28.1422995,45.0706341 C28.215204,45.3331386 28.2947361,45.5925457 28.372319,45.8527272 C29.2304086,48.7391155 30.3508764,51.5116745 31.7111103,54.1409787 C31.7793364,52.9225395 31.8007789,51.6917107 31.7750479,50.4508154 C31.7380109,48.6775547 31.6015587,46.9294604 31.3769973,45.210017 C31.960623,45.0648265 32.5387906,44.9080207 33.1138393,44.742697 C37.8167632,43.3875851 42.2187124,41.3440764 46.2042873,38.7306463 C47.6947356,39.2424915 49.9918116,40.0443305 51.6604276,40.0102591 C53.6327472,39.9692186 55.4986341,39.5150625 57.1777763,38.7337437 C57.3465873,38.6439192 58.2764118,38.1293638 58.6417139,37.6221648 C58.8892773,37.2779664 59.0031174,36.7607008 59.0031174,36.7607008 L59.16725,36.6147359 C59.4120843,36.936091 59.9005833,37.3166839 60.2268991,37.5524734 C60.28148,37.5919652 60.3376203,37.6326185 60.3925911,37.671336 C60.4892772,37.7387044 60.550096,37.7778091 60.550096,37.7778091 L60.5489264,37.7785834 C61.2908367,38.2912029 62.0253396,38.763169 62.7621817,39.2049355 C62.0031174,39.8499688 60.3805053,41.1264842 58.4807003,42.0026608 C57.250291,42.5706462 55.004677,43.1932234 54.258868,43.3360909 C53.7138388,43.4410152 53.1208564,43.0910092 52.9972696,43.1274036 C52.5645211,43.2536226 52.5766069,43.349642 52.5766069,43.349642 C52.5766069,43.349642 54.1832345,44.3090612 55.4050668,44.6246087 C56.930213,45.0175911 58.2304079,44.7419227 58.2304079,44.7419227 C58.2304079,44.7419227 59.4908367,43.1386317 60.8775813,41.9422615 C61.9477567,41.0188495 63.3306027,40.1953287 63.9087703,39.8666173 C66.2385948,41.1574581 68.6444427,42.173792 71.4366454,43.1514085 C71.7500957,44.7086256 72.1395693,46.2368047 72.5999982,47.734784 C72.2639358,47.8490006 71.9306025,47.9705735 71.5980489,48.0917592 C71.3430781,47.7998294 70.8701737,47.3414144 70.2237799,47.0777484 C69.2249495,46.6685046 68.3426883,46.6104284 68.3426883,46.6104284 L69.5773862,44.7999989 C69.5773862,44.7999989 67.8132537,44.6246087 66.8725129,45.3253951 C65.9317722,46.0265687 65.4027274,47.3104404 65.4027274,47.3104404 C65.4027274,47.3104404 67.1079905,47.0777484 68.4015577,47.4277544 C69.1933706,47.6418621 70.0717331,48.1188615 70.635086,48.4560907 C64.226899,50.9514325 58.4931759,54.7604584 53.7688096,59.5490366 C53.1614022,60.1646446 52.7384002,60.5839549 52.7508759,61.1743965 C52.7508759,61.1941425 52.7532151,61.213114 52.7547745,61.2328599 C52.7543846,61.2510571 52.7524353,61.2688672 52.7532151,61.2870644 C52.7707589,62.1415592 53.4826497,62.8202767 54.3430786,62.8024667 C55.2035074,62.7846566 55.8865483,62.0776754 55.8686146,61.2231806 C55.8682247,61.2049833 55.8658855,61.1871733 55.8643261,61.1689761 C55.8651058,61.1496173 55.8666653,61.1298714 55.8662754,61.1101255 C55.858868,60.7736706 55.7582832,60.4627692 55.590252,60.2045236 C55.4896672,60.0500408 55.5571136,59.9466652 55.7118894,60.0380384 C56.6241701,60.5754371 57.2452227,61.5534407 57.2686146,62.6839912 C57.2818699,63.3154733 57.1048719,63.9063021 56.7933709,64.4061448 C65.2417138,65.5289518 73.0163724,68.8257454 79.511499,73.7242813 C79.8311871,73.965104 80.1064307,74.1795989 79.8179317,74.4088064 Z" id="path-16"></path>
        <linearGradient x1="-9.1003909e-06%" y1="49.9998755%" x2="99.9997627%" y2="49.9998755%" id="linearGradient-18">
            <stop stop-color="#960A2B" offset="0%"></stop>
            <stop stop-color="#45030D" offset="100%"></stop>
        </linearGradient>
        <path d="M93.3536039,17.2334999 C85.3766061,14.6747002 70.0600372,13.7710341 54.6062365,14.3215193 C36.5255351,14.9650813 24.3773873,19.1666638 18.5598436,21.7460612 C17.355945,22.2799365 16.4218319,22.7338216 15.7641322,23.0567254 C15.7497072,23.0187435 15.7345025,22.9808004 15.7200776,22.9432832 C15.4779723,22.3101749 15.2257306,21.6825645 14.9621829,21.0600261 C14.1808963,19.214325 13.3056527,17.4166723 12.3407404,15.6751212 C9.12319665,18.5995301 6.24444429,21.8850569 3.76179328,25.466424 C3.37192974,24.542199 2.95762176,23.6312928 2.52132547,22.7321567 C1.75150093,21.1471404 0.911150075,19.6022354 0.00319688101,18.1035979 C2.21017538,14.646088 4.78011684,11.4422163 7.6588692,8.54339967 C10.8916177,5.28888553 14.5126702,2.41984265 18.4487325,0.0119482151 C19.4588689,2.6761911 20.2717344,5.43558607 20.8771925,8.2728419 C21.7532158,8.10116858 22.6463932,7.93936822 23.555555,7.78569853 C24.8510715,7.56806757 26.1769974,7.36828536 27.5306036,7.19057211 C35.9368412,6.07984498 45.3594531,5.73940216 54.4432735,6.42013293 C81.4023371,8.43921092 93.2643252,16.3360673 93.4315766,16.4971321 L93.3536039,17.2334999 Z" id="path-19"></path>
        <linearGradient x1="84.5428924%" y1="50.0001065%" x2="3.92782955%" y2="50.0001065%" id="linearGradient-21">
            <stop stop-color="#960A2B" offset="0%"></stop>
            <stop stop-color="#45030D" offset="100%"></stop>
        </linearGradient>
        <path d="M34.7863539,13.2155157 C25.9680305,16.3673511 18.3422997,21.9972602 12.7539958,29.2568656 C12.6113057,29.4427095 12.4690055,29.6289406 12.3286547,29.8171075 C12.1621829,30.0393459 11.9976605,30.2615842 11.836257,30.48692 C10.9165689,31.7642097 10.0596489,33.089122 9.2670563,34.4562363 C9.16257287,34.6378213 8.93957093,34.6471135 8.93060407,34.4686259 C8.78791401,31.6283114 8.43586724,28.8429757 7.89122787,26.1269443 C7.78011676,25.5709612 7.66276784,25.0165269 7.5348926,24.4671258 C7.25614017,23.2652577 6.93879125,22.0781797 6.58362557,20.9066661 C5.05341118,15.8471043 2.83508765,11.0828793 0.0382066267,6.72065803 C1.46861595,4.36768047 3.065497,2.1271772 4.81208565,0.0128542042 C8.72397639,6.23773487 11.2378165,13.4171176 11.9192979,21.119922 C18.5235863,16.6485174 26.303703,13.7613548 34.703313,13.0098484 C34.9949309,12.9839852 35.0499017,13.121742 34.7863539,13.2155157 Z" id="path-22"></path>
        <linearGradient x1="-1.01546111e-13%" y1="49.9998511%" x2="99.9998878%" y2="49.9998511%" id="linearGradient-24">
            <stop stop-color="#960A2B" offset="0%"></stop>
            <stop stop-color="#45030D" offset="100%"></stop>
        </linearGradient>
        <path d="M93.6771906,24.6638106 C93.2296273,25.5883067 92.8050659,26.5276702 92.4062355,27.4797331 C89.9403486,23.898366 87.0814793,20.6128392 83.8857679,17.6884303 C83.4674443,18.4476801 83.0690038,19.2174998 82.685378,19.997115 C81.8783605,21.6365681 79.8916159,26.4460151 79.8822592,26.471104 C79.8822592,26.471104 52.7072112,0.797944082 0.484600378,7.04356183 C0.395321628,7.05475118 0.0140350874,6.37719524 0.0140350874,6.37719524 C10.1812863,2.39428911 22.8803113,0.0305519654 33.2573091,0.0305519654 C57.107211,0.0305519654 75.2635459,10.3638957 75.2635459,10.3638957 C75.8756316,7.31957876 76.7454172,4.8744536 77.8183216,2.0252573 C81.7278732,4.43315173 85.3247542,7.30219461 88.5352804,10.5567087 C91.3941498,13.4555254 93.9465863,16.659397 96.1395687,20.1169069 C95.2537988,21.5896813 94.4315766,23.1066322 93.6771906,24.6638106 Z" id="path-25"></path>
        <linearGradient x1="9.22176473e-15%" y1="50.0000635%" x2="100.000406%" y2="50.0000635%" id="linearGradient-27">
            <stop stop-color="#960A2B" offset="0%"></stop>
            <stop stop-color="#45030D" offset="100%"></stop>
        </linearGradient>
        <path d="M31.6424943,87.9657328 C32.2479524,87.6277292 34.3847945,80.2048135 34.7341122,78.7405183 C34.8132545,78.4063864 34.7910323,78.1287821 34.6713442,77.9588123 C34.5649114,77.8089757 34.3820654,77.7342509 34.1243656,77.7361868 L34.0721239,77.7373483 C33.5294339,77.7636762 33.1134495,78.1674996 32.9598432,78.8164046 C32.629239,80.2009417 31.2713442,87.3938756 31.6424943,87.9657328 Z M35.0748529,87.6594775 C35.6378159,87.4461442 37.2027281,80.1707421 37.4354766,78.7505848 C37.4705644,78.5349285 37.4799211,78.237191 37.3243655,78.0424421 C37.211695,77.9007361 37.0249503,77.8356907 36.771539,77.8476932 L36.7395702,77.8504034 C36.1715391,77.8914439 35.7695897,78.2975903 35.6651063,78.9372031 C35.4444436,80.2826356 34.651851,87.292823 35.0748529,87.6594775 Z M38.6545799,86.6013287 C39.1922017,86.369411 40.0939561,79.9392116 40.2054571,78.5852612 C40.2226111,78.3932225 40.2081861,78.1287821 40.0545799,77.9549406 C39.9255351,77.8054911 39.7138392,77.7485764 39.4261199,77.7892298 C38.6152037,77.8999618 38.4709542,78.5852612 38.4483421,78.8752551 C38.3454181,80.119635 38.2015585,86.3124963 38.6545799,86.6013287 Z M42.1360613,85.7704516 C42.6066266,85.0414014 42.8639366,79.4122666 42.8534102,78.265842 C42.8518508,77.9541662 42.7450282,77.5878988 42.245613,77.612678 C42.1906422,77.6153883 42.1321627,77.6223574 42.0690048,77.634747 C41.5415194,77.738897 41.2421042,78.1043901 41.2471725,78.6386913 C41.2549697,79.7405909 41.674073,85.100252 42.1360613,85.7704516 Z M43.9161782,78.2468704 C44.031188,79.3313471 44.9816753,84.327451 45.5114998,84.8853699 C45.9118897,84.1687093 45.6089657,78.886096 45.4947357,77.8143961 C45.4662757,77.5367918 45.3348917,77.2107906 44.8779716,77.2332467 C44.8050671,77.2375056 44.7243654,77.2495081 44.6413244,77.271577 C44.1286539,77.4008934 43.8635467,77.7570942 43.9161782,78.2468704 Z M46.5083809,77.7272818 C46.7192971,78.7153519 48.2148136,83.4005545 48.7844042,83.8574208 C49.1056518,83.1395986 48.262377,78.2395141 48.0518507,77.2464107 C47.9996089,77.0005546 47.8487317,76.7117222 47.4257298,76.7322425 C47.3368409,76.7365014 47.2385953,76.7550858 47.1348916,76.7868341 C46.6358663,76.9409297 46.4124745,77.2750616 46.5083809,77.7272818 Z M49.0690046,77.0725692 C49.3575036,77.9382921 51.2101352,81.882442 51.8896673,82.580131 C51.990642,81.5552793 50.7337219,77.4574209 50.4510709,76.6083465 C50.3855738,76.4116617 50.2331371,76.1809055 49.8760221,76.1983284 C49.7785563,76.2029745 49.6693945,76.226205 49.5539949,76.268407 C49.3111099,76.3555214 49.145028,76.4844506 49.073683,76.6408692 C49.0027278,76.7949648 49.0323574,76.9606756 49.0690046,77.0725692 Z M54.6397647,80.9838092 C54.5918115,79.9709599 53.0233905,76.4956787 52.6888876,75.7643054 C52.6140338,75.6001433 52.4612073,75.4073302 52.1567238,75.4224301 C52.0537999,75.4278505 51.9411293,75.4557271 51.8226108,75.5060598 C51.6120845,75.59511 51.4760221,75.7120368 51.4261196,75.8448378 C51.376217,75.9768644 51.4187122,76.1185704 51.4608174,76.2134282 C51.8109149,76.9777113 53.9469772,80.3647167 54.6397647,80.9838092 Z M57.0136438,78.9046804 C56.5153982,77.6645595 55.1582832,75.4797319 54.8300181,74.9233617 C54.7500961,74.7878505 54.598829,74.6287217 54.336061,74.6414984 C54.2307979,74.6465317 54.1165678,74.6790544 53.9972696,74.7367434 C53.8202716,74.8230834 53.7099402,74.9260719 53.6787511,75.0352552 C53.6463924,75.1471488 53.696295,75.267173 53.7426887,75.3480925 C54.0814801,75.918401 55.8374255,78.0714802 56.7976594,79.0467736 C56.9454177,79.1973846 57.0912266,79.0974935 57.0136438,78.9046804 Z M58.9808952,77.0245595 C58.3177373,75.9091088 56.9699791,74.2651645 56.6479518,73.8330774 C56.5664703,73.7219582 56.4194918,73.5910931 56.1929811,73.6027084 C56.087328,73.6073545 55.9742676,73.6433617 55.8576984,73.7084071 C55.7138388,73.7889395 55.62456,73.8799256 55.6062364,73.965104 C55.5847939,74.0618977 55.6518505,74.1706939 55.6927861,74.2268342 C56.0452228,74.6995747 57.6565288,76.2424663 58.6927861,77.1329684 C58.9251447,77.3319763 59.1126691,77.2464107 58.9808952,77.0245595 Z M60.6401544,75.0627446 C59.8686145,74.155594 58.7430785,73.1071246 58.4389849,72.7745414 C58.3563338,72.6839425 58.2163728,72.5782438 58.0191019,72.587536 C57.9142286,72.5929564 57.8042871,72.6312868 57.6939557,72.7017526 C57.5797257,72.7733799 57.5091604,72.8508149 57.4998036,72.9135372 C57.4916165,72.9692904 57.530213,73.0513714 57.6031175,73.1315166 C57.9469771,73.5078506 59.5107198,74.669375 60.5859634,75.4297864 C60.8440531,75.6125329 60.8974644,75.3651282 60.6401544,75.0627446 Z M62.3220257,73.3030351 C61.4795306,72.5534646 60.4491213,71.7911174 60.1504858,71.5212565 C60.0612071,71.4418857 59.9169576,71.3497381 59.7294332,71.3590303 C59.6136437,71.3648379 59.4966847,71.4078143 59.384404,71.4887338 C59.2861584,71.5580381 59.2261194,71.6304398 59.2222207,71.6830956 C59.2183221,71.7252977 59.2510706,71.8011839 59.3493163,71.889847 C59.6904469,72.1953279 60.9933708,72.9758723 62.0920062,73.6143236 C62.5590628,73.885346 62.7196865,73.6569129 62.3220257,73.3030351 Z M11.3255358,66.9607243 C12.424951,65.9300649 13.4779724,64.8525574 14.4807014,63.7285888 C17.1352822,66.5669675 22.2803113,70.8789335 30.4210519,73.0296896 L30.4233911,73.0203974 C30.4288491,73.0219461 30.4990246,73.0471125 30.6159836,73.0800224 C30.700584,73.1017042 30.7847946,73.1249347 30.8701747,73.1458421 C31.6881084,73.3386552 33.3863539,73.550827 33.8732935,72.1523515 C34.3691999,70.729484 33.3017536,69.927645 32.4202721,69.5458906 C28.8401552,68.2287218 25.6596485,66.103132 23.1048727,63.3898109 C27.0335276,62.6692785 30.7918121,61.4624546 34.3173481,59.8297384 C36.3037028,58.9101982 38.2152037,57.8551468 40.0405448,56.6777481 C40.171539,55.7396235 40.2553596,54.77943 40.2923967,53.8029751 C38.362962,55.2517833 36.3208568,56.5581111 34.1797262,57.7002768 C30.4003891,59.7174577 26.3146192,61.2282138 22.0148143,62.1500771 C21.0093562,62.366895 19.9906428,62.5515774 18.9606233,62.7021884 C19.2553601,61.4214141 19.5298241,60.1572883 19.7789469,58.9260723 C19.7933718,58.8532835 19.807017,58.7816561 19.8218319,58.7088673 C20.5746584,54.9432049 21.0740735,51.5047053 21.1009741,48.9164416 C21.1450287,44.4387648 21.1411301,40.4922918 21.1009741,37.0108158 C21.9933718,36.78548 22.9056524,36.6116385 23.8339175,36.4861939 L23.5251456,34.5681298 C23.5251456,34.5681298 23.2148142,33.6443307 24.0483425,33.525468 C24.8814809,33.405831 28.3516562,32.774736 28.3516562,32.774736 C28.3516562,32.774736 29.1243657,34.1236531 29.4031182,34.4314571 C29.7251455,34.7861092 30.2276796,35.2344577 29.4920071,35.2278757 C29.1516562,35.224004 28.538011,34.3149175 28.2081864,34.3292429 C27.8253404,34.3458915 27.4744633,34.3687348 27.215204,34.3838346 C26.7356718,34.4109368 25.7738785,34.5282508 25.7738785,34.5282508 C25.7738785,34.5282508 25.5508766,34.5259278 25.5789467,34.8124371 C25.5964906,34.9758249 25.6171534,35.7110699 25.632358,36.3096422 C26.2042878,36.275958 26.7805062,36.2600838 27.3621826,36.2651171 C27.5594535,36.2674401 27.7536055,36.2763451 27.9497069,36.2825399 C27.4651065,39.0918805 26.7937615,43.201354 26.8732937,43.9795754 C27.021052,45.4279964 27.0042878,48.0967925 30.6623774,48.6082504 C30.8499018,48.6341912 31.0448335,48.6570345 31.2510713,48.6713599 C32.7715391,48.7766715 34.4354767,48.5157157 35.9477574,48.1382202 C37.4023382,47.7746631 38.7134493,47.3038585 39.6194922,46.9433987 C39.3259249,45.7532233 38.9442485,44.5963449 38.4810907,43.4820558 C37.9161784,42.1242337 37.2284591,40.8279724 36.4335274,39.6075973 C36.6393753,39.1956433 36.8409348,38.778656 37.0350868,38.3605072 C38.1968801,35.8674885 39.22573,32.1719048 39.9703694,29.4775552 C40.9590633,29.6250688 41.9282641,29.8298843 42.8729034,30.0916145 C44.2323576,30.5360912 45.9571139,31.0293519 47.2619871,31.5818504 C48.2818701,32.0123888 50.1341118,32.9590312 51.6768018,34.0125339 C52.1321624,32.9841976 52.8198817,31.7498843 53.7925912,30.7622013 C54.987523,29.5487954 56.2998037,28.6857827 57.1937608,28.1723889 C53.2998037,27.9877065 50.9419091,32.0220682 50.9419091,32.0220682 L50.6241703,31.5818504 C51.5243652,29.7958129 51.9883028,27.1188862 57.4249498,25.0091706 C57.610135,24.299092 60.098634,18.5603867 58.4506808,11.401137 C57.1161779,5.60435558 53.9040922,0.0347682992 53.9040922,0.0347682992 C53.9040922,0.0347682992 60.6179322,2.45159099 63.0003883,9.99646678 C63.1649107,6.16529446 62.7684195,2.52283115 62.7684195,2.52283115 C62.7684195,2.52283115 67.4230003,6.27494237 67.6736825,12.8054201 C68.5060412,9.55082856 68.9606221,6.32109361 68.9606221,6.32109361 C70.3793355,8.10902823 72.2339163,13.2049845 70.8175421,18.8008223 C70.3738774,20.5551114 69.3960996,21.9419716 68.2623765,23.0210279 C68.8155928,22.8456377 69.349316,22.6392735 69.8475616,22.3829637 C73.400388,20.5558858 72.7025323,18.0353776 72.7025323,18.0353776 L73.2097448,18.0353776 C73.4635459,18.9181362 75.3758266,25.3916993 67.4370354,28.3048027 C66.3134486,28.717531 64.9107196,28.7818021 63.3302128,28.7047543 C63.9348912,29.1933689 64.478361,29.8051051 64.7730978,30.5810035 C65.1555539,31.5895939 65.1114993,32.466932 64.9493161,33.1278395 C66.5461972,33.242056 68.0927858,33.5428909 69.4666649,34.2909126 L70.0385947,35.9913845 C65.3426884,37.440967 65.2401543,41.6545906 65.1013629,44.7539251 C65.1348912,45.1387769 65.1606222,45.5251773 65.1758268,45.914288 C65.1824545,46.0772886 65.186743,46.2414507 65.1898619,46.4056129 C65.1941504,46.6475971 65.1964896,46.8895814 65.1941504,47.1331144 C65.1278736,53.7410271 62.9259244,59.5834952 58.9563338,63.839708 C56.5520454,66.4179052 53.4978544,68.4126299 49.8799208,69.644233 C49.7025329,69.7042451 49.5204666,69.7576752 49.3403496,69.8138156 C48.7980495,70.0232771 47.5064316,70.5959087 47.8830397,72.0048379 C48.1345017,72.9445112 49.2830397,73.1706213 50.7614022,72.6487096 C50.870564,72.6107665 50.9606225,72.5848258 51.0382054,72.5685644 C57.2690044,70.3527629 62.0140335,66.3784133 66.2093551,62.5267982 C66.5419087,62.2209301 66.8740724,61.9154491 67.200778,61.6119041 C75.9953197,53.4467742 84.4756314,50.3753163 90.4639354,49.360144 C92.130602,44.6625518 93.0405435,39.6106947 93.0405435,34.3458915 C93.0405435,27.5196121 91.5153973,21.0487593 88.7890816,15.2450087 C84.2292377,18.7547485 80.3157875,23.0543249 77.2596472,27.9385353 C76.4346959,29.2576399 75.6499006,28.8778214 76.1107193,27.3875855 C78.1231949,20.8876946 81.4834288,14.9743735 85.8697834,9.96975172 C87.3087697,8.32743355 88.8600368,6.78403855 90.5087697,5.35040761 C91.7614012,7.42605184 92.8600367,9.60464586 93.7918105,11.8692314 C96.0978533,17.4782331 97.3715375,23.6130182 97.3715375,30.0447663 C97.3715375,36.7750263 95.973097,43.1785107 93.4576975,48.9934894 C94.4280678,48.9222492 95.2935649,48.9052135 96.030407,48.9253466 C95.5235844,50.3621524 95.2350853,51.2240036 94.5598417,52.6507428 C82.2035067,52.9329932 75.1465868,57.2538643 68.3189067,65.2416681 C68.3189067,65.2416681 68.1267039,65.4329324 68.2962946,65.6199379 C68.4662751,65.8065561 68.6826494,65.6660117 68.6826494,65.6660117 C69.854969,64.8990183 75.7130585,58.4370705 84.9832337,56.3893029 C89.6580874,55.3570948 92.0873271,55.643217 93.1906409,55.7961511 C92.5582823,57.0800228 92.0148125,58.0142756 91.3999977,58.9841486 C90.3489256,58.4618497 89.3056508,58.1919889 88.2487307,58.1377844 C87.3723175,59.3465442 86.4417132,60.5138763 85.4584774,61.6347474 C85.3863526,61.7172156 85.3165671,61.8023941 85.2432727,61.8844752 C85.1337211,61.9599743 85.0015573,62.0044994 84.859647,62.0044994 C84.488107,62.0044994 84.1871324,61.7056004 84.1871324,61.3373971 C84.1871324,61.2316984 84.2144228,61.1325817 84.2580876,61.0443058 C84.2935651,60.9734528 84.3403488,60.9087946 84.3960993,60.8549773 C85.0003877,60.0275847 85.5730973,59.1761873 86.119686,58.3069798 C85.9816743,58.3356307 85.842493,58.3654432 85.7029218,58.3999017 C81.4791403,59.4355944 78.1076004,61.2332471 73.7477564,66.1015833 C67.1960997,73.4149286 56.5380103,88.6665193 35.4167632,88.5023571 C32.8744631,88.4826112 30.4674456,88.3060595 28.1937615,88.0087092 C28.8760227,87.4821515 31.543469,80.0185824 32.0046776,78.5244747 C32.1161785,78.1644022 32.1122799,77.8612443 31.99766,77.672303 C31.9044826,77.5170459 31.7313832,77.4303187 31.4849895,77.4148317 C31.4421045,77.4121215 31.3996094,77.4117343 31.3575041,77.4136702 C30.6315782,77.4489031 30.3317731,78.1678867 30.2382059,78.4756907 C29.7988297,79.8962351 27.8966855,87.2200341 28.1598434,88.0040631 C27.0697849,87.8611956 26.0113054,87.6889028 24.9828454,87.4929924 C26.0378161,85.9044141 28.720857,79.5477778 29.2612078,78.108649 C29.4066269,77.7214742 29.4257303,77.3927627 29.3157887,77.1821396 C29.2323579,77.0218493 29.0725139,76.923894 28.8385958,76.8909842 C28.2764125,76.8092903 27.7824554,77.1980138 27.5111104,77.9224179 C27.0097459,79.2570095 24.9091612,85.6527504 24.6842099,87.436852 C23.6413249,87.2320365 22.6315784,87.0020547 21.6522412,86.7503911 C22.9146193,84.943059 25.8935666,78.9844384 26.520857,77.5937065 C26.6990247,77.1995625 26.7430793,76.8576871 26.6448336,76.6323514 C26.5734886,76.4674149 26.4233912,76.3586188 26.1999993,76.3086732 C25.6499019,76.1855516 25.1243658,76.5541421 24.7992197,77.2758359 C24.1941514,78.613525 21.7610131,84.6193808 21.2771925,86.6535973 C20.2639371,86.3864467 19.2853796,86.0964528 18.3430795,85.7882616 C19.8027285,83.8674873 23.0822606,78.2178323 23.7972704,76.8720126 C24.009746,76.4712867 24.0799214,76.1170217 23.995321,75.8765861 C23.9356719,75.7085523 23.7968805,75.5893024 23.584015,75.5238699 C23.0456135,75.358159 22.4935667,75.703519 22.1130599,76.4194052 C21.4237811,77.7183768 18.6479528,83.4667614 17.9224167,85.6492659 C16.9325532,85.3159083 15.981676,84.9643536 15.0709548,84.5984734 C16.7598436,82.586713 20.4799215,76.9606756 21.1076018,75.9373726 C21.3551652,75.5335492 21.4510716,75.1688305 21.3801164,74.9121336 C21.3325531,74.7410024 21.2050677,74.6128475 21.0035082,74.531928 C20.4849897,74.3244023 19.9060424,74.6430471 19.4725141,75.3477053 C18.6978553,76.613767 15.5805064,82.1480439 14.6253408,84.4153397 C13.681871,84.0246803 12.7812862,83.6200826 11.9251459,83.2061927 C13.7754383,81.2188243 17.7637422,75.9110447 18.4487325,74.9353641 C18.7290444,74.5361869 18.8510717,74.168758 18.7961009,73.9012202 C18.7598436,73.728153 18.6467832,73.5934162 18.4604284,73.4997199 C17.9699801,73.2538639 17.3742686,73.5384374 16.8970756,74.2187035 C16.2315785,75.1696049 12.6604285,80.64658 11.4729042,82.9855031 C10.5699802,82.5367674 9.71773855,82.0802883 8.91539939,81.6226477 C10.9095514,79.7018734 15.1773875,74.6747955 15.9153992,73.7467374 C16.2253407,73.356078 16.3746585,72.9871004 16.3364518,72.7094961 C16.3122803,72.5360417 16.2128651,72.3943358 16.041715,72.2882499 C15.5766078,72.002902 14.9793369,72.248758 14.4549704,72.9085039 C13.7306039,73.8199135 9.84795297,79.0583888 8.47758263,81.3694354 C7.57738772,80.8428776 6.74230003,80.316707 5.9769979,79.8037004 C8.08499005,78.0316012 12.6152044,73.3673061 13.5115006,72.3827205 C13.8549704,72.0056122 14.0335279,71.6389577 14.0155942,71.3501253 C14.0050679,71.1747351 13.9220269,71.0310932 13.7633525,70.9106818 C13.3380114,70.5866165 12.7263155,70.791432 12.1598438,71.4147835 C11.1851849,72.4841603 7.07485362,77.3432044 5.5664716,79.5245473 C4.57582835,78.8450555 3.70799211,78.1918916 2.95906425,77.5917706 C5.26393749,76.0171306 10.5430797,71.4871851 11.2463935,70.8452493 C11.6307989,70.4967919 11.8483428,70.1409783 11.8615981,69.843628 C11.8682258,69.6670763 11.8050679,69.5156909 11.6666664,69.3801798 C11.2881089,69.0104278 10.6662765,69.1544568 10.0436645,69.7208936 C9.15984383,70.5246685 4.29785564,75.2392964 2.59064321,77.2940332 C1.39649119,76.3137065 0.541910318,75.4987035 0.0331384007,74.9841482 C2.54970754,73.6693025 4.94152034,72.15119 7.18674446,70.4522668 C8.62845982,69.360821 10.0101362,68.1954248 11.3255358,66.9607243 Z" id="path-28"></path>
        <linearGradient x1="7.28548703e-14%" y1="49.9999572%" x2="100%" y2="49.9999572%" id="linearGradient-30">
            <stop stop-color="#960A2B" offset="0%"></stop>
            <stop stop-color="#45030D" offset="100%"></stop>
        </linearGradient>
        <path d="M25.7692001,31.381681 L25.2378161,31.8006042 C24.5372314,28.0984385 23.306822,23.2072589 19.2994147,17.3756317 C16.2869392,12.9924256 11.9458087,11.311235 11.9458087,11.311235 C12.3189081,11.8242417 14.2538008,16.2849603 13.1454188,23.6761277 C13.0510718,24.3076098 12.9001946,24.8852746 12.7040932,25.4160913 C8.03703684,22.305916 3.12163735,22.6044277 3.12163735,22.6044277 C3.12163735,22.6044277 1.28421049,18.9061338 0.39337231,12.5235956 C-0.459649111,6.41045356 0.443274843,0.474289159 0.515789461,0.0173841496 C0.80662766,0.175738653 5.78908368,0.474289159 14.3306039,6.29310087 C29.1532156,16.392982 25.7692001,31.381681 25.7692001,31.381681 Z" id="path-31"></path>
        <linearGradient x1="0.000459111844%" y1="50.0000609%" x2="100.000404%" y2="50.0000609%" id="linearGradient-33">
            <stop stop-color="#960A2B" offset="0%"></stop>
            <stop stop-color="#45030D" offset="100%"></stop>
        </linearGradient>
        <path d="M5.28966848,2.84302473 C6.49161777,2.8542528 7.06861581,3.57672102 7.06666649,3.71339374 C7.0654969,3.8492921 6.85886922,3.91588617 6.85886922,3.91588617 C6.85886922,3.91588617 5.96686145,3.77030844 5.17582833,3.86477909 C4.56140339,3.93911666 4.45341119,4.02855404 3.79766072,4.26124611 C2.98596484,4.54891701 2.90487322,4.21865688 2.90487322,4.21865688 C2.90487322,4.21865688 2.39999994,3.15508764 1.75321633,2.50076219 C1.49278749,2.23670896 1.18713447,2.05705984 0.915399587,1.93432542 C0.787524347,1.87353897 0.389863538,1.64820323 0.133723194,1.50262549 C0.0171539957,1.43680577 0.0132553603,1.28929216 0.0132553603,1.28929216 C0.0132553603,1.28929216 0.0541910318,0.675620068 0.162183232,0.267537803 C0.269005841,-0.141318811 0.712670547,0.068142769 0.712670547,0.068142769 C0.712670547,0.068142769 1.05419101,0.310127034 1.29239763,0.482807005 C1.53138398,0.655874152 2.1138401,0.900568641 2.1138401,0.900568641 C2.1138401,0.900568641 2.534113,0.0522686012 3.73606228,0.13163944 C4.93762171,0.212171804 5.36725133,1.88825162 5.36725133,1.88825162 L5.19415192,2.05744701 L5.02261196,1.98736837 C5.02261196,1.98736837 4.44405447,1.46932846 3.78869386,1.73570474 C3.13333325,2.00246819 3.53645215,2.9618874 3.53645215,2.9618874 C3.53645215,2.9618874 4.08693947,2.83140949 5.28966848,2.84302473 Z" id="path-34"></path>
        <linearGradient x1="-0.00552730103%" y1="50.0027813%" x2="99.9988248%" y2="50.0027813%" id="linearGradient-36">
            <stop stop-color="#960A2B" offset="0%"></stop>
            <stop stop-color="#45030D" offset="100%"></stop>
        </linearGradient>
        <path d="M18.090058,11.9493766 L17.7099411,12.0124861 C17.7099411,12.0124861 15.2358671,8.67310323 11.4288496,7.72762231 C7.62222203,6.78252857 4.51345018,7.03496655 4.51345018,7.03496655 C4.51345018,7.03496655 4.32514609,8.44467009 3.75243655,10.4362974 C3.19454183,12.3783663 3.00116952,13.1066421 2.99220265,13.1426494 C3.08109154,13.2057589 3.81832349,13.7319295 4.50955154,14.4776282 C5.24834295,15.2728853 5.18479519,16.1517721 5.18479519,16.1517721 L4.99454179,16.1939742 C4.99454179,16.1939742 3.72982447,15.4401448 2.57076017,15.0212216 C1.41130601,14.6030728 0.315399602,14.4358133 0.315399602,14.4358133 L0.0116959061,14.0312156 L0.00857699784,14.0285054 C0.00857699784,14.0285054 1.59571146,12.2006531 2.0389863,10.2481304 C2.48732937,8.27741056 2.48460033,8.29947953 2.22300189,5.64500893 C2.22300189,5.64500893 12.6822609,6.95094961 15.2382062,0.0174228671 C15.3430795,0.087888685 15.4483427,0.156418629 15.5528261,0.230756195 C20.3111106,3.5693647 18.090058,11.9493766 18.090058,11.9493766 Z" id="path-37"></path>
        <linearGradient x1="-9.53208043e-14%" y1="50.0011967%" x2="99.9999143%" y2="50.0011967%" id="linearGradient-39">
            <stop stop-color="#960A2B" offset="0%"></stop>
            <stop stop-color="#45030D" offset="100%"></stop>
        </linearGradient>
    </defs>
    <g id="claremont-m-s" stroke="none" stroke-width="1" fill="none" fill-rule="evenodd">
        <g id="claremont-m-s_BGL" transform="translate(0.000000, 28.855721)">
            <g id="claremont-m-s">
                <g id="g10" transform="translate(99.999998, 71.902240) scale(-1, 1) rotate(-180.000000) translate(-99.999998, -71.902240) translate(0.000000, 0.274898)">
                    <g id="g12">
                        <polyline id="path14" fill="#E59F0A" fill-rule="nonzero" points="194.764128 80.2741783 195.24506 80.5875116 194.798732 80.1728449 195.264128 80.4848449 195.028252 80.3048449 194.788139 80.1475116 194.764128 80.2741783"></polyline>
                        <path d="M194.897071,80.3171982 L194.939738,80.1945316 C194.939738,80.1931982 194.941071,80.1931982 194.941071,80.1931982 C194.926404,80.2358649 194.915738,80.2638649 194.897071,80.3171982" id="path16" fill="#E59F0A" fill-rule="nonzero"></path>
                        <path d="M116.84912,94.8915161 C117.527872,94.7931737 118.227287,94.6750854 118.929432,94.5407357 L119.383623,95.0227683 C122.119685,97.9273539 125.544246,100.198521 129.286936,101.590415 C129.76257,101.753415 129.753603,101.821945 129.749314,101.854855 C129.722414,101.914093 129.720854,101.917965 129.621439,101.917965 C129.480699,101.917965 129.242492,101.87344 128.892784,101.781679 L126.885767,101.18272 C122.663935,99.8527743 118.908379,97.7918427 115.720075,95.0556782 L116.84912,94.8915161 Z M173.781282,61.0582441 C174.435863,61.0582441 175.396487,60.770186 176.254576,59.3988128 C178.770366,55.3780022 181.875239,51.7803738 185.485765,48.7034955 C187.560619,53.8211723 188.612471,59.2454916 188.612471,64.8301012 C188.612471,69.3856002 187.892783,73.8880562 186.47368,78.2135734 C180.861984,79.3402521 172.334888,82.4213893 163.430795,90.6883462 L162.449119,91.5947225 C160.869392,93.044305 159.162959,94.5651277 157.27368,96.0069667 C157.451068,95.8284792 157.625727,95.6476685 157.796487,95.4641476 C162.049898,90.9040026 164.431575,84.55782 164.50175,77.5956423 C164.504089,77.3346865 164.41715,75.2021276 164.413251,75.1115287 C164.565688,71.6799982 164.915785,69.1676208 168.046779,68.2012324 L169.826506,67.6526057 L168.439762,63.5264836 L167.812082,63.1849954 C166.791029,62.630561 165.654967,62.2488067 164.341516,62.0207607 C164.30214,61.638232 164.225337,61.2564776 164.113446,60.8813052 C164.630405,60.7938037 165.100191,60.6706821 165.544635,60.5072943 C168.967247,59.2516864 171.30292,57.1260966 172.307988,54.3546992 L172.828456,54.4514929 C172.414031,55.5425515 172.091224,56.4709968 171.81598,57.3611117 C171.365298,58.8172762 171.705259,59.7077783 172.069781,60.1975545 C172.476409,60.7446325 173.100191,61.0582441 173.781282,61.0582441 Z M100.352824,0 C89.6257288,0 76.6307973,2.48018772 66.4397644,6.4732146 C66.3668599,6.5033368 59.6771915,9.28917581 58.2035073,9.92952425 C57.6382052,7.62962836 56.9313826,5.35586677 56.101753,3.16832902 L55.3212462,1.11116077 L53.4370357,2.26376473 C49.3980494,4.73441246 45.6526304,7.69556424 42.3052621,11.0647208 C40.0120848,13.3741799 37.8860419,15.9063807 35.983196,18.5932966 C34.9014806,16.99229 33.7589855,15.4614394 32.5855742,14.0408176 L30.9732936,12.0887595 L29.6272117,14.2309591 C26.0302528,19.9541774 23.6019877,26.5140804 22.598245,33.2161153 C16.5005064,29.5995153 9.57037013,27.275692 2.5429473,26.4932117 C2.40816758,26.4780731 2.28389858,26.4715686 2.1721169,26.4715686 C0.903691985,26.4715686 0.183053017,27.2849455 0.0315241318,28.0907337 C-0.112390251,28.8576883 0.209094732,29.9410035 1.58884596,30.4706586 C4.471111,31.5772817 7.26806999,32.9877596 9.90343055,34.6645363 L9.70670541,34.9913893 C8.40795301,37.1429198 7.26471717,39.4128484 6.30861583,41.7378332 C3.85066267,47.7154253 2.60447167,54.0422491 2.60447167,60.5425272 C2.60447167,72.5623696 6.98175421,84.1694837 14.930253,93.2255028 L15.2853797,93.6331979 L15.4783622,93.7718065 C15.8991419,94.0621876 16.3916175,94.215896 16.9024167,94.215896 C18.2778943,94.215896 19.3970755,93.1047043 19.3970755,91.7387515 C19.3970755,91.358933 19.310136,90.9907297 19.1382061,90.6445954 C19.0389079,90.4452004 18.9155551,90.2616795 18.7711496,90.0990661 C13.4096293,82.7125448 10.5710719,73.9709116 10.5710719,64.8301012 C10.5710719,59.2458787 11.6231186,53.8215595 13.6980503,48.7034955 C17.3545805,51.82064 20.4917344,55.4693755 23.0237421,59.5509725 C23.8246388,60.8422005 24.8192197,61.0350136 25.3408181,61.0350136 C25.892436,61.0350136 26.4130988,60.8263264 26.8130208,60.4523155 C26.9331767,63.0084437 27.3795315,67.6320854 28.9799603,72.1074392 C30.6343072,76.733404 32.9708764,80.925733 34.5400771,83.2236156 C33.6531376,83.2441358 32.7964904,83.4919277 32.0559056,83.9429864 C29.6620655,85.3999253 28.0136835,86.9006149 26.2685763,88.4891932 L26.2030793,88.5488181 C25.5733717,89.1214497 24.9221826,89.7138272 24.1962177,90.3395017 C23.7375043,90.73442 22.8016758,91.4657932 22.5124751,91.6876444 L22.344054,91.7677896 L22.1025336,92.0473298 C21.6436642,92.5765978 21.501442,93.281256 21.7217928,93.9313225 C21.9433913,94.5852608 22.492553,95.0649704 23.1906427,95.2136455 C26.9811299,96.0189692 30.1359837,96.3941416 33.1193754,96.3941416 C35.2785566,96.3941416 37.3359835,96.2094592 39.6994142,95.799441 C37.4480692,97.1870756 35.2969582,98.755908 33.2958666,100.470318 C31.0868998,100.605055 26.8424165,101.163361 22.8866661,103.377614 C17.6099411,106.330209 13.7378164,113.444546 13.0152044,114.841086 C12.7547755,115.345188 12.7021049,115.834189 12.8583233,116.29454 C13.1327482,117.102187 13.9568028,117.566797 14.2985571,117.729023 C14.7235864,117.930741 15.1449899,118.033342 15.5505259,118.033342 C16.2225727,118.033342 16.8279528,117.7418 17.2111107,117.233052 C19.2391418,114.556125 22.3758669,111.108334 24.8160228,109.807426 C19.4219098,117.481618 16.3596487,126.479948 15.9538008,135.866615 C15.9143466,136.766796 16.5883817,137.713439 17.4567637,137.977492 C17.8712666,138.103324 19.1881477,138.444425 19.2438592,138.45875 C19.3417929,138.480432 19.43575,138.490499 19.5281866,138.490499 C20.421403,138.490499 21.1697461,137.50901 21.2828845,136.627801 C22.1026895,130.213862 24.2280306,124.162707 27.600974,118.63811 C28.0674457,120.177517 28.1116172,122.006143 27.7823385,125.380759 C27.609512,127.155181 26.4536056,132.125345 26.1242099,133.308551 C25.9263931,134.019017 26.1441709,134.797625 26.6920851,135.340831 C26.7253015,135.367934 27.2400383,135.770596 28.1970363,136.100081 C28.7393365,136.287087 29.1157887,136.326191 29.3361786,136.326191 C29.5341513,136.326191 29.6355548,136.295217 29.646393,136.291346 C30.2381669,136.148091 31.032085,135.636246 31.2871727,134.676052 L31.3587517,134.407353 C32.6732935,129.504558 33.5107594,125.627777 33.8473286,122.885805 C34.3998042,118.380251 33.5416756,113.844498 32.966159,111.497057 C35.2463929,109.001715 37.794541,106.75765 40.5473674,104.81984 C36.0951258,113.64549 33.7693559,124.335 33.9906034,134.992761 C34.0361395,137.153584 34.1806619,139.332991 34.4202331,141.469809 C34.531851,142.461751 35.4079913,143.238424 36.414619,143.238424 C36.9720069,143.238424 37.5010517,143.001085 37.8661199,142.587195 C38.3246384,142.06993 38.8025331,141.556923 39.2853791,141.062501 C39.8460029,140.485611 39.9851842,139.510704 39.9645214,139.12895 C39.928654,138.442876 39.905652,137.823784 39.8931764,137.236052 C39.7079912,128.355036 41.0120847,120.968128 43.9929814,114.040409 C44.8923965,119.867002 47.1153984,125.580154 50.4382054,130.592907 C51.0354763,131.492701 52.1267043,131.538 52.33918,131.538 C52.6397648,131.538 52.9239753,131.477601 53.184794,131.357964 C53.5142287,131.206579 53.8432735,131.058678 54.1750474,130.915036 L54.7118895,130.683118 C54.9508758,130.597166 55.1278739,130.402029 55.230408,130.106228 C55.4814801,129.381437 55.2042871,128.255145 54.9699791,127.883457 C53.0152034,124.778702 51.6643262,121.459452 50.9547746,118.017855 C50.607796,116.329773 50.413644,114.601812 50.3777765,112.882369 C50.2760221,108.000868 51.410525,103.256815 53.7493164,98.7822359 C53.9454178,98.408225 54.1516556,98.0376987 54.3629616,97.6698826 C54.9364509,96.6717459 55.9769967,95.2740448 57.7333319,94.0970333 C54.6592579,100.419211 53.113449,107.446434 53.2596478,114.453911 C53.28187,115.524837 53.3454178,116.627511 53.4487316,117.730185 C53.5575035,118.868091 54.6116945,119.54797 55.5680298,119.54797 C55.8849889,119.54797 56.1863534,119.478279 56.4635463,119.341606 C56.893176,119.13137 57.3337218,118.924619 57.7789459,118.72445 C58.5333319,118.386446 59.2116944,117.363143 59.230018,116.533814 C59.3325521,112.103373 60.0779712,108.056622 61.5095501,104.169774 C64.2116943,106.86451 66.3567235,109.913512 67.886548,113.235859 C68.22378,113.966458 69.1606221,114.560771 69.9742673,114.560771 L70.0362556,114.559997 C70.3352809,114.549543 70.6315772,114.541413 70.9270937,114.535218 C71.549316,114.524764 72.1309923,114.212701 72.5231951,113.679562 C72.9309923,113.124353 73.0588676,112.455315 72.8736824,111.844353 C71.2807,106.616331 68.4717332,101.913319 64.5247547,97.8646316 C65.6424935,95.9883824 66.9602322,94.1249099 68.4428833,92.3249342 L68.4962946,92.2587273 C68.5734876,92.1627079 68.6261191,92.0972754 68.8343063,91.9195621 C69.860817,91.9633129 70.2600372,91.9849947 71.2904466,92.0984369 C71.6557487,92.324547 71.9165674,92.5595621 72.1270937,92.7488906 L72.2768013,92.8820787 C77.477191,97.4054422 80.8007777,102.940106 81.8881071,108.887886 C82.0315769,109.683917 82.7992182,110.471044 83.5988283,110.641788 C83.8448322,110.694831 84.5688088,110.813694 84.5992182,110.81834 C84.7009725,110.835375 84.7992182,110.843119 84.8943449,110.843119 C85.3902513,110.843119 85.8514598,110.626301 86.2643253,110.19886 C86.6615963,109.786906 86.8678341,109.263833 86.845222,108.724885 C86.6417132,103.813186 85.0725125,98.9123266 82.3025321,94.5264102 C85.7617912,95.7382674 89.0744617,97.3523993 92.1536039,99.3266037 C92.6463914,99.6429255 93.2241692,99.6901608 93.524754,99.6901608 C94.0537988,99.6901608 94.5060405,99.5391627 94.8682237,99.2414252 C95.1025317,99.048225 95.3372296,98.8573478 95.5742666,98.669568 C96.0966838,98.2549038 96.3914206,97.6563315 96.3832335,97.0263981 C96.3707578,95.9806389 95.6035064,95.4021997 95.2346955,95.1242081 C88.9298223,90.3697013 81.4896666,87.1367915 73.7107194,85.7704516 C73.7138383,85.6771424 73.714618,85.5834461 73.7126687,85.4897498 C73.6814796,83.973186 72.9797253,82.5913591 71.7801152,81.6714317 C75.9391794,77.9429382 80.6959044,75.0217041 85.9208556,72.9867132 L89.4799198,71.7225874 L88.9649101,70.0488307 C88.5196859,68.6015712 88.1434676,67.1183044 87.8460017,65.6396838 L87.6424929,64.6291575 L86.6635456,64.2861206 C83.7637406,63.2709482 81.5290428,62.2968163 79.4175419,61.1271612 L78.8834288,60.8313596 L78.3247544,60.4968406 C78.13723,60.3845599 77.9520448,60.2715048 77.7684191,60.1572883 L76.1766063,59.1103675 L75.9114991,58.9241365 C75.4783607,58.6112992 75.2768012,58.4091939 75.2401541,58.3631201 L74.0421034,56.8364898 L72.5727077,58.1060361 L71.9660801,58.6445962 L71.840544,59.2180021 C71.8241697,59.2853706 71.7793354,59.4053948 71.7610119,59.4367559 C71.715008,59.4859271 71.3637409,59.7457214 70.9707585,59.9613778 C69.4881074,60.6424183 67.8943453,61.0075242 66.2417137,61.0419827 L66.1750471,61.0423699 C64.8573083,61.0423699 62.8456125,60.3512629 61.5150082,59.8940094 L60.8810901,59.6764171 C62.607016,58.2469677 64.2171524,56.7222732 65.6693941,55.1410513 C71.9551639,48.2973491 73.1781658,40.5941188 73.2272886,40.2692791 L73.5824543,37.920754 C73.5824543,37.920754 71.1898618,38.2032755 71.1684193,38.2059857 C71.340739,37.3310481 71.4896668,36.4440305 71.612084,35.5651824 C72.4908364,29.2708813 71.5914212,23.2362196 71.4857682,22.5683431 L71.4241698,22.1774126 C77.4752417,20.9213401 83.9317718,20.1644133 90.6167619,19.9263395 C93.4756312,19.8241253 96.347366,19.7726698 99.1520443,19.7726698 C111.381284,19.7726698 121.842102,20.7664701 127.888106,22.5010521 C127.750484,23.4364664 126.914227,29.5828668 127.749704,35.5651824 C128.665104,42.1269439 130.559841,46.0060485 130.639763,46.1678875 L131.175825,47.2469438 L131.268223,47.2419105 C131.606235,47.2221646 132.507989,47.1714447 132.622999,47.1714447 C133.450679,47.1714447 136.357501,47.2945663 139.407794,48.8587526 C137.416761,51.6448626 133.182063,52.0653345 130.812472,52.0653345 C129.81949,52.0653345 129.151654,51.9902225 129.078749,51.9817047 L126.821829,51.7087464 L127.045221,54.0232775 C127.269003,56.3064475 127.269003,56.3064475 126.893954,57.9592968 C126.613252,59.1928358 125.598827,60.5692423 125.265494,60.9544812 L124.657697,61.6541061 C123.974266,61.7772277 121.961011,62.1373003 121.396878,62.2182199 C120.635085,62.327016 120.005845,62.7242574 119.624558,63.3375423 C119.121634,64.1467377 119.238204,65.0054914 119.352044,65.4464835 L119.357112,65.4809421 C118.997658,65.5552797 118.631966,65.6389094 118.268613,65.7306699 L116.87797,66.0822246 L116.893954,67.507028 C116.93567,71.1484072 116.93567,75.1285644 116.893564,79.3379291 C116.871732,81.5932224 116.454188,84.7653457 115.653408,88.7652488 L115.610523,88.9882615 C115.375046,90.1513347 115.104091,91.3991992 114.806625,92.6954605 L114.515007,93.9619093 C114.148535,93.6107418 113.793369,93.2506692 113.456138,92.8898222 L112.087327,91.4259142 L111.984793,91.542841 C111.945026,91.5881405 107.957502,96.1211833 104.024949,99.1674748 C99.9044809,102.359731 94.9157871,104.76099 94.8658846,104.784994 L94.7068202,104.861268 L94.8175415,104.997941 C94.9438573,105.154359 107.752044,120.631673 132.976995,120.631673 C152.859645,120.631673 164.30292,107.292339 170.450288,100.12612 C171.196487,99.2557507 171.90136,98.4341657 172.566078,97.6919516 C175.125142,94.8357629 177.362959,93.0326897 179.790249,91.8738755 C179.861594,93.1774931 180.951263,94.215896 182.280697,94.215896 C182.792198,94.215896 183.285765,94.0618004 183.707208,93.7702578 L184.24288,93.2371181 C185.01637,92.3566825 185.769976,91.4332706 186.489274,90.4854666 C186.996876,90.592714 187.486935,90.7657812 187.98596,91.0131859 L189.465492,91.7480437 L190.346194,90.3576989 C192.669391,86.7496167 194.805843,80.8963077 195.041711,80.2408207 L195.965297,77.6208087 C195.965297,77.6208087 194.137617,77.5716375 193.565687,77.5557633 C195.565687,72.1132468 196.579722,66.3904158 196.579722,60.5425272 C196.579722,54.0414748 195.332939,47.714651 192.874849,41.7378332 C191.920073,39.4151714 190.776993,37.1454752 189.477578,34.9916991 L189.280697,34.6645363 C192.21598,32.7952176 195.351262,31.2593725 198.601554,30.097848 C199.724361,29.696309 200.088104,28.725352 199.949703,27.9420586 C199.787909,27.0178336 198.973094,26.3720647 197.968806,26.3720647 C197.897461,26.3720647 197.819098,26.3750846 197.736447,26.3829443 C190.308767,27.0473363 182.999606,29.4091027 176.585181,33.2156507 C175.580892,26.5129963 173.152822,19.9526674 169.556721,14.2309591 L168.210522,12.0887595 L166.598047,14.0408176 C165.427286,15.4587292 164.286546,16.9868308 163.205454,18.5863661 C161.318904,15.9047159 159.210132,13.3768902 156.934499,11.0697154 C153.607793,7.6985842 149.886936,4.7366968 145.87524,2.26693957 L143.984402,1.10224026 L143.205065,3.17135673 C142.441322,5.19933199 141.706819,7.20691089 141.114226,9.45055028 C135.21832,6.54553886 119.769978,0 100.352824,0 Z" id="path18" fill="#EDAC09" fill-rule="nonzero"></path>
                        <path d="M195.03432,79.9646641 C194.881538,79.9742795 194.850981,80.0676861 194.777773,80.2929608 L195.209384,80.4577959 C195.286412,80.2256531 195.304873,80.170708 195.231028,80.0635652 L195.157183,79.9577959 L195.03432,79.9646641" id="path20" fill="#E59F0A" fill-rule="nonzero"></path>
                        <path d="M194.909937,80.417456 C195.06327,79.9827893 195.056603,80.0081227 194.909937,80.417456" id="path22" fill="#E59F0A" fill-rule="nonzero"></path>
                        <g id="g24" transform="translate(1.793372, 15.177253)">
                            <g id="g26-Clipped">
                                <mask id="mask-2" fill="white">
                                    <use xlink:href="#path-1"></use>
                                </mask>
                                <g id="path28"></g>
                                <g id="g26" mask="url(#mask-2)" fill="url(#linearGradient-3)" fill-rule="nonzero">
                                    <path d="M25.2648337,34.4361032 C25.255399,34.6250445 25.0302918,34.6362726 24.9249117,34.4539132 C24.1333327,33.0883476 23.2766856,31.7642097 22.3573094,30.48692 C16.9139957,22.9281446 9.31543836,17.0046796 0.452912269,13.6034649 C-0.154269002,13.3694951 -0.0941169567,13.0455072 0.546265094,13.1163215 C8.542261,14.0072495 15.947407,16.8366457 22.2743074,21.119922 C22.95536,13.4171176 25.4693561,6.23773487 29.3817147,0.0128542042 C31.1280304,2.1271772 32.7247945,4.36768047 34.1552428,6.72065803 C30.7104476,12.0927087 28.143586,18.0733595 26.6582839,24.4671258 C25.9082645,27.6938408 25.4376992,31.0262545 25.2648337,34.4361032" id="path38"></path>
                                </g>
                            </g>
                        </g>
                        <g id="g40" transform="translate(4.405458, 35.891106)">
                            <g id="g42-Clipped">
                                <mask id="mask-5" fill="white">
                                    <use xlink:href="#path-4"></use>
                                </mask>
                                <g id="path44"></g>
                                <g id="g42" mask="url(#mask-5)" fill="url(#linearGradient-6)" fill-rule="nonzero">
                                    <path d="M8.57883019,9.89657568 C5.86167627,15.6821291 4.34132543,22.1340103 4.34132543,28.938995 C4.34132543,38.8119531 7.53988285,47.9395995 12.9584012,55.3667742 C13.0155162,55.4202043 13.0612083,55.4844753 13.0965299,55.5553283 C13.1403895,55.6436042 13.1673291,55.7415594 13.1673291,55.8476453 C13.1673291,56.214687 12.8670172,56.5131988 12.4969588,56.5131988 C12.3545806,56.5131988 12.2235864,56.4678994 12.1146976,56.3927875 C12.04191,56.3110936 11.9723194,56.2259151 11.8999607,56.1430597 C4.50549696,47.7181355 0.023586744,36.705722 0.023586744,24.651421 C0.023586744,18.2390316 1.29372316,12.1228309 3.59251453,6.53125211 C4.52074063,4.27402288 5.61649109,2.10239801 6.86600373,0.0317483356 C8.50955144,1.4627852 10.0552824,3.00060489 11.4898633,4.63796722 C15.8679138,9.6317481 19.2201165,15.5346155 21.2247168,22.0228912 C21.6374264,23.3590315 20.858479,23.8166721 20.1716174,22.7093521 C17.1106039,17.7751962 13.1749704,13.4338049 8.57883019,9.89657568" id="path54"></path>
                                </g>
                            </g>
                        </g>
                        <g id="g56" transform="translate(35.789473, 102.988503)">
                            <g id="g58-Clipped">
                                <mask id="mask-8" fill="white">
                                    <use xlink:href="#path-7"></use>
                                </mask>
                                <g id="path60"></g>
                                <g id="g58" mask="url(#mask-8)" fill="url(#linearGradient-9)" fill-rule="nonzero">
                                    <path d="M8.16881071,6.87854792 C4.04132544,14.7978218 2.05547753,23.5286141 2.27933717,34.2854922 C2.29302139,34.9398176 2.31937616,35.5891098 2.35290442,36.2356918 C2.35972704,36.3642338 2.24931768,36.7479241 2.18721242,36.8118079 C1.67855746,37.3317837 1.18436644,37.8629876 0.704327468,38.4046451 C0.631539945,38.4871134 0.457933712,38.4050323 0.443937611,38.2811364 C0.212748533,36.2174946 0.0703703686,34.1104892 0.0254191027,31.9670893 C-0.225380111,19.900786 2.86534106,8.58211715 7.73645205,0.134736839 C7.81988285,-0.00929219577 8.04951247,-0.0166485174 8.04990233,0.13163944 C8.05808947,2.09693885 8.14346958,4.13038102 8.34229999,5.95978207 C8.37582825,6.26565018 8.26120837,6.70122185 8.16881071,6.87854792" id="path70"></path>
                                </g>
                            </g>
                        </g>
                        <g id="g72" transform="translate(73.411304, 91.334541)">
                            <g id="g74-Clipped">
                                <mask id="mask-11" fill="white">
                                    <use xlink:href="#path-10"></use>
                                </mask>
                                <g id="path76"></g>
                                <g id="g74" mask="url(#mask-11)" fill="url(#linearGradient-12)" fill-rule="nonzero">
                                    <path d="M11.3387911,17.7070534 C11.0842102,17.6482028 10.8280699,17.590901 10.5715397,17.5359221 C10.4865494,17.5177249 10.2869393,17.3136838 10.2717346,17.230054 C9.08148125,10.7158376 5.42651059,4.8458801 0.0662768015,0.183133692 C-0.071734891,0.0634966711 0.141130601,-0.0240048391 0.385964903,0.0545916502 C2.26705647,0.653551103 4.08070165,1.35472471 5.81325522,2.14959462 C5.89239751,2.18560188 6.20467821,2.46862668 6.28031173,2.57277671 C9.47836234,6.99082862 11.3867444,12.0519779 11.6109159,17.4654563 C11.6152044,17.5684448 11.433528,17.7287352 11.3387911,17.7070534" id="path86"></path>
                                </g>
                            </g>
                        </g>
                        <g id="g88" transform="translate(55.048732, 90.831214)">
                            <g id="g90-Clipped">
                                <mask id="mask-14" fill="white">
                                    <use xlink:href="#path-13"></use>
                                </mask>
                                <g id="path92"></g>
                                <g id="g90" mask="url(#mask-14)" fill="url(#linearGradient-15)" fill-rule="nonzero">
                                    <path d="M16.0775824,21.5342765 C16.11306,21.6523649 16.0327481,21.8823467 15.8440542,21.8928004 C15.5391809,21.9098361 15.2335279,21.9071259 14.927485,21.9175796 C14.8269002,21.920677 14.5395708,21.7433509 14.4966858,21.6508162 C12.4756332,17.2614152 9.48537988,13.4194794 5.76569186,10.220641 C3.66393753,14.9019718 2.48771924,19.9956438 2.35750481,25.6619473 C2.35438591,25.8005559 2.10136447,26.1873436 1.97816759,26.2423224 C1.51461985,26.4502353 1.05653019,26.6658917 0.602339166,26.8877428 C0.484600378,26.9462062 0.227290443,26.8408947 0.216764127,26.7301627 C0.118908379,25.6917598 0.0569200765,24.6436775 0.0350877184,23.5851416 C-0.117738788,16.2462428 1.60467832,9.29219577 4.77465875,3.14928002 C4.88187122,2.94175431 5.32787511,2.45236533 5.56569187,2.24793703 C6.02339166,1.85418023 6.8206626,1.40041134 7.53177369,1.08408951 C9.02300172,0.419697509 9.89941496,0.293478517 11.8136449,0.0325226852 C12.0405455,0.00232304894 12.1376215,0.157192979 11.9816761,0.346908642 C10.1380114,2.58477912 8.53879121,4.90821524 7.20116941,7.34122184 C11.3212473,11.2648515 14.4054577,16.0464606 16.0775824,21.5342765" id="path102"></path>
                                </g>
                            </g>
                        </g>
                        <g id="g104" transform="translate(14.619883, 22.843315)">
                            <g id="g106-Clipped">
                                <mask id="mask-17" fill="white">
                                    <use xlink:href="#path-16"></use>
                                </mask>
                                <g id="path108"></g>
                                <g id="g106" mask="url(#mask-17)" fill="url(#linearGradient-18)" fill-rule="nonzero">
                                    <path d="M54.3415191,53.9249351 C56.3142286,52.6573248 62.1524351,49.5088191 62.1524351,49.5088191 C62.1524351,49.5088191 61.8920062,49.2432172 59.9555541,49.8444997 C59.2920063,50.0086618 57.9812851,50.1546267 57.2140337,50.1546267 C56.373098,50.1546267 55.321636,49.8495329 55.321636,49.8495329 L54.7929811,50.0857096 C54.7929811,50.0857096 54.9134489,50.1159092 55.9048719,50.5127634 C56.6003884,50.7903678 57.0842091,50.8426364 57.3446379,50.8488312 C56.0853787,51.4036527 54.7099402,52.0850804 53.4483417,52.7769618 C53.2740727,51.7687585 52.382065,51.0110574 51.3212463,51.0331264 C50.3653009,51.0524851 49.3629617,51.7037132 49.0428838,52.5748565 C49.2569188,52.3948202 49.5282639,52.2794421 49.8304081,52.2732473 C50.5286537,52.2589219 51.1060416,52.8090973 51.1204666,53.5025274 C51.1345016,54.1820192 50.0202717,54.8452497 50.0713438,54.874675 C48.9255348,55.6672218 48.2826499,56.1550621 47.7001937,56.5166834 C47.2869384,56.7729931 46.3473673,56.7811238 46.2791411,56.8244874 C45.8935661,57.0715049 45.693956,57.1923035 45.693956,57.1923035 C45.693956,57.1923035 47.2576986,57.2325697 48.0853789,57.4486132 C48.9134491,57.6654311 49.1512658,57.7769375 49.1512658,57.7769375 C49.1512658,57.7769375 52.3680299,55.191384 54.3415191,53.9249351 Z M79.8179317,74.4088064 C79.5711481,74.6039425 79.3270935,74.8029503 79.0849883,75.0023454 C79.0116939,75.0623575 78.6382047,75.0344809 78.5231949,74.9609177 C75.1508753,72.7989334 71.4931756,71.0353521 67.6175422,69.7402523 C62.9738776,68.1884556 58.0202715,67.3076329 52.8787511,67.2116136 C52.4506809,67.174832 52.3072112,67.2065803 52.0393749,67.201547 C51.6604276,67.2007727 51.2795309,67.2038701 50.8982443,67.2120007 C44.0974648,67.3513837 40.1356715,70.4886613 38.1582836,73.9283224 C37.9352817,74.3170459 37.717348,74.7080925 37.5103304,75.1041724 C35.1079913,79.698776 33.8230011,84.7684431 33.9337223,90.0762228 C33.9727087,91.9365978 34.1816756,93.7598041 34.5477574,95.5377109 C35.3142291,99.2572994 36.771539,102.77517 38.8038977,106.003046 C38.8732934,106.11223 38.8884981,106.384026 38.8268996,106.410354 C38.4818704,106.559417 38.1399601,106.713512 37.7996092,106.869931 C37.702923,106.914456 37.3980497,106.837408 37.3422993,106.753391 C33.6440537,101.173815 31.3329427,94.7722662 30.8339174,87.9111412 C30.7859641,87.2482979 30.7524359,86.58197 30.7384008,85.910996 C30.7243657,85.2206633 30.7298238,84.533428 30.7524359,83.8508388 C30.8268998,81.5498588 31.1072117,79.2934039 31.5762175,77.0942509 C31.6202721,76.8878868 31.2775821,76.686943 31.0615977,76.7945776 C30.2545801,77.198401 29.4627673,77.6262292 28.6826504,78.0726417 C24.1590637,80.6609054 20.1046389,83.9588606 16.6625727,87.8038938 C16.553216,87.9258538 16.4268222,88.5027443 16.4744635,88.6878139 C17.0821048,91.0453214 17.9527481,95.4486607 17.4163738,99.823349 C16.8890054,104.118279 15.1739177,110.347922 14.9028456,111.370838 C14.8343076,111.629858 14.5830406,111.691032 14.5830406,111.691032 L13.3608964,111.214419 C13.3608964,111.214419 13.2261205,111.080844 13.2629626,110.948043 C13.5741127,109.830657 14.7886156,104.66497 14.978986,102.71206 C15.3635084,98.7655874 15.3277189,96.4007235 14.2784402,94.0683824 C13.7637034,92.9250551 12.5712667,93.0435306 12.0659646,93.8271725 C8.29801149,99.6696406 5.77150083,106.370088 4.85317727,113.554891 C4.8402338,113.657493 4.70545797,113.825139 4.65017532,113.806942 C4.22682251,113.66601 3.80011686,113.531661 3.37142292,113.401957 C3.29680304,113.379501 3.15364515,113.178945 3.15699797,113.10151 C3.6306042,102.146398 7.85711481,92.1108265 14.6241322,84.2360777 C14.7683817,84.0680439 14.6099801,83.7850191 14.3523193,83.822575 C13.1731381,83.9956422 11.5722414,84.3541661 9.88183211,85.0998648 C6.25274838,86.699284 1.96226116,92.2060715 1.13122804,93.303325 C1.00007795,93.4771664 0.823586724,93.3946982 0.768771911,93.3865675 L0.0746198812,93.0725688 C0.0746198812,93.0725688 -0.0414035077,92.9417037 0.0182845999,92.8259384 C0.633216358,91.6369245 4.30951256,84.8284552 9.16257287,82.112811 C12.9139178,80.0131619 16.9605844,79.5268704 19.0245609,79.4223332 C19.1573874,79.4157512 19.6047948,79.2260355 19.7083816,79.1365981 C22.418362,76.7938033 25.3957109,74.7413895 28.5906426,73.0293025 C29.6740733,72.4485402 30.7812858,71.9057211 31.9130596,71.4051041 C32.4421045,71.1716377 32.9773871,70.948625 33.5161785,70.7329686 C33.6619875,70.6779898 33.7929816,70.6257212 33.9165684,70.5738397 C34.0678354,70.113876 34.189083,69.7375421 34.2502915,69.5327266 C34.5465878,68.5384617 33.6307984,67.7188126 33.2128647,67.4055882 C32.4331376,66.9796958 31.5750479,66.9975059 31.123586,67.5112869 C30.9649115,67.6913232 30.8736834,67.9131743 30.8452234,68.1551586 C30.8218316,68.3541665 30.4362565,69.9501011 28.3945412,70.4243903 C21.8548922,71.9440514 17.0943076,72.3281289 8.95360601,70.5986189 C8.82721225,70.5719039 8.78760212,70.4751102 8.86604266,70.3845112 C8.89575026,70.3697986 10.1806235,69.373985 10.7722804,68.8644629 C13.5527872,66.4678507 15.2934499,64.5288792 18.3890834,62.6444993 C19.215711,62.1415592 20.0883426,62.1423336 20.6345804,62.2441606 C21.4173484,62.3893511 22.6037031,63.7216197 21.4988299,65.0159451 C21.1018318,65.4821036 20.7906817,65.4704884 19.4387909,65.9350982 C15.6224168,67.248008 14.793177,67.9704762 9.86537987,70.1642088 C9.77520443,70.23119 9.80370346,70.3113352 9.95189059,70.2981713 C15.5112277,69.8068464 20.8338006,68.2825391 25.6986348,65.9021883 C25.8046777,65.8506941 26.5532157,65.5196596 26.0253405,64.9721944 C21.1377772,59.9052375 16.7766078,52.9972643 14.9127482,44.3984986 C11.739298,29.8054923 17.1949703,17.2045005 19.0149703,14.047477 C19.0149703,14.047477 19.4703309,17.2819354 20.3038202,20.5349783 C20.3794927,18.4674648 20.8946973,16.6783299 21.5685765,15.2000964 C23.0202333,12.0125635 25.1886933,10.2613331 25.1886933,10.2613331 C25.1886933,10.2613331 24.9044828,12.8730983 24.9173483,15.9969022 C24.9196875,16.556757 24.9317733,17.1320988 24.9571144,17.7120867 C25.4222216,16.2381121 26.05536,14.9639972 26.7699798,13.8623687 C28.2343073,11.6035908 30.0444437,10.0836198 31.4916171,9.12915646 C31.9769973,8.80942749 32.8413247,8.32305847 32.8483423,8.32472332 C33.2658861,8.10558237 33.5961005,7.95721698 33.7984397,7.87250313 C33.6374261,8.16288425 33.4374261,8.53252005 33.2077964,8.97355089 C32.0284592,11.2389495 30.097855,15.333633 28.9851845,19.7552082 C28.6709544,21.0022983 28.5091611,22.2273195 28.4541903,23.3958131 L28.9504866,23.0469686 L30.1142293,22.2296425 C30.8140343,18.9665331 32.3103306,15.2000964 35.3294338,11.5981703 C41.8187124,3.85509972 51.4526303,0.717473666 55.0635464,0.00665940697 C55.1356711,0.461589825 56.035866,6.37916983 55.1851838,12.4732241 C54.8998037,14.5140613 54.5181273,16.2776039 54.1306029,17.73493 C55.3469772,17.3287836 56.8031175,17.156878 56.8031175,17.156878 C56.8031175,17.156878 55.6842091,24.5623708 49.7013633,31.0765872 C41.751266,39.7326548 31.4588686,43.8525821 28.1422995,45.0706341 C28.215204,45.3331386 28.2947361,45.5925457 28.372319,45.8527272 C29.2304086,48.7391155 30.3508764,51.5116745 31.7111103,54.1409787 C31.7793364,52.9225395 31.8007789,51.6917107 31.7750479,50.4508154 C31.7380109,48.6775547 31.6015587,46.9294604 31.3769973,45.210017 C31.960623,45.0648265 32.5387906,44.9080207 33.1138393,44.742697 C37.8167632,43.3875851 42.2187124,41.3440764 46.2042873,38.7306463 C47.6947356,39.2424915 49.9918116,40.0443305 51.6604276,40.0102591 C53.6327472,39.9692186 55.4986341,39.5150625 57.1777763,38.7337437 C57.3465873,38.6439192 58.2764118,38.1293638 58.6417139,37.6221648 C58.8892773,37.2779664 59.0031174,36.7607008 59.0031174,36.7607008 L59.16725,36.6147359 C59.4120843,36.936091 59.9005833,37.3166839 60.2268991,37.5524734 C60.28148,37.5919652 60.3376203,37.6326185 60.3925911,37.671336 C60.4892772,37.7387044 60.550096,37.7778091 60.550096,37.7778091 L60.5489264,37.7785834 C61.2908367,38.2912029 62.0253396,38.763169 62.7621817,39.2049355 C62.0031174,39.8499688 60.3805053,41.1264842 58.4807003,42.0026608 C57.250291,42.5706462 55.004677,43.1932234 54.258868,43.3360909 C53.7138388,43.4410152 53.1208564,43.0910092 52.9972696,43.1274036 C52.5645211,43.2536226 52.5766069,43.349642 52.5766069,43.349642 C52.5766069,43.349642 54.1832345,44.3090612 55.4050668,44.6246087 C56.930213,45.0175911 58.2304079,44.7419227 58.2304079,44.7419227 C58.2304079,44.7419227 59.4908367,43.1386317 60.8775813,41.9422615 C61.9477567,41.0188495 63.3306027,40.1953287 63.9087703,39.8666173 C66.2385948,41.1574581 68.6444427,42.173792 71.4366454,43.1514085 C71.7500957,44.7086256 72.1395693,46.2368047 72.5999982,47.734784 C72.2639358,47.8490006 71.9306025,47.9705735 71.5980489,48.0917592 C71.3430781,47.7998294 70.8701737,47.3414144 70.2237799,47.0777484 C69.2249495,46.6685046 68.3426883,46.6104284 68.3426883,46.6104284 L69.5773862,44.7999989 C69.5773862,44.7999989 67.8132537,44.6246087 66.8725129,45.3253951 C65.9317722,46.0265687 65.4027274,47.3104404 65.4027274,47.3104404 C65.4027274,47.3104404 67.1079905,47.0777484 68.4015577,47.4277544 C69.1933706,47.6418621 70.0717331,48.1188615 70.635086,48.4560907 C64.226899,50.9514325 58.4931759,54.7604584 53.7688096,59.5490366 C53.1614022,60.1646446 52.7384002,60.5839549 52.7508759,61.1743965 C52.7508759,61.1941425 52.7532151,61.213114 52.7547745,61.2328599 C52.7543846,61.2510571 52.7524353,61.2688672 52.7532151,61.2870644 C52.7707589,62.1415592 53.4826497,62.8202767 54.3430786,62.8024667 C55.2035074,62.7846566 55.8865483,62.0776754 55.8686146,61.2231806 C55.8682247,61.2049833 55.8658855,61.1871733 55.8643261,61.1689761 C55.8651058,61.1496173 55.8666653,61.1298714 55.8662754,61.1101255 C55.858868,60.7736706 55.7582832,60.4627692 55.590252,60.2045236 C55.4896672,60.0500408 55.5571136,59.9466652 55.7118894,60.0380384 C56.6241701,60.5754371 57.2452227,61.5534407 57.2686146,62.6839912 C57.2818699,63.3154733 57.1048719,63.9063021 56.7933709,64.4061448 C65.2417138,65.5289518 73.0163724,68.8257454 79.511499,73.7242813 C79.8311871,73.965104 80.1064307,74.1795989 79.8179317,74.4088064 Z" id="path118"></path>
                                </g>
                            </g>
                        </g>
                        <g id="g120" transform="translate(35.945418, 3.794313)">
                            <g id="g122-Clipped">
                                <mask id="mask-20" fill="white">
                                    <use xlink:href="#path-19"></use>
                                </mask>
                                <g id="path124"></g>
                                <g id="g122" mask="url(#mask-20)" fill="url(#linearGradient-21)" fill-rule="nonzero">
                                    <path d="M93.3536039,17.2334999 C85.3766061,14.6747002 70.0600372,13.7710341 54.6062365,14.3215193 C36.5255351,14.9650813 24.3773873,19.1666638 18.5598436,21.7460612 C17.355945,22.2799365 16.4218319,22.7338216 15.7641322,23.0567254 C15.7497072,23.0187435 15.7345025,22.9808004 15.7200776,22.9432832 C15.4779723,22.3101749 15.2257306,21.6825645 14.9621829,21.0600261 C14.1808963,19.214325 13.3056527,17.4166723 12.3407404,15.6751212 C9.12319665,18.5995301 6.24444429,21.8850569 3.76179328,25.466424 C3.37192974,24.542199 2.95762176,23.6312928 2.52132547,22.7321567 C1.75150093,21.1471404 0.911150075,19.6022354 0.00319688101,18.1035979 C2.21017538,14.646088 4.78011684,11.4422163 7.6588692,8.54339967 C10.8916177,5.28888553 14.5126702,2.41984265 18.4487325,0.0119482151 C19.4588689,2.6761911 20.2717344,5.43558607 20.8771925,8.2728419 C21.7532158,8.10116858 22.6463932,7.93936822 23.555555,7.78569853 C24.8510715,7.56806757 26.1769974,7.36828536 27.5306036,7.19057211 C35.9368412,6.07984498 45.3594531,5.73940216 54.4432735,6.42013293 C81.4023371,8.43921092 93.2643252,16.3360673 93.4315766,16.4971321 L93.3536039,17.2334999" id="path134"></path>
                                </g>
                            </g>
                        </g>
                        <g id="g136" transform="translate(163.196877, 15.177253)">
                            <g id="g138-Clipped">
                                <mask id="mask-23" fill="white">
                                    <use xlink:href="#path-22"></use>
                                </mask>
                                <g id="path140"></g>
                                <g id="g138" mask="url(#mask-23)" fill="url(#linearGradient-24)" fill-rule="nonzero">
                                    <path d="M34.7863539,13.2155157 C25.9680305,16.3673511 18.3422997,21.9972602 12.7539958,29.2568656 C12.6113057,29.4427095 12.4690055,29.6289406 12.3286547,29.8171075 C12.1621829,30.0393459 11.9976605,30.2615842 11.836257,30.48692 C10.9165689,31.7642097 10.0596489,33.089122 9.2670563,34.4562363 C9.16257287,34.6378213 8.93957093,34.6471135 8.93060407,34.4686259 C8.78791401,31.6283114 8.43586724,28.8429757 7.89122787,26.1269443 C7.78011676,25.5709612 7.66276784,25.0165269 7.5348926,24.4671258 C7.25614017,23.2652577 6.93879125,22.0781797 6.58362557,20.9066661 C5.05341118,15.8471043 2.83508765,11.0828793 0.0382066267,6.72065803 C1.46861595,4.36768047 3.065497,2.1271772 4.81208565,0.0128542042 C8.72397639,6.23773487 11.2378165,13.4171176 11.9192979,21.119922 C18.5235863,16.6485174 26.303703,13.7613548 34.703313,13.0098484 C34.9949309,12.9839852 35.0499017,13.121742 34.7863539,13.2155157" id="path150"></path>
                                </g>
                            </g>
                        </g>
                        <g id="g152" transform="translate(67.095515, 1.781004)">
                            <g id="g154-Clipped">
                                <mask id="mask-26" fill="white">
                                    <use xlink:href="#path-25"></use>
                                </mask>
                                <g id="path156"></g>
                                <g id="g154" mask="url(#mask-26)" fill="url(#linearGradient-27)" fill-rule="nonzero">
                                    <path d="M93.6771906,24.6638106 C93.2296273,25.5883067 92.8050659,26.5276702 92.4062355,27.4797331 C89.9403486,23.898366 87.0814793,20.6128392 83.8857679,17.6884303 C83.4674443,18.4476801 83.0690038,19.2174998 82.685378,19.997115 C81.8783605,21.6365681 79.8916159,26.4460151 79.8822592,26.471104 C79.8822592,26.471104 52.7072112,0.797944082 0.484600378,7.04356183 C0.395321628,7.05475118 0.0140350874,6.37719524 0.0140350874,6.37719524 C10.1812863,2.39428911 22.8803113,0.0305519654 33.2573091,0.0305519654 C57.107211,0.0305519654 75.2635459,10.3638957 75.2635459,10.3638957 C75.8756316,7.31957876 76.7454172,4.8744536 77.8183216,2.0252573 C81.7278732,4.43315173 85.3247542,7.30219461 88.5352804,10.5567087 C91.3941498,13.4555254 93.9465863,16.659397 96.1395687,20.1169069 C95.2537988,21.5896813 94.4315766,23.1066322 93.6771906,24.6638106" id="path166"></path>
                                </g>
                            </g>
                        </g>
                        <g id="g168" transform="translate(97.504871, 30.277071)">
                            <g id="g170-Clipped">
                                <mask id="mask-29" fill="white">
                                    <use xlink:href="#path-28"></use>
                                </mask>
                                <g id="path172"></g>
                                <g id="g170" mask="url(#mask-29)" fill="url(#linearGradient-30)" fill-rule="nonzero">
                                    <path d="M31.6424943,87.9657328 C32.2479524,87.6277292 34.3847945,80.2048135 34.7341122,78.7405183 C34.8132545,78.4063864 34.7910323,78.1287821 34.6713442,77.9588123 C34.5649114,77.8089757 34.3820654,77.7342509 34.1243656,77.7361868 L34.0721239,77.7373483 C33.5294339,77.7636762 33.1134495,78.1674996 32.9598432,78.8164046 C32.629239,80.2009417 31.2713442,87.3938756 31.6424943,87.9657328 Z M35.0748529,87.6594775 C35.6378159,87.4461442 37.2027281,80.1707421 37.4354766,78.7505848 C37.4705644,78.5349285 37.4799211,78.237191 37.3243655,78.0424421 C37.211695,77.9007361 37.0249503,77.8356907 36.771539,77.8476932 L36.7395702,77.8504034 C36.1715391,77.8914439 35.7695897,78.2975903 35.6651063,78.9372031 C35.4444436,80.2826356 34.651851,87.292823 35.0748529,87.6594775 Z M38.6545799,86.6013287 C39.1922017,86.369411 40.0939561,79.9392116 40.2054571,78.5852612 C40.2226111,78.3932225 40.2081861,78.1287821 40.0545799,77.9549406 C39.9255351,77.8054911 39.7138392,77.7485764 39.4261199,77.7892298 C38.6152037,77.8999618 38.4709542,78.5852612 38.4483421,78.8752551 C38.3454181,80.119635 38.2015585,86.3124963 38.6545799,86.6013287 Z M42.1360613,85.7704516 C42.6066266,85.0414014 42.8639366,79.4122666 42.8534102,78.265842 C42.8518508,77.9541662 42.7450282,77.5878988 42.245613,77.612678 C42.1906422,77.6153883 42.1321627,77.6223574 42.0690048,77.634747 C41.5415194,77.738897 41.2421042,78.1043901 41.2471725,78.6386913 C41.2549697,79.7405909 41.674073,85.100252 42.1360613,85.7704516 Z M43.9161782,78.2468704 C44.031188,79.3313471 44.9816753,84.327451 45.5114998,84.8853699 C45.9118897,84.1687093 45.6089657,78.886096 45.4947357,77.8143961 C45.4662757,77.5367918 45.3348917,77.2107906 44.8779716,77.2332467 C44.8050671,77.2375056 44.7243654,77.2495081 44.6413244,77.271577 C44.1286539,77.4008934 43.8635467,77.7570942 43.9161782,78.2468704 Z M46.5083809,77.7272818 C46.7192971,78.7153519 48.2148136,83.4005545 48.7844042,83.8574208 C49.1056518,83.1395986 48.262377,78.2395141 48.0518507,77.2464107 C47.9996089,77.0005546 47.8487317,76.7117222 47.4257298,76.7322425 C47.3368409,76.7365014 47.2385953,76.7550858 47.1348916,76.7868341 C46.6358663,76.9409297 46.4124745,77.2750616 46.5083809,77.7272818 Z M49.0690046,77.0725692 C49.3575036,77.9382921 51.2101352,81.882442 51.8896673,82.580131 C51.990642,81.5552793 50.7337219,77.4574209 50.4510709,76.6083465 C50.3855738,76.4116617 50.2331371,76.1809055 49.8760221,76.1983284 C49.7785563,76.2029745 49.6693945,76.226205 49.5539949,76.268407 C49.3111099,76.3555214 49.145028,76.4844506 49.073683,76.6408692 C49.0027278,76.7949648 49.0323574,76.9606756 49.0690046,77.0725692 Z M54.6397647,80.9838092 C54.5918115,79.9709599 53.0233905,76.4956787 52.6888876,75.7643054 C52.6140338,75.6001433 52.4612073,75.4073302 52.1567238,75.4224301 C52.0537999,75.4278505 51.9411293,75.4557271 51.8226108,75.5060598 C51.6120845,75.59511 51.4760221,75.7120368 51.4261196,75.8448378 C51.376217,75.9768644 51.4187122,76.1185704 51.4608174,76.2134282 C51.8109149,76.9777113 53.9469772,80.3647167 54.6397647,80.9838092 Z M57.0136438,78.9046804 C56.5153982,77.6645595 55.1582832,75.4797319 54.8300181,74.9233617 C54.7500961,74.7878505 54.598829,74.6287217 54.336061,74.6414984 C54.2307979,74.6465317 54.1165678,74.6790544 53.9972696,74.7367434 C53.8202716,74.8230834 53.7099402,74.9260719 53.6787511,75.0352552 C53.6463924,75.1471488 53.696295,75.267173 53.7426887,75.3480925 C54.0814801,75.918401 55.8374255,78.0714802 56.7976594,79.0467736 C56.9454177,79.1973846 57.0912266,79.0974935 57.0136438,78.9046804 Z M58.9808952,77.0245595 C58.3177373,75.9091088 56.9699791,74.2651645 56.6479518,73.8330774 C56.5664703,73.7219582 56.4194918,73.5910931 56.1929811,73.6027084 C56.087328,73.6073545 55.9742676,73.6433617 55.8576984,73.7084071 C55.7138388,73.7889395 55.62456,73.8799256 55.6062364,73.965104 C55.5847939,74.0618977 55.6518505,74.1706939 55.6927861,74.2268342 C56.0452228,74.6995747 57.6565288,76.2424663 58.6927861,77.1329684 C58.9251447,77.3319763 59.1126691,77.2464107 58.9808952,77.0245595 Z M60.6401544,75.0627446 C59.8686145,74.155594 58.7430785,73.1071246 58.4389849,72.7745414 C58.3563338,72.6839425 58.2163728,72.5782438 58.0191019,72.587536 C57.9142286,72.5929564 57.8042871,72.6312868 57.6939557,72.7017526 C57.5797257,72.7733799 57.5091604,72.8508149 57.4998036,72.9135372 C57.4916165,72.9692904 57.530213,73.0513714 57.6031175,73.1315166 C57.9469771,73.5078506 59.5107198,74.669375 60.5859634,75.4297864 C60.8440531,75.6125329 60.8974644,75.3651282 60.6401544,75.0627446 Z M62.3220257,73.3030351 C61.4795306,72.5534646 60.4491213,71.7911174 60.1504858,71.5212565 C60.0612071,71.4418857 59.9169576,71.3497381 59.7294332,71.3590303 C59.6136437,71.3648379 59.4966847,71.4078143 59.384404,71.4887338 C59.2861584,71.5580381 59.2261194,71.6304398 59.2222207,71.6830956 C59.2183221,71.7252977 59.2510706,71.8011839 59.3493163,71.889847 C59.6904469,72.1953279 60.9933708,72.9758723 62.0920062,73.6143236 C62.5590628,73.885346 62.7196865,73.6569129 62.3220257,73.3030351 Z M11.3255358,66.9607243 C12.424951,65.9300649 13.4779724,64.8525574 14.4807014,63.7285888 C17.1352822,66.5669675 22.2803113,70.8789335 30.4210519,73.0296896 L30.4233911,73.0203974 C30.4288491,73.0219461 30.4990246,73.0471125 30.6159836,73.0800224 C30.700584,73.1017042 30.7847946,73.1249347 30.8701747,73.1458421 C31.6881084,73.3386552 33.3863539,73.550827 33.8732935,72.1523515 C34.3691999,70.729484 33.3017536,69.927645 32.4202721,69.5458906 C28.8401552,68.2287218 25.6596485,66.103132 23.1048727,63.3898109 C27.0335276,62.6692785 30.7918121,61.4624546 34.3173481,59.8297384 C36.3037028,58.9101982 38.2152037,57.8551468 40.0405448,56.6777481 C40.171539,55.7396235 40.2553596,54.77943 40.2923967,53.8029751 C38.362962,55.2517833 36.3208568,56.5581111 34.1797262,57.7002768 C30.4003891,59.7174577 26.3146192,61.2282138 22.0148143,62.1500771 C21.0093562,62.366895 19.9906428,62.5515774 18.9606233,62.7021884 C19.2553601,61.4214141 19.5298241,60.1572883 19.7789469,58.9260723 C19.7933718,58.8532835 19.807017,58.7816561 19.8218319,58.7088673 C20.5746584,54.9432049 21.0740735,51.5047053 21.1009741,48.9164416 C21.1450287,44.4387648 21.1411301,40.4922918 21.1009741,37.0108158 C21.9933718,36.78548 22.9056524,36.6116385 23.8339175,36.4861939 L23.5251456,34.5681298 C23.5251456,34.5681298 23.2148142,33.6443307 24.0483425,33.525468 C24.8814809,33.405831 28.3516562,32.774736 28.3516562,32.774736 C28.3516562,32.774736 29.1243657,34.1236531 29.4031182,34.4314571 C29.7251455,34.7861092 30.2276796,35.2344577 29.4920071,35.2278757 C29.1516562,35.224004 28.538011,34.3149175 28.2081864,34.3292429 C27.8253404,34.3458915 27.4744633,34.3687348 27.215204,34.3838346 C26.7356718,34.4109368 25.7738785,34.5282508 25.7738785,34.5282508 C25.7738785,34.5282508 25.5508766,34.5259278 25.5789467,34.8124371 C25.5964906,34.9758249 25.6171534,35.7110699 25.632358,36.3096422 C26.2042878,36.275958 26.7805062,36.2600838 27.3621826,36.2651171 C27.5594535,36.2674401 27.7536055,36.2763451 27.9497069,36.2825399 C27.4651065,39.0918805 26.7937615,43.201354 26.8732937,43.9795754 C27.021052,45.4279964 27.0042878,48.0967925 30.6623774,48.6082504 C30.8499018,48.6341912 31.0448335,48.6570345 31.2510713,48.6713599 C32.7715391,48.7766715 34.4354767,48.5157157 35.9477574,48.1382202 C37.4023382,47.7746631 38.7134493,47.3038585 39.6194922,46.9433987 C39.3259249,45.7532233 38.9442485,44.5963449 38.4810907,43.4820558 C37.9161784,42.1242337 37.2284591,40.8279724 36.4335274,39.6075973 C36.6393753,39.1956433 36.8409348,38.778656 37.0350868,38.3605072 C38.1968801,35.8674885 39.22573,32.1719048 39.9703694,29.4775552 C40.9590633,29.6250688 41.9282641,29.8298843 42.8729034,30.0916145 C44.2323576,30.5360912 45.9571139,31.0293519 47.2619871,31.5818504 C48.2818701,32.0123888 50.1341118,32.9590312 51.6768018,34.0125339 C52.1321624,32.9841976 52.8198817,31.7498843 53.7925912,30.7622013 C54.987523,29.5487954 56.2998037,28.6857827 57.1937608,28.1723889 C53.2998037,27.9877065 50.9419091,32.0220682 50.9419091,32.0220682 L50.6241703,31.5818504 C51.5243652,29.7958129 51.9883028,27.1188862 57.4249498,25.0091706 C57.610135,24.299092 60.098634,18.5603867 58.4506808,11.401137 C57.1161779,5.60435558 53.9040922,0.0347682992 53.9040922,0.0347682992 C53.9040922,0.0347682992 60.6179322,2.45159099 63.0003883,9.99646678 C63.1649107,6.16529446 62.7684195,2.52283115 62.7684195,2.52283115 C62.7684195,2.52283115 67.4230003,6.27494237 67.6736825,12.8054201 C68.5060412,9.55082856 68.9606221,6.32109361 68.9606221,6.32109361 C70.3793355,8.10902823 72.2339163,13.2049845 70.8175421,18.8008223 C70.3738774,20.5551114 69.3960996,21.9419716 68.2623765,23.0210279 C68.8155928,22.8456377 69.349316,22.6392735 69.8475616,22.3829637 C73.400388,20.5558858 72.7025323,18.0353776 72.7025323,18.0353776 L73.2097448,18.0353776 C73.4635459,18.9181362 75.3758266,25.3916993 67.4370354,28.3048027 C66.3134486,28.717531 64.9107196,28.7818021 63.3302128,28.7047543 C63.9348912,29.1933689 64.478361,29.8051051 64.7730978,30.5810035 C65.1555539,31.5895939 65.1114993,32.466932 64.9493161,33.1278395 C66.5461972,33.242056 68.0927858,33.5428909 69.4666649,34.2909126 L70.0385947,35.9913845 C65.3426884,37.440967 65.2401543,41.6545906 65.1013629,44.7539251 C65.1348912,45.1387769 65.1606222,45.5251773 65.1758268,45.914288 C65.1824545,46.0772886 65.186743,46.2414507 65.1898619,46.4056129 C65.1941504,46.6475971 65.1964896,46.8895814 65.1941504,47.1331144 C65.1278736,53.7410271 62.9259244,59.5834952 58.9563338,63.839708 C56.5520454,66.4179052 53.4978544,68.4126299 49.8799208,69.644233 C49.7025329,69.7042451 49.5204666,69.7576752 49.3403496,69.8138156 C48.7980495,70.0232771 47.5064316,70.5959087 47.8830397,72.0048379 C48.1345017,72.9445112 49.2830397,73.1706213 50.7614022,72.6487096 C50.870564,72.6107665 50.9606225,72.5848258 51.0382054,72.5685644 C57.2690044,70.3527629 62.0140335,66.3784133 66.2093551,62.5267982 C66.5419087,62.2209301 66.8740724,61.9154491 67.200778,61.6119041 C75.9953197,53.4467742 84.4756314,50.3753163 90.4639354,49.360144 C92.130602,44.6625518 93.0405435,39.6106947 93.0405435,34.3458915 C93.0405435,27.5196121 91.5153973,21.0487593 88.7890816,15.2450087 C84.2292377,18.7547485 80.3157875,23.0543249 77.2596472,27.9385353 C76.4346959,29.2576399 75.6499006,28.8778214 76.1107193,27.3875855 C78.1231949,20.8876946 81.4834288,14.9743735 85.8697834,9.96975172 C87.3087697,8.32743355 88.8600368,6.78403855 90.5087697,5.35040761 C91.7614012,7.42605184 92.8600367,9.60464586 93.7918105,11.8692314 C96.0978533,17.4782331 97.3715375,23.6130182 97.3715375,30.0447663 C97.3715375,36.7750263 95.973097,43.1785107 93.4576975,48.9934894 C94.4280678,48.9222492 95.2935649,48.9052135 96.030407,48.9253466 C95.5235844,50.3621524 95.2350853,51.2240036 94.5598417,52.6507428 C82.2035067,52.9329932 75.1465868,57.2538643 68.3189067,65.2416681 C68.3189067,65.2416681 68.1267039,65.4329324 68.2962946,65.6199379 C68.4662751,65.8065561 68.6826494,65.6660117 68.6826494,65.6660117 C69.854969,64.8990183 75.7130585,58.4370705 84.9832337,56.3893029 C89.6580874,55.3570948 92.0873271,55.643217 93.1906409,55.7961511 C92.5582823,57.0800228 92.0148125,58.0142756 91.3999977,58.9841486 C90.3489256,58.4618497 89.3056508,58.1919889 88.2487307,58.1377844 C87.3723175,59.3465442 86.4417132,60.5138763 85.4584774,61.6347474 C85.3863526,61.7172156 85.3165671,61.8023941 85.2432727,61.8844752 C85.1337211,61.9599743 85.0015573,62.0044994 84.859647,62.0044994 C84.488107,62.0044994 84.1871324,61.7056004 84.1871324,61.3373971 C84.1871324,61.2316984 84.2144228,61.1325817 84.2580876,61.0443058 C84.2935651,60.9734528 84.3403488,60.9087946 84.3960993,60.8549773 C85.0003877,60.0275847 85.5730973,59.1761873 86.119686,58.3069798 C85.9816743,58.3356307 85.842493,58.3654432 85.7029218,58.3999017 C81.4791403,59.4355944 78.1076004,61.2332471 73.7477564,66.1015833 C67.1960997,73.4149286 56.5380103,88.6665193 35.4167632,88.5023571 C32.8744631,88.4826112 30.4674456,88.3060595 28.1937615,88.0087092 C28.8760227,87.4821515 31.543469,80.0185824 32.0046776,78.5244747 C32.1161785,78.1644022 32.1122799,77.8612443 31.99766,77.672303 C31.9044826,77.5170459 31.7313832,77.4303187 31.4849895,77.4148317 C31.4421045,77.4121215 31.3996094,77.4117343 31.3575041,77.4136702 C30.6315782,77.4489031 30.3317731,78.1678867 30.2382059,78.4756907 C29.7988297,79.8962351 27.8966855,87.2200341 28.1598434,88.0040631 C27.0697849,87.8611956 26.0113054,87.6889028 24.9828454,87.4929924 C26.0378161,85.9044141 28.720857,79.5477778 29.2612078,78.108649 C29.4066269,77.7214742 29.4257303,77.3927627 29.3157887,77.1821396 C29.2323579,77.0218493 29.0725139,76.923894 28.8385958,76.8909842 C28.2764125,76.8092903 27.7824554,77.1980138 27.5111104,77.9224179 C27.0097459,79.2570095 24.9091612,85.6527504 24.6842099,87.436852 C23.6413249,87.2320365 22.6315784,87.0020547 21.6522412,86.7503911 C22.9146193,84.943059 25.8935666,78.9844384 26.520857,77.5937065 C26.6990247,77.1995625 26.7430793,76.8576871 26.6448336,76.6323514 C26.5734886,76.4674149 26.4233912,76.3586188 26.1999993,76.3086732 C25.6499019,76.1855516 25.1243658,76.5541421 24.7992197,77.2758359 C24.1941514,78.613525 21.7610131,84.6193808 21.2771925,86.6535973 C20.2639371,86.3864467 19.2853796,86.0964528 18.3430795,85.7882616 C19.8027285,83.8674873 23.0822606,78.2178323 23.7972704,76.8720126 C24.009746,76.4712867 24.0799214,76.1170217 23.995321,75.8765861 C23.9356719,75.7085523 23.7968805,75.5893024 23.584015,75.5238699 C23.0456135,75.358159 22.4935667,75.703519 22.1130599,76.4194052 C21.4237811,77.7183768 18.6479528,83.4667614 17.9224167,85.6492659 C16.9325532,85.3159083 15.981676,84.9643536 15.0709548,84.5984734 C16.7598436,82.586713 20.4799215,76.9606756 21.1076018,75.9373726 C21.3551652,75.5335492 21.4510716,75.1688305 21.3801164,74.9121336 C21.3325531,74.7410024 21.2050677,74.6128475 21.0035082,74.531928 C20.4849897,74.3244023 19.9060424,74.6430471 19.4725141,75.3477053 C18.6978553,76.613767 15.5805064,82.1480439 14.6253408,84.4153397 C13.681871,84.0246803 12.7812862,83.6200826 11.9251459,83.2061927 C13.7754383,81.2188243 17.7637422,75.9110447 18.4487325,74.9353641 C18.7290444,74.5361869 18.8510717,74.168758 18.7961009,73.9012202 C18.7598436,73.728153 18.6467832,73.5934162 18.4604284,73.4997199 C17.9699801,73.2538639 17.3742686,73.5384374 16.8970756,74.2187035 C16.2315785,75.1696049 12.6604285,80.64658 11.4729042,82.9855031 C10.5699802,82.5367674 9.71773855,82.0802883 8.91539939,81.6226477 C10.9095514,79.7018734 15.1773875,74.6747955 15.9153992,73.7467374 C16.2253407,73.356078 16.3746585,72.9871004 16.3364518,72.7094961 C16.3122803,72.5360417 16.2128651,72.3943358 16.041715,72.2882499 C15.5766078,72.002902 14.9793369,72.248758 14.4549704,72.9085039 C13.7306039,73.8199135 9.84795297,79.0583888 8.47758263,81.3694354 C7.57738772,80.8428776 6.74230003,80.316707 5.9769979,79.8037004 C8.08499005,78.0316012 12.6152044,73.3673061 13.5115006,72.3827205 C13.8549704,72.0056122 14.0335279,71.6389577 14.0155942,71.3501253 C14.0050679,71.1747351 13.9220269,71.0310932 13.7633525,70.9106818 C13.3380114,70.5866165 12.7263155,70.791432 12.1598438,71.4147835 C11.1851849,72.4841603 7.07485362,77.3432044 5.5664716,79.5245473 C4.57582835,78.8450555 3.70799211,78.1918916 2.95906425,77.5917706 C5.26393749,76.0171306 10.5430797,71.4871851 11.2463935,70.8452493 C11.6307989,70.4967919 11.8483428,70.1409783 11.8615981,69.843628 C11.8682258,69.6670763 11.8050679,69.5156909 11.6666664,69.3801798 C11.2881089,69.0104278 10.6662765,69.1544568 10.0436645,69.7208936 C9.15984383,70.5246685 4.29785564,75.2392964 2.59064321,77.2940332 C1.39649119,76.3137065 0.541910318,75.4987035 0.0331384007,74.9841482 C2.54970754,73.6693025 4.94152034,72.15119 7.18674446,70.4522668 C8.62845982,69.360821 10.0101362,68.1954248 11.3255358,66.9607243 Z" id="path182"></path>
                                </g>
                            </g>
                        </g>
                        <g id="g184" transform="translate(129.083817, 22.494857)">
                            <g id="g186-Clipped">
                                <mask id="mask-32" fill="white">
                                    <use xlink:href="#path-31"></use>
                                </mask>
                                <g id="path188"></g>
                                <g id="g186" mask="url(#mask-32)" fill="url(#linearGradient-33)" fill-rule="nonzero">
                                    <path d="M25.7692001,31.381681 L25.2378161,31.8006042 C24.5372314,28.0984385 23.306822,23.2072589 19.2994147,17.3756317 C16.2869392,12.9924256 11.9458087,11.311235 11.9458087,11.311235 C12.3189081,11.8242417 14.2538008,16.2849603 13.1454188,23.6761277 C13.0510718,24.3076098 12.9001946,24.8852746 12.7040932,25.4160913 C8.03703684,22.305916 3.12163735,22.6044277 3.12163735,22.6044277 C3.12163735,22.6044277 1.28421049,18.9061338 0.39337231,12.5235956 C-0.459649111,6.41045356 0.443274843,0.474289159 0.515789461,0.0173841496 C0.80662766,0.175738653 5.78908368,0.474289159 14.3306039,6.29310087 C29.1532156,16.392982 25.7692001,31.381681 25.7692001,31.381681" id="path198"></path>
                                </g>
                            </g>
                        </g>
                        <g id="g200" transform="translate(126.003895, 71.278885)">
                            <g id="g202-Clipped">
                                <mask id="mask-35" fill="white">
                                    <use xlink:href="#path-34"></use>
                                </mask>
                                <g id="path204"></g>
                                <g id="g202" mask="url(#mask-35)" fill="url(#linearGradient-36)" fill-rule="nonzero">
                                    <path d="M5.28966848,2.84302473 C6.49161777,2.8542528 7.06861581,3.57672102 7.06666649,3.71339374 C7.0654969,3.8492921 6.85886922,3.91588617 6.85886922,3.91588617 C6.85886922,3.91588617 5.96686145,3.77030844 5.17582833,3.86477909 C4.56140339,3.93911666 4.45341119,4.02855404 3.79766072,4.26124611 C2.98596484,4.54891701 2.90487322,4.21865688 2.90487322,4.21865688 C2.90487322,4.21865688 2.39999994,3.15508764 1.75321633,2.50076219 C1.49278749,2.23670896 1.18713447,2.05705984 0.915399587,1.93432542 C0.787524347,1.87353897 0.389863538,1.64820323 0.133723194,1.50262549 C0.0171539957,1.43680577 0.0132553603,1.28929216 0.0132553603,1.28929216 C0.0132553603,1.28929216 0.0541910318,0.675620068 0.162183232,0.267537803 C0.269005841,-0.141318811 0.712670547,0.068142769 0.712670547,0.068142769 C0.712670547,0.068142769 1.05419101,0.310127034 1.29239763,0.482807005 C1.53138398,0.655874152 2.1138401,0.900568641 2.1138401,0.900568641 C2.1138401,0.900568641 2.534113,0.0522686012 3.73606228,0.13163944 C4.93762171,0.212171804 5.36725133,1.88825162 5.36725133,1.88825162 L5.19415192,2.05744701 L5.02261196,1.98736837 C5.02261196,1.98736837 4.44405447,1.46932846 3.78869386,1.73570474 C3.13333325,2.00246819 3.53645215,2.9618874 3.53645215,2.9618874 C3.53645215,2.9618874 4.08693947,2.83140949 5.28966848,2.84302473" id="path214"></path>
                                </g>
                            </g>
                        </g>
                        <g id="g216" transform="translate(126.549704, 47.893526)">
                            <g id="g218-Clipped">
                                <mask id="mask-38" fill="white">
                                    <use xlink:href="#path-37"></use>
                                </mask>
                                <g id="path220"></g>
                                <g id="g218" mask="url(#mask-38)" fill="url(#linearGradient-39)" fill-rule="nonzero">
                                    <path d="M18.090058,11.9493766 L17.7099411,12.0124861 C17.7099411,12.0124861 15.2358671,8.67310323 11.4288496,7.72762231 C7.62222203,6.78252857 4.51345018,7.03496655 4.51345018,7.03496655 C4.51345018,7.03496655 4.32514609,8.44467009 3.75243655,10.4362974 C3.19454183,12.3783663 3.00116952,13.1066421 2.99220265,13.1426494 C3.08109154,13.2057589 3.81832349,13.7319295 4.50955154,14.4776282 C5.24834295,15.2728853 5.18479519,16.1517721 5.18479519,16.1517721 L4.99454179,16.1939742 C4.99454179,16.1939742 3.72982447,15.4401448 2.57076017,15.0212216 C1.41130601,14.6030728 0.315399602,14.4358133 0.315399602,14.4358133 L0.0116959061,14.0312156 L0.00857699784,14.0285054 C0.00857699784,14.0285054 1.59571146,12.2006531 2.0389863,10.2481304 C2.48732937,8.27741056 2.48460033,8.29947953 2.22300189,5.64500893 C2.22300189,5.64500893 12.6822609,6.95094961 15.2382062,0.0174228671 C15.3430795,0.087888685 15.4483427,0.156418629 15.5528261,0.230756195 C20.3111106,3.5693647 18.090058,11.9493766 18.090058,11.9493766" id="path230"></path>
                                </g>
                            </g>
                        </g>
                    </g>
                </g>
            </g>
        </g>
    </g>
</svg>