<?xml version="1.0" encoding="UTF-8"?>
<svg width="200px" height="200px" viewBox="0 0 200 200" version="1.1" xmlns="http://www.w3.org/2000/svg" xmlns:xlink="http://www.w3.org/1999/xlink">
    <!-- Generator: Sketch 51.3 (57544) - http://www.bohemiancoding.com/sketch -->
    <title>columbus-st</title>
    <desc>Created with Sketch.</desc>
    <defs></defs>
    <g id="columbus-st" stroke="none" stroke-width="1" fill="none" fill-rule="evenodd">
        <g id="columbus-st_BGL" transform="translate(31.000000, 0.000000)">
            <g id="columbus-st" transform="translate(0.850011, 0.000000)">
                <g fill-rule="nonzero" id="g10">
                    <g transform="translate(67.671467, 99.866457) scale(-1, 1) rotate(-180.000000) translate(-67.671467, -99.866457) translate(0.000000, 0.060495)">
                        <g id="g12">
                            <path d="M72.9527142,70.991527 C71.564504,67.823595 69.78947,64.7575105 68.2137456,62.1760898 C67.6773642,62.7334154 67.077243,63.2511966 66.4082406,63.7019113 C66.3837428,63.7837219 66.3659743,63.8661374 66.3467692,63.9505944 C66.1651526,64.6721462 66.0995983,65.5136163 66.0995983,66.4874049 C66.0943055,67.9996165 66.2670757,69.7977116 66.2709318,71.8285361 C66.2709318,73.8089283 66.0859884,76.024167 65.3263289,78.3582655 C65.1033533,79.0516145 65.0235841,79.627011 65.0182914,80.1426752 C65.0176865,80.8670245 65.1845591,81.5505441 65.4725598,82.2733812 C67.2278593,81.2125648 69.4926229,79.9861613 71.9115565,79.0924442 C73.3883067,78.5525847 74.1976423,77.9938226 74.5387216,77.6127452 C74.8724667,77.2188141 74.9182867,77.0623002 74.9374918,76.5753681 C74.9994925,75.6400653 74.1119755,73.5675794 72.9527142,70.991527 Z M120.099841,49.1167821 C117.047442,52.7664291 115.801379,57.4480848 115.801379,62.3432648 C115.768867,69.6562442 118.723728,77.3118152 121.857787,81.2080282 C128.116074,89.1962857 134.715365,106.198836 134.781903,120.283574 C134.775098,124.845917 134.071919,129.1285 132.223997,132.70488 C131.842163,138.76658 130.270976,145.715948 126.931256,151.913747 C128.11305,155.032684 128.678617,158.355012 128.689202,161.795294 C128.689202,161.880733 128.684666,161.880733 128.684666,161.880733 C128.689202,165.281697 127.989048,167.840359 127.263943,169.627793 C126.904793,170.516974 126.537325,171.217884 126.281762,171.700279 C126.181199,171.890062 126.100296,172.043551 126.051149,172.146382 C126.057198,172.178138 126.078369,172.242407 126.138858,172.383043 C126.463227,173.108904 127.716094,175.120902 127.824973,178.797088 C129.015084,180.849915 129.315258,183.277771 129.334161,185.700334 C129.331136,187.923285 129.031718,190.160602 128.579567,192.117403 C128.11305,194.085547 127.570922,195.706637 126.801962,196.944383 C125.868172,198.462643 124.083006,199.152968 122.591209,199.106089 C119.829911,199.050893 117.112467,197.646049 114.300509,195.804931 C111.936167,194.215597 109.589971,192.242917 107.615778,190.20748 C103.372513,191.640301 99.0105386,192.357089 95.9830911,192.369943 C92.9405214,192.357089 88.5815717,191.640301 84.3360378,190.20748 C82.3610895,192.242917 80.0179177,194.215597 77.6475261,195.804931 C74.8385176,197.646049 72.119788,199.050893 69.3567507,199.106089 C67.8716834,199.152968 66.0853835,198.464911 65.1544661,196.944383 C64.3762064,195.706637 63.8348347,194.085547 63.3702077,192.117403 C62.9191906,190.159089 62.617958,187.919504 62.6120604,185.697309 C62.6327021,183.282307 62.9304565,180.862769 64.1154255,178.814478 C64.1538357,176.587747 64.6913513,174.95229 65.1845591,173.832497 C65.6521349,172.833682 65.8659616,172.316505 65.9023303,172.136552 C65.7235869,171.787987 65.1594564,170.799001 64.633736,169.481109 C58.866388,165.775434 51.098611,159.607123 47.0061885,152.645658 C39.6190351,148.153633 32.7827804,141.7721 22.8187429,134.413679 C21.1018535,133.138885 19.6985968,132.13402 18.6037557,131.409671 C18.641561,131.508721 18.6808029,131.608527 18.7186081,131.710601 C22.3130594,142.10025 30.0711583,156.804239 30.1157685,170.790684 C30.1157685,170.949466 30.1157685,171.086321 30.1157685,171.19142 C30.0285895,177.854224 28.0299751,185.208865 22.0233196,191.13371 C20.2594761,192.901485 18.0653328,193.774031 15.9863443,193.758153 C11.2083607,193.682542 7.28933599,189.753817 7.21224344,184.983545 C7.19924598,182.886108 8.08829027,180.667694 9.89787821,178.896138 C11.9556201,176.804749 12.8522859,174.541725 12.8942498,170.991808 C12.8942498,171.000881 12.8942498,170.959295 12.8942498,170.882929 C12.9216964,164.215588 9.83323117,156.007304 6.60499977,148.058364 C3.40690675,140.066326 0.0487333609,132.414535 0,125.822805 C0,125.715438 0,125.585388 0.00738384921,125.432655 C0.0856524179,121.923568 1.26352079,118.522604 3.55310736,115.940503 C5.84593763,113.331182 9.31106452,111.652627 13.442124,111.669261 C16.0229398,111.669261 18.856295,112.297585 21.8904719,113.625307 C26.6630871,115.734842 33.0099146,120.387161 38.8130264,124.911698 C38.5882361,122.46872 38.4659738,120.161841 38.4659738,117.846646 C38.4659738,114.531122 38.7179082,111.210305 39.2660849,107.482704 C39.4256233,106.396936 39.5077363,105.324778 39.5085681,104.269254 C39.4840702,98.3277751 37.0096385,92.7008359 30.6001299,86.775235 C26.5555689,83.0604873 23.2452622,80.7188278 20.7013443,78.2168738 C18.1503947,75.7701155 16.380351,72.7305703 16.4260954,68.715573 C16.4260954,67.8855957 16.4910449,67.0113862 16.6228342,66.0797883 C16.6487686,65.6119857 16.747138,64.4382071 17.3800741,63.0925656 C18.0691889,61.4524966 20.1351723,59.5273757 23.1129437,59.6038936 C24.0344098,59.6038936 25.0191619,59.7527708 26.0901101,60.0614132 C27.3595361,59.6097912 28.7777637,59.4647701 30.3396514,59.4435236 C31.7785963,59.4464724 33.2840029,59.6097912 34.719999,60.0129468 C33.4216141,58.9021518 32.454328,57.4238894 31.7206786,55.8588261 C30.6523768,53.5405302 30.0823486,50.9160114 30.0744095,48.3999183 C30.0891536,46.0928883 30.5336682,43.8080879 31.9555251,41.9842852 C33.4423314,40.0736059 35.6929559,39.3257417 37.6354672,39.3718641 C39.2372017,39.376552 40.7573523,39.7236045 42.284308,40.0765547 C42.5117446,40.1356066 42.7943769,40.1651703 43.1615419,40.1651703 C44.4035212,40.1870218 46.5084441,39.7295022 49.3462602,39.7197484 C50.4528967,39.7159679 51.6697733,39.7968712 53.0098195,40.0003392 C50.4603065,36.0216351 47.873593,31.0706545 46.5427713,26.6518211 C45.0178571,24.7072683 44.3257935,22.8766606 43.9619554,21.5242142 C43.7699802,20.8195236 43.6550521,20.2417832 43.5620511,19.9233871 C43.5375533,19.8312178 43.514492,19.7668732 43.4961943,19.7207507 C40.561521,16.7152303 39.3452492,12.8271832 39.3346637,9.47937367 C39.363547,7.14135852 39.8736159,4.96460562 41.4042008,3.36467068 C43.2004813,1.69208155 45.3382948,1.51309619 47.0061885,1.46909083 C47.5291869,1.47883703 47.9831528,1.5015807 48.4073281,1.55238344 C49.1167821,1.02162744 49.9209762,0.735726453 50.7148873,0.501215711 C52.0091136,0.140588795 53.420385,0 54.8336223,0 C56.6405638,0.0159491439 58.3755242,0.202612908 59.8894747,0.744882138 C61.1403005,0.341133753 62.8261896,0.0590707634 64.8213259,0.035442458 C67.0650697,0.0508008565 69.7820602,0.455140138 71.8244531,2.32739186 C72.059224,2.30700725 72.3206097,2.30228159 72.6070982,2.29490199 C73.9170515,2.30523796 75.6846755,2.52763891 77.311059,3.71319008 C78.9616379,4.9025747 80.09126,7.13161232 80.0587474,9.92683707 C80.0526986,11.7656863 79.8954286,13.7912181 79.0001993,15.7905129 C78.2025077,17.6007058 76.7538091,19.283646 74.6096443,20.5533744 C74.2418745,21.3381366 73.8298725,21.9521701 73.5389986,22.4956589 C73.1387918,23.2192521 72.9615606,23.7175258 72.9645094,24.1862358 C72.970407,24.5583911 73.0501762,25.0164399 73.4887931,25.7711091 C75.8147257,29.7226691 79.9884296,33.0500638 84.7299689,37.1020346 C86.9226756,38.9893502 89.2310665,41.0421018 91.4729201,43.4202813 C91.4449442,43.1880812 91.4267977,42.950664 91.4267977,42.7049296 C91.4124317,41.3409904 91.9265836,39.8579645 92.9556436,38.6447172 C93.8637266,37.5604615 95.1075206,36.6280319 96.7626361,35.7419515 C97.8438674,33.9054462 99.5360321,32.7296261 101.201733,31.9516689 C103.108632,31.078896 105.026872,30.6857966 106.630573,30.6736989 C106.862697,30.6857966 107.086504,30.6926016 107.308043,30.7085554 C108.138247,29.9916915 109.148405,29.6097825 110.219051,29.1901438 C111.917264,28.6215523 113.902042,28.2806998 115.897405,28.2768436 C117.487495,28.2845559 119.085903,28.4886289 120.558041,29.1018307 C122.00674,29.699003 123.437292,30.8529716 124.044445,32.6147737 C124.818697,34.8505784 125.208091,37.0181825 125.208091,39.0499143 C125.239092,43.2613478 123.437292,47.0409694 120.099841,49.1167821 Z" id="path14" fill="#FFFFFF"></path>
                            <path d="M90.049173,33.2798443 L89.4397517,33.2798443 L89.4397517,34.1372683 L89.9728063,34.1372683 C90.2722242,34.1372683 90.6563259,34.099463 90.6563259,33.7397078 C90.6563259,33.3404084 90.4128599,33.2798443 90.049173,33.2798443 Z M91.4094073,33.6786145 C91.4094073,34.4527156 90.8952553,34.711455 90.0053188,34.711455 L88.6874265,34.711455 L88.6874265,31.2082657 L89.4397517,31.2082657 L89.4397517,32.695677 L89.792097,32.695677 L90.6374233,31.2082657 L91.4094073,31.2082657 L90.477885,32.7384726 C91.0222811,32.7771852 91.4094073,33.0359246 91.4094073,33.6786145 Z" id="path16" fill="#193051"></path>
                            <path d="M89.9576842,30.4908726 C88.6874265,30.4908726 87.7060012,31.4947542 87.7060012,32.9555506 C87.7060012,34.4072736 88.6874265,35.4069967 89.9576842,35.4069967 C91.2113076,35.4069967 92.1950012,34.4072736 92.1950012,32.9555506 C92.1950012,31.4947542 91.2113076,30.4908726 89.9576842,30.4908726 Z M89.9576842,36.1069994 C88.2163726,36.1069994 86.8001865,34.6940646 86.8001865,32.9555506 C86.8001865,31.2082657 88.2163726,29.7967675 89.9576842,29.7967675 C91.6974836,29.7967675 93.1136697,31.2082657 93.1136697,32.9555506 C93.1136697,34.6940646 91.6974836,36.1069994 89.9576842,36.1069994 Z" id="path18" fill="#193051"></path>
                            <path d="M74.9285698,70.0652974 C72.9305603,65.4947137 70.2118307,61.2430553 68.3732083,58.2777597 C67.6877228,59.5991301 66.1070081,61.481153 64.5224372,62.2502638 C64.4344265,62.6147068 64.3433914,62.9797546 64.2506928,63.362571 C63.2716115,67.3084602 65.0708408,72.1286345 63.2716115,77.6233307 C62.2073926,80.8874393 63.4168594,83.1262685 64.6124894,85.3129264 C66.2921784,84.1908655 69.4055195,82.2484297 72.6543548,81.0537826 C79.2292994,78.633488 77.1734478,75.1956263 74.9285698,70.0652974 Z M118.688191,47.3777389 C109.715484,57.6976753 114.286143,75.0857641 120.166378,82.4881153 C128.009463,92.3545395 137.144733,119.35432 130.090266,132.037995 C129.768165,138.219159 128.111538,145.495165 124.537426,151.695233 C125.871196,154.811145 126.518423,158.176571 126.525228,161.731025 C126.546399,168.015776 124.031591,170.79144 123.91137,171.653401 C123.638416,173.641959 125.609584,173.998841 125.671584,179.365679 C128.569738,183.375308 126.689303,193.050438 124.978991,195.71193 C122.55416,199.484898 113.373524,193.368758 108.223687,187.626891 C103.854152,189.292592 98.9644161,190.143211 95.9770422,190.143211 C92.9836195,190.143211 88.0984201,189.292592 83.7319093,187.626891 C78.5722435,193.368758 69.3936487,199.484898 66.9676077,195.71193 C65.2622867,193.050438 63.3823054,183.375308 66.2744099,179.365679 C66.1947164,174.640018 68.3067466,173.641959 68.0391608,171.653401 C67.9712625,171.157395 67.1147459,170.029285 66.4029479,167.979483 C60.647622,164.400078 52.365315,157.833299 48.5977911,151.019274 C41.327078,146.705691 34.3821709,140.212254 24.102913,132.607342 C15.301993,126.07232 14.5316724,126.419373 16.6877837,132.382023 C20.4295999,143.068066 28.1226737,157.828007 27.9582207,171.137736 C27.8637075,177.373341 26.0286387,184.07017 20.5019592,189.530009 C14.3618511,195.614392 5.27679413,186.44661 11.417802,180.361471 C13.9005509,177.887493 15.0364486,174.878948 15.0512683,170.932076 C15.1253667,156.203891 1.95022362,137.138684 2.16582718,125.47046 C2.31557393,117.381641 9.20407556,110.35515 21.0274527,115.536742 C26.4711118,117.916207 34.8833178,124.435351 41.5477097,129.746238 C40.4564222,121.487295 40.2395711,115.626719 41.4047301,107.732219 C42.5658061,99.8309133 39.9746317,92.3825154 32.0630433,85.1148267 C22.8813485,76.70315 17.5002949,75.1569137 18.7738795,66.2333534 C18.7738795,66.2333534 18.8060896,59.7270632 26.1928649,62.2933618 C28.6316085,60.9639767 36.2978405,61.20525 37.6283598,64.5138176 C37.6283598,64.5138176 38.9541913,64.0020096 40.6282851,64.340745 C39.6069374,62.7597279 38.7489086,60.8248532 37.577852,59.239375 C32.7945756,57.1645451 30.5809248,47.1372972 33.6467068,43.265204 C35.6152282,40.8214701 38.4518346,41.3303293 41.7881513,42.1159988 C45.0033399,42.8750534 49.4165025,40.1666069 58.2751133,43.6068882 C55.1629063,39.8550157 50.2234186,31.7655913 48.4902729,25.5714216 C45.4874744,21.9111135 46.0940981,19.1997939 45.1348267,18.2433957 C40.8385581,13.9729103 40.6746344,7.10355324 42.9409102,4.81338446 C44.5925477,3.19602129 48.2460507,3.48576858 49.1093723,3.84343686 C50.3465882,1.69060714 57.2883197,1.66195829 59.8431255,2.9948896 C61.3266806,2.26684291 68.3481056,0.895214112 71.0166297,4.57208087 C71.9484545,4.28705924 77.88948,3.5469073 77.9015777,9.87338039 C77.88948,13.2643636 77.2573755,16.7114498 72.8921501,18.9602596 C72.1493518,21.2374233 69.4645714,23.1527904 71.6368633,26.8078057 C76.895957,35.6949974 89.1320167,40.446366 96.8397589,54.2021227 C98.4404348,47.4674886 87.7203672,42.579416 98.3587754,37.2798707 C100.147722,33.2677466 106.859673,32.1586907 108.082296,33.0684371 C109.18243,30.4468672 120.364478,28.533844 121.999178,33.2589002 C124.222886,39.6630405 122.808212,45.0003911 118.688191,47.3777389 Z" id="path20" fill="#193051"></path>
                            <path d="M102.036474,162.626254 C100.154527,165.590945 97.7281832,163.17443 96.2575575,163.17443 C94.7869317,163.17443 92.3605883,165.590945 90.477885,162.626254 C92.9745462,163.756632 96.0700432,160.62333 93.9718497,159.734905 L96.2575575,157.014437 L98.5508263,159.734905 C96.4420473,160.62333 99.5435932,163.756632 102.036474,162.626254" id="path22" fill="#D01C2E"></path>
                            <path d="M84.7655058,165.0715 C83.1156831,164.833327 82.5402866,165.48509 82.5402866,165.48509 C84.2574028,165.541798 85.2509258,166.561784 85.8467371,167.513721 C84.3798919,167.494063 83.5058336,168.373414 82.8192896,169.853869 C82.5372621,170.256873 82.021598,170.221336 81.7335217,169.927211 C82.2060878,168.264535 83.1156831,167.153059 84.2309391,167.113742 C84.2309391,167.113742 82.8351678,166.019656 80.3513604,167.23245 C80.3513604,167.23245 77.410865,164.773594 79.6776701,158.783724 C80.0723573,159.45061 80.5388746,160.129593 81.0870513,160.835795 C82.157697,162.96877 83.6857868,164.329004 84.7655058,165.0715" id="path24" fill="#D01C2E"></path>
                            <path d="M95.8099429,136.495994 C99.8059619,136.495994 101.253904,139.857641 101.334808,142.085128 C100.6528,139.769932 98.570485,137.410882 95.5135494,137.715593 C93.6588219,137.898571 92.4195646,138.982826 91.6770687,140.315841 C92.1889523,138.342405 93.3820872,136.495994 95.8099429,136.495994" id="path26" fill="#D01C2E"></path>
                            <path d="M112.651443,184.867861 C114.298997,187.30479 122.048325,196.19735 124.165422,194.114279 C121.751176,197.89632 112.788298,188.801123 110.223587,186.285559 C111.484772,186.27195 112.651443,184.867861 112.651443,184.867861" id="path28" fill="#D01C2E"></path>
                            <path d="M91.3179185,171.360788 C91.607507,172.273407 91.6203608,173.419664 91.3988218,173.958011 C91.8970955,173.444615 92.258514,172.943317 92.5140778,172.459409 C92.6721039,172.181919 92.772666,171.902159 93.1401334,171.949038 C94.2463161,172.110845 95.6224286,171.646596 96.197069,170.429265 C96.7981731,171.702547 98.2824087,172.156967 99.4105185,171.92333 C99.635082,171.87872 99.864182,172.43597 99.9080361,172.507044 C100.154527,172.978098 100.50914,173.462762 100.993804,173.958011 C100.552238,172.903243 101.102683,169.80699 102.527943,170.09431 C102.812995,170.142701 103.152486,170.400533 103.259097,170.484461 C105.401901,172.110088 106.576133,174.99312 109.592995,173.414371 C110.217538,173.093782 111.365307,172.402701 112.163755,173.128563 C112.264317,173.234418 112.29078,173.357663 112.313464,173.436298 C112.840469,175.635054 108.229736,179.273435 104.338816,181.218139 C104.338816,181.218139 107.203701,176.314037 102.055377,171.304836 C105.608318,177.408122 99.2661023,180.403813 99.2661023,180.403813 C95.6451118,179.845051 97.4302775,174.095622 95.5521108,172.36414 C91.6369951,175.240366 93.1862558,179.379289 93.1862558,179.379289 C90.5308124,177.463317 89.241652,174.573481 90.3622008,171.521082 C90.5633249,170.97593 91.1447702,170.762708 91.3179185,171.360788" id="path30" fill="#D01C2E"></path>
                            <path d="M111.282135,149.466233 C117.885207,154.010429 115.994943,160.850161 115.994943,160.850161 C117.479178,159.847565 117.907134,157.307806 117.820182,156.938826 C120.596602,164.346394 114.503146,164.347907 113.479379,169.305692 C113.020422,171.530911 110.876106,172.773193 110.062537,171.032638 C109.204357,169.203618 107.88722,168.038459 106.350057,167.824481 C106.810526,167.386696 107.081212,166.706201 107.081212,166.706201 C105.423828,167.484989 103.130559,167.337549 103.130559,167.337549 C103.141144,167.336793 103.146437,167.333012 103.152486,167.327719 C104.186083,166.932276 107.659633,164.429566 109.678435,160.833527 C112.156194,157.672249 113.77804,153.813085 111.282135,149.466233" id="path32" fill="#D01C2E"></path>
                            <path d="M123.334461,149.268889 C120.937606,145.119381 117.112467,141.520317 111.621627,138.695506 L111.626163,138.695506 C123.903053,132.217192 116.151456,109.802436 109.924925,98.5924121 C107.605193,94.4232449 106.21547,84.6846025 98.5084844,79.226275 C90.5126658,72.7863709 97.1172497,68.6316453 90.8514012,59.7967762 C90.8514012,59.7967762 90.292639,62.2487516 88.3055931,62.9321956 C88.998186,61.1999573 87.1797516,46.4588435 71.4095023,34.4973258 C85.552612,42.5173398 97.7372565,59.103276 99.3296152,68.7459685 C100.755631,77.3836452 108.120857,78.5140233 111.421259,87.211508 C115.621426,96.4715354 115.522376,101.117805 120.660115,109.855364 C129.083133,124.192641 127.158844,138.699287 123.334461,149.268889" id="path34" fill="#D01C2E"></path>
                            <path d="M79.9657464,184.800568 C79.9657464,184.800568 80.9789281,186.151729 82.2960644,186.414854 C79.6073523,188.986369 70.1837792,197.863051 68.2743097,194.02279 C69.9356253,196.158033 78.3000454,187.226155 79.9657464,184.800568" id="path36" fill="#D01C2E"></path>
                            <path d="M58.0943284,62.3400135 C57.3033662,71.9275103 60.8650024,76.6426615 56.3918807,83.5617855 C53.6509972,87.161605 51.5891724,88.1316887 51.4243414,92.2411236 C51.0592935,94.8708595 51.9872621,97.6881096 56.3529412,100.427481 C59.0397631,102.10906 59.1726865,105.953858 59.6333817,109.014574 C59.6482014,109.112112 59.662643,109.208893 59.6801091,109.306431 C59.6850993,109.341212 59.6880482,109.378261 59.6957604,109.413042 C59.7069508,109.481847 59.7193509,109.555946 59.7314486,109.624751 C59.7382536,109.657264 59.7435463,109.687508 59.7486122,109.720021 C60.1680241,112.046558 61.1432493,115.083079 63.1554736,116.09248 C64.1154255,116.553705 65.0945069,116.518168 65.5720633,116.313263 C61.1875571,118.545287 53.2011899,112.356562 54.4868722,102.243647 C43.3033117,95.5778184 44.044371,89.9644891 46.3365812,82.8087041 C48.2785633,77.7208684 49.5352867,73.788211 48.9900588,70.7516903 C48.0836392,72.4863481 47.2073126,72.1333979 46.4763096,70.23837 C45.936072,67.7878312 45.168171,64.8656337 44.1553673,62.3583113 C45.8728616,63.0034207 48.3857791,62.8125797 50.3716909,62.2526077 C53.155748,63.3117607 55.1091472,63.1256831 56.5942146,62.4687784 L56.6027586,62.4687784 C57.1217496,62.4687784 57.6231989,62.4277218 58.0943284,62.3400135" id="path38" fill="#D01C2E"></path>
                            <path d="M24.4880732,176.747285 C24.4529143,166.007559 21.4724966,158.991653 13.9599053,139.927959 C9.76707192,129.30316 6.99486303,120.928533 15.4913219,125.572534 C13.5851036,125.167262 12.730326,125.905977 12.6237151,127.51119 C12.3218777,131.782431 29.8351776,164.785692 24.4880732,176.747285" id="path40" fill="#D01C2E"></path>
                            <path d="M81.1490519,172.584923 C81.5815444,172.783779 82.1130868,173.050684 82.822314,173.414371 C86.0705444,175.084609 87.0837261,171.749426 89.6181927,170.178238 L89.6257537,170.178238 C90.1618327,169.931748 90.6086913,170.200165 90.0816855,170.685585 C86.060715,173.702447 85.9541041,177.508684 85.9541041,177.508684 C85.9541041,177.508684 80.2863353,175.801397 81.1490519,172.584923" id="path42" fill="#D01C2E"></path>
                            <path d="M70.583986,15.7211024 C70.1852158,15.2121676 69.8751368,14.614088 69.6284951,13.9909056 C68.1708744,16.5941778 64.8301723,18.4625907 62.5411377,16.6183731 C61.4383574,15.7322928 60.7011543,14.8114316 60.1960756,13.9123462 C58.3766583,16.9556719 55.1378036,18.6947152 52.519485,15.7420466 C52.2977191,15.4933634 52.092134,15.2316752 51.896605,14.9656015 C51.0498422,16.7802554 49.4968765,17.6913628 47.6568175,15.9591245 C46.1387083,14.5302358 45.5320091,11.2940275 45.4529204,9.83088724 C45.3805611,8.52123644 45.5149211,6.76714666 46.6127111,6.41478624 C45.4369666,10.6052908 46.5359663,11.7166906 47.1369948,11.7361982 C47.8568075,11.7619058 48.439765,10.994534 47.8074338,9.39461421 C47.3407653,8.20525983 47.1889393,7.13308673 47.0675843,6.30905241 C47.5732678,6.2340316 48.2014405,6.23639821 48.9846905,6.29546519 C48.8969822,9.40141916 50.6401841,11.4943199 50.6401841,11.4943199 C50.056546,9.53078886 49.7068471,6.10643875 52.5484438,5.11050379 C53.1149182,4.94570297 53.7352274,4.85562053 54.3689953,4.80954345 C52.806049,9.86332418 54.1359635,11.3149717 54.906284,11.3755357 C55.8750068,11.4565147 56.7147378,10.4555062 55.973981,8.25811163 C55.543908,6.96296293 55.3791526,5.78036814 55.268988,4.78473562 C55.9160633,4.79211521 56.5706241,4.83376151 57.1896479,4.89725928 C57.9936151,4.98734172 58.651654,5.20590921 59.1844817,5.51425671 C59.0707634,6.85575469 59.8200642,8.20760376 59.8200642,8.20760376 C60.0338909,6.90566523 60.2589836,6.12888753 60.8336996,5.695896 C61.2262697,5.48324125 61.7023895,5.33586111 62.2930594,5.25581976 C62.3063668,5.25581976 62.3152133,5.25581976 62.3353257,5.2510941 L62.3299573,5.24961969 C62.8897024,5.17636816 63.5350387,5.1627885 64.2985543,5.20590921 C63.9558872,6.31643957 63.5173458,7.87559772 63.4611672,8.93505312 C63.3607563,10.7376093 63.8327176,11.3211717 64.4491706,11.3415866 C65.0694042,11.3666893 65.5995855,10.8161687 65.701433,9.01270519 C65.7560994,7.96716213 65.428252,6.40209123 65.1432757,5.27324799 C65.6683912,5.32227389 66.2458291,5.39847423 66.8730945,5.49387966 C68.6523626,5.76826288 69.6137511,6.61888188 70.1099077,7.64785866 C70.7079873,7.15494575 71.6073752,6.91748317 72.8862525,7.02942463 C72.7976369,7.7946944 72.6824063,8.79887848 72.2645067,9.9034734 C71.7092226,11.3666893 72.2866606,12.0953484 72.9733558,12.0976923 C73.5522304,12.0976923 74.5845416,11.0860984 73.2864592,7.06958896 C73.4961274,7.09617364 73.7132053,7.13308673 73.9376931,7.18153042 C77.2188141,7.84164857 76.2343644,11.6100797 75.9228488,12.9317526 C75.6536752,14.0355158 72.8833036,18.6840541 70.583986,15.7211024" id="path44" fill="#FFFFFF"></path>
                            <path d="M82.4782859,140.8247 C82.4782859,140.8247 82.371675,142.907771 83.3772957,144.41091 C83.3977105,143.886172 83.4544184,143.380337 83.4982726,142.908527 C83.5738832,142.06925 83.7334215,141.111264 83.9632776,140.098838 C84.0479615,139.336684 84.2437929,138.565456 84.6029431,137.804057 C86.2883029,132.693538 89.9032446,127.149771 96.1161657,127.149771 C106.23891,127.149771 108.666765,138.66753 108.848231,144.484252 C109.478823,142.518377 109.707923,140.802773 109.707923,140.802773 C116.458435,142.902479 121.9523,149.386086 122.61238,153.611961 C122.61238,153.611961 121.086559,150.232924 117.569155,148.363831 C117.780108,148.645858 122.05513,153.650522 121.695224,160.109178 C121.695224,160.109178 118.144551,152.114871 111.282135,149.466233 C113.77804,153.813085 112.156194,157.672249 109.678435,160.833527 C112.879031,155.134002 110.139659,150.783369 108.05432,148.452295 C105.962931,146.126514 107.04265,140.034569 104.920261,136.42114 C104.285132,132.496951 102.26255,132.014556 100.645239,132.239119 C99.3326396,132.416048 97.7107928,132.416048 96.2235327,132.416048 C94.7377849,132.416048 93.1182063,132.416048 91.8048506,132.239119 C90.1898087,132.014556 88.1604208,132.496951 87.5358774,136.42114 C85.1435587,141.0848 84.802555,145.650923 84.7715547,148.38727 C84.5454791,148.147584 84.3534282,147.907143 84.1923777,147.665189 C80.5388746,150.815882 78.9412231,156.40804 81.0870513,160.835795 C80.5388746,160.129593 80.0723573,159.45061 79.6776701,158.783724 C77.8864555,155.742667 77.6490383,152.990442 78.7272452,149.450355 C69.9887795,151.965919 67.4021417,163.473092 67.3953367,163.89878 C67.4336713,157.276049 70.5145755,143.728146 82.4782859,140.8247" id="path46" fill="#FFFFFF"></path>
                            <path d="M98.5084844,79.226275 C106.21547,84.6846025 107.605193,94.4232449 109.924925,98.5924121 C116.151456,109.802436 123.903053,132.217192 111.626163,138.695506 L111.621627,138.695506 C110.873082,138.30838 110.098074,137.9394 109.287528,137.584031 C107.724658,130.337513 103.517685,124.500376 95.9740178,124.500376 C92.565493,124.500376 89.8616587,125.801634 87.683318,127.862779 C78.9752478,123.220289 73.9716423,114.747368 79.6073523,102.296574 C79.6073523,102.296574 70.9560656,102.475015 67.9470671,113.124765 C67.4927988,114.734514 66.6347699,115.769623 65.5720633,116.313263 C65.0945069,116.518168 64.1154255,116.553705 63.1554736,116.09248 C61.1432493,115.083079 60.1680241,112.046558 59.7486122,109.720021 C59.7435463,109.687508 59.7382536,109.657264 59.7314486,109.624751 C59.7193509,109.555946 59.7069508,109.481847 59.6957604,109.413042 C59.6880482,109.378261 59.6850993,109.341212 59.6801091,109.306431 C59.662643,109.208893 59.6482014,109.112112 59.6333817,109.014574 C59.1726865,105.953858 59.0397631,102.10906 56.3529412,100.427481 C51.9872621,97.6881096 51.0592935,94.8708595 51.4243414,92.2411236 C51.5891724,88.1316887 53.6509972,87.161605 56.3918807,83.5617855 C60.8650024,76.6426615 57.3033662,71.9275103 58.0943284,62.3400135 C57.6231989,62.4277218 57.1217496,62.4687784 56.6027586,62.4687784 L56.5942146,62.4687784 C54.3190923,62.5600403 52.2256622,61.4035009 51.4787054,59.9999418 C50.1011563,61.4170352 47.730689,61.4887897 45.6209271,60.7642891 C43.1712956,59.6854018 41.1333637,56.0886066 41.5151972,52.3739346 C41.782783,50.4550138 43.5924465,49.9658889 45.6327224,50.2092794 C43.4441742,54.0110548 44.5361422,57.3385251 45.8894203,57.5351882 C46.7146341,57.6569212 47.4500982,56.741882 46.8567064,54.5937855 C46.3886013,52.8919427 46.3268275,51.4060436 46.2553755,50.3014487 C48.0153629,50.6274815 49.8403754,51.4229048 50.9187334,52.2634675 C50.6880456,53.8060745 50.6481232,55.8399234 51.5941627,57.2667706 C51.5941627,56.9211547 51.2010633,54.1690809 53.1049376,52.5721099 C54.1826908,52.029226 55.7624982,51.7805428 57.3013247,51.8333946 C57.1609915,52.8895987 56.9959336,54.2936871 56.4022393,55.836899 C55.6393286,57.8376305 56.372978,58.8589782 57.2720634,58.8826443 C58.0249179,58.9021518 59.4151696,57.5154538 57.7815275,51.8567582 C60.0149883,52.0209844 62.0361346,52.8284298 62.1365455,54.2845383 C62.4525977,53.254949 63.6517058,52.4713966 64.7194028,52.3656174 C64.4772221,54.943182 62.6141019,57.3946281 63.7633827,57.8149473 C64.128733,57.9472658 64.7370957,57.5246027 65.0835433,55.8732677 C65.3647391,54.5332215 65.4991747,53.526391 65.0994972,52.3588125 C65.7870998,52.4004739 66.3527425,52.7791317 66.4930001,53.6215091 C66.6017281,57.0951346 64.1154255,61.6235277 61.1568592,60.4113389 C59.2963854,66.9434123 61.9853243,69.5791214 60.0079565,76.7681751 C59.2571435,79.4795704 54.8150221,89.098748 59.5725908,98.6037537 C60.7093958,95.2557173 68.9078507,84.266476 70.6459867,93.8440678 C71.2189636,97.2896418 77.0743979,85.2078277 87.7097817,89.0896748 C97.097591,92.5140778 98.1803344,102.996728 98.4903378,105.56522 C98.6529006,106.765915 99.1844429,106.523962 99.7190097,105.958395 C100.216527,105.376949 100.804778,104.622356 101.287173,103.792151 C109.310968,113.998067 112.451831,123.473585 112.451831,123.473585 C113.41511,109.055404 95.9074805,72.8061809 91.7950212,82.5334816 C86.9098218,73.7232615 94.8194443,69.8497317 90.8514012,59.7967762 C97.1172497,68.6316453 90.5126658,72.7863709 98.5084844,79.226275" id="path48" fill="#FFFFFF"></path>
                            <path d="M71.8096334,185.986898 C71.8096334,185.986898 75.5399569,185.77292 78.5571214,184.076975 C77.4615241,185.622455 74.3689003,188.944027 70.6031155,188.564462 C70.6031155,188.564462 72.6070982,188.336874 74.5357728,186.288584 C74.5357728,186.288584 73.007305,186.685539 71.8096334,185.986898" id="path50" fill="#FFFFFF"></path>
                            <path d="M122.858871,188.933442 C119.159245,189.528497 115.151128,185.495429 113.897505,184.089828 C113.897505,184.089828 116.576388,184.76125 118.580824,183.740507 C118.311651,184.339343 117.964598,184.728738 117.604692,184.988838 C119.311222,185.201304 120.813605,185.211889 120.813605,185.211889 C119.462444,185.90297 118.130185,185.822823 118.130185,185.822823 C119.450346,187.995115 122.842236,188.93193 122.858871,188.933442" id="path52" fill="#FFFFFF"></path>
                            <path d="M85.5155628,171.270055 C85.5155628,171.678352 85.1790957,172.005746 84.7745791,172.005746 C84.4615513,172.012551 83.9239601,171.742621 83.443833,171.366837 C84.0154489,169.644428 85.3756832,168.320486 86.7933815,168.588148 C85.8580787,168.55866 84.9439468,169.504548 84.65209,170.550998 C84.6944319,170.528315 84.7314811,170.525291 84.7745791,170.525291 C85.1790957,170.525291 85.5155628,170.862514 85.5155628,171.270055" id="path54" fill="#FFFFFF"></path>
                            <path d="M85.6826621,151.599207 C85.4475133,151.06464 85.8210295,150.993566 86.1060814,151.019274 C90.1656133,151.384473 93.6792368,153.953721 95.2980592,155.32076 L93.094767,158.112302 C91.7904846,159.65249 90.7009362,161.253166 88.5581324,161.253166 C87.5918292,161.253166 86.775235,160.785892 86.153716,160.040372 C87.0118961,159.983664 87.8920032,159.745491 88.5664496,159.253266 C87.0118961,158.905457 86.0455929,158.231011 85.4724647,157.646541 C86.5877208,157.748615 87.8920032,157.545223 88.8189889,156.873801 C86.4206214,156.333185 85.4270984,155.017561 85.1065095,154.477702 C86.1416184,154.930609 87.9290524,154.948 89.0450645,154.095868 C86.8047231,153.564326 85.9291526,152.167043 85.6826621,151.599207" id="path56" fill="#FFFFFF"></path>
                            <path d="M91.6369951,150.90359 C92.0475605,150.133118 92.4399794,149.719528 92.4951752,150.157314 C92.5080289,150.283583 92.5435659,150.466561 92.5995177,150.685075 C94.8194443,150.863516 97.4922782,150.874102 99.6864971,150.707002 C99.7454734,150.480171 99.7825226,150.290388 99.7991569,150.157314 C99.8520843,149.708943 100.256601,150.146728 100.677752,150.9482 C100.460749,151.02986 100.242235,151.114543 100.038086,151.203764 C97.7183538,152.162506 96.2121911,153.198371 96.2121911,153.198371 C96.2121911,153.198371 94.6402472,152.117896 92.2426358,151.139495 C92.0415117,151.061616 91.843412,150.979957 91.6369951,150.90359" id="path58" fill="#FFFFFF"></path>
                            <path d="M102.366892,150.376584 C102.481064,148.245122 102.568016,146.044098 102.521894,145.157942 C102.461405,143.770488 103.85264,146.664105 104.752406,149.826139 C103.920689,149.958458 103.121486,150.153533 102.366892,150.376584" id="path60" fill="#FFFFFF"></path>
                            <path d="M92.4566138,135.519106 C92.5866639,136.146674 91.7315083,135.035198 90.9013042,136.851364 C89.4495811,140.027008 89.6045828,138.491358 89.9160984,135.076784 C90.0363192,133.703696 92.1193906,133.910869 92.4566138,135.519106" id="path62" fill="#FFFFFF"></path>
                            <path d="M105.727026,168.588148 C107.144724,168.320486 108.50269,169.644428 109.077331,171.366837 C108.573764,171.760012 108.10271,172.019356 107.695169,172.021624 C107.289141,172.021624 106.959479,171.69045 106.959479,171.281397 C106.959479,170.873856 107.289141,170.540413 107.695169,170.540413 C107.758682,170.540413 107.817659,170.560072 107.878147,170.578218 C107.593095,169.518914 106.66611,168.556391 105.727026,168.588148" id="path64" fill="#FFFFFF"></path>
                            <path d="M103.892714,161.253166 C101.7673,161.253166 100.679264,159.676685 99.385567,158.147083 L97.1512745,155.317735 C99.7931081,153.09176 106.880087,150.525537 107.336019,151.128909 L107.340556,151.134958 C107.715584,151.844185 104.51272,153.776036 103.234145,154.095868 C104.35167,154.948 106.137592,154.930609 107.169676,154.477702 C106.855136,155.017561 105.860857,156.333185 103.460977,156.873801 C104.387207,157.545223 105.689977,157.748615 106.805989,157.646541 C106.230593,158.231011 105.267314,158.905457 103.71276,159.253266 C104.431817,159.781028 105.385266,160.019957 106.295618,160.048689 C105.67183,160.790429 104.858261,161.253166 103.892714,161.253166" id="path66" fill="#FFFFFF"></path>
                            <path d="M89.8911469,145.157942 C89.8503172,146.040318 89.9387815,148.245122 90.0461486,150.369023 C89.2930672,150.146728 88.4946195,149.958458 87.661391,149.821603 C88.5588885,146.663349 89.9591964,143.770488 89.8911469,145.157942" id="path68" fill="#FFFFFF"></path>
                            <path d="M36.4746936,52.6618597 C36.679069,53.1300404 36.9437061,53.2995593 37.1632036,53.2661394 C38.2433007,53.1149182 37.1889112,50.8185494 37.1049834,48.4829387 C38.0185104,48.1789842 38.5634358,48.3325492 38.9131348,48.724212 C38.8399437,50.7709904 39.4273623,54.3170508 40.9135638,57.1358887 C38.6618052,57.2251092 36.9806796,55.2373828 36.4746936,52.6618597" id="path70" fill="#FFFFFF"></path>
                            <path d="M102.603553,135.076784 C102.916581,138.491358 103.064022,140.027008 101.612299,136.851364 C100.789655,135.035198 99.9322315,136.146674 100.063038,135.519106 C100.400261,133.910869 102.481064,133.703696 102.603553,135.076784" id="path72" fill="#FFFFFF"></path>
                        </g>
                    </g>
                </g>
            </g>
        </g>
    </g>
</svg>