<?xml version="1.0" encoding="UTF-8"?>
<svg width="200px" height="200px" viewBox="0 0 200 200" version="1.1" xmlns="http://www.w3.org/2000/svg" xmlns:xlink="http://www.w3.org/1999/xlink">
    <!-- Generator: Sketch 51.3 (57544) - http://www.bohemiancoding.com/sketch -->
    <title>concordia-irvine</title>
    <desc>Created with Sketch.</desc>
    <defs></defs>
    <g id="concordia-irvine" stroke="none" stroke-width="1" fill="none" fill-rule="evenodd">
        <g id="concordia-irvine_BGL" transform="translate(0.000000, 8.000000)">
            <g id="concordia-irvine" transform="translate(0.000000, 19.000000)">
                <path d="M199.693878,73.07125 C199.204082,65.10875 194.061224,58.7795833 185.55102,55.4720833 L186.918367,53.0833333 L180.55102,51.4295833 L182.591837,49.1429167 L179.591837,48.1220833 C155.571429,39.6491667 134.408163,37.4645833 110.979592,41.0783333 C110.081633,41.2008333 109.204082,41.3641667 108.326531,41.5070833 L108.326531,0 L58.0204082,34.97375 L58.0204082,40.4454167 L50.1632653,40.4454167 L8.46938776,69.4166667 L0,75.3579167 L8.44897959,81.2379167 L50.5918367,110.535833 L57.5918367,110.535833 L57.5918367,115.415417 L96.5306122,142.508333 L102.408163,146.591667 L108.265306,142.508333 L147.22449,115.415417 L147.22449,110.535833 L154.22449,110.535833 L179.591837,92.9366667 C179.386283,93.960714 179.113585,94.9701176 178.77551,95.9583333 L177.244898,100.592917 L181.693878,98.55125 C192.632653,93.7533333 199.714286,84.1166667 199.714286,74.2554167 C199.714286,73.8470833 199.714286,73.43875 199.714286,73.01" id="Shape" fill="#FFCD00" fill-rule="nonzero"></path>
                <polygon id="Shape" fill="#1A5632" fill-rule="nonzero" points="166.163265 109.739583 166.755102 108.147083 167.326531 108.147083 167.326531 110.31125 166.959184 110.31125 166.959184 108.555417 166.938776 108.555417 166.285714 110.31125 166.020408 110.31125 165.367347 108.535 165.367347 108.535 165.367347 110.290833 164.979592 110.290833 165 108.147083 165.571429 108.147083"></polygon>
                <polygon id="Shape" fill="#1A5632" fill-rule="nonzero" points="162.959184 108.453333 163.612245 108.453333 163.612245 110.290833 163.979592 110.290833 163.979592 108.453333 164.632653 108.453333 164.632653 108.147083 162.959184 108.126667"></polygon>
                <path d="M182.387755,56.6154167 L183.632653,54.57375 L176.673469,52.7566667 L178.816327,50.2454167 C157.255505,42.1937879 133.993516,39.7970367 111.244898,43.2833333 C109.408163,43.5691667 107.571429,43.855 105.693878,44.1816667 L105.693878,4.92041667 L60.5918367,36.32125 L60.5918367,43.0179167 L51.0204082,43.0179167 L9.26530612,72.03 L4.51020408,75.3579167 L9.24489796,78.6654167 L51.3877551,107.98375 L60.1632653,107.98375 L60.1632653,114.10875 L99.1020408,141.160833 L102.408163,143.467917 L105.693878,141.160833 L144.653061,114.067917 L144.653061,107.942917 L153.408163,107.942917 L181.979592,88.0366667 C182.114319,90.9367558 181.713045,93.8368241 180.795918,96.59125 C200.693878,87.8733333 204.795918,63.3120833 182.346939,56.5745833" id="Shape" fill="#1A5632" fill-rule="nonzero"></path>
                <path d="M97.2040816,85.2191667 C97.2040816,85.2191667 88.6326531,96.3666667 88.7755102,96.3258333 L103.571429,92.7120833 C103.698976,93.2770051 103.78762,93.850018 103.836735,94.4270833 C104.107333,97.5177324 103.942456,100.63109 103.346939,103.675833 C122.081633,95.36625 139.77551,82.1770833 162.142857,80.4008333 C154.969321,79.4059704 147.696248,79.3579206 140.510204,80.2579167 C143.693878,69.8045833 151.44898,69.1308333 158.346939,68.9879167 C151.979592,64.0266667 136.959184,63.2916667 129.510204,63.0466667 C135.040816,62.2708333 140.714286,61.005 146.408163,61.5766667 C138.30566,59.2602318 129.935725,58.0110819 121.510204,57.8608333 C130.223824,56.0047061 139.161995,55.4338005 148.040816,56.16625 L143.836735,52.9404167 C153.346939,51.4295833 163.55102,61.1070833 171.836735,52.5729167 C152.836735,43.5079167 100.040816,42.0991667 67.1020408,58.5754167 L92.9183673,56.3908333 C83.3877551,59.0654167 62.244898,67.375 48.7755102,77.9304167 C60,74.48 81.4285714,70.6620833 89.9795918,69.3145833 C80.4124532,73.8650628 71.1483612,79.0275644 62.244898,84.77 C62.244898,84.77 103.061224,74.41875 106.061224,74.9904167 C94.719421,80.1224661 83.801036,86.1437337 73.4081633,92.9979167 L97.2040816,85.2191667 Z" id="Shape" fill="#FFFFFF" fill-rule="nonzero"></path>
                <path d="M157.142857,59.6983333 C157.142857,59.0245833 157.510204,58.4733333 157.959184,58.4733333 C158.408163,58.4733333 158.755102,59.0041667 158.755102,59.6779167 C158.755102,60.3516667 158.408163,60.9029167 157.959184,60.9029167 C157.510204,60.9029167 157.142857,60.3720833 157.142857,59.6983333" id="Shape" fill="#FFFFFF" fill-rule="nonzero"></path>
                <path d="M152.653061,58.6366667 C149.521636,58.1801482 146.366967,57.9006766 143.204082,57.7995833 C146.943518,57.2120521 150.741794,57.09545 154.510204,57.4525 C153.934005,58.7075734 154.072241,60.1750242 154.872672,61.3003093 C155.673103,62.4255945 157.013661,63.0371036 158.387755,62.90375 C159.653061,62.72 161.183673,62.65875 162.061224,59.2491667 C162.27999,61.6590819 160.624521,63.8377719 158.244898,64.2716667 C156.020408,64.37375 151.857143,63.4754167 152.653061,58.6366667" id="Shape" fill="#FFFFFF" fill-rule="nonzero"></path>
                <path d="M181.755102,59.3308333 C187.050895,60.8217375 191.433086,64.5496437 193.755102,69.5391667 C195.795918,75.1741667 195.265306,82.2791667 185.163265,91.2420833 C188.612245,84.6475 185.163265,80.1354167 182.816327,78.9920833 C181.742551,78.7734074 180.643657,78.7046979 179.55102,78.7879167 C171.142857,74.90875 159.142857,72.21375 148.183673,75.9704167 C157.174604,75.298425 166.212103,76.3022408 174.836735,78.9308333 C176.877551,79.625 177.591837,80.9725 180.959184,81.4216667 C182.251286,81.9989142 183.293881,83.0202133 183.897959,84.3004167 C171.142857,78.1754167 161.938776,76.13375 143.897959,77.9304167 C143.612245,77.3179167 145.142857,70.7845833 160.755102,70.2333333 C162.466174,70.3274368 164.169975,70.5251601 165.857143,70.8254167 C164.44898,69.6616667 159.734694,68.3345833 158.530612,67.0279167 C160.884736,67.006042 163.229363,67.3293363 165.489796,67.9875 C165.497331,63.9867845 167.416272,60.2307701 170.653061,57.88125 C174.857143,54.8595833 176.77551,56.53375 180.183673,56.8604167 C179.600172,58.045618 179.128732,59.2828093 178.77551,60.5558333 C171.55102,64.0675 171.102041,70.7641667 171.408163,71.3766667 C173.44898,67.92625 174.693878,63.21 181.102041,62.2708333 C181.046178,61.242965 181.309969,60.2230229 181.857143,59.35125" id="Shape" fill="#FFFFFF" fill-rule="nonzero"></path>
                <path d="M173.183673,60.4333333 C171.761236,61.8738085 170.771339,63.6846611 170.326531,65.66 C170.326531,65.66 174.408163,62.23 176.142857,60.9845833 C177.204082,59.2083333 174.102041,59.59625 173.183673,60.4333333" id="Shape" fill="#1A5632" fill-rule="nonzero"></path>
                <path d="M98.7346939,45.4066667 L98.7346939,18.375 L67.5714286,39.9758333 L67.5714286,49.98 L53.1632653,49.98 L33.2653061,63.8429167 C54.6745574,56.327896 76.5423179,50.1903696 98.7346939,45.4679167" id="Shape" fill="#FFCD00" fill-rule="nonzero"></path>
                <path d="M89.4081633,125.827917 L89.3061224,125.827917 L98.7346939,132.381667 L98.7346939,116.660833 C94.7959184,120.1725 91.7142857,123.337083 89.4081633,125.8075" id="Shape" fill="#1A5632" fill-rule="nonzero"></path>
                <path d="M143.306122,88.7308333 C129.998515,94.3061187 117.493697,101.632244 106.122449,110.515417 L106.122449,132.402083 L137.673469,110.43375 L137.673469,101.00125 L151.22449,101.00125 L174.918367,84.5045833 C166.44898,82.87125 153.163265,84.5045833 143.306122,88.7308333" id="Shape" fill="#FFCD00" fill-rule="nonzero"></path>
            </g>
        </g>
    </g>
</svg>