<?xml version="1.0" encoding="UTF-8"?>
<svg width="200px" height="200px" viewBox="0 0 200 200" version="1.1" xmlns="http://www.w3.org/2000/svg" xmlns:xlink="http://www.w3.org/1999/xlink">
    <!-- Generator: Sketch 51.3 (57544) - http://www.bohemiancoding.com/sketch -->
    <title>crown-mn</title>
    <desc>Created with Sketch.</desc>
    <defs></defs>
    <g id="crown-mn" stroke="none" stroke-width="1" fill="none" fill-rule="evenodd">
        <g id="crown-mn_BGL">
            <g id="crown-mn" transform="translate(10.000000, 0.000000)">
                <path d="M178.02,18.08 C176.16,49.4 173.4,80.68 171.34,112 C170.58,130.6 163.06,148.88 151.24,163.16 C137.6,179.56 119.14,190.3 99.08,196.94 C93.98,198.5 89.24,199.98 83.94,198.32 C65.82,193.38 48.32,184.32 34.6,171.4 C18.28,156.1 7.76,134.46 6.76,112.02 C4.64,80.7 2,49.42 0.06,18.1 C20.04,11.24 40.58,6.12 61.58,3.56 C101.22,-1.54 140.5,5.24 178.02,18.08 Z" id="Shape" fill="#919296" fill-rule="nonzero"></path>
                <path d="M90,7.5 C118.1,7.82 145.38,13.36 172.02,22.1 C170.28,52.1 167.6,82.02 165.64,112 C165.06,122.48 162.56,132.4 158.04,141.88 C147.3,164.88 126.62,180.44 103.32,189.34 C97.14,191.46 90.52,194.72 83.94,192.38 C58.74,185.02 34.72,169.5 22.08,145.92 C16.42,135.36 13.08,123.98 12.46,112 C10.42,82.02 7.9,52.08 6.04,22.1 C33.36,13.24 61.16,7.52 90,7.5 Z" id="Shape" fill="#FFFFFF" fill-rule="nonzero"></path>
                <path d="M105.98,16.34 C125.46,17.96 144.22,22.68 162.9,28.28 C160.72,59.32 158.94,90.5 155.88,121.44 C132.28,120.94 106.8,117.06 85.7,105.98 C101.3,105.72 118.54,106.24 132.76,113.32 C137.26,103.82 140.98,93.98 145.78,84.64 C148.2,83.3 150.6,82.62 152.08,80.14 C151,77.96 149.62,75.96 147.92,74.12 C144.84,77.48 144.08,78.84 144.06,83.56 C139.06,85.12 133.84,87.7 128.66,85.3 C123.82,83.32 123.34,77.98 121.88,73.62 C124.08,71.82 126.26,70.08 128.14,67.92 C126,63.28 123.3,61.26 119.6,66.14 C119.96,68.36 120.36,70.58 120.8,72.78 C114.66,75.56 109.18,78.2 102.34,75.6 C95.48,72.86 93.2,66.34 90.2,60.24 C91.88,58.64 93.56,57.06 95.24,55.48 C92.78,52.14 90.34,48.24 86.12,52.1 C83.32,56.08 87,57.76 88.96,60.96 C85.72,67.8 82.62,75.52 74.12,76.76 C67.48,78.14 62.16,75.7 56.52,72.58 C57.92,70.88 59.34,69.2 60.74,67.52 C59.2,65.88 57.56,64.42 55.78,63.12 C54.14,63.9 52.7,64.88 51.46,66.08 C50.8,68.96 54.5,71.52 55.96,73.66 C54.44,77.8 52.62,81.62 49.72,84.98 C37.24,73.88 26.92,61.58 16.68,48.46 C16.12,41.78 15.48,35.1 15.08,28.4 C44.48,19.2 75.06,13.26 105.98,16.34 Z" id="Shape" fill="#47156C" fill-rule="nonzero"></path>
                <path d="M16.68,48.46 C26.92,61.58 37.24,73.88 49.72,84.98 C44.22,86.5 40.14,86.04 34.8,84.4 C34.8,81.56 34.36,78.94 33.48,76.54 C30.16,73.66 28.34,77.72 25.72,79.42 C31.32,82.98 33.98,86.76 36.5,92.78 C42.58,91.98 48.28,91.2 53.44,87.64 C59.84,91.72 66.38,98.02 74.02,98.96 C65.7,99.98 55.62,101.58 48.8,106.74 C45.26,109.38 43.68,113.76 46.16,117.68 C48.78,121.14 53.54,123.16 57.5,124.56 C69.66,128.6 83.28,129.2 96,128.94 C101.94,128.88 107.4,127.84 113,125.92 C100.9,123.82 88.58,126.68 76.34,124.84 C66.78,123.42 55.2,123.26 49.02,114.58 C60.36,107.54 72.7,106.64 85.7,105.98 C106.8,117.06 132.28,120.94 155.88,121.44 C150.76,145.14 134.7,164.32 113.38,175.36 C105.66,179.1 96.74,183.86 88.08,184.18 C73.54,181.14 59.36,173.54 47.96,164.06 C32.54,151.12 22.42,132.24 21.06,112.08 C19.6,90.86 17.88,69.68 16.68,48.46 Z" id="Shape" fill="#919296" fill-rule="nonzero"></path>
                <path d="M95.24,55.48 C93.56,57.06 91.88,58.64 90.2,60.24 C93.2,66.34 95.48,72.86 102.34,75.6 C109.18,78.2 114.66,75.56 120.8,72.78 C120.36,70.58 119.96,68.36 119.6,66.14 C123.3,61.26 126,63.28 128.14,67.92 C126.26,70.08 124.08,71.82 121.88,73.62 C123.34,77.98 123.82,83.32 128.66,85.3 C133.84,87.7 139.06,85.12 144.06,83.56 C144.08,78.84 144.84,77.48 147.92,74.12 C149.62,75.96 151,77.96 152.08,80.14 C150.6,82.62 148.2,83.3 145.78,84.64 C140.98,93.98 137.26,103.82 132.76,113.32 C118.54,106.24 101.3,105.72 85.7,105.98 C72.7,106.64 60.36,107.54 49.02,114.58 C55.2,123.26 66.78,123.42 76.34,124.84 C88.58,126.68 100.9,123.82 113,125.92 C107.4,127.84 101.94,128.88 96,128.94 C83.28,129.2 69.66,128.6 57.5,124.56 C53.54,123.16 48.78,121.14 46.16,117.68 C43.68,113.76 45.26,109.38 48.8,106.74 C55.62,101.58 65.7,99.98 74.02,98.96 C91.38,97.4 108.4,97.54 125.12,103.02 C126.54,98.9 127.98,94.78 129.42,90.68 C123.06,88.08 120.08,85.92 116.32,80.18 C110.86,81.66 105.7,83.56 99.96,82.32 C95.2,81.38 91.06,77.42 87.16,74.66 C82.94,77.94 79.06,82.14 73.66,83.32 C68.18,84.6 62.88,82.94 57.58,81.7 C56.22,83.68 54.86,85.68 53.44,87.64 C48.28,91.2 42.58,91.98 36.5,92.78 C33.98,86.76 31.32,82.98 25.72,79.42 C28.34,77.72 30.16,73.66 33.48,76.54 C34.36,78.94 34.8,81.56 34.8,84.4 C40.14,86.04 44.22,86.5 49.72,84.98 C52.62,81.62 54.44,77.8 55.96,73.66 C54.5,71.52 50.8,68.96 51.46,66.08 C52.7,64.88 54.14,63.9 55.78,63.12 C57.56,64.42 59.2,65.88 60.74,67.52 C59.34,69.2 57.92,70.88 56.52,72.58 C62.16,75.7 67.48,78.14 74.12,76.76 C82.62,75.52 85.72,67.8 88.96,60.96 C87,57.76 83.32,56.08 86.12,52.1 C90.34,48.24 92.78,52.14 95.24,55.48 Z" id="Shape" fill="#FFFFFF" fill-rule="nonzero"></path>
                <path d="M87.16,74.66 C91.06,77.42 95.2,81.38 99.96,82.32 C105.7,83.56 110.86,81.66 116.32,80.18 C120.08,85.92 123.06,88.08 129.42,90.68 C127.98,94.78 126.54,98.9 125.12,103.02 C108.4,97.54 91.38,97.4 74.02,98.96 C66.38,98.02 59.84,91.72 53.44,87.64 C54.86,85.68 56.22,83.68 57.58,81.7 C62.88,82.94 68.18,84.6 73.66,83.32 C79.06,82.14 82.94,77.94 87.16,74.66 Z" id="Shape" fill="#47156C" fill-rule="nonzero"></path>
            </g>
        </g>
    </g>
</svg>