<?xml version="1.0" encoding="UTF-8"?>
<svg width="200px" height="200px" viewBox="0 0 200 200" version="1.1" xmlns="http://www.w3.org/2000/svg" xmlns:xlink="http://www.w3.org/1999/xlink">
    <!-- Generator: Sketch 51.3 (57544) - http://www.bohemiancoding.com/sketch -->
    <title>dallas</title>
    <desc>Created with Sketch.</desc>
    <defs></defs>
    <g id="dallas" stroke="none" stroke-width="1" fill="none" fill-rule="evenodd">
        <g id="dallas_BGL">
            <g id="dallas" transform="translate(0.000000, 2.000000)">
                <path d="M34.0248963,0.136929461 C41.3423237,0.296680498 48.686722,2.90041494 54.8547718,6.76556017 C58.5394191,9.18672199 62.5,11.6182573 66.8485477,12.5995851 C68.9979253,13.0560166 71.2489627,13.2385892 73.439834,13.0435685 C75.9481328,12.9170124 78.4502075,12.6390041 80.9605809,12.5124481 C82.5165975,12.4751037 84.0809129,12.4688797 85.6369295,12.5145228 C88.3775934,12.6825726 91.1141079,13.1244813 93.7323651,13.966805 C94.9439834,14.3775934 96.1058091,14.8029046 97.1991701,15.473029 C94.06639,18.6286307 90.9149378,21.7655602 87.7717842,24.9128631 C86.879668,25.7842324 85.9979253,26.6659751 85.5041494,27.8360996 C85.1721992,28.6742739 85.2136929,29.6369295 85.8651452,30.3112033 C86.8921162,31.4315353 88.5580913,32.060166 90.0394191,32.2385892 C95.0788382,32.2572614 100.145228,32.2427386 105.186722,32.2448133 C107.141079,32.2510373 109.489627,32.1514523 111.213693,31.1286307 C112.26971,30.5456432 112.93361,29.4273859 112.850622,28.2095436 C112.838174,27.1348548 112.153527,26.3962656 111.574689,25.5580913 C109.074689,22.2157676 106.273859,19.0809129 103.518672,15.9481328 C106.072614,14.5124481 108.892116,13.7863071 111.825726,13.8215768 C116.369295,13.7925311 120.782158,15.4128631 124.894191,17.2053942 C126.284232,17.7842324 127.504149,18.4149378 129.043568,18.4875519 C131.79668,18.6473029 134.649378,17.7510373 137.082988,16.5145228 C144.348548,12.1846473 152.321577,9.00207469 160.487552,6.84232365 C162.697095,6.20124481 164.941909,6.15767635 167.221992,6.31950207 C170.427386,6.62863071 173.645228,7.87759336 176.070539,10.0248963 C178.589212,12.2178423 180.13278,15.3630705 180.479253,18.6721992 C180.786307,21.2157676 180.512448,23.873444 179.259336,26.1431535 C178.039419,28.4377593 175.96888,30.1493776 173.746888,31.4253112 C170.680498,33.159751 167.33195,34.2033195 163.935685,35.0809129 C162.385892,35.5020747 160.66805,36.1618257 159.502075,37.3029046 C158.639004,38.1244813 158.105809,39.2593361 158.068465,40.4522822 C157.989627,41.8049793 158.435685,43.1016598 159.016598,44.3029046 C159.325726,44.906639 159.670124,45.5746888 160.186722,46.026971 C163.298755,48.6431535 166.334025,51.3651452 169.286307,54.159751 C170.161826,55.0103734 171.039419,55.8672199 171.846473,56.7821577 C172.541494,57.5580913 173.093361,58.4294606 173.757261,59.2302905 C176.896266,63.0622407 180.157676,66.7946058 183.450207,70.4937759 C186.458506,73.840249 189.556017,77.3153527 192.842324,80.3879668 C194.508299,81.7551867 196.387967,82.8817427 197.962656,84.4024896 C198.76556,85.1701245 199.639004,86.0684647 199.931535,87.1742739 C200.16805,88.4190871 199.643154,89.6016598 198.780083,90.4792531 C197.726141,91.5497925 196.406639,92.0850622 194.981328,92.473029 C193.987552,92.7344398 193.253112,93.5 192.53527,94.1908714 C190.46888,96.3153527 188.657676,98.8319502 186.952282,101.255187 C185.564315,103.275934 184.201245,105.323651 182.966805,107.443983 C182.394191,108.5 181.688797,109.460581 180.950207,110.404564 C178.404564,113.63278 175.659751,116.73444 172.744813,119.63278 C171.59751,120.740664 170.410788,121.941909 169.049793,122.780083 C166.643154,124.238589 164.452282,126.253112 162.417012,128.182573 C161.802905,128.684647 161.313278,129.263485 161.188797,130.072614 C160.908714,131.556017 161.497925,133.257261 162.064315,134.620332 C163.570539,138.105809 166.008299,141.429461 168.026971,144.634855 C169.829876,147.329876 170.394191,150.860996 169.931535,154.03112 C169.39834,157.580913 167.452282,160.763485 164.707469,163.041494 C162.657676,164.665975 160.068465,165.504149 157.470954,165.614108 C154.275934,165.784232 150.931535,165.060166 148.178423,163.406639 C147.275934,162.883817 146.533195,162.186722 145.76971,161.487552 C144.174274,160.026971 141.983402,159.219917 139.821577,159.304979 C138.616183,159.419087 137.417012,159.780083 136.259336,160.122407 C131.479253,161.560166 127.064315,163.887967 123.045643,166.834025 C118.280083,170.313278 114.080913,174.690871 110.524896,179.385892 C107.041494,184.041494 103.960581,189.076763 101.655602,194.421162 C99,195.63278 95.7655602,195.049793 93.0643154,194.259336 C92.0643154,188.817427 90.3630705,183.574689 87.6141079,178.755187 C85.7219917,175.381743 83.3609959,172.307054 80.6929461,169.514523 C77.9315353,166.620332 74.7614108,164.024896 71.5850622,161.599585 C69.1701245,159.676349 66.1887967,158.429461 63.1763485,157.815353 C61.3381743,157.458506 59.093361,157.298755 57.3921162,158.221992 C56.2302905,158.848548 55.9024896,159.987552 55.2033195,161.026971 C53.5435685,163.636929 51.5539419,165.917012 48.5809129,167.029046 C45.7655602,168.03527 42.5850622,168.124481 39.6659751,167.562241 C35.5352697,166.761411 31.7240664,164.404564 29.2987552,160.950207 C27.3858921,158.261411 26.3921162,154.956432 26.5145228,151.659751 C26.6659751,148.985477 27.4958506,146.292531 28.4522822,143.802905 C29.4315353,141.775934 30.7095436,139.869295 32.0248963,138.045643 C33.9834025,135.572614 36.0124481,133.342324 37.6037344,130.556017 C38.0995851,129.659751 38.5892116,128.622407 38.6307054,127.582988 C38.5726141,127.062241 38.3195021,126.479253 37.7842324,126.30083 C37.0622407,126.176349 36.3713693,126.344398 35.6929461,126.585062 C34.1991701,127.112033 32.7946058,127.935685 31.4356846,128.748963 C29.1307054,130.186722 26.9045643,131.807054 24.7551867,133.466805 C24.0082988,134.037344 23.1763485,134.427386 22.2987552,134.744813 C19.7012448,135.657676 16.8381743,135.89834 14.1058091,135.690871 C10.4543568,135.392116 6.66804979,134.074689 4.04771784,131.429461 C2.05394191,129.504149 0.858921162,126.937759 0.358921162,124.232365 C-0.273858921,121.112033 0.149377593,117.83195 1.81327801,115.093361 C3.43983402,112.429461 6.04149378,110.334025 8.88589212,109.091286 C10.4024896,108.508299 11.8941909,107.890041 13.3070539,107.082988 C16.4294606,105.323651 19.1141079,102.877593 20.9232365,99.7655602 C23.0726141,96.1224066 23.9502075,91.753112 23.5518672,87.5560166 C23.5165975,83.0041494 22.8630705,78.2676349 20.9045643,74.1161826 C19.0228216,70.0352697 15.8423237,66.7406639 11.8174274,64.7385892 C9.05186722,63.2987552 6.6659751,61.1473029 4.96887967,58.5311203 C3.46680498,56.1659751 2.5373444,53.4439834 2.57053942,50.6224066 C2.50207469,47.5228216 3.63485477,44.3962656 5.25103734,41.7863071 C6.3879668,39.9647303 7.69502075,38.313278 9.45435685,37.0560166 C12.0560166,35.1286307 15.2489627,34.2863071 18.4647303,34.3775934 C21.7365145,34.4771784 24.9958506,35.3568465 27.9294606,36.7966805 C29.1452282,37.3609959 30.0145228,38.2717842 31.126556,38.9896266 C32.6410788,40.0082988 34.4502075,40.9854772 36.2987552,41.1286307 C38.2883817,41.3029046 40.340249,39.7676349 40.5788382,37.7593361 C40.6514523,36.5207469 39.8195021,35.2925311 38.966805,34.4626556 C37.3029046,32.8941909 35.1348548,31.8008299 32.8900415,31.373444 C30.4543568,31.0622407 27.8692946,30.5809129 25.6369295,29.5248963 C22.6286307,27.8029046 19.8962656,25.2033195 18.4273859,22.026971 C17.2655602,19.5829876 16.8983402,16.8236515 17.2697095,14.1514523 C17.6721992,11.2116183 18.9647303,8.37759336 20.7717842,6.0373444 C22.0788382,4.37759336 23.5726141,2.80912863 25.4917012,1.86307054 C28.0684647,0.549792531 31.1639004,0.151452282 34.0248963,0.136929461 Z" id="Shape" fill="#001A4B" fill-rule="nonzero"></path>
                <path d="M33.1825726,2.58921162 C34.3568465,2.55809129 35.5497925,2.54979253 36.7261411,2.60165975 C40.8360996,3.00207469 44.6576763,4.39419087 48.2925311,6.30082988 C54.3941909,9.59958506 59.8609959,14.1307054 64.5643154,19.2053942 C71.0145228,16.2033195 78.1618257,14.6970954 85.2697095,14.7344398 C88.3692946,14.7676349 91.4107884,15.219917 94.4813278,15.5892116 C93.153527,16.43361 91.746888,17.1556017 90.4190871,18 C88.3008299,19.5373444 86.533195,21.6908714 85.0207469,23.813278 C82.6846473,27.0788382 80.7821577,30.6037344 79.2282158,34.3029046 C82.4190871,34.3340249 85.6099585,34.3049793 88.8008299,34.3236515 C91.2821577,34.5124481 93.7842324,34.3630705 96.2738589,34.4709544 C97.7219917,34.6161826 99.1742739,34.4958506 100.622407,34.6659751 C107.761411,34.9190871 114.786307,35.8713693 121.838174,36.9460581 C120.614108,33.4771784 118.473029,30.2219917 116.304979,27.2697095 C113.946058,24.1950207 111.423237,21.2510373 108.682573,18.5124481 C107.73029,17.7095436 106.939834,16.7489627 105.979253,15.9585062 C107.157676,16.1161826 108.342324,16.0539419 109.522822,16.1639004 C111.887967,16.3091286 114.26556,16.5103734 116.603734,16.8962656 C120.410788,17.7157676 124.151452,18.9481328 127.618257,20.7323651 C129.692946,21.7427386 131.620332,22.9709544 133.562241,24.2033195 C134.09751,23.6286307 134.655602,23.0954357 135.253112,22.5871369 C140.255187,18.1099585 145.946058,13.9045643 152.124481,11.2157676 C155.767635,9.58506224 159.70332,8.73029046 163.690871,8.65145228 C166.016598,8.78008299 168.365145,9.32572614 170.508299,10.2427386 C172.763485,11.1970954 174.726141,12.7302905 176.178423,14.7033195 C177.184647,16.2323651 177.875519,18.0746888 177.937759,19.9128631 C178.114108,23.0560166 176.790456,26.2946058 174.491701,28.439834 C171.684647,31.2551867 167.634855,32.4211618 163.728216,31.8921162 C162.309129,31.7282158 161.043568,31.2033195 159.73029,30.6825726 C158.267635,32.3775934 157.09751,34.3651452 156.058091,36.3423237 C154.628631,39.2551867 153.460581,42.2614108 152.655602,45.4107884 C156.73444,47.4813278 160.450207,50.1078838 163.863071,53.1514523 C166.83195,55.753112 169.387967,58.6950207 171.844398,61.7759336 C173.767635,64.2157676 175.520747,66.7925311 177.435685,69.2385892 C178.653527,70.7095436 179.885892,72.1804979 181.211618,73.5580913 C185.477178,78.0580913 190.151452,82.1908714 195.16805,85.8360996 C195.078838,86.9253112 195.039419,88.0207469 194.923237,89.1078838 C194.257261,89.2634855 193.609959,89.3319502 193.03527,89.7053942 C192.217842,90.2448133 191.487552,90.9377593 190.813278,91.6431535 C189.184647,93.2759336 187.688797,95.0456432 186.307054,96.8900415 C183.929461,99.8651452 181.709544,102.973029 179.529046,106.095436 C178.966805,106.850622 178.412863,107.609959 177.914938,108.408714 C175.578838,111.825726 172.956432,115.024896 169.921162,117.846473 C165.487552,122.056017 160.182573,125.454357 154.441909,127.574689 C154.280083,127.890041 154.649378,128.329876 154.753112,128.63278 C157.047718,133.76971 159.995851,138.711618 163.645228,143.004149 C164.311203,143.850622 165.03112,144.489627 165.483402,145.483402 C166.016598,146.645228 166.435685,147.86722 166.877593,149.06639 C167.628631,151.26556 167.587137,153.759336 166.707469,155.914938 C165.556017,158.883817 162.86722,161.207469 159.856846,162.161826 C158.288382,162.682573 156.607884,162.686722 154.975104,162.572614 C152.518672,162.253112 150.109959,161.076763 148.373444,159.302905 C146.79668,157.661826 145.900415,155.620332 145.516598,153.392116 C143.545643,153.670124 141.605809,154.219917 139.686722,154.742739 C131.701245,157.03527 124.136929,160.987552 117.76556,166.325726 C115.53527,168.078838 113.697095,170.060166 111.692946,172.068465 C108.46473,175.634855 105.593361,179.516598 103.197095,183.692946 C101.634855,186.452282 100.165975,189.3361 99.1950207,192.363071 C98.1224066,192.365145 97.0477178,192.360996 95.9751037,192.36722 C93.9585062,185.43361 91.3195021,178.634855 87.5082988,172.477178 C86.0954357,170.182573 84.2157676,168.126556 82.3755187,166.170124 C81.2427386,165.089212 80.0684647,164.047718 78.8921162,163.014523 C77.9315353,162.151452 76.8443983,161.479253 75.8381743,160.674274 C74.1680498,159.419087 72.3443983,158.334025 70.5539419,157.259336 C65.659751,154.512448 60.43361,152.313278 55.0311203,150.792531 C55.1701245,152.107884 54.9792531,153.460581 54.8838174,154.773859 C54.6327801,156.8361 53.7676349,158.941909 52.4813278,160.576763 C51.4356846,161.76556 50.2883817,162.881743 48.8443983,163.570539 C47.0228216,164.549793 45.0103734,165.118257 42.9460581,165.228216 C40.6161826,165.354772 38.2717842,164.738589 36.2946058,163.506224 C33.9564315,162.039419 32.1016598,159.732365 31.2489627,157.10166 C30.7427386,155.659751 30.626556,154.014523 30.4709544,152.493776 C30.3755187,148.390041 31.6908714,144.240664 34.0580913,140.890041 C35.5829876,138.792531 36.9377593,136.593361 38.379668,134.446058 C40.4647303,131.190871 42.5580913,127.939834 44.5580913,124.63278 C43.9709544,124.338174 43.3609959,124.095436 42.7489627,123.860996 C39.8215768,122.676349 36.9149378,121.441909 34.0539419,120.103734 C33.4854772,119.817427 32.9170124,119.593361 32.3029046,119.421162 C31.3547718,122.497925 29.466805,125.410788 27.5954357,128.010373 C24.6742739,132.16805 19.2572614,134.085062 14.313278,133.385892 C11.4107884,132.973029 8.41908714,131.653527 6.41701245,129.470954 C3.4626556,126.721992 2.3526971,122.228216 3.72406639,118.423237 C4.42323651,116.514523 5.66182573,114.742739 7.2406639,113.456432 C9.5186722,111.470954 12.6120332,110.387967 15.6058091,110.209544 C17.5373444,110.085062 19.3485477,110.462656 21.1970954,110.960581 C21.5643154,110.385892 21.9087137,109.794606 22.2593361,109.209544 C25.7738589,103.410788 27.9253112,96.8236515 28.3423237,90.0435685 C28.3485477,89.3485477 28.3858921,88.6721992 28.4564315,87.9792531 C28.5580913,86.7883817 28.3195021,85.6327801 28.3423237,84.439834 C27.8630705,76.526971 25.2676349,68.8526971 21.653527,61.8443983 C17.4045643,62.7033195 12.7406639,61.4232365 9.49377593,58.5560166 C7.00414938,56.3443983 5.45850622,53.1369295 5.43983402,49.7925311 C5.53319502,47.3568465 6.32157676,44.8360996 7.86721992,42.9273859 C9.80912863,40.4190871 12.6431535,38.6721992 15.7344398,37.9896266 C20.5311203,36.8838174 25.8651452,38.2780083 29.2780083,41.8879668 C31.0518672,43.7240664 32.2033195,46.1120332 32.5311203,48.6452282 C36.7987552,46.3775934 41.0290456,44.0165975 45.2634855,41.6929461 C45.6452282,41.4771784 45.3360996,40.9626556 45.2365145,40.6659751 C42.9709544,35.3278008 40.2614108,30.1244813 37.0041494,25.3236515 C35.9605809,26.5539419 34.5746888,27.2717842 33.0871369,27.8319502 C32.0975104,28.1473029 30.9522822,28.3858921 29.9190871,28.1784232 C25.4626556,27.3900415 21.6514523,24.0290456 20.3838174,19.6742739 C19.6576763,17.246888 19.5041494,14.4688797 20.3008299,12.0414938 C20.8609959,9.93775934 22.2178423,8.03112033 23.7717842,6.5373444 C25.2863071,5.26141079 26.8360996,4.12448133 28.7344398,3.49585062 C30.1701245,3.02904564 31.6742739,2.69917012 33.1825726,2.58921162 Z" id="Shape" fill="#FFFFFF" fill-rule="nonzero"></path>
                <path d="M41.4647303,6.63485477 C46.7178423,8.3153527 51.5394191,11.4979253 55.7738589,14.9771784 C58.6556017,17.4232365 61.5041494,20.033195 63.8775934,22.9854772 C65.5435685,22.0186722 67.2676349,21.2219917 69.0767635,20.560166 C74.4937759,18.5746888 80.3215768,17.5767635 86.0912863,17.7842324 C84.1514523,19.9232365 82.3630705,22.1784232 80.8589212,24.6473029 C78.0186722,29.2074689 75.8443983,34.1784232 74.0705394,39.2406639 C71.3672199,46.9688797 69.5912863,55.1556017 68.3443983,63.2385892 C66.4190871,76.0539419 65.7572614,89.1244813 65.8360996,102.074689 C65.8195021,105.553942 65.9626556,109.029046 65.9564315,112.506224 C60.9543568,110.209544 56.2240664,107.352697 52.2219917,103.541494 C54.5311203,95.1887967 55.8153527,86.4688797 55.780083,77.7966805 C55.8817427,62.7323651 52.1763485,47.6224066 45.533195,34.126556 C43.340249,29.7261411 40.8360996,25.3817427 37.9149378,21.4211618 C37.7344398,21.2095436 37.5165975,20.8360996 37.186722,21.0145228 C36.4107884,21.379668 35.7012448,21.8962656 34.9564315,22.3215768 C34.9253112,22.7448133 34.9626556,23.1099585 34.6576763,23.4522822 C33.9004149,24.3298755 32.6784232,24.8547718 31.5767635,25.1473029 C30.4585062,25.4294606 29.3443983,25.0186722 28.3298755,24.5767635 C26.1680498,23.6182573 24.3775934,21.8195021 23.5207469,19.6078838 C22.3817427,16.5912863 22.4522822,13.1244813 24.346473,10.4211618 C25.8879668,8.29460581 28.2116183,6.59751037 30.7946058,6.01452282 C34.3609959,5.12863071 38.0020747,5.51659751 41.4647303,6.63485477 Z" id="Shape" fill="#001A4B" fill-rule="nonzero"></path>
                <path d="M162.448133,11.7116183 C164.373444,11.5497925 166.383817,11.9502075 168.207469,12.5477178 C170.460581,13.3360996 172.636929,14.6514523 173.923237,16.7178423 C175.298755,18.9502075 175.263485,21.7925311 174.076763,24.0954357 C172.981328,26.2593361 170.929461,27.8423237 168.634855,28.56639 C166.514523,29.2261411 164.147303,29.1576763 162.062241,28.3962656 C161.085062,28.0394191 160.248963,27.4834025 159.36722,26.9502075 C158.313278,27.8174274 157.410788,28.7489627 156.599585,29.846473 C153.419087,34.0414938 151.427386,38.9917012 149.90249,43.9937759 C145.118257,41.7987552 140.114108,40.3091286 134.96888,39.2385892 C131.697095,38.5954357 128.408714,38.0539419 125.128631,37.4605809 C124.657676,35.6286307 123.865145,33.8630705 122.997925,32.1887967 C121.184647,28.7863071 118.848548,25.5788382 116.406639,22.6016598 C115.593361,21.5705394 114.674274,20.6327801 113.86722,19.5975104 C114.655602,19.620332 115.439834,19.6970954 116.213693,19.8672199 C119.070539,20.5103734 121.850622,21.3443983 124.524896,22.5518672 C127.846473,24.0165975 130.950207,25.9688797 133.858921,28.1327801 C134.211618,27.7634855 134.558091,27.3858921 134.908714,27.0124481 C138.385892,23.593361 142.159751,20.4937759 146.236515,17.813278 C149.840249,15.4751037 153.848548,13.3630705 158.041494,12.3443983 C159.489627,11.9751037 160.960581,11.8319502 162.448133,11.7116183 Z" id="Shape" fill="#001A4B" fill-rule="nonzero"></path>
                <path d="M78.4045643,37.3215768 C80.346473,37.3070539 82.2925311,37.280083 84.2323651,37.379668 C90.8651452,37.3817427 97.5311203,37.3983402 104.149378,37.8568465 C112.136929,38.3817427 119.925311,39.653527 127.80083,41.0248963 C130.502075,41.5103734 133.267635,41.9419087 135.941909,42.5622407 C143.871369,44.3443983 151.390041,47.3568465 157.96888,52.1887967 C163.622407,56.3008299 168.058091,61.4626556 172.128631,67.0975104 C175.103734,71.3838174 178.549793,75.2842324 182.288382,78.9149378 C185.30083,81.7282158 188.408714,84.5103734 191.721992,86.9709544 C189.390041,88.5518672 187.645228,90.5684647 185.834025,92.6929461 C182.224066,97.0726141 178.931535,101.742739 175.682573,106.394191 C173.238589,110.03112 170.439834,113.408714 167.180498,116.342324 C163.136929,119.939834 158.373444,123.03112 153.242739,124.809129 C150.962656,118.956432 149.443983,112.76556 148.429461,106.572614 C151.73444,103.549793 154.551867,100.153527 156.429461,96.0580913 C157.927386,92.8360996 158.744813,89.2385892 158.653527,85.6846473 C158.589212,80.8070539 156.834025,76.06639 154.085062,72.0746888 C150.96473,67.5082988 146.556017,63.7095436 141.881743,60.7966805 C135.908714,57.0705394 129.400415,54.5248963 122.603734,52.7572614 C115.553942,50.9419087 108.309129,50.0643154 101.037344,49.9460581 C91.6410788,49.8298755 82.2448133,51.0394191 73.2385892,53.7448133 C73.3547718,52.8423237 73.5788382,51.9647303 73.8008299,51.0829876 C74.8672199,46.5746888 76.2033195,42.1037344 77.840249,37.7717842 C77.9792531,37.4626556 78.0228216,37.3195021 78.4045643,37.3215768 Z" id="Shape" fill="#001A4B" fill-rule="nonzero"></path>
                <path d="M26.7634855,43.56639 C28.1452282,44.8983402 29.1742739,46.6307054 29.4647303,48.5456432 C29.7883817,50.3879668 29.2634855,52.1037344 29.0912863,53.9979253 C31.2489627,52.7406639 33.4688797,51.5892116 35.6452282,50.3672199 C39.3215768,48.3817427 42.9647303,46.3153527 46.6576763,44.3651452 C49.1161826,50.9917012 50.9460581,57.9273859 51.8630705,64.939834 C49.6141079,66.8423237 47.5726141,68.9813278 45.840249,71.3672199 C43.1286307,75.1099585 41.2883817,79.4024896 40.8609959,84.0311203 C40.6950207,86.2551867 40.7614108,88.4813278 41.2282158,90.6680498 C42.2676349,95.813278 44.9875519,100.350622 48.5456432,104.153527 C49.5248963,105.105809 50.4502075,106.134855 51.5020747,107.008299 C54.0560166,109.213693 56.8568465,111.139004 59.7966805,112.794606 C67.0912863,116.885892 75.2323651,119.46888 83.4460581,120.921162 C88.6327801,121.809129 93.906639,122.298755 99.1701245,122.286307 C108.751037,122.385892 118.33195,121.004149 127.466805,118.099585 C126.545643,122.784232 125.412863,127.502075 123.695021,131.96473 C118.506224,133.186722 113.205394,133.852697 107.883817,134.089212 C98.2987552,134.477178 88.8360996,133.518672 79.4273859,131.73029 C67.626556,129.46473 56.033195,125.89834 44.8589212,121.493776 C40.6991701,119.823651 36.5373444,118.06639 32.5186722,116.074689 C31.7095436,115.682573 30.9419087,115.226141 30.1037344,114.894191 C29.93361,116.149378 29.8609959,117.327801 29.4647303,118.529046 C28.5186722,121.383817 26.9502075,123.817427 25.1991701,126.232365 C23.8692946,128.184647 21.6742739,129.553942 19.406639,130.136929 C15.4564315,131.19917 10.8174274,130.118257 8.093361,126.96888 C6.28215768,124.921162 5.6120332,121.993776 6.54771784,119.396266 C7.31742739,117.195021 9.16390041,115.36722 11.2427386,114.36722 C13.6950207,113.155602 16.6037344,112.894191 19.2510373,113.551867 C20.2966805,113.804979 21.2489627,114.259336 22.2385892,114.670124 C25.8941909,109.589212 28.6887967,103.989627 30.153527,97.8838174 C31.2697095,93.4854772 31.5995851,88.9585062 31.3526971,84.43361 C30.9709544,78.0414938 29.2780083,71.6576763 26.780083,65.7738589 C25.7261411,63.2448133 24.5103734,60.8298755 23.2883817,58.379668 C20.9543568,59.1224066 18.5311203,59.3568465 16.1369295,58.7489627 C14.1825726,58.2780083 12.3755187,57.2821577 10.9792531,55.8319502 C9.39211618,54.2489627 8.44605809,52.0414938 8.45020747,49.7946058 C8.46887967,48.1016598 9.03526971,46.4460581 10,45.060166 C11.2240664,43.2136929 13.2551867,41.8817427 15.3381743,41.1950207 C19.246888,39.9149378 23.7219917,40.7593361 26.7634855,43.56639 Z" id="Shape" fill="#001A4B" fill-rule="nonzero"></path>
                <path d="M105.182573,53.0995851 C112.051867,53.5103734 118.950207,54.6286307 125.522822,56.7033195 C127.53527,65.7053942 128.948133,74.813278 129.473029,84.026971 C129.616183,85.4087137 129.545643,86.7925311 129.69917,88.1742739 C129.73444,91.2842324 129.70332,94.3983402 129.715768,97.5103734 C129.491701,103.244813 129.051867,109.074689 128.082988,114.736515 C120.238589,117.421162 112.012448,118.883817 103.73444,119.215768 C101.709544,119.248963 99.719917,119.458506 97.6846473,119.288382 C96.4605809,119.159751 95.2302905,119.26971 94.0041494,119.122407 C85.5435685,118.643154 77.0518672,116.962656 69.1390041,113.896266 C68.9439834,112.711618 69.033195,111.56639 69.0103734,110.373444 C69.0062241,109.609959 68.8900415,108.854772 68.8962656,108.091286 C68.8713693,103.043568 68.8713693,97.9937759 68.8962656,92.9460581 C69.0394191,89.6224066 69.0975104,86.3112033 69.3381743,82.9875519 C69.8215768,74.3443983 70.8278008,65.7323651 72.3983402,57.2178423 C73.6431535,56.6763485 75.0062241,56.3858921 76.3049793,55.9854772 C85.6680498,53.4439834 95.5082988,52.5373444 105.182573,53.0995851 Z" id="Shape" fill="#001A4B" fill-rule="nonzero"></path>
                <path d="M110.369295,56.0705394 C113.659751,56.1763485 116.941909,56.9896266 119.553942,59.0788382 C122.172199,61.1618257 123.740664,64.2821577 124.721992,67.4190871 C125.815353,71.0290456 126.348548,74.8858921 126.73029,78.6327801 C127.284232,84.6970954 127.435685,90.8029046 127.253112,96.8879668 C127.244813,99.1390041 127.09751,101.414938 126.682573,103.628631 C126.043568,106.823651 124.726141,110.091286 122.363071,112.406639 C120.049793,114.76971 116.852697,116.105809 113.591286,116.450207 C110.798755,116.713693 107.991701,116.865145 105.186722,116.90249 C101.863071,117.026971 98.5373444,117.004149 95.2157676,116.83195 C93.8340249,116.688797 92.4564315,116.497925 91.0767635,116.334025 C86.7738589,115.773859 82.7738589,114.466805 78.7365145,112.931535 C77.3298755,112.377593 76.0290456,111.576763 74.9149378,110.553942 C73.1307054,108.846473 72.0539419,106.572614 71.6659751,104.149378 C71.3941909,102.701245 71.5020747,101.294606 71.5788382,99.8381743 C71.7634855,93.2904564 72.0373444,86.719917 72.4045643,80.1784232 C72.659751,76.1307054 72.9087137,72.0850622 73.340249,68.0518672 C73.6929461,65.1701245 74.8900415,62.4294606 76.9875519,60.3921162 C79.1950207,58.3195021 82.0062241,57.1244813 84.9585062,56.5788382 C87.4004149,56.1099585 90,56.3257261 92.533195,56.2385892 C93.5684647,56.1659751 94.6037344,56.159751 95.6431535,56.153527 C100.556017,56.1431535 105.454357,56.0124481 110.369295,56.0705394 Z" id="Shape" fill="#FFFFFF" fill-rule="nonzero"></path>
                <path d="M128.879668,57.906639 C134.589212,59.9232365 140.049793,62.8174274 144.807054,66.5809129 C144.373444,71.2842324 143.973029,75.9834025 143.865145,80.7074689 C143.782158,82.159751 143.869295,83.6099585 143.757261,85.0580913 C143.713693,85.753112 143.76971,86.439834 143.804979,87.1348548 C143.875519,98.4377593 145.271784,110.026971 148.634855,120.846473 C151.311203,129.383817 155.221992,137.516598 160.952282,144.437759 C161.605809,145.271784 162.504149,146.085062 162.917012,147.053942 C163.360996,148.039419 163.692946,149.078838 164.060166,150.095436 C164.446058,151.184647 164.481328,152.400415 164.29668,153.53527 C163.740664,156.651452 160.962656,159.070539 157.885892,159.551867 C154.665975,160.122407 151.228216,158.719917 149.516598,155.89834 C148.387967,154.13278 148.450207,151.939834 148.145228,149.854772 C141.226141,150.869295 134.458506,152.90249 128.184647,156.004149 C123.13278,158.514523 118.414938,161.688797 114.20332,165.443983 C108.126556,170.844398 103.068465,177.400415 99.2987552,184.599585 C98.7323651,185.641079 98.2759336,186.738589 97.7116183,187.780083 C95.6846473,181.748963 93.2116183,175.948133 89.8298755,170.543568 C88.2053942,168.089212 86.2489627,165.83195 84.1473029,163.775934 C80.3381743,159.993776 75.9502075,156.86722 71.2738589,154.246888 C65.0497925,150.809129 58.3651452,148.36722 51.4564315,146.721992 C51.5560166,148.089212 51.7966805,149.483402 51.9751037,150.827801 C52.1224066,151.910788 51.9958506,153.064315 51.9356846,154.155602 C51.7406639,156 50.9917012,157.892116 49.6887967,159.23444 C48.2219917,160.807054 46.0746888,161.748963 43.9792531,162.105809 C42.4937759,162.309129 40.9356846,162.29668 39.5186722,161.753112 C37.2053942,160.950207 35.3298755,159.134855 34.3755187,156.887967 C33.7634855,155.543568 33.6576763,154.157676 33.5145228,152.69917 C33.3319502,149.188797 34.3858921,145.709544 36.3672199,142.817427 C38.8589212,139.253112 41.1929461,135.589212 43.533195,131.923237 C44.8049793,129.879668 46.1161826,127.856846 47.3381743,125.782158 C48,125.952282 48.6390041,126.184647 49.2738589,126.43361 C56.5248963,129.068465 63.8983402,131.334025 71.4045643,133.120332 C71.973029,134.004149 72.5477178,134.881743 73.1804979,135.721992 C76.3962656,140.078838 80.2157676,144.165975 84.6327801,147.325726 C88.3008299,149.952282 92.4004149,151.912863 96.8900415,152.59751 C99.906639,153.056017 103.049793,152.83195 106.024896,152.207469 C110.782158,151.221992 115.221992,148.856846 118.676349,145.439834 C121.607884,142.560166 123.742739,139.139004 125.470954,135.431535 C126.744813,132.956432 127.502075,130.404564 128.307054,127.753112 C130.778008,119.09751 132.074689,110.016598 132.562241,101.039419 C133.190871,88.6784232 132.302905,76.2780083 130.082988,64.1078838 C129.73444,62.0311203 129.246888,59.9771784 128.879668,57.906639 Z" id="Shape" fill="#001A4B" fill-rule="nonzero"></path>
                <path d="M52.3298755,68.6742739 C52.5809129,70.5373444 52.6307054,72.4004149 52.7551867,74.2738589 C52.7365145,77.1037344 52.8609959,79.9543568 52.6369295,82.7759336 C52.3091286,88.9356846 51.3195021,95.0290456 49.8008299,101.006224 C48.7261411,99.9543568 47.9626556,98.7053942 47.1431535,97.4585062 C45.2448133,94.4024896 44.0311203,90.966805 43.8174274,87.3609959 C43.6327801,85.9419087 43.8381743,84.6327801 43.9875519,83.2012448 C44.7219917,78.2033195 47.3278008,73.7012448 50.7946058,70.0912863 C51.280083,69.5560166 51.6473029,68.9875519 52.3298755,68.6742739 Z" id="Shape" fill="#001A4B" fill-rule="nonzero"></path>
                <path d="M147.705394,69.2033195 C148.340249,69.6950207 148.885892,70.3049793 149.419087,70.9004149 C152.309129,74.1887967 154.56639,78.2157676 155.3361,82.5560166 C155.686722,84.3112033 155.649378,86.1950207 155.568465,87.9792531 C155.238589,91.8257261 153.674274,95.6141079 151.435685,98.7406639 C150.360996,100.184647 149.298755,101.724066 147.887967,102.86722 C147.219917,98.6514523 147.047718,94.2966805 146.83195,90.0414938 C146.813278,87.0684647 146.823651,84.093361 146.827801,81.120332 C146.997925,77.7987552 147.112033,74.4834025 147.417012,71.1680498 C147.481328,70.533195 147.454357,69.7925311 147.705394,69.2033195 Z" id="Shape" fill="#001A4B" fill-rule="nonzero"></path>
                <path d="M87.3609959,74.3589212 C89.2904564,74.3236515 91.2261411,74.3589212 93.1576763,74.3443983 C95.159751,74.2946058 96.9585062,75.8983402 97.6514523,77.6929461 C98.1742739,78.9564315 98.1244813,80.1970954 98.1016598,81.5352697 C98.0414938,83.3340249 98.1327801,85.1286307 98.0228216,86.9253112 C98.0103734,89.2780083 97.9958506,91.6327801 97.9958506,93.9875519 C97.9896266,95.9917012 96.8921162,98.0518672 95.1099585,99.0248963 C94.2385892,99.4958506 93.3008299,99.6141079 92.3236515,99.6224066 C91.0767635,99.6182573 89.8360996,99.653527 88.5912863,99.5539419 C87.7489627,99.5041494 86.9937759,99.5975104 86.1908714,99.2759336 C84.0373444,98.4564315 82.6701245,96.2655602 82.6473029,93.9917012 C82.6514523,89.2178423 82.6680498,84.4377593 82.7427386,79.6659751 C82.7863071,77.1390041 84.7842324,74.626556 87.3609959,74.3589212 Z" id="Shape" fill="#001A4B" fill-rule="nonzero"></path>
                <path d="M102.954357,74.379668 C104.873444,74.3568465 106.792531,74.4315353 108.713693,74.406639 C111.089212,74.3713693 113.456432,74.5062241 115.83195,74.4688797 C115.809129,75.4087137 115.877593,76.3589212 115.804979,77.2946058 C115.73029,77.4024896 115.639004,77.4460581 115.53112,77.4253112 C113.087137,77.2593361 110.622407,77.3755187 108.170124,77.340249 C108.180498,80.0684647 108.136929,82.7966805 108.159751,85.5248963 C109.846473,85.5456432 111.533195,85.5746888 113.219917,85.560166 C113.219917,86.560166 113.226141,87.5580913 113.219917,88.5560166 C111.526971,88.5456432 109.838174,88.4626556 108.143154,88.5103734 C108.16805,92.2178423 108.118257,95.9253112 108.130705,99.6327801 C106.365145,99.6473029 104.59751,99.6410788 102.83195,99.6390041 C102.844398,96.0248963 102.829876,92.4107884 102.856846,88.7966805 C102.875519,86.8547718 102.79668,84.9253112 102.941909,82.9875519 C102.948133,80.1182573 102.948133,77.2489627 102.954357,74.379668 Z" id="Shape" fill="#001A4B" fill-rule="nonzero"></path>
                <path d="M90.4626556,77.2821577 C91.7925311,77.3360996 92.8360996,78.5643154 92.8340249,79.8692946 C92.8672199,84.1618257 92.780083,88.4460581 92.8091286,92.7385892 C92.7925311,93.5145228 92.8838174,94.3215768 92.5580913,95.0456432 C92.1721992,95.939834 91.2261411,96.6431535 90.2406639,96.6493776 C89.0207469,96.5560166 88.0311203,95.3775934 87.9460581,94.1970954 C87.8775934,93.2323651 87.9356846,92.2551867 87.9439834,91.2863071 C87.9460581,87.6908714 87.9626556,84.093361 87.9564315,80.4979253 C87.9647303,79.8775934 87.9834025,79.2946058 88.2697095,78.7282158 C88.6784232,77.8775934 89.4875519,77.246888 90.4626556,77.2821577 Z" id="Shape" fill="#FFFFFF" fill-rule="nonzero"></path>
                <path d="M149.616183,77.4149378 C150.261411,78.1473029 150.624481,78.9937759 151.03112,79.8672199 C152.373444,82.8236515 152.919087,86.1929461 152.473029,89.4149378 C152.070539,92.6141079 150.873444,95.6410788 149.105809,98.3298755 C148.435685,94.7406639 148.354772,90.9834025 148.560166,87.3443983 C148.73029,84.026971 149.06639,80.6908714 149.616183,77.4149378 Z" id="Shape" fill="#FFFFFF" fill-rule="nonzero"></path>
                <path d="M49.6327801,77.7448133 C50.2697095,80.340249 50.6078838,83.0124481 50.6659751,85.6846473 C50.6120332,88.3713693 50.3112033,90.9481328 49.093361,93.3817427 C47.1784232,88.346473 47.0850622,82.5788382 49.6327801,77.7448133 Z" id="Shape" fill="#FFFFFF" fill-rule="nonzero"></path>
                <path d="M75.8340249,134.09751 C76.9356846,134.246888 78,134.506224 79.0892116,134.717842 C86.2385892,136.047718 93.5684647,136.989627 100.844398,137.116183 C102.085062,137.253112 103.319502,137.192946 104.564315,137.207469 C108.709544,137.074689 112.825726,136.896266 116.93361,136.271784 C118.66805,136.068465 120.36722,135.665975 122.09751,135.452282 C120.128631,139.59751 117.105809,143.497925 113.23444,146.018672 C109.275934,148.69917 104.327801,149.904564 99.5850622,149.838174 C94.3755187,149.657676 89.6659751,147.392116 85.5684647,144.304979 C82.466805,141.975104 79.7157676,139.211618 77.3236515,136.161826 C76.7738589,135.489627 76.1887967,134.908714 75.8340249,134.09751 Z" id="Shape" fill="#001A4B" fill-rule="nonzero"></path>
                <path d="M83.6991701,139.381743 C85.8153527,139.404564 87.9356846,139.489627 90.0497925,139.556017 C91.8506224,139.533195 93.6348548,139.728216 95.4356846,139.697095 C101.236515,139.900415 107.047718,140.008299 112.844398,140.176349 C112.912863,141.479253 112.512448,142.620332 111.599585,143.553942 C110.195021,144.993776 108.03112,145.670124 106.109959,146.078838 C104.033195,146.475104 101.906639,146.653527 99.7925311,146.626556 C96.8091286,146.674274 93.7572614,146.298755 90.9170124,145.36722 C88.9253112,144.692946 86.9004149,143.684647 85.3651452,142.226141 C84.5373444,141.427386 83.8443983,140.562241 83.6991701,139.381743 Z" id="Shape" fill="#FFFFFF" fill-rule="nonzero"></path>
            </g>
        </g>
    </g>
</svg>