<?xml version="1.0" encoding="UTF-8"?>
<svg width="200px" height="200px" viewBox="0 0 200 200" version="1.1" xmlns="http://www.w3.org/2000/svg" xmlns:xlink="http://www.w3.org/1999/xlink">
    <!-- Generator: Sketch 51.3 (57544) - http://www.bohemiancoding.com/sketch -->
    <title>denison</title>
    <desc>Created with Sketch.</desc>
    <defs></defs>
    <g id="denison" stroke="none" stroke-width="1" fill="none" fill-rule="evenodd">
        <g id="denison_BGL" transform="translate(6.542056, 0.938967)">
            <g id="denison">
                <g id="g10" transform="translate(93.457824, 99.987085) scale(-1, 1) rotate(-180.000000) translate(-93.457824, -99.987085) translate(0.000000, 0.033887)" fill-rule="nonzero">
                    <g id="g12">
                        <path d="M132.562331,61.2299734 L125.810425,54.4602619 L78.3325014,54.4602619 L78.3325014,145.227252 L125.810425,145.227252 L132.562331,138.456863 L132.562331,61.2299734 Z M145.345472,199.687514 L0,199.687514 L0,145.227252 L24.1023678,145.227252 L24.1023678,54.4602619 L0,54.4602619 L0,0 L145.345472,0 L186.793173,41.6228832 L186.793173,158.064292 L145.345472,199.687514 Z" id="path14" fill="#100F0D"></path>
                        <polyline id="path16" fill="#E51636" points="159.678259 172.457214 135.580311 148.257698 141.600749 142.221202 141.600749 57.4659732 129.550088 45.3831563 69.294084 45.3831563 69.294084 69.5877548 9.03845119 9.07680068 141.600749 9.07680068 177.754756 45.3831563 177.754756 154.304019 159.678259 172.457214"></polyline>
                        <polyline id="path18" fill="#FFFFFF" points="141.600749 190.610747 9.03845119 190.610747 9.03845119 154.304019 42.1788316 154.304019 33.140819 145.227252 33.140819 54.4602619 42.1788316 45.3831563 9.03845119 45.3831563 9.03845119 9.07680068 69.294084 69.5877548 69.294084 154.304019 129.550088 154.304019 135.580311 148.257698 159.678259 172.457214 141.600749 190.610747"></polyline>
                    </g>
                </g>
            </g>
        </g>
    </g>
</svg>