<?xml version="1.0" encoding="UTF-8"?>
<svg width="200px" height="200px" viewBox="0 0 200 200" version="1.1" xmlns="http://www.w3.org/2000/svg" xmlns:xlink="http://www.w3.org/1999/xlink">
    <!-- Generator: Sketch 51.3 (57544) - http://www.bohemiancoding.com/sketch -->
    <title>desales</title>
    <desc>Created with Sketch.</desc>
    <defs></defs>
    <g id="desales" stroke="none" stroke-width="1" fill="none" fill-rule="evenodd">
        <g id="desales_BGL" transform="translate(31.000000, -1.000000)">
            <g id="desales" transform="translate(0.442242, 0.316473)">
                <g fill-rule="nonzero" id="g10">
                    <g transform="translate(68.238205, 100.955912) scale(-1, 1) rotate(-180.000000) translate(-68.238205, -100.955912) translate(0.000000, 0.659491)">
                        <g id="g12" transform="translate(0.000000, 0.824354)">
                            <path d="M122.62268,48.586426 L121.316536,48.586426 L121.316536,52.3969573 L121.174564,52.3969573 L119.976503,49.7313623 L119.060554,49.7313623 L117.848753,52.444495 L117.673807,52.444495 L117.673807,48.586426 L116.435444,48.586426 L116.435444,53.4613817 L118.555866,53.4613817 L119.538679,51.0777159 L120.561794,53.4613817 L122.62268,53.4613817 L122.62268,48.586426 Z M115.660551,52.4041017 L114.267392,52.4041017 L114.267392,48.586426 L112.953922,48.586426 L112.953922,52.4041017 L111.560763,52.4041017 L111.560763,53.4613817 L115.660551,53.4613817 L115.660551,52.4041017 Z" id="path14" fill="#C1C4C6"></path>
                            <path d="M135.688693,96.2625819 C135.438639,104.590391 132.364714,112.962165 127.363632,119.991158 L130.360617,127.486369 C131.332439,129.927373 126.948707,135.987292 126.948707,135.987292 L118.540295,148.101635 C118.540295,148.101635 117.460391,161.73462 111.406884,173.086893 C105.353376,184.43825 102.193352,187.638576 96.5923235,187.638576 C90.9920278,187.638576 89.2406416,183.147677 88.4631841,181.435769 C87.6860013,179.724776 85.9747337,174.673317 85.9747337,174.673317 C79.0056437,193.761695 74.4054728,199.738263 66.9247336,199.738263 C59.4439945,199.738263 56.5026073,195.563367 41.3071957,169.918625 C26.1120588,144.274799 33.9563381,129.624194 33.9563381,129.624194 C33.9563381,129.624194 30.6918041,102.643999 2.2737367e-14,66.1579927 C24.2114646,17.4130159 72.168542,0.0905215231 72.168542,0.0905215231 C95.8522367,17.1475739 105.303915,36.7248858 105.303915,36.7248858 L105.303915,58.4118115 C123.203391,62.6015457 136.233683,78.1157992 135.688693,96.2625819" id="path16" fill="#FFFFFF"></path>
                            <path d="M111.492884,148.82615 C111.461884,148.855461 111.437884,148.881107 111.406884,148.911334 C111.416884,148.955299 111.449884,148.909502 111.492884,148.82615 Z M124.744934,127.26013 C125.008727,129.700218 123.780439,132.109164 122.244393,134.144403 C121.114112,135.641064 118.287493,140.740152 113.705916,146.277064 C113.235118,165.590766 100.737909,180.972298 100.137962,181.509044 C99.0278321,182.501017 97.5971196,182.929681 96.2543383,182.671384 C94.9097251,182.414002 93.796847,181.499885 93.2298746,180.18733 C93.1630103,180.033451 88.9902212,168.510811 86.4834518,162.20267 C84.3718228,162.509513 84.1156319,162.554395 82.773217,162.515925 C82.6125595,176.688405 74.8792016,188.937391 72.031516,192.287933 L71.5878303,192.765142 C68.857203,195.700759 64.1271504,195.484595 61.7020837,192.291597 C53.0753092,180.933828 47.3348732,171.16798 43.2861036,163.10946 C32.2120964,141.065314 39.1031475,130.586857 39.1031475,130.586857 C35.2601,106.954455 21.1916721,84.2115318 5.76976461,65.4517044 C5.76976461,65.4517044 24.5406566,26.0476676 71.5849908,5.68819018 C71.5849908,5.68819018 89.9880561,18.7193424 100.399008,37.9660883 L100.399008,62.3020304 C116.396974,65.883208 128.012124,76.7830017 130.277266,90.1458741 C131.06773,93.8545518 131.113527,98.3894156 129.332923,103.988612 C127.864656,109.12617 125.258781,114.374558 121.780923,119.250155 L124.185289,125.241378 C124.671658,126.549353 124.744934,127.26013 124.744934,127.26013 Z" id="path18" fill="#192C4E"></path>
                            <path d="M79.8718567,131.244508 C100.311077,121.221278 102.142059,132.357386 102.142059,132.357386 C110.663133,126.585991 115.778708,127.533999 118.097891,128.636801 C115.480109,131.801405 112.955753,135.527486 110.267443,139.58514 C104.871587,147.731591 97.8435099,150.461119 97.8435099,150.461119 C97.2408155,156.495392 99.0260002,160.221472 99.0260002,160.221472 C102.133815,156.745446 104.385218,152.07319 104.385218,152.07319 C104.638936,163.193727 98.3088121,171.245835 98.3088121,171.245835 C97.0658692,167.106662 91.9365545,152.748244 91.9365545,152.748244 C77.3697587,157.121901 63.3628826,150.471195 63.3628826,150.471195 C62.3961899,160.464199 67.3380099,165.891197 67.3380099,165.891197 L72.0726421,157.79146 C74.7615022,175.104729 66.9247336,182.069605 66.9247336,182.069605 C66.9247336,182.069605 38.0158244,155.077503 52.0412943,119.267558 C52.0412943,119.267558 48.3063288,119.861093 44.7294561,123.329792 C43.8506946,115.700853 40.4015969,96.5135519 29.5264421,73.560693 C40.1779221,60.2970179 51.2999251,52.3823021 59.7105357,47.7943133 C53.6921092,53.3429495 46.62428,62.2963515 44.7219454,74.83661 C44.7219454,74.83661 40.1804868,73.9317439 37.2519228,71.4376146 C39.4795109,79.3247604 45.1373283,89.0724734 57.1229796,94.3748109 C57.1229796,94.3748109 51.5354156,83.7030884 58.8733583,76.1840626 C64.7554915,70.1562935 81.0976713,64.8720918 92.4971153,87.7865725 C103.896101,110.700687 108.581181,109.781074 108.581181,109.781074 C98.8135,113.674773 96.7480349,118.565025 96.7480349,118.565025 C80.0435972,118.291157 75.1622299,106.529455 75.1622299,106.529455 C63.8824089,116.331942 79.8718567,122.54574 79.8718567,122.54574 C78.5594849,123.328876 77.3046347,124.001183 76.102818,124.585559 C75.761169,122.503606 74.1096212,120.906191 71.9177551,120.769715 C69.215339,120.600264 66.7147065,122.716107 66.3333053,125.493264 C66.2255897,126.276401 66.3028958,127.026563 66.5240059,127.706197 C60.320283,128.620314 57.1269182,126.662931 57.1269182,126.662931 C57.1269182,126.662931 59.4332779,141.267739 79.8718567,131.244508" id="path20" fill="#C1C4C6"></path>
                            <path d="M111.337271,109.954188 C111.337271,109.954188 122.553984,106.519379 122.248057,86.7715178 C122.248057,86.7715178 129.909054,97.6181865 114.260981,117.50802 C114.260981,117.50802 115.36012,113.585926 111.337271,109.954188" id="path22" fill="#C1C4C6"></path>
                            <path d="M90.0284494,70.3942571 C90.0284494,70.3942571 97.6337576,76.8316386 101.421207,89.9508685 C105.209572,103.071747 111.446269,103.011295 114.022834,100.489687 C116.464754,98.0990597 121.18006,83.3596075 104.752514,72.7879067 C104.752514,72.7879067 107.693626,77.7211168 108.125038,83.7030884 C108.125038,83.7030884 103.149603,75.3897516 90.0284494,70.3942571" id="path24" fill="#C1C4C6"></path>
                            <path d="M71.7341989,34.6615273 C71.7341989,34.6615273 43.4052686,42.0685325 22.3974275,71.0411919 L21.5398244,69.6943804 C19.1902318,66.0059451 19.283567,61.2476814 21.8332028,57.6948066 C27.6967423,49.5235335 41.5486399,34.5605897 71.7341989,18.7193424 C71.7341989,18.7193424 82.4368805,26.9124151 87.8406135,33.9863813 C89.2356039,35.8117761 89.9880561,38.0447683 89.9880561,40.3428845 L89.9880561,46.4185578 C89.9880561,46.4185578 79.8253265,37.3091697 71.7341989,34.6615273" id="path26" fill="#C21B32"></path>
                            <path d="M52.0412943,119.267558 C51.6570536,156.809562 66.9247336,182.069605 66.9247336,182.069605 C66.9247336,182.069605 38.0158244,155.077503 52.0412943,119.267558" id="path28" fill="#FFFFFF"></path>
                            <path d="M97.8435099,150.461119 C97.2408155,156.495392 99.0269161,160.220557 99.0269161,160.220557 C102.133815,156.745446 104.385218,152.07319 104.385218,152.07319 C104.63802,163.193727 98.3088121,171.245835 98.3088121,171.245835 C97.0658692,167.106662 91.9365545,152.748244 91.9365545,152.748244 C77.3697587,157.121901 63.3628826,150.471195 63.3628826,150.471195 C63.3628826,150.471195 89.1239497,154.189032 110.492766,139.248071 C110.417659,139.362565 110.344383,139.469731 110.268359,139.58514 C104.871587,147.731591 97.8435099,150.461119 97.8435099,150.461119" id="path30" fill="#FFFFFF"></path>
                            <path d="M107.469219,91.7249703 C109.225093,97.4936174 111.54794,99.9767553 113.336788,101.03834 C110.465288,102.934355 104.907309,102.024817 101.421207,89.9508685 C97.6337576,76.8316386 90.0284494,70.3942571 90.0284494,70.3942571 C95.4373118,73.5617921 104.170886,80.8893845 107.469219,91.7249703" id="path32" fill="#FFFFFF"></path>
                            <path d="M52.0412943,119.267558 C52.0412943,119.267558 48.3063288,119.861093 44.7294561,123.329792 C43.8417183,115.619333 40.6527501,96.6701792 29.5676598,73.5084839 C29.9522669,73.03045 30.3387058,72.5724755 30.7240455,72.1080893 C47.7846042,95.415329 52.0412943,119.267558 52.0412943,119.267558" id="path34" fill="#FFFFFF"></path>
                            <path d="M72.7102343,117.640833 C72.7410101,117.642665 72.7696794,117.649992 72.8004552,117.65274 C75.3357106,120.782538 79.8718567,122.54574 79.8718567,122.54574 C78.5594849,123.328876 77.3046347,124.001183 76.102818,124.585559 C75.761169,122.503606 74.1096212,120.906191 71.9177551,120.769715 C69.215339,120.600264 66.7147065,122.716107 66.3333053,125.493264 C66.2255897,126.276401 66.3028958,127.026563 66.5240059,127.706197 C64.8388429,127.954419 63.3836746,127.986477 62.146777,127.907706 C62.15786,127.439656 62.1814915,126.825054 62.2244495,126.511799 C62.9418208,121.296385 67.6360597,117.323914 72.7102343,117.640833" id="path36" fill="#FFFFFF"></path>
                        </g>
                    </g>
                </g>
            </g>
        </g>
    </g>
</svg>