<?xml version="1.0" encoding="UTF-8"?>
<svg width="200px" height="200px" viewBox="0 0 200 200" version="1.1" xmlns="http://www.w3.org/2000/svg" xmlns:xlink="http://www.w3.org/1999/xlink">
    <!-- Generator: Sketch 51.3 (57544) - http://www.bohemiancoding.com/sketch -->
    <title>dyouville</title>
    <desc>Created with Sketch.</desc>
    <defs></defs>
    <g id="dyouville" stroke="none" stroke-width="1" fill="none" fill-rule="evenodd">
        <g id="dyouville_BGL" transform="translate(0.000000, 24.000000)">
            <g id="dyouville" transform="translate(0.000000, 0.120603)">
                <g id="g10">
                    <g transform="translate(100.183454, 76.164950) scale(-1, 1) rotate(-180.000000) translate(-100.183454, -76.164950) translate(0.000000, 0.229721)">
                        <g id="g12" transform="translate(0.000000, 1.148600)">
                            <path d="M129.268562,0.880394331 L0,0.126126656 L9.06666644,34.7307322 C12.9491901,49.5478013 16.2653262,64.5051272 19.5879711,79.4547958 C23.1888325,95.6508232 26.6536485,111.87531 30.2490221,128.072741 L35.032814,149.621756 L57.1059729,149.565602 C88.6341527,149.486476 120.163353,149.509448 151.686684,149.985479 C168.490703,150.240724 183.578204,142.2286 192.404558,127.860889 C198.835442,117.391016 201.63675,103.718973 198.469166,91.7200583 C193.442126,72.6793314 188.463583,53.6198439 182.675915,34.7914803 C179.713803,25.1565121 174.459595,16.9957083 166.351755,10.9077193 C155.608515,2.83810155 142.451939,0.394332287 129.268562,0.880394331" id="path14" fill="#FFFFFF"></path>
                            <path d="M129.355345,6.29187828 L7.02171156,5.57949097 L14.3017305,33.3598141 C18.1995688,48.2406943 21.5328064,63.2647667 24.8698726,78.2813094 C28.4707339,94.4768262 31.9354223,110.702845 35.530796,126.899893 L39.370949,144.199087 L57.0920621,144.155696 C88.6516369,144.075294 120.212616,144.098266 151.769638,144.575573 C166.67081,144.801464 179.963942,137.77586 187.79229,125.028951 C193.445955,115.824708 196.023924,103.658225 193.236655,93.1014414 C188.228758,74.1300133 183.270634,55.1403352 177.504662,36.381781 C174.879472,27.8435983 170.296558,20.6363878 163.103769,15.2328623 C153.347049,7.90859676 141.288024,5.83622862 129.355345,6.29187828" id="path16" fill="#12100E"></path>
                            <path d="M113.223894,79.7923566 L116.307248,92.1976207 L108.034264,92.1976207 L99.4840846,60.0282668 L107.746093,60.0282668 L113.223894,79.7923566 Z M129.525083,16.3406233 L20.0615772,15.7025122 L24.0214399,30.8123467 C27.9522048,45.8153614 31.313264,60.9630997 34.678407,76.1002454 C38.2801618,92.2978042 41.7454883,108.523823 45.3407343,124.722275 L47.4286341,134.130969 L57.0670481,134.106721 C88.6849463,134.027595 120.305397,134.049291 151.921509,134.52915 C163.28244,134.700164 173.253565,129.500834 179.230114,119.769511 C183.435267,112.924748 185.59974,103.539026 183.52205,95.6653721 C178.548612,76.8251397 173.627498,57.9629562 167.899812,39.3345767 C165.902524,32.8373287 162.557546,27.3909222 157.068513,23.2696173 C149.189116,17.3516467 139.11717,15.9478021 129.525083,16.3406233 Z" id="path18" fill="#C51C2B"></path>
                            <path d="M119.952394,78.0235124 L125.204432,99.153543 L98.6713862,99.153543 L101.899335,96.1973016 L90.4388587,53.0723445 L113.036928,53.0723445 L119.952394,78.0235124 Z M129.652705,23.299481 L29.089957,22.712291 L30.7499394,29.0484798 C34.6938493,44.0989699 38.0931952,59.4011312 41.4696967,74.5907296 C45.0700475,90.7882884 48.5363951,107.016732 52.131641,123.214801 L53.0081505,127.160625 L57.0496915,127.15016 C88.7058764,127.070396 120.373675,127.093751 152.026159,127.572335 C160.949505,127.708508 168.614497,123.762683 173.303338,116.128321 C176.492617,110.93767 178.382703,103.453264 176.795082,97.4411079 C171.854825,78.7230099 166.938817,59.882267 161.250694,41.3785744 C159.69115,36.3085259 157.199964,32.0671285 152.892714,28.8316496 C146.350798,23.918704 137.590808,22.9540076 129.652705,23.299481 Z" id="path20" fill="#12100E"></path>
                            <path d="M124.811993,76.7467796 L131.630849,104.178158 L85.7511664,104.178158 L96.2616232,94.5481671 L83.9040898,48.047219 L116.857555,48.047219 L124.811993,76.7467796 Z M129.748421,28.3246065 L35.6105598,27.7748099 C42.1118917,52.5838066 51.8499788,98.7616151 57.037695,122.125545 C88.0085485,122.047696 121.339392,122.083175 152.102732,122.549251 C168.827626,122.802964 173.886571,106.103467 171.93778,98.722818 C167.298712,81.1488534 161.592721,59.593075 156.448269,42.8551636 C154.481611,36.4580991 149.787665,27.4158085 129.748421,28.3246065 Z" id="path22" fill="#FFFFFF"></path>
                            <path d="M151.749219,120.67882 C162.361007,118.897596 171.262658,107.920042 168.896542,99.6350617 L152.78934,43.2604919 C151.168537,37.5873006 145.132006,30.7898852 129.40767,30.7898852 L46.5656525,30.7898852 L55.1408457,39.8505534 L127.231839,39.8505534 C137.703115,39.8505534 140.670332,47.4590081 142.818215,53.8790447 C145.652704,62.3474181 156.458479,96.7855125 155.912256,104.1936 C155.503865,109.727173 152.980773,115.824708 151.749219,120.67882" id="path24" fill="#9BA59D"></path>
                            <polyline id="path26" fill="#9BA59D" points="110.897724 109.474481 101.02691 105.448382 82.8407413 105.448382 94.272503 94.2769698 81.8591987 47.9490775 77.1251795 59.3338742 85.6156316 91.0195399 68.4240232 109.604017 110.897724 109.474481"></polyline>
                            <polyline id="path28" fill="#12100E" points="99.2960971 59.6843249 107.919021 92.5221641 116.373994 92.5221641 107.57559 59.6843249 99.2960971 59.6843249"></polyline>
                        </g>
                    </g>
                </g>
            </g>
        </g>
    </g>
</svg>