<?xml version="1.0" encoding="UTF-8"?>
<svg width="200px" height="200px" viewBox="0 0 200 200" version="1.1" xmlns="http://www.w3.org/2000/svg" xmlns:xlink="http://www.w3.org/1999/xlink">
    <!-- Generator: Sketch 51.3 (57544) - http://www.bohemiancoding.com/sketch -->
    <title>eastern-nm</title>
    <desc>Created with Sketch.</desc>
    <defs></defs>
    <g id="eastern-nm" stroke="none" stroke-width="1" fill="none" fill-rule="evenodd">
        <g id="eastern-nm_BGL" transform="translate(0.000000, 51.741294)">
            <g id="eastern-nm">
                <g id="g10" transform="translate(99.950906, 49.390280) scale(-1, 1) rotate(-180.000000) translate(-99.950906, -49.390280) translate(0.000000, 0.102112)" fill-rule="nonzero">
                    <g id="g12">
                        <path d="M154.722824,9.97623932 L176.25056,4.82709855 C176.525474,4.75086881 176.83652,4.71281284 177.174271,4.71281284 C179.106525,4.71281284 181.408734,5.95114369 182.132151,6.42827672 L182.601468,6.73739797 L183.16622,6.78216969 C185.419338,6.94908181 189.477855,10.3553066 190.438876,11.8927832 L190.716932,12.3376727 L191.167791,12.6052427 C193.85488,14.200412 195.414035,19.1599013 195.017374,20.3758463 C194.071669,21.0732641 191.895135,21.9856254 190.720859,22.4054977 L190.456942,22.4994005 L146.350905,52.7442304 L146.155323,53.5469795 C146.125868,53.667549 143.043295,65.8537048 135.242412,67.8539011 L134.437306,68.0600867 L133.9782,68.7528702 C126.5728,79.9265567 114.919585,85.5917504 99.3425601,85.5917504 C97.4158051,85.5917504 95.4022558,85.5037779 93.3576805,85.3301893 L92.2407439,85.2351476 L91.5200763,86.093665 C87.4917995,90.8932722 84.110749,93.6722608 78.7495317,93.6722608 C76.3090801,93.6722608 73.572114,93.1020104 70.3823252,91.9281273 C62.3870382,88.9865466 54.6281773,86.3461932 47.5978388,86.3461932 C46.4856149,86.3461932 45.4107009,86.4102089 44.3683838,86.5398113 C46.8104063,84.4453587 50.0045152,82.2645046 53.2591052,80.7257712 L58.2578287,78.363081 L52.9810492,76.7116328 C45.5811476,74.3956781 33.3834847,69.0729487 22.8157088,62.4019621 C11.1418358,55.0334792 4.71281284,48.0714765 4.71281284,42.7994098 C4.71281284,39.2258802 12.3650071,36.9170339 24.2077952,36.9170339 C27.9791058,36.9170339 31.5910449,35.0555514 33.8696506,31.9371224 C35.8344223,29.2484234 36.6338332,25.8816685 36.1906324,22.4012169 L55.5931258,22.4012169 C58.1757472,23.6776037 70.4035328,29.5434455 76.9673029,29.5434455 L77.7940089,29.5305638 L78.3171311,29.1869212 C85.7044652,24.3303676 103.486694,22.6718109 115.253409,21.5740004 C118.736178,21.2492484 121.743345,20.9689538 124.062834,20.656298 L124.472849,20.6009224 L124.833379,20.3978002 C127.617081,18.8320859 135.566418,17.5921841 138.394498,17.2465779 L138.721646,17.206519 L154.722824,9.97623932 Z M34.010171,95.1512986 L39.0716927,92.5867429 C41.6223848,91.294254 44.4115846,90.6662717 47.5978388,90.6662717 C53.9177208,90.6662717 61.2759926,93.1809501 68.8907199,95.9823246 C72.5663212,97.3349018 75.7910634,97.9923392 78.7495317,97.9923392 C86.0249365,97.9923392 90.5229236,93.8678425 94.1058396,89.7213527 C95.8896392,89.8478132 97.6463402,89.9118289 99.3425601,89.9118289 C116.153556,89.9118289 128.863227,83.8201255 137.133035,71.8008819 C145.571327,69.047421 149.229255,58.4667634 150.128224,55.391653 L192.443392,26.3751785 C193.361998,26.0342851 196.122528,24.9574859 197.664796,23.7898865 C198.500928,23.1949724 199.451738,21.9915949 199.375155,19.6100142 C199.26676,16.236033 197.025032,11.3708785 193.805003,9.16634243 C192.122921,6.86578284 187.733329,3.15445451 184.067153,2.54418452 C182.960427,1.88358955 180.136667,0.392734404 177.174271,0.392734404 C176.462637,0.392734404 175.778886,0.479564053 175.140693,0.652001947 L153.318406,5.87016186 L137.539908,12.99998 C135.530679,13.2583207 127.065289,14.4357385 123.107312,16.424899 C120.923316,16.7065681 118.096806,16.970407 114.852427,17.2728125 C102.222874,18.4507016 85.0321039,20.0541576 76.5227276,25.212017 C71.2251332,24.9469213 60.7638669,20.1822675 57.07884,18.3143049 L56.6185553,18.0811385 L30.5496703,18.0811385 L31.4474219,20.8974762 C32.4542751,24.0545109 32.0757969,27.0704362 30.3815407,29.3883547 C28.9135388,31.3975839 26.6054387,32.5969555 24.2077952,32.5969555 C13.3436226,32.5969555 0.392734404,34.3670095 0.392734404,42.7994098 C0.392734404,49.8050061 7.16111911,57.6294536 20.5097688,66.0555703 C29.4198127,71.6795269 39.4788404,76.3825214 47.0429051,79.2227766 C38.3300923,84.0392713 34.9347856,90.7212545 34.010171,95.1512986 Z" id="path14" fill="#1E6633"></path>
                        <path d="M153.446044,6.24325954 L175.231807,1.03399506 C175.846829,0.868312202 176.497197,0.785468807 177.174271,0.785468807 C180.04516,0.785468807 182.810403,2.25116538 183.86568,2.88153552 L183.929696,2.9191202 L184.002745,2.93169948 C187.489833,3.51190566 191.824836,7.12337734 193.487673,9.39817355 L193.527732,9.45233162 L193.583108,9.49034831 C196.78782,11.6843198 198.881095,16.4578886 198.982813,19.6228959 C199.053898,21.8431021 198.181635,22.9404413 197.43701,23.4701614 C195.913986,24.6224442 193.125572,25.7032492 192.307114,26.0073042 L192.221497,26.0516439 L149.790865,55.1469795 L149.751199,55.2816874 C148.842412,58.3905729 145.237503,68.7430518 137.011288,71.4273914 L136.884827,71.4686286 L136.809422,71.5782015 C128.618553,83.4831594 116.012565,89.5190945 99.3425601,89.5190945 C97.6596932,89.5190945 95.9073123,89.4554715 94.1337237,89.3294038 L93.9373565,89.3156581 L93.8085396,89.4645044 C90.1576806,93.6895411 85.8065762,97.5996048 78.7495317,97.5996048 C75.8385843,97.5996048 72.6582211,96.9500221 69.0262133,95.6139397 C61.3765326,92.7996049 53.9817365,90.2735373 47.5978388,90.2735373 C44.3483543,90.2735373 41.5010299,90.915658 38.894216,92.2364238 L34.5874905,94.4184562 C35.4620708,91.1124179 38.2796259,84.5160509 47.2329885,79.5664192 L47.9783984,79.1544408 L47.1811476,78.8551772 C38.4375052,75.5723103 28.5453503,70.6631303 20.7193318,65.723317 C7.49219422,57.3737835 0.785468807,49.6612653 0.785468807,42.7994098 C0.785468807,34.6913295 13.522631,32.9896899 24.2077952,32.9896899 C26.7306424,32.9896899 29.1569949,31.7301907 30.6986345,29.6199894 C32.4686884,27.1980749 32.8675888,24.0580455 31.8216192,20.7779671 L31.0870881,18.4738729 L56.5246918,18.4738729 L56.9013241,18.6647025 C60.528619,20.503485 71.1210586,25.3353749 76.5030909,25.6042802 L76.6236603,25.610289 L76.7265567,25.5481584 C85.1593499,20.4367594 102.342265,18.8339318 114.888951,17.6640153 C118.146291,17.3600781 120.959447,17.0977708 123.157582,16.81457 L123.223954,16.8059691 L123.284042,16.7760428 C127.222775,14.7962687 135.891995,13.6074616 137.589785,13.389926 L137.702108,13.358036 L153.446044,6.24325954 Z M177.174271,0 C176.428076,0 175.709372,0.0914336747 175.038189,0.272613052 L153.190767,5.49706417 L153.156599,5.51238081 L137.431906,12.6181244 C134.957287,12.9378495 126.933723,14.0916639 122.991455,16.0436717 C120.816099,16.3221204 118.033183,16.5816785 114.815903,16.8817669 C102.244475,18.0544325 85.0462424,19.6578886 76.4237585,24.8129989 C71.1414808,24.4862046 60.8157079,19.7683647 57.256356,17.9640644 L56.7120261,17.6884041 L30.0122918,17.6884041 L31.0734209,21.0163569 C32.0410007,24.0514476 31.6827876,26.9420514 30.0646041,29.1565236 C28.6702398,31.0645059 26.4809026,32.2042211 24.2077952,32.2042211 C13.1642608,32.2042211 0,34.0422574 0,42.7994098 C0,49.9483542 6.82988692,57.884731 20.300245,66.3874308 C27.9361407,71.2074602 37.5285214,75.9984272 46.1231211,79.2938615 C36.6806078,84.8066744 34.2401562,92.1272436 33.6257233,95.0711807 L33.4589682,95.8711807 L39.2493657,92.937062 C41.7437398,91.6732427 44.4744221,91.0590061 47.5978388,91.0590061 C53.8525269,91.0590061 61.1746671,93.5622952 68.7552266,96.3511022 C72.4752068,97.7197816 75.744328,98.3850736 78.7495317,98.3850736 C86.0539988,98.3850736 90.6988686,94.2358347 94.2739299,90.1266546 C95.9992121,90.2448677 97.7032867,90.3045633 99.3425601,90.3045633 C116.235638,90.3045633 129.033281,84.1904741 137.381636,72.131957 C145.766908,69.3042693 149.471965,58.9761399 150.465583,55.6367193 L192.625621,26.7267936 C193.735881,26.3127338 196.367595,25.2646435 197.902008,24.1028565 C198.793515,23.4689439 199.850363,22.1655763 199.767496,19.5974467 C199.660672,16.2596756 197.458611,11.230201 194.082273,8.88054961 C192.283157,6.45466847 187.902597,2.82293169 184.205395,2.16939808 C183.049185,1.48732839 180.183795,0 177.174271,0 Z" id="path16" fill="#FFFFFF"></path>
                        <path d="M38.0953942,90.6599879 C39.3900825,87.3645535 45.8631309,81.8332822 52.3361793,78.7730957 C36.9185656,73.9479608 2.55277362,56.8047114 2.55277362,42.7994098 C2.55277362,35.9732539 15.7340791,34.7569947 24.2077952,34.7569947 C30.5633375,34.7569947 36.0947659,28.3620219 33.5056251,20.2411777 L56.1021095,20.2411777 C56.1021095,20.2411777 70.4219914,27.4996949 77.1306804,27.3818746 C87.1430513,20.7995675 113.299948,19.9277364 123.774567,18.5154242 C127.540105,16.3971326 138.132544,15.1026408 138.132544,15.1026408 L154.020615,7.92341659 L175.67599,2.74484431 C179.088852,1.803511 183.32567,4.62798221 183.32567,4.62798221 C186.503677,4.86362285 191.093564,8.86476168 192.270589,10.748041 C196.036519,12.9838779 198.625425,20.5160918 196.389588,22.0462243 C194.859887,23.2231707 191.446632,24.4394299 191.446632,24.4394299 L148.254095,54.057927 C148.254095,54.057927 144.958661,67.59234 135.778887,69.94639 C129.070591,80.0675483 116.665289,89.4782501 93.1746663,87.4823739 C87.643395,94.0732426 82.1117309,98.5453093 69.6365226,93.9554223 C57.1613142,89.3655353 46.9223356,86.1875285 38.0953942,90.6599879" id="path18" fill="#231F20"></path>
                        <path d="M153.550119,15.7687576 L138.368185,26.4003528 L134.837503,25.576828 L142.605004,21.5752179 L133.189589,24.5179768 C133.189589,24.5179768 132.718701,22.0462243 134.366221,21.2222282 L140.015706,20.5160918 L153.550119,15.7687576" id="path20" fill="#FFFFFF"></path>
                        <path d="M189.092582,21.4578689 C189.092582,21.4578689 186.974173,19.6920957 185.680113,20.7517324 C178.291994,29.8364646 153.459397,40.6150211 146.093664,44.3232193 C154.609324,39.346489 173.322332,30.0492481 185.67972,18.9863913 C186.503677,18.3980751 188.504266,20.163377 189.092582,21.4578689" id="path22" fill="#231F20"></path>
                        <path d="M189.210403,23.7548939 L146.488754,53.4130571 C143.664208,70.4781524 126.246045,72.0086384 118.360331,71.5377498 C121.30309,72.2434935 128.83495,72.2434935 132.718701,71.0668613 C122.008833,86.0135472 104.120174,87.0727519 94.8221871,85.8957269 L100.82474,77.3042691 C91.1740772,87.661068 83.7592517,97.7826191 72.1080002,93.42798 C61.2210098,89.3592516 49.6168863,86.1136945 44.8765821,86.8571407 C44.7135973,86.8826684 44.5584672,86.9133017 44.4115846,86.9478623 C44.4080499,86.9486478 44.4041226,86.9490405 44.4009807,86.9502187 C44.2517417,86.9859576 44.1111427,87.0264092 43.9799694,87.0727519 C50.4530179,80.1292076 59.6327918,77.8929779 76.3452116,80.9527717 C81.1703465,81.8945488 87.8786429,77.3042691 88.7025996,73.6561592 L84.8188491,73.6561592 C82.1737829,79.937946 76.3703466,79.5322513 69.9770233,78.5763358 C70.6250351,76.4249367 73.9664194,72.5906707 78.463621,71.7729977 C76.9335278,71.7729977 76.9335278,69.7720159 76.9335278,69.7720159 C76.9335278,69.7720159 69.2524283,73.9247895 69.0006856,78.4274894 C66.1906709,77.9931252 63.2942547,77.5155602 60.5223353,77.5006363 C60.5219425,77.5006363 60.5215498,77.5006363 60.5207643,77.5006363 C60.244672,77.4990653 59.969758,77.5022072 59.6960221,77.5104546 C59.6948439,77.5104546 59.6932729,77.5104546 59.6920947,77.5104546 C59.4191443,77.518702 59.1473721,77.532055 58.8775636,77.5509063 C58.8759926,77.5509063 58.874029,77.551299 58.8720653,77.551299 C58.6026495,77.5701502 58.3348046,77.5944998 58.0685307,77.6251331 C58.0669598,77.6255258 58.0649961,77.6255258 58.0630324,77.6259185 C57.7971512,77.6565518 57.532841,77.6930761 57.2704944,77.7362769 C57.2689235,77.7366696 57.2673525,77.7366696 57.2661743,77.7370624 C57.003435,77.7802632 56.7426594,77.8305332 56.4846329,77.8874796 C56.4838474,77.8874796 56.4830619,77.8878724 56.4822764,77.8882651 C56.2234645,77.9456043 55.9666162,78.00962 55.712517,78.0818832 C55.5279318,78.1345096 55.3425612,78.1851723 55.1607252,78.2460462 C47.7458996,75.6567482 23.9724294,66.359154 10.2026507,52.4716727 C-0.695721141,41.480215 7.94226784,38.5990368 15.0533919,37.8749524 C15.0546093,37.8749524 15.056141,37.8744811 15.0576727,37.8744811 C15.4674517,37.8328906 15.8713791,37.7983692 16.2668626,37.7696996 C16.2771523,37.7689141 16.2877561,37.7681679 16.2980065,37.7672254 C16.6835538,37.7402445 17.0595577,37.7181336 17.4238975,37.7009711 C17.4441625,37.7001856 17.4644276,37.6989681 17.4844964,37.6982219 C17.8364257,37.6820806 18.1759446,37.6702985 18.5002646,37.6616976 C18.5304659,37.6609122 18.5603923,37.660166 18.5901615,37.6592234 C18.9029352,37.6518793 19.2008635,37.6471272 19.4808439,37.6448101 C19.5139907,37.644378 19.546352,37.6440639 19.5787133,37.6440639 C19.7135783,37.6431213 19.8454978,37.6423751 19.9710157,37.6423751 C22.4281978,37.6423751 24.5504952,37.4628562 26.3807161,37.1232195 C34.0230919,43.165831 60.1551286,49.4240537 64.8113877,49.7649472 C56.7524777,46.4977897 39.5263613,36.1779078 35.4123899,31.2047513 C36.322709,29.2378589 36.6019431,26.8846729 36.4477556,24.2259002 L44.3542453,24.2259002 C47.7851731,27.3264991 57.6852219,30.136553 59.0444757,30.3458019 C55.8240536,28.6897195 53.1856639,25.9589586 51.9037788,24.2259002 L56.6904257,24.2259002 C57.985271,25.6380553 71.0107002,30.621148 74.6588101,30.3855073 C74.1883143,31.9152078 74.3442299,41.1734894 76.4626392,43.9980352 C76.8157075,30.6989487 73.9911616,23.9905345 129.305839,21.0482469 L129.305839,20.3421104 L126.128225,19.9889637 C127.30525,19.1654389 136.485024,17.7528125 139.074322,16.9288557 C141.663227,16.1051739 152.726162,10.808797 152.726162,10.808797 L158.493074,10.2204416 L156.727733,9.51446221 C156.727733,9.51446221 174.616785,5.39534596 177.559151,5.15970532 C180.501517,4.92453596 182.149038,6.57201751 182.149038,6.57201751 L158.140399,12.8098966 C149.548941,16.8110354 137.07334,19.5181144 134.366614,20.2242901 C131.659889,20.9307408 131.189,23.8727142 131.659889,25.520235 C132.130385,27.1681878 138.368185,28.3451343 138.368185,28.3451343 L158.963963,14.1047026 L185.326652,7.98464388 C190.740496,10.3382619 191.328812,12.8098966 188.622087,17.2823167 L191.211385,14.9286594 C192.38841,15.9875106 191.799701,17.9884532 191.093564,18.9297983 L193.91811,17.5174861 C194.030825,17.6055371 194.136863,17.6931562 194.236618,17.7795185 C194.31595,17.848247 194.38782,17.91619 194.459298,17.9837011 C194.476578,18.0001174 194.495822,18.0166908 194.51271,18.0332642 C194.68512,18.2004905 194.833181,18.3650855 194.960427,18.5272455 C196.877756,20.9700142 193.778689,22.820618 189.210403,23.7548939" id="path24" fill="#918F90"></path>
                        <path d="M117.772015,57.0509559 C121.067449,60.5820309 130.129403,60.6994585 133.895726,59.2871856 C136.249383,57.639272 142.840252,47.2828658 142.840252,47.2828658 C138.014724,47.0472251 124.009815,57.2865965 124.009815,57.2865965 C122.71497,57.7570923 117.772015,57.0509559 117.772015,57.0509559" id="path26" fill="#231F20"></path>
                        <path d="M139.346094,50.8559634 C139.107311,50.4832584 138.813939,50.1494342 138.472652,49.8702 C139.112417,49.6227774 139.747861,49.4213046 140.368774,49.2834548 C140.024346,49.8387813 139.683453,50.361118 139.346094,50.8559634" id="path28" fill="#FFFFFF"></path>
                        <path d="M127.42307,57.992733 C128.008244,57.140892 129.629845,55.5196844 131.718799,53.8898366 C131.958367,55.1524778 132.763865,56.2140388 133.863129,56.7996058 C131.064896,58.7652415 128.812957,58.6874801 127.42307,57.992733" id="path30" fill="#FFFFFF"></path>
                        <path d="M134.832004,55.8291591 C134.399997,55.8291591 134.05007,55.47884 134.05007,55.0468322 C134.05007,54.6148244 134.399997,54.2645053 134.832004,54.2645053 C135.264012,54.2645053 135.614331,54.6148244 135.614331,55.0468322 C135.614331,55.47884 135.264012,55.8291591 134.832004,55.8291591" id="path32" fill="#FFFFFF"></path>
                        <path d="M189.092582,21.4578689 C189.092582,21.4578689 186.974173,19.6920957 185.680113,20.7517324 C178.291994,29.8364646 153.459397,40.6150211 146.093664,44.3232193 C154.609324,39.346489 173.322332,30.0492481 185.67972,18.9863913 C186.503677,18.3980751 188.504266,20.163377 189.092582,21.4578689" id="path34" fill="#231F20"></path>
                        <path d="M130.186349,28.3703086 C132.542363,30.6552373 138.432201,31.2110351 143.144228,28.2469507 C137.175843,33.1872746 129.636521,31.4580257 130.186349,28.3703086" id="path36" fill="#231F20"></path>
                        <path d="M92.0019614,52.8243482 C96.5113378,53.3961695 111.387724,50.7605289 116.87658,42.7114373 C116.338141,47.9029934 104.440645,54.0559633 103.27501,54.2542942 C103.27501,54.2542942 105.54148,52.3534597 105.762982,51.8079516 C101.891406,54.3831111 93.8179653,53.4495814 92.0019614,52.8243482" id="path38" fill="#231F20"></path>
                        <polyline id="path40" fill="#1E6633" points="25.3829351 21.3902007 25.3829351 20.737162 25.061207 20.737162 25.0323803 21.0757383 24.4136665 21.0757383 24.4136665 18.7495332 24.725694 18.6929401 24.725694 18.4368773 23.7239071 18.4368773 23.7239071 18.6929401 24.036131 18.7495332 24.036131 21.0757383 23.4157284 21.0757383 23.3887083 20.737162 23.0651737 20.737162 23.0651737 21.3902007 25.3829351 21.3902007"></polyline>
                        <polyline id="path42" fill="#1E6633" points="28.3155221 20.8018846 28.3060179 20.8038876 27.4038285 18.4368773 27.1528319 18.4368773 26.2506032 20.8018846 26.241099 20.8000388 26.2793121 19.6052622 26.2793121 18.7495332 26.5916537 18.6929401 26.5916537 18.4368773 25.5897097 18.4368773 25.5897097 18.6929401 25.9020514 18.7495332 25.9020514 21.0757383 25.5897097 21.1321742 25.5897097 21.3902007 25.9020514 21.3902007 26.3846827 21.3902007 27.2735585 18.9907114 27.2850656 18.9907114 28.1719384 21.3902007 28.9687573 21.3902007 28.9687573 21.1321742 28.6565727 21.0757383 28.6565727 18.7495332 28.9687573 18.6929401 28.9687573 18.4368773 27.9669703 18.4368773 27.9669703 18.6929401 28.2791942 18.7495332 28.2791942 19.6052622 28.3155221 20.8018846"></polyline>
                    </g>
                </g>
            </g>
        </g>
    </g>
</svg>