<?xml version="1.0" encoding="UTF-8"?>
<svg width="200px" height="200px" viewBox="0 0 200 200" version="1.1" xmlns="http://www.w3.org/2000/svg" xmlns:xlink="http://www.w3.org/1999/xlink">
    <!-- Generator: Sketch 51.3 (57544) - http://www.bohemiancoding.com/sketch -->
    <title>east-central</title>
    <desc>Created with Sketch.</desc>
    <defs></defs>
    <g id="east-central" stroke="none" stroke-width="1" fill="none" fill-rule="evenodd">
        <g id="east-central_BGL" transform="translate(0.000000, 25.000000)">
            <g id="east-central">
                <g id="g10" transform="translate(99.999998, 74.870179) scale(-1, 1) rotate(-180.000000) translate(-99.999998, -74.870179) translate(0.000000, 0.484216)" fill-rule="nonzero">
                    <g id="g12">
                        <path d="M29.3983151,127.123506 C20.2072276,120.309471 12.9840699,112.363506 7.92954366,103.503857 C2.66803502,94.2821029 0,84.4785944 0,74.3649104 C0,64.2510861 2.66803502,54.4476478 7.92954366,45.2258936 C12.9840699,36.367578 20.2072276,28.4210519 29.3983151,21.6077188 C48.1935427,7.67382437 73.1543841,0 99.6806993,0 C126.20912,0 151.169821,7.67382437 169.964908,21.6077188 C179.155083,28.4210519 186.378943,36.367578 191.433679,45.2258936 C196.695434,54.4476478 199.362802,64.2510861 199.362802,74.3649104 C199.362802,84.4785944 196.695434,94.2821029 191.433679,103.503857 C186.378943,112.363506 179.155083,120.309471 169.964908,127.123506 C151.169821,141.056137 126.20912,148.729119 99.6806993,148.729119 C73.1543841,148.729119 48.1935427,141.056137 29.3983151,127.123506" id="path14" fill="#1A1615"></path>
                        <path d="M1.81414732,74.3649104 C1.81414732,34.2960693 45.6307357,1.81331925 99.6806993,1.81331925 C153.732628,1.81331925 197.549469,34.2960693 197.549469,74.3649104 C197.549469,114.433681 153.732628,146.915786 99.6806993,146.915786 C45.6307357,146.915786 1.81414732,114.433681 1.81414732,74.3649104" id="path16" fill="#FFFFFF"></path>
                        <path d="M14.7828768,74.3649104 C14.7828768,41.3207007 52.7936127,14.5339645 99.6806993,14.5339645 C146.569821,14.5339645 184.579645,41.3207007 184.579645,74.3649104 C184.579645,107.40912 146.569821,134.19719 99.6806993,134.19719 C52.7936127,134.19719 14.7828768,107.40912 14.7828768,74.3649104" id="path18" fill="#F0421E"></path>
                        <path d="M46.7069462,32.9325606 L31.5704554,38.7502446 C34.909543,35.5956482 38.681192,32.6828062 42.8209814,30.0517887 L62.1872265,31.7529817 C62.1872265,31.7529817 63.62063,31.8349466 64.1691212,32.4673676 C62.2296827,32.7642799 46.7069462,32.9325606 46.7069462,32.9325606 Z M31.2683501,62.8371914 C29.0753677,63.7242089 22.1576135,70.3038579 22.1576135,70.3038579 L16.3371926,76.377542 L14.9575435,78.4912261 C14.8338944,77.1684191 14.7639996,75.8357876 14.7639996,74.4912262 C14.7639996,72.6399982 14.8901049,70.8105245 15.1236487,69.0027351 C15.168561,68.7936123 15.2094031,68.5424544 15.24014,68.2365597 C15.2477891,68.1620334 15.2552277,68.0835772 15.2628768,68.0035772 C15.6016838,65.7886299 16.1129119,63.6098931 16.7856136,61.4728406 C17.1941048,61.8379634 17.5778241,62.6211914 17.5181048,64.4407703 C17.4339645,67.0148053 17.3075785,69.7138228 18.1088417,69.8826649 C18.3700346,69.9369807 27.0082099,63.5964896 28.2319291,62.8799283 C29.4555782,62.1633669 33.0397185,60.2645599 33.4621746,60.0540336 C33.6312974,61.6576125 31.8802097,62.5901739 31.2683501,62.8371914 Z M27.2192976,87.2182434 C29.2450519,83.0006997 33.1672272,75.4919279 33.1672272,75.4919279 C33.1672272,75.4919279 33.334736,77.3045595 32.9138939,78.8666647 C32.4926308,80.4273664 27.3037186,92.8694714 26.7557888,96.79298 C26.3700344,99.5571905 26.1091222,102.652629 25.989052,104.242804 C23.975859,101.773331 22.2072275,99.1915765 20.7033679,96.5164888 C24.1162099,93.6687696 26.3659643,88.996489 27.2192976,87.2182434 Z" id="path20" fill="#1A1615"></path>
                        <path d="M79.7333313,73.6084192 C80.448419,73.3873666 84.3136821,69.5032965 84.5494716,69.2919281 C84.7845593,69.0805597 85.3003487,68.6658228 85.3003487,68.6658228 C85.3003487,68.6658228 84.6975417,64.3179633 84.8308751,64.0372616 C86.8484189,64.0562089 89.3691206,65.5073668 90.0231556,65.6630861 C90.6771907,65.8204194 91.7894714,65.833051 92.056138,65.9752966 C91.7543837,64.7733317 90.4982434,64.6239282 89.959296,64.2352265 C89.4203486,63.846244 89.7199978,63.8155072 84.5494716,60.4407704 C84.3964891,60.3467353 84.1606997,59.3580336 83.4561383,58.6562792 C82.6617523,59.8385248 81.448419,63.2821037 80.8589453,65.5383843 C80.2687699,67.7936123 79.759998,72.6989456 79.7333313,73.6084192" id="path22" fill="#1A1615"></path>
                        <path d="M94.4014011,60.7529809 L94.8392959,64.0372616 L106.663155,58.4701038 L105.161401,64.7256124 L105.192278,65.5383843 C105.192278,65.5383843 107.192278,63.627437 107.444208,63.3179633 C107.696138,63.0084897 108.585962,58.2519284 110.039997,52.8091917 C111.494032,47.365683 113.292629,46.1151567 113.292629,46.1151567 L113.605611,45.3958585 C113.605611,45.3958585 115.622453,42.3670165 115.607797,41.4870867 C114.245611,42.4309463 109.539646,46.2096831 109.539646,46.2096831 L107.100348,56.9999986 C107.100348,56.9999986 103.836489,58.192981 97.435787,59.7845599 C96.4350853,60.0323494 94.4014011,60.7529809 94.4014011,60.7529809" id="path24" fill="#1A1615"></path>
                        <path d="M85.6821031,75.4512262 C86.9677171,78.6210507 91.1550854,82.8687699 91.8371907,84.1157874 C92.2154363,84.8098224 95.1305239,97.7066642 95.3712257,98.7221028 C95.6119274,99.7382431 96.5684186,102.220348 96.5684186,102.220348 L97.1066642,102.160699 C97.1066642,102.160699 97.4975414,100.535436 97.4975414,99.5978922 C97.4975414,98.6610502 97.467366,90.9663135 97.467366,90.9663135 L92.7438573,80.394384 C92.7438573,80.394384 97.5515765,80.9564892 98.7796467,80.9564892 C100.008419,80.9564892 101.269471,80.6792962 101.625962,80.488419 C101.235085,79.6084191 99.9192957,78.7368401 98.4989449,78.7368401 C97.0764888,78.7368401 94.9221029,78.3557875 92.9936819,77.1733314 C91.0652609,75.9894718 88.433682,75.2961385 86.8954364,75.2961385 C86.6385943,75.2961385 85.5017522,75.2414016 85.6821031,75.4512262" id="path26" fill="#1A1615"></path>
                        <path d="M110.758594,91.9978924 C112.091927,90.3157872 113.948769,86.1487698 113.948769,86.1487698 L112.134734,86.5557873 L109.44491,80.1122787 L114.261752,68.9783141 C114.261752,68.9783141 115.995085,64.2091212 116.108067,63.4736826 C118.761401,61.453402 122.115786,58.3895424 122.487716,57.4682091 C124.26526,59.5389459 128.219646,66.3985948 128.336137,66.6324194 C128.452628,66.8668053 127.712278,70.4652614 127.898242,70.4168403 C129.258944,70.0674368 131.41333,67.0463141 131.383155,66.5677176 C131.352979,66.0891212 129.680699,65.9550159 129.305962,65.6630861 C128.931225,65.3711563 126.874383,62.2891914 125.270172,59.3143845 C123.666664,56.3382442 121.313681,49.8700338 120.830172,48.9621742 C121.274383,54.6036478 121.832979,56.1762793 121.988067,56.4364196 C118.551576,59.807016 115.50526,61.8105949 114.291927,63.1866651 C113.079295,64.5628054 110.447015,71.6989456 110.447015,71.6989456 L110.352278,74.2329806 L108.788769,74.9838578 L107.256138,75.5466648 L109.914383,85.1164891 C109.914383,85.1164891 110.773331,90.6589451 110.758594,91.9978924" id="path28" fill="#1A1615"></path>
                        <path d="M116.983155,100.255436 C121.004909,99.5277168 125.064558,98.2421028 125.084207,98.0028046 C125.103155,97.7635063 124.296137,96.3270151 122.988067,95.7508748 C122.230172,95.416138 120.678593,94.7108748 120.423155,94.2182433 C120.167716,93.7256117 118.824558,84.7733312 119.016839,83.3122786 C119.210523,81.8519278 124.648418,69.2352263 124.770523,68.2905948 C124.145962,68.9901035 123.394383,70.1669456 123.394383,70.1669456 C123.394383,70.1669456 117.224558,81.2378927 117.170523,81.7389453 C117.11719,82.2399979 118.765611,92.8112257 118.765611,92.8112257 L118.79719,94.4687696 L120.423155,98.4722782 C120.423155,98.4722782 117.178243,99.4856115 116.983155,100.255436" id="path30" fill="#1A1615"></path>
                        <path d="M120.016839,86.6806996 C120.615436,86.9361382 124.751576,85.9789452 126.303155,86.3677171 C127.165611,88.0729803 129.086313,88.6828048 129.086313,88.6828048 L129.399295,91.2154363 C129.399295,91.2154363 131.688418,88.0947346 133.120698,84.8982435 C134.553681,81.7017523 135.560698,77.5164893 135.560698,77.5164893 C135.560698,77.5164893 132.851927,81.1403488 131.369821,81.6449102 C129.887716,82.1508751 126.114383,83.3031558 126.114383,83.3031558 C126.114383,83.3031558 125.470874,84.6028049 124.270172,84.9915768 C123.069471,85.3810505 121.244909,86.1578926 120.016839,86.6806996" id="path32" fill="#1A1615"></path>
                        <path d="M130.588067,85.9922786 C130.90526,85.8891207 131.592979,84.0350856 131.463155,83.1466646 C131.411927,82.7950856 131.068067,82.7635067 130.806313,82.771226 C130.545962,82.7782435 129.282804,82.894033 129.211927,83.2406997 C129.139646,83.5866646 129.046313,84.5614014 129.242102,84.8666645 C129.439997,85.1719277 130.270172,86.0961382 130.588067,85.9922786" id="path34" fill="#FFFFFF"></path>
                        <path d="M133.152277,75.9529806 C134.374733,75.8996472 136.0814,74.5838578 136.409119,74.3592964 C136.73754,74.134735 137.124207,74.1073666 137.124207,74.1073666 L137.124207,73.2315771 C137.124207,73.2315771 135.846312,73.8280683 135.18526,74.2954367 C134.523505,74.7628051 133.152277,75.3585946 133.152277,75.3585946 C133.152277,75.3585946 133.126312,75.617542 133.152277,75.9529806" id="path36" fill="#1A1615"></path>
                        <path d="M132.93333,74.6392964 C132.93333,74.6392964 134.250523,74.3115771 135.060348,74.0140332 C135.870172,73.7157876 136.696137,73.1943841 137.030874,72.8561385 C137.366312,72.5192964 138.15719,71.606314 138.15719,71.606314 C138.15719,71.606314 137.919997,71.4175421 137.688418,71.4175421 C136.677891,71.4175421 135.409119,72.5957877 134.966312,72.8561385 C134.523505,73.1171912 133.027365,73.9824543 133.027365,73.9824543 L132.93333,74.6392964" id="path38" fill="#1A1615"></path>
                        <path d="M131.838593,74.0456122 L132.338944,74.0764894 C132.338944,74.0764894 133.977541,72.3066649 135.37333,71.606314 C136.767716,70.9045596 138.032277,70.9487702 138.032277,70.9487702 C138.032277,70.9487702 137.896137,70.4708754 138.352979,70.1564895 C138.807716,69.8421035 139.407716,68.8925597 139.407716,68.4785948 C139.407716,68.0630158 138.945961,67.2722088 138.46947,67.0399983 C138.531926,68.9298228 137.503154,69.6869456 136.686312,70.0422439 C135.870172,70.3957877 134.590874,70.4477175 134.590874,70.4477175 C134.590874,70.4477175 134.195084,71.1733316 132.682804,72.5438578 C132.044207,73.1235069 131.838593,74.0456122 131.838593,74.0456122" id="path40" fill="#1A1615"></path>
                        <path d="M132.496137,62.5353669 C132.878593,62.4106651 133.771926,61.9936827 135.058944,60.7214722 C136.347365,59.4484897 137.09333,58.5943143 137.09333,58.5943143 C137.09333,58.5943143 136.34526,57.9270863 135.748067,57.6562793 C135.151576,57.38456 134.277891,57.0940337 134.277891,57.0940337 C134.277891,57.0940337 132.848418,60.3166301 132.496137,62.5353669" id="path42" fill="#1A1615"></path>
                        <path d="M129.774032,60.5016125 C129.774032,60.5016125 131.148769,59.5992266 132.088418,58.6567705 C133.028067,57.7135424 133.871576,56.5929109 133.871576,56.5929109 C133.871576,56.5929109 133.235084,55.990946 132.682804,55.3423846 C132.130523,54.6941039 131.181751,54.5910162 131.181751,54.5910162 C131.181751,54.5910162 130.506663,56.5677179 130.211927,57.8435073 C129.917891,59.1200687 129.774032,60.5016125 129.774032,60.5016125" id="path44" fill="#1A1615"></path>
                        <path d="M126.615435,57.4371915 C126.615435,57.4371915 127.305962,57.2749459 128.148067,56.6863845 C128.990874,56.098946 130.775435,53.9032267 130.775435,53.9032267 C130.775435,53.9032267 129.919295,52.426525 129.30526,51.8708759 C128.691225,51.3143847 128.282804,51.1537531 128.023155,50.994525 C126.83719,53.6765601 126.615435,57.4371915 126.615435,57.4371915" id="path46" fill="#1A1615"></path>
                        <path d="M118.296137,45.6463848 C118.581751,46.0498936 119.609822,46.271648 119.609822,46.271648 C119.609822,46.271648 120.855436,46.3774725 121.079997,46.6469462 C129.887014,44.2239287 134.684207,42.4870867 134.684207,42.4870867 C134.684207,42.4870867 126.119997,43.6562796 118.296137,45.6463848" id="path48" fill="#1A1615"></path>
                        <path d="M128.836488,49.7431567 C130.576137,49.6981742 136.5614,47.8983146 136.5614,47.8983146 L136.843505,47.209683 C136.843505,47.209683 132.515084,47.7346655 131.708067,48.0041392 C130.900348,48.2735427 129.468769,48.8596479 128.836488,49.7431567" id="path50" fill="#1A1615"></path>
                        <path d="M131.494032,51.2765601 C131.494032,51.2765601 132.331927,51.3179636 135.341751,50.8070163 C138.351575,50.2955075 140.659646,49.1809111 140.659646,49.1809111 L140.501751,48.2113672 C140.501751,48.2113672 136.867365,49.1507356 134.872277,49.6189461 C132.878593,50.0868759 131.494032,51.2765601 131.494032,51.2765601" id="path52" fill="#1A1615"></path>
                        <path d="M133.934032,52.7467355 C134.703155,52.6590162 136.73754,52.1803496 138.17333,51.881332 C139.608418,51.5811215 141.658944,51.0260338 141.658944,51.0260338 L141.783856,50.180911 L137.155786,51.2765601 C137.155786,51.2765601 135.031576,51.8218233 133.934032,52.7467355" id="path54" fill="#1A1615"></path>
                        <path d="M37.6872271,95.7831555 C38.567999,94.1978924 45.6121392,76.3235069 45.6121392,76.3235069 C45.6121392,76.3235069 56.7943845,64.0849809 57.4985951,62.763437 C53.9772618,64.9663142 40.9454727,77.2042086 40.9454727,77.2042086 C40.9454727,77.2042086 38.039999,89.1789451 37.6872271,95.7831555" id="path56" fill="#1A1615"></path>
                        <path d="M111.015436,119.028769 C111.015436,118.610523 111.015436,117.863155 111.015436,117.863155 C111.015436,117.863155 107.366313,109.816839 105.870875,107.992278 C104.375436,106.167717 101.174734,103.29684 101.174734,103.29684 L100.845612,103.236489 C100.845612,103.236489 101.144559,107.723506 103.119997,111.940348 C105.093331,116.157892 108.35298,119.178944 111.015436,119.028769" id="path58" fill="#1A1615"></path>
                        <path d="M99.4112256,131.299646 C75.1614016,131.299646 53.3703145,124.012628 38.3369113,112.426664 L38.337192,112.425962 C38.337192,112.425962 38.3317183,112.422453 38.3267359,112.418945 C38.0717885,112.221752 37.817964,112.024559 37.567157,111.82526 C37.1902447,111.516488 36.7555079,111.135436 36.4569815,110.796488 C35.8239991,110.079997 34.2724904,106.451225 35.1915781,105.650524 C41.0550867,100.546664 66.4465247,84.982454 71.1417526,82.5677172 C69.6527,84.5185944 61.4693318,90.8842083 59.8245599,92.4042082 C58.1795775,93.9249099 43.4167007,108.518594 43.4167007,108.518594 C43.4167007,108.518594 45.5307357,111.948769 46.7724901,112.828067 C48.0142444,113.706664 56.9558582,115.984559 57.0822442,115.77333 C57.2094021,115.562804 54.5520688,112.314383 54.5520688,112.314383 C54.5520688,112.314383 53.0339636,110.416839 52.7384548,109.531225 C53.7502443,109.194383 56.1543144,108.475787 56.5342442,108.307366 C63.3675774,100.715787 70.7908754,91.9417521 71.3396473,91.3094714 C71.8877175,90.6771907 74.1656122,88.9894715 74.1656122,88.9894715 L71.9305245,94.261752 C71.9305245,94.261752 63.1564896,110.965611 62.6924195,113.748769 C62.5534721,114.583155 63.9580335,116.870874 67.5435773,118.051225 C70.015086,118.864558 74.0814017,118.515085 74.0814017,118.515085 L71.2133316,116.026664 C71.2133316,116.026664 70.6231561,115.393681 70.6231561,114.887716 C70.6224544,114.382453 71.5087701,113.556488 72.1410508,113.074383 C74.7985946,111.049822 86.819647,91.0975416 87.4940329,90.0014013 C88.1698224,88.9059627 88.9291206,88.6098223 88.9291206,88.6098223 C88.9291206,88.6098223 87.8778925,92.5894714 87.3256119,94.3887696 C85.6814014,99.7459624 80.6617524,105.313682 80.197191,118.345962 C80.7880682,118.642804 88.5915767,117.926313 88.8028048,117.883506 C89.0133311,117.841401 87.1571908,117.207015 87.030875,117.039295 C86.9045592,116.870874 86.7775417,110.207015 89.2238574,102.44491 C90.3628048,104.639296 91.4175416,109.951576 92.007717,112.145962 C92.5985942,114.340348 96.0154362,121.047015 104.999296,121.215436 C109.975436,121.308067 112.001401,118.894734 112.001401,118.894734 L112.044208,117.586664 C112.044208,117.586664 108.899646,110.681401 108.20491,109.531225 C107.109471,107.718594 104.247717,104.742454 104.87298,104.84912 C107.109471,105.230173 109.807717,108.432278 111.242102,110.205611 C112.676488,111.978945 114.48912,114.717892 114.700348,114.845611 C114.912278,114.97333 115.121401,115.012629 115.58526,114.887716 C116.051927,114.762804 117.609822,114.042804 118.244208,113.580348 C118.87719,113.117892 119.044909,112.777541 118.834383,111.977541 C118.624558,111.177541 118.284909,109.487717 116.809822,107.844208 C115.334734,106.200699 111.452629,103.835085 110.736138,103.372629 C110.019646,102.910875 108.204208,100.92491 107.910173,100.504559 C109.006313,100.548068 112.46526,102.611927 113.435787,103.162103 C114.405611,103.711576 120.691225,107.084208 120.691225,107.084208 L121.322804,109.319997 C121.322804,109.319997 123.474383,106.956489 126.974734,102.106664 C130.476488,97.2575414 133.807014,92.9950854 133.175435,93.0806994 C132.543856,93.1663135 128.240699,96.0757871 128.240699,96.0757871 L128.02947,95.696138 C128.02947,95.696138 132.498944,91.64491 132.752979,91.0140328 C133.007716,90.3824539 133.175435,88.8610504 133.216839,88.5677171 C133.260348,88.273682 133.722804,87.6799978 133.891926,87.7242083 C134.061751,87.7677171 134.313681,89.9999978 134.483505,89.7487697 C134.651926,89.4968399 135.790874,84.222454 135.790874,84.222454 C135.790874,84.222454 145.661049,70.7684193 146.378242,69.3341737 C147.095435,67.9002088 148.824558,61.1915774 148.994382,60.601402 C149.162102,60.0126301 149.035084,58.4498231 148.950172,58.2414722 C148.866663,58.0296126 145.534733,57.9018933 145.534733,57.9018933 L141.442803,63.3437177 L140.557189,63.9339633 L144.691224,56.0891214 L145.322803,55.4983846 L144.437891,54.7809811 L137.983856,41.3256832 L124.656137,31.7936132 L119.425962,33.6913676 L122.799997,33.2694729 C122.799997,33.2694729 124.319295,33.3108764 124.487716,33.565543 C123.390874,34.746736 110.990173,38.4588762 110.441401,39.2154376 C111.031576,39.1754376 118.371927,38.7102446 119.214734,38.7529815 C120.058243,38.7957885 121.492629,38.9621745 121.618243,39.0477183 C121.028067,39.9769815 116.515085,40.7354376 116.515085,40.7354376 L107.150875,42.4224551 C107.150875,42.4224551 102.347366,38.7058938 96.9859625,38.2456131 C91.5866644,37.783157 87.4954364,41.7903147 83.8259628,48.7072269 C79.3249103,57.1908056 76.9080683,70.8512263 76.9080683,70.8512263 C76.9080683,70.8512263 81.8021032,82.6189453 81.7164892,83.4210505 C80.957191,83.211226 80.3249103,82.408419 79.9024541,81.9445594 C79.4806998,81.4821032 75.3894718,74.100349 73.1543841,71.6533315 C72.731928,69.5024544 75.8954367,55.4983846 75.7691209,54.3171916 C76.0645595,54.2757881 76.2098227,54.0372618 76.4856121,53.8111565 C77.8778928,52.672139 80.0294717,49.3823847 80.0294717,49.3823847 L75.5578928,45.628841 L74.2084192,44.0679989 L63.2414721,61.3612616 C63.2414721,61.3612616 62.4056827,73.1761385 62.2710862,74.774735 C61.9758581,78.2764893 60.6261037,81.8189453 60.6261037,81.8189453 C60.6261037,81.8189453 60.0778231,79.202805 59.7828757,75.0701736 C59.4873669,70.9368403 59.8245599,60.1781739 59.5296125,58.7886301 C60.4155774,57.2280687 64.9284194,48.4967005 64.9284194,48.4967005 L72.4785947,40.9879288 L71.2975421,38.9649113 C71.2975421,38.9649113 70.0230158,39.0940341 69.3996474,39.4282095 C66.4051211,41.0309463 54.382946,53.6414723 49.2798584,58.3670161 C44.1762796,63.0912967 38.5663148,67.3936124 32.4498238,69.7129807 C29.6803501,70.7628052 25.7431573,71.5270158 25.7431573,71.5270158 C25.7431573,71.5270158 26.2447713,70.843507 27.3037186,70.3038579 C35.9089816,65.9171913 41.5079288,61.2181739 43.5014024,59.4632968 C55.8602091,48.5811216 58.0526301,40.4394376 58.2214722,40.018385 C60.5844195,39.3859639 65.3264545,38.0660341 71.5087701,34.703929 C88.3389452,25.5515081 96.9852607,18.167789 97.3656116,17.5367013 C97.3782432,17.5150873 97.3950853,17.4849118 97.4147344,17.4476487 C98.078594,17.4364206 98.7431554,17.4295434 99.4112256,17.4295434 C144.768417,17.4295434 181.538241,42.9207709 181.538241,74.3649104 C181.538241,105.80912 144.768417,131.299646 99.4112256,131.299646" id="path60" fill="#1A1615"></path>
                        <path d="M17.050175,48.8645602 C16.7195785,48.6590163 16.6652627,48.626104 16.9682101,48.1389462 L17.412561,47.4259637 C18.0191574,46.4534023 18.7483504,46.8604901 18.8895434,46.6351567 C18.9391574,46.5550866 19.0320697,46.4394374 18.8311574,46.299648 L17.5103855,45.3662445 C17.4174732,45.2927708 17.1830873,45.0526305 17.0134031,45.3242796 C16.7880698,45.6863848 17.8012627,45.8771918 17.0679996,47.0540339 L16.5460347,47.8911567 C16.221754,48.4125602 16.1570522,48.3094725 15.7108066,48.0309462 L14.7258944,47.4169111 C14.2480698,47.1186655 13.9435084,46.9923497 14.4512277,46.1776129 C16.2001399,43.3719989 17.1094031,44.1587357 17.3774732,43.7269463 C17.4054031,43.6828059 17.4314382,43.5893322 17.2851224,43.4983849 C16.6853329,43.1242094 15.638175,43.3985954 15.0592277,44.3270164 C13.9882102,46.0463146 13.5953681,46.7439988 13.2428769,47.3103146 C13.0247014,47.6603497 12.6976137,48.11649 12.3094734,48.7390163 C12.2184558,48.8862444 12.2143857,48.9769812 12.26014,49.0071567 C12.6140348,49.2272268 12.7346663,48.1079988 13.6740347,48.6932619 L17.2760697,50.9388759 C17.9687715,51.3698233 16.9256838,52.4948057 17.2332627,52.6869461 C17.3023855,52.730525 17.4204908,52.6778934 17.5191575,52.5199987 C17.8084206,52.0553671 18.2851223,51.220911 19.3642802,49.4903847 C19.8648416,48.6869462 20.3821048,47.925683 21.0024556,46.9298234 C21.0948767,46.7831567 21.0668767,46.6562795 20.9972626,46.6126304 L20.2634381,46.0926304 C20.1708065,46.0189462 19.9519995,45.804841 19.7897539,46.0647006 C19.4583153,46.595648 20.9089819,46.2743848 19.5479995,48.4583146 C18.6948767,49.827297 18.6592978,49.8681391 18.1279995,49.5375426 L17.050175,48.8645602" id="path62" fill="#1A1615"></path>
                        <path d="M18.1494031,43.0630165 C18.2237188,43.1732621 18.3472978,43.4407708 18.5537539,43.1803498 C18.6863855,43.011227 18.6387364,42.9410516 18.5795083,42.8259638 C18.1609118,41.9509463 18.026596,40.7903148 18.9446311,39.6294025 C19.5898942,38.8141745 20.4270872,38.4561394 20.9961398,38.9081394 C21.6009117,39.3851218 21.1729819,40.1164902 20.3462451,42.2001393 C19.9049118,43.3122094 19.694596,44.1494024 20.4416135,44.7395778 C21.2595784,45.3868059 22.5189468,45.0230164 23.4863152,43.7998586 C24.1647713,42.943227 24.2341047,42.2834375 24.4821748,41.9698235 C24.5898941,41.8344551 24.910666,41.6625253 25.0181046,41.5263148 C25.142245,41.3705955 25.010666,41.3166305 24.8637889,41.1663849 L24.0018941,40.2974025 C23.8612626,40.15242 23.7510871,40.1164902 23.5693327,40.3472972 C23.3790871,40.5865955 24.5783854,41.7903147 23.1559994,43.588841 C22.6098942,44.2798585 21.9679293,44.5353673 21.4909468,44.1592971 C21.0139644,43.7823147 21.376631,43.1331919 22.0652626,41.4007709 C22.6159293,40.0175429 22.8552977,39.0849815 21.9519995,38.3711569 C21.0199995,37.6337534 19.6261048,38.0948762 18.5427364,39.465192 C18.0386662,40.1038586 17.7875785,40.7710867 17.3999294,41.451227 C17.2359996,41.7458937 17.3012627,41.7809814 17.4312276,41.9676481 L18.1494031,43.0630165" id="path64" fill="#1A1615"></path>
                        <path d="M27.4610519,37.5704552 C27.7700344,37.877192 27.7083502,38.0041394 27.3234379,38.3914376 L26.534245,39.1866657 C25.4731222,40.2555078 24.911438,39.1354376 24.489052,39.5614025 C24.2913678,39.7592973 24.4896134,39.8429464 24.591859,39.9081394 L25.591859,40.5992271 C25.6658239,40.6532621 25.7562801,40.7431569 25.8963502,40.6014025 C26.7697537,39.7214727 27.3736134,39.0625253 28.7447712,37.6800692 C30.1162098,36.2974026 30.7705255,35.6891219 31.6444904,34.8105956 C31.7856132,34.6680693 31.6948764,34.5789465 31.6397887,34.5046307 L31.1510168,33.8133325 C31.0926308,33.7178939 30.9451922,33.3635079 30.7009115,33.6104553 C30.3256835,33.9896132 31.3402097,34.3958588 30.2343852,35.4583149 L29.4361396,36.2617535 C29.0512273,36.6505254 28.9251923,36.7129815 28.6159291,36.4062447 L25.706666,33.5191571 C24.9147362,32.7327009 26.3037186,31.7072273 26.1233678,31.5284904 C25.9687713,31.373894 25.8004204,31.5830869 25.5279292,31.8574729 C25.151859,32.2357185 24.8681397,32.5734729 24.2390169,33.2077886 C23.6098941,33.8412623 23.2743854,34.1269465 22.8985959,34.5065956 C22.7291924,34.6778939 22.5632977,34.8322097 22.7044907,34.9720693 C22.9555784,35.2217535 23.7083503,33.8456834 24.4739643,34.6063851 L27.4610519,37.5704552" id="path66" fill="#1A1615"></path>
                        <path d="M29.393894,29.5123501 C29.2434379,29.3423852 28.2036484,29.475087 27.9547361,29.6968414 C27.7050519,29.9177536 27.4476484,30.9334027 27.5981046,31.1038589 C27.7483502,31.2722097 28.7880695,31.139508 29.0369817,30.9177536 C29.2870168,30.6976133 29.544701,29.6814729 29.393894,29.5123501" id="path68" fill="#1A1615"></path>
                        <path d="M36.4134026,24.2519292 C35.8199289,23.4183152 37.3692622,22.9284205 37.1856131,22.6694029 C37.0795078,22.5214029 36.8889815,22.6896836 36.5416833,22.9383152 C36.204771,23.1776135 35.6279991,23.6315784 35.2264553,23.9177538 C34.8130518,24.2105257 33.9125606,24.807859 33.6512974,24.9928415 C33.5750869,25.0471573 33.6274378,25.1439292 33.6433676,25.165052 C33.8429465,25.446245 34.709964,24.2960696 35.2146658,25.0049117 L37.3848412,28.0575432 C37.6957184,28.4948063 37.4838587,28.6329817 37.3314377,28.7409817 C37.0707359,28.927087 36.6806307,29.0926309 36.6047008,29.147508 C36.4857535,29.2322098 36.5265956,29.3585256 36.5422447,29.3796484 C36.6475079,29.5290519 36.9295429,29.349473 37.0756482,29.2798589 C38.8895429,28.4021046 39.3058938,28.5510168 39.3928411,28.4884905 C39.425192,28.4660344 39.4912271,28.3958589 39.4489815,28.3382449 C39.3541745,28.2050519 39.0362096,27.941894 38.8363499,27.6603502 L36.4134026,24.2519292" id="path70" fill="#1A1615"></path>
                        <path d="M42.8602095,22.1628065 C43.7639989,21.6225258 44.5863147,21.7768416 44.9298234,22.3522801 C45.334455,23.0296135 45.4029462,24.2883503 44.2009112,25.0063152 C43.1362094,25.6419643 42.5221744,25.1844906 42.1642095,24.5861046 C41.7735428,23.9306661 41.7157183,22.8448415 42.8602095,22.1628065 Z M39.1833674,21.2316486 C39.2853324,21.4026661 39.7522095,21.0926311 40.7387358,20.8196486 C42.2069463,20.4188767 43.5523498,20.9046311 43.7941042,21.3094732 C43.8130515,21.3396486 43.8640691,21.4259644 43.7839989,21.4728416 C43.6694024,21.5416837 43.4873673,21.5241398 43.1915779,21.5740345 C42.8840691,21.6307363 42.4506656,21.7620345 41.8207007,22.1381749 C40.5161393,22.9185959 40.1715779,24.0315082 40.6745955,24.873052 C41.3626656,26.0247011 42.986034,26.091859 44.6682796,25.0863152 C46.4882094,23.9999994 46.7924901,22.4547363 46.1044199,21.301824 C44.7001392,18.9509469 40.7362797,20.1663855 39.3744552,20.9802802 C39.2828762,21.0342451 39.1272271,21.1389468 39.1833674,21.2316486 Z" id="path72" fill="#1A1615"></path>
                        <path d="M47.7998585,20.5537539 C46.9739637,18.8974732 47.3563497,17.1557189 48.6329812,16.5199996 C49.8974724,15.8892628 50.6071566,16.8919996 50.9273671,17.5334732 C51.7529812,19.189403 51.3703145,20.9306661 50.0934724,21.5685609 C48.8291918,22.1984556 48.1197883,21.193824 47.7998585,20.5537539 Z M52.3971917,17.824561 C50.9522794,14.9262452 48.043297,16.1444908 47.7933321,16.2694733 C46.6362094,16.8462452 45.2930515,18.2765609 46.2362795,20.1682802 C47.6820339,23.0652626 50.5904549,21.847017 50.8415426,21.7214731 C51.9978233,21.1444907 53.3404899,19.7143855 52.3971917,17.824561 Z" id="path74" fill="#1A1615"></path>
                        <path d="M55.7527705,15.7247715 C56.7266652,15.3212628 57.5164196,15.5950873 57.7724898,16.2159996 C58.0726301,16.9451926 57.9550161,18.2001399 56.6609109,18.7341048 C55.5142442,19.2063855 54.9731214,18.6639294 54.7077881,18.0175434 C54.417753,17.3130522 54.5202793,16.2308066 55.7527705,15.7247715 Z M52.2529811,14.2623154 C52.3287004,14.4470874 52.8360689,14.2083505 53.8524899,14.08414 C55.3632267,13.9032277 56.6230863,14.5811224 56.8021038,15.0167014 C56.8160688,15.0504558 56.8544547,15.1430873 56.7680688,15.1776137 C56.6447705,15.2294733 56.4679284,15.1839294 56.1675074,15.1902452 C55.8550161,15.2020347 55.4065249,15.2686312 54.7286302,15.5479996 C53.3234373,16.1263856 52.8193671,17.1776136 53.192139,18.0822452 C53.7023144,19.3242802 55.2988056,19.6279995 57.1110161,18.8821048 C59.0707354,18.0737539 59.5995073,16.5910171 59.0882792,15.3508768 C58.0454722,12.816912 53.945753,13.4371926 52.4791566,14.0414032 C52.3804899,14.0822453 52.2110864,14.1614733 52.2529811,14.2623154 Z" id="path76" fill="#1A1615"></path>
                        <path d="M89.0666644,7.83796472 C89.3052609,7.81740331 89.4912258,7.79305244 89.4989451,7.88266647 C89.5094714,8.00989454 89.4378925,8.11564892 89.3803486,8.23024541 L88.4287697,9.95726291 C88.3557873,10.0372629 88.3950855,10.033684 88.3291206,10.0392278 C88.3024539,10.0422454 88.2484188,10.0372629 88.1733311,9.94189449 L87.0161382,8.42954365 C86.9403487,8.32617523 86.8519277,8.23354365 86.8414013,8.10743839 C86.833682,8.01614015 87.0203487,8.01038576 87.2596469,7.99010506 L89.0666644,7.83796472 Z M86.819647,7.53621034 C86.5943838,7.55424543 86.3122785,7.54301736 85.9564891,6.97121386 C85.8484189,6.79934018 85.6357873,6.49835773 85.6175417,6.28207002 C85.5628049,5.63021039 87.0091206,5.65323495 86.9887698,5.40898934 C86.9733312,5.2195718 86.5663136,5.3185332 86.2870154,5.34237881 C85.862454,5.37828758 85.4666645,5.44764197 85.0421031,5.48355074 C84.6435067,5.51727004 84.2547347,5.5123367 83.8701733,5.546056 C83.6842084,5.56003495 83.4694716,5.56003495 83.4799979,5.67872968 C83.49684,5.88623845 84.1698225,5.77549459 84.545261,6.25329107 L88.6056118,11.4174734 C88.7101732,11.5537541 88.7915767,11.7201401 88.9642083,11.7058944 C89.0842083,11.6954383 89.1087697,11.6751576 89.2582434,11.3895436 L92.3796468,5.55592267 C92.7508749,4.87993672 93.4982433,5.17132619 93.4736819,4.87362795 C93.4596468,4.71929813 93.3417521,4.74808409 92.9831556,4.77741041 C92.5052608,4.81908058 92.1494714,4.88432268 91.2722784,4.95943145 C90.6884188,5.00767707 90.1929802,5.0126104 89.8084188,5.04495426 C89.5684188,5.06469461 89.3943837,5.0611297 89.4056118,5.18887005 C89.4273662,5.44983846 90.3628048,5.27165601 90.4091205,5.82237178 C90.4252609,6.02165599 90.3466644,6.1929823 90.2203486,6.448463 C89.8414013,7.19080684 89.7824539,7.28561385 89.4371907,7.31438578 L86.819647,7.53621034 Z" id="path78" fill="#1A1615"></path>
                        <path d="M96.7670151,5.70586652 C96.7754362,5.10800689 97.7621028,5.05674373 98.2814011,5.06304549 C100.362103,5.08854022 101.829471,6.03234371 101.805611,7.90954366 C101.794383,8.77192961 101.115085,10.8308769 97.7824537,10.7894734 C96.7831555,10.7768418 96.7066642,10.5501752 96.7136818,9.92266642 L96.7670151,5.70586652 Z M95.0729801,9.99368396 C95.0610503,10.9177541 93.6385942,10.6006313 93.6336819,10.935298 C93.6336819,11.0265962 93.778945,11.0828067 93.8722784,11.0835787 C94.1256117,11.087719 94.3929801,11.0548067 95.7129801,11.0715787 C96.4063134,11.0800699 97.0849099,11.1249822 97.7789449,11.1340348 C99.5649098,11.155719 103.445611,11.0597892 103.481401,8.22175418 C103.514383,5.60060337 100.045612,4.7404069 98.6196467,4.72204199 C97.0596467,4.70312269 96.3263134,4.73054023 95.8329801,4.72423146 C95.4196467,4.71929813 95.0203485,4.67790865 94.6070152,4.6729683 C94.3803485,4.66941041 94.0736819,4.62883497 94.0715766,4.79221742 C94.0673661,5.13678584 95.1382432,4.805649 95.1284187,5.62253319 L95.0729801,9.99368396 Z" id="path80" fill="#1A1615"></path>
                        <path d="M109.339646,7.90189454 C109.579646,7.92266647 109.766313,7.92764892 109.758594,8.0197191 C109.747366,8.14666646 109.658945,8.23845593 109.584559,8.34098225 L108.35719,9.88568396 C108.272278,9.95010501 108.311576,9.95501729 108.246313,9.94821028 C108.218945,9.94652607 108.165611,9.93340326 108.108067,9.82870151 L107.219646,8.14252611 C107.162804,8.02877173 107.090524,7.92266647 107.101752,7.79663138 C107.109471,7.70589454 107.294734,7.73052612 107.534032,7.74947349 L109.339646,7.90189454 Z M107.175436,7.22806999 C106.950173,7.20912263 106.673682,7.14940333 106.418945,6.52851212 C106.34105,6.33963493 106.181752,6.00767704 106.199296,5.79029459 C106.254734,5.14035075 107.67719,5.40487706 107.697541,5.16063847 C107.713682,4.97039286 107.296138,4.99917882 107.018243,4.97697531 C106.592278,4.94106654 106.191576,4.94325602 105.766313,4.9081683 C105.367015,4.87362795 104.985261,4.805649 104.598594,4.77329813 C104.414032,4.75795076 104.202804,4.72149462 104.19298,4.83936128 C104.175436,5.04769812 104.857541,5.04988759 105.146664,5.58442793 L108.287717,11.3536138 C108.367717,11.5060348 108.420348,11.6842102 108.59298,11.6981751 C108.71298,11.7072278 108.74105,11.6927015 108.935436,11.4358594 L112.988067,6.20641388 C113.466664,5.60060337 114.154383,6.01343143 114.180348,5.71518582 C114.192278,5.56222442 114.071576,5.56990162 113.713681,5.53892618 C113.234383,5.49835776 112.87298,5.50465951 111.995787,5.43091916 C111.411225,5.3818525 110.922804,5.30372618 110.537541,5.27302443 C110.298945,5.25191566 110.127717,5.2195718 110.11719,5.34594373 C110.094734,5.60828056 111.046313,5.58744547 110.999295,6.13952967 C110.983155,6.33881388 110.876488,6.4934244 110.710173,6.72477878 C110.212629,7.39361385 110.138945,7.47782437 109.793681,7.44898227 L107.175436,7.22806999 Z" id="path82" fill="#1A1615"></path>
                        <path d="M117.142453,6.71929808 C117.270874,5.82099635 115.919997,4.72149462 115.260348,4.62746655 C115.180348,4.61677883 115.098944,4.62308059 115.087015,4.71299637 C115.058944,4.90186654 116.017541,5.26727004 115.927015,5.89555775 C115.846313,6.47011914 114.887716,6.4799858 114.859646,6.67708053 C114.847015,6.76781737 115.029471,6.90323492 115.331927,7.14750859 C115.522804,7.31221034 115.76912,7.57754367 115.99298,7.60856121 C116.466664,7.67705244 117.067365,7.2491928 117.142453,6.71929808" id="path84" fill="#1A1615"></path>
                        <path d="M126.683506,8.26729804 C128.908067,8.82098224 129.355084,10.1754383 129.007716,11.6406313 C128.546663,13.5923505 126.722102,14.2407014 125.05333,13.8272979 C122.865962,13.2815435 122.505962,11.9114383 122.808418,10.6315787 C123.112979,9.34238573 124.367014,7.69052612 126.683506,8.26729804 Z M125.351576,14.2982453 C127.87719,14.9158593 130.079997,14.2343856 130.522804,12.3626664 C130.814734,11.127719 130.534734,8.77684189 126.39719,7.79852612 C123.788769,7.18175421 121.755085,7.9594384 121.331927,9.75024537 C120.874383,11.6833681 122.254734,13.5479997 125.351576,14.2982453 Z" id="path86" fill="#1A1615"></path>
                        <path d="M135.684207,14.6743154 C135.623155,14.6068768 135.463856,14.4106663 135.489119,14.3324909 C135.514383,14.2555084 135.662453,14.1894032 135.908769,14.0805611 L139.058944,12.6666664 C140.348768,12.0814032 140.82526,12.5073681 140.896839,12.2905962 C140.915786,12.2316488 140.919996,12.1745962 140.769119,12.1249822 C140.491225,12.032912 140.150172,11.9577541 139.808418,11.8442804 C139.568418,11.7656137 139.326312,11.647719 138.972628,11.5298944 C138.731225,11.4512278 138.598593,11.4259646 138.26947,11.5748067 L134.971926,13.0926313 C134.759295,13.1844909 134.651926,13.2532628 134.576137,13.2280698 C134.475084,13.1943856 134.308067,12.9767014 134.100348,12.6688418 C133.959295,12.4610523 134.010523,12.390105 134.075786,12.1938243 L134.449119,11.0660348 C134.710874,10.2730524 135.860347,10.9591576 135.963505,10.6491225 C135.988769,10.5717892 135.946663,10.528491 135.643505,10.4282103 C135.300347,10.3157892 134.948067,10.2371226 134.226663,9.99915764 C133.619646,9.79712256 132.972628,9.54470152 132.579646,9.41557871 C132.338944,9.33473661 132.18526,9.29466643 132.164909,9.35501731 C132.021751,9.78533309 133.219646,9.56056116 132.790172,10.8596489 L131.550172,14.6055435 C131.206313,15.6477189 130.021751,14.7677891 129.896839,15.1466663 C129.86526,15.2420347 129.955084,15.3103154 130.107365,15.3599294 C130.348067,15.4394382 130.777541,15.5438593 131.637891,15.8287014 C132.34526,16.0625259 133.131926,16.3621049 133.385962,16.445754 C133.499646,16.4827364 133.650523,16.5317891 133.684909,16.4295434 C133.799997,16.0849821 132.734734,16.2483505 133.047014,15.3009821 L133.699646,13.3305962 C133.728418,13.2442102 133.755786,13.1192277 133.82947,13.1529821 C133.908067,13.1691225 133.969119,13.2371225 134.096839,13.4035084 L135.400698,15.0674382 C135.674383,15.4246312 136.671576,16.5290522 136.543154,16.9171926 C136.454733,17.1839294 135.719997,16.8160698 135.654032,17.0134031 C135.602804,17.1691224 135.727014,17.2209119 135.891225,17.2735434 C136.018242,17.3166311 136.902453,17.5712978 137.282102,17.6968417 C137.599295,17.8012627 137.915786,17.9446311 138.461049,18.1242101 C138.5614,18.1578943 138.785961,18.2420346 138.837891,18.0868767 C138.915084,17.8547364 138.42526,17.9797188 137.447014,16.814175 L135.684207,14.6743154" id="path88" fill="#1A1615"></path>
                        <path d="M143.334032,14.6918593 C143.551575,14.1745961 143.62947,13.8524909 144.513681,14.2266663 C147.559295,15.5150873 146.924909,16.5367013 147.390172,16.7332627 C147.439295,16.7552277 147.536137,16.7670171 147.604207,16.6077189 C147.879295,15.9558593 147.444909,14.9649119 146.437891,14.5383856 C144.571926,13.7480698 143.821751,13.4701049 143.207716,13.210526 C142.826663,13.0484909 142.32561,12.7979646 141.649821,12.5123506 C141.490523,12.4435085 141.398593,12.4539646 141.37754,12.5051927 C141.215435,12.8898242 142.339646,12.8336137 141.908067,13.8524909 L140.235786,17.8028767 C139.934733,18.5115083 138.643505,17.6995785 138.519295,17.9923504 C138.487014,18.0674381 138.594383,18.1902452 138.852628,18.3004206 C139.343856,18.5087715 140.06947,18.7755083 140.535435,18.9748065 C141.579646,19.4147364 141.712979,19.5109469 141.908768,19.5943153 C142.167014,19.7031574 142.231575,19.7207013 142.274382,19.6211925 C142.408417,19.3023855 141.406312,19.2428767 141.675084,18.6085609 L143.334032,14.6918593" id="path90" fill="#1A1615"></path>
                        <path d="M152.096838,20.3517188 C152.308768,20.4660346 152.477891,20.5447012 152.434382,20.6252626 C152.374031,20.7376837 152.25754,20.7872977 152.147365,20.8519995 L150.411224,21.7880696 C150.307365,21.8141749 150.341751,21.8336135 150.283505,21.8021047 C150.259645,21.788631 150.216838,21.7565609 150.204909,21.6364907 L150.052628,19.7376837 C150.044909,19.6104557 150.021751,19.4840697 150.080698,19.3725609 C150.123505,19.2924907 150.283505,19.3881399 150.495435,19.5024557 L152.096838,20.3517188 Z M150.372628,18.8807715 C150.17333,18.7741048 149.942452,18.6112978 149.952277,17.9388767 C149.955786,17.7341048 149.939645,17.3670171 150.0414,17.1740347 C150.348768,16.5978943 151.551575,17.4021048 151.665961,17.1872276 C151.755786,17.0175434 151.3614,16.879368 151.114382,16.7480698 C150.73754,16.5487715 150.367716,16.3922803 149.990873,16.1921399 C149.637189,16.0035785 149.31368,15.7903154 148.971926,15.6091224 C148.807014,15.5214031 148.627365,15.4056838 148.571224,15.5096136 C148.474382,15.6932628 149.099645,15.9640698 149.155084,16.5704557 L149.768417,23.1101749 C149.782452,23.2828766 149.760698,23.4651924 149.91368,23.547438 C150.019645,23.6028064 150.051926,23.5992275 150.332628,23.4413327 L156.116487,20.2308065 C156.795786,19.8632276 157.265961,20.5142451 157.40561,20.2497539 C157.479294,20.1143153 157.364908,20.0723504 157.047014,19.9046311 C156.622452,19.6787364 156.287014,19.5411223 155.510873,19.1277188 C154.99368,18.8533329 154.575435,18.5893329 154.232979,18.4076487 C154.021751,18.2941048 153.877891,18.1978943 153.81754,18.3086311 C153.692628,18.5411223 154.576838,18.8974732 154.316487,19.3868065 C154.223154,19.5628065 154.063154,19.6625258 153.818944,19.810596 C153.098944,20.2289118 152.997189,20.2771223 152.690522,20.1143153 L150.372628,18.8807715 Z" id="path92" fill="#1A1615"></path>
                        <path d="M164.881399,26.6757186 C165.530522,25.7247713 166.487013,26.7831572 166.686312,26.4912274 C166.752277,26.3936134 166.659645,26.3418239 166.516487,26.2434379 C166.152978,25.9950871 165.482803,25.5825257 165.030873,25.2752274 C164.634382,25.0041397 164.225961,24.6800696 163.663856,24.2974029 C163.50947,24.1921397 163.422452,24.1776134 163.388066,24.230245 C163.209119,24.492631 164.150873,24.8379643 163.654733,25.5641397 L162.734733,26.9131221 C162.519294,27.2272274 162.496838,27.3319291 162.012628,27.0021748 L159.071575,24.9964204 C158.56561,24.6491222 158.583154,24.5529117 158.808417,24.2231573 L159.611224,23.0463152 C160.244207,22.1178942 161.426663,23.3199292 161.609119,23.0498942 C161.640698,23.0049117 161.703856,22.9599994 161.351575,22.7201398 C160.899645,22.4106661 160.517189,22.1929819 159.723505,21.6527012 C159.260347,21.3369117 158.818943,20.9909468 158.268066,20.6154381 C158.136136,20.5254732 158.014733,20.4660346 157.948768,20.5628065 C157.744557,20.8623854 158.864557,21.2316486 158.230873,22.160631 L155.950172,25.5002801 C155.39368,26.3179643 154.374031,25.1395081 154.181049,25.4237888 C154.102452,25.5362099 154.428066,25.7683502 154.638593,25.9122801 C154.968417,26.1381748 155.318593,26.3324906 155.891224,26.7234379 C156.551575,27.1745958 156.972628,27.5046309 157.291926,27.7228765 C157.446312,27.8281397 157.570522,27.8582449 157.62175,27.7831572 C157.779645,27.5501747 156.783856,27.1902449 157.238593,26.5227362 L158.051926,25.3324906 C158.18947,25.1291222 158.300347,25.0616836 158.531224,25.2195783 L161.802803,27.4512274 C162.121399,27.6694028 162.070171,27.8875783 161.957891,28.0512274 L161.236487,29.1074379 C160.674382,29.9312273 159.647715,28.8357888 159.498943,29.053473 C159.406312,29.187508 159.516487,29.240701 159.670171,29.3459642 C160.1214,29.6540343 160.428066,29.8196484 161.111575,30.2856133 C161.684908,30.6751571 162.070873,30.9846308 162.544557,31.3072975 C162.731926,31.4344554 162.790873,31.4421747 162.837189,31.373894 C163.031575,31.089122 162.018943,30.8714378 162.519294,30.1376133 L164.881399,26.6757186" id="path94" fill="#1A1615"></path>
                        <path d="M170.529119,30.1458238 C172.237189,31.6757185 171.998592,33.0828062 171.006312,34.2154377 C169.686312,35.7242096 167.769119,35.4440693 166.487715,34.2982448 C164.80982,32.7922097 165.133329,31.4119992 165.999294,30.4232273 C166.871575,29.4259642 168.752276,28.5537537 170.529119,30.1458238 Z M166.531224,34.8541746 C168.475084,36.5797886 170.740347,37.0084903 172.007013,35.5614026 C172.843504,34.6063851 173.695434,32.3985957 170.496838,29.597894 C168.479996,27.8322098 166.317891,27.5685607 165.105961,28.9536835 C163.798592,30.447087 164.146663,32.7417536 166.531224,34.8541746 Z" id="path96" fill="#1A1615"></path>
                        <path d="M174.814031,35.764771 C175.934732,34.6913676 176.495434,36.1439289 176.776838,35.9010517 C176.804206,35.8771921 176.922101,35.8470166 176.677189,35.5641395 C176.362803,35.2014728 176.152978,35.0126307 175.751575,34.5487711 C175.323504,34.0562097 175.046311,33.6778939 174.916487,33.5271571 C174.785259,33.3755781 174.695434,33.3823851 174.654031,33.4188764 C174.407715,33.6324202 175.292627,34.3108763 174.608417,34.9734026 L171.971224,37.4997184 C170.892627,38.5375429 170.281399,37.1803499 169.980347,37.440771 C169.938943,37.4772622 169.927715,37.5734727 169.988066,37.6455429 C170.101048,37.7768412 170.261048,37.9037885 170.538943,38.2266657 C170.738943,38.4588762 171.03368,38.8560692 171.322803,39.1880692 C171.418943,39.2990867 171.498241,39.4070867 171.825961,39.3692622 L177.03789,38.7417534 C177.134732,38.7283499 177.208417,38.7165604 177.260346,38.7774025 C177.312978,38.8385253 177.268767,39.0359288 177.256136,39.0638587 L175.958592,44.2735428 C175.936136,44.3459638 175.87368,44.4534024 176.039294,44.6449813 C176.248417,44.8870866 176.442101,45.0553673 176.572627,45.2056129 C176.72982,45.3881392 176.868066,45.603648 177.112276,45.8862445 C177.346662,46.1570515 177.390873,46.1543146 177.447013,46.1074374 C177.694031,45.8933322 176.572627,45.1367708 177.396487,44.4953673 L180.583153,42.0386656 C181.525609,41.3122095 182.02596,42.501613 182.280697,42.2807007 C182.397188,42.1803498 182.282101,42.0490516 181.978241,41.6968411 C181.724908,41.4043498 181.453329,41.1444902 181.200697,40.8524902 C180.634381,40.1984551 180.452627,39.931999 180.251925,39.699578 C180.068767,39.4876481 179.870873,39.2176832 179.747364,39.3248411 C179.514381,39.5263148 180.421048,40.1173323 179.607013,40.7151569 L177.39789,42.3612621 C177.182452,42.5284902 177.071575,42.6068761 177.018943,42.5465954 C176.984557,42.5065954 177.016838,42.2672972 177.112276,41.9199288 L178.174732,37.6708061 C178.211925,37.5334727 178.278592,37.4035078 178.140346,37.2420342 C178.009118,37.0912973 177.848417,37.1411921 177.72982,37.1564903 L173.081399,37.7557885 C173.014031,37.7615429 172.903855,37.7853324 172.868768,37.7467359 C172.807715,37.6743148 172.931224,37.5698938 172.978943,37.527157 L174.814031,35.764771" id="path98" fill="#1A1615"></path>
                        <path d="M183.054031,48.4435076 C183.180346,48.6482795 183.285609,48.8015426 183.209118,48.8492619 C183.100346,48.9171918 182.974031,48.9010514 182.847013,48.9023847 L180.875083,48.8393672 C180.771224,48.8097532 180.792276,48.8429461 180.758592,48.787297 C180.743153,48.7642795 180.722802,48.7129812 180.771925,48.6041391 L181.595785,46.8862444 C181.651925,46.7727708 181.695434,46.6512971 181.802802,46.5838585 C181.879995,46.5367006 181.970522,46.6995778 182.096838,46.9032269 L183.054031,48.4435076 Z M182.302452,46.3058936 C182.182452,46.1124199 182.06596,45.856069 182.412627,45.2792971 C182.517188,45.1044199 182.68982,44.7790866 182.874381,44.6639287 C183.428767,44.3193673 184.065259,45.6189462 184.272978,45.4903848 C184.434381,45.3895427 184.162802,45.0723498 184.014732,44.834455 C183.790171,44.472841 183.548767,44.1515778 183.322802,43.7886305 C183.111574,43.4489814 182.938943,43.1011217 182.734732,42.7733323 C182.636487,42.614034 182.539645,42.4237884 182.439995,42.4849112 C182.262452,42.5964902 182.667364,43.1444901 182.411925,43.6954375 L179.655434,49.6595075 C179.58175,49.8155075 179.470171,49.9627356 179.562101,50.1107356 C179.623855,50.2119286 179.653329,50.2253321 179.976838,50.2294724 L186.590171,50.3585251 C187.363504,50.3818233 187.441399,51.1803496 187.696136,51.0224549 C187.827364,50.9410514 187.748767,50.8484198 187.559294,50.5430163 C187.30596,50.1354373 187.084908,49.8484198 186.621048,49.1003496 C186.311574,48.6028058 186.082101,48.1642093 185.87789,47.8357883 C185.752276,47.6324199 185.675083,47.4758585 185.567715,47.542455 C185.344557,47.6806304 185.928416,48.4322795 185.458241,48.7247707 C185.289118,48.8294725 185.101048,48.8366304 184.815434,48.8412619 C183.983153,48.8399286 183.870873,48.8317181 183.687013,48.5375426 L182.302452,46.3058936 Z" id="path100" fill="#1A1615"></path>
                        <path d="M14.0372628,99.0273659 C14.3790874,98.8399975 14.4350172,98.8105238 14.7096838,99.31298 L15.11214,100.050524 C15.6609119,101.05684 14.9476487,101.491927 15.0756487,101.725611 C15.1203505,101.807717 15.1740347,101.944559 15.39614,101.839296 L16.8580347,101.148769 C16.967368,101.103155 17.2919294,101.017541 17.1392276,100.736138 C16.9350171,100.361401 16.2700347,101.150173 15.6061049,99.9333308 L15.1331926,99.0666642 C14.8396488,98.5284186 14.960561,98.5228046 15.4224558,98.2715765 L16.4416136,97.715787 C16.9350171,97.4463134 17.1959996,97.2435063 17.6557189,98.0856116 C19.2395785,100.988068 18.1068767,101.39298 18.3494732,101.837892 C18.3747364,101.88491 18.4435083,101.953682 18.5948767,101.870875 C19.2159995,101.531927 19.4926311,100.485612 18.9682101,99.5256115 C17.9978241,97.7466642 17.5830873,97.0624537 17.2639996,96.4771906 C17.0658241,96.1143836 16.8294733,95.6056116 16.4778241,94.9614011 C16.3952978,94.8098222 16.3171926,94.7614011 16.2694733,94.7873661 C15.902947,94.987366 16.8185259,95.6414011 15.8470171,96.1712257 L12.1206313,98.2042081 C11.4046313,98.5950853 10.9374734,97.1340327 10.6195085,97.307366 C10.547719,97.3466642 10.5353682,97.4750853 10.6247015,97.6385941 C10.8856839,98.118594 11.3783155,98.9445589 12.3547365,100.734033 C12.8084207,101.565611 13.2168418,102.390875 13.778526,103.42105 C13.8621049,103.572629 13.985754,103.610524 14.0575435,103.571927 L14.8714382,103.188769 C14.9810523,103.143857 15.2757891,103.059647 15.1291224,102.790173 C14.8289821,102.239997 14.3955786,103.66105 13.1630874,101.402103 C12.3908769,99.9859624 12.3728418,99.9347343 12.9221751,99.6350852 L14.0372628,99.0273659" id="path102" fill="#1A1615"></path>
                        <path d="M21.2414732,107.563506 C21.3887012,107.75298 21.5106661,107.894734 21.4394381,107.950173 C21.3390872,108.028067 21.2113679,108.026664 21.0844205,108.041401 L19.1176136,108.189471 C19.011789,108.170524 19.0362101,108.202804 18.9950872,108.149471 C18.978596,108.128418 18.9528416,108.081401 18.9903855,107.967015 L19.6244206,106.170524 C19.669403,106.051225 19.6992978,105.926313 19.7988065,105.848418 C19.8708767,105.792278 19.9781048,105.944559 20.1258241,106.134734 L21.2414732,107.563506 Z M20.2658942,105.517892 C20.1263855,105.338945 19.9824556,105.096138 20.2661749,104.485611 C20.3519995,104.30105 20.4868767,103.958594 20.659017,103.824559 C21.1729819,103.422454 21.9449117,104.647717 22.1381749,104.496138 C22.2883503,104.379647 21.9843503,104.093331 21.8116486,103.871576 C21.5490521,103.535436 21.2743854,103.242804 21.0123504,102.905962 C20.7661749,102.590875 20.5564907,102.263857 20.3190872,101.958594 C20.2044907,101.811927 20.0874381,101.632278 19.9942451,101.705261 C19.8297539,101.83298 20.2908767,102.336138 20.0959293,102.910875 L17.9920697,109.135436 C17.9350171,109.297541 17.8407013,109.456839 17.9470873,109.59298 C18.020561,109.687717 18.0512276,109.697541 18.3728416,109.666664 L24.9627362,109.090524 C25.7332625,109.030874 25.8969116,109.815436 26.1331923,109.632278 C26.2541046,109.536138 26.166666,109.453331 25.9451923,109.16912 C25.6499643,108.790874 25.3999292,108.529822 24.8588064,107.835787 C24.4972625,107.372629 24.2225959,106.961401 23.9854731,106.657541 C23.8377538,106.468068 23.745052,106.319997 23.6447713,106.398594 C23.4377538,106.559997 24.0983854,107.245611 23.6623152,107.58526 C23.5049117,107.708769 23.3190871,107.735436 23.0359292,107.769822 C22.2072275,107.858243 22.0945959,107.861752 21.8816135,107.588067 L20.2658942,105.517892 Z" id="path104" fill="#1A1615"></path>
                        <path d="M25.6507362,111.442102 C25.5339643,111.504559 25.254666,111.600699 25.4936836,111.83298 C25.6472274,111.981752 25.723438,111.941752 25.8432274,111.894032 C26.7557888,111.567015 27.9235081,111.550874 28.985473,112.581752 C29.731087,113.307366 30.0014028,114.176839 29.4956484,114.696839 C28.9583151,115.24912 28.2741046,114.748769 26.2858941,113.715085 C25.223438,113.163506 24.4122801,112.868769 23.7489117,113.552278 C23.0224556,114.299646 23.2562801,115.589471 24.3750169,116.676488 C25.1590169,117.438594 25.8072976,117.574734 26.0940344,117.854032 C26.2187362,117.974032 26.3560695,118.310172 26.4805607,118.431576 C26.6239292,118.570523 26.6902449,118.445611 26.8544555,118.314383 L27.8067361,117.54526 C27.9646309,117.420348 28.0120695,117.314383 27.8018239,117.110173 C27.5814028,116.896137 26.2625958,117.967015 24.6184555,116.36912 C23.9868766,115.755787 23.7968415,115.090523 24.2204204,114.655436 C24.6436485,114.218945 25.2522099,114.645611 26.9062449,115.505962 C28.2261747,116.195085 29.1291221,116.528418 29.9317185,115.701751 C30.7595782,114.850523 30.4424554,113.416138 29.1896835,112.199295 C28.6063852,111.63298 27.9676484,111.315787 27.3311572,110.86105 C27.0540344,110.667366 27.0123502,110.72912 26.813052,110.838594 L25.6507362,111.442102" id="path106" fill="#1A1615"></path>
                        <path d="M31.6074378,121.54105 C31.3421045,121.885611 31.2086308,121.840699 30.7757887,121.507365 L29.8873677,120.82526 C28.692701,119.907365 29.7338238,119.20912 29.2582449,118.843506 C29.0362098,118.672979 28.9778238,118.879997 28.927087,118.990172 L28.3670168,120.068769 C28.3221046,120.149471 28.2447712,120.24912 28.4035081,120.371225 C29.387087,121.127015 30.1167712,121.642102 31.6603501,122.828067 C33.2042097,124.014032 33.8905956,124.587365 34.8736132,125.342453 C35.0317886,125.464558 35.1094026,125.363506 35.175157,125.299646 L35.7993675,124.727014 C35.8870868,124.657541 36.2187359,124.465962 35.94435,124.254734 C35.5211219,123.930523 35.246736,124.988769 34.0526307,124.025962 L33.1540343,123.334734 C32.7204202,123.002102 32.6422448,122.884909 32.9073676,122.539646 L35.4046307,119.28912 C36.0849816,118.404909 37.277964,119.652629 37.4319991,119.451225 C37.5652622,119.278594 37.3369113,119.137541 37.0307359,118.902453 C36.6077184,118.577541 36.2365605,118.337541 35.5282096,117.793681 C34.8202097,117.249822 34.4931219,116.95298 34.0704553,116.628067 C33.879929,116.482102 33.7058939,116.336839 33.5841395,116.494734 C33.3689816,116.775436 34.8287009,117.348067 34.1710869,118.203506 L31.6074378,121.54105" id="path108" fill="#1A1615"></path>
                        <path d="M51.7557882,132.529821 C51.8081391,132.454734 51.9479285,132.290523 51.7444899,132.190874 C51.5531917,132.096839 51.3851215,132.225962 51.2500338,132.290523 C50.2670163,132.778242 48.8662444,132.967716 47.4783146,132.284909 C45.7198585,131.420348 45.3111568,129.804207 45.8481392,128.713681 C46.4125602,127.566313 48.1620339,126.425962 50.4468058,127.550172 C52.3012619,128.462453 52.5901741,129.928418 52.901332,130.0814 C52.9605601,130.110874 53.0882794,130.122804 53.1126303,130.074383 C53.2727706,129.748769 52.6091215,127.896137 50.0608409,126.642804 C46.5559287,124.917892 44.992841,126.736137 44.676841,127.379646 C44.00442,128.745962 44.3514375,131.151576 47.3665251,132.634383 C48.8130514,133.346663 49.9785952,133.303155 50.3374724,133.479295 C50.5649812,133.591576 50.4451917,133.865962 50.6121391,133.948769 C50.6715777,133.977541 50.7595777,134.010523 50.7798584,133.970523 L51.7557882,132.529821" id="path110" fill="#1A1615"></path>
                        <path d="M55.5599986,133.623856 C55.700139,133.259646 55.7234372,133.200698 56.2582442,133.407716 L57.0411214,133.710874 C58.110174,134.124207 57.8465249,134.916488 58.0948757,135.012628 C58.1823143,135.047716 58.3124898,135.116488 58.4131213,134.89333 L59.0830862,133.421049 C59.1378933,133.31719 59.330595,133.0414 59.0323494,132.926312 C58.6340336,132.771927 58.6351564,133.802804 57.3423845,133.301751 L56.422174,132.945962 C55.8503144,132.724207 55.9391565,132.642102 56.1294021,132.151576 L56.5482793,131.068769 C56.751367,130.54526 56.8196477,130.221049 57.7149459,130.567716 C60.7979634,131.7614 60.1948757,132.802102 60.6675073,132.98526 C60.7171213,133.004207 60.8141739,133.012628 60.8763494,132.851927 C61.1318581,132.191576 60.6669459,131.214734 59.6472266,130.819646 C57.7574021,130.087716 56.9983845,129.832979 56.3766302,129.592979 C55.9912267,129.442804 55.4821741,129.207014 54.7988056,128.942453 C54.6370513,128.879997 54.5460337,128.89333 54.5260337,128.943856 C54.3752969,129.33333 55.4975425,129.242102 55.0981039,130.273681 L53.5652618,134.232277 C53.2703145,134.992979 51.970104,134.178944 51.8393671,134.516488 C51.8100338,134.592979 51.8832268,134.699646 52.0575426,134.767014 C52.5674373,134.964207 53.4755776,135.276488 55.377753,136.012628 C56.2607003,136.355084 57.1052617,136.7214 58.1990161,137.144558 C58.3610512,137.207014 58.4808406,137.156488 58.510174,137.079997 L58.8840687,136.261751 C58.9388757,136.15719 59.109402,135.901751 58.8234371,135.790874 C58.2390161,135.564909 58.8256827,136.929821 56.4259635,136.000698 C54.9216127,135.418242 54.8752969,135.390874 55.1011214,134.807014 L55.5599986,133.623856" id="path112" fill="#1A1615"></path>
                        <path d="M61.6403493,136.518593 C61.1584546,138.191575 59.8870862,137.211926 59.7664546,137.630172 C59.7437178,137.708768 59.7875775,137.79719 59.9413318,137.840698 C60.1853318,137.910874 60.4256827,137.942453 60.6688406,138.012628 C61.0018932,138.108768 61.3251213,138.239295 62.0041388,138.435084 C62.4138932,138.553681 62.2779634,138.447716 62.5559283,138.348768 L68.8133316,135.98947 C69.0153667,135.915084 69.1990158,135.854733 69.2757877,135.87719 C69.3524895,135.898944 69.3484193,136.011225 69.2856123,136.22947 L68.4495421,139.131225 C68.2207,139.923505 66.7033668,139.317189 66.6200685,139.604207 C66.6030861,139.66526 66.6162089,139.764207 66.7825948,139.811926 C66.9876474,139.870874 67.3692615,139.943154 68.2527702,140.197891 C69.0599983,140.430172 69.4983842,140.594382 69.6137526,140.627365 C69.8571912,140.698242 69.8821035,140.610523 69.8898228,140.584558 C69.9654719,140.322804 68.8155071,140.218242 69.0792263,139.303154 L70.4877175,134.414733 C70.5431561,134.222453 70.5628053,134.152979 70.4098228,134.108769 C70.2301737,134.057541 70.1510158,134.091225 70.0414018,134.134733 L62.5737528,136.890523 C62.4640686,136.934733 62.3747353,136.956488 62.3105949,136.93754 C62.233823,136.915786 62.2258932,136.847014 62.2480686,136.768418 L63.1016826,133.805611 C63.5838581,132.132628 65.0531914,133.197891 65.1710861,132.788067 C65.2063843,132.665962 64.8835071,132.582453 64.7165598,132.534734 C64.0893317,132.353681 63.6433668,132.263856 63.1951563,132.134032 C62.7851212,132.016137 62.4492616,131.8814 62.1036476,131.781751 C61.9627353,131.741751 61.7187353,131.623856 61.6762792,131.771927 C61.5753669,132.120698 62.8505949,132.317891 62.5945949,133.206312 L61.6403493,136.518593" id="path114" fill="#1A1615"></path>
                        <path d="M74.7564894,140.61754 C74.6743841,141.044909 74.534735,141.063856 73.9985946,140.9614 L72.8982438,140.74947 C71.4196473,140.46526 72.0364894,139.37333 71.4477175,139.260347 C71.1726298,139.207716 71.2133316,139.418242 71.2175421,139.538944 L71.1999982,140.755084 C71.1964894,140.847014 71.1726298,140.971225 71.369121,141.009119 C72.5866649,141.243505 73.4701736,141.376839 75.3817525,141.744558 C77.2926296,142.112277 78.1635068,142.316488 79.3810506,142.550172 C79.5775419,142.588067 79.6014015,142.463856 79.631577,142.376839 L79.9333313,141.585961 C79.9796471,141.483505 80.1908752,141.164207 79.8505243,141.098242 C79.3270156,140.997891 79.5557875,142.067365 78.0568402,141.741751 L76.9438577,141.527716 C76.4070156,141.423856 76.2849104,141.355084 76.3670156,140.927014 L77.1410507,136.902453 C77.3522788,135.806312 78.9782436,136.386663 79.0259629,136.13754 C79.0666647,135.923505 78.8006998,135.900347 78.4210507,135.826663 C77.8975419,135.726312 77.4582437,135.678593 76.5810507,135.510172 C75.7038578,135.341049 75.2785946,135.222453 74.7550859,135.1214 C74.5192964,135.076488 74.2989455,135.02526 74.260349,135.220347 C74.1943841,135.568418 75.7557876,135.42526 75.5515771,136.484909 L74.7564894,140.61754" id="path116" fill="#1A1615"></path>
                        <path d="M83.7978926,140.3214 C83.8231558,140.096137 84.3136821,140.150172 84.7108751,140.194382 C86.7256119,140.416137 86.7487698,140.929821 86.6905241,141.462453 C86.5929803,142.34526 85.77684,142.930523 84.4385944,142.782453 C83.9480681,142.729119 83.5375418,142.683505 83.5971909,142.142453 L83.7978926,140.3214 Z M81.9894716,141.755786 C81.8785944,142.764909 80.4715769,142.271575 80.4350857,142.596488 C80.4252611,142.687014 80.5529804,142.746663 80.7122787,142.764207 C81.3214015,142.830874 81.4315769,142.807014 82.2659629,142.898944 C83.1543839,142.997189 84.051226,143.132628 84.9389452,143.230874 C87.8406996,143.550874 88.2463136,142.308768 88.2919276,141.894733 C88.3557873,141.317189 88.0091206,140.941049 87.6477171,140.682804 C87.2863136,140.432979 86.9115768,140.308768 86.9214013,140.218944 C86.9270154,140.164909 88.1978925,138.982453 89.2771908,137.952277 C89.4126293,137.821049 89.6645592,137.849119 89.7705241,137.860347 C89.9031556,137.875084 90.0294714,137.943856 90.162103,137.957891 C90.2814013,137.971926 90.3670153,137.926312 90.3747346,137.854733 C90.4056118,137.574032 89.5529802,137.279295 89.0224539,137.221751 C87.9761382,137.10526 87.4891206,137.626663 87.0203487,138.103856 L85.7501733,139.405611 C85.4021031,139.768418 85.1543838,139.823154 84.4919277,139.750172 C83.7887698,139.672979 83.8757874,139.618944 83.9108751,139.302453 L84.0828049,137.743856 C84.1894716,136.778944 85.4603487,137.29333 85.4961382,136.968418 C85.505261,136.888418 85.4049101,136.821751 85.1003487,136.788067 C84.8750856,136.763505 84.5136821,136.759997 83.9564891,136.698242 C83.2414014,136.618944 82.5831558,136.510172 81.919998,136.43719 C81.774033,136.421049 81.4989453,136.363505 81.4785945,136.543154 C81.4477173,136.831576 82.5529804,136.652628 82.4280681,137.788067 L81.9894716,141.755786 Z" id="path118" fill="#1A1615"></path>
                        <path d="M95.8224537,140.275084 C96.061752,140.282102 96.2491204,140.278593 96.2463134,140.369119 C96.2421029,140.496137 96.1599976,140.592979 96.0898222,140.700347 L94.9480678,142.308768 C94.8666643,142.378242 94.9059625,142.379646 94.8399976,142.378242 C94.813331,142.376839 94.7606994,142.366312 94.696138,142.264558 L93.7171906,140.630172 C93.6547345,140.519295 93.5775415,140.416839 93.5810503,140.290523 C93.5838573,140.199996 93.7698222,140.214032 94.0098222,140.221049 L95.8224537,140.275084 Z M93.6245591,139.719997 C93.3978924,139.712979 93.1192959,139.668768 92.8308749,139.061751 C92.7431556,138.87719 92.56491,138.554383 92.5719275,138.336839 C92.5908749,137.684207 94.0259626,137.871576 94.0336819,137.627365 C94.0392959,137.436488 93.6245591,137.487716 93.3438573,137.479997 C92.9185942,137.466663 92.5164889,137.491225 92.090524,137.478593 C91.690524,137.466663 91.3052609,137.418944 90.919296,137.407716 C90.7319276,137.402102 90.519296,137.37754 90.5157872,137.496137 C90.5101732,137.704558 91.1915767,137.670172 91.5094714,138.188067 L94.9592959,143.778944 C95.0477169,143.926312 95.1087696,144.101049 95.2828046,144.10526 C95.4021029,144.10947 95.4294713,144.092628 95.6105239,143.82526 L99.3726291,138.383856 C99.8182431,137.752277 100.527015,138.127716 100.536138,137.828768 C100.54105,137.674383 100.420348,137.689119 100.060348,137.678593 C99.5810501,137.663856 99.2189449,137.689119 98.3403484,137.663154 C97.7536818,137.646312 97.261752,137.595084 96.8750853,137.583856 C96.6357871,137.576137 96.4624537,137.553681 96.458945,137.680698 C96.4512257,137.943856 97.4006993,137.871576 97.3838572,138.424558 C97.3782432,138.623856 97.2799976,138.784558 97.1263134,139.024558 C96.6659625,139.719295 96.5957871,139.807716 96.2505239,139.797189 L93.6245591,139.719997 Z" id="path120" fill="#1A1615"></path>
                        <path d="M103.675787,138.871575 C103.651927,138.310172 103.583155,137.985961 104.542454,137.944558 C107.84491,137.8014 107.711576,138.996488 108.216839,138.974032 C108.270874,138.971926 108.362804,138.940347 108.354383,138.768418 C108.324208,138.061049 107.505962,137.352277 106.413331,137.399997 C104.389471,137.487716 103.592278,137.558593 102.92491,137.588067 C102.51298,137.605611 101.952278,137.593681 101.218945,137.62526 C101.046313,137.632979 100.968419,137.682102 100.970524,137.736137 C100.988769,138.153681 101.979647,137.619646 102.027366,138.725611 L102.214033,143.011224 C102.247015,143.781049 100.731226,143.602102 100.745962,143.918593 C100.748769,144.000698 100.898243,144.066663 101.177541,144.054733 C101.710875,144.031575 102.481401,143.9614 102.988068,143.940347 C104.120699,143.890523 104.282103,143.919996 104.494734,143.910172 C104.774032,143.898242 104.839997,143.88561 104.835787,143.77754 C104.82105,143.433681 103.889822,143.809119 103.860348,143.120698 L103.675787,138.871575" id="path122" fill="#1A1615"></path>
                        <path d="M125.994383,138.049119 C125.654734,136.240698 124.624558,134.873681 121.00912,135.552979 C118.559295,136.012628 117.394383,137.033681 117.718594,138.763505 L118.263857,141.668768 C118.407716,142.435786 116.991576,142.406312 117.055436,142.74526 C117.076488,142.861049 117.251225,142.855435 117.356488,142.835786 C117.527716,142.804207 118.503155,142.583856 119.157892,142.461049 C119.826664,142.335435 120.762102,142.196488 121.011927,142.14947 C121.131225,142.127014 121.143155,142.051225 121.134032,141.997189 C121.07719,141.694032 120.063857,142.37333 119.790874,140.911575 L119.427365,138.97754 C119.171225,137.614032 119.482804,136.383154 121.828769,135.943856 C124.435786,135.45333 125.039997,136.797891 125.322804,138.304558 L125.654734,140.06947 C125.847014,141.094733 124.183155,141.120698 124.243506,141.4414 C124.270172,141.583856 124.484909,141.49754 124.654734,141.465961 C125.031576,141.376839 125.381751,141.292628 125.748769,141.223856 C126.181049,141.142453 126.590874,141.084207 127.249821,140.978944 C127.407014,140.94947 127.482102,140.917189 127.463155,140.818242 C127.418242,140.578242 126.5614,141.071575 126.372628,140.063856 L125.994383,138.049119" id="path124" fill="#1A1615"></path>
                        <path d="M129.288418,138.664558 C129.77333,140.336839 128.175435,140.188067 128.297541,140.605611 C128.319997,140.684207 128.403506,140.734733 128.557892,140.690523 C128.800699,140.619646 129.021751,140.517891 129.264558,140.447014 C129.59719,140.350874 129.940348,140.289119 130.618944,140.091926 C131.028067,139.972628 130.857541,139.956488 131.039997,139.723505 L135.071576,134.388769 C135.202804,134.218242 135.326312,134.068769 135.402804,134.047014 C135.479997,134.024558 135.534733,134.122102 135.597891,134.339646 L136.439295,137.239997 C136.670172,138.032277 135.063155,138.329119 135.146663,138.616839 C135.164909,138.67719 135.228067,138.752979 135.395084,138.70526 C135.599295,138.645611 135.960698,138.502453 136.843505,138.246312 C137.651225,138.012628 138.108768,137.91719 138.223856,137.883505 C138.466663,137.812628 138.442102,137.725611 138.434383,137.699646 C138.358593,137.438593 137.331225,137.963505 137.06526,137.049119 L135.646312,132.162804 C135.590874,131.970523 135.570523,131.901049 135.416839,131.945962 C135.23719,131.997891 135.18947,132.068769 135.119295,132.165611 L130.275786,138.4814 C130.207014,138.57754 130.143155,138.643505 130.078593,138.662453 C130.0014,138.684207 129.957891,138.630172 129.936137,138.552277 L129.075786,135.591576 C128.590172,133.918593 130.402102,134.035084 130.282804,133.626663 C130.247014,133.503856 129.929821,133.605611 129.762804,133.654032 C129.135435,133.835786 128.710172,133.997891 128.262453,134.127014 C127.852628,134.246312 127.496137,134.311576 127.150874,134.412628 C127.010523,134.452628 126.741049,134.483505 126.784558,134.632277 C126.885611,134.980348 128.06947,134.466663 128.327716,135.355084 L129.288418,138.664558" id="path126" fill="#1A1615"></path>
                        <path d="M140.439295,131.355786 C140.049821,130.310874 141.593681,130.179646 141.491926,129.907365 C141.458242,129.81333 141.332628,129.821751 141.045611,129.92912 C140.583856,130.101751 140.134032,130.308067 139.159295,130.671576 C138.623154,130.871576 138.071575,131.038593 137.748067,131.159997 C137.635786,131.202102 137.632277,131.270172 137.648418,131.312277 C137.759295,131.610523 138.576137,131.054032 138.877891,131.861049 L140.399295,135.939646 C140.687716,136.712277 139.188067,137.0014 139.298944,137.298944 C139.353681,137.443505 139.655435,137.301049 139.767716,137.259646 C140.255435,137.077891 140.729821,136.861751 141.166312,136.698242 C141.616137,136.530523 142.077891,136.39719 142.790874,136.131926 C143.164909,135.991576 143.221049,135.950874 143.183154,135.849821 C143.075084,135.559997 142.251926,136.216137 141.952277,135.408418 L140.439295,131.355786" id="path128" fill="#1A1615"></path>
                        <path d="M146.646312,127.661751 C146.414733,127.508769 146.332628,127.487716 146.198593,127.548067 C146.077891,127.604207 145.994382,127.743155 145.936137,128.18947 L145.135435,134.372628 C145.077891,134.788769 144.950172,134.95719 144.491926,135.268769 C144.458944,135.294032 144.324909,135.416137 144.350874,135.473681 C144.442803,135.671576 144.787365,135.432277 144.969119,135.348067 C145.367716,135.164207 145.764909,134.941049 146.176137,134.750874 C146.950874,134.393681 147.316488,134.264558 147.510172,134.175435 C147.89754,133.996488 147.962102,133.976839 147.89754,133.836488 C147.795084,133.614032 147.126312,134.072979 146.966312,133.727014 C146.851926,133.479997 146.831575,133.020348 146.901049,132.378944 L147.251224,129.0014 C147.260347,128.926313 147.267365,128.783155 147.341049,128.750172 C147.412628,128.716488 147.515084,128.80912 147.578242,128.849821 L150.392277,130.588067 C151.010523,130.971225 151.167716,131.248418 151.228768,131.380348 C151.584558,132.154383 150.222452,132.414032 150.355084,132.702453 C150.428066,132.858242 150.767014,132.671576 150.911575,132.604909 C151.262452,132.442804 151.585961,132.25333 151.93754,132.091225 C152.276487,131.934734 152.631575,131.811225 152.969821,131.654734 C153.223856,131.537541 153.404908,131.484207 153.340347,131.343155 C153.252628,131.154383 152.776137,131.424558 152.224558,131.090523 L146.646312,127.661751" id="path130" fill="#1A1615"></path>
                        <path d="M155.444908,127.548769 C155.247014,127.211927 155.215435,127.15719 155.710172,126.868067 L156.435084,126.442804 C157.424557,125.863857 157.8814,126.564207 158.110171,126.429471 C158.190873,126.381751 158.327014,126.323506 158.214733,126.10526 L157.479294,124.66526 C157.431575,124.556488 157.336136,124.234383 157.058943,124.396488 C156.691224,124.611927 157.498242,125.252628 156.303154,125.952979 L155.451224,126.451927 C154.922101,126.762102 154.91368,126.640699 154.647014,126.187365 L154.061049,125.18526 C153.776137,124.700348 153.566312,124.444909 154.39368,123.959997 C157.247014,122.289822 157.687014,123.40912 158.123505,123.152979 C158.169119,123.126313 158.235786,123.055436 158.148768,122.906664 C157.792277,122.296839 156.73754,122.051927 155.79368,122.604207 C154.044908,123.628067 153.373329,124.063857 152.798593,124.400699 C152.4414,124.609821 151.939645,124.861751 151.307365,125.231576 C151.157189,125.319295 151.111575,125.399295 151.138944,125.446313 C151.350172,125.805611 151.976838,124.871576 152.536137,125.825962 L154.680698,129.488418 C155.093329,130.192979 153.646312,130.703856 153.830172,131.017541 C153.870873,131.087014 153.999996,131.096137 154.1614,131.002102 C154.632979,130.725611 155.442101,130.20912 157.202803,129.178944 C158.019645,128.700348 158.830873,128.266663 159.844207,127.674383 C159.994382,127.585962 160.028066,127.461049 159.986663,127.390172 L159.579645,126.588067 C159.531224,126.479997 159.437189,126.188067 159.172628,126.343155 C158.632277,126.659646 160.065259,127.049821 157.84561,128.350172 C156.454031,129.165611 156.403505,129.184558 156.08561,128.644207 L155.444908,127.548769" id="path132" fill="#1A1615"></path>
                        <path d="M162.215435,122.749471 C162.079996,122.566313 162.478592,122.275085 162.800698,122.038593 C164.435785,120.8414 164.799996,121.202804 165.117189,121.635085 C165.642101,122.351576 165.437189,123.334032 164.350171,124.130523 C163.952978,124.421751 163.618943,124.665962 163.29754,124.227365 L162.215435,122.749471 Z M161.851224,125.028067 C162.451926,125.847014 161.082101,126.435786 161.274382,126.698944 C161.328417,126.771927 161.462452,126.729821 161.591575,126.635085 C162.08561,126.272979 162.150873,126.180348 162.828768,125.684207 C163.548768,125.156488 164.301049,124.649821 165.02175,124.1214 C167.376838,122.395786 166.835785,121.207015 166.588768,120.870874 C166.247013,120.402102 165.736136,120.359997 165.295434,120.412629 C164.860347,120.473681 164.500347,120.636488 164.446312,120.562804 C164.415434,120.518593 164.551575,118.788769 164.650522,117.299646 C164.66175,117.111576 164.865961,116.961401 164.951575,116.898944 C165.058943,116.819646 165.199294,116.784558 165.306663,116.705962 C165.403505,116.635085 165.435084,116.544558 165.392978,116.485611 C165.226663,116.258243 164.399294,116.618243 163.96982,116.932629 C163.119996,117.555085 163.112277,118.268067 163.08982,118.936839 L163.03368,120.755085 C163.022452,121.258243 162.877189,121.46526 162.339645,121.858944 C161.769821,122.277892 161.795785,122.178944 161.609119,121.922804 L160.681399,120.656839 C160.108066,119.874383 161.392978,119.394383 161.199294,119.130523 C161.150873,119.06526 161.032978,119.084208 160.785961,119.265962 C160.603505,119.399295 160.334031,119.640699 159.882803,119.972629 C159.301049,120.39719 158.742452,120.762102 158.204908,121.156488 C158.08561,121.243506 157.844207,121.386664 157.952277,121.53333 C158.123505,121.767014 158.81754,120.887015 159.493329,121.80912 L161.851224,125.028067 Z" id="path134" fill="#1A1615"></path>
                        <path d="M166.801399,117.006313 C166.85754,117.127015 166.936838,117.410523 167.183855,117.18526 C167.339645,117.042102 167.305259,116.963506 167.264557,116.840699 C166.990171,115.910173 167.042803,114.743155 168.133329,113.743155 C168.900347,113.040699 169.784557,112.821752 170.274382,113.355787 C170.795083,113.924909 170.256136,114.578945 169.108066,116.503857 C168.495434,117.532629 168.154382,118.325611 168.797891,119.026664 C169.503154,119.795786 170.803505,119.63719 171.95368,118.583155 C172.759294,117.844909 172.932627,117.205611 173.228066,116.934734 C173.355785,116.818243 173.699645,116.699646 173.828066,116.583155 C173.975434,116.447716 173.853329,116.374734 173.732627,116.202804 L173.019645,115.207716 C172.904557,115.042804 172.802101,114.989471 172.585259,115.187366 C172.358592,115.395085 173.351575,116.77333 171.661048,118.322804 C171.011926,118.91719 170.33754,119.068067 169.926312,118.620348 C169.515083,118.171927 169.976136,117.590172 170.932627,115.988769 C171.696136,114.710173 172.081399,113.828067 171.303154,112.979646 C170.500347,112.103857 169.051224,112.336839 167.763505,113.51719 C167.163505,114.066664 166.80982,114.686313 166.317891,115.294734 C166.110873,115.560699 166.169119,115.604909 166.265961,115.811225 L166.801399,117.006313" id="path136" fill="#1A1615"></path>
                        <path d="M173.404206,109.498945 C172.581048,108.746664 173.896838,107.926313 173.682101,107.730524 C173.608417,107.663155 173.501048,107.727015 173.294031,107.952278 C172.960697,108.31719 172.655434,108.70526 171.95368,109.472278 C171.567013,109.896138 171.152978,110.294734 170.918592,110.550874 C170.83789,110.639295 170.866662,110.701752 170.901048,110.731927 C171.134031,110.946664 171.608417,110.079295 172.244206,110.659646 L175.456838,113.597892 C176.065961,114.154383 174.86175,115.094734 175.096136,115.308769 C175.20982,115.412629 175.414732,115.149471 175.496838,115.060348 C175.847715,114.676488 176.170522,114.268769 176.48561,113.924208 C176.80982,113.569822 177.160697,113.239997 177.672978,112.679295 C177.943153,112.384559 177.974732,112.322804 177.894031,112.24912 C177.666662,112.041401 177.232978,112.999295 176.597189,112.418243 L173.404206,109.498945" id="path138" fill="#1A1615"></path>
                        <path d="M180.426662,107.635787 C180.780346,107.891225 180.738943,108.02526 180.418241,108.468769 L179.762803,109.376839 C178.880697,110.59719 178.152276,109.578243 177.800697,110.064559 C177.637189,110.291225 177.84561,110.343155 177.955785,110.390874 L179.051925,110.918594 C179.134031,110.961401 179.237189,111.035787 179.35368,110.87298 C180.079294,109.867366 180.572627,109.122804 181.712276,107.54526 C182.851925,105.966313 183.404206,105.263155 184.12982,104.258243 C184.246311,104.096138 184.143855,104.021752 184.07789,103.957892 L183.487013,103.350173 C183.415434,103.265261 183.213329,102.938945 183.011223,103.220348 C182.698241,103.652629 183.764206,103.896138 182.837188,105.117892 L182.174031,106.036489 C181.854732,106.479997 181.739645,106.561401 181.38596,106.306664 L178.063153,103.907366 C177.15789,103.254033 178.371224,102.023857 178.164908,101.875085 C177.988066,101.748068 177.854732,101.979647 177.628767,102.293331 C177.315083,102.725611 177.087715,103.103857 176.564908,103.828068 C176.042101,104.552278 175.755785,104.887717 175.442803,105.319296 C175.302452,105.514383 175.162803,105.693331 175.323504,105.809822 C175.610522,106.017541 176.139645,104.540348 177.014732,105.172629 L180.426662,107.635787" id="path140" fill="#1A1615"></path>
                        <path d="M184.871574,101.293331 C185.224557,102.049822 184.657539,102.676489 184.91789,102.805611 C185.015434,102.854734 185.087013,102.711576 185.223855,102.43719 C185.330522,102.222454 185.441399,101.919997 185.737539,101.322804 C185.987364,100.821752 186.242802,100.308068 186.638592,99.5964887 C186.729118,99.4336817 186.682802,99.3663133 186.63368,99.3410501 C186.447013,99.2477168 186.184557,99.9368396 185.908767,99.7992958 C185.836487,99.7635063 185.750171,99.6912256 185.618241,99.4463133 L184.644206,97.6203484 C184.471574,97.2961379 184.407013,97.1599976 184.45403,97.064559 C184.490522,96.99298 184.597188,96.9424537 184.847013,96.8877169 L186.727013,96.4687695 C187.115083,96.3796467 187.223153,96.4484186 187.280697,96.4764888 C187.816136,96.7431555 187.060346,97.8119274 187.312978,97.9375414 C187.39368,97.9782432 187.475785,97.9136818 187.546662,97.7705239 C187.624557,97.6154362 187.71789,97.3487695 188.02596,96.7284186 C188.47789,95.821752 188.575434,95.7059625 188.742451,95.3726292 C188.818943,95.2168397 188.816837,95.141752 188.759995,95.1136818 C188.541048,95.0035064 188.435785,95.621752 187.192276,95.8814011 L184.399294,96.4421029 C184.178943,96.4799976 184.103855,96.4877169 183.811223,96.3424537 L182.602101,95.7396467 C181.579645,95.2308748 182.870171,94.0414012 182.456838,93.8350854 C182.367715,93.7908748 182.269469,93.9656117 182.167715,94.1684187 C182.120697,94.2638573 182.057539,94.4708748 181.315083,95.9635064 C180.780346,97.0364888 180.575434,97.3670151 180.40982,97.7010502 C180.314381,97.8919274 180.264557,98.0308747 180.338241,98.067366 C180.702452,98.2498221 180.903855,96.7270151 181.935434,97.2406993 L182.990873,97.7656116 C183.258943,97.8989449 183.301048,97.9789449 183.408416,98.2112256 L184.871574,101.293331" id="path142" fill="#1A1615"></path>
                        <path d="M67.0131913,12.0471576 C67.0131913,12.0471576 67.9920685,12.3999295 69.0838579,12.2447716 C70.809121,11.9978243 71.9922789,10.8645611 73.6196473,10.5685611 C74.300349,10.4440699 75.4428051,10.7656138 75.4428051,10.7656138 L75.2954367,9.92708747 C75.2954367,9.92708747 74.1101736,9.71024537 73.4217526,9.77908747 C71.9431561,9.92708747 70.3157877,11.2576839 69.3793667,11.455298 C68.4430158,11.6527015 66.8157878,11.2590173 66.8157878,11.2590173 L67.0131913,12.0471576" id="path144" fill="#1A1615"></path>
                    </g>
                </g>
            </g>
        </g>
    </g>
</svg>