<?xml version="1.0" encoding="UTF-8"?>
<svg width="200px" height="200px" viewBox="0 0 200 200" version="1.1" xmlns="http://www.w3.org/2000/svg" xmlns:xlink="http://www.w3.org/1999/xlink">
    <!-- Generator: Sketch 51.2 (57519) - http://www.bohemiancoding.com/sketch -->
    <title>eastern-nazarene</title>
    <desc>Created with Sketch.</desc>
    <defs></defs>
    <g id="eastern-nazarene" stroke="none" stroke-width="1" fill="none" fill-rule="evenodd">
        <g id="eastern-nazarene_BGL">
            <g id="eastern-nazarene" transform="translate(0.000000, 19.000000)">
                <path d="M199.934385,111.177385 C197.158991,76.5531946 179.235962,54.2797704 168.29653,41.1810934 C169.494953,40.219179 171.266246,39.4608677 174.049842,39.3344825 C157.04795,21.3565798 133.963722,15.316249 129.81735,13.8484786 C132.304101,11.917716 131.699685,12.6473463 134.364353,11.097 C119.056782,4.16314786 102.976972,1.50496109 86.6350158,4.44585992 C87.9539432,2.72216732 89.3753943,1.30198833 91.8116719,0.0847821012 C69.6839117,-0.0167042802 52.1236593,10.5309455 52.1236593,10.5309455 C52.1236593,10.5309455 53.5463722,7.79238911 55.7791798,5.76455253 C30.0993691,13.2688716 16.5990536,27.3647626 15.0444795,49.0601556 C10.6416404,53.2274008 6.42681388,59.9475642 12.0835962,61.6917432 C9.18643533,64.2931984 7.42555205,67.6041128 4.73217666,71.2273658 C-0.344479495,74.4355331 -3.46529968,86.2404163 6.75520505,92.5877276 C8.67823344,93.7816109 7.55425868,98.5423307 12.8192429,100.503665 C9.99652997,95.1885525 14.9473186,96.4435798 15.3334385,96.5425447 C21.8003155,98.1858677 19.7801262,105.47114 17.9649842,106.12765 C15.2403785,107.113833 14.2940063,105.188428 13.7429022,103.434479 C12.8,105.609817 11.5006309,110.089086 14.9940063,113.550654 C13.1403785,114.478844 11.8006309,116.19056 13.1905363,120.35686 C9.48422713,121.050245 4.61798107,135.632136 25.4700315,141.884265 C36.1283912,159.014346 57.115142,161.684825 57.115142,161.684825 C57.115142,161.684825 55.7337539,157.268591 55.7337539,155.060475 C62.3880126,158.781747 73.6902208,159.20093 87.5012618,155.060475 C79.7318612,153.302428 76.1059937,151.54249 74.5179811,148.714424 C91.644795,153.957992 105.105363,146.077984 107.391483,143.746634 C97.2921136,140.454315 100.379495,134.814257 103.958991,132.136214 C107.53817,129.460062 116.070978,129.792257 119.822082,141.260848 C124.516404,136.104899 124.089274,129.557136 121.933438,125.449144 C132.985174,119.377296 143.205994,124.719829 157.943849,129.118728 C153.245741,118.628755 149.380757,109.245047 143.303155,105.656148 C150.759937,104.003054 160.429338,103.451813 173.411987,114.490506 C174.794322,110.625514 172.034069,100.41321 170.095899,95.7234047 C179.997476,96.4757276 190.119874,102.670809 199.934385,111.177385" id="Fill-1" fill="#1A1919"></path>
                <path d="M7.1148265,76.4019105 C6.69179811,75.2423813 4.99495268,74.9776342 4.34731861,76.5941673 C3.7466877,78.0934553 1.79905363,82.4951907 5.15646688,87.6678444 C7.24574132,90.8886187 11.1719243,91.479572 12.6397476,90.3411595 C15.1258675,88.4085058 15.4009464,85.9227198 13.744795,83.8545409 C12.6640379,82.5033852 10.140694,82.0860934 8.77255521,79.8524475 C7.80946372,78.2822451 7.66656151,77.9197938 7.1148265,76.4019105" id="Fill-4" fill="#FFFFFE"></path>
                <path d="M30.6337539,103.137899 C30.5870662,104.797296 31.3006309,107.67642 34.0318612,108.595156 C38.9088328,110.235012 39.7794953,104.321696 38.5056782,101.426813 C38.1605678,100.646755 38.9362776,98.8887082 39.7716088,98.3059494 C40.6072555,97.7250817 39.2157729,96.8173774 38.3479495,97.2230078 C36.8678233,97.9116654 36.0570978,98.8121206 34.4539432,98.3907315 C30.6072555,97.3771284 30.6634069,102.039198 30.6337539,103.137899" id="Fill-5" fill="#BF1E40"></path>
                <path d="M55.4564669,132.016447 C45.1782334,118.176794 54.1208202,107.673584 57.9425868,105.379739 C63.4681388,102.071346 73.8280757,101.379222 78.9375394,106.897938 C80.0425868,94.894179 73.1375394,88.8220156 68.9930599,85.2331167 C79.462776,84.1627821 84.6271293,91.8672374 86.2577287,95.0306498 C90.9539432,80.6807276 82.6823344,69.0148366 80.5955836,67.2939805 C82.6154574,66.4010895 84.8283912,66.6693035 86.811041,67.7090661 C84.1870662,60.1193346 87.0242902,57.9058599 90.5400631,55.9785642 C88.5782334,53.7833696 85.7605678,53.9305564 83.1328076,54.077428 C80.9378549,54.2003463 78.8757098,54.3232646 77.5564669,53.0805292 C73.2735016,49.0462879 83.5394322,44.4144747 87.7488959,42.8726381 C92.1173502,41.2724942 99.6337539,41.2762763 99.3394322,46.9298872 C99.2050473,49.7368366 97.7917981,50.4740311 97.9870662,51.3395019 C98.1826498,52.2043424 99.8861199,51.0980778 100.701893,50.5301323 C103.141009,48.8310233 105.697161,45.3432957 103.461514,41.9917237 C100.3347,37.3038093 86.7533123,31.1459183 68.9564669,48.0175564 C61.5943218,44.3649922 46.0640379,42.4544008 38.6072555,51.5623307 C36.9479495,48.5275097 37.5018927,44.9382957 37.5018927,44.9382957 C37.5018927,44.9382957 30.5962145,47.5605525 28.2476341,53.2188911 C25.6230284,50.4592179 25.4842271,45.9049377 26.0381703,45.0766576 C20.9637224,44.893856 11.948265,56.2543424 13.1921136,57.0823074 C14.4359621,57.9105875 18.4413249,57.7731712 21.2031546,56.9439455 C19.4416404,58.1860506 7.01104101,69.6751284 7.94384858,72.9523191 C8.35141956,74.3879416 10.7063091,75.1601206 13.4678233,74.0566926 C16.2309148,72.9523191 17.4470032,72.2570428 21.1750789,73.3620467 C23.5930599,74.0774942 25.8318612,73.0093658 27.3589905,71.9409222 C28.6123028,71.0641051 29.3861199,70.1872879 29.3861199,70.2966537 C29.3861199,72.5044553 27.1429022,76.2644942 23.6892744,77.9197938 C21.0501577,79.1858521 20.055205,79.817463 18.9927445,81.2319689 C17.3359621,83.4397704 17.4214511,89.7076576 25.3476341,92.687323 C33.2722397,95.6660428 40.8167192,93.5127665 42.8883281,88.6836537 C46.1485804,81.0825759 42.1974763,74.6079339 40.2637224,71.7108444 C41.4987382,72.3881556 41.9583596,71.8728444 42.8129338,72.8561907 C47.2410095,77.9491051 46.3605678,87.1831051 47.1577287,89.8009494 C48.1246057,92.9725564 49.3798107,96.6872101 52.0041009,97.9302607 C49.9753943,99.0705642 48.2747634,103.171938 46.7555205,109.523031 C46.2097792,111.805529 44.0400631,111.723268 43.5403785,108.903397 C40.6277603,123.406809 53.7157729,132.061518 55.4564669,132.016447" id="Fill-6" fill="#FACA22"></path>
                <path d="M32.3621451,66.0862296 C37.8943218,64.7930661 38.933123,65.7477315 41.9255521,62.5042646 C46.1227129,57.9569183 46.6870662,56.1295331 56.6318612,55.7147626 C60.518612,55.5543385 62.2763407,53.6888171 63.2435331,53.2743619 C62.0340694,55.0194864 60.9419558,56.1701907 60.1533123,59.6651673 C59.1463722,64.1167004 57.1347003,70.0044864 44.2706625,68.3529689 C40.0798107,67.8146498 39.2747634,68.0210895 36.6880126,71.2516342 C36.6880126,69.5654475 36.0548896,66.402035 32.3621451,66.0862296" id="Fill-7" fill="#FFFFFE"></path>
                <path d="M20.7179811,105.838949 C21.2895899,105.446241 21.9851735,104.850875 22.285489,103.444564 C22.6097792,101.930778 22.1899054,99.9836265 23.2712934,99.2183813 C23.6876972,98.9218016 25.5315457,99.0916809 25.6981073,100.141529 C25.8662461,101.193268 26.1343849,101.589444 26.8958991,102.395661 C25.7148265,103.507284 24.8514196,105.890638 25.184858,107.556654 C25.2823344,108.041078 24.9933754,108.110416 24.5435331,108.230183 C24.0943218,108.354047 19.9205047,108.795292 19.4416404,107.245891 C19.226183,106.546202 20.4324921,106.035934 20.7179811,105.838949" id="Fill-8" fill="#BF1E40"></path>
                <path d="M21.2031546,56.9439455 C18.7835962,56.8579027 8.51041009,69.143428 7.98328076,71.8845058 C7.33059937,75.2770506 12.1403785,74.9265759 14.5182965,73.7115759 C17.2706625,72.3068405 19.1274448,73.299642 21.8205047,73.1871245 C25.184858,73.0446654 26.2324921,70.3521245 26.1287066,68.7778249 C22.6082019,71.7177782 15.3321767,71.8993191 15.3321767,68.2136615 C15.3321767,65.3474591 17.1750789,61.2536498 21.2031546,56.9439455" id="Fill-9" fill="#F2F1F0"></path>
                <path d="M67.155836,80.744393 C58.0214511,79.5202529 49.888959,81.5837043 44.3747634,83.8110467 C44.4006309,82.7536342 44.3063091,81.7094591 44.1362776,80.7185486 C48.5649842,78.2176342 55.7984227,75.1739883 66.0003155,73.8685331 C56.5962145,72.8230973 48.681388,75.4012296 43.4542587,77.9393346 C43.0514196,76.6622451 42.5962145,75.5969533 42.2507886,74.867323 C46.5539432,72.176358 53.8268139,68.7390584 64.1615142,67.0988872 C52.644164,66.6982996 43.7088328,70.7858054 39.0741325,73.747821 L36.2747634,73.6765914 C36.2747634,73.6765914 38.5432177,82.7454397 24.2164038,77.6433852 C21.8608833,78.820249 16.3728707,80.7998638 18.4063091,86.6485681 C19.3697161,89.4214786 21.3302839,91.2264864 23.626183,92.3935798 C24.2946372,94.446 26.1861199,97.3660973 28.7760252,100.144366 C27.7246057,96.9235914 27.8397476,95.1879222 28.6334385,93.9199728 C33.3731861,94.5985447 38.2268139,93.5792685 39.9529968,92.3409455 C42.1085174,90.7972179 43.3107256,88.8970272 43.9022082,86.9089027 C48.3637224,84.7310428 55.9413249,82.0214825 67.155836,80.744393" id="Fill-10" fill="#FFFFFE"></path>
                <path d="M32.1378549,66.0629066 C36.8347003,64.4069767 36.3113565,65.0417393 40.6589905,61.5681946 C45.492429,57.7041479 46.20347,55.9785642 56.1476341,55.5644241 C60.0343849,55.4030545 62.9949527,52.7555837 63.9621451,52.3404981 C62.455205,54.6557743 60.8435331,55.5644241 59.8772871,59.0140156 C59.1946372,61.4541012 58.0066246,68.320821 42.8605678,66.159035 C40.622082,65.840393 38.7009464,66.6834864 37.7432177,68.4046576 C36.8810726,66.6834864 34.2091483,65.9254903 32.1378549,66.0629066" id="Fill-11" fill="#1A1919"></path>
                <path d="M50.2088328,64.8100856 C48.2217666,64.8100856 46.6113565,63.2531206 46.5015773,61.2955681 C46.8769716,62.1566265 47.6056782,62.8616732 48.5804416,63.1516342 C48.9,63.2474475 49.2223975,63.2928327 49.5394322,63.2928327 C50.9621451,63.2928327 52.2728707,62.3750428 52.6993691,60.9536031 C53.0375394,59.8227549 52.7274448,58.6581829 51.9930599,57.8311634 C53.1466877,58.4646654 53.9378549,59.6761984 53.9378549,61.0850311 C53.9378549,63.1434397 52.2687697,64.8100856 50.2088328,64.8100856" id="Fill-12" fill="#FFFFFE"></path>
                <path d="M19.811041,44.1598132 C21.9902208,28.9280311 34.8697161,17.2236887 45.8324921,13.2688716 C36.1895899,19.7589572 30.9684543,28.593 26.5870662,40.2910389 C23.4413249,39.808821 19.811041,44.1598132 19.811041,44.1598132" id="Fill-13" fill="#FACA22"></path>
                <path d="M36.2362776,145.393739 C39.7302839,146.767903 42.0249211,146.78177 44.6148265,146.056868 C45.144795,148.567553 46.326183,150.822315 51.2268139,155.520946 C44.5116719,153.53156 39.8791798,151.681167 36.2362776,145.393739" id="Fill-14" fill="#FACA22"></path>
                <path d="M191.891798,97.108284 C167.090852,36.9322179 127.948896,67.4462101 112.617666,44.4686848 C108.921767,67.1471089 92.4104101,53.6557237 91.3132492,68.3227121 C90.2788644,75.1538171 92.5173502,88.6143152 105.320189,100.207086 C110.856782,105.219315 125.070978,107.590377 133.911041,107.450125 C127.072555,103.518315 123.344795,97.7225603 123.344795,95.8598755 C135.15205,89.0290856 150.707256,93.7510389 160.982334,98.1518288 C145.253628,78.4571673 133.9,78.6642374 121.194953,77.5381167 C136.185804,73.0720856 167.470978,72.7093191 191.891798,97.108284" id="Fill-15" fill="#FACA22"></path>
                <path d="M115.401262,25.0680817 C118.788328,20.0996615 138.053312,25.0680817 138.053312,25.0680817 C138.053312,25.0680817 123.865931,13.2991284 102.685174,16.6510156 C104.99306,13.5080895 110.705994,11.9580584 116.726498,10.5867315 C88.1772871,3.90659533 66.5460568,19.6410817 52.044795,32.6827121 C56.7927445,21.6862529 67.2479495,11.5448638 78.3116719,5.45977821 C56.1842271,9.61788327 35.407571,25.7384591 30.3249211,44.2899805 C35.2066246,40.1737938 43.1697161,37.1957043 46.5577287,37.3564436 C46.2602524,38.4759455 44.7290221,41.4902802 44.226183,43.1131167 C55.6832808,36.6640039 68.5479495,39.5610934 70.5126183,41.833821 C92.3347003,22.6525798 109.670347,36.3633268 113.605994,41.4196809 C129.228076,57.2411556 140.745426,37.0721556 166.644164,54.2542412 C155.250158,37.2804864 132.666246,27.345537 115.401262,25.0680817" id="Fill-16" fill="#FACA22"></path>
                <path d="M49.9324921,139.882272 C52.1302839,141.051257 56.1056782,141.373681 59.6902208,139.196136 C61.7397476,144.523226 65.9823344,150.207409 74.5179811,153.957992 C64.977918,154.794782 53.7996845,148.714424 49.9324921,139.882272" id="Fill-17" fill="#FACA22"></path>
                <path d="M93.3022082,98.4815019 C91.6712934,99.6662451 89.2116719,104.171988 88.6063091,108.69286 C87.1605678,108.474128 83.9097792,103.7257 83.9097792,103.7257 C83.9097792,103.7257 84.9949527,113.182214 82.4829653,116.845179 C81.0182965,115.691953 78.5056782,113.39086 72.3309148,110.672475 C63.7545741,106.895101 51.5574132,114.892354 57.229653,127.111377 C63.7902208,141.246035 82.8580442,143.355187 94.0886435,143.195393 C75.4252366,135.235016 67.5214511,126.254416 71.6359621,114.014276 C71.3365931,121.936833 79.7618297,131.522253 96.0643533,132.981198 C91.8684543,126.72056 91.5422713,122.836973 92.4574132,120.556366 C99.1164038,125.741942 112.237855,122.512973 115.667508,128.188961 C116.309464,122.802934 109.11735,120.634844 104.728076,117.733973 C109.135331,118.714482 112.553943,119.498638 118.821451,118.216506 C125.483596,116.445537 132.880757,115.122117 141.478864,119.102148 C128.270347,102.130599 106.635647,119.329074 93.3022082,98.4815019" id="Fill-18" fill="#FACA22"></path>
                <path d="M38.0378549,79.174821 C38.2892744,79.7865759 38.3611987,81.3318794 38.4690852,82.733463 C39.6570978,81.5458833 50.5981073,74.4276537 71.4536278,73.4603813 C52.3892744,71.6641984 42.3283912,77.0332062 38.0378549,79.174821" id="Fill-19" fill="#1A1919"></path>
                <path d="M38.4337539,85.0695409 C38.5056782,85.89593 38.5056782,86.7223191 38.1094637,88.5200778 C40.6996845,86.2911595 52.7135647,80.7217004 71.8135647,80.6123346 C52.7498423,78.8158366 42.7239748,82.9272957 38.4337539,85.0695409" id="Fill-20" fill="#1A1919"></path>
                <path d="M36.2747634,73.6765914 C36.5987382,74.1083813 37.1028391,75.1506654 37.6072555,76.6587782 C38.7927445,75.4730895 49.2050473,67.6069494 70.0624606,66.6415681 C52.9659306,65.303965 40.3760252,71.0893191 36.2747634,73.6765914" id="Fill-21" fill="#1A1919"></path>
                <path d="M36.1205047,127.186074 C39.4003155,131.656833 53.0930599,133.014292 55.4564669,132.016447 C47.8312303,128.226782 41.9271293,118.772475 43.5403785,108.903397 C42.2580442,111.305031 39.3466877,111.863837 36.3858044,111.701206 L36.3479495,111.681981 C28.4362776,111.340961 27.7205047,105.257136 27.7205047,103.849879 C26.4227129,105.535121 26.1479495,107.777907 26.815142,109.545409 L26.7892744,109.516412 C27.1864353,110.508268 26.873817,111.256179 25.4858044,111.138934 C24.9457413,111.042805 24.7873817,110.680984 24.59653,110.672475 C24.0350158,110.648521 23.8391167,111.265319 23.5429022,111.205436 C23.1246057,111.119393 22.8116719,110.639381 22.3993691,110.625514 C21.6981073,110.60156 21.6100946,111.066444 21.5132492,111.066444 C21.4173502,111.066444 20.9082019,110.517409 20.4637224,110.437039 C20.0858044,110.368961 19.4712934,110.97 19.4712934,110.97 C19.4712934,110.97 19.0807571,110.437984 18.5776025,110.362973 C18.3880126,110.333661 18.1940063,111.545195 19.5671924,111.640377 C20.8094637,111.726105 23.9403785,112.309809 24.4823344,112.43714 C25.0072555,112.559428 27.1435331,113.101844 27.9463722,113.193875 C32.7725552,114.113556 37.6621451,112.573926 40.1709779,113.06686 C39.537224,115.651296 35.5340694,117.75572 31.6334385,116.9183 C28.9574132,116.343105 26.9867508,115.182315 24.8350158,114.581276 C16.9861199,112.391125 17.2608833,116.764809 18.6801262,118.227537 C20.5630915,120.166494 30.322082,117.490658 31.7403785,123.153724 C30.859306,122.954218 27.0148265,122.335529 28.4280757,127.481393 C25.8167192,126.567385 24.577918,126.20714 22.4545741,123.316354 C21.5009464,123.413113 20.6028391,124.150938 20.9230284,127.307416 C18.092429,126.232984 17.9208202,121.681856 15.9495268,122.477043 C15.862776,122.535035 15.7586751,122.583887 15.6842271,122.647868 C12.7100946,125.207405 14.7725552,131.377272 21.8375394,133.730054 C21.9129338,133.122397 21.8246057,131.463 24.0400631,130.465786 C24.8772871,133.122397 28.8649842,139.128058 40.9823344,138.207432 C37.9435331,136.005934 33.3798107,128.794412 36.1205047,127.186074" id="Fill-22" fill="#FFFFFE"></path>
                <path d="M13.2091483,92.4897082 C14.5876972,91.985428 15.3567823,91.7897043 16.6170347,91.2866848 C17.6656151,91.8609339 19.9454259,92.9782296 21.0529968,93.4333424 C22.1694006,93.8922374 21.5615142,95.1333969 20.4637224,95.0602763 C20.0353312,95.0306498 19.7179811,94.111284 18.9498423,94.0750389 C18.6526814,94.0605409 18.4012618,94.6975097 17.8892744,94.5875136 C17.0365931,94.4047121 17.2022082,93.7954786 16.766877,93.7954786 C16.3321767,93.7954786 16.2072555,94.5875136 15.6047319,94.4485214 C15.1097792,94.3350584 14.9514196,93.6508132 14.5880126,93.6508132 C14.2258675,93.6508132 14.1567823,93.9559027 13.5,94.0022335 C13.2012618,94.0242957 12.1864353,92.8628755 13.2091483,92.4897082" id="Fill-23" fill="#FFFFFE"></path>
                <path d="M95.059306,86.8764397 C90.3312303,77.428751 90.3435331,69.4081751 91.581388,65.5113502 C93.8659306,58.3203152 100.884227,60.6163658 105.217666,57.6206265 C108.862461,55.0989105 109.88959,53.0471206 110.82776,51.0448132 C116.489274,62.6716226 148.157729,52.7499105 161.89306,67.1776809 C134.421136,58.0694358 112.76877,71.9935564 110.090221,76.5421634 C107.410726,81.0907704 132.98612,77.6764786 140.398738,87.7166965 C126.416719,83.3899728 115.71735,84.9715214 112.796215,88.6180973 C111.714511,90.3187821 111.116088,94.3627938 115.682965,97.5791556 C111.250473,97.972179 99.4189274,95.5866187 95.059306,86.8764397" id="Fill-24" fill="#FDDC7E"></path>
                <path d="M47.4059937,39.229214 C47.877918,35.3453113 50.6277603,26.2837121 54.2315457,22.3682918 C45.2694006,26.3287821 32.6665615,38.5311012 30.3249211,44.2899805 C36.544795,39.3735642 44.0157729,37.2956148 46.4709779,37.485035 C45.6460568,39.1330856 44.3675079,42.2340934 44.0637224,43.284572 C55.3167192,37.3655837 64.8839117,39.2982374 68.122082,40.4839261 C68.6630915,38.8607743 75.0911672,26.7949261 80.8649842,22.829393 C69.0230284,25.1248132 53.6504732,32.6382724 47.4059937,39.229214" id="Fill-25" fill="#FDDC7E"></path>
                <path d="M19.811041,44.1598132 C23.3381703,33.7398093 30.1182965,26.8355837 31.1605678,26.3149144 C28.5526814,30.2227704 27.2391167,33.1274241 26.5870662,40.2910389 C25.3176656,40.3556498 23.4214511,40.3877977 19.811041,44.1598132" id="Fill-26" fill="#FDDC7E"></path>
                <path d="M84.540694,33.3861829 C96.8873817,25.0813191 126.884227,31.2688366 135.110095,37.3674747 C118.66183,37.2332101 114.810726,40.6768132 113.605994,41.4196809 C107.415142,34.1801089 95.2977918,29.6002996 84.540694,33.3861829" id="Fill-27" fill="#FDDC7E"></path>
                <path d="M117.683281,114.122381 C96.2545741,107.592268 94.1050473,98.5959105 93.3022082,98.4815019 C90.4302839,101.044821 88.7507886,106.472136 88.6063091,108.69286 C87.7766562,109.005829 83.9097792,103.7257 83.9097792,103.7257 C83.9097792,103.7257 84.9880126,113.30135 82.4829653,116.845179 C77.8542587,113.191039 74.2463722,111.036502 70.9189274,110.130689 C65.1722397,108.564899 59.7318612,111.367121 57.4463722,115.313428 C53.4927445,122.139805 64.2003155,132.341078 73.6290221,136.659922 C61.7119874,120.543444 70.366877,113.55349 72.1794953,111.990222 C72.0911672,119.936732 82.2,126.651537 87.8561514,127.679008 C85.8943218,122.306218 89.6028391,115.061288 89.6028391,115.061288 C89.6028391,115.061288 90.9908517,120.404767 106.530284,121.775148 C95.9189274,116.545132 97.2605678,112.242362 97.2605678,112.242362 C97.2605678,112.242362 106.613565,116.600603 117.683281,114.122381" id="Fill-28" fill="#FDDC7E"></path>
            </g>
        </g>
    </g>
</svg>