<?xml version="1.0" encoding="UTF-8"?>
<svg width="200px" height="200px" viewBox="0 0 200 200" version="1.1" xmlns="http://www.w3.org/2000/svg" xmlns:xlink="http://www.w3.org/1999/xlink">
    <!-- Generator: Sketch 51.3 (57544) - http://www.bohemiancoding.com/sketch -->
    <title>elizabeth-city-st</title>
    <desc>Created with Sketch.</desc>
    <defs></defs>
    <g id="elizabeth-city-st" stroke="none" stroke-width="1" fill="none" fill-rule="evenodd">
        <g id="elizabeth-city-st_BGL" transform="translate(27.000000, 0.000000)">
            <g id="elizabeth-city-st" transform="translate(0.046784, -0.269006)">
                <g id="g10" transform="translate(73.000000, 100.387750) scale(-1, 1) rotate(-180.000000) translate(-73.000000, -100.387750) translate(0.000000, 0.387750)">
                    <g id="g12">
                        <path d="M6.68050391,56.6128531 C7.11432319,56.5203291 7.05543183,56.0552384 7.28097612,55.7543297 C8.88861411,53.6139239 11.345633,52.0412913 13.1138288,49.922026 C13.8875981,48.9943156 14.514345,48.0130675 15.6015151,47.4343123 C15.6015151,47.7777766 15.6015151,48.1206918 15.6015151,48.4641561 C15.8396064,49.5697761 16.1927624,50.5598098 16.5449574,51.55204 C17.0243523,52.159074 17.5044885,52.7650098 17.8315071,53.5249691 C17.4405728,54.1627529 17.0345382,54.7865346 16.7165523,55.4978983 C12.4926554,54.913103 9.1260465,56.2194204 6.33764364,57.7280825 C6.4188286,57.3225695 6.6886581,57.1064972 6.68050391,56.6128531 Z M17.1454297,56.869559 C18.6800369,58.6129629 20.3365725,60.4782677 21.7774203,62.274111 C23.0974104,63.9189507 24.4108661,65.8309294 25.551217,67.5062444 C26.1709078,68.416109 26.7606451,69.3284446 27.2670558,70.2512131 C27.5271113,70.7250895 27.915053,71.1800218 28.1248105,71.623423 C28.6327313,72.6977441 28.4476834,74.2563746 28.6393206,75.5690067 C28.9770193,77.8826546 29.8152259,80.3926071 30.3549947,82.3457685 C30.5326297,82.9887688 30.6440977,83.6984851 30.8697793,84.2324884 C30.9337499,84.3848646 31.159706,84.4312638 31.212969,84.5756781 C31.480657,85.3076332 31.6824526,86.088733 31.9847341,86.891797 C32.3422005,87.8420207 32.8438067,88.9451698 33.0140288,89.8940208 C33.394283,92.0152079 33.3001117,95.0083715 33.0140288,97.0990833 C32.5838061,100.243525 31.265683,102.823763 29.5829551,104.561401 C29.5255738,104.561401 29.468467,104.561401 29.4113602,104.561401 C28.8567656,103.741315 28.2689502,102.91711 27.5243658,102.417426 C24.6026406,100.455479 22.5442435,97.6704256 20.6622733,94.6973043 C16.744337,94.1690666 13.8632454,92.7784618 10.6264446,91.3524399 C9.92526675,92.7381027 9.40897212,94.3093626 8.91082535,95.8981938 C7.91096266,95.9061558 6.41709893,95.853991 5.82296886,95.983854 C6.01065246,95.2216982 6.79795716,94.3332486 6.85209878,93.153225 C5.4650906,89.5579694 2.86456353,86.2287544 1.96283113,82.0882389 C1.76699883,81.1885327 1.57030718,80.0101564 1.70565298,78.9146948 C1.97108965,76.7674253 3.0287455,74.5150024 3.67844485,72.2241423 C4.52420163,69.2419608 5.12511312,66.191965 5.30818426,62.6170261 C5.59281209,61.8150604 5.57125978,60.7066948 5.73717142,59.7861227 C8.3686954,57.9677662 12.793372,55.9596944 17.1454297,56.869559 Z M5.56546674,101.044667 C5.37188027,99.8748019 5.51945186,98.3922222 5.65137399,97.2706782 C8.03665246,96.9609838 11.1501246,96.9044261 13.6285036,97.0134232 C14.4648982,97.0502131 15.1240421,97.0916704 15.6015151,97.1847435 C16.0411275,97.2706782 16.5466871,97.1910582 16.9738348,97.2706782 C19.2282893,97.691017 21.7759377,98.5962142 23.1498772,99.8440521 C23.6436312,100.29267 23.9584048,100.910137 24.4366191,101.387857 C25.9052515,102.856709 27.3972758,104.079837 28.5536604,105.67663 C22.6349828,102.641186 13.8958622,101.789526 5.56546674,101.044667 Z M50.2547828,154.569362 C41.4416704,149.621664 34.4405999,143.290225 27.7816208,136.298764 C27.6943133,136.186198 27.697608,135.982755 27.6103005,135.869914 C24.7873041,133.003868 22.2965977,129.784474 19.804299,126.606262 C17.5979185,123.792106 15.8010868,120.713008 13.6285036,117.856846 C11.6492598,114.118 9.2609887,110.787686 7.70985347,106.620539 C6.82733421,105.187104 6.33174077,103.366552 5.73717142,101.645386 C6.11382902,101.668998 6.01891647,102.164289 6.25162656,102.331491 C8.83562562,102.263677 10.86967,102.74579 13.2854237,102.846276 C13.4207503,102.853963 13.3527713,103.065094 13.5427062,103.017596 C15.3394005,103.095294 17.1814783,103.594155 18.603684,103.875571 C23.2346863,104.791475 27.2669735,105.556377 30.26906,108.078409 C30.5326297,108.299973 30.6921443,108.621198 30.9554395,108.850449 C32.2828974,110.005763 33.9049493,110.808003 35.3301476,112.195862 C34.9929981,113.431345 34.9358913,114.946871 34.6440427,116.227381 C34.0639148,124.474642 38.382889,128.264829 42.7924652,131.238225 C45.6200741,132.818271 48.5522872,134.308263 51.5418816,135.784254 C54.552891,137.271226 57.802486,138.252474 60.8914682,139.730112 C61.0010143,139.72517 61.0103491,139.620017 61.1487232,139.644177 C61.3787976,140.014548 61.9753986,140.018666 62.1780178,140.416217 C59.0846428,146.014328 54.8351303,150.4574 50.2547828,154.569362 Z M76.6740776,189.566203 C75.5750468,188.378218 74.3711373,187.368416 73.4148734,186.22079 C72.4072683,185.011938 71.3326726,183.427775 70.5839699,182.103611 C69.9870943,181.047411 69.290831,180.036511 68.69725,178.929793 C67.5575855,176.807233 66.5524515,174.530924 65.6090915,172.325449 C65.2071477,171.385933 64.7728068,170.252858 64.4941367,169.494271 C64.0669341,168.332368 63.7393938,167.069155 63.3789073,165.891877 C61.6560949,160.26082 59.6925005,154.997937 55.7447203,151.052353 C58.4180311,147.950193 61.2154393,144.228643 63.8077572,140.759407 C65.5423754,141.546821 67.4107003,142.342747 69.1260999,142.903656 C69.3896696,149.59009 70.308869,156.107126 70.9271596,162.718059 C71.387583,167.639949 71.1726089,172.530814 71.8707941,176.699883 C72.2507738,178.970152 73.1938592,181.035056 73.6718539,183.132906 C74.4768397,185.013311 75.5791651,187.19188 76.5024828,188.880099 C76.6079107,189.072559 76.8355141,189.375115 76.7600124,189.566203 C76.731459,189.566203 76.7029056,189.566203 76.6740776,189.566203 Z M91.5992619,180.216617 C91.3625983,179.35123 91.2873711,178.431756 91.0847519,177.557583 C90.2248557,173.847564 89.2348219,169.959911 88.1681882,166.320727 C87.0065596,162.356474 85.3839585,158.07429 83.7080944,154.740957 C83.2800682,153.890395 82.8877337,153.03297 82.4212702,152.253243 C80.4832091,149.014081 78.3570801,146.90717 75.3878025,144.96252 C73.8220337,143.937069 72.2032763,142.789717 70.2410547,142.217826 C70.2558805,142.002577 70.049143,142.009166 69.9837997,141.874636 C60.2822377,137.558682 48.6041775,134.071051 40.6482158,127.807152 C40.0708334,127.352768 39.3951614,126.910191 38.9328162,126.434667 C36.6669403,124.104821 35.7573502,119.901433 36.0162526,115.541276 C37.4120739,107.540837 43.5428153,104.774179 53.0856863,105.333441 C54.8115188,105.728521 56.3989773,105.979186 57.8892444,106.44867 C64.9677385,109.984622 71.2991773,115.078382 77.274797,120.087304 C78.9731743,121.510855 80.0689105,123.506847 81.6495051,124.976523 C81.9287243,125.897918 82.7677546,126.259778 83.021715,127.206432 C84.4007886,128.600881 85.1102304,130.664687 86.3671285,132.18186 C87.0046378,133.77426 87.7459276,135.263155 88.5973127,136.641954 C88.5311457,136.965101 88.7019169,137.052134 88.6832474,137.328333 C90.6762188,141.368363 91.9040144,146.08324 92.4569617,151.395543 C92.7147658,153.873098 92.7402991,156.072258 92.9720208,158.514945 C93.1106695,159.979954 93.4557811,162.471786 93.5719165,163.747628 C94.0147685,168.578092 94.2486867,173.103529 94.6874204,177.728903 C95.231033,183.467859 96.582926,188.548715 98.4616838,192.997277 C98.5478931,192.998101 98.5693081,193.147457 98.4616838,193.168872 C95.3197132,189.587344 93.0030452,185.344695 91.5992619,180.216617 Z M61.4059782,106.53433 C61.2343833,106.2768 62.6485996,106.431099 62.8643973,106.620539 C65.9896203,106.783074 68.954505,107.106221 72.299644,107.049389 C72.0459582,106.559863 71.8351024,106.026958 71.6132646,105.50531 C69.9722685,105.401804 67.9117574,105.718637 66.5524515,105.333441 C61.8073729,105.27551 57.9576078,104.797241 53.9436606,103.961231 C44.9762501,103.276499 38.6596372,105.187928 35.8449323,111.080633 C34.3950243,110.048593 32.9577457,108.768083 31.3842894,107.563899 C31.0430215,107.3028 29.9601892,106.667488 29.9258703,106.44867 C29.9050043,106.313865 30.597973,105.411139 30.6981844,105.24778 C31.440847,104.037831 32.1689584,102.876751 32.8424339,101.731047 C41.4089988,102.88032 42.0443116,95.9937378 45.1085841,91.4378255 C45.7351113,87.7077649 47.2429497,84.8211274 48.3680629,81.4877941 C48.7126254,80.4661869 49.1914437,79.4097117 49.397083,78.3139755 C49.614528,77.1570142 49.2760057,75.4366727 49.6546126,74.3681172 C49.7561968,71.1067165 50.507645,67.5924536 51.027097,64.4183604 C51.2343836,63.1537749 51.9778698,61.5729057 51.8847968,60.4725021 C51.8175316,59.6752037 51.0496102,59.0330271 51.027097,58.242318 C50.5364729,58.8419391 50.6377826,59.6669672 50.5123124,60.3865674 C49.8511917,64.182795 49.0818976,68.4734903 48.5393832,72.6529922 C48.3861833,73.8343885 48.3952436,75.5898726 48.1105333,76.7698962 C48.2579677,80.2578021 46.6260318,82.2724631 45.794689,84.9188678 C45.1978134,86.8195898 44.750294,88.7568273 44.0792895,90.5798511 C43.5584647,91.9943419 42.5920424,93.5159079 41.8491053,94.9548339 C40.7920809,97.0016174 40.0189431,98.8317796 38.417757,100.101307 C37.4798881,100.611973 34.9155745,100.844519 33.3572185,100.444497 C33.9562905,97.1981965 34.9345185,91.978967 33.7860684,88.5212618 C33.6559309,88.1294764 33.4255819,87.7294545 33.2712838,87.3206469 C32.222496,84.5377899 31.1591569,81.5539611 30.3549947,78.3139755 C30.2127769,77.7423587 29.8912767,76.6523881 29.7542754,75.8265363 C29.5568727,74.6327851 29.7188582,73.5708188 29.4970204,72.3098024 C29.2867137,71.1122075 28.3098584,69.7586672 27.6103005,68.535539 C27.2625532,67.9282305 26.9469285,67.3209219 26.5807862,66.7344793 C25.7429914,65.3919211 24.6596924,64.169891 23.6644422,62.8742812 C22.7270949,61.6547221 21.7161953,60.6380569 20.7479609,59.443482 C24.7006556,60.7264625 29.6908539,62.187078 34.558108,62.8742812 C35.4136114,62.9948094 36.2729585,62.7858755 36.8739523,63.1318107 C37.5103634,63.4980628 38.536638,66.6996112 38.6752866,67.7634994 C38.8768076,69.3086768 38.8262901,70.0587523 38.6752866,71.7093577 C38.2785593,76.0417849 39.5994279,80.074127 42.0207002,82.2595592 C42.2966247,82.078355 42.6252632,81.9498648 42.7068051,81.5737288 C41.5034446,80.039808 40.0927975,78.3002479 39.790516,75.7406016 C39.6576329,74.6160375 39.6957956,73.8220337 39.790516,72.8243125 C40.1759867,68.7565532 39.2834188,64.6330599 37.5600573,62.1879017 C33.3761626,61.6220505 29.280399,61.0029362 25.3799516,59.9577175 C23.9403668,59.5722468 22.3809126,59.260356 21.520028,58.8430373 C20.1618478,58.184113 19.0963672,56.6746273 18.003102,55.8405389 C18.1590199,55.1961659 18.5113248,54.7472737 18.7751691,54.2110741 C22.0055454,56.8313963 26.036954,57.7634996 31.212969,58.4136383 C38.2760883,58.9199118 45.4221222,58.1561087 50.0834625,56.1840032 C49.9500303,55.8021017 49.834444,55.4034525 49.6546126,55.0687738 C45.2686478,57.0639417 38.3279786,57.7030982 31.5558842,57.1270886 C29.5069042,57.052136 27.5400152,56.7998229 25.8088289,56.3555981 C21.5128622,55.2527235 17.2591216,53.0909028 16.7165523,48.0353062 C16.5832574,46.7929593 16.624852,45.8828201 16.5449574,44.5185723 C16.2875651,44.2873997 16.019987,44.912005 15.77311,45.2046772 C15.4970482,45.531943 15.0656999,45.8748581 15.0010429,46.2339719 C12.9008316,48.5083589 10.5154433,50.497212 8.56763562,52.9239753 C6.61702754,54.4620144 5.20994963,56.5431169 4.62202443,59.443482 C4.64390621,60.3511502 4.2886911,60.882957 4.36482432,61.8452611 C4.47069148,62.1225584 4.08706027,61.9106044 4.19322945,62.1879017 C4.11709624,64.7684139 3.65700235,67.3881871 3.07808245,69.4794481 C2.41541328,71.8718923 1.87531775,74.4806834 1.19108253,76.5985759 C0.824083663,77.7338475 0.310479634,79.361116 0.590500493,80.9732841 C0.808211824,82.2257893 1.14904316,83.7168801 1.53405811,84.7475475 C1.59261452,84.9032184 1.80335498,84.9290262 1.87724785,85.0904627 C2.16005815,85.7093024 2.3272547,86.5153865 2.6492106,87.2349867 C3.23907962,88.5533844 3.8910303,89.6293528 4.62202443,91.0946357 C5.02473699,91.9023671 5.6612304,92.7779127 5.56546674,93.5823495 C5.42679063,94.7480964 4.61472135,95.6121108 4.45042956,97.0134232 C3.90700921,101.648406 5.44815076,104.23743 6.68050391,107.563899 C10.720808,115.561867 15.3098039,123.038462 20.8338682,129.694421 C23.1937232,132.537404 25.5483342,135.35458 27.9532157,138.100373 C28.7686345,139.031103 29.8382882,139.899511 30.7838446,140.845067 C33.8006196,143.862116 36.9022312,146.742439 40.3906862,149.422614 C43.4703336,151.788976 46.984871,154.1169 50.5123124,155.942121 C51.8545961,154.538886 53.420914,153.36051 54.7154257,151.910053 C60.9414366,156.978004 61.8370245,167.376104 65.5234314,174.984209 C65.5047618,175.260133 65.6749839,175.347166 65.6090915,175.670314 C69.2120346,182.961037 73.6636173,189.40312 80.3626809,193.597722 C76.6751759,187.31735 73.388791,181.744498 72.5566245,173.52579 C72.408092,172.054192 72.4253887,170.136997 72.299644,168.808166 C71.9814385,165.454242 72.1431495,162.041838 71.785134,158.601155 C71.7217125,157.995493 71.5152496,157.418935 71.4419442,156.799546 C71.2091243,154.835951 71.21791,153.09996 70.9271596,151.052353 C70.6130724,148.838917 70.3926073,146.021466 70.3267149,143.504376 C72.1069087,144.026573 73.5763098,145.109131 75.0446128,146.0772 C76.5453129,147.06696 77.8206059,148.170109 79.0761312,149.508549 C81.5512156,152.147815 82.8855373,155.712046 84.5657942,159.201325 C84.5196695,159.532983 84.7189941,159.620291 84.6517289,159.973364 C84.9627961,159.89045 84.7236615,160.358561 84.9943696,160.316554 C87.4538045,167.521068 89.3545265,175.284843 91.170412,183.132906 C92.2548916,185.450123 93.2718314,187.66658 94.6014857,189.737798 C96.4656923,192.641458 98.7774184,195.369405 101.377698,197.62924 C99.1299429,192.206843 96.8278261,186.605162 96.0599048,179.959362 C95.7202842,177.021658 95.6700413,173.949698 95.3735253,170.78137 C95.0893642,167.745926 95.0943062,164.094661 94.515551,161.174254 C94.3066171,160.118053 94.3348959,158.463879 94.258296,157.657246 C93.8113257,152.943466 93.8140712,148.338409 92.6288311,144.19048 C91.3782477,139.814399 89.5513801,135.86305 87.7393383,132.18186 C85.8907811,128.42654 83.618316,124.930947 81.134446,121.974299 C80.2023427,120.86511 78.9207349,119.530788 77.789307,118.628885 C76.193612,117.357436 74.6945593,115.583282 72.9860235,114.254452 C70.5194502,112.336708 67.6056321,110.443947 64.7513917,108.593194 C63.7503759,107.944153 62.7260232,107.312959 61.6635078,106.620539 C61.52431,106.529937 61.5973408,106.38113 61.4059782,106.53433 Z" id="path16" fill="#FFFFFF"></path>
                        <path d="M98.4616838,193.168872 C98.5693081,193.147457 98.5478931,192.998101 98.4616838,192.997277 C96.582926,188.548715 95.231033,183.467859 94.6874204,177.728903 C94.2486867,173.103529 94.0147685,168.578092 93.5719165,163.747628 C93.4557811,162.471786 93.1106695,159.979954 92.9720208,158.514945 C92.7402991,156.072258 92.7147658,153.873098 92.4569617,151.395543 C91.9040144,146.08324 90.6762188,141.368363 88.6832474,137.328333 C88.7019169,137.052134 88.5311457,136.965101 88.5973127,136.641954 C87.7459276,135.263155 87.0046378,133.77426 86.3671285,132.18186 C85.1102304,130.664687 84.4007886,128.600881 83.021715,127.206432 C82.7677546,126.259778 81.9287243,125.897918 81.6495051,124.976523 C80.0689105,123.506847 78.9731743,121.510855 77.274797,120.087304 C71.2991773,115.078382 64.9677385,109.984622 57.8892444,106.44867 C56.3989773,105.979186 54.8115188,105.728521 53.0856863,105.333441 C43.5428153,104.774179 37.4120739,107.540837 36.0162526,115.541276 C35.7573502,119.901433 36.6669403,124.104821 38.9328162,126.434667 C39.3951614,126.910191 40.0708334,127.352768 40.6482158,127.807152 C48.6041775,134.071051 60.2822377,137.558682 69.9837997,141.874636 C70.049143,142.009166 70.2558805,142.002577 70.2410547,142.217826 C72.2032763,142.789717 73.8220337,143.937069 75.3878025,144.96252 C78.3570801,146.90717 80.4832091,149.014081 82.4212702,152.253243 C82.8877337,153.03297 83.2800682,153.890395 83.7080944,154.740957 C85.3839585,158.07429 87.0065596,162.356474 88.1681882,166.320727 C89.2348219,169.959911 90.2248557,173.847564 91.0847519,177.557583 C91.2873711,178.431756 91.3625983,179.35123 91.5992619,180.216617 C93.0030452,185.344695 95.3197132,189.587344 98.4616838,193.168872" id="path18" fill="#264391"></path>
                        <path d="M76.7600124,189.566203 C76.8355141,189.375115 76.6079107,189.072559 76.5024828,188.880099 C75.5791651,187.19188 74.4768397,185.013311 73.6718539,183.132906 C73.1938592,181.035056 72.2507738,178.970152 71.8707941,176.699883 C71.1726089,172.530814 71.387583,167.639949 70.9271596,162.718059 C70.308869,156.107126 69.3896696,149.59009 69.1260999,142.903656 C67.4107003,142.342747 65.5423754,141.546821 63.8077572,140.759407 C61.2154393,144.228643 58.4180311,147.950193 55.7447203,151.052353 C59.6925005,154.997937 61.6560949,160.26082 63.3789073,165.891877 C63.7393938,167.069155 64.0669341,168.332368 64.4941367,169.494271 C64.7728068,170.252858 65.2071477,171.385933 65.6090915,172.325449 C66.5524515,174.530924 67.5575855,176.807233 68.69725,178.929793 C69.290831,180.036511 69.9870943,181.047411 70.5839699,182.103611 C71.3326726,183.427775 72.4072683,185.011938 73.4148734,186.22079 C74.3711373,187.368416 75.5750468,188.378218 76.6740776,189.566203 C76.7029056,189.566203 76.731459,189.566203 76.7600124,189.566203" id="path20" fill="#264391"></path>
                        <path d="M114.930673,180.388212 C114.745076,179.70952 113.807207,179.02616 114.415888,178.329622 C115.053947,178.263181 115.430906,178.458113 115.702712,178.758198 C117.589707,178.987449 117.865357,177.604257 118.189877,176.271033 C117.898852,174.646785 117.273149,173.356666 116.388817,172.325449 C116.345164,172.6464 114.866702,173.210879 114.845013,173.611725 C114.812616,174.204482 116.631796,174.789552 115.788098,175.927843 C114.761823,176.010483 114.342857,175.413059 113.386594,175.670314 C112.842706,175.81665 112.144247,176.652386 112.014384,177.214393 C111.629737,178.877079 112.914639,180.895583 113.643849,181.674487 C114.180048,181.352712 114.608624,180.923862 114.930673,180.388212" id="path22" fill="#264391"></path>
                        <path d="M89.025888,176.699883 C88.7875771,175.480324 88.4839228,174.325285 88.1681882,173.182875 C87.3999923,173.987037 86.8728529,175.03253 85.7664092,175.498993 C86.7767598,176.106851 88.0004371,176.431371 89.025888,176.699883" id="path24" fill="#FFFFFF"></path>
                        <path d="M111.499325,166.749577 C113.205938,167.202588 111.237951,169.769098 110.38437,169.837461 C109.490155,168.746941 110.104601,166.379207 111.499325,166.749577 Z M110.213049,173.697659 C111.507561,172.841332 112.510499,171.516071 113.815443,170.43818 C115.099248,169.377312 116.537075,168.234902 116.817667,166.063198 C116.58622,165.43063 116.514013,164.284651 116.217222,163.575758 C115.816926,162.620318 114.704442,161.184687 114.587483,161.174254 C114.254452,161.144053 113.317406,162.363612 113.043404,162.546464 C113.804461,163.557089 115.488013,165.777938 113.643849,166.663917 C113.423658,164.970756 112.829803,163.465114 111.24207,163.575758 C109.473681,163.699032 108.725253,165.561317 108.154186,167.006832 C107.892812,170.184769 109.153829,171.839767 110.213049,173.697659 Z" id="path26" fill="#264391"></path>
                        <path d="M110.38437,169.837461 C111.237951,169.769098 113.205938,167.202588 111.499325,166.749577 C110.104601,166.379207 109.490155,168.746941 110.38437,169.837461" id="path28" fill="#FFFFFF"></path>
                        <path d="M50.3409921,163.146909 C49.2869878,160.598519 48.1819168,158.100372 47.6816835,154.998212 C42.9549999,152.366358 38.6848959,148.95313 34.9012978,145.64835 C33.6309466,150.533999 30.7006554,153.685854 25.6372341,154.569362 C26.6197176,155.48609 28.2000377,155.274685 29.2397654,156.113441 C33.5672506,157.290994 37.2267514,158.977291 41.5059156,160.230894 C43.379457,161.123736 45.4514993,161.658014 47.7673436,162.460804 C48.660186,162.769949 49.5074528,163.469781 50.3409921,163.146909" id="path30" fill="#FFFFFF"></path>
                        <path d="M110.556239,159.286985 C110.175161,158.552834 110.007136,157.605904 109.52667,156.971141 C108.656341,156.869007 107.219337,160.331655 105.924276,159.115665 C105.75323,156.657328 107.466982,156.083515 108.58331,154.912551 C108.245611,153.963151 107.924111,152.998102 107.468081,152.167583 C105.852343,153.582623 104.446089,155.207145 102.921778,156.713886 C102.979159,157.800013 103.463194,158.45976 103.608157,159.458854 C103.978253,159.456933 103.923892,159.031377 104.294262,159.030005 C104.416712,160.479638 104.440324,162.028385 105.066027,162.975588 C107.807152,164.091092 108.981136,160.406607 110.556239,159.286985" id="path32" fill="#264391"></path>
                        <path d="M99.3193836,155.427061 C101.037529,154.946047 99.8402084,153.211429 99.3193836,152.167583 C98.8844936,152.361691 98.6697941,152.776264 98.2898144,153.025282 C98.6467317,153.812422 98.9965107,154.605602 99.3193836,155.427061" id="path34" fill="#264391"></path>
                        <path d="M62.1780178,140.416217 C61.9753986,140.018666 61.3787976,140.014548 61.1487232,139.644177 C61.0103491,139.620017 61.0010143,139.72517 60.8914682,139.730112 C57.802486,138.252474 54.552891,137.271226 51.5418816,135.784254 C48.5522872,134.308263 45.6200741,132.818271 42.7924652,131.238225 C38.382889,128.264829 34.0639148,124.474642 34.6440427,116.227381 C34.9358913,114.946871 34.9929981,113.431345 35.3301476,112.195862 C33.9049493,110.808003 32.2828974,110.005763 30.9554395,108.850449 C30.6921443,108.621198 30.5326297,108.299973 30.26906,108.078409 C27.2669735,105.556377 23.2346863,104.791475 18.603684,103.875571 C17.1814783,103.594155 15.3394005,103.095294 13.5427062,103.017596 C13.3527713,103.065094 13.4207503,102.853963 13.2854237,102.846276 C10.86967,102.74579 8.83562562,102.263677 6.25162656,102.331491 C6.01891647,102.164289 6.11382902,101.668998 5.73717142,101.645386 C6.33174077,103.366552 6.82733421,105.187104 7.70985347,106.620539 C9.2609887,110.787686 11.6492598,114.118 13.6285036,117.856846 C15.8010868,120.713008 17.5979185,123.792106 19.804299,126.606262 C22.2965977,129.784474 24.7873041,133.003868 27.6103005,135.869914 C27.697608,135.982755 27.6943133,136.186198 27.7816208,136.298764 C34.4405999,143.290225 41.4416704,149.621664 50.2547828,154.569362 C54.8351303,150.4574 59.0846428,146.014328 62.1780178,140.416217" id="path36" fill="#264391"></path>
                        <path d="M101.120443,153.711662 C102.943742,152.446802 104.286025,150.701202 105.924276,149.251294 C105.592343,148.324956 105.301318,147.357984 104.894707,146.506599 C104.337641,146.492872 104.203934,146.902228 104.037007,147.27809 C103.28803,147.793424 102.469042,148.984155 101.549568,149.765804 C101.107265,150.142214 100.31079,150.425277 100.262469,151.138013 C100.205088,151.995713 101.161626,152.597531 101.120443,153.711662" id="path38" fill="#264391"></path>
                        <path d="M98.7186643,148.136339 C99.4544631,147.156463 99.864918,145.851244 100.348678,144.61933 C101.474341,144.27065 102.701862,143.81709 103.693817,143.590036 C103.286108,142.768302 102.775442,142.049251 102.492928,141.102596 C101.178374,141.332122 100.121075,141.818628 99.0615795,142.303486 C98.5119268,143.297089 98.1583041,144.488095 97.6034349,145.47703 C97.9186204,146.420115 98.3493922,147.24734 98.7186643,148.136339" id="path40" fill="#264391"></path>
                        <path d="M95.202205,145.39137 C97.4678064,143.396751 99.5123935,141.181393 101.635228,139.043733 C101.262936,138.186856 100.920021,137.300329 100.519999,136.470633 C98.9890978,137.569939 97.2833076,139.536279 95.6305058,141.188257 C95.238995,141.580042 94.1377677,142.336432 94.0869757,142.817996 C94.0238287,143.413773 95.0761857,144.629214 95.202205,145.39137" id="path42" fill="#264391"></path>
                        <path d="M92.3713015,139.730112 C94.1874616,139.199403 92.805917,137.555113 92.4569617,136.384973 C90.5732619,137.021384 91.8543205,138.474587 92.3713015,139.730112" id="path44" fill="#264391"></path>
                        <path d="M94.258296,138.014713 C95.9132941,136.63509 97.3796752,134.718169 98.9761939,133.55407 C99.0209458,132.250772 98.2667521,131.747244 97.9466247,130.809375 C96.7298112,131.308236 96.2054172,132.499242 95.202205,133.211154 C94.7269559,134.19405 93.7564153,134.681654 93.1433412,135.527273 C93.569171,136.302058 93.7975981,137.274521 94.258296,138.014713" id="path46" fill="#264391"></path>
                        <path d="M90.2270521,134.669299 C92.2554407,131.808469 93.4294241,128.09296 95.202205,124.976523 C94.7189939,123.829994 94.168243,122.750457 93.6578512,121.631109 C90.8404008,122.661502 88.630808,123.747903 86.0239388,124.890588 C86.4505922,125.779312 86.8278264,126.717456 87.2245537,127.635282 C88.8013046,126.720476 90.6144447,126.135131 92.3713015,125.233778 C91.5978892,127.405208 90.1652779,129.6612 89.1118227,131.83867 C89.4533651,132.811956 89.9431655,133.637808 90.2270521,134.669299" id="path48" fill="#264391"></path>
                        <path d="M83.021715,120.687749 C84.9666398,118.600881 87.1177531,116.72075 88.5973127,114.168792 C88.9122236,112.041839 87.7052939,108.985254 86.6246581,107.906814 C86.2306763,107.514205 85.2903364,107.031269 84.7373891,107.135049 C84.3436818,107.208629 82.7850513,108.747217 82.4212702,109.279573 C81.6824514,110.360209 80.1158589,111.423823 79.5047066,112.281523 C79.427283,112.390794 79.4105353,112.739475 79.5047066,112.967902 C79.8251085,113.744884 80.6166413,114.559479 80.6199359,115.369681 C82.3861276,113.847566 83.7336278,111.907034 85.5950889,110.480188 C86.3525773,110.620484 86.5488818,111.544077 86.3671285,112.367183 C84.906513,114.194874 83.3492553,115.926198 81.9064856,117.771186 C82.2192001,118.802951 82.7290428,119.636216 83.021715,120.687749" id="path50" fill="#264391"></path>
                        <path d="M79.0761312,107.735494 C78.7085064,106.894267 77.3412385,105.521234 78.5616212,104.647336 C80.3267146,104.510334 80.6166413,105.176946 81.7351653,105.07646 C84.4493843,104.832384 83.7885381,100.919197 82.7644599,99.1573981 C82.5242271,98.7447467 81.6129898,97.6245754 81.3063154,97.6138679 C80.6185632,97.5891583 80.5263138,98.5489913 79.8478963,98.7290973 C80.1177807,99.8986879 81.5833382,100.296788 81.2203807,101.816707 C80.9848153,102.067098 80.6196614,102.187901 80.2767462,102.331491 C79.286987,102.088238 78.7971866,101.644288 77.3604571,101.731047 C76.3138657,102.056939 75.8795248,102.994808 75.6445084,104.132551 C75.7499363,106.28641 76.6466225,107.648461 77.532052,109.022318 C78.0292653,108.575623 78.7211358,108.323859 79.0761312,107.735494" id="path52" fill="#264391"></path>
                        <path d="M28.5536604,105.67663 C27.3972758,104.079837 25.9052515,102.856709 24.4366191,101.387857 C23.9584048,100.910137 23.6436312,100.29267 23.1498772,99.8440521 C21.7759377,98.5962142 19.2282893,97.691017 16.9738348,97.2706782 C16.5466871,97.1910582 16.0411275,97.2706782 15.6015151,97.1847435 C15.1240421,97.0916704 14.4648982,97.0502131 13.6285036,97.0134232 C11.1501246,96.9044261 8.03665246,96.9609838 5.65137399,97.2706782 C5.51945186,98.3922222 5.37188027,99.8748019 5.56546674,101.044667 C13.8958622,101.789526 22.6349828,102.641186 28.5536604,105.67663" id="path54" fill="#264391"></path>
                        <path d="M5.73717142,59.7861227 C5.57125978,60.7066948 5.59281209,61.8150604 5.30818426,62.6170261 C5.12511312,66.191965 4.52420163,69.2419608 3.67844485,72.2241423 C3.0287455,74.5150024 1.97108965,76.7674253 1.70565298,78.9146948 C1.57030718,80.0101564 1.76699883,81.1885327 1.96283113,82.0882389 C2.86456353,86.2287544 5.4650906,89.5579694 6.85209878,93.153225 C6.79795716,94.3332486 6.01065246,95.2216982 5.82296886,95.983854 C6.41709893,95.853991 7.91096266,95.9061558 8.91082535,95.8981938 C9.40897212,94.3093626 9.92526675,92.7381027 10.6264446,91.3524399 C13.8632454,92.7784618 16.744337,94.1690666 20.6622733,94.6973043 C22.5442435,97.6704256 24.6026406,100.455479 27.5243658,102.417426 C28.2689502,102.91711 28.8567656,103.741315 29.4113602,104.561401 C29.468467,104.561401 29.5255738,104.561401 29.5829551,104.561401 C31.265683,102.823763 32.5838061,100.243525 33.0140288,97.0990833 C33.3001117,95.0083715 33.394283,92.0152079 33.0140288,89.8940208 C32.8438067,88.9451698 32.3422005,87.8420207 31.9847341,86.891797 C31.6824526,86.088733 31.480657,85.3076332 31.212969,84.5756781 C31.159706,84.4312638 30.9337499,84.3848646 30.8697793,84.2324884 C30.6440977,83.6984851 30.5326297,82.9887688 30.3549947,82.3457685 C29.8152259,80.3926071 28.9770193,77.8826546 28.6393206,75.5690067 C28.4476834,74.2563746 28.6327313,72.6977441 28.1248105,71.623423 C27.915053,71.1800218 27.5271113,70.7250895 27.2670558,70.2512131 C26.7606451,69.3284446 26.1709078,68.416109 25.551217,67.5062444 C24.4108661,65.8309294 23.0974104,63.9189507 21.7774203,62.274111 C20.3365725,60.4782677 18.6800369,58.6129629 17.1454297,56.869559 C12.793372,55.9596944 8.3686954,57.9677662 5.73717142,59.7861227" id="path56" fill="#264391"></path>
                        <path d="M75.2159331,99.4152022 C73.905772,97.9850619 73.4302483,94.2596687 75.1299984,92.9819047 C76.8432015,91.6942568 78.1267312,94.0125721 78.5616212,95.6412133 C79.1639878,95.1571785 79.6200183,94.5265331 80.1054259,93.9255392 C79.2699648,91.9383334 78.6415158,89.2523932 76.4170972,89.1219811 C73.7492775,88.9652121 72.3375322,91.6569178 71.6132646,94.1827942 C71.3576568,97.2402029 72.3232555,99.0772289 73.5861937,100.615817 C74.2830061,100.36927 74.581993,99.7248966 75.2159331,99.4152022" id="path58" fill="#264391"></path>
                        <path d="M69.0398906,90.6660604 C69.6331971,90.2869044 70.1194283,89.8009477 70.4983097,89.2076413 C70.0351409,87.9836894 69.489881,86.8423776 68.954505,85.6909074 C69.0341251,85.227464 69.3657836,85.0160592 69.7262701,84.8332077 C70.1625329,85.7408759 70.7209712,86.526094 71.0130943,87.5781764 C71.7200652,87.1987459 72.092632,86.4843621 72.7284939,86.0340972 C72.2301824,84.9883294 71.5797692,84.0946634 71.3560095,82.7743438 C71.607499,82.4536673 72.0245431,82.2993692 72.299644,82.0025787 C72.6565613,83.361061 73.3868691,84.3461528 73.9293834,85.5195871 C74.5295536,85.1761228 75.0465347,84.7489203 75.3878025,84.1468282 C74.1429847,82.1033392 73.2921487,79.6664176 72.1283237,77.5419358 C70.269059,79.8292268 68.2343557,81.9399809 66.0379414,83.8898477 C67.1108898,86.0763782 67.9287796,88.5176927 69.0398906,90.6660604" id="path60" fill="#264391"></path>
                        <path d="M67.6676808,35.3405806 C67.2017664,38.027619 66.4209412,41.2179107 66.0379414,44.6036834 C65.9281207,45.5761458 66.041236,46.5477846 65.9520067,47.520247 C65.7996305,49.1865018 65.470992,51.5094845 65.7806864,53.3533743 C65.9360827,54.2788884 65.829282,55.1991859 66.0379414,56.0118592 C66.3454394,57.2072577 67.273699,58.2019588 67.753341,59.2721617 C67.9381143,59.6831657 67.8335101,60.164455 68.267851,60.4725021 C65.2214244,51.6322091 68.0764884,39.5209061 69.2117601,31.1371928 C67.2270252,34.0191629 64.9408325,38.0959824 63.0357176,41.3442046 C62.7430454,41.8436143 61.7829378,43.443153 61.320318,44.1748335 C60.8461671,44.9260072 60.6605701,45.2055009 61.2346579,46.062377 C62.6159279,44.5649716 63.4766478,42.6516202 64.4941367,40.8302436 C65.489936,39.045657 66.6389353,37.3074696 67.5820207,35.5119009 C67.5680185,35.4119641 67.6012393,35.358701 67.6676808,35.3405806" id="path62" fill="#FFFFFF"></path>
                        <path d="M6.33764364,57.7280825 C9.1260465,56.2194204 12.4926554,54.913103 16.7165523,55.4978983 C17.0345382,54.7865346 17.4405728,54.1627529 17.8315071,53.5249691 C17.5044885,52.7650098 17.0243523,52.159074 16.5449574,51.55204 C16.1927624,50.5598098 15.8396064,49.5697761 15.6015151,48.4641561 C15.6015151,48.1206918 15.6015151,47.7777766 15.6015151,47.4343123 C14.514345,48.0130675 13.8875981,48.9943156 13.1138288,49.922026 C11.345633,52.0412913 8.88861411,53.6139239 7.28097612,55.7543297 C7.05543183,56.0552384 7.11432319,56.5203291 6.68050391,56.6128531 C6.6886581,57.1064972 6.4188286,57.3225695 6.33764364,57.7280825" id="path64" fill="#264391"></path>
                        <path d="M67.5820207,35.5119009 C66.6389353,37.3074696 65.489936,39.045657 64.4941367,40.8302436 C63.4766478,42.6516202 62.6159279,44.5649716 61.2346579,46.062377 C60.6605701,45.2055009 60.8461671,44.9260072 61.320318,44.1748335 C61.7829378,43.443153 62.7430454,41.8436143 63.0357176,41.3442046 C64.9408325,38.0959824 67.2270252,34.0191629 69.2117601,31.1371928 C68.0764884,39.5209061 65.2214244,51.6322091 68.267851,60.4725021 C67.8335101,60.164455 67.9381143,59.6831657 67.753341,59.2721617 C67.273699,58.2019588 66.3454394,57.2072577 66.0379414,56.0118592 C65.829282,55.1991859 65.9360827,54.2788884 65.7806864,53.3533743 C65.470992,51.5094845 65.7996305,49.1865018 65.9520067,47.520247 C66.041236,46.5477846 65.9281207,45.5761458 66.0379414,44.6036834 C66.4209412,41.2179107 67.2017664,38.027619 67.6676808,35.3405806 C67.6012393,35.358701 67.5680185,35.4119641 67.5820207,35.5119009 Z M113.729783,85.6052473 C111.116599,85.3603471 108.555031,85.4045499 106.095596,85.0904627 C105.669217,84.798065 104.82552,84.9229861 104.208327,84.8332077 C103.449466,84.7222887 102.655462,84.5427319 101.892208,84.4043578 C96.9821243,83.5142609 92.7435938,82.0797278 88.768633,80.6300944 C83.172993,78.5890764 77.900775,76.5005609 74.0150436,72.4813973 C73.3769852,70.8607181 72.2820727,69.2394898 71.8707941,67.6778392 C74.6264704,72.5269729 79.2235655,75.536335 84.4798595,77.8851256 C88.52236,79.3432701 92.2741102,80.9892081 97.0889249,82.0025787 C97.9996132,82.3704781 98.7521596,82.5590952 100.005489,82.6889582 C102.39052,83.4151477 104.769786,83.7396679 107.72561,83.9752333 C109.721876,84.4631119 112.370477,84.2632382 114.758803,84.4900179 C118.246984,84.8208528 122.152208,84.8183819 125.738678,84.4900179 C128.072369,84.2761421 130.338519,84.3749807 132.428682,84.1468282 C132.998102,84.085054 133.573014,83.867609 134.144631,83.8036385 C137.689369,83.4071857 140.947475,83.231198 144.266257,82.6889582 C141.364793,85.4451836 138.140183,87.8134673 135.088265,90.4085308 C132.135461,92.9190324 129.665044,95.9855013 126.853359,98.642888 C120.630917,105.887486 114.410946,113.134555 108.75463,120.945004 C105.847951,116.009936 101.656368,111.824119 93.7437859,112.624712 C93.730882,112.15166 93.3443131,112.051723 93.3152106,111.595418 C94.5325732,111.355185 95.9270217,111.291214 97.4321146,111.338163 C102.601101,112.16374 105.968753,114.817557 108.58331,118.543225 C109.048675,118.294207 109.364959,117.895008 109.52667,117.342336 C112.230456,114.113607 114.72723,110.588911 117.504047,107.563899 C118.078958,106.937372 118.675834,106.316061 119.219446,105.67663 C120.327812,104.373607 121.338162,102.988494 122.478651,101.731047 C123.044227,101.107539 123.727038,100.580125 124.280259,99.9297122 C125.962713,97.9515666 127.64599,96.0036217 129.341347,94.0971341 C129.995329,93.3607862 130.765447,92.588472 131.485322,91.9526101 C134.521865,89.2716119 137.716,86.478322 140.920569,84.061168 C132.983002,85.3059858 123.103805,86.4821657 113.729783,85.6052473 Z M47.7673436,162.460804 C45.4514993,161.658014 43.379457,161.123736 41.5059156,160.230894 C37.2267514,158.977291 33.5672506,157.290994 29.2397654,156.113441 C28.2000377,155.274685 26.6197176,155.48609 25.6372341,154.569362 C30.7006554,153.685854 33.6309466,150.533999 34.9012978,145.64835 C38.6848959,148.95313 42.9549999,152.366358 47.6816835,154.998212 C48.1819168,158.100372 49.2869878,160.598519 50.3409921,163.146909 C49.5074528,163.469781 48.660186,162.769949 47.7673436,162.460804 Z M85.7664092,175.498993 C86.8728529,175.03253 87.3999923,173.987037 88.1681882,173.182875 C88.4839228,174.325285 88.7875771,175.480324 89.025888,176.699883 C88.0004371,176.431371 86.7767598,176.106851 85.7664092,175.498993 Z M96.660075,179.530512 C96.1461141,174.061989 95.7084785,168.298324 95.202205,162.889928 C94.8408949,159.030828 94.815087,155.351011 94.4301654,151.653073 C94.3598801,150.978499 94.1591828,150.336597 94.0869757,149.680143 C93.9573872,148.50012 93.9719385,147.336569 93.7437859,146.24907 C93.0565828,142.976412 91.8839721,140.017293 90.655902,137.242673 C89.431401,134.476289 88.2165093,131.741479 86.7959784,129.008041 C86.1645093,128.354059 85.8048464,127.532051 85.3375593,126.777582 C83.9211466,124.493037 81.9968131,122.645303 80.5342758,120.430494 C79.5453402,118.932814 78.894378,117.15564 78.1324967,115.455341 C68.2258446,93.3528242 58.0627611,70.7393662 48.2821282,48.7214111 C48.387007,50.9988182 47.9836904,52.768579 48.1105333,55.0687738 C45.775745,55.861954 43.2070384,56.4533385 40.047771,56.6128531 C40.0768735,53.40499 39.9324593,50.1941069 40.2193659,46.9200768 C40.5979728,42.5983571 39.9165353,38.210745 40.305026,33.9678217 C40.4878775,31.9693592 40.2943185,29.9530509 40.4766209,27.9633741 C41.0246263,21.9792708 40.6185642,16.0165551 41.0770657,10.2078629 C41.1108355,9.77950721 40.8953124,9.2941271 41.1630004,9.09238645 C47.8098991,22.7089745 54.5325742,36.4865598 61.1487232,50.0082353 C62.1143218,51.9808899 62.9838273,53.9815488 63.9790776,55.9264736 C70.8788385,69.4053191 77.2281232,83.3270166 84.0512842,96.7558936 C85.038847,98.7008184 85.9064306,100.717401 86.8816385,102.674681 C94.5276313,118.020479 102.260108,133.784968 109.86986,149.336954 C113.650987,157.065037 117.501301,164.902118 121.535565,172.496495 C125.52947,180.01537 129.755371,187.394499 135.34552,193.426402 C122.215355,188.703013 109.596132,184.142982 96.660075,179.530512 Z M61.6635078,106.620539 C62.7260232,107.312959 63.7503759,107.944153 64.7513917,108.593194 C67.6056321,110.443947 70.5194502,112.336708 72.9860235,114.254452 C74.6945593,115.583282 76.193612,117.357436 77.789307,118.628885 C78.9207349,119.530788 80.2023427,120.86511 81.134446,121.974299 C83.618316,124.930947 85.8907811,128.42654 87.7393383,132.18186 C89.5513801,135.86305 91.3782477,139.814399 92.6288311,144.19048 C93.8140712,148.338409 93.8113257,152.943466 94.258296,157.657246 C94.3348959,158.463879 94.3066171,160.118053 94.515551,161.174254 C95.0943062,164.094661 95.0893642,167.745926 95.3735253,170.78137 C95.6700413,173.949698 95.7202842,177.021658 96.0599048,179.959362 C96.8278261,186.605162 99.1299429,192.206843 101.377698,197.62924 C98.7774184,195.369405 96.4656923,192.641458 94.6014857,189.737798 C93.2718314,187.66658 92.2548916,185.450123 91.170412,183.132906 C89.3545265,175.284843 87.4538045,167.521068 84.9943696,160.316554 C84.7236615,160.358561 84.9627961,159.89045 84.6517289,159.973364 C84.7189941,159.620291 84.5196695,159.532983 84.5657942,159.201325 C82.8855373,155.712046 81.5512156,152.147815 79.0761312,149.508549 C77.8206059,148.170109 76.5453129,147.06696 75.0446128,146.0772 C73.5763098,145.109131 72.1069087,144.026573 70.3267149,143.504376 C70.3926073,146.021466 70.6130724,148.838917 70.9271596,151.052353 C71.21791,153.09996 71.2091243,154.835951 71.4419442,156.799546 C71.5152496,157.418935 71.7217125,157.995493 71.785134,158.601155 C72.1431495,162.041838 71.9814385,165.454242 72.299644,168.808166 C72.4253887,170.136997 72.408092,172.054192 72.5566245,173.52579 C73.388791,181.744498 76.6751759,187.31735 80.3626809,193.597722 C73.6636173,189.40312 69.2120346,182.961037 65.6090915,175.670314 C65.6749839,175.347166 65.5047618,175.260133 65.5234314,174.984209 C61.8370245,167.376104 60.9414366,156.978004 54.7154257,151.910053 C53.420914,153.36051 51.8545961,154.538886 50.5123124,155.942121 C46.984871,154.1169 43.4703336,151.788976 40.3906862,149.422614 C36.9022312,146.742439 33.8006196,143.862116 30.7838446,140.845067 C29.8382882,139.899511 28.7686345,139.031103 27.9532157,138.100373 C25.5483342,135.35458 23.1937232,132.537404 20.8338682,129.694421 C15.3098039,123.038462 10.720808,115.561867 6.68050391,107.563899 C5.44815076,104.23743 3.90700921,101.648406 4.45042956,97.0134232 C4.61472135,95.6121108 5.42679063,94.7480964 5.56546674,93.5823495 C5.6612304,92.7779127 5.02473699,91.9023671 4.62202443,91.0946357 C3.8910303,89.6293528 3.23907962,88.5533844 2.6492106,87.2349867 C2.3272547,86.5153865 2.16005815,85.7093024 1.87724785,85.0904627 C1.80335498,84.9290262 1.59261452,84.9032184 1.53405811,84.7475475 C1.14904316,83.7168801 0.808211824,82.2257893 0.590500493,80.9732841 C0.310479634,79.361116 0.824083663,77.7338475 1.19108253,76.5985759 C1.87531775,74.4806834 2.41541328,71.8718923 3.07808245,69.4794481 C3.65700235,67.3881871 4.11709624,64.7684139 4.19322945,62.1879017 C4.08706027,61.9106044 4.47069148,62.1225584 4.36482432,61.8452611 C4.2886911,60.882957 4.64390621,60.3511502 4.62202443,59.443482 C5.20994963,56.5431169 6.61702754,54.4620144 8.56763562,52.9239753 C10.5154433,50.497212 12.9008316,48.5083589 15.0010429,46.2339719 C15.0656999,45.8748581 15.4970482,45.531943 15.77311,45.2046772 C16.019987,44.912005 16.2875651,44.2873997 16.5449574,44.5185723 C16.624852,45.8828201 16.5832574,46.7929593 16.7165523,48.0353062 C17.2591216,53.0909028 21.5128622,55.2527235 25.8088289,56.3555981 C27.5400152,56.7998229 29.5069042,57.052136 31.5558842,57.1270886 C38.3279786,57.7030982 45.2686478,57.0639417 49.6546126,55.0687738 C49.834444,55.4034525 49.9500303,55.8021017 50.0834625,56.1840032 C45.4221222,58.1561087 38.2760883,58.9199118 31.212969,58.4136383 C26.036954,57.7634996 22.0055454,56.8313963 18.7751691,54.2110741 C18.5113248,54.7472737 18.1590199,55.1961659 18.003102,55.8405389 C19.0963672,56.6746273 20.1618478,58.184113 21.520028,58.8430373 C22.3809126,59.260356 23.9403668,59.5722468 25.3799516,59.9577175 C29.280399,61.0029362 33.3761626,61.6220505 37.5600573,62.1879017 C39.2834188,64.6330599 40.1759867,68.7565532 39.790516,72.8243125 C39.6957956,73.8220337 39.6576329,74.6160375 39.790516,75.7406016 C40.0927975,78.3002479 41.5034446,80.039808 42.7068051,81.5737288 C42.6252632,81.9498648 42.2966247,82.078355 42.0207002,82.2595592 C39.5994279,80.074127 38.2785593,76.0417849 38.6752866,71.7093577 C38.8262901,70.0587523 38.8768076,69.3086768 38.6752866,67.7634994 C38.536638,66.6996112 37.5103634,63.4980628 36.8739523,63.1318107 C36.2729585,62.7858755 35.4136114,62.9948094 34.558108,62.8742812 C29.6908539,62.187078 24.7006556,60.7264625 20.7479609,59.443482 C21.7161953,60.6380569 22.7270949,61.6547221 23.6644422,62.8742812 C24.6596924,64.169891 25.7429914,65.3919211 26.5807862,66.7344793 C26.9469285,67.3209219 27.2625532,67.9282305 27.6103005,68.535539 C28.3098584,69.7586672 29.2867137,71.1122075 29.4970204,72.3098024 C29.7188582,73.5708188 29.5568727,74.6327851 29.7542754,75.8265363 C29.8912767,76.6523881 30.2127769,77.7423587 30.3549947,78.3139755 C31.1591569,81.5539611 32.222496,84.5377899 33.2712838,87.3206469 C33.4255819,87.7294545 33.6559309,88.1294764 33.7860684,88.5212618 C34.9345185,91.978967 33.9562905,97.1981965 33.3572185,100.444497 C34.9155745,100.844519 37.4798881,100.611973 38.417757,100.101307 C40.0189431,98.8317796 40.7920809,97.0016174 41.8491053,94.9548339 C42.5920424,93.5159079 43.5584647,91.9943419 44.0792895,90.5798511 C44.750294,88.7568273 45.1978134,86.8195898 45.794689,84.9188678 C46.6260318,82.2724631 48.2579677,80.2578021 48.1105333,76.7698962 C48.3952436,75.5898726 48.3861833,73.8343885 48.5393832,72.6529922 C49.0818976,68.4734903 49.8511917,64.182795 50.5123124,60.3865674 C50.6377826,59.6669672 50.5364729,58.8419391 51.027097,58.242318 C51.0496102,59.0330271 51.8175316,59.6752037 51.8847968,60.4725021 C51.9778698,61.5729057 51.2343836,63.1537749 51.027097,64.4183604 C50.507645,67.5924536 49.7561968,71.1067165 49.6546126,74.3681172 C49.2760057,75.4366727 49.614528,77.1570142 49.397083,78.3139755 C49.1914437,79.4097117 48.7126254,80.4661869 48.3680629,81.4877941 C47.2429497,84.8211274 45.7351113,87.7077649 45.1085841,91.4378255 C42.0443116,95.9937378 41.4089988,102.88032 32.8424339,101.731047 C32.1689584,102.876751 31.440847,104.037831 30.6981844,105.24778 C30.597973,105.411139 29.9050043,106.313865 29.9258703,106.44867 C29.9601892,106.667488 31.0430215,107.3028 31.3842894,107.563899 C32.9577457,108.768083 34.3950243,110.048593 35.8449323,111.080633 C38.6596372,105.187928 44.9762501,103.276499 53.9436606,103.961231 C57.9576078,104.797241 61.8073729,105.27551 66.5524515,105.333441 C67.9117574,105.718637 69.9722685,105.401804 71.6132646,105.50531 C71.8351024,106.026958 72.0459582,106.559863 72.299644,107.049389 C68.954505,107.106221 65.9896203,106.783074 62.8643973,106.620539 C62.6485996,106.431099 61.2343833,106.2768 61.4059782,106.53433 C61.5973408,106.38113 61.52431,106.529937 61.6635078,106.620539 Z M102.578588,199.001725 C100.393979,193.809676 98.1964668,188.630805 97.0032647,182.446526 C99.5667548,183.07223 102.039643,184.065284 104.551517,184.93424 C112.138207,187.558681 119.695794,190.186416 127.196548,192.740022 C130.575183,194.146825 134.320344,195.152783 137.832685,196.685606 C138.710701,196.851161 139.277925,197.005733 139.805614,197.371985 C141.303294,197.667952 142.106083,198.307383 143.493943,198.572875 C143.812697,198.883393 144.278612,199.045928 144.952087,199.001725 C144.423575,198.183835 143.532105,197.751141 142.807838,197.20039 C142.104985,196.665564 141.425195,196.060451 140.577928,195.570651 C134.274494,189.779805 129.497842,182.461352 125.567084,174.298104 C125.289237,174.404081 125.501191,174.020532 125.223894,174.126235 C121.398015,166.560136 117.400541,159.132687 113.472254,151.481203 C107.017541,138.908653 100.898056,125.981657 94.515551,113.225432 C95.6313295,112.913815 96.6032428,113.079645 97.86069,113.139222 C103.357766,114.389806 106.344889,117.675642 108.75463,122.059959 C113.94311,114.648983 120.003566,107.457099 125.995659,100.615817 C127.803033,98.5525605 129.428654,96.8399064 131.399662,94.8686246 C134.184166,92.0846695 136.982398,89.476702 140.234738,86.891797 C142.25791,85.2837471 144.331875,83.777556 145.895722,81.9169186 C142.520382,82.4660222 138.592644,82.6960966 134.916396,83.2891284 C132.816349,83.6279253 130.404412,83.5677985 127.882928,83.8036385 C125.357326,84.0403021 123.573289,84.1468282 120.248466,84.1468282 C116.095321,84.1468282 113.495316,84.1127838 109.698539,83.7179783 C109.039066,83.6496149 108.42105,83.4286007 107.81127,83.3747886 C107.133402,83.3154854 106.501109,83.4074602 105.838341,83.2891284 C96.7506771,81.6670765 88.0817044,79.3893948 81.134446,75.4836211 C78.5154965,74.0109253 76.2070651,72.4012282 74.3582333,70.3371478 C70.2564296,65.1838108 66.6856091,57.6635628 67.5820207,48.2066265 C67.6350092,47.647639 67.4365082,46.7841737 67.753341,46.4052922 C68.0034577,40.3939808 69.4385398,35.109408 69.9837997,29.6787737 C69.7880443,29.7029342 69.6612013,29.6581823 69.64061,29.5074533 C66.4168229,34.1171779 63.6616957,39.1972096 60.6339386,44.0035132 C53.4755498,29.3748448 46.3836026,14.6791859 39.2757314,0 C38.5418545,6.27158648 39.0849179,13.8201408 38.5036918,20.2435818 C38.4290137,32.5774914 38.0424448,44.6006633 37.7316521,56.6982387 C34.5616772,56.6592524 31.4825789,56.8497913 28.6393206,56.3555981 C23.5961063,55.4786797 17.9061303,53.500534 17.2310074,47.8631622 C17.0652056,46.4777739 17.3462094,44.845838 16.9738348,43.1458134 C16.9070363,42.7897197 16.5106385,43.4445257 16.3733626,43.5746633 C15.9073933,44.3947495 15.0436259,44.8175592 14.6578532,45.7189127 C13.1362323,47.3047239 11.4434558,49.0083177 9.85426766,50.608131 C8.39497,52.0772576 6.59396519,53.5568172 5.47977912,55.3263034 C4.54652269,56.8086085 4.11303287,58.9199118 3.7643521,61.0729469 C3.6524997,61.762621 3.81745042,62.7573221 3.5069598,63.3031311 C3.37056247,68.8833961 0.874812597,74.0957618 0.0760379412,78.9146948 C-0.109391865,80.031846 0.0595220038,81.6975517 0.418905626,83.0315988 C1.46220242,86.9036027 3.62570345,89.9146121 5.05090178,93.4964148 C4.33223502,94.7843372 3.937457,96.3871705 3.7643521,98.2143127 C3.44691532,101.563021 4.54202004,103.887102 5.56546674,106.27735 C6.83870065,109.25102 8.39420126,112.095376 9.59698518,114.511981 C10.3872825,115.310927 10.7509538,116.420665 11.3124946,117.342336 C11.603794,117.820056 11.9589817,118.239845 12.2561565,118.715095 C15.9528591,124.627567 20.3504099,130.205911 24.7794794,135.527273 C27.0669351,137.911756 29.2504729,140.255055 31.7274791,142.732336 C32.1648401,143.169697 33.0472495,143.80803 33.0996889,144.19048 C33.1578939,144.611917 32.7949364,144.844463 32.6711136,145.13384 C31.3669926,148.174776 29.624687,151.172607 26.0662212,152.167583 C26.1085846,152.438565 25.6402541,152.199156 25.7228119,152.510772 C24.3090898,152.920129 23.0371463,153.451936 21.8629981,153.882982 C20.4068029,154.117999 18.3898356,154.499076 16.9738348,154.226172 C17.2050623,154.820577 18.0451359,154.888665 18.603684,155.083872 C20.3019241,155.678825 22.3649337,156.339946 24.2650242,156.885481 C24.323037,157.084805 24.654421,157.010402 24.6935721,157.228396 C31.4268449,159.237017 37.6201841,161.730221 44.2508843,163.833288 C44.3318771,164.00955 44.6926381,163.90577 44.6794597,164.176478 C47.252559,164.801632 49.7814555,166.012955 52.2279865,166.749577 C52.461081,166.802566 52.6296558,166.919799 52.7424966,167.092767 C54.4117714,167.298132 55.575871,168.412537 57.2890742,168.465251 C54.3653722,165.127251 51.607774,161.622872 50.3409921,156.627951 C50.4134737,156.405289 50.7174026,156.792957 50.8555021,156.542291 C52.0382712,155.180239 53.4840609,154.081758 54.7154257,152.768302 C58.141832,155.746365 59.7844753,160.508466 61.4916384,165.205498 C61.4633595,165.548688 61.6448383,165.681845 61.5778476,166.063198 C63.1812301,171.107263 64.9260067,175.958044 67.3244911,180.216617 C68.4767849,182.262302 69.8240106,184.225348 71.2700748,186.049195 C73.1779352,188.455641 75.0646551,190.581496 77.7036469,192.311172 C77.7102361,192.647224 78.1393605,192.561289 78.1324967,192.911342 C79.3855511,193.319326 80.1043277,194.710206 81.3919756,194.798611 C81.370286,193.89918 80.7333258,193.09941 80.2767462,192.311172 C79.8174211,191.517443 79.4195955,190.62817 78.8183271,189.995328 C77.250911,186.759461 75.5629666,183.644121 74.3582333,180.045022 C73.7020546,177.58696 73.4124024,175.047905 73.1573438,172.325449 C72.7858752,168.353509 72.8594551,164.121293 72.4709643,159.973364 C71.9932442,154.865878 71.0820068,149.610133 70.9271596,144.447735 C77.7014504,147.108966 81.9133494,153.0758 84.2226045,160.487875 C84.4935871,160.445594 84.2544525,160.91343 84.5657942,160.831064 C85.3672109,163.460721 86.2032211,166.055785 87.0529589,168.636572 C86.2696626,173.248492 82.8693387,175.030059 78.7329415,175.927843 C80.3442859,176.752597 82.3317663,177.258596 84.1366698,177.900773 C85.9934635,178.560795 87.880458,179.114017 89.7122675,179.873702 C91.827689,188.33731 96.5400959,194.203383 102.150013,199.173045 C102.414131,199.237016 102.254617,198.877353 102.578588,199.001725 Z" id="path66" fill="#264391"></path>
                        <path d="M66.0379414,83.8898477 C68.2343557,81.9399809 70.269059,79.8292268 72.1283237,77.5419358 C73.2921487,79.6664176 74.1429847,82.1033392 75.3878025,84.1468282 C75.0465347,84.7489203 74.5295536,85.1761228 73.9293834,85.5195871 C73.3868691,84.3461528 72.6565613,83.361061 72.299644,82.0025787 C72.0245431,82.2993692 71.607499,82.4536673 71.3560095,82.7743438 C71.5797692,84.0946634 72.2301824,84.9883294 72.7284939,86.0340972 C72.092632,86.4843621 71.7200652,87.1987459 71.0130943,87.5781764 C70.7209712,86.526094 70.1625329,85.7408759 69.7262701,84.8332077 C69.3657836,85.0160592 69.0341251,85.227464 68.954505,85.6909074 C69.489881,86.8423776 70.0351409,87.9836894 70.4983097,89.2076413 C70.1194283,89.8009477 69.6331971,90.2869044 69.0398906,90.6660604 C67.9287796,88.5176927 67.1108898,86.0763782 66.0379414,83.8898477 Z M73.5861937,100.615817 C72.3232555,99.0772289 71.3576568,97.2402029 71.6132646,94.1827942 C72.3375322,91.6569178 73.7492775,88.9652121 76.4170972,89.1219811 C78.6415158,89.2523932 79.2699648,91.9383334 80.1054259,93.9255392 C79.6200183,94.5265331 79.1639878,95.1571785 78.5616212,95.6412133 C78.1267312,94.0125721 76.8432015,91.6942568 75.1299984,92.9819047 C73.4302483,94.2596687 73.905772,97.9850619 75.2159331,99.4152022 C74.581993,99.7248966 74.2830061,100.36927 73.5861937,100.615817 Z M77.532052,109.022318 C76.6466225,107.648461 75.7499363,106.28641 75.6445084,104.132551 C75.8795248,102.994808 76.3138657,102.056939 77.3604571,101.731047 C78.7971866,101.644288 79.286987,102.088238 80.2767462,102.331491 C80.6196614,102.187901 80.9848153,102.067098 81.2203807,101.816707 C81.5833382,100.296788 80.1177807,99.8986879 79.8478963,98.7290973 C80.5263138,98.5489913 80.6185632,97.5891583 81.3063154,97.6138679 C81.6129898,97.6245754 82.5242271,98.7447467 82.7644599,99.1573981 C83.7885381,100.919197 84.4493843,104.832384 81.7351653,105.07646 C80.6166413,105.176946 80.3267146,104.510334 78.5616212,104.647336 C77.3412385,105.521234 78.7085064,106.894267 79.0761312,107.735494 C78.7211358,108.323859 78.0292653,108.575623 77.532052,109.022318 Z M81.9064856,117.771186 C83.3492553,115.926198 84.906513,114.194874 86.3671285,112.367183 C86.5488818,111.544077 86.3525773,110.620484 85.5950889,110.480188 C83.7336278,111.907034 82.3861276,113.847566 80.6199359,115.369681 C80.6166413,114.559479 79.8251085,113.744884 79.5047066,112.967902 C79.4105353,112.739475 79.427283,112.390794 79.5047066,112.281523 C80.1158589,111.423823 81.6824514,110.360209 82.4212702,109.279573 C82.7850513,108.747217 84.3436818,107.208629 84.7373891,107.135049 C85.2903364,107.031269 86.2306763,107.514205 86.6246581,107.906814 C87.7052939,108.985254 88.9122236,112.041839 88.5973127,114.168792 C87.1177531,116.72075 84.9666398,118.600881 83.021715,120.687749 C82.7290428,119.636216 82.2192001,118.802951 81.9064856,117.771186 Z M89.1118227,131.83867 C90.1652779,129.6612 91.5978892,127.405208 92.3713015,125.233778 C90.6144447,126.135131 88.8013046,126.720476 87.2245537,127.635282 C86.8278264,126.717456 86.4505922,125.779312 86.0239388,124.890588 C88.630808,123.747903 90.8404008,122.661502 93.6578512,121.631109 C94.168243,122.750457 94.7189939,123.829994 95.202205,124.976523 C93.4294241,128.09296 92.2554407,131.808469 90.2270521,134.669299 C89.9431655,133.637808 89.4533651,132.811956 89.1118227,131.83867 Z M93.1433412,135.527273 C93.7564153,134.681654 94.7269559,134.19405 95.202205,133.211154 C96.2054172,132.499242 96.7298112,131.308236 97.9466247,130.809375 C98.2667521,131.747244 99.0209458,132.250772 98.9761939,133.55407 C97.3796752,134.718169 95.9132941,136.63509 94.258296,138.014713 C93.7975981,137.274521 93.569171,136.302058 93.1433412,135.527273 Z M92.4569617,136.384973 C92.805917,137.555113 94.1874616,139.199403 92.3713015,139.730112 C91.8543205,138.474587 90.5732619,137.021384 92.4569617,136.384973 Z M94.0869757,142.817996 C94.1377677,142.336432 95.238995,141.580042 95.6305058,141.188257 C97.2833076,139.536279 98.9890978,137.569939 100.519999,136.470633 C100.920021,137.300329 101.262936,138.186856 101.635228,139.043733 C99.5123935,141.181393 97.4678064,143.396751 95.202205,145.39137 C95.0761857,144.629214 94.0238287,143.413773 94.0869757,142.817996 Z M97.6034349,145.47703 C98.1583041,144.488095 98.5119268,143.297089 99.0615795,142.303486 C100.121075,141.818628 101.178374,141.332122 102.492928,141.102596 C102.775442,142.049251 103.286108,142.768302 103.693817,143.590036 C102.701862,143.81709 101.474341,144.27065 100.348678,144.61933 C99.864918,145.851244 99.4544631,147.156463 98.7186643,148.136339 C98.3493922,147.24734 97.9186204,146.420115 97.6034349,145.47703 Z M100.262469,151.138013 C100.31079,150.425277 101.107265,150.142214 101.549568,149.765804 C102.469042,148.984155 103.28803,147.793424 104.037007,147.27809 C104.203934,146.902228 104.337641,146.492872 104.894707,146.506599 C105.301318,147.357984 105.592343,148.324956 105.924276,149.251294 C104.286025,150.701202 102.943742,152.446802 101.120443,153.711662 C101.161626,152.597531 100.205088,151.995713 100.262469,151.138013 Z M98.2898144,153.025282 C98.6697941,152.776264 98.8844936,152.361691 99.3193836,152.167583 C99.8402084,153.211429 101.037529,154.946047 99.3193836,155.427061 C98.9965107,154.605602 98.6467317,153.812422 98.2898144,153.025282 Z M105.066027,162.975588 C104.440324,162.028385 104.416712,160.479638 104.294262,159.030005 C103.923892,159.031377 103.978253,159.456933 103.608157,159.458854 C103.463194,158.45976 102.979159,157.800013 102.921778,156.713886 C104.446089,155.207145 105.852343,153.582623 107.468081,152.167583 C107.924111,152.998102 108.245611,153.963151 108.58331,154.912551 C107.466982,156.083515 105.75323,156.657328 105.924276,159.115665 C107.219337,160.331655 108.656341,156.869007 109.52667,156.971141 C110.007136,157.605904 110.175161,158.552834 110.556239,159.286985 C108.981136,160.406607 107.807152,164.091092 105.066027,162.975588 Z M108.154186,167.006832 C108.725253,165.561317 109.473681,163.699032 111.24207,163.575758 C112.829803,163.465114 113.423658,164.970756 113.643849,166.663917 C115.488013,165.777938 113.804461,163.557089 113.043404,162.546464 C113.317406,162.363612 114.254452,161.144053 114.587483,161.174254 C114.704442,161.184687 115.816926,162.620318 116.217222,163.575758 C116.514013,164.284651 116.58622,165.43063 116.817667,166.063198 C116.537075,168.234902 115.099248,169.377312 113.815443,170.43818 C112.510499,171.516071 111.507561,172.841332 110.213049,173.697659 C109.153829,171.839767 107.892812,170.184769 108.154186,167.006832 Z M113.643849,181.674487 C112.914639,180.895583 111.629737,178.877079 112.014384,177.214393 C112.144247,176.652386 112.842706,175.81665 113.386594,175.670314 C114.342857,175.413059 114.761823,176.010483 115.788098,175.927843 C116.631796,174.789552 114.812616,174.204482 114.845013,173.611725 C114.866702,173.210879 116.345164,172.6464 116.388817,172.325449 C117.273149,173.356666 117.898852,174.646785 118.189877,176.271033 C117.865357,177.604257 117.589707,178.987449 115.702712,178.758198 C115.430906,178.458113 115.053947,178.263181 114.415888,178.329622 C113.807207,179.02616 114.745076,179.70952 114.930673,180.388212 C114.608624,180.923862 114.180048,181.352712 113.643849,181.674487 Z M135.34552,193.426402 C129.755371,187.394499 125.52947,180.01537 121.535565,172.496495 C117.501301,164.902118 113.650987,157.065037 109.86986,149.336954 C102.260108,133.784968 94.5276313,118.020479 86.8816385,102.674681 C85.9064306,100.717401 85.038847,98.7008184 84.0512842,96.7558936 C77.2281232,83.3270166 70.8788385,69.4053191 63.9790776,55.9264736 C62.9838273,53.9815488 62.1143218,51.9808899 61.1487232,50.0082353 C54.5325742,36.4865598 47.8098991,22.7089745 41.1630004,9.09238645 C40.8953124,9.2941271 41.1108355,9.77950721 41.0770657,10.2078629 C40.6185642,16.0165551 41.0246263,21.9792708 40.4766209,27.9633741 C40.2943185,29.9530509 40.4878775,31.9693592 40.305026,33.9678217 C39.9165353,38.210745 40.5979728,42.5983571 40.2193659,46.9200768 C39.9324593,50.1941069 40.0768735,53.40499 40.047771,56.6128531 C43.2070384,56.4533385 45.775745,55.861954 48.1105333,55.0687738 C47.9836904,52.768579 48.387007,50.9988182 48.2821282,48.7214111 C58.0627611,70.7393662 68.2258446,93.3528242 78.1324967,115.455341 C78.894378,117.15564 79.5453402,118.932814 80.5342758,120.430494 C81.9968131,122.645303 83.9211466,124.493037 85.3375593,126.777582 C85.8048464,127.532051 86.1645093,128.354059 86.7959784,129.008041 C88.2165093,131.741479 89.431401,134.476289 90.655902,137.242673 C91.8839721,140.017293 93.0565828,142.976412 93.7437859,146.24907 C93.9719385,147.336569 93.9573872,148.50012 94.0869757,149.680143 C94.1591828,150.336597 94.3598801,150.978499 94.4301654,151.653073 C94.815087,155.351011 94.8408949,159.030828 95.202205,162.889928 C95.7084785,168.298324 96.1461141,174.061989 96.660075,179.530512 C109.596132,184.142982 122.215355,188.703013 135.34552,193.426402 Z" id="path68" fill="#FFFFFF"></path>
                        <path d="M140.920569,84.061168 C137.716,86.478322 134.521865,89.2716119 131.485322,91.9526101 C130.765447,92.588472 129.995329,93.3607862 129.341347,94.0971341 C127.64599,96.0036217 125.962713,97.9515666 124.280259,99.9297122 C123.727038,100.580125 123.044227,101.107539 122.478651,101.731047 C121.338162,102.988494 120.327812,104.373607 119.219446,105.67663 C118.675834,106.316061 118.078958,106.937372 117.504047,107.563899 C114.72723,110.588911 112.230456,114.113607 109.52667,117.342336 C109.364959,117.895008 109.048675,118.294207 108.58331,118.543225 C105.968753,114.817557 102.601101,112.16374 97.4321146,111.338163 C95.9270217,111.291214 94.5325732,111.355185 93.3152106,111.595418 C93.3443131,112.051723 93.730882,112.15166 93.7437859,112.624712 C101.656368,111.824119 105.847951,116.009936 108.75463,120.945004 C114.410946,113.134555 120.630917,105.887486 126.853359,98.642888 C129.665044,95.9855013 132.135461,92.9190324 135.088265,90.4085308 C138.140183,87.8134673 141.364793,85.4451836 144.266257,82.6889582 C140.947475,83.231198 137.689369,83.4071857 134.144631,83.8036385 C133.573014,83.867609 132.998102,84.085054 132.428682,84.1468282 C130.338519,84.3749807 128.072369,84.2761421 125.738678,84.4900179 C122.152208,84.8183819 118.246984,84.8208528 114.758803,84.4900179 C112.370477,84.2632382 109.721876,84.4631119 107.72561,83.9752333 C104.769786,83.7396679 102.39052,83.4151477 100.005489,82.6889582 C98.7521596,82.5590952 97.9996132,82.3704781 97.0889249,82.0025787 C92.2741102,80.9892081 88.52236,79.3432701 84.4798595,77.8851256 C79.2235655,75.536335 74.6264704,72.5269729 71.8707941,67.6778392 C72.2820727,69.2394898 73.3769852,70.8607181 74.0150436,72.4813973 C77.900775,76.5005609 83.172993,78.5890764 88.768633,80.6300944 C92.7435938,82.0797278 96.9821243,83.5142609 101.892208,84.4043578 C102.655462,84.5427319 103.449466,84.7222887 104.208327,84.8332077 C104.82552,84.9229861 105.669217,84.798065 106.095596,85.0904627 C108.555031,85.4045499 111.116599,85.3603471 113.729783,85.6052473 C123.103805,86.4821657 132.983002,85.3059858 140.920569,84.061168" id="path70" fill="#FFFFFF"></path>
                    </g>
                </g>
            </g>
        </g>
    </g>
</svg>