<?xml version="1.0" encoding="UTF-8"?>
<svg width="200px" height="200px" viewBox="0 0 200 200" version="1.1" xmlns="http://www.w3.org/2000/svg" xmlns:xlink="http://www.w3.org/1999/xlink">
    <!-- Generator: Sketch 51.3 (57544) - http://www.bohemiancoding.com/sketch -->
    <title>elmhurst</title>
    <desc>Created with Sketch.</desc>
    <defs></defs>
    <g id="elmhurst" stroke="none" stroke-width="1" fill="none" fill-rule="evenodd">
        <g id="elmhurst_BGL">
            <g id="elmhurst" transform="translate(1.000000, 16.000000)">
                <path d="M73.7740113,0.281879195 C70.8135593,4.14926174 67.819209,7.36268456 66.5423729,12.2222819 C64.5310734,20.4644295 66.1129944,29.3267114 70.9265537,36.3173154 C74.8474576,43.2177181 80.9265537,47.2767785 87.5367232,51.3358389 C97.2768362,56.5900671 107.638418,60.3672483 117.355932,65.6440268 C124.20339,68.609396 128.847458,74.393557 131.548023,81.1924832 C136.553672,82.9739597 138.542373,84.5073826 141.480226,88.8934228 C154.824859,90.4381208 167.728814,93.1103356 179.830508,99.1312752 C186.677966,101.329933 192.881356,103.81047 198.903955,107.813154 C172.79096,105.456644 146.847458,103.731544 120.757062,108.072483 C121.412429,110.55302 122.090395,113.033557 122.779661,115.514094 C141.322034,117.205369 157.096045,111.838389 174.915254,108.252886 C165.966102,117.103893 155.435028,122.380671 144.587571,128.469262 C138.316384,131.671409 131.378531,134.151946 124.327684,134.772081 C118.180791,135.369664 112.101695,136.158926 105.909605,136.012349 C100,143.14953 93.819209,149.429799 86.5762712,155.23651 C81.480226,160.197584 75.4011299,163.512483 69.3446328,167.120537 C68.1242938,162.215839 67.1412429,157.536644 64.7570621,153.015302 C61.920904,147.366443 57.5480226,143.521611 53.4689266,138.244832 C50.5875706,134.772081 45.7853107,133.227383 42.3163842,130.307114 C36.6892655,125.864698 30.3050847,122.752752 24.3728814,118.817718 C17.4463277,113.552215 10.7909605,108.613691 5.49152542,101.611812 C2.56497175,98.0826846 1.63841808,94.0912752 0.440677966,89.7954362 C9.88700565,89.107651 18.9152542,86.5030872 26.1129944,80.1213423 C26.180791,75.0024161 26.1242938,70.2442953 28.2937853,65.4748993 C29.7966102,62.0472483 32.1920904,59.3186577 34,56.1052349 C34.8135593,51.9221477 34.0112994,47.3331544 34.5875706,43.0598658 C36.5762712,30.7022819 42.259887,19.3369128 51.3672316,10.6775839 C57.0169492,3.75463087 65.1751412,1.25154362 73.7740113,0.281879195 Z" id="Shape" fill="#0053A0" fill-rule="nonzero"></path>
                <path d="M66.4067797,4.67919463 C63.6949153,10.012349 61.7740113,15.3342282 62.3276836,21.4228188 C63.1525424,33.8367785 71.4011299,43.950604 81.220339,50.9186577 C87.3220339,55.9812081 94.2711864,58.0107383 101.355932,61.2354362 C105.00565,62.8703356 108.666667,64.4150336 112.418079,65.790604 C118.531073,68.0005369 123.932203,72.9728859 126.700565,78.824698 C127.954802,81.6773154 128.689266,85.1049664 126.090395,87.4727517 C122.836158,90.1675168 117.581921,90.4944966 113.59322,89.7277852 C103.548023,87.8899329 93.9435028,85.5672483 83.6158192,86.5256376 C83.7175141,87.2359732 83.8079096,87.9463087 83.920904,88.6679195 C86.779661,88.972349 89.4350282,88.3522148 92.259887,88.0026846 C91.7853107,89.8179866 91.0056497,91.7460403 91.0734463,93.6289933 C91.8644068,95.9404027 93.7966102,97.9248322 95.1977401,99.8979866 C92.6666667,99.255302 89.8079096,99.2102013 88,97.101745 C86.2485876,95.0383893 86.4745763,91.7798658 84.9491525,89.7503356 C83.6723164,94.0236242 85.4124294,96.8424161 86.8587571,100.698523 C83.2768362,98.2067114 78.519774,92.4451007 83.1299435,88.5551678 C82.5536723,88.0816107 81.9661017,87.6080537 81.3898305,87.1344966 C70.8022599,89.310604 60.2937853,95.4330201 49.7175141,95.2187919 C42.6666667,95.354094 35.2655367,91.2612081 32.700565,84.5073826 C30.3954802,78.4751678 29.2316384,71.8002685 31.8531073,65.655302 C33.2881356,61.9683221 35.7966102,59.0818792 37.740113,55.710604 C38.4971751,51.9108725 38.079096,47.8405369 38.6892655,43.9731544 C39.9548023,31.4577181 47.0960452,20.3855034 55.3672316,11.2526174 C57.4915254,9.16671141 60.1920904,7.7009396 62.8361582,6.3704698 C64.0225989,5.80671141 65.2090395,5.24295302 66.4067797,4.67919463 Z" id="Shape" fill="#FFFFFF" fill-rule="nonzero"></path>
                <path d="M132.214689,85.3642953 C134.485876,86.1422819 136.282486,87.4840268 138.248588,88.8032215 C135.638418,91.4754362 133.20904,94.0348993 129.79661,95.692349 C125.819209,97.7331544 121.672316,98.1165101 117.288136,98.4322148 C117.740113,96.4928859 118.180791,94.553557 118.632768,92.6142282 C121.242938,91.9602685 124.19209,91.5205369 126.564972,90.2126174 C128.610169,88.8483221 130.259887,86.8751678 132.214689,85.3642953 Z" id="Shape" fill="#99BFE5" fill-rule="nonzero"></path>
                <path d="M99.4576271,89.1865772 C103.367232,89.1865772 107.344633,90.5283221 111.129944,91.4528859 C108.915254,93.5951678 106.903955,95.9178523 103.841808,96.8198658 C101.480226,97.5302013 97.9661017,97.7218792 96.2711864,95.5683221 C94.0112994,93.0990604 96.6101695,89.445906 99.4576271,89.1865772 Z" id="Shape" fill="#99BFE5" fill-rule="nonzero"></path>
                <path d="M114.677966,91.0244295 C114.937853,94.0461745 115.299435,96.9551678 113.288136,99.5033557 C107.118644,106.347383 99.9661017,112.199195 91.6610169,116.26953 C82.2711864,121.208054 70.6553672,126.112752 59.8757062,125.492617 C50.6892655,125.109262 42.3502825,115.762148 45.559322,106.482685 C47.220339,101.634362 51.4689266,100.563221 55.6271186,98.4434899 C63.7966102,94.8692617 72.259887,95.962953 80.4180791,98.9057718 C87.3333333,101.724564 95.3898305,101.814765 102.576271,99.9994631 C108,98.4885906 110.700565,94.6099329 114.677966,91.0244295 Z" id="Shape" fill="#FFFFFF" fill-rule="nonzero"></path>
                <path d="M140.316384,91.8136913 C142.124294,91.8926174 143.932203,92.0279195 145.740113,92.2195973 C139.220339,100.45047 127.932203,102.671678 118.282486,105.637047 C115.570621,111.488859 114.237288,117.205369 110.214689,122.369396 C106.836158,126.744161 103.536723,131.795436 98.9943503,134.907383 C93.6723164,138.718389 88.6101695,144.198121 82.5084746,146.723758 C79.6610169,147.783624 75.1525424,147.073289 73.6723164,144.119195 C72.3502825,141.063624 73.0282486,137.297718 75.0960452,134.72698 C79.8757062,128.525638 85.8531073,123.384161 92.6779661,119.539329 C101.163842,114.082148 110.734463,107.84698 116.361582,99.3455034 C120.960452,99.3567785 125.355932,99.2891275 129.740113,97.710604 C133.706215,96.4477852 136.926554,94.1251007 140.316384,91.8136913 Z" id="Shape" fill="#FFFFFF" fill-rule="nonzero"></path>
            </g>
        </g>
    </g>
</svg>