<?xml version="1.0" encoding="UTF-8"?>
<svg width="200px" height="200px" viewBox="0 0 200 200" version="1.1" xmlns="http://www.w3.org/2000/svg" xmlns:xlink="http://www.w3.org/1999/xlink">
    <!-- Generator: Sketch 51.3 (57544) - http://www.bohemiancoding.com/sketch -->
    <title>elms</title>
    <desc>Created with Sketch.</desc>
    <defs></defs>
    <g id="elms" stroke="none" stroke-width="1" fill="none" fill-rule="evenodd">
        <g id="elms_BGL" transform="translate(-1.005025, 17.171717)">
            <g id="elms">
                <g id="g10" transform="translate(100.147366, 83.640282) scale(-1, 1) rotate(-180.000000) translate(-100.147366, -83.640282) translate(0.000000, 0.539806)" fill-rule="nonzero">
                    <g id="g12">
                        <polyline id="path14" fill="#9F8C50" points="199.525995 165.676781 63.31387 98.6118551 119.704595 98.4514782 23.3447742 54.187903 79.1238949 54.0880403 0 0 133.983493 69.3641807 83.7918905 69.411342 182.65469 114.506774 120.798317 114.583909 199.525995 165.676781"></polyline>
                        <path d="M48.5033441,78.3217018 L48.5033441,62.6665664 L88.7865641,62.6665664 C89.9563135,62.6665664 90.8543956,62.9246751 91.4770019,63.4462904 C92.0996082,63.9679057 92.6021787,64.9139726 92.9796356,66.2900313 L94.5625282,66.2900313 L94.5625282,47.4459684 L92.9796356,47.4459684 C92.6380061,48.7693257 92.1475661,49.7016136 91.5046482,50.2480881 C90.8610251,50.7975456 89.9546209,51.0694333 88.7827557,51.0694333 L29.6479929,51.0694333 L29.6479929,52.6646783 C30.9582308,53.0060295 31.8856518,53.5026436 32.4294097,54.1489807 C32.9738729,54.7983008 33.2459634,55.7166676 33.2459634,56.8985411 L33.2459634,109.312355 C33.2459634,110.494939 32.9826181,111.389867 32.4586076,112.000833 C31.9324813,112.610663 30.9974434,113.124465 29.6479929,113.54565 L29.6479929,115.139901 L87.001402,115.139901 C88.2096588,115.139901 89.1243851,115.402839 89.7496714,115.932835 C90.3734062,116.460559 90.8748483,117.405489 91.2523051,118.764502 L92.8351977,118.764502 L92.8351977,99.9202969 L91.2523051,99.9202969 C90.8748483,101.294793 90.3734062,102.241428 89.7496714,102.762475 C89.1270651,103.283522 88.2107873,103.543194 87.0057747,103.543194 L48.5033441,103.543194 L48.5033441,89.4834453 L72.4574656,89.4834453 C73.6289076,89.4834453 74.5264255,89.7463837 75.1518529,90.2763801 C75.7772802,90.8039616 76.2962128,91.7478978 76.7144339,93.1073363 L78.2980317,93.1073363 L78.2980317,74.6966744 L76.7144339,74.6966744 C76.336977,76.0339528 75.835676,76.9744797 75.2102486,77.5127151 C74.5848213,78.0526551 73.6675561,78.3217018 72.4574656,78.3217018 L48.5033441,78.3217018" id="path16" fill="#00452A"></path>
                        <path d="M166.601491,74.1945202 L176.202943,59.9116081 L174.896796,58.948779 C173.988417,59.589718 173.266227,59.9116081 172.73728,59.9116081 C172.092669,59.9116081 170.59328,59.2124277 168.246164,57.8140668 C163.056838,54.7927608 158.472628,52.6952195 154.490712,51.5244261 C150.513028,50.3507917 145.928817,49.765395 140.738504,49.765395 C130.355197,49.765395 121.886538,52.2568468 115.329848,57.2452902 C111.618894,60.0974122 108.662854,63.6737158 106.464408,67.9768999 C104.114471,72.6212932 102.940913,77.6625801 102.940913,83.1054482 C102.940913,90.6021055 105.100711,97.2247163 109.420448,102.973281 C116.203104,111.953672 126.605736,116.444933 140.625662,116.444933 C145.815975,116.444933 150.426986,115.853996 154.463912,114.670987 C158.496607,113.489113 163.092101,111.373815 168.246164,108.325235 C170.59328,106.913664 172.092669,106.21008 172.73728,106.21008 C173.266227,106.21008 173.988417,106.533532 174.896796,107.181574 L176.202943,106.152833 L166.601491,92.1240517 L165.354585,93.0324749 C165.389848,93.4851949 165.427933,93.7704355 165.467427,93.8842192 C165.502691,94.2232976 165.525259,94.4684795 165.525259,94.6200491 C165.525259,96.4728346 162.965154,98.5747795 157.854817,100.92077 C153.006838,103.15255 148.122186,104.268512 143.198039,104.268512 C136.305925,104.268512 130.625171,102.451807 126.153944,98.821666 C121.040786,94.7353954 118.487029,89.4966561 118.487029,83.1054482 C118.487029,76.6720508 121.040786,71.4144186 126.153944,67.3332619 C130.660999,63.7374972 136.344432,61.9425269 143.198039,61.9425269 C148.576375,61.9425269 153.934965,63.2964254 159.276628,66.0070635 C163.441912,68.143385 165.525259,70.0133588 165.525259,71.6169849 C165.525259,71.6946874 165.464606,72.2302238 165.354585,73.220611 L166.601491,74.1945202" id="path18" fill="#00452A"></path>
                    </g>
                </g>
            </g>
        </g>
    </g>
</svg>