<?xml version="1.0" encoding="UTF-8"?>
<svg width="200px" height="200px" viewBox="0 0 200 200" version="1.1" xmlns="http://www.w3.org/2000/svg" xmlns:xlink="http://www.w3.org/1999/xlink">
    <!-- Generator: Sketch 51.2 (57519) - http://www.bohemiancoding.com/sketch -->
    <title>embry-riddle-fl</title>
    <desc>Created with Sketch.</desc>
    <defs></defs>
    <g id="embry-riddle-fl" stroke="none" stroke-width="1" fill="none" fill-rule="evenodd">
        <g id="embry-riddle-fl_BGL" transform="translate(0.000000, 50.000000)">
            <g id="embry-riddle-fl">
                <g id="g10" transform="translate(99.745545, 50.381681) scale(-1, 1) rotate(-180.000000) translate(-99.745545, -50.381681) translate(0.000000, 0.000003)" fill-rule="nonzero">
                    <g id="g12">
                        <path d="M155.0402,85.7446289 C153.256994,90.3236619 147.752668,92.5043234 143.189818,93.2757229 C140.398979,98.2315497 135.521625,99.7693614 131.34249,100.365392 C127.95216,100.891397 123.878877,100.873483 119.295671,100.440914 C101.067886,98.5229492 86.7068681,93.5500231 72.4685987,87.0634075 C70.6647311,85.6234075 69.613128,83.1361811 69.7960288,81.0392855 C88.2009138,89.1054431 109.78015,97.09842 130.525188,96.435621 C136.969971,95.9009645 139.900251,93.8334837 141.488037,89.2103794 C144.977096,89.1054431 149.296688,88.0765372 151.316027,84.6727714 C152.690073,81.8348071 151.745543,78.4534332 151.372006,76.1235604 C154.268698,78.1249853 156.083457,81.5465628 155.0402,85.7446289" id="path14" fill="#FBBF16"></path>
                        <path d="M95.7896159,86.8145525 L98.024425,87.6264609 C85.7546035,84.5348579 74.2171992,80.4405069 65.0250365,73.0951636 C64.5705836,71.5661051 64.0649348,70.2210669 64.5440187,68.5992858 C74.2577081,76.7807614 83.6291073,82.1421862 95.7896159,86.8145525" id="path16" fill="#FBBF16"></path>
                        <path d="M134.569971,92.8530257 C129.662083,94.4060027 123.198979,93.8104811 118.929259,90.7717026 C124.238165,91.4837636 128.43562,92.4041707 133.276333,91.1008629 L134.569971,92.8530257" id="path18" fill="#FBBF16"></path>
                        <path d="M97.8006082,82.4777588 C87.0332803,79.2509904 79.5594891,74.0068175 69.6012196,67.0293113 C66.9732299,64.8946549 62.1882936,62.3421867 63.1651893,58.3591843 C64.7594895,58.914197 66.2237134,59.3928738 67.5174538,59.785342 C75.9780134,70.5614232 91.5199977,79.5403542 96.0857991,81.615774 L97.8006082,82.4777588" id="path20" fill="#FBBF16"></path>
                        <path d="M127.384221,87.4916009 C129.513483,86.6631022 131.332312,87.5993871 132.802032,89.1642726 C131.197961,91.2357229 128.081422,90.6119061 125.523661,90.2190308 C125.453432,88.7742471 126.503814,88.2044762 127.384221,87.4916009" id="path22" fill="#FBBF16"></path>
                        <path d="M100.990328,77.2328734 L103.783204,78.6756214 C92.1938908,75.0898709 81.8380641,69.4942476 74.3455452,60.2484463 C74.7388276,59.8679883 74.9983696,59.3240698 75.1105325,58.6092606 C75.4508887,56.4364362 73.6446801,55.4767416 72.0339931,54.8823396 C71.6746038,54.7495152 71.329871,54.6218816 70.9994893,54.4982175 C71.0015249,54.3062582 71.0086496,54.1173523 71.0225936,53.9245788 C71.1260033,52.4892608 71.5811687,51.0897697 72.9082933,50.6759275 C79.394909,63.5043241 89.107784,70.4862069 100.990328,77.2328734" id="path24" fill="#FBBF16"></path>
                        <path d="M129.531803,80.6075298 C122.529259,74.7936877 122.424424,65.1892096 125.303814,56.7887009 C125.787274,56.3068688 126.376587,55.9064617 126.995417,55.5883956 C127.658012,56.3490062 128.33791,57.0992352 129.029004,57.8403039 C129.000506,57.9520596 128.970989,58.0684973 128.941473,58.1814744 C128.934348,58.2121105 128.925188,58.2403039 128.919081,58.2697186 C128.90076,58.3377085 128.88244,58.4061054 128.866155,58.4736881 C128.523152,58.4526194 128.135366,58.4371487 127.666155,58.424426 L127.382185,59.8886499 C127.780149,60.0354183 128.126205,60.1701766 128.443763,60.3009654 C127.139946,66.7640696 127.525697,74.1396419 133.47277,78.5702779 C137.234602,82.1008631 144.416281,81.9092091 148.244271,80.3538911 L144.204577,82.8085475 C139.781167,84.7340437 133.458521,84.32926 129.531803,80.6075298" id="path26" fill="#FBBF16"></path>
                        <path d="M105.730277,73.8315503 C95.0751121,68.3865632 84.6076315,61.2539425 79.8239166,49.4334848 C79.8620845,48.2498716 80.3379115,47.0339937 81.119998,46.0707368 C82.1409649,46.7020853 83.1448325,47.2746044 84.099031,47.7723143 C87.51155,58.0252403 97.2888525,68.5433062 105.730277,73.8315503" id="path28" fill="#FBBF16"></path>
                        <path d="M111.637656,71.2313468 C101.107682,66.2269704 96.1191833,53.9619325 92.6582165,43.2728742 C92.4073259,42.4956732 92.1628476,41.725088 91.9267153,40.9681415 C91.8996415,40.8866148 91.8725677,40.8019328 91.8475295,40.7216275 L91.9310918,40.3626453 C92.7762827,40.7145028 93.6860027,41.0503807 94.7265116,41.3891084 C95.0147559,41.4917038 95.3089035,41.5871745 95.5943996,41.6746046 C96.3366897,42.4976071 97.1688525,43.3364875 98.0776566,44.1813729 C99.9555191,52.4331794 103.013738,60.7013725 108.18015,67.2646294 C110.110939,69.7065631 110.792873,70.1777082 111.637656,71.2313468" id="path30" fill="#FBBF16"></path>
                        <path d="M107.482949,51.112874 C108.908903,51.9278359 110.206613,52.5424923 111.333331,52.9460547 C111.43104,54.1567416 111.544018,55.3641716 111.697707,56.5676322 C112.088547,60.124884 113.912465,64.0274793 114.878369,67.8753164 L114.169972,66.9310925 C110.318572,62.0725684 108.354196,56.7119579 107.482949,51.112874" id="path32" fill="#FBBF16"></path>
                        <path d="M110.688038,47.097607 C109.77099,46.7100243 108.338929,45.9565383 106.936384,45.0600498 C106.928242,44.7995918 106.918063,44.5352661 106.91501,44.2708386 C106.906868,43.825546 106.902796,43.3782177 106.902796,42.9309913 C107.348598,43.3433068 107.794399,43.7460549 108.232058,44.187378 C109.31501,45.320406 110.198471,46.3998971 110.688038,47.097607" id="path34" fill="#FBBF16"></path>
                        <path d="M111.502287,36.6908897 C110.903814,35.9533833 110.294145,35.1372001 109.655977,34.2211696 L108.041728,31.929872 C108.208649,31.7907371 108.382694,31.6575056 108.562847,31.5323147 C109.603051,30.8046812 110.852923,30.3255972 112.178114,30.4826455 C111.948089,32.2459025 111.759794,33.9972511 111.59389,35.7435106 C111.564374,36.0587268 111.530786,36.376793 111.502287,36.6908897" id="path36" fill="#FBBF16"></path>
                        <path d="M119.195926,66.3704818 C116.04071,60.2321613 117.350633,53.2999478 118.975061,46.3402533 C119.041218,46.0042737 119.114501,45.6651388 119.189819,45.3291592 C119.215264,45.3371999 119.243763,45.3462584 119.26819,45.3541973 C120.042745,46.5708894 120.883458,47.807327 121.784221,49.0518054 C121.238674,50.6759275 120.71043,52.5142989 120.191346,54.6771488 C119.577605,59.0529247 119.174552,61.5079883 119.195926,66.3704818" id="path38" fill="#FBBF16"></path>
                        <path d="M125.566409,40.8842738 C124.546562,40.0147573 123.654959,39.0299227 123.048343,38.2891593 C122.875315,38.080508 122.648343,37.771195 122.392872,37.4137395 C122.516027,37.2164876 122.641218,37.0189304 122.77048,36.8220856 C123.171498,36.2138413 123.592872,35.6043757 124.073279,34.9912459 C125.769971,34.2676836 127.763864,34.0172002 129.511447,34.8341976 C128.209666,36.8710423 127.02188,38.5627471 125.917554,40.3208132 C125.799488,40.5084977 125.68244,40.6945537 125.566409,40.8842738" id="path40" fill="#FBBF16"></path>
                        <polyline id="path42" fill="#1D50A0" points="14.4127223 8.66053922 15.4135365 13.3846307 8.9022695 13.3846307 9.59963335 16.7144016 16.564478 16.7144016 17.624427 21.6213735 4.60201515 21.6213735 0 0 13.2935366 0 14.3225442 4.90418308 7.08651382 4.90418308 7.90394891 8.66053922 14.4127223 8.66053922"></polyline>
                        <path d="M27.9202029,0 L33.945648,15.7462591 L34.0076327,15.7462591 L30.6448847,0 L36.3375055,0 L40.1979634,18.1309919 L40.3201008,18.6995415 C38.3166403,18.0641217 36.5243757,17.6168952 34.9459533,17.3684474 C34.1515513,17.2431548 33.3731289,17.1795416 32.6296175,17.1795416 C32.0018313,17.1795416 31.3911443,17.2352159 30.7871748,17.3246815 L30.7725183,17.2796942 L27.5576583,8.38780641 L27.4952665,8.38780641 L28.2426456,17.9866662 C27.6450884,18.2121115 27.0539433,18.4716535 26.4687016,18.7936891 C24.9427984,19.6068188 23.7571495,20.5717043 22.939745,21.6213735 L19.7451395,21.6213735 L15.1419844,0 L20.833689,0 L24.1953175,15.7462591 L24.2557755,15.7462591 L23.5603048,0 L27.9202029,0" id="path44" fill="#1D50A0"></path>
                        <path d="M50.6317545,15.1697706 C50.2982176,13.5953177 49.238981,13.1122643 48.4498716,13.1122643 L47.5433067,13.1122643 L48.4207621,17.2610683 L49.238981,17.2610683 C50.4811183,17.2610683 50.934757,16.5640708 50.6317545,15.1697706 Z M49.1790318,6.69250874 C48.8740955,5.26796933 48.0880395,4.35949099 46.7553169,4.35949099 L45.6953678,4.35949099 L46.7259021,9.29667152 L47.8168945,9.29667152 C49.2084466,9.29667152 49.4807112,8.14647308 49.1790318,6.69250874 Z M56.9302785,16.2603558 C57.6868179,19.8333837 55.8102785,21.6213735 52.0252404,21.6213735 L49.4453932,21.6213735 L48.0077342,21.6213735 C46.1665128,20.8313481 44.4508895,20.1415771 42.86463,19.5642743 L42.7377089,18.960712 L38.7002535,0 L47.754808,0 C51.4785738,0 54.3869707,1.91038163 55.3251895,6.23608127 C56.2340953,10.5995926 53.6303294,11.202646 52.4177086,11.3231549 L52.449159,11.3855468 C53.8724668,11.6889565 56.2034592,12.8697198 56.9302785,16.2603558 Z" id="path46" fill="#1D50A0"></path>
                        <path d="M68.2864105,15.0485492 C67.8311433,12.9612211 66.6825429,12.5059539 65.6830518,12.5059539 L64.8031536,12.5059539 L65.8031536,17.2610683 L66.5000492,17.2610683 C67.8625937,17.2610683 68.6486497,16.8368444 68.2864105,15.0485492 Z M74.5244765,15.9577604 C75.281932,19.5618316 73.9488022,21.6213735 69.7709906,21.6213735 L60.6846804,21.6213735 L56.0814235,0 L62.1394387,0 L63.9551129,8.51025933 L65.0763343,8.51025933 C66.1362833,8.51025933 66.6507871,8.17509394 66.2567922,6.32753165 C66.0448838,5.26796933 65.8933317,4.18058005 65.6830518,3.11823911 C65.4401001,2.05948086 65.1677337,0.485051387 65.4695149,0 L71.8904817,0 L71.9501254,0.302162842 C71.7075809,0.423425944 71.5254944,0.634939424 71.4666649,0.938295142 C71.3752654,1.24125188 71.4666649,2.27019842 71.7075809,3.48202536 L72.1008633,5.26796933 C72.3739422,6.54221867 72.6479371,7.99538911 72.3142984,8.96151632 C71.9501254,9.99324148 70.9816776,10.5995926 69.799184,10.688244 L69.799184,10.7506359 C72.0101763,11.0528242 73.7965376,12.5059539 74.5244765,15.9577604 Z" id="path48" fill="#1D50A0"></path>
                        <polyline id="path50" fill="#1D50A0" points="82.9130768 0 84.7288528 8.51025933 92.9660028 21.6213735 86.3947052 21.6213735 82.9130768 14.081221 82.853433 14.081221 82.7309903 21.6213735 76.0082424 21.6213735 78.6732805 8.51025933 76.8570973 0 82.9130768 0"></polyline>
                        <polyline id="path52" fill="#1D50A0" points="97.5691579 11.2317554 87.758064 11.2317554 86.6968935 6.32753165 96.5096159 6.32753165 97.5691579 11.2317554"></polyline>
                        <path d="M109.258013,15.0485492 C108.803051,12.9612211 107.653941,12.5059539 106.653432,12.5059539 L105.775061,12.5059539 L106.77557,17.2610683 L107.472771,17.2610683 C108.834603,17.2610683 109.620353,16.8368444 109.258013,15.0485492 Z M115.495163,15.9577604 C116.252414,19.5618316 114.921117,21.6213735 110.740964,21.6213735 L101.658318,21.6213735 L97.0554683,0 L103.111448,0 L104.926206,8.51025933 L106.04987,8.51025933 C107.109412,8.51025933 107.622389,8.17509394 107.230532,6.32753165 C107.017809,5.26796933 106.867173,4.18058005 106.653432,3.11823911 C106.411193,2.05948086 106.139438,0.485051387 106.441728,0 L112.862084,0 L112.922135,0.302162842 C112.680913,0.423425944 112.498725,0.634939424 112.436638,0.938295142 C112.347071,1.24125188 112.436638,2.27019842 112.680913,3.48202536 L113.072771,5.26796933 C113.346562,6.54221867 113.6173,7.99538911 113.285493,8.96151632 C112.922135,9.99324148 111.954196,10.5995926 110.773534,10.688244 L110.773534,10.7506359 C112.982185,11.0528242 114.768445,12.5059539 115.495163,15.9577604 Z" id="path54" fill="#1D50A0"></path>
                        <polyline id="path56" fill="#1D50A0" points="124.792872 21.6213735 118.736893 21.6213735 114.134348 0 120.190328 0 124.792872 21.6213735"></polyline>
                        <path d="M129.24478,4.35949099 L131.97048,17.2610683 L132.846816,17.2610683 C134.725696,17.2610683 134.725696,16.1398469 134.269717,13.9611192 L132.938419,7.66141457 C132.574042,6.02655456 131.997961,4.35949099 130.485493,4.35949099 L129.24478,4.35949099 Z M139.842236,10.8090583 C140.931294,15.9577604 140.962846,17.1079894 140.386765,18.804885 C139.781167,20.560203 138.267681,21.6213735 135.572516,21.6213735 L126.850887,21.6213735 L122.250379,0 L131.061574,0 C137.359793,0 138.843762,6.08619832 139.842236,10.8090583 Z" id="path58" fill="#1D50A0"></path>
                        <path d="M146.625951,4.35949099 L149.35165,17.2610683 L150.229004,17.2610683 C152.105849,17.2610683 152.105849,16.1398469 151.650887,13.9611192 L150.320607,7.66141457 C149.957248,6.02655456 149.380149,4.35949099 147.867681,4.35949099 L146.625951,4.35949099 Z M157.224424,10.8090583 C158.312464,15.9577604 158.346052,17.1079894 157.768953,18.804885 C157.163355,20.560203 155.648851,21.6213735 152.954704,21.6213735 L144.235111,21.6213735 L139.629513,0 L148.443762,0 C154.739945,0 156.22595,6.08619832 157.224424,10.8090583 Z" id="path60" fill="#1D50A0"></path>
                        <polyline id="path62" fill="#1D50A0" points="170.70025 4.90418308 164.097706 4.90418308 167.670225 21.6213735 161.614245 21.6213735 157.011701 0 169.669207 0 170.70025 4.90418308"></polyline>
                        <polyline id="path64" fill="#1D50A0" points="187.596942 16.7144016 188.657502 21.6213735 175.636637 21.6213735 171.03511 0 184.325695 0 185.356738 4.90418308 178.11908 4.90418308 178.936382 8.66053922 185.447324 8.66053922 186.446815 13.3846307 179.934856 13.3846307 180.632057 16.7144016 187.596942 16.7144016"></polyline>
                        <path d="M26.8344014,19.4564881 C29.3555209,18.0661573 31.9215259,17.6586255 34.8266658,18.1158265 C38.1961314,18.6446815 42.6363348,20.1017807 48.2728741,22.5568442 C52.8947569,24.582493 59.0910927,27.7751647 62.986258,30.1188797 C67.9214232,33.1691595 69.8020339,34.9820856 69.5356726,36.6722637 C69.2624919,38.4163858 67.0237133,39.7423909 64.9089042,39.4116021 C62.0698203,38.9631542 58.3989807,37.3568438 54.5936882,34.8660551 C60.0266652,36.478167 62.3461562,36.7863604 62.4598458,36.0488541 C62.5111435,35.7307879 62.0487516,35.2258515 61.1335354,34.5936887 C53.0236119,28.9329255 37.7218311,22.0877348 30.9199992,21.0201521 C28.6748084,20.6682946 27.5278365,21.0818315 27.3353683,22.2984218 C27.2022385,23.1412717 27.6319586,24.2923149 28.3659026,25.2186253 C31.2436633,28.8664624 37.727022,33.241933 45.8742991,36.9580652 L52.558472,40.0671746 C54.4568943,40.906055 54.9435101,41.2532305 54.8688027,41.7290575 C54.7515508,42.4677852 53.5782175,43.0415256 52.588701,42.886004 C52.5222379,42.8773526 52.3254949,42.8442737 52.1346552,42.7599989 C51.0201514,42.5313984 49.1801514,42.1887012 48.1894136,42.0332814 C44.4915002,41.4499735 43.1937903,41.5195918 43.061373,42.3624417 C42.996233,42.7858513 43.4991338,43.4597445 44.5050371,44.3761821 C48.3643754,47.7993881 55.3883956,51.3386247 62.4375557,53.4211691 C61.6209654,52.1568435 61.4228992,51.6929249 61.1263089,50.5614237 C63.750431,52.3835101 65.8874284,53.424019 71.7711941,55.5935864 C73.819133,56.3477849 74.5697691,57.1684464 74.3630516,58.4903802 C74.1455452,59.8627975 73.3953162,60.3418814 71.6766394,60.0696168 C69.6310415,59.7491079 64.7952147,58.2315507 59.174655,56.1028994 C54.4362327,54.3837137 49.9547061,52.3234593 45.7132813,50.0337901 C39.6640194,46.755724 37.8323655,45.0600498 38.1579634,43.0005078 C38.3560296,41.7315002 39.1582687,40.503714 40.1900244,39.9638667 C41.0913985,39.3992865 41.8348081,39.4084469 44.0124162,39.751144 C44.4767419,39.8239176 45.0703297,39.9192865 45.7295663,40.021882 C46.4575052,40.1359786 46.9867673,40.2175054 47.2502787,40.2592356 C48.1070726,40.3964366 48.5031031,40.4580143 49.7013728,40.5919583 L48.5523652,40.1426962 C37.0900754,35.577709 30.8436634,32.7011697 26.3291596,29.9896176 C23.5483964,28.306666 22.1803557,26.2516024 22.479287,24.3488035 C22.7628493,22.5516534 24.3225439,20.7963354 26.8344014,19.4564881" id="path66" fill="#1D50A0"></path>
                        <path d="M81.864629,41.7501262 C83.8954686,43.0442737 85.9577587,44.1256986 86.7490055,44.2509913 C87.0125169,44.2927215 87.2368426,44.1663093 87.2713464,43.9547063 C87.2877332,43.8493628 87.2387764,43.7321109 87.2053922,43.5094137 C86.8424406,42.8037648 85.5379113,41.1896173 84.137606,39.7789303 C81.5235603,37.0399991 78.5698708,34.736793 75.5224409,33.0125183 C73.9638658,32.1703809 73.0236114,31.6992358 72.4292094,31.6058007 C72.1648837,31.5640705 71.9501254,31.6376582 71.9259015,31.7955208 C71.8754181,32.1127727 72.2964867,32.8840704 73.2518048,34.115419 C75.5785223,36.971195 78.4824408,39.5940957 81.864629,41.7501262 Z M96.8293106,36.5239686 C98.4288016,39.2652407 102.428496,43.0899735 106.489565,45.6755205 C108.39389,46.8960803 110.590328,47.9981667 111.382186,48.1214237 C111.647834,48.1651896 111.870735,48.0371489 111.894145,47.8788792 C111.91959,47.719897 111.870735,47.604579 111.763865,47.4237138 C111.465646,46.7286502 110.162847,45.1149098 108.769463,43.6526198 C106.079387,40.9569455 103.192873,38.660966 100.148293,36.9361823 C98.5969441,36.042849 97.5806591,35.6134342 97.0535345,35.531195 C96.7899212,35.4901772 96.5740434,35.563765 96.5490052,35.7208134 C96.5235599,35.8818312 96.5661045,36.0488541 96.8293106,36.5239686 Z M146.819335,54.2902785 C147.148088,54.3427976 147.362846,54.267276 147.396434,54.0545534 C147.456485,53.6843752 147.025951,52.9683447 146.15165,52.0721615 C144.015264,49.7336374 141.506358,48.0419326 139.723152,47.7604059 C138.995416,47.6463092 138.502796,47.7854441 137.718063,48.4732812 C140.480404,51.1283448 144.968953,53.9972506 146.819335,54.2902785 Z M67.4514996,29.6875311 C67.7524665,27.7850375 69.6683952,25.9191851 71.1212196,26.149007 C71.7819829,26.2524166 72.5739422,26.8109917 74.0020338,28.0613733 C76.9878861,30.5900247 80.2043746,33.8024419 83.8482422,37.7305843 L84.592059,38.6072255 L84.1221353,37.721424 C81.500456,33.3022892 80.4473262,30.9696684 80.5879878,30.0739942 C80.6886494,29.4378619 81.1760794,28.9202028 82.0670717,28.4120095 C82.653433,28.1237652 83.075316,28.027582 83.5377078,28.1003555 C84.0649343,28.1826965 84.3626442,28.4450883 84.7169444,29.2044776 C87.2002014,34.2477345 90.0564863,37.2344011 94.4322623,39.0764367 C92.7839163,36.8566912 91.942186,34.8910933 92.1596924,33.5141976 C92.4494633,31.6674801 94.4334836,29.8139433 95.8194378,30.0314496 C96.6777584,30.1645794 97.6598449,30.807531 99.7889034,32.7668185 C101.331499,34.1452409 104.324679,37.0515003 105.652924,38.5058515 L109.07786,42.1318056 C109.143,42.1405587 109.365901,42.4479379 109.787275,42.7831033 C108.838674,41.0631033 108.419336,40.293027 106.192364,36.8042739 C104.015265,33.4307371 103.025952,31.9755717 101.863611,30.3335361 C96.8149594,25.8555719 93.5825931,21.4507883 93.8816262,19.5499232 C93.9801503,18.9150122 94.4111936,18.33374 95.1614226,17.8554703 C95.4679874,17.6327731 95.8246286,17.5274296 96.1529747,17.5770988 C96.4182164,17.6188291 96.6643233,17.7668189 97.019336,18.0939436 C97.7203029,18.8009156 99.5765878,21.2011191 101.39786,23.8151648 L105.109412,29.0561825 L109.035112,34.6533325 C112.220862,39.2295156 114.778623,41.5076834 118.71959,43.012518 C117.56132,41.0405079 116.603559,39.1479888 115.907376,37.4105843 C115.512465,36.4822383 115.446308,36.0409151 115.529768,35.5101263 C115.604068,35.0350118 115.944017,34.602849 116.695162,34.1252918 C117.381168,33.638676 117.875824,33.4983198 118.273788,33.5607116 C118.799997,33.6422383 118.981168,33.7806607 119.914501,35.1721111 C121.124679,36.9322128 121.949106,38.1441212 122.461066,38.7663095 C123.426969,39.9463603 124.58931,41.1597954 125.801524,42.0543501 C127.207122,43.1535867 128.853941,44.0649353 130.69618,44.8226961 C129.70992,43.0244264 129.223406,41.3712967 129.419844,40.1307878 C129.594908,39.0226962 130.346053,38.1103298 131.997961,37.072569 C133.344526,36.2555716 134.122134,36.0528235 135.046307,36.1986759 C135.837147,36.3211187 136.398979,36.6253426 137.338419,37.5345538 C144.591345,44.3563348 148.758266,47.1234594 154.483457,48.9969453 C154.799996,49.0847825 155.010683,49.1757749 155.178622,49.2704313 C155.902286,49.3201005 156.861065,49.4214746 158.182184,49.5805586 C160.500759,49.8886502 160.972006,49.9093117 162.245289,50.0012201 C160.361319,49.0564873 159.420861,48.5838156 158.05394,47.8260548 C155.684474,46.5331286 151.971497,44.3244773 150.015263,42.9906351 C147.191854,41.1398463 146.43562,40.3705842 146.57506,39.4700245 C146.641218,39.0505843 146.990327,38.5627471 147.527732,38.159999 C147.915518,37.8398973 148.342999,37.6940449 148.739945,37.7545029 C149.002541,37.7962332 149.184729,37.9333324 149.664118,38.3341466 C150.744017,39.2076326 154.103813,41.5215257 157.354703,43.6565892 C163.617299,47.7258003 169.879894,50.9310929 173.81679,52.1453422 C174.65852,52.3855458 174.896688,52.5866654 174.831548,53.0096679 C174.781675,53.3258002 174.418316,53.4855966 173.890072,53.4033574 C173.561319,53.3500241 173.038164,53.2132302 172.009156,52.8888536 C169.953176,52.1874796 168.293126,51.5490063 166.396942,50.7072761 C165.957248,51.3438155 165.12366,51.4825432 161.772006,51.2786756 C158.411192,51.1299733 157.239691,51.2718562 157.14707,51.8531285 C157.10534,52.1155203 157.270225,52.3576577 157.691599,52.6971997 C159.284474,54.1921615 161.708902,55.5474795 164.088546,56.3550113 C164.094652,56.301678 164.102795,56.2476322 164.112973,56.1963345 C164.186255,55.7195915 164.378622,55.3712963 164.65852,54.8739935 C165.176586,56.3083955 166.011192,57.0368434 168.040708,57.8959782 C170.697197,59.0712453 170.822388,59.1463598 170.671751,60.0978102 C170.531293,60.9931791 169.763863,61.5763852 168.903813,61.4440697 C167.913482,61.2862071 165.420861,60.3530774 163.134856,59.3980647 C159.082948,57.6236118 155.073787,55.1542989 152.894653,53.0788791 C151.962337,52.1194898 151.698724,51.6476323 151.823915,50.8536374 C151.900251,50.3666145 152.155721,49.9999988 152.541472,49.7256985 C152.105849,49.5785229 151.648851,49.4155713 151.196943,49.2393881 C147.88193,47.9591846 145.695671,46.8026451 140.313482,43.5770981 C138.340963,42.3465638 136.346053,41.2738921 135.70992,41.0115002 C135.395416,40.8536377 135.067681,40.8027471 134.734857,40.750228 C134.075315,40.6448845 133.636638,40.8496682 133.553177,41.3772 C133.363864,42.5937903 134.50076,44.8274798 136.504831,47.1453423 C138.058012,45.8742991 139.273279,45.4695154 140.858012,45.718065 C142.839691,46.0301261 145.661065,47.8809148 148.282948,50.5685484 C150.205594,52.547276 150.978113,54.0772506 150.780658,55.3439172 C150.541472,56.8762327 148.555721,58.2983192 146.973024,58.0486499 C144.924169,57.7258001 140.460047,55.1284465 136.997452,52.2030521 C134.90992,50.4600496 133.117554,48.4939428 131.796434,46.5926706 C130.805086,46.2885485 129.551142,45.8392864 128.590328,45.4146554 C126.427478,44.5332304 125.123661,43.7865638 122.532312,42.1887012 C123.718063,44.5392355 124.760302,46.1116528 126.819335,48.9265128 C129.615264,52.6665636 132.518063,56.1561309 134.907885,58.5890062 L138.76132,62.4948585 C139.454449,63.2542478 139.766918,63.8470213 139.66819,64.4799984 C139.510429,65.4814233 138.492617,66.3525683 137.63562,66.2169958 C137.17048,66.1442223 136.744017,65.8611688 135.984729,65.0926192 C134.938419,64.0068177 134.237147,63.2995404 133.882948,62.975062 C133.188801,62.216487 132.349106,61.5421868 131.423915,60.9637644 C130.376587,60.3117542 129.434093,59.8397949 127.644781,59.1786245 C128.925188,59.2167924 129.59389,59.2672759 130.38473,59.3928738 C130.781676,59.4549603 131.111447,59.5069705 131.762847,59.6628993 L130.839691,58.6526194 C126.52417,54.2040699 122.644272,49.2942481 119.754704,44.7161312 C119.483966,44.630635 119.191855,44.5371999 118.867173,44.4278869 C116.289056,43.5909404 114.828496,42.9794391 112.975061,41.8754188 C113.138928,42.1198972 113.254959,42.2451898 113.303814,42.3624417 L114.210684,43.9102279 L115.793381,46.3263093 C116.28702,47.0539428 116.427478,47.4542482 116.376587,47.7723143 C116.32875,48.0895662 116.162847,48.2804059 115.641727,48.5766909 C116.293127,49.598472 116.48244,50.1153168 116.374552,50.8035611 C116.167936,52.122645 114.820353,52.9393371 113.170481,52.6801005 C110.528242,52.2642226 105.874807,49.584528 101.179234,45.8691083 C99.1686489,44.2449862 97.4279874,42.5922636 96.0186236,41.0115002 C95.6786745,40.9100244 95.3157228,40.7948081 94.9597941,40.6687013 C92.0634074,39.726513 90.1065626,38.8239176 87.9695652,37.3509405 C88.711041,38.6589303 89.247326,39.5542993 89.5690563,40.0922127 L91.4015244,42.6527216 C91.6639163,43.1285485 91.8614735,43.592976 91.8113972,43.9102279 C91.7600995,44.2270727 91.5970461,44.4179124 91.1494125,44.6712457 C91.942186,45.6623907 92.1811682,46.2945536 92.0805066,46.9306858 C91.8666644,48.3022889 90.583611,49.1292609 88.9344507,48.8708385 C86.3585729,48.4653423 80.6400998,45.2389811 76.3740439,41.8078361 C70.4838659,37.0925182 67.0296166,32.3811697 67.4514996,29.6875311 Z" id="path68" fill="#1D50A0"></path>
                        <polyline id="path70" fill="#1D50A0" points="189.327222 4.87834084 190.998469 4.87834084 190.998469 0 191.710937 0 191.710937 4.87834084 193.383201 4.87834084 193.383201 5.47670215 189.327222 5.47670215 189.327222 4.87834084"></polyline>
                        <path d="M198.176076,5.47670215 L197.197959,2.82761316 C196.956738,2.13978621 196.763354,1.53666154 196.612718,0.982029492 L196.599486,0.982029492 C196.453939,1.55255976 196.274804,2.15490071 196.050886,2.82761316 L195.119588,5.47670215 L194.208647,5.47670215 L193.825949,0 L194.500758,0 L194.649359,2.34653429 C194.697196,3.17668185 194.738926,4.08317547 194.752158,4.76582176 L194.767425,4.76582176 C194.927222,4.11498209 195.133837,3.42120093 195.394397,2.63677347 L196.29516,0.031806615 L196.829512,0.031806615 L197.794397,2.68566914 C198.068188,3.44306353 198.289054,4.13366911 198.483456,4.76582176 L198.497705,4.76582176 C198.497705,4.09310931 198.551649,3.16674801 198.587272,2.40735872 L198.720606,0 L199.417807,0 L199.074804,5.47670215 L198.176076,5.47670215" id="path72" fill="#1D50A0"></path>
                    </g>
                </g>
            </g>
        </g>
    </g>
</svg>