<?xml version="1.0" encoding="UTF-8"?>
<svg width="200px" height="200px" viewBox="0 0 200 200" version="1.1" xmlns="http://www.w3.org/2000/svg" xmlns:xlink="http://www.w3.org/1999/xlink">
    <!-- Generator: Sketch 51.3 (57544) - http://www.bohemiancoding.com/sketch -->
    <title>emory-henry</title>
    <desc>Created with Sketch.</desc>
    <defs></defs>
    <g id="emory-henry" stroke="none" stroke-width="1" fill="none" fill-rule="evenodd">
        <g id="emory-henry_BGL" transform="translate(0.000000, 27.000000)">
            <g id="emory-henry" transform="translate(0.000000, 4.147180)">
                <g transform="translate(0.000000, 0.512597)" id="g10">
                    <g transform="translate(99.039393, 66.655942) scale(-1, 1) rotate(-180.000000) translate(-99.039393, -66.655942) translate(0.000000, 0.495847)">
                        <g id="g12">
                            <polygon id="Path" fill="#D4A915" points="64.0340579 113.032629 0.297740211 97.6065291 94.6510441 97.6065291"></polygon>
                            <path d="M155.082583,0.109964545 C155.652211,0.18759541 156.231534,0.291440601 156.820033,0.420498157 C159.976197,1.11264305 163.312495,2.50185074 166.697707,4.38155617 C168.425132,5.34074289 170.055435,6.3672839 171.540867,7.39433929 C172.061666,7.75442971 172.527744,8.08931718 172.933024,8.39064495 C173.178868,8.57343152 173.351577,8.70583091 173.445037,8.77948072 L176.058954,10.8393223 L172.730966,10.8419131 L164.84565,10.8480511 C162.137051,10.852798 158.927232,10.9354064 157.771296,11.085399 C153.047738,11.6938202 148.687861,13.8713075 145.302415,18.2082852 C142.368987,21.9825838 141.790323,24.333915 141.478343,31.0819132 C141.146569,38.3611107 140.524187,42.5533108 138.270835,48.7692135 C135.590963,56.176364 130.611706,61.013596 124.189093,63.7302922 C121.866275,64.7128192 119.487056,65.3561212 117.148179,65.7235264 C115.588822,65.9684801 114.265323,66.0606368 113.251107,66.060383 L112.796489,66.0502322 C112.632105,66.041394 112.446604,66.0273123 112.243217,66.0076835 C117.57016,69.0826319 123.152436,70.6588159 128.796453,70.6588159 C139.470619,70.6588159 146.648559,73.7797987 150.929253,78.8760153 C151.387073,75.294781 152.625802,71.7730748 154.584218,68.5606434 C159.141871,61.0685739 166.889916,56.4006942 174.830977,56.4006942 C178.292818,56.4006942 181.644942,57.3245351 184.535625,59.0785828 C191.366107,63.2208117 194.789569,71.2852468 193.496887,80.0727964 C192.807365,84.8161615 190.430984,90.280565 185.570577,95.3706661 C184.537447,96.4499098 183.365744,97.4268603 182.088209,98.277907 C184.803993,99.3674115 187.271502,99.9111229 189.463463,99.9111229 C190.087165,99.9111229 190.61574,99.8697725 191.232233,99.7882445 C191.346328,99.773156 191.449659,99.7587371 191.643515,99.7314146 C192.178516,99.6512091 192.537041,99.6144568 192.872529,99.6144568 C195.770629,99.6144568 198.335204,101.784086 198.468412,104.4697 C198.584767,106.849939 196.794523,108.898721 193.91309,109.17698 C191.851258,109.375692 189.696194,109.262167 187.479286,108.876542 C189.537861,110.076222 190.71681,112.432581 190.241105,114.650032 C189.634668,117.396905 186.777951,118.754669 183.871187,117.725732 C177.033594,115.297303 171.137522,109.235725 166.405667,101.815758 C164.062018,101.440673 161.894562,100.653194 159.93832,99.463939 C157.719269,98.1214486 155.836134,96.3337198 154.357195,94.1916123 C154.329364,94.2722303 154.300692,94.3523936 154.271175,94.4320942 C151.13097,102.82713 145.727218,107.197289 138.33645,107.197289 C134.881505,107.197289 131.008545,106.19339 126.581519,104.172316 L42.5146326,134.609125 L63.524795,111.793218 L10.2695367,98.7674582 L80.4456259,98.6818755 L41.1282539,86.3703989 L73.9007116,80.5045828 L74.4073765,61.9414244 L97.6122758,79.5592301 C95.6723004,76.2250128 94.1535767,72.7552111 93.009451,69.2322805 C91.8295441,65.5991742 91.2130625,62.4607978 90.9943426,60.2403002 C90.583628,58.2846212 90.7160551,56.455199 91.8249855,55.0515042 C92.623924,54.0365278 93.8364108,53.4492205 95.1356598,53.4432658 C91.9528501,42.7481528 97.9546277,24.3518418 109.738479,12.0016519 C117.44937,3.90412179 132.767306,-0.420586289 147.675675,-0.420586289 C147.680166,-0.420586289 147.680166,-0.420586289 147.680166,-0.420586289 C150.181591,-0.420586289 152.612396,-0.228842163 155.082583,0.109964541 Z M155.082583,0.109964541 C155.082753,0.109987887 155.082923,0.110011234 155.083093,0.110034581 L155.082072,0.109894953 C155.082242,0.109918148 155.082413,0.109941346 155.082583,0.109964545 Z" id="path86" stroke="#D4A915" stroke-width="2.31028679" fill="#D4A915" fill-rule="nonzero"></path>
                            <path d="M172.01075,73.7089027 C169.615869,74.289239 168.273577,77.2538832 169.01917,80.3294412 C169.440251,82.0449061 170.427263,83.4061195 171.633462,84.1955112 C170.243111,86.9000125 168.848268,88.9972893 167.514734,88.9972893 C163.996973,88.9972893 162.505563,85.8917063 162.505563,85.8917063 C160.974852,84.0319415 160.624064,78.6094949 164.400537,74.3006664 C168.19026,69.9813068 178.050501,72.59999 178.050501,72.59999 C177.410235,72.9965904 176.752227,73.9287135 176.059184,75.1364402 C174.936304,73.9558257 173.449385,73.3598047 172.01075,73.7089027" id="path52" fill="#FFFFFF" fill-rule="nonzero"></path>
                            <path d="M192.850072,103.217768 C191.556513,103.232556 185.578295,105.35941 173.699338,97.9940694 C177.204074,97.2062461 180.519941,95.4322995 182.957491,92.8781478 C187.761176,87.8523016 189.476938,82.6138149 189.928336,79.5460993 C190.963632,72.4819061 188.376514,65.6207186 182.66105,62.1519212 C174.611791,57.2757525 163.422283,60.9843027 157.67201,70.4354927 C151.903995,79.8918363 153.768202,91.5066273 161.817012,96.3836924 C163.852346,97.6176351 166.172667,98.2786358 168.554298,98.4316743 C170.769293,102.147171 176.958388,111.442633 185.081982,114.33087 C187.336727,115.13169 187.098676,112.632883 185.450287,111.882703 C184.257787,111.341803 177.756756,110.692453 169.997424,98.4650604 C170.655208,98.4518404 171.304458,98.3906698 171.953707,98.3075406 C175.638104,100.77565 185.07749,106.412306 193.564224,105.587063 C195.942486,105.35941 194.664647,103.197602 192.850072,103.217768 Z M128.796453,74.263023 C125.112056,74.263023 112.042621,73.9356596 98.6866263,59.6784341 C93.151048,53.7607971 94.5705941,59.6784341 94.5705941,59.6784341 C94.5705941,59.6784341 96.0925468,79.3464547 113.634866,92.0957022 C131.178084,104.841365 144.820188,109.381207 150.88644,93.1696604 C153.092677,87.2598657 149.447805,74.263023 128.796453,74.263023 Z M113.003358,62.4521724 C113.003358,62.4521724 129.248301,63.0972643 134.877527,47.5447015 C140.50855,31.9876573 134.877527,25.7182335 142.456075,16.0008506 C146.868772,10.3335872 152.601529,8.11829372 157.30348,7.50649834 C159.312539,7.243913 164.839134,7.24216527 164.839134,7.24216527 C164.839134,7.24216527 161.369656,4.85792445 154.505036,3.66756297 C145.596548,2.12622131 122.445214,3.89427502 112.354108,14.4883913 C99.6848674,27.7689042 95.8924495,45.5979983 98.9251262,53.3774167 C101.956006,61.1592998 110.836422,62.3217648 113.003358,62.4521724 Z M77.8282151,69.0648685 L77.4307153,83.532942 L56.2477915,87.3273102 L103.945751,102.259205 L40.0378827,102.338077 L70.3163664,109.744646 L55.1749911,126.193481 L121.457304,102.193553 L77.8282151,69.0648685 Z M193.802275,108.027164 C188.26198,108.561118 182.371347,106.622482 177.747997,104.425494 C181.406119,108.068393 184.199397,108.920075 185.524397,109.322726 C185.942109,109.449548 186.256515,109.554636 186.467617,109.652554 C188.376514,110.517456 189.508378,112.558492 189.113124,114.401004 C188.672955,116.394761 186.582151,117.459981 184.257787,116.637203 C176.120494,113.747173 169.914106,105.242222 167.098146,100.749434 C164.703265,100.434394 162.505563,99.6727872 160.536254,98.4755916 C157.6107,96.7056781 155.338438,94.1279994 153.847253,91.0094204 C153.755176,92.0641086 153.540257,93.079585 153.189244,94.0273928 C150.206648,102.001078 145.206235,106.042145 138.33645,106.042145 C134.840697,106.042145 130.846609,104.941971 126.212929,102.724818 L126.525988,102.963899 L46.5674352,131.913266 L65.700203,111.136108 L19.8067128,99.9109715 L87.9709738,99.8278422 L45.9725329,86.6768407 L75.0297713,81.4759974 L75.5007076,64.2218618 L102.517447,84.7337226 C93.7652639,73.5950762 92.3046204,61.8070805 92.1377603,60.0636071 C91.8947689,58.9387855 91.7079215,57.0631119 92.7326626,55.765982 C93.3161115,55.0247649 94.2020645,54.5983635 95.155615,54.5983635 L95.1583099,54.5983635 C95.7608478,54.5983635 96.3663052,54.7621572 97.0222922,55.0982593 C96.8942838,54.8224315 96.7521271,54.5582553 96.6364704,54.2649502 C93.0484167,45.0579944 97.7916902,26.1959465 110.575016,12.7982461 C119.05636,3.89163101 135.86701,0.734557109 147.675675,0.734557109 C147.680166,0.734557109 147.680166,0.734557109 147.680166,0.734557109 C150.452335,0.734557109 152.94805,0.983138195 154.926117,1.25446219 C163.514584,2.42470235 172.730067,9.68677002 172.730067,9.68677002 L164.843625,9.69290948 C163.347723,9.69553108 159.141412,9.74278703 157.623726,9.93972043 C153.899803,10.4193829 148.588128,12.1217847 144.39035,17.4994177 C140.73672,22.2003652 140.561326,25.9046581 140.324398,31.0293183 C140.122504,35.4589194 139.868284,40.9732339 137.184598,48.376218 C131.371219,64.4443614 115.113027,64.9054934 113.27532,64.9054934 L112.858506,64.8967548 C112.275057,64.8653852 109.553868,64.6368358 106.438772,63.4577898 C113.40243,68.9272907 121.010846,71.8139593 128.796453,71.8139593 C141.951677,71.8139593 148.158289,76.7696722 151.044317,80.9263585 C151.351313,81.3711335 151.627766,81.8280083 151.886478,82.2927254 C151.829436,77.8122608 153.079651,73.2477707 155.571099,69.1609937 C159.92653,62.0013475 167.308574,57.5558376 174.830977,57.5558376 C178.081268,57.5558376 181.226233,58.4216365 183.936643,60.0662959 C190.350539,63.9558931 193.58219,71.5558329 192.353758,79.9066248 C192.007911,82.2857793 190.554903,88.4781237 184.736134,94.5718782 C183.274143,96.0991259 181.515712,97.4103721 179.568187,98.4298817 C183.231474,100.180525 186.546218,101.066266 189.463463,101.066266 C190.498759,101.066266 191.253335,100.95244 191.814776,100.873792 C192.252699,100.80814 192.587318,100.7696 192.872529,100.7696 C195.183418,100.7696 197.213587,102.48865 197.314646,104.526101 C197.388756,106.042145 196.319774,107.78405 193.802275,108.027164 Z" id="path54" fill="#FFFFFF" fill-rule="nonzero"></path>
                            <polyline id="path56" fill="#22356B" fill-rule="nonzero" points="55.1749911 126.193481 70.3163664 109.744646 40.0378827 102.338077 103.945751 102.259205 56.2477915 87.3273102 77.4307153 83.532942 77.8282151 69.0648685 121.457304 102.193553 55.1749911 126.193481"></polyline>
                            <path d="M128.796453,74.263023 C149.447805,74.263023 153.092677,87.2598657 150.88644,93.1696604 C144.820188,109.381207 131.178084,104.841365 113.634866,92.0957022 C96.0925468,79.3464547 94.5705941,59.6784341 94.5705941,59.6784341 C94.5705941,59.6784341 93.151048,53.7607971 98.6866263,59.6784341 C112.042621,73.9356596 125.112056,74.263023 128.796453,74.263023" id="path58" fill="#22356B" fill-rule="nonzero"></path>
                            <path d="M176.059184,75.1364402 C176.752227,73.9287135 177.410235,72.9965904 178.050501,72.59999 C178.050501,72.59999 168.19026,69.9813068 164.400537,74.3006664 C160.624064,78.6094949 160.974852,84.0319415 162.505563,85.8917063 C162.505563,85.8917063 163.996973,88.9972893 167.514734,88.9972893 C168.848268,88.9972893 170.243111,86.9000125 171.633462,84.1955112 C170.427263,83.4061195 169.440251,82.0449061 169.01917,80.3294412 C168.273577,77.2538832 169.615869,74.289239 172.01075,73.7089027 C173.449385,73.3598047 174.936304,73.9558257 176.059184,75.1364402 Z M193.564224,105.587063 C185.07749,106.412306 175.638104,100.77565 171.953707,98.3075406 C171.304458,98.3906698 170.655208,98.4518404 169.997424,98.4650604 C177.756756,110.692453 184.257787,111.341803 185.450287,111.882703 C187.098676,112.632883 187.336727,115.13169 185.081982,114.33087 C176.958388,111.442633 170.769293,102.147171 168.554298,98.4316743 C166.172667,98.2786358 163.852346,97.6176351 161.817012,96.3836924 C153.768202,91.5066273 151.903995,79.8918363 157.67201,70.4354927 C163.422283,60.9843027 174.611791,57.2757525 182.66105,62.1519212 C188.376514,65.6207186 190.963632,72.4819061 189.928336,79.5460993 C189.476938,82.6138149 187.761176,87.8523016 182.957491,92.8781478 C180.519941,95.4322995 177.204074,97.2062461 173.699338,97.9940694 C185.578295,105.35941 191.556513,103.232556 192.850072,103.217768 C194.664647,103.197602 195.942486,105.35941 193.564224,105.587063 Z" id="path60" fill="#22356B" fill-rule="nonzero"></path>
                            <path d="M135.539802,6.75988121 C131.631728,7.35594702 128.726161,8.55943888 128.726161,8.55943888 L139.452369,16.7555118 C140.350673,15.3593438 141.679715,14.0290518 141.679715,14.0290518 L135.539802,6.75988121 Z M109.981236,20.8559569 L135.21529,31.7617967 C135.314328,30.7640217 136.14526,26.9618111 136.14526,26.9618111 L116.299912,14.6582349 C114.391912,15.6578024 109.981236,20.8559569 109.981236,20.8559569 Z M100.500753,41.3870876 L132.112321,48.656303 C133.318744,46.3596056 133.938799,41.9586852 133.938799,41.9586852 L103.364997,31.8624033 C100.961358,38.4795807 100.500753,41.3870876 100.500753,41.3870876 Z M142.456075,16.0008506 C134.877527,25.7182335 140.50855,31.9876573 134.877527,47.5447015 C129.248301,63.0972643 113.003358,62.4521724 113.003358,62.4521724 C110.836422,62.3217648 101.956006,61.1592998 98.9251262,53.3774167 C95.8924495,45.5979983 99.6848674,27.7689042 112.354108,14.4883913 C122.445214,3.89427502 145.596548,2.12622131 154.505036,3.66756297 C161.369656,4.85792445 164.839134,7.24216527 164.839134,7.24216527 C164.839134,7.24216527 159.312539,7.243913 157.30348,7.50649834 C152.601529,8.11829372 146.868772,10.3335872 142.456075,16.0008506 Z" id="path62" fill="#22356B" fill-rule="nonzero"></path>
                            <path d="M135.21529,31.7617967 L109.981236,20.8559569 C109.981236,20.8559569 114.391912,15.6578024 116.299912,14.6582349 L136.14526,26.9618111 C136.14526,26.9618111 135.314328,30.7640217 135.21529,31.7617967" id="path80" fill="#D4A915" fill-rule="nonzero"></path>
                            <path d="M132.112321,48.656303 L100.500753,41.3870876 C100.500753,41.3870876 100.961358,38.4795807 103.364997,31.8624033 L133.938799,41.9586852 C133.938799,41.9586852 133.318744,46.3596056 132.112321,48.656303" id="path82" fill="#D4A915" fill-rule="nonzero"></path>
                            <path d="M128.726161,8.55943888 C128.726161,8.55943888 131.631728,7.35594702 135.539802,6.75988121 L141.679715,14.0290518 C141.679715,14.0290518 140.350673,15.3593438 139.452369,16.7555118 L128.726161,8.55943888" id="path84" fill="#D4A915" fill-rule="nonzero"></path>
                        </g>
                    </g>
                </g>
            </g>
        </g>
    </g>
</svg>