<?xml version="1.0" encoding="UTF-8"?>
<svg width="200px" height="200px" viewBox="0 0 200 200" version="1.1" xmlns="http://www.w3.org/2000/svg" xmlns:xlink="http://www.w3.org/1999/xlink">
    <!-- Generator: Sketch 51.3 (57544) - http://www.bohemiancoding.com/sketch -->
    <title>fayetteville-st</title>
    <desc>Created with Sketch.</desc>
    <defs></defs>
    <g id="fayetteville-st" stroke="none" stroke-width="1" fill="none" fill-rule="evenodd">
        <g id="fayetteville-st_BGL" transform="translate(0.000000, 8.000000)" fill="#2E63B6">
            <g id="fayetteville-st" transform="translate(0.502513, 0.502513)">
                <g id="g10" transform="translate(100.000000, 92.911895) scale(-1, 1) rotate(-180.000000) translate(-100.000000, -92.911895) translate(-0.000000, 0.952096)">
                    <g id="g12" transform="translate(0.000000, -0.052930)">
                        <path d="M152.240537,170.033093 C152.320209,170.673918 152.661519,170.346123 152.660535,170.033093 C174.928279,154.68382 201.835669,132.489241 199.181913,85.4019272 C198.598638,75.0414385 195.855375,67.6704798 192.895719,59.4482384 C193.33834,69.4295481 196.219307,79.9229267 195.409803,91.6083768 C193.026538,126.049496 172.106328,147.11205 153.497579,160.441397 C153.499547,164.205626 153.777906,168.340962 152.240537,170.033093" id="path60"></path>
                        <path d="M99.0129671,145.772323 C95.7483952,157.364258 87.4536876,162.183731 76.7993212,163.826644 C81.577655,167.097703 91.2631745,167.309343 98.5929694,166.647847 C110.905687,165.536493 117.340405,153.544904 130.027875,153.10686 C116.129592,148.307074 101.715903,146.142446 89.3726933,140.129917 C76.9980086,134.101638 66.5010183,125.70792 56.6817291,116.997234 C56.6817291,130.9615 43.173936,128.678747 34.0490692,127.152974 C43.2172145,137.795977 63.8108694,143.126338 78.4753773,136.180627 C75.6012951,145.288998 63.0534966,149.270772 51.652577,146.90041 C61.2908836,159.166638 88.7146642,158.068082 99.0129671,145.772323" id="path62"></path>
                        <path d="M136.733083,92.7364642 C140.790438,89.6809814 145.188118,86.7869351 149.306455,83.7088117 C153.569382,80.5233921 157.415262,76.1626353 161.880811,75.2461873 C153.910692,82.0078213 147.55958,90.9488492 139.667165,97.813842 C139.447822,95.1009197 137.86029,94.2297527 136.733083,92.7364642 Z M121.226613,70.7328533 C114.874517,78.1756709 114.710256,95.3489808 117.872533,105.713407 C109.003403,98.6042907 111.648306,72.3984064 121.226613,70.7328533 Z M78.0563633,50.9853187 C76.8406324,28.1253063 85.0291111,8.34253133 96.9169133,3.02693615 C80.3029081,26.2580558 96.3778999,66.0925355 109.490285,79.1954777 C104.836869,90.1584006 109.464712,105.573627 112.424367,112.4839 C99.2982114,99.6103163 79.679305,81.4792149 78.0563633,50.9853187 Z M147.630399,136.180627 C150.334319,125.639014 157.757556,139.113063 158.108701,143.515164 C155.302487,140.145667 152.259226,137.095106 147.630399,136.180627 Z M133.799985,140.693961 C136.786198,140.95285 139.152742,140.377978 141.344205,139.565873 C145.161561,144.20816 149.701863,150.880216 148.888425,159.877353 C145.535329,151.223761 139.57569,146.083384 133.799985,140.693961 Z M180.740378,67.3466223 C178.963994,70.7850248 178.716127,76.281744 174.873197,76.9383185 C174.422708,69.7504525 178.265637,68.3408354 179.064321,62.8331898 C179.133173,61.2366409 176.480401,63.3018481 176.550237,61.7053976 C178.314817,59.1910227 179.724318,56.1998191 182.836431,55.4988496 C185.607235,68.4186006 182.955447,77.8596883 178.644324,83.7088117 C171.581085,93.2955861 161.274913,105.405299 156.012647,114.177016 C156.142483,115.506899 157.468377,115.226354 157.269689,116.997234 C149.326127,116.332785 147.381548,131.803136 139.667165,130.538221 C136.208824,129.971224 133.968181,125.662639 133.379987,119.818437 C142.70846,127.917829 144.332385,111.014237 153.917577,112.4839 C151.986768,107.235242 144.952054,109.265997 142.18125,111.919857 C142.082889,107.149602 144.259599,104.933786 147.210402,104.584335 C148.815639,104.395336 150.279237,106.007734 151.821523,105.713407 C155.081177,105.09227 160.6759,96.8806597 163.556867,93.3005079 C167.593566,88.2861298 170.02011,82.3523506 173.196158,79.1954777 C172.518456,82.428147 170.197158,86.4305933 169.843062,88.2231302 C174.313528,83.0610966 183.419707,78.4010915 180.740378,67.3466223 Z M55.0046893,116.433191 C55.5879647,114.254781 53.0915853,113.531269 52.0706074,112.4839 C44.7240913,104.935755 36.8975778,95.15506 32.373013,83.144768 C30.5681051,90.6830695 29.1369656,98.7243838 22.3137251,99.5069575 C20.5845545,91.0984734 19.7317724,83.7954362 20.2186549,75.810231 C20.8019303,66.2283785 24.6458432,57.9605608 25.6668211,49.8563454 C26.4133743,43.9294567 24.7363345,38.6118928 27.3428773,34.059184 C28.4651661,56.3898025 34.2359534,72.7370295 41.5932891,85.9659709 C55.8496026,111.599937 77.6894801,132.313039 105.299161,142.387076 C112.597481,145.049796 120.143668,145.689636 127.512807,148.029482 C137.889798,151.323182 145.130085,159.183373 149.306455,171.161181 C155.091997,160.22582 148.462526,144.482799 143.439275,139.00183 C145.924835,139.012658 146.634011,143.022979 149.306455,144.644236 C150.88907,145.602027 153.012664,145.428778 154.754622,146.336367 C157.438869,147.734171 158.872959,150.963888 161.461797,151.414729 C162.233924,141.510003 156.8792,135.033836 152.240537,130.538221 C153.591022,121.983066 164.322109,119.994639 167.328977,126.024887 C167.456845,119.458158 164.219814,117.420513 160.622785,115.869147 C162.448349,114.558951 166.34636,115.297228 167.328977,116.997234 C168.09717,113.883674 165.027351,111.078221 162.718839,110.226741 C168.80733,97.1710487 178.441702,88.8905327 186.608541,78.631434 C184.464291,70.2593715 187.360996,56.7262599 183.674459,51.5494609 C176.860071,54.8116613 167.348649,67.6074802 159.365743,57.1906855 C169.829291,58.8249357 177.470888,53.7830936 176.550237,41.9575678 C172.841078,41.804203 170.172568,47.6485031 165.652921,48.1641158 C161.770648,48.607082 158.917221,45.636255 154.754622,45.3429129 C152.546437,48.0876303 152.601519,50.7954338 150.982512,53.2416904 C141.440598,67.6744173 114.095505,55.7538013 109.910283,77.5033465 C104.531953,68.1636489 99.4732924,55.1146502 99.8509952,40.265732 C100.414599,18.0916282 109.596514,5.06261223 124.997739,2.46289244 C92.4021845,-1.56111156 50.8607781,-7.37971954 53.3286332,46.4710987 C54.5856753,73.9044917 67.783634,94.1135971 80.1524171,107.970566 C87.1123781,115.768741 94.5208611,121.366851 102.365079,126.588931 C110.555525,132.041353 119.370558,135.484678 126.674779,142.387076 C104.93818,138.950642 87.7448336,126.307401 72.1891831,109.662697 C54.4125615,90.641726 32.5894052,52.8687128 47.880467,14.3118463 C25.5960018,29.7310098 -1.72056627,51.1979425 0.93909094,98.3788701 C2.49022978,125.913653 17.3849003,147.309908 33.2110411,160.441397 C63.402675,185.495569 110.684377,191.647878 148.049413,172.854296 C147.734661,169.704314 146.583848,167.68045 145.116315,166.083803 C103.639826,186.22794 52.3391305,167.826137 31.9530153,131.667293 C29.1487688,126.692289 27.7589405,119.550689 24.4087954,115.305103 C22.3383152,112.67979 18.3173541,110.957143 15.6075333,108.53461 C10.435759,103.910042 6.46791239,99.5089262 3.87218924,91.0443331 C3.79251756,90.5866013 3.4521916,90.4812737 3.4531752,89.9152613 C15.2583549,105.995921 31.6756398,115.867178 55.0046893,116.433191 Z" id="path64"></path>
                    </g>
                </g>
            </g>
        </g>
    </g>
</svg>