<?xml version="1.0" encoding="UTF-8"?>
<svg width="200px" height="200px" viewBox="0 0 200 200" version="1.1" xmlns="http://www.w3.org/2000/svg" xmlns:xlink="http://www.w3.org/1999/xlink">
    <!-- Generator: Sketch 51.3 (57544) - http://www.bohemiancoding.com/sketch -->
    <title>finlandia</title>
    <desc>Created with Sketch.</desc>
    <defs></defs>
    <g id="finlandia" stroke="none" stroke-width="1" fill="none" fill-rule="evenodd">
        <g id="finlandia_BGL" fill="#1E59AE">
            <g id="finlandia" transform="translate(0.000000, 9.000000)">
                <g id="g10" transform="translate(99.776282, 90.442958) scale(-1, 1) rotate(-180.000000) translate(-99.776282, -90.442958) translate(-0.000001, 0.062647)" fill-rule="nonzero">
                    <g id="g12" transform="translate(0.447427, 0.000000)">
                        <path d="M148.501115,152.697983 C150.595075,152.814314 161.557043,147.284113 160.760622,143.105142 C163.140936,142.532435 169.521249,140.393733 170.281875,139.624158 C152.77852,141.503352 149.449661,137.020131 148.510063,137.753912 C142.281876,142.595075 133.33333,142.237133 127.418341,140.196865 C129.011182,144.966439 133.378073,146.335567 137.369124,147.024605 C136.22371,144.733777 133.234896,144.187916 134.389258,143.17673 C138.174493,144.662189 143.158833,146.281876 145.610735,146.541383 C148.268453,145.118565 148.706931,144.626395 151.633106,142.434001 C153.190153,141.261741 155.847871,142.720354 154.604023,145.512301 C153.646529,147.695746 151.776283,149.870242 148.501115,152.697983" id="path32"></path>
                        <path d="M193.145409,129.118565 C194.201337,128.697983 198.765096,126.174493 198.765096,124.563755 C198.765096,119.167782 185.163306,104.572704 186.219235,99.0335546 C186.228183,98.6666642 186.120801,98.040266 185.968675,97.2706911 C185.181203,93.8881408 182.49664,91.3735995 179.919459,90.3176711 C178.86353,91.3735995 178.165544,91.6867986 177.467557,92.0984317 C177.959727,93.9955234 177.700219,96.859058 176.52796,98.4966418 C184.930644,101.762861 195.677847,117.530198 190.80089,120.9038 C188.868004,122.237133 181.646528,124.187916 182.353463,128.178968 C184.107378,125.583889 191.525722,126.854583 195.740487,126.201339 C195.946304,126.550332 193.637579,128.340042 193.145409,129.118565" id="path34"></path>
                        <path d="M174.899324,123.928409 C155.919459,114.63087 168.384783,112.429527 179.364649,112.653241 C181.87919,112.706932 181.279638,111.355702 179.319906,110.961966 C176.03579,110.299774 167.427289,109.88814 165.252792,110.120803 C162.156595,110.460847 163.337804,109.279639 164.948542,108.617447 C168.814313,107.024606 174.612971,106.684561 175.570465,106.648767 C178.434,106.523487 177.548094,105.306485 176.116327,104.993286 C163.847871,102.290825 158.711405,106.523487 155.776282,106.07606 C133.718117,102.747201 170.290823,126.487693 174.353463,126.416104 C180.95749,126.308722 175.731539,124.331093 174.899324,123.928409" id="path36"></path>
                        <path d="M175.158832,98.1208029 C173.055924,97.6554785 168.644291,98.6129729 164.519012,99.3825479 C159.991047,100.223711 155.400444,100.527962 153.172256,99.5257246 C145.88814,96.2326598 148.751674,92.250557 153.440712,94.0671117 C156.22371,95.1498858 163.677848,94.6219216 172.912747,93.2885883 C173.897087,94.1297516 175.29306,96.7158813 175.158832,98.1208029" id="path38"></path>
                        <path d="M139.928408,158.845634 C142.612972,173.279638 128.34899,178.648765 112.742726,180.161069 C118.451899,176.635342 124.662189,175.463083 126.210288,170.022367 C124.47427,172.214761 101.565993,176.760622 95.3199081,171.302009 C105.494405,173.100667 118.353465,167.97315 113.360176,160.581651 C125.109617,165.109616 137.082771,161.190153 139.928408,158.845634" id="path40"></path>
                        <path d="M108.787469,158.845634 C105.431765,170.881427 92.4742706,167.60626 87.1588345,155.704694 C97.3959707,163.167781 99.6062615,160.644291 96.8053667,157.843397 C100.348991,156.921696 97.9149864,154.666663 96.1789685,149.118565 C100.340042,153.440712 105.09172,157.539146 108.787469,158.845634" id="path42"></path>
                        <path d="M86.6487674,149.342278 C88.5100649,146.908274 90.0402662,145.736014 92.1879172,145.458609 C90.6040246,143.328855 83.5167764,140.599549 79.6957474,135.570466 C80.5637564,140.599549 84.8143156,144.796417 86.6487674,149.342278" id="path44"></path>
                        <path d="M86.3534654,177.44966 C65.3601773,169.682322 63.239372,161.02013 62.2013407,157.395969 C57.3333319,159.749437 51.8389249,145.798654 42.3266209,134.389258 C49.9328847,137.136462 61.6375824,153.14541 67.0067097,151.803128 C65.7539133,161.02013 80.5727049,174.407154 86.3534654,177.44966" id="path46"></path>
                        <path d="M33.6644287,124.241608 C20.2237131,110.800892 12.8053688,90.2371342 16.5816551,84.5011165 C9.5302011,76.4295283 8.42058144,76.5816536 0.0805369107,65.288589 C19.1856818,75.0872464 41.0022361,77.2170003 49.1006699,77.458611 C49.1006699,77.458611 39.409395,104.098431 76.1610719,123.79418 C66.8545845,121.58389 33.6733772,108.080534 33.7091714,96.2505569 C30.0044735,105.637581 28.4563751,112.322145 33.6644287,124.241608" id="path48"></path>
                        <path d="M128.689035,126.899326 C118.800892,123.257268 119.659952,117.718118 125.736015,117.011183 C95.4362392,92.152123 114.228185,88.2505571 126.800892,87.4630851 C132.375836,87.1140918 137.216999,100.187917 142.246081,101.217 C144.948542,101.77181 144.295298,100.626396 143.11409,98.5503331 C134.827737,83.9373581 145.467558,88.035792 159.883665,88.5816533 C161.476506,88.6442931 161.172255,87.3557025 160.16107,87.1856801 C158.577177,86.8993267 154.06711,82.5861277 156.026842,79.0961949 C157.986573,75.588365 162.237132,68.2684547 172.134224,71.5346738 C177.360175,73.2617431 184.017892,71.8836671 185.539145,69.8612958 C186.523485,70.7024591 187.123038,72.5100653 187.266215,73.9060384 C188.671136,72.5100653 188.348989,68.5190139 188.071584,66.9351214 C187.84787,65.6912735 185.5123,60.1789694 181.888139,58.4697972 C182.756148,60.7337792 183.006707,63.6957478 180.95749,62.4250544 C175.964201,59.3378061 172.375835,60.97539 170.550331,62.3355689 C168.447423,63.8926159 168.805365,58.5950768 167.069347,59.7494392 C157.467558,66.1834435 155.856819,61.7270678 157.771808,59.0067099 C180.46532,26.666666 156.52796,13.5391495 129.879191,0.0178970913 C153.404918,24.1700218 151.042502,32.3489925 146.147647,39.5973144 C147.79418,29.503355 137.055925,23.6510061 131.498878,19.5704693 C153.923934,63.4004458 97.6823242,77.458611 60.5906025,76.868007 C71.1409378,80.5548078 79.114092,86.5503334 86.0313178,84.5637563 C89.3333311,103.991049 105.011183,112.930646 114.111854,116.850109 C108.554807,123.078297 124.178968,126.031317 128.689035,126.899326" id="path50"></path>
                    </g>
                </g>
            </g>
        </g>
    </g>
</svg>