<?xml version="1.0" encoding="UTF-8"?>
<svg width="200px" height="200px" viewBox="0 0 200 200" version="1.1" xmlns="http://www.w3.org/2000/svg" xmlns:xlink="http://www.w3.org/1999/xlink">
    <!-- Generator: Sketch 51.3 (57544) - http://www.bohemiancoding.com/sketch -->
    <title>fla-southern</title>
    <desc>Created with Sketch.</desc>
    <defs></defs>
    <g id="fla-southern" stroke="none" stroke-width="1" fill="none" fill-rule="evenodd">
        <g id="fla-southern_BGL" transform="translate(0.000000, 22.000000)">
            <g id="fla-southern">
                <g id="g10" transform="translate(99.853155, 77.861971) scale(-1, 1) rotate(-180.000000) translate(-99.853155, -77.861971) translate(0.000000, 0.328933)" fill-rule="nonzero">
                    <g id="g12">
                        <path d="M28.8548598,77.4760627 C28.8548598,120.264314 63.5019074,154.951538 106.24082,154.951538 C148.980319,154.951538 183.627014,120.264314 183.627014,77.4760627 C183.627014,34.6865777 148.980319,0 106.24082,0 C63.5019074,0 28.8548598,34.6865777 28.8548598,77.4760627" id="path14" fill="#FFFFFF"></path>
                        <path d="M32.342378,77.5277514 C32.342378,118.599703 65.7574139,152.01468 106.829366,152.01468 C147.901905,152.01468 181.316882,118.599703 181.316882,77.5277514 C181.316882,36.4546834 147.901905,3.04033473 106.829366,3.04033473 C65.7574139,3.04033473 32.342378,36.4546834 32.342378,77.5277514 Z M29.4055206,77.5277514 C29.4055206,34.8352414 64.1380307,0.103478412 106.829366,0.103478412 C149.521876,0.103478412 184.25374,34.8352414 184.25374,77.5277514 C184.25374,120.219087 149.521876,154.951538 106.829366,154.951538 C64.1380307,154.951538 29.4055206,120.219087 29.4055206,77.5277514 Z" id="path16" fill="#2B59AE"></path>
                        <path d="M51.9466066,77.5089555 C51.9466066,107.79148 76.5838454,132.428778 106.866958,132.428778 C137.149483,132.428778 161.786193,107.79148 161.786193,77.5089555 C161.786193,47.2258432 137.149483,22.5890156 106.866958,22.5890156 C76.5838454,22.5890156 51.9466066,47.2258432 51.9466066,77.5089555 Z M34.9128332,77.5089555 C34.9128332,37.8331268 67.1911877,5.55524803 106.866958,5.55524803 C146.54214,5.55524803 178.819966,37.8331268 178.819966,77.5089555 C178.819966,117.184138 146.54214,149.462551 106.866958,149.462551 C67.1911877,149.462551 34.9128332,117.184138 34.9128332,77.5089555 Z" id="path18" fill="#2B59AE"></path>
                        <path d="M57.5860191,77.6475752 C57.5860191,104.941554 79.7914811,127.147133 107.086047,127.147133 C134.380026,127.147133 156.585605,104.941554 156.585605,77.6475752 C156.585605,50.3531265 134.380026,28.1474883 107.086047,28.1474883 C79.7914811,28.1474883 57.5860191,50.3531265 57.5860191,77.6475752 Z M54.6491616,77.6475752 C54.6491616,48.7336845 78.1720979,25.2106308 107.086047,25.2106308 C135.999409,25.2106308 159.522463,48.7336845 159.522463,77.6475752 C159.522463,106.560937 135.999409,130.083991 107.086047,130.083991 C78.1720979,130.083991 54.6491616,106.560937 54.6491616,77.6475752 Z" id="path20" fill="#2B59AE"></path>
                        <polyline id="path22" fill="#FFFFFF" points="71.3256957 136.586781 76.9668116 139.67518 77.8707763 138.025254 74.2654901 136.051098 75.5518336 133.701025 78.9450788 135.558881 79.8484562 133.908367 76.455211 132.051098 78.8287792 127.715122 76.7929496 126.600878 71.3256957 136.586781"></polyline>
                        <polyline id="path24" fill="#FFFFFF" points="83.9024942 130.320114 79.8760626 140.969747 82.0469877 141.790305 85.4079274 132.901025 89.2522738 134.354769 89.9183531 132.595004 83.9024942 130.320114"></polyline>
                        <path d="M94.5527142,135.214681 C95.8925086,135.503668 95.8672516,136.688983 95.2217304,139.681641 C94.5803207,142.659027 94.1104235,143.765048 92.7718038,143.476061 C91.4320095,143.187074 91.4602033,141.9859 92.1022003,139.009101 C92.7477216,136.016443 93.2135072,134.925694 94.5527142,135.214681 Z M92.4152693,145.128337 C95.8184998,145.861964 96.7618184,143.553594 97.4907465,140.170922 C98.2202619,136.788249 98.3124792,134.296032 94.9092487,133.562405 C91.5054309,132.828191 90.5626996,135.137148 89.8331842,138.51982 C89.1036688,141.901905 89.0120389,144.394123 92.4152693,145.128337 Z" id="path26" fill="#FFFFFF"></path>
                        <path d="M102.872831,141.369159 L103.83847,141.412625 C104.949777,141.462552 105.556532,141.968866 105.501319,143.195297 C105.453742,144.246105 104.866958,144.747133 103.820262,144.700143 L102.725401,144.650804 L102.872831,141.369159 Z M100.330688,146.234945 L104.614388,146.427603 C106.513947,146.512772 107.718059,145.577089 107.80499,143.633477 C107.873125,142.120408 107.307486,141.073712 106.014682,140.744196 L106.016444,140.712478 C107.604109,140.576208 107.884285,139.726869 108.02408,137.322757 C108.094564,136.129218 108.186194,135.510716 108.631422,135.306898 L108.635533,135.211744 L106.123345,135.098381 C105.883698,135.406751 105.816737,135.834945 105.779733,136.280173 L105.617619,138.459908 C105.545372,139.350364 105.118353,139.873712 104.183845,139.832008 L102.944491,139.776208 L103.160644,134.965635 L100.841701,134.861671 L100.330688,146.234945 Z" id="path28" fill="#FFFFFF"></path>
                        <polyline id="path30" fill="#FFFFFF" points="111.130687 134.964461 112.120996 146.306604 114.433477 146.104548 113.443169 134.762405 111.130687 134.964461"></polyline>
                        <path d="M118.987369,135.624666 L119.993536,135.397941 C121.565929,135.044343 122.101025,135.954182 122.779439,138.972096 C123.346252,141.49192 123.432596,142.829365 121.7022,143.218205 L120.743609,143.43377 L118.987369,135.624666 Z M118.849336,145.592361 L122.560937,144.757706 C125.706311,144.05051 125.792655,141.792067 125.057853,138.525107 C124.173859,134.58913 122.925694,133.006751 119.921289,133.682229 L116.351833,134.484578 L118.849336,145.592361 Z" id="path32" fill="#FFFFFF"></path>
                        <path d="M129.76916,135.164754 L131.856678,134.307779 L132.770041,139.465488 L132.740085,139.477823 L129.76916,135.164754 Z M132.178558,141.846105 L134.832889,140.756531 L133.329806,129.067251 L131.093095,129.985312 L131.515415,132.414681 L128.681935,133.577089 L127.275768,131.551245 L125.03847,132.468719 L132.178558,141.846105 Z" id="path34" fill="#FFFFFF"></path>
                        <path d="M92.942729,13.7855503 L92.8851665,13.4572096 C92.7007319,12.4112185 92.8828171,11.6864021 94.0863413,11.4744197 C94.7829639,11.3509542 95.5254014,11.6710129 95.6904528,12.6085166 C95.8696011,13.6235533 95.4132135,14.0905136 93.9999976,14.8710716 C92.0939771,15.9154768 91.3057246,16.908722 91.6340653,18.7672242 C92.0170315,20.937973 93.5582943,21.8091625 95.7121856,21.4289569 C97.7392046,21.0719525 99.0602031,19.952951 98.6825232,17.8132154 L98.6273103,17.5013799 L96.4422883,17.886167 C96.626723,18.932628 96.3700416,19.6065193 95.4989697,19.7597646 C94.4698948,19.9412624 94.087516,19.3486045 93.9723912,18.6930979 C93.8508053,18.005932 93.9823765,17.5477235 94.8763559,16.9709247 L96.5022002,15.9113652 C98.0828169,14.8751832 98.3741532,13.9383844 98.1345056,12.5798528 C97.7186466,10.2209689 96.0745938,9.41609374 93.6041093,9.85198213 C91.0231989,10.3076649 90.2190873,11.6733037 90.5826703,13.7350951 L90.6625528,14.1873124 L92.942729,13.7855503" id="path36" fill="#FFFFFF"></path>
                        <path d="M105.113654,10.2673125 C106.479292,10.211571 106.751245,11.3592361 106.875768,14.4011744 C106.999116,17.4279584 106.822317,18.6095737 105.456679,18.6655502 C104.09104,18.7212917 103.8185,17.5578263 103.694564,14.5310422 C103.570041,11.4883991 103.748015,10.3230541 105.113654,10.2673125 Z M105.524814,20.3453152 C108.995592,20.2032888 109.329806,17.7457264 109.189425,14.3066076 C109.049043,10.8686635 108.515709,8.44575603 105.045519,8.58731256 C101.575328,8.72886909 101.241701,11.1871363 101.381495,14.6255503 C101.52129,18.0639643 102.054623,20.4868717 105.524814,20.3453152 Z" id="path38" fill="#FFFFFF"></path>
                        <path d="M113.958294,20.3294562 L114.938029,12.4928631 C115.077824,11.3755063 115.453742,10.5756826 116.52217,10.7089571 C117.590599,10.8429953 117.758587,11.7104843 117.618206,12.828076 L116.63847,20.664904 L118.936855,20.9521874 L119.915416,13.1153594 C120.274299,10.2514535 118.597354,9.27447848 116.731275,9.04093957 C114.864021,8.80757687 113.01615,9.19994103 112.64082,12.2056385 L111.661084,20.0422315 L113.958294,20.3294562" id="path40" fill="#FFFFFF"></path>
                        <polyline id="path42" fill="#FFFFFF" points="127.595298 23.6217322 128.187956 21.8467542 125.807926 21.0531566 128.799409 12.0869894 126.60264 11.3539498 123.611157 20.3200582 121.232302 19.5259907 120.639645 21.3009099 127.595298 23.6217322"></polyline>
                        <polyline id="path44" fill="#FFFFFF" points="129.381495 24.5204693 131.421436 25.6139788 133.467251 21.7978849 135.847867 23.0743019 133.80264 26.8903958 135.844343 27.9836704 141.191773 18.0029364 139.151245 16.9091919 136.776502 21.3403813 134.395298 20.0647278 136.770041 15.6334798 134.728925 14.5397353 129.381495 24.5204693"></polyline>
                        <polyline id="path46" fill="#FFFFFF" points="143.295151 33.242936 144.400584 31.73345 141.092507 29.3110125 142.666663 27.1611153 145.780319 29.4412915 146.885753 27.9313356 143.772096 25.6516293 145.57004 23.1947718 149.008513 25.7121873 150.113946 24.2019965 144.807632 20.3170626 138.118646 29.4532151 143.295151 33.242936"></polyline>
                        <path d="M150.25844,32.892099 L150.943902,33.5717466 C151.731567,34.3536555 151.840819,35.1330975 150.980319,35.9994705 C150.243168,36.7423779 149.475474,36.7178258 148.733623,35.9810857 L147.957706,35.2111004 L150.25844,32.892099 Z M145.129512,34.7730975 L148.165635,37.7861371 C149.511891,39.1224072 151.026134,39.2405277 152.390011,37.8673118 C153.450216,36.7976496 153.732155,35.6470476 152.997353,34.5381489 L153.019673,34.5156526 C154.283697,35.4795292 155.057852,35.0412913 156.768278,33.3645219 C157.61703,32.5316879 158.098087,32.137914 158.562698,32.2861666 L158.630246,32.2185014 L156.849335,30.4517467 C156.466369,30.5180609 156.130393,30.7883693 155.806751,31.0919229 L154.230246,32.5885454 C153.581788,33.1965924 152.916296,33.295682 152.254915,32.6390594 L151.376208,31.7666952 L154.749482,28.3677526 L153.106017,26.7359758 L145.129512,34.7730975 Z" id="path48" fill="#FFFFFF"></path>
                        <polyline id="path50" fill="#FFFFFF" points="153.615855 44.0905128 161.537147 41.8054615 161.555356 41.8320694 155.275767 46.3816728 156.521582 48.1004393 165.690451 41.4567391 164.143315 39.3215262 156.06167 41.6822897 156.042874 41.6563279 162.464019 37.0036995 161.218792 35.285168 152.049923 41.928927 153.615855 44.0905128"></polyline>
                        <path d="M35.5641694,20.0633181 C35.5641694,20.0633181 49.7726272,22.53439 60.2748884,22.53439 C70.7770907,22.53439 80.9697483,20.9902491 80.9697483,20.9902491 C80.9697483,20.9902491 99.5030812,38.2879286 108.769454,44.7742133 C118.035827,51.2605567 128.846986,58.3647563 149.541846,65.7779719 C170.236706,73.1911876 186.207925,78.3424356 190.932741,81.2223181 C194.958585,83.6757688 200.985604,90.6942709 197.235825,99.5171781 C194.957998,104.876356 185.681053,105.314535 185.681053,105.314535 C185.681053,105.314535 187.540083,110.311304 184.760641,114.327163 C181.9812,118.342435 180.949775,120.868132 180.949775,124.265489 C180.949775,127.662846 183.789129,129.271656 183.789129,129.271656 C183.789129,129.271656 175.799115,129.437882 173.017323,128.481054 C167.274592,126.507486 163.613505,123.592948 155.469012,110.889865 C147.832595,98.9803206 147.818499,95.4184998 137.248161,88.874594 C127.171803,82.6367087 122.97797,84.9286322 125.758,89.870776 C128.538029,94.8129198 131.362111,98.1709227 131.362111,98.1709227 C131.362111,98.1709227 126.156238,92.3700417 130.700731,91.4155631 C133.406751,90.8464001 140.892801,89.8713634 145.217618,97.9019065 C149.541846,105.93245 142.21145,112.025254 139.966516,112.728338 C135.816149,114.028778 127.296913,113.382082 118.83289,104.882229 C112.044637,98.0657832 107.793243,94.553889 107.793243,94.553889 C107.793243,94.553889 108.347134,102.236121 103.420262,104.858735 C100.041701,106.656679 97.5682795,106.506312 93.1318626,105.766811 C87.3039626,104.795298 80.5433166,100.081055 74.674888,89.5788524 C68.805872,79.07665 67.960057,74.4816428 65.7979426,70.4663712 C63.6358281,66.4510997 62.4370028,64.8510997 62.4370028,64.8510997 C62.4370028,64.8510997 62.0622598,74.9497779 63.855505,86.0088084 C64.7441981,91.4878098 69.0014667,110.977971 69.3104241,115.3022 C69.6193815,119.626429 64.5791467,123.548308 62.8839926,123.671069 C59.1741542,123.940672 56.6157401,118.930394 54.0973848,113.96358 C51.8375905,109.50778 49.1551823,100.372978 49.1551823,100.372978 C49.1551823,100.372978 49.3240516,107.15242 48.0885157,109.623492 C46.8529797,112.094564 44.0920988,113.097795 42.5589417,112.91101 C39.579676,112.548602 36.9676936,109.278705 34.7283398,104.16035 C32.925403,100.040526 30.3131857,91.7239331 30.3131857,91.7239331 C30.3131857,91.7239331 28.7917761,99.2992633 24.6002931,100.7301 C23.8961521,100.970923 18.9812624,103.841407 11.2600878,90.6607907 C8.29568261,85.6005852 6.55770909,89.0766498 6.55770909,89.0766498 C6.55770909,89.0766498 4.21232295,86.4892783 3.11490741,82.9221712 C0.694290732,75.0549174 -0.0624082216,66.431129 2.31530097,59.8907474 C3.75069007,55.9423187 7.1360938,53.5265185 11.8734211,62.4975021 C16.677885,71.5958866 20.7379143,78.7512462 20.7379143,78.7512462 C20.7379143,78.7512462 19.5023196,66.3952994 17.6491626,56.8206153 C15.7957118,47.2453439 13.8966223,38.9973559 15.348957,34.6409389 C17.2512771,28.9344486 24.9295735,24.5509539 25.929456,29.0179728 C36.5097201,76.2966207 36.7901312,79.1459598 36.7901312,79.1459598 C36.7901312,79.1459598 31.5159463,43.3386186 32.9953589,39.4555056 C34.2747128,36.0962693 41.0848154,29.5918348 42.8590885,37.3628184 C44.4284864,44.2373557 46.062319,49.6815259 46.989015,54.9327446 C47.9157697,60.1838458 50.1073703,68.9715108 50.1073703,68.9715108 C50.1073703,68.9715108 47.973802,50.8452851 54.0606741,47.649338 C58.9069001,45.1053146 62.2930968,46.576269 64.4734198,50.1675171 C67.1929499,54.6462248 69.8502185,58.9826711 69.8502185,58.9826711 C69.8502185,58.9826711 74.2948586,53.1401455 82.0881037,56.0446388 C88.4422885,58.4129207 93.9430226,64.5427297 96.4140945,68.8669586 C98.8851664,73.1911876 101.974153,79.3685736 101.974153,79.3685736 C101.974153,79.3685736 103.769748,79.7938306 105.806752,80.5820832 C108.804109,81.7409671 110.117472,82.918647 110.162699,82.4199686 C110.30543,80.8346529 109.576502,75.2563858 112.136855,72.8798807 C114.368279,70.8093962 120.079292,69.9071936 127.492508,71.7603506 C134.905136,73.6135077 143.055503,78.7512462 147.379732,82.4575603 C151.704548,86.1644619 155.410862,90.1797334 155.410862,90.1797334 C155.410862,90.1797334 154.774739,85.4778246 162.187955,85.1688672 C169.601171,84.8599098 172.568571,87.9477217 175.488395,90.4886908 C180.434063,94.7929492 185.063138,94.8129198 181.665194,90.4886908 C178.268424,86.1644619 154.484578,79.677531 147.688689,77.2064592 C140.892801,74.7359746 106.197942,62.9908942 96.6226114,59.28458 C87.0472812,55.5777372 67.8325974,47.1289856 50.7183541,35.1323927 C43.3831414,29.9913062 35.5641694,20.0633181 35.5641694,20.0633181" id="path52" fill="#FFFFFF"></path>
                        <path d="M126.102199,86.3964736 C125.897794,86.5920683 125.797354,86.883992 125.797354,87.2505118 C125.797354,87.8249611 126.04405,88.5826703 126.525694,89.439058 C127.088984,90.4405264 127.651098,91.3591754 128.195592,92.2161504 C128.469894,91.5829639 129.079586,90.8552107 130.518646,90.5533017 C132.666076,90.1022004 135.793829,89.8478685 138.889864,90.9873692 C138.234945,90.5456659 137.546546,90.0957393 136.784725,89.62408 C130.031715,85.443757 126.84405,85.6851667 126.102199,86.3964736 Z M175.503079,89.3292195 L176.066369,89.8243737 C179.046692,92.4176188 181.424959,93.0008787 181.944195,92.8117451 C181.934797,92.6508053 181.834357,92.1292194 180.97327,91.0331842 C179.712183,89.4284853 175.037881,87.3785588 169.595884,85.3838451 C172.133329,86.3853136 173.887808,87.905431 175.503079,89.3292195 Z M147.953007,81.7885442 C150.796472,84.2255486 153.371509,86.7935367 154.824078,88.2901593 C154.996178,87.8049905 155.243462,87.2875162 155.669893,86.7788525 C156.948601,85.2522739 159.129511,84.4146822 162.151538,84.2883973 C164.947426,84.1720977 167.127162,84.5303944 168.934504,85.1424355 C164.121582,83.4020537 158.804695,81.7198217 154.734211,80.4340655 C151.676355,79.4678394 149.036707,78.6337719 147.387368,78.034653 C145.463726,77.3350935 141.216443,75.8625532 136.024666,74.069308 C140.684872,76.3635811 145.049042,79.2992638 147.953007,81.7885442 Z M137.712185,88.1256953 C145.973565,93.2399389 147.93891,96.5873691 151.85609,103.25756 C153.056678,105.301613 154.41703,107.618206 156.210275,110.414682 C164.253153,122.958587 167.836119,125.768572 173.303373,127.648161 C174.928043,128.206164 178.787073,128.369453 181.532448,128.39706 C180.775326,127.44963 180.068718,126.092802 180.068718,124.265489 C180.068718,120.745371 181.070186,118.11101 184.036412,113.825548 C185.098967,112.290746 185.403226,110.570335 185.403226,109.103081 C185.403226,107.151245 184.864606,105.646987 184.854621,105.620555 L184.441111,104.494564 L185.638762,104.43524 C185.725693,104.430541 194.391772,103.955945 196.424665,99.1723911 C197.19001,97.3720974 197.51835,95.6340652 197.51835,93.9923618 C197.51835,88.4229053 193.743901,83.9671051 190.474004,81.9741536 C187.088395,79.9107175 177.685752,76.6161508 164.671949,72.0563859 L149.245224,66.6073405 C128.795298,59.2822305 117.786194,52.1608798 108.264314,45.4960341 C99.6904527,39.4943309 83.0860478,24.1568276 80.6784121,21.9224664 C78.6696016,22.2056382 69.5483096,23.4154473 60.2748884,23.4154473 C52.3292792,23.4154473 42.203347,21.9977674 37.72693,21.3050802 C40.3184718,24.3789128 45.9336259,30.7030242 51.223846,34.4112767 C70.0129204,47.5812029 90.9662239,56.1504244 96.9409667,58.4627298 C103.064902,60.8334787 119.291627,66.4317164 132.329512,70.9303947 C139.420848,73.376797 145.544196,75.4889849 147.989424,76.3782653 C149.602346,76.9650495 152.226134,77.7938307 155.264607,78.7535957 C168.093388,82.8058716 179.818498,86.7113047 182.358292,89.9441975 C183.372095,91.2340653 183.716882,92.179146 183.716882,92.8681328 C183.716882,93.4296599 183.487807,93.820262 183.204694,94.0892781 C181.661082,95.5577069 177.863138,93.7233457 174.909834,91.153008 L174.338322,90.6513927 C171.618204,88.2537423 168.805282,85.7750346 162.224959,86.0487497 C159.774445,86.1509523 157.982962,86.7853135 157.043168,87.8831109 C156.163873,88.9104236 156.280172,90.0234926 156.284871,90.0704823 L156.590304,92.7477216 L154.764166,90.7776776 C154.727162,90.7377364 151.039644,86.7547702 146.807045,83.1265765 C142.340672,79.2992638 134.3254,74.3770907 127.278705,72.6149762 C119.93891,70.7800276 114.595004,71.8008793 112.736561,73.5259894 C110.977971,75.1577074 111.027897,78.829954 111.057853,81.0243739 L111.039645,82.4992637 C111.008514,82.8469876 110.821143,83.1383239 110.526282,83.298089 C109.979439,83.5935368 109.482523,83.3292196 108.581495,82.8487498 C107.899557,82.4863416 106.871069,81.9383239 105.488984,81.4038159 C103.537149,80.6490435 101.787956,80.2302476 101.770923,80.226136 L101.370335,80.1309818 L101.185901,79.7626999 C101.155357,79.7010259 98.0798801,73.55712 95.6493368,69.303963 C93.1089551,64.8581482 87.6851667,59.0707768 81.780321,56.8704244 C74.7212903,54.2389414 70.7171788,59.3010264 70.549778,59.5177665 L69.7673991,60.5339192 L69.0989704,59.4425829 L63.7204096,50.6250208 C61.535975,47.0266655 58.5104831,46.3082514 54.4701895,48.4294848 C49.9204099,50.8182072 50.4099841,63.9935373 50.9824951,68.8681334 L52.5922454,82.5738599 L49.252451,69.1841392 C49.2306596,69.0966209 47.0427007,60.3071938 46.121526,55.0860485 C45.5641692,51.9289267 44.7636993,48.7601163 43.8369446,45.0913351 L42.0000577,37.5589418 C41.5664013,35.6594411 40.8248448,34.6594999 39.7960049,34.5874881 C37.719118,34.4422312 34.6014676,37.7138317 33.8188538,39.769162 C33.6667246,40.1679285 33.5978846,40.9973558 33.5978846,42.1661663 C33.5978846,48.875711 35.8613207,66.7870762 37.6543897,78.9679863 C37.6565042,78.9820832 37.6661371,79.0549173 37.6667832,79.0596162 L35.9184719,79.2745942 C35.9131856,79.2393519 35.902378,79.1659305 35.8966805,79.1254018 C35.7575909,78.2572668 34.5766805,71.6933903 25.0695442,29.2105132 C24.89997,28.4533326 24.514948,28.1004398 23.8209098,28.0646689 C21.5014973,27.9464898 17.4412918,31.15066 16.1846105,34.9199404 C14.9602933,38.5921283 16.334214,45.5683395 17.9254034,53.6458136 L18.5141258,56.6526858 C20.3540083,66.1580013 21.6024077,78.5392051 21.6148012,78.6631405 L22.0294268,82.8129201 L19.9715707,79.1859011 C19.9309246,79.1142418 15.8501024,71.9148293 11.0942141,62.9086622 C8.41433165,57.8338312 6.57421423,57.1746241 5.71608796,57.2340661 C4.740041,57.3003804 3.80231415,58.3787357 3.14312474,60.192069 C2.21686925,62.7400865 1.7568399,65.7585887 1.7568399,69.0666649 C1.7568399,73.2563858 2.49472534,77.9107176 3.95695732,82.6631404 C4.63793821,84.8763562 5.83310411,86.6925088 6.57027884,87.679293 C6.97321568,87.3333311 7.495154,87.0537423 8.1272832,87.0325969 C9.46607906,86.9879567 10.7395005,88.0293664 12.020264,90.2155631 C16.4987367,97.8607905 20.7991184,101.32452 24.1290449,99.9682794 L24.3158291,99.8966201 C27.3531858,98.8593221 29.0515118,93.5201151 29.4495734,91.5500711 L30.1275763,88.1944178 L31.1538906,91.4602033 C31.1795587,91.5430227 33.7725102,99.7785584 35.5352708,103.80734 C37.7608801,108.893977 40.2264307,111.739792 42.6654321,112.036414 C43.910366,112.187956 46.2775319,111.275768 47.3006156,109.229366 C48.2325979,107.365049 48.3195876,102.219674 48.274595,100.394711 L48.1084863,93.6822297 L50.0007036,100.12452 C50.0270766,100.214975 52.6862836,109.233477 54.8832292,113.565342 C57.2402923,118.2138 59.6775315,123.020261 62.8199691,122.792361 C64.0176195,122.70543 68.7060188,119.211744 68.4317164,115.365049 C68.2443448,112.743022 66.5568265,104.338323 65.0678398,96.923933 C64.1339191,92.270776 63.3268707,88.2525675 62.9861952,86.150365 C61.1994111,75.131863 61.5530087,64.9204095 61.556533,64.8187943 L61.6487503,62.3306886 L63.1418486,64.3230527 C63.1923626,64.3906004 64.4052847,66.0217311 66.5738603,70.0487501 C67.3903067,71.5647559 68.0317164,73.1794402 68.7747413,75.0484563 C70.1016135,78.3882506 71.7527148,82.5444913 75.4437573,89.1488964 C80.5209965,98.2337714 86.854036,103.826723 93.2769433,104.897501 C97.6158566,105.620555 99.8472809,105.762112 103.006165,104.081055 C107.362112,101.762699 106.919821,94.6878097 106.914535,94.6167377 L106.771216,92.5673986 L108.354182,93.8748875 C108.39706,93.9101298 112.71659,97.4919212 119.457266,104.26079 C127.82731,112.666076 136.121583,113.009689 139.703374,111.887222 C140.712478,111.571216 143.674593,109.481936 145.016149,106.186194 C146.06167,103.616444 145.868425,100.969748 144.4417,98.3195276 C140.698969,91.3697481 134.339497,91.5512459 130.881641,92.277237 C129.935386,92.476356 129.810276,92.8581475 129.76916,92.9832576 C129.733917,93.0907466 129.717471,93.2111577 129.717471,93.3415542 C129.717471,94.1644617 130.378264,95.3920681 131.126575,96.4463999 C131.416737,96.8270167 131.640525,97.1130666 131.795004,97.3057244 C131.851979,97.3726848 131.910129,97.4543294 131.965342,97.5171782 C131.991186,97.5477215 132.034652,97.6017597 132.036414,97.6041092 L130.706605,98.7594689 C130.701906,98.7547699 130.687809,98.7383235 130.687809,98.7383235 C130.48634,98.5115981 130.044637,97.9947112 129.570041,97.3162971 C128.478705,95.8690138 126.734211,93.4020535 124.990305,90.3030814 C124.357706,89.1788524 124.0417,88.1333311 124.0417,87.2311285 C124.0417,86.3835514 124.320702,85.6628466 124.882816,85.1248143 C126.872244,83.2164443 131.548308,84.3101301 137.712185,88.1256953 Z M172.730098,129.313947 C166.855209,127.294564 163.054915,124.354182 154.727162,111.365636 C152.915121,108.540379 151.545371,106.207339 150.33656,104.149777 C148.599703,101.191774 147.282228,98.9538889 145.655209,96.9456657 C145.765048,97.1336246 145.886634,97.2863412 145.993535,97.483698 C146.952126,99.264021 147.43377,101.093096 147.43377,102.903962 C147.43377,104.23847 147.17239,105.562406 146.647867,106.850511 C145.095444,110.663727 141.701612,113.10778 140.229659,113.569454 C135.310422,115.110129 126.592067,113.923051 118.207927,105.504256 C113.758587,101.036121 110.419968,98.0111576 108.650805,96.4569726 C108.480467,99.0801737 107.625254,103.618793 103.834359,105.636414 C100.088103,107.630541 97.237002,107.343903 92.9873692,106.635533 C86.0258422,105.475475 79.2487499,99.5700416 73.9054313,90.008221 C70.1580012,83.3027879 68.4117457,78.9080744 67.1371496,75.6992639 C66.3847267,73.8055782 65.7903067,72.3101304 65.0220248,70.8839924 C64.3430234,69.6229057 63.7709235,68.6255489 63.2916284,67.8214374 C63.3121864,71.5911876 63.5348002,78.5274577 64.7254022,85.8678393 C65.0607913,87.9377364 65.9036694,92.1339184 66.7952994,96.5767964 C68.2948588,104.043463 69.9935372,112.505724 70.1891319,115.239351 C70.1991172,115.383844 70.2044035,115.52775 70.2044035,115.671069 C70.2044035,120.270775 65.0372965,124.398235 62.9474287,124.549777 C58.6364156,124.862846 55.9292203,119.524813 53.3115405,114.362405 C52.1195875,112.011745 50.8344774,108.452861 49.8632587,105.540673 C49.7042572,107.234065 49.4121574,108.946253 48.8766508,110.017031 C47.5515994,112.666664 44.5106009,114.036414 42.4527449,113.785607 C39.3162398,113.403815 36.4459315,110.284285 33.9211739,104.51336 C32.754889,101.848456 31.2828186,97.5377362 30.3579434,94.7289257 C29.4607922,97.2176187 27.7546542,100.584432 24.8850508,101.564168 L24.7937145,101.600585 C21.7930685,102.822318 16.8775326,101.992949 10.4997354,91.1066057 C9.2302494,88.9392048 8.41157101,88.7882504 8.19060185,88.7935367 C7.78425825,88.803522 7.43324504,89.3027878 7.34237867,89.4772371 L6.75706297,90.5973546 L5.9049044,89.6681329 C5.80350646,89.5565323 3.41478406,86.8928025 2.27285163,83.181202 C-0.454524511,74.3177661 -0.740869291,65.7192348 1.48724225,59.5900132 C2.40845222,57.0555639 3.86747714,55.5947123 5.59540074,55.4760632 C7.87882506,55.3187064 10.2533331,57.5429061 12.6523345,62.0857547 C15.3012625,67.1024947 17.7383843,71.5524211 19.3823196,74.5198219 C18.8587367,70.0663712 17.9391479,62.9544771 16.7841405,56.9878987 L16.1965341,53.9865478 C15.0208513,48.0176199 13.9601759,42.633068 13.9601759,38.5469594 C13.9601759,36.9355644 14.1251098,35.5258728 14.5131274,34.3624074 C15.9251097,30.1268715 20.579559,26.1357409 23.9103665,26.3048452 C25.398296,26.3805573 26.4475764,27.2992651 26.7891917,28.8252563 C29.4532151,40.7307479 31.4626718,49.8098079 32.9818494,56.7499545 C32.3527158,51.0643746 31.8727158,45.6293674 31.8727158,42.2473998 C31.8727158,40.7734498 31.9633472,39.6886334 32.1719228,39.1412031 C33.0685454,36.7882517 36.690513,32.6044045 39.9187655,32.8294852 C41.2210856,32.9203516 42.9373264,33.7467833 43.7181193,37.1666364 L45.5456083,44.6602045 C46.4418197,48.2085157 47.288457,51.5595288 47.8565627,54.7799693 C48.1188241,56.2641983 48.4861662,58.0451674 48.875476,59.8296608 C49.0808798,54.568633 50.1431999,48.7112469 53.6511,46.8692499 C58.4682511,44.3405569 62.5791467,45.3491912 65.2270175,49.7104246 C65.2270175,49.7104246 68.6167384,55.2686623 70.0093962,57.551188 C71.7345063,55.9283393 76.0528615,52.8547417 82.3958863,55.218912 C88.7459596,57.585373 94.395886,63.5594698 97.1794396,68.4299542 C99.2963264,72.1350936 101.887809,77.2387646 102.580908,78.6138013 C103.233478,78.7859011 104.603228,79.1718042 106.12452,79.7603504 C107.535974,80.3060186 108.577383,80.8510993 109.293977,81.2328908 C109.294564,81.1283386 109.295739,81.0478688 109.295739,81.0478688 C109.291627,80.7295134 109.286928,80.3835516 109.286928,80.0176191 C109.286928,77.527164 109.504256,74.1209967 111.537736,72.2343594 C114.007633,69.9418485 119.326282,69.2851671 125.44963,70.4193815 C113.869601,66.4187942 101.497207,62.116298 96.3048434,60.1063127 C90.2831108,57.7755639 69.1641686,49.1377374 50.212686,35.8542135 C42.855623,30.6977379 35.1945953,21.0185017 34.8721871,20.6084576 L33.448751,18.8011743 L35.7151827,19.1953593 C35.8565042,19.2199114 49.9711001,21.6533328 60.2748884,21.6533328 C70.5856076,21.6533328 80.7365619,20.1344488 80.8381771,20.1192947 L81.2593225,20.0552712 L81.5712168,20.34602 C81.7562388,20.5185311 100.165049,37.67577 109.274593,44.0521575 C118.698969,50.649103 129.59471,57.6968561 149.839644,64.9486034 L165.254034,70.3935372 C178.37004,74.9885444 187.846691,78.3095428 191.390891,80.4698952 C195.059613,82.7048437 199.287513,87.711011 199.287513,93.984726 C199.287513,95.8455189 198.915707,97.817325 198.046985,99.8613778 C196.048747,104.563874 189.460201,105.790893 186.819966,106.098088 C186.994415,106.836414 187.175913,107.886047 187.175913,109.104256 C187.175913,110.85521 186.799995,112.928632 185.484871,114.828778 C182.752418,118.775915 181.830832,121.156531 181.830832,124.265489 C181.830832,127.086047 184.129217,128.450511 184.227308,128.507486 L186.9486,130.085166 L183.807338,130.152713 C183.474298,130.159174 175.627602,130.310129 172.730098,129.313947 Z" id="path54" fill="#2B59AE"></path>
                        <path d="M88.1509523,86.9057247 C88.5967672,86.1726851 89.2499243,85.3403797 90.0792929,84.8669582 C90.0358274,84.0193812 88.7888377,81.5788526 86.3541829,77.5829643 L85.6146821,76.3471347 C84.6854604,74.6737133 82.5333313,71.9024945 81.6393519,71.5201157 C81.5958864,71.6728323 81.5453724,71.9441979 81.5453724,72.4528616 C81.5453724,72.5251083 81.5465472,72.6014666 81.5488966,72.6831113 C81.6992637,78.0886911 85.0114516,82.7565324 85.0449318,82.8035222 C85.0361212,82.7917747 86.9897188,85.3720977 88.1509523,86.9057247 Z M87.587663,89.0807614 L83.6276044,83.8502182 C83.4660772,83.6264296 79.9530083,78.692509 79.7873695,72.7318631 C79.7697484,72.0851671 79.7151228,70.1180599 81.0942711,69.74038 C83.5142417,69.0772376 87.1195279,75.4267235 87.1553576,75.4913344 L87.8590286,76.6660774 C90.7201152,81.3609378 92.1908934,84.1609377 91.7697481,85.5107174 C91.6534485,85.8819362 91.4020535,86.1691608 91.061378,86.3207027 C90.254917,86.6795867 89.4337716,88.0822298 89.1060183,88.8822298 L88.5204089,90.3107173 L87.587663,89.0807614 Z" id="path56" fill="#2B59AE"></path>
                        <path d="M168.740671,108.354182 C169.333329,109.168867 170.011743,109.941847 170.554474,110.525107 C170.911596,109.406752 171.320407,108.122758 171.320407,108.122758 L171.47606,107.649924 C171.722169,106.905724 172.141552,105.635827 172.141552,105.009102 C172.141552,104.871069 172.120994,104.764168 172.074005,104.700732 C172.055209,104.674887 171.920701,104.604403 171.561817,104.612626 L169.259908,104.629072 L167.222903,104.622024 C166.961523,104.622024 166.673124,104.596179 166.385899,104.560937 C167.086633,105.78267 168.038762,107.389131 168.740671,108.354182 Z M170.343608,112.827604 C170.274298,112.761818 168.628483,111.195298 167.316883,109.390893 C166.018204,107.605871 163.998234,103.917178 163.913065,103.760937 L162.931567,101.965343 L164.911009,102.486341 C165.305135,102.590306 166.489276,102.859909 167.222903,102.859909 L169.272242,102.866958 L171.519526,102.851099 C172.417029,102.829366 173.080172,103.09897 173.48957,103.651099 C174.294856,104.736561 173.738028,106.420555 173.148894,108.203228 L172.996765,108.667839 L171.363872,113.788543 L170.343608,112.827604 Z" id="path58" fill="#2B59AE"></path>
                        <path d="M172.143314,116.431715 C172.143314,116.431715 168.091626,112.982082 166.764754,111.373272 C165.175326,109.445519 163.309834,105.894858 161.792654,103.535387 C160.873417,102.105137 159.80029,99.910717 159.80029,99.910717 C159.80029,99.910717 161.721582,100.518059 162.916295,100.754183 C164.911009,101.147721 166.993241,101.582964 171.680466,101.00734 C173.282228,100.81057 175.796178,102.096326 175.585899,104.967986 C175.417323,107.271657 174.771214,108.367104 173.875473,111.42731 C173.011449,114.380027 172.143314,116.431715 172.143314,116.431715 Z M89.5841387,93.9929492 C89.5841387,93.9929492 84.5844325,88.5585881 82.3118922,85.1864883 C79.9958864,81.7491903 77.9007323,75.9911875 78.0528615,72.0346531 C78.1521273,69.4578544 80.1474282,64.0828178 84.785901,69.5212905 C89.4243737,74.9591758 91.8231989,80.877531 92.6231989,82.4769436 C93.4226115,84.0763562 94.3823765,86.7952989 94.3823765,86.7952989 C94.3823765,86.7952989 92.9433163,86.7952989 91.3433164,88.7148289 C89.7439038,90.634359 89.5841387,93.9929492 89.5841387,93.9929492 Z M6.85709234,84.8029347 C6.85709234,84.8029347 7.94008791,83.960644 9.56957392,85.0466939 C10.049339,85.3668114 11.2089278,86.3171785 11.2089278,86.3171785 C11.2089278,86.3171785 12.3437295,87.4748877 13.1511304,88.5662239 C14.5984725,90.5215836 13.7651685,89.2663707 17.1891332,93.9841386 C18.9617616,96.4264293 21.1249334,97.6640211 22.4066367,97.8314219 C24.3683401,98.0881033 25.9253444,96.3923618 27.3648745,92.7136541 C28.8044046,89.034359 28.484522,76.0787059 28.484522,76.0787059 C28.484522,76.0787059 31.7139493,86.5151227 32.8031122,89.834359 C34.8882811,96.1891312 37.6647274,103.48311 38.4643162,105.242875 C39.2639638,107.00264 40.4807038,109.50778 43.3594703,109.027897 C46.2385304,108.548015 46.2387654,104.069895 46.3984717,100.870482 C46.5581192,97.6716569 46.0785892,81.3574135 46.0785892,81.3574135 C46.0785892,81.3574135 47.9981192,87.4349464 48.6378255,89.6745939 C49.277708,91.9136541 53.1162982,102.469895 55.1954759,108.38825 C57.2748884,114.306605 60.3136549,119.584725 61.5935374,120.06402 C62.8734199,120.54449 64.7923626,118.464608 65.7521276,117.184725 C66.7118926,115.90543 65.11248,109.827897 64.4722451,107.108367 C63.8325975,104.389425 59.6158575,81.1248144 59.5394992,76.1791464 C59.4872232,72.7483095 59.1348003,62.2261365 61.2140954,61.2663714 C63.2933905,60.3066064 65.11248,64.4029352 67.0314227,67.2822303 C68.9509528,70.1615254 72.5791465,79.3010259 73.5694548,81.6005853 C76.1110113,87.5013194 80.1938306,93.7850197 85.1518334,98.26314 C90.1098362,102.741848 94.2302473,103.253448 97.4296598,103.572978 C100.628485,103.893096 102.609689,102.16035 104.049337,99.9212897 C105.488397,97.6816422 104.37474,89.8120389 104.37474,89.8120389 C104.37474,89.8120389 109.337442,91.5765029 113.17474,95.4972076 C115.467251,97.8390578 119.349777,102.146253 125.107192,106.464608 C130.865782,110.782963 134.492214,110.280761 137.385606,110.142729 C143.662258,109.844344 144.125694,102.469895 143.486046,100.230834 C142.846399,97.991187 139.788543,94.313654 137.069013,93.8337715 C134.35007,93.353889 133.49427,93.5142414 131.894857,93.8337715 C130.294857,94.153889 133.570041,97.5118918 134.049336,98.6314219 C134.528631,99.7515394 134.049336,100.3906 131.809688,100.3906 C129.570628,100.3906 127.215268,96.5803206 125.439057,94.112773 C123.453154,91.3562385 121.073125,86.8064589 122.992655,84.2472813 C124.912185,81.6881037 129.572978,82.3629935 136.190305,85.5582945 C143.812625,89.2393517 148.035826,94.553889 150.013506,97.140673 C153.451391,101.636414 155.561817,105.560056 157.560642,108.872244 C162.567397,117.167104 167.539497,121.528925 169.367397,122.995592 C174.330686,126.977383 178.513946,125.982376 178.513946,125.982376 C178.513946,125.982376 177.554181,124.382376 178.194416,120.86402 C178.834063,117.345078 180.434063,114.946253 182.512771,109.987662 C184.592653,105.029072 179.953593,101.830247 181.873711,102.150365 C183.792653,102.470482 196.108071,104.22966 195.628776,93.3533016 C195.148894,82.4769436 181.712771,80.077531 169.077822,75.5988234 C156.442287,71.1201157 146.41703,66.9068999 137.46079,63.7080748 C128.503962,60.5092496 119.042581,55.5130089 104.327751,44.7964747 C89.6129199,34.0804103 80.3071933,23.9365633 80.3071933,23.9365633 C80.3071933,23.9365633 69.3691613,25.5754472 60.5726857,25.2557997 C51.7756228,24.9357409 41.6673705,23.3126573 41.6673705,23.3126573 C41.6673705,23.3126573 52.5036698,34.8323046 75.367399,47.07483 C86.9503649,53.2768856 104.779439,60.08458 111.177677,62.0035227 C117.575327,63.9230527 138.606751,71.6875166 158.599702,78.0857543 C178.593241,84.4834046 183.789129,87.2023473 185.392653,91.2740065 C186.072829,93.0020535 185.825546,94.5779712 184.760641,95.7955923 C182.82349,98.0082208 176.59559,95.2722443 172.916295,91.5935366 C169.237588,87.9148289 164.75888,87.7550639 161.560642,87.7550639 C158.361817,87.7550639 157.956531,89.8537422 158.755943,93.8525674 C159.555943,97.8508052 154.257852,92.9603501 152.496325,90.8464001 C147.601171,84.9726851 143.006751,82.3165912 139.647574,79.7574136 C136.288396,77.198236 127.282229,73.3885444 120.724813,73.2287794 C114.166811,73.068427 112.919234,75.7068997 112.77709,79.1183534 C112.676062,81.5459598 112.720115,84.6173253 112.400585,85.5770904 C112.081054,86.536268 109.258147,84.8757688 106.219674,83.5964737 C103.180614,82.3171786 100.731275,81.8208496 100.731275,81.8208496 C100.731275,81.8208496 99.8220239,80.3976485 96.7829638,74.4798807 C93.7439037,68.5615255 90.065196,64.7230527 86.7060184,61.8437576 C83.3468408,58.9644625 79.7991169,57.645931 75.9606442,58.2860485 C72.1221715,58.925696 70.2314226,65.8419954 70.2314226,65.8419954 C70.2314226,65.8419954 68.451687,61.7638751 65.2763567,56.2683686 C62.091041,50.7548886 60.5685741,48.7958872 57.7292203,48.9450208 C55.9719222,49.037943 53.0637285,51.2568563 52.423846,57.0156227 C51.7841397,62.7735667 52.1251088,71.8854608 54.2371205,84.5562387 C56.0370617,95.3550637 53.7573555,87.9148289 52.7973555,85.8355338 C51.8373555,83.7562387 50.692451,79.4936838 49.1189415,74.9591758 C47.7464305,71.0049909 42.2682515,47.4942719 40.9746833,39.5053147 C39.8893969,32.8028773 35.4437583,39.8079285 34.9639933,41.4073998 C34.4842282,43.0068124 35.8952708,55.7298664 36.5618199,59.5917753 C37.1881929,63.2205564 38.8442868,79.6787058 39.8419373,89.3544765 C40.4650798,95.4008787 38.456328,91.2217305 37.3985894,87.9723913 C36.3335086,84.7001447 32.8207334,71.3168851 32.2471651,68.9004388 C30.9560638,63.4625535 25.8354179,40.112187 24.3270478,33.3732738 C23.2468129,28.5480756 21.264904,30.7752709 20.0002344,32.5456673 C17.7177675,35.7408508 17.8535678,35.4079286 17.7512477,36.3789712 C17.5598821,38.1926569 18.4439349,46.165109 19.1375032,49.706313 C20.0513945,54.3706301 23.2073416,72.7201157 23.6871066,79.917766 C24.1668716,87.1154163 23.3672828,86.6355338 22.7276353,86.9550639 C22.087694,87.2751814 18.2491038,81.0372961 17.44928,79.4378835 C16.6492213,77.8384709 8.17227586,60.8839926 6.57280453,59.6046975 C4.97338607,58.3252849 4.01362692,63.1236401 3.69378552,65.8419954 C3.37417319,68.5609381 3.54098082,74.0469879 4.97338607,79.1183534 C5.63119516,81.4472814 6.21468413,83.2252549 6.21468413,83.2252549 L6.85709234,84.8029347 Z" id="path60" fill="#D01841"></path>
                        <path d="M172.024665,115.943022 C171.055502,115.10543 168.074592,112.49985 166.991479,111.186488 C165.960642,109.935974 164.811743,107.993536 163.701024,106.115122 C163.115414,105.124226 162.56211,104.189131 162.039937,103.376209 C161.434945,102.43524 160.754768,101.14361 160.370627,100.392362 C161.04258,100.592655 162.090451,100.890453 162.859908,101.042582 L162.954475,101.061378 C164.970921,101.459616 167.057265,101.871363 171.716295,101.298676 C172.429952,101.211158 173.511303,101.464315 174.315414,102.230247 C174.817029,102.708367 175.394416,103.567105 175.2928,104.946253 C175.180025,106.484579 174.855796,107.453154 174.364753,108.919821 C174.136853,109.599997 173.87841,110.371216 173.593535,111.344491 C172.956236,113.523051 172.310715,115.222905 172.024665,115.943022 Z M159.235238,99.4243734 L159.53656,100.039939 C159.580613,100.129807 160.627896,102.266077 161.54537,103.693977 C162.062257,104.497501 162.612624,105.427898 163.195297,106.413507 C164.317764,108.311892 165.47841,110.2743 166.538028,111.559469 C167.866075,113.170629 171.78678,116.513947 171.953006,116.655504 L172.258439,116.915122 L172.414093,116.546253 C172.422903,116.525695 173.298087,114.444637 174.156824,111.509542 C174.43935,110.547427 174.695444,109.781495 174.921582,109.106018 C175.408513,107.651686 175.760935,106.601466 175.878997,104.989718 C175.996471,103.381495 175.313946,102.370041 174.720113,101.80499 C173.890745,101.015563 172.681934,100.58502 171.645223,100.716003 C167.077823,101.276356 165.040231,100.874006 163.067837,100.484579 L162.973271,100.465783 C161.808513,100.236121 159.907779,99.6370019 159.888395,99.6311282 L159.235238,99.4243734 Z M89.3533017,93.3022003 C88.0769435,91.8895719 84.3929494,87.7491902 82.5556514,85.0226117 C80.3659304,81.7732726 78.1926559,76.0311288 78.3465472,72.0464005 C78.4064591,70.4904535 79.1488967,68.0716576 80.6120391,67.5641686 C81.6798805,67.194712 83.0472813,67.9353874 84.5626998,69.7115988 C88.5186468,74.3500716 90.8158568,79.2980891 91.9195278,81.6763563 C92.0998509,82.0646088 92.2461064,82.3800273 92.3600564,82.6079275 C92.9779712,83.8431697 93.7022003,85.7809083 93.9841386,86.5562387 C93.4120388,86.6836983 92.2995572,87.1095426 91.1177657,88.52687 C89.900732,89.9870756 89.4883972,92.1961798 89.3533017,93.3022003 Z M81.1888379,66.8798809 C80.9256955,66.8798809 80.6690141,66.922759 80.4193812,67.0091026 C78.5979422,67.6411143 77.8208497,70.4199689 77.7591757,72.0234931 C77.6011728,76.1280451 79.8267234,82.0229054 82.0687204,85.350365 C84.3271638,88.7019067 89.3180594,94.1374426 89.367986,94.1920681 L89.8431696,94.708955 L89.8772371,94.0070461 C89.8789992,93.9747407 90.0528612,90.7224647 91.5694544,88.9027878 C93.0461063,87.130688 94.3718038,87.089572 94.384726,87.0889846 L94.7929492,87.0831109 L94.6596158,86.6977952 C94.620262,86.5861946 93.6845792,83.9430229 92.8857539,82.3453724 C92.773566,82.1209965 92.6296599,81.8108643 92.4522738,81.4284855 C91.3374427,79.0273108 89.0173252,74.0299541 85.0091021,69.3303947 C83.6187938,67.7004388 82.3377366,66.8798809 81.1888379,66.8798809 Z M182.626133,96.8834043 C182.683696,96.8834043 182.740084,96.882817 182.796471,96.8804675 C183.756236,96.8487494 184.491625,96.5486026 184.981493,95.9888375 C186.130392,94.6760622 186.373564,92.963287 185.665781,91.1665175 C183.972976,86.8687203 178.427015,84.1221712 158.688983,77.8061655 C147.175327,74.1215841 135.493095,70.0446385 126.106311,66.769455 C119.330981,64.4052847 113.980027,62.5380307 111.261671,61.7221717 C104.979146,59.8372966 87.1612313,53.0566213 75.5060187,46.8157991 C55.9501308,36.3447862 45.1133616,26.3018496 42.5034351,23.7380904 C45.1608212,24.1356822 53.3454906,25.2870478 60.562113,25.5488393 C68.7212905,25.8466367 78.8346529,24.4445221 80.1973548,24.2490449 C81.2751815,25.4015265 90.4170315,35.0296026 104.155063,45.0344188 C117.725695,54.9174142 127.346252,60.4076343 137.362111,63.9847267 C141.355063,65.4114521 145.613506,67.0596165 150.12217,68.8046973 C155.679879,70.956239 161.979438,73.3944181 168.979731,75.8760627 C170.949775,76.5738601 172.953887,77.2270172 174.8928,77.8584415 C185.649922,81.3609378 194.939202,84.385901 195.335091,93.3662238 C195.461963,96.2331841 194.681933,98.4340651 193.016735,99.9089549 C189.665193,102.876943 183.676941,102.153301 181.921875,101.86079 C181.757998,101.833184 181.37327,101.769748 181.185311,102.034652 C180.977969,102.325989 181.173564,102.683111 181.527749,103.331569 C182.211449,104.583257 183.484283,106.912185 182.241993,109.8743 C181.568277,111.480761 180.940965,112.826429 180.387661,114.014094 C179.24581,116.464021 178.344195,118.39941 177.905429,120.811744 C177.422609,123.466664 177.827308,125.0696 178.087514,125.750951 C176.990304,125.872537 173.513065,125.944784 169.550657,122.766517 C167.190011,120.872831 162.525106,116.529219 157.812037,108.720702 C157.41145,108.056972 157.006751,107.368573 156.587368,106.656091 C154.90866,103.803228 153.005576,100.569748 150.246692,96.9626995 C148.608513,94.8193809 144.257265,89.1283384 136.317765,85.2939773 C129.266957,81.8889847 124.704843,81.4760626 122.757119,84.0710699 C120.431715,87.171804 124.039351,92.6725381 125.201172,94.2848728 C125.421436,94.5908934 125.650511,94.9174719 125.887222,95.2557979 C127.584725,97.6740064 129.696913,100.684285 131.809688,100.684285 C133.19471,100.684285 133.997647,100.444638 134.337148,99.9301003 C134.576795,99.5665173 134.571509,99.1036686 134.319527,98.5157097 C134.160349,98.1456657 133.759174,97.6011723 133.293976,96.9709227 C132.659028,96.1098361 131.595885,94.6690138 131.765635,94.2290725 C131.773271,94.2102766 131.795004,94.1533016 131.95242,94.1215836 C133.48076,93.815563 134.323638,93.6475748 137.017911,94.1227583 C139.671656,94.5914807 142.60029,98.2002912 143.204108,100.311304 C143.582375,101.638177 143.578851,105.108955 141.863139,107.498969 C140.809982,108.966811 139.298675,109.758 137.371509,109.84963 L136.825254,109.878411 C134.051685,110.028778 130.600878,110.217325 125.283404,106.22966 C120.340085,102.522171 116.782963,98.8211429 114.428778,96.3718038 C114.049336,95.9776775 113.701612,95.6158566 113.384432,95.2916276 C109.544197,91.367986 104.522758,89.553008 104.472831,89.5347995 L104.015856,89.372685 L104.083404,89.8525675 C104.094564,89.9306879 105.16593,97.6399388 103.802053,99.762112 C102.09104,102.42408 100.075768,103.543022 97.4590284,103.281055 C94.4628464,102.981495 90.3594691,102.57151 85.3486029,98.0452252 C80.7964738,93.9336247 76.6014665,87.8972078 73.8390584,81.4842858 C73.6581479,81.0637278 73.3885444,80.4140949 73.0578543,79.6152697 C71.5906003,76.0787059 68.8593228,69.4948588 67.2757692,67.1189411 C66.892803,66.5450791 66.5069,65.9089558 66.1333317,65.2945652 C64.5873699,62.7524213 62.9903068,60.1239339 61.0907474,60.9997048 C59.2364156,61.8555051 59.1013201,68.4164447 59.2317166,75.3791464 L59.2458135,76.1838454 C59.320997,81.0713636 63.5113053,104.304843 64.1867825,107.175915 L64.3976489,108.058147 C65.0155637,110.624373 66.3007326,115.964167 65.517179,117.009101 C64.2901599,118.645518 62.6325976,120.138029 61.6969148,119.789131 C60.5574141,119.362112 57.527047,114.138029 55.4726565,108.291334 C54.825843,106.450511 54.0092791,104.161525 53.1713349,101.813213 C51.2967975,96.5597626 49.3584716,91.127751 48.9202337,89.594124 C48.2865186,87.3762093 46.3777962,81.3298071 46.3590003,81.2687204 L45.7229945,79.2557983 L45.7849034,81.3656367 C45.7899548,81.528926 46.2626126,97.7051371 46.1050209,100.855798 L46.0744776,101.509542 C45.9363278,104.548015 45.7647566,108.328925 43.3113058,108.738323 C40.7904248,109.159469 39.6677817,107.181789 38.731629,105.12129 C37.9861958,103.481348 35.206284,96.2155629 33.0823487,89.742729 C32.0062253,86.4640213 28.7974736,76.096327 28.7649332,75.9917749 L28.1385602,73.9676927 L28.1908363,76.0857543 C28.1940668,76.2149761 28.492804,89.0243737 27.0911594,92.6061651 C25.6841697,96.2032281 24.2088687,97.7673984 22.4446984,97.540673 C21.2146838,97.3791459 19.1196471,96.1439036 17.4267837,93.8114514 C15.2239644,90.7765029 14.7843168,90.2143883 14.3591773,89.6710697 C14.1269894,89.3744471 13.9023785,89.0872224 13.3872537,88.3911872 C12.5770922,87.2963267 11.4656678,86.1591755 11.4186194,86.1115984 C11.3473125,86.0505118 10.2186782,85.1265764 9.73245203,84.8023474 C8.46778246,83.9594693 7.4869308,84.1750346 7.00440511,84.385901 L6.4865784,83.1148291 C6.48722451,83.1148291 5.9042583,81.3339187 5.25582953,79.0384709 C3.88881048,74.1979423 3.63917759,68.8229058 3.98563867,65.8766503 C4.37614673,62.5544771 5.17070765,60.0199691 5.91753289,59.7133612 C6.00839926,59.6763568 6.15641688,59.6475756 6.38925094,59.8337724 C7.53074871,60.747135 12.9168866,71.0314226 17.1824372,79.5606441 C17.2283696,79.6534488 21.7175912,87.7832577 22.8588541,87.2182063 C22.9102491,87.192362 22.962995,87.1729787 23.0160347,87.1535955 C23.7740963,86.8716572 24.4288981,86.6284854 23.9803812,79.8983827 C23.493274,72.5938308 20.3218791,54.2230823 19.4259613,49.6498666 C18.7396765,46.1463131 17.8560935,38.1837289 18.0431126,36.4099257 L18.057327,36.2724807 C18.1176501,35.6663134 18.1176501,35.6663134 19.3736265,33.9218787 L20.2392946,32.7158876 C20.6139789,32.1914236 21.7550068,30.5960638 22.602114,30.7658729 C23.0036411,30.8475763 23.5793239,31.3768568 24.0404693,33.4379434 C24.514948,35.5566511 25.3462549,39.3192354 26.3039054,43.6503954 C28.4299552,53.2686037 31.0760638,65.2381775 31.9615264,68.9679865 C32.5318641,71.3720981 36.0423486,84.7547703 37.119353,88.0634339 C37.5958875,89.5265763 38.799999,92.908074 39.7273999,92.7148288 C40.1842574,92.6184999 40.411394,92.0170315 40.1342134,89.3245205 L39.7652853,85.7386175 C38.7702193,76.0417015 37.4068713,62.7624067 36.8511591,59.5418487 C36.1270476,55.3457842 34.8091034,42.9462544 35.2452855,41.491394 C35.576563,40.3877817 37.7622311,36.843582 39.2520401,36.9502487 C40.0967978,37.0055791 40.4974439,38.3959462 40.6848742,39.5523632 C41.9750357,47.5213498 47.4924511,71.1682802 48.8415259,75.0560921 C49.4752411,76.8828175 50.0468123,78.6883974 50.5513644,80.2819363 C51.3023188,82.6537424 51.9507182,84.7019068 52.5305126,85.9588818 C52.7209385,86.3712166 52.9650501,87.0002915 53.2234348,87.6663708 C54.1728621,90.1139478 54.4433467,90.670776 54.8786477,90.5515396 C55.2287798,90.455798 55.5056667,90.3800271 54.5266359,84.5080742 C52.1157109,70.0417016 52.2111588,61.5900131 52.7158871,57.0477519 C53.3345067,51.4796463 56.0623187,49.3268123 57.7446094,49.2387066 C60.356533,49.1030825 61.7897195,50.820498 65.0220248,56.4152115 C68.1515401,61.8308355 69.9447853,65.9189411 69.9624065,65.9600571 L70.2948587,66.7224653 L70.5151231,65.9195285 C70.5333316,65.8525681 72.4005856,59.177091 76.0088087,58.5756226 C79.6328908,57.971746 83.0696014,59.1136549 86.5151227,62.0663714 C89.2475749,64.408809 93.2575601,68.2578544 96.5215835,74.6138014 C99.5324498,80.4769437 100.4464,81.9201154 100.483992,81.9788526 L100.550952,82.0834047 L100.673125,82.1086617 C100.697207,82.1133606 103.131862,82.6149759 106.105724,83.8672519 C106.851686,84.1814957 107.584138,84.5180596 108.270188,84.8340654 C110.411157,85.8190874 111.65756,86.3618187 112.302494,86.0822299 C112.485166,86.0023473 112.615563,85.8602034 112.678999,85.6693077 C112.923345,84.9362681 112.965049,83.1453724 113.009101,81.2487498 C113.025548,80.5327439 113.042582,79.8061654 113.070775,79.1306882 C113.215269,75.6557984 114.550364,73.3715106 120.718352,73.5224651 C127.188837,73.6798807 136.145665,77.4590289 139.470187,79.9911874 C140.169159,80.5245207 140.91982,81.0602036 141.715121,81.6276044 C144.699556,83.7568261 148.414093,86.4064589 152.270774,91.0349463 C152.974446,91.8789992 157.126575,96.3060182 158.634357,95.5870754 C159.335679,95.2516863 159.116589,94.1556511 159.044343,93.795005 C158.523344,91.1888377 158.587368,89.6646086 159.253447,88.8522738 C159.696912,88.3118921 160.451097,88.0487496 161.560642,88.0487496 C165.138909,88.0487496 169.246398,88.3389112 172.708366,91.8014661 C175.635825,94.7283383 179.857264,96.8834043 182.626133,96.8834043 Z M40.8629065,22.8864018 L41.4535085,23.5141257 C41.5620548,23.6300141 52.5844333,35.2088097 75.2287793,47.3338608 C86.9180595,53.5928327 104.790599,60.3941248 111.093096,62.2848736 C113.798529,63.096621 119.144784,64.9621129 125.912478,67.3239337 C135.302787,70.6002919 146.988543,74.6784122 158.510422,78.3653431 C179.675179,85.1383239 183.689276,87.7491902 185.119525,91.3814955 C185.75095,92.9867818 185.551244,94.4464 184.53979,95.6023471 C184.160348,96.0346525 183.56769,96.2672516 182.777088,96.2936833 C180.190304,96.3941239 175.960642,94.2231988 173.123637,91.3861945 C169.199996,87.4613781 164.230246,87.4613781 161.560642,87.4613781 C160.264313,87.4613781 159.360936,87.7950051 158.799409,88.4804677 C158.000583,89.4537423 157.901905,91.0778244 158.468131,93.9101298 C158.594416,94.5415542 158.561523,94.9703354 158.3812,95.0572663 C157.599409,95.4343588 154.393535,92.6643149 152.721876,90.6584412 C148.81703,85.9723914 145.068425,83.298089 142.056384,81.149484 C141.265195,80.5844326 140.518058,80.0510993 139.825547,79.5236397 C136.439938,76.9444915 127.319233,73.0960334 120.731862,72.9350936 C113.73568,72.7582948 112.622024,75.7997044 112.483404,79.1060186 C112.45521,79.7856074 112.438764,80.5151228 112.422317,81.2352403 C112.380614,83.0044032 112.338323,84.8340654 112.121583,85.4836983 C112.11101,85.5165911 112.098676,85.5301007 112.06872,85.5430228 C111.629366,85.7345059 110.0464,85.0049905 108.515709,84.3001447 C107.824373,83.9823768 107.086047,83.6422887 106.333624,83.3256954 C103.689865,82.2132138 101.460203,81.6810552 100.916297,81.5600567 C100.663727,81.1418482 99.6105702,79.3433167 97.0443441,74.3453726 C93.7327436,67.8977957 89.6669581,63.9947121 86.8969141,61.6205565 C83.3115985,58.5474288 79.7192344,57.3614083 75.9124797,57.9965331 C72.6678396,58.5368561 70.801173,63.1700425 70.1803213,65.0179132 C69.5306884,63.6140953 67.9160042,60.2496314 65.5306885,56.1215258 C62.3906005,50.6866948 60.8029353,48.497385 57.7135962,48.6520399 C55.8310118,48.7506596 52.7909532,51.0512763 52.1319811,56.9826124 C51.6230824,61.5624067 51.5251088,70.0716576 53.9473114,84.6044032 C54.4238459,87.4631403 54.5769149,88.8428759 54.610865,89.5071931 C54.3552409,88.9603502 54.020028,88.0957394 53.7711,87.4537423 C53.5090736,86.7794398 53.2619664,86.1415544 53.0641984,85.7127732 C52.4993232,84.4898657 51.8559752,82.4575603 51.1111881,80.1045501 C50.6059312,78.507487 50.0328328,76.6977954 49.3961221,74.8628469 C48.0522749,70.9903066 42.5518345,47.4091618 41.2646686,39.4585012 C40.942554,37.4694851 40.2782956,36.4287216 39.2903368,36.3635821 C37.3203515,36.243817 35.0137436,40.2184425 34.682701,41.3227596 C34.1565924,43.0765922 35.6752414,56.1827886 36.2722458,59.6417019 C36.8247274,62.8422892 38.1867244,76.1104239 39.1811444,85.7985294 L39.5496025,89.3850198 C39.7443749,91.2728318 39.6471062,91.8948582 39.5837876,92.0898655 C39.2109241,91.7574133 38.388839,90.065196 37.6780607,87.8813488 C36.6044631,84.5838452 33.1022606,71.2311289 32.5328039,68.8323037 C31.6485161,65.1071937 29.0030536,53.1401455 26.8775324,43.5235231 C25.9198231,39.1916583 25.0878702,35.429074 24.6136264,33.3092503 C24.1822608,31.381497 23.5622902,30.3611152 22.7188834,30.1901901 C21.6361228,29.9713355 20.570161,31.2421725 19.7614092,32.3747422 L18.897092,33.5788538 C17.5743314,35.4162106 17.5490745,35.4508655 17.4727162,36.2144484 L17.4591479,36.3481929 C17.2625546,38.2126275 18.1459026,46.1719812 18.8493387,49.7627594 C19.7437293,54.3270471 22.9088394,72.6578543 23.3941257,79.9371492 C23.8135677,86.2302475 23.2342432,86.4458128 22.8113357,86.6032284 C22.7615853,86.6214369 22.7120112,86.6402328 22.6629069,86.6613782 C21.9039055,86.289572 18.6439937,81.1706294 17.7120113,79.3063123 C15.5249923,74.9339188 8.28469876,60.5979427 6.75635813,59.3750352 C6.31812025,59.0255492 5.93703363,59.0701894 5.69429061,59.1700426 C4.22081634,59.7750352 3.56736555,64.4035226 3.40216732,65.8079279 C3.04905719,68.8099836 3.30189713,74.2807617 4.69071354,79.1976485 C5.34278401,81.5066059 5.92969148,83.2992637 5.93544772,83.3168848 L6.73139484,85.2728319 L7.03606443,85.0355339 C7.08311289,85.0014663 7.99441977,84.3506587 9.40663706,85.2910405 C9.86901591,85.5994105 11.0113947,86.5350933 11.0228485,86.5444912 C11.0203228,86.5444912 12.1330981,87.6839919 12.9150658,88.7406733 C13.4351832,89.4431696 13.6623785,89.7333311 13.8966223,90.0328906 C14.3185312,90.572685 14.7549482,91.1301005 16.951424,94.1568258 C18.7559467,96.642582 20.972628,97.9400857 22.3685163,98.1227582 C24.4406455,98.3970607 26.1164751,96.7095424 27.6383547,92.8205557 C28.7483693,89.9835513 28.8333032,81.9283386 28.8069303,78.1104239 C29.79671,81.2975016 31.7339199,87.5177658 32.5241108,89.9259889 C34.6542135,96.4176187 37.4469888,103.713947 38.1970622,105.364461 C38.9090152,106.930981 40.2349476,109.843756 43.4076935,109.317472 C46.3298667,108.830541 46.5138314,104.7859 46.6611442,101.536561 L46.6919225,100.885166 C46.817385,98.3700416 46.5555935,87.9947115 46.4317169,83.4619656 C47.0509827,85.4414076 47.9570619,88.3606439 48.3553586,89.7550638 C48.7991177,91.3074867 50.7406155,96.7488963 52.6181485,102.01057 C53.4556227,104.357707 54.2719517,106.646106 54.9185302,108.485166 C56.9424362,114.246693 60.013508,119.785606 61.49016,120.339498 C63.1301012,120.956238 65.3468412,118.214975 65.9870762,117.360937 C66.8634345,116.193242 65.9641687,112.056972 64.968574,107.920702 L64.758295,107.041407 C64.0851673,104.179733 59.9077812,81.0331845 59.833185,76.1744474 L59.8190881,75.3679864 C59.7591762,72.1474284 59.5753289,62.3459603 61.336856,61.5330381 C62.7624067,60.8769441 64.2196753,63.2775315 65.631129,65.599411 C66.0082216,66.2196753 66.3976489,66.8604976 66.7870762,67.4449322 C68.3389117,69.7726855 71.0555048,76.3218777 72.515123,79.8408203 C72.8475753,80.641995 73.1183535,81.2945648 73.2998513,81.7162975 C76.0945649,88.2044031 80.3424356,94.3154161 84.955064,98.4810548 C90.1086615,103.136561 94.4969139,103.575328 97.4002913,103.865489 C100.261965,104.151539 102.451686,102.948015 104.29662,100.07988 C105.578852,98.0839917 104.951539,92.0569727 104.7301,90.2666644 C106.034065,90.8029346 109.888984,92.5603501 112.965049,95.7022003 C113.281054,96.0258419 113.627016,96.3859007 114.004696,96.7788522 C116.371803,99.2417009 119.949483,102.963287 124.931568,106.699557 C130.41938,110.815856 133.9859,110.621436 136.856972,110.464608 L137.399116,110.436414 C139.514828,110.335386 141.177089,109.462552 142.340085,107.841407 C144.172684,105.288103 144.174446,101.572391 143.768572,100.150365 C143.110129,97.8461062 140.02819,94.0581474 137.120114,93.5447847 C134.317177,93.0496306 133.435533,93.2264294 131.837295,93.5459595 C131.445518,93.6240799 131.284578,93.8455189 131.218205,94.0170314 C130.952713,94.7048434 131.714534,95.8196746 132.821142,97.319234 C133.246399,97.8954454 133.647574,98.4393514 133.779145,98.7471341 C133.947133,99.1400856 133.969453,99.4208492 133.846693,99.6064586 C133.699262,99.8302471 133.226428,100.096914 131.809688,100.096914 C130.001759,100.096914 127.987662,97.2252545 126.368279,94.9180593 C126.129806,94.5779712 125.898969,94.2496305 125.676943,93.9412605 C124.575034,92.4111577 121.141847,87.2041094 123.227603,84.4234927 C124.981495,82.0857542 129.300437,82.5574135 136.062258,85.823199 C143.875474,89.5958862 148.165048,95.2070461 149.779732,97.319234 C152.51747,100.898676 154.410569,104.11571 156.081053,106.953889 C156.501611,107.668132 156.907485,108.358881 157.309835,109.024373 C162.069306,116.910423 166.79236,121.306311 169.183549,123.224667 C174.201464,127.249923 178.405282,126.310129 178.581493,126.267838 L178.972095,126.175034 L178.765928,125.830834 C178.757705,125.817324 177.874885,124.259615 178.483402,120.916297 C178.908072,118.578558 179.752125,116.768279 180.919819,114.262552 C181.475473,113.069601 182.105135,111.718059 182.783549,110.101025 C184.135091,106.878705 182.774151,104.387663 182.042874,103.050218 C181.926574,102.836414 181.787954,102.583257 181.725106,102.426429 C181.752712,102.429366 181.785605,102.433478 181.825546,102.439939 C183.644636,102.74361 189.859026,103.489572 193.406163,100.348309 C195.20998,98.7506583 196.056383,96.3929491 195.921875,93.3403795 C195.508365,83.9530082 185.582374,80.7212902 175.074885,77.2998512 C173.140084,76.6696016 171.138909,76.0182066 169.175914,75.3221714 C162.183256,72.8434637 155.888396,70.4070467 150.334211,68.2566796 C145.822023,66.5104242 141.560055,64.8604976 137.559468,63.4314228 C127.600584,59.8748884 118.022905,54.4071058 104.500438,44.5592353 C89.9806145,33.9854323 80.6167381,23.8390009 80.5239334,23.7380904 L80.4182065,23.6229069 L80.2637278,23.6458144 C80.1550641,23.6623783 69.2528617,25.2746543 60.5832584,24.9621139 C51.9048445,24.6466367 41.8148595,23.0389422 41.713949,23.0231419 L40.8629065,22.8864018 Z" id="path62" fill="#D01841"></path>
                        <polygon id="path64" fill="#707378" points="35.9483104 79.1254018 38.0180901 86.0875162 37.6418199 78.9997043"></polygon>
                        <polyline id="path66" fill="#FFFFFF" points="38.0180901 86.0875162 34.1292796 70.9709233 33.7527745 72.4135077 37.1400284 84.8334781 38.0180901 86.0875162"></polyline>
                        <polyline id="path68" fill="#FFFFFF" points="38.0809388 85.6487497 35.5719815 63.0678398 37.265491 69.2775313 38.6454029 85.7115984 38.0809388 85.6487497"></polyline>
                        <path d="M129.175915,96.7806143 C129.175915,96.7806143 130.858147,98.6196745 131.26402,98.2455188 C131.668719,97.8713632 131.856678,97.7468404 131.607045,97.0613779 C131.357412,96.375328 130.67195,95.2534484 130.67195,95.2534484 L133.040232,98.5885438 L131.170628,99.5541825 L128.489865,97.6534484 L129.175915,96.7806143" id="path70" fill="#FFFFFF"></path>
                        <path d="M61.3145359,65.5359749 C61.3145359,65.5359749 61.3897195,61.9488971 63.9301012,64.7888383 C65.8138016,66.8939778 61.5389118,62.0240807 61.5389118,62.0240807 L61.3145359,65.5359749" id="path72" fill="#FFFFFF"></path>
                        <path d="M61.7333318,63.5917752 L61.7867826,62.751834 C61.972392,62.9632877 62.1644625,63.1823773 62.3553582,63.4008795 C62.2220249,63.3944184 62.0963274,63.4149764 61.9747415,63.4596166 C61.8866358,63.4925094 61.8061659,63.537737 61.7333318,63.5917752 Z M61.2910411,61.2963274 L61.0384713,65.2505123 C61.0249618,65.3897194 61.0220249,65.4913346 61.0208502,65.5295138 L61.6076343,65.5541834 L61.6234933,65.3104242 C61.6710704,64.8352407 61.8337723,64.1380307 62.1791468,64.0105711 C62.4963274,63.8930968 63.0537429,64.2490439 63.711599,64.984433 C63.9066063,65.2029352 64.045226,65.3574139 64.1503655,65.4619661 C64.1603508,65.4743009 64.1673993,65.4831114 64.1720982,65.4883978 L64.1750351,65.4860483 C64.3894257,65.6933904 64.4557987,65.6681335 64.6044037,65.5359749 C64.6977957,65.4531555 64.753596,65.4038163 64.5773846,65.1371496 L64.60969,65.1024947 C64.5826709,65.0754756 64.4745946,64.9562392 64.2596166,64.7160043 C63.850806,64.2126269 63.0954463,63.3521276 61.7597635,61.8296607 L61.2910411,61.2963274 Z" id="path74" fill="#FFFFFF"></path>
                        <path d="M191.686339,73.1101303 C191.534797,73.1682801 191.321581,73.1976487 191.046104,73.1976487 L190.777675,73.1976487 L190.777675,71.9741539 L191.206456,71.9741539 C191.464312,71.9741539 191.665781,72.0258425 191.810274,72.1292199 C191.954768,72.2320099 192.027014,72.3994108 192.027014,72.6296604 C192.027014,72.8604974 191.913652,73.0202625 191.686339,73.1101303 Z M189.672829,69.7233463 L189.672829,73.941261 C189.934797,73.941261 190.325986,73.9400863 190.846985,73.9383241 C191.368571,73.936562 191.658732,73.9342125 191.71747,73.9306883 C192.051097,73.9066061 192.328336,73.8343594 192.5486,73.7139482 C192.923343,73.5071935 193.111302,73.1718043 193.111302,72.7071935 C193.111302,72.3524211 193.012036,72.0963271 192.814092,71.9389116 C192.616148,71.781496 192.372976,71.6875166 192.083989,71.6563859 C192.348894,71.601173 192.5486,71.5201157 192.682521,71.4126267 C192.930392,71.212333 193.054327,70.8969145 193.054327,70.4669586 L193.054327,70.0898661 C193.054327,70.0487501 193.057264,70.0070467 193.06255,69.9659307 C193.067837,69.9248147 193.078409,69.8831113 193.092506,69.8419953 L193.13186,69.7233463 L192.078703,69.7233463 C192.044048,69.857267 192.020553,70.0516869 192.008806,70.3066062 C191.996471,70.5615254 191.973563,70.7336253 191.939496,70.8229057 C191.884283,70.9709233 191.780906,71.0743007 191.629364,71.1324505 C191.547132,71.1671054 191.421434,71.1894255 191.252859,71.1999982 L191.010274,71.2152699 L190.777675,71.2152699 L190.777675,69.7233463 L189.672829,69.7233463 Z M189.104841,74.044051 C188.499261,73.4249615 188.196765,72.6901597 188.196765,71.8396458 C188.196765,70.9585885 188.504547,70.2102772 189.1207,69.5941245 C189.733329,68.9779718 190.473417,68.6701892 191.340377,68.6701892 C192.2044,68.6701892 192.942726,68.979734 193.555355,69.5994109 C194.167983,70.222612 194.474004,70.9691612 194.474004,71.8396458 C194.474004,72.6866355 194.169158,73.4214372 193.560054,74.044051 C192.944489,74.6772375 192.2044,74.9944181 191.340377,74.9944181 C190.466368,74.9944181 189.720994,74.6772375 189.104841,74.044051 Z M194.004107,69.1089557 C193.264019,68.3929498 192.3765,68.0352406 191.340377,68.0352406 C190.270186,68.0352406 189.368571,68.4017604 188.635531,69.1348 C187.902492,69.8678397 187.535972,70.7694549 187.535972,71.8396458 C187.535972,72.95154 187.931273,73.8754754 188.72305,74.6120393 C189.466662,75.3004386 190.338909,75.6446383 191.340377,75.6446383 C192.39001,75.6446383 193.286926,75.2728322 194.029951,74.5298072 C194.773563,73.7861949 195.14537,72.889866 195.14537,71.8396458 C195.14537,70.7594696 194.764753,69.8490438 194.004107,69.1089557 Z" id="path76" fill="#2B5BAE"></path>
                    </g>
                </g>
            </g>
        </g>
    </g>
</svg>