<?xml version="1.0" encoding="UTF-8"?>
<svg width="200px" height="200px" viewBox="0 0 200 200" version="1.1" xmlns="http://www.w3.org/2000/svg" xmlns:xlink="http://www.w3.org/1999/xlink">
    <!-- Generator: Sketch 51.3 (57544) - http://www.bohemiancoding.com/sketch -->
    <title>frank-marsh</title>
    <desc>Created with Sketch.</desc>
    <defs></defs>
    <g id="frank-marsh" stroke="none" stroke-width="1" fill="none" fill-rule="evenodd">
        <g id="frank-marsh_BGL" transform="translate(0.000000, 34.000000)">
            <g id="frank-marsh" transform="translate(0.000000, 0.170854)">
                <g id="g10" transform="translate(100.149870, 66.437456) scale(-1, 1) rotate(-180.000000) translate(-100.149870, -66.437456) translate(0.000000, 0.141063)" fill-rule="nonzero">
                    <g id="g12">
                        <polyline id="path14" fill="#1E59AE" points="146.953712 95.9424467 146.964997 101.990794 122.140806 112.358985 124.587284 118.668991 98.7728795 129.567836 72.9580516 118.668991 75.4066454 112.358985 50.5807622 101.990794 50.5735683 95.923122 146.953712 95.9424467"></polyline>
                        <path d="M145.768841,61.466912 C138.286799,30.7293654 98.79164,2.67125093 98.79164,2.67125093 C98.79164,2.67125093 59.2115651,30.6592605 51.7907419,61.4337638 L145.768841,61.466912" id="path16" fill="#1E59AE"></path>
                        <path d="M98.2539339,131.364609 L70.6520656,119.712101 C70.6520656,119.712101 72.3942502,115.217488 73.1046089,113.389823 C70.1286062,112.145708 48.7470322,103.214597 48.7470322,103.214597 L48.7420952,95.998587 L52.5593569,95.9936501 C52.5593569,95.9936501 52.5642938,99.0913843 52.5642938,100.671636 C54.6945239,101.562124 78.0106831,111.301064 78.0106831,111.301064 C78.0106831,111.301064 76.2607404,115.809924 75.5526385,117.635332 C78.4404812,118.855185 97.6897093,126.98143 98.9960303,127.534653 C100.3008,126.98143 119.552849,118.855185 122.439986,117.635332 C121.732026,115.809924 119.983634,111.301064 119.983634,111.301064 L145.454285,100.655697 L145.417611,95.9578218 L149.237411,95.923122 L149.244464,103.214597 C149.244464,103.214597 127.864583,112.145708 124.887593,113.389823 C125.597246,115.217488 127.338443,119.712101 127.338443,119.712101 L98.9960303,131.677613 L98.2539339,131.364609" id="path18" fill="#6D86CB"></path>
                        <path d="M49.8237138,61.439265 C57.2020791,30.1369295 96.1231396,1.9588045 97.7773051,0.786278037 L98.8826212,0 L99.9879372,0.785176389 C101.640833,1.9588045 140.40377,30.1700777 147.791586,61.4640909 C147.791586,61.4640909 144.081809,61.4927253 144.090272,61.4779144 C137.344685,34.5312519 105.047763,9.32843845 98.8826212,4.71656516 C92.7157872,9.32843845 60.4668238,34.4871013 53.730264,61.439265 C53.7368937,61.4212098 49.8237138,61.439265 49.8237138,61.439265" id="path20" fill="#7BA3DC"></path>
                        <path d="M137.611845,95.4322466 L137.614666,100.091472 L117.121182,108.586297 C117.121182,108.586297 118.348935,103.276238 119.136733,95.451007 L137.611845,95.4322466" id="path22" fill="#FFFFFF"></path>
                        <path d="M135.505313,61.7930338 C127.288792,36.2806303 99.5625118,8.9454992 99.5625118,8.9454992 C99.5625118,8.9454992 109.666223,30.0956001 114.960202,47.1078186 C116.453422,51.9069722 117.552673,57.0644083 118.300411,61.7930338 L135.505313,61.7930338" id="path24" fill="#FFFFFF"></path>
                        <path d="M11.9737915,90.660599 C11.0668427,90.660599 9.46342919,90.5768116 7.6528465,89.7139711 C7.40599823,87.1220643 7.32335343,84.8172067 7.32335343,79.9617718 C7.32335343,78.1534319 7.36466877,71.8163431 7.44677756,68.4821988 C8.80499317,68.0315244 10.7384499,67.37251 12.8372103,67.37251 C18.3086657,67.37251 22.6704041,72.0218619 22.6704041,79.0570376 C22.6704041,87.6580777 16.4165384,90.660599 11.9737915,90.660599 Z M3.12693283,76.3830361 C3.12693283,77.9054552 3.04427393,84.3246386 2.88063468,86.3809553 C2.63323629,89.7139711 2.59245696,90.2071034 0.2044214,90.3724213 L0.2044214,91.4838027 L6.41860515,91.6060984 C8.02256878,91.6474278 11.3153554,92.0177002 12.7958808,92.0177002 C21.5182574,92.0177002 27.7709946,86.6685688 27.7709946,79.1815902 C27.7709946,73.4208568 23.8225508,65.9723866 12.3440639,65.9723866 C11.3153554,65.9723866 6.91230169,66.1795981 6.00755341,66.1795981 C5.26645848,66.1795981 1.93345671,66.1382686 1.23424135,66.1382686 L0,66.1382686 L0,67.1669912 C2.67400152,67.2909795 3.12693283,67.4551689 3.12693283,73.6682693 L3.12693283,76.3830361 Z" id="path26" fill="#1E59AE"></path>
                        <path d="M25.6325833,67.0843323 C27.0315783,67.2490859 28.8829403,67.4149679 29.4581673,68.4017968 C30.2406058,69.7996632 30.2406058,76.6304486 30.2406058,78.8526472 C30.2406058,80.7453387 30.2406058,88.4791656 29.6234851,89.6720775 C29.4174021,90.0848078 29.0873307,90.7828947 25.9609621,90.7828947 L26.0022915,91.8937119 C26.5361891,91.8937119 28.1423955,91.8544983 29.6234851,91.811053 C31.14534,91.7300867 32.5437707,91.6887573 32.7509822,91.6887573 C33.7785763,91.6887573 37.3986414,91.811053 38.4686934,91.8544983 L38.4686934,90.5768116 C36.4520135,90.5768116 35.7946919,90.4550802 35.3417606,89.9608194 C34.3543675,88.849438 34.3543675,81.773497 34.3543675,79.6741583 C34.3543675,77.7825953 34.3543675,70.0051821 34.6006515,68.8139628 C34.8888292,67.5791573 35.136806,67.3317448 38.2224093,67.0843323 L38.1391862,66.0556097 L31.597707,66.1382686 C28.5121037,66.2209276 26.9070257,66.1382686 25.6325833,66.0556097 L25.6325833,67.0843323" id="path28" fill="#1E59AE"></path>
                        <path d="M48.8082506,90.660599 C47.7799512,90.660599 47.1216421,90.4131865 46.6273814,90.2071034 C46.3392036,83.7488474 46.3392036,83.0903973 46.3810973,77.0001568 C46.9976538,76.8761684 47.8621869,76.6304486 48.9724399,76.6304486 C49.7956436,76.6304486 54.6091849,76.7125433 54.6091849,83.2534582 C54.6091849,88.8907674 51.3995932,90.660599 48.8082506,90.660599 Z M46.4218625,72.1866155 C46.463192,70.5005713 46.5039572,68.7313039 46.669134,68.2381716 C46.9976538,67.3317448 48.6429328,67.003366 50.2897634,67.003366 L50.2897634,65.8914204 C49.5901248,65.9327498 48.9724399,66.0154087 48.1498004,66.0556097 C47.2858315,66.0980676 46.2565447,66.0980676 44.6525952,66.0980676 C43.0475172,66.0980676 41.4435677,65.8914204 40.4975041,65.8914204 L39.510111,65.8914204 L39.510111,66.8386125 C41.8546053,67.4970626 41.9372642,67.8248771 42.0601241,68.2381716 C42.3477376,69.2663299 42.3477376,73.9960838 42.3477376,75.4777377 C42.3477376,77.247005 42.3064082,77.9473488 42.1846767,84.4056049 C42.0601241,90.5768116 41.8546053,90.6192695 39.1402617,90.7828947 C39.0985091,91.3190491 39.0985091,91.7714162 39.1402617,92.0177002 C39.7569592,91.9344771 42.8419984,91.8937119 44.3240754,91.8937119 C45.0228676,91.8937119 45.7226472,91.9344771 46.3810973,91.9774992 C47.0803127,92.0177002 47.7799512,92.0590297 48.4374139,92.0590297 C55.0619752,92.0590297 59.4640556,87.8626091 59.4640556,83.5427644 C59.4640556,80.8268692 57.0776676,75.2308894 48.0671415,75.2308894 C47.4510082,75.2308894 46.8736654,75.2308894 46.3810973,75.2727831 L46.4218625,72.1866155 Z" id="path30" fill="#1E59AE"></path>
                        <path d="M79.4184235,71.4460707 C79.2531057,70.1302989 79.2123404,69.8421211 77.8133455,65.6864658 C76.9086113,65.8500909 76.2088317,65.9723866 75.0566851,66.0556097 C73.9046795,66.1382686 72.2588362,66.1795981 69.4618338,66.1795981 L58.0237312,66.1795981 L57.9410723,67.2077564 C58.6402877,67.2909795 59.7097755,67.5366994 60.2457888,68.1945853 C60.9451453,69.0602469 60.9451453,69.4718487 60.9868979,79.5099689 C60.9868979,87.1220643 60.9868979,87.8212797 60.8629095,88.849438 C60.6564033,90.5768116 59.4640556,90.6996715 58.2705795,90.7828947 L58.2705795,91.7714162 C59.8347512,91.7300867 60.3280246,91.6887573 63.2902038,91.6887573 C66.4169956,91.6887573 67.1994341,91.7300867 68.761631,91.811053 L68.761631,90.7432579 C67.4457181,90.5768116 66.2931483,90.3724213 65.8809822,89.6313122 C65.3061784,88.5618245 65.2236605,81.0737174 65.2236605,79.2206627 L65.1823311,72.8863951 C65.1823311,70.3346892 65.2236605,69.0602469 65.5933687,68.4431262 C65.9232991,67.8248771 66.9112564,67.8248771 68.8033836,67.8248771 C76.7851872,67.8248771 77.772016,69.6349097 78.430043,71.5689306 L79.4184235,71.4460707" id="path32" fill="#1E59AE"></path>
                        <path d="M92.7085933,66.8793777 C95.3401369,66.8793777 100.854586,68.4821988 100.854586,76.0959868 C100.854586,81.4434256 98.2626794,90.5366106 90.8985607,90.5366106 C88.9237746,90.5366106 82.7927688,89.6313122 82.7927688,81.238471 C82.7927688,74.4490152 86.04369,66.8793777 92.7085933,66.8793777 Z M92.0501432,92.1421118 C99.5795796,92.1421118 105.627362,86.2982964 105.627362,78.8113178 C105.627362,71.899002 100.195008,65.3982881 91.8021664,65.3982881 C83.1211475,65.3982881 77.9780991,71.8163431 77.9780991,79.0162724 C77.9780991,87.0388412 84.8909791,92.1421118 92.0501432,92.1421118 Z" id="path34" fill="#1E59AE"></path>
                        <path d="M108.094717,83.2953519 C108.177375,84.3654039 108.177375,85.6398462 108.177375,86.2150732 C108.177375,89.590547 106.944263,90.4131865 103.528024,90.8253526 L103.569353,91.9344771 C103.857531,91.9344771 104.967784,91.8544983 105.708893,91.811053 C109.742252,91.6060984 109.864548,91.6060984 111.71591,91.6474278 C114.801513,85.1478424 115.541494,83.6248591 118.586896,78.0702088 C119.040392,77.3296639 121.426216,72.9271603 121.467545,72.8863951 C122.454938,74.7796508 122.454938,74.8198518 123.977357,77.7825953 L126.115204,81.8957927 L131.01084,91.6474278 L138.047145,91.6474278 L138.047145,90.5366106 C135.002871,90.0848078 134.38575,89.836831 134.38575,85.5175505 C134.38575,84.1587566 134.549375,71.4047412 135.126859,69.0183532 C135.455802,67.6606877 135.991956,67.37251 138.37778,67.2490859 L138.37778,66.1795981 L133.316826,66.1795981 C129.82075,66.1795981 128.955652,66.1795981 127.14562,66.0154087 L127.021631,67.0843323 C129.941917,67.867335 130.807014,68.1555127 130.807014,72.6791836 C130.807014,76.7125433 130.560166,82.3498525 130.272553,86.3411774 L130.189894,86.3411774 C124.96475,76.465695 123.029601,72.2279449 120.438258,66.262257 L119.574854,66.262257 C118.462908,69.7996632 118.011105,70.6653249 113.567272,79.0989313 C112.49722,81.1558121 110.809483,84.3246386 110.318044,85.3114675 L110.235385,85.3114675 C110.194055,83.953802 110.152726,83.7488474 110.028737,82.1443337 C109.700923,77.9875498 109.411617,74.4914731 109.411617,70.82895 C109.411617,68.1555127 109.576935,67.5366994 113.15567,66.9609081 L113.073011,66.0556097 C112.045417,66.0980676 111.098789,66.0980676 110.276714,66.0980676 C109.452946,66.1382686 108.711837,66.1382686 108.054516,66.1382686 C107.067122,66.1382686 106.202025,66.1382686 105.422408,66.0980676 C104.679606,66.0556097 103.981519,66.0154087 103.24041,65.9723866 L103.323069,66.9609081 C107.23244,67.4970626 107.312278,69.3467319 107.601584,74.3267195 L108.094717,83.2953519" id="path36" fill="#1E59AE"></path>
                        <path d="M145.042401,76.7125433 C146.152513,76.5483539 147.716826,76.3428351 149.48567,76.3428351 C150.84263,76.3428351 151.501363,76.4238013 152.160095,76.5064602 C151.048572,79.5512984 149.896144,82.6782312 148.539183,85.4354559 L145.042401,76.7125433 Z M143.066205,71.7755779 C142.77845,71.0339046 142.078812,69.3891898 142.078812,68.7703765 C142.078812,67.2490859 144.053598,67.003366 145.206027,66.8386125 L145.206027,65.8914204 C144.918272,65.8914204 143.684031,65.9327498 142.490696,65.9723866 C141.29736,66.0154087 140.187813,66.0556097 140.105154,66.0556097 C139.612022,66.0556097 137.881827,66.0556097 137.224505,66.0154087 L137.224505,66.8386125 C137.881827,66.9609081 138.910549,67.1669912 139.691859,68.4431262 C141.133735,70.7462911 148.250018,88.2334457 148.786032,89.6313122 C149.196505,90.660599 149.444764,91.4005796 149.690202,92.1421118 L150.760818,92.1421118 C151.006256,91.3190491 151.254514,90.4131865 151.748211,89.0560852 C152.612885,86.6283678 156.726083,76.0127637 157.549851,73.8318945 C159.93511,67.2077564 160.634749,67.0843323 162.279463,66.8386125 L162.279463,66.0154087 C161.334387,66.0980676 160.390722,66.1795981 158.659963,66.1795981 C156.108257,66.1795981 154.174377,65.9723866 152.899229,65.8914204 L152.899229,66.8386125 C153.971256,67.003366 154.957238,67.4149679 154.957238,68.3599031 C154.957238,68.9356943 152.940135,74.3267195 152.734193,74.9019465 C151.995059,74.9851696 151.542269,75.0248064 149.772014,75.0248064 C148.250018,75.0248064 146.275232,75.0248064 144.300446,74.7371929 L143.066205,71.7755779 Z" id="path38" fill="#1E59AE"></path>
                        <path d="M180.920034,88.7254496 C179.520757,89.79663 176.476765,89.79663 174.82923,89.79663 C173.266327,89.79663 172.978573,89.79663 172.239439,89.6720775 C172.072992,86.0927775 171.909367,79.0989313 171.909367,72.0218619 C171.909367,67.6606877 172.278934,67.5791573 174.129591,67.2077564 C175.612091,67.003366 175.775716,67.003366 176.145283,66.9207071 L176.023975,65.8914204 C175.365243,65.8914204 172.442559,66.1382686 171.989769,66.1382686 C167.999291,66.1382686 167.547911,66.1382686 163.390986,65.4798185 L163.021419,66.5498705 C163.680151,66.7146241 166.724143,67.4970626 167.054214,68.0315244 C167.547911,68.7703765 167.588817,77.0839441 167.588817,78.4404812 C167.588817,82.1839704 167.588817,88.0273627 167.176933,89.6720775 C166.025915,89.7547364 165.489902,89.79663 163.35149,89.79663 C158.12536,89.79663 157.795288,89.0560852 157.136556,87.3689126 L156.108257,87.6146324 C157.136556,90.1678898 157.508944,91.5234395 157.754382,92.3472074 L158.454021,92.3472074 C158.784092,92.0992307 159.566954,91.8937119 160.100146,91.8544983 C161.744861,91.6474278 167.875161,91.6474278 170.016394,91.6474278 C173.019479,91.6474278 179.02565,91.6887573 181.578767,91.811053 C182.152865,91.8544983 182.276994,91.8937119 182.523843,92.0590297 L183.140258,91.6887573 C182.810187,90.7828947 182.152865,89.1376157 181.98924,87.3689126 L180.754999,87.1628295 L180.920034,88.7254496" id="path40" fill="#1E59AE"></path>
                        <path d="M181.784708,73.0924781 C182.237499,71.0763625 182.813008,69.7594622 185.816093,68.3599031 C187.584938,67.5791573 189.807983,67.043567 191.493604,67.043567 C192.480997,67.043567 195.565895,67.3317448 195.565895,71.2807529 C195.565895,74.6550982 192.686939,75.8899038 188.984215,77.1643461 C185.281491,78.4818106 182.154276,80.168419 182.154276,84.5720511 C182.154276,88.849438 185.691964,91.8937119 190.753059,91.8937119 C191.66005,91.8937119 195.773247,91.4005796 196.430569,91.4005796 C196.842453,91.4005796 197.295243,91.4838027 197.582998,91.6887573 L198.282636,91.5234395 C198.24173,91.2352618 198.117601,89.2202746 198.117601,89.1376157 C198.117601,88.7684717 198.199413,86.8344508 198.199413,86.7512277 L198.199413,85.5175505 L197.334739,85.5175505 C196.389663,90.7828947 190.836282,90.7828947 190.300269,90.7828947 C186.515732,90.7828947 185.608741,88.1094574 185.608741,86.2982964 C185.608741,84.2012145 186.432509,82.7195607 191.369474,80.9910585 C194.704042,79.7573814 199.229123,78.0702088 199.229123,72.8863951 C199.229123,70.1693714 197.746623,65.6864658 189.848889,65.6864658 C187.79088,65.6864658 185.940223,65.9327498 183.964026,66.3449159 C183.882214,66.3449159 183.594459,66.4258821 183.47174,66.4258821 C183.099352,66.4258821 183.058446,66.2209276 183.058446,66.0556097 L181.948334,66.0556097 C181.824204,68.2778084 181.578767,69.5941444 180.795905,72.8445014 L181.784708,73.0924781" id="path42" fill="#1E59AE"></path>
                    </g>
                </g>
            </g>
        </g>
    </g>
</svg>