<?xml version="1.0" encoding="UTF-8"?>
<svg width="200px" height="200px" viewBox="0 0 200 200" version="1.1" xmlns="http://www.w3.org/2000/svg" xmlns:xlink="http://www.w3.org/1999/xlink">
    <!-- Generator: Sketch 51.3 (57544) - http://www.bohemiancoding.com/sketch -->
    <title>francis-marion</title>
    <desc>Created with Sketch.</desc>
    <defs></defs>
    <g id="francis-marion" stroke="none" stroke-width="1" fill="none" fill-rule="evenodd">
        <g id="francis-marion_BGL" transform="translate(0.000000, 20.895522)">
            <g id="francis-marion">
                <g id="g10" transform="translate(99.939501, 79.955214) scale(-1, 1) rotate(-180.000000) translate(-99.939501, -79.955214) translate(0.000000, 0.115436)">
                    <g id="g12">
                        <path d="M170.681181,115.093368 L167.247909,103.870588 C168.106953,104.26113 169.122319,104.643976 170.284327,104.943135 C174.27852,105.971433 179.870292,105.976723 186.605198,102.230025 L187.89207,101.514353 L182.407739,92.1274077 C185.073438,86.9310887 183.567812,81.0513219 179.928368,77.5725201 C190.333692,76.4903544 199.750267,72.5536762 199.750267,72.5536762 C199.750267,72.5536762 160.873559,67.0375172 130.397577,59.1588702 L133.356077,29.6782248 L98.1981827,47.150102 L39.2016445,0 L57.116514,36.3438362 C56.0798534,35.8878837 55.0591638,35.4281317 54.055897,34.9644838 C53.1247416,29.4003247 50.1391397,22.8173426 39.9652017,18.501666 L30.6543247,14.407665 L34.4290856,19.0485685 C34.485952,19.1188371 39.2335864,25.0075978 40.6758611,30.3434922 L29.9998057,25.6402078 C29.1048511,22.0992656 27.2084688,17.8345229 22.7769625,15.5322515 C21.130308,14.6764749 18.9628549,14.1307268 17.1349542,14.5288194 C14.9794068,14.9977579 13.5949664,16.7307139 13.9381001,19.4924969 C13.961379,19.6800242 14.009921,19.873323 14.0742404,20.065708 C12.4313609,21.1454207 11.6184389,22.6643966 11.2335387,23.966795 C11.1539743,24.2361821 11.0915908,24.4988357 11.0433875,24.748359 L0,20.6237207 L3.5176575,32.8194872 C3.85114086,34.1954728 4.68504284,37.0571998 6.2745552,38.3934099 C7.96883223,39.8184537 9.12391992,40.9293328 9.3733089,41.9710976 L10.7078037,46.9968192 C3.08340706,50.9930886 -1.01803748,65.0006409 10.9545309,74.4804121 L13.9211128,76.7736413 C14.0405562,77.3209767 14.4555592,79.0433034 14.4555592,79.0433034 C14.4555592,79.0433034 36.220108,85.6849148 36.9275732,85.9177007 L34.3209187,87.5063198 L89.4001188,101.676918 L118.559223,159.431859 L124.682876,111.457772 L138.045248,129.991182 L135.676706,112.958375 L180.419596,123.498669 L170.681181,115.093368" id="path14" fill="#99A3AC" fill-rule="nonzero"></path>
                        <path d="M15.6734176,77.9029413 L35.1603137,83.7889606 C37.0509852,84.4574985 38.7980148,85.0211865 40.4117594,85.4882011 L37.994385,86.9604274 L90.4019336,100.444211 L117.718569,154.55009 L123.581364,108.625865 L124.601086,108.866346 L135.803021,124.403359 L133.94797,111.068192 L175.011248,120.741791 L162.402416,109.859053 L168.415241,112.647673 L164.785477,100.781847 C165.071986,100.781847 173.096184,108.091034 185.896184,100.971346 L180.738048,92.1427985 C184.558979,85.8772998 180.533329,78.1737232 175.512155,76.4903544 C177.992494,76.4302341 185.735991,75.5284294 193.729215,73.1568032 C193.729215,73.1568032 159.60169,68.3139917 128.829519,60.2419978 L131.649603,32.1393581 L98.0142746,48.8547293 L43.3750987,5.18669975 L60.1480929,39.2153748 C57.5888673,38.1455699 55.1133683,37.055324 52.7365988,35.9442525 C52.0091941,30.6378893 49.4959455,24.1134885 39.3865205,19.824842 L35.558281,18.1414732 C35.558281,18.1414732 42.2899445,26.4183571 42.5289282,32.7377716 L28.7541675,26.6693714 L28.6342885,26.160994 C27.8017174,22.732597 26.0823224,18.8777787 22.1041495,16.8111309 C19.1621532,15.2820067 14.8648514,15.1768202 15.3792132,19.3158874 C15.4142041,19.5973467 15.6211974,20.0974515 15.9841738,20.6986547 C11.8704413,22.3219032 12.3544099,26.8309267 12.3544099,26.8309267 L2.19109008,22.9832266 L4.91339371,32.422116 C5.25652739,33.8560095 6.02182683,36.2904975 7.21224422,37.2918614 C8.78514195,38.6145083 10.3990802,40.0219008 10.7815121,41.620524 L12.4255048,47.8105116 C5.16578329,50.4683585 0.103032544,64.0435255 11.8524861,73.3467834 L13.5719295,74.6756828 C13.5719295,74.6756828 12.712111,65.0876951 16.1509494,63.1893361 L17.0107195,67.0812847 C13.446388,68.451547 14.9434963,74.87913 15.6734176,77.9029413" id="path16" fill="#15569C" fill-rule="nonzero"></path>
                        <path d="M56.1122793,86.336138 L93.9934641,96.0814005 L114.807499,137.308064 L118.656016,107.162296 L111.508769,105.583296 L118.104292,99.7299821 L112.745793,92.0985499 L96.8682371,88.5355796 L99.16128,96.8894175 C95.931758,95.8197569 79.784632,88.8203094 79.4831196,88.8203094 C79.3877778,88.8203094 77.2859025,83.0295208 77.2859025,83.0295208 C77.2859025,83.0295208 74.8742873,82.2465138 74.8500889,82.2700809 C68.0677539,82.7919253 62.4803372,79.9917615 59.423108,78.2829017 C59.6099199,81.4360919 59.2038703,84.7253946 56.1122793,86.336138 Z M132.473802,101.12814 L141.149422,107.50907 L155.729942,110.943623 L141.573862,98.7348707 C136.492193,98.0134269 134.677311,97.0515019 131.531515,95.3681331 L132.473802,101.12814 Z M123.788019,59.2959445 L125.634359,41.2444113 L102.009435,53.5243944 C110.357892,56.1696882 118.585357,58.2137789 123.788019,59.2959445 Z M90.1522059,50.2778974 L58.7799138,23.6725421 L67.6762234,42.0462721 C75.1491814,45.2277429 82.5050191,47.921133 90.1522059,50.2778974 Z" id="path18" fill="#B61944" fill-rule="nonzero"></path>
                        <path d="M46.3740097,37.8055294 L25.1223224,28.6067365 C24.904343,24.4982585 24.4120502,21.8875459 21.0488561,19.5131783 C19.1278882,18.0995813 18.9545307,19.0183159 18.9611611,19.1744364 C19.0118326,20.3678006 19.8581967,21.3149119 20.9333328,22.4825446 C21.2049843,22.7773266 21.4764907,23.0726856 21.7322681,23.3729024 C22.0035324,23.6911553 22.2572771,24.0145064 22.4774828,24.3487273 C22.9353654,25.0412171 23.2652868,25.7998874 23.3011972,26.647199 L23.5560551,32.6434549 C23.8344822,39.1941162 28.9080695,46.3450669 36.7987892,47.6855575 C39.5453106,48.1520431 43.8133322,46.8703742 45.7840037,45.3489454 L45.7998779,45.7401123 C45.9891096,49.5607823 47.1169982,52.2748537 49.8052014,53.5657571 C49.1290974,51.8617069 48.9171192,50.0359732 48.8716261,48.2265923 C48.8033866,45.5307974 49.1174821,42.5713869 49.1019951,39.5687379 C49.0797326,35.2583038 48.4413781,28.9009413 42.4559457,24.5405351 C43.3694363,26.534269 47.0546147,31.5545077 46.3740097,37.8055294 Z M44.9569015,41.2468643 C42.5098114,43.1515239 38.0563814,45.1839753 34.5217172,44.5833493 C29.6733205,43.7598934 25.7136836,39.2437035 25.5586201,35.5940637 C25.5009794,34.2387114 25.4319655,34.1323706 25.3421893,32.8117918 L44.9569015,41.2468643 Z M18.1705501,24.8031888 C16.9076826,24.5892085 15.9401327,25.8708774 16.0093402,27.6654929 C16.0781605,29.460445 17.1576523,31.0884069 18.4204714,31.3023871 C19.6835325,31.5165597 20.6508888,30.2352756 20.5818749,28.4406602 C20.5129093,26.6459004 19.433224,25.017169 18.1705501,24.8031888 Z" id="path20" fill="#99A3AC"></path>
                        <path d="M177.75051,73.2438574 C113.749543,65.269499 63.8267377,45.1497789 52.4118559,40.2479051 L52.4946145,44.6092732 C88.5744684,60.3742625 143.872713,74.3260231 177.75051,73.2438574 Z M70.6487581,59.4791912 C70.7445838,59.4402333 71.3587399,59.4104136 71.5203854,59.4421571 L70.3903189,56.1499687 C67.0567436,54.9643961 64.8271006,54.3492451 61.4291576,53.221388 L61.8114927,55.594938 C61.2607365,55.0105685 59.8339973,53.4657169 59.1738642,52.9760971 C56.3460361,50.8819863 54.0689642,49.5881971 52.0677543,49.8036683 C51.9724125,54.0755774 54.9812448,58.584601 54.9812448,58.584601 L50.0873551,56.2317324 C52.5889884,61.8878515 58.5069556,65.6749504 64.2545658,68.5958357 C64.436538,68.6881805 65.374953,69.118161 65.4591635,69.2316681 C65.6377479,69.3182414 65.7379294,69.3783617 65.820204,69.4014479 C67.0644871,74.378929 60.5701134,70.3734732 58.8796114,66.9177575 C57.5641849,66.5060536 56.224076,66.1126262 54.9057458,65.6634073 L57.2229871,72.0486656 C60.5052616,74.3173658 64.0972761,76.085384 67.7812445,77.1637019 C73.6909842,78.8932431 76.3644264,76.7928798 74.4561385,71.3454984 C73.802297,69.4788829 70.3399861,60.6897739 70.6487581,59.4791912 Z M58.4464595,57.1739379 C58.6381111,56.9757814 58.7765261,56.4775042 59.6162115,56.9469236 C62.5592241,58.5918154 63.0664231,59.8124983 64.0614624,62.5866901 L64.8735616,65.4844892 C62.3946748,64.6134661 60.3905611,61.9479718 60.0159695,61.3241635 C59.7323639,60.8518583 59.3640639,60.3074087 59.1356307,59.8274081 C58.7518437,59.019872 58.4517832,57.9636784 58.4464595,57.1739379 Z M90.9981828,67.9672177 L89.5888665,62.0816794 C86.4696893,60.0294124 80.8435551,57.6924155 77.092799,58.8236393 C74.5035674,59.6047225 76.7007845,65.3791584 77.0976387,66.6368754 L78.0408934,69.6260574 L79.8983646,75.5106338 C79.0020549,75.3966457 78.0897742,75.1792506 77.1997561,74.9883085 L78.6013289,79.4131636 C79.4884433,79.5988151 80.3973362,79.8109196 81.2897741,79.9196171 L83.4231074,86.1971399 C83.551843,86.2558173 89.9058659,89.3060816 92.5855996,90.4450008 L89.8531133,81.6818638 C91.4298828,82.0329664 93.0095561,82.397536 94.5858416,82.6726466 L93.2452487,78.343022 C91.6621877,78.0587732 90.0771907,77.6845843 88.4946136,77.3233815 C87.2193566,73.2323143 85.75148,69.0936319 84.7090118,64.9395587 C84.5918914,64.473025 84.9548678,64.3042072 85.16733,63.9915816 C86.6690843,64.3422032 87.8761019,66.0683777 88.2695683,67.334752 C89.4383523,67.5757142 89.8337546,67.7243316 90.9981828,67.9672177 Z M159.971442,83.6201427 C159.971442,83.6201427 158.68215,78.1453464 158.646336,78.1698755 C155.75898,76.2551637 151.271624,74.622296 148.344098,75.9045421 C147.006409,76.4908354 147.331636,79.2703177 147.70042,80.4842671 C148.261823,82.3287584 148.845489,84.1665161 149.416088,86.002831 L151.113366,91.4617556 L148.913245,91.0240797 L150.188502,95.112742 C150.920746,95.2353874 151.659766,95.4234438 152.390075,95.5682135 L154.169143,101.291186 C154.541315,101.314754 161.627582,104.952754 161.915543,104.953235 L159.40907,96.8076539 C160.702234,96.9711812 161.984751,97.2568729 163.268235,97.4199192 L162.031212,93.3779102 C160.743372,93.2066876 159.456015,92.9133004 158.158496,92.7425587 L155.767691,84.9750141 C155.389712,83.7466359 154.909131,82.4667946 154.67489,81.2186969 C154.604231,80.8425842 154.807982,80.5213012 155.039803,80.2740865 C155.278883,80.3423832 155.510704,80.4390567 155.75414,80.4693573 C156.591406,81.0542077 157.339621,82.295091 157.62613,83.2286392 C158.574709,83.4003429 159.026251,83.4864351 159.971442,83.6201427 Z M171.244521,93.7227603 C172.193583,93.4774695 172.618024,93.2826796 173.570958,93.1489721 C177.741798,92.5650836 179.388743,88.0315309 178.168175,85.0808259 C173.447546,73.672876 159.918689,77.2988524 162.351115,86.028322 C165.048756,80.4188562 170.268356,80.5544877 171.450207,83.128599 C174.287715,89.3113722 162.933813,85.181347 164.877915,92.5068871 C166.30659,97.8922244 172.905501,103.598845 180.911308,99.1225265 L178.280939,94.4951861 C177.555954,94.5832023 176.866299,94.830898 176.137443,94.8963089 C177.724375,99.180242 168.899693,96.4757898 171.244521,93.7227603 Z M33.8297874,75.7958445 L30.5901989,58.7995912 C37.1551836,61.4078509 43.0112028,66.3559933 43.8872342,71.7331542 C45.3567563,80.7531252 38.4909851,77.3094336 33.8297874,75.7958445 Z M29.8618262,53.3772198 L28.2822981,47.1876651 C23.9621047,44.8208005 21.3749541,39.6933072 20.4608827,35.8489739 C20.2773135,35.8662885 17.3150873,36.0894551 14.4112761,32.4822363 L8.96663014,30.4982659 L9.87407114,33.2638004 C10.8221655,37.0957249 13.7813911,35.3710414 14.9557407,40.1175162 L17.7234599,51.796296 C8.83978199,52.5398641 5.33347839,61.7074906 10.5645006,67.5391611 C10.4518328,60.9562271 14.0073076,57.8193896 18.8373619,57.058026 L22.1440285,69.3586423 C23.3868113,74.5482278 18.2745549,68.720405 19.9733328,74.5847809 L42.7215476,81.7544891 C48.4171797,83.5451126 57.3851165,84.9148938 55.1365987,75.4235796 C52.2337555,63.1739453 41.137325,56.2966623 29.8618262,53.3772198 Z M118.695218,104.020168 L125.806167,105.591953 L130.975919,112.761661 L130.10526,106.498568 L136.715786,107.817367 L129.497879,102.508984 L128.399271,95.7899372 L124.548333,98.9123459 L117.541921,93.8872495 L122.368055,100.761166 L118.695218,104.020168 Z M122.896549,73.4059418 L121.965877,70.5451768 C118.071866,69.6299051 114.13333,68.7131906 110.156561,67.795995 L111.118207,70.7038944 C111.249362,70.7928725 111.756561,70.9674619 111.907075,70.9511091 C111.907075,70.9511091 112.603506,71.2512297 112.862913,71.5999276 C114.224317,73.4271042 116.621413,81.8237477 116.621413,81.8237477 C117.070052,83.1843907 117.864728,84.8667976 117.714698,86.3101661 C117.611612,86.362591 117.175073,86.6612687 117.043433,86.5054368 C116.968902,86.5328517 116.41137,86.5054368 116.330064,86.4732124 L117.252508,89.2637569 C120.546881,89.9462427 123.82238,90.6316143 127.054806,91.3371863 L123.139985,79.3342858 L121.814395,75.2696716 C121.650814,74.7680276 121.231697,72.8590874 122.520505,73.4141182 C122.69183,73.4386473 122.82105,73.4314328 122.896549,73.4059418 Z M114.652145,88.8871632 L112.622381,81.6246293 C111.758981,81.461102 110.876706,81.2225446 110.014758,81.0133259 C110.158013,81.5298796 110.352084,82.6750514 109.791165,82.9934486 C109.709858,83.039621 109.668721,83.0189396 109.612096,83.1117653 L109.077311,82.9766149 C108.907438,82.8260736 108.358618,82.5139289 108.273923,82.3965741 C106.490499,79.9364508 105.653234,75.3759643 104.926797,72.80041 C104.896791,72.6950792 104.064365,69.9550358 104.148576,69.5313078 C104.179066,69.374995 104.015484,68.8435314 104.983905,68.810345 C105.116513,68.8218881 105.444643,68.8969182 105.533694,68.8584412 L104.70514,65.910622 C100.70514,64.8467329 96.6475475,63.8232447 92.5735004,62.6963495 L93.4325445,65.6951508 L93.5757992,65.808177 C93.6856601,65.7918242 93.8947345,65.9159126 94.0200823,65.948618 C95.8756177,66.4276567 96.5691446,70.5062188 96.8450067,71.4724725 L97.6633974,74.3370852 L98.469689,77.1603352 L99.2837241,80.0100381 C99.3945529,80.3996177 99.3630949,80.7964118 99.4734397,81.1850295 C99.3960048,81.3937672 99.3582552,81.5808617 99.3974567,81.8093189 C99.0640024,81.8415433 98.6739237,82.1229064 98.3022359,81.9319643 L98.0791264,81.9165735 L98.9028408,84.7936913 L108.067753,86.9714895 L107.416815,84.6667172 C107.603627,84.8783407 114.29788,88.8328145 114.652145,88.8871632 Z M133.256863,76.3696328 C133.626131,76.2162058 134.41742,76.4239816 134.812822,76.5245028 C134.928974,76.5543224 135.798666,77.1507159 135.925465,77.252199 C138.22964,79.0913997 140.379428,86.387601 140.181485,89.0030752 C140.015483,89.1425543 139.91627,89.4017931 139.7614,89.518667 C139.381485,89.8048397 138.775556,89.6668035 138.337081,89.5215528 C138.081545,89.4369034 137.195399,88.7909707 137.020202,88.5851188 C134.68699,85.8465182 132.927764,81.0258309 132.704655,77.6990132 C132.689652,77.4729608 132.742888,77.2589325 132.747244,77.0362469 L133.256863,76.3696328 Z M140.232785,94.0180713 C145.339621,94.9179522 149.602416,92.3462456 147.164183,85.079383 C145.561279,80.3024633 141.986203,76.3527991 137.838593,73.9970447 C131.596851,71.0059389 124.224074,69.9434927 124.726918,77.6581314 C125.106833,80.9416625 126.908648,84.6724887 129.812459,87.8607892 C133.224437,91.3939398 136.840166,93.2350643 140.232785,94.0180713 Z" id="path22" fill="#FFFFFF"></path>
                    </g>
                </g>
            </g>
        </g>
    </g>
</svg>