<?xml version="1.0" encoding="UTF-8"?>
<svg width="200px" height="200px" viewBox="0 0 200 200" version="1.1" xmlns="http://www.w3.org/2000/svg" xmlns:xlink="http://www.w3.org/1999/xlink">
    <!-- Generator: Sketch 51.3 (57544) - http://www.bohemiancoding.com/sketch -->
    <title>franklin-pierce</title>
    <desc>Created with Sketch.</desc>
    <defs></defs>
    <g id="franklin-pierce" stroke="none" stroke-width="1" fill="none" fill-rule="evenodd">
        <g id="franklin-pierce_BGL" transform="translate(0.000000, 33.830846)">
            <g id="franklin-pierce" transform="translate(0.000000, 12.903704)">
                <g id="g10" transform="translate(99.999998, 54.059698) scale(-1, 1) rotate(-180.000000) translate(-99.999998, -54.059698) translate(0.000000, 0.184468)" fill-rule="nonzero">
                    <g id="g12">
                        <path d="M140.72271,16.1458796 C122.769908,12.6433748 94.3784637,8.92217742 94.3784637,8.92217742 C71.6678448,8.21395238 66.9115028,10.6787442 62.7005884,27.3463937 C32.4020641,26.4021132 4.21896745,1.002498 4.27613559,1.28363008 C9.07286113,24.8411076 29.5592913,43.9721436 29.5592913,43.9721436 C39.0424769,46.0316999 -3.02185833,57.7803067 1.63256043,61.0833853 C20.3065187,74.3358137 35.9339224,82.7262953 38.0946893,82.8999258 C50.1215327,83.8664592 19.6315039,91.3665355 19.6315039,91.3665355 C46.1660755,116.944094 129.604422,109.129258 132.593507,74.4283386 C132.593507,74.4283386 165.948373,64.9732356 196.787606,21.4911809 C196.787606,21.4911809 181.173152,25.387502 180.893801,25.387502 C180.893801,25.387502 156.502946,19.224732 140.72271,16.1458796" id="path14" fill="#231F20"></path>
                        <path d="M30.1979343,42.8296373 C28.0574624,40.7513417 11.853333,24.5199644 6.37041282,4.5732751 C12.2157224,9.16555292 18.3034804,13.2362951 24.5026838,16.6960219 C38.0050138,24.2318491 50.8430666,28.2396685 62.6607654,28.6080696 L63.6846592,28.6399849 L63.9339217,27.6534825 C67.9427712,11.7863487 71.9194672,9.48877503 94.2749239,10.1817745 C95.7811185,10.3803515 123.174628,14.0087605 140.477578,17.3844243 L140.72271,16.1458796 L140.477578,17.3844243 C156.041884,20.4210842 180.336574,26.5490696 180.579936,26.6108504 L180.734509,26.6495 L180.893801,26.6495 C181.082591,26.6495 181.295276,26.6495 193.731264,23.5542802 C178.546603,44.1612925 162.999406,56.4489443 152.437164,63.2047226 C140.539525,70.8143061 132.325955,73.1915507 132.244539,73.2146819 L131.401177,73.4536068 L131.326545,74.3208809 C130.433035,84.6962548 121.561354,93.5156887 106.346015,99.1553127 C92.9023576,104.138186 75.8348064,106.174611 59.5191726,104.742818 C43.5345122,103.33972 30.4206482,98.8426021 22.2397045,92.0054254 C24.317728,91.4655019 27.5276689,90.6055478 30.704719,89.6518977 C41.4911494,86.4135278 42.27876,85.0473222 42.1696155,83.7150815 C42.0250727,81.9494965 39.5351023,81.749514 38.1973442,81.6420563 C36.321238,81.413965 21.6173446,73.6755493 2.78058105,60.3461145 C4.417758,58.779048 11.9247785,55.6864927 17.0169612,53.5885795 C28.4468429,48.8797672 32.4277278,47.0266349 32.2209431,44.7255184 C32.1392322,43.8169595 31.4589963,43.1801191 30.1979343,42.8296373 Z M4.26035388,0 C4.06168131,0 3.85439518,0.0611905502 3.62244829,0.199126952 L2.85259875,0.65788684 L3.02970494,1.53342669 C5.55356918,13.9282404 12.3960764,25.0567257 17.691858,32.2094824 C23.4159581,39.9408708 28.475309,44.6930176 28.6879049,44.8915361 L28.9440406,45.1307538 L29.1762235,45.1811154 C27.1514447,46.6802523 20.5772856,49.3889467 16.0420055,51.2570117 C4.85884944,55.8645152 0.277585834,57.9700412 0.0125599112,60.2758425 C-0.0692525056,60.9864685 0.251659286,61.6549313 0.893020627,62.1099427 C19.1065187,75.0356061 35.2840699,83.9402448 37.9920344,84.1580881 C38.1893796,84.1738993 38.3675507,84.1911746 38.5286126,84.2090354 C35.3330375,85.7523851 26.8482589,88.2906697 19.3255747,90.1414596 L17.1026839,90.6881175 L18.7457222,92.2718736 C27.1556925,100.378632 41.5563411,105.700275 59.2949838,107.257093 C75.9749244,108.721387 93.4489652,106.629915 107.235396,101.519967 C123.020646,95.6692339 132.404421,86.4114782 133.771383,75.3825743 C136.190852,74.5835227 143.652504,71.8259307 153.814745,65.3266454 C165.035099,58.1498205 181.779052,44.8455665 197.827429,22.2179402 L199.79852,19.4383882 L196.477871,20.2673641 C190.867252,21.6672124 182.484361,23.7443661 180.926544,24.0936767 C178.158698,23.3982763 155.692326,17.7799388 140.967843,14.907657 C123.181708,11.4373894 94.8294962,7.70831577 94.5451304,7.67101303 L94.4185817,7.66085286 C83.3321513,7.31622706 75.941296,7.67309191 70.9660749,10.5255804 C65.9973435,13.3745553 63.6840692,18.5863983 61.7235973,26.0436672 C37.6044238,24.8482227 14.5961353,8.06286749 5.73952788,0.823386279 C5.15407067,0.344956661 4.73174029,0 4.26035388,0 Z" id="path16" fill="#231F20"></path>
                        <path d="M122.395277,68.3378023 C122.395277,68.3378023 116.179938,77.57067 109.036575,84.272573 C103.946605,89.0478509 99.5728589,68.3378023 113.53628,64.3984688 C118.33097,63.0460249 122.395277,68.3378023 122.395277,68.3378023" id="path18" fill="#FFFFFF"></path>
                        <path d="M107.509732,83.7183023 C107.426546,83.7183023 107.370204,83.6916575 107.333036,83.6737967 C106.329496,83.1924332 105.135396,80.1683931 105.470499,76.3368101 C105.695573,73.762511 106.965779,67.5642242 113.883773,65.6127111 C116.855159,64.7744243 119.616811,67.192368 120.790262,68.4271063 C119.130086,70.7885397 113.917401,77.9565806 108.163124,83.3552301 C107.850735,83.648323 107.644835,83.7183023 107.509732,83.7183023 Z M115.146015,62.9122152 C114.512976,62.9122152 113.858994,62.9953704 113.188493,63.1845193 C107.332741,64.8364979 103.500587,69.6715071 102.936871,76.1183811 C102.535691,80.7068526 103.919171,84.8400197 106.226546,85.9468044 C107.437755,86.5268415 108.779053,86.2504381 109.910027,85.1896231 C117.075218,78.4672241 123.195572,69.4208701 123.452504,69.0390587 L123.957224,68.2894903 L123.406487,67.5727155 C123.24159,67.3580929 119.766369,62.9122152 115.146015,62.9122152 Z" id="path20" fill="#231F20"></path>
                        <path d="M133.251029,33.4026431 L143.991442,38.3003115 C143.991442,38.3003115 133.795867,40.852065 131.480823,41.8707168 C127.865189,43.4612073 115.35044,41.0388715 111.586428,43.2208183 C107.927136,44.3317022 104.493803,46.2706249 102.033626,51.4713414 C102.033626,51.4713414 84.2560451,25.6982509 94.3784637,19.7028161 C97.0035374,18.1477837 133.251029,33.4026431 133.251029,33.4026431" id="path22" fill="#FFFFFF"></path>
                        <path d="M101.989673,50.8386003 C101.128906,49.5450091 98.5997025,45.6396405 96.2675492,41.0131051 C92.5162219,33.5718816 90.9722691,27.6561177 91.8023576,23.9050841 C92.1923281,22.1418707 93.114157,20.8189996 94.5415906,19.9740076 C96.3663693,18.8902956 118.612386,27.5849673 133.122711,33.6913441 L143.042179,38.2148139 C140.509436,38.8595598 133.290852,40.7290889 131.351914,41.5820158 C129.745719,42.2891282 126.22802,42.1679089 122.504127,42.0393696 C118.112976,41.8885776 113.574333,41.7316367 111.458994,42.929775 C108.23923,43.9112411 104.620646,45.6314421 101.989673,50.8386003 Z M94.9758088,19.2899386 C94.6277262,19.2899386 94.3752189,19.3374015 94.2156319,19.4316246 C92.6315611,20.3700784 91.6106172,21.8297458 91.1811187,23.7701032 C89.1061925,33.1461502 101.253095,50.8986243 101.771089,51.6493639 L102.084953,52.1046682 L102.321236,51.6054439 C104.873154,46.2114792 108.484068,44.4927423 111.679643,43.5224025 L111.7469,43.4934153 C113.689673,42.367013 118.159879,42.5204403 122.482003,42.6700612 C126.281708,42.8003573 129.869908,42.9245046 131.609436,42.1591249 C133.873743,41.1630187 143.967548,38.6317613 144.069318,38.6062877 L144.943654,38.3872732 L133.375218,33.1121853 C133.284362,33.0741213 124.201177,29.2550702 114.914451,25.6753832 C103.705307,21.3548532 97.2699091,19.2899386 94.9758088,19.2899386 Z" id="path24" fill="#231F20"></path>
                        <path d="M122.381118,17.1770633 L119.906487,17.7579788 L128.905896,55.5096414 L131.380528,54.928433 L122.381118,17.1770633 Z M100.55339,17.1770633 L98.0787586,17.7579788 L107.078463,55.5096414 L109.553095,54.928433 L100.55339,17.1770633 Z M107.64159,17.1770633 L105.167254,17.7579788 L114.166664,55.5096414 L116.641295,54.928433 L107.64159,17.1770633 Z M115.068729,17.1770633 L112.594097,17.7579788 L121.593802,55.5096414 L124.068433,54.928433 L115.068729,17.1770633 Z" id="path26" fill="#231F20"></path>
                        <path d="M113.269024,74.210788 C113.269024,77.8482445 115.564009,80.7967422 118.394392,80.7967422 C121.225366,80.7967422 123.520056,77.8482445 123.520056,74.210788 C123.520056,70.5733316 121.225366,67.6248339 118.394392,67.6248339 C115.564009,67.6248339 113.269024,70.5733316 113.269024,74.210788" id="path28" fill="#231F20"></path>
                        <path d="M118.394392,80.4813964 C115.743655,80.4813964 113.587313,77.6684652 113.587313,74.210788 C113.587313,70.7531109 115.743655,67.9401797 118.394392,67.9401797 C121.04572,67.9401797 123.202062,70.7531109 123.202062,74.210788 C123.202062,77.6684652 121.04572,80.4813964 118.394392,80.4813964 Z M118.394392,67.3091953 C115.393212,67.3091953 112.95103,70.4052643 112.95103,74.210788 C112.95103,78.0163118 115.393212,81.1123808 118.394392,81.1123808 C121.396162,81.1123808 123.838345,78.0163118 123.838345,74.210788 C123.838345,70.4052643 121.396162,67.3091953 118.394392,67.3091953 Z" id="path30" fill="#231F20"></path>
                        <path d="M27.5765185,93.5054407 C27.5762825,93.5051479 109.824186,104.912642 129.67969,73.0433938 C129.67969,73.0433938 129.93097,81.8104164 120.417696,89.3954047 C103.608552,101.561837 62.6466061,110.028447 27.5765185,93.5054407" id="path32" fill="#6A142C"></path>
                        <path d="M59.9433613,95.8088996 C63.6023583,95.8088996 67.4212373,95.7280868 71.3171074,95.5345458 C84.7002929,94.8693039 96.2017675,92.996554 105.502652,89.9675363 C116.612681,86.3494046 124.604717,81.0590912 129.280528,74.2330409 C128.967253,76.8533096 127.457519,83.3777757 120.218581,89.1491598 C111.233036,95.6525443 96.4985227,100.420795 80.8150422,101.894751 C68.0330366,103.095817 48.934807,102.665694 29.5820052,94.0755226 C34.1663708,94.6163245 45.8702053,95.8088996 59.9433613,95.8088996 Z M129.966663,71.9819932 L129.408551,72.8773761 C124.927431,80.070305 116.817696,85.6185754 105.304422,89.3678815 C96.0575197,92.3793312 84.6117973,94.2418331 71.2855439,94.9044399 C48.5631256,96.0323061 28.465486,93.3092646 27.6210023,93.1930229 L27.3537751,93.1561301 L27.1911793,93.6732152 L27.4403238,93.790628 C47.5572259,103.268277 67.6023582,103.771015 80.8749242,102.5231 C96.6672542,101.038603 111.519466,96.2264326 120.605012,89.6501409 C130.143065,82.0461205 129.999407,73.123621 129.997047,73.034317 L129.966663,71.9819932 Z" id="path34" fill="#6A142C"></path>
                        <polyline id="path36" fill="#231F20" points="130.171088 17.1770633 127.696752 17.7579788 136.696162 55.5096414 139.170793 54.928433 130.171088 17.1770633"></polyline>
                        <path d="M95.072859,70.6904516 C95.072859,70.6904516 117.43156,54.1677382 122.395277,64.3984688 C124.406782,68.544812 133.440115,70.9121014 139.410321,68.6215257 C148.171088,65.2604725 161.467843,53.4922482 166.507075,49.9162798 C178.184066,41.6303278 191.453093,26.696963 191.453093,26.696963 C191.453093,26.696963 153.605601,39.7921284 141.281412,45.2871091 C129.438935,50.5677601 115.326251,44.7937408 109.824186,49.6401692 C102.680528,55.9318592 95.072859,70.6904516 95.072859,70.6904516" id="path38" fill="#6A142C"></path>
                        <path d="M127.367548,48.0239123 C131.980528,48.0239123 136.840115,47.6134064 141.411796,45.5749317 C152.364008,40.6916105 183.907075,29.6568506 190.388196,27.4014109 C187.308255,30.771248 176.179642,42.6650836 166.32212,49.659494 C165.030969,50.5759585 163.190261,52.0355674 161.058698,53.7253171 C154.973742,58.5494927 145.778167,65.8402169 139.295572,68.3272615 C133.644244,70.4963251 124.63746,68.2924183 122.681708,64.2614384 C121.84513,62.5371382 120.478168,61.4329887 118.618876,60.9794413 C115.191738,60.1426184 110.1469,61.4856928 103.628316,64.9714788 C100.331856,66.733843 97.4743338,68.6273817 95.9831834,69.658331 C97.9463102,66.042249 104.188493,55.0253499 110.0351,49.8761661 C112.609437,47.6087216 117.266074,47.7560001 122.658994,47.9258242 C124.183478,47.9738434 125.760469,48.0239123 127.367548,48.0239123 Z M191.348668,26.3991266 C190.970202,26.529979 153.346899,39.5616946 141.151324,44.9989937 C135.120941,47.6883633 128.510321,47.479304 122.679053,47.2951327 C117.15103,47.1206238 112.377283,46.9695389 109.613272,49.4041723 C102.507077,55.6627758 94.8663693,70.3985299 94.7899681,70.5466868 L95.2628295,70.943431 C95.4156318,70.8307029 110.628611,59.6779445 118.467549,61.592272 C120.13333,61.9986787 121.358404,62.9889288 122.108847,64.5354993 C124.223006,68.893537 133.500587,71.2271543 139.524775,68.9157898 C146.098521,66.393902 154.974332,59.35645 161.455453,54.2183926 C163.579937,52.5342061 165.414745,51.0795748 166.692031,50.1730655 C178.264597,41.961192 191.558697,27.0553211 191.691736,26.9057002 L191.348668,26.3991266 Z" id="path40" fill="#6A142C"></path>
                        <path d="M130.466663,62.5181062 C130.466663,63.330041 131.577873,63.9885486 132.948669,63.9885486 C134.319466,63.9885486 135.43038,63.330041 135.43038,62.5181062 C135.43038,61.7058785 134.319466,61.0476637 132.948669,61.0476637 C131.577873,61.0476637 130.466663,61.7058785 130.466663,62.5181062" id="path42" fill="#231F20"></path>
                        <path d="M132.948669,63.67291 C131.775808,63.67291 130.784657,63.1441129 130.784657,62.5181062 C130.784657,61.8920994 131.775808,61.3633023 132.948669,61.3633023 C134.121826,61.3633023 135.112386,61.8920994 135.112386,62.5181062 C135.112386,63.1441129 134.121826,63.67291 132.948669,63.67291 Z M132.948669,60.7320251 C131.378758,60.7320251 130.148669,61.5167296 130.148669,62.5181062 C130.148669,63.5194827 131.378758,64.3038944 132.948669,64.3038944 C134.518876,64.3038944 135.748669,63.5194827 135.748669,62.5181062 C135.748669,61.5167296 134.518876,60.7320251 132.948669,60.7320251 Z" id="path44" fill="#231F20"></path>
                        <path d="M9.57746289,61.0476637 C9.57746289,61.0476637 46.0395269,90.7425783 99.1088471,82.6861817 C99.1088471,82.6861817 76.6100276,80.3335324 54.5749249,76.3941989 C39.5743353,73.712735 9.57746289,61.0476637 9.57746289,61.0476637" id="path46" fill="#6A142C"></path>
                        <path d="M80.9831838,83.7408479 C61.6814144,83.7408479 45.6032437,79.0941092 34.562831,74.5961131 C23.2438047,69.9845104 15.3045424,64.8054611 11.7980233,62.3090468 C19.1674626,65.3292806 42.0952792,74.4839706 54.5185827,76.7048599 C72.0707947,79.8425065 90.1047175,81.9940021 96.5775787,82.7248313 C91.1843635,83.4298941 85.976694,83.7408479 80.9831838,83.7408479 Z M9.70179917,60.757206 L9.37581098,61.2915663 C9.4672859,61.3662303 18.7088491,68.818873 34.3215331,75.1799566 C48.7280224,81.0497216 71.6704997,87.1712947 99.1569297,82.9980139 L99.1421804,82.3722999 C98.9171067,82.3488759 76.402063,79.9757305 54.6312671,76.0835379 C39.8371671,73.4389668 10.0015042,60.8836956 9.70179917,60.757206 Z" id="path48" fill="#6A142C"></path>
                        <path d="M10.364926,8.12783985 C10.364926,8.12783985 40.1477866,68.3378023 88.7171069,67.7495668 C88.7171069,67.7495668 73.0870188,65.0174484 53.1828895,52.4027388 C34.2560463,40.4073015 10.364926,8.12783985 10.364926,8.12783985" id="path50" fill="#6A142C"></path>
                        <path d="M85.7436557,67.3932289 C75.7289067,66.9967775 65.7884939,63.9823998 56.151621,58.4133406 C47.6684354,53.5109874 39.399704,46.6295979 31.5746305,37.9600777 C22.1177871,27.4824872 15.5884657,16.8690668 12.5637165,11.5275133 C19.1586131,20.0125401 37.780825,43.0155654 53.0117981,52.6688941 C63.3188775,59.2012659 72.4566354,63.0366553 78.3073727,65.1038244 C81.418582,66.2032891 83.95811,66.9335327 85.7436557,67.3932289 Z M10.6212092,7.94106262 L10.0796163,8.26656857 C10.154277,8.41765346 17.6995866,23.5300363 31.0908547,38.3697051 C38.961061,47.0913437 47.2825947,54.0169461 55.8244824,58.9544353 C66.5162225,65.1345685 77.5899686,68.2010646 88.7209417,68.0652053 L88.7722692,67.4389058 C88.616517,67.4116754 72.9681398,64.5680001 53.353981,52.1368762 C34.6929195,40.3097991 10.8597342,8.26314281 10.6212092,7.94106262 Z" id="path52" fill="#6A142C"></path>
                        <path d="M137.453094,30.3150653 C142.728315,32.1327688 148.918875,35.0967849 148.851619,34.9828856 C151.01799,34.34341 173.027429,26.8726431 174.042179,26.7934992 C172.902651,26.5207265 145.862828,21.2443797 145.862828,21.2443797 C145.862828,20.7510699 127.159289,17.1232173 111.195572,14.9378447 C108.922416,14.2479197 83.7150422,7.99458649 75.9696146,17.4859967 C71.0070779,23.566285 74.5722695,35.1907737 79.2380511,42.8346149 C89.6044225,59.8176102 99.6029474,54.0192885 99.6029474,54.0192885 C99.6029474,54.0192885 80.2713844,28.6707289 90.915042,15.4996404 C91.994688,14.1638567 98.2058972,16.1616616 101.195278,16.8240048 C103.916517,17.4266461 126.23864,26.4513036 137.453094,30.3150653" id="path54" fill="#6A142C"></path>
                        <path d="M95.293213,54.6567145 C94.6858383,54.6567145 94.0250714,54.6048888 93.3194667,54.4769352 C89.9321511,53.8626404 84.7864286,51.3155718 79.5100275,42.6709396 C74.6286117,34.6742742 71.5162224,23.4442459 76.2165173,17.6845445 C80.1769891,12.8319673 88.9519152,12.2996566 95.6150419,12.7090205 C102.980528,13.1604598 109.807372,14.8464618 111.102652,15.2396631 L111.15221,15.2505553 C126.465779,17.3469166 143.82625,20.6933005 145.544834,21.4104266 L145.544834,21.5041227 L145.801471,21.5542208 C146.041294,21.6007468 167.147193,25.7198595 172.684951,26.834784 C170.103831,27.613691 164.141589,29.5903849 156.879642,32.0071575 C153.075512,33.2735182 149.771973,34.3729829 148.851619,34.6534854 C148.667548,34.5791142 148.204421,34.3732757 147.680527,34.1402067 C145.6233,33.2252062 141.342179,31.3211267 137.557224,30.0169948 L137.557224,30.016702 C131.945424,28.0833132 123.588198,24.8710904 116.214746,22.0369897 C108.933921,19.2386985 102.646015,16.8219552 101.264304,16.515979 C100.666369,16.3833113 99.9247763,16.1935768 99.1395255,15.9927159 C94.9002926,14.9073056 91.5846585,14.1673996 90.6672544,15.3020003 C86.236576,20.7846834 86.3433607,29.2644691 90.9761039,39.8243364 C94.0221215,46.767214 98.1191716,52.5356701 99.1218264,53.9030468 C98.5333309,54.1630534 97.1696141,54.6567145 95.293213,54.6567145 Z M91.9997027,11.9477401 C85.5144521,11.9477401 79.0784641,13.1750999 75.722417,17.2872147 C70.8286118,23.2837914 73.9734495,34.8186247 78.9660747,42.9979974 C81.9560451,47.8959586 86.8613548,53.9724405 93.2522101,55.1061627 C97.1185816,55.7924863 99.6572246,54.3533735 99.7634193,54.2918855 L100.072564,54.112399 L99.8566347,53.8289684 C99.6645993,53.5771602 80.7964582,28.5251486 91.1631246,15.6970755 C91.8961629,14.7905369 96.331266,15.9253425 98.9808235,16.6038191 C99.771089,16.8058219 100.517697,16.9974011 101.125956,17.1320013 C102.461059,17.4274367 108.728316,19.8366257 115.985248,22.6255473 C123.363419,25.4616098 131.72625,28.6756479 137.348669,30.6131359 C141.107666,31.9081911 145.371678,33.8046577 147.420645,34.7161447 C148.71681,35.2926682 148.892622,35.3708458 149.024775,35.260753 C149.93451,34.9846424 153.103831,33.9299762 157.082002,32.6056411 C163.587902,30.4403838 173.41976,27.1677271 174.067547,27.1080251 L174.11681,26.4867617 C173.008845,26.2213969 148.175513,21.3744122 146.034805,20.9565864 C145.762828,20.7732642 144.985247,20.5431233 142.760173,20.0500771 C140.706486,19.5956512 137.875808,19.0302834 134.574038,18.415403 C126.894097,16.9859526 118.398522,15.6058976 111.261354,14.6283549 C110.671384,14.4634206 101.285248,11.9477401 91.9997027,11.9477401 Z" id="path56" fill="#6A142C"></path>
                        <polyline id="path58" fill="#231F20" points="93.4404106 17.1770633 90.9657794 17.7579788 99.9654842 55.5096414 102.440115 54.928433 93.4404106 17.1770633"></polyline>
                    </g>
                </g>
            </g>
        </g>
    </g>
</svg>