<?xml version="1.0" encoding="UTF-8"?>
<svg width="200px" height="200px" viewBox="0 0 200 200" version="1.1" xmlns="http://www.w3.org/2000/svg" xmlns:xlink="http://www.w3.org/1999/xlink">
    <!-- Generator: Sketch 51.3 (57544) - http://www.bohemiancoding.com/sketch -->
    <title>ga-southwestern</title>
    <desc>Created with Sketch.</desc>
    <defs></defs>
    <g id="ga-southwestern" stroke="none" stroke-width="1" fill="none" fill-rule="evenodd">
        <g id="ga-southwestern_BGL" transform="translate(0.000000, 37.000000)">
            <g id="ga-southwestern">
                <g id="g10" transform="translate(99.944349, 62.562051) scale(-1, 1) rotate(-180.000000) translate(-99.944349, -62.562051) translate(0.000000, 0.013360)" fill-rule="nonzero">
                    <g id="g12">
                        <path d="M168.05787,91.5481335 C176.120641,93.6850283 188.588977,97.4107933 190.787753,98.0937093 C190.787753,95.1011662 190.75837,91.8802426 190.75837,88.8881447 C186.153362,87.7840824 184.85876,84.7301036 183.358037,77.7758467 C179.598883,60.5929868 175.894041,44.4652632 172.104615,29.9690588 C169.262544,30.7215129 161.930324,32.6918189 148.986529,34.8980737 C148.986529,34.8980737 139.627375,36.4713625 138.897715,36.527545 C131.738227,31.8188083 99.3878662,10.6724538 63.2494141,8.91712832 C61.1628254,8.81607101 60.5453519,9.29985508 60.3227586,10.3015245 C60.1081788,11.2677571 59.2516401,14.257629 61.5470213,14.6052306 C40.9571498,13.4922645 30.8663765,17.0906173 24.0772838,23.4345236 C21.4082577,25.928636 19.0317191,31.447879 19.0317191,31.447879 C19.0317191,31.447879 14.5798549,34.0077009 11.9435055,40.2987636 C10.3070893,44.2038943 8.90635481,51.8851406 8.90372821,59.8286017 C8.90720067,82.306954 17.4006896,95.6727856 31.0248184,92.4327189 C39.1054414,90.5112943 43.8905276,86.1395638 43.8905276,86.1395638 L45.2643283,88.1522516 L49.0074556,87.6158019 C49.0074556,87.6158019 90.3127412,114.854978 126.978739,115.873119 C127.572173,115.890036 128.371727,115.021923 128.436279,114.54958 C128.547576,113.733553 123.650526,109.578183 123.650526,109.578183 C123.650526,109.578183 140.767943,111.835278 152.67668,108.273787 C164.152695,104.8414 168.502611,96.129992 168.502611,96.129992 L168.05787,91.5481335" id="path14" fill="#FFFFFF"></path>
                        <path d="M126.995656,124.777292 L126.868778,124.777292 L126.724538,124.773286 C110.304282,124.317415 91.3811886,119.156369 70.4872548,109.435278 C59.6963814,104.414466 51.2449625,99.4786842 47.0317184,96.8934867 L46.5277673,96.9660521 L42.7208448,97.5118507 C40.1276339,98.8545329 36.888057,100.190092 33.0848294,101.094711 C31.0677343,101.574622 29.0548685,101.817694 27.1022809,101.817694 C18.2463657,101.817694 10.733667,96.9909826 5.94760141,88.2257073 C2.05846628,81.1027247 0.00173900942,71.2836933 0,59.8299373 C0.00278241507,51.2761256 1.46772617,42.2602104 3.73173947,36.8574281 C6.10252628,31.2004444 9.52596526,27.6100605 11.9350025,25.6170055 C13.1988867,23.1017023 15.3265661,19.4257981 17.998575,16.9291036 C26.1482464,9.31378942 36.9011009,5.76378394 52.6984962,5.51492474 C54.3238718,2.52190979 57.5314399,0.000521705051 62.7378949,0.000521705051 C63.0406217,0.000521705051 63.3580396,0.00799946558 63.6812449,0.0239983522 C80.0939323,0.821333313 97.5630471,5.35510282 115.604226,13.4997437 C127.033497,18.6595877 136.006229,24.0877011 140.901499,27.2125536 C142.774843,26.9080461 145.235834,26.5002553 147.510736,26.1178402 C159.740898,24.0329432 166.664882,22.1991313 169.62181,21.416093 L169.827041,21.3614686 L178.460541,19.0771281 L180.718972,27.7177066 C184.075232,40.556482 187.67768,55.8584293 192.056089,75.87312 L192.05876,75.8855852 L192.060986,75.8980504 C192.600552,78.3973269 192.982076,79.6736764 193.231381,80.3249841 L199.662099,81.8666646 L199.662099,88.8881447 C199.662099,90.3706154 199.669221,91.9096249 199.676344,93.4486343 C199.684358,95.0161356 199.691481,96.5840822 199.691481,98.0937093 L199.691481,110.181856 L188.146907,106.59677 C186.883913,106.204561 181.051971,104.453642 174.91196,102.693375 C172.279128,106.546018 166.216579,113.517638 155.227598,116.804004 C150.012684,118.363492 143.582412,119.165272 136.110403,119.186641 C134.307843,122.464994 130.759262,124.777292 126.995656,124.777292 Z M126.995656,115.873564 C127.587309,115.873564 128.372173,115.017471 128.436279,114.54958 C128.547576,113.733553 123.650526,109.578183 123.650526,109.578183 C123.650526,109.578183 128.99944,110.283358 135.795211,110.283804 C141.159262,110.283804 147.42348,109.84485 152.67668,108.273787 C164.152695,104.8414 168.502611,96.129992 168.502611,96.129992 L168.05787,91.5481335 C176.120641,93.6850283 188.588977,97.4107933 190.787753,98.0937093 C190.787753,95.1011662 190.75837,91.8802426 190.75837,88.8881447 C186.153362,87.7840824 184.85876,84.7301036 183.358037,77.7758467 C179.598883,60.5929868 175.894041,44.4652632 172.104615,29.9690588 C169.262544,30.7215129 161.930324,32.6918189 148.986529,34.8980737 C148.986529,34.8980737 139.627375,36.4713625 138.897715,36.527545 C131.738227,31.8188083 99.3878662,10.6724538 63.2494141,8.91712832 C63.0682232,8.90858075 62.8977168,8.90426244 62.7378949,8.90426244 C61.0582066,8.90426244 60.5262088,9.38715614 60.3227586,10.3015245 C60.1081788,11.2677571 59.2516401,14.257629 61.5470213,14.6052306 C59.0521966,14.4708288 56.7109613,14.4048967 54.5117404,14.4048967 C38.5592422,14.4048967 30.0438056,17.8596323 24.0772838,23.4345236 C21.4082577,25.928636 19.0317191,31.447879 19.0317191,31.447879 C19.0317191,31.447879 14.5798549,34.0077009 11.9435055,40.2987636 C10.3070893,44.2038943 8.90635481,51.8851406 8.90372821,59.8286017 C8.90666644,80.0623241 15.7908955,92.9139654 27.1022809,92.9139654 C28.3569943,92.9139654 29.6645513,92.7563694 31.0248184,92.4327189 C39.1054414,90.5112943 43.8905276,86.1395638 43.8905276,86.1395638 L45.2643283,88.1522516 L49.0074556,87.6158019 C49.0074556,87.6158019 90.3127412,114.854978 126.978739,115.873119 C126.984527,115.873564 126.989869,115.873564 126.995656,115.873564 Z" id="path16" fill="#FFFFFF"></path>
                        <path d="M111.595768,43.7332877 C91.4497473,34.1369385 70.8563143,35.5980403 65.6017791,46.9983294 C60.3476891,58.3973274 72.4206994,75.4176943 92.5680556,85.0150229 C108.712741,92.705173 125.135667,93.2870316 133.729991,87.3518064 C124.980297,96.5582614 104.131327,96.7398974 83.6714503,86.9947669 C60.5119629,75.9634928 46.6337217,56.3971049 52.6740109,43.2943784 C58.7147453,30.1893815 82.385752,28.5096487 105.545239,39.5410563 C111.148356,42.2094146 116.206118,45.378296 120.571616,48.8342781 C117.808344,46.9809671 114.806007,45.2629927 111.595768,43.7332877" id="path18" fill="#D29908"></path>
                        <path d="M89.1080668,75.5864199 C103.525874,83.4261526 119.070893,84.2190296 123.829045,77.3569263 C128.586752,70.4961585 120.755478,58.5780731 106.338116,50.73745 C94.7841935,44.4549794 82.5117397,42.7031264 75.6407327,45.7838608 C82.8629918,40.6197875 98.5090682,42.2547791 113.150804,50.2161368 C129.724204,59.2280453 138.726318,72.9282119 133.257203,80.8155795 C127.787643,88.7042827 109.918751,87.7925409 93.345351,78.7806324 C89.3342215,76.6001094 85.7696139,74.1449063 82.7436818,71.5650511 C84.6829139,72.9838602 86.8109049,74.3372269 89.1080668,75.5864199" id="path20" fill="#D29908"></path>
                        <path d="M80.6152456,19.1395432 C76.0703376,17.9526762 48.1998875,15.2681577 39.5925644,24.4687362 C49.3867545,20.3139004 77.8248172,20.5248298 82.5682784,23.0004669 C64.9126305,21.5447518 50.0420689,26.7633605 43.6748793,38.3745344 C33.1298823,57.6026697 49.4628813,87.8749004 81.1098477,104.189202 C87.5240935,107.496046 114.242846,119.05175 129.520754,120.332551 C102.708512,120.799552 68.3548119,104.000443 56.3267654,97.4045607 C22.7613572,78.9974382 4.74194757,47.3170828 16.0783524,26.6444067 C27.4151579,5.97124081 63.815246,4.13484241 97.381411,22.5424146 C101.193542,24.6325648 118.910181,34.040244 127.368722,44.2795314 C127.358483,44.2751686 118.464994,37.3791421 113.567944,34.4854304 C108.670893,31.5917187 90.6444051,21.7579516 80.6152456,19.1395432" id="path22" fill="#173A79"></path>
                        <path d="M108.190092,105.417471 C112.735,106.604338 140.605005,109.288812 149.212239,100.088144 C139.418138,104.243069 110.98052,104.032051 106.236169,101.556369 C123.893152,103.011684 138.762823,97.7936536 145.130325,86.1823017 C155.674565,66.953365 139.342011,36.6819802 107.694599,20.3678125 C101.281244,17.0608788 74.5624912,5.50517515 59.2841388,4.22440056 C86.0968259,3.75730208 120.45008,20.5564825 132.478127,27.1523644 C166.043402,45.5594869 184.063212,77.2398423 172.72654,97.9125184 C161.389868,118.58564 124.989646,120.422034 91.4243717,102.014466 C87.6109049,99.9243158 72.2484122,92.2306043 63.7898704,81.9913168 C63.7996645,81.9962139 70.3398981,87.1777385 75.2373938,90.0714502 C80.1344443,92.9651618 98.1613776,102.798884 108.190092,105.417471" id="path24" fill="#173A79"></path>
                        <path d="M107.503169,78.0100147 C107.491594,74.5914283 107.477794,70.4422909 107.477794,67.0628809 C104.485251,67.0432927 101.424594,67.0232593 98.4311606,67.0237045 L98.3959909,63.8780173 C98.9506931,63.6020017 99.4706709,63.3317736 99.9617115,63.0570936 C108.166052,58.7628255 111.484026,55.6799096 111.502279,50.9640499 C111.531661,43.2912621 101.072006,38.5451298 90.7200868,38.3470664 C84.8454069,38.2343897 81.0617676,38.3270775 75.8263754,40.9642728 C75.3108495,40.2109283 74.6510833,39.29794 74.0616565,38.426176 C71.3348897,38.2290029 68.5582621,37.9027703 65.8871436,37.6245288 C65.8871436,43.4924419 65.8871436,49.7081791 65.8871436,55.4724527 L61.4352795,55.4724527 C61.4352795,55.4724527 60.7808555,55.4924861 60.4879228,55.4849179 C56.3045061,55.3740665 55.2160253,54.5736213 55.215135,51.3442391 C55.215135,51.2418462 55.2013342,50.9311061 55.2013342,50.8287133 C55.2013342,49.9841946 55.2013342,49.1401212 55.2013342,48.2951574 C55.2013342,44.1496261 55.215135,40.3686579 55.215135,36.2221916 C52.0649959,35.8175172 48.9647178,35.1719969 45.8274891,34.6786413 C45.4998319,35.7319524 45.1779621,36.7261427 44.8503049,37.7909395 C41.5581514,33.8301605 38.2917742,32.0810676 32.1706392,30.4350799 C17.5038393,26.491218 8.86895916,37.688146 8.89469093,60.4491916 C8.91971041,82.825151 17.8707619,96.3022792 31.8106614,92.3930973 C36.2966268,91.1350005 39.3720636,89.7696138 43.8218353,86.347911 C44.490995,87.1986623 44.762158,87.673231 45.2362816,88.3543662 C48.0445174,87.9056183 50.8531985,87.3170818 53.6721189,86.9395638 C53.6721189,80.568501 53.6721189,74.4583176 53.6721189,68.0872548 L53.6685574,61.5786295 C56.2248177,61.5759584 72.2675552,61.5715065 72.2675552,61.5715065 L72.2590967,62.1796312 C67.2863645,65.2509722 64.3948787,69.7575942 64.6673328,74.170282 C65.0524191,80.4042273 72.1718402,85.3898699 83.7591521,84.7532533 C88.8516394,84.4736762 93.2144662,83.6033368 97.7602647,81.2629918 C98.3888679,82.0140213 98.9961021,82.6506379 99.6247054,83.4047837 C102.249079,83.4119067 104.893487,83.4755683 107.517415,83.5436818 L112.075234,83.7155238 C117.408567,83.943014 135.830826,85.280354 153.575511,88.6263751 C170.547798,91.8277106 186.892817,97.0181389 190.853195,98.3114054 C190.853195,95.3193076 190.853195,92.1001646 190.853195,89.1080668 C186.66221,87.9354458 185.081353,85.8047836 183.434609,78.3639379 C179.576623,60.9273218 175.848187,44.5667212 172.157147,30.1730432 C167.853084,31.1747126 164.143791,32.1019469 159.765828,33.1036163 C157.183302,42.4128648 154.573174,51.2761256 151.981298,59.7248733 C149.71708,51.3237605 147.372729,43.5971497 145.102723,35.8023809 C141.040397,36.4701605 137.116969,36.9709952 133.054643,37.499476 C128.408233,50.6047845 123.90072,62.3465761 119.281911,73.9490243 C117.779407,77.5105156 116.782635,78.1319958 112.019585,78.1226469 L107.503169,78.0100147" id="path26" fill="#173A79"></path>
                        <path d="M195.305059,104.4483 L189.471336,102.543793 C185.020808,101.090259 169.218916,96.1072875 152.750135,93.0012219 C135.348689,89.7197529 117.352028,88.3966589 111.885584,88.1633812 L107.375846,87.99332 C104.736336,87.9252065 102.156035,87.8637708 99.6131305,87.8566478 L97.5350003,87.8513055 L96.5667199,86.6889238 C92.8400645,88.1562582 88.903281,88.9291018 84.0031142,89.1984396 C83.2596529,89.2393968 82.5153012,89.2603205 81.7909829,89.2603205 C75.9577054,89.2603205 70.848301,87.9301035 67.0143556,85.4130196 C62.9057302,82.7160803 60.4941554,78.8206992 60.2239273,74.4445168 C60.0454075,71.5525859 60.7746229,68.6762365 62.28425,66.0264869 C60.8356134,66.0269321 59.4030035,66.0278225 58.1230926,66.0282677 L58.123983,68.0850289 L58.123983,86.9395638 L58.123983,90.8349449 L54.2628812,91.3522515 C52.659765,91.5668313 51.0584294,91.8539766 49.3631596,92.1584841 C48.2475224,92.3588179 47.0940445,92.5658296 45.9383405,92.750582 L43.1778732,93.1913165 L42.7248515,92.5400088 C39.3652522,94.6306042 36.4480792,95.7159687 33.0126647,96.6793521 C31.0317633,97.2349447 29.0691145,97.5167477 27.1789865,97.5167477 C20.0676678,97.5167477 13.9428377,93.5479108 9.93268756,86.3416784 C6.35294364,79.9082896 4.45449071,70.9569264 4.44264875,60.4545338 C4.42716962,46.5829705 7.39948785,36.5654749 13.2775066,30.6810009 C16.8560485,27.0984523 21.4877234,25.2046738 26.6715185,25.2046738 C28.7894929,25.2046738 31.0284689,25.5180405 33.3265657,26.1360928 C36.9259423,27.1038391 39.9286801,28.1740227 42.6514847,29.9036609 L42.7198209,29.684184 L46.5188636,30.2806893 C47.7818575,30.4795986 49.0386187,30.7018801 50.2539776,30.9168161 C52.1611562,31.2543565 53.9623804,31.57311 55.7823024,31.8062986 L59.6669991,32.3053971 L59.6669991,36.2221916 C59.6669991,38.2980514 59.6634376,40.2822472 59.6598761,42.2669772 C59.6563146,44.2461425 59.6531983,46.2250406 59.6531983,48.2951574 L59.6531983,50.7944339 L59.6576502,50.9351128 C59.6580953,50.9533654 59.6585405,50.9716181 59.6594309,50.9898707 C59.912742,51.0081234 60.2239273,51.0245953 60.6058972,51.0343894 L60.6562033,51.0348346 C60.9166373,51.0348346 61.286142,51.0232597 61.2994976,51.0228145 L61.367166,51.0205886 L61.4352795,51.0205886 L61.4352795,37.6245288 L61.4352795,32.6851856 L66.3483567,33.1966603 C66.9631591,33.2608116 67.5833038,33.3270554 68.2065648,33.3943676 C70.2468541,33.6133102 72.3557021,33.839554 74.3830811,33.98651 L76.5382285,34.1423252 L77.4156909,35.4391087 C81.0230364,34.159554 84.2884787,33.86582 88.2292688,33.86582 C88.9477997,33.86582 89.7184173,33.8752134 90.8055626,33.8955584 C96.8471873,34.0113514 102.65776,35.4550909 107.167054,37.9610007 C112.85342,41.1218242 115.974176,45.7455748 115.954143,50.9814122 C115.93411,56.132219 113.131216,59.7342222 109.278127,62.6230368 L111.929658,62.6399539 L111.929658,67.0628809 C111.929658,69.0902598 111.935,71.409681 111.941233,73.6676665 L112.077014,73.6707828 L112.121088,73.671228 C113.604004,73.671228 114.261099,73.5928752 114.547799,73.532775 C114.655979,73.3582619 114.850526,72.995435 115.163047,72.2586515 C120.505284,58.8371716 124.730103,47.6558697 128.858761,36.0115739 L129.771839,33.43715 L132.479908,33.0850075 L133.227821,32.9874227 C137.040397,32.4920192 140.64151,32.0236831 144.380186,31.4096375 L148.273786,30.769504 L149.376958,34.5575951 C149.949022,36.5218021 150.525984,38.4818243 151.104726,40.4497263 C151.432384,41.563004 151.762267,42.6839834 152.093485,43.8129316 C153.254532,39.8250407 154.377292,35.8745456 155.476012,31.9135885 L156.185639,29.3560371 L158.773062,28.7638947 C161.19087,28.2105725 163.455088,27.6678012 165.644515,27.1429709 C167.406562,26.7205781 169.22871,26.2837166 171.147909,25.8373282 L175.387864,24.8502609 L176.469667,29.0672002 C180.434943,44.5319967 184.413128,62.179186 187.781409,77.4018901 C189.249634,84.0365032 190.127986,84.2822461 192.052527,84.8204765 L195.305059,85.7308827 L195.305059,89.1080668 L195.305059,98.3114054 L195.305059,104.4483 Z M190.853195,98.3114054 C190.853195,95.3193076 190.853195,92.1001646 190.853195,89.1080668 C186.66221,87.9354458 185.081353,85.8047836 183.434609,78.3639379 C179.576623,60.9273218 175.848187,44.5667212 172.157147,30.1730432 C167.853084,31.1747126 164.143791,32.1019469 159.765828,33.1036163 C157.183302,42.4128648 154.573174,51.2761256 151.981298,59.7248733 C149.71708,51.3237605 147.372729,43.5971497 145.102723,35.8023809 C141.040397,36.4701605 137.116969,36.9709952 133.054643,37.499476 C128.408233,50.6047845 123.90072,62.3465761 119.281911,73.9490243 C117.789646,77.48514 116.796436,78.1230921 112.121088,78.1230921 C112.087254,78.1230921 112.05342,78.1226469 112.019585,78.1226469 L107.503169,78.0100147 C107.491594,74.5914283 107.477794,70.4422909 107.477794,67.0628809 C104.515523,67.0437379 101.48603,67.0237045 98.5215334,67.0237045 C98.4912608,67.0237045 98.4609881,67.0237045 98.4311606,67.0237045 L98.3959909,63.8780173 C98.9506931,63.6020017 99.4706709,63.3317736 99.9617115,63.0570936 C108.166052,58.7628255 111.484026,55.6799096 111.502279,50.9640499 C111.531661,43.2912621 101.072006,38.5451298 90.7200868,38.3470664 C89.8475214,38.3300157 89.0208102,38.3180402 88.2292688,38.3180402 C83.6888126,38.3180402 80.2844721,38.7183518 75.8263754,40.9642728 C75.3108495,40.2109283 74.6510833,39.29794 74.0616565,38.426176 C71.3348897,38.2290029 68.5582621,37.9027703 65.8871436,37.6245288 C65.8871436,43.4924419 65.8871436,49.7081791 65.8871436,55.4724527 L61.4352795,55.4724527 C61.4352795,55.4724527 60.9771827,55.4866987 60.6562033,55.4866987 C60.5929868,55.4866987 60.5360029,55.4862535 60.4879228,55.4849179 C56.3045061,55.3740665 55.2160253,54.5736213 55.215135,51.3442391 C55.215135,51.2418462 55.2013342,50.9311061 55.2013342,50.8287133 C55.2013342,49.9841946 55.2013342,49.1401212 55.2013342,48.2951574 C55.2013342,44.1496261 55.215135,40.3686579 55.215135,36.2221916 C52.0649959,35.8175172 48.9647178,35.1719969 45.8274891,34.6786413 C45.4998319,35.7319524 45.1779621,36.7261427 44.8503049,37.7909395 C41.5581514,33.8301605 38.2917742,32.0810676 32.1706392,30.4350799 C30.2307839,29.9134105 28.394568,29.6565379 26.6715185,29.6565379 C15.3693485,29.6565379 8.87243161,40.698541 8.89469093,60.4491916 C8.91695025,80.2359468 15.9199551,93.0648836 27.1789865,93.0648836 C28.6525981,93.0648836 30.197573,92.8454067 31.8106614,92.3930973 C36.2966268,91.1350005 39.3720636,89.7696138 43.8218353,86.347911 C44.490995,87.1986623 44.762158,87.673231 45.2362816,88.3543662 C48.0445174,87.9056183 50.8531985,87.3170818 53.6721189,86.9395638 C53.6721189,80.568501 53.6721189,74.4583176 53.6721189,68.0872548 L53.6685574,61.5786295 C56.2248177,61.5759584 72.2675552,61.5715065 72.2675552,61.5715065 L72.2590967,62.1796312 C67.2863645,65.2509722 64.3948787,69.7575942 64.6673328,74.170282 C65.0301598,80.0427359 71.3705046,84.8084564 81.7909829,84.8084564 C82.4324965,84.8084564 83.0873658,84.7902038 83.7591521,84.7532533 C88.8516394,84.4736762 93.2144662,83.6033368 97.7602647,81.2629918 C98.3888679,82.0140213 98.9961021,82.6506379 99.6247054,83.4047837 C102.249079,83.4119067 104.893487,83.4755683 107.517415,83.5436818 L112.075234,83.7155238 C117.408567,83.943014 135.830826,85.280354 153.575511,88.6263751 C170.547798,91.8277106 186.892817,97.0181389 190.853195,98.3114054 Z" id="path28" fill="#173A79"></path>
                        <path d="M31.3698378,61.4504158 C41.2995427,61.4326084 51.3326643,61.4188076 61.4232595,61.4094587 C61.4232595,59.3869768 61.4232595,57.3644949 61.4232595,55.3420131 C61.1303268,55.3326642 60.8365038,55.3237604 60.5426807,55.3139663 C56.3628255,55.1853075 55.2672218,54.3073999 55.2663314,51.1238718 C55.2663314,51.0232597 55.2663314,50.9222024 55.2663314,50.8215903 C55.2663314,49.9890917 55.2663314,49.1565931 55.2663314,48.3245397 C55.2663314,44.237773 55.2663314,40.1518076 55.2663314,36.065486 C52.1188635,35.5940336 48.977183,35.0712957 45.8444062,34.4974059 C45.516749,35.5356252 45.1886466,36.5818132 44.8609894,37.6339223 C42.2395092,34.0541338 38.1997987,31.707022 32.344529,30.2753025 C17.9285026,26.1226927 8.93609327,37.1610453 8.92825798,60.1976613 C8.93257629,83.5102928 18.3623813,96.1918729 31.9106503,92.1945442 C36.4642395,91.0949337 39.6214125,89.4107935 43.8785075,86.2041158 C44.3515181,86.8812443 44.8244841,87.5525855 45.2981625,88.217694 C48.1023917,87.6954903 50.9137439,87.2142438 53.7299931,86.7748448 C53.7299931,80.4861416 53.7299931,74.1978835 53.7299931,67.9096255 C50.5108502,68.0409554 47.2992754,68.1865314 44.0958921,68.3463533 C44.0237273,68.6753461 42.5754914,75.531662 41.8429817,77.2647727 C40.2970274,80.9224242 37.9893591,83.1893134 35.0574059,83.7052845 C32.8853859,84.0854737 31.031051,83.1145221 29.9624255,81.363604 C28.9831935,79.7591522 28.1234495,74.1364478 27.9069108,67.3451291 C27.8356365,65.4161364 27.7634718,63.4840274 27.691307,61.5483568 C27.691307,60.4425138 27.691307,59.3362256 27.691307,58.2303825 C27.691307,57.5853074 27.691307,56.9402323 27.691307,56.294712 C27.7991312,52.0578729 27.9069108,47.1915403 28.0156253,45.1828592 C28.3399436,40.3293479 30.1751356,38.1338666 33.4296708,38.7263652 C36.5764265,39.2930875 38.3188861,41.60129 38.3188861,45.1494702 C38.3188861,46.3657195 38.3188861,47.5815236 38.3188861,48.7977728 C38.3188861,49.1930984 38.3188861,49.5893143 38.3188861,49.9855302 C38.3188861,51.1723972 37.9919857,52.5907611 37.5572166,53.2487466 C37.2311621,53.7402324 36.8019579,53.9628256 35.5676341,54.1173053 C34.3330876,54.271785 31.9115407,54.0527532 31.3698378,54.0220354 C31.3698378,56.4981622 31.3698378,58.9738438 31.3698378,61.4504158" id="path30" fill="#D29908"></path>
                        <path d="M65.9396756,57.689481 C69.0635486,57.7415678 72.1923187,57.7865317 75.3250955,57.8239273 C75.5467983,55.4221466 75.7667204,54.4614344 76.651751,51.9536993 C78.8629919,46.400444 82.6252623,43.9425253 88.2760134,44.1085799 C92.0431808,44.2150239 94.4832475,45.7486911 94.4832475,47.993321 C94.4832475,48.9166376 94.0389515,49.9699487 93.1530305,50.9524751 C91.6006655,52.659765 89.493153,53.8853631 83.5125188,56.4954911 C78.3082896,58.7846396 74.8825802,60.4901487 72.4514172,61.8862533 C67.4804658,64.8725638 64.727433,69.0132426 64.7265426,73.3382286 C64.7265426,80.8854738 72.9887572,85.2607658 84.1776273,84.5787402 C89.2723406,84.3151899 93.2625464,83.3562584 97.8083448,81.0973825 C98.436948,81.81992 99.0646609,82.5442383 99.6932641,83.2712277 C102.317638,83.2783507 104.941567,83.3206434 107.565941,83.3981059 C107.565941,77.8964922 107.565941,72.3948785 107.565941,66.8932649 C104.572952,66.8705604 101.578183,66.8594307 98.5847499,66.8603211 C98.510849,67.1020573 98.436948,67.3437935 98.3630471,67.5855298 C95.8134645,74.9003877 91.8205876,78.4779057 86.1707268,78.6760136 C83.2912611,78.7775161 81.1882005,77.4664421 81.1882005,75.4363921 C81.1882005,74.8282675 81.2986068,74.2842497 81.6307158,73.6663309 C82.8487458,71.6113505 84.8396195,70.1885347 90.7138542,67.4199204 C95.036169,65.3368932 97.9196414,64.0289355 100.247966,62.7748454 C108.452752,58.6403992 111.554366,55.3286575 111.554366,50.7855302 C111.557037,43.3660089 102.354143,38.4900157 90.0487457,38.1208226 C84.1754013,37.9338889 79.5254293,38.7352244 75.8771267,40.8147347 C75.2876998,39.9728871 74.6987182,39.1247625 74.1092914,38.2691588 C71.383415,38.0394426 68.6593194,37.7709506 65.9396756,37.4647069 C65.9396756,44.2061202 65.9396756,50.9480232 65.9396756,57.689481" id="path32" fill="#D29908"></path>
                        <path d="M119.411906,73.5772937 C117.862657,77.4001094 116.86633,77.9926525 112.103726,77.9570376 C112.103726,79.8272657 112.103726,81.6974938 112.103726,83.5677219 C122.260654,84.0267091 132.398884,85.0154681 142.473897,86.5357797 C142.473897,84.4171376 142.473897,82.2984954 142.473897,80.1794081 C142.107064,80.1380058 141.74023,80.0970486 141.373397,80.0565367 C138.294487,79.7164143 136.860542,78.925318 136.861432,77.2411778 C136.861432,76.7283231 137.081354,75.4283787 137.412573,74.4957132 C138.661321,69.9294362 139.908288,65.2732315 141.15392,60.5128532 C143.682578,69.1116288 146.207676,78.0892579 148.727431,87.5499143 C152.709623,88.2395081 156.680686,89.0132421 160.637948,89.8706711 C163.431493,80.4856964 166.21925,70.5086237 168.997213,59.8085683 C170.405783,65.3395643 171.812127,71.0602097 173.215355,76.9883119 C173.755366,79.6193636 173.863101,80.2168038 173.863101,81.2616563 C173.86132,83.9425689 172.247519,84.7456851 168.457202,84.0316061 C168.095711,83.9652734 167.734665,83.8989406 167.373173,83.8339434 C167.373173,86.3608214 167.373173,88.8881447 167.373173,91.4154679 C175.287252,93.3297695 183.137224,95.5815224 190.899494,98.1738428 C190.899494,95.0806877 190.899494,91.9870873 190.899494,88.8943773 C186.749021,87.8597641 185.033718,85.4023351 183.537447,78.2406213 C179.790313,60.5449067 176.024926,44.5809672 172.243958,30.0020916 C168.102834,31.0745457 163.942122,32.0534216 159.765828,32.9392535 C157.187753,42.3341114 154.603446,51.1804105 152.014242,59.5770714 C149.752695,51.2351684 147.487587,43.2827146 145.218917,35.6434493 C141.193986,36.286343 137.158817,36.8445622 133.114743,37.3182851 C128.556035,50.1725085 123.986641,62.0928198 119.411906,73.5772937" id="path34" fill="#D29908"></path>
                    </g>
                </g>
            </g>
        </g>
    </g>
</svg>