<?xml version="1.0" encoding="UTF-8"?>
<svg width="200px" height="200px" viewBox="0 0 200 200" version="1.1" xmlns="http://www.w3.org/2000/svg" xmlns:xlink="http://www.w3.org/1999/xlink">
    <!-- Generator: Sketch 51.3 (57544) - http://www.bohemiancoding.com/sketch -->
    <title>glenville-st</title>
    <desc>Created with Sketch.</desc>
    <defs></defs>
    <g id="glenville-st" stroke="none" stroke-width="1" fill="none" fill-rule="evenodd">
        <g id="glenville-st_BGL" transform="translate(5.660377, 0.000000)">
            <g id="glenville-st">
                <g id="g10" transform="translate(94.452771, 99.976428) scale(-1, 1) rotate(-180.000000) translate(-94.452771, -99.976428) translate(0.000000, 0.214991)">
                    <g id="g12">
                        <polyline id="path14" fill="#1A64B7" points="148.804296 199.172107 40.4325867 199.172107 0 167.741408 0 31.0998832 40.4790575 0 148.804296 0 188.905543 31.0998832 188.905543 107.195833 109.697826 107.195833 109.697826 72.0786758 129.582402 72.0786758 129.582402 47.6422154 118.314186 38.7097008 71.3473565 38.7097008 59.4164603 47.5958235 59.4164603 149.922016 69.9279203 156.161538 118.977244 156.161538 129.535553 150.206025 129.535553 127.37744 188.905543 127.37744 188.905543 168.118955 148.804296 199.172107"></polyline>
                        <path d="M145.654107,190.242233 C146.344746,189.707783 179.353723,164.170364 180.338676,163.408103 C180.338676,162.226807 180.338676,138.282931 180.338676,135.92939 C177.925597,135.92939 140.987007,135.92939 138.573928,135.92939 C138.573928,138.230881 138.573928,155.277829 138.573928,155.277829 L121.075607,165.137804 L68.0199743,165.137804 L50.3780857,155.281223 L50.3780857,43.3507764 L68.1544751,29.7797886 L121.423193,29.7797886 L138.667625,43.3149452 L138.667625,81.3393283 C138.667625,81.3393283 120.995511,81.3393283 118.688975,81.3393283 C118.688975,83.4703382 118.688975,96.1817181 118.688975,98.312728 C121.172327,98.312728 177.524361,98.312728 180.007336,98.312728 C180.007336,95.8045482 180.007336,36.6186332 180.007336,35.3826474 C179.031072,34.6208019 146.390461,9.13958092 145.697556,8.59871929 C144.798365,8.59871929 44.1536481,8.59871929 43.2544577,8.59871929 C42.5615522,9.13958092 9.92094128,34.6208019 8.94452631,35.3826474 C8.94452631,36.6507303 8.94452631,162.179661 8.94452631,163.454872 C9.93008431,164.216755 42.891759,189.70816 43.5823977,190.242233 C44.4751653,190.242233 144.760962,190.242233 145.654107,190.242233 Z M146.106347,192.882422 L42.677918,192.882422 L6.29984872,164.749319 L6.29984872,34.0958569 L42.3431774,5.95853002 L146.608836,5.95853002 L182.652013,34.0958569 L182.652013,100.952917 L116.044297,100.952917 L116.044297,78.699139 C116.044297,78.699139 133.716788,78.699139 136.022947,78.699139 C136.022947,76.2939266 136.022947,45.7891797 136.022947,44.5977 C135.095799,43.8697621 121.174594,32.9428485 120.508135,32.4199779 C119.616501,32.4199779 69.9222531,32.4199779 69.0498873,32.4199779 C68.3898514,32.92399 53.9767363,43.927092 53.0227633,44.655407 C53.0227633,45.9358988 53.0227633,152.215964 53.0227633,153.732941 C54.2446043,154.415996 68.1533416,162.186827 68.7094795,162.497615 C69.3857614,162.497615 119.699241,162.497615 120.380435,162.497615 C120.939217,162.182678 134.715343,154.420522 135.92925,153.736336 C135.92925,152.312142 135.92925,133.289201 135.92925,133.289201 L182.983354,133.289201 L182.983354,164.702173 L146.558587,192.882422 L146.106347,192.882422 Z" id="path16" fill="#FFFFFF"></path>
                        <path d="M97.819068,186.259319 C96.8866303,186.265353 96.0898267,185.965503 96.0966273,184.992028 C95.809113,184.529617 96.0055748,182.214549 96.0055748,181.461717 C96.0055748,178.414185 96.0055748,175.366275 96.0055748,172.319119 C95.6560996,172.199179 95.04329,172.221809 94.5551581,172.228598 C94.4267023,172.141472 94.2581985,172.140341 94.0107323,172.138078 C93.6850591,172.775872 93.0597818,173.137201 92.6506124,173.676931 C91.5999197,175.064539 90.239422,176.203592 89.2049753,177.569324 C88.5230263,178.469629 87.0884776,180.418465 86.2127115,181.009114 C86.2127115,178.565053 86.2127115,176.120992 86.2127115,173.676931 C86.3271882,173.553973 86.3366335,173.517011 86.3940608,173.314848 C86.8674581,173.09194 87.2834281,172.955028 88.0265825,172.952765 C88.0265825,172.590681 88.0265825,172.228598 88.0265825,171.866138 C86.1526395,171.715647 84.2783187,171.564779 82.4043758,171.413911 C82.4043758,171.806168 82.4043758,172.198425 82.4043758,172.590681 C82.9586246,172.601997 83.3220789,172.753996 83.7644957,172.862244 C84.2975871,173.70899 84.2182468,175.133938 84.2182468,176.573596 C84.2182468,179.248862 84.5261628,182.540046 84.0368974,184.901507 C83.5907026,185.113476 83.1494192,185.18099 82.4043758,185.173069 C82.4043758,185.565326 82.4043758,185.957583 82.4043758,186.349839 C83.6843997,186.340033 85.0135391,186.473928 86.2127115,186.621402 C86.6577729,185.866685 87.4254851,185.393714 87.93553,184.720465 C88.9027264,183.4445 90.0527834,182.375977 91.0188463,181.099634 C91.2602676,180.888419 91.5020667,180.677204 91.7442436,180.465989 C92.223308,179.833852 93.3778987,178.18826 94.1014069,177.931407 C94.1014069,179.982834 94.1014069,182.035016 94.1014069,184.08682 C93.9442375,184.335375 93.973329,185.151193 93.9204354,185.444254 C93.7609992,185.542319 93.5924954,185.672442 93.4670621,185.806715 C93.0439137,185.836888 92.6203875,185.867062 92.1976169,185.897235 C92.1976169,186.259319 92.1976169,186.621402 92.1976169,186.983485 C94.0711821,187.134353 95.9455028,187.285221 97.819068,187.436089 C97.819068,187.043832 97.819068,186.651575 97.819068,186.259319" id="path18" fill="#FFFFFF"></path>
                        <path d="M99.632939,187.436089 C100.770906,187.313508 102.248147,187.401389 103.3506,187.164526 C103.924495,187.164526 104.499146,187.164526 105.073041,187.164526 C105.493545,187.073628 106.263146,187.189042 106.796237,187.074005 C108.265922,186.756428 110.076771,186.811495 111.692669,186.802443 C111.692669,185.716194 111.692669,184.629567 111.692669,183.543695 C111.299745,183.573869 110.906822,183.604042 110.513898,183.634216 C110.527122,184.320288 110.453826,184.891323 110.332171,185.354111 C110.057502,185.438974 109.861796,185.64076 109.606774,185.716194 C108.186582,185.806715 106.765635,185.897235 105.345065,185.987756 C105.345065,184.237688 105.345065,182.487242 105.345065,180.737551 C106.433161,180.707378 107.521634,180.677204 108.60973,180.64703 C108.711739,180.820151 108.909335,180.985729 108.972429,181.190155 C109.055547,181.461717 108.946738,181.734788 109.063104,181.914321 C109.272789,181.774768 109.797946,181.812863 110.1512,181.823801 C110.1512,180.586683 110.1512,179.349189 110.1512,178.112449 C109.758276,178.142622 109.365353,178.172796 108.972429,178.20297 C108.942204,178.534879 108.911979,178.866789 108.881377,179.198698 C108.601796,179.374836 108.570438,179.4597 108.065305,179.47026 C107.672003,179.719947 106.00699,179.659977 105.345065,179.651302 C105.331086,177.723209 105.193563,175.407009 105.526792,173.767452 C106.556705,173.16662 109.011721,173.002551 110.604573,173.314848 C110.604573,173.374818 110.604573,173.435542 110.604573,173.495889 C110.841838,173.862498 110.794234,174.761671 110.785544,175.306305 C111.209071,175.306305 111.632219,175.306305 112.055368,175.306305 C112.346282,174.439191 112.153598,172.908259 112.145664,171.866138 C107.975386,172.07773 103.803218,172.288946 99.632939,172.500161 C99.632939,172.892417 99.632939,173.284674 99.632939,173.676931 C100.224591,173.665993 100.5786,173.758022 100.993059,173.857972 C101.242414,174.229862 101.365203,174.329435 101.355758,175.034742 C101.684075,175.556368 101.446432,177.109931 101.446432,177.840886 C101.446432,180.396967 101.713922,183.461095 101.264705,185.716194 C100.785263,185.995677 100.399896,186.228768 99.632939,186.259319 C99.632939,186.651575 99.632939,187.043832 99.632939,187.436089" id="path20" fill="#FFFFFF"></path>
                        <path d="M125.565892,184.358382 C125.565892,183.272133 125.565892,182.185884 125.565892,181.099634 C125.535667,181.099634 125.505064,181.099634 125.474839,181.099634 C125.217172,181.273132 124.633076,181.306701 124.296069,181.371197 C124.305136,181.93582 124.293424,182.566825 124.205772,183.000571 C122.96504,183.78433 120.925238,184.125668 119.127991,184.358382 C119.127991,182.608314 119.127991,180.857868 119.127991,179.108177 C120.330564,179.081398 121.427727,178.5428 122.573628,178.746094 C122.660902,178.972773 122.720974,179.695054 122.936327,179.832343 C123.165658,179.671292 123.549514,179.652056 123.93337,179.651302 C123.93337,178.414185 123.93337,177.177067 123.93337,175.93995 C123.540447,176.000297 123.147523,176.060645 122.7546,176.120992 C122.76669,176.435551 122.785202,176.848175 122.664303,177.026199 C122.583451,177.269097 122.570983,177.260422 122.391901,177.388283 C121.634768,177.944608 120.063073,177.785442 119.127991,178.112449 C119.127991,176.513626 119.127991,174.914048 119.127991,173.314848 C119.275715,173.087791 119.293472,172.448866 119.30934,172.138078 C120.369478,171.478407 122.791247,170.764048 124.386744,171.051828 C124.441148,171.207599 124.467595,171.336969 124.477796,171.594953 C124.655367,171.864629 124.579805,172.615952 124.568471,173.043285 C124.931547,173.014243 125.583271,172.953519 125.837538,172.771723 C126.104273,172.353819 125.938791,170.121727 125.928591,169.422454 C121.757556,170.146621 117.585766,170.870787 113.41511,171.594953 C113.41511,171.98721 113.41511,172.379466 113.41511,172.771723 C114.041898,172.677808 114.708735,172.611049 115.047631,173.043285 C115.447355,173.568683 115.228603,175.178067 115.228603,176.030471 C115.228603,178.68273 115.576567,182.334111 115.047631,184.629945 C114.541742,184.950162 114.190756,185.256424 113.41511,185.354111 C113.41511,185.746367 113.41511,186.138624 113.41511,186.530881 C113.445712,186.530881 113.475937,186.530881 113.506162,186.530881 C114.305233,186.037165 116.09039,186.162009 117.132771,185.897235 C119.792183,185.221724 122.793136,184.729895 125.565892,184.358382" id="path22" fill="#FFFFFF"></path>
                        <path d="M75.0597283,170.780266 C74.5689517,170.448356 73.9859892,170.460426 73.3369097,170.508704 C72.9560761,170.893794 72.4857013,171.151401 72.2488138,171.685474 C71.164496,174.132929 71.3511346,180.702852 72.6115124,182.729008 C73.0308827,183.403011 73.620268,183.522197 74.2440341,183.996299 C74.6781391,184.004974 75.0125019,183.998185 75.2410776,183.815258 C76.6888497,183.313244 76.414181,181.302552 76.7825468,179.651302 C77.4044239,176.864394 76.5263909,171.770714 75.0597283,170.780266 Z M74.8783789,185.26359 C74.3154404,184.906787 73.4136054,184.972415 72.7928617,184.720465 C71.784484,184.310482 70.7069667,183.633462 69.9819473,182.91005 C66.790577,179.72485 65.8169579,170.759899 71.2513925,169.241413 C72.5136594,168.888759 74.1529817,169.275358 75.0597283,169.603119 C78.0686157,170.691631 79.8337491,172.542404 80.7726097,175.668388 C80.9853173,176.37709 81.0404777,177.121623 81.0446337,177.931407 C81.0676801,182.749753 79.7766997,185.330726 74.8783789,185.26359 Z" id="path24" fill="#FFFFFF"></path>
                        <path d="M66.264664,167.883601 C65.5184871,167.799115 64.8709189,167.40535 64.2694437,167.159435 C63.3098035,166.766801 62.4181694,166.647615 61.4585292,166.254227 C60.6288561,165.913643 59.7122864,165.41427 58.7386672,165.258499 C58.7386672,165.620582 58.7386672,165.982665 58.7386672,166.344748 C59.2528681,166.476003 60.0168021,166.855813 60.2801364,167.249956 C60.7380435,167.935651 60.5521604,169.511089 60.5521604,170.599224 C60.5521604,173.355205 60.5978755,176.317874 60.4614857,178.927136 C60.401036,178.957309 60.3402084,178.987483 60.2801364,179.017657 C59.8860795,179.342777 59.155015,179.1078 58.7386672,178.927136 C58.7386672,179.319392 58.7386672,179.711649 58.7386672,180.103906 C59.8445202,180.327945 60.9341274,180.880121 61.9122803,181.280676 C63.3766761,181.880376 64.8554287,182.213794 66.264664,182.819529 C66.264664,182.427272 66.264664,182.035016 66.264664,181.642759 C65.6019834,181.51339 64.7522862,181.049848 64.6321423,180.375468 C64.2403522,179.766716 64.450793,178.210513 64.450793,177.297762 C64.450793,174.610049 64.1549669,171.347907 64.6321423,168.96985 C64.6925921,168.96985 64.7534197,168.96985 64.8138694,168.96985 C65.2045261,168.70206 65.9257675,168.972113 66.264664,169.060371 C66.264664,168.668115 66.264664,168.275858 66.264664,167.883601" id="path26" fill="#FFFFFF"></path>
                        <path d="M52.5724125,178.021928 C52.0665234,175.801906 51.3048563,173.86363 49.9428473,172.500161 C49.0833271,171.639082 47.9007784,171.09822 47.041636,170.237141 L46.8602867,170.237141 L46.8602867,180.55651 C47.7368084,181.129808 48.6133301,181.703106 49.4898518,182.276404 C49.855573,182.442736 50.2681427,182.425387 50.5779478,182.638488 C51.0120527,182.647162 51.3464155,182.640373 51.575369,182.457446 C52.6963345,182.056514 52.925288,179.568702 52.5724125,178.021928 Z M56.4718007,186.44036 C56.0815218,186.700984 55.4857138,186.720974 54.839279,186.711922 C54.4954709,186.473928 53.9782475,186.521829 53.5702116,186.349839 C52.4915609,185.894595 51.337348,185.199471 50.3965984,184.539424 C47.9238249,182.804819 45.4283827,181.083793 42.8706016,179.37974 C41.8293543,178.686124 40.8564907,177.764698 39.6966107,177.207241 L39.6966107,175.758909 C40.1258041,175.966729 40.7563708,176.185111 41.1477831,176.483075 C41.498014,176.473646 41.6083348,176.46233 41.7821279,176.302033 C42.2392793,175.699693 41.9634772,171.994376 41.9634772,170.870787 L41.9634772,161.818709 C41.9634772,158.744775 42.2596811,157.273435 40.4223858,155.934859 C40.1662299,155.74816 40.0498641,155.51092 39.6966107,155.391734 L39.6966107,153.943402 C40.5553753,154.385445 41.2724607,155.053413 42.0545297,155.572776 C43.6976301,156.664305 45.3089944,157.647587 46.9509613,158.741003 C47.7334081,159.262252 48.5445685,160.168214 49.4898518,160.460898 L49.4898518,161.90923 C48.9798069,161.650869 48.1879148,161.303495 47.7670333,160.913501 L47.1319329,160.913501 C47.0699718,161.215237 47.0287904,161.914888 46.8602867,162.180792 L46.8602867,168.698288 C47.0117889,169.010962 47.7405865,169.22444 48.0386795,169.422454 C48.9590273,170.033847 49.8616179,170.745566 50.7592971,171.413911 C53.5199627,173.469865 55.9239746,176.488732 57.1061455,180.103906 C57.6785293,181.85322 57.817186,185.539678 56.4718007,186.44036 Z" id="path28" fill="#FFFFFF"></path>
                        <path d="M145.967691,181.371197 C149.817963,181.431544 153.285136,177.760926 155.579205,176.030471 C156.019732,175.697807 157.854761,174.335847 158.02742,173.948493 C158.02742,172.741549 158.02742,171.534606 158.02742,170.327662 C157.966593,170.327662 157.906143,170.327662 157.846071,170.327662 C157.532488,170.727839 156.862629,171.089545 156.394899,171.323391 C156.359762,174.197048 154.283312,175.752874 152.496266,176.935679 C151.657148,177.490496 150.848254,178.219565 149.413328,177.931407 C149.296962,177.743954 149.2248,177.723209 149.141304,177.478803 C148.879103,177.146517 148.889304,176.143999 149.050629,175.668388 C149.49569,174.351688 150.478377,173.343135 151.226821,172.319119 C152.489465,170.59055 154.051336,169.133165 155.306803,167.430997 C156.533933,165.767301 157.50453,164.133401 158.480794,162.180792 C159.069801,161.002136 159.954635,158.384955 159.024464,156.840067 C157.829447,154.854644 154.245154,156.338808 152.858965,157.111629 C150.494623,158.429083 148.588566,160.1701 146.511738,161.728188 C146.073855,162.056326 144.535786,163.038477 144.335169,163.448083 C144.335169,164.866242 144.335169,166.284401 144.335169,167.70256 C144.365394,167.70256 144.395619,167.70256 144.426221,167.70256 C145.019762,166.987068 145.985448,167.184705 145.967691,165.801623 C146.350035,165.218519 146.337568,164.383842 146.693088,163.810166 C147.784962,162.04652 149.449597,160.831278 151.226821,159.736731 C152.104098,159.196247 152.921304,158.685936 154.218707,159.012565 C155.175324,160.873144 154.212662,162.559094 153.312338,163.900687 C152.342497,165.345625 150.988044,166.519378 149.956998,167.883601 C148.400794,169.943326 146.855169,171.818238 145.604992,174.220055 C144.89584,175.582016 143.658887,178.179962 144.607571,180.284947 C144.815367,180.746226 145.27214,180.945372 145.604992,181.280676 C145.81581,181.298403 145.86077,181.298026 145.967691,181.371197" id="path30" fill="#FFFFFF"></path>
                        <path d="M137.081196,175.93995 C136.961808,175.621619 136.629334,175.396448 136.446473,175.125263 C135.171739,174.829562 133.883781,174.987596 132.819865,175.577867 C132.812309,177.073723 132.499103,179.865157 132.910539,181.099634 C134.87629,180.328322 136.421916,179.928145 137.081196,177.840886 C137.220608,177.399975 137.254233,176.39972 137.081196,175.93995 Z M140.889532,166.887873 C140.198137,167.994112 139.869442,169.248579 139.257766,170.418183 C138.841418,171.213257 138.125466,172.136192 137.987943,173.133806 C141.261676,173.104387 141.865796,176.159086 140.254809,178.384011 C138.336284,181.034007 133.876602,181.764962 130.643673,183.091091 C129.53782,183.54445 128.113472,183.599516 127.198036,184.267861 L127.107361,184.267861 L127.107361,183.091091 C127.439835,182.970397 127.771931,182.849703 128.104405,182.729008 C128.346581,182.48762 128.588381,182.246231 128.829802,182.004842 C129.132806,179.472901 128.920477,176.458182 128.920477,173.767452 C128.920477,172.976526 129.187967,171.261535 128.829802,170.689745 C128.799577,170.599224 128.769352,170.508704 128.739505,170.418183 C128.306156,170.32125 127.609472,170.246948 127.288333,170.508704 L127.107361,170.508704 L127.107361,169.331934 C128.707769,169.088282 130.66483,168.196275 132.094467,167.612039 C132.804752,167.321618 133.692986,167.315206 134.270659,166.887873 L134.451631,166.887873 C134.502635,168.249833 133.905316,168.272463 133.091889,168.698288 C132.595067,169.943326 132.799841,172.638959 132.819865,174.310576 C133.349178,174.230239 133.647649,174.011858 134.179607,173.948493 C134.671139,171.992867 136.017658,169.957281 136.809172,168.155163 C137.156003,167.366501 137.351331,166.320609 137.897268,165.711103 C138.871265,164.928852 141.386353,164.847006 142.431001,164.081729 L142.521676,164.081729 C142.509208,165.877057 141.562791,165.811053 140.889532,166.887873 Z" id="path32" fill="#FFFFFF"></path>
                        <path d="M156.288734,0.348587584 L156.216194,1.43368689 C156.207127,1.57439012 156.216194,1.74632679 156.21166,1.9223897 L156.198059,1.9223897 C156.152722,1.75502056 156.098317,1.56496088 156.043912,1.4064326 L155.667612,0.370834573 L155.459438,0.370834573 L155.092206,1.43368689 C155.047246,1.57851636 155.001909,1.75502056 154.960728,1.9223897 L154.947127,1.9223897 C154.942593,1.75045303 154.947127,1.5966356 154.938437,1.43368689 L154.870431,0.348587584 L154.607474,0.348587584 L154.74802,2.14869164 L155.105807,2.14869164 L155.459438,1.17158399 C155.504776,1.03574248 155.540668,0.886349256 155.586383,0.719274307 L155.59545,0.719274307 C155.635876,0.886349256 155.677058,1.04473044 155.722395,1.17600442 L156.07527,2.14869164 L156.428902,2.14869164 L156.564914,0.348587584 L156.288734,0.348587584 Z M154.544002,2.14869164 L154.544002,1.91796927 L153.991265,1.91796927 L153.991265,0.348587584 L153.719241,0.348587584 L153.719241,1.91796927 L153.171037,1.91796927 L153.171037,2.14869164 L154.544002,2.14869164 Z" id="path34" fill="#1A64B7" fill-rule="nonzero"></path>
                    </g>
                </g>
            </g>
        </g>
    </g>
</svg>