<?xml version="1.0" encoding="UTF-8"?>
<svg width="200px" height="200px" viewBox="0 0 200 200" version="1.1" xmlns="http://www.w3.org/2000/svg" xmlns:xlink="http://www.w3.org/1999/xlink">
    <!-- Generator: Sketch 51.3 (57544) - http://www.bohemiancoding.com/sketch -->
    <title>greensboro</title>
    <desc>Created with Sketch.</desc>
    <defs></defs>
    <g id="greensboro" stroke="none" stroke-width="1" fill="none" fill-rule="evenodd">
        <g id="greensboro_BGL" fill="#163726">
            <g id="greensboro" transform="translate(0.000000, 21.000000)">
                <path d="M40.8069565,0 L99.1043478,0 L99.0504348,0.153043478 C97.2104348,10.4852174 95.4469565,20.8156522 93.5878261,31.146087 C93.5008696,31.8156522 93.293913,32.4521739 93.2626087,33.1286957 C85.1321739,33.1286957 76.9704348,33.1391304 68.84,33.1234783 C69.1721739,31.3495652 69.6226087,29.6052174 69.9391304,27.826087 C70.1113043,26.8608696 70.4052174,25.9443478 70.4226087,24.9547826 C61.0295652,24.9582609 51.4017391,24.9373913 42.0330435,24.9652174 C41.9373913,25.7930435 41.7895652,26.6208696 41.6643478,27.4469565 C41.2365217,29.4852174 40.9113043,31.5234783 40.5704348,33.5773913 C39.9443478,37.0765217 39.3826087,40.5826087 38.7791304,44.0852174 C36.2678261,58.4 33.8017391,72.6626087 31.3217391,86.9791304 C30.6956522,90.2295652 30.2730435,93.5095652 29.5843478,96.7478261 C29.4973913,97.8347826 29.3182609,98.88 29.0782609,99.9426087 C29.4713043,99.9773913 29.8626087,100.033043 30.2573913,100.052174 C39.0713043,100.050435 47.8852174,100.052174 56.6991304,100.053913 C57.0852174,100.026087 57.4695652,99.9843478 57.8556522,99.9582609 C58.1530435,97.4834783 58.5217391,95.0156522 58.9373913,92.5582609 C59.6608696,88.2643478 60.3686957,83.9721739 61.0730435,79.6765217 C61.2330435,78.5878261 61.4921739,77.5304348 61.5547826,76.4295652 C59.1286957,76.4452174 56.5026087,76.4434783 54.0782609,76.4295652 C54.3008696,74.8521739 54.6956522,73.3147826 54.9321739,71.7408696 C56.093913,64.88 57.3182609,58.0243478 58.4643478,51.1652174 C68.9217391,51.1756522 79.6156522,51.1721739 90.08,51.1652174 C88.973913,57.2365217 87.9530435,63.3582609 86.8626087,69.4521739 C84.9426087,80.1408696 83.1182609,90.8382609 81.2017391,101.526957 C79.9669565,108.657391 78.6973913,115.845217 77.4313043,122.972174 C77.3495652,123.615652 77.1530435,124.224348 77.1495652,124.88 C76.9321739,124.855652 76.7252174,124.871304 76.5304348,124.926957 C58.2156522,124.93913 39.8834783,124.923478 21.5652174,124.933913 C19.573913,124.836522 17.6191304,124.70087 15.6956522,124.133913 C12.2643478,123.175652 9.1426087,121.276522 6.64695652,118.744348 C4.95826087,117.046957 3.49913043,115.182609 2.44173913,113.026087 C0.417391304,109.126957 -0.300869565,104.516522 0.144347826,100.166957 C0.330434783,98.6921739 0.636521739,97.2330435 0.862608696,95.7634783 C1.8173913,90.2313043 2.70086957,84.6869565 3.66782609,79.1547826 C4.90782609,71.9669565 6.06956522,64.7669565 7.30956522,57.5773913 C9.17043478,46.7721739 10.9373913,35.9634783 12.8069565,25.1582609 C13.2469565,22.786087 13.9234783,20.466087 14.9686957,18.2852174 C17.1443478,13.5426087 20.7095652,9.39478261 24.813913,6.20347826 C28.5182609,3.38086957 32.6852174,1.28521739 37.2956522,0.452173913 C38.4591304,0.226086957 39.6330435,0.144347826 40.8069565,0 Z" id="Shape" fill-rule="nonzero"></path>
                <path d="M141.391304,33.4469565 C160.231304,33.4486957 179.073043,33.4469565 197.913043,33.4486957 C198.608696,33.4121739 199.292174,33.5043478 199.986087,33.4278261 C199.697391,35.6991304 199.186087,38.0104348 198.833043,40.2921739 C197.226087,49.72 195.530435,59.1495652 193.893913,68.5756522 C193.815652,69.1930435 193.655652,69.7878261 193.641739,70.4121739 C193.328696,70.4365217 193.015652,70.4591304 192.702609,70.4904348 C185.695652,70.4765217 178.662609,70.4886957 171.652174,70.4834783 C170.316522,70.4765217 168.982609,70.5130435 167.646957,70.453913 C168.231304,66.8365217 168.871304,63.1391304 169.485217,59.5269565 C169.549565,59.1617391 169.476522,58.8226087 169.622609,58.4626087 C160.968696,58.4852174 152.149565,58.466087 143.478261,58.4713043 C142.652174,58.48 141.586087,58.2017391 140.81913,58.5495652 C139.61913,65.28 138.44,72.2121739 137.250435,78.9443478 C136.883478,81.1513043 136.453913,83.3443478 136.123478,85.5565217 C135.069565,91.6973913 133.982609,97.8226087 132.942609,103.965217 C131.285217,113.612174 129.570435,123.212174 127.946087,132.869565 C127.913043,133.067826 127.954783,133.208696 128.074783,133.292174 C128.796522,133.542609 129.674783,133.426087 130.434783,133.443478 C138.26087,133.434783 146.086957,133.443478 153.913043,133.44 C154.989565,133.426087 156.057391,133.49913 157.128696,133.353043 C157.593043,130.109565 158.250435,126.886957 158.77913,123.652174 C159.765217,118.006957 160.746087,112.366957 161.747826,106.725217 C161.806957,106.074783 161.973913,105.446957 162.036522,104.798261 C162.4,104.841739 162.758261,104.833043 163.123478,104.817391 C170.601739,104.822609 178.085217,104.81913 185.565217,104.81913 C186.210435,104.803478 186.846957,104.86087 187.490435,104.777391 C187.553043,105.408696 187.401739,105.998261 187.283478,106.612174 C186.714783,109.73913 186.194783,112.874783 185.633043,116.003478 C184.970435,120.241739 184.161739,124.455652 183.44,128.683478 C181.869565,137.968696 180.201739,147.217391 178.598261,156.497391 C178.533913,157.114783 178.316522,157.688696 178.309565,158.314783 C177.998261,158.297391 177.702609,158.283478 177.393043,158.33913 C158.850435,158.321739 140.285217,158.337391 121.73913,158.332174 C119.37913,158.38087 116.970435,158.13913 114.697391,157.48 C111.473043,156.568696 108.533913,154.806957 106.153043,152.455652 C104.297391,150.718261 102.763478,148.657391 101.6,146.398261 C99.7547826,142.846957 99.0365217,138.666087 99.24,134.690435 C99.3686957,132.953043 99.7269565,131.182609 100.013913,129.452174 C100.954783,123.796522 101.916522,118.144348 102.885217,112.493913 C104.723478,101.373913 106.655652,90.2521739 108.513043,79.1304348 C109.492174,73.1513043 110.568696,67.1878261 111.542609,61.2086957 C111.92,58.8086957 112.33913,56.3495652 113.189565,54.0591304 C113.871304,52.0869565 114.850435,50.2191304 115.92,48.4330435 C117.683478,45.6208696 119.890435,43.1773913 122.361739,40.9721739 C124.850435,38.8295652 127.603478,36.9721739 130.626087,35.6695652 C133.994783,34.1652174 137.70087,33.3826087 141.391304,33.4469565 Z" id="Shape" fill-rule="nonzero"></path>
            </g>
        </g>
    </g>
</svg>