<?xml version="1.0" encoding="UTF-8"?>
<svg width="200px" height="200px" viewBox="0 0 200 200" version="1.1" xmlns="http://www.w3.org/2000/svg" xmlns:xlink="http://www.w3.org/1999/xlink">
    <!-- Generator: Sketch 51.3 (57544) - http://www.bohemiancoding.com/sketch -->
    <title>hamilton</title>
    <desc>Created with Sketch.</desc>
    <defs></defs>
    <g id="hamilton" stroke="none" stroke-width="1" fill="none" fill-rule="evenodd">
        <g id="hamilton_BGL" transform="translate(6.572770, 0.000000)">
            <g id="hamilton">
                <g id="g10" transform="translate(93.303394, 100.579939) scale(-1, 1) rotate(-180.000000) translate(-93.303394, -100.579939) translate(0.000000, 0.659480)" fill-rule="nonzero">
                    <g id="g12">
                        <polyline id="path14" fill="#253B7D" points="0 55.8275588 22.1751777 55.8275588 22.1751777 170.331075 0 170.331075 0 198.641872 71.2771286 198.641872 71.2771286 170.331075 54.3825497 170.331075 54.3825497 124.427084 111.448505 124.427084 111.448505 170.331075 94.5531264 170.331075 94.5531264 198.641872 165.811328 198.641872 165.811328 170.331075 143.654971 170.331075 143.654971 55.8275588 165.811328 55.8275588 165.811328 27.5196931 94.5531264 27.5196931 94.5531264 55.8275588 111.448505 55.8275588 111.448505 103.774724 54.3825497 103.774724 54.3825497 55.8275588 71.2771286 55.8275588 71.2771286 27.5196931 0 27.5196931 0 55.8275588"></polyline>
                        <path d="M150.050785,162.198083 L172.054124,162.198083 L172.054124,199.432976 L184.331518,181.579455 L184.331518,142.817511 L162.161565,142.817511 L162.161565,65.5435577 L150.050785,65.5435577 L150.050785,162.198083 Z M172.054124,19.3824907 L172.054124,56.6215933 L184.331518,41.8280363 L184.331518,0 L110.516537,0 L95.3683315,19.3824907 L172.054124,19.3824907 Z M77.6740092,19.3824907 L77.6740092,56.6215933 L89.7887885,43.1043537 L89.7887885,0 L18.372238,0 L0.832023686,19.3824907 L77.6740092,19.3824907 Z M60.6192151,95.6406657 L106.851047,95.6406657 L106.851047,76.0000339 L72.8934099,76.0000339 L72.8934099,65.5435577 L60.6192151,65.5435577 L60.6192151,95.6406657 Z M95.3683315,162.198083 L106.851047,162.198083 L106.851047,146.133804 L95.3683315,162.198083 Z M60.6192151,162.198083 L77.6740092,162.198083 L77.6740092,199.432976 L89.7887885,183.623694 L89.7887885,142.817511 L72.8934099,142.817511 L72.8934099,133.892349 L60.6192151,133.892349 L60.6192151,162.198083 Z M0.832023686,162.198083 L17.5756137,162.198083 L17.5756137,142.817511 L0.832023686,162.198083 Z" id="path16" fill="#D1B67C"></path>
                    </g>
                </g>
            </g>
        </g>
    </g>
</svg>