<?xml version="1.0" encoding="UTF-8"?>
<svg width="200px" height="200px" viewBox="0 0 200 200" version="1.1" xmlns="http://www.w3.org/2000/svg" xmlns:xlink="http://www.w3.org/1999/xlink">
    <!-- Generator: Sketch 51.3 (57544) - http://www.bohemiancoding.com/sketch -->
    <title>hawaii-pacific</title>
    <desc>Created with Sketch.</desc>
    <defs></defs>
    <g id="hawaii-pacific" stroke="none" stroke-width="1" fill="none" fill-rule="evenodd">
        <g id="hawaii-pacific_BGL" transform="translate(0.000000, 6.965174)">
            <g id="hawaii-pacific">
                <g id="g10" transform="translate(99.999998, 93.933688) scale(-1, 1) rotate(-180.000000) translate(-99.999998, -93.933688) translate(0.000000, 0.265260)" fill-rule="nonzero">
                    <g id="g12">
                        <path d="M197.824439,137.404676 C171.856107,157.414905 148.046663,166.335234 120.602219,166.335234 C117.49333,166.335234 114.834997,166.297103 111.647775,166.052294 C87.1466645,196.335104 48.223721,185.181101 48.223721,185.181101 C48.223721,185.181101 71.6561093,175.741312 66.0033317,154.741901 C55.8499986,150.111531 47.085721,144.207933 39.6252212,137.230602 C1.16276108,117.789015 0,94.0900741 0,94.0900741 C0,94.0900741 8.56877756,100.125194 22.3183328,103.8653 C15.6078329,92.5399859 18.2743329,73.5051246 24.9782772,67.3025615 C25.5457771,69.4892634 26.316166,72.3578935 26.8431104,72.9950599 C27.7094438,66.233802 30.8608881,59.7891931 35.3826102,53.7015742 C44.2632211,41.7827503 58.139443,35.2171737 74.4499981,35.1956217 C75.4849981,35.1956217 76.5533314,35.2601673 77.6738869,35.3868821 C90.5583311,-3.77765046 126.55333,0.106637775 126.55333,0.106637775 C126.55333,0.106637775 105.611664,17.6090013 108.877775,32.9613948 C123.750552,48.6483421 143.635552,58.7248545 160.128885,59.0658186 C165.772218,59.1813154 174.243329,56.9581408 175.18444,56.6807276 C167.867774,70.3773175 155.208329,74.9883462 145.641107,74.9883462 C134.432219,74.9883462 123.813886,69.8462534 112.101664,63.8962359 C111.974442,72.3247366 109.236108,76.1808917 109.236108,76.1808917 C109.236108,76.1808917 78.504998,73.7493809 80.1727758,91.1799977 C80.539998,95.0151534 84.6155534,99.0194096 90.10722,99.4078987 C100.756664,100.163325 109.764442,84.2833489 109.764442,84.2833489 C109.764442,84.2833489 112.588886,91.1164469 111.058886,101.982537 C116.767219,101.333766 123.054441,100.65239 130.051663,100.65239 C142.359996,100.65239 153.243885,102.719727 163.341663,106.979844 C176.05444,112.35072 187.458329,121.06216 198.211662,133.622572 C198.688884,134.170214 199.999995,135.68383 199.999995,135.68383 C199.999995,135.68383 198.393884,136.963689 197.824439,137.404676" id="path14" fill="#FFFFFF"></path>
                        <path d="M63.8688873,96.5442421 L64.4472206,97.438375 L101.736664,111.71687 C101.736664,111.71687 61.0677763,123.385911 55.0238875,94.4139071 C55.0238875,94.4139071 57.7538874,95.9181281 59.0877763,96.0618083 C58.404443,92.8096626 59.4133318,76.9291339 78.3144425,75.8863473 L67.7499983,94.247017 L63.8688873,96.5442421" id="path16" fill="#73B3C9"></path>
                        <path d="M3.30946103,99.2183514 C3.30946103,99.2183514 33.9455547,125.03547 87.9338867,134.095611 C87.9338867,134.095611 88.2938867,129.790732 92.0016644,126.491614 C92.0016644,126.491614 93.368331,131.539209 97.6611087,136.973083 C97.6611087,136.973083 97.3927753,132.16256 100.587775,127.657081 C100.587775,127.657081 103.516109,133.835329 106.930553,137.072001 C106.930553,137.072001 143.745552,144.963359 190.714995,129.565817 C190.714995,129.565817 170.907774,154.579984 115.912219,143.358009 L122.902219,151.722959 L92.1549977,149.928062 C92.1549977,149.928062 25.1627771,132.260926 6.73827761,104.904771 C5.4889332,103.051297 4.07356656,101.158034 3.30946103,99.2183514" id="path18" fill="#73B3C9"></path>
                        <path d="M169.742774,60.340704 C149.444996,82.4304271 129.475552,69.0228554 106.879442,57.8616682 C109.018886,62.6506392 109.837219,66.6991047 108.54722,73.0442427 C96.2055532,51.0058024 67.7033316,51.7807912 54.2610542,64.4422206 C40.8871656,77.0391045 38.3960546,100.546841 58.3333319,118.806382 C42.0636101,116.96838 14.1460552,104.525676 22.7354439,75.1231845 C23.1382216,74.0146366 23.5957216,72.9105096 24.0978883,71.7986461 C25.045166,76.8694513 27.1842215,81.2892749 30.4937215,84.2573759 C25.8155549,68.918411 39.2840546,37.7277086 74.5711092,37.6845493 C76.1444425,37.6845493 77.8366647,37.850942 79.5955536,38.1614018 C85.6394423,19.0879125 100.081109,4.280614 120.470553,2.60010293 C120.470553,2.60010293 101.389442,18.7110283 106.49222,34.4810891 C125.829997,55.1642385 152.177218,65.2225145 169.742774,60.340704" id="path20" fill="#1A719E"></path>
                        <path d="M148.019441,111.349933 L150.186107,116.971696 L141.856108,115.666969 L143.340552,119.822643 L134.970552,118.084665 L136.031663,121.677775 L128.10833,120.560938 L129.122775,123.111261 C130.652775,123.321255 132.388886,123.395306 134.254441,123.290308 L135.918885,123.160996 C142.554996,122.466911 150.302218,119.614306 155.492218,113.187381 L148.019441,111.349933 Z M135.486663,146.200114 C135.486663,146.200114 131.629441,150.612753 133.479441,154.5938 L139.838885,151.584253 C139.626663,151.064793 139.531108,150.487862 139.593885,149.898773 C140.738885,149.772777 142.370552,149.578256 142.370552,149.578256 L140.176663,148.338186 C140.908885,147.257821 142.222219,146.62397 143.599996,146.826228 C144.733885,146.995328 145.647774,147.683336 146.15833,148.59902 L150.889441,146.370872 L135.486663,146.200114 Z M110.163331,163.374317 C101.01722,173.525322 82.6094424,188.338196 55.3385542,184.214022 C55.3385542,184.214022 74.5644426,175.623053 68.9005538,153.215575 C58.3749985,148.560337 48.9224988,142.397563 41.3022767,135.196422 C24.6494994,126.365064 8.79361089,114.304218 3.08159992,98.8635719 C24.9750549,119.959691 57.0249986,132.535576 88.77722,138.407122 C90.7099977,141.49072 92.8444421,145.212589 96.9911087,146.952224 C96.9911087,146.952224 90.0516644,139.983183 91.7066644,131.437528 C92.7827755,134.452048 97.594442,145.512107 105.112775,149.162136 C105.112775,149.162136 98.149442,142.309697 100.296664,133.380526 C101.758331,138.234706 105.60222,146.643865 112.561664,149.551731 C112.561664,149.551731 108.924442,146.29848 106.744442,141.04089 C140.087774,144.680972 170.82444,141.091731 186.248884,132.493577 C186.247773,132.459867 186.21944,132.421737 186.181106,132.384712 C186.183329,132.37808 186.186662,132.37808 186.193329,132.372001 C178.642218,123.789873 170.151662,118.331684 161.21944,114.966805 C158.497774,117.204347 149.795552,123.639009 138.454441,124.884606 C124.231664,127.502901 110.703886,119.671226 110.703886,119.671226 C124.209997,119.108663 133.824441,113.073542 137.622219,110.256858 C134.716663,110.08831 131.80833,110.02697 128.90833,110.057364 C125.775552,112.357904 121.657775,114.720338 117.420553,115.229298 C119.277219,114.088145 120.887219,112.170567 122.166664,110.267358 C118.441664,110.452484 114.769442,110.742607 111.157775,111.059809 C87.2127756,113.872625 71.467776,117.395553 64.6327762,100.794413 C56.1027764,80.0707564 77.7977758,72.2164238 88.8394422,75.0905801 C83.3177757,76.494225 70.6194427,85.5007621 78.8272203,96.7989982 C87.6827756,108.99413 104.436664,99.9925666 109.264997,87.9991395 C109.264997,87.9991395 110.188331,99.21172 106.984997,104.990979 C107.998886,104.93406 109.022219,104.878245 110.046664,104.799774 C134.492774,101.987511 165.877774,99.8770698 196.327773,135.452836 C173.338329,153.166392 146.636107,166.525886 110.163331,163.374317 Z" id="path22" fill="#1A719E"></path>
                        <path d="M108.273331,160.674235 C108.273331,160.674235 90.1088866,181.826168 67.0522205,182.314681 C67.0522205,182.314681 90.7894422,178.077773 100.969442,159.344088 C84.826109,156.533482 67.9638872,150.425969 53.9233875,140.034024 C105.958886,168.37715 154.676663,155.35862 154.676663,155.35862 C140.638885,163.810331 108.273331,160.674235 108.273331,160.674235" id="path24" fill="#73B3C9"></path>
                    </g>
                </g>
            </g>
        </g>
    </g>
</svg>