<?xml version="1.0" encoding="UTF-8"?>
<svg width="200px" height="200px" viewBox="0 0 200 200" version="1.1" xmlns="http://www.w3.org/2000/svg" xmlns:xlink="http://www.w3.org/1999/xlink">
    <!-- Generator: Sketch 51.3 (57544) - http://www.bohemiancoding.com/sketch -->
    <title>hendrix</title>
    <desc>Created with Sketch.</desc>
    <defs></defs>
    <g id="hendrix" stroke="none" stroke-width="1" fill="none" fill-rule="evenodd">
        <g id="hendrix_BGL">
            <g id="hendrix" transform="translate(0.000000, 10.000000)">
                <path d="M25.2697769,0.107505071 C26.0365112,0.0405679513 26.8174442,0.0872210953 27.5862069,0.0791075051 C76.2677485,0.0791075051 124.94929,0.0791075051 173.630832,0.0791075051 C174.056795,0.0791075051 174.482759,0.0831643002 174.908722,0.0892494929 C174.902637,12.7707911 174.908722,25.4523327 174.906694,38.1338742 C174.904665,39.158215 174.945233,40.1622718 174.837728,41.1825558 C173.537525,39.9736308 172.158215,38.8438134 170.711968,37.8133874 C170.705882,26.5375254 170.730223,15.2596349 170.699797,3.98174442 C124.551724,3.98782961 78.3995943,3.98377282 32.2515213,3.98580122 C31.1501014,3.98985801 30.0486815,3.96348884 28.9472617,4.00608519 C28.9188641,4.4969574 28.9127789,4.98580122 28.9127789,5.47667343 C28.9269777,16.3711968 28.9026369,27.2697769 28.9249493,38.1643002 L29.2231237,38.0243408 C28.296146,38.5233266 27.3651116,39.0162272 26.4361055,39.5091278 C26.4381339,42.6227181 26.4137931,45.7363083 26.4482759,48.8498986 C27.2576065,48.2271805 28.0933063,47.643002 28.9269777,47.0567951 C28.7099391,49.0263692 28.3022312,50.9776876 28.0081136,52.9371197 C27.7281947,54.8762677 27.3407708,56.7991886 27.0020284,58.7302231 C26.3387424,56.474645 25.6612576,54.2251521 24.9675456,51.979716 L25.2352941,52.1947262 C25.2636917,35.6815416 25.2373225,19.1541582 25.2474645,2.63691684 C25.2596349,1.79513185 25.2068966,0.947261663 25.2697769,0.107505071 Z" id="Shape" fill="#FE6307" fill-rule="nonzero"></path>
                <path d="M28.9472617,4.00608519 C30.0486815,3.96348884 31.1501014,3.98985801 32.2515213,3.98580122 C78.3995943,3.98377282 124.551724,3.98782961 170.699797,3.98174442 C170.730223,15.2596349 170.705882,26.5375254 170.711968,37.8133874 C169.371197,36.831643 167.924949,36.0324544 166.462475,35.2494929 C166.490872,26.2393509 166.472617,17.2271805 166.470588,8.21501014 C122.756592,8.20689655 79.010142,8.21501014 35.2941176,8.21095335 C34.5862069,8.21095335 33.8762677,8.19675456 33.168357,8.22920892 C33.127789,15.6855984 33.1622718,23.168357 33.1521298,30.6288032 C33.1643002,32.326572 33.1217039,34.0243408 33.1805274,35.7200811 C31.8843813,36.5233266 30.5801217,37.3245436 29.2231237,38.0243408 L28.9249493,38.1643002 C28.9026369,27.2697769 28.9269777,16.3711968 28.9127789,5.47667343 C28.9127789,4.98580122 28.9188641,4.4969574 28.9472617,4.00608519 Z" id="Shape" fill="#FFFFFF" fill-rule="nonzero"></path>
                <path d="M33.168357,8.22920892 C33.8762677,8.19675456 34.5862069,8.21095335 35.2941176,8.21095335 C79.010142,8.21501014 122.756592,8.20689655 166.470588,8.21501014 C166.472617,17.2271805 166.490872,26.2393509 166.462475,35.2494929 C164.780933,34.3975659 163.15213,33.4503043 161.470588,32.5943205 C159.283976,31.4198783 157.212982,30.030426 155.058824,28.7991886 C155.036511,29.9675456 155.044625,31.1359026 155.040568,32.306288 C152.154158,28.5476673 148.365112,25.5557809 143.920892,23.8661258 C141.438134,23.040568 138.6714,22.5963489 136.070994,23.0344828 C133.72211,23.3610548 131.511156,24.3651116 129.669371,25.8539554 C129.456389,23.9634888 129.614604,22.0365112 129.567951,20.1359026 C123.239351,19.4036511 116.993915,18.2129817 110.726166,17.0993915 C110.689655,18.9634888 110.73428,20.8255578 110.69574,22.6896552 C109.178499,20.5760649 106.993915,19.1622718 104.572008,18.2860041 C102.160243,17.4056795 99.7058824,17.1176471 97.1602434,16.9574037 C95.8681542,16.8904665 94.5902637,16.9675456 93.306288,17.1176471 C89.5375254,17.4056795 85.7444219,17.9411765 81.9655172,17.9634888 C81.821501,19.703854 81.9432049,21.4604462 81.8843813,23.2068966 C80.178499,21.6064909 77.9634888,20.7931034 75.663286,20.5578093 C73.2596349,20.2494929 70.7403651,20.5740365 68.3691684,21.0243408 C65.3123732,21.6389452 62.2535497,22.9290061 59.2454361,23.8356998 C57.7200811,24.2941176 56.2109533,24.7910751 54.7099391,25.3245436 C54.7119675,27.8255578 54.7058824,30.326572 54.7119675,32.8296146 C56.0608519,32.5070994 57.3691684,32.0770791 58.7079108,31.7099391 C58.7363083,37.030426 58.6795132,42.3488844 58.7545639,47.6673428 C58.7342799,50.9087221 58.8032454,54.1541582 58.7119675,57.3914807 C57.4158215,53.8580122 56.010142,50.3610548 54.6612576,46.8478702 C52.1906694,40.5699797 49.8965517,34.2008114 47.3103448,27.969574 C45.7606491,28.5801217 44.2738337,29.3488844 42.7423935,30.0060852 C42.2900609,30.2555781 41.7403651,30.3387424 41.6450304,30.9310345 C41.3083164,32.3529412 40.8884381,33.7829615 40.7302231,35.2373225 C40.4462475,33.7261663 40.525355,32.2231237 40.5131846,30.6957404 C38.0709939,32.3691684 35.6896552,34.148073 33.1805274,35.7200811 C33.1217039,34.0243408 33.1643002,32.326572 33.1521298,30.6288032 C33.1622718,23.168357 33.127789,15.6855984 33.168357,8.22920892 Z" id="Shape" fill="#FE6307" fill-rule="nonzero"></path>
                <path d="M93.306288,17.1176471 C94.5902637,16.9675456 95.8681542,16.8904665 97.1602434,16.9574037 C99.7058824,17.1176471 102.160243,17.4056795 104.572008,18.2860041 C106.993915,19.1622718 109.178499,20.5760649 110.69574,22.6896552 C110.73428,20.8255578 110.689655,18.9634888 110.726166,17.0993915 C116.993915,18.2129817 123.239351,19.4036511 129.567951,20.1359026 C129.614604,22.0365112 129.456389,23.9634888 129.669371,25.8539554 C131.511156,24.3651116 133.72211,23.3610548 136.070994,23.0344828 C138.6714,22.5963489 141.438134,23.040568 143.920892,23.8661258 C148.365112,25.5557809 152.154158,28.5476673 155.040568,32.306288 C155.044625,31.1359026 155.036511,29.9675456 155.058824,28.7991886 C157.212982,30.030426 159.283976,31.4198783 161.470588,32.5943205 C163.15213,33.4503043 164.780933,34.3975659 166.462475,35.2494929 C167.924949,36.0324544 169.371197,36.831643 170.711968,37.8133874 C172.158215,38.8438134 173.537525,39.9736308 174.837728,41.1825558 C177.59432,43.8600406 179.8357,46.9959432 181.034483,50.6754564 C182.606491,49.5111562 184.486815,49.127789 186.401623,49.525355 C188.517241,49.9614604 190.403651,51.198783 191.943205,52.6795132 C194.659229,55.3590264 196.616633,58.5375254 198.673428,61.7160243 C198.608519,63.3346856 198.314402,64.9148073 198.296146,66.535497 C198.261663,68.0243408 198.097363,69.5030426 198.083164,70.9918864 C198.066937,72.7018256 197.96146,74.4036511 197.896552,76.1115619 C197.133874,75.4117647 196.397566,74.6855984 195.63286,73.989858 C198.085193,77.188641 199.697769,80.9371197 199.924949,84.9918864 C200.020284,87.6369168 199.989858,90.1744422 198.955375,92.6612576 C198.271805,94.2555781 197.15213,95.6186613 195.551724,96.346856 C194.077079,97.0344828 192.476673,97.0385396 190.912779,96.6876268 C191.241379,97.2271805 191.649087,97.8052738 191.823529,98.4158215 C192.137931,99.4462475 191.774848,100.618661 191.016227,101.365112 C189.985801,102.438134 188.054767,102.501014 186.941176,101.525355 C186.024341,100.752535 185.210953,99.851927 184.413793,98.9574037 C179.667343,93.3894523 176.436105,86.8803245 173.892495,80.0649087 C173.395538,78.6450304 172.762677,77.2799189 172.322515,75.841785 C172.223124,78.3630832 172.310345,80.8884381 172.26572,83.4097363 C171.279919,82.821501 170.383367,82.1217039 169.446247,81.4584178 C168.324544,80.6612576 167.223124,79.821501 166.06288,79.0831643 C162.507099,76.8174442 158.742394,74.9492901 154.870183,73.2900609 C154.862069,71.2109533 154.884381,69.1318458 154.862069,67.0527383 C154.048682,67.5517241 153.302231,68.0649087 152.432049,68.4624746 C150.046653,69.5557809 147.318458,69.9026369 144.730223,69.484787 C142.965517,69.2454361 141.363083,68.663286 139.697769,68.0649087 C135.63286,66.5496957 132.180527,63.841785 129.511156,60.4462475 C129.478702,61.7951318 129.498986,63.1440162 129.488844,64.4929006 C126.993915,63.9168357 124.547667,63.0770791 122.032454,62.5720081 C122.878296,63.4219067 123.811359,64.1643002 124.732252,64.9290061 C125.51927,65.5801217 125.916836,66.535497 125.823529,67.5537525 C125.724138,68.8174442 124.752535,69.9229209 123.523327,70.2129817 C122.539554,70.4685598 121.543611,70.0953347 120.606491,69.8174442 C114.3286,67.7281947 109.139959,62.9756592 105.62069,57.464503 C102.74645,52.7870183 99.8377282,48.127789 96.9006085,43.4888438 C96.8701826,45.4908722 96.8924949,47.4908722 96.8864097,49.4929006 C96.8884381,50.6896552 96.8640974,51.8762677 97.0324544,53.0669371 C98.3914807,53.0628803 99.7525355,53.0649087 101.111562,53.0608519 C101.129817,55.6288032 101.115619,58.1947262 101.117647,60.7606491 C100.200811,60.7444219 99.296146,60.6916836 98.3833671,60.6064909 C96.6551724,60.505071 94.9148073,60.4969574 93.1866126,60.5963489 C94.6572008,61.7809331 96.2778905,62.6653144 97.9229209,63.5720081 C97.9046653,64.484787 98.0141988,65.4482759 97.8377282,66.3448276 C97.3995943,67.7687627 95.9736308,68.5638945 94.5233266,68.4442191 C89.1156187,68.2190669 83.9452333,65.643002 80.2028398,61.7849899 C78.8864097,60.494929 77.7951318,59.0283976 76.7505071,57.515213 C74.2616633,54.0507099 71.8235294,50.5476673 69.3184584,47.0953347 C69.2941176,50.3286004 69.2819473,53.5659229 69.3245436,56.7991886 C70.6977688,56.3833671 72.0040568,55.7890467 73.3691684,55.3427992 C73.3914807,58.1156187 73.3914807,60.8965517 73.3691684,63.6693712 C70.5070994,64.1703854 67.663286,64.7241379 64.872211,65.5456389 C63.1602434,66.0567951 61.356998,66.3711968 59.6855984,66.9979716 C58.5436105,67.4726166 57.4381339,68.0283976 56.2839757,68.4685598 C52.8255578,69.7971602 49.494929,71.5821501 46.1622718,73.2048682 C46.1318458,70.4178499 46.158215,67.6288032 46.148073,64.841785 C47.3002028,64.2555781 48.4766734,63.7241379 49.6085193,63.0933063 C49.1602434,61.9553753 48.7464503,60.8052738 48.3002028,59.6653144 C45.811359,60.6409736 43.4989858,61.9269777 41.0993915,63.0872211 C40.5882353,64.7099391 40.1419878,66.3955375 39.7789047,68.0608519 C40.6186613,67.7829615 41.4563895,67.494929 42.2920892,67.2008114 C42.3022312,69.8174442 42.31643,72.4340771 42.2860041,75.0507099 C39.3955375,76.2474645 36.4077079,77.5578093 33.851927,79.3833671 C32.63286,80.1906694 31.4807302,81.1034483 30.3042596,81.9736308 C29.2129817,82.811359 28.0689655,83.5902637 27.0141988,84.4705882 C26.2210953,85.168357 25.4665314,85.9087221 24.6997972,86.6308316 C23.8255578,83.6511156 23,80.6572008 22.0851927,77.6896552 C21.3488844,74.8296146 20.4239351,72.0223124 19.6166329,69.1866126 C18.6511156,73.2839757 17.8803245,77.4401623 16.9634888,81.5496957 C16.1399594,85.5456389 15.2515213,89.5517241 14.7302231,93.6004057 C13.3346856,94.3772819 12.296146,95.4563895 11.148073,96.5436105 C10.2028398,97.4624746 9.21095335,98.3306288 8.27383367,99.2555781 C7.55780933,95.5922921 6.90669371,91.9188641 6.3306288,88.2292089 C5.26774848,81.535497 4.06288032,74.8600406 3.07302231,68.1541582 C2.05476673,68.9127789 1.06085193,69.7058824 0.0567951318,70.4807302 C0.0750507099,67.4320487 0.0162271805,64.3488844 0.0831643002,61.306288 C0.553752535,60.7809331 1.15010142,60.3549696 1.67748479,59.8884381 C6.06085193,56.1054767 10.1967546,51.8235294 14.2413793,47.7261663 C14.2920892,51.2454361 14.148073,54.7809331 14.326572,58.296146 C14.4462475,56.4563895 14.9736308,54.7545639 15.3042596,52.9533469 C15.6876268,51.1257606 16.040568,49.2941176 16.4523327,47.474645 C16.5801217,46.9878296 16.5882353,46.5375254 16.9918864,46.1866126 C17.8032454,45.4401623 18.703854,44.7221095 19.7160243,44.2677485 C20.7870183,43.7789047 21.811359,43.2454361 22.8985801,42.811359 C23.2231237,44.7789047 23.515213,46.7809331 24.0851927,48.6957404 C24.3935091,49.7890467 24.6004057,50.9026369 24.9675456,51.979716 C25.6612576,54.2251521 26.3387424,56.474645 27.0020284,58.7302231 C27.3407708,56.7991886 27.7281947,54.8762677 28.0081136,52.9371197 C28.3022312,50.9776876 28.7099391,49.0263692 28.9269777,47.0567951 C28.0933063,47.643002 27.2576065,48.2271805 26.4482759,48.8498986 C26.4137931,45.7363083 26.4381339,42.6227181 26.4361055,39.5091278 C27.3651116,39.0162272 28.296146,38.5233266 29.2231237,38.0243408 C30.5801217,37.3245436 31.8843813,36.5233266 33.1805274,35.7200811 C35.6896552,34.148073 38.0709939,32.3691684 40.5131846,30.6957404 C40.525355,32.2231237 40.4462475,33.7261663 40.7302231,35.2373225 C40.8884381,33.7829615 41.3083164,32.3529412 41.6450304,30.9310345 C41.7403651,30.3387424 42.2900609,30.2555781 42.7423935,30.0060852 C44.2738337,29.3488844 45.7606491,28.5801217 47.3103448,27.969574 C49.8965517,34.2008114 52.1906694,40.5699797 54.6612576,46.8478702 C56.010142,50.3610548 57.4158215,53.8580122 58.7119675,57.3914807 C58.8032454,54.1541582 58.7342799,50.9087221 58.7545639,47.6673428 C58.6795132,42.3488844 58.7363083,37.030426 58.7079108,31.7099391 C57.3691684,32.0770791 56.0608519,32.5070994 54.7119675,32.8296146 C54.7058824,30.326572 54.7119675,27.8255578 54.7099391,25.3245436 C56.2109533,24.7910751 57.7200811,24.2941176 59.2454361,23.8356998 C62.2535497,22.9290061 65.3123732,21.6389452 68.3691684,21.0243408 C70.7403651,20.5740365 73.2596349,20.2494929 75.663286,20.5578093 C77.9634888,20.7931034 80.178499,21.6064909 81.8843813,23.2068966 C81.9432049,21.4604462 81.821501,19.703854 81.9655172,17.9634888 C85.7444219,17.9411765 89.5375254,17.4056795 93.306288,17.1176471 Z" id="Shape" fill="#000000" fill-rule="nonzero"></path>
                <path d="M95.3387424,18.0182556 C96.7484787,17.9269777 98.1866126,18.0993915 99.5922921,18.2210953 C102.567951,18.5578093 105.819473,19.4908722 108.117647,21.4929006 C110.042596,23.1257606 111.180527,25.494929 111.450304,27.9878296 C111.602434,29.8174442 111.496957,31.6348884 110.827586,33.3610548 C109.855984,35.9756592 107.843813,37.9168357 105.409736,39.2008114 C108.249493,44.494929 111.042596,49.8701826 114.310345,54.9127789 C114.985801,54.9310345 115.663286,54.9310345 116.338742,54.9168357 C116.515213,50.3427992 116.290061,45.7505071 116.464503,41.1764706 C116.515213,37.0527383 116.476673,32.9269777 116.488844,28.8032454 C116.470588,27.3123732 116.567951,25.8661258 116.3286,24.3853955 C115.060852,23.8438134 113.574037,23.6754564 112.21501,23.3975659 C112.21501,21.7464503 112.206897,20.0933063 112.221095,18.4421907 C117.588235,19.3651116 122.902637,20.4178499 128.322515,21.0162272 C128.326572,22.6653144 128.3286,24.3123732 128.320487,25.959432 C126.93712,25.8296146 125.565923,25.6064909 124.178499,25.5091278 C124.105477,26.1359026 124.077079,26.7525355 124.085193,27.3833671 C124.103448,29.7505071 124.066937,32.1156187 124.040568,34.4827586 C124.040568,40.8377282 124.044625,47.1947262 124.03854,53.5496957 C124.046653,54.2799189 123.985801,55.0527383 124.133874,55.7707911 C124.200811,56.1298174 124.630832,56.2535497 124.918864,56.4016227 C125.985801,56.8174442 127.131846,57.0466531 128.231237,57.36714 C128.227181,59.0527383 128.231237,60.7363083 128.229209,62.4219067 C125.018256,61.5578093 121.701826,60.5517241 118.292089,60.2434077 C119.902637,62.0750507 121.608519,63.8052738 123.525355,65.3225152 C124.068966,65.7748479 124.56998,66.1460446 124.51927,66.9350913 C124.600406,67.9188641 123.681542,68.7281947 122.72211,68.6064909 C121.448276,68.3995943 120.206897,67.9046653 119.026369,67.3935091 C113.84787,65.0263692 109.72211,60.9634888 106.709939,56.1805274 C103.073022,50.2170385 99.306288,44.3306288 95.6288032,38.3935091 C95.6064909,42.4320487 95.6206897,46.474645 95.6206897,50.515213 C95.6693712,51.7464503 95.5517241,52.851927 96.0628803,54.0121704 C97.3387424,54.2089249 98.5618661,54.1115619 99.8498986,54.1318458 C99.851927,55.7545639 99.851927,57.3752535 99.851927,58.9979716 C96.494929,58.7849899 93.1926978,58.8052738 89.8478702,59.1703854 C91.9006085,61.1176471 94.1663286,62.7890467 96.6876268,64.0831643 C96.6653144,64.7464503 96.8296146,65.5983773 96.3509128,66.1257606 C95.9533469,66.63286 95.3488844,66.8093306 94.7261663,66.7768763 C91.8438134,66.6551724 88.9858012,65.8154158 86.4523327,64.4442191 C83.3711968,62.7829615 80.7890467,60.3894523 78.7565923,57.5496957 C75.1805274,52.5091278 71.5882353,47.4787018 68.0182556,42.4320487 C67.9939148,46.2738337 68.010142,50.1156187 68.0081136,53.9553753 C68.0567951,55.3914807 67.959432,56.7099391 68.2860041,58.1135903 C69.7241379,58.0283976 70.8600406,57.3651116 72.1318458,56.7768763 C72.1521298,58.5821501 72.1257606,60.3874239 72.1460446,62.1906694 C67.703854,62.979716 63.346856,64.158215 59.0791075,65.6146045 C57.306288,66.2312373 55.5699797,66.7931034 53.9046653,67.6774848 C51.7728195,68.6308316 49.6795132,69.653144 47.5983773,70.7139959 C47.5882353,68.9391481 47.6024341,67.1643002 47.5902637,65.3894523 C48.6186613,64.8356998 49.7829615,64.4077079 50.7119675,63.6997972 C50.8884381,63.5334686 51.1967546,63.3407708 51.2129817,63.0831643 C51.0851927,62.3326572 50.6815416,61.6227181 50.4361055,60.9006085 C50.0283976,59.7423935 49.5334686,58.6186613 49.137931,57.4543611 C46.989858,58.4868154 44.7829615,59.3833671 42.6774848,60.5070994 C41.8052738,60.9939148 40.8255578,61.3509128 40.0081136,61.9188641 C39.7768763,62.4097363 39.6815416,62.9776876 39.5334686,63.4989858 C38.9776876,65.6186613 38.3691684,67.7322515 37.9168357,69.8782961 C38.9452333,69.4705882 39.9979716,69.1501014 41.0466531,68.7971602 C41.0466531,70.4705882 41.0547667,72.1440162 41.040568,73.8194726 C39.2758621,74.5233266 37.5862069,75.3691684 35.8803245,76.2434077 C33.6916836,77.4381339 31.6085193,79.0365112 29.6186613,80.535497 C28.8782961,81.0993915 28.030426,81.4665314 27.3184584,82.0791075 C26.6855984,82.6267748 26.0993915,83.2271805 25.4908722,83.7991886 C24.6470588,80.8194726 23.7139959,77.8681542 22.9107505,74.8782961 C21.801217,71.0344828 20.5679513,67.2292089 19.4381339,63.3914807 C18.2981744,68.5436105 17.2474645,73.7180527 16.1643002,78.8823529 C15.1622718,83.3995943 14.2636917,87.8762677 13.4989858,92.4381339 C11.959432,93.5740365 10.6511156,94.9107505 9.2515213,96.2109533 C8.27586207,91.3427992 7.60243408,86.4137931 6.75862069,81.5233266 C6.25963489,78.6247465 5.78498986,75.7221095 5.32454361,72.8174442 C4.88032454,70.3326572 4.57809331,67.8194726 4.11561866,65.3387424 C3.26369168,66.0324544 2.38133874,66.6896552 1.52738337,67.3793103 C1.50507099,65.4503043 1.52129817,63.5212982 1.51521298,61.5922921 C5.56186613,58.2089249 9.2535497,54.515213 12.9350913,50.7464503 C12.9371197,52.8924949 12.9533469,55.0385396 12.9290061,57.1845842 C12.1217039,57.8073022 11.2393509,58.5030426 10.68357,59.3651116 C10.3975659,59.8073022 10.2494929,60.326572 10.306288,60.8539554 C10.8985801,65.2454361 11.6815416,69.6004057 12.3752535,73.9756592 C12.6592292,72.4503043 12.9979716,70.9371197 13.3448276,69.4259635 C14.9574037,61.9249493 16.3711968,54.3995943 17.9959432,46.9006085 C19.1237323,45.7586207 20.4787018,45.1075051 21.9269777,44.474645 C22.2373225,46.6855984 22.8762677,48.8032454 23.4178499,50.9614604 C24.7687627,55.4523327 26.1440162,59.9371197 27.4300203,64.4462475 C28.0709939,61.178499 28.5578093,57.8803245 29.1724138,54.6064909 C29.7707911,50.969574 30.3184584,47.3225152 30.9574037,43.693712 C29.9148073,44.4077079 28.8884381,45.148073 27.8681542,45.8924949 C27.8478702,43.9411765 27.8580122,41.9878296 27.862069,40.0365112 C29.6348884,39.1237323 31.3894523,38.178499 33.0892495,37.1338742 C35.2373225,35.8661258 37.2150101,34.4097363 39.2616633,32.9939148 C39.2636917,34.8843813 39.2697769,36.7768763 39.2616633,38.6693712 C38.6064909,39.1460446 37.8539554,39.5517241 37.2778905,40.1237323 C36.9330629,40.6227181 36.8458418,41.3286004 36.703854,41.9087221 C35.4888438,48.2555781 34.2941176,54.6044625 33.0953347,60.9533469 C32.306288,65.2312373 31.4361055,69.4908722 30.7423935,73.7849899 C31.8864097,72.7910751 31.9756592,71.2474645 32.4178499,69.8823529 C34.8255578,61.7119675 36.8559838,53.4442191 39.3022312,45.2860041 C40.6024341,40.6024341 41.9350913,35.9107505 42.9878296,31.1643002 C44.1906694,30.5517241 45.4421907,30.0385396 46.6612576,29.4584178 C47.5294118,31.6348884 48.4077079,33.8073022 49.2332657,36 C51.8580122,42.9452333 54.5821501,49.851927 57.2413793,56.7849899 C57.8377282,58.2454361 58.0973631,59.6612576 59.2170385,60.8356998 C59.5436105,60.5375254 59.9107505,60.3103448 60.0385396,59.8640974 C60.2190669,59.2799189 60.2089249,58.6206897 60.2190669,58.0121704 C60.2109533,54.4279919 60.2271805,50.8438134 60.2129817,47.2596349 C60.0831643,41.3995943 60.2434077,35.5273834 60.1176471,29.6693712 C58.7626775,29.9350913 57.464503,30.36714 56.1399594,30.7444219 C56.1359026,29.1703854 56.148073,27.5963489 56.1318458,26.0243408 C57.8194726,25.3651116 59.5456389,24.9249493 61.2555781,24.3488844 C63.2778905,23.6815416 65.3022312,22.9229209 67.3590264,22.3732252 C69.5476673,21.8235294 71.7748479,21.4827586 74.0365112,21.5314402 C76.1663286,21.515213 78.3042596,21.9432049 80.0933063,23.1440162 C81.68357,24.1967546 82.7403651,25.8762677 83.1825558,27.7160243 C83.7687627,30.158215 83.5395538,32.8052738 82.5943205,35.1298174 C81.5618661,37.6957404 79.6693712,39.8458418 77.4462475,41.4584178 C78.0669371,42.6227181 78.8032454,43.7261663 79.4766734,44.862069 C81.5740365,48.2839757 83.6795132,51.801217 86.1541582,54.9634888 C86.5922921,54.7626775 87.2474645,54.6916836 87.4056795,54.158215 C87.5679513,53.6490872 87.5760649,53.0730223 87.5841785,52.5415822 C87.5801217,44.020284 87.5841785,35.4989858 87.5821501,26.9776876 C87.5760649,25.8600406 87.6227181,24.7565923 87.4969574,23.643002 C86.0993915,23.5030426 84.7281947,23.6855984 83.3326572,23.6754564 C83.3427992,22.1115619 83.3346856,20.5456389 83.3387424,18.9817444 C84.4320487,18.9452333 85.5233266,18.9229209 86.6125761,18.8093306 C89.5131846,18.5273834 92.4340771,18.2576065 95.3387424,18.0182556 Z" id="Shape" fill="#FFFFFF" fill-rule="nonzero"></path>
                <path d="M97.7687627,19.3407708 C100.843813,19.5375254 104.210953,20.1967546 106.740365,22.0608519 C108.557809,23.3874239 109.73428,25.3346856 110.127789,27.5456389 C110.46856,29.7647059 110.330629,32.0182556 109.281947,34.0385396 C108.103448,36.356998 106.068966,37.872211 103.73428,38.9107505 C106.975659,44.693712 109.892495,50.5740365 113.555781,56.1217039 C114.572008,56.2434077 115.74645,56.3793103 116.736308,56.0588235 C117.156187,55.8985801 117.243408,55.5395538 117.314402,55.137931 C117.399594,54.4807302 117.403651,53.8073022 117.407708,53.1440162 C117.403651,49.5598377 117.40568,45.9776876 117.407708,42.3935091 C117.555781,37.8661258 117.454361,33.3326572 117.484787,28.8032454 C117.470588,27.4158215 117.549696,25.9452333 117.322515,24.5760649 C117.233266,24.020284 116.855984,23.6206897 116.344828,23.4137931 C115.361055,23.020284 114.243408,22.8600406 113.206897,22.6470588 C113.210953,21.7363083 113.206897,20.8255578 113.212982,19.9148073 C117.8357,20.7626775 122.460446,21.5720081 127.119675,22.1906694 C127.11359,23.0973631 127.117647,24.0040568 127.115619,24.9107505 C125.983773,24.7667343 124.703854,24.5091278 123.56998,24.6713996 C123.294118,24.7119675 123.119675,24.9432049 123.052738,25.198783 C122.789047,26.2738337 122.878296,27.494929 122.872211,28.6004057 C122.778905,36.7789047 122.841785,44.9655172 122.815416,53.1460446 C122.805274,54.0223124 122.760649,54.9290061 122.872211,55.801217 C122.975659,56.3853955 123.129817,56.9330629 123.681542,57.2474645 C124.68357,57.8255578 125.916836,58.0649087 127.018256,58.3935091 C127.018256,59.3103448 127.020284,60.2271805 127.018256,61.1440162 C123.271805,60.1054767 119.590264,59.2292089 115.679513,59.0628803 C117.699797,61.6713996 119.908722,64.0872211 122.484787,66.1602434 C122.74645,66.3732252 123.022312,66.5882353 123.247465,66.8397566 C123.401623,67.2535497 123.263692,67.7160243 122.742394,67.6795132 C121.748479,67.5294118 120.772819,67.137931 119.841785,66.7647059 C114.348884,64.4300203 109.985801,59.959432 106.981744,54.8742394 C103.359026,48.9776876 99.6572008,43.127789 95.9776876,37.2636917 C99.1399594,37.4320487 102.35497,35.9371197 103.89858,33.1095335 C104.79716,31.4766734 104.752535,29.6288032 104.484787,27.8336714 C104.148073,25.9472617 103.115619,24.2576065 101.387424,23.3549696 C99.1075051,22.168357 96.8377282,22.3509128 94.3651116,22.4665314 C94.3488844,24.5111562 94.3833671,26.5537525 94.4117647,28.5983773 C94.4259635,36.306288 94.3975659,44.0162272 94.4239351,51.7241379 C94.464503,52.6896552 94.4563895,54.1825558 95.2150101,54.8924949 C96.0709939,55.5862069 97.6125761,55.3995943 98.6490872,55.4300203 C98.6470588,56.2799189 98.6470588,57.1318458 98.6490872,57.9817444 C94.8884381,57.7707911 91.127789,58 87.3995943,58.5131846 C89.7200811,61.0446247 92.4584178,63.3225152 95.5091278,64.9188641 C95.4462475,65.3752535 95.505071,65.8052738 94.9006085,65.8255578 C92.8174442,65.8478702 90.693712,65.306288 88.7647059,64.5395538 C85.0223124,63.030426 81.9269777,60.3772819 79.5740365,57.127789 C75.8255578,51.8539554 72.0750507,46.5841785 68.3306288,41.3083164 C71.6774848,40.6166329 74.6896552,38.2312373 76.0649087,35.0933063 C76.9208925,33.1014199 76.8965517,30.8823529 76.2008114,28.8478702 C75.6997972,27.494929 74.6105477,26.5010142 73.1967546,26.1805274 C70.9472617,25.7058824 68.7951318,26.31643 66.6916836,27.0791075 C66.7119675,31.1014199 66.693712,35.1257606 66.6997972,39.148073 C66.7079108,39.8924949 66.7931034,40.63286 66.7849899,41.3793103 C66.8296146,45.959432 66.7829615,50.5395538 66.8093306,55.1196755 C66.8377282,56.2434077 66.7890467,57.5436105 67.1501014,58.6166329 C67.2981744,59.0283976 67.5111562,59.2150101 67.9432049,59.3083164 C68.9350913,59.4158215 70.0060852,59.127789 70.8985801,58.6957404 C70.8985801,59.6227181 70.9006085,60.5517241 70.8924949,61.4787018 C68.8458418,61.8174442 66.8194726,62.3002028 64.8174442,62.8458418 C62.494929,63.5436105 60.2129817,64.1156187 57.9634888,65.0446247 C54.7444219,66.1967546 51.6064909,67.5395538 48.5720081,69.1135903 C48.5638945,68.1561866 48.5679513,67.2008114 48.5638945,66.2434077 C49.7180527,65.68357 51.1135903,65.1095335 51.9371197,64.0892495 C52.3630832,63.4888438 52.1906694,62.8661258 51.9655172,62.2312373 C51.158215,60.2271805 50.4198783,58.1967546 49.6490872,56.178499 C48.3184584,56.68357 47.0567951,57.3630832 45.7464503,57.9208925 C43.6713996,58.8194726 41.68357,59.9188641 39.6450304,60.9087221 C39.3732252,61.0750507 38.9026369,61.2190669 38.8498986,61.5740365 C38.2413793,63.7626775 37.6551724,65.9634888 37.1034483,68.1663286 C36.8174442,69.36714 36.4929006,70.494929 36.4117647,71.7221095 C37.5922921,71.4361055 38.6490872,70.8498986 39.811359,70.4868154 C39.8133874,71.4077079 39.811359,72.3306288 39.811359,73.2515213 C38.4989858,73.8154158 37.2170385,74.4361055 35.9432049,75.0851927 C33.7383367,76.1602434 31.7342799,77.6774848 29.7687627,79.1115619 C29.7586207,78.127789 29.7707911,77.1440162 29.7565923,76.1602434 C30.5030426,75.4462475 31.4016227,74.8336714 32.0507099,74.030426 C32.6815416,73.1561866 32.9229209,71.9229209 33.2129817,70.8965517 C33.7829615,68.9087221 34.3245436,66.9107505 34.9269777,64.9330629 C36.6105477,58.7626775 38.2271805,52.5659229 40.0486815,46.4361055 C41.4300203,41.6592292 42.6855984,36.851927 43.8924949,32.030426 C44.5801217,31.7423935 45.2596349,31.4381339 45.9290061,31.1115619 C47.2008114,34.0993915 48.2778905,37.1419878 49.4685598,40.158215 C51.6977688,46.0933063 54.0649087,51.9756592 56.306288,57.9066937 C56.7687627,59.1561866 57.1947262,60.5740365 58.1176471,61.5679513 C58.5172414,62.0283976 59.0912779,62.0283976 59.6490872,61.9208925 C60.3123732,61.5922921 60.8377282,60.9411765 61.0162272,60.2210953 C61.2271805,59.4584178 61.2170385,58.5963489 61.2210953,57.8093306 C61.2068966,53.3448276 61.2535497,48.8884381 61.1643002,44.4259635 C61.1622718,40.6389452 61.1643002,36.8498986 61.1622718,33.0628803 C61.148073,31.6511156 61.2596349,30.2941176 60.9127789,28.9066937 C59.7707911,28.4624746 58.296146,29.1906694 57.1399594,29.4178499 C57.137931,28.5943205 57.137931,27.7707911 57.1399594,26.9472617 C58.9432049,26.3427992 60.7748479,25.831643 62.5679513,25.198783 C64.7768763,24.4584178 67.0933063,23.5862069 69.3894523,23.2048682 C70.7931034,22.9513185 72.2008114,22.7626775 73.6308316,22.7870183 C75.7139959,22.7444219 78.0811359,23.1724138 79.7444219,24.5111562 C81.0953347,25.5760649 81.8559838,27.1318458 82.1359026,28.8052738 C82.4503043,30.8377282 82.2616633,32.9391481 81.4726166,34.8458418 C80.36714,37.6004057 78.2819473,39.7079108 75.8438134,41.3306288 C76.4198783,42.3853955 77.0831643,43.3853955 77.6997972,44.4198783 C80.1440162,48.4279919 82.6389452,52.6348884 85.5496957,56.3144016 C86.3509128,56.1419878 87.4219067,55.9858012 87.9837728,55.3326572 C88.525355,54.6653144 88.5699797,53.5720081 88.5841785,52.7444219 C88.5780933,43.4219067 88.5902637,34.0770791 88.5780933,24.7565923 C88.5415822,24.1622718 88.5172414,23.1359026 87.8681542,22.8681542 C86.7951318,22.4827586 85.4726166,22.7018256 84.3448276,22.68357 C84.3448276,21.8580122 84.346856,21.0344828 84.3448276,20.2089249 C85.851927,20.1764706 87.3427992,20.010142 88.8397566,19.8559838 C91.8458418,19.6470588 94.7403651,19.1460446 97.7687627,19.3407708 Z" id="Shape" fill="#000000" fill-rule="nonzero"></path>
                <path d="M95.5618661,23.3002028 C97.6004057,23.2738337 99.7505071,23.2697769 101.498986,24.4766734 C102.819473,25.3995943 103.415822,26.8559838 103.59432,28.4137931 C103.813387,29.8458418 103.687627,31.2941176 102.96146,32.5699797 C101.993915,34.2454361 100.249493,35.3651116 98.3935091,35.8073022 C97.4685598,36.0324544 96.5679513,35.9776876 95.6166329,35.989858 C95.6288032,31.7586207 95.6146045,27.5314402 95.5618661,23.3002028 Z" id="Shape" fill="#000000" fill-rule="nonzero"></path>
                <path d="M137.924949,23.9553753 C140.868154,23.8661258 143.744422,24.663286 146.294118,26.1156187 C149.261663,27.7444219 151.862069,30.010142 153.918864,32.6977688 C157.41785,37.2454361 159.296146,42.7849899 159.730223,48.4787018 C159.851927,50.8803245 159.882353,53.4016227 159.436105,55.7728195 C158.914807,58.8559838 157.68357,61.9432049 155.551724,64.2718053 C153.764706,66.2129817 151.310345,67.5192698 148.687627,67.8498986 C146.204868,68.2352941 143.567951,67.6815416 141.237323,66.821501 C136.521298,65.3103448 132.557809,62.1176471 129.787018,58.0466531 C126.959432,53.8945233 125.434077,49.0040568 125.040568,44.0162272 C124.979716,42.6612576 124.841785,41.326572 124.977688,39.9675456 C125.044625,37.8438134 125.40568,35.7383367 126.040568,33.7119675 C126.965517,30.8884381 128.501014,28.2576065 130.876268,26.4137931 C132.878296,24.8478702 135.381339,23.9716024 137.924949,23.9553753 Z" id="Shape" fill="#FFFFFF" fill-rule="nonzero"></path>
                <path d="M101.087221,26.2900609 C102.255578,27.5314402 102.310345,29.5902637 102.10142,31.1805274 C101.521298,33.3732252 99.0993915,34.9188641 96.8864097,34.8661258 C96.8904665,31.5760649 96.8843813,28.2880325 96.862069,24.9979716 C98.3204868,24.9776876 100.004057,25.2170385 101.087221,26.2900609 Z" id="Shape" fill="#FE6307" fill-rule="nonzero"></path>
                <path d="M112.042596,25.0872211 C113.020284,25.2413793 113.98783,25.4624746 114.953347,25.6673428 C115.127789,26.851927 115.048682,28.0182556 115.060852,29.2089249 C115.06288,32.5902637 115.054767,35.969574 115.064909,39.3509128 C115.075051,40.2332657 114.955375,41.1054767 114.951318,41.9878296 C114.924949,45.9127789 114.959432,49.8377282 114.929006,53.7647059 C112.083164,49.3793103 109.667343,44.6389452 107.146045,40.0567951 C107.900609,39.4969574 108.636917,38.9756592 109.310345,38.3144016 C110.860041,36.7647059 111.983773,34.8073022 112.470588,32.6653144 C112.823529,31.3144016 112.748479,29.7849899 112.720081,28.3935091 C112.689655,27.2210953 112.310345,26.2028398 112.042596,25.0872211 Z" id="Shape" fill="#FE6307" fill-rule="nonzero"></path>
                <path d="M86.1298174,25.2636917 C86.148073,33.8133874 86.127789,42.3630832 86.137931,50.9127789 C86.1419878,51.6288032 86.1298174,52.3448276 86.1054767,53.0608519 C83.5638945,49.5212982 81.4259635,45.8458418 79.1440162,42.1440162 C80.5983773,40.8133874 81.9553753,39.4300203 82.9269777,37.6957404 C84.5983773,34.851927 85.1318458,31.4503043 84.5436105,28.2150101 C84.36714,27.198783 83.9391481,26.3002028 83.6105477,25.3346856 C84.4503043,25.2900609 85.2900609,25.2839757 86.1298174,25.2636917 Z" id="Shape" fill="#FE6307" fill-rule="nonzero"></path>
                <path d="M143.229209,26.1176471 C146.94929,27.5882353 150.261663,30.1318458 152.726166,33.2758621 C156.158215,37.6166329 158.03854,42.9858012 158.490872,48.4726166 C158.675456,51.5943205 158.669371,54.6044625 157.817444,57.6389452 C157.004057,60.63286 155.440162,63.4239351 152.853955,65.2271805 C150.638945,66.7768763 147.892495,67.2981744 145.233266,66.9229209 C143.606491,66.7383367 142.148073,66.1805274 140.616633,65.6470588 C136.419878,64.0831643 132.912779,61.1135903 130.450304,57.3975659 C127.699797,53.2860041 126.237323,48.306288 125.98783,43.3874239 C125.724138,39.5618661 126.200811,35.4300203 127.894523,31.9472617 C129.1643,29.3225152 131.194726,27.1217039 133.929006,26.010142 C136.892495,24.7931034 140.261663,25.0649087 143.229209,26.1176471 Z" id="Shape" fill="#000000" fill-rule="nonzero"></path>
                <path d="M71.8073022,26.9249493 C72.8235294,26.9655172 73.9432049,27.1866126 74.643002,27.9918864 C75.4198783,28.862069 75.6166329,30.1176471 75.7119675,31.2393509 C75.8356998,32.8438134 75.36714,34.4117647 74.4908722,35.7484787 C73.0182556,37.9939148 70.6024341,39.6713996 67.9350913,40.0993915 C67.9269777,35.9614604 67.9391481,31.8255578 67.9290061,27.6896552 C69.1906694,27.2555781 70.464503,26.9391481 71.8073022,26.9249493 Z" id="Shape" fill="#000000" fill-rule="nonzero"></path>
                <path d="M125.421907,27.2920892 C126.223124,27.4056795 127.022312,27.5192698 127.817444,27.6693712 C126.872211,28.9229209 125.991886,30.1399594 125.460446,31.6369168 C125.373225,30.1825558 125.403651,28.7464503 125.421907,27.2920892 Z" id="Shape" fill="#FE6307" fill-rule="nonzero"></path>
                <path d="M72.8782961,28.7890467 C73.8438134,29.1602434 74.0567951,30.1196755 74.1967546,31.0365112 C74.4624746,32.5273834 74.0892495,34.0628803 73.2515213,35.3144016 C72.2880325,36.7525355 70.8904665,37.9472617 69.2738337,38.5841785 C69.2494929,35.3772819 69.2596349,32.168357 69.2677485,28.9614604 C70.3995943,28.6855984 71.7403651,28.4868154 72.8782961,28.7890467 Z" id="Shape" fill="#FE6307" fill-rule="nonzero"></path>
                <path d="M138.742394,28.673428 C141.324544,28.6186613 143.622718,29.6977688 145.640974,31.2271805 C148.06288,33.0567951 149.811359,35.7079108 150.959432,38.4908722 C152.425963,42.0649087 153.03854,46.0588235 153.115619,49.9026369 C153.198783,52.4787018 153.026369,55.1115619 152.411765,57.6227181 C151.94929,59.3935091 151.148073,61.2778905 149.687627,62.4584178 C148.472617,63.4361055 146.951318,63.7119675 145.427992,63.5496957 C142.413793,63.2150101 139.649087,61.5537525 137.651116,59.3144016 C134.880325,56.1906694 133.318458,52.1054767 132.496957,48.0608519 C131.803245,44.4178499 131.525355,40.5821501 132.042596,36.8965517 C132.375254,34.6713996 133.002028,32.3793103 134.496957,30.6369168 C135.561866,29.3935091 137.111562,28.7018256 138.742394,28.673428 Z" id="Shape" fill="#FFFFFF" fill-rule="nonzero"></path>
                <path d="M141.738337,30.0628803 C144.713996,31.1744422 147.105477,33.3590264 148.718053,36.0709939 C150.98783,39.841785 151.926978,44.5334686 152.091278,48.8864097 C152.271805,50.6551724 152.105477,52.3914807 151.985801,54.1561866 C151.768763,55.979716 151.460446,57.7160243 150.663286,59.3874239 C150.217039,60.3103448 149.592292,61.148073 148.718053,61.7058824 C147.669371,62.3204868 146.440162,62.464503 145.255578,62.2292089 C142.292089,61.7444219 139.726166,59.9655172 137.924949,57.6064909 C135.452333,54.4442191 134.123732,50.3630832 133.464503,46.4482759 C133.10142,44.0283976 132.914807,41.5740365 133.028398,39.127789 C133.194726,36.841785 133.472617,34.5983773 134.537525,32.5314402 C135.1643,31.3306288 136.188641,30.2129817 137.525355,29.8235294 C138.926978,29.3975659 140.369168,29.6409736 141.738337,30.0628803 Z" id="Shape" fill="#000000" fill-rule="nonzero"></path>
                <path d="M156.513185,30.8864097 C156.689655,30.9979716 156.864097,31.1075051 157.040568,31.2170385 C158.72211,32.2535497 160.403651,33.2799189 162.178499,34.1501014 C164.302231,35.356998 166.521298,36.4056795 168.606491,37.6754564 C171.977688,39.8701826 175.257606,42.6713996 177.496957,46.0425963 C179.004057,48.2494929 179.94929,50.7261663 180.436105,53.3448276 C181.326572,51.535497 183.166329,50.3509128 185.200811,50.4279919 C187.302231,50.5314402 189.229209,51.6815416 190.760649,53.0547667 C193.377282,55.5010142 195.391481,58.7221095 197.330629,61.7079108 C197.320487,62.5760649 197.217039,63.4320487 197.115619,64.2920892 C196.963489,67.0892495 196.813387,69.8803245 196.766734,72.6815416 C195.929006,72.0750507 195.263692,71.3123732 194.46856,70.63286 C193.742394,70.030426 193.119675,69.326572 192.442191,68.6713996 C192.450304,67.6227181 192.46856,66.5699797 192.415822,65.5212982 C192.365112,63.4543611 191.263692,61.464503 190.091278,59.8174442 C189.314402,58.7829615 188.421907,57.6308316 187.314402,56.9411765 C186.989858,56.7484787 186.464503,56.4888438 186.099391,56.6997972 C185.752535,57.1338742 185.630832,57.7789047 185.541582,58.3144016 C185.283976,60.821501 185.876268,63.3955375 187.194726,65.5436105 C188.874239,68.3387424 191.438134,70.653144 193.549696,73.1764706 C195.257606,75.2028398 196.718053,77.3610548 197.626775,79.8681542 C198.68357,82.7789047 198.906694,85.8864097 198.53144,88.9452333 C198.30426,90.5537525 197.827586,92.2474645 196.754564,93.5070994 C195.813387,94.6288032 194.363083,95.2839757 192.89858,95.2393509 C190.969574,95.2150101 189.25355,94.3549696 187.685598,93.3022312 C188.444219,94.7383367 189.239351,96.148073 190.10142,97.525355 C190.385396,97.9959432 190.667343,98.4056795 190.62069,98.9858012 C190.616633,99.821501 189.88641,100.555781 189.046653,100.537525 C188.131846,100.638945 187.43002,99.7423935 186.829615,99.1744422 C182.148073,94.2474645 178.69574,87.9208925 176.184584,81.6450304 C173.322515,74.1419878 170.340771,66.68357 167.474645,59.1825558 C167.377282,62.2373225 167.454361,65.3022312 167.43002,68.3590264 C167.466531,69.6693712 167.359026,71.2738337 167.918864,72.474645 C168.602434,73.7079108 169.88641,74.0811359 170.951318,75.0689655 C170.955375,76.872211 170.951318,78.6754564 170.951318,80.4766734 C169.780933,79.6511156 168.63286,78.7910751 167.446247,77.9878296 C163.916836,75.6774848 160.170385,73.7606491 156.306288,72.0770791 C156.320487,70.3772819 156.302231,68.6774848 156.31643,66.9776876 C157.529412,67.5720081 158.724138,68.2231237 159.967546,68.7444219 C160.141988,66.8701826 160.081136,64.9655172 160.093306,63.0831643 C160.107505,59.2981744 160.060852,55.5091278 160.139959,51.7241379 C160.144016,47.8032454 160.135903,43.8803245 160.144016,39.9574037 C160.129817,39.3732252 160.109533,38.7525355 159.6714,38.3103448 C158.821501,37.3955375 157.557809,36.7991886 156.507099,36.137931 C156.511156,34.3874239 156.501014,32.6369168 156.513185,30.8864097 Z" id="Shape" fill="#FFFFFF" fill-rule="nonzero"></path>
                <path d="M144.042596,33.2312373 C146.340771,34.9533469 147.88641,37.4239351 148.904665,40.0750507 C150.208925,43.5638945 150.718053,47.4036511 150.657201,51.1156187 C150.693712,53.5192698 150.478702,56.1095335 149.655172,58.3833671 C149.231237,59.4908722 148.515213,60.7849899 147.283976,61.1176471 C146.040568,61.3590264 144.689655,61.158215 143.527383,60.673428 C141.176471,59.7444219 139.308316,57.8600406 137.983773,55.7464503 C136.002028,52.5659229 134.953347,48.7221095 134.525355,45.0243408 C134.241379,42.9533469 134.324544,40.8275862 134.365112,38.7444219 C134.533469,36.8377282 134.892495,34.7119675 135.904665,33.0567951 C136.482759,32.0933063 137.377282,31.3711968 138.537525,31.31643 C140.630832,31.1460446 142.393509,32.0425963 144.042596,33.2312373 Z" id="Shape" fill="#FE6307" fill-rule="nonzero"></path>
                <path d="M157.486815,33.0162272 C159.413793,34.2494929 161.46856,35.2312373 163.464503,36.3407708 C165.26572,37.326572 167.221095,38.2413793 168.884381,39.4340771 C171.880325,41.5091278 174.756592,44.1156187 176.718053,47.2129817 C178.565923,50.1156187 179.596349,53.5720081 179.326572,57.0263692 C179.182556,58.6064909 178.669371,60.336714 177.302231,61.2860041 C176.344828,61.9878296 175.283976,62.0527383 174.141988,62.1318458 C176.310345,68.2413793 178.302231,74.4117647 180.598377,80.484787 C180.697769,78.6693712 180.6714,76.8255578 180.68357,75.0121704 C181.421907,75.7119675 182.190669,76.356998 183.068966,76.8782961 C183,78.296146 182.951318,79.7423935 183.099391,81.1541582 C183.247465,82.4705882 183.900609,83.4888438 184.584178,84.5862069 C185.764706,86.3793103 187.263692,88.020284 188.935091,89.36714 C189.72211,89.9736308 190.819473,90.6916836 191.855984,90.5862069 C192.46856,90.5537525 192.89858,90.0425963 193.141988,89.525355 C193.659229,88.3793103 193.626775,87.0324544 193.592292,85.801217 C193.48073,83.2251521 192.608519,80.7748479 191.056795,78.7139959 C188.643002,75.5030426 185.395538,73.2636917 183.135903,69.8073022 C180.697769,66.1541582 179.953347,61.7667343 180.320487,57.4421907 C180.494929,55.8924949 180.926978,54.1724138 182,52.989858 C182.94929,51.9330629 184.421907,51.4827586 185.805274,51.7951318 C187.701826,52.1602434 189.462475,53.4929006 190.756592,54.8782961 C192.6714,56.9411765 194.156187,59.1926978 195.687627,61.535497 C195.833671,61.7647059 195.98783,62.0020284 196.085193,62.2555781 C196.11359,63.1298174 195.906694,64.030426 195.868154,64.9087221 C195.811359,66.7606491 195.634888,68.6004057 195.606491,70.4543611 C194.874239,69.7809331 194.160243,69.0851927 193.448276,68.3914807 C193.43002,66.8580122 193.533469,65.1338742 193.089249,63.6612576 C192.610548,62.0385396 191.732252,60.5131846 190.732252,59.1561866 C189.939148,58.1095335 189.036511,57.0182556 187.943205,56.2778905 C187.306288,55.8661258 186.525355,55.4969574 185.756592,55.7403651 C185.077079,56 184.693712,56.7890467 184.511156,57.4482759 C184.182556,58.7748479 184.233266,60.2190669 184.413793,61.5659229 C184.768763,64.0385396 185.902637,66.2048682 187.419878,68.158215 C190.010142,71.4969574 193.103448,74.0162272 195.247465,77.7789047 C197.263692,81.2434077 197.853955,85.3083164 197.27789,89.2454361 C197.034483,90.8174442 196.436105,92.703854 195.052738,93.6409736 C193.612576,94.6754564 191.622718,94.3590264 190.109533,93.6572008 C187.849899,92.6125761 185.860041,90.7870183 184.131846,89.0223124 C185.478702,91.9492901 186.965517,94.8275862 188.624746,97.5902637 C188.977688,98.2089249 189.432049,98.653144 189.40568,99.4158215 C189.204868,99.5091278 189.002028,99.6024341 188.799189,99.6957404 C188.40568,99.3995943 188.024341,99.0912779 187.677485,98.7403651 C186.060852,97.0831643 184.618661,95.2677485 183.320487,93.3509128 C180.427992,89.0892495 178.192698,84.4300203 176.403651,79.6085193 C173.371197,71.7687627 170.320487,63.9330629 167.239351,56.1115619 C168.312373,56.7180527 169.219067,57.4462475 170.399594,57.7687627 C171.340771,58.0324544 172.484787,58.0649087 173.31643,57.4787018 C174.105477,56.9188641 174.492901,55.9107505 174.572008,54.9756592 C174.752535,52.5294118 174.324544,50.0567951 173.237323,47.8539554 C171.823529,44.9290061 169.184584,42.5801217 166.296146,41.1602434 C166.281947,43.464503 166.243408,45.7687627 166.259635,48.0730223 C166.296146,55.3793103 166.15213,62.673428 166.225152,69.979716 C166.273834,71.2819473 166.393509,72.8478702 167.306288,73.8661258 C167.965517,74.6673428 168.825558,75.0770791 169.638945,75.6693712 C169.849899,76.5273834 169.687627,77.6024341 169.713996,78.5010142 C167.630832,76.9127789 165.290061,75.5720081 162.997972,74.306288 C161.137931,73.3346856 159.261663,72.3732252 157.322515,71.5679513 C157.310345,70.693712 157.310345,69.8194726 157.320487,68.9452333 C158.401623,69.4198783 159.492901,70.2028398 160.705882,70.1135903 C161.137931,68.8336714 160.955375,67.6288032 161.03854,66.3103448 C161.137931,65.030426 161.085193,63.7647059 161.095335,62.474645 C161.077079,55.4421907 161.160243,48.4117647 161.133874,41.3793103 C161.11359,40.1825558 161.296146,38.8762677 160.496957,37.872211 C159.716024,36.9391481 158.509128,36.3022312 157.478702,35.673428 C157.48073,34.7870183 157.476673,33.9026369 157.486815,33.0162272 Z" id="Shape" fill="#000000" fill-rule="nonzero"></path>
                <path d="M38.0141988,35.2981744 C38.0243408,36.2920892 38.020284,37.2880325 38.0182556,38.2819473 C37.3509128,38.7748479 36.3204868,39.2494929 36.0182556,40.0628803 C35.6044625,41.0547667 35.4543611,42.1926978 35.2454361,43.2474645 C34.2799189,48.2981744 33.3245436,53.3488844 32.3732252,58.4016227 C31.5131846,63.0791075 30.5659229,67.7403651 29.7667343,72.4279919 C29.3042596,74.9310345 29.0831643,77.4908722 28.525355,79.9756592 C27.6247465,80.5983773 26.7079108,81.1399594 25.9330629,81.9249493 C24.5456389,77.3488844 23.3488844,72.7383367 21.8661258,68.1967546 C20.9817444,65.1622718 20.0243408,62.1521298 19.0851927,59.1359026 C18.2839757,63.2352941 17.346856,67.3083164 16.5334686,71.4056795 C15.811359,74.6247465 15.2008114,77.8681542 14.4766734,81.0872211 C13.7200811,84.6815416 12.9716024,88.2920892 12.4077079,91.9208925 C11.5314402,92.6551724 10.6612576,93.3914807 9.85801217,94.2048682 C9.44421907,92.3042596 9.20486815,90.3813387 8.86409736,88.4604462 C8.06288032,83.3042596 7.13184584,78.1703854 6.3326572,73.0162272 C5.74036511,69.8762677 5.46450304,66.6592292 4.70385396,63.5578093 C3.97565923,64.1338742 3.2515213,64.7180527 2.51724138,65.2860041 C2.52738337,64.2941176 2.46247465,63.2880325 2.54158215,62.2981744 C2.79716024,61.9837728 3.14198783,61.7302231 3.44421907,61.4584178 C6.32657201,58.9878296 9.04665314,56.306288 11.7180527,53.6064909 C11.7322515,54.6713996 11.7261663,55.7383367 11.7241379,56.8052738 C10.9716024,57.4077079 10.2657201,58.010142 9.71602434,58.8154158 C9.18255578,59.5780933 8.96754564,60.515213 9.12981744,61.4340771 C9.47261663,63.68357 9.77890467,65.9432049 10.1602434,68.1866126 C10.8701826,72.1257606 11.3833671,76.0872211 12.148073,80.0182556 C12.6876268,77.4503043 13.2332657,74.8864097 13.7505071,72.3144016 C14.7464503,67.9716024 15.5922921,63.5963489 16.5091278,59.2373225 C17.0547667,56.1217039 17.7849899,53.0466531 18.3914807,49.9432049 C18.5902637,49.1663286 18.6572008,48.2819473 18.9979716,47.5578093 C19.5436105,47.010142 20.2778905,46.5922921 20.9655172,46.2494929 C21.1947262,47.5476673 21.5699797,48.801217 21.8985801,50.0750507 C22.1054767,51.0425963 22.3955375,51.9837728 22.6957404,52.9269777 C24.356998,58.4117647 25.9858012,63.9066937 27.6186613,69.3995943 C28.9350913,61.8275862 30.306288,54.2778905 31.4726166,46.6795132 C31.6997972,45.1237323 32.1217039,43.5395538 32.1176471,41.9655172 C30.8600406,42.3793103 29.9249493,43.1501014 28.8661258,43.9046653 C28.8600406,42.8884381 28.8580122,41.872211 28.8681542,40.8559838 C32.0507099,39.2373225 35.1115619,37.3732252 38.0141988,35.2981744 Z" id="Shape" fill="#000000" fill-rule="nonzero"></path>
                <path d="M39.1095335,40.6916836 C38.4888438,43.5720081 37.4340771,46.3448276 36.7931034,49.2170385 C36.8864097,47.8600406 37.2271805,46.5212982 37.4503043,45.178499 C37.7322515,43.8864097 37.872211,42.5314402 38.2758621,41.2758621 C38.5456389,41.0709939 38.8296146,40.8803245 39.1095335,40.6916836 Z" id="Shape" fill="#FE6307" fill-rule="nonzero"></path>
                <path d="M44.1622718,41.5963489 C45.4888438,45.4787018 47.1237323,49.2576065 48.4685598,53.1338742 C47.2434077,53.6369168 46.0730223,54.2555781 44.8539554,54.7728195 C43.1906694,55.4929006 41.6024341,56.3874239 39.9736308,57.1845842 C40.7160243,54.4097363 41.4361055,51.6288032 42.1663286,48.851927 C42.9026369,46.4543611 43.4137931,43.9878296 44.1622718,41.5963489 Z" id="Shape" fill="#FFFFFF" fill-rule="nonzero"></path>
                <path d="M167.517241,42.8864097 C168.912779,43.7890467 170.196755,44.9168357 171.188641,46.2555781 C172.606491,48.127789 173.419878,50.4036511 173.592292,52.7403651 C173.713996,53.7342799 173.716024,54.9168357 173.27789,55.8377282 C172.912779,56.5659229 172.148073,56.7809331 171.383367,56.6653144 C169.983773,56.4665314 168.659229,55.4056795 167.472617,54.6795132 C167.501014,50.7505071 167.43002,46.8133874 167.517241,42.8864097 Z" id="Shape" fill="#000000" fill-rule="nonzero"></path>
                <path d="M96.9006085,43.4888438 C99.8377282,48.127789 102.74645,52.7870183 105.62069,57.464503 C109.139959,62.9756592 114.3286,67.7281947 120.606491,69.8174442 C121.543611,70.0953347 122.539554,70.4685598 123.523327,70.2129817 C124.752535,69.9229209 125.724138,68.8174442 125.823529,67.5537525 C125.916836,66.535497 125.51927,65.5801217 124.732252,64.9290061 C123.811359,64.1643002 122.878296,63.4219067 122.032454,62.5720081 C124.547667,63.0770791 126.993915,63.9168357 129.488844,64.4929006 C129.498986,63.1440162 129.478702,61.7951318 129.511156,60.4462475 C132.180527,63.841785 135.63286,66.5496957 139.697769,68.0649087 C141.363083,68.663286 142.965517,69.2454361 144.730223,69.484787 C147.318458,69.9026369 150.046653,69.5557809 152.432049,68.4624746 C153.302231,68.0649087 154.048682,67.5517241 154.862069,67.0527383 C154.884381,69.1318458 154.862069,71.2109533 154.870183,73.2900609 C158.742394,74.9492901 162.507099,76.8174442 166.06288,79.0831643 C165.906694,79.030426 165.750507,78.9756592 165.59432,78.9229209 C164.748479,84.2231237 163.689655,89.484787 162.314402,94.673428 C158.574037,108.882353 152.709939,122.878296 144.320487,134.985801 C139.004057,142.697769 132.488844,149.350913 125.233266,155.245436 C118.31643,160.8357 110.780933,165.728195 102.866126,169.78499 C101.985801,170.217039 101.121704,170.705882 100.210953,171.068966 C99.7018256,171.300203 99.2434077,170.993915 98.7789047,170.79716 C89.5943205,166.281947 80.9229209,160.667343 73.0547667,154.123732 C66.0649087,148.294118 59.8093306,141.677485 54.7363083,134.103448 C47.3407708,123.190669 41.9979716,110.896552 38.3286004,98.2636917 C36.525355,92.030426 35.1237323,85.6896552 34.137931,79.2758621 L33.851927,79.3833671 C36.4077079,77.5578093 39.3955375,76.2474645 42.2860041,75.0507099 C42.31643,72.4340771 42.3022312,69.8174442 42.2920892,67.2008114 C41.4563895,67.494929 40.6186613,67.7829615 39.7789047,68.0608519 C40.1419878,66.3955375 40.5882353,64.7099391 41.0993915,63.0872211 C43.4989858,61.9269777 45.811359,60.6409736 48.3002028,59.6653144 C48.7464503,60.8052738 49.1602434,61.9553753 49.6085193,63.0933063 C48.4766734,63.7241379 47.3002028,64.2555781 46.148073,64.841785 C46.158215,67.6288032 46.1318458,70.4178499 46.1622718,73.2048682 C49.494929,71.5821501 52.8255578,69.7971602 56.2839757,68.4685598 C57.4381339,68.0283976 58.5436105,67.4726166 59.6855984,66.9979716 C61.356998,66.3711968 63.1602434,66.0567951 64.872211,65.5456389 C67.663286,64.7241379 70.5070994,64.1703854 73.3691684,63.6693712 C73.3914807,60.8965517 73.3914807,58.1156187 73.3691684,55.3427992 C72.0040568,55.7890467 70.6977688,56.3833671 69.3245436,56.7991886 C69.2819473,53.5659229 69.2941176,50.3286004 69.3184584,47.0953347 C71.8235294,50.5476673 74.2616633,54.0507099 76.7505071,57.515213 C77.7951318,59.0283976 78.8864097,60.494929 80.2028398,61.7849899 C83.9452333,65.643002 89.1156187,68.2190669 94.5233266,68.4442191 C95.9736308,68.5638945 97.3995943,67.7687627 97.8377282,66.3448276 C98.0141988,65.4482759 97.9046653,64.484787 97.9229209,63.5720081 C96.2778905,62.6653144 94.6572008,61.7809331 93.1866126,60.5963489 C94.9148073,60.4969574 96.6551724,60.505071 98.3833671,60.6064909 C99.296146,60.6916836 100.200811,60.7444219 101.117647,60.7606491 C101.115619,58.1947262 101.129817,55.6288032 101.111562,53.0608519 C99.7525355,53.0649087 98.3914807,53.0628803 97.0324544,53.0669371 C96.8640974,51.8762677 96.8884381,50.6896552 96.8864097,49.4929006 C96.8924949,47.4908722 96.8701826,45.4908722 96.9006085,43.4888438 Z" id="Shape" fill="#FE6307" fill-rule="nonzero"></path>
                <path d="M44.4198783,45.0283976 C45.3306288,47.4807302 46.306288,49.9046653 47.2068966,52.3590264 C45.4158215,53.2555781 43.5456389,53.9391481 41.801217,54.9188641 C42.6125761,51.6044625 43.5456389,48.326572 44.4198783,45.0283976 Z" id="Shape" fill="#000000" fill-rule="nonzero"></path>
                <path d="M168.843813,46.0020284 C169.541582,46.8073022 170.231237,47.5638945 170.73428,48.515213 C170.689655,50.8093306 170.730223,53.1014199 170.703854,55.3955375 C170.054767,55.0263692 169.361055,54.6592292 168.793103,54.1744422 C168.677485,53.5780933 168.738337,52.9391481 168.728195,52.3326572 C168.750507,50.4279919 168.693712,48.5172414 168.754564,46.6125761 C168.782961,46.4097363 168.813387,46.2068966 168.843813,46.0020284 Z" id="Shape" fill="#FFFFFF" fill-rule="nonzero"></path>
                <path d="M170.73428,48.515213 C170.829615,48.6957404 170.924949,48.8782961 171.020284,49.0608519 C171.501014,49.9959432 171.819473,51.0040568 172.002028,52.0385396 C172.158215,53.2109533 172.314402,54.5862069 171.902637,55.7180527 C171.503043,55.6166329 171.097363,55.5233266 170.703854,55.3955375 C170.730223,53.1014199 170.689655,50.8093306 170.73428,48.515213 Z" id="Shape" fill="#FE6307" fill-rule="nonzero"></path>
                <path d="M44.5760649,49.8275862 C44.8559838,50.5375254 45.1338742,51.2474645 45.3975659,51.9634888 C44.8742394,52.2089249 44.3509128,52.4503043 43.821501,52.68357 C43.9675456,51.9127789 44.1561866,51.1541582 44.3874239,50.4036511 C44.4482759,50.2129817 44.5111562,50.020284 44.5760649,49.8275862 Z" id="Shape" fill="#FE6307" fill-rule="nonzero"></path>
                <path d="M125.312373,52.7931034 C125.730223,53.7991886 126.170385,54.7971602 126.598377,55.7971602 C126.162272,55.68357 125.726166,55.5618661 125.292089,55.4361055 C125.294118,54.5537525 125.296146,53.673428 125.312373,52.7931034 Z" id="Shape" fill="#FE6307" fill-rule="nonzero"></path>
                <path d="M14.2028398,58.127789 C14.0547667,59.4929006 13.6774848,60.8255578 13.4381339,62.1764706 C13.0750507,63.7505071 12.8275862,65.3549696 12.3874239,66.9107505 C12.2454361,65.0831643 11.8782961,63.2718053 11.6409736,61.4543611 C11.5983773,61.030426 11.5496957,60.6511156 11.8296146,60.2941176 C12.4401623,59.4421907 13.4158215,58.8174442 14.2028398,58.127789 Z" id="Shape" fill="#FFFFFF" fill-rule="nonzero"></path>
                <path d="M186.807302,58.68357 C187.789047,59.4036511 188.578093,60.4584178 189.261663,61.4563895 C189.98783,62.5720081 190.661258,63.8458418 190.89858,65.1663286 C191.042596,66.326572 190.985801,67.5192698 190.981744,68.6876268 C189.791075,67.3306288 188.549696,65.8275862 187.768763,64.1926978 C186.947262,62.4868154 186.626775,60.5659229 186.807302,58.68357 Z" id="Shape" fill="#FFFFFF" fill-rule="nonzero"></path>
                <path d="M179.320487,60.821501 C179.454361,64.0385396 180.411765,67.2636917 182.158215,69.9756592 C183.533469,72.1257606 185.235294,73.862069 187.040568,75.6389452 C188.669371,77.2515213 190.267748,78.8255578 191.342799,80.8843813 C192.462475,83.0324544 192.787018,85.4361055 192.551724,87.8296146 C192.486815,88.4036511 192.251521,88.9087221 191.959432,89.3995943 C190.470588,89.137931 189.51927,88.1845842 188.448276,87.2109533 C186.971602,85.7667343 185.64503,84.0993915 184.72211,82.2434077 C184.37931,81.5740365 184.273834,80.8559838 184.251521,80.1115619 C184.223124,78.7363083 184.271805,77.3630832 184.283976,75.989858 C182.330629,75.148073 181.320487,73.5983773 179.693712,72.3427992 C179.679513,72.9817444 179.665314,73.6206897 179.64503,74.2596349 C179.25355,72.9371197 178.760649,71.6511156 178.324544,70.3407708 C177.460446,67.8924949 176.667343,65.4158215 175.768763,62.9776876 C176.484787,62.7545639 177.156187,62.5943205 177.799189,62.188641 C178.403651,61.8255578 178.839757,61.326572 179.320487,60.821501 Z" id="Shape" fill="#000000" fill-rule="nonzero"></path>
                <path d="M158.665314,62.4685598 C158.665314,63.9513185 158.691684,65.4279919 158.549696,66.9066937 C157.774848,66.5273834 157.006085,66.1359026 156.235294,65.7444219 C157.046653,64.9046653 157.732252,63.9878296 158.340771,62.9939148 C158.450304,62.8194726 158.557809,62.6450304 158.665314,62.4685598 Z" id="Shape" fill="#FE6307" fill-rule="nonzero"></path>
                <path d="M178.148073,63.8782961 C178.389452,65.0507099 178.665314,66.2089249 179.089249,67.3326572 C179.993915,69.8438134 181.470588,72.0872211 183.251521,74.0649087 C182.369168,73.2860041 181.509128,72.4787018 180.638945,71.6855984 C180.190669,71.2555781 179.732252,70.9350913 179.557809,70.3002028 C178.890467,68.2332657 178.091278,66.2008114 177.486815,64.1156187 C177.705882,64.0365112 177.926978,63.9574037 178.148073,63.8782961 Z" id="Shape" fill="#FFFFFF" fill-rule="nonzero"></path>
                <path d="M168.716024,66.6795132 C169.326572,68.3448276 170.004057,69.9858012 170.63286,71.6450304 C170.679513,72.2129817 170.563895,72.7525355 170.476673,73.3123732 L170.141988,73.1460446 C169.574037,72.7910751 169.066937,72.4442191 168.908722,71.7484787 C168.608519,70.0953347 168.699797,68.3549696 168.716024,66.6795132 Z" id="Shape" fill="#FFFFFF" fill-rule="nonzero"></path>
                <path d="M170.63286,71.6450304 C170.953347,72.5010142 171.286004,73.3529412 171.636917,74.198783 C171.158215,73.8174442 170.659229,73.4726166 170.141988,73.1460446 L170.476673,73.3123732 C170.563895,72.7525355 170.679513,72.2129817 170.63286,71.6450304 Z" id="Shape" fill="#FE6307" fill-rule="nonzero"></path>
                <path d="M172.322515,75.841785 C172.762677,77.2799189 173.395538,78.6450304 173.892495,80.0649087 C173.356998,83.198783 172.8357,86.336714 172.162272,89.4482759 C169.545639,101.669371 165.572008,113.559838 160.014199,124.764706 C155.592292,133.545639 150.310345,141.870183 143.709939,149.184584 C136.517241,157.219067 127.965517,164.180527 118.933063,170.044625 C112.926978,173.900609 106.63286,177.462475 100.024341,180.182556 C96.5699797,178.740365 93.2535497,177.125761 89.9756592,175.31643 C80.5862069,170.148073 71.7139959,163.920892 63.7991886,156.68357 C61.9574037,154.931034 60.1156187,153.217039 58.3914807,151.342799 C53.7971602,146.567951 49.7768763,141.294118 46.2434077,135.693712 C36.8782961,120.894523 30.7565923,103.882353 27.3853955,86.7444219 C27.2271805,85.9918864 27.0993915,85.2352941 27.0141988,84.4705882 C28.0689655,83.5902637 29.2129817,82.811359 30.3042596,81.9736308 C31.6673428,90.0223124 33.6348884,97.9533469 36.2434077,105.689655 C39.9310345,116.59432 44.959432,127.245436 51.4584178,136.762677 C57.1764706,145.225152 64.3488844,152.561866 72.2941176,158.945233 C80.3590264,165.381339 89.1724138,170.935091 98.5192698,175.310345 C98.9290061,175.492901 99.356998,175.72211 99.801217,175.799189 C100.330629,175.740365 100.84787,175.419878 101.332657,175.204868 C105.192698,173.421907 108.959432,171.371197 112.610548,169.188641 C120.385396,164.511156 127.768763,159.060852 134.381339,152.841785 C138.206897,149.208925 141.805274,145.356998 145.018256,141.168357 C151.346856,132.880325 156.41785,123.545639 160.35497,113.902637 C164.612576,103.460446 167.578093,92.5720081 169.446247,81.4584178 C170.383367,82.1217039 171.279919,82.821501 172.26572,83.4097363 C172.310345,80.8884381 172.223124,78.3630832 172.322515,75.841785 Z" id="Shape" fill="#FE6307" fill-rule="nonzero"></path>
                <path d="M185.572008,76.5091278 C187.087221,77.9736308 188.72211,79.5598377 189.79716,81.3853955 C190.983773,83.3975659 191.324544,85.7079108 191.109533,88.0141988 C189.472617,86.851927 188.042596,85.3326572 186.894523,83.6896552 C186.286004,82.7626775 185.543611,81.6815416 185.525355,80.5395538 C185.46856,79.188641 185.541582,77.8559838 185.572008,76.5091278 Z" id="Shape" fill="#FFFFFF" fill-rule="nonzero"></path>
                <path d="M132.951318,77.1501014 C132.945233,79.5963489 132.957404,82.0446247 132.947262,84.4908722 C131.511156,84.5212982 129.764706,84.4361055 128.425963,85.0283976 C127.322515,85.5192698 127.064909,86.7342799 126.914807,87.8174442 C126.732252,90.296146 126.634888,92.8093306 126.815416,95.2900609 C130.046653,95.2799189 133.27789,95.2920892 136.511156,95.2819473 C137.750507,95.2778905 138.963489,95.4563895 140.077079,96.0283976 C142.267748,97.1176471 143.681542,99.148073 144.462475,101.415822 C145.196755,103.555781 145.11359,105.693712 145.06288,107.922921 C144.929006,110.549696 144.032454,113.093306 142.198783,115.016227 C140.872211,116.407708 139.056795,117.281947 137.119675,117.310345 C133.681542,117.314402 130.227181,117.308316 126.787018,117.312373 C126.689655,118.58215 126.744422,119.821501 126.73428,121.095335 C126.738337,122.247465 126.697769,123.383367 126.793103,124.535497 C126.894523,125.884381 126.803245,127.121704 127.458418,128.363083 C127.791075,128.991886 128.442191,129.300203 129.097363,129.484787 C130.312373,129.799189 131.691684,129.718053 132.943205,129.748479 C132.924949,132.210953 133.016227,134.693712 132.900609,137.150101 C131.945233,137.227181 130.977688,137.172414 130.020284,137.184584 C108.965517,137.180527 87.9107505,137.190669 66.8559838,137.178499 C66.841785,134.701826 66.841785,132.221095 66.8559838,129.744422 C68.1561866,129.72211 69.6186613,129.807302 70.8701826,129.434077 C71.5294118,129.237323 72.1054767,128.862069 72.4036511,128.221095 C72.9492901,127.05071 72.9655172,125.606491 72.9817444,124.340771 C72.9878296,121.995943 72.9878296,119.653144 72.9817444,117.308316 C68.7363083,117.31643 64.4888438,117.306288 60.2434077,117.314402 C59.3022312,117.310345 58.3488844,117.131846 57.4827586,116.760649 C55.505071,115.900609 54.0730223,114.267748 53.178499,112.334686 C52.3083164,110.482759 52.0892495,108.513185 52.0730223,106.490872 C52.0588235,104.219067 52.2758621,102.032454 53.3225152,99.979716 C54.1825558,98.2596349 55.4787018,96.7991886 57.2352941,95.9655172 C58.3144016,95.4442191 59.4624746,95.2920892 60.6490872,95.2819473 C64.7586207,95.2900609 68.8701826,95.2819473 72.979716,95.2900609 C72.959432,92.8742394 73.0588235,90.4421907 72.9006085,88.030426 C72.7829615,87.0020284 72.525355,85.6105477 71.4929006,85.1054767 C70.1460446,84.4259635 68.3245436,84.525355 66.8498986,84.494929 C66.8438134,82.0446247 66.8498986,79.5963489 66.8458418,77.1460446 C88.8803245,77.1419878 110.916836,77.1318458 132.951318,77.1501014 Z" id="Shape" fill="#000000" fill-rule="nonzero"></path>
                <path d="M68.6653144,78.9350913 C78.4766734,78.9411765 88.2880325,78.9371197 98.1014199,78.9371197 C98.0993915,80.2048682 98.1054767,81.4726166 98.0953347,82.7403651 C97.4543611,82.8539554 96.8580122,82.9452333 96.3103448,83.3286004 C95.4908722,83.872211 95.0953347,84.8336714 94.9148073,85.7647059 C94.6713996,87.0953347 94.6673428,88.5131846 94.6572008,89.8580122 C94.6572008,91.673428 94.6551724,93.4888438 94.6572008,95.3042596 C88.0365112,95.296146 81.4137931,95.3123732 74.7931034,95.296146 C74.7809331,93.0811359 74.8397566,90.8600406 74.7565923,88.6470588 C74.653144,87.0243408 74.4158215,85.2089249 73.1399594,84.0567951 C71.8884381,82.9269777 70.2515213,82.8356998 68.6592292,82.7119675 C68.6673428,81.4543611 68.6612576,80.1947262 68.6653144,78.9350913 Z" id="Shape" fill="#FFFFFF" fill-rule="nonzero"></path>
                <path d="M101.701826,78.9574037 C111.462475,78.9107505 121.352941,78.9553753 131.129817,78.9350913 C131.131846,80.1947262 131.125761,81.4543611 131.133874,82.7119675 C130.060852,82.8073022 129.064909,82.8356998 128.040568,83.2210953 C126.920892,83.6206897 125.98783,84.515213 125.58215,85.6348884 C125.03854,87.0892495 125.008114,88.5314402 124.989858,90.0608519 C124.985801,91.8052738 124.98783,93.5496957 124.989858,95.2920892 C118.389452,95.3123732 111.789047,95.3002028 105.188641,95.3002028 C105.196755,94.1602434 105.158215,93.0243408 105.154158,91.8864097 C105.093306,89.7647059 105.243408,87.7505071 104.845842,85.6490872 C104.653144,84.7505071 104.275862,83.862069 103.482759,83.336714 C102.935091,82.9492901 102.334686,82.851927 101.689655,82.7403651 C101.691684,81.4807302 101.651116,80.2150101 101.701826,78.9574037 Z" id="Shape" fill="#FFFFFF" fill-rule="nonzero"></path>
                <path d="M166.06288,79.0831643 C167.223124,79.821501 168.324544,80.6612576 169.446247,81.4584178 C167.578093,92.5720081 164.612576,103.460446 160.35497,113.902637 C156.41785,123.545639 151.346856,132.880325 145.018256,141.168357 C141.805274,145.356998 138.206897,149.208925 134.381339,152.841785 C127.768763,159.060852 120.385396,164.511156 112.610548,169.188641 C108.959432,171.371197 105.192698,173.421907 101.332657,175.204868 C100.84787,175.419878 100.330629,175.740365 99.801217,175.799189 C99.356998,175.72211 98.9290061,175.492901 98.5192698,175.310345 C89.1724138,170.935091 80.3590264,165.381339 72.2941176,158.945233 C64.3488844,152.561866 57.1764706,145.225152 51.4584178,136.762677 C44.959432,127.245436 39.9310345,116.59432 36.2434077,105.689655 C33.6348884,97.9533469 31.6673428,90.0223124 30.3042596,81.9736308 C31.4807302,81.1034483 32.63286,80.1906694 33.851927,79.3833671 L34.137931,79.2758621 C35.1237323,85.6896552 36.525355,92.030426 38.3286004,98.2636917 C41.9979716,110.896552 47.3407708,123.190669 54.7363083,134.103448 C59.8093306,141.677485 66.0649087,148.294118 73.0547667,154.123732 C80.9229209,160.667343 89.5943205,166.281947 98.7789047,170.79716 C99.2434077,170.993915 99.7018256,171.300203 100.210953,171.068966 C101.121704,170.705882 101.985801,170.217039 102.866126,169.78499 C110.780933,165.728195 118.31643,160.8357 125.233266,155.245436 C132.488844,149.350913 139.004057,142.697769 144.320487,134.985801 C152.709939,122.878296 158.574037,108.882353 162.314402,94.673428 C163.689655,89.484787 164.748479,84.2231237 165.59432,78.9229209 C165.750507,78.9756592 165.906694,79.030426 166.06288,79.0831643 Z" id="Shape" fill="#FFFFFF" fill-rule="nonzero"></path>
                <path d="M99.7971602,84.4929006 C100.600406,84.5111562 101.576065,84.4300203 102.326572,84.7505071 C102.793103,85.0040568 102.94929,85.4787018 103.060852,85.9655172 C103.318458,87.2677485 103.332657,88.5375254 103.334686,89.8580122 C103.334686,91.63286 103.389452,93.4077079 103.373225,95.1805274 C101.068966,95.2068966 98.7647059,95.2373225 96.4604462,95.2515213 C96.4523327,93.4543611 96.4584178,91.6551724 96.4563895,89.8580122 C96.4584178,88.5943205 96.4685598,87.2555781 96.7119675,86.0141988 C96.8255578,85.5212982 96.9979716,84.9979716 97.474645,84.7464503 C98.1663286,84.4482759 99.0567951,84.5070994 99.7971602,84.4929006 Z" id="Shape" fill="#FE6307" fill-rule="nonzero"></path>
                <path d="M62.0689655,96.515213 C86.5456389,96.515213 111.020284,96.5172414 135.496957,96.515213 C136.8357,96.505071 138.058824,96.4482759 139.306288,97.030426 C141.342799,97.9614604 142.691684,99.9817444 143.31643,102.075051 C143.766734,103.456389 143.768763,104.851927 143.744422,106.288032 C143.795132,107.910751 143.705882,109.488844 143.117647,111.020284 C142.35497,113.064909 140.951318,114.900609 138.837728,115.657201 C137.78499,116.058824 136.799189,115.933063 135.699797,115.94929 C110.953347,115.94929 86.2068966,115.94929 61.4604462,115.94929 C60.3651116,115.929006 59.3651116,116.06288 58.3225152,115.665314 C56.356998,114.975659 55.020284,113.377282 54.2109533,111.511156 C53.464503,109.843813 53.3245436,108.091278 53.3813387,106.288032 C53.3204868,104.425963 53.464503,102.616633 54.2434077,100.900609 C54.9736308,99.2089249 56.3651116,97.5740365 58.1196755,96.9066937 C59.4421907,96.3955375 60.6876268,96.5294118 62.0689655,96.515213 Z" id="Shape" fill="#FFFFFF" fill-rule="nonzero"></path>
                <path d="M60.0385396,97.3975659 C85.7342799,97.3995943 111.43002,97.3975659 137.127789,97.3975659 C139.109533,97.3630832 140.801217,98.8356998 141.724138,100.482759 C142.758621,102.271805 143.006085,104.251521 142.918864,106.288032 C142.975659,107.955375 142.843813,109.578093 142.168357,111.123732 C141.48073,112.74645 140.255578,114.259635 138.551724,114.862069 C137.598377,115.227181 136.699797,115.105477 135.699797,115.121704 C110.478702,115.119675 85.2576065,115.123732 60.0365112,115.121704 C58.7302231,115.129817 57.505071,114.486815 56.5882353,113.588235 C55.5395538,112.537525 54.831643,111.125761 54.4888438,109.689655 C54.1095335,108.30426 54.2312373,106.711968 54.2129817,105.271805 C54.1703854,102.973631 54.9776876,100.470588 56.6612576,98.851927 C57.5679513,97.9574037 58.7464503,97.3772819 60.0385396,97.3975659 Z" id="Shape" fill="#000000" fill-rule="nonzero"></path>
                <path d="M62.821501,99.326572 C64.5436105,99.336714 66.2616633,99.3874239 67.9837728,99.3002028 C68.0040568,99.4361055 68.0243408,99.5740365 68.0446247,99.7119675 C67.6044625,99.831643 67.0425963,99.8701826 66.673428,100.15213 C66.3529412,100.464503 66.3894523,101 66.3610548,101.413793 C66.3509128,102.689655 66.36714,103.967546 66.3590264,105.245436 C68.8762677,105.241379 71.3935091,105.243408 73.9107505,105.245436 C73.9087221,103.902637 73.9046653,102.559838 73.9148073,101.217039 C73.8965517,100.896552 73.9492901,100.509128 73.8154158,100.21501 C73.4056795,99.5780933 72.2880325,100.255578 72.2048682,99.3144016 C73.9756592,99.3651116 75.7322515,99.3407708 77.5030426,99.3103448 C77.3752535,100.1643 76.5030426,99.6551724 76.0425963,100.204868 C75.7707911,100.58215 75.801217,100.979716 75.7870183,101.421907 C75.7971602,104.462475 75.7931034,107.507099 75.7890467,110.547667 C75.7829615,110.98783 75.8985801,111.397566 76.010142,111.817444 C76.474645,111.965517 76.9310345,112.070994 77.4158215,112.139959 C77.4077079,112.302231 77.3975659,112.464503 77.3894523,112.624746 C75.7079108,112.474645 73.9959432,112.484787 72.3123732,112.630832 C72.3042596,112.46856 72.296146,112.306288 72.2860041,112.141988 C72.7809331,112.087221 73.2413793,111.98783 73.7160243,111.837728 C73.8194726,111.411765 73.9168357,110.989858 73.9107505,110.547667 C73.9127789,109.089249 73.9046653,107.630832 73.9087221,106.170385 C71.3935091,106.170385 68.8762677,106.170385 66.3610548,106.172414 C66.4077079,107.878296 66.2576065,109.624746 66.4462475,111.318458 C66.6247465,112.123732 67.4685598,112.018256 68.1054767,112.135903 C68.020284,112.296146 67.9452333,112.454361 67.8458418,112.602434 C66.2332657,112.509128 64.6308316,112.46856 63.020284,112.624746 C62.9452333,112.541582 62.8701826,112.458418 62.7951318,112.375254 C62.8478702,112.292089 62.9006085,112.208925 62.9533469,112.123732 C63.4685598,112.03854 64.0547667,112.097363 64.3691684,111.598377 C64.5334686,111.01217 64.4523327,110.342799 64.4685598,109.736308 C64.4381339,106.651116 64.5212982,103.527383 64.4300203,100.450304 C64.3022312,99.5415822 62.7484787,100.247465 62.821501,99.326572 Z" id="Shape" fill="#FFFFFF" fill-rule="nonzero"></path>
                <path d="M85.1419878,100.292089 C85.1359026,101.174442 85.178499,102.079108 85.0912779,102.955375 C84.5902637,102.450304 84.7768763,101.711968 84.1095335,101.290061 C83.0649087,100.661258 81.4685598,100.947262 80.2860041,100.902637 C80.2880325,102.385396 80.2860041,103.870183 80.2880325,105.352941 C81.1501014,105.369168 81.9776876,105.427992 82.8133874,105.15213 C82.9330629,104.766734 83.0446247,104.381339 83.1440162,103.991886 C83.2697769,103.989858 83.3975659,103.989858 83.525355,103.98783 C83.4320487,105.219067 83.464503,106.444219 83.535497,107.673428 L83.158215,107.6714 C83.0953347,107.233266 83.0081136,106.811359 82.8823529,106.387424 C82.030426,106.044625 81.1805274,106.107505 80.2839757,106.131846 C80.336714,107.513185 80.1764706,108.939148 80.3853955,110.30426 C80.4685598,110.929006 81.0243408,111.004057 81.5436105,111.048682 C82.4462475,111.068966 83.5557809,111.141988 84.3853955,110.740365 C85.1075051,110.385396 85.3711968,109.640974 85.7505071,108.985801 C85.851927,109.077079 85.9553753,109.170385 86.0567951,109.261663 C85.7383367,110.03854 85.5314402,110.839757 85.3833671,111.665314 C82.7281947,111.630832 80.0567951,111.545639 77.4016227,111.622718 C77.3590264,111.503043 77.31643,111.385396 77.2738337,111.267748 C77.6713996,111.144016 78.3083164,111.158215 78.5699797,110.803245 C78.7403651,110.387424 78.7484787,109.973631 78.7545639,109.533469 C78.7464503,107.166329 78.7464503,104.801217 78.7545639,102.434077 C78.7626775,101.933063 78.6855984,101.446247 78.5902637,100.957404 C78.1744422,100.860041 77.7586207,100.768763 77.3387424,100.689655 L77.3387424,100.290061 C79.9411765,100.365112 82.5395538,100.312373 85.1419878,100.292089 Z" id="Shape" fill="#FFFFFF" fill-rule="nonzero"></path>
                <path d="M94.4462475,100.318458 C95.6024341,100.247465 96.7748479,100.352941 97.9350913,100.334686 C100.247465,100.446247 102.290061,100.119675 104.438134,100.574037 C106.117647,100.941176 107.598377,102.046653 108.348884,103.604462 C109.37931,105.752535 108.864097,108.685598 106.926978,110.162272 C105.385396,111.40568 103.087221,111.693712 101.172414,111.598377 C100.081136,111.472617 99.010142,111.576065 97.9188641,111.626775 L97.862069,111.239351 C98.2576065,111.1643 98.653144,111.087221 99.0486815,111.01217 C99.2008114,110.590264 99.3103448,110.190669 99.2900609,109.736308 C99.2819473,107.233266 99.2860041,104.732252 99.2880325,102.229209 C99.2981744,101.774848 99.1926978,101.346856 99.0770791,100.912779 C98.4624746,100.754564 97.9411765,100.567951 97.3772819,100.993915 C96.959432,101.440162 96.9574037,102.261663 96.9148073,102.837728 C96.9066937,105.807302 96.9229209,108.780933 96.9087221,111.750507 C96.7647059,111.736308 96.6206897,111.72211 96.474645,111.705882 C93.7241379,108.616633 90.9411765,105.553753 88.1764706,102.474645 C88.1805274,104.610548 88.1724138,106.74645 88.178499,108.882353 C88.2129817,109.523327 88.2109533,110.602434 88.8884381,110.918864 C89.36714,111.210953 90.1744422,110.88641 90.2494929,111.602434 C88.7829615,111.511156 87.326572,111.46856 85.8600406,111.606491 C85.8661258,111.458418 85.872211,111.308316 85.8782961,111.160243 C86.2900609,111.083164 86.8073022,111.137931 87.0912779,110.793103 C87.4320487,110.359026 87.4482759,109.657201 87.464503,109.129817 C87.4624746,107.032454 87.4563895,104.93712 87.4665314,102.841785 C87.4604462,102.359026 87.4563895,101.701826 87.1440162,101.302231 C86.7991886,100.872211 86.0608519,100.8357 85.5578093,100.716024 L85.5720081,100.320487 C86.5070994,100.391481 87.4624746,100.279919 88.3874239,100.371197 C88.9026369,100.825558 89.326572,101.385396 89.7910751,101.890467 C91.9371197,104.247465 94.0649087,106.622718 96.2089249,108.981744 C96.2210953,107.068966 96.2129817,105.156187 96.2150101,103.245436 C96.198783,102.626775 96.1906694,101.855984 95.8803245,101.30426 C95.5375254,100.732252 94.841785,100.795132 94.2677485,100.689655 C94.3245436,100.565923 94.3833671,100.442191 94.4462475,100.318458 Z" id="Shape" fill="#FFFFFF" fill-rule="nonzero"></path>
                <path d="M108.089249,100.326572 C109.178499,100.310345 110.26572,100.320487 111.359026,100.290061 C112.703854,100.271805 114.318458,100.359026 115.411765,101.241379 C116.36714,102.018256 116.421907,103.634888 115.776876,104.616633 C115.348884,105.302231 114.693712,105.602434 114.010142,105.969574 C115.882353,109.014199 117.462475,112.03854 120.626775,113.94929 C118.476673,113.726166 116.659229,112.460446 115.446247,110.711968 C114.300203,109.042596 113.115619,107.395538 112,105.705882 C112.79716,105.574037 113.53144,105.383367 114.099391,104.770791 C115.022312,103.843813 114.864097,102.144016 113.79716,101.393509 C112.963489,100.805274 111.88641,100.912779 110.920892,100.918864 C110.922921,103.521298 110.922921,106.121704 110.920892,108.72211 C110.93712,109.535497 110.914807,110.296146 111.279919,111.044625 C111.630832,111.079108 111.979716,111.111562 112.330629,111.139959 L112.350913,111.626775 C110.900609,111.476673 109.484787,111.537525 108.034483,111.622718 C108.006085,111.501014 107.979716,111.381339 107.951318,111.259635 C108.3286,111.160243 108.791075,111.135903 109.127789,110.933063 C109.419878,110.574037 109.389452,109.971602 109.403651,109.533469 C109.395538,107.099391 109.397566,104.665314 109.401623,102.231237 C109.407708,101.791075 109.324544,101.36714 109.231237,100.941176 C108.789047,100.843813 108.346856,100.752535 107.904665,100.665314 C107.963489,100.549696 108.024341,100.438134 108.089249,100.326572 Z" id="Shape" fill="#FFFFFF" fill-rule="nonzero"></path>
                <path d="M117.922921,100.322515 C119.363083,100.320487 120.795132,100.391481 122.237323,100.300203 L122.243408,100.677485 C121.837728,100.764706 121.434077,100.862069 121.032454,100.965517 C120.738337,101.860041 120.833671,102.730223 120.825558,103.651116 C120.825558,105.612576 120.829615,107.572008 120.821501,109.533469 C120.829615,109.96146 120.817444,110.409736 121.022312,110.799189 C121.292089,111.1643 121.809331,111.081136 122.219067,111.160243 C122.225152,111.314402 122.229209,111.46856 122.233266,111.624746 C120.770791,111.509128 119.31643,111.515213 117.851927,111.525355 C117.874239,111.393509 117.896552,111.259635 117.918864,111.125761 C118.26572,111.099391 118.612576,111.070994 118.957404,111.040568 C119.117647,110.681542 119.241379,110.346856 119.229209,109.947262 C119.233266,107.444219 119.223124,104.93712 119.233266,102.434077 C119.237323,101.939148 119.204868,101.456389 119.139959,100.965517 C118.697769,100.862069 118.25355,100.764706 117.813387,100.657201 L117.922921,100.322515 Z" id="Shape" fill="#FFFFFF" fill-rule="nonzero"></path>
                <path d="M122.776876,100.35497 C124.302231,100.36714 125.823529,100.419878 127.348884,100.324544 L127.363083,100.679513 C126.977688,100.772819 126.596349,100.878296 126.217039,100.989858 C126.839757,102.399594 127.993915,103.565923 128.860041,104.8357 C129.501014,104.024341 130.150101,103.219067 130.768763,102.391481 C131.095335,101.967546 131.281947,101.494929 131.419878,100.981744 C131.05071,100.872211 130.679513,100.772819 130.306288,100.681542 L130.334686,100.320487 C131.610548,100.401623 132.88641,100.373225 134.162272,100.318458 L134.188641,100.669371 C133.387424,100.827586 132.679513,101.060852 132.154158,101.72211 C131.267748,102.807302 130.43002,103.941176 129.586207,105.058824 C129.3286,105.37931 129.423935,105.533469 129.628803,105.841785 C130.513185,107.056795 131.41785,108.257606 132.30426,109.470588 C132.649087,109.924949 133.008114,110.407708 133.448276,110.774848 C133.849899,111.103448 134.334686,111.091278 134.56998,111.592292 C133.115619,111.494929 131.713996,111.555781 130.263692,111.608519 C130.346856,111.044625 130.841785,111.174442 131.261663,110.989858 C131.097363,110.529412 130.882353,110.154158 130.580122,109.768763 C129.811359,108.770791 129.079108,107.744422 128.310345,106.744422 C127.348884,108.097363 126.227181,109.371197 125.413793,110.819473 C125.819473,111.107505 126.231237,111.123732 126.709939,111.154158 L126.736308,111.622718 C125.369168,111.427992 123.991886,111.634888 122.63286,111.434077 C123.064909,111.119675 123.56998,111.034483 124.036511,110.799189 C124.423935,110.557809 124.738337,110.170385 125.022312,109.817444 C125.979716,108.576065 126.920892,107.322515 127.890467,106.089249 C126.829615,104.677485 125.774848,103.257606 124.724138,101.8357 C124.462475,101.511156 124.212982,101.154158 123.809331,100.997972 C123.40568,100.801217 123.010142,100.79716 122.776876,100.35497 Z" id="Shape" fill="#FFFFFF" fill-rule="nonzero"></path>
                <path d="M100.880325,100.904665 C102.314402,100.770791 103.874239,100.967546 105.083164,101.805274 C106.178499,102.515213 106.855984,103.801217 107.018256,105.075051 C107.121704,106.21501 107.129817,107.411765 106.636917,108.470588 C106.137931,109.649087 105.093306,110.529412 103.845842,110.823529 C103.105477,110.997972 102.11359,111.156187 101.413793,110.787018 C100.793103,110.371197 100.904665,109.78499 100.860041,109.127789 C100.853955,106.963489 100.864097,104.801217 100.858012,102.636917 C100.862069,102.060852 100.833671,101.478702 100.880325,100.904665 Z" id="Shape" fill="#000000" fill-rule="nonzero"></path>
                <path d="M94.6592292,117.298174 C94.6693712,120.322515 94.6247465,123.350913 94.6916836,126.375254 C94.7667343,127.675456 94.8559838,129.231237 95.6511156,130.31643 C96.2697769,131.135903 97.1419878,131.373225 98.1054767,131.545639 C98.0973631,132.817444 98.1034483,134.089249 98.0993915,135.359026 C88.2880325,135.359026 78.4766734,135.356998 68.6653144,135.361055 C68.6612576,134.089249 68.663286,132.819473 68.663286,131.549696 C70.3225152,131.438134 72.0365112,131.324544 73.2819473,130.079108 C74.5983773,128.780933 74.7302231,126.578093 74.7870183,124.841785 C74.8073022,122.330629 74.7951318,119.817444 74.7931034,117.306288 C81.4158215,117.288032 88.0365112,117.30426 94.6592292,117.298174 Z" id="Shape" fill="#FFFFFF" fill-rule="nonzero"></path>
                <path d="M105.137931,117.31643 C111.73428,117.27789 118.387424,117.30426 124.989858,117.30426 C125.004057,120.054767 124.94929,122.807302 125.024341,125.555781 C125.099391,127.158215 125.377282,129.034483 126.604462,130.188641 C127.853955,131.324544 129.529412,131.446247 131.129817,131.549696 C131.127789,132.819473 131.131846,134.089249 131.127789,135.361055 C121.314402,135.356998 111.501014,135.356998 101.687627,135.361055 C101.677485,134.089249 101.687627,132.815416 101.677485,131.543611 C102.342799,131.403651 102.979716,131.302231 103.549696,130.89858 C104.296146,130.371197 104.689655,129.486815 104.855984,128.612576 C105.099391,127.251521 105.146045,125.918864 105.135903,124.543611 C105.150101,122.137931 105.081136,119.720081 105.137931,117.31643 Z" id="Shape" fill="#FFFFFF" fill-rule="nonzero"></path>
                <path d="M96.4868154,117.742394 C97.178499,117.669371 97.8864097,117.720081 98.5821501,117.685598 C100.095335,117.590264 101.622718,117.539554 103.137931,117.600406 C103.263692,117.701826 103.318458,117.837728 103.306288,118.008114 C103.340771,119.442191 103.288032,120.878296 103.3286,122.312373 C103.326572,124.36714 103.43002,126.318458 103.075051,128.290061 C102.957404,128.890467 102.677485,129.46856 102.032454,129.626775 C101.245436,129.795132 100.395538,129.730223 99.5943205,129.74645 C98.9452333,129.732252 98.2150101,129.778905 97.5943205,129.56998 C97.040568,129.381339 96.8154158,128.720081 96.6997972,128.20284 C96.3732252,126.425963 96.4787018,124.521298 96.4563895,122.718053 C96.4827586,121.06288 96.4056795,119.395538 96.4868154,117.742394 Z" id="Shape" fill="#FE6307" fill-rule="nonzero"></path>
            </g>
        </g>
    </g>
</svg>