<?xml version="1.0" encoding="UTF-8"?>
<svg width="200px" height="200px" viewBox="0 0 200 200" version="1.1" xmlns="http://www.w3.org/2000/svg" xmlns:xlink="http://www.w3.org/1999/xlink">
    <!-- Generator: Sketch 51.3 (57544) - http://www.bohemiancoding.com/sketch -->
    <title>henderson-st</title>
    <desc>Created with Sketch.</desc>
    <defs></defs>
    <g id="henderson-st" stroke="none" stroke-width="1" fill="none" fill-rule="evenodd">
        <g id="henderson-st_BGL" transform="translate(0.000000, 43.000000)">
            <g id="henderson-st">
                <g id="g10" transform="translate(99.999998, 56.795182) scale(-1, 1) rotate(-180.000000) translate(-99.999998, -56.795182) translate(0.000000, 0.168678)" fill-rule="nonzero">
                    <g id="g12">
                        <path d="M198.816059,65.9205606 C196.016059,70.6356609 189.7012,70.6356609 187.325297,70.6356609 L174.81606,70.6356609 L197.288348,112.818471 L71.3089942,112.818471 L50.651324,74.2953395 L19.1666662,74.2953395 L0,38.5589549 L31.4815253,38.5589549 L10.8013652,0 L137.181523,0 L157.322888,37.8043364 L164.657024,37.8043364 L167.020076,42.2213644 C167.406422,42.2104407 167.77108,42.2072279 168.102004,42.2072279 L179.48112,42.2072279 C182.271481,42.2072279 190.759031,42.2072279 194.210437,49.112047 L195.3261,51.3428903 C195.504413,51.6951794 195.657023,52.0582316 195.783931,52.4269063 L195.938148,52.4269063 L198.840156,57.7202395 C200.314854,60.4257816 200.303609,63.4123679 198.816059,65.9205606" id="path14" fill="#FFFFFF"></path>
                        <path d="M197.102806,64.9074683 C195.134935,68.2212834 190.843369,68.6455405 187.325297,68.6455405 L175.943771,68.6455405 C175.730919,68.6455405 175.508429,68.6424079 175.287546,68.6424079 L175.287546,68.6455405 L171.496381,68.6455405 L193.971079,110.824094 L135.576703,110.824094 L120.281925,82.3252991 L115.621684,82.3252991 L130.916463,110.824094 L72.500962,110.824094 L51.836063,72.2985524 C51.4928501,72.3016849 51.138312,72.3057813 50.7737337,72.3057813 L20.3595979,72.3057813 L3.32831317,40.5481114 L31.2609631,40.5481114 L32.5558225,42.9759829 L34.7957421,40.5199187 L14.1318069,1.99203208 L72.5395163,1.99203208 L88.2771062,31.3437743 L92.944576,31.3437743 L77.2078696,1.99203208 L135.986342,1.99203208 L158.472285,44.1986334 L179.48112,44.1986334 C181.966261,44.1986334 189.525296,44.1986334 192.428911,50.0047377 L193.545377,52.2402397 C193.9012,52.9383119 194.755818,54.4186332 194.755818,54.4186332 L197.091561,58.6771873 C198.220075,60.747388 198.222485,63.0145366 197.102806,64.9074683" id="path16" fill="#0A0604"></path>
                        <path d="M162.828108,42.2104407 L162.522084,40.4791155 L164.065859,42.2104407 L164.754213,42.2104407 L163.464253,39.7913243 L163.019273,39.7913243 L164.060237,41.7451395 L162.349394,39.7913243 L161.965458,39.7913243 L162.332526,41.7451395 L161.287546,39.7913243 L160.844976,39.7913243 L162.138149,42.2104407 L162.828108,42.2104407 Z M159.453008,41.806264 L159.667466,42.2104407 L161.72851,42.2104407 L161.510839,41.806264 L160.722084,41.806264 L159.645779,39.7913243 L159.166261,39.7913243 L160.242566,41.806264 L159.453008,41.806264 Z" id="path18" fill="#0A0604"></path>
                        <polyline id="path20" fill="#FFFFFF" points="150.658631 44.1986334 131.534133 8.54136525 88.1437729 8.54136525 103.881122 37.8890754 84.3582308 37.8890754 68.6200786 8.54136525 25.0709231 8.54136525 42.2182319 40.5104408 40.2808022 40.5104408 38.34273 40.5104408 19.3627304 5.12612839 70.6657814 5.12612839 86.4008011 34.4769469 98.1750979 34.4769469 82.4377489 5.12612839 133.577507 5.12612839 154.533329 44.1986334 152.597587 44.1986334 150.658631 44.1986334"></polyline>
                        <path d="M137.448189,107.692367 L122.15582,79.1911627 L110.385539,79.1911627 L125.678712,107.692367 L74.3746969,107.692367 L55.2827295,72.0952592 C55.9240147,72.0249781 56.5229705,71.9371066 57.0792757,71.8320464 C57.6995166,71.7162231 58.268111,71.5763034 58.7907616,71.4077894 L76.418472,104.275499 L119.970278,104.275499 L104.675499,75.7781507 L124.197587,75.7781507 L139.494776,104.275499 L182.880317,104.275499 L163.770277,68.6455405 L165.707626,68.6455405 L167.643369,68.6455405 L188.587947,107.692367 L137.448189,107.692367" id="path22" fill="#FFFFFF"></path>
                        <path d="M60.8073077,70.5446569 L60.8685125,70.5110826 C61.6641752,70.0301187 62.3779101,69.3979099 62.9505205,68.6455405 L78.3578294,68.6455405 L87.5887528,68.6455405 L99.6120457,68.6455405 C102.061845,68.6455405 105.666664,68.6455405 105.666664,68.6455405 L126.922085,68.6455405 C129.383933,68.6455405 133.00321,68.6455405 133.00321,68.6455405 L146.105217,68.6455405 L155.333329,68.6455405 L163.770277,68.6455405 L182.880317,104.275499 L139.494776,104.275499 L124.197587,75.7781507 L104.674696,75.7781507 L119.970278,104.275499 L76.418472,104.275499 L58.7907616,71.4077894 C59.5516451,71.1730906 60.2199182,70.8860223 60.8073077,70.5446569" id="path24" fill="#A21A34"></path>
                        <path d="M142.224896,44.1986334 L119.893973,44.1986334 L119.901202,44.21277 C119.630519,44.2049788 119.365459,44.1986334 119.078712,44.1986334 L92.5574274,44.1986334 L92.5646563,44.21277 C92.3012025,44.2049788 92.0433712,44.1986334 91.7718853,44.1986334 L74.4873074,44.1986334 L65.2488337,44.1986334 L61.5669061,44.1986334 L64.9322072,40.5104408 L42.2182319,40.5104408 L25.0709231,8.54136525 L68.6200786,8.54136525 L84.3582308,37.8890754 L103.881122,37.8890754 L88.1437729,8.54136525 L131.534133,8.54136525 L150.658631,44.1986334 L142.224896,44.1986334" id="path26" fill="#A21A34"></path>
                        <path d="M195.080316,63.7054603 C194.020075,65.4963839 191.627304,66.2964642 187.325297,66.2964642 L151.411241,66.2964642 L147.510036,66.2964642 L83.6674678,66.2964642 L79.7612028,66.2964642 L61.6393559,66.2964642 C61.2224081,67.253412 60.4913238,67.9960626 59.6592756,68.4939742 L59.6294764,68.5143758 C57.9097977,69.5111629 55.177589,69.9570264 50.7737337,69.9570264 L21.7652203,69.9570264 L7.25338938,42.8966254 L29.8556619,42.8966254 L32.0485133,47.0187137 L35.8424087,42.8598383 L59.6122073,42.8598383 L56.2500388,46.5471474 L69.1714039,46.5471474 L73.0801588,46.5471474 L136.919675,46.5471474 L140.82088,46.5471474 C140.82088,46.5471474 164.956622,46.5471474 168.102004,46.5471474 L179.48112,46.5471474 C183.172686,46.5471474 188.310035,47.0155812 190.327706,51.0542156 L191.444172,53.2859424 C192.016863,54.4097978 193.365457,56.7677094 193.365457,56.7677094 L195.029714,59.8042555 C195.751802,61.1254603 195.770276,62.5483518 195.080316,63.7054603" id="path28" fill="#FFFFFF"></path>
                        <polyline id="path30" fill="#8F9295" points="77.6073073 60.4066652 70.7225685 60.4066652 69.5870665 58.2862636 76.4706005 58.2862636 74.6599178 54.9567055 67.8049782 54.9567055 66.4457815 52.4387939 73.3292351 52.4387939 71.5471468 49.112047 53.5049786 49.112047 61.3472274 63.7327695 79.3872269 63.7327695 77.6073073 60.4066652"></polyline>
                        <polyline id="path32" fill="#8F9295" points="165.30361 60.4066652 158.42088 60.4066652 157.287546 58.2862636 164.170277 58.2862636 162.358229 54.9567055 155.502807 54.9567055 154.144574 52.4387939 161.028108 52.4387939 159.246582 49.112047 141.199996 49.112047 149.04337 63.7327695 167.087546 63.7327695 165.30361 60.4066652"></polyline>
                        <path d="M92.9783109,59.3442555 C93.6337326,60.5525286 92.0971865,60.4066652 90.6995961,60.4066652 L86.4224878,52.4529304 C88.178311,52.4529304 89.1927689,52.288834 89.8514034,53.5150187 L92.9783109,59.3442555 Z M100.736544,52.6395971 C100.021684,51.3187136 99.0369453,50.4078702 97.7212827,49.8964646 C96.4032104,49.3656213 94.4289133,49.112047 91.7718853,49.112047 L73.4538134,49.112047 L81.2955803,63.7327695 L99.6120457,63.7327695 C102.136544,63.7327695 103.80803,63.4946169 104.658632,63.0036129 C105.481122,62.5090747 105.616865,61.7027294 105.014455,60.5885929 L100.736544,52.6395971 Z" id="path34" fill="#8F9295"></path>
                        <path d="M120.286744,59.3442555 C120.944575,60.5525286 119.407226,60.4066652 118.010439,60.4066652 L113.73333,52.4529304 C115.487547,52.4529304 116.502808,52.288834 117.159033,53.5150187 L120.286744,59.3442555 Z M128.046583,52.6395971 C127.334937,51.3187136 126.346182,50.4078702 125.029716,49.8964646 C123.714053,49.3656213 121.740559,49.112047 119.078712,49.112047 L100.761443,49.112047 L108.604817,63.7327695 L126.922085,63.7327695 C129.444173,63.7327695 131.116463,63.4946169 131.967065,63.0036129 C132.791161,62.5090747 132.927708,61.7027294 132.323691,60.5885929 L128.046583,52.6395971 Z" id="path36" fill="#8F9295"></path>
                        <polyline id="path38" fill="#8F9295" points="139.286744 49.112047 128.099595 49.112047 135.942165 63.7327695 147.130117 63.7327695 139.286744 49.112047"></polyline>
                        <path d="M191.849794,59.3266652 L180.66104,59.3266652 C181.840959,61.4125286 177.178309,60.2983921 178.19357,59.2708419 C178.385538,59.0919664 179.291562,58.8714042 179.620076,58.7970266 L187.488349,56.8787938 C189.325296,56.4379102 189.628911,55.3614444 189.161441,54.4468259 L188.03614,52.1963039 C186.777505,49.6746172 183.157425,49.112047 179.48112,49.112047 L168.102004,49.112047 C165.608028,49.112047 161.386341,49.4016855 162.673088,51.8307618 L164.072285,54.4468259 L175.341361,54.4468259 L174.794373,53.4246573 C174.492365,52.8395168 174.492365,52.4002397 175.61606,52.4002397 C176.740558,52.4002397 177.286743,52.8724485 177.618469,53.5150187 C177.752606,53.7691553 177.97349,54.2115649 177.806421,54.4631312 C177.644172,54.7213641 176.877104,54.9048982 176.519674,54.9975087 L169.719674,56.5684323 C168.073088,56.9691552 165.907626,57.6828901 166.675498,59.1625688 L167.882727,61.4501993 C168.924494,63.4042554 171.090759,63.7327695 175.943771,63.7327695 L187.325297,63.7327695 C189.817666,63.7327695 194.097987,63.4428097 192.782324,61.0293961 L191.849794,59.3266652" id="path40" fill="#8F9295"></path>
                        <path d="M37.4061838,62.4623278 C39.6272279,62.4623278 42.0133323,62.5684322 41.1091556,60.8446571 L39.5027299,57.8530106 C38.9297982,56.8106813 38.1058625,56.2907616 36.3366256,56.2907616 L34.1146176,56.2907616 L37.4061838,62.4623278 Z M58.3415246,66.3004803 C57.0679504,67.0397574 54.557589,67.3942955 50.7737337,67.3942955 L23.2987946,67.3942955 L11.5345379,45.4593563 L28.315421,45.4593563 L31.441686,51.3303602 L31.587951,51.3303602 L36.9731718,45.4191957 L53.8093159,45.4191957 L48.0625691,51.7224887 C49.2334927,51.9148581 50.2368662,52.1721272 51.0620871,52.5052999 C53.0339746,53.2991151 54.557589,54.6711633 55.6272275,56.6208821 L58.8767857,62.6816852 C59.7838539,64.3526892 59.5764644,65.5600787 58.3415246,66.3004803 Z" id="path42" fill="#8F9295"></path>
                    </g>
                </g>
            </g>
        </g>
    </g>
</svg>