<?xml version="1.0" encoding="UTF-8"?>
<svg width="200px" height="200px" viewBox="0 0 200 200" version="1.1" xmlns="http://www.w3.org/2000/svg" xmlns:xlink="http://www.w3.org/1999/xlink">
    <!-- Generator: Sketch 51.3 (57544) - http://www.bohemiancoding.com/sketch -->
    <title>hillsdale</title>
    <desc>Created with Sketch.</desc>
    <defs></defs>
    <g id="hillsdale" stroke="none" stroke-width="1" fill="none" fill-rule="evenodd">
        <g id="hillsdale_BGL" transform="translate(0.000000, 18.000000)">
            <g id="hillsdale">
                <g id="g10" transform="translate(99.819744, 82.201439) scale(-1, 1) rotate(-180.000000) translate(-99.819744, -82.201439) translate(0.319744, 0.201439)">
                    <g id="g12">
                        <path d="M198.38235,22.623115 C198.38235,22.623115 146.801739,35.1234552 171.158416,78.5973091 C171.453364,78.8924922 163.065625,76.2820887 162.179477,76.2820887 C182.858443,125.521653 144.540038,150.131535 144.540038,150.131535 C144.540038,150.131535 143.371993,146.81105 142.48976,144.832308 C139.028692,148.096777 135.763386,150.653902 132.50852,152.683449 C120.803403,160.934507 109.483284,162.749114 91.9162769,163.805573 C92.8221318,162.316631 96.9795894,154.496754 96.9795894,154.496754 C95.8997676,154.316986 92.4872487,153.930096 89.6334339,153.831094 C83.8844332,156.716489 60.4179498,160.775582 59.1282714,160.775582 C57.9893295,160.775582 63.4690925,156.108146 65.9976818,151.818481 C65.1290217,151.690821 64.2338684,151.554041 63.3187475,151.40684 C64.1002284,150.592677 64.8532586,149.120669 64.8532586,149.120669 C61.3916688,147.729427 51.2110136,140.863098 47.0358069,132.686291 C47.0638661,132.683686 52.809343,136.056277 59.9820537,138.832249 C57.8832267,136.707608 55.964892,134.312013 54.6562899,131.775731 C42.6174641,124.710095 29.2516347,116.883704 29.2516347,116.883704 C29.2516347,116.883704 2.1661299,99.365121 0.878889356,96.8116438 C-0.194232201,94.6795777 -0.16364508,74.1448119 1.29692161,69.8043437 C2.30121856,66.8148657 13.1063538,61.0399065 15.9943878,60.932958 C19.8612044,60.7900561 31.6083452,63.9372864 33.6143811,65.0795903 C35.3951605,66.0942333 40.8356407,71.2113484 41.5683117,71.8269862 C43.0686297,73.0869205 47.2234772,73.5169291 49.610335,73.2365963 C50.6543977,73.117012 56.247833,72.1216483 60.4995172,71.002662 C73.3157782,67.6259028 85.0181548,76.2057528 85.0181548,76.2057528 L52.8195227,25.6206695 C52.8195227,25.6206695 76.435829,36.7620731 95.3110467,31.5228987 C119.852523,23.6952055 137.129803,0.717428264 137.099786,0.621291842 C156.879554,5.13488382 152.82598,11.8969999 150.170146,25.2090284 C172.088937,18.1991462 198.38235,22.623115 198.38235,22.623115" id="path20" fill="#104076" fill-rule="nonzero"></path>
                        <path d="M173.575421,29.0986455 C150.420721,42.456137 157.926226,69.0435893 157.926226,69.0435893 C157.926226,69.0435893 148.40046,66.010863 149.421031,66.6245468 C150.440297,67.2315871 160.374553,77.9179711 161.90541,97.1957987 C162.811135,108.550578 160.40196,116.516354 158.666206,120.61583 C157.093587,126.192524 155.164681,129.123512 155.164681,129.123512 L150.48467,120.519433 C150.48467,120.519433 148.461798,129.609405 136.99277,140.383718 C121.002689,155.406011 100.843796,155.467236 100.843796,155.467236 L104.517852,149.136301 L91.4951281,150.467621 L93.95755,145.940873 L93.7765356,146.067231 C88.5102834,148.762437 71.4193688,154.60748 70.6292744,153.967873 C69.8406156,153.329569 75.9183654,138.273407 75.9183654,138.273407 L31.1918947,112.372587 C31.1918947,112.372587 8.11544703,97.109302 7.208013,95.4046391 C5.80096888,92.758673 5.63783408,75.877482 7.43996458,72.9083256 C8.80775195,70.6535487 16.3538063,67.2091813 18.1431993,67.2249436 C20.2639516,67.2443532 30.6305805,70.1778167 31.5481811,70.6312732 C32.4683918,71.0845994 38.083883,76.8163102 39.1442591,77.5261305 C40.2046353,78.236081 47.2234772,79.8083935 49.5619166,79.7472987 C50.6630112,79.7192915 57.2169842,77.9382926 63.585375,77.7449776 C87.5993387,77.0148358 102.626533,93.8587706 102.626533,93.8587706 C102.626533,93.8587706 85.7369919,65.5915362 73.4636436,40.68582 C73.4636436,40.68582 90.8660804,44.252377 104.145775,40.2756118 C124.598832,34.1516697 130.976358,9.63557945 140.962818,13.7364882 C146.617723,16.0537929 143.82616,28.4341579 143.007876,34.9683082 C156.743826,28.8366803 173.658946,29.0478417 173.575421,29.0986455" id="path22" fill="#AEACAC" fill-rule="nonzero"></path>
                        <path d="M142.838216,61.2302254 C166.787709,84.459286 155.364358,121.299727 155.364358,121.299727 C155.364358,121.299727 148.822,112.010447 148.798508,112.101634 C141.239495,144.412851 108.011547,149.963491 108.011547,149.963491 L110.150179,145.085024 L98.2362494,146.915263 L101.290916,139.901734 C101.290916,139.901734 78.334718,149.151933 76.277784,149.473691 C74.0626745,149.826712 81.1284993,136.54738 81.1284993,136.54738 L35.3044576,110.933146 C35.3044576,110.933146 10.969288,94.567679 10.2530218,93.5525149 C9.53931362,92.5373508 8.83578503,78.7296595 10.8403071,74.7295767 C11.815553,72.7831398 17.9178122,69.9437285 19.2723531,70.0165472 C20.0691034,70.0597956 29.6049194,73.0869205 30.7417732,73.720014 C31.8786269,74.3503719 37.4032846,80.4149127 38.4992894,81.1278594 C39.5954247,81.8397639 43.6778403,83.6272761 46.2573277,83.4838531 C47.0592983,83.4390415 54.6690797,82.0829708 58.4006902,83.1475058 C55.4821435,85.0521273 49.544559,91.3770701 47.820942,93.3184266 C47.9688074,93.3422653 60.3114554,86.3140155 67.9910585,86.4845339 C66.6788022,87.3876692 66.592145,87.7210203 64.2567073,89.4638511 C67.3027602,88.0696125 75.9427704,85.0027564 83.8777773,87.4538444 C98.0440113,91.8300056 96.1791849,104.022527 96.1791849,104.022527 C96.8622629,104.828874 98.547119,94.9467536 98.547119,94.9467536 L111.372646,100.261743 L81.7391454,46.8983431 C81.7391454,46.8983431 97.6407421,48.7831641 107.707203,44.7631506 C122.885917,38.7032994 130.654004,19.4538698 136.727839,19.4538698 C147.687887,19.4538698 134.08114,45.7529128 139.478944,41.7136199 C151.745375,32.5340246 163.719469,32.8138363 163.612453,32.8723258 C149.781232,40.2782172 153.530723,63.9733701 153.530723,63.9733701 C153.530723,63.9733701 142.342286,60.7492828 142.838216,61.2302254" id="path24" fill="#FFFFFF" fill-rule="nonzero"></path>
                        <path d="M113.009084,57.454982 C113.082429,57.6554616 126.905558,64.5402884 131.927761,74.4624008 C129.881789,73.399429 129.393429,73.5220094 125.567461,71.7282445 C128.659322,76.5186521 139.375843,88.2476863 134.545748,106.864934 C133.83187,105.818897 132.460233,104.770255 132.154844,104.567039 C128.649143,114.030875 116.582258,124.243742 116.569468,124.278914 C124.252073,123.228969 132.551588,117.030905 134.626663,114.667877 C134.626663,114.667877 135.592421,115.674834 136.025707,116.52417 C141.822865,105.772001 144.149819,99.3635578 141.471799,87.5861948 C142.745555,87.7617936 143.963193,87.934787 144.791918,88.1993576 C137.774512,64.561131 122.77368,59.7855738 113.009084,57.454982" id="path26" fill="#104076"></path>
                        <path d="M107.137275,126.554663 C98.9177613,131.357577 83.3078496,133.8652 71.2537544,127.037951 C64.9720208,123.480382 36.2220582,104.086357 36.2220582,104.086357 C36.2220582,104.086357 55.2181262,112.390825 64.18545,116.242795 C64.9658869,113.026523 68.6639569,111.446395 72.4441164,111.782482 C76.0432614,112.102936 81.3451423,115.962722 80.9566204,120.545486 C80.6161255,124.539446 78.492763,118.905435 81.033098,120.61583 C83.572911,122.326224 90.6162884,123.008819 93.099983,123.600227 C88.9972082,124.983654 88.7218366,125.418743 86.4533494,126.080495 C97.2181577,129.863424 106.936946,126.455661 107.137275,126.554663" id="path28" fill="#AEACAC" fill-rule="nonzero"></path>
                        <path d="M66.6416075,118.558927 C66.4463678,116.330073 68.2285828,114.407345 70.6240541,114.26796 C73.0175678,114.12597 75.1133931,115.81943 75.3116345,118.046981 C75.5079183,120.27844 73.7267474,122.201169 71.330232,122.340553 C68.9391979,122.483846 66.8389353,120.789083 66.6416075,118.558927" id="path30" fill="#FFFFFF" fill-rule="nonzero"></path>
                        <path d="M77.2871316,119.611477 C76.6218027,120.223728 75.3321243,123.144296 73.8051826,121.859871 C73.0445829,121.221567 73.237343,120.357903 73.761854,120.076528 C75.2530365,119.277996 75.8189185,116.713056 74.1977501,115.426026 C74.1060031,115.351774 73.7318372,118.995319 71.880714,119.249338 C70.6256202,119.419986 72.0953994,117.567601 70.5986051,116.586697 C68.6385079,115.302273 73.4152252,114.825499 73.2205075,114.662666 C72.454296,114.02827 69.5219154,113.690881 67.9756586,114.944041 C66.5319809,116.117739 66.05119,117.631432 66.5279352,118.575862 C66.7879068,119.099531 61.9091324,118.832486 61.9091324,118.832486 L70.197424,124.543354 C70.197424,124.543354 69.0054959,122.146457 71.3735606,122.399173 C73.2189414,122.594572 74.7457525,128.913784 87.0706515,128.943745 C82.0690692,127.635873 77.6419824,125.468244 77.2392353,123.062228 C76.9175334,121.178579 77.7398633,119.195928 77.2871316,119.611477" id="path32" fill="#104076" fill-rule="nonzero"></path>
                    </g>
                </g>
            </g>
        </g>
    </g>
</svg>