<?xml version="1.0" encoding="UTF-8"?>
<svg width="200px" height="200px" viewBox="0 0 200 200" version="1.1" xmlns="http://www.w3.org/2000/svg" xmlns:xlink="http://www.w3.org/1999/xlink">
    <!-- Generator: Sketch 51.3 (57544) - http://www.bohemiancoding.com/sketch -->
    <title>holy-names</title>
    <desc>Created with Sketch.</desc>
    <defs></defs>
    <g id="holy-names" stroke="none" stroke-width="1" fill="none" fill-rule="evenodd">
        <g id="holy-names_BGL" transform="translate(0.000000, 14.000000)">
            <g id="holy-names">
                <g id="g10" transform="translate(99.999998, 85.711113) scale(-1, 1) rotate(-180.000000) translate(-99.999998, -85.711113) translate(0.000000, 0.155560)" fill-rule="nonzero">
                    <g id="g12">
                        <path d="M170.09407,100.26222 L170.310366,100.195553 L164.022959,129.496293 C162.927403,134.576293 160.097774,140.87333 155.182959,146.306663 L155.244441,146.359996 L154.790367,146.734811 C152.688144,148.991107 150.224441,151.080737 147.367404,152.859996 L139.23333,159.568885 C135.9837,162.240737 123.440738,171.079996 99.7799975,170.699996 C76.2192574,171.111848 63.5468873,162.242218 60.2777763,159.55407 L52.1599987,152.856292 C49.2042951,151.015552 46.6710359,148.841478 44.5268878,146.501478 L44.3214804,146.33333 L44.3483693,146.308885 C39.4314064,140.871108 36.6044435,134.569626 35.5115547,129.488145 L29.2138511,100.200738 L29.62674,100.320738 L0,27.3969623 L33.7196288,40.3645916 C37.8177028,35.2771843 42.2005175,31.1651844 46.7982951,28.1001474 L70.0066649,12.6215552 L70.6771093,16.6362959 C73.8744426,14.2739996 77.1622203,12.1096293 80.5281461,10.1548146 L101.195553,0 L119.174812,10.1548146 C122.537034,12.1059256 125.819997,14.2697033 129.018515,16.6311107 L129.686663,12.6215552 L152.89407,28.0992586 C157.49407,31.1651844 161.876292,35.2771843 165.974811,40.3645916 L199.692588,27.3969623 L170.09407,100.26222" id="path14" fill="#A4A5A6"></path>
                        <path d="M155.794811,113.154812 L159.152589,112.178516 L155.814811,127.724441 C154.756292,132.631849 150.769626,141.168145 142.244441,146.145182 L142.276293,146.17333 L133.9037,153.081478 C131.980737,154.659255 121.148886,162.687403 99.7711086,162.301477 C78.3348129,162.736292 67.5442946,154.659255 65.6220724,153.077774 L57.2505912,146.169626 L57.282443,146.139996 C48.7557766,141.165182 44.7742952,132.628145 43.7210359,127.720738 L40.3784434,112.18296 L43.9259248,113.21259 L15.0731848,42.1895545 L36.6631843,50.4948136 C40.1316286,45.3993322 45.1643692,39.2821472 51.4577765,35.0836288 L63.8637021,26.8119253 L64.8287391,32.5934807 C71.0048871,26.6067401 77.6799981,21.5162217 84.7437016,17.4149625 L100.917035,9.48666643 L114.957034,17.4149625 C122.016293,21.5141476 128.691108,26.6067401 134.868886,32.5963696 L135.834071,26.8125178 L148.237033,35.0836288 C154.527404,39.2777768 159.562218,45.3993322 163.030366,50.4948136 L184.622218,42.1895545 L155.794811,113.154812" id="path16" fill="#231F20"></path>
                        <path d="M79.9740721,110.969627 C78.7451832,110.010368 77.2044425,109.43259 75.5222203,109.43259 C71.9849612,109.43259 69.0445909,111.960738 68.4051094,115.315553 C68.7205168,115.163701 69.0740723,115.069627 69.4488131,115.069627 C70.7971834,115.069627 71.8903686,116.168145 71.8903686,117.51333 C71.8903686,118.859256 70.7971834,119.954071 69.4488131,119.954071 C69.3099242,119.954071 69.1724427,119.936293 69.0408131,119.91333 C69.2803686,120.39259 69.5654057,120.846664 69.9054057,121.257034 C68.5358501,121.38296 67.4016279,121.331108 66.5075539,121.202219 C65.8159984,119.759256 65.4210354,118.148145 65.4210354,116.442219 C65.4210354,110.334071 70.3683686,105.385923 76.4725907,105.385923 C79.3148128,105.385923 81.8977757,106.465923 83.8525905,108.228886 C82.7251831,109.05259 81.0244424,110.239257 79.9740721,110.969627" id="path18" fill="#FFFFFF"></path>
                        <path d="M133.881478,121.202219 C132.987404,121.331108 131.852589,121.38296 130.486663,121.257034 C130.8237,120.846664 131.111108,120.39259 131.351849,119.910367 C131.217034,119.936293 131.081478,119.954071 130.939256,119.954071 C129.590367,119.954071 128.497775,118.859256 128.497775,117.51333 C128.497775,116.168145 129.590367,115.069627 130.939256,115.069627 C131.314812,115.069627 131.6637,115.163701 131.98296,115.315553 C131.346663,111.965923 128.404441,109.43259 124.865182,109.43259 C123.185182,109.43259 121.648145,110.010368 120.417775,110.969627 C119.361478,110.239257 117.663701,109.05259 116.536293,108.228886 C118.491849,106.465923 121.077775,105.385923 123.914812,105.385923 C130.02296,105.385923 134.967404,110.334071 134.967404,116.442219 C134.967404,118.148145 134.568886,119.759256 133.881478,121.202219" id="path20" fill="#FFFFFF"></path>
                        <path d="M133.808145,133.579997 C133.454071,133.669626 131.831108,134.034071 129.666663,133.828145 C126.726663,133.544441 122.558515,132.17333 119.399997,127.237034 C116.031108,121.97333 112.54296,119.130367 109.03259,118.791849 C107.770368,118.671108 106.481479,118.898516 105.179257,119.437775 C106.505923,118.683701 107.851849,118.297775 109.210368,118.297775 C112.734071,118.297775 116.477775,120.791849 120.336293,125.711849 C123.956293,130.320737 128.232589,131.287404 131.187404,131.287404 C133.368145,131.287404 134.94296,130.765182 135.279256,130.642219 C137.168145,130.221478 138.847404,129.2437 140.289626,127.741478 C138.847404,131.332589 136.927404,132.824441 133.808145,133.579997" id="path22" fill="#C21B32"></path>
                        <path d="M57.511598,120.90296 C57.518398,120.91096 57.5246647,120.924293 57.528798,120.933627 C57.2434647,121.09496 57.2189314,121.09496 57.511598,120.90296" id="path24" fill="#A4A5A6"></path>
                        <path d="M57.9285171,121.411108 C57.7880474,121.290367 57.6185954,121.124441 57.4285171,120.919997 C57.5256188,120.88296 57.6599535,120.828886 57.830146,120.759997 C57.8652634,120.976293 57.8880051,121.189627 57.9285171,121.411108" id="path26" fill="#C21B32"></path>
                        <path d="M99.9577753,41.8489619 L99.9577753,55.370369 L97.0503679,61.6993318 C97.0088865,61.7792577 94.1962939,67.9022205 91.0874051,74.574813 L85.3896275,79.0162943 C85.2918497,79.0948128 75.2785166,86.8229608 65.9042206,88.8148126 L60.1446652,90.0407385 C60.1446652,90.0407385 63.3442947,96.9481457 72.7792574,99.8674049 C67.4054057,100.974812 55.9707393,105.180738 57.7097763,120.759997 C57.5905912,120.828886 57.4965171,120.88296 57.4285171,120.919997 C57.4262208,120.914812 57.4227393,120.907404 57.4189615,120.90296 C57.431406,120.89259 57.4348875,120.890367 57.4473319,120.879997 L55.8515542,116.956293 L32.3813325,59.178517 L40.7372582,62.3911836 C40.7372582,62.3911836 47.1628877,49.5355543 56.8055541,43.1082211 L58.7340726,54.6756283 C58.7340726,54.6756283 69.6622946,37.322888 89.5859237,25.7534808 L98.1607383,39.0584435 C98.9229605,37.7601472 99.544442,36.568888 99.9607382,35.5431102 L99.9577753,41.8489619" id="path28" fill="#C21B32"></path>
                        <path d="M101.23259,127.602219 L101.23259,143.49407 C101.473331,151.179255 106.623701,152.651107 112.41259,151.845922 C108.837034,152.511848 104.629627,152.921478 99.7681457,152.814811 C80.7296276,153.237033 71.6602945,145.756293 71.6602945,145.756293 L77.8051832,140.065182 C56.8648875,143.707404 52.9962209,125.723701 52.9962209,125.723701 C56.2277023,126.667404 58.7340726,126.93333 60.5107392,126.948145 C61.656517,128.208145 63.2314799,129.377034 65.3437761,129.836293 C65.3437761,129.836293 73.3211834,132.928886 79.3925906,125.191108 C85.2948127,117.663701 92.4377755,113.865923 99.6155531,122.090367 C101.320738,124.855552 101.23259,127.602219 101.23259,127.602219" id="path30" fill="#C21B32"></path>
                        <path d="M109.308145,102.00296 C107.689627,103.425923 106.307405,104.030368 106.307405,104.030368 C106.307405,106.328145 106.969627,108.379257 106.969627,108.379257 C107.84222,107.706664 108.628145,106.694071 109.308145,105.56222 C111.206664,102.413331 112.309627,98.3607383 112.309627,98.3607383 C111.398516,99.9229605 110.308145,101.12296 109.308145,102.00296 Z M91.4051829,102.00296 C90.4007385,101.12296 89.3096274,99.9229605 88.4037015,98.3607383 C88.4037015,98.3607383 89.5029607,102.409627 91.4051829,105.554812 C92.0851829,106.688886 92.870368,107.703701 93.7459236,108.379257 C93.7459236,108.379257 94.4051828,106.328145 94.4051828,104.030368 C94.4051828,104.030368 93.0222199,103.425923 91.4051829,102.00296 Z M113.071108,81.8903683 C113.071108,81.8903683 123.700738,90.1807385 134.0437,92.3777755 C134.0437,92.3777755 129.551849,98.0192568 116.624442,97.467405 C116.624442,97.467405 114.171108,104.201479 109.308145,110.263701 C106.908145,113.256293 103.92222,116.086664 100.358516,117.861479 C96.787405,116.081479 93.8037014,113.253331 91.4051829,110.260738 C86.5422201,104.198516 84.0874053,97.467405 84.0874053,97.467405 C71.1559241,98.0192568 66.6637761,92.3777755 66.6637761,92.3777755 C77.0022203,90.1807385 87.6311089,81.8903683 87.6311089,81.8903683 C87.6311089,81.8903683 85.3525905,87.3014793 84.4555534,89.7777755 C79.4170351,92.6770347 71.7302945,92.6770347 71.7302945,92.6770347 C80.4333313,95.7511087 86.3333312,92.9311088 86.3333312,92.9311088 C87.0992571,91.5496273 89.125183,87.3288867 91.4051829,82.4888868 C95.4740717,73.8474796 100.358516,63.2213318 100.358516,63.2213318 C100.358516,63.2213318 105.240738,73.8422945 109.308145,82.4866646 C111.58296,87.3266645 113.605923,91.5496273 114.374812,92.9311088 C114.374812,92.9311088 120.274812,95.7511087 128.979256,92.6770347 C128.979256,92.6770347 121.294071,92.6770347 116.251108,89.7777755 C115.359997,87.3014793 113.071108,81.8903683 113.071108,81.8903683 Z" id="path32" fill="#A4A5A6"></path>
                        <path d="M95.8014791,108.403701 C95.8014791,108.403701 97.6696272,111.595553 100.551109,112.971108 L100.551109,70.5651093 C100.551109,70.5651093 98.4725901,98.0881457 95.8014791,108.403701" id="path34" fill="#FFFFFF"></path>
                    </g>
                </g>
            </g>
        </g>
    </g>
</svg>