<?xml version="1.0" encoding="UTF-8"?>
<svg width="200px" height="200px" viewBox="0 0 200 200" version="1.1" xmlns="http://www.w3.org/2000/svg" xmlns:xlink="http://www.w3.org/1999/xlink">
    <!-- Generator: Sketch 51.3 (57544) - http://www.bohemiancoding.com/sketch -->
    <title>hood</title>
    <desc>Created with Sketch.</desc>
    <defs></defs>
    <g id="hood" stroke="none" stroke-width="1" fill="none" fill-rule="evenodd">
        <g id="hood_BGL">
            <g id="hood" transform="translate(3.000000, 19.000000)">
                <g id="g10" transform="translate(96.666664, 81.493339) scale(-1, 1) rotate(-180.000000) translate(-96.666664, -81.493339) translate(0.000000, 0.160007)" fill-rule="nonzero">
                    <g id="g12">
                        <path d="M50.4499987,0.980207975 C72.0489315,22.4411994 59.7895985,49.5869321 59.7895985,49.5869321 C57.1983986,49.5869321 52.8822653,46.9906655 52.8822653,46.9906655 L49.2035988,22.5895994 C36.4666658,22.0530661 38.8417324,10.0666664 38.8417324,10.0666664 C9.03854644,10.0666664 1.2635413,27.3453326 1.2635413,27.3453326 C1.2635413,27.3453326 0.831250646,29.0739993 2.98906659,35.5478658 C13.0385463,65.6781317 1.04739597,79.818798 1.04739597,79.818798 L8.39114646,109.511464 C-0.356250658,119.553064 1.91354662,140.93333 1.91354662,140.93333 L25.2349327,132.084397 C33.6583992,142.878663 45.9630655,139.96133 45.9630655,139.96133 L52.122932,152.919996 L59.7895985,144.17333 C71.0150649,154.542663 86.8510645,146.026663 104.991731,145.159996 C123.13333,144.294663 135.56933,160.094663 135.56933,160.094663 C140.747996,150.594663 136.991997,136.626663 136.991997,136.626663 C164.362663,132.620797 178.235996,110.316131 178.235996,110.316131 C175.209329,110.740664 158.263996,110.482797 158.263996,110.482797 C175.973329,94.5035976 193.706662,61.6833318 191.746662,63.3811984 C186.887995,67.5895983 154.769329,88.2723978 165.174663,64.4833317 C175.061329,41.881199 164.011996,1.96250662 164.011996,1.96250662 L50.4499987,0.980207975" id="path14" fill="#FFFFFF"></path>
                        <path d="M59.7895985,50.5473321 L60.4093318,50.5473321 L60.6645318,49.9822654 C60.7863985,49.7114654 72.3338649,23.3666661 52.7218653,1.95989328 L163.270663,2.91614659 C164.663996,8.31874646 173.222662,43.6906656 164.295996,64.0983984 C161.609329,70.2406649 161.447996,74.0707981 163.806663,75.8073314 C168.722662,79.422398 183.178662,70.7103982 189.615995,66.1869317 C185.349329,74.4046648 171.533329,97.2171976 157.619996,109.770264 L155.807996,111.405731 L158.249329,111.442664 C158.842663,111.451597 170.914662,111.632797 176.302662,111.413597 C172.515996,116.54733 159.177329,132.40933 136.85333,135.675997 L135.78533,135.83333 L136.063997,136.874663 C136.098663,137.00533 139.33733,149.370663 135.354663,158.359996 C132.04893,154.662663 120.668264,143.467996 104.945864,144.20133 C99.2687975,144.471996 93.9010643,145.467996 88.7109311,146.431996 C77.5125314,148.507996 67.840665,150.302663 60.4417318,143.467996 L59.7177318,142.799996 L52.3635987,151.190663 L46.4978655,138.851997 L45.7426655,139.027997 C45.2639989,139.139997 33.9193325,141.654663 25.9921327,131.494263 L25.5567994,130.935997 L2.7687466,139.58133 C2.46093327,134.915997 1.93645328,118.38333 9.11510644,110.142664 L9.44322643,109.765597 L2.09166661,80.0426647 C3.99530657,77.4917314 13.207813,63.1515984 3.8994799,35.2442658 C2.16614661,30.0421326 2.16874661,28.037466 2.19530661,27.6239993 C2.55207994,26.9161327 4.61406655,23.1306661 9.55989309,19.3921328 C14.4863996,15.6682663 23.3437327,11.2468797 37.7526657,11.0348931 C37.6021324,12.886453 37.6593324,16.5973329 39.9734657,19.5385328 C41.8026656,21.8639995 44.6245322,23.1947994 48.3702655,23.4999994 L51.9999987,47.5806655 L52.3874654,47.8135988 C52.852132,48.0931988 57.0125319,50.5473321 59.7895985,50.5473321 Z M48.1010655,0 L49.7734654,1.66145329 C68.8827983,20.6478662 60.7759985,44.4603989 59.1682652,48.5750655 C57.4322652,48.3093321 54.9926653,47.0879988 53.7630653,46.3926655 L50.0354654,21.6639995 L49.2442654,21.6306661 C45.6937322,21.4811995 43.0854656,20.3811995 41.491199,18.3614662 C38.885999,15.062533 39.7750657,10.2984397 39.7838657,10.2505197 L40.0057323,9.10781311 L38.8417324,9.10677311 C8.76354645,9.10677311 0.716145315,26.2229327 0.388021324,26.9505327 L0.331770658,27.1119993 C0.248437327,27.4453326 -0.0593750652,29.4374659 2.07811995,35.8515991 C7.17187982,51.1229321 6.41614651,62.1015984 4.88541321,68.6223983 C3.23177325,75.6671981 0.343229325,79.1650647 0.314062659,79.199998 L0,79.5734647 L0.116145864,80.0494647 L7.34166648,109.265597 C-1.19999997,119.637997 0.865103978,140.155996 0.958854643,141.034663 L1.09062531,142.27333 L24.9239994,133.22973 C32.3587992,142.214663 42.5469323,141.45733 45.4093322,141.03333 L51.8827987,154.650663 L59.8770652,145.52933 C67.854665,152.254663 77.7057314,150.426663 89.0614644,148.318663 C94.1890643,147.367996 99.4911975,146.383996 105.036931,146.118663 C122.427064,145.287996 134.694663,160.534663 134.815997,160.689329 L135.715997,161.830663 L136.41333,160.554663 C140.94533,152.23733 138.942663,140.89333 138.167997,137.414663 C164.985329,132.987463 178.911996,111.047331 179.051996,110.823464 L180.135995,109.080664 L178.102662,109.365597 C175.855996,109.680664 165.434663,109.606264 160.667996,109.553064 C169.169329,101.377597 177.155996,90.1349311 182.499995,81.8906646 C186.303995,76.0239981 188.902662,71.4630649 190.113329,69.2655983 C193.301329,63.4849317 193.066662,63.2197318 192.601329,62.6926651 C192.271995,62.3213318 191.658662,62.1874651 191.117329,62.6562651 C186.313329,66.816665 169.055996,77.2921314 164.943996,74.2609315 C163.481329,73.1833315 163.875996,69.8473316 166.054663,64.8677317 C170.223996,55.3359986 171.301329,41.7989323 169.254662,24.6333327 C167.737329,11.904173 164.965329,1.80677329 164.937329,1.70677329 L164.745329,1.00781197 L48.1010655,0 Z" id="path16" fill="#385987"></path>
                        <path d="M16.2390663,112.274531 C15.9119996,111.542664 6.5916665,119.094797 7.85885314,132.65213 C7.85885314,132.65213 20.9953328,125.67813 24.2130661,124.344797 C24.2130661,124.344797 19.4473328,119.46453 16.2390663,112.274531" id="path18" fill="#385987"></path>
                        <path d="M54.4171986,131.40213 C54.4171986,131.40213 60.6437318,125.636397 60.9187985,111.459331 C62.1765318,114.381197 66.7453317,124.011464 60.9978651,132.19373 C57.4265319,137.27733 56.0202653,139.774663 52.893732,142.906663 C52.893732,142.906663 50.6505321,137.959997 48.5526655,131.90733 C43.8885322,118.495864 51.0723987,112.756264 51.0723987,112.756264 L51.1739987,113.068797 C50.9302654,115.58693 49.9197321,125.107864 54.4171986,131.40213" id="path20" fill="#385987"></path>
                        <path d="M44.4510656,26.480266 C44.4510656,26.480266 45.8625322,48.3395988 50.1139987,50.6311987 C65.456265,58.9281319 72.5759982,63.6499984 68.3469316,77.1890647 C68.3469316,77.1890647 62.2453318,62.1890651 46.8885322,55.0114653 C46.8885322,55.0114653 34.7739991,38.461999 36.2478658,27.7745326 C36.2103991,27.7359993 36.3015991,27.8135993 36.2478658,27.7745326 C35.0030658,27.0999993 30.4822659,26.042666 28.642666,22.7770661 C28.1827993,22.1469328 27.7911993,21.5453328 27.4421326,20.9693328 C25.8041327,19.5895995 23.7297327,21.9802661 23.2234661,22.6707994 C22.5917328,23.5374661 19.7583995,29.4833326 24.0083994,30.3969326 C28.2739993,31.3135992 30.5551992,29.7953326 29.3363993,32.6781325 C28.1177326,35.5843991 23.0906661,37.6989324 20.2078662,33.4390658 C17.3207996,29.1781326 19.4578662,25.837466 16.8702662,25.980266 C14.281733,26.1213327 11.5421864,28.253066 11.382293,30.9906659 C11.2312531,33.7333325 11.680213,36.1677324 9.39791977,36.1677324 C7.12291982,36.1677324 8.65573312,34.4229325 8.06302647,30.9229326 C7.45103981,27.4281326 6.97447983,27.1895993 9.56718643,24.753066 C12.155733,22.3187994 13.372933,25.0639994 15.5021329,20.9598661 C17.0421329,18.0041329 23.2078661,16.0947996 27.233866,16.0374663 C30.1609326,15.5666663 35.4369324,15.022933 35.4369324,17.2254662 C35.4302658,25.271866 44.4510656,26.480266 44.4510656,26.480266" id="path22" fill="#385987"></path>
                        <path d="M35.4041324,77.3707981 C30.7270659,75.5635981 33.0187992,81.2822646 33.8259992,81.615598 C35.1297325,82.1625313 35.9291991,82.3707979 39.182799,83.4390646 C39.182799,83.4390646 37.7530657,78.272398 35.4041324,77.3707981 Z M44.9145322,85.2093312 C46.5969322,88.6521311 50.3379987,97.6521309 49.0645321,97.6625309 C48.7270654,97.6729309 47.6385321,96.1311976 47.2426655,95.5322643 C44.7817322,91.8759977 44.0021322,88.5791978 40.008399,87.5114645 C36.0229324,86.4437312 30.4379992,85.7145312 28.7661326,79.3786647 C27.0917327,73.0270648 25.604666,68.5999983 27.3859993,70.6286649 C29.1557326,72.6781315 29.2051993,73.6286648 30.4666659,75.5322648 C32.2062659,78.1286647 35.4447991,71.9021315 39.299999,75.4202648 C42.1645323,78.0270647 41.5333323,78.2953314 44.9145322,85.2093312 Z" id="path24" fill="#285896"></path>
                        <path d="M46.8327988,133.807997 C46.8327988,133.807997 20.0499995,142.011996 8.82083978,89.3239978 L13.305213,99.7822642 C13.6567997,98.2093309 8.43697312,97.6911976 12.3885464,66.547865 C14.5671996,49.3707988 8.1723998,38.772399 8.1723998,38.772399 C8.1723998,38.772399 24.8729327,49.9541321 25.8259994,68.3369316 L19.2521329,64.740665 C19.2521329,64.740665 20.5213328,90.2723977 34.8677325,95.5947976 C49.3406654,100.959331 46.3026655,110.232797 46.3026655,110.232797 C46.3026655,110.232797 42.5135989,127.277063 46.8327988,133.807997" id="path26" fill="#385987"></path>
                        <path d="M149.591996,99.6890642 C149.534663,99.7354642 149.478663,99.7953308 149.43333,99.8369308 C149.498663,99.7666642 149.567996,99.6937308 149.63333,99.6259975 C149.61733,99.6417308 149.59733,99.6702642 149.591996,99.6890642" id="path28" fill="#285896"></path>
                        <path d="M151.894663,107.813597 C165.091996,96.7978642 176.813329,78.3161314 176.813329,78.3161314 C176.813329,78.3161314 167.754662,83.3369312 159.035996,81.1573313 C156.190663,80.4489313 152.903996,77.8811981 156.902663,66.939065 C169.502662,32.4593325 157.401329,10.2770797 157.401329,10.2770797 C153.083996,72.4802649 105.491731,130.730263 66.701065,127.761463 C66.701065,127.761463 55.5863986,153.501329 97.8797309,138.755997 C112.999464,133.490663 131.72453,147.76133 132.013597,148.003996 C132.59173,143.05333 129.16973,138.047997 126.325064,131.649463 C153.346663,129.516663 164.863996,112.615597 162.591996,116.003597 C146.94533,120.272397 134.30533,114.92293 134.30533,114.92293 C140.638663,112.714531 143.811996,114.068797 151.894663,107.813597" id="path30" fill="#385987"></path>
                        <path d="M60.1270652,60.9073318 C60.1270652,60.9073318 74.4874648,50.7093321 65.882265,7.08021316 C65.882265,7.08021316 88.9213311,19.8786662 69.2687983,74.5666648" id="path32" fill="#385987"></path>
                        <path d="M79.9265313,118.357864 C79.9265313,118.357864 149.082663,87.7197311 105.561997,8.35989312 C105.561997,8.35989312 128.60213,7.08021316 150.362663,8.35989312 C150.362663,8.35989312 140.12533,100.120797 79.9265313,118.357864" id="path34" fill="#385987"></path>
                        <path d="M45.5395989,135.531997 C45.5395989,135.531997 9.52551976,123.60573 16.1661329,78.089598 C16.1661329,78.089598 25.0385327,106.709331 28.4849326,107.355731 C28.4849326,107.355731 28.9161326,108.214531 31.7166659,105.297864 C31.7166659,105.297864 34.3051991,127.761463 46.8327988,133.807997" id="path36" fill="#FFFFFF"></path>
                        <path d="M15.9473329,113.503597 C15.9473329,113.503597 4.71926655,83.1155979 9.03854644,81.334398 C12.707813,79.818798 13.5723997,56.4958653 13.5723997,56.4958653 L15.9473329,113.503597" id="path38" fill="#385987"></path>
                    </g>
                </g>
            </g>
        </g>
    </g>
</svg>