<?xml version="1.0" encoding="UTF-8"?>
<svg width="200px" height="200px" viewBox="0 0 200 200" version="1.1" xmlns="http://www.w3.org/2000/svg" xmlns:xlink="http://www.w3.org/1999/xlink">
    <!-- Generator: Sketch 51.3 (57544) - http://www.bohemiancoding.com/sketch -->
    <title>hope</title>
    <desc>Created with Sketch.</desc>
    <defs></defs>
    <g id="hope" stroke="none" stroke-width="1" fill="none" fill-rule="evenodd">
        <g id="hope_BGL" transform="translate(0.000000, 8.000000)" fill="#F36917">
            <g id="hope">
                <g id="g10" transform="translate(99.827286, 92.338515) scale(-1, 1) rotate(-180.000000) translate(-99.827286, -92.338515) translate(0.000000, 0.110538)" fill-rule="nonzero">
                    <g id="g12">
                        <path d="M173.249046,116.372363 C173.926766,116.824177 174.726075,117.03903 175.608286,117.03903 C179.197923,117.03903 184.15889,113.486698 187.896368,107.889462 C192.551981,100.914678 193.541964,93.4058699 190.108458,91.1164053 C189.430047,90.6652827 188.631429,90.4504295 187.748527,90.4504295 C184.337128,90.4504295 179.687042,93.6628647 176.027629,98.7868715 L183.22003,102.838685 C182.286006,108.339203 178.531256,111.421759 178.531256,111.421759 L171.679443,107.908806 C170.737129,111.772709 171.198614,115.005869 173.249046,116.372363 Z M199.211049,10.3785835 L197.825211,14.0614159 C197.651118,14.5242138 197.137128,14.7447319 196.680479,14.5533675 L196.619684,14.5250428 L190.24041,31.6089111 L190.353709,31.6566486 C190.86908,31.8741961 191.141273,32.4835225 190.961653,33.0113981 L189.536437,37.1807245 C189.354745,37.7083238 188.78756,37.9628315 188.27288,37.7458367 L187.993087,37.6284619 L180.408286,57.9439018 C180.802759,58.2383405 180.993432,58.7772697 180.835919,59.2559571 L179.492223,63.3182022 C179.307768,63.8762678 178.716403,64.1472177 178.173398,63.9289103 L167.096369,93.5944709 L170.562345,95.7084605 C175.442483,88.6037974 181.990324,84.2044884 187.748527,84.2044884 C189.874952,84.2044884 191.888078,84.7972345 193.57167,85.918478 C197.266316,88.3827266 198.961653,92.9906713 198.227974,98.5623464 C197.687042,102.659756 195.863898,107.204142 193.091532,111.356819 C188.179615,118.714332 181.479788,123.28428 175.608286,123.28428 C173.481861,123.283589 171.468044,122.690843 169.783761,121.5696 C166.090497,119.106733 164.394469,114.498788 165.128839,108.927113 C165.297405,107.653192 165.602759,106.335749 166.008286,105.001034 L162.866317,103.390671 L149.824521,130.951983 C150.201723,131.240757 150.328839,131.751983 150.098096,132.19896 L148.13402,135.99447 C147.941965,136.367527 147.550946,136.594124 147.144038,136.616922 L137.828667,156.304659 C138.239029,156.560272 138.393779,157.079098 138.166491,157.528839 L136.178235,161.459063 C135.97858,161.854918 135.541275,162.075989 135.112259,162.04421 L127.272536,178.612085 C127.591707,178.851809 127.714677,179.271844 127.52884,179.648355 L125.624176,183.492223 C125.448702,183.845246 125.063209,184.029702 124.686007,183.988251 C120.604487,184.507077 116.319168,181.490151 115.126077,179.884624 C115.126077,179.884624 114.435921,178.930565 114.610014,178.46908 L115.995852,174.78687 C116.169945,174.324003 116.684626,174.102932 117.141966,174.294296 L117.20276,174.321239 L123.581344,157.238683 L123.468045,157.191015 C122.953365,156.972708 122.67979,156.363381 122.860791,155.836266 L124.286698,151.667008 C124.466318,151.138511 125.034885,150.884279 125.549565,151.100514 L125.829358,151.218649 L133.413468,130.904315 C133.019686,130.608632 132.828321,130.070463 132.986525,129.590325 L134.328839,125.530221 C134.514677,124.971327 135.10466,124.700515 135.649047,124.918822 L146.725385,95.2525019 L32.2954741,36.4373048 C34.8286693,40.7226933 33.9372703,47.8087035 32.6395156,57.3215875 C31.8007591,63.4741953 32.8216918,68.7821054 33.7597228,72.0179602 C34.3744378,74.1347132 33.6228662,74.265974 31.2516054,73.2828997 C28.8803447,72.2991346 25.4684622,71.4321226 21.3053535,71.8949896 C12.9778926,72.8207236 11.5903279,70.7378221 11.5903279,70.7378221 C10.985561,62.4683922 14.4834539,56.8717775 14.4834539,56.8717775 C14.4834539,56.8717775 -17.5561308,28.6382722 13.6715022,9.20766816 C42.769878,-8.89816903 88.731604,9.44594104 94.8670097,12.0339203 C96.8994794,7.83088063 99.8390303,3.71599991 104.017269,7.57912233e-15 C104.017269,7.57912233e-15 126.104315,5.17298087 135.462518,21.6996195 C141.820376,32.9277367 147.624867,38.4801372 152.68048,44.2176846 C154.545765,46.3344375 154.719167,48.4172699 149.868045,47.6236258 C144.239029,46.7033494 135.957855,47.1378227 126.960964,50.3240747 C110.306733,56.2230038 93.1316039,47.0279781 93.1316039,47.0279781 C93.1316039,47.0279781 90.4980979,39.50936 90.7668371,29.6815882 C72.4469757,25.065837 53.7982715,29.925526 53.7982715,29.925526 L151.25181,84.8290134 L163.997233,57.8956117 C163.622103,57.6063543 163.492915,57.0957499 163.723657,56.6480124 L165.687042,52.8524339 C165.879098,52.4786861 166.270808,52.2527793 166.677716,52.2301196 L175.993778,32.5423826 C175.583415,32.2868386 175.427284,31.7678749 175.655954,31.3179958 L177.64421,27.3879786 C177.843864,26.9926764 178.28117,26.7702929 178.709495,26.8040062 L186.548527,10.2355783 C186.230047,9.99592376 186.106386,9.57526746 186.292223,9.19930892 L188.197577,5.35540574 C188.374434,5.0010776 188.757854,4.81730558 189.135747,4.85859055 C193.218648,4.34045585 197.503277,7.35668375 198.696368,8.96234865 C198.696368,8.96234865 199.385833,9.91633827 199.211049,10.3785835 Z" id="path14"></path>
                    </g>
                </g>
            </g>
        </g>
    </g>
</svg>