<?xml version="1.0" encoding="UTF-8"?>
<svg width="200px" height="200px" viewBox="0 0 200 200" version="1.1" xmlns="http://www.w3.org/2000/svg" xmlns:xlink="http://www.w3.org/1999/xlink">
    <!-- Generator: Sketch 51.3 (57544) - http://www.bohemiancoding.com/sketch -->
    <title>humboldt-st</title>
    <desc>Created with Sketch.</desc>
    <defs></defs>
    <g id="humboldt-st" stroke="none" stroke-width="1" fill="none" fill-rule="evenodd">
        <g id="humboldt-st_BGL" transform="translate(0.000000, 48.000000)">
            <g id="humboldt-st">
                <g id="g10" transform="translate(100.500000, 52.082769) scale(-1, 1) rotate(-180.000000) translate(-100.500000, -52.082769) translate(0.000000, 0.007870)" fill-rule="nonzero">
                    <g id="g12">
                        <path d="M196.933755,71.0184305 C197.670289,72.3806018 199.197832,76.5115628 199.197832,79.886747 C199.197832,88.6400595 196.107932,94.7865473 189.124399,101.342553 L188.375857,102.045544 L187.37676,101.824334 C187.215187,101.788909 173.426866,98.7502225 165.271736,98.1409107 C165.271736,98.1409107 164.462311,98.65733 163.392965,99.2060254 C162.322839,99.7539336 157.716845,102.082544 151.574739,102.513155 C146.76034,102.929597 138.06039,102.584006 137.692753,102.569835 L133.061782,98.0393588 C128.125618,98.0913156 123.653097,98.1338257 117.833357,100.197928 C110.903682,99.4414055 104.511802,95.5131555 97.3807461,90.8504251 C95.1093612,89.3641453 92.9644246,87.9589497 90.888176,86.7363901 C82.0648997,81.531262 65.0614377,80.7086125 64.8907326,80.7007402 C64.8922156,80.7015274 23.458722,78.8877623 23.458722,78.8877623 L51.5421708,72.6706572 C61.6734058,70.6493797 80.3797038,68.7729515 112.608391,71.0184305 C104.109041,61.1273489 85.5711061,40.0690948 81.9470374,37.1339284 C80.3024299,35.6409573 72.2219979,28.9541941 65.844402,29.6331751 C65.3693626,29.6823767 63.9205157,30.0882696 60.6382475,32.7866389 L60.1723404,33.1695448 C51.4887816,33.9311845 3.94662871,36.908861 0,37.1308583 C16.2033256,31.2158899 32.8972236,21.1345361 37.6700978,17.9062861 L48.0967689,11.0595589 C48.7157407,10.6472107 63.7192913,0.754935654 76.253745,1.02031374 C82.6526497,0.893625709 88.6800153,3.08032269 93.9440081,6.13235252 C92.5866411,5.02255498 104.99263,10.5791237 115.826754,25.9760954 C126.660878,41.3730671 137.692753,55.9465873 148.453958,69.4865695 C153.085559,69.4865695 178.749554,61.8920107 181.616905,55.9465873 C190.953222,61.7188185 195.146609,67.7132229 196.933755,71.0184305 Z" id="path14" fill="#1F1A1A"></path>
                        <path d="M187.795131,99.9019318 C187.795131,99.9019318 168.701449,95.6706004 161.642204,96.0964888 L162.508608,97.4513021 C162.508608,97.4513021 157.257104,100.142035 151.439705,100.549818 C146.66043,100.96311 137.770808,100.603349 137.770808,100.603349 L133.956286,96.0579148 C129.460349,96.1641901 124.292363,95.8217475 117.186285,98.341653 C111.424305,97.5284501 104.897391,93.4199257 98.4430673,89.1996154 C96.1404607,87.6928678 93.968205,86.2719277 91.8724427,85.0367725 C82.5964505,79.5647753 65.1508101,78.7421258 64.9769828,78.7350408 L38.4872499,77.5754591 L51.9607769,74.592587 C76.8009848,69.6385835 114.619854,73.1980189 117.098084,73.3164174 C110.250366,65.1351086 90.5837636,41.8658559 83.3286014,35.7449496 C83.3442123,35.7556559 74.3099547,26.7533507 65.6391968,27.675899 C64.0180837,27.8449948 61.7105597,29.3655976 59.404909,31.2613915 C50.7091736,32.0240545 20.1414074,33.9059933 11.3300734,34.4549249 C14.0199082,33.3125048 17.8762669,31.4567019 20.9896252,29.8699723 C27.2157174,26.6933642 33.7945377,22.8971317 38.7570842,19.5404066 C39.9553763,18.7304314 49.1587779,12.7106047 49.1587779,12.7106047 C49.1587779,12.7106047 64.1421903,2.73252692 76.2125322,2.98745382 C95.4504592,2.60737398 111.678762,24.7467943 111.678762,24.7467943 C124.439106,41.9504825 141.403462,64.5785409 147.216178,72.3246721 C147.37619,72.3047553 148.472074,72.1294404 150.189272,71.8050252 C168.004605,67.6458355 178.632051,63.381318 182.071612,59.0114726 C210.827059,78.089135 190.759535,97.1190395 187.795131,99.9019318 Z" id="path16" fill="#FFFFFF"></path>
                        <path d="M141.169299,97.8622333 C141.169299,97.8622333 146.328699,98.7612436 151.280474,98.8753911 C145.679286,99.3855126 138.63409,98.9737942 138.63409,98.9737942 L135.593088,95.3525617 L139.017337,95.3021794 L141.169299,97.8622333" id="path92" fill="#FAB217"></path>
                        <path d="M186.863942,98.4243115 C189.421006,91.7667543 197.379439,83.989764 181.389202,69.3188129 C181.387641,69.3188129 181.387641,69.3188129 181.38686,69.3188129 C181.38686,69.3188129 182.642756,62.0739076 182.656026,62.0631226 C194.792714,69.8153941 201.619357,84.5573528 186.863942,98.4243115" id="path94" fill="#FAB218"></path>
                        <path d="M184.446595,97.7016395 C174.984833,95.2431375 161.269103,93.8072401 147.364482,94.1378744 C134.022632,94.4574875 124.720882,94.133151 118.478867,96.1185311 C109.839019,91.1228047 104.048158,85.7704657 101.738527,79.3695437 C112.381252,81.5666871 125.537332,82.1649777 139.564499,81.3021797 C155.613277,80.3165747 170.632516,76.7098271 180.994246,71.3652816 C186.070128,76.2500881 189.086152,81.7052386 189.100202,87.1237045 C189.116593,91.2101867 187.441545,94.7833984 184.446595,97.7016395" id="path96" fill="#006F4D"></path>
                        <path d="M117.360347,96.6821838 C117.360347,96.6821838 106.278955,92.5248515 98.5055109,79.2467367 C77.5723971,76.0870539 65.0614377,77.0880098 65.0614377,77.0880098 C65.0614377,77.0880098 82.9875034,77.8598833 92.7505554,83.6134707 C100.764407,88.3383919 110.315931,95.9980858 117.360347,96.6821838" id="path98" fill="#FAB218"></path>
                        <path d="M120.810354,75.1123126 C119.638756,73.6977489 93.2087351,41.8751452 84.4393164,34.4810608 C78.5142022,29.6008989 73.6910609,25.1373363 65.486132,26.036819 C63.3890428,26.2659013 60.9071451,27.5805661 58.4567034,29.4194437 C56.3162939,29.5209169 20.9384215,32.2223564 20.9384215,32.2223564 L28.2459582,28.3600758 C28.2459582,28.3600758 49.8301243,26.6688028 56.4861404,25.9414861 C59.1259423,24.1302401 62.0636781,22.6452986 64.8763706,22.3344236 C76.2659215,21.0779347 83.2513275,27.9833889 89.2451296,34.0197472 C96.6470341,41.0279342 115.60256,63.314652 122.433887,71.3883473 C127.516793,77.6677219 133.687779,77.8752342 138.252404,77.6814983 C138.252404,77.6814983 125.249311,79.6112216 120.810354,75.1123126" id="path100" fill="#FAB217"></path>
                        <path d="M181.389202,69.3141683 C173.508823,73.142677 166.231806,75.3121889 160.800777,76.5406526 C160.80624,76.5406526 160.807021,76.5406526 160.813265,76.5422271 C147.001528,80.1433853 135.690656,79.8552612 127.142912,79.9583876 C109.725059,80.1709382 82.0937798,73.0381336 52.2718239,76.1993121 C80.0526556,70.7595124 106.911196,74.9062172 120.810354,75.1076679 C125.249311,79.6064982 139.783832,77.5231874 141.159932,77.0649441 C138.591941,77.1065095 135.646946,76.9358393 132.922065,76.2515838 C140.050778,75.3044741 138.747269,72.8521124 137.11515,70.6903154 C135.195791,68.1456911 106.104893,27.3207033 94.0767007,16.9868079 C82.5722537,7.10470068 62.4295193,7.9752922 48.2325056,15.2106721 C67.4009641,3.02927905 86.5819113,-4.00223337 110.324517,25.7816008 C123.422837,43.45416 140.906255,66.7787545 146.406753,74.1128524 C147.46283,73.9913837 148.923229,73.7915074 149.699871,73.6624026 C158.313961,72.2170585 174.784233,68.3593438 182.656026,62.058478 C182.207993,64.3356034 181.843479,66.6311499 181.389202,69.3141683" id="path102" fill="#1F1A1A"></path>
                        <path d="M151.83388,95.1415856 C154.25669,95.1415856 156.667793,95.1801596 159.052357,95.2604565 L160.18961,97.0395837 C160.18961,97.0395837 156.747408,98.2597816 153.103826,98.4550133 C153.201394,97.7898086 152.948498,96.8671816 152.739312,96.528675 C152.558225,96.2350403 152.096143,95.5367722 151.83388,95.1415856" id="path104" fill="#1F1A1A"></path>
                        <path d="M152.739312,96.5381217 C152.948498,96.8766283 153.201394,97.7984681 153.103826,98.46446 C152.606619,98.485715 152.179661,98.5109062 151.810464,98.4904384 C147.740704,98.4030565 142.6898,97.4804294 142.6898,97.4804294 L141.075634,95.32186 C143.219009,95.2880093 144.972112,95.2525842 147.323113,95.199053 C148.830344,95.1636279 150.333673,95.1510323 151.83388,95.1510323 C152.096143,95.5462189 152.558225,96.244487 152.739312,96.5381217" id="path106" fill="#006F4D"></path>
                        <path d="M94.0767007,16.9914526 C106.104893,27.3252692 135.195791,68.150257 137.11515,70.6948813 C138.747269,72.8566783 140.049998,75.3075442 132.923626,76.2562284 C130.073077,75.5535519 127.379417,74.3189478 125.426495,72.2324881 C119.247703,64.8798904 100.247686,42.6377295 92.0824092,34.5778894 C83.9491344,26.5457596 77.7599619,19.3374602 64.6217569,20.7922509 C61.9066325,21.0921047 59.1320306,22.3516639 56.5861282,23.9537443 C47.5503876,24.999021 39.0747659,25.7523948 31.4181696,26.368949 C32.1062977,25.9276309 32.7935673,25.4833215 33.4792757,25.0343673 C38.4756979,21.7612455 43.3976561,18.2968282 48.3217999,15.1721769 C62.5134279,7.97710281 82.59567,7.13145056 94.0767007,16.9914526" id="path108" fill="#006F4D"></path>
                    </g>
                </g>
            </g>
        </g>
    </g>
</svg>