<?xml version="1.0" encoding="UTF-8"?>
<svg width="200px" height="200px" viewBox="0 0 200 200" version="1.1" xmlns="http://www.w3.org/2000/svg" xmlns:xlink="http://www.w3.org/1999/xlink">
    <!-- Generator: Sketch 51.3 (57544) - http://www.bohemiancoding.com/sketch -->
    <title>husson</title>
    <desc>Created with Sketch.</desc>
    <defs>
        <path d="M93.1845095,0.0107167933 C93.6020179,0.0282655424 94.2639707,0.124046883 94.9050481,0.508377884 C95.4653175,0.894316404 96.0632973,1.46833465 96.4754185,1.98059737 C96.9333309,2.62554739 97.1239033,3.42120231 97.1239033,4.25530373 C97.1239033,4.71003067 97.5043747,5.0140527 97.8094252,5.35498069 C97.7333309,5.73408725 97.5804689,6.1132608 97.4282804,6.45492557 C97.5043747,6.53054594 97.3521861,6.75814384 97.3521861,6.90884874 C97.237708,7.02298259 97.0471356,7.402625 96.9710413,7.6288833 C96.4370346,8.76754259 95.5225565,9.90439342 94.4168327,10.7382269 C94.607405,10.8520929 94.8363613,10.5485397 95.0269337,10.7382269 C96.0565633,10.4355445 96.9710413,11.0417801 97.7717147,11.6859264 C98.2666642,11.9894125 98.8767652,11.7241049 99.3723881,11.5346856 C99.868011,10.8520929 99.1434319,9.98001379 99.715149,9.29815782 C99.715149,8.65374364 100.553533,8.76754259 100.630301,8.19821294 C100.666664,6.45961416 99.4437686,4.66923988 98.6067315,3.8620644 C98.5198629,3.73332892 98.4336676,3.63366274 98.2760918,3.49709061 C98.501681,3.51564405 98.8175059,3.56802238 99.078112,3.69541826 C100.383836,4.53789218 100.982489,5.77360543 101.315822,7.21240192 C101.163634,7.78173156 101.773735,8.16003437 101.468684,8.72882817 C101.544779,9.10793474 101.201344,9.56346543 101.544779,9.86621485 C101.963634,10.0181924 102.421546,10.0181924 102.841075,9.86621485 C103.25993,9.48757714 103.52727,8.99467163 103.564981,8.46432432 C103.25993,8.19821294 103.52727,7.78173156 103.183836,7.55406668 C103.030974,7.02298259 103.641075,6.87147393 103.831647,6.56798774 C103.793263,6.07501524 103.831647,5.43060106 103.679459,4.89944999 C103.298314,3.57351474 102.039728,2.51174844 100.859257,1.94241879 C102.078112,1.86679842 103.221546,2.81523463 103.869358,3.87619717 C104.098314,4.40734824 104.365654,4.97587413 104.632321,5.46877964 C104.593937,5.62028831 104.670704,5.96121629 104.746799,6.07501524 C104.898987,6.34112662 104.365654,6.45492557 104.403364,6.83403213 L104.403364,7.02298259 C104.517843,7.06116117 104.593937,6.90884874 104.670704,7.06116117 C105.12727,7.59231224 105.12727,8.53914093 104.936698,9.25997924 C104.632321,9.98001379 104.136698,10.7008521 103.412792,11.155579 C102.764981,11.3831769 102.002018,11.6476808 101.315822,11.3075566 C100.553533,11.1937576 100.32525,12.1032115 99.715149,12.3311443 C98.915149,12.5205636 97.9993241,12.8614916 97.1993242,12.5205636 C96.0936003,12.3311443 95.1797956,11.3831769 93.9979774,11.7618146 C93.1979775,12.2170104 92.1683479,12.3693229 91.5582469,13.2031564 C91.0249135,15.8187907 86.9461258,17.2967705 88.2808059,20.2546054 C89.1191897,21.8848976 90.452523,23.3632793 91.1393917,25.0692588 C91.3346779,25.3854042 91.4363614,25.997601 91.7151492,26.2970014 C92.1286172,27.3438982 92.7818159,29.1530269 93.143432,30.923977 C93.3494926,32.3486407 93.692927,33.7887098 93.3878765,35.1919399 C93.3124556,35.6842426 93.9595936,35.7981085 94.3023545,35.9876618 C96.4754185,37.5422667 98.4956204,39.7030401 100.439728,41.5610642 C101.925923,42.5463393 103.183836,44.1009442 104.898987,44.6320952 C106.385856,45.3139512 107.490906,46.8303775 109.129964,47.1719753 C111.302354,47.9676972 113.474745,48.8022675 115.494947,50.0527833 C117.020199,50.9248623 118.391916,52.2142265 120.107741,52.6308419 C122.508414,53.0099484 124.452522,51.4178348 126.395956,50.2805151 C126.853195,50.2805151 127.311108,50.3943811 127.692253,50.5464256 C127.50168,50.8116662 127.082152,50.8866838 126.815485,51.0769068 C125.862623,52.3280925 125.138044,53.6924742 124.26195,54.9436598 C123.651849,55.2852576 123.19461,55.8532477 122.584509,56.0434708 L122.43232,56.233024 C122.927943,57.9765124 124.719189,59.1145018 126.282152,59.6449831 L127.158246,59.758849 C125.367,59.9859111 123.422893,59.5311172 122.127943,58.241753 C121.746125,57.7112717 121.479458,57.1807904 120.869357,56.9530586 C119.649829,57.2564778 118.620872,58.0146909 117.668011,58.8485914 L116.638381,59.568626 C116.828953,59.9102237 117.286192,59.758849 117.553532,60.0240897 C119.002017,60.3275089 120.602691,60.440705 122.051175,60.6302583 C122.698987,61.1989181 123.766327,60.8961687 124.643095,60.9336775 C126.205384,60.8579902 127.730637,60.6684369 128.987876,59.8345364 C129.33131,59.6449831 129.407404,59.3033853 129.63636,59.0381447 C130.208078,57.5974058 129.674744,56.0434708 129.33131,54.715928 C131.275418,55.8532477 131.732657,58.0146909 132.418852,59.8345364 L132.380468,60.099777 C132.647135,61.1989181 132.342758,62.2230417 132.151512,63.2840043 C131.542084,64.7629217 129.940737,65.9759288 128.340064,65.93842 C126.853195,66.0141074 125.481478,66.0141074 124.071377,65.8245541 C123.270704,65.8245541 122.737371,66.4307227 122.089559,66.7348117 C121.09764,66.9618738 120.069357,66.9236952 119.040401,67.1132485 C116.448482,67.5305336 113.627607,68.0991935 111.074071,67.4548463 C110.959593,67.5305336 110.845115,67.5687122 110.806731,67.6825781 C110.921209,67.9853275 111.264644,68.2505682 111.569021,68.3269253 C113.627607,69.2746917 115.685519,70.2224581 117.668011,71.3215993 C122.393936,73.7101046 127.387202,75.4160841 132.532657,76.8186444 C134.590569,77.5393488 136.916495,77.8045894 138.478784,79.4730602 C134.781815,78.8280432 131.160939,77.8802768 127.577775,76.8943318 L127.311108,76.7047785 C124.223566,75.9472352 121.36498,74.6960496 118.468011,73.5962386 C117.020199,72.9137129 115.418852,72.6109635 114.123229,71.663197 C112.026933,70.7529394 110.197304,69.3503791 108.29158,68.1367022 C106.919189,67.3409803 105.661277,66.4307227 104.02222,66.3550353 C102.726597,66.3932139 101.354206,66.3175266 100.210772,66.5445886 C97.9993241,66.8861864 95.7892232,67.4548463 93.5023546,67.5305336 C91.519863,67.6825781 89.3858564,67.7957742 87.4424221,67.6443995 C85.4222201,67.265293 83.3636343,66.9618738 81.267338,66.8861864 L81.0383818,66.8104991 C80.5434323,66.8861864 80.0855199,66.6966331 79.7050485,66.8861864 C79.3616142,66.8104991 79.0565637,67.0375611 78.7138027,67.0375611 C75.092254,68.5164786 71.8909073,71.0938674 68.6888872,73.5205513 C63.5811432,77.0088675 58.2451164,79.8896755 52.6807394,82.2024935 C50.4313792,83.4536791 48.4111772,85.1971674 46.2387194,86.6003976 C43.0755545,88.7236622 39.7590562,90.4671505 36.3670698,92.0974427 C35.0325917,92.6661026 33.6608072,93.1965839 32.2503696,93.6520476 L32.1359588,93.5006729 C32.6317837,92.3251746 33.7752854,91.3392296 34.6511776,90.4296418 C34.6896288,90.2775973 34.6133325,90.1637313 34.5375749,90.0498654 C32.3266659,89.747116 30.4589891,90.9976318 28.476969,91.5287829 C25.4658579,92.5904152 22.7214809,94.1450201 19.8245786,95.471893 C13.8023566,98.5804329 7.5515823,101.120313 0.843097622,102.59923 C0.576363622,102.59923 0.270909084,102.712427 0.0047138046,102.59923 C0.385656556,102.182615 1.03380469,101.841017 1.52909087,101.461911 C5.68390558,98.5422543 10.6389223,97.6708451 15.0983835,95.5475804 C20.3579793,93.1208965 25.4658579,90.2400885 30.8399319,88.0411365 C32.8601339,87.1683876 34.9565648,86.4108443 36.9767668,85.5387652 C36.4814806,86.221291 35.9474738,86.9413255 35.7567668,87.8134046 C35.7949486,88.1168238 35.7949486,88.4577518 36.0237701,88.7236622 C36.5191237,88.9889029 37.0527937,88.6854837 37.5489553,88.534109 C39.492861,87.9647793 41.2839047,86.8656382 42.9989888,85.8040058 C46.6201335,83.5668752 50.202827,81.3304144 53.6715811,78.6384899 C57.2161602,76.3645203 60.7609412,74.0510326 64.4969681,72.2693657 C67.2781128,70.791118 70.1757558,69.7294856 73.0343416,68.4783 C73.7966312,67.9478188 75.0538702,67.7200869 75.2444426,66.5827672 C75.4733988,65.5968222 74.2538702,65.6731794 73.7582473,65.1795371 C73.1865302,64.5351899 72.1198635,64.0047086 72.3097625,63.0187636 L72.5003349,62.9055675 C74.7111092,62.753523 76.5030284,63.7776465 78.5609408,64.080396 C82.067338,64.8392789 85.6882133,65.1420283 89.4242402,65.2558942 C91.7872031,65.3697602 93.9595936,65.2558942 96.2848461,65.3315816 C96.7420851,65.1795371 97.1993242,65.293403 97.6188528,65.2558942 C99.4100985,65.2177156 101.163634,65.1420283 102.917169,65.0663409 C103.145452,65.0281624 103.336024,64.8767877 103.336024,64.6490558 C103.183836,64.3456366 102.764981,64.1942619 102.45993,64.080396 C101.39259,63.8908427 100.401344,63.5874235 99.4484824,63.1326295 L99.0673376,63.0951208 C96.9710413,62.2605505 95.0653175,60.9718561 92.740065,60.6684369 C91.9393916,60.5163924 91.1010078,60.4788836 90.3387183,60.2893303 C90.3764287,59.6824919 91.6343411,59.1520106 90.7959573,58.5451722 C90.1481459,58.241753 89.4242402,58.0146909 88.6996611,57.9390036 C88.585183,57.8626464 88.6612772,57.7112717 88.7380449,57.6730931 C89.0808059,57.3703437 89.5764287,57.1051031 89.652523,56.6496394 C89.4242402,55.7775603 88.585183,55.1713917 87.8989877,54.5270445 C87.5185163,54.2618039 87.1373716,53.9202061 86.8700315,53.5786083 C87.0989877,52.707199 88.7757554,53.6167869 88.5467991,52.3656012 C88.2808059,51.8344502 87.5939372,51.6455667 87.2518497,51.2282815 C87.4040382,50.849175 87.8989877,50.8866838 88.242422,50.8116662 C89.0047116,50.5464256 90.1865297,51.4178348 90.2249136,50.1666492 C90.1104355,49.5986592 89.6141392,49.2188828 89.4996611,48.6884015 C90.3387183,48.1572505 91.2154859,48.6884015 92.1306374,48.6884015 C92.5111088,48.8397762 93.0067317,48.9161334 93.3124556,48.6508928 C93.540065,48.4606697 93.5784488,48.2336076 93.6168327,47.9676972 C93.6545431,47.7031263 93.3494926,47.5510818 93.4639707,47.32335 C94.4168327,47.0581093 95.3696946,47.32335 96.2848461,47.5129033 C96.6659908,47.5129033 97.0471356,47.2851714 97.237708,46.9442434 C97.1993242,46.4512709 96.8565632,46.0721644 96.5898966,45.655549 C96.8565632,45.4659957 97.2754184,45.5035045 97.6188528,45.5416831 C98.1521861,45.7312364 98.6861928,45.8444325 99.2195261,46.1103429 C99.4100985,46.1478517 99.6390547,45.9971468 99.715149,45.8444325 C99.7535329,45.5416831 99.6006709,45.2757726 99.5629605,45.0487106 C100.706395,44.8216485 101.507068,45.8444325 102.612119,45.5798617 C102.917169,45.6173704 103.374408,45.655549 103.488886,45.3139512 C103.52727,44.8973359 103.030974,44.5939167 102.764981,44.4043634 C99.7535329,43.0774904 97.237708,40.5369406 94.7218832,38.2247924 C92.6255869,36.5181431 90.5292907,34.6982976 88.6612772,32.6520599 C87.4801325,31.5140704 86.1461258,30.6038128 84.8498295,29.7324035 C85.5744086,29.5428502 86.3366982,30.0733315 87.0606039,30.2628848 C88.2808059,30.9454106 89.3481459,31.9313555 90.5292907,32.7270775 C90.7198631,32.7270775 90.872725,32.9548093 91.0632974,32.8027648 C91.1010078,32.5000154 91.4437688,32.4236582 91.5582469,32.1590874 C92.0922536,30.5281254 91.4060583,28.8603245 90.872725,27.3438982 C89.5380449,24.0451352 87.5569002,21.0123497 86.5265972,17.6385022 C86.4511763,17.3357528 86.2222201,16.9184677 86.6033648,16.7664232 C87.2518497,16.9558425 87.7467992,16.5011156 88.1663278,16.0463886 C89.652523,14.6050469 90.7582469,12.8614916 91.1393917,10.8902714 C90.9104354,10.5111649 90.3764287,10.5485397 90.0720516,10.2458572 C90.3764287,9.82850513 91.0249135,10.1320583 91.4821526,9.942572 C92.3966307,9.56346543 93.4639707,9.44939856 94.2646441,8.72882817 C95.4464623,7.6288833 96.0565633,6.30294804 96.3993242,4.86207518 C96.4754185,4.55858899 96.170368,4.36910268 95.9797956,4.25530373 C95.827607,4.17941544 95.5225565,4.29354929 95.5225565,4.02824168 L95.5225565,3.7246885 C95.3319841,2.43612807 94.9131289,0.69176901 93.3878765,0.0468189909 C93.3225566,0.0468189909 93.2552165,0.0326862197 93.1845095,0.0107167933 Z" id="path-1"></path>
    </defs>
    <g id="husson" stroke="none" stroke-width="1" fill="none" fill-rule="evenodd">
        <g id="husson_BGL" transform="translate(0.000000, 7.960199)">
            <g id="husson">
                <g id="g10" transform="translate(99.999998, 93.216014) scale(-1, 1) rotate(-180.000000) translate(-99.999998, -93.216014) translate(0.000000, 0.448772)">
                    <g id="g12">
                        <path d="M13.9954205,0 L13.9954205,31.1890836 L31.5595952,31.1890836 L31.5595952,101.107587 C31.0684841,101.26365 30.6129285,101.490712 30.2254538,101.853743 C30.3016827,102.194671 30.5305716,102.460582 30.797575,102.649465 L31.5595952,102.976328 L31.5595952,104.681637 C30.9001339,104.53964 30.2206726,104.450556 29.5015481,104.469981 L27.6720532,104.735221 C26.8334673,105.151837 25.8425583,105.151837 25.1175751,105.796184 C25.0412788,105.985737 24.9276761,106.251648 25.1557569,106.403022 C25.6134,106.74395 26.2994606,106.630754 26.7952855,106.857816 L28.5103697,107.426476 L30.9111777,108.4506 L31.5595952,108.664935 L31.5595952,109.504864 L26.2231643,108.526287 L24.7369691,108.4506 L21.8784506,108.677662 L20.3540736,109.056768 L19.4765652,109.398366 L19.0958918,109.512232 L18.9433665,109.739294 L19.1340736,110.307954 L19.8197975,110.762748 L23.8986526,111.862559 L27.5191912,113.303298 L29.8066659,113.947645 L31.2915817,114.424542 L31.544107,114.675717 L30.3398646,114.857233 L28.6247804,114.667679 L22.7930634,113.682404 L22.4116493,113.568538 L19.5912453,112.924191 L17.7617504,112.544415 L15.2461949,112.127799 L13.2641748,112.090291 L11.4727943,112.355531 L9.07117822,112.999878 L8.46141393,113.303298 L8.0799998,113.454672 L7.88929273,113.719913 L7.88929273,114.137198 L8.27070686,114.439947 L9.07117822,114.744036 L12.0441074,115.464071 L14.9029626,116.449346 L18.2194608,117.663023 L22.1835685,119.216958 L23.8986526,119.7106 L27.3284842,120.506322 L29.310841,120.961116 L28.0907737,121.074982 L24.4318512,121.074982 L19.8963631,120.620188 L17.8380467,120.354948 L14.5220198,119.975171 L13.3022892,119.786288 L10.7862624,119.596734 L8.91858564,119.672422 L6.78478098,119.823796 L5.14520526,120.202903 L3.43013459,120.84725 L2.21012116,121.643642 L1.86763632,122.212302 L2.28640398,122.780962 L3.20128612,123.008024 L6.05981803,123.235756 L10.1002018,123.842594 L12.8064643,124.600807 L15.2461949,125.320842 L17.2282824,125.776305 L18.8670702,126.117233 L19.0958918,126.383144 L17.9903026,126.344965 L16.3515147,126.344965 L12.1204037,126.079055 L10.0623567,125.92768 L8.53771022,125.851993 L4.68802682,126.192921 L2.97321878,126.685893 L1.25736697,127.557972 L0.342487534,128.46756 L0.0754942742,128.960533 L0,129.339639 L0.266204034,129.529192 L1.52435686,129.680567 L3.65898307,129.756924 L4.9168753,129.946478 L8.61427588,130.666512 L10.7862624,131.00811 L12.2732657,131.235172 L16.6942757,131.614279 L20.2012116,131.728144 L19.1721881,131.955876 L18.6763632,132.031564 L13.8736023,132.675911 L12.8064643,132.789777 L11.6248482,132.865464 L8.91858564,133.168883 L6.67008738,133.661856 L4.72616823,134.344382 L3.08685514,135.178282 L1.48621545,136.353111 L1.14346798,136.770396 L0.991164958,136.998128 L0.838329945,137.149502 L0.762047119,137.680653 L0.838329945,137.870207 L1.25736697,138.05976 L2.89667333,137.908385 L6.47964294,137.528609 L7.69939375,137.452922 L8.61427588,137.452922 L10.1002018,137.452922 L11.3583836,137.49043 L16.1992589,137.377234 L17.7617504,137.263368 L15.8938043,137.832028 L13.2641748,138.742286 L9.45259236,140.447595 L7.08909073,141.813317 L5.90725238,142.722905 L4.68802682,144.163644 L4.38315141,144.656616 L4.49731975,144.959365 L4.80245106,145.224606 L5.45033656,145.262785 L6.13610086,145.073231 L8.61427588,144.049778 L12.4639728,143.13952 L13.3785855,143.026324 L14.9791915,142.685396 L13.3404037,143.632492 L12.2732657,144.353197 L11.0532657,145.187097 L9.49077417,146.324417 L7.92774391,147.916531 L7.58498298,148.560878 L7.4705722,149.281582 L7.43239039,149.433627 L7.54680116,149.62251 L7.69939375,149.736376 L8.0037035,149.812063 L9.14747452,149.62251 L14.4841747,148.295637 C17.2663969,147.461737 20.0489557,146.627836 22.7167671,145.490517 C25.6760263,144.228614 28.6634336,142.967382 31.5595952,141.540708 L31.5595952,153.787324 L13.9954205,153.787324 L13.9954205,184.976542 L72.2141396,184.976542 L72.2141396,124.527799 C73.6491564,123.850632 75.082153,123.170115 76.4983146,122.440034 C77.4511765,121.833195 78.5185166,121.454089 79.3946108,120.695876 C80.2713785,120.241082 81.033668,119.634243 81.9104357,119.178779 C84.5791225,117.397113 87.0558901,114.971099 90.028954,113.79627 C90.3340045,113.719913 90.7151492,113.606047 90.9441055,113.985823 C93.0404017,114.439947 95.136698,114.251064 97.3090885,114.516305 L101.616159,114.516305 C104.856563,114.288573 107.943432,113.568538 111.030974,112.810325 C112.136024,112.317353 113.356226,112.090291 114.613465,111.900067 C115.109761,111.900067 115.680805,111.786871 116.062623,112.090291 C115.680805,112.506906 114.49966,112.355531 114.651849,113.265119 C116.02424,114.099689 117.662623,114.326751 119.073398,115.19883 C120.483499,115.76749 121.931983,116.33615 123.303701,117.094363 C123.680805,117.30401 124.060603,117.510309 124.444441,117.713258 L124.444441,184.976542 L182.960938,184.976542 L182.960938,153.787324 L165.098986,153.787324 L165.098986,125.530489 C165.40875,125.590101 165.719861,125.647034 166.032319,125.699948 C166.793935,126.041546 167.746797,126.079055 168.585854,126.231099 C171.825585,126.799759 175.217504,127.519794 178.610097,127.254553 C180.096292,127.406598 181.621544,127.444776 183.10774,127.33024 C184.213463,127.406598 185.356898,127.33024 186.538042,127.33024 L191.112453,126.951134 C191.683497,126.837268 192.598648,127.292732 193.018177,126.572027 C193.018177,126.269278 192.903699,125.965189 192.674743,125.738127 C192.026931,125.09378 191.074069,125.131288 190.387874,124.638986 C187.834339,123.95579 185.204036,123.349622 182.573733,123.008024 C181.011443,122.743453 179.486864,122.477542 177.924575,122.25048 C181.697639,122.174123 185.623564,122.5539 189.435685,122.933006 C191.37912,123.197577 193.360938,123.501666 195.304372,123.842594 C196.219524,123.880773 197.058581,124.335566 197.972386,124.335566 C198.31582,124.52512 198.735349,124.373745 199.078783,124.297388 C199.230298,124.146013 199.230298,123.880773 199.192588,123.690549 C198.849827,123.463487 198.811443,123.160068 198.544776,122.933006 C197.591914,121.947061 196.410096,121.492267 195.342756,120.84725 C192.103026,119.407181 188.443766,118.989896 184.937369,118.231683 L183.37508,118.003951 C188.139389,117.018676 193.094271,116.487525 198.162958,116.146597 C198.659254,115.957044 199.344776,116.108418 199.649827,115.539758 L199.649827,115.312696 C198.277436,113.416494 195.990567,113.22694 193.856561,113.038057 C191.074069,112.886012 188.291578,112.886012 185.585854,113.113744 C183.488884,113.22694 181.392588,113.303298 179.220198,113.303298 C182.498312,112.658281 185.54747,111.218211 188.710433,110.156579 C191.303026,109.360187 193.856561,108.298555 196.715147,108.185359 C196.829625,108.14718 197.020197,107.995136 196.944103,107.805583 C196.868009,107.123727 196.105046,106.933504 195.68619,106.516888 L194.047133,105.948228 C192.141409,105.569122 190.34949,105.948228 188.519861,106.137782 L179.41077,108.033314 C178.495618,108.185359 177.505046,108.374912 176.589895,108.374912 C180.363632,106.819638 183.870029,104.735221 187.795955,103.673589 C190.006729,103.028572 192.293598,102.422403 194.428278,101.512815 C194.504372,101.360771 194.694945,101.209396 194.580467,101.057352 C194.35151,101.019173 194.3138,100.753933 194.085517,100.678915 C192.903699,100.223451 191.645786,99.8443447 190.311106,99.69297 C184.708413,99.5409255 179.906393,102.043297 174.798649,103.37017 C173.502353,103.787455 172.092925,103.93883 170.720534,104.242249 C174.569693,101.550324 178.534002,98.7827124 182.688211,96.6219389 C183.37508,96.0532791 184.251174,95.7880384 184.861275,95.1055127 C184.365652,93.854327 182.878783,93.8161485 181.621544,93.7786397 C176.589895,93.8925056 172.968346,97.5697053 168.357572,98.7827124 C170.300332,97.4558394 172.320534,95.9394131 174.264642,94.4229869 C175.294272,93.6647738 176.323228,92.7170074 177.390568,92.1108387 C177.428278,91.6928838 176.932656,91.6171964 176.742757,91.3519558 C176.20875,91.1624025 175.560938,91.0867152 174.988548,91.1248937 C173.197302,91.4276432 171.367672,91.7692409 169.614811,92.2622134 C168.280804,92.7545161 166.908413,93.1718013 165.536023,93.5890864 C167.13737,92.5274541 168.738043,91.1624025 170.529289,90.4416982 C170.682151,90.2146361 171.215484,90.2146361 171.101006,89.8355295 C171.13939,89.6459763 170.872723,89.456423 170.720534,89.3807356 C169.729289,88.9259417 168.395282,88.6600313 167.289558,89.0398076 C166.518514,89.1637206 165.805383,89.4122162 165.098986,89.6620515 L165.098986,89.1409474 C165.495619,88.9520639 165.892925,88.7665294 166.260602,88.5461653 C166.37508,88.3566121 166.451848,88.0920412 166.298986,87.9018181 C166.004036,87.5501734 165.567673,87.4403262 165.098986,87.4162134 L165.098986,31.1890836 L182.960938,31.1890836 L182.960938,0 L124.444441,0 L124.444441,78.3625325 C123.85993,78.7597236 123.338717,79.2747995 122.884845,79.8273842 C122.847135,79.2962331 123.151512,78.7275732 122.961613,78.1582436 C122.694273,77.4763876 121.931983,77.0972811 121.245788,77.0209239 C120.597977,76.9452366 119.874071,77.0597723 119.645115,77.7416283 C119.150165,78.6137073 118.729963,79.5614737 118.349492,80.4717314 C118.120536,79.2962331 118.082825,78.0825563 117.243768,77.1729684 C116.405384,76.5667998 115.604711,75.7704081 114.49966,75.7704081 L114.270704,75.9599614 C114.080132,77.1729684 114.232994,78.424154 114.042421,79.5996523 C113.508415,79.0303227 113.356226,78.1964222 112.936698,77.5145662 C112.05993,75.5808548 110.002017,74.6330884 108.05791,74.557401 C107.79057,74.7087757 107.867337,75.0115252 107.828954,75.2774356 C107.905048,76.1488449 108.248482,76.9077278 108.401344,77.7416283 C107.981815,77.552075 107.714475,76.9840849 107.334004,76.7181745 C106.926597,76.3142853 106.531984,75.8970002 106.088886,75.5895622 C105.878785,74.4529123 105.424913,72.4917391 104.508415,70.2807307 C105.766327,69.0402619 107.060603,67.7488883 107.828954,66.2546994 C108.134004,65.4200621 108.744105,64.7374693 108.820199,63.8279485 C108.629627,63.0315568 107.752859,63.2217799 107.142758,63.1079139 C105.618853,62.8418695 104.589223,63.9035689 103.484172,64.6623178 C104.284172,63.5244623 105.16094,62.3115222 105.847135,61.0603366 C106.22828,60.3403021 105.999324,59.3541561 105.92323,58.595943 C105.504374,58.4821441 104.970368,58.4447023 104.513129,58.3690819 C105.008752,57.8753726 105.656563,57.4211815 106.457236,57.4970698 L107.066664,57.5344446 C108.781815,58.2171044 111.336024,58.8612506 112.860603,57.3073826 C113.203364,56.5865443 114.080132,56.8144101 114.727943,56.5865443 C116.100334,55.9805766 117.586529,54.6535696 117.586529,53.061456 C117.853869,51.8858908 117.015485,51.089767 117.053196,49.9906259 C116.748145,48.6630161 115.642421,47.6013168 114.689559,46.6918629 C113.775081,45.8954042 112.479458,45.7438956 111.29764,45.9335828 C111.19461,46.0005628 111.19461,45.9375346 111.152859,46.2410208 C111.759593,46.2912558 113.235687,47.5283086 113.546125,48.322624 C113.76498,48.880701 113.951512,49.3281271 114.004038,50.1036211 C114.004038,50.21742 113.889559,50.2556656 113.813465,50.3320227 C112.969021,49.3514361 112.12323,48.0474033 110.85791,47.6750617 C110.753533,47.644184 110.646462,47.6193344 110.536024,47.6013168 C110.268011,47.5549667 109.901007,47.4940149 109.597304,47.5123674 C109.517842,47.2946826 109.450502,47.0662139 109.315822,46.8812823 C108.692253,46.0555533 107.975081,45.2282169 107.078112,44.7146146 L106.886866,44.6112645 C106.264644,44.3274034 105.031647,43.8637681 104.147472,44.2243213 C104.034341,44.2248571 103.937371,44.2750921 103.864644,44.4171566 C104.322556,44.4935137 104.475418,45.0994814 104.742085,45.4029676 C105.122556,46.3883098 105.656563,47.677674 105.008752,48.7012617 C104.475418,48.7394403 103.827607,48.6630161 103.408078,49.1177431 C103.064644,49.5350952 102.874745,50.0661793 102.912455,50.6724149 C102.645789,51.0133429 102.378449,50.5965266 102.149492,50.5209732 L102.035014,50.3689287 C102.416832,49.5350952 102.455216,48.3595299 102.073398,47.4874509 C101.922556,46.8585091 102.08754,46.2289644 102.461277,45.7493879 C102.461277,45.7493879 102.561614,45.6515302 102.688213,45.4982131 L102.785856,45.3742332 C103.044442,45.0319656 103.355553,44.3849392 103.156226,44.001144 C103.145452,43.9804472 102.993937,43.9624296 102.912455,43.9624296 C101.997304,43.8482958 101.120536,43.9241841 100.435014,44.4171566 C100.354206,43.5932361 99.9205362,42.8344871 99.3259234,42.2115065 C99.1696945,42.0480085 99.0020177,41.8973035 98.8269336,41.7551721 C98.3602669,41.3532923 97.6437686,40.7960191 97.0047114,40.5563648 C96.7562265,40.0218647 96.4653175,39.5087313 96.0895599,39.0333745 C95.7084151,39.1094637 96.0895599,39.4886373 95.9750818,39.6783245 C96.0127922,39.9381398 96.0134656,40.3072663 95.8700313,40.5362038 C94.1124556,39.0304944 92.465991,39.0927187 92.465991,39.0927187 C92.7575734,39.2295588 93.2033647,39.7560213 93.3575734,39.9454406 C94.2201997,41.1210058 94.3744084,42.6481489 94.3744084,44.1136034 C94.2599303,44.3407324 94.2976407,44.5683303 94.1077418,44.7580176 C93.5353512,44.7206428 93.2309741,44.0762286 92.6592569,44.0762286 C92.4303007,44.1900275 92.1636341,44.1518489 91.9730617,44.3407324 C91.7441055,44.1136034 91.8969674,43.7344968 91.7441055,43.5074348 C91.3259236,42.0513575 90.4936004,40.5945434 89.18855,39.6615795 C89.1831628,39.6374667 89.0585836,39.5375326 88.8094254,39.4130169 C88.4309742,39.2227938 87.7636342,38.9724227 86.798651,38.914552 C86.6100988,38.9038353 86.4282807,38.9006872 86.2370349,38.904639 C86.2370349,38.904639 86.3838362,39.0513921 86.5946106,39.2811334 C86.6700315,39.342621 86.7117823,39.4108735 86.7508396,39.4503917 C87.5138025,40.7018453 87.8565635,42.370316 87.3993244,43.8482958 C87.1703682,43.8860055 86.9037015,43.8101172 86.6363615,43.8482958 C86.0653177,43.9624296 85.4936006,44.037983 85.0740719,44.4545314 C84.8067319,44.5683303 84.5407386,44.378911 84.3878767,44.1518489 L84.3117824,43.9998044 C84.4262605,43.2797699 84.92121,42.1042046 84.12121,41.6112991 C83.8430955,40.8504738 83.9454524,39.930772 84.1973043,39.1992169 L84.297641,38.9742312 C84.3272706,38.9394016 84.3420854,38.8839422 84.3528598,38.8235263 C84.4868666,38.4598251 84.6888868,37.9265977 84.8087521,37.6817189 C84.8323211,37.3159414 84.4585837,37.1730731 84.1973043,37.0618864 C82.9393919,36.9488912 81.7582471,37.4792385 80.9952842,38.5027593 C80.5003347,39.185352 80.2713785,39.9436321 79.966328,40.7018453 C78.8606041,41.0806839 78.4040384,42.2180706 78.2127927,43.2041495 C78.0606041,44.4545314 78.7090889,45.4406773 79.4329946,46.3132252 C79.6996613,46.6159746 80.1569004,46.5777291 80.5003347,46.6159746 C81.0720518,46.9569026 81.5292909,47.563875 81.9104357,48.0950261 C82.1771023,49.1564575 82.3299643,50.2933083 82.9393919,51.2027622 C82.4444424,51.2791863 81.796631,51.0133429 81.3387185,51.3548067 C80.4619509,49.9523803 79.2424223,48.322624 77.6794593,47.563875 C76.9548802,47.3741878 76.4215469,46.4265553 75.5454527,46.6918629 C74.8592574,47.1839647 75.0491564,48.2080213 75.2020183,48.9288596 C74.3353517,47.9704434 73.2781126,47.2007097 72.2141396,46.5274941 L72.2141396,0 L13.9954205,0 Z M98.834341,52.9468533 C99.7104352,53.6295131 99.2148123,55.0321404 99.0626238,55.942398 C98.5670009,55.715269 98.1474723,55.3353586 97.6525228,55.1841849 L97.6525228,54.1601283 C97.4996609,53.7058702 97.461277,53.1365406 97.0047114,52.9468533 C96.1656542,53.175255 95.2511761,53.0227416 94.4505027,53.2885851 C93.726597,53.8952895 93.0020179,54.3121058 92.3919169,55.1085645 C92.3158226,55.0708548 92.3158226,54.9944976 92.2781122,54.9188773 C92.7353512,54.0849768 92.9259236,53.0227416 93.2309741,52.0365957 C93.4976408,51.2027622 94.4882131,51.5444939 95.136698,51.2417445 C95.4410751,50.9000798 95.9750818,50.862638 96.3178427,50.558348 C96.5467989,51.6964715 97.8430952,52.4539478 98.834341,52.9468533 Z M110.268684,50.3320227 C110.49764,51.089767 110.802017,52.2268188 110.115822,52.8338581 C109.849156,52.7956126 109.734677,52.5677468 109.658583,52.3027071 C109.849156,51.6201143 109.887539,50.862638 110.268684,50.3320227 Z" id="path14" fill="#16453B" fill-rule="nonzero"></path>
                        <path d="M132.053195,177.407806 L175.351511,177.407806 L175.351511,161.356059 L157.489558,161.356059 L157.489558,123.811113 C156.17104,123.540514 154.84242,123.318141 153.492252,123.197577 C154.559592,123.918281 155.854542,124.79036 156.083498,126.117233 C156.007404,126.269278 155.931309,126.49634 155.740063,126.458831 C155.016158,126.079055 154.253868,126.041546 153.492252,125.889502 C152.729963,125.699948 151.967,125.397199 151.090905,125.35902 C149.070703,125.017422 147.088885,124.638986 145.106394,124.297388 C141.752185,123.425979 138.321882,122.856649 135.043768,121.795017 C134.011444,121.580681 133.023566,121.289988 132.053195,120.971833 L132.053195,177.407806 Z M157.489558,86.1214909 L157.489558,23.6211521 L175.351511,23.6211521 L175.351511,7.56793153 L132.053195,7.56793153 L132.053195,78.4737192 C132.146125,78.4797474 132.23232,78.5092186 132.29966,78.5761985 C132.604037,78.6137073 132.756899,78.9546353 132.870704,79.2198759 C133.367,80.091955 132.490232,80.736972 132.223566,81.4951851 C132.197976,81.6190981 132.131983,81.7276056 132.053195,81.8287453 L132.053195,82.1757015 C133.087539,81.4637045 134.082152,80.6251155 135.19663,80.0544462 C136.149492,79.6371611 137.292926,79.6753397 138.359593,79.7503572 C138.703027,79.7892056 138.626259,80.2058209 138.703027,80.4717314 L137.483498,82.6325048 C138.740737,82.0256664 139.770367,80.9258555 141.218852,80.8501681 C141.905047,80.8126594 142.857909,80.5855973 143.428953,81.0779 C143.734003,82.1395323 142.323902,82.7838795 142.171714,83.7323157 C143.353532,83.0491202 144.496293,82.3672642 145.868683,82.1395323 C147.012118,82.0256664 148.422219,81.5333637 149.489559,82.2152197 C150.213464,83.3525394 148.346124,83.8830206 148.117168,84.8307871 C148.956225,84.7169211 149.756899,84.4898591 150.519188,84.2246184 C152.310434,83.4664053 154.750164,83.4664053 156.54141,84.0350651 C156.731983,84.2246184 156.846461,84.4523503 156.846461,84.7550997 C156.350838,85.5133128 155.359592,86.1583298 155.054542,86.9922303 C155.80875,86.6948393 156.637033,86.3606093 157.489558,86.1214909 Z" id="path16" fill="#B09247" fill-rule="nonzero"></path>
                        <path d="M21.6045786,7.56793153 L21.6045786,23.6211521 L39.1690226,23.6211521 L39.1690226,96.9528199 C40.3995949,97.0914684 41.5938037,97.2709747 42.8038373,97.4176608 C41.5456555,96.7358049 40.2501673,95.5984852 39.449696,94.3466297 C39.4878778,94.1577463 39.449696,93.8925056 39.6398643,93.8161485 C41.7363626,93.3988633 43.7947464,94.0063715 45.7386521,94.4229869 C44.9384501,94.0063715 44.5570359,93.2474886 43.8709753,92.64132 C43.7184501,92.4135881 43.4138036,92.0344816 43.6802683,91.7692409 C44.1761605,91.5033305 44.747743,91.5033305 45.3195948,91.4276432 C46.9964971,91.2755986 48.292322,92.1858563 49.779056,92.4510969 C49.2450493,91.9969728 48.8644432,91.3901344 48.5208742,90.8214745 C48.3301671,90.4416982 48.101615,89.9493955 48.292322,89.5702889 C50.6176418,89.3050483 52.6756889,90.0250828 54.6580458,90.8589833 C54.200066,90.10144 53.8575744,89.2661999 53.5524566,88.4711478 C53.4761603,88.0156841 53.6287529,87.6740863 53.8952175,87.4088457 C55.6870693,87.0304089 57.4402679,87.8261308 59.0790558,88.3184335 L58.774746,87.7122649 C58.3933319,86.9922303 58.0119177,86.0062853 58.5455878,85.2480722 C60.1843756,85.0585189 61.6709075,85.5890002 63.0813452,86.1958386 C62.6244429,85.6653573 62.3952846,85.0585189 62.2045776,84.4523503 C62.1667325,84.2246184 62.3574395,83.9968866 62.5097627,83.8455119 C63.1997291,83.7390137 63.9078099,83.7175801 64.6051836,83.7778621 L64.6051836,76.6377985 C59.1045776,74.0610796 53.4529953,71.8152415 48.4067328,68.1882768 C48.2538708,68.0744109 48.3301671,67.846679 48.4067328,67.7328131 C49.2831638,67.3537065 50.2362277,67.2023318 51.1889549,67.0502873 C55.5345441,66.4066769 59.4223554,67.7709917 63.3864631,68.6805795 C59.2316484,66.4433149 55.2293589,64.0174348 51.4559583,60.9465377 C51.3415475,60.7186718 51.5703691,60.6435203 51.6085509,60.454101 C54.886598,58.7092731 58.431177,60.68123 61.4043756,61.7803712 L58.431177,59.7709724 C56.6016821,58.5203226 55.8010087,56.6247228 55.2675407,54.7676365 C55.3819515,54.5015251 55.4963622,54.1224186 55.8769683,54.1601283 C59.0027595,54.0849768 61.4806719,55.8291349 63.8055203,57.6483106 C63.6526583,57.4588912 63.5385169,57.2309584 63.3483486,57.0415391 C62.1667325,55.3353586 60.7560254,53.743312 60.7186517,51.6201143 C60.6804699,51.089767 60.5657897,50.3320227 60.7941399,49.8009386 C60.9467325,49.7626931 61.1374395,49.6488941 61.2899648,49.7245145 C62.5267998,49.8511736 63.5987189,50.3710051 64.6051836,51.0413405 L64.6051836,7.56793153 L21.6045786,7.56793153 Z M39.1690226,138.166258 L39.1690226,161.356059 L21.6045786,161.356059 L21.6045786,177.407806 L64.6051836,177.407806 L64.6051836,128.39991 L64.1106381,128.695292 C62.0138705,129.794433 60.1465305,131.424725 58.0878773,132.638402 C53.5143421,135.481032 48.8644432,138.05976 43.8709753,139.879605 C43.0323895,140.144846 42.194073,140.827372 41.2791909,140.562131 C40.9743424,140.447595 40.8599316,140.144846 40.8599316,139.879605 C41.2791909,138.89366 41.7745444,137.984073 42.4224232,137.111324 C41.2647128,137.308915 40.2220192,137.734907 39.1690226,138.166258 Z" id="path18" fill="#B09247" fill-rule="nonzero"></path>
                        <path d="M87.5138025,96.2803411 C87.4377083,95.6359939 86.7892234,95.4082621 86.3703682,95.1430214 C84.3117824,94.2716122 82.2154862,93.0961139 80.7670013,91.0867152 C80.6148128,90.8971619 80.3858566,90.66943 80.1569004,90.6319212 C81.3003347,93.2474886 84.1595939,95.2568874 86.6747453,96.4323856 C86.941412,96.4323856 87.5521864,96.8496708 87.5138025,96.2803411" id="path20" fill="#FFFFFF" fill-rule="nonzero"></path>
                        <path d="M176.475416,125.397199 L171.44444,124.52512 C169.347471,124.032147 167.17508,123.766907 165.231646,123.008024 C162.563632,122.515721 160.047807,121.530446 157.418178,121.112491 C155.550164,120.772233 153.644441,120.506322 151.700333,120.316769 L150.098986,120.202903 C149.985181,120.241082 149.832993,120.354948 149.871377,120.506322 C150.251848,120.999295 150.785855,121.302044 151.319188,121.643642 C157.798649,122.667766 164.126595,123.918281 170.567673,125.055601 C172.282824,125.35902 173.921881,125.435377 175.675416,125.738127 L176.894272,125.699948 L176.475416,125.397199" id="path22" fill="#FFFFFF" fill-rule="nonzero"></path>
                        <path d="M72.9010083,79.6358215 C71.1077423,78.50453 68.9703686,76.3564827 67.2742744,75.5808548 C65.2540724,74.7469543 63.0813452,74.3296692 61.1374395,73.3055456 L52.7141401,69.2492393 L51.4178438,68.5292048 C51.799258,68.4160087 52.2564297,68.491696 52.6378438,68.5292048 C57.8593252,68.7944454 62.2045776,71.145442 66.7784495,73.0027962 C69.4464629,73.8748753 72.0767659,75.0115252 74.5158231,76.5286212 C73.8680116,76.5286212 72.9151497,76.4147553 72.191244,76.6043086 C72.1151497,76.7563531 71.6572373,76.8313706 71.9245773,77.0597723 C72.2949477,78.2587135 72.3138029,78.8066096 72.9010083,79.6358215" id="path24" fill="#FFFFFF" fill-rule="nonzero"></path>
                        <path d="M102.326597,45.2489137 C101.561614,45.5858899 101.134678,46.4613179 100.968348,47.222947 C100.816159,47.9429816 100.930637,48.7394403 100.968348,49.4594748 C100.777775,49.5732738 100.587203,49.8009386 100.39663,49.5732738 C99.6727248,48.7394403 99.6343409,47.3741878 100.09158,46.4265553 C100.39663,45.5544763 101.235014,44.5301518 102.187876,44.4171566 C102.399324,44.4171566 102.647135,44.4532588 102.868011,44.4004116 C102.870704,44.5798509 102.768348,44.8611667 102.326597,45.2489137" id="path26" fill="#FFFFFF" fill-rule="nonzero"></path>
                        <path d="M97.5380447,47.0332598 C98.2235666,45.6682752 97.9952837,44.0762286 97.8047114,42.5979139 C97.6801322,42.2557133 97.5575733,41.9140485 97.4296272,41.5757328 C97.8653174,42.0715184 98.5750817,43.0212942 98.7872029,44.1664506 C98.7764285,45.3286868 98.5178427,46.5136293 98.1474723,47.4874509 C97.9575733,47.904803 97.4996609,48.1324009 97.1568999,48.3977085 C96.9279437,48.6630161 97.0424218,49.2323458 96.5467989,49.2323458 C96.2801323,49.8009386 95.593937,49.9523803 95.0222198,49.9142017 C95.4794589,49.6107156 95.8989875,49.0426585 96.0518495,48.4359541 C96.1279437,48.2462668 95.8228932,48.1324009 95.9373713,47.9812271 C96.0134656,47.8289147 95.8612771,47.8289147 95.7845094,47.8289147 C95.593937,47.8289147 95.593937,48.0567805 95.593937,48.1706464 C95.4410751,48.7394403 95.0222198,49.3071624 94.4121189,49.5350952 C93.4976408,49.9142017 92.2404017,49.8383135 91.249156,49.5732738 C88.1232301,50.9000798 88.4659911,54.5771455 87.1703682,57.1553381 C86.8653177,58.0274171 85.98855,58.6341216 85.9124558,59.6202675 C85.7602672,60.2644138 86.141412,60.8706494 86.141412,61.5158673 C86.4080786,62.5773657 86.0269339,63.7897699 86.2936005,64.8512683 C86.9037015,65.4964862 87.7804692,66.1788111 87.5521864,67.1266445 C86.598651,66.6330022 85.8740719,65.7991687 85.0356881,65.2311786 C84.4646444,63.9035689 84.5407386,62.3878794 84.1973043,61.022158 C84.0828262,60.3784806 83.6262605,59.7340665 83.8922538,59.0891164 C85.6841729,57.3830029 86.1797958,55.0321404 86.941412,52.8338581 C87.1703682,51.9236005 87.3609406,50.9000798 88.0855197,50.21742 C88.0855197,49.8383135 87.8942739,49.4968496 87.5898968,49.2697876 C86.8269339,49.1177431 85.98855,49.7626931 85.3791224,49.0803682 C85.3030282,48.8532392 85.2269339,48.7012617 85.1885501,48.4733289 C86.4848463,48.6253734 87.6659911,48.2839096 88.7333311,47.7915399 C88.8471358,47.5256964 89.1144759,47.336746 88.9999978,47.0332598 C89.0383816,46.8056619 88.9239035,46.5777291 88.7710416,46.3883098 C89.7622873,44.7962631 89.4579102,42.5589316 88.6565634,40.9287064 C88.3245769,40.4464507 87.9925904,39.8784606 87.5569002,39.4425551 C88.0727251,39.6073927 88.7387183,39.9381398 89.4141392,40.5997678 C90.2141392,41.6971005 90.9380449,43.3381094 90.486193,44.9100621 C90.3717149,45.5168335 89.9528597,46.1230021 90.3340045,46.6918629 C90.5622873,46.8812823 90.6006711,47.2977636 90.9441055,47.336746 C91.3636341,47.677674 91.5151492,48.4733289 92.2020179,48.322624 C92.9259236,48.1324009 93.7643074,48.0186019 94.1077418,47.2977636 C94.2599303,46.9569026 94.0693579,46.4639301 94.6026912,46.2745108 C94.9845094,46.3132252 95.3649808,46.3501312 95.7084151,46.0856273 C96.4707047,44.9856824 95.9750818,43.3935688 95.6700313,42.2562491 C95.3272703,41.1565722 94.2336677,39.9723665 93.7643074,39.6019004 C94.6343411,39.8920576 95.4747451,40.7465879 95.4747451,40.7465879 C96.2572367,41.6701745 96.9326575,42.6950349 96.9663275,43.9241841 C96.9279437,45.0994814 97.0808057,46.6536174 95.8612771,47.3741878 C95.7845094,47.4874509 95.8228932,47.6394954 95.8989875,47.7151158 C96.4707047,47.9429816 97.3090885,47.7151158 97.5380447,47.0332598" id="path28" fill="#FFFFFF" fill-rule="nonzero"></path>
                        <path d="M83.5488195,38.6401352 C82.5696949,39.7852915 82.1831629,41.3936143 82.3676747,42.825043 C82.2915804,42.8624847 82.2154862,43.0144623 82.101008,42.9762837 C81.6060586,42.5979139 81.643769,41.9147853 81.5292909,41.3841701 C81.3003347,40.17123 81.8343414,39.185352 82.6350148,38.3889603 C83.280806,37.8866106 83.7434322,37.8870795 84.3764289,37.7793087 C84.1737353,37.9007434 83.867338,38.1476985 83.5488195,38.6401352" id="path30" fill="#FFFFFF" fill-rule="nonzero"></path>
                        <path d="M104.767001,44.4184292 C105.184509,44.4359779 105.846462,44.5317593 106.487539,44.9160903 C107.047809,45.3020288 107.645789,45.876047 108.05791,46.3883098 C108.515822,47.0332598 108.706395,47.8289147 108.706395,48.6630161 C108.706395,49.1177431 109.086866,49.4217651 109.391916,49.7626931 C109.315822,50.1417996 109.16296,50.5209732 109.010772,50.862638 C109.086866,50.9382583 108.934677,51.1658562 108.934677,51.3165611 C108.820199,51.430695 108.629627,51.8103374 108.553533,52.0365957 C108.019526,53.175255 107.105048,54.3121058 105.999324,55.1459393 C106.189896,55.2598052 106.418853,54.9562521 106.609425,55.1459393 C107.639055,54.8432569 108.553533,55.4494925 109.354206,56.0936387 C109.849156,56.3971249 110.459256,56.1318173 110.954879,55.942398 C111.450502,55.2598052 110.725923,54.3877262 111.29764,53.7058702 C111.29764,53.061456 112.136024,53.175255 112.212792,52.6059253 C112.249155,50.8673266 111.02626,49.0769523 110.189223,48.2697768 C110.102354,48.1410413 110.016159,48.0413751 109.858583,47.904803 C110.084172,47.9233564 110.399997,47.9757348 110.660603,48.1031307 C111.966327,48.9456046 112.56498,50.1813178 112.898314,51.6201143 C112.746125,52.1894439 113.356226,52.5677468 113.051176,53.1365406 C113.12727,53.5156471 112.783836,53.9711778 113.12727,54.2739272 C113.546125,54.4259048 114.004038,54.4259048 114.423566,54.2739272 C114.842421,53.8952895 115.109761,53.402384 115.147472,52.8720367 C114.842421,52.6059253 115.109761,52.1894439 114.766327,51.9617791 C114.613465,51.430695 115.223566,51.2791863 115.414139,50.9757001 C115.375755,50.4827276 115.414139,49.8383135 115.26195,49.3071624 C114.880805,47.9812271 113.622219,46.9194608 112.441748,46.3501312 C113.660603,46.2745108 114.804038,47.222947 115.451849,48.2839096 C115.680805,48.8150606 115.948145,49.3835865 116.214812,49.876492 C116.176428,50.0280007 116.253196,50.3689287 116.32929,50.4827276 C116.481479,50.748839 115.948145,50.862638 115.985856,51.2417445 L115.985856,51.430695 C116.100334,51.4688736 116.176428,51.3165611 116.253196,51.4688736 C116.709761,52.0000246 116.709761,52.9468533 116.519189,53.6676916 C116.214812,54.3877262 115.719189,55.1085645 114.995283,55.5632914 C114.347472,55.7908893 113.584509,56.0553932 112.898314,55.715269 C112.136024,55.60147 111.907741,56.5109239 111.29764,56.7388567 C110.49764,56.928276 109.581815,57.269204 108.781815,56.928276 C107.676092,56.7388567 106.762287,55.7908893 105.580469,56.169527 C104.780469,56.6247228 103.750839,56.7770353 103.140738,57.6108688 C102.607405,60.2265031 98.5286171,61.7044829 99.8632972,64.6623178 C100.701681,66.29261 102.035014,67.7709917 102.721883,69.4769712 C102.917169,69.7931166 103.018853,70.4053134 103.297641,70.7047138 C103.711109,71.7516106 104.364307,73.5607393 104.725923,75.3316894 C104.931984,76.7563531 105.275418,78.1964222 104.970368,79.5996523 C104.894947,80.091955 105.542085,80.2058209 105.884846,80.3953742 C108.05791,81.949979 110.078112,84.1107525 112.022219,85.9687765 C113.508415,86.9540517 114.766327,88.5086566 116.481479,89.0398076 C117.968347,89.7216636 119.073398,91.2380899 120.712455,91.5796877 C122.884845,92.3754096 125.057236,93.2099798 127.077438,94.4604957 C128.60269,95.3325747 129.974408,96.6219389 131.690232,97.0385543 C134.090906,97.4176608 136.035013,95.8255472 137.978448,94.6882275 C138.435687,94.6882275 138.893599,94.8020935 139.274744,94.954138 C139.084172,95.2193786 138.664643,95.2943961 138.397976,95.4846192 C137.445114,96.7358049 136.720535,98.1001866 135.844441,99.3513722 C135.23434,99.69297 134.777101,100.26096 134.167,100.451183 L134.014811,100.640736 C134.510434,102.384225 136.30168,103.522214 137.864643,104.052696 L138.740737,104.166561 C136.949492,104.393623 135.005384,103.93883 133.710434,102.649465 C133.328616,102.118984 133.06195,101.588503 132.451849,101.360771 C131.23232,101.66419 130.203364,102.422403 129.250502,103.256304 L128.220872,103.976338 C128.411445,104.317936 128.868684,104.166561 129.136024,104.431802 C130.584509,104.735221 132.185182,104.848417 133.633667,105.037971 C134.281478,105.606631 135.348818,105.303881 136.225586,105.34139 C137.787875,105.265703 139.313128,105.076149 140.570367,104.242249 C140.913801,104.052696 140.989895,103.711098 141.218852,103.445857 C141.790569,102.005118 141.257236,100.451183 140.913801,99.1236404 C142.857909,100.26096 143.315148,102.422403 144.001343,104.242249 L143.962959,104.507489 C144.229626,105.606631 143.925249,106.630754 143.734003,107.691717 C143.124576,109.170634 141.523229,110.383641 139.922555,110.346132 C138.435687,110.42182 137.06397,110.42182 135.653869,110.232266 C134.853195,110.232266 134.319862,110.838435 133.672051,111.142524 C132.680131,111.369586 131.651849,111.331408 130.622892,111.520961 C128.030973,111.938246 125.210098,112.506906 122.656563,111.862559 C122.542084,111.938246 122.427606,111.976425 122.389223,112.090291 C122.503701,112.39304 122.847135,112.658281 123.151512,112.734638 C125.210098,113.682404 127.26801,114.630171 129.250502,115.729312 C133.976428,118.117817 138.969693,119.823796 144.115148,121.226357 C146.17306,121.947061 148.498986,122.212302 150.061276,123.880773 C146.364306,123.235756 142.743431,122.287989 139.160266,121.302044 L138.893599,121.112491 C135.806057,120.354948 132.947471,119.103762 130.050502,118.003951 C128.60269,117.321425 127.001344,117.018676 125.705721,116.070909 C123.609425,115.160652 121.779795,113.758091 119.874071,112.544415 C118.501681,111.748693 117.243768,110.838435 115.604711,110.762748 C114.309088,110.800926 112.936698,110.725239 111.793263,110.952301 C109.581815,111.293899 107.371714,111.862559 105.084846,111.938246 C103.102354,112.090291 100.968348,112.203487 99.0249133,112.052112 C97.0047114,111.673005 94.9461256,111.369586 92.8498293,111.293899 L92.6208731,111.218211 C92.1259236,111.293899 91.6680112,111.104346 91.2875398,111.293899 C90.9441055,111.218211 90.639055,111.445274 90.296294,111.445274 C86.6747453,112.924191 83.4733986,115.50158 80.2713785,117.928264 C75.1636345,121.41658 69.8276077,124.297388 64.2632307,126.610206 C62.0138705,127.861391 59.9936685,129.60488 57.8212107,131.00811 C54.6580458,133.131375 51.3415475,134.874863 47.9495611,136.505155 C46.615083,137.073815 45.2432985,137.604296 43.8328609,138.05976 L43.7184501,137.908385 C44.214275,136.732887 45.3577766,135.746942 46.2336689,134.837354 C46.2721201,134.68531 46.1958238,134.571444 46.1200662,134.457578 C43.9091572,134.154828 42.0414804,135.405344 40.0594603,135.936495 C37.0483492,136.998128 34.3039722,138.552732 31.4070699,139.879605 C25.3848479,142.988145 19.1340736,145.528025 12.4255889,147.006943 C12.1588549,147.006943 11.8534004,147.120139 11.5872051,147.006943 C11.9681478,146.590327 12.616296,146.24873 13.1115822,145.869623 C17.2663969,142.949967 22.2214136,142.078557 26.6808748,139.955293 C31.9404706,137.528609 37.0483492,134.647801 42.4224232,132.448849 C44.4426252,131.5761 46.5390561,130.818557 48.559258,129.946478 C48.0639719,130.629003 47.5299651,131.349038 47.3392581,132.221117 C47.3774399,132.524536 47.3774399,132.865464 47.6062614,133.131375 C48.101615,133.396615 48.635285,133.093196 49.1314466,132.941821 C51.0753523,132.372492 52.866396,131.273351 54.5814801,130.211718 C58.2026248,127.974588 61.7853183,125.738127 65.2540724,123.046202 C68.7986515,120.772233 72.3434325,118.458745 76.0794594,116.677078 C78.8606041,115.19883 81.7582471,114.137198 84.6168329,112.886012 C85.3791224,112.355531 86.6363615,112.127799 86.8269339,110.99048 C87.0558901,110.004535 85.8363615,110.080892 85.3407386,109.587249 C84.7690214,108.942902 83.7023548,108.412421 83.8922538,107.426476 L84.0828262,107.31328 C86.2936005,107.161235 88.0855197,108.185359 90.1434321,108.488108 C93.6498293,109.246991 97.2707046,109.549741 101.006731,109.663607 C103.369694,109.777473 105.542085,109.663607 107.867337,109.739294 C108.324576,109.587249 108.781815,109.701115 109.201344,109.663607 C110.99259,109.625428 112.746125,109.549741 114.49966,109.474053 C114.727943,109.435875 114.918516,109.2845 114.918516,109.056768 C114.766327,108.753349 114.347472,108.601974 114.042421,108.488108 C112.975081,108.298555 111.983836,107.995136 111.030974,107.540342 L110.649829,107.502833 C108.553533,106.668263 106.647809,105.379568 104.322556,105.076149 C103.521883,104.924105 102.683499,104.886596 101.92121,104.697043 C101.95892,104.090204 103.216832,103.559723 102.378449,102.952885 C101.730637,102.649465 101.006731,102.422403 100.282152,102.346716 C100.167674,102.270359 100.243769,102.118984 100.320536,102.080806 C100.663297,101.778056 101.15892,101.512815 101.235014,101.057352 C101.006731,100.185273 100.167674,99.5791041 99.481479,98.9347569 C99.1010076,98.6695162 98.7198629,98.3279185 98.4525228,97.9863207 C98.681479,97.1149114 100.358247,98.0244993 100.12929,96.7733136 C99.8632972,96.2421626 99.1764285,96.0532791 98.834341,95.6359939 C98.9865295,95.2568874 99.481479,95.2943961 99.8249133,95.2193786 C100.587203,94.954138 101.769021,95.8255472 101.807405,94.5743616 C101.692927,94.0063715 101.19663,93.6265952 101.082152,93.0961139 C101.92121,92.5649628 102.797977,93.0961139 103.713129,93.0961139 C104.0936,93.2474886 104.589223,93.3238458 104.894947,93.0586051 C105.122556,92.8683821 105.16094,92.64132 105.199324,92.3754096 C105.237034,92.1108387 104.931984,91.9587942 105.046462,91.7310624 C105.999324,91.4658217 106.952186,91.7310624 107.867337,91.9206156 C108.248482,91.9206156 108.629627,91.6928838 108.820199,91.3519558 C108.781815,90.8589833 108.439055,90.4798767 108.172388,90.0632614 C108.439055,89.8737081 108.85791,89.9112169 109.201344,89.9493955 C109.734677,90.1389488 110.268684,90.2521449 110.802017,90.5180553 C110.99259,90.5555641 111.221546,90.4048592 111.29764,90.2521449 C111.336024,89.9493955 111.183162,89.683485 111.145452,89.456423 C112.288886,89.2293609 113.089559,90.2521449 114.19461,89.987574 C114.49966,90.0250828 114.956899,90.0632614 115.071378,89.7216636 C115.109761,89.3050483 114.613465,89.0016291 114.347472,88.8120758 C111.336024,87.4852028 108.820199,84.944653 106.304374,82.6325048 C104.208078,80.9258555 102.111782,79.10601 100.243769,77.0597723 C99.0626238,75.9217828 97.7286171,75.0115252 96.4323208,74.1401159 C97.1568999,73.9505626 97.9191895,74.4810439 98.6430952,74.6705972 C99.8632972,75.3531229 100.930637,76.3390679 102.111782,77.1347898 C102.302354,77.1347898 102.455216,77.3625217 102.645789,77.2104772 C102.683499,76.9077278 103.02626,76.8313706 103.140738,76.5667998 C103.674745,74.9358378 102.98855,73.2680368 102.455216,71.7516106 C101.120536,68.4528476 99.1393915,65.4200621 98.1090885,62.0462146 C98.0336676,61.7434652 97.8047114,61.3261801 98.1858561,61.1741356 C98.834341,61.3635549 99.3292904,60.9088279 99.7488191,60.454101 C101.235014,59.0127593 102.340738,57.269204 102.721883,55.2979838 C102.492927,54.9188773 101.95892,54.9562521 101.654543,54.6535696 C101.95892,54.2362175 102.607405,54.5397707 103.064644,54.3502844 C103.979122,53.9711778 105.046462,53.857111 105.847135,53.1365406 C107.028954,52.0365957 107.639055,50.7106604 107.981815,49.2697876 C108.05791,48.9663014 107.752859,48.7768151 107.562287,48.6630161 C107.410098,48.5871278 107.105048,48.7012617 107.105048,48.4359541 L107.105048,48.1324009 C106.914475,46.8438405 106.49562,45.0994814 104.970368,44.4545314 C104.905048,44.4545314 104.837708,44.4403986 104.767001,44.4184292" id="path32" fill="#FFFFFF" fill-rule="nonzero"></path>
                        <g id="g34" transform="translate(11.582491, 44.407712)">
                            <g id="g36-Clipped">
                                <mask id="mask-2" fill="white">
                                    <use xlink:href="#path-1"></use>
                                </mask>
                                <g id="path38"></g>
                                <g id="g36" mask="url(#mask-2)" fill="#B09247">
                                    <g transform="translate(114.680132, 49.967049)" id="path42">
                                        <path d="M0.0545454532,9.76165913 C0.0545454532,9.76165913 6.37845102,12.5614214 9.32390549,15.8360716 L9.67003343,16.1810183 C9.67003343,16.1810183 17.1198649,17.6452002 17.8565652,12.7770969 C17.8565652,12.7770969 19.1555551,9.15816971 15.560269,5.06569425 L14.6511781,4.46287463 L14.3481478,4.5057418 C14.3481478,4.5057418 15.9508414,9.45957952 13.4821545,9.9766648 L12.5279458,9.54598366 C12.5279458,9.54598366 11.445791,9.8045263 9.58316474,8.33967461 C9.58316474,8.33967461 8.24040383,7.21976971 8.02424222,6.31487047 C8.02424222,6.31487047 9.5400671,5.71205085 10.4060603,4.24719916 L12.3555552,1.36103275 L13.3952859,0.541867863 C13.3952859,0.541867863 12.3117842,-0.0609517621 11.489562,0.0683195575 L10.4276092,0.886814649 C10.4276092,0.886814649 10.2114476,1.83458106 8.91178429,3.17016143 C7.50437692,4.61759833 6.33467998,5.28069992 6.33467998,5.28069992 L2.5670033,6.65981726 L0.401346791,9.20170668 L0.0545454532,9.76165913"></path>
                                    </g>
                                </g>
                            </g>
                        </g>
                        <path d="M129.974408,109.928847 C130.546125,109.094947 131.384508,108.412421 132.33737,108.222868 C132.375754,108.185359 132.490232,108.14718 132.451849,108.071493 L131.117842,107.805583 C130.584509,107.995136 129.974408,108.071493 129.555552,108.488108 C129.364307,108.298555 128.8303,108.336734 128.983162,107.995136 C129.173734,107.616029 130.16498,108.185359 129.783835,107.502833 C129.478785,107.085548 128.8303,107.047369 128.373734,107.199414 C127.840401,107.388967 127.802017,107.88127 127.725923,108.336734 C127.725923,108.601974 127.916495,108.829036 128.068684,109.056768 L126.924576,109.739294 C126.086192,109.890669 125.247808,110.194758 124.447808,110.194758 C126.20067,110.573194 128.259256,110.497507 129.974408,109.928847" id="path44" fill="#16453B"></path>
                        <path d="M136.835013,108.601974 C136.682825,107.768074 135.806057,107.275101 135.119862,107.123727 C135.119862,107.691717 136.187202,107.88127 135.806057,108.526287 C135.692252,108.563796 135.539391,108.563796 135.577774,108.71584 C135.844441,108.829036 136.225586,109.133125 136.568347,108.905393 L136.835013,108.601974" id="path46" fill="#16453B"></path>
                        <path d="M126.696967,104.052696 C127.496967,102.952885 128.411445,101.739878 129.707741,101.171218 C130.96498,100.299139 132.566327,100.185273 133.710434,99.1618189 C134.357572,98.707025 134.814811,98.0626778 135.311108,97.4558394 C134.738717,97.4558394 134.205384,97.834946 133.710434,98.2140525 C132.146798,98.6313377 130.431647,98.5931591 129.212118,99.6547914 C128.411445,100.299139 127.458583,100.981664 126.887539,101.891922 L126.276765,103.93883 C126.315148,104.128383 126.544105,104.128383 126.696967,104.052696" id="path48" fill="#16453B"></path>
                    </g>
                </g>
            </g>
        </g>
    </g>
</svg>