<?xml version="1.0" encoding="UTF-8"?>
<svg width="200px" height="200px" viewBox="0 0 200 200" version="1.1" xmlns="http://www.w3.org/2000/svg" xmlns:xlink="http://www.w3.org/1999/xlink">
    <!-- Generator: Sketch 51.3 (57544) - http://www.bohemiancoding.com/sketch -->
    <title>ill-wesleyan</title>
    <desc>Created with Sketch.</desc>
    <defs></defs>
    <g id="ill-wesleyan" stroke="none" stroke-width="1" fill="none" fill-rule="evenodd">
        <g id="ill-wesleyan_BGL" transform="translate(12.987013, 0.865801)">
            <g id="ill-wesleyan">
                <g id="g10" transform="translate(86.564212, 99.797854) scale(-1, 1) rotate(-180.000000) translate(-86.564212, -99.797854) translate(0.256865, 0.041142)" fill-rule="nonzero">
                    <g id="g12" transform="translate(0.154120, 0.000000)">
                        <polyline id="path14" fill="#00674C" points="106.367641 194.028347 106.367641 178.94503 99.0042885 178.94503 99.0042885 22.2823585 107.908844 22.2823585 107.908844 5.14209855 99.0042885 5.14209855 74.3455601 5.14209855 65.4404913 5.14209855 65.4404913 22.2823585 74.3455601 22.2823585 74.3455601 173.460467 74.3455601 178.94503 65.4404913 178.94503 65.4404913 194.028347 106.367641 194.028347"></polyline>
                        <path d="M111.504983,199.170446 L60.3031492,199.170446 L60.3031492,173.802931 L69.208218,173.802931 L69.208218,173.460467 L69.208218,27.4244571 L65.4404913,27.4244571 L60.3031492,27.4244571 L60.3031492,22.2823585 L60.3031492,5.14209855 L60.3031492,0 L65.4404913,0 L74.3455601,0 L99.0042885,0 L107.908844,0 L113.046186,0 L113.046186,5.14209855 L113.046186,22.2823585 L113.046186,27.4244571 L107.908844,27.4244571 L104.141631,27.4244571 L104.141631,173.460467 L104.141631,173.802931 L106.367641,173.802931 L111.504983,173.802931 L111.504983,178.94503 L111.504983,194.028347 L111.504983,199.170446 Z M106.367641,194.028347 L106.367641,178.94503 L99.0042885,178.94503 L99.0042885,22.2823585 L107.908844,22.2823585 L107.908844,5.14209855 L99.0042885,5.14209855 L74.3455601,5.14209855 L65.4404913,5.14209855 L65.4404913,22.2823585 L74.3455601,22.2823585 L74.3455601,173.460467 L74.3455601,178.94503 L65.4404913,178.94503 L65.4404913,194.028347 L106.367641,194.028347 Z" id="path16" fill="#231F20"></path>
                        <polyline id="path18" fill="#00674C" points="93.5222308 128.628053 116.984986 76.104087 132.397012 155.292405 126.574862 155.292405 126.574862 171.403114 166.988278 171.403114 166.988278 170.032744 166.988278 155.292405 156.713594 155.292405 134.451949 29.4823249 111.847644 29.4823249 87.0173282 80.5602296 60.3031492 29.4823249 37.6988439 29.4823249 15.4371993 155.292405 5.16251509 155.292405 5.16251509 170.032744 5.16251509 171.403114 45.5764443 171.403114 45.5764443 155.292405 39.7537807 155.292405 55.1658071 76.104087 78.6285623 128.628053 93.5222308 128.628053"></polyline>
                        <path d="M172.12562,176.545212 L121.43752,176.545212 L121.43752,150.150306 L126.162334,150.150306 L115.046667,93.0395886 L98.2121104,130.727057 L96.8522559,133.770151 L93.5222308,133.770151 L78.6285623,133.770151 L75.2980234,133.770151 L73.9386826,130.727057 L57.1036125,93.0395886 L45.9884591,150.150306 L50.7137864,150.150306 L50.7137864,155.292405 L50.7137864,171.403114 L50.7137864,176.545212 L45.5764443,176.545212 L5.16251509,176.545212 L0.0251729764,176.545212 L0.0251729764,171.403114 L0.0251729764,170.032744 L0.0251729764,155.292405 L0.0251729764,150.150306 L5.16251509,150.150306 L11.129538,150.150306 L32.6401031,28.5854401 L33.3916963,24.3402264 L37.6988439,24.3402264 L60.3031492,24.3402264 L63.4122686,24.3402264 L64.8548343,27.0972653 L86.8493371,69.152484 L107.227632,27.2326568 L108.634236,24.3402264 L111.847644,24.3402264 L134.451949,24.3402264 L138.759097,24.3402264 L139.510176,28.5854401 L161.020741,150.150306 L166.988278,150.150306 L172.12562,150.150306 L172.12562,155.292405 L172.12562,170.032744 L172.12562,171.403114 L172.12562,176.545212 Z M166.988278,171.403114 L166.988278,155.292405 L156.713594,155.292405 L134.451949,29.4823249 L111.847644,29.4823249 L87.0173282,80.5602296 L60.3031492,29.4823249 L37.6988439,29.4823249 L15.4371993,155.292405 L5.16251509,155.292405 L5.16251509,170.032744 L5.16251509,171.403114 L45.5764443,171.403114 L45.5764443,155.292405 L39.7537807,155.292405 L55.1658071,76.104087 L78.6285623,128.628053 L93.5222308,128.628053 L116.984986,76.104087 L132.397012,155.292405 L126.574862,155.292405 L126.574862,171.403114 L166.988278,171.403114 Z" id="path20" fill="#231F20"></path>
                        <polyline id="path22" fill="#00674C" points="93.5222308 128.628053 116.984986 76.104087 132.397012 155.292405 126.574862 155.292405 126.574862 171.403114 166.988278 171.403114 166.988278 170.032744 166.988278 155.292405 156.713594 155.292405 134.451949 29.4823249 111.847644 29.4823249 87.0173282 80.5602296 60.3031492 29.4823249 37.6988439 29.4823249 15.4371993 155.292405 5.16251509 155.292405 5.16251509 170.032744 5.16251509 171.403114 45.5764443 171.403114 45.5764443 155.292405 39.7537807 155.292405 55.1658071 76.104087 78.6285623 128.628053 93.5222308 128.628053"></polyline>
                        <path d="M170.584417,175.002583 L122.978723,175.002583 L122.978723,151.692936 L128.03284,151.692936 L115.628214,87.9591952 L96.8049924,130.09715 L95.8535566,132.227522 L93.5222308,132.227522 L78.6285623,132.227522 L76.2967227,132.227522 L75.3452869,130.09715 L56.5220654,87.9591952 L44.1179529,151.692936 L45.5764443,151.692936 L49.1725838,151.692936 L49.1725838,155.292405 L49.1725838,171.403114 L49.1725838,175.002583 L45.5764443,175.002583 L5.16251509,175.002583 L1.56637561,175.002583 L1.56637561,171.403114 L1.56637561,170.032744 L1.56637561,155.292405 L1.56637561,151.692936 L5.16251509,151.692936 L12.4215795,151.692936 L34.1581877,28.8544233 L34.6837378,25.8828559 L37.6988439,25.8828559 L60.3031492,25.8828559 L62.4798411,25.8828559 L63.4893288,27.8131483 L86.8996831,72.5750648 L108.613687,27.9071459 L109.598002,25.8828559 L111.847644,25.8828559 L134.451949,25.8828559 L137.467055,25.8828559 L137.992605,28.8544233 L159.7287,151.692936 L166.988278,151.692936 L170.584417,151.692936 L170.584417,155.292405 L170.584417,170.032744 L170.584417,171.403114 L170.584417,175.002583 Z M166.988278,171.403114 L166.988278,155.292405 L156.713594,155.292405 L134.451949,29.4823249 L111.847644,29.4823249 L87.0173282,80.5602296 L60.3031492,29.4823249 L37.6988439,29.4823249 L15.4371993,155.292405 L5.16251509,155.292405 L5.16251509,170.032744 L5.16251509,171.403114 L45.5764443,171.403114 L45.5764443,155.292405 L39.7537807,155.292405 L55.1658071,76.104087 L78.6285623,128.628053 L93.5222308,128.628053 L116.984986,76.104087 L132.397012,155.292405 L126.574862,155.292405 L126.574862,171.403114 L166.988278,171.403114 Z" id="path24" fill="#FFFFFF"></path>
                        <polyline id="path26" fill="#00674C" points="93.5222308 128.628053 116.984986 76.104087 132.397012 155.292405 126.574862 155.292405 126.574862 171.403114 166.988278 171.403114 166.988278 170.032744 166.988278 155.292405 156.713594 155.292405 134.451949 29.4823249 111.847644 29.4823249 87.0173282 80.5602296 60.3031492 29.4823249 37.6988439 29.4823249 15.4371993 155.292405 5.16251509 155.292405 5.16251509 170.032744 5.16251509 171.403114 45.5764443 171.403114 45.5764443 155.292405 39.7537807 155.292405 55.1658071 76.104087 78.6285623 128.628053 93.5222308 128.628053"></polyline>
                        <polyline id="path28" fill="#00674C" points="106.367641 194.028347 106.367641 178.94503 99.0042885 178.94503 99.0042885 22.2823585 107.908844 22.2823585 107.908844 5.14209855 99.0042885 5.14209855 74.3455601 5.14209855 65.4404913 5.14209855 65.4404913 22.2823585 74.3455601 22.2823585 74.3455601 173.460467 74.3455601 178.94503 65.4404913 178.94503 65.4404913 194.028347 106.367641 194.028347"></polyline>
                        <polyline id="path30" fill="#00674C" points="106.367641 194.028347 106.367641 178.94503 99.0042885 178.94503 99.0042885 22.2823585 107.908844 22.2823585 107.908844 5.14209855 99.0042885 5.14209855 74.3455601 5.14209855 65.4404913 5.14209855 65.4404913 22.2823585 74.3455601 22.2823585 74.3455601 173.460467 74.3455601 178.94503 65.4404913 178.94503 65.4404913 194.028347 106.367641 194.028347"></polyline>
                        <path d="M109.96378,197.627816 L61.8443518,197.627816 L61.8443518,175.345561 L70.7494207,175.345561 L70.7494207,173.460467 L70.7494207,25.8818275 L65.4404913,25.8818275 L61.8443518,25.8818275 L61.8443518,22.2823585 L61.8443518,5.14209855 L61.8443518,1.54262957 L65.4404913,1.54262957 L74.3455601,1.54262957 L99.0042885,1.54262957 L107.908844,1.54262957 L111.504983,1.54262957 L111.504983,5.14209855 L111.504983,22.2823585 L111.504983,25.8818275 L107.908844,25.8818275 L102.600428,25.8818275 L102.600428,173.460467 L102.600428,175.345561 L106.367641,175.345561 L109.96378,175.345561 L109.96378,178.94503 L109.96378,194.028347 L109.96378,197.627816 Z M106.367641,194.028347 L106.367641,178.94503 L99.0042885,178.94503 L99.0042885,22.2823585 L107.908844,22.2823585 L107.908844,5.14209855 L99.0042885,5.14209855 L74.3455601,5.14209855 L65.4404913,5.14209855 L65.4404913,22.2823585 L74.3455601,22.2823585 L74.3455601,173.460467 L74.3455601,178.94503 L65.4404913,178.94503 L65.4404913,194.028347 L106.367641,194.028347 Z" id="path32" fill="#FFFFFF"></path>
                    </g>
                </g>
            </g>
        </g>
    </g>
</svg>