<?xml version="1.0" encoding="UTF-8"?>
<svg width="200px" height="200px" viewBox="0 0 200 200" version="1.1" xmlns="http://www.w3.org/2000/svg" xmlns:xlink="http://www.w3.org/1999/xlink">
    <!-- Generator: Sketch 51.3 (57544) - http://www.bohemiancoding.com/sketch -->
    <title>indiana-pa</title>
    <desc>Created with Sketch.</desc>
    <defs></defs>
    <g id="indiana-pa" stroke="none" stroke-width="1" fill="none" fill-rule="evenodd">
        <g id="indiana-pa_BGL" transform="translate(0.000000, 2.000000)">
            <g id="indiana-pa">
                <g id="g10" transform="translate(99.924753, 97.986460) scale(-1, 1) rotate(-180.000000) translate(-99.924753, -97.986460) translate(0.000000, 0.168554)" fill-rule="nonzero">
                    <g id="g12">
                        <polyline id="path14" fill="#A80C30" points="36.7343858 47.5952434 17.0226632 47.5952434 25.8674486 38.3812782 36.7348674 44.2574556 36.7343858 47.5952434"></polyline>
                        <polygon id="path16" fill="#A80C30" points="156.506241 47.5952434 173.309853 38.5094347 182.160417 47.5952434"></polygon>
                        <path d="M87.7543996,23.0612485 C87.1500354,23.0612485 86.9321272,22.5775766 86.9321272,22.1543411 C86.9321272,20.1185247 86.8839707,18.0833705 86.8839707,16.02781 C86.8839707,15.0002103 86.8598925,13.9519635 86.9568075,12.9244241 C86.9808857,12.5011886 87.1741137,12.097938 87.7543996,12.097938 C88.4075222,12.097938 88.576672,12.5211735 88.576672,13.0050862 C88.576672,15.0401802 88.6495087,17.075816 88.6495087,19.11091 C88.6495087,20.139232 88.6495087,21.2072229 88.576672,22.2347624 C88.5285155,22.6779829 88.3593657,23.0612485 87.7543996,23.0612485" id="path18" fill="#A80C30"></path>
                        <polygon id="path20" fill="#A80C30" points="124.005415 15.2824074 125.9395 15.2824074 124.827687 22.2547474"></polygon>
                        <path d="M45.716959,22.897396 C45.6872825,22.8978775 45.6583886,22.8997436 45.6282908,22.8997436 L45.1688175,22.8997436 L45.1688175,21.1789912 L45.1688175,18.8494803 L45.6522487,18.828773 C46.3054917,18.8087881 46.8134225,18.9498867 46.8134225,19.5748979 L46.8134225,22.1543411 C46.8134225,22.7492545 46.3080801,22.8856578 45.716959,22.897396" id="path22" fill="#A80C30"></path>
                        <path d="M164.532727,27.9286675 L22.4299167,27.9286675 L28.7565982,7.25592156 L169.409176,7.25592156 L176.685624,27.9286675 L171.213841,27.9286675 L169.93348,27.9286675 L164.532727,27.9286675 Z M38.7600893,13.2465911 C38.7600893,11.2713917 37.7687876,10.3045295 35.3503678,10.3045295 C33.4640774,10.3045295 32.0372603,10.9293 31.9403453,12.6218206 C31.8921888,13.7305038 31.8921888,14.8384646 31.8921888,15.9271629 C31.8921888,18.0833705 31.9403453,20.2195932 31.9403453,22.375861 C31.9403453,23.1389009 32.223927,23.6996834 32.6935131,24.1005863 C33.2900518,24.6108647 34.1949126,24.8548978 35.2779525,24.8548978 C35.5417899,24.8548978 35.7790209,24.8424373 36.0037914,24.8248 C37.0958004,24.7378173 37.7489833,24.443882 38.1372451,23.9759813 C38.6660637,23.3394727 38.7119328,22.3836262 38.7119328,21.1867564 C38.7119328,20.6828588 38.7600893,20.2195932 38.9294196,19.7359213 L36.8830089,19.7359213 L35.9549126,19.7359213 C36.0270871,20.0028287 36.0736184,20.2732275 36.1077493,20.5436263 C36.152896,20.9073885 36.1726402,21.2725954 36.1726402,21.6304585 C36.1726402,22.174326 36.2692542,23.0612485 35.326109,23.0612485 C34.7370947,23.0612485 34.5398336,22.6022568 34.5302023,22.1872681 C34.5299615,22.1766736 34.5280954,22.1654171 34.5280954,22.1543411 L34.5280954,13.0050862 C34.5280954,12.5818507 34.7216244,12.097938 35.326109,12.097938 C36.4146266,12.097938 36.1726402,13.3072081 36.1726402,13.9319786 C36.1726402,14.6573962 36.196598,15.4027987 35.9549126,16.0882464 L38.9294196,16.0882464 C38.59106,15.1812788 38.7600893,14.1937092 38.7600893,13.2465911 Z M48.4577264,10.5060043 C48.1814284,10.5060043 47.911752,10.5106995 47.6415338,10.5161171 C47.3674029,10.5208124 47.0934525,10.5259892 46.8134225,10.5259892 C46.8134225,11.7752894 46.8373803,13.0050862 46.8373803,14.2541456 C46.8373803,14.8991418 46.8613382,15.5438973 46.8134225,16.2092998 C46.7889228,16.854296 46.6196527,17.0353645 45.821579,17.075816 C45.6040922,17.0958009 45.3863044,17.0958009 45.1688175,17.0958009 C45.1688175,15.9671328 45.1446189,14.8384646 45.1446189,13.7105188 C45.1446189,12.6740102 45.0675083,11.6906543 45.5307137,10.7270426 C45.5629183,10.6600449 45.590187,10.5930471 45.6282908,10.5259892 L42.169871,10.5259892 C42.4842728,11.1510005 42.5811276,11.513619 42.5811276,12.1985249 L42.5811276,13.7998492 L42.5811276,20.9692696 L42.5811276,22.2084569 L42.5811276,22.9401951 C42.5811276,23.6656127 42.5084715,23.9677345 42.169871,24.6331973 C42.3387198,24.6331973 42.5082307,24.6355449 42.6768387,24.6366886 C43.4520982,24.6413839 44.2294647,24.6531822 45.0235053,24.6531822 C45.1960862,24.6531822 45.357892,24.6514968 45.5180124,24.6491491 C46.3990959,24.6362673 47.0962817,24.5826329 47.6415338,24.4450859 C48.9691485,24.1099768 49.4006308,23.2689234 49.4006308,21.2471928 C49.4006308,20.0785548 49.6668159,18.7888031 48.6752132,17.8412035 C49.8118874,16.5514518 49.376673,14.4358762 49.376673,12.8839726 C49.376673,11.896403 49.3524141,11.5336039 49.7634299,10.6066514 C49.5944006,10.4855377 48.6994721,10.5060043 48.4577264,10.5060043 Z M56.1477187,10.5259892 L52.6895397,10.5259892 C53.0038813,11.1510005 53.1005555,11.513619 53.1005555,12.1985249 L53.1005555,22.9401951 C53.1005555,23.6656127 53.0281401,23.9677345 52.6895397,24.6331973 L56.1477187,24.6331973 C55.7851002,23.9884418 55.6882454,23.6456277 55.6882454,22.9401951 L55.6882454,12.1985249 C55.6882454,11.4731675 55.7851002,11.1909704 56.1477187,10.5259892 Z M71.1169282,10.5259892 L67.9006755,10.5259892 C68.2395769,11.1510005 68.3599682,11.513619 68.3599682,12.1985249 L68.3599682,20.2596233 L66.1351375,10.5259892 L64.1522934,10.5259892 L61.951541,20.139232 C61.951541,18.3455827 61.9027825,16.5514518 61.9027825,14.7580433 C61.9027825,13.3676445 61.7336328,11.8157409 62.4108337,10.5259892 L59.2188398,10.5259892 C59.5330008,11.1510005 59.6299157,11.513619 59.6299157,12.1985249 L59.6299157,22.9401951 C59.6299157,23.6656127 59.5574402,23.9677345 59.2188398,24.6331973 L63.2090278,24.6331973 L65.1437155,16.4310605 L67.0061684,24.5120837 L71.1410065,24.5120837 C70.802707,23.806651 70.6817138,23.5652063 70.6817138,22.7791115 L70.6817138,12.1985249 C70.6817138,11.493634 70.7545505,11.1909704 71.1169282,10.5259892 Z M77.573512,23.0408422 C76.8234744,23.0408422 77.0419845,21.6504434 77.0419845,21.2072229 C77.0419845,20.9849807 77.0419845,20.7635209 77.0654608,20.5417602 C77.1623758,18.8694653 80.620615,17.5996986 80.71753,15.3423623 C80.7416082,14.9595783 80.71753,14.5969598 80.71753,14.2141757 C80.71753,12.5211735 81.1286661,11.1302932 78.7828423,10.4455678 C78.4198626,10.3444994 78.0574849,10.3045295 77.670427,10.3045295 C74.8653104,10.3045295 74.6714805,11.6546573 74.6714805,13.548713 C74.6714805,14.0126407 74.6233239,14.4758461 74.4535723,14.9196084 L77.2592908,14.9196084 C77.0895391,14.3952442 77.0419845,13.8309101 77.0419845,13.2872231 C77.0419845,12.9039575 76.9450696,12.077953 77.6222704,12.077953 C78.3957843,12.077953 78.1778761,13.6093902 78.1778761,14.0730772 C78.1778761,14.3348078 78.1778761,14.5769748 78.1543999,14.8384646 C78.0328047,16.5721591 74.6714805,17.8818957 74.5023307,20.2195932 C74.4782525,20.5217753 74.5023307,20.8039122 74.5023307,21.0861093 L74.5023307,22.5369445 C74.5023307,24.1088331 76.098117,24.8548978 77.8154984,24.8548978 C81.4910439,24.8548978 80.0403291,22.2754547 80.7656865,20.4213689 L77.9364917,20.4213689 C78.1297196,20.9250258 78.1778761,21.4489084 78.1778761,21.9526255 C78.1778761,22.3354095 78.2266346,23.0408422 77.573512,23.0408422 Z M91.1891625,19.2320236 C91.1891625,17.0958009 91.140404,14.9395933 91.140404,12.8033104 C91.140404,11.0498718 89.8100805,10.3045295 87.8272363,10.3045295 C85.9166269,10.3045295 84.4899904,10.8888485 84.3689971,12.6218206 C84.2967624,13.7305038 84.3208406,14.8384646 84.3208406,15.9271629 C84.3208406,18.0833705 84.3689971,20.2195932 84.3689971,22.375861 C84.3689971,24.1088331 85.7715554,24.8548978 87.7062431,24.8548978 C89.6168525,24.8548978 91.0194108,24.2699166 91.140404,22.5369445 C91.2126388,21.4489084 91.1891625,20.3402252 91.1891625,19.2320236 Z M103.135588,10.5259892 L100.32987,10.5060043 L97.2586883,19.4337994 C97.2586883,17.8012336 97.2105318,16.1688484 97.2105318,14.5162976 C97.2105318,13.1861547 97.0654603,11.7752894 97.717981,10.5259892 L94.5258065,10.5259892 C94.8400277,11.1510005 94.9369427,11.513619 94.9369427,12.1985249 L94.9369427,22.9401951 C94.9369427,23.6656127 94.8647079,23.9677345 94.5258065,24.6331973 L97.4759946,24.6331973 L100.378628,15.8060493 C100.378628,17.4386151 100.426785,19.0505338 100.426785,20.6828588 C100.426785,21.9932575 100.595934,23.4241078 99.9187334,24.6331973 L103.135588,24.6331973 C102.796687,24.0084268 102.699772,23.6251612 102.699772,22.9401951 L102.699772,12.1985249 C102.699772,11.493634 102.772608,11.1909704 103.135588,10.5259892 Z M118.22543,10.5259892 L114.791269,10.5259892 C115.129568,11.1510005 115.226483,11.513619 115.226483,12.1985249 L115.226483,17.0958009 L113.581938,17.0958009 C113.581938,15.9671328 113.55786,14.8384646 113.55786,13.7105188 C113.55786,12.6018357 113.460945,11.5535889 114.041833,10.5259892 L110.583594,10.5259892 C110.897815,11.1510005 110.994128,11.513619 110.994128,12.1985249 L110.994128,22.9401951 C110.994128,23.6656127 110.921893,23.9677345 110.583594,24.6331973 L114.041833,24.6331973 C113.678853,23.9884418 113.581938,23.6456277 113.581938,22.9401951 L113.581938,18.8494803 L115.226483,18.8494803 C115.226483,19.7963577 115.251163,20.743536 115.251163,21.6904133 C115.251163,22.758645 115.322796,23.6456277 114.791269,24.6331973 L118.22543,24.6331973 C117.910607,24.0084268 117.789613,23.6251612 117.789613,22.9401951 L117.789613,12.1985249 C117.789613,11.493634 117.886528,11.1709854 118.22543,10.5259892 Z M126.205565,10.5259892 C126.350636,10.8488786 126.519786,11.1909704 126.519786,11.5535889 C126.519786,12.1985249 126.350636,12.8639876 126.230245,13.5087431 L123.811585,13.5087431 C123.738748,12.8432803 123.593676,12.1985249 123.593676,11.5336039 C123.593676,11.1709854 123.690591,10.8688635 123.835663,10.5259892 L120.837318,10.5259892 C121.199696,11.0903233 121.223774,11.292099 121.296611,11.916388 L122.626333,23.2830092 C122.651013,23.4640777 122.674489,23.6456277 122.674489,23.806651 C122.674489,24.0888482 122.602254,24.3510001 122.529418,24.6331973 L127.075994,24.6331973 C127.003759,24.39097 126.906844,24.1695103 126.906844,23.9277646 C126.906844,23.826636 126.906844,23.7462146 126.931524,23.6456277 L128.769297,12.1385701 C128.89029,11.4531826 128.914368,11.1510005 129.300824,10.5259892 L126.205565,10.5259892 Z M145.358612,23.2830092 L142.939951,11.5942209 C142.867115,11.2314218 142.891795,10.8888485 142.964631,10.5259892 L139.530471,10.5259892 C139.626784,10.7882014 139.675542,11.0703383 139.675542,11.3525355 C139.675542,11.513619 139.675542,11.6746423 139.651464,11.8357258 L138.635361,19.8163426 L137.619861,11.8357258 L137.595181,11.513619 C137.571705,11.1909704 137.643939,10.8488786 137.740854,10.5259892 L134.306693,10.5259892 C134.355452,10.7477499 134.37953,10.9492849 134.37953,11.1709854 C134.37953,11.312084 134.355452,11.4531826 134.330772,11.5942209 L131.912713,23.2830092 C131.815798,23.7462146 131.62257,24.1894953 131.404662,24.6331973 L134.1857,24.6331973 C134.16102,24.4316623 134.112863,24.2099618 134.112863,24.0084268 C134.112863,23.826636 134.137544,23.6456277 134.1857,23.4640777 C134.765986,20.5624675 135.564782,17.7001049 135.806167,14.7580433 C135.92716,18.0633856 136.483368,21.3482613 136.869824,24.6331973 L140.400899,24.6331973 C140.787355,21.3482613 141.271328,18.0633856 141.464556,14.7580433 C141.707145,17.7001049 142.480659,20.5624675 143.085625,23.4640777 C143.133781,23.6855976 143.157859,23.9072981 143.157859,24.1295404 C143.157859,24.2905637 143.109703,24.4516472 143.085625,24.6331973 L145.866663,24.6331973 C145.624075,24.1894953 145.454925,23.7462146 145.358612,23.2830092 Z M153.798642,10.5259892 C153.790214,10.8147477 153.756505,11.0503534 153.705339,11.2690441 C153.609026,11.6765686 153.447099,12.0226935 153.242434,12.5211735 L151.500974,16.7532276 C151.500974,15.7256279 151.476896,14.6773811 151.476896,13.6293751 C151.476896,12.5818507 151.404059,11.513619 151.839876,10.5259892 L151.014594,10.5259892 L148.50263,10.5259892 C148.865008,11.3525355 148.913164,11.7957559 148.913164,12.682257 L148.913164,22.9401951 C148.913164,23.6656127 148.840327,23.9677345 148.50263,24.6331973 L151.214443,24.6331973 L151.960267,24.6331973 C151.597287,23.9884418 151.500974,23.6456277 151.500974,22.9401951 L151.500974,19.2520085 L153.218356,23.4840626 C153.387506,23.8873132 153.411584,24.1894953 153.411584,24.6127308 L153.892547,24.6127308 L156.179379,24.6127308 L156.38585,24.6127308 C156.307596,24.4963124 156.241381,24.3792319 156.174563,24.2616698 C156.055978,24.0542959 155.947024,23.8442733 155.854323,23.6251612 L154.983292,21.4724449 L153.62889,18.1233404 L155.636414,13.2512864 L156.119785,12.077953 C156.337092,11.5535889 156.627837,11.0298869 156.942058,10.5259892 L153.798642,10.5259892 Z M163.286076,21.104469 C163.332426,21.3889536 163.350485,21.6739799 163.350485,21.9526255 C163.350485,22.3354095 163.398642,23.0408422 162.746121,23.0408422 C161.996083,23.0408422 162.213991,21.6504434 162.213991,21.2072229 C162.213991,20.9849807 162.213991,20.7635209 162.23807,20.5417602 C162.246497,20.401384 162.285022,20.2649807 162.336189,20.1297813 C162.898416,18.6500522 165.801049,17.4103833 165.889537,15.3423623 C165.914217,14.9595783 165.889537,14.5969598 165.889537,14.2141757 C165.889537,12.5211735 166.300673,11.1302932 163.955451,10.4455678 C163.592471,10.3444994 163.22889,10.3045295 162.842434,10.3045295 C160.037317,10.3045295 159.844089,11.6546573 159.844089,13.548713 C159.844089,14.0126407 159.795933,14.4758461 159.626181,14.9196084 L162.431298,14.9196084 C162.262148,14.3952442 162.213991,13.8309101 162.213991,13.2872231 C162.213991,12.9039575 162.117076,12.077953 162.794277,12.077953 C163.567791,12.077953 163.350485,13.6093902 163.350485,14.0730772 C163.350485,14.3348078 163.350485,14.5769748 163.326407,14.8384646 C163.242735,16.0359966 161.613239,17.031813 160.557408,18.3032652 C160.084872,18.8729566 159.726708,19.4965834 159.674338,20.2195932 C159.650259,20.5217753 159.674338,20.8039122 159.674338,21.0861093 L159.674338,22.5369445 C159.674338,22.8680205 159.748378,23.1607519 159.876595,23.4186902 C160.355752,24.3881409 161.6319,24.8548978 162.987505,24.8548978 C163.150635,24.8548978 163.290891,24.8436412 163.434157,24.8342507 C164.852366,24.7366736 165.356204,24.1758308 165.544014,23.4222417 C165.766136,22.5321891 165.562675,21.380767 165.937693,20.4213689 L163.108499,20.4213689 C163.19518,20.6463802 163.249356,20.8751838 163.286076,21.104469 Z" id="path24" fill="#A80C30"></path>
                        <path d="M100.488786,117.403157 L93.7354378,122.9857 L86.4312996,122.9857 C89.955152,121.034158 91.8796064,119.796536 95.1133159,117.403157 C97.2839705,115.795934 98.4704264,114.835212 100.488786,113.045595 C102.506544,114.835212 103.691796,115.795934 105.86245,117.403157 C109.09616,119.796536 111.020012,121.034158 114.544467,122.9857 L107.24093,122.9857 L100.488786,117.403157" id="path26" fill="#A80C30"></path>
                        <path d="M70.2699757,127.153646 C72.9486814,132.784346 73.436266,142.860493 73.436266,142.860493 C73.436266,142.860493 77.1665895,143.00737 79.2945052,144.181185 C82.2236247,145.798642 82.7774246,148.586904 82.7774246,148.586904 L77.2364164,149.613841 C70.7449192,158.789462 77.7902163,162.45959 74.3072969,167.597287 C74.5781772,167.506994 80.8782523,165.468167 84.0439407,161.35801 C88.4616983,155.623171 96.8680186,156.660944 96.8680186,156.660944 C96.8680186,156.660944 92.5586132,159.838672 90.5354379,162.532426 C88.1480791,165.70895 89.2683198,167.817001 86.260344,171.780884 C85.2773493,173.076294 82.936341,174.423472 82.936341,174.423472 C82.936341,174.423472 84.7753177,176.575466 86.1026314,177.800447 C88.7933763,180.281711 93.8600428,183.085022 93.8600428,183.085022 C92.6326538,182.864104 89.5085004,182.58299 88.0018037,182.204962 C83.0440912,180.955902 79.3089521,179.688182 75.44981,177.480808 C75.44981,177.480808 67.5009765,165.686678 65.2851752,158.175466 L68.8276883,159.01339 C67.2397274,156.444842 64.805416,151.490139 62.8099307,143.037468 L67.6942045,145.502479 C67.2583881,142.635963 66.8297952,139.977122 66.4704272,136.842134 C65.7691481,130.730471 63.550939,124.831901 59.0293439,117.903985 C57.891526,116.161321 56.1688474,114.017755 55.0714809,112.620012 C55.0714809,112.620012 65.5205401,117.168394 70.2699757,127.153646" id="path28" fill="#A80C30"></path>
                        <path d="M114.723248,171.780884 C111.71467,167.817001 112.834911,165.70895 110.448154,162.532426 C108.424978,159.838672 104.114971,156.660944 104.114971,156.660944 C104.114971,156.660944 112.520689,155.623171 116.939049,161.35801 C120.105339,165.468167 126.404812,167.506994 126.675693,167.597287 C123.192773,162.45959 130.23807,158.789462 123.746573,149.613841 L118.206167,148.586904 C118.206167,148.586904 118.759365,145.798642 121.689086,144.181185 C123.817002,143.00737 127.546122,142.860493 127.546122,142.860493 C127.546122,142.860493 128.034308,132.784346 130.713014,127.153646 C135.46245,117.168394 145.911208,112.620012 145.911208,112.620012 C144.813841,114.017755 143.091644,116.161321 141.953947,117.903985 C137.432653,124.831901 135.214444,130.730471 134.512562,136.842134 C134.153195,139.977122 133.724602,142.635963 133.288183,145.502479 L138.173661,143.037468 C136.178176,151.490139 133.743262,156.444842 132.155301,159.01339 L135.696611,158.175466 C133.482615,165.686678 125.532578,177.480808 125.532578,177.480808 C121.673436,179.688182 117.9395,180.955902 112.980584,182.204962 C111.473887,182.58299 108.349734,182.864104 107.122345,183.085022 C107.122345,183.085022 112.189613,180.281711 114.880358,177.800447 C116.207672,176.575466 118.047251,174.423472 118.047251,174.423472 C118.047251,174.423472 115.705038,173.076294 114.723248,171.780884" id="path30" fill="#A80C30"></path>
                        <path d="M128.965535,89.1924733 L128.97938,32.8936034 L128.97938,32.8865605 L155.274639,32.8865605 L155.269823,32.8936034 L154.897814,33.4532422 L151.414895,38.6921285 L149.078702,42.2051457 L149.075692,52.5837158 L162.274187,52.5837158 L175.876595,61.785401 L175.869973,89.0070708 L162.263352,98.5125634 L121.654173,98.5125634 L128.965535,89.1924733 Z M149.072081,64.9029329 L149.067265,85.9720069 L156.581486,86.1929249 L156.586302,64.9029329 L149.072081,64.9029329 Z M149.832953,59.5842874 L149.831749,62.6233242 L158.86591,62.6233242 L158.861095,85.4121875 L161.899168,85.5006751 L161.904586,59.5842874 L149.832953,59.5842874 Z M165.89676,93.1936771 L134.21038,93.1936771 L134.292848,35.1669517 L131.257785,35.1669517 L131.244541,89.9804342 L126.339199,96.2323527 L161.546422,96.2323527 L165.89676,93.1936771 Z" id="path32" fill="#FFFFFF"></path>
                        <path d="M105.952142,32.8865605 L105.961773,32.8936034 L119.046498,42.3927755 L119.033255,98.5125634 L92.0264838,98.5125634 L98.8309983,89.0407803 L98.8418335,45.1267408 L90.1104567,45.1267408 L90.0978157,98.5125634 L64.5766726,98.5125634 L69.8973647,88.5399526 L69.9088019,42.3927755 L83.3011266,32.8936034 L83.3113598,32.8865605 L105.952142,32.8865605 Z M101.121442,42.9465151 L101.110607,89.7745651 L96.4707275,96.2323527 L116.753646,96.2323527 L116.75485,93.1936771 L104.341909,93.1936771 L104.341909,39.7879298 L90.8707276,39.7879298 L90.8707276,42.8541148 L101.121442,42.9465151 Z M75.2270862,41.415078 L72.1878086,43.570804 L72.1763714,91.0386734 L68.3563565,96.2323527 L87.8188089,96.2323527 L87.8194109,93.1936771 L75.2144451,93.1936771 L75.2270862,41.415078 Z" id="path34" fill="#FFFFFF"></path>
                        <path d="M41.6885467,89.1172288 L41.6974557,52.5601793 L41.6986596,47.5952434 L41.6986596,46.9408566 L41.702151,32.8936034 L41.702151,32.8865605 L42.6768387,32.8865605 L44.5811877,32.8865605 L47.6415338,32.8865605 L61.9689977,32.8865605 L61.9689977,32.8936034 L61.9689977,98.5125634 L34.8854769,98.5125634 L41.6885467,89.1172288 Z M59.5245734,93.1936771 L47.2213683,93.1936771 L47.0875534,52.5601793 L47.0304277,35.1669517 L44.3216242,35.1669517 L43.9811577,35.1669517 L43.9801945,38.1701721 L43.9768838,52.5601793 L43.967734,89.8558292 L39.3503075,96.2323527 L59.5160858,96.2323527 L59.5245734,93.1936771 Z" id="path36" fill="#FFFFFF"></path>
                        <path d="M78.8984179,160.477347 C78.8984179,160.477347 75.573813,158.055677 77.8696745,154.384947 C79.7905172,151.313766 84.3605697,152.990214 84.3605697,152.990214 L83.0170032,154.832803 C82.7039859,154.690741 82.357259,154.604661 81.985852,154.604661 C80.6741891,154.604661 79.6111342,155.591268 79.6111342,156.806618 C79.6111342,157.451313 79.9151222,158.027385 80.3918716,158.429492 L78.8984179,160.477347" id="path38" fill="#FFFFFF"></path>
                        <path d="M118.996536,154.604661 C118.626333,154.604661 118.279606,154.690741 117.965385,154.832803 L116.62242,152.990214 C116.62242,152.990214 121.191871,151.313766 123.113315,154.384947 C125.409177,158.055677 122.08397,160.477347 122.08397,160.477347 L120.591118,158.429492 C121.067266,158.027385 121.372457,157.451313 121.372457,156.806618 C121.372457,155.591268 120.308801,154.604661 118.996536,154.604661" id="path40" fill="#FFFFFF"></path>
                        <path d="M35.9549126,16.0882464 C36.196598,15.4027987 36.1726402,14.6573962 36.1726402,13.9319786 C36.1726402,13.3072081 36.4146266,12.097938 35.326109,12.097938 C34.7216244,12.097938 34.5280954,12.5818507 34.5280954,13.0050862 L34.5280954,22.1543411 C34.5280954,22.1654171 34.5299615,22.1766736 34.5302023,22.1872681 C34.5398336,22.6022568 34.7370947,23.0612485 35.326109,23.0612485 C36.2692542,23.0612485 36.1726402,22.174326 36.1726402,21.6304585 C36.1726402,21.2725954 36.152896,20.9073885 36.1077493,20.5436263 C36.0736184,20.2732275 36.0270871,20.0028287 35.9549126,19.7359213 L36.8830089,19.7359213 L38.9294196,19.7359213 C38.7600893,20.2195932 38.7119328,20.6828588 38.7119328,21.1867564 C38.7119328,22.3836262 38.6660637,23.3394727 38.1372451,23.9759813 C37.7489833,24.443882 37.0958004,24.7378173 36.0037914,24.8248 C35.7790209,24.8424373 35.5417899,24.8548978 35.2779525,24.8548978 C34.1949126,24.8548978 33.2900518,24.6108647 32.6935131,24.1005863 C32.223927,23.6996834 31.9403453,23.1389009 31.9403453,22.375861 C31.9403453,20.2195932 31.8921888,18.0833705 31.8921888,15.9271629 C31.8921888,14.8384646 31.8921888,13.7305038 31.9403453,12.6218206 C32.0372603,10.9293 33.4640774,10.3045295 35.3503678,10.3045295 C37.7687876,10.3045295 38.7600893,11.2713917 38.7600893,13.2465911 C38.7600893,14.1937092 38.59106,15.1812788 38.9294196,16.0882464 L35.9549126,16.0882464" id="path42" fill="#FFFFFF"></path>
                        <path d="M49.376673,12.8839726 C49.376673,14.4358762 49.8118874,16.5514518 48.6752132,17.8412035 C49.6668159,18.7888031 49.4006308,20.0785548 49.4006308,21.2471928 C49.4006308,23.2689234 48.9691485,24.1099768 47.6415338,24.4450859 C47.0962817,24.5826329 46.3990959,24.6362673 45.5180124,24.6491491 C45.357892,24.6514968 45.1960862,24.6531822 45.0235053,24.6531822 C44.2294647,24.6531822 43.4520982,24.6413839 42.6768387,24.6366886 C42.5082307,24.6355449 42.3387198,24.6331973 42.169871,24.6331973 C42.5084715,23.9677345 42.5811276,23.6656127 42.5811276,22.9401951 L42.5811276,22.2084569 L42.5811276,20.9692696 L42.5811276,13.7998492 L42.5811276,12.1985249 C42.5811276,11.513619 42.4842728,11.1510005 42.169871,10.5259892 L45.6282908,10.5259892 C45.590187,10.5930471 45.5629183,10.6600449 45.5307137,10.7270426 C45.0675083,11.6906543 45.1446189,12.6740102 45.1446189,13.7105188 C45.1446189,14.8384646 45.1688175,15.9671328 45.1688175,17.0958009 C45.3863044,17.0958009 45.6040922,17.0958009 45.821579,17.075816 C46.6196527,17.0353645 46.7889228,16.854296 46.8134225,16.2092998 C46.8613382,15.5438973 46.8373803,14.8991418 46.8373803,14.2541456 C46.8373803,13.0050862 46.8134225,11.7752894 46.8134225,10.5259892 C47.0934525,10.5259892 47.3674029,10.5208124 47.6415338,10.5161171 C47.911752,10.5106995 48.1814284,10.5060043 48.4577264,10.5060043 C48.6994721,10.5060043 49.5944006,10.4855377 49.7634299,10.6066514 C49.3524141,11.5336039 49.376673,11.896403 49.376673,12.8839726 Z M46.8134225,19.5748979 C46.8134225,18.9498867 46.3054917,18.8087881 45.6522487,18.828773 L45.1688175,18.8494803 L45.1688175,21.1789912 L45.1688175,22.8997436 L45.6282908,22.8997436 C45.6583886,22.8997436 45.6872825,22.8978775 45.716959,22.897396 C46.3080801,22.8856578 46.8134225,22.7492545 46.8134225,22.1543411 L46.8134225,19.5748979 Z" id="path44" fill="#FFFFFF"></path>
                        <path d="M56.1477187,24.6331973 L52.6895397,24.6331973 C53.0281401,23.9677345 53.1005555,23.6656127 53.1005555,22.9401951 L53.1005555,12.1985249 C53.1005555,11.513619 53.0038813,11.1510005 52.6895397,10.5259892 L56.1477187,10.5259892 C55.7851002,11.1909704 55.6882454,11.4731675 55.6882454,12.1985249 L55.6882454,22.9401951 C55.6882454,23.6456277 55.7851002,23.9884418 56.1477187,24.6331973" id="path46" fill="#FFFFFF"></path>
                        <path d="M71.1410065,24.5120837 L67.0061684,24.5120837 L65.1437155,16.4310605 L63.2090278,24.6331973 L59.2188398,24.6331973 C59.5574402,23.9677345 59.6299157,23.6656127 59.6299157,22.9401951 L59.6299157,12.1985249 C59.6299157,11.513619 59.5330008,11.1510005 59.2188398,10.5259892 L62.4108337,10.5259892 C61.7336328,11.8157409 61.9027825,13.3676445 61.9027825,14.7580433 C61.9027825,16.5514518 61.951541,18.3455827 61.951541,20.139232 L64.1522934,10.5259892 L66.1351375,10.5259892 L68.3599682,20.2596233 L68.3599682,12.1985249 C68.3599682,11.513619 68.2395769,11.1510005 67.9006755,10.5259892 L71.1169282,10.5259892 C70.7545505,11.1909704 70.6817138,11.493634 70.6817138,12.1985249 L70.6817138,22.7791115 C70.6817138,23.5652063 70.802707,23.806651 71.1410065,24.5120837" id="path48" fill="#FFFFFF"></path>
                        <path d="M77.9364917,20.4213689 L80.7656865,20.4213689 C80.0403291,22.2754547 81.4910439,24.8548978 77.8154984,24.8548978 C76.098117,24.8548978 74.5023307,24.1088331 74.5023307,22.5369445 L74.5023307,21.0861093 C74.5023307,20.8039122 74.4782525,20.5217753 74.5023307,20.2195932 C74.6714805,17.8818957 78.0328047,16.5721591 78.1543999,14.8384646 C78.1778761,14.5769748 78.1778761,14.3348078 78.1778761,14.0730772 C78.1778761,13.6093902 78.3957843,12.077953 77.6222704,12.077953 C76.9450696,12.077953 77.0419845,12.9039575 77.0419845,13.2872231 C77.0419845,13.8309101 77.0895391,14.3952442 77.2592908,14.9196084 L74.4535723,14.9196084 C74.6233239,14.4758461 74.6714805,14.0126407 74.6714805,13.548713 C74.6714805,11.6546573 74.8653104,10.3045295 77.670427,10.3045295 C78.0574849,10.3045295 78.4198626,10.3444994 78.7828423,10.4455678 C81.1286661,11.1302932 80.71753,12.5211735 80.71753,14.2141757 C80.71753,14.5969598 80.7416082,14.9595783 80.71753,15.3423623 C80.620615,17.5996986 77.1623758,18.8694653 77.0654608,20.5417602 C77.0419845,20.7635209 77.0419845,20.9849807 77.0419845,21.2072229 C77.0419845,21.6504434 76.8234744,23.0408422 77.573512,23.0408422 C78.2266346,23.0408422 78.1778761,22.3354095 78.1778761,21.9526255 C78.1778761,21.4489084 78.1297196,20.9250258 77.9364917,20.4213689" id="path50" fill="#FFFFFF"></path>
                        <path d="M87.7062431,24.8548978 C85.7715554,24.8548978 84.3689971,24.1088331 84.3689971,22.375861 C84.3689971,20.2195932 84.3208406,18.0833705 84.3208406,15.9271629 C84.3208406,14.8384646 84.2967624,13.7305038 84.3689971,12.6218206 C84.4899904,10.8888485 85.9166269,10.3045295 87.8272363,10.3045295 C89.8100805,10.3045295 91.140404,11.0498718 91.140404,12.8033104 C91.140404,14.9395933 91.1891625,17.0958009 91.1891625,19.2320236 C91.1891625,20.3402252 91.2126388,21.4489084 91.140404,22.5369445 C91.0194108,24.2699166 89.6168525,24.8548978 87.7062431,24.8548978 Z M88.576672,13.0050862 C88.576672,12.5211735 88.4075222,12.097938 87.7543996,12.097938 C87.1741137,12.097938 86.9808857,12.5011886 86.9568075,12.9244241 C86.8598925,13.9519635 86.8839707,15.0002103 86.8839707,16.02781 C86.8839707,18.0833705 86.9321272,20.1185247 86.9321272,22.1543411 C86.9321272,22.5775766 87.1500354,23.0612485 87.7543996,23.0612485 C88.3593657,23.0612485 88.5285155,22.6779829 88.576672,22.2347624 C88.6495087,21.2072229 88.6495087,20.139232 88.6495087,19.11091 C88.6495087,17.075816 88.576672,15.0401802 88.576672,13.0050862 Z" id="path52" fill="#FFFFFF"></path>
                        <path d="M103.135588,24.6331973 L99.9187334,24.6331973 C100.595934,23.4241078 100.426785,21.9932575 100.426785,20.6828588 C100.426785,19.0505338 100.378628,17.4386151 100.378628,15.8060493 L97.4759946,24.6331973 L94.5258065,24.6331973 C94.8647079,23.9677345 94.9369427,23.6656127 94.9369427,22.9401951 L94.9369427,12.1985249 C94.9369427,11.513619 94.8400277,11.1510005 94.5258065,10.5259892 L97.717981,10.5259892 C97.0654603,11.7752894 97.2105318,13.1861547 97.2105318,14.5162976 C97.2105318,16.1688484 97.2586883,17.8012336 97.2586883,19.4337994 L100.32987,10.5060043 L103.135588,10.5259892 C102.772608,11.1909704 102.699772,11.493634 102.699772,12.1985249 L102.699772,22.9401951 C102.699772,23.6251612 102.796687,24.0084268 103.135588,24.6331973" id="path54" fill="#FFFFFF"></path>
                        <path d="M118.22543,24.6331973 L114.791269,24.6331973 C115.322796,23.6456277 115.251163,22.758645 115.251163,21.6904133 C115.251163,20.743536 115.226483,19.7963577 115.226483,18.8494803 L113.581938,18.8494803 L113.581938,22.9401951 C113.581938,23.6456277 113.678853,23.9884418 114.041833,24.6331973 L110.583594,24.6331973 C110.921893,23.9677345 110.994128,23.6656127 110.994128,22.9401951 L110.994128,12.1985249 C110.994128,11.513619 110.897815,11.1510005 110.583594,10.5259892 L114.041833,10.5259892 C113.460945,11.5535889 113.55786,12.6018357 113.55786,13.7105188 C113.55786,14.8384646 113.581938,15.9671328 113.581938,17.0958009 L115.226483,17.0958009 L115.226483,12.1985249 C115.226483,11.513619 115.129568,11.1510005 114.791269,10.5259892 L118.22543,10.5259892 C117.886528,11.1709854 117.789613,11.493634 117.789613,12.1985249 L117.789613,22.9401951 C117.789613,23.6251612 117.910607,24.0084268 118.22543,24.6331973" id="path56" fill="#FFFFFF"></path>
                        <path d="M126.931524,23.6456277 C126.906844,23.7462146 126.906844,23.826636 126.906844,23.9277646 C126.906844,24.1695103 127.003759,24.39097 127.075994,24.6331973 L122.529418,24.6331973 C122.602254,24.3510001 122.674489,24.0888482 122.674489,23.806651 C122.674489,23.6456277 122.651013,23.4640777 122.626333,23.2830092 L121.296611,11.916388 C121.223774,11.292099 121.199696,11.0903233 120.837318,10.5259892 L123.835663,10.5259892 C123.690591,10.8688635 123.593676,11.1709854 123.593676,11.5336039 C123.593676,12.1985249 123.738748,12.8432803 123.811585,13.5087431 L126.230245,13.5087431 C126.350636,12.8639876 126.519786,12.1985249 126.519786,11.5535889 C126.519786,11.1909704 126.350636,10.8488786 126.205565,10.5259892 L129.300824,10.5259892 C128.914368,11.1510005 128.89029,11.4531826 128.769297,12.1385701 L126.931524,23.6456277 Z M124.005415,15.2824074 L124.827687,22.2547474 L125.9395,15.2824074 L124.005415,15.2824074 Z" id="path58" fill="#FFFFFF"></path>
                        <path d="M143.157859,24.1295404 C143.157859,23.9072981 143.133781,23.6855976 143.085625,23.4640777 C142.480659,20.5624675 141.707145,17.7001049 141.464556,14.7580433 C141.271328,18.0633856 140.787355,21.3482613 140.400899,24.6331973 L136.869824,24.6331973 C136.483368,21.3482613 135.92716,18.0633856 135.806167,14.7580433 C135.564782,17.7001049 134.765986,20.5624675 134.1857,23.4640777 C134.137544,23.6456277 134.112863,23.826636 134.112863,24.0084268 C134.112863,24.2099618 134.16102,24.4316623 134.1857,24.6331973 L131.404662,24.6331973 C131.62257,24.1894953 131.815798,23.7462146 131.912713,23.2830092 L134.330772,11.5942209 C134.355452,11.4531826 134.37953,11.312084 134.37953,11.1709854 C134.37953,10.9492849 134.355452,10.7477499 134.306693,10.5259892 L137.740854,10.5259892 C137.643939,10.8488786 137.571705,11.1909704 137.595181,11.513619 L137.619861,11.8357258 L138.635361,19.8163426 L139.651464,11.8357258 C139.675542,11.6746423 139.675542,11.513619 139.675542,11.3525355 C139.675542,11.0703383 139.626784,10.7882014 139.530471,10.5259892 L142.964631,10.5259892 C142.891795,10.8888485 142.867115,11.2314218 142.939951,11.5942209 L145.358612,23.2830092 C145.454925,23.7462146 145.624075,24.1894953 145.866663,24.6331973 L143.085625,24.6331973 C143.109703,24.4516472 143.157859,24.2905637 143.157859,24.1295404" id="path60" fill="#FFFFFF"></path>
                        <path d="M155.636414,13.2512864 L153.62889,18.1233404 L154.983292,21.4724449 L155.854323,23.6251612 C155.947024,23.8442733 156.055978,24.0542959 156.174563,24.2616698 C156.241381,24.3792319 156.307596,24.4963124 156.38585,24.6127308 L156.179379,24.6127308 L153.892547,24.6127308 L153.411584,24.6127308 C153.411584,24.1894953 153.387506,23.8873132 153.218356,23.4840626 L151.500974,19.2520085 L151.500974,22.9401951 C151.500974,23.6456277 151.597287,23.9884418 151.960267,24.6331973 L151.214443,24.6331973 L148.50263,24.6331973 C148.840327,23.9677345 148.913164,23.6656127 148.913164,22.9401951 L148.913164,12.682257 C148.913164,11.7957559 148.865008,11.3525355 148.50263,10.5259892 L151.014594,10.5259892 L151.839876,10.5259892 C151.404059,11.513619 151.476896,12.5818507 151.476896,13.6293751 C151.476896,14.6773811 151.500974,15.7256279 151.500974,16.7532276 L153.242434,12.5211735 C153.447099,12.0226935 153.609026,11.6765686 153.705339,11.2690441 C153.756505,11.0503534 153.790214,10.8147477 153.798642,10.5259892 L156.942058,10.5259892 C156.627837,11.0298869 156.337092,11.5535889 156.119785,12.077953 L155.636414,13.2512864" id="path62" fill="#FFFFFF"></path>
                        <path d="M165.544014,23.4222417 C165.356204,24.1758308 164.852366,24.7366736 163.434157,24.8342507 C163.290891,24.8436412 163.150635,24.8548978 162.987505,24.8548978 C161.6319,24.8548978 160.355752,24.3881409 159.876595,23.4186902 C159.748378,23.1607519 159.674338,22.8680205 159.674338,22.5369445 L159.674338,21.0861093 C159.674338,20.8039122 159.650259,20.5217753 159.674338,20.2195932 C159.726708,19.4965834 160.084872,18.8729566 160.557408,18.3032652 C161.613239,17.031813 163.242735,16.0359966 163.326407,14.8384646 C163.350485,14.5769748 163.350485,14.3348078 163.350485,14.0730772 C163.350485,13.6093902 163.567791,12.077953 162.794277,12.077953 C162.117076,12.077953 162.213991,12.9039575 162.213991,13.2872231 C162.213991,13.8309101 162.262148,14.3952442 162.431298,14.9196084 L159.626181,14.9196084 C159.795933,14.4758461 159.844089,14.0126407 159.844089,13.548713 C159.844089,11.6546573 160.037317,10.3045295 162.842434,10.3045295 C163.22889,10.3045295 163.592471,10.3444994 163.955451,10.4455678 C166.300673,11.1302932 165.889537,12.5211735 165.889537,14.2141757 C165.889537,14.5969598 165.914217,14.9595783 165.889537,15.3423623 C165.801049,17.4103833 162.898416,18.6500522 162.336189,20.1297813 C162.285022,20.2649807 162.246497,20.401384 162.23807,20.5417602 C162.213991,20.7635209 162.213991,20.9849807 162.213991,21.2072229 C162.213991,21.6504434 161.996083,23.0408422 162.746121,23.0408422 C163.398642,23.0408422 163.350485,22.3354095 163.350485,21.9526255 C163.350485,21.6739799 163.332426,21.3889536 163.286076,21.104469 C163.249356,20.8751838 163.19518,20.6463802 163.108499,20.4213689 L165.937693,20.4213689 C165.562675,21.380767 165.766136,22.5321891 165.544014,23.4222417" id="path64" fill="#FFFFFF"></path>
                        <path d="M193.927459,52.5601793 L186.476444,52.5601793 C185.247851,54.5111198 183.27223,57.9001942 180.840929,62.2188096 L180.834909,91.5948811 L163.826031,103.476295 L158.923698,103.476295 C152.459891,116.405716 147.37035,127.605113 146.980282,131.2626 L155.240929,127.04108 C151.952442,140.850561 147.939199,148.942058 145.323096,153.140102 L151.160267,151.770049 C147.906091,162.711207 137.140102,179.210831 134.842435,182.662448 L134.824376,182.694954 L134.493902,183.297512 L133.876295,183.655074 C127.700223,187.231899 123.639425,188.84755 116.527913,190.558912 C110.780434,191.942809 107.240328,192.377422 101.286378,192.441229 C95.332428,192.377422 91.7923228,191.942809 86.0442416,190.558912 C78.9333314,188.84755 74.8719319,187.231899 68.6964618,183.655074 L68.0782526,183.297512 L67.7477786,182.694954 L67.2764468,181.829341 C64.1619247,177.088935 54.5530159,161.999695 51.5098256,151.770049 L57.3469361,153.140102 C54.7305329,148.942058 50.7174103,140.850561 47.428983,127.04108 L54.116116,130.384346 C53.7615035,129.49646 47.8790658,117.88713 40.4999237,103.476295 L25.1610528,103.476295 L34.1372452,91.0808104 C26.6673883,76.5610214 18.8532125,61.4898404 14.1003458,52.5601793 L5.3755183,52.5601793 L21.3372455,35.9316169 L15.7188258,32.8936034 L25.0844238,2.29096157 L172.925203,2.29096157 L183.695405,32.8936034 L177.849807,36.0545965 L193.927459,52.5601793 Z M69.9088019,42.3927755 L69.8973647,88.5399526 L64.5766726,98.5125634 L90.0978157,98.5125634 L90.1104567,45.1267408 L98.8418335,45.1267408 L98.8309983,89.0407803 L92.0264838,98.5125634 L119.033255,98.5125634 L119.046498,42.3927755 L105.961773,32.8936034 L105.952142,32.8865605 L83.3113598,32.8865605 L83.3011266,32.8936034 L69.9088019,42.3927755 Z M166.217603,32.8465906 L164.963126,32.8465906 L164.957106,32.8936034 L164.611584,35.6254619 L164.598341,35.6254619 L163.458235,32.8936034 L163.438973,32.8465906 L162.939951,32.8465906 L162.92129,32.8936034 L161.832953,35.6254619 L161.820312,35.6254619 L161.424225,32.8936034 L161.417001,32.8465906 L161.263502,32.8465906 L160.168544,32.8465906 L160.176369,32.8936034 L160.391268,34.1586748 L160.987806,37.6735581 L162.223623,37.6735581 L163.203006,35.0940548 L164.239575,37.6735581 L165.488634,37.6735581 L166.210982,32.8936034 L166.217603,32.8465906 Z M159.431749,36.6111654 L158.394578,36.6111654 L158.394578,32.8465906 L157.139499,32.8465906 L157.139499,32.8936034 L157.139499,36.6111654 L156.349733,36.6111654 L156.102931,36.6111654 L156.102931,37.6735581 L156.364782,37.6735581 L158.053871,37.6735581 L159.431749,37.6735581 L159.431749,36.6111654 Z M156.506241,47.5952434 L182.160417,47.5952434 L173.309853,38.5094347 L156.506241,47.5952434 Z M162.263352,98.5125634 L175.869973,89.0070708 L175.876595,61.785401 L162.274187,52.5837158 L149.075692,52.5837158 L149.078702,42.2051457 L151.414895,38.6921285 L154.897814,33.4532422 L155.269823,32.8936034 L155.274639,32.8865605 L154.833405,32.8865605 L151.331825,32.8865605 L128.97938,32.8865605 L128.97938,32.8936034 L128.965535,89.1924733 L121.654173,98.5125634 L162.263352,98.5125634 Z M114.880358,177.800447 C112.189613,180.281711 107.122345,183.085022 107.122345,183.085022 C108.349734,182.864104 111.473887,182.58299 112.980584,182.204962 C117.9395,180.955902 121.673436,179.688182 125.532578,177.480808 C125.532578,177.480808 133.482615,165.686678 135.696611,158.175466 L132.155301,159.01339 C133.743262,156.444842 136.178176,151.490139 138.173661,143.037468 L133.288183,145.502479 C133.724602,142.635963 134.153195,139.977122 134.512562,136.842134 C135.214444,130.730471 137.432653,124.831901 141.953947,117.903985 C143.091644,116.161321 144.813841,114.017755 145.911208,112.620012 C145.911208,112.620012 135.46245,117.168394 130.713014,127.153646 C128.034308,132.784346 127.546122,142.860493 127.546122,142.860493 C127.546122,142.860493 123.817002,143.00737 121.689086,144.181185 C118.759365,145.798642 118.206167,148.586904 118.206167,148.586904 L123.746573,149.613841 C130.23807,158.789462 123.192773,162.45959 126.675693,167.597287 C126.404812,167.506994 120.105339,165.468167 116.939049,161.35801 C112.520689,155.623171 104.114971,156.660944 104.114971,156.660944 C104.114971,156.660944 108.424978,159.838672 110.448154,162.532426 C112.834911,165.70895 111.71467,167.817001 114.723248,171.780884 C115.705038,173.076294 118.047251,174.423472 118.047251,174.423472 C118.047251,174.423472 116.207672,176.575466 114.880358,177.800447 Z M120.591118,158.429492 L122.08397,160.477347 C122.08397,160.477347 125.409177,158.055677 123.113315,154.384947 C121.191871,151.313766 116.62242,152.990214 116.62242,152.990214 L117.965385,154.832803 C118.279606,154.690741 118.626333,154.604661 118.996536,154.604661 C120.308801,154.604661 121.372457,155.591268 121.372457,156.806618 C121.372457,157.451313 121.067266,158.027385 120.591118,158.429492 Z M100.529117,149.907596 C100.529117,149.907596 109.003459,150.493901 111.694203,144.181185 C112.305791,142.748529 114.681713,138.728665 116.919184,137.575918 C119.768846,136.108951 122.143564,136.255226 122.143564,136.255226 C122.143564,136.255226 119.451013,134.562525 116.919184,134.492698 C114.067717,134.415046 111.384798,134.361471 108.211284,131.996987 C104.60376,129.309854 100.491796,121.28096 100.491796,121.28096 C100.491796,121.28096 96.3798321,129.309854 92.7717057,131.996987 C89.5981919,134.361471 86.9152725,134.415046 84.0644072,134.492698 C81.5319769,134.562525 78.8388242,136.255226 78.8388242,136.255226 C78.8388242,136.255226 81.2147459,136.108951 84.0644072,137.575918 C86.300675,138.728665 88.6765967,142.748529 89.2887863,144.181185 C91.9801331,150.493901 100.529117,149.907596 100.529117,149.907596 Z M114.544467,122.9857 C111.020012,121.034158 109.09616,119.796536 105.86245,117.403157 C103.691796,115.795934 102.506544,114.835212 100.488786,113.045595 C98.4704264,114.835212 97.2839705,115.795934 95.1133159,117.403157 C91.8796064,119.796536 89.955152,121.034158 86.4312996,122.9857 L93.7354378,122.9857 L100.488786,117.403157 L107.24093,122.9857 L114.544467,122.9857 Z M81.985852,154.604661 C82.357259,154.604661 82.7039859,154.690741 83.0170032,154.832803 L84.3605697,152.990214 C84.3605697,152.990214 79.7905172,151.313766 77.8696745,154.384947 C75.573813,158.055677 78.8984179,160.477347 78.8984179,160.477347 L80.3918716,158.429492 C79.9151222,158.027385 79.6111342,157.451313 79.6111342,156.806618 C79.6111342,155.591268 80.6741891,154.604661 81.985852,154.604661 Z M59.0293439,117.903985 C63.550939,124.831901 65.7691481,130.730471 66.4704272,136.842134 C66.8297952,139.977122 67.2583881,142.635963 67.6942045,145.502479 L62.8099307,143.037468 C64.805416,151.490139 67.2397274,156.444842 68.8276883,159.01339 L65.2851752,158.175466 C67.5009765,165.686678 75.44981,177.480808 75.44981,177.480808 C79.3089521,179.688182 83.0440912,180.955902 88.0018037,182.204962 C89.5085004,182.58299 92.6326538,182.864104 93.8600428,183.085022 C93.8600428,183.085022 88.7933763,180.281711 86.1026314,177.800447 C84.7753177,176.575466 82.936341,174.423472 82.936341,174.423472 C82.936341,174.423472 85.2773493,173.076294 86.260344,171.780884 C89.2683198,167.817001 88.1480791,165.70895 90.5354379,162.532426 C92.5586132,159.838672 96.8680186,156.660944 96.8680186,156.660944 C96.8680186,156.660944 88.4616983,155.623171 84.0439407,161.35801 C80.8782523,165.468167 74.5781772,167.506994 74.3072969,167.597287 C77.7902163,162.45959 70.7449192,158.789462 77.2364164,149.613841 L82.7774246,148.586904 C82.7774246,148.586904 82.2236247,145.798642 79.2945052,144.181185 C77.1665895,143.00737 73.436266,142.860493 73.436266,142.860493 C73.436266,142.860493 72.9486814,132.784346 70.2699757,127.153646 C65.5205401,117.168394 55.0714809,112.620012 55.0714809,112.620012 C56.1688474,114.017755 57.891526,116.161321 59.0293439,117.903985 Z M91.5304718,111.1392 C78.9875074,118.885776 79.5413073,119.990366 79.5413073,119.990366 L83.41911,128.881863 L85.6048135,119.445595 C85.6048135,119.445595 90.0580865,116.807823 93.0467998,114.951389 C97.869674,111.955452 100.488786,108.96072 100.488786,108.96072 C100.488786,108.96072 103.106694,111.955452 107.929568,114.951389 C110.918282,116.807823 115.370953,119.445595 115.370953,119.445595 L117.551841,128.881863 L121.435061,119.990366 C121.435061,119.990366 121.988861,118.885776 109.445896,111.1392 C106.41324,109.266513 103.314971,105.590366 101.676446,103.476295 C100.931826,102.516777 100.488786,101.879305 100.488786,101.879305 C100.488786,101.879305 100.045144,102.516777 99.3005242,103.476295 C97.6613971,105.590366 94.5631278,109.266513 91.5304718,111.1392 Z M61.9689977,98.5125634 L61.9689977,32.8865605 L41.702151,32.8865605 L41.702151,32.8936034 L41.6986596,46.9408566 L41.6986596,47.5952434 L41.6974557,52.5601793 L41.6885467,89.1172288 L34.8854769,98.5125634 L61.9689977,98.5125634 Z M17.0226632,47.5952434 L36.7343858,47.5952434 L36.7348674,44.2574556 L25.8674486,38.3812782 L17.0226632,47.5952434 Z M176.685624,27.9286675 L169.409176,7.25592156 L28.7565982,7.25592156 L22.4299167,27.9286675 L28.2004508,27.9286675 L29.018991,27.9286675 L35.9003753,27.9286675 L36.7390811,27.9286675 L42.6768387,27.9286675 L45.1451005,27.9286675 L47.6415338,27.9286675 L151.261396,27.9286675 L154.269974,27.9286675 L156.226934,27.9286675 L163.003156,27.9286675 L164.532727,27.9286675 L169.93348,27.9286675 L171.213841,27.9286675 L176.685624,27.9286675 Z" id="path66" fill="#000000"></path>
                        <polyline id="path68" fill="#000000" points="156.581486 86.1929249 149.067265 85.9720069 149.072081 64.9029329 156.586302 64.9029329 156.581486 86.1929249"></polyline>
                        <path d="M108.073436,144.476144 L105.856431,146.824978 C105.856431,146.824978 104.887883,144.529718 104.4316,143.00737 C103.596687,140.225128 103.165084,135.667115 103.165084,135.667115 C103.165084,135.667115 104.335889,138.718431 105.698116,141.098567 C107.060945,143.480508 108.073436,144.476144 108.073436,144.476144" id="path70" fill="#000000"></path>
                        <path d="M97.8179058,135.667115 C97.8179058,135.667115 97.3863031,140.225128 96.5513896,143.00737 C96.0951067,144.529718 95.1265589,146.824978 95.1265589,146.824978 L92.9101557,144.476144 C92.9101557,144.476144 93.9220443,143.480508 95.2848735,141.098567 C96.6477026,138.718431 97.8179058,135.667115 97.8179058,135.667115" id="path72" fill="#000000"></path>
                        <path d="M199.357708,54.8516465 L187.544314,54.8516465 C186.368694,57.1082604 184.862599,60.0028277 183.131974,63.3336327 L183.125353,92.7891625 L164.546572,105.767943 L161.270124,105.767943 C156.314819,115.518432 152.43822,123.318582 151.478702,125.691494 L159.538295,121.572909 L158.07494,127.715873 C155.839274,137.10579 153.260493,143.963879 150.959214,148.824075 L155.385399,147.7857 L153.952743,152.600749 C150.548679,164.042735 139.613541,180.7398 137.378477,184.09691 L136.656731,185.411583 L135.336641,186.17667 C128.911359,189.897362 124.586904,191.615947 117.209929,193.39232 C111.216852,194.83521 107.494354,195.287881 101.286378,195.354096 C95.0784024,195.287881 91.3559044,194.83521 85.3628271,193.39232 C77.9852501,191.615947 73.6613977,189.897362 67.2361157,186.17667 L65.9154235,185.411583 L64.7747162,183.328212 C61.6391256,178.548679 51.8820755,163.240929 48.7171094,152.600749 L47.2843931,147.7857 L51.7103975,148.824075 C49.4095398,143.963879 46.8303374,137.10579 44.5946114,127.715873 L43.1490132,121.643338 L47.8202546,123.978928 C47.0421659,121.764933 43.5745964,114.713616 39.0013534,105.767943 L20.6729867,105.767943 L31.3593371,91.0103815 C24.1398339,77.2105323 16.3617152,62.6720827 12.0353947,54.8516465 L0,54.8516465 L17.6001801,36.5159359 L12.9787205,34.0170947 L23.3893147,0 L174.548077,0 L186.506542,33.9783287 L181.606617,36.6283211 L199.357708,54.8516465 Z M183.695405,32.8936034 L172.925203,2.29096157 L25.0844238,2.29096157 L15.7188258,32.8936034 L21.3372455,35.9316169 L5.3755183,52.5601793 L14.1003458,52.5601793 C18.8532125,61.4898404 26.6673883,76.5610214 34.1372452,91.0808104 L25.1610528,103.476295 L40.4999237,103.476295 C47.8790658,117.88713 53.7615035,129.49646 54.116116,130.384346 L47.428983,127.04108 C50.7174103,140.850561 54.7305329,148.942058 57.3469361,153.140102 L51.5098256,151.770049 C54.5530159,161.999695 64.1619247,177.088935 67.2764468,181.829341 L67.7477786,182.694954 L68.0782526,183.297512 L68.6964618,183.655074 C74.8719319,187.231899 78.9333314,188.84755 86.0442416,190.558912 C91.7923228,191.942809 95.332428,192.377422 101.286378,192.441229 C107.240328,192.377422 110.780434,191.942809 116.527913,190.558912 C123.639425,188.84755 127.700223,187.231899 133.876295,183.655074 L134.493902,183.297512 L134.824376,182.694954 L134.842435,182.662448 C137.140102,179.210831 147.906091,162.711207 151.160267,151.770049 L145.323096,153.140102 C147.939199,148.942058 151.952442,140.850561 155.240929,127.04108 L146.980282,131.2626 C147.37035,127.605113 152.459891,116.405716 158.923698,103.476295 L163.826031,103.476295 L180.834909,91.5948811 L180.840929,62.2188096 C183.27223,57.9001942 185.247851,54.5111198 186.476444,52.5601793 L193.927459,52.5601793 L177.849807,36.0545965 L183.695405,32.8936034 Z" id="path74" fill="#B6B5B5"></path>
                        <polyline id="path76" fill="#B6B5B5" points="131.244541 89.9804342 131.257785 35.1669517 134.292848 35.1669517 134.21038 93.1936771 165.89676 93.1936771 161.546422 96.2323527 126.339199 96.2323527 131.244541 89.9804342"></polyline>
                        <polyline id="path78" fill="#B6B5B5" points="158.861095 85.4121875 158.86591 62.6233242 149.831749 62.6233242 149.832953 59.5842874 161.904586 59.5842874 161.899168 85.5006751 158.861095 85.4121875"></polyline>
                        <polyline id="path80" fill="#B6B5B5" points="104.341909 39.7879298 104.341909 93.1936771 116.75485 93.1936771 116.753646 96.2323527 96.4707275 96.2323527 101.110607 89.7745651 101.121442 42.9465151 90.8707276 42.8541148 90.8707276 39.7879298 104.341909 39.7879298"></polyline>
                        <polyline id="path82" fill="#B6B5B5" points="87.8188089 96.2323527 68.3563565 96.2323527 72.1763714 91.0386734 72.1878086 43.570804 75.2270862 41.415078 75.2144451 93.1936771 87.8194109 93.1936771 87.8188089 96.2323527"></polyline>
                        <polyline id="path84" fill="#B6B5B5" points="43.967734 89.8558292 43.9768838 52.5601793 43.9801945 38.1701721 43.9811577 35.1669517 44.3216242 35.1669517 47.0304277 35.1669517 47.0875534 52.5601793 47.2213683 93.1936771 59.5245734 93.1936771 59.5160858 96.2323527 39.3503075 96.2323527 43.967734 89.8558292"></polyline>
                        <polyline id="path86" fill="#B6B5B5" points="156.364782 37.6735581 156.102931 37.6735581 156.102931 36.6111654 157.139499 36.6111654 157.139499 32.8936034 157.139499 32.8465906 158.394578 32.8465906 158.394578 32.8936034 158.394578 36.6111654 158.760568 36.6111654 159.431749 36.6111654 159.431749 37.6735581 158.053871 37.6735581 156.364782 37.6735581"></polyline>
                        <polyline id="path88" fill="#B6B5B5" points="164.239575 37.6735581 163.203006 35.0940548 162.223623 37.6735581 160.987806 37.6735581 160.391268 34.1586748 160.176369 32.8936034 160.168544 32.8465906 161.263502 32.8465906 161.417001 32.8465906 161.424225 32.8936034 161.820312 35.6254619 161.832953 35.6254619 162.92129 32.8936034 162.939951 32.8465906 163.438973 32.8465906 163.458235 32.8936034 164.598341 35.6254619 164.611584 35.6254619 164.957106 32.8936034 164.963126 32.8465906 166.217603 32.8465906 166.210982 32.8936034 165.488634 37.6735581 164.239575 37.6735581"></polyline>
                        <path d="M89.2887863,144.181185 C88.6765967,142.748529 86.300675,138.728665 84.0644072,137.575918 C81.2147459,136.108951 78.8388242,136.255226 78.8388242,136.255226 C78.8388242,136.255226 81.5319769,134.562525 84.0644072,134.492698 C86.9152725,134.415046 89.5981919,134.361471 92.7717057,131.996987 C96.3798321,129.309854 100.491796,121.28096 100.491796,121.28096 C100.491796,121.28096 104.60376,129.309854 108.211284,131.996987 C111.384798,134.361471 114.067717,134.415046 116.919184,134.492698 C119.451013,134.562525 122.143564,136.255226 122.143564,136.255226 C122.143564,136.255226 119.768846,136.108951 116.919184,137.575918 C114.681713,138.728665 112.305791,142.748529 111.694203,144.181185 C109.003459,150.493901 100.529117,149.907596 100.529117,149.907596 C100.529117,149.907596 91.9801331,150.493901 89.2887863,144.181185 Z M104.4316,143.00737 C104.887883,144.529718 105.856431,146.824978 105.856431,146.824978 L108.073436,144.476144 C108.073436,144.476144 107.060945,143.480508 105.698116,141.098567 C104.335889,138.718431 103.165084,135.667115 103.165084,135.667115 C103.165084,135.667115 103.596687,140.225128 104.4316,143.00737 Z M95.1265589,146.824978 C95.1265589,146.824978 96.0951067,144.529718 96.5513896,143.00737 C97.3863031,140.225128 97.8179058,135.667115 97.8179058,135.667115 C97.8179058,135.667115 96.6477026,138.718431 95.2848735,141.098567 C93.9220443,143.480508 92.9101557,144.476144 92.9101557,144.476144 L95.1265589,146.824978 Z" id="path90" fill="#B6B5B5"></path>
                        <path d="M101.676446,103.476295 C103.314971,105.590366 106.41324,109.266513 109.445896,111.1392 C121.988861,118.885776 121.435061,119.990366 121.435061,119.990366 L117.551841,128.881863 L115.370953,119.445595 C115.370953,119.445595 110.918282,116.807823 107.929568,114.951389 C103.106694,111.955452 100.488786,108.96072 100.488786,108.96072 C100.488786,108.96072 97.869674,111.955452 93.0467998,114.951389 C90.0580865,116.807823 85.6048135,119.445595 85.6048135,119.445595 L83.41911,128.881863 L79.5413073,119.990366 C79.5413073,119.990366 78.9875074,118.885776 91.5304718,111.1392 C94.5631278,109.266513 97.6613971,105.590366 99.3005242,103.476295 C100.045144,102.516777 100.488786,101.879305 100.488786,101.879305 C100.488786,101.879305 100.931826,102.516777 101.676446,103.476295" id="path92" fill="#B6B5B5"></path>
                    </g>
                </g>
            </g>
        </g>
    </g>
</svg>