<?xml version="1.0" encoding="UTF-8"?>
<svg width="200px" height="200px" viewBox="0 0 200 200" version="1.1" xmlns="http://www.w3.org/2000/svg" xmlns:xlink="http://www.w3.org/1999/xlink">
    <!-- Generator: Sketch 51.3 (57544) - http://www.bohemiancoding.com/sketch -->
    <title>john-carroll</title>
    <desc>Created with Sketch.</desc>
    <defs></defs>
    <g id="john-carroll" stroke="none" stroke-width="1" fill="none" fill-rule="evenodd">
        <g id="john-carroll_BGL">
            <g id="john-carroll" transform="translate(0.000000, 47.000000)">
                <g id="g10" transform="translate(99.999998, 53.068967) scale(-1, 1) rotate(-180.000000) translate(-99.999998, -53.068967) translate(0.000000, 0.195405)" fill-rule="nonzero">
                    <g id="g12" transform="translate(0.000000, 1.034483)">
                        <path d="M160.139076,103.196894 L158.158617,98.9247102 L156.062065,99.1760895 L157.965513,103.256089 L129.229882,104.043216 L128.109192,101.611837 C124.565514,103.029308 120.786204,103.785055 116.588503,103.900457 C104.191836,104.240802 92.4865494,99.2726412 82.7760899,90.207469 L88.4904576,102.546664 L60.0367801,103.324825 L36.8431025,53.2350561 C34.1028727,47.3845965 32.9314934,46.7748264 31.0708038,46.8188494 C29.9698843,46.8489643 28.5201142,47.5381597 26.6383901,48.925516 L23.2358615,51.435401 L11.9858618,27.0999993 L14.7580456,25.5374706 C19.3808041,22.9324132 24.09885,21.6491949 29.6062062,21.4978156 C30.0673556,21.4843673 30.5293096,21.4775857 30.9922981,21.4775857 C37.0487347,21.4775857 43.2871254,22.6787351 49.4432172,27.8991947 L49.4432172,24.6170109 L67.9234466,24.6170109 C71.628504,22.2454017 76.4587337,20.9419535 82.4168945,20.7794248 C82.9162048,20.7659765 83.4070094,20.7579305 83.8851703,20.7579305 C87.9193081,20.7579305 91.2441356,21.2518385 94.5060896,22.3195397 L95.9070091,22.7774707 L96.789193,24.6170109 L109.181492,24.6170109 C112.741951,22.6158615 117.562066,21.5436776 123.751721,21.372988 C124.283905,21.3586202 124.809192,21.3519535 125.332181,21.3519535 C135.662066,21.3519535 144.051721,24.210689 150.943674,30.074482 C157.568962,35.7444819 160.613789,42.245861 164.137927,49.7732171 L188.563214,102.417814 L160.139076,103.196894" id="path14" fill="#FFFFFF"></path>
                        <path d="M83.1308025,98.9772389 L59.6897686,48.3611482 C52.1956309,32.1973555 44.1989644,24.2802293 29.6721832,24.6789649 C24.6193097,24.816781 20.5082753,25.9720683 16.4219536,28.2740223 L24.5631028,45.8849414 C26.9090798,44.1541368 28.9471257,43.1604587 30.9468958,43.105746 C35.2635623,42.9866656 37.2871255,45.8490793 39.9366657,51.5050562 L62.182987,99.551032 L83.1308025,98.9772389" id="path16" fill="#131D2E"></path>
                        <path d="M112.61402,81.6563198 C103.135745,81.9167796 93.4308023,72.558389 88.7073541,56.7896538 C85.8166645,47.1431023 87.8632162,42.2750564 95.3398827,42.0708035 C97.2368941,42.0190794 99.4660895,42.3760909 101.896549,43.0414932 L93.4047103,25.3299994 C89.8733311,24.174712 86.3793082,23.852873 82.4842508,23.9614937 C65.5558604,24.4239074 59.388964,34.606206 64.9151708,53.0495389 C73.4918372,81.681952 93.7347103,100.810457 116.466664,100.187239 C120.678158,100.071837 124.358618,99.2411469 127.641376,97.7986182 L118.931032,79.7055152 C116.955169,80.9096531 115.035629,81.589883 112.61402,81.6563198" id="path18" fill="#131D2E"></path>
                        <path d="M131.379307,100.268043 L152.589651,99.6865492 L129.667813,50.5770102 C129.11379,49.445516 128.896549,48.7226425 128.77356,48.3081597 C128.028732,45.8265506 129.171261,44.2313782 131.743675,44.1595391 C135.171261,44.0665506 137.644824,46.1889644 139.526433,50.3075849 L162.283904,99.4208021 L183.199995,98.8482734 L161.322984,51.691378 C157.802295,44.1765506 154.934479,37.7859761 148.67241,32.4286199 C142.139077,26.868735 133.95287,24.2757465 123.817238,24.5541373 C108.084595,24.9851718 102.391377,31.5045969 106.421032,44.9587345 C107.19563,47.5440218 108.317124,50.2244815 109.605744,53.1079297 L131.379307,100.268043" id="path20" fill="#131D2E"></path>
                        <path d="M199.391949,26.3199993 C199.732179,26.784712 199.652869,27.260689 199.583903,27.6804591 C199.568961,27.7711487 199.554018,27.8610338 199.542524,27.9521832 C199.518386,28.1460913 199.48965,28.3877004 191.71034,28.9556315 C189.034478,29.1518384 186.343674,29.3270108 184.978156,29.4090797 L117.679307,33.4936773 L121.068962,30.1755165 L26.6068959,34.1581601 L32.0555164,27.6521832 L0,28.6377004 L19.9425282,0.114493532 L60.2164353,3.24936773 L56.2033319,8.07831014 L143.699996,13.54931 L137.371261,18.3705743 L184.734478,24.2120684 C188.604593,24.6349419 199.026432,25.8180453 199.391949,26.3199993" id="path22" fill="#FFFFFF"></path>
                        <polyline id="path24" fill="#131D2E" points="194.909191 26.9001143 194.901145 27.1874706 126.687353 30.6439073 126.308043 30.6627579 129.566663 27.4739074 32.3913785 31.4933325 37.7855163 25.0503442 5.4373217 26.0462062 5.15445964 26.0537925 21.096896 2.72629878 21.1431029 2.65804591 55.6816078 5.32596538 51.6105734 10.2235974 136.981606 15.5608042 137.365514 15.5855169 131.489652 20.0633328 194.909191 26.9001143"></polyline>
                    </g>
                </g>
            </g>
        </g>
    </g>
</svg>