<?xml version="1.0" encoding="UTF-8"?>
<svg width="200px" height="200px" viewBox="0 0 200 200" version="1.1" xmlns="http://www.w3.org/2000/svg" xmlns:xlink="http://www.w3.org/1999/xlink">
    <!-- Generator: Sketch 51.3 (57544) - http://www.bohemiancoding.com/sketch -->
    <title>kenyon</title>
    <desc>Created with Sketch.</desc>
    <defs></defs>
    <g id="kenyon" stroke="none" stroke-width="1" fill="none" fill-rule="evenodd">
        <g id="kenyon_BGL" transform="translate(10.714286, 0.888889)">
            <g id="kenyon">
                <g id="g10" transform="translate(89.319190, 99.735132) scale(-1, 1) rotate(-180.000000) translate(-89.319190, -99.735132) translate(0.000000, 0.251408)">
                    <g id="g12">
                        <path d="M176.423842,197.82536 L1.99962161,197.82536 C1.17920858,187.598289 0.728880749,177.422218 0.730298285,167.363946 C0.755155779,98.7000649 21.6545877,35.8911416 89.1622483,1.41302084 C156.698404,35.9040709 177.663462,98.7525003 177.688052,167.458043 C177.688052,177.4804 177.239648,187.633486 176.423842,197.82536" id="path14" fill="#FFFFFF" fill-rule="nonzero"></path>
                        <path d="M153.312954,71.8077827 C162.93339,91.2578204 168.359079,112.856922 170.68644,135.525563 L89.1571856,135.525563 L153.312954,71.8077827" id="path16" fill="#432C91"></path>
                        <path d="M7.6309687,135.525563 C9.95543733,112.856922 15.3817047,91.2578204 25.0023578,71.8077827 L89.1571856,135.525563 L7.6309687,135.525563" id="path18" fill="#432C91"></path>
                        <path d="M89.1571856,7.01402631 C107.944591,16.5889289 122.87066,28.6857187 134.60872,42.5308362 L89.1571856,87.67066 L43.7058684,42.5308362 C55.44646,28.6857187 70.3736132,16.5889289 89.1571856,7.01402631" id="path20" fill="#432C91"></path>
                        <path d="M51.626347,113.452388 C51.3743729,114.960087 50.7042258,116.418942 49.5987652,117.624958 C49.4170893,116.333465 48.9017863,115.217954 48.2019867,114.330861 L37.8821126,114.330861 L37.8821126,124.580917 C38.7757384,125.276226 39.8987012,125.78406 41.2016765,125.962915 C40.0173836,127.033891 38.6016564,127.701905 37.1235865,127.966955 C37.0837364,128.719009 36.4723882,129.317348 35.705328,129.317348 C34.9439813,129.317348 34.3354537,128.724037 34.2890945,127.982039 C32.7671968,127.728482 31.3035192,127.062623 30.0853067,125.962915 C31.3888606,125.78406 32.512402,125.276226 33.4054493,124.580917 L33.4054493,114.330861 L23.082393,114.330861 C22.3859926,115.217954 21.8735102,116.333465 21.6885073,117.624958 C20.6137841,116.451265 19.9405995,115.041972 19.672208,113.577371 C18.9184553,113.53571 18.3121696,112.930906 18.3121696,112.166641 C18.3121696,111.407405 18.9108613,110.807629 19.6614318,110.760222 C19.9137676,109.248213 20.5838423,107.796541 21.6885073,106.586215 C21.8735102,107.882736 22.3859926,108.993937 23.082393,109.878875 L33.4054493,109.878875 L33.4054493,99.6324105 C32.512402,98.9371019 31.3888606,98.4285497 30.0853067,98.2439482 C31.2704675,97.180873 32.6858331,96.5092681 34.161444,96.2449359 C34.2035361,95.4950369 34.815463,94.8945431 35.5821615,94.8945431 C36.3438698,94.8945431 36.9521082,95.4885722 36.9975995,96.2327249 C38.5205821,96.4848461 39.9842596,97.1463949 41.2016765,98.2439482 C39.8987012,98.4285497 38.7757384,98.9371019 37.8821126,99.6324105 L37.8821126,109.878875 L48.2019867,109.878875 C48.9017863,108.993937 49.4170893,107.882736 49.5987652,106.586215 C50.6745733,107.758471 51.3480472,109.167764 51.6153539,110.635239 C52.3719272,110.674745 52.9753199,111.285295 52.9753199,112.044531 C52.9753199,112.800177 52.3764112,113.407854 51.626347,113.452388" id="path22" fill="#FFFFFF"></path>
                        <path d="M158.264925,113.452388 C158.011071,114.960087 157.339911,116.418942 156.234812,117.624958 C156.052558,116.333465 155.544125,115.217954 154.843313,114.330861 L144.520619,114.330861 L144.520619,124.580917 C145.415257,125.276226 146.534821,125.78406 147.839532,125.962915 C146.654154,127.033891 145.237342,127.701905 143.762671,127.966955 C143.722893,128.719009 143.108146,129.317348 142.344413,129.317348 C141.580679,129.317348 140.974611,128.724037 140.923984,127.982039 C139.405197,127.728482 137.939928,127.062623 136.721281,125.962915 C138.025993,125.78406 139.151342,125.276226 140.041641,124.580917 L140.041641,114.330861 L129.718223,114.330861 C129.021027,115.217954 128.508979,116.333465 128.326001,117.624958 C127.252001,116.451265 126.578672,115.041972 126.313969,113.577371 C125.554575,113.53571 124.951399,112.930906 124.951399,112.166641 C124.951399,111.407405 125.550235,110.807629 126.297334,110.760222 C126.549019,109.248213 127.218009,107.796541 128.326001,106.586215 C128.508979,107.882736 129.021027,108.993937 129.718223,109.878875 L140.041641,109.878875 L140.041641,99.6324105 C139.151342,98.9371019 138.025993,98.4285497 136.721281,98.2439482 C137.904489,97.180873 139.325641,96.5092681 140.803205,96.2449359 C140.839366,95.4950369 141.451944,94.8945431 142.22291,94.8945431 C142.982303,94.8945431 143.585479,95.4885722 143.637552,96.2327249 C145.15634,96.4848461 146.620162,97.1463949 147.839532,98.2439482 C146.534821,98.4285497 145.415257,98.9371019 144.520619,99.6324105 L144.520619,109.878875 L154.843313,109.878875 C155.544125,108.993937 156.052558,107.882736 156.234812,106.586215 C157.313875,107.758471 157.984311,109.167764 158.251184,110.635239 C159.006238,110.674745 159.613754,111.285295 159.613754,112.044531 C159.613754,112.800177 159.012748,113.407854 158.264925,113.452388" id="path24" fill="#FFFFFF"></path>
                        <path d="M105.137003,45.2713434 C104.885319,46.7831369 104.219222,48.2348809 103.11123,49.4430515 C102.928252,48.1486857 102.418373,47.0353299 101.719731,46.1518283 L91.399929,46.1518283 L91.399929,56.3975743 C92.2895048,57.0937449 93.4097916,57.5984901 94.7159491,57.7830917 C93.5305714,58.8490401 92.1115896,59.519352 90.6369189,59.785049 C90.5956947,60.5364564 89.9823937,61.1346517 89.2186604,61.1346517 C88.4556503,61.1346517 87.8488584,60.5398324 87.8004018,59.7957516 C86.281614,59.5457134 84.8141757,58.8793521 83.5955292,57.7830917 C84.90241,57.5984901 86.026313,57.0937449 86.9158887,56.3975743 L86.9158887,46.1518283 L76.5924708,46.1518283 C75.8996143,47.0353299 75.3861193,48.1486857 75.2016951,49.4430515 C74.1262487,48.2679225 73.4536426,46.8622211 73.1882164,45.3947463 C72.4288224,45.3552402 71.8268762,44.7488563 71.8268762,43.9834422 C71.8268762,43.2289462 72.424483,42.6234243 73.1708588,42.5783154 C73.4261598,41.0675994 74.0944264,39.613916 75.2016951,38.4071102 C75.3861193,39.6994648 75.8996143,40.8128205 76.5924708,41.6969687 L86.9158887,41.6969687 L86.9158887,31.4506479 C86.026313,30.7544773 84.90241,30.2503068 83.5955292,30.062832 C84.7823534,28.9932922 86.1998888,28.3260689 87.6709433,28.0623113 C87.7179534,27.3103293 88.3290847,26.7118467 89.0935412,26.7118467 C89.8572745,26.7118467 90.4655129,27.3075279 90.5110765,28.049382 C92.0305876,28.299923 93.4958562,28.9666435 94.7159491,30.062832 C93.4097916,30.2503068 92.2895048,30.7544773 91.399929,31.4506479 L91.399929,41.6969687 L101.719731,41.6969687 C102.418373,40.8128205 102.928252,39.6994648 103.11123,38.4071102 C104.185953,39.5771393 104.858559,40.9851393 105.126878,42.4534041 C105.882656,42.4929821 106.488001,43.10188 106.488001,43.8611167 C106.488001,44.6175522 105.889165,45.2230741 105.137003,45.2713434" id="path26" fill="#FFFFFF"></path>
                        <path d="M1.59845911,166.802959 C1.62247042,98.5248011 22.3154051,36.0684884 89.1571856,1.7850756 C156.026521,36.0805558 176.783289,98.5772366 176.808602,166.895619 C176.808602,176.861948 176.363091,186.958289 175.555963,197.0927 L2.85479318,197.0927 C2.04228508,186.923093 1.59619539,176.804485 1.59845911,166.802959 Z M88.7933998,0.186026662 C20.9853086,34.7410092 -0.024578616,98.1362041 3.38813179e-21,166.802959 C3.38813179e-21,177.088929 0.466993269,187.499165 1.3196169,197.950343 L1.38148942,198.68013 L177.029911,198.68013 L177.088493,197.950343 C177.935398,187.532925 178.409838,177.154294 178.409838,166.895619 C178.430088,98.1893578 157.356546,34.7581046 89.5209715,0.186026662 L89.1571856,0 L88.7933998,0.186026662 Z" id="path28" fill="#231F20" fill-rule="nonzero"></path>
                        <path d="M153.132869,72.8896054 L90.6991169,134.89131 L169.976226,134.89131 C167.651757,112.849021 162.370715,91.8468215 153.132869,72.8896054 Z M8.21237515,136.159099 C7.30298285,145.201702 6.8828572,154.410232 6.8828572,163.718604 C6.8828572,172.813643 7.2822984,182.002061 8.01999536,191.222083 L170.295895,191.222083 C171.032145,182.002061 171.432816,172.813643 171.432816,163.722914 C171.432816,154.410232 171.009725,145.198111 170.102792,136.159099 L8.21237515,136.159099 Z M25.1846123,72.8896054 C15.9450303,91.8468215 10.66623,112.849021 8.33640949,134.89131 L87.6130847,134.89131 L25.1846123,72.8896054 Z M172.710767,163.722914 C172.710767,173.042061 172.290569,182.46105 171.520327,191.908054 L171.475487,192.489153 L6.83991167,192.489153 L6.79442759,191.908054 C6.02401884,182.46105 5.60222253,173.042061 5.60222253,163.718604 C5.60222253,154.416696 6.02317266,145.206012 6.92946952,136.159099 L6.9257955,136.159099 L6.99614431,135.461635 C9.32571896,112.734094 14.7658,91.0602895 24.4283283,71.5283663 L24.8190184,70.7317783 L89.1608018,134.627696 L153.492315,70.7317783 L153.88937,71.5283663 C163.546691,91.0602895 168.991184,112.734094 171.322885,135.461635 L171.393038,136.159099 L171.387252,136.159099 C172.292016,145.206012 172.710767,154.413823 172.710767,163.722914 Z" id="path30" fill="#231F20" fill-rule="nonzero"></path>
                        <path d="M89.1571856,7.72949027 C107.530902,17.1428054 122.173464,28.9744729 133.740118,42.4949215 L89.1571856,86.774229 L44.5745427,42.4929821 C56.141197,28.9744729 70.7807207,17.1428054 89.1571856,7.72949027 Z M89.1571856,7.01402631 L89.447925,7.58166535 L89.1571856,7.01402631 Z M88.8693392,6.45089816 C70.0060665,16.0603363 55.0099893,28.2146615 43.2184822,42.1265085 L42.8430523,42.5712762 L89.1571856,88.5685275 L135.472259,42.5712762 L135.096178,42.1265085 C123.301706,28.2146615 108.309824,16.0603363 89.447925,6.45089816 L89.155016,6.30162947 L88.8693392,6.45089816 Z" id="path32" fill="#231F20" fill-rule="nonzero"></path>
                        <path d="M34.2360092,96.6572366 L34.5639951,96.5983365 L34.5792553,96.2657664 C34.6114391,95.7342288 35.0431365,95.3161817 35.5821615,95.3161817 C36.1133033,95.3161817 36.5424694,95.7292007 36.5760274,96.2593017 L36.5955546,96.5889987 L36.927229,96.6450256 C38.1021922,96.8425565 39.2396196,97.2914903 40.2425259,98.0133758 C39.2396196,98.277708 38.3595906,98.7287966 37.6250035,99.301277 L37.4591663,99.4312882 L37.4591663,110.298359 L48.4065891,110.298359 L48.5345289,110.137461 C49.1114513,109.408392 49.5668707,108.534947 49.8352622,107.5358 C50.5373038,108.502624 50.9935187,109.585811 51.1972533,110.712096 L51.2565583,111.037483 L51.5885219,111.054004 C52.1309462,111.084891 52.5515781,111.515149 52.5515781,112.044531 C52.5515781,112.573914 52.1309462,113.002017 51.5998044,113.037932 L51.626347,113.452388 L52.041627,113.521344 L51.626347,113.452388 L51.5998044,113.037932 L51.263863,113.055889 L51.2079571,113.385586 C51.0144201,114.549941 50.5590008,115.679099 49.8352622,116.677528 C49.5668707,115.682691 49.1114513,114.803499 48.5345289,114.075149 L48.4065891,113.913533 L37.4591663,113.913533 L37.4591663,124.785631 L37.6250035,124.912769 C38.3569869,125.483813 39.2396196,125.937056 40.2425259,126.198515 C39.2718035,126.89957 38.1776253,127.352814 37.0459114,127.558246 L36.719589,127.613555 L36.7031716,127.94397 C36.6709878,128.481972 36.2418217,128.900738 35.705328,128.900738 C35.1725228,128.900738 34.743429,128.483409 34.7086416,127.956899 L34.686366,127.622174 L34.3563551,127.567584 C33.1853697,127.370771 32.0479422,126.924711 31.0456146,126.198515 C32.0479422,125.938493 32.9279713,125.483813 33.6621967,124.912769 L33.8257919,124.785631 L33.8257919,113.913533 L22.8761994,113.913533 L22.7504293,114.075149 C22.1758213,114.804935 21.7209805,115.682691 21.4517211,116.673936 C20.7465696,115.712859 20.2942601,114.62608 20.0843781,113.503387 L20.0261579,113.178718 L19.6965086,113.162197 C19.1574836,113.130592 18.7336694,112.70177 18.7336694,112.166641 C18.7336694,111.63654 19.1518423,111.21562 19.6883361,111.180424 L20.020806,111.158875 L20.0796048,110.829178 C20.2716953,109.662668 20.7284888,108.536383 21.4517211,107.541546 C21.7209805,108.534947 22.1758213,109.408392 22.7504293,110.137461 L22.8761994,110.298359 L33.8257919,110.298359 L33.8257919,99.4312882 L33.6621967,99.301277 C32.9279713,98.7287966 32.0457002,98.277708 31.0456146,98.0133758 C32.0160477,97.3130391 33.1076222,96.8641053 34.2360092,96.6572366 Z M33.7854355,95.8915352 C32.3459863,96.2032748 30.9653358,96.8863724 29.8022336,97.9365183 L29.1360643,98.5384487 L30.0268696,98.6598404 C31.1747115,98.8236114 32.1719766,99.2538696 32.9816351,99.8399975 L32.9816351,109.460109 L23.2892374,109.460109 C22.6985013,108.659212 22.2676718,107.671557 22.1066079,106.52947 L21.9809102,105.643813 L21.3768665,106.30608 C20.2838456,107.495575 19.5993062,108.914924 19.2993094,110.396047 C18.4978234,110.594296 17.891827,111.300379 17.891827,112.166641 C17.891827,113.04296 18.5031753,113.758381 19.3153652,113.950166 C19.6289587,115.383162 20.3205858,116.754385 21.3768665,117.909402 L21.9809102,118.564486 L22.1066079,117.682421 C22.2676718,116.543925 22.6985013,115.553398 23.2892374,114.755373 L32.9816351,114.755373 L32.9816351,124.376203 C32.1719766,124.962331 31.1747115,125.390435 30.0268696,125.550614 L29.1360643,125.675597 L29.8022336,126.276091 C30.9973027,127.35856 32.4293749,128.040221 33.9170638,128.340468 C34.1156634,129.138493 34.8310125,129.739705 35.705328,129.739705 C36.5825365,129.739705 37.3029482,129.127718 37.4964851,128.321793 C38.9386827,128.010771 40.3227323,127.326237 41.4861238,126.276091 L42.1534503,125.675597 L41.258161,125.550614 C40.1108253,125.390435 39.1155853,124.962331 38.3058544,124.376203 L38.3058544,114.755373 L47.9935511,114.755373 C48.5856614,115.556989 49.0198901,116.543925 49.1812432,117.682421 L49.3049159,118.564486 L49.9078024,117.909402 C51.0019805,116.721344 51.6851458,115.300558 51.9842747,113.823027 C52.7894492,113.623342 53.3957348,112.909357 53.3957348,112.044531 C53.3957348,111.169649 52.7835187,110.457102 51.969593,110.264599 C51.6540468,108.833039 50.9695074,107.457506 49.9078024,106.30608 L49.3049159,105.643095 L49.1812432,106.52947 C49.0198901,107.671557 48.5856614,108.659212 47.9935511,109.460109 L38.3058544,109.460109 L38.3058544,99.8399975 C39.1135602,99.2538696 40.1108253,98.8236114 41.2609816,98.6598404 L42.1511359,98.5384487 L41.4861238,97.9365183 C40.284618,96.8554858 38.8581869,96.1759796 37.3679667,95.8742961 C37.1696564,95.0791446 36.4540181,94.476496 35.5821615,94.4757777 C34.7027111,94.476496 33.9786109,95.0856093 33.7854355,95.8915352 Z" id="path34" fill="#231F20" fill-rule="nonzero"></path>
                        <path d="M140.875528,96.6572366 L141.203875,96.5961816 L141.22051,96.2657664 C141.251609,95.7342288 141.678316,95.3161817 142.22291,95.3161817 C142.751592,95.3161817 143.179023,95.7292007 143.215184,96.2593017 L143.236881,96.5925902 L143.563059,96.6450256 C144.737588,96.8425565 145.874509,97.2914903 146.877633,98.0133758 C145.877402,98.277708 144.995059,98.7287966 144.261701,99.301277 L144.098974,99.4312882 L144.098974,110.298359 L155.051604,110.298359 L155.17383,110.137461 C155.75097,109.408392 156.20516,108.534947 156.472032,107.541546 C157.179354,108.502624 157.628481,109.585811 157.838218,110.712096 L157.897523,111.037483 L158.228764,111.054004 C158.766125,111.084891 159.189939,111.515149 159.189939,112.044531 C159.189939,112.573914 158.771911,113.002017 158.236719,113.037932 L158.262032,113.452388 L158.679337,113.521344 L158.262032,113.452388 L158.236719,113.037932 L157.901863,113.055889 L157.845451,113.382713 C157.649455,114.547786 157.195988,115.675508 156.472032,116.6725 C156.20516,115.679099 155.75314,114.804935 155.17383,114.075149 L155.051604,113.913533 L144.098974,113.913533 L144.098974,124.785631 L144.261701,124.912769 C144.995059,125.483813 145.877402,125.938493 146.881249,126.198515 C145.906332,126.89957 144.815697,127.352814 143.683116,127.558246 L143.356215,127.617146 L143.338857,127.946125 C143.309204,128.481972 142.879605,128.900738 142.344413,128.900738 C141.808497,128.900738 141.381067,128.483409 141.347075,127.956899 L141.327548,127.622174 L140.996308,127.567584 C139.821778,127.370771 138.68558,126.924711 137.681011,126.198515 C138.68558,125.937056 139.567201,125.483813 140.300558,124.912769 L140.461839,124.785631 L140.461839,113.913533 L129.511379,113.913533 L129.386259,114.075149 C128.81129,114.804935 128.3571,115.682691 128.087334,116.677528 C127.385076,115.712859 126.929439,114.62608 126.726211,113.503387 L126.667629,113.178718 L126.334942,113.162197 C125.794688,113.130592 125.375213,112.704644 125.375213,112.166641 C125.375213,111.632949 125.787455,111.21562 126.324094,111.180424 L126.656057,111.158875 L126.71247,110.829178 C126.908466,109.659077 127.364102,108.536383 128.087334,107.541546 C128.3571,108.534947 128.81129,109.408392 129.386259,110.137461 L129.511379,110.298359 L140.461839,110.298359 L140.461839,99.4312882 L140.300558,99.301277 C139.567201,98.7287966 138.68558,98.277708 137.681011,98.0133758 C138.652312,97.3130391 139.745839,96.8641053 140.875528,96.6572366 Z M140.427124,95.8915352 C138.979213,96.2032748 137.602178,96.8863724 136.437051,97.9365183 L135.771677,98.5384487 L136.6627,98.6598404 C137.815532,98.8236114 138.812869,99.2538696 139.617827,99.8399975 L139.617827,109.460109 L129.927237,109.460109 C129.337803,108.659212 128.906033,107.671557 128.744752,106.52947 L128.618187,105.643095 L128.012118,106.30608 C126.924377,107.495575 126.235136,108.914924 125.936441,110.396047 C125.133653,110.590704 124.531201,111.300379 124.531201,112.166641 C124.531201,113.03865 125.142332,113.758381 125.958138,113.950166 C126.270575,115.383162 126.956199,116.754385 128.012118,117.909402 L128.61674,118.570233 L128.744752,117.682421 C128.906033,116.543925 129.337803,115.553398 129.927237,114.755373 L139.617827,114.755373 L139.617827,124.372612 C138.812869,124.962331 137.815532,125.390435 136.6627,125.550614 L135.771677,125.675597 L136.437051,126.276091 C137.637617,127.361433 139.067447,128.040221 140.555859,128.340468 C140.753302,129.138493 141.467132,129.739705 142.344413,129.739705 C143.219524,129.739705 143.944202,129.127718 144.138029,128.321793 C145.580154,128.010771 146.960081,127.326237 148.124485,126.276091 L148.792029,125.675597 L147.895221,125.550614 C146.749621,125.390435 145.750837,124.962331 144.944433,124.376203 L144.94154,114.755373 L154.636469,114.755373 C155.228073,115.553398 155.65478,116.543925 155.816784,117.682421 L155.94118,118.570233 L156.545802,117.909402 C157.63499,116.719189 158.321337,115.300558 158.624372,113.823027 C159.428606,113.623342 160.031059,112.909357 160.031059,112.044531 C160.031059,111.169649 159.419927,110.457102 158.611354,110.264599 C158.293855,108.833039 157.605337,107.457506 156.545802,106.30608 L155.94118,105.643813 L155.816784,106.52947 C155.65478,107.671557 155.228073,108.659212 154.633576,109.460109 L144.944433,109.460109 L144.944433,99.8399975 C145.750837,99.2517147 146.749621,98.8236114 147.895221,98.6598404 L148.788412,98.5384487 L148.121592,97.9365183 C146.920303,96.8554858 145.493366,96.1759796 144.005677,95.8742961 C143.805342,95.0791446 143.093681,94.476496 142.22291,94.4757777 C141.346352,94.4757777 140.622396,95.0856093 140.427124,95.8915352 Z" id="path36" fill="#231F20" fill-rule="nonzero"></path>
                        <path d="M87.7476059,28.4775571 L88.0745069,28.418657 L88.0962039,28.0875234 C88.1280261,27.5524662 88.5569028,27.1326952 89.0935412,27.1326952 C89.6301796,27.1326952 90.0568866,27.5488029 90.0908786,28.0760307 L90.1132988,28.4113304 L90.4452624,28.4660644 C91.614729,28.6549039 92.7487573,29.1097277 93.7540502,29.8299611 C92.7530967,30.097382 91.8714765,30.5468904 91.1395654,31.120951 L90.9746684,31.2480172 L90.9746684,42.1192537 L101.920066,42.1192537 L102.048078,41.9576376 C102.627387,41.2278508 103.081577,40.3523941 103.347003,39.3597117 C104.047816,40.3192807 104.504898,41.4087891 104.713189,42.5308362 L104.771771,42.8555051 L105.105904,42.8734625 C105.640373,42.9060012 106.067803,43.3347509 106.06491,43.8611167 C106.067803,44.3948092 105.647605,44.8187464 105.109521,44.8552357 L105.137003,45.2763715 L105.555032,45.3408743 L105.137003,45.2763715 L105.109521,44.8552357 L104.771771,44.8813098 L104.718252,45.2059787 C104.525872,46.3695432 104.070236,47.5014309 103.347003,48.4949752 C103.081577,47.5014309 102.627387,46.6259741 102.048078,45.8933861 L101.920066,45.7345712 L90.9746684,45.7345712 L90.9746684,56.6058078 L91.1395654,56.7315092 C91.872923,57.3033431 92.7559896,57.7545036 93.7583896,58.0210625 C92.7849189,58.7183105 91.6942846,59.1716977 90.5631493,59.3756932 L90.2311856,59.4345934 L90.2145513,59.7679536 C90.1820058,60.3030108 89.7581917,60.7174665 89.2157675,60.7174665 C88.6834685,60.7174665 88.2567614,60.3030108 88.224216,59.7721915 L88.2003493,59.4416326 L87.8712786,59.3835226 C86.6953029,59.1882903 85.5591049,58.7393566 84.5559817,58.0210625 C85.5591049,57.7545036 86.443618,57.3033431 87.1762524,56.7315092 L87.3389796,56.6058078 L87.3389796,45.7345712 L76.3885193,45.7345712 L76.259784,45.8933861 C75.6877072,46.6259741 75.2313476,47.5014309 74.9637517,48.4949752 C74.2607699,47.5331077 73.8051335,46.4427373 73.601182,45.3234916 L73.5426002,44.9968833 L73.2091901,44.9809371 C72.6682123,44.9481111 72.2492439,44.5221627 72.2492439,43.9862436 C72.2492439,43.4531257 72.6631497,43.0308407 73.1990648,42.9985893 L73.5317517,42.9820685 L73.5910567,42.6495702 C73.7841598,41.4837072 74.2390729,40.3544053 74.9659214,39.3597117 C75.2313476,40.3523941 75.6877072,41.2278508 76.259784,41.9576376 L76.3885193,42.1192537 L87.3389796,42.1192537 L87.3389796,31.2480172 L87.1762524,31.120951 C86.4414483,30.5468904 85.5591049,30.097382 84.5559817,29.8299611 C85.5272827,29.1304864 86.6215332,28.6806906 87.7476059,28.4775571 Z M87.3013716,27.7081923 C85.8585231,28.0221587 84.4785959,28.7036761 83.3112989,29.7544684 L82.6466484,30.3552495 L83.5376706,30.4828904 C84.6905029,30.6430699 85.6878403,31.072107 86.4920746,31.6596715 L86.4920746,41.2811482 L76.8058243,41.2811482 C76.2149435,40.4795321 75.7831739,39.4882145 75.6204466,38.349072 L75.4960506,37.4604704 L74.8878123,38.1225939 C73.8000709,39.3159676 73.1137234,40.7315096 72.8106891,42.2140685 C72.0087691,42.4074333 71.4079077,43.1178261 71.4079077,43.9862436 C71.4027728,44.858899 72.0195453,45.5785578 72.8316628,45.7724253 C73.1455456,47.2042727 73.8318931,48.575496 74.8878123,49.7281424 L75.490988,50.3883265 L75.6204466,49.5061896 C75.7831739,48.3600078 76.2120506,47.3742929 76.8022082,46.5726767 L86.4920746,46.5726767 L86.4920746,56.1927887 C85.6878403,56.7825799 84.6905029,57.2065171 83.5376706,57.3681332 L82.6466484,57.4951995 L83.3112989,58.0956933 C84.5140343,59.175361 85.9424181,59.8619783 87.4308301,60.1585619 C87.6282726,60.9565147 88.3449958,61.555572 89.2157675,61.555572 C90.0959412,61.555572 90.817727,60.9486853 91.0115533,60.139168 C92.4529553,59.8288649 93.8336057,59.1464856 94.9994562,58.0956933 L95.6684461,57.4951995 L94.7752542,57.3681332 C93.6216987,57.2065171 92.6272542,56.7825799 91.8222967,56.1927887 L91.8222967,46.5726767 L101.512886,46.5726767 C102.101597,47.3742929 102.531197,48.3600078 102.688862,49.5019516 L102.810365,50.3883265 L103.41788,49.7289325 C104.512854,48.5387193 105.196308,47.118652 105.497173,45.6388945 C106.301407,45.4450269 106.907476,44.7295342 106.907476,43.8611167 C106.907476,42.9907599 106.297068,42.2744052 105.480539,42.0827644 C105.166656,40.6498396 104.477416,39.2819923 103.41788,38.1225939 L102.810365,37.4604704 L102.688862,38.349072 C102.531197,39.4882145 102.099428,40.4795321 101.510717,41.2811482 L91.8222967,41.2811482 L91.8222967,31.6596715 C92.6272542,31.072107 93.6238684,30.6430699 94.7752542,30.4828904 L95.6684461,30.3594156 L94.9965633,29.7544684 C93.7996138,28.6770273 92.3690603,27.9868186 90.8813715,27.691097 C90.6832058,26.8964483 89.9672058,26.297391 89.0935412,26.2954516 C88.2133675,26.297391 87.4944746,26.9043495 87.3013716,27.7081923 Z" id="path38" fill="#231F20" fill-rule="nonzero"></path>
                        <path d="M163.977737,178.207313 C163.977014,178.993845 163.799099,179.12673 163.049107,179.125293 L153.50461,179.110209 C152.756788,179.110209 152.57815,178.977324 152.57815,178.190074 L152.581766,175.819704 C152.585382,175.02958 152.761851,174.900287 153.510396,174.901006 L155.721317,174.904597 L155.739398,164.283183 C155.740845,162.880355 155.920206,159.984912 155.920929,158.581365 L155.832695,158.581365 C155.29895,160.376382 154.412267,162.615305 153.1712,164.939704 L145.818097,178.531982 C145.551948,179.012521 145.465883,179.098716 144.801956,179.096561 L137.999233,179.087223 C137.249241,179.086505 137.069156,178.954339 137.070603,178.165652 L137.074942,175.797437 C137.076388,175.005877 137.254304,174.876584 138.002126,174.87802 L140.258611,174.881612 L140.291879,153.245159 L138.035395,153.243004 C137.288296,153.240849 137.11038,153.112275 137.111827,152.320714 L137.11472,149.951781 C137.11472,149.160221 137.295528,149.031646 138.041904,149.032364 L147.587124,149.047449 C148.338562,149.048885 148.512861,149.178178 148.512861,149.968302 L148.509245,152.337954 C148.508522,153.128795 148.332053,153.258088 147.582061,153.256652 L145.373309,153.25306 L145.352336,165.758559 C145.350166,167.780557 145.126687,169.136696 145.123071,170.58334 L145.212752,170.584777 C146.05821,168.085832 146.497212,167.034249 147.83013,164.624373 L155.979511,149.674519 C156.246384,149.147291 156.379459,149.060378 156.996376,149.062533 L159.912449,149.065406 C160.709451,149.067561 160.841802,149.196135 160.840356,149.986977 L160.801301,174.912498 L163.053446,174.914653 C163.804885,174.916808 163.9828,175.045383 163.979907,175.837661 L163.977737,178.207313 Z M125.230567,152.874519 C121.913823,152.869491 120.497011,157.167763 120.485439,164.012386 C120.476037,170.856292 121.879831,175.200534 125.195128,175.206281 C128.510425,175.211309 129.92796,170.913756 129.940979,164.026752 C129.95255,157.182847 128.542247,152.878829 125.230567,152.874519 Z M125.188619,179.814855 C118.383726,179.804081 114.196211,174.663969 114.212846,164.003767 C114.228034,153.384508 118.387342,148.25517 125.235629,148.265945 C132.084639,148.276719 136.22876,153.418268 136.211403,164.036808 C136.196215,174.655349 131.992789,179.82563 125.188619,179.814855 Z M93.1696785,174.879457 L100.193711,161.361881 L100.193711,153.245159 L97.1915733,153.245159 C96.4423047,153.245159 96.265836,153.115148 96.265836,152.323588 L96.265836,149.953936 C96.265836,149.163812 96.4423047,149.035238 97.1915733,149.035238 L109.163961,149.035238 C109.916123,149.035238 110.094038,149.163812 110.094038,149.953936 L110.094038,152.323588 C110.094038,153.115148 109.916123,153.245159 109.163961,153.245159 L106.160377,153.245159 L106.160377,161.361881 L112.921876,174.879457 L114.332179,174.879457 C114.951989,174.879457 115.082894,175.00875 115.082894,175.621455 L115.082894,178.343071 C115.082894,178.956494 114.951989,179.089378 114.332179,179.089378 L109.516898,179.089378 C108.813916,179.089378 108.813916,179.046281 108.547044,178.475955 L105.098672,171.412252 C104.350127,169.877257 103.73104,167.989581 103.333262,166.409334 L103.246474,166.409334 C102.937654,167.989581 102.184769,169.964889 101.479618,171.412252 L98.0305228,178.475955 C97.766543,179.046281 97.766543,179.089378 97.059945,179.089378 L82.0745717,179.089378 C81.3202404,179.089378 81.1459414,178.956494 81.1459414,178.169244 L81.1459414,175.799592 C81.1459414,175.00875 81.3202404,174.879457 82.0745717,174.879457 L84.279707,174.879457 L84.279707,164.258761 C84.279707,162.856651 84.4597918,159.959772 84.4597918,158.554788 L84.3693878,158.554788 C83.8414282,160.352678 82.9583616,162.591601 81.7201879,164.918155 L74.3866123,178.521926 C74.1204628,179.003183 74.030782,179.089378 73.3697477,179.089378 L66.5681818,179.089378 C65.8141398,179.089378 65.6375988,178.956494 65.6375988,178.169244 L65.6375988,175.799592 C65.6375988,175.00875 65.8141398,174.879457 66.5681818,174.879457 L68.8201102,174.879457 L68.8201102,153.245159 L66.5681818,153.245159 C65.8141398,153.245159 65.6375988,153.115148 65.6375988,152.323588 L65.6375988,149.953936 C65.6375988,149.163812 65.8141398,149.035238 66.5681818,149.035238 L76.1071819,149.035238 C76.86079,149.035238 77.0379819,149.163812 77.0379819,149.953936 L77.0379819,152.323588 C77.0379819,153.115148 76.86079,153.245159 76.1071819,153.245159 L73.9013234,153.245159 L73.9013234,165.749221 C73.9013234,167.771937 73.6785679,169.128077 73.6785679,170.574721 L73.7646325,170.574721 C74.6050284,168.075058 75.0505395,167.022757 76.3726082,164.611444 L84.5024625,149.649379 C84.7678888,149.120715 84.8973474,149.035238 85.5193272,149.035238 L88.4317836,149.035238 C89.2280624,149.035238 89.3633069,149.163812 89.3633069,149.953936 L89.3633069,174.879457 L93.1696785,174.879457 Z M62.5917782,179.089378 L45.0452223,179.089378 C44.2951581,179.089378 44.118834,178.956494 44.118834,178.169244 L44.118834,175.799592 C44.118834,175.00875 44.2951581,174.879457 45.0452223,174.879457 L47.1776004,174.879457 L47.1776004,153.245159 L45.0452223,153.245159 C44.2951581,153.245159 44.118834,153.115148 44.118834,152.323588 L44.118834,149.953936 C44.118834,149.163812 44.2951581,149.035238 45.0452223,149.035238 L62.6390053,149.035238 C63.3896481,149.035238 63.5224336,149.163812 63.5224336,149.953936 L63.5224336,156.842375 C63.5224336,157.631062 63.3896481,157.76682 62.5917782,157.76682 L59.6796834,157.76682 C58.8402999,157.76682 58.7501852,157.589401 58.7501852,156.842375 L58.7501852,153.772387 L53.1400722,153.772387 L53.1400722,162.371085 L60.6526478,162.371085 C61.4007593,162.371085 61.5789637,162.503251 61.5789637,163.291938 L61.5789637,166.189536 C61.5789637,166.979659 61.4453827,167.111825 60.6526478,167.111825 L53.1400722,167.111825 L53.1400722,174.351511 L58.7501852,174.351511 L58.7501852,171.673711 C58.7501852,170.885024 58.9293298,170.754294 59.6796834,170.754294 L62.5917782,170.754294 C63.3037281,170.754294 63.5224336,170.885024 63.5224336,171.673711 L63.5224336,178.343071 C63.5224336,179.003183 63.3037281,179.089378 62.5917782,179.089378 Z M42.024064,153.245159 L40.7501626,153.245159 L32.1016061,164.433307 L40.0967222,174.879457 L41.9994741,174.879457 C42.7464284,174.879457 42.9266579,175.00875 42.9266579,175.799592 L42.9266579,178.169244 C42.9266579,178.956494 42.7464284,179.089378 41.9994741,179.089378 L37.2696071,179.089378 C36.7416476,179.089378 36.6523284,179.046281 36.3432912,178.651219 L26.9771436,165.881388 L26.8881137,165.881388 L26.8881137,174.879457 L29.009788,174.879457 C29.7610094,174.879457 29.940154,175.00875 29.940154,175.799592 L29.940154,178.169244 C29.940154,178.956494 29.7610094,179.089378 29.009788,179.089378 L18.6712545,179.089378 C17.9197438,179.089378 17.7434921,178.956494 17.7434921,178.169244 L17.7434921,175.799592 C17.7434921,175.00875 17.9197438,174.879457 18.6712545,174.879457 L20.9257142,174.879457 L20.9257142,153.245159 L18.6712545,153.245159 C17.9197438,153.245159 17.7434921,153.115148 17.7434921,152.323588 L17.7434921,149.953936 C17.7434921,149.163812 17.9197438,149.035238 18.6712545,149.035238 L29.009788,149.035238 C29.7610094,149.035238 29.940154,149.163812 29.940154,149.953936 L29.940154,152.323588 C29.940154,153.115148 29.7610094,153.245159 29.009788,153.245159 L26.8881137,153.245159 L26.8881137,162.283453 L26.9771436,162.283453 L36.6088621,149.691758 C37.0503954,149.120715 37.0503954,149.035238 37.7112128,149.035238 L42.024064,149.035238 C42.7723925,149.035238 42.9518264,149.163812 42.9518264,149.953936 L42.9518264,152.323588 C42.9518264,153.115148 42.7283476,153.245159 42.024064,153.245159 Z" id="path40" fill="#231F20" fill-rule="nonzero"></path>
                    </g>
                </g>
            </g>
        </g>
    </g>
</svg>