<?xml version="1.0" encoding="UTF-8"?>
<svg width="200px" height="200px" viewBox="0 0 200 200" version="1.1" xmlns="http://www.w3.org/2000/svg" xmlns:xlink="http://www.w3.org/1999/xlink">
    <!-- Generator: Sketch 51.3 (57544) - http://www.bohemiancoding.com/sketch -->
    <title>kutztown</title>
    <desc>Created with Sketch.</desc>
    <defs></defs>
    <g id="kutztown" stroke="none" stroke-width="1" fill="none" fill-rule="evenodd">
        <g id="kutztown_BGL" transform="translate(0.000000, 8.000000)">
            <g id="kutztown">
                <g id="g10" transform="translate(99.928620, 92.031408) scale(-1, 1) rotate(-180.000000) translate(-99.928620, -92.031408) translate(0.000000, 0.097078)" fill-rule="nonzero">
                    <g id="g12">
                        <path d="M199.379867,142.14475 C199.400423,142.189861 199.424406,142.2344 199.444392,142.279511 C199.444392,142.279511 198.859096,150.392573 198.325191,153.545178 L198.131615,154.690646 C193.735898,159.641395 189.287076,165.0147 179.59971,169.431545 C179.59971,169.431545 166.727762,169.843822 156.930189,166.772301 C150.913344,174.209846 142.326906,178.663807 137.426406,180.750317 L136.71263,181.053529 L135.937184,181.088361 C129.55146,181.371587 114.06024,181.549175 102.509062,177.577155 C93.8261219,182.372015 70.200141,190.95674 34.5030113,170.662665 C30.6999564,171.95203 30.6836823,171.897783 22.80314,174.120767 C10.6330333,171.712201 1.56673801,166.095642 1.56673801,166.095642 C-0.801884348,152.527048 0.218594142,145.768447 0.218594142,145.768447 C0.218594142,145.768447 7.66994984,134.257241 13.0232688,130.232688 C10.3037828,121.964308 9.91902902,112.730904 13.0518198,104.104494 C6.47994274,92.5807257 3.88918763,75.556315 18.9549745,61.8712333 C19.9781294,58.0499629 23.5871514,48.6710623 34.8268942,44.826894 C37.8517621,38.3514052 43.4323472,27.1205703 59.9691634,24.5384719 C63.740755,18.1024978 74.8682351,4.2900156 82.264666,1.72443679 C95.4780847,-1.83016698 110.624979,1.21341896 110.624979,1.21341896 C110.624979,1.21341896 117.773016,6.17547451 121.482367,12.4551603 C127.293073,15.4021409 133.325336,21.5658524 136.943894,25.6571014 C149.677084,29.4811699 154.338326,38.8756022 157.118626,44.8251238 C164.621837,47.3918047 168.743465,52.4362014 170.971587,56.7210835 C175.85724,59.8932176 178.296641,62.278371 178.296641,62.278371 C188.294642,81.9231957 183.954885,93.361311 182.400566,97.2910754 C183.796141,103.68822 187.772158,106.148177 187.772158,106.148177 C187.772158,106.148177 187.697354,113.642824 186.947604,121.297356 L199.379867,121.297356 L199.379867,142.14475" id="path14" fill="#FFFFFF"></path>
                        <path d="M195.087504,143.240539 C194.939039,145.580011 194.627832,149.698783 194.098496,152.829689 C192.227261,155.065235 186.018554,162.008847 178.661523,165.168875 C173.923193,165.299068 164.52248,165.034114 155.315342,161.751316 C149.858098,170.055099 140.208419,174.906491 135.747034,176.805706 C130.50792,177.038111 113.275657,177.398425 102.087649,172.850246 C96.0479633,176.704064 72.7000696,188.20385 34.9402418,165.978583 C32.6249242,166.790003 27.1303919,168.659525 22.7150316,169.731331 C19.2576726,169.038111 11.9671089,167.237683 5.49361871,163.43183 C5.10929894,160.937041 4.00807413,153.051816 4.41782716,147.173729 C6.4569877,144.035971 12.5602281,135.124051 18.1769589,131.78929 C16.8702922,128.78515 12.2493073,116.480225 17.8222979,103.697356 C15.3939182,100.006279 3.84412838,80.2620965 22.8310059,64.1524609 C22.8310059,64.1524609 24.6961878,51.8252664 37.9001846,48.3665941 C40.9236821,42.0608127 45.2587569,30.2109914 62.745466,28.4762877 C64.2598128,24.5853527 76.3426105,8.4390576 83.4957866,5.83868651 C90.5050655,4.17581146 99.5368997,3.52605273 108.93019,5.25963727 C112.543038,7.78929317 115.289647,10.5341896 118.541039,15.8099068 C123.08408,17.7410988 129.011845,23.0114484 134.529618,29.4087073 C147.621981,32.7707629 151.357027,42.7585428 154.045963,48.3665941 C162.000281,50.4508196 165.836398,55.7492634 167.632258,59.6362583 C172.166734,62.6421112 174.95617,65.0569577 174.95617,65.0569577 C174.95617,65.0569577 178.489646,71.0806549 179.961737,80.6606689 C181.312772,86.9407544 179.82926,92.6401119 177.972872,96.8748013 C178.59243,101.256814 180.541323,105.452103 183.422122,108.015415 C183.295927,111.880083 182.797997,122.953316 181.038682,131.846392 C181.038682,131.846392 191.295927,136.262095 195.087504,143.240539" id="path16" fill="#2A2521"></path>
                        <path d="M112.749176,34.970563 C109.992288,33.0899635 107.222838,30.4753169 105.373302,27.0151028 C104.340326,29.5349029 102.392003,30.5079221 102.392003,30.5079221 C102.392003,30.5079221 100.319769,28.5722191 99.7898619,26.9477224 C99.046964,28.1992855 97.7558862,30.113975 96.4042802,30.9265945 C95.0526743,30.113975 93.7621675,28.1992855 93.0186986,26.9477224 C92.4887914,28.5722191 90.4171284,30.5079221 90.4171284,30.5079221 C90.4171284,30.5079221 88.4682348,29.5349029 87.4358294,27.0151028 C85.5857223,30.4753169 82.816843,33.0899635 80.0605262,34.970563 C80.00114,31.4420549 80.1855797,27.0338323 83.0264076,21.782669 C84.1438951,21.9015555 85.7164861,22.2555312 86.8836524,23.2697781 C89.2311184,21.4480509 92.8730883,20.6292643 96.4042802,20.6218981 C99.9360432,20.6292643 103.578013,21.4480509 105.925479,23.2697781 C107.091503,22.2555312 108.665807,21.9015555 109.782153,21.782669 C112.623552,27.0338323 112.80742,31.4420549 112.749176,34.970563" id="path18" fill="#FFFFFF"></path>
                        <path d="M96.4042802,70.9299054 C90.3868643,70.9036385 83.5300479,69.9574572 76.218699,67.3239098 C76.3437526,64.4471076 77.2790844,62.2127037 80.2523891,57.3932891 C80.2523891,57.3932891 81.3304762,64.1102054 84.1524604,67.1657371 C84.1524604,67.1657371 84.9867216,64.6698057 86.652389,63.4518185 C87.2708044,64.1730177 88.1473211,65.3521754 88.6167001,66.6877928 C89.1214824,65.6827964 89.9671641,63.7367579 91.3912896,63.1280498 C91.3912896,63.1280498 92.7857222,63.6876501 93.719341,66.3434673 C94.1241946,65.424695 94.9219105,63.3159156 96.4042802,62.5758728 C97.887221,63.3159156 98.6849369,65.424695 99.0897905,66.3434673 C100.023409,63.6876501 101.417842,63.1280498 101.417842,63.1280498 C102.842538,63.7367579 103.687649,65.6827964 104.19186,66.6877928 C104.66181,65.3521754 105.538327,64.1730177 106.156743,63.4518185 C107.822981,64.6698057 108.656671,67.1657371 108.656671,67.1657371 C111.478084,64.1102054 112.556742,57.3932891 112.556742,57.3932891 C115.530047,62.2127037 116.465379,64.4471076 116.590432,67.3239098 C109.279084,69.9574572 102.422267,70.9036385 96.4042802,70.9299054" id="path20" fill="#FFFFFF"></path>
                        <path d="M105.932902,56.0296346 C101.548606,56.0296346 101.835258,53.0705483 96.4042802,53.0705483 C91.2605259,53.0705483 91.2605259,56.0296346 86.8779422,56.0296346 C82.3046375,56.0296346 81.9089202,37.6811411 81.9089202,37.6811411 C81.9089202,37.6811411 85.0215539,35.9098349 87.617985,32.5675938 C88.2786559,33.0683218 89.5851512,33.9614553 90.9904331,34.4640106 C91.5026387,33.9790998 92.2512468,33.4493068 93.1009256,32.4738893 C93.691932,33.0741462 95.209705,34.1356737 96.4042802,34.7111483 C97.5982845,34.1356737 99.1171995,33.0701491 99.7064929,32.4694353 C100.557314,33.5001847 101.309348,33.9790998 101.818698,34.4640106 C103.274801,33.8586144 104.520768,33.0705488 105.183723,32.5693639 C107.941182,35.7561733 111.088648,37.8096208 111.088648,37.8096208 C111.088648,37.8096208 110.453102,56.0296346 105.932902,56.0296346" id="path22" fill="#77253A"></path>
                        <path d="M125.458955,122.017984 C124.727477,122.780297 124.38772,124.311203 124.229547,125.668519 C123.414701,125.311631 122.545036,124.888505 121.622838,124.388862 C123.183437,122.527335 125.458955,122.017984 125.458955,122.017984" id="path24" fill="#77253A"></path>
                        <path d="M76.6304049,124.713202 C76.3220538,125.858669 76.0593843,127.539754 76.0845092,129.18772 C75.2388275,129.52348 73.6805121,129.889504 73.5588847,129.917484 C73.4955014,129.852388 73.4383993,129.781581 73.3784421,129.714201 C73.7941452,126.133901 76.6304049,124.713202 76.6304049,124.713202" id="path26" fill="#77253A"></path>
                        <path d="M82.9595982,125.865521 C82.953317,125.268234 82.8545304,124.693787 82.6803691,124.154172 C81.9557438,121.904922 79.8915041,120.280939 77.4543878,120.280939 C74.4142737,120.280939 71.9491774,122.807706 71.9491774,125.924908 C71.9491774,126.70378 72.1027819,127.445536 72.380869,128.120482 C72.6589561,128.795429 73.0603836,129.402424 73.5577426,129.912916 C72.216415,130.216699 71.4643808,130.243537 71.4643808,130.243537 C71.4643808,130.243537 68.8953587,128.913059 68.8953587,125.7753 C68.8953587,120.447106 73.3299054,117.883223 73.3299054,117.883223 C80.0028531,118.132188 82.1910044,117.708491 82.1910044,117.708491 C85.216843,119.089219 86.6775139,121.403566 87.3210542,122.816842 C85.7907188,124.01827 84.3323319,125.020982 82.9595982,125.865521" id="path28" fill="#FFFFFF"></path>
                        <path d="M131.176585,127.645964 C131.176585,127.645964 130.291503,127.612845 128.732045,127.230832 C129.635971,126.195571 130.480511,124.648676 130.480511,123.225693 C130.480511,120.108491 128.015985,117.581153 124.974729,117.581153 C121.961453,117.581153 119.536899,120.039397 119.49236,123.11777 C118.181296,122.300639 116.792003,121.335614 115.339326,120.195857 C115.984009,118.78201 117.423552,116.492217 120.448819,115.110918 C120.448819,115.110918 122.637542,115.534615 129.310489,115.28565 C129.310489,115.28565 133.746749,117.849533 133.746749,123.177156 C133.746749,126.315486 131.176585,127.645964 131.176585,127.645964" id="path30" fill="#FFFFFF"></path>
                        <path d="M28.9783861,106.095643 C29.726309,105.373302 30.6888215,104.264951 31.463925,102.763738 C30.9323618,93.5885772 30.6908201,58.6152733 56.7264511,48.6253236 C54.6341742,42.8071367 58.0305482,36.8817121 60.9210549,34.5701633 C52.3675076,34.7836108 44.518657,44.8309482 44.2293208,51.4782 C40.9335036,53.6598987 30.3557451,56.3916617 29.4262948,63.3353303 C29.7171727,76.8645234 24.4901065,81.4680922 20.9702778,74.589006 C20.9702778,74.589006 13.9304493,84.5972855 18.7307918,93.6679491 C19.0787718,88.7120606 21.3104349,84.8890771 22.8348317,83.2216967 C28.3177152,88.1695909 29.214389,99.3461788 27.2809701,103.601996 L28.9783861,106.095643" id="path32" fill="#7E6F42"></path>
                        <path d="M105.866093,17.5918911 C105.866093,17.5918911 103.469519,15.9314771 96.4059933,15.9314771 C91.5979991,15.9314771 86.6049943,17.0065949 85.6485346,17.7547462 C84.1998551,17.0860238 82.8276924,15.7133472 81.7433242,13.8363451 C82.4062792,12.9838112 84.0559579,11.5990861 85.2847944,10.9475515 C85.2847944,10.9475515 96.6937877,8.99757294 107.096072,11.017787 C109.923195,13.5628833 109.476657,16.2198997 105.866093,17.5918911" id="path34" fill="#7E6F42"></path>
                        <path d="M62.0996416,90.8676637 C50.4508196,95.1092053 43.8996706,107.032688 43.8996706,107.032688 C45.0405699,94.4770854 51.9809266,87.8481063 55.4972149,85.2573854 C56.4001128,75.5260509 60.7006409,70.4451089 63.5311904,68.1096343 C60.1353304,75.8406833 59.6613832,83.6802263 62.0996416,90.8676637" id="path36" fill="#7E6F42"></path>
                        <path d="M105.530904,90.102496 C103.231404,90.102496 103.596286,92.5070641 103.596286,92.5070641 C102.028263,91.3547443 102.812845,88.1490342 105.477799,88.4002833 C108.144466,88.6498193 110.353174,91.7556008 108.993573,94.5615965 C108.993573,94.5615965 108.35403,90.102496 105.530904,90.102496" id="path38" fill="#7E6F42"></path>
                        <path d="M89.3538878,92.5070641 C89.3538878,92.5070641 89.7210541,90.102496 87.4204118,90.102496 C84.5978566,90.102496 83.9577424,94.5615965 83.9577424,94.5615965 C82.5987131,91.7556008 84.8074211,88.6498193 87.4740877,88.4002833 C90.1384703,88.1490342 90.9224817,91.3547443 89.3538878,92.5070641" id="path40" fill="#7E6F42"></path>
                        <path d="M104.453959,104.052531 C99.9977134,104.052531 97.5040661,102.465665 96.4042802,101.507492 C95.3044944,102.465665 92.8114181,104.052531 88.3546016,104.052531 C80.7149159,104.052531 80.7657367,99.6431096 80.7657367,99.6431096 C80.7657367,99.6431096 81.048392,101.847249 88.3546016,101.847249 C92.4973567,101.847249 95.0064216,100.058813 96.4042802,98.5102045 C97.8021389,100.058813 100.311204,101.847249 104.453959,101.847249 C111.76074,101.847249 112.042824,99.6431096 112.042824,99.6431096 C112.042824,99.6431096 112.093645,104.052531 104.453959,104.052531" id="path42" fill="#7E6F42"></path>
                        <path d="M100.011989,106.527906 C104.005708,107.571732 112.055957,107.140611 114.480511,102.635258 C114.481653,102.635258 114.482795,102.635258 114.483937,102.635258 C114.860811,101.932903 115.072088,101.151175 115.072088,100.289505 C115.072088,96.2752296 113.031261,94.9144873 112.049105,94.492503 C112.304351,92.8668071 112.358598,89.7107758 110.16645,85.9163433 C107.060668,80.5367574 101.473231,78.4850801 96.4728027,80.8456796 C91.4718036,78.4850801 85.8855082,80.5367574 82.7780136,85.9163433 C80.5864362,89.7107758 80.6412542,92.8668071 80.8965005,94.492503 C79.9154869,94.9144873 77.874088,96.2752296 77.874088,100.289505 C77.874088,107.069234 90.8505331,108.990718 96.4728027,104.945608 C97.4612395,105.656528 98.6792267,106.179583 100.011989,106.527906 Z M76.216986,113.796428 C76.8422536,113.649676 77.4915041,113.563452 78.1613114,113.563452 C82.5918609,113.563452 86.2349729,116.977013 86.6089914,121.312774 C87.6939307,120.155886 88.363167,118.604422 88.363167,116.893644 C88.363167,113.32191 85.4680921,110.427406 81.8952157,110.427406 C79.4455369,110.427406 77.3144877,111.789291 76.216986,113.796428 Z M76.1467504,145.019839 C84.0690914,146.610132 89.5708757,151.295928 86.0316895,160.922765 C92.1044945,158.946463 93.9157721,150.103065 87.1171998,144.555029 C88.8565288,142.409133 93.9009256,134.991574 90.4970713,124.746892 C86.8916466,138.20585 81.8478209,142.244108 76.1467504,145.019839 Z M173.137469,133.96545 C179.041252,135.798997 184.741751,139.819554 187.323907,141.802138 C188.107918,145.103779 188.367733,149.280225 188.453386,151.684222 C184.873657,156.037112 179.81784,158.738611 177.076941,159.979439 C167.227976,160.317484 156.730903,156.64011 153.463522,155.385578 C145.640539,165.488076 137.438969,170.108204 134.049961,171.707633 C122.224694,172.436827 112.229548,170.322337 107.833259,169.171159 C104.580725,166.662094 100.392289,160.951316 99.1366142,150.931045 C96.2295479,164.493929 82.5775854,171.946891 78.0910758,174.060809 C67.411276,173.91577 58.3817259,170.929332 53.9902342,169.183151 C75.2976427,171.014414 79.9000694,161.593144 79.9000694,161.593144 C67.0698056,168.062808 52.1054091,163.315913 46.9272222,161.300781 C48.155088,160.843394 49.4057946,159.619696 49.5378146,157.685078 C44.4807412,155.760167 37.487508,150.382295 37.487508,150.382295 C38.0786286,153.338469 39.7789569,155.713344 40.9694208,157.078654 C35.6461947,160.931902 26.4634397,163.418126 22.0994142,164.43854 C16.7949175,163.315913 12.302812,160.987862 10.3872089,159.892073 C9.71825814,156.324336 9.76445372,151.506063 9.89162002,148.419697 C13.6237541,142.988148 18.493704,138.156742 20.4302636,136.318055 C21.4592429,138.03854 22.4161593,139.331902 23.0529616,140.128476 C9.17561719,155.105778 24.9879794,164.392287 34.1265373,148.1142 C29.905895,143.857241 15.4577013,123.69964 21.8885933,107.164594 L29.5728758,113.643395 L31.8408557,112.597285 C32.4339749,114.327478 32.8606987,115.869804 33.1211983,116.901068 C27.0864804,136.516199 36.2214409,148.492216 42.3643672,144.202709 C36.3967443,136.310632 37.6871368,124.992431 38.3991425,120.957599 C45.374046,118.941325 48.1709624,123.519197 49.1621972,126.092788 C47.8985855,140.67894 62.0539599,148.355742 75.4432529,141.198569 C75.4432529,141.198569 64.4699484,140.960453 62.6101341,131.837256 C73.3167719,135.890361 85.0763719,130.529047 87.3210542,122.816842 C86.6775139,121.403566 85.216843,119.089219 82.1910044,117.708491 C82.1910044,117.708491 80.0028531,118.132188 73.3299054,117.883223 C73.3299054,117.883223 72.2672359,118.499355 71.1822966,119.751603 C71.5454657,118.576442 72.1199125,117.454387 72.9347591,116.491075 C64.9130605,118.156171 64.8279784,125.01984 65.2248378,128.134758 C63.8709477,127.809847 62.5216258,127.325621 61.1957158,126.643252 C61.1043525,123.27994 61.7359014,112.753745 72.7440382,109.135757 C68.3991418,107.445536 60.5190563,109.521196 56.9309907,118.707777 C54.3749879,112.069662 61.4869364,102.067663 70.863096,104.452246 C71.5146306,103.901211 72.8536741,102.856814 75.4603836,102.856814 C75.1862936,102.579298 74.8619539,102.246964 74.4987847,101.860954 C66.2058513,94.8585273 61.8877929,83.8618109 66.5193417,71.4975 C64.2221254,52.4774862 75.6042808,36.52077 75.6042808,36.52077 C70.7112045,55.7363012 70.0882209,65.6776572 70.2606692,70.3126321 C71.2519611,71.1269076 79.9931458,75.6488204 96.2643802,75.6488204 C112.579583,75.6488204 121.641681,71.001283 122.212702,70.5753016 C122.418841,66.0573859 121.866664,56.1050093 116.880511,36.52077 C116.880511,36.52077 127.998284,52.1096347 126.038541,70.8368291 C131.277085,83.9720179 126.396,95.6276921 117.287078,102.691789 C121.604565,102.548463 125.27166,101.177442 127.885222,96.8913609 C130.118484,93.2276922 131.490075,89.3064931 132.006278,85.2505332 C135.999426,88.5910042 141.822695,94.6158435 142.341181,101.679369 C140.287791,99.6910753 135.918912,95.6271211 132.238683,93.3207685 C130.892788,102.402282 122.288648,107.757885 116.3763,109.509776 C122.741467,113.332188 133.865521,103.740183 137.962595,120.939326 C137.962595,120.939326 135.808705,114.422838 129.310489,115.28565 C122.637542,115.534615 120.448819,115.110918 120.448819,115.110918 C117.468091,116.47166 116.009133,118.735757 115.349605,120.154173 C113.729619,118.948177 112.108491,117.677656 111.015558,116.696071 C111.613416,114.771732 111.4758,110.445108 110.86024,106.589576 C110.265807,106.864808 109.662239,107.124623 109.050675,107.366735 C108.254673,111.605422 106.890504,117.602852 104.959883,121.722766 C97.4629526,123.110918 93.250533,140.461381 104.524765,144.354029 C100.898784,137.490932 102.92191,133.04782 104.266664,131.161167 C104.68408,138.572445 109.244251,144.123337 112.373445,147.089789 C107.846393,150.597569 104.322624,161.893501 117.990004,163.349603 C135.343894,165.199139 144.654957,155.104636 140.161024,151.285649 C144.25353,150.27323 145.843822,147.581438 146.431973,146.017412 C116.271232,157.548033 103.472945,131.820696 112.063952,124.644108 C113.33847,133.731331 120.821696,140.077084 127.954315,134.986435 C119.904637,133.100925 117.505779,128.391146 116.799997,125.580011 C120.973587,128.605279 127.605422,130.317199 131.359883,131.092645 C135.177156,129.40585 136.680653,126.040825 137.248248,124.075943 C151.976584,124.943894 147.813844,136.726335 146.104208,140.468804 C154.009989,138.08879 154.317769,127.400425 148.01884,122.495357 C162.832259,124.053102 164.994714,120.938184 164.994714,120.938184 C145.994572,113.785008 151.77844,102.476514 160.23183,103.605422 C160.760025,94.2344016 161.101495,58.5713047 135.181724,48.6253236 C137.274515,42.8071367 133.878084,36.8817121 130.987577,34.5701633 C139.540896,34.7836108 147.389575,44.8309482 147.679083,51.4782 C150.975014,53.6598987 161.552601,56.3916617 162.481652,63.3353303 C162.191573,76.8645234 167.418697,81.4680922 170.938468,74.589006 C170.938468,74.589006 177.978011,84.5972855 173.17744,93.6679491 C172.879939,87.2154154 169.207705,83.367878 169.073515,83.2216967 C164.062237,87.7436095 158.888219,103.932046 172.224978,111.7556 C172.224978,111.7556 171.020695,108.418555 173.650817,103.288506 C173.650817,103.288506 175.791002,107.459241 177.931188,109.95403 C177.586862,115.901782 175.129189,124.033687 174.2344,126.831117 C172.370588,125.430404 170.040253,124.472231 168.573872,123.95717 C165.182009,135.456385 158.161309,146.107063 155.950317,149.287077 C160.439682,152.654957 173.239111,154.839111 181.393857,149.303066 C181.432686,144.889647 178.766591,138.993287 173.137469,133.96545 Z" id="path44" fill="#7E6F42"></path>
                        <path d="M190.502208,124.716628 L190.502208,129.175728 L191.732186,129.175728 L192.792572,126.04368 L192.801708,126.04368 L193.90492,129.175728 L194.977868,129.175728 L194.977868,124.716628 L194.126476,124.716628 L194.126476,128.086792 L194.115056,128.086792 L193.034114,125.020982 L192.288361,125.020982 L191.23597,128.128476 L191.223407,128.128476 L191.223407,124.716628 L190.502208,124.716628 Z M187.230259,124.716628 L187.230259,128.565878 L185.64168,128.565878 L185.64168,129.175728 L189.74789,129.175728 L189.74789,128.565878 L188.160452,128.565878 L188.160452,124.716628 L187.230259,124.716628 Z" id="path46" fill="#2A2521"></path>
                    </g>
                </g>
            </g>
        </g>
    </g>
</svg>