<?xml version="1.0" encoding="UTF-8"?>
<svg width="200px" height="200px" viewBox="0 0 200 200" version="1.1" xmlns="http://www.w3.org/2000/svg" xmlns:xlink="http://www.w3.org/1999/xlink">
    <!-- Generator: Sketch 51.3 (57544) - http://www.bohemiancoding.com/sketch -->
    <title>lake-erie</title>
    <desc>Created with Sketch.</desc>
    <defs></defs>
    <g id="lake-erie" stroke="none" stroke-width="1" fill="none" fill-rule="evenodd">
        <g id="lake-erie_BGL" transform="translate(12.987013, 0.000000)">
            <g id="lake-erie">
                <g id="g10" transform="translate(86.423109, 100.185795) scale(-1, 1) rotate(-180.000000) translate(-86.423109, -100.185795) translate(0.000000, 0.224878)" fill-rule="nonzero">
                    <g id="g12" transform="translate(0.000000, 0.277241)">
                        <path d="M167.319445,111.814526 C165.524551,109.374802 162.473599,107.733533 159.163072,107.559487 C158.281002,106.320218 157.087994,105.348949 155.578819,104.742715 C151.400677,103.041685 148.419849,104.016958 146.620649,105.177059 C142.428974,103.612802 138.402149,105.314756 136.741657,109.409919 C136.028743,111.173482 135.872813,112.951216 136.154841,114.673193 C134.361792,116.187547 133.971812,117.781684 133.886004,118.515142 C132.219975,116.348963 130.121524,114.401496 127.678918,112.842783 C127.79056,111.584724 127.680763,110.123662 127.163455,108.500567 C136.546052,104.515069 131.115543,95.1051884 131.115543,95.1051884 C137.607426,89.7541219 132.953495,83.2022922 132.953495,83.2022922 C136.743502,78.7667383 133.194004,73.2598005 133.194004,73.2598005 C138.489495,67.4306466 132.090494,60.2390054 132.090494,60.2390054 C132.090494,60.2390054 137.321707,53.7453964 128.108573,45.8809828 C128.108573,45.8809828 131.682061,38.9043576 124.563995,33.0816727 C124.563995,33.0816727 126.25063,28.1396296 121.709572,24.1363566 C121.709572,24.1363566 123.506004,20.1311737 120.718321,17.27032 C120.391389,14.3028516 115.419446,11.4226218 112.843976,5.70220813 C112.565638,5.05472631 112.151976,4.59998885 111.568235,4.33636311 C111.55009,4.31301323 111.545784,4.27509277 111.526715,4.25165047 C110.986955,2.9929808 109.882523,2.43380343 108.066716,2.62825745 C106.250292,2.82138687 105.641332,4.27509277 105.597967,5.61450745 C105.165544,8.08716164 102.422764,10.6177285 104.518447,15.5559518 C104.518447,15.5559518 102.031553,18.8933218 105.081581,23.5475884 C105.081581,23.5475884 102.246227,26.7358642 104.692524,31.3723257 C104.692524,31.3723257 100.94865,34.9900175 103.521045,40.6408128 C103.521045,40.6408128 101.25313,43.302946 101.295573,46.2925322 C101.295573,46.2925322 97.5787638,47.765608 97.6218216,52.6154837 C91.0668902,52.878863 90.5514271,58.6849135 90.5514271,58.6849135 C82.5150006,58.8327755 81.94387,66.2150972 81.94387,66.2150972 C71.5611022,65.181603 71.5078951,73.3472855 71.5078951,73.3472855 C66.0386348,73.7563706 64.8923753,77.8019383 64.8923753,77.8019383 C62.4786793,77.6550004 60.359314,78.0086371 58.5545781,78.8178739 C58.2842368,76.7404119 57.266843,74.6188993 55.5722119,72.693612 C56.7722937,67.453442 54.0368946,63.2322881 50.2828716,60.9752353 C50.057741,59.0080537 49.180285,56.9040997 47.3537126,55.2391113 C46.392294,53.876932 44.9741553,52.6823297 42.9538229,51.8610792 C32.7768098,47.7437367 27.4352774,56.0828492 27.1433456,59.2252261 C8.68641436,58.1868031 8.36203552,73.1017729 8.36203552,73.1017729 C6.22212553,73.9513637 4.12628825,75.5341039 3.04323754,78.2242693 C1.83403985,81.2150876 2.7737666,85.2809864 5.47784111,87.6064254 C6.76274668,89.4168116 8.77566698,90.7253908 11.4247352,90.8553862 C11.6625986,91.1363242 11.9545304,91.4323563 12.3005304,91.7431747 C13.2168306,93.0138643 15.4442094,95.3063424 19.898967,95.873147 C20.2999886,98.7099424 21.6533561,101.892673 24.6150237,104.818494 C26.1297348,106.67139 28.213762,108.457133 31.0160543,110.046034 C31.0151317,110.56848 31.0375832,111.12974 31.124929,111.757845 C31.124929,111.757845 23.0886563,112.829229 21.8137463,123.43248 C18.8204927,124.029165 16.5903459,125.773937 15.2604142,128.54327 C9.25142466,128.752126 6.79697761,132.37721 5.86434616,134.695564 C3.97312559,139.374783 5.56340306,144.368208 10.7840355,149.791973 C18.7664244,159.129463 37.8044204,169.751504 68.7066792,182.258786 C116.999666,201.806459 125.927389,198.473402 128.282649,192.644556 C129.215158,190.318501 129.411686,186.710051 125.712715,182.09891 C131.272089,174.634649 123.161849,166.93658 123.161849,166.93658 C128.802418,160.633651 124.671332,154.459486 124.671332,154.459486 C126.276772,155.152897 128.001543,155.566603 129.776447,155.769913 C131.766946,159.215099 135.099003,161.977348 139.878109,163.914957 C143.876023,165.52881 147.181938,165.291614 149.129994,164.880065 C149.802926,165.42161 150.669002,166.017063 151.766361,166.459108 C154.82008,167.695605 160.07036,167.151904 162.125754,162.052511 C163.056417,159.733849 162.887877,157.588617 162.430234,155.868488 C163.878206,154.654787 165.675868,152.608746 167.0571,149.198369 C169.434812,143.315923 164.832551,134.783666 162.195877,130.625045 C164.549599,128.793404 167.98684,125.597735 169.613502,121.536457 C171.169425,117.684034 169.912446,114.151363 167.319445,111.814526 Z M165.439665,131.156424 C168.789868,136.90641 171.729791,144.302286 169.373608,150.139757 C168.315002,152.758764 166.839966,154.850704 165.111811,156.605642 C165.460579,158.80355 165.264051,160.948474 164.44134,162.993283 C161.738234,169.69698 154.842531,170.412878 150.818474,168.786704 C150.019445,168.462331 149.261628,168.009504 148.506579,167.50092 C146.124254,167.83669 142.818955,167.812662 138.946523,166.242244 C134.337495,164.370865 130.879341,161.684088 128.52408,158.315297 C128.52408,158.315297 129.172715,163.101715 126.402255,166.804736 C126.402255,166.804736 133.042686,174.311816 128.67263,181.934722 C132.049897,186.90566 131.657764,190.968478 130.599158,193.578551 C127.1816,202.058133 115.182321,203.769636 67.7667894,184.579605 C18.0716564,164.468515 -2.33958428,148.320746 3.5396568,133.754176 C4.38303562,131.673633 7.0555088,127.019367 13.7800571,126.19596 C15.1865086,123.964167 17.1634141,122.372802 19.6205984,121.506268 C20.9910352,113.111708 27.2524356,110.482227 27.2524356,110.482227 C20.7657815,105.800236 18.504141,100.745818 17.7716668,98.023924 C13.5754404,96.9771838 11.0462881,94.4339563 9.95326642,93.0693126 C2.64317544,91.7354736 -1.82334922,83.5919703 0.718551253,77.2868854 C1.73576662,74.7695338 3.58289911,72.8088212 6.01849301,71.4839155 C6.01849301,71.4839155 7.47815164,56.4925503 25.2205083,56.7559296 C25.8810454,53.7453964 32.6596312,44.9931943 43.89279,49.5396447 C50.2173623,52.0967343 52.0445498,57.1656308 52.5652414,59.5243387 C56.7802901,62.5166973 58.8562901,67.125373 58.199659,72.0017407 C59.1051025,73.1920304 59.7998705,74.4300671 60.2864234,75.7075337 C61.2459967,75.5057636 62.2523184,75.407805 63.2903184,75.3794648 C64.3058668,73.7184809 66.2090206,71.9139476 69.3239432,71.1626235 C69.3239432,71.1626235 70.685184,63.7097593 79.9650576,63.6617042 C79.9650576,63.6617042 81.3816584,57.5586974 88.5836867,56.3619388 C88.5836867,56.3619388 89.7917649,51.7923849 95.3305327,50.4092585 C95.7614181,46.9840954 98.8987922,44.7963529 98.8987922,44.7963529 C99.2835442,42.3289047 100.690918,40.2911806 100.690918,40.2911806 C98.8969469,34.8366106 101.796581,31.0226935 101.796581,31.0226935 C100.195446,26.7143317 102.163187,23.4845314 102.163187,23.4845314 C99.9583211,18.8080239 101.773821,15.365949 101.773821,15.365949 C99.9331015,11.0092857 103.116609,5.35627251 103.116609,5.35627251 C103.116609,5.35627251 103.159667,1.30426047 106.98658,0.285544135 C111.479044,-0.923176805 113.471389,2.56051198 113.471389,2.56051198 C113.471389,2.56051198 114.487553,3.10296245 115.354552,5.16072493 C116.998744,9.03837679 122.403417,12.9369758 123.032984,16.1185053 C125.666889,19.2599581 124.542466,23.4219672 124.542466,23.4219672 C128.195303,27.4940577 127.29232,32.1683164 127.29232,32.1683164 C133.562763,38.4080956 131.030658,45.1478334 131.030658,45.1478334 C139.141821,53.2651527 134.991666,60.243318 134.991666,60.243318 C134.991666,60.243318 140.416023,67.0622236 136.133312,73.5385821 C136.133312,73.5385821 138.836418,78.6586141 135.895572,83.3720255 C135.895572,83.3720255 139.528418,90.089892 134.082532,95.6106919 C134.082532,95.6106919 138.383389,104.868397 130.013572,109.84334 C130.102763,110.436636 130.14336,111.012682 130.147666,111.596737 C131.248715,112.376402 132.304861,113.209358 133.257975,114.131956 C133.367158,113.999496 133.517552,113.859951 133.645495,113.71979 C133.541849,111.942365 133.733764,110.177878 134.424841,108.475308 C136.395657,103.562282 141.258418,101.213432 146.276494,102.491823 C148.59208,101.327717 152.031474,100.601345 156.525783,102.413579 C158.038648,103.027823 159.254108,104.001864 160.310869,105.16443 C166.324503,105.761731 175.668348,113.222296 171.945388,122.47076 C170.477425,126.095845 167.856437,129.022282 165.439665,131.156424 Z" id="path14" fill="#FFFFFF"></path>
                        <path d="M104.023898,109.356011 C100.693686,113.081211 105.253812,116.156434 105.253812,116.156434 C102.593765,113.026687 104.023898,109.356011 104.023898,109.356011 Z M100.387976,142.029215 C102.769686,148.731679 99.9349468,153.421063 99.9349468,153.421063 L101.298956,153.269504 C104.389581,146.815633 100.387976,142.029215 100.387976,142.029215 Z M101.990033,132.801698 C101.683708,133.581054 101.230678,134.210392 100.716138,134.727601 C91.1957559,130.549882 97.4677362,114.96522 82.7419766,109.007303 C71.5611022,104.478411 66.7712321,114.282898 61.3001265,113.198268 C67.4198668,115.604416 71.1960338,108.182972 81.359822,112.290457 C95.3305327,117.944025 90.7900902,131.944406 99.8672846,135.464139 C98.4608331,136.482231 96.9937931,136.754852 96.9937931,136.754852 C104.56458,137.587192 101.990033,132.801698 101.990033,132.801698 Z M83.4548904,104.6426 C92.1301097,104.59208 91.2406591,110.761933 97.5120242,118.277638 C93.0826092,112.516255 94.3764954,99.3799423 83.4548904,104.6426 Z M60.1351061,115.939261 C60.1351061,115.939261 58.1427612,110.924273 60.9676589,109.72197 C60.9676589,109.72197 55.852395,109.247887 60.1351061,115.939261 Z M54.0042938,125.687376 C52.4778956,129.477266 55.10442,136.062056 56.392155,141.974999 C55.6801639,141.983624 55.0502902,141.885665 54.5422084,141.679891 C51.7975827,140.566613 51.2119969,135.465987 51.2119969,135.465987 C51.2119969,135.465987 48.9748379,144.701822 56.1993177,147.625794 C63.4201069,150.549458 65.8313424,130.102907 74.2436017,133.504351 C76.4942932,134.415859 75.7453954,139.569776 75.7453954,139.569776 C75.7453954,139.569776 79.7805242,133.817941 73.2486595,131.167206 C67.3875734,128.79556 68.6310205,124.127123 62.557106,121.669533 C59.1915256,120.304581 56.1867079,120.283018 54.0042938,125.687376 Z M49.7308094,128.254015 C49.7308094,128.254015 47.2337659,119.221183 54.0233622,117.06671 C54.0233622,117.06671 45.4299526,115.528636 49.7308094,128.254015 Z M90.6812155,165.107095 C90.6812155,165.107095 92.0633701,167.792639 95.2865523,168.020285 L95.3505238,167.282207 C93.7312439,167.219366 90.6812155,165.107095 90.6812155,165.107095 Z M78.8593954,159.831191 L78.9919518,160.861605 C78.9919518,160.861605 80.7957651,160.751941 81.7808655,161.608925 C81.7808655,161.608925 81.5628086,159.94178 78.8593954,159.831191 Z M83.6388086,139.633849 C83.336789,138.680755 82.9375819,138.022461 82.3870575,137.803748 C78.8704674,136.375955 77.8675287,141.205192 77.8675287,141.205192 C77.8675287,141.205192 79.9407607,139.885215 80.7625491,140.219753 C83.4016832,141.290521 81.9635535,161.880005 86.9951623,163.915881 C93.7060243,166.633463 95.8684474,156.420814 95.8684474,156.420814 C95.8684474,156.420814 92.9294466,162.194212 90.2026591,161.089559 C88.7097844,160.491026 87.6517934,159.170433 86.8859801,157.450304 C88.6485809,156.984539 94.8775034,154.981316 97.0820616,149.532291 C98.7213326,145.482718 96.3876011,139.925261 92.472419,138.335128 C89.3387355,137.068135 85.1867356,138.856341 83.6388086,139.633849 Z M78.481102,155.997251 C76.3411305,152.369394 80.3535002,142.427826 73.6380248,145.286185 C77.9188905,145.668162 75.2373137,154.17978 78.481102,155.997251 Z M68.9770205,143.001716 C67.7009725,151.426465 59.6257941,151.558309 59.6257941,151.558309 C70.6322845,154.795564 68.9770205,143.001716 68.9770205,143.001716 Z M66.4033957,154.827909 C71.529424,157.222966 72.5043751,159.019182 77.3585243,159.278249 C73.2056017,157.775909 71.7557849,155.175385 66.4033957,154.827909 Z M77.0755732,121.387979 C76.924871,121.667068 76.7833954,121.94893 76.6548372,122.252972 C74.6652604,127.191873 79.7039429,133.408856 79.7039429,133.408856 C79.7039429,133.408856 75.6168372,126.823142 77.4883127,122.178116 C78.3746878,119.979284 81.3588993,118.905744 83.1439517,119.631192 C88.4492849,121.7755 84.3424957,128.254015 87.652716,129.596788 C87.1753898,126.941123 92.6022075,129.918696 88.9456796,133.287794 C91.783187,133.137468 91.9984759,128.469955 88.3204191,126.983942 C85.3245205,125.771473 88.9306093,120.844277 82.9683375,118.429197 C81.4437846,117.811873 79.3262647,118.493887 77.8333901,120.280861 C73.4002844,117.987459 71.7773138,122.372802 73.4531839,124.614452 C72.8279235,123.141068 73.8560817,119.025882 77.0755732,121.387979 Z M21.2829669,146.976433 C19.9431627,150.291932 42.6287367,162.399987 62.7173424,170.531168 C62.7173424,170.531168 43.6027651,161.098184 44.9200255,157.829817 C46.2391313,154.56915 64.0032322,160.764879 74.937447,165.19304 C89.4485329,171.063472 102.077686,178.079219 100.867455,181.070345 C99.8285326,183.658547 83.954053,178.685761 83.954053,178.685761 C97.9266091,184.340561 116.51865,189.994437 117.577256,187.371425 C118.637707,184.741945 96.1080332,172.426267 70.9475289,162.245348 C63.1076304,159.072474 22.6156666,143.66155 21.2829669,146.976433 Z M29.3076448,67.6934098 C18.2356451,62.1889364 11.7274929,75.0557085 14.7756451,77.8992808 C17.6283459,64.5966237 29.3076448,67.6934098 29.3076448,67.6934098 Z M40.769871,60.2177502 C33.7625254,59.0314652 32.4766356,64.8963524 32.4766356,64.8963524 C35.2120347,61.5186283 40.769871,60.2177502 40.769871,60.2177502 Z M43.9909002,66.7621868 C38.6695741,65.4172581 37.3071031,69.1415339 37.3071031,69.1415339 C39.8607368,66.9953776 43.9909002,66.7621868 43.9909002,66.7621868 Z M49.9577854,74.2785085 C44.9326353,71.4645086 42.6917856,75.1016073 42.6917856,75.1016073 C46.31479,73.3719292 49.9577854,74.2785085 49.9577854,74.2785085 Z M148.546254,129.228365 C156.159792,129.878034 164.982945,138.637629 161.044389,148.427638 C158.841368,153.864033 154.410108,152.132198 153.437925,154.52664 C157.004954,154.40527 158.840446,159.516368 158.256705,160.969421 C157.670812,162.429559 155.554522,163.861665 152.720706,162.713886 C149.887811,161.565798 149.003897,158.479794 149.003897,158.479794 C149.003897,158.479794 147.404608,160.968497 141.434032,158.553109 C128.351849,153.257798 131.269629,144.032438 131.269629,144.032438 C131.269629,144.032438 130.077543,146.934539 130.709878,150.552231 C118.034898,149.166024 113.318842,126.802195 113.318842,126.802195 C112.891032,128.957284 113.16937,132.788452 114.338081,136.871293 C112.306061,135.270378 109.751812,133.711974 106.635967,132.324843 C106.635967,132.324843 112.56041,136.449886 115.592292,140.448015 C116.086842,141.628755 116.651821,142.806107 117.302609,143.932323 C117.51513,145.418953 116.734861,146.664074 114.274109,147.335615 C111.894552,145.61333 109.971715,144.583224 109.971715,144.583224 C109.971715,144.583224 124.302573,158.293118 115.980735,164.238097 C114.056052,162.81092 112.584707,161.963794 112.584707,161.963794 C112.584707,161.963794 126.793158,173.716055 117.536658,178.371554 C115.594138,176.952386 114.098495,176.075996 114.098495,176.075996 C114.098495,176.075996 125.819129,184.717917 123.290715,190.977411 C121.561638,195.257094 107.629679,194.367149 69.9636587,179.129039 C25.7161034,161.218322 9.51896723,146.880015 12.374436,139.79619 C15.4244028,132.23705 35.598632,139.590723 35.598632,139.590723 C35.598632,139.590723 28.3444731,134.955247 21.4046667,133.321987 C22.8507621,126.487372 34.9401556,130.159896 34.9401556,130.159896 C34.9401556,130.159896 32.0306801,128.524171 28.6138302,127.776236 C28.637266,114.022599 45.5695829,118.733855 45.5695829,118.733855 C45.5695829,118.733855 41.611343,116.393013 37.2108382,115.820048 C37.3098711,112.648098 38.2180826,110.904558 39.0180346,109.98196 C44.3270584,110.081151 47.9574441,105.271322 47.9574441,105.271322 C37.0502942,113.243243 24.1402195,98.2971608 25.1223674,92.5373172 C25.5989554,92.3327747 25.9891512,92.0826414 26.2702877,91.8010874 C17.8445882,94.5584068 13.3583677,87.7398093 13.2520457,85.506476 C13.2412198,86.0809818 13.2844928,86.6148254 13.3682094,87.1129358 C9.6162778,88.4775794 6.38611415,83.8809174 7.65920959,80.7329957 C8.95672493,77.5268532 13.2601037,77.8992808 13.2601037,77.8992808 C11.4337466,72.0621177 17.5554245,62.0583249 30.7466664,64.7916168 C30.7764686,66.1987708 31.0160543,67.6934098 31.5026072,69.229327 C30.0096096,62.5607479 33.8714,52.8548355 42.5195545,56.3456124 C46.4328913,57.9274284 46.5436113,61.4939847 46.5193144,62.3417272 C43.5028096,61.409272 40.2614817,61.9086145 38.7480008,64.3800674 C45.3001642,59.0896859 54.3269195,66.0225685 51.6364236,72.7191798 C48.789997,70.5742557 45.0713429,69.7024856 42.2187652,72.0223798 C48.4673712,69.1643293 56.9992697,76.506913 54.8998955,81.7196669 C54.0448911,83.8494968 51.6453427,84.1553864 50.9850209,83.8947795 C48.8468948,83.0282462 45.0922567,84.782876 45.0922567,84.782876 C45.0922567,84.782876 47.408765,84.4055197 49.2242654,84.3694784 C49.3199152,84.6870737 49.601021,85.8006599 49.2027365,86.7740852 C48.7386352,87.9234047 43.5701642,90.5014414 40.2156559,89.1478874 C34.6498231,86.8951473 36.5609733,80.4477451 36.5609733,80.4477451 C35.7834729,81.3016485 35.2852329,83.696706 36.0113715,85.9306553 C31.0258961,89.560361 24.937588,88.3860897 24.937588,88.3860897 C24.937588,88.3860897 27.911035,90.0104161 32.4089734,88.8620208 C33.2120009,89.6764943 34.7254818,91.9816023 30.4844138,95.1800436 C30.4844138,95.1800436 36.4213431,92.8616896 33.3297947,88.5918645 C34.3444205,88.2560943 35.4150213,87.791561 36.5394444,87.1298783 C37.1693182,88.2453127 38.1854817,89.2344483 39.729103,89.8582414 C44.2723136,91.6920391 49.3765054,89.7772253 50.1524681,86.7013863 C52.339188,87.2851335 60.9971843,90.1656713 57.9293177,98.7530688 C59.9078225,96.837947 60.251362,94.8960252 59.6790012,93.1198322 C61.4299149,77.6713268 92.2768137,95.611308 92.2768137,95.611308 C88.2807445,91.7973908 79.8875536,85.9938047 72.1783662,83.375414 C70.7285493,74.2544809 98.2689184,88.1153173 98.2689184,88.1153173 C94.0105043,84.4018232 85.9300974,80.0177129 79.2515287,78.2818739 C75.9969759,67.8828581 102.813667,77.4661682 102.813667,77.4661682 C102.813667,77.4661682 96.0821985,73.8176717 89.2962929,71.7479108 C86.4058858,57.5121825 114.880609,74.5794694 114.880609,74.5794694 C111.133044,71.0243109 104.236419,66.2881041 98.09761,64.1166881 C93.8788705,55.1922883 114.099418,61.8254421 114.099418,61.8254421 C114.099418,61.8254421 109.948033,59.3949594 105.470024,57.9040169 C102.271446,49.4783436 110.075976,50.7092953 121.470601,56.4056813 C117.862052,53.5245274 112.199032,50.5595849 107.871418,49.9333275 C104.60487,42.8482702 116.648438,45.0159897 116.648438,45.0159897 C101.234061,37.9555761 111.116744,34.8162796 116.739474,35.24816 C101.621581,28.3621312 113.213658,25.0240527 117.648609,26.8219014 C123.352226,29.1182917 122.143841,33.4497877 117.493601,33.7501325 C127.549129,39.4933415 125.948918,46.1609965 120.976052,45.7747069 C120.976052,45.7747069 134.729629,55.6081503 126.233714,59.2227617 C126.233714,59.2227617 134.965524,69.0984075 128.157474,71.3970465 C126.79039,70.0524258 124.999186,68.7121178 122.789707,67.453442 C122.789707,67.453442 134.946763,79.1302325 127.612178,81.5105037 C125.907398,80.3048118 123.768349,79.5177543 121.405707,79.481713 C126.185736,81.9001819 133.669792,90.1080667 126.44808,93.1866781 C124.325332,90.7161495 121.389714,88.6580943 118.290785,87.8368438 C132.436494,98.5876481 125.260608,104.720843 122.380658,105.435818 C120.649736,103.183078 117.924178,100.710393 113.839841,98.023924 C113.839841,98.023924 130.40632,111.998121 116.715793,121.700645 C116.715793,121.700645 121.819369,119.58899 123.98456,115.559441 C127.401503,117.172061 137.086734,123.066521 131.09463,136.202525 C133.692551,135.40099 135.09439,133.049367 135.227869,130.092742 C136.565735,129.638066 139.096917,129.433831 141.604418,132.821105 C140.419714,136.050967 140.502446,140.478511 145.195129,145.451606 C136.872061,134.717128 147.549467,126.715018 147.549467,126.715018 C138.44736,125.716641 137.023685,119.089956 141.020677,117.930163 C142.494791,120.532227 145.285243,121.948622 145.285243,121.948622 C145.285243,121.948622 139.658206,116.82551 141.693609,111.760002 C144.115609,105.747869 149.195811,115.754434 151.119571,116.525165 C151.119571,116.525165 150.602263,113.080903 148.981445,110.880839 C149.800466,109.884618 151.51232,108.25259 153.610771,109.106494 C157.412465,110.641795 158.601783,118.11499 158.601783,118.11499 C158.601783,118.11499 159.513685,115.550507 159.120629,113.03562 C164.118714,111.713795 167.083242,117.488733 165.716465,120.910199 C162.886031,127.906231 148.546254,129.228365 148.546254,129.228365 Z" id="path16" fill="#FFFFFF"></path>
                        <path d="M93.903475,140.943969 C92.8221097,142.363753 89.9658413,146.921293 93.4673612,151.527196 C90.9389471,154.622134 87.5429187,155.781003 86.3671338,156.105991 C84.8487321,151.557385 84.7549277,145.158038 84.0278663,141.227987 C85.5336583,140.436309 89.5946218,138.529197 91.9947853,139.495229 C92.7562928,139.809128 93.4006217,140.317711 93.903475,140.943969" id="path18" fill="#FFFFFF"></path>
                        <path d="M111.895475,24.0935382 C107.158504,22.1838689 109.409503,16.9006649 113.495686,18.8265375 C111.853032,15.7294741 106.878321,17.4655904 110.313101,9.75122596 C113.471389,16.0375201 119.637878,18.2449775 116.197869,18.8915352 C120.434447,20.6039319 117.733186,26.4544026 111.895475,24.0935382" id="path20" fill="#FFFFFF"></path>
                        <path d="M158.754023,111.68145 C158.281002,110.493317 157.395242,109.43179 155.837473,108.803069 C151.421283,107.013321 149.004819,109.105878 148.222706,110.025087 C147.896389,109.723202 147.52886,109.482926 147.120734,109.312577 C144.00858,108.056981 141.673925,109.410227 140.674677,111.91957 C139.809524,114.063878 140.047572,115.895211 140.740494,117.388618 C137.840861,118.40671 134.316889,123.813533 145.499609,127.268268 C145.499609,127.268268 143.33534,128.988089 141.996551,131.857845 C141.235966,130.872714 139.05632,128.643693 135.186349,128.587321 C134.770226,123.726972 131.289312,117.789386 124.563072,114.25117 C125.277524,112.117643 125.107446,109.54854 123.162772,106.548788 C131.442475,105.705666 131.077714,99.2511791 127.162532,94.0747747 C133.044532,92.0025494 132.651783,86.3862553 129.082601,82.7593221 C132.526608,81.1873635 132.999629,77.0287429 129.367398,72.6966924 C129.367398,72.6966924 135.918946,67.9262926 128.33032,60.1127065 C128.33032,60.1127065 135.916178,55.0838561 124.436975,46.5562195 C124.436975,46.5562195 130.272841,39.7967668 121.020033,33.9697693 C121.020033,33.9697693 124.740532,29.4180204 118.141313,24.8516086 C118.141313,24.8516086 121.149821,20.7338965 118.057657,18.565068 C118.443332,16.2956318 112.717878,12.6536043 110.268813,6.83273684 L109.727515,6.87376856 C109.839158,10.2314696 105.966419,12.2854893 109.209284,17.3593453 C109.209284,17.3593453 105.235667,20.2543921 110.230061,25.280347 C110.230061,25.280347 105.235667,27.9453142 109.688763,33.3006934 C109.688763,33.3006934 104.111244,36.6559301 108.305686,42.5269782 C108.305686,42.5269782 104.388659,45.5978885 105.711455,49.8424539 C102.704792,50.0596263 100.928659,52.0505274 102.099215,57.0340951 C97.7725238,56.2541227 94.0320332,57.2109135 94.5044385,63.1401823 C89.4872849,62.2551663 85.6849756,63.9660536 85.8227605,70.8539614 C79.746078,69.6002144 74.6237404,70.4846143 75.737399,77.6103337 C71.4872889,77.1424119 68.4471023,78.3336256 68.4913903,82.3754968 C62.7382562,81.2437359 57.9185532,82.5862002 56.4911879,88.883584 C54.262948,87.0427013 51.5472325,85.8440944 50.2496556,85.7797128 C50.2388912,85.3247289 50.1207899,84.8549588 49.905501,84.3713266 C50.3603756,84.3898094 50.7478956,84.4369404 50.9985534,84.5426002 C52.2724485,85.0613496 54.6286315,84.1516899 55.6035826,81.7076531 C56.6615737,79.1062049 55.0638226,75.7334096 52.4689765,73.4085867 C54.4459435,68.2968719 51.3534725,64.3313961 47.5142566,62.7070697 C47.6034477,61.8858191 47.8196592,57.7931204 43.2133998,55.9294423 C36.1728382,53.0738561 31.1123192,57.3587756 30.7663192,63.8126467 C17.0238147,61.1739249 11.1111515,71.0692856 12.7086566,76.6153452 C11.9842095,76.6966693 8.3746453,77.2452992 6.96902418,80.7305313 C5.44361018,84.5139519 9.11084102,89.3644437 13.4899092,87.7505909 C14.7441515,92.8690827 20.7098987,93.7932206 24.1915198,92.8598414 C23.1220568,96.5570091 23.8915301,104.460853 35.6447653,109.257436 C35.1671316,109.972103 34.5498676,111.770475 35.944632,115.710999 C31.2088917,115.504917 26.3459771,117.747799 25.6089202,127.408121 C22.5165415,127.3767 19.5764027,128.609192 18.4410922,132.831886 C14.6441036,132.487799 11.2931629,133.473546 9.79023122,137.198746 C5.75620963,147.205311 24.6888986,161.400686 69.7582116,179.638855 C105.923976,194.271655 123.354687,197.304367 125.666889,191.584262 C126.962621,188.388593 124.741455,184.92554 121.926706,182.088129 C127.724743,176.911724 123.678235,170.985228 119.243284,166.904543 C126.661524,160.871155 122.423101,154.362143 117.51513,149.934907 C118.749657,149.479615 119.593897,148.69841 120.02263,147.682166 C122.833995,150.821771 126.597552,153.030152 131.486763,153.127495 C132.739129,156.03206 135.44408,159.07309 140.937637,161.295026 C146.085502,163.383578 149.868743,161.747237 149.868743,161.747237 C149.868743,161.747237 151.015002,163.113729 152.809897,163.839178 C154.604791,164.564934 158.12784,164.414299 159.509994,160.991601 C160.89584,157.556888 158.99084,154.786939 158.99084,154.786939 C158.99084,154.786939 162.279839,153.495918 164.44134,148.137458 C166.994051,141.812659 158.343128,129.918696 158.343128,129.918696 C158.343128,129.918696 164.768579,126.020066 167.012812,120.476163 C168.640088,116.415809 165.654031,111.670668 158.754023,111.68145 Z M160.094657,130.254466 C162.194954,133.406392 167.943782,142.816888 165.607283,148.611849 C164.052897,152.44733 161.934762,154.375389 160.634417,155.273959 C161.1751,156.584695 161.718551,158.847601 160.66056,161.465683 C159.014522,165.56023 154.799473,166.003508 152.335031,164.999279 C151.05806,164.487306 150.123706,163.719348 149.540889,163.177495 C148.047707,163.590892 144.656291,164.153384 140.479072,162.462828 C135.702734,160.526451 132.477707,157.765127 130.729869,154.299302 C126.726418,154.058718 123.205215,152.42361 120.215467,149.542148 C120.000178,149.780576 119.763976,149.988815 119.504706,150.192741 C119.504706,150.192741 129.712475,159.074631 120.994813,166.915941 C120.994813,166.915941 130.467524,174.722134 123.592735,182.12109 C126.859897,185.746791 128.024918,189.092478 126.833755,192.05126 C125.039784,196.491742 117.124842,200.16057 69.2913423,180.799572 C23.9131512,162.440957 4.07126656,148.025946 8.6323461,136.731132 C9.63885238,134.220866 12.0410457,131.405325 17.5526565,131.556576 C19.0691513,126.445477 24.5060568,126.280673 24.5060568,126.280673 C25.5214515,114.283514 34.2930587,114.497914 34.2930587,114.497914 C33.76068,112.407514 33.7831316,110.912567 34.06516,109.864903 C24.4195414,105.478944 22.2470921,98.7875699 22.6481137,94.3689586 C14.4954928,94.9271379 12.6573563,89.1562047 12.6573563,89.1562047 C7.70343607,90.0443012 4.06044061,84.5878829 5.8102779,80.2564486 C7.05649298,77.1587383 9.74880349,76.010651 11.3796783,75.5960211 C10.5056669,67.6934098 18.7646098,60.718941 29.6951033,62.4067249 C30.1059667,57.3606239 35.2661645,51.3605045 43.6864202,54.7625641 C48.1548948,56.5791112 48.7693908,60.1777042 48.7820006,61.951741 C52.5120342,63.8794927 55.3864484,67.9299891 53.8637409,73.0253775 C56.2749764,75.4691062 58.0237372,79.0707796 56.7695257,82.1835842 C56.0676839,83.9169588 54.7827169,85.0000484 53.4510013,85.5317358 C54.2404964,85.9060116 55.0198422,86.3502139 55.8071844,86.8748162 C55.8071844,86.8748162 57.6678954,79.6332716 67.4767645,80.9689589 C67.4767645,80.9689589 67.3334436,76.1015245 74.4182933,76.2965176 C74.4182933,76.2965176 73.0548995,67.5369224 84.6568174,69.4243201 C84.6568174,69.4243201 84.3963179,61.0174376 93.2726786,61.7558237 C93.2726786,61.7558237 92.7147728,54.9165871 100.582659,55.6075342 C99.7845522,49.588008 104.235496,48.8268264 104.235496,48.8268264 C103.720956,45.1265782 106.724236,42.3264403 106.724236,42.3264403 C103.372495,36.6559301 107.981215,33.0604176 107.981215,33.0604176 C104.583341,28.1005386 108.432707,25.1061162 108.432707,25.1061162 C104.500609,20.364611 107.653976,17.1625039 107.653976,17.1625039 C104.929341,12.1132917 108.669524,9.16473724 108.474227,6.91744948 C108.432707,6.37593547 108.758716,5.70414882 109.728438,5.61715664 C110.683398,5.53062653 111.13489,5.72377135 111.416918,6.35187708 C114.333467,12.6119565 119.050447,15.081253 119.246052,18.0071044 C122.146609,20.7139351 119.767666,24.5662964 119.767666,24.5662964 C125.367638,28.8765372 122.663609,33.6247578 122.663609,33.6247578 C130.769543,39.2345829 126.124532,46.2956126 126.124532,46.2956126 C136.438715,54.2669182 130.077543,60.2396215 130.077543,60.2396215 C136.586649,67.755327 131.01282,72.8670419 131.01282,72.8670419 C131.01282,72.8670419 135.830677,79.2362003 130.879341,83.0156163 C130.879341,83.0156163 136.694601,90.1832299 128.979878,94.6289494 C128.979878,94.6289494 135.851284,104.557887 125.044089,107.428259 C126.078706,109.548848 126.379496,111.628158 125.94984,113.642471 C132.502004,117.412029 135.551417,123.141068 136.283707,127.449399 C138.79336,127.734034 140.591637,128.795252 141.736974,129.800406 C142.234292,129.012116 142.733454,128.318397 143.206475,127.787942 C133.454503,123.844953 136.413495,118.397776 139.204869,116.77191 C138.689714,115.051165 138.774292,113.265731 139.508734,111.445487 C140.870898,108.074232 144.115609,106.745938 147.594677,108.1534 C147.594677,108.1534 147.854869,108.324673 148.053243,108.454669 C149.393877,107.343547 152.114206,105.942246 156.312032,107.641427 C157.741242,108.219013 158.733416,109.226016 159.444177,110.481611 C164.311551,110.317423 170.78006,114.456944 168.164607,120.943468 C166.347877,125.438167 162.108531,128.827905 160.094657,130.254466 Z" id="path22" fill="#FFFFFF"></path>
                        <path d="M61.7768376,122.52436 C64.7718135,123.736829 66.3926312,127.427836 66.3926312,127.427836 C62.9544678,131.252535 65.6926348,136.124282 65.6926348,136.124282 C64.3932126,139.351987 60.8910776,141.291753 57.9400821,141.823748 C56.8805532,136.461592 53.4617658,130.820346 55.2668093,126.347827 C56.1648715,124.114801 58.7824768,121.311891 61.7768376,122.52436" id="path24" fill="#FFFFFF"></path>
                        <path d="M159.444177,110.481611 C158.733416,109.226016 157.741242,108.219013 156.312032,107.641427 C152.114206,105.942246 149.393877,107.343547 148.053243,108.454669 C147.854869,108.324673 147.594677,108.1534 147.594677,108.1534 C144.115609,106.745938 140.870898,108.074232 139.508734,111.445487 C138.774292,113.265731 138.689714,115.051165 139.204869,116.77191 C136.413495,118.397776 133.454503,123.844953 143.206475,127.787942 C142.733454,128.318397 142.234292,129.012116 141.736974,129.800406 C140.591637,128.795252 138.79336,127.734034 136.283707,127.449399 C135.551417,123.141068 132.502004,117.412029 125.94984,113.642471 C126.379496,111.628158 126.078706,109.548848 125.044089,107.428259 C135.851284,104.557887 128.979878,94.6289494 128.979878,94.6289494 C136.694601,90.1832299 130.879341,83.0156163 130.879341,83.0156163 C135.830677,79.2362003 131.01282,72.8670419 131.01282,72.8670419 C131.01282,72.8670419 136.586649,67.755327 130.077543,60.2396215 C130.077543,60.2396215 136.438715,54.2669182 126.124532,46.2956126 C126.124532,46.2956126 130.769543,39.2345829 122.663609,33.6247578 C122.663609,33.6247578 125.367638,28.8765372 119.767666,24.5662964 C119.767666,24.5662964 122.146609,20.7139351 119.246052,18.0071044 C119.050447,15.081253 114.333467,12.6119565 111.416918,6.35187708 C111.13489,5.72377135 110.683398,5.53062653 109.728438,5.61715664 C108.758716,5.70414882 108.432707,6.37593547 108.474227,6.91744948 C108.669524,9.16473724 104.929341,12.1132917 107.653976,17.1625039 C107.653976,17.1625039 104.500609,20.364611 108.432707,25.1061162 C108.432707,25.1061162 104.583341,28.1005386 107.981215,33.0604176 C107.981215,33.0604176 103.372495,36.6559301 106.724236,42.3264403 C106.724236,42.3264403 103.720956,45.1265782 104.235496,48.8268264 C104.235496,48.8268264 99.7845522,49.588008 100.582659,55.6075342 C92.7147728,54.9165871 93.2726786,61.7558237 93.2726786,61.7558237 C84.3963179,61.0174376 84.6568174,69.4243201 84.6568174,69.4243201 C73.0548995,67.5369224 74.4182933,76.2965176 74.4182933,76.2965176 C67.3334436,76.1015245 67.4767645,80.9689589 67.4767645,80.9689589 C57.6678954,79.6332716 55.8071844,86.8748162 55.8071844,86.8748162 C55.0198422,86.3502139 54.2404964,85.9060116 53.4510013,85.5317358 C54.7827169,85.0000484 56.0676839,83.9169588 56.7695257,82.1835842 C58.0237372,79.0707796 56.2749764,75.4691062 53.8637409,73.0253775 C55.3864484,67.9299891 52.5120342,63.8794927 48.7820006,61.951741 C48.7693908,60.1777042 48.1548948,56.5791112 43.6864202,54.7625641 C35.2661645,51.3605045 30.1059667,57.3606239 29.6951033,62.4067249 C18.7646098,60.718941 10.5056669,67.6934098 11.3796783,75.5960211 C9.74880349,76.010651 7.05649298,77.1587383 5.8102779,80.2564486 C4.06044061,84.5878829 7.70343607,90.0443012 12.6573563,89.1562047 C12.6573563,89.1562047 14.4954928,94.9271379 22.6481137,94.3689586 C22.2470921,98.7875699 24.4195414,105.478944 34.06516,109.864903 C33.7831316,110.912567 33.76068,112.407514 34.2930587,114.497914 C34.2930587,114.497914 25.5214515,114.283514 24.5060568,126.280673 C24.5060568,126.280673 19.0691513,126.445477 17.5526565,131.556576 C12.0410457,131.405325 9.63885238,134.220866 8.6323461,136.731132 C4.07126656,148.025946 23.9131512,162.440957 69.2913423,180.799572 C117.124842,200.16057 125.039784,196.491742 126.833755,192.05126 C128.024918,189.092478 126.859897,185.746791 123.592735,182.12109 C130.467524,174.722134 120.994813,166.915941 120.994813,166.915941 C129.712475,159.074631 119.504706,150.192741 119.504706,150.192741 C119.763976,149.988815 120.000178,149.780576 120.215467,149.542148 C123.205215,152.42361 126.726418,154.058718 130.729869,154.299302 C132.477707,157.765127 135.702734,160.526451 140.479072,162.462828 C144.656291,164.153384 148.047707,163.590892 149.540889,163.177495 C150.123706,163.719348 151.05806,164.487306 152.335031,164.999279 C154.799473,166.003508 159.014522,165.56023 160.66056,161.465683 C161.718551,158.847601 161.1751,156.584695 160.634417,155.273959 C161.934762,154.375389 164.052897,152.44733 165.607283,148.611849 C167.943782,142.816888 162.194954,133.406392 160.094657,130.254466 C162.108531,128.827905 166.347877,125.438167 168.164607,120.943468 C170.78006,114.456944 164.311551,110.317423 159.444177,110.481611 Z M162.195877,130.625045 C164.832551,134.783666 169.434812,143.315923 167.0571,149.198369 C165.675868,152.608746 163.878206,154.654787 162.430234,155.868488 C162.887877,157.588617 163.056417,159.733849 162.125754,162.052511 C160.07036,167.151904 154.82008,167.695605 151.766361,166.459108 C150.669002,166.017063 149.802926,165.42161 149.129994,164.880065 C147.181938,165.291614 143.876023,165.52881 139.878109,163.914957 C135.099003,161.977348 131.766946,159.215099 129.776447,155.769913 C128.001543,155.566603 126.276772,155.152897 124.671332,154.459486 C124.671332,154.459486 128.802418,160.633651 123.161849,166.93658 C123.161849,166.93658 131.272089,174.634649 125.712715,182.09891 C129.411686,186.710051 129.215158,190.318501 128.282649,192.644556 C125.927389,198.473402 116.999666,201.806459 68.7066792,182.258786 C37.8044204,169.751504 18.7664244,159.129463 10.7840355,149.791973 C5.56340306,144.368208 3.97312559,139.374783 5.86434616,134.695564 C6.79697761,132.37721 9.25142466,128.752126 15.2604142,128.54327 C16.5903459,125.773937 18.8204927,124.029165 21.8137463,123.43248 C23.0886563,112.829229 31.124929,111.757845 31.124929,111.757845 C31.0375832,111.12974 31.0151317,110.56848 31.0160543,110.046034 C28.213762,108.457133 26.1297348,106.67139 24.6150237,104.818494 C21.6533561,101.892673 20.2999886,98.7099424 19.898967,95.873147 C15.4442094,95.3063424 13.2168306,93.0138643 12.3005304,91.7431747 C11.9545304,91.4323563 11.6625986,91.1363242 11.4247352,90.8553862 C8.77566698,90.7253908 6.76274668,89.4168116 5.47784111,87.6064254 C2.7737666,85.2809864 1.83403985,81.2150876 3.04323754,78.2242693 C4.12628825,75.5341039 6.22212553,73.9513637 8.36203552,73.1017729 C8.36203552,73.1017729 8.68641436,58.1868031 27.1433456,59.2252261 C27.4352774,56.0828492 32.7768098,47.7437367 42.9538229,51.8610792 C44.9741553,52.6823297 46.392294,53.876932 47.3537126,55.2391113 C49.180285,56.9040997 50.057741,59.0080537 50.2828716,60.9752353 C54.0368946,63.2322881 56.7722937,67.453442 55.5722119,72.693612 C57.266843,74.6188993 58.2842368,76.7404119 58.5545781,78.8178739 C60.359314,78.0086371 62.4786793,77.6550004 64.8923753,77.8019383 C64.8923753,77.8019383 66.0386348,73.7563706 71.5078951,73.3472855 C71.5078951,73.3472855 71.5611022,65.181603 81.94387,66.2150972 C81.94387,66.2150972 82.5150006,58.8327755 90.5514271,58.6849135 C90.5514271,58.6849135 91.0668902,52.878863 97.6218216,52.6154837 C97.5787638,47.765608 101.295573,46.2925322 101.295573,46.2925322 C101.25313,43.302946 103.521045,40.6408128 103.521045,40.6408128 C100.94865,34.9900175 104.692524,31.3723257 104.692524,31.3723257 C102.246227,26.7358642 105.081581,23.5475884 105.081581,23.5475884 C102.031553,18.8933218 104.518447,15.5559518 104.518447,15.5559518 C102.422764,10.6177285 105.165544,8.08716164 105.597967,5.61450745 C105.641332,4.27509277 106.250292,2.82138687 108.066716,2.62825745 C109.882523,2.43380343 110.986955,2.9929808 111.526715,4.25165047 C111.545784,4.27509277 111.55009,4.31301323 111.568235,4.33636311 C112.151976,4.59998885 112.565638,5.05472631 112.843976,5.70220813 C115.419446,11.4226218 120.391389,14.3028516 120.718321,17.27032 C123.506004,20.1311737 121.709572,24.1363566 121.709572,24.1363566 C126.25063,28.1396296 124.563995,33.0816727 124.563995,33.0816727 C131.682061,38.9043576 128.108573,45.8809828 128.108573,45.8809828 C137.321707,53.7453964 132.090494,60.2390054 132.090494,60.2390054 C132.090494,60.2390054 138.489495,67.4306466 133.194004,73.2598005 C133.194004,73.2598005 136.743502,78.7667383 132.953495,83.2022922 C132.953495,83.2022922 137.607426,89.7541219 131.115543,95.1051884 C131.115543,95.1051884 136.546052,104.515069 127.163455,108.500567 C127.680763,110.123662 127.79056,111.584724 127.678918,112.842783 C130.121524,114.401496 132.219975,116.348963 133.886004,118.515142 C133.971812,117.781684 134.361792,116.187547 136.154841,114.673193 C135.872813,112.951216 136.028743,111.173482 136.741657,109.409919 C138.402149,105.314756 142.428974,103.612802 146.620649,105.177059 C148.419849,104.016958 151.400677,103.041685 155.578819,104.742715 C157.087994,105.348949 158.281002,106.320218 159.163072,107.559487 C162.473599,107.733533 165.524551,109.374802 167.319445,111.814526 C169.912446,114.151363 171.169425,117.684034 169.613502,121.536457 C167.98684,125.597735 164.549599,128.793404 162.195877,130.625045 Z" id="path26" fill="#231F20"></path>
                        <path d="M117.577256,187.371425 C116.51865,189.994437 97.9266091,184.340561 83.954053,178.685761 C83.954053,178.685761 99.8285326,183.658547 100.867455,181.070345 C102.077686,178.079219 89.4485329,171.063472 74.937447,165.19304 C64.0032322,160.764879 46.2391313,154.56915 44.9200255,157.829817 C43.6027651,161.098184 62.7173424,170.531168 62.7173424,170.531168 C42.6287367,162.399987 19.9431627,150.291932 21.2829669,146.976433 C22.6156666,143.66155 63.1076304,159.072474 70.9475289,162.245348 C96.1080332,172.426267 118.637707,184.741945 117.577256,187.371425" id="path28" fill="#113D2A"></path>
                        <path d="M49.9577854,74.2785085 C49.9577854,74.2785085 46.31479,73.3719292 42.6917856,75.1016073 C42.6917856,75.1016073 44.9326353,71.4645086 49.9577854,74.2785085" id="path30" fill="#113D2A"></path>
                        <path d="M43.9909002,66.7621868 C43.9909002,66.7621868 39.8607368,66.9953776 37.3071031,69.1415339 C37.3071031,69.1415339 38.6695741,65.4172581 43.9909002,66.7621868" id="path32" fill="#113D2A"></path>
                        <path d="M40.769871,60.2177502 C40.769871,60.2177502 35.2120347,61.5186283 32.4766356,64.8963524 C32.4766356,64.8963524 33.7625254,59.0314652 40.769871,60.2177502" id="path34" fill="#113D2A"></path>
                        <path d="M14.7756451,77.8992808 C11.7274929,75.0557085 18.2356451,62.1889364 29.3076448,67.6934098 C29.3076448,67.6934098 17.6283459,64.5966237 14.7756451,77.8992808" id="path36" fill="#113D2A"></path>
                        <path d="M55.2668093,126.347827 C53.4617658,130.820346 56.8805532,136.461592 57.9400821,141.823748 C60.8910776,141.291753 64.3932126,139.351987 65.6926348,136.124282 C65.6926348,136.124282 62.9544678,131.252535 66.3926312,127.427836 C66.3926312,127.427836 64.7718135,123.736829 61.7768376,122.52436 C58.7824768,121.311891 56.1648715,124.114801 55.2668093,126.347827 Z M62.557106,121.669533 C68.6310205,124.127123 67.3875734,128.79556 73.2486595,131.167206 C79.7805242,133.817941 75.7453954,139.569776 75.7453954,139.569776 C75.7453954,139.569776 76.4942932,134.415859 74.2436017,133.504351 C65.8313424,130.102907 63.4201069,150.549458 56.1993177,147.625794 C48.9748379,144.701822 51.2119969,135.465987 51.2119969,135.465987 C51.2119969,135.465987 51.7975827,140.566613 54.5422084,141.679891 C55.0502902,141.885665 55.6801639,141.983624 56.392155,141.974999 C55.10442,136.062056 52.4778956,129.477266 54.0042938,125.687376 C56.1867079,120.283018 59.1915256,120.304581 62.557106,121.669533 Z" id="path38" fill="#113D2A"></path>
                        <path d="M59.6257941,151.558309 C59.6257941,151.558309 67.7009725,151.426465 68.9770205,143.001716 C68.9770205,143.001716 70.6322845,154.795564 59.6257941,151.558309" id="path40" fill="#113D2A"></path>
                        <path d="M66.4033957,154.827909 C71.7557849,155.175385 73.2056017,157.775909 77.3585243,159.278249 C72.5043751,159.019182 71.529424,157.222966 66.4033957,154.827909" id="path42" fill="#113D2A"></path>
                        <path d="M81.7808655,161.608925 C80.7957651,160.751941 78.9919518,160.861605 78.9919518,160.861605 L78.8593954,159.831191 C81.5628086,159.94178 81.7808655,161.608925 81.7808655,161.608925" id="path44" fill="#113D2A"></path>
                        <path d="M95.2865523,168.020285 C92.0633701,167.792639 90.6812155,165.107095 90.6812155,165.107095 C90.6812155,165.107095 93.7312439,167.219366 95.3505238,167.282207 L95.2865523,168.020285" id="path46" fill="#113D2A"></path>
                        <path d="M84.0278663,141.227987 C84.7549277,145.158038 84.8487321,151.557385 86.3671338,156.105991 C87.5429187,155.781003 90.9389471,154.622134 93.4673612,151.527196 C89.9658413,146.921293 92.8221097,142.363753 93.903475,140.943969 C93.4006217,140.317711 92.7562928,139.809128 91.9947853,139.495229 C89.5946218,138.529197 85.5336583,140.436309 84.0278663,141.227987 Z M97.0820616,149.532291 C94.8775034,154.981316 88.6485809,156.984539 86.8859801,157.450304 C87.6517934,159.170433 88.7097844,160.491026 90.2026591,161.089559 C92.9294466,162.194212 95.8684474,156.420814 95.8684474,156.420814 C95.8684474,156.420814 93.7060243,166.633463 86.9951623,163.915881 C81.9635535,161.880005 83.4016832,141.290521 80.7625491,140.219753 C79.9407607,139.885215 77.8675287,141.205192 77.8675287,141.205192 C77.8675287,141.205192 78.8704674,136.375955 82.3870575,137.803748 C82.9375819,138.022461 83.336789,138.680755 83.6388086,139.633849 C85.1867356,138.856341 89.3387355,137.068135 92.472419,138.335128 C96.3876011,139.925261 98.7213326,145.482718 97.0820616,149.532291 Z" id="path48" fill="#113D2A"></path>
                        <path d="M78.481102,155.997251 C75.2373137,154.17978 77.9188905,145.668162 73.6380248,145.286185 C80.3535002,142.427826 76.3411305,152.369394 78.481102,155.997251" id="path50" fill="#113D2A"></path>
                        <path d="M77.8333901,120.280861 C79.3262647,118.493887 81.4437846,117.811873 82.9683375,118.429197 C88.9306093,120.844277 85.3245205,125.771473 88.3204191,126.983942 C91.9984759,128.469955 91.783187,133.137468 88.9456796,133.287794 C92.6022075,129.918696 87.1753898,126.941123 87.652716,129.596788 C84.3424957,128.254015 88.4492849,121.7755 83.1439517,119.631192 C81.3588993,118.905744 78.3746878,119.979284 77.4883127,122.178116 C75.6168372,126.823142 79.7039429,133.408856 79.7039429,133.408856 C79.7039429,133.408856 74.6652604,127.191873 76.6548372,122.252972 C76.7833954,121.94893 76.924871,121.667068 77.0755732,121.387979 C73.8560817,119.025882 72.8279235,123.141068 73.4531839,124.614452 C71.7773138,122.372802 73.4002844,117.987459 77.8333901,120.280861" id="path52" fill="#113D2A"></path>
                        <path d="M96.9937931,136.754852 C96.9937931,136.754852 98.4608331,136.482231 99.8672846,135.464139 C90.7900902,131.944406 95.3305327,117.944025 81.359822,112.290457 C71.1960338,108.182972 67.4198668,115.604416 61.3001265,113.198268 C66.7712321,114.282898 71.5611022,104.478411 82.7419766,109.007303 C97.4677362,114.96522 91.1957559,130.549882 100.716138,134.727601 C101.230678,134.210392 101.683708,133.581054 101.990033,132.801698 C101.990033,132.801698 104.56458,137.587192 96.9937931,136.754852" id="path54" fill="#113D2A"></path>
                        <path d="M60.1351061,115.939261 C55.852395,109.247887 60.9676589,109.72197 60.9676589,109.72197 C58.1427612,110.924273 60.1351061,115.939261 60.1351061,115.939261" id="path56" fill="#113D2A"></path>
                        <path d="M49.7308094,128.254015 C45.4299526,115.528636 54.0233622,117.06671 54.0233622,117.06671 C47.2337659,119.221183 49.7308094,128.254015 49.7308094,128.254015" id="path58" fill="#113D2A"></path>
                        <path d="M99.9349468,153.421063 C99.9349468,153.421063 102.769686,148.731679 100.387976,142.029215 C100.387976,142.029215 104.389581,146.815633 101.298956,153.269504 L99.9349468,153.421063" id="path60" fill="#113D2A"></path>
                        <path d="M83.4548904,104.6426 C94.3764954,99.3799423 93.0826092,112.516255 97.5120242,118.277638 C91.2406591,110.761933 92.1301097,104.59208 83.4548904,104.6426" id="path62" fill="#113D2A"></path>
                        <path d="M104.023898,109.356011 C104.023898,109.356011 102.593765,113.026687 105.253812,116.156434 C105.253812,116.156434 100.693686,113.081211 104.023898,109.356011" id="path64" fill="#113D2A"></path>
                        <path d="M159.120629,113.03562 C159.513685,115.550507 158.601783,118.11499 158.601783,118.11499 C158.601783,118.11499 157.412465,110.641795 153.610771,109.106494 C151.51232,108.25259 149.800466,109.884618 148.981445,110.880839 C150.602263,113.080903 151.119571,116.525165 151.119571,116.525165 C149.195811,115.754434 144.115609,105.747869 141.693609,111.760002 C139.658206,116.82551 145.285243,121.948622 145.285243,121.948622 C145.285243,121.948622 142.494791,120.532227 141.020677,117.930163 C137.023685,119.089956 138.44736,125.716641 147.549467,126.715018 C147.549467,126.715018 136.872061,134.717128 145.195129,145.451606 C140.502446,140.478511 140.419714,136.050967 141.604418,132.821105 C139.096917,129.433831 136.565735,129.638066 135.227869,130.092742 C135.09439,133.049367 133.692551,135.40099 131.09463,136.202525 C137.086734,123.066521 127.401503,117.172061 123.98456,115.559441 C121.819369,119.58899 116.715793,121.700645 116.715793,121.700645 C130.40632,111.998121 113.839841,98.023924 113.839841,98.023924 C117.924178,100.710393 120.649736,103.183078 122.380658,105.435818 C125.260608,104.720843 132.436494,98.5876481 118.290785,87.8368438 C121.389714,88.6580943 124.325332,90.7161495 126.44808,93.1866781 C133.669792,90.1080667 126.185736,81.9001819 121.405707,79.481713 C123.768349,79.5177543 125.907398,80.3048118 127.612178,81.5105037 C134.946763,79.1302325 122.789707,67.453442 122.789707,67.453442 C124.999186,68.7121178 126.79039,70.0524258 128.157474,71.3970465 C134.965524,69.0984075 126.233714,59.2227617 126.233714,59.2227617 C134.729629,55.6081503 120.976052,45.7747069 120.976052,45.7747069 C125.948918,46.1609965 127.549129,39.4933415 117.493601,33.7501325 C122.143841,33.4497877 123.352226,29.1182917 117.648609,26.8219014 C113.213658,25.0240527 101.621581,28.3621312 116.739474,35.24816 C111.116744,34.8162796 101.234061,37.9555761 116.648438,45.0159897 C116.648438,45.0159897 104.60487,42.8482702 107.871418,49.9333275 C112.199032,50.5595849 117.862052,53.5245274 121.470601,56.4056813 C110.075976,50.7092953 102.271446,49.4783436 105.470024,57.9040169 C109.948033,59.3949594 114.099418,61.8254421 114.099418,61.8254421 C114.099418,61.8254421 93.8788705,55.1922883 98.09761,64.1166881 C104.236419,66.2881041 111.133044,71.0243109 114.880609,74.5794694 C114.880609,74.5794694 86.4058858,57.5121825 89.2962929,71.7479108 C96.0821985,73.8176717 102.813667,77.4661682 102.813667,77.4661682 C102.813667,77.4661682 75.9969759,67.8828581 79.2515287,78.2818739 C85.9300974,80.0177129 94.0105043,84.4018232 98.2689184,88.1153173 C98.2689184,88.1153173 70.7285493,74.2544809 72.1783662,83.375414 C79.8875536,85.9938047 88.2807445,91.7973908 92.2768137,95.611308 C92.2768137,95.611308 61.4299149,77.6713268 59.6790012,93.1198322 C60.251362,94.8960252 59.9078225,96.837947 57.9293177,98.7530688 C60.9971843,90.1656713 52.339188,87.2851335 50.1524681,86.7013863 C49.3765054,89.7772253 44.2723136,91.6920391 39.729103,89.8582414 C38.1854817,89.2344483 37.1693182,88.2453127 36.5394444,87.1298783 C35.4150213,87.791561 34.3444205,88.2560943 33.3297947,88.5918645 C36.4213431,92.8616896 30.4844138,95.1800436 30.4844138,95.1800436 C34.7254818,91.9816023 33.2120009,89.6764943 32.4089734,88.8620208 C27.911035,90.0104161 24.937588,88.3860897 24.937588,88.3860897 C24.937588,88.3860897 31.0258961,89.560361 36.0113715,85.9306553 C35.2852329,83.696706 35.7834729,81.3016485 36.5609733,80.4477451 C36.5609733,80.4477451 34.6498231,86.8951473 40.2156559,89.1478874 C43.5701642,90.5014414 48.7386352,87.9234047 49.2027365,86.7740852 C49.601021,85.8006599 49.3199152,84.6870737 49.2242654,84.3694784 C47.408765,84.4055197 45.0922567,84.782876 45.0922567,84.782876 C45.0922567,84.782876 48.8468948,83.0282462 50.9850209,83.8947795 C51.6453427,84.1553864 54.0448911,83.8494968 54.8998955,81.7196669 C56.9992697,76.506913 48.4673712,69.1643293 42.2187652,72.0223798 C45.0713429,69.7024856 48.789997,70.5742557 51.6364236,72.7191798 C54.3269195,66.0225685 45.3001642,59.0896859 38.7480008,64.3800674 C40.2614817,61.9086145 43.5028096,61.409272 46.5193144,62.3417272 C46.5436113,61.4939847 46.4328913,57.9274284 42.5195545,56.3456124 C33.8714,52.8548355 30.0096096,62.5607479 31.5026072,69.229327 C31.0160543,67.6934098 30.7764686,66.1987708 30.7466664,64.7916168 C17.5554245,62.0583249 11.4337466,72.0621177 13.2601037,77.8992808 C13.2601037,77.8992808 8.95672493,77.5268532 7.65920959,80.7329957 C6.38611415,83.8809174 9.6162778,88.4775794 13.3682094,87.1129358 C13.2844928,86.6148254 13.2412198,86.0809818 13.2520457,85.506476 C13.3583677,87.7398093 17.8445882,94.5584068 26.2702877,91.8010874 C25.9891512,92.0826414 25.5989554,92.3327747 25.1223674,92.5373172 C24.1402195,98.2971608 37.0502942,113.243243 47.9574441,105.271322 C47.9574441,105.271322 44.3270584,110.081151 39.0180346,109.98196 C38.2180826,110.904558 37.3098711,112.648098 37.2108382,115.820048 C41.611343,116.393013 45.5695829,118.733855 45.5695829,118.733855 C45.5695829,118.733855 28.637266,114.022599 28.6138302,127.776236 C32.0306801,128.524171 34.9401556,130.159896 34.9401556,130.159896 C34.9401556,130.159896 22.8507621,126.487372 21.4046667,133.321987 C28.3444731,134.955247 35.598632,139.590723 35.598632,139.590723 C35.598632,139.590723 15.4244028,132.23705 12.374436,139.79619 C9.51896723,146.880015 25.7161034,161.218322 69.9636587,179.129039 C107.629679,194.367149 121.561638,195.257094 123.290715,190.977411 C125.819129,184.717917 114.098495,176.075996 114.098495,176.075996 C114.098495,176.075996 115.594138,176.952386 117.536658,178.371554 C126.793158,173.716055 112.584707,161.963794 112.584707,161.963794 C112.584707,161.963794 114.056052,162.81092 115.980735,164.238097 C124.302573,158.293118 109.971715,144.583224 109.971715,144.583224 C109.971715,144.583224 111.894552,145.61333 114.274109,147.335615 C116.734861,146.664074 117.51513,145.418953 117.302609,143.932323 C116.651821,142.806107 116.086842,141.628755 115.592292,140.448015 C112.56041,136.449886 106.635967,132.324843 106.635967,132.324843 C109.751812,133.711974 112.306061,135.270378 114.338081,136.871293 C113.16937,132.788452 112.891032,128.957284 113.318842,126.802195 C113.318842,126.802195 118.034898,149.166024 130.709878,150.552231 C130.077543,146.934539 131.269629,144.032438 131.269629,144.032438 C131.269629,144.032438 128.351849,153.257798 141.434032,158.553109 C147.404608,160.968497 149.003897,158.479794 149.003897,158.479794 C149.003897,158.479794 149.887811,161.565798 152.720706,162.713886 C155.554522,163.861665 157.670812,162.429559 158.256705,160.969421 C158.840446,159.516368 157.004954,154.40527 153.437925,154.52664 C154.410108,152.132198 158.841368,153.864033 161.044389,148.427638 C164.982945,138.637629 156.159792,129.878034 148.546254,129.228365 C148.546254,129.228365 162.886031,127.906231 165.716465,120.910199 C167.083242,117.488733 164.118714,111.713795 159.120629,113.03562 Z M116.197869,18.8915352 C119.637878,18.2449775 113.471389,16.0375201 110.313101,9.75122596 C106.878321,17.4655904 111.853032,15.7294741 113.495686,18.8265375 C109.409503,16.9006649 107.158504,22.1838689 111.895475,24.0935382 C117.733186,26.4544026 120.434447,20.6039319 116.197869,18.8915352 Z M158.343128,129.918696 C158.343128,129.918696 166.994051,141.812659 164.44134,148.137458 C162.279839,153.495918 158.99084,154.786939 158.99084,154.786939 C158.99084,154.786939 160.89584,157.556888 159.509994,160.991601 C158.12784,164.414299 154.604791,164.564934 152.809897,163.839178 C151.015002,163.113729 149.868743,161.747237 149.868743,161.747237 C149.868743,161.747237 146.085502,163.383578 140.937637,161.295026 C135.44408,159.07309 132.739129,156.03206 131.486763,153.127495 C126.597552,153.030152 122.833995,150.821771 120.02263,147.682166 C119.593897,148.69841 118.749657,149.479615 117.51513,149.934907 C122.423101,154.362143 126.661524,160.871155 119.243284,166.904543 C123.678235,170.985228 127.724743,176.911724 121.926706,182.088129 C124.741455,184.92554 126.962621,188.388593 125.666889,191.584262 C123.354687,197.304367 105.923976,194.271655 69.7582116,179.638855 C24.6888986,161.400686 5.75620963,147.205311 9.79023122,137.198746 C11.2931629,133.473546 14.6441036,132.487799 18.4410922,132.831886 C19.5764027,128.609192 22.5165415,127.3767 25.6089202,127.408121 C26.3459771,117.747799 31.2088917,115.504917 35.944632,115.710999 C34.5498676,111.770475 35.1671316,109.972103 35.6447653,109.257436 C23.8915301,104.460853 23.1220568,96.5570091 24.1915198,92.8598414 C20.7098987,93.7932206 14.7441515,92.8690827 13.4899092,87.7505909 C9.11084102,89.3644437 5.44361018,84.5139519 6.96902418,80.7305313 C8.3746453,77.2452992 11.9842095,76.6966693 12.7086566,76.6153452 C11.1111515,71.0692856 17.0238147,61.1739249 30.7663192,63.8126467 C31.1123192,57.3587756 36.1728382,53.0738561 43.2133998,55.9294423 C47.8196592,57.7931204 47.6034477,61.8858191 47.5142566,62.7070697 C51.3534725,64.3313961 54.4459435,68.2968719 52.4689765,73.4085867 C55.0638226,75.7334096 56.6615737,79.1062049 55.6035826,81.7076531 C54.6286315,84.1516899 52.2724485,85.0613496 50.9985534,84.5426002 C50.7478956,84.4369404 50.3603756,84.3898094 49.905501,84.3713266 C50.1207899,84.8549588 50.2388912,85.3247289 50.2496556,85.7797128 C51.5472325,85.8440944 54.262948,87.0427013 56.4911879,88.883584 C57.9185532,82.5862002 62.7382562,81.2437359 68.4913903,82.3754968 C68.4471023,78.3336256 71.4872889,77.1424119 75.737399,77.6103337 C74.6237404,70.4846143 79.746078,69.6002144 85.8227605,70.8539614 C85.6849756,63.9660536 89.4872849,62.2551663 94.5044385,63.1401823 C94.0320332,57.2109135 97.7725238,56.2541227 102.099215,57.0340951 C100.928659,52.0505274 102.704792,50.0596263 105.711455,49.8424539 C104.388659,45.5978885 108.305686,42.5269782 108.305686,42.5269782 C104.111244,36.6559301 109.688763,33.3006934 109.688763,33.3006934 C105.235667,27.9453142 110.230061,25.280347 110.230061,25.280347 C105.235667,20.2543921 109.209284,17.3593453 109.209284,17.3593453 C105.966419,12.2854893 109.839158,10.2314696 109.727515,6.87376856 L110.268813,6.83273684 C112.717878,12.6536043 118.443332,16.2956318 118.057657,18.565068 C121.149821,20.7338965 118.141313,24.8516086 118.141313,24.8516086 C124.740532,29.4180204 121.020033,33.9697693 121.020033,33.9697693 C130.272841,39.7967668 124.436975,46.5562195 124.436975,46.5562195 C135.916178,55.0838561 128.33032,60.1127065 128.33032,60.1127065 C135.918946,67.9262926 129.367398,72.6966924 129.367398,72.6966924 C132.999629,77.0287429 132.526608,81.1873635 129.082601,82.7593221 C132.651783,86.3862553 133.044532,92.0025494 127.162532,94.0747747 C131.077714,99.2511791 131.442475,105.705666 123.162772,106.548788 C125.107446,109.54854 125.277524,112.117643 124.563072,114.25117 C131.289312,117.789386 134.770226,123.726972 135.186349,128.587321 C139.05632,128.643693 141.235966,130.872714 141.996551,131.857845 C143.33534,128.988089 145.499609,127.268268 145.499609,127.268268 C134.316889,123.813533 137.840861,118.40671 140.740494,117.388618 C140.047572,115.895211 139.809524,114.063878 140.674677,111.91957 C141.673925,109.410227 144.00858,108.056981 147.120734,109.312577 C147.52886,109.482926 147.896389,109.723202 148.222706,110.025087 C149.004819,109.105878 151.421283,107.013321 155.837473,108.803069 C157.395242,109.43179 158.281002,110.493317 158.754023,111.68145 C165.654031,111.670668 168.640088,116.415809 167.012812,120.476163 C164.768579,126.020066 158.343128,129.918696 158.343128,129.918696 Z" id="path66" fill="#113D2A"></path>
                        <polyline id="path68" fill="#113D2A" points="116.845581 5.70473411 117.686438 5.70473411 117.686438 3.18984682 117.989073 3.18984682 117.989073 5.70473411 118.857609 5.70473411 118.857609 6.00785134 116.845581 6.00785134 116.845581 5.70473411"></polyline>
                        <polyline id="path70" fill="#113D2A" points="120.476889 3.71195393 119.744292 6.00785134 119.265736 6.00785134 119.265736 3.18984682 119.568678 3.18984682 119.568678 5.59260538 120.324649 3.18984682 120.627284 3.18984682 121.383256 5.59260538 121.383256 3.18984682 121.686198 3.18984682 121.686198 6.00785134 121.193186 6.00785134 120.476889 3.71195393"></polyline>
                    </g>
                </g>
            </g>
        </g>
    </g>
</svg>