<?xml version="1.0" encoding="UTF-8"?>
<svg width="200px" height="200px" viewBox="0 0 200 200" version="1.1" xmlns="http://www.w3.org/2000/svg" xmlns:xlink="http://www.w3.org/1999/xlink">
    <!-- Generator: Sketch 51.3 (57544) - http://www.bohemiancoding.com/sketch -->
    <title>lambuth</title>
    <desc>Created with Sketch.</desc>
    <defs>
        <path d="M27.409961,0.0644735088 C27.409961,0.0644735088 26.2360147,9.20029043 14.0329498,9.8019551 C2.27432945,10.3790458 0.339463593,5.31562941 0.071264366,2.96485658 C0.071264366,2.96485658 3.74865891,8.5175054 13.9977008,7.76971839 C23.5540224,7.07094711 27.409961,0.0644735088 27.409961,0.0644735088 Z" id="path-1"></path>
        <path d="M0.0544061289,0.0690976334 C0.0544061289,0.0690976334 9.12490399,14.3479981 30.8015318,10.1902494 C30.8015318,10.1902494 28.9670491,9.32619874 27.9762445,8.85453803 C9.18237525,10.7306114 0.0544061289,0.0690976334 0.0544061289,0.0690976334 Z" id="path-3"></path>
        <path d="M0.0321839072,0.800502028 C0.0321839072,0.800502028 1.87739459,0.344166988 2.68352484,0.0593209128 C2.68352484,0.0593209128 5.10727957,2.12419073 9.80459746,1.48579729 C3.57931026,3.48923231 0.0321839072,0.800502028 0.0321839072,0.800502028 Z" id="path-5"></path>
        <path d="M40.9393093,0.321046365 C34.6443669,3.56982419 28.6868192,3.23688722 28.6868192,3.23688722 C31.3739456,5.79468872 35.8512635,6.85559502 35.8512635,6.85559502 C26.3072024,12.4468223 12.0636012,12.8392123 12.0636012,12.8392123 C15.6222985,16.0681724 20.7973941,17.1660717 20.7973941,17.1660717 C15.4998464,19.3513009 10.5477392,19.0276122 10.5477392,19.0276122 C10.5477392,19.0276122 15.0855935,21.7043197 24.2875856,22.6555682 L24.135555,22.9184827 C24.135555,22.9184827 9.97785416,23.8261323 0.0158620686,18.4410089 C0.0158620686,18.4410089 7.82390785,17.1330422 10.488199,15.7722284 C10.488199,15.7722284 7.82390785,12.7546568 7.05846726,10.5390406 C7.05846726,10.5390406 18.3327198,10.438631 26.9818384,5.35341511 C26.9818384,5.35341511 24.2082753,3.64513137 22.7127964,0.624917411 C22.7127964,0.624917411 30.8408421,2.37283651 40.8560909,0.108336634 L40.9393093,0.321046365 Z" id="path-7"></path>
        <path d="M0.0482758609,2.56572857 C5.97317993,2.18787153 11.2804595,1.19434533 15.5310341,0.122869597 C14.1731797,1.47707752 10.2375476,5.00066046 3.4613026,7.92574957 C2.54789266,6.10384448 1.40689652,4.19077807 0.0482758609,2.56572857 Z" id="path-9"></path>
    </defs>
    <g id="lambuth" stroke="none" stroke-width="1" fill="none" fill-rule="evenodd">
        <g id="lubbock-christian_BGL">
            <g id="lubbock-christian">
                <g id="g10" transform="translate(99.999998, 99.933940) scale(-1, 1) rotate(-180.000000) translate(-99.999998, -99.933940) translate(0.000000, 0.845556)">
                    <g id="g12">
                        <path d="M54.7883511,96.6379947 L48.2881214,55.8460813 C48.2881214,55.8435711 48.2881214,55.8409287 48.2881214,55.8409287 C47.6619145,54.6239912 33.7299608,27.5346802 33.7299608,27.5346802 C33.7299608,27.5346802 62.4173931,27.5346802 67.0872014,27.5346802 C67.0683508,27.4041478 66.988734,26.9112161 66.988734,26.9112161 C66.5298834,24.0413523 66.3029868,21.3778565 66.3029868,18.9258814 C66.3029868,14.8369662 66.9375462,11.3358169 68.2049025,8.46896531 C71.9477377,0 79.794634,0 84.4812239,0 L110.721836,0 C110.721836,0 114.415323,23.1062222 115.131032,27.5755047 C115.946357,27.5543658 116.76015,27.5346802 116.76015,27.5346802 L125.756319,27.5346802 C134.38084,27.5346802 139.581606,29.8044648 143.701146,35.3761386 C146.783138,39.540361 148.852104,45.1434789 150.02605,52.4916092 C150.02605,52.4916092 150.230648,53.755977 150.561682,55.8460813 L156.862065,95.221295 C156.863598,95.2342426 156.86513,95.2482471 156.867429,95.2574953 C157.493483,96.4728474 171.424517,123.566782 171.424517,123.566782 C171.424517,123.566782 135.324135,123.566782 130.472027,123.566782 C131.507276,130.043728 134.91264,151.343635 134.91264,151.343635 L132.092717,151.343635 L107.512641,151.343635 C101.337162,151.343635 86.8758599,151.343635 82.8873542,126.394501 C82.8873542,126.394501 82.629883,124.78372 82.3869711,123.250492 C79.4482739,123.250492 49.5973934,123.250492 49.5973934,123.250492 C49.5973934,123.250492 54.41065,98.585676 54.7883511,96.6379947 C54.759922,96.4495946 54.5644431,95.221295 54.5644431,95.221295" id="path14" fill="#B2B2B1" fill-rule="nonzero"></path>
                        <path d="M65.6444428,142.970006 C65.3137148,143.95032 64.8183126,144.772093 64.1825271,145.435325 C67.218006,146.804066 71.68973,148.639182 74.7174694,149.093668 C73.7805346,147.554495 72.6185422,144.381024 72.6185422,144.381024 C72.6185422,144.381024 74.9413008,145.202797 78.7678141,145.402295 C76.622067,142.761259 72.1488871,138.122602 65.8426037,136.037782 C66.0575462,137.086798 66.5882742,140.175713 65.6444428,142.970006 Z M165.713406,142.334519 C151.122602,142.334519 142.070495,137.576955 138.571644,135.303207 C137.121069,136.580787 135.432181,137.904607 133.534096,139.256173 C144.542525,153.15497 157.881222,160.738535 173.224517,161.784908 C185.395398,162.619893 195.260532,158.925878 199.77011,156.428851 C195.793099,164.126036 191.583903,170.996164 179.593099,178.910023 C179.920302,179.842775 180.441375,181.636936 180.441375,181.636936 C180.441375,181.636936 162.926433,195.518558 130.836778,190.235165 C130.849805,190.227238 136.637544,188.152988 140.875859,185.73391 C134.626817,185.436645 124.797698,183.922574 115.150189,178.236222 C101.589269,186.695728 87.8812239,192.56176 74.5270479,195.555551 C63.9978528,197.921781 53.8236002,198.756766 44.3429874,197.335178 C21.4571642,193.901435 0,176.500194 0,176.500194 C0,176.500194 10.4983905,178.224332 30.3490414,176.370718 C28.8643671,173.655697 27.1162445,168.447611 27.1162445,168.447611 C27.1162445,168.447611 38.5608419,170.549606 49.3561673,167.473903 C46.9588494,162.544586 45.8940985,153.921254 45.8940985,153.921254 C45.8940985,153.921254 56.6256691,161.478395 70.4576994,158.474035 C67.4682742,154.832867 64.3258988,149.774075 62.4847494,146.664021 C59.2833702,148.226975 54.2501902,147.374815 48.5285045,143.801027 C50.9189259,143.425812 54.0259757,142.482491 55.6875848,139.997354 C55.6875848,139.997354 53.3740217,136.006074 48.9077382,132.08693 C44.6267422,128.332934 41.305976,127.239262 39.8144051,127.011227 C40.4613017,130.140702 42.1213783,134.559384 43.734405,137.615269 C37.5026811,134.337426 32.2551716,128.231732 32.2374705,121.669702 C29.9940222,119.725588 28.1824514,115.596377 28.4135625,112.052448 C28.7308805,107.194475 31.3518,104.338483 35.2984666,104.389613 C40.9213017,104.469148 52.0620677,108.040425 58.9903434,120.698372 C71.0203814,121.669702 78.5601513,126.722681 81.440611,129.057997 C91.0475073,124.739857 99.9287331,127.568104 102.24904,128.460824 C104.210725,127.697579 110.881223,125.536792 118.659001,127.643939 C123.563982,125.675515 133.396165,120.01202 138.098081,115.358036 C138.098081,115.358036 143.426816,122.29211 150.573943,125.16303 C149.594632,116.231732 158.284287,112.28775 164.993099,110.768923 C163.917237,112.040557 161.101912,116.385517 160.075858,119.510897 C161.003061,120.046635 163.577007,121.18298 168.868195,121.216538 C173.94559,121.248114 177.176241,119.731269 178.527965,118.827583 C176.311107,115.503498 170.882754,112.675912 170.882754,112.675912 C170.882754,112.675912 181.687352,109.005018 186.979306,117.760864 C189.829114,117.744877 192.853635,120.046635 193.950953,123.105955 C195.147122,126.441931 194.842141,129.746991 193.094248,132.405863 C189.313405,138.159595 177.796164,142.334519 165.713406,142.334519 Z" id="path16" fill="#B2B2B1" fill-rule="nonzero"></path>
                        <path d="M165.713406,139.792571 C150.002295,139.792571 141.00536,134.237016 138.441376,132.379439 C136.344824,134.333462 133.641376,136.415639 130.415322,138.565197 C158.656701,176.991672 194.951719,161.091289 194.951719,161.091289 C194.951719,161.091289 190.1908,169.681592 177.183137,177.769846 C177.806126,179.315625 178.183904,180.545642 178.183904,180.545642 C178.183904,180.545642 164.254402,191.021266 140.213023,188.690707 C140.213023,188.690707 144.354019,186.892584 147.331797,183.180072 C147.331797,183.180072 130.647506,185.120883 115.045974,175.519879 C84.7823734,194.621477 59.9862054,196.731399 44.5091177,194.802479 C27.2084284,192.647637 8.71226032,179.734439 8.71226032,179.734439 C8.71226032,179.734439 24.4642139,180.977668 33.755708,178.126564 C31.9940988,175.82375 30.3355548,171.448007 30.3355548,171.448007 C30.3355548,171.448007 40.9243668,172.929048 52.479309,169.166332 C49.5193091,164.301753 48.5003819,158.19923 48.5003819,158.19923 C48.5003819,158.19923 59.4788491,164.654508 74.6944043,159.997354 C71.7508028,157.064337 68.7907262,153.433739 66.1547876,148.957586 C66.1547876,148.957586 72.8358602,152.141627 79.9302662,151.9778 C79.9302662,151.9778 77.4467414,150.591884 76.1452088,147.654904 C76.1452088,147.654904 85.1701128,149.717264 94.1953999,144.894963 C91.3325648,144.481434 86.6904193,144.473507 81.6007642,145.6771 C81.6007642,145.6771 74.6731016,134.58845 62.715554,132.687274 C63.5970099,134.311002 65.0547876,138.763373 63.9801517,141.878712 C62.188964,147.068301 55.1487343,144.296469 54.0732554,143.834056 C54.9329488,143.464126 57.939079,141.997618 57.6837533,139.762184 C57.6218376,139.198041 56.0557074,135.346806 49.8985428,129.943582 C44.0583131,124.820449 39.8173936,124.248643 38.790114,124.451444 C38.5324128,124.502441 38.1465891,124.707356 37.9965508,125.224994 C37.4634473,127.083495 38.7970105,130.268196 39.2343285,131.236884 C37.9681217,130.263572 33.5264359,126.396483 34.1388497,120.493061 C34.5929493,116.124848 39.5219913,116.011888 39.5219913,116.011888 C38.1854397,114.849647 36.3026811,114.238602 35.3184665,114.625179 C32.7499609,115.622272 33.3752482,119.667324 33.3752482,119.667324 C31.4963211,118.167522 30.0616851,114.799574 30.2475088,112.313116 C30.5406123,108.396483 32.6164743,106.895756 35.2807654,106.93592 C40.7216848,107.007264 51.6127956,110.550664 58.0387725,123.160652 C71.6250557,124.015323 79.5425267,130.362132 81.2099597,131.837624 C92.0222199,126.5142 102.253637,131.110447 102.253637,131.110447 C102.253637,131.110447 109.842909,127.643939 118.759384,130.255248 C123.36015,128.455143 132.659001,123.873428 137.9272,118.654245 C137.9272,118.654245 144.223751,127.070548 154.990801,129.054429 C153.260533,127.424624 152.331797,125.735365 152.331797,124.015323 C152.331797,118.264629 158.870494,115.476678 159.960149,115.075172 C159.377008,116.020079 157.397697,119.469147 158.477391,121.177828 C158.748655,121.603115 161.558617,123.711319 168.858233,123.75875 C175.77854,123.799574 179.589268,121.165937 180.37854,120.240716 C180.57854,120.006339 180.825283,119.549079 180.750187,119.002507 C180.485053,117.035273 178.127199,115.324479 177.380838,114.825866 C178.826049,114.719115 184.081988,114.724796 185.843674,120.169504 C187.148654,124.204647 183.020685,127.916366 183.020685,127.916366 C184.601528,127.916366 186.428348,127.051391 187.114938,126.00581 C188.903444,123.270046 186.81149,120.305718 186.81149,120.305718 C188.979306,120.196324 191.495014,121.99022 192.298079,124.231071 C193.218386,126.797989 192.867428,128.959965 191.727198,130.697051 C188.660532,135.358697 178.251337,139.792571 165.713406,139.792571" id="path18" fill="#282D74" fill-rule="nonzero"></path>
                        <path d="M190.11647,128.305057 C190.11647,128.305057 182.07739,135.991541 168.596164,136.350902 C145.009958,136.975819 138.117238,126.612231 138.137161,124.369795 C138.137161,124.369795 147.078924,134.470865 165.876624,132.594791 C165.876624,132.594791 155.31264,127.588185 154.736395,124.109258 C154.342525,121.735233 155.919536,120.84608 155.919536,120.84608 C155.919536,120.84608 155.521835,122.150215 156.455169,123.341257 C157.14559,124.22539 161.686586,127.019418 168.226816,127.21601 C174.767812,127.409034 182.596164,123.404278 183.234478,119.45369 C183.234478,119.45369 184.443674,122.228561 181.213789,125.571803 C178.511873,128.365963 173.702678,129.932749 173.702678,129.932749 C173.702678,129.932749 180.004593,135.10503 189.357083,126.903287 C190.010723,126.327385 190.096547,125.510368 190.096547,125.510368 C190.096547,125.510368 191.473558,126.963136 190.11647,128.305057" id="path20" fill="#FFFFFF" fill-rule="nonzero"></path>
                        <g id="g22" transform="translate(155.862065, 119.038179)">
                            <g id="g24-Clipped">
                                <mask id="mask-2" fill="white">
                                    <use xlink:href="#path-1"></use>
                                </mask>
                                <g id="path26"></g>
                                <g id="g24" mask="url(#mask-2)" fill="#B2B2B1" fill-rule="nonzero">
                                    <g transform="translate(-17.777777, 0.396354)" id="path30">
                                        <path d="M52.0321826,8.87052429 C52.0321826,8.87052429 43.9931023,16.5570084 30.5118766,16.916369 C6.92567032,17.5412864 0.0329501907,7.17769833 0.0528735619,4.93526213 C0.0528735619,4.93526213 8.99463579,15.036332 27.7923365,13.1602586 C27.7923365,13.1602586 17.2283521,8.15365285 16.6521069,4.67472574 C16.2582371,2.30070017 17.8352486,1.41154706 17.8352486,1.41154706 C17.8352486,1.41154706 17.4375475,2.71568232 18.3708808,3.9067247 C19.0613022,4.79085733 23.6022983,7.58488553 30.142528,7.78147688 C36.683524,7.97450106 44.5118763,3.96974491 45.1501904,0.0191570876 C45.1501904,0.0191570876 46.3593858,2.7940282 43.1295008,6.13727029 C40.4275852,8.93143061 35.6183899,10.4982161 35.6183899,10.4982161 C35.6183899,10.4982161 41.9203055,15.6704977 51.2727957,7.46875394 C51.9264355,6.89285225 52.0122592,6.07583549 52.0122592,6.07583549 C52.0122592,6.07583549 53.3892707,7.52860333 52.0321826,8.87052429"></path>
                                    </g>
                                </g>
                            </g>
                        </g>
                        <g id="g32" transform="translate(137.471261, 123.530186)">
                            <g id="g34-Clipped">
                                <mask id="mask-4" fill="white">
                                    <use xlink:href="#path-3"></use>
                                </mask>
                                <g id="path36"></g>
                                <g id="g34" mask="url(#mask-4)" fill="#B2B2B1" fill-rule="nonzero">
                                    <g transform="translate(0.613027, -4.095653)" id="path40">
                                        <path d="M52.0321826,8.87052429 C52.0321826,8.87052429 43.9931023,16.5570084 30.5118766,16.916369 C6.92567032,17.5412864 0.0329501907,7.17769833 0.0528735619,4.93526213 C0.0528735619,4.93526213 8.99463579,15.036332 27.7923365,13.1602586 C27.7923365,13.1602586 17.2283521,8.15365285 16.6521069,4.67472574 C16.2582371,2.30070017 17.8352486,1.41154706 17.8352486,1.41154706 C17.8352486,1.41154706 17.4375475,2.71568232 18.3708808,3.9067247 C19.0613022,4.79085733 23.6022983,7.58488553 30.142528,7.78147688 C36.683524,7.97450106 44.5118763,3.96974491 45.1501904,0.0191570876 C45.1501904,0.0191570876 46.3593858,2.7940282 43.1295008,6.13727029 C40.4275852,8.93143061 35.6183899,10.4982161 35.6183899,10.4982161 C35.6183899,10.4982161 41.9203055,15.6704977 51.2727957,7.46875394 C51.9264355,6.89285225 52.0122592,6.07583549 52.0122592,6.07583549 C52.0122592,6.07583549 53.3892707,7.52860333 52.0321826,8.87052429"></path>
                                    </g>
                                </g>
                            </g>
                        </g>
                        <g id="g42" transform="translate(171.417620, 129.739725)">
                            <g id="g44-Clipped">
                                <mask id="mask-6" fill="white">
                                    <use xlink:href="#path-5"></use>
                                </mask>
                                <g id="path46"></g>
                                <g id="g44" mask="url(#mask-6)" fill="#B2B2B1" fill-rule="nonzero">
                                    <g transform="translate(-33.333333, -10.305192)" id="path50">
                                        <path d="M52.0321826,8.87052429 C52.0321826,8.87052429 43.9931023,16.5570084 30.5118766,16.916369 C6.92567032,17.5412864 0.0329501907,7.17769833 0.0528735619,4.93526213 C0.0528735619,4.93526213 8.99463579,15.036332 27.7923365,13.1602586 C27.7923365,13.1602586 17.2283521,8.15365285 16.6521069,4.67472574 C16.2582371,2.30070017 17.8352486,1.41154706 17.8352486,1.41154706 C17.8352486,1.41154706 17.4375475,2.71568232 18.3708808,3.9067247 C19.0613022,4.79085733 23.6022983,7.58488553 30.142528,7.78147688 C36.683524,7.97450106 44.5118763,3.96974491 45.1501904,0.0191570876 C45.1501904,0.0191570876 46.3593858,2.7940282 43.1295008,6.13727029 C40.4275852,8.93143061 35.6183899,10.4982161 35.6183899,10.4982161 C35.6183899,10.4982161 41.9203055,15.6704977 51.2727957,7.46875394 C51.9264355,6.89285225 52.0122592,6.07583549 52.0122592,6.07583549 C52.0122592,6.07583549 53.3892707,7.52860333 52.0321826,8.87052429"></path>
                                    </g>
                                </g>
                            </g>
                        </g>
                        <path d="M61.091646,189.269384 C48.2504202,191.290787 35.5822213,185.731268 35.5822213,185.731268 C35.5822213,185.731268 40.645976,185.26357 45.9518762,183.075699 C45.9518762,183.075699 44.0906502,181.511424 42.1793859,178.122601 C42.1793859,178.122601 52.8316462,178.308887 62.388964,172.659528 C62.388964,172.659528 59.3842897,170.58792 57.8822208,168.327384 C57.8822208,168.327384 69.4103431,170.509971 81.5670478,165.801291 C86.4252852,169.468882 95.7111087,174.180204 106.429116,172.881486 C106.429116,172.881486 90.9969326,184.560704 61.091646,189.269384" id="path52" fill="#ED1C24" fill-rule="nonzero"></path>
                        <g id="g54" transform="translate(34.559386, 167.129075)">
                            <g id="g56-Clipped">
                                <mask id="mask-8" fill="white">
                                    <use xlink:href="#path-7"></use>
                                </mask>
                                <g id="path58"></g>
                                <g id="g56" mask="url(#mask-8)" fill="#FFFFFF" fill-rule="nonzero">
                                    <g transform="translate(0.996169, -1.453296)" id="path62">
                                        <path d="M25.5360913,23.5936049 C12.6948656,25.6150079 0.026666666,20.055489 0.026666666,20.055489 C0.026666666,20.055489 5.09042133,19.5877918 10.3963216,17.3999203 C10.3963216,17.3999203 8.53509557,15.835645 6.62383125,12.4468223 C6.62383125,12.4468223 17.2760915,12.6331084 26.8334093,6.98374933 C26.8334093,6.98374933 23.828735,4.91214151 22.3266661,2.65160517 C22.3266661,2.65160517 33.8547884,4.83419198 46.0114931,0.125511954 C50.8697305,3.79310335 60.1555541,8.50442574 70.8735614,7.20570731 C70.8735614,7.20570731 55.4413779,18.8849249 25.5360913,23.5936049"></path>
                                    </g>
                                </g>
                            </g>
                        </g>
                        <path d="M105.952488,156.230674 C113.138694,150.786097 120.94789,152.754653 120.94789,152.754653 C117.704978,153.228956 115.288886,156.387894 115.288886,156.387894 C124.334863,153.662303 127.642909,159.418677 127.642909,159.418677 C109.517239,178.191302 83.2681972,159.478131 83.2681972,159.478131 C91.1593847,159.109522 95.6842888,155.443251 95.6842888,155.443251 C93.3770092,154.708676 91.2030629,152.6952 91.2030629,152.6952 C91.2030629,152.6952 98.382373,149.54419 110.270495,149.581183 C107.750955,151.9778 105.952488,156.230674 105.952488,156.230674" id="path64" fill="#ED1C24" fill-rule="nonzero"></path>
                        <path d="M170.569344,172.626499 C170.569344,172.626499 168.773942,172.97529 168.262065,174.161708 C167.514172,175.887167 169.547888,176.600603 169.547888,176.600603 L171.111873,175.827714 C171.111873,175.827714 170.240609,175.673136 169.989268,174.687537 C169.744057,173.700617 170.569344,172.626499 170.569344,172.626499" id="path66" fill="#FFFFFF" fill-rule="nonzero"></path>
                        <path d="M166.161682,175.86867 C166.358617,176.555683 166.829115,177.098688 167.462831,177.467296 C164.367812,178.837358 161.570111,180.064733 160.315705,180.615665 C164.906509,179.561364 168.795398,178.709204 172.413789,177.660188 C171.618387,178.734307 170.999229,179.495305 170.999229,179.495305 C170.999229,179.495305 172.830647,178.684102 174.583904,177.274404 C174.932563,178.036724 175.127965,178.505743 175.127965,178.505743 C165.662065,183.757427 154.293483,184.604302 154.293483,184.604302 C155.682755,182.605359 157.47126,177.824015 157.47126,177.824015 C133.179307,180.281407 127.168579,174.8474 120.48812,171.573519 C124.399231,173.128546 131.384671,175.028401 139.909575,173.51433 C139.909575,173.51433 135.632181,172.384723 128.390801,164.649223 C128.390801,164.649223 134.610725,168.357771 145.251337,169.194077 C145.251337,169.194077 139.708042,165.009905 135.556318,158.355129 C142.167813,163.654376 152.878923,168.820183 169.668195,168.606152 C170.229881,169.38829 170.757084,170.194209 171.247505,170.998807 C170.795398,171.009376 170.322601,171.08072 169.847505,171.222086 C167.619919,171.897208 165.675858,174.148496 166.161682,175.86867" id="path68" fill="#ED1C24" fill-rule="nonzero"></path>
                        <path d="M101.289653,142.754654 C95.8544037,139.698768 88.7394614,139.623461 84.9494232,139.853346 C84.6176224,138.53481 84.1340975,137.082834 83.5823734,135.87792 C95.6651317,131.927464 102.47586,136.969213 102.47586,136.969213 C113.022986,135.37323 118.835246,140.180998 122.8613,147.033951 C114.462066,139.233713 104.943292,141.609192 101.289653,142.754654" id="path70" fill="#ED1C24" fill-rule="nonzero"></path>
                        <path d="M172.078923,168.505743 C178.003827,168.127886 183.311107,167.13436 187.561681,166.062884 C186.203827,167.417092 182.268195,170.940675 175.49195,173.865764 C174.57854,172.043859 173.437544,170.130792 172.078923,168.505743" id="path72" fill="#B2B2B1" fill-rule="nonzero"></path>
                        <g id="g74" transform="translate(172.030647, 165.940014)">
                            <g id="g76-Clipped">
                                <mask id="mask-10" fill="white">
                                    <use xlink:href="#path-9"></use>
                                </mask>
                                <g id="path78"></g>
                                <g id="g76" mask="url(#mask-10)" fill="#FFFFFF" fill-rule="nonzero">
                                    <g transform="translate(2.528736, -0.396354)" id="path82">
                                        <path d="M13.763218,0.118906061 C12.3923369,1.4902893 7.76628333,5.826397 0.855938676,8.76469789 C0.650574696,8.41590678 0.277394629,7.66811977 0.0122605361,7.24402149 C3.96398458,5.45646703 8.17777757,2.55648032 10.3003829,0.919540207 C11.4053637,0.683049263 12.7708809,0.369929968 13.763218,0.118906061"></path>
                                    </g>
                                </g>
                            </g>
                        </g>
                        <path d="M181.314172,170.089836 C181.314172,170.089836 177.914938,171.917026 176.314172,172.604038 C176.036011,172.175977 175.478157,171.089968 175.196164,170.67776 C175.554019,170.6553 177.414555,170.67776 181.314172,170.089836" id="path84" fill="#282D74" fill-rule="nonzero"></path>
                        <path d="M107.512641,147.640372 C101.344825,147.640372 88.5103426,147.640372 84.9563197,125.412337 C84.9563197,125.412337 84.6099596,123.236488 84.0199213,119.549079 L52.5844431,119.549079 C52.5844431,119.549079 56.506512,99.4470843 57.034558,96.7505591 C56.4433702,93.0450499 50.8165505,57.7406512 50.2239068,54.028404 C48.8364739,51.3261977 38.5027577,31.2339799 38.5027577,31.2339799 L69.9054389,31.2339799 C69.3695768,27.8784509 69.0595385,25.9307696 69.0595385,25.9307696 C65.5082742,3.70084546 78.3233697,3.70084546 84.4812239,3.70084546 L109.085821,3.70084546 L113.501913,31.3211777 C114.690419,31.2366223 115.808426,31.2339799 116.76015,31.2339799 L125.756319,31.2339799 C133.855935,31.2339799 138.668962,33.2792963 142.374709,38.2878838 C145.083521,41.9515117 146.910341,46.9178215 147.957084,53.4746981 C147.97854,53.5949253 154.310341,93.1983066 154.928732,97.0725303 C156.317237,99.7681307 166.651337,119.86603 166.651337,119.86603 L127.653637,119.86603 L132.092717,147.640372 L107.512641,147.640372" id="path86" fill="#282D74" fill-rule="nonzero"></path>
                        <path d="M105.898848,11.2842116 L85.6965496,11.2842116 C74.7647491,11.2842116 71.7046725,14.9437174 73.4581591,25.9307696 L89.3578522,125.412337 C91.1042123,136.345617 95.36858,140.054165 106.299614,140.054165 L126.480457,140.054165 L122.523369,115.312588 L110.338695,126.98586 L104.047507,126.98586 L87.6153235,24.3571139 L93.7432927,24.3571139 L109.868196,36.112035 L105.898848,11.2842116" id="path88" fill="#FFFFFF" fill-rule="nonzero"></path>
                        <path d="M143.556318,53.4746981 C141.803062,42.4861926 137.734096,38.8215078 126.969345,38.8215078 L117.973943,38.8215078 C107.210725,38.8215078 104.304978,42.4861926 106.058235,53.4746981 L113.377775,99.2050444 L110.832181,112.279559 L129.70651,112.279559 L120.052871,51.8985322 L129.051338,51.8985322 L138.711874,112.279559 L157.595398,112.279559 L150.870494,99.2050444 L143.556318,53.4746981" id="path90" fill="#FFFFFF" fill-rule="nonzero"></path>
                        <path d="M143.744824,99.2189168 L135.416089,47.1119026 L112.164748,47.1119026 L106.388503,43.6029848 C107.873561,40.1560302 111.499614,38.8215078 117.973943,38.8215078 L126.969345,38.8215078 C137.734096,38.8215078 141.803062,42.4861926 143.556318,53.4746981 L150.870494,99.2050444 L157.595398,112.279559 L143.744824,99.2189168" id="path92" fill="#B2B2B1" fill-rule="nonzero"></path>
                        <polyline id="path94" fill="#B2B2B1" fill-rule="nonzero" points="115.827583 131.419075 97.5264343 131.419075 79.7049789 19.9394895 87.6153235 24.3571139 104.047507 126.98586 110.338695 126.98586 122.523369 115.312588 126.480457 140.054165 115.827583 131.419075"></polyline>
                        <path d="M97.8413769,19.9394895 L79.7049789,19.9394895 L73.6712625,16.5163161 C75.0898066,12.7323421 78.8406111,11.2842116 85.6965496,11.2842116 L105.898848,11.2842116 L109.868196,36.112035 L97.8413769,19.9394895" id="path96" fill="#B2B2B1" fill-rule="nonzero"></path>
                        <polyline id="path98" fill="#B2B2B1" fill-rule="nonzero" points="120.493484 99.2189168 112.164748 47.1119026 120.052871 51.8985322 129.70651 112.279559 120.493484 99.2189168"></polyline>
                        <polyline id="path100" fill="#282D74" fill-rule="nonzero" points="90.3149403 31.2407179 70.8542511 31.2407179 72.4176993 38.8215078 92.738695 38.8215078 90.3149403 31.2407179"></polyline>
                        <polyline id="path102" fill="#282D74" fill-rule="nonzero" points="99.3172389 63.6570205 83.5203044 51.8985322 75.3247491 51.8985322 77.010726 59.5071989 83.7134079 59.4834177 100.685055 72.1239247 99.3172389 63.6570205"></polyline>
                        <polyline id="path104" fill="#FFFFFF" fill-rule="nonzero" points="68.5264351 51.8985322 83.5203044 51.8985322 99.3172389 63.6570205 95.3394612 38.8215078 47.5607651 38.8215078 54.2864354 51.8985322 61.7747111 98.8907361 59.2238299 111.961683 83.3999979 111.961683 76.0374694 98.8907361 68.5264351 51.8985322"></polyline>
                        <polyline id="path106" fill="#B2B2B1" fill-rule="nonzero" points="76.0374694 98.8907361 83.3999979 111.961683 69.16996 98.8763352 60.8881211 47.1346269 68.5264351 51.8985322 76.0374694 98.8907361"></polyline>
                        <polyline id="path108" fill="#B2B2B1" fill-rule="nonzero" points="99.3172389 63.6570205 87.8406108 47.1516701 60.8881211 47.1346269 47.5607651 38.8215078 95.3394612 38.8215078 99.3172389 63.6570205"></polyline>
                        <path d="M81.7808409,139.507197 C71.7711093,127.996958 58.0348644,129.198306 58.0348644,129.198306 C58.0348644,129.198306 62.7666651,137.868936 61.9881211,140.010566 C61.199692,142.187868 59.7204583,141.890603 59.7204583,141.890603 C59.7204583,141.890603 60.5627571,141.087326 60.2373931,139.38697 C59.9973165,138.13185 57.2587725,132.415111 51.8139451,127.409034 C46.3691176,122.408241 38.2045967,119.988767 36.1296543,122.850968 C36.1296543,122.850968 36.1877386,119.613552 40.2127959,119.18734 C43.5832939,118.829169 48.2504202,121.064338 48.2504202,121.064338 C48.2504202,121.064338 44.9437537,112.037519 33.8622214,112.037519 C33.0863593,112.037519 32.6960911,112.659926 32.6960911,112.659926 C32.6960911,112.659926 32.0485816,110.246661 34.1864359,109.887961 C36.4295776,109.515917 48.2680448,111.035801 56.5567802,126.014133 C67.6164734,126.542076 75.3331782,131.117185 79.1724118,134.026949 C80.8521053,135.617648 81.5279673,137.673401 81.7808409,139.507197" id="path110" fill="#FFFFFF" fill-rule="nonzero"></path>
                        <path d="M81.4796914,137.565065 C70.1041362,126.581844 54.8278913,127.574181 54.8278913,127.574181 C39.1561676,114.394501 35.8803056,123.33769 35.8803056,123.33769 C35.8803056,123.33769 43.1794625,119.259609 52.6221443,128.882544 C62.0474314,138.492532 59.4480445,142.01083 59.4480445,142.01083 C59.4480445,142.01083 61.8747111,142.951509 62.4051325,139.815032 C62.935554,136.675911 58.8403817,129.771697 58.8403817,129.771697 C58.8403817,129.771697 72.1892702,129.457917 81.8605344,140.075304 C81.8605344,140.075304 82.0490401,139.645921 81.4796914,137.565065" id="path112" fill="#B2B2B1" fill-rule="nonzero"></path>
                        <polygon id="path114" fill="#B2B2B1" fill-rule="nonzero" points="160.033712 106.968025 159.304977 105.550797 160.422218 105.865105"></polygon>
                        <polygon id="path116" fill="#FFFFFF" fill-rule="nonzero" points="162.60536 106.418811 160.104211 101.571804 165.497314 100.054562"></polygon>
                    </g>
                </g>
            </g>
        </g>
    </g>
</svg>