<?xml version="1.0" encoding="UTF-8"?>
<svg width="200px" height="200px" viewBox="0 0 200 200" version="1.1" xmlns="http://www.w3.org/2000/svg" xmlns:xlink="http://www.w3.org/1999/xlink">
    <!-- Generator: Sketch 51.3 (57544) - http://www.bohemiancoding.com/sketch -->
    <title>lawrence</title>
    <desc>Created with Sketch.</desc>
    <defs></defs>
    <g id="lawrence" stroke="none" stroke-width="1" fill="none" fill-rule="evenodd">
        <g id="lawrence_BGL">
            <g id="lawrence">
                <path d="M93.5370153,0.329411765 C97.4383079,0.0705882353 101.386604,0.0235294118 105.287897,0.282352941 C119.576968,0.941176471 133.748531,4.87058824 146.415981,11.5294118 C164.183314,20.8235294 178.989424,35.5764706 188.343126,53.3176471 C193.86604,63.7176471 197.508813,75.1294118 199.036428,86.8235294 C200.893067,100.964706 199.741481,115.552941 195.558167,129.2 C191.72738,141.741176 185.381904,153.482353 177.015276,163.576471 C168.319624,174.094118 157.46181,182.8 145.287897,188.988235 C128.67215,197.482353 109.659224,201.105882 91.0693302,199.435294 C77.0387779,198.211765 63.266745,193.976471 50.9988249,187.035294 C36.5452409,178.917647 24.159812,167.129412 15.3231492,153.105882 C8.90716804,142.941176 4.37132785,131.623529 1.99764982,119.835294 C0.258519389,111.247059 -0.329024677,102.4 0.235017626,93.6470588 C1.22209166,77.2235294 6.39247944,61.1058824 15.1351351,47.1529412 C23.2432432,34.1411765 34.4065805,23.0588235 47.426557,15.0117647 C61.2925969,6.42352941 77.2502938,1.31764706 93.5370153,0.329411765 Z" id="Shape" fill="#C9C9CD" fill-rule="nonzero"></path>
                <path d="M103.642773,4.02352941 C115.252644,4.42352941 126.792009,6.98823529 137.485311,11.5294118 C150.364277,16.9882353 162.021152,25.3176471 171.374853,35.7176471 C180.822562,46.1647059 187.920094,58.7294118 191.985899,72.2352941 C198.26087,92.9411765 197.273796,115.694118 189.165687,135.741176 C183.877791,148.941176 175.60517,160.894118 165.146886,170.517647 C154.735605,180.141176 142.209166,187.411765 128.67215,191.623529 C111.72738,196.941176 93.2784959,197.388235 76.0752056,192.988235 C62.6321974,189.576471 49.9647474,183.152941 39.2009401,174.376471 C29.706228,166.635294 21.6921269,157.058824 15.746181,146.305882 C9.40070505,134.823529 5.45240893,122.047059 4.25381904,108.964706 C3.40775558,99.7647059 3.85428907,90.4470588 5.61692127,81.3882353 C7.73207991,70.5647059 11.7508813,60.0941176 17.4383079,50.6352941 C24.2068155,39.3176471 33.3490012,29.4352941 44.0658049,21.7882353 C55.2291422,13.7882353 68.1316099,8.23529412 81.6216216,5.64705882 C88.8836663,4.30588235 96.2867215,3.71764706 103.642773,4.02352941 Z" id="Shape" fill="#004A87" fill-rule="nonzero"></path>
                <path d="M96.4512338,9.29411765 C97.6028202,10.2117647 98.6839013,11.2 99.8119859,12.0941176 C100,13.7882353 100.047004,15.4823529 100.235018,17.1764706 C99.6944771,17.7647059 99.1304348,18.3529412 98.5898942,18.9411765 C99.1774383,20 99.7414806,21.0588235 100.305523,22.0941176 C100.822562,22.0705882 101.363102,22.0470588 101.880141,22.0235294 C102.021152,23.6 102.162162,25.1764706 102.209166,26.7764706 C99.8354877,26.9882353 97.4618096,27.1764706 95.0881316,27.2941176 C94.9941246,25.8352941 94.853114,24.4 94.7591069,22.9411765 L95.2526439,22.8705882 C94.8296122,22.1647059 94.4065805,21.4588235 93.9835488,20.7529412 C93.6780259,20.7529412 93.3725029,20.7764706 93.0904818,20.7764706 C93.1139835,21.5294118 93.1609871,22.2823529 93.2079906,23.0117647 C93.4900118,22.9882353 93.7955347,22.9882353 94.0775558,22.9647059 C94.1715629,24.4470588 94.3125734,25.9058824 94.4065805,27.3882353 C91.9153937,27.5529412 89.4242068,27.7882353 86.93302,27.9529412 C86.8390129,26.3529412 86.6745006,24.7764706 86.5804935,23.2 C87.0035253,23.1764706 87.4030552,23.1529412 87.8025852,23.1294118 C87.6145711,20.3764706 87.3560517,17.6470588 87.1915394,14.8941176 C86.7685076,14.9176471 86.3689777,14.9411765 85.9459459,14.9647059 C85.8519389,13.3647059 85.6874266,11.7882353 85.5934195,10.1882353 C89.1891892,9.83529412 92.8319624,9.67058824 96.4512338,9.29411765 Z" id="Shape" fill="#FFFFFF" fill-rule="nonzero"></path>
                <path d="M107.826087,9.43529412 C112.502938,10.1411765 117.179788,10.9882353 121.856639,11.7411765 C121.527615,13.6235294 121.245593,15.5058824 120.916569,17.3882353 C119.153937,17.1294118 117.414806,16.8235294 115.652174,16.5176471 C115.699177,16.2117647 115.722679,15.9058824 115.769683,15.6 C115.041128,15.4588235 114.312573,15.3411765 113.584019,15.2235294 C113.490012,15.8117647 113.396005,16.3764706 113.301998,16.9647059 C114.688602,17.1764706 116.051704,17.4117647 117.438308,17.6235294 C117.179788,19.1058824 116.944771,20.6117647 116.686251,22.0941176 C115.299647,21.8823529 113.913043,21.6235294 112.549941,21.4352941 C112.455934,22.0941176 112.338425,22.7294118 112.220917,23.3882353 C112.949471,23.5058824 113.678026,23.6235294 114.430082,23.7176471 C114.500588,23.3411765 114.547591,22.9647059 114.618096,22.5647059 C116.380729,22.8 118.119859,23.1294118 119.882491,23.4117647 C119.647474,25.3882353 119.247944,27.3411765 118.942421,29.3176471 C114.26557,28.5411765 109.588719,27.7647059 104.911868,26.9882353 C105.170388,25.4352941 105.405405,23.8823529 105.687427,22.3294118 C106.110458,22.3764706 106.509988,22.4 106.93302,22.4470588 C107.33255,19.7176471 107.826087,17.0352941 108.27262,14.3058824 C107.87309,14.2352941 107.473561,14.1882353 107.050529,14.1176471 C107.285546,12.5647059 107.567568,11.0117647 107.826087,9.43529412 Z" id="Shape" fill="#FFFFFF" fill-rule="nonzero"></path>
                <path d="M95.9341951,10.9411765 C96.6627497,11.6705882 97.6028202,12.2352941 98.2373678,13.0352941 C98.4253819,14.2588235 98.4253819,15.5294118 98.5663925,16.7764706 C97.9553467,17.4588235 97.3443008,18.1647059 96.7567568,18.8705882 C97.6733255,20.4941176 98.613396,22.0941176 99.506463,23.7176471 C99.8119859,23.7176471 100.117509,23.7176471 100.423032,23.7176471 C100.470035,24.2588235 100.493537,24.8 100.540541,25.3647059 C99.2009401,25.4823529 97.8613396,25.5764706 96.5217391,25.6470588 C96.4982374,25.0823529 96.4512338,24.5411765 96.4277321,24 C96.7567568,23.9764706 97.0857814,23.9529412 97.4148061,23.9529412 C96.5217391,22.3764706 95.6521739,20.8 94.7591069,19.2470588 C93.6075206,19.3647059 92.4559342,19.4588235 91.3043478,19.5294118 C91.4453584,21.1529412 91.586369,22.7764706 91.6568743,24.4 C91.9388954,24.3764706 92.2444183,24.3764706 92.5264395,24.3529412 C92.573443,24.9176471 92.6204465,25.4588235 92.6674501,26 C91.2573443,26.0941176 89.8472385,26.2352941 88.4606345,26.3294118 C88.413631,25.7647059 88.3431257,25.2235294 88.2961222,24.6588235 C88.6956522,24.6352941 89.0951821,24.5882353 89.5182139,24.5647059 C89.2596945,20.8 88.9306698,17.0352941 88.6956522,13.2705882 C88.2961222,13.2941176 87.8965922,13.2941176 87.4970623,13.3176471 C87.4500588,12.7764706 87.4030552,12.2117647 87.3560517,11.6705882 C90.1762632,11.3882353 93.06698,11.1529412 95.9341951,10.9411765 Z" id="Shape" fill="#004A87" fill-rule="nonzero"></path>
                <path d="M79.2009401,11.0117647 C79.7649824,12.5176471 80.3290247,14 80.8695652,15.5058824 C80.3290247,15.6941176 79.8119859,15.9058824 79.2714454,16.0941176 C79.7884841,20.5411765 80.2585194,24.9882353 80.7755582,29.4352941 C79.2244418,30 77.6968273,30.5882353 76.1457109,31.1529412 C74.9236193,29.3647059 73.6780259,27.5764706 72.479436,25.7647059 C72.7144536,27.9294118 72.9494712,30.0941176 73.2314924,32.2588235 C71.680376,32.8235294 70.1292597,33.3882353 68.5781434,33.9764706 C66.039953,30.2823529 63.5487662,26.5411765 61.0105758,22.8470588 C60.4700353,23.0588235 59.9059929,23.2705882 59.3654524,23.4823529 C58.8014101,21.9764706 58.2608696,20.4705882 57.6733255,18.9647059 C60.1175088,18.0470588 62.5616921,17.1529412 64.9823737,16.2352941 C65.546416,17.7411765 66.1104583,19.2470588 66.6509988,20.7529412 C66.2984724,20.8705882 65.9694477,21.0117647 65.6169213,21.1294118 C66.4159812,22.2588235 67.2385429,23.3882353 68.0376028,24.5411765 C67.7085781,21.5294118 67.3090482,18.5176471 66.9800235,15.5058824 C67.9670975,15.1529412 68.9306698,14.7764706 69.8942421,14.4 C71.6333725,16.8941176 73.3254994,19.4117647 75.0411281,21.9058824 C74.9001175,20.5411765 74.7121034,19.2 74.5710928,17.8588235 C74.2655699,17.9529412 73.9365452,18.0470588 73.6310223,18.1176471 C73.06698,16.6352941 72.5264395,15.1294118 71.9623972,13.6470588 C74.4065805,12.8 76.7802585,11.8588235 79.2009401,11.0117647 Z" id="Shape" fill="#FFFFFF" fill-rule="nonzero"></path>
                <path d="M109.165687,11.2 C112.761457,11.8352941 116.380729,12.3764706 119.976498,13.0117647 C119.835488,13.8823529 119.694477,14.7294118 119.529965,15.6 C118.848414,15.4823529 118.166863,15.3647059 117.508813,15.2470588 C117.532315,14.9411765 117.579318,14.6117647 117.60282,14.2823529 C115.816686,14 114.030552,13.6705882 112.220917,13.3882353 C111.938895,14.9882353 111.656874,16.5647059 111.421857,18.1647059 C112.808461,18.4 114.195065,18.6352941 115.581669,18.8705882 C115.511163,19.3176471 115.46416,19.7647059 115.393655,20.1882353 C113.983549,20.0470588 112.573443,19.7411765 111.163337,19.5529412 C110.92832,21.2470588 110.646298,22.9176471 110.340776,24.5882353 C112.12691,24.9411765 113.936545,25.2 115.746181,25.5058824 C115.816686,25.1058824 115.910693,24.7058824 115.981199,24.3294118 C116.66275,24.4470588 117.367803,24.5647059 118.049354,24.6588235 C117.908343,25.6 117.743831,26.5176471 117.579318,27.4588235 C113.960047,26.9176471 110.364277,26.2823529 106.745006,25.6705882 C106.839013,25.1294118 106.93302,24.5882353 107.027027,24.0470588 C107.426557,24.1176471 107.826087,24.2117647 108.249119,24.2823529 C108.907168,20.5411765 109.494712,16.7764706 110.152761,13.0352941 C109.72973,12.9647059 109.3302,12.8705882 108.907168,12.8 C108.977673,12.2823529 109.07168,11.7411765 109.165687,11.2 Z" id="Shape" fill="#004A87" fill-rule="nonzero"></path>
                <path d="M94.7121034,12.7294118 C95.2526439,12.6823529 95.746181,13.2235294 96.1927145,13.5058824 C96.239718,14.4470588 96.3102233,15.3647059 96.4277321,16.3058824 C96.0987074,16.7294118 95.746181,17.1294118 95.3936545,17.5529412 C93.9835488,17.6470588 92.573443,17.7882353 91.1633373,17.8352941 C91.092832,16.2352941 90.9518214,14.6117647 90.8108108,13.0117647 C92.1034078,12.8941176 93.4195065,12.7529412 94.7121034,12.7294118 Z" id="Shape" fill="#FFFFFF" fill-rule="nonzero"></path>
                <path d="M78.2373678,13.0352941 C78.4253819,13.5529412 78.613396,14.0705882 78.8249119,14.5882353 C78.4253819,14.7294118 78.0023502,14.8941176 77.6028202,15.0352941 C78.0728555,19.5058824 78.5663925,23.9764706 79.0599295,28.4235294 C78.1903643,28.7294118 77.3207991,29.0588235 76.4512338,29.3647059 C74.5240893,26.5647059 72.6204465,23.7411765 70.7168038,20.9176471 C71.092832,24.3058824 71.4453584,27.6941176 71.8448884,31.0823529 C70.9753231,31.4117647 70.1057579,31.7411765 69.212691,32.0705882 C66.6745006,28.3764706 64.1128085,24.7058824 61.5981199,20.9882353 C61.1750881,21.1294118 60.7755582,21.2705882 60.3525264,21.4117647 C60.1645123,20.8941176 59.9764982,20.4 59.7649824,19.8823529 C61.1750881,19.3411765 62.6086957,18.8 64.0423032,18.3058824 C64.2303173,18.8235294 64.4183314,19.3176471 64.6298472,19.8352941 C64.2303173,19.9764706 63.8307873,20.1176471 63.4312573,20.2823529 C65.546416,23.5294118 67.8730905,26.6352941 70.0352526,29.8588235 C69.5887192,25.4352941 69.0716804,21.0352941 68.5546416,16.6352941 C68.8601645,16.5176471 69.1656874,16.4 69.4712103,16.2588235 C72.0094007,19.9058824 74.5475911,23.5764706 77.0622797,27.2470588 C76.6627497,23.3882353 76.239718,19.5529412 75.7931845,15.7176471 C75.4171563,15.8588235 75.0411281,15.9764706 74.6650999,16.1176471 C74.4770858,15.6 74.2890717,15.0823529 74.0775558,14.5411765 C75.4641598,14.0705882 76.8507638,13.5294118 78.2373678,13.0352941 Z" id="Shape" fill="#004A87" fill-rule="nonzero"></path>
                <path d="M128.460635,13.6705882 C128.907168,13.6941176 129.3302,13.9058824 129.72973,14.0941176 C131.304348,14.8 132.902468,15.4588235 134.477086,16.1647059 C134.712103,19.1529412 134.900118,22.1647059 135.252644,25.1529412 C135.675676,24.0941176 136.122209,23.0352941 136.568743,21.9764706 C136.192714,21.8117647 135.816686,21.6470588 135.417156,21.4823529 C136.0047,20.1176471 136.615746,18.7529412 137.179788,17.3882353 C139.365452,18.2352941 141.480611,19.2235294 143.619271,20.1411765 C143.031727,21.6235294 142.373678,23.0823529 141.73913,24.5647059 C141.363102,24.4 141.010576,24.2352941 140.634548,24.0941176 C138.918919,28.0705882 137.179788,32.0705882 135.46416,36.0470588 C134.007051,35.4823529 132.620447,34.8235294 131.163337,34.2352941 C130.787309,30.8705882 130.481786,27.4823529 130.176263,24.1176471 C129.565217,25.4117647 129.024677,26.7294118 128.437133,28.0470588 C128.907168,28.2588235 129.353702,28.4470588 129.800235,28.6588235 C129.189189,30.0470588 128.578143,31.4588235 127.990599,32.8470588 C125.757932,31.9058824 123.548766,30.9411765 121.3396,29.9764706 C121.974148,28.5411765 122.585194,27.0823529 123.219741,25.6470588 C123.619271,25.7882353 123.9953,25.9294118 124.39483,26.0941176 C125.522914,23.5764706 126.556992,21.0588235 127.685076,18.5411765 C127.309048,18.3764706 126.93302,18.2117647 126.556992,18.0470588 C127.191539,16.5411765 127.802585,15.0823529 128.460635,13.6705882 Z" id="Shape" fill="#FFFFFF" fill-rule="nonzero"></path>
                <path d="M94.6180964,14.2823529 C94.6415981,14.8705882 94.6650999,15.4352941 94.6886016,16.0235294 C94.0305523,16.0705882 93.3490012,16.0941176 92.6909518,16.1411765 C92.6439483,15.5764706 92.5969448,15.0352941 92.5499412,14.4705882 C93.2314924,14.4 93.9365452,14.3294118 94.6180964,14.2823529 Z" id="Shape" fill="#004A87" fill-rule="nonzero"></path>
                <path d="M129.377203,15.6470588 C130.552291,16.1882353 131.72738,16.6588235 132.902468,17.2 C133.372503,21.6705882 133.819036,26.1176471 134.312573,30.5882353 C135.440658,27.8588235 136.639248,25.1764706 137.814336,22.4470588 C137.978848,22.0705882 138.096357,21.6705882 138.237368,21.2705882 C137.931845,21.1529412 137.626322,21.0352941 137.297297,20.8941176 C137.508813,20.3764706 137.720329,19.8588235 137.931845,19.3647059 C139.153937,19.8823529 140.352526,20.4 141.551116,20.9411765 C141.3396,21.4352941 141.128085,21.9058824 140.940071,22.4 C140.564042,22.2588235 140.164512,22.1411765 139.788484,22 C138.072855,25.9764706 136.333725,29.9529412 134.641598,33.9294118 C133.960047,33.6705882 133.301998,33.4117647 132.643948,33.1294118 C132.12691,28.3294118 131.609871,23.5294118 131.139835,18.7529412 C129.635723,22.0705882 128.225617,25.4352941 126.768508,28.7764706 C127.144536,28.9176471 127.520564,29.0823529 127.896592,29.2235294 C127.685076,29.7411765 127.473561,30.2588235 127.262045,30.7764706 C126.016451,30.2117647 124.770858,29.6941176 123.525264,29.1529412 C123.760282,28.6352941 123.971798,28.1176471 124.206816,27.6235294 C124.582844,27.7882353 124.958872,27.9764706 125.3349,28.1411765 C126.839013,24.6588235 128.366627,21.1529412 129.87074,17.6705882 C129.494712,17.5058824 129.095182,17.3411765 128.719154,17.1764706 C128.907168,16.6588235 129.142186,16.1647059 129.377203,15.6470588 Z" id="Shape" fill="#004A87" fill-rule="nonzero"></path>
                <path d="M49.0951821,24.9176471 C52.7614571,27.6235294 56.3572268,30.3764706 60,33.1058824 C60.4465335,32.8 60.893067,32.4941176 61.3396005,32.1882353 C62.279671,33.4823529 63.1962397,34.7764706 64.1363102,36.0470588 C62.0916569,37.5058824 60.0470035,38.9882353 58.0258519,40.4470588 C57.132785,39.2235294 56.1927145,38.0235294 55.4171563,36.7294118 C55.6991774,36.5411765 56.0047004,36.3529412 56.2867215,36.1647059 C56.0282021,35.9294118 55.7931845,35.6941176 55.5346651,35.4588235 C54.6180964,36.1176471 53.7015276,36.7764706 52.7849589,37.4352941 C52.8789659,37.7647059 52.9964747,38.0941176 53.0904818,38.4235294 C53.3960047,38.2352941 53.7015276,38.0235294 54.0070505,37.8352941 C54.9001175,39.0352941 55.746181,40.2588235 56.6392479,41.4588235 C54.8296122,42.7529412 53.0434783,44.0470588 51.2573443,45.3411765 C51.0223267,45.4588235 50.7638073,45.7647059 50.5757932,45.4352941 C49.6592244,44.2588235 48.8366627,43.0117647 47.9670975,41.8117647 C48.3901293,41.5058824 48.813161,41.2 49.2361927,40.8941176 C47.8730905,36.5176471 46.439483,32.1647059 45.0763807,27.7882353 C46.3454759,26.8705882 47.6615746,25.8117647 49.0951821,24.9176471 Z" id="Shape" fill="#FFFFFF" fill-rule="nonzero"></path>
                <path d="M151.844888,25.5529412 C153.654524,26.9411765 155.487662,28.2823529 157.273796,29.6470588 C157.391304,31.1058824 157.673325,32.5882353 157.696827,34.0705882 C157.06228,35.1294118 156.216216,36.0470588 155.511163,37.0588235 C154.077556,36 152.643948,34.9176471 151.210341,33.8352941 C151.633373,33.2470588 152.079906,32.6823529 152.502938,32.0941176 C151.915394,31.6470588 151.304348,31.2 150.716804,30.7529412 C149.07168,32.9647059 147.403055,35.1529412 145.757932,37.3647059 C146.345476,37.8117647 146.956522,38.2588235 147.544066,38.7058824 C148.061105,38.0235294 148.578143,37.3647059 149.07168,36.6588235 C150.575793,37.6470588 151.985899,38.7764706 153.419506,39.8823529 C152.573443,40.9647059 151.750881,42.0705882 150.92832,43.1764706 C149.353702,43.3647059 147.779083,43.5764706 146.204465,43.7176471 C144.53584,42.4 142.79671,41.1529412 141.104583,39.8588235 C140.893067,38.3529412 140.658049,36.8470588 140.540541,35.3411765 C142.867215,32.2588235 145.146886,29.1529412 147.520564,26.0941176 C148.977673,25.9294118 150.411281,25.7411765 151.844888,25.5529412 Z" id="Shape" fill="#FFFFFF" fill-rule="nonzero"></path>
                <path d="M48.9776733,26.9176471 C49.5887192,27.2235294 50.1057579,27.6941176 50.6698002,28.0941176 C53.7720329,30.4235294 56.8977673,32.7294118 60,35.0588235 C60.3055229,34.8470588 60.6110458,34.6352941 60.9165687,34.4235294 C61.2220917,34.8705882 61.5511163,35.3176471 61.8566392,35.7411765 C60.7050529,36.5647059 59.5299647,37.4117647 58.3783784,38.2352941 C58.0728555,37.7882353 57.7438308,37.3647059 57.4383079,36.9176471 C57.7908343,36.6352941 58.1668625,36.3529412 58.519389,36.0941176 C57.5323149,35.3647059 56.5452409,34.6352941 55.5581669,33.9294118 C54.1010576,35.0117647 52.6204465,36.0470588 51.1398355,37.1294118 C51.4923619,38.3058824 51.8683901,39.4823529 52.2444183,40.6588235 C52.6204465,40.3764706 52.9964747,40.1176471 53.3725029,39.8352941 C53.7015276,40.2823529 54.0070505,40.7294118 54.3125734,41.1764706 C53.2314924,41.9529412 52.1504113,42.7294118 51.0458284,43.5058824 C50.7403055,43.0588235 50.4112808,42.6117647 50.1057579,42.1647059 C50.3642773,41.9764706 50.6462985,41.8117647 50.9283196,41.6235294 C49.5652174,37.2235294 48.1786134,32.8470588 46.8155112,28.4470588 C47.5440658,27.9529412 48.2021152,27.3647059 48.9776733,26.9176471 Z" id="Shape" fill="#004A87" fill-rule="nonzero"></path>
                <path d="M151.398355,27.2 C152.831962,28.2823529 154.26557,29.3647059 155.699177,30.4235294 C155.86369,31.4352941 156.0047,32.4705882 156.145711,33.5058824 C155.816686,33.9529412 155.487662,34.3764706 155.135135,34.8235294 C154.571093,34.4 154.007051,33.9764706 153.46651,33.5529412 C153.725029,33.2 153.960047,32.8705882 154.218566,32.5176471 C154.054054,32 154.054054,31.2470588 153.560517,30.9411765 C152.784959,30.3058824 151.938895,29.7411765 151.139835,29.1294118 C150.6698,29.1764706 150.199765,29.2235294 149.753231,29.2705882 C147.87309,31.7647059 146.039953,34.2823529 144.112808,36.7529412 C144.183314,37.2705882 144.253819,37.7882353 144.324324,38.3058824 C145.240893,38.9882353 146.157462,39.6705882 147.074031,40.3764706 C147.544066,40.2823529 148.061105,40.2352941 148.507638,40.0705882 C148.860165,39.7411765 149.165687,39.3176471 149.447709,38.9176471 C150.011751,39.3411765 150.575793,39.7411765 151.116334,40.1647059 C150.740306,40.6823529 150.364277,41.2 149.964747,41.7176471 C148.860165,41.8352941 147.779083,42 146.674501,42.1176471 C145.287897,41.0823529 143.901293,40.0470588 142.514689,38.9882353 C142.39718,37.9294118 142.279671,36.8705882 142.209166,35.8117647 C144.277321,33.1294118 146.274971,30.4 148.319624,27.6941176 C149.377203,27.4823529 150.387779,27.3411765 151.398355,27.2 Z" id="Shape" fill="#004A87" fill-rule="nonzero"></path>
                <path d="M48.6956522,28.9647059 C49.212691,29.0823529 49.5652174,29.4117647 49.9882491,29.7176471 C51.4688602,30.8705882 52.9964747,31.9529412 54.4770858,33.1058824 C53.2314924,33.9764706 52.0094007,34.8941176 50.7638073,35.7647059 C50.0822562,33.5058824 49.212691,31.2705882 48.6956522,28.9647059 Z" id="Shape" fill="#FFFFFF" fill-rule="nonzero"></path>
                <path d="M50.8813161,31.9529412 C51.3748531,32.3294118 51.8683901,32.7058824 52.3384254,33.0823529 C52.0329025,33.3176471 51.7273796,33.5294118 51.4218566,33.7647059 C51.3043478,33.3882353 51.186839,33.0352941 51.092832,32.6588235 C51.0223267,32.4235294 50.9518214,32.1882353 50.8813161,31.9529412 Z" id="Shape" fill="#004A87" fill-rule="nonzero"></path>
                <path d="M108.108108,32.4 C117.978848,33.5529412 127.567568,36.9411765 136.0047,42.2117647 C145.757932,48.2823529 153.936545,56.8705882 159.506463,66.9176471 C164.324324,75.5294118 167.215041,85.2235294 167.896592,95.0823529 C168.484136,102.8 167.685076,110.635294 165.640423,118.094118 C162.53819,129.458824 156.380729,139.929412 148.014101,148.235294 C140.117509,156.094118 130.293772,162 119.60047,165.2 C112.479436,167.341176 104.958872,168.305882 97.5088132,168.047059 C87.0740306,167.694118 76.733255,164.894118 67.5675676,159.929412 C56.4277321,153.905882 47.027027,144.729412 40.7520564,133.717647 C41.880141,133.058824 43.0082256,132.4 44.1833137,131.811765 C48.6251469,139.694118 54.8766157,146.564706 62.1621622,151.905882 C73.06698,159.905882 86.53349,164.258824 100.047004,164.188235 C100,163.505882 99.9529965,162.823529 99.8824912,162.141176 C99.9764982,162.823529 100.094007,163.482353 100.188014,164.164706 C100.681551,164.164706 101.175088,164.141176 101.668625,164.141176 C101.551116,163.505882 101.386604,162.823529 101.386604,162.188235 C101.410106,161.458824 101.668625,160.729412 101.903643,160.023529 C103.33725,160.376471 104.629847,161.152941 105.522914,162.352941 C105.969448,162.941176 106.157462,163.552941 106.839013,163.929412 C106.674501,162.776471 106.392479,161.717647 106.674501,160.541176 C107.027027,158.611765 108.037603,156.964706 109.800235,156.047059 C110.105758,157.835294 110.199765,159.670588 110.035253,161.482353 C109.964747,162.211765 109.682726,162.847059 109.377203,163.482353 C110.152761,163.341176 110.92832,163.223529 111.703878,163.105882 C126.204465,160.494118 139.553467,152.611765 149.024677,141.341176 C154.148061,135.294118 158.119859,128.282353 160.681551,120.752941 C164.982374,108.211765 165.240893,94.3764706 161.433608,81.6941176 C158.519389,71.9294118 153.231492,62.8941176 146.157462,55.5764706 C138.824912,47.9529412 129.588719,42.1647059 119.506463,38.9411765 C105.405405,34.4235294 89.6122209,34.9176471 75.9106933,40.5647059 C75.0411281,40.9176471 74.1480611,41.2235294 73.3725029,41.7647059 C73.1139835,41.8352941 72.8554642,41.9058824 72.5969448,41.9764706 C72.3149236,42.1176471 72.0329025,42.2352941 71.7743831,42.3764706 C71.5393655,42.4941176 71.3043478,42.6117647 71.092832,42.7294118 C70.9283196,42.8235294 70.7638073,42.8941176 70.5757932,42.9882353 C69.8237368,43.3647059 69.0951821,43.7647059 68.3666275,44.1647059 C68.4371328,44.9647059 68.4841363,45.7647059 68.5311398,46.5647059 C68.413631,45.7882353 68.3431257,44.9882353 68.2491187,44.2117647 C63.172738,47.0588235 58.2608696,50.8235294 54.1480611,55.0588235 C53.3254994,54 52.6674501,52.8470588 52.0094007,51.6941176 C53.6545241,49.9529412 55.5111633,48.3764706 57.3678026,46.8705882 C65.6169213,40.2352941 75.4171563,35.5764706 85.7814336,33.4117647 C93.0904818,31.8352941 100.681551,31.5058824 108.108108,32.4 Z" id="Shape" fill="#C9C9CD" fill-rule="nonzero"></path>
                <path d="M119.576968,38.8705882 C129.659224,42.0941176 138.895417,47.8588235 146.227967,55.5058824 C153.301998,62.8235294 158.589894,71.8588235 161.504113,81.6235294 C165.311398,94.3058824 165.029377,108.164706 160.752056,120.682353 C158.190364,128.188235 154.218566,135.2 149.095182,141.270588 C139.623972,152.541176 126.274971,160.4 111.774383,163.035294 C112.26792,158.470588 112.032902,153.741176 111.515864,149.2 C111.304348,147.247059 110.998825,145.270588 110.857814,143.317647 C110.857814,142.729412 110.787309,142 111.257344,141.552941 C111.915394,140.870588 112.714454,140.305882 113.46651,139.741176 C116.216216,137.858824 119.20094,136.188235 122.279671,134.917647 C122.53819,138.423529 122.726204,141.905882 122.444183,145.435294 C122.209166,148.517647 121.504113,151.905882 119.788484,154.541176 C118.895417,155.952941 117.555817,156.847059 116.80376,158.329412 C118.566392,158.4 120,157.6 121.386604,156.611765 C123.9953,154.658824 126.157462,152.094118 127.450059,149.082353 C129.776733,143.835294 131.186839,137.952941 132.737955,132.423529 C132.925969,131.411765 133.983549,131.317647 134.782609,131.011765 C139.717979,129.6 144.888367,128.894118 149.823737,127.458824 C150.575793,127.2 151.539365,126.964706 152.103408,126.4 C152.549941,124.235294 152.526439,121.670588 150.951821,119.929412 C149.635723,118.705882 147.685076,118.188235 146.392479,116.941176 C146.016451,115.270588 146.603995,113.294118 147.027027,111.670588 C148.037603,111.129412 149.07168,110.658824 149.72973,109.670588 C150.317274,108.847059 150.340776,107.788235 149.964747,106.847059 C149.283196,105.152941 147.779083,103.835294 146.321974,102.823529 C146.839013,102 147.497062,101.152941 147.215041,100.117647 C146.650999,98.5647059 144.253819,98.1411765 143.807286,96.5176471 C143.290247,94.6117647 143.642773,92.5647059 143.219741,90.6117647 C144.112808,89.8588235 144.958872,89.1058824 145.616921,88.1176471 C146.839013,86.3294118 147.379553,83.9529412 146.956522,81.8352941 C146.839013,81.3176471 146.298472,81.3411765 145.992949,81.6470588 C144.700353,82.8470588 143.619271,84.0941176 141.903643,84.7058824 C141.363102,83.5058824 140.916569,82.2588235 140.39953,81.0352941 C137.884841,75.0117647 134.735605,69.1294118 130.599295,64.0705882 C126.298472,58.7764706 120.79906,54.4705882 114.594595,51.6470588 C106.745006,48.0470588 98.1433608,46.7294118 89.5652174,46.4235294 C88.9541716,46.4470588 88.413631,46.3058824 87.9435958,46.8 C86.8625147,47.8588235 86.2044653,49.4352941 85.4759107,50.7529412 C84.3478261,50.3294118 83.266745,49.8117647 82.3031727,49.1294118 C79.2244418,46.9647059 77.4618096,43.8352941 76.0047004,40.4470588 C89.6592244,34.8470588 105.475911,34.3529412 119.576968,38.8705882 Z" id="Shape" fill="#FFFFFF" fill-rule="nonzero"></path>
                <path d="M164.676851,36.0941176 C167.73208,39.6941176 170.787309,43.3411765 173.86604,46.9411765 C172.432432,48.2117647 170.951821,49.4352941 169.47121,50.6588235 C168.319624,49.2941176 167.168038,47.9294118 165.992949,46.5647059 C166.227967,46.3529412 166.462985,46.1411765 166.698002,45.9529412 C166.227967,45.3882353 165.73443,44.8235294 165.240893,44.2588235 C164.817861,44.6352941 164.371328,45.0117647 163.948296,45.3882353 C164.841363,46.4470588 165.710928,47.5058824 166.627497,48.5411765 C165.499412,49.5764706 164.324324,50.5176471 163.172738,51.5058824 C162.256169,50.4470588 161.363102,49.3882353 160.470035,48.3058824 C159.952996,48.7294118 159.459459,49.1529412 158.942421,49.5764706 C159.412456,50.1411765 159.882491,50.6823529 160.376028,51.2470588 C160.658049,51.0588235 161.010576,50.6352941 161.363102,50.6352941 C162.561692,51.9058824 163.619271,53.2941176 164.770858,54.6117647 C163.243243,55.9058824 161.715629,57.1764706 160.211516,58.4705882 C157.132785,54.8470588 154.054054,51.2470588 151.022327,47.6 C152.244418,46.5882353 153.46651,45.5764706 154.641598,44.5411765 C154.923619,44.8470588 155.20564,45.1529412 155.487662,45.4588235 C157.579318,43.6941176 159.647474,41.9058824 161.762632,40.1647059 C161.504113,39.8352941 161.245593,39.5294118 160.987074,39.2 C162.232667,38.1411765 163.454759,37.1058824 164.676851,36.0941176 Z" id="Shape" fill="#FFFFFF" fill-rule="nonzero"></path>
                <path d="M164.53584,38.3764706 C166.909518,41.1529412 169.283196,43.9294118 171.586369,46.7529412 C170.92832,47.2941176 170.27027,47.8588235 169.612221,48.4235294 C169.165687,47.8823529 168.695652,47.3647059 168.249119,46.8235294 C168.484136,46.6117647 168.742656,46.4 168.977673,46.1882353 C167.802585,44.8 166.627497,43.3882353 165.428907,42.0235294 C164.206816,43.0823529 162.93772,44.1176471 161.715629,45.1764706 C162.632197,46.2352941 163.525264,47.3176471 164.441833,48.4 C164.089307,48.7058824 163.73678,49.0117647 163.384254,49.3176471 C162.491187,48.2352941 161.574618,47.2 160.705053,46.0941176 C159.341951,47.1529412 158.049354,48.2823529 156.733255,49.4117647 C157.884841,50.8 159.059929,52.1411765 160.188014,53.5294118 C160.540541,53.2941176 160.869565,53.0823529 161.19859,52.8470588 C161.645123,53.3647059 162.091657,53.9058824 162.53819,54.4235294 C161.809636,55.0352941 161.081081,55.6470588 160.376028,56.2588235 C158.00235,53.4588235 155.628672,50.6823529 153.278496,47.8588235 C153.701528,47.5294118 154.124559,47.1764706 154.547591,46.8470588 C154.80611,47.1529412 155.06463,47.4823529 155.323149,47.7882353 C158.237368,45.3411765 161.104583,42.8941176 164.018801,40.4470588 C163.783784,40.0941176 163.525264,39.7411765 163.290247,39.3882353 C163.713278,39.0352941 164.112808,38.6823529 164.53584,38.3764706 Z" id="Shape" fill="#004A87" fill-rule="nonzero"></path>
                <path d="M31.7273796,40.2117647 C32.9964747,41.2 34.1715629,42.2823529 35.3936545,43.2941176 C35.0411281,43.7176471 34.6886016,44.1176471 34.3125734,44.5411765 C36.4042303,46.3529412 38.519389,48.1176471 40.6110458,49.9058824 C41.1045828,49.3411765 41.5746181,48.7529412 42.0446533,48.1882353 C41.3396005,47.5764706 40.6345476,46.9882353 39.9294947,46.3764706 C41.1045828,45.0117647 42.2561692,43.6235294 43.4312573,42.2823529 C43.6427732,42.4941176 43.8542891,42.7294118 44.0423032,42.9647059 C44.0658049,43.6 43.9952996,44.2588235 43.9482961,44.8941176 L43.5017626,44.5647059 C43.0317274,45.1294118 42.5381904,45.7176471 42.0446533,46.2823529 C42.6321974,46.7764706 43.1962397,47.2705882 43.7837838,47.7411765 C43.6897767,48.2352941 43.7132785,48.6588235 43.3607521,49.0588235 C42.4911868,50.0941176 41.5981199,51.1294118 40.7285546,52.1411765 C37.8378378,49.6705882 34.9236193,47.2235294 32.0564042,44.7529412 C32.4089307,44.3294118 32.7614571,43.9058824 33.1374853,43.4823529 C32.7144536,43.1294118 32.2914219,42.7529412 31.8918919,42.4 C30.787309,43.6705882 29.706228,44.9647059 28.6251469,46.2352941 C29.0481786,46.5882353 29.4712103,46.9411765 29.8942421,47.2941176 C30.1762632,46.9647059 30.4582844,46.6588235 30.7403055,46.3529412 C33.6075206,48.8470588 36.5217391,51.2941176 39.4359577,53.7647059 C39.1539365,54.0941176 38.8954172,54.4 38.613396,54.7294118 C39.012926,55.0588235 39.4124559,55.5058824 39.9059929,55.6941176 C41.1985899,54.2823529 42.4441833,52.7529412 43.666275,51.2705882 C43.7367803,52.0235294 43.8072855,52.7764706 43.8542891,53.5294118 C42.5616921,55.0352941 41.2925969,56.5411765 40,58.0470588 C38.8014101,57.0117647 37.6028202,56 36.4042303,54.9882353 C36.6627497,54.6352941 36.8977673,54.3058824 37.1562867,53.9529412 C35.0411281,52.2117647 32.9964747,50.3764706 30.8578143,48.6352941 C30.5992949,48.9411765 30.3407756,49.2705882 30.0822562,49.5764706 C28.8366627,48.5647059 27.6380729,47.5058824 26.3924794,46.4705882 C28.1551116,44.4 29.9412456,42.3058824 31.7273796,40.2117647 Z" id="Shape" fill="#FFFFFF" fill-rule="nonzero"></path>
                <path d="M46.3219741,40.3294118 C46.7685076,43.6470588 46.9095182,46.7764706 48.1081081,49.9529412 C48.0846063,47.7176471 47.3325499,45.2705882 47.7790834,43.0588235 C47.9670975,43.0823529 48.1551116,43.1058824 48.3431257,43.1058824 C48.5311398,44.7529412 48.7191539,46.3764706 49.0716804,48 C49.9412456,52.1411765 51.6098707,56.1647059 54.4300823,59.3647059 C57.3678026,62.7294118 61.2925969,64.8470588 65.5699177,65.9764706 C70.1762632,67.1764706 75.1586369,67.3176471 79.8824912,66.9176471 C85.640423,66.3764706 91.5628672,66.3058824 97.226792,67.5294118 C100.658049,68.3294118 104.13631,69.6941176 106.580494,72.3294118 C108.601645,74.4705882 109.518214,77.3176471 109.588719,80.2117647 C109.612221,80.8941176 109.494712,81.5529412 109.306698,82.2117647 C108.601645,84.6352941 107.121034,86.8 105.005875,88.1882353 C102.820212,89.6235294 100.258519,90.1411765 97.6498237,90.0470588 C99.7649824,89.3647059 101.645123,88.2352941 102.162162,85.9294118 C100.188014,87.4117647 97.9788484,88.3294118 95.5581669,88.7529412 C97.132785,87.6235294 98.4253819,86.3529412 98.613396,84.3058824 C96.6862515,86.2588235 94.1950646,87.5058824 91.5628672,88.2117647 C93.46651,87.0823529 95.2526439,85.6470588 95.440658,83.2941176 C93.5840188,85.1529412 91.2573443,86.3764706 88.7426557,87.0823529 C90.4347826,85.9529412 91.9153937,84.6352941 92.1034078,82.4705882 C90.1762632,84.4 87.7085781,85.6705882 85.0998825,86.3529412 C87.027027,85.2 88.7426557,83.8117647 88.9776733,81.4352941 C87.0740306,83.3882353 84.6298472,84.5882353 82.0446533,85.3411765 C83.9247944,84.2352941 85.6169213,82.8705882 85.8754407,80.5411765 C83.9482961,82.4235294 81.4571093,83.6941176 78.8484136,84.2823529 C80.7285546,83.2 82.5146886,81.8117647 82.7262045,79.4823529 C80.7285546,81.2 78.213866,82.1647059 75.7931845,83.1294118 C77.7438308,82 79.4594595,80.6352941 79.7884841,78.2588235 C77.8143361,80.1882353 75.2996475,81.3882353 72.6439483,82.0705882 C74.5710928,80.9882353 76.3807286,79.5764706 76.6392479,77.2 C74.6650999,79.1294118 72.0564042,80.4 69.3772033,81.0117647 C71.3278496,79.8588235 73.1609871,78.5411765 73.3960047,76.0941176 C71.586369,77.9294118 69.2596945,79.0588235 66.8155112,79.7647059 C68.4841363,78.4941176 70.0352526,77.2235294 70.2467685,74.9882353 C68.5546416,76.6352941 66.5804935,77.9294118 64.2303173,78.4705882 C65.0293772,77.7411765 65.8284371,77.0823529 66.3454759,76.0941176 C66.6980024,75.4823529 66.7920094,74.8 66.9095182,74.1176471 C65.3584019,75.4823529 63.7367803,76.6117647 61.6921269,77.0823529 C62.1386604,76.6352941 62.5851939,76.2588235 62.8907168,75.6941176 C63.3137485,74.9176471 63.5017626,74 63.7132785,73.1294118 C62.5381904,74.2823529 61.2220917,75.1294118 59.7414806,75.7882353 C52.972973,70.8941176 48.319624,63.1058824 46.2514689,55.1058824 C45.7579318,53.0823529 45.2878966,50.8941176 45.4994125,48.8235294 C46.0634548,50.2588235 46.2749706,51.7882353 46.8860165,53.2 C46.1574618,49.6 45.6169213,46.0705882 45.8284371,42.4 C45.8754407,41.6235294 45.8754407,40.9411765 46.3219741,40.3294118 Z" id="Shape" fill="#FFFFFF" fill-rule="nonzero"></path>
                <path d="M73.2549941,41.7882353 C73.7955347,42.1647059 73.9835488,42.7058824 74.2890717,43.2705882 C75.4171563,45.4117647 76.6862515,47.5764706 78.2843713,49.4117647 C79.8354877,51.1529412 81.7391304,52.1647059 83.4782609,53.6470588 C82.867215,55.4352941 82.0211516,57.1764706 81.0810811,58.8235294 C80.7520564,59.3882353 80.3760282,60.0235294 79.8824912,60.4470588 C79.2009401,60.5176471 78.5898942,60.1176471 78.0493537,59.7647059 C76.6157462,58.7529412 75.440658,57.2705882 74.4770858,55.8117647 C71.9858989,51.9764706 70.787309,47.5294118 70.6227967,42.9647059 C70.787309,42.8705882 70.9518214,42.8 71.1398355,42.7058824 C71.3983549,43.5294118 71.7038778,44.3529412 72.1034078,45.1294118 C72.0564042,44.1882353 71.9623972,43.2705882 71.8213866,42.3529412 C72.1034078,42.2117647 72.3854289,42.0705882 72.6439483,41.9529412 C72.9259694,42.8470588 73.2314924,43.7176471 73.6545241,44.5411765 C73.560517,43.6 73.3490012,42.7058824 73.2549941,41.7882353 Z" id="Shape" fill="#FFFFFF" fill-rule="nonzero"></path>
                <path d="M71.8213866,42.3294118 C71.9388954,43.2470588 72.0564042,44.1882353 72.1034078,45.1058824 C71.7038778,44.3294118 71.3983549,43.5058824 71.1398355,42.6823529 C71.3513514,42.5647059 71.586369,42.4470588 71.8213866,42.3294118 Z" id="Shape" fill="#004A87" fill-rule="nonzero"></path>
                <path d="M68.2961222,44.1882353 C68.3901293,44.9647059 68.4606345,45.7647059 68.5781434,46.5411765 C69.1891892,50.3058824 69.6827262,53.8352941 71.680376,57.1764706 C73.3960047,59.9294118 75.9341951,62.3529412 78.3313749,64.5176471 C73.1139835,64.9647059 67.8495887,64.1882353 63.0787309,62 C59.60047,60.4235294 56.4982374,58.0705882 54.1480611,55.0588235 C58.2608696,50.8235294 63.172738,47.0588235 68.2961222,44.1882353 Z" id="Shape" fill="#FFFFFF" fill-rule="nonzero"></path>
                <path d="M89.9412456,49.5294118 C92.3149236,49.5529412 94.6886016,49.7411765 97.0622797,49.9764706 C105.19389,50.8470588 113.160987,53.1294118 119.952996,57.7882353 C126.180964,62.0235294 130.92832,67.9764706 134.430082,74.5882353 C126.298472,75.4823529 118.143361,76.4 110.035253,77.5294118 C109.87074,76.9176471 109.706228,76.3058824 109.541716,75.6941176 C116.380729,74.7058824 123.219741,73.8588235 130.058754,73.0352941 C127.426557,68.4235294 124.089307,64.1882353 119.905993,60.8705882 C116.192714,57.9058824 111.915394,55.7647059 107.379553,54.3764706 C102.232667,52.7764706 96.9917744,52.1647059 91.6333725,51.9529412 C90.7403055,51.8117647 90.1057579,52.9176471 89.6357227,53.5058824 C86.9800235,57.3647059 84.8883666,61.6705882 83.1257344,66 C82.3031727,66.0470588 81.4571093,66.1176471 80.6345476,66.1882353 C82.3266745,61.7411765 84.5123384,57.2941176 87.0035253,53.2235294 C87.8495887,51.9764706 88.7191539,50.4470588 89.9412456,49.5294118 Z" id="Shape" fill="#FFFFFF" fill-rule="nonzero"></path>
                <path d="M45.0998825,59.6470588 C45.6639248,61.1058824 46.2279671,62.5411765 46.93302,63.9294118 C46.0164512,65.0588235 45.2643948,66.4 44.5123384,67.6470588 C39.7884841,75.7176471 36.8742656,84.8235294 36.0282021,94.1411765 C35.3231492,102.188235 36.0752056,110.329412 38.3548766,118.094118 C39.0599295,120.329412 39.7179788,122.611765 40.7990599,124.705882 C39.8119859,125.811765 38.8719154,126.917647 37.8848414,128.023529 C32.2914219,115.741176 30.5522914,101.811765 32.8319624,88.4941176 C34.5945946,78.0705882 38.8249119,68.0941176 45.0998825,59.6470588 Z" id="Shape" fill="#C9C9CD" fill-rule="nonzero"></path>
                <path d="M46.9565217,63.9294118 C48.907168,67.8823529 51.6333725,71.3176471 54.6886016,74.4470588 C57.7908343,77.6 61.2455934,80.4 65.052879,82.6352941 C67.5440658,84.1411765 70.1762632,85.3411765 72.8554642,86.4235294 C72.0329025,90.4705882 71.9153937,94.5647059 72.9494712,98.5882353 C65.4524089,102.258824 58.5428907,107.552941 52.3384254,113.082353 C48.2961222,116.729412 44.4418331,120.588235 40.7990599,124.658824 C39.7414806,122.564706 39.0599295,120.282353 38.3548766,118.047059 C36.0752056,110.282353 35.3231492,102.141176 36.0282021,94.0941176 C36.8742656,84.7764706 39.7884841,75.6705882 44.5123384,67.6 C45.2878966,66.3764706 46.0164512,65.0588235 46.9565217,63.9294118 Z" id="Shape" fill="#FFFFFF" fill-rule="nonzero"></path>
                <path d="M135.135135,75.8588235 C136.545241,78.6823529 137.814336,81.5764706 138.918919,84.5411765 C137.508813,84.6823529 136.098707,84.8 134.688602,84.9647059 C132.925969,85.1764706 131.280846,84.6117647 129.518214,84.8 C128.554642,84.8705882 127.708578,85.2235294 126.815511,85.5764706 C126.086957,85.9058824 125.358402,85.9529412 124.582844,86.0235294 C121.269095,86.4 117.955347,86.7764706 114.641598,87.2235294 C113.913043,89.9529412 112.855464,92.5411765 111.280846,94.8941176 C109.565217,97.4823529 107.238543,99.6235294 104.183314,100.447059 C102.044653,100.964706 99.7179788,101.105882 97.5323149,100.823529 C94.1245593,100.447059 90.9753231,98.9411765 88.5076381,96.5647059 C87.6380729,95.7647059 86.93302,94.8235294 86.0869565,94.0235294 C85.8519389,93.7882353 85.5934195,93.9294118 85.2878966,94 C81.9976498,94.9882353 78.8014101,96.1176471 75.6286722,97.4588235 C74.8061105,94.1411765 74.9001175,90.8705882 75.2056404,87.4823529 C76.0517039,87.7647059 76.8977673,88.0470588 77.7438308,88.3529412 C77.5793184,90.3058824 77.6028202,92.2117647 78.0493537,94.1176471 C81.1515864,93.0352941 84.2068155,91.8588235 87.4030552,91.0117647 C88.6251469,92.4235294 89.7532315,93.8352941 91.2573443,94.9882353 C93.5135135,96.7529412 96.333725,97.7176471 99.2009401,97.7882353 C101.574618,97.8352941 103.854289,97.6470588 105.898942,96.3294118 C108.766157,94.5411765 110.6698,91.2705882 111.844888,88.1882353 C112.26792,87.2235294 112.455934,86.1647059 112.831962,85.2 C113.184489,85.0823529 113.560517,85.0352941 113.936545,84.9882353 C120.79906,84.1647059 127.685076,83.4352941 134.594595,82.8470588 C133.842538,80.8941176 133.019976,78.9882353 132.150411,77.1058824 C124.864865,77.8352941 117.579318,78.7058824 110.340776,79.7411765 C110.317274,79.4117647 110.293772,79.1058824 110.293772,78.7764706 C118.519389,77.5764706 126.815511,76.6352941 135.135135,75.8588235 Z" id="Shape" fill="#FFFFFF" fill-rule="nonzero"></path>
                <path d="M145.710928,84.1882353 C145.499412,86.5176471 143.713278,88.6823529 141.480611,89.3882353 C139.905993,89.9294118 138.26087,89.8352941 136.66275,89.4588235 C133.113984,88.6352941 129.588719,89.1764706 126.204465,90.4235294 C126.345476,89.1529412 126.556992,87.8823529 127.426557,86.8941176 C128.202115,86.0470588 129.3302,85.8117647 130.434783,85.8352941 C132.314924,85.9058824 134.195065,86.3764706 136.075206,86.5176471 C138.213866,86.7764706 140.423032,86.5647059 142.491187,85.9529412 C143.689777,85.6 144.676851,84.8941176 145.710928,84.1882353 Z" id="Shape" fill="#C9C9CD" fill-rule="nonzero"></path>
                <path d="M125.123384,87.3882353 C124.700353,89.1058824 124.582844,90.8470588 124.582844,92.6117647 C126.956522,91.2235294 129.753231,90 132.549941,90.0470588 C134.007051,90.0941176 135.111633,90.5647059 136.169213,91.5529412 C133.701528,92.1647059 131.46886,91.7176471 129.283196,93.2 C130.199765,94.6117647 132.056404,93.9529412 133.207991,94.8705882 C133.560517,95.8117647 133.631022,96.8941176 133.607521,97.9058824 C133.631022,98.4 133.325499,98.7058824 133.019976,99.0588235 C131.844888,100.235294 130.340776,100.8 129.259694,102.117647 C128.178613,103.411765 127.967098,105.223529 128.108108,106.847059 C128.249119,108.447059 128.202115,110 127.614571,111.529412 C127.074031,112.870588 126.110458,114.141176 125.358402,115.388235 C124.253819,117.176471 123.478261,119.129412 123.149236,121.2 C123.008226,122 122.914219,122.870588 122.561692,123.623529 C122.209166,124.423529 121.3396,124.870588 120.540541,125.105882 C119.20094,125.505882 117.790834,125.223529 116.615746,124.494118 C114.876616,123.411765 113.631022,121.482353 113.019976,119.576471 C112.338425,117.6 112.408931,115.6 112.714454,113.576471 C111.774383,113.647059 110.857814,113.929412 109.894242,113.929412 C110.058754,110.776471 110.481786,106.917647 112.408931,104.305882 C113.748531,102.423529 116.26322,101.717647 118.378378,102.752941 C119.835488,103.482353 120.517039,105.035294 120.940071,106.517647 C121.692127,109.317647 121.73913,112.282353 122.303173,115.129412 C122.514689,111.882353 122.53819,108.235294 121.3396,105.176471 C120.470035,102.941176 118.824912,101.411765 116.944771,100.023529 C118.40188,97.6705882 120.329025,95.9529412 121.3396,93.2470588 C122.021152,91.5529412 122.115159,89.6941176 122.702703,88 C123.149236,87.4117647 124.39483,87.5294118 125.123384,87.3882353 Z" id="Shape" fill="#FFFFFF" fill-rule="nonzero"></path>
                <path d="M121.73913,87.8117647 C120.752056,91.8117647 118.80141,95.4823529 116.028202,98.5176471 C111.210341,103.905882 104.324324,107.270588 99.6474736,112.941176 C96.6627497,116.470588 94.9001175,120.752941 94.1245593,125.270588 C91.6333725,125.058824 89.2361927,124.635294 87.0035253,123.458824 C84.3478261,122.094118 82.3501763,119.882353 80.987074,117.247059 C80.2585194,115.929412 79.8354877,114.494118 79.2479436,113.129412 C78.0023502,114.094118 77.226792,115.364706 76.239718,116.564706 C74.4770858,118.823529 72.4559342,121.223529 70.0822562,122.870588 C68.2491187,124.094118 66.13396,124.894118 63.9247944,124.376471 C64.0188014,123.694118 64.1363102,123.035294 64.4888367,122.447059 C65.5934195,120.447059 67.0505288,118.588235 68.4606345,116.776471 C72.079906,112.352941 75.9811986,108.117647 80.2820212,104.376471 C82.5381904,102.447059 84.7943596,100.705882 87.7085781,99.9058824 C89.6827262,99.4823529 91.3043478,100.494118 93.0904818,101.129412 C95.8871915,102.211765 98.8014101,102.329412 101.762632,102.164706 C104.465335,101.952941 107.097532,100.941176 109.236193,99.2470588 C112.032902,97.0117647 113.913043,93.9529412 115.229142,90.6588235 C115.534665,89.9294118 115.746181,89.1294118 116.098707,88.4470588 C117.955347,88.1176471 119.858989,87.8823529 121.73913,87.8117647 Z" id="Shape" fill="#C9C9CD" fill-rule="nonzero"></path>
                <path d="M141.057579,90.7529412 C141.551116,91.1058824 141.73913,91.9058824 141.880141,92.4705882 C142.279671,94.4470588 142.444183,96.8705882 143.572268,98.6117647 C144.018801,99.3647059 144.723854,99.7176471 145.475911,100.094118 C145.19389,100.752941 144.911868,101.247059 144.230317,101.552941 C142.561692,102.352941 140.39953,102.329412 138.566392,102.658824 C138.848414,101.670588 138.777908,101.247059 138.354877,100.329412 C139.224442,99.4823529 140.211516,99.6941176 141.316099,99.3882353 C140.846063,99.0352941 140.493537,98.6588235 139.882491,98.6588235 C139.059929,98.6588235 138.166863,98.3764706 137.696827,99.2705882 C137.109283,100.470588 137.250294,102.117647 137.226792,103.435294 C133.936545,105.176471 131.797885,107.788235 128.813161,109.905882 C129.165687,107.858824 129.3302,105.741176 129.87074,103.741176 C131.985899,102.564706 133.678026,100.823529 134.218566,98.4 C134.477086,97.1058824 134.500588,95.5764706 134.030552,94.3058824 C133.654524,93.9529412 133.113984,93.8117647 132.66745,93.5764706 C132.949471,93.3411765 133.137485,93.1058824 133.513514,93.0352941 C134.594595,92.8470588 135.699177,92.9411765 136.80376,92.8 C137.297297,92.1882353 137.790834,91.5294118 138.472385,91.1294118 C139.224442,90.6352941 140.211516,90.4941176 141.057579,90.7529412 Z" id="Shape" fill="#FFFFFF" fill-rule="nonzero"></path>
                <path d="M84.6063455,95.9529412 C85.4054054,95.7411765 86.0869565,96.0470588 86.3219741,96.8470588 C78.4958872,99.6941176 70.6462985,103.317647 63.7837838,108.070588 C56.6862515,113.011765 50.8813161,119.788235 45.5229142,126.494118 C44.5123384,127.717647 43.5487662,129.105882 42.3501763,130.141176 C39.4829612,132.517647 36.4042303,134.211765 33.3725029,136.305882 C38.0258519,129.905882 43.2432432,123.882353 48.907168,118.329412 C55.2056404,112.188235 62.1856639,106.494118 69.8237368,102.094118 C74.4770858,99.4352941 79.3419506,97.2235294 84.6063455,95.9529412 Z" id="Shape" fill="#C9C9CD" fill-rule="nonzero"></path>
                <path d="M88.813161,98.3529412 C87.520564,99.0352941 86.1574618,99.5529412 84.8648649,100.258824 C80.1175088,102.752941 75.9811986,105.952941 71.9153937,109.411765 C67.7790834,112.988235 64.3008226,117.223529 61.0810811,121.623529 C60.4700353,122.423529 59.9294947,123.294118 59.2244418,124.023529 C58.8954172,124.4 58.4958872,124.376471 58.0493537,124.494118 C54.1245593,125.176471 50.293772,126.588235 46.7685076,128.447059 C48.0611046,126 49.5887192,123.670588 51.3278496,121.482353 C55.9341951,115.717647 61.5511163,111.294118 67.6850764,107.270588 C73.6075206,103.341176 80.1175088,99.7411765 86.9095182,97.5764706 C87.8495887,97.3647059 88.2961222,97.5294118 88.813161,98.3529412 Z" id="Shape" fill="#C9C9CD" fill-rule="nonzero"></path>
                <path d="M143.713278,103.388235 C145.358402,103.788235 147.144536,104.611765 148.155112,106.023529 C148.883666,107.035294 149.142186,108.588235 148.202115,109.552941 C147.074031,110.682353 145.287897,111.317647 143.877791,112.047059 C142.068155,112.964706 140.587544,114.4 139.294947,115.929412 C137.156287,118.517647 135.511163,121.623529 134.148061,124.682353 C131.492362,130.729412 129.635723,137.294118 127.943596,143.670588 C127.144536,146.894118 125.969448,150.070588 123.901293,152.729412 C124.418331,150.776471 125.146886,149.058824 125.405405,147.035294 C124.888367,148.211765 124.300823,149.341176 123.525264,150.376471 C123.689777,149.223529 124.065805,148.141176 124.277321,147.011765 C124.582844,145.388235 124.700353,143.764706 124.888367,142.141176 C125.522914,136.682353 126.368978,131.152941 127.826087,125.858824 C128.507638,123.341176 129.353702,120.894118 130.082256,118.376471 C128.202115,120.329412 127.215041,123.129412 126.462985,125.670588 C125.170388,130.258824 124.53584,135.152941 124.112808,139.905882 C123.454759,137.152941 123.172738,134.352941 123.102233,131.552941 C123.031727,126.705882 123.713278,121.694118 125.499412,117.176471 C126.53349,114.376471 128.67215,111.858824 130.693302,109.694118 C132.855464,107.482353 135.323149,105.317647 138.119859,103.952941 C139.835488,103.035294 141.833137,102.941176 143.713278,103.388235 Z" id="Shape" fill="#C9C9CD" fill-rule="nonzero"></path>
                <path d="M108.860165,107.294118 C109.400705,109.035294 109.048179,110.894118 108.883666,112.658824 C108.225617,117.505882 106.980024,122.282353 105.358402,126.894118 C104.018801,130.658824 102.373678,134.282353 100.352526,137.741176 C98.9894242,136.164706 97.5323149,134.705882 95.8166863,133.505882 C95.6521739,132.235294 95.5111633,130.964706 95.5111633,129.670588 C95.4641598,125.670588 96.5452409,121.694118 98.5663925,118.235294 C101.057579,113.905882 104.93537,110.258824 108.860165,107.294118 Z" id="Shape" fill="#C9C9CD" fill-rule="nonzero"></path>
                <path d="M145.546416,112.447059 C145.992949,114.352941 144.911868,115.741176 145.005875,117.670588 C146.53349,118.658824 148.719154,119.152941 149.87074,120.564706 C150.787309,121.694118 150.622797,122.964706 150.575793,124.329412 C145.358402,125.058824 140.517039,123.976471 135.534665,125.082353 C135.86369,123.388235 136.380729,121.741176 137.226792,120.211765 C138.965922,117.011765 141.692127,114.8 144.700353,112.870588 C144.958872,112.658824 145.240893,112.541176 145.546416,112.447059 Z" id="Shape" fill="#FFFFFF" fill-rule="nonzero"></path>
                <path d="M110.763807,115.905882 C111.233843,116.141176 111.46886,116.705882 111.633373,117.176471 C112.244418,118.917647 112.408931,121.011765 113.160987,122.705882 C113.678026,123.952941 114.782609,124.941176 115.957697,125.576471 C117.884841,126.588235 120.023502,126.847059 122.162162,126.988235 C122.13866,128.4 122.044653,129.835294 122.021152,131.247059 C117.696827,133.952941 114.218566,137.6 109.894242,140.282353 C110.223267,139.176471 110.434783,138.070588 110.387779,136.917647 C110.293772,133.082353 108.155112,129.858824 108.084606,126.094118 C107.990599,122.564706 109.377203,119.435294 109.964747,115.835294 C110.246769,115.858824 110.505288,115.858824 110.763807,115.905882 Z" id="Shape" fill="#FFFFFF" fill-rule="nonzero"></path>
                <path d="M78.613396,115.835294 C79.6944771,117.364706 79.6944771,119.529412 78.6368978,121.058824 C77.2972973,123.082353 74.947121,124.470588 72.6204465,125.082353 C71.6333725,125.388235 70.693302,125.223529 69.7297297,124.988235 C71.6333725,123.694118 73.4430082,122.164706 74.9236193,120.4 C76.1692127,118.917647 77.3913043,117.364706 78.613396,115.835294 Z" id="Shape" fill="#C9C9CD" fill-rule="nonzero"></path>
                <path d="M81.386604,120.823529 C81.6921269,123.2 81.786134,125.952941 82.8202115,128.141176 C83.4547591,129.505882 84.5123384,130.517647 85.7579318,131.317647 C86.6274971,131.952941 87.8025852,132.447059 88.4841363,133.294118 C88.5546416,133.929412 88.4606345,134.611765 88.413631,135.247059 C85.3113984,132.588235 82.0211516,130.047059 78.4958872,128 C77.0387779,127.152941 75.6051704,126.588235 73.960047,126.188235 C75.840188,125.435294 77.6028202,124.588235 79.106933,123.2 C79.9529965,122.494118 80.5170388,121.529412 81.386604,120.823529 Z" id="Shape" fill="#C9C9CD" fill-rule="nonzero"></path>
                <path d="M83.2197415,123.082353 C86.4864865,125.364706 90.3877791,126.705882 94.3830787,126.776471 C94.3830787,128.917647 94.3830787,131.082353 94.3830787,133.223529 C91.2338425,132.658824 87.7555817,131.388235 85.4524089,129.058824 C83.8542891,127.388235 83.1257344,125.364706 83.2197415,123.082353 Z" id="Shape" fill="#C9C9CD" fill-rule="nonzero"></path>
                <path d="M144.864865,125.364706 C141.927145,127.247059 138.025852,127.788235 134.618096,128.188235 C134.853114,127.058824 135.346651,126.211765 136.498237,125.811765 C139.106933,124.917647 142.162162,125.647059 144.864865,125.364706 Z" id="Shape" fill="#FFFFFF" fill-rule="nonzero"></path>
                <path d="M76.3572268,129.647059 C82.279671,132.164706 87.3090482,136.282353 91.2338425,141.364706 C95.840188,147.364706 98.8484136,154.588235 99.9529965,162.070588 C100.023502,162.752941 100.070505,163.435294 100.117509,164.117647 C86.6039953,164.164706 73.1374853,159.835294 62.2326675,151.835294 C54.9236193,146.517647 48.6956522,139.623529 44.253819,131.741176 C49.0011751,129.270588 54.1480611,127.623529 59.506463,127.152941 C65.1703878,126.564706 71.0458284,127.411765 76.3572268,129.647059 Z" id="Shape" fill="#FFFFFF" fill-rule="nonzero"></path>
                <path d="M107.003525,127.317647 C107.708578,130.658824 108.554642,133.741176 108.601645,137.176471 C108.578143,138.847059 108.343126,140.494118 107.779083,142.070588 C107.191539,143.788235 106.227967,145.317647 105.123384,146.729412 C104.13631,145.529412 102.890717,144.705882 101.551116,143.952941 C101.081081,143.623529 100.517039,143.505882 100.540541,142.823529 C100.493537,141.152941 100.940071,139.458824 101.574618,137.905882 C102.890717,134.635294 104.958872,131.529412 106.509988,128.352941 C106.674501,128.023529 106.839013,127.670588 107.003525,127.317647 Z" id="Shape" fill="#C9C9CD" fill-rule="nonzero"></path>
                <path d="M90.293772,133.741176 C91.4923619,133.576471 92.7849589,134.023529 93.8895417,134.494118 C96.0987074,135.435294 98.1903643,136.776471 99.8354877,138.517647 C99.7414806,139.976471 99.5299647,141.388235 99.2009401,142.8 C97.6968273,142.494118 96.2632197,142.282353 94.947121,141.435294 C93.5135135,140.517647 92.0094007,139.529412 90.8813161,138.235294 C89.9882491,137.2 89.4477086,135.952941 89.5182139,134.588235 C89.5417156,134.117647 89.800235,133.788235 90.293772,133.741176 Z" id="Shape" fill="#C9C9CD" fill-rule="nonzero"></path>
                <path d="M164.841363,134.211765 C166.227967,135.152941 167.614571,136.094118 169.024677,137.035294 C168.719154,137.505882 168.437133,137.976471 168.108108,138.423529 C169.024677,140.258824 170.011751,142.047059 170.951821,143.882353 C171.163337,144.282353 171.351351,144.729412 171.656874,145.058824 C172.12691,145.529412 172.761457,145.882353 173.325499,146.282353 C173.584019,145.929412 173.842538,145.576471 174.101058,145.223529 C175.487662,146.188235 176.874266,147.105882 178.26087,148.047059 C176.733255,150.329412 175.20564,152.564706 173.678026,154.847059 C172.26792,153.929412 170.881316,152.964706 169.494712,152.047059 C169.72973,151.670588 169.964747,151.317647 170.199765,150.941176 C169.494712,150.494118 168.719154,149.741176 167.849589,149.717647 C165.569918,149.505882 163.266745,149.270588 160.987074,149.035294 C160.681551,149.505882 160.376028,149.952941 160.070505,150.423529 C158.6604,149.482353 157.250294,148.541176 155.840188,147.576471 C157.250294,145.505882 158.636898,143.435294 160.047004,141.364706 C161.316099,142.235294 162.608696,143.105882 163.877791,143.976471 C163.807286,144.141176 163.713278,144.329412 163.642773,144.494118 C164.418331,144.541176 165.19389,144.611765 165.969448,144.658824 C165.59342,143.976471 165.217391,143.294118 164.817861,142.635294 L164.559342,143.035294 C163.266745,142.164706 161.974148,141.294118 160.681551,140.4 C162.044653,138.329412 163.454759,136.282353 164.841363,134.211765 Z" id="Shape" fill="#FFFFFF" fill-rule="nonzero"></path>
                <path d="M165.240893,136.588235 C165.73443,136.894118 166.204465,137.223529 166.674501,137.576471 C166.486486,137.858824 166.321974,138.117647 166.13396,138.4 C167.33255,140.776471 168.601645,143.105882 169.800235,145.482353 C170.035253,145.905882 170.199765,146.305882 170.622797,146.564706 C171.633373,147.270588 172.714454,147.952941 173.725029,148.682353 C173.960047,148.305882 174.218566,147.952941 174.477086,147.576471 C174.947121,147.882353 175.440658,148.211765 175.910693,148.517647 C175.017626,149.858824 174.124559,151.176471 173.207991,152.494118 C172.737955,152.188235 172.244418,151.858824 171.774383,151.552941 C172.009401,151.2 172.244418,150.847059 172.479436,150.494118 C171.656874,149.929412 170.834313,149.388235 170.035253,148.823529 C169.541716,148.494118 169.118684,148.141176 168.507638,148.094118 C165.73443,147.788235 162.961222,147.576471 160.188014,147.247059 C159.976498,147.529412 159.764982,147.788235 159.576968,148.070588 C159.106933,147.741176 158.613396,147.411765 158.143361,147.082353 C158.895417,145.952941 159.647474,144.847059 160.39953,143.741176 C160.893067,144.047059 161.386604,144.376471 161.880141,144.705882 C161.692127,144.964706 161.504113,145.247059 161.3396,145.505882 C163.59577,145.741176 165.851939,146 168.108108,146.141176 C167.050529,144.164706 166.016451,142.164706 164.958872,140.188235 C164.770858,140.447059 164.582844,140.705882 164.39483,140.964706 C163.901293,140.658824 163.431257,140.329412 162.93772,140 C163.713278,138.847059 164.465335,137.694118 165.240893,136.588235 Z" id="Shape" fill="#004A87" fill-rule="nonzero"></path>
                <path d="M36.8977673,137.647059 C38.4488837,139.623529 39.9529965,141.670588 41.480611,143.670588 C40.2350176,144.635294 38.9659224,145.576471 37.720329,146.541176 C37.5323149,146.352941 37.3678026,146.141176 37.1797885,145.952941 C34.8296122,147.788235 32.4089307,149.576471 30.0352526,151.411765 C30.4582844,152.023529 30.9048179,152.611765 31.3513514,153.2 C33.7720329,151.411765 36.1457109,149.552941 38.5663925,147.764706 C38.4253819,147.552941 38.2843713,147.341176 38.1433608,147.152941 C39.4124559,146.211765 40.6580494,145.270588 41.9036428,144.282353 C43.5487662,146.4 45.146886,148.541176 46.7685076,150.658824 C45.4289072,151.694118 44.0893067,152.705882 42.7262045,153.741176 C42.4206816,153.341176 42.1386604,152.964706 41.8331375,152.564706 C39.0834313,154.658824 36.333725,156.752941 33.5840188,158.823529 C31.9858989,158.658824 30.4112808,158.447059 28.8366627,158.235294 C27.5440658,156.541176 26.2279671,154.823529 24.9588719,153.129412 C24.5123384,152.635294 24.7943596,151.905882 24.8648649,151.317647 C25.0763807,150.258824 25.1233843,149.129412 25.4289072,148.094118 C26.0869565,147.411765 26.93302,146.917647 27.6615746,146.329412 C29.6122209,144.823529 31.6333725,143.388235 33.5370153,141.835294 C33.4430082,141.435294 33.0904818,141.058824 32.8789659,140.705882 C34.2420682,139.670588 35.5581669,138.635294 36.8977673,137.647059 Z" id="Shape" fill="#FFFFFF" fill-rule="nonzero"></path>
                <path d="M36.5217391,139.858824 C37.4148061,141.011765 38.2608696,142.164706 39.1539365,143.317647 C38.6839013,143.670588 38.2373678,144.023529 37.7673325,144.4 C37.6028202,144.188235 37.4383079,143.976471 37.2972973,143.788235 C34.3360752,145.976471 31.4453584,148.211765 28.5076381,150.423529 C28.4371328,150.894118 28.3666275,151.364706 28.2726204,151.835294 C28.9306698,152.705882 29.5652174,153.576471 30.2467685,154.447059 C30.5757932,154.988235 31.3983549,154.917647 31.9623972,155.058824 C34.2185664,153.317647 36.4982374,151.6 38.7779083,149.882353 C39.3889542,149.411765 40.0705053,148.964706 40.6345476,148.447059 C40.5875441,148.164706 40.4700353,147.905882 40.3290247,147.623529 C40.7755582,147.294118 41.1985899,146.964706 41.6451234,146.611765 C42.5851939,147.835294 43.5487662,149.058824 44.4418331,150.305882 C43.9717979,150.658824 43.5252644,151.011765 43.0552291,151.364706 C42.7497062,150.964706 42.4441833,150.564706 42.1386604,150.188235 C39.0834313,152.494118 36.0517039,154.823529 32.9964747,157.105882 C31.9153937,156.964706 30.8343126,156.847059 29.7532315,156.658824 C28.6486486,155.152941 27.4970623,153.670588 26.3689777,152.188235 C26.4864865,151.105882 26.6509988,150.023529 26.7920094,148.941176 C29.8472385,146.611765 32.9024677,144.305882 35.9576968,141.976471 C35.6756757,141.623529 35.4171563,141.294118 35.1351351,140.941176 C35.4171563,140.729412 35.7226792,140.494118 36.0047004,140.282353 C36.1692127,140.141176 36.333725,140 36.5217391,139.858824 Z" id="Shape" fill="#004A87" fill-rule="nonzero"></path>
                <path d="M108.789659,143.082353 C110.12926,145.788235 110.434783,148.847059 110.011751,151.811765 C109.72973,153.364706 109.189189,154.8 107.920094,155.811765 C106.862515,154.4 105.710928,153.152941 104.13631,152.282353 C104.79436,148.870588 106.768508,146.564706 108.437133,143.647059 C108.578143,143.458824 108.67215,143.270588 108.789659,143.082353 Z" id="Shape" fill="#C9C9CD" fill-rule="nonzero"></path>
                <path d="M95.4876616,143.623529 C97.6028202,143.670588 99.7649824,144.023529 101.59812,145.105882 C102.632197,145.717647 103.548766,146.517647 103.948296,147.694118 C104.300823,148.941176 103.9953,150.117647 103.454759,151.270588 C101.316099,151.270588 99.2244418,150.564706 97.7438308,148.988235 C96.2867215,147.505882 95.6991774,145.647059 95.4876616,143.623529 Z" id="Shape" fill="#C9C9CD" fill-rule="nonzero"></path>
                <path d="M155.393655,148.023529 C156.991774,149.717647 158.542891,151.435294 160.117509,153.129412 C158.989424,154.164706 157.884841,155.247059 156.709753,156.235294 C156.192714,155.952941 155.816686,155.411765 155.417156,154.964706 L154.923619,155.364706 C156.850764,157.552941 158.871915,159.647059 160.822562,161.811765 C161.151586,161.529412 161.480611,161.247059 161.809636,160.964706 C162.93772,162.211765 164.112808,163.411765 165.217391,164.682353 C163.172738,166.541176 161.175088,168.4 159.130435,170.258824 C158.00235,169.011765 156.850764,167.788235 155.699177,166.541176 C156.028202,166.235294 156.357227,165.952941 156.686251,165.647059 C154.735605,163.529412 152.761457,161.411765 150.810811,159.270588 C150.622797,159.388235 150.434783,159.529412 150.27027,159.670588 C150.693302,160.117647 151.116334,160.588235 151.539365,161.035294 C150.434783,162.117647 149.283196,163.129412 148.13161,164.188235 C146.556992,162.494118 145.005875,160.776471 143.431257,159.082353 C147.262045,155.576471 151.06933,152.047059 154.900118,148.517647 C155.06463,148.352941 155.229142,148.188235 155.393655,148.023529 Z" id="Shape" fill="#FFFFFF" fill-rule="nonzero"></path>
                <path d="M155.299647,150.423529 C156.122209,151.341176 156.968273,152.211765 157.790834,153.105882 C157.438308,153.435294 157.06228,153.788235 156.709753,154.117647 C156.26322,153.647059 155.816686,153.176471 155.393655,152.705882 C154.453584,153.576471 153.513514,154.447059 152.573443,155.317647 C155.276146,158.305882 158.025852,161.247059 160.752056,164.188235 C161.057579,163.905882 161.386604,163.6 161.692127,163.294118 C162.068155,163.717647 162.444183,164.117647 162.843713,164.541176 C161.692127,165.694118 160.493537,166.752941 159.294947,167.835294 C158.918919,167.411765 158.519389,166.988235 158.143361,166.564706 C158.448884,166.258824 158.777908,165.976471 159.083431,165.670588 C156.357227,162.729412 153.631022,159.764706 150.904818,156.823529 C149.964747,157.670588 149.001175,158.541176 148.084606,159.435294 C148.507638,159.905882 148.954172,160.376471 149.377203,160.823529 C149.001175,161.152941 148.648649,161.482353 148.296122,161.835294 C147.450059,160.964706 146.627497,160.047059 145.804935,159.152941 C148.93067,156.258824 152.103408,153.341176 155.299647,150.423529 Z" id="Shape" fill="#004A87" fill-rule="nonzero"></path>
                <path d="M47.520564,151.505882 C49.3537015,152.847059 51.0693302,154.352941 52.8789659,155.741176 C52.2914219,158.870588 51.7038778,162 51.1163337,165.129412 C51.8683901,164.188235 52.6204465,163.247059 53.3725029,162.305882 C53.0434783,162.023529 52.7144536,161.717647 52.3854289,161.435294 C53.3725029,160.188235 54.359577,158.964706 55.346651,157.717647 C57.2737955,159.270588 59.2009401,160.823529 61.1280846,162.352941 C60.0705053,163.670588 59.012926,164.988235 57.9788484,166.305882 C57.626322,166.047059 57.2972973,165.788235 56.9447709,165.529412 C54.1010576,169.129412 51.2103408,172.682353 48.3431257,176.258824 C47.027027,175.247059 45.7579318,174.188235 44.4653349,173.176471 C45.052879,169.647059 45.7344301,166.164706 46.2749706,162.635294 C45.3584019,163.811765 44.3948296,164.964706 43.4782609,166.141176 C43.8777908,166.470588 44.2773208,166.8 44.6768508,167.105882 C43.7132785,168.4 42.6556992,169.647059 41.6451234,170.917647 C39.6709753,169.317647 37.6733255,167.741176 35.7226792,166.141176 C36.7802585,164.823529 37.8143361,163.505882 38.8954172,162.211765 C39.2244418,162.494118 39.5769683,162.752941 39.9059929,163.035294 C41.7156287,160.752941 43.5487662,158.517647 45.3349001,156.235294 C45.0293772,155.976471 44.7003525,155.741176 44.4183314,155.458824 C44.6063455,154.917647 45.0998825,154.447059 45.4524089,154 C46.1809636,153.176471 46.7920094,152.282353 47.520564,151.505882 Z" id="Shape" fill="#FFFFFF" fill-rule="nonzero"></path>
                <path d="M100.282021,152.070588 C102.749706,152.447059 104.770858,154.047059 106.204465,156.023529 C106.53349,156.494118 106.956522,157.058824 106.862515,157.670588 C106.768508,158.635294 106.157462,159.788235 105.19389,160.164706 C104.747356,160.352941 104.465335,160 104.112808,159.788235 C102.585194,158.635294 101.081081,157.623529 100.352526,155.764706 C99.8354877,154.517647 100,153.317647 100.282021,152.070588 Z" id="Shape" fill="#C9C9CD" fill-rule="nonzero"></path>
                <path d="M47.8025852,153.882353 C48.9306698,154.588235 49.8942421,155.552941 50.9753231,156.329412 C50.2702703,161.011765 49.4242068,165.694118 48.6721504,170.376471 C50.9048179,167.623529 53.0904818,164.870588 55.3231492,162.117647 C55.0176263,161.882353 54.7356052,161.623529 54.4300823,161.364706 C54.7826087,160.917647 55.1586369,160.470588 55.5111633,160 C56.5922444,160.847059 57.6733255,161.717647 58.7544066,162.588235 C58.4018801,163.058824 58.0258519,163.505882 57.6498237,163.976471 C57.3207991,163.717647 56.9917744,163.435294 56.6627497,163.176471 C53.7955347,166.752941 50.9048179,170.305882 48.0611046,173.905882 C47.4500588,173.458824 46.8390129,172.988235 46.2749706,172.494118 C47.027027,167.482353 47.920094,162.470588 48.7426557,157.458824 C46.3219741,160.423529 43.9482961,163.435294 41.5511163,166.4 C41.880141,166.682353 42.2091657,166.988235 42.5146886,167.270588 C42.1621622,167.717647 41.786134,168.164706 41.4336075,168.635294 C40.3055229,167.741176 39.2009401,166.847059 38.0728555,165.929412 C38.4488837,165.482353 38.8014101,165.011765 39.1774383,164.564706 C39.506463,164.847059 39.8589894,165.105882 40.2115159,165.388235 C42.7262045,162.258824 45.2408931,159.152941 47.7320799,156 C47.3795535,155.741176 47.0505288,155.458824 46.6980024,155.2 C47.0740306,154.776471 47.4030552,154.305882 47.8025852,153.882353 Z" id="Shape" fill="#004A87" fill-rule="nonzero"></path>
                <path d="M142.209166,159.552941 C143.149236,160.964706 143.9953,162.423529 144.911868,163.835294 C144.559342,164.070588 144.183314,164.305882 143.830787,164.517647 C145.3349,167.011765 146.909518,169.458824 148.460635,171.929412 C148.813161,171.694118 149.165687,171.482353 149.541716,171.247059 C150.481786,172.658824 151.351351,174.094118 152.244418,175.529412 C149.894242,176.988235 147.544066,178.447059 145.217391,179.929412 C144.324324,178.494118 143.431257,177.082353 142.53819,175.647059 C142.914219,175.411765 143.266745,175.2 143.642773,174.964706 C142.162162,172.470588 140.564042,170.023529 139.036428,167.576471 C138.6604,167.788235 138.284371,168.023529 137.884841,168.235294 C136.991774,166.8 136.098707,165.364706 135.182139,163.952941 C137.532315,162.470588 139.858989,160.988235 142.209166,159.552941 Z" id="Shape" fill="#FFFFFF" fill-rule="nonzero"></path>
                <path d="M141.668625,161.882353 C141.99765,162.352941 142.279671,162.823529 142.585194,163.317647 C142.232667,163.552941 141.856639,163.788235 141.504113,164.023529 C143.619271,167.435294 145.781434,170.823529 147.896592,174.235294 C148.27262,174 148.648649,173.764706 149.024677,173.529412 C149.3302,174.023529 149.612221,174.517647 149.917744,174.988235 C148.554642,175.858824 147.191539,176.705882 145.804935,177.552941 C145.499412,177.058824 145.19389,176.588235 144.888367,176.094118 C145.264395,175.858824 145.640423,175.647059 145.992949,175.411765 C143.924794,171.976471 141.73913,168.588235 139.623972,165.176471 C139.247944,165.411765 138.871915,165.647059 138.495887,165.882353 C138.190364,165.388235 137.884841,164.894118 137.579318,164.4 C138.918919,163.576471 140.258519,162.658824 141.668625,161.882353 Z" id="Shape" fill="#004A87" fill-rule="nonzero"></path>
                <path d="M62.5381904,162.776471 C65.0058754,163.952941 67.3795535,165.317647 69.8237368,166.494118 C69.1891892,168.070588 68.2961222,169.529412 67.5440658,171.035294 C67.1680376,170.847059 66.7920094,170.658824 66.3924794,170.447059 C65.0293772,173.011765 63.7367803,175.6 62.3501763,178.164706 C62.7262045,178.376471 63.1257344,178.588235 63.5017626,178.8 C62.7027027,180.282353 61.9506463,181.788235 61.1750881,183.270588 C58.7309048,182 56.2867215,180.705882 53.8190364,179.482353 C54.5475911,177.952941 55.3701528,176.470588 56.1222092,174.988235 C56.5217391,175.2 56.9212691,175.388235 57.2972973,175.6 C58.6368978,173.011765 60,170.447059 61.3160987,167.858824 C60.9400705,167.670588 60.5405405,167.458824 60.1645123,167.270588 C60.9635723,165.764706 61.7156287,164.235294 62.5381904,162.776471 Z" id="Shape" fill="#FFFFFF" fill-rule="nonzero"></path>
                <path d="M63.2902468,165.035294 C64.7708578,165.670588 66.1809636,166.517647 67.6145711,167.223529 C67.3325499,167.741176 67.0740306,168.258824 66.7920094,168.752941 C66.4159812,168.564706 66.0164512,168.376471 65.6169213,168.188235 C63.760282,171.741176 61.9271445,175.294118 60.0705053,178.847059 C60.4465335,179.058824 60.8460635,179.270588 61.2220917,179.482353 C60.9635723,180 60.6815511,180.494118 60.4230317,181.011765 C58.9894242,180.258824 57.5558167,179.529412 56.1222092,178.776471 C56.3807286,178.258824 56.6392479,177.741176 56.8977673,177.223529 C57.2972973,177.435294 57.6968273,177.623529 58.0728555,177.835294 C59.9294947,174.282353 61.7626322,170.705882 63.6427732,167.152941 C63.266745,166.941176 62.867215,166.752941 62.4911868,166.541176 C62.7497062,166.047059 62.9847239,165.529412 63.2902468,165.035294 Z" id="Shape" fill="#004A87" fill-rule="nonzero"></path>
                <path d="M131.186839,165.952941 C132.220917,166.329412 133.207991,166.823529 134.242068,167.223529 C134.571093,167.388235 135.06463,167.505882 135.20564,167.882353 C135.628672,168.705882 135.910693,169.6 136.286722,170.447059 C134.547591,171.176471 132.808461,171.882353 131.06933,172.611765 C130.92832,172.282353 130.787309,171.976471 130.646298,171.647059 C129.917744,171.952941 129.189189,172.258824 128.460635,172.564706 C128.67215,173.058824 128.860165,173.552941 129.07168,174.070588 C130.881316,173.364706 132.690952,172.611765 134.477086,171.835294 C135.534665,172.282353 136.568743,172.776471 137.579318,173.247059 C138.284371,174.988235 139.012926,176.705882 139.741481,178.447059 C139.858989,178.823529 140.070505,179.105882 139.882491,179.505882 C139.388954,180.823529 138.80141,182.094118 138.284371,183.411765 C136.051704,184.329412 133.819036,185.317647 131.562867,186.164706 C130.810811,186.047059 130.082256,185.623529 129.377203,185.341176 C128.695652,185.035294 127.849589,184.823529 127.238543,184.376471 C126.721504,183.411765 126.392479,182.352941 125.945946,181.341176 C127.685076,180.611765 129.447709,179.905882 131.186839,179.176471 C131.374853,179.670588 131.586369,180.164706 131.797885,180.635294 C132.526439,180.329412 133.254994,180.023529 133.983549,179.717647 C133.678026,178.941176 133.349001,178.141176 133.019976,177.364706 C131.374853,177.976471 129.776733,178.705882 128.13161,179.341176 C127.802585,179.505882 127.567568,179.317647 127.238543,179.223529 C126.321974,178.823529 125.405405,178.4 124.512338,177.976471 C123.971798,176.564706 123.360752,175.176471 122.773208,173.764706 C122.655699,173.411765 122.444183,173.105882 122.632197,172.729412 C123.125734,171.411765 123.73678,170.117647 124.253819,168.8 C126.580494,167.858824 128.883666,166.894118 131.186839,165.952941 Z" id="Shape" fill="#FFFFFF" fill-rule="nonzero"></path>
                <path d="M70.9283196,167.505882 C73.6075206,168.188235 76.239718,169.035294 78.8954172,169.788235 C78.4018801,171.388235 77.9553467,172.988235 77.4618096,174.588235 C77.1562867,174.541176 76.827262,174.470588 76.5217391,174.423529 C76.5922444,176.023529 76.6862515,177.6 76.733255,179.2 C77.6028202,177.882353 78.4958872,176.564706 79.3889542,175.223529 C79.0834313,175.129412 78.7779083,175.035294 78.4723854,174.941176 C78.9189189,173.317647 79.3889542,171.717647 79.8824912,170.094118 C82.6086957,170.847059 85.3113984,171.670588 88.0376028,172.447059 C87.5440658,174.070588 87.0975323,175.694118 86.6039953,177.317647 C85.9224442,177.105882 85.2173913,176.917647 84.5358402,176.729412 C81.8566392,180.729412 79.1304348,184.682353 76.4747356,188.682353 C74.9706228,188.305882 73.46651,187.811765 71.9623972,187.388235 C71.7508813,182.541176 71.6098707,177.694118 71.3748531,172.870588 C70.7638073,172.682353 70.1527615,172.517647 69.5417156,172.329412 C69.9647474,170.705882 70.4582844,169.105882 70.9283196,167.505882 Z" id="Shape" fill="#FFFFFF" fill-rule="nonzero"></path>
                <path d="M130.904818,167.882353 C131.891892,168.258824 132.855464,168.705882 133.86604,169.105882 C133.960047,169.317647 134.077556,169.529412 134.171563,169.764706 C133.537015,170.047059 132.878966,170.305882 132.244418,170.564706 C131.633373,170.282353 130.857814,169.717647 130.176263,170.070588 C129.3302,170.4 128.507638,170.752941 127.661575,171.105882 C127.027027,171.317647 126.909518,172.023529 126.603995,172.564706 C127.003525,173.576471 127.450059,174.588235 127.849589,175.6 C128.27262,175.717647 128.578143,175.976471 129.024677,175.764706 C130.693302,175.152941 132.314924,174.329412 134.007051,173.764706 C134.759107,173.929412 135.46416,174.329412 136.169213,174.588235 C136.827262,176.094118 137.414806,177.6 138.072855,179.105882 C137.673325,180.141176 137.273796,181.176471 136.850764,182.211765 C135.088132,182.941176 133.325499,183.647059 131.586369,184.4 C130.575793,183.952941 129.588719,183.505882 128.578143,183.058824 C128.437133,182.705882 128.27262,182.352941 128.13161,182 C128.789659,181.717647 129.47121,181.435294 130.152761,181.2 C130.505288,182 131.163337,182.188235 131.915394,182.564706 C133.043478,182.094118 134.148061,181.623529 135.276146,181.2 C135.46416,180.635294 136.0047,179.835294 135.722679,179.270588 C135.276146,178.141176 134.759107,177.035294 134.336075,175.882353 C134.077556,175.788235 133.819036,175.670588 133.537015,175.6 C133.137485,175.647059 132.761457,175.835294 132.385429,175.976471 C130.975323,176.588235 129.541716,177.152941 128.108108,177.764706 C127.403055,177.411765 126.698002,177.082353 125.969448,176.729412 C125.546416,175.741176 125.146886,174.752941 124.723854,173.764706 C124.606345,173.388235 124.39483,173.105882 124.582844,172.705882 C124.888367,171.788235 125.287897,170.917647 125.663925,170.023529 C127.379553,169.341176 129.118684,168.564706 130.904818,167.882353 Z" id="Shape" fill="#004A87" fill-rule="nonzero"></path>
                <path d="M72.1034078,169.529412 C73.6545241,169.952941 75.1821387,170.470588 76.7567568,170.847059 C76.6157462,171.411765 76.4512338,172 76.2867215,172.564706 C75.8636898,172.447059 75.440658,172.329412 75.0176263,172.211765 C75.0646298,176.094118 75.2761457,179.976471 75.3701528,183.858824 C77.5323149,180.635294 79.7649824,177.458824 81.880141,174.188235 C81.4571093,174.070588 81.0340776,173.952941 80.6110458,173.858824 C80.7520564,173.270588 80.893067,172.705882 81.0575793,172.141176 C82.6792009,172.611765 84.3243243,173.082353 85.9459459,173.552941 C85.7814336,174.117647 85.6169213,174.658824 85.4524089,175.223529 C84.8883666,175.082353 84.3478261,174.941176 83.7837838,174.776471 C81.0810811,178.752941 78.3783784,182.752941 75.6756757,186.729412 C74.9941246,186.541176 74.3125734,186.329412 73.6075206,186.141176 C73.46651,183.811765 73.46651,181.482353 73.3490012,179.152941 C73.1844888,176.635294 73.2549941,174.117647 73.0434783,171.6 C72.573443,171.482353 72.1269095,171.364706 71.6568743,171.247059 C71.7978848,170.682353 71.9388954,170.117647 72.1034078,169.529412 Z" id="Shape" fill="#004A87" fill-rule="nonzero"></path>
                <path d="M117.085781,171.247059 C118.284371,172 119.412456,172.847059 120.587544,173.623529 C120.893067,175.364706 121.245593,177.105882 121.551116,178.847059 C121.034078,179.529412 120.540541,180.211765 120.047004,180.894118 C120.752056,181.929412 121.480611,182.964706 122.185664,184 C122.749706,183.929412 123.313749,183.858824 123.877791,183.788235 C124.159812,185.435294 124.512338,187.082353 124.747356,188.729412 C122.256169,189.152941 119.788484,189.647059 117.320799,190.094118 C117.015276,188.588235 116.780259,187.082353 116.451234,185.576471 C116.615746,185.505882 116.780259,185.435294 116.944771,185.341176 C116.427732,184.658824 115.887192,183.976471 115.370153,183.294118 C115.041128,183.341176 114.735605,183.388235 114.430082,183.458824 C114.547591,184.235294 114.712103,185.011765 114.853114,185.788235 C115.158637,185.741176 115.440658,185.717647 115.746181,185.670588 C116.028202,187.2 116.333725,188.705882 116.568743,190.235294 C113.983549,190.729412 111.398355,191.2 108.813161,191.670588 C108.53114,190.023529 108.202115,188.376471 107.896592,186.729412 C108.319624,186.635294 108.742656,186.541176 109.165687,186.470588 C108.648649,183.623529 108.061105,180.776471 107.614571,177.929412 C107.168038,177.976471 106.745006,178.047059 106.298472,178.117647 C105.992949,176.470588 105.687427,174.8 105.358402,173.152941 C108.860165,172.494118 112.338425,171.858824 115.840188,171.2 C116.26322,171.129412 116.733255,170.988235 117.085781,171.247059 Z" id="Shape" fill="#FFFFFF" fill-rule="nonzero"></path>
                <path d="M89.1186839,172.470588 C94.1010576,172.635294 99.0834313,172.964706 104.065805,173.152941 C104.018801,175.176471 103.924794,177.2 103.783784,179.223529 C101.903643,179.152941 100.023502,179.035294 98.1433608,178.964706 C98.1433608,178.635294 98.1668625,178.305882 98.1903643,177.976471 C97.4148061,177.929412 96.6157462,177.905882 95.840188,177.858824 C95.8166863,178.470588 95.7931845,179.082353 95.7696827,179.694118 C97.2502938,179.788235 98.7309048,179.858824 100.211516,179.905882 C100.141011,181.505882 100.023502,183.082353 99.9764982,184.682353 C98.4958872,184.635294 97.0152761,184.564706 95.5346651,184.517647 C95.5111633,185.223529 95.4876616,185.929412 95.4641598,186.635294 C96.239718,186.658824 97.0387779,186.682353 97.8143361,186.705882 C97.8378378,186.282353 97.8378378,185.882353 97.8613396,185.458824 C99.7414806,185.529412 101.645123,185.576471 103.525264,185.741176 C103.431257,187.835294 103.313749,189.905882 103.243243,191.976471 C98.2373678,191.835294 93.2314924,191.482353 88.2256169,191.317647 C88.2726204,189.623529 88.3901293,187.929412 88.4606345,186.258824 C88.907168,186.258824 89.3537015,186.282353 89.7767333,186.282353 C89.8472385,183.388235 90.0352526,180.494118 90.1527615,177.576471 C89.7297297,177.552941 89.306698,177.529412 88.8836663,177.529412 C88.9541716,175.835294 89.0246769,174.164706 89.1186839,172.470588 Z" id="Shape" fill="#FFFFFF" fill-rule="nonzero"></path>
                <path d="M116.333725,172.776471 C117.226792,173.388235 118.119859,174 119.012926,174.635294 C119.271445,175.976471 119.529965,177.294118 119.764982,178.635294 C119.20094,179.435294 118.6604,180.211765 118.119859,180.988235 C119.271445,182.611765 120.446533,184.211765 121.621622,185.811765 C121.927145,185.764706 122.209166,185.717647 122.514689,185.647059 C122.632197,186.211765 122.726204,186.776471 122.843713,187.364706 C121.457109,187.647059 120.070505,187.882353 118.6604,188.141176 C118.542891,187.576471 118.448884,187.011765 118.331375,186.447059 C118.683901,186.376471 119.012926,186.282353 119.365452,186.211765 C118.26087,184.705882 117.179788,183.152941 116.075206,181.623529 C114.853114,181.788235 113.654524,182.047059 112.455934,182.282353 C112.761457,183.952941 113.090482,185.623529 113.396005,187.294118 C113.701528,187.270588 113.983549,187.223529 114.289072,187.2 C114.383079,187.788235 114.500588,188.352941 114.594595,188.941176 C113.113984,189.176471 111.656874,189.482353 110.199765,189.741176 C110.105758,189.152941 109.988249,188.588235 109.894242,188 C110.317274,187.929412 110.716804,187.858824 111.139835,187.788235 C110.434783,183.835294 109.706228,179.905882 108.954172,175.952941 C108.554642,176.023529 108.13161,176.117647 107.73208,176.188235 C107.614571,175.623529 107.520564,175.035294 107.403055,174.470588 C110.364277,173.882353 113.349001,173.341176 116.333725,172.776471 Z" id="Shape" fill="#004A87" fill-rule="nonzero"></path>
                <path d="M90.7168038,174.211765 C94.5945946,174.352941 98.4723854,174.588235 102.326675,174.752941 C102.303173,175.670588 102.256169,176.611765 102.162162,177.529412 C101.433608,177.505882 100.705053,177.482353 99.9764982,177.458824 C99.9764982,177.105882 99.9764982,176.752941 99.9764982,176.4 C98.0493537,176.352941 96.1222092,176.188235 94.2185664,176.141176 C94.1480611,177.858824 94.0540541,179.552941 94.0305523,181.270588 C95.4876616,181.317647 96.9682726,181.388235 98.4253819,181.482353 C98.4018801,181.976471 98.3783784,182.447059 98.3548766,182.941176 C96.8742656,182.894118 95.3936545,182.776471 93.8895417,182.729412 C93.8425382,184.541176 93.6780259,186.352941 93.6310223,188.164706 C95.5581669,188.258824 97.4853114,188.4 99.4359577,188.423529 C99.4594595,188 99.4594595,187.6 99.4829612,187.176471 C100.211516,187.2 100.963572,187.247059 101.692127,187.270588 C101.668625,188.282353 101.621622,189.270588 101.574618,190.282353 C97.720329,190.117647 93.86604,189.905882 90.0117509,189.741176 C90.0352526,189.176471 90.0587544,188.588235 90.0587544,188.023529 C90.4817861,188.047059 90.9048179,188.070588 91.3513514,188.094118 C91.6568743,184.094118 91.7273796,180.070588 91.9623972,176.070588 C91.5158637,176.047059 91.0693302,176 90.6227967,175.976471 C90.6698002,175.364706 90.693302,174.776471 90.7168038,174.211765 Z" id="Shape" fill="#004A87" fill-rule="nonzero"></path>
                <path d="M115.628672,174.729412 C116.075206,174.941176 116.474736,175.2 116.897767,175.435294 C117.085781,176.423529 117.250294,177.411765 117.438308,178.4 C117.132785,178.847059 116.850764,179.317647 116.545241,179.788235 C115.088132,180.047059 113.607521,180.329412 112.150411,180.611765 C111.774383,178.917647 111.492362,177.223529 111.186839,175.529412 C112.690952,175.270588 114.148061,174.941176 115.628672,174.729412 Z" id="Shape" fill="#FFFFFF" fill-rule="nonzero"></path>
                <path d="M115.393655,176.494118 C115.46416,177.058824 115.558167,177.647059 115.628672,178.211765 C114.923619,178.352941 114.218566,178.470588 113.513514,178.588235 C113.419506,178 113.325499,177.435294 113.207991,176.847059 C113.936545,176.705882 114.6651,176.588235 115.393655,176.494118 Z" id="Shape" fill="#004A87" fill-rule="nonzero"></path>
            </g>
        </g>
    </g>
</svg>