<?xml version="1.0" encoding="UTF-8"?>
<svg width="200px" height="200px" viewBox="0 0 200 200" version="1.1" xmlns="http://www.w3.org/2000/svg" xmlns:xlink="http://www.w3.org/1999/xlink">
    <!-- Generator: Sketch 51.3 (57544) - http://www.bohemiancoding.com/sketch -->
    <title>lemoyne-owen</title>
    <desc>Created with Sketch.</desc>
    <defs></defs>
    <g id="lemoyne-owen" stroke="none" stroke-width="1" fill="none" fill-rule="evenodd">
        <g id="lemoyne-owen_BGL" transform="translate(1.960784, 0.000000)">
            <g id="lemoyne-owen">
                <g id="g10" transform="translate(97.764986, 100.315045) scale(-1, 1) rotate(-180.000000) translate(-97.764986, -100.315045) translate(0.000000, 0.630089)" fill-rule="nonzero">
                    <g id="g12">
                        <path d="M22.1866354,49.9401878 L41.8313812,113.059667 L0,139.648278 L51.5377522,139.648278 L61.475845,170.860014 L79.5023923,150.746223 L97.0665299,199.298439 C97.0665299,199.298439 116.017896,150.05219 116.249148,150.976627 C116.47946,151.902004 134.738011,170.860014 134.738011,170.860014 L144.213694,140.110026 L194.826815,140.110026 L154.150941,112.13523 L173.564811,49.9401878 L149.992169,113.984104 L183.040494,136.179994 L142.36462,135.948649 L133.582692,164.15573 L114.862577,144.272343 L97.4134076,189.819904 L80.6579932,145.19678 L63.0933855,163.924386 L53.3870145,136.410398 L11.5556333,136.179994 L45.5291538,115.139885 L22.1866354,49.9401878" id="path14" fill="#53369A"></path>
                        <polyline id="path16" fill="#53369A" points="12.0179489 0 65.8669029 150.746223 97.4134076 115.37123 130.115795 150.746223 182.577991 0 123.414194 107.048476 97.4134076 81.6155526 73.0314783 106.585788 12.0179489 0"></polyline>
                        <polyline id="path18" fill="#53369A" points="36.2847224 28.2079271 50.1511815 53.1773156 91.9825627 77.4541759 97.4134076 71.4421386 104.231575 77.4541759 145.601205 52.8302051 159.698164 28.2079271 143.520879 49.9401878 104.694079 73.0607026 97.0665299 66.0243553 91.5202471 72.8302986 52.6114749 49.9401878 36.2847224 28.2079271"></polyline>
                        <polyline id="path20" fill="#8F7A02" points="97.0665299 125.692384 80.6579932 145.19678 97.4134076 189.819904 114.862577 144.272343 97.0665299 125.692384"></polyline>
                        <polygon id="path22" fill="#8F7A02" points="142.36462 135.948649 183.040494 136.179994 149.992169 113.984104"></polygon>
                        <polygon id="path24" fill="#8F7A02" points="53.3870145 136.410398 45.3316497 115.230166 11.5556333 136.179994"></polygon>
                        <polygon id="path26" fill="#8F7A02" points="145.405675 52.9470058 104.231575 77.4541759 122.298357 95.5988127"></polygon>
                        <polygon id="path28" fill="#8F7A02" points="91.9825627 77.4541759 74.4731358 95.5988127 50.1511815 53.1773156"></polygon>
                    </g>
                </g>
            </g>
        </g>
    </g>
</svg>