<?xml version="1.0" encoding="UTF-8"?>
<svg width="200px" height="200px" viewBox="0 0 200 200" version="1.1" xmlns="http://www.w3.org/2000/svg" xmlns:xlink="http://www.w3.org/1999/xlink">
    <!-- Generator: Sketch 51.3 (57544) - http://www.bohemiancoding.com/sketch -->
    <title>lincoln-pa</title>
    <desc>Created with Sketch.</desc>
    <defs></defs>
    <g id="lincoln-pa" stroke="none" stroke-width="1" fill="none" fill-rule="evenodd">
        <g id="lincoln-pa_BGL" transform="translate(0.000000, 25.000000)">
            <g id="lincoln-pa">
                <g id="g10" transform="translate(99.999997, 75.080322) scale(-1, 1) rotate(-180.000000) translate(-99.999997, -75.080322) translate(-0.000000, 0.180726)" fill-rule="nonzero">
                    <g id="g12" transform="translate(0.240964, 0.240964)">
                        <path d="M199.352605,62.0305205 C199.29879,65.5602393 194.46867,66.9578297 192.250598,67.0526088 C192.095578,67.0598377 191.951401,67.0598377 191.823288,67.0526088 C191.691561,67.0465847 191.580718,67.0614441 191.540959,67.0730907 C191.532927,67.1208819 191.538148,67.193171 191.542967,67.2293156 C192.426903,69.5883517 192.369473,71.6188737 191.37108,73.2658616 C189.606823,76.1763033 185.56104,76.6843354 185.389955,76.7044158 L185.319272,76.7124479 C183.708028,76.895982 180.970678,77.2228896 178.412044,74.6606407 C175.755016,74.5148576 174.169875,74.025701 174.169875,74.025701 C170.097988,79.6208815 161.583128,79.7493956 158.495177,81.8899578 C158.760237,91.7397567 163.303209,98.741363 163.303209,98.741363 C162.079112,105.678311 158.936944,107.187548 157.305619,111.716865 C161.140157,113.307628 161.467064,117.592367 161.467064,117.592367 C155.182727,119.468672 152.7759,124.691563 152.7759,124.691563 C152.409233,129.750599 150.654615,132.158631 149.879113,134.728912 C146.125699,139.42088 142.126904,140.359434 142.126904,140.359434 C138.577105,143.501603 135.884334,145.337747 135.884334,145.337747 C132.783531,144.847788 131.395579,143.868671 131.395579,143.868671 C130.048993,145.051402 128.621684,145.908832 128.621684,145.908832 C124.092768,145.663852 121.644575,149.458631 121.644575,149.458631 C115.972688,149.621683 112.382728,148.479113 112.382728,148.479113 C106.67068,148.927707 102.344977,147.581522 102.344977,147.581522 C97.8574273,145.01084 94.9602386,141.338551 94.9602386,141.338551 C93.8991944,141.379916 92.8381503,141.257025 92.8381503,141.257025 C89.9409616,139.706824 88.3907608,137.952205 88.3907608,137.952205 C85.1269055,137.381121 82.3522068,138.4008 82.3522068,138.4008 C82.3522068,138.4008 81.3730903,134.851402 83.4538132,131.097587 C80.3526084,128.2008 74.7630503,127.506824 71.5393556,123.059836 C71.5393556,123.059836 71.8891548,119.482728 71.0955806,114.67068 C68.4373477,110.938551 67.3373477,107.963853 67.3373477,107.963853 C68.3164642,107.882728 69.6630505,108.086744 69.6630505,108.086744 C64.113653,101.884736 54.4028099,99.4775076 54.4028099,99.4775076 C54.4028099,99.4775076 58.5646572,96.2935719 62.1144563,95.9670659 C61.5935728,93.8682707 60.2674684,91.6602387 58.9634523,89.3473873 C56.7931713,86.9409617 55.5132516,83.4373473 54.461846,82.1232911 C50.5437738,77.2261025 42.853011,81.455018 38.7156617,75.2497973 C38.6271476,75.3746969 38.5330512,75.4967853 38.4316858,75.6156608 C37.4534127,76.7610423 36.0691156,77.4220864 34.3128907,77.582729 C33.7297582,78.2104398 32.2320474,79.5261024 29.9204812,79.5261024 C28.8110435,79.5261024 27.6611238,79.2184719 26.501927,78.6120462 L26.3997985,78.548994 C26.314176,78.4875482 24.5322082,77.1899579 24.0646982,75.3763033 C22.6386741,75.2124479 19.2405618,74.7104399 16.248594,73.4341347 L15.0191563,73.5461829 L14.94759,73.5413636 C14.7755016,73.5289138 10.7119274,73.1939741 8.82546163,70.3618456 C7.75710824,68.7586328 7.61325282,66.7325285 8.39530099,64.338151 C8.39891545,64.3020064 8.40064236,64.2293157 8.39108413,64.1823277 C8.35044156,64.1718859 8.23951787,64.1618458 8.10807209,64.173894 C7.98068253,64.1863438 7.8360239,64.1919663 7.6807227,64.1919663 C5.46092356,64.1919663 0.575582315,63.0024081 0.370859428,59.4779102 C0.254927704,58.9646572 -0.176642566,56.6044163 1.11822487,54.6907617 C-0.0660441751,52.2481915 -1.04966744,47.6614446 2.44885938,44.8036133 C2.51945375,44.7265049 2.8355421,44.3469868 2.91542161,43.6333322 C2.93313246,43.4771073 2.92152603,43.2220873 2.90959832,42.9522078 C2.85156619,41.6646576 2.74646579,39.3204809 5.4173091,38.0063846 C5.60160629,37.5429709 5.99305206,37.1537742 6.56718859,37.0687541 C7.28116448,36.081967 9.30329294,33.7406016 12.4181121,33.7406016 C13.2036141,33.7406016 13.9989555,33.8955815 14.7967065,34.1972682 C15.6555819,32.8810434 17.3085939,31.9071478 19.8753007,31.9071478 L27.8007222,31.9071478 L26.7805616,27.825662 C26.6373487,27.2839752 26.554658,26.6779511 26.554658,26.155421 C26.554658,23.819638 28.3410033,21.4627304 32.3313647,21.4627304 L42.4120471,21.4627304 L41.8060231,19.1486341 L43.0469869,18.9421682 L39.8590351,6.19068258 C39.7321275,5.71080307 39.6626496,5.1920079 39.6626496,4.72453803 C39.6626496,2.59602403 41.3277098,0.305598386 44.9847378,0.305598386 L54.3293159,0.305598386 C55.6991954,0.305598386 57.4052194,0.491967859 58.69036,1.65380317 C59.5742957,0.850277087 60.894376,0.305598386 62.6903599,0.305598386 L71.7261026,0.305598386 L72.4542151,3.08028105 C73.0003998,2.46109632 73.663452,1.92567063 74.4345363,1.48829715 C76.2405603,0.461377499 78.484737,0.0233734934 81.937749,0.0233734934 C87.1309215,0.0233734934 90.569074,1.05217668 92.9923672,3.62935734 C93.4815238,1.87908027 95.1718852,0.305598386 98.2558208,0.305598386 L106.366262,0.305598386 L106.496784,0.902831303 C107.317266,0.492437739 108.32329,0.305598386 109.573491,0.305598386 L116.609234,0.305598386 L116.972688,1.76189152 C117.504816,1.28200398 118.159033,0.899534114 118.912848,0.653393558 C119.891965,0.331325293 120.773089,0.305598386 121.82088,0.305598386 L127.927306,0.305598386 C130.755017,0.305598386 133.695981,0.718811227 136.05341,3.70919669 C137.673892,5.72493962 138.801201,9.67461823 138.801201,11.9763451 C138.801201,13.6489555 138.220478,15.1236141 137.114856,16.2681924 C138.62088,17.1172285 139.206422,18.5578309 139.521683,19.7417666 L139.929715,21.4627304 L156.010839,21.4627304 C157.466663,21.4627304 159.002004,21.5907224 160.367466,22.5200798 C161.850598,23.5297584 162.361442,24.9474291 162.661843,26.1816058 L164.095177,31.9240956 L164.956221,31.9240956 L165.332124,33.6425293 C166.40602,32.4181116 167.892767,31.9240956 170.16345,31.9240956 L178.435337,31.9240956 L180.344574,39.5759026 C182.068269,37.4325292 184.797184,36.8924087 186.215658,36.8316858 C189.328108,36.6980312 191.447786,38.9514046 192.203208,39.9068263 C192.78112,39.9666657 193.18875,40.3389548 193.392365,40.7939749 C196.117264,41.99277 196.112043,44.3393563 196.109232,45.6281113 C196.109232,45.8983924 196.10883,46.1538141 196.132525,46.3084326 C196.243369,47.0188743 196.574694,47.3843362 196.648589,47.4578301 C200.265858,50.1638542 199.479513,54.788352 198.4012,57.279115 C199.776702,59.1357415 199.445778,61.5120467 199.352605,62.0305205" id="path14" fill="#232E66"></path>
                        <polyline id="path16" fill="#232E66" points="182.464252 35.5228907 180.861441 35.5228907 180.783931 35.208473 181.398791 35.208473 181.007224 33.6425293 181.38112 33.6425293 181.771481 35.208473 182.386341 35.208473 182.464252 35.5228907"></polyline>
                        <polyline id="path18" fill="#232E66" points="183.465457 34.176706 183.321281 35.5228907 182.782726 35.5228907 182.314855 33.6425293 182.659032 33.6425293 183.037345 35.1593967 183.184333 33.6425293 183.485136 33.6425293 184.383931 35.1593967 184.005618 33.6425293 184.350598 33.6425293 184.818871 35.5228907 184.285136 35.5228907 183.465457 34.176706"></polyline>
                        <path d="M140.479515,120.250599 C139.882727,122.407627 138.979916,124.228511 138.979916,124.228511 C141.275097,123.494374 143.661844,122.239756 143.661844,122.239756 C140.892366,127.870278 136.455418,130.731322 136.455418,130.731322 C134.450599,130.593973 132.660238,130.94578 132.660238,130.94578 C132.660238,130.94578 137.342567,128.773089 140.249796,124.840961 C140.249796,124.840961 138.397989,126.003611 136.424093,126.569876 C136.424093,126.569876 137.924093,124.534535 138.658229,122.193973 C138.658229,122.193973 139.653009,121.53574 140.479515,120.250599" id="path20" fill="#F2581C"></path>
                        <path d="M139.18835,109.432929 C139.18835,109.432929 139.025699,107.678712 138.291161,105.964656 C138.291161,105.964656 137.699595,104.740961 134.94578,103.414455 C134.359033,97.9574273 130.793973,94.1172667 130.793973,94.1172667 C132.864655,85.1558212 127.336141,80.7694759 125.2759,80.5453795 C123.088752,80.3072269 122.541764,80.7084317 119.502005,80.7694759 C114.585941,80.8682711 115.808832,78.709235 111.54578,79.9738936 C109.506021,81.7899578 108.506021,83.6257007 108.057025,85.5843352 C107.893572,89.3377488 108.261041,92.0718852 107.806423,95.4506 C101.127708,100.835339 99.3228891,106.310841 99.3228891,106.310841 C99.3530096,111.334535 100.616865,113.735339 100.616865,113.735339 C100.616865,113.735339 101.567467,114.963853 104.279114,115.96064 C104.279114,115.96064 106.064254,115.172688 107.547387,114.106423 C107.547387,114.106423 108.729716,115.357828 109.911644,116.076302 C109.911644,116.076302 110.746182,116.169073 111.719676,116.122487 C112.832126,117.76827 113.782728,119.39076 118.557427,119.414455 C118.557427,119.414455 116.077106,118.672688 114.246182,117.444174 C114.246182,117.444174 112.878712,115.566664 111.858632,114.407628 C111.858632,114.407628 110.699997,114.315258 109.934937,113.920881 C109.934937,113.920881 113.202808,112.877507 115.613652,112.460238 C115.613652,112.460238 112.09076,112.205218 108.474696,113.271483 C108.474696,113.271483 107.199596,112.436945 106.272286,110.420881 C106.272286,110.420881 113.133331,109.470278 117.653411,110.25823 C117.653411,110.25823 114.246182,108.381122 106.226503,109.099596 C106.226503,109.099596 106.689957,107.778311 108.126905,106.457025 C108.126905,106.457025 111.858632,106.735339 114.895178,107.52329 C114.895178,107.52329 112.716061,105.993572 109.216062,105.321283 C109.216062,105.321283 109.749796,104.811242 111.001202,104.393973 C118.140158,103.861042 119.670278,106.874295 124.977909,106.57309 C120.991563,112.367869 117.189555,111.231724 116.748993,116.887949 L116.829314,116.899595 C120.827708,118.75582 122.297186,118.042166 125.867065,116.450599 C128.029716,117.022085 130.13092,117.165057 132.130519,116.859033 C132.130519,116.859033 133.312848,116.675097 134.7008,115.042969 C134.7008,115.042969 136.883531,115.328913 138.291161,116.675499 C138.291161,116.675499 138.597587,116.144575 138.617667,115.185941 C138.617667,115.185941 137.965057,114.288351 136.149394,113.26827 C136.149394,113.26827 136.35341,112.758632 136.699997,112.452608 C136.699997,112.452608 138.128109,112.656222 139.229715,113.635339 C139.229715,113.635339 139.535739,112.554214 138.373089,110.697989 C138.373089,110.697989 138.903209,110.248993 139.18835,109.432929 Z M104.562648,119.842969 C104.562648,119.842969 105.749797,119.577507 106.839355,118.878712 L107.077106,119.632929 C107.077106,119.632929 106.322487,120.401202 105.80562,121.742567 L105.191162,121.784334 C106.602407,124.453009 107.929315,127.093571 110.946985,126.814455 C113.462246,122.651001 115.222085,122.734535 119.260238,122.95823 L119.204415,122.622889 C117.122487,121.435338 114.997989,121.393973 113.671081,120.708832 C112.399997,120.052206 111.199194,117.216061 111.199194,117.216061 C111.199194,117.216061 108.502005,117.132126 107.217266,117.006423 C107.217266,117.006423 106.253009,117.998391 104.073491,118.934134 L104.562648,119.842969 Z M140.229314,110.453009 C140.576302,114.410841 138.189153,117.817668 137.536141,118.898792 C136.883531,119.979917 137.413651,121.979515 136.271884,124.08072 C135.496382,123.672688 134.088752,124.019676 134.088752,124.019676 C134.72088,123.142166 135.496382,122.326101 135.496382,122.326101 C135.699997,121.204013 135.699997,120.326905 135.699997,120.326905 C135.414856,119.552206 134.802406,118.960238 134.802406,118.960238 C135.353009,118.144174 135.659033,117.409636 135.659033,117.409636 C135.33333,117.042567 134.82329,116.797587 134.82329,116.797587 C134.82329,116.797587 133.150197,118.715258 132.456623,119.041764 C131.762647,119.36827 130.803611,119.10321 129.62088,119.551804 C129.927306,118.470278 129.86586,117.348591 129.86586,117.348591 L129.49839,117.389154 C128.498792,120.489957 127.336141,122.530117 125.499595,122.285539 L125.193973,122.897186 C131.314053,122.448591 131.457025,127.548993 136.149394,124.550198 C133.394776,129.344575 128.33574,127.548993 128.33574,127.548993 C125.071483,130.629716 121.195579,129.344173 119.624093,129.609234 C117.914455,129.897989 116.849796,131.404816 114.096383,131.404816 C111.341764,131.404816 108.404013,130.139756 105.506825,127.426503 C107.138953,127.589957 108.302005,127.528511 108.302005,127.528511 C107.873491,127.242969 107.547387,126.569876 107.547387,126.569876 C105.032929,126.250599 102.912849,125.555017 102.912849,125.555017 C94.3204796,120.443772 96.5425679,113.777106 96.5425679,113.777106 C88.4313231,104.962648 94.024094,98.0734915 94.024094,98.0734915 C94.024094,98.0734915 94.097588,101.295981 95.7273068,103.518471 C94.2457808,89.7032106 105.06064,86.4441745 109.467467,80.4441747 C113.875098,74.4441748 109.801202,72.5550183 112.245379,68.7775083 C112.245379,68.7775083 113.948993,70.1847372 115.282326,73.1108415 C115.282326,73.1108415 115.764254,70.4068255 115.060238,66.8144562 C115.060238,66.8144562 119.208431,68.5188738 121.61566,73.5923676 C121.61566,73.5923676 122.208832,71.4811227 121.097587,67.7775083 C121.097587,67.7775083 129.763852,71.7032111 129.690358,80.7036124 C129.690358,80.7036124 130.542165,78.9626486 130.282728,76.0738937 C133.171483,77.8518053 132.751001,83.0273072 133.356623,87.0369456 C133.652607,88.9995962 135.171483,91.8518049 134.764254,96.8518048 C134.764254,96.8518048 135.801201,95.9257004 135.912045,93.2959816 C135.912045,93.2959816 139.245378,94.8518049 138.615659,100.259435 C138.615659,100.259435 139.874695,99.0369453 140.060237,96.1481904 C145.023691,105.629315 141.171482,106.332929 140.229314,110.453009 Z" id="path22" fill="#F2581C"></path>
                        <path d="M90.6168652,105.962648 C90.6168652,105.962648 91.320078,111.036945 94.5795157,114.184736 C94.5795157,114.184736 93.3570258,118.777507 98.1722867,124.147788 C98.1722867,124.147788 94.320078,123.147788 93.4682708,116.851001 C93.4682708,116.851001 92.6534113,116.481122 92.0240941,116.036543 C92.0240941,116.036543 89.653813,111.740559 90.6168652,105.962648" id="path24" fill="#F2581C"></path>
                        <path d="M103.726102,75.5927692 C103.726102,75.5927692 103.961443,73.5574279 103.079515,70.4750986 C103.70321,69.6510023 104.001202,68.6485927 104.001202,67.6489943 C104.001202,67.1220867 103.926503,66.5116449 103.79317,65.9654602 L103.285138,63.724898 L104.399596,63.724898 C104.846985,64.8602393 105.512849,66.0618457 106.504013,67.1851389 C106.504013,67.1851389 106.402005,65.8550184 106.831323,63.724898 L116.263451,63.724898 C116.317668,64.2578297 116.342969,64.8273076 116.326503,65.4301188 C114.473491,64.4152594 113.208029,64.2590345 113.208029,64.2590345 C113.689555,66.3333317 113.652206,67.77791 113.652206,67.77791 C112.94819,66.9257011 112.02329,66.3333317 112.02329,66.3333317 C107.615258,71.3702793 110.897186,72.8626488 108.763049,77.3333314 C106.430118,82.2220863 103.355821,82.3337329 99.4670658,87.3702789 C99.4670658,87.3702789 101.467066,83.6670662 102.133732,81.6670662 C102.133732,81.6670662 100.98554,79.4819257 103.726102,75.5927692" id="path26" fill="#F2581C"></path>
                        <path d="M123.616463,64.062649 C124.467065,64.0257012 125.440158,63.9465847 126.454615,63.7783117 C127.04578,66.4791148 127.207627,68.3333316 127.207627,68.3333316 C127.619676,66.6610425 127.832929,65.0160626 127.920479,63.4730908 C129.536141,63.0618458 131.157025,62.3779101 132.474294,61.2421671 C132.581924,61.4895567 132.651001,61.6714844 132.688752,61.7783117 L132.730117,61.9353398 C133.353009,69.2823276 132.689555,74.814456 132.689555,74.814456 C134.837346,69.8887533 134.911643,64.2963839 134.911643,64.2963839 C142.393169,73.1485925 146.76345,88.0738934 146.76345,88.0738934 C146.467065,99.7028088 145.319675,106.481122 145.319675,106.481122 C144.208029,107.51807 142.985539,107.777507 142.985539,107.777507 C145.467466,103.111242 142.319274,97.2220859 142.319274,97.2220859 C143.282326,92.1851383 143.133731,87.851805 143.133731,87.851805 C140.35582,81.704014 135.837748,75.9999981 135.837748,75.9999981 C135.271081,77.4016045 134.158631,78.3297169 133.593571,78.7329298 C132.838953,75.6389539 130.797185,74.640962 130.240157,74.4216849 C130.772286,71.6212834 130.060238,68.3337332 130.060238,68.3337332 C129.520077,69.657428 128.610037,70.685942 128.054615,71.2325283 C126.81325,69.857428 125.254615,68.6003999 123.780318,67.5622473 C123.835338,66.2903598 123.759836,65.1124482 123.616463,64.062649" id="path28" fill="#F2581C"></path>
                        <path d="M90.4835319,89.7662628 C90.4835319,89.7662628 91.1377487,88.4212829 90.9196764,82.4606405 C90.9196764,82.4606405 91.8220861,80.3779096 93.5124475,79.0851386 C93.5124475,79.0851386 95.2919655,82.7333313 94.4534113,86.2506003 C98.3582305,81.6646566 96.4514032,77.3526085 94.8196763,72.3779098 L98.6750979,72.3779098 C99.4634513,72.3779098 100.157427,72.2686729 100.76305,72.0738938 C100.533331,78.7694759 99.8064232,85.3554196 93.0012025,91.1333311 C93.0012025,91.1333311 92.5188732,93.6554193 89.6843351,95.3273069 C89.6843351,95.3273069 91.2469857,99.3248971 88.7750982,106.158632 C88.7750982,106.158632 89.2843351,101.361443 87.6847368,96.1634514 C87.6847368,96.1634514 88.8116444,92.8562226 90.4835319,89.7662628" id="path30" fill="#F2581C"></path>
                        <path d="M117.795178,63.9088337 C118.949395,64.0329301 120.091563,64.0811229 121.189555,64.0923679 C120.968672,64.6815245 120.747788,65.1638538 120.572286,65.5164642 C119.634937,64.9746972 119.022487,64.6666651 119.022487,64.6666651 C119.615258,66.5927694 119.800399,68.0003999 119.800399,68.0003999 C119.114856,67.3501991 118.449796,66.8132513 117.820881,66.3674682 C117.882326,65.8566249 117.92811,65.011645 117.795178,63.9088337" id="path32" fill="#F2581C"></path>
                        <path d="M84.7309216,100.576704 C85.1405601,109.499997 89.7662628,110.237347 93.2044153,124.113652 C95.4558209,126.569073 98.5666642,128.493169 98.5666642,128.493169 C94.1453792,127.265459 90.4618451,125.668672 90.4618451,125.668672 C84.5670662,119.856624 83.5851385,114.493973 83.5851385,114.493973 C83.5851385,114.493973 86.2867448,117.154616 88.4558211,118.50562 C88.4558211,118.50562 88.0465841,113.838953 85.0991947,109.499997 C85.0991947,109.499997 83.6257007,107.167066 84.7309216,100.576704" id="path34" fill="#F2581C"></path>
                        <path d="M141.04337,63.724898 C141.306824,64.589155 141.604816,65.4064241 141.946984,66.1618457 C143.379514,65.0987936 144.310037,64.0389542 144.584735,63.7100386 C144.606422,63.7092354 144.628912,63.7092354 144.651804,63.7080305 C143.960237,67.5252995 141.613249,69.219677 141.613249,69.219677 C140.362647,67.5285124 139.58594,65.6582313 139.065458,63.724898 L141.04337,63.724898" id="path36" fill="#F2581C"></path>
                        <path d="M57.7767054,80.6714839 C57.7767054,80.6714839 60.2787134,83.2847369 65.0040144,84.396785 C65.0040144,84.396785 63.7252996,78.3369458 57.8875488,70.8313235 C57.8875488,70.8313235 65.3927694,72.1658616 71.1192753,77.169476 C71.1192753,77.169476 70.8128496,75.5678696 71.7200785,72.3779098 L73.550199,72.3779098 C74.3630503,73.6590343 75.5457812,75.2293154 76.9012029,76.1128495 C77.1867451,74.7008013 77.3096366,73.4738937 77.3136527,72.3779098 L87.6132508,72.3779098 C85.4240942,75.4397572 83.3232911,79.1261024 82.7939738,84.3409617 C76.5120463,78.3923675 66.6160626,78.1698776 66.6160626,78.1698776 C75.5112431,83.4514035 78.1240944,90.6787126 78.1240944,90.6787126 C74.1775082,90.0674676 70.7301187,88.8999978 70.7301187,88.8999978 C72.7313235,96.0156603 76.7084318,99.1847365 76.7084318,99.1847365 C76.7084318,99.1847365 73.7192753,98.9803188 70.2815243,99.4710819 C82.602006,105.324897 79.4506004,116.949796 89.8477889,126.651402 L90.7076283,126.85582 C90.7076283,126.85582 92.5441744,128.938551 93.222086,131.744977 C93.222086,131.744977 97.4867446,131.072687 101.844977,129.357426 C101.844977,129.357426 101.914455,131.304414 100.94056,132.648993 C100.94056,132.648993 102.794777,132.185539 104.116463,130.771483 C104.116463,130.771483 106.527307,131.698792 108.961041,131.76827 C108.961041,131.76827 107.616062,133.576302 105.46064,134.897185 C105.46064,134.897185 107.870278,135.569073 111.927306,132.857426 C111.927306,132.857426 113.851804,137.678711 120.712447,139.440157 C120.712447,139.440157 118.76586,136.914053 117.838551,134.178712 C117.838551,134.178712 119.321684,135.662246 123.099997,136.265057 C123.099997,136.265057 122.219274,133.946985 122.61325,131.744977 C122.61325,131.744977 125.649394,134.132125 132.093571,135.940157 C132.093571,135.940157 130.957828,134.665458 129.914455,132.185137 C129.914455,132.185137 133.484334,131.420479 136.682728,131.814455 C136.682728,131.814455 142.036944,128.916864 146.139755,120.039354 C146.139755,120.039354 144.393972,120.851804 143.134133,121.295579 C143.134133,121.295579 145.059836,119.443772 144.616462,113.555017 C148.912446,106.851403 151.134534,97.9626482 153.393972,91.4441744 C153.393972,91.4441744 152.727305,89.7032106 152.986743,85.9626485 C152.986743,85.9626485 153.023289,84.7775079 151.134534,81.1477891 C151.134534,81.1477891 152.83855,87.1473874 149.690358,93.7032105 C150.430117,88.4811223 146.912446,80.7401586 143.393972,74.1108415 C143.393972,74.1108415 147.191964,72.048191 148.848591,63.724898 L154.404414,63.724898 C154.799996,66.7698778 155.097586,69.8582312 155.586341,72.6184721 C155.586341,72.6184721 153.25341,74.1742953 152.475498,77.571484 C152.475498,77.571484 155.136141,74.66546 157.673892,73.4783114 C154.03092,87.5184717 161.439755,99.1437726 161.439755,99.1437726 C160.661442,104.792367 156.036141,108.271885 155.177105,112.897588 C158.860639,113.552206 159.39357,116.417668 159.39357,116.417668 C154.194374,118.177909 151.001201,124.399997 151.001201,124.399997 C150.837747,129.4759 149.282326,130.908029 148.340157,133.85582 C144.942968,137.621683 142.814856,138.276703 142.814856,138.276703 C142.814856,138.276703 144.246984,135.575097 144.942968,130.048591 C144.942968,130.048591 146.048992,127.060639 150.756221,121.984736 C144.206422,125.750599 144.820478,129.721282 138.476302,135.820479 C136.183531,135.492768 134.218872,134.019274 134.218872,134.019274 C134.054615,136.352607 134.382326,138.194374 134.382326,138.194374 C130.002808,137.253009 126.686744,135.574695 126.686744,135.574695 C128.324495,140.404816 130.371081,142.533731 130.371081,142.533731 C129.14337,143.638551 128.283531,144.130117 128.283531,144.130117 C123.371483,143.924896 120.751804,147.691161 120.751804,147.691161 C115.143772,147.609233 111.296383,146.58594 111.296383,146.58594 C108.390359,144.744173 105.687949,141.878711 105.687949,141.878711 C107.161845,145.112045 109.372286,146.831723 109.372286,146.831723 C104.419274,146.749796 102.61807,145.80843 102.61807,145.80843 C98.443371,143.024494 96.8469855,140.97831 96.8469855,140.97831 C96.8469855,140.97831 101.759034,140.486743 107.612046,137.662246 C104.378712,135.574695 100.326102,134.674294 100.326102,134.674294 C97.9518048,136.107226 96.6417647,135.94337 96.6417647,135.94337 C98.5244955,133.937346 99.4257003,131.76827 99.4257003,131.76827 C96.8469855,132.914455 92.1389535,133.773491 92.1389535,133.773491 C90.0514034,127.224093 84.1574276,121.984736 84.1574276,121.984736 C86.5317247,125.750599 87.5546163,127.674294 87.5546163,127.674294 C86.6542147,132.627306 87.6369456,136.066262 87.6369456,136.066262 C85.7132509,135.697587 83.8297168,136.229715 83.8297168,136.229715 C83.5843353,132.873089 85.7128493,131.072286 85.7128493,131.072286 C83.4204798,127.387949 76.0116447,126.119676 73.4325283,122.598391 C73.6783114,119.93815 73.1461829,117.195579 73.1461829,117.195579 C75.3566246,120.224897 77.8947772,118.3008 81.0879498,119.651403 C78.5497972,117.769073 75.7658616,117.564254 75.7658616,117.564254 C71.9999982,113.757427 70.2401589,109.786744 70.2401589,109.786744 C72.2863436,109.868672 73.8417652,110.359837 73.8417652,110.359837 C68.479918,102.132126 58.6558218,98.9803188 58.6558218,98.9803188 C58.6558218,98.9803188 61.1116451,97.5722867 64.1698779,97.4056201 C63.9477896,91.8461824 57.2204805,86.0084316 57.7767054,80.6714839" id="path38" fill="#F2581C"></path>
                        <path d="M88.7417648,129.230117 C88.7417648,129.230117 88.2915641,132.750197 88.9871464,136.311242 C88.9871464,136.311242 90.706825,137.990358 93.244576,139.54578 C93.244576,139.54578 98.6887526,140.446181 104.746584,137.539756 C104.746584,137.539756 103.723692,136.843772 101.676704,136.597989 C101.676704,136.597989 98.4429694,138.276302 94.2674675,138.112848 C94.2674675,138.112848 92.3437728,137.007225 90.338552,135.165458 C90.338552,135.165458 89.7654596,133.610438 90.0112427,131.153812 C90.0112427,131.153812 89.5192749,130.335338 88.7417648,129.230117" id="path40" fill="#F2581C"></path>
                        <path d="M140.972687,139.054213 C142.282326,136.107226 143.183129,132.136543 143.183129,132.136543 C142.036944,133.97831 140.644976,135.28835 140.644976,135.28835 C139.908029,137.335338 139.457828,138.317266 139.457828,138.317266 C137.534133,140.404816 135.283129,141.673892 135.283129,141.673892 C134.177908,141.591964 132.499193,140.937346 132.499193,140.937346 C131.639354,139.66827 131.557828,138.68594 131.557828,138.68594 C130.083932,138.358631 128.692768,137.662647 128.692768,137.662647 C128.692768,137.662647 128.393571,139.037748 131.271483,141.919675 C131.35341,142.001603 132.867868,142.983932 135.528511,143.515659 C135.528511,143.515659 138.148189,141.756221 140.972687,139.054213" id="path42" fill="#F2581C"></path>
                        <path d="M109.926905,121.365459 C110.429315,121.985941 111.918471,122.694776 112.641363,121.508832 C113.066262,121.823692 113.54578,122.064254 113.54578,122.064254 C111.54819,122.357427 110.499997,123.335338 110.499997,123.335338 C109.563853,123.307627 109.075098,123.544977 109.075098,123.544977 C108.055419,122.999997 107.455017,122.175901 107.328913,121.323692 C108.029716,119.961443 109.481523,118.476704 110.736543,118.665459 C110.781523,118.786744 110.832126,118.906423 110.886744,119.024093 C109.877909,119.098391 108.91807,120.117668 109.926905,121.365459" id="path44" fill="#FFFFFF"></path>
                        <path d="M128.906824,122.102005 C128.906824,122.102005 129.11084,122.224093 129.273892,122.346583 C129.273892,122.346583 129.437346,122.020077 129.661844,121.897587 C129.661844,121.897587 131.457025,123.162648 132.415659,123.162648 C133.374695,123.162648 134.19076,122.203611 134.31325,120.959435 C134.31325,120.959435 134.149394,120.734937 133.925298,120.612447 C133.680318,121.591965 133.129716,121.999997 132.354615,121.999997 C131.579515,121.999997 130.702005,121.326905 130.946985,120.591965 C130.946985,120.591965 130.008832,120.653812 129.538953,120.75582 C129.538953,120.75582 129.049394,121.387949 128.906824,122.102005" id="path46" fill="#FFFFFF"></path>
                        <path d="M118.869475,115.777507 C121.133732,116.96064 123.561844,116.042969 125.968672,114.818873 C125.968672,114.818873 127.805619,115.920881 130.702005,115.512447 C130.702005,115.512447 131.191563,115.226503 131.171081,114.308431 C131.171081,114.308431 130.13092,113.084736 127.560238,112.737748 C127.560238,112.737748 128.090358,112.043772 127.927306,110.881122 C127.927306,110.881122 127.58072,110.269475 127.070278,109.942969 C127.070278,109.942969 126.907627,111.003612 126.540157,111.595178 L126.357025,111.513652 C126.357025,111.513652 126.581523,109.902005 125.193973,108.739355 C125.193973,108.739355 124.357427,109.779515 123.459435,110.759033 C123.459435,110.759033 124.663049,110.86064 125.050599,111.718069 C125.050599,111.718069 125.132527,112.309636 125.091965,112.819676 C125.091965,112.819676 124.438953,113.308833 123.642969,113.574294 C123.642969,113.574294 122.032125,112.839756 120.012045,113.26827 C120.012045,113.26827 118.787547,114.247387 118.869475,115.777507" id="path48" fill="#F2581C"></path>
                        <path d="M134.986342,104.863451 C131.579515,104.271483 129.682326,106.822086 125.540559,106.597186 C128.212848,108.555419 129.192768,109.983933 129.192768,109.983933 C129.334937,111.024094 129.253812,111.554214 129.253812,111.554214 C131.253009,112.513652 132.395177,113.431724 132.395177,113.431724 C133.007226,115.165861 132.476704,115.798391 132.476704,115.798391 C132.476704,115.798391 134.761844,114.920881 134.904414,112.636142 C134.904414,112.636142 133.802808,112.207226 132.150197,112.166262 C132.150197,112.166262 133.986342,111.411644 135.86345,111.718069 C135.86345,111.718069 137.577105,110.718471 137.781121,108.861443 C134.557828,108.637347 130.885539,110.289555 130.885539,110.289555 C130.885539,110.289555 133.394776,107.821282 137.679113,107.719274 C137.679113,107.719274 137.557025,106.495178 136.087948,105.577106 C136.087948,105.577106 133.68072,106.393572 132.109635,107.474696 C132.109635,107.474696 133.578712,105.842568 134.986342,104.863451" id="path50" fill="#F2581C"></path>
                        <path d="M124.061443,86.1759015 C123.771081,86.9409617 123.23574,87.3080299 123.23574,87.3080299 C122.898792,86.5891545 122.485539,86.0995962 122.485539,86.0995962 C122.057025,86.9409617 121.597989,87.2164637 121.597989,87.2164637 C121.154615,86.6196765 120.634134,86.0995962 120.634134,86.0995962 C120.206021,87.0329296 119.762246,87.2775079 119.762246,87.2775079 C119.502005,86.7269055 118.951403,86.2522067 118.951403,86.2522067 C118.69076,87.0481906 118.109636,87.4915641 118.109636,87.4915641 C117.91084,86.8799175 117.481925,86.3594356 117.481925,86.3594356 C116.702005,90.9497969 115.49317,92.3574274 115.49317,92.3574274 L116.457427,92.6481905 C115.860238,96.4582305 116.426503,99.6710818 116.426503,99.6710818 C117.314053,96.3357406 119.823692,93.7040137 120.007226,88.9911624 C120.007226,88.9911624 120.435338,88.9301183 120.664656,89.1594355 C120.878712,90.7510017 121.73574,96.8558209 118.859435,98.9365437 C118.859435,98.9365437 119.410037,99.6252987 119.838551,100.481925 C119.838551,100.481925 120.374294,99.9465838 120.756623,99.0132505 C120.756623,99.0132505 121.291965,99.3345357 121.797186,100.237347 C123.097587,99.3803188 125.230117,97.0285116 125.362246,95.7080297 C125.530117,94.0248972 125.408029,90.6590339 124.964254,87.598793 C124.964254,87.598793 124.78072,86.9409617 124.061443,86.1759015" id="path52" fill="#F2581C"></path>
                        <path d="M111.487949,102.702005 C111.487949,102.702005 113.249395,102.261443 115.613652,102.887548 C115.613652,102.887548 113.851804,100.291965 115.312447,94.6124474 L115.034134,94.5188731 C112.762246,96.2807205 111.534134,99.4333308 111.487949,102.702005" id="path54" fill="#FFFFFF"></path>
                        <path d="M129.683531,104.486343 C131.004414,104.184736 131.676704,103.512447 133.6008,103.3506 C133.6008,103.3506 132.905218,98.9461823 130.054214,96.188351 L129.7759,96.2807205 C129.7759,96.2807205 130.054214,100.059034 129.683531,104.486343" id="path56" fill="#FFFFFF"></path>
                        <path d="M128.419676,104.145781 C127.467467,104.791564 126.804415,104.004817 126.804415,104.004817 C125.827306,104.485138 125.239756,103.61566 125.239756,103.61566 C124.560238,104.369475 123.691162,103.781122 123.691162,103.781122 C122.896382,104.452206 122.217266,103.648592 122.217266,103.648592 C121.281925,104.716865 119.857427,103.532929 119.857427,103.532929 C118.682326,104.501604 116.711644,103.549395 116.711644,103.549395 C116.711644,103.549395 117.961844,102.307226 118.499997,100.932929 C118.499997,100.932929 119.369877,101.843773 119.742166,102.762648 C119.742166,102.762648 120.528511,101.752608 120.867868,101.04056 C120.867868,101.04056 121.513652,101.785941 121.877909,102.63052 C121.877909,102.63052 122.491162,101.943371 122.813652,100.899997 C122.813652,100.899997 123.542166,101.83574 123.666664,102.729716 C123.666664,102.729716 124.196382,102.257829 124.610037,101.181524 C124.610037,101.181524 125.214856,101.942969 125.388752,102.92811 C125.388752,102.92811 126.076302,102.257829 126.373892,101.471082 C126.373892,101.471082 126.862647,102.34056 127.028511,103.143773 C127.028511,103.143773 127.566663,102.381925 127.79839,101.529315 C127.79839,101.529315 128.651402,102.572688 128.419676,104.145781" id="path58" fill="#FFFFFF"></path>
                        <path d="M116.059033,81.8763032 C116.977507,87.598793 114.620881,91.5156604 114.620881,91.5156604 C114.46827,88.425299 112.830519,87.2465842 112.999194,83.9112429 C112.999194,83.9112429 113.657025,82.0293152 116.059033,81.8763032" id="path60" fill="#FFFFFF"></path>
                        <path d="M126.585941,82.8706807 C130.855017,86.3289135 129.079916,92.8469856 129.079916,92.8469856 C128.284736,89.5421664 126.540157,87.1397569 126.494374,87.1244958 C126.494374,87.1244958 126.95341,85.8084316 126.585941,82.8706807" id="path62" fill="#FFFFFF"></path>
                        <path d="M124.597186,81.8763032 C125.836141,83.9421666 125.239756,85.8851384 125.239756,85.8851384 C124.842166,84.6763031 123.862246,84.1257007 123.862246,84.1257007 C123.724897,84.9518051 123.189154,85.4108412 123.189154,85.4108412 C122.852607,84.5694758 122.317266,84.1257007 122.317266,84.1257007 C122.13333,84.9975882 121.567065,85.5485922 121.567065,85.5485922 C121.230519,84.783532 120.557828,84.2939738 120.557828,84.2939738 C120.374294,85.2273071 119.838551,85.7321264 119.838551,85.7321264 C119.593571,85.0895561 119.027708,84.3855401 119.027708,84.3855401 C118.69076,85.4261023 118.109636,85.8851384 118.109636,85.8851384 C117.787949,84.3397569 117.069475,83.1309216 117.069475,83.1309216 C117.069475,83.1309216 117.451403,82.5951787 117.971885,82.106022 C117.971885,82.106022 118.736945,82.4425682 119.318471,82.9321264 C119.318471,82.9321264 119.823692,82.4883514 120.098792,82.0445763 C120.098792,82.0445763 120.634134,82.243773 121.230519,82.8248975 C121.230519,82.8248975 121.659435,82.7028092 122.057025,82.0598373 C122.057025,82.0598373 122.714856,82.2742951 123.26586,82.8405602 C123.26586,82.8405602 123.602808,82.5951787 123.969876,81.8763032 L124.597186,81.8763032" id="path64" fill="#FFFFFF"></path>
                        <path d="M111.484335,84.3397569 C111.728913,91.0927688 111.055821,92.0919656 110.627708,96.2538129 C109.38313,98.1718851 109.057025,99.9465838 109.057025,99.9465838 C108.11807,96.6008008 109.831724,95.7032105 109.342166,85.5638533 C109.342166,85.5638533 109.424094,83.6461826 111.872688,81.0349377 C111.872688,81.0349377 113.075901,80.1779096 115.054616,80.8305201 C115.054616,80.8305201 112.565861,81.4634518 111.484335,84.3397569" id="path66" fill="#F2581C"></path>
                        <path d="M55.2132516,9.33654595 C55.1791151,9.24337326 55.1530107,9.1831323 55.133332,9.14421664 C55.0152597,9.11975881 54.746585,9.0891564 54.1437737,9.0891564 L52.5485931,9.0891564 L55.4831311,20.8482324 C55.563854,21.1486742 55.6140548,21.5000798 55.6140548,21.7678709 C55.6140548,22.2824091 55.4036131,23.9599191 52.6947778,23.9599191 L45.6012037,23.9599191 L44.8108423,20.9414051 L46.0253001,20.7393569 C46.0108422,20.6827304 45.9975892,20.6297184 45.9875491,20.5882726 L42.2582319,5.67112436 C42.1763042,5.36630509 42.1273082,5.01365449 42.1273082,4.72453803 C42.1273082,4.21638544 42.3329307,2.5602409 44.9847378,2.5602409 L54.3293159,2.5602409 C56.539356,2.5602409 57.4385528,3.192771 57.8907616,5.05819264 L59.179115,10.2177507 L55.5341352,10.2177507 L55.2132516,9.33654595" id="path68" fill="#FFFFFF"></path>
                        <path d="M69.3987934,5.93248981 L73.1321267,20.8670678 C73.2184721,21.2264653 73.2574279,21.5039754 73.2574279,21.7678709 C73.2574279,22.2824091 73.0473877,23.9599191 70.3385525,23.9599191 L63.2457816,23.9599191 L62.4526089,20.9414051 L63.6686731,20.7385939 C63.6550185,20.6827304 63.6409623,20.6297184 63.6305205,20.5882726 L59.8971873,5.65341351 C59.8501993,5.45871472 59.7710828,5.08441754 59.7710828,4.75228904 C59.7710828,4.23819267 59.9815246,2.5602409 62.6903599,2.5602409 L69.7831308,2.5602409 L70.5759019,5.57919665 L69.3598376,5.78156612 C69.3738938,5.8377107 69.3883517,5.8907629 69.3987934,5.93248981" id="path70" fill="#FFFFFF"></path>
                        <path d="M82.8630501,8.83485922 C82.7232911,8.83485922 82.6389538,8.85180701 82.6032108,8.86389536 C82.5855401,8.89967849 82.5445762,9.00931704 82.5445762,9.23851383 C82.5445762,10.1273893 82.932528,12.1964254 84.0224879,15.3470277 C84.8164637,17.6855819 85.2654597,17.6855819 85.7003995,17.6855819 C85.8084316,17.6855819 85.8738934,17.6727305 85.9032107,17.6642566 C85.9252991,17.6261441 85.9883513,17.4879112 85.9883513,17.1686743 C85.9883513,16.3706422 85.4132509,13.5702005 84.5506003,11.1746985 C83.6883513,8.83485922 83.2497971,8.83485922 82.8630501,8.83485922 Z M86.6248974,24.2421279 C81.2602389,24.2421279 78.1911627,22.9831721 76.3594358,20.0257425 C74.5915644,17.1253811 73.0971869,11.6947387 73.0971869,8.16674678 C73.0971869,6.05939744 74.0349379,4.36698784 75.7365443,3.40361437 C77.1232912,2.61530114 78.9783113,2.27833328 81.937749,2.27833328 C89.225299,2.27833328 92.0706804,4.29076294 94.1188731,10.893574 C94.7469856,12.9402005 95.4959815,15.8461843 95.4959815,18.0710437 C95.4959815,23.508393 91.0128491,24.2421279 86.6248974,24.2421279 Z" id="path72" fill="#FFFFFF"></path>
                        <path d="M119.338551,21.796385 C119.338551,22.3035737 119.128511,23.9599191 116.419676,23.9599191 L110.375901,23.9599191 L109.58313,20.9414051 L110.798391,20.7393569 C110.785138,20.6827304 110.77068,20.6297184 110.76064,20.5882726 L110.334535,18.8831722 L108.9257,22.3738549 C108.361443,23.8425697 107.310439,23.9599191 105.996383,23.9599191 L98.8112425,23.9599191 L98.0180698,20.9414051 L99.2341341,20.7385939 C99.2208811,20.6827304 99.2068248,20.6297184 99.1959815,20.5882726 L95.4722868,5.69120468 C95.4212828,5.52208822 95.3052185,5.09726895 95.3052185,4.72453803 C95.3052185,4.21638544 95.5180699,2.5602409 98.2558208,2.5602409 L104.344977,2.5602409 L105.004415,5.57795167 L103.875499,5.77433721 C103.890359,5.83333319 103.904415,5.88871471 103.916062,5.93216853 L104.651001,8.87032106 L106.402005,4.56104406 C107.041764,2.9723694 107.693572,2.5602409 109.573491,2.5602409 L114.642969,2.5602409 L119.208431,20.8485537 C119.289957,21.1538147 119.338551,21.5065055 119.338551,21.796385" id="path74" fill="#FFFFFF"></path>
                        <path d="M131.28835,17.7983931 L133.909635,17.7983931 C136.059033,17.7983931 136.698792,18.6695176 137.128109,20.2775095 L137.99839,23.9599191 L128.512848,23.9599191 C126.83574,23.9599191 125.963049,23.8750195 124.944174,23.3534131 C123.602005,22.7100396 122.490358,21.3309633 121.805218,19.4510839 C121.370278,18.2020076 120.906423,16.3044173 120.906423,15.2494374 C120.906423,12.8791563 122.792366,11.733815 124.636945,10.9265058 L126.697186,10.0694777 L126.732929,10.05506 C127.132527,9.90116441 127.310037,9.79919654 127.381925,9.75024072 C127.382728,9.74100377 127.382728,9.73048168 127.382728,9.71887526 C127.382728,9.54020056 127.297989,9.42722868 127.269475,9.40887527 C127.136543,9.32779093 127.022888,9.25783109 125.706423,9.25783109 L123.393973,9.25783109 C123.010037,9.25783109 122.753411,9.26943752 122.582728,9.28401583 L122.582728,10.3871885 L119.189957,10.3871885 L118.197989,6.45345365 L118.166262,6.31164643 C117.99317,5.52851392 117.94578,5.25429706 117.94578,5.03421674 C117.94578,4.00008022 118.636945,3.13457823 119.737346,2.77907624 C120.298391,2.59240957 120.834535,2.5602409 121.82088,2.5602409 L127.927306,2.5602409 C130.578712,2.5602409 132.433732,2.96622483 134.061041,5.03654606 C135.21084,6.4591163 136.336141,9.89080297 136.336141,11.9763451 C136.336141,13.1742567 135.905217,14.2019675 135.090358,14.9482326 C134.554615,15.4381522 133.826904,15.8441763 132.403611,16.447349 L130.391161,17.2976301 C130.179113,17.3859433 130.043772,17.4502807 129.95823,17.4948188 C129.972286,17.6261441 130.013651,17.6976702 130.036945,17.7087947 C130.133732,17.7530518 130.358631,17.7983931 131.28835,17.7983931" id="path76" fill="#FFFFFF"></path>
                        <path d="M41.8016054,27.7522483 C41.6016054,26.9622082 41.43775,26.6795174 41.0200793,26.4220877 C40.5658624,26.1393969 39.9481918,26.0063849 38.9578304,26.0063849 C37.4501195,26.0063849 36.7413244,26.3803608 36.7413244,27.1534531 C36.7413244,27.3032925 36.7956216,27.6104411 36.8586738,27.8598788 L37.6316055,30.9437743 C37.6584328,31.0855816 37.6675493,31.1273085 37.6675493,31.1770675 C37.6675493,31.3185534 37.5768665,31.4012442 37.3861035,31.4344972 L37.4400794,31.642208 L39.2032119,31.642208 C39.5120472,31.642208 39.6477902,31.5595173 39.6477902,31.3847382 C39.6477902,31.3430113 39.639758,31.2514048 39.6208825,31.1935334 L38.7947781,27.8931318 C38.7397581,27.66016 38.7309227,27.6104411 38.7309227,27.5357824 C38.7309227,27.3112845 38.8855412,27.2036539 39.184738,27.2036539 C39.6024086,27.2036539 39.7759026,27.3526901 39.8935733,27.809678 L40.6746978,30.9437743 C40.711244,31.0855816 40.7204809,31.1273085 40.7204809,31.1770675 C40.7204809,31.3185534 40.6200793,31.4012442 40.4297179,31.4344972 L40.4835331,31.642208 L42.2465853,31.642208 C42.5546174,31.642208 42.6915652,31.5595173 42.6915652,31.3847382 C42.6915652,31.3265454 42.6827299,31.2429309 42.655019,31.1437743 L41.8016054,27.7522483" id="path78" fill="#F2581C"></path>
                        <path d="M50.644577,30.9437743 C50.6811232,31.0855816 50.6899586,31.1273085 50.6899586,31.1770675 C50.6899586,31.3185534 50.5995971,31.4012442 50.3995971,31.4344972 L50.453814,31.642208 L52.244577,31.642208 C52.5891553,31.642208 52.6433722,31.6177101 52.7164645,31.426184 L53.6156613,29.1983527 L54.0522075,30.9437743 C54.0887537,31.0855816 54.0971874,31.1273085 54.0971874,31.1770675 C54.0971874,31.3185534 54.0060227,31.4012442 53.8064244,31.4344972 L53.8610428,31.642208 L55.3144564,31.642208 C55.6236934,31.642208 55.759838,31.5595173 55.759838,31.3847382 C55.759838,31.3348587 55.750601,31.2602 55.7325287,31.1935334 L54.4606412,26.09767 L53.2979906,26.09767 C52.9156613,26.09767 52.8795168,26.1224491 52.7530107,26.4385536 L51.7530108,28.8991961 L51.2265047,26.7956218 C51.1899586,26.6545776 51.1819264,26.6128507 51.1819264,26.5634532 C51.1819264,26.4132925 51.2718863,26.3386339 51.4622477,26.3052202 L51.4168662,26.09767 L49.963051,26.09767 C49.6554204,26.09767 49.5092357,26.1806419 49.5092357,26.3549391 C49.5092357,26.4051399 49.527308,26.4883126 49.5449787,26.5461841 L50.644577,30.9437743" id="path80" fill="#F2581C"></path>
                        <path d="M63.709637,30.9437743 C63.7457815,31.0855816 63.7550185,31.1273085 63.7550185,31.1770675 C63.7550185,31.3185534 63.664657,31.4012442 63.464657,31.4344972 L63.5180707,31.642208 L65.2811229,31.642208 C65.5987935,31.642208 65.7261028,31.5595173 65.7261028,31.3763044 C65.7261028,31.3265454 65.717669,31.2686739 65.6991951,31.1935334 L64.5991952,26.7956218 C64.5634522,26.6545776 64.5542153,26.6128507 64.5542153,26.5634532 C64.5542153,26.4132925 64.6453799,26.3386339 64.8449783,26.3052202 L64.7903598,26.09767 L63.0277093,26.09767 C62.7192755,26.09767 62.5827294,26.1806419 62.5827294,26.3638949 C62.5827294,26.4051399 62.5915647,26.4715254 62.6104402,26.5461841 L63.709637,30.9437743" id="path82" fill="#F2581C"></path>
                        <path d="M75.9313234,26.09767 L74.6413636,26.09767 C74.2056206,26.09767 74.1421668,26.1393969 74.1240945,26.4802805 L73.8148576,30.8693968 C73.778713,31.3185534 73.7333315,31.3932121 73.4337331,31.4344972 L73.4791146,31.642208 L75.3048174,31.642208 C75.5867451,31.6344972 75.6413636,31.5678305 75.6497973,31.1935334 L75.740962,28.4834531 L77.0401587,30.7610032 C77.1859418,31.035702 77.2309218,31.1357824 77.2309218,31.2264651 C77.2309218,31.3518064 77.1401587,31.4184731 76.958231,31.4344972 L77.0120463,31.642208 L78.4305201,31.642208 C78.6578294,31.642208 78.7208816,31.6344972 78.7755,31.625702 C78.8935723,31.6087944 78.9566245,31.5425695 78.9566245,31.451445 C78.9566245,31.3847382 78.9297169,31.3100795 78.8662631,31.2020073 L75.9313234,26.09767" id="path84" fill="#F2581C"></path>
                        <path d="M86.9321263,30.9437743 C86.9682709,31.0855816 86.9767047,31.1273085 86.9767047,31.1770675 C86.9767047,31.3185534 86.8851384,31.4012442 86.6859416,31.4344972 L86.7405601,31.642208 L90.9562226,31.642208 L90.8020058,31.0269069 C90.7020058,30.6534129 90.6016042,30.5867061 90.1469857,30.5867061 L88.7658612,30.5867061 L88.5397568,29.6473487 L90.3389536,29.6473487 L90.1658612,28.9738547 C90.0742949,28.5995575 89.9750982,28.5421278 89.5204797,28.5421278 L88.2582307,28.5421278 L87.9393552,27.2610837 L89.338552,27.2610837 C89.8562227,27.2610837 89.9750982,27.3197584 90.0742949,27.5936539 L90.329315,27.5936539 L90.0658612,26.5381921 C89.9750982,26.163413 89.8654596,26.09767 89.4116444,26.09767 L86.2501986,26.09767 C85.9413633,26.09767 85.8044155,26.1806419 85.8044155,26.3549391 C85.8044155,26.4051399 85.8136525,26.4802805 85.832528,26.5461841 L86.9321263,30.9437743" id="path86" fill="#F2581C"></path>
                        <path d="M101.857427,29.6638145 C101.984736,29.8136137 102.057026,30.0301197 102.057026,30.2542964 C102.057026,30.5115655 101.939355,30.5867061 101.512447,30.5867061 L101.039757,30.5867061 L100.75823,29.4562643 L101.30321,29.4562643 C101.566263,29.4562643 101.730118,29.5224491 101.857427,29.6638145 Z M99.2044152,30.9437743 C99.241363,31.0855816 99.2497967,31.1273085 99.2497967,31.1770675 C99.2497967,31.3185534 99.1586321,31.4012442 98.9598369,31.4344972 L99.0140537,31.642208 L102.720881,31.642208 C103.201604,31.642208 103.457026,31.5847783 103.637748,31.451445 C103.828511,31.3020876 103.93815,31.0192362 103.93815,30.6943366 C103.93815,30.1292764 103.711242,29.4647382 103.392367,29.0570274 C103.156222,28.7663045 102.911644,28.6249792 102.475098,28.5333326 L102.847789,27.6691158 C103.011242,27.2867865 103.038953,27.2610837 103.374295,27.2610837 L103.510439,27.2610837 L103.319676,26.5212443 C103.229315,26.163413 103.147387,26.09767 102.747387,26.09767 L101.902407,26.09767 C101.557829,26.09767 101.520479,26.130923 101.393973,26.4964652 L100.70321,28.5333326 L100.53052,28.5333326 L100.077106,26.7212443 C100.058632,26.6545776 100.049395,26.6043768 100.049395,26.5634532 C100.049395,26.4132925 100.14056,26.3386339 100.340158,26.3052202 L100.28554,26.09767 L98.5232907,26.09767 C98.2136522,26.09767 98.0690739,26.1806419 98.0690739,26.3638949 C98.0690739,26.4051399 98.0867445,26.4715254 98.1048168,26.5461841 L99.2044152,30.9437743 Z" id="path88" fill="#F2581C"></path>
                        <path d="M113.484335,27.419678 C113.621282,27.5028106 113.702808,27.66016 113.702808,27.8264652 C113.702808,28.0349391 113.602808,28.1425696 113.257828,28.2759029 L112.65823,28.5253407 C112.031323,28.7995575 111.794776,29.0570274 111.794776,29.4562643 C111.794776,29.6892362 111.904013,30.1876298 112.040559,30.5787141 C112.204013,31.0269069 112.466664,31.3682723 112.766664,31.5093165 C112.975901,31.6177101 113.14819,31.642208 113.621282,31.642208 L115.901604,31.642208 L115.75582,31.0269069 C115.656222,30.6534129 115.583531,30.5867061 115.21084,30.5867061 L114.43815,30.5867061 C114.111242,30.5867061 113.993571,30.5699189 113.883933,30.5200394 C113.721282,30.4453808 113.630118,30.2870675 113.630118,30.0879912 C113.630118,29.9132523 113.702808,29.8388748 114.002407,29.7140153 L114.59317,29.4647382 C114.965459,29.306425 115.147387,29.2068266 115.265057,29.098433 C115.428913,28.9490756 115.510037,28.7413647 115.510037,28.491927 C115.510037,27.9594772 115.21084,27.0285937 114.920479,26.6715254 C114.574696,26.2308427 114.220479,26.09767 113.44819,26.09767 L111.648592,26.09767 C111.385941,26.09767 111.277106,26.105662 111.177507,26.1393969 C111.022487,26.1891158 110.922487,26.2972283 110.922487,26.4465857 C110.922487,26.4964652 110.968672,26.6959833 110.986744,26.779156 L111.204013,27.6438547 L111.457829,27.6438547 C111.457829,27.3694772 111.594776,27.3112845 112.11325,27.3112845 L112.793973,27.3112845 C113.239355,27.3112845 113.347788,27.3365455 113.484335,27.419678" id="path90" fill="#F2581C"></path>
                        <path d="M124.224896,30.9437743 C124.261041,31.0855816 124.269876,31.1273085 124.269876,31.1770675 C124.269876,31.3185534 124.179515,31.4012442 123.979515,31.4344972 L124.033732,31.642208 L125.796382,31.642208 C126.114455,31.642208 126.241362,31.5595173 126.241362,31.3763044 C126.241362,31.3265454 126.232929,31.2686739 126.214455,31.1935334 L125.115258,26.7956218 C125.07831,26.6545776 125.070278,26.6128507 125.070278,26.5634532 C125.070278,26.4132925 125.160639,26.3386339 125.360238,26.3052202 L125.306021,26.09767 L123.542969,26.09767 C123.234535,26.09767 123.097587,26.1806419 123.097587,26.3638949 C123.097587,26.4051399 123.107226,26.4715254 123.125298,26.5461841 L124.224896,30.9437743" id="path92" fill="#F2581C"></path>
                        <path d="M135.391563,30.5365053 L134.819274,30.5285133 C134.465057,30.5365053 134.374695,30.4867864 134.274294,30.2542964 L134.019675,30.2542964 L134.237748,31.1273085 C134.35582,31.6012442 134.41084,31.642208 134.874294,31.642208 L138.172286,31.642208 C138.489555,31.642208 138.607627,31.7004008 138.699193,31.9084329 L138.971482,31.9084329 L138.744575,31.0269069 C138.634936,30.5787141 138.580719,30.5365053 138.189956,30.5365053 L137.318069,30.5365053 L136.382326,26.7956218 C136.345378,26.6545776 136.345378,26.6128507 136.345378,26.5634532 C136.345378,26.4132925 136.437346,26.3386339 136.627707,26.3052202 L136.573089,26.09767 L134.81084,26.09767 C134.501603,26.09767 134.365458,26.1806419 134.365458,26.3638949 C134.365458,26.4051399 134.374695,26.4715254 134.392768,26.5461841 L135.391563,30.5365053" id="path94" fill="#F2581C"></path>
                        <path d="M148.186342,28.2923688 L147.404414,30.9193165 C147.295177,31.2763446 147.186743,31.3932121 146.877506,31.4344972 L146.932125,31.642208 L148.667466,31.642208 C148.948992,31.6344972 148.994374,31.5927703 149.093972,31.2264651 L149.512446,29.6225695 L150.412044,31.0269069 C150.48353,31.1357824 150.520478,31.2264651 150.520478,31.2856217 C150.520478,31.3682723 150.457024,31.4184731 150.312044,31.4344972 L150.36586,31.642208 L151.973089,31.642208 C152.246583,31.642208 152.337346,31.6012442 152.337346,31.4679109 C152.337346,31.4092362 152.300799,31.3430113 152.237346,31.2514048 L150.111643,28.2260234 L149.739354,26.7956218 C149.712044,26.6630515 149.703209,26.6128507 149.703209,26.5634532 C149.703209,26.4132925 149.793972,26.3386339 149.984735,26.3052202 L149.930518,26.09767 L148.167868,26.09767 C147.858229,26.09767 147.722085,26.1806419 147.722085,26.3549391 C147.722085,26.4051399 147.731723,26.4802805 147.749394,26.5461841 L148.186342,28.2923688" id="path96" fill="#F2581C"></path>
                        <path d="M128.050599,8.33614437 C128.512848,8.61807207 128.790358,9.15457808 128.790358,9.71887526 C128.790358,10.4244977 128.451402,10.7911242 127.279916,11.2429314 L125.244174,12.0891563 C123.116061,13.0200398 122.314455,13.895582 122.314455,15.2494374 C122.314455,16.0400799 122.683933,17.7329714 123.147386,19.0585939 C123.702407,20.5828107 124.596784,21.7393167 125.613651,22.2196782 C126.323692,22.5867464 126.909635,22.6706822 128.512848,22.6706822 L136.25341,22.6706822 L135.759836,20.5828107 C135.421282,19.3131722 135.174294,19.0871481 133.909635,19.0871481 L131.28835,19.0871481 C130.177908,19.0871481 129.777908,19.0309634 129.407627,18.861365 C128.852607,18.6077104 128.543772,18.0710437 128.543772,17.3944172 C128.543772,16.8015658 128.790358,16.5474293 129.80843,16.1244976 L131.812848,15.2775097 C133.076704,14.7413249 133.693169,14.4032527 134.095579,14.0361442 C134.649796,13.5284736 134.928109,12.8228511 134.928109,11.9763451 C134.928109,10.1702005 133.909635,7.01008015 132.92329,5.796787 C131.750599,4.30128503 130.548591,3.84947782 127.927306,3.84947782 L121.82088,3.84947782 C120.926905,3.84947782 120.557427,3.8775501 120.217266,3.99080311 C119.69317,4.15991957 119.354214,4.52686736 119.354214,5.03421674 C119.354214,5.20409626 119.508431,5.88116451 119.569877,6.16309222 L120.310037,9.09843351 L121.173491,9.09843351 C121.173491,8.16674678 121.636543,7.96983916 123.393973,7.96983916 L125.706423,7.96983916 C127.217668,7.96983916 127.587949,8.0537749 128.050599,8.33614437" id="path98" fill="#F2581C"></path>
                        <path d="M50.7807216,7.80168655 L54.1437737,7.80168655 C55.8088339,7.80168655 56.2096371,7.99919659 56.5497978,8.93088331 L57.41285,8.93088331 L56.5188741,5.34574284 C56.2096371,4.07630512 55.8706813,3.84975894 54.3281111,3.84975894 L44.9803202,3.84975894 C43.9630511,3.84975894 43.5313242,4.13216857 43.5313242,4.72481916 C43.5313242,4.89441755 43.5622479,5.14855409 43.6240953,5.37429705 L47.3566253,20.306385 C47.4799185,20.7862645 47.5104406,20.9280718 47.5104406,21.0971882 C47.5104406,21.5767866 47.2020069,21.8589954 46.5236936,21.9714854 L46.7084326,22.6775898 L52.6927698,22.6775898 C53.7421673,22.6775898 54.2048179,22.3955014 54.2048179,21.7742966 C54.2048179,21.6334131 54.1738942,21.3795979 54.1124484,21.1530517 L50.7807216,7.80168655" id="path100" fill="#F2581C"></path>
                        <path d="M65.0064241,20.306385 C65.1297172,20.7862645 65.1610425,20.9280718 65.1610425,21.0971882 C65.1610425,21.5767866 64.8522072,21.8589954 64.1730908,21.9714854 L64.3590345,22.6775898 L70.3433717,22.6775898 C71.4228898,22.6775898 71.8546167,22.3955014 71.8546167,21.7742966 C71.8546167,21.6048589 71.8240946,21.4076701 71.7626488,21.1530517 L68.0301188,6.22176691 C67.9068256,5.74092355 67.8759019,5.59959825 67.8759019,5.43016051 C67.8759019,4.92281112 68.1843356,4.66819265 68.8622473,4.55586334 L68.6775083,3.84975894 L62.6931711,3.84975894 C61.6441752,3.84975894 61.1807214,4.13216857 61.1807214,4.75261032 C61.1807214,4.89441755 61.2116451,5.11999987 61.2742957,5.37429705 L65.0064241,20.306385" id="path102" fill="#F2581C"></path>
                        <path d="M100.575098,20.306385 C100.697989,20.7862645 100.728913,20.9280718 100.728913,21.0971882 C100.728913,21.5767866 100.420479,21.8589954 99.7421662,21.9714854 L99.9269051,22.6775898 L106.004013,22.6775898 C107.175901,22.6775898 107.361443,22.5927304 107.608431,21.9436942 L110.662648,14.3787547 L112.142969,20.306385 C112.266664,20.7862645 112.297588,20.9280718 112.297588,21.0971882 C112.297588,21.5767866 111.988752,21.8589954 111.310037,21.9714854 L111.495178,22.6775898 L116.430921,22.6775898 C117.479917,22.6775898 117.943371,22.3955014 117.943371,21.8023689 C117.943371,21.6334131 117.911242,21.3795979 117.849796,21.1530517 L113.531724,3.84975894 L109.58313,3.84975894 C108.286744,3.84975894 108.163451,3.93417661 107.732126,5.00690751 L104.33815,13.3629716 L102.548993,6.22176691 C102.425299,5.74092355 102.395178,5.59959825 102.395178,5.43016051 C102.395178,4.92281112 102.703612,4.66819265 103.351001,4.55586334 L103.197588,3.84975894 L98.2614433,3.84975894 C97.2124474,3.84975894 96.7184715,4.13216857 96.7184715,4.72481916 C96.7184715,4.89441755 96.7803189,5.17662638 96.8421663,5.37429705 L100.575098,20.306385" id="path104" fill="#F2581C"></path>
                        <path d="M82.6807208,15.7377908 C81.6931706,12.8859033 81.137749,10.5136142 81.137749,9.24337326 C81.137749,8.14208815 81.7240943,7.54895563 82.8654598,7.54895563 C84.2542148,7.54895563 84.994777,8.33975883 85.8899577,10.7679114 C86.7847368,13.2525298 87.4020058,16.189598 87.4020058,17.1782325 C87.4020058,18.3634534 86.8160621,18.9846983 85.7044155,18.9846983 C84.2542148,18.9846983 83.5140541,18.1943369 82.6807208,15.7377908 Z M92.7714836,11.2481122 C90.8891544,5.1771083 88.5746966,3.56738947 81.939757,3.56738947 C79.2863434,3.56738947 77.6192752,3.84975894 76.4783113,4.49923684 C75.1823274,5.23373481 74.503211,6.50445767 74.503211,8.17064237 C74.503211,11.5024094 75.9534118,16.7264253 77.5887531,19.4084332 C79.1630502,21.9498388 81.7859417,22.9667063 86.6309215,22.9667063 C92.0309214,22.9667063 94.0983912,21.6393569 94.0983912,18.0815257 C94.0983912,16.387108 93.6040137,13.9586342 92.7714836,11.2481122 Z" id="path106" fill="#F2581C"></path>
                        <path d="M133.251001,20.8662645 L128.957025,20.8662645 C128.155418,20.8662645 127.861844,20.8240959 127.507226,20.6410035 C126.99839,20.4003609 126.551402,19.8225698 126.273491,19.0603208 C126.261041,19.0232927 125.914455,17.7473891 125.901603,17.7092767 C125.688752,17.0659032 125.524093,16.2910839 125.524093,15.9180317 C125.524093,15.2409635 125.924495,14.8035739 126.988752,14.337831 L130.656623,12.7622888 C131.663049,12.3116061 132.13333,11.4522085 131.842165,10.4289154 C131.602005,9.58317245 131.305619,8.68911625 131.014856,7.78879499 C130.639354,6.62698779 129.740157,5.88558218 128.017667,5.88558218 L122.381121,5.88558218 C122.024093,5.88558218 121.732527,6.0694376 121.732527,6.0694376 L119.541362,4.45265049 C119.691965,4.2441766 119.924093,4.08554207 120.217266,3.99080311 C120.557427,3.8775501 120.926905,3.84947782 121.82088,3.84947782 L127.927306,3.84947782 C130.548591,3.84947782 131.750599,4.30128503 132.92329,5.796787 C133.909635,7.01008015 134.928109,10.1702005 134.928109,11.9763451 C134.928109,12.8228511 134.649796,13.5284736 134.095579,14.0361442 C133.693169,14.4032527 133.076704,14.7413249 131.812848,15.2775097 L129.80843,16.1244976 C128.790358,16.5474293 128.543772,16.8015658 128.543772,17.3944172 C128.543772,18.0710437 128.852607,18.6077104 129.407627,18.861365 C129.777908,19.0309634 130.177908,19.0871481 131.28835,19.0871481 L133.909635,19.0871481 C135.174294,19.0871481 135.421282,19.3131722 135.759836,20.5828107 L136.25341,22.6706822 L133.251001,20.8662645" id="path108" fill="#AA3820"></path>
                        <path d="M56.3971873,6.95140545 C56.0578299,6.01971873 55.6574283,5.82204805 53.9911633,5.82204805 L47.0433723,5.82204805 L50.7807216,7.80168655 L54.1124484,21.1530517 C54.1738942,21.3795979 54.2048179,21.6334131 54.2048179,21.7742966 C54.2048179,21.9678709 54.1602396,22.1285135 54.0662637,22.2582324 L50.7269064,20.6759834 L47.0465852,5.98441752 L43.6273081,4.31602399 C43.8048182,4.00240954 44.2353403,3.84975894 44.9803202,3.84975894 L54.3281111,3.84975894 C55.8706813,3.84975894 56.2096371,4.07630512 56.5188741,5.34574284 L57.41285,8.93088331 L56.8967857,8.67156605 L56.3971873,6.95140545" id="path110" fill="#AA3820"></path>
                        <path d="M68.3534119,20.6759834 L64.6726891,5.98441752 L61.2823278,4.33044166 C61.4694764,4.00289147 61.9220868,3.84975894 62.6931711,3.84975894 L68.6775083,3.84975894 L68.8622473,4.55586334 C68.1843356,4.66819265 67.8759019,4.92281112 67.8759019,5.43016051 C67.8759019,5.59959825 67.9068256,5.74092355 68.0301188,6.22176691 L71.7626488,21.1530517 C71.8240946,21.4076701 71.8546167,21.6048589 71.8546167,21.7742966 C71.8546167,21.9730517 71.8100384,22.1365055 71.714456,22.2685938 L68.3534119,20.6759834" id="path112" fill="#AA3820"></path>
                        <path d="M117.90321,22.0687545 L114.964656,20.6759834 L111.283933,5.98441752 L110.662648,14.3787547 L107.608431,21.9436942 C107.507628,22.2083529 107.416463,22.3779512 107.265058,22.4879111 L103.441363,20.6759834 L99.7606401,5.98441752 L96.7425679,4.51289145 C96.8542144,4.06469869 97.3469855,3.84975894 98.2614433,3.84975894 L103.197588,3.84975894 L103.351001,4.55586334 C102.703612,4.66819265 102.395178,4.92281112 102.395178,5.43016051 C102.395178,5.59959825 102.425299,5.74092355 102.548993,6.22176691 L104.33815,13.3629716 L104.575098,21.1582324 L110.820479,5.76068259 L108.020881,4.37389547 C108.298391,3.8971485 108.611242,3.84975894 109.58313,3.84975894 L113.531724,3.84975894 L117.849796,21.1530517 C117.911242,21.3795979 117.943371,21.6334131 117.943371,21.8023689 C117.943371,21.8999593 117.929314,21.9874693 117.90321,22.0687545" id="path114" fill="#AA3820"></path>
                        <path d="M93.2132507,21.1236943 L90.1911624,19.6200397 C90.1911624,19.6200397 89.5489937,20.6899593 86.0140541,20.6899593 C81.6714839,20.6899593 79.8309217,19.0345778 78.6546165,13.6847386 C77.9088334,10.2895981 77.3003997,8.01252992 78.4068253,6.81365445 L81.3626486,8.26257007 C81.2140542,8.52252991 81.137749,8.84975881 81.137749,9.24337326 C81.137749,10.5136142 81.6931706,12.8859033 82.6807208,15.7377908 C83.5140541,18.1943369 84.2542148,18.9846983 85.7044155,18.9846983 C86.4678693,18.9846983 86.983532,18.6916461 87.2309215,18.1237345 L90.2112427,19.5486742 C90.927307,18.8317264 91.2265037,17.3558229 90.0240941,13.1384736 C88.5072267,7.82003997 88.1827287,5.79236933 82.1831305,5.79236933 C79.3875482,5.79236933 78.4068253,6.81365445 78.4068253,6.81365445 L75.4501989,5.33570268 C75.731725,5.00799184 76.0750985,4.72734928 76.4783113,4.49923684 C77.6192752,3.84975894 79.2863434,3.56738947 81.939757,3.56738947 C88.5746966,3.56738947 90.8891544,5.1771083 92.7714836,11.2481122 C93.6040137,13.9586342 94.0983912,16.387108 94.0983912,18.0815257 C94.0983912,19.3770276 93.822086,20.3763449 93.2132507,21.1236943" id="path116" fill="#AA3820"></path>
                        <path d="M49.4236935,37.6843364 C49.4457819,37.7963444 49.4899586,37.9778304 49.5710831,38.2931717 L54.4722878,57.9004002 C54.5791151,58.3417656 54.6281111,58.6799182 54.6281111,58.9959825 C54.6281111,59.9196772 54.1871472,61.4694764 51.2349385,61.4694764 L42.2698785,61.4694764 L41.4196777,58.2305206 L42.8847379,57.9867455 C42.9313242,57.9787134 42.9710833,57.9710829 43.0048182,57.9634524 C42.9823282,57.8518058 42.9381515,57.6706813 42.8566254,57.3562235 L37.9555814,37.7481918 C37.8559428,37.3373083 37.8007219,36.9482722 37.8007219,36.6530111 C37.8007219,35.9092762 38.1311235,34.1787542 41.1931717,34.1787542 L50.1594365,34.1787542 L51.0084325,37.4184328 L49.5433723,37.6622079 C49.4975891,37.6698786 49.4578301,37.6775894 49.4236935,37.6843364" id="path118" fill="#FFFFFF"></path>
                        <path d="M82.9156606,59.0325286 C82.9156606,59.7654604 82.5847369,61.4694764 79.5228896,61.4694764 L71.9337331,61.4694764 L71.083934,58.2305206 L72.5493958,57.9867455 C72.5959821,57.9787134 72.6353395,57.9710829 72.6690745,57.9630508 C72.6473877,57.8518058 72.6024078,57.6706813 72.5212833,57.3558219 L71.6325283,53.7963842 L69.2678698,59.6534122 C68.619677,61.343372 67.4883517,61.4694764 65.8365445,61.4694764 L56.7489946,61.4694764 L55.8999986,58.2305206 L57.3646572,57.9867455 C57.4116452,57.9787134 57.450601,57.9710829 57.4843359,57.9634524 C57.4622476,57.8518058 57.4180709,57.6706813 57.3369464,57.3562235 L52.4449786,37.7863043 C52.3927698,37.6120071 52.2401593,37.0667059 52.2401593,36.6164649 C52.2401593,36.0441758 52.4883521,34.1787542 55.6726894,34.1787542 L63.3064241,34.1787542 L64.0144562,37.4168665 L62.6176691,37.6606416 C62.5839342,37.6665854 62.5530105,37.6722481 62.5252996,37.6783525 C62.5469864,37.7891155 62.5915647,37.9714047 62.6750988,38.2919268 L63.9710827,43.4650592 L66.7823276,36.5413244 C67.5558216,34.6200393 68.2570264,34.1787542 70.5337332,34.1787542 L76.8397571,34.1787542 L82.7558212,57.8815247 C82.8558212,58.252609 82.9156606,58.6823279 82.9156606,59.0325286" id="path120" fill="#FFFFFF"></path>
                        <path d="M94.7518049,52.4827296 C95.3188731,53.9236934 95.5473872,53.9642557 96.82811,53.9642557 L100.714455,53.9642557 C103.140158,53.9642557 104.093973,54.6867456 104.640158,56.9341351 L105.755017,61.4694764 L93.5481904,61.4694764 C86.1096364,61.4694764 83.9405602,57.8236933 81.5586325,47.5429707 C80.8003996,44.1144567 80.5180703,42.2674688 80.5180703,40.7289146 C80.5180703,38.1261035 81.4698775,36.2418465 83.3405602,35.1317662 C84.9244959,34.1799991 86.7526083,33.9197582 91.8469857,33.9197582 C97.7381502,33.9197582 99.0140537,34.011967 100.401604,35.0707622 L100.447789,35.1068264 C101.141765,35.683975 101.623692,36.5771075 101.967869,37.9253003 L103.32811,43.4257017 L99.4570256,43.4257017 L99.1361421,42.5445772 C98.9377485,42.0004006 98.916865,41.9437741 97.2734915,41.9437741 L94.559837,41.9437741 C93.4570258,41.9437741 93.0991945,41.9783122 92.8052186,42.0248985 C92.4232909,42.1369467 92.3650579,42.6273082 92.3650579,42.91526 C92.3650579,43.4931716 92.555821,44.5421676 93.0208812,46.5321274 C93.6461824,49.1634526 94.3634515,51.5140549 94.7518049,52.4827296" id="path122" fill="#FFFFFF"></path>
                        <path d="M117.871081,50.6843361 C119.008431,54.0381513 119.730117,54.0381513 120.493571,54.0381513 C120.914455,54.0381513 121.312447,54.0381513 121.312447,52.9562236 C121.312447,51.8570268 120.567065,48.1919667 119.402808,44.9578302 C118.16827,41.6108423 117.457427,41.6108423 116.768672,41.6108423 C116.220479,41.6108423 115.909234,41.6534126 115.909234,42.5445772 C115.909234,44.0943764 116.642166,47.1353402 117.871081,50.6843361 Z M132.916463,54.1413641 C132.916463,60.9252997 127.250599,61.8405607 121.708431,61.8405607 C114.844174,61.8405607 110.929314,60.2485929 108.614455,56.510842 C106.323291,52.7522075 104.387548,45.712047 104.387548,41.1365452 C104.387548,38.5140553 105.544576,36.4144168 107.642969,35.2257421 C109.389154,34.2320875 111.755419,33.8088345 115.553009,33.8088345 C120.475499,33.8088345 123.557828,34.5023686 125.859435,36.1288746 C128.163049,37.7569468 129.736543,40.3570271 131.122487,44.8265049 C131.940961,47.4887538 132.916463,51.2666654 132.916463,54.1413641 Z" id="path124" fill="#FFFFFF"></path>
                        <path d="M148.154615,43.4257017 L147.833731,42.5445772 C147.693571,42.1590351 147.612848,42.0915652 147.609233,42.0891556 C147.561442,42.055019 147.305619,41.9437741 146.011643,41.9437741 L143.364655,41.9437741 L147.341362,57.8819263 C147.438551,58.2429704 147.5008,58.6779102 147.5008,58.9959825 C147.5008,59.7397575 147.170277,61.4694764 144.108029,61.4694764 L135.142969,61.4694764 L134.292366,58.2305206 L135.757828,57.9867455 C135.804414,57.9787134 135.844575,57.9710829 135.87831,57.9630508 C135.85582,57.8518058 135.811242,57.6706813 135.73092,57.3562235 L130.833732,37.7674689 C130.733732,37.3955011 130.674294,36.9663043 130.674294,36.6164649 C130.674294,35.8840152 130.995981,34.1787542 133.985539,34.1787542 L146.255016,34.1787542 C148.924896,34.1787542 149.958229,34.9016457 150.503209,37.144979 L152.070277,43.4257017 L148.154615,43.4257017" id="path126" fill="#FFFFFF"></path>
                        <path d="M179.152606,61.4694764 L171.563851,61.4694764 L170.71365,58.2305206 L172.179112,57.9867455 C172.225699,57.9787134 172.265859,57.9710829 172.299594,57.9630508 C172.276703,57.8518058 172.232526,57.6706813 172.151401,57.3558219 L171.262245,53.7963842 L168.897586,59.6534122 C168.249795,61.343372 167.118068,61.4694764 165.466261,61.4694764 L156.379916,61.4694764 L155.528912,58.2305206 L156.994374,57.9867455 C157.041763,57.9787134 157.081121,57.9710829 157.114454,57.9630508 C157.091964,57.8518058 157.048189,57.6706813 156.966663,57.3562235 L152.074695,37.7855011 C152.022888,37.6120071 151.870277,37.0654609 151.870277,36.6164649 C151.870277,36.0441758 152.118068,34.1787542 155.303209,34.1787542 L162.936141,34.1787542 L163.644574,37.4165452 L162.24859,37.6606416 C162.213651,37.6665854 162.182325,37.6722481 162.155418,37.6783525 C162.176703,37.7891155 162.222084,37.9714047 162.304414,38.2919268 L163.599996,43.4650592 L166.412847,36.5413244 C167.18594,34.6200393 167.886743,34.1787542 170.16345,34.1787542 L176.469473,34.1787542 L182.385939,57.8815247 C182.485538,58.252609 182.544975,58.6823279 182.544975,59.0325286 C182.544975,59.7654604 182.214453,61.4694764 179.152606,61.4694764" id="path128" fill="#FFFFFF"></path>
                        <path d="M34.0287542,43.4469869 L33.7027702,42.5514046 C33.5673887,42.1811234 33.4870674,42.1076295 33.4858225,42.1064247 C33.4353004,42.0730913 33.1684731,41.9646576 31.9016859,41.9646576 L29.2833728,41.9646576 L33.2539349,57.877107 C33.3513646,58.2389544 33.4141357,58.6763038 33.4141357,58.9959825 C33.4141357,59.7008017 33.1196779,61.2867455 30.5208426,61.4730908 L30.5248988,61.4915647 L25.1322484,61.4915647 L25.1095174,61.4706812 C25.2988347,61.234135 25.5063849,61.020882 25.7412443,60.9048178 C25.1584331,60.5847374 24.3139753,60.3032113 23.3760235,60.2429704 C22.4726902,59.856625 21.3083529,59.6172676 19.8931722,59.528111 L18.8306421,59.4610427 L18.4832927,58.0602395 C18.9233329,56.6670669 18.7263048,54.9630508 17.8765056,53.5457818 L20.6447786,53.5457818 L16.9112446,38.6095974 C18.2359032,37.4132521 20.0636943,37.031726 20.0636943,37.031726 C19.4379112,35.888714 18.3912044,35.162208 17.5219674,34.7257823 C18.0197184,34.3927301 18.7639754,34.1581919 19.8753007,34.1581919 L32.1453004,34.1581919 C34.8289951,34.1581919 35.8675493,34.8843766 36.4155011,37.1401196 L37.988995,43.4469869 L34.0287542,43.4469869" id="path130" fill="#FFFFFF"></path>
                        <path d="M44.2297178,57.0686733 C44.3915652,57.6983921 44.432529,57.8835327 44.432529,58.1064243 C44.432529,58.7361431 44.0277097,59.1064242 43.1365451,59.2550186 L43.3791154,60.1807214 L51.2349385,60.1807214 C52.6526091,60.1807214 53.2188742,59.8104403 53.2188742,58.9959825 C53.2188742,58.7730909 53.1795167,58.5140548 53.097589,58.1803198 L48.1983924,38.58024 C48.0361434,37.95024 47.9959827,37.7651396 47.9959827,37.5425292 C47.9959827,36.8762641 48.400802,36.5425694 49.2911634,36.3940152 L49.0489948,35.4682722 L41.1931717,35.4682722 C39.8164649,35.4682722 39.2088344,35.8385132 39.2088344,36.6530111 C39.2088344,36.8389147 39.248995,37.1349388 39.3305211,37.4683123 L44.2297178,57.0686733" id="path132" fill="#F2581C"></path>
                        <path d="M58.7104403,57.0686733 C58.8726893,57.6983921 58.9128499,57.8835327 58.9128499,58.1064243 C58.9128499,58.7361431 58.5076291,59.1064242 57.6172676,59.2550186 L57.8602395,60.1807214 L65.8365445,60.1807214 C67.3755003,60.1807214 67.6180706,60.069878 67.942167,59.2176692 L71.9514038,49.287549 L73.8943757,57.0686733 C74.056223,57.6983921 74.0967853,57.8835327 74.0967853,58.1064243 C74.0967853,58.7361431 73.6923676,59.1064242 72.801203,59.2550186 L73.0441749,60.1807214 L79.5228896,60.1807214 C80.899998,60.1807214 81.5072269,59.8104403 81.5072269,59.0325286 C81.5072269,58.8100387 81.4666646,58.4767054 81.3859417,58.1803198 L75.7160624,35.4682722 L70.5337332,35.4682722 C68.83293,35.4682722 68.6714842,35.578714 68.1040144,36.9863846 L63.6501992,47.9546173 L61.3012033,38.58024 C61.1393559,37.95024 61.0991953,37.7651396 61.0991953,37.5425292 C61.0991953,36.8762641 61.5044161,36.5425694 62.3542153,36.3940152 L62.1522073,35.4682722 L55.6726894,35.4682722 C54.2963842,35.4682722 53.6489946,35.8385132 53.6489946,36.6164649 C53.6489946,36.8389147 53.7297175,37.2088344 53.810842,37.4683123 L58.7104403,57.0686733" id="path134" fill="#F2581C"></path>
                        <path d="M96.82811,55.2530107 C94.8433711,55.2530107 94.1546161,54.771083 93.4261021,52.9188742 C92.9811222,51.8072276 92.2522065,49.3622478 91.6449776,46.8056213 C91.1586323,44.730521 90.9562226,43.619276 90.9562226,42.91526 C90.9562226,41.8036134 91.5232909,40.9883524 92.49558,40.766264 C92.9409615,40.6923685 93.3859414,40.6550191 94.559837,40.6550191 L97.2734915,40.6550191 C99.4594353,40.6550191 100.026905,40.9144568 100.471885,42.1369467 L101.565058,42.1369467 L100.593973,38.2097179 C100.310038,37.0979107 99.9461822,36.4313646 99.5003991,36.0606417 C98.52811,35.319718 97.6377486,35.208473 91.8469857,35.208473 C87.0281103,35.208473 85.4092348,35.4309228 84.1136525,36.2089148 C82.615259,37.0979107 81.9269056,38.58024 81.9269056,40.7289146 C81.9269056,42.2485933 82.2506004,44.1746977 82.9393554,47.2871474 C85.3690742,57.7726893 87.3534115,60.1807214 93.5481904,60.1807214 L103.993973,60.1807214 L103.265861,57.216866 C102.861443,55.5497978 102.456222,55.2530107 100.714455,55.2530107 L96.82811,55.2530107" id="path136" fill="#F2581C"></path>
                        <path d="M116.526102,51.067067 C115.230118,47.3240952 114.501202,44.2116455 114.501202,42.5445772 C114.501202,41.0991958 115.271081,40.3212841 116.768672,40.3212841 C118.59076,40.3212841 119.562246,41.3594367 120.736543,44.5449788 C121.911644,47.8060229 122.72088,51.6586332 122.72088,52.9562236 C122.72088,54.5124484 121.951804,55.3273079 120.493571,55.3273079 C118.59076,55.3273079 117.619274,54.2899585 116.526102,51.067067 Z M129.766262,45.1755009 C127.295981,37.2088344 124.258631,35.0975895 115.553009,35.0975895 C112.071483,35.0975895 109.884736,35.4682722 108.386744,36.3201196 C106.686744,37.28273 105.795178,38.951003 105.795178,41.1365452 C105.795178,45.5088342 107.698391,52.3630509 109.844576,55.8831311 C111.909636,59.2176692 115.351804,60.5518057 121.708431,60.5518057 C128.794374,60.5518057 131.507627,58.8100387 131.507627,54.1413641 C131.507627,51.9188742 130.859836,48.7321273 129.766262,45.1755009 Z" id="path138" fill="#F2581C"></path>
                        <path d="M141.597587,40.6550191 L146.011643,40.6550191 C148.197988,40.6550191 148.723691,40.9144568 149.169876,42.1369467 L150.303209,42.1369467 L149.129314,37.4309629 C148.723691,35.7646176 148.279514,35.4682722 146.255016,35.4682722 L133.985539,35.4682722 C132.649394,35.4682722 132.081924,35.8385132 132.081924,36.6164649 C132.081924,36.8389147 132.122085,37.1719669 132.204013,37.4683123 L137.103611,57.0686733 C137.265458,57.6983921 137.306021,57.8835327 137.306021,58.1064243 C137.306021,58.7361431 136.9008,59.1064242 136.010037,59.2550186 L136.25341,60.1807214 L144.108029,60.1807214 C145.485137,60.1807214 146.092366,59.8104403 146.092366,58.9959825 C146.092366,58.8100387 146.052205,58.4767054 145.971081,58.1803198 L141.597587,40.6550191" id="path140" fill="#F2581C"></path>
                        <path d="M158.340157,57.0686733 C158.502406,57.6983921 158.542566,57.8835327 158.542566,58.1064243 C158.542566,58.7361431 158.137747,59.1064242 157.246984,59.2550186 L157.490759,60.1807214 L165.466261,60.1807214 C167.005217,60.1807214 167.248189,60.069878 167.571883,59.2176692 L171.58112,49.287549 L173.524092,57.0686733 C173.686341,57.6983921 173.726502,57.8835327 173.726502,58.1064243 C173.726502,58.7361431 173.322084,59.1064242 172.431723,59.2550186 L172.674293,60.1807214 L179.152606,60.1807214 C180.529313,60.1807214 181.136943,59.8104403 181.136943,59.0325286 C181.136943,58.8100387 181.096381,58.4767054 181.015658,58.1803198 L175.34618,35.4682722 L170.16345,35.4682722 C168.46345,35.4682722 168.301201,35.578714 167.733329,36.9863846 L163.280317,47.9546173 L160.931723,38.58024 C160.769875,37.95024 160.728912,37.7651396 160.728912,37.5425292 C160.728912,36.8762641 161.134133,36.5425694 161.984333,36.3940152 L161.782325,35.4682722 L155.303209,35.4682722 C153.926502,35.4682722 153.278309,35.8385132 153.278309,36.6164649 C153.278309,36.8389147 153.359836,37.2088344 153.44096,37.4683123 L158.340157,57.0686733" id="path142" fill="#F2581C"></path>
                        <path d="M35.0600794,42.1369467 C34.6146979,40.9144568 34.0882321,40.6550191 31.9016859,40.6550191 L27.4880716,40.6550191 L31.8621277,58.1803198 C31.9422884,58.4767054 31.9826096,58.8100387 31.9826096,58.9959825 C31.9826096,59.8104403 31.3755012,60.1807214 29.9989149,60.1807214 L28.7415254,60.1807214 L28.7420073,60.1815246 L25.7420475,60.1815246 C24.5384733,59.0353399 22.6339753,58.3871471 19.9907626,58.2208821 L19.157871,54.8558219 L22.4405617,54.8558219 L18.1640558,37.7481918 C19.1607224,37.2209228 20.0636943,37.031726 20.0636943,37.031726 C19.7406822,36.4421678 19.3051802,35.9638545 18.8402003,35.5779509 C19.1138148,35.5043766 19.4570276,35.4682722 19.8753007,35.4682722 L32.1453004,35.4682722 C34.1690353,35.4682722 34.6146979,35.7646176 35.0197582,37.4309629 L36.1936939,42.1369467 L35.0600794,42.1369467" id="path144" fill="#F2581C"></path>
                        <path d="M48.6228904,57.5538138 L43.7919668,38.2687139 L39.3417661,36.0987541 C39.586746,35.6685935 40.1815251,35.4682722 41.1931717,35.4682722 L49.0489948,35.4682722 L49.2911634,36.3940152 C48.400802,36.5425694 47.9959827,36.8762641 47.9959827,37.5425292 C47.9959827,37.7651396 48.0361434,37.95024 48.1983924,38.58024 L53.097589,58.1803198 C53.1795167,58.5140548 53.2188742,58.7730909 53.2188742,58.9959825 C53.2188742,59.2562234 53.1606412,59.4710829 53.0349384,59.643372 L48.6228904,57.5538138" id="path146" fill="#AA3820"></path>
                        <path d="M81.4554197,59.3819262 L77.5975884,57.5538138 L72.7662632,38.2687139 L71.9514038,49.287549 L67.942167,59.2176692 C67.8104401,59.5650588 67.6903598,59.7871471 67.4919662,59.9313238 L62.4722876,57.5538138 L57.641364,38.2687139 L53.6807215,36.3377099 C53.8269063,35.7493967 54.473091,35.4682722 55.6726894,35.4682722 L62.1522073,35.4682722 L62.3542153,36.3940152 C61.5044161,36.5425694 61.0991953,36.8762641 61.0991953,37.5425292 C61.0991953,37.7651396 61.1393559,37.95024 61.3012033,38.58024 L63.6501992,47.9546173 L63.960641,58.1863439 L72.1586327,37.975983 L68.483934,36.1558625 C68.848191,35.5305614 69.2582312,35.4682722 70.5337332,35.4682722 L75.7160624,35.4682722 L81.3859417,58.1803198 C81.4666646,58.4767054 81.5072269,58.8100387 81.5072269,59.0325286 C81.5072269,59.1602395 81.488753,59.2755005 81.4554197,59.3819262" id="path148" fill="#AA3820"></path>
                        <path d="M148.979514,39.5389548 C148.534133,38.3163846 148.006824,38.0570673 145.82088,38.0570673 L136.702406,38.0570673 L141.607225,40.6550191 L145.979916,58.1803198 C146.061442,58.4767054 146.101201,58.8100387 146.101201,58.9959825 C146.101201,59.2493961 146.042567,59.4598379 145.919273,59.630119 L141.536543,57.5538138 L136.705217,38.2687139 L132.218069,36.0802401 C132.451001,35.6678304 133.015258,35.4682722 133.994776,35.4682722 L146.263049,35.4682722 C148.287948,35.4682722 148.73333,35.7646176 149.13855,37.4309629 L150.312446,42.1369467 L149.636542,41.7971877 L148.979514,39.5389548" id="path150" fill="#AA3820"></path>
                        <path d="M181.088349,59.3819262 L177.231321,57.5538138 L172.399996,38.2687139 L171.584333,49.287549 L167.575096,59.2176692 C167.443369,59.5650588 167.323691,59.7871471 167.125297,59.9313238 L162.10602,57.5538138 L157.274293,38.2687139 L153.314454,36.3377099 C153.460237,35.7493967 154.106422,35.4682722 155.306422,35.4682722 L161.785538,35.4682722 L161.987948,36.3940152 C161.136944,36.5425694 160.732928,36.8762641 160.732928,37.5425292 C160.732928,37.7651396 160.773088,37.95024 160.935337,38.58024 L163.283128,47.9546173 L163.594373,58.1863439 L171.791964,37.975983 L168.117265,36.1558625 C168.48112,35.5305614 168.891562,35.4682722 170.167064,35.4682722 L175.349795,35.4682722 L181.018469,58.1803198 C181.099594,58.4767054 181.140156,58.8100387 181.140156,59.0325286 C181.140156,59.1602395 181.122485,59.2755005 181.088349,59.3819262" id="path152" fill="#AA3820"></path>
                        <path d="M91.5811222,41.251003 C91.1775078,41.6413644 90.9562226,42.2200793 90.9562226,42.91526 C90.9562226,43.619276 91.1586323,44.730521 91.6449776,46.8056213 C92.2522065,49.3622478 92.9811222,51.8072276 93.4261021,52.9188742 C94.1546161,54.771083 94.8433711,55.2530107 96.82811,55.2530107 L100.714455,55.2530107 C102.456222,55.2530107 102.861443,55.5497978 103.265861,57.216866 L103.993973,60.1807214 C103.993973,60.1807214 102.656222,58.5317254 102.431724,58.228111 C102.159034,57.8598379 101.820479,57.5269062 100.586744,57.5269062 C99.3530096,57.5269062 93.2722868,57.5269062 93.2722868,57.5269062 C91.0128491,57.5269062 89.5955801,56.3144564 88.725299,52.9618461 L86.3871464,43.641766 C86.094777,42.3526094 85.4819256,39.9309227 86.6156605,38.8216858 L83.0485923,37.0899188 C83.3433714,36.7490352 83.6963834,36.4558224 84.1136525,36.2089148 C85.4092348,35.4309228 87.0281103,35.208473 91.8469857,35.208473 C97.6377486,35.208473 98.52811,35.319718 99.5003991,36.0606417 C99.9461822,36.4313646 100.310038,37.0979107 100.593973,38.2097179 L101.565058,42.1369467 L100.912046,41.6092359 L99.9244955,39.5526095 C99.3602385,38.3297179 98.7682706,38.07024 96.5819253,38.07024 L90.102809,38.07024 C88.6341343,38.07024 87.802809,37.923734 86.6730902,38.7678705 L91.5811222,41.251003" id="path154" fill="#AA3820"></path>
                        <path d="M130.34578,58.1337335 L126.381121,56.159838 C126.381121,56.159838 125.538551,57.5646572 120.899997,57.5646572 C115.202005,57.5646572 112.786343,55.3915649 111.242969,48.3722879 C110.263853,43.9176696 109.465861,40.9289146 110.917668,39.3562239 L114.795579,41.2578303 C114.601604,41.5987941 114.501202,42.0281114 114.501202,42.5445772 C114.501202,44.2116455 115.230118,47.3240952 116.526102,51.067067 C117.619274,54.2899585 118.59076,55.3273079 120.493571,55.3273079 C121.495178,55.3273079 122.17068,54.9425689 122.497186,54.197589 L126.406824,56.0674685 C127.346985,55.1257014 127.739354,53.1891553 126.161443,47.6554205 C124.171081,40.6767058 123.746182,38.0164248 115.873491,38.0164248 C112.205218,38.0164248 110.917668,39.3562239 110.917668,39.3562239 L107.038552,37.4168665 C107.407628,36.9871477 107.85823,36.6197581 108.386744,36.3201196 C109.884736,35.4682722 112.071483,35.0975895 115.553009,35.0975895 C124.258631,35.0975895 127.295981,37.2088344 129.766262,45.1755009 C130.859836,48.7321273 131.507627,51.9188742 131.507627,54.1413641 C131.507627,55.8425689 131.145378,57.1522074 130.34578,58.1337335" id="path156" fill="#AA3820"></path>
                        <path d="M35.5170674,41.7971877 L34.8610031,39.5389548 C34.4150192,38.3163846 33.8891558,38.0570673 31.7021277,38.0570673 L22.5836139,38.0570673 L27.4880716,40.6550191 L31.8621277,58.1803198 C31.9422884,58.4767054 31.9826096,58.8100387 31.9826096,58.9959825 C31.9826096,59.2493961 31.9237743,59.4598379 31.8011237,59.630119 L27.4179511,57.5538138 L22.5864251,38.2687139 L20.0547385,37.0340553 C20.0604011,37.032971 20.0636943,37.031726 20.0636943,37.031726 C19.7414855,36.4434127 19.3073891,35.9659027 18.8441361,35.5815252 C19.1173891,35.5068666 19.4564252,35.4682722 19.8753007,35.4682722 L32.1453004,35.4682722 C34.1690353,35.4682722 34.6146979,35.7646176 35.0197582,37.4309629 L36.1936939,42.1369467 L35.5170674,41.7971877" id="path158" fill="#AA3820"></path>
                        <path d="M54.6136533,62.9899583 C53.7361432,63.4477896 52.6160629,63.724898 51.2349385,63.724898 L41.479517,63.724898 L40.3261034,63.724898 L32.0583928,63.724898 C32.0555815,63.9261028 32.048192,64.2100386 32.0249791,64.4907614 C33.833453,64.5855406 37.3434529,65.4353397 36.3050593,70.7409621 C36.3050593,70.7409621 37.6093565,70.8240946 39.071485,69.8417653 C39.1261034,70.3522071 39.213252,71.7056207 38.811244,73.0823275 C39.2702801,73.1847371 39.9433725,73.2823275 40.8120472,73.2658616 C44.6204808,78.9313233 51.8216855,74.1566247 55.9501994,78.637749 C56.0562235,78.0807209 56.2176693,77.5192752 56.4429705,76.9534117 C56.4429705,76.9534117 58.8506009,79.9317249 62.1959824,81.5232911 C62.1959824,81.5232911 59.9927696,75.2397572 53.7092356,68.3851389 C53.7092356,68.3851389 56.8550187,68.6546168 60.72289,69.7550183 C60.3317254,69.0546167 60.1184724,68.3100385 59.965862,67.6220867 L59.0759021,63.724898 L54.8064243,63.724898 L54.6136533,62.9899583 Z M69.5405605,73.8112431 C69.5405605,73.8112431 69.561444,73.3140544 69.7618456,72.3775082 L67.2811228,72.3775082 C68.0638537,72.8092351 68.8232915,73.2855403 69.5405605,73.8112431 Z" id="path160" fill="#F2581C"></path>
                        <path d="M29.8683928,63.7839341 C29.8550595,64.213653 29.7827302,64.6196771 29.7827302,64.6196771 C26.5259431,65.5710827 25.4800395,69.308432 25.4800395,69.308432 C28.4446981,65.4686731 31.0895173,65.8935726 31.0895173,65.8935726 C36.6661838,65.9614441 35.1106015,71.0156609 35.1106015,71.0156609 L34.3636939,70.9092352 C34.8365453,68.7293156 33.3857421,67.6755003 33.3857421,67.6755003 C29.3185133,64.4152594 27.8622483,69.7493958 27.8622483,69.7493958 C29.7690756,67.6835324 31.6845374,68.9417653 32.0461438,69.2056208 C32.4091558,69.4694762 33.2156618,70.0168657 31.2267864,72.0626488 C29.2375896,74.1080303 30.1168667,76.7196768 30.1168667,76.7196768 L30.6648587,76.2646567 L32.0764249,76.7971868 C29.0591961,78.4927691 27.1082724,76.0321266 26.6288748,74.8867451 C26.1491158,73.7417652 24.901646,72.5686729 24.901646,72.5686729 L24.6953407,73.3682713 C23.3562243,73.2831307 20.901887,72.5967853 19.1820477,72.0706809 C19.423614,72.0020062 19.5845778,71.9526086 19.5845778,71.9526086 C19.5845778,71.9526086 22.018393,70.863452 21.5667464,68.6694762 C23.9410837,67.4060224 24.2835335,65.2526088 24.2835335,65.2526088 C26.8643367,65.3867454 28.3532523,64.487147 29.1128507,63.7839341 L29.8683928,63.7839341" id="path162" fill="#F2581C"></path>
                        <path d="M20.0089553,68.1787132 C20.0089553,68.1787132 24.41016,66.87791 22.7503609,62.7128498 L21.9295978,63.0112434 C21.9295978,63.0112434 23.0875095,64.6232916 21.548393,66.4008016 L19.8194373,65.6598377 C19.8194373,65.6598377 14.9428912,69.0915645 12.5218069,67.493171 C12.5218069,67.493171 11.1740559,65.4686731 14.6663049,63.1317253 L13.9319675,62.658633 C13.9319675,62.658633 15.8177908,60.6064242 18.8080317,60.632127 L19.5516461,60.3252997 C19.5516461,60.3252997 11.6756222,58.8955809 10.3865459,66.8630505 C10.3865459,66.8630505 10.4472688,68.430922 10.7842166,68.9365445 C10.7842166,68.9365445 12.1407627,72.9887532 19.0157425,70.7192753 C19.0157425,70.7192753 20.236867,69.8281107 20.0089553,68.1787132" id="path164" fill="#F2581C"></path>
                        <path d="M10.5257025,62.8212836 C10.5257025,62.8212836 12.7644977,59.7184724 15.626586,59.4931712 C15.626586,59.4931712 19.1801602,55.9144564 15.2304414,53.2080308 L14.5731322,53.4453802 C14.5731322,53.4453802 17.4171883,54.7799183 15.8255016,57.7224885 C15.8255016,57.7224885 14.1224093,57.4530106 12.9474294,56.6971873 C12.9474294,56.6971873 12.1862648,56.4558219 11.50257,56.9248982 C10.8198391,57.3935729 6.79028095,58.8915648 5.27847376,58.3309222 C5.27847376,58.3309222 4.31915652,57.7550186 4.97646574,56.8152596 C5.63269062,55.875099 7.38863435,52.1718862 14.5644976,50.0136534 C14.5644976,50.0136534 16.3732928,47.2522077 14.1941362,45.6032117 C14.1941362,45.6032117 12.9569876,44.683533 10.9685539,44.8510029 L10.5973893,45.3550189 C10.5973893,45.3550189 14.6261442,45.2614447 14.2537346,47.872288 C14.2537346,47.872288 13.6737748,50.927308 10.2437748,48.5132518 C10.2437748,48.5132518 2.84056218,50.5674686 3.78465854,47.0851394 C3.78465854,47.0851394 -0.496674686,50.8172678 5.43469866,54.1365448 C5.43469866,54.1365448 0.817959819,55.9578299 3.02931719,60.1072274 C3.02931719,60.1072274 3.96273082,62.3188739 8.235301,62.1746972 C8.235301,62.1746972 9.91228891,61.2706812 10.5257025,62.8212836" id="path166" fill="#F2581C"></path>
                        <path d="M5.37542155,44.1441756 C5.37542155,44.1441756 7.38140544,39.6100392 14.5582326,41.6658624 C14.5582326,41.6658624 14.2193972,40.4574287 13.4765458,40.0610432 C13.4765458,40.0610432 9.78522064,41.362248 7.68353394,39.7232922 C7.68353394,39.7232922 4.2777509,40.5883524 5.37542155,44.1441756" id="path168" fill="#F2581C"></path>
                        <path d="M167.687546,63.7650586 C167.244173,63.9783117 166.119273,64.6875486 165.941763,66.4634522 L165.198791,66.3341349 C165.198791,66.3341349 165.221683,64.9048177 165.990759,63.7650586 L167.687546,63.7650586" id="path170" fill="#F2581C"></path>
                        <path d="M174.455819,64.5160626 C175.176702,64.8341349 175.721281,65.2369462 176.061441,65.5321269 C174.541361,69.4417653 177.198791,71.2397573 178.614453,71.8911629 C178.587546,71.9995966 178.570678,72.1040143 178.557425,72.2068255 C177.024895,72.1497974 175.354614,72.0293155 174.382325,71.7815243 L174.432124,70.9574279 C174.432124,70.9574279 172.884333,71.68795 172.075096,72.6305203 C171.266261,73.5722873 168.652205,75.3120463 166.304414,72.7690745 L167.811642,72.6975885 L168.191964,73.299195 C168.191964,73.299195 169.833731,71.0855404 168.570679,68.5269059 C167.308831,65.9678698 168.244574,65.6959823 168.67108,65.5558217 C169.096381,65.4168658 171.306823,64.8096369 172.483931,67.3630505 C172.483931,67.3630505 172.601201,64.8228899 171.156221,63.7650586 L172.472686,63.7650586 C173.266662,64.4863438 174.172686,65.687147 174.886341,67.6771067 C174.886341,67.6771067 174.968269,65.6200787 173.928911,63.7650586 L176.044172,63.7650586 C176.116461,63.7955807 176.19116,63.8252996 176.266261,63.8550185 C175.52851,63.9622474 174.986341,64.1943759 174.455819,64.5160626" id="path172" fill="#F2581C"></path>
                        <path d="M181.205618,74.0586327 C188.163851,76.0570262 189.352606,71.9252994 189.352606,71.9252994 C189.668268,71.4060223 189.661441,69.8365444 189.661441,69.8365444 C188.033329,61.9313238 180.225698,63.6971872 180.225698,63.6971872 L180.981522,63.971886 C183.967867,63.8184723 185.939754,65.7879502 185.939754,65.7879502 L185.226501,66.2915646 C188.81606,68.4779099 187.555417,70.5578296 187.555417,70.5578296 C185.205216,72.2582311 180.185939,69.0381509 180.185939,69.0381509 L178.490759,69.8526087 C176.876301,68.1425686 177.965056,66.4823277 177.965056,66.4823277 L177.131722,66.2192755 C175.651,70.4514039 180.104012,71.5626488 180.104012,71.5626488 C180.104012,71.5626488 179.672686,73.6184721 181.205618,74.0586327" id="path174" fill="#F2581C"></path>
                        <path d="M194.064654,56.910842 C194.064654,56.910842 198.755417,58.5325287 196.723288,62.7730908 C196.723288,62.7730908 195.885537,65.0220867 191.610437,65.0606409 C191.610437,65.0606409 189.896381,64.2289141 189.349794,65.8048176 C189.349794,65.8048176 186.980317,62.7999984 184.111642,62.6979904 C184.111642,62.6979904 183.912445,62.5132514 183.65622,62.196384 C184.114855,61.7582314 184.454212,61.2530105 184.678309,60.7120467 C185.263449,60.5285125 186.046582,60.2285126 186.66867,59.7895567 C186.66867,59.7895567 187.418469,59.5160628 188.122084,59.9558218 C188.824895,60.394376 192.913248,61.7184724 194.400397,61.0939744 C194.400397,61.0939744 195.334533,60.4779101 194.637746,59.5670668 C193.940959,58.6558218 192.028911,55.0305207 184.767064,53.1811232 C184.767064,53.1811232 182.841762,50.4999987 184.94859,48.7594365 C184.94859,48.7594365 185.399594,48.3947779 186.206019,48.1309225 C186.48875,48.2738944 186.744975,48.4305209 186.976301,48.5951795 C185.901602,48.8903602 184.710437,49.5501996 184.985939,51.0289144 C184.985939,51.0289144 185.695979,54.0566252 189.020076,51.4975891 C189.020076,51.4975891 196.504011,53.2341352 195.41124,49.7943763 C195.41124,49.7943763 199.848589,53.3401593 194.064654,56.910842" id="path176" fill="#F2581C"></path>
                        <path d="M193.696782,46.9240952 C193.696782,46.9240952 191.49879,42.4803202 184.41606,44.8409627 C184.41606,44.8409627 184.703208,43.619276 185.428509,43.1919668 C185.428509,43.1919668 189.172284,44.3337338 191.2012,42.6064246 C191.2012,42.6064246 194.641762,43.3248985 193.696782,46.9240952" id="path178" fill="#F2581C"></path>
                        <path d="M167.207225,71.6670665 C168.637747,68.7791147 166.104815,67.879918 166.104815,67.879918 C164.669875,67.5248979 163.646181,67.0397574 162.922084,66.5606409 C162.262245,71.3755002 167.207225,71.6670665 167.207225,71.6670665" id="path180" fill="#FFFFFF"></path>
                        <path d="M189.744574,50.5216855 C193.057826,51.5309224 194.067867,50.318071 194.067867,50.318071 C193.895577,45.3429708 186.183931,44.4666656 182.375497,47.0943763 C188.107224,46.3140551 189.744574,50.5216855 189.744574,50.5216855" id="path182" fill="#FFFFFF"></path>
                        <path d="M185.479915,42.2200793 C188.62128,43.0767058 190.338549,41.6413644 190.338549,41.6413644 C189.097586,38.5256617 184.375497,37.230481 180.890357,41.6678704 C183.898791,40.7915652 185.479915,42.2200793 185.479915,42.2200793" id="path184" fill="#FFFFFF"></path>
                        <path d="M181.233329,68.6405605 C181.602807,68.9742955 182.703208,69.4301187 184.57871,69.7658617 C186.454212,70.1016047 186.233329,69.1943758 186.233329,69.1943758 C184.129313,65.9437735 180.941361,64.9212835 177.748992,65.2409622 C179.620076,66.7285124 181.025698,68.4522071 181.233329,68.6405605" id="path186" fill="#FFFFFF"></path>
                        <path d="M187.697586,58.765862 C187.697586,58.765862 191.346983,60.3156611 193.203208,60.0257013 C193.203208,60.0257013 190.003208,55.2522075 185.435337,55.3112436 C186.556622,56.0658621 187.506823,57.1678701 187.697586,58.765862" id="path188" fill="#FFFFFF"></path>
                        <path d="M156.044173,63.724898 C156.422084,66.8325284 156.691964,69.7116448 157.223289,71.812448 C157.223289,71.812448 158.814855,70.7518055 160.324494,70.2212834 C159.328912,73.0445765 158.79598,75.7843355 158.588349,78.3791145 C161.097586,77.0409619 164.794775,76.3855403 167.008831,74.8923676 C165.172687,73.9377492 164.586743,72.1674681 164.586743,72.1674681 C159.756623,70.5317251 160.924494,66.1361429 161.925699,63.724898 L156.044173,63.724898" id="path190" fill="#F2581C"></path>
                        <path d="M31.5574691,75.4702792 C31.0849791,72.2819259 33.7722883,72.2064239 33.7722883,72.2064239 C35.2469067,72.3112432 36.3701597,72.1646568 37.2061838,71.9325283 C36.3504007,76.7160623 31.5574691,75.4702792 31.5574691,75.4702792" id="path192" fill="#FFFFFF"></path>
                        <path d="M9.17859415,47.4582317 C5.72915648,48.7088341 5.150281,47.5506012 5.150281,47.5506012 C5.67851391,43.5566254 8.77461825,42.8148584 11.4799997,43.5136535 C9.12212829,44.6634527 9.17859415,47.4582317 9.17859415,47.4582317" id="path194" fill="#FFFFFF"></path>
                        <path d="M18.7565859,65.3076289 C18.4015658,65.6574281 17.3211642,66.1594361 15.4615257,66.5746971 C13.6031724,66.9907614 13.7846583,66.0746971 13.7846583,66.0746971 C15.7476703,62.7369462 18.8889955,61.5791149 22.0922886,61.7610426 C20.2863047,63.3277093 18.9559835,65.1100385 18.7565859,65.3076289" id="path196" fill="#FFFFFF"></path>
                        <path d="M11.8754616,55.7180709 C11.8754616,55.7180709 8.29554196,57.4228901 6.42835325,57.2124484 C6.42835325,57.2124484 9.42204796,52.3064244 13.987831,52.1698782 C12.8997186,52.9718862 11.9975097,54.1132517 11.8754616,55.7180709" id="path198" fill="#FFFFFF"></path>
                        <path d="M11.9208029,39.1843364 C10.1829315,39.9257018 8.50493955,38.7220874 8.50493955,38.7220874 C9.91200778,35.6806818 13.007831,35.0991557 16.8627707,36.4373083 C13.1034936,37.361485 11.9208029,39.1843364 11.9208029,39.1843364" id="path200" fill="#FFFFFF"></path>
                    </g>
                </g>
            </g>
        </g>
    </g>
</svg>