<?xml version="1.0" encoding="UTF-8"?>
<svg width="200px" height="200px" viewBox="0 0 200 200" version="1.1" xmlns="http://www.w3.org/2000/svg" xmlns:xlink="http://www.w3.org/1999/xlink">
    <!-- Generator: Sketch 51.3 (57544) - http://www.bohemiancoding.com/sketch -->
    <title>lock-haven</title>
    <desc>Created with Sketch.</desc>
    <defs></defs>
    <g id="lock-haven" stroke="none" stroke-width="1" fill="none" fill-rule="evenodd">
        <g id="lock-haven_BGL" transform="translate(0.000000, 42.000000)">
            <g id="lock-haven">
                <g id="g10" transform="translate(99.952582, 57.930773) scale(-1, 1) rotate(-180.000000) translate(-99.952582, -57.930773) translate(0.000000, 0.273117)" fill-rule="nonzero">
                    <g id="g12">
                        <path d="M141.478612,51.0410608 C141.478612,38.7451863 138.248645,26.0062582 136.504501,18.4523087 C129.629205,26.3707533 136.779892,34.6510375 113.270742,37.0867321 C108.914554,37.5382447 111.658603,31.349416 121.381505,4.4600473 C114.878328,2.92614881 106.30251,2.17283257 95.0027477,2.17283257 C43.8550961,2.17283257 2.39212891,29.2813648 2.39212891,62.7216675 C2.39212891,84.490088 20.5996771,112.895208 71.7469873,112.895208 C92.839827,112.895208 107.386626,105.319675 115.176858,95.461733 C117.773729,92.1752466 116.754478,86.8369822 116.859931,84.1251757 C121.087527,82.8631558 122.599902,79.0023688 122.047223,76.2101451 C129.581789,73.6917952 141.478612,62.1811269 141.478612,51.0410608" id="path14" fill="#FFFFFF"></path>
                        <path d="M54.852156,87.9742036 C48.2659068,87.9742036 49.1250817,83.6787082 42.8252242,83.6787082 C36.9895486,83.6787082 35.8247502,84.4965365 35.684551,84.6171624 C35.8720143,84.4464654 39.7238492,81.0059724 45.4023697,81.0059724 C51.2250343,81.0059724 51.034233,83.8698888 53.2293965,84.7286845 C55.4249393,85.5878594 60.2928387,85.9698414 61.7244176,85.0150761 C63.1563759,84.0606902 60.3880497,87.9742036 54.852156,87.9742036" id="path16" fill="#AA1835"></path>
                        <path d="M51.7978176,75.7564704 C51.7978176,70.888571 56.5701266,68.3114255 61.2472246,68.3114255 C65.9243227,68.3114255 67.5470822,71.0793723 67.5470822,71.0793723 C67.5470822,71.0793723 65.2563284,69.6474141 62.6791829,69.6474141 C57.0473196,69.6474141 54.3749631,73.6565178 54.3749631,76.8064466 C54.3749631,79.9559961 56.3793253,82.7243223 56.3793253,82.7243223 C56.3793253,82.7243223 51.7978176,80.6243697 51.7978176,75.7564704" id="path18" fill="#AA1835"></path>
                        <path d="M71.7469873,70.7929807 C70.3150291,69.6474141 65.7335214,67.1658589 62.4880022,67.1658589 C59.2428624,67.1658589 54.5657644,68.7886185 54.9477464,68.4066365 C55.329349,68.0246545 57.5245125,67.1658589 59.6248444,66.4974853 C57.0473196,66.4974853 55.711331,67.1658589 51.2250343,68.2158352 C53.9929811,66.211473 58.7656695,64.7795147 62.0108093,64.7795147 C69.2650528,64.7795147 71.7469873,70.7929807 71.7469873,70.7929807" id="path20" fill="#AA1835"></path>
                        <path d="M70.8878124,55.902891 C74.3241328,55.902891 78.8104295,57.5252712 81.005593,59.4340431 C83.2007566,61.3435736 80.3375988,59.0528198 78.2372669,59.0528198 C76.1376937,59.0528198 73.1785662,59.8160251 73.1785662,62.4887609 C73.1785662,65.1614967 76.710477,68.5978172 76.710477,68.5978172 C76.710477,68.5978172 73.9421508,68.5978172 71.174204,65.1614967 C68.4058779,61.7247969 67.2606906,59.2432418 64.4927438,58.8616391 C61.7244176,58.4800365 56.3793253,58.0980545 53.4205771,53.2301551 C53.4205771,53.2301551 57.5245125,56.6664756 61.7244176,56.6664756 C65.9243227,56.6664756 67.4514919,55.902891 70.8878124,55.902891" id="path22" fill="#AA1835"></path>
                        <path d="M90.6461808,80.2423878 C87.3054506,82.4379306 82.6283526,82.8199126 79.6692251,82.8199126 C76.710477,82.8199126 74.0377412,82.5335209 70.3150291,82.5335209 C63.9199605,82.5335209 63.3471772,84.7286845 62.8699842,84.7286845 C62.3927912,84.7286845 60.5792303,83.1063042 60.5792303,82.151539 C60.5792303,81.197153 61.8200079,79.9559961 61.8200079,79.9559961 C61.0564233,79.9559961 59.6248444,77.8564229 59.6248444,76.997248 C59.6248444,76.1384523 60.48364,74.0381205 62.8699842,74.0381205 C66.2107143,74.0381205 66.115124,77.5700313 66.115124,77.5700313 C66.115124,77.5700313 69.6470348,73.0837345 76.4240853,73.0837345 C83.2007566,73.0837345 90.5505904,79.1927908 90.6461808,80.2423878" id="path24" fill="#AA1835"></path>
                        <path d="M95.1324775,80.4335684 L98.2820269,78.5244172 C98.2820269,78.5244172 102.386342,84.7286845 109.736176,84.7286845 C113.077285,84.7286845 118.327166,83.1063042 119.376763,82.7243223 C120.42674,82.3423403 118.80398,84.7286845 111.836128,86.6378357 C104.868276,88.5466076 102.19554,85.3970581 95.1324775,80.4335684" id="path26" fill="#AA1835"></path>
                        <path d="M106.204644,65.5430994 C105.154668,65.2567077 104.486294,63.6343275 104.772686,62.4887609 C105.059078,61.3435736 105.250258,61.2479833 106.490656,63.1567552 C107.731813,65.0659064 109.831766,64.1111411 112.313321,65.5430994 C114.795256,66.9750576 115.176858,68.5978172 115.176858,68.5978172 L113.554099,71.0793723 C112.313321,69.0746308 107.25462,65.829491 106.204644,65.5430994" id="path28" fill="#AA1835"></path>
                        <path d="M141.24874,58.319202 C140.235938,60.5082963 139.055094,62.103365 138.683733,62.7459444 C137.016213,65.6337584 136.362633,66.648078 133.735796,69.4456123 C127.708295,75.6282579 121.381125,76.4244647 121.381125,76.4244647 C125.962633,74.3245121 138.94471,65.7339007 138.94471,52.7525828 C138.94471,39.771265 135.126787,30.5126972 135.126787,23.7356087 C135.126787,16.9588616 137.989944,16.2906018 137.989944,16.2906018 C141.617066,23.1627875 143.259171,39.390421 143.335037,42.8259828 C143.379039,44.8132753 143.580082,47.9487897 143.258413,51.0437161 C143.076715,52.7958261 142.735701,55.102891 141.24874,58.319202" id="path30" fill="#AA1835"></path>
                        <path d="M181.200185,51.184067 C178.60597,46.2873388 165.867801,17.4159882 127.486009,7.60743461 C126.156469,9.45247961 123.48563,13.4748219 120.903932,19.2496534 C117.276811,27.3630719 114.699665,32.8990414 116.131244,33.7581405 C117.563202,34.6174292 117.754383,33.2805682 119.663155,32.4214691 C121.571927,31.5626355 125.771832,30.1306773 127.490561,30.0354284 C129.208532,29.939838 131.212894,29.749454 132.072069,26.8859548 C132.931244,24.0220383 133.98122,21.8268368 133.98122,21.8268368 C133.98122,21.8268368 134.935606,23.9267893 132.644852,28.9854521 C130.354098,34.04457 129.399333,34.426552 123.003885,36.8124789 C116.608437,39.198861 114.126882,40.4396386 112.695303,41.5852052 C111.263345,42.7303925 108.495398,43.3031758 103.150306,45.0211463 C97.804834,46.7394962 78.0468449,53.2301551 76.9964893,53.4209565 C75.946513,53.6117578 64.8743464,54.9481257 62.0108093,53.8029384 C64.8743464,53.4209565 69.5514444,52.9437635 74.4197231,51.8934079 C79.2876225,50.843811 100.572781,45.0211463 107.731813,41.2032232 C105.823041,39.580843 102.863914,39.580843 101.431956,39.580843 C100.000377,39.580843 95.8960621,40.248458 91.9825487,42.9211938 C88.0690353,45.5939296 83.6783289,49.1258404 77.9512546,49.1258404 C72.2241803,49.1258404 66.497106,49.0302501 63.4427675,50.1754373 C60.3880497,51.3210039 58.1928862,52.7525828 58.1928862,52.7525828 C58.1928862,52.7525828 59.6248444,49.6982444 62.5835926,48.6486474 C65.54272,47.5982918 70.4106194,47.5982918 73.9421508,47.5982918 C77.4740616,47.5982918 81.2919847,47.2166892 83.1055456,45.307538 C84.9191065,43.3987661 86.7326673,41.1076329 82.341961,41.1076329 C77.9512546,41.1076329 51.8930286,41.2988136 39.2936927,31.2762439 C45.020767,32.4214691 56.188524,33.9489797 60.1972484,33.9489797 C64.2063521,33.9489797 73.0833552,31.7537782 67.3559016,31.1811088 C61.6292066,30.6082496 51.5114259,29.1767465 48.9339011,23.4492171 C46.3571349,17.72256 45.6887613,15.431351 47.5979125,13.4269888 C49.4114734,16.0997625 51.9886189,19.4404926 54.0885714,19.4404926 C56.188524,19.4404926 57.9064945,17.8176951 57.9064945,16.0041722 C57.9064945,14.1906872 55.6157407,10.3726503 55.6157407,10.3726503 C55.6157407,10.3726503 61.7244176,17.4361304 70.0286374,17.6269697 C65.54272,14.6682215 62.5835926,10.8499191 64.5879548,11.2314838 C66.5926963,11.6134658 68.9786611,14.2862396 72.0333789,14.2862396 C75.0877174,14.2862396 72.7969636,13.3313984 71.4605957,11.8043051 C70.2660959,10.4390325 67.7041235,7.70033172 71.9468925,4.88428627 C68.4658115,5.50247497 64.6824071,6.38558543 60.5792303,7.63618758 C45.6857267,12.1768418 23.9272066,21.2563674 12.6819532,38.8460872 C12.1282121,40.6103356 11.4220196,43.4154565 11.4220196,46.2623033 C11.4220196,50.9394013 12.5674345,54.4705534 13.331095,56.0936923 C14.0944899,57.7160725 12.6628352,56.7616866 11.7084492,55.043716 C10.893921,53.5776184 9.11108559,49.8207669 8.60388788,46.7918433 C7.64017051,49.2290173 6.87025113,51.8016108 6.31977225,54.5134173 C6.54501643,55.8922698 7.08020845,57.6390692 8.27228049,59.5296334 C11.0403411,63.9207191 13.2355426,65.5430994 13.6173728,66.1158827 C13.999241,66.6886659 11.1357418,65.7339007 8.7493976,63.8251288 C7.66668544,62.9587466 6.46827864,61.7600743 5.47994296,60.7074428 C5.39413927,61.9137016 5.34524406,63.1415821 5.34524406,64.3975328 C5.34524406,67.9552378 5.81435737,71.2629664 6.66621131,74.3427198 C7.90600265,76.3023215 10.0189661,78.8271199 13.6173728,81.5787557 C21.7306775,87.7830229 25.8349543,87.3062093 25.8349543,88.2605952 C25.8349543,89.2149812 19.7263153,87.9742036 13.2355426,84.6330941 C12.2307821,84.1160719 11.2990419,83.611188 10.4338736,83.0994763 C22.8003408,103.644568 54.6264567,110.723184 71.0152661,110.723184 C91.6324301,110.723184 116.576953,101.305261 116.576953,87.5599788 C116.576953,85.0150761 117.849594,86.541866 117.849594,91.3782813 C117.849594,96.2146965 105.377712,115.304691 69.9971533,115.304691 C34.6165188,115.304691 0,95.7052608 0,63.8884764 C0,32.0716161 37.1615733,0 100.540917,0 C160.946037,0 196.38046,33.2931618 199.573632,51.184067 L181.200185,51.184067" id="path32" fill="#AA1835"></path>
                    </g>
                </g>
            </g>
        </g>
    </g>
</svg>