<?xml version="1.0" encoding="UTF-8"?>
<svg width="200px" height="200px" viewBox="0 0 200 200" version="1.1" xmlns="http://www.w3.org/2000/svg" xmlns:xlink="http://www.w3.org/1999/xlink">
    <!-- Generator: Sketch 51.3 (57544) - http://www.bohemiancoding.com/sketch -->
    <title>loras</title>
    <desc>Created with Sketch.</desc>
    <defs></defs>
    <g id="loras" stroke="none" stroke-width="1" fill="none" fill-rule="evenodd">
        <g id="loras_BGL" transform="translate(11.453744, 0.881057)">
            <g id="loras">
                <g id="g10" transform="translate(87.974689, 99.651462) scale(-1, 1) rotate(-180.000000) translate(-87.974689, -99.651462) translate(0.000000, 0.117586)" fill-rule="nonzero">
                    <g id="g12">
                        <polyline id="path14" fill="#CEB577" points="2.02473392 196.854491 86.9230418 196.854491 86.9230418 150.146548 67.5900725 150.146548 67.5900725 50.4184693 126.010125 50.4184693 126.010125 65.9877163 173.923024 65.9877163 173.923024 2.02716652 2.02473392 2.02716652 2.02473392 50.4184693 23.0394472 50.4184693 23.0394472 150.146548 2.02473392 150.146548 2.02473392 196.854491 2.02473392 196.854491"></polyline>
                        <path d="M4.04946783,4.05433303 L171.89829,4.05433303 L171.89829,63.9605497 L128.034859,63.9605497 L128.034859,48.3913028 L65.5653386,48.3913028 L65.5653386,152.173714 L84.8983079,152.173714 L84.8983079,194.827325 L4.04946783,194.827325 L4.04946783,152.173714 L25.0641811,152.173714 L25.0641811,48.3913028 L4.04946783,48.3913028 L4.04946783,4.05433303 Z M175.947757,0 L0,0 L0,52.4456358 L21.0147133,52.4456358 L21.0147133,148.119381 L0,148.119381 L0,198.881658 L88.9477757,198.881658 L88.9477757,148.119381 L69.6148064,148.119381 L69.6148064,52.4456358 L123.985391,52.4456358 L123.985391,68.0148828 L175.947757,68.0148828 L175.947757,0 Z" id="path16" fill="#3E2C7E"></path>
                    </g>
                </g>
            </g>
        </g>
    </g>
</svg>