<?xml version="1.0" encoding="UTF-8"?>
<svg width="200px" height="200px" viewBox="0 0 200 200" version="1.1" xmlns="http://www.w3.org/2000/svg" xmlns:xlink="http://www.w3.org/1999/xlink">
    <!-- Generator: Sketch 51.3 (57544) - http://www.bohemiancoding.com/sketch -->
    <title>mansfield</title>
    <desc>Created with Sketch.</desc>
    <defs></defs>
    <g id="mansfield" stroke="none" stroke-width="1" fill="none" fill-rule="evenodd">
        <g id="mansfield_BGL" transform="translate(0.000000, 30.000000)">
            <g id="mansfield">
                <g id="g10" transform="translate(99.813778, 70.435754) scale(-1, 1) rotate(-180.000000) translate(-99.813778, -70.435754) translate(0.000000, 0.417134)" fill-rule="nonzero">
                    <g id="g12">
                        <path d="M6.92534061,40.2158649 L38.0627179,53.6915443 L13.8431281,54.2659204 C13.8431281,54.2659204 20.8147481,67.0079685 36.6020847,77.3810037 L32.290502,81.6916181 L62.2107992,84.5705752 L57.8995144,88.8811896 L80.5579123,91.0204819 L79.1053984,102.960891 L89.5873348,122.910984 L115.962008,129.251393 L112.770947,133.11955 L146.648786,137.451021 L161.526998,131.448786 L163.724391,125.531468 L167.275973,128.405956 L174.460331,95.775789 L160.761262,82.7642437 L165.707258,69.3947841 L161.027184,66.0347097 L162.239847,61.5045795 L159.413776,56.2965349 L170.857351,49.3138908 C170.857351,49.3138908 170.418618,47.0748592 169.674484,44.9185091 L194.242826,28.1980626 L176.34264,21.0175041 L188.071504,13.4374671 L132.07225,2.452864 L6.92534061,40.2158649 Z M0,39.8160884 L131.95009,0 L194.323273,12.2355304 L181.503906,20.519925 L199.282677,27.6513215 L172.474484,45.8955668 C172.996644,47.6484159 173.516569,50.4841701 173.516569,50.4841701 L162.58994,57.1517304 L164.788078,61.2023076 L163.755676,65.0593652 L168.573553,68.5180616 L163.54115,82.1176888 L177.077835,94.9735544 L168.773925,132.685285 L164.80372,129.471878 L163.395154,133.265546 L146.963125,139.894224 L108.183238,134.936309 L111.696087,130.677092 L87.9798861,124.975788 L76.6495325,103.410798 L77.8964599,93.1627537 L52.6306132,90.7783962 L56.9509111,86.4588433 L27.0309863,83.5806311 L32.8837981,77.7281172 C16.1982119,65.7553801 9.87284892,51.9762371 9.87284892,51.9762371 L27.1493476,51.5665536 L0,39.8160884 Z" id="path14" fill="#FFFFFF"></path>
                        <path d="M138.972064,84.8044672 C139.001859,84.8037223 139.030909,84.8037223 139.060704,84.8022325 L134.65549,81.3832382 C141.663311,82.4156404 149.874857,80.922903 149.874857,80.922903 L148.10279,83.2156404 L151.60819,85.6275584 C144.622715,87.4100537 132.861822,88.1303516 132.861822,88.1303516 C140.816384,89.3437594 150.411914,88.41713 156.18845,87.1426421 L154.105769,83.0324002 L157.770573,73.0857337 L147.254372,70.9878567 L147.653628,75.0554916 C144.391058,73.7593278 140.939289,70.4931826 137.483795,66.4691231 C132.355304,60.4975776 128.869271,59.8009668 128.869271,59.8009668 C130.826067,63.1127731 132.137054,66.8261436 132.137054,66.8261436 C132.137054,66.8261436 129.345993,65.5569444 126.151207,65.4899797 C126.151207,65.4899797 128.1959,67.3056222 129.242455,69.2236854 C129.242455,69.2236854 124.41415,73.0202589 123.378768,79.18808 L127.42495,82.3180613 L117.46145,83.0584709 C127.100928,85.0093089 137.943386,84.8268135 138.972064,84.8044672" id="path16" fill="#FFFFFF"></path>
                        <polyline id="path18" fill="#FFFFFF" points="69.9906873 83.2871488 81.4234617 84.3783964 81.9299793 80.3806311 81.9351935 80.3761619 75.5463668 77.7370558 69.9906873 83.2871488"></polyline>
                        <path d="M160.986961,47.7548591 L163.20819,46.4030528 C156.724018,36.8586955 143.037613,22.4289752 131.234261,12.6093852 L126.108004,15.5999996 C139.901672,26.1156046 154.211542,40.0692727 160.986961,47.7548591" id="path20" fill="#FFFFFF"></path>
                        <path d="M154.119922,63.9158271 L151.836123,59.7064417 L141.417501,59.7064417 C146.769456,64.0834248 154.119922,63.9158271 154.119922,63.9158271" id="path22" fill="#FFFFFF"></path>
                        <path d="M28.9461445,62.9355664 C35.5827924,68.9118046 44.1387698,73.6929591 44.1387698,73.6929591 L42.0467029,75.7013016 L65.7198494,78.1363109 L49.7588069,71.5392161 L28.9461445,62.9355664" id="path24" fill="#FFFFFF"></path>
                        <path d="M57.8244306,55.8630154 L73.7753427,61.3145609 C73.7753427,61.3145609 70.2153428,57.9955293 67.7880802,54.5920284 C73.9556779,54.8827547 77.9456219,51.6916933 77.9456219,51.6916933 C73.8335177,50.7091235 71.004691,48.1750454 71.004691,48.1750454 L57.8244306,55.8630154" id="path26" fill="#A91A2D"></path>
                        <path d="M39.9226061,44.3121777 L55.3069632,49.5077083 L66.3506874,43.2536302 C65.1495701,42.3970194 63.8861809,41.1650641 62.9303522,39.40931 C62.9303522,39.40931 69.8908735,41.0055856 76.2093091,37.6699432 L102.589197,22.7284166 L74.4998119,32.4022338 L69.7468884,30.2883419 L64.470166,31.8205579 L69.5897189,34.0939284 L62.3839091,36.575865 L56.7216373,34.0706137 L51.2610788,35.6552691 L57.2972053,38.3269264 L50.9541142,40.5118053 L44.4451386,37.6350084 L38.7988817,39.2746359 L45.6934067,42.3239468 L39.9226061,44.3121777" id="path28" fill="#A91A2D"></path>
                        <path d="M96.6882657,94.422344 C110.207818,97.7348206 123.908377,97.1277443 123.908377,97.1277443 C102.499066,92.435007 89.6715061,85.3780239 89.6715061,85.3780239 L87.2871487,104.442455 L92.5720647,114.500556 L91.5649884,102.580258 L97.1366829,107.064429 L96.6882657,94.422344" id="path30" fill="#A91A2D"></path>
                        <path d="M178.857351,29.5425691 L147.520294,16.9751206 C147.520294,16.9751206 157.612659,27.1857721 165.781001,38.4706881 L178.857351,29.5425691" id="path32" fill="#A91A2D"></path>
                        <path d="M111.874858,34.530353 C111.078582,33.3423455 109.633517,31.3690123 108.04618,30.0835002 C108.04618,30.0835002 111.229047,29.4236119 116.657725,29.7430905 L120.895341,19.0726997 L98.1966456,32.3129228 C98.1966456,32.3129228 104.064802,32.5503158 111.874858,34.530353" id="path34" fill="#A91A2D"></path>
                        <path d="M117.201487,67.5456966 C103.361636,66.0040952 91.4607053,62.8090115 81.3929216,57.9964231 C84.0491599,60.7716186 88.552698,64.1407805 93.4696438,66.7091231 C93.4696438,66.7091231 89.8867762,66.2421585 86.8342623,65.371246 C86.8342623,65.371246 94.5124744,72.7836853 107.799625,72.6105755 C100.678582,70.749272 95.3184334,67.7601473 95.3184334,67.7601473 C95.3184334,67.7601473 105.933703,69.38957 117.201487,67.5456966" id="path36" fill="#75828B"></path>
                        <polyline id="path38" fill="#75828B" points="69.9514321 67.5593279 72.2515438 71.6663669 64.9700542 73.3083036 75.5463668 77.7370558 81.9351935 80.3761619 88.0767203 75.4152681 69.9514321 67.5593279"></polyline>
                        <path d="M107.740035,46.0358275 C104.592176,42.2404459 97.9873346,40.9898686 91.1381728,42.910241 C84.8126608,44.6846171 79.8852866,44.848416 75.4495326,43.7793658 C81.1098676,47.8613768 89.709495,46.5706506 89.709495,46.5706506 C85.7951561,48.3053992 84.116199,50.9482296 84.116199,50.9482296 C87.9806309,49.4002967 91.4674093,49.0636859 94.6487872,49.3392166 C105.731096,50.2979503 114.808936,57.0844678 114.808936,57.0844678 C106.366478,46.6011906 93.8778375,45.469645 93.8778375,45.469645 C100.303163,42.9364608 107.740035,46.0358275 107.740035,46.0358275" id="path40" fill="#75828B"></path>
                        <path d="M136.31508,42.8535557 C136.31508,42.8535557 131.576161,41.3899431 126.773926,41.1941144 C126.773926,41.1941144 132.22346,43.2931833 135.693106,48.8081924 C135.693106,48.8081924 125.942641,42.6026805 112.214522,42.3277457 C112.214522,42.3277457 126.393293,45.7972428 133.199252,52.2541514 C133.199252,52.2541514 135.422715,49.7436859 139.009308,49.3659578 C139.009308,49.3659578 138.573553,47.2334439 137.107632,45.1501665 C137.107632,45.1501665 140.318805,44.5341516 144.750834,45.1506879 C144.750834,45.1506879 137.457725,36.9302784 125.05847,35.7541891 C125.05847,35.7541891 132.40968,38.7433137 136.31508,42.8535557" id="path42" fill="#75828B"></path>
                        <path d="M156.899065,101.894225 L151.228302,125.2432 L133.851766,125.781002 L136.765732,122.256235 L101.590314,119.054001 L125.430164,124.770947 L121.795155,129.167222 L144.922901,132.128861 L156.052883,127.639475 L158.381374,117.701301 L161.099437,119.901673 L165.489754,100.897577 C164.700927,101.112102 161.32886,101.950091 156.899065,101.894225" id="path44" fill="#75828B"></path>
                        <polyline id="path46" fill="#75828B" points="62.8232387 67.6198866 60.501302 63.4546725 51.235455 59.4346354 36.4973548 59.784654 43.3220101 64.510315 28.9461445 62.9355664 49.7588069 71.5392161 62.8232387 67.6198866"></polyline>
                        <path d="M38.7988817,39.2746359 L45.6934067,42.3239468 L39.9226061,44.3121777 L55.3069632,49.5077083 L66.3506874,43.2536302 C65.1495701,42.3970194 63.8861809,41.1650641 62.9303522,39.40931 C62.9303522,39.40931 69.8908735,41.0055856 76.2093091,37.6699432 L102.589197,22.7284166 L74.4998119,32.4022338 L69.7468884,30.2883419 L64.470166,31.8205579 L69.5897189,34.0939284 L62.3839091,36.575865 L56.7216373,34.0706137 L51.2610788,35.6552691 L57.2972053,38.3269264 L50.9541142,40.5118053 L44.4451386,37.6350084 L38.7988817,39.2746359 Z M120.895341,19.0726997 L98.1966456,32.3129228 C98.1966456,32.3129228 104.064802,32.5503158 111.874858,34.530353 C111.078582,33.3423455 109.633517,31.3690123 108.04618,30.0835002 C108.04618,30.0835002 111.229047,29.4236119 116.657725,29.7430905 L120.895341,19.0726997 Z M125.05847,35.7541891 C125.05847,35.7541891 132.40968,38.7433137 136.31508,42.8535557 C136.31508,42.8535557 131.576161,41.3899431 126.773926,41.1941144 C126.773926,41.1941144 132.22346,43.2931833 135.693106,48.8081924 C135.693106,48.8081924 125.942641,42.6026805 112.214522,42.3277457 C112.214522,42.3277457 126.393293,45.7972428 133.199252,52.2541514 C133.199252,52.2541514 135.422715,49.7436859 139.009308,49.3659578 C139.009308,49.3659578 138.573553,47.2334439 137.107632,45.1501665 C137.107632,45.1501665 140.318805,44.5341516 144.750834,45.1506879 C144.750834,45.1506879 137.457725,36.9302784 125.05847,35.7541891 Z M126.108004,15.5999996 C139.901672,26.1156046 154.211542,40.0692727 160.986961,47.7548591 L163.20819,46.4030528 C156.724018,36.8586955 143.037613,22.4289752 131.234261,12.6093852 L126.108004,15.5999996 Z M147.520294,16.9751206 C147.520294,16.9751206 157.612659,27.1857721 165.781001,38.4706881 L178.857351,29.5425691 L147.520294,16.9751206 Z M156.899065,101.894225 L151.228302,125.2432 L133.851766,125.781002 L136.765732,122.256235 L101.590314,119.054001 L125.430164,124.770947 L121.795155,129.167222 L144.922901,132.128861 L156.052883,127.639475 L158.381374,117.701301 L161.099437,119.901673 L165.489754,100.897577 C164.700927,101.112102 161.32886,101.950091 156.899065,101.894225 Z M154.119922,63.9158271 L151.836123,59.7064417 L141.417501,59.7064417 C146.769456,64.0834248 154.119922,63.9158271 154.119922,63.9158271 Z M127.42495,82.3180613 L117.46145,83.0584709 C127.100928,85.0093089 137.943386,84.8268135 138.972064,84.8044672 C139.001859,84.8037223 139.030909,84.8037223 139.060704,84.8022325 L134.65549,81.3832382 C141.663311,82.4156404 149.874857,80.922903 149.874857,80.922903 L148.10279,83.2156404 L151.60819,85.6275584 C144.622715,87.4100537 132.861822,88.1303516 132.861822,88.1303516 C140.816384,89.3437594 150.411914,88.41713 156.18845,87.1426421 L154.105769,83.0324002 L157.770573,73.0857337 L147.254372,70.9878567 L147.653628,75.0554916 C144.391058,73.7593278 140.939289,70.4931826 137.483795,66.4691231 C132.355304,60.4975776 128.869271,59.8009668 128.869271,59.8009668 C130.826067,63.1127731 132.137054,66.8261436 132.137054,66.8261436 C132.137054,66.8261436 129.345993,65.5569444 126.151207,65.4899797 C126.151207,65.4899797 128.1959,67.3056222 129.242455,69.2236854 C129.242455,69.2236854 124.41415,73.0202589 123.378768,79.18808 L127.42495,82.3180613 Z M91.5649884,102.580258 L97.1366829,107.064429 L96.6882657,94.422344 C110.207818,97.7348206 123.908377,97.1277443 123.908377,97.1277443 C102.499066,92.435007 89.6715061,85.3780239 89.6715061,85.3780239 L87.2871487,104.442455 L92.5720647,114.500556 L91.5649884,102.580258 Z M81.9351935,80.3761619 L88.0767203,75.4152681 L69.9514321,67.5593279 L72.2515438,71.6663669 L64.9700542,73.3083036 L75.5463668,77.7370558 L69.9906873,83.2871488 L81.4234617,84.3783964 L81.9299793,80.3806311 L81.9351935,80.3761619 Z M71.004691,48.1750454 L57.8244306,55.8630154 L73.7753427,61.3145609 C73.7753427,61.3145609 70.2153428,57.9955293 67.7880802,54.5920284 C73.9556779,54.8827547 77.9456219,51.6916933 77.9456219,51.6916933 C73.8335177,50.7091235 71.004691,48.1750454 71.004691,48.1750454 Z M95.3184334,67.7601473 C95.3184334,67.7601473 105.933703,69.38957 117.201487,67.5456966 C103.361636,66.0040952 91.4607053,62.8090115 81.3929216,57.9964231 C84.0491599,60.7716186 88.552698,64.1407805 93.4696438,66.7091231 C93.4696438,66.7091231 89.8867762,66.2421585 86.8342623,65.371246 C86.8342623,65.371246 94.5124744,72.7836853 107.799625,72.6105755 C100.678582,70.749272 95.3184334,67.7601473 95.3184334,67.7601473 Z M93.8778375,45.469645 C100.303163,42.9364608 107.740035,46.0358275 107.740035,46.0358275 C104.592176,42.2404459 97.9873346,40.9898686 91.1381728,42.910241 C84.8126608,44.6846171 79.8852866,44.848416 75.4495326,43.7793658 C81.1098676,47.8613768 89.709495,46.5706506 89.709495,46.5706506 C85.7951561,48.3053992 84.116199,50.9482296 84.116199,50.9482296 C87.9806309,49.4002967 91.4674093,49.0636859 94.6487872,49.3392166 C105.731096,50.2979503 114.808936,57.0844678 114.808936,57.0844678 C106.366478,46.6011906 93.8778375,45.469645 93.8778375,45.469645 Z M65.7198494,78.1363109 L49.7588069,71.5392161 L62.8232387,67.6198866 L60.501302,63.4546725 L51.235455,59.4346354 L36.4973548,59.784654 L43.3220101,64.510315 L28.9461445,62.9355664 C35.5827924,68.9118046 44.1387698,73.6929591 44.1387698,73.6929591 L42.0467029,75.7013016 L65.7198494,78.1363109 Z M6.92534061,40.2158649 L132.07225,2.452864 L188.071504,13.4374671 L176.34264,21.0175041 L194.242826,28.1980626 L169.674484,44.9185091 C170.418618,47.0748592 170.857351,49.3138908 170.857351,49.3138908 L159.413776,56.2965349 L162.239847,61.5045795 L161.027184,66.0347097 L165.707258,69.3947841 L160.761262,82.7642437 L174.460331,95.775789 L167.275973,128.405956 L163.724391,125.531468 L161.526998,131.448786 L146.648786,137.451021 L112.770947,133.11955 L115.962008,129.251393 L89.5873348,122.910984 L79.1053984,102.960891 L80.5579123,91.0204819 L57.8995144,88.8811896 L62.2107992,84.5705752 L32.290502,81.6916181 L36.6020847,77.3810037 C20.8147481,67.0079685 13.8431281,54.2659204 13.8431281,54.2659204 L38.0627179,53.6915443 L6.92534061,40.2158649 Z" id="path48" fill="#231F20"></path>
                        <polyline id="path50" fill="#231F20" points="25.1402601 25.986666 26.7675971 25.986666 26.7675971 21.6515451 27.417057 21.6515451 27.417057 25.986666 29.0447665 25.986666 29.0447665 26.5334072 25.1402601 26.5334072 25.1402601 25.986666"></polyline>
                        <polyline id="path52" fill="#231F20" points="32.0256975 22.4313588 30.4873735 26.5334072 29.598435 26.5334072 29.598435 21.6515451 30.213854 21.6515451 30.213854 25.7131465 30.2278577 25.7131465 31.7524759 21.6515451 32.3065169 21.6515451 33.8312096 25.7131465 33.8451388 25.7131465 33.8451388 21.6515451 34.4605578 21.6515451 34.4605578 26.5334072 33.5716193 26.5334072 32.0256975 22.4313588"></polyline>
                    </g>
                </g>
            </g>
        </g>
    </g>
</svg>