<?xml version="1.0" encoding="UTF-8"?>
<svg width="200px" height="200px" viewBox="0 0 200 200" version="1.1" xmlns="http://www.w3.org/2000/svg" xmlns:xlink="http://www.w3.org/1999/xlink">
    <!-- Generator: Sketch 51.3 (57544) - http://www.bohemiancoding.com/sketch -->
    <title>maranatha-baptist</title>
    <desc>Created with Sketch.</desc>
    <defs></defs>
    <g id="maranatha-baptist" stroke="none" stroke-width="1" fill="none" fill-rule="evenodd">
        <g id="maranatha-baptist_BGL">
            <g id="maranatha-baptist" transform="translate(17.000000, 0.000000)">
                <path d="M88.0462963,0 L88.3055556,0 C90.7314815,1.80555556 93.2314815,3.4537037 95.5324074,5.40277778 C103.328704,11.9444444 110.157407,19.7361111 115.851852,28.162037 C129.652778,32.8981481 142.060185,42.5972222 151.708333,53.3888889 C152.361111,54.1666667 153.333333,54.9537037 153.425926,56.0092593 C154.37963,62.3009259 155.00463,68.6527778 155.305556,75.0138889 C155.356481,75.9768519 155.638889,76.8796296 155.949074,77.787037 C156.949074,80.712963 157.787037,83.6805556 158.62037,86.6574074 C158.893519,87.7314815 159.555556,88.4768519 160.171296,89.3611111 C163.708333,94.4953704 166.018519,100.421296 166.666667,106.634259 L166.666667,111.560185 C166.222222,115.62963 165.078704,119.527778 162.74537,122.930556 C162.37963,123.555556 161.75463,124.222222 161.87037,124.986111 C162.393519,133.083333 161.708333,141.268519 159.884259,149.171296 C156.296296,164.708333 147.944444,179.12963 136.486111,190.189815 C133.37963,193.277778 129.884259,195.763889 126.347222,198.314815 C125.393519,196.143519 124.615741,193.888889 123.824074,191.652778 C122.060185,192.671296 120.509259,194.060185 118.837963,195.226852 C117.935185,193.898148 117.148148,192.49537 116.25463,191.157407 C113.226852,192.958333 110.013889,194.337963 106.805556,195.768519 C106.157407,194.486111 105.569444,193.185185 104.773148,191.981481 C100.847222,195.388889 96.0648148,198.101852 90.9814815,199.282407 C88.0185185,200.009259 84.8657407,199.689815 81.7638889,200 L78.3148148,200 C79.8981481,197.282407 81.4351852,194.532407 83.0092593,191.805556 C85.3518519,187.763889 86.7314815,183.537037 88.0972222,179.106481 C78.5972222,170.791667 69.712963,162.375 62.337963,152.032407 C61.2685185,150.62037 60.7453704,149.115741 59.1296296,148.268519 C48.9351852,142.046296 36.337963,141.810185 25.2222222,145.546296 C22.1898148,146.74537 19.3564815,148.435185 16.3101852,149.597222 C17.0833333,146.037037 17.8333333,142.467593 18.5972222,138.907407 C18.9305556,137.273148 19.3981481,135.712963 19.462963,134.032407 C15.3703704,133.976852 11.25,133.550926 7.16203704,133.296296 C9.08333333,128.847222 10.9583333,124.37963 12.8796296,119.930556 C8.58333333,119.703704 4.30092593,120.013889 -2.84217094e-14,119.884259 L-2.84217094e-14,119.657407 C3.18055556,115.12037 6.12037037,110.407407 9.24537037,105.824074 C6.18055556,105.078704 3.07407407,104.50463 -2.84217094e-14,103.805556 L-2.84217094e-14,103.736111 C2.94444444,100.856481 6.25925926,98.125 8.68055556,94.7916667 C11.5648148,90.9768519 14.2314815,86.9907407 16.7361111,82.9212963 C18.6712963,79.8333333 20.1388889,76.6064815 22.2731481,73.6342593 C24.125,70.9675926 26.3194444,68.6435185 28.537037,66.287037 C22.5972222,60.837963 17.1435185,54.4027778 13.4027778,47.2314815 C12.375,45.9814815 10.7962963,45.25 9.78703704,43.9259259 C6.51851852,40.3148148 5.19907407,36.0231481 3.9212963,31.4398148 C6.06481481,30.5787037 8.23148148,29.7638889 10.3796296,28.9027778 C16.5833333,26.3796296 23.1296296,24.8981481 29.7916667,24.2685185 C29.6111111,21.412037 29.1944444,18.5694444 29.0601852,15.712963 C34.7592593,14.5277778 40.0092593,15.1064815 45.6712963,15.7453704 C45.8333333,12.7685185 46.0138889,9.79166667 46.25,6.81944444 C48.1157407,6.9537037 49.9907407,7.06018519 51.8518519,7.23148148 C56.1527778,7.66666667 60.1064815,8.98611111 64.1990741,10.25 C64.9583333,7.39351852 65.6712963,4.50925926 66.6018519,1.7037037 C69.1018519,2.46296296 71.4861111,2.97685185 73.8611111,3.93518519 C77.2268519,5.30555556 80.4583333,7.01851852 83.4861111,9.03240741 C85.1296296,6.09259259 86.537037,3.01388889 88.0462963,0 Z" id="Shape" fill="#F2C418" fill-rule="nonzero"></path>
                <path d="M88.9537037,3.45833333 C91.162037,4.77777778 93.1712963,6.46759259 95.1342593,8.12962963 C102.328704,14.3796296 108.666667,21.6481481 113.967593,29.5694444 C114.37037,30.2731481 115.037037,30.3564815 115.731481,30.625 C118.726852,31.5925926 121.62037,32.9490741 124.407407,34.3981481 C134.407407,39.7222222 143.009259,47.0833333 150.490741,55.537037 C150.875,55.9814815 151.171296,56.3842593 151.222222,56.9861111 C151.953704,62.2037037 152.537037,67.4212963 152.833333,72.6805556 C152.972222,74.3796296 152.865741,75.9305556 153.430556,77.537037 C154.527778,80.8333333 155.513889,84.162037 156.430556,87.5092593 C156.62037,88.2268519 156.884259,88.8101852 157.328704,89.4027778 C161.944444,95.6157407 164.898148,103.282407 164.300926,111.106481 C164.074074,115.685185 162.282407,119.953704 159.50463,123.560185 C159.787037,130.490741 159.773148,137.375 158.509259,144.217593 C155.861111,159.662037 148.486111,174.064815 137.824074,185.50463 C134.694444,188.763889 131.226852,192.180556 127.365741,194.564815 C126.481481,192.212963 125.615741,189.851852 124.675926,187.518519 C123.069444,189.134259 121.328704,190.537037 119.458333,191.837963 C118.643519,190.537037 117.851852,189.222222 117.050926,187.912037 C114.148148,189.819444 111.041667,191.351852 107.856481,192.726852 C107.064815,191.194444 106.356481,189.62037 105.583333,188.078704 C101.62037,192.050926 96.6759259,195.365741 91.212963,196.824074 C88.2407407,197.643519 85.462963,197.430556 82.4074074,197.587963 C83.912037,194.791667 85.6712963,192.12037 86.9305556,189.25 C88.5231481,185.685185 89.712963,181.990741 90.7361111,178.226852 C80.3425926,169.393519 69.8009259,159.333333 62.3287037,147.856481 C62.0046296,147.402778 61.5694444,147.078704 61.1111111,146.773148 C56.2546296,143.625 50.662037,141.671296 44.912037,141.050926 C38.5555556,140.24537 31.962963,141.069444 25.837963,142.87963 C23.625,143.472222 21.7268519,144.685185 19.5833333,145.449074 C20.5324074,140.921296 21.5509259,136.407407 22.462963,131.875 C18.5092593,131.819444 14.587963,131.393519 10.6435185,131.25463 C12.4537037,126.662037 14.5,122.152778 16.4074074,117.597222 C12.3935185,117.564815 8.38425926,117.439815 4.36574074,117.50463 C7.125,112.986111 10.2638889,108.699074 13.0694444,104.208333 C10.3333333,103.583333 7.5462963,103.12963 4.84259259,102.384259 C6.35185185,100.828704 8.00462963,99.4768519 9.3287037,97.7453704 C12.837963,93.3148148 16,88.5972222 18.9490741,83.7777778 C20.8472222,80.6944444 22.212963,77.662037 24.3194444,74.7824074 C26.5601852,71.6574074 29.1851852,68.9027778 31.9768519,66.2685185 C25.4675926,60.5138889 19.2222222,53.6111111 15.3240741,45.7916667 C14.837963,44.8472222 13.6064815,44.3657407 12.8333333,43.6481481 C9.5462963,40.7685185 7.88888889,36.9907407 6.77777778,32.8472222 C10.0509259,31.537037 13.2731481,30.1712963 16.662037,29.1759259 C21.7824074,27.5972222 27.0555556,26.7361111 32.3981481,26.4675926 C32.0555556,23.5509259 31.8148148,20.6157407 31.5509259,17.6898148 C36.8472222,16.8611111 42.5185185,17.587963 47.7407407,18.6527778 C48.0231481,15.5555556 48.2546296,12.4444444 48.3611111,9.3287037 C54.2638889,9.44444444 60.2685185,11.2361111 65.712963,13.4351852 C66.5231481,10.4953704 67.3194444,7.55092593 68.1435185,4.61574074 C73.9722222,5.88425926 79.5925926,9.14351852 84.4953704,12.4675926 C86,9.47685185 87.3564815,6.39814815 88.9537037,3.45833333 Z" id="Shape" fill="#091F40" fill-rule="nonzero"></path>
                <path d="M72.0277778,11.2824074 C72.4814815,11.4537037 72.9305556,11.6296296 73.3796296,11.8055556 C81.6944444,15.1064815 89.2314815,20.5 95.4259259,26.9166667 C89.0601852,23.0138889 82.2314815,20.0138889 75.0185185,18.0555556 C73.6805556,17.3148148 72.3425926,16.5648148 70.9907407,15.8564815 C71.2962963,14.3194444 71.6481481,12.8009259 72.0277778,11.2824074 Z" id="Shape" fill="#FFFFFF" fill-rule="nonzero"></path>
                <path d="M91.0925926,11.5601852 C102.611111,20.4907407 112.189815,31.875 118.953704,44.7916667 C117.976852,44.125 116.990741,43.4675926 115.949074,42.8935185 C115.611111,42.3055556 115.268519,41.7175926 114.875,41.1666667 C110.25463,34.9814815 105.421296,29.125 99.6712963,23.9398148 C97.0787037,21.6944444 94.3333333,19.4444444 91.25,17.9259259 C90.537037,17.3101852 89.8240741,16.6944444 89.0972222,16.087963 C89.712963,14.5555556 90.4074074,13.0601852 91.0925926,11.5601852 Z" id="Shape" fill="#FFFFFF" fill-rule="nonzero"></path>
                <path d="M53.9027778,15.4768519 C63.9490741,16.9074074 73.587963,21.2175926 81.9537037,26.8703704 C74.0694444,23.8935185 65.7222222,22.1018519 57.337963,21.3518519 C56.1296296,20.9583333 54.9305556,20.5509259 53.712963,20.1851852 C53.7222222,18.6111111 53.8888889,17.0509259 53.9027778,15.4768519 Z" id="Shape" fill="#FFFFFF" fill-rule="nonzero"></path>
                <path d="M75.0185185,18.0555556 C82.2314815,20.0138889 89.0601852,23.0138889 95.4259259,26.9166667 C98.1111111,29.5277778 100.412037,32.4212963 102.643519,35.4166667 C103.819444,35.7222222 105,36.0092593 106.194444,36.2546296 C101.861111,29.6203704 97.0925926,23.3194444 91.25,17.9259259 C94.3333333,19.4444444 97.0787037,21.6944444 99.6712963,23.9398148 C105.421296,29.125 110.25463,34.9814815 114.875,41.1666667 C115.268519,41.7175926 115.611111,42.3055556 115.949074,42.8935185 C105.555556,37.3148148 93.662037,35.087963 81.9537037,36.5925926 C80.9351852,36.7222222 79.9398148,36.8333333 79.0138889,37.3101852 C85.3055556,36.9398148 91.625,37.5462963 97.6944444,39.25 C106.791667,41.75 115.162037,46.6527778 121.842593,53.3055556 C123.069444,52.0648148 124.226852,50.7546296 125.402778,49.462963 C124.583333,48.8101852 123.759259,48.375 123.402778,47.3240741 C121.805556,43.337963 119.902778,39.5 117.814815,35.7546296 C122.342593,37.6435185 126.625,40.1944444 130.699074,42.9259259 C136.490741,46.9212963 141.921296,51.5509259 146.564815,56.8518519 C145.50463,60.1527778 142.62037,62.8240741 139.819444,64.7175926 C139.694444,63.9953704 139.574074,63.2685185 139.444444,62.5462963 C139.092593,60.6203704 138.833333,58.7361111 138.226852,56.8657407 C137.967593,58.4027778 137.680556,59.9259259 137.324074,61.4398148 C136.939815,60.1111111 136.62037,58.7731481 136.319444,57.4212963 C135.37963,57.5046296 134.791667,58.0833333 134.083333,58.6388889 C131.842593,60.5231481 130.541667,62.912037 128.962963,65.3055556 C127.527778,62.462963 126.601852,59.4305556 125.337963,56.5277778 C125.532407,59.7083333 125.537037,62.9212963 125.310185,66.1018519 C123.282407,64.875 121.24537,63.7222222 118.981481,62.9861111 C116.726852,62.1527778 114.384259,61.837963 112.064815,61.2592593 C111.273148,60.6203704 110.49537,59.9675926 109.699074,59.337963 C110.768519,62.0601852 112.287037,64.5648148 113.407407,67.2685185 C111.472222,65.1111111 109.384259,62.625 106.791667,61.2592593 C104.361111,59.962963 101.773148,59.787037 99.0787037,59.6018519 C97.5694444,59.4953704 96.087963,59.6342593 94.5972222,59.8564815 C93.75,59.8472222 92.9074074,59.837963 92.0648148,59.7916667 C86.8981481,57.5555556 81.1527778,55.7175926 75.4583333,56.1944444 C71.587963,56.4861111 67.9259259,58.2592593 65.5555556,61.3703704 C64.4166667,62.7407407 63.9490741,64.3148148 63.2314815,65.9027778 C60.837963,65.2638889 58.6898148,64.1342593 56.4675926,63.0740741 C57.2083333,64.8657407 58.787037,66.3287037 60.3101852,67.4722222 C63.9768519,70 68.7638889,70.9444444 73.1481481,70.4722222 C77.2175926,70.0648148 80.2777778,67.6388889 84.2546296,67.087963 C87.3101852,66.6944444 90.3194444,66.8703704 92.9537037,68.6157407 C97.2314815,71.5092593 102.203704,75.3009259 107.402778,76.2083333 C111.962963,77.0138889 115.425926,75.0416667 119.671296,73.7824074 C123.634259,72.3148148 127.726852,71.2731481 131.930556,70.7824074 C137.37037,70.1203704 143.106481,72.037037 147.064815,75.8333333 C147.824074,76.5416667 148.50463,77.3194444 149.125,78.1574074 L149.268519,78.6157407 C146.101852,78.9675926 143.490741,80.1851852 141.273148,82.4768519 C139.194444,84.4814815 138.009259,86.9398148 136.703704,89.462963 C134.300926,85.0648148 130.407407,81.3888889 125.462963,80.1388889 C120.912037,78.9398148 116.287037,80.0833333 112.25463,82.3101852 C109.666667,81.1666667 106.847222,80.3703704 104.444444,78.8842593 C101.666667,77.1666667 99.7407407,74.9490741 96.7314815,73.625 C92.5972222,71.8009259 87.6157407,71.8101852 83.3333333,73.1203704 C79.0231481,74.3240741 75.4722222,76.1712963 70.8333333,76 C69.2222222,76.0324074 67.4675926,75.3518519 65.8981481,75.7083333 C62.7824074,77.5 59.5138889,79.1435185 56.5787037,81.2268519 C55.3333333,77.2407407 55.8472222,73.4768519 56.4351852,69.4583333 C55.2407407,71.4907407 54.2361111,73.6157407 53.6342593,75.9027778 C53.537037,76.2314815 53.4444444,76.5601852 53.3472222,76.8888889 C51.2268519,77.6574074 49.25,78.625 47.2777778,79.7175926 C45.1435185,80.5185185 43.3796296,81.8657407 41.6712963,83.3472222 C36.837963,87.6157407 33.287037,93.037037 30.962963,99.037037 C34.6111111,98.0787037 38.2685185,97.212963 41.9861111,96.5601852 C37.712963,103.310185 34.5416667,110.532407 33.8518519,118.574074 C38.1990741,117.481481 42.5185185,116.25 46.8564815,115.12963 C46.4351852,117.574074 45.9768519,120.203704 46.1805556,122.685185 C46.3518519,124.74537 46.6111111,126.819444 47.0509259,128.842593 C47.6712963,127.782407 47.8009259,126.402778 48.1018519,125.203704 C51.5555556,123.805556 54.9675926,122.300926 58.4305556,120.944444 C59.9074074,126.300926 61.037037,132.013889 63.4027778,137.055556 C71.0092593,149.824074 81.1018519,161.203704 92.4444444,170.777778 C92.2916667,171.569444 92.1388889,172.361111 91.9861111,173.152778 C89.1759259,170.953704 86.5972222,168.449074 83.9814815,166.023148 C77.2361111,159.467593 70.4027778,152.277778 65.5231481,144.194444 C62.3518519,142.12963 59.1388889,140.208333 55.5509259,138.930556 C46.0648148,135.430556 35.9305556,135.527778 26.2083333,138 C27.2592593,134.25463 28.4722222,130.569444 29.3888889,126.787037 C25.8472222,126.458333 22.3611111,126.50463 18.8287037,126.013889 C20.662037,121.398148 22.4675926,116.773148 24.3055556,112.157407 C20.8333333,112.125 17.4166667,112.666667 13.9398148,112.481481 C16.9398148,108.393519 20.2777778,104.282407 22.4398148,99.6805556 C19.7638889,99.5462963 17.1064815,99.2361111 14.4305556,99.0925926 C18.0925926,94.3611111 21.5046296,89.4444444 24.6064815,84.3287037 C25.7962963,82.3194444 26.9398148,80.2037037 28.3148148,78.3009259 C30.7777778,74.9074074 33.7546296,72.0509259 36.9212963,69.3194444 C38.5787037,67.875 40.9583333,67.3796296 43.0092593,66.6944444 C40.0925926,64.0509259 36.837963,61.7962963 33.9490741,59.1111111 C28.3101852,53.9027778 22.7083333,47.7037037 19.7083333,40.5509259 C17.712963,39.7222222 16.625,38.7175926 15.6805556,36.7685185 C27.7546296,32.1944444 40.8240741,30.962963 53.3055556,34.6712963 C45.7453704,33.2083333 37.875,32.8796296 30.3194444,34.5416667 C29.375,34.7314815 28.4722222,34.9953704 27.6018519,35.4027778 C32.6481481,36.787037 37.4537037,39.1342593 41.8240741,41.9907407 C46.0925926,45.0046296 51.8333333,46.1064815 56.9074074,46.9027778 C60.337963,44.6574074 63.9166667,42.7361111 67.6759259,41.1018519 C68.2962963,41.5046296 68.9166667,41.8981481 69.537037,42.2916667 C70.5925926,41.8009259 71.6527778,41.3194444 72.7083333,40.8425926 C70.2962963,39.0185185 68.0509259,37.0601852 65.4814815,35.4444444 C58.3333333,30.9166667 50.1296296,27.9074074 41.7175926,26.9212963 C43.3981481,27.0648148 45.0740741,27.1157407 46.7592593,27.1712963 C54.3287037,27.4398148 61.7824074,28.6666667 69.1342593,30.4490741 C72.3194444,31.9444444 75.2592593,33.8333333 78.2685185,35.6388889 C79.2407407,35.3055556 80.2083333,34.9722222 81.1712963,34.6203704 C79.8703704,33.412037 78.25,32.6111111 76.7916667,31.5601852 C70.7824074,27.3194444 64.2314815,23.9074074 57.337963,21.3518519 C65.7222222,22.1018519 74.0694444,23.8935185 81.9537037,26.8703704 C84.9675926,28.8888889 87.8009259,31.1435185 90.5092593,33.5555556 C91.5555556,34.7685185 93.8472222,34.1111111 95.2824074,34.2222222 C93.5231481,32.4722222 91.5740741,30.9212963 89.7685185,29.212963 C85.2824074,24.9583333 80.3148148,21.2453704 75.0185185,18.0555556 Z" id="Shape" fill="#F2C418" fill-rule="nonzero"></path>
                <path d="M37.875,22.8564815 C48.6435185,22.6666667 59.5277778,25.7083333 69.1342593,30.4490741 C61.7824074,28.6666667 54.3287037,27.4398148 46.7592593,27.1712963 C45.0740741,27.1157407 43.3981481,27.0648148 41.7175926,26.9212963 C40.712963,26.7268519 39.3055556,26.8333333 38.4212963,26.3796296 C38.1944444,25.212963 38.0740741,24.0277778 37.875,22.8564815 Z" id="Shape" fill="#FFFFFF" fill-rule="nonzero"></path>
                <path d="M53.3055556,34.6712963 C58.3564815,36.0925926 63.2962963,38.1944444 67.6759259,41.1018519 C63.9166667,42.7361111 60.337963,44.6574074 56.9074074,46.9027778 C51.8333333,46.1064815 46.0925926,45.0046296 41.8240741,41.9907407 C37.4537037,39.1342593 32.6481481,36.787037 27.6018519,35.4027778 C28.4722222,34.9953704 29.375,34.7314815 30.3194444,34.5416667 C37.875,32.8796296 45.7453704,33.2083333 53.3055556,34.6712963 Z" id="Shape" fill="#FFFFFF" fill-rule="nonzero"></path>
                <path d="M22.1666667,39.1018519 C28.0185185,38.5185185 33.6759259,39.9814815 38.875,42.6018519 C42.912037,44.4351852 46.2546296,46.5601852 50.4537037,47.7407407 C52.7638889,48.4444444 55.1296296,48.7222222 57.4814815,49.2083333 C55.1435185,51.2037037 52.1157407,52.0787037 49.0740741,52.0324074 C46.4907407,52.0046296 44.2592593,51.125 41.6574074,51.2916667 C40.4027778,51.337963 39.3935185,51.8657407 38.287037,52.3935185 C41.4537037,54.287037 44.8518519,55.8148148 48.0555556,57.6435185 C48.1666667,57.8796296 48.0277778,58.0787037 47.6388889,58.2453704 C45.0092593,59.4953704 41.4074074,60.2777778 38.6666667,59.0138889 C36.6898148,58.1342593 35.7314815,56.4768519 34.6111111,54.7407407 C32.3101852,51.1111111 31.2083333,47.4953704 28.4166667,44.2592593 C26.6388889,42.0972222 24.4212963,40.6898148 22.1666667,39.1018519 Z" id="Shape" fill="#091F40" fill-rule="nonzero"></path>
                <path d="M75.4583333,56.1944444 C81.1527778,55.7175926 86.8981481,57.5555556 92.0648148,59.7916667 C94.4074074,60.9537037 97.212963,62.5324074 98.5694444,64.8518519 C99.5787037,66.8194444 100.282407,68.9305556 101.282407,70.9074074 C99.0324074,69.4953704 96.787037,68.0416667 94.6990741,66.3981481 C92.8935185,64.9814815 91.7453704,63.2731481 89.7175926,62.1342593 C86.8055556,60.3518519 82.8564815,60.4583333 79.6342593,61.1712963 C76.2824074,61.912037 74.3888889,64.2361111 71.1944444,65.5601852 C68.6574074,66.6944444 65.8703704,66.5509259 63.2314815,65.9027778 C63.9490741,64.3148148 64.4166667,62.7407407 65.5555556,61.3703704 C67.9259259,58.2592593 71.587963,56.4861111 75.4583333,56.1944444 Z" id="Shape" fill="#FFFFFF" fill-rule="nonzero"></path>
                <path d="M146.564815,56.8518519 C146.851852,57.1851852 147.134259,57.5277778 147.412037,57.875 C147.148148,60.5138889 146.527778,63.3240741 145.189815,65.6435185 C144.24537,67.3287037 142.944444,68.8055556 141.680556,70.2638889 C141.046296,69.7638889 140.439815,69.4305556 140.25,68.587963 C139.810185,66.6111111 139.782407,64.5462963 139.444444,62.5462963 C139.574074,63.2685185 139.694444,63.9953704 139.819444,64.7175926 C142.62037,62.8240741 145.50463,60.1527778 146.564815,56.8518519 Z" id="Shape" fill="#FFFFFF" fill-rule="nonzero"></path>
                <path d="M136.319444,57.4212963 C136.62037,58.7731481 136.939815,60.1111111 137.324074,61.4398148 C136.833333,63.7453704 136.356481,66.1388889 135.467593,68.3287037 C135.143519,69.5694444 133.152778,69.3703704 132.175926,69.3055556 C130.199074,69.2685185 129.717593,66.7222222 128.962963,65.3055556 C130.541667,62.912037 131.842593,60.5231481 134.083333,58.6388889 C134.791667,58.0833333 135.37963,57.5046296 136.319444,57.4212963 Z" id="Shape" fill="#FFFFFF" fill-rule="nonzero"></path>
                <path d="M94.5972222,59.8564815 C96.087963,59.6342593 97.5694444,59.4953704 99.0787037,59.6018519 C101.773148,59.787037 104.361111,59.962963 106.791667,61.2592593 C109.384259,62.625 111.472222,65.1111111 113.407407,67.2685185 C114.111111,68.8055556 115.587963,71.375 114.648148,73 C112.921296,74.4583333 110.282407,74.5046296 108.731481,72.75 C106.902778,70.8888889 107.097222,68.5648148 105.685185,66.5324074 C103.115741,62.8101852 99.0277778,60.5277778 94.5972222,59.8564815 Z" id="Shape" fill="#FFFFFF" fill-rule="nonzero"></path>
                <path d="M112.064815,61.2592593 C114.384259,61.837963 116.726852,62.1527778 118.981481,62.9861111 C121.24537,63.7222222 123.282407,64.875 125.310185,66.1018519 C125.259259,67.0601852 125.231481,68.0601852 125.069444,69.0046296 C125.009259,70.8888889 122.152778,71.6666667 120.722222,71.0138889 C119.194444,70.0601852 118.217593,68.0509259 117.208333,66.5972222 C115.875,64.5462963 113.898148,62.8564815 112.064815,61.2592593 Z" id="Shape" fill="#FFFFFF" fill-rule="nonzero"></path>
                <path d="M148.587963,65.7824074 C148.736111,69.9074074 149.259259,74.0416667 149.125,78.1574074 C148.50463,77.3194444 147.824074,76.5416667 147.064815,75.8333333 C147.273148,73.0416667 147.106481,70.5648148 146.398148,67.8564815 C147.152778,67.1898148 147.875,66.4953704 148.587963,65.7824074 Z" id="Shape" fill="#FFFFFF" fill-rule="nonzero"></path>
                <path d="M56.4351852,69.4583333 C55.8472222,73.4768519 55.3333333,77.2407407 56.5787037,81.2268519 C56.6527778,81.4537037 56.7314815,81.6851852 56.8101852,81.912037 C57.6388889,84.3009259 59.1481481,86.5648148 61.162037,88.1111111 C61.3703704,88.2685185 61.5740741,88.4212963 61.7824074,88.5740741 C63.3611111,89.7824074 65.1481481,90.5231481 67.0092593,91.1759259 C62.5509259,93.3981481 58.837963,96.6851852 57.1203704,101.467593 C56.2083333,103.800926 56.2361111,106.152778 56.0416667,108.601852 C53.7453704,103.592593 54.1435185,97.6527778 57.2268519,93.0648148 C53.7407407,88.0601852 52.1481481,81.912037 53.6342593,75.9027778 C54.2361111,73.6157407 55.2407407,71.4907407 56.4351852,69.4583333 Z" id="Shape" fill="#091F40" fill-rule="nonzero"></path>
                <path d="M96.7314815,73.625 C99.7407407,74.9490741 101.666667,77.1666667 104.444444,78.8842593 C106.847222,80.3703704 109.666667,81.1666667 112.25463,82.3101852 C110.587963,83.1296296 108.282407,82.3888889 106.467593,82.7592593 C103.064815,83.3842593 99.6851852,83.8425926 96.212963,83.7037037 C97.75,82.375 98.5324074,81.1435185 99.2083333,79.2361111 C97.6157407,78.2361111 96.0092593,77.3935185 94.2407407,76.7314815 C94.5324074,78.4027778 94.5972222,79.9675926 92.9583333,80.9305556 C91.5092593,81.787037 90.2592593,81.3009259 88.9537037,80.4583333 C89.125,79.8703704 89.2824074,79.287037 89.4305556,78.6944444 C89.4074074,78.0925926 88.7453704,77.662037 88.3703704,77.2361111 C88.6203704,76.8657407 88.8657407,76.4907407 89.1111111,76.1203704 C87.1111111,76.2685185 85.1527778,76.5833333 83.25,77.2361111 C83.5416667,79.0787037 83.9907407,80.6388889 85.0185185,82.212963 C82.2314815,81.5138889 79.5324074,80.4074074 77.0277778,79.0046296 C75.962963,78.3333333 74.3703704,78.8333333 73.1481481,78.6481481 C70.3472222,78.5277778 68.1435185,77.2453704 65.8981481,75.7083333 C67.4675926,75.3518519 69.2222222,76.0324074 70.8333333,76 C75.4722222,76.1712963 79.0231481,74.3240741 83.3333333,73.1203704 C87.6157407,71.8101852 92.5972222,71.8009259 96.7314815,73.625 Z" id="Shape" fill="#091F40" fill-rule="nonzero"></path>
                <path d="M53.6342593,75.9027778 C52.1481481,81.912037 53.7407407,88.0601852 57.2268519,93.0648148 C54.1435185,97.6527778 53.7453704,103.592593 56.0416667,108.601852 C56.3611111,110.944444 57.1805556,113.060185 58.0092593,115.25463 C60.2222222,114.305556 62.412037,113.310185 64.6666667,112.467593 C65.7592593,120.106481 68.1111111,128.064815 72.3935185,134.546296 C73.3472222,135.967593 74.3611111,137.324074 75.6296296,138.486111 C74.3009259,134.666667 74.4351852,130.203704 76.8703704,126.861111 C78.6574074,124.666667 80.837963,122.791667 82.7777778,120.731481 C83.2314815,121.541667 83.6990741,122.347222 84.1759259,123.148148 C81.8287037,125.782407 79.7453704,128.856481 78.5,132.171296 C77.712963,134.175926 77.7453704,136.319444 77.9861111,138.430556 C78.5092593,141.907407 80.5740741,145.171296 82.5138889,148.041667 C86.0462963,153.175926 89.9583333,158.064815 93.7731481,162.986111 C93.4398148,165.615741 92.9351852,168.166667 92.4444444,170.777778 C81.1018519,161.203704 71.0092593,149.824074 63.4027778,137.055556 C61.037037,132.013889 59.9074074,126.300926 58.4305556,120.944444 C54.9675926,122.300926 51.5555556,123.805556 48.1018519,125.203704 C49.1759259,120.550926 50.2592593,115.898148 51.2916667,111.240741 C46.9953704,112.087963 42.6944444,112.884259 38.4074074,113.75 C39.7916667,108.393519 42.4027778,103.277778 45.4444444,98.6805556 C47.162037,96.0694444 49.1851852,93.75 51.0555556,91.2638889 C46.7546296,91.7037037 42.4907407,92.2314815 38.2685185,93.1759259 C39.0787037,91.3148148 39.9212963,89.4861111 40.9953704,87.7592593 C42.7592593,84.8425926 45.0509259,82.3518519 47.2777778,79.7175926 C49.25,78.625 51.2268519,77.6574074 53.3472222,76.8888889 C53.4444444,76.5601852 53.537037,76.2314815 53.6342593,75.9027778 Z" id="Shape" fill="#FFFFFF" fill-rule="nonzero"></path>
                <path d="M65.8981481,75.7083333 C68.1435185,77.2453704 70.3472222,78.5277778 73.1481481,78.6481481 C74.3703704,78.8333333 75.962963,78.3333333 77.0277778,79.0046296 C79.5324074,80.4074074 82.2314815,81.5138889 85.0185185,82.212963 C88.712963,83.0648148 92.4166667,83.6712963 96.212963,83.7037037 C99.6851852,83.8425926 103.064815,83.3842593 106.467593,82.7592593 C108.282407,82.3888889 110.587963,83.1296296 112.25463,82.3101852 C116.287037,80.0833333 120.912037,78.9398148 125.462963,80.1388889 C130.407407,81.3888889 134.300926,85.0648148 136.703704,89.462963 C138.009259,86.9398148 139.194444,84.4814815 141.273148,82.4768519 C143.490741,80.1851852 146.101852,78.9675926 149.268519,78.6157407 C150.935185,82.6805556 152.152778,86.8611111 153.185185,91.1296296 C152.564815,92.3935185 151.824074,93.5185185 150.944444,94.6203704 C145.939815,93.1944444 140.912037,94.462963 136.509259,96.9907407 C130.412037,93.712963 123.023148,93.4212963 117.027778,97.1018519 C114.62037,95.162037 113.092593,92.5972222 112.166667,89.6712963 C110.398148,93.5925926 110.861111,99.3842593 114.425926,102.226852 C116.726852,104.148148 119.310185,104.564815 122.134259,105.194444 C127.462963,106.509259 132.217593,109.986111 135.009259,114.722222 C134.763889,116.375 135.018519,118.449074 134.347222,119.967593 C129.5,125.421296 122.583333,129.263889 115.643519,131.365741 C111.694444,132.800926 106.925926,132.069444 103.013889,130.810185 C94.6018519,128.101852 87.875,121.884259 83.0092593,114.666667 C81.8287037,112.430556 78.5,111.62963 76.2777778,110.861111 C75.3425926,109.921296 74.662037,108.847222 73.9537037,107.740741 C76.0972222,107.37963 78.25,107.226852 80.4027778,107.62037 C83.5185185,113.157407 87.287037,118.527778 91.8981481,122.921296 C95.6388889,126.449074 99.9212963,129.185185 105.134259,129.791667 C109.314815,131.157407 113.967593,130.097222 117.962963,128.592593 C121.759259,127.101852 125.518519,125.231481 128.810185,122.810185 C122.606481,122.134259 116.25463,121.171296 110.273148,119.361111 C107.212963,118.393519 104.074074,117.199074 101.703704,114.962963 C97.7638889,111.300926 95.875,106.296296 92.0509259,102.652778 C93.8333333,101.351852 95.462963,99.8657407 96.787037,98.0925926 C89.1944444,100.680556 81.4814815,101.046296 73.6944444,102.587963 C71.6064815,102.944444 70.1111111,104.337963 69.0740741,106.106481 C68.5,107.217593 67.6527778,108.097222 68.3101852,109.388889 C67.662037,109.597222 67.8518519,108.787037 67.712963,108.393519 C67.3055556,104.157407 70.4444444,99.9768519 74.1805556,98.2824074 C78.087963,96.5694444 82.875,96.9444444 87.037037,96.8611111 C91.2592593,96.6666667 95.5185185,96.2824074 99.5694444,95.0231481 C102.569444,94.1851852 105.240741,92.2638889 106.99537,89.6898148 C103.125,89.9861111 99.2175926,90.0555556 95.3425926,89.7731481 C92.8703704,89.4675926 90.5509259,89.0787037 88.037037,89.5416667 C86.3935185,89.8981481 84.7962963,90.6342593 83.2824074,91.3611111 C82.0277778,90.8981481 80.5092593,91.2407407 79.1666667,91.2037037 C76.2777778,91.1712963 73.3935185,91.3611111 70.5046296,91.4166667 C71.3611111,89.6064815 72.2592593,87.8333333 72.9768519,85.9583333 C69.2453704,86.8055556 65.462963,87.5324074 61.7824074,88.5740741 C61.5740741,88.4212963 61.3703704,88.2685185 61.162037,88.1111111 L61.6574074,88.3518519 C63.2222222,85.7083333 65.4444444,83.7731481 67.4722222,81.5277778 C63.8611111,81.4583333 60.25,81.1388889 56.6388889,81.1944444 L56.8101852,81.912037 C56.7314815,81.6851852 56.6527778,81.4537037 56.5787037,81.2268519 C59.5138889,79.1435185 62.7824074,77.5 65.8981481,75.7083333 Z" id="Shape" fill="#FFFFFF" fill-rule="nonzero"></path>
                <path d="M89.1111111,76.1203704 C88.8657407,76.4907407 88.6203704,76.8657407 88.3703704,77.2361111 C87,77.3101852 86.2731481,77.6018519 86.2592593,79.1018519 C86.6018519,80.4861111 87.5833333,80.4027778 88.7685185,80.375 L88.9537037,80.4583333 C90.2592593,81.3009259 91.5092593,81.787037 92.9583333,80.9305556 C94.5972222,79.9675926 94.5324074,78.4027778 94.2407407,76.7314815 C96.0092593,77.3935185 97.6157407,78.2361111 99.2083333,79.2361111 C98.5324074,81.1435185 97.75,82.375 96.212963,83.7037037 C92.4166667,83.6712963 88.712963,83.0648148 85.0185185,82.212963 C83.9907407,80.6388889 83.5416667,79.0787037 83.25,77.2361111 C85.1527778,76.5833333 87.1111111,76.2685185 89.1111111,76.1203704 Z" id="Shape" fill="#F2C418" fill-rule="nonzero"></path>
                <path d="M88.3703704,77.2361111 C88.7453704,77.662037 89.4074074,78.0925926 89.4305556,78.6944444 C89.2824074,79.287037 89.125,79.8703704 88.9537037,80.4583333 L88.7685185,80.375 C87.5833333,80.4027778 86.6018519,80.4861111 86.2592593,79.1018519 C86.2731481,77.6018519 87,77.3101852 88.3703704,77.2361111 Z" id="Shape" fill="#FFFFFF" fill-rule="nonzero"></path>
                <path d="M47.2777778,79.7175926 C45.0509259,82.3518519 42.7592593,84.8425926 40.9953704,87.7592593 C39.9212963,89.4861111 39.0787037,91.3148148 38.2685185,93.1759259 C42.4907407,92.2314815 46.7546296,91.7037037 51.0555556,91.2638889 C49.1851852,93.75 47.162037,96.0694444 45.4444444,98.6805556 C42.4027778,103.277778 39.7916667,108.393519 38.4074074,113.75 C42.6944444,112.884259 46.9953704,112.087963 51.2916667,111.240741 C50.2592593,115.898148 49.1759259,120.550926 48.1018519,125.203704 C47.8009259,126.402778 47.6712963,127.782407 47.0509259,128.842593 C46.6111111,126.819444 46.3518519,124.74537 46.1805556,122.685185 C45.9768519,120.203704 46.4351852,117.574074 46.8564815,115.12963 C42.5185185,116.25 38.1990741,117.481481 33.8518519,118.574074 C34.5416667,110.532407 37.712963,103.310185 41.9861111,96.5601852 C38.2685185,97.212963 34.6111111,98.0787037 30.962963,99.037037 C33.287037,93.037037 36.837963,87.6157407 41.6712963,83.3472222 C43.3796296,81.8657407 45.1435185,80.5185185 47.2777778,79.7175926 Z" id="Shape" fill="#091F40" fill-rule="nonzero"></path>
                <path d="M56.6388889,81.1944444 C60.25,81.1388889 63.8611111,81.4583333 67.4722222,81.5277778 C65.4444444,83.7731481 63.2222222,85.7083333 61.6574074,88.3518519 L61.162037,88.1111111 C59.1481481,86.5648148 57.6388889,84.3009259 56.8101852,81.912037 L56.6388889,81.1944444 Z" id="Shape" fill="#F2C418" fill-rule="nonzero"></path>
                <path d="M72.9768519,85.9583333 C72.2592593,87.8333333 71.3611111,89.6064815 70.5046296,91.4166667 C73.3935185,91.3611111 76.2777778,91.1712963 79.1666667,91.2037037 C80.5092593,91.2407407 82.0277778,90.8981481 83.2824074,91.3611111 C81.7407407,92.337963 80.2175926,93.25 78.9351852,94.5648148 C85.9351852,93.75 92.837963,96.3009259 99.5694444,95.0231481 C95.5185185,96.2824074 91.2592593,96.6666667 87.037037,96.8611111 C82.875,96.9444444 78.087963,96.5694444 74.1805556,98.2824074 C70.4444444,99.9768519 67.3055556,104.157407 67.712963,108.393519 C67.8518519,108.787037 67.662037,109.597222 68.3101852,109.388889 C70.1481481,108.666667 71.9953704,108.046296 73.9537037,107.740741 C74.662037,108.847222 75.3425926,109.921296 76.2777778,110.861111 C76.1527778,112.305556 76.0416667,113.75 75.9444444,115.194444 C77.5416667,115.842593 79.3240741,116.412037 80.7222222,117.425926 C81.6018519,118.347222 82.125,119.643519 82.7777778,120.731481 C80.837963,122.791667 78.6574074,124.666667 76.8703704,126.861111 C74.4351852,130.203704 74.3009259,134.666667 75.6296296,138.486111 C74.3611111,137.324074 73.3472222,135.967593 72.3935185,134.546296 C68.1111111,128.064815 65.7592593,120.106481 64.6666667,112.467593 C62.412037,113.310185 60.2222222,114.305556 58.0092593,115.25463 C57.1805556,113.060185 56.3611111,110.944444 56.0416667,108.601852 C56.2361111,106.152778 56.2083333,103.800926 57.1203704,101.467593 C58.837963,96.6851852 62.5509259,93.3981481 67.0092593,91.1759259 C65.1481481,90.5231481 63.3611111,89.7824074 61.7824074,88.5740741 C65.462963,87.5324074 69.2453704,86.8055556 72.9768519,85.9583333 Z" id="Shape" fill="#F2C418" fill-rule="nonzero"></path>
                <path d="M88.037037,89.5416667 C90.5509259,89.0787037 92.8703704,89.4675926 95.3425926,89.7731481 C99.2175926,90.0555556 103.125,89.9861111 106.99537,89.6898148 C105.240741,92.2638889 102.569444,94.1851852 99.5694444,95.0231481 C92.837963,96.3009259 85.9351852,93.75 78.9351852,94.5648148 C80.2175926,93.25 81.7407407,92.337963 83.2824074,91.3611111 C84.7962963,90.6342593 86.3935185,89.8981481 88.037037,89.5416667 Z" id="Shape" fill="#091F40" fill-rule="nonzero"></path>
                <path d="M155.444444,94.9675926 C157.75,98.6990741 159.578704,102.523148 159.976852,106.958333 C160.625,111.541667 159.365741,116.273148 156.550926,119.949074 C153.777778,123.49537 150.013889,126.296296 145.87037,128.050926 C142.847222,126.421296 139.962963,124.083333 137.606481,121.597222 C137.439815,120.62037 137.805556,119.509259 137.833333,118.513889 C138.060185,116.736111 137.805556,114.893519 138.805556,113.365741 C140.592593,110.185185 142.856481,106.685185 146.208333,104.990741 C148.375,103.847222 150.333333,102.421296 151.810185,100.435185 C152.893519,98.8888889 154.171296,97.8055556 154.944444,96.0972222 C155.115741,95.7222222 155.277778,95.3472222 155.444444,94.9675926 Z" id="Shape" fill="#FFFFFF" fill-rule="nonzero"></path>
                <path d="M148.601852,96.4907407 C146.25,97.8796296 143.564815,98.2731481 141.157407,99.4722222 C138.694444,100.768519 137.365741,102.99537 136.393519,105.513889 C135.333333,103.851852 134.125,102.384259 132.333333,101.476852 C128.435185,99.3425926 123.310185,100.560185 119.453704,98.4583333 C121.652778,97.4907407 123.967593,96.8518519 126.37963,96.7638889 C130.060185,96.7685185 133.435185,97.9861111 136.592593,99.8055556 C140.194444,97.4444444 144.236111,95.9907407 148.601852,96.4907407 Z" id="Shape" fill="#F2C418" fill-rule="nonzero"></path>
                <path d="M155.939815,97.6435185 C156.74537,98.8935185 156.986111,100.518519 157.509259,101.907407 C156.773148,102.657407 156.12037,103.476852 155.458333,104.291667 C155.069444,104.615741 154.134259,105.583333 154.236111,104.375 C154.851852,102.138889 155.490741,99.9305556 155.939815,97.6435185 Z" id="Shape" fill="#F2C418" fill-rule="nonzero"></path>
                <path d="M96.787037,98.0925926 C95.462963,99.8657407 93.8333333,101.351852 92.0509259,102.652778 C90.212963,103.981481 88.2916667,105.171296 86.3935185,106.402778 C86.6712963,109.060185 87.3055556,111.25463 88.4722222,113.652778 C90.2731481,112.509259 91.5138889,112.138889 93.6851852,112.185185 C92.4259259,114.634259 92.6851852,117.092593 93.0555556,119.717593 C93.9305556,118.875 94.7083333,118.064815 95.8703704,117.62037 C97.1111111,117.111111 98.375,117.143519 99.6898148,117.087963 C99.337963,118.361111 98.8981481,119.49537 99.2638889,120.837963 C99.9861111,124.291667 102.962963,127.143519 105.583333,129.305556 L105.134259,129.791667 C99.9212963,129.185185 95.6388889,126.449074 91.8981481,122.921296 C87.287037,118.527778 83.5185185,113.157407 80.4027778,107.62037 C78.25,107.226852 76.0972222,107.37963 73.9537037,107.740741 C71.9953704,108.046296 70.1481481,108.666667 68.3101852,109.388889 C67.6527778,108.097222 68.5,107.217593 69.0740741,106.106481 C70.1111111,104.337963 71.6064815,102.944444 73.6944444,102.587963 C81.4814815,101.046296 89.1944444,100.680556 96.787037,98.0925926 Z" id="Shape" fill="#091F40" fill-rule="nonzero"></path>
                <path d="M147.175926,101.615741 C145.824074,102.49537 144.337963,103.180556 143.027778,104.125 C141.055556,105.699074 139.476852,107.615741 138.148148,109.75463 C138.106481,108.712963 137.884259,107.601852 138.027778,106.564815 C139.009259,104.851852 140.555556,103.310185 142.421296,102.592593 C143.902778,102.027778 145.606481,101.810185 147.175926,101.615741 Z" id="Shape" fill="#F2C418" fill-rule="nonzero"></path>
                <path d="M157.509259,101.907407 C158.916667,106.555556 158.912037,112.00463 156.657407,116.393519 C154.657407,120.291667 151.259259,123.49537 147.490741,125.671296 C148.606481,123.199074 149.296296,120.62037 148.935185,117.888889 C150.240741,117.87037 151.523148,117.921296 152.824074,118.064815 C153.055556,115.736111 152.638889,113.652778 151.819444,111.486111 C153.324074,111.606481 154.828704,111.703704 156.333333,111.800926 C156.087963,109.796296 155.828704,107.949074 154.398148,106.407407 C153.990741,105.407407 154.972222,105.041667 155.458333,104.291667 C156.12037,103.476852 156.773148,102.657407 157.509259,101.907407 Z" id="Shape" fill="#091F40" fill-rule="nonzero"></path>
                <path d="M92.0509259,102.652778 C95.875,106.296296 97.7638889,111.300926 101.703704,114.962963 C104.074074,117.199074 107.212963,118.393519 110.273148,119.361111 C116.25463,121.171296 122.606481,122.134259 128.810185,122.810185 C125.518519,125.231481 121.759259,127.101852 117.962963,128.592593 C113.967593,130.097222 109.314815,131.157407 105.134259,129.791667 L105.583333,129.305556 C102.962963,127.143519 99.9861111,124.291667 99.2638889,120.837963 C98.8981481,119.49537 99.337963,118.361111 99.6898148,117.087963 C98.375,117.143519 97.1111111,117.111111 95.8703704,117.62037 C94.7083333,118.064815 93.9305556,118.875 93.0555556,119.717593 C92.6851852,117.092593 92.4259259,114.634259 93.6851852,112.185185 C91.5138889,112.138889 90.2731481,112.509259 88.4722222,113.652778 C87.3055556,111.25463 86.6712963,109.060185 86.3935185,106.402778 C88.2916667,105.171296 90.212963,103.981481 92.0509259,102.652778 Z" id="Shape" fill="#F2C418" fill-rule="nonzero"></path>
                <path d="M127.787037,104.708333 C130.388889,104.87963 132.736111,105.097222 134.731481,106.972222 C135.069444,108.106481 134.986111,109.384259 135.060185,110.555556 C133.041667,108.125 130.560185,106.203704 127.787037,104.708333 Z" id="Shape" fill="#F2C418" fill-rule="nonzero"></path>
                <path d="M154.398148,106.407407 C155.828704,107.949074 156.087963,109.796296 156.333333,111.800926 C154.828704,111.703704 153.324074,111.606481 151.819444,111.486111 C152.638889,113.652778 153.055556,115.736111 152.824074,118.064815 C151.523148,117.921296 150.240741,117.87037 148.935185,117.888889 C149.296296,120.62037 148.606481,123.199074 147.490741,125.671296 C147.092593,125.856481 146.689815,126.037037 146.287037,126.212963 C144.134259,124.560185 141.925926,122.972222 139.814815,121.263889 C142.694444,120.092593 145.365741,118.777778 147.671296,116.652778 C150.550926,113.976852 152.268519,109.833333 153.597222,106.203704 C153.865741,106.268519 154.134259,106.337963 154.398148,106.407407 Z" id="Shape" fill="#F2C418" fill-rule="nonzero"></path>
                <path d="M135.722222,125.763889 C137.615741,127.796296 139.467593,129.814815 141.680556,131.518519 C140.634259,132.912037 139.541667,134.277778 138.37963,135.583333 C138.194444,133.856481 137.981481,132.134259 137.833333,130.407407 C136.574074,132.606481 135.009259,134.583333 132.986111,136.134259 C132.722222,134.240741 132.412037,132.351852 132.087963,130.467593 C130.569444,132.268519 129.476852,134.273148 127.569444,135.75463 C127.356481,134.662037 127.212963,133.574074 127.125,132.462963 C130.365741,130.634259 133.157407,128.467593 135.722222,125.763889 Z" id="Shape" fill="#FFFFFF" fill-rule="nonzero"></path>
                <path d="M86.6481481,126.578704 C87.3981481,127.333333 88.1203704,128.111111 88.8611111,128.87037 C87.1342593,131.162037 85.4907407,133.625 85.3148148,136.583333 C85.2546296,139.032407 86.6064815,141.569444 87.8888889,143.583333 C89.962963,146.731481 92.4212963,149.703704 95.0972222,152.361111 C95.0092593,154.023148 94.7824074,155.671296 94.5694444,157.324074 C91.6203704,153.606481 88.662037,149.912037 85.8240741,146.101852 C83.8842593,143.550926 82.2268519,140.305556 82.212963,137.037037 C81.9768519,133.305556 84.4768519,129.444444 86.6481481,126.578704 Z" id="Shape" fill="#F2C418" fill-rule="nonzero"></path>
                <path d="M153.055556,129.837963 C153.217593,136.12037 152.680556,142.398148 151.268519,148.527778 C148.203704,162.333333 140.916667,175.134259 131.027778,185.194444 C130.537037,185.675926 130.013889,186.115741 129.481481,186.550926 L129.435185,186.435185 C130.101852,185.828704 130.685185,185.185185 131.175926,184.425926 C134.814815,179.069444 138.212963,173.416667 140.731481,167.444444 C143.601852,165.009259 144.759259,161.509259 144.569444,157.810185 C147.412037,150.037037 149.439815,140.300926 149.865741,132.046296 L149.171296,132.384259 C150.518519,131.615741 151.773148,130.712963 153.055556,129.837963 Z" id="Shape" fill="#FFFFFF" fill-rule="nonzero"></path>
                <path d="M91.3611111,132.018519 C93.2222222,134.013889 94.5,137.092593 94.0277778,139.837963 C93.787037,141.018519 92.9583333,141.421296 92.0231481,142.00463 C90.7175926,140.634259 89.5740741,138.907407 89.1157407,137.055556 C88.8055556,135.037037 90.1296296,133.439815 91.3611111,132.018519 Z" id="Shape" fill="#FFFFFF" fill-rule="nonzero"></path>
                <path d="M149.171296,132.384259 L149.865741,132.046296 C149.439815,140.300926 147.412037,150.037037 144.569444,157.810185 C144.282407,155.680556 143.634259,154.314815 142.240741,152.703704 C144.375,146.486111 145.638889,140.171296 146.638889,133.689815 C147.481481,133.25463 148.324074,132.819444 149.171296,132.384259 Z" id="Shape" fill="#F2C418" fill-rule="nonzero"></path>
                <path d="M102.319444,135.893519 C105.699074,136.99537 109.157407,137.634259 112.675926,138.12963 L112.953704,138.416667 C112.055556,146.703704 110.273148,154.912037 107.726852,162.842593 C104.74537,171.865741 100.625,180.675926 94.5138889,188.023148 C94.2685185,188.351852 94.1157407,188.74537 94.0509259,189.199074 C93.8333333,189.328704 93.6111111,189.453704 93.3888889,189.578704 C94.7268519,186.037037 95.9027778,182.449074 96.8101852,178.773148 C100.305556,164.819444 101.731481,150.240741 102.319444,135.893519 Z" id="Shape" fill="#F2C418" fill-rule="nonzero"></path>
                <path d="M120.49537,135.791667 C118.62037,148.152778 115.62037,161.087963 109.689815,172.189815 C106.013889,179.00463 100.981481,185.467593 94.0509259,189.199074 C94.1157407,188.74537 94.2685185,188.351852 94.5138889,188.023148 C100.625,180.675926 104.74537,171.865741 107.726852,162.842593 C110.273148,154.912037 112.055556,146.703704 112.953704,138.416667 L112.675926,138.12963 C115.328704,138.074074 117.990741,136.611111 120.49537,135.791667 Z" id="Shape" fill="#FFFFFF" fill-rule="nonzero"></path>
                <path d="M141.62037,136.486111 C141.976852,138.199074 142.435185,140.189815 141.976852,141.902778 C141.268519,145.060185 140.462963,148.189815 139.421296,151.25463 C138.013889,151.023148 136.680556,150.962963 135.259259,151.041667 C135.435185,150.023148 135.643519,149.027778 136.037037,148.074074 C137.467593,144.564815 138.782407,141.125 140.546296,137.759259 C140.824074,137.217593 141.101852,136.824074 141.62037,136.486111 Z" id="Shape" fill="#FFFFFF" fill-rule="nonzero"></path>
                <path d="M96.1574074,138.314815 C96.0138889,140.990741 95.9259259,143.675926 95.6851852,146.347222 C95.1805556,145.791667 94.6712963,145.24537 94.1574074,144.699074 C93.9398148,142.268519 94.75,140.24537 96.1574074,138.314815 Z" id="Shape" fill="#FFFFFF" fill-rule="nonzero"></path>
                <path d="M125.935185,144.550926 C127.694444,146.782407 128.611111,149.037037 128.717593,151.898148 C126.944444,152.194444 125.166667,152.407407 123.375,152.555556 C124.069444,150.231481 124.384259,147.810185 125.055556,145.481481 C125.342593,145.166667 125.634259,144.856481 125.935185,144.550926 Z" id="Shape" fill="#FFFFFF" fill-rule="nonzero"></path>
                <path d="M132.324074,144.509259 C133.837963,146.527778 134.884259,148.555556 135.046296,151.12963 C133.018519,151.444444 130.976852,151.62037 128.949074,151.958333 C128.921296,149 130.393519,146.615741 132.324074,144.509259 Z" id="Shape" fill="#FFFFFF" fill-rule="nonzero"></path>
                <path d="M135.648148,155.740741 C136.902778,155.671296 138.740741,155.601852 139.347222,156.972222 C139.87037,158.666667 139.476852,160.990741 138.324074,162.384259 C137.185185,163.768519 135.393519,164.305556 133.712963,164.689815 C128.921296,165.638889 124.055556,166.166667 119.162037,166.037037 C120.305556,163.175926 121.24537,160.231481 122.134259,157.282407 C126.62037,156.652778 131.138889,156.185185 135.648148,155.740741 Z" id="Shape" fill="#F2C418" fill-rule="nonzero"></path>
                <path d="M140.731481,167.444444 C138.212963,173.416667 134.814815,179.069444 131.175926,184.425926 C130.685185,185.185185 130.101852,185.828704 129.435185,186.435185 C129.046296,185.462963 128.666667,184.486111 128.291667,183.50463 C131.75,179.277778 134.518519,174.555556 136.694444,169.555556 C138.12963,169.009259 139.481481,168.333333 140.731481,167.444444 Z" id="Shape" fill="#F2C418" fill-rule="nonzero"></path>
                <path d="M131.023148,170.935185 C128.287037,176.125 124.888889,180.907407 120.680556,185.00463 C119.768519,183.518519 118.87037,182.018519 117.949074,180.532407 C116.759259,181.865741 115.805556,183.236111 114.305556,184.199074 C112.888889,185.12037 111.472222,185.976852 109.916667,186.634259 C109.578704,185.884259 109.236111,185.138889 108.898148,184.393519 C111.916667,180.805556 114.342593,176.615741 116.430556,172.430556 C121.361111,172.319444 126.171296,171.837963 131.023148,170.935185 Z" id="Shape" fill="#FFFFFF" fill-rule="nonzero"></path>
            </g>
        </g>
    </g>
</svg>