<?xml version="1.0" encoding="UTF-8"?>
<svg width="200px" height="200px" viewBox="0 0 200 200" version="1.1" xmlns="http://www.w3.org/2000/svg" xmlns:xlink="http://www.w3.org/1999/xlink">
    <!-- Generator: Sketch 51.3 (57544) - http://www.bohemiancoding.com/sketch -->
    <title>marietta</title>
    <desc>Created with Sketch.</desc>
    <defs></defs>
    <g id="marietta" stroke="none" stroke-width="1" fill="none" fill-rule="evenodd">
        <g id="marietta_BGL" transform="translate(0.000000, 8.000000)">
            <g id="marietta">
                <g id="g10" transform="translate(99.576468, 91.908604) scale(-1, 1) rotate(-180.000000) translate(-99.576468, -91.908604) translate(0.000000, 0.509913)">
                    <g id="g12">
                        <path d="M111.093665,6.40467184 C108.55663,3.71645355 105.311495,2.77465258 102.624374,2.76413692 C99.9045413,2.752486 97.7937126,3.65030976 97.1019688,3.96186385 C88.7590001,7.72078412 80.3661951,12.4429215 77.5415907,14.8767243 C68.4433802,22.3964313 64.1857406,25.0068741 59.4809209,28.9206623 C53.9654428,33.5085879 47.9783476,39.8151938 37.3802365,52.3272897 L26.7510498,68.2795361 L26.2621149,69.8354304 C25.7513405,71.4574204 23.1995853,76.1119228 20.9153877,82.3099085 C20.1031901,84.5140601 19.2970536,86.9328543 18.5829893,89.5098163 C17.02113,94.3916609 13.9424373,104.181038 11.4384018,113.140034 C7.84518255,125.998386 3.91752105,141.865199 2.44205756,153.86729 L0.340114731,170.962694 L16.9253057,166.31483 C30.5028217,162.507834 43.227636,158.633491 55.8279557,155.594244 C57.5255661,155.184394 59.219713,154.789936 60.9139561,154.41472 C61.6204199,154.804367 62.3498777,155.176697 63.1004052,155.530746 C79.8532079,164.287703 110.701132,163.245758 126.075354,155.286375 C127.110564,154.848624 128.082277,154.39163 128.984718,153.919243 C143.644106,157.47802 160.153596,163.887473 178.855692,174.059666 L198.444837,182.113334 L193.487179,156.819949 L191.670751,155.597131 C182.641522,149.521523 180.737543,136.97585 184.880309,133.175589 L191.486991,127.116337 L172.477026,92.1646116 C173.005214,90.7106027 173.577658,89.2073348 174.216487,87.6412423 C178.41313,77.3645659 189.65998,45.6155471 189.65998,45.6155471 L170.635583,45.6155471 C170.815494,43.0084716 170.987708,40.1846369 171.122401,37.3378082 C171.386976,31.8087647 171.507238,26.1978472 171.309047,21.803783 C171.184937,19.054318 170.923248,16.6893047 170.562464,14.9056833 C170.345031,13.8281408 169.989057,12.3985691 169.347342,10.9351318 C168.823964,9.73819374 167.43278,6.90113028 164.269423,4.92395533 C158.029298,1.02259741 152.122056,0.181895901 146.821894,0.298398445 C143.091866,0.379951091 139.188661,1.09587992 134.616802,1.21689179 C130.759777,1.32099971 126.93835,1.9647736 123.245843,2.871997 C120.126742,3.63865884 117.112509,4.59286117 114.27434,5.46174522 C113.174669,5.79961251 112.111558,6.12769532 111.093665,6.40467184" id="path14" fill="#FFFFFF" fill-rule="nonzero"></path>
                        <path d="M111.002267,6.72975293 L111.16967,6.68353406 C112.137534,6.42083498 113.130413,6.1160444 114.181017,5.79359944 L115.416342,5.41477592 C117.95915,4.63156611 120.588546,3.82243755 123.315113,3.15272567 C127.442486,2.13765182 131.14269,1.5998523 134.624499,1.5066545 C137.002789,1.44426287 139.178078,1.22290486 141.282172,1.00907041 C143.215013,0.812140863 145.042025,0.627238426 146.828629,0.587778244 C153.393941,0.450228987 158.885559,1.89900502 164.116451,5.16936562 C165.619238,6.10815525 167.700242,7.89102621 169.081805,11.0504865 C169.588827,12.208075 169.98136,13.4876567 170.278647,14.9624467 C170.642317,16.7595374 170.898234,19.1294573 171.019457,21.8165788 C171.19552,25.7223816 171.13106,31.0853681 170.832811,37.3242427 C170.711588,39.9084204 170.548032,42.6916549 170.347917,45.5956318 L170.325789,45.905329 L189.250129,45.905329 C187.953229,49.558198 177.845496,77.9899254 173.949026,87.5323335 C173.356377,88.9836485 172.786819,90.467386 172.205716,92.0661896 L172.160498,92.1886638 L191.124283,127.055725 L184.685005,132.962967 C183.078312,134.436891 182.29998,137.185586 182.549161,140.505764 C182.905135,145.24214 185.446019,151.756462 191.509119,155.836692 L193.226453,156.993125 L198.057114,181.640947 L178.966333,173.791243 C161.269622,164.165517 144.466694,157.379886 129.053989,153.638312 L128.947197,153.612336 L128.850988,153.663327 C127.95528,154.131865 126.982606,154.587897 125.962789,155.019876 C111.263955,162.628095 80.6758924,164.390647 63.234617,155.273868 C62.4780282,154.916932 61.747897,154.544603 61.053748,154.16169 L60.9579237,154.107813 L60.8511316,154.131865 C59.2208675,154.493612 57.5078637,154.890956 55.7603207,155.312352 C46.699728,157.498224 37.6771379,160.08625 28.1238581,162.826286 C24.4217301,163.887473 20.668034,164.964053 16.8474725,166.035823 L0.680228501,170.567274 L2.72880893,153.902888 C4.27529401,141.32739 8.46979158,124.837142 11.7168311,113.217963 C14.2129774,104.286868 17.2631922,94.5860034 18.8589172,89.5981363 C19.5041919,87.2699712 20.2861799,84.855314 21.1866975,82.4098698 C22.5772083,78.6374129 24.0556543,75.4625111 25.1350247,73.1449289 C25.8306169,71.6506084 26.3335021,70.5713342 26.5383314,69.9211528 L27.0144704,68.4058587 L37.6211442,52.4877665 C48.0854283,40.1357627 54.0661738,33.802122 59.6662197,29.1438675 C61.6643875,27.4801227 63.5957861,26.0437201 65.8318791,24.3803602 C68.8019517,22.1705323 72.4981148,19.4206824 77.7257351,15.0991599 C80.5800681,12.6398616 89.1415277,7.86622349 97.2212682,4.22568857 C98.9395635,3.45112797 100.83296,3.04111344 102.623412,3.0535148 C104.463893,3.0602783 107.985148,3.53268446 110.882967,6.60272799 L111.002267,6.72975293 Z M147.708943,0 C147.413581,0 147.116294,0.00300653587 146.816122,0.00864379544 C145.00739,0.049232049 143.168833,0.235637369 141.222522,0.432941166 C139.129973,0.646405213 136.966229,0.865882331 134.609105,0.928268191 C131.084964,1.02259741 127.345314,1.56716043 123.176572,2.59088349 C120.434611,3.26547317 117.796557,4.07648743 115.246052,4.86043805 L114.011689,5.24039684 C113.025545,5.54255129 112.090392,5.82929303 111.18314,6.07959075 C108.16121,2.9651948 104.533163,2.48302342 102.625336,2.47438383 C100.745409,2.46874598 98.776008,2.89003622 96.9836316,3.69728869 C88.7251345,7.41862967 80.2857643,12.1302418 77.3525398,14.6576561 C72.140313,18.9656131 68.4512694,21.7094018 65.4864883,23.9158624 C63.2435644,25.584129 61.3066819,27.0261117 59.2960069,28.6981305 C53.6673869,33.3796677 47.6678806,39.7343781 37.159244,52.1404515 L26.4748333,68.1939099 L25.9858984,69.7486498 C25.7927105,70.3615982 25.2714493,71.4822424 24.6107811,72.9005577 C23.5268888,75.2280494 22.0423817,78.4153622 20.6435969,82.2095624 C19.737884,84.6707848 18.9506045,87.1000658 18.3041752,89.4327528 C16.7106631,94.4135004 13.6583317,104.12235 11.1598763,113.062104 C7.90756456,124.700525 3.70517784,141.220598 2.15493098,153.832655 L0,171.359075 L17.0034275,166.592874 C20.8255284,165.521104 24.5802828,164.444524 28.2835653,163.382375 C37.8301104,160.644263 46.8478901,158.058161 55.8955908,155.875175 C57.6026297,155.4634 59.2753219,155.074715 60.8703734,154.720665 C61.5460502,155.091071 62.2544382,155.451855 62.9771613,155.792435 C80.5564006,164.981371 111.405383,163.206312 126.209084,155.542292 C127.186569,155.130516 128.13904,154.685068 129.02224,154.22615 C144.357978,157.961952 161.078166,164.719682 178.718113,174.313658 L198.831598,182.585721 L193.748868,156.646773 L191.832382,155.356608 C185.934761,151.387981 183.456414,144.852493 183.126416,140.46247 C182.890704,137.320279 183.600727,134.742836 185.075614,133.389173 L191.8497,127.176948 L172.794516,92.1413289 C173.357339,90.5959214 173.910542,89.1584605 174.483949,87.7502472 C178.636335,77.5851735 189.820649,46.0293426 189.932251,45.7117562 L190.069831,45.32615 L170.946338,45.32615 C171.136832,42.5301197 171.292691,39.8489632 171.41199,37.3520472 C171.714087,31.0053221 171.777585,25.7704862 171.597674,21.7902175 C171.474526,19.0746181 171.215724,16.6731415 170.846281,14.8481502 C170.539374,13.3317016 170.136257,12.0137325 169.611917,10.8186225 C168.171666,7.5234784 165.994453,5.66092702 164.422396,4.67854503 C159.331008,1.49500357 153.998135,0 147.708943,0 Z" id="path16" fill="#FFFFFF" fill-rule="nonzero"></path>
                        <path d="M62.7099885,69.2157473 L53.3828964,71.9133556 L62.7099885,69.2157473 Z" id="path18" fill="#0F2752"></path>
                        <polyline id="path20" fill="#0F2752" fill-rule="nonzero" points="62.6295576 68.9376066 53.3024656 71.6355998 53.4633273 72.1914 62.7900345 69.4937917 62.6295576 68.9376066"></polyline>
                        <path d="M107.994769,10.9820818 C106.513148,8.76743382 104.376342,8.06315399 102.602246,8.05564006 C101.005174,8.04887656 99.7159714,8.5877921 99.2762956,8.78584825 C90.7165677,12.6428441 82.8563765,17.1973852 80.9126631,18.9561846 C71.8216683,26.469157 67.5666263,29.0772908 62.8651739,32.9880964 C57.7239494,37.2648817 52.1678711,43.0276172 41.6025673,55.502865 L31.5723788,70.5877859 L31.309343,71.4228814 C30.7891401,73.0765242 28.2073677,77.8245418 25.8806456,84.1405762 C23.3784381,90.9285164 20.928857,99.8852995 21.4204857,109.148316 C22.5005296,129.490778 37.284797,147.063379 78.9985821,150.739531 C114.818883,153.897115 133.802872,145.054532 153.19094,120.746329 C158.183233,114.487924 160.916535,108.807736 163.085089,103.055391 C165.074694,97.777357 166.622699,92.2397509 169.317517,85.6403806 C173.48626,75.4328786 182.172022,50.9070502 182.172022,50.9070502 L164.935191,50.9070502 C165.239212,47.1109259 165.59711,42.1347001 165.837632,37.0867023 C166.093549,31.7317012 166.214772,26.296654 166.022354,22.0417082 C165.913638,19.6161794 165.695243,17.5284409 165.376791,15.9553251 C165.19688,15.0691426 164.931342,14.0416289 164.499363,13.0554852 C164.131844,12.2148096 163.28328,10.5473127 161.464927,9.41008207 C156.322548,6.19685046 151.508242,5.48880886 146.938307,5.58877016 C143.215013,5.67070187 139.320467,6.38550698 134.757267,6.50651884 C131.281231,6.60010148 127.837905,7.19163381 124.509069,8.01053721 C121.490026,8.75315638 118.57104,9.68066067 115.824269,10.5213362 C113.472917,11.2422314 111.272614,11.9039579 109.272426,12.2302031 C109.056918,12.2655119 108.853916,12.2937011 108.663422,12.3166951 C108.490246,11.842384 108.269927,11.3921252 107.994769,10.9820818" id="path22" fill="#0F2752" fill-rule="nonzero"></path>
                        <path d="M107.335736,14.4911181 L108.908755,14.2968718 C109.123302,14.2705105 109.353242,14.2389539 109.597613,14.1987385 C111.655527,13.8627761 113.807725,13.2257754 116.408259,12.429356 L117.532943,12.0829069 C119.940096,11.3428661 122.429989,10.5762716 124.986266,9.94783348 C128.620086,9.05418519 131.833471,8.5810286 134.811144,8.50098258 C137.248122,8.43558923 139.450349,8.21235514 141.58042,7.99588456 C143.476702,7.80271583 145.266192,7.62157325 146.981602,7.58435955 C152.191327,7.46673424 156.330244,8.55283932 160.40855,11.1016698 C161.37449,11.7067291 162.136467,12.633127 162.672351,13.8560415 C162.977334,14.5535578 163.222668,15.3694114 163.420859,16.3506485 C163.714297,17.8016748 163.925957,19.7999389 164.029863,22.1310865 C164.199191,25.882185 164.136655,30.8812123 163.845141,36.9912629 C163.64695,41.1583697 163.343891,45.7868956 162.946548,50.747343 L162.774333,52.9014659 L179.344435,52.9014659 C176.978652,59.5305648 170.765465,76.8192525 167.470302,84.8861971 C165.833784,88.8953285 164.636942,92.4502565 163.479546,95.8874245 C162.721418,98.1400655 162.00466,100.26725 161.217669,102.352102 C159.404127,107.165446 156.844963,112.965895 151.630428,119.502345 C132.023965,144.085706 113.059218,151.743954 79.1737789,148.752812 C43.9086044,145.645256 24.6269442,131.913325 23.4126886,109.042486 C23.0296799,101.828724 24.48975,93.6825033 27.7522022,84.830492 C29.1423282,81.0573616 30.6230832,77.8591771 31.7038967,75.5253356 C32.4390308,73.9367302 32.9703939,72.7901096 33.2124562,72.021206 L33.3898658,71.4563621 L43.1994468,56.7036514 C53.1574784,44.9488177 58.8386286,38.9331483 64.1410996,34.5217665 C66.1017458,32.8911176 68.0131329,31.4690502 70.2270016,29.8218534 C73.2106397,27.6022121 76.9241204,24.8403361 82.1832973,20.493703 C83.8955315,18.9475258 91.479891,14.4873659 100.095997,10.6040761 C100.558763,10.3943401 101.506424,10.0402905 102.593587,10.0501038 C103.681712,10.0550105 105.213362,10.4127161 106.336123,12.0915657 L106.339009,12.0945482 C106.512186,12.3523887 106.664196,12.6582376 106.79023,13.0024739 L107.335736,14.4911181 Z M147.784948,3.58491641 C147.477079,3.58491641 147.179792,3.58867818 146.894051,3.59431604 C145.019897,3.63565711 143.15344,3.82543928 141.177304,4.02650678 C139.120352,4.23621385 136.99413,4.45268444 134.705314,4.51319037 C131.439014,4.60075032 127.947584,5.11073577 124.032834,6.07282725 C121.364954,6.72975293 118.820222,7.51295312 116.359192,8.27022494 L115.240279,8.61448052 C113.162162,9.25149091 111.3948,9.778794 109.801576,10.104943 C109.75251,10.024897 109.701519,9.9460055 109.650528,9.87009649 C108.037101,7.46109639 105.471203,6.07282725 102.609943,6.06117632 C100.833922,6.0784651 99.3811635,6.54898556 98.4565936,6.96764929 C89.7958461,10.8704792 81.7007122,15.5531709 79.574009,17.4773538 C74.4609738,21.698915 70.7930001,24.4284647 67.8458252,26.620975 C65.5852951,28.3028071 63.6333077,29.7546032 61.5900178,31.454715 C56.0790616,36.0389847 50.2489797,42.206857 40.0805386,54.2138549 L39.9414202,54.3987688 L29.7548918,69.7189211 L29.4065185,70.8234984 C29.2419046,71.347742 28.70525,72.5060039 28.0836427,73.8491799 C26.974255,76.2445952 25.4544391,79.5273476 24.0090891,83.450949 C20.5575859,92.8144081 19.0167002,101.495841 19.4285715,109.254146 C20.3587216,126.780567 31.4186366,148.548849 78.8234814,152.727212 C114.290695,155.854009 134.15596,147.809962 154.75049,121.990313 C160.310417,115.020923 163.026401,108.863537 164.951546,103.759642 C165.762589,101.607443 166.48993,99.4475478 167.260566,97.1606564 C168.397758,93.7820797 169.575358,90.2877635 171.164733,86.39543 C175.303651,76.2599887 183.96536,51.8184395 184.051948,51.57301 L184.993836,48.9125384 L167.0922,48.9125384 C167.410652,44.7188778 167.658872,40.7810374 167.830124,37.1810835 C168.12741,30.949617 168.189946,25.8246519 168.015808,21.9510792 C167.900357,19.3823911 167.669455,17.2312508 167.331761,15.5599055 C167.075844,14.2975453 166.746809,13.2171165 166.327337,12.256853 C165.463379,10.283892 164.182835,8.75690854 162.523227,7.71890804 C156.804556,4.14563294 151.510166,3.58491641 147.784948,3.58491641 Z" id="path24" fill="#0F2752" fill-rule="nonzero"></path>
                        <path d="M135.244086,140.911766 C135.244086,140.911766 125.93104,132.788828 119.33013,128.484431 C112.989948,124.350324 103.908766,119.361879 95.2718784,118.570078 C86.3593516,117.753262 76.2536389,121.249503 69.0913489,124.369566 C61.6241721,127.622397 52.0818601,133.522904 52.0818601,133.522904 L53.3156462,137.989895 C60.2765705,163.18226 121.55641,157.641575 131.452483,145.547123 L135.244086,140.911766" id="path26" fill="#0F2752" fill-rule="nonzero"></path>
                        <path d="M53.0120102,133.891385 C55.0838742,132.633931 63.057977,127.868692 69.4099936,125.102679 C79.6040262,120.660703 88.2831497,118.730747 95.1993367,119.365728 C101.905692,119.980504 109.877582,123.272781 118.894303,129.154046 C124.429215,132.762852 131.991254,139.169419 134.133832,141.007976 L130.833858,145.041063 C124.773644,152.448205 97.0913858,157.811865 75.9935856,153.355458 C67.4651256,151.554422 56.7415578,147.39049 54.0857043,137.77631 L53.0120102,133.891385 Z M92.5592615,117.650319 C85.8899471,117.650319 77.9061272,119.658204 68.7722231,123.637414 C61.3390081,126.875814 51.7575391,132.78498 51.6617148,132.843667 L51.1524798,133.158271 L52.5455882,138.202517 C54.8173748,146.424551 62.8117778,152.204796 75.6632033,154.917894 C96.0328928,159.220367 125.025712,154.661016 132.070146,146.052221 L136.352415,140.817481 L135.769387,140.309497 C135.675102,140.227719 126.337043,132.099971 119.765958,127.815777 C110.52988,121.792122 102.313618,118.413257 95.3448049,117.774428 C94.4435176,117.691689 93.5145221,117.650319 92.5592615,117.650319 Z" id="path28" fill="#0F2752" fill-rule="nonzero"></path>
                        <path d="M7.69373011,154.512854 L6.56176214,163.723917 L15.4967923,161.218631 C29.1401153,157.394318 41.9265035,153.50362 54.587435,150.449941 C66.9168297,147.476117 79.1211525,145.299866 91.9138905,144.826517 C117.050936,143.896174 144.804389,149.53403 181.12238,169.28673 L191.359995,173.479525 L188.715206,159.987154 C178.825867,153.331405 173.13221,136.771887 181.303253,129.276232 L184.862991,126.011856 L164.898631,89.304987 L160.295986,90.4016751 C146.489973,93.6923166 58.971301,89.9344835 29.3697666,88.2771847 L24.6269442,88.0114551 C24.6269442,88.0114551 20.0186222,102.097148 16.534408,114.563929 C13.0093048,127.177911 9.14136992,142.73974 7.69373011,154.512854" id="path30" fill="#0F2752" fill-rule="nonzero"></path>
                        <path d="M9.6735412,154.756263 C11.1669958,142.609858 15.2735871,126.487129 18.4559933,115.100776 C21.2407671,105.136395 24.7874211,94.0064395 26.0501661,90.0886106 L29.2576829,90.2690027 C51.7834194,91.5298236 145.984875,95.8623139 160.758752,92.3424061 L163.874966,91.5993828 L182.366364,125.59527 L179.955363,127.807118 C176.6602,130.829048 175.065052,135.404755 175.461434,140.69241 C176.036764,148.337188 180.701946,156.623682 186.912246,161.158982 L188.691153,170.230542 L181.978641,167.481847 C149.085696,149.607149 120.440384,141.777649 91.8402905,142.833063 C80.411702,143.256383 68.4261588,145.060305 54.1195699,148.510365 C44.968733,150.718365 35.8720618,153.326595 26.2410451,156.087797 C22.5366081,157.149946 18.7814688,158.226527 14.9585983,159.298297 L8.90686012,160.995426 L9.6735412,154.756263 Z M23.2078593,85.9339147 L22.7309505,87.3913871 C22.6846739,87.5323335 18.0693287,101.66132 14.6133037,114.027082 C11.3944342,125.545241 7.2378623,141.876744 5.71429424,154.269445 L4.21666416,166.452409 L16.0353711,163.139928 C19.8656497,162.066234 23.6291591,160.986767 27.3407157,159.922694 C36.929689,157.173037 45.9868182,154.576352 55.0553001,152.388556 C69.0962555,149.001994 80.8318474,147.232707 91.9875867,146.81997 C119.873712,145.793419 147.89174,153.483416 180.169909,171.038699 L180.366176,171.132022 L194.029799,176.728508 L190.514317,158.793199 L189.829308,158.332357 C184.222239,154.559034 179.950552,147.181717 179.440644,140.393199 C179.225135,137.532901 179.60901,133.538297 182.652105,130.746308 L187.360581,126.427479 L165.921334,87.0106875 L159.834182,88.461329 C146.552509,91.6275721 59.6388001,87.974607 29.4809844,86.2853667 L23.2078593,85.9339147 Z" id="path32" fill="#0F2752" fill-rule="nonzero"></path>
                        <path d="M166.315792,154.326208 L169.172242,155.430689 L174.152989,144.543662 C174.152989,144.543662 160.464352,137.254857 145.667385,131.356274 C131.119599,125.557748 112.06634,119.367652 95.9919077,119.144447 C79.6115306,118.916431 60.0615431,124.79481 45.1116036,130.398031 C29.906806,136.095536 15.854979,143.240028 15.854979,143.240028 L20.6259906,154.218454 L23.5032214,153.168812 C23.7535576,153.077413 67.6891967,137.125936 96.2076086,137.557916 C123.854847,137.976425 166.077193,154.233847 166.315792,154.326208" id="path34" fill="#0F2752" fill-rule="nonzero"></path>
                        <path d="M16.2293287,143.374721 C18.1616895,142.404932 31.2815386,135.889649 45.213008,130.668378 C65.5992454,123.02841 82.6748298,119.261822 95.9877707,119.434036 C109.04441,119.614909 125.722266,123.717267 145.560592,131.625659 C159.109727,137.025879 171.878605,143.674893 173.775849,144.672582 L169.023117,155.06317 L166.42066,154.056822 C165.982908,153.886532 123.899103,137.687798 96.2120342,137.268326 C67.8954692,136.826726 23.8456297,152.736833 23.4040297,152.89654 L20.7827153,153.853821 L16.2293287,143.374721 Z M95.0493466,118.849085 C81.8134693,118.849085 64.9859121,122.640687 45.0101029,130.126721 C29.9638581,135.764577 15.8644074,142.91003 15.7238459,142.981225 L15.4806292,143.105335 L20.4688811,154.584048 L23.6020282,153.440122 C24.0365087,153.282339 66.7988773,137.839808 95.0670491,137.838846 C95.4503464,137.838846 95.8258507,137.841733 96.2034716,137.847505 C123.793273,138.265053 165.79049,154.433 166.211886,154.595594 L169.321366,155.79917 L174.529167,144.416666 L174.288644,144.288708 C174.152027,144.215589 160.417209,136.924859 145.775139,131.08785 C125.870428,123.153482 109.123302,119.037655 95.9964295,118.854857 C95.6825953,118.851009 95.366933,118.849085 95.0493466,118.849085 Z" id="path36" fill="#0F2752" fill-rule="nonzero"></path>
                        <path d="M78.0203275,139.947751 C75.0393832,139.355102 71.3526487,138.53059 66.8653578,137.424185 L39.5017444,130.673189 L61.5291174,148.255411 C77.7245805,161.182072 123.89333,157.840728 130.655871,144.362789 L134.222344,137.25197 L126.450569,135.552917 C101.942251,130.195029 88.6067011,133.753806 87.693099,134.012608 L74.6072117,137.73013 L78.0203275,139.947751" id="path38" fill="#0F2752" fill-rule="nonzero"></path>
                        <path d="M93.7287799,156.101267 C81.2742171,156.101267 68.7169991,153.621957 61.7095096,148.030281 L40.7134024,131.270648 L66.7957986,137.704153 C71.0489164,138.753795 74.8067495,139.604284 77.9639489,140.231568 L78.1785915,139.705304 L75.2986669,137.834036 L87.7720867,134.290653 C88.3331784,134.13287 101.78062,130.456718 126.388033,135.835772 L133.796138,137.454972 L130.397069,144.232906 C128.22659,148.559432 121.725738,152.105701 112.093278,154.22134 C106.512186,155.446082 100.133519,156.101267 93.7287799,156.101267 Z M39.5713036,130.392258 L39.3213522,130.89928 L61.3487253,148.481502 C72.094806,157.058548 95.652578,158.422793 112.217388,154.786088 C122.023986,152.632927 128.66338,148.976979 130.913712,144.492671 L134.647589,137.048969 L126.512143,135.270062 C101.769075,129.860222 88.1813604,133.573895 87.6142075,133.734564 L73.9156604,137.625262 L76.5854642,139.359913 C73.7657665,138.773037 70.5280401,138.02934 66.9345322,137.142292 L39.5713036,130.392258 Z" id="path40" fill="#0F2752" fill-rule="nonzero"></path>
                        <path d="M116.958575,73.4816609 C115.870449,72.8686162 114.969932,72.1482021 114.018423,71.5776819 C113.919328,71.3101242 113.716327,70.6145321 113.744227,69.8181128 C113.800991,68.2017991 114.32052,66.0629735 115.143108,63.712584 C116.770005,59.06193 119.239694,54.5314413 119.746716,53.6790282 L121.227375,51.1870189 L111.989372,44.1483576 C111.989372,44.1483576 106.918188,49.4101321 103.419061,53.8741404 C100.072907,58.1448644 95.8197895,64.2207607 93.8099804,70.0808599 C90.7019439,79.1462631 93.2079036,89.5380056 104.391736,91.9541059 C113.281461,93.8741519 125.449994,89.7477415 139.526355,79.9547086 L142.02202,78.2191918 L135.890611,67.9938911 L133.184248,69.3772824 C124.512917,73.8089644 120.529858,74.2437336 118.7827,74.0712306 C118.030345,73.9964761 117.515626,73.7953989 116.958575,73.4816609" id="path42" fill="#0F2752" fill-rule="nonzero"></path>
                        <path d="M108.912604,92.1263203 C107.347281,92.1263203 105.859888,91.9751757 104.452348,91.6715397 C100.051741,90.7210895 96.704625,88.407933 94.7713022,84.9846191 C92.4922999,80.945759 92.2416751,75.5482334 94.0838878,70.1747601 C95.669126,65.5522954 98.8866485,60.1287933 103.646115,54.0522235 C106.73058,50.1192897 111.090779,45.5088511 112.020159,44.5361767 L120.846387,51.2610999 L119.497534,53.5305775 C118.933749,54.4795845 116.495809,58.969473 114.869874,63.6171446 C113.999181,66.105498 113.509477,68.244997 113.454638,69.807626 C113.422889,70.7464348 113.692274,71.5295773 113.747113,71.6777394 L113.782711,71.7731789 L113.869299,71.8258053 C114.282036,72.0730628 114.685153,72.3492792 115.098852,72.633 C115.637623,73.0024431 116.194674,73.3835276 116.817147,73.7326706 C117.478104,74.1070204 118.039004,74.2888557 118.753838,74.3591845 C120.789623,74.5669963 124.967024,73.9028646 133.315092,69.635123 L135.781895,68.3739172 L141.635259,78.1360671 L139.361837,79.7171682 C127.597382,87.9006221 117.188515,92.1263203 108.912604,92.1263203 Z M111.96051,43.7627513 L111.781561,43.9472805 C111.73057,44.0002917 106.659386,49.2714947 103.192008,53.6951913 C98.3911714,59.8217899 95.1421885,65.3038833 93.5363616,69.9872484 C91.6407527,75.5174465 91.906771,81.0869941 94.2676473,85.2691095 C96.2841911,88.8408741 99.7631138,91.2506246 104.330162,92.2371532 C113.338225,94.1830795 125.568332,90.0172234 139.691834,80.192249 L142.409743,78.3006809 L135.999327,67.6129029 L133.052441,69.1195381 C124.830407,73.3218575 120.769419,73.974348 118.810601,73.7837576 C118.076525,73.7104463 117.596442,73.5086957 117.100964,73.2294005 C116.501581,72.8908405 115.954151,72.5176452 115.425963,72.1549368 C115.032468,71.8855511 114.648593,71.622804 114.257984,71.3842053 C114.177168,71.1399302 114.008802,70.5348709 114.032855,69.8286958 C114.086732,68.322734 114.564891,66.2419225 115.416342,63.8087932 C117.010528,59.2524241 119.471558,54.7073116 119.995898,53.8260358 L121.607401,51.113034 L111.96051,43.7627513 Z" id="path44" fill="#0F2752" fill-rule="nonzero"></path>
                        <path d="M161.970025,18.3654605 C160.21998,12.3948169 154.624456,9.34393828 146.808425,9.89790093 C139.426297,10.4213749 136.346642,9.81708524 127.617586,11.5210455 C123.128468,12.3974146 117.14041,14.1938318 107.728269,17.310912 C98.5595374,20.3463106 93.3830042,24.6671596 90.6879935,29.130302 C89.3643481,31.3228123 88.7533238,33.3703354 88.4996203,34.99906 C88.4109154,35.5658281 88.4410289,36.1998464 88.4639267,36.5872807 C88.4913463,37.0385978 88.5425296,37.5937246 88.6119926,38.2153319 C88.740528,39.3660895 88.9337159,40.7599676 89.1344082,42.1080502 C89.5293468,44.7583236 91.6226654,56.9700545 91.6226654,56.9700545 L96.0640645,48.139113 C96.1584457,47.9516014 100.196055,39.9392074 100.40098,39.62393 C100.707888,39.1541407 101.23319,38.4231436 102.019218,37.5696723 C103.582617,35.8717732 106.188923,33.6682951 110.222972,32.0252353 C124.899678,26.0486268 137.106695,24.7121855 148.792258,25.2210357 C149.545575,25.2537468 149.824582,25.9900354 149.835165,26.0429505 L154.338715,47.5532955 C154.338715,47.5532955 159.170339,33.9783772 160.145899,31.1457875 C160.637528,29.7181399 161.133005,28.2516239 161.517842,27.066712 C161.718919,26.4477023 161.889209,25.9023889 162.015243,25.4713719 C162.200927,24.8422603 162.302908,24.3754535 162.334657,24.1409918 C162.522265,22.7842504 162.640602,20.6541799 161.970025,18.3654605" id="path46" fill="#0F2752" fill-rule="nonzero"></path>
                        <path d="M91.7594748,56.05347 C91.2746769,53.2160698 89.7491847,44.2697735 89.420438,42.0655257 C89.1888626,40.5078034 89.013762,39.2022453 88.8994655,38.1833904 C88.8303873,37.5677481 88.7795889,37.0164697 88.752939,36.5692895 C88.7360061,36.2844143 88.6961756,35.6147024 88.7860349,35.0441821 C89.0918838,33.0748771 89.8157614,31.1353007 90.9357321,29.2795224 C93.9929702,24.2176705 99.6736393,20.2828126 107.818706,17.5852043 C117.893728,14.2487672 123.460389,12.6286052 127.673388,11.8047662 C133.591212,10.6494868 136.903693,10.558954 140.737628,10.4552405 C142.570412,10.4048269 144.465732,10.3529702 146.828629,10.1865284 C154.563845,9.6430429 159.992927,12.6477508 161.69198,18.4469496 L161.970025,18.3654605 L161.69198,18.4469496 C162.204775,20.1964167 162.325036,22.0983754 162.048916,24.1015461 C162.019091,24.3111858 161.923844,24.7596166 161.738161,25.3894017 C161.611165,25.8185907 161.442799,26.3613065 161.242684,26.9768527 C160.858809,28.1614759 160.363332,29.6267412 159.872665,31.0515025 C159.06066,33.4074721 155.534595,43.3286556 154.410872,46.4873944 L150.11802,25.9843591 C150.083384,25.8179173 149.712017,24.9711806 148.804765,24.9317348 C135.10362,24.3371623 123.168875,26.440198 110.114256,31.7576776 C105.96668,33.4462444 103.307459,35.7436226 101.805634,37.3723473 C101.005174,38.2431363 100.468327,38.9917397 100.158533,39.4660508 C99.9391766,39.8035525 95.8464394,47.9275491 95.8055505,48.0095193 L91.7594748,56.05347 Z M148.603688,9.54387051 C148.012964,9.54387051 147.407808,9.56529628 146.787259,9.60926386 C144.437832,9.77571531 142.549246,9.82757204 140.722234,9.87683113 C136.862323,9.9816991 133.527714,10.0722319 127.562747,11.2373247 C123.323772,12.0655892 117.736907,13.690658 107.636871,17.0365235 C99.3561492,19.7777145 93.5709007,23.7963706 90.4403512,28.9810816 C89.2809348,30.9015124 88.5319465,32.9110329 88.2136867,34.9547076 C88.1260401,35.5154145 88.1467251,36.1302872 88.1749144,36.6045983 C88.2027188,37.0596676 88.2545756,37.619701 88.3245196,38.248043 C88.4391047,39.272478 88.6153599,40.5860215 88.8483784,42.1500936 C89.2392762,44.7737171 91.3164317,56.8960697 91.3374053,57.0181591 L91.485856,57.8863504 L96.3226747,48.2691878 C96.8999296,47.1195847 100.451971,40.0827514 100.643428,39.7813282 C100.940714,39.3266437 101.458319,38.6058448 102.232803,37.7658427 C103.692295,36.1783918 106.28417,33.9415291 110.332651,32.2924081 C123.306454,27.0095638 135.155573,24.9132626 148.780713,25.5096632 C149.352195,25.5348699 149.554234,26.114049 149.556158,26.1196292 L154.266558,48.6201588 L154.610987,47.650563 C154.660054,47.5149081 159.455118,34.0418752 160.419133,31.2390141 C160.911724,29.8105969 161.408163,28.3422529 161.793,27.155032 C161.995039,26.5345792 162.166291,25.9851288 162.293287,25.5533421 C162.457805,24.9914807 162.580953,24.4784935 162.621361,24.1804376 C162.909026,22.0965474 162.782992,20.1126186 162.248069,18.2834903 C160.602893,12.6698789 155.676022,9.54387051 148.603688,9.54387051 Z" id="path48" fill="#0F2752" fill-rule="nonzero"></path>
                        <path d="M61.8526688,92.1867397 C68.1596595,93.5574314 73.6338638,91.3164317 77.0116708,88.6803973 C78.6340456,87.4139 80.2628665,85.6809809 81.1625182,83.619315 C81.7469888,82.2791216 83.4949166,75.6154836 76.875631,73.6056745 C77.1210606,72.754416 78.0425518,71.79117 78.9370082,70.8031982 L80.7277491,68.8289865 L74.1430988,59.9247337 L71.729981,61.0582698 C65.3019592,64.0772167 58.9145376,69.0202503 55.4638041,74.0877785 C51.9115699,79.3041423 49.9423611,89.5973666 61.8526688,92.1867397" id="path50" fill="#0F2752" fill-rule="nonzero"></path>
                        <path d="M61.9143388,91.9037886 C57.6322621,90.9728688 54.856532,88.9836485 53.6632499,85.9926023 C52.1442037,82.1817579 53.5930172,77.3491724 55.7031725,74.2505644 C59.0036273,69.4032589 65.191511,64.4484878 71.85284,61.3197663 L74.0513153,60.2874422 L80.354169,68.8098409 L78.510032,70.842644 C77.6520388,71.7862633 76.8417654,72.6773524 76.5974904,73.5259171 L76.5185989,73.7991511 L76.7918329,73.8829493 C78.8073183,74.4936849 80.1993685,75.6079793 80.9295959,77.1886956 C82.0713098,79.664157 81.2685407,82.6523169 80.8968848,83.5038641 C79.9261345,85.7302399 78.1511719,87.4240982 76.8334914,88.4519005 C74.816178,90.0265557 69.3269651,93.5123093 61.9143388,91.9037886 Z M74.2347861,59.5621214 L71.6066408,60.7955227 C64.8577615,63.9666724 58.5801146,68.9973525 55.2248206,73.9250889 C53.1894198,76.9135374 51.4181132,81.9240136 53.1258256,86.206379 C54.3950167,89.3877269 57.3102501,91.4952845 61.7914798,92.4694021 C69.4415502,94.1312227 75.1085576,90.5320385 77.1894653,88.9085091 C78.5600608,87.8385672 80.407565,86.0733218 81.4278631,83.7346698 C81.8548393,82.7552607 82.6921475,79.6273089 81.4546092,76.9462485 C80.689073,75.2874104 79.2755682,74.1021137 77.2521936,73.4218188 C77.5516927,72.7570136 78.2548854,71.9835883 78.9384514,71.2330607 L81.1013292,68.8474587 L74.2347861,59.5621214 Z" id="path52" fill="#0F2752" fill-rule="nonzero"></path>
                        <path d="M134.800561,38.3498322 C134.913126,38.1198924 135.117089,37.8052885 135.43458,37.3512775 C136.274485,36.1476048 137.426109,35.0325408 137.806135,34.7172634 L139.946789,32.9392222 L134.135756,23.1913113 C134.135756,23.1913113 128.381487,25.4973484 125.24122,27.4294205 C123.698026,28.3787162 121.854658,29.6688808 120.340326,31.2649906 C118.965498,32.7140928 116.914319,35.4098731 117.074988,39.0628382 C117.132713,40.3818657 118.327631,43.4587304 121.743056,44.9450655 C122.359756,45.2126232 123.179458,45.5501249 124.000122,45.8812768 C125.552938,46.5084642 145.804964,54.3600928 145.804964,54.3600928 L134.800561,38.3498322" id="path54" fill="#0F2752" fill-rule="nonzero"></path>
                        <path d="M145.03529,53.7511851 C141.132085,52.2378152 125.455767,46.1563387 124.107877,45.6129494 C123.290099,45.2829521 122.473283,44.9462201 121.858507,44.6793359 C118.587396,43.2558253 117.417492,40.2721872 117.363615,39.0504273 C117.245278,36.3689821 118.317048,33.816361 120.550062,31.4641435 C121.773843,30.1739789 123.403626,28.9003622 125.392269,27.6755235 C128.124609,25.9948459 132.914862,24.0022582 134.014533,23.5528653 L139.571573,32.8745696 L137.621414,34.493962 C137.215411,34.8314637 136.039735,35.9773147 135.195981,37.1859902 C134.843855,37.6910882 134.654323,37.9909721 134.540797,38.2228362 L134.466716,38.3738845 L145.03529,53.7511851 Z M134.257942,22.830527 L134.028002,22.922984 C133.970276,22.9458818 128.216007,25.2605777 125.090172,27.183991 C123.057273,28.4327857 121.389006,29.7391135 120.13059,31.0657414 C117.818685,33.5018533 116.662251,36.2720033 116.785398,39.0763075 C116.855631,40.662604 118.232384,43.7327341 121.627605,45.2096407 C122.24623,45.477968 123.068818,45.8184522 123.891406,46.1496041 C125.428828,46.7700569 145.497094,54.5517414 145.700096,54.6294784 L146.574637,54.9681346 L135.139218,38.3318411 C135.246972,38.1412508 135.414376,37.8853345 135.672216,37.516661 C136.480373,36.3565711 137.603134,35.2606527 137.991819,34.9393142 L140.322004,33.0034899 L140.19597,32.7907715 L134.257942,22.830527 Z" id="path56" fill="#0F2752" fill-rule="nonzero"></path>
                        <path d="M62.7099885,69.2157473 L53.3828964,71.9133556 L62.7099885,69.2157473 Z" id="path58" fill="#BDBCBC"></path>
                        <path d="M85.0248345,23.5674891 C66.7590467,38.673095 67.5689353,34.3744703 46.535499,59.2092262 L37.2055206,73.2786596 C35.0806454,80.0306176 -0.415278128,137.535787 79.5412979,144.583107 C113.389215,147.565591 130.320101,139.509999 148.358354,116.892191 C157.327933,105.647265 158.158218,96.619961 163.595959,83.3035566 C167.723332,73.1960159 173.42661,57.088488 173.42661,57.088488 L158.189005,57.088488 C158.189005,57.088488 162.122035,17.1098349 158.189005,14.6515949 C150.467259,9.82574407 144.026057,12.4436912 134.921785,12.686042 C122.791735,13.0085351 111.163898,20.5504664 104.28302,18.0922265 C101.8268,17.2157611 104.192583,13.3501738 101.815255,14.4208854 C92.8327841,18.4691739 85.7328376,22.8583315 85.0248345,23.5674891" id="path60" fill="#FFFFFF" fill-rule="nonzero"></path>
                        <path d="M107.43868,20.582023 C110.945503,20.582023 114.948766,19.3485255 119.38978,17.9786997 C124.18773,16.4987144 129.625471,14.8229434 134.9747,14.6805539 C137.407829,14.6151317 139.605246,14.3919264 141.730506,14.1746862 C147.406846,13.598201 151.900775,13.1392833 156.97677,16.2477047 C158.690255,19.0900115 157.920582,39.4370918 156.203248,56.8923175 L155.988702,59.0829036 L170.595175,59.0829036 C168.79895,64.0809689 164.813967,75.0442899 161.748744,82.5486034 C160.095871,86.5965071 158.885559,90.1844349 157.716618,93.6546988 C155.112237,101.376541 152.862867,108.046721 146.798804,115.648206 C128.491165,138.602747 111.567014,145.403772 79.7163985,142.595427 C55.6660357,140.475939 40.0718798,133.54407 33.3676415,121.991275 C24.2853055,106.341895 33.5957534,86.1052632 37.5718851,77.4637575 C38.2337078,76.0243725 38.7336105,74.9382674 39.0108853,74.1656117 L48.1331481,60.4088581 C62.9091414,42.9690259 66.6936245,40.1470191 74.2200661,34.5371599 C77.24315,32.2838455 81.0055049,29.479445 86.2962384,25.103853 L86.4112083,25.0019675 C87.1500946,24.3803602 93.1413268,20.6485035 101.13217,16.9271337 C101.330361,18.0459499 101.904729,19.362091 103.61148,19.972057 C104.811208,20.4000915 106.088865,20.582023 107.43868,20.582023 Z M147.718564,9.77013518 C145.600038,9.77013518 143.484399,9.98660576 141.326428,10.2060588 C139.274287,10.4157948 137.151913,10.6322654 134.86887,10.6927809 C128.973173,10.8487359 123.256426,12.6112875 118.213142,14.1656425 C112.805226,15.8350637 108.128499,17.2782009 105.055579,16.2488592 C105.020944,16.0507646 105.016133,15.7061434 105.013247,15.4839965 C105.003626,14.6921952 104.985346,13.3663369 103.810633,12.6187918 C103.026528,12.1186005 102.078868,12.1136938 100.996515,12.6014742 C92.5543548,16.4066422 85.1450959,20.8101349 83.7279352,22.0510405 C78.5285042,26.3496652 74.818006,29.1156782 71.8359072,31.3389754 C64.0531644,37.1397136 60.1468806,40.0519645 45.0134702,57.9198312 L44.8729087,58.1065732 L35.387264,72.4109493 L35.3027923,72.6803349 C35.1325021,73.2208379 34.5830517,74.4140238 33.9472054,75.7966454 C29.7124636,84.9996277 19.7961867,106.554518 29.9172928,123.99435 C37.3107734,136.734365 53.9473555,144.330077 79.3661972,146.569826 C112.805226,149.519599 130.612577,142.343359 149.917905,118.136175 C156.418757,109.986298 158.772033,103.008248 161.496676,94.9290852 C162.647337,91.5174126 163.837444,87.9896156 165.443175,84.0578363 C169.540723,74.0224525 175.248811,57.9159829 175.306537,57.7544477 L176.248424,55.0933027 L160.376801,55.0933027 C160.693329,51.5651208 161.303295,44.270447 161.655421,36.8875494 C162.69448,15.1164775 160.535546,13.766567 159.246344,12.9604305 C155.221915,10.4443689 151.464948,9.77013518 147.718564,9.77013518 Z" id="path62" fill="#BDBCBC" fill-rule="nonzero"></path>
                        <path d="M157.971573,39.2687258 C157.971573,39.2687258 146.460148,36.5440827 134.480185,31.3536954 C114.121367,52.0424144 157.971573,39.2687258 157.971573,39.2687258" id="path64" fill="#0F2752"></path>
                        <path d="M44.2915168,65.298207 C44.2915168,65.298207 56.1117727,63.2642494 62.7877255,69.5603685 C42.7713161,94.687504 76.3307024,93.2544688 79.5815133,80.331656 C90.1381583,68.1679335 100.821414,47.4934535 100.821414,47.4934535 L112.435783,47.7254137 C112.435783,47.7254137 91.0852411,71.1072191 95.7010674,81.0753527 C103.131396,97.125059 128.391108,85.8302013 144.735118,72.4571297 C144.735118,72.4571297 144.492671,86.0129024 161.729502,96.4150355 C145.680854,103.54702 38.6407687,104.036724 38.6407687,104.036724 C18.6867028,100.873367 44.2915168,65.298207 44.2915168,65.298207" id="path66" fill="#0F2752" fill-rule="nonzero"></path>
                        <path d="M59.2734939,136.343756 C64.0843362,153.75665 117.821571,152.445319 126.668964,141.632373 C126.668964,141.632373 108.75001,126.012818 94.7074193,124.725539 C80.224479,123.397853 59.2734939,136.343756 59.2734939,136.343756" id="path68" fill="#BDBCBC" fill-rule="nonzero"></path>
                        <path d="M60.224329,136.70454 C63.5615357,134.734177 81.8495478,124.343589 94.6344928,125.520227 C106.814282,126.637215 122.250078,138.984697 125.520227,141.706454 C119.082873,148.053371 95.1049555,150.885769 77.6171149,147.190375 C68.0555612,145.171907 61.9173213,141.462083 60.224329,136.70454 Z M92.5265504,123.830794 C78.1789763,123.830794 59.6744937,135.156535 58.8533486,135.663557 L58.3441136,135.979123 L58.5034359,136.556378 C60.4993909,143.780723 69.8196521,147.175944 77.2871175,148.752812 C96.1189999,152.729136 121.353409,149.390679 127.287589,142.138433 L127.778256,141.53905 L127.194266,141.031066 C126.454418,140.385502 108.917414,125.226789 94.779961,123.92989 C94.0432876,123.862543 93.2905472,123.830794 92.5265504,123.830794 Z" id="path70" fill="#231F20" fill-rule="nonzero"></path>
                        <path d="M29.0243757,94.4480395 C57.883368,96.0640645 146.776676,99.9776602 161.729502,96.4150355 L177.12489,124.721691 C164.405078,136.389936 172.942678,156.36488 184.076001,163.856686 C109.82178,123.472896 68.7038184,139.885215 13.8285257,155.268095 C16.6581329,132.252943 29.0243757,94.4480395 29.0243757,94.4480395" id="path72" fill="#0F2752" fill-rule="nonzero"></path>
                        <path d="M16.2169178,152.522286 C19.212101,132.463641 28.284335,103.330549 30.4521195,96.5247139 C60.6155153,98.1814355 142.075897,101.742136 160.676974,98.6547845 L174.654239,124.35321 C170.363311,128.859646 168.364085,134.666831 168.8586,141.246574 C169.248247,146.434172 171.275373,151.883458 174.345407,156.564995 C146.740117,142.975453 121.997048,136.582355 97.2559035,136.554454 C97.2020263,136.554454 97.1481492,136.554454 97.0942721,136.554454 C71.957708,136.554454 48.9441912,143.151515 24.5818221,150.134375 C21.8240831,150.925215 19.0381548,151.72375 16.2169178,152.522286 Z M27.6052908,92.370884 L27.1283821,93.8279715 C26.620975,95.379344 14.6696822,132.081691 11.8491187,155.023724 L11.4834277,157.996587 L14.3671045,157.18843 C18.2004618,156.113774 21.9660878,155.034307 25.6811079,153.969272 C75.4539484,139.702417 114.767893,128.432478 183.12353,165.608655 L185.18914,162.201889 C178.51896,157.71277 173.439117,148.973131 172.835886,140.947364 C172.528979,136.856551 173.258244,130.976248 178.473742,126.191767 L179.622479,125.138277 L162.752205,94.1203511 L161.266736,94.4740159 C147.45014,97.7677361 66.2809834,94.5363595 29.1355935,92.4562215 L27.6052908,92.370884 Z" id="path74" fill="#BDBCBC" fill-rule="nonzero"></path>
                        <path d="M21.3844073,147.36259 C21.3844073,147.36259 66.4294342,130.924295 96.3015087,131.37744 C125.2595,131.817116 168.54592,148.561356 168.54592,148.561356 C168.54592,148.561356 125.647223,125.739584 95.9062815,125.324922 C65.6010734,124.902564 21.3844073,147.36259 21.3844073,147.36259" id="path76" fill="#BDBCBC" fill-rule="nonzero"></path>
                        <path d="M125.13058,141.591965 C120.943558,149.937147 80.1069115,155.175735 65.3849876,143.424749 C65.3849876,143.424749 112.666685,155.088184 89.3820506,139.958334 C89.3820506,139.958334 101.681524,136.46498 125.13058,141.591965" id="path78" fill="#0F2752" fill-rule="nonzero"></path>
                        <path d="M93.8092107,140.956985 C98.7221309,140.383578 108.148703,140.015097 121.719003,142.658925 C119.739019,143.999118 116.219689,145.474966 110.738653,146.678543 C105.699218,147.784948 100.775234,148.377596 96.1271777,148.555583 C96.7373361,148.187102 97.1067793,147.719526 97.3396054,147.182679 C98.1044681,145.418203 97.0682956,143.518072 93.8092107,140.956985 Z M101.414063,137.049931 C93.4243741,137.049931 89.2054106,138.204441 88.9073546,138.289105 L85.2318766,139.332974 L88.4357374,141.413978 C92.1653812,143.837487 93.4442894,145.173832 93.8802131,145.778987 C90.7793922,146.753586 77.3168462,144.579259 65.8010922,141.739165 L64.3018651,144.781298 C74.2877011,152.753188 96.06291,153.455515 111.48235,150.070877 C116.239893,149.026046 124.54178,146.636211 126.682433,142.370297 L127.683971,140.372995 L125.500985,139.895798 C115.421153,137.691646 107.370371,137.049931 101.414063,137.049931 Z" id="path80" fill="#BDBCBC" fill-rule="nonzero"></path>
                        <path d="M135.996441,74.881504 C108.442141,94.0493488 94.8644327,86.062835 99.6563217,72.0858586 C102.96303,62.4427195 114.432123,50.5202895 114.432123,50.5202895 C114.432123,50.5202895 101.942251,71.5401603 110.837749,76.8778438 C114.831391,79.2733554 118.026496,84.0657255 135.996441,74.881504" id="path82" fill="#BDBCBC" fill-rule="nonzero"></path>
                        <path d="M155.884796,24.7768381 C155.884796,24.7768381 154.737021,19.2918583 149.061643,19.0456591 C136.595824,18.5029433 123.48829,19.9498327 107.892787,26.3015606 C97.9091636,30.3663971 94.5394382,37.4148717 94.5394382,37.4148717 C94.5394382,37.4148717 93.3345148,28.5883559 109.670732,23.1789003 C118.726899,20.1787143 124.484054,18.431941 128.802883,17.5878981 C137.190397,15.9496488 140.152676,16.5663494 147.246177,16.0631755 C159.171301,15.2164388 155.884796,24.7768381 155.884796,24.7768381" id="path84" fill="#BDBCBC" fill-rule="nonzero"></path>
                        <path d="M74.3584149,66.6518697 C62.9227069,72.0249582 52.763983,83.8857182 63.1658274,86.1466331 C71.4059485,87.9370854 77.735837,80.3271342 75.0792138,79.5198432 C65.3669965,76.5700708 74.3584149,66.6518697 74.3584149,66.6518697" id="path86" fill="#BDBCBC" fill-rule="nonzero"></path>
                        <path d="M120.934899,38.7925867 C120.73767,34.3042376 131.54292,29.9616453 131.54292,29.9616453 C131.54292,29.9616453 123.698026,36.4768326 127.054763,41.3594468 C127.054763,41.3594468 120.943558,38.9899117 120.934899,38.7925867" id="path88" fill="#0F2752" fill-rule="nonzero"></path>
                    </g>
                </g>
            </g>
        </g>
    </g>
</svg>