<?xml version="1.0" encoding="UTF-8"?>
<svg width="200px" height="200px" viewBox="0 0 200 200" version="1.1" xmlns="http://www.w3.org/2000/svg" xmlns:xlink="http://www.w3.org/1999/xlink">
    <!-- Generator: Sketch 51.3 (57544) - http://www.bohemiancoding.com/sketch -->
    <title>marywood</title>
    <desc>Created with Sketch.</desc>
    <defs></defs>
    <g id="marywood" stroke="none" stroke-width="1" fill="none" fill-rule="evenodd">
        <g id="marywood_BGL" transform="translate(0.000000, 6.965174)">
            <g id="marywood">
                <g id="g10" transform="translate(99.898680, 93.770726) scale(-1, 1) rotate(-180.000000) translate(-99.898680, -93.770726) translate(0.000000, 0.044349)" fill-rule="nonzero">
                    <g id="g12">
                        <polyline id="path14" fill="#F19B1A" points="153.533127 125.785636 153.901111 135.640813 156.377706 135.770619 157.941637 129.547591 154.683279 123.972786 153.533127 125.785636"></polyline>
                        <path d="M199.501515,93.1112096 C199.457746,93.391784 199.283075,94.6483221 199.033024,98.1292996 C198.725831,102.405641 196.04579,104.966689 193.511241,106.007556 C185.870309,116.194908 177.785203,122.335296 172.325426,125.700576 C169.258354,127.591229 166.645589,128.855023 164.780543,129.651194 C165.431404,134.778127 162.198172,138.091405 160.012559,140.33076 C159.459773,140.896746 158.937787,141.432095 158.506176,141.946885 C158.002022,142.549152 157.066663,143.538419 155.975275,144.692564 C154.494018,146.259911 151.411546,149.520379 150.902529,150.402818 C147.327251,156.59924 141.844779,158.172634 138.445387,158.51408 C137.803441,159.856887 136.718943,161.63668 134.930898,163.464445 C132.169804,166.287524 128.461598,168.514785 123.910027,170.084148 C122.236268,170.662631 120.534546,171.585382 119.030595,172.401709 C115.874769,174.102087 111.31023,177.226299 109.493412,178.490497 C108.153189,179.423326 106.326644,179.536201 104.904151,178.825896 C102.877404,180.979789 100.29098,182.736201 97.199187,184.056836 C92.5102307,186.05996 86.6002005,187.07543 79.6324195,187.07543 C74.4859151,187.07543 70.7315079,186.50259 70.3193498,186.436881 C68.9094208,186.211535 67.7600794,185.179134 67.3916903,183.806496 C67.3227947,183.548093 67.2830784,183.284047 67.2725414,183.019194 C65.9432608,182.860766 64.6958444,182.671701 63.5456924,182.497148 C61.4930076,182.18634 59.5550137,181.892865 57.8464018,181.892865 C54.4437676,181.892865 51.9100291,183.087322 48.8105358,186.151872 C47.8387019,187.113324 46.3554193,187.44832 45.0626129,187.000449 C43.761701,186.549353 42.8166149,185.379486 42.6549128,184.020152 C42.593312,183.510603 42.455926,181.989212 42.708003,180.194906 C41.1542036,180.31665 40.1301307,180.840308 39.5875978,181.784828 C38.9434641,182.906319 37.737304,183.602918 36.4396343,183.602918 C36.1387225,183.602918 35.8393507,183.565831 35.5505969,183.492865 C33.9781147,183.096997 32.8531704,181.694528 32.8150346,180.082838 C32.8106172,179.900222 32.7336567,175.577521 35.1673345,171.674876 C35.3158249,171.437033 35.4712858,171.204833 35.633069,170.977874 C34.5915696,170.773893 33.572522,170.528794 32.5856527,170.244994 C30.1503944,169.548799 27.968591,169.129953 26.1005465,169.000953 C25.6830794,168.971928 25.2770409,168.957013 24.8932922,168.957013 C22.2756631,168.957013 21.2491991,169.649177 20.9916509,169.866058 C20.4583176,170.859759 19.4703136,171.536201 18.2997766,171.696242 C16.9880442,171.871198 15.6710837,171.26893 14.8754201,170.152679 C13.2529277,167.87543 11.3644577,163.053662 13.8115903,158.898258 C6.54950338,158.722092 1.6772725,155.190724 1.4678338,155.036328 C0.274981148,154.155501 -0.254875779,152.663136 0.117464637,151.23406 C0.490439704,149.803372 1.68329074,148.754846 3.15602829,148.562959 C5.00413361,148.322294 6.56344462,147.961901 7.51124601,147.696242 C7.40040508,147.557164 7.29880428,147.409218 7.20822677,147.252806 C6.25791271,145.61209 6.75359659,143.503751 8.33665633,142.453209 C8.46472117,142.367747 9.1771021,141.904557 10.3599997,141.323655 C7.1441133,140.134842 4.48676787,138.045852 3.24151562,135.572685 C2.62316508,134.344366 2.76833225,132.846759 3.61148117,131.756711 C4.26512654,130.913375 5.27927038,130.396167 6.34626124,130.354645 C4.73215794,126.140385 4.32433626,120.118112 8.89073939,112.680874 C9.23918923,99.3527816 12.7900301,87.8637418 19.4473349,78.5314165 C30.7782363,62.6475167 50.2836867,54.2081115 77.4228957,53.4466099 C88.7104334,53.1305605 98.4794302,50.3236067 106.458356,45.1035514 C112.81864,40.9421003 118.106988,35.2180994 122.176694,28.0920729 C129.143664,15.8890598 130.166967,3.46970211 130.176289,3.35191324 C130.274364,1.95956256 131.185407,0.737749541 132.496451,0.238725315 C132.911851,0.0803100005 133.348325,0 133.792499,0 C134.739612,0 135.635255,0.361237179 136.31489,1.0155263 C155.398578,19.3972079 154.505771,40.5635666 150.397565,55.0832942 C146.776085,67.8808751 141.032621,75.7486502 136.312053,80.370066 C137.880442,80.8328526 139.400199,81.4625326 141.064637,82.2228249 C141.943664,82.6247397 143.298071,82.8650017 144.686926,82.8650017 C145.976896,82.8650017 147.215397,82.6513459 148.001617,82.2941778 C151.150148,80.8675213 153.80952,78.9131751 154.979935,77.9928426 C157.44802,73.5068765 161.77953,72.2535633 161.963927,72.2023665 C162.019044,72.1866447 162.078618,72.1709229 162.134545,72.158426 C162.341637,72.1112605 167.246602,70.9893658 169.830594,70.2972016 C170.373653,70.1520769 170.952377,70.0783051 171.548932,70.0783051 C174.321779,70.0783051 177.310229,71.6879801 179.433835,73.1327772 C182.964534,73.232752 185.970816,75.7599376 186.603845,76.3267303 C187.473957,77.1366068 191.982974,81.324261 195.282265,84.2307865 C199.912862,88.3112097 199.788445,91.7712247 199.501515,93.1112096" id="path16" fill="#FFFFFF"></path>
                        <path d="M195.945284,92.4013078 C195.945284,92.4013078 195.734139,93.453462 195.416814,97.8721064 C195.099489,102.290751 191.291586,102.922043 191.291586,102.922043 C176.801617,122.806145 160.407696,127.43522 160.407696,127.43522 C163.123805,133.642526 158.508203,136.310402 155.720361,139.639402 C154.412965,141.200702 148.836876,146.738822 147.758051,148.607303 C143.523401,155.946582 135.886927,154.944818 135.886927,154.944818 C135.886927,154.944818 134.617626,162.574347 122.72097,166.677345 C120.821476,167.334035 119.031811,168.29347 117.301719,169.231943 C113.95096,171.037134 109.246603,174.260918 107.414384,175.536 C106.991284,175.830683 106.398782,175.691606 106.158052,175.237285 C105.610534,174.216977 105.244577,173.225292 104.995742,172.294881 C98.1989844,187.240308 70.8944258,182.876488 70.8944258,182.876488 C72.1483265,181.86505 72.9349526,180.805639 73.4107378,179.778882 C61.5651454,179.881275 55.460181,174.490295 46.2545075,183.594856 C46.2545075,183.594856 45.7341427,179.226602 47.8030383,177.173087 C47.8030383,177.173087 39.5363313,174.601558 36.4395128,179.996569 C36.4395128,179.996569 36.359067,176.605085 38.2459565,173.579235 C38.8171419,172.665755 39.566078,171.786541 40.5475167,171.041568 C42.1171215,169.85477 44.2873343,169.017078 47.2871315,168.949756 C58.2192488,168.697401 60.4871312,165.151117 60.7031393,164.987046 C60.4615993,165.083795 55.4524809,168.848975 42.4433627,168.109646 C42.4433627,168.109646 42.4433627,168.109646 42.43931,168.109646 C39.5790466,168.025393 36.5754803,167.638393 33.5885301,166.779739 C30.6905362,165.950512 28.3043559,165.538116 26.3540014,165.403473 C19.2633835,164.906824 17.8335558,168.067721 17.8335558,168.067721 C17.8335558,168.067721 13.840567,162.461876 18.6466054,158.889389 C20.8974665,157.214408 23.2997765,155.989716 27.9915292,155.989716 C27.9915292,155.989716 29.8698675,151.823428 20.8119549,154.264345 C20.59619,154.323201 20.3802629,154.382057 20.1561089,154.449379 C10.5990271,157.277295 3.62699484,152.139074 3.62699484,152.139074 C3.62699484,152.139074 9.56688933,151.364672 10.8570615,150.081125 C12.1518943,148.797981 16.0228162,146.483241 16.0228162,146.483241 C16.0228162,146.483241 11.9063422,144.690548 10.3495438,145.45205 C10.5018437,145.351269 13.0062813,143.743609 16.7546906,142.813602 C19.6441332,142.098056 23.2700298,141.790876 27.1325626,142.889389 C27.1325626,142.889389 20.6723399,138.777925 16.2851465,138.777925 C16.0608304,138.777925 15.8407696,138.773491 15.6166156,138.760994 C11.4325428,138.567495 7.71007073,136.394655 6.48320146,133.958173 C6.48320146,133.958173 11.3910433,134.98493 12.9435863,133.958173 C12.9435863,133.958173 4.05507589,126.568503 12.4952378,113.758425 C12.6939409,99.2987629 17.0432822,58.7476932 77.5246181,57.0517496 C130.124414,55.5787338 133.792499,3.6063854 133.792499,3.6063854 C151.561496,20.7213903 150.834039,40.2309892 146.907392,54.105718 C140.278416,77.533281 126.177504,83.2818321 126.177504,83.2818321 C132.278011,82.7053645 134.934951,83.3910788 139.550554,85.4998215 C142.275174,86.7454753 146.776491,86.8168283 149.505569,85.5752057 C154.205467,83.4459037 157.8695,80.3023412 157.8695,80.3023412 C159.561901,76.6202047 162.946298,75.6732659 162.946298,75.6732659 C162.946298,75.6732659 168.023096,74.5162995 170.772843,73.7797916 C173.522995,73.0432836 178.388243,76.8306355 178.388243,76.8306355 C181.03262,76.199343 184.099691,78.9349439 184.099691,78.9349439 C184.099691,78.9349439 189.17649,83.6692345 192.878212,86.9305093 C196.58034,90.1921872 195.945284,92.4013078 195.945284,92.4013078" id="path18" fill="#1B5C29"></path>
                        <path d="M189.968384,90.3401338 C189.960279,90.3401338 189.960279,90.3316682 189.960279,90.3316682 L189.457746,89.8737191 C189.298476,89.7398819 189.156226,89.6068509 189.021677,89.4734168 C188.98034,89.431895 188.938192,89.3899701 188.896449,89.3569139 L187.723602,88.2821847 L181.768992,82.8420236 L181.300097,82.4090682 C181.300097,82.4001995 181.291586,82.392137 181.291586,82.392137 L181.032214,82.1591312 C181.032214,82.1591312 178.636267,80.4760877 176.802427,81.7427039 C176.802427,81.7427039 173.837888,78.2347171 170.872539,78.0936236 L163.125832,79.9177607 C163.125832,79.9177607 161.433836,81.0424772 161.433836,82.4421244 C161.433836,82.4421244 155.101921,89.7568131 146.752175,91.5229002 C144.063624,92.0896928 141.274566,91.814359 138.686521,90.8984608 C133.912459,89.1904236 121.500301,85.9747018 111.366157,93.9472892 C99.984192,102.903096 99.2555193,117.590524 104.247616,126.388306 C104.506988,126.829727 103.912459,127.271148 103.552176,126.904708 C99.1383967,122.389314 91.8853067,111.958879 99.0966541,96.8880802 C99.0966541,96.8880802 102.873756,89.2654047 111.760078,85.3829155 C112.814992,84.9249664 113.837079,84.4081612 114.825124,83.8417717 C114.833634,83.833306 114.842145,83.8252436 114.850656,83.8252436 C115.45329,83.4833942 116.039713,83.1254199 116.617626,82.7505144 C118.879024,81.3089423 122.689764,79.3094462 124.825529,77.6517995 C136.425123,68.6460048 151.533937,46.3693614 139.122185,18.7767594 C138.636268,17.7020303 138.117119,16.619279 137.547717,15.5279815 C137.388446,15.2114887 137.21256,14.8866109 137.036673,14.5612896 C137.045184,14.6282083 137.086927,14.9197074 137.13718,15.4029727 C137.145691,15.4530407 137.153796,15.5114534 137.162307,15.5694226 C137.622692,19.9267921 138.569399,37.5381195 126.693411,54.3084894 C122.823908,59.7821099 117.580949,65.163818 110.520362,69.9626085 C110.520362,69.9626085 96.4166136,81.1759113 71.4581542,78.9349439 C69.0626123,78.7184662 66.8684887,78.7349943 64.8668677,78.9349439 L64.858357,78.9349439 C63.0998971,79.1094966 61.4913865,79.4348179 60.000809,79.8597108 C45.5282663,84.0917087 43.535156,99.2709474 43.535156,99.2709474 C43.535156,99.2709474 41.4828764,121.880975 63.3426529,125.779992 C63.3507583,125.779992 63.3592689,125.779992 63.3592689,125.779992 C63.7361686,125.846507 63.694426,126.404834 63.3090156,126.404834 C54.5065843,126.479815 30.9132718,123.638999 23.5097056,92.2642456 L23.5013165,92.2727112 C23.4678819,92.314233 23.2752172,92.6060949 22.973657,93.1144346 C22.8647613,93.2889873 22.7474361,93.4889369 22.6218839,93.7138802 C19.4057138,99.4039784 18.7441535,106.560239 19.9249438,113.616525 C21.2232619,121.431088 24.8999386,129.020707 29.6403235,134.485862 C30.8130894,135.835522 32.0356628,137.101735 33.3004247,138.292967 C33.0573852,137.293219 32.8564936,136.235018 32.755987,135.168754 C32.6554399,134.252453 32.6304348,133.327686 32.6972636,132.427913 C32.6972636,132.427913 32.6972636,132.427913 32.7058148,132.436379 L32.7140417,132.461372 C33.0911035,133.086215 39.2637072,143.158273 50.0425519,148.681881 C49.4897657,147.573692 48.9454902,146.324007 48.5183372,145.024335 C47.7142845,142.608412 47.3037476,140.017532 47.982167,137.84308 L47.9906776,137.851546 C48.2500495,138.309495 56.8348517,152.78891 78.8705147,156.263035 L78.9037468,156.263035 C82.9154994,156.579487 85.8889543,156.554493 87.2121559,156.521437 C94.6577484,156.321488 105.805468,155.029878 116.776897,149.989616 C116.843766,149.964622 116.885509,149.948094 116.902125,149.940032 C116.911041,149.940032 116.911041,149.940032 116.911041,149.940032 C116.994526,149.906572 117.061801,149.864647 117.12867,149.839654 C117.254303,149.789666 117.362915,149.731213 117.480443,149.673163 C117.513675,149.665101 117.530696,149.64817 117.555823,149.64817 C117.002631,149.998081 116.475377,150.347993 115.981355,150.705968 C115.018032,151.397729 114.155215,152.106018 113.39331,152.847363 C108.870514,157.162808 107.647414,162.236126 107.647414,168.917506 C107.647414,169.459305 107.647414,170.025695 107.664435,170.60055 C107.681051,170.975456 108.125225,171.175405 108.409724,170.917003 C110.11023,169.384324 112.304759,166.768048 115.679835,164.302137 C117.547312,162.944415 119.783584,161.628215 122.505772,160.578479 C132.053087,156.879412 131.986218,151.089339 134.038497,149.798132 C134.046603,149.789666 134.046603,149.781604 134.055113,149.781604 C134.063219,149.781604 134.063219,149.773138 134.072134,149.773138 C134.072134,149.773138 135.035052,150.01461 136.450655,149.9231 L136.517524,149.9231 C136.618031,149.914635 136.726643,149.906572 136.83566,149.890044 L136.877403,149.890044 C138.494019,149.723151 140.57102,149.098308 142.447413,147.290699 C142.916308,146.84041 143.368183,146.315945 143.803846,145.707631 C147.480847,140.550463 151.509216,137.209772 153.301313,135.860516 C153.586217,135.643635 153.845994,135.418691 154.097261,135.168754 C154.917929,134.352428 155.537585,133.35268 155.83951,132.227963 C156.316511,130.453814 156.149135,128.112468 153.544069,125.804986 C153.544069,125.79652 153.535964,125.79652 153.535964,125.788054 L153.527453,125.788054 C153.527453,125.788054 149.364941,122.797276 146.098477,121.772534 C145.856126,121.706019 145.905974,121.356107 146.157241,121.348044 C148.603036,121.306119 152.87416,121.481075 156.157646,122.913779 C156.84417,123.205641 157.480442,123.555552 158.050249,123.963514 C158.050249,123.963514 179.063825,116.532323 184.130897,98.9956135 C184.130897,98.9956135 184.139408,98.9956135 184.147513,98.9875511 C184.306784,98.9456261 185.638496,98.5961175 187.129479,98.4876771 C187.162711,98.4876771 187.204453,98.4792114 187.238091,98.4792114 C187.589864,98.4542177 187.950147,98.4461553 188.301515,98.4542177 C188.461191,98.4542177 188.611545,98.4626834 188.762305,98.4792114 L188.963318,98.4876771 C189.231201,98.3627086 189.499489,98.0708466 189.666865,97.4379416 C189.691991,97.3295012 189.717118,97.2214639 189.733734,97.0964954 C190.043764,95.1469868 190.3619,93.5389243 190.3619,93.5389243 C190.3619,93.5389243 190.948323,91.4729128 189.968384,90.3401338" id="path20" fill="#F19B1A"></path>
                        <path d="M13.5118943,122.150665 C13.5118943,122.150665 11.4206684,129.847112 16.1260381,132.655275 C20.8311241,135.463438 23.8633429,135.047414 26.9999183,139.10365 C26.9999183,139.10365 25.1179325,133.903348 18.9489762,131.719221 C12.7798984,129.535094 13.5118943,122.150665 13.5118943,122.150665" id="path22" fill="#F19B1A"></path>
                        <path d="M22.1686722,150.922042 C22.1686722,150.922042 29.117284,147.319321 35.7842747,153.526628 C35.7842747,153.526628 30.6520762,144.150362 22.1686722,150.922042" id="path24" fill="#F19B1A"></path>
                        <path d="M103.894628,157.419195 C103.894628,157.419195 103.154202,176.882434 82.8470091,180.249328 C82.8470091,180.249328 105.798174,181.301482 103.894628,157.419195" id="path26" fill="#F19B1A"></path>
                        <path d="M43.0946291,163.672861 C48.1819643,164.023176 54.5434637,163.016978 59.878418,158.366134 C59.878418,158.366134 50.9053685,164.047363 39.7378308,160.989666 C30.0603032,158.339931 28.5885302,161.943458 28.5885302,161.943458 C28.5885302,161.943458 32.2886719,160.914685 35.8863618,162.153485 C38.0371216,162.894025 40.8243151,163.516448 43.0946291,163.672861" id="path28" fill="#F19B1A"></path>
                        <path d="M68.360282,172.241266 C73.0735544,170.946834 77.2348512,168.443432 80.5714266,162.547741 C80.5714266,162.547741 76.2893598,169.518162 64.8887522,170.456232 C55.2968578,171.245549 53.416412,175.692412 53.416412,175.692412 C53.416412,175.692412 58.2480229,172.882636 61.8986813,172.863689 C64.0806468,172.852402 66.2565333,172.818943 68.360282,172.241266" id="path30" fill="#F19B1A"></path>
                        <path d="M38.2459565,173.578832 C38.3857336,173.734438 38.5294823,173.886012 38.6733932,174.037587 C38.6733932,174.037587 39.2106576,172.678252 40.5475167,171.041568 C39.566078,171.786541 38.8171419,172.665755 38.2459565,173.578832" id="path32" fill="#1B5C29"></path>
                        <path d="M159.073958,117.272056 C156.882671,118.023882 151.878821,119.151017 146.354201,116.421867 C146.354201,116.421867 147.767777,112.634515 144.697463,107.135094 C144.602631,106.964976 144.825934,106.794857 144.96413,106.932323 C146.372843,108.336001 149.015194,111.353386 149.395741,114.561852 C149.395741,114.561852 151.988243,117.565933 159.000199,116.944719 C159.201617,116.926981 159.265244,117.206346 159.073958,117.272056" id="path34" fill="#1B5C29"></path>
                        <path d="M173.359266,97.2492795 C173.450452,97.1472891 173.611748,97.2569389 173.550958,97.3790855 C173.020462,98.4372865 172.320158,100.225142 173.133937,101.049531 C174.044575,101.971476 178.007696,98.4014085 179.850046,96.6425776 C179.95339,96.5438121 180.109823,96.6800681 180.025122,96.7949585 C178.094828,99.4192971 173.057341,105.815669 170.83647,104.328141 C168.695437,102.893421 171.906784,98.8811263 173.359266,97.2492795" id="path36" fill="#1B5C29"></path>
                        <path d="M112.476593,161.376262 C112.397971,161.541946 112.617221,161.690296 112.740017,161.554443 C114.20101,159.93469 117.731709,156.3618 121.293209,155.31529 C125.946907,153.947489 127.057342,147.109293 127.057342,147.109293 C127.057342,147.109293 122.724617,151.223176 118.524414,152.362405 C118.372439,152.403524 118.35866,152.610326 118.505772,152.665554 C119.020868,152.859054 119.919349,153.101735 120.817424,152.895335 C120.817424,152.895335 115.617829,154.763009 112.476593,161.376262" id="path38" fill="#1B5C29"></path>
                        <path d="M142.344069,140.144113 C138.264232,140.790725 134.830392,139.713577 133.254303,139.074625 C133.072337,139.00045 133.141638,138.717457 133.336167,138.746079 C136.239916,139.173793 138.712864,138.891203 140.805265,138.19138 L140.622084,137.219447 L150.851465,127.962506 C148.573856,128.77722 146.489561,128.876389 145.300503,128.844542 C145.102327,128.839301 145.07031,128.565177 145.259976,128.507933 C149.539206,127.222773 152.765548,124.288835 152.765548,124.288835 L154.18642,125.015265 C148.369601,139.428971 142.344069,140.144113 142.344069,140.144113" id="path40" fill="#1B5C29"></path>
                        <path d="M141.932317,137.694731 C141.987028,137.663287 142.042955,137.631037 142.098071,137.596772 C142.04336,137.629425 141.987838,137.662884 141.932317,137.694731 C138.635052,139.575708 136.226947,137.436731 136.226947,137.436731 C134.536977,136.176162 134.688143,135.240914 134.688143,135.240914 C145.628365,131.691002 150.884697,127.927434 150.884697,127.927434 C150.884697,127.927434 148.363117,133.725167 142.34488,137.450034 L141.932317,137.694731" id="path42" fill="#FFFFFF"></path>
                        <path d="M148.162104,97.2142077 C148.162104,97.2142077 147.117727,106.498964 154.168993,109.444593 C154.168993,109.444593 163.123805,101.168453 169.305366,86.4044322 C169.340624,86.3205824 169.356024,86.2314919 169.378719,86.1468358 L160.726642,97.8721064 L153.957443,102.922043 L148.162104,97.2142077" id="path44" fill="#1B5C29"></path>
                        <path d="M148.162104,97.2142077 C148.162104,97.2142077 150.421475,105.475835 153.789257,106.08294 C153.789257,106.08294 164.180746,95.2215648 169.378719,86.1468358 C169.378719,86.1468358 152.560888,101.519574 148.162104,97.2142077" id="path46" fill="#FFFFFF"></path>
                        <path d="M60.0056723,79.860517 C45.5282663,84.0900962 43.5355612,99.2733661 43.5355612,99.2733661 C43.5355612,99.2733661 41.4836869,121.880168 63.3434635,125.77717 C62.8952365,125.650992 46.8624102,120.944517 46.3080029,103.130862 C45.7791275,86.2722075 58.486726,80.6220186 60.0056723,79.860517" id="path48" fill="#FFFFFF"></path>
                        <path d="M116.777707,149.989616 C114.256532,150.922848 75.3426526,165.751772 47.9914882,137.851546 C48.2512653,138.309495 56.8360675,152.78891 78.8713253,156.263035 L78.9049626,156.263035 C82.9167153,156.579487 85.8897648,156.554493 87.2129664,156.521437 C94.6585589,156.321488 105.806279,155.029878 116.777707,149.989616" id="path50" fill="#FFFFFF"></path>
                        <path d="M50.0433625,148.681881 C49.4905763,147.573692 48.9463007,146.324007 48.5191477,145.024335 C43.7702117,143.999593 33.0415797,132.78629 32.7065848,132.436379 L32.715136,132.461372 C33.0919141,133.086215 39.2645178,143.158273 50.0433625,148.681881" id="path52" fill="#FFFFFF"></path>
                        <path d="M33.3011947,138.292967 C33.0583578,137.293219 32.8573041,136.235018 32.756757,135.168754 L32.4889151,134.785787 C32.4889151,134.785787 13.7031405,115.566034 23.5022487,92.2727112 C23.4686924,92.314233 23.2760278,92.6060949 22.9745891,93.1144346 C22.8656935,93.2889873 22.7483682,93.4889369 22.6226945,93.7138802 C19.4066459,99.4039784 18.7449235,106.560239 19.9259164,113.616525 C21.2240319,121.431088 24.9007491,129.020707 29.6412556,134.485862 C30.8138594,135.835522 32.0364734,137.101735 33.3011947,138.292967" id="path54" fill="#FFFFFF"></path>
                        <path d="M184.131708,98.9956135 C179.893815,112.441821 159.081658,121.672559 156.158456,122.913779 C156.844981,123.205641 157.481252,123.555552 158.051465,123.963514 C158.051465,123.963514 179.064636,116.532323 184.131708,98.9956135" id="path56" fill="#FFFFFF"></path>
                        <path d="M139.12259,18.7767594 C138.637079,17.7020303 138.11793,16.619279 137.548527,15.5279815 C137.389257,15.2114887 137.213776,14.8866109 137.037484,14.5612896 C137.045589,14.6282083 137.087737,14.9197074 137.13799,15.4029727 C137.146501,15.4530407 137.154607,15.5114534 137.163522,15.5694226 C137.623502,19.9267921 138.570209,37.5381195 126.694222,54.3084894 L126.710838,54.5334328 C126.710838,54.5334328 142.975478,36.3553531 139.12259,18.7767594" id="path58" fill="#FFFFFF"></path>
                        <path d="M134.055924,149.781604 C132.188041,149.331717 131.736167,148.88183 131.736167,148.88183 C130.622084,155.68818 125.140422,157.837638 125.140422,157.837638 C119.53718,160.886466 116.593715,163.077849 115.680646,164.302137 C117.548123,162.944415 119.784394,161.628215 122.506583,160.578479 C132.079429,156.870946 131.987028,151.056282 134.055924,149.781604" id="path60" fill="#FFFFFF"></path>
                        <path d="M189.961089,90.3737191 C189.893815,90.2918529 189.826946,90.2192297 189.751566,90.1554092 C189.651059,90.0643001 189.550553,89.9736311 189.458557,89.8737191 L189.961089,90.3737191" id="path62" fill="#FFFFFF"></path>
                        <path d="M189.458557,89.8737191 L189.961089,90.3737191 C189.893815,90.2918529 189.826946,90.2192297 189.751566,90.1554092 C189.651059,90.0643001 189.550553,89.9736311 189.458557,89.8737191" id="path64" fill="#FFFFFF"></path>
                        <path d="M189.545236,98.1511839 C189.591289,98.1002529 189.632225,98.0378214 189.676084,97.9781281 C189.632225,98.0372737 189.591289,98.1002529 189.545236,98.1511839 Z M189.31278,98.3664085 C189.266728,98.4031007 189.223599,98.4474599 189.176084,98.4781281 C189.223599,98.4474599 189.266728,98.4031007 189.31278,98.3664085 Z" id="path66" fill="#FFFFFF"></path>
                        <path d="M134.038497,149.798132 L131.734951,148.88183 C130.855519,152.81592 128.658558,155.252805 127.041942,156.57344 C126.136572,157.31277 125.077606,157.8328 123.977707,158.234312 C113.554202,162.039804 108.409724,170.917003 108.409724,170.917003 C110.11023,169.384324 112.304759,166.768048 115.679835,164.302137 C117.547312,162.944415 119.783584,161.628215 122.505772,160.578479 C132.053087,156.879412 131.986218,151.089339 134.038497,149.798132" id="path68" fill="#FFFFFF"></path>
                    </g>
                </g>
            </g>
        </g>
    </g>
</svg>