<?xml version="1.0" encoding="UTF-8"?>
<svg width="200px" height="200px" viewBox="0 0 200 200" version="1.1" xmlns="http://www.w3.org/2000/svg" xmlns:xlink="http://www.w3.org/1999/xlink">
    <!-- Generator: Sketch 51.3 (57544) - http://www.bohemiancoding.com/sketch -->
    <title>maryville-tn</title>
    <desc>Created with Sketch.</desc>
    <defs></defs>
    <g id="maryville-tn" stroke="none" stroke-width="1" fill="none" fill-rule="evenodd">
        <g id="maryville-tn_BGL" transform="translate(0.990099, 0.000000)">
            <g id="maryville-tn">
                <g id="g10" transform="translate(98.999998, 99.818483) scale(-1, 1) rotate(-180.000000) translate(-98.999998, -99.818483) translate(0.000000, 0.258529)" fill-rule="nonzero">
                    <g id="g12">
                        <path d="M197.999995,89.82233 L189.907845,92.7810758 C189.784645,92.8261803 188.958545,93.1204597 187.630845,93.5027479 C187.979545,95.3954872 188.216595,97.273925 188.216595,99.114959 C188.216595,101.075355 188.019145,103.002198 187.622595,104.885036 L187.294245,106.446642 L187.001095,107.452693 L186.409295,109.010998 C183.021845,117.93289 176.080296,122.577555 175.787146,122.770624 L174.524346,123.601207 C174.524346,123.601207 172.591096,122.345431 172.014146,121.970844 C171.575796,122.820129 171.130296,123.642461 170.678196,124.448842 C171.504846,130.057202 171.714396,134.517048 171.714396,137.525299 C171.714396,140.280525 171.544446,141.830029 171.529046,141.962593 L171.367896,143.374584 C171.367896,143.374584 145.365546,152.988445 136.436297,156.289875 L136.480297,156.365783 C136.549597,156.486795 137.797547,158.682064 138.497697,161.64301 C141.335146,160.259622 144.030146,158.348181 144.065896,158.323428 L148.888296,154.875134 L147.672796,160.677114 C146.270846,167.365782 142.504996,172.288775 138.736947,175.290425 C140.217546,176.859732 140.632796,178.481844 140.632796,179.751371 C140.632796,180.173813 140.590446,180.556651 140.530496,180.886134 C139.297947,187.658411 127.591197,193.328928 122.037297,194.388334 C120.897147,197.144109 117.856747,199.058301 114.298247,198.964241 C110.510947,198.863031 107.396297,196.499445 106.617497,193.421337 C94.9266976,189.826728 87.8465478,180.003846 87.8465478,171.929589 C87.8465478,171.371833 87.8800978,170.822328 87.9482978,170.284374 C88.5400978,165.620458 91.7531977,162.5451 96.4958476,161.903186 C96.5959476,161.298676 96.7031976,160.673813 96.8142976,160.0385 C96.4881476,160.113857 96.3005976,160.156762 96.3005976,160.156762 L81.665098,156.546201 L80.977598,152.689765 C80.977598,152.689765 80.944598,152.469193 80.901698,152.182614 C78.816098,151.562702 71.9086482,149.511547 71.9086482,149.511547 L71.5285982,149.151261 C65.3168984,143.419138 60.9278985,136.096806 58.4231985,127.402637 C47.4886488,125.117709 31.4799642,124.63311 14.9116546,134.212868 L10.4871797,136.771174 L11.4883447,131.757973 C12.3778047,127.308578 15.0906246,116.411988 21.7686145,105.601207 C9.73307476,103.200217 1.87558795,94.6914168 1.87558795,83.5319011 C1.87558795,80.4752455 2.46748144,76.069305 5.04925837,71.8888871 C4.57294739,70.147413 0,53.4148501 0,53.4148501 L6.45886984,49.9957083 C10.0822147,48.0769515 17.7843596,44.8591298 28.6580243,44.8591298 C36.9784791,44.8591298 44.1411289,47.3998888 49.1530038,52.053464 C52.0555737,49.0039042 55.8799986,46.8487887 60.3883485,45.7289318 C62.3468984,42.3574797 64.7201484,39.2771717 67.4932483,36.5913082 C76.1744481,28.1810774 88.0731478,23.735973 101.901797,23.735973 C109.096347,23.735973 115.749147,24.946094 121.751297,27.3052798 C121.612697,22.5567651 121.265097,10.6661163 121.265097,10.6661163 L138.179797,0 L155.090646,10.6672165 C155.090646,10.6672165 154.172696,42.1423532 154.018146,47.4542892 C154.670446,47.2705709 155.497646,47.0363575 155.497646,47.0363575 C155.822146,46.9450483 163.541946,44.791473 172.445346,44.791473 C190.560145,44.791473 196.987445,55.4515938 196.987445,64.5797564 C196.987445,69.0242007 195.911095,72.8305812 193.804595,75.9262907 C194.357895,77.7579739 197.999995,89.82233 197.999995,89.82233" id="path14" fill="#EC5E1A"></path>
                        <path d="M195.155945,88.4009879 L189.114745,90.6100087 C188.977245,90.6595137 187.411395,91.22277 184.957845,91.8239801 C186.171695,96.5863562 186.122195,100.788776 185.360995,104.409238 L180.537495,105.162814 L184.248345,108.190316 C181.086945,116.515399 174.516646,120.839931 174.516646,120.839931 L171.107196,118.62651 C170.179896,120.557203 169.231146,122.357533 168.280746,124.015398 C169.992896,135.062703 169.233346,141.699666 169.233346,141.699666 L131.665597,155.589105 L130.193797,160.625959 C131.186547,161.256322 132.049497,162.284924 132.690797,163.465342 C133.406897,161.823978 134.005297,159.889435 134.477197,157.519248 C134.477197,157.519248 136.468747,160.979094 136.642547,164.896586 C140.559646,163.677664 145.410646,160.202966 145.410646,160.202966 C143.860196,167.599556 139.000397,172.876783 134.800597,175.199116 C145.831396,181.129258 128.074097,191.278323 121.057197,192.217267 C120.776147,192.255771 120.498947,192.283274 120.220097,192.314627 C120.035297,194.806376 117.460197,196.735419 114.359847,196.65346 C111.183597,196.568202 108.664047,194.407036 108.732247,191.826178 C108.733897,191.762921 108.744347,191.700765 108.749847,191.636959 C89.3144978,186.777773 83.8326479,163.971393 98.4851975,164.078104 C98.8069475,162.008797 99.2227475,159.564352 99.7320475,156.994496 L96.3187476,157.780524 L95.4590976,157.568203 L83.6769979,154.661712 L83.2529479,152.284375 C83.1401979,151.651811 83.0494479,151.018698 82.9691479,150.385035 C77.7452481,148.866883 73.0960982,147.452142 73.0960982,147.452142 C65.9889984,140.894936 62.1972984,132.921889 60.2464485,125.415288 C50.0317387,123.070954 32.1728542,121.562703 13.7553897,132.211768 C14.9842546,126.059403 18.3648295,114.365234 25.6634944,103.849832 C12.8680747,102.704068 4.1866604,94.6749151 4.1866604,83.5319011 C4.1866604,80.4059386 4.82710788,76.1331114 7.54533981,72.2552237 C7.24734982,71.1650147 2.71734643,54.5912528 2.71734643,54.5912528 L7.53994981,52.0390526 C10.9735997,50.2206808 18.2832095,47.1710659 28.6580243,47.1710659 C37.5615891,47.1710659 44.8513989,50.2997237 49.2643238,55.4873473 C52.1457737,51.5292066 56.4288986,48.8740912 61.8788485,47.7359724 C63.7994484,44.2398779 66.2062483,41.0559946 69.1014483,38.2513742 C77.3437481,30.2667759 88.6858478,26.0479091 101.901797,26.0479091 C110.154547,26.0479091 117.675797,27.6924636 124.167997,30.8718364 C123.858897,20.3086354 123.614697,11.9174915 123.614697,11.9174915 L138.179797,2.7326567 L152.742146,11.9181515 C152.742146,11.9181515 152.123946,33.1045096 151.616296,50.5356423 L156.125746,49.2606698 C156.437596,49.172771 163.857646,47.1034092 172.445346,47.1034092 C188.835895,47.1034092 194.675795,56.1314617 194.675795,64.5797564 C194.675795,69.0065989 193.533445,72.6518134 191.261945,75.5027484 C191.505595,76.308579 195.155945,88.4009879 195.155945,88.4009879" id="path16" fill="#5B0F1B"></path>
                        <path d="M159.433446,136.345431 C160.757296,134.883385 162.350646,132.968093 164.063896,130.581955 C164.788246,135.43344 164.583646,138.283275 164.445046,139.364133 C162.994696,138.572054 161.289146,137.568753 159.433446,136.345431" id="path18" fill="#FFFFFF"></path>
                        <path d="M155.015296,133.185365 C154.050596,132.439491 153.072146,131.641911 152.087646,130.790426 C155.420646,128.672164 160.473496,124.908138 165.770546,118.924089 C161.811646,125.93234 157.657496,130.602857 155.015296,133.185365" id="path20" fill="#EC5E1A"></path>
                        <path d="M123.834697,129.004397 L116.578547,132.570404 C114.979697,128.655112 113.961097,124.73487 113.326947,121.105057 L119.844997,117.892736 C120.731597,121.319579 122.227597,125.207918 123.834697,129.004397" id="path22" fill="#EC5E1A"></path>
                        <path d="M126.282197,114.718919 L132.247497,111.780525 C133.841397,115.359733 136.089797,119.214518 137.860247,122.116059 L131.031997,125.468644 C129.249997,121.951592 127.415197,118.036851 126.282197,114.718919" id="path24" fill="#EC5E1A"></path>
                        <path d="M136.285597,133.204617 C134.178547,130.724969 132.462547,128.291526 131.031997,125.468644 L137.860247,122.116059 C139.805597,125.306928 141.814746,127.581955 143.860196,129.654012 L136.285597,133.204617" id="path26" fill="#FFFFFF"></path>
                        <path d="M144.792996,130.585255 C145.239596,131.025849 145.687846,131.462593 146.137196,131.900987 L138.262297,135.43179 C137.872347,135.009348 137.494497,134.593506 137.128197,134.179315 L144.792996,130.585255" id="path28" fill="#FFFFFF"></path>
                        <path d="M128.338647,136.93069 C126.507697,134.33608 125.002897,131.766223 123.834697,129.004397 L131.031997,125.468644 C132.462547,128.291526 134.178547,130.724969 136.285597,133.204617 L128.338647,136.93069" id="path30" fill="#EC5E1A"></path>
                        <path d="M137.128197,134.179315 C137.494497,134.593506 137.872347,135.009348 138.262297,135.43179 L129.971597,139.147411 C129.664147,138.748071 129.366047,138.350932 129.073997,137.954342 L137.128197,134.179315" id="path32" fill="#EC5E1A"></path>
                        <path d="M129.073997,137.954342 C129.366047,138.350932 129.664147,138.748071 129.971597,139.147411 L122.229797,142.618258 C121.959747,142.258522 121.699597,141.896036 121.443847,141.53135 L129.073997,137.954342" id="path34" fill="#FFFFFF"></path>
                        <path d="M120.739847,140.492846 C119.040347,137.916938 117.669747,135.246421 116.578547,132.570404 L123.834697,129.004397 C125.002897,131.766223 126.507697,134.33608 128.338647,136.93069 L120.739847,140.492846" id="path36" fill="#FFFFFF"></path>
                        <path d="M146.398996,142.465893 C143.299196,140.341031 140.603096,137.964243 138.262297,135.43179 L146.137196,131.900987 C149.633546,135.311328 152.866446,137.646861 155.162696,139.102307 L146.398996,142.465893" id="path38" fill="#EC5E1A"></path>
                        <path d="M128.565797,149.310227 C126.107847,147.24092 124.010697,144.985695 122.229797,142.618258 L129.971597,139.147411 C131.871297,141.616608 134.065797,144.000546 136.591947,146.229919 L128.565797,149.310227" id="path40" fill="#EC5E1A"></path>
                        <polyline id="path42" fill="#EC5E1A" points="136.589747 146.229369 138.749047 148.0363 149.300796 144.312978 146.410546 142.465893 136.589747 146.229369"></polyline>
                        <polyline id="path44" fill="#FFFFFF" points="138.749047 148.0363 130.589797 150.915288 128.549297 149.316278 136.590847 146.230469 138.749047 148.0363"></polyline>
                        <polyline id="path46" fill="#FFFFFF" points="149.300796 144.312978 146.410546 142.465893 146.406146 142.463143 155.175346 139.097906 158.588096 141.0352 149.300796 144.312978"></polyline>
                        <path d="M49.8920938,110.000547 C47.6555738,113.537951 46.3220438,116.652912 45.6976839,118.285476 C42.0395239,118.256873 37.9725491,118.572054 33.6080242,119.447742 C34.2424491,117.679315 35.6526491,114.261823 38.278294,110.192516 C41.984744,109.718369 46.0029888,109.537951 49.8920938,110.000547" id="path48" fill="#EC5E1A"></path>
                        <path d="M31.0180742,111.518699 C33.1707742,111.013749 35.6425841,110.53025 38.278294,110.192516 C35.6526491,114.261823 34.2424491,117.679315 33.6080242,119.447742 C31.1473792,119.942241 28.5920243,120.616609 25.9634644,121.508798 C26.8930743,119.223869 28.6049493,115.396037 31.0180742,111.518699" id="path50" fill="#FFFFFF"></path>
                        <path d="M24.4069094,122.058853 C23.4044244,122.42794 22.3942394,122.82783 21.3737145,123.264023 C22.3705894,120.052802 23.9170244,116.484045 25.9724844,112.880085 C26.8915893,112.596807 28.0156243,112.273375 29.2917893,111.944442 C26.7835143,116.168314 25.1367044,120.146862 24.4069094,122.058853" id="path52" fill="#FFFFFF"></path>
                        <path d="M45.6976839,118.285476 C46.3220438,116.652912 47.6555738,113.537951 49.8920938,110.000547 C50.7865037,110.106708 51.6735987,110.249172 52.5486487,110.42684 C50.5523137,113.817379 49.1835288,116.82728 48.5213838,118.383935 C47.6065688,118.33223 46.6726688,118.292626 45.6976839,118.285476" id="path54" fill="#FFFFFF"></path>
                        <path d="M59.1150985,119.981845 C57.4298986,119.560503 55.5780486,119.179865 53.5751687,118.886136 C52.4090037,118.713968 51.1618237,118.569854 49.8426488,118.465344 C50.5720587,116.804177 51.9335287,113.911438 53.8376837,110.720569 C54.9935636,111.011548 56.1225486,111.374035 57.2087986,111.82343 L58.3934985,112.447742 C58.4776485,114.764574 58.6932485,117.307478 59.1150985,119.981845" id="path56" fill="#FFFFFF"></path>
                        <path d="M58.3747985,111.889436 C58.3786485,112.0275 58.3846985,112.169964 58.3890985,112.310228 C58.3912985,112.356983 58.3918485,112.400987 58.3934985,112.447742 L57.2087986,111.82343 C56.1225486,111.374035 54.9935636,111.011548 53.8376837,110.720569 C54.5290886,109.562153 55.2942486,108.365784 56.1236486,107.174915 C56.8122486,109.046202 57.6201986,110.63036 58.3747985,111.889436" id="path58" fill="#EC5E1A"></path>
                        <path d="M55.6308486,105.710118 C54.4822286,107.293727 53.4494937,108.898237 52.5486487,110.42684 C51.6735987,110.249172 50.7865037,110.106708 49.8920938,110.000547 C51.2537837,107.846532 52.9514687,105.538501 55.0247486,103.317929 C55.2001986,104.151813 55.4003986,104.954893 55.6308486,105.710118" id="path60" fill="#EC5E1A"></path>
                        <path d="M119.844997,117.892736 L113.326947,121.105057 C113.213647,120.457643 113.116297,119.823429 113.025547,119.195817 L119.424797,116.166114 C119.555697,116.73377 119.693747,117.307478 119.844997,117.892736" id="path62" fill="#FFFFFF"></path>
                        <path d="M118.562397,111.833881 C118.727397,112.822329 118.920997,113.854783 119.148697,114.92519 L112.853397,117.907038 C112.656497,116.315179 112.529997,114.807478 112.452997,113.409238 C114.558397,113.006048 116.597797,112.482395 118.562397,111.833881" id="path64" fill="#FFFFFF"></path>
                        <path d="M126.282197,114.718919 L119.844997,117.892736 C119.693747,117.307478 119.555697,116.73377 119.424797,116.166114 L125.777847,113.156763 C125.941197,113.674915 126.101797,114.190866 126.282197,114.718919" id="path66" fill="#EC5E1A"></path>
                        <path d="M124.667397,109.303628 C124.893447,110.171064 125.136547,111.055553 125.406597,111.961493 L119.148697,114.92519 C118.920997,113.854783 118.727397,112.822329 118.562397,111.833881 C120.687047,111.13201 122.724247,110.287676 124.667397,109.303628" id="path68" fill="#EC5E1A"></path>
                        <path d="M130.004047,106.085256 C130.378597,107.161163 130.770197,108.209568 131.177197,109.22827 L125.406597,111.961493 C125.136547,111.055553 124.893447,110.171064 124.667397,109.303628 C126.535197,108.358083 128.317747,107.286576 130.004047,106.085256" id="path70" fill="#FFFFFF"></path>
                        <path d="M132.247497,111.780525 L126.282197,114.718919 C126.101797,114.190866 125.941197,113.674915 125.777847,113.156763 L131.647997,110.376235 C131.845997,110.848732 132.043447,111.321779 132.247497,111.780525" id="path72" fill="#FFFFFF"></path>
                        <path d="M37.3101841,103.610558 L37.7394591,103.209568 C40.338649,102.753023 42.8430739,102.107808 45.1246939,101.300328 L45.0802539,101.689766 C42.2139839,104.616609 39.989949,107.542352 38.278294,110.192516 C35.6425841,110.53025 33.1707742,111.013749 31.0180742,111.518699 C32.7600342,108.720019 34.8669741,105.895487 37.3101841,103.610558" id="path74" fill="#EC5E1A"></path>
                        <path d="M35.6178891,103.538501 C33.1198992,106.066554 31.0034442,109.058853 29.2917893,111.944442 C28.0156243,112.273375 26.8915893,112.596807 25.9724844,112.880085 C27.7062493,109.837181 29.8106593,106.772275 32.2555742,103.875135 C33.3802692,103.798127 34.5039191,103.686466 35.6178891,103.538501" id="path76" fill="#EC5E1A"></path>
                        <path d="M28.6580243,53.983607 C20.3715045,53.983607 14.1914846,56.2249711 10.7264847,58.0594045 L13.5115197,68.2480731 L18.6054545,68.2480731 C19.9643395,63.9004384 24.4477194,61.9983483 28.3862143,61.9983483 C30.6957742,61.9983483 33.1407442,63.085807 33.1407442,65.5990083 C33.1407442,67.9757959 31.3753542,68.9279411 25.2619944,69.9466429 C18.3330395,71.1017584 10.9985147,74.2937275 10.9985147,83.5319011 C10.9985147,92.4983475 19.0813695,97.184266 28.8621293,97.184266 C35.9938691,97.184266 42.1061289,95.4185895 45.5028189,93.7887765 L42.7857089,84.1430122 L37.8271291,84.1430122 C36.0615191,87.7436722 32.0529542,89.3745852 28.9297793,89.3745852 C26.1454043,89.3745852 24.6505044,88.0830561 24.6505044,86.3168295 C24.6505044,84.2794258 26.6208793,83.4642443 31.0352342,82.7161695 C40.205439,81.1540134 47.0647638,78.4372918 47.0647638,68.3157299 C47.0647638,58.4664452 38.167414,53.983607 28.6580243,53.983607" id="path78" fill="#FFFFFF"></path>
                        <path d="M78.663748,72.6639146 L73.7742482,72.6639146 C73.4343482,75.5170498 72.6192482,77.4185899 70.0380982,77.4185899 C67.3216483,77.4185899 66.0318983,75.8553336 66.0318983,70.21727 C66.0318983,63.4251909 69.1547983,63.3575342 72.2122482,63.3575342 C73.8809482,63.3575342 76.6303981,63.9972481 78.924998,64.8800864 L80.838998,57.854784 C79.071848,56.0209007 74.7246481,53.9158952 68.2725983,53.9158952 C59.7140485,53.9158952 51.8360137,57.3800866 51.8360137,70.21727 C51.8360137,83.2601739 60.3256485,86.5208999 68.2725983,86.5208999 C74.7246481,86.5208999 78.868348,84.9587438 81.584248,83.7354214 L78.663748,72.6639146" id="path80" fill="#FFFFFF"></path>
                        <path d="M101.901797,78.029701 C99.6605475,78.029701 98.5066475,76.8074788 98.5066475,70.21727 C98.5066475,63.6292613 99.6605475,62.405939 101.901797,62.405939 C104.075947,62.405939 105.298047,63.6292613 105.298047,70.21727 C105.298047,76.8074788 104.075947,78.029701 101.901797,78.029701 Z M101.901797,53.9158952 C91.1041977,53.9158952 84.3116979,58.8063792 84.3116979,70.21727 C84.3116979,81.5621542 91.1041977,86.5208999 101.901797,86.5208999 C112.633947,86.5208999 119.494647,81.5621542 119.494647,70.21727 C119.494647,58.8063792 112.633947,53.9158952 101.901797,53.9158952 Z" id="path82" fill="#FFFFFF"></path>
                        <path d="M172.445346,53.9158952 C164.702996,53.9158952 157.978696,55.8162802 157.978696,55.8162802 L160.152846,64.376236 L164.022646,64.376236 C165.585196,61.2513736 167.962846,60.3685353 171.018646,60.3685353 C173.191696,60.3685353 174.754246,61.2513736 174.754246,62.6100094 C174.754246,64.1721656 174.007346,65.056104 170.475796,65.5990083 C163.411596,66.6848168 158.453896,69.6749157 158.453896,76.3322313 C158.453896,83.5319011 165.109446,86.5208999 173.055296,86.5208999 C180.459395,86.5208999 186.776695,84.2117691 186.776695,84.2117691 L184.602545,77.0115492 L180.731645,77.0115492 C179.373696,80.0682048 176.792546,80.5434523 174.889546,80.5434523 C172.648296,80.5434523 171.426196,79.8641344 171.426196,78.369635 C171.426196,77.079206 172.581746,76.2634744 175.910346,75.7876769 C183.516845,74.6336615 187.864045,71.8487331 187.864045,64.5797564 C187.864045,56.9719458 181.004995,53.9158952 172.445346,53.9158952" id="path84" fill="#FFFFFF"></path>
                        <path d="M145.820396,15.6056652 L138.179247,10.7866884 L130.536997,15.6056652 L132.369597,78.3921873 L131.281147,78.3921873 C127.480097,78.3921873 126.776097,77.3047285 126.341597,75.0264008 L121.834347,75.8410322 L122.973947,85.4532432 L153.382896,85.4532432 L154.523046,75.8410322 L150.016346,75.0264008 C149.582946,77.3047285 148.930646,78.3921873 145.074046,78.3921873 L143.989996,78.3921873 L145.820396,15.6056652" id="path86" fill="#FFFFFF"></path>
                        <path d="M133.696747,107.677665 C133.696747,109.983496 135.702047,111.850382 138.179247,111.850382 C140.652046,111.850382 142.658996,109.983496 142.658996,107.677665 L133.696747,107.677665" id="path88" fill="#FFFFFF"></path>
                        <path d="M149.197396,101.431791 C149.197396,101.431791 147.070546,104.535201 142.734896,105.439491 C145.934796,102.892737 147.610096,95.1782154 144.886496,88.0687547 L150.600996,88.0687547 C150.600996,88.0687547 152.999546,96.3399316 149.197396,101.431791" id="path90" fill="#EC5E1A"></path>
                        <path d="M142.888346,92.193067 L140.837396,93.8459823 L142.771746,96.1798656 L140.731246,98.1683144 L142.734896,100.174915 L140.923196,102.43014 L142.734896,105.439491 C137.558847,105.933991 132.292597,104.771174 132.292597,104.771174 L127.910197,100.470845 C128.904047,99.2282703 130.676697,99.0863562 132.104497,99.5940569 C131.667797,98.5115487 131.222847,97.6672143 131.222847,97.6672143 L132.250797,95.5979074 L131.586397,93.7211198 L132.665497,91.6996677 L132.132547,89.9576435 L133.140147,88.0687547 L142.734896,88.0687547 L141.094796,90.1397117 L142.888346,92.193067" id="path92" fill="#FFFFFF"></path>
                        <path d="M90.7890477,128.177665 L98.3740975,130.810778 C98.3740975,130.810778 96.9666476,133.821229 96.2285476,137.992846 L88.8750478,135.264573 C88.8750478,135.264573 89.3821478,131.322879 90.7890477,128.177665 Z M86.2867478,136.724419 L98.1447475,141.361933 C99.2287975,135.375134 101.457947,129.499447 101.457947,129.499447 L89.3832478,125.370184 C87.2156978,130.117709 86.2867478,136.724419 86.2867478,136.724419 Z" id="path94" fill="#FFFFFF"></path>
                        <path d="M123.439247,35.3855327 C123.426597,35.4443886 119.782297,32.9264018 113.897847,31.207865 C108.051897,29.4698562 100.102197,28.797084 93.3322477,29.9405933 C86.5336978,30.9306923 79.159298,34.3977989 74.5931981,38.4883929 C69.9242483,42.4988438 67.8694483,46.4676006 67.8160983,46.3988437 C67.8622983,46.4652354 70.4203482,42.8091298 75.2861981,39.3718912 C80.081648,35.8410332 87.2261478,33.1076999 93.6941477,32.1595151 C100.139597,31.0703513 107.795047,31.1468639 113.632747,32.2998342 C119.492447,33.4263468 123.428797,35.4394381 123.439247,35.3855327" id="path96" fill="#EC5E1A"></path>
                        <path d="M83.1731979,86.0054984 C83.2144479,85.9438922 84.7566479,88.4581936 88.1237478,90.7706248 C91.4110977,93.1881165 96.6250976,94.7266203 101.160397,94.7992276 C105.706147,95.0258502 110.926747,93.5643541 114.398347,91.4917469 C117.900197,89.3877865 119.615097,86.9950473 119.648097,87.0528031 C119.620597,87.0005479 117.466247,88.9906468 113.892897,90.4884466 C110.315147,91.9636941 105.448747,92.7607238 101.210447,92.5517029 C96.9963476,92.4746952 92.1172977,91.6259603 88.6924478,89.8008778 C85.2191979,88.092407 83.2067479,85.9499428 83.1731979,86.0054984" id="path98" fill="#EC5E1A"></path>
                        <path d="M67.6725483,93.8305807 C67.7346983,93.7508227 69.8769483,97.9878963 74.8791981,102.174915 C79.754398,106.477445 87.6952978,109.896587 94.9112976,110.715069 C102.095397,111.693617 110.529647,110.752472 116.587897,108.466994 C122.725897,106.32343 126.316847,103.253023 126.341597,103.336631 C126.320147,103.259073 122.389297,105.848182 116.254597,107.393287 C110.183697,109.087456 102.061847,109.418039 95.2027976,108.486246 C88.3266978,107.699117 80.654748,105.015949 75.5628481,101.283276 C70.3785482,97.6804156 67.7269983,93.753023 67.6725483,93.8305807" id="path100" fill="#FFFFFF"></path>
                        <path d="M117.472297,51.5010438 C117.447547,51.5609998 115.617147,49.5677105 112.226397,47.9933981 C108.886797,46.3487887 104.068247,45.3690308 99.9036475,45.6919681 C95.7236476,45.8498888 91.0271977,47.5067095 88.0269478,49.7316269 C84.9623479,51.8811318 83.5081479,54.1524739 83.4712979,54.0985685 C83.5020979,54.1486235 85.4116979,52.2552242 88.6011478,50.6974685 C91.7548477,49.0554443 96.1630976,48.0857524 100.040047,47.9355874 C103.914797,47.6380076 108.422047,47.9873475 111.822147,49.0430131 C115.249747,50.0193607 117.450847,51.5556093 117.472297,51.5010438" id="path102" fill="#FFFFFF"></path>
                        <path d="M83.4382979,93.4185895 L81.677198,91.7519229 L80.878048,92.312979 C81.167898,92.5874564 81.138748,92.7260703 80.922048,92.9554432 L80.168548,93.7524729 C79.989798,93.9411418 79.627898,94.3910867 79.627898,94.3910867 C79.627898,94.3910867 79.829198,93.8272804 79.905098,93.4895466 L80.197148,92.1809658 L79.637798,91.6507128 L78.353548,92.0082485 C78.007598,92.103408 77.4625481,92.3415818 77.4625481,92.3415818 C77.4625481,92.3415818 77.8854981,91.9620439 78.089548,91.7458723 L78.823798,90.9702948 C79.040498,90.7409218 79.177448,90.7040681 79.467848,90.9790956 L79.983748,90.1501628 L78.317248,88.572605 L77.5180981,89.1331111 C77.8084981,89.4081386 77.7793481,89.5462024 77.5620981,89.7761254 L75.5446981,91.9081385 C75.3274481,92.1380615 75.1910481,92.1738151 74.9011981,91.8998877 L74.3841981,92.7288206 L75.9362981,94.1974674 L78.583448,93.4543431 L77.9740481,96.1259602 L79.505798,97.5753551 L80.304948,97.0137489 C80.014548,96.7392715 80.043148,96.6001076 80.260948,96.3712847 L82.2783479,94.2387215 C82.4950479,94.0093486 82.6314479,93.973595 82.9223979,94.2475224 L83.4382979,93.4185895" id="path104" fill="#FFFFFF"></path>
                        <path d="M85.2747479,98.4262902 C85.0096479,98.7172693 84.4667979,99.5253 84.4667979,99.5253 C84.4667979,99.5253 84.7538979,98.5654541 84.8286979,98.1958171 L85.0189979,97.2596235 L85.9105479,97.7194695 L85.2747479,98.4262902 Z M89.5960978,96.6314607 L87.3845478,95.4906467 L86.7723978,96.2513727 C86.9703978,96.3531329 87.0270478,96.4867963 86.8119978,96.7211197 L86.7151978,96.8278304 L85.2543979,96.073705 L85.2851979,95.9328909 C85.3511979,95.6226599 85.5172979,95.603958 85.7482979,95.7233199 L86.0139478,94.783276 L84.1477979,93.8212298 L83.5367479,94.5814058 C83.8579479,94.7475224 83.9354979,94.8608337 83.8821479,95.2095686 L83.3607479,98.2860261 C83.3200479,98.5467522 83.1940979,98.6908666 82.8475979,98.5120987 L82.5819479,99.4515927 L85.9083479,101.167764 L86.5210478,100.406488 C86.1739978,100.22772 86.1926978,100.070405 86.3818978,99.8855861 L88.6203978,97.6534629 C88.8596478,97.4114387 88.9844978,97.3921868 89.3309978,97.5709547 L89.5960978,96.6314607 Z" id="path106" fill="#FFFFFF"></path>
                        <path d="M91.8488977,102.050603 L91.3544477,101.92354 L91.6882977,100.62871 L92.1469977,100.745872 C92.5963477,100.862484 92.7563977,101.210669 92.6661977,101.561054 C92.5726977,101.92134 92.2987977,102.166664 91.8488977,102.050603 Z M95.8979976,98.2887764 L93.8382477,97.7579734 C92.8102977,98.5098985 93.2953977,99.8624838 92.2074977,99.5819557 L91.9737477,99.5214497 L92.1678977,98.7667742 C92.2470977,98.4603936 92.3488477,98.3613837 92.7354977,98.4614937 L92.7855477,97.4867962 L90.3215477,96.8509327 L89.8936478,97.7293705 C90.2802977,97.8283804 90.3220977,97.964244 90.2434477,98.2695245 L89.5108478,101.112209 C89.4321978,101.418589 89.3298978,101.516499 88.9432478,101.416939 L88.8931978,102.392737 L91.8972977,103.166664 C93.3008977,103.5286 94.2650476,103.210668 94.5411476,102.140812 C94.7121976,101.475245 94.4861476,100.936741 93.8745477,100.482396 C94.6445476,100.508248 94.9937976,100.012099 95.0790476,99.6798655 L95.1180976,99.5269502 C95.1972976,99.2205696 95.3083976,99.12486 95.7038476,99.2271702 L95.8479476,99.2634739 L95.8979976,98.2887764 Z" id="path108" fill="#FFFFFF"></path>
                        <path d="M100.944247,103.042902 L99.6264475,100.775575 L99.6907975,99.9702945 C99.7160975,99.655113 99.8002475,99.5407016 100.197897,99.5731548 L100.080197,98.6034079 L97.5435976,98.3998875 L97.2718976,99.3382813 C97.6706476,99.3696345 97.7344476,99.4961471 97.7091476,99.8107786 L97.6447976,100.616609 L95.9909476,102.646312 C95.7538976,102.934541 95.6719476,103.0209 95.3017976,102.991197 L95.4189476,103.969744 L98.0759975,104.183166 L98.3482475,103.235971 C98.0979975,103.216169 97.9665476,103.111659 98.1859975,102.82178 L98.8025475,101.985696 L99.2969975,102.910889 C99.4586975,103.213419 99.3107475,103.312979 99.0236475,103.289326 L99.1413475,104.268424 L101.307247,104.442242 L101.578947,103.495047 C101.218147,103.465894 101.132897,103.365784 100.944247,103.042902" id="path110" fill="#FFFFFF"></path>
                        <path d="M108.063997,102.620459 L106.086197,98.4119887 L104.104547,98.5759051 L102.843397,103.051703 C102.749347,103.385586 102.644847,103.468644 102.284047,103.498347 L102.557947,104.444992 L105.084647,104.236521 L105.199597,103.257973 C104.930647,103.270624 104.847597,103.165564 104.907547,102.881186 L105.197947,101.542902 C105.299147,101.077555 105.362947,100.158963 105.362947,100.158963 C105.362947,100.158963 105.613747,101.051703 105.808997,101.492297 L106.361747,102.760724 C106.486597,103.039601 106.375497,103.160613 106.079047,103.184816 L106.352947,104.132011 L108.574397,103.948842 L108.689347,102.969744 C108.319197,102.999997 108.212497,102.943892 108.063997,102.620459" id="path112" fill="#FFFFFF"></path>
                        <path d="M111.328797,97.4279404 L108.849947,98.0054981 L108.877447,98.9818457 C109.266297,98.8910866 109.366397,98.9922968 109.438447,99.3003276 L110.103947,102.158413 C110.175997,102.465894 110.131447,102.600658 109.742047,102.691417 L110.149047,103.578655 L112.627897,103.001098 L112.600947,102.02475 C112.211547,102.115509 112.111997,102.014299 112.040497,101.706818 L111.373347,98.8481823 C111.301847,98.5407016 111.346947,98.4064882 111.735797,98.3151791 L111.328797,97.4279404" id="path114" fill="#FFFFFF"></path>
                        <path d="M116.597797,95.5115488 L112.336397,97.1875663 L112.505247,98.1490625 C112.876497,98.0027478 112.990347,98.0880063 113.105847,98.3822858 L114.179997,101.113859 C114.295497,101.408138 114.270747,101.547302 113.898947,101.693617 L114.430247,102.512649 L116.798547,101.580856 L116.630797,100.619359 C116.250197,100.768424 116.145147,100.679865 116.029647,100.386136 L114.904347,97.52475 L115.725497,97.2018678 C116.295847,96.9774453 116.455897,97.053903 116.723197,97.4284904 L117.407397,97.0098986 L116.597797,95.5115488" id="path116" fill="#FFFFFF"></path>
                        <path d="M121.079747,92.7260703 L117.212697,95.1793156 L117.560297,96.0918568 C117.897997,95.8784354 118.025597,95.9400416 118.194447,96.2062682 L119.766897,98.684816 C119.935747,98.9521427 119.938497,99.0940569 119.600797,99.3074783 L120.278397,100.010999 L122.427247,98.6474123 L122.079647,97.7354211 C121.734247,97.954343 121.614347,97.8872363 121.446047,97.6204596 L119.798247,95.0242 L120.543497,94.5511528 C121.060497,94.2227699 121.233197,94.2678744 121.565947,94.5841561 L122.157747,94.044002 L121.079747,92.7260703" id="path118" fill="#FFFFFF"></path>
                        <path d="M124.917097,89.0577535 L121.621497,92.2766754 L122.150597,93.0979075 C122.436047,92.8184795 122.573547,92.853133 122.794647,93.0792056 L124.845047,95.1793156 C125.066147,95.4048381 125.096947,95.5429019 124.811497,95.8228799 L125.618897,96.3707347 L128.808347,93.2552232 L127.718797,92.1386116 L127.096197,92.5649042 C127.334347,92.9548932 127.306847,93.0995576 126.861347,93.5341011 L126.429047,93.9565433 L125.670047,93.1787655 L125.975297,92.8806357 C126.267897,92.5946071 126.406497,92.5242001 126.614397,92.7370714 L127.042847,92.0583035 L126.011047,91.0021979 L125.322997,91.4147392 C125.524297,91.6210098 125.457197,91.7634741 125.164597,92.0495026 L124.858797,92.3481825 L124.073947,91.5445522 L124.731197,90.9015379 C125.196497,90.4471925 125.412647,90.4961474 125.738247,90.72277 L126.192547,90.0847062 L124.917097,89.0577535" id="path120" fill="#FFFFFF"></path>
                        <path d="M83.3392979,40.3669407 C81.935698,41.1673257 81.207498,42.5545094 82.2513979,44.3866326 C83.2122479,46.0737612 84.7307979,46.3739262 86.2636478,45.5004939 C87.2162478,44.9581947 87.6061978,44.3294818 87.8608478,43.8746414 L86.7905478,42.7837723 L86.2091978,43.1155105 C86.3554978,43.5774467 86.2091978,43.9598999 85.8060479,44.1898229 C85.2164479,44.5258515 84.7258479,44.4525841 84.0916979,43.3383378 C83.4564479,42.2248614 83.6362979,41.7695809 84.2412979,41.4247514 C84.6856979,41.1722762 85.1102979,41.3359726 85.3726479,41.6462586 L85.9528979,41.3151255 L85.5519479,39.8228813 C84.8644479,39.7975788 84.1549479,39.9026393 83.3392979,40.3669407" id="path122" fill="#FFFFFF"></path>
                        <path d="M90.9276477,42.1282168 C90.3616977,42.3091299 89.9876978,42.1161706 89.5696978,40.8063246 C89.1489478,39.4879528 89.3447478,39.1233214 89.9117978,38.9421882 C90.5041477,38.7530793 90.8484477,38.9455986 91.2686477,40.2640254 C91.6866477,41.5736513 91.5205477,41.9384478 90.9276477,42.1282168 Z M89.5218478,37.7211212 C87.8938478,38.2408681 86.8521478,39.2558846 87.5528478,41.4511541 C88.2529978,43.6451584 89.6895978,43.8690308 91.3175977,43.3492838 C92.9813477,42.8185358 93.9867477,41.8146854 93.2860477,39.619416 C92.5864477,37.4256316 91.1850477,37.189713 89.5218478,37.7211212 Z" id="path124" fill="#FFFFFF"></path>
                        <path d="M98.6677975,36.0110002 L94.1275476,36.6044545 L94.0582476,37.5786569 C94.4531476,37.5268417 94.5427976,37.6364127 94.5840476,37.949944 L94.9646476,40.860285 C95.0053476,41.1737613 94.9470476,41.3024742 94.5515976,41.3546744 L94.8683976,42.2777217 L97.3923476,41.9483488 L97.4616476,40.9741464 C97.0568476,41.0274467 96.9759976,40.9159506 96.9352976,40.6028593 L96.5365476,37.5539045 L97.4110476,37.4400431 C98.0198975,37.3603401 98.1562975,37.4731564 98.3240475,37.9004941 L99.0890975,37.6607251 L98.6677975,36.0110002" id="path126" fill="#FFFFFF"></path>
                        <path d="M104.585797,35.9972488 L100.007047,35.9366328 L99.7996975,36.8916932 C100.199547,36.8960387 100.272147,37.0180409 100.267747,37.3338825 L100.228697,40.269636 C100.225397,40.5848175 100.149497,40.7047295 99.7496475,40.6991189 L99.9322475,41.6589098 L102.477097,41.6920232 L102.684997,40.7382278 C102.275797,40.7326722 102.212547,40.610615 102.216947,40.2953785 L102.257097,37.2206811 L103.138747,37.2320673 C103.752547,37.2404281 103.870797,37.3723863 103.977497,37.819086 L104.768397,37.6903731 L104.585797,35.9972488" id="path128" fill="#FFFFFF"></path>
                        <path d="M110.411397,36.7331674 L105.851347,36.0779969 L105.521897,36.9971938 C105.917897,37.0539595 105.973997,37.1848176 105.929447,37.4967537 L105.511447,40.4026393 C105.466347,40.7156755 105.375597,40.8239814 104.980697,40.7668307 L105.037897,41.7425182 L109.450547,42.3767866 L109.672197,40.8323422 L108.955547,40.5973037 C108.790547,41.0235963 108.659647,41.0897679 108.043097,41.0009891 L107.445797,40.9152905 L107.600897,39.8394379 L108.023297,39.9004941 C108.428097,39.9586899 108.567797,40.0259616 108.525997,40.319691 L109.324597,40.2470287 L109.534697,38.7855326 L108.788897,38.490098 C108.748747,38.7750265 108.593097,38.809625 108.188297,38.7502741 L107.765897,38.6903731 L107.925947,37.5775568 L108.835647,37.7084149 C109.479147,37.8008241 109.572647,38.0017042 109.590247,38.3987889 L110.373997,38.3701861 L110.411397,36.7331674" id="path130" fill="#FFFFFF"></path>
                        <path d="M116.754547,40.890593 C116.366247,40.7635853 116.324447,40.6222212 116.423997,40.3218362 L116.499347,40.0930133 C116.588997,39.8190309 116.683597,39.8020892 116.851347,39.8570947 L116.968497,38.9367977 C116.133047,38.6220012 116.036247,38.2964787 114.933497,37.9322873 C113.318697,37.3998891 111.733597,37.669526 111.043897,39.760175 C110.406447,41.6920232 111.327147,42.9642454 113.082197,43.5428482 C114.079347,43.8724962 114.930197,43.7519241 115.411997,43.6567646 L115.504397,42.1320672 L114.869147,41.9219461 C114.571047,42.381077 114.183297,42.5175457 113.689397,42.3548944 C112.940297,42.1078097 112.653197,41.640868 113.055247,40.4234313 C113.465547,39.179812 113.837897,38.9702961 114.551797,39.2058296 C114.649147,39.2376228 114.831197,39.3370727 114.904897,39.3811321 L114.773997,39.7784368 C114.674997,40.0781618 114.557847,40.1660606 114.170097,40.0383928 L114.125547,40.0242564 L114.011697,40.9939484 L116.313447,41.7530243 L116.798547,40.9053895 L116.754547,40.890593" id="path132" fill="#FFFFFF"></path>
                        <path d="M122.929947,41.8817371 L118.930347,39.5947185 L118.286297,40.3284918 C118.633347,40.5264016 118.637747,40.6677658 118.480997,40.9421332 L117.024047,43.490648 C116.866747,43.7646304 116.742997,43.8322871 116.395947,43.6342123 L116.090147,44.56155 L119.960497,46.7750813 L120.735447,45.4203509 L120.154647,44.9383927 C119.844447,45.2751364 119.698697,45.2875676 119.158047,44.9786017 L118.634447,44.6788768 L119.173997,43.7353674 L119.544697,43.9476887 C119.899447,44.150714 120.005047,44.2645754 119.857647,44.5226612 L120.626547,44.7491188 L121.360247,43.4669956 L120.775597,42.9180407 C120.632597,43.1683708 120.475847,43.1423532 120.120547,42.9395479 L119.750397,42.7272267 L120.308097,41.7513191 L121.105597,42.2085798 C121.670997,42.530857 121.683097,42.7519241 121.554397,43.1275567 L122.292497,43.3900979 L122.929947,41.8817371" id="path134" fill="#FFFFFF"></path>
                        <path d="M66.4421983,84.2238703 C70.0991482,84.0060485 72.8617982,83.2464226 75.0111981,82.4213401 C74.7042981,81.260174 74.2912481,79.6936174 73.8963482,78.1974678 C74.8555481,77.2519233 75.3626481,75.9955977 75.6420481,74.8916373 L76.9460981,74.8916373 C77.4531981,76.8129794 78.371698,80.2975778 78.933248,82.4213401 C76.3900481,83.3965876 73.0042482,84.291527 68.2725983,84.291527 C67.6395483,84.291527 67.0323483,84.2667746 66.4421983,84.2238703 Z M17.1445446,66.0192503 L15.2131096,66.0192503 C15.0504746,65.4218906 14.8514846,64.695818 14.6416046,63.9284913 C17.1262846,61.0902075 21.0020245,59.7689754 24.4659794,59.7689754 C25.0926494,59.7689754 25.6860994,59.8316817 26.2496293,59.9383923 C22.6305744,60.4884473 18.9610295,62.4400424 17.1445446,66.0192503 Z M73.6862482,61.2343219 C73.9601482,60.2282713 74.1526481,59.5220007 74.3869481,58.6622648 C72.9244982,57.6606146 70.2525982,56.5115497 66.3035983,56.2183704 C66.9360983,56.1727159 67.5883983,56.1446631 68.2725983,56.1446631 C73.3083982,56.1446631 76.6171981,57.5038489 78.308998,58.6622648 C78.016398,59.7321217 77.7925481,60.555004 77.3915981,62.0269511 C76.0880981,61.6496134 74.8054981,61.375136 73.6862482,61.2343219 Z M101.901797,84.291527 C101.225297,84.291527 100.572997,84.2689748 99.9410475,84.2299209 C108.952797,83.6644644 113.342897,79.0665547 113.342897,70.21727 C113.342897,61.3690854 108.952797,56.7711757 99.9410475,56.2068193 C100.572997,56.1672153 101.225297,56.1446631 101.901797,56.1446631 C112.239047,56.1446631 117.264947,60.7491734 117.264947,70.21727 C117.264947,79.6875668 112.239047,84.291527 101.901797,84.291527 Z M175.575946,73.5836065 C173.844546,73.8311313 169.198146,74.4944976 169.198146,78.369635 C169.198146,79.260174 169.510546,81.8861366 172.985996,82.5924072 C172.371646,82.7068186 171.701746,82.7728252 170.969146,82.7728252 C165.685846,82.7728252 165.274996,79.4020882 165.274996,78.369635 C165.274996,74.4944976 169.922496,73.8311313 171.654446,73.5836065 C178.987046,72.4708453 181.713395,70.0308013 181.713395,64.5797564 C181.713395,58.0715057 175.216796,56.474146 170.310796,56.1952681 C171.010946,56.164465 171.723196,56.1446631 172.445346,56.1446631 C177.370596,56.1446631 185.634345,57.2409227 185.634345,64.5797564 C185.634345,70.0308013 182.907445,72.4708453 175.575946,73.5836065 Z M30.6603542,80.5186999 C27.3807593,81.0737053 22.4210794,81.9136393 22.4210794,86.3168295 C22.4210794,88.5473025 23.8745094,90.7887766 27.0542243,91.4207898 C26.3553393,91.542902 25.6669594,91.6023079 25.0078394,91.6023079 C20.5121945,91.6023079 18.4995245,88.9477426 18.4995245,86.3168295 C18.4995245,81.9136393 23.4592044,81.0737053 26.7394593,80.5186999 C35.9315541,78.9526933 40.913784,76.5440025 40.913784,68.3157299 C40.913784,60.0632548 33.4769592,56.7321218 26.4590693,56.2711757 C27.1717043,56.2354221 27.9017743,56.2123198 28.6580243,56.2123198 C36.1205891,56.2123198 44.8361639,59.3828368 44.8361639,68.3157299 C44.8361639,76.5440025 39.853494,78.9526933 30.6603542,80.5186999 Z M179.713596,81.5181498 C180.726145,80.8839364 181.475245,80.0748055 182.028545,79.2409221 L182.947045,79.2409221 C183.308945,80.4378418 183.563045,81.2783258 184.000845,82.7299209 C181.669395,83.3740353 177.571346,84.291527 173.055296,84.291527 C172.527846,84.291527 171.896446,84.2750254 171.207296,84.2271706 C174.881846,84.010999 178.110896,83.2739253 180.079345,82.7299209 C179.941296,82.2744754 179.824146,81.8828362 179.713596,81.5181498 Z M162.771946,62.1474132 L161.885896,62.1474132 C161.679646,61.3360821 161.477796,60.5390524 161.261646,59.6914176 C163.220196,58.3696355 165.385546,58.1391625 167.097696,58.1391625 C167.705996,58.1391625 168.279646,58.1980183 168.816446,58.3030789 C166.759446,58.6325618 164.492896,59.5814067 162.771946,62.1474132 Z M37.6545941,88.0698548 C38.175169,87.5605039 38.656419,86.9983477 39.078599,86.3723851 L41.097484,86.3723851 C41.581264,88.0902068 42.2801489,90.5693047 42.8241539,92.5010978 C39.475369,93.7876764 34.4914341,94.9559932 28.8621293,94.9559932 C28.2917243,94.9559932 27.7126843,94.9356412 27.1315543,94.8960372 C31.8559442,94.6446621 35.9949141,93.6182595 38.902214,92.5010978 C38.519744,91.1419119 38.061704,89.5153993 37.6545941,88.0698548 Z M99.9316975,79.9334413 C99.3706975,80.1413621 98.7260975,80.2585238 97.9802976,80.2585238 C92.7899477,80.2585238 92.3554477,75.0764558 92.3554477,70.21727 C92.3554477,65.3597343 92.7899477,60.1771162 97.9802976,60.1771162 C98.7260975,60.1771162 99.3706975,60.2937279 99.9316975,60.5016487 C96.6052976,61.6936178 96.2774976,66.0682052 96.2774976,70.21727 C96.2774976,74.3679849 96.6052976,78.7425723 99.9316975,79.9334413 Z M69.8477983,61.2442229 C67.0213483,61.6221107 63.8021984,63.2447729 63.8021984,70.21727 C63.8021984,72.6952677 63.8038484,78.0918572 68.0250983,79.3707351 C67.4701483,79.5462026 66.8387483,79.6479628 66.1165983,79.6479628 C59.8806985,79.6479628 59.8806985,73.0396021 59.8806985,70.21727 C59.8806985,61.1281613 65.3509984,61.1281613 68.2901983,61.1281613 C68.7543983,61.1281613 69.2829483,61.1710656 69.8477983,61.2442229 Z" id="path136" fill="#EC5E1A"></path>
                        <path d="M141.694296,81.240372 L145.074046,81.240372 C148.576446,81.240372 150.510796,80.3641344 151.535996,78.1853666 C151.792846,78.2332214 152.062896,78.2816262 152.062896,78.2816262 L151.402346,83.2238703 L124.954497,83.2238703 L124.294497,78.2816262 C124.294497,78.2816262 124.569497,78.2304711 124.832947,78.1831664 C125.870797,80.340482 127.833747,81.240372 131.281147,81.240372 L134.664197,81.240372 L141.694296,81.240372" id="path138" fill="#EC5E1A"></path>
                        <polyline id="path140" fill="#EC5E1A" points="141.724546 78.3921873 143.555496 16.8112757 138.179247 19.2188114 138.179247 78.3921873 141.724546 78.3921873"></polyline>
                        <path d="M138.174297,110.583056 C138.909647,110.583056 139.575697,110.380085 140.057496,110.052252 C140.539296,109.72552 140.838496,109.273375 140.838496,108.773375 L138.170447,108.773375 L138.174297,110.583056" id="path142" fill="#EC5E1A"></path>
                        <path d="M143.555496,16.8112757 C142.254196,15.9907037 139.592747,14.3123759 138.179247,13.4220019 C136.766297,14.3123759 134.104297,15.9907037 132.802997,16.8112757 L138.179247,19.2188114 L143.555496,16.8112757" id="path144" fill="#EC5E1A"></path>
                        <path d="M74.4688981,115.523649 C76.5946481,117.008798 81.746498,118.305828 84.3413979,118.301977 C82.3663479,118.799227 75.1068981,117.668864 72.1489982,115.602307 L72.8419982,108.22717 L74.4688981,115.523649" id="path146" fill="#FFFFFF"></path>
                        <path d="M64.6640484,97.084156 L62.1648484,100.059953 C62.4398484,105.481295 66.2865483,109.798127 68.1356483,111.575355 L66.7908983,112.5286 C66.7908983,112.5286 60.2068485,107.289326 59.8443985,100.139161 L63.6355484,95.6254102 C63.9660984,96.1199096 64.3125984,96.603958 64.6640484,97.084156" id="path148" fill="#FFFFFF"></path>
                        <path d="M84.3413979,118.301977 C81.746498,118.305828 76.5946481,117.008798 74.4688981,115.523649 L72.8419982,108.22717 L68.1345483,111.574255 C66.2859983,109.797027 62.4398484,105.480195 62.1648484,100.059953 L64.6640484,97.084156 C64.3125984,96.603958 63.9660984,96.1199096 63.6355484,95.6254102 C65.2096484,97.9884464 67.0334483,100.180966 69.1014483,102.184266 C74.1454981,107.069854 80.354448,110.538501 87.4389978,112.501647 L84.3413979,118.301977" id="path150" fill="#EC5E1A"></path>
                        <path d="M82.6638979,146.469193 C78.389848,145.102307 74.9550981,143.965893 74.9550981,143.965893 C66.9894483,135.906487 64.1640984,126.117159 63.5156484,117.619909 C64.9038484,125.512098 68.2786483,134.376234 75.7030981,141.887785 C75.7030981,141.887785 78.741848,142.892186 82.6589479,144.149611 C82.6391479,144.921339 82.6407979,145.695266 82.6638979,146.469193" id="path152" fill="#FFFFFF"></path>
                        <path d="M179.110246,99.5440019 L173.428196,102.466444 L177.223746,106.432341 C176.150696,108.649062 174.571096,110.696917 172.275946,112.304178 L151.455146,104.409238 C151.455146,104.409238 158.341146,98.4460921 156.224746,89.0175995 C167.096046,94.8580834 177.765496,93.2211198 179.130046,92.9785455 C179.310996,94.8492826 179.378096,97.1419118 179.110246,99.5440019" id="path154" fill="#EC5E1A"></path>
                        <path d="M180.749245,101.206818 L179.542546,101.414189 L173.428196,102.466444 L179.110246,99.5440019 C179.380296,97.1182594 179.309896,94.8025279 179.125646,92.9218899 C179.449596,92.8789856 179.767496,92.833331 180.080995,92.7865763 C180.953845,95.8415818 181.078145,98.6628138 180.749245,101.206818 Z M172.275946,112.304178 L151.455146,104.409238 L172.850146,115.583055 C172.850146,115.583055 176.289846,112.788226 178.676846,107.951042 L177.223746,106.431791 C176.150696,108.649062 174.571096,110.696917 172.275946,112.304178 Z" id="path156" fill="#FFFFFF"></path>
                        <path d="M96.6421476,136.025299 L89.1978978,133.405937 C89.4893978,131.975794 89.9959478,129.950492 90.7890477,128.177665 L98.3740975,130.810778 C98.3740975,130.810778 97.3956476,132.909238 96.6421476,136.025299" id="path158" fill="#EC5E1A"></path>
                        <path d="M96.2576976,152.524199 L100.918397,151.592405 C100.794647,152.100656 100.674747,152.608907 100.558147,153.118808 L96.3489976,153.960392 L86.9109978,151.632009 C86.0282478,146.679314 86.2377978,141.745321 87.1760978,137.071504 L96.8989976,140.874584 C96.2120476,145.251922 96.0948976,149.255772 96.2576976,152.524199" id="path160" fill="#EC5E1A"></path>
                        <path d="M92.3587477,123.204617 C94.3277476,119.721119 96.6168476,116.697467 98.9719475,114.310778 C99.9388475,114.357533 100.913447,114.388886 101.901797,114.388886 C104.519797,114.388886 107.060247,114.217269 109.521497,113.888886 C105.950347,117.859733 103.281747,122.062703 101.313297,126.260723 L92.3587477,123.204617" id="path162" fill="#EC5E1A"></path>
                        <path d="M132.075347,169.620458 L127.050547,171.219468 L126.733197,164.833329 L125.187147,164.788775 L123.261597,172.365782 C123.261597,172.365782 109.470347,177.433439 99.6077475,174.515947 L99.3783975,172.232669 C99.3783975,172.232669 101.533297,170.661712 105.160547,170.591305 L103.942297,159.221668 L109.546247,159.14246 L105.562597,156.400986 C110.190297,156.603956 112.295697,152.854782 112.295697,152.854782 C108.063447,154.171613 105.863447,154.112757 104.898197,153.945541 C104.779397,153.405387 104.653447,152.847081 104.543997,152.288775 C105.985547,152.322878 108.219647,152.14081 110.569247,151.0341 C110.065997,149.391635 105.139647,150.64026 104.292647,149.100106 C104.528597,147.224969 105.817797,146.013748 109.713447,146.746971 C118.831897,148.696366 124.554097,157.43619 126.987297,162.032449 C131.409297,162.068203 133.035647,168.880634 132.075347,169.620458" id="path164" fill="#FFFFFF"></path>
                        <polygon id="path166" fill="#FFFFFF" points="100.141797 167.074253 102.095397 166.702966 101.600397 161.585254"></polygon>
                        <path d="M104.666097,178.221668 C101.841297,178.030249 99.6440475,177.414187 99.6440475,177.414187 L99.4146975,182.324528 C101.205497,182.927388 103.193747,183.201866 104.587997,183.287124 L104.666097,178.221668" id="path168" fill="#FFFFFF"></path>
                        <polyline id="path170" fill="#FFFFFF" points="131.396647 172.760722 118.323147 176.815177 119.065097 181.667212 132.139147 177.613857 131.396647 172.760722"></polyline>
                        <path d="M101.049297,181.152911 L101.117497,179.303076 C101.636697,179.403186 102.248297,179.508246 102.935247,179.601206 L102.867597,181.437289 C102.194947,181.351481 101.580597,181.251371 101.049297,181.152911" id="path172" fill="#5B0F1B"></path>
                        <polyline id="path174" fill="#5B0F1B" points="128.470097 177.261272 128.207197 175.429039 129.974347 174.881734 130.237797 176.713967 128.470097 177.261272"></polyline>
                        <polyline id="path176" fill="#5B0F1B" points="124.788947 178.402086 124.526597 176.571503 126.294297 176.023098 126.557197 177.853681 124.788947 178.402086"></polyline>
                        <polyline id="path178" fill="#5B0F1B" points="121.037947 179.564352 120.776697 177.733769 122.542747 177.185364 122.806747 179.017047 121.037947 179.564352"></polyline>
                        <polyline id="path180" fill="#EC5E1A" points="122.806747 179.017047 122.542747 177.185364 124.526597 176.571503 124.788947 178.402086 122.806747 179.017047"></polyline>
                        <polyline id="path182" fill="#EC5E1A" points="126.557197 177.853681 126.294297 176.023098 128.207197 175.429039 128.470097 177.261272 126.557197 177.853681"></polyline>
                        <polyline id="path184" fill="#EC5E1A" points="123.010797 180.44389 121.243647 180.992295 121.037947 179.564352 122.806747 179.017047 123.010797 180.44389"></polyline>
                        <polyline id="path186" fill="#EC5E1A" points="131.921347 176.191415 130.237797 176.713967 129.974347 174.881734 131.643047 174.364682 131.921347 176.191415"></polyline>
                        <polyline id="path188" fill="#EC5E1A" points="127.976197 173.821778 129.742797 173.274473 129.974347 174.881734 128.207197 175.429039 127.976197 173.821778"></polyline>
                        <polyline id="path190" fill="#EC5E1A" points="128.674147 178.689214 128.470097 177.261272 130.237797 176.713967 130.440747 178.14026 128.674147 178.689214"></polyline>
                        <polyline id="path192" fill="#EC5E1A" points="118.567897 178.417487 120.776697 177.733769 121.037947 179.564352 118.846747 180.24532 118.567897 178.417487"></polyline>
                        <polyline id="path194" fill="#EC5E1A" points="126.294297 176.023098 124.526597 176.571503 124.296697 174.961492 126.062747 174.414187 126.294297 176.023098"></polyline>
                        <polyline id="path196" fill="#EC5E1A" points="122.312847 175.577003 122.542747 177.185364 120.776697 177.733769 120.545147 176.124858 122.312847 175.577003"></polyline>
                        <polyline id="path198" fill="#EC5E1A" points="126.760697 179.281624 124.994097 179.830029 124.788947 178.402086 126.557197 177.853681 126.760697 179.281624"></polyline>
                        <path d="M102.805997,183.103406 C102.224097,183.020898 101.608647,182.907036 100.990447,182.764572 L101.049297,181.152911 C101.580597,181.251371 102.194947,181.351481 102.867597,181.437289 L102.805997,183.103406" id="path200" fill="#EC5E1A"></path>
                        <path d="M99.4839975,180.822878 L99.5714475,178.962042 C99.8211475,179.025298 100.365097,179.158411 101.117497,179.303076 L101.049297,181.152911 C100.386547,181.030799 99.8530475,180.911987 99.4839975,180.822878" id="path202" fill="#EC5E1A"></path>
                        <path d="M102.935247,179.601206 C102.248297,179.508246 101.636697,179.403186 101.117497,179.303076 L101.175247,177.761272 C101.685647,177.860282 102.302197,177.965342 102.992447,178.054451 L102.935247,179.601206" id="path204" fill="#EC5E1A"></path>
                        <path d="M104.642447,179.779423 L104.614397,181.611107 C104.002797,181.566002 103.412097,181.508246 102.867597,181.437289 L102.935247,179.601206 C103.465997,179.672163 104.044597,179.732669 104.642447,179.779423" id="path206" fill="#EC5E1A"></path>
                        <path d="M111.376097,177.031899 L111.962947,177.73982 L112.069647,176.679314 L115.782697,176.299226 L116.561497,178.792625 L116.261197,178.824528 C115.899847,178.860282 115.894897,178.966442 115.920747,179.222768 C115.971347,179.720568 116.053297,180.518697 116.106647,181.035199 C116.142397,181.388884 116.175947,181.44169 116.550497,181.403186 L116.826047,181.376233 L116.566447,183.975793 L113.222447,184.316827 L111.953047,182.678213 L111.040597,184.540149 L107.696597,184.881734 L106.916697,182.388884 L107.192797,182.360281 C107.566797,182.322328 107.589897,182.263472 107.554147,181.910336 C107.500797,181.392185 107.419397,180.594605 107.368247,180.096255 C107.342397,179.84103 107.315447,179.738719 106.954647,179.774473 L106.654347,179.805276 L106.912297,177.205716 L110.625897,176.826728 L110.944347,177.84378 L111.376097,177.031899" id="path208" fill="#EC5E1A"></path>
                        <path d="M111.470147,177.94829 C111.470147,177.94829 112.519547,179.212867 113.071747,179.877333 C113.020597,179.380084 112.968347,178.872933 112.968347,178.872933 C112.954047,178.727168 112.885847,178.665562 112.693347,178.684264 L112.381497,178.715617 L112.537697,177.14686 L115.418597,176.852581 L115.888297,178.358081 L115.576447,178.389985 C115.383947,178.410337 115.329497,178.484044 115.344347,178.630359 L115.666647,181.781624 C115.681497,181.926838 115.749697,181.989544 115.941647,181.969742 L116.254047,181.937289 L116.098397,183.507146 L113.453997,183.777223 L111.854047,181.713417 L110.704547,184.057751 L108.061247,184.329478 L107.590997,182.823428 L107.903397,182.792075 C108.094797,182.771723 108.149797,182.696915 108.134397,182.551151 L107.812097,179.400436 C107.797247,179.254671 107.729047,179.191965 107.537097,179.211767 L107.225247,179.24257 L107.380897,177.674363 L110.261797,177.379534 L110.732047,178.885034 L110.420197,178.916937 C110.227147,178.936189 110.172697,179.011547 110.188097,179.156211 C110.188097,179.156211 110.239797,179.662812 110.290397,180.161712 C110.697397,179.398235 111.470147,177.94829 111.470147,177.94829" id="path210" fill="#5B0F1B"></path>
                        <path d="M111.805097,181.232119 L113.569497,183.508246 L115.863547,183.273923 L115.968047,182.224968 C115.539047,182.267872 115.446097,182.14741 115.411997,181.806926 L115.089697,178.656211 C115.055047,178.316277 115.122147,178.178763 115.550047,178.134759 L115.235997,177.129258 L112.772547,177.380634 L112.667497,178.429038 C113.096497,178.385584 113.189447,178.506596 113.224097,178.84708 L113.412197,180.688664 L111.516347,178.405386 L110.121547,181.025298 L109.932897,179.183164 C109.898247,178.84378 109.965347,178.705716 110.393797,178.661712 L110.079197,177.656211 L107.615747,177.908136 L107.511797,178.956541 C107.939697,178.912537 108.032647,179.034099 108.067847,179.372933 L108.389597,182.525298 C108.424797,182.864682 108.358247,183.002746 107.929247,183.0473 L108.243297,184.052251 L110.537897,183.817927 L111.805097,181.232119" id="path212" fill="#FFFFFF"></path>
                        <path d="M121.095697,170.312427 C113.103647,172.294825 107.345697,170.135309 107.345697,170.135309 L109.164547,167.158962 L108.494647,165.563802 C111.613147,167.089105 116.707247,167.128709 120.133197,166.44444 C120.133197,166.44444 117.630697,168.470843 113.331897,169.525298 C115.771697,170.33828 121.095697,170.312427 121.095697,170.312427" id="path214" fill="#5B0F1B"></path>
                        <path d="M118.346247,192.480193 C118.064097,194.039049 116.392647,195.206816 114.399997,195.15346 C112.306147,195.097905 110.637997,193.713967 110.582997,192.030248 C112.982647,192.469742 115.572047,192.64521 118.346247,192.480193" id="path216" fill="#EC5E1A"></path>
                        <path d="M116.746297,192.535199 C117.273747,192.527498 117.805047,192.512646 118.346247,192.480193 C118.064097,194.039049 116.392647,195.206816 114.399997,195.15346 C114.033147,195.143559 113.681147,195.090204 113.346747,195.004946 C113.434747,195.014847 113.522747,195.022547 113.611847,195.025848 C115.160647,195.066552 116.466347,193.985144 116.746297,192.535199" id="path218" fill="#FFFFFF"></path>
                        <path d="M136.638147,180.177663 C136.096947,183.152911 130.996247,186.769522 126.245897,188.883384 C130.529847,186.471392 137.744747,180.793175 135.011797,177.229369 C136.289447,177.936739 136.685447,179.134759 136.685447,179.728268 C136.685447,179.919137 136.657397,180.071503 136.638147,180.177663" id="path220" fill="#EC5E1A"></path>
                        <path d="M98.0660975,166.915837 C96.2367976,166.980744 94.2919976,167.482944 93.1210477,169.672713 C92.3081477,171.190865 92.3449977,176.397685 94.8799476,180.463142 C94.8348476,180.397685 94.7886476,180.332229 94.7468476,180.271723 C91.8758477,176.035199 91.0101477,171.293175 92.5952477,168.471393 C93.8156977,166.300326 96.2021476,165.74642 98.2376975,165.720018 C98.1755475,166.14246 98.1183475,166.5429 98.0660975,166.915837" id="path222" fill="#EC5E1A"></path>
                    </g>
                </g>
            </g>
        </g>
    </g>
</svg>