<?xml version="1.0" encoding="UTF-8"?>
<svg width="200px" height="200px" viewBox="0 0 200 200" version="1.1" xmlns="http://www.w3.org/2000/svg" xmlns:xlink="http://www.w3.org/1999/xlink">
    <!-- Generator: Sketch 51.3 (57544) - http://www.bohemiancoding.com/sketch -->
    <title>maryville-mo</title>
    <desc>Created with Sketch.</desc>
    <defs>
        <polygon id="path-1" points="0.000123076923 0.489373874 199.390417 0.489373874 199.390417 136.382883 0.000123076923 136.382883"></polygon>
    </defs>
    <g id="maryville-mo" stroke="none" stroke-width="1" fill="none" fill-rule="evenodd">
        <g id="maryville-mo_BGL" transform="translate(0.000000, 26.000000)">
            <g id="maryville-mo" transform="translate(0.000000, 6.000000)">
                <g id="Group-114">
                    <g id="Group-3" transform="translate(0.000000, 0.127743)">
                        <mask id="mask-2" fill="white">
                            <use xlink:href="#path-1"></use>
                        </mask>
                        <g id="Clip-2"></g>
                        <path d="M175.584123,100.452658 C175.584123,100.452658 178.5072,102.304009 181.842585,101.776374 C185.484431,101.199987 190.813662,99.3677662 190.049354,92.1592212 C190.049354,92.1592212 202.058585,88.7187932 197.198277,75.5254464 C197.198277,75.5254464 202.137969,68.6118833 197.1872,61.9155455 C197.1872,61.9155455 193.6192,56.8360545 187.171815,58.3356491 C187.171815,58.3356491 187.789662,49.9298968 178.466585,47.8520635 C178.466585,47.8520635 167.376123,45.1472392 161.736738,55.8813743 C161.736738,55.8813743 149.991508,52.5643698 143.3152,61.7995275 C143.3152,61.7995275 145.962585,48.2933023 141.357046,42.6374239 C141.357046,42.6374239 146.768123,33.7497032 139.169354,30.5172437 C139.169354,30.5172437 134.797046,26.7083968 130.077046,25.0934014 C130.077046,25.0934014 129.501046,23.9363068 132.150277,21.7449239 C132.150277,21.7449239 138.613046,15.5762212 128.860431,7.96223018 C127.771815,7.11245991 124.8752,5.17409505 121.420431,4.13178423 C116.6032,2.67847342 107.734277,1.15110856 100.789662,5.59250045 C100.789662,5.59250045 95.9712,3.98120766 89.9853538,5.00685631 C89.9853538,5.00685631 89.8413538,-1.14271577 79.4745846,0.907347297 C79.4745846,0.907347297 72.9047385,1.64048243 69.5465846,1.05483829 C69.5465846,1.05483829 54.5084308,-2.60590045 46.9170462,16.4272257 C46.9170462,16.4272257 32.3182769,20.5236491 16.5502769,34.7259824 L20.6382769,34.5803428 C20.6382769,34.5803428 14.4592,38.1744329 8.05858462,46.3333383 C8.05858462,46.3333383 2.53243077,54.0664329 0.000123076923,60.8763203 C0.000123076923,60.8763203 4.25981538,57.6438608 7.02166154,56.1442662 C7.02166154,56.1442662 -0.114338462,69.8436491 3.10966154,83.5411806 L5.71766154,78.7702482 C5.71766154,78.7702482 5.78596923,89.1118968 13.1958154,104.114631 C13.1958154,104.114631 11.4856615,104.97119 8.77858462,105.54264 C8.77858462,105.54264 11.6284308,112.687622 30.4364308,123.26069 L26.4468923,124.403591 C26.4468923,124.403591 37.2752,129.832987 52.3785846,130.404437 C52.3785846,130.404437 49.8727385,133.707248 46.6936615,135.353717 C46.6936615,135.353717 51.1047385,136.279392 58.5915077,134.428041 L57.4628923,136.383068 C57.4628923,136.383068 65.5662769,135.045158 73.6684308,131.342455 C73.6684308,131.342455 78.2825846,125.994518 85.6672,122.085699 C85.6672,122.085699 108.846277,119.359275 123.615508,114.422338 L117.615508,119.667834 C117.615508,119.667834 140.692431,115.039455 155.9232,106.554095 C155.9232,106.554095 152.230892,110.873915 150.846277,111.95387 C150.846277,111.95387 164.783508,107.927798 175.584123,100.452658" id="Fill-1" fill="#231F20" mask="url(#mask-2)"></path>
                    </g>
                    <path d="M129.580554,81.3039459 C131.816246,78.9607523 130.725785,75.6320225 130.725785,75.6320225 C130.453169,74.8050856 130.039631,76.1837252 130.039631,76.1837252 C128.799015,78.7416757 126.975015,79.5007297 126.975015,79.5007297 C126.183015,79.9493739 125.593477,79.3970541 125.593477,79.3970541 C124.904862,78.6355315 123.427938,79.4649369 123.427938,79.4649369 C122.738092,79.7420225 122.187323,79.3273198 122.187323,79.3273198 C121.359631,78.8089414 119.604554,79.8117568 119.604554,79.8117568 C118.261785,80.4338108 118.570708,79.5007297 118.570708,79.5007297 C119.0544,77.0828649 118.296862,76.0461081 118.296862,76.0461081 C117.676554,75.0099685 117.573169,76.2201351 117.573169,76.2201351 C116.815015,79.2236441 113.269169,81.5717748 113.269169,81.5717748 C112.407631,82.089536 112.717785,82.5042387 112.717785,82.5042387 C112.717785,82.5042387 122.755938,78.9774144 129.208246,81.1546036 L129.580554,81.3039459 Z" id="Fill-4" fill="#FEFEFE"></path>
                    <path d="M57.3449846,49.1222757 C57.3449846,49.1222757 57.6877538,54.2591586 58.8452923,59.3695054 C61.8305231,72.556064 70.6877538,97.2716045 95.5732923,97.7782577 C95.5732923,97.7782577 66.6096,97.4042847 60.9314462,52.6608252 C60.9314462,52.6608252 59.0397538,51.3062532 57.3449846,49.1222757" id="Fill-6" fill="#FEFEFE"></path>
                    <path d="M130.305292,63.2074802 C125.027754,66.7028315 115.704062,66.6664216 115.704062,66.6664216 C115.736677,67.7513135 115.721292,69.7834802 115.300369,71.9168541 C115.271446,72.0618766 115.401292,72.3290883 115.704062,72.2303495 C116.617908,71.9242595 118.537292,70.9578541 119.267754,68.0814712 C119.267754,68.0814712 119.411138,67.6673856 119.455446,67.1101288 C119.646831,67.5322369 119.775446,68.122818 119.611754,68.886809 C119.611754,68.886809 119.074523,70.2055883 120.785908,68.8195432 C120.785908,68.8195432 121.672062,68.0481468 121.9096,67.0354577 C121.9096,67.0354577 122.048062,66.3337955 122.556369,66.8694532 C122.630831,66.9484441 122.918215,67.2619396 123.113908,67.2816874 C123.417292,67.3100748 123.899138,67.2045477 124.3976,66.4640072 C124.3976,66.4640072 124.8616,65.967845 125.358215,66.5195477 C125.358215,66.5195477 126.138523,67.1780117 126.744062,66.0474532 C126.744062,66.0474532 127.140369,65.5167324 127.635754,65.9746333 C127.635754,65.9746333 128.662215,66.8571108 128.986523,65.2470523 L129.032677,65.314318 C129.505908,65.9123045 129.430215,66.9848541 129.430215,66.9848541 C129.300369,68.5807189 130.354523,67.0089216 130.354523,67.0089216 C130.417292,66.8546423 130.470215,66.7077685 130.516985,66.5676829 C130.664677,67.3896829 130.707754,68.5973811 130.297908,70.1667099 C130.297908,70.1667099 129.440062,71.9582009 131.188985,70.5406829 C131.188985,70.5406829 133.310215,68.976291 133.635754,66.141255 C133.6456,66.0493045 133.643138,65.8783631 133.628369,65.6784171 C133.628369,65.6784171 131.888062,65.0446378 130.446215,63.385827 L130.305292,63.2074802 Z" id="Fill-8" fill="#FEFEFE"></path>
                    <path d="M130.570892,56.1395761 C125.526585,63.289495 112.292123,63.6005221 112.292123,63.6005221 C120.857046,60.6451482 120.664431,51.6488149 120.664431,51.6488149 C121.168431,44.3298059 115.138277,40.7215221 115.138277,40.7215221 C120.664431,41.0276122 124.348738,44.9543284 124.348738,44.9543284 C128.340123,44.182932 129.337662,41.1072203 129.337662,41.1072203 C130.8712,38.1802338 127.723508,38.6430716 127.723508,38.6430716 C125.806585,38.7973509 125.577046,40.4901032 125.577046,40.4901032 C125.346277,42.027959 124.117969,41.8761482 124.117969,41.8761482 C118.210277,40.0272653 121.201662,34.6416842 121.201662,34.6416842 C124.962892,29.3313914 132.876123,31.6406437 132.876123,31.6406437 C133.490277,31.1778059 135.128431,30.8476482 135.128431,30.8476482 C132.580738,27.4170941 125.4472,28.0391482 125.4472,28.0391482 C122.782585,28.2076212 119.401662,28.7648779 115.761046,29.4418554 C112.023815,30.1385806 106.231815,32.0380671 104.795508,32.7156617 C101.047815,34.487405 99.4841231,36.3338194 99.4841231,36.3338194 C96.2607385,40.4901032 101.402892,42.7993554 101.402892,42.7993554 C88.0490462,44.182932 83.8293538,56.344459 83.8293538,56.344459 C83.2921231,46.8007428 88.0490462,43.1825851 88.0490462,43.1825851 C83.4447385,42.4136572 82.3715077,40.952941 82.3715077,40.952941 C90.5832,40.1815446 93.1912,36.3338194 93.1912,36.3338194 C89.5850462,37.5655851 86.5912,36.2566797 86.5912,36.2566797 C93.8835077,34.1788464 89.4312,29.1771122 89.4312,29.1771122 C87.9721231,27.0986617 88.4336615,25.4836662 88.4336615,25.4836662 C88.8158154,21.4051392 94.8016615,20.2505131 94.8016615,20.2505131 C94.4195077,16.0942293 90.7358154,12.9389095 90.7358154,12.9389095 C95.0865846,13.7393104 97.5025846,16.8248959 97.5025846,16.8248959 L98.8656615,18.774986 C98.8656615,18.774986 101.2392,22.4511527 101.780123,23.0923374 C105.563508,27.5738419 112.530277,28.5618464 112.530277,28.5618464 C116.104431,29.0271527 117.979508,27.4072203 117.979508,27.4072203 C121.201662,24.4061797 121.278585,20.4047923 121.278585,20.4047923 C119.820738,21.7908374 118.210277,22.3283464 118.210277,22.3283464 C120.588738,17.8641212 119.513046,15.0938824 119.513046,15.0938824 C117.594892,10.7839365 108.8472,9.55217072 108.8472,9.55217072 C109.920431,10.9382158 109.843508,12.6328194 109.843508,12.6328194 C103.782585,7.70575631 95.8785846,8.70857162 95.8785846,8.70857162 C98.3339692,10.6321257 98.4865846,12.3242608 98.4865846,12.3242608 C90.3512,8.24573378 84.9795077,9.86072928 84.9795077,9.86072928 C87.6656615,7.01396802 85.2102769,5.24160766 85.2102769,5.24160766 C82.9087385,3.62908063 78.3702769,4.60289144 78.3702769,4.60289144 C74.3272,5.50696802 70.9505846,4.91885541 70.9505846,4.91885541 C69.1456615,4.60289144 66.4853538,4.51155811 66.4853538,4.51155811 C57.3905846,4.74297703 52.6718154,13.2863464 52.6718154,13.2863464 C44.4988923,26.9061212 51.6355077,33.0242203 51.6355077,33.0242203 C52.3259692,29.0999725 55.0890462,26.9061212 55.0890462,26.9061212 C51.2908923,38.3345131 56.8145846,42.3747788 56.8145846,42.3747788 C56.9315077,40.2969455 58.7727385,37.7587428 58.7727385,37.7587428 C56.9315077,46.9939005 62.3413538,50.6867293 62.3413538,50.6867293 C62.4552,49.1846662 63.7222769,47.9171077 63.7222769,47.9171077 C64.0687385,55.7662203 67.9819692,56.1130401 67.9819692,56.1130401 C72.8158154,57.0362473 75.0035077,52.8805806 75.0035077,52.8805806 C81.3352,42.3747788 76.5001231,33.3710401 76.5001231,33.3710401 C72.9315077,24.0204815 76.9918154,16.935977 76.9918154,16.935977 C78.9413538,13.4936977 81.0158154,14.6409185 81.0158154,14.6409185 C83.3475077,15.9158824 79.9918154,21.2508599 79.9918154,21.2508599 C76.6152,26.4840131 78.6090462,33.8727563 78.6090462,33.8727563 C80.4533538,42.338986 79.6841231,46.8007428 79.6841231,46.8007428 C77.3807385,58.9598014 68.9413538,60.8062158 68.9413538,60.8062158 C67.2533538,67.5778419 69.7081231,74.3519365 69.7081231,74.3519365 C69.8619692,72.5030536 71.0902769,70.0413734 71.0902769,70.0413734 C72.4712,83.1242563 77.2293538,86.3567158 77.2293538,86.3567158 C76.7678154,84.9706707 76.9216615,82.9718284 76.9216615,82.9718284 C83.9819692,100.976837 109.767815,94.8229455 109.767815,94.8229455 C108.8472,97.8986572 107.925354,98.9786122 107.925354,98.9786122 C112.991815,98.8243329 116.366585,95.4375941 116.366585,95.4375941 C115.906277,100.825027 114.833046,101.133585 114.833046,101.133585 C125.115508,98.055405 129.873662,91.4355896 129.873662,91.4355896 C134.785046,86.0481572 128.185046,84.0474635 128.185046,84.0474635 C121.892738,81.8918734 115.138277,85.12495 115.138277,85.12495 C108.540738,88.3574095 102.554277,88.6634995 102.554277,88.6634995 C89.3542769,89.1263374 86.1308923,80.1997383 86.1308923,80.1997383 C88.7388923,81.4315041 89.8158154,81.2772248 89.8158154,81.2772248 C85.8232,76.3526302 85.6705846,70.8103014 85.6705846,70.8103014 C86.5912,72.5030536 88.8939692,74.0433779 88.8939692,74.0433779 C86.5518154,68.9737608 87.7487385,64.590995 88.2582769,63.6560626 C92.1118154,56.5857518 99.6115077,61.9707158 99.6115077,61.9707158 C104.508123,65.280932 108.889662,65.7388329 108.889662,65.7388329 C121.4712,66.8860536 127.371508,60.9197653 129.539508,57.8607158 C129.539508,57.8607158 131.998585,62.9908104 138.249046,63.5184455 C138.249046,63.5184455 132.085354,62.0601977 132.609662,51.3957968 C132.609662,51.3957968 132.356738,53.6106302 130.570892,56.1395761" id="Fill-10" fill="#D11241"></path>
                    <path d="M98.2896615,25.1366613 C98.2896615,25.1366613 99.5345846,24.782436 101.132123,25.9685351 C101.132123,25.9685351 100.717354,26.0481432 100.1672,26.6023144 C100.1672,26.6023144 100.442277,27.2144946 101.525354,28.0050216 C101.525354,28.0050216 100.342585,27.8871523 99.4158154,27.6921432 C99.4158154,27.6921432 98.3893538,29.9841162 99.7512,30.6185126 C99.7512,30.6185126 100.994277,31.0134676 102.120431,29.2324676 C102.120431,29.2324676 102.650277,28.3043234 102.669354,27.4125892 C102.669354,27.4125892 103.479815,28.2031162 103.892738,28.5018009 C103.892738,28.5018009 103.145662,31.0930757 100.2632,32.2791748 C100.2632,32.2791748 98.2718154,32.9734315 97.2835077,31.2115622 C97.2835077,31.2115622 95.9432,28.8560261 98.2896615,25.1366613" id="Fill-12" fill="#FEFEFE"></path>
                    <path d="M127.467569,25.0980914 C127.467569,25.0980914 125.558646,24.5414518 123.013415,25.5775914 C123.013415,25.5775914 127.3088,21.0312896 125.558646,16.0054878 C125.558646,16.0054878 125.003569,17.2804518 124.128492,17.9987761 C124.128492,17.9987761 126.573415,10.0533932 105.854646,7.16528514 C105.854646,7.16528514 115.294646,3.93529414 125.422031,9.47762297 C125.422031,9.47762297 131.943262,13.4475374 129.818338,18.2135329 C129.818338,18.2135329 129.402954,19.4236995 127.6528,21.63915 C127.6528,21.63915 126.2848,23.5454248 127.467569,25.0980914" id="Fill-14" fill="#D11241"></path>
                    <path d="M140.599754,45.2435712 C140.599754,45.2435712 143.426831,53.2611568 140.519138,60.3845396 C140.519138,60.3845396 139.794215,62.1661568 138.823138,61.9223955 C138.823138,61.9223955 137.612677,61.5996432 138.823138,59.3335892 C138.823138,59.3335892 141.487754,54.5558685 140.599754,45.2435712" id="Fill-16" fill="#FEFEFE"></path>
                    <path d="M138.905046,33.5858586 C138.905046,33.5858586 135.674277,33.503782 133.898892,37.1466243 C133.898892,37.1466243 130.587508,32.370755 123.725969,36.0135973 C123.725969,36.0135973 124.7752,33.2606378 128.570892,32.9372685 C128.570892,32.9372685 132.283508,32.4503631 133.898892,34.4751243 C133.898892,34.4751243 136.402892,32.4503631 138.905046,33.5858586" id="Fill-18" fill="#FEFEFE"></path>
                    <path d="M137.693538,43.5440923 C137.693538,43.5440923 136.563692,42.7344347 138.582769,39.8993986 C138.582769,39.8993986 139.470154,38.6867635 138.016615,38.7663716 C138.016615,38.7663716 135.72,39.0119842 136.080615,41.6014077 C136.080615,41.6014077 136.44,43.1657995 137.693538,43.5440923" id="Fill-20" fill="#D11241"></path>
                    <path d="M101.329354,71.5602221 C101.620431,72.0613212 102.109662,72.9006005 102.389662,73.3634383 C103.580431,75.3400644 106.659815,79.0767086 112.686277,78.5052581 C112.686277,78.5052581 108.758277,78.9292176 104.525046,72.244605 C104.329354,71.9360464 103.789662,70.906695 103.498585,70.3358617 C102.230892,67.8741815 98.2093538,61.64315 91.3496615,65.2711815 C91.3496615,65.2711815 97.6985846,66.2832536 100.3232,69.9908932 C100.405046,70.1069113 100.484431,70.2272491 100.558892,70.3500554 C100.558892,70.3500554 101.186585,71.3146095 101.329354,71.5602221" id="Fill-22" fill="#D11241"></path>
                    <path d="M107.811323,83.1239477 C107.811323,83.1239477 102.170708,84.2785739 96.0685538,77.4686865 C96.0685538,77.4686865 92.5011692,74.3516279 91.1190154,71.2345694 C91.1190154,71.2345694 90.2574769,69.1857405 91.4365538,68.0311144 C91.4365538,68.0311144 92.5879385,66.7604703 93.1060923,69.1857405 C93.1060923,69.1857405 93.4796308,71.9263577 95.3497846,72.5607541 C95.3497846,72.5607541 97.7682462,72.5317495 97.6525538,75.1884387 C97.6525538,75.1884387 97.3928615,77.6686324 99.6384,77.8420423 C99.6384,77.8420423 103.235323,77.6686324 103.840246,79.2860964 C103.840246,79.2860964 105.221169,82.8345198 107.811323,83.1239477" id="Fill-24" fill="#FEFEFE"></path>
                    <path d="M90.0829538,75.6197419 C90.0829538,75.6197419 97.2201846,86.9327329 109.998646,83.7027419 C109.998646,83.7027419 102.056492,86.9327329 95.4940308,82.8924671 C95.4940308,82.8924671 91.8103385,80.9300347 90.0829538,75.6197419" id="Fill-26" fill="#FEFEFE"></path>
                    <path d="M74.3882462,6.73645045 C74.3882462,6.73645045 74.8836308,7.52944595 76.0036308,7.39676577 C76.0036308,7.39676577 78.4073231,6.86913063 77.7476308,9.08211261 C77.7476308,9.08211261 77.3667077,10.4823514 75.5082462,12.9896982 C75.2380923,13.3537973 74.2245538,14.6651712 73.7224,15.5667793 C72.1334769,18.4209459 69.2774769,25.1851667 73.0085538,32.0240586 C73.0085538,32.0240586 70.0159385,22.4828108 76.4627077,14.5540901 C76.4627077,14.5540901 78.0731692,12.6330045 80.2990154,10.8612613 C80.2990154,10.8612613 83.5987077,8.70813964 81.6024,6.47355856 C81.6024,6.47355856 80.3759385,5.47321171 77.1525538,6.32174775 C77.1525538,6.32174775 75.3064,6.84506306 74.3882462,6.73645045" id="Fill-28" fill="#FEFEFE"></path>
                    <path d="M75.1574769,36.4110824 C75.1574769,36.4110824 78.7642462,43.1827086 74.2368615,50.725114 C74.2368615,50.725114 71.6264,55.1899563 67.3304,53.4953527 C67.3304,53.4953527 73.6214769,51.9568797 75.2331692,45.1834023 C75.2331692,45.1834023 76.4627077,41.1813977 75.1574769,36.4110824" id="Fill-30" fill="#FEFEFE"></path>
                    <path d="M86.0733538,69.318359 C86.0733538,69.318359 85.1164308,67.3799941 84.3976615,66.4931968 C84.3976615,66.4931968 83.0610462,72.8137104 86.4376615,78.7368005 C86.4376615,78.7368005 84.0592,78.1221518 83.5988923,77.6617824 C83.5988923,77.6617824 84.4425846,86.8191833 96.0327385,89.5122824 C96.0327385,89.5122824 104.088738,91.8986743 114.142892,87.433832 C114.142892,87.433832 120.359508,84.2785122 124.886892,85.1245797 C124.886892,85.1245797 132.481969,86.1249266 128.417354,90.6669086 C128.417354,90.6669086 123.735508,96.1290122 117.5952,98.130323 C117.5952,98.130323 118.900431,94.974386 117.365662,92.2819041 C117.365662,92.2819041 115.676431,95.4372239 110.842585,96.6689896 C110.842585,96.6689896 111.840123,94.2054581 111.686277,92.5904626 C111.686277,92.5904626 104.472123,95.9747329 91.1958154,93.2051113 C91.1958154,93.2051113 79.9145846,90.895859 76.4628923,78.4307104 C76.4628923,78.4307104 75.6179692,80.1999851 75.6179692,82.5092374 C75.6179692,82.5092374 71.9336615,73.5826383 72.4708923,66.8091608 C72.4708923,66.8091608 70.7065846,68.1952059 69.7859692,69.6583905 C69.7859692,69.6583905 69.2487385,65.3478275 70.0912,62.3443185 C70.0912,62.3443185 73.3933538,61.5007194 75.6936615,58.3429311 C75.6936615,58.3429311 75.3115077,60.2689536 74.8499692,61.2693005 C74.8499692,61.2693005 79.0708923,59.1889986 81.1428923,53.6491383 C81.1428923,53.6491383 82.2912,57.7955482 84.0530462,59.87585 C84.0659692,59.8252464 84.0832,59.7795797 84.0973538,59.7314446 C84.2272,59.2229401 84.7281231,57.4752644 85.9072,55.5344311 C90.5035077,47.5791743 99.4075077,44.7231563 99.4075077,44.7231563 C99.4075077,44.7231563 102.784738,43.2593545 105.393969,43.1075437 C105.393969,43.1075437 97.5662769,40.5668725 100.405046,37.3344131 C100.405046,37.3344131 101.633354,35.0251608 108.002585,32.8720392 C108.002585,32.8720392 112.909662,30.9367599 121.593969,29.6951203 C122.681354,29.540841 130.424123,28.1862689 132.876431,30.4807104 C132.876431,30.4807104 124.808738,29.0996023 121.201969,33.1009896 C121.201969,33.1009896 117.824738,36.5654851 120.281354,40.6440122 C120.281354,40.6440122 117.213046,39.1832959 112.376123,40.1040347 C112.376123,40.1040347 119.233354,43.7271293 119.366892,50.2192014 C119.366892,50.2192014 120.073354,60.4108905 110.6912,62.7978995 C106.377354,63.8969851 103.668431,61.7444806 103.668431,61.7444806 C98.4579692,58.5644761 95.2899692,58.858841 95.2899692,58.858841 C87.7607385,59.0106518 86.3908923,64.1716023 86.3908923,64.1716023 C86.3908923,64.1716023 85.3736615,65.9118725 86.0733538,69.318359" id="Fill-32" fill="#FEFEFE"></path>
                    <path d="M108.372615,46.6248644 C108.372615,45.4801122 109.298154,44.551968 110.438462,44.551968 C111.583077,44.551968 112.508615,45.4801122 112.508615,46.6248644 C112.508615,47.7720851 111.583077,48.7002293 110.438462,48.7002293 C109.298154,48.7002293 108.372615,47.7720851 108.372615,46.6248644" id="Fill-34" fill="#231F20"></path>
                    <path d="M113.296862,51.8245698 C113.296862,50.9396239 114.010708,50.2212995 114.893169,50.2212995 C115.776246,50.2212995 116.491323,50.9396239 116.491323,51.8245698 C116.491323,52.7095158 115.776246,53.4278401 114.893169,53.4278401 C114.010708,53.4278401 113.296862,52.7095158 113.296862,51.8245698" id="Fill-36" fill="#231F20"></path>
                    <path d="M107.454338,53.7699081 C107.454338,52.8849622 108.170646,52.1691063 109.054338,52.1691063 C109.933723,52.1691063 110.651262,52.8849622 110.651262,53.7699081 C110.651262,54.6567054 109.933723,55.3731784 109.054338,55.3731784 C108.170646,55.3731784 107.454338,54.6567054 107.454338,53.7699081" id="Fill-38" fill="#231F20"></path>
                    <path d="M113.832923,45.2243171 C113.832923,44.5997946 114.336308,44.0937586 114.960308,44.0937586 C115.583077,44.0937586 116.087692,44.5997946 116.087692,45.2243171 C116.087692,45.8488396 115.583077,46.3573441 114.960308,46.3573441 C114.336308,46.3573441 113.832923,45.8488396 113.832923,45.2243171" id="Fill-40" fill="#231F20"></path>
                    <path d="M115.938708,7.49093784 C115.938708,7.49093784 133.619938,9.98347387 127.723323,19.6814694 C127.723323,19.6814694 130.856862,11.6466045 115.938708,7.49093784" id="Fill-42" fill="#FEFEFE"></path>
                    <path d="M163.905046,61.5561982 C163.905046,61.5561982 154.811508,57.0987613 148.717354,61.4500541 C148.717354,61.4500541 143.2392,65.8038153 144.893969,71.5022748 C144.893969,71.5022748 145.719815,75.4413333 149.852123,76.0633874 C149.852123,76.0633874 146.361662,73.1296126 147.439815,69.6509234 C147.578277,69.2053649 148.460123,67.8409189 149.521662,67.2719369 C150.699508,66.6424775 152.460123,65.9580946 154.502585,66.4258694 C154.502585,66.4258694 159.979508,67.462009 162.769046,71.1937162 C162.769046,71.1937162 167.833046,68.0815946 174.2392,70.3624595 C174.2392,70.3624595 175.169662,70.0514324 175.373969,69.1208198 C175.373969,69.1208198 171.137046,68.4987658 169.486585,66.218518 C169.486585,66.218518 173.929046,67.2546577 176.511815,65.907491 C176.511815,65.907491 175.5832,61.1414955 178.785046,60.1047387 C178.785046,60.1047387 181.369046,59.3796261 183.331508,60.4157658 C183.331508,60.4157658 184.984431,53.6805495 177.9592,51.9186802 C177.9592,51.9186802 167.109354,49.4310811 163.905046,61.5561982" id="Fill-44" fill="#D11241"></path>
                    <path d="M185.604554,62.6964455 C185.604554,62.6964455 188.189785,64.8705491 184.363938,69.6365446 C184.363938,69.6365446 181.368862,72.4351707 178.784862,73.1609005 C178.784862,73.1609005 180.130092,74.3013329 180.748554,75.0264455 C180.748554,75.0264455 183.1264,75.8558509 184.674092,75.6484995 C184.674092,75.6484995 185.604554,74.7135671 186.226092,73.8866302 C186.226092,73.8866302 187.8784,71.5027068 190.770708,72.5388464 C190.770708,72.5388464 192.424246,73.1609005 192.839015,74.0939815 C192.839015,74.0939815 195.3184,71.9167923 195.421785,67.151414 C195.421785,67.151414 195.317169,63.1111482 190.874092,62.1755986 C190.874092,62.1755986 188.085169,61.6596887 185.604554,62.6964455" id="Fill-46" fill="#D11241"></path>
                    <path d="M192.9952,77.6976986 C192.9952,77.6976986 198.289969,83.0104599 191.611815,88.4324509 C191.611815,88.4324509 191.728123,86.9711176 190.344738,86.0479104 C190.344738,86.0479104 189.137969,85.3178608 186.376123,86.241068 C186.376123,86.241068 187.582892,84.0472167 186.355815,82.2008023 C186.355815,82.2008023 191.037046,81.8151041 192.9952,77.6976986" id="Fill-48" fill="#D11241"></path>
                    <path d="M173.770462,73.1199239 C173.770462,73.1199239 181.443692,72.1220455 184.206769,66.8858068 C184.206769,66.8858068 185.665846,64.1933248 182.979692,62.1926311 C182.979692,62.1926311 181.455385,61.2237572 179.734154,61.8044644 C179.734154,61.8044644 178.12,62.4746536 178.12,64.5672977 C178.12,64.5672977 178.086769,70.8489329 173.770462,73.1199239" id="Fill-50" fill="#FEFEFE"></path>
                    <path d="M178.4904,79.1416293 C178.4904,79.1416293 184.015938,79.0836203 187.353169,74.5805167 C187.353169,74.5805167 188.563631,72.9075122 190.748862,73.8887284 C190.748862,73.8887284 193.167323,75.4488005 191.324246,78.1024041 C191.324246,78.1024041 187.063938,83.8736833 178.4904,79.1416293" id="Fill-52" fill="#FEFEFE"></path>
                    <path d="M186.376185,87.4533946 C186.376185,87.4533946 188.906031,86.4141694 189.595877,87.0485658 C189.595877,87.0485658 191.037108,88.3185928 189.827877,89.9915973 C189.827877,89.9915973 187.9288,92.0694306 184.1288,91.1462234 C184.1288,91.1462234 180.792185,90.3390342 179.642031,87.855755 C179.642031,87.855755 183.382338,88.3766018 186.376185,87.4533946" id="Fill-54" fill="#FEFEFE"></path>
                    <path d="M154.489169,70.7719784 C154.489169,70.7719784 153.571015,68.2097081 151.438708,68.636136 C151.438708,68.636136 148.848554,68.867555 148.964862,71.4637667 C148.964862,71.4637667 149.021477,75.8508523 155.639323,77.4689333 C155.639323,77.4689333 159.551938,78.6235595 163.1224,76.7166676 C163.1224,76.7166676 156.224554,76.5913928 154.489169,70.7719784" id="Fill-56" fill="#FEFEFE"></path>
                    <path d="M147.063692,65.461377 C147.063692,65.461377 149.366462,60.9607419 156.272923,61.1921608 C156.272923,61.1921608 161.568308,61.5371293 163.756,63.9617824 C163.756,63.9617824 153.741846,59.4586788 147.063692,65.461377" id="Fill-58" fill="#FEFEFE"></path>
                    <path d="M166.056492,59.111859 C166.056492,59.111859 167.684185,53.4177194 174.577108,52.7648095 C174.577108,52.7648095 180.791877,52.4173725 181.943262,56.5736563 C181.943262,56.5736563 179.180185,53.9194356 174.577108,54.1508545 C174.577108,54.1508545 170.201723,54.2644041 166.056492,59.111859" id="Fill-60" fill="#FEFEFE"></path>
                    <path d="M188.159877,63.0362919 C188.159877,63.0362919 192.994954,62.6913234 194.145723,66.2712198 C194.145723,66.2712198 194.835569,69.7332468 193.108185,71.5821297 C193.108185,71.5821297 194.835569,64.7697739 188.159877,63.0362919" id="Fill-62" fill="#FEFEFE"></path>
                    <path d="M155.967569,79.124782 C155.967569,79.124782 166.403877,83.4322595 173.156492,82.8151423 C173.156492,82.8151423 171.928185,84.8164532 170.240185,85.8939396 C170.240185,85.8939396 173.156492,87.5885432 178.219877,86.5110568 C178.219877,86.5110568 178.068492,89.895327 176.840185,92.0503 C176.840185,92.0503 182.518954,93.7424351 186.203262,92.5131378 C186.203262,92.5131378 186.970031,96.5151423 184.513415,97.4383495 C184.513415,97.4383495 177.913415,101.439737 174.3848,93.2820658 C174.3848,93.2820658 176.532492,90.9728135 176.9928,88.5117505 C176.9928,88.5117505 170.087569,88.5117505 167.015569,86.2024982 L168.859262,84.6646423 C168.859262,84.6646423 161.031569,84.5103631 155.967569,79.124782" id="Fill-64" fill="#D11241"></path>
                    <path d="M51.8041231,52.6200338 C50.5684308,52.6200338 49.5635077,50.8723581 49.5635077,48.7173851 C49.5635077,46.5624122 50.5684308,44.812268 51.8041231,44.812268 C53.0422769,44.812268 54.0472,46.5624122 54.0472,48.7173851 C54.0472,50.8723581 53.0422769,52.6200338 51.8041231,52.6200338 M52.0225846,43.9853311 C51.1216615,43.9853311 50.3148923,44.6456464 49.7776615,45.6848716 C49.4145846,46.0316914 48.2102769,47.2585203 47.6527385,48.6303716 C47.6527385,48.6303716 48.1524308,50.281777 49.8761231,51.9233086 C50.4096615,52.8613266 51.1721231,53.4494392 52.0225846,53.4494392 C53.6379692,53.4494392 54.9468923,51.3327275 54.9468923,48.7173851 C54.9468923,46.1038941 53.6379692,43.9853311 52.0225846,43.9853311" id="Fill-66" fill="#D11241"></path>
                    <path d="M53.2704615,48.9631829 C53.1572308,50.6627234 52.3572308,52.0080387 51.4396923,52.1117144 C51.3787692,52.1185027 51.1873846,52.0802414 51.0747692,52.014827 C50.5350769,51.6970117 48.9264615,50.6195252 48.2870769,48.7798991 L48.2729231,48.7101649 L48.2870769,48.6496874 C48.9264615,46.8106784 50.5350769,45.7331919 51.0747692,45.4147595 C51.1873846,45.3474937 51.3787692,45.3110838 51.4396923,45.3184892 C52.3572308,45.4221649 53.1572308,46.7693315 53.2704615,48.4664036 L53.2704615,48.9631829 Z" id="Fill-68" fill="#FEFEFE"></path>
                    <path d="M52.5444923,49.0981464 C52.5444923,49.0981464 50.4460308,49.7899347 48.5998769,48.7846509 C48.5998769,48.7846509 49.2583385,50.3780473 51.1044923,51.5351419 C51.1044923,51.5351419 51.4195692,51.9282455 51.9894154,51.4314662 C51.9894154,51.4314662 52.7549538,50.6193401 52.8595692,48.9920023 L52.5444923,49.0981464 Z" id="Fill-70" fill="#231F20"></path>
                    <path d="M54.4964308,67.4694144 C53.2896615,67.7440315 51.9265846,66.2592477 51.4508923,64.1573468 C50.9770462,62.0554459 51.5733538,60.1288063 52.7801231,59.8541892 C53.9868923,59.5820405 55.3512,61.0643559 55.8232,63.1662568 C56.2995077,65.2706261 55.7044308,67.1972658 54.4964308,67.4694144 M52.8090462,58.9982477 C51.9290462,59.1988108 51.2896615,60.0232793 50.9942769,61.1513694 C50.7173538,61.5728604 49.8115077,63.036045 49.5696615,64.4973784 C49.5696615,64.4973784 50.4207385,65.9963559 52.4625846,67.2163964 C53.1887385,68.0118604 54.0613538,68.4166892 54.8908923,68.2284685 C56.4650462,67.8742432 57.2779692,65.5168559 56.7044308,62.9687793 C56.1284308,60.4182342 54.3856615,58.6415541 52.8090462,58.9982477" id="Fill-72" fill="#D11241"></path>
                    <path d="M55.1214154,63.5762694 C55.3860308,65.2591477 54.9004923,66.7488685 54.0278769,67.0524901 C53.9700308,67.0740892 53.7761846,67.0814946 53.6500308,67.0401477 C53.0543385,66.8500757 51.2488,66.1533505 50.2198769,64.501945 L50.1909538,64.4371477 L50.1921846,64.3766703 C50.4100308,62.4383054 51.7429538,61.0331297 52.1983385,60.6017649 C52.2955692,60.5122829 52.4721846,60.4326748 52.5349538,60.4277378 C53.4531077,60.3265306 54.5300308,61.4620261 55.0131077,63.0943009 L55.1214154,63.5762694 Z" id="Fill-74" fill="#FEFEFE"></path>
                    <path d="M54.4435077,63.8703874 C54.4435077,63.8703874 52.5481231,65.0108198 50.5253538,64.4344324 C50.5253538,64.4344324 51.5216615,65.844545 53.5758154,66.5678063 C53.5758154,66.5678063 53.9690462,66.8788333 54.4158154,66.2691216 C54.4158154,66.2691216 54.9819692,65.307036 54.7272,63.6994459 L54.4435077,63.8703874 Z" id="Fill-76" fill="#231F20"></path>
                    <path d="M60.1814769,81.1786095 C59.0664,81.7161185 57.4097846,80.5713662 56.4817846,78.6255959 C55.5562462,76.6779743 55.7100923,74.6698752 56.8282462,74.1348347 C57.9433231,73.5997941 59.6024,74.7420779 60.5273231,76.6878482 C61.4540923,78.6354698 61.3002462,80.6435689 60.1814769,81.1786095 M56.6670154,73.2937041 C55.8547077,73.6837221 55.4110154,74.626677 55.3716308,75.7930284 C55.1956308,76.2657401 54.6344,77.8930779 54.7224,79.3729248 C54.7224,79.3729248 55.8836308,80.6485059 58.1420923,81.3859608 C59.0276308,81.998141 59.9673231,82.2005554 60.7340923,81.8339878 C62.1925538,81.1329428 62.4639385,78.6570689 61.3402462,76.2996815 C60.2177846,73.941677 58.1260923,72.5945104 56.6670154,73.2937041" id="Fill-78" fill="#D11241"></path>
                    <path d="M59.9339077,77.2444878 C60.5616,78.826159 60.4169846,80.385614 59.6336,80.8774563 C59.5819077,80.9107806 59.3929846,80.9595329 59.2631385,80.949659 C58.6385231,80.8941185 56.7246769,80.6170329 55.3572923,79.2334563 L55.3136,79.1779158 L55.3019077,79.1174383 C55.0877538,77.1796905 56.0754462,75.5134743 56.4268308,74.9907761 C56.5012923,74.8821635 56.6563692,74.7661455 56.7154462,74.7470149 C57.5874462,74.4433932 58.8883692,75.3110599 59.7197538,76.7983122 L59.9339077,77.2444878 Z" id="Fill-80" fill="#FEFEFE"></path>
                    <path d="M59.3365538,77.6807896 C59.3365538,77.6807896 57.7377846,79.2137086 55.6405538,79.1007761 C55.6405538,79.1007761 56.9217846,80.2554023 59.0854769,80.5034833 C59.0854769,80.5034833 59.5371692,80.7207086 59.8387077,80.0264518 C59.8387077,80.0264518 60.1790154,78.9606905 59.5759385,77.4493707 L59.3365538,77.6807896 Z" id="Fill-82" fill="#231F20"></path>
                    <path d="M69.3329231,92.8507626 C68.4012308,93.6678257 66.4996923,93.0124473 65.0855385,91.3900464 C63.672,89.765177 63.28,87.7860824 64.2141538,86.9714878 C65.1476923,86.1538077 67.0492308,86.8073347 68.4627692,88.4322041 C69.8763077,90.0595419 70.2658462,92.036168 69.3329231,92.8507626 M63.8350769,86.2025599 C63.1550769,86.7974608 62.9821538,87.8243437 63.2572308,88.9623077 C63.2129231,89.4640239 63.1083077,91.182695 63.5901538,92.5829338 C63.5901538,92.5829338 65.0492308,93.4968842 67.4227692,93.6005599 C68.4387692,93.9498482 69.4,93.8918392 70.0393846,93.3327311 C71.2584615,92.2675869 70.8547692,89.8059068 69.1427692,87.8391545 C67.4289231,85.8693167 65.0516923,85.1367986 63.8350769,86.2025599" id="Fill-84" fill="#D11241"></path>
                    <path d="M68.0384615,89.1288059 C69.0686154,90.4833779 69.3473846,92.0237023 68.7233846,92.7087023 C68.684,92.7543689 68.5129231,92.8531077 68.3855385,92.8771752 C67.7695385,92.9931932 65.852,93.2412743 64.1646154,92.2791887 L64.108,92.2359905 L64.0790769,92.18045 C63.3547692,90.372914 63.8593846,88.4993464 64.0563077,87.9044455 C64.1,87.7810221 64.2187692,87.6267428 64.2692308,87.5884815 C65.0298462,87.0626977 66.5153846,87.5496032 67.7141538,88.75545 L68.0384615,89.1288059 Z" id="Fill-86" fill="#FEFEFE"></path>
                    <path d="M67.5829538,89.7097599 C67.5829538,89.7097599 66.4531077,91.6166518 64.4026462,92.0745527 C64.4026462,92.0745527 65.9460308,92.8410122 68.0949538,92.4991293 C68.0949538,92.4991293 68.5891077,92.5830572 68.6924923,91.8357284 C68.6924923,91.8357284 68.7368,90.7175122 67.7497231,89.4228005 L67.5829538,89.7097599 Z" id="Fill-88" fill="#231F20"></path>
                    <path d="M82.0012308,100.564727 C81.4,101.652087 79.3883077,101.678623 77.5095385,100.631992 C75.6307692,99.5810419 74.5975385,97.8506455 75.2006154,96.7682221 C75.8018462,95.6833302 77.8135385,95.6543257 79.6923077,96.7028077 C81.5686154,97.7537581 82.6036923,99.4798347 82.0012308,100.564727 M74.5827692,96.1751725 C74.1452308,96.9656995 74.3292308,97.990114 74.9698462,98.9663932 C75.0996923,99.4532986 75.5803077,101.104704 76.5058462,102.261799 C76.5058462,102.261799 78.1864615,102.628366 80.4553846,101.919299 C81.5310769,101.905105 82.4147692,101.521875 82.8283077,100.779483 C83.6153846,99.3619653 82.4061538,97.1847761 80.1310769,95.9147491 C77.8547692,94.6416365 75.3704615,94.7576545 74.5827692,96.1751725" id="Fill-90" fill="#D11241"></path>
                    <path d="M79.5276308,97.5008635 C80.9528615,98.4265392 81.7356308,99.7835797 81.3787077,100.639521 C81.3571692,100.695062 81.2310154,100.844404 81.1165538,100.91167 C80.5780923,101.230102 78.8568615,102.115048 76.9436308,101.779954 L76.8759385,101.757737 L76.8304,101.717008 C75.5399385,100.261228 75.3836308,98.3278005 75.3664,97.7008095 C75.3651692,97.5681293 75.4242462,97.3829941 75.4605538,97.3323905 C75.9977846,96.5776563 77.5602462,96.5319896 79.0950154,97.2595707 L79.5276308,97.5008635 Z" id="Fill-92" fill="#FEFEFE"></path>
                    <path d="M79.2932923,98.2023405 C79.2932923,98.2023405 78.8736,100.381381 77.0988308,101.507003 C77.0988308,101.507003 78.8077538,101.705097 80.7166769,100.654147 C80.7166769,100.654147 81.2102154,100.567133 81.0539077,99.8247414 C81.0539077,99.8247414 80.7197538,98.7589802 79.3548308,97.8771198 L79.2932923,98.2023405 Z" id="Fill-94" fill="#231F20"></path>
                    <path d="M97.6370462,102.900638 C97.5108923,104.137341 95.6752,104.959341 93.5373538,104.742116 C91.3976615,104.523039 89.7656615,103.344345 89.8905846,102.110111 C90.0155077,100.875877 91.8524308,100.051409 93.9927385,100.268017 C96.1299692,100.48771 97.7619692,101.666404 97.6370462,102.900638 M89.0899692,101.808341 C89.0001231,102.708098 89.5730462,103.580701 90.5490462,104.221886 C90.8567385,104.619309 91.9533538,105.943026 93.2573538,106.639751 C93.2573538,106.639751 94.9459692,106.308976 96.7515077,104.756927 C97.7330462,104.318156 98.3939692,103.616494 98.4795077,102.770427 C98.6432,101.155431 96.6745846,99.6367059 94.0819692,99.368877 C91.4905846,99.1066023 89.2536615,100.193345 89.0899692,101.808341" id="Fill-96" fill="#D11241"></path>
                    <path d="M94.1550769,101.068541 C95.8283077,101.353032 97.0830769,102.286113 97.0923077,103.214257 C97.0947692,103.276586 97.0387692,103.462338 96.9606154,103.568482 C96.5901538,104.074518 95.3593846,105.571645 93.4701538,106.02214 L93.3981538,106.029545 L93.3403077,106.010415 C91.5790769,105.185946 90.6769231,103.472212 90.4123077,102.900762 C90.3581538,102.779807 90.3427692,102.584798 90.352,102.52432 C90.5495385,101.620861 91.9649231,100.959928 93.6646154,101.020406 L94.1550769,101.068541 Z" id="Fill-98" fill="#FEFEFE"></path>
                    <path d="M94.2175385,101.806243 C94.2175385,101.806243 94.6913846,103.97109 93.5049231,105.71136 C93.5049231,105.71136 95.1529231,105.214581 96.4889231,103.490973 C96.4889231,103.490973 96.9098462,103.213887 96.476,102.59677 C96.476,102.59677 95.7461538,101.750702 94.1455385,101.481022 L94.2175385,101.806243 Z" id="Fill-100" fill="#231F20"></path>
                    <path d="M94.2296,108.845204 L90.8259077,108.710055 C90.8259077,108.710055 65.3354462,108.377429 52.4554462,80.5374248 C52.4554462,80.5374248 43.5889846,62.0985824 44.7945231,44.5008707 C44.7945231,44.5008707 44.9976,37.6045869 47.5803692,32.4238887 C47.5803692,32.4238887 41.8788308,38.0766815 41.2776,46.7089158 L41.2776,47.5117851 C25.0794462,69.6632041 37.0012923,99.6100464 37.0012923,99.6100464 C19.2105231,77.6832581 29.2271385,51.7087986 29.2271385,51.7087986 C19.5662154,67.8408572 22.9096,87.2319113 22.9096,87.2319113 C18.3932923,72.2544788 21.4314462,60.8304068 21.4314462,60.8304068 C18.8788308,63.6728482 15.8006769,68.303695 15.8006769,68.303695 C19.6597538,52.6394113 26.1600615,45.651177 26.1600615,45.651177 L21.1932923,48.0252266 C34.1397538,31.6740914 45.8474462,28.1139428 45.8474462,28.1139428 C45.4726769,25.659668 45.4942154,22.6172806 46.8400615,19.710659 C46.8400615,19.710659 35.8185231,23.6349068 26.1200615,31.4093482 C26.1200615,31.4093482 31.1022154,30.7484158 33.1046769,30.6157356 C33.1046769,30.6157356 14.9976,40.4488797 7.70098462,53.2657851 C7.70098462,53.2657851 12.0154462,50.156132 16.1526769,48.2831815 C16.1526769,48.2831815 6.2776,59.2567581 4.40990769,76.5212266 C4.40990769,76.5212266 6.94344615,71.1695869 8.94590769,68.8918077 C8.94590769,68.8918077 6.73052308,83.0386005 14.2714462,97.5649203 C14.2714462,97.5649203 13.3908308,95.5315194 14.2222154,91.7276095 C14.2222154,91.7276095 20.6923692,97.7333932 18.6923692,104.213123 C18.6923692,104.213123 18.2308308,106.835871 15.1539077,108.224384 C15.1539077,108.224384 24.0769846,117.943979 40.5385231,122.880916 C40.5385231,122.880916 39.3077538,124.423709 35.3077538,124.886546 C35.3077538,124.886546 45.1539077,127.972132 58.3846769,127.972132 C58.3846769,127.972132 57.4616,130.749159 54.2308308,132.909069 C54.2308308,132.909069 60.0769846,131.829114 62.2308308,130.4406 L61.3077538,132.137673 C61.3077538,132.137673 65.9052923,131.192866 70.5385231,128.43497 C70.5385231,128.43497 81.6129846,114.711519 94.2296,108.845204" id="Fill-102" fill="#D11241"></path>
                    <path d="M35.6742769,65.0106347 C35.6742769,65.0106347 32.2490462,76.0366662 38.5585846,93.028986 L38.9192,88.5092203 C38.9192,88.5092203 41.6238154,99.7160671 55.5025846,106.767247 C55.5025846,106.767247 36.9364308,90.8598194 35.6742769,65.0106347" id="Fill-104" fill="#231F20"></path>
                    <path d="M116.338954,26.8361401 C114.883569,27.6075365 111.817108,27.8025455 108.753723,26.4362482 C106.433723,25.4019599 104.535877,23.4710005 103.533415,22.1738203 C102.193723,20.4384869 101.162338,17.909541 100.073108,16.7234419 C99.3438769,15.9304464 98.4121846,15.0652482 97.3475692,14.3999959 C97.3475692,14.3999959 99.5808,14.5684689 102.0288,15.5762212 C102.0288,15.5762212 99.9709538,11.6155635 97.3303385,9.19769865 C97.3303385,9.19769865 105.097108,8.9761536 110.997415,15.4651401 C110.997415,15.4651401 111.268185,12.6424464 109.871262,10.4053968 C109.871262,10.4053968 115.384492,11.5433608 117.207877,14.0741581 C117.207877,14.0741581 120.258338,17.7071266 116.220185,24.0134464 C116.220185,24.0134464 119.209108,23.1698473 120.218954,22.0343518 C120.218954,22.0343518 118.866338,25.4982302 116.338954,26.8361401" id="Fill-106" fill="#FEFEFE"></path>
                    <path d="M142.454338,101.713428 C148.692492,97.8286761 129.838954,113.232536 129.838954,113.232536 C151.890646,103.667221 166.044492,89.9882032 166.044492,89.9882032 C163.686338,89.1662032 161.838954,88.1368518 161.838954,88.1368518 L162.762031,87.416059 C159.582954,86.7989419 158.146646,85.6683833 158.146646,85.6683833 C141.429108,98.8339599 126.659877,104.490455 126.659877,104.490455 C141.2248,93.9994644 153.223569,82.4791221 153.223569,82.4791221 L151.9928,80.8338878 C144.198338,87.1075005 135.9928,89.2674104 135.9928,89.2674104 C144.198338,83.7133563 147.582954,79.8057707 147.582954,79.8057707 C143.4808,78.2629779 142.108492,76.0802347 142.108492,76.0802347 C142.108492,76.0802347 139.779877,72.446032 141.018031,67.2091761 C141.018031,67.2091761 139.241415,67.640541 137.302954,67.1548698 C137.302954,67.1548698 137.141723,70.9334779 134.019262,73.6876716 C134.019262,73.6876716 135.701723,76.1184959 134.806338,79.5465815 C134.189723,81.9064374 133.018031,82.8913563 133.018031,82.8913563 C138.2488,87.9307347 130.454338,95.4398158 130.454338,95.4398158 C120.813723,105.005131 103.377415,108.089482 103.377415,108.089482 C114.556492,107.780924 121.7368,104.901455 121.7368,104.901455 C111.890646,112.204419 92.1983385,117.346239 92.1983385,117.346239 C92.1983385,117.346239 119.150338,116.22864 142.454338,101.713428" id="Fill-108" fill="#D11241"></path>
                    <path d="M75.8978462,118.535856 C75.8978462,118.535856 72.7803077,120.967914 69.304,125.164928 C69.304,125.164928 39.9027692,123.805419 27.912,111.560581 C27.912,111.560581 41.7550769,121.483824 75.8978462,118.535856" id="Fill-110" fill="#231F20"></path>
                    <path d="M83.9939692,112.171836 C69.6924308,115.467241 50.3195077,115.094502 50.3195077,115.094502 C50.3195077,115.094502 59.1176615,118.666993 76.8075077,117.635791 C76.8075077,117.635791 80.0770462,114.909984 83.4468923,112.581601 L83.9939692,112.171836 Z" id="Fill-112" fill="#231F20"></path>
                </g>
            </g>
        </g>
    </g>
</svg>