<?xml version="1.0" encoding="UTF-8"?>
<svg width="200px" height="200px" viewBox="0 0 200 200" version="1.1" xmlns="http://www.w3.org/2000/svg" xmlns:xlink="http://www.w3.org/1999/xlink">
    <!-- Generator: Sketch 51.3 (57544) - http://www.bohemiancoding.com/sketch -->
    <title>mary-washington</title>
    <desc>Created with Sketch.</desc>
    <defs></defs>
    <g id="mary-washington" stroke="none" stroke-width="1" fill="none" fill-rule="evenodd">
        <g id="mary-washington_BGL" transform="translate(0.000000, 0.995025)">
            <g id="mary-washington">
                <g id="g10" transform="translate(99.999998, 100.009757) scale(-1, 1) rotate(-180.000000) translate(-99.999998, -100.009757) translate(0.000000, 0.507272)" fill-rule="nonzero">
                    <g id="g12">
                        <path d="M75.5301942,33.0105152 C74.9525471,32.5440632 74.7074491,31.8292061 74.8482334,31.0198412 L75.032155,29.9117347 L75.8058805,30.7165342 C76.2270569,31.1417805 76.6835275,31.3673585 77.0435275,31.2286793 C77.7513706,30.9375468 78.9352921,29.9513406 79.0301941,28.9331375 C79.0380372,28.9041842 78.6168608,28.7258602 78.6168608,28.6984287 C78.1952922,28.2182804 78.0160765,27.7122225 78.0650961,27.2275088 C78.1341157,26.4928293 78.5447039,25.842005 78.7470569,25.5401808 C78.7470569,25.5325718 79.142351,24.528104 79.4207823,23.9488824 C78.9352921,24.3269138 78.0545079,25.1240653 77.6439196,25.4837961 L77.1658804,26.075192 L76.7678412,26.533996 C76.7678412,26.5431268 76.1505863,27.1894247 76.1505863,27.1894247 C74.419606,29.0581595 74.4039197,29.3020381 73.8298021,29.5504821 C72.6043119,31.713354 70.2529394,32.1310303 68.4725473,31.3810937 C66.5960768,30.5884687 65.7384297,28.8218898 66.354116,27.0750944 L67.0556846,25.1286307 L67.4388218,27.1589497 C67.5721552,27.7991213 68.3607826,28.2045842 69.0580375,28.2304939 C69.256861,28.2381029 69.9082335,28.2045842 70.0737237,27.6985263 C70.0427433,27.2488531 70.0274492,26.844951 70.0580375,26.5080864 C70.1607826,25.3588131 70.7199982,24.7658954 72.3866649,23.9412734 C72.7007825,23.7842546 72.9490178,23.6760505 73.1756844,23.5891517 C72.8952923,23.5921953 72.6011747,23.5754555 72.3054884,23.4916002 C71.3172531,24.3375665 70.2039198,24.6164856 69.1619591,24.1394199 C67.8294101,23.5327669 66.9439199,21.9094327 67.0819591,20.3684318 L67.2274493,18.8442098 L68.1129395,20.0971217 C68.4529395,20.5742264 68.8588218,20.8622763 69.3074492,20.9400444 C69.8592139,21.0314696 70.4949002,20.8378885 71.2023512,20.3425222 C72.1905864,18.912808 73.6658805,18.8380836 74.9909785,18.8060867 C74.9909785,18.8060867 75.6266648,18.7832207 75.6294099,18.7832207 C75.6294099,18.7801771 81.2333313,17.7513214 81.2333313,17.7513214 L81.2866646,17.7375861 L81.4552921,17.7513214 C82.0835274,17.7787528 82.6423509,17.8016189 83.4392136,15.9603157 C83.4466646,15.9450976 84.0286254,14.0504533 84.0286254,14.0504533 L84.702743,12.271661 C84.947841,11.4973366 85.6098018,11.0217927 86.00039,10.7962147 C86.0050959,10.7093159 86.0156841,10.6178517 86.0309782,10.5446881 C86.1196057,9.56156449 85.8976449,9.4899227 84.7137234,9.09667327 L82.7756842,8.44124455 L83.9137234,7.83154795 C84.92039,7.28740592 87.3607821,6.84538077 88.6121546,7.89253712 C89.0411742,8.25070704 89.4545076,8.8832697 89.3521546,9.95481392 C89.3368605,10.2139496 89.2447037,10.52947 89.1603899,10.8419469 C89.4823507,11.3494876 89.6278409,11.9287091 89.5666644,12.5384057 C89.4392135,13.8675638 88.6396056,15.2668029 88.0576449,15.9710073 C87.930586,16.1158127 87.8537233,16.2606181 87.8384292,16.3901664 C87.8384292,16.4175979 87.8384292,16.4435075 87.8384292,16.470939 C87.8662723,16.6721682 88.0376449,16.844405 88.1066645,16.8977461 C88.6964684,17.3717682 92.9474487,19.4859033 94.9431349,20.1977168 L94.9894094,20.2144956 L97.3054878,21.502487 L95.9039192,25.7383273 C95.9039192,25.7383273 90.3478409,22.6243288 90.2023507,22.5328645 C90.0721546,22.4947414 88.7698017,21.6167783 88.5278409,21.5451365 C86.8427429,21.8972583 85.8164684,22.3911027 85.4564685,22.5831621 C85.2313704,23.1242605 85.1164685,23.6592717 85.0321547,24.224758 C84.9356842,24.8512334 84.8286253,25.5020967 84.5219587,26.1819133 C83.9137234,28.4911123 82.9517626,29.885786 81.8537234,30.2500822 C81.5196058,31.5944973 80.5439196,32.7117346 79.1266647,33.2559157 C77.7788216,33.7756698 76.357253,33.6826838 75.5301942,33.0105152" id="path14" fill="#FFFFFF"></path>
                        <path d="M104.903527,109.670859 C105.581958,107.202807 106.455291,106.305333 105.176076,104.235292 C104.597252,102.265923 102.947448,100.509997 102.158429,99.0697468 C103.44039,99.580136 105.796468,102.58316 106.052546,103.338989 C105.761174,101.409421 105.597252,93.3001635 104.550978,91.8630355 L107.956468,92.1724687 C107.956468,92.1724687 117.763526,109.001656 118.327056,119.631643 C118.855683,129.650567 118.797644,138.47117 116.772546,146.01619 C120.877644,142.458683 126.487448,133.02975 126.878036,128.360937 C131.976075,144.865473 136.234506,174.109448 132.65333,196.57828 C141.652938,189.803136 147.011369,146.415761 143.8098,132.634862 C151.770977,145.346987 154.267839,183.509507 148.224702,196.525212 C156.891761,195.150127 161.743133,156.533407 161.311369,149.857376 C163.910976,154.143397 171.079996,174.077452 166.94078,180.865082 C171.079996,178.022432 174.707447,161.374691 172.777251,153.256459 C175.427447,160.475267 178.22627,161.793772 177.794113,166.986631 C179.704309,163.278115 179.463917,146.549601 174.090192,137.322014 C182.883133,144.04526 187.310191,148.531066 188.51725,153.241241 C189.516074,148.808503 184.227839,135.402982 180.972544,132.02536 C192.464701,135.866156 197.489407,140.106913 199.156073,142.917565 C198.247446,138.587061 188.348623,123.914932 182.293329,119.781092 C187.307054,121.158908 192.852152,123.253143 195.773721,126.265142 C194.210976,122.149641 188.609015,112.880692 185.06274,109.419176 C188.501956,110.234706 184.560388,99.8349404 179.103917,96.0593089 C176.288231,94.6600308 167.434113,91.6113527 162.256467,90.7884086 C169.10078,91.2211469 175.468623,93.2104162 178.609015,94.044286 C178.103525,92.5884281 176.288231,86.7993345 170.548231,85.535848 C165.792153,83.7662646 166.813721,83.272264 160.280388,82.8668402 C162.6898,81.6049146 170.494898,82.2358774 173.416074,82.3822046 C171.375682,79.423664 171.19176,77.7453887 165.975682,73.5768199 C162.651761,70.9136652 159.407055,69.483951 159.407055,69.483951 C162.823133,68.084673 158.403918,61.6966134 155.275682,59.4864876 C152.130977,57.2689479 147.547447,56.1209624 143.840389,56.1256449 C145.065879,53.6732013 137.391369,42.0064373 133.699605,41.6696897 L134.097644,37.3317326 C143.250585,37.1579739 150.772153,39.8618661 160.172937,44.4225918 C159.836074,40.6867612 159.411761,37.9566472 159.411761,37.9566472 C163.318035,39.6577885 165.539212,41.2123685 165.539212,41.2123685 C165.814898,38.2005258 163.417643,31.2530672 162.283918,28.7944584 C163.999604,24.9091399 162.0498,20.3532138 158.699604,20.0529114 C160.38431,16.5014531 159.610976,13.7379764 156.986663,12.8280165 C159.587839,10.373973 160.752153,5.09249817 153.57529,5.78144557 C153.616859,1.74677978 151.510584,-1.13403568 146.631369,0.435934044 C141.752545,2.00895127 138.54784,3.73896391 138.54784,3.73896391 C134.797644,0.362769672 133.309016,1.91749483 128.935291,5.2220465 C124.572546,8.52201715 107.879997,20.7998044 107.879997,20.7998044 C107.872154,19.1246508 106.779997,18.0073744 106.358821,17.1309331 C105.719997,18.5850742 104.479213,19.1475168 104.479213,19.1475168 C105.268233,16.0213048 104.681566,15.1219975 104.275292,14.0733193 C103.644311,15.3658761 103.269017,15.8383763 102.594899,15.7774262 C102.199605,14.558033 101.101566,13.6160371 101.101566,13.6160371 L100.58039,15.5944977 C99.7458799,13.6663347 96.478429,12.3585598 96.478429,12.3585598 C96.6466643,14.2760312 96.2176447,15.2515458 96.2176447,15.2515458 C95.9466643,15.1219975 95.6588211,15.0000582 95.3599976,14.8888105 L88.3211743,18.3457609 C88.0682331,17.3489021 87.0650959,15.6097548 86.5364684,15.0412249 C86.5517625,16.0517799 86.2345076,17.1461902 86.2345076,17.1461902 C85.8823508,15.9938734 84.3886253,13.8340061 83.3117626,13.2883423 C83.3348999,14.2988973 82.9670567,15.841459 82.9670567,15.841459 C81.7341156,13.3691149 80.3858803,12.0156079 80.3858803,12.0156079 C80.3705862,14.5885081 79.8423509,16.6767336 79.8423509,16.6767336 C78.7086255,15.5640226 77.0007824,14.5077355 77.0007824,14.5077355 L77.349802,16.7834158 C72.512155,16.6767336 72.9764688,16.1005556 72.3635276,15.3734851 C73.0835276,19.8135982 74.0133315,21.9231679 76.4384295,23.8238995 C75.0980373,23.5921953 76.2576452,26.2215192 76.5639197,27.8159002 C76.8674491,29.4208948 76.1933314,35.7068765 75.772155,38.86052 C75.4074491,41.6302789 73.8909785,42.7778743 72.9258805,44.0963797 C71.907057,45.3477698 70.9039198,48.8475258 70.7658806,47.9402973 C70.0580375,48.3215284 62.2949004,48.2087589 58.8678417,51.0424336 L55.0764692,70.2171478 C61.2760769,73.9209815 71.0462727,76.6859799 75.6450961,78.2300244 C75.6450961,78.2300244 67.7098022,104.08116 57.9333319,109.778946 C48.1784302,115.464245 45.8043126,116.401909 42.2470578,121.477316 C38.6856461,126.528921 19.5603525,147.999216 1.55330977,147.831427 C-6.28984298,147.479462 17.4999996,157.627935 30.0183914,152.389031 C21.8382347,162.923028 9.06709781,169.271677 2.25796465,170.129739 C9.54964682,171.943416 30.2864698,168.209146 37.2028226,162.860595 C28.9430189,174.070038 17.3391368,183.802161 10.847137,185.422296 C18.2276466,186.116082 37.2227442,177.087889 40.5623519,173.667345 C40.577646,177.023896 36.7815677,184.7289 32.553607,189.536236 C38.9384304,189.019603 54.8270575,176.496337 59.0133319,169.033651 C58.6533319,172.367179 59.4196064,178.912492 55.3368614,185.480436 C62.6211749,183.689392 69.2388218,168.117838 72.627057,154.856693 C72.987057,158.294016 74.787057,171.007702 71.4980374,180.049552 C77.2196059,171.60979 77.322351,169.61896 81.2560764,158.4341 C81.6772529,161.24046 82.5078411,164.840499 82.5078411,164.840499 C83.7639195,162.69905 87.5627429,155.999996 87.9501939,152.748801 C88.325488,153.794553 90.2972526,156.25441 90.2972526,156.25441 C93.6827428,148.982535 94.3490172,143.473999 94.0396055,145.970536 L94.9615663,148.846743 C97.1294093,145.494875 99.2631348,138.303772 99.0945073,135.479072 L100.208233,140.943514 C101.254507,137.745777 101.783135,135.628521 101.844311,132.971609 C101.656076,128.540822 99.8835269,125.873375 98.9874485,123.863035 C100.499213,125.545602 103.192546,129.842549 103.44039,131.02058 C104.088625,128.778457 104.754899,123.429906 104.060782,121.239681 C104.137644,120.668029 102.689801,118.401714 101.936468,116.78275 C103.325488,117.877277 105.030586,119.584428 105.48235,120.596622 C105.48235,120.596622 106.309801,115.571161 104.54039,111.363962 C103.930586,109.774263 102.39137,106.707636 101.514899,106.046237 C102.602743,106.538286 105.023135,108.583745 104.903527,109.670859" id="path16" fill="#0D2F5B"></path>
                        <path d="M107.879997,20.7998044 C124.891369,8.28578655 123.336468,9.45488221 128.935291,5.2220465 C133.309016,1.91749483 134.797644,0.362769672 138.54784,3.73896391 C138.54784,3.73896391 141.752545,2.00895127 146.631369,0.435934044" id="path18" fill="#0D2F5B"></path>
                        <path d="M78.2843118,14.1343085 C76.4415667,13.0566381 72.2105864,11.0477024 71.6513708,10.3922737 C71.6513708,10.3922737 70.8317629,9.49753171 71.8427433,8.66990516 C72.8690178,7.83611335 74.5345079,5.67171969 73.6811746,4.21910047 C75.6952922,0.690480911 71.2639198,0.423740112 69.8666649,0.865769172 C71.6588217,1.92206804 72.3482335,1.92206804 71.6282335,4.0788605 C71.6282335,4.0788605 70.4901943,4.10477016 70.1227433,5.10315078 C69.3074492,7.28740592 68.9015669,6.72648505 68.1462728,8.5372742 C66.7219591,10.6209343 65.879214,10.2932004 65.136469,10.1148763 C63.2827435,10.0493218 62.2149004,10.0310211 59.3917632,10.0691442 C57.8678417,9.85574066 56.3203907,9.3375083 55.0764692,10.7047505 C53.1619595,11.5628911 51.913332,10.9257631 51.3188222,9.60729661 C50.683136,11.7762947 52.605881,14.7637885 55.3094104,12.8890056 C56.8564692,13.9132959 58.6533319,12.7548529 59.7364691,12.6984681 C60.8058808,12.7395958 61.7784298,12.2259289 62.398822,12.1801967 C62.398822,12.1801967 61.4415671,12.5490973 60.4152926,12.5871814 C59.3996064,12.6222609 58.6152927,13.5749094 57.9105868,14.0626667 C57.2058809,14.550424 57.5764691,13.9132959 55.4517633,14.5046919 C53.3227438,15.094566 53.0698026,15.5137251 52.8399987,17.4388446 C52.1278418,18.9173734 49.2584301,17.8778261 49.2662733,16.1767628 C47.3898027,19.3380543 52.6639203,22.7447463 55.3552927,19.2298503 C55.8423515,19.3197537 57.7650966,17.8290504 59.6905867,16.4206415 C60.9082338,15.7118716 61.4294102,15.3155786 63.7192141,14.3674955 C63.7192141,14.3674955 62.3070573,16.1158127 61.6435279,17.1157151 C60.5607828,18.2604229 60.5223514,19.0484436 61.1121553,19.7633006 C60.6941161,21.9429904 57.9333319,23.1501701 56.8949005,21.564959 C55.8301947,24.3985166 61.7509788,24.9807817 63.00392,21.4491459 C63.9384298,21.5619154 65.1560768,20.5208462 66.3282336,18.1323964 C67.1199983,16.999863 67.1505866,15.7926832 67.9980375,14.6372838 C67.9980375,14.6372838 69.3411747,14.1007508 71.7235276,14.0885764 L73.0835276,15.69361 L77.4984294,19.9279285 L79.9235274,15.5030725 L78.2843118,14.1343085" id="path20" fill="#0D2F5B"></path>
                        <path d="M65.8870572,12.6908201 C64.321567,12.0506484 63.5247043,13.8568722 62.7850965,14.1540919 C60.3799985,15.0457903 59.0596064,16.2606181 58.273724,16.6493021 C57.3392143,17.3275969 56.3129398,17.9388153 55.03843,18.3777968 C54.0454888,19.1841181 53.0960771,18.3594962 53.2152928,17.5958634 C53.4023516,15.9603157 53.7898026,15.5594572 55.5929398,15.0640909 C57.4050966,14.558033 56.956077,15.0716999 57.5505868,14.6525408 C58.1356848,14.2303381 60.0015671,12.8966146 60.8670573,12.8615351 C61.7356847,12.8356255 64.1176455,11.7640813 64.1176455,11.7640813 C63.1831357,11.3342695 61.6407828,11.9241437 60.3494103,11.9668322 C58.3733319,12.038474 56.3403907,12.9804309 55.6156849,11.7717293 C55.4670574,11.4104767 55.5286261,11.113257 55.8301947,10.6514094 C56.8949005,9.48231368 58.3396064,10.373973 59.633724,10.5446881 C62.256469,9.91977343 64.2447043,10.6514094 65.626665,10.8007801 C66.9254885,10.4197051 66.6988219,10.3130229 67.9627434,9.38324042 C70.3599982,6.29967792 69.7470571,6.68531834 70.9498021,5.50404825 C72.0650962,4.20384342 72.8799982,4.57730942 73.2858805,4.87452919 C74.0027432,6.10153141 71.5243119,8.51440814 70.6588218,9.21861259 C69.8054885,9.91977343 70.8960767,10.9257631 70.8960767,10.9257631 C71.2486257,12.030826 73.2674491,13.1785774 74.8298021,14.0961854 L77.4494098,16.3596913 L74.7074491,16.7681978 L72.8494099,14.9268946 L72.0756845,13.8065746 C70.0458806,13.8263971 67.679214,14.3141544 67.679214,14.3141544 C67.1399983,15.2591938 65.6952925,16.9663443 65.0411748,17.4007605 C64.8039199,19.9324939 63.5019592,20.5742264 62.7129396,20.4751531 C62.4250965,19.9492727 61.8243122,19.8806746 61.3984298,19.7572134 C61.3984298,18.3960585 61.5411749,17.6156468 62.976469,16.9541309 C63.3254886,16.4404639 64.4929396,14.9726267 64.7917631,14.3294114 C65.136469,13.1130618 65.539214,12.9423468 65.8870572,12.6908201" id="path22" fill="#FFFFFF"></path>
                        <path d="M94.7517623,20.7266408 C92.7450957,20.0163491 88.4250958,17.8823915 87.7619586,17.3412931 C87.7619586,17.3412931 86.7894096,16.6157444 87.6164684,15.6097548 C88.4560762,14.6037651 89.6921546,12.1604133 88.5662723,10.902897 C89.868233,7.04657089 85.4717626,7.63340143 84.1850959,8.32691424 C86.1458802,9.01742247 86.8274488,8.89548315 86.5258802,11.1467756 C86.5258802,11.1467756 85.5070567,11.5964488 85.2466645,12.4393324 C84.5450959,14.6647153 84.3580371,14.2608132 83.9599979,16.1844109 C82.9517626,18.5043016 82.0709783,18.3411955 81.3098019,18.3046332 C79.4713706,18.5926832 78.429802,18.7664808 75.657253,19.3410979 C74.1282334,19.4233924 72.5015668,19.2069842 71.5517629,20.795239 C69.8360767,21.9978533 68.4882336,21.6076475 67.6560767,20.4156858 C67.434116,22.6791917 69.8929394,25.242961 72.1905864,22.8895517 C73.9109785,23.5983215 75.4427432,22.1289235 76.5027432,21.8621788 C77.5643118,21.7021553 78.4145078,21.0101643 79.0149,20.8501019 C79.0149,20.8501019 78.1419588,21.3972875 77.1462726,21.6244263 C76.1549001,21.8545697 75.5607824,22.933723 74.9678413,23.5465022 C74.3705864,24.1607642 74.6184295,23.462647 72.6392139,24.4472923 C70.6588218,25.4258895 70.4823512,25.8907807 70.6403904,27.8159002 C70.214508,29.411764 67.2121552,28.9331375 66.8901944,27.2625883 C65.6419591,30.7226214 71.4705864,33.0669 73.4588217,29.108457 C73.944704,29.0947217 75.5454883,27.2778454 77.1737236,25.5280064 C78.2231353,24.6012676 78.6596059,24.1150321 80.7305862,22.7447463 C80.7305862,22.7447463 79.6815666,24.7277723 79.2219588,25.8389614 C78.3717627,27.1604715 78.4866647,27.9515357 79.1956843,28.5444535 C79.2109784,30.7561401 76.724704,32.4648124 75.4074491,31.1113054 C74.8988217,34.0911903 80.8301941,33.5363566 81.3862725,29.8324449 C82.3160764,29.7730165 83.3196058,28.5200656 84.0058803,25.9562963 C84.5725469,24.691171 84.3764685,23.4977265 84.9862724,22.2051697 C84.9862724,22.2051697 86.2039194,21.4262798 88.5399978,20.9598278 L90.6494095,21.5817378 L95.5972525,24.8603642 L96.6282329,21.7692317 L94.7517623,20.7266408" id="path24" fill="#0D2F5B"></path>
                        <path d="M94.7517623,20.7266408 C92.7450957,20.0163491 88.4250958,17.8823915 87.7619586,17.3412931 C87.7619586,17.3412931 86.7894096,16.6157444 87.6164684,15.6097548 C88.4560762,14.6037651 89.6921546,12.1604133 88.5662723,10.902897 C89.868233,7.04657089 85.4717626,7.63340143 84.1850959,8.32691424 C86.1458802,9.01742247 86.8274488,8.89548315 86.5258802,11.1467756 C86.5258802,11.1467756 85.4180371,11.3830453 85.2466645,12.4393324 C84.8666645,14.7333135 84.3580371,14.2608132 83.9599979,16.1844109 C82.9517626,18.5043016 82.0709783,18.3411955 81.3098019,18.3046332 C79.4713706,18.5926832 78.429802,18.7664808 75.657253,19.3410979 C74.1282334,19.4233924 72.5015668,19.2069842 71.5517629,20.795239 C69.8360767,21.9978533 68.4882336,21.6076475 67.6560767,20.4156858 C67.434116,22.6791917 69.8929394,25.242961 72.1905864,22.8895517 C73.9109785,23.5983215 75.4427432,22.1289235 76.5027432,21.8621788 C77.5643118,21.7021553 78.4145078,21.0101643 79.0149,20.8501019 C79.0149,20.8501019 78.1419588,21.3972875 77.1462726,21.6244263 C76.1549001,21.8545697 75.5607824,22.933723 74.9678413,23.5465022 C74.3705864,24.1607642 74.6184295,23.462647 72.6392139,24.4472923 C70.6588218,25.4258895 70.4823512,25.8907807 70.6403904,27.8159002 C70.214508,29.411764 67.2121552,28.9331375 66.8901944,27.2625883 C65.6419591,30.7226214 71.4705864,33.0669 73.4588217,29.108457 C73.944704,29.0947217 75.5454883,27.2778454 77.1737236,25.5280064 C78.2231353,24.6012676 78.6596059,24.1150321 80.7305862,22.7447463 C80.7305862,22.7447463 79.6815666,24.7277723 79.2219588,25.8389614 C78.3717627,27.1604715 78.4866647,27.9515357 79.1956843,28.5444535 C79.2109784,30.7561401 76.724704,32.4648124 75.4074491,31.1113054 C74.8988217,34.0911903 80.8301941,33.5363566 81.3862725,29.8324449 C82.3160764,29.7730165 83.3196058,28.5200656 84.0058803,25.9562963 C84.5725469,24.691171 84.3764685,23.4977265 84.9862724,22.2051697 C84.9862724,22.2051697 86.2039194,21.4262798 88.5399978,20.9598278 L90.1792134,22.2737288 L96.4321545,26.6361129 L98.3058799,21.7158516 L94.7517623,20.7266408" id="path26" fill="#0D2F5B"></path>
                        <path d="M82.5458803,20.6900395 C80.8807823,20.3501312 80.447449,22.2813769 79.7733313,22.7218802 C77.5796059,24.0509993 76.5180373,25.4914051 75.8180373,26.0142419 C75.0368609,26.8601691 74.1482334,27.654316 72.9686256,28.3295671 C72.1568609,29.3096471 71.06941,28.6755626 71.0309786,27.9058036 C70.9039198,26.2642077 71.2023512,25.8008383 72.8843119,24.9716509 C74.5694099,24.1348545 74.2278413,24.7155588 74.7305864,24.1988483 C75.2313707,23.6730069 76.8015667,22.0115886 77.6439196,21.8073158 C78.4909784,21.6198609 80.6282333,20.1215096 80.6282333,20.1215096 C79.619998,19.8685001 78.2231353,20.7464632 76.962351,21.0314696 C75.0368609,21.4750556 73.2168609,22.7904784 72.2901943,21.7326304 C72.0603904,21.4064574 72.0603904,21.1015896 72.2749002,20.5970925 C73.094508,19.2465901 74.6843119,19.8410687 75.9894099,19.7739923 C78.4403902,18.6673686 80.5313705,19.0042333 81.9180372,18.889942 C83.125096,18.2649883 82.8721548,18.2086036 83.9399979,17.0455951 C85.4839194,14.0047211 84.8972528,14.4696124 86.1380371,12.6710367 C86.9882331,11.1894642 87.8384292,11.3982633 88.3101939,11.6162323 C89.255684,12.6862547 87.2686253,15.5182905 86.5596057,16.3749094 C85.8470567,17.2300454 87.1231351,18.0043308 87.1231351,18.0043308 C87.6823507,19.0316647 89.8803899,19.7739923 91.5886252,20.3776017 L97.0066642,24.5158905 L94.6521545,24.8207583 L89.9725468,21.2418295 L88.8235272,20.6183977 C86.8321547,21.0147297 84.6031351,21.946034 84.6031351,21.946034 C84.2615665,22.9779333 83.1662724,24.9228752 82.6043117,25.4731434 C82.8599979,28.0018333 81.7035274,28.8813182 80.9070568,28.9331375 C80.5239196,28.4774161 79.9235274,28.5231482 79.4792137,28.4774161 C79.2219588,27.1452144 79.2141157,26.3526284 80.4980372,25.4258895 C80.7352921,24.8557988 81.6039195,23.1959023 81.772547,22.5069549 C81.8843117,21.2463949 82.2443117,21.0025163 82.5458803,20.6900395" id="path28" fill="#FFFFFF"></path>
                        <path d="M53.1462732,48.106525 C55.3678418,47.9680019 58.5874495,48.7316347 59.7058809,46.4559544 C60.1349005,47.8400144 59.8439201,49.0882828 59.0701946,50.370109 C60.3799985,50.370109 61.1811749,50.0072176 63.1678416,50.8059689 C62.3329396,50.9355172 61.413724,51.9828296 61.1811749,52.2708015 C62.3329396,52.0636022 63.8188219,52.7175872 63.8188219,52.7175872 C63.8188219,52.7175872 63.336469,53.496438 62.2258808,54.3131388 C63.6658808,54.3408434 64.8760768,54.6545689 66.0294101,55.5828686 C66.0294101,55.5828686 64.689018,56.6972964 63.3133318,57.0781373 C65.6847042,57.0921847 67.0819591,57.6298883 67.8247042,58.4134216 C67.8247042,58.4134216 67.3423513,59.2913847 65.8870572,59.3678651 C68.8862728,60.463563 69.1345081,62.2288542 69.4149002,63.6932966 C69.4149002,63.6932966 68.3301944,63.0822343 64.3627435,62.4114705 C66.0478415,63.248462 69.4301943,65.3337219 70.3215669,67.6047198 C66.6988219,66.5878434 64.3780376,67.8868386 64.3780376,67.8868386 C64.8270572,69.0223376 66.3356846,72.0920868 67.9474493,72.5111678 C64.9219592,74.0158015 61.0541161,73.4012273 58.7176456,72.2598753 C58.7176456,72.2598753 61.046273,73.2689475 61.5180377,73.7200255 C59.1545083,73.7290002 57.7650966,73.6954425 56.2439202,73.3555732 C52.4678418,72.7335851 51.4415673,71.4427843 44.2494107,67.3670845 C37.0649402,63.2894336 33.8939992,58.5187772 32.1093717,54.3560615 C30.5621953,50.7388535 29.073215,45.0960871 30.9374894,44.3098223 C32.8523129,43.4607345 37.8737638,45.3173338 40.1898029,44.9392243 C41.4305872,44.7409998 40.8533323,42.1453506 41.4690186,42.453223 C42.0819597,42.7579738 42.4266656,44.0916973 44.0090185,44.785093 C46.0999988,45.9818543 51.1274497,48.0850637 53.1462732,48.106525" id="path30" fill="#0D2F5B"></path>
                        <path d="M39.462352,45.1144267 C39.7317637,45.1144267 39.9815676,45.0976479 40.2098029,45.0597979 C41.0172539,44.9314202 41.1364696,43.9516134 41.2223519,43.2351955 C41.2513715,42.9913168 41.3003911,42.5843322 41.3756852,42.5507745 C41.3756852,42.5507745 41.3862735,42.5492136 41.4137245,42.56131 C41.6192146,42.6651048 41.7984303,42.9089834 42.0266656,43.2168558 C42.412548,43.7381708 42.942744,44.451467 43.9584303,44.8982527 C45.9282341,46.0259475 51.0509791,48.2071981 53.1435281,48.2286594 L53.1541163,48.2286594 C53.6474496,48.1951017 54.1972535,48.2134414 54.773332,48.2286594 C56.6239202,48.2606563 58.6917632,48.3305031 59.6674495,46.7790448 C59.9431358,47.9313226 59.7180377,49.0605782 58.9643123,50.307676 L58.8525475,50.4918532 L59.0701946,50.4918532 C59.3917632,50.4918532 59.6843122,50.4707821 59.966273,50.4493208 C60.7599985,50.3958626 61.5117632,50.3381121 62.7835278,50.7907509 C61.9929396,51.1138413 61.24392,51.9964868 61.0847044,52.1947114 L60.8760769,52.4506864 L61.2011749,52.3913751 C62.1184298,52.2341222 63.241567,52.6212064 63.6321553,52.772216 C63.451371,53.0207771 62.976469,53.6092075 62.1537239,54.2144168 L61.8627436,54.42903 L62.2243122,54.4352732 C63.7317631,54.4641485 64.8207827,54.8087002 65.8317631,55.5828686 C65.476469,55.8571833 64.3811749,56.6543738 63.2811749,56.9595147 L63.3133318,57.2002717 C65.3831356,57.2108073 66.8490179,57.6255961 67.6686258,58.4286396 C67.5184297,58.6331075 67.0129395,59.1879802 65.8807827,59.2472915 L65.8454885,59.4821954 C68.6196061,60.4986815 68.9811747,62.0716012 69.24941,63.4818051 C68.7623512,63.2757764 67.4082336,62.8016763 64.3843121,62.2912871 L64.3074494,62.5215085 C66.0372533,63.3795711 69.1313708,65.3458183 70.1070571,67.4201524 C66.6223513,66.5148749 64.4101945,67.726464 64.3168611,67.7799222 L64.2247043,67.8318196 L64.2631356,67.9324927 C64.2784298,67.9703427 65.7764689,71.7139773 67.6254885,72.5279467 C64.9662729,73.7169038 61.6223514,73.3372336 59.3396064,72.4046416 C59.0243122,72.2598753 58.796077,72.160763 58.7682338,72.1471058 L58.6643123,72.3710839 C58.8556848,72.4639529 59.0549005,72.5525296 59.2615671,72.6360337 C59.8298024,72.898252 60.6709789,73.2978228 61.1458808,73.5963302 C61.0509789,73.5963302 60.9545083,73.5963302 60.8607828,73.5963302 C58.9952926,73.5963302 57.6729397,73.5491153 56.2713711,73.2353898 C53.59843,72.7948475 52.3129399,72.0175575 49.2050968,70.1410577 C47.9474498,69.3805465 46.3831361,68.4339072 44.3105871,67.2601681 C36.5686265,62.8656701 33.7040384,57.7641191 32.2227443,54.3088466 C30.8042345,50.9889754 29.7212149,46.7517304 30.4013326,45.0750159 C30.5330973,44.7488039 30.7307051,44.529118 30.9849796,44.421031 C32.0082737,43.9715139 34.0073717,44.3203579 35.9390187,44.6649096 C37.2349795,44.8935702 38.475803,45.1144267 39.462352,45.1144267 Z M41.3756852,42.305335 C41.3282343,42.305335 41.2898029,42.3174314 41.2592147,42.3342102 C41.0705872,42.4333225 41.032548,42.7579738 40.9772539,43.2063203 C40.8960774,43.8798155 40.7949009,44.7183678 40.1717637,44.8186507 C39.1528618,44.9759037 37.5413716,44.7000281 35.9834501,44.4225918 C34.0150188,44.0749184 31.9807051,43.712027 30.8884698,44.1970528 C30.5713718,44.3293326 30.3309012,44.5946726 30.1730973,44.9833176 C29.4347444,46.8032375 30.600509,51.1415459 31.9959992,54.4032764 C33.4926658,57.8921066 36.383254,63.0439941 44.1882342,67.4736106 C46.2592145,68.6457889 47.8199988,69.5908674 49.0764694,70.3482569 C52.2137242,72.2446573 53.5109791,73.0293612 56.2254888,73.4761468 C57.8031358,73.8296733 59.2768613,73.8542563 61.5180377,73.8402089 L61.8215671,73.8402089 L61.60392,73.6314487 C61.4721553,73.5065829 61.2101945,73.341916 60.8929397,73.1682744 C63.1309788,73.7247079 65.789018,73.7231471 68.0023512,72.6208157 L68.2964689,72.4744885 L67.9780375,72.3921551 C66.4784297,72.0019492 65.0258807,69.1456426 64.5356847,67.9461499 C65.0062729,67.7252934 67.1674493,66.8485009 70.28941,67.7237326 L70.5270571,67.7892872 L70.4364688,67.5606265 C69.56941,65.3532322 66.5274493,63.4556613 65.1070572,62.6662749 C68.3745081,63.2683625 69.3427434,63.7939697 69.3537238,63.800213 L69.5847041,63.9297614 L69.5098022,63.5411164 C69.2556845,62.190614 68.9415669,60.5291176 66.381567,59.4318588 C67.5121552,59.2137338 67.9152924,58.5066808 67.9321552,58.4731231 L67.9764689,58.3950819 L67.9152924,58.3295274 C67.1505866,57.524923 65.8270572,57.0691626 63.9796062,56.9731719 C65.1101945,56.5006327 66.061567,55.7155386 66.1074493,55.6761278 L66.2223513,55.5801371 L66.1058807,55.4868779 C65.1070572,54.6838344 64.0074494,54.2811419 62.5705867,54.203491 C63.4956847,53.4644412 63.9062729,52.8104562 63.9247043,52.781581 L63.996469,52.6625682 L63.8694102,52.6048177 C63.8156847,52.5817956 62.7235278,52.1076955 61.6729396,52.1076955 C61.6070573,52.1076955 61.5443122,52.1092563 61.4796063,52.1139388 C61.8274494,51.7295861 62.5411749,51.0272156 63.1878416,50.9281033 L63.6274494,50.8594271 L63.2137239,50.6916386 C61.6819592,50.0805763 60.84392,50.1367659 59.9494103,50.2054421 C59.7364691,50.2206601 59.518822,50.2358782 59.286273,50.2436823 C60.0443122,48.9037155 60.2160769,47.6843223 59.8239201,46.4208358 L59.7333318,46.1250598 L59.5956848,46.4024962 C58.7682338,48.0866245 56.7388221,48.0351173 54.7807829,47.9832199 C54.2035281,47.9648803 53.653332,47.9496622 53.1419595,47.9847808 C51.0862732,47.958637 46.0309792,45.8004086 44.070195,44.6785668 C43.1003911,44.2532425 42.6164695,43.5976967 42.2258813,43.0705286 C41.9866656,42.748999 41.7815676,42.4715627 41.5243127,42.3420144 C41.4674499,42.3158706 41.419999,42.305335 41.3756852,42.305335 Z" id="path32" fill="#0D2F5B"></path>
                        <path d="M52.8399987,50.3775229 C54.8576457,50.2604611 57.7725476,50.1750061 58.8019593,48.0991111 C59.1819593,49.3563542 58.5999985,49.5608221 57.8952927,50.7314396 C59.0854887,50.7314396 59.9431358,50.6155484 61.7556847,51.3409411 C60.9925475,51.4599538 57.6423515,53.0024375 57.430979,53.2646558 C58.4772534,53.0785276 62.3450965,53.0785276 62.3450965,53.0785276 C62.3450965,53.0785276 61.2117632,54.228074 60.2007828,54.9764887 C61.5180377,55.0038031 63.3101945,54.8574759 64.3596062,55.7034422 C64.3596062,55.7034422 61.7556847,57.6938821 59.7180377,57.7336831 C62.5901945,58.4485401 64.8988219,57.8710355 66.4811748,57.7902629 C66.4811748,57.7902629 65.5576454,59.0873071 64.2372533,59.1528617 C66.9713709,60.1494473 67.1937238,61.7652896 67.4388218,63.0943307 C67.4388218,63.0943307 64.3321553,62.7575831 60.2650965,61.6006228 C61.8015671,62.3626948 67.4647042,64.5942819 68.2811748,66.6674454 C64.5007827,68.272362 62.0619592,67.8255763 62.0619592,67.8255763 C62.4678416,68.8635238 65.6647042,71.1622263 67.1352924,71.5418966 C64.3627435,72.9107386 57.9796064,70.4793661 54.4670575,67.0178502 C54.4670575,67.0178502 58.4772534,72.229049 58.906273,72.642277 C56.5396064,72.7093924 54.2341163,72.0479935 53.4560771,71.864987 C51.2698026,71.211002 50.4992144,69.5479448 43.9399989,65.8320147 C37.3866265,62.1145239 34.595607,58.2319759 32.9748619,54.4352732 C31.5502345,51.1353026 30.2021953,48.5958431 31.7340776,46.1952969 C32.7879992,44.1268158 39.7654892,43.1911022 41.5733323,43.3889366 C42.1968617,43.4470772 43.8172538,46.0169728 45.2682342,46.6510573 C47.1721557,47.7451944 50.9894105,50.3595734 52.8399987,50.3775229" id="path34" fill="#FFFFFF"></path>
                        <path d="M58.5678417,72.5357508 C56.608626,72.5357508 54.7364692,72.0690646 53.8113712,71.8361118 C53.6827438,71.8041149 53.5721555,71.7779711 53.4835281,71.7569 C52.4678418,71.4533198 51.7615673,70.9245909 50.5898027,70.0466278 C49.263136,69.0512128 47.4419596,67.6870532 43.995293,65.7344633 C36.887254,61.7028567 34.4286266,57.5537982 33.079058,54.39118 C32.9595678,54.1153045 32.841607,53.845282 32.7236462,53.5803323 C31.4583522,50.6900777 30.456509,48.4054227 31.8305874,46.2546082 C32.8262737,44.2988966 39.6968618,43.2991892 41.5607833,43.4989746 C41.7968617,43.5216066 42.3160774,44.0963797 42.8172538,44.6481308 C43.5215675,45.4254208 44.3980381,46.3919606 45.2219597,46.752901 C45.5898028,46.9647827 46.0541165,47.2484624 46.545489,47.5500915 C48.5647047,48.7847027 51.3266654,50.4739037 52.8368614,50.4891218 L53.0729398,50.4766352 C55.0168614,50.3669873 57.6501946,50.2190993 58.7639201,48.3991794 C58.9109789,49.0898437 58.6933319,49.3899119 58.2980378,49.9342491 C58.1478417,50.1414484 57.9796064,50.3747914 57.7988221,50.6748597 L57.6976456,50.844209 L57.8952927,50.844209 C58.1815672,50.8457699 58.4482338,50.8364049 58.7176456,50.8364049 C59.4792142,50.8364049 60.2250965,50.891424 61.3909789,51.3226014 C60.2741161,51.6765181 57.5780378,52.9033252 57.3439201,53.1928579 L57.1552927,53.426201 L57.450979,53.3743036 C58.3133319,53.2221233 61.1733318,53.1944187 62.0709788,53.1912971 C61.7050965,53.549506 60.8792142,54.3330393 60.1333318,54.8863512 L59.8713711,55.0814541 L60.1992142,55.0892582 C61.4721553,55.1060371 63.1450965,54.9839026 64.1713709,55.7003205 C63.6411749,56.0831124 61.4490181,57.5873559 59.7149005,57.6209136 L59.6905867,57.8417701 C61.9086259,58.3923505 63.7698023,58.184761 65.2603905,58.0173627 C65.6035278,57.9791225 65.9313709,57.9408824 66.2317631,57.9182504 C65.9223513,58.2733377 65.1760768,58.9928773 64.2309788,59.0400922 L64.1988219,59.257827 C66.7725474,60.1954916 67.0635277,61.6646165 67.3007826,62.9647823 C66.6313709,62.8808881 63.8082337,62.4922431 60.2956848,61.4940966 L60.2160769,61.7028567 C60.4701946,61.8277226 60.8411749,61.9955111 61.2729396,62.1921748 C63.4098023,63.1598853 67.3513709,64.9462475 68.1325473,66.6077439 C64.4898023,68.1307173 62.0999984,67.7237326 62.0819592,67.7159285 L61.8843122,67.6792491 L61.9560769,67.8669381 C62.3698024,68.9216645 65.2650964,70.9944378 66.8168611,71.5586754 C64.0427435,72.5888188 58.0101946,70.3529394 54.5466653,66.9386385 L54.3764692,67.0865265 C54.5282339,67.2816294 57.7925476,71.5251177 58.6580377,72.5357508 C58.6290181,72.5357508 58.5984299,72.5357508 58.5678417,72.5357508 Z M41.0462735,43.2535352 C38.7346657,43.2535352 32.6378815,44.1740307 31.634509,46.1433995 C30.2021953,48.387083 31.2254894,50.7177824 32.5199208,53.6700796 C32.6348227,53.9338588 32.7527443,54.2050518 32.8722345,54.4793665 C34.235607,57.6743718 36.7187442,61.8628411 43.8831362,65.9280054 C47.3192145,67.8727912 49.1298027,69.2326585 50.4549007,70.2249519 C51.6466654,71.1165722 52.3650967,71.6562269 53.4235281,71.9715132 C53.5188222,71.9945353 53.6290183,72.0218497 53.7560771,72.0538466 C54.6921555,72.2887505 56.5807829,72.7597289 58.5678417,72.7597289 C58.681175,72.7597289 58.7945083,72.7566073 58.9094103,72.7550465 L59.1756848,72.7476326 L58.9843123,72.5630652 C58.681175,72.2719717 56.5117633,69.4796588 55.3278418,67.9477107 C59.0854887,71.0861362 64.6584298,72.8892773 67.1858807,71.6425697 L67.4556846,71.5098997 L67.1647042,71.4322487 C65.7627435,71.072479 62.8999984,69.0207767 62.256469,67.9660504 C62.936469,68.031605 65.1454886,68.1213523 68.324312,66.77085 L68.4235277,66.7283175 L68.3870571,66.6276444 C67.7023512,64.8916187 63.7501945,63.0701379 61.5117632,62.0548224 C64.906665,62.9253716 67.3972532,63.2043687 67.426665,63.2055393 L67.5764689,63.2223182 L67.5274493,62.9632215 C67.3023513,61.7258789 67.0250964,60.2013447 64.669018,59.2031982 C65.7933317,58.931615 66.5380376,57.9045932 66.5733317,57.8558175 L66.706665,57.6665677 L66.4752925,57.6786641 C66.0999983,57.6970037 65.6799984,57.7442186 65.2360768,57.7945552 C63.9152925,57.9471257 62.2992141,58.1285714 60.4043122,57.7703624 C62.2992141,57.4059102 64.3321553,55.8649874 64.4286258,55.7916287 L64.5403905,55.705003 L64.4301945,55.6148655 C63.5050965,54.8695723 62.0772534,54.8695723 60.8164691,54.8695723 C60.7168612,54.8695723 60.6219593,54.8680115 60.5254887,54.8680115 C61.4599985,54.1320833 62.4141161,53.1686651 62.4250965,53.1565688 L62.6133318,52.9657581 L62.3450965,52.9657581 C62.2074494,52.9657581 59.3227436,52.9688798 57.9105868,53.0937456 C58.8388221,52.5954528 61.1227436,51.5528228 61.7725475,51.4521497 L62.1768612,51.388156 L61.7968612,51.2390973 C60.1898024,50.5940871 59.3368613,50.6093051 58.3227436,50.6155484 C58.2474495,50.6171093 58.1725476,50.6171093 58.0972534,50.6186701 C58.233724,50.4067883 58.3639201,50.2269034 58.4803907,50.0653582 C58.9184299,49.4617098 59.2094103,49.0605782 58.9094103,48.0655534 L58.8282338,47.7939701 L58.701175,48.0487745 C57.7372535,49.9904387 55.0368614,50.1430092 53.0623516,50.252657 L52.8368614,50.2647534 C51.3862732,50.2495354 48.658038,48.5790642 46.6635282,47.359671 C46.1701949,47.0580419 45.7047047,46.7728015 45.3231361,46.5535058 C44.5329401,46.2073932 43.6733322,45.2591931 42.9839205,44.4971211 C42.2949009,43.7381708 41.890195,43.3066032 41.5839205,43.2777279 C41.4415676,43.2609491 41.2607833,43.2535352 41.0462735,43.2535352 Z" id="path36" fill="#0D2F5B"></path>
                        <path d="M46.3862734,45.9771718 C46.5749008,47.329235 39.4364696,45.2759719 38.9491363,46.0520913 C39.979999,46.0427264 42.2196068,48.3886438 42.3239205,49.4722454 C42.5764695,51.7069541 41.2823519,55.6394484 41.2207833,57.377035 C39.1835284,54.8375755 40.42745,51.5087296 37.3177246,48.3535253 C36.242352,47.2547057 37.9304696,45.7762158 34.3535678,45.6189629 C33.2092541,45.564334 31.6038423,45.2607539 30.8808228,44.1666168 L30.9374894,44.3098223 C30.9374894,44.3098223 28.6090581,42.1270109 28.6366267,38.0405024 C28.6473718,34.8380832 31.0952933,32.1432047 32.4157639,30.7485311 C31.9025874,32.638571 33.2322345,38.1548327 34.2999207,39.4716603 C35.3385481,40.3133343 38.3639598,43.6893951 38.3639598,43.6893951 C41.0905872,43.4209335 37.2181559,40.0280938 38.9077637,35.2145538 C39.2219598,34.3137246 40.0105872,33.5272258 40.0105872,33.5272258 C40.3784304,34.8289134 42.1505872,42.6221821 46.3862734,45.9771718" id="path38" fill="#0D2F5B"></path>
                        <path d="M30.9298424,44.1268158 C30.5055286,43.6679337 28.7361954,41.5616027 28.7591758,38.0405024 C28.7699208,35.0301035 30.9957247,32.4465117 32.2181561,31.1372151 C31.9546659,33.3382101 33.1939207,38.3011599 34.2049795,39.5481407 C35.2405089,40.3941069 38.2414108,43.7381708 38.2720775,43.7717285 L38.3134108,43.8173826 L38.3747049,43.8111393 C38.8495677,43.7639244 39.1636069,43.6207188 39.3352931,43.3737186 C39.6462735,42.9179582 39.4454892,42.2031011 39.1681951,41.2123685 C38.7484696,39.7186606 38.1740383,37.6746845 39.0241951,35.2541987 C39.2447049,34.6246797 39.7105872,34.0424145 39.9494108,33.7726262 C39.9662735,33.8350982 39.9831363,33.9021745 40.0047049,33.9783817 C41.5670578,39.9016671 43.6749009,43.9605881 46.265489,46.0380439 C46.2639204,46.0825274 46.2486263,46.1176459 46.2176459,46.148082 C45.8486263,46.5152656 43.8925479,46.2425118 42.3239205,46.0228259 C40.3247049,45.7469504 39.088548,45.5963309 38.84345,45.9877074 L38.7254892,46.1769572 L38.9506657,46.1738355 C38.9537245,46.1738355 38.9537245,46.1738355 38.9552539,46.1738355 C39.8913716,46.1738355 42.0988225,48.4264938 42.2011754,49.4831711 C42.3513715,50.8227477 41.9407833,52.7858732 41.5749009,54.5191675 C41.3772539,55.464246 41.1870578,56.364841 41.1211754,57.0402873 C40.3984304,56.0097537 40.1592147,54.8485012 39.9082343,53.6275472 C39.5466657,51.8743524 39.1727833,50.0606758 37.4065481,48.2680702 C37.0695285,47.9235185 37.0266657,47.5290204 36.9852932,47.1493501 C36.9010579,46.3552813 36.8198422,45.6037448 34.3596854,45.4972186 C33.4129796,45.4511744 31.7172149,45.2104174 30.9834502,44.0995014 L30.9298424,44.1268158 Z M32.3253717,30.6646759 C31.1887443,31.8658074 28.5248228,34.6780208 28.5140777,38.0405024 C28.4865091,42.1332542 30.8302737,44.3753769 30.8532541,44.3980088 L30.8823522,44.3796692 C31.7187443,45.4558568 33.396156,45.695053 34.3474109,45.7410973 C36.5977246,45.8402096 36.6605481,46.4298106 36.7401952,47.1739331 C36.7830971,47.5777961 36.8321167,48.0335565 37.2303912,48.4389804 C38.9476069,50.1812494 39.3137245,51.9582467 39.66745,53.6778837 C39.9462735,55.0342392 40.2098029,56.3145045 41.1243127,57.4531251 L41.3313715,57.7122218 L41.3435284,57.3817174 C41.3678421,56.707832 41.5870578,55.6698845 41.8168617,54.569504 C42.182744,52.8178701 42.6011754,50.8348441 42.4462734,49.4585882 C42.3513715,48.4752695 40.5482343,46.4239575 39.34745,46.0044862 C39.9356853,45.9389316 41.2117637,46.1145243 42.2886264,46.2667045 C44.4929401,46.5761377 45.9713714,46.7454871 46.3909792,46.3217236 C46.4890184,46.2257329 46.5286263,46.1020377 46.5090184,45.960393 L46.5011753,45.9131781 L46.4627439,45.882742 C43.8941165,43.8462578 41.8015676,39.8208945 40.2419598,33.9159098 C40.1960774,33.7390685 40.1576461,33.595824 40.1286264,33.4951899 L40.0721559,33.292478 L39.9219598,33.4403269 C39.8898029,33.4738846 39.109999,34.2588617 38.7898422,35.1749089 C37.9166657,37.6670754 38.5033716,39.7553399 38.9322735,41.2794839 C39.1804696,42.1695434 39.3780382,42.8738649 39.13145,43.2351955 C39.0104304,43.4088371 38.7745088,43.5157535 38.4129794,43.5598467 C38.0285089,43.1329616 35.3569403,40.1697385 34.3780776,39.3756697 C33.3394501,38.0938436 32.0312541,32.638571 32.5352149,30.7820498 L32.3253717,30.6646759 Z" id="path40" fill="#0D2F5B"></path>
                        <path d="M38.8081951,43.7471455 C41.1211754,43.8006037 37.8737638,39.2613394 39.1145873,36.0818643 C39.3827441,35.3867906 39.8039206,35.057574 39.8039206,35.057574 C40.094901,36.068129 42.1015676,44.2747038 45.3874498,46.8781571 C45.5286263,47.9250793 40.8717637,47.3108953 40.4043127,46.1402778 C39.8270578,45.5182898 39.0456461,44.4194702 38.8081951,43.7471455" id="path42" fill="#FFFFFF"></path>
                        <path d="M37.4402736,45.6540814 C36.9500775,45.3173338 35.4105481,44.6496916 35.0352148,44.7335858 C34.1237639,44.9528815 32.1216463,45.2350003 31.4123914,44.4268841 L30.7736071,42.8586469 C30.7736071,42.8586469 29.1758424,41.8191386 29.1911757,38.4657487 C29.1988228,35.0910927 30.4319992,33.2665683 32.2089404,31.4405221 C31.2408227,32.2712313 32.1553325,35.7297425 32.3238423,36.363827 C32.6194894,37.4003307 32.8982737,38.8193923 35.2420383,40.9747331 C36.620705,41.9045936 38.9996853,45.6938824 40.3937245,46.311188 C40.0827441,46.286605 38.0192932,45.4999501 37.4402736,45.6540814" id="path44" fill="#FFFFFF"></path>
                        <path d="M39.0870186,49.5026814 C39.2403912,50.0318005 39.0793324,51.3167483 39.6584304,51.6749572 C41.052548,51.2390973 41.0831362,49.40513 41.0831362,49.40513 C40.9329402,47.9040082 39.1375676,47.461905 38.4175677,47.7955309 C39.1988225,48.9493696 39.0870186,49.5026814 39.0870186,49.5026814" id="path46" fill="#FFFFFF"></path>
                        <path d="M34.2310188,42.079796 C34.243254,42.3221139 33.7990188,42.7259769 33.6871756,42.7809959 C33.2582737,43.0155096 33.0514894,42.9288839 32.7757247,42.9760988 C32.8799207,43.3920582 33.630509,44.140473 34.0900776,43.6421802 C34.5496462,43.1360832 34.3658031,42.8465505 34.2233325,42.1500331 L34.2310188,42.079796" id="path48" fill="#0D2F5B"></path>
                        <path d="M151.854898,5.15649192 C151.254506,2.51957071 149.266271,0.964846332 145.571369,2.16137347 C141.652938,3.42344738 141.492153,3.38838739 138.933722,4.75258987 C138.933722,4.75258987 132.550585,8.24005442 129.635291,10.5035604 C129.93882,9.00977443 136.804702,4.26178899 136.804702,4.26178899 C134.143526,2.48603642 132.634899,3.92188069 129.080781,6.61672015 C125.013722,9.69876085 120.64784,12.5384057 120.64784,12.5384057 C120.64784,12.5384057 115.588232,16.1158127 115.018428,16.7453317 C116.62235,15.8764995 123.515683,14.4848694 122.481566,16.5776603 C124.477644,15.079309 127.276467,13.9864595 135.415291,13.8873472 C133.327055,14.5351669 132.925879,15.1753386 130.217644,17.1157151 C131.596075,16.7376837 139.485487,17.4541016 141.637644,17.9891128 C139.742742,18.3228949 138.18784,20.5345815 136.612938,21.0680709 C139.191369,20.6275675 145.732153,23.0800501 149.025879,25.8999116 C145.916075,24.7780698 141.42784,27.5689389 139.543526,27.7305232 C141.228624,27.8859812 141.132153,28.8874444 144.246271,30.0092861 C144.246271,30.0092861 141.21333,29.9010431 140.49333,30.336981 C136.87333,31.0198412 135.471761,34.6871516 134.690585,36.3775623 C143.403918,35.4858639 150.419604,38.7340152 159.177251,42.9803911 C158.952153,40.4335177 158.457251,38.269124 158.15882,36.8317618 C156.945486,35.3730554 152.372937,31.7606079 147.205879,30.951243 C150.726271,31.2713288 155.914506,33.2101835 158.932153,35.6154122 C161.916467,37.0116467 163.612153,38.1792206 163.612153,38.1792206 C163.838819,35.6337129 162.55529,31.9724897 161.372545,29.5504821 C159.537251,28.2594472 155.045878,26.6178122 152.199604,26.3571938 C153.547839,26.3129834 158.8298,26.6361129 160.601957,27.2138126 C161.158035,24.55097 159.736467,21.3272066 157.826271,20.3059599 C155.045878,20.3882543 151.571761,20.2449707 148.213722,21.7890152 C149.718035,20.2404053 154.961565,18.9021164 157.3898,18.9402395 C157.987055,16.829148 157.530584,15.1448635 156.213329,14.2150811 C153.318035,14.1723926 152.6898,13.6084281 149.350585,14.9924491 C150.082741,14.3827525 154.359604,12.7624619 156.412545,12.1878448 C157.596467,10.0874449 157.519996,7.44742933 153.969016,7.12277809 C151.656075,6.45213134 142.189016,10.1300944 135.946663,13.6008191 C138.007055,11.4333428 149.664702,5.84243474 151.854898,5.15649192" id="path50" fill="#FFFFFF"></path>
                        <path d="M136.816859,187.266799 C137.263918,181.950244 139.217251,131.246509 130.520781,108.298895 C134.894114,110.277238 143.534114,132.255582 143.135683,143.365522 C142.817251,152.579452 139.934114,182.242899 136.816859,187.266799" id="path52" fill="#FFFFFF"></path>
                        <path d="M36.8428226,187.015116 C39.1406265,184.459268 55.8301947,164.502191 60.2419593,149.519068 C61.7894102,152.078037 57.7266652,166.573794 53.1419595,172.184563 C49.3627439,176.807331 40.4043127,185.588523 36.8428226,187.015116" id="path54" fill="#FFFFFF"></path>
                        <path d="M18.0162348,183.436538 C20.995725,181.721584 46.6086263,162.744704 55.4780378,149.843719 C56.1411751,152.785481 48.8803909,166.597986 42.8019597,170.492631 C37.7665481,173.713389 21.8382347,183.203195 18.0162348,183.436538" id="path56" fill="#FFFFFF"></path>
                        <path d="M9.19270565,170.042723 C12.4709016,168.957561 40.937646,157.496826 52.2075963,146.615156 C52.253332,149.647055 41.5227441,160.264946 34.7901168,162.866838 C29.2187444,165.011409 12.9917252,170.591743 9.19270565,170.042723" id="path58" fill="#FFFFFF"></path>
                        <path d="M60.9741161,179.863423 C62.256469,176.664126 68.7745081,156.809283 67.706665,141.233047 C70.0658806,143.082232 71.2913708,158.077452 68.9199983,164.939612 C66.9639199,170.614375 63.8466651,177.275578 60.9741161,179.863423" id="path60" fill="#FFFFFF"></path>
                        <path d="M75.1623511,172.042528 C75.7874491,168.640714 79.5741157,154.631154 74.3780374,137.254899 C77.0666647,138.582379 80.7505862,147.541895 79.7854882,154.768507 C78.9996059,160.732803 77.4799981,168.915028 75.1623511,172.042528" id="path62" fill="#FFFFFF"></path>
                        <path d="M83.2094097,161.860888 C83.7333312,159.05921 86.8658802,147.517702 82.630194,133.22017 C84.8407822,134.306894 87.8384292,141.67515 87.0541155,147.621106 C86.387841,152.533798 85.1164685,159.284749 83.2094097,161.860888" id="path64" fill="#FFFFFF"></path>
                        <path d="M90.5007821,153.570575 C90.8686252,151.626959 91.6803899,136.479169 88.7623507,126.571453 C90.2972526,127.326111 93.7254879,139.128277 93.1741153,143.710073 C92.755684,147.113839 91.8290173,151.781091 90.5007821,153.570575" id="path66" fill="#FFFFFF"></path>
                        <path d="M153.490977,184.832695 C154.535682,172.97551 153.210977,132.002338 138.497251,110.358011 C142.86784,112.226707 159.736467,137.073453 159.491369,149.359083 C159.299996,159.239095 156.067839,177.737192 153.490977,184.832695" id="path68" fill="#FFFFFF"></path>
                        <path d="M169.762741,174.461804 C170.908231,162.974925 162.72078,131.94888 146.161173,111.87318 C150.629408,113.298212 167.836859,132.846743 170.571368,148.566185 C171.988231,156.731632 172.129407,169.184661 169.762741,174.461804" id="path70" fill="#FFFFFF"></path>
                        <path d="M176.538035,158.280359 C176.732545,151.351084 167.576466,128.219292 156.493722,116.51741 C165.225094,122.391959 173.354898,136.86001 175.629407,146.170321 C176.813721,151.011215 177.72078,155.019799 176.538035,158.280359" id="path72" fill="#FFFFFF"></path>
                        <path d="M185.364701,145.019214 C184.169799,138.171102 164.34431,117.203392 150.951369,107.291384 C153.708624,107.392057 174.787054,123.34172 180.569799,133.055503 C182.316074,135.98829 185.759995,140.173638 185.364701,145.019214" id="path74" fill="#FFFFFF"></path>
                        <path d="M194.126662,136.200172 C191.412544,129.778555 171.064702,112.81982 156.010976,106.273337 C158.656467,105.716903 177.732937,115.345622 185.507054,123.507947 C187.84627,125.964683 192.487838,131.64569 194.126662,136.200172" id="path76" fill="#FFFFFF"></path>
                        <path d="M191.714113,120.27197 C188.754505,115.100182 169.854506,102.82977 156.554898,98.880497 C158.707055,98.1246683 175.721564,104.267288 183.132544,110.387277 C185.349407,112.231389 189.857642,116.569307 191.714113,120.27197" id="path78" fill="#FFFFFF"></path>
                        <path d="M4.56647047,148.999313 C10.3569409,151.300747 27.8201562,157.970926 41.1015676,146.979608 C49.9141164,139.690563 46.2560773,141.001655 46.2560773,141.001655 C38.7392931,146.192953 36.1504305,147.467365 26.8167836,149.313039 C19.7625485,150.706464 14.9908232,149.973267 4.56647047,148.999313" id="path80" fill="#FFFFFF"></path>
                        <path d="M115.588232,76.6512516 C117.19686,79.7834338 121.256075,80.1490566 121.256075,80.1490566 C122.198036,78.6143771 124.10235,75.8052854 121.945487,72.627059 C119.785487,69.4445403 117.426664,68.4186891 117.426664,68.4186891 C121.309801,73.6529101 119.659997,76.7515345 119.659997,76.7515345 C119.521958,77.4176159 117.932154,77.6845166 115.588232,76.6512516" id="path82" fill="#FFFFFF"></path>
                        <path d="M123.880389,80.4296146 C126.556467,83.808797 132.190585,84.5540902 132.190585,84.5540902 C135.131761,83.6488127 135.517644,80.3094312 132.094114,76.8323071 C128.682742,73.3555732 125.277252,72.0842827 125.277252,72.0842827 C131.363526,77.8370871 130.498036,80.3519637 130.498036,80.3519637 C130.531369,82.4707813 127.32235,82.1781269 123.880389,80.4296146" id="path84" fill="#FFFFFF"></path>
                        <path d="M121.827448,68.0085828 C123.443526,71.1333511 129.731761,70.8968863 129.731761,70.8968863 C130.689408,69.3575244 131.240781,67.3807417 128.387056,64.8124069 C127.383526,63.9024469 124.80235,62.3154799 124.80235,62.3154799 C128.682742,67.5454085 126.908624,69.0129726 126.908624,69.0129726 C125.266664,69.1288637 124.181958,69.0344339 121.827448,68.0085828" id="path86" fill="#FFFFFF"></path>
                        <path d="M122.221173,60.1771519 C124.324311,62.1402774 129.080781,60.2442673 129.080781,60.2442673 C129.398036,58.8036274 129.283134,57.1378388 126.384703,55.9410775 C125.358428,55.5235573 122.945879,55.0038031 122.945879,55.0038031 C127.357644,57.9639045 126.399997,59.5641386 126.399997,59.5641386 C125.174507,60.1053541 124.319997,60.3266008 122.221173,60.1771519" id="path88" fill="#FFFFFF"></path>
                        <path d="M121.539605,53.2599733 C124.15882,54.4399557 128.199997,52.0542373 128.199997,52.0542373 C128.023918,50.588234 127.222742,48.1096466 124.094507,47.9114221 C122.983918,47.8400144 122.532154,48.4877561 122.532154,48.4877561 C129.152938,49.6751524 126.384703,51.0713088 126.384703,51.0713088 C125.39686,51.9828296 123.561566,52.7312444 121.539605,53.2599733" id="path90" fill="#FFFFFF"></path>
                        <path d="M72.0878413,77.4589777 L71.919606,78.5714545 C78.1952922,79.5059974 83.0792136,82.4052267 88.2490174,85.4749759 C93.6290173,88.669591 99.1913701,91.9742441 106.573331,93.0367746 L106.734115,91.9239076 C99.5772524,90.8922034 94.1129388,87.6468615 88.8282331,84.5084361 C83.7929391,81.5178987 78.5847039,78.4251273 72.0878413,77.4589777" id="path92" fill="#FFFFFF"></path>
                        <path d="M39.1528618,50.066919 C39.1988225,50.074333 39.2403912,50.0821371 39.2862735,50.0879902 C39.7886265,50.1309128 40.2435284,49.7617781 40.2894108,49.2603636 C40.339999,48.7515352 39.9647049,48.309432 39.4545088,48.2665094 C39.109999,48.2313909 38.7806265,48.4038618 38.6014108,48.6734941" id="path94" fill="#0D2F5B"></path>
                        <path d="M39.8270578,45.9436141 C40.3890186,46.3841565 40.0137245,45.8889853 41.7905872,46.0731624 C45.0964695,46.4239575 39.6890186,42.4212261 39.7533323,36.3241821 C38.3134108,37.6076081 40.2588225,42.9425411 39.2984304,43.3495258 C38.3409794,43.7580713 38.2414108,43.8006037 38.432901,44.0292643 C38.619803,44.2579249 39.8270578,45.9436141 39.8270578,45.9436141" id="path96" fill="#0D2F5B"></path>
                    </g>
                </g>
            </g>
        </g>
    </g>
</svg>