<?xml version="1.0" encoding="UTF-8"?>
<svg width="200px" height="200px" viewBox="0 0 200 200" version="1.1" xmlns="http://www.w3.org/2000/svg" xmlns:xlink="http://www.w3.org/1999/xlink">
    <!-- Generator: Sketch 51.3 (57544) - http://www.bohemiancoding.com/sketch -->
    <title>mcdaniel</title>
    <desc>Created with Sketch.</desc>
    <defs></defs>
    <g id="mcdaniel" stroke="none" stroke-width="1" fill="none" fill-rule="evenodd">
        <g id="mcdaniel_BGL" transform="translate(0.000000, 40.796020)">
            <g id="mcdaniel">
                <g id="g10" transform="translate(99.999998, 59.626863) scale(-1, 1) rotate(-180.000000) translate(-99.999998, -59.626863) translate(0.000000, 0.043552)">
                    <g id="g12">
                        <path d="M50.3504977,81.9082476 C40.443512,83.6664501 5.36379228,89.561041 5.36379228,89.561041 L116.909378,116.173204 L112.128939,105.653682 C112.128939,105.653682 174.203588,117.536296 182.43752,118.463104 C183.894606,118.627403 185.467061,118.822979 186.958878,118.889491 C188.485424,118.957982 190.219157,118.912057 191.768458,118.419555 C195.918558,117.09922 197.041911,113.32627 195.479436,108.357695 C194.086622,103.935861 192.3976,99.5286757 190.76766,95.1444525 C197.097799,94.741028 200.699396,90.4633025 199.697001,84.1708298 C199.331332,82.6473973 198.689017,80.0819498 198.121752,77.9413055 C197.836722,76.8585125 197.562869,75.8588589 197.344107,75.1018935 C197.224746,74.6953017 197.119356,74.3528462 197.035923,74.0982809 C196.892211,73.6619965 196.722151,73.2775752 196.556482,73.0305321 L196.143308,72.4164875 L188.524147,68.9820342 L178.562471,39.6333934 L177.138119,39.3107725 C133.236324,29.3569548 88.6307363,18.3323002 46.4335318,2.60893347 L39.573492,0 L43.4874241,10.6378579 L21.573732,4.29831236 L37.6266258,41.3215212 L0,48.4461808 L41.2926137,61.4816632 C42.875448,64.9620412 46.8774439,73.6524948 49.7656674,80.3982758 C49.9876235,80.9739179 50.1836315,81.4735467 50.3504977,81.9082476" id="path14" fill="#F2CF0E"></path>
                        <path d="M186.966462,92.3462143 C194.530534,93.5857848 198.009576,90.1354953 197.139716,84.6724381 C196.413967,81.6532864 194.674247,74.897212 194.385225,74.4656783 L186.411971,70.8712805 L176.556483,41.8330271 C132.542112,31.8551385 86.3728521,20.2199233 44.0666656,4.45667332 L47.6910168,14.6633935 L26.1645502,8.33853594 L40.396007,41.1544504 C41.0570848,43.0068777 40.8870249,43.3592309 39.3559671,43.6308199 L10.7280636,49.0202393 L43.1968053,59.3711075 C44.2335318,61.6887202 48.9237513,71.8067978 52.1852282,79.4255436 C53.7053879,83.3786291 54.0686613,83.8822169 52.0395197,84.2409045 C52.0395197,84.2409045 18.120798,89.561041 17.7579237,89.7764119 L112.342113,112.41807 L107.702193,102.210519 C107.702193,102.210519 174.558079,114.971245 182.730934,115.891718 C188.335325,116.522786 195.679436,117.685552 192.988418,109.128913 C191.218358,103.503932 188.960874,97.9042881 186.966462,92.3462143" id="path16" fill="#17412E"></path>
                        <path d="M128.528939,91.5702456 L129.947302,95.1151557 C130.050695,95.3764513 130.157282,95.6444772 130.226743,95.8899367 C130.295805,96.140543 130.330536,96.3848147 130.275446,96.5855372 C130.154488,97.0051938 129.621554,97.2261073 128.305386,96.9588732 L125.843111,96.4592444 L123.484628,90.5468379 L128.528939,91.5702456 Z M134.708979,100.642745 C136.974048,101.101992 137.930535,100.66254 138.276244,99.9503117 C138.62315,99.2317489 138.323749,98.2677265 138.137721,97.799374 C137.040316,95.0379548 135.616364,91.3849633 135.197202,90.3041498 L129.647901,89.1789951 L126.995206,88.640172 L122.440716,87.7165317 L122.314967,87.4041647 C120.988819,84.1260928 119.695805,80.9244301 119.282632,79.8855822 C118.896604,78.9092869 119.182033,78.2018093 120.564069,78.4817123 L123.58842,79.0957569 L126.083829,85.3415132 L133.875446,86.9073072 L130.727741,78.4132212 C130.727741,78.4132212 118.558081,75.5033385 114.504987,74.7123255 C111.164069,74.0610661 110.417961,75.509673 111.627542,78.486859 C112.986824,81.8361933 118.300596,95.2675782 119.180436,97.4925496 L134.708979,100.642745 Z" id="path18" fill="#FFFFFF"></path>
                        <path d="M125.533729,69.534714 C125.508979,69.5220451 124.296604,66.3773923 123.758081,65.263323 L114.121754,60.6665002 C114.734927,61.9456608 116.679039,66.5401082 117.071055,67.3596262 C117.196005,67.619734 117.329738,67.8723198 117.456684,68.1324277 C117.563271,68.3537371 117.681434,68.589299 117.715766,68.8418848 C117.819558,69.627751 116.907782,69.5149188 116.465865,69.4191105 L114.248301,68.9091882 C114.216764,68.9135431 105.599598,46.9967821 104.404788,44.080565 L95.2494986,41.3943673 C96.7496982,44.8003156 107.209977,69.8316408 107.241514,69.7247471 C112.174847,70.8855329 113.500995,71.2956878 118.362472,72.3753137 C121.061075,73.1132757 124.043111,72.9236385 125.182033,71.6211196 C125.632731,71.1040711 125.795606,70.4128255 125.533729,69.534714 Z M98.8550873,102.172908 C99.0479017,101.980895 93.4407162,91.0524053 93.4810356,90.879396 C89.7496984,89.917749 86.0027923,88.9367029 82.2407165,87.9378411 C82.9313353,89.3056839 83.6315348,90.6675882 84.3413153,92.0211785 C84.5313352,92.3834292 84.7241496,92.7437004 84.8842294,93.1237667 C85.0167643,93.4480107 85.1449081,93.8098655 85.0902174,94.1733039 C84.8439101,95.2715372 83.2283412,94.7631985 82.5572834,94.5925646 C81.261475,94.2520885 79.9624731,93.9100288 78.6634711,93.5659896 C74.3896189,85.4784954 70.2079823,77.2694591 66.1441101,68.9305669 C65.4415153,67.4083222 65.864669,66.1414345 67.5265452,66.5686132 C69.1365252,67.0258804 70.7409164,67.4783969 72.3433116,67.928142 C73.5588804,70.4785453 74.7812357,73.0178633 76.0123733,75.5484714 C74.0874233,75.0171704 72.1576828,74.4811185 70.2251479,73.9395241 C77.3588803,78.3696719 84.4578821,82.6945097 91.5181614,86.9176006 C88.2379219,80.296133 85.0167643,73.6002357 81.8487005,66.8358473 C73.8826329,64.6338381 59.4686612,60.8403013 51.3357273,58.4684501 C51.30938,58.4340066 51.2950087,58.4300475 51.2950087,58.4569689 L51.3357273,58.4684501 C52.0471045,59.4011961 61.9425134,81.8611352 65.4906171,88.6516532 C66.8514953,91.2582746 52.2614757,90.7954646 52.2614757,90.7954646 C61.0439106,92.8339661 91.2662652,100.24803 98.8550873,102.172908 Z M178.194008,88.9782726 C175.704187,88.5162545 173.20279,88.0419635 170.690215,87.5573789 C172.91297,93.4579083 175.157281,99.3216187 177.526942,105.067746 C177.619157,105.288264 177.708578,105.510761 177.774846,105.745135 C177.832331,105.9514 177.869457,106.175877 177.816762,106.391644 C177.602391,107.081306 176.755285,106.935218 176.294606,106.863955 L174.203588,106.515561 C171.470654,99.9966323 168.720155,92.9566958 166.133728,86.2592149 C164.46786,85.926261 160.078639,84.875932 158.401194,84.5330805 C158.981633,84.9167099 166.692611,107.023504 166.908579,107.158507 C171.703788,107.980796 177.446303,109.27698 182.158079,110.011775 C183.613967,110.205768 186.22754,110.141631 185.231133,107.535406 C182.829137,101.419506 180.48782,95.2311551 178.194008,88.9782726 Z M161.672651,58.9098812 C156.36806,57.6560583 151.013968,56.3464132 145.596803,55.0553755 C142.754487,54.4385595 141.569258,55.9449682 142.774448,59.1751358 C145.496204,66.2471404 148.145306,73.3120188 150.898998,80.2747543 C156.045505,81.3908031 161.141313,82.4601355 166.191613,83.4835432 C167.974048,83.8018487 170.43792,83.5884574 169.394008,80.677387 C166.758878,73.497697 164.190016,66.2388265 161.672651,58.9098812 Z M161.205984,77.4005028 C161.306982,77.6732796 161.410774,77.9456604 161.48822,78.2295225 C161.556084,78.4908181 161.606782,78.770721 161.544507,79.0407265 C161.301393,79.8919166 160.265864,79.6717949 159.700196,79.5585668 L157.707381,79.1349513 C155.424747,73.2007702 153.188419,67.2095792 150.993609,61.166129 C150.582032,59.9479373 151.112172,59.1252521 152.197601,59.3509165 C153.070256,59.5579735 153.94291,59.7654263 154.812771,59.9708997 C156.904986,65.8302552 159.034727,71.6413106 161.205984,77.4005028 Z M91.0419139,56.8761306 C91.6319338,58.2269496 92.2251474,59.5765809 92.8215546,60.9222531 C92.9540895,61.2247226 93.0890196,61.5275879 93.1988001,61.8415385 C93.29381,62.1230251 93.3756464,62.4270782 93.3341294,62.7283599 C93.1584807,63.6353723 92.0063849,63.3237971 91.4331314,63.174146 L89.2906165,62.585835 C88.2311355,60.233383 87.1796385,57.8714292 86.136924,55.499578 C87.7772433,55.9635756 89.4115746,56.4220306 91.0419139,56.8761306 Z M98.719758,67.6826825 C100.7988,68.1850827 103.220756,67.8810296 101.924948,64.8480213 C100.634728,61.8918181 99.3720534,58.9126526 98.1265445,55.9152755 C96.0646683,55.349531 93.9952072,54.7770561 91.9185606,54.1954755 C90.9940097,53.9369512 90.0682612,53.6772392 89.1409159,53.4159436 C87.6862254,53.0061847 86.2307364,52.5916748 84.7708562,52.1747896 L84.6710558,51.9479375 C83.3205568,48.859107 81.9780419,45.7556281 80.6678623,42.6268114 C80.199998,41.4414796 80.5065848,40.3875874 81.7852275,40.726084 C82.7213552,41.0032157 83.6546885,41.2771801 84.5876226,41.5515405 C85.6634709,44.157766 86.7492992,46.753698 87.8451076,49.3373571 C90.7101774,50.1501447 93.5616743,50.948284 96.3995984,51.7337543 C94.8546882,48.0649268 93.331335,44.3735328 91.8239498,40.6603642 C86.136924,38.9951591 80.399998,37.2683516 74.5912157,35.5548069 C71.2618745,34.6450231 70.6598785,36.6986085 71.9748485,39.8574741 C75.3500979,47.7303893 78.7540898,55.5280829 82.2778423,63.2010674 C87.8075826,64.747858 93.287822,66.2415978 98.719758,67.6826825 Z M115.072253,92.3177094 C115.049099,92.303061 113.850696,89.2015616 113.32375,88.1025365 L103.745307,83.2752986 C104.345706,84.5366436 106.659878,89.3630898 107.042712,90.1719184 C107.164868,90.4276713 107.295806,90.6774857 107.419957,90.9332387 C107.52375,91.1517768 107.639119,91.3845674 107.676245,91.6343818 C107.78882,92.408371 106.924947,92.2975184 106.504189,92.2032936 L104.403191,91.7001016 C100.841914,84.3755113 97.4031912,76.9044371 94.0754467,69.307466 C91.3325326,68.5750465 88.5780417,67.8295623 85.8099779,67.0714092 C89.699399,75.6989143 93.6722531,84.1926044 97.7980015,92.5041794 C102.477842,93.649921 103.736524,94.0549291 108.345706,95.1191148 C110.907382,95.8479711 113.721354,95.6595215 114.775646,94.3752141 C115.193211,93.8656878 115.334129,93.1839438 115.072253,92.3177094 Z M51.3265456,22.6009199 L51.2031923,22.5669119 L51.1393201,22.4152021 C49.2546894,21.8165581 47.3640707,21.3241347 45.4686615,20.8201509 C43.1073842,20.0686886 40.8291407,19.3291429 39.3692206,18.8949171 C40.0139711,19.82604 49.2878231,42.7606264 52.3564857,49.5499567 C53.5341304,52.1561822 37.4277835,51.1383171 36.0053484,51.1383171 C39.0378433,51.9736712 63.0207569,57.6002361 74.9153674,60.9289835 C76.1552875,61.3759573 77.5373234,61.8229311 79.1429122,62.2758434 C77.7808364,59.2452106 76.431535,56.1991375 75.0950081,53.138812 C75.2319342,53.1732555 66.7405173,53.5101684 65.2039904,53.5457996 L64.9345293,53.3775411 L51.3265456,22.6009199 Z M147.261473,75.1715723 C147.23832,75.1577157 146.072252,72.0867008 145.553689,70.9999487 L136.451494,66.5971181 C136.638719,66.7812128 138.746903,72.2466454 139.122951,73.047556 C139.243909,73.3005376 139.37325,73.5475807 139.49301,73.8009582 C139.595206,74.0175168 139.710176,74.2475361 139.742112,74.495371 C139.842711,75.2614422 138.965665,75.1513813 138.539717,75.0587401 L136.409577,74.560299 C136.378041,74.5638621 126.873849,50.1501447 126.921354,50.1042201 L117.952093,47.4164387 C119.494209,50.9854988 129.638719,75.4605811 129.667462,75.3556669 C134.413969,76.4903232 135.689817,76.8913724 140.364068,77.9440768 C142.958879,78.6658069 145.827541,78.4793369 146.92295,77.209282 C147.35808,76.7045064 147.51337,76.0290969 147.261473,75.1715723 Z M190.488618,83.5365941 C190.466662,83.5255089 189.617161,80.762506 189.216762,79.7897738 L180.746502,75.9784214 C180.908179,76.1375742 183.201991,83.2792576 183.211971,83.5065056 C183.243908,84.2084405 182.620355,84.0635402 182.224347,84.0049467 L180.243109,83.6842657 C180.213968,83.6890166 173.237521,61.7330613 173.285026,61.6875325 L165.000794,59.7907641 C166.165665,62.9896555 173.745704,84.9614469 173.783229,84.8628672 C178.190814,85.6004334 179.938918,86.3138495 184.286622,86.980945 C186.688219,87.4778025 188.852291,86.6907486 189.997201,85.4428642 C190.452291,84.9479862 190.655484,84.3129587 190.488618,83.5365941 Z" id="path20" fill="#FFFFFF"></path>
                        <path d="M152.31297,96.5776192 L153.571254,99.9673356 C153.663868,100.21715 153.758479,100.472507 153.819158,100.708465 C153.879836,100.948382 153.908579,101.181568 153.855086,101.373185 C153.74291,101.77463 153.254687,101.985646 152.056284,101.730289 L149.815964,101.252435 L147.722152,95.5985526 L152.31297,96.5776192 Z M157.859477,105.252633 C159.920555,105.691688 160.797601,105.272032 161.119756,104.590684 C161.443908,103.903793 161.180435,102.981736 161.014766,102.533971 C160.041114,99.8936977 158.779637,96.399859 158.407182,95.3673456 L153.356882,94.290491 L150.94331,93.7766097 L146.797601,92.8921638 L146.685425,92.5936533 C145.510575,89.459294 144.362871,86.3973849 143.997202,85.4040658 C143.65309,84.4709238 143.920555,83.7943266 145.179238,84.0627484 L147.932531,84.6494758 L150.145705,90.6216635 L157.23792,92.1189664 L154.012371,83.5092769 C151.777242,83.02588 143.379238,81.2138348 139.690216,80.4580571 C136.650296,79.8345108 135.954488,81.2201692 137.029138,84.0671034 C138.235525,87.269162 142.947302,100.113028 143.727741,102.239815 L157.859477,105.252633 Z" id="path22" fill="#FFFFFF"></path>
                        <path d="M160.094607,43.2436274 C161.772052,47.1024881 163.455485,50.9510553 165.143309,54.789725 C166.925744,55.162665 168.705784,55.5324379 170.481433,55.9006271 C169.173648,52.8933525 167.86786,49.881327 166.564467,46.8637589 C168.62794,47.3083573 170.685425,47.7493926 172.740515,48.1892401 L171.726942,45.8344127 C167.861872,44.9958914 163.984028,44.1316364 160.094607,43.2436274 Z M146.247901,40.1821141 C147.978439,44.1217389 149.71816,48.0490907 151.46786,51.9637736 C155.378838,52.8573253 159.273848,53.7386041 163.15289,54.611173 L162.067461,52.1336158 C159.986822,51.662096 157.900196,51.1866172 155.810775,50.7083671 L154.881832,48.6164188 C156.681832,49.0301368 158.475844,49.443063 160.269058,49.852822 L159.174447,47.3538861 C157.378439,46.9377927 155.579238,46.5213033 153.776044,46.1028345 L152.852691,43.9906952 C154.956882,44.4831978 157.056283,44.972929 159.15289,45.4602849 L158.067062,42.9795605 C154.138918,42.0709645 150.199198,41.1386143 146.247901,40.1821141 Z M148.65828,51.3711077 C146.901394,47.4580084 145.159278,43.5310525 143.425146,39.5906359 C141.573649,39.1364963 139.720156,38.6781205 137.864268,38.2124601 C139.617961,42.1909229 141.384827,46.1570731 143.166463,50.1069914 C145.000795,50.5310028 146.829537,50.9526389 148.65828,51.3711077 Z M129.399598,36.1015085 C129.127741,37.9099906 128.859877,39.7204919 128.594807,41.5313495 C127.645905,39.4093126 126.702991,37.2841085 125.765266,35.1537973 C123.898999,34.6624824 122.030336,34.1668522 120.158081,33.6656398 C121.929338,37.696718 123.723749,41.7114851 125.536524,45.7100993 C127.395606,46.1784519 129.249897,46.6440331 131.101793,47.1080307 C131.365266,45.2746067 131.631933,43.4407868 131.902592,41.6085505 C132.858679,43.751966 133.820755,45.8930062 134.78842,48.0292956 C136.638719,48.4921055 138.486224,48.9533318 140.329338,49.4113909 C138.555286,45.4729538 136.795605,41.5186806 135.050695,37.5513427 C133.170057,37.0742407 131.286224,36.5904875 129.399598,36.1015085 Z M113.799199,36.2646599 C114.074249,37.6155184 114.352093,38.9651497 114.634328,40.3147414 C113.593211,38.7608641 112.554887,37.2025922 111.520955,35.6406385 L113.799199,36.2646599 Z M112.969658,31.7878747 C113.104987,32.4977277 113.241913,33.2059971 113.378839,33.9141477 L109.784428,32.9243917 C109.245905,32.1018253 108.710177,31.2778336 108.174848,30.4540003 C106.233131,29.9084072 104.292612,29.3584988 102.3485,28.8015829 C105.536524,33.2887407 108.750496,37.7386045 111.987622,42.1525203 C114.639917,42.8738545 117.285426,43.5892502 119.92335,44.3002909 C119.521354,40.6603642 119.13852,37.0188935 118.77844,33.3730283 C116.844708,32.8500017 114.908181,32.3213928 112.969658,31.7878747 Z M96.2758459,30.7996627 C96.7984008,32.0036019 97.3257461,33.2059971 97.854289,34.4066899 C97.9449077,34.6109755 98.0255465,34.8196161 98.0574826,35.0365706 C98.1648678,35.7860139 97.4251473,35.7721177 96.7944088,35.5964162 L95.9924128,35.3608939 C94.955287,33.0126779 93.927343,30.6578505 92.9137701,28.2971241 L93.7129717,28.5331215 C94.9496982,28.9203536 95.7991992,29.741376 96.2758459,30.7996627 Z M101.456684,31.5146229 C100.747303,29.9325573 99.6183608,28.5516893 97.9520934,27.641866 C94.0802372,26.5120001 90.1976025,25.357232 86.3069839,24.1741569 C88.0319339,28.2575338 89.7932113,32.3213928 91.5888201,36.3644273 C94.9800375,37.3629723 98.3596782,38.3510259 101.730536,39.3305676 C102.982033,39.6793181 104.488221,39.7248468 104.267862,38.2185174 C104.18882,37.786865 104.034329,37.3696235 103.857482,36.9630713 C103.051494,35.1505509 102.252293,33.3341903 101.456684,31.5146229 Z M65.8738506,17.8036913 C66.7896191,20.0762899 67.7197588,22.3423561 68.6614753,24.601296 C66.9884215,22.53908 65.3205572,20.4673623 63.6618747,18.3848761 C63.4287409,19.8217246 63.1980024,21.2584149 62.9764455,22.6966491 C62.0491002,20.4372341 61.135727,18.1706929 60.2371242,15.8975005 C58.3624736,15.2561782 56.4878229,14.6060272 54.6131723,13.9479979 C56.2950086,18.2767551 58.0299387,22.5806497 59.8171642,26.8604338 C61.7173637,27.5029834 63.6139705,28.1403071 65.5077828,28.7757701 C65.7133716,27.3390798 65.9257469,25.9039336 66.1441101,24.4687874 C67.8319344,26.5536095 69.5269444,28.628534 71.2303375,30.6935609 C73.1572836,31.3348832 75.0806368,31.9718901 77.0019941,32.6058091 C75.1500979,28.3232536 73.3441099,24.0173399 71.5812357,19.6874741 C69.6810362,19.0678077 67.7772438,18.4391543 65.8738506,17.8036913 Z M83.6143692,23.4559899 C81.4946087,22.7981189 79.3720539,22.1368035 77.243511,21.4725981 C76.3856268,21.2155782 75.1241498,21.0272079 75.2131718,22.1294001 C75.2479023,22.4207447 75.3441099,22.7034586 75.4554871,22.979363 C75.9724532,24.2300187 76.4934113,25.4783386 77.0191598,26.7261833 C77.7001977,28.2745576 79.0263453,29.3815403 80.7988004,29.9595974 C82.9417145,30.6250698 85.0802374,31.2866623 87.2127723,31.9445333 C86.9520936,31.3392381 86.6926126,30.7339429 86.43393,30.1281727 L82.8970039,29.0343339 C82.0071836,28.7440583 81.3433113,28.1905867 80.9991996,27.4150139 C80.6506966,26.5907055 80.3021936,25.7641405 79.9580818,24.9370608 C79.9017944,24.7969509 79.8530918,24.6543469 79.8355269,24.5071504 C79.7896188,23.9548665 80.4347285,24.0589493 80.8566846,24.1845295 L84.3800378,25.2799123 C84.1237504,24.6715291 83.8690598,24.0645315 83.6143692,23.4559899 Z" id="path24" fill="#F2CF0E"></path>
                        <path d="M125.533729,69.534714 C125.508979,69.5220451 124.296604,66.3773923 123.758081,65.263323 L114.121754,60.6665002 C114.734927,61.9456608 116.679039,66.5401082 117.071055,67.3596262 C117.196005,67.619734 117.329738,67.8723198 117.456684,68.1324277 C117.563271,68.3537371 117.681434,68.589299 117.715766,68.8418848 C117.819558,69.627751 116.907782,69.5149188 116.465865,69.4191105 L114.248301,68.9091882 C114.216764,68.9135431 105.599598,46.9967821 104.404788,44.080565 L95.2494986,41.3943673 C96.7496982,44.8003156 107.209977,69.8316408 107.241514,69.7247471 C112.174847,70.8855329 113.500995,71.2956878 118.362472,72.3753137 C121.061075,73.1132757 124.043111,72.9236385 125.182033,71.6211196 C125.632731,71.1040711 125.795606,70.4128255 125.533729,69.534714 Z M98.8550873,102.172908 C99.0479017,101.980895 93.4407162,91.0524053 93.4810356,90.879396 C89.7496984,89.917749 86.0027923,88.9367029 82.2407165,87.9378411 C82.9313353,89.3056839 83.6315348,90.6675882 84.3413153,92.0211785 C84.5313352,92.3834292 84.7241496,92.7437004 84.8842294,93.1237667 C85.0167643,93.4480107 85.1449081,93.8098655 85.0902174,94.1733039 C84.8439101,95.2715372 83.2283412,94.7631985 82.5572834,94.5925646 C81.261475,94.2520885 79.9624731,93.9100288 78.6634711,93.5659896 C74.3896189,85.4784954 70.2079823,77.2694591 66.1441101,68.9305669 C65.4415153,67.4083222 65.864669,66.1414345 67.5265452,66.5686132 C69.1365252,67.0258804 70.7409164,67.4783969 72.3433116,67.928142 C73.5588804,70.4785453 74.7812357,73.0178633 76.0123733,75.5484714 C74.0874233,75.0171704 72.1576828,74.4811185 70.2251479,73.9395241 C77.3588803,78.3696719 84.4578821,82.6945097 91.5181614,86.9176006 C88.2379219,80.296133 85.0167643,73.6002357 81.8487005,66.8358473 C73.8826329,64.6338381 59.4686612,60.8403013 51.3357273,58.4684501 C51.30938,58.4340066 51.2950087,58.4300475 51.2950087,58.4569689 L51.3357273,58.4684501 C52.0471045,59.4011961 61.9425134,81.8611352 65.4906171,88.6516532 C66.8514953,91.2582746 52.2614757,90.7954646 52.2614757,90.7954646 C61.0439106,92.8339661 91.2662652,100.24803 98.8550873,102.172908 Z M178.194008,88.9782726 C175.704187,88.5162545 173.20279,88.0419635 170.690215,87.5573789 C172.91297,93.4579083 175.157281,99.3216187 177.526942,105.067746 C177.619157,105.288264 177.708578,105.510761 177.774846,105.745135 C177.832331,105.9514 177.869457,106.175877 177.816762,106.391644 C177.602391,107.081306 176.755285,106.935218 176.294606,106.863955 L174.203588,106.515561 C171.470654,99.9966323 168.720155,92.9566958 166.133728,86.2592149 C164.46786,85.926261 160.078639,84.875932 158.401194,84.5330805 C158.981633,84.9167099 166.692611,107.023504 166.908579,107.158507 C171.703788,107.980796 177.446303,109.27698 182.158079,110.011775 C183.613967,110.205768 186.22754,110.141631 185.231133,107.535406 C182.829137,101.419506 180.48782,95.2311551 178.194008,88.9782726 Z M161.672651,58.9098812 C156.36806,57.6560583 151.013968,56.3464132 145.596803,55.0553755 C142.754487,54.4385595 141.569258,55.9449682 142.774448,59.1751358 C145.496204,66.2471404 148.145306,73.3120188 150.898998,80.2747543 C156.045505,81.3908031 161.141313,82.4601355 166.191613,83.4835432 C167.974048,83.8018487 170.43792,83.5884574 169.394008,80.677387 C166.758878,73.497697 164.190016,66.2388265 161.672651,58.9098812 Z M161.205984,77.4005028 C161.306982,77.6732796 161.410774,77.9456604 161.48822,78.2295225 C161.556084,78.4908181 161.606782,78.770721 161.544507,79.0407265 C161.301393,79.8919166 160.265864,79.6717949 159.700196,79.5585668 L157.707381,79.1349513 C155.424747,73.2007702 153.188419,67.2095792 150.993609,61.166129 C150.582032,59.9479373 151.112172,59.1252521 152.197601,59.3509165 C153.070256,59.5579735 153.94291,59.7654263 154.812771,59.9708997 C156.904986,65.8302552 159.034727,71.6413106 161.205984,77.4005028 Z M91.0419139,56.8761306 C91.6319338,58.2269496 92.2251474,59.5765809 92.8215546,60.9222531 C92.9540895,61.2247226 93.0890196,61.5275879 93.1988001,61.8415385 C93.29381,62.1230251 93.3756464,62.4270782 93.3341294,62.7283599 C93.1584807,63.6353723 92.0063849,63.3237971 91.4331314,63.174146 L89.2906165,62.585835 C88.2311355,60.233383 87.1796385,57.8714292 86.136924,55.499578 C87.7772433,55.9635756 89.4115746,56.4220306 91.0419139,56.8761306 Z M98.719758,67.6826825 C100.7988,68.1850827 103.220756,67.8810296 101.924948,64.8480213 C100.634728,61.8918181 99.3720534,58.9126526 98.1265445,55.9152755 C96.0646683,55.349531 93.9952072,54.7770561 91.9185606,54.1954755 C90.9940097,53.9369512 90.0682612,53.6772392 89.1409159,53.4159436 C87.6862254,53.0061847 86.2307364,52.5916748 84.7708562,52.1747896 L84.6710558,51.9479375 C83.3205568,48.859107 81.9780419,45.7556281 80.6678623,42.6268114 C80.199998,41.4414796 80.5065848,40.3875874 81.7852275,40.726084 C82.7213552,41.0032157 83.6546885,41.2771801 84.5876226,41.5515405 C85.6634709,44.157766 86.7492992,46.753698 87.8451076,49.3373571 C90.7101774,50.1501447 93.5616743,50.948284 96.3995984,51.7337543 C94.8546882,48.0649268 93.331335,44.3735328 91.8239498,40.6603642 C86.136924,38.9951591 80.399998,37.2683516 74.5912157,35.5548069 C71.2618745,34.6450231 70.6598785,36.6986085 71.9748485,39.8574741 C75.3500979,47.7303893 78.7540898,55.5280829 82.2778423,63.2010674 C87.8075826,64.747858 93.287822,66.2415978 98.719758,67.6826825 Z M115.072253,92.3177094 C115.049099,92.303061 113.850696,89.2015616 113.32375,88.1025365 L103.745307,83.2752986 C104.345706,84.5366436 106.659878,89.3630898 107.042712,90.1719184 C107.164868,90.4276713 107.295806,90.6774857 107.419957,90.9332387 C107.52375,91.1517768 107.639119,91.3845674 107.676245,91.6343818 C107.78882,92.408371 106.924947,92.2975184 106.504189,92.2032936 L104.403191,91.7001016 C100.841914,84.3755113 97.4031912,76.9044371 94.0754467,69.307466 C91.3325326,68.5750465 88.5780417,67.8295623 85.8099779,67.0714092 C89.699399,75.6989143 93.6722531,84.1926044 97.7980015,92.5041794 C102.477842,93.649921 103.736524,94.0549291 108.345706,95.1191148 C110.907382,95.8479711 113.721354,95.6595215 114.775646,94.3752141 C115.193211,93.8656878 115.334129,93.1839438 115.072253,92.3177094 Z M51.3265456,22.6009199 L51.2031923,22.5669119 L51.1393201,22.4152021 C49.2546894,21.8165581 47.3640707,21.3241347 45.4686615,20.8201509 C43.1073842,20.0686886 40.8291407,19.3291429 39.3692206,18.8949171 C40.0139711,19.82604 49.2878231,42.7606264 52.3564857,49.5499567 C53.5341304,52.1561822 37.4277835,51.1383171 36.0053484,51.1383171 C39.0378433,51.9736712 63.0207569,57.6002361 74.9153674,60.9289835 C76.1552875,61.3759573 77.5373234,61.8229311 79.1429122,62.2758434 C77.7808364,59.2452106 76.431535,56.1991375 75.0950081,53.138812 C75.2319342,53.1732555 66.7405173,53.5101684 65.2039904,53.5457996 L64.9345293,53.3775411 L51.3265456,22.6009199 Z M147.261473,75.1715723 C147.23832,75.1577157 146.072252,72.0867008 145.553689,70.9999487 L136.451494,66.5971181 C136.638719,66.7812128 138.746903,72.2466454 139.122951,73.047556 C139.243909,73.3005376 139.37325,73.5475807 139.49301,73.8009582 C139.595206,74.0175168 139.710176,74.2475361 139.742112,74.495371 C139.842711,75.2614422 138.965665,75.1513813 138.539717,75.0587401 L136.409577,74.560299 C136.378041,74.5638621 126.873849,50.1501447 126.921354,50.1042201 L117.952093,47.4164387 C119.494209,50.9854988 129.638719,75.4605811 129.667462,75.3556669 C134.413969,76.4903232 135.689817,76.8913724 140.364068,77.9440768 C142.958879,78.6658069 145.827541,78.4793369 146.92295,77.209282 C147.35808,76.7045064 147.51337,76.0290969 147.261473,75.1715723 Z M190.488618,83.5365941 C190.466662,83.5255089 189.617161,80.762506 189.216762,79.7897738 L180.746502,75.9784214 C180.908179,76.1375742 183.201991,83.2792576 183.211971,83.5065056 C183.243908,84.2084405 182.620355,84.0635402 182.224347,84.0049467 L180.243109,83.6842657 C180.213968,83.6890166 173.237521,61.7330613 173.285026,61.6875325 L165.000794,59.7907641 C166.165665,62.9896555 173.745704,84.9614469 173.783229,84.8628672 C178.190814,85.6004334 179.938918,86.3138495 184.286622,86.980945 C186.688219,87.4778025 188.852291,86.6907486 189.997201,85.4428642 C190.452291,84.9479862 190.655484,84.3129587 190.488618,83.5365941 Z" id="path26" fill="#FFFFFF"></path>
                        <polyline id="path28" fill="#17412E" fill-rule="nonzero" points="182.388419 46.8138752 184.225544 46.8138752 184.225544 42.0757153 184.958878 42.0757153 184.958878 46.8138752 186.796403 46.8138752 186.796403 47.4588002 182.388419 47.4588002 182.388419 46.8138752"></polyline>
                        <path d="M191.611572,47.4588002 L190.069456,42.908298 L190.055085,42.908298 L188.504187,47.4588002 L187.454287,47.4588002 L187.454287,42.0757153 L188.164466,42.0757153 L188.164466,45.2544157 C188.164466,45.4123807 188.148099,46.0941246 188.148099,46.5890026 L188.164466,46.5890026 L189.692211,42.0757153 L190.417959,42.0757153 L191.944107,46.5961289 L191.958478,46.5961289 C191.958478,46.0941246 191.944107,45.4123807 191.944107,45.2544157 L191.944107,42.0757153 L192.655883,42.0757153 L192.655883,47.4588002 L191.611572,47.4588002" id="path30" fill="#17412E" fill-rule="nonzero"></path>
                    </g>
                </g>
            </g>
        </g>
    </g>
</svg>