<?xml version="1.0" encoding="UTF-8"?>
<svg width="200px" height="200px" viewBox="0 0 200 200" version="1.1" xmlns="http://www.w3.org/2000/svg" xmlns:xlink="http://www.w3.org/1999/xlink">
    <!-- Generator: Sketch 51.3 (57544) - http://www.bohemiancoding.com/sketch -->
    <title>mercy</title>
    <desc>Created with Sketch.</desc>
    <defs></defs>
    <g id="mercy" stroke="none" stroke-width="1" fill="none" fill-rule="evenodd">
        <g id="mercy_BGL" transform="translate(0.000000, 50.000000)">
            <g id="mercy">
                <g id="g10" transform="translate(100.000000, 49.860641) scale(-1, 1) rotate(-180.000000) translate(-100.000000, -49.860641) translate(0.000000, 0.360641)">
                    <g id="g12">
                        <path d="M132.28594,54.4829545 L131.285459,51.8252838 L130.567708,54.5732998 C127.774455,65.2382313 132.032125,75.9839338 140.442727,81.6366245 C138.936543,81.4624879 137.369314,81.0872269 135.994213,80.5288333 L133.487547,79.5103595 L134.883852,81.8293955 C138.890278,88.4922066 145.844173,92.6175077 153.055097,94.581845 C153.278068,95.3805599 153.565297,96.1368651 153.912285,96.799355 L154.498309,97.9129293 L155.366422,97.0024072 C155.868912,96.474857 156.395819,95.9807205 156.939434,95.5154996 C164.26859,96.4877084 171.908108,94.4186322 175.88112,92.2608812 L178.389072,98.3954995 L178.993088,98.3961421 C181.018469,98.399355 185.50361,94.1493952 185.024895,86.4488332 C185.830678,85.9681906 187.002726,85.354536 188.006421,84.6560621 C188.637425,84.2191144 189.265216,83.7095561 189.715015,83.132528 C190.164815,82.5554999 190.518228,81.7991947 190.344092,80.9355803 C190.267626,80.548753 189.998389,79.5103595 189.747786,78.4693956 C189.491401,77.3828093 189.302485,76.4780704 189.302485,76.2017652 L189.471481,75.7224077 C189.589072,75.4075483 189.78377,74.9673877 190.056863,74.4546166 C190.609473,73.4284319 191.503288,72.1163034 192.873248,70.9571067 C193.696381,70.2605605 195.181361,69.1155003 196.479995,68.0713236 C197.148911,67.5347774 197.767063,67.0232915 198.232927,66.6049783 C198.484814,66.3794361 198.691722,66.1789542 198.847867,66.0138136 C198.943609,65.9090747 199.023288,65.8120465 199.08112,65.7297976 C199.137666,65.6488337 199.243047,65.4991148 199.296381,65.304416 C199.334292,65.1694763 199.35614,64.83791 199.177505,64.3990345 C199.104895,64.222906 198.993087,63.9902313 198.85879,63.7183599 C198.606903,63.219147 198.262485,62.5810747 197.912927,61.9397896 C197.57365,61.3127696 197.225377,60.6835005 196.96385,60.1847375 C196.836622,59.9480146 196.73381,59.7497174 196.656702,59.5890748 C196.540397,59.0200788 196.566742,58.5580066 196.593087,58.1648821 C196.608509,57.9392757 196.625216,57.7371873 196.629071,57.5690267 C196.63614,57.2914363 196.614935,57.0700066 196.570597,56.9181673 L196.460718,56.5394363 L195.210919,55.9131231 L195.4461,55.4781673 L193.82361,51.3247859 L193.469553,51.1769304 C191.478871,50.3431313 181.9412,50.0042397 178.084494,51.1935088 L177.903289,51.2482557 C178.457184,49.1234687 179.261682,45.9570752 179.852204,42.4472921 C180.933008,36.0115654 181.368028,28.0655415 178.261843,23.0502163 L177.295417,21.4894774 L176.649634,23.2115657 C172.145859,35.251726 162.173811,39.2570593 152.943289,42.7768664 C150.621683,43.6604005 148.372687,44.508015 146.305539,45.436272 C144.221683,46.3724968 142.280478,47.4119185 140.614294,48.6779747 C137.462487,51.0760469 135.347788,54.2695569 135.045137,59.0060066 C133.727226,57.6262797 132.734455,55.6875167 132.28594,54.4829545" id="path14" fill="#AA9B8D"></path>
                        <path d="M6.13102635,42.0125291 L12.7588109,62.6736691 C13.1739756,63.8963518 12.3132527,64.9593558 10.8524335,65.8506008 C9.46036924,66.7000787 7.87045763,67.1685124 7.69953394,67.2115646 L4.51079186,68.0713236 C4.51079186,68.0713236 8.82403191,70.0562231 10.7944094,70.6242553 C12.7437105,71.1852191 15.4153892,71.7397572 18.1940558,71.6388737 C23.9402404,71.4338938 29.9726258,68.4106007 31.2361759,58.0215889 L31.9048988,54.8466492 L45.8380711,71.5996769 L64.2724482,71.3105203 L62.974649,67.4197574 L85.3288332,67.4730907 C86.643532,67.4730907 88.4016042,67.4261831 90.0684315,66.8947774 C91.9273873,66.2984722 93.7278691,65.089155 94.8324474,62.8827615 L94.9609615,62.6146812 C98.8195959,65.9559823 103.987146,67.7191951 108.555178,67.7191951 C110.166102,67.7191951 112.037909,67.5103598 114.072929,66.9590345 L146.13333,67.2372674 L139.021362,45.8654446 L174.088992,45.8654446 L162.261201,0.160642566 L52.0007698,0.160642566 L58.2888981,18.1270357 C58.2888981,18.1270357 56.8607215,18.1270357 55.5597095,18.4623289 C53.9492999,18.8780076 52.4957417,19.723116 52.4957417,19.723116 L49.1940229,13.8493812 L42.1418142,12.1317909 C40.9306978,11.8476463 39.4538143,11.4892206 37.7645613,11.2103451 C35.9741678,10.9109074 33.9126739,10.6930118 31.5487221,10.6930118 C18.6154533,10.6930118 8.4201765,18.2382003 11.8182808,31.3754852 L0,31.5085615 L2.80722885,41.0718062 L5.759036,41.2331556 C5.9585862,41.5030351 6.04041109,41.755758 6.13102635,42.0125291" id="path16" fill="#AA9B8D"></path>
                        <polyline id="path18" fill="#0B335E" points="122.996945 29.1405615 157.713731 24.6528508 150.707145 1.35642728 53.7527376 1.35642728 60.0675326 19.6370758 58.7577817 28.2010595 122.996945 29.1405615"></polyline>
                        <path d="M13.4603691,32.6927542 L1.59362566,32.6927542 L3.71561115,39.9246898 L5.82429544,40.0409307 C6.4846906,40.0778143 6.72417654,40.1719508 6.75302794,40.18326 C6.77410425,40.2090914 6.72417654,40.2166094 6.84363035,40.4877098 C7.00375886,40.8559026 7.13002392,41.24575 7.26130102,41.637268 L13.8917908,62.2989221 C15.2924012,66.4044963 8.01156606,68.3662634 8.01156606,68.3662634 C8.01156606,68.3662634 27.7080796,77.4220061 30.0562241,57.8257978 L31.241445,52.1807537 L46.3913241,70.3948577 L62.6227133,70.1403999 L61.3164965,66.2213638 L85.3320461,66.2811228 C86.6358211,66.2811228 88.2293954,66.2271469 89.7034516,65.7574281 C91.3208009,65.2395164 92.8321262,64.2088337 93.7632105,62.3461511 C94.0902788,61.7017816 94.2939735,61.0511792 94.3987125,60.413878 C98.0992747,64.393894 103.699917,66.5233718 108.555178,66.5233718 C110.101845,66.5233718 111.927387,66.3171068 113.916142,65.7657815 L144.489635,66.0330907 L152.272446,48.5015249 L172.705538,44.1440632 L161.272928,1.39507788 L129.175258,1.39507788 L145.219595,20.3192927 C143.995498,20.0205617 142.808029,19.7495256 141.610278,19.5349071 C139.969796,19.2391963 138.308109,19.0547144 136.524977,19.0547144 C131.73076,19.0547144 128.248671,20.7697987 126.277266,23.4048508 C125.731724,22.2387143 125.657828,22.0773007 125.462487,21.5780878 L124.739595,19.7339112 L103.823291,19.1877264 L89.3153391,19.2989553 L69.3031308,19.2989553 L70.1519661,22.2033087 C67.0502794,20.2603047 63.3619261,19.0547144 59.65738,19.0547144 C56.6513721,19.0547144 53.9590669,19.90612 51.899822,21.3757424 L48.5765771,15.0007386 L41.8568986,13.2916944 C40.6679508,13.0140398 39.2291717,12.6636463 37.5690272,12.3875338 C35.8378786,12.1021684 33.8380714,11.8855579 31.5487221,11.8855579 C18.7487224,11.8855579 9.50624876,19.3092365 13.1716623,31.7866659 L13.4603691,32.6927542" id="path20" fill="#0B335E"></path>
                        <path d="M60.5529302,62.2788739 L60.219372,62.3328498 L60.4149061,62.9942474 L73.7227291,62.9942474 L72.8668255,60.0702957 L72.1972673,60.0702957 L72.203693,60.3702475 C72.212689,60.8729945 72.0057813,61.1167214 71.7018456,61.2657977 C71.3638536,61.4299744 70.8819259,61.474376 70.3633717,61.474376 L64.5532514,61.474376 L62.4294924,54.2342155 L67.379918,54.2342155 C68.0642553,54.2342155 68.8655404,54.2550348 69.2221669,55.0735408 L70.032448,55.2542958 L69.0338939,51.8416051 L68.2705204,51.8416051 L68.381685,52.2246413 C68.413171,52.3255248 68.4363035,52.4076453 68.4388738,52.4884806 C68.3431308,52.7304083 68.0995967,52.9066011 67.2231308,52.9066011 L62.0404161,52.9066011 L60.5494603,47.830039 C59.9957575,45.9435169 60.2268901,45.7166254 61.9952434,45.7166254 L66.1853799,45.7166254 C68.1542152,45.7166254 68.6310023,46.1814607 69.4252191,46.9648824 L70.1988737,46.9465049 L70.0375886,46.5996454 C69.3564641,45.1312439 69.2799983,44.9630832 69.053171,44.3832921 L68.979918,44.193027 L54.8960629,44.193027 L55.0964163,44.8795491 C56.7778299,45.1543764 57.0444323,45.7384728 57.4548419,47.1272599 L61.3355808,60.3526411 C61.7567856,61.781396 61.714376,62.0880948 60.5529302,62.2788739" id="path22" fill="#FFFFFF"></path>
                        <path d="M78.4199177,62.2811229 L78.0870663,62.3356129 L78.28048,62.9942474 L85.3320461,62.9942474 C87.9158211,62.9942474 89.8987929,62.722633 90.8298772,60.8644483 C91.3040941,59.9307294 91.2906001,58.8785206 91.0046564,57.9050909 C90.6069054,56.5419424 89.6424074,55.3034524 88.3803994,54.3955649 C87.7661022,53.952577 87.1897167,53.6641272 86.6763031,53.4601111 C86.332528,53.3220228 86.017026,53.2223601 85.7420059,53.1446091 L86.3389537,52.0642557 C88.9516444,47.329798 90.1654596,46.0228101 92.6464234,44.6347941 L94.6441743,43.5341355 C94.6441743,43.5341355 91.0952588,43.2550029 87.5013633,45.6345691 C86.4668251,46.3149868 85.6327689,47.4881916 84.9445762,48.6262478 C84.2563834,49.7635329 83.7198373,50.9256855 83.3529296,51.7226654 L82.8607208,52.7492356 C82.1191947,52.6905047 82.0189538,52.6905047 81.0987932,52.6905047 L79.8759819,52.6905047 L78.1436125,46.7881755 C77.7034519,45.2949065 77.7940543,45.1111957 79.0014438,44.9096214 L79.3317249,44.8539105 L79.1376687,44.193027 L72.7640142,44.193027 L72.9702793,44.8958061 L73.1752592,44.9141836 C74.5137331,45.0213643 74.8658616,45.4676294 75.3092351,46.9812036 L79.286745,60.523372 C79.6735723,61.849123 79.5591948,62.0780707 78.4199177,62.2811229 Z M81.4496365,54.0155489 C83.3510019,54.0155489 84.4208814,54.1849946 85.7175882,54.9236934 C86.6724476,55.466087 87.7853793,56.7663279 88.1625681,58.0489624 C88.4883512,59.1687053 88.1908412,60.0223599 87.8618452,60.5188097 C87.4801585,61.1167214 86.643532,61.6706812 84.357267,61.6706812 L82.5111626,61.6706812 L80.2666647,54.0155489 L81.4496365,54.0155489 Z" id="path24" fill="#FFFFFF"></path>
                        <path d="M106.56064,44.2263764 C105.611564,44.0687539 104.52305,43.9528342 103.269395,43.9528342 C96.2801582,43.9528342 92.3861824,47.704288 94.0761422,53.4601111 C95.8496362,59.4992435 102.658311,63.2361751 108.555178,63.2361751 C109.828752,63.2361751 111.288029,63.0848498 112.967708,62.6167374 L115.471804,61.8054924 L115.427467,61.5487214 C115.286102,60.786633 115.267467,60.5276129 115.213491,59.2141351 L115.204495,58.973364 L114.517587,58.8516612 L114.468752,59.1548901 C114.199515,60.900368 111.266182,61.913123 108.740238,61.913123 C103.350359,61.913123 98.2727686,57.9214122 96.9220859,53.3155328 C95.6504394,48.9866654 98.5407204,45.2785852 104.017347,45.2785852 C106.182809,45.2785852 108.628431,45.8504085 110.601764,46.9151474 C111.304736,47.2939426 111.799515,47.6551313 112.192126,48.0077739 C112.386182,48.1827458 112.557106,48.3591956 112.717106,48.5301193 L113.175258,49.0549707 L113.342326,49.2492197 L113.916142,48.8995972 L112.168993,45.5466655 L108.977989,44.7347137 C108.305218,44.5790832 107.50072,44.3820069 106.56064,44.2263764" id="path26" fill="#FFFFFF"></path>
                        <path d="M66.3877895,41.625252 C72.4857813,41.625252 76.0790342,37.4773967 74.5779901,32.3611879 C73.0962231,27.3137343 66.4854602,22.3428749 59.65738,22.3428749 C53.4181513,22.3428749 49.9909385,26.5644973 51.4347296,31.4867141 C51.826312,32.8237743 53.3717577,36.2876778 57.2635488,38.8147781 C60.0697816,40.6375572 63.527388,41.625252 66.3877895,41.625252 Z M71.8091548,31.6066819 C73.0351789,35.7876296 70.4841749,39.8657018 64.5757414,39.8657018 C59.4422475,39.8657018 55.4518219,36.4834047 54.2495087,32.3835494 C53.010569,28.1697021 55.4867135,24.105895 61.3328177,24.105895 C68.33542,24.105895 71.17044,29.4355013 71.8091548,31.6066819 Z" id="path28" fill="#FFFFFF"></path>
                        <path d="M79.351002,40.6689146 L79.0104398,40.7203845 L79.2096366,41.3837741 L85.5248171,41.3837741 L85.3204798,40.6935251 L85.1283513,40.6658946 C83.9871465,40.5153404 83.4685923,40.1681596 83.0310019,38.6696858 L79.5508414,26.8265375 C78.8420864,24.4093809 78.9963032,24.105895 81.9180702,24.105895 L85.6019256,24.105895 C86.5805601,24.105895 87.2276283,24.2949392 87.7795962,24.6214934 C88.0584717,24.7838709 88.3199978,24.9894291 88.5892347,25.2344411 C88.8655399,25.482409 89.1437729,25.7657825 89.4528492,26.0775576 L90.2689134,25.9532845 L87.6909215,22.5863448 L73.6912431,22.5863448 L73.8936528,23.2816058 L74.0947773,23.3022323 C75.3837732,23.4294613 75.7847371,23.8298468 76.2910824,25.5635014 L80.2403193,39.0092842 C80.6239337,40.313252 80.3116446,40.5265853 79.351002,40.6689146" id="path30" fill="#FFFFFF"></path>
                        <path d="M96.4896361,40.6689146 L96.150359,40.7203845 L96.3444153,41.3837741 L102.661524,41.3837741 L102.458471,40.6935251 L102.261845,40.6658946 C101.121925,40.5153404 100.602728,40.1681596 100.16321,38.6696858 L96.6836924,26.8265375 C95.9768651,24.4093809 96.1259414,24.105895 99.0573469,24.105895 L102.737989,24.105895 C103.712126,24.105895 104.364977,24.2949392 104.914375,24.6214934 C105.195821,24.7838709 105.452849,24.9894291 105.724013,25.2344411 C106.001604,25.482409 106.279837,25.7657825 106.58827,26.0775576 L107.409475,25.9548267 L104.826985,22.5863448 L90.8260218,22.5863448 L91.0303592,23.2816058 L91.229556,23.3022323 C92.5191945,23.4294613 92.9156603,23.8298468 93.424576,25.5635014 L97.3731703,39.0092842 C97.7567847,40.315758 97.4464233,40.5265853 96.4896361,40.6689146" id="path32" fill="#FFFFFF"></path>
                        <path d="M113.902648,40.6689146 L113.567226,40.7236616 L113.76321,41.3837741 L127.07341,41.3837741 L126.211724,38.4578304 L125.545378,38.4578304 L125.551804,38.7613163 C125.559515,39.2610432 125.353892,39.508754 125.050599,39.6543605 C124.711965,39.8200151 124.23325,39.8657018 123.713411,39.8657018 L117.902648,39.8657018 L115.77831,32.6214932 L120.73317,32.6214932 C121.414294,32.6214932 122.212366,32.6433405 122.569635,33.4618466 L123.386985,33.6418305 L122.382005,30.228433 L121.617989,30.228433 L121.728511,30.6114691 C121.761282,30.7098466 121.783129,30.7944089 121.78827,30.8767864 C121.69317,31.1217342 121.449636,31.2976699 120.576383,31.2976699 L115.389555,31.2976699 L113.900077,26.2213648 C113.342326,24.3328508 113.577507,24.105895 115.341363,24.105895 L119.534776,24.105895 C121.507467,24.105895 121.978471,24.5655255 122.77076,25.351903 L123.554696,25.3423929 L123.388913,24.9894291 C122.70329,23.5200637 122.628109,23.347148 122.402567,22.7746179 L122.327387,22.5863448 L108.244817,22.5863448 L108.444656,23.2693328 C110.123692,23.539405 110.397427,24.1265215 110.801604,25.5138307 L114.686583,38.7406898 C115.104254,40.1681596 115.06313,40.4769147 113.902648,40.6689146" id="path34" fill="#FFFFFF"></path>
                        <path d="M45.2838543,44.0632278 L45.007035,44.1415571 L45.6257659,46.632545 L45.9046414,46.575035 C46.452047,46.4656053 47.0494446,46.3149868 47.76379,46.0883523 C48.6217498,45.8119828 49.8195008,45.2404808 50.7893963,44.7434527 C51.765332,44.2426977 52.7186493,43.7035812 52.7186493,43.7035812 L52.6794525,43.4947459 C52.4384886,42.2058142 52.4079023,41.7628263 52.3207698,39.551485 L52.3117738,39.309236 L51.525075,39.1699267 L51.4771393,39.4723846 C51.1621513,41.4859427 48.4420229,43.1458302 45.2838543,44.0632278" id="path36" fill="#FFFFFF"></path>
                        <path d="M24.9355174,37.933236 C22.9098789,35.747983 21.469622,33.3283205 20.7085617,30.7374771 C18.5353891,23.3323046 23.6335416,17.4856863 32.9540875,17.4856863 C36.6121758,17.4856863 40.7439669,18.4487706 44.0886093,20.2532364 C46.4937498,21.5466661 47.3400791,22.2580557 48.321798,23.4018307 L49.144802,23.1942805 L46.3418462,17.8218148 L41.0775893,16.4832124 C39.9480151,16.218345 38.6079348,15.8920478 37.0353726,15.6305217 C35.4527863,15.3697024 33.6343124,15.1724334 31.5487221,15.1724334 C19.8970597,15.1724334 13.5429394,21.3905858 16.3260398,30.8659912 C17.5838068,35.1493646 20.3777666,38.7406898 23.9221841,41.445268 C24.2176379,40.3074689 24.5293488,39.2183765 24.856417,38.177734 L24.9355174,37.933236" id="path38" fill="#FFFFFF"></path>
                        <path d="M17.2253811,61.1676772 C17.5371562,62.096384 17.7670678,62.8963197 17.8697506,63.5742956 C18.2926903,63.1922876 18.6543931,62.7780868 18.9031321,62.3356129 C19.4272124,61.4169302 19.8451401,60.2522716 20.221879,58.8760146 L14.2736061,40.9871797 C13.2106021,37.874248 12.9896864,37.1687059 15.4872285,36.7804007 L15.8243209,36.7256537 L15.6046904,35.9789228 L5.98368499,35.9789228 L6.21611551,36.7721115 L6.42444964,36.7804007 C7.82502792,36.8569308 8.62978292,37.3451557 9.17191945,38.0095091 C9.45381502,38.3484006 9.66766241,38.747501 9.85715638,39.183742 C10.0512126,39.627244 10.21057,40.0966416 10.3714696,40.56726 L17.2253811,61.1676772" id="path40" fill="#FFFFFF"></path>
                        <path d="M45.0956455,59.7550507 L31.3024892,43.1156937 L30.9369952,44.5326254 L30.5321117,46.1892358 L47.9332357,67.1100385 L55.8524002,67.1100385 L55.6227456,66.3325285 C53.1792437,66.0735726 50.9608341,65.6301992 49.9507779,61.5707615 L44.9977178,41.6214608 C44.2078061,38.4425372 43.9259748,37.2640633 47.3069868,36.7804007 L47.6490912,36.7319509 L47.4249627,35.9789228 L36.0700393,35.9789228 L36.2961597,36.7502641 C38.4033404,37.0840794 39.5803364,37.4422481 40.498505,41.1922881 L45.0956455,59.7550507" id="path42" fill="#FFFFFF"></path>
                        <path d="M15.9766743,67.4467453 C17.0095417,67.4685927 18.3863128,67.430681 19.7567867,67.1820064 C23.9495576,66.419918 25.6136861,62.9304402 26.8398387,57.1420387 C27.7005616,53.0941031 28.6277904,48.4345048 29.7271639,44.064513 C30.8220394,39.6925291 32.0823125,35.6370754 33.6016698,32.7678064 C34.7588104,30.5871157 35.9011075,29.2143286 36.744738,28.3950515 C37.1649147,27.983935 37.5158224,27.7116138 37.752995,27.5406901 C37.9801436,27.3817824 38.9279348,26.8928507 38.9279348,26.8928507 L38.0246095,26.7522564 C37.9503284,26.7419752 33.9590674,26.1460556 29.8757262,31.0213647 C28.2502804,32.9625695 27.1086901,35.5521919 26.163662,38.5517099 C25.2186339,41.5449307 24.4611078,44.9806896 23.6106661,48.6466173 C22.8516621,51.9234686 22.3212846,54.904095 21.7731079,57.4360146 C21.2221681,59.968384 20.658891,62.0097655 19.8355658,63.4583117 C18.5479192,65.7278698 14.2507306,67.3368658 14.2507306,67.3368658 C14.2507306,67.3368658 14.9417506,67.4223276 15.9766743,67.4467453" id="path44" fill="#AA9B8D"></path>
                        <path d="M81.3673875,20.2891561 L84.952287,20.2891561 L84.9985521,19.9254613 C83.9145361,19.72363 82.8645762,19.5258469 82.2303594,17.6224895 L79.1119659,8.22689136 C78.5991948,6.691791 78.4726085,6.21761912 79.9331707,6.00551953 L79.9010422,5.64181833 L74.8093154,5.54342155 L74.7418455,5.90461672 C75.6722873,6.13278057 76.2383917,6.29217012 76.8160623,8.05725281 L79.5958213,16.4390036 L70.1095565,6.43476289 L68.4600786,16.4934936 L64.7980707,7.94525281 C64.4093157,7.02959019 64.3617655,6.58133317 64.4562233,6.34989864 C64.535902,6.16039181 64.7395968,6.08383599 65.175902,6.00426652 L65.1354201,5.64181833 L60.0416371,5.54342155 L59.9914523,5.90712917 C61.8147454,6.23092675 62.0908579,6.85744561 62.715886,8.3365781 L66.689155,17.7311482 C67.4763035,19.5996782 66.6293959,19.7249152 65.7375084,19.8270838 L65.7664241,20.1947625 L70.5240143,20.1972686 L71.888191,10.269558 L81.3673875,20.2891561 Z M85.3198372,6.01456049 C84.5622469,5.69779263 83.8065843,5.53765127 83.0612027,5.53765127 C82.2959016,5.53765127 81.6906004,5.75476933 81.3005602,6.2148625 C80.9130903,6.67945365 80.8546165,7.24825685 81.0698775,7.89005603 C81.3121265,8.61744557 81.9225682,9.22165439 82.8568654,9.70409614 C83.7885923,10.1912929 85.1868252,10.6332527 87.0419255,11.0414134 L88.3277086,11.3278069 L88.7100379,12.4711322 C88.8957407,13.0236141 88.9734918,13.3770278 88.9702789,13.5582326 C88.9677086,13.7143772 88.893813,13.8473892 88.7370259,13.9585539 C88.4883512,14.1526101 88.1130902,14.2670519 87.5816846,14.2670519 C87.0284316,14.2670519 86.6043352,14.1694454 86.2939737,13.9919675 C85.9842549,13.8165458 85.7599979,13.5459595 85.6327689,13.1604173 L85.463773,12.6536222 L82.6583112,11.9633732 L82.8568654,12.5584575 C83.0939738,13.2703611 83.8020863,13.9136382 84.906022,14.5002406 C86.0112428,15.0810599 87.24305,15.3722085 88.5930902,15.3722085 C89.6880299,15.3722085 90.5098773,15.1877265 90.9448973,14.7431964 C91.376062,14.2876784 91.3876282,13.5973651 91.1010419,12.7525137 L89.8306805,8.96514034 C89.5042548,7.98971868 89.4136524,7.40061026 89.4926885,7.14281107 C89.547307,6.96359822 89.7420058,6.81651389 90.3132508,6.81651389 C90.4957407,6.81651389 90.6994355,6.83180706 90.9262628,6.85744561 L91.2944555,6.89606408 L91.0072266,6.03689623 C90.1583913,5.69377656 89.4477086,5.53765127 88.7813632,5.53765127 C88.185058,5.53765127 87.7082709,5.71184564 87.4281103,6.09161752 C87.24305,6.34613317 87.1640139,6.67572674 87.1704396,7.06750183 C86.547789,6.61975887 85.9289938,6.2663131 85.3198372,6.01456049 Z M87.8207207,10.2933973 C86.205299,9.90464232 85.1444155,9.5615098 84.6059417,9.26528491 C84.0950983,8.98518853 83.7487529,8.57908412 83.5675481,8.03868253 C83.4531706,7.69728495 83.497508,7.42869058 83.6703594,7.20456207 C83.8489939,6.98416047 84.0950983,6.87350987 84.4446565,6.87350987 C85.0833714,6.87350987 85.7863432,7.12224882 86.5554998,7.66393555 C87.0239336,7.9999998 87.3683512,8.47241746 87.576544,9.09108411 L87.9948572,10.3343291 L87.8207207,10.2933973 Z M93.3982306,12.7826503 C93.2138129,13.466345 93.0563832,13.8626824 92.9375077,14.019084 C92.844335,14.144835 92.6959013,14.2188591 92.4452989,14.2188591 L91.9787929,14.2188591 L92.2827286,15.1222486 L97.2555799,15.1222486 L96.9542144,14.2188591 L96.5950177,14.2188591 C95.9659414,14.2188591 95.7950177,14.0845619 95.7577486,13.9766743 C95.7185518,13.8564495 95.7429695,13.5100398 95.8907607,12.8797426 L96.968351,8.31048975 L100.840479,12.9502969 C101.302487,13.4881924 101.534455,13.8263129 101.586503,13.9816864 C101.616704,14.083341 101.589074,14.1076944 101.549877,14.1299916 C101.468913,14.1752286 101.288351,14.2188591 100.952287,14.2188591 L100.465861,14.2188591 L100.769154,15.1222486 L104.859756,15.1222486 L104.557748,14.2188591 L104.22554,14.2188591 C104.003853,14.2188591 103.754536,14.1365458 103.481443,13.9342647 C103.202568,13.7258792 102.803532,13.3242728 102.281122,12.7133812 L96.1188731,5.53765127 L95.1511623,5.53765127 L93.3982306,12.7826503 Z M111.833572,6.59739743 C110.090921,5.88403519 108.578953,5.53765127 107.214134,5.53765127 C105.564656,5.53765127 104.322568,5.99849624 103.539275,6.95254601 C102.757267,7.9048994 102.631323,9.09937327 103.104897,10.5067949 C103.572046,11.899823 104.465861,13.0569635 105.783772,13.9804013 C107.107467,14.9026181 108.542969,15.3722085 110.085138,15.3722085 C111.473732,15.3722085 112.486423,14.9866663 113.032608,14.1719515 C113.580077,13.3707306 113.590359,12.2904415 113.147628,10.9641122 L113.009475,10.5574937 L105.652688,10.5574937 L105.570439,10.3300881 C105.236303,9.33712426 105.346182,8.53262629 105.844174,7.892048 C106.346021,7.26027291 107.119676,6.93776689 108.217829,6.93776689 C109.286423,6.93776689 110.473893,7.18271468 111.777668,7.67871467 L112.260881,7.86319659 L111.833572,6.59739743 Z M107.661363,11.4621041 C109.106503,11.4621041 109.985539,11.5218632 110.358873,11.6292367 C110.686584,11.7211242 110.931403,11.9448029 111.0657,12.3521282 C111.292527,13.0236141 111.263612,13.5376703 111.034214,13.9161442 C110.813812,14.2818952 110.443692,14.467341 109.874375,14.467341 C109.149556,14.467341 108.422166,14.1912928 107.689636,13.5973651 C107.031001,13.0640318 106.475821,12.3534133 106.034375,11.4621041 L107.661363,11.4621041 Z M117.097507,8.04440141 C116.866824,7.35993556 116.891242,7.0283693 116.986985,6.91919661 C117.085298,6.80995967 117.441282,6.69879501 118.261202,6.69879501 L118.726423,6.69879501 L118.422487,5.78514363 L112.179917,5.78514363 L112.486423,6.69050586 L112.843692,6.69050586 C113.531242,6.69050586 113.940559,6.79138939 114.148752,6.94355003 C114.37815,7.10740544 114.617828,7.49121266 114.8408,8.15614437 L116.016704,11.6634214 C116.286583,12.4711322 116.364977,12.9131563 116.325138,13.0602406 C116.294937,13.1656864 116.111804,13.337831 115.574616,13.5429394 L114.877427,13.8165458 L115.007869,14.2073571 L119.579113,15.4385217 L119.07084,13.9257185 C119.71084,14.3403691 120.289796,14.6641603 120.809636,14.899341 C121.486905,15.2025699 122.083852,15.3709876 122.594053,15.3722085 C123.514214,15.3722085 124.152929,14.966104 124.485137,14.21359 L124.548109,14.078843 L122.239354,12.4774294 L122.132688,12.7743611 C121.894937,13.4284334 121.544736,13.6611723 121.137989,13.6611723 C120.724816,13.6611723 119.95566,13.3546663 118.788752,12.6508591 L118.60819,12.5454133 L117.097507,8.04440141 Z M127.107467,8.04440141 C126.879997,7.36571869 126.879997,7.02008015 126.964816,6.89734923 C127.025218,6.80546168 127.284816,6.69050586 127.969796,6.69050586 L128.449153,6.69050586 L128.14329,5.78514363 L122.266985,5.78514363 L122.570921,6.69050586 L122.951322,6.69050586 C123.584897,6.69050586 123.971081,6.79138939 124.172848,6.941044 C124.394535,7.10618456 124.623933,7.49121266 124.85076,8.15614437 L126.027306,11.6634214 C126.302969,12.4954856 126.382647,12.9272286 126.347306,13.0428912 C126.328029,13.1187145 126.142326,13.2992125 125.570439,13.5487226 L124.966423,13.8280478 L125.091724,14.2073571 L129.590358,15.4402566 L127.107467,8.04440141 Z M127.409475,16.4691402 C127.178792,16.7356783 127.142165,17.0552285 127.260398,17.3968188 C127.372848,17.7349393 127.610599,18.0175417 127.957587,18.2452044 C128.307788,18.4758871 128.6959,18.5999031 129.116141,18.5999031 C129.53831,18.5999031 129.885298,18.4758871 130.114053,18.2008028 C130.342165,17.9372204 130.377507,17.6224895 130.26827,17.2864253 C130.150679,16.9400156 129.912286,16.6561281 129.562728,16.4287225 C129.212527,16.2005458 128.823772,16.081092 128.409314,16.081092 C127.988431,16.081092 127.637587,16.2038229 127.409475,16.4691402 Z M138.039515,6.17520306 C136.53333,5.73945688 135.23084,5.53765127 134.011884,5.53765127 C132.335418,5.53765127 131.066985,5.96560949 130.2657,6.86020866 C129.475338,7.75704398 129.338471,8.90910821 129.799194,10.2824094 C130.2959,11.762827 131.277105,12.9819113 132.734455,13.9372205 C134.194374,14.892851 135.818792,15.3722085 137.596784,15.3722085 C139.004655,15.3722085 140.155499,15.018088 141.019756,14.2946824 L141.211241,14.1365458 L138.969314,12.5898792 L138.853009,12.8699756 C138.407707,13.9232125 137.667466,14.4026342 136.641924,14.4026342 C135.788591,14.4026342 134.991804,14.090345 134.241282,13.4202085 C133.488832,12.7525137 132.915659,11.8451403 132.532045,10.6910198 C132.100238,9.41166242 132.130438,8.456803 132.559675,7.78865844 C132.980559,7.14281107 133.761282,6.80173477 134.979595,6.80173477 C136.010278,6.80173477 137.017828,6.96610424 138.006744,7.29895564 L138.471322,7.45381507 L138.039515,6.17520306 Z M149.057024,14.1925137 C148.965779,14.2073571 148.81349,14.2188591 148.588591,14.2188591 L148.118872,14.2188591 L148.424735,15.1222486 L152.737024,15.1222486 L152.433731,14.2188591 L152.084173,14.2188591 C151.711482,14.2188591 150.667305,13.7761282 148.862326,12.766586 L146.431482,11.4056222 L148.742165,8.21461827 C149.553731,7.10367854 150.136542,6.69050586 150.484173,6.69050586 L150.746984,6.69050586 L150.687868,5.78514363 L147.656221,5.78514363 L144.177988,10.5022327 L143.355498,8.04440141 C143.125458,7.36571869 143.131241,7.02136529 143.218631,6.90062633 C143.284816,6.80546168 143.557265,6.69050586 144.264093,6.69050586 L144.536543,6.69050586 L144.424735,5.78514363 L138.513089,5.78514363 L138.816382,6.69050586 L139.176864,6.69050586 C139.822647,6.69050586 140.219113,6.79138939 140.419595,6.941044 C140.637426,7.10618456 140.871964,7.49121266 141.096221,8.15614437 L143.629233,15.7100719 C143.880478,16.460851 143.948591,16.8855257 143.904253,17.0416703 C143.874053,17.1636301 143.71341,17.3320478 143.240478,17.5158229 L142.537506,17.7786341 L142.671161,18.1802405 L147.183932,19.4590839 L144.514053,11.4962246 L147.52835,13.2176061 C148.458791,13.7459916 148.921442,14.0614936 149.057024,14.1925137 Z M152.17092,8.79871464 L153.422647,8.79871464 L153.360317,8.40938132 C153.157265,7.02959019 153.743289,6.44253799 155.087546,6.44253799 C155.690277,6.44253799 156.26602,6.59585526 156.816703,6.91540545 C157.369313,7.24170263 157.70345,7.61773475 157.845458,8.04440141 C157.932205,8.29693152 157.899434,8.49799176 157.77349,8.67270661 C157.641121,8.8514054 157.210598,9.15084314 156.411884,9.57558209 L155.635659,9.99119654 C154.121121,10.8087387 153.445137,11.7706021 153.814615,12.8712607 C154.072928,13.6451081 154.624253,14.2600478 155.452526,14.7078551 C156.281442,15.1518711 157.266502,15.3709876 158.397426,15.3722085 C159.364494,15.3722085 160.355337,15.1980719 161.375739,14.8524334 L161.580076,14.7829073 L160.847546,12.6021523 L159.617024,12.6021523 L159.671643,12.9869234 C159.709554,13.2253812 159.720478,13.4335097 159.706984,13.6031483 C159.69349,13.7600639 159.644012,13.895582 159.567546,14.0010278 C159.499434,14.1064093 159.37606,14.2188591 159.176863,14.3223129 C159.013651,14.4071322 158.705859,14.467341 158.202727,14.467341 C157.718872,14.467341 157.284494,14.3491723 156.892526,14.1134776 C156.511482,13.8853009 156.26602,13.5916462 156.144574,13.2349555 C155.991,12.7858631 156.319354,12.2557427 157.456703,11.637076 L158.306823,11.1724335 C159.149233,10.7156303 159.734614,10.2728351 160.01349,9.84289132 C160.289153,9.39309213 160.311643,8.86168653 160.113731,8.26808011 C159.834213,7.43646568 159.207064,6.76960626 158.252205,6.2720898 C157.303771,5.77986813 156.187627,5.53765127 154.920478,5.53765127 C153.601281,5.53765127 152.523048,5.73945688 151.71598,6.16867454 L151.575257,6.24397735 L152.17092,8.79871464 Z" id="path46" fill="#FFFFFF"></path>
                        <path d="M195.115176,57.4254765 C194.869714,57.4322235 193.1412,56.5680307 193.1412,56.5680307 L193.782485,55.3772838 L192.654132,52.4922075 C190.579272,51.8825369 182.174453,51.582071 178.651241,52.6016372 L174.75598,55.959838 L175.487867,53.8265689 C175.531562,53.7008179 182.060076,34.5301196 177.582004,24.967646 C172.605297,36.7582963 162.378791,40.7976857 153.482406,44.1892358 C151.191,45.0630029 148.968992,45.8983442 146.925619,46.8157418 C144.893169,47.7288984 143.06827,48.7133803 141.531884,49.8822799 C138.490599,52.1945047 136.556462,55.2568018 136.518551,60.0634844 C136.515981,60.2723198 136.548109,60.5308901 136.587306,60.839131 L136.729314,62.0514683 L135.671643,61.4387776 C133.887868,60.4035969 132.505057,58.3883038 131.635017,56.7186492 C129.668109,67.3291549 134.939756,77.653974 144.156141,82.0112429 L146.067788,82.9159819 L143.967868,83.1691545 C141.964976,83.4126887 139.442246,83.1742951 137.145699,82.519516 C141.092366,88.0481906 147.372205,91.5585519 153.95084,93.2542949 L154.306823,93.3455398 L154.391643,93.7047366 C154.530438,94.2824073 154.700076,94.8292346 154.899916,95.3246563 C155.347145,94.8947767 155.805297,94.4867446 156.281442,94.0947768 L156.48835,93.9232105 L156.756944,93.9630499 C164.457506,95.1036121 172.625859,92.6194354 175.989714,90.4411222 L176.60851,90.0414435 L179.356783,96.7665839 C180.628429,96.1342948 184.105377,92.8989535 183.477586,86.0305199 L183.444815,85.6706806 L183.744252,85.4689135 C184.49863,84.9606404 185.9412,84.24803 187.144734,83.4126887 C187.726903,83.0078694 188.212043,82.5998373 188.523047,82.199516 C188.832766,81.8043353 188.91373,81.4933313 188.864252,81.2375883 C188.785216,80.855259 188.523047,79.8419257 188.278228,78.8208816 C188.041762,77.8306808 187.787305,76.7042551 187.787305,76.2017652 C187.787305,75.6440142 188.917586,72.323211 191.897184,69.8024079 C192.728027,69.1007212 194.221361,67.946665 195.534132,66.8934923 C196.176702,66.3762232 196.775577,65.8827293 197.220879,65.4804803 C197.430999,65.2909221 197.606421,65.1251389 197.73622,64.9857012 C197.704734,64.8044964 197.614774,64.6142956 197.504895,64.398392 C197.261361,63.9101671 196.925296,63.2881591 196.586662,62.6644161 C196.241602,62.0310989 195.890758,61.3963037 195.625377,60.8910507 C195.487867,60.6317736 195.372847,60.4061029 195.288027,60.2301672 L195.175577,59.9806571 C195.155015,59.9244322 195.110035,59.8130106 195.099112,59.6970266 C195.030999,59.1051551 195.052204,58.5341672 195.08369,58.0695247 C195.096541,57.8571552 195.110035,57.6714524 195.115176,57.5170427 L195.115176,57.4254765" id="path48" fill="#FFFFFF"></path>
                        <path d="M158.728349,72.4285926 C146.24835,66.5966248 162.162888,52.5472115 152.463932,46.8293 L171.113891,39.245236 L167.382486,55.781846 L158.556141,67.466665 L158.728349,72.4285926" id="path50" fill="#AA9B8D"></path>
                        <path d="M185.304413,64.8713237 C184.708108,65.8852996 180.855257,68.5667453 180.855257,68.5667453 C173.472124,72.6920464 182.76369,58.9231792 182.974453,64.9349381 L185.304413,64.8713237 Z M179.886903,84.5224075 C181.979112,88.6836926 179.753249,94.0999173 179.886903,94.2187928 L182.283048,93.3371864 L182.909554,85.6546163 L187.696702,82.3794357 C188.008991,80.4337329 187.781521,77.7876286 186.687224,76.080962 C188.995979,72.116946 192.5661,67.4056208 196.767224,65.2504401 C195.199995,60.8729945 193.333971,56.0115649 190.470035,52.2766252 C177.402084,54.5007537 169.935417,61.0702635 158.728349,63.8642233 L158.476462,68.9028095 L159.232767,66.7617654 C167.295096,63.3604482 177.496542,70.790681 169.182325,75.9569459 L174.470678,75.0753395 L174.218791,75.4808013 L174.849795,75.0753395 L181.147626,72.0514038 L175.604815,77.3423274 L176.740237,77.7188736 L174.597265,86.410279 L183.162726,80.1124478 L184.420879,81.3725281 L179.886903,84.5224075 Z" id="path52" fill="#AA9B8D"></path>
                        <path d="M185.371883,64.7980707 C185.371883,64.6277895 185.103289,64.227404 183.624092,63.9282233 C183.819433,63.1342635 184.111803,62.3827776 184.93108,61.7226651 C180.280799,63.0815727 178.944253,66.3312433 179.824574,67.3175887 C179.914534,67.4795164 183.2212,66.5381509 185.371883,64.7980707 Z M188.221682,66.4186329 L178.777827,77.9103595 L177.673891,82.5381505 L181.767706,78.5407209 L188.221682,66.4186329 Z M170.445618,78.4925282 C170.445618,78.4925282 172.38618,76.4401587 169.688028,76.4677893 C170.475819,76.2306808 171.711482,75.8419258 173.22859,76.3887531 C172.413811,76.9484318 171.522566,77.7118053 170.445618,78.4925282 Z M174.30361,78.4906004 C174.30361,78.3370262 173.237586,77.9803997 172.991482,77.9752591 L178.461682,73.1180705 C175.066341,74.9738134 172.868108,74.8960624 169.84353,75.4435323 C167.759675,75.7693154 166.931401,77.6854599 167.170438,80.1490743 L166.69108,82.615259 C169.734293,81.1868253 173.718871,78.6011225 174.30361,78.4906004 Z M179.761602,55.6920147 C181.107144,55.4944886 186.462325,54.6980227 191.327867,55.281605 L191.572043,56.2876773 C188.26859,56.6297817 183.102967,57.3310829 179.761602,55.6920147 Z M163.390197,63.1839984 C165.670679,62.8444 168.821201,62.6865205 172.917586,67.0971871 C172.917586,65.0486731 172.599514,63.475147 172.625217,62.4854603 L177.858309,60.7464724 C177.923851,60.7404322 177.880156,58.5258781 178.248992,57.6932998 C181.650759,59.2035327 188.331562,59.1131873 192.646421,58.4332194 C192.646421,58.4332194 192.366903,60.9247214 192.458148,61.0471953 C194.024734,62.9560787 193.119353,63.3105205 192.853971,63.3802394 C191.304734,63.8822795 191.032927,64.325139 191.032927,64.4979904 C191.990999,65.1463438 193.191963,65.6237735 194.265055,65.9457012 C193.417505,66.8870666 191.95116,67.7654602 190.951321,68.3341348 C188.990196,69.4496368 186.211722,76.4073876 186.211722,76.4073876 C186.414132,77.29799 187.51614,81.3461827 186.554212,81.975259 C184.803851,83.1183915 182.482244,84.5024878 181.862807,84.906022 C182.30618,86.8555802 181.686742,91.1395961 179.99357,93.9334916 C179.895899,94.0928491 178.130759,86.9172669 176.559674,87.3837729 C171.514213,88.889315 167.090116,88.1644958 164.087385,87.3548573 C160.036623,87.9916444 156.329635,91.8689134 156.329635,91.4101182 C156.329635,87.4043352 160.090598,82.551002 160.08096,82.4925281 C158.870357,82.6448172 156.368831,83.1980702 156.182486,83.099757 C141.621201,75.6902792 139.683209,59.5354202 142.518872,55.281605 C147.865699,49.1904887 160.792285,46.5805611 165.395016,43.0998865 C165.892365,42.9751636 168.252526,51.8019585 163.653008,57.398103 C163.653008,57.398103 151.717265,64.7325285 158.870357,72.6149379 C157.968189,69.039677 160.514052,63.8410908 163.390197,63.1839984 Z M193.119353,52.0080308 C191.367063,51.2731232 182.053007,50.9146333 178.350518,52.0549385 L176.067465,54.023581 C176.067465,54.023581 183.310518,32.919453 177.496542,23.5271319 C168.174775,48.449541 136.059756,40.0037902 135.909394,60.0587294 C135.906824,60.2874202 135.939595,60.5717575 135.980077,60.9131551 C133.69574,59.5875969 132.053973,56.4420227 131.440318,54.8001914 C128.430519,66.2894763 133.894294,77.8351788 143.893972,82.5632108 C141.488832,82.8549377 138.252205,82.419275 135.656222,81.3648172 C139.60096,87.9228894 146.551643,91.9768652 153.79855,93.8454595 C154.02088,94.7823269 154.331241,95.6523671 154.711643,96.3810418 C155.334936,95.7288329 155.987145,95.1293149 156.668912,94.5670659 C164.514052,95.7314032 172.835337,93.2112426 176.319996,90.9551784 L178.996301,97.4952586 C180.248028,97.4965437 184.803851,93.8351784 184.085457,85.9759015 C185.599995,84.9548573 189.865377,83.1216043 189.459915,81.1142148 C189.305698,80.3489137 188.398389,77.0216848 188.398389,76.2017652 C188.398389,75.8734118 189.406582,72.7093958 192.288509,70.2676288 C193.945055,68.8681107 198.254774,65.6732514 198.428268,65.0583116 C198.528509,64.7113237 195.755176,60.0544885 195.705698,59.6267294 C195.575899,58.5220869 195.802083,57.4992435 195.705698,57.1696693 L193.976541,56.3027135 L194.453328,55.4184083 L193.119353,52.0080308 Z" id="path54" fill="#0B335E"></path>
                        <path d="M168.874534,55.781846 C173.350678,48.319549 173.354534,42.5120632 173.085297,36.6930111 C171.622807,38.4237099 171.719835,38.3390834 169.994534,39.618505 C171.15116,44.2344085 170.737988,49.3134767 168.874534,55.781846" id="path56" fill="#AA9B8D"></path>
                        <path d="M120.700399,60.4109222 C120.23582,61.1870186 119.713411,61.6069382 119.198712,61.8549061 C118.936543,61.9836772 118.676945,62.0695246 118.414134,62.1297976 C118.148752,62.1955326 117.889796,62.2376852 117.643049,62.2788739 L117.312126,62.3328498 L117.506182,62.9942474 L125.804334,62.9942474 L125.596141,62.2846571 L125.384736,62.2753398 C125.141202,62.2637735 124.787788,62.2409623 124.474214,62.1407856 C124.155499,62.0404161 123.953732,61.8875487 123.890117,61.6671471 C123.793089,61.3388579 123.896543,61.0777816 124.197266,60.5339101 L126.803531,55.7994524 L132.208189,60.8290427 C132.706824,61.2808981 132.973491,61.6498619 133.054455,61.9319503 C133.103932,62.092143 133.057025,62.1297976 132.958712,62.1792113 C132.893169,62.2108258 132.808993,62.2319021 132.712607,62.2470025 L132.455579,62.2753398 L132.089314,62.3049623 L132.289796,62.9942474 L138.577989,62.9942474 L138.367868,62.2833719 L138.154535,62.2753398 C137.1759,62.2299101 135.91839,62.153637 133.929635,60.3199985 L127.68835,54.5474685 L125.387306,46.7143442 C125.058953,45.5961434 124.994053,45.0630029 126.250921,44.9116776 L126.601121,44.8689467 L126.404495,44.193027 L120.060399,44.193027 L120.264093,44.8920792 L120.467146,44.9141836 C121.321121,45.000031 122.059435,45.2158704 122.565137,46.9334607 L124.586021,53.8240629 L120.700399,60.4109222 Z M146.636462,38.8285934 C145.52353,39.8539428 143.986502,40.3027139 142.306181,40.3027139 C137.180398,40.3027139 132.250599,36.1483686 130.970599,31.8022161 C129.767708,27.6955495 131.925459,23.6613649 137.188752,23.6613649 C139.220559,23.6613649 141.353249,24.2171239 142.290117,24.6137183 C142.678872,24.7776379 142.775257,24.9259432 142.984093,25.6377825 L143.782165,28.3554049 C144.098952,29.4412844 144.072607,29.5034852 142.877426,29.5253326 L142.482888,29.5338788 L142.695579,30.2452041 L148.927225,30.2452041 L148.714534,29.5313728 L148.496703,29.5253326 C147.289956,29.5034852 146.942968,29.2801278 146.629394,28.2121117 L145.31341,23.7256219 C142.400639,23.0072926 139.683209,22.3428749 136.524977,22.3428749 C129.204173,22.3428749 126.650599,26.911421 128.069394,31.7512603 C129.783129,37.5853485 136.614294,41.625252 142.405137,41.625252 C143.911964,41.625252 145.149555,41.3837741 146.156462,41.0662801 C147.159514,40.7505211 147.932526,40.3642078 148.523691,40.066505 L148.71839,39.9661355 L148.684976,39.7497179 C148.471643,38.4620713 148.471643,38.365493 148.458791,36.9799188 L148.454936,36.6817019 L147.795659,36.6817019 L147.730117,36.8938143 C147.435177,37.8609468 147.224414,38.2675653 146.636462,38.8285934 Z M154.966101,40.6689146 L154.634534,40.7236616 L154.829233,41.3837741 L168.143289,41.3837741 L167.281602,38.4578304 L166.608831,38.4578304 L166.617185,38.7613163 C166.625538,39.2632922 166.419916,39.508754 166.117907,39.6543605 C165.77863,39.8200151 165.303128,39.8657018 164.779434,39.8657018 L158.971241,39.8657018 L156.846904,32.6214932 L161.796622,32.6214932 C162.48353,32.6214932 163.284815,32.6433405 163.639514,33.4618466 L164.451723,33.6418305 L163.450598,30.228433 L162.685297,30.228433 L162.799032,30.6114691 C162.829875,30.7098466 162.849153,30.7944089 162.855578,30.8767864 C162.759835,31.1217342 162.518229,31.2976699 161.643048,31.2976699 L156.458149,31.2976699 L154.966101,26.2213648 C154.41349,24.3328508 154.645458,24.105895 156.411884,24.105895 L160.601442,24.105895 C162.572847,24.105895 163.048992,24.5655255 163.841924,25.351903 L164.618791,25.3423929 L164.457506,24.9894291 C163.773169,23.5200637 163.695418,23.3483689 163.472446,22.7766099 L163.39598,22.5863448 L149.31084,22.5863448 L149.510679,23.2693328 C151.191,23.539405 151.46345,24.1265215 151.870197,25.5138307 L155.754534,38.7406898 C156.171562,40.1681596 156.130438,40.4769147 154.966101,40.6689146 Z" id="path58" fill="#FFFFFF"></path>
                        <path d="M168.839193,0 L168.728028,1.66290116 C168.714534,1.87826501 168.728028,2.14156461 168.72096,2.41290275 L168.70104,2.41290275 C168.631,2.15512284 168.547466,1.86470678 168.465859,1.62248992 L167.888831,0.0353915493 L167.571401,0.0353915493 L167.009152,1.66290116 C166.940397,1.88654774 166.871,2.15512284 166.808671,2.41290275 L166.786823,2.41290275 C166.78104,2.14884493 166.786823,1.91365778 166.773329,1.66290116 L166.669233,0 L166.267626,0 L166.482887,2.75853487 L167.029715,2.75853487 L167.571401,1.26129475 C167.640156,1.05321122 167.69606,0.825047369 167.765458,0.568021833 L167.779594,0.568021833 C167.841924,0.825047369 167.90361,1.06727066 167.97365,1.26832447 L168.514695,2.75853487 L169.053168,2.75853487 L169.261361,0 L168.839193,0 Z M166.171883,2.75853487 L166.171883,2.40512123 L165.326261,2.40512123 L165.326261,0 L164.911161,0 L164.911161,2.40512123 L164.071321,2.40512123 L164.071321,2.75853487 L166.171883,2.75853487 Z" id="path60" fill="#AA9B8D" fill-rule="nonzero"></path>
                    </g>
                </g>
            </g>
        </g>
    </g>
</svg>