<?xml version="1.0" encoding="UTF-8"?>
<svg width="200px" height="200px" viewBox="0 0 200 200" version="1.1" xmlns="http://www.w3.org/2000/svg" xmlns:xlink="http://www.w3.org/1999/xlink">
    <!-- Generator: Sketch 51.3 (57544) - http://www.bohemiancoding.com/sketch -->
    <title>meredith</title>
    <desc>Created with Sketch.</desc>
    <defs></defs>
    <g id="meredith" stroke="none" stroke-width="1" fill="none" fill-rule="evenodd">
        <g id="meredith_BGL">
            <g id="meredith" transform="translate(1.000000, 0.000000)">
                <g id="g10" transform="translate(98.710863, 99.958258) scale(-1, 1) rotate(-180.000000) translate(-98.710863, -99.958258) translate(0.245549, 0.265197)" fill-rule="nonzero">
                    <g id="g12" transform="translate(0.441989, 0.000000)">
                        <path d="M117.770408,63.7112323 C118.349414,60.8265178 118.808591,58.5350507 119.097357,57.0956401 C117.566602,57.0956401 115.0895,57.0956401 114.82136,57.0956401 C115.862489,59.4214841 116.860402,61.6569659 117.770408,63.7112323 Z M83.2461612,63.7122145 C84.1571495,61.6579481 85.1545712,59.4219752 86.1961918,57.0956401 C85.9251053,57.0956401 83.4484939,57.0956401 81.91823,57.0956401 C81.9516247,57.2631048 82.6622447,60.8014718 83.2461612,63.7122145 Z M113.238548,131.09441 L112.915405,130.349905 C112.834865,130.164269 105.393736,113.027867 100.507794,101.338733 C95.6203782,113.027867 88.1782667,130.164269 88.0977265,130.349905 L87.7740923,131.09441 L49.9329638,131.09441 L49.9329638,101.233638 C49.9329638,101.233638 54.2610177,101.233638 56.0147316,101.233638 C55.5044799,98.6696108 47.601865,58.933823 47.2360455,57.0956401 C45.680048,57.0956401 38.8743023,57.0956401 38.8743023,57.0956401 L38.8743023,27.2348673 L86.8847124,27.2348673 C86.8847124,27.2348673 86.8847124,54.9736021 86.8847124,55.5589919 C92.6236932,42.7624299 99.2928152,28.1257697 99.3821952,27.9297231 L100.508285,25.4584647 L101.634374,27.9297231 C101.723263,28.1257697 108.389439,42.7535901 114.127928,55.5476966 C114.127928,54.9406984 114.127928,27.2348673 114.127928,27.2348673 L162.138731,27.2348673 L162.138731,57.0956401 C162.138731,57.0956401 155.336522,57.0956401 153.780721,57.0956401 C153.465926,58.6784516 145.541556,98.5046016 144.997909,101.233638 C146.753587,101.233638 151.086061,101.233638 151.086061,101.233638 L151.086061,131.09441 L113.238548,131.09441 Z" id="path14" fill="#FFFFFF"></path>
                        <path d="M51.1705328,129.856841 L51.1705328,102.471207 C51.1705328,102.471207 57.0298328,102.471207 57.522896,102.471207 C55.813381,93.8745219 49.4453026,61.8622452 48.2517852,55.8585621 C46.613725,55.8585621 40.1118222,55.8585621 40.1118222,55.8585621 L40.1118222,28.4720435 L85.6471433,28.4720435 L85.6471433,55.8585621 C85.6471433,55.8585621 80.4562288,55.8585621 80.4071189,55.8585621 C81.1054614,59.3330863 81.6147309,61.8622452 82.8017168,67.784897 C88.5519929,54.6784517 100.508285,28.4424793 100.508285,28.4424793 C100.508285,28.4424793 112.46605,54.6784517 118.215344,67.784897 C119.40233,61.8622452 119.910126,59.3330863 120.607977,55.8585621 C120.558867,55.8585621 115.365497,55.8585621 115.365497,55.8585621 L115.365497,28.4720435 L160.901162,28.4720435 L160.901162,55.8585621 C160.901162,55.8585621 154.403925,55.8585621 152.765128,55.8585621 C151.570285,61.8622452 145.201224,93.8745219 143.490236,102.471207 C143.987228,102.471207 149.848492,102.471207 149.848492,102.471207 L149.848492,129.856841 L114.050826,129.856841 C114.050826,129.856841 105.31958,109.758622 100.508285,98.1171246 C95.694043,109.758622 86.9627971,129.856841 86.9627971,129.856841 L51.1705328,129.856841" id="path16" fill="#211D1D"></path>
                        <path d="M149.696252,104.949291 C149.696252,104.949291 262.493302,56.7813368 135.298707,0.305018531 C135.298707,0.305018531 117.650089,24.4148797 85.6471433,28.5470343 L85.630446,28.9537132 C85.630446,28.9537132 126.213379,24.0005396 137.263103,7.30317968 C137.263103,7.30317968 247.432284,48.268679 151.177406,102.944626 L149.696252,104.949291" id="path18" fill="#FFFFFF"></path>
                        <path d="M91.77311,27.7332835 C118.420623,21.9118472 133.872065,2.56694898 135.377283,0.608500906 C175.458805,18.4338362 195.710738,37.2291212 195.573721,56.4753823 C195.468626,71.2815206 182.991278,83.6041722 172.542169,91.3340677 C162.972126,98.4142394 153.312212,103.038426 150.448124,104.344749 L151.343888,103.132226 C178.802205,87.5255963 192.072678,71.5074261 190.78649,55.5216683 C190.109756,47.111159 184.765618,34.1609322 163.150886,20.2269363 C150.253158,11.911651 137.47624,7.12034359 137.348554,7.07280523 L137.165865,7.00449338 L137.058315,7.16714531 C133.930506,11.8939715 126.217799,18.6774704 107.234865,24.1536151 C101.345608,25.8529153 95.783423,27.0098459 91.77311,27.7332835 Z M135.217676,0 L135.100795,0.160182685 C134.924981,0.400168928 117.141311,24.2332222 85.615713,28.3035966 L85.4104337,28.3300668 L85.3731102,29.232068 L85.6599119,29.1973473 C85.7615694,29.1845297 95.957272,27.9183787 107.371391,24.6257084 C126.281151,19.1704845 134.117124,12.38895 137.358867,7.60166955 C138.959849,8.21554307 150.873416,12.8947818 162.892568,20.6443703 C184.33296,34.4682128 189.62897,47.2629086 190.296864,55.5614474 C191.566846,71.3492923 178.364636,87.2191507 151.056104,102.730998 L150.979984,102.798279 L148.962059,105.52977 L149.792507,105.175197 C149.907424,105.126087 161.430076,100.164025 172.826515,91.7343132 C183.368442,83.9366462 195.957761,71.4907287 196.06482,56.479311 C196.203801,36.9914294 175.792752,18.0160585 135.398892,0.0805711459 L135.217676,0 Z" id="path20" fill="#8B1535"></path>
                        <path d="M46.4963033,195.061505 C46.4963033,195.061505 25.1220129,165.670714 111.750519,124.715528 C111.750519,124.715528 124.475381,117.135418 138.608222,110.53063 C179.277098,91.5251051 238.884217,52.3182307 136.63597,2.59553585 C136.63597,2.59553585 118.581213,24.7371878 85.630446,28.9537132 C85.630446,28.9537132 -8.24530366,25.8818901 4.12734182,104.316265 C4.12734182,104.316265 12.0330507,86.8611396 54.0218525,73.4786968 C54.0218525,73.4786968 -25.5089496,89.009697 19.5438178,164.186122 C19.5438178,164.186122 10.5875995,141.912335 42.4197902,124.000488 C42.4197902,124.000488 2.53702633,159.910616 46.4963033,195.061505" id="path22" fill="#8B1535"></path>
                        <path d="M33.4021846,80.9075486 L33.9502999,80.8554921 L34.8751372,80.6128893 L35.1453889,80.4385492 L35.0794344,80.168936 C35.0794344,80.168936 33.8971139,80.4144854 33.4021846,80.9075486" id="path24" fill="#8B1535"></path>
                        <path d="M23.9015341,158.929892 C23.8604782,156.146835 24.4946832,147.450457 27.6254382,141.741433 C19.2357515,154.182439 22.4608466,171.407239 22.4689006,171.452912 C22.4689006,171.452912 4.74581695,147.970039 4.09377031,124.061875 C3.8482209,115.05807 5.23943511,109.737996 7.69527298,103.108162 C3.95027614,108.162551 3.50022827,110.924982 3.50022827,110.924982 C3.50022827,110.924982 -0.653775306,97.2969896 0.492249957,85.7561673 C1.52202329,75.3851424 6.73286662,61.1491697 19.2481763,50.7211774 C19.2481763,50.7211774 5.40321656,65.6500904 5.40321656,85.7561673 C5.40321656,87.8629812 5.60697346,94.4201327 5.89431538,96.6831161 C8.73792489,94.2860627 11.050853,89.9305073 27.2571141,83.5462226 L30.3264817,82.4412502 L29.5898335,82.6867997 C14.4632532,92.0825023 10.3142048,104.011784 10.3142048,120.255859 C10.3142048,120.675749 10.3038917,123.023692 10.3142048,123.448002 C10.5501778,133.195822 14.4436583,145.608836 15.8390665,148.862366 C25.4011043,131.845792 39.6084459,125.560709 39.7801341,125.535172 L41.3762052,124.921298 L39.5345846,126.394595 C31.7372613,136.163533 29.7126082,145.173231 29.7126082,155.369425 C29.7126082,158.396067 30.370828,161.777774 31.06313,164.823078 C32.69623,172.004907 38.943007,180.087902 40.639557,182.502635 C43.9201462,169.415834 55.6881508,153.787596 77.2262719,141.250334 C93.9388558,131.521666 110.481029,125.309266 111.750519,124.715528 C111.750519,124.715528 96.2259031,133.556289 83.5697953,142.723631 C76.4336384,147.892446 71.5707778,152.652175 67.5270701,156.474398 C43.6272058,179.064943 49.233639,198.463347 49.233639,198.463347 C49.233639,198.463347 24.3118963,186.782561 23.9015341,158.929892" id="path26" fill="#FFFFFF"></path>
                        <path d="M3.49620126,110.014976 C2.63121418,106.875872 -0.229819024,95.5128276 0.736648232,85.7802311 C1.20185141,81.0941662 3.74270832,65.4526687 17.133603,52.9163891 C13.3103005,57.9192128 5.15766715,70.3901763 5.15766715,85.7561673 C5.15766715,87.797174 5.35410668,94.3798626 5.65073037,96.7140553 L5.70750139,97.1614463 L6.05259653,96.8702247 C6.55518707,96.4468975 7.03017785,95.9739694 7.58035586,95.4268853 C10.1404049,92.8785735 14.0091832,89.0288498 27.3470834,83.7740924 L27.5947446,83.6856947 C15.1781948,92.0653138 10.0686554,102.827253 10.0686554,120.255859 L10.0673294,120.846651 C10.0648248,121.700181 10.0607978,123.129279 10.0686554,123.453895 C10.2986861,132.947326 14.0767093,145.375564 15.6135048,148.959112 L15.8097479,149.416325 L16.0531856,148.982685 C25.6021602,131.989193 39.7160948,125.815589 39.8490352,125.770408 L39.9885073,125.716878 L39.3427614,126.241372 C32.4207727,134.913686 29.4670588,143.624797 29.4670588,155.369425 C29.4670588,158.488885 30.1528783,161.926577 30.823572,164.877098 C32.2991275,171.365496 37.5402814,178.623446 39.7782188,181.72277 C40.0402691,182.085201 40.2637682,182.394593 40.4387467,182.64358 L40.7472059,183.082623 L40.8776417,182.562058 C42.6314047,175.567338 49.6952719,157.560217 77.3500288,141.462489 C90.118107,134.029708 102.701532,128.686062 108.581458,126.278204 C103.417554,129.326455 92.6133801,135.869855 83.4259034,142.524736 C76.8771006,147.268259 72.1758116,151.727436 68.3977883,155.310984 L67.3586232,156.295638 C60.5185989,162.760954 51.8119079,173.143765 49.1776538,185.890726 C47.8926937,192.107546 48.5696734,196.541186 48.8748914,198.006134 C45.4698086,196.220498 24.5194346,184.201346 24.1470835,158.925963 C24.1087287,156.315773 24.7045789,147.578142 27.8408833,141.859297 L27.4219269,141.603925 C20.172277,152.35457 21.5181824,166.555183 22.066838,170.477098 C18.971393,166.102881 4.91367452,145.115773 4.33931972,124.055 C4.10048363,115.301655 5.41549403,109.969795 7.92550011,103.193613 L8.52439512,101.576916 L7.49790037,102.961814 C4.92671811,106.431919 3.89541058,108.823079 3.49620126,110.014976 Z M19.0908774,50.5325954 C3.56526449,63.4691206 0.743170024,80.7449949 0.247851682,85.7316123 C-0.889733557,97.1889478 3.22379366,110.859666 3.26523258,110.996682 L3.57024914,111.99656 L3.74251679,110.964761 C3.74654871,110.940206 4.14211408,108.728788 6.85023924,104.724368 C4.72087895,110.789439 3.62760949,115.980353 3.8482209,124.06826 C4.49489492,147.780475 22.09542,171.365496 22.2730504,171.600732 L22.8915403,172.420376 L22.7106194,171.409695 C22.5930504,170.770775 20.1707546,157.089253 25.763879,145.486061 C24.0024549,150.792875 23.6249472,156.829462 23.6559847,158.933329 L23.9015341,158.929892 L23.6559847,158.933329 C24.0638422,186.619517 48.8789184,198.567951 49.1294279,198.685323 L49.6196427,198.915158 L49.4698576,198.395084 C49.4561068,198.346956 48.1014107,193.490971 49.6653149,185.956042 C52.2823805,173.348553 60.9154067,163.061997 67.6960081,156.652666 L68.7356643,155.667522 C72.5028834,152.094287 77.1914038,147.646896 83.7141784,142.922034 C96.2136256,133.868137 111.717124,125.017063 111.872312,124.928665 L111.646406,124.49306 C111.473539,124.574091 110.988334,124.77004 110.254141,125.067646 C105.609328,126.948554 91.4750131,132.671329 77.1030061,141.037688 C49.9354193,156.852544 42.5134428,174.541923 40.534069,181.930996 C40.4248977,181.778755 40.3054134,181.613746 40.1764999,181.434986 C37.9558002,178.360217 32.7557021,171.158743 31.3027371,164.768566 C30.6378384,161.844072 29.9581576,158.440757 29.9581576,155.369425 C29.9581576,143.599751 32.7831545,135.254017 39.7095632,126.568935 L42.7666533,124.123263 L39.6919327,125.305829 L39.6940444,125.311231 C38.7661132,125.690359 25.2975316,131.844809 15.8737872,148.303004 C14.248201,144.237688 10.7790298,132.496007 10.5597542,123.441618 C10.5518966,123.123877 10.5559236,121.69969 10.5584282,120.848125 L10.5597542,120.255859 C10.5597542,102.215344 16.0846159,91.3998749 29.6226389,82.9549396 L30.4097721,82.6720667 L30.2487899,82.2079783 L29.4603799,82.4780827 C29.4427003,82.4888868 29.4248734,82.5001821 29.4074394,82.5109863 L27.1738729,83.314915 C13.734659,88.6089603 9.82276219,92.5023918 7.23393475,95.0786962 C6.82244305,95.4882726 6.45313673,95.8556145 6.08618769,96.1885795 C5.8302761,93.6279903 5.64876597,87.7269469 5.64876597,85.7561673 C5.64876597,65.9751979 19.2904108,51.0364628 19.4283114,50.888151 L19.0908774,50.5325954 Z" id="path28" fill="#8B1535"></path>
                        <path d="M111.750519,124.715528 C39.9890475,159.88115 46.5131971,194.580228 46.5131971,194.580228 C9.4411784,167.464207 33.1646892,132.775933 33.1646892,132.775933 C16.7965619,147.500058 19.967587,164.98514 19.967587,164.98514 C-1.98703003,126.92449 5.48552472,104.895762 16.3163655,92.8771002 C11.5559973,96.7675851 7.01274384,101.282748 4.13041119,106.058684 C4.13041119,106.058684 -4.65699681,71.7176164 19.0722647,50.5605881 C19.0722647,50.5605881 3.34196677,67.0497221 7.43670945,92.6295864 C7.43670945,92.6295864 13.9090481,85.118721 35.9580102,79.9494148 C35.9580102,79.9494148 35.4703981,80.1993841 34.6144129,80.6674013 C-3.65446768,104.43462 16.8137995,144.413011 16.8137995,144.413011 C26.1038176,126.163778 43.3653519,123.59042 43.3653519,123.59042 C18.4917859,154.754078 40.3633139,180.198891 40.3633139,180.198891 C46.2766839,147.740696 111.750519,124.715528 111.750519,124.715528" id="path30" fill="#211D1D"></path>
                        <path d="M39.0768805,167.762304 C39.0768805,167.762304 42.4015705,147.661138 114.770286,120.588333 C114.770286,120.588333 260.099687,62.4692434 138.571881,11.2309881 C138.571881,11.2309881 124.634005,24.6683358 84.7499058,29.1001098 C84.7499058,29.1001098 11.03612,29.1098826 11.8333699,83.3350501 C11.8333699,83.3350501 19.4089621,76.9556764 47.1198024,76.9556764 C47.1198024,76.9556764 9.96203781,89.6245527 17.6816693,132.510248 C17.6816693,132.510248 25.6554935,121.346099 49.8440749,120.017185 C49.8440749,120.017185 30.1743884,138.889622 39.0768805,167.762304" id="path32" fill="#FFFFFF"></path>
                        <path d="M149.390297,102.673048 C149.390297,102.673048 225.415832,58.6195197 138.571881,11.2309881 C138.571881,11.2309881 244.683112,48.7799128 149.390297,102.673048" id="path34" fill="#211D1D"></path>
                        <path d="M51.1705328,129.856841 L51.1705328,102.471207 C51.1705328,102.471207 57.0298328,102.471207 57.522896,102.471207 C55.813381,93.8745219 49.4453026,61.8622452 48.2517852,55.8585621 C46.613725,55.8585621 40.1118222,55.8585621 40.1118222,55.8585621 L40.1118222,28.4720435 L85.6471433,28.4720435 L85.6471433,55.8585621 C85.6471433,55.8585621 80.4562288,55.8585621 80.4071189,55.8585621 C81.1054614,59.3330863 81.6147309,61.8622452 82.8017168,67.784897 C88.5519929,54.6784517 100.508285,28.4424793 100.508285,28.4424793 C100.508285,28.4424793 112.46605,54.6784517 118.215344,67.784897 C119.40233,61.8622452 119.910126,59.3330863 120.607977,55.8585621 C120.558867,55.8585621 115.365497,55.8585621 115.365497,55.8585621 L115.365497,28.4720435 L160.901162,28.4720435 L160.901162,55.8585621 C160.901162,55.8585621 154.403925,55.8585621 152.765128,55.8585621 C151.570285,61.8622452 145.201224,93.8745219 143.490236,102.471207 C143.987228,102.471207 149.848492,102.471207 149.848492,102.471207 L149.848492,129.856841 L114.050826,129.856841 C114.050826,129.856841 105.31958,109.758622 100.508285,98.1171246 C95.694043,109.758622 86.9627971,129.856841 86.9627971,129.856841 L51.1705328,129.856841" id="path36" fill="#211D1D"></path>
                        <path d="M117.289132,125.017063 C117.289132,125.017063 103.960218,93.7969283 100.508285,85.4453017 C97.0568423,93.7969283 83.7284203,125.017063 83.7284203,125.017063 L56.0063829,125.017063 L56.0063829,107.309512 C56.0063829,107.309512 61.0902379,107.309512 63.4249217,107.309512 C62.4112937,102.238426 52.9144247,54.4928163 52.2205021,51.0148545 C50.2197655,51.0148545 44.9501278,51.0148545 44.9501278,51.0148545 L44.9501278,33.3106928 L80.8093289,33.3106928 L80.8093289,51.0148545 C80.8093289,51.0148545 76.4066279,51.0148545 74.5070577,51.0148545 C75.3271927,55.1184762 79.184774,74.3557992 81.0725578,83.7716369 C85.506198,73.6682609 100.508285,40.4895754 100.508285,40.4895754 C100.508285,40.4895754 115.508898,73.6682609 119.939592,83.7716369 C121.832778,74.3557992 125.689868,55.1184762 126.510003,51.0148545 C124.60454,51.0148545 120.207732,51.0148545 120.207732,51.0148545 L120.207732,33.3106928 L156.060892,33.3106928 L156.060892,51.0148545 C156.060892,51.0148545 150.793366,51.0148545 148.79705,51.0148545 C148.099198,54.4928163 138.603311,102.238426 137.599014,107.309512 C139.926823,107.309512 145.009204,107.309512 145.009204,107.309512 L145.009204,125.017063 L117.289132,125.017063" id="path38" fill="#FFFFFF"></path>
                        <polyline id="path40" fill="#8B1535" points="146.808099 48.6001707 134.64751 109.728174 142.591034 109.728174 142.591034 122.599383 118.905829 122.599383 100.508285 79.1096358 82.1117229 122.599383 58.4260268 122.599383 58.4260268 109.728174 66.3670947 109.728174 54.2074879 48.6001707 47.3697226 48.6001707 47.3697226 35.7324485 78.3877206 35.7324485 78.3877206 48.6001707 71.5521161 48.6001707 80.2101883 91.7701635 100.508285 46.514916 120.807363 91.7701635 129.463962 48.6001707 122.625902 48.6001707 122.625902 35.7324485 153.645177 35.7324485 153.645177 48.6001707 146.808099 48.6001707"></polyline>
                    </g>
                </g>
            </g>
        </g>
    </g>
</svg>