<?xml version="1.0" encoding="UTF-8"?>
<svg width="200px" height="200px" viewBox="0 0 200 200" version="1.1" xmlns="http://www.w3.org/2000/svg" xmlns:xlink="http://www.w3.org/1999/xlink">
    <!-- Generator: Sketch 51.3 (57544) - http://www.bohemiancoding.com/sketch -->
    <title>merrimack</title>
    <desc>Created with Sketch.</desc>
    <defs></defs>
    <g id="merrimack" stroke="none" stroke-width="1" fill="none" fill-rule="evenodd">
        <g id="merrimack_BGL" transform="translate(0.000000, 25.870647)">
            <g id="merrimack">
                <g id="g10" transform="translate(99.880523, 74.803580) scale(-1, 1) rotate(-180.000000) translate(-99.880523, -74.803580) translate(0.000000, 0.033234)" fill-rule="nonzero">
                    <g id="g12">
                        <path d="M199.751488,134.316975 L138.603103,115.219442 L149.804058,149.217875 L91.6281936,130.998596 C91.6281936,130.998596 89.7691734,127.999712 89.1732355,127.037904 C89.1311806,128.438365 89.0776561,130.199622 89.0776561,130.199622 L37.5748617,114.068216 L0,0 L12.1589483,5.19257506 C25.7691272,11.0228581 60.3617667,25.8397297 84.0597351,34.7129522 C84.3163659,29.736238 85.9698903,25.4030234 89.0188747,21.8309947 C91.4700097,18.957962 98.2422915,12.9358871 110.414334,15.053858 C110.440141,14.993567 113.703701,15.7032444 113.703701,15.7032444 C114.912781,16.0843595 155.816484,27.1798992 155.816484,27.1798992 L171.60812,75.2203926 C171.60812,75.2203926 151.802625,69.8606643 144.281956,67.8254867 C145.213855,70.670083 145.743843,72.2855972 146.160092,73.5569304 C149.258778,74.5277581 173.873353,82.2374116 173.873353,82.2374116 L186.259971,119.922616 L196.969171,123.163139 L199.751488,134.316975" id="path14" fill="#FFFFFF"></path>
                        <path d="M171.02413,85.0957751 C171.555551,86.7127135 182.437749,119.820073 184.409075,125.814994 C179.267379,124.204227 147.448503,114.238645 133.001191,109.713971 C138.57204,126.625362 143.354835,141.142203 144.201669,143.712878 C137.72186,141.684347 95.3056129,128.399911 93.9904397,127.987844 C93.3170825,126.901181 85.9350038,114.990146 85.9350038,114.990146 C85.9350038,114.990146 85.6745498,123.606064 85.6215032,125.366846 C81.097728,123.950245 42.2405246,111.779057 40.4218867,111.209378 C39.7830814,109.269147 7.60716827,11.5904956 5.90145744,6.4137291 C12.7031299,9.28248926 60.6083617,30.0894863 87.9139763,39.9472562 C87.7142153,38.6118816 87.6076442,37.3167642 87.6076442,36.0744846 C87.6076442,31.3902055 89.0064494,27.3764858 91.7648723,24.144413 C93.9732354,21.5561722 100.422937,15.8926151 112.571562,19.1806589 C112.571562,19.1806589 148.854954,29.0028239 152.996412,30.1236196 C153.534046,31.7592149 164.211704,64.2431563 166.11278,70.0263459 C160.625563,68.5409083 138.794262,62.6323894 138.794262,62.6323894 L143.309435,76.4148192 C143.309435,76.4148192 169.163198,84.5118543 171.02413,85.0957751" id="path16" fill="#0B335E"></path>
                        <path d="M165.903461,90.2338034 L174.347427,115.921097 L127.823175,101.350611 C126.042052,100.792801 124.345039,100.084975 122.739304,99.2390015 L134.130463,133.816608 L98.2379904,122.575895 C98.2379904,122.575895 86.7369154,104.019082 80.1075249,93.3214627 C79.8413361,102.167625 79.4054938,116.677345 79.4054938,116.677345 L45.5394971,106.069451 L16.4848264,17.8651281 L42.7193299,28.9358867 L49.5651123,49.6574794 L50.0912771,32.0325658 L70.2623638,40.0637081 L76.870249,50.7075873 L73.847071,41.5339067 L97.6669032,50.4716453 C97.6669032,50.4716453 96.2556726,46.1625472 95.4752664,43.7788686 C93.2654696,37.0552817 93.677417,31.8469455 96.7029844,28.3016442 C98.8387072,25.7992825 103.030344,23.262835 110.869292,25.3844614 L147.9264,35.4156036 L156.233688,60.687411 C156.233688,60.687411 136.279566,55.2873304 128.929029,53.2972523 C131.518754,61.2015461 137.563198,79.6529686 138.184943,81.5523728 C140.853521,82.3883765 165.903461,90.2338034 165.903461,90.2338034" id="path18" fill="#FAB20B"></path>
                        <path d="M135.66977,84.3129415 L163.209076,92.9383537 L169.05137,110.714232 L128.847309,98.122431 C123.604776,96.4808065 119.168456,93.3684612 115.804059,89.0678608 L128.829626,128.608319 L100.473116,119.727026 C100.473116,119.727026 82.4047769,90.5737118 77.0418141,81.9202904 C76.7789706,90.6472953 76.1342872,112.104248 76.1342872,112.104248 L48.2332127,103.3649 L22.0551488,23.8927574 L39.9707039,31.4534398 C39.9707039,31.4534398 47.8833919,55.4325985 52.3913965,69.1177082 C52.7479079,57.2194911 53.35197,36.9773781 53.35197,36.9773781 L67.9588991,42.7924697 C67.9588991,42.7924697 80.5189944,63.0596485 89.0853024,76.8966726 C85.0680982,64.7050709 79.3046575,47.2169752 79.3046575,47.2169752 C79.3046575,47.2169752 102.839185,56.004651 103.091993,56.0967491 C100.720667,48.8556564 98.7154097,42.7316565 98.7154097,42.7316565 C96.8960549,37.1971317 97.0934265,33.0784487 99.3013117,30.4896857 C101.477178,27.9408002 105.068576,27.3217967 109.974191,28.6491483 L145.257822,38.2012856 L151.033688,55.7729816 L123.737153,48.3851966 L135.66977,84.3129415" id="path20" fill="#FFFFFF"></path>
                        <path d="M129.461407,96.1859977 C121.502984,93.6931781 115.537393,87.506466 112.665708,78.7656939 C112.664274,78.7614213 100.659018,42.1039179 100.659018,42.1039179 C99.0747884,37.283533 99.1431277,33.816705 100.861168,31.8037448 C102.478373,29.9096102 105.363438,29.5060877 109.437034,30.6089384 L143.656866,39.8723435 L147.914453,52.8234694 C147.914453,52.8234694 121.5221,45.6801717 120.621741,45.4376309 C121.666903,48.6268354 133.406448,84.4620074 133.406448,84.4620074 C133.851371,85.8159441 134.277177,86.0053623 135.05376,86.2489 L161.591872,94.5609889 L165.874787,107.590493 L129.461407,96.1859977" id="path22" fill="#0B335E"></path>
                        <path d="M101.813618,118.017989 C101.813618,118.017989 81.3524472,85.0036771 75.2019097,75.0784476 C74.9897233,82.1495861 74.9906791,82.1296474 74.1720412,109.360295 L49.849939,101.742265 L25.3974187,27.5097907 L38.3213849,32.9634685 C38.3213849,32.9634685 48.952448,65.2082872 54.0884096,80.7937505 C54.5037023,66.8940618 55.3089592,39.9435533 55.3089592,39.9435533 L66.5768203,44.4297741 C66.5768203,44.4297741 85.706091,75.3143896 96.4143345,92.6098389 C91.1718018,76.7020323 82.5792094,50.6259334 82.5792094,50.6259334 L103.559854,58.4324323 L125.648742,125.482681 L101.813618,118.017989" id="path24" fill="#0B335E"></path>
                        <path d="M130.076938,94.2490897 C130.076938,94.2490897 153.430343,99.4345913 159.516364,101.340167 C158.837272,99.2731823 157.575145,95.4321228 157.575145,95.4321228 L159.975145,96.1836241 L162.69677,104.465805 L130.076938,94.2490897" id="path26" fill="#647AA5"></path>
                        <path d="M103.156031,116.308953 C103.053761,116.145645 115.005015,117.891711 119.288886,119.232355 C117.347667,113.340451 99.4752663,59.0923102 99.4752663,59.0923102 L101.925445,59.9985743 C101.925445,59.9985743 120.296293,115.761587 122.469292,122.357518 C117.297966,120.738681 104.297249,116.666901 103.156031,116.308953" id="path28" fill="#647AA5"></path>
                        <path d="M51.0566295,84.9334167 L34.1780637,33.4207782 C35.34571,33.9138827 36.2485057,34.2945706 36.672066,34.4731649 C36.7869047,34.8173459 51.0188757,78.0056474 51.0188757,78.0056474 L51.0566295,84.9334167" id="path30" fill="#647AA5"></path>
                        <path d="M70.2465932,103.872864 L71.2176804,68.6800049 L73.1923518,71.7771588 L72.2093172,106.616817 C72.2093172,106.616817 53.1039413,100.632341 51.4657096,100.118681 C51.4026271,99.9278382 70.2465932,103.872864 70.2465932,103.872864" id="path32" fill="#647AA5"></path>
                        <path d="M95.146951,98.3446058 L62.1146938,44.8403226 C62.9022684,45.1537409 64.9338096,45.9622576 65.1947415,46.0670311 C65.3462349,46.3086698 92.4621243,90.1027773 92.4621243,90.1027773 L95.146951,98.3446058" id="path34" fill="#647AA5"></path>
                        <path d="M119.918754,43.1418727 L141.614333,46.7507406 L139.692709,40.9033672 C139.692709,40.9033672 141.77873,41.4684411 142.056388,41.5433539 C142.460689,42.7752369 143.698443,46.5438048 144.794262,49.8749068 C140.429626,48.6937727 125.739543,44.717367 119.918754,43.1418727" id="path36" fill="#647AA5"></path>
                        <path d="M118.260929,44.7952705 C118.260929,44.7952705 131.472398,85.1152392 131.477177,85.1290064 C130.951968,84.9661732 129.165588,84.6571224 128.282434,81.96539 L115.89486,44.1552839 L118.260929,44.7952705" id="path38" fill="#647AA5"></path>
                        <path d="M192.562958,126.68233 L193.670724,128.737446 L194.730222,129.058365 L193.965587,125.993493 L193.231058,125.770844 L193.752922,127.86109 L193.738585,127.857292 L192.539063,125.561487 L191.978012,125.392007 L191.820784,127.276695 L191.806447,127.272422 L191.286017,125.182175 L190.551967,124.960001 L191.315646,128.025348 L192.375145,128.345317 L192.562958,126.68233 Z M190.618394,127.229221 L189.822217,126.988057 L189.215766,124.556003 L188.440139,124.321486 L189.04659,126.75354 L188.257104,126.514274 L188.41481,127.147093 L190.7761,127.86204 L190.618394,127.229221 Z" id="path40" fill="#0B335E"></path>
                    </g>
                </g>
            </g>
        </g>
    </g>
</svg>