<?xml version="1.0" encoding="UTF-8"?>
<svg width="200px" height="200px" viewBox="0 0 200 200" version="1.1" xmlns="http://www.w3.org/2000/svg" xmlns:xlink="http://www.w3.org/1999/xlink">
    <!-- Generator: Sketch 51.3 (57544) - http://www.bohemiancoding.com/sketch -->
    <title>miles</title>
    <desc>Created with Sketch.</desc>
    <defs></defs>
    <g id="miles" stroke="none" stroke-width="1" fill="none" fill-rule="evenodd">
        <g id="miles_BGL" transform="translate(3.846154, 0.000000)">
            <g id="miles">
                <g id="g10" transform="translate(96.126944, 100.220705) scale(-1, 1) rotate(-180.000000) translate(-96.126944, -100.220705) translate(0.214091, 0.295919)" fill-rule="nonzero">
                    <g id="g12" transform="translate(0.385364, 0.343089)">
                        <path d="M138.707112,46.4628815 C136.7075,44.4159244 135.600649,42.0181584 135.221279,39.1259148 C134.690333,35.0817485 132.62735,31.6572017 129.914815,28.705089 C128.491109,27.154668 126.520613,26.3115258 124.34716,26.3651335 C122.982114,26.3986276 122.395933,26.0019305 122.513255,24.5347516 C122.711075,22.070126 121.999007,20.011075 120.037504,18.2497398 C117.635829,16.0935516 117.654241,14.8201753 119.544238,12.1197187 C120.112436,11.3068541 120.788964,10.5560459 121.496321,9.85914555 C122.302161,9.06575132 122.102199,8.14318393 121.921078,7.25411065 C121.736103,6.34380871 120.875885,6.44364772 120.191221,6.32922741 C118.034039,5.96971261 115.862726,5.40751775 113.87596,6.93902593 C113.676427,7.09247266 113.256808,7.18862346 113.061129,7.08393831 C110.845285,5.89517644 108.438043,7.19196858 106.118579,6.42001744 C103.207367,5.45121876 102.159605,6.47281032 102.323171,9.51987302 C102.380547,10.5906979 101.954506,11.403348 101.16194,12.1458364 C99.0775485,14.0979722 98.6352361,16.7882648 99.6748629,19.508835 C100.204953,20.8954308 100.624571,22.2854146 101.436833,23.5771891 C103.412467,26.7180867 103.334109,26.9291725 100.974825,29.8226598 C100.017837,30.2372833 99.9566069,31.3077651 99.3768479,32.0492242 C98.766688,31.3987267 98.5513123,30.5594014 98.1329781,29.8385706 C97.017563,27.918385 96.2070138,27.8619468 95.2072079,29.788308 C94.1560202,31.813822 92.9673859,33.7665153 91.9748592,35.8168175 C90.1747805,39.5366785 88.1319223,43.1254794 86.2355026,46.8158347 C85.3568724,46.7073327 84.8049453,45.8277372 83.8916323,45.8620462 C79.6915913,42.5263595 77.3442955,43.8901399 75.3202774,47.4887188 C74.718253,48.5591577 74.7139712,49.6518974 75.9569846,50.3925417 C76.7435557,50.2128486 76.8420376,48.837489 78.0088346,49.2642064 C79.0120659,49.6313121 79.1302442,50.438001 79.2364335,51.3098769 C79.324639,52.0307935 79.4518092,52.8490617 80.341144,52.9082447 C81.1225768,52.9605658 81.3156871,52.221637 81.5062282,51.5972143 C82.1189572,49.5858527 83.2039714,50.9564949 83.6081755,51.5221635 C84.7278724,53.0883666 85.4365143,55.131464 87.6172471,52.500826 C88.0980959,51.9210049 88.9403307,52.5252711 89.2524756,53.2967934 C89.4943987,53.8946267 89.4233204,54.5820921 89.715769,55.1576245 C90.1820596,56.0758175 91.0144461,56.3734476 91.4336367,55.3467525 C92.1242948,53.6536064 93.1099707,52.7993138 94.9729922,52.9974479 C96.6690226,53.1775698 97.416629,53.7338035 98.6874743,56.1045513 C97.9835425,55.5307342 97.6850994,54.8685717 97.1250368,54.4637262 C96.4228177,53.9568116 95.7146041,53.9100657 95.3575,54.7540656 C94.9545803,55.7065676 93.9153817,56.3421407 93.7269815,57.1921446 C93.2525554,59.3343091 91.732508,58.4761567 90.5443019,58.6073884 C89.8108254,58.6888721 90.1165477,58.0292828 89.9756757,57.7093519 C89.1959556,55.9360086 88.2693689,55.736159 86.9741172,57.0892178 C85.6095,58.5147543 85.5542644,58.5036039 84.9689391,56.6341955 C84.8413408,56.226348 84.757417,55.8030614 84.5917104,55.4085086 C83.9477242,53.8783299 83.217245,53.713647 81.7824059,54.6601449 C80.9954067,55.1790676 80.4580378,56.601602 79.3833,56.0466549 C78.2520422,55.4625452 78.6408318,54.0224275 78.5350707,52.913391 C78.4682743,52.2134886 78.5783171,51.3763505 77.8003098,51.0375497 C77.0347197,50.7043242 76.4511071,51.2078078 75.9651201,51.7764785 C73.3806113,51.6967102 71.9038102,49.4130214 69.6686982,48.5745967 C68.6474833,48.1916232 68.9549182,46.8235542 68.9489237,45.8406031 C68.9429291,44.7624447 68.775938,43.982774 67.3655052,44.3606012 C65.9126824,44.7495788 65.9259561,43.551768 65.8052086,42.6828941 C65.6026784,41.2290528 66.8396973,39.2983172 64.1999529,38.6545099 C63.9070762,38.5829758 63.0066086,36.8593375 62.9081267,35.7241834 C62.4075815,29.9568506 59.4068794,25.5032072 55.4705988,21.5692155 C54.3915792,20.4905424 53.6366937,19.405994 53.9325677,17.820535 C54.4335411,15.1354745 54.4249774,12.436476 54.2301544,9.72109495 C54.1479434,8.57118796 54.440392,7.47759051 55.1267683,6.4843467 C56.2344762,4.88267674 55.9304667,2.39862374 54.5705594,1.03781111 C54.240859,0.70762188 53.9111586,0.480290846 53.4534316,0.584156872 C49.5698174,1.46331916 45.5590331,0.384298721 41.6668553,1.43149762 C38.9419027,2.16489409 36.3008738,1.33717806 33.7404288,0.416463352 C32.2637134,-0.114420314 30.8337983,-0.110230334 29.3597805,0.361183073 C27.4091957,0.985043966 26.378732,2.22321929 26.5929516,4.34273981 C26.5941505,6.45788593 25.3559327,6.79998895 23.5225843,6.77382838 C17.6743837,6.69024323 11.8241707,6.7142166 5.97498535,6.75508712 C2.95193213,6.77567249 2.435116,7.26285943 2.42406889,10.2214908 C2.38493302,20.6522233 2.38643166,31.0842853 2.42325535,41.5155324 C2.43361736,44.4896886 2.92821082,44.9271276 5.96997561,44.9743024 C8.03826777,45.0060381 10.1078017,45.0038938 12.17558,44.9807353 C13.6802557,44.9640097 14.4476441,45.5725645 14.3865853,47.1336213 C14.3614938,47.7747696 14.3951062,48.4189199 14.3951062,49.0622125 C14.39562,84.2142944 14.3957913,119.366805 14.3949777,154.518887 C14.3949777,158.553618 14.3922802,158.548043 10.4270973,158.560909 C8.57285347,158.566913 6.71860968,158.525313 4.86423744,158.605082 C3.31040641,158.671984 2.51792647,159.459803 2.45468393,161.011854 C2.43443091,161.511478 2.40951069,162.011102 2.40938224,162.511154 C2.40450096,172.656737 2.39362513,182.802319 2.41503424,192.947901 C2.42205644,196.381797 2.82416251,196.787072 6.22739886,196.790931 C20.8509831,196.807657 35.47491,196.757909 50.0981945,196.836391 C52.6741397,196.850543 54.2511354,195.899757 55.226963,193.559887 C57.2895175,188.614253 59.9575219,183.948238 62.040201,179.010752 C62.8503221,177.089452 63.9610271,175.678068 66.2839165,175.836318 C68.5926759,179.137695 71.788201,181.491289 74.8608377,183.992839 C76.3342133,185.191937 77.6161913,186.628195 78.984234,187.957237 C79.2077452,188.049442 79.3734518,187.986829 79.4809256,187.771111 C79.1225369,185.686414 77.9600218,184.13951 76.2374441,182.987587 C74.0922504,181.552187 72.1093378,179.927659 70.3734864,178.012362 C70.0493524,177.654691 69.5505199,177.322324 69.7594729,176.746362 C69.9637159,176.183267 70.5417621,176.160537 71.0277491,176.139523 C72.8804942,176.060183 74.694703,175.664773 76.56115,175.622744 C79.1597888,175.564419 81.46341,176.180265 83.6295846,177.627673 C85.7850547,179.067791 86.560493,178.793748 88.5498283,177.182515 C91.0589771,175.150139 92.7494411,172.769956 92.9468332,169.463003 C92.9810878,168.892617 93.1857589,168.281918 92.9588223,167.765997 C91.9868483,165.559075 93.2735363,164.712073 95.026515,163.962422 C100.301294,161.707467 103.137146,157.408128 103.956687,151.97831 C104.503476,148.359574 104.392576,144.592882 103.345242,140.971144 C103.245904,140.627197 103.197947,140.206484 102.947889,139.986907 C101.295961,138.534781 99.6757192,137.094663 99.6294755,134.629995 C99.6230528,134.28133 99.0732666,133.973407 98.8000863,134.129942 C97.1832696,135.057999 97.1807005,133.540257 96.8244528,132.788462 C96.3072085,131.697867 96.1436428,130.459314 95.5964257,129.365717 C95.2774299,128.727141 95.0166668,128.041392 94.4617424,127.566213 C93.8430189,127.03614 92.8098148,126.931926 92.761002,125.832325 C92.7006283,124.478408 92.7502975,123.188821 93.1968917,121.839622 C93.9804654,119.471018 95.0492086,117.28897 96.2446938,115.108208 C97.4144881,112.972905 97.0004357,110.334119 98.1107126,107.70777 C98.3736166,110.48808 99.2492496,112.794499 99.7840494,115.185403 C100.068362,116.459122 99.7763421,117.746994 99.3854116,118.98426 C99.1700358,119.667008 98.7401407,120.40851 99.0064702,121.057378 C99.914645,123.266016 99.2274123,125.232347 98.3273729,127.208971 C98.1805064,127.531475 98.1346909,127.897723 98.1137099,128.255394 C98.0751735,128.90469 97.994247,129.720814 98.6313824,129.994428 C99.4406471,130.342664 99.9369105,129.5943 100.280313,128.978454 C101.604253,126.605134 102.934187,124.241248 102.57537,121.330992 C102.455479,120.362193 102.41994,119.340644 102.830995,117.894523 C103.53664,119.265165 103.306706,120.492138 103.711766,121.532986 C104.977045,124.781185 106.667509,127.885286 107.145361,131.412245 C107.201881,131.832101 107.42111,132.225796 107.690009,132.565883 C108.112197,133.100245 108.603322,133.523531 109.32695,133.128121 C109.916557,132.806474 110.054432,132.248525 109.850617,131.651979 C109.50122,130.63043 109.433996,129.544552 109.116284,128.525576 C107.614649,123.706457 106.460697,118.78098 104.589112,114.072507 C104.058166,112.736174 102.794171,111.854434 102.434926,110.191308 C103.657815,110.152282 104.19861,110.949536 104.600245,111.685462 C106.096314,114.426318 107.979032,116.996915 108.499702,120.191506 C108.590905,120.753744 108.741625,121.315982 109.05377,121.804884 C109.246024,122.106803 109.502077,122.385134 109.907137,122.343963 C110.341742,122.299362 110.410251,121.909097 110.545129,121.585736 C112.188921,117.652216 111.017842,114.359844 108.253069,111.420855 C107.707564,110.840605 107.417257,110.095672 107.054586,109.400487 C106.327104,108.006257 106.328817,108.003255 104.29281,107.362107 C103.810676,107.210719 103.977668,106.780571 103.931852,106.478652 C103.694639,104.913735 103.358088,103.371549 102.56124,101.99576 C102.128348,101.247396 101.658632,100.257155 100.458437,101.072421 C100.478989,100.744341 100.708923,100.477161 100.894326,100.255439 C102.312894,98.5580043 103.245048,96.9510593 100.47642,95.6215879 C100.191251,95.4843522 100.055517,95.0404803 99.9865796,94.6922445 C99.9189268,94.3478685 99.4355089,93.9567466 100.067934,93.6363869 C100.524377,93.4056593 100.883622,93.1856532 101.294249,93.7740515 C101.741699,94.4151998 102.290629,94.9718624 102.536834,95.7519619 C102.805304,96.6028236 103.434304,97.1989414 104.31165,96.8236874 C105.746917,96.2099862 106.024808,97.1796426 106.444426,98.1115592 C107.440378,100.322342 108.548943,102.488951 108.982263,104.910304 C109.007098,105.050113 109.054626,105.188207 109.112859,105.318152 C109.537188,106.265508 109.784249,107.787109 111.079072,107.418288 C112.44112,107.030597 111.846803,105.63551 111.518387,104.653416 C111.031972,103.196144 110.969458,101.716142 111.087208,100.196256 C110.905658,101.235817 111.380513,102.093112 111.824966,102.943973 C112.782382,104.776071 113.061557,106.627896 112.732284,108.731034 C112.108851,112.713444 112.896278,116.706147 113.100521,120.692417 C113.159182,121.837478 113.25167,122.958951 113.068408,124.099294 C112.583277,127.114192 113.624617,130.033026 113.655446,133.024765 C113.691413,136.577027 114.383356,140.115136 113.903791,143.683266 C113.846415,144.107839 113.866111,144.543134 113.950035,144.964705 C114.048945,145.459611 114.160701,145.984538 114.771289,146.083176 C115.250425,146.1608 115.613095,145.857595 115.839176,145.498638 C116.962298,143.713715 118.489197,142.068173 117.426876,139.632667 C116.819713,138.240153 117.478258,136.814187 117.729173,135.422531 C118.04089,133.696791 118.146222,132.022944 116.973003,130.511635 C116.746494,130.515066 117.240617,130.191704 117.074482,130.424147 C116.954163,130.59269 117.00426,130.585828 117.169967,130.626999 C117.90173,130.808408 118.329484,130.173263 118.930653,129.99357 C120.565881,129.50381 120.685344,129.005902 119.6333,127.605668 C119.217535,127.052008 118.540578,126.641587 118.74525,125.784292 C119.873938,126.128668 120.829213,128.022951 122.159576,126.257756 C122.78515,125.427908 121.543421,123.152797 120.210918,122.446032 C119.976702,122.322091 119.668411,122.289498 119.596904,121.926681 C120.94782,122.272343 121.757513,123.145935 122.243071,124.407646 C122.575769,125.271374 122.857513,126.219158 123.60512,126.80627 C125.089628,127.971916 124.674719,129.2139 124.00076,130.605556 C121.131082,136.528566 119.366114,142.702888 119.97713,149.376406 C120.044355,150.106328 120.056344,150.775353 119.627305,151.427223 C118.242992,153.529503 117.44486,155.737283 118.331625,158.299303 C118.633494,159.172037 118.116678,160.151128 118.473782,161.055598 C118.689158,161.601539 118.985032,162.182217 119.610178,162.217813 C120.407025,162.263701 120.354787,161.5029 120.483242,160.983978 C120.990638,158.934447 120.83007,156.783706 121.267672,154.184804 C122.159148,155.58761 121.949338,156.704366 122.245212,157.677025 C122.648132,158.998348 123.255295,160.197445 124.176743,161.221138 C124.50259,161.582669 124.910648,162.020965 125.45187,161.748638 C125.989239,161.478026 125.945136,160.879335 125.794844,160.413592 C125.200955,158.576777 124.934198,156.655476 124.342021,154.822521 C122.876781,150.289023 122.617303,145.763245 124.326607,141.231463 C124.632329,140.421772 124.739803,139.57134 124.883672,138.726053 C125.077639,137.585281 125.352104,136.42135 126.290251,135.675559 C127.615904,134.622704 128.599439,133.372572 129.187333,131.783639 C129.585971,130.706767 130.305746,130.459743 131.396326,130.91305 C133.541948,131.805511 135.793331,132.110432 138.108941,131.833816 C138.532842,131.78321 139.064216,131.706015 139.169977,131.251851 C139.31299,130.638578 138.743079,130.395843 138.292631,130.232875 C137.215753,129.842611 136.08321,129.525682 134.948955,129.573286 C131.976513,129.697656 129.642491,128.210363 127.72038,126.330233 C124.878962,123.550351 122.028124,120.636236 120.460976,116.89699 C118.88655,113.141448 118.021621,109.178765 118.616795,105.044109 C118.7217,104.318475 118.77351,103.609996 118.475067,102.938827 C117.927421,101.70585 117.991649,100.463008 118.179621,99.1596973 C118.626215,96.0611712 116.882228,94.2432263 113.76035,94.3894681 C113.024305,94.4237771 112.011654,95.0250412 111.601027,94.1630291 C111.13859,93.1916573 111.644701,92.0440232 111.930727,91.0516372 C112.152954,90.2822592 112.873156,90.8333465 113.384406,91.0006026 C115.354045,91.6443241 115.429405,91.3891514 115.276116,89.2860134 C115.130106,87.2888042 113.179735,86.2385218 113.069692,84.2271602 C114.299432,84.5985545 115.007217,85.4009548 115.480359,86.4924079 C115.691881,86.9808815 115.877284,87.8960724 116.523839,87.5795725 C117.947546,86.8826721 119.114771,87.4740725 120.411735,87.851042 C121.440229,88.1499586 122.380946,87.8120155 122.081218,86.4542392 C121.763935,85.0124061 122.517965,83.8853574 122.741904,82.4804063 C123.805081,83.2373473 123.491223,83.9758472 123.188498,84.7079142 C122.968412,85.2397028 122.681958,85.77578 123.221468,86.2796925 C123.787525,86.8076213 124.394688,86.693973 124.989005,86.3328714 C125.425323,86.0682637 125.865923,85.8250991 126.3943,85.9790604 C127.700684,86.3586031 128.073631,85.7118796 128.028244,84.541087 C127.977718,83.253644 128.641829,83.0808128 129.669038,83.5341196 C129.93023,83.6494834 130.166586,83.8167395 130.42478,83.9368208 C131.123574,84.261898 131.904579,84.835715 132.537432,83.9947171 C133.094069,83.2557884 132.965615,82.3633271 132.498039,81.5656442 C132.089553,80.8687439 131.207926,80.3300935 131.915283,79.0679534 C132.400414,80.5968455 132.967755,81.8898637 133.616024,83.1515749 C134.294264,84.4716114 132.796911,87.2948083 131.387762,87.8300277 C130.641441,88.1135053 130.205123,87.6610562 129.683597,87.2665034 C128.307418,86.2226539 127.731513,86.3980584 127.238247,87.9389586 C126.406289,90.5425783 125.152142,91.0091798 122.885773,89.5231739 C122.107766,89.0128284 121.347314,88.4754647 120.444705,88.213859 C119.81228,88.0311639 119.132326,87.9278082 118.67931,88.5419382 C118.259691,89.1110378 118.68616,89.6089462 118.967476,90.1042816 C120.049921,92.0101432 120.046068,92.0157184 117.813525,92.221572 C117.387055,92.2610273 116.957588,92.2687468 116.549102,92.4162752 C116.128199,92.56895 115.758249,92.8134012 115.690597,93.2804317 C115.615665,93.7937792 116.022866,94.0583869 116.403948,94.2282161 C117.730457,94.8183299 119.175145,95.3308197 120.545756,94.7291266 C123.916408,93.2495536 126.737274,94.8938095 129.012207,96.7314821 C132.715556,99.7236505 135.547126,103.571398 136.7075,108.390089 C136.961412,109.445946 137.355768,110.463635 138.324745,111.078194 C139.199094,111.632283 139.822955,111.538792 139.833232,110.30367 C139.842223,109.228513 139.580604,108.195385 139.379787,107.27419 C140.634789,108.735751 142.239617,110.038204 143.256122,111.80297 C144.990688,114.813151 147.739619,117.068964 149.31533,120.212092 C150.151999,121.880364 151.717434,123.019849 153.111595,124.240819 C153.53207,124.609211 154.127244,124.976317 154.632071,124.429518 C155.119771,123.900731 154.744683,123.317908 154.375162,122.898053 C152.816578,121.12814 151.57699,119.111203 150.034249,117.332285 C149.753789,115.793958 148.699604,114.429749 149.028448,112.755472 C149.557253,114.142411 149.465194,115.652862 149.845848,117.071108 C151.877146,118.324671 152.772047,120.904274 155.234952,121.671079 C156.004824,121.910813 155.651145,122.426734 155.360837,122.847876 C154.875279,123.55078 154.56399,124.402929 155.252935,124.995187 C156.622691,126.171554 157.307354,127.929888 158.543517,129.062511 C160.452782,130.810981 160.668586,132.959578 160.647605,135.106889 C160.607784,139.068714 159.071038,142.747061 157.910235,146.482018 C157.783493,146.889008 157.524871,147.270266 157.195171,147.539162 C154.383297,149.830999 152.174304,152.757552 149.180025,154.88685 C146.100965,157.077047 143.566982,159.800748 141.560519,163.122711 C139.179825,167.062664 136.430038,170.775749 133.604463,174.44509 C130.078381,179.024047 125.521664,182.222498 120.824931,185.242971 C117.986082,187.067778 116.080242,189.743446 113.587365,191.859021 C111.194253,193.890968 108.540379,195.576824 106.211067,197.680819 C106.142129,197.88796 106.160541,198.084807 106.277863,198.270076 C108.292461,197.880669 109.964514,196.757051 111.474713,195.501344 C114.117454,193.303428 117.202937,191.571255 119.041124,188.477018 C119.480439,187.737231 120.372343,187.440888 121.177325,187.14969 C122.774018,186.572014 124.464482,186.15516 125.260901,184.375813 C125.360667,184.152805 125.699788,183.899776 125.931434,183.895916 C128.0291,183.862465 128.896597,182.189047 130.037703,180.877159 C131.798818,180.171252 132.686011,180.942774 133.478577,182.545002 C135.348878,186.323274 137.040198,190.184316 138.885664,193.972881 C139.849931,195.95122 141.166592,196.832102 143.392712,196.824383 C157.305214,196.776779 171.217715,196.813661 185.130217,196.787929 C188.28378,196.782354 188.71967,196.338911 188.727806,193.17434 C188.753496,182.812612 188.757778,172.450883 188.724808,162.089154 C188.715388,159.093126 188.211418,158.626954 185.226558,158.566484 C183.229516,158.526171 181.231188,158.543754 179.233718,158.551045 C177.795025,158.55662 177.133911,157.914614 177.184009,156.478356 C177.206702,155.836779 177.178442,155.192629 177.178442,154.549336 C177.178014,119.39125 177.178014,84.2327354 177.178014,49.0750784 C177.178014,48.5745967 177.169879,48.0741151 177.18358,47.5744911 C177.249521,45.2371946 177.440062,45.0352007 179.799347,44.991028 C181.796817,44.953717 183.796001,45.0364873 185.791759,44.9571479 C188.073543,44.8666581 188.67728,44.3738959 188.694407,42.1785527 C188.780044,31.3171143 188.780044,20.4545181 188.695264,9.59359436 C188.676424,7.22499094 188.041001,6.762292 185.190591,6.75289993 C174.702692,6.71987757 164.214793,6.74166375 153.726893,6.74050582 C150.658967,6.73947656 147.590612,6.70731193 144.523113,6.75289993 C141.655148,6.79612919 141.16231,7.26315963 141.152033,10.1623508 C141.112641,21.953347 141.143042,33.7442145 141.129768,45.5352535 C141.128912,46.3852575 141.250515,47.2485562 140.9525,48.2173549 C139.944131,47.934735 139.787416,46.5503693 138.707112,46.4628815" id="path14" fill="#4D2165"></path>
                        <path d="M138.707112,46.4628815 C139.592165,47.6855663 139.737747,49.4885011 141.542108,50.0468791 C142.072197,49.52281 141.769901,48.8537857 141.770329,48.2752512 C141.772898,35.3387225 141.780605,22.4024939 141.691971,9.46712303 C141.68041,7.77998092 142.130002,7.33302121 143.816612,7.34091227 C157.873412,7.41025921 171.931067,7.40691409 185.987866,7.34511511 C187.616244,7.33791024 188.155754,7.69086345 188.14248,9.4349584 C188.056416,20.3692603 188.066264,31.3043771 188.135629,42.2390222 C188.145477,43.8206643 187.776812,44.3734671 186.13302,44.2816907 C183.57249,44.1384508 180.990978,44.352024 178.430876,44.2049244 C176.777664,44.110146 176.434689,44.6822475 176.443253,46.2458775 C176.509621,57.6806182 176.478792,69.1157877 176.478792,80.5513862 C176.478792,105.994467 176.504055,131.437977 176.429123,156.881057 C176.423557,158.829805 176.959641,159.32171 178.811102,159.204201 C181.369491,159.041663 183.947577,159.21235 186.514531,159.141159 C187.681756,159.108994 188.129207,159.412628 188.124497,160.678199 C188.079966,171.970129 188.079537,183.262488 188.124925,194.554846 C188.129635,195.862446 187.590125,196.061438 186.47,196.059293 C171.699421,196.033133 156.928413,196.024984 142.157834,196.074732 C140.927666,196.078592 140.412134,195.575966 139.940705,194.568999 C137.884145,190.173166 135.763358,185.807353 133.663552,181.431677 C132.273244,178.534287 132.271103,178.535145 130.036419,180.878016 C132.685583,186.409904 135.366005,191.927639 137.955224,197.487832 C138.520424,198.70151 139.235489,199.098208 140.56157,199.094348 C156.756284,199.04846 172.950998,199.039882 189.145283,199.102925 C190.774517,199.109358 191.159025,198.649189 191.151318,197.063687 C191.08709,184.058884 191.079383,171.053651 191.158169,158.049277 C191.168873,156.331257 190.568562,156.041775 189.06821,156.101387 C186.361242,156.209031 183.646565,156.086377 180.936599,156.152421 C179.811764,156.180297 179.350183,155.799039 179.490627,154.682712 C179.526166,154.401379 179.496193,154.111468 179.496193,153.825846 C179.496193,119.098766 179.515462,84.3712578 179.447381,49.6441779 C179.443527,47.6328163 180.01515,47.1061741 181.922275,47.2288286 C184.409158,47.3892229 186.915738,47.2082432 189.4099,47.2931578 C190.666615,47.336044 191.150033,47.0392717 191.144895,45.654906 C191.09437,32.4360146 191.095226,19.2168659 191.144467,5.99771728 C191.149605,4.64628815 190.723992,4.33150363 189.440301,4.33450566 C173.103002,4.37306033 156.765276,4.38425362 140.428405,4.32331237 C138.738798,4.31743696 138.677139,5.04264217 138.681421,6.38150566 C138.725096,19.7413639 138.70754,33.1025944 138.707112,46.4628815" id="path16" fill="#D0CC12"></path>
                        <path d="M66.2839165,175.836318 C63.6548767,174.579324 63.4292246,174.644511 62.2341676,177.146061 C59.4668249,182.938697 56.680214,188.722755 53.9736732,194.544125 C53.4435834,195.684468 52.7931744,196.074732 51.5377437,196.071301 C35.9865879,196.027986 20.4353465,196.028844 4.8841051,196.068728 C3.53871326,196.072159 3.04244988,195.772814 3.05045689,194.306535 C3.11168697,183.160847 3.11318561,172.014302 3.04964335,160.869043 C3.04125097,159.376175 3.58016131,159.096986 4.90003349,159.13687 C7.67953657,159.221356 10.4660618,159.092269 13.244366,159.192622 C14.6503457,159.243657 15.0711633,158.806647 15.0521092,157.38883 C14.9755074,151.745438 15.0198242,146.100331 15.0198242,140.455653 C15.0198242,109.161182 15.0027826,77.8667117 15.0631563,46.5718124 C15.0666674,44.7165565 14.6742811,44.0634 12.7349146,44.1989203 C10.1081014,44.3816154 7.45790937,44.1976338 4.82022029,44.2645362 C3.62130964,44.2949854 3.0434347,44.1002821 3.05131326,42.6631664 C3.11065933,31.4454298 3.1080046,20.2276931 3.05379671,9.01077125 C3.04711707,7.65350959 3.47863927,7.34258483 4.7573203,7.35364946 C11.3909786,7.41077385 18.0254933,7.38028178 24.6596226,7.37993869 C27.7773469,7.37993869 27.7773469,7.37993869 26.5929516,4.34273981 C18.4618539,4.34857233 10.3302424,4.39283086 2.19961569,4.3263144 C0.609474796,4.31357721 0.0147294738,4.61764018 0.0260763068,6.39389976 C0.109058051,19.3240814 0.103705772,32.2550778 0.03061504,45.1853024 C0.0208953,46.8848815 0.476695441,47.3956558 2.16146464,47.3055948 C4.79298789,47.1644993 7.44386499,47.3785013 10.0744891,47.2283997 C11.7566035,47.1323347 12.0509789,47.7546131 12.0459692,49.2925113 C11.9924464,65.5802515 12.0128707,81.8692783 12.0128707,98.1574474 C12.0128707,116.731878 11.9896204,135.30631 12.0508076,153.880741 C12.0565025,155.634356 11.6336724,156.275076 9.81188481,156.170433 C7.18126074,156.019903 4.53423728,156.187588 1.89740457,156.109106 C0.596800597,156.070938 0.0287738558,156.324395 0.0356247738,157.834417 C0.0961697619,171.050649 0.0832814724,184.267311 0.0485130633,197.483543 C0.0455157867,198.659482 0.329315066,199.092204 1.5871008,199.08963 C18.9907448,199.05189 36.3946457,199.047173 53.7985466,199.097779 C55.1263402,199.101638 55.4658888,198.340838 55.9034912,197.42822 C59.3563539,190.227631 62.822062,183.033047 66.2839165,175.836318" id="path18" fill="#D0CD11"></path>
                        <path d="M75.9651201,51.7764785 C77.7086787,50.9376249 78.3680796,51.4698424 78.0221082,53.3696999 C77.9480327,53.7796917 77.9685854,54.247151 78.0901892,54.6438481 C78.3509523,55.497283 78.1428557,56.7401244 79.1430897,57.0604841 C80.2499411,57.4147239 80.9089138,56.3931752 81.5451928,55.6216529 C82.0474508,55.013527 82.5561314,54.2583014 83.4364744,54.47359 C84.2718582,54.6777282 84.0569107,55.6572485 84.3549256,56.269663 C84.4152993,56.3931752 84.3801884,56.5638622 84.4414184,56.6865166 C84.8623217,57.532232 84.4375648,58.9946506 85.5992236,59.1983599 C86.6534086,59.3836282 86.8512289,58.028425 87.3646195,57.3040776 C87.7260054,56.7945898 88.1400578,56.4287707 88.781475,56.6487768 C89.3428221,56.840478 89.3775049,57.3726954 89.4301713,57.8843275 C89.5008214,58.5649311 89.2374892,59.3077196 89.8857574,60.0663761 C90.6068165,59.2275225 91.2884828,58.0816039 92.4227379,59.7108497 C93.0722906,60.643624 93.5681258,59.8763903 93.4987603,59.145181 C93.3116446,57.172417 95.9668035,56.759852 95.798956,54.7291916 C95.7595632,54.2450067 96.6728762,54.5619356 96.9760293,54.9397628 C97.6649748,55.8000594 98.2777038,56.7221122 98.9606547,57.6741852 C99.5095845,55.4985696 98.3051074,53.2611979 96.3144876,52.5990353 C93.613085,51.70057 92.1555521,52.5291309 90.6740411,55.8193582 C89.2409147,54.8033847 90.8838505,51.8313728 88.2119924,51.7404541 C86.9107462,51.6962814 85.7636456,52.4094785 85.379566,54.0297181 C85.2802277,52.500826 84.6931897,51.5183037 83.4664472,50.6176941 C81.6552357,49.2882227 81.1200077,49.8118629 80.9256129,51.7263017 C80.8926429,52.0505212 80.6836899,52.3567285 80.5402488,52.7109683 C79.5759821,52.2919703 79.7977806,51.5277387 79.751965,50.8702937 C79.6217976,49.01418 78.3381068,48.0861232 76.6078218,48.4918264 C75.2804565,48.8040378 76.6981683,49.9465255 75.9565564,50.3921128 C75.9595537,50.853568 75.9621228,51.3150233 75.9651201,51.7764785" id="path20" fill="#D8D10F"></path>
                        <path d="M83.8916323,45.8620462 C84.1464008,46.1086417 84.3973156,46.3595258 84.6567942,46.600975 C85.759792,47.6280989 86.4615829,47.7314545 87.2738449,46.0940604 C89.9641147,40.669817 92.8415003,35.3387225 95.6499485,29.9730616 C95.911568,29.4735235 96.191171,28.9833345 96.6407625,28.1638226 C97.6337175,30.0464399 98.496505,31.6830192 99.4479262,33.4863828 C100.020834,32.1123527 100.498258,30.96682 100.975253,29.8221452 C99.6174864,27.1658613 98.2601483,24.5089341 96.7139817,21.4843009 C92.3345324,29.8105659 88.1130823,37.8363275 83.8916323,45.8620462" id="path22" fill="#D0CC12"></path>
                        <path d="M106.277863,198.270076 C106.28343,198.137986 106.284714,198.005039 106.281289,197.87295 C105.47074,197.214218 104.644348,197.720704 103.842362,197.871663 C101.483505,198.314677 99.2569569,198.051356 96.9336393,197.329153 C93.408842,196.233411 89.8172482,195.425864 86.7698742,193.16319 C85.4001188,192.146788 83.9575723,191.264619 82.8691327,189.887544 C82.0251853,188.81882 80.8969247,188.052016 79.460801,187.917782 C79.3019454,187.931077 79.1430897,187.943942 78.984234,187.957237 C85.539278,195.440875 93.4610802,199.887742 103.725468,199.125655 C104.645632,199.057037 105.540533,198.894498 106.277863,198.270076" id="path24" fill="#5B216B"></path>
                        <path d="M79.460801,187.917782 C83.1016358,190.652633 86.0779315,194.408176 90.5502964,195.866305 C95.6341058,197.523856 100.674241,200.106033 106.281289,197.87295 C109.788531,196.036564 113.072689,193.650806 115.573275,190.763708 C119.306597,186.453219 124.187019,183.923364 128.585309,180.639569 C129.845021,179.699075 130.93603,178.485825 131.980367,177.348484 C135.651174,173.350635 138.771339,168.869887 141.505712,164.203443 C143.834168,160.229181 147.009996,157.27947 150.524946,154.483291 C153.064495,152.462924 155.448187,150.213544 157.696572,147.869814 C159.381042,146.113626 159.229465,143.501429 160.04815,141.319809 C161.253055,138.108063 161.461152,134.731206 160.770065,131.322184 C160.576099,130.363678 160.381704,129.501666 159.319812,129.172729 C159.184506,129.1307 158.960138,129.087814 158.939586,129.005044 C158.423198,126.913056 156.861188,125.731542 155.256789,124.513575 C154.625648,124.034536 155.470024,123.545205 155.748342,123.112484 C156.086178,122.587986 156.475396,122.09651 156.829075,121.608465 C154.92666,120.970319 152.883802,120.791055 152.453051,118.319525 C152.178158,116.743458 150.599449,117.972147 149.883528,117.260236 L149.917783,117.233218 C150.684658,120.125033 153.253324,121.848628 154.987462,124.722002 C153.223351,124.115591 152.4933,123.022851 151.688317,122.12653 C149.752076,119.969785 147.843239,117.764578 146.984306,114.89249 C146.964609,114.824301 146.956046,114.752682 146.941915,114.682348 C144.162156,115.447866 145.200498,112.345909 143.780645,111.438438 C142.37792,110.541688 141.404661,108.688576 140.159078,107.319221 C139.68765,106.801585 139.436735,106.078095 138.485314,105.8954 C138.859973,107.642154 139.361803,109.317717 139.415326,111.257458 C137.736423,110.511668 137.37418,109.136308 137.109135,107.758375 C136.651408,105.377335 135.771065,103.255756 133.810418,101.708852 C133.394225,101.380772 133.160437,100.959201 133.202399,100.410687 C133.234941,99.9809676 133.280329,99.5345225 132.906097,99.2193091 C130.044126,96.8086772 127.125207,94.4962547 123.509207,93.2692812 C122.818549,93.0346939 122.442604,93.5158767 121.951907,93.7307365 C119.717652,94.7098278 117.768994,94.5837425 115.965061,93.2890089 C116.640305,92.4239947 117.537347,92.8974581 118.339761,92.8918829 C119.111774,92.8863077 119.970279,93.124326 120.419871,92.2271472 C120.862183,91.3441209 120.272148,90.7827408 119.731782,90.1767592 C119.351556,89.7504706 118.418118,89.3983751 118.968761,88.6705967 C119.447469,88.0375968 120.162533,88.5342187 120.706325,88.849861 C121.443227,89.2782938 122.161717,89.7448954 122.8558,90.2402307 C125.07507,91.824446 127.341011,90.8826656 127.627037,88.226296 C127.682272,87.7133773 127.678847,87.1365583 128.206367,86.9439994 C128.802825,86.7261376 129.084998,87.3093896 129.343192,87.7009403 C130.453469,89.3812207 131.502944,88.8747349 132.604229,87.6893611 C134.504502,85.6436906 134.687764,83.9934306 133.199402,81.5420568 C132.835019,80.9407927 132.924937,80.3035041 132.915945,79.6692176 C132.906954,79.0083416 132.857713,78.3491811 132.256973,77.9481954 C131.842492,77.6720084 131.605279,78.0000877 131.48496,78.3590449 C131.208354,79.187177 130.294613,79.9261058 131.021667,80.9030528 C131.266587,81.2315609 131.714466,81.4009613 132.027895,81.6891564 C132.663318,82.2741238 132.550278,83.1477152 132.24113,83.6696399 C131.760281,84.4814752 131.171102,83.6554875 130.657712,83.4166115 C130.337003,83.2673676 130.054831,83.0370689 129.746539,82.8590912 C129.032331,82.447384 128.253467,82.1754856 127.560668,82.7788941 C126.89356,83.3600018 127.285775,84.0817761 127.519135,84.7572333 C127.629178,85.0758776 127.656581,85.4236845 127.786749,86.0939954 C126.504342,85.229839 125.409908,84.3665403 124.479896,86.0867047 C124.27651,86.4628165 123.692041,86.3375889 123.353348,85.9850645 C122.983399,85.5999467 123.372617,85.3563532 123.575575,85.1063268 C125.036533,83.306394 124.075264,82.3080039 122.189549,81.361506 C122.31886,82.5708961 122.052958,83.5478432 121.538711,84.4613187 C121.369579,84.7619508 121.256539,85.1299142 121.239412,85.4730036 C121.137076,87.5731395 121.11267,87.6486192 118.960197,86.6026254 C117.706479,85.9932129 116.964439,86.3097128 116.397097,87.7463997 C116.27164,84.7778187 114.183395,84.0624773 111.983393,82.915701 C112.51434,84.7139183 112.703168,86.2475279 113.950463,87.3947331 C114.866345,88.2365887 114.192386,89.7899259 115.318078,90.6412165 C115.530456,90.8016108 114.945131,91.1597103 114.600016,91.0220457 C114.141861,90.8402083 113.735088,90.5327144 113.290634,90.3114218 C112.853032,90.0931312 112.350774,89.5956515 111.919594,89.8855621 C110.325471,90.9581453 111.197679,92.835702 110.720255,94.3058401 C110.388414,95.3261022 111.810836,95.3595534 112.634231,95.127968 C114.480553,94.6081876 116.162025,94.4623746 117.274443,96.4492911 C117.378063,96.6345594 117.641824,96.8176833 117.620843,96.9733601 C117.244042,99.7733985 118.202743,102.582014 117.871758,105.262829 C117.676506,106.843184 118.064011,108.138347 118.156927,109.566456 C118.381295,113.024798 119.056966,116.32832 121.039023,119.267738 C123.770398,123.317908 126.891847,127.006548 131.162967,129.475505 C132.915517,130.488477 135.096678,129.972556 137.035488,130.461458 C137.646076,130.61542 138.29777,130.621424 139.098043,131.334192 C136.167991,131.393375 133.520967,131.514314 131.12914,130.186987 C130.04327,129.584436 129.451094,129.626036 129.012207,130.765521 C128.313841,132.577462 127.551677,134.308777 125.664249,135.26471 C125.286592,135.456411 125.052376,136.049956 124.877249,136.506265 C124.020456,138.738919 123.707455,141.122533 122.876353,143.403219 C122.185267,145.298788 122.571915,147.949154 122.754749,150.264578 C123.036493,153.836568 124.467479,157.107067 125.343112,160.522094 C125.427464,160.850602 125.469426,161.190689 125.573046,161.749496 C122.454594,159.651933 123.026217,156.117255 121.73696,152.878491 C119.502704,155.941421 120.922557,159.249661 119.636297,161.966929 C119.542097,161.891878 119.265919,161.780374 119.257784,161.651287 C119.030419,158.147057 117.189663,154.433972 120.480245,151.369326 C120.981646,150.901867 120.710179,150.467859 120.666076,150.00383 C120.331665,146.513754 120.480673,143.114166 121.296788,139.633953 C122.058525,136.387041 123.361912,133.460917 124.710686,130.477326 C125.295155,129.183879 126.254284,127.426833 123.941243,126.428014 C123.51777,126.245319 123.186785,125.538126 123.066894,125.014914 C122.680246,123.329488 121.430809,122.383419 120.197644,121.414191 C119.771603,121.078821 119.343849,120.584344 118.697721,120.84938 C118.329484,121.000339 118.180477,121.378595 118.279815,121.739697 C118.462649,122.404004 119.142175,123.104335 119.561793,123.032286 C122.07608,122.602567 120.652374,125.347282 121.93007,125.835327 C121.785344,126.069485 121.683437,126.350819 121.487758,126.527938 C121.076703,126.899762 120.693051,126.677611 120.379622,126.348245 C119.748481,125.685654 119.135752,125.005908 118.443809,124.2554 C117.910294,125.714388 117.589157,126.947794 119.114771,127.882284 C119.580205,128.167477 120.142837,128.704841 119.873938,129.286806 C119.478726,130.141956 118.93365,129.434335 118.493907,129.192028 C118.052879,128.948434 117.833649,129.072804 117.819091,129.534259 C117.745872,131.826954 116.820142,128.817202 116.522983,130.227729 C118.299512,132.462527 117.164828,135.211531 116.659573,137.966968 C116.561948,138.502187 116.67927,139.1116 116.827849,139.650679 C117.515082,142.14837 116.832559,144.11899 114.482694,145.914634 C114.291296,143.167345 114.594021,140.52427 114.40348,137.873476 C114.132013,134.091344 113.884951,130.293345 113.663581,126.499634 C113.504725,123.769071 113.747077,121.009774 113.497018,118.292078 C113.250385,115.61212 112.618816,112.896997 113.164749,110.270219 C113.832713,107.058044 113.350152,104.231845 111.663541,101.507287 C111.367239,101.027819 111.143728,100.494744 111.79585,100.007557 C112.373896,99.5756932 112.078022,99.024177 111.634425,98.7895896 C110.699275,98.2955409 111.049956,99.2591932 110.912509,99.5769798 C110.180317,101.271413 110.338745,102.992864 110.962607,104.671428 C111.294448,105.563461 111.499119,106.409176 110.959181,107.533652 C110.067277,106.815737 109.803517,105.897544 109.594136,104.970774 C108.917608,101.973888 107.523446,99.2621953 106.306552,96.4758805 C105.824846,95.3728481 105.479303,94.7694396 104.559567,96.1405106 C103.987088,96.9952321 102.796741,96.4840289 102.934187,96.0337241 C103.643685,93.7037182 100.160422,93.8169377 101.029632,91.846318 C99.5956491,91.5216696 101.299815,94.8813725 98.8488991,92.7254846 C99.3468752,95.1159599 99.7793394,97.1376142 102.616904,97.5857747 C100.651547,98.2286385 100.448588,99.8934798 99.8868131,101.328022 C99.6795729,101.858095 99.3263224,102.375732 99.8080276,102.91138 C99.9120759,103.027173 100.222508,103.097506 100.349678,103.027601 C100.890044,102.731258 100.678094,102.151866 100.78514,101.687408 C100.826673,101.506858 100.943567,101.343032 101.07245,101.07628 C103.669376,103.053333 102.474319,106.69051 104.506045,108.892715 C105.172725,108.262288 104.330918,107.65116 104.846878,107.137384 C105.002308,107.20643 105.227104,107.239024 105.343998,107.369398 C106.422589,108.565922 106.295419,110.651477 107.535435,111.451733 C110.077982,113.092558 109.752991,115.941057 110.904374,118.135972 C111.032829,118.380852 112.12084,119.493748 110.329753,119.480882 C109.777398,119.477023 110.652174,121.3014 109.991489,122.220022 C109.10558,121.813032 109.2092,120.909421 109.108577,120.205659 C108.64143,116.917576 106.619553,114.352125 105.173581,111.522924 C104.890552,110.968405 104.411845,110.470926 103.918578,110.078517 C103.349952,109.626068 102.697402,108.629394 101.96521,109.266253 C101.11013,110.009899 101.707016,111.021584 102.313323,111.746361 C104.058166,113.831058 104.709431,116.32446 105.567937,118.848311 C106.46712,121.491386 106.753146,124.339886 108.090787,126.822566 C108.977125,128.468538 108.33057,130.515066 109.556028,132.073979 C109.745712,132.314999 109.34579,132.77045 109.009239,132.871661 C108.81099,132.931702 108.444038,132.776883 108.301453,132.599334 C108.041118,132.275115 107.77222,131.879704 107.713131,131.483007 C107.156494,127.772924 105.45875,124.459109 104.09713,121.03422 C103.761007,120.187646 104.157932,119.325634 103.746877,118.532669 C103.437301,117.934836 103.497247,116.869543 102.625468,116.946738 C101.707873,117.027793 101.894988,118.01975 101.900983,118.699496 C101.913829,120.128035 101.987904,121.555715 102.027725,122.983825 C102.106939,125.801447 100.033252,127.581652 98.8900046,130.352528 C98.0336398,128.358749 98.815929,127.196105 99.3892652,126.039465 C100.085062,124.634943 100.438312,123.343211 99.6063537,121.789874 C98.7345744,120.161057 100.506393,118.729516 100.305576,117.070679 C100.257191,116.668407 100.602306,116.20009 100.511531,115.823978 C99.783193,112.804791 98.9931965,109.800186 97.9766916,106.781428 C97.0051457,108.538475 96.6240634,110.426324 96.3868504,112.317176 C96.249832,113.402625 96.2395557,114.659619 95.5103611,115.340222 C93.4315356,117.28125 93.542863,120.16363 92.2090749,122.437455 C91.455474,123.722325 91.8828,125.650916 92.4561362,127.237276 C92.5267863,127.432837 92.6770783,127.77078 92.765712,127.76306 C95.5561766,127.513892 95.3108281,130.03903 95.7300186,131.464137 C96.2087265,133.088665 97.1284623,134.33022 97.7857222,135.756185 C98.6313824,135.527173 97.928307,134.244019 98.8578909,134.376537 C99.6637301,134.491472 99.1970113,135.326466 99.3622897,135.81837 C99.8255831,137.202307 99.214995,139.298155 101.787515,139.256555 C102.070115,139.251838 102.568948,139.977901 102.619901,140.406762 C102.89351,142.697742 104.03119,144.856203 103.364939,147.311865 C102.953455,148.829607 103.893744,150.367076 103.442011,152.100964 C102.131345,157.131941 100.006704,161.363949 94.8625211,163.410477 C94.1376084,163.699101 93.470072,164.129679 92.7678529,164.477485 C91.9714337,164.872896 91.7329361,165.285032 92.0211029,166.30701 C93.2388536,170.631223 91.0653998,175.547694 87.1351138,177.782063 C86.2359308,178.293267 85.3423142,178.351592 84.5514613,177.661124 C81.2711561,174.797186 77.3965338,174.811338 73.4170068,175.292521 C72.4968428,175.404025 71.5638334,175.467068 70.6646504,175.673779 C69.9487295,175.838033 68.8620026,175.514242 68.6110878,176.36296 C68.3858638,177.124618 69.2644941,177.712588 69.7586165,178.294553 C70.9177062,179.661336 72.1954024,180.954354 73.7372872,181.847244 C76.2734114,183.315666 78.2109367,185.271276 79.460801,187.917782" id="path26" fill="#D8D10F"></path>
                        <path d="M75.91331,130.967515 C74.9653142,133.102818 74.2879297,135.392511 72.5332383,137.074078 C72.0939232,137.494362 71.5920935,138.194265 70.9365463,137.496078 C70.3477955,136.869082 71.1176674,136.450084 71.4490806,136.097988 C74.3868399,132.976733 74.9550379,129.196316 74.5778092,125.138855 C74.5418419,124.749449 74.732383,124.179492 74.1432041,124.102296 C73.6409462,124.036252 73.4863723,124.551315 73.2911211,124.921851 C72.7597468,125.929247 73.0273608,127.026705 72.950288,128.083849 C72.8445269,129.528255 72.6813894,130.942212 71.5706844,132.025088 C71.2675312,132.320145 70.9010071,132.719415 70.4860984,132.417497 C70.2792863,132.266537 70.1525443,131.663558 70.2848527,131.44055 C71.8986721,128.714276 71.4490806,125.527404 72.2360798,122.602567 C73.0025262,119.752352 71.4704897,117.095553 69.3664015,115.162244 C66.9398919,112.932592 63.7871851,112.437686 60.5762455,112.423962 C60.1621931,112.422247 59.7001843,112.376787 59.5751551,112.95618 C59.4329985,113.61534 59.8539018,113.828056 60.3630106,113.997027 C62.67648,114.76469 64.4962551,116.848529 67.308557,116.375494 C68.2629755,116.214671 68.6294996,117.431352 68.790068,118.220886 C69.0289938,119.397683 69.0015901,120.628945 69.0863702,121.837478 C69.1403212,122.603853 69.1360394,123.281455 69.8322639,123.938042 C70.914709,124.959162 70.6291113,125.56643 69.1912749,125.951548 C68.5117495,126.133386 68.3841511,126.79855 68.4770667,127.341489 C69.0499747,130.689184 66.6744189,133.271789 63.2999136,132.908972 C62.0984338,132.779885 60.8845368,132.472391 59.6997561,132.560308 C58.2332315,132.669239 57.1811874,133.553552 56.5911521,135.079013 C58.0602458,135.228686 58.3167271,133.404308 59.6136915,133.590863 C60.2743769,134.116218 57.6650335,135.111606 59.8748827,135.394226 C59.4565485,136.564161 58.2888952,137.024759 57.3832895,137.05821 C55.6821209,137.120395 53.7767093,137.260633 52.5949259,135.464988 C52.3243147,135.054139 51.8404686,134.747932 51.9213951,134.189982 C52.0922398,133.01533 51.2864006,132.938564 50.4685723,132.535863 C48.7674037,131.698296 47.5517939,130.133808 45.6913415,129.382013 C43.3196393,128.423507 41.5855007,129.20618 41.1491828,131.778064 C41.0327172,132.463385 40.6721876,133.108393 40.4161346,133.76884 C40.1789216,134.380397 40.0333395,134.979088 40.7021604,135.761332 C41.6698526,133.481503 44.6658447,133.638466 45.4982312,131.250135 C45.6112714,130.925058 46.0985429,130.527074 46.5374299,130.97309 C46.8530003,131.293879 46.6050827,131.669991 46.3460323,131.899003 C45.5834395,132.572316 45.6027077,133.083519 46.2098703,133.981556 C46.5883836,134.540791 46.6941446,135.525887 46.4350943,136.448368 C45.9718009,138.100344 46.8341602,139.327746 47.9932499,140.383604 C48.8003737,139.766472 47.7504705,139.247549 48.1876447,138.712758 C48.8757338,138.441289 49.1694669,139.073002 49.5706738,139.399795 C50.319993,140.008779 50.3932122,140.768722 49.6901367,141.423165 C48.76355,142.285606 47.6344331,142.417266 46.5104544,141.847309 C45.2408936,141.204016 44.0004493,140.498539 42.7788449,139.766901 C41.7276572,139.13776 40.6340794,138.630846 39.4360251,138.384679 C38.9650245,138.287756 38.3737046,138.13551 38.1638953,138.779232 C38.0666979,139.078577 38.0992397,139.538746 38.27351,139.781911 C38.5736658,140.20048 39.1320156,140.490819 39.5524907,140.022931 C40.5582911,138.902315 41.2926239,139.860821 41.8805183,140.387463 C43.6638979,141.985402 44.9428787,144.365156 47.7037986,143.51601 C48.2321757,144.693235 46.2629649,144.310691 47.2255189,145.425302 C47.9063289,146.213979 48.5892798,146.67715 49.6207712,146.218697 C50.0879181,146.011128 50.3598139,145.210014 51.0500439,145.720788 C51.3219397,145.922353 51.2414414,146.245715 51.0663149,146.489308 C50.6916553,147.010375 50.3191366,147.573042 49.5574002,147.502709 C48.8590347,147.437951 48.1636665,147.332451 47.3723855,147.232955 C48.0172281,149.550952 49.8618378,148.729682 51.1108458,148.702235 C52.0404298,148.682079 51.8104958,147.342314 51.8777205,146.53391 C51.9740615,145.377699 51.841325,144.240786 51.2435824,143.216664 C50.9455674,142.70589 50.9378601,142.259016 51.4101453,141.894484 C52.0995189,141.362266 52.1890091,142.136791 52.5037231,142.430561 C53.3352533,143.207658 54.5354485,143.898983 52.6463078,145.426589 C56.2203461,144.429914 59.2249019,145.420585 62.2851213,145.800128 C63.5670994,145.959235 65.338918,146.403107 65.2943871,144.017349 C65.2875362,143.634805 65.6853176,143.407079 66.0578362,143.394213 C68.4556576,143.310156 69.712801,141.720795 70.7853979,139.863394 C70.9622372,139.557187 71.180182,139.257842 71.4388042,139.019823 C71.7231173,138.758218 71.9436312,138.198982 72.4471737,138.47474 C72.973838,138.762935 73.0521954,139.362484 72.6959476,139.768187 C71.4169669,141.225888 71.1061065,143.062703 70.4998002,144.804739 C70.0283714,146.159514 68.7284097,146.589233 67.3984753,146.746625 C66.0017444,146.912166 64.6585362,147.195644 63.3739891,148.040072 C66.1426164,149.316794 67.5663228,149.440306 70.5974258,148.726251 C69.7680365,149.855444 69.7680365,149.855444 64.8499338,150.209684 C66.8538273,152.519533 69.3993715,150.965767 71.4426578,151.613777 C71.4447987,152.416178 70.7584224,152.67135 70.2947009,152.636184 C67.7620021,152.444483 64.8953211,153.060757 63.3872628,150.057009 C63.167177,149.618284 62.7903765,149.258898 62.4867952,148.862629 C61.8830581,148.076097 61.3812283,148.088105 60.9992896,149.0509 C60.5552645,150.1698 60.1116676,151.288271 59.6175451,152.534115 C61.0750779,153.062472 63.0387223,152.222332 63.9627399,154.448554 C60.4152489,153.522641 56.7864032,153.688182 54.7469706,150.243993 C54.4296874,149.707916 53.7827039,149.410286 53.1263003,149.274765 C52.728947,149.192424 52.437783,149.317223 52.23354,149.669747 C52.0228743,150.032993 52.0472807,150.357641 52.4185148,150.578505 C53.3892043,151.155324 53.8871804,152.115974 54.4331129,153.034596 C55.3365777,154.55534 56.5748811,155.479966 58.4220599,155.460667 C59.1165717,155.453377 59.8346336,155.505698 60.3698616,156.090665 C58.3629707,157.058177 54.8321789,156.380576 53.6855065,154.144919 C51.7415585,150.355068 47.4310465,149.864879 44.8713722,147.056692 C44.5626527,146.718321 44.0719557,146.659567 43.6793125,146.883003 C43.1038354,147.209796 43.5058986,147.649379 43.7208462,147.949154 C44.1259067,148.513536 43.3748748,149.808269 44.8443967,149.720353 C45.0653388,149.707487 45.3586438,150.035995 45.168959,150.373509 C42.6105693,154.926734 44.9522987,158.883413 46.7776402,162.846095 C47.2148144,163.794738 47.6515604,164.378418 46.9810268,165.464296 C46.136223,166.833223 46.5900963,168.034894 48.1696611,168.739942 C49.9290625,169.525617 51.9201105,169.62983 53.5930191,170.671964 C54.0832879,170.977314 54.3753083,170.626076 54.426262,170.108011 C54.5315948,169.043148 54.7272742,167.950408 53.8079666,167.103406 C52.6784215,166.062987 52.1573236,164.744666 51.9273896,162.860248 C53.5305044,164.182429 54.4219801,165.666719 55.1747248,167.193038 C57.7318299,172.375403 64.5133824,175.687503 70.2180562,174.699834 C72.5722029,174.291986 74.9246369,173.6161 77.3866856,173.915446 C79.6021012,174.184342 81.7524331,174.478541 83.5263927,176.058039 C84.912419,177.292303 86.3348409,177.101889 87.7683955,175.959401 C91.4987204,172.985245 92.1033139,168.080782 89.0987582,164.119815 C90.7665285,163.309695 92.450998,161.80825 92.7717066,160.446185 C93.2020299,158.615374 94.5572271,157.050029 94.3435641,155.048102 C94.0857983,152.633182 94.2129685,150.136778 93.6422014,147.806772 C92.9763778,145.089504 91.8215699,142.476449 90.7023012,139.89513 C90.2578478,138.870151 89.6344143,137.936519 89.3633749,136.507122 C91.2850574,137.532531 92.770422,138.519771 93.1446534,140.564583 C93.2782463,141.293648 93.6199359,141.919787 94.1585893,142.410833 C95.2795708,143.431953 96.2785203,144.521262 96.3603031,146.099044 C97.3361307,146.269731 97.3382716,145.168414 98.0687508,145.168414 C98.0687508,145.406432 98.1312654,145.626439 98.0593308,145.785975 C97.3142934,147.44181 97.5883301,149.164548 97.7737331,150.856836 C98.1149945,153.971659 98.0571898,156.964257 95.9137089,159.541716 C95.5450438,159.985588 95.2770017,160.597573 95.8700343,161.058171 C96.435235,161.496467 96.7829191,160.932514 97.0835031,160.577417 C99.4269453,157.811258 100.770153,154.629533 100.962835,150.989355 C100.989383,150.488873 100.997518,149.827997 100.497401,149.649162 C99.3635743,149.243887 99.4898881,148.714243 100.1844,148.039644 C101.146526,147.104296 99.8495613,146.553209 99.8272958,145.792837 C99.710402,141.896628 97.3665317,138.976508 95.5865775,135.7772 C94.4476124,133.728956 93.472213,131.660556 91.6909743,130.018873 C90.7661003,129.166725 90.6038192,127.719316 90.3948662,126.449457 C89.6883653,122.152691 90.2578478,117.979008 93.199889,114.742818 C94.5323925,113.276539 95.0761841,112.365637 94.8590957,110.329401 C94.69082,108.746473 95.4551255,106.760843 96.9430593,105.472542 C97.3870844,105.088282 97.8717869,104.505888 97.4667263,103.995113 C95.4183019,101.413366 96.6835808,98.540421 96.6668817,95.7922749 C96.6600308,94.6313461 96.6938572,93.5012954 96.0541527,92.4857508 C95.5531793,91.69107 94.8149929,91.1648567 93.8952571,91.5847123 C92.8975922,92.0405923 93.7154205,92.6238443 93.9689045,93.1346187 C94.2386594,93.6788442 93.9033926,93.8632548 93.4833457,94.073397 C91.406233,95.1112424 90.4599499,96.8322646 91.0041697,98.955988 C91.1818654,99.6490286 91.0688253,99.9736769 90.6329356,100.420122 C90.3516198,100.708317 89.9722502,101.228526 90.063453,101.501711 C90.8290431,103.796122 88.5935029,105.787327 89.452865,108.066298 C89.5667615,108.367788 89.4395913,108.685574 89.1283027,108.737896 C88.8928024,108.777351 88.5780884,108.672709 88.3755581,108.525609 C87.5221906,107.905904 87.3761804,107.023735 87.5435998,106.043786 C87.8321947,104.356215 88.1610387,102.673362 88.372989,100.976356 C88.4432109,100.413689 88.6932694,99.5199412 87.8390456,99.3569737 C87.04177,99.2047278 86.5373712,99.892622 86.2937354,100.589522 C85.7812011,102.055801 85.3829915,103.562821 84.8546144,105.023095 C84.7021815,105.444237 84.9064245,106.416896 83.9575723,106.090103 C83.2416514,105.843079 83.4925663,105.115729 83.5996119,104.586943 C84.0277943,102.474799 84.5878568,100.401252 86.0967715,98.7587116 C86.5960322,98.2149149 86.8829143,97.6646853 87.0032336,96.9034557 C87.1205556,96.1602383 87.4121478,95.1738563 87.9640749,94.8191876 C89.8129664,93.6295251 90.2240214,91.6044399 91.3415774,89.7354605 C89.5346478,89.9863446 88.1880142,90.4357917 88.2539543,92.7362061 C87.0503337,91.4856452 86.128457,91.771696 85.8783985,93.1500577 C85.588519,94.7471388 84.1168562,95.3835696 83.4047889,96.6993175 C81.8256523,99.6172928 81.8680423,102.811455 81.0493576,105.833215 C80.8288437,106.646766 80.204982,106.907085 79.9270916,107.52293 C79.622654,108.199245 80.7166599,108.572784 80.1878547,109.455381 C78.8146738,109.107574 78.8956003,107.715918 78.4284533,106.670782 C77.5356931,108.41968 79.0069277,113.002497 80.8237055,114.526243 C81.5845856,113.861936 80.3360058,113.043667 80.9791357,112.361777 C82.940211,113.577171 82.9616201,113.581889 83.5071245,111.091489 C83.8085649,109.716987 85.6994183,109.830206 86.0072814,108.342485 C86.1164679,110.484649 87.4536815,112.556909 85.6762964,114.612444 C84.8263544,115.594966 85.5876627,117.132864 84.7963816,118.27235 C84.7094606,118.397577 85.4455061,119.495892 86.1490098,119.353939 C87.0648919,119.1691 88.0218795,118.627876 87.863452,117.510691 C87.649789,116.008389 88.3091898,114.745391 88.6354648,113.386328 C88.7185322,113.038521 88.7574968,112.619094 89.1621291,112.54147 C89.7620127,112.426535 90.5879765,112.140485 90.9459369,112.414527 C91.5655168,112.888848 90.997747,113.623917 90.6517756,114.105958 C88.3323117,117.340004 88.0197386,121.193756 87.9195439,124.878965 C87.8527474,127.340631 88.849556,129.976845 90.9099696,131.842393 C91.7650498,132.616918 92.6278373,133.400448 92.5340654,134.704616 C92.4749762,135.534464 93.1626371,135.744606 93.6400604,136.132726 C94.8107111,137.085657 95.7856823,138.157811 96.0815564,140.067961 C92.0245283,137.901781 90.6766102,133.510237 86.8799171,130.606843 C87.6836154,134.581104 88.3674227,137.964395 89.0512299,141.347685 C87.8660211,140.216777 86.8203997,139.015106 86.7424705,137.416309 C86.6290022,135.096167 84.3776193,133.684354 84.3360856,131.350489 C84.3288065,130.94693 83.7580394,130.663023 83.3272879,130.740219 C82.6002342,130.870164 82.7749326,131.480863 82.9012464,131.942318 C83.1641504,132.903397 83.3756725,133.906934 83.8226949,134.782669 C84.6105505,136.326572 84.7094606,137.908643 84.3930338,139.678555 C85.7730656,138.735917 86.5356584,139.012533 86.6230076,140.62977 C86.658975,141.2855 86.7065032,141.996124 87.2297421,142.409118 C90.5687083,145.044044 90.0947104,149.057761 90.7237103,152.575285 C91.0688253,154.504734 90.5297437,156.675204 88.8041687,158.192945 C87.9302484,158.961895 87.2408748,159.875799 87.3881696,161.161955 C87.4044405,161.302622 87.4048687,161.446719 87.396305,161.587815 C87.3620504,162.125179 86.9154562,162.368343 86.5330893,162.401795 C83.7862994,162.642815 83.456599,167.025353 80.0508363,166.149617 C78.9987922,165.879006 79.3828718,165.392676 79.7999215,164.99555 C80.622888,164.211591 81.4569873,163.399756 82.4126903,162.802351 C86.6735332,160.140835 88.0201667,156.252775 87.0559,151.525861 C86.4371765,148.493808 86.5262384,145.263193 84.7762571,142.506898 C84.4349957,141.969106 84.5129249,141.093799 83.3889462,141.879902 C82.5394323,142.473876 82.2940838,141.514083 82.4606468,140.871648 C83.1722859,138.122645 82.3514603,135.728738 81.1191514,133.299665 C80.4254959,131.931596 79.7613851,130.487619 79.5318793,128.89354 C79.4196955,128.115156 79.2779671,127.161367 77.8641089,126.748802 C78.5303607,132.995174 80.4173605,139.319169 75.4611494,144.984433 C75.0085607,142.397967 76.6818974,140.284108 76.3920179,137.969541 C76.0974284,135.617234 76.521329,133.27908 76.725572,130.93921 C76.4455407,130.681893 76.1740731,130.679749 75.91331,130.967515" id="path28" fill="#D8D10F"></path>
                        <path d="M53.6277018,37.4165147 C53.3540933,36.9390629 52.8188653,36.5862813 52.9062145,35.8901958 C54.6364995,35.3923302 54.9717663,37.4121403 56.2284816,37.7299698 C57.0180499,34.5774929 56.9662398,34.4577118 54.5315948,33.7783948 C54.5204621,34.5384664 55.5981971,34.7411465 55.4363442,35.688159 C54.0751524,35.771444 53.2718823,34.9604235 52.9340464,33.8388643 C52.4489158,32.2302896 51.2774088,31.391822 49.9427643,30.6776815 C49.5539747,30.4697693 49.0876841,29.9573224 48.6124017,30.4714847 C48.2814167,30.8299703 49.108665,31.184596 48.7168782,31.6560438 C48.094301,31.7036045 47.7149314,31.2486251 47.3719573,30.8442085 C46.0694265,29.3083259 44.6863974,28.0334915 42.6512466,27.3580342 C41.612048,27.0127576 39.6081544,26.2999465 41.0973728,24.0184449 C39.1161729,25.1793737 37.8761567,23.6033068 36.3860821,23.0045729 C36.0045716,22.8509546 35.6834348,22.4660083 35.770784,21.9774919 C35.8731196,21.4018737 36.2816056,21.1326771 36.8498036,21.1673292 C37.8782976,21.2286564 38.9761573,20.7997947 39.8886139,21.7067515 C40.2422925,22.0585896 40.8391788,22.2515774 41.1581746,21.6424222 C41.5067151,20.9776865 41.0622618,20.5166601 40.4756519,20.3280467 C37.207764,19.2764777 35.4980318,16.5969495 33.7626943,13.9448685 C33.1204207,12.9636757 32.7634879,11.8833301 32.9494903,10.6937534 C33.0466449,10.0710461 33.1212342,9.25873911 33.9021961,9.22824704 C34.7372802,9.19573932 34.8580704,10.0271736 34.8557154,10.6451634 C34.849678,12.4199219 35.1828896,14.6216552 36.4961249,15.2391733 C38.2773636,16.0771262 39.2005248,17.8062968 40.9372325,18.5045266 C41.4840214,18.0410128 40.494492,17.4293702 41.0866682,16.9678292 C42.6683739,17.4560025 43.7923526,18.5889695 45.1445526,20.1328718 C44.875654,18.2038516 43.6707488,17.2908478 42.9569688,16.1942055 C42.0406585,14.7858664 41.5940643,13.4486755 41.6899772,11.8077647 C41.74821,10.8150355 41.6582917,9.46545047 40.2769753,9.71457626 C39.1191702,9.92377502 38.5064412,10.978003 38.8926617,12.3657996 C39.1696957,13.3629031 39.2506222,14.4144292 39.4261769,15.4840962 C38.0521397,15.4582787 38.1317816,14.3822646 37.8898586,13.6583889 C37.5768572,12.7204253 37.2929723,11.731899 37.2540077,10.7542229 C37.2103331,9.65376366 35.453929,9.13175314 36.0927771,8.22428169 C36.7157825,7.3373956 37.5807109,8.92083894 38.4948803,8.72266193 C38.632755,8.69298469 38.7761961,8.6737288 38.9063635,8.62230828 C40.36775,8.04201545 41.5118533,8.03862744 42.7167585,8.62097881 C43.1513636,8.06345854 42.7527258,7.68434475 42.4041854,7.34207019 C41.6039125,6.55721031 41.2673612,5.75914149 41.9545939,4.68968896 C42.2851507,4.17505486 42.6114256,3.51413603 42.1194441,2.90806861 C41.9927021,2.75209159 41.5692297,2.7164103 41.3341576,2.7914611 C40.2953872,3.12164176 41.1928574,3.87733904 41.0164463,4.4060398 C40.9526471,4.59786966 40.8438888,4.77494667 40.7072986,5.06022551 C38.0953861,1.75228621 34.4352403,1.51306712 30.7147208,1.33550121 C29.0354324,1.25576294 28.746238,1.99120508 28.6889044,3.51332119 C28.4813216,9.01630356 30.1363321,13.9715008 32.4841417,18.8531483 C34.4696662,22.982315 35.4556417,27.4446214 35.2663851,32.0672793 C35.076315,36.71524 35.648752,41.3105365 36.5988887,45.8020055 C37.193634,48.6123366 38.3236073,51.3257448 38.705546,54.2239925 C38.7684888,54.7038888 38.9200654,55.1657729 38.9179245,55.6756895 C38.9085044,57.7904068 39.1337284,59.8472277 40.2307316,61.7462275 C42.8747578,66.3221823 43.2828156,71.4552286 43.603096,76.5471041 C44.0034465,82.9161299 45.8322135,88.6307126 49.9881516,93.5879255 C52.2322555,96.2648805 52.5983514,99.737803 53.0783438,103.045185 C53.5138053,106.046788 54.8561571,108.575786 56.4695483,111.022871 C57.0685754,111.930771 57.4094086,112.413241 58.868226,111.542222 C61.0532406,110.238054 63.7293805,111.127084 66.0274353,111.944495 C68.9656228,112.99006 71.5809607,114.66648 72.9181743,117.353728 C76.1543767,114.663049 76.0314884,111.124082 76.3813134,107.486906 C76.6639137,104.556065 77.8045916,101.25726 79.6748922,99.0777847 C81.0801868,97.4399617 81.6265475,95.6155839 82.7158435,93.9841938 C84.6028432,91.1584237 87.4913615,89.411241 90.239436,87.5418326 C90.2959561,87.5032351 90.3892998,87.4496274 90.4338308,87.4706416 C93.5141748,88.9171923 93.4807766,86.045534 94.3649732,84.5668187 C96.0254645,81.7912255 97.2269442,78.91099 97.2783261,75.5229822 C97.3023043,73.9130352 98.2528692,72.2940821 98.5919896,70.6017937 C99.3203279,66.9680481 99.3348861,63.2854123 99.6123482,59.5397338 C98.2631456,60.0869614 97.4714364,61.1917093 96.6878626,62.2805892 C96.2275665,62.9195932 95.8713188,63.7271399 95.1327042,63.999896 C93.8999671,64.4553472 93.3677365,65.1248003 93.9539181,66.3899425 C94.1735757,66.8638347 93.9886009,67.2129282 93.7483906,67.5740298 C91.7903126,70.5151636 89.8296655,73.454582 87.8715875,76.3961447 C87.5731443,76.8443053 87.2207502,77.1745288 86.637994,76.922787 C86.0034277,76.6487443 86.0967715,76.2138785 86.3583909,75.6988155 C87.187352,74.06571 87.7559782,72.3005151 89.1998092,71.013501 C90.7648158,69.6188426 91.833559,65.8637291 91.0769607,64.0414956 C89.4006267,66.6438286 88.1597542,69.3447999 86.0813569,71.413629 C83.0254193,74.4551165 82.613936,78.4666892 81.9078633,82.3899165 C81.7027639,83.5294021 82.3865712,84.457459 82.4854813,85.515032 C82.5325814,86.0159425 82.6404834,86.5468734 82.1497864,86.8869608 C81.5580383,87.2969526 81.2771507,86.7201335 80.9024911,86.4379425 C80.6288825,86.2312311 80.3300112,86.0583999 80.0422727,85.8705584 C79.5357329,86.7179892 79.0587378,87.5045217 78.0165419,87.9363854 C77.7266624,88.0564667 77.4230811,88.7220602 76.7692466,88.9712288 C74.2408297,89.9340235 72.0904978,91.6571899 70.5528948,93.7530373 C69.3193014,95.4341753 69.4314852,97.8190755 69.416927,99.9706749 C69.4057943,101.611071 69.4105043,103.251896 69.3634042,104.891863 C69.3389978,105.745727 69.2662068,106.616316 68.3272028,107.314075 C66.7613399,105.397063 67.1454195,103.139105 67.3920525,101.075423 C67.7320293,98.2324982 67.7902621,95.3771367 68.0934153,92.5376431 C68.3113601,90.4932592 68.9001109,88.7812431 71.3398941,88.5119179 C72.1067687,88.4274321 72.5058347,87.745542 72.9695562,87.2073205 C73.4825187,86.6116315 73.9625111,85.86241 74.7559331,85.7376113 C76.2652759,85.5004507 76.2314495,84.4827618 76.507199,83.2999611 C77.0569852,80.9416504 77.9484609,78.6450957 79.8174769,76.9360817 C80.7997273,76.0380452 80.7676136,74.7870555 81.0403658,73.6544316 C81.1538341,73.1831125 80.9945503,72.5149459 81.4145972,72.2644907 C83.6081755,70.9573201 84.3270937,68.3910114 86.1734161,66.807225 C86.5155339,66.5143124 86.8332452,66.2123937 86.7703024,65.7509385 C86.6838095,65.1222272 86.1468688,65.3671072 85.7602202,65.3006337 C82.5972369,64.7534061 82.1759055,65.2993471 81.4201636,68.5458305 C80.9924094,70.3843608 79.686025,72.0200395 78.7461646,73.7311978 C78.6973518,73.8204011 78.3406759,73.8345535 78.1938094,73.7569296 C77.7806134,73.5382101 77.537834,73.1603829 77.7536379,72.6963545 C79.3113654,69.3495174 79.1036969,65.454595 81.1093032,62.2175466 C81.9690934,60.82975 80.7414945,59.3540367 80.1677301,58.2471445 C79.6958731,57.3379576 77.9266236,57.7976974 76.7598266,58.1249189 C76.1560894,58.2943193 76.3599042,58.9461892 76.3577633,59.4295164 C76.3466306,62.2677234 76.4853617,65.0158695 74.0888249,67.3505928 C73.5283342,67.8965338 73.6203934,70.1236128 73.4289959,71.5804562 C73.314243,72.452761 72.9541416,73.0488788 72.2570607,73.4970393 C68.5352995,75.8879436 67.0640648,79.8017359 65.6626239,83.6576318 C64.6880808,86.3384466 64.7124872,89.2752918 64.3373995,92.1049216 C64.1181701,93.7577548 63.7850442,95.469342 62.6734827,96.6731569 C60.8297294,98.6699372 60.6190637,100.960917 60.7976157,103.440166 C60.8335831,103.937646 60.8134585,104.439843 60.8070358,104.939896 C60.8023258,105.328016 60.6717301,105.662957 60.2294177,105.682256 C59.7849644,105.701983 59.629106,105.380337 59.6068406,104.992646 C59.3927494,101.2534 57.3015066,98.0498031 56.6142739,94.4417893 C56.2447525,92.5024764 56.5029465,90.6386433 56.8253678,88.7169138 C57.2218647,86.3560299 57.1918919,83.9363919 57.7189845,81.572506 C57.9746093,80.427874 58.2700552,79.4337725 59.2090591,78.7205754 C60.0221775,79.3094026 59.2249019,80.2061525 59.8962918,80.7456606 C61.4210493,80.1006525 60.6708738,79.0632359 60.3377479,78.1090185 C60.2037268,77.7256161 59.8444818,77.3091914 60.3407451,76.9819699 C60.7646457,76.702352 61.087067,76.9090634 61.3953583,77.3177686 C61.9083208,77.9975145 62.6143936,77.7573519 63.293919,77.6042483 C63.171887,76.9223581 62.5916999,76.9206426 62.1579512,76.7263683 C61.7708743,76.5531081 61.1050507,76.4724821 61.0309751,76.2151651 C60.5098772,74.4118014 59.6809161,72.9562447 57.8697046,72.1075273 C57.5057496,71.9364114 57.7797864,71.1215741 58.5453764,71.4016208 C59.9112782,71.9016736 59.6261088,71.0821188 59.3430802,70.3809299 C59.1050108,69.7903873 58.6892457,69.2736089 58.4250572,68.6907858 C57.9947339,67.740857 57.330623,66.7021538 59.1426909,66.3942311 C59.6834852,66.3020258 59.5237732,65.6990462 59.5417568,65.3066377 C59.6017024,64.012333 59.8076581,62.8393961 60.7128356,61.7642397 C61.535374,60.7864349 59.9964865,58.2471445 58.4610245,57.7020613 C57.4393814,57.3396731 56.2353325,57.2174475 57.2321411,55.4003603 C57.8303119,54.3101937 56.3291045,53.9186429 55.3763987,53.7595352 C54.6146622,53.6321633 53.7959775,53.8152873 53.1215903,53.2783524 C52.8278572,53.0441938 52.6052023,52.7487081 52.7310879,52.3670211 C52.7820416,52.2122021 53.1395739,51.9977712 53.1601267,52.0179277 C54.2228753,53.0334723 56.0169595,51.7777651 56.9199961,53.2290333 C57.1739083,53.6373096 57.5130287,53.9306511 57.9549129,53.61458 C58.4807209,53.2380393 58.3723908,52.5278443 57.9656175,52.3348565 C57.0647218,51.9077102 56.8202296,49.7955661 54.9465036,51.4912855 C53.8927467,52.4446451 53.4598543,50.2493018 52.1598926,49.5249544 C53.4375889,49.3130967 54.703296,49.2191759 53.6658101,47.7910663 C53.6011545,47.7022919 53.6456855,47.5123062 53.6765146,47.3780725 C54.236149,44.953717 53.6974956,44.2623919 51.0209275,44.0629712 C50.7644463,44.0436724 50.2887357,44.2430931 50.3144266,43.9488939 C50.5494987,41.262504 46.6209254,41.7955791 46.6633155,39.1292599 C46.6735918,38.4796201 45.3196792,38.2154413 44.5078454,37.955937 C43.6159415,37.6703151 42.7454467,37.3640649 42.1070268,36.633842 C41.5491052,35.995224 41.3273067,35.1460778 41.6034843,34.4406002 C41.9738621,33.49496 42.6816475,34.431251 43.2447074,34.4191571 C46.2222876,34.3548278 48.1546747,36.3009596 50.1101836,38.1400474 C51.1519513,39.1199107 52.0948089,40.1440325 53.1708312,38.2217884 C53.5480599,38.0815935 53.8542103,37.9006567 53.6277018,37.4165147" id="path30" fill="#D8D10F"></path>
                        <path d="M137.491502,75.1871835 C138.93362,71.0439502 140.431831,66.9191579 141.797304,62.7506217 C142.586016,60.3434207 141.688546,57.9658112 140.672041,55.9385818 C139.439304,53.4807751 138.109798,51.0727164 137.180214,48.2739646 C136.301583,49.3992979 135.559972,49.8594665 135.20458,48.2379403 C134.850473,46.6232758 134.436421,45.028339 133.544089,43.6281054 C132.610651,42.1639714 131.909717,40.4236504 129.665185,40.4356585 C129.05845,40.4390894 128.059929,39.9226541 128.3588,39.1234274 C128.590447,38.5040652 129.580405,38.494716 130.235095,38.8785044 C131.96067,39.8910041 131.785544,38.4315447 131.523068,37.7145307 C130.59691,35.1842465 129.962343,32.5802408 129.238715,29.9963488 C128.986516,29.0957391 128.158839,28.7225008 127.353856,28.3812555 C124.196868,27.0422633 120.776975,26.5564059 117.508659,26.8934912 C115.771951,27.0727554 113.746649,27.7426803 112.010369,28.6441048 C111.484561,28.9168609 110.870976,29.3088405 110.861984,29.8405862 C110.799469,33.702186 107.038315,35.9073074 106.583157,39.5834245 C106.468833,40.5064207 105.587633,40.9146971 104.972763,41.4859409 C103.524222,40.0745569 102.986854,37.4413029 103.849213,35.6859718 C104.052599,35.272206 104.262837,34.9019697 104.038469,34.5005979 C103.111883,32.8482794 103.554623,31.5950596 104.986465,30.4620927 C105.855247,29.7745844 105.521693,28.7761085 105.243375,27.8884076 C105.118774,27.4905525 104.884558,27.1263631 104.700439,26.7469062 C107.113675,25.8483122 105.273347,22.7527882 107.317918,21.6558456 C107.498183,21.5593517 107.632204,21.375756 107.787634,21.2330308 C109.681485,23.4260582 110.811458,19.772199 112.763542,20.6021323 C113.858404,21.0678332 115.226447,20.2499939 116.763193,20.9361727 C117.906012,21.4460893 118.351322,22.3054854 119.17857,22.9017318 C119.824697,23.366618 120.512786,24.1380545 121.231705,23.6740261 C122.115045,23.1035971 121.302355,22.2518776 120.998345,21.6454671 C119.323724,18.304677 113.779619,15.9948705 110.667589,17.897773 C109.007954,18.9122883 108.094213,19.3265688 106.625547,18.1073577 C105.945166,17.5421179 105.472452,18.8690591 104.709431,18.5166205 C106.456415,14.6370943 106.851628,14.427338 110.640185,15.1324725 C111.893475,15.3656446 113.196006,15.7988807 114.423605,15.1877527 C115.465373,14.6687443 115.687599,15.7353663 116.376545,16.0818008 C117.056926,14.6885148 116.020725,14.2904882 115.222165,13.757413 C114.756303,13.4470029 114.096045,13.1198243 114.40819,12.4498994 C114.744313,11.7306982 115.244859,12.4515719 115.67561,12.4952729 C116.934466,12.6222589 118.104261,12.5643197 118.732832,11.1842426 C119.053541,10.4804804 119.808426,10.2874927 120.385188,9.88393376 C121.345173,9.21280801 121.209867,8.41388147 120.43186,7.76239759 C119.457317,6.9462308 116.218545,7.93394229 115.715003,9.15285314 C115.551437,9.54822079 115.464516,9.96970611 115.06074,10.205237 C114.336684,10.0636697 114.264321,8.76469038 113.424227,9.08852388 C112.726718,9.35690556 113.155329,10.2198183 113.075259,10.8119906 C112.937384,11.8327244 112.602545,12.5741835 111.405347,12.6475617 C110.483471,12.7036997 109.572727,12.9379011 108.651278,12.9928383 C108.042403,13.0288627 107.387284,13.1742468 106.668366,12.7058869 C107.609082,11.5012143 108.98526,11.7186472 110.123797,11.6977187 C111.586468,11.6694139 111.773584,10.9257676 111.73462,9.79009881 C111.689232,8.46315768 111.08678,8.42078614 110.061711,8.94228203 C109.221617,9.36929966 108.996821,8.09343597 108.225665,8.14232621 C107.485338,8.51976743 108.108771,9.54470412 107.403127,9.95645428 C107.27981,9.91056607 107.126949,9.89898681 107.04431,9.81707421 C106.455559,9.22957651 106.822939,7.69639577 105.40694,7.96777948 C103.920719,8.25305831 104.221303,9.49675738 104.262409,10.5581902 C104.29281,11.3557873 104.333487,12.2610715 103.36451,12.5065091 C101.289967,13.0322078 100.935004,14.7591912 100.633135,16.4168705 C100.275175,18.3830729 100.690083,20.3508193 101.865872,21.9332762 C103.331112,23.9051825 103.632981,26.208985 104.28339,28.4352063 C104.433254,28.9490255 104.193471,29.0061499 103.92286,29.2153487 C100.919161,31.5466411 100.092769,37.7406913 102.464471,40.756876 C103.122587,41.5940141 103.192809,42.2771909 102.967157,43.2867314 C102.473891,45.4889365 101.763108,47.5509037 100.762874,49.5987186 C99.5596818,52.0625293 101.373891,54.7446307 100.428036,57.2950715 C101.451392,57.5065003 101.818344,56.688661 101.719006,56.5591447 C100.696506,55.2240981 102.26922,53.9169275 101.689461,52.6183341 C101.468091,52.1217122 101.455245,51.5251655 102.065405,51.3652001 C104.16564,50.8136839 101.640648,49.4726332 102.582649,48.5840317 C103.123016,48.0749728 104.76167,47.9227269 103.713907,46.2677494 C103.39748,45.7685543 103.866768,43.8729854 104.819902,43.6006582 C107.526871,42.8265628 108.350266,40.2872724 109.648943,38.4422662 C111.031544,36.4785512 112.956652,35.3888135 114.662102,33.8732161 C114.391919,35.4596615 113.386119,36.6561 112.361907,37.7780452 C110.871832,39.4107218 110.235125,41.3830141 109.764124,43.4544163 C109.685767,43.7983635 109.785105,44.3018472 109.582147,44.4798248 C107.698572,46.1335157 107.389425,48.2203569 107.657467,50.5658018 C107.726404,51.1679237 107.268249,51.979759 108.123329,52.1594521 C108.90048,52.3232772 109.005385,51.5208769 109.258441,50.9118932 C110.22913,48.5745967 110.757507,45.9945645 112.364904,43.9969265 C113.458054,42.6374347 114.893321,41.5361178 116.257082,40.4189329 C117.058211,39.7628602 118.165062,39.6933417 118.70029,40.638939 C119.241513,41.5948718 118.043459,41.7737072 117.514225,41.9624063 C115.628938,42.6340038 115.926097,43.9887781 116.427927,45.3212515 C115.591258,45.7119446 115.709008,44.4540931 115.153656,44.7933227 C114.521659,45.1797272 114.931857,45.7827068 115.071017,46.3012006 C115.264555,47.0225461 115.874287,47.9686151 114.234348,47.5363224 C113.795889,47.4201009 113.468758,48.0989891 113.670432,48.4725276 C114.38935,49.8062877 113.410954,51.4411086 114.683512,52.6818057 C112.901417,52.8868016 113.390829,51.0504156 112.319088,50.4461494 C112.052759,51.7481736 112.590556,52.6629357 113.109085,53.5832731 C113.394254,54.0897588 114.406478,54.2072669 114.050658,55.013527 C113.726524,55.7481671 112.81578,54.9024518 112.299392,55.4762688 C112.245013,56.3198398 112.907839,57.1110898 113.331312,57.42373 C114.209085,58.0708824 114.367085,58.4079677 113.556536,59.139177 C113.089817,59.5594615 113.261518,60.4098943 113.725239,60.1577236 C115.613524,59.12674 116.282773,61.1346707 117.069772,61.7209247 C119.448753,63.4946968 122.230226,64.7302475 124.291068,66.9410298 C126.086865,68.8661902 128.911584,69.1359442 130.80415,70.9131473 C132.639768,72.635885 134.628247,74.161775 136.683094,75.6070391 C137.160945,75.8695025 137.288544,75.4560798 137.491502,75.1871835" id="path32" fill="#D8D10F"></path>
                        <path d="M137.491502,75.1871835 C137.221747,75.3274213 136.952421,75.4672302 136.683094,75.6070391 C136.768302,75.9964456 136.853082,76.3858521 136.938719,76.7756874 C136.670677,76.7713988 136.289594,76.882474 136.151291,76.7460959 C134.140975,74.7711876 131.284142,74.8496693 128.931708,73.7204763 C127.530696,73.0471634 126.12797,72.3768525 124.726529,71.7048261 L124.643462,71.7970314 C126.748406,73.1500902 125.326841,74.968464 125.274603,76.6821955 C122.950429,75.7018176 121.926645,72.9236512 119.088652,72.3185273 C119.231237,73.8761531 120.275573,74.6356673 121.153347,75.4933908 C121.586668,75.917535 122.519249,76.3845655 121.027462,76.5878459 C120.899435,76.6050004 120.687057,76.683911 120.674211,76.7611061 C120.571876,77.3597971 123.265999,80.4330203 123.932251,80.5119309 C124.210998,80.5453821 124.493598,80.5711138 124.765066,80.6380163 C126.929528,81.172378 128.966819,80.4454573 130.231242,78.7445917 C130.728362,78.0759962 130.338287,77.52448 130.129334,76.9438012 C129.979042,76.5248033 129.789786,76.1096651 130.262071,75.8094619 C130.682974,75.5418521 131.06791,75.7794415 131.451562,75.9960167 C134.296834,77.6008174 136.332841,82.5391604 135.377566,85.635971 C134.805514,87.4899404 134.564448,89.11018 136.250202,90.714123 C137.335644,91.7472509 137.12926,93.5094438 137.179785,95.0035981 C137.211043,95.9325127 137.474375,96.4625858 138.277645,97.2066609 C139.453862,98.295112 140.341056,99.7733985 141.506997,101.002945 C142.165969,101.69813 142.666514,102.732545 143.410267,103.480051 C143.937788,104.010981 144.42249,104.898725 145.326812,104.49002 C146.357447,104.024276 146.225995,102.982142 146.14464,102.043793 C146.132223,101.90141 146.117236,101.756884 146.079128,101.620506 C145.408594,99.2218823 143.472354,97.2302483 144.389092,94.1115657 C142.985939,95.0636388 143.683448,97.0882951 142.452423,96.6911691 C141.176012,96.2803196 142.684498,95.0220392 142.605284,94.0961267 C142.538916,93.3198869 142.885316,92.3896858 142.569745,91.7738403 C141.442341,89.5784971 141.593489,86.9628693 140.032765,84.888465 C138.812445,83.266081 139.504388,80.8850406 138.418089,79.2214859 C137.557014,77.9031649 137.358338,76.6333053 137.491502,75.1871835" id="path34" fill="#D8D10F"></path>
                        <path d="M118.536297,81.5707906 C116.067397,80.0577663 113.565956,79.4496404 110.811458,79.9818578 C109.248164,80.2842053 108.574634,81.5068902 108.644427,83.1755912 C108.678682,83.9762761 107.983742,84.8987577 107.872414,85.9005787 C107.767938,86.8449323 107.938783,87.7185237 107.869417,88.8348508 C108.635435,88.3759687 109.202777,87.7433977 109.75342,87.7571212 C112.40815,87.8248814 112.43427,86.6510868 111.362957,84.7683837 C111.158286,84.4081399 111.067083,83.9604082 111.014417,83.5409814 C110.901805,82.6485201 110.451785,81.4841605 111.309434,80.9712418 C112.102856,80.4964919 112.85346,81.38638 113.411382,82.0331035 C113.682421,82.3474592 113.994566,82.4186502 114.349101,82.3912031 C115.756108,82.2827011 116.951594,82.5944835 117.989508,83.6837924 C118.408698,84.1238045 119.21625,83.9947171 119.681684,83.3638615 C120.703328,81.9794958 120.796671,80.523939 120.161677,78.9247136 C119.524113,77.3181975 117.942836,78.6429514 117.037658,77.8178214 C116.788028,77.5905247 116.448051,78.0824291 116.315315,78.4169413 C116.090519,78.9847542 116.409943,79.3552908 116.806012,79.7039554 C117.387483,80.2160163 118.501614,80.1744167 118.536297,81.5707906" id="path36" fill="#D8D10F"></path>
                        <path d="M49.327038,95.2326103 C49.327038,100.916315 49.3771354,105.964875 49.2927835,111.010863 C49.2709461,112.310314 49.9847262,112.443261 50.9036056,112.758046 C51.9860506,113.12944 52.3619947,112.642253 52.8895154,111.818838 C53.7779939,110.432328 53.9835214,109.132877 53.1036066,107.701766 C51.6049683,105.264973 51.2410133,102.527977 51.0175021,99.7502399 C50.9036056,98.335425 50.5781869,96.9776488 49.327038,95.2326103" id="path38" fill="#CFCA12"></path>
                        <path d="M59.2788529,98.6810876 C60.9431978,96.1924029 61.2163781,93.4472589 61.676246,90.5610193 C62.0620383,88.1400948 60.781773,86.2303734 61.1799826,84.0453228 C61.3542528,83.0898189 60.0812666,82.9958981 59.9151319,82.1180181 C58.9127569,84.5239325 59.0249407,84.4754712 60.0560039,86.8629445 C60.59166,88.1044992 60.1450658,89.5296068 59.84962,90.8406372 C59.2715738,93.409519 58.5406664,95.9565289 59.2788529,98.6810876" id="path40" fill="#D5CE10"></path>
                        <path d="M141.792166,83.3891644 C141.792166,78.5301608 141.792166,74.0618503 141.792166,69.4918995 C138.296913,73.6312731 138.264371,77.0016975 141.792166,83.3891644" id="path42" fill="#D0CC12"></path>
                        <path d="M66.3057538,123.006555 C65.6870303,123.299467 65.3817363,123.556355 65.0605995,123.578227 C62.1982003,123.773788 62.4718088,125.832325 62.5253316,127.777642 C62.5595862,129.026916 63.0006141,129.775708 64.4320278,129.730249 C65.9358043,129.682217 66.6744189,129.026058 66.6123324,127.512605 C66.5553842,126.116231 66.0000316,124.769176 66.3057538,123.006555" id="path44" fill="#FCFBFD"></path>
                        <path d="M107.869845,94.5755941 C108.533956,94.5936063 109.181796,94.5172689 109.497367,93.8293747 C109.783821,93.2053808 109.48238,92.7323463 108.959141,92.385826 C107.537576,91.4453322 108.486,89.4374016 107.177474,88.4334362 C106.929985,88.2434505 107.062722,87.6593408 106.584014,87.67092 C106.068482,87.6829281 105.949447,88.1405236 105.811573,88.5419382 C105.227104,90.2526677 105.481872,91.8982102 106.19394,93.5085861 C106.515933,94.2355068 107.068716,94.600897 107.869845,94.5755941" id="path46" fill="#D5CC10"></path>
                        <path d="M138.011744,105.1153 C139.232492,104.288884 139.53907,103.436307 138.201857,102.414329 C137.885002,102.172451 137.510342,101.704992 137.533036,101.36662 C137.727859,98.4889575 134.843622,97.4879942 133.882353,95.3098054 C133.664836,94.8170433 132.680017,94.2179234 132.061722,94.8607872 C131.390332,95.5581164 132.237276,96.0448745 132.739106,96.3154862 C135.606215,97.8598174 135.931634,100.943333 137.151097,103.482624 C137.418283,104.038857 137.325367,104.782504 138.011744,105.1153" id="path48" fill="#D2C612"></path>
                        <path d="M43.3902894,6.76443631 C44.8024349,6.28449713 43.8240381,4.63222148 44.997686,4.08104837 C45.7619916,4.81062797 45.3171101,5.53866367 45.0700488,6.34329408 C44.7120884,7.51061286 45.9786519,9.16524725 47.033265,9.00390946 C47.6014631,8.91732227 48.1790811,8.6737288 48.3113894,8.03511078 C48.4334214,7.44594051 47.8733589,7.37509255 47.490992,7.28430252 C46.4034088,7.02612775 46.1405048,6.31850587 46.4595007,5.36630413 C46.899244,4.05441605 46.8778348,2.72627412 45.3509365,2.48705503 C44.0252838,2.27982904 43.8535827,3.87099189 43.3633139,4.77327411 C43.0854235,5.28439154 43.0704371,6.00071931 43.3902894,6.76443631" id="path50" fill="#D5CC10"></path>
                        <path d="M65.4759364,119.344075 C64.7750018,119.450862 64.0774928,119.607825 63.3727046,119.654142 C61.99096,119.745061 60.6683047,119.668724 59.8860155,118.214882 C59.6796316,117.830622 59.4873777,117.151305 58.8592341,117.40562 C58.2970307,117.633775 58.1887005,118.312663 58.0649558,118.849598 C57.8936829,119.5911 58.5719237,119.586382 59.013808,119.688451 C60.6443265,120.063277 62.1236966,121.170169 63.9353362,120.698421 C64.3095676,120.60064 64.6294198,120.799203 64.7583027,121.193327 C64.9377112,121.739268 65.1783496,122.189573 65.7465477,121.568581 C66.1593155,121.11699 66.7570581,120.728441 66.6191833,119.964209 C66.4954386,119.278888 66.0047416,119.289181 65.4759364,119.344075" id="path52" fill="#F8F4F8"></path>
                        <path d="M51.8567395,8.31219835 C52.3380165,8.28440811 52.9173473,8.4417146 53.226495,7.97464127 C53.6067209,7.40039539 53.0265338,7.07287368 52.7041125,6.76310684 C51.7839485,5.87707847 52.20528,4.39583289 51.2345905,3.5505035 C50.9250147,3.28130699 50.6355634,2.85244524 50.169701,3.03972917 C49.6259093,3.25849154 49.8207323,3.72672279 49.9847262,4.11269837 C50.2317874,4.69303408 49.9804443,5.17383098 49.815166,5.72277402 C49.2473961,7.61143826 49.817735,8.29328555 51.8567395,8.31219835" id="path54" fill="#D7CE10"></path>
                        <path d="M60.051722,122.454181 C59.8907255,123.84841 59.6672143,125.112695 59.6299624,126.382554 C59.610266,127.052865 59.7922435,128.037103 60.7059847,127.905871 C61.9627,127.724892 60.8759731,126.949938 60.8537076,126.458892 C60.8203094,125.729398 60.9136532,125.055656 61.1979663,124.382343 C61.4176238,123.861705 61.5923222,123.311047 61.7032215,122.757386 C61.8774917,121.887226 61.695086,121.119563 60.6404728,121.070244 C59.20178,121.003341 60.2521114,122.083644 60.051722,122.454181" id="path56" fill="#D4CB11"></path>
                        <path d="M76.8583085,52.1272874 C75.4153339,53.4567588 74.5790937,54.7442018 75.3211338,56.5509963 C75.5711923,57.15998 75.9509901,57.8474454 76.692602,57.5236548 C77.3010491,57.2581893 77.9942764,56.511541 77.5994922,55.8528094 C76.925105,54.7300494 77.4718939,53.4760576 76.8583085,52.1272874" id="path58" fill="#D4CB11"></path>
                        <path d="M97.6696848,58.317049 C97.5891865,57.7573844 97.6898094,56.7203967 97.0937795,56.9772849 C95.9916381,57.4520349 94.7657519,58.1510795 94.6351563,59.6250773 C94.5683598,60.3790163 94.8248411,61.2165833 95.768555,61.0051544 C97.1228959,60.7015203 97.6003193,59.5860509 97.6696848,58.317049" id="path60" fill="#D2C812"></path>
                        <path d="M51.198195,13.4846999 C50.8252482,12.5854197 51.4756572,11.0247489 50.1315927,11.0633036 C49.1677542,11.0907507 48.9146984,12.5416758 49.0071858,13.5525458 C49.0791204,14.3424234 49.0350177,15.5525854 50.1337336,15.5651511 C51.646502,15.5827773 50.8350964,14.1816002 51.198195,13.4846999" id="path62" fill="#D1C512"></path>
                        <path d="M88.1511906,58.0147015 C87.5705752,58.9414717 86.9608435,59.8510875 86.4174801,60.7993008 C85.9871568,61.5506666 85.8882467,62.386947 86.8940471,62.6905811 C87.7979401,62.963766 88.4530591,62.2660079 88.5789447,61.4940568 C88.7527868,60.4266199 88.6226193,59.3094351 88.6226193,58.2132645 C88.4654764,58.1472197 88.3083335,58.081175 88.1511906,58.0147015" id="path64" fill="#D6CD10"></path>
                        <path d="M124.726529,71.7048261 C124.45078,71.3934725 124.034158,71.1245762 123.9254,70.7626168 C123.479234,69.2800418 122.849378,68.5025154 121.240696,69.5622328 C120.935831,69.763369 120.3094,69.4756028 119.83112,69.4151332 C119.688964,71.3548749 119.667983,71.2999806 121.398268,70.6206636 C122.756462,70.0871596 123.496789,71.5714501 124.64389,71.7966025 C124.643462,71.7970314 124.726529,71.7048261 124.726529,71.7048261" id="path66" fill="#D8D10F"></path>
                        <path d="M149.883528,117.260236 C150.15885,115.199127 150.422182,113.140161 149.012605,111.288336 C147.14573,113.742283 148.973213,115.403694 149.919068,117.23236 C149.917783,117.233218 149.883528,117.260236 149.883528,117.260236" id="path68" fill="#D6CD10"></path>
                        <path d="M60.9547587,116.863539 C62.4585352,119.76822 65.1214014,117.855067 67.2284869,118.391145 C65.3239317,117.200195 62.998045,117.666368 60.9547587,116.863539" id="path70" fill="#F7F2F7"></path>
                        <path d="M83.2181014,55.2511164 C82.2683929,56.3095472 81.4291554,57.1484007 81.8316468,58.5306221 C81.9969252,59.0984351 82.3287666,59.3720489 82.9016746,59.3081485 C83.4184907,59.250681 83.6501374,58.8591302 83.5841973,58.410112 C83.4441817,57.4563235 83.8042831,56.4545024 83.2181014,55.2511164" id="path72" fill="#D1C412"></path>
                        <path d="M53.9663941,148.529404 C55.7146627,147.166052 57.0749982,147.089286 58.0071512,149.12252 C58.2700552,147.429802 58.011433,146.678436 56.9837953,146.610676 C55.8187111,146.533481 54.4065656,146.340065 53.9663941,148.529404" id="path74" fill="#EBDBED"></path>
                        <path d="M50.2407792,129.373865 C49.9324879,128.115585 48.7335773,127.886144 47.7359123,127.513892 C47.2846081,127.345349 46.6213536,127.861698 46.8059002,128.341595 C47.2623426,129.528684 48.6380926,129.398739 49.5646793,129.939963 C49.9992844,130.19342 50.1594246,129.816021 50.2407792,129.373865" id="path76" fill="#F5EEF6"></path>
                        <path d="M52.6600097,3.42184498 C52.9678728,4.26884693 52.4968722,5.63013988 53.9184377,5.88964412 C54.3513301,5.96855468 54.672895,5.31737101 54.5170366,4.74329668 C54.2472817,3.74786568 54.2952382,2.42474142 53.0278183,2.19324185 C52.296911,2.06020894 52.7396516,2.92397938 52.6600097,3.42184498" id="path78" fill="#D1C612"></path>
                        <path d="M46.2758104,146.27016 C46.2963632,145.336528 45.5825832,144.886652 45.0143851,144.385313 C44.56565,143.989044 43.9195228,143.309727 43.4022785,144.024211 C42.8991642,144.719825 43.1646373,145.586126 44.0445521,145.954089 C44.7339257,146.242713 45.4494184,146.716176 46.2758104,146.27016" id="path80" fill="#D5CC10"></path>
                        <path d="M43.690017,12.1136717 C43.690017,13.1292164 43.6591879,13.8302767 43.7002934,14.5268339 C43.7306944,15.0500452 43.628787,15.8447689 44.3956616,15.791976 C45.082038,15.7447584 45.4083129,15.0436552 45.356931,14.3693988 C45.28414,13.4203706 44.8161367,12.6827284 43.690017,12.1136717" id="path82" fill="#D0C313"></path>
                        <path d="M58.2272369,50.4405742 C58.4122117,48.4437939 57.1704828,47.6696984 55.7973019,46.9852351 C56.36079,48.2194992 56.762425,49.5631231 58.2272369,50.4405742" id="path84" fill="#D0C513"></path>
                        <path d="M53.1459967,128.499416 C52.4703249,128.813343 52.1714536,128.867379 52.0048906,129.045357 C51.4508226,129.637615 50.6788098,130.15568 50.8209664,131.10132 C50.8543646,131.323899 51.3981562,131.680712 51.6246647,131.627105 C52.6206169,131.390802 52.1312044,130.293773 52.6052023,129.713095 C52.7683398,129.513674 52.8282853,129.229339 53.1459967,128.499416" id="path86" fill="#EBDDED"></path>
                        <path d="M46.7271146,124.601063 C46.5468499,124.658959 46.3169159,124.665392 46.1961685,124.783329 C45.4644048,125.498241 44.4307726,126.182705 44.7202238,127.323906 C44.8880713,127.986068 45.6352496,128.259682 45.9551018,127.175949 C46.1122448,126.64416 46.3331869,126.130812 46.5391426,125.614034 C46.6624591,125.305254 46.9531949,125.037644 46.7271146,124.601063" id="path88" fill="#F3E9F3"></path>
                        <path d="M48.2103384,3.12164176 C47.9470062,3.57632098 47.8146979,3.69725999 47.8206924,3.81082258 C47.8635107,4.62398734 47.4404665,5.50752831 48.1388319,6.21549328 C48.1979211,6.27510506 48.6051226,6.15416605 48.6449435,6.04257622 C48.9862049,5.09020294 49.0161776,4.16463352 48.2103384,3.12164176" id="path90" fill="#CBBB15"></path>
                        <path d="M141.695825,108.114759 C142.190376,106.219191 141.951878,105.81606 140.168498,105.418506 C140.435684,106.462355 140.997888,107.254034 141.695825,108.114759" id="path92" fill="#C3B118"></path>
                        <path d="M111.29402,78.3731974 C111.295304,77.8379779 111.27989,77.3100491 110.565682,77.3863865 C110.06428,77.4399942 109.608266,77.6587137 109.591995,78.2634088 C109.573583,78.932862 110.015039,79.3128335 110.600364,79.3707298 C111.320139,79.4419209 111.200676,78.7874778 111.29402,78.3731974" id="path94" fill="#C4B218"></path>
                        <path d="M75.91331,130.967515 C76.1839213,130.95808 76.4545326,130.948645 76.725572,130.93921 C76.4425434,130.031739 77.2089899,128.994751 76.2614223,127.953046 C75.6165796,128.989605 76.0430493,130.025306 75.91331,130.967515" id="path96" fill="#935F2D"></path>
                        <path d="M115.36475,78.5854839 C114.763153,77.5502117 114.286158,76.7881244 113.22341,76.7936996 C113.098809,76.7941284 112.84404,77.1685247 112.871016,77.2045491 C113.413523,77.934043 114.062219,78.5142929 115.36475,78.5854839" id="path98" fill="#C6B517"></path>
                        <path d="M61.4141984,65.9988206 C61.8813453,64.8533309 61.603455,64.2499224 60.7993285,63.8673777 C60.6635947,63.8034773 60.2636723,63.9428574 60.2529678,64.0239122 C60.1339331,64.9198044 60.903805,65.2208654 61.4141984,65.9988206" id="path100" fill="#CCBF14"></path>
                        <path d="M53.6277018,37.4165147 C53.4752689,37.6848964 53.322836,37.9534067 53.1708312,38.2217884 C53.8447903,38.3363803 54.1183988,39.3480651 55.1152074,39.0044611 C54.853588,38.2239756 54.2515636,37.8110246 53.6277018,37.4165147" id="path102" fill="#B79D1C"></path>
                        <path d="M133.34584,126.940932 C131.512364,125.431339 130.488579,123.459004 128.996364,121.84777 C127.8407,120.600211 126.63922,119.285321 127.349574,117.314273 C127.412945,117.137582 127.458761,116.786773 127.397103,116.757181 C125.218083,115.709472 126.341205,113.161604 125.09391,111.703475 C124.460628,110.96283 124.942761,110.223044 125.084061,109.47854 C125.413334,107.751085 125.242061,106.370579 123.308389,105.519717 C121.924932,104.911162 122.100915,103.211154 121.710841,101.958449 C121.233846,100.425268 121.031743,98.769862 119.403794,97.8310836 C118.702431,98.7411283 119.270629,99.5379534 119.634156,100.048299 C121.281802,102.35729 120.597138,105.559172 122.642994,107.678607 C121.623063,108.352778 122.812126,109.762875 121.919366,110.274507 C121.003912,110.799863 121.244122,111.367676 121.653036,111.79954 C123.486941,113.735421 123.403874,116.579633 124.801889,118.59271 C126.747978,121.395321 128.820809,124.170485 131.341519,126.526223 C131.777408,126.933642 132.382002,127.282735 133.34584,126.940932" id="path104" fill="#4D2164"></path>
                        <path d="M154.285243,136.767441 C150.712061,135.982196 147.066517,137.536819 143.611085,135.899854 C143.068578,135.642966 142.639111,135.93159 142.192517,136.112998 C141.225681,136.505407 140.367175,137.061641 140.237864,135.228686 C140.176206,134.364529 138.908358,134.462738 138.175738,134.195986 C136.780719,133.687356 135.401544,132.740859 133.322719,133.806151 C135.435799,134.328076 137.009369,135.025405 138.259661,136.27811 C138.14448,137.117393 137.122837,136.652078 136.626574,137.467344 C137.627664,137.367419 138.295629,137.534675 138.80645,138.306626 C139.198665,138.898884 139.883329,139.485138 140.704583,138.612834 C141.084381,138.209704 141.621321,138.154809 142.012252,138.645856 C142.419453,139.157059 142.024669,139.585063 141.750632,139.98948 C140.878853,141.273492 139.411472,141.758534 137.629377,142.765931 C139.953123,142.743201 141.217545,141.758534 142.452851,140.76186 C144.153592,139.390789 145.914706,138.683596 148.240164,138.520628 C150.254334,138.379104 152.715955,138.468307 154.285243,136.767441" id="path106" fill="#4E2164"></path>
                        <path d="M110.345596,149.925778 C109.751707,151.566603 110.507449,152.838607 110.578527,154.162932 C110.724965,156.897783 110.089115,159.534425 109.646802,162.19637 C109.624109,162.334892 109.627106,162.523162 109.540613,162.600358 C106.727027,165.113487 107.251122,169.358361 104.685881,172.001007 C104.632358,172.05633 104.720564,172.249747 104.777512,172.585546 C105.713947,172.165261 106.528778,172.199141 106.840495,170.699412 C107.217295,168.882324 108.536954,167.30926 109.87588,165.915888 C110.164475,165.615256 110.746375,165.363943 110.760505,165.068886 C110.876542,162.689561 112.430416,160.707791 112.4788,158.291584 C112.535321,155.445228 112.121696,153.304779 110.345596,149.925778" id="path108" fill="#4E2164"></path>
                        <path d="M134.605125,125.81903 C134.78068,124.676113 134.080601,124.016953 133.684105,123.347929 C131.919993,120.366911 132.899246,117.365736 133.41435,114.3577 C133.474723,114.006462 133.686674,113.627777 133.226806,113.473816 C132.823886,113.338724 132.554559,113.680527 132.421823,114.00732 C131.826221,115.470596 131.317969,117.015785 131.426299,118.572982 C131.611702,121.249079 131.730737,124.048689 134.605125,125.81903" id="path110" fill="#561F61"></path>
                        <path d="M151.335495,138.961498 C149.877534,139.633953 149.114085,141.090368 147.595322,141.250333 C148.381036,143.305868 146.172472,143.540455 145.44499,144.661071 C144.596332,145.968241 143.2801,146.917741 141.760909,147.486841 C141.396097,147.624077 140.777374,147.677255 140.967059,148.259221 C141.188001,148.938109 141.808865,148.645625 142.235763,148.498955 C142.696915,148.340276 143.177336,148.098398 143.522879,147.76217 C145.963947,145.385418 148.380608,142.983792 150.780571,140.565441 C151.111127,140.232216 151.439971,139.82351 151.335495,138.961498" id="path112" fill="#581E5F"></path>
                        <path d="M137.390879,151.79004 C138.946894,151.67682 139.618712,150.914733 140.44853,150.116192 C138.845415,149.603702 138.252382,150.600377 137.390879,151.79004" id="path114" fill="#522062"></path>
                        <path d="M48.540467,68.1203996 C47.3907973,66.9075786 46.1987376,65.783532 46.6568927,63.872524 C46.685581,63.7528716 46.6200691,63.5757517 46.5391426,63.4706806 C43.8715664,59.9934696 43.7546726,55.7674659 43.0875644,51.703572 C42.9359879,50.7768018 43.1188218,49.9057836 43.3478993,48.9901638 C44.0770939,46.0751905 43.098269,43.0997477 43.511465,40.1551829 C43.5504296,39.8794677 43.2708265,39.5591509 42.966817,38.8672682 C42.2461861,41.0720894 42.0526476,43.1040363 40.5822694,44.7598715 C39.0198319,42.8917497 39.4771306,40.6646707 39.6428372,38.7892154 C39.750311,37.5699615 39.7006418,36.3523801 39.4458733,35.3244842 C38.7363751,32.4665067 39.4107624,29.5507615 38.7813343,26.7241337 C38.6965542,26.3424896 38.8721089,25.8213368 37.7639729,25.6904911 C38.257239,28.833576 37.0690329,31.7940515 37.3683324,34.915393 C37.5897027,37.2257141 37.6869001,39.5492442 37.7909484,41.8689145 C37.8590294,43.3806521 38.0589906,44.7826012 38.9817236,46.0996356 C40.5373102,48.3202817 40.571993,51.0757184 41.1624565,53.6047161 C41.7726164,56.2199151 41.9263338,58.9320367 43.8608618,61.0510426 C44.3031742,61.5356564 44.4020843,62.1566482 44.4847235,62.8205262 C44.798153,65.3448064 46.1396484,67.1511721 48.540467,68.1203996" id="path116" fill="#4D2165"></path>
                        <path d="M53.64697,97.6492463 C53.0659266,94.5974661 53.4928244,91.4749237 52.3654202,88.5187797 C51.6242365,86.5751783 52.20528,84.3896988 52.463474,82.4019246 C52.8394181,79.5113965 52.7858953,76.4960695 54.3346309,73.7762283 C55.0115873,72.5874236 56.2353325,71.8489236 56.6421058,70.507873 C56.7602841,70.1180376 57.1632037,69.7329198 56.6853522,69.381682 C56.3470881,69.1329422 56.0096804,69.4374341 55.7245109,69.6188426 C54.5941095,70.3393303 53.5728945,71.0237937 52.0177361,70.8453872 C50.9387165,70.721875 51.0705967,71.8553566 51.5548709,72.5839927 C52.2647973,73.6514296 52.5092895,74.4859945 50.951562,75.0104924 C50.1217445,75.2901103 50.1196036,76.0822179 50.2352129,76.823291 C50.3820794,77.7612117 50.4788486,78.6819778 49.653313,79.3930306 C49.2456834,79.7442684 49.2152824,80.1255265 49.6306193,80.4566077 C50.3923558,81.0634471 50.2904484,81.5939491 49.6139202,82.1956421 C49.4362245,82.3534632 49.2966371,82.8912559 49.3741381,82.9508677 C51.3758907,84.4969142 49.2418297,86.5305766 50.0519508,88.3124972 C50.8954701,90.168182 51.0774476,92.2936208 51.5386,94.299836 C51.8177749,95.5143725 52.9164909,96.5397809 53.64697,97.6492463" id="path118" fill="#4D2165"></path>
                        <path d="M93.728266,78.5464575 C92.6723683,79.3295591 93.174198,80.9343597 92.0596393,81.6132479 C91.0328579,82.2380994 89.9979411,82.850514 88.9899998,83.504957 C88.7891823,83.635331 88.5558229,83.9488289 88.581942,84.1461053 C88.6371775,84.5728228 89.0469481,84.5921216 89.4139004,84.6049874 C91.6036251,84.6826114 94.5204034,80.6826179 93.728266,78.5464575" id="path120" fill="#581E5F"></path>
                        <path d="M70.8907307,82.7475872 C71.3360404,79.776433 72.3726699,77.1170613 74.8501332,74.9165717 C71.7633664,75.4672302 69.5458099,79.9398293 70.8907307,82.7475872" id="path122" fill="#532062"></path>
                        <path d="M36.1822672,4.72266843 C36.8001344,5.6356722 35.9009514,7.35965353 37.7391384,7.53943237 C38.623335,7.62601956 39.0288237,7.01707876 38.9204935,6.1937071 C38.7560715,4.94649137 38.1005243,3.79894311 37.0189356,3.34177649 C36.3269929,3.04877815 36.3368411,4.13598556 36.1822672,4.72266843" id="path124" fill="#542061"></path>
                        <path d="M74.7640685,80.7589553 C75.8186817,80.2910671 76.0627457,79.2017583 76.5123372,78.2745592 C76.7071602,77.871858 76.3637579,77.4048276 76.0965721,77.5279109 C75.0899153,77.9919393 74.5551155,78.9127055 74.2682333,79.959557 C74.1693232,80.319372 74.2588133,80.6598882 74.7640685,80.7589553" id="path126" fill="#5E1D59"></path>
                    </g>
                </g>
            </g>
        </g>
    </g>
</svg>