<?xml version="1.0" encoding="UTF-8"?>
<svg width="200px" height="200px" viewBox="0 0 200 200" version="1.1" xmlns="http://www.w3.org/2000/svg" xmlns:xlink="http://www.w3.org/1999/xlink">
    <!-- Generator: Sketch 51.3 (57544) - http://www.bohemiancoding.com/sketch -->
    <title>mills</title>
    <desc>Created with Sketch.</desc>
    <defs></defs>
    <g id="mills" stroke="none" stroke-width="1" fill="none" fill-rule="evenodd">
        <g id="mills_BGL" fill="#002F65">
            <g id="mills" transform="translate(0.000000, 42.000000)">
                <path d="M0.32,1.6 C15.68,0.96 31.04,1.44 46.4,1.28 C56.48,2.24 66.72,2.56 76.8,4 C70.72,4.16 64.96,3.84 59.04,5.28 C66.4,7.84 73.76,10.08 81.28,12 C84.64,12.96 88.48,13.28 91.52,15.04 C86.08,16.96 80.32,16.96 74.88,18.56 C83.2,19.84 91.2,18.88 99.36,18.24 C89.28,23.04 78.4,23.52 68.8,28.96 C72.8,29.28 76.64,29.6 80.48,30.24 C79.52,31.36 78.24,32.16 76.96,32.64 C62.24,38.88 47.84,47.52 36.32,58.88 C43.36,58.56 50.08,57.28 57.12,57.44 C48.16,59.68 37.12,61.6 29.6,67.52 C32.64,68 35.52,68.48 38.4,69.12 C33.28,70.4 27.68,72.16 24.64,76.64 C24.48,84.8 26.4,92.8 31.68,99.2 C39.04,108.96 52.32,113.12 64,114.4 C42.72,115.2 21.44,114.72 0.16,114.72 C0.32,113.44 0.32,112.16 0.32,110.72 C6.72,110.24 15.52,111.68 20.8,107.2 C23.68,104.32 24,99.68 24,95.84 C24.32,71.36 23.68,46.72 24,22.24 C24,17.12 24.32,12 20,8.48 C14.88,4.32 6.4,5.92 0.32,5.6 C0.48,4.32 0.48,3.04 0.32,1.6 Z" id="Shape" fill-rule="nonzero"></path>
                <path d="M183.68,1.44 C189.12,1.12 194.4,1.44 199.84,1.28 C199.84,2.72 199.84,4.16 200,5.76 C194.08,5.92 186.24,4.8 181.12,8.16 C177.28,10.56 176.8,15.04 176.8,19.2 C176.96,45.92 176.8,72.64 176.8,99.2 C176.8,103.84 178.56,108 183.04,109.6 C188.16,111.2 194.24,110.72 199.68,110.88 C199.84,112.16 199.84,113.6 200,114.88 C171.84,114.88 143.52,114.88 115.36,114.88 C115.52,113.6 115.68,112.16 115.68,110.88 C122.4,110.56 130.56,112 136,107.2 C139.84,102.72 138.56,96.64 138.72,91.2 C138.4,75.84 139.2,60.48 138.24,45.12 C142.72,43.84 146.4,41.76 150.24,39.04 C140,42.4 129.44,44.8 118.56,43.04 C128.96,41.6 139.04,39.52 148.48,34.72 C161.28,28.48 173.12,19.68 179.68,6.72 C180.8,5.12 181.6,1.92 183.68,1.44 Z" id="Shape" fill-rule="nonzero"></path>
                <path d="M136.32,45.76 C136.96,46.4 137.6,47.04 138.24,47.84 C125.28,66.24 113.28,85.6 100.64,104.16 C89.12,97.44 78.4,88.96 67.2,81.76 C65.44,80.32 62.4,79.52 62.4,76.8 C76.8,72.64 91.2,69.28 105.44,63.68 C101.76,62.56 98.08,61.28 94.4,59.68 C105.28,60.64 117.76,59.68 126.72,52.8 C113.76,54.24 96.48,57.92 84.48,51.52 C101.28,51.52 120,51.2 136.32,45.76 Z" id="Shape" fill-rule="nonzero"></path>
                <path d="M60.8,77.44 L61.6,78.4 C62.4,85.6 61.44,93.28 62.08,100.64 C62.56,104.64 64.8,108 68.64,109.6 C73.76,111.68 80.16,110.08 85.12,111.52 L85.76,114.72 C82.88,114.88 79.68,115.2 76.96,114.72 C66.88,112.16 57.6,108.48 51.52,99.68 L48.16,101.92 C48.16,99.2 48.16,96.32 48.16,93.6 C45.92,93.92 43.68,94.24 41.44,94.56 C42.88,92.16 44.48,90.08 46.08,88 C44.16,87.84 42.08,87.68 40.16,87.36 C44.32,82.88 49.76,81.28 55.36,79.2 C56.96,78.24 58.88,77.76 60.8,77.44 Z" id="Shape" fill-rule="nonzero"></path>
            </g>
        </g>
    </g>
</svg>