<?xml version="1.0" encoding="UTF-8"?>
<svg width="200px" height="200px" viewBox="0 0 200 200" version="1.1" xmlns="http://www.w3.org/2000/svg" xmlns:xlink="http://www.w3.org/1999/xlink">
    <!-- Generator: Sketch 51.3 (57544) - http://www.bohemiancoding.com/sketch -->
    <title>millersville</title>
    <desc>Created with Sketch.</desc>
    <defs></defs>
    <g id="millersville" stroke="none" stroke-width="1" fill="none" fill-rule="evenodd">
        <g id="millersville_BGL" transform="translate(0.000000, 3.100775)">
            <g id="millersville">
                <g fill-rule="nonzero" id="g10">
                    <g transform="translate(100.000000, 96.751708) scale(-1, 1) rotate(-180.000000) translate(-100.000000, -96.751708) translate(0.000000, 0.029645)">
                        <g id="g12" transform="translate(-0.000000, 0.000000)">
                            <path d="M184.482957,48.9354325 L183.308143,49.1718642 C177.279254,50.368846 170.448884,51.7266607 167.82518,58.1192106 C164.355551,67.8092047 164.017032,78.8673897 163.687402,89.5631449 C163.564439,93.5936014 163.435551,97.7604322 163.139995,101.814606 C163.139995,101.814606 162.691847,137.552851 162.691847,137.578051 L162.732588,139.694078 C162.851106,146.744041 162.974069,154.033401 167.620736,159.177088 C171.816291,164.892954 180.117772,164.629099 187.081476,163.658173 C186.999994,164.554241 186.697772,167.890967 186.638513,168.542451 C182.09555,168.970104 177.38518,168.66252 172.822217,168.346784 C167.148884,167.951743 161.283699,167.544843 155.599995,168.520958 C155.599995,168.520958 152.453329,169.102772 151.468884,168.158528 C147.965181,163.99985 145.465181,159.129653 143.479996,154.912423 L104.244441,73.3783201 L108.880737,66.0015027 C118.280737,86.1663847 127.969626,106.893811 137.763699,126.766674 C138.04444,127.32996 139.165922,129.244389 140.800736,129.328882 C142.318514,129.408187 142.625181,127.87694 142.625181,127.87694 C142.625181,127.87694 142.989625,120.120646 142.991107,120.115457 C142.991107,120.115457 144.61481,67.9529907 144.61481,66.2735103 C144.61481,61.8109546 144.126662,57.4921849 141.845181,53.998332 C140.319255,51.5020876 137.737773,50.4036808 135.243699,49.3408498 C135.243699,49.3408498 133.792588,48.7101182 133.262959,48.4418164 C132.732588,48.1742558 132.205922,47.8370256 132.265181,46.2464851 C132.321477,44.7582253 134.141477,44.4424889 135.365181,44.5292053 C149.27481,46.3472835 165.122217,46.4673523 183.72592,44.8886704 C184.540735,44.9709397 185.039994,45.2777821 185.27555,45.8017859 C185.654809,47.0106264 185.366661,48.6159903 184.482957,48.9354325" id="path14" fill="#EDAC09"></path>
                            <path d="M134.112588,46.4977401 C134.274811,46.4369645 134.57407,46.3695185 134.988144,46.3695185 C135.055551,46.3695185 135.122218,46.3710008 135.185922,46.3747066 C142.657773,47.3478566 150.833329,47.8414726 159.487403,47.8414726 C166.928143,47.8414726 175.034069,47.4783016 183.582217,46.7601126 C183.594809,46.9365099 183.582957,47.103272 183.559995,47.2322348 L182.943698,47.3552682 C176.784439,48.5781908 169.11555,50.1012853 166.111847,57.4143625 L166.081476,57.4936672 C162.516291,67.451963 162.171106,78.6502283 161.837032,89.4801344 C161.71481,93.497991 161.589625,97.6262813 161.294069,101.680455 L161.288143,101.79163 C160.839995,137.540993 160.839995,137.562487 160.839995,137.578051 L160.880736,139.728913 C161.00444,147.08646 161.133328,154.697485 166.18518,160.350352 C169.044439,164.186623 173.650365,166.052877 180.262958,166.052877 C181.732587,166.052877 183.283698,165.964679 185.029624,165.778646 L184.93555,166.812572 C183.944439,166.870383 182.902958,166.900029 181.786661,166.900029 C178.739254,166.900029 175.529624,166.676939 172.950365,166.498318 C169.876291,166.284121 166.696291,166.063254 163.508884,166.063254 C160.450365,166.063254 157.761477,166.270039 155.287403,166.694727 C155.258514,166.699915 154.448143,166.845924 153.616292,166.845924 C153.111106,166.845924 152.836292,166.791078 152.712588,166.756984 C149.436292,162.806574 147.056292,158.16095 145.155551,154.122341 L106.357033,73.4983889 L108.639256,69.8666793 C118.247404,90.4666253 127.02444,109.164741 136.102959,127.586403 C136.508885,128.399461 138.028144,131.040974 140.705181,131.179572 C142.870366,131.292229 144.148144,129.706876 144.440736,128.240852 L144.475551,127.963656 C144.475551,127.963656 144.777773,121.537012 144.831847,120.386724 L144.835551,120.370418 L144.842218,120.173268 C144.908884,118.041677 146.466662,67.9611435 146.466662,66.2735103 C146.466662,62.274924 146.117773,57.15199 143.396292,52.984418 C141.590366,50.0301335 138.60444,48.7575528 135.970366,47.6361698 C135.602218,47.4768193 134.549625,47.0121087 134.129625,46.8045825 C134.121477,46.7356541 134.113329,46.6355968 134.112588,46.4977401 Z M134.988144,42.6636924 C132.291107,42.6636924 130.495551,44.0430009 130.414811,46.1768155 C130.340737,48.148315 130.962959,49.3571555 132.429625,50.0968384 C132.990366,50.3792223 134.352588,50.9736368 134.505922,51.0403417 C136.848144,52.0379501 139.048885,52.9762652 140.265922,54.9648115 C142.469625,58.3423014 142.762959,62.5736136 142.762959,66.2735103 C142.762959,67.5794435 141.702218,102.025097 141.140736,120.056905 L141.151107,120.057647 C141.111107,120.659473 141.032588,122.331541 140.791107,127.452993 C140.342959,127.307725 139.742959,126.583606 139.422218,125.939534 C129.911848,106.64478 120.724441,87.0231717 110.559256,65.2180911 L109.122219,62.1363261 L102.131848,73.2597337 L141.811847,155.716587 C143.840736,160.027204 146.412588,165.031552 150.053329,169.352545 L150.187403,169.49559 C150.927403,170.205626 152.049625,170.55175 153.616292,170.55175 C154.777773,170.55175 155.820736,170.364977 155.937032,170.342742 C158.178514,169.958818 160.663699,169.76908 163.508884,169.76908 C166.567402,169.76908 169.682217,169.9855 172.694069,170.19525 C175.330365,170.377577 178.611106,170.605855 181.786661,170.605855 C183.607402,170.605855 185.251106,170.533962 186.811846,170.387212 L188.343698,170.242684 L189.13555,161.4999 L186.82592,161.823048 C184.259995,162.180289 182.174069,162.347051 180.262958,162.347051 C174.868143,162.347051 171.221476,160.951437 169.114069,158.080163 L168.99555,157.934154 C164.814069,153.307059 164.697032,146.369753 164.584439,139.662949 L164.543699,137.542475 C164.546662,137.361631 164.971847,103.454063 164.991847,101.893911 C165.289625,97.7797025 165.416291,93.6314008 165.539254,89.6194735 C165.863699,79.0675043 166.199995,68.1827519 169.553328,58.7855182 C171.813328,53.3438832 177.840735,52.1461602 183.668883,50.9899424 L185.114069,50.678653 C187.128883,49.9478641 187.683698,47.2900457 187.042957,45.2473943 L186.964439,45.0406093 C186.667402,44.380231 185.876291,43.2440248 183.912587,43.0439102 L183.742217,43.0268634 L183.569624,43.0409455 C175.014069,43.7680286 166.911847,44.1356465 159.487403,44.1356465 C150.970366,44.1356465 142.93481,43.6509245 135.605181,42.6925979 L135.497033,42.6807392 C135.33407,42.6688806 135.16444,42.6636924 134.988144,42.6636924 Z" id="path16" fill="#E8A311"></path>
                            <path d="M66.5777752,50.6771707 C64.898516,51.2908555 63.1592568,51.9267753 61.5651828,52.9473598 C53.019257,58.4549585 52.9177756,69.3352639 52.8355533,78.1002837 C52.8355533,78.1002837 53.4659237,95.4079738 53.9799978,109.500489 L47.8207387,120.620191 C47.5125905,112.523702 47.0999979,104.459825 46.474072,96.601991 C45.8066646,83.4329674 45.0644424,71.6165704 42.7066647,60.345671 C41.7474055,55.1775259 37.7572574,51.3575604 30.2514798,48.7708938 C29.7378502,48.4796159 29.4253317,47.5968881 29.4253317,46.9757916 C29.4253317,46.7149015 29.4571836,46.4503055 29.5194058,46.1938623 C29.6727391,45.8091976 30.2442206,44.5581107 31.1542206,44.7100496 C39.8244426,45.7135873 52.4637015,46.8164411 67.5444419,44.8101069 C69.6822196,44.5247583 71.0155529,44.299444 71.8355529,45.6728232 C72.0762936,46.0782406 72.6459232,47.3285863 71.5925899,48.341018 C70.0792566,49.3905079 68.3807381,50.0197572 66.5777752,50.6771707" id="path18" fill="#EDAC09"></path>
                            <path d="M50.3740719,47.7836617 C56.2585162,47.7836617 62.1177753,47.4012205 67.7888863,46.6474554 L67.9859233,46.6192912 C68.6762937,46.5281278 69.2733307,46.4473408 69.7111085,46.4473408 L69.7118492,46.4473408 C70.0548122,46.4473408 70.1525899,46.4992224 70.1540714,46.4992224 C70.1540714,46.4992224 70.1881455,46.5251632 70.2459233,46.6237382 C70.3074048,46.7267601 70.3525899,46.8712873 70.3555529,46.9424392 C69.0511085,47.8021908 67.5392567,48.3536178 65.9429604,48.9369148 C64.1681457,49.5854344 62.3325901,50.2561889 60.567405,51.3864658 C51.1777756,57.4373386 51.0703682,68.8838942 50.9837015,78.0802722 L50.9829608,78.1217775 L50.9844423,78.1684709 L52.1103682,109.053567 L49.3948127,113.955633 C49.0970349,107.490449 48.7474053,101.818312 48.3199979,96.4544991 C47.6525905,83.2550878 46.9022202,71.3571626 44.5192573,59.9661944 C43.4437017,54.1717647 39.1207389,49.9738049 31.3168131,47.1810944 C31.293702,47.1062367 31.2771835,47.0261909 31.2771835,46.9757916 C31.2771835,46.9016751 31.2832576,46.8268174 31.2948131,46.7527009 C31.3205909,46.6963723 31.3469613,46.6459731 31.372665,46.600762 C36.2893315,47.1625653 42.8222203,47.7836617 50.3740719,47.7836617 Z M69.7185159,42.7415148 C69.0444418,42.7563381 68.3192567,42.8371251 67.4948122,42.9468175 L67.3007382,42.9734995 C61.7911087,43.7057707 56.096294,44.0778356 50.3740719,44.0778356 C42.805924,44.0778356 36.2618501,43.4352454 31.4007391,42.8734422 C29.855628,42.6459044 28.5361465,43.653148 27.7988873,45.5090257 L27.7199243,45.7550925 C27.6226651,46.1545806 27.5734799,46.5659273 27.5734799,46.9757916 C27.5734799,48.134974 28.1261466,49.695868 29.3388132,50.3836693 L29.6484428,50.5222672 C36.3709612,52.8398908 40.0466648,56.1632756 40.885924,60.6843835 C43.222961,71.8552256 43.9614795,83.6012119 44.6244424,96.6961189 C45.1903684,103.809823 45.6177757,111.417142 45.9703683,120.690602 L46.2229609,127.327736 L55.8488866,109.948153 L54.6874052,78.0758252 C54.7696274,69.3441578 54.8755533,59.4629432 62.567405,54.5045479 C63.9859234,53.5973617 65.6266641,52.997759 67.2133308,52.418909 C69.0303678,51.7540838 70.9103677,51.0677648 72.6474047,49.8633713 L72.8748121,49.67808 C74.5162935,48.1016216 74.1985158,46.026359 73.4281454,44.7263552 C72.246664,42.7504087 70.3525899,42.7415148 69.7185159,42.7415148 Z" id="path20" fill="#E8A311"></path>
                            <path d="M56.0311088,147.562288 C53.5081459,152.133054 41.628887,144.10327 43.0088869,141.202349 C43.2096277,140.91033 90.1688857,53.6981601 90.1688857,53.6981601 C109.194811,22.9167535 120.909626,-1.14791758 151.283699,2.80545768 C118.687404,24.2369911 58.7214791,143.375445 56.0311088,147.562288" id="path22" fill="#EDAC09"></path>
                            <path d="M91.7733302,54.626099 C93.3348116,52.0987256 94.8481449,49.6158221 96.3266634,47.1914707 C111.525922,22.2520024 122.508144,4.23271954 144.958514,4.23131133 C145.399995,4.20840932 145.817033,4.23879709 146.252588,4.25124867 C126.959996,20.2228402 97.3592559,65.7309774 58.1488865,139.726689 C56.2666644,143.278353 54.7807385,146.082922 54.4733311,146.559491 L54.4103681,146.666219 C54.3348126,146.802593 54.1785163,147.08646 53.3570348,147.08646 C50.1837016,147.08646 45.2688869,143.323564 44.779998,141.815293 C45.9007387,139.767453 52.4088867,127.73093 91.7733302,54.626099 Z M144.960736,0.525485248 C144.959995,0.525485248 144.959255,0.525485248 144.958514,0.525485248 C120.428144,0.526893462 108.396293,20.2693854 93.1644412,45.2614765 C91.6807376,47.6954631 90.1622191,50.1865193 88.594071,52.724269 L88.5385154,52.8198794 C72.6755528,82.2797143 42.6518499,138.024233 41.4370351,140.219564 L41.3370351,140.406338 C40.9748129,141.167514 40.7681462,142.431942 41.8414795,144.132175 C43.7451832,147.148717 49.3066645,150.792286 53.3570348,150.792286 C55.2733311,150.792286 55.7888866,151.757283 56.6259236,150.28607 C57.0296273,149.639033 59.1022199,145.837596 61.4207383,141.462498 C103.1637,62.687753 133.740737,16.5574818 152.300736,4.35286242 L156.471847,1.61114406 L151.522958,0.967293833 C149.271847,0.67460769 147.063699,0.525485248 144.960736,0.525485248 Z" id="path24" fill="#E8A311"></path>
                            <path d="M38.4502204,151.394112 C39.128887,152.446566 40.0733314,153.401928 42.4111092,155.042127 C45.6696276,157.327139 48.6370349,157.466478 48.7022201,157.507243 C39.3659241,169.073126 27.5942947,189.759788 27.0830355,190.751467 C26.5940725,191.73277 23.470517,190.495024 20.7534801,188.72438 C18.0060727,186.938172 13.9956284,183.093748 14.6496284,182.080575 C22.6377022,173.087277 33.8828131,158.375888 38.4502204,151.394112" id="path26" fill="#EDAC09"></path>
                            <path d="M16.6808135,182.579379 C24.0300726,174.210142 33.5974798,161.76746 38.6362944,154.436595 C39.3333315,155.079926 40.205924,155.757351 41.3481462,156.559292 C42.3325906,157.249317 43.7274054,158.06534 45.454072,158.652343 C37.2670352,169.405168 27.9522206,185.39729 25.8399985,189.167597 C25.0248874,188.956365 23.5077763,188.307845 21.7639245,187.171639 C19.6747394,185.813083 17.4734061,183.67408 16.6808135,182.579379 Z M38.4614796,147.993646 L36.9007389,150.379457 C32.3750353,157.297493 21.3052578,171.79839 13.2653321,180.8495 L13.0940729,181.075555 C10.9013322,184.473057 19.6557023,190.220052 19.7442208,190.277863 C20.705406,190.904147 24.0231837,192.951245 26.3006651,192.951245 C27.8848132,192.951245 28.5344428,191.991437 28.7398502,191.579349 C29.4383687,190.22524 41.1555536,169.804656 50.1422201,158.670872 L51.4585163,157.04105 L49.6799979,155.933749 C49.331109,155.716587 49.014072,155.675082 48.8037016,155.6484 C46.4711091,155.346005 44.6177758,154.326903 43.4740721,153.524962 C41.2748129,151.981856 40.5162944,151.181397 40.005924,150.389092 L38.4614796,147.993646 Z" id="path28" fill="#E8A311"></path>
                            <path d="M45.6229609,148.250089 C50.1155534,151.11914 54.4281459,151.408194 55.4651829,151.408194 C55.4651829,151.408194 57.0429606,151.463781 57.8844421,153.508656 C58.2777754,154.464018 60.7237013,159.067395 64.2140716,161.049271 C65.9474049,162.032797 73.2518491,166.395296 73.8733306,166.774772 C75.1066639,167.529279 74.5222195,169.258417 72.5385158,168.231162 C70.6748122,167.264683 52.58222,156.245779 51.9585163,155.917443 C51.70222,155.783292 51.145183,155.703988 51.0703682,155.686941 C44.6125906,154.215728 40.5511092,150.571418 39.3659241,148.938631 C38.3142204,147.488912 36.5882204,146.942674 35.3961464,146.645466 C32.8793316,146.017699 13.2911099,141.378005 7.99162854,155.189619 C2.49244349,169.519307 11.9085914,177.955991 12.595184,178.829083 C13.1059247,179.478344 12.6400729,180.424812 11.821184,179.929714 C6.87473968,176.936148 -0.804667535,165.483663 3.79311013,152.5318 C9.01155444,137.832271 26.3582207,136.698288 39.8592574,142.793631 C41.3111092,143.617806 42.3770351,146.177791 45.6229609,148.250089" id="path30" fill="#EDAC09"></path>
                            <path d="M4.44125826,163.822711 C3.97829531,160.541573 4.20111012,156.918757 5.53822119,153.152156 C9.23925814,142.726185 18.9279246,141.169738 24.3735541,141.169738 C29.1718502,141.169738 34.2268871,142.299273 38.9985167,144.438276 C39.308887,144.64432 39.7577759,145.180924 40.2311092,145.747915 C41.1837018,146.886345 42.4874055,148.445757 44.6274054,149.811724 C49.5859238,152.978723 54.3511089,153.240354 55.3325903,153.259625 C55.4681459,153.295201 55.8622199,153.461222 56.1725903,154.214245 C56.3874051,154.736026 57.0044421,155.957466 57.953331,157.357527 C54.3651829,155.19036 53.0533311,154.399537 52.8199978,154.277245 C52.4096274,154.061565 51.9296274,153.957802 51.4718497,153.876274 C45.3474054,152.482884 41.7377758,149.053512 40.8644425,147.84986 C39.4740722,145.933207 37.3324426,145.218723 35.8431834,144.848141 C33.8914797,144.360454 29.9380724,143.542949 25.4039244,143.542949 C15.6388876,143.542208 9.01999889,147.339938 6.2627397,154.524794 C5.05296195,157.678452 4.44962863,160.798757 4.44125826,163.822711 Z M24.3744429,137.463912 L24.3735541,137.463912 C13.4447395,137.463912 5.30755453,142.72989 2.04799906,151.911445 C-0.702000871,159.658104 0.78214724,166.382696 2.51125831,170.65996 C4.39755456,175.325595 7.7071841,179.535414 10.8625914,181.514325 C14.5787395,183.84529 13.7847395,181.83525 14.4010358,180.565634 C14.8451839,179.650295 16.1799987,179.703658 15.5225913,178.868365 C15.4528135,178.779425 13.8442951,177.442363 13.6516284,177.235578 C6.54599895,169.612694 7.59199892,161.400583 9.72051739,155.853703 C11.9114803,150.143025 17.1883691,147.248034 25.4039244,147.248775 C29.6970354,147.248775 33.5083686,148.084068 34.9479242,148.443533 C35.9545908,148.694047 37.1947389,149.100206 37.8674796,150.027403 C39.2362944,151.913669 43.6718499,155.901879 50.6592571,157.49316 C50.6829608,157.49909 50.7444423,157.51169 50.8296275,157.526513 C50.9022201,157.539113 51.0385164,157.558383 51.1562941,157.591735 C51.6348126,157.868931 54.1407385,159.383132 56.7866644,160.981825 C64.2525901,165.491815 70.526664,169.274723 71.686664,169.875808 C72.3599973,170.224896 73.0155528,170.401294 73.6355528,170.401294 C74.9111083,170.401294 75.9451824,169.652717 76.2711083,168.495758 C76.6199972,167.258012 76.0444417,165.931326 74.8399972,165.193867 C74.1651824,164.781779 66.8874048,160.436327 65.1274049,159.437237 C62.1488864,157.745898 59.8888865,153.511621 59.5970347,152.803067 C58.5740717,150.31794 56.5599977,149.59308 55.5311088,149.556763 C55.2874051,149.555281 51.0585164,149.52267 46.6199979,146.687713 C44.9614795,145.629329 43.9577758,144.428641 43.0725906,143.370257 C42.3185166,142.468259 42.3318499,140.726521 41.4370351,140.219564 C41.4370351,140.219564 41.0451833,141.257936 39.5170352,140.644993 C34.3020723,138.552683 29.7268873,137.463912 24.3744429,137.463912 Z" id="path32" fill="#E8A311"></path>
                            <path d="M108.880737,66.0015027 C118.280737,86.1663847 127.969626,106.893811 137.763699,126.766674 C138.04444,127.32996 139.165922,129.244389 140.800736,129.328882 C142.318514,129.408187 142.625181,127.87694 142.625181,127.87694 C142.625181,127.87694 142.989625,120.120646 142.991107,120.115457 C142.991107,120.115457 144.61481,67.9529907 144.61481,66.2735103 C144.61481,61.8109546 144.126662,57.4921849 141.845181,53.998332 C140.319255,51.5020876 137.737773,50.4036808 135.243699,49.3408498 C135.243699,49.3408498 133.792588,48.7101182 133.262218,48.4418164 C132.732588,48.1742558 132.205922,47.8370256 132.265181,46.2464851 C132.321477,44.7582253 134.141477,44.4424889 135.365181,44.5292053 C149.27481,46.3472835 165.122217,46.4673523 183.72592,44.8886704 C184.540735,44.9709397 185.039994,45.2777821 185.27555,45.8017859 C185.654809,47.0106264 185.366661,48.6159903 184.482957,48.9354325 L183.308143,49.1718642 C177.279254,50.368846 170.448884,51.7266607 167.82518,58.1192106 C164.355551,67.8092047 164.017032,78.8673897 163.687402,89.5631449 C163.564439,93.5936014 163.435551,97.7604322 163.139995,101.814606 C163.139995,101.814606 162.691847,137.552851 162.691847,137.578051 L162.732588,139.694078 C162.851106,146.744041 162.974069,154.033401 167.620736,159.177088 C171.816291,164.892954 180.117772,164.629099 187.081476,163.658173 C186.999994,164.554241 186.697772,167.890967 186.638513,168.542451 C182.09555,168.970104 177.38518,168.66252 172.822217,168.346784 C167.148884,167.951743 161.283699,167.544843 155.599995,168.520958 C155.599995,168.520958 152.453329,169.102772 151.468884,168.158528 C147.965181,163.99985 145.465181,159.129653 143.479996,154.912423 L104.244441,73.3783201 L108.880737,66.0015027" id="path34" fill="#231F20"></path>
                            <path d="M46.4733313,96.601991 C45.8066646,83.4329674 45.0637017,71.6165704 42.705924,60.345671 C41.7466647,55.1775259 37.7572574,51.3575604 30.2505909,48.7708938 C29.7369613,48.4796159 29.4253317,47.5968881 29.4253317,46.9757916 C29.4253317,46.7149015 29.4562947,46.4503055 29.5194058,46.1938623 C29.6727391,45.8091976 30.2442206,44.5581107 31.1542206,44.7100496 C39.8244426,45.7135873 52.4637015,46.8164411 67.5437011,44.8101069 C69.6814789,44.5247583 71.0148122,44.299444 71.8355529,45.6728232 C72.0762936,46.0782406 72.6451825,47.3285863 71.5925899,48.341018 C70.0792566,49.3905079 68.3807381,50.0197572 66.5777752,50.6771707 C64.8977753,51.2908555 63.1592568,51.9267753 61.5651828,52.9473598 C53.019257,58.4549585 52.9170348,69.3352639 52.8355533,78.1002837 C52.8355533,78.1002837 53.4659237,95.4079738 53.9799978,109.500489 L47.8207387,120.620191 C47.5125905,112.523702 47.0999979,104.459825 46.4733313,96.601991" id="path36" fill="#231F20"></path>
                            <path d="M56.0311088,147.562288 C53.5081459,152.133054 41.6281462,144.10327 43.0088869,141.202349 C43.2088869,140.91033 90.168145,53.6981601 90.168145,53.6981601 C109.194811,22.9167535 120.909626,-1.14791758 151.283699,2.80545768 C118.687404,24.2369911 58.7207384,143.375445 56.0311088,147.562288" id="path38" fill="#231F20"></path>
                            <path d="M28.0972577,165.814481 L28.0972577,165.813481" id="path40" fill="#231F20"></path>
                            <path d="M14.6496284,182.080575 C13.9956284,183.093748 18.0060727,186.938172 20.7525912,188.72438 C23.470517,190.495024 26.5937762,191.73277 27.0827392,190.751467 C27.5940725,189.759788 39.3659241,169.073126 48.7014794,157.507243 C48.6362942,157.466478 45.6688869,157.327139 42.4111092,155.042127 C40.0733314,153.401928 39.128887,152.446566 38.4493315,151.394112 C33.8819242,158.375888 22.637406,173.087277 14.6496284,182.080575" id="path42" fill="#231F20"></path>
                            <path d="M22.9314587,141.022987 C22.8977973,140.721333 22.8651202,140.418937 22.832443,140.118024 C22.8651202,140.418937 22.8987816,140.721333 22.932443,141.023728 C22.9314587,141.022987 22.9314587,141.022987 22.9314587,141.022987" id="path44" fill="#231F20"></path>
                            <path d="M7.99073965,155.189619 C2.49222127,169.519307 11.9082951,177.955991 12.595184,178.829083 C13.1050358,179.478344 12.639184,180.424812 11.821184,179.929714 C6.87444338,176.936148 -0.804667535,165.483663 3.79311013,152.5318 C9.01125815,137.832271 26.3582207,136.698288 39.8592574,142.793631 C41.3111092,143.617806 42.3770351,146.177791 45.6222202,148.250089 C50.1148127,151.11914 54.4274052,151.408194 55.4651829,151.408194 C55.4651829,151.408194 57.0429606,151.463781 57.8844421,153.508656 C58.2777754,154.464018 60.7237013,159.067395 64.2140716,161.049271 C65.9474049,162.032797 73.2518491,166.395296 73.8733306,166.774772 C75.1066639,167.529279 74.5222195,169.258417 72.5385158,168.231162 C70.6740714,167.264683 52.5814793,156.245779 51.9577756,155.917443 C51.70222,155.783292 51.145183,155.703988 51.0696275,155.686941 C44.6125906,154.215728 40.5503685,150.571418 39.3659241,148.938631 C38.3142204,147.488912 36.5882204,146.942674 35.3952575,146.645466 C32.8790353,146.017699 13.290221,141.378005 7.99073965,155.189619" id="path46" fill="#231F20"></path>
                            <path d="M194.734809,47.8399903 L195.262957,47.8399903 C195.864439,47.8399903 196.374809,48.0601163 196.374809,48.6248842 C196.374809,49.0265958 196.082957,49.4283073 195.262957,49.4283073 C195.025179,49.4283073 194.862216,49.4105194 194.734809,49.3919902 L194.734809,47.8399903 Z M194.734809,45.3066876 L194.005179,45.3066876 L194.005179,49.8841239 C194.387402,49.9374878 194.751846,49.9938164 195.298513,49.9938164 C195.991846,49.9938164 196.447402,49.8478068 196.720735,49.6476922 C196.994068,49.4468365 197.140735,49.1370294 197.140735,48.6982596 C197.140735,48.0979158 196.739994,47.7325213 196.246661,47.5865118 L196.246661,47.5487123 C196.648883,47.4768193 196.922216,47.112166 197.011846,46.4354822 C197.121476,45.7247047 197.231846,45.4512148 197.303698,45.3066876 L196.538513,45.3066876 C196.428883,45.4512148 196.318513,45.8714555 196.228883,46.4732816 C196.119253,47.0565786 195.828142,47.2752224 195.245179,47.2752224 L194.734809,47.2752224 L194.734809,45.3066876 Z M195.499994,51.1604104 C193.69555,51.1604104 192.218513,49.610634 192.218513,47.6969454 C192.218513,45.743975 193.69555,44.2105042 195.518513,44.2105042 C197.339994,44.1934574 198.798513,45.743975 198.798513,47.6761928 C198.798513,49.610634 197.339994,51.1604104 195.518513,51.1604104 L195.499994,51.1604104 Z M195.518513,51.7992949 C197.759994,51.7992949 199.546661,49.9752873 199.546661,47.6969454 C199.546661,45.3793218 197.759994,43.5738433 195.499994,43.5738433 C193.257031,43.5738433 191.434809,45.3793218 191.434809,47.6969454 C191.434809,49.9752873 193.257031,51.7992949 195.499994,51.7992949 L195.518513,51.7992949 Z" id="path48" fill="#231F20"></path>
                            <path d="M145.365181,142.241463 C145.791847,147.879506 147.426662,155.321546 150.737032,160.875097 C146.977032,146.452763 147.963699,129.699465 148.231107,114.022338 L149.396292,80.8766886 C149.798514,72.5356153 151.283699,57.8976022 144.381477,52.9266071 C148.409625,63.1398638 146.671847,75.4439476 146.439995,88.4002567 C145.903699,106.049624 144.712588,133.610594 145.365181,142.241463" id="path50" fill="#FFFFFF"></path>
                            <path d="M43.0088869,51.463547 C42.6414795,51.2708441 41.4755536,50.9076731 41.1777759,51.7007199 C40.7103685,52.9473598 42.0503684,53.3320245 42.762961,54.0976482 C46.2088868,57.8034743 46.2777757,63.7661484 46.8399979,69.1618312 C47.2888868,63.068712 47.6155535,55.6555775 43.0088869,51.463547" id="path52" fill="#FFFFFF"></path>
                            <path d="M129.257033,19.4584766 C129.257033,19.4584766 125.051107,18.7306523 120.4837,24.5739989 C102.419997,47.6865691 50.571109,144.825906 50.571109,144.825906 C50.4155534,145.6108 52.9259237,146.55875 53.3570348,145.896148 C53.7518496,145.287652 106.371108,43.5738433 129.257033,19.4584766" id="path54" fill="#FFFFFF"></path>
                        </g>
                    </g>
                </g>
            </g>
        </g>
    </g>
</svg>