<?xml version="1.0" encoding="UTF-8"?>
<svg width="200px" height="200px" viewBox="0 0 200 200" version="1.1" xmlns="http://www.w3.org/2000/svg" xmlns:xlink="http://www.w3.org/1999/xlink">
    <!-- Generator: Sketch 51.3 (57544) - http://www.bohemiancoding.com/sketch -->
    <title>minn-duluth</title>
    <desc>Created with Sketch.</desc>
    <defs></defs>
    <g id="minn-duluth" stroke="none" stroke-width="1" fill="none" fill-rule="evenodd">
        <g id="minn-duluth_BGL" transform="translate(4.739336, 0.000000)">
            <g id="minn-duluth">
                <g id="g10" transform="translate(94.893376, 100.033926) scale(-1, 1) rotate(-180.000000) translate(-94.893376, -100.033926) translate(0.000000, 0.008517)">
                    <g id="g12">
                        <path d="M156.235013,67.3907359 C156.235013,67.3907359 171.186797,71.4670905 175.809491,74.1750124 C178.144081,75.550681 181.781163,80.6834743 181.241657,82.8538128 C180.699591,85.0169155 178.521948,88.5467483 174.442599,90.1731189 C174.442599,90.1731189 173.906505,105.634919 173.364014,107.535402 C172.275619,111.332962 170.637908,114.042161 169.012992,109.96836 C167.374856,105.903923 164.937482,99.3958872 164.937482,99.3958872 C164.937482,99.3958872 164.122892,101.018427 162.763251,102.110194 C161.400198,103.189617 160.589446,104.283086 160.589446,104.283086 C160.589446,104.283086 161.138761,111.05885 160.860692,113.498619 C160.589446,115.938813 158.724845,117.028451 154.335866,117.028451 C154.068032,117.028451 156.510097,125.702995 157.059412,129.229423 C157.601478,132.757979 156.510097,135.194768 154.335866,136.277596 C152.159076,137.362553 146.726483,140.078562 145.369828,140.347567 C144.006349,140.619976 142.924778,141.163093 142.107628,143.066981 C141.297303,144.956822 139.937236,148.485378 137.760445,150.925573 C135.590053,153.365767 132.04893,156.352483 132.04893,156.352483 C132.04893,156.352483 130.963947,157.707721 132.869918,158.252966 C134.772477,158.792678 145.078111,160.956632 146.726483,161.496769 C149.164284,162.3157 151.297145,164.826551 147.004553,166.113261 C144.278021,166.930915 142.107628,167.472329 140.198246,168.553455 C138.305922,169.637986 135.85746,170.457343 134.223162,171.267761 C132.595687,172.081585 131.513263,173.978663 129.339885,175.868505 C127.155844,177.774095 123.897056,182.116475 120.363184,182.116475 C116.839975,182.116475 113.028033,181.031518 110.040491,179.403871 C107.052949,177.774095 100.52855,174.251072 96.1809404,171.533361 C92.9012547,169.492417 90.480514,168.018425 88.845789,166.661485 C87.2097846,165.290924 85.8616589,163.674769 85.8616589,163.674769 L78.2518499,163.674769 C75.260896,163.674769 70.636923,164.485187 70.636923,164.485187 C70.636923,164.485187 69.2785617,166.113261 71.9948579,167.204602 C74.7132866,168.282322 80.1505704,170.722517 84.4986062,175.611844 C88.845789,180.487125 93.4663501,185.099786 94.2783815,186.993458 C95.0908394,188.895644 96.4521861,190.524994 97.0015015,192.415261 C97.5478315,194.317446 95.9131065,195.132973 92.3813669,194.050144 C88.845789,192.958803 70.0961374,190.789316 64.1120972,190.789316 C58.1370131,190.789316 46.4495611,187.812815 42.1034445,183.742845 C37.7540866,179.66947 34.7596781,173.70753 35.3057949,168.282322 C35.8554088,162.852007 36.672558,159.873803 36.672558,159.873803 C36.672558,159.873803 32.8573325,154.181719 31.2313505,151.463582 C29.6088657,148.757788 28.7898826,147.405955 29.6088657,146.045184 C30.4193618,144.689946 31.5025536,140.888981 31.5025536,140.888981 C31.5025536,140.888981 23.3538356,126.515117 21.1780691,116.484058 C18.9993171,106.443635 18.7366011,97.7627064 18.9993171,95.600455 C19.2757234,93.4360754 19.2757234,92.0718991 19.2757234,92.0718991 C19.2757234,92.0718991 9.21762267,86.377261 6.77265752,84.747911 C4.33600887,83.1266481 4.87346789,80.6834743 7.59164066,80.1378037 C10.3094722,79.6019229 18.4620714,77.6963325 18.4620714,77.6963325 L19.5504238,73.3628912 C19.5504238,73.3628912 8.95823322,61.6999286 7.31340049,59.8028509 C5.69411434,57.9074758 5.96698077,56.5437252 10.8554184,55.736286 C15.7455192,54.9190571 21.1780691,54.3721097 21.1780691,54.3721097 C21.1780691,54.3721097 25.2596784,50.040371 27.4247827,48.4093184 C29.6088657,46.7782658 34.2240957,42.9836848 34.2240957,42.9836848 C34.2240957,42.9836848 32.0126748,33.730313 38.5695725,26.7097636 C46.1795948,18.5736969 57.0498976,13.7022892 63.3000658,13.7022892 C71.7253181,13.7022892 84.7660136,15.0518661 84.7660136,15.0518661 C84.7660136,15.0518661 92.6457889,7.46232114 94.0122535,6.10193302 C95.367203,4.74805718 97.0015015,4.74805718 97.8084151,7.46232114 C98.6242849,10.1646672 101.618651,16.950774 101.618651,16.950774 L106.778291,17.7614906 C106.778291,17.7614906 114.937416,12.6100969 117.375642,11.256519 C119.824105,9.89779087 121.45883,9.62495561 121.997909,13.9672927 C122.547225,18.3063524 123.082893,21.2880034 123.082893,21.2880034 C123.082893,21.2880034 127.433914,25.3591652 129.607718,28.880996 C131.781523,32.4129996 134.772477,34.2994363 134.772477,34.2994363 C134.772477,34.2994363 141.019233,31.8654563 145.641074,31.8654563 C150.259929,31.8654563 157.601478,33.2178849 158.686887,38.1067439 C159.775709,42.9836848 160.860692,51.665039 159.497639,56.0052905 C158.144396,60.3429881 156.235013,67.3907359 156.235013,67.3907359" id="path14" fill="#FFFFFF"></path>
                        <path d="M86.6425568,20.4771166 L88.3941392,18.7925184 C88.5950146,18.6043004 91.7066644,15.5988561 94.3193242,13.0676599 C95.415396,15.7925649 96.6411199,18.5856574 96.8488191,19.0517332 L97.9973488,21.6511169 L107.904644,23.2085338 L109.573488,22.163545 C111.115239,21.1884036 114.58727,19.0086584 117.200783,17.4184673 C117.602107,20.2907288 117.938605,22.1154902 117.952679,22.22007 L118.261456,23.9111804 L119.518314,25.0833505 C120.589649,26.0930538 123.691063,29.2286588 125.16415,31.6144138 C127.890681,36.0350687 131.56828,38.4426164 131.976854,38.6980004 L134.215911,40.1152541 L136.671624,39.1555635 C138.158358,38.5749479 142.677415,37.0686078 145.641074,37.0686078 C150.287651,37.0686078 153.450479,38.5817581 153.590793,39.241032 C154.902667,45.0999671 155.30783,51.9285102 154.521814,54.4440429 C153.144688,58.8430326 151.276248,65.7490423 151.204171,66.04018 L149.848369,71.0512402 L154.868548,72.418396 C160.390277,73.9179259 170.239143,76.9489086 173.154608,78.6612584 C173.930815,79.1664932 175.372768,81.070381 175.919098,82.2302502 C175.461904,83.1266481 174.414878,84.5746755 172.505495,85.3459352 L169.346079,86.601999 L169.226236,89.9913706 C169.171219,91.7530947 169.092319,93.6088853 169.016404,95.414876 L165.63095,86.4015225 L160.273419,97.0633798 C160.149738,97.2983331 159.779121,97.8227217 159.504036,98.0402237 C157.718761,99.4678204 156.61288,100.893715 156.406887,101.169529 L155.22893,102.737162 L155.38673,104.692552 C155.575664,107.050598 155.727067,110.007945 155.716405,111.761156 C155.373083,111.795207 154.926977,111.819469 154.335866,111.819469 L151.795282,111.819469 L150.21856,113.817423 C148.563363,115.935408 148.910097,117.357897 150.225383,122.657541 C150.823318,125.081135 151.647291,128.398574 151.901051,130.017708 C152.04563,130.99285 151.942847,131.492977 151.891242,131.673448 C146.475709,134.377114 144.758672,135.097297 144.20893,135.273512 C140.926259,135.969007 138.673554,137.852465 137.313487,141.014119 L137.025182,141.689184 C136.314228,143.37557 135.232657,145.920046 133.862354,147.46214 C132.279234,149.239613 129.586821,151.612556 128.683947,152.371898 L128.292859,152.699215 L127.972993,153.098465 C126.915305,154.416247 126.060199,156.66618 126.812522,159.0238 C127.468459,161.059636 129.147539,162.606838 131.438201,163.255088 C132.279234,163.498128 134.017168,163.889291 136.716405,164.4937 C136.029334,164.826551 135.267202,165.14876 134.504643,165.455221 C133.58471,165.840851 132.712118,166.203922 131.901792,166.612111 C130.068324,167.525109 128.834924,168.882475 127.729043,170.095549 C127.138785,170.747204 126.585631,171.365233 125.905811,171.949637 C125.274183,172.503394 124.652365,173.133767 123.996428,173.793509 C123.076069,174.726087 121.173936,176.653385 120.280872,176.907066 C117.788055,176.890466 114.896473,176.114099 112.533735,174.828666 L111.963948,174.525185 C108.804105,172.796235 102.911759,169.591591 98.9471356,167.122453 L98.1935329,166.654675 C95.5147675,164.99255 93.4096273,163.681579 92.1924332,162.65834 C90.9645769,161.63723 89.8778878,160.353925 89.8689315,160.347115 L88.3050034,158.468765 L78.2518499,158.465786 C74.9022203,158.465786 70.2556436,159.260456 69.7319174,159.365163 L67.8502564,159.68184 L66.6292239,161.154128 C65.5749479,162.40849 64.6665304,164.615433 65.2798188,167.019874 C65.603949,168.311691 66.6548131,170.673142 70.0513563,172.032211 C74.46763,173.793509 78.0130171,176.168581 80.6009407,179.066338 C81.8573717,180.48372 83.1381124,181.873434 84.3506152,183.189513 C85.7861707,184.741822 87.5991673,186.710833 88.6948126,188.028615 C81.1464177,186.842782 68.7258344,185.582887 64.1120972,185.582887 C58.9213229,185.582887 48.6621761,182.743868 45.6746341,179.945711 C42.2320304,176.725744 40.1562751,172.24418 40.4946073,168.803731 C40.9855792,163.965907 41.6984524,161.257133 41.704935,161.230744 L42.3111864,158.962508 L41.0147509,156.991795 C40.9700977,156.935184 37.2527937,151.362279 35.7094649,148.788434 C35.4105827,148.286605 35.0688813,147.729867 34.8148229,147.268474 C35.5755053,145.515688 36.2328925,143.33939 36.5232875,142.314875 L37.1188767,140.218598 L36.0443425,138.327053 C35.9686837,138.186166 28.2644505,124.51546 26.2794516,115.383778 C24.1418557,105.521699 24.0213731,97.5124301 24.1846324,96.2512586 C24.4835145,93.8297925 24.4954988,92.244709 24.4954988,92.0718991 L24.4954988,89.0387882 L21.8529849,87.5464942 C20.4502262,86.7458653 17.7888615,85.2344175 15.2802218,83.7740466 C17.5519479,83.2573196 19.4852992,82.802736 19.6465539,82.7682592 L22.744087,82.0421173 L25.2888501,71.9263561 L23.4204528,69.8637045 C21.1732498,67.3907359 17.5674294,63.4220682 14.8372724,60.3923624 C18.4500444,59.8815943 21.6573979,59.5581079 21.6931802,59.5581079 L23.6473866,59.3661442 L24.9881341,57.9381219 C26.4443742,56.3896435 29.2483562,53.5582859 30.5634717,52.57676 C32.8023583,50.8920767 37.343934,47.1668751 37.5380282,47.0106652 L40.0516152,44.9356701 L39.2963065,41.7858912 C39.244659,41.5509379 37.8900507,35.0723986 42.3868025,30.2536852 C49.3185397,22.8508685 58.9904138,18.9027592 63.3000658,18.9027592 C71.3564067,18.9027592 84.0981348,20.2165823 84.223522,20.2255633 L86.6425568,20.4771166 Z M95.7617036,0 C94.377753,0 92.312276,0.421317237 90.3188754,2.42149171 C89.3938249,3.34509654 85.2726802,7.32701017 82.8771023,9.64372633 C78.6309969,9.24268829 69.7626245,8.49403003 63.3000658,8.49403003 C54.7165867,8.49403003 42.7058575,14.6581491 34.7596781,23.1539668 C29.0660756,29.2491321 28.4670318,36.5543495 28.7020689,40.7665259 C27.2425448,41.9400155 25.4123181,43.4054941 24.3012766,44.2469845 C22.6206616,45.5026226 20.225169,47.8747145 18.7294361,49.4044648 C16.6554721,49.6394181 13.2367516,50.0539915 9.99028931,50.600939 C7.92984492,50.9367689 3.0893658,51.7420799 1.58549985,55.859296 C0.972258337,57.5392972 0.78166979,60.1816706 3.35392001,63.1871149 C4.48195275,64.4963836 9.50068214,70.0463041 12.7836091,73.6625418 C10.4674431,74.1958688 7.85418611,74.7781444 6.56990556,75.0386361 C3.19748881,75.7047627 0.735690217,78.0032189 0.136109514,81.017176 C-0.467971481,84.0468818 0.969093803,87.1349003 3.87070293,89.0796496 C5.62562051,90.2433495 10.5893757,93.1083326 13.8240243,94.9628462 C13.4380109,98.1036441 13.8826663,107.44091 16.075407,117.590722 C17.9224373,126.064364 23.4757682,136.999056 25.862262,141.450826 C25.5635504,142.342116 25.2715347,143.10614 25.1167626,143.399406 C22.7079209,147.394037 24.8558804,150.977075 26.7517434,154.133622 C27.843593,155.956638 29.8182709,158.965487 31.0972203,160.910662 C30.7900217,162.47872 30.4193618,164.783561 30.120309,167.766872 C29.4474403,174.47581 32.6683987,182.049649 38.5339609,187.541683 C44.141413,192.776629 57.2115362,196.000427 64.1120972,196.000427 C69.9221307,196.000427 87.9838586,198.142248 90.8374837,199.022897 C92.4103681,199.509829 93.7977305,199.739249 95.0750594,199.739249 C98.4643522,199.739249 100.246642,198.044351 101.012613,197.027922 C102.293353,195.340685 102.643499,193.198013 102.011872,190.98809 C101.517147,189.257012 100.711939,187.883046 100.002691,186.662736 C99.6337798,186.040876 99.2955755,185.447534 99.0793466,184.944001 C98.1828707,182.869006 96.0453175,180.49734 92.0290886,176.143042 C91.2980897,175.342414 90.5338249,174.509862 89.76956,173.663264 C90.6434321,174.225534 91.6051604,174.828666 92.6696722,175.489685 L93.4130392,175.952781 C97.6403792,178.587919 103.718673,181.89046 106.980873,183.66921 L107.540424,183.973968 C111.451737,186.100891 116.129021,187.322478 120.363184,187.322478 C125.28058,187.322478 128.979503,183.585358 131.424127,181.105154 C131.942735,180.584596 132.426798,180.092982 132.770547,179.794608 C133.903723,178.807549 134.772477,177.848156 135.469783,177.080302 C135.85746,176.653385 136.379907,176.072812 136.609783,175.899576 C137.114318,175.654408 137.797976,175.368378 138.519166,175.070004 C139.865159,174.509862 141.379188,173.882468 142.790861,173.075455 C143.87627,172.460405 145.369828,172.023272 147.262151,171.466961 C147.664329,171.34991 148.075462,171.228177 148.495125,171.096228 C154.01003,169.45113 154.662555,165.712308 154.679615,164.178727 C154.734631,160.85235 152.262286,157.858823 148.384665,156.55977 C147.413554,156.239263 145.321635,155.757864 141.242286,154.842738 C141.386439,154.683549 141.523768,154.53117 141.66067,154.383898 C144.178223,151.559351 145.71315,147.912893 146.643745,145.734892 L146.801545,145.359904 C148.151377,145.012156 150.410905,144.062553 156.671309,140.940483 C161.008683,138.77057 163.086101,134.099596 162.203273,128.437733 C161.921792,126.602798 161.269266,123.833584 160.623565,121.22058 C164.071713,119.852573 165.458649,117.318738 165.919255,114.919405 C167.474654,116.742847 169.274429,117.208497 170.706146,117.208497 C176.015057,117.208497 177.735506,111.222721 178.370972,108.971086 C178.81068,107.456658 179.202195,102.207665 179.545517,93.3415833 C183.422285,90.7473073 185.585854,86.9701776 186.303205,84.1205176 C186.928435,81.6134977 186.145405,78.6659405 183.968615,75.3642507 C183.178761,74.1664996 181.083856,71.2346911 178.453284,69.6870639 C175.078065,67.7057095 167.691309,65.3221253 162.636158,63.8162108 C163.226842,61.7390875 163.907089,59.3814673 164.476876,57.5546202 C166.684799,50.5324109 164.088773,38.3468474 163.776584,36.9826285 C162.086842,29.3691626 153.295664,26.6531961 145.641074,26.6531961 C142.251781,26.6531961 138.433442,27.6245492 135.843813,28.428115 C135.267202,27.835539 134.610838,27.0693869 134.047875,26.1512388 C132.306955,23.3182638 129.573599,20.3848378 127.94911,18.7537852 C127.749941,17.5095968 127.468459,15.6022187 127.183139,13.3230439 C126.255956,5.96496205 121.730076,5.1643757 119.824105,5.1643757 C117.883589,5.1643757 116.214745,5.93899801 114.844442,6.70515008 C112.97984,7.74034921 108.213847,10.7094864 105.648527,12.3121489 L105.274071,12.2554536 C104.278224,9.89779087 103.183005,7.20012688 102.812388,5.96496205 C101.153353,0.42996454 96.9985161,0 95.7617036,0 Z" id="path16" fill="#FFFFFF" fill-rule="nonzero"></path>
                        <path d="M157.128077,67.6597404 C157.128077,67.6597404 172.073037,71.7258797 176.688054,74.4389093 C179.030747,75.8167061 182.663564,80.9520531 182.12747,83.1151558 C181.578155,85.28592 179.400938,88.8140503 175.328413,90.4408465 C175.328413,90.4408465 174.792745,105.897539 174.24343,107.799298 C173.154608,111.596859 171.523295,114.306058 169.895821,110.239493 C168.261522,106.16782 165.819457,99.6593584 165.819457,99.6593584 C165.819457,99.6593584 165.00572,101.291262 163.642241,102.370685 C162.286012,103.458621 161.468436,104.543152 161.468436,104.543152 C161.468436,104.543152 162.010927,111.324024 161.746505,113.75911 C161.468436,116.20271 159.604261,117.285964 155.225518,117.285964 C154.95086,117.285964 157.392499,125.968595 157.937976,129.497151 C158.484732,133.011235 157.392499,135.463773 155.225518,136.541493 C153.048728,137.629855 147.608885,140.336926 146.256068,140.614443 C144.889177,140.888981 143.804194,141.42699 142.986618,143.32577 C142.172881,145.22455 140.812814,148.756085 138.645833,151.184362 C136.472028,153.633069 132.935171,156.60957 132.935171,156.60957 C132.935171,156.60957 131.850188,157.969915 133.756158,158.511329 C135.651467,159.05998 145.960513,161.219251 147.608885,161.764071 C150.057348,162.583002 152.179547,165.090448 147.883543,166.380563 C145.170659,167.193109 142.986618,167.739206 141.09131,168.817352 C139.188751,169.898477 136.7437,170.717834 135.108975,171.529956 C133.478089,172.343779 132.396517,174.244262 130.218874,176.143042 C128.042084,178.037992 124.779032,182.372284 121.256248,182.372284 C117.715979,182.372284 113.914273,181.297543 110.926731,179.668193 C107.931939,178.037992 101.410525,174.509862 97.0633421,171.797258 C93.7926127,169.759719 91.3663277,168.27764 89.7316027,166.921977 C88.0917599,165.570144 86.7440607,163.940368 86.7440607,163.940368 L79.1308398,163.940368 C76.1432978,163.940368 71.5193248,164.749084 71.5193248,164.749084 C71.5193248,164.749084 70.1665078,166.380563 72.8738478,167.460411 C75.6008062,168.546645 81.0351046,170.990244 85.379302,175.868505 C89.7316027,180.754001 94.3487519,185.362406 95.1607833,187.265868 C95.9800649,189.164648 97.331176,190.785485 97.8843298,192.679158 C98.4285273,194.583046 96.7920963,195.391762 93.2620628,194.317446 C89.7316027,193.22568 70.9768332,191.058321 64.9966314,191.058321 C59.0245328,191.058321 47.3421986,188.079692 42.9894714,184.008445 C38.6452314,179.938475 35.6423358,173.97015 36.1951057,168.546645 C36.7358487,163.128247 37.5602056,160.143233 37.5602056,160.143233 C37.5602056,160.143233 33.7484773,154.436677 32.1189554,151.730884 C30.4929734,149.016577 29.6773169,147.664319 30.4929734,146.310783 C31.3050048,144.953843 32.3850407,141.155857 32.3850407,141.155857 C32.3850407,141.155857 24.2413125,126.779439 22.0572295,116.749232 C19.8956224,106.711363 19.6174249,98.0283058 19.8956224,95.8690339 C20.1601723,93.6910338 20.1601723,92.3409036 20.1601723,92.3409036 C20.1601723,92.3409036 10.1033937,86.6517989 7.66542293,85.0135104 C5.21862389,83.3888423 5.75608291,80.9520531 8.48090888,80.4055313 C11.1884621,79.8658197 19.3565001,77.9602293 19.3565001,77.9602293 L20.4329108,73.6284906 C20.4329108,73.6284906 9.83551715,61.9616972 8.20454525,60.0633426 C6.57672935,58.1696701 6.85142968,56.8093245 11.7347068,55.9950752 C16.6300108,55.1846565 22.0572295,54.6415398 22.0572295,54.6415398 C22.0572295,54.6415398 26.1421655,50.3059704 28.3072271,48.6813024 C30.4929734,47.0485472 35.1150272,43.2560945 35.1150272,43.2560945 C35.1150272,43.2560945 32.8951619,33.989017 39.4505669,26.9804281 C47.0654085,18.8342312 57.9361377,13.9672927 64.1790556,13.9672927 C72.6149701,13.9672927 85.6505478,15.3145711 85.6505478,15.3145711 C85.6505478,15.3145711 93.5247788,7.72621796 94.8946553,6.36766009 C96.2632524,5.00893196 97.8843298,5.00893196 98.6946552,7.72621796 C99.5118045,10.4320117 102.504891,17.21416 102.504891,17.21416 L107.664532,18.0236848 C107.664532,18.0236848 115.812994,12.8829321 118.261456,11.5187133 C120.706507,10.1646672 122.341658,9.88714987 122.880311,14.2330198 C123.423229,18.5702066 123.965294,21.5570079 123.965294,21.5570079 C123.965294,21.5570079 128.316316,25.61838 130.486708,29.1431903 C132.663925,32.6678729 135.651467,34.5717608 135.651467,34.5717608 C135.651467,34.5717608 141.901635,32.1268418 146.527314,32.1268418 C151.149154,32.1268418 158.484732,33.4800792 159.566304,38.3711089 C160.651287,43.2560945 161.746505,51.9285102 160.383453,56.2781258 C159.023385,60.6047568 157.128077,67.6597404 157.128077,67.6597404" id="path18" fill="#FAB937"></path>
                        <path d="M157.128077,67.6597404 C157.128077,67.6597404 172.073037,71.7258797 176.688054,74.4389093 C179.030747,75.8167061 182.663564,80.9520531 182.12747,83.1151558 C181.578155,85.28592 179.400938,88.8140503 175.328413,90.4408465 C175.328413,90.4408465 174.792745,105.897539 174.24343,107.799298 C173.154608,111.596859 171.523295,114.306058 169.895821,110.239493 C168.261522,106.16782 165.819457,99.6593584 165.819457,99.6593584 C165.819457,99.6593584 165.00572,101.291262 163.642241,102.370685 C162.286012,103.458621 161.468436,104.543152 161.468436,104.543152 C161.468436,104.543152 162.010927,111.324024 161.746505,113.75911 C161.468436,116.20271 159.604261,117.285964 155.225518,117.285964 C154.95086,117.285964 157.392499,125.968595 157.937976,129.497151 C158.484732,133.011235 157.392499,135.463773 155.225518,136.541493 C153.048728,137.629855 147.608885,140.336926 146.256068,140.614443 C144.889177,140.888981 143.804194,141.42699 142.986618,143.32577 C142.172881,145.22455 140.812814,148.756085 138.645833,151.184362 C136.472028,153.633069 132.935171,156.60957 132.935171,156.60957 C132.935171,156.60957 131.850188,157.969915 133.756158,158.511329 C135.651467,159.05998 145.960513,161.219251 147.608885,161.764071 C150.057348,162.583002 152.179547,165.090448 147.883543,166.380563 C145.170659,167.193109 142.986618,167.739206 141.09131,168.817352 C139.188751,169.898477 136.7437,170.717834 135.108975,171.529956 C133.478089,172.343779 132.396517,174.244262 130.218874,176.143042 C128.042084,178.037992 124.779032,182.372284 121.256248,182.372284 C117.715979,182.372284 113.914273,181.297543 110.926731,179.668193 C107.931939,178.037992 101.410525,174.509862 97.0633421,171.797258 C93.7926127,169.759719 91.3663277,168.27764 89.7316027,166.921977 C88.0917599,165.570144 86.7440607,163.940368 86.7440607,163.940368 L79.1308398,163.940368 C76.1432978,163.940368 71.5193248,164.749084 71.5193248,164.749084 C71.5193248,164.749084 70.1665078,166.380563 72.8738478,167.460411 C75.6008062,168.546645 81.0351046,170.990244 85.379302,175.868505 C89.7316027,180.754001 94.3487519,185.362406 95.1607833,187.265868 C95.9800649,189.164648 97.331176,190.785485 97.8843298,192.679158 C98.4285273,194.583046 96.7920963,195.391762 93.2620628,194.317446 C89.7316027,193.22568 70.9768332,191.058321 64.9966314,191.058321 C59.0245328,191.058321 47.3421986,188.079692 42.9894714,184.008445 C38.6452314,179.938475 35.6423358,173.97015 36.1951057,168.546645 C36.7358487,163.128247 37.5602056,160.143233 37.5602056,160.143233 C37.5602056,160.143233 33.7484773,154.436677 32.1189554,151.730884 C30.4929734,149.016577 29.6773169,147.664319 30.4929734,146.310783 C31.3050048,144.953843 32.3850407,141.155857 32.3850407,141.155857 C32.3850407,141.155857 24.2413125,126.779439 22.0572295,116.749232 C19.8956224,106.711363 19.6174249,98.0283058 19.8956224,95.8690339 C20.1601723,93.6910338 20.1601723,92.3409036 20.1601723,92.3409036 C20.1601723,92.3409036 10.1033937,86.6517989 7.66542293,85.0135104 C5.21862389,83.3888423 5.75608291,80.9520531 8.48090888,80.4055313 C11.1884621,79.8658197 19.3565001,77.9602293 19.3565001,77.9602293 L20.4329108,73.6284906 C20.4329108,73.6284906 9.83551715,61.9616972 8.20454525,60.0633426 C6.57672935,58.1696701 6.85142968,56.8093245 11.7347068,55.9950752 C16.6300108,55.1846565 22.0572295,54.6415398 22.0572295,54.6415398 C22.0572295,54.6415398 26.1421655,50.3059704 28.3072271,48.6813024 C30.4929734,47.0485472 35.1150272,43.2560945 35.1150272,43.2560945 C35.1150272,43.2560945 32.8951619,33.989017 39.4505669,26.9804281 C47.0654085,18.8342312 57.9361377,13.9672927 64.1790556,13.9672927 C72.6149701,13.9672927 85.6505478,15.3145711 85.6505478,15.3145711 C85.6505478,15.3145711 93.5247788,7.72621796 94.8946553,6.36766009 C96.2632524,5.00893196 97.8843298,5.00893196 98.6946552,7.72621796 C99.5118045,10.4320117 102.504891,17.21416 102.504891,17.21416 L107.664532,18.0236848 C107.664532,18.0236848 115.812994,12.8829321 118.261456,11.5187133 C120.706507,10.1646672 122.341658,9.88714987 122.880311,14.2330198 C123.423229,18.5702066 123.965294,21.5570079 123.965294,21.5570079 C123.965294,21.5570079 128.316316,25.61838 130.486708,29.1431903 C132.663925,32.6678729 135.651467,34.5717608 135.651467,34.5717608 C135.651467,34.5717608 141.901635,32.1268418 146.527314,32.1268418 C151.149154,32.1268418 158.484732,33.4800792 159.566304,38.3711089 C160.651287,43.2560945 161.746505,51.9285102 160.383453,56.2781258 C159.023385,60.6047568 157.128077,67.6597404 157.128077,67.6597404 Z M171.523295,87.9968214 C171.523295,87.9968214 172.340445,100.471905 172.073037,104.001738 C171.805203,107.528591 171.248638,109.964955 170.167066,105.897539 C169.078671,101.827569 163.099749,87.4605149 163.099749,87.4605149 L171.523295,87.9968214 Z M161.19719,90.9852401 C161.19719,90.9852401 163.099749,95.5847063 163.642241,96.6777499 C164.188571,97.7627064 161.19719,101.015022 161.19719,101.015022 C161.19719,101.015022 156.574923,101.015022 152.50581,102.641393 C148.423049,104.272871 142.986618,108.333902 141.633801,109.964955 C140.280558,111.596859 140.548392,112.950394 138.096944,112.950394 C135.651467,112.950394 131.438201,113.114691 125.054116,113.488403 C120.431849,113.75911 108.746103,114.306058 103.04525,114.578467 C97.331176,114.848749 94.6029382,113.832746 91.6345881,112.674154 C86.7440607,110.775799 84.0277645,114.036628 86.1930394,118.103193 C88.36855,122.169757 89.458651,122.445147 90.0049809,123.797405 C90.5423546,125.149238 90.2711089,125.968595 88.36855,126.239302 C86.4711089,126.506604 81.5758902,127.596668 85.1042178,134.918953 C88.6432077,142.240813 89.7316027,143.054637 90.8199977,144.408598 C91.8985836,145.765964 93.2620628,144.953843 92.4517373,142.513649 C91.6345881,140.071752 90.5423546,137.09142 95.9800649,137.09142 C101.410525,137.09142 108.481681,137.362553 112.279975,134.103427 C116.077416,130.852389 121.79874,126.506604 124.24379,123.523293 C126.688841,120.546792 129.948055,115.390163 134.841141,115.118179 C139.734654,114.848749 140.280558,115.118179 141.365541,116.20271 C142.454362,117.285964 141.365541,119.186021 141.09131,120.546792 C140.812814,121.896922 142.172881,124.064707 143.535934,125.968595 C144.889177,127.863544 146.527314,128.94467 143.804194,130.579979 C141.09131,132.205924 140.280558,131.397208 138.906843,130.579979 C137.56085,129.764027 134.573308,130.305441 132.935171,133.292583 C131.303858,136.277596 129.676383,138.986795 128.042084,140.888981 C126.417595,142.780525 125.875103,145.495257 130.218874,142.513649 C134.573308,139.53502 134.841141,138.170843 136.201209,136.277596 C137.56085,134.373709 137.828683,133.832294 140.812814,134.103427 C143.804194,134.373709 143.261276,133.011235 144.889177,131.939048 C146.527314,130.852389 148.700692,129.497151 147.065967,126.779439 C145.431669,124.064707 144.078425,122.714577 144.621343,120.269275 C145.170659,117.833762 144.889177,116.475119 146.527314,116.475119 C148.151377,116.475119 150.335417,117.55965 150.335417,117.55965 C150.335417,117.55965 152.773644,123.257693 153.583969,127.055254 C154.407942,130.852389 154.95086,133.832294 151.414003,134.651226 C148.220041,135.382901 145.431669,134.918953 142.718784,136.277596 C139.999076,137.629855 139.734654,137.629855 137.56085,142.240813 C135.384059,146.850495 131.850188,153.902074 123.151983,155.533552 C114.456765,157.159922 102.776137,157.159922 94.3487519,158.240622 C85.923073,159.32941 77.4999532,160.956632 75.0617265,161.495066 C72.6115582,162.03648 68.260537,163.940368 65.5421084,164.749084 C62.8224002,165.570144 60.9253857,165.290924 63.0940725,162.848601 C65.2640388,160.411812 67.4502116,156.074966 68.260537,154.436677 C69.0759803,152.817117 67.1717155,150.649758 64.9966314,153.633069 C62.8224002,156.60957 61.740829,159.869121 59.2923666,161.764071 C56.8511546,163.664553 54.6790559,165.570144 53.3155767,167.739206 C51.9606272,169.898477 52.4984274,174.244262 54.6790559,171.797258 C56.8511546,169.363874 59.2923666,166.108153 66.363096,169.898477 C73.4235896,173.69774 81.847136,178.853518 85.1042178,182.372284 C88.36855,185.902117 90.8199977,187.529765 92.1698293,189.164648 C93.5247788,190.785485 95.1607833,191.601437 90.5423546,191.058321 C85.923073,190.518609 64.7287975,188.348696 59.8365642,187.805579 C54.9481692,187.265868 43.2568788,182.925616 42.1718957,177.774095 C41.0855478,172.618317 38.6452314,166.654675 42.9894714,159.32941 C47.3421986,152.004996 48.1520976,151.184362 49.5036351,149.563099 C50.8688203,147.933749 49.5036351,145.495257 46.7928832,147.933749 C44.0731751,150.371815 40.2712134,156.074966 40.2712134,156.074966 C40.2712134,156.074966 37.2786388,151.730884 36.1951057,149.563099 C35.1150272,147.394037 34.560594,148.211266 37.0109329,145.22455 C39.4505669,142.240813 41.3599069,140.336926 42.7182256,138.986795 C44.0731751,137.629855 42.9894714,136.010295 40.5494109,137.902265 C38.1027824,139.798917 36.1951057,140.888981 36.1951057,140.888981 C36.1951057,140.888981 29.6773169,128.404958 27.7748007,121.896922 C25.8672945,115.390163 23.6885426,101.291262 23.9665695,97.4937019 C24.2413125,93.6910338 24.5091891,91.7977869 25.049932,90.4408465 C25.5978826,89.0847573 26.1421655,88.269231 28.3072271,87.4605149 C30.4929734,86.6517989 34.0216849,85.28592 35.9256938,84.4737988 C37.8280821,83.6578468 38.6452314,83.1151558 39.7322616,82.0336045 C40.8241539,80.9520531 40.5494109,79.3141903 38.6452314,79.8658197 C36.7358487,80.4055313 35.9256938,80.4055313 35.9256938,80.4055313 C35.9256938,80.4055313 35.6423358,75.2510305 37.0109329,72.2689964 C38.3708296,69.2839828 38.6452314,68.1960468 40.0003088,66.840809 L42.9894714,63.8570723 C42.9894714,63.8570723 45.4362278,67.9270423 45.7040617,70.9120559 C45.9736015,73.8919618 46.2499652,76.0682593 47.3421986,77.6878197 C48.4203579,79.3141903 49.2358012,89.0847573 49.2358012,94.2362787 C49.2358012,99.3958872 48.6984275,103.458621 47.8778664,107.528591 C47.0654085,111.596859 46.5246229,113.488403 45.9736015,116.20271 C45.4362278,118.913611 46.7928832,118.646309 48.1520976,115.390163 C49.5036351,112.139976 51.6795722,106.16782 52.4984274,102.641393 C53.3155767,99.1179443 54.1259021,92.068494 53.3155767,87.9968214 C52.4984274,83.9336616 52.4984274,80.6728333 51.4113118,78.5016434 C50.3246228,76.3376895 49.7799988,73.8919618 48.9730852,72.2689964 C48.1520976,70.644754 48.6984275,69.2839828 50.3246228,70.9120559 C51.9606272,72.5418316 59.0245328,81.4900621 62.0120748,85.28592 C64.9966314,89.0847573 72.6115582,98.5680174 79.6767432,102.102958 C86.7440607,105.624704 97.0633421,108.878722 103.869649,109.420561 C110.651647,109.964955 118.811198,110.239493 121.530906,110.239493 C124.24379,110.239493 122.609492,109.158367 118.811198,108.613122 C115.00608,108.06277 109.834071,105.897539 104.683387,105.897539 C101.402422,105.897539 89.7316027,102.641393 82.9291337,99.1179443 C77.5822652,96.3368123 75.870346,94.7776928 73.4235896,92.6094825 C70.9768332,90.4408465 68.8047345,86.9135675 66.0884383,83.6578468 C63.3734215,80.4055313 59.2923666,75.7975523 56.5760704,72.2689964 C53.8546563,68.7412917 49.2358012,65.4851454 46.7928832,62.5133267 C44.3439944,59.5270362 42.4382795,56.8093245 41.0855478,53.2828968 C39.7322616,49.7543409 38.3708296,46.4986203 38.1027824,43.2560945 C37.8280821,40.0003738 37.7560911,36.7101338 40.5494109,31.8591568 C42.7182256,28.061639 50.7212557,21.8587867 58.4786293,20.4719663 C69.0759803,18.5702066 77.2265749,18.8342312 82.6612998,21.0151256 C88.0917599,23.1812503 95.7100986,28.6065008 98.1449134,32.1268418 C100.595082,35.6596541 108.207023,49.7543409 110.109582,53.8328238 C112.015553,57.8921528 117.715979,70.3655341 120.981591,74.1664996 C124.24379,77.9602293 126.963499,80.9520531 128.577752,81.4900621 C130.218874,82.0336045 132.121007,83.1151558 132.121007,83.1151558 C132.121007,83.1151558 134.573308,89.8990067 134.29865,92.068494 C134.023992,94.2362787 134.29865,95.3174044 134.023992,96.4087454 C133.756158,97.4937019 133.206416,101.291262 136.472028,101.563246 C139.734654,101.827569 141.365541,99.3958872 143.261276,96.6777499 C145.170659,93.9638691 148.151377,88.8140503 148.151377,88.8140503 C148.151377,88.8140503 148.971938,90.4408465 149.514429,92.6094825 C150.057348,94.7776928 150.596427,98.0283058 152.50581,98.0283058 C154.407942,98.0283058 155.76801,98.5680174 157.392499,96.1363358 C159.023385,93.6910338 161.19719,90.9852401 161.19719,90.9852401 Z M142.718784,92.068494 C140.812814,95.5847063 140.812814,95.8690339 139.188751,98.0283058 C137.56085,100.202901 135.926551,99.9334706 136.7437,96.9488827 C137.56085,93.9638691 137.828683,90.1697138 137.56085,87.9968214 C137.286618,85.8375495 136.7437,83.6578468 138.906843,83.9336616 C141.09131,84.197984 141.901635,84.4737988 143.261276,84.7462084 C144.621343,85.0135104 145.706326,86.1014463 144.889177,87.7176015 C144.078425,89.3503567 144.353509,89.0434702 142.718784,92.068494 Z M150.057348,85.5600322 C152.50581,85.8375495 156.574923,86.6517989 157.667157,86.9135675 C158.758963,87.1859771 159.566304,87.1859771 158.484732,89.6197868 C157.392499,92.068494 156.310501,93.6910338 154.95086,95.051805 C153.583969,96.4087454 153.048728,94.7776928 152.231152,92.6094825 C151.414003,90.4408465 150.874497,89.6197868 150.335417,87.9968214 C149.789514,86.3687482 147.608885,85.28592 150.057348,85.5600322 Z M107.664532,39.1831449 C107.389447,37.0137428 107.121613,28.8775058 112.015553,28.6065008 C116.901815,28.332644 121.530906,28.8775058 125.054116,31.5918123 C128.577752,34.297606 133.756158,41.8941315 135.384059,46.7671991 C137.011534,51.6561006 138.906843,58.7132124 139.188751,62.2345325 C139.463408,65.7545756 138.377999,67.3869051 136.7437,69.2839828 C135.108975,71.182763 133.478089,72.8108361 132.121007,73.6284906 C130.765204,74.4389093 131.582354,75.7975523 134.023992,74.9735132 C136.472028,74.1664996 139.463408,72.2689964 141.09131,72.5418316 C142.718784,72.8108361 144.621343,74.4389093 145.977999,73.3505477 C147.341051,72.2689964 146.527314,70.9120559 151.149154,71.182763 C155.76801,71.4500649 161.19719,72.8108361 166.358963,74.9735132 C171.523295,77.1532158 175.328413,78.5016434 176.963138,80.1365268 C178.580377,81.7646 179.676022,83.6578468 176.417235,83.9336616 C173.154608,84.197984 162.564081,84.197984 157.667157,83.3888423 C152.773644,82.5716135 143.261276,81.2176525 139.463408,80.9520531 C135.651467,80.6728333 129.130479,81.4900621 124.779032,75.2510305 C120.431849,69.0137013 116.901815,61.9616972 113.914273,55.7264963 C110.926731,49.4853364 108.207023,44.601117 107.931939,43.2560945 C107.664532,41.8941315 107.931939,41.3539091 107.664532,39.1831449 Z M155.225518,61.9616972 C154.133711,64.1260768 153.316562,68.4718616 150.874497,67.9270423 C148.423049,67.3869051 147.065967,67.3869051 145.431669,67.9270423 C143.804194,68.4718616 141.901635,68.4718616 141.365541,65.7545756 C140.812814,63.0483562 140.280558,56.8093245 139.999076,53.0151692 C139.734654,49.2163319 140.740737,43.5080734 144.621343,40.5350628 C149.247449,37.0137428 152.50581,37.2792571 154.95086,40.0003738 C157.392499,42.7078701 157.667157,44.877783 157.392499,48.4008056 C157.128077,51.9285102 156.310501,59.7943381 155.225518,61.9616972 Z M41.6244569,62.775521 C38.9132785,64.4040197 34.8351664,67.9270423 33.7484773,71.182763 C32.6600822,74.4389093 33.2056872,81.2176525 33.2056872,81.2176525 L26.9559881,83.9336616 C26.9559881,83.9336616 28.8601676,74.9735132 31.030603,71.4500649 C33.2056872,67.9270423 35.3849509,62.2345325 39.4505669,59.2444112 C40.2508699,58.6702228 41.8613704,62.6405931 41.6244569,62.775521 Z M113.36837,122.169757 C113.36837,123.814431 114.707539,125.149238 116.355485,125.149238 C118.010682,125.149238 119.346866,123.814431 119.346866,122.169757 C119.346866,120.52253 118.010682,119.186021 116.355485,119.186021 C114.707539,119.186021 113.36837,120.52253 113.36837,122.169757 Z M109.299257,123.797405 C110.109582,127.055254 113.36837,128.404958 113.36837,128.404958 C113.36837,128.404958 110.109582,132.474928 106.311288,133.559885 C102.504891,134.651226 99.2405587,135.186255 97.6092456,133.832294 C95.9800649,132.474928 95.433735,130.305441 95.433735,126.239302 C95.433735,122.169757 94.3487519,117.019939 98.4285273,117.285964 C102.504891,117.55965 103.592006,117.833762 105.486888,117.285964 C107.389447,116.749232 109.563252,117.285964 109.563252,117.285964 C109.563252,117.285964 108.481681,120.546792 109.299257,123.797405 Z M91.0848462,162.848601 C91.0848462,162.848601 97.0633421,161.764071 98.9748572,162.583002 C100.873578,163.388739 101.134161,163.940368 103.869649,162.848601 C106.579548,161.764071 108.481681,161.764071 109.834071,162.583002 C111.194565,163.388739 112.557618,165.023196 112.015553,166.108153 C111.468796,167.193109 112.557618,168.004805 115.273914,166.108153 C117.99021,164.209373 120.706507,162.305485 126.963499,162.583002 C133.206416,162.848601 144.621343,164.749084 144.621343,164.749084 L135.926551,167.460411 C131.582354,168.817352 128.866057,171.259249 126.139525,175.054681 C123.423229,178.853518 120.981591,180.754001 116.077416,179.122948 C111.194565,177.49828 98.1449134,169.093166 95.433735,167.193109 C92.7161593,165.290924 91.0848462,162.848601 91.0848462,162.848601 Z" id="path20" fill="#231F20"></path>
                        <path d="M64.1790556,51.1151121 C62.5549928,53.0151692 58.7571254,53.8328238 61.4695832,49.7543409 C64.1790556,45.687776 68.1594596,42.3222402 72.6115582,45.149767 C78.5883482,48.9524351 83.481861,54.3687046 89.458651,63.5884934 C95.433735,72.8108361 100.058134,80.4055313 103.04525,85.28592 C106.03663,90.1697138 108.207023,93.1496197 112.825452,95.5847063 C117.43791,98.0283058 119.07562,98.8476629 121.256248,100.471905 C123.423229,102.102958 122.609492,102.370685 119.07562,101.015022 C115.548572,99.6593584 111.194565,98.8476629 109.299257,98.302418 C107.389447,97.7627064 103.316496,95.051805 101.410525,91.252542 C99.5118045,87.4605149 91.0848462,72.5418316 87.015733,66.0337954 C82.9291337,59.5270362 76.4162495,50.3059704 73.1591676,48.6813024 C69.8965415,47.0485472 68.5351947,47.3192543 66.9004697,48.4008056 C65.2640388,49.4853364 65.8171925,49.2163319 64.1790556,51.1151121" id="path22" fill="#231F20"></path>
                        <path d="M124.779032,97.2208666 C120.164015,95.5847063 113.646439,90.4408465 110.651647,85.5600322 C107.664532,80.6728333 103.592006,73.3505477 103.04525,69.8224174 C102.504891,66.2938615 102.504891,64.9416031 102.504891,63.0483562 C102.504891,61.1478734 104.944397,61.4241138 105.764958,65.7545756 C106.579548,70.0965296 108.481681,76.0682593 110.376989,79.3141903 C112.279975,82.5716135 116.077416,87.1859771 120.431849,90.4408465 C124.779032,93.6910338 127.224509,95.051805 128.577752,95.3174044 C129.948055,95.5847063 131.303858,98.0283058 128.866057,98.0283058 C126.417595,98.0283058 125.325362,97.2208666 124.779032,97.2208666" id="path24" fill="#231F20"></path>
                        <path d="M57.3902343,47.0485472 C59.0245328,44.3325381 63.0940725,38.3711089 68.260537,39.1831449 C73.4235896,40.0003738 75.3261485,40.8038971 78.0509745,42.7078701 C80.7651383,44.601117 81.3114682,42.7078701 79.6767432,41.0764344 C78.0509745,39.4551715 72.8738478,34.297606 69.6201778,33.7630447 C66.363096,33.2127347 63.9133542,33.4800792 61.1915136,35.9206992 C57.1893588,39.5291477 56.3048246,41.8941315 55.7555093,45.149767 C55.2181355,48.4008056 55.7555093,49.7543409 57.3902343,47.0485472" id="path26" fill="#231F20"></path>
                        <path d="M48.9730852,126.239302 C51.4113118,122.981879 56.5760704,113.488403 57.1117382,108.06277 C57.6610536,102.641393 56.8511546,101.827569 57.3902343,100.471905 C57.9361377,99.1179443 60.9253857,98.0283058 61.1915136,101.827569 C61.4695832,105.624704 61.1915136,113.222804 59.0245328,117.019939 C56.8511546,120.813668 54.1259021,125.968595 51.6795722,127.863544 C49.2358012,129.764027 46.5246229,129.497151 48.9730852,126.239302" id="path28" fill="#231F20"></path>
                        <polygon id="path30" fill="#FAB937" points="19.8956224 88.8140503 10.1033937 83.3888423 20.4329108 80.4055313"></polygon>
                        <path d="M25.324675,68.7412917 L10.3779661,59.7943381 L21.797968,59.5270362 L25.8672945,56.8093245 C25.8672945,56.8093245 27.7748007,60.8771664 27.2288545,63.3173607 C26.6844438,65.7545756 25.324675,68.7412917 25.324675,68.7412917" id="path32" fill="#FAB937"></path>
                        <polyline id="path34" fill="#8E0A26" points="25.324675 77.1532158 22.0572295 74.9735132 22.6068008 71.182763 27.2288545 73.0832457 25.324675 77.1532158"></polyline>
                        <path d="M29.6773169,66.5730814 C30.2181025,62.5133267 29.94707,58.7132124 28.8601676,55.4515328 C28.76907,55.1931693 32.1189554,53.0151692 32.1189554,53.0151692 L37.5602056,57.345631 C37.5602056,57.345631 35.9256938,59.5270362 34.0216849,61.6943953 C32.1189554,63.8570723 29.94707,66.5730814 29.6773169,66.5730814" id="path36" fill="#8E0A26"></path>
                        <path d="M89.1874052,17.7614906 L95.9800649,10.9790017 L97.0633421,16.669809 L99.2405587,19.1128977 C99.2405587,19.1128977 97.331176,22.6415387 94.8946553,21.8260124 C92.4517373,21.0151256 89.1874052,17.7614906 89.1874052,17.7614906" id="path38" fill="#FAB937"></path>
                        <path d="M110.376989,20.1962793 L119.07562,15.0417359 C119.07562,15.0417359 120.706507,20.4719663 120.706507,22.0967195 C120.706507,23.7299429 117.43791,26.9804281 115.548572,25.61838 C113.646439,24.2644616 110.651647,21.5570079 110.651647,21.5570079 L110.376989,20.1962793" id="path40" fill="#FAB937"></path>
                        <path d="M110.376989,25.8904066 L106.579548,21.0151256 L103.04525,20.1962793 C103.04525,20.1962793 101.687315,22.3758542 99.7830503,23.1812503 C97.8843298,23.9967766 94.8946553,25.3493755 94.8946553,25.3493755 L95.9800649,26.7017616 C95.9800649,26.7017616 100.058134,26.7017616 102.504891,26.7017616 C104.944397,26.7017616 110.376989,25.8904066 110.376989,25.8904066" id="path42" fill="#8E0A26"></path>
                        <path d="M35.9256938,134.918953 C34.8351664,132.205924 30.2181025,117.019939 29.4097815,110.506795 C28.5921205,104.001738 27.7748007,97.7627064 27.7748007,95.051805 C27.7748007,92.3409036 29.4097815,89.3503567 31.8477523,89.0847573 C34.2943807,88.8140503 36.4631528,87.7176015 38.6452314,86.3687482 C40.8241539,85.0135104 44.3439944,83.3888423 40.0003088,87.1859771 C35.6423358,90.9852401 32.934612,92.068494 33.2056872,101.291262 C33.4684032,110.506795 34.2943807,118.913611 35.9256938,124.885341 C37.5602056,130.852389 38.1027824,131.661105 38.6452314,133.832294 C39.1793211,136.010295 37.0109329,137.629855 35.9256938,134.918953" id="path44" fill="#231F20"></path>
                        <path d="M109.299257,123.797405 C110.109582,127.055254 113.36837,128.404958 113.36837,128.404958 C113.36837,128.404958 110.109582,132.474928 106.311288,133.559885 C102.504891,134.651226 99.2405587,135.186255 97.6092456,133.832294 C95.9800649,132.474928 95.433735,130.305441 95.433735,126.239302 C95.433735,122.169757 94.3487519,117.019939 98.4285273,117.285964 C102.504891,117.55965 103.592006,117.833762 105.486888,117.285964 C107.389447,116.749232 109.563252,117.285964 109.563252,117.285964 C109.563252,117.285964 108.481681,120.546792 109.299257,123.797405" id="path46" fill="#FFFFFF"></path>
                        <path d="M113.36837,122.169757 C113.36837,123.814431 114.707539,125.149238 116.355485,125.149238 C118.010682,125.149238 119.346866,123.814431 119.346866,122.169757 C119.346866,120.52253 118.010682,119.186021 116.355485,119.186021 C114.707539,119.186021 113.36837,120.52253 113.36837,122.169757" id="path48" fill="#FFFFFF"></path>
                        <path d="M150.057348,85.5600322 C152.50581,85.8375495 156.574923,86.6517989 157.667157,86.9135675 C158.758963,87.1859771 159.566304,87.1859771 158.484732,89.6197868 C157.392499,92.068494 156.310501,93.6910338 154.95086,95.051805 C153.583969,96.4087454 153.048728,94.7776928 152.231152,92.6094825 C151.414003,90.4408465 150.874497,89.6197868 150.335417,87.9968214 C149.789514,86.3687482 147.608885,85.28592 150.057348,85.5600322" id="path50" fill="#FFFFFF"></path>
                        <path d="M142.718784,92.068494 C140.812814,95.5847063 140.812814,95.8690339 139.188751,98.0283058 C137.56085,100.202901 135.926551,99.9334706 136.7437,96.9488827 C137.56085,93.9638691 137.828683,90.1697138 137.56085,87.9968214 C137.286618,85.8375495 136.7437,83.6578468 138.906843,83.9336616 C141.09131,84.197984 141.901635,84.4737988 143.261276,84.7462084 C144.621343,85.0135104 145.706326,86.1014463 144.889177,87.7176015 C144.078425,89.3503567 144.353509,89.0434702 142.718784,92.068494" id="path52" fill="#FFFFFF"></path>
                        <path d="M171.523295,87.9968214 C171.523295,87.9968214 172.340445,100.471905 172.073037,104.001738 C171.805203,107.528591 171.248638,109.964955 170.167066,105.897539 C169.078671,101.827569 163.099749,87.4605149 163.099749,87.4605149 L171.523295,87.9968214" id="path54" fill="#FFFFFF"></path>
                        <path d="M183.856022,41.6608382 L180.408301,41.6608382 L180.408301,39.1678645 L183.856022,39.1678645 C184.148166,39.4573423 184.360983,39.6696515 184.66976,39.9591293 L184.66976,40.8674451 L183.856022,41.6608382 Z M185.930029,39.494756 L184.323452,37.9100556 L183.509288,37.9100556 L185.892498,35.5332816 L184.999861,34.6233058 L181.706527,37.9100556 L180.408301,37.9100556 L180.408301,34.9914419 L179.15187,34.9914419 L179.15187,42.9168594 L184.323452,42.9168594 L185.930029,41.3321589 L185.930029,39.494756 Z M188.196808,42.7627777 L186.298087,44.4644865 L178.300175,44.4644865 L176.400602,42.7627777 L176.400602,35.1455661 L178.300175,33.4438147 L186.298087,33.4438147 L188.196808,35.1455661 L188.196808,42.7627777 Z M189.457077,34.5666105 L186.819681,32.1881766 L177.774317,32.1881766 L175.140332,34.5666105 L175.140332,43.3416481 L177.774317,45.7205503 L186.819681,45.7205503 L189.457077,43.3416481 L189.457077,34.5666105 Z" id="path56" fill="#8E0A26" fill-rule="nonzero"></path>
                    </g>
                </g>
            </g>
        </g>
    </g>
</svg>