<?xml version="1.0" encoding="UTF-8"?>
<svg width="200px" height="200px" viewBox="0 0 200 200" version="1.1" xmlns="http://www.w3.org/2000/svg" xmlns:xlink="http://www.w3.org/1999/xlink">
    <!-- Generator: Sketch 51.3 (57544) - http://www.bohemiancoding.com/sketch -->
    <title>minn-crookston</title>
    <desc>Created with Sketch.</desc>
    <defs>
        <path d="M0.0932575562,73.3006012 C0.543115474,69.9227912 5.69842418,70.8572997 8.06943942,73.9261983 C14.3561354,82.0646627 23.5139757,89.8449765 66.7662103,88.0526692 C66.8695428,88.0029117 65.9214673,87.9344951 65.6590028,87.8971769 C54.9274089,87.5582038 43.8537846,86.3085645 38.045983,84.2767991 C40.4996125,84.4478405 46.4350297,85.8680031 51.0157582,85.1335614 C43.7561354,84.7422392 32.6551279,80.7901445 43.2725394,73.8417142 C42.243348,73.4866736 36.2779644,72.4313995 32.4045466,69.1665806 C31.9700336,69.0079785 31.0601912,63.4594967 25.1186773,63.3055594 C23.2096616,63.4309898 20.6915009,63.3055594 16.7933351,65.6866641 C21.0535779,63.942041 25.7717902,66.0790228 27.3552054,67.9428566 C29.3490054,70.2892346 27.4921209,74.0480006 23.3135624,75.2546205 C24.9511754,75.953299 27.4435546,77.0800995 27.4006717,77.0640319 C27.4110049,77.015311 26.0968742,77.2164143 26.0379747,77.2656536 C23.4157065,76.1855007 21.034203,75.0198272 20.3916301,74.6160656 C26.525549,72.3381042 24.675691,68.4046686 22.3832085,67.2503978 C21.7938517,66.9539259 20.9516921,67.1114914 20.2083699,67.0124946 C18.2327564,67.0793563 14.565642,70.4882647 19.6172049,72.2712425 C18.7683803,72.7263165 16.3305606,73.2264832 16.039163,73.2482521 C12.1769052,70.2431053 16.1975717,67.3550959 18.3179024,66.7186143 C15.8403513,66.9632554 13.9634203,68.2362186 12.7666236,70.288198 C11.5912167,68.8395286 10.119504,68.4813781 8.77437355,68.0304506 C19.8543529,60.1936412 26.6174115,60.7751822 34.4737794,63.4807474 C38.8194265,64.9771011 53.2048566,65.519769 55.1893568,62.2357727 C56.7801602,59.6022524 47.1971067,49.5745572 42.1498321,45.7060137 C69.1449238,43.0438309 91.4745544,25.8817885 84.8147765,0.0507941347 C102.326014,2.52612708 112.602945,9.89806645 117.643503,17.4110891 C116.128649,21.1712545 105.19349,37.0849014 76.6277448,46.7057252 C102.553862,41.1878236 120.491863,25.0850463 126.83906,13.819581 C137.336089,13.819581 157.430121,27.8424421 160.120899,34.8804878 C147.134074,43.7315731 106.602945,55.7786979 73.9824335,59.6146917 C104.488763,58.8807683 138.115216,48.7810284 147.23534,44.5926892 C151.119607,46.7699953 160.774994,51.0921616 164.572462,57.5316139 C164.572462,57.5316139 138.79876,68.349728 73.9845001,71.9923931 C113.087058,72.5946664 137.022991,68.9680688 139.510204,68.8395286 C142.449496,71.1257829 147.086024,76.1865373 149.058641,80.7580095 C138.932576,82.9027659 112.313614,83.696813 80.9801085,82.5539449 C90.9253423,84.0233467 105.518987,85.1055728 117.067941,85.8187639 C118.451563,86.3085645 119.442521,87.5431729 120.264531,89.3821279 C22.314544,110.202022 -1.16130199,80.5947426 0.0932575562,73.3006012 Z" id="path-1"></path>
    </defs>
    <g id="minn-crookston" stroke="none" stroke-width="1" fill="none" fill-rule="evenodd">
        <g id="minn-crookston_BGL" transform="translate(0.000000, 46.000000)">
            <g id="minn-crookston">
                <g id="g10" transform="translate(100.000000, 54.000000) scale(-1, 1) rotate(-180.000000) translate(-100.000000, -54.000000) ">
                    <g id="g12">
                        <g id="g14" transform="translate(72.371954, 0.005685)" fill="#231F20" font-family="ArialMT, Arial" font-size="23.4213314" font-weight="normal">
                            <g id="text18" transform="translate(2.517193, 14.140486) scale(-1, 1) rotate(-180.000000) translate(-2.517193, -14.140486) translate(0.017193, 0.640486)">
                                <text id="tspan16">
                                    <tspan x="0" y="21">™</tspan>
                                </text>
                            </g>
                        </g>
                        <path d="M21.1256523,78.7981402 C0.297282873,72.9070572 -7.74125549,60.4417619 9.05311289,36.5425513 C10.1243606,34.9783511 11.6585895,36.094319 11.1102557,37.1282906 C1.45048825,53.8841354 16.6601395,53.9639548 44.1215707,60.7921377 C49.7864634,56.5663767 31.435288,39.5742355 35.7037975,36.9651274 C47.6237665,31.6206515 64.4448463,49.2473565 64.4448463,49.2473565 C99.9746835,46.2411731 110.975975,26.8538811 101.122191,2 C114.667528,2.55981356 129.268923,3.79241099 145.706019,19.465926 C146.886076,17.7312545 148.127099,14.0370697 148.309997,12.1189173 C172.071299,16.6903894 186.296048,31.3797422 192.347714,42.7804857 C190.34823,44.1507353 183.321106,46.9828192 178.267114,49.1556679 C182.686128,51.0195535 195.295273,59.4035919 199.404288,67.206193 C199.257556,68.3412864 179.709119,73.506739 170.74141,75.1394076 C174.554379,77.9149442 179.800052,83.9552998 182.459313,91.4655754 C179.303022,92.4954524 158.83131,94.4603561 148.171015,93.6440218 C150.324464,95.8354259 150.612245,98.3787608 150.612245,98.3787608 C55.242573,121.235603 18.9782485,96.5273664 21.1256523,78.7981402" id="path20" fill="#231F20" fill-rule="nonzero"></path>
                        <path d="M24.7380522,80.7428299 C25.1879101,77.36502 30.3432188,78.2995284 32.714234,81.3684271 C39.00093,89.5068914 48.1587703,97.2872052 91.4110049,95.4948979 C91.5143374,95.4451404 90.5662619,95.3767238 90.3037975,95.3394057 C79.5722036,95.0004326 68.4985792,93.7507932 62.6907776,91.7190278 C65.1444071,91.8900693 71.0798243,93.3102318 75.6605528,92.5757901 C68.40093,92.1844679 57.2999225,88.2323733 67.917334,81.2839429 C66.8881426,80.9289023 60.922759,79.8736282 57.0493413,76.6088093 C56.6148282,76.4502072 55.7049858,70.9017255 49.763472,70.7477881 C47.8544562,70.8732186 45.3362955,70.7477881 41.4381297,73.1288928 C45.6983725,71.3842697 50.4165849,73.5212516 52,75.3850853 C53.9938001,77.7314634 52.1369155,81.4902293 47.958357,82.6968492 C49.59597,83.3955277 52.0883493,84.5223282 52.0454663,84.5062607 C52.0557995,84.4575398 50.7416688,84.6586431 50.6827693,84.7078823 C48.0605012,83.6277295 45.6789977,82.4620559 45.0364247,82.0582943 C51.1703436,79.7803329 49.3204857,75.8468973 47.0280031,74.6926265 C46.4386463,74.3961546 45.5964867,74.5537201 44.8531646,74.4547234 C42.877551,74.521585 39.2104366,77.9304934 44.2619995,79.7134712 C43.4131749,80.1685452 40.9753552,80.6687119 40.6839576,80.6904809 C36.8216998,77.685334 40.8423663,74.7973246 42.962697,74.160843 C40.485146,74.4054842 38.6082149,75.6784474 37.4114182,77.7304267 C36.2360114,76.2817573 34.7642986,75.9236068 33.4191682,75.4726793 C44.4991475,67.6358699 51.2622061,68.2174109 59.118574,70.9229761 C63.4642211,72.4193298 77.8496513,72.9619978 79.8341514,69.6780015 C81.4249548,67.0444811 71.8419013,57.0167859 66.7946267,53.1482424 C93.7897184,50.4860596 116.119349,33.3240173 109.459571,7.49302286 C126.970809,9.9683558 137.24774,17.3402952 142.288298,24.8533178 C140.773444,28.6134832 129.838285,44.5271302 101.272539,54.1479539 C127.198657,48.6300523 145.136657,32.527275 151.483854,21.2618097 C161.980883,21.2618097 182.074916,35.2846709 184.765694,42.3227165 C171.778869,51.1738018 131.24774,63.2209267 98.6272281,67.0569205 C129.133557,66.322997 162.76001,56.2232571 171.880134,52.0349179 C175.764402,54.2122241 185.419788,58.5343903 189.217257,64.9738426 C189.217257,64.9738426 163.443555,75.7919567 98.6292948,79.4346218 C137.731852,80.0368951 161.667786,76.4102976 164.154999,76.2817573 C167.094291,78.5680117 171.730819,83.6287661 173.703436,88.2002382 C163.57737,90.3449946 136.958409,91.1390417 105.624903,89.9961737 C115.570137,91.4655754 130.163782,92.5478015 141.712736,93.2609926 C143.096358,93.7507932 144.087316,94.9854016 144.909326,96.8243566 C46.9593387,117.644251 23.4834926,88.0369713 24.7380522,80.7428299" id="path22" fill="#F9B021" fill-rule="nonzero"></path>
                        <g id="g24" transform="translate(24.644795, 7.442229)">
                            <g id="g26-Clipped">
                                <mask id="mask-2" fill="white">
                                    <use xlink:href="#path-1"></use>
                                </mask>
                                <g id="path28"></g>
                                <g id="g26" mask="url(#mask-2)" fill="#FFFFFF" fill-rule="nonzero">
                                    <g transform="translate(13.381555, 64.270130)" id="path32">
                                        <path d="M0.0227848101,7.14435054 C0.0227848101,11.0731214 4.1084991,14.2581209 9.14833376,14.2581209 C14.1885818,14.2581209 18.2743477,11.0731214 18.2743477,7.14435054 C18.2743477,3.21557971 14.1885818,0.0305801423 9.14833376,0.0305801423 C4.1084991,0.0305801423 0.0227848101,3.21557971 0.0227848101,7.14435054"></path>
                                    </g>
                                </g>
                            </g>
                        </g>
                        <path d="M25.3073624,60.4054803 C27.2105399,61.0419619 30.2971842,59.3118515 32.0282098,59.8514096 C43.3617153,63.3810837 56.0542495,65.2433625 60.7724102,65.1884219 C62.8664428,65.1635432 63.7633686,64.2005278 61.5267373,63.9600332 C61.0720744,63.9113123 60.3880134,64.1958631 59.9101007,63.6075841 C53.7545854,59.302522 56.5900284,48.2573374 43.7084474,41.4930099 C38.8715577,38.8061038 41.7497288,44.0446377 42.1372255,45.5112924 C39.7662619,42.9489357 37.5908034,38.6708774 39.2017567,38.3941012 C50.1672953,36.5093797 62.7067941,57.0898673 70.2934642,64.9665863 C72.3482304,67.0994217 67.1816068,69.5054051 60.5347455,67.5995884 C54.7610437,65.9451509 46.3280806,67.0439628 41.3731336,68.6444963 C34.799845,70.7680021 28.441643,74.983397 22.8350814,74.7750374 C19.2878326,73.4854883 11.4690778,71.6994007 6.93738052,67.5192507 C13.7196073,67.4358032 6.03647636,54.5786675 10.7389305,56.293747 C15.4152932,57.9984603 21.957117,60.4158465 25.3073624,60.4054803" id="path34" fill="#FDE5B4" fill-rule="nonzero"></path>
                        <path d="M21.6721777,71.5423535 C23.9305606,70.9468182 25.8119349,69.9195328 27.4961509,68.6424231 C27.4961509,68.6424231 31.0673728,68.6771497 30.2691294,69.7676687 C29.1054508,70.3668321 25.4311031,72.0062387 22.2156549,72.0616976 C21.6699561,71.9414503 21.2778094,71.7237612 21.6721777,71.5423535" id="path36" fill="#231F20" fill-rule="nonzero"></path>
                    </g>
                </g>
            </g>
        </g>
    </g>
</svg>