<?xml version="1.0" encoding="UTF-8"?>
<svg width="200px" height="200px" viewBox="0 0 200 200" version="1.1" xmlns="http://www.w3.org/2000/svg" xmlns:xlink="http://www.w3.org/1999/xlink">
    <!-- Generator: Sketch 51.3 (57544) - http://www.bohemiancoding.com/sketch -->
    <title>minot-st</title>
    <desc>Created with Sketch.</desc>
    <defs></defs>
    <g id="minot-st" stroke="none" stroke-width="1" fill="none" fill-rule="evenodd">
        <g id="minot-st_BGL" transform="translate(19.000000, 0.000000)">
            <g id="minot-st" transform="translate(0.980020, 0.000000)">
                <g id="g10" transform="translate(79.713566, 99.712175) scale(-1, 1) rotate(-180.000000) translate(-79.713566, -99.712175) translate(0.000000, 0.173473)" fill-rule="nonzero">
                    <g id="g12">
                        <path d="M152.446206,45.6423359 C151.180702,45.9043581 149.914371,46.186701 148.648041,46.4719352 C147.744345,59.6754755 147.035596,70.2801883 147.035596,89.3378434 C147.035596,95.4018567 147.035596,101.175927 147.081029,105.762142 L150.277832,106.551843 C153.888485,107.429932 156.409581,110.636647 156.409581,114.352208 L156.409581,126.396804 C156.409581,128.536267 155.532319,130.62534 154.001653,132.126268 C152.488335,133.609849 150.51243,134.42681 148.438225,134.42681 L148.227583,134.423506 C145.856001,134.378073 143.485245,134.316946 141.116141,134.256644 L140.912934,134.251688 C137.32954,134.161649 133.650326,134.069958 130.014891,134.035264 C130.498955,134.657277 131.183748,135.671663 132.061011,137.062727 C133.459509,138.122546 134.664712,139.327749 135.656795,140.656859 C138.923812,142.351908 145.94604,147.685696 143.624847,161.464991 C144.355073,163.892744 143.717364,166.407232 142.007446,167.932941 C141.556425,169.217445 141.036841,170.469733 140.454477,171.67824 C141.284655,172.992481 141.710895,174.426499 141.700157,175.908428 C141.689418,177.615042 141.109533,179.054016 140.45613,180.136138 C140.549473,180.470688 140.620513,180.813497 140.664293,181.162915 C140.958366,183.493195 140.089364,185.809431 138.215889,187.685385 C136.054123,189.845499 133.486768,190.097443 131.420824,190.299825 C129.05585,190.529466 126.110992,190.815278 121.240617,194.090556 C115.668102,197.840811 110.298794,198.628034 106.775702,198.628034 C106.612145,198.628034 106.455196,198.624729 106.260249,198.619773 C106.042998,198.624729 105.741491,198.62886 105.379682,198.62886 C103.748239,198.62886 101.410525,198.542125 99.5387017,198.128275 L97.0399086,197.572345 C96.8565261,197.574823 96.6714915,197.575649 96.4831527,197.575649 C93.4185171,197.575649 90.7495582,197.236144 88.5514463,196.565394 L83.9611014,195.165243 C82.627861,195.562572 81.3072592,195.762476 80.0133387,195.762476 C75.7333397,195.762476 72.8118582,193.698183 71.1181307,191.970092 C68.5102994,189.317654 67.4728665,185.643396 68.2089573,181.563548 C68.4366985,180.43682 68.8136239,179.353046 69.1530468,178.512955 C68.7045857,176.989724 61.6231298,172.039223 61.6231298,172.039223 C59.9923472,171.858318 58.4506125,171.515509 57.0246896,171.016576 C55.294864,170.436691 50.7861325,168.669776 46.300613,164.799744 L40.8977679,160.137533 C38.3353691,159.073584 35.8265808,157.856816 33.395854,156.497968 C23.469739,150.946104 10.2639683,140.292572 3.72044277,121.069625 C-0.0935754661,109.870075 -0.980286872,99.2338902 1.0841871,89.4559681 L3.22610302,79.3089681 L3.96309417,81.4218319 C4.36256239,79.9285036 4.86980501,78.5867549 5.48869618,77.3742001 L5.53064286,77.2957256 C5.68907874,77.0082611 5.8455734,76.7333526 6.00013512,76.4687696 C6.5360994,71.70512 9.24817795,64.9967071 18.6879989,58.7854921 C18.4076384,54.4788118 18.0691242,50.3692264 17.6613047,46.3215946 C16.7113502,46.0702284 15.7455357,45.8224142 14.7801342,45.5952512 C11.1332179,44.7421095 8.58667926,41.5278768 8.58667926,37.7826608 L8.58667926,25.7355868 C8.58667926,23.585303 9.46757611,21.4920991 11.0064197,19.988693 C12.5165168,18.5176679 14.500352,17.7064894 16.5928951,17.7064894 L16.7984156,17.709711 C18.7461526,17.7535741 20.7082628,17.8103236 22.6711164,17.8722771 L23.3374888,17.8923501 C26.957889,17.9994058 30.7008746,18.1120787 34.2748509,18.1120787 C37.8487446,18.1120787 41.5924737,17.9994058 45.2128738,17.8923501 L45.87239,17.8722771 C47.8413564,17.8103236 49.8035492,17.7535741 51.7393085,17.709711 L51.9522635,17.7064894 C53.0419025,17.7064894 54.1018864,17.926218 55.0812481,18.3431241 C55.6152877,16.7416662 56.0715136,15.1315348 56.4461261,13.5307377 C57.3841854,8.81483352 62.6421418,0 75.9621548,0 C77.7601294,0 79.6793677,0.159401525 81.6654333,0.472395809 C89.1577651,1.65629095 94.411426,5.60131121 96.4625015,11.5768879 C97.3050698,14.0379307 97.4810178,16.7771862 97.3397637,19.3401632 C98.7159586,18.2911657 100.398617,17.7048374 102.085406,17.7048374 C102.19114,17.7048374 102.296048,17.7064894 102.324959,17.7087198 C105.079001,17.7535741 107.815696,17.8103236 110.549086,17.8716989 L110.660603,17.8749205 C115.853962,17.992054 121.224922,18.1120787 126.510799,18.1120787 C131.795849,18.1120787 137.164331,17.992054 142.355212,17.8749205 L142.472511,17.8716989 C145.205902,17.8103236 147.943422,17.7535741 150.742071,17.7087198 L150.825501,17.7087198 C152.949269,17.7087198 154.94913,18.5257632 156.454188,20.0093442 C157.978245,21.5068853 158.853855,23.5943069 158.853855,25.7355868 L158.853855,37.7826608 C158.853855,41.5724833 156.157637,44.8775812 152.446206,45.6423359" id="path14" fill="#FFFFFF"></path>
                        <path d="M149.594691,114.422422 L144.349291,113.145353 C144.289815,111.761724 144.247687,110.033633 144.217123,108.032946 L149.594691,109.36123 C151.896885,109.920464 153.518416,111.981452 153.518416,114.352208 L153.518416,119.414226 C153.518416,117.045949 151.896885,114.983308 149.594691,114.422422" id="path16" fill="#231F20"></path>
                        <path d="M92.5486893,28.5382827 L92.7072904,28.9671665 C96.4872829,39.1556341 102.424911,55.1576575 107.721526,69.7777864 C107.782654,71.6157416 107.840477,73.4646833 107.895822,75.319077 C102.55047,60.5599243 96.5161946,44.3010002 92.6924215,33.990195 L91.5797358,30.9889999 C88.4961012,38.3195916 81.3876336,50.8655156 62.2239141,60.4470037 C62.2239141,60.4470037 58.3631341,62.7282986 50.9070658,65.6062474 C49.6138061,69.3573283 48.3283113,73.1003139 47.0518204,76.8266133 C47.0650371,73.4181769 47.0840362,70.1752803 47.1102219,67.0073063 C41.3736537,69.0269093 34.0547919,71.1962748 25.2141031,73.0141571 C24.1686576,73.2307467 23.2119296,73.4843433 22.2946041,73.7502479 C22.4043031,77.2015562 22.4859166,80.7742108 22.5397749,84.5087708 C22.7714812,86.486328 27.0104256,87.5585375 27.0104256,87.5585375 C28.8561457,88.0929901 35.1863941,89.0702041 35.0885901,90.0193324 C34.8434193,92.4462594 27.8090481,93.7324151 27.8090481,93.7324151 C27.8090481,93.7324151 28.816165,94.4048176 31.3975629,95.127609 C33.6724146,95.7694478 35.9301671,96.2254259 36.0295406,97.2034659 C36.2382828,99.2784968 27.8503505,100.748861 27.8503505,100.748861 C27.8503505,100.748861 27.5044845,102.049886 30.8406418,103.125399 C34.5952747,104.340515 34.989547,105.188865 33.2132149,105.786098 C30.1688175,106.810396 25.5745901,107.483625 22.544979,107.084644 C22.5253191,109.158023 22.505907,111.221489 22.493351,113.270086 L17.9271267,114.434813 C15.6510359,115.01635 14.0592427,117.065774 14.0592427,119.414226 L14.0592427,126.396804 C14.0592427,127.774651 14.6132727,129.096327 15.5974254,130.061976 C16.5835607,131.026799 17.922666,131.571991 19.2936568,131.533166 C21.658878,131.487734 24.0244297,131.427432 26.389651,131.366305 C30.9884217,131.251484 35.7429848,131.130055 40.3872706,131.130055 C41.5211032,131.130055 42.6724479,131.155663 43.8169365,131.166401 C43.1183483,126.659487 44.1561115,121.16049 44.9350741,120.852375 C45.3306682,120.691295 45.8056454,121.007671 46.0369387,121.766809 C47.0276172,125.020609 48.3073297,126.067211 48.3073297,126.067211 C49.2979256,119.863596 51.692802,118.541094 52.0015785,121.091102 C52.4220366,124.563805 53.5133277,126.129991 53.5133277,126.129991 C53.3746344,123.937661 56.5926669,115.32777 57.2089808,121.827936 C57.7762275,127.805215 59.2185887,131.377043 59.2602215,131.480299 C60.0006903,131.49682 60.7412417,131.518298 61.4802237,131.533166 C61.514422,131.533166 61.5463074,131.533166 61.5789363,131.533166 C63.7566449,131.533166 65.7027297,130.157798 66.4255211,128.09681 L72.1720019,111.719595 C71.8686773,111.187621 70.5569968,109.470269 65.9508743,108.743347 C59.6316124,107.745482 66.5704098,105.676233 68.7113593,105.947177 C68.7113593,105.947177 66.6342633,103.898579 64.6714097,103.404603 C63.5736754,103.128703 62.1984718,101.160233 70.3643626,101.392352 C70.3643626,101.392352 70.2830795,100.036808 67.8281495,98.9645988 C67.12857,98.6573092 66.8536615,98.2409814 67.0527389,97.8882592 C67.5012826,97.0919495 72.5504968,96.9548257 76.8156269,98.4879695 L77.9998483,95.1077839 C77.9849795,95.1127402 77.9730844,95.1193486 77.9595372,95.1218267 L79.1298811,91.7804653 C74.9179484,88.6547023 69.2075659,88.7976084 69.4631449,87.5246695 C69.6374409,86.6540157 72.0842757,85.3216013 75.9218437,85.3356441 C75.9218437,85.3356441 75.1616324,84.4707726 71.7848335,83.3911287 C67.1063493,81.8941658 72.635084,79.875554 77.7542645,79.9232995 C77.7542645,79.9232995 76.5000768,78.2202378 72.638636,77.1570323 C71.2927571,76.7859718 70.542541,76.3755089 70.6021816,75.8453517 C70.6876775,75.0680412 72.9142054,74.2939523 78.7297437,74.8886237 C85.6487161,75.5923334 87.5007142,79.8358211 86.1839947,81.9100259 C86.1839947,81.9100259 89.243674,83.7380686 87.8270028,86.7085348 C87.8270028,86.7085348 90.5579153,89.2164144 88.5043616,91.5078697 L94.4865963,108.4501 C94.4494242,109.320754 94.3750799,110.05924 94.3015617,110.612692 C95.2416036,112.166487 96.7037073,115.311249 96.2857274,119.356403 C98.5540533,122.460689 100.822379,128.371883 98.5334021,135.336288 C101.692207,134.88031 106.020695,134.416898 110.615996,134.416898 C112.486993,134.416898 114.248952,134.500328 115.920046,134.652321 C116.954257,134.411941 118.199937,134.176518 119.565393,134.039394 C119.704995,134.025351 119.837988,134.018743 119.961896,134.018743 C120.721859,134.018743 121.215835,134.25747 121.520647,134.49372 C121.737897,134.228559 122.084837,133.943572 122.580466,133.879967 C122.656462,133.871706 122.748153,133.868402 122.854713,133.868402 C123.698108,133.868402 126.381109,134.271513 127.541706,135.576668 C127.96712,136.054123 128.907988,137.46749 129.905027,139.065066 C131.44891,140.165361 132.731761,141.452343 133.732104,142.940054 C136.533231,144.160126 143.154,148.522482 140.640338,161.727674 C141.405258,163.399594 141.009581,165.317676 139.630908,166.09829 C139.607779,166.111507 139.585476,166.123898 139.563998,166.134636 C139.020459,167.813991 138.209281,169.874153 137.029685,172.011963 C138.215889,173.195689 138.818904,174.495887 138.808991,175.890255 C138.798253,177.700125 137.73513,179.112666 137.14781,179.756983 C137.452621,180.23609 137.705392,180.820106 137.796257,181.524724 C137.923468,182.534154 137.745868,184.063993 136.171422,185.640092 C134.74236,187.06998 132.992792,187.240971 131.140794,187.422702 C128.58996,187.66969 125.097432,188.013326 119.62652,191.691714 C114.658672,195.034728 109.895683,195.736868 106.775702,195.736868 C106.59645,195.736868 106.428762,195.731912 106.264379,195.727782 C105.330119,195.749259 102.296874,195.777344 100.162367,195.305671 C100.162367,195.305671 101.458436,195.057031 102.127534,194.308632 C102.068059,194.313589 102.003627,194.316893 101.944151,194.322675 C100.776947,194.483754 94.2784324,195.289976 89.3948406,193.799787 C89.3948406,193.799787 90.901551,193.651925 91.7647704,193.054692 C91.7647704,193.054692 88.5076658,193.056345 85.2968199,191.547982 C83.4902544,192.421114 81.7138397,192.87131 80.0133387,192.87131 C76.7397958,192.87131 74.4891472,191.278691 73.179697,189.942972 C71.2365859,187.967067 70.4941346,185.179157 71.04263,182.136825 C71.4411152,180.165876 72.4482321,178.24036 72.4482321,178.24036 C72.4482321,178.24036 70.8242231,174.672661 64.4287996,171.326344 C64.4262388,171.326344 64.4249171,171.325518 64.4239259,171.322214 C64.7976297,171.162786 65.8491879,170.729112 66.3574548,170.729112 C66.3574548,170.729112 65.7269329,170.015407 65.2412997,169.278572 C64.9699432,169.288485 64.6966041,169.298398 64.4020356,169.298398 C62.505018,169.298398 60.2027415,169.065452 57.9439977,168.275751 C56.4012717,167.758645 52.3043249,166.16107 48.1892049,162.610719 C48.1892049,162.610719 50.2914128,162.871749 51.8370299,162.780058 C51.8370299,162.780058 48.1892049,161.822669 45.3141473,159.568386 C45.3141473,159.568386 46.2676537,159.59895 47.4479927,159.459348 C44.0234483,158.370618 39.5866656,156.647483 34.8072384,153.97522 C25.3232239,148.669518 12.7050208,138.491789 6.45704667,120.13867 C2.21290642,107.674442 2.31938392,97.5999686 3.91275485,90.0540264 C4.78074885,92.5412549 5.77136131,94.2412603 5.77136131,94.2412603 C5.4928925,86.1674738 6.55126562,81.6522165 8.06396477,78.6884414 C8.32110504,78.2208986 8.57280166,77.791354 8.81838553,77.3874168 C9.11972759,73.1745755 11.3913577,67.0320877 20.3110992,61.1794598 C20.6183062,60.9797216 21.0897314,60.6963874 21.6824204,60.3369742 C27.4044502,56.8914482 45.3755226,46.1166522 54.8476419,26.5822853 C53.9654234,25.9701842 52.9118827,25.6355524 51.8160483,25.6629772 C49.8671549,25.7058491 47.9039708,25.7636724 45.9336827,25.8256259 C42.0825675,25.9427594 38.1027542,26.0627841 34.2748509,26.0627841 C30.4472781,26.0627841 26.4667212,25.9427594 22.6165973,25.8256259 C20.6466397,25.7636724 18.6822165,25.7058491 16.7320014,25.6629772 C15.3280514,25.6291093 14.0131493,26.1592664 13.0244533,27.1234289 C12.0350964,28.0923824 11.4778449,29.4162884 11.4778449,30.7983482 L11.4778449,25.7355868 C11.4778449,24.3487359 12.0350964,23.026069 13.0244533,22.060337 C14.0140579,21.0955138 15.3531632,20.5601525 16.7332405,20.5998854 C18.6728822,20.6427572 20.6263189,20.700911 22.5849597,20.7618733 C26.4457396,20.8766938 30.4376133,21.0032443 34.2748509,21.0032443 C38.1114277,21.0032443 42.1028883,20.8766938 45.96309,20.7618733 C47.9229699,20.700911 49.87715,20.6427572 51.8160483,20.5998854 C53.2055425,20.5627959 54.5365525,21.0955138 55.525579,22.060337 C55.8640106,22.3916646 56.1318151,22.775694 56.3645126,23.1790529 C57.5355173,20.3356329 58.5303261,17.3289032 59.2734383,14.1376346 C59.2734383,14.1376346 61.9383495,0.282663479 81.2133376,3.32903677 C88.2557214,4.4409708 92.2050536,8.07880884 93.7266328,12.5156081 C95.6579314,18.1466075 93.4028222,26.215355 92.7618095,27.9626929 C92.6940736,28.1465711 92.6230336,28.3418487 92.5486893,28.5382827" id="path18" fill="#231F20"></path>
                        <path d="M150.742071,25.6629772 C147.981421,25.7058491 145.238943,25.766894 142.498945,25.8256259 C137.265109,25.9427594 131.853673,26.0627841 126.510799,26.0627841 C121.167099,26.0627841 115.755663,25.9427594 110.523479,25.8256259 C107.784306,25.766894 105.040177,25.7058491 102.279527,25.6629772 C100.912418,25.5893764 99.5750478,26.1699224 98.5928775,27.1356544 C97.6115333,28.1004776 97.0580816,29.4221533 97.0580816,30.7983482 L97.0580816,25.7355868 C97.0580816,24.3561704 97.6115333,23.0377162 98.5928775,22.072893 C99.5750478,21.1038569 100.912418,20.5421447 102.279527,20.5998854 C105.02696,20.6427572 107.757046,20.700911 110.483003,20.7618733 C115.730055,20.879998 121.153882,21.0032443 126.510799,21.0032443 C131.868542,21.0032443 137.291542,20.879998 142.537769,20.7618733 C145.264551,20.700911 147.996289,20.6427572 150.742071,20.5998854 C150.76933,20.5998854 150.798242,20.5998854 150.825501,20.5998854 C152.172785,20.5998854 153.467201,21.1251689 154.42872,22.072893 C155.41089,23.0377162 155.96269,24.3561704 155.96269,25.7355868 L155.96269,30.7983482 C155.96269,29.4221533 155.41089,28.1004776 154.42872,27.1356544 C153.447376,26.1699224 152.126526,25.5984629 150.742071,25.6629772" id="path20" fill="#231F20"></path>
                        <path d="M16.8510348,102.724766 C16.8510348,102.724766 16.2685889,105.080653 21.0413251,106.753399 C23.816018,107.726483 29.6063619,106.998735 33.2132149,105.786098 C34.989547,105.188865 34.5952747,104.340515 30.8406418,103.125399 C27.5044845,102.049886 27.8503505,100.748861 27.8503505,100.748861 C27.8503505,100.748861 36.2382828,99.2784968 36.0295406,97.2034659 C35.9301671,96.2254259 33.6724146,95.7694478 31.3975629,95.127609 C28.816165,94.4048176 27.8090481,93.7324151 27.8090481,93.7324151 C27.8090481,93.7324151 34.8434193,92.4462594 35.0885901,90.0193324 C35.1863941,89.0702041 28.8561457,88.0929901 27.0104256,87.5585375 C27.0104256,87.5585375 22.5175542,86.4252005 22.5175542,84.3419092 C22.5175542,84.3419092 17.2692626,85.7825357 16.8784596,88.6117478 C16.4783223,91.5293469 21.5234063,93.0823159 21.5234063,93.0823159 C21.5234063,93.0823159 16.3347553,93.5705098 16.1398907,96.7640088 C16.1398907,96.7640088 16.1798714,98.8943848 20.0746019,100.251581 C20.0746019,100.251581 17.2692626,100.987589 16.8510348,102.724766" id="path22" fill="#231F20"></path>
                        <path d="M21.6824204,60.3369742 C21.3355631,54.6265917 20.8870194,49.241424 20.3304288,44.0367477 C20.0603939,43.9673597 19.7915981,43.895411 19.5221415,43.8228014 C18.1723801,43.4649577 16.8220406,43.1064532 15.43932,42.7802471 C13.1187053,42.2358819 11.4778449,40.16399 11.4778449,37.7826608 L11.4778449,30.7983482 C11.4778449,29.4162884 12.0350964,28.0923824 13.0244533,27.1234289 C14.0131493,26.1592664 15.3280514,25.6291093 16.7320014,25.6629772 C18.6822165,25.7058491 20.6466397,25.7636724 22.6165973,25.8256259 C26.4667212,25.9427594 30.4472781,26.0627841 34.2748509,26.0627841 C38.1027542,26.0627841 42.0825675,25.9427594 45.9336827,25.8256259 C47.9039708,25.7636724 49.8671549,25.7058491 51.8160483,25.6629772 C52.9118827,25.6355524 53.9654234,25.9701842 54.8476419,26.5822853 C45.3755226,46.1166522 27.4044502,56.8914482 21.6824204,60.3369742" id="path24" fill="#E51635"></path>
                        <path d="M151.861365,42.8115543 C150.259659,43.1413124 148.655475,43.5062601 147.052117,43.8679862 C146.67131,43.9531517 146.290502,44.0399693 145.909694,44.1257956 L145.803134,45.6910726 C144.877135,59.2175975 144.144431,69.9016935 144.144431,89.3378434 C144.144431,99.6989549 144.144431,108.403842 144.349291,113.145353 L149.594691,114.422422 C151.896885,114.983308 153.518416,117.045949 153.518416,119.414226 L153.518416,126.396804 C153.518416,127.774651 152.96166,129.096327 151.977837,130.061976 C150.993189,131.026799 149.667383,131.577773 148.282928,131.533166 C145.917954,131.487734 143.552981,131.427432 141.188833,131.366305 C136.589402,131.251484 131.834674,131.130055 127.18981,131.130055 C122.766326,131.130055 118.303193,131.24405 113.577376,131.363827 C111.180187,131.424128 108.774737,131.486082 106.369287,131.533166 C106.335419,131.533166 106.303203,131.533166 106.269335,131.533166 C104.096005,131.533166 102.153141,130.161928 101.42622,128.106722 L88.5043616,91.5078697 C90.5579153,89.2164144 87.8270028,86.7085348 87.8270028,86.7085348 C89.243674,83.7380686 86.1839947,81.9100259 86.1839947,81.9100259 C87.5007142,79.8358211 85.6487161,75.5923334 78.7297437,74.8886237 C72.9142054,74.2939523 70.6876775,75.0680412 70.6021816,75.8453517 C70.542541,76.3755089 71.2927571,76.7859718 72.638636,77.1570323 C76.5000768,78.2202378 77.7542645,79.9232995 77.7542645,79.9232995 C72.635084,79.875554 67.1063493,81.8941658 71.7848335,83.3911287 C75.1616324,84.4707726 75.9218437,85.3356441 75.9218437,85.3356441 C72.0842757,85.3216013 69.6374409,86.6540157 69.4631449,87.5246695 C69.2075659,88.7976084 74.9179484,88.6547023 79.1298811,91.7804653 L77.9595372,95.1218267 C77.9730844,95.1193486 77.9849795,95.1127402 77.9998483,95.1077839 L76.8156269,98.4879695 C72.5504968,96.9548257 67.5012826,97.0919495 67.0527389,97.8882592 C66.8536615,98.2409814 67.12857,98.6573092 67.8281495,98.9645988 C70.2830795,100.036808 70.3643626,101.392352 70.3643626,101.392352 C62.1984718,101.160233 63.5736754,103.128703 64.6714097,103.404603 C66.6342633,103.898579 68.7113593,105.947177 68.7113593,105.947177 C66.5704098,105.676233 59.6316124,107.745482 65.9508743,108.743347 C70.5569968,109.470269 71.8686773,111.187621 72.1720019,111.719595 L66.4255211,128.09681 C65.7027297,130.157798 63.7566449,131.533166 61.5789363,131.533166 C61.5463074,131.533166 61.514422,131.533166 61.4802237,131.533166 C60.7412417,131.518298 60.0006903,131.49682 59.2602215,131.480299 C59.2185887,131.377043 57.7762275,127.805215 57.2089808,121.827936 C56.5926669,115.32777 53.3746344,123.937661 53.5133277,126.129991 C53.5133277,126.129991 52.4220366,124.563805 52.0015785,121.091102 C51.692802,118.541094 49.2979256,119.863596 48.3073297,126.067211 C48.3073297,126.067211 47.0276172,125.020609 46.0369387,121.766809 C45.8056454,121.007671 45.3306682,120.691295 44.9350741,120.852375 C44.1561115,121.16049 43.1183483,126.659487 43.8169365,131.166401 C42.6724479,131.155663 41.5211032,131.130055 40.3872706,131.130055 C35.7429848,131.130055 30.9884217,131.251484 26.389651,131.366305 C24.0244297,131.427432 21.658878,131.487734 19.2936568,131.533166 C17.922666,131.571991 16.5835607,131.026799 15.5974254,130.061976 C14.6132727,129.096327 14.0592427,127.774651 14.0592427,126.396804 L14.0592427,119.414226 C14.0592427,117.065774 15.6510359,115.01635 17.9271267,114.434813 L22.493351,113.270086 C22.505907,111.221489 22.5253191,109.158023 22.544979,107.084644 C25.5745901,107.483625 30.1688175,106.810396 33.2132149,105.786098 C34.989547,105.188865 34.5952747,104.340515 30.8406418,103.125399 C27.5044845,102.049886 27.8503505,100.748861 27.8503505,100.748861 C27.8503505,100.748861 36.2382828,99.2784968 36.0295406,97.2034659 C35.9301671,96.2254259 33.6724146,95.7694478 31.3975629,95.127609 C28.816165,94.4048176 27.8090481,93.7324151 27.8090481,93.7324151 C27.8090481,93.7324151 34.8434193,92.4462594 35.0885901,90.0193324 C35.1863941,89.0702041 28.8561457,88.0929901 27.0104256,87.5585375 C27.0104256,87.5585375 22.7714812,86.486328 22.5397749,84.5087708 C22.4859166,80.7742108 22.4043031,77.2015562 22.2946041,73.7502479 C23.2119296,73.4843433 24.1686576,73.2307467 25.2141031,73.0141571 C34.0547919,71.1962748 41.3736537,69.0269093 47.1102219,67.0073063 C47.0840362,70.1752803 47.0650371,73.4181769 47.0518204,76.8266133 C48.3283113,73.1003139 49.6138061,69.3573283 50.9070658,65.6062474 C58.3631341,62.7282986 62.2239141,60.4470037 62.2239141,60.4470037 C81.3876336,50.8655156 88.4961012,38.3195916 91.5797358,30.9889999 C91.5797358,30.9889999 102.55047,60.5599243 107.895822,75.319077 C107.548883,63.5066003 107.072253,51.6799157 106.416372,44.0818499 C106.099996,44.0027971 105.780315,43.9225053 105.462287,43.8450221 C103.997705,43.4829656 102.533949,43.1222307 101.069367,42.7941247 C98.7250451,42.2645458 97.0580816,40.1846412 97.0580816,37.7826608 L97.0580816,30.7983482 C97.0580816,29.4221533 97.6115333,28.1004776 98.5928775,27.1356544 C99.5750478,26.1699224 100.912418,25.5893764 102.279527,25.6629772 C105.040177,25.7058491 107.784306,25.766894 110.523479,25.8256259 C115.755663,25.9427594 121.167099,26.0627841 126.510799,26.0627841 C131.853673,26.0627841 137.265109,25.9427594 142.498945,25.8256259 C145.238943,25.766894 147.981421,25.7058491 150.742071,25.6629772 C152.126526,25.5984629 153.447376,26.1699224 154.42872,27.1356544 C155.41089,28.1004776 155.96269,29.4221533 155.96269,30.7983482 L155.96269,37.7826608 C155.96269,40.2185092 154.249468,42.3191475 151.861365,42.8115543" id="path26" fill="#E51635"></path>
                        <path d="M24.1589929,58.825225 C23.7808284,52.9338555 23.295856,47.3763744 22.6892069,41.9955022 C21.8496124,41.7822167 21.0139003,41.5608361 20.1804186,41.3411075 C18.8067845,40.9768206 17.4338112,40.6118729 16.0266396,40.281454 C14.86753,40.0087758 14.0473476,38.9704343 14.0473476,37.7826608 L14.0473476,30.7983482 C14.0473476,30.1084334 14.3244865,29.4437132 14.8197845,28.9636145 C15.3138434,28.4754205 15.9817853,28.1888647 16.6735999,28.2311583 C18.6180327,28.2763431 20.5746909,28.3344142 22.5397749,28.3953765 C26.4079893,28.5108579 30.4091973,28.6331955 34.2748509,28.6331955 C38.1398437,28.6331955 42.1406387,28.5108579 46.0095139,28.3953765 C47.9740196,28.3344142 49.9319996,28.2763431 51.8761019,28.2311583 C51.895101,28.2311583 51.9148435,28.2311583 51.9338426,28.2311583 C52.5746901,28.2311583 53.1867912,28.4754205 53.6601989,28.9090953 C45.127378,44.7743253 31.1594135,54.4588215 24.1589929,58.825225" id="path28" fill="#FFFFFF"></path>
                        <path d="M151.343433,40.2953316 C149.723554,40.6293025 148.103676,40.9958197 146.485449,41.3659715 C145.482627,41.5914824 144.480632,41.8186454 143.476985,42.0373828 L143.239909,45.5126464 C142.310606,59.0904688 141.577902,69.8132238 141.577902,89.3378434 C141.577902,101.632732 141.577902,110.9935 141.899234,115.193124 L148.988372,116.917911 C150.139882,117.197115 150.948583,118.228022 150.948583,119.414226 L150.948583,126.396804 C150.948583,127.085728 150.671031,127.746565 150.180359,128.227325 C149.686382,128.711389 149.018936,128.950116 148.331665,128.964985 C145.972473,128.919553 143.612456,128.858425 141.253265,128.800602 C136.638139,128.682477 131.86689,128.561874 127.18981,128.561874 C122.733284,128.561874 118.045466,128.680825 113.511292,128.795646 C111.122363,128.855947 108.720218,128.919553 106.318898,128.964985 C106.303203,128.964985 106.286682,128.964985 106.269335,128.964985 C105.183083,128.964985 104.212477,128.281018 103.849017,127.251763 L83.8628018,70.6392711 L82.113977,75.6288447 C81.1584881,75.2803354 80.0343203,75.022526 78.7297437,74.8886237 C72.9142054,74.2939523 70.6876775,75.0680412 70.6021816,75.8453517 C70.542541,76.3755089 71.2927571,76.7859718 72.638636,77.1570323 C76.5000768,78.2202378 77.7542645,79.9232995 77.7542645,79.9232995 C72.635084,79.875554 67.1063493,81.8941658 71.7848335,83.3911287 C75.1616324,84.4707726 75.9218437,85.3356441 75.9218437,85.3356441 C72.0842757,85.3216013 69.6374409,86.6540157 69.4631449,87.5246695 C69.2505204,88.5844882 73.1620196,88.6662669 76.9092181,90.4637459 L74.3381458,97.7874814 C70.7993591,97.0316481 67.4174388,97.2431162 67.0527389,97.8882592 C66.8536615,98.2409814 67.12857,98.6573092 67.8281495,98.9645988 C70.2830795,100.036808 70.3643626,101.392352 70.3643626,101.392352 C62.1984718,101.160233 63.5736754,103.128703 64.6714097,103.404603 C66.6342633,103.898579 68.7113593,105.947177 68.7113593,105.947177 C66.5704098,105.676233 59.6316124,107.745482 65.9508743,108.743347 C67.8130328,109.036594 69.1279349,109.49505 70.0643422,109.969201 L64.0028896,127.246807 C63.6349681,128.292583 62.6192603,128.978202 61.5305299,128.964985 C60.5011924,128.942682 59.4715244,128.917075 58.4421868,128.892293 C58.0027297,127.236894 57.4945454,124.836401 57.2089808,121.827936 C56.5926669,115.32777 53.3746344,123.937661 53.5133277,126.129991 C53.5133277,126.129991 52.4220366,124.563805 52.0015785,121.091102 C51.692802,118.541094 49.2979256,119.863596 48.3073297,126.067211 C48.3073297,126.067211 47.0276172,125.020609 46.0369387,121.766809 C45.8056454,121.007671 45.3306682,120.691295 44.9350741,120.852375 C44.3013306,121.104319 43.4952737,124.798403 43.5943167,128.597394 C42.5240072,128.583351 41.4504761,128.561874 40.3872706,128.561874 C35.710769,128.561874 30.9393544,128.682477 26.3248063,128.800602 C23.9643761,128.858425 21.606011,128.919553 19.2452504,128.964985 C18.5670655,128.950116 17.8887981,128.711389 17.3963913,128.227325 C16.9043149,127.746565 16.626763,127.085728 16.626763,126.396804 L16.626763,119.414226 C16.626763,118.239587 17.4241465,117.214462 18.5612006,116.923694 L25.0537673,115.269121 C25.0615322,112.59851 25.0882961,109.903943 25.1131601,107.195334 C27.8149131,107.120164 30.9454672,106.548539 33.2132149,105.786098 C34.989547,105.188865 34.5952747,104.340515 30.8406418,103.125399 C27.5044845,102.049886 27.8503505,100.748861 27.8503505,100.748861 C27.8503505,100.748861 36.2382828,99.2784968 36.0295406,97.2034659 C35.9301671,96.2254259 33.6724146,95.7694478 31.3975629,95.127609 C28.816165,94.4048176 27.8090481,93.7324151 27.8090481,93.7324151 C27.8090481,93.7324151 34.8434193,92.4462594 35.0885901,90.0193324 C35.1863941,89.0702041 28.8561457,88.0929901 27.0104256,87.5585375 C27.0104256,87.5585375 26.1230856,87.3338526 25.1373633,86.9018298 C25.0844137,82.0578058 24.9850402,77.4815862 24.8408123,73.1026268 C24.9695105,73.0755325 25.0844137,73.0415819 25.2141031,73.0141571 C32.7792096,71.4598665 39.2333651,69.6442145 44.5332847,67.888864 C44.4777743,75.2803354 44.4594361,83.1697481 44.4529929,92.385958 C44.61432,91.9118068 50.9732322,73.2820443 54.0634752,64.3400821 C59.4505428,62.0881119 62.2239141,60.4470037 62.2239141,60.4470037 C78.7546078,52.1829785 86.3153363,41.7069638 90.0598087,34.2819549 L90.2820155,34.8824087 C95.4902438,48.9162092 104.793189,73.9867453 110.860506,91.234448 C110.435092,71.7745079 109.815556,52.1135905 108.805301,42.0161533 C107.895822,41.7989855 106.98717,41.5757049 106.078518,41.3511026 C104.597415,40.9841724 103.114661,40.6192247 101.632732,40.2878971 C100.461397,40.0236446 99.6270888,38.9804294 99.6270888,37.7826608 L99.6270888,30.7983482 C99.6270888,30.1119855 99.9046407,29.4502389 100.395313,28.9671665 C100.885159,28.4837636 101.507999,28.2311583 102.237398,28.2311583 C104.993092,28.2763431 107.732265,28.3376358 110.467308,28.3953765 C115.713534,28.5108579 121.139839,28.6331955 126.510799,28.6331955 C131.881758,28.6331955 137.307237,28.5108579 142.555942,28.3953765 C145.288506,28.3376358 148.028505,28.2763431 150.784199,28.2311583 C151.49047,28.2343799 152.135613,28.4837636 152.626285,28.9671665 C153.118609,29.4502389 153.394509,30.1119855 153.394509,30.7983482 L153.394509,37.7826608 C153.394509,39.0000894 152.537898,40.0510694 151.343433,40.2953316" id="path30" fill="#FFFFFF"></path>
                        <path d="M141.046753,39.9271623 C139.958023,56.1744391 139.008069,67.1831717 139.008069,89.3378434 C139.008069,104.510681 139.008069,114.177086 139.551608,117.265677 L148.381227,119.414226 L148.381227,126.396804 C141.318523,126.262985 134.254992,125.992041 127.18981,125.992041 C120.397223,125.992041 113.334518,126.262985 106.270987,126.396804 L83.9916651,63.2900933 L83.7207216,63.2900933 L79.6084103,75.0093092 C79.3211936,74.963794 79.0369507,74.9192701 78.7297437,74.8886237 C72.9142054,74.2939523 70.6876775,75.0680412 70.6021816,75.8453517 C70.542541,76.3755089 71.2927571,76.7859718 72.638636,77.1570323 C76.5000768,78.2202378 77.7542645,79.9232995 77.7542645,79.9232995 C72.635084,79.875554 67.1063493,81.8941658 71.7848335,83.3911287 C75.1616324,84.4707726 75.9218437,85.3356441 75.9218437,85.3356441 C72.0842757,85.3216013 69.6374409,86.6540157 69.4631449,87.5246695 C69.2957051,88.354021 71.6770344,88.5886185 74.5188023,89.5170957 L71.7541872,97.3934568 C69.2969442,97.1654678 67.3247562,97.4033694 67.0527389,97.8882592 C66.8536615,98.2409814 67.12857,98.6573092 67.8281495,98.9645988 C70.1459556,99.9789849 70.3460243,101.227142 70.361141,101.365918 L70.3524675,101.392352 C62.1997109,101.163537 63.5746666,103.128703 64.6714097,103.404603 C66.6342633,103.898579 68.7113593,105.947177 68.7113593,105.947177 C66.5704098,105.676233 59.6316124,107.745482 65.9508743,108.743347 C66.5784225,108.841647 67.1383174,108.961423 67.6507145,109.091939 L61.5789363,126.396804 C60.3373046,126.373675 59.0955903,126.341459 57.8532977,126.312547 C57.6035836,125.025566 57.3708861,123.527942 57.2089808,121.827936 C56.5926669,115.32777 53.3746344,123.937661 53.5133277,126.129991 C53.5133277,126.129991 52.4220366,124.563805 52.0015785,121.091102 C51.692802,118.541094 49.2979256,119.863596 48.3073297,126.067211 C48.3073297,126.067211 47.0276172,125.020609 46.0369387,121.766809 C45.8056454,121.007671 45.3306682,120.691295 44.9350741,120.852375 C44.4477888,121.043192 43.8608822,123.275997 43.6582528,126.020953 C42.5675399,126.009388 41.4769096,125.992041 40.3872706,125.992041 C33.3235748,125.992041 26.2602094,126.262985 19.1962658,126.396804 L19.1962658,119.414226 L27.618066,117.265677 C27.618066,113.873101 27.6509427,110.448309 27.6842324,106.992127 C29.6547683,106.750095 31.6424859,106.314768 33.2132149,105.786098 C34.989547,105.188865 34.5952747,104.340515 30.8406418,103.125399 C27.5044845,102.049886 27.8503505,100.748861 27.8503505,100.748861 C27.8503505,100.748861 36.2382828,99.2784968 36.0295406,97.2034659 C35.9301671,96.2254259 33.6724146,95.7694478 31.3975629,95.127609 C28.816165,94.4048176 27.8090481,93.7324151 27.8090481,93.7324151 C27.8090481,93.7324151 34.8434193,92.4462594 35.0885901,90.0193324 C35.1767294,89.1651995 30.0826608,88.2912414 27.7077747,87.7344855 C27.6561468,82.6782499 27.5561124,77.6155711 27.3831381,72.55504 C32.8737921,71.3572714 37.7332632,70.0355957 41.95833,68.71392 C41.8812598,79.5738815 41.8812598,91.5334772 41.8812598,107.059863 L42.1519555,107.059863 C47.1825011,92.3801757 52.1697617,77.6574517 57.2663911,62.9390232 C60.5411731,61.4404908 62.2239141,60.4470037 62.2239141,60.4470037 C76.6446351,53.2361888 84.2370012,44.3487458 88.4283653,37.2637379 C95.5711964,56.5232789 109.986548,95.4274642 113.46999,107.059863 L113.742585,107.059863 C113.334518,84.3716469 112.654681,52.4143544 111.159535,39.9271623 C108.173374,39.25889 105.183083,38.4508505 102.19527,37.7826608 L102.19527,30.7983482 C110.344227,30.9322504 118.36019,31.2013767 126.510799,31.2013767 C134.661408,31.2013767 142.676545,30.9322504 150.825501,30.7983482 L150.825501,37.7826608 C147.566745,38.4508505 144.304684,39.25889 141.046753,39.9271623" id="path32" fill="#006946"></path>
                        <path d="M26.6112795,57.2499527 C26.2183288,51.4404446 25.7142747,45.6581134 25.037329,39.9271623 C22.1842441,39.25889 19.4682832,38.4508505 16.6148679,37.7826608 L16.6148679,30.7983482 C22.4559311,30.9322504 28.4337877,31.2013767 34.2748509,31.2013767 C40.1162445,31.2013767 46.0937707,30.9322504 51.9338426,30.7983482 L51.9338426,31.9218551 C44.3187602,44.4068169 33.5278563,52.6860413 26.6112795,57.2499527" id="path34" fill="#006946"></path>
                        <path d="M82.6898146,182.926526 C82.6898146,182.926526 80.3376448,183.700533 78.7265222,182.040177 C78.7265222,182.040177 79.6309614,185.536836 82.6898146,182.926526" id="path36" fill="#4F4C4C"></path>
                        <path d="M78.9868923,185.882124 C78.9868923,185.882124 82.2216936,186.840338 83.5786415,183.874829 C83.6546378,187.160845 80.1317938,186.86099 78.9868923,185.882124" id="path38" fill="#4F4C4C"></path>
                        <path d="M85.158044,188.431306 C82.2026945,189.794284 78.0956698,190.49725 75.6256231,188.284269 C74.9631332,187.689515 74.5123592,186.885771 74.2971738,185.934991 C74.2971738,185.934991 73.3565538,181.725453 75.1551066,178.578213 C75.1551066,178.578213 75.0350819,179.534776 75.0963746,180.615246 C75.1474243,180.501251 75.1845139,180.391387 75.2393634,180.277393 C76.9124396,176.838558 79.8187219,176.629568 79.8187219,176.629568 C78.4802774,177.419269 77.8562813,178.664948 77.8562813,178.664948 C78.9807795,178.450176 80.1682225,178.754987 80.1682225,178.754987 C80.1682225,178.754987 76.8946796,179.29357 75.7321006,183.141299 C75.1760882,184.986688 75.6256231,186.489268 76.5446008,187.363226 C77.4848904,188.260314 78.7448604,188.506476 79.8403644,188.467652 C82.9029348,188.357787 85.0729611,186.749473 85.6148481,184.168901 C85.6148481,184.168901 85.9733527,185.78878 85.4711159,187.232711 C85.4711159,187.232711 86.4309829,186.643739 86.8638317,185.509576 C86.8638317,185.509576 87.4784109,185.988684 87.515583,186.801514 C87.515583,186.801514 87.0752998,187.549087 85.158044,188.431306" id="path40" fill="#4F4C4C"></path>
                        <path d="M17.4376937,67.3386338 C64.0812815,47.0846971 67.7304281,13.2803627 67.7304281,13.2803627 C64.9611871,53.517871 17.4376937,67.3386338 17.4376937,67.3386338" id="path42" fill="#4F4C4C"></path>
                        <path d="M76.9979355,26.3392621 C76.1622235,29.1711176 74.9551205,32.258139 73.2142258,35.41777 C77.3202592,36.2792547 80.6858238,36.1131366 81.5682901,36.0479615 C83.5142098,32.8776745 84.8077999,29.8212994 85.629717,27.0381808 C82.1994729,27.2546878 79.3292889,26.9349249 76.9979355,26.3392621 Z M67.1337741,43.9563733 C70.4621666,44.6791647 73.3216946,44.6940335 74.6892159,44.6378623 C77.065341,42.2871795 79.002422,39.9129543 80.5780246,37.5825922 C77.3770913,37.7207073 74.6827727,37.3398995 72.4811088,36.6945913 C71.0436213,39.1159012 69.2850491,41.5650489 67.1337741,43.9563733 Z M65.5830355,45.6094592 C63.6518195,47.564548 61.6053698,49.3992817 59.4735069,51.1265466 C62.4114268,51.7263395 64.9053463,51.7263395 66.1093102,51.6766941 C68.5612665,49.9700803 70.9039367,48.1495547 73.0338997,46.2141258 C73.0771019,46.1743929 73.116174,46.1321819 73.1593763,46.0944315 C70.3766707,46.0944315 68.0388742,45.6746343 66.11311,45.0518772 C65.9346838,45.2383161 65.7653441,45.4241768 65.5830355,45.6094592 Z M50.8286739,57.201216 C53.3707519,57.6961835 55.4874982,57.6687587 56.4109365,57.6200219 C59.0120769,56.2067376 61.6176779,54.6653333 64.1393526,53.0090258 C61.848393,52.9586369 59.8994169,52.5969108 58.269543,52.0738577 C55.8901963,53.9251123 53.4046199,55.6342868 50.8286739,57.201216 Z M42.3707755,61.6935091 C44.5332847,62.1419702 46.3832177,62.1574999 47.3318504,62.121319 C49.5641607,61.111724 51.9003051,59.9891257 54.2655264,58.7568283 C52.4414487,58.6916531 50.8845147,58.3857678 49.5686214,57.9653097 C47.234129,59.3250662 44.827275,60.5666979 42.3707755,61.6935091 Z M35.3951363,64.526521 C37.4983354,65.0767511 39.3692499,65.1238358 40.3434075,65.099963 C41.8389662,64.50207 43.4484368,63.8344585 45.1402643,63.0961374 C43.5516927,62.9893295 42.1974707,62.680553 41.0677684,62.2781854 C39.2030492,63.0961374 37.3105748,63.8444537 35.3951363,64.526521 Z M73.0135789,48.7310094 C61.1310535,58.315719 50.564091,63.0225366 41.3036875,65.8782648 L41.3042658,65.8804951 C41.3001355,65.8804951 41.2978226,65.8804951 41.2936924,65.8814864 C37.3773194,67.089911 33.6914137,67.9746903 30.2472094,68.7445664 C30.2472094,68.7445664 33.4594596,67.7649569 38.3124876,65.898916 C36.6922784,65.7533664 35.3644899,65.3652068 34.3239181,64.9002248 C31.347174,65.9160152 28.3221061,66.7727088 25.2648224,67.4541979 C25.2648224,67.4541979 28.5415869,66.4787186 33.4174964,64.4406946 C31.9370544,63.5972177 31.242679,62.7192946 31.242679,62.7192946 C32.1855294,63.3388301 33.1686909,63.7924953 34.1370662,64.1341485 C35.8069209,63.4239956 37.6413241,62.5947267 39.5860873,61.6470026 C37.4666977,60.5783452 36.4857666,59.3334093 36.4857666,59.3334093 C37.7871215,60.1891943 39.1568732,60.7870874 40.4808618,61.2043239 C42.7885902,60.0510792 45.2286514,58.7287427 47.7067933,57.2366534 C45.1118483,56.004356 43.9163926,54.485255 43.9163926,54.485255 C45.4613489,55.5003845 47.0899012,56.189308 48.6555086,56.6610636 C51.2233593,55.0741441 53.814422,53.304916 56.3254406,51.3404928 C53.1022866,49.8768196 51.6331614,47.9933491 51.6331614,47.9933491 C53.4765686,49.202765 55.4235621,50.0181563 57.289603,50.5721862 C59.669941,48.6525349 61.9635439,46.556192 64.0748383,44.2819185 C60.5463772,42.684343 58.9407064,40.6225289 58.9407064,40.6225289 C60.8803481,41.8954678 62.9234935,42.7695911 64.8908904,43.371697 C66.9079328,41.1107229 68.8058591,38.6606665 70.5105729,36.0024463 C66.3341603,34.2999627 64.4239259,31.8796441 64.4239259,31.8796441 C66.6288114,33.3252269 68.9617342,34.2784029 71.1839667,34.9095031 C72.8770333,32.1315885 74.3678009,29.1404712 75.5878728,25.9240082 C70.5773176,24.2741439 68.4305858,21.5053159 68.4305858,21.5053159 C70.8171191,23.1548497 73.4659224,24.1628753 76.0085787,24.7788588 C77.3234808,21.0552027 78.2867346,17.0462298 78.7878149,12.7194766 C78.7878149,12.7194766 79.2421409,17.9277875 77.3542097,25.0673145 C81.0297899,25.7701155 84.3163017,25.6926323 86.0295239,25.5710381 C87.4924537,19.6308493 86.8200512,15.194397 86.048523,14.0915412 C83.8000222,10.8709479 77.8568595,8.0242732 70.7699518,9.58702256 C70.7699518,9.58702256 74.4859256,7.4253889 80.0720706,8.34795158 C84.0015777,8.990699 86.9133945,10.4204217 88.4704937,13.3267866 C90.3373606,16.8068413 91.2501429,34.017372 73.0135789,48.7310094 Z" id="path44" fill="#4F4C4C"></path>
                        <path d="M129.278883,164.105864 C129.278883,164.105864 129.901723,166.782257 131.785937,166.590615 C133.499985,166.418797 135.335462,163.137737 131.526558,158.644865 C131.526558,158.644865 132.611158,162.339775 132.271653,164.308246 C132.042838,165.656355 130.818635,165.861215 129.278883,164.105864" id="path46" fill="#FFFFFF"></path>
                        <path d="M110.970371,176.139722 C110.970371,177.892594 112.292046,179.321656 113.989573,179.520733 C112.806674,181.501595 112.490298,183.329637 112.415953,184.227551 C107.482799,182.095523 106.841786,177.449833 106.835178,177.402748 C106.161123,173.279946 109.547917,171.431252 109.692475,171.353603 L109.715605,171.342039 L109.737908,171.325518 C109.898987,171.209045 110.108803,171.14957 110.364052,171.14957 C111.293355,171.14957 112.588597,171.934315 113.3403,172.902442 C111.96741,173.346029 110.970371,174.618968 110.970371,176.139722" id="path48" fill="#FFFFFF"></path>
                        <path d="M134.814226,176.256194 C135.795571,176.256194 136.58775,175.462363 136.58775,174.483497 C136.58775,174.181163 136.506797,173.903611 136.37463,173.655797 C136.937994,174.370328 137.249414,175.110467 137.24611,175.873734 C137.241153,177.063242 136.545622,178.063586 136.102034,178.581517 C135.968214,178.470827 135.844307,178.375006 135.745182,178.305618 C135.272683,177.904159 134.727491,177.213583 134.786967,176.251238 C134.796879,176.25289 134.806792,176.256194 134.814226,176.256194" id="path50" fill="#FFFFFF"></path>
                        <path d="M121.794895,136.787653 C121.794895,136.787653 121.817198,136.785175 121.830415,136.785175 C123.978964,140.437956 126.036648,145.41737 127.010557,147.900468 C123.056269,145.605708 120.173364,145.516495 117.73735,146.402844 L114.7008,137.675654 C114.7008,137.675654 114.49594,137.07677 115.166691,136.846303 C115.836615,136.614183 117.753045,135.973171 119.992459,135.807135 C121.291006,135.71214 121.794895,136.787653 121.794895,136.787653" id="path52" fill="#FFFFFF"></path>
                        <path d="M128.551136,146.871213 C126.731353,142.198263 124.23256,138.056462 123.080224,136.258983 C122.972838,135.901305 123.279302,135.725357 123.543637,135.753442 C123.955008,135.798049 125.205644,136.046689 125.910262,136.898344 C128.130677,139.579693 130.147059,143.143261 131.135838,145.111732 C130.314747,145.395892 129.439136,145.944388 128.551136,146.871213" id="path54" fill="#FFFFFF"></path>
                        <path d="M70.1504163,155.776003 C69.2107875,166.287455 75.6491655,172.58111 75.6491655,172.58111 C72.191414,165.617531 72.0874973,157.822122 72.0874973,157.822122 C72.3481978,158.492873 73.6514526,159.919456 73.6514526,159.919456 C72.0868364,152.557723 76.0811882,146.75474 76.0811882,146.75474 C75.9956923,147.174372 76.7785374,148.60013 76.7785374,148.60013 C77.2125426,145.245552 80.8616067,141.890148 80.8616067,141.890148 C73.2965001,145.656097 70.5864041,150.905628 70.1504163,155.776003 Z M106.014087,179.36048 C108.200634,184.383674 113.355169,185.878819 113.355169,185.878819 C113.355169,185.878819 113.267608,181.556114 116.640359,178.715337 C116.640359,178.715337 116.64449,178.701294 116.646142,178.69386 C117.35489,178.06689 117.810042,177.160716 117.810042,176.139722 C117.810042,175.754783 117.732394,175.389671 117.614269,175.044383 C118.374233,175.392975 121.422347,176.569266 123.893881,174.322417 C123.893881,174.322417 120.611995,176.047204 116.969126,173.479849 C114.445552,171.699717 111.567603,167.950288 105.296252,169.148057 C105.296252,169.148057 107.456365,169.494997 108.185765,170.07736 C108.185765,170.07736 103.389734,173.324552 106.014087,179.36048 Z M118.003337,185.924252 C119.156499,182.605194 119.439008,179.144056 122.749805,178.228795 C119.168064,178.667426 117.872822,181.088571 116.725442,184.892519 C116.231466,186.533875 115.264164,188.347875 114.055657,188.918673 C111.362743,190.191612 108.331149,188.747682 108.331149,188.747682 C112.195399,191.3646 116.676705,189.749677 118.003337,185.924252 Z M15.1621811,79.1824177 C15.5215943,80.9103434 16.4266943,81.9142388 16.4266943,81.9142388 C17.311804,77.0537763 19.8341395,74.9001884 20.8370436,74.2177907 C21.3071471,74.0567941 21.7895587,73.9015798 22.2946041,73.7537999 C22.4043031,77.1876786 22.4849254,80.7493468 22.5385358,84.4641642 C22.5353143,84.4245139 22.5175542,84.3856897 22.5175542,84.3419092 C22.5175542,84.3419092 17.2692626,85.7825357 16.8784596,88.6117478 C16.4783223,91.5293469 21.5234063,93.0823159 21.5234063,93.0823159 C21.5234063,93.0823159 16.3347553,93.5705098 16.1398907,96.7640088 C16.1398907,96.7640088 16.1798714,98.8943848 20.0746019,100.251581 C20.0746019,100.251581 17.2692626,100.987589 16.8510348,102.724766 C16.8510348,102.724766 16.2685889,105.080653 21.0413251,106.753399 C21.462031,106.901261 21.9606331,107.006995 22.5030158,107.079688 C22.4997942,107.453887 22.4965726,107.835521 22.493351,108.207242 L17.9271267,109.372795 C15.6510359,109.95268 14.0592427,112.00293 14.0592427,114.352208 L14.0592427,119.414226 L14.0592427,121.333134 L14.0592427,126.396804 C14.0592427,127.774651 14.6132727,129.096327 15.5974254,130.061976 C16.5835607,131.026799 17.922666,131.571991 19.2936568,131.533166 C21.658878,131.487734 24.0244297,131.427432 26.389651,131.366305 C30.9884217,131.251484 35.7429848,131.130055 40.3872706,131.130055 C41.5211032,131.130055 42.6724479,131.155663 43.8169365,131.166401 C43.7544047,130.764116 43.9673597,132.248523 44.3003394,133.262083 C44.3109954,133.295125 44.3255338,133.328993 44.3384202,133.361209 C43.8608822,133.023356 43.5785392,132.67559 43.5785392,132.67559 C43.2719931,135.307377 43.3720274,139.30875 45.7049502,141.981013 C45.7049502,141.981013 44.52362,141.842237 43.6195112,141.519252 C43.6195112,141.519252 45.8388525,145.947692 52.0387506,148.027679 C52.0387506,148.027679 46.4122119,144.146909 47.1011354,135.674142 C47.7497478,135.539496 48.4160375,134.936481 48.9974922,133.543766 C48.9974922,133.543766 49.8639333,135.901305 51.3437144,135.881479 C52.1068169,135.873219 53.2164463,134.941438 53.5375309,132.006491 C53.5375309,132.006491 54.3248366,136.092948 56.3958198,136.126816 C57.5412996,136.143336 59.428983,135.313985 59.2650126,131.490212 C59.2650126,131.490212 59.2621214,131.480299 59.2602215,131.480299 C60.0006903,131.49682 60.7412417,131.518298 61.4802237,131.533166 C61.514422,131.533166 61.5463074,131.533166 61.5789363,131.533166 C63.7566449,131.533166 65.7027297,130.157798 66.4255211,128.09681 L69.9003718,118.194154 C71.797059,117.233461 73.116174,115.085738 73.116174,115.085738 C75.727227,118.759171 74.0822363,123.46351 74.0822363,123.46351 C77.5842639,119.071417 75.9682676,114.503375 74.4381801,111.87737 C76.89691,111.611383 78.412872,110.448309 78.5193495,109.617305 C78.714214,108.113899 75.4471969,106.956607 75.4471969,106.956607 C81.7041749,105.818313 77.5180975,102.695855 77.5180975,102.695855 C80.2075424,101.385744 78.7920277,99.2322381 77.0727754,98.5796608 C76.481656,98.3558019 75.8714548,98.1682892 75.260345,98.0105142 C75.7830677,98.146812 76.304221,98.304587 76.8156269,98.4879695 L77.9978658,95.1119141 C80.1597969,94.7401928 81.5682901,92.80559 81.7392819,92.5594279 C90.7231247,98.9918584 90.8065555,109.67265 90.8065555,109.67265 C87.7039218,104.322342 80.8910139,104.161262 80.8910139,104.161262 C88.4977533,106.84922 90.396836,113.975531 90.7644271,118.347799 C90.9486357,120.551693 91.3955273,120.706164 93.6845044,123.634502 C96.5376718,127.279023 95.0871327,132.658243 93.7538923,135.926086 C90.2258442,136.050819 87.0249109,135.131428 85.1142635,133.715583 C86.9778262,136.266418 91.6813396,139.498741 98.9769895,137.966423 C101.450175,137.446839 107.363022,136.715787 111.723726,137.021425 C106.890523,138.503354 105.986827,142.923533 105.986827,142.923533 C107.784306,139.879548 111.511432,139.003112 113.01649,138.767689 L115.962174,147.23137 C111.62873,149.705381 108.314628,154.534454 101.470826,152.754322 C101.470826,152.754322 107.464626,156.698698 112.258178,152.979007 C115.127867,150.753635 118.003337,148.744688 121.380219,148.721559 C123.550245,148.707516 126.145686,149.264272 128.640349,151.611072 C128.777473,149.113105 135.076083,144.108085 137.650873,150.55208 C138.351361,152.561853 138.789992,155.306808 138.533091,159.064497 C137.599658,158.070762 136.847129,157.341363 136.847129,157.341363 C136.847129,157.341363 134.397072,154.522889 131.947842,155.334068 C128.911292,156.342672 127.706089,157.371926 129.131021,159.822809 C130.316399,161.859015 129.278883,162.272865 128.622176,162.226607 C127.89608,162.169609 126.339807,162.342253 126.900693,164.906304 C127.448362,167.394359 128.650261,169.494997 132.146093,168.911807 C132.146093,168.911807 134.275643,168.413701 136.653834,167.482746 C135.998778,169.100972 135.0893,170.996751 133.808101,173.113084 C131.087927,177.605955 134.719231,180.410386 134.719231,180.410386 C134.719231,180.410386 136.93469,181.711411 134.849746,183.79718 C132.765629,185.882124 128.233933,183.113213 118.692261,189.529122 C111.525474,194.351587 104.878272,192.936568 104.878272,192.936568 C104.878272,192.936568 106.892175,192.256731 108.038729,190.895405 C108.038729,190.895405 102.389391,193.286812 95.0350917,192.445069 C95.0350917,192.445069 97.4281508,191.712366 98.4813611,189.534905 C98.4813611,189.534905 91.9068505,191.799927 86.2261231,190.018969 C88.807521,189.401911 91.530999,186.816383 88.6547023,184.363849 C88.6547023,184.363849 90.2415391,183.840961 91.1972759,182.971133 C91.1972759,182.971133 87.9781695,183.387461 84.9003172,182.659713 C84.9003172,182.659713 87.6361859,182.537458 89.7211293,180.191484 C89.7211293,180.191484 86.8266595,181.609807 82.4237447,181.148046 C82.4237447,181.148046 85.2918636,180.53925 86.9423062,178.801246 C86.9423062,178.801246 83.553034,179.410043 81.5557342,179.323308 C81.5557342,179.323308 82.5512038,178.24036 84.0081861,177.474614 C84.0081861,177.474614 82.4188711,177.080589 81.2923903,177.211105 C81.2923903,177.211105 81.8909442,176.00425 82.7831579,175.255851 C82.7831579,175.255851 80.4715471,174.666879 78.0850138,175.262459 C78.0850138,175.262459 78.231885,174.725528 78.5086935,174.196032 C78.5086935,174.196032 76.1021698,174.766831 74.5049247,176.540354 C73.3743138,175.139378 71.5431321,173.137866 69.3060307,171.67824 C69.3060307,171.67824 70.5498928,171.501466 71.6760431,171.620417 C70.0262614,170.089751 64.4036051,161.485642 67.0144103,151.472297 C69.6506577,141.349913 81.7170613,137.853254 81.7170613,137.853254 C71.8793333,139.111324 68.9349703,143.49681 68.9349703,143.49681 C68.8058591,142.782279 68.8703734,141.021972 68.8703734,141.021972 C67.703912,142.575767 64.879904,147.046335 64.828276,148.617477 C64.828276,148.617477 64.0125543,147.581614 63.776057,146.563097 C61.8254288,153.168172 63.1309966,157.758517 63.1309966,157.758517 C63.1309966,157.758517 62.124871,157.756038 61.2123365,157.168719 C61.4579204,160.364696 63.3355259,165.006256 64.8863472,166.937554 C62.1555173,166.849993 57.6068052,166.274238 54.4280925,163.626757 C54.4280925,163.626757 55.6730284,163.41281 57.4180534,162.580981 C57.4180534,162.580981 53.6734157,162.00027 51.2071688,159.465956 C51.2071688,159.465956 53.4713645,159.67412 55.0705921,158.584564 C55.0705921,158.584564 22.5075591,153.526676 10.2484386,121.464476 C6.78198064,111.418914 7.5476852,102.632249 7.5476852,102.632249 C8.14528087,104.062963 11.8473358,108.229546 11.8473358,108.229546 C9.54117693,99.508964 10.124862,88.96447 10.124862,88.96447 C10.4491681,91.1047586 12.9159932,94.708803 12.9159932,94.708803 C12.1344699,83.9387981 15.1621811,79.1824177 15.1621811,79.1824177 Z" id="path56" fill="#5B2D05"></path>
                    </g>
                </g>
            </g>
        </g>
    </g>
</svg>