<?xml version="1.0" encoding="UTF-8"?>
<svg width="200px" height="200px" viewBox="0 0 200 200" version="1.1" xmlns="http://www.w3.org/2000/svg" xmlns:xlink="http://www.w3.org/1999/xlink">
    <!-- Generator: Sketch 51.3 (57544) - http://www.bohemiancoding.com/sketch -->
    <title>missouri-snt</title>
    <desc>Created with Sketch.</desc>
    <defs></defs>
    <g id="missouri-snt" stroke="none" stroke-width="1" fill="none" fill-rule="evenodd">
        <g id="missouri-snt_BGL" transform="translate(0.000000, 15.920398)">
            <g id="missouri-snt">
                <g id="g10" transform="translate(99.956310, 84.608465) scale(-1, 1) rotate(-180.000000) translate(-99.956310, -84.608465) translate(0.000000, 0.177206)" fill-rule="nonzero">
                    <g id="g12">
                        <path d="M199.800781,83.3888983 C198.238527,83.9121636 196.773084,84.6619688 195.26605,85.3127497 C190.863779,87.2140166 186.476186,89.148639 182.076361,91.05616 C181.749231,91.1979212 181.526601,91.4109103 181.321096,91.6777548 C180.098903,93.2628388 178.896981,94.8642531 177.640188,96.4222357 C176.279594,98.1087761 174.870419,99.7553594 173.447265,101.391172 C171.253469,103.912643 168.874439,106.254829 166.519874,108.620294 C165.401831,109.743265 164.197113,110.781456 163.025247,111.850224 C162.684487,112.160848 162.575094,112.142433 162.355959,111.690743 C161.968017,110.891599 161.604889,110.079947 161.24211,109.268643 C159.9626,106.404234 158.694273,103.534961 157.407423,100.67368 C156.847528,99.4284054 156.8318,99.4346596 158.175968,99.4336172 C159.880817,99.4329223 161.586016,99.4363969 163.291215,99.4301427 C163.564871,99.4291003 163.850411,99.4937267 164.153775,99.3297286 C164.081429,98.6216178 163.735776,97.9791759 163.55858,97.2919124 C163.496719,97.0507795 163.396064,96.8200702 163.325116,96.5806746 C163.167143,96.0508076 163.165396,96.0167571 163.696632,95.9382326 C164.219131,95.8610979 164.507117,95.462221 164.858362,95.172792 C165.932019,94.2878273 166.963735,93.3528293 168.014325,92.4400683 C168.690953,91.8518291 168.688157,91.8198634 168.301962,90.9651272 C166.462206,86.891232 164.632587,82.81282 162.794928,78.737535 C161.699253,76.3070961 160.580861,73.8863859 159.505806,71.4472606 C159.256615,70.8826483 158.931582,70.6925911 158.305632,70.6964131 C153.749232,70.7252517 149.192832,70.6978029 144.636432,70.7280314 C144.006287,70.7325483 143.693138,70.527898 143.446742,69.9712771 C142.04246,66.7972872 140.610918,63.6351107 139.182172,60.4718918 C138.061683,57.9914195 136.930359,55.516159 135.807074,53.0370766 C135.417384,52.1778235 135.050412,51.3077993 134.646742,50.4544529 C134.487721,50.1177702 134.541543,49.890188 134.824986,49.6601737 C135.689643,48.959012 136.537524,48.2380455 137.400783,47.535494 C139.301001,45.9900198 141.201919,44.4462828 143.113671,42.9147067 C143.444645,42.6495995 143.435907,42.4070768 143.270595,42.0516316 C142.475138,40.3390321 141.70205,38.616009 140.924767,36.8950706 C138.959892,32.5425871 136.997812,28.1889569 135.031888,23.8364039 C134.688682,23.0771827 134.32101,22.3283851 133.991084,21.5637089 C133.824724,21.1770277 133.577279,20.9980195 133.15264,21.0407563 C132.931408,21.0630281 132.705982,21.0443003 132.482303,21.0443003 C117.331583,21.0443003 102.181212,21.0438834 87.0304915,21.0438834 C86.806813,21.0438834 86.5827851,21.0345369 86.3598056,21.0445783 C86.0400153,21.0594841 85.8572281,20.9222746 85.718128,20.628294 C84.0768874,17.1639369 82.4650045,13.6869673 81.156136,10.0806407 C80.9296616,9.45588412 80.725555,8.81948785 80.5640871,8.17492641 C80.2268219,6.83101008 79.5903868,5.63052265 78.769417,4.53534845 C77.6761885,3.07632417 76.1576215,2.13751805 74.5408457,1.3575122 C73.3043232,0.760868104 71.9884648,0.390207926 70.6345111,0.156082823 C70.4919161,0.0135724118 70.2591507,0.163276158 70.1231961,0 C69.1166431,0 68.11009,0 67.103537,0 C66.8424623,0.16992677 66.5506318,0.0485893212 66.2752277,0.0868634357 C62.8138036,0.355462552 59.9626023,2.05106461 57.2588889,4.00548149 C53.7782424,6.52073388 51.6358222,9.89753258 51.0249004,14.1747576 C50.7571853,16.0461088 50.9252936,17.8889687 51.448142,19.7003493 C51.7543019,20.7614382 51.7658353,20.7641484 50.6670149,20.7641484 C40.3267792,20.7659204 29.9863339,20.7648433 19.6461332,20.7652602 C13.553831,20.7652602 7.46121432,20.7634882 1.36891215,20.7690475 C0.902549562,20.7694644 0.409569234,20.6772849 -2.9369099e-14,21.0140371 C-2.9369099e-14,21.1251876 -2.9369099e-14,21.236338 -2.9369099e-14,21.3474885 C0.283147568,21.2915832 0.465404969,21.4604109 0.667183906,21.6189541 C4.3700829,24.5222428 8.07598058,27.4214316 11.7832413,30.3191263 C12.9894274,31.2614556 14.2017646,32.1964884 15.4109214,33.1352736 C16.2251459,33.7673615 16.221616,33.7662496 15.904447,34.7290787 C14.8799996,37.838755 13.8579988,40.9495083 12.8347397,44.0595668 C12.7744165,44.2437173 12.6934379,44.4226559 12.7255217,44.6432891 C13.0022539,44.8107618 13.3155785,44.7252881 13.6112884,44.7256356 C19.3984792,44.7315423 25.18567,44.7280678 30.9728607,44.7353643 C31.2939442,44.7357118 31.6445602,44.6269587 31.938208,44.8739984 C31.1190905,45.789539 31.1245427,45.7871068 31.6697939,46.9913815 C33.9370197,51.9999272 36.2016592,57.0095152 38.4660541,62.0194507 C40.1698548,65.7900188 41.8733061,69.5609342 43.5732623,73.3332395 C44.4288324,75.2324217 45.2788106,77.134036 46.1256432,79.0366927 C46.4401911,79.744456 46.4171242,79.793447 45.6975087,80.0529949 C42.2881597,81.2815913 38.8763643,82.5046285 35.4673648,83.7349622 C34.050886,84.2464141 32.6374828,84.7658575 31.2270503,85.2932923 C30.7504754,85.471536 30.2731666,85.5688231 29.7583566,85.5615266 C28.3886406,85.5417217 27.0184703,85.5653485 25.6488941,85.5479759 C25.2573519,85.5431115 24.9624459,85.6511696 24.6855739,85.9333021 C23.6904843,86.9482144 22.6811702,87.9499236 21.6623149,88.9415566 C21.3866661,89.2101383 21.3242808,89.4318138 21.4969676,89.8084537 C23.0253555,93.140535 24.5305018,96.4826926 26.0377101,99.8241552 C28.1387848,104.48212 30.2342675,109.142517 32.3348179,113.80083 C32.9056174,115.066951 33.5101433,116.318479 34.050886,117.596762 C34.2726073,118.120722 34.5878541,118.327804 35.1377885,118.248237 C35.3293132,118.220789 35.5285269,118.244068 35.7242455,118.244068 C62.032327,118.244068 88.3404085,118.244068 114.64849,118.244068 C114.899779,118.244068 115.151766,118.25067 115.403405,118.242678 C115.69873,118.233297 115.946524,118.275339 116.093662,118.586657 C116.520399,119.489342 116.964261,120.384383 117.446218,121.376016 C98.6082981,130.121427 79.1196136,136.477398 58.4894699,139.011378 C58.4583646,139.149317 58.4982074,139.2268 58.5876787,139.232706 C60.1716018,139.340764 61.7471369,139.537423 63.3328075,139.645481 C66.375883,139.852911 69.4196575,139.836581 72.4595875,139.734777 C74.4873725,139.666676 76.5200505,139.568694 78.5429426,139.328603 C79.7025756,139.191359 80.8705965,139.100326 82.030579,138.953701 C83.8815182,138.719864 85.7376999,138.516257 87.5781542,138.216751 C89.9148951,137.836637 92.2428985,137.399193 94.5656595,136.940901 C98.477586,136.169207 102.348621,135.22031 106.193794,134.168915 C110.121797,133.094936 114.011356,131.894831 117.864916,130.580413 C118.814501,130.255891 119.766533,129.936234 120.705633,129.582179 C121.061072,129.448409 121.253295,129.473078 121.415113,129.851803 C121.730709,130.592227 122.082653,131.318405 122.44648,132.036592 C122.626821,132.392037 122.487721,132.532408 122.165135,132.639771 C121.212754,132.956649 120.264567,133.287773 119.313234,133.609167 C114.108167,135.366936 108.831452,136.885656 103.49043,138.175752 C98.9951919,139.261545 94.4684992,140.201755 89.9026627,140.954687 C86.742855,141.475868 83.5764068,141.939023 80.3931828,142.296553 C78.0131042,142.563745 75.6319771,142.803836 73.2417631,142.972003 C71.2964596,143.1089 69.349758,143.203408 67.4034059,143.31494 C62.6830915,143.585259 57.9624276,143.479286 53.2449091,143.396244 C50.9123622,143.355245 48.5738738,143.174569 46.2430744,142.959843 C44.135604,142.765616 42.0323275,142.54672 39.9307985,142.300723 C36.9139353,141.94771 33.9177973,141.466139 30.9305366,140.927933 C29.5627079,140.681588 28.204036,140.386253 26.7326162,140.091612 C26.9937608,140.407447 27.2845777,140.467904 27.5378237,140.571793 C30.7886755,141.9081 34.0844727,143.117934 37.4483171,144.151261 C41.5814756,145.42051 45.7642627,146.474337 50.0099594,147.304404 C52.1160319,147.716137 54.2287448,148.088955 56.3512437,148.382901 C58.5020518,148.680668 60.6546075,148.98608 62.825337,149.13479 C64.6581024,149.260569 66.4870232,149.44194 68.3187401,149.586133 C68.7356907,149.618794 69.1571848,149.589955 69.5762324,149.604895 C72.6175604,149.713648 75.6599369,149.844291 78.7030124,149.756385 C81.154039,149.685505 83.6071626,149.594819 86.0515487,149.410669 C88.6878091,149.211925 91.3240694,148.981911 93.9453013,148.621601 C94.1658343,148.591373 94.3923087,148.603881 94.6156377,148.596585 C94.9612908,148.399231 95.3429421,148.652872 95.6924397,148.511111 C95.9646983,148.422163 96.2435974,148.355799 96.378154,148.33252 C96.298119,148.311325 96.0919155,148.401663 95.8797704,148.470806 C95.6148513,148.547246 95.3163803,148.529526 95.1021383,148.74599 C92.3501943,149.4541 89.565747,150.01906 86.7753583,150.549622 C84.9712517,150.892211 83.1507188,151.151412 81.3350788,151.433197 C80.9660093,151.490527 80.6448211,151.597195 80.3470491,151.834853 C79.3897752,152.598557 78.4024445,153.325083 77.4553061,154.100599 C77.1285258,154.368139 76.80559,154.480366 76.3914354,154.472722 C74.9944935,154.446316 73.5916102,154.517544 72.2009593,154.418172 C69.5643495,154.229852 66.9245942,154.101294 64.2918289,153.83028 C62.1043235,153.604783 59.9154201,153.37859 57.7397976,153.077001 C54.1273905,152.575972 50.5363028,151.934573 46.9640879,151.189284 C39.638968,149.66153 32.4585051,147.626146 25.4087543,145.134903 C21.8579287,143.880247 18.3617296,142.485916 14.934731,140.924458 C14.7466313,140.826824 14.5857926,140.783392 14.5986191,141.089499 C18.0496282,143.552599 21.6700737,145.749549 25.3411614,147.868669 C29.2787411,150.141711 33.3168013,152.224002 37.4231533,154.175649 C41.30013,156.018544 45.2484043,157.698135 49.2595881,159.231449 C52.4103089,160.435723 55.5900379,161.560779 58.8138037,162.555539 C63.6333754,164.042988 68.5085173,165.317101 73.4612476,166.299353 C75.865092,166.776407 78.2780234,167.199605 80.6996922,167.564432 C82.3503693,167.812861 84.0157253,167.967131 85.6772368,168.139468 C87.3100896,168.308678 88.9460878,168.454261 90.5817365,168.595675 C91.0259479,168.634242 91.4750523,168.618954 91.9217102,168.628335 C92.5850567,168.825689 93.2844013,168.547031 93.9449518,168.77913 C96.517254,168.77913 99.0895563,168.77913 101.661859,168.77913 C102.239229,168.595327 102.833025,168.740215 103.416686,168.693309 C108.99956,168.667945 114.489119,167.855251 119.93534,166.711085 C126.462906,165.339686 132.794055,163.344606 138.90537,160.677204 C139.421927,160.451706 139.841325,160.500697 140.316641,160.795338 C144.960066,163.676077 149.642635,163.573578 154.347921,160.937794 C156.286235,159.852001 158.061333,158.58032 159.42647,156.789544 C161.532193,154.026939 162.236082,150.906457 161.858275,147.519131 C161.779987,146.817969 161.963823,146.353771 162.486671,145.927445 C165.228829,143.689843 167.754299,141.226048 170.247265,138.716737 C173.710437,135.230039 176.886671,131.50464 179.821752,127.584319 C183.361463,122.856169 186.536649,117.887928 189.350104,112.689325 C192.350541,107.145006 194.861332,101.393604 196.941891,95.4563142 C198.128435,92.0700301 198.996587,88.5913232 199.678807,85.0688371 C199.716203,84.874958 199.708864,84.6821211 199.714106,84.4889369 C199.741367,84.2891509 199.645604,84.0712975 199.800781,83.8892317 C199.800781,83.7224539 199.800781,83.5556761 199.800781,83.3888983" id="path14" fill="#CBB676"></path>
                        <path d="M93.9449518,169.093478 C93.6139776,168.253162 93.2064634,168.746309 92.8349474,168.659283 C92.5329815,168.588165 92.2264721,168.671448 91.9217102,168.687356 C91.9293992,168.822106 91.9325447,168.956856 91.9318457,169.093478 C92.602881,169.093478 93.2739164,169.093478 93.9449518,169.093478" id="path16" fill="#EAE8C3"></path>
                        <path d="M103.507206,169.091814 C103.506856,168.956406 103.510002,168.822853 103.517341,168.689299 C102.899429,168.842329 102.256004,168.163433 101.661859,169.091814 C102.276974,169.091814 102.89209,169.091814 103.507206,169.091814" id="path18" fill="#EAE8C5"></path>
                        <path d="M66.4325016,0 C66.4332006,0.163324101 66.4338996,0.327436064 66.4345986,0.490760165 C66.667364,0.438417747 66.9287882,0.710362969 67.103537,0 C66.8798585,0 66.6561801,0 66.4325016,0" id="path20" fill="#EBE7C8"></path>
                        <path d="M199.671774,84.3975565 C199.825334,84.3933871 199.979938,84.3909549 200.133497,84.3895651 C200.133497,84.2227873 200.133497,84.0560095 200.133497,83.8892317 C199.556866,84.0160523 199.605963,84.2061095 199.671774,84.3975565" id="path22" fill="#EDE3CA"></path>
                        <path d="M70.1231961,0 C70.2472678,0.609482557 70.4440349,0.507017487 70.6345111,0.469461139 C70.6324141,0.312702029 70.6296182,0.155942918 70.6264727,0 C70.4587138,0 70.290955,0 70.1231961,0" id="path24" fill="#EBE3C1"></path>
                        <path d="M14.5986191,141.089499 C14.6694623,140.951907 14.8020267,140.938357 14.9344863,140.924458 C14.6347921,140.681936 14.2564959,140.61314 13.7534291,140.338304 C13.9983221,140.831341 14.3075575,140.950518 14.5986191,141.089499" id="path26" fill="#D8CDAA"></path>
                        <path d="M95.1021383,148.89605 C95.3841828,148.821583 95.6662274,148.747612 95.948272,148.673145 C95.9926582,148.452225 95.9514174,148.346482 95.7784161,148.418467 C95.3904738,148.501374 94.9689797,148.288894 94.6156377,148.682578 C94.7861925,148.71584 94.9812121,148.635911 95.1021383,148.89605" id="path28" fill="#EAF4DC"></path>
                        <path d="M194.481079,89.6315997 C193.157531,90.2090678 191.833285,90.785841 190.510087,91.3643515 C188.5183,92.2347231 186.529659,93.1120438 184.532979,93.9712969 C184.188375,94.1200072 183.923106,94.3177083 183.692787,94.6172135 C181.761813,97.1313887 179.815111,99.6327082 177.760764,102.050639 C174.909563,105.406 171.859847,108.575473 168.675924,111.613608 C163.756746,116.307361 158.503797,120.609881 152.986628,124.592395 C151.361464,125.765399 149.721971,126.918598 148.03215,128.121136 C147.393268,127.074257 146.787939,126.082277 146.183657,125.089602 C146.14032,125.018374 146.100826,124.943671 146.069721,124.866884 C145.769503,124.124375 145.205414,123.775879 144.414151,123.736269 C144.045781,123.717854 143.730184,123.610491 143.493574,123.265122 C141.654518,120.57861 139.639664,118.020308 137.683526,115.418922 C137.651722,115.376532 137.641587,115.318507 137.606987,115.231644 C137.869809,115.025951 138.184007,115.121154 138.468149,115.120806 C144.842286,115.114205 151.216772,115.086061 157.590909,115.143043 C158.704758,115.153119 159.128699,114.394281 159.736475,113.79666 C159.931844,113.604866 159.70537,113.32725 159.608908,113.108354 C159.058799,111.863775 158.498904,110.623712 157.942853,109.381565 C155.524679,103.984914 153.106506,98.5879148 150.690429,93.1898735 C150.624024,93.0425531 150.582434,92.8841142 150.507991,92.6693878 C150.838266,92.5561179 151.142679,92.603719 151.434509,92.6033716 C154.901176,92.5988547 158.368192,92.5912107 161.834858,92.6089308 C162.423063,92.6120579 162.926339,92.5443044 163.324068,92.0540472 C163.53097,91.7993636 163.821053,91.6103488 164.077584,91.3966647 C164.610918,90.9522714 164.621053,90.9494917 164.326077,90.2952363 C162.979812,87.3081765 161.626558,84.3235489 160.277847,81.3371839 C159.352377,79.2875543 158.431101,77.23584 157.506331,75.1855154 C157.426645,75.008314 157.315855,74.8415362 157.258886,74.6577332 C157.104059,74.1584422 156.789162,74.0201556 156.264216,74.0229352 C151.763037,74.0451722 147.261857,74.035791 142.760678,74.035791 C142.648839,74.035791 142.533854,74.0184183 142.42551,74.0389181 C141.781036,74.1591371 141.487808,73.8269713 141.250499,73.2724351 C140.561989,71.6651141 139.82385,70.0782929 139.102836,68.4845225 C136.506419,62.7411122 133.907555,56.9983967 131.311836,51.253944 C130.465702,49.3818632 129.601395,47.517079 128.799997,45.6255408 C128.550106,45.0362592 128.214938,44.8861592 127.602269,44.887549 C116.894361,44.9063115 106.186804,44.8899812 95.4785472,44.9215995 C94.560417,44.9243791 93.9634752,44.7537794 93.61922,43.8319846 C93.3616403,43.141594 92.8866731,42.5352872 92.5808627,41.7938209 C92.9118369,41.6072383 93.2470051,41.6854154 93.5601549,41.6850679 C101.500041,41.6802035 109.440277,41.6812459 117.380513,41.6812459 C121.434335,41.6808985 125.488158,41.6954915 129.54198,41.6659579 C130.16793,41.661441 130.489119,41.8626168 130.737262,42.4223647 C131.289119,43.6655542 131.905982,44.8806 132.499079,46.1060693 C132.643072,46.4034897 132.796502,46.6960458 132.96461,47.0282116 C133.577629,46.7644942 133.986191,46.3013383 134.454868,45.9271306 C136.065702,44.6429416 137.661858,43.3410324 139.27444,42.059623 C139.606812,41.7962531 139.6844,41.5731878 139.493924,41.1548535 C137.031713,35.7474309 134.584881,30.3331287 132.158669,24.9088893 C131.90703,24.3467439 131.600521,24.1529342 130.971425,24.1535944 C115.482391,24.1733993 99.994056,24.1689518 84.5053714,24.1689518 C84.3935322,24.1689518 84.279596,24.1546715 84.1702032,24.171384 C83.5564855,24.2630076 83.258364,24.0000893 82.9850569,23.4301957 C81.5545633,20.4494248 80.1450395,17.4606277 78.8864987,14.4037297 C78.1574467,12.6330706 77.4947993,10.8409737 76.9747469,8.99321472 C76.5668832,7.54353347 75.7504568,6.35148917 74.4548693,5.4817777 C71.6505006,3.59969027 68.628395,3.19793298 65.4255991,4.12886232 C62.4454331,4.9950645 59.8465691,6.55304708 57.7282642,8.80753544 C55.2366959,11.4593371 54.3206627,14.6037935 55.1003918,18.1847213 C55.3251188,19.217736 55.9161192,20.0647587 56.6238518,20.8232155 C57.4406277,21.6984862 58.2954988,22.5386294 59.130798,23.3968054 C59.3209247,23.5918312 59.5603305,23.7560726 59.6113572,24.1421979 C42.7945817,24.1421979 25.9911571,24.1421979 9.18210549,24.1421979 C9.16256858,24.4745722 9.39016141,24.5212699 9.5284576,24.6295713 C12.7267799,27.1392644 15.9272692,29.6464906 19.1298204,32.1512846 C19.770764,32.6523824 19.7827867,32.6492554 19.528038,33.4410677 C18.7463167,35.870777 17.9547396,38.2973939 17.1780861,40.7288752 C17.0881254,41.0106602 16.9013539,41.2806317 16.9880293,41.609323 C17.3152988,41.7444825 17.6530533,41.6774239 17.9815111,41.6777714 C35.79065,41.6815934 53.5999987,41.695839 71.4089978,41.6482378 C72.6042795,41.6451107 73.3511559,41.9557344 73.8649173,42.9977481 C74.1791157,43.6346309 74.7414573,44.1304473 75.0378312,44.8177108 C74.7079055,44.966421 74.3992991,44.8972778 74.1032747,44.8972778 C62.1092164,44.9014472 50.1155077,44.9042268 38.1214495,44.891371 C37.4787234,44.8906761 36.9359536,44.9591245 36.4728693,45.4757882 C36.1069454,45.8840464 35.433813,46.1213573 35.3125373,46.6258601 C35.1912617,47.1293206 35.654346,47.6400776 35.8801214,48.1407584 C39.2230659,55.5578535 42.5590203,62.9777282 45.9040618,70.3934334 C47.5819997,74.1132732 49.274966,77.8268588 50.9843587,81.5949946 C50.6533845,81.8298734 50.2766261,81.9188215 49.92608,82.046337 C44.2666656,84.1001361 38.6034066,86.143859 32.9446562,88.1993954 C32.3074872,88.4307996 31.6740228,88.5725607 30.9865261,88.5544931 C29.7012837,88.521485 28.4138743,88.5715183 27.1290513,88.5322561 C26.6027778,88.5162732 26.2442632,88.6879153 25.8886145,89.0558688 C24.9967316,89.9790534 24.9638089,89.9721044 25.4826031,91.1273881 C27.1204537,94.7749575 28.7733326,98.4162727 30.4188372,102.060368 C32.2700909,106.159974 34.1358139,110.252979 35.9535159,114.367179 C36.22892,114.990511 36.5808641,115.129145 37.2148527,115.128798 C63.9143715,115.11351 90.6142398,115.1149 117.314108,115.119069 C118.671207,115.119416 118.362251,114.928317 118.9889,116.160388 C120.940845,119.999752 122.688682,123.935013 124.516205,127.832749 C125.294536,129.49323 126.109914,131.137034 126.942068,132.771456 C127.184968,133.248163 127.288769,133.672751 127.041674,134.17378 C126.735515,134.79468 126.820792,135.365546 127.225161,135.957955 C127.820705,136.829369 128.33167,137.757765 128.876537,138.66323 C129.270071,139.317832 129.272867,139.327214 128.558494,139.680227 C126.357708,140.767757 124.168105,141.879609 121.946,142.923707 C118.9197,144.346183 115.844471,145.661295 112.731845,146.888849 C106.002269,149.542354 99.1112251,151.67433 92.0415879,153.223279 C88.9656596,153.897339 85.8593251,154.41435 82.750544,154.913989 C82.4366952,154.964369 82.1644366,155.048106 81.9131478,155.246154 C79.1119246,157.450401 76.306158,159.648393 73.5035368,161.850208 C73.4416758,161.898851 73.401134,161.974596 73.328089,162.066324 C73.6478793,162.350888 74.054345,162.345329 74.4136285,162.417252 C77.5570099,163.045448 80.7210115,163.528409 83.915769,163.827567 C86.4132787,164.061403 88.913235,164.210808 91.4180842,164.340061 C93.7932698,164.46306 96.1663585,164.458543 98.5359521,164.404688 C100.898905,164.35118 103.262557,164.224012 105.622715,164.01276 C108.148883,163.786915 110.665615,163.511731 113.173261,163.142736 C117.397987,162.520446 121.566445,161.632702 125.687022,160.517723 C129.405676,159.511496 133.047441,158.276646 136.636432,156.885789 C137.5979,156.513318 138.535951,156.082475 139.486585,155.682209 C140.166707,155.395559 140.161814,155.403551 140.653557,155.967468 C142.481429,158.061572 144.803142,159.100459 147.581997,159.084476 C149.208559,159.075442 150.706855,158.553914 152.101001,157.742262 C152.991521,157.223514 153.883788,156.708587 154.698817,156.06823 C156.870595,154.362232 157.9799,152.14096 158.056789,149.394338 C158.092089,148.12648 157.914544,146.902748 157.364085,145.749896 C157.195627,145.396188 157.251197,145.180072 157.579376,144.917049 C159.07907,143.716944 160.570726,142.507458 162.004714,141.227786 C166.58523,137.139645 170.820791,132.729762 174.636606,127.924824 C178.747746,122.748806 182.38287,117.262859 185.545823,111.463508 C188.70598,105.668675 191.392918,99.6716231 193.489554,93.4171082 C193.893224,92.2117912 194.237828,90.9866693 194.610043,89.7705812 C194.567404,89.7243698 194.524416,89.677811 194.481079,89.6315997" id="path30" fill="#1F4231"></path>
                        <path d="M153.574483,119.599832 C154.09803,119.210684 154.642198,118.844815 155.187414,118.28333 C151.569066,118.28333 148.088419,118.28333 144.49838,118.28333 C144.89471,119.005339 145.382609,119.54007 145.805151,120.118928 C145.94495,120.310723 146.170376,120.363536 146.393356,120.401408 C146.640101,120.443798 146.887196,120.50217 147.136038,120.513288 C147.642111,120.536568 147.940931,120.82009 148.170202,121.233907 C148.398773,121.64703 148.65845,122.04278 148.889817,122.454512" id="path32" fill="#FFFFFF"></path>
                        <path d="M159.1972,95.0636915 C158.985405,94.7808642 158.768716,94.5011639 158.562862,94.2138197 C158.362949,93.9348143 158.143465,93.6613682 157.75692,93.8090361 C157.406724,93.9424583 157.597899,94.2815731 157.553862,94.5313924 C157.710437,94.8513973 157.478371,95.191207 157.603841,95.5053052 C157.602443,95.5192034 157.613976,95.5397031 157.605239,95.5532538 C157.563998,95.3631966 157.512272,95.1877325 157.365833,95.0581323 C157.229529,94.786076 157.071206,94.5220111 156.960765,94.2395312 C156.776929,93.768384 156.473565,93.5929198 155.916117,93.8003497 C156.440014,94.9295744 156.953775,96.054977 157.48606,97.1723883 C157.606986,97.4260295 158.400695,97.546596 158.608297,97.3707844 C158.735514,97.2630737 158.680643,97.1192279 158.683439,96.9851107 C158.692176,96.494506 158.454168,96.0223164 158.58523,95.3868235 C158.941018,95.8892416 159.276536,96.2874236 159.525378,96.7332068 C159.876623,97.3634878 160.362425,97.5778668 161.099515,97.3725216 C161.161726,97.016729 160.94329,96.7120121 160.835645,96.3906174 C160.596938,95.6804219 160.294273,94.988989 160.097855,94.2680224 C159.94862,93.7204353 159.648401,93.6307923 159.153862,93.771511 C159.066488,94.1724727 159.400608,94.4841387 159.401656,94.8646005 C159.453032,94.9862093 159.406899,95.1171994 159.437305,95.2395031 C159.445343,95.3180277 159.435557,95.3159429 159.408996,95.2422827 C159.360066,95.1554193 159.279332,95.1088605 159.1972,95.0636915" id="path34" fill="#204231"></path>
                        <path d="M154.84246,96.4413456 C154.701263,96.607776 154.582783,96.5841491 154.475837,96.5997845 C154.292001,96.6268859 154.030228,96.59631 154.091739,96.8895609 C154.138921,97.114711 154.16793,97.4215126 154.506942,97.426377 C155.257663,97.4368006 156.008035,97.4315888 156.758755,97.4260295 C156.977191,97.4246397 157.053382,97.2842684 156.99222,97.0942112 C156.926514,96.888866 156.862556,96.5831067 156.600083,96.6289706 C155.704321,96.7860197 155.633723,96.0984088 155.410743,95.5536013 C155.243334,95.1446482 155.077672,94.7350003 154.907816,94.3267421 C154.637305,93.6770036 154.635907,93.6773511 153.815986,93.8111208 C154.159542,94.6915686 154.498904,95.5612453 154.84246,96.4413456" id="path36" fill="#214432"></path>
                        <path d="M157.365833,95.0581323 C157.441311,95.3065617 157.473588,95.5695842 157.833601,95.7196842 L157.816221,95.7283705 C157.891203,95.31907 157.916031,94.9135915 157.632987,94.5313924 C157.567936,94.7131107 157.64838,94.9306167 157.365833,95.0581323" id="path38" fill="#9FB681"></path>
                        <path d="M95.7784161,148.491365 C95.8350347,148.583953 95.8916533,148.676542 95.948272,148.769131 C96.1729989,148.652177 96.3980754,148.535764 96.6228023,148.419351 C96.3355153,148.295899 96.0464808,148.123175 95.7784161,148.491365" id="path40" fill="#E1DBB1"></path>
                        <path d="M159.6972,95.3948149 C159.626562,95.2137915 159.663157,94.9990651 159.446136,94.8646005 C159.363157,94.9309642 159.280179,94.9973279 159.1972,95.0636915 C159.276775,95.1720971 159.356349,95.2805027 159.435923,95.3889082 C159.520604,95.4618735 159.607838,95.4639582 159.6972,95.3948149" id="path42" fill="#9FAE7B"></path>
                        <path d="M90.3335932,69.6637805 C89.4242005,67.6381252 88.5399716,65.6652829 87.6529467,63.6934829 C86.9476606,62.126119 86.232239,60.5632721 85.5363893,58.9917388 C85.3169048,58.4962698 85.005852,58.1258841 84.5441656,57.8128283 C81.3385738,55.6412424 78.1515053,53.44325 74.9637378,51.2459525 C74.560767,50.9679895 74.1508064,50.8467282 73.6478793,50.8474231 C63.332458,50.8616687 53.0173862,50.8574993 42.7019649,50.8602789 C42.4566175,50.8606263 42.2039308,50.8081608 41.9225852,50.9328967 C42.0837036,51.6646343 42.4723449,52.309161 42.7729129,52.9825264 C44.209348,56.1985582 45.6712964,59.403819 47.1136729,62.6170712 C47.2803833,62.9888467 47.4184348,63.2772333 47.9300993,63.2727164 C50.7533408,63.2480472 53.5769318,63.2595132 56.4001733,63.2553437 C56.4805578,63.2549963 56.5605927,63.2212932 56.7175171,63.1855055 C56.1488846,61.9089605 55.5896884,60.6532626 55.0325893,59.4024292 C55.2345989,59.1717199 55.4722572,59.2648375 55.6756648,59.26449 C62.3010906,59.2585833 68.9261669,59.2669222 75.5515927,59.2457275 C76.1174293,59.2439903 76.3942314,59.4090308 76.6060269,59.9333385 C77.0628203,61.0636055 77.602095,62.160517 78.1001291,63.2748011 C78.3821737,63.906472 78.3765817,63.9123787 77.6639561,64.0930547 C75.0972458,64.7434881 72.5298365,65.3914893 69.9624273,66.039838 C63.7473116,67.6092866 57.5325455,69.1780402 51.3181289,70.7495735 C51.1856693,70.7832765 51.0605492,70.8447758 50.8774124,70.9142666 C51.6480546,72.6251288 52.4040179,74.3102795 53.1655732,75.9929979 C53.8285701,77.4589053 54.5135854,78.9161263 55.151768,80.3928047 C55.3044984,80.7458177 55.50511,81.0018911 55.8151144,81.2107108 C56.8999549,81.9431433 57.9792034,82.6842621 59.057054,83.4271182 C59.3247692,83.6116162 59.5799024,83.8145291 59.9678447,84.1029157 C55.6117068,85.5146203 51.3915234,86.8818508 47.17134,88.2490813 C47.174835,88.2765301 47.17833,88.3039789 47.1818249,88.3314278 C64.341108,88.3314278 81.5000416,88.3314278 98.7026625,88.3314278 C98.4835275,87.5687668 98.1064196,86.8658679 97.7803383,86.143859 C96.3082545,82.8833531 94.8253362,79.6270166 93.3619898,76.3623413 C93.2242878,76.0548447 93.113497,75.8630502 92.7182152,75.8654824 C89.8390541,75.8842449 86.959893,75.8779907 84.0803823,75.8818127 C84.0311032,75.8818127 83.9814745,75.9148208 83.8514614,75.9610322 C84.422191,77.2459161 84.9908236,78.5266306 85.5549127,79.7958791 C85.3284382,80.0161648 85.0956728,79.9404199 84.8880713,79.9404199 C78.2626455,79.9452843 71.6375692,79.9372928 65.0121434,79.9574451 C64.4875475,79.9591824 64.201309,79.8170738 64.0111823,79.3292488 C63.7197013,78.5811809 63.3897756,77.8456213 63.0308416,77.126392 C62.83023,76.7247355 62.9350792,76.6211943 63.3429429,76.5211276 C65.9407585,75.8832025 68.5308851,75.2160914 71.1245067,74.5614885 C77.3654852,72.9857858 83.6064636,71.4121678 89.8470926,69.8357702 C89.9806006,69.8020671 90.1078178,69.7443898 90.3335932,69.6637805" id="path44" fill="#FFFFFF"></path>
                        <path d="M127.60856,79.9508435 C122.442636,79.9508435 117.426646,79.9508435 112.320137,79.9508435 C112.563038,80.792029 112.939796,81.4653944 113.250849,82.1620391 C114.09873,84.0612213 114.981911,85.9451155 115.807424,87.8540264 C115.999648,88.2987671 116.246393,88.3908424 116.689206,88.3904949 C129.631102,88.3800713 142.572998,88.382156 155.514893,88.3793764 C155.673216,88.3793764 155.844819,88.4294097 156.029354,88.2831317 C155.819306,87.5249877 155.427869,86.8227836 155.107379,86.0969528 C154.289555,84.2453718 153.407073,82.4215871 152.610918,80.5613197 C152.394579,80.0554271 152.125466,79.9327759 151.616947,79.9345132 C147.032936,79.951191 142.448577,79.9286065 137.864566,79.9609197 C137.177104,79.965784 136.852072,79.7576592 136.572124,79.1277256 C134.173173,73.7310741 131.734728,68.3514478 129.305021,62.9686944 C127.55963,59.1015342 125.804453,55.238891 124.068149,51.3682563 C123.895847,50.9839724 123.674964,50.8474231 123.248927,50.8484655 C118.636956,50.863406 114.024637,50.8623636 109.412667,50.8498553 C109.015288,50.8488129 108.740583,50.9770233 108.461334,51.2487322 C107.744864,51.9471142 106.983658,52.5996323 106.261946,53.2938449 C106.011356,53.5349778 105.824724,53.5290711 105.538136,53.3553442 C104.323982,52.6197846 103.089207,51.9172332 101.872606,51.1854956 C101.504235,50.9638201 101.138311,50.848118 100.697944,50.8495078 C96.81223,50.8641009 92.9268653,50.8651432 89.0415006,50.848118 C88.5969397,50.8460333 88.3362145,50.9450576 88.1328069,51.3699935 C87.7864548,52.0940871 87.3611162,52.7813506 86.9588445,53.4783428 C86.809609,53.7361535 86.7858432,53.9619985 86.9179533,54.2507325 C87.9674945,56.5456645 89.0037549,58.8465032 90.0284818,61.1525537 C90.1759698,61.4840245 90.433899,61.671997 90.7093031,61.8599695 C91.6763629,62.5187418 92.6364328,63.1875902 93.6160745,63.8269051 C93.9603297,64.0513602 94.0106573,64.2198753 93.7097399,64.5249397 C93.340321,64.9001897 93.0240256,65.3265155 92.6678876,65.7160111 C92.3966775,66.0123892 92.3484468,66.2827082 92.5301855,66.6722038 C93.3511554,68.4310147 94.209871,70.1780121 94.9060701,71.9858139 C95.4233266,73.3283752 96.2558298,74.2859577 97.4787219,75.0003226 C98.2947988,75.4766817 99.0497136,76.0562345 99.8290932,76.593398 C100.06081,76.7532267 100.287634,76.8796999 100.592046,76.879005 C105.063868,76.871361 109.53534,76.8737932 113.98759,76.8737932 C114.178066,76.6441262 113.997725,76.4898568 113.925379,76.3279433 C113.225336,74.7581473 112.507468,73.1963428 111.824899,71.6189028 C111.634073,71.1776365 111.386629,71.0212823 110.891041,71.0251043 C107.732282,71.0504684 104.573523,71.031011 101.415113,71.0452566 C100.955174,71.0473414 100.648665,70.9861895 100.479159,70.4757799 C100.270509,69.8475836 99.9489709,69.2555224 99.6613343,68.6551223 C99.5487961,68.4209385 99.5725619,68.2579827 99.7651351,68.0693153 C101.257839,66.6061876 102.735865,65.1281194 104.228219,63.6646442 C104.90275,63.0041347 105.599997,62.366557 106.3287,61.6789461 C106.827083,62.4787846 107.112972,63.343597 107.502313,64.1569862 C107.993706,65.1819747 108.441413,66.2278105 108.905196,67.2656548 C109.021579,67.5258977 109.141456,67.7124803 109.50039,67.7103956 C112.545213,67.6940653 115.589687,67.7010144 118.694274,67.7010144 C118.41153,66.8351596 118.014152,66.0780579 117.659062,65.3032361 C117.266576,64.4467626 116.889119,63.58334 116.5197,62.7167904 C116.383396,62.3974804 116.191871,62.2466855 115.823151,62.2581515 C115.041325,62.2828207 114.257402,62.2491177 113.475576,62.2717022 C113.064217,62.283863 112.835646,62.1733728 112.661946,61.7567757 C112.097507,60.4006638 111.4761,59.0674838 110.863431,57.7315241 C110.751592,57.4872641 110.660373,57.2961646 110.915157,57.0748365 C112.348097,55.8312996 113.621317,54.4244594 114.986105,53.1114317 C115.085711,53.0158819 115.174833,52.9036544 115.386629,52.8939256 C119.436257,61.8589271 123.494274,70.8430386 127.60856,79.9508435" id="path46" fill="#FFFFFF"></path>
                        <path d="M85.1009153,159.743248 C87.0423744,159.911068 88.983484,160.079583 90.9252926,160.246361 C91.0643927,160.258175 91.2041917,160.263039 91.3439907,160.262344 C94.2490147,160.25192 97.1547376,160.400631 100.059063,160.259912 C102.952204,160.120235 105.832763,159.858255 108.712273,159.521573 C111.431365,159.204 114.115157,158.710616 116.78392,158.153647 C120.358931,157.407664 123.87977,156.437921 127.34364,155.26179 C132.398074,153.545716 137.29873,151.4874 142.008559,148.983996 C142.381473,148.785252 142.565309,148.792549 142.791084,149.183781 C143.310787,150.084729 143.326165,150.054848 144.234509,149.622268 C146.078109,148.744252 147.818258,147.69529 149.495496,146.537226 C150.338485,145.955241 150.290603,146.106384 149.795016,145.282223 C147.388026,141.281641 144.973347,137.285923 142.560765,133.288815 C142.231539,132.743313 141.898118,132.200242 141.52136,131.581775 C139.276886,133.023708 137.005152,134.35793 134.554125,135.453452 C134.747397,136.08408 135.128699,136.563219 135.441499,137.068069 C135.713409,137.507598 135.764435,137.908213 135.609957,138.403334 C135.272343,139.48878 134.97527,140.587776 134.69707,141.689899 C134.566008,142.20969 134.308079,142.544983 133.815287,142.801751 C127.458625,146.117155 120.945388,149.088927 114.230141,151.612136 C110.786192,152.906401 107.29576,154.070371 103.771076,155.134274 C99.3359521,156.472319 94.8379181,157.557417 90.3136718,158.536889 C88.6262975,158.90241 86.9141088,159.155009 85.213104,159.459031 C85.1390105,159.53964 84.9296615,159.567089 85.1009153,159.743248" id="path48" fill="#B0B2AC"></path>
                        <path d="M186.38986,99.2380008 C184.447352,101.667745 182.47339,104.072472 180.409257,106.401107 C177.32529,109.880161 174.067623,113.192438 170.700564,116.402563 C166.809957,120.112327 162.70336,123.568449 158.473041,126.8842 C157.245955,127.845952 155.987764,128.768442 154.733766,129.695448 C154.434596,129.916429 154.367493,130.089808 154.449974,130.505711 C154.853994,132.543179 155.167143,134.598716 155.513146,136.647303 C155.688244,137.684452 155.864391,138.720907 156.038091,139.74659 C156.299166,139.8272 156.414151,139.643049 156.561289,139.528737 C158.583482,137.956509 160.52564,136.29429 162.410131,134.560148 C163.374395,133.673099 164.29637,132.746787 165.230577,131.831594 C168.395627,128.729527 171.28038,125.38598 173.952289,121.856545 C176.911136,117.94769 179.555085,113.842177 181.898816,109.539657 C183.508252,106.58491 184.946085,103.551639 186.256352,100.456174 C186.374832,100.175778 186.46605,99.8839173 186.569851,99.5976154 C186.634508,99.4158971 186.687632,99.2400855 186.38986,99.2380008" id="path50" fill="#B0B2AC"></path>
                        <path d="M45.2742671,103.912296 C43.9933584,102.84596 42.7138478,101.778583 41.4315411,100.714332 C41.2221921,100.540605 41.0027076,100.379386 40.7066831,100.149719 C40.3096539,101.548568 39.9353419,102.867155 39.5599815,104.189912 C39.2513752,104.087065 39.2178234,103.80945 39.1203136,103.595071 C37.6436863,100.33665 36.1709034,97.076491 34.7130441,93.809731 C34.582367,93.51648 34.4434067,93.3750663 34.1061765,93.3799307 C32.8791254,93.396261 31.6517948,93.3865323 30.3198594,93.3865323 C30.7318822,94.3111067 31.1075921,95.165148 31.491655,96.0153673 C33.75245,101.020786 36.0279589,106.020298 38.259501,111.038572 C38.5076443,111.596583 38.7921353,111.776217 39.3705538,111.742166 C40.1506325,111.695955 40.9359535,111.71576 41.7181291,111.736954 C42.0899946,111.74703 42.2378321,111.641404 42.3182165,111.249129 C42.613542,109.812755 42.966185,108.3875 43.2985572,106.958423 C43.3485354,106.743697 43.407251,106.531055 43.4715585,106.279498 C44.0594135,106.512292 44.4120566,106.991431 44.8391426,107.362859 C46.4108333,108.731132 47.9633016,110.121989 49.5154203,111.512499 C49.6957611,111.673718 49.8781988,111.735912 50.1144592,111.733827 C51.1475741,111.725836 52.180689,111.7307 53.2543455,111.7307 C53.2627335,111.291171 53.0219296,110.974293 52.8709467,110.638306 C50.5502827,105.478617 48.2215803,100.323099 45.8914798,95.1682751 C45.6283082,94.5866375 45.4846647,93.8284935 45.0306673,93.4897261 C44.5707285,93.1464418 43.7892519,93.4011254 43.1489723,93.3893119 C42.4286577,93.3764561 41.7076442,93.3865323 40.8912179,93.3865323 C42.4520741,96.8791373 43.9758836,100.288701 45.4996931,103.697917 C45.5391863,103.888669 45.5192649,104.017574 45.2742671,103.912296" id="path52" fill="#FFFFFF"></path>
                        <path d="M131.437306,93.3865323 C131.742417,95.2395031 132.033548,97.0073478 132.343902,98.8929792 C131.360766,98.5232884 130.462906,98.1897328 129.568542,97.8464485 C129.342767,97.7595851 129.267275,97.5472909 129.174658,97.3374288 C128.67278,96.1953484 128.145737,95.0636915 127.647004,93.9198738 C127.486235,93.5515728 127.285274,93.3632529 126.842461,93.3754138 C125.67444,93.4073795 124.505021,93.3861848 123.275838,93.3861848 C123.495322,94.2593361 123.907031,94.9827348 124.243247,95.7311502 C126.276275,100.259862 128.328175,104.780583 130.373085,109.304431 C130.670158,109.961813 130.968979,110.618501 131.254518,111.280748 C131.389424,111.592414 131.572561,111.742166 131.948271,111.739734 C134.575444,111.722361 137.203317,111.728963 139.83084,111.732785 C140.096807,111.73348 140.296021,111.699777 140.444208,111.422161 C140.941194,110.492028 141.467187,109.576834 141.991434,108.661989 C142.136825,108.408347 142.065527,108.198485 141.955086,107.9577 C141.044295,105.965053 140.135951,103.971363 139.247878,101.96864 C139.089555,101.611457 138.885798,101.374146 138.5017,101.265393 C138.181211,101.174708 137.885886,100.980481 137.5626,100.915507 C136.959717,100.794246 136.818869,100.396412 136.73499,99.8644599 C136.425335,97.9013462 136.06011,95.9465715 135.761989,93.9817206 C135.693837,93.5345476 135.568367,93.36638 135.102487,93.377151 C133.905807,93.4049473 132.708428,93.3865323 131.437306,93.3865323" id="path54" fill="#FFFFFF"></path>
                        <path d="M110.936826,111.730353 C110.316467,110.348529 109.753776,109.089704 109.186891,107.832617 C107.626734,104.373367 106.061684,100.916202 104.506769,97.4545207 C104.308604,97.012907 104.048228,96.6567669 103.632326,96.3805412 C102.311924,95.5032205 101.010745,94.5967137 99.705371,93.696461 C99.4498883,93.5206494 99.203143,93.3792358 98.8676253,93.3806256 C96.0751396,93.3931339 93.2826538,93.3900068 90.4901681,93.3945237 C90.440889,93.3945237 90.3916098,93.4254471 90.2689361,93.4664467 C90.7575338,94.5536294 91.2401899,95.634558 91.7284381,96.7134019 C93.4081235,100.42386 95.0968958,104.130497 96.7591064,107.848947 C96.9163803,108.20057 97.1264283,108.459076 97.4266468,108.664421 C98.7806004,109.59247 100.138399,110.515307 101.4941,111.441271 C101.724419,111.59832 101.94635,111.737302 102.253208,111.736259 C105.100216,111.726531 107.947922,111.730353 110.936826,111.730353" id="path56" fill="#FFFFFF"></path>
                        <path d="M78.1875035,111.661557 C78.0246376,111.054903 77.7195262,110.52851 77.4762759,109.979881 C76.9027504,108.686658 76.2960226,107.408028 75.7399719,106.107856 C75.5823485,105.739208 75.3838339,105.613082 74.9923966,105.620379 C73.8254241,105.641921 72.6581022,105.628023 71.442899,105.628023 C71.4886832,106.344125 71.9776304,106.838204 72.0964595,107.56056 C70.9190022,107.56056 69.7883775,107.560213 68.6581023,107.560908 C68.5043233,107.560908 68.3917851,107.497671 68.3260796,107.357647 C68.3141966,107.332283 68.3051097,107.306224 68.2942753,107.280513 C68.0646554,106.749256 67.5746597,106.20966 67.674616,105.692649 C67.760243,105.248256 68.4728685,105.073486 68.9181285,104.79865 C70.3636505,103.906737 71.8311909,103.051306 73.2721694,102.153138 C73.8988186,101.7626 73.8187837,101.85676 73.5482725,101.268173 C72.9929208,100.058687 72.4581895,98.8398188 71.9175168,97.6237307 C71.6896443,97.1112364 71.4037553,96.6654533 70.9092162,96.340584 C69.6062892,95.4841105 68.3250311,94.5942815 67.0430739,93.7065372 C66.7613788,93.5112682 66.4915667,93.3768036 66.1273902,93.3788883 C63.4998674,93.3934814 60.872694,93.3865323 58.2455206,93.3882696 C58.1399723,93.3882696 58.0344241,93.4087693 57.8428994,93.4289217 C58.2189588,94.2787935 58.5702039,95.0838438 58.9301864,95.8857671 C59.4184345,96.9732973 59.9189151,98.0559632 60.4008722,99.146273 C60.5277399,99.4325749 60.6913047,99.5687767 61.0282204,99.5632175 C62.2290941,99.5437601 63.4303173,99.5555735 64.6843147,99.5555735 C64.6455204,98.8787336 64.1548258,98.3926458 64.0485786,97.7849492 C64.1079932,97.6112224 64.2547821,97.6206036 64.3917852,97.6202562 C65.3420691,97.6181714 66.2927026,97.6303323 67.242637,97.6115698 C67.5680193,97.6053156 67.7693299,97.7158059 67.8895571,98.0104467 C68.0251621,98.3440023 68.1495833,98.6858968 68.3236331,98.9993001 C68.5403216,99.3901855 68.3963286,99.5701666 68.0443845,99.7807235 C66.2769752,100.840457 64.5343802,101.940843 62.7655729,102.998493 C62.4045419,103.214609 62.321012,103.384861 62.5051972,103.778874 C63.1626022,105.185367 63.7854069,106.607842 64.4092601,108.029275 C64.5172548,108.274578 64.6934016,108.431279 64.9027507,108.575473 C66.3248564,109.553902 67.7455641,110.535459 69.1666213,111.515974 C69.3773683,111.661557 69.5989498,111.736607 69.8670144,111.735912 C72.5501074,111.726531 75.2335499,111.72931 77.9166429,111.725836 C77.9917849,111.725488 78.0665773,111.691438 78.1875035,111.661557" id="path58" fill="#FFFFFF"></path>
                        <path d="M94.4356464,111.686921 C94.2189579,110.930862 93.8373065,110.285987 93.5437285,109.608105 C93.036957,108.438576 92.4955853,107.283987 91.958058,106.128009 C91.8601987,105.917452 91.8245499,105.629065 91.4834403,105.62976 C90.2095216,105.632887 88.9356028,105.630802 87.5792027,105.630802 C87.8560048,106.301735 88.0950611,106.879898 88.3760572,107.561255 C87.1587571,107.561255 86.0281324,107.56056 84.8978572,107.56195 C84.7119245,107.56195 84.6165116,107.478561 84.5207493,107.309699 C83.6260355,105.738165 83.6183465,105.735733 85.1418065,104.800735 C86.5887265,103.913338 88.044384,103.040187 89.4930515,102.15557 C90.0309283,101.827574 90.0221908,101.822709 89.7677566,101.257402 C89.1875906,99.968696 88.6119681,98.6775579 88.0363455,97.3867672 C87.8640432,97.0007461 87.6330253,96.6856056 87.2629074,96.438566 C85.8967213,95.5278897 84.5515051,94.5859426 83.2017454,93.6516395 C82.9679315,93.4897261 82.7344671,93.3806256 82.4335497,93.3816679 C79.6969836,93.3903543 76.960068,93.3868798 74.2388798,93.3868798 C74.0365206,93.6474701 74.2444717,93.8389171 74.3210117,94.0126439 C75.071383,95.7106504 75.8476172,97.3975383 76.6042794,99.0927651 C76.7419815,99.4009566 76.9024009,99.5722513 77.2819553,99.5646073 C78.481431,99.5402855 79.6816057,99.555921 80.9223221,99.555921 C80.8520731,98.8551068 80.3473986,98.3394854 80.2537332,97.6199087 C81.3913479,97.6199087 82.5003037,97.6174765 83.6089101,97.6240781 C83.7127109,97.6247731 83.8626453,97.6508321 83.912274,97.7206703 C84.2687615,98.2203088 84.4784601,98.797082 84.6710333,99.3693383 C84.7538642,99.6153355 84.4120556,99.6959448 84.2380058,99.8036555 C82.9364767,100.608706 81.6255113,101.398121 80.3180408,102.193095 C79.8661404,102.467931 79.4320644,102.777512 78.9602427,103.012391 C78.5583204,103.212177 78.5614659,103.457826 78.7190893,103.800763 C79.3663589,105.211426 80.0136284,106.622783 80.6437726,108.041089 C80.7667957,108.317662 80.9806882,108.482703 81.2057647,108.638362 C82.5799892,109.586563 83.9636502,110.521561 85.3378747,111.47011 C85.6010464,111.651481 85.867014,111.737649 86.1927458,111.736259 C88.8185212,111.726183 91.4442965,111.7307 94.0700719,111.728615 C94.1745717,111.728268 94.278722,111.705336 94.4356464,111.686921" id="path60" fill="#FFFFFF"></path>
                        <path d="M119.273741,111.7307 C117.139359,106.998728 115.05915,102.385584 112.90939,97.6185189 C113.763912,97.6185189 114.487721,97.6970434 115.186716,97.6007987 C116.33866,97.4413175 116.855917,97.9072529 117.308866,98.9652496 C119.076624,103.093348 120.97195,107.167243 122.816948,111.263027 C122.950106,111.559058 123.095497,111.751895 123.487633,111.741819 C124.687459,111.71159 125.889031,111.731048 127.073828,111.731048 C127.219918,111.459339 127.050062,111.274841 126.964086,111.083741 C125.178153,107.114082 123.388027,103.146855 121.598249,99.1789336 C121.313409,98.5469153 121.021229,97.918024 120.739883,97.2842684 C120.589949,96.945501 120.371513,96.6852581 120.054868,96.4729639 C118.691478,95.5570758 117.336825,94.6272896 115.993007,93.6829103 C115.703973,93.4796499 115.424025,93.377151 115.069984,93.3806256 C113.616773,93.3945237 112.163213,93.4007779 110.710351,93.3774985 C110.288508,93.3705494 110.05714,93.512658 109.868411,93.8875606 C109.494099,94.6300692 109.093226,95.3628492 108.649713,96.0657481 C108.345301,96.5476665 108.385144,96.960789 108.611618,97.4559105 C110.375882,101.314384 112.119525,105.181545 113.868062,109.046967 C114.199036,109.779052 114.534204,110.510095 114.843859,111.251561 C114.990648,111.603532 115.192308,111.751547 115.597026,111.741124 C116.768892,111.71159 117.942155,111.7307 119.273741,111.7307" id="path62" fill="#FFFFFF"></path>
                        <path d="M75.4089977,24.1286125 C74.3800768,21.8499413 73.3791157,19.695068 72.4707715,17.4769233 C72.0003477,17.6401918 71.8563547,18.0297222 71.6211428,18.3201935 C71.3820865,18.6159114 71.1849698,18.9453323 70.9064202,19.3514015 C70.5153324,18.331312 70.5453892,17.3834235 70.6851883,16.4359171 C70.7701162,15.8623405 70.9204001,15.298423 71.0441223,14.7306836 C71.230754,13.8731678 70.9951926,13.1139466 70.3881153,12.5145889 C68.6413264,10.7908709 66.5677572,10.2982162 64.2533842,11.1358925 C62.3314969,11.8314949 60.8055904,13.0552964 59.8636944,14.8977741 C59.197552,16.2007257 59.415289,17.4599675 60.4602868,18.4702935 C62.1256428,20.0810543 63.5746598,21.8750622 64.9880281,23.6991944 C65.2480543,24.0351127 65.5210119,24.1841356 65.9662718,24.1810085 C68.9279144,24.1584935 71.889557,24.1691951 74.851549,24.1671798 C74.9892511,24.1671798 75.1273026,24.14873 75.4089977,24.1286125" id="path64" fill="#CBB676"></path>
                        <path d="M61.7079932,111.7307 C60.9006538,109.933322 60.1548259,108.265544 59.4034061,106.600546 C57.7160318,102.859859 56.0265604,99.1198665 54.3363901,95.3805693 C54.0847518,94.8246433 53.8159882,94.2763613 53.5751843,93.7159184 C53.4913049,93.520302 53.4109205,93.3837527 53.1683691,93.384795 C51.8941009,93.3903543 50.6201822,93.3875747 49.2337253,93.3875747 C49.7544767,94.5501549 50.224551,95.6060668 50.7002172,96.6595466 C52.8691992,101.461357 55.0490157,106.258999 57.1973773,111.070191 C57.4242013,111.578168 57.6772375,111.772742 58.2455206,111.746336 C59.3600684,111.69387 60.4784607,111.7307 61.7079932,111.7307" id="path66" fill="#FFFFFF"></path>
                        <path d="M153.112447,111.730005 C152.792657,110.989581 152.53997,110.38258 152.269459,109.783222 C149.923981,104.583577 147.575357,99.3853212 145.226733,94.1874132 C145.146698,94.0105592 145.025073,93.8482983 144.970901,93.6651902 C144.900652,93.426142 144.745475,93.384795 144.532631,93.3854899 C143.282478,93.388617 142.031975,93.3868798 140.716816,93.3868798 C140.997812,94.3604451 141.460547,95.1797411 141.840451,96.0282231 C143.878371,100.577088 145.941456,105.114486 147.996152,109.655706 C148.258974,110.236649 148.54032,110.8096 148.78322,111.398534 C148.885274,111.646269 149.028917,111.734175 149.2844,111.732785 C150.511136,111.726531 151.738223,111.730005 153.112447,111.730005" id="path68" fill="#FFFFFF"></path>
                        <path d="M130.441587,129.53145 C130.980862,129.192335 131.314981,128.719103 131.66413,128.254905 C132.286585,127.426923 132.784968,126.538831 133.133068,125.561096 C133.257489,125.211558 133.231626,124.933247 133.040102,124.621234 C131.192657,121.615064 129.351154,118.60542 127.519787,115.589869 C127.327913,115.274381 127.122408,115.097874 126.727476,115.108298 C125.805851,115.131925 124.883527,115.107256 123.961552,115.119416 C123.405502,115.126713 123.380687,115.192034 123.644558,115.694105 C124.587153,117.489051 125.565397,119.266972 126.459411,121.085892 C127.768979,123.75121 129.073653,126.420349 130.233286,129.155853 C130.285012,129.277114 130.361203,129.387604 130.441587,129.53145" id="path70" fill="#CBB676"></path>
                        <path d="M45.3252938,34.6678921 C44.0754904,32.743728 42.8113576,30.8289104 41.5863686,28.8897016 C41.233376,28.3310655 40.867452,27.9325708 40.1401475,28.0680083 C39.931148,28.1065756 39.7060715,27.9443842 39.4484918,28.1169992 C39.9510693,30.1814999 40.4581903,32.2655622 40.9653113,34.3493465 C40.9541274,34.4458344 40.9548264,34.5418011 40.9932711,34.6300196 C40.9915237,34.6266146 41.0268229,34.6925613 41.0268229,34.6925613 C41.0268229,34.6925613 40.9670588,34.6473923 40.9663598,34.6431881 C40.9072947,34.5255056 40.8398417,34.4194974 40.7087801,34.3749886 C39.6473559,32.6223624 38.5527295,30.8886377 37.5412835,29.1079373 C37.1351673,28.393225 36.7213621,27.8849349 35.8179109,28.0575846 C35.7151586,28.0771115 35.6005234,28.0350349 35.5037125,28.0228393 C35.3125373,28.2270726 35.511052,28.3397518 35.585495,28.4595886 C37.2532975,31.144329 38.9350798,33.8204177 40.5896014,36.5128715 C40.8241143,36.8943757 41.0733061,37.0597637 41.52276,37.0236285 C42.0183476,36.9840188 42.5191776,37.0145947 43.0871112,37.0145947 C42.5160321,34.9382111 41.9543895,32.8962602 41.3927469,30.8538924 C41.4633454,30.7396148 41.526954,30.79281 41.5898635,30.8618838 C42.7425066,32.6898379 43.915071,34.5057007 45.0352108,36.3530428 C45.3494091,36.8710963 45.6971592,37.1000683 46.30179,37.0243234 C46.7100032,36.9732477 47.1300993,37.0145947 47.611008,37.0145947 C47.5397105,36.2654844 47.2377446,35.5886445 47.0360845,34.8930421 C46.4587144,32.9020974 45.8453462,30.9216111 45.2470063,28.9366426 C44.9985135,28.1125518 44.999562,28.1079307 44.13141,28.0771115 C43.9409338,28.0704752 43.7501081,27.9707212 43.5086053,28.0927122 C43.8595009,29.1889635 44.2250753,30.28928 44.5623405,31.3984219 C44.8758399,32.4285527 45.2805581,33.4316864 45.5049355,34.488328 C45.5454772,34.6431881 45.4864121,34.8141701 45.582524,34.9601007 C45.6122313,35.0021426 45.649278,35.0375829 45.6912177,35.0674639 C45.645783,35.0414049 45.6094353,35.0056171 45.582524,34.9594058 C45.5189154,34.8430088 45.4273471,34.7505861 45.3252938,34.6678921" id="path72" fill="#FFFFFF"></path>
                        <path d="M77.7806883,41.6819408 C78.4817805,42.7580051 79.0825668,43.6874438 79.6913916,44.6120182 C80.1349041,45.2860785 80.6713829,45.91358 81.020531,46.6321143 C81.6492771,47.9253371 82.8934885,48.4955087 83.9433793,49.2991692 C84.1338555,49.4454472 84.2911294,49.402363 84.4155505,49.1782553 C84.7660966,48.546237 85.149845,47.9326337 85.4839647,47.2929713 C85.7198755,46.8419764 85.9785037,46.4180828 86.3989493,46.1230946 C86.6652665,45.9361644 86.660723,45.7398531 86.5205745,45.4844746 C85.8788969,44.3152927 85.2414133,43.1440262 84.6095217,41.9696325 C84.4854501,41.7392707 84.2998668,41.6795086 84.0573155,41.6802035 C82.0207931,41.6836781 79.9839211,41.6819408 77.7806883,41.6819408" id="path74" fill="#CBB676"></path>
                        <path d="M70.9354285,31.0273413 C71.6414137,32.713847 72.3463503,34.4007697 73.0533839,36.0868932 C73.5293996,37.2227195 73.2700724,36.9812391 74.4038426,37.0145947 C74.5142839,37.0177218 74.6250746,37.0149421 74.8326762,37.0149421 C74.4328509,36.084461 74.059937,35.2040132 73.6765381,34.3288467 C72.8761887,32.5011706 72.0464814,30.6857248 71.2810817,28.843803 C71.0448213,28.2760983 70.7606798,28.0287807 70.1204002,28.0586618 C69.2602866,28.0989664 69.3099153,28.0519906 69.2456077,28.9105836 C69.1127986,30.6808604 69.1690677,32.4532567 69.1386614,34.2506697 C68.8541704,34.152653 68.841239,33.9181217 68.765398,33.7270221 C68.1202255,32.1047258 67.4470931,30.4928532 66.8463068,28.8546783 C66.6334627,28.2747432 66.3706405,27.9602629 65.720575,28.0680083 C65.5360403,28.0985494 65.3375257,28.0464314 65.1540394,28.0326027 C65.0201819,28.212549 65.1176917,28.3609118 65.1781548,28.5054525 C66.2710337,31.1120505 67.3628642,33.7190307 68.4634321,36.3221194 C68.7860184,37.0858227 68.6109201,37.0034762 69.4706842,37.0170269 C69.7478357,37.0211963 70.0298803,36.971163 70.3017894,37.0660178 C70.8508501,37.151144 70.6995177,36.7338521 70.7012652,36.4763888 C70.7141966,34.8794914 70.6977702,33.2825245 70.7197885,31.6860093 C70.7225845,31.4699279 70.4940131,31.121814 70.9354285,31.0273413" id="path76" fill="#FFFFFF"></path>
                        <path d="M100.251286,29.1847593 C99.9021382,28.1934391 99.1769307,27.9880939 98.3017887,28.0808988 C97.6957599,28.1455252 97.462645,28.4901298 97.676188,29.0680496 C97.896721,29.6645582 98.1770181,30.239212 98.4345978,30.8222741 C98.5359521,31.0512461 98.6345104,31.2781681 98.6596742,31.5327822 C98.6855371,31.7979937 98.5803383,31.9539309 98.3189141,32.0143184 C97.8771491,32.1169562 97.4294427,32.0703974 96.9841828,32.0724126 C96.6864109,32.0744626 96.6497136,31.8285349 96.5665332,31.6298261 C96.1716009,30.6837095 95.7522038,29.7471827 95.3943183,28.7876197 C95.2062886,28.2834296 94.9787656,27.9633899 94.3758823,28.0666532 C94.1644363,28.1027536 93.9365638,28.0433043 93.7065944,28.0266265 C93.5702904,28.316125 93.7817364,28.516849 93.8663148,28.721951 C94.9018762,31.2316093 95.9538639,33.7350483 97.0013082,36.2397728 C97.3252925,37.0135523 97.324943,37.0138998 98.2165113,37.0145947 C98.8588879,37.0149421 99.5012644,37.0145947 100.143991,37.0145947 C100.3114,37.0145947 100.480557,37.0277979 100.646219,37.0097303 C101.596153,36.9065366 101.936214,36.5431 101.847092,35.5855174 C101.718827,34.2150904 100.907992,33.3228639 99.6791587,32.7526576 C99.8252487,32.4612829 100.296371,32.4702472 100.336564,32.0699805 C100.371863,31.7183225 100.206201,31.4220487 100.079683,31.1186869 C99.9091281,30.7100118 99.6871972,30.3213153 99.5302727,29.908436 C99.3432915,29.4155034 99.4285689,29.3097732 99.9727367,29.2371554 C100.054519,29.226419 100.134205,29.2070311 100.251286,29.1847593" id="path78" fill="#FFFFFF"></path>
                        <path d="M80.4749652,27.9697483 C81.1222348,29.5280089 81.6999543,30.9331466 82.2885082,32.3336979 C82.8574903,33.6884895 83.4533837,35.0320236 84.0034929,36.3940423 C84.1803387,36.8321815 84.3837463,37.0524671 84.9058956,37.0288403 C85.9316711,36.9812391 86.961291,37.0145947 88.0370445,37.0145947 C87.9535146,36.5959129 87.7298362,36.3047467 87.5980756,35.9770978 C87.4946243,35.7189397 87.3079926,35.6758554 87.0664897,35.6789825 C86.5915225,35.6859316 86.1155068,35.6657793 85.6412386,35.6859316 C85.3197008,35.6991348 85.1334186,35.600458 85.0163369,35.2821903 C84.788814,34.6636532 84.5169048,34.0615853 84.2313653,33.3757811 C85.0229773,33.3757811 85.7376999,33.3757811 86.4332001,33.3757811 C86.4698974,33.2704679 86.5139341,33.2110186 86.4992552,33.1755783 C86.0211425,32.011226 86.017298,31.9584131 84.7646986,32.030336 C83.9325449,32.0779719 83.3981631,31.8986858 83.2013959,31.0207049 C83.1119245,30.6224882 82.8833531,30.2549516 82.7232832,29.8712584 C82.5964156,29.5669585 82.6684121,29.3983739 83.0357341,29.405045 C83.5949302,29.4143915 84.1541263,29.406817 84.7133225,29.4046281 C84.8216667,29.4043501 84.9338555,29.4095272 85.0470927,29.2914276 C85.0149389,28.9105836 84.6986436,28.6357477 84.5567476,28.2840897 C84.4830036,28.1016765 84.3152447,28.0763124 84.1394474,28.0766946 C82.9686305,28.0802386 81.7974641,28.0864928 80.4749652,27.9697483" id="path80" fill="#FFFFFF"></path>
                        <path d="M108.059412,28.4464201 C108.102051,28.7758063 108.346,28.9529382 108.462383,29.1976499 C108.656004,29.604414 108.882479,29.6863783 109.371076,29.5332902 C111.132195,28.9804913 111.822452,29.8761228 112.218433,31.4042591 C112.3114,31.7614763 112.124418,32.0029219 111.732981,32.0067439 C111.341194,32.0105311 110.950106,32.0160904 110.57195,32.1220985 C110.020093,32.2760205 109.859324,32.5425871 110.025685,33.1047325 C110.351068,34.2054659 110.88475,35.2064454 111.589338,36.1136471 C111.851111,36.4506773 112.205152,36.6827764 112.611268,36.8078597 C113.754825,37.1605253 114.901876,37.2043044 116.044383,36.8148088 C116.06081,36.6101585 115.916817,36.497931 115.851111,36.350958 C115.561727,35.7036517 115.085362,35.6272119 114.433199,35.7533376 C113.07645,36.0160126 111.979726,35.2182588 111.767931,33.8867813 C111.718302,33.5731349 111.852859,33.4223399 112.174047,33.4087545 C112.535777,33.3931538 112.901701,33.3885327 113.255742,33.3228639 C113.922234,33.1999 114.157096,32.8316686 113.992133,32.187802 C113.721273,31.1318554 113.240714,30.1627721 112.635733,29.2635966 C112.05347,28.3992012 111.226909,27.9655442 110.151854,28.0020615 C109.423501,28.0266265 108.72835,28.137916 108.059412,28.4464201" id="path82" fill="#FFFFFF"></path>
                        <path d="M143.940931,153.639181 C144.520748,154.489748 145.107205,155.163113 145.945999,155.611328 C146.865877,156.102628 147.825947,156.104018 148.774483,155.858368 C150.2581,155.474431 151.582696,154.730533 152.857663,153.900466 C152.768541,153.710409 152.646567,153.794493 152.557794,153.804221 C150.834072,153.997753 149.552465,153.215287 148.47776,151.980089 C148.056265,151.495044 148.060459,151.486357 147.476798,151.790032 C146.32066,152.391822 145.166619,152.998129 143.940931,153.639181" id="path84" fill="#CBB676"></path>
                        <path d="M54.2416762,28.034618 C54.1801647,28.2049745 54.2437732,28.3279384 54.2975958,28.4557666 C55.4159881,31.1026693 56.5529038,33.7426575 57.6328513,36.4048134 C57.8411519,36.9186975 58.0987316,37.0879074 58.6086486,37.0201539 C58.8267351,36.9909678 59.052161,37.0152896 59.3062458,37.0152896 C59.2283078,36.4204488 58.9256429,35.9235899 58.7086049,35.4024093 C57.7859313,33.1836045 56.8206189,30.9817553 55.9196142,28.7542294 C55.7081681,28.2313115 55.4589763,27.9829168 54.8889458,28.0669312 C54.6764512,28.0985494 54.4513748,28.0475085 54.2416762,28.034618" id="path86" fill="#FFFFFF"></path>
                        <path d="M70.9354285,31.0273413 C70.9169052,30.8427739 70.8372197,30.6919789 70.6453455,30.4507765 C70.6453455,32.4042657 70.6453455,34.2318029 70.644996,36.0594443 C70.644996,36.3068314 70.6411516,36.5545659 70.6397536,36.801953 C70.6383556,37.0316199 70.4688493,37.0472553 70.3017894,37.0660178 C70.5377003,37.2651088 70.7148956,37.2043044 70.7813001,36.9207822 C70.8239388,36.7376741 70.8005225,36.5382356 70.8005225,36.3460937 C70.801571,34.8360597 70.797377,33.325713 70.8050659,31.8153664 C70.8064639,31.549877 70.7211865,31.2610734 70.9354285,31.0273413" id="path88" fill="#2D493F"></path>
                        <path d="M186.38986,99.2380008 C186.537697,99.3144406 186.54294,99.4610661 186.569851,99.5976154 C186.766968,99.4086006 186.816946,99.1507899 186.896282,98.9065299 C186.95325,98.7331505 186.87706,98.6980577 186.72398,98.7421843 C186.61249,98.9072248 186.501,99.0726128 186.38986,99.2380008" id="path90" fill="#849C90"></path>
                        <path d="M85.1009153,159.911971 C85.138661,159.762512 85.1760573,159.613053 85.2134535,159.464141 C84.9523788,159.385853 84.7626016,159.654113 84.4592377,159.823828 C84.7168175,160.012705 84.9107886,159.942081 85.1009153,159.911971" id="path92" fill="#407E70"></path>
                        <path d="M41.1846847,34.687419 C41.1296765,34.5740796 41.1921859,34.4197754 41.0146593,34.3493465 C40.9129774,34.3580329 40.8108787,34.3667192 40.7087801,34.3749886 C40.8017107,34.5320029 40.8946413,34.6887741 40.9875719,34.845441 C41.1684323,34.8926947 41.2542785,34.8572544 41.1846847,34.687419" id="path94" fill="#2A3B31"></path>
                        <path d="M45.2742671,103.912296 C45.2996122,103.957812 45.3149729,104.01271 45.3526065,104.047108 C45.4486107,104.135014 45.5434629,104.293105 45.6963016,104.212843 C45.866421,104.123895 45.7101262,103.983177 45.6763327,103.872339 C45.6563638,103.806323 45.5753363,103.755594 45.5219579,103.697917 C45.4393943,103.769492 45.3568307,103.841068 45.2742671,103.912296" id="path96" fill="#4B6256"></path>
                        <path d="M186.72398,98.7952373 C186.808755,98.8619096 186.893531,98.928582 186.978823,98.9948324 C187.154578,98.854314 187.358763,98.6623145 187.104436,98.5175764 C186.938503,98.4226316 186.799451,98.6462794 186.72398,98.7952373" id="path98" fill="#4E7261"></path>
                        <path d="M45.8162258,34.9962359 C45.8290238,34.8082634 45.866394,34.615774 45.588421,34.488328 C45.5008826,34.5480206 45.4128322,34.6081648 45.3252938,34.6678921 C45.4056653,34.8232039 45.4507143,34.9972783 45.7419973,35.0455743 L45.8162258,34.9962359" id="path100" fill="#5B6A63"></path>
                        <path d="M41.7691301,31.0897877 C41.6917627,30.8414205 41.6775968,30.4545678 41.3348916,30.637172 C41.2177507,30.6997426 41.2553448,30.9875677 41.4618397,31.0751028 C41.5642698,31.0795721 41.6667,31.0845522 41.7691301,31.0897877" id="path102" fill="#63847D"></path>
                        <path d="M159.730889,95.3998097 C159.618716,95.3966034 159.505992,95.3927558 159.393268,95.3889082 C159.510391,95.5876995 159.493895,96.0134977 159.827117,95.8538234 C159.957987,95.7909797 159.878255,95.5248558 159.730889,95.3998097" id="path104" fill="#7A9B6B"></path>
                        <path d="M157.727294,95.7196842 C157.775572,95.8860904 157.82385,96.0532779 157.872128,96.2196842 C157.981389,96.1751529 158.179584,96.1329654 158.182125,96.0853092 C158.1961,95.8876529 158.000447,95.7728092 157.682827,95.7392154 L157.727294,95.7196842" id="path106" fill="#667F5E"></path>
                        <path d="M94.2483157,56.7499673 C95.0769745,58.5629809 95.8657905,60.2887837 96.6965463,62.1063142 C98.6505873,60.3068513 100.536826,58.5692351 102.512536,56.7499673 C99.7190014,56.7499673 97.0380054,56.7499673 94.2483157,56.7499673" id="path108" fill="#1F4231"></path>
                        <path d="M131.347485,102.161824 C132.115331,103.848712 132.896109,105.530041 133.638791,107.228047 C133.7716,107.531374 133.949494,107.565077 134.212316,107.564035 C135.272343,107.560908 136.332718,107.562645 137.373522,107.562645 C137.543028,107.37363 137.404627,107.217971 137.348009,107.089413 C136.900652,106.075543 136.440014,105.06758 135.970988,104.063438 C135.893749,103.897355 135.86544,103.69062 135.643859,103.607579 C134.248664,103.081534 132.856266,102.54854 131.462819,102.017631 C131.424374,102.065579 131.385929,102.113875 131.347485,102.161824" id="path110" fill="#1F4231"></path>
                        <path d="M104.774484,107.562645 C104.564786,106.739875 104.175795,106.063382 103.863344,105.360136 C102.804716,102.977298 101.707643,100.611485 100.654956,98.2265629 C100.458888,97.783212 100.23451,97.5862057 99.7256419,97.6056631 C98.6488398,97.6463152 97.5692418,97.617824 96.4082108,97.617824 C96.6472671,98.4398995 97.0114436,99.0899855 97.3134095,99.7626559 C98.4048905,102.191358 99.5225838,104.608941 100.593444,107.047024 C100.77029,107.45007 100.969154,107.580713 101.389949,107.570984 C102.500653,107.546315 103.612055,107.562645 104.774484,107.562645" id="path112" fill="#1F4231"></path>
                        <path d="M41.1858674,34.687419 C41.1308351,34.7692031 41.09689,34.8683232 40.942594,34.8699284 C41.0248852,35.0184078 41.0680881,35.2957033 41.3489068,35.1428096 C41.5633783,35.0264338 41.366908,34.8169573 41.1858674,34.687419" id="path114" fill="#98A29A"></path>
                        <path d="M45.6097848,35.1431473 C45.6777106,35.3293731 45.7603537,35.6273344 46.0150755,35.4328319 C46.242627,35.2600557 46.0196039,35.0727954 45.7728067,34.9962359 C45.7739388,34.9962359 45.6097848,35.1431473 45.6097848,35.1431473" id="path116" fill="#5F6A64"></path>
                        <path d="M97.2410635,33.2408648 C97.5779792,34.0511617 97.8663147,34.7317889 98.1424178,35.4170024 C98.2385297,35.656398 98.3968521,35.7578545 98.6523348,35.7502105 C98.986105,35.7401344 99.3219722,35.7658459 99.6543444,35.7422191 C100.20026,35.7033043 100.375707,35.4347225 100.232413,34.9034657 C99.9356899,33.804539 99.2122299,33.2524003 98.0511989,33.2412818 C97.8296175,33.2388496 97.6083855,33.2408648 97.2410635,33.2408648" id="path118" fill="#204434"></path>
                    </g>
                </g>
            </g>
        </g>
    </g>
</svg>