<?xml version="1.0" encoding="UTF-8"?>
<svg width="200px" height="200px" viewBox="0 0 200 200" version="1.1" xmlns="http://www.w3.org/2000/svg" xmlns:xlink="http://www.w3.org/1999/xlink">
    <!-- Generator: Sketch 51.3 (57544) - http://www.bohemiancoding.com/sketch -->
    <title>mit</title>
    <desc>Created with Sketch.</desc>
    <defs></defs>
    <g id="mit" stroke="none" stroke-width="1" fill="none" fill-rule="evenodd">
        <g id="mit_BGL" transform="translate(0.000000, 21.890547)">
            <g id="mit">
                <g id="g10" transform="translate(99.937692, 78.788569) scale(-1, 1) rotate(-180.000000) translate(-99.937692, -78.788569) translate(0.000000, 0.282330)" fill-rule="nonzero">
                    <g id="g12">
                        <path d="M53.1224909,97.0183561 C43.9466656,104.489079 44.4100674,88.9364236 46.9729583,83.420184 C51.4945782,73.6864011 45.2215814,73.8127045 41.5747778,78.5374427 C35.0307779,87.0215649 28.3434759,101.161108 28.3434759,101.161108 C29.8738435,78.7979745 56.5188771,27.9784841 100.170465,27.9784841 L100.170465,39.4226134 C100.170465,39.4226134 70.5525216,82.8282916 53.1224909,97.0183561" id="path14" fill="#231F20"></path>
                        <path d="M145.278501,94.6795141 C154.455323,102.150732 153.993267,86.598077 151.43227,81.0798561 C146.909404,71.3455779 153.273018,73.6972979 157.119996,78.2536315 C164.522862,87.0215649 171.263298,101.161108 171.263298,101.161108 C168.640993,77.1565254 143.090339,27.9784841 99.4372561,27.9784841 L99.4362592,39.4226134 C99.4362592,39.4226134 127.84548,80.488459 145.278501,94.6795141" id="path16" fill="#231F20"></path>
                        <path d="M153.887597,32.0374796 C151.952644,31.1722764 150.750401,31.1488484 151.921741,32.4064836 C152.809965,33.1087801 153.686227,33.8241032 154.544046,34.560675 C155.20847,35.0687614 155.727348,35.5185997 156.098189,35.9157868 C173.264544,51.3391174 185.067659,73.7076993 185.067659,98.6043307 C185.067659,117.434931 177.888095,134.82072 167.449715,148.850304 C175.606226,136.067904 180.342425,120.831255 180.342425,104.470753 C180.342425,59.3205024 132.258688,23.721762 99.8200598,23.721762 C67.3809329,23.721762 19.3002363,59.3205024 19.3002363,104.470753 C19.3002363,120.836208 24.0377813,136.078305 32.1968341,148.863182 C21.7597502,134.831121 14.5722115,117.439884 14.5722115,98.6043307 C14.5722115,71.8938833 28.0060305,48.0928226 47.3923477,32.6570102 C48.5663788,31.4063587 47.7379178,31.2237389 46.1123478,31.8403472 C24.1767969,43.7035561 7.50644218,62.6058771 0,85.0710439 C10.0807973,41.5216771 50.5809333,0 99.8200598,0 C149.062675,0 189.567098,41.5216771 199.647596,85.0710439 C192.178438,62.7272274 175.648594,43.9124768 153.887597,32.0374796" id="path18" fill="#B20D35"></path>
                        <path d="M99.0479726,12.4525258 C116.753143,12.4525258 135.658065,25.6213158 142.448345,33.6923019 C128.174452,24.5954844 112.562739,18.4215755 99.0509633,18.4215755 C85.4659169,18.4215755 69.3452942,22.5552633 55.425793,33.8320282 C55.1715874,32.732495 71.3993752,12.4525258 99.0479726,12.4525258" id="path20" fill="#B0AEAF"></path>
                        <path d="M99.7472872,6.66248021 C120.978439,6.66248021 143.646601,18.0895709 151.785666,24.6692357 C134.672146,17.2560674 115.95115,13.3034641 99.7512748,13.3034641 C83.4646708,13.3034641 64.1355747,15.5907941 47.4464786,24.7822153 C47.1395876,23.8877395 66.6028644,6.66248021 99.7472872,6.66248021" id="path22" fill="#B0AEAF"></path>
                        <path d="M99.7363215,156.552831 C65.3622414,156.552831 32.9406098,128.299501 52.3942666,79.8757636 C70.9866649,33.5897733 99.7363215,39.8018208 99.7363215,39.8018208 L99.7363215,156.552831" id="path24" fill="#231F20"></path>
                        <path d="M72.5433004,125.605524 C72.5433004,117.526563 65.9499049,110.976121 57.8218054,110.976121 C49.6914131,110.976121 43.0997123,117.526563 43.0997123,125.605524 C43.0997123,133.684484 49.6914131,140.234431 57.8218054,140.234431 C65.9499049,140.234431 72.5433004,133.684484 72.5433004,125.605524" id="path26" fill="#231F20"></path>
                        <path d="M158.456818,125.605524 C158.456818,117.526563 151.866414,110.976121 143.734825,110.976121 C135.60523,110.976121 129.01333,117.526563 129.01333,125.605524 C129.01333,133.684484 135.60523,140.234431 143.734825,140.234431 C151.866414,140.234431 158.456818,133.684484 158.456818,125.605524" id="path28" fill="#231F20"></path>
                        <path d="M99.5748262,156.552831 C133.951897,156.552831 166.375074,128.299501 146.920869,79.8757636 C128.324981,33.5897733 99.5748262,39.8018208 99.5748262,39.8018208 L99.5748262,156.552831" id="path30" fill="#231F20"></path>
                        <path d="M108.377318,94.8137424 C108.377318,73.675009 93.8846082,56.5334072 76.0074747,56.5334072 C58.1328334,56.5334072 43.637083,73.675009 43.637083,94.8137424 C43.637083,115.956438 58.1328334,133.093582 76.0074747,133.093582 C93.8846082,133.093582 108.377318,115.956438 108.377318,94.8137424" id="path32" fill="#231F20"></path>
                        <path d="M91.8340164,94.8137424 C91.8340164,73.675009 106.323237,56.5334072 124.200371,56.5334072 C142.080495,56.5334072 156.569217,73.675009 156.569217,94.8137424 C156.569217,115.956438 142.080495,133.093582 124.200371,133.093582 C106.323237,133.093582 91.8340164,115.956438 91.8340164,94.8137424" id="path34" fill="#231F20"></path>
                        <path d="M60.0767586,74.5165365 C63.1636121,60.0094752 75.2767582,27.9784841 99.558876,27.9784841 L99.558876,41.4477772 C99.558876,41.4477772 77.1748267,34.8814361 60.0767586,74.5165365" id="path36" fill="#231F20"></path>
                        <path d="M138.919373,74.5165365 C135.833018,60.0094752 123.721368,27.9784841 99.4372561,27.9784841 L99.4372561,41.4477772 C99.4372561,41.4477772 121.820807,34.8814361 138.919373,74.5165365" id="path38" fill="#231F20"></path>
                        <path d="M70.7244842,95.3922616 C70.912397,96.0109006 67.2259173,104.017051 67.2259173,104.017051 C67.2259173,104.017051 86.0156988,86.4029258 86.1796863,85.9348602 C83.8300291,87.6159339 77.4619295,84.8828271 73.5132692,87.4584261 C68.7446712,90.56549 70.7244842,95.3922616 70.7244842,95.3922616" id="path40" fill="#B20D35"></path>
                        <path d="M49.7418056,98.3700502 C49.7418056,98.3700502 46.2050082,110.929067 59.1955125,117.27148 C59.1955125,117.27148 63.3819299,150.347124 98.1522717,150.347124 C124.154016,150.347124 130.217567,136.415114 130.217567,136.415114 C130.217567,136.415114 123.473642,146.93495 98.404982,146.93495 C67.7118986,146.93495 63.1970078,114.559176 63.1970078,114.559176 C63.1970078,114.559176 51.1566342,111.041997 49.7418056,98.3700502" id="path42" fill="#B0AEAF"></path>
                        <path d="M62.0306527,106.475262 C62.0306527,106.475262 50.2644224,110.973645 52.0543289,119.121948 C53.8452323,127.272233 68.1669765,124.460868 68.1669765,124.460868 L62.0306527,106.475262" id="path44" fill="#231F20"></path>
                        <path d="M67.4312756,133.792461 C67.4312756,133.792461 57.0666652,137.851506 51.6426155,131.820642 C45.6781546,125.179559 49.1913757,120.333966 49.1913757,120.333966 C49.1913757,120.333966 49.1913757,131.999448 64.9839236,127.810137 L67.4312756,133.792461" id="path46" fill="#B0AEAF"></path>
                        <path d="M136.275137,134.131747 C136.275137,134.131747 147.944669,137.673691 153.423049,130.837952 C157.650339,125.573824 154.513641,120.67028 154.513641,120.67028 C154.513641,120.67028 154.513641,132.337248 138.723984,128.148432 L136.275137,134.131747" id="path48" fill="#B0AEAF"></path>
                        <path d="M100.243237,52.5962079 C96.7965085,46.519825 89.28249,46.6763422 89.28249,46.6763422 L89.9837984,38.7578117 C89.9837984,38.7578117 92.7820538,38.724527 99.4163215,38.724527 C106.053081,38.724527 108.750651,38.8632627 108.750651,38.8632627 L109.933954,46.7957113 C109.933954,46.7957113 103.511524,46.519825 100.243237,52.5962079" id="path50" fill="#FFFFFF"></path>
                        <polygon id="path52" fill="#231F20" points="97.8422405 37.8335679 99.8938293 48.7506404 101.769468 38.071365"></polygon>
                        <path d="M100.058315,71.4164068 C94.072521,71.4164068 88.1360726,69.6630183 88.1360726,69.6630183 L95.974577,67.6575182 C95.974577,67.6575182 93.2730195,67.0215434 90.7887828,65.6713352 C96.3095303,64.3503501 100.058315,58.9232658 100.058315,58.9232658 L100.058315,71.4164068" id="path54" fill="#B0AEAF"></path>
                        <path d="M100.058315,71.4164068 C106.045106,71.4164068 111.985542,69.6630183 111.985542,69.6630183 L104.14305,67.6575182 C104.14305,67.6575182 106.844608,67.0215434 109.324857,65.6713352 C103.808097,64.3503501 100.058315,58.9232658 100.058315,58.9232658 L100.058315,71.4164068" id="path56" fill="#B0AEAF"></path>
                        <path d="M77.263051,52.9097375 C77.263051,52.9097375 66.2559485,60.2175043 58.8112135,71.0127312 C58.8112135,71.0127312 70.2958238,59.2313471 76.8159482,57.1000389 L77.263051,52.9097375" id="path58" fill="#B20D35"></path>
                        <path d="M77.7081601,60.2160184 C77.7081601,60.2160184 67.5424282,68.6382271 61.2879735,80.1556123 C61.2879735,80.1556123 71.4552007,67.2389834 77.7081601,64.429104 L77.7081601,60.2160184" id="path60" fill="#B20D35"></path>
                        <path d="M122.847598,52.9097375 C122.847598,52.9097375 133.856694,60.2175043 141.300931,71.0127312 C141.300931,71.0127312 129.816819,59.2313471 123.297692,57.1000389 L122.847598,52.9097375" id="path62" fill="#B20D35"></path>
                        <path d="M122.40548,60.2160184 C122.40548,60.2160184 132.571212,68.6382271 138.828159,80.1556123 C138.828159,80.1556123 128.658439,67.2389834 122.40548,64.429104 L122.40548,60.2160184" id="path64" fill="#B20D35"></path>
                        <path d="M81.0846086,92.8498482 C81.0846086,92.8498482 76.6913376,92.8166626 76.7416803,87.4267264 C74.3845464,91.2569393 74.275886,94.4358228 75.4566959,97.1208847 C77.959375,95.1713544 81.0846086,92.8498482 81.0846086,92.8498482" id="path66" fill="#231F20"></path>
                        <path d="M130.42143,95.3922616 C130.233517,96.0109006 133.921492,104.017051 133.921492,104.017051 C133.921492,104.017051 115.132209,86.4029258 114.967723,85.9348602 C117.319872,87.6159339 123.686975,84.8828271 127.636632,87.4584261 C132.401741,90.56549 130.42143,95.3922616 130.42143,95.3922616" id="path68" fill="#B20D35"></path>
                        <path d="M120.065293,92.8498482 C120.065293,92.8498482 124.458564,92.8166626 124.407224,87.4267264 C126.765355,91.2569393 126.874016,94.4358228 125.690713,97.1208847 C123.190527,95.1713544 120.065293,92.8498482 120.065293,92.8498482" id="path70" fill="#231F20"></path>
                    </g>
                </g>
            </g>
        </g>
    </g>
</svg>