<?xml version="1.0" encoding="UTF-8"?>
<svg width="200px" height="200px" viewBox="0 0 200 200" version="1.1" xmlns="http://www.w3.org/2000/svg" xmlns:xlink="http://www.w3.org/1999/xlink">
    <!-- Generator: Sketch 51.3 (57544) - http://www.bohemiancoding.com/sketch -->
    <title>mitchell</title>
    <desc>Created with Sketch.</desc>
    <defs></defs>
    <g id="mitchell" stroke="none" stroke-width="1" fill="none" fill-rule="evenodd">
        <g id="mitchell_BGL" transform="translate(0.000000, 26.865672)">
            <g id="mitchell">
                <g id="g10" transform="translate(99.924753, 73.872569) scale(-1, 1) rotate(-180.000000) translate(-99.924753, -73.872569) translate(0.000000, 0.328856)" fill-rule="nonzero">
                    <g id="g12">
                        <polyline id="path14" fill="#FFFFFF" points="0 146.966647 76.6284405 146.969039 102.227236 55.4954881 126.589613 146.969039 199.653268 146.969039 199.653268 116.903412 187.179529 116.903412 187.179529 29.2051652 199.653268 29.2051652 199.653268 0.0221883177 132.843338 0.0221883177 132.828289 29.2051652 142.626332 29.2051652 142.634759 67.2918997 115.862751 0.0221883177 85.8841213 0 58.8254613 67.2918997 58.8254613 29.2051652 71.2746408 29.2051652 71.2746408 0.0221883177 0 0.0221883177 0 29.2051652 14.2482464 29.2147318 14.2482464 116.903412 0 116.903412 0 146.966647"></polyline>
                        <polyline id="path16" fill="#B4131D" points="88.9035343 4.42691897 62.9664394 68.9349739 54.3712251 89.7197426 54.3712251 24.7782522 58.8254613 24.7782522 66.817756 24.7782522 66.817756 4.4467698 4.45706535 4.4467698 4.45706535 24.7829159 14.2529417 24.7878189 18.7053118 24.7924826 18.7053118 29.2147318 18.7053118 116.903412 18.7053118 121.330385 14.2482464 121.330385 4.45706535 121.330385 4.45706535 142.539675 73.2400283 142.542066 97.9316755 54.3099395 102.331976 38.5840813 106.534836 54.362018 130.020764 142.542066 195.196383 142.542066 195.196383 121.330385 187.177121 121.330385 182.719634 121.330385 182.719634 116.903412 182.719634 29.2051652 182.719634 24.7782522 187.177121 24.7782522 195.196383 24.7782522 195.196383 4.4467698 137.297814 4.4467698 137.285173 24.7782522 142.623924 24.7782522 147.080809 24.7782522 147.080809 29.2051652 147.089236 67.2918997 146.978476 89.7197426 138.489086 68.920026 112.833105 4.4467698 88.9035343 4.42691897 88.9035343 4.42691897"></polyline>
                    </g>
                </g>
            </g>
        </g>
    </g>
</svg>