<?xml version="1.0" encoding="UTF-8"?>
<svg width="200px" height="200px" viewBox="0 0 200 200" version="1.1" xmlns="http://www.w3.org/2000/svg" xmlns:xlink="http://www.w3.org/1999/xlink">
    <!-- Generator: Sketch 51.3 (57544) - http://www.bohemiancoding.com/sketch -->
    <title>mo-southern-st</title>
    <desc>Created with Sketch.</desc>
    <defs></defs>
    <g id="mo-southern-st" stroke="none" stroke-width="1" fill="none" fill-rule="evenodd">
        <g id="mo-southern-st_BGL" transform="translate(5.660377, 0.000000)">
            <g id="mo-southern-st" transform="translate(0.000000, -0.943396)">
                <g id="g10" transform="translate(95.203269, 100.533323) scale(-1, 1) rotate(-180.000000) translate(-95.203269, -100.533323) translate(0.230769, 0.533323)">
                    <g id="g12" transform="translate(0.415385, 0.000000)">
                        <path d="M15.9468919,136.778396 C15.2774765,135.675809 14.5754304,134.323032 13.9548458,133.161468 C13.5611074,132.424721 13.1971381,131.75893 12.8902612,131.255785 C12.6986305,130.942011 12.5219535,130.681223 12.3692305,130.48402 C12.3035997,130.399241 12.1838766,130.248113 12.0220151,130.090996 C11.8617228,129.9348 11.6374612,129.750959 11.3498766,129.613193 C8.6761844,128.334136 6.45341522,129.33075 5.4322614,131.632222 C4.66315373,133.365583 4.56797066,135.786851 4.65937373,137.953783 C4.80992296,141.511273 5.53721525,145.451652 5.96990754,147.361482 C1.76772919,152.9979 3.81472144,158.203972 9.94019975,162.319898 C8.9132767,163.445062 7.44175366,165.365029 7.55893827,167.596466 L7.61538443,168.67279 L8.69981517,169.315544 C8.5027844,169.515972 8.3058921,169.729302 8.11624595,169.952768 C7.07215367,171.181602 5.03709218,174.349755 8.03492288,176.863174 C11.4091843,179.692211 24.3239994,184.533366 34.9065684,180.279674 C38.3343683,179.084014 41.0089374,177.308264 42.5536605,174.794844 C48.9244603,175.974838 54.1730756,176.092331 57.023537,173.92586 L75.6863058,177.778234 C75.6475366,178.444025 75.6655366,179.233299 75.8104596,180.088921 C76.2484596,182.678365 77.8236904,185.670049 81.8778441,187.70244 C85.6781517,189.607201 88.6352286,189.948621 91.6329208,189.943092 C94.3356899,189.937563 97.181536,189.619642 101.113382,190.09422 C104.858305,190.54622 107.559228,191.670924 109.295997,192.650029 C110.166459,193.140272 110.797843,193.59642 111.19892,193.916184 C111.545074,194.192176 114.063689,196.764572 114.107074,196.808805 L116.488151,199.243435 L115.148766,192.570779 C114.814151,190.90561 114.173997,189.34411 113.252766,187.883977 C114.957689,188.81332 116.851843,190.090534 118.943997,191.754781 L121.515228,193.800995 L122.177997,190.585385 C122.756305,187.777082 122.091228,185.02407 120.473074,182.368738 L124.227228,183.381478 L121.689228,179.113503 C120.943382,177.858866 120.097382,176.659981 119.152151,175.517769 C122.837997,175.831544 127.580305,175.506711 132.107074,173.043053 C135.944304,170.953989 138.401997,171.42396 139.816612,172.102191 C140.579073,172.468031 141.14492,172.946755 141.519227,173.334711 C141.697381,173.519474 141.829843,173.68166 141.917535,173.79777 C141.97292,173.871952 146.618766,179.072035 146.618766,179.072035 L145.905689,173.103873 L145.64215,172.255162 C144.042458,167.091018 141.351689,162.846541 137.567073,159.58117 C144.823843,158.059295 150.703842,157.762108 155.277688,158.575802 L158.802458,159.20335 L157.514765,155.867944 C156.47215,153.16884 154.897842,150.924962 152.807073,149.164417 C155.259688,148.027734 158.035381,145.858498 160.061996,141.816293 C161.519073,138.911232 163.357842,138.54401 164.807996,138.745821 C166.416457,138.970209 167.733688,139.941941 167.811688,140.001379 L170.814457,142.276588 L171.045688,138.520512 C171.33415,133.843386 164.559227,131.098207 156.133381,131.701796 C163.495842,126.026214 168.78415,119.480726 171.893534,112.039991 L173.803842,107.468378 L169.239688,109.411383 C167.307688,110.23383 165.747227,110.749876 164.503381,111.042917 C168.428303,107.644847 171.69738,102.55811 174.513226,97.5847189 C176.471073,94.1272122 178.294149,90.5577419 180.039688,87.3402886 C181.780611,84.1306681 183.36738,81.4218884 184.881226,79.5401643 L186.977995,74.4018227 L182.07138,76.6862468 C177.778611,80.0078308 174.374303,82.0273207 171.779534,83.0161013 C179.858303,72.3247384 183.069688,63.0396003 184.467226,55.651852 C185.237072,51.5833839 185.449842,48.1244948 185.645534,45.3577522 C185.850457,42.4668822 186.035534,40.9773529 186.472611,40.1875724 L188.238918,33.1886093 L183.875534,37.1773668 L183.260303,37.8081867 C182.173842,38.9222927 181.037995,39.8221936 179.850919,40.5183946 C182.198303,36.2218527 183.025842,31.4710062 182.313688,26.326214 L181.524919,20.6225719 L178.471842,25.7821543 C178.436765,25.8433426 178.373996,25.9387189 178.286303,26.0497609 C178.071688,26.3229887 177.636919,26.7929129 176.838919,27.366507 C175.237842,28.516598 172.157073,30.0914592 166.45338,31.2894226 C160.509688,32.5376083 154.580304,33.6011234 149.871689,34.8892566 C146.693535,35.7596231 143.597073,36.838297 141.50815,38.4349059 C134.369535,27.6425915 123.461074,19.7525279 108.958151,14.6948645 L104.209382,13.0390026 L106.495382,17.5128431 C108.088151,20.6288842 108.916613,24.9052451 108.83769,30.4586349 C104.719382,25.936922 96.5076899,19.1503209 81.9276903,14.9533021 C73.7755366,12.4191487 69.8598444,8.56824915 68.9815367,3.7841315 L68.2869214,0 L65.5675368,2.72547278 C59.6806139,8.6244152 56.1876909,18.8670025 54.7236909,32.9573102 C52.3735372,29.2440843 50.7046141,24.7159208 49.7579988,19.32186 L48.0775373,12.4560552 L46.0993835,18.2948829 C46.0993835,18.2948829 45.013522,21.5840297 43.2106143,25.4968547 C41.3862913,29.4555709 38.5853529,34.796737 34.681753,40.3248775 C30.3423685,46.4713053 28.95143,55.3684876 28.5692301,62.4180416 C28.4394454,64.8135077 28.4240762,67.0472488 28.4610454,68.9593827 L23.9585532,63.390235 L24.6292148,70.1103491 C24.6946609,70.7636999 24.9107994,73.8797871 24.9924917,76.8253949 C25.0328763,78.2813812 25.0408148,79.6958996 24.978784,80.7418138 C24.9704763,80.8841872 24.9609225,81.0182669 24.9501225,81.1435923 C23.8034763,80.1294702 21.7887687,77.1760296 22.3132148,72.0275514 L22.8106148,67.1458504 L19.0205995,70.2702312 C17.4155073,71.5944415 16.3052765,74.2276573 15.5080612,77.7998921 C15.4161227,76.5415697 15.3524765,75.1007883 15.3264919,73.4604999 L15.263215,69.4731247 L12.0859843,71.8902463 C9.64019976,73.7503149 7.6343075,77.9625387 5.85304601,83.8952222 L3.72259837,79.1840006 L2.01887072,83.8039927 C-0.857270748,91.6022738 -0.640204599,98.6882275 3.01081839,104.807978 C2.98990608,105.909643 2.97439839,108.350263 3.16189838,110.90469 C3.29369069,112.703017 3.52896453,114.554332 3.91802759,116.066069 C4.26977066,117.432669 4.93269218,119.35494 6.47759984,120.222542 C7.93393826,121.039921 9.42549207,120.833964 10.5436151,119.92259 C11.4425536,119.189529 11.9756766,118.108597 12.2971382,117.29306 C12.4682305,116.858568 12.6125997,116.408871 12.7323228,115.98083 C17.341938,118.133939 20.1784149,126.498027 15.9468919,136.778396" id="path14" fill="#FFFFFF"></path>
                        <path d="M12.1718305,169.029876 C12.1718305,169.029876 6.40726138,172.867966 9.33263054,175.320566 C12.2578151,177.773166 24.4296455,182.347543 34.1962145,178.393342 C38.0172452,177.069593 40.4313221,175.113226 41.4387682,172.524243 C49.6333834,174.204617 54.6221525,173.943369 56.4055371,171.740959 L77.9856904,176.19554 C77.9856904,176.19554 75.8903058,182.447066 82.7833825,185.901808 C89.6764593,189.357011 93.2875361,187.120045 101.355228,188.094082 C109.423382,189.067657 113.170151,192.966567 113.170151,192.966567 C112.489382,189.57587 110.279997,186.558385 106.542459,183.914571 C110.157228,183.721515 114.711228,185.809657 120.201228,190.178999 C120.946151,186.564835 119.130459,182.751625 114.753228,178.738909 L119.953843,180.141908 C118.154766,177.115668 115.713689,174.42025 112.631997,172.056576 C112.631997,172.056576 122.441074,176.010317 131.140612,171.274214 C139.841073,166.538573 143.714304,172.849997 143.714304,172.849997 C141.767073,166.562993 138.130612,161.8209 132.807227,158.624181 C142.174612,156.228715 149.783535,155.551866 155.63215,156.592712 C154.148304,152.751856 151.487073,150.006216 147.648919,148.355791 C147.648919,148.355791 154.376304,148.655743 158.257381,140.914596 C162.139381,133.173448 169.031996,138.396569 169.031996,138.396569 C169.233227,135.129354 160.050919,130.677537 145.611227,136.178493 C157.791227,129.37959 165.931842,121.074017 170.031227,111.26454 C164.273996,113.715297 160.593227,114.031835 158.987996,112.214156 C169.841534,107.645308 176.744765,86.4385907 183.307842,78.2786167 C175.987842,83.9422192 170.585534,86.396662 167.10138,85.6405627 C187.460765,61.496992 181.896457,44.2928088 184.705842,39.2140428 C181.77738,42.2157706 178.41738,43.9113957 174.625842,44.3012406 C179.345534,39.2019711 181.241995,33.3020011 180.314765,26.6012388 C180.314765,26.6012388 178.670303,30.7822233 166.868765,33.2605793 C155.066765,35.7394881 143.319227,37.4709139 141.214612,41.7683773 C134.432304,30.2763141 123.458766,21.8858704 108.292613,16.5969079 C110.624305,21.1587527 111.367843,27.6337911 110.524151,36.021885 C110.524151,36.021885 103.799536,23.3460496 81.3683057,16.8890267 C72.8635366,14.2535532 68.072306,10.0063121 66.9969214,4.14733558 C60.9623062,10.194761 57.3964601,21.5790075 56.2989217,38.3008261 C51.9793833,33.6605147 49.1363065,27.4504105 47.7701527,19.6700988 C47.7701527,19.6700988 44.313645,30.1803849 36.3311991,41.4859805 C28.3485685,52.7914839 30.8242608,75.0888087 30.8242608,75.0888087 L26.6372763,69.9103814 C26.6372763,69.9103814 28.0139531,83.7044695 25.4891994,83.5570279 C22.9647687,83.410047 19.6292764,78.4666048 20.3057072,71.8238976 C18.384738,73.4075131 17.0300303,78.3795221 16.2416304,86.7399246 C14.4138919,85.9405144 13.4359843,81.5250976 13.308692,73.4927528 C10.8578767,75.3569682 8.53412286,80.8136916 6.33803061,89.8633838 L3.91261836,84.499733 C1.11544613,92.0846845 1.49224612,98.6725619 5.04323064,104.261983 C5.04323064,104.261983 4.58527835,116.848892 7.46663058,118.466604 C10.3481997,120.083854 11.2106766,113.431471 11.2106766,113.431471 C19.6550303,114.478307 23.1288456,127.374383 16.6205996,140.135459 C16.6205996,140.135459 15.5697227,139.920747 14.5712766,138.381364 C12.994292,135.95088 11.1216459,131.738196 10.4774767,131.42995 C3.91189836,128.288061 7.67399981,146.273178 8.16941518,147.83606 C3.77704144,153.008958 5.48529217,157.728012 13.2937381,161.991841 C13.2937381,161.991841 9.43269207,164.799683 9.5740613,167.490953 L12.1718305,169.029876" id="path16" fill="#1A663C"></path>
                        <path d="M19.9913072,163.502657 L20.9579995,173.037524 C25.0599225,173.962721 29.1843685,174.398134 33.3311992,174.344226 C33.3311992,174.344226 37.1633991,169.211413 40.2407528,169.236755 C43.3182912,169.261636 50.4175372,169.541775 51.6992295,169.102675 C52.9813833,168.663115 60.6599985,158.676707 60.6599985,158.676707 L58.0647678,167.839284 C58.0647678,167.839284 65.0118445,170.546221 73.1967674,171.97917 C81.3821518,173.412579 83.3395364,171.634985 84.9544594,170.433797 C86.5693825,169.232608 88.7464593,168.095004 95.9875361,169.298035 C95.9875361,169.298035 89.8439978,162.360905 103.82169,164.049112 C103.82169,164.049112 101.762767,162.109794 104.003536,160.410529 C106.244767,158.711264 109.264151,157.622499 109.749228,154.433152 C109.749228,154.433152 110.267997,153.661848 106.588151,154.599024 C102.908767,155.535739 110.704613,147.776161 110.704613,147.776161 C110.704613,147.776161 116.616459,141.418201 115.095689,139.078025 C113.574459,136.738311 112.135382,139.512057 111.734305,137.206438 C111.33369,134.90128 112.258151,133.231503 111.832613,133.758607 C109.557228,136.576125 95.0903053,137.935353 91.4884593,138.638004 C104.338151,128.489411 105.035997,121.070331 93.5824592,116.380765 C93.8875361,107.989492 75.3309212,104.307598 64.8290753,113.7904 C64.8290753,113.7904 72.8464597,99.598219 48.5256911,96.2176583 C43.4834297,96.3121131 32.2563223,81.0624994 30.0892608,78.8499531 C28.6658762,87.3679339 25.2537224,88.6631166 19.8529841,82.7350407 C19.8529841,82.7350407 20.7091841,92.1643951 18.9652611,92.4602 C14.9924304,93.1329025 11.6285997,82.3277331 11.6285997,82.3277331 C11.6285997,82.3277331 9.89981514,90.235674 10.2759228,93.84523 C10.6516151,97.454786 9.11483054,100.140989 5.17753833,94.3907641 C5.17753833,94.3907641 4.27625989,98.5324923 7.17710751,100.521112 C10.0779228,102.509731 14.9567535,99.5558295 16.4152611,97.1529913 C17.8736303,94.7501531 25.3355994,93.0573387 28.1184916,96.3549634 C30.9016146,99.6521273 33.1954146,104.278109 36.6540914,106.237701 C36.6540914,106.237701 41.0484451,102.936851 42.4372143,106.307275 C43.8259835,109.677699 43.9485681,108.461766 46.1648296,108.066438 C48.3812296,107.67111 50.2010757,110.36791 49.7598449,112.624228 C45.166245,136.137947 33.4460299,148.772775 19.6411841,155.052868 C19.6411841,155.052868 19.2389534,159.819841 20.1047072,160.333122 C20.9705995,160.845942 22.2913841,161.149119 23.103784,160.641367 C23.9159994,160.133615 36.6281068,155.467087 36.6281068,155.467087 L37.254276,156.736928 C34.2035991,160.378276 30.5971377,163.296699 26.4346147,165.492198 C26.4346147,165.492198 25.5775378,168.700897 30.2013685,167.993637 C34.8250607,167.286839 39.7768605,165.724418 39.7768605,165.724418 C39.7768605,165.724418 36.4094299,170.833271 27.3382147,172.051969 C27.3382147,172.051969 24.0748148,172.036764 23.546584,170.854466 C23.0186763,169.672168 22.6529071,164.480379 22.6529071,164.480379 L19.9913072,163.502657" id="path18" fill="#F2CE2D"></path>
                        <path d="M50.5209218,79.1770893 C50.5209218,79.1770893 43.110922,90.7314466 58.3463062,93.284491 C73.5812289,95.8375353 73.7750751,103.085675 73.7750751,103.085675 C89.3436901,99.6535096 98.8841514,102.628606 102.395074,112.010963 L109.529074,109.404471 C109.529074,109.404471 101.539844,131.225836 113.283228,124.097493 C125.027074,116.96915 131.180766,124.091503 131.180766,124.091503 C127.949997,123.749623 125.60492,124.058789 124.144612,125.018082 C128.944151,126.234475 131.011381,127.739762 130.347689,129.532561 C127.059228,127.98857 124.632458,127.929593 123.067382,129.35517 C125.625228,129.60536 127.559535,130.930953 128.86892,133.332408 C128.86892,133.332408 121.707228,131.846012 120.57092,135.069455 C119.435535,138.292899 124.132151,138.977581 124.132151,138.977581 C140.171073,135.532975 133.570151,116.336072 129.18692,114.517932 C124.803689,112.699792 121.700305,117.515144 119.655689,117.6225 C117.610151,117.728935 114.723689,116.019072 114.723689,116.019072 C116.613689,115.35236 117.947997,112.366666 118.727997,107.061992 L120.243689,111.077012 C120.243689,111.077012 135.647535,102.640585 139.166766,119.951618 C143.465073,141.100741 123.562612,145.893516 123.562612,145.893516 L134.708766,145.124515 C129.407535,150.716701 122.85092,153.665534 115.037997,153.970554 C112.922766,154.184344 112.302459,155.39567 113.177997,157.604069 L115.81892,161.746719 L109.45892,161.334804 C107.48169,160.976797 106.838767,161.755012 107.530613,163.668989 L111.473074,167.743447 C104.807997,165.924386 101.04369,166.431677 100.180613,169.264861 L102.821997,173.40705 C102.821997,173.40705 94.4353823,173.473859 91.0892285,173.648946 C87.7426132,173.824033 83.8578441,174.399516 82.5941518,178.746281 C81.330921,183.093045 89.618767,184.70661 93.904613,184.668367 C98.1904591,184.630585 105.343382,185.931297 105.343382,185.931297 L94.6587669,181.279052 L103.45569,181.935628 L99.2192283,179.365536 C104.089844,178.711724 109.115997,179.751648 114.297689,182.484848 C112.036151,179.673781 109.129843,177.59255 105.580151,176.241155 C108.50169,175.501643 111.113997,175.550944 113.418459,176.389518 L107.323382,170.379888 L122.422612,170.334734 L115.113689,166.063995 C124.985997,169.456074 126.865843,166.193467 134.517689,166.351506 C130.742766,163.286563 125.813997,161.744876 119.733228,161.727828 L123.197535,160.243735 L120.223382,156.863175 L126.554766,156.718037 L126.203074,153.572461 L147.809535,153.186349 C145.751073,150.806087 141.077073,149.375443 133.787997,148.894875 C142.462612,147.239382 152.132765,142.112559 155.123073,138.690991 C155.123073,138.690991 142.576612,142.293175 139.86692,140.387952 C137.156304,138.482269 139.07492,135.962399 139.07492,135.962399 L155.400458,120.218856 C150.737073,121.384106 146.643689,121.536155 143.119381,120.675464 C154.628304,110.636991 161.799688,101.638443 164.633996,93.6793581 C158.897073,95.186949 152.843073,94.6971663 146.472458,92.2104707 C163.529534,82.2461794 172.685534,69.6072045 173.938611,54.2944673 C168.470765,59.5553698 161.874457,64.1191497 154.149688,67.985807 C160.463073,59.3710677 164.17015,50.6775392 165.271842,41.9056824 C151.398919,41.7914151 143.265689,47.8627859 140.872612,60.1188733 C137.002612,46.3072765 129.815535,37.2526081 119.311843,32.9569416 C118.276151,41.1463579 114.921228,50.6282384 109.246613,61.401155 C109.845228,55.0418122 106.786613,35.8458304 86.3367671,29.8426974 C65.8869214,23.8408546 66.1421522,18.0574557 66.1421522,18.0574557 C55.3924602,44.1178601 63.4716907,59.5152841 78.0406134,65.3599633 C92.6095361,71.2055641 98.2956899,87.1928469 98.2956899,87.1928469 L103.483844,79.4770409 C104.360305,87.6609741 106.630613,95.3901421 110.293843,102.664545 C111.143997,106.250141 110.444305,107.124194 108.194767,105.286702 C105.538613,101.455523 103.525382,96.8452069 102.155536,91.4580575 C102.155536,91.4580575 95.7876899,101.561958 95.9155361,98.6707188 C96.0433822,95.7790194 90.8603054,80.5095932 78.2441519,72.794248 C65.6275368,65.0789027 63.6816907,59.9695887 63.6816907,59.9695887 C61.6366138,61.849009 60.4481523,65.8506676 60.1172293,71.9745645 L52.9366141,63.0442079 C50.9926141,62.4069835 49.8936911,66.9311385 49.640768,76.6171336 C45.7241989,69.9352621 45.4973989,62.6571735 48.9609219,54.7837893 L56.2490755,63.9878345 C56.9372293,56.8332282 58.4699985,52.2864963 60.8459985,50.346717 L47.6201527,34.5672348 C32.8609838,51.1825269 30.6919377,76.119518 45.8219527,89.100834 C46.0451527,83.2487827 47.6113834,79.9410213 50.5209218,79.1770893" id="path20" fill="#F2CE2D"></path>
                        <path d="M44.6302143,165.843293 L57.353537,156.057775 L44.1910604,161.027019 C43.0031066,162.929477 43.3714605,164.026535 44.6302143,165.843293" id="path22" fill="#1E6035"></path>
                        <path d="M42.0600451,158.683618 L53.493691,147.423223 L41.0361682,153.957192 C40.0894605,155.989583 40.5888913,157.034115 42.0600451,158.683618" id="path24" fill="#1E6035"></path>
                        <path d="M39.6155067,151.180681 L48.6479988,139.390417 L38.5914452,146.453794 C37.6447837,148.486646 38.1443529,149.530717 39.6155067,151.180681" id="path26" fill="#1E6035"></path>
                        <polyline id="path28" fill="#1E6035" points="29.2595531 157.155294 32.51843 155.309969 30.4936146 152.251476 27.4498147 154.644178 30.2387069 154.498579 29.2595531 157.155294"></polyline>
                        <polyline id="path30" fill="#1E6035" points="34.3290914 154.284328 37.5879683 152.438543 35.5629683 149.380972 32.519353 151.773213 35.3080607 151.627614 34.3290914 154.284328"></polyline>
                        <path d="M53.301691,115.145481 C53.9178448,120.005526 52.9264602,126.990574 50.3284603,136.098783 C54.8261525,128.547927 56.8089217,121.642589 56.2767678,115.382769 C55.3070755,114.06501 54.3147679,113.985299 53.301691,115.145481" id="path32" fill="#1E6035"></path>
                        <path d="M75.7084596,164.775723 L87.8829209,158.741213 L87.199844,149.285135 L85.015844,157.402258 L76.3061519,161.952676 C75.4199981,162.971867 75.221075,163.912729 75.7084596,164.775723" id="path34" fill="#1E6035"></path>
                        <path d="M10.4594305,147.064755 C10.4594305,147.064755 7.4980152,138.250048 9.22933823,134.287093 C9.35409207,134.001425 9.6742613,134.060402 9.96581514,134.108781 C10.3889536,134.180198 10.5419997,135.473077 10.779969,135.935214 C12.0692305,138.439419 13.546892,141.485471 15.2109227,143.466258 L11.7421843,143.08936 L10.4594305,147.064755" id="path36" fill="#F8EFB8"></path>
                        <path d="M12.9010612,145.634111 C12.9173074,147.822237 13.4500612,149.686913 14.4996919,151.227218 C14.4996919,151.227218 15.4656919,152.758768 16.5081227,151.308311 C17.550738,149.857853 18.4973995,149.250117 21.5359841,148.532721 C21.5359841,148.532721 22.0913071,148.457158 24.4786609,149.541775 C26.8662455,150.626854 25.3530455,144.889991 24.0567686,143.282416 C23.8900148,143.075537 23.6794609,142.713384 23.5532302,142.56456 C23.2404456,142.111637 23.1587533,141.911209 22.7753071,141.954059 C22.2329994,142.013957 22.8362302,142.541983 22.754584,143.350608 C22.5870917,145.006101 21.8210302,147.58587 18.7081841,147.936043 C14.0747535,148.457618 13.9334304,145.766347 13.9334304,145.766347 C13.9334304,145.766347 13.4615997,144.76743 13.2338766,144.872482 C12.9393228,145.008405 12.9010612,145.634111 12.9010612,145.634111" id="path38" fill="#F8EFB8"></path>
                        <path d="M24.8183071,129.376825 C24.8183071,129.376825 23.9208456,138.91584 28.1568916,143.25431 C32.3929838,147.59232 34.4343684,142.088139 34.1852299,140.891558 C33.9360453,139.694516 33.3586146,139.352635 31.00583,137.149304 C28.6530454,134.945973 26.4425532,130.129699 25.9290917,129.225698 C25.4156301,128.322157 24.8183071,129.376825 24.8183071,129.376825" id="path40" fill="#F8EFB8"></path>
                        <path d="M6.49075368,106.978134 C6.49075368,106.978134 6.51383061,112.746328 7.95669211,115.369868 C9.39932284,117.992947 9.76029206,111.307851 10.125369,110.510284 C11.1284766,108.31755 17.7439842,106.482362 19.6469534,107.220492 C21.5502456,107.958161 22.742861,112.920955 23.3298456,113.448519 C23.9166917,113.976545 24.3567686,115.256062 24.6802148,112.540832 C25.0038455,109.825141 25.8320763,104.29101 25.3725224,102.640125 C24.912784,100.989239 17.6518611,102.951134 15.6063227,104.826408 C14.6619689,105.691706 11.1367843,105.775564 9.24050746,106.089799 C7.02983059,106.45656 6.49075368,106.978134 6.49075368,106.978134" id="path42" fill="#F8EFB8"></path>
                        <path d="M16.6106765,163.02854 L13.449692,164.961868 C16.1195996,165.794914 15.4766765,167.751741 11.9606766,172.111867 C11.7517382,172.739876 12.6551535,173.374797 14.6707842,174.01755 L17.1075688,172.494294 L16.6106765,163.02854" id="path44" fill="#E7CF24"></path>
                        <path d="M16.3472765,159.784823 L16.157815,154.397213 C14.7439842,154.76766 12.3434305,153.435617 8.95656901,150.400623 C8.92393824,155.186487 11.3877228,158.314554 16.3472765,159.784823" id="path46" fill="#E7CF24"></path>
                        <path d="M70.2613829,133.246708 C68.9141521,132.733427 68.0233829,133.524543 67.5895368,135.619597 C73.7270751,138.896949 72.8450751,145.76773 64.9430753,156.231019 L65.4023061,157.881905 L69.464306,153.574765 L70.8913828,153.098805 C70.6679982,153.619919 70.557229,154.198628 70.5890752,154.802678 C70.5927675,154.879163 70.599229,154.955188 70.6075367,155.030291 C70.8059982,154.854743 75.3055366,154.447896 75.3055366,154.447896 C75.3055366,154.447896 72.7015366,157.819703 72.6064597,157.873611 C73.024152,158.002162 74.1516905,158.445408 74.614152,158.420988 C74.9418443,158.403479 69.2769213,160.657033 69.2769213,160.657033 L76.361075,160.658876 C80.0815365,156.735085 83.1392287,152.232125 85.5332286,147.150456 L70.6389213,151.094059 C75.6383058,140.968504 75.0267674,132.873036 68.8047675,126.808576 C68.8047675,126.808576 65.1350753,127.930976 66.7393829,130.080399 C68.4004598,129.687374 69.5741521,130.742504 70.2613829,133.246708" id="path48" fill="#1A663C" fill-rule="nonzero"></path>
                        <path d="M75.4933827,152.063028 L81.8773826,149.693824 C81.6733826,151.221689 79.3970749,154.147945 77.5052288,155.737089 C78.3461519,153.722668 78.1776904,152.211851 75.4933827,152.063028" id="path50" fill="#F8EFB8" fill-rule="nonzero"></path>
                        <path d="M133.432612,92.708547 C129.868612,88.3193933 124.990612,89.2961942 122.472458,84.0790635 C120.214612,79.442945 121.467689,55.3818495 121.467689,55.3818495 C125.023843,65.3806973 121.389689,79.8894168 129.961843,83.9859909 C136.836458,87.2628817 140.40415,89.3883453 140.391689,97.9500978 C140.387996,100.459831 140.335843,106.9081 138.983073,109.027113 C138.983073,109.027113 137.344612,97.5271245 133.432612,92.708547" id="path52" fill="#1E6035"></path>
                    </g>
                </g>
            </g>
        </g>
    </g>
</svg>