<?xml version="1.0" encoding="UTF-8"?>
<svg width="200px" height="200px" viewBox="0 0 200 200" version="1.1" xmlns="http://www.w3.org/2000/svg" xmlns:xlink="http://www.w3.org/1999/xlink">
    <!-- Generator: Sketch 51.3 (57544) - http://www.bohemiancoding.com/sketch -->
    <title>montclair-st</title>
    <desc>Created with Sketch.</desc>
    <defs></defs>
    <g id="montclair-st" stroke="none" stroke-width="1" fill="none" fill-rule="evenodd">
        <g id="montclair-st_BGL">
            <g id="montclair-st" transform="translate(22.000000, 0.000000)">
                <g id="g10" transform="translate(78.260868, 100.000004) scale(-1, 1) rotate(-180.000000) translate(-78.260868, -100.000004) translate(0.000000, 0.000007)" fill-rule="nonzero">
                    <g id="g12" transform="translate(0.000000, 0.652174)">
                        <path d="M127.990577,109.428983 C130.320287,115.732606 133.508692,124.36449 147.271011,145.888402 C154.621011,157.38188 156.121011,166.458691 156.121011,171.958691 C156.121011,175.560865 155.477532,177.628256 155.410866,177.833329 L154.787677,179.73043 L152.834779,179.319561 C152.632605,179.277532 148.749996,178.385503 147.05362,173.073909 C146.707967,173.028981 146.31304,172.976807 146.31304,172.976807 C146.105069,172.949271 141.479707,172.260865 140.269562,165.847097 C139.88333,166.528257 139.494199,167.213039 139.494199,167.213039 L137.426084,165.092749 C134.706518,162.307242 134.702171,160.068837 134.697823,158.09275 C134.693475,155.910866 134.689127,153.437677 130.334055,148.094924 L128.020287,145.337678 C124.528982,141.239127 121.511591,137.700721 118.346374,129.797823 C115.104345,121.701446 114.389128,121.089127 107.547823,115.23333 L102.62391,110.973186 C92.3898528,101.980432 87.0188384,95.081157 84.4442008,91.2210122 C78.1050705,101.862316 72.6492735,108.383331 68.5673896,113.254345 C64.1389114,118.537678 61.2152159,122.028258 59.8816652,127.265939 C58.8043464,131.496374 58.3797811,134.590576 58.0389841,137.076808 C57.3485493,142.099272 56.8939841,145.416663 52.3774625,151.343474 C47.9548539,157.143474 46.8594191,161.97101 46.8594191,165.331155 C46.8594191,168.4913 47.8289118,170.353619 47.9107234,170.507242 L51.8042016,177.693474 L44.8157235,173.495648 C40.9913033,171.1913 38.6435498,167.307242 38.0284773,162.262315 C38.0123179,162.13188 38.0063759,161.995648 37.9942019,161.863764 C29.629492,178.705793 28.900579,194.923184 28.8934775,195.112314 L28.7318833,199.344923 L25.336811,196.814488 C21.9797096,194.313763 19.855072,190.834778 18.9934053,186.575358 C18.9776082,186.707242 18.9158691,187.194198 18.9158691,187.194198 L15.63913,183.215213 C12.6086953,179.53043 11.5477533,174.98043 11.5477533,170.435503 C11.5477533,162.428257 14.8412315,154.457967 16.4716663,151.279706 C16.3099996,150.755069 16.1662315,150.223185 16.0410866,149.679706 C11.7852896,158.503619 9.51934759,165.434778 9.49108672,165.521735 L8.05565197,169.963039 L5.50724624,166.054344 C4.05938396,163.834054 3.33474629,161.089126 3.33474629,157.838402 C3.33474629,153.512315 4.61531873,148.289851 7.17249982,142.212315 C7.36666648,141.754344 7.56224619,141.30362 7.76014473,140.858692 C6.68761577,142.247098 5.66010131,143.759417 4.75798539,145.381156 L2.76013037,148.981156 L0.840695631,145.337678 C0.647078969,144.965938 0,143.55362 0,141.114489 C0,137.176084 1.70799271,130.550721 9.69913019,121.332606 C9.56014469,120.284055 9.06956499,116.595649 9.06956499,116.595649 C9.06224615,116.536954 9.03108673,116.280432 9.03108673,115.858693 C9.03108673,114.309417 9.45710121,110.519562 12.8832605,106.059418 C12.0159417,106.621012 11.0804345,107.227534 11.0804345,107.227534 L12.1744924,101.992751 C12.2876809,101.452896 13.2939852,97.5949251 18.933985,93.7028962 C18.2209416,93.0942006 17.7267387,92.301447 17.5087677,91.3579687 C17.4196372,90.9710122 17.3774633,90.5942006 17.3774633,90.2260847 C17.3774633,89.0398528 17.8173184,87.9666645 18.4708691,87.029708 C18.4542024,87.0159399 18.4335503,87.0094181 18.416014,86.9963746 C17.4521735,86.2594181 16.9013039,85.1492732 16.8644923,83.8688385 C16.8639851,83.8282588 16.8639851,83.7884037 16.8639851,83.7492733 C16.8639851,82.5615921 17.4094199,81.6333313 18.2274633,80.9130415 C17.8623184,80.2724618 17.6318836,79.5289835 17.6318836,78.6637661 C17.6318836,78.6231864 17.6333329,78.5826067 17.6333329,78.5427517 C17.6763764,76.7195633 18.8006517,75.4543459 20.3688401,74.6630416 C20.2188401,74.2253605 20.1202894,73.7615924 20.1202894,73.262317 C20.1202894,72.9434764 20.1545647,72.6144909 20.2261589,72.2747083 C20.5078256,70.9369547 21.3202169,69.8573171 22.5130429,69.2312302 C22.6746371,69.1463026 22.8544197,69.1151432 23.0234052,69.0492012 C23.0044197,68.8818823 22.9607965,68.7128968 22.9607965,68.5450708 C22.9607965,67.6868099 23.2065212,66.8319549 23.6919559,66.0223897 C24.2949269,65.0195636 25.1658689,64.3435491 26.1789849,63.9535491 C26.1775356,63.9152883 26.1644921,63.8776796 26.1644921,63.8383317 C26.1644921,63.0522448 26.3870283,62.2710129 26.8249269,61.531955 C27.503695,60.386955 28.5790573,59.7064478 29.8657964,59.489926 C30.066521,58.6622449 30.5420282,57.6755058 31.6267383,56.6949986 C32.5209412,55.8876798 33.4745644,55.5063754 34.3863035,55.3776073 C34.5847817,54.6897812 34.952173,54.0245639 35.5847817,53.4476798 C36.3391295,52.7586943 37.2622454,52.4108683 38.2628251,52.3972451 C38.5218831,51.8715929 38.8968831,51.3660857 39.4305063,50.9108683 C40.2442744,50.2165205 41.1797816,49.8689118 42.1405062,49.8723176 C42.4549989,49.3552162 42.8855062,48.8847089 43.5051438,48.5340568 C44.3288395,48.0681147 45.166738,48.0160133 45.9621003,48.1768104 C46.366593,47.7397814 46.9188394,47.314564 47.7057959,46.9768829 C48.9297089,46.4521003 50.1115205,46.58768 51.1138393,47.0340568 C51.4730422,46.7926075 51.8962306,46.581738 52.3666654,46.4152887 C50.9847813,45.1514481 49.2679698,43.8312308 47.34768,42.368912 C40.9802164,37.5158686 32.2579702,30.8681152 26.3558689,18.4383329 C25.3818834,16.3875358 24.8941298,14.5479707 24.8941298,12.9362316 C24.8941298,11.7102896 25.1768834,10.6168113 25.7407965,9.65949251 C26.585724,8.22463748 27.8419558,7.47398532 28.9034051,7.07257953 C29.3478254,4.87318828 30.8992746,1.82320285 35.4181151,0.555084044 C41.2505787,-1.07959418 45.3181873,1.83339126 47.0094191,3.41740571 C51.0006509,3.20086224 53.5028972,5.41525349 54.7738392,7.53992735 C57.184129,7.14928968 59.2731145,7.47398532 60.9983318,8.519565 C63.4369549,9.99999975 65.0231868,12.7578982 65.8499984,16.955072 C66.0739114,18.0978256 66.3142737,19.0542749 66.5548534,19.9275357 C67.7338389,17.9463764 69.1123171,16.9783329 69.2162302,16.9081155 L73.6934764,13.8479707 C73.6934764,13.8479707 73.488404,14.9079706 73.3057953,15.8457967 C74.1637663,14.9878257 74.8557952,14.4918837 74.9434764,14.4318837 L78.5507227,11.9268113 C78.1065198,13.9093475 77.7884039,16.497101 77.7884039,18.9484053 C77.7884039,19.2405792 77.8289836,19.5131155 77.8869546,19.7701444 C79.7565197,18.6059416 81.5942009,18.1818836 83.3673892,18.5999995 C84.1289834,18.7788401 84.7985486,19.0927531 85.3869544,19.4797097 L92.5246354,19.4797097 C92.8739107,19.1355068 93.2463745,18.8536227 93.6152151,18.6254343 C94.3659397,18.1615213 95.2855049,17.8586227 96.2166643,17.6746372 C96.1659396,17.4465213 96.099273,17.2226083 96.0753599,16.9905068 C96.0528961,16.7725358 96.0413019,16.5579706 96.0413019,16.347101 C96.0413019,12.6361591 99.4449251,10.1639128 99.8528961,9.88057946 L103.272461,7.51159402 C103.026084,9.36594179 102.898548,11.5876809 102.898548,13.686304 C102.898548,13.6984779 102.902896,13.7015939 102.902896,13.7128982 C105.102171,13.6636953 106.578258,14.5768112 107.62536,15.2332605 C108.965939,16.0747822 109.577533,16.4571735 111.996374,15.0914489 C114.581881,13.6319562 116.210867,11.8087678 117.063041,10.6628983 C116.652896,9.92666642 116.342751,9.04492731 116.342751,8.07094183 C116.342751,7.44478242 116.468838,6.78413751 116.77391,6.10931869 C116.802896,6.04336217 116.821012,5.99496362 116.842026,5.94118101 C116.829707,5.94061579 116.80362,5.93693463 116.798548,5.93693463 L111.552896,6.15942014 L115.036229,2.23335502 C116.740577,0.31391521 120.83478,-1.24490577 125.136229,2.32676806 C125.597098,2.71088399 125.981156,3.11509413 126.323185,3.52977527 C126.923185,3.49722455 127.902895,3.44571006 127.902895,3.44571006 C130.058692,3.33560137 132.079707,4.06674628 133.591301,5.50356508 C135.265214,7.09494185 136.188402,9.38123165 136.188402,11.9412316 C136.188402,16.2180431 131.62246,18.4383329 128.602171,19.9065937 C127.889852,20.2521734 127.219562,20.5774633 126.739127,20.8616661 L125.115939,21.884927 C124.263765,22.4484777 123.581881,22.8813038 122.472461,23.3992748 C123.771736,25.4129704 125.291301,27.7674631 125.291301,27.7674631 C126.532606,29.6934775 127.151446,31.759492 127.151446,33.7268108 C127.151446,35.7849266 126.473185,37.7346367 125.121736,39.3028251 C122.8442,41.9443468 119.276809,42.8260859 115.778983,41.7037671 C111.299997,44.1913032 107.513765,41.9992743 105.184055,40.6349265 C105.0442,40.5513758 104.881157,40.45797 104.720287,40.3645642 C104.540577,41.0014483 104.334055,41.5644917 104.121737,42.0224627 C105.942751,44.3797815 106.50507,47.0405785 106.957968,49.2549988 C107.56449,52.2407233 107.945649,53.707245 109.936954,54.4369552 C110.721012,54.7245638 111.154345,54.6057233 111.442751,54.470361 C113.118838,53.6840566 114.444925,49.9739843 115.156519,47.9817379 C117.055794,42.6573902 119.642751,42.481883 120.666664,42.6542743 L120.849272,42.684854 L121.023185,42.744854 C121.802896,43.0123178 122.445649,43.4601438 122.943475,44.0435496 C123.576084,44.1476801 124.565214,44.3138395 124.565214,44.3138395 C132.636953,45.6623902 134.338402,50.609419 134.634055,53.4377523 C134.635504,53.4544914 134.665214,53.8660856 134.665214,54.4848537 C134.665214,55.3753609 134.601446,56.6949986 134.308692,57.8739116 C134.917388,58.8428246 135.368837,60.1384043 135.368837,61.8715927 C135.368837,63.302752 135.064489,65.0283317 134.29275,67.1028969 C131.60362,74.3355054 124.015214,83.3275341 118.62391,83.647824 C117.661591,83.7050704 116.857968,83.5079689 116.209417,83.1673892 C115.35362,83.6231863 114.604345,83.9210124 114.416664,83.9927515 C113.789128,84.2927515 113.11449,84.5499979 112.442026,84.7673892 C114.752896,87.3282587 118.216664,91.4159397 121.45362,96.2326063 C125.14275,101.726084 126.399997,105.12536 127.990577,109.428983" id="path14" fill="#FFFFFF"></path>
                        <path d="M88.1202877,23.1465212 L88.1202877,23.4123183 L89.4913021,23.4123183 L89.4913021,23.1465212 L88.9666644,23.1465212 L88.9666644,21.8028255 L88.6463746,21.8028255 L88.6463746,23.1465212 L88.1202877,23.1465212 Z M90.227534,23.4123183 L90.6362296,22.2607965 L91.0456499,23.4123183 L91.509418,23.4123183 L91.509418,21.8028255 L91.2137658,21.8028255 L91.2137658,23.1021009 L90.7724615,21.8028255 L90.5086934,21.8028255 L90.0601427,23.1021009 L90.0601427,21.8028255 L89.7630412,21.8028255 L89.7630412,23.4123183 L90.227534,23.4123183 Z" id="path16" fill="#4C5055"></path>
                        <path d="M119.605069,97.4753599 C128.61449,110.886229 122.505069,111.289128 145.394924,147.089127 C157.137677,165.453619 153.292025,177.140575 153.292025,177.140575 C153.292025,177.140575 148.847098,176.205793 148.514489,168.392025 C148.293475,163.147822 145.931156,159.447097 145.931156,159.447097 C147.748547,165.95072 146.60362,170.768836 146.60362,170.768836 C146.60362,170.768836 142.926083,170.286228 142.297823,164.363039 C141.873185,160.346373 140.38333,156.434779 140.38333,156.434779 C140.916663,160.199271 139.020286,163.537677 139.020286,163.537677 C134.165939,158.565938 140.578257,157.140576 132.060866,146.688402 C127.588403,141.198547 124.115214,138.212315 120.41449,128.970287 C116.289128,118.668113 115.697099,119.497823 104.0942,109.300722 C88.4666645,95.5681136 84.4188385,86.8391283 84.4188385,86.8391283 C70.3308678,111.700722 60.6465202,115.23478 57.7239116,126.717388 C54.5286943,139.266663 56.9743464,141.635504 50.6057234,149.993475 C40.9165207,162.704344 45.9649264,171.588402 45.9649264,171.588402 C36.7317382,166.024634 41.1404338,151.996373 41.1404338,151.996373 C27.5047819,172.240575 26.6672457,195.029705 26.6672457,195.029705 C14.1179707,185.677532 25.4953617,164.485503 25.4953617,164.485503 C24.7845646,159.393474 26.0801443,154.056518 26.0801443,154.056518 C18.7392749,170.868112 17.3598546,181.799995 17.3598546,181.799995 C8.52442008,171.056517 18.8547097,151.462315 18.8547097,151.462315 C16.960217,146.134054 17.8363039,141.37391 17.8363039,141.37391 C10.9686229,153.686953 7.37231866,164.837677 7.37231866,164.837677 C0.268625356,153.945648 16.4090576,129.484055 16.4090576,129.484055 C16.4090576,129.484055 7.84391285,135.24275 2.81221732,144.300721 C2.81221732,144.300721 -1.99728256,135.163765 16.7465213,117.163765 C21.2222458,112.866664 21.7982603,109.350722 21.7982603,109.350722 C21.7982603,109.350722 16.1302895,109.789128 11.2771736,116.300722 C11.2771736,116.300722 10.1998548,108.246374 22.7496371,100.31449 C22.7496371,100.31449 18.736159,99.6065192 14.3554344,102.448548 C14.3554344,102.448548 15.543188,96.7688382 26.0801443,92.3869542 C26.0801443,92.3869542 20.3889125,93.9347803 19.6786952,90.8565195 C18.9693474,87.7789833 23.7004342,85.5702877 23.7004342,85.5702877 C23.7004342,85.5702877 19.1745647,86.6572442 19.0897097,83.8014472 C19.0316662,81.7891284 23.0663762,81.289853 23.0663762,81.289853 C23.0663762,81.289853 19.8004343,81.1782588 19.8598546,78.592027 C19.9196372,76.0086938 24.6532603,75.8999981 24.6532603,75.8999981 C24.6532603,75.8999981 21.9330429,74.9818822 22.4043473,72.7326069 C22.8801444,70.4834765 25.7475356,70.6711577 26.8724631,71.1435489 C26.8724631,71.1435489 24.1816661,69.5355055 25.6012312,67.169636 C27.0221732,64.7998535 29.9833326,66.2211578 29.9833326,66.2211578 C29.9833326,66.2211578 27.4983326,64.758839 28.7389848,62.6695637 C29.8644195,60.7747086 32.5280427,62.0187666 32.5280427,62.0187666 C32.5280427,62.0187666 30.9049268,60.3498536 33.119347,58.3492014 C34.9558687,56.6921725 36.9208686,58.0978246 36.9208686,58.0978246 C36.9208686,58.0978246 35.7237672,56.3355058 37.0867382,55.0928247 C38.4468106,53.8493465 40.5063758,55.4492015 40.5063758,55.4492015 C40.5063758,55.4492015 39.275941,53.9682595 40.8743468,52.6058683 C42.4722453,51.2443465 43.9934047,53.0718103 43.9934047,53.0718103 C43.9934047,53.0718103 43.2405062,51.2421002 44.6020279,50.4724625 C45.9635496,49.7036219 47.3222452,51.6448538 47.3222452,51.6448538 C47.3222452,51.6448538 46.399709,49.9609408 48.5832597,49.0239843 C50.1686944,48.3440568 51.2871002,49.9015205 51.2871002,49.9015205 C51.2871002,49.9015205 53.7817378,46.1254336 57.6896362,50.256448 C55.5947088,41.9369555 38.0997817,37.984057 28.3670283,17.4818836 C24.4607965,9.25442006 30.9938398,8.84057949 30.9938398,8.84057949 C30.9938398,8.84057949 30.5157239,4.24422453 36.0192745,2.70012312 C42.3287671,0.930420267 46.1418829,5.72322449 46.1418829,5.72322449 C51.9446364,4.71807235 53.5057233,10.1086954 53.5057233,10.1086954 C58.5373898,8.62913022 62.243839,10.1639128 63.6650709,17.3856517 C65.0815201,24.5912313 67.0881143,26.7284051 67.0969548,26.7382602 C66.9199983,21.1738401 70.472462,18.7457242 70.472462,18.7457242 C69.6433316,23.0086951 72.0533315,26.4376805 72.0533315,26.4376805 C70.338549,20.3405067 76.2144908,16.2615938 76.2144908,16.2615938 C74.3195634,19.9897821 77.1413024,23.1355067 77.1413024,23.1355067 C83.9036211,16.7107967 86.7978239,24.8528255 86.7978239,24.8528255 C89.9340557,27.1614486 93.0847803,27.0949269 93.0847803,27.0949269 C91.1898528,18.4527532 99.1623164,19.7789125 99.1623164,19.7789125 C96.7362295,21.3181879 97.1768092,23.8363038 97.1768092,23.8363038 C101.557968,23.7180429 101.01594,26.9755066 101.01594,26.9755066 C104.332606,25.1984052 105.918838,23.4760139 105.918838,23.4760139 C92.1847803,17.7346372 101.13478,11.7020287 101.13478,11.7020287 C99.8927511,14.3668112 101.541302,16.1325358 101.541302,16.1325358 C106.936229,14.7811591 106.698548,20.6414488 113.091302,17.0298546 C117.852896,14.3404344 119.771736,10.5834055 119.771736,10.5834055 C119.771736,10.5834055 117.946374,8.92043456 118.804345,7.02813751 C120.375359,3.55440571 116.70362,3.71093469 116.70362,3.71093469 C116.70362,3.71093469 119.508693,0.548573175 123.712316,4.0407028 C127.915939,7.53340561 124.8442,12.6449272 124.8442,12.6449272 C126.028982,12.6449272 127.065214,12.0108693 127.065214,12.0108693 C127.065214,12.0108693 126.826084,9.8081157 128.317388,8.94644905 C130.696374,7.57333314 128.015939,5.67028971 128.015939,5.67028971 C131.509417,5.49139841 133.960142,8.26963747 133.960142,11.9406519 C133.960142,15.6102895 128.211591,17.4051445 125.607243,18.9442024 C123.002895,20.4834777 123.096374,20.8789125 118.993475,22.4247096 C110.688403,25.553695 107.053621,31.3564485 107.053621,31.3564485 C109.599997,32.9528977 111.687678,33.0955789 111.687678,33.0955789 C111.687678,33.0955789 111.849273,31.178405 113.860142,30.0486949 C116.994925,28.2892022 114.276084,26.3824631 114.276084,26.3824631 C116.736229,26.6536225 117.3942,28.3407239 117.3942,28.3407239 C121.005794,27.806521 118.821012,24.8528255 118.821012,24.8528255 C124.33478,26.5398544 121.358693,32.3021731 121.358693,32.3021731 C123.607243,33.1912311 123.418837,28.9747819 123.418837,28.9747819 C127.776808,35.7353614 121.986953,42.1464482 115.552896,39.2382599 C109.897823,43.2623178 105.981157,37.2950715 102.956519,37.3593469 C102.819563,40.6355062 101.383331,42.2913758 101.383331,42.2913758 C106.41449,46.9681148 103.147824,54.3223175 109.169562,56.5282595 C113.705794,58.1898536 115.77391,52.8730422 117.254345,48.7304336 C118.73333,44.5870279 120.299997,44.8499989 120.299997,44.8499989 C122.193475,45.5015931 121.928982,47.8036945 121.839852,48.4049263 C121.260867,52.3694914 121.675359,55.4492015 121.675359,55.4492015 L122.150722,55.4492015 C122.387678,51.3643465 126.113765,51.0102161 126.113765,51.0102161 C125.79275,48.7188394 124.873185,47.2863032 124.199272,46.5101438 C135.757968,48.4428973 131.821736,58.3036217 131.821736,58.3036217 C137.246373,63.5767375 124.518837,81.0673893 118.492751,81.4246356 C116.765939,81.5275342 116.526809,80.323911 116.526809,80.323911 C115.452896,81.2173893 113.589852,81.9246356 113.589852,81.9246356 C111.458693,82.9905776 108.199273,83.5101428 108.199273,83.5101428 C108.199273,83.5101428 114.276084,89.5442007 119.605069,97.4753599" id="path18" fill="#4C5055"></path>
                        <path d="M130.910142,8.21021719 C132.335504,9.4007244 132.671011,10.5723186 132.671011,11.820362 C132.671011,13.0689852 131.680431,14.0101446 129.62391,14.9768112 C125.149997,17.0805068 124.102171,18.5094198 120.669562,20.345072 C118.33478,21.5933328 114.394925,22.1795647 111.316664,24.5782603 C108.902171,26.456666 107.328258,28.0731877 106.312316,29.3073181 C105.581881,29.1675355 105.082606,28.8842022 104.739852,28.5391297 C106.022461,27.1419558 109.288403,23.9268835 114.454345,21.1144198 C114.454345,21.1144198 118.243475,21.4107966 124.161591,16.7934778 C124.161591,16.7934778 125.539127,15.3897822 127.373185,15.0334054 C127.373185,15.0334054 132.876084,12.5339852 130.64275,9.21818818 C130.960142,8.62826065 130.910142,8.21021719 130.910142,8.21021719" id="path20" fill="#FFFFFF"></path>
                        <path d="M74.6152155,87.8862297 C74.6152155,87.8862297 75.7840561,86.4442007 78.8753603,84.8420269 C75.3608677,89.8239108 65.2765201,106.265939 60.946013,112.512316 C75.944201,98.3949251 79.5188386,80.4347806 89.7826065,80.5572444 C89.7826065,80.5572444 80.4166647,77.2318821 74.6152155,87.8862297 M63.1903607,72.8507228 C63.1903607,72.8507228 58.5363029,73.1173895 58.1193464,78.0304328 C58.1193464,78.0304328 54.0789117,80.6927516 55.0228972,85.8739109 C55.0228972,85.8739109 56.1452885,85.1311573 57.6259406,85.3094182 C57.6259406,85.3094182 55.6923899,86.3282587 54.7851436,90.3731861 C54.7851436,90.3731861 55.614274,90.2543456 56.6788392,90.4311572 C56.6788392,90.4311572 52.9512306,92.5630412 53.8977523,96.1746353 C53.8977523,96.1746353 51.4113755,97.7717367 52.2998538,100.732606 C52.2998538,100.732606 49.3390567,102.448548 50.4047813,106.237679 C50.4047813,106.237679 47.1481872,108.011592 48.5099988,111.801446 C48.5099988,111.801446 46.9123901,112.570287 46.4982597,114.761591 C46.4982597,114.761591 43.1824627,115.826809 43.6563033,119.497098 C43.6563033,119.497098 39.7389845,121.862316 41.57297,126.716663 C41.57297,126.716663 37.4360136,131.368113 42.1121729,137.287678 C42.1121729,137.287678 40.7308685,143.438402 46.4730423,144.207967 C46.4730423,144.207967 47.146738,146.296373 46.3723177,149.219561 C47.6817379,147.335504 49.2187669,144.626808 49.4890567,140.510866 C49.7797814,136.088402 50.4047813,133.407243 52.2404335,129.618837 C52.2404335,129.618837 47.0309409,133.466663 46.1418829,141.991301 C46.1418829,141.991301 40.0925352,137.839127 50.5106509,125.763765 C50.5106509,125.763765 44.7962308,128.135504 42.9019554,134.410866 C42.9019554,134.410866 38.2436222,127.626808 51.030361,122.476084 C51.030361,122.476084 48.1331872,121.536953 43.1612308,125.207968 C43.1612308,125.207968 43.0097815,119.067388 52.0677523,119.36304 C52.0677523,119.36304 50.9366654,117.542751 45.6677525,118.846374 C45.6677525,118.846374 46.2607235,115.057244 53.7194189,115.411591 C53.7194189,115.411591 52.8317378,113.577533 49.3390567,114.109417 C49.3390567,114.109417 49.5765205,111.56449 56.206158,111.090577 C56.206158,111.090577 53.0689842,108.960142 50.2858683,110.380432 C50.2858683,110.380432 50.4628248,106.059418 59.9354333,106.473186 C59.9354333,106.473186 56.6194189,103.632606 52.6534045,104.93478 C52.6534045,104.93478 54.0744189,99.1934758 63.6059404,101.086954 C63.6059404,101.086954 61.296955,98.4826062 54.4305059,99.0739106 C54.4305059,99.0739106 55.3767377,94.3985484 66.5653607,96.9434758 C66.5653607,96.9434758 62.243839,93.1557948 56.206158,94.3985484 C56.206158,94.3985484 58.1592739,88.5362297 69.9983316,91.9115919 C69.9983316,91.9115919 67.3347085,88.3608674 58.2186942,88.7739108 C58.2186942,88.7739108 61.1781144,82.6188385 72.5449257,87.4137659 C72.5449257,87.4137659 67.5721722,82.5594182 59.1657956,82.9731863 C59.1657956,82.9731863 60.0540565,74.9818822 75.9768097,82.913766 C75.9768097,82.913766 71.6556504,76.9949256 62.1844187,76.8768097 C62.1844187,76.8768097 67.9268824,69.9507229 79.4695632,79.3623169 C79.4695632,79.3623169 77.8123169,73.2065199 67.453549,72.3179692 C67.453549,72.3179692 74.8514474,66.6890563 83.6775341,76.0615923 C80.5905777,65.7195636 68.4114476,66.8370998 63.1903607,72.8507228 M62.9882593,59.7616652 C62.9882593,59.7616652 59.0472449,58.4675348 54.7851436,62.1362303 C54.7851436,62.1362303 51.2324625,62.1362303 50.2858683,65.3928969 C50.2858683,65.3928969 46.8521003,65.6892737 45.2555786,69.7732591 C45.2555786,69.7732591 42.4722453,71.3117373 41.9989845,74.3311576 C41.9989845,74.3311576 38.5373903,76.6884039 40.0461584,80.6057951 C40.0461584,80.6057951 36.9678252,82.8550704 38.0338396,86.2289834 C38.0338396,86.2289834 35.9021006,89.2478239 38.092173,91.67536 C38.092173,91.67536 36.375144,94.1028962 38.0338396,95.9963744 C38.0338396,95.9963744 36.5523179,98.0681135 38.5063034,99.6659395 C38.5063034,99.6659395 36.8489846,101.561592 37.7374628,103.454345 C37.7374628,103.454345 35.3105064,104.697823 35.9615933,107.124635 C35.9615933,107.124635 32.587463,109.078258 32.7049267,112.749997 C32.7049267,112.749997 30.0410137,113.873186 30.3976804,118.076084 C30.3976804,118.076084 27.4971732,119.792751 27.9707239,123.640577 C27.9707239,123.640577 25.7201443,128.080432 29.3308688,130.388403 C29.3308688,130.388403 27.7751442,134.259417 30.7518108,137.195649 C30.7518108,137.195649 29.9238398,140.334054 32.8238398,142.760866 C32.8238398,142.760866 31.7578253,150.100721 36.6706513,152.88188 C36.6706513,152.88188 36.7894918,147.79275 40.3063033,140.463765 C40.3063033,140.463765 38.1513034,142.049996 36.3165208,146.726808 C36.3165208,146.726808 32.3497093,142.404344 38.3293469,136.071011 C38.3293469,136.071011 35.7252165,136.663765 33.7706513,139.091301 C33.7706513,139.091301 30.6923905,134.710142 37.4419556,131.217388 C37.4419556,131.217388 34.3622455,130.565939 31.4028253,133.111591 C31.4028253,133.111591 30.9286949,128.139127 36.9678252,125.830432 C36.9678252,125.830432 33.6537673,124.528258 30.8112311,127.01449 C30.8112311,127.01449 31.2259412,122.159417 37.6780425,121.747098 C37.6780425,121.747098 34.2759412,119.831156 30.487463,121.251446 C30.487463,121.251446 31.9355789,116.656519 39.4536947,116.832606 C39.4536947,116.832606 36.8489846,114.879707 32.6468832,116.00362 C32.6468832,116.00362 34.0678977,111.269562 41.5251439,112.333331 C41.5251439,112.333331 40.8095642,110.051447 35.2439846,111.058693 C35.2439846,111.058693 36.7315208,106.651447 45.017825,108.191302 C45.017825,108.191302 43.5982598,105.559418 38.5076802,105.79565 C38.5076802,105.79565 39.8678251,102.766664 45.6677525,102.588403 C45.6677525,102.588403 44.1547815,101.066664 40.3063033,101.896374 C40.3063033,101.896374 41.5845642,98.0681135 47.1481872,97.1210121 C47.1481872,97.1210121 44.7223177,95.5826063 40.9341294,97.4768092 C40.9341294,97.4768092 41.8223178,93.0369542 48.6288394,92.9775339 C48.6288394,92.9775339 44.7223177,90.9057948 40.283912,92.7398528 C40.283912,92.7398528 42.2353613,88.3014471 49.2810133,88.6565195 C49.2810133,88.6565195 46.2027525,86.4586935 40.6374628,88.7673891 C40.6374628,88.7673891 41.7447816,83.6050704 50.6839118,84.2565196 C50.6839118,84.2565196 46.9718104,81.907969 41.5845642,83.7427515 C41.5845642,83.7427515 43.9529699,78.2376792 52.0621001,79.9536212 C52.0621001,79.9536212 47.8005785,77.8231865 43.8932598,78.592027 C43.8932598,78.592027 46.3468104,74.5536213 53.7788392,76.3434764 C53.7788392,76.3434764 51.055506,73.9159402 45.4928249,74.1536213 C45.4928249,74.1536213 48.6334046,69.0239838 56.9802884,72.9905779 C56.9802884,72.9905779 55.3334769,70.1573896 48.5847089,69.6246359 C48.5847089,69.6246359 54.0149262,65.629781 61.1781144,69.7732591 C61.1781144,69.7732591 60.1120999,66.8724621 53.3047088,65.5709404 C53.3047088,65.5709404 58.9892014,61.7810129 65.4990563,67.818694 C65.4990563,67.818694 65.5839839,64.2354332 58.6585493,62.1036941 C58.6585493,62.1036941 64.3512303,58.7443464 71.1240562,66.516665 C71.1240562,66.516665 70.4129693,63.7341288 67.0389114,60.7152883 C67.0389114,60.7152883 71.9528243,60.4789115 75.0297083,64.2679694 C75.0297083,64.2679694 72.1636938,56.0926073 62.9882593,59.7616652 M74.3449257,46.0088394 C74.3449257,46.0088394 72.2910851,41.1818106 75.9623169,35.0246368 C75.9623169,35.0246368 76.6615923,37.1399266 78.5550705,38.9752889 C78.5550705,38.9752889 76.0347807,32.4781876 83.4934762,26.6173906 C83.4934762,26.6173906 80.0413023,24.9028979 77.1413024,29.1652167 C77.1413024,29.1652167 75.7884039,28.2399268 75.1376793,26.582608 C75.1376793,26.582608 74.6297083,30.485434 76.1086937,33.0899267 C76.1086937,33.0899267 72.8630417,32.3638398 70.5542011,29.7602166 C70.5542011,29.7602166 70.4129693,32.2421006 72.129491,34.7305064 C72.129491,34.7305064 65.1457955,43.5492743 70.7084765,53.2580421 C70.7084765,53.2580421 68.9917374,47.1005785 71.3003605,42.5441294 C71.3003605,42.5441294 71.9171721,44.4100714 74.3449257,46.0088394 M19.8975357,123.526809 C22.4453618,122.021736 26.6273182,119.969562 26.6273182,119.969562 L22.9194922,120.52391 C24.8128979,115.944925 32.0397093,108.280432 32.0397093,108.280432 C22.7310139,114.855794 19.8975357,123.526809 19.8975357,123.526809 M19.7757966,132.920287 C21.9078255,131.26304 23.8634777,130.677533 23.8634777,130.677533 C21.1005792,139.991301 24.4859414,149.128982 24.4859414,149.128982 C25.9856515,145.575359 29.5063761,141.394199 29.5063761,141.394199 C26.7801443,141.981156 25.2858689,143.252895 25.2858689,143.252895 C23.4714487,134.886953 26.7068834,127.784779 26.7068834,127.784779 C24.4975356,128.415939 23.4346371,129.2442 23.4346371,129.2442 C24.2750719,125.447098 25.6323907,121.809417 25.6323907,121.809417 C22.0816661,126.624635 19.7757966,132.920287 19.7757966,132.920287 M31.6788398,161.328981 C31.8557238,156.160141 34.2844194,153.671735 34.2844194,153.671735 C32.2322456,154.618837 31.3629702,155.959416 31.3629702,155.959416 C29.8644195,152.960866 29.7851442,149.013764 29.7851442,149.013764 C28.4434775,157.381155 31.6788398,161.328981 31.6788398,161.328981 M88.4282587,77.744201 C88.4282587,77.744201 110.186229,82.1007226 120.86449,72.3225344 C120.86449,72.3225344 120.855794,75.378259 119.51449,76.9565198 C119.51449,76.9565198 122.765214,75.9217372 124.576808,70.2442736 L125.287678,72.6942011 C125.287678,72.6942011 126.049272,68.9798533 128.180432,66.0594911 C130.19275,63.3013752 131.030432,62.3044187 130.652895,59.6102159 C130.652895,59.6102159 130.654345,59.6093463 130.654345,59.6088391 C131.000721,60.0107231 131.410142,60.653042 131.62246,61.6029695 C133.023185,67.8673896 120.911591,80.2760849 118.305794,79.36594 C117.418113,79.0550705 117.268113,77.8565198 117.268113,77.8565198 C108.357244,84.1572443 97.2289831,81.0789835 92.9659397,81.7681139 C84.4442008,83.1442008 83.5963747,84.6891283 80.2101429,90.5065195 C73.620288,101.82536 64.5518824,110.794925 58.4267377,120.193475 C55.8780421,124.102895 54.0044914,133.644924 53.4105784,139.091301 C52.819274,144.536953 51.2310132,145.54275 46.8223177,152.394924 C42.4102888,159.244199 42.8642743,165.227532 42.8642743,165.227532 C39.4882599,155.22246 45.0772452,146.075359 45.0772452,146.075359 C34.9558687,154.836953 32.0309412,165.213764 32.0309412,165.213764 C32.0309412,165.213764 26.6273182,159.59275 27.3381153,147.832605 C27.3381153,147.832605 25.2745646,150.918837 24.1692023,153.995648 C24.1692023,153.995648 19.3433328,144.273909 21.3411589,134.256518 C21.3411589,134.256518 19.1044198,135.59275 16.7615213,139.780431 C16.7615213,139.780431 17.0788402,131.573185 21.3411589,125.100722 C21.3411589,125.100722 18.8136952,126.126084 17.1577532,127.310142 C17.1577532,127.310142 17.8142025,113.960867 36.6773904,102.831881 C36.6773904,102.831881 27.473695,77.0478242 44.2855786,63.1578245 C44.2855786,63.1578245 44.7978974,58.4216652 49.6461582,57.7963754 C49.6461582,57.7963754 50.746448,53.7035494 55.0071001,55.2029696 C55.0071001,55.2029696 55.9686218,53.4029697 59.7076072,54.0718102 C62.2650709,45.0702163 45.6802162,37.094057 38.8912309,29.7868833 C33.9020281,24.4152168 30.3023181,18.47913 29.0576804,14.2167388 C28.5201442,12.3709417 29.1794196,11.4320287 30.0990572,10.9573186 C31.974347,15.5528257 36.6989121,24.4550719 46.4390568,29.1261587 C46.4390568,29.1261587 43.5178975,29.3631152 39.0200715,26.3629704 C39.0200715,26.3629704 49.5969553,36.9398541 60.9615927,41.5956511 C60.9615927,41.5956511 60.8823173,48.9362307 66.0917375,52.3295639 C66.0917375,52.3295639 58.9294913,40.3065207 69.0214475,31.361521 C68.1349258,27.0414486 69.0981867,24.2317385 69.0981867,24.2317385 C70.4005055,28.1977529 73.5130416,29.7789123 73.5130416,29.7789123 C72.6833315,26.227608 74.3775344,22.860869 74.3775344,22.860869 C75.3840561,24.9926081 77.0398531,25.6818834 77.0398531,25.6818834 C83.1384037,18.342101 85.7449254,26.2819559 85.7449254,26.2819559 L85.7507225,26.284782 C85.7492732,26.2839849 85.7463747,26.2839849 85.7449254,26.2825356 C85.7449254,26.2825356 85.7507225,26.2853617 85.7507225,26.2862312 C85.9775341,26.4470283 86.203621,26.5964486 86.4304326,26.7376805 C86.8913022,27.0999993 87.5144906,27.6964486 88.0717369,28.5957239 L88.0717369,28.5963036 C77.9579691,30.4622456 80.9130415,44.6702163 80.9130415,44.6702163 C77.7572444,43.7231148 76.510143,40.4123903 76.510143,40.4123903 C74.33623,47.0057959 79.1934763,50.3566654 79.1934763,50.3566654 C75.3144909,50.3535495 73.2398532,48.2246365 73.2398532,48.2246365 C75.9246358,59.116013 90.3181137,61.3312304 90.3181137,61.3312304 C81.7934762,65.4356505 73.1956503,56.1978971 73.1956503,56.1978971 C73.1956503,56.1978971 76.3514474,67.6412302 90.7949253,68.5892012 C90.7949253,68.5892012 88.0318819,71.0363026 82.3514472,69.2991287 C82.3514472,69.2991287 89.6413021,78.3268096 105.791302,71.1138388 C105.791302,71.1138388 100.503621,77.5862299 88.4282587,77.744201" id="path22" fill="#D01841"></path>
                        <path d="M78.5550705,38.9752889 C76.6615923,37.1405063 75.9623169,35.0255064 75.9623169,35.0255064 C72.2922446,41.1818106 74.344201,46.0088394 74.344201,46.0088394 C71.917462,44.4100714 71.3000707,42.5441294 71.3000707,42.5441294 C68.9920273,47.1014481 70.7087663,53.2580421 70.7087663,53.2580421 C65.1437665,43.5492743 72.1297808,34.7305064 72.1297808,34.7305064 C70.4132591,32.2435499 70.554491,29.7594195 70.554491,29.7594195 C72.8630417,32.3644195 76.1079691,33.0899267 76.1079691,33.0899267 C74.6289836,30.4863036 75.1376793,26.5839848 75.1376793,26.5839848 C75.7884039,28.2399268 77.1398531,29.1652167 77.1398531,29.1652167 C80.0413023,24.9028979 83.4934762,26.6179703 83.4934762,26.6179703 C76.0340561,32.4790572 78.5550705,38.9752889 78.5550705,38.9752889" id="path24" fill="#8E162A"></path>
                        <path d="M24.0446371,172.934054 C24.0446371,172.934054 19.891014,183.9413 25.2179704,191.104343 C25.2179704,191.104343 25.1245646,183.607966 31.1010862,167.507967 C31.1010862,167.507967 26.0388399,175.257967 24.4409414,182.184778 C24.4409414,182.184778 23.2710864,177.949996 24.0446371,172.934054" id="path26" fill="#D01841"></path>
                        <path d="M16.0128257,165.523184 C16.0128257,165.523184 14.6880431,171.860865 16.5236952,176.714488 C16.5236952,176.714488 18.0706517,167.534054 23.3976081,155.813764 C23.3976081,155.813764 19.3852169,160.223184 16.7818836,169.87101 C16.7818836,169.87101 15.8939126,168.573909 16.0128257,165.523184" id="path28" fill="#D01841"></path>
                        <path d="M27.2475356,90.3470992 L24.3489849,90.9166644 C24.3489849,90.9166644 23.7887675,68.9501432 39.7698541,59.810071 C27.9902892,69.7239838 27.049637,84.1659399 27.2475356,90.3470992" id="path30" fill="#8E162A"></path>
                        <path d="M54.4808682,53.2231871 C52.8235494,52.9007958 51.5851436,53.2710856 50.7939842,53.6868827 C49.5286944,54.355216 48.7834046,55.4240566 48.3707234,56.236158 C44.7149264,57.163187 43.1156511,60.1797086 42.6474627,62.2217376 C27.7895645,75.0666648 32.8606514,96.3710121 34.5589846,102.040577 C32.7105789,103.185505 31.0433326,104.350722 29.5346369,105.520287 C27.0677529,105.581881 20.9055067,106.138403 15.0265938,109.897823 C15.0265938,109.897823 19.3727531,103.623186 27.5800718,99.3615917 C27.5800718,99.3615917 23.6597096,97.5057947 19.0823184,98.6898526 C19.0823184,98.6898526 22.5981878,95.3507223 29.2286225,93.0623165 C29.2286225,93.0623165 26.4710863,73.3246358 40.9134048,61.1696362 C40.9134048,61.1696362 42.8484772,56.1650711 47.4272452,55.2173899 C47.4272452,55.2173899 50.324419,51.1427523 54.2532595,52.2520277 C54.2532595,52.2520277 56.0982595,51.0498538 58.1858681,52.1484045 C56.3932595,52.1391291 55.2157233,52.6732596 54.4808682,53.2231871" id="path32" fill="#8E162A"></path>
                        <path d="M152.010141,174.121735 C152.010141,174.121735 150.62246,172.614488 150.280431,168.120286 C149.449272,157.230431 141.856518,150.521735 141.856518,150.521735 C146.119562,162.123184 145.163764,167.649996 145.163764,167.649996 C145.163764,167.649996 144.844199,168.417387 143.346373,160.130431 C141.844924,151.843474 136.573185,145.780431 136.573185,145.780431 C139.49275,152.17246 138.507968,155.174634 138.507968,155.174634 C137.40217,150.753619 136.157243,148.789127 130.236953,141.764489 C124.318113,134.738402 121.627533,126.856519 119.339127,122.196374 C117.048548,117.536954 115.768113,117.334055 102.59565,105.565215 C89.4217369,93.7970991 86.4811573,85.887679 86.4811573,85.887679 C87.2623167,85.3673892 88.2021717,84.9869544 89.2507224,84.7079689 C91.2615919,88.5681137 98.778983,101.063766 116.601446,112.045649 C116.601446,112.045649 99.65507,98.4557946 92.9927513,84.121737 C93.9043455,84.0536211 94.8442005,84.021737 95.7963744,84.0123167 L95.7963744,84.0130414 C97.4992729,87.2470993 102.799273,96.6456498 109.720287,102.451447 C121.10362,111.998548 122.445649,124.310866 133.223185,138.081156 C133.223185,138.081156 125.256519,123.587678 122.652171,117.90362 C120.046374,112.221736 118.4442,109.907244 117.115214,108.317389 C115.822461,106.77391 105.744925,94.7775339 100.833331,84.1036211 C101.600722,84.1268095 102.349273,84.1499979 103.07391,84.1644906 C104.735505,86.2326065 109.53478,92.3260846 113.131157,98.1079686 C116.687678,103.821737 124.384055,115.075359 127.260142,119.257243 C129.931156,125.159417 134.236229,133.313765 143.428982,147.310141 C154.005069,163.410141 152.010141,174.121735 152.010141,174.121735" id="path34" fill="#D01841"></path>
                        <path d="M116.601446,112.045649 C98.778983,101.063041 91.2615919,88.5688384 89.2492731,84.7079689 C90.3898528,84.4050704 91.6579687,84.2224617 92.9927513,84.121737 C99.65507,98.4557946 116.601446,112.045649 116.601446,112.045649" id="path36" fill="#8E162A"></path>
                        <path d="M103.07391,84.1644906 C104.239128,84.1862298 105.334055,84.1862298 106.309418,84.1304327 C122.128258,99.9536207 123.757243,111.086954 126.155069,116.734055 C126.493475,117.531881 126.859417,118.369562 127.261591,119.257968 C124.385504,115.074635 116.687678,103.822461 113.131157,98.1079686 C109.533331,92.3260846 104.735505,86.2318819 103.07391,84.1644906" id="path38" fill="#8E162A"></path>
                        <path d="M61.3564477,15.618188 C62.0456506,17.4762314 62.4346361,19.711014 62.9129694,21.7943473 C63.5940564,24.7622458 65.1492013,27.1761587 66.5223172,28.8363036 C66.0679694,29.2447819 65.6434042,29.659492 65.245723,30.0812311 C63.7143462,28.251521 61.9534042,25.5542023 61.1823173,22.1911589 L60.8370275,20.6252893 C60.4520275,18.8340575 60.0571724,17.0065938 59.4426797,15.618188 L61.3564477,15.618188" id="path40" fill="#8E162A"></path>
                        <path d="M31.3646369,155.96159 C31.3646369,155.96159 32.2322456,154.618837 34.2841296,153.671735 C34.2841296,153.671735 31.8560137,156.160866 31.6794195,161.326808 C31.6794195,161.326808 28.4436949,157.38188 29.7848543,149.015214 C29.7848543,149.015214 29.8649993,152.960866 31.3646369,155.96159" id="path42" fill="#E06972"></path>
                        <path d="M23.4346371,129.2442 C23.4346371,129.2442 24.4975356,128.415214 26.7071732,127.784055 C26.7071732,127.784055 23.4714487,134.887678 25.2861588,143.25362 C25.2861588,143.25362 26.7804341,141.982605 29.5077529,141.394924 C29.5077529,141.394924 25.9856515,145.576083 24.4862313,149.128257 C24.4862313,149.128257 21.1005792,139.991301 23.8634777,130.678258 C23.8634777,130.678258 21.9078255,131.26304 19.7760865,132.920287 C19.7760865,132.920287 22.0816661,126.624635 25.6326081,121.810142 C25.6326081,121.810142 24.2753617,125.447098 23.4346371,129.2442" id="path44" fill="#E06972"></path>
                        <path d="M26.627608,119.970287 C26.627608,119.970287 22.4459415,122.022461 19.8978256,123.526084 C19.8978256,123.526084 22.7312313,114.855794 32.0399992,108.279707 C32.0399992,108.279707 24.8131878,115.944925 22.9194922,120.52391 L26.627608,119.970287" id="path46" fill="#E06972"></path>
                        <path d="M43.4301438,96.6347802 C42.6876801,96.7615918 41.8503613,97.0181135 40.9341294,97.4768092 C40.9341294,97.4768092 41.4968106,94.6826063 45.128767,93.4985484 C43.3381149,94.8724614 43.2634047,96.0086933 43.4301438,96.6347802" id="path48" fill="#8E162A"></path>
                        <path d="M45.4922452,74.1536213 C45.4922452,74.1536213 47.5076075,70.8718098 52.5899987,71.5933315 C50.1670277,72.3281866 48.8677524,73.4840561 48.2322452,74.2572445 C47.4110858,74.1550706 46.4988394,74.1101431 45.4922452,74.1536213" id="path50" fill="#8E162A"></path>
                        <path d="M40.3065207,101.896374 C40.3065207,101.896374 41.0014483,99.8268091 43.5821728,98.3521715 C42.5186946,99.6768091 42.0827526,100.908693 41.9058685,101.669563 C41.4246366,101.699273 40.8944917,101.771012 40.3065207,101.896374" id="path52" fill="#8E162A"></path>
                        <path d="M46.9684046,79.8304328 C45.6677525,81.2333313 45.2134047,82.3528965 45.0662308,83.0594182 C44.0146366,83.1152153 42.8467381,83.313766 41.5842743,83.7427515 C41.5842743,83.7427515 42.9090569,80.66594 46.9684046,79.8304328" id="path54" fill="#8E162A"></path>
                        <path d="M40.283912,92.7398528 C40.283912,92.7398528 41.3949265,90.2152151 44.9628974,89.1260847 C43.7128975,90.5260847 43.2939844,91.459418 43.1781873,92.0275339 C42.2650714,92.1115919 41.2893468,92.32536 40.283912,92.7398528" id="path56" fill="#8E162A"></path>
                        <path d="M60.7917376,64.9020274 C58.9461579,65.1160853 57.5164478,65.9623897 56.7555783,66.5160853 C55.8126798,66.1602882 54.6773175,65.8318824 53.3047088,65.5709404 C53.3047088,65.5709404 56.4749986,63.4586941 60.7917376,64.9020274" id="path58" fill="#8E162A"></path>
                        <path d="M48.5847089,69.6246359 C48.5847089,69.6246359 52.3281871,66.8761577 57.6978246,68.3101432 C54.7297088,68.6947809 52.9157958,69.6079693 52.0337668,70.1768823 C51.0671726,69.9289838 49.9284045,69.7310852 48.5847089,69.6246359" id="path60" fill="#8E162A"></path>
                        <path d="M45.8814481,84.5470993 C44.0684772,85.8304326 43.558912,87.1123167 43.435796,87.9137659 C42.5880424,88.0746355 41.653912,88.34565 40.6383323,88.7673891 C40.6383323,88.7673891 41.3142743,85.6130413 45.8814481,84.5470993" id="path62" fill="#8E162A"></path>
                        <path d="M38.5076802,105.794925 C38.5076802,105.794925 39.241086,104.171012 41.9097816,103.231157 C41.1019555,104.126809 40.5765932,105.112316 40.2655062,105.832606 C39.7358686,105.781157 39.1522454,105.765939 38.5076802,105.794925" id="path64" fill="#8E162A"></path>
                        <path d="M43.8929699,78.592027 C43.8929699,78.592027 45.1695641,76.4927517 48.6681872,75.9920271 C47.3010133,77.0210126 46.6907235,77.8847807 46.4189843,78.449998 C45.5927525,78.3970995 44.7350713,78.4282589 43.8929699,78.592027" id="path66" fill="#8E162A"></path>
                        <path d="M72.4710127,62.108839 C70.6295635,61.7173173 69.2578244,61.9013028 68.4454331,62.1186941 C68.0381142,61.663839 67.5707954,61.1928246 67.0389114,60.715868 C67.0389114,60.715868 69.7962301,60.583984 72.4710127,62.108839" id="path68" fill="#8E162A"></path>
                        <path d="M34.5363759,117.575359 C33.5892021,118.700722 33.1080427,119.882606 32.8673905,120.744925 C32.1130427,120.792026 31.3094195,120.943475 30.4871732,121.250722 C30.4871732,121.250722 31.2514485,118.836229 34.5363759,117.575359" id="path70" fill="#8E162A"></path>
                        <path d="M37.0570281,112.4442 C35.6742745,113.58333 35.0475354,114.831881 34.7684774,115.666664 C34.1171006,115.698548 33.4083325,115.800722 32.6468832,116.00362 C32.6468832,116.00362 33.4561586,113.309417 37.0570281,112.4442" id="path72" fill="#8E162A"></path>
                        <path d="M37.3415208,110.813041 C36.7315208,110.838403 36.0394194,110.915215 35.2436948,111.057968 C35.2436948,111.057968 35.9913034,108.857244 39.3565932,108.110867 C38.2189846,109.160142 37.6217382,110.206519 37.3415208,110.813041" id="path74" fill="#8E162A"></path>
                        <path d="M58.6588391,62.1036941 C58.6588391,62.1036941 62.2030419,60.0138391 67.0233317,62.9486216 C64.7573897,62.6890564 63.0335491,63.1215926 62.0145637,63.5094187 C61.1342014,63.0100709 60.0370999,62.5274622 58.6588391,62.1036941" id="path76" fill="#8E162A"></path>
                        <path d="M33.8768107,127.639127 C33.1153615,129.211591 33.051376,130.957243 33.098405,131.971736 C32.5449992,132.252171 31.9718108,132.62246 31.4028253,133.111591 C31.4028253,133.111591 31.1138398,130.069562 33.8768107,127.639127" id="path78" fill="#8E162A"></path>
                        <path d="M30.8112311,127.01449 C30.8112311,127.01449 30.9952166,124.886953 32.9894195,123.328982 C32.6706514,124.290577 32.6242745,125.252171 32.6423905,125.898548 C32.0352166,126.134055 31.4127528,126.488403 30.8112311,127.01449" id="path80" fill="#8E162A"></path>
                        <path d="M36.3168107,146.726808 C36.3168107,146.726808 33.6234774,143.790576 36.0226803,139.21304 C35.7555064,142.247823 36.8022455,143.821011 37.3573179,144.428257 C37.0089121,145.094924 36.6584773,145.856518 36.3168107,146.726808" id="path82" fill="#8E162A"></path>
                        <path d="M33.7706513,139.089852 C33.7706513,139.089852 31.8387673,136.340576 34.3931151,133.460142 C34.0865934,135.546373 34.5057962,137.134779 34.832173,137.984779 C34.471231,138.302895 34.1106513,138.668112 33.7706513,139.089852" id="path84" fill="#8E162A"></path>
                        <path d="M119.757968,52.3397813 C119.757968,52.3397813 119.678258,53.8391291 120.032606,56.562245 C120.032606,56.562245 119.170287,56.9871 118.420287,58.171158 C118.420287,58.171158 118.568838,54.8754334 119.757968,52.3397813" id="path86" fill="#8E162A"></path>
                        <path d="M128.180432,66.0586215 C126.049997,68.9798533 125.286229,72.6934764 125.286229,72.6934764 L124.576808,70.2442736 C122.766664,75.9217372 119.51449,76.9565198 119.51449,76.9565198 C120.854345,75.3789836 120.86449,72.3216649 120.86449,72.3216649 C110.186229,82.1021719 88.4268094,77.744201 88.4268094,77.744201 C100.503621,77.5862299 105.791302,71.1144185 105.791302,71.1144185 C89.6413021,78.3268096 82.3514472,69.2991287 82.3514472,69.2991287 C88.0333311,71.0363026 90.7949253,68.5892012 90.7949253,68.5892012 C76.352172,67.6420998 73.1956503,56.1978971 73.1956503,56.1978971 C73.1956503,56.1978971 81.7934762,65.4356505 90.3166644,61.3303608 C90.3166644,61.3303608 75.9239111,59.116013 73.2398532,48.225506 C73.2398532,48.225506 75.3144909,50.3529698 79.1934763,50.3566654 C79.1934763,50.3566654 74.33623,47.0057959 76.510143,40.4115932 C76.510143,40.4115932 77.7572444,43.7216656 80.9144907,44.6702163 C80.9144907,44.6702163 77.9579691,30.4622456 88.0717369,28.5963036 L88.0717369,28.5957239 C89.277534,30.5412311 90.177534,33.8986223 88.4666645,39.3463758 C88.4666645,39.3463758 88.4239108,36.0354339 86.7499978,32.954347 C86.7499978,32.954347 87.9768094,36.4739121 84.663766,44.9999989 C84.663766,44.9999989 83.613766,42.9579699 84.263766,40.5304338 C84.263766,40.5304338 79.5927516,48.2993466 85.0391283,55.283332 C85.0391283,55.283332 82.9608675,49.8834046 87.519563,45.3442018 C87.519563,45.3442018 92.0499977,43.8949264 95.7543454,49.580506 C95.7543454,49.580506 95.7442005,46.7934771 94.5326063,44.6195641 C94.5326063,44.6195641 99.2666642,46.7762307 100.481157,53.4001436 C100.481157,53.4001436 99.1413019,53.2093465 98.3173888,52.4349262 C98.3173888,52.4349262 99.3137656,56.0581145 104.469563,57.7304333 C104.469563,57.7304333 102.315215,55.3795638 101.262316,49.9847089 C100.205795,44.5912308 96.2934759,41.2491294 91.4985484,39.11797 C91.4985484,39.11797 91.62536,38.7788396 91.7347803,38.1711585 C95.5007223,39.2878251 97.8869541,40.9760135 97.8869541,40.9760135 C99.7804323,37.4252889 99.2811569,35.9921005 99.2811569,35.9921005 C100.096374,36.1891295 100.71449,36.3448542 101.168838,36.463115 C101.194925,40.8593468 98.9159396,42.4238395 98.9159396,42.4238395 C103.882606,44.5499264 102.107244,54.1773899 106.928258,57.4943464 C106.928258,57.4943464 106.953621,57.5152884 106.929707,57.4985493 C108.582606,59.1740565 111.141302,60.5262304 114.907244,59.6297811 C114.907244,59.6297811 115.018113,62.62681 116.71449,65.1737665 C116.71449,65.1709404 116.715939,65.1681143 116.717388,65.1652882 C116.546374,65.6731143 116.413041,66.2202882 116.328258,66.8124621 C116.328258,66.8124621 117.039128,65.3391288 119.168838,64.1949984 C119.168838,64.1949984 119.66304,66.6542012 122.281156,67.4804331 C122.281156,67.4804331 121.260867,68.9702157 119.168838,70.0747084 C119.168838,70.0747084 123.235504,70.5615924 124.81304,66.537607 C126.391301,62.5107231 126.422461,61.4752883 129.935504,59.5420275 L129.794924,59.1810855 L130.060866,59.0686942 L130.062316,59.0686942 C130.062316,59.0686942 130.331881,59.2340565 130.654345,59.6088391 C130.655794,59.6093463 130.652895,59.6102159 130.652895,59.6116652 C131.030432,62.3044187 130.19275,63.3013752 128.180432,66.0586215" id="path88" fill="#8E162A"></path>
                        <path d="M129.805069,56.3159406 C129.86304,58.0035493 128.572461,59.0174623 127.856519,59.4471724 C127.242026,59.3528971 126.599272,59.1587666 125.91449,59.0296362 L125.91449,59.0282594 C128.235504,57.9644913 129.805069,56.3159406 129.805069,56.3159406" id="path90" fill="#FFFFFF"></path>
                        <path d="M131.102895,55.3739117 C130.628982,54.9006508 129.373185,54.8565204 129.373185,54.8565204 C132.652895,57.4810131 130.060142,59.0686942 130.060142,59.0686942 L129.794924,59.1810855 C129.162316,59.5346362 128.52391,59.549926 127.856519,59.4471724 C128.572461,59.018042 129.86304,58.0035493 129.805069,56.3159406 C129.805069,56.3159406 128.235504,57.9644913 125.91449,59.0273898 L125.91449,59.0305058 C125.13333,58.8824623 124.2942,58.8215927 123.371011,59.1021 C122.640577,59.3246362 118.207968,60.6912304 116.71449,65.1737665 C115.018113,62.6276796 114.907244,59.6297811 114.907244,59.6297811 C111.139852,60.5262304 108.582606,59.1740565 106.929707,57.499129 C107.883331,58.1536217 109.093476,58.5631869 110.665939,58.6181145 C117.132606,58.8397087 117.194925,49.5392017 120.070287,46.39268 C120.56449,48.755651 118.571736,53.2442016 118.571736,53.2442016 C116.440577,58.3933319 117.0942,62.2933318 117.0942,62.2933318 C119.106519,57.2607957 123.109417,56.1115928 123.109417,56.1115928 C123.051446,52.6180422 126.777533,51.9165929 126.777533,51.9165929 C127.252171,50.2592741 126.529707,48.4629698 126.529707,48.4629698 C126.695649,48.5028973 126.854345,48.5470278 127.010866,48.593477 L127.010142,48.593477 C127.408692,49.2796364 127.969562,50.5819553 127.929707,52.4289842 C127.929707,52.4289842 125.345649,52.2305059 125.207968,55.1523175 C125.207968,55.1523175 126.726808,52.8623175 129.607243,54.1267378 C129.607243,54.1267378 129.981881,51.1579697 127.49275,48.7522452 L127.49275,48.7508683 C132.486953,50.5406509 131.102895,55.3739117 131.102895,55.3739117" id="path92" fill="#BDB8B8"></path>
                        <path d="M124.504345,62.5897086 C124.358693,62.1385492 123.939852,61.807897 123.439127,61.807897 C122.818838,61.807897 122.315214,62.3131868 122.315214,62.9333318 C122.315214,62.9876796 122.32391,63.039781 122.330432,63.0935491 C122.110142,63.2594187 121.965939,63.5223897 121.965939,63.8224622 C121.965939,64.3260129 122.374635,64.7356506 122.878258,64.7356506 C123.323185,64.7356506 123.693475,64.4194187 123.776084,64.0007955 C123.804345,63.9920274 123.834055,63.9855056 123.859417,63.974781 C123.715214,64.4180419 123.617388,64.8797085 123.571736,65.3608679 C123.471736,65.3730418 123.372461,65.3826795 123.267388,65.3826795 C122.025359,65.3826795 121.017388,64.3747085 121.017388,63.1312303 C121.017388,61.8877521 122.025359,60.8797811 123.267388,60.8797811 C124.013765,60.8797811 124.671736,61.2426072 125.081881,61.800868 C124.869562,62.0485492 124.677533,62.3114477 124.504345,62.5897086" id="path94" fill="#D01841"></path>
                        <path d="M122.878258,64.7361578 C122.373185,64.7361578 121.96449,64.3274622 121.96449,63.8215926 C121.96449,63.5223897 122.110142,63.2594187 122.330432,63.0935491 C122.48478,62.9766651 122.671736,62.9064477 122.878258,62.9064477 C123.384055,62.9064477 123.7942,63.3160854 123.7942,63.8215926 C123.7942,63.8824622 123.786953,63.942752 123.776084,64.0007955 C123.693475,64.418839 123.323185,64.7361578 122.878258,64.7361578" id="path96" fill="#FFFFFF"></path>
                        <path d="M123.294924,8.20934762 C123.294924,11.1231881 121.70362,14.7942025 120.760142,16.7210141 C119.455069,18.3202894 118.301446,19.3390575 118.301446,19.3390575 C122.904345,17.0601445 124.220287,14.4202895 124.220287,14.4202895 C126.268837,14.4259417 128.826808,13.0225359 128.826808,13.0225359 C128.826808,13.0225359 127.74275,11.7317388 129.399997,10.5471736 C130.062316,10.0752896 130.43333,9.60884034 130.64275,9.21818818 C132.876084,12.5339852 127.373185,15.0334054 127.373185,15.0334054 C125.539127,15.3897822 124.162316,16.7934778 124.162316,16.7934778 C118.243475,21.4107966 114.452896,21.1144198 114.452896,21.1144198 C109.288403,23.9260864 106.022461,27.1419558 104.740577,28.5391297 C104.274635,28.0718109 104.102896,27.492608 104.053621,27.0071732 C107.681157,24.5870284 108.452171,22.6109415 108.452171,22.6109415 C102.47391,20.6581154 100.957968,18.1102894 100.957968,18.1102894 C102.693476,16.3071735 104.509418,17.800072 104.509418,17.800072 C106.995649,19.5833328 109.423186,19.9943473 109.423186,19.9943473 C118.420287,18.3370285 121.529707,10.3419563 121.529707,10.3419563 C121.529707,10.3419563 120.077533,8.44710124 120.501446,7.57753604 C120.865939,6.82687664 121.005794,6.20159405 121.032606,5.70793464 C121.894924,6.12035492 123.294924,6.98029693 123.294924,8.20934762" id="path98" fill="#BDB8B8"></path>
                        <path d="M120.776809,4.34046366 C120.776809,4.34046366 124.441301,5.42827523 124.441301,8.41739109 C124.441301,11.5355794 122.469562,14.6269562 120.760867,16.7210141 C121.705069,14.7950721 123.294924,11.1231881 123.294924,8.21021719 C123.294924,6.98029693 121.894924,6.12035492 121.03333,5.70736942 C121.088403,4.80865205 120.776809,4.34046366 120.776809,4.34046366" id="path100" fill="#FFFFFF"></path>
                        <path d="M118.555069,36.8028252 L118.550722,36.8028252 C118.915939,36.1384774 119.168838,35.3122455 119.168838,34.276231 C119.168838,33.9549267 119.142026,33.6631151 119.097098,33.391376 C120.540577,34.4347093 121.726809,34.4044194 122.434055,34.2224629 C122.417388,34.2284049 122.395649,34.2368832 122.381881,34.2399991 C121.386953,36.7977527 119.565214,36.947173 118.555069,36.8028252" id="path102" fill="#BDB8B8"></path>
                        <path d="M117.402896,38.1934773 C117.815939,37.847028 118.227533,37.3876078 118.549272,36.8028252 L118.555069,36.8028252 C119.565214,36.947173 121.385504,36.7977527 122.380432,34.2399991 C122.395649,34.2363035 122.417388,34.2284049 122.434055,34.2224629 C122.889852,34.1057962 123.148548,33.9268832 123.148548,33.9268832 C122.915214,38.5507237 119.631881,38.6622454 117.402896,38.1934773" id="path104" fill="#FFFFFF"></path>
                        <path d="M118.581881,31.9884775 L118.580432,31.9884775 C118.013041,31.0926079 117.121012,30.6419558 116.290577,30.4209413 C116.335504,30.3376804 116.351446,30.2889848 116.351446,30.2889848 C118.013041,30.5128978 119.084055,29.9768108 119.719562,29.4361587 C119.716664,29.4398543 119.713765,29.4463036 119.710867,29.4486225 C119.93478,30.1449268 119.876809,31.1042021 118.581881,31.9884775" id="path106" fill="#BDB8B8"></path>
                        <path d="M120.492026,28.514492 C121.400722,30.2383326 119.581156,32.4586948 119.031881,33.0681151 C118.929707,32.6508687 118.77391,32.2950717 118.580432,31.9884775 L118.581881,31.9884775 C119.875359,31.1042021 119.93333,30.1449268 119.710867,29.4486225 C119.713765,29.4463036 119.716664,29.4398543 119.721011,29.4369558 C120.26304,28.977608 120.492026,28.514492 120.492026,28.514492" id="path108" fill="#FFFFFF"></path>
                        <path d="M114.910142,36.4427527 C111.527533,39.8035497 107.978258,36.5239846 104.465215,36.0948542 C103.899273,35.8457962 103.336229,35.6564484 102.768113,35.5839846 C98.3666642,34.1094919 94.8920266,33.8052165 92.8456499,33.7936223 C92.4434759,33.7783325 92.0275339,33.7689847 91.5942006,33.7689847 C91.2137658,32.0652166 90.3970992,30.0650717 88.7963746,27.9339123 C89.7999978,28.2914486 91.7289832,28.9014486 93.1202875,28.8711587 C93.1202875,28.8711587 93.5289832,31.9457963 99.6260845,32.8928977 C99.6260845,32.8928977 96.6499976,31.7428253 95.2826063,28.8261587 C93.32536,24.2660139 95.4768092,22.2064487 95.4768092,22.2064487 C94.8847802,23.9418835 95.6920266,25.6530428 95.6920266,25.6530428 C100.901447,23.9362313 99.121012,29.63855 99.121012,29.63855 C102.615215,32.954347 104.607244,31.9160137 104.607244,31.9160137 C109.165939,35.4087672 113.309417,34.9869556 113.309417,34.9869556 C113.309417,34.9869556 112.195649,33.0290571 114.148548,32.0810862 C114.421736,31.9486224 114.660142,31.8189847 114.871012,31.6913036 C115.142751,31.7037673 115.462316,31.7382601 115.787678,31.8189847 C117.286954,34.1369557 115.872461,35.4876803 114.910142,36.4427527" id="path110" fill="#BDB8B8"></path>
                        <path d="M117.774635,34.3130426 C117.774635,35.8486223 115.357243,37.5441295 115.357243,37.5441295 C110.786229,40.7846367 107.580432,37.4768107 104.465215,36.0948542 C107.978258,36.5239846 111.527533,39.8035497 114.910142,36.4418831 C115.871012,35.4876803 117.286954,34.1369557 115.787678,31.8172456 C116.754345,32.0558688 117.774635,32.6899267 117.774635,34.3130426" id="path112" fill="#FFFFFF"></path>
                        <path d="M91.9398528,35.2824629 C91.9398528,35.2824629 91.9782586,36.110144 91.7811571,37.136231 C91.7811571,37.136231 94.1507223,37.5710136 96.1615918,38.5572454 C96.1615918,38.5572454 96.0442005,37.7289846 95.0181136,36.8209411 C95.0181136,36.8209411 96.6724614,36.771086 97.8999976,37.7674628 C97.8999976,37.7674628 98.1449251,36.8883324 97.7014468,35.5978252 C97.7014468,35.5978252 95.4905773,34.7695643 91.9398528,35.2824629" id="path114" fill="#8E162A"></path>
                    </g>
                </g>
            </g>
        </g>
    </g>
</svg>