<?xml version="1.0" encoding="UTF-8"?>
<svg width="200px" height="200px" viewBox="0 0 200 200" version="1.1" xmlns="http://www.w3.org/2000/svg" xmlns:xlink="http://www.w3.org/1999/xlink">
    <!-- Generator: Sketch 51.3 (57544) - http://www.bohemiancoding.com/sketch -->
    <title>morehouse</title>
    <desc>Created with Sketch.</desc>
    <defs></defs>
    <g id="morehouse" stroke="none" stroke-width="1" fill="none" fill-rule="evenodd">
        <g id="morehouse_BGL" transform="translate(0.000000, 26.000000)" fill="#960A2C">
            <g id="morehouse">
                <g id="g10" transform="translate(99.842020, 73.927332) scale(-1, 1) rotate(-180.000000) translate(-99.842020, -73.927332) translate(0.000000, 0.309640)" fill-rule="nonzero">
                    <g id="g12">
                        <path d="M0.393710575,147.070454 L70.0897297,146.873298 L71.2714042,144.511213 C71.2714042,144.511213 65.9551326,144.707737 63.5924155,144.117532 C61.2300143,143.526695 52.1734584,143.526695 52.1734584,143.526695 C52.1734584,143.526695 57.6861281,141.163978 60.8362702,140.179459 C63.9867283,139.195573 77.1778812,135.060976 77.7680865,135.060976 C78.3589238,135.060976 92.1402821,111.631593 92.1402821,111.631593 C92.1402821,111.631593 74.0271703,105.332067 72.8461277,104.74123 C71.6650851,104.150392 69.3023679,102.575037 69.3023679,102.575037 C69.3023679,102.575037 76.7835684,103.953236 78.7526047,103.953236 C80.721641,103.953236 84.0682443,104.937754 86.0372806,105.13491 C88.0063169,105.331435 90.9592394,105.331435 92.1402821,105.528591 C93.3219566,105.725748 97.0628728,105.922272 97.0628728,105.922272 L101.787675,98.4404399 L106.315953,104.937754 C106.315953,104.937754 117.341545,105.528591 119.507106,104.74123 C121.672667,103.953236 128.367137,103.559555 129.744704,103.362399 C131.122904,103.165874 134.864452,103.363031 136.832856,102.378512 C138.80126,101.393994 148.449285,99.8192708 150.024009,99.6221144 C151.598732,99.424958 162.230644,95.6846738 164.002524,95.0938365 C165.774403,94.5029992 174.437278,90.5655586 175.815477,89.9747213 C177.193045,89.383884 189.990517,81.9026836 189.990517,81.9026836 L189.990517,47.2519419 C189.990517,47.2519419 189.400943,48.0391141 187.431275,48.0391141 C185.462239,48.0391141 185.462871,47.8421473 183.493834,48.2355754 C181.524798,48.6293195 180.147231,47.8421473 178.374719,48.6293195 C176.602839,49.4167444 161.246757,49.2202199 159.474246,48.6293195 C157.701734,48.0391141 156.521323,49.4167444 154.945968,48.8265391 C153.370612,48.2355754 149.629696,47.6453701 147.661292,47.2519419 C145.692887,46.8581979 143.133014,46.464517 143.133014,46.464517 C143.133014,46.464517 143.329538,54.3394615 142.935857,56.308245 C142.542177,58.2767758 142.542177,63.395891 142.542177,63.395891 C142.542177,63.395891 127.776932,43.1178504 127.185463,41.9362391 C126.594626,40.7538694 116.554184,37.210236 114.388623,36.029067 C112.22243,34.8479612 102.181356,29.138767 102.181356,29.138767 C102.181356,29.138767 112.616743,32.2887196 114.191466,32.2887196 C115.76619,32.2887196 121.869823,33.4698254 122.46066,33.4698254 C123.050866,33.4698254 102.968718,1.57484356 102.968718,1.57484356 L80.721641,36.029067 C80.721641,36.029067 94.1099503,39.1792723 95.8811982,39.3762391 C97.6530781,39.5727004 101.393994,41.542495 102.575037,41.542495 C103.75608,41.542495 105.330803,41.9362391 107.300471,42.9201253 C109.269508,43.9045171 111.041387,44.691942 111.041387,44.691942 C111.041387,44.691942 106.90679,44.4947224 105.725748,44.8884033 C104.544073,45.2821474 99.8192708,44.887961 98.6375963,45.479367 C97.4565536,46.0707729 89.1873595,45.4798725 88.0063169,45.8735534 C86.8246424,46.2672974 86.234437,46.464517 84.6590816,46.2672974 C83.0837262,46.0707729 82.2963645,46.6617366 80.9181654,46.0707729 C79.5399664,45.479367 73.6334895,46.464517 73.6334895,46.464517 L61.6239479,62.4113728 L60.8362702,44.2982611 L33.4695726,37.2106784 C33.4695726,37.2106784 38.7852755,36.816492 39.96695,36.2255915 C41.1483086,35.6353862 52.3701725,36.029067 53.9455279,36.029067 C55.5205673,36.029067 58.2770286,35.4381666 59.4581976,35.4381666 C60.6393034,35.4381666 60.6393034,35.4381666 60.6393034,35.4381666 L61.0330474,12.2067611 L67.7270125,12.2067611 L67.9241689,0 L0,0.197225272 L0,11.6157975 L7.28448639,11.6157975 L7.4815164,19.0975667 C7.4815164,19.0975667 11.6160503,19.687772 23.4288778,17.3252444 C35.2416421,14.9629696 46.4640115,11.4193362 48.2360809,10.6319113 C50.0081504,9.8439808 62.6083397,4.33106466 62.6083397,4.33106466 C62.6083397,4.33106466 56.5047695,11.2221166 49.0235059,14.9629696 C41.5419895,18.7038226 32.2889723,24.8062553 24.8072032,27.1689725 C17.3254972,29.5325111 7.4815164,32.87962 7.4815164,32.87962 L7.28448639,50.0076449 C7.28448639,50.0076449 22.0504892,59.8521312 25.9883722,60.836523 C29.9259392,61.8204724 49.6142168,72.6489713 68.7115307,74.815164 C87.8091605,76.9807248 87.8091605,75.4053694 89.3845159,75.9962066 C90.9592394,76.5870439 94.3064747,76.1927311 96.0783546,76.1927311 C97.8502345,76.1927311 103.560187,76.7835684 105.13491,75.9962066 C106.709634,75.2088449 111.828117,76.193363 113.009792,75.2088449 C114.191466,74.2243267 133.682145,71.2707723 134.86382,70.2868861 C136.045494,69.3023679 158.095415,61.230267 158.883408,60.6395561 C159.671402,60.0493508 149.827484,68.9086871 137.620218,75.0116885 C125.413583,81.1153218 109.466032,87.6120041 105.528591,88.005685 C101.591151,88.3999978 101.393994,89.5810404 99.8186389,89.5810404 C98.2439154,89.5810404 95.6846738,89.9747213 94.1093183,90.1712458 C92.5345948,90.3684022 90.1712458,89.7775649 88.5965223,90.3684022 C87.0217988,90.9592394 68.1213253,90.9598713 66.152289,90.5655586 C64.1832527,90.1712458 58.6707726,89.9747213 56.8989559,89.9747213 C55.1268865,89.9747213 50.0081504,89.9753532 47.8423369,88.9902031 C45.6765865,88.005685 41.1483086,87.4154796 39.3762391,87.0217988 C37.6044224,86.6281179 35.0444225,86.6281179 33.6665394,86.234437 C32.2884668,85.8401242 28.9412947,84.6590816 26.5787671,84.2654007 C24.2163027,83.8717199 20.8693834,81.5090027 19.2942807,81.9026836 C17.7191781,82.2963645 6.89080551,76.9807248 6.89080551,76.9807248 L7.4815164,115.372509 C7.4815164,115.372509 28.7448334,120.885305 31.6980087,120.688149 C34.651184,120.491624 35.4386089,121.082461 37.9978506,120.885305 C40.557345,120.688149 41.9357335,121.672667 44.2982611,121.672667 C46.6607255,121.672667 69.3023679,122.066348 70.8777233,121.476142 C72.4524468,120.885305 74.815164,121.278986 74.815164,121.278986 C74.815164,121.278986 63.0023365,127.7763 54.5361756,129.54818 C46.0703306,131.32006 44.4949752,131.122904 42.9201253,131.516584 C41.3450227,131.910897 39.3762391,132.501734 37.6044224,132.501734 C35.832353,132.501734 33.075639,132.501734 31.5007891,132.894783 C29.9259392,133.289096 27.7601889,133.879302 26.1850862,133.682145 C24.6099836,133.485621 10.6316585,133.485621 9.2533331,133.289096 C7.87519728,133.09194 6.89080551,134.470139 5.11872973,134.470139 C3.34690671,134.470139 0,134.667295 0,134.667295 L0.393710575,147.070454" id="path14"></path>
                        <path d="M131.517216,146.873298 L198.259711,146.283093 L198.850548,135.848338 L189.990517,135.848338 L190.187673,106.118797 C190.187673,106.118797 173.059079,111.631593 170.302681,112.025274 C167.546283,112.419586 162.034119,113.99431 160.065083,113.99431 C158.095415,113.99431 153.567769,114.978828 151.402208,114.978828 C149.236015,114.978828 147.858448,115.372509 145.889412,115.372509 C143.920376,115.372509 135.257501,116.357659 133.879302,115.963346 C132.501734,115.569665 122.066348,115.76619 120.097943,115.175353 C118.128907,114.585147 116.159871,115.76619 114.978828,114.782304 C113.797785,113.797785 112.418955,114.782304 112.418955,114.782304 L119.507106,126.398101 C119.507106,126.398101 127.184831,125.806632 130.138385,126.791782 C133.09194,127.7763 136.242019,127.7763 138.604736,127.579144 C140.967453,127.382619 151.401576,129.154499 152.976931,129.54818 C154.552287,129.941861 169.514688,134.076458 172.271086,135.257501 C175.027484,136.439175 182.312792,140.179459 183.690359,140.179459 C185.068558,140.179459 187.824956,142.935857 187.824956,142.935857 C187.824956,142.935857 182.705841,141.951971 180.933961,141.361134 C179.162081,140.770297 167.546283,139.982935 165.970928,139.195573 C164.396204,138.407579 157.505841,138.80126 155.733329,138.210423 C153.96145,137.620218 145.101418,137.816742 144.1169,137.816742 C143.133014,137.816742 139.39273,138.604736 137.620218,138.604736 C135.847706,138.604736 134.076458,138.801892 132.895415,138.801892 C131.713741,138.801892 127.973457,140.770297 127.973457,140.770297 L131.517216,146.873298" id="path16"></path>
                        <path d="M142.935857,35.2416421 C144.510581,35.2416421 146.086568,35.6353862 147.857816,35.8318474 C149.629696,36.029067 161.245494,35.4381666 162.624325,35.4381666 C164.002524,35.4381666 167.349759,35.6353862 169.51532,35.4381666 C171.68088,35.2416421 175.617689,34.060789 176.799364,34.060789 C177.981038,34.060789 181.131749,33.4698254 183.100153,32.87962 C185.068558,32.2887196 186.250232,33.0761445 187.431275,32.4851809 C188.612318,31.8949755 190.187673,31.5007891 190.187673,31.5007891 L189.793992,11.2221166 C189.793992,11.2221166 195.306788,11.0255921 196.487831,11.2221166 C197.668873,11.4193362 199.63791,11.4193362 199.63791,11.4193362 L199.440753,0 L136.045494,0.197225272 C136.045494,0.197225272 136.044862,2.36201574 135.847706,3.54363972 C135.651181,4.72551647 136.045494,6.49731421 136.045494,6.49731421 C136.045494,6.49731421 138.013267,6.89105828 139.392098,7.08751957 C140.770929,7.28473915 143.921007,7.67848322 145.299206,7.67848322 C146.676774,7.67848322 150.614846,8.4656554 152.386094,8.4656554 C154.157974,8.4656554 171.681512,7.87494451 173.846441,7.48126364 C176.012002,7.08751957 180.934593,7.48126364 182.706473,7.08751957 C184.477721,6.6938387 187.037594,7.08751957 187.037594,7.08751957 C187.037594,7.08751957 173.256236,12.0095416 168.924482,12.6001893 C164.593361,13.1903946 162.034119,13.1911529 160.261607,13.5848338 C158.489727,13.9785778 156.126378,14.1755447 154.157974,14.3722587 C152.18957,14.5692887 146.874562,15.5539333 145.299206,15.5539333 C143.723219,15.5539333 143.133014,15.5539333 143.133014,15.5539333 L142.935857,35.2416421" id="path18"></path>
                    </g>
                </g>
            </g>
        </g>
    </g>
</svg>