<?xml version="1.0" encoding="UTF-8"?>
<svg width="200px" height="200px" viewBox="0 0 200 200" version="1.1" xmlns="http://www.w3.org/2000/svg" xmlns:xlink="http://www.w3.org/1999/xlink">
    <!-- Generator: Sketch 51.3 (57544) - http://www.bohemiancoding.com/sketch -->
    <title>mount-holyoke</title>
    <desc>Created with Sketch.</desc>
    <defs></defs>
    <g id="mount-holyoke" stroke="none" stroke-width="1" fill="none" fill-rule="evenodd">
        <g id="mount-holyoke_BGL">
            <g id="mount-holyoke" transform="translate(0.000000, 2.000000)">
                <g id="g10" transform="translate(99.986398, 97.725557) scale(-1, 1) rotate(-180.000000) translate(-99.986398, -97.725557) translate(0.000000, 0.078340)" fill-rule="nonzero">
                    <g id="g12" transform="translate(0.000000, 0.097919)">
                        <g id="g14" transform="translate(133.263588, 90.361777)" fill="#231F20">
                            <path d="M66.5716991,45.517622 C67.297744,36.4813058 62.1810894,28.2198464 58.6845452,22.9858227 C55.1880011,17.7516763 48.6388794,10.9214576 44.0373243,7.77640744 C38.2878332,3.85662322 23.3609868,-2.48057181 13.0565448,1.01670821 C-0.110378455,5.47612044 -3.3272972,23.6899146 3.47937419,35.9416778 C9.84085248,47.3952822 30.2142624,58.9911521 45.1644109,61.2907032 C55.7975354,62.9341158 65.7254643,55.7754597 66.5716991,45.517622" id="path16"></path>
                        </g>
                        <g id="g18" transform="translate(128.154881, 17.701930)" fill="#231F20">
                            <path d="M67.7359163,48.3273549 C67.8778295,27.6967762 52.4802418,18.237777 39.0081042,8.89627712 C32.0844213,4.10802782 20.2779604,-3.8256445 10.2790895,2.13651602 C3.23754637,6.31441807 -2.6530562,31.1000484 1.26639537,41.5675938 C4.45824086,50.1345841 20.3477143,57.1063732 32.8120273,58.4674175 C47.4339028,60.0635808 62.7605339,58.7493198 67.7359163,48.3273549" id="path20"></path>
                        </g>
                        <g id="g22" transform="translate(81.066937, 121.959643)" fill="#231F20">
                            <path d="M43.8481793,69.1247677 C55.9355962,70.5335493 63.1176663,58.3280451 60.7464732,42.6495932 C59.0330263,31.2895941 47.0164618,14.7892545 36.5247587,6.03426146 C27.6053882,-1.38280238 15.6584952,-2.39126799 7.79553366,5.470985 C3.00744757,10.2594253 -1.47561901,20.4928715 0.472585408,30.2563301 C3.8994791,47.461651 27.9339071,67.2707969 43.8481793,69.1247677" id="path24"></path>
                        </g>
                        <path d="M108.577938,83.49245 C109.093973,74.1738048 108.014685,59.0583421 108.014685,46.3136123 C108.014685,32.6767298 108.319758,19.2280697 104.63484,12.5151636 C99.6355204,3.45543851 85.2242057,-0.746379418 70.8362827,0.121846318 C40.41757,1.95294433 18.6597031,27.3020529 9.43551724,53.0733021 C6.8067889,60.4194191 1.76051131,74.1738048 4.92906828,85.1821004 C9.3651786,100.508742 36.0285045,105.836635 58.4434094,107.151038 C86.1630333,108.794013 107.240144,107.409218 108.577938,83.49245" id="path26" fill="#231F20"></path>
                        <g id="g28" transform="translate(10.360909, 119.704891)" fill="#231F20">
                            <path d="M53.7158769,59.549712 C58.1049531,56.9450638 59.5601394,45.678962 58.7855117,39.2705069 C57.1191137,25.7747021 47.1437993,5.42561084 35.6897813,1.52862231 C28.1791207,-1.02943506 17.3587377,-0.160849228 11.4675516,2.65567621 C-6.04204055,11.0353663 -1.41827974,40.35097 11.4675516,49.4106641 C15.4340935,52.2038941 21.3723142,53.8467749 26.6768999,55.6072419 C31.5588403,57.2268273 37.3562902,59.3622394 43.5762744,60.1132389 C45.5478422,60.3484116 51.0635286,61.1227065 53.7158769,59.549712" id="path30"></path>
                        </g>
                        <g id="g32" transform="translate(129.351091, 94.267556)" fill="#83C2EC">
                            <path d="M66.5671938,45.5286405 C67.2934515,36.4926428 62.1770742,28.2311592 58.6796967,22.9966745 C55.1835256,17.7625517 48.6339353,10.9323508 44.0326943,7.78724454 C38.2829526,3.86750353 23.3560635,-2.46975895 13.0521307,1.02761854 C-0.115815191,5.48698595 -3.33089315,23.7007343 3.47566214,35.9521719 C9.83705278,47.4070181 30.2096687,59.0018077 45.160686,61.3012218 C55.7939682,62.9443498 65.7215016,55.7855234 66.5671938,45.5286405" id="path34"></path>
                        </g>
                        <g id="g36" transform="translate(124.238433, 21.615002)" fill="#83C2EC">
                            <path d="M67.7353455,48.3307661 C67.87678,27.700303 52.479276,18.2413985 39.0064601,8.89988459 C32.0832407,4.11161915 20.2769947,-3.82203199 10.2787532,2.14013991 C3.23767173,6.31799756 -2.65425436,31.1035709 1.26583889,41.5711392 C4.4575444,50.1379455 20.3465333,57.109842 32.8104498,58.4709135 C47.4335998,60.0670019 62.7603865,58.7527217 67.7353455,48.3307661" id="path38"></path>
                        </g>
                        <g id="g40" transform="translate(77.153525, 125.879088)" fill="#83C2EC">
                            <path d="M43.8444115,69.1209882 C55.9309193,70.5297642 63.1136419,58.3247612 60.7425415,42.6462936 C59.0285507,31.2863168 47.0126613,14.7855646 36.5205719,6.03128469 C27.6013563,-1.38603447 15.6545292,-2.39503883 7.79159634,5.46753492 C3.00355344,10.2552187 -1.47951399,20.4888929 0.468714246,30.2533741 C3.89549894,47.4579159 27.9300308,67.2669577 43.8444115,69.1209882" id="path42"></path>
                        </g>
                        <path d="M104.66117,87.4088921 C105.17753,78.0905733 104.097917,62.9751106 104.097917,50.2303809 C104.097917,36.5934983 104.402989,23.1448383 100.718072,16.4319321 C95.7187519,7.37220708 81.3074371,3.1703848 66.9195142,4.03861271 C36.5008015,5.8697129 14.7429345,31.2188215 5.51874867,56.9900707 C2.89002033,64.3361877 -2.15626814,78.0905733 1.01229972,89.0987602 C5.44841004,104.425511 32.1117359,109.753295 54.5266408,111.067589 C82.2462648,112.710455 103.323376,111.326531 104.66117,87.4088921" id="path44" fill="#83C2EC"></path>
                        <g id="g46" transform="translate(6.437302, 123.622950)" fill="#83C2EC">
                            <path d="M53.7223475,59.5473127 C58.1114996,56.9429253 59.5665793,45.6765129 58.7919497,39.2686772 C57.1255044,25.773009 47.1504058,5.42297383 35.6964278,1.52659263 C28.1857507,-1.03132836 17.3655295,-0.163199213 11.4742646,2.65425386 C-6.03521455,11.0329468 -1.41148052,40.3487387 11.4742646,49.4085616 C15.4407988,52.2010815 21.3789835,53.8444069 26.6835246,55.604465 C31.5654477,57.2239906 37.3628731,59.3603136 43.582803,60.1105766 C45.5543402,60.3463088 51.0700203,61.1203718 53.7223475,59.5473127" id="path48"></path>
                        </g>
                    </g>
                </g>
            </g>
        </g>
    </g>
</svg>