<?xml version="1.0" encoding="UTF-8"?>
<svg width="200px" height="200px" viewBox="0 0 200 200" version="1.1" xmlns="http://www.w3.org/2000/svg" xmlns:xlink="http://www.w3.org/1999/xlink">
    <!-- Generator: Sketch 51.3 (57544) - http://www.bohemiancoding.com/sketch -->
    <title>mount-union.50</title>
    <desc>Created with Sketch.</desc>
    <defs></defs>
    <g id="mount-union" stroke="none" stroke-width="1" fill="none" fill-rule="evenodd">
        <g id="mount-union_BGL">
            <g id="mount-union" transform="translate(0.000000, 4.000000)">
                <polygon id="path16" fill="#000000" fill-rule="nonzero" transform="translate(99.859839, 96.645775) scale(1, -1) translate(-99.859839, -96.645775) " points="86.9262442 48.266205 99.5930349 31.3597356 112.79438 48.7871597 112.79438 0.340782123 199.343333 0.340782123 199.343333 63.31746 189.901638 63.31746 189.901638 124.476273 199.343333 124.476273 199.343333 192.950768 126.33782 192.950768 99.8409194 145.838723 73.3896068 192.950768 0.376344086 192.950768 0.376344086 124.476273 9.81772363 124.476273 9.81772363 63.31746 0.376344086 63.31746 0.376344086 0.340782123 86.9262442 0.340782123"></polygon>
                <polygon id="path16" fill="#FFFFFF" fill-rule="nonzero" transform="translate(99.859839, 96.645775) scale(1, -1) translate(-99.859839, -96.645775) " points="67.0149867 92.3867456 99.6391096 48.8430613 132.705322 92.4945901 132.705322 52.7811472 123.305133 52.7811472 123.305133 10.877095 188.83258 10.877095 188.83258 52.7811472 179.390885 52.7811472 179.390885 135.012586 188.83258 135.012586 188.83258 182.414456 132.478097 182.414456 99.8330347 124.370848 67.2441377 182.414456 10.8870968 182.414456 10.8870968 135.012586 20.3284763 135.012586 20.3284763 52.7811472 10.8870968 52.7811472 10.8870968 10.877095 76.4154915 10.877095 76.4154915 52.7811472 67.0149867 52.7811472"></polygon>
                <polygon id="path16" fill="#482889" fill-rule="nonzero" transform="translate(99.859839, 96.645775) scale(1, -1) translate(-99.859839, -96.645775) " points="62.9020835 104.741636 62.9020835 48.6582422 72.3025883 48.6582422 72.3025883 15 15 15 15 48.6582422 24.4413795 48.6582422 24.4413795 139.135491 15 139.135491 15 178.291551 64.8393889 178.291551 99.8299494 115.970375 134.880815 178.291551 184.719677 178.291551 184.719677 139.135491 175.277982 139.135491 175.277982 48.6582422 184.719677 48.6582422 184.719677 15 127.418036 15 127.418036 48.6582422 136.818225 48.6582422 136.818225 104.741636 99.6571388 55.6843626"></polygon>
            </g>
        </g>
    </g>
</svg>