<?xml version="1.0" encoding="UTF-8"?>
<svg width="200px" height="200px" viewBox="0 0 200 200" version="1.1" xmlns="http://www.w3.org/2000/svg" xmlns:xlink="http://www.w3.org/1999/xlink">
    <!-- Generator: Sketch 51.3 (57544) - http://www.bohemiancoding.com/sketch -->
    <title>nc-wesleyan</title>
    <desc>Created with Sketch.</desc>
    <defs></defs>
    <g id="nc-wesleyan" stroke="none" stroke-width="1" fill="none" fill-rule="evenodd">
        <g id="nc-wesleyan_BGL" transform="translate(0.000000, 28.855721)">
            <g id="nc-wesleyan">
                <g id="g10" transform="translate(99.999998, 71.862458) scale(-1, 1) rotate(-180.000000) translate(-99.999998, -71.862458) translate(0.000000, 0.293737)" fill-rule="nonzero">
                    <g id="g12">
                        <path d="M156.346944,70.9215718 C156.346944,70.9215718 159.920184,68.2607074 161.969949,66.7309551 C160.710794,65.7905375 159.571358,64.9363753 159.409855,64.8100227 C158.890606,65.3774437 158.26948,66.06096 158.26948,66.06096 L153.752578,69.6445247 C153.752578,69.6445247 145.215959,65.5863218 143.484503,64.7606006 C142.098119,65.8418245 135.09671,71.3300031 132.280748,73.5400079 C132.302814,73.5698476 136.555865,79.0640874 136.555865,79.0640874 C136.555865,79.0640874 136.074644,79.5438543 135.722062,79.8926061 C135.81549,79.8692938 138.249292,79.2538494 138.249292,79.2538494 C138.249292,79.2538494 139.749762,89.8842522 140.239433,93.3400657 C146.513142,90.4684582 154.628635,86.5184243 154.718306,86.4736647 L155.683564,86.0060202 L156.75117,86.0950731 C157.793893,86.1883223 159.66901,86.466671 161.413142,87.2266515 C160.928165,84.988672 160.592015,83.4892257 160.430512,82.744165 C159.247883,82.2233685 155.224409,80.4628246 155.224409,80.4628246 L156.346944,70.9215718 Z M170.221592,38.5375882 C170.33286,37.3280535 170.736146,32.8204363 170.736146,32.8204363 L158.40563,20.1953409 L100.06103,1.91306688 L22.62399,1.91306688 L6.96615006,72.6802507 L1.99530511,72.6802507 L1.99530511,91.0242231 C7.26399043,91.3986184 14.8175114,93.7634168 14.894178,93.7867291 C14.894178,93.7867291 18.7817366,94.9546747 21.2490605,95.6946066 C21.0112201,96.1226202 20.768591,96.5636887 20.768591,96.5636887 L22.2448821,97.5344123 C23.664929,98.4617751 27.6469007,101.147817 29.0841307,102.428594 C30.4746002,103.667875 32.5973701,106.436442 33.2948348,107.397375 L33.8609381,108.175539 C33.8609381,108.175539 52.7154916,108.512634 53.2009376,108.522426 C53.5286372,108.611945 55.9779329,109.292197 57.5694821,109.736996 C57.5093882,111.601513 57.3690127,115.634538 57.3690127,115.634538 L57.4676042,115.936199 C57.8671347,117.257073 59.3084492,119.753819 62.1502332,120.732469 C63.341313,121.144164 64.8596228,121.160483 66.6586838,120.835509 C65.7192472,121.736296 65.1445993,122.338686 65.081219,122.410021 L64.3319233,123.224553 L64.6727683,124.279667 C64.8769937,124.923552 66.8201861,130.580512 71.163848,130.191196 C73.5408432,129.976723 74.8253502,129.064747 76.318308,128.005903 C77.0924863,127.4548 77.9685427,126.834693 79.2107961,126.160968 C81.3206552,125.006544 87.3009368,124.276403 91.4140822,124.002717 C92.1882606,126.101289 93.7070399,130.132916 94.816899,132.385349 C96.2417816,135.289127 101.001406,141.535421 105.862439,141.152167 C108.14319,140.975927 110.477462,139.440113 113.429105,137.498666 C115.986382,135.820181 118.883096,133.915567 122.225819,132.595159 C129.048354,129.912381 140.396241,129.243319 140.507508,129.233528 L141.004691,129.206952 L141.421593,128.948651 C144.36901,127.120036 145.173705,124.926816 145.254456,124.682969 L145.428165,124.157044 C145.428165,124.157044 144.679809,121.147428 144.488729,120.371129 C144.734738,119.587836 145.870888,116.052761 145.870888,116.052761 C145.870888,116.052761 142.561499,111.392168 141.111264,109.348613 C149.452578,104.357919 161.719245,96.7035624 163.063376,94.0720715 C163.335677,93.5377539 163.467602,92.9899151 163.467602,92.4560637 C163.467602,91.911955 163.331451,91.3860298 163.054926,90.8983367 C161.774644,88.62026 157.780278,88.105991 156.584973,88.0048157 L156.049761,87.9567924 L155.568071,88.1908477 C155.449761,88.2491284 145.092485,93.2887786 138.686382,96.1422026 C138.201874,92.6817267 136.640842,81.6358989 136.640842,81.6358989 C136.640842,81.6358989 133.76948,82.3576473 132.991546,82.5516055 C132.676992,81.8214647 132.51502,81.4503331 132.187321,80.6838251 C132.481687,80.3984827 133.994832,78.8953064 133.994832,78.8953064 L131.11549,75.1741992 C131.11549,75.1741992 129.647884,74.728002 128.771828,74.4622419 C128.873706,74.0808529 128.916429,73.9316543 128.984504,73.6859428 C129.865255,72.9926354 141.621593,63.7796196 143.233799,62.5188911 C144.964316,63.3436798 153.492484,67.4000177 153.492484,67.4000177 L156.946475,64.662689 C156.946475,64.662689 158.176052,63.3035827 159.137555,62.2517323 C159.770888,62.7095856 160.408916,63.1641752 160.408916,63.1641752 C160.408916,63.1641752 163.181686,65.2450299 165.173235,66.7360838 C162.824879,68.4901003 158.167602,71.9603673 158.167602,71.9603673 L157.304221,79.2818241 C157.304221,79.2818241 160.969949,80.8875745 162.106099,81.3855249 C162.45117,82.9497794 164.386381,91.7874674 164.386381,91.7874674 L185.984972,95.8904299 C185.984972,95.8904299 187.665254,92.1310905 188.167131,91.0125669 C189.239432,90.764058 192.420652,90.0325184 192.420652,90.0325184 C192.420652,90.0325184 192.888728,85.5379095 192.994831,84.5075064 C193.399056,84.1298473 194.330512,83.2519066 194.330512,83.2519066 C194.330512,83.2519066 194.661967,81.1132374 194.845066,79.9504205 C195.058211,79.903796 196.465253,79.5788227 196.465253,79.5788227 L197.924408,74.4757631 L188.438962,58.6830874 C188.438962,58.6830874 171.276522,39.7055804 170.221592,38.5375882 Z M199.999995,74.2048743 L198.005629,81.184573 C198.005629,81.184573 196.669948,81.4913627 196.55023,81.5198037 C196.401873,82.4788712 196.133798,84.1923243 196.133798,84.1923243 C196.133798,84.1923243 195.227695,85.043689 194.836615,85.4087594 C194.726286,86.4820571 194.194361,91.5902454 194.194361,91.5902454 C194.194361,91.5902454 190.676991,92.3982493 189.536615,92.6598131 C189.009854,93.8366174 187.129573,98.0570738 187.129573,98.0570738 C187.129573,98.0570738 167.239902,94.2776858 165.177461,93.8841744 C165.075583,94.234325 164.96009,94.5863405 164.785442,94.9318286 C164.297179,95.8866999 162.982156,98.3885745 143.867602,109.922562 C145.211733,111.805262 148.001405,115.725456 148.001405,115.725456 C148.001405,115.725456 146.746945,119.631197 146.483095,120.434072 C146.67887,121.214101 147.436147,124.234907 147.436147,124.234907 L147.082625,125.286757 C146.913142,125.792634 145.891546,128.433916 142.442719,130.569322 L141.604222,131.088253 L140.621593,131.145135 C137.538025,131.320444 128.367602,132.238015 122.936617,134.374819 C119.776053,135.619229 116.972767,137.465562 114.49718,139.093226 C111.302814,141.189933 108.789669,142.842774 106.016429,143.060045 C99.644129,143.562658 94.4131432,135.933013 93.0816878,133.22226 C92.1460071,131.31718 90.9629085,128.286583 90.1168992,126.025291 C85.4887303,126.409943 81.4183078,127.136821 80.1338008,127.836655 C78.9934253,128.459093 78.2023455,129.021386 77.4370873,129.564096 C75.8638479,130.678889 74.2295756,131.835179 71.3328621,132.097209 C66.9014068,132.495383 63.9877918,128.446971 62.8352097,124.856879 L62.1624398,122.756908 C62.1624398,122.756908 62.2009374,122.712148 62.2051628,122.710283 C61.9755853,122.653868 61.7333318,122.614237 61.5159609,122.539171 C58.173238,121.389409 56.2502333,118.562561 55.6211254,116.490565 L55.4389658,115.888176 C55.4389658,115.888176 55.5408437,112.842192 55.5957733,111.173033 C54.4046935,110.844796 53.1929564,110.506301 52.920656,110.430303 C52.43521,110.42331 32.861079,110.07176 32.861079,110.07176 L31.7295767,108.517297 C30.8107974,107.244912 28.9218303,104.857734 27.7994829,103.853441 C26.5918303,102.782008 23.1037083,100.389235 21.1860089,99.1317702 L18.228638,97.1926542 C18.228638,97.1926542 18.3483563,96.9655925 18.4165723,96.8425036 C16.540516,96.2783463 14.3372297,95.6162774 14.3372297,95.6162774 C14.2563377,95.5920326 7.28525803,93.471547 2.90822997,92.9899151 L0,92.5889438 L0,70.7150249 L5.04253509,70.7150249 L20.8982624,0 L100.359152,0 L159.452578,18.5165299 L172.736146,32.117431 C172.736146,32.117431 172.32347,36.6665906 172.215958,37.8768247 C173.270888,39.0415066 189.99577,57.5435828 189.99577,57.5435828 L199.999995,74.2048743 Z" id="path14" fill="#FFFFFF"></path>
                        <path d="M186.882624,59.8230582 L168.231921,39.1977921 L168.74178,33.5240011 L157.367602,21.8725667 L99.7676031,3.82886129 L25.7069947,3.82886129 L8.52863828,74.6962973 L3.6029201,74.7144809 L3.6029201,89.2799978 C8.40098571,89.8110517 15.4559151,91.9553158 15.4559151,91.9553158 L24.0775581,94.5462434 L23.3082154,95.9370544 C23.3082154,95.9370544 28.5092012,99.347642 30.364788,101.003281 C32.2271353,102.654257 34.8560555,106.280716 34.8560555,106.280716 L53.4816888,106.614082 L59.5474164,108.296296 L59.3084492,115.384164 C59.3084492,115.384164 60.1084492,118.005398 62.7882613,118.924368 C62.9474163,118.979385 63.1164303,119.021347 63.2901393,119.057714 C63.3352097,119.067039 63.3807496,119.075432 63.426759,119.083358 C63.583097,119.111333 63.7441299,119.133246 63.911266,119.147234 C63.9342707,119.149099 63.9568059,119.152828 63.9798106,119.154693 C64.1699514,119.168215 64.3671345,119.172411 64.568543,119.169613 C64.6183082,119.169147 64.668543,119.166816 64.7187777,119.165417 C64.8906087,119.159822 65.0657261,119.149099 65.2455383,119.13278 C65.2863833,119.12905 65.3262894,119.127185 65.3671345,119.122523 C65.5816885,119.100609 65.8014068,119.071235 66.0253505,119.034868 C66.0755852,119.026942 66.1262894,119.017151 66.1769937,119.008292 C66.3638481,118.976121 66.5539889,118.939288 66.7464772,118.897792 C66.8018763,118.886136 66.8568058,118.875412 66.9126744,118.862357 C67.1460077,118.810138 67.3826274,118.752323 67.623003,118.687981 C67.6676039,118.675859 67.7136133,118.662338 67.7586838,118.650216 C67.9619701,118.594266 68.1676039,118.534587 68.3751157,118.471177 C68.4427213,118.450662 68.5103269,118.429681 68.578402,118.4087 C68.8234725,118.331304 69.0704208,118.250643 69.3201861,118.163921 C69.3549278,118.151799 69.3901391,118.138744 69.4248809,118.126622 C69.6450687,118.049225 69.8661954,117.968564 70.0887306,117.885106 C70.1690123,117.854334 70.249294,117.824028 70.3300452,117.793256 C70.5474161,117.709798 70.7652564,117.624009 70.9845053,117.534956 C71.0258198,117.518171 71.0671344,117.502319 71.1079794,117.485534 C71.3558668,117.383892 71.604693,117.278521 71.8535193,117.171284 C71.9450686,117.131653 72.0366179,117.092022 72.1281672,117.051459 C72.3107963,116.971265 72.4938949,116.889672 72.676524,116.80668 C72.7577447,116.769847 72.8384958,116.733946 72.919247,116.697112 C73.1549277,116.588477 73.390139,116.477977 73.6253503,116.366078 C73.731923,116.315257 73.8375568,116.264436 73.9436601,116.212683 C74.0948338,116.139949 74.2450686,116.066282 74.3948338,115.992615 C74.5051625,115.938064 74.6150216,115.88398 74.7248808,115.828963 C74.9403737,115.72126 75.1549277,115.612625 75.3680732,115.503057 C75.4971812,115.43685 75.6248807,115.370177 75.7525803,115.303504 C75.8615005,115.246622 75.9704206,115.18974 76.0784019,115.132858 C76.2178385,115.059657 76.3563361,114.986457 76.4934253,114.91279 C76.5568056,114.87922 76.6192469,114.845184 76.6821577,114.811148 C76.9807492,114.65076 77.273707,114.490837 77.5619699,114.330915 C77.600937,114.309468 77.6399042,114.28802 77.6784018,114.267039 C78.5784018,113.766291 79.4253501,113.276267 80.184505,112.824009 L80.1981201,112.988127 C80.156336,113.013305 80.1159604,113.038948 80.0746459,113.063659 C72.0882611,117.89583 67.2469467,122.907505 66.5906087,123.605475 C66.5741767,123.623193 66.5596227,123.638112 66.5483551,123.650701 C66.5380265,123.661891 66.5338012,123.666087 66.5272284,123.673081 C66.5145523,123.686602 66.5061016,123.695927 66.5061016,123.695927 C66.5061016,123.695927 68.0624396,128.550011 70.9892001,128.286583 C73.9150216,128.019424 74.6258197,126.472887 78.2793408,124.485281 C81.9286364,122.493013 92.7413122,122.010449 92.7413122,122.010449 C92.7413122,122.010449 95.0676033,128.542085 96.5436596,131.546573 C98.0192464,134.549195 102.213612,139.523105 105.714082,139.246155 C109.214551,138.972002 114.327697,133.655402 121.520185,130.816898 C128.716898,127.984455 140.400935,127.32565 140.400935,127.32565 C142.846475,125.809419 143.424879,124.078715 143.424879,124.078715 L142.480278,120.301192 L143.744128,116.37447 L138.338025,108.767671 C138.338025,108.767671 159.941311,95.9631642 161.339902,93.2127806 C162.736146,90.4554033 156.415489,89.9075645 156.415489,89.9075645 C156.415489,89.9075645 156.399527,89.9154907 156.368541,89.9304106 C155.525818,90.3407068 142.834269,96.5096042 137.131452,98.905641 L135.028635,84.0132859 L132.123001,84.7443592 L131.881217,84.5587934 L131.698119,84.4179872 L129.903753,80.2469528 L131.434738,78.7293229 L129.962908,76.8247091 L126.436617,75.7546751 C126.436617,75.7546751 126.852579,74.3102458 127.286851,72.5781429 L142.982626,60.2809116 L153.233799,65.1564432 L155.619245,63.2667493 L158.86948,59.6953069 L159.300935,60.0058266 L161.565724,61.6376867 L168.3507,66.7197652 L168.388259,66.7309551 L159.984034,72.9958991 L159.384034,78.1040874 L163.781217,80.0301486 L165.993423,90.1467486 L184.845066,93.7270496 L186.793423,89.3634558 L190.642249,88.4780551 L191.153047,83.6053209 L192.527225,82.3110227 L193.139432,78.3824361 L194.922061,77.9698086 L195.84084,74.7480506 L186.882624,59.8230582 Z M196.465253,79.5788227 C196.465253,79.5788227 195.058211,79.903796 194.845066,79.9504205 C194.661967,81.1132374 194.330512,83.2519066 194.330512,83.2519066 C194.330512,83.2519066 193.399056,84.1298473 192.994831,84.5075064 C192.888728,85.5379095 192.420652,90.0325184 192.420652,90.0325184 C192.420652,90.0325184 189.239432,90.764058 188.167131,91.0125669 C187.665254,92.1310905 185.984972,95.8904299 185.984972,95.8904299 L164.386381,91.7874674 C164.386381,91.7874674 162.45117,82.9497794 162.106099,81.3855249 C160.969949,80.8875745 157.304221,79.2818241 157.304221,79.2818241 L158.167602,71.9603673 C158.167602,71.9603673 162.824879,68.4901003 165.173235,66.7360838 C163.181686,65.2450299 160.408916,63.1641752 160.408916,63.1641752 C160.408916,63.1641752 159.770888,62.7095856 159.137555,62.2517323 C158.176052,63.3035827 156.946475,64.662689 156.946475,64.662689 L153.492484,67.4000177 C153.492484,67.4000177 144.964316,63.3436798 143.233799,62.5188911 C141.621593,63.7796196 129.865255,72.9926354 128.984504,73.6859428 C128.916429,73.9316543 128.873706,74.0808529 128.771828,74.4622419 C129.647884,74.728002 131.11549,75.1741992 131.11549,75.1741992 L133.994832,78.8953064 C133.994832,78.8953064 132.481687,80.3984827 132.187321,80.6838251 C132.51502,81.4503331 132.676992,81.8214647 132.991546,82.5516055 C133.76948,82.3576473 136.640842,81.6358989 136.640842,81.6358989 C136.640842,81.6358989 138.201874,92.6817267 138.686382,96.1422026 C145.092485,93.2887786 155.449761,88.2491284 155.568071,88.1908477 L156.049761,87.9567924 L156.584973,88.0048157 C157.780278,88.105991 161.774644,88.62026 163.054926,90.8983367 C163.331451,91.3860298 163.467602,91.911955 163.467602,92.4560637 C163.467602,92.9899151 163.335677,93.5377539 163.063376,94.0720715 C161.719245,96.7035624 149.452578,104.357919 141.111264,109.348613 C142.561499,111.392168 145.870888,116.052761 145.870888,116.052761 C145.870888,116.052761 144.734738,119.587836 144.488729,120.371129 C144.679809,121.147428 145.428165,124.157044 145.428165,124.157044 L145.254456,124.682969 C145.173705,124.926816 144.36901,127.120036 141.421593,128.948651 L141.004691,129.206952 L140.507508,129.233528 C140.396241,129.243319 129.048354,129.912381 122.225819,132.595159 C118.883096,133.915567 115.986382,135.820181 113.429105,137.498666 C110.477462,139.440113 108.14319,140.975927 105.862439,141.152167 C101.001406,141.535421 96.2417816,135.289127 94.816899,132.385349 C93.7070399,130.132916 92.1882606,126.101289 91.4140822,124.002717 C87.3009368,124.276403 81.3206552,125.006544 79.2107961,126.160968 C77.9685427,126.834693 77.0924863,127.4548 76.318308,128.005903 C74.8253502,129.064747 73.5408432,129.976723 71.163848,130.191196 C66.8201861,130.580512 64.8769937,124.923552 64.6727683,124.279667 L64.3319233,123.224553 L65.081219,122.410021 C65.1445993,122.338686 65.7192472,121.736296 66.6586838,120.835509 C64.8596228,121.160483 63.341313,121.144164 62.1502332,120.732469 C59.3084492,119.753819 57.8671347,117.257073 57.4676042,115.936199 L57.3690127,115.634538 C57.3690127,115.634538 57.5093882,111.601513 57.5694821,109.736996 C55.9779329,109.292197 53.5286372,108.611945 53.2009376,108.522426 C52.7154916,108.512634 33.8609381,108.175539 33.8609381,108.175539 L33.2948348,107.397375 C32.5973701,106.436442 30.4746002,103.667875 29.0841307,102.428594 C27.6469007,101.147817 23.664929,98.4617751 22.2448821,97.5344123 L20.768591,96.5636887 C20.768591,96.5636887 21.0112201,96.1226202 21.2490605,95.6946066 C18.7817366,94.9546747 14.894178,93.7867291 14.894178,93.7867291 C14.8175114,93.7634168 7.68098572,91.5902454 3.12133326,91.0890312 L1.99530511,91.0242231 L1.99530511,72.6802507 L6.96615006,72.6802507 L22.62399,1.91306688 L100.06103,1.91306688 L158.40563,20.1953409 L170.736146,32.8204363 C170.736146,32.8204363 170.33286,37.3280535 170.221592,38.5375882 C171.276522,39.7055804 188.438962,58.6830874 188.438962,58.6830874 L197.924408,74.4757631 L196.465253,79.5788227 Z" id="path16" fill="#EDCB04"></path>
                        <path d="M71.1079794,117.671284 C71.3558668,117.509563 71.604693,117.341907 71.8535193,117.171284 C71.604693,117.341907 71.3558668,117.509563 71.1079794,117.671284" id="path18" fill="#AEACAC"></path>
                        <path d="M67.7586838,118.971177 C67.9619701,118.814927 68.1676039,118.648261 68.3751157,118.471177 C68.1676039,118.648261 67.9619701,118.814927 67.7586838,118.971177" id="path20" fill="#AEACAC"></path>
                        <path d="M70.3300452,118.034956 C70.5474161,117.873403 70.7652564,117.707338 70.9845053,117.534956 C70.7652564,117.707338 70.5474161,117.873403 70.3300452,118.034956" id="path22" fill="#AEACAC"></path>
                        <path d="M69.4248809,118.385106 C69.6450687,118.224875 69.8661954,118.057886 70.0887306,117.885106 C69.8661954,118.057886 69.6450687,118.224875 69.4248809,118.385106" id="path24" fill="#AEACAC"></path>
                        <path d="M66.1769937,119.213792 C66.3638481,119.121792 66.5539889,119.016459 66.7464772,118.897792 C66.5539889,119.016459 66.3638481,119.121792 66.1769937,119.213792" id="path26" fill="#AEACAC"></path>
                        <path d="M68.578402,118.663921 C68.8234725,118.505826 69.0704208,118.341064 69.3201861,118.163921 C69.0704208,118.341064 68.8234725,118.505826 68.578402,118.663921" id="path28" fill="#AEACAC"></path>
                        <path d="M62.7882613,118.924368 C62.9474163,119.081701 63.1164303,119.201701 63.2901393,119.305701 C63.1164303,119.201701 62.9474163,119.081701 62.7882613,118.924368" id="path30" fill="#AEACAC"></path>
                        <path d="M63.426759,119.083358 C63.5880962,119.163358 63.7542784,119.226025 63.926759,119.266025 C63.7542784,119.226025 63.5880962,119.163358 63.426759,119.083358" id="path32" fill="#AEACAC"></path>
                        <path d="M64.7187777,119.226113 C64.8906087,119.210113 65.0661956,119.179447 65.2455383,119.13278 C65.0657261,119.179447 64.8906087,119.210113 64.7187777,119.226113" id="path34" fill="#AEACAC"></path>
                        <path d="M65.3671345,119.285535 C65.5816885,119.222868 65.8014068,119.138868 66.0253505,119.034868 C65.8014068,119.138868 65.5816885,119.222868 65.3671345,119.285535" id="path36" fill="#AEACAC"></path>
                        <path d="M63.9798106,119.154693 C64.1699514,119.19336 64.3671345,119.20536 64.568543,119.19736 C64.3671345,119.20536 64.1699514,119.19336 63.9798106,119.154693" id="path38" fill="#AEACAC"></path>
                        <path d="M66.9126744,119.186648 C67.1460077,119.037315 67.3826274,118.871981 67.623003,118.687981 C67.3826274,118.871981 67.1460077,119.037315 66.9126744,119.186648" id="path40" fill="#AEACAC"></path>
                        <polygon id="path42" fill="#AEACAC" points="131.881217 84.5587934 132.381217 85.0587934 132.378305 85.0587934"></polygon>
                        <path d="M137.131452,98.905641 C142.834269,96.5096042 155.525818,90.3407068 156.368541,89.9304106 C155.50563,90.350498 142.826288,96.5151991 137.131452,98.907506 L137.131452,98.905641" id="path44" fill="#AEACAC"></path>
                        <polygon id="path46" fill="#AEACAC" points="129.903753 80.2469528 131.698119 84.4179872 131.694363 84.4147235"></polygon>
                        <polyline id="path48" fill="#AEACAC" points="168.3507 66.7197652 161.565724 61.6376867 159.300935 60.0058266 161.590137 61.653539 168.3507 66.7197652"></polyline>
                        <path d="M72.1281672,117.30668 C72.3107963,117.14287 72.4938949,116.976204 72.676524,116.80668 C72.4938949,116.976204 72.3107963,117.14287 72.1281672,117.30668" id="path50" fill="#AEACAC"></path>
                        <polyline id="path52" fill="#AEACAC" points="159.984034 72.9958991 168.388259 66.7309551 168.3507 66.7197652 168.392484 66.7304889 159.984034 72.9958991"></polyline>
                        <path d="M80.4266459,113.167069 C80.3079792,113.219394 80.1919792,113.27172 80.0746459,113.323076 C80.1919792,113.27172 80.3066459,113.218425 80.4253125,113.1661 L80.3866459,112.825014 C80.3879792,112.824045 80.3879792,112.824045 80.3893125,112.823076 L80.4266459,113.167069" id="path54" fill="#AEACAC"></path>
                        <path d="M77.5619699,114.449706 C77.6726366,114.388373 77.7833032,114.327039 77.8926366,114.267039 C77.7833032,114.327039 77.6726366,114.388373 77.5619699,114.449706" id="path56" fill="#AEACAC"></path>
                        <path d="M75.7525803,115.620858 C75.9197272,115.458191 76.0868742,115.295524 76.2525803,115.132858 C76.0868742,115.295524 75.9197272,115.458191 75.7525803,115.620858" id="path58" fill="#AEACAC"></path>
                        <path d="M76.4934253,115.101815 C76.6613358,115.005815 76.8267587,114.908482 76.9934253,114.811148 C76.8267587,114.908482 76.6613358,115.005815 76.4934253,115.101815" id="path60" fill="#AEACAC"></path>
                        <path d="M66.5661016,123.673081 C66.539435,123.702414 66.5061016,123.738414 66.5061016,123.738414 C66.5061016,123.738414 66.5301016,123.711748 66.5661016,123.673081" id="path62" fill="#AEACAC"></path>
                        <path d="M73.9436601,116.492615 C74.1111939,116.327361 74.2776872,116.159988 74.4436601,115.992615 C74.2776872,116.159988 74.1111939,116.327361 73.9436601,116.492615" id="path64" fill="#AEACAC"></path>
                        <path d="M74.7248808,116.003057 C74.9403737,115.837821 75.1549277,115.671154 75.3680732,115.503057 C75.1549277,115.671154 74.9403737,115.837821 74.7248808,116.003057" id="path66" fill="#AEACAC"></path>
                        <path d="M72.919247,116.866078 C73.1549277,116.701993 73.3906085,116.535092 73.6253503,116.366078 C73.390139,116.535092 73.1549277,116.701993 72.919247,116.866078" id="path68" fill="#AEACAC"></path>
                        <path d="M66.6683551,123.605475 C66.6270218,123.650809 66.5776885,123.702809 66.5483551,123.734809 C66.5803551,123.698809 66.6216885,123.656142 66.6683551,123.605475" id="path70" fill="#AEACAC"></path>
                        <polyline id="path72" fill="#FFFFFF" points="183.156803 92.0746747 167.401404 88.0229993 166.81455 84.8791042 169.030512 85.8335093 168.239902 87.3245631 170.366193 85.8549566 183.846005 88.62026 183.156803 92.0746747"></polyline>
                        <polyline id="path74" fill="#FFFFFF" points="188.890136 87.5870595 185.925817 87.5422999 171.78685 83.9251655 174.249291 81.92637 189.310793 83.6118483 188.890136 87.5870595"></polyline>
                        <polyline id="path76" fill="#FFFFFF" points="178.567132 78.6761709 179.14178 77.5380651 191.433798 78.9983467 191.616897 77.0685556 191.501873 76.4992696 184.139432 73.4136553 193.063375 75.3812123 194.219713 77.0270598 192.152577 77.4187062 192.118775 80.9822224 190.770418 82.2070499 178.567132 78.6761709"></polyline>
                        <polyline id="path78" fill="#FFFFFF" points="168.515958 66.6381722 168.392484 66.7304889 168.3507 66.7197652 161.590137 61.653539 168.515958 66.6381722"></polyline>
                        <path d="M156.100466,53.7324902 L168.354925,56.7020093 L174.726287,62.2582597 L173.471827,63.1343355 C173.471827,63.1343355 169.728165,61.2926648 169.39624,61.1933545 C169.056334,61.1005716 170.821592,63.6322859 171.183094,64.1134515 C171.561498,64.6044083 170.153986,65.3541314 170.153986,65.3541314 L156.100466,53.7324902" id="path80" fill="#FFFFFF"></path>
                        <path d="M169.966662,72.0834562 L164.002813,78.6761709 C164.002813,78.6761709 161.982156,77.1613385 161.78685,76.921222 C161.608447,76.6717805 162.357273,74.0109161 162.357273,74.0109161 L166.55962,71.6302653 L168.882155,70.0608822 L169.966662,72.0834562" id="path82" fill="#FFFFFF"></path>
                        <path d="M140.434738,50.5652829 L141.634269,54.9456616 L136.848823,53.3096053 L139.435208,56.8815139 L134.922062,56.6558509 L130.154457,68.2243402 L143.153048,56.0935586 L152.935677,62.3813486 L153.616428,54.622087 C153.616428,54.622087 152.268071,58.3898188 149.371358,57.8750835 C146.449762,57.3594158 140.434738,50.5652829 140.434738,50.5652829 Z M78.3896694,122.81006 C85.0168993,119.836811 93.5361479,120.619638 93.5361479,120.619638 C93.5361479,120.619638 95.6798098,118.632498 102.792016,116.263504 C99.3464764,117.139113 89.8145517,118.068341 87.4032842,118.642289 C83.9450683,119.469876 75.9056319,123.921124 78.3896694,122.81006 Z M138.724879,119.738433 L141.880748,117.309759 L130.154457,120.132411 L138.724879,119.738433 Z M156.69624,91.6830283 L156.641311,90.9099929 C156.641311,90.9099929 135.441311,103.020726 123.671828,104.379366 C120.337086,104.763086 107.917368,104.239959 100.133331,107.211343 C112.923002,105.42329 117.049293,106.574451 126.389668,105.08806 C135.700466,103.601668 156.69624,91.6830283 156.69624,91.6830283 Z M134.046945,85.9295559 L125.09671,89.1046894 L126.747415,90.5514499 L130.656335,89.4744222 L126.475114,92.5819501 L120.768072,88.2300124 C122.384973,90.5789584 123.7338,93.6118869 122.863847,94.6026591 C121.938025,95.6633682 119.540842,97.7945774 117.796241,99.3080111 C119.334269,99.3336546 122.141312,99.3028824 124.114081,98.8347717 C126.266664,98.3293613 126.48826,97.8710417 128.971358,96.8327125 L124.637556,96.2732176 L132.16948,93.6850875 L132.872297,90.9398326 L134.899997,96.3464182 L135.283565,96.2918674 L134.046945,85.9295559 Z M130.222532,78.7475065 L128.198119,77.9045342 L121.047884,80.3518581 L128.716898,79.8291966 L130.222532,78.7475065 Z M125.764786,68.7982887 C126.590138,69.1199983 125.373236,73.3805518 125.373236,73.3805518 L125.790138,73.4668073 C125.790138,73.4668073 127.432391,68.8910716 126.772767,68.1842431 C126.118307,67.4676234 122.727696,67.1095466 122.727696,67.1095466 L122.017837,68.5460498 C122.017837,68.5460498 124.923002,68.4733154 125.764786,68.7982887 Z M170.153986,65.3541314 C170.153986,65.3541314 171.561498,64.6044083 171.183094,64.1134515 C170.821592,63.6322859 169.056334,61.1005716 169.39624,61.1933545 C169.728165,61.2926648 173.471827,63.1343355 173.471827,63.1343355 L174.726287,62.2582597 L168.354925,56.7020093 L156.100466,53.7324902 L170.153986,65.3541314 Z M174.249291,81.92637 L171.78685,83.9251655 L185.925817,87.5422999 L188.890136,87.5870595 L189.310793,83.6118483 L174.249291,81.92637 Z M170.366193,85.8549566 L168.239902,87.3245631 L169.030512,85.8335093 L166.81455,84.8791042 L167.401404,88.0229993 L183.156803,92.0746747 L183.846005,88.62026 L170.366193,85.8549566 Z M166.55962,71.6302653 L162.357273,74.0109161 C162.357273,74.0109161 161.608447,76.6717805 161.78685,76.921222 C161.982156,77.1613385 164.002813,78.6761709 164.002813,78.6761709 L169.966662,72.0834562 L168.882155,70.0608822 L166.55962,71.6302653 Z M192.152577,77.4187062 L194.219713,77.0270598 L193.063375,75.3812123 L184.139432,73.4136553 L191.501873,76.4992696 L191.616897,77.0685556 L191.433798,78.9983467 L179.14178,77.5380651 L178.567132,78.6761709 L190.770418,82.2070499 L192.118775,80.9822224 L192.152577,77.4187062 Z M193.139432,78.3824361 L192.527225,82.3110227 L191.153047,83.6053209 L190.642249,88.4780551 L186.793423,89.3634558 L184.845066,93.7270496 L165.993423,90.1467486 L163.781217,80.0301486 L159.384034,78.1040874 L159.984034,72.9958991 L168.392484,66.7304889 L168.515958,66.6381722 L161.590137,61.653539 L159.300935,60.0058266 L158.86948,59.6953069 L155.619245,63.2667493 L153.233799,65.1564432 L142.982626,60.2809116 L127.286851,72.5781429 C126.852579,74.3102458 126.436617,75.7546751 126.436617,75.7546751 L129.962908,76.8247091 L131.434738,78.7293229 L129.903753,80.2469528 L131.694363,84.4147235 L131.698119,84.4179872 L131.881217,84.5587934 L132.121593,84.7443592 L132.123001,84.7443592 L135.028635,84.0132859 L137.131452,98.905641 L137.131452,98.907506 C142.826288,96.5151991 155.50563,90.350498 156.368541,89.9304106 C156.399527,89.9154907 156.415489,89.9075645 156.415489,89.9075645 C156.415489,89.9075645 162.736146,90.4554033 161.339902,93.2127806 C159.941311,95.9631642 138.338025,108.767671 138.338025,108.767671 L143.744128,116.37447 L142.480278,120.301192 L143.424879,124.078715 C143.424879,124.078715 142.846475,125.809419 140.400935,127.32565 C140.400935,127.32565 128.716898,127.984455 121.520185,130.816898 C114.327697,133.655402 109.214551,138.972002 105.714082,139.246155 C102.213612,139.523105 98.0192464,134.549195 96.5436596,131.546573 C95.0676033,128.542085 92.7413122,122.010449 92.7413122,122.010449 C92.7413122,122.010449 81.9286364,122.493013 78.2793408,124.485281 C74.6258197,126.472887 73.9150216,128.019424 70.9892001,128.286583 C68.0624396,128.550011 66.5061016,123.695927 66.5061016,123.695927 C66.5061016,123.695927 66.5178387,123.683338 66.5272284,123.673081 C66.5338012,123.666087 66.5380265,123.661891 66.5483551,123.650701 C66.5586838,123.639511 66.5760547,123.621328 66.5906087,123.605475 C67.2469467,122.907505 72.0882611,117.89583 80.0746459,113.063659 C80.1159604,113.038948 80.1568055,113.013771 80.1985895,112.988594 L80.185444,112.823076 C80.1849745,112.823543 80.1849745,112.823543 80.184505,112.824009 C79.4253501,113.276267 78.5784018,113.766291 77.6784018,114.267039 C77.6399042,114.28802 77.600937,114.309468 77.5619699,114.330915 C77.273707,114.490837 76.9807492,114.65076 76.6821577,114.811148 C76.6192469,114.845184 76.5568056,114.87922 76.4934253,114.91279 C76.3563361,114.986457 76.2178385,115.059657 76.0784019,115.132858 C75.9704206,115.18974 75.8615005,115.246622 75.7525803,115.303504 C75.6248807,115.370177 75.4971812,115.43685 75.3680732,115.503057 C75.1549277,115.612625 74.9403737,115.72126 74.7248808,115.828963 C74.6150216,115.88398 74.5051625,115.938064 74.3948338,115.992615 C74.2450686,116.066282 74.0948338,116.139949 73.9436601,116.212683 C73.8375568,116.264436 73.731923,116.315257 73.6253503,116.366078 C73.3906085,116.477977 73.1549277,116.588477 72.919247,116.697112 C72.8384958,116.733946 72.7577447,116.769847 72.676524,116.80668 C72.4938949,116.889672 72.3107963,116.971265 72.1281672,117.051459 C72.0366179,117.092022 71.9450686,117.131653 71.8535193,117.171284 C71.604693,117.278521 71.3558668,117.383892 71.1079794,117.485534 C71.0671344,117.502319 71.0258198,117.518171 70.9845053,117.534956 C70.7652564,117.624009 70.5474161,117.709798 70.3300452,117.793256 C70.249294,117.824028 70.1690123,117.854334 70.0887306,117.885106 C69.8661954,117.968564 69.6450687,118.049225 69.4248809,118.126622 C69.3901391,118.138744 69.3549278,118.151799 69.3201861,118.163921 C69.0704208,118.250643 68.8234725,118.331304 68.578402,118.4087 C68.5103269,118.429681 68.4427213,118.450662 68.3751157,118.471177 C68.1676039,118.534587 67.9619701,118.594266 67.7586838,118.650216 C67.7136133,118.662338 67.6676039,118.675859 67.623003,118.687981 C67.3826274,118.752323 67.1460077,118.810138 66.9126744,118.862357 C66.8568058,118.875412 66.8018763,118.886136 66.7464772,118.897792 C66.5539889,118.939288 66.3638481,118.976121 66.1769937,119.008292 C66.1262894,119.017151 66.0755852,119.026942 66.0253505,119.034868 C65.8014068,119.071235 65.5816885,119.100609 65.3671345,119.122523 C65.3262894,119.127185 65.2863833,119.12905 65.2455383,119.13278 C65.0661956,119.149099 64.8906087,119.159822 64.7187777,119.165417 C64.668543,119.166816 64.6183082,119.169147 64.568543,119.169613 C64.3671345,119.172411 64.1699514,119.168215 63.9798106,119.154693 C63.9568059,119.152828 63.9342707,119.149099 63.911266,119.147234 C63.7441299,119.133246 63.583097,119.111333 63.426759,119.083358 C63.3807496,119.075432 63.3352097,119.067039 63.2901393,119.057714 C63.1164303,119.021347 62.9474163,118.979385 62.7882613,118.924368 C60.1084492,118.005398 59.3084492,115.384164 59.3084492,115.384164 L59.5474164,108.296296 L53.4816888,106.614082 L34.8560555,106.280716 C34.8560555,106.280716 32.2271353,102.654257 30.364788,101.003281 C28.5092012,99.347642 23.3082154,95.9370544 23.3082154,95.9370544 L24.0775581,94.5462434 L15.4559151,91.9553158 C15.4559151,91.9553158 8.40098571,89.8110517 3.6029201,89.2799978 C3.6029201,89.2799978 3.5185586,74.6925673 3.6029201,74.7144809 C3.60456799,74.7149471 8.52863828,74.6962973 8.52863828,74.6962973 L24.3520651,3.82886129 L99.7676031,3.82886129 L133.108447,14.2727612 L118.922063,59.3787261 C103.949293,81.677861 76.1347399,86.3193373 76.1347399,86.3193373 C71.9450686,87.369789 67.3558669,88.2668458 62.2906088,88.9937229 C40.674506,92.0947233 14.328779,87.7148108 14.3164785,88.6799395 C14.2945067,89.639007 38.4719709,94.6875158 38.4719709,94.6875158 L56.4802803,94.1415421 L34.5369475,98.9993564 L39.0496704,104.066049 L56.6164305,103.750401 L61.299529,105.950614 L84.1361481,97.6458451 C84.1361481,97.6458451 76.01643,102.870129 71.2009372,106.27279 C68.8281673,107.953606 65.3445993,108.897287 64.6300453,110.347311 C63.2051627,113.218919 64.4896697,114.740279 64.4896697,114.740279 C70.9206555,115.008836 78.3347398,110.435432 82.0483548,106.518035 C86.5863828,101.736685 94.9356784,94.2394537 104.04272,90.0768117 C107.570889,88.4612703 110.020185,87.2271178 111.701875,86.3193373 C111.701875,86.3193373 112.923002,85.812062 114.18826,84.7443592 C115.453049,83.6766565 116.641312,81.5692257 116.641312,81.5692257 C116.982626,80.5537425 117.165725,79.2249422 117.653518,77.2727713 C119.453049,70.075802 118.922063,59.3787261 118.922063,59.3787261 C118.969011,58.8462734 133.108447,14.2727612 133.108447,14.2727612 L157.367602,21.8725667 L168.74178,33.5240011 L168.231921,39.1977921 L186.882624,59.8230582 L195.84084,74.7480506 L194.922061,77.9698086 L193.139432,78.3824361 Z" id="path84" fill="#0D4D84"></path>
                        <path d="M153.616428,54.622087 L152.935677,62.3813486 L143.153048,56.0935586 L130.154457,68.2243402 L134.922062,56.6558509 L139.435208,56.8815139 L136.848823,53.3096053 L141.634269,54.9456616 L140.434738,50.5652829 C140.434738,50.5652829 146.449762,57.3594158 149.371358,57.8750835 C152.268071,58.3898188 153.616428,54.622087 153.616428,54.622087" id="path86" fill="#EDCB04"></path>
                        <path d="M134.899997,96.3464182 L132.872297,90.9398326 L132.16948,93.6850875 L124.637556,96.2732176 L128.971358,96.8327125 C126.48826,97.8710417 126.266664,98.3293613 124.114081,98.8347717 C122.141312,99.3028824 119.334269,99.3336546 117.796241,99.3080111 C119.540842,97.7945774 121.938025,95.6633682 122.863847,94.6026591 C123.7338,93.6118869 122.384973,90.5789584 120.768072,88.2300124 L126.475114,92.5819501 L130.656335,89.4744222 L126.747415,90.5514499 L125.09671,89.1046894 L134.046945,85.9295559 L135.283565,96.2918674 L134.899997,96.3464182" id="path88" fill="#FFFFFF"></path>
                        <polyline id="path90" fill="#FFFFFF" points="128.716898 79.8291966 121.047884 80.3518581 128.198119 77.9045342 130.222532 78.7475065 128.716898 79.8291966"></polyline>
                        <path d="M111.528166,86.4125865 C110.356805,86.3193373 108.938964,86.7408235 108.684504,86.3193373 C108.740373,86.0591722 114.331453,82.0266128 115.211734,78.8743254 C115.899997,76.4102166 116.16056,73.5884974 116.348354,72.6406198 C116.430514,72.3301002 116.448354,72.2144712 116.407039,72.3720623 C116.392016,72.4289443 116.371828,72.5212609 116.348354,72.6406198 C116.130514,73.4607461 115.417837,75.5630481 114.148823,77.8299349 C114.137086,77.7982302 114.159622,77.8611734 114.148823,77.8299349 C113.880279,77.0433784 113.361969,75.1490219 112.421124,70.5835436 L111.71596,67.2130532 C114.276992,64.7279634 116.667603,62.1020674 119.014082,59.3619412 C119.014082,59.3619412 119.453049,70.075802 117.653518,77.2727713 C117.165725,79.2249422 117.57887,83.5209304 111.528166,86.4125865" id="path92" fill="#EDCB04"></path>
                        <path d="M41.5679802,102.987622 L57.0164305,102.758696 C57.0164305,102.758696 64.3281674,100.136996 68.7596227,98.886525 C73.1924864,97.6388514 84.7192467,92.3632808 84.7192467,92.3632808 C84.7192467,92.3632808 70.9591532,97.1446309 66.1140829,98.4785599 C55.2600925,101.458336 41.5679802,102.987622 41.5679802,102.987622 Z M111.71596,67.2130532 C123.656335,74.3685266 111.701875,86.3193373 111.701875,86.3193373 C110.020185,87.2271178 107.570889,88.4612703 104.04272,90.0768117 C94.9356784,94.2394537 86.5863828,101.736685 82.0483548,106.518035 C78.3347398,110.435432 70.9206555,115.008836 64.4896697,114.740279 C64.4896697,114.740279 63.2051627,113.218919 64.6300453,110.347311 C65.3445993,108.897287 68.8281673,107.953606 71.2009372,106.27279 C76.01643,102.870129 84.1361481,97.6458451 84.1361481,97.6458451 L61.299529,105.950614 L56.6164305,103.750401 L39.0496704,104.066049 L34.5369475,98.9993564 L56.4802803,94.1415421 L38.4719709,94.6875158 C38.4719709,94.6875158 14.2945067,89.639007 14.3164785,88.6799395 C14.328779,87.7148108 40.674506,92.0947233 62.2906088,88.9937229 C67.3558669,88.2668458 71.9450686,87.369789 76.1347399,86.3193373 C76.1347399,86.3193373 102.14319,77.9045342 111.71596,67.2130532 Z" id="path94" fill="#EDCB04"></path>
                        <path d="M116.348354,72.8018833 C116.415021,72.6257008 116.472354,72.4894346 116.515021,72.4054726 C116.632354,72.1728566 116.581687,72.3435335 116.348354,72.8018833" id="path96" fill="#FFFFFF"></path>
                        <polygon id="path98" fill="#FFFFFF" points="138.724879 119.738433 130.154457 120.132411 141.880748 117.309759"></polygon>
                        <path d="M126.389668,105.08806 C117.049293,106.574451 112.923002,105.42329 100.133331,107.211343 C107.917368,104.239959 120.337086,104.763086 123.671828,104.379366 C135.441311,103.020726 156.641311,90.9099929 156.641311,90.9099929 L156.69624,91.6830283 C156.69624,91.6830283 135.700466,103.601668 126.389668,105.08806" id="path100" fill="#FFFFFF"></path>
                        <path d="M87.4032842,118.642289 C89.8145517,118.068341 99.3464764,117.139113 102.792016,116.263504 C95.6798098,118.632498 93.5361479,120.619638 93.5361479,120.619638 C93.5361479,120.619638 85.0168993,119.836811 78.3896694,122.81006 C75.9056319,123.921124 83.9450683,119.469876 87.4032842,118.642289" id="path102" fill="#FFFFFF"></path>
                        <path d="M126.772767,68.1842431 C127.432391,68.8910716 125.790138,73.4668073 125.790138,73.4668073 L125.373236,73.3805518 C125.373236,73.3805518 126.590138,69.1199983 125.764786,68.7982887 C124.923002,68.4733154 122.017837,68.5460498 122.017837,68.5460498 L122.727696,67.1095466 C122.727696,67.1095466 126.118307,67.4676234 126.772767,68.1842431" id="path104" fill="#FFFFFF"></path>
                        <path d="M84.7192467,92.3632808 C84.7192467,92.3632808 73.1924864,97.6388514 68.7596227,98.886525 C64.3281674,100.136996 57.0164305,102.758696 57.0164305,102.758696 L41.5679802,102.987622 C41.5679802,102.987622 55.2600925,101.458336 66.1140829,98.4785599 C70.9591532,97.1446309 84.7192467,92.3632808 84.7192467,92.3632808" id="path106" fill="#FFFFFF"></path>
                        <path d="M110.172298,81.0833977 C114.572767,77.6513628 116.494363,71.1509647 116.899997,69.5158409 C116.539434,71.4997165 115.330983,80.4814744 114.281687,81.9869819 C113.690138,82.8528003 106.544129,86.5874286 103.145068,88.0346554 C99.7455374,89.4790847 84.038965,99.9449028 84.038965,99.9449028 C84.038965,99.9449028 103.754927,86.1029993 110.172298,81.0833977" id="path108" fill="#FFFFFF"></path>
                        <polyline id="path110" fill="#FFFFFF" points="63.8389655 4.74498288 53.3183085 41.3532462 43.5654919 4.74498288 25.9616895 4.74498288 9.70619694 76.452645 5.32718297 76.452645 5.32718297 88.5568506 33.4107034 88.5568506 33.4107034 76.452645 28.9605157 76.452645 35.901924 47.535618 37.7255859 41.315387 39.8879333 47.983214 47.6417828 74.8529559 62.1150219 74.8529559 72.6140827 40.1129859 81.5943642 76.452645 77.2136131 76.452645 77.2136131 88.5568506 101.847415 88.5568506 101.847415 76.452645 96.8849741 76.452645 79.1267586 4.74498288 63.8389655 4.74498288"></polyline>
                        <path d="M76.7046929,89.0627273 L76.7046929,75.9472346 L80.9455379,75.9472346 L74.4065709,49.485924 L72.5652564,42.0338717 L62.7117355,74.6389491 L62.4934257,75.3592987 L61.7366182,75.3592987 L48.0248814,75.3592987 L47.2582148,75.3592987 L47.0464777,74.6263604 L41.3052102,54.7293235 L40.5496234,52.10809 L40.3895295,51.556055 L39.3984967,48.1221552 L37.7503277,43.0401233 L36.3904686,47.6773567 L29.604788,75.9472346 L32.902018,75.9472346 L33.9194358,75.9472346 L33.9194358,76.9580554 L33.9194358,88.0519065 L33.9194358,89.0627273 L4.81826279,89.0627273 L4.81826279,88.0519065 L4.81826279,76.9580554 L4.81826279,75.9472346 L5.83629093,75.9472346 L9.2990608,75.9472346 L15.2776522,49.5754432 L15.6093893,48.1132965 L25.3753984,5.02855354 L25.5544125,4.23955851 L26.3688256,4.23955851 L43.1738017,4.23955851 L43.9579801,4.23955851 L44.1580271,4.99158025 L50.619717,29.2476418 L53.3366184,39.4482127 L63.2441299,4.97353654 L63.4553975,4.23955851 L64.2220641,4.23955851 L78.7272281,4.23955851 L79.5262891,4.23955851 L79.715491,5.00976384 L97.2835656,75.9472346 L101.338026,75.9472346 L102.355866,75.9472346 L102.355866,76.9580554 L102.355866,88.0519065 L102.355866,89.0627273 L76.7046929,89.0627273 Z M77.7225333,88.0519065 L101.338026,88.0519065 L101.338026,76.9580554 L96.4863826,76.9580554 L78.7272281,5.25090613 L64.2220641,5.25090613 L53.2995292,43.2586993 L49.6366185,29.5055223 L43.1738017,5.25090613 L26.3688256,5.25090613 L16.6023001,48.3338307 L16.2703752,49.7973761 L10.1125819,76.9580554 L5.83629093,76.9580554 L5.83629093,88.0519065 L32.902018,88.0519065 L32.902018,76.9580554 L28.3164782,76.9580554 L35.4071353,47.4181241 L37.700985,39.5922826 L40.3728159,47.8274879 L41.3683088,51.2781726 L41.527276,51.8297413 L42.283614,54.4509748 L48.0248814,74.3480117 L61.7366182,74.3480117 L72.6638479,38.1921001 L75.3953033,49.2453412 L82.2431904,76.9580554 L77.7225333,76.9580554 L77.7225333,88.0519065 Z" id="path112" fill="#0D4D84"></path>
                        <polyline id="path114" fill="#EDCB04" points="31.078356 56.267002 25.7913139 78.9503234 30.9277927 78.9503234 30.9277927 86.0400561 7.02849748 86.0400561 7.02849748 86.8378026 31.7308443 86.8378026 31.7308443 78.152577 26.810281 78.152577 31.8698584 56.2539471 31.078356 56.267002"></polyline>
                        <polyline id="path116" fill="#EDCB04" points="65.9507026 56.267002 60.8230032 73.1567539 48.9028157 73.1567539 48.6845058 72.3590074 60.2220642 72.3590074 65.097651 56.267002 65.9507026 56.267002"></polyline>
                        <polyline id="path118" fill="#EDCB04" points="42.2701867 6.43419119 41.374506 6.41414263 45.9112665 23.3896837 46.8319237 23.3896837 42.2701867 6.43419119"></polyline>
                        <polyline id="path120" fill="#EDCB04" points="77.830984 6.42160256 76.974646 6.41414263 81.0849745 23.3896837 82.0046928 23.3896837 77.830984 6.42160256"></polyline>
                        <polyline id="path122" fill="#EDCB04" points="89.3291057 56.267002 95.0018756 78.9503234 99.344129 78.9503234 99.344129 86.0400561 78.9084487 86.0400561 78.9084487 86.8378026 100.147415 86.8378026 100.147415 78.152577 95.6239413 78.152577 90.1610306 56.2539471 89.3291057 56.267002"></polyline>
                    </g>
                </g>
            </g>
        </g>
    </g>
</svg>