<?xml version="1.0" encoding="UTF-8"?>
<svg width="200px" height="200px" viewBox="0 0 200 200" version="1.1" xmlns="http://www.w3.org/2000/svg" xmlns:xlink="http://www.w3.org/1999/xlink">
    <!-- Generator: Sketch 51.3 (57544) - http://www.bohemiancoding.com/sketch -->
    <title>neb-kearney</title>
    <desc>Created with Sketch.</desc>
    <defs></defs>
    <g id="neb-kearney" stroke="none" stroke-width="1" fill="none" fill-rule="evenodd">
        <g id="neb-kearney_BGL">
            <g id="neb-kearney" transform="translate(0.000000, 38.000000)">
                <path d="M65.1790634,0.0275555556 C69.7520661,0.330666667 74.2699725,0.964444444 78.7327824,1.95644444 C83.553719,3.03111111 88.4573003,4.57422222 92.8099174,6.944 C96.6666667,9.06577778 100.275482,11.9591111 102.176309,16.0373333 C102.754821,17.1946667 102.975207,18.4071111 103.360882,19.6195556 C104.022039,20.1431111 104.903581,20.4737778 105.647383,20.8595556 C137.052342,36.5662222 168.484848,52.2177778 199.889807,67.9244444 C195.53719,72.4986667 191.184573,77.0453333 186.831956,81.6195556 C185.592287,82.9422222 184.352617,84.2924444 182.947658,85.4497778 C179.614325,88.2328889 175.454545,90.4648889 171.07438,91.0435556 C168.512397,91.3191111 165.895317,91.2915556 163.305785,91.4844444 C155.151515,91.9804444 146.997245,92.5591111 138.842975,93.1377778 C130.027548,93.4684444 121.239669,94.6808889 112.644628,96.6097778 C103.801653,98.6213333 94.9035813,101.597333 86.8870523,105.923556 C78.9256198,110.249778 71.8181818,116.008889 66.9421488,123.752 C62.4517906,121.602667 58.0991736,119.04 53.9393939,116.284444 C45.5371901,110.745778 37.7134986,104.325333 30.6887052,97.1057778 C22.5344353,88.7288889 15.5096419,79.3048889 10.1101928,68.944 C5.48209366,60.0986667 2.0661157,50.6195556 5.68434189e-14,40.8373333 C7.24517906,40.6444444 14.4903581,40.6168889 21.7355372,40.5617778 C35.1515152,40.5342222 48.5950413,40.4791111 62.0110193,40.8373333 C59.7245179,37.9164444 57.5206612,34.8853333 55.5647383,31.7164444 C53.8842975,29.016 52.369146,26.3155556 51.4600551,23.2568889 C53.1680441,23.5048889 54.9035813,23.7528889 56.6115702,24.0008889 C46.969697,17.8835556 37.3002755,11.7937778 27.630854,5.704 C31.707989,5.15288889 35.8402204,4.87733333 39.9449036,4.60177778 C46.3360882,4.27111111 52.8374656,3.968 59.2286501,4.464 C61.707989,4.62933333 64.1322314,5.15288889 66.5564738,5.704 C67.630854,3.69244444 66.446281,1.62577778 65.1790634,0.0275555556 Z" id="Shape" fill="#014D87" fill-rule="nonzero"></path>
                <path d="M72.369146,5.56622222 C76.7768595,5.92444444 81.1570248,6.83377778 85.3168044,8.32177778 C88.9256198,9.61688889 92.4517906,11.4355556 95.2892562,14.0533333 C97.9889807,16.5884444 99.7520661,19.7022222 100.413223,23.3671111 C131.157025,38.6328889 161.900826,53.8986667 192.672176,69.1368889 C188.319559,73.5733333 183.99449,78.0097778 179.641873,82.4462222 C177.878788,84.2097778 175.289256,85.2568889 172.92011,85.8906667 C168.650138,87.0204444 164.655647,86.7724444 160.30303,87.1031111 C150.909091,87.6266667 141.515152,88.2604444 132.121212,88.8942222 C125.674931,89.4177778 119.283747,90.4097778 112.975207,91.7875556 C104.187328,93.7164444 95.3443526,96.5271111 87.2727273,100.550222 C78.8705234,104.766222 71.0743802,110.497778 65.7300275,118.323556 C56.8044077,113.639111 48.5123967,107.632 40.9366391,100.963556 C29.8071625,91.0711111 20.1928375,79.2222222 13.4435262,65.9128889 C10.0826446,59.2995556 7.46556474,52.3004444 5.56473829,45.136 C21.2396694,44.8053333 36.8870523,44.6951111 52.5619835,44.888 C59.6143251,45.0533333 66.6666667,45.1911111 73.6914601,45.632 C70.4132231,43.152 67.3553719,40.3688889 64.6831956,37.2275556 C62.5619835,34.7475556 60.7162534,32.0471111 59.476584,28.9884444 C66.3636364,29.9528889 73.2506887,31 80.1101928,32.1848889 C68.0716253,25.0755556 56.0330579,17.9111111 44.0220386,10.7742222 C43.3057851,10.3608889 42.6170799,9.92 41.9008264,9.47911111 C47.1625344,8.90044444 52.4793388,8.79022222 57.768595,8.95555556 C60.6887052,9.01066667 63.4435262,9.672 66.2534435,10.3333333 C68.2644628,10.8568889 70.2479339,11.6835556 72.1487603,12.3173333 C72.6170799,12.4551111 73.1955923,12.6755556 73.6914601,12.5928889 C74.5454545,12.2622222 75.0413223,11.3804444 74.9311295,10.4711111 C74.7658402,8.98311111 73.8016529,7.52266667 72.9201102,6.36533333 C72.7823691,6.11733333 72.5895317,5.84177778 72.369146,5.56622222 Z" id="Shape" fill="#FFFFFF" fill-rule="nonzero"></path>
                <path d="M80.523416,11.3804444 C84.6280992,12.5102222 88.5950413,14.136 91.8181818,17.0293333 C94.5454545,19.4817778 96.4187328,22.816 96.5564738,26.536 C126.225895,41.1955556 155.867769,55.8826667 185.53719,70.5422222 C182.865014,73.0497778 180.165289,75.5573333 177.520661,78.12 C174.903581,80.9582222 170.661157,82.1155556 166.914601,82.3084444 C159.972452,82.4737778 153.030303,82.6942222 146.115702,83.1902222 C132.231405,84.2097778 118.292011,85.9182222 104.683196,88.8666667 C103.69146,89.0044444 102.424242,89.6657778 101.487603,89.1422222 C99.862259,88.4257778 98.3746556,87.3235556 96.969697,86.2488889 C92.6170799,82.8044444 88.5674931,78.7813333 84.6831956,74.8133333 C81.5702479,74.8133333 78.3471074,74.0693333 75.3168044,73.3804444 C68.0440771,71.6444444 60.8264463,69.5226667 53.6914601,67.2631111 C62.1212121,75.5297778 71.707989,82.832 82.1763085,88.3431111 C85.5647383,90.1066667 89.0633609,91.7324444 92.6997245,92.9173333 C86.0055096,95.4248889 79.6969697,98.8968889 74.0495868,103.305778 C70.523416,106.061333 67.2451791,109.092444 64.4077135,112.564444 C48.1267218,103.360889 33.8292011,90.3546667 23.7741047,74.5377778 C21.8732782,71.5066667 20.0826446,68.3653333 18.6501377,65.0862222 C23.1129477,70.0462222 28.6501377,73.6284444 34.7107438,76.2737778 C39.9449036,78.5333333 45.5371901,80.1591111 51.184573,81.0684444 C44.3250689,77.1004444 38.3471074,72.0026667 32.8099174,66.3537778 C27.768595,61.1457778 23.1404959,55.552 19.0358127,49.5724444 C31.184573,48.8008889 43.4435262,49.0764444 55.5922865,49.5173333 C69.9173554,50.1235556 84.2424242,51.088 98.5399449,52.328 C98.5123967,51.9422222 98.5123967,51.5564444 98.4848485,51.1431111 C95.261708,50.5368889 92.0936639,49.7377778 88.9256198,48.9937778 C85.6473829,48.2773333 82.5068871,46.5964444 79.7520661,44.7226667 C75.7024793,41.9395556 72.0936639,38.4675556 68.9256198,34.72 C80.7713499,37.0071111 92.5895317,39.4595556 104.435262,41.7742222 C103.360882,41.0853333 102.286501,40.4515556 101.212121,39.7902222 C86.8595041,31.0826667 72.4242424,22.5128889 58.0440771,13.888 C61.5426997,13.7502222 64.9311295,14.4115556 68.2644628,15.4311111 C72.9201102,16.864 77.1349862,18.8755556 81.5426997,20.8871111 C82.9201102,21.4657778 84.4077135,22.2373333 85.8953168,22.4302222 C86.7768595,22.6231111 87.3002755,21.6862222 87.4104683,20.9422222 C87.5757576,19.8124444 86.969697,18.6 86.3911846,17.6631111 C84.8760331,15.2382222 82.6997245,13.2542222 80.523416,11.3804444 Z" id="Shape" fill="#014D87" fill-rule="nonzero"></path>
                <path d="M112.31405,54.312 C114.242424,54.4497778 116.143251,54.7528889 118.044077,55.0284444 C125.261708,56.1857778 132.451791,57.8391111 139.53168,59.6853333 C151.37741,62.7991111 163.085399,66.4364444 174.655647,70.4595556 C173.030303,71.7546667 171.37741,73.3253333 169.476584,74.152 C166.639118,75.392 163.415978,75.888 160.330579,75.4746667 C154.738292,75.0337778 149.118457,74.8684444 143.526171,74.5928889 C137.823691,74.4 132.121212,74.1244444 126.418733,73.9591111 C127.630854,74.648 128.870523,75.9431111 130.30303,75.8053333 C133.278237,75.8604444 136.418733,76.2462222 139.173554,77.3484444 C140.247934,77.7617778 141.184573,78.3955556 142.011019,79.1671111 C131.873278,80.2142222 121.707989,81.1511111 111.570248,82.1706667 C108.842975,82.4186667 105.922865,82.2808889 103.581267,80.7377778 C102.038567,79.7457778 101.294766,78.3404444 100.192837,76.9626667 C96.1157025,71.7271111 91.9559229,66.5742222 87.8236915,61.3662222 C93.9944904,61.2008889 100.192837,61.7795556 106.336088,62.2204444 C107.107438,62.3031111 108.016529,62.2755556 108.677686,62.6888889 C111.597796,64.3973333 114.545455,66.0231111 117.520661,67.6213333 C119.724518,66.4364444 122.121212,65.5546667 124.435262,64.7004444 C127.658402,63.5431111 130.909091,62.4133333 134.214876,61.4488889 C129.724518,60.0711111 124.325069,59.2995556 119.889807,61.256 C118.760331,60.4293333 117.630854,59.6026667 116.528926,58.6933333 C114.931129,57.3706667 113.415978,56.1031111 112.31405,54.312 Z" id="Shape" fill="#FFFFFF" fill-rule="nonzero"></path>
                <path d="M75.8402204,119.343111 C76.2258953,120.417778 76.6115702,121.492444 76.9146006,122.594667 C77.2727273,121.52 77.6584022,120.472889 78.0440771,119.398222 C78.2644628,119.370667 78.4848485,119.370667 78.7327824,119.370667 C78.8429752,120.720889 78.9256198,122.071111 78.9807163,123.393778 C78.7878788,123.393778 78.6225895,123.393778 78.4297521,123.393778 C78.3746556,122.264 78.3195592,121.134222 78.292011,120.004444 C77.9063361,121.106667 77.6033058,122.291556 77.0523416,123.366222 L76.7217631,123.393778 C76.2258953,122.346667 75.9504132,121.189333 75.6198347,120.087111 C75.5371901,121.189333 75.4820937,122.319111 75.399449,123.421333 L74.8760331,123.393778 C75.0137741,122.071111 75.0413223,120.776 75.1790634,119.453333 C75.399449,119.425778 75.6198347,119.370667 75.8402204,119.343111 Z" id="Shape" fill="#014D87" fill-rule="nonzero"></path>
                <path d="M71.5702479,119.398222 C72.5895317,119.398222 73.5812672,119.398222 74.600551,119.398222 L74.5730028,119.894222 C74.1597796,119.894222 73.7741047,119.894222 73.3608815,119.894222 C73.3608815,120.886222 73.415978,121.905778 73.3608815,122.897778 C73.3608815,123.173333 73.1955923,123.421333 72.892562,123.641778 C72.7823691,122.401778 72.8374656,121.161778 72.8374656,119.894222 C72.4242424,119.894222 72.0110193,119.894222 71.5977961,119.894222 L71.5702479,119.398222 Z" id="Shape" fill="#014D87" fill-rule="nonzero"></path>
            </g>
        </g>
    </g>
</svg>