<?xml version="1.0" encoding="UTF-8"?>
<svg width="200px" height="200px" viewBox="0 0 200 200" version="1.1" xmlns="http://www.w3.org/2000/svg" xmlns:xlink="http://www.w3.org/1999/xlink">
    <!-- Generator: Sketch 51.3 (57544) - http://www.bohemiancoding.com/sketch -->
    <title>neb-wesleyan</title>
    <desc>Created with Sketch.</desc>
    <defs></defs>
    <g id="neb-wesleyan" stroke="none" stroke-width="1" fill="none" fill-rule="evenodd">
        <g id="neb-wesleyan_BGL" transform="translate(0.000000, 28.855721)">
            <g id="neb-wesleyan">
                <g id="g10" transform="translate(99.999998, 72.050377) scale(-1, 1) rotate(-180.000000) translate(-99.999998, -72.050377) translate(0.000000, 0.566120)">
                    <g id="g12" transform="translate(0.000000, 0.863568)">
                        <path d="M199.999995,117.645814 L199.999995,94.2889812 L193.582604,94.2889812 L193.582604,71.9669907 C193.582604,64.9355306 192.393232,57.9572279 186.208691,51.5846704 C180.241541,45.425798 172.583571,43.4951473 165.41932,43.4951473 L162.657967,43.4951473 C155.822218,43.4951473 148.428016,45.0944756 142.417388,50.949372 C138.216422,55.0487303 136.137195,59.479027 135.168113,64.0236026 L68.038549,64.0236026 L68.038549,44.6521368 L46.6613515,44.6521368 L38.2646367,57.3613659 L38.2646367,44.6521368 L0,44.6521368 L0,68.0089698 L6.41417375,68.0089698 L6.41417375,94.2889812 L0,94.2889812 L0,117.645814 L27.9623181,117.645814 L36.1885015,104.922576 L36.1885015,117.645814 L199.999995,117.645814" id="path14" fill="#100F0D" fill-rule="nonzero"></path>
                        <path d="M165.414489,62.2901334 C168.073426,62.2901334 170.443474,63.3058815 172.095648,65.3777735 C173.798063,67.56855 173.9913,70.3815755 173.9913,73.4550147 L173.9913,100.008873 L168.57874,100.008873 L168.57874,111.926114 L194.238642,111.926114 L194.238642,100.008873 L187.82415,100.008873 L187.82415,71.9669907 C187.82415,65.6840523 186.7913,60.4273208 182.058933,55.5502715 C177.504343,50.8500617 171.55845,49.2139838 165.41932,49.2139838 L162.657967,49.2139838 C156.715938,49.2139838 151.016421,50.5877289 146.45217,55.029252 C141.282122,60.0768081 140.162315,65.6795426 140.162315,72.2976414 L140.162315,100.008873 L133.748789,100.008873 L133.748789,111.926114 L159.41159,111.926114 L159.41159,100.008873 L153.996131,100.008873 L153.996131,73.4550147 C153.996131,67.6735215 155.587436,62.2901334 162.669561,62.2901334 L165.414489,62.2901334" id="path16" fill="#ADA157" fill-rule="nonzero"></path>
                        <polyline id="path18" fill="#ADA157" fill-rule="nonzero" points="62.2792255 50.3710692 49.7716896 50.3710692 26.0073423 86.3365736 26.0073423 62.2901334 32.5049267 62.2901334 32.5049267 50.3710692 5.75936217 50.3710692 5.75936217 62.2901334 12.1739127 62.2901334 12.1739127 100.008873 5.75936217 100.008873 5.75936217 111.926114 24.8162313 111.926114 48.4446365 75.3759741 48.4446365 100.008873 41.9482115 100.008873 41.9482115 111.926114 68.6937181 111.926114 68.6937181 100.008873 62.2792255 100.008873 62.2792255 50.3710692 62.2792255 50.3710692"></polyline>
                        <path d="M165.414489,59.805072 L162.669561,59.805072 C159.066663,59.805072 155.547822,61.3711049 153.45217,64.4932877 C151.547822,67.3276145 151.490817,70.678451 151.490817,73.4550147 L151.490817,102.49499 L156.906276,102.49499 L156.906276,109.439038 L136.253137,109.439038 L136.253137,102.49499 L142.667629,102.49499 L142.667629,72.2976414 C142.667629,66.0100973 143.71304,61.1911949 148.205793,56.8047482 C152.140093,52.975303 157.103378,51.7008683 162.657967,51.7008683 L165.41932,51.7008683 C171.112073,51.7008683 176.314005,53.2083705 180.256034,57.2762564 C184.355551,61.5022713 185.319802,66.0055876 185.319802,71.9669907 L185.319802,102.49499 L191.734295,102.49499 L191.734295,109.439038 L171.080189,109.439038 L171.080189,102.49499 L176.495648,102.49499 L176.495648,73.4550147 C176.495648,70.4160222 176.35072,66.7728199 174.061831,63.8362083 C171.883087,61.1086761 168.751687,59.805072 165.414489,59.805072" id="path20" fill="#633917" fill-rule="nonzero"></path>
                        <polyline id="path22" fill="#633917" fill-rule="nonzero" points="59.7746845 52.8609282 59.7746845 102.49499 66.1892737 102.49499 66.1892737 109.439038 44.4515931 109.439038 44.4515931 102.49499 50.9491775 102.49499 50.9491775 66.8995725 23.4473424 109.439038 8.26389351 109.439038 8.26389351 102.49499 14.6788402 102.49499 14.6788402 59.805072 8.26389351 59.805072 8.26389351 52.8609282 30.0003857 52.8609282 30.0003857 59.805072 23.5028013 59.805072 23.5028013 94.6585883 51.1231871 52.8609282 59.7746845 52.8609282 59.7746845 52.8609282"></polyline>
                        <polyline id="path24" fill="#100F0D" fill-rule="nonzero" points="161.095648 117.219787 150.994199 117.219787 133.535262 51.7908713 109.906277 51.7908713 100.10821 86.5082317 90.3098528 51.7908713 66.9931384 51.7908713 48.2171002 117.219787 38.9025111 117.219787 38.9025111 141.95334 83.1337177 141.95334 83.1337177 120.403475 88.8583553 141.95334 110.943959 141.95334 116.864731 121.143265 116.864731 141.95334 161.095648 141.95334 161.095648 117.219787 161.095648 117.219787"></polyline>
                        <polyline id="path26" fill="#ADA157" fill-rule="nonzero" points="156.155552 122.127733 147.192267 122.127733 129.732364 56.6978577 113.65507 56.6978577 100.10821 104.696129 86.5640558 56.6978577 70.7242494 56.6978577 51.9470518 122.127733 43.8443467 122.127733 43.8443467 137.045394 78.1917855 137.045394 78.1917855 122.127733 70.0083074 122.127733 79.4531381 87.3047295 92.6653117 137.045394 107.205794 137.045394 121.249272 87.6739528 130.225118 122.127733 121.807726 122.127733 121.807726 137.045394 156.155552 137.045394 156.155552 122.127733 156.155552 122.127733"></polyline>
                        <polyline id="path28" fill="#633917" fill-rule="nonzero" points="153.650238 124.614809 153.650238 134.559277 124.309176 134.559277 124.309176 124.614809 133.458934 124.614809 121.355553 78.1525378 105.311108 134.559277 94.5946836 134.559277 79.4784521 77.6517642 66.741351 124.614809 75.6872445 124.614809 75.6872445 134.559277 46.3477283 134.559277 46.3477283 124.614809 53.8375832 124.614809 72.6147808 59.1847421 84.6652153 59.1847421 100.10821 113.912321 115.552654 59.1847421 127.805794 59.1847421 145.265697 124.614809 153.650238 124.614809 153.650238 124.614809"></polyline>
                        <path d="M181.588401,36.5356513 L182.565213,36.5356513 C183.091783,36.5356513 183.605793,36.3707097 183.605793,35.8024819 C183.605793,35.1499122 183.199029,35.0187458 182.565213,35.0187458 L181.588401,35.0187458 L181.588401,36.5356513 Z M180.763281,32.1622541 L181.588401,32.1622541 L181.588401,34.3767308 L182.278256,34.3767308 L183.688884,32.1622541 L184.561348,32.1622541 L183.128498,34.3767308 C183.914971,34.3767308 184.428981,34.9609826 184.428981,35.766116 C184.428981,36.7140261 183.855068,37.1757472 182.69758,37.1757472 L180.763281,37.1757472 L180.763281,32.1622541 Z M178.924633,34.6638192 C178.924633,36.7140261 180.417387,38.3013604 182.423184,38.3013604 C184.40386,38.3013604 185.89758,36.7140261 185.89758,34.6638192 C185.89758,32.6113095 184.40386,31.0239752 182.423184,31.0239752 C180.417387,31.0239752 178.924633,32.6113095 178.924633,34.6638192 Z M178.102411,34.6638192 C178.102411,32.3051266 180.03671,30.3841672 182.410623,30.3841672 C184.785503,30.3841672 186.719802,32.3051266 186.719802,34.6638192 C186.719802,37.022128 184.785503,38.9429915 182.410623,38.9429915 C180.03671,38.9429915 178.102411,37.022128 178.102411,34.6638192 Z" id="path30" fill="#100F0D"></path>
                        <path d="M98.3990314,24.0532528 C84.3840559,24.0157355 67.0067616,22.1686591 47.8886945,14.2545364 C43.0000955,17.4546322 39.1768106,20.0367011 34.1258929,22.8174867 C30.4155548,24.8651028 29.9453133,25.3362273 26.4428979,27.1532707 L27.2705307,30.3717893 C33.372946,35.4898702 33.1427045,35.670164 39.5674386,39.4812824 C44.8853129,42.6341698 50.1192258,46.1694261 53.8888875,48.1559208 C55.3173899,51.0757409 56.9145879,53.4875909 58.1857956,56.3961845 C58.7865686,57.7672429 60.200385,59.0460915 61.9376796,60.2279325 C65.8438631,62.8879145 67.9249258,63.5831828 73.6209643,65.8594526 C78.6488869,67.8673446 81.4594183,68.5138694 87.6449253,70.2260372 C91.9187417,73.5525019 99.4299492,77.7148047 106.86763,81.2705947 C113.639611,84.5082078 120.170045,85.0274042 127.747823,85.0809454 C132.903378,85.1188464 133.233813,85.0082138 139.890818,83.9599379 C136.842509,83.3594702 135.172943,82.8366276 132.298547,81.5517341 C131.43961,81.1675422 128.968113,79.7522499 126.856035,77.9824148 C133.000963,78.0209876 137.547823,77.0726937 143.751687,75.6334134 C147.685987,74.724172 149.907243,74.0434884 153.770044,72.5599742 C150.028982,72.2537913 147.938161,71.9620972 144.295649,71.244376 C141.39903,70.6739413 139.785504,70.2791946 136.970045,69.4527599 C135.983571,67.3324121 135.256035,66.2210958 133.767146,64.5438545 C131.629948,62.1345951 131.701446,62.2657616 128.38647,60.3935457 C146.63188,54.7331441 155.635745,47.0738699 161.296614,41.3946616 C166.965213,35.7095044 171.511107,29.9572766 174.968112,24.01871 C163.920769,34.1532585 150.424151,41.2334622 137.317871,44.9486286 C138.510141,44.4134082 137.317871,44.9486286 137.317871,44.9486286 C144.589368,40.917876 148.423185,37.9632254 154.040576,32.0621761 C159.247339,26.5891688 163.309175,21.0959155 166.266663,15.4310041 C156.465697,24.8256665 144.591301,31.7994595 132.869562,35.9869016 C139.815455,31.0798193 143.414489,27.7541222 148.741059,21.3204432 C152.722701,16.5153579 155.563281,12.129295 158.214489,7.38268287 C149.457001,16.2534089 139.342992,22.8174867 128.765214,27.4040893 C134.014489,23.6934327 136.735262,21.1814088 140.762315,16.3167372 C145.228982,10.9280717 148.571011,5.66604364 150.844441,0.298351297 C136.497581,15.3339966 116.825118,24.8256665 98.3990314,24.0532528" id="path32" fill="#ADA157" fill-rule="nonzero"></path>
                        <path d="M43.0423178,33.2990936 L43.0094675,33.2811506 C42.0905303,32.7300981 41.1631874,32.1574565 40.2573903,31.5756994 L40.0777768,31.4618043 L43.976424,30.4494145 L44.0195158,30.4378043 L44.0560375,30.4647669 C44.869081,31.0674415 45.7000955,31.6708838 46.5975834,32.3051266 L46.766279,32.424299 L43.080482,33.2896903 L43.0423178,33.2990936" id="path34" fill="#D1C990" fill-rule="nonzero"></path>
                        <path d="M72.2165199,45.4104456 C64.5659887,44.0296001 54.6180663,40.0082509 44.9253129,34.3767308 L44.713139,34.2529527 L48.4020278,33.50635 L48.4412548,33.4988657 L48.4744915,33.5217023 C56.5662788,39.0524728 64.5697568,42.9913992 72.261061,45.2290004 L72.2165199,45.4104456" id="path36" fill="#D1C990" fill-rule="nonzero"></path>
                        <path d="M125.967147,38.286008 C113.911108,41.6948955 105.420287,43.7645806 95.843186,43.5382298 C88.8545872,43.377798 79.1969062,42.0940559 71.2031866,39.1866137 C56.2368102,33.744407 50.1377765,30.970434 38.1864725,22.5161014 L47.5181631,15.6019906 L60.9261821,20.5280715 L102.69565,25.2402752 L114.874393,23.6686771 L133.782605,15.0760776 L145.294682,7.61656593 L138.673426,17.2837417 L125.143958,28.0014866 L132.352654,26.6716875 L144.624151,19.8005632 L154.269561,13.8361856 L142.589368,24.9400414 L125.967147,38.286008" id="path38" fill="#D1C990"></path>
                        <path d="M116.829949,66.6858874 C113.025118,65.4310268 107.740094,62.9340674 101.657968,58.5505952 C105.151688,59.3965083 107.169079,59.7413598 110.745891,60.1011799 C115.762316,60.6102054 118.654103,60.6240225 123.678258,60.164892 L128.724634,63.4276446 L135.190335,70.0798063 C127.906277,69.9193746 120.764248,67.984598 116.829949,66.6858874" id="path40" fill="#D1C990" fill-rule="nonzero"></path>
                        <path d="M77.3241527,56.2304754 C71.9939112,56.2304754 67.3259887,55.3747752 63.0513994,53.6124244 C63.0050226,53.5925624 62.9672448,53.5561966 62.944926,53.5101396 L60.4197086,48.1289583 C60.3842497,48.0540198 60.3989357,47.9659358 60.456327,47.9059658 C60.495554,47.863555 60.5491772,47.8421577 60.6046362,47.8421577 C60.6299502,47.8421577 60.6559405,47.8466675 60.6804816,47.8572222 C67.7083075,50.6502896 74.6297566,53.1015759 88.2004809,54.7650001 C88.3012538,54.7769941 88.3770992,54.8594169 88.3808674,54.9617977 C88.3831862,55.0611081 88.3117852,55.149192 88.2129447,55.1660796 C84.3482105,55.8733419 80.6842492,56.2304754 77.3241527,56.2304754" id="path42" fill="#100F0D" fill-rule="nonzero"></path>
                        <path d="M99.9739105,50.7039268 C99.9758429,50.7039268 99.9758429,50.7039268 99.9787415,50.7039268 C100.3942,50.7140017 100.808693,50.7188953 101.225118,50.7188953 C121.631881,50.7188953 142.998064,38.7829436 156.457001,26.1001013 C142.422219,36.7552854 120.752654,44.2368565 103.175843,44.2368565 C100.623186,44.2368565 98.1913019,44.0734502 95.9560362,43.7552733 L95.8208672,43.7405926 C95.7144904,43.7282148 95.6351667,43.6390754 95.6385483,43.5307455 C95.6423164,43.4239509 95.7280169,43.3396091 95.8355532,43.3365386 C119.689852,42.4249944 138.02705,28.3440353 146.954586,19.8860565 C133.790335,29.8227519 113.10821,37.0299961 96.9545869,37.0299961 C95.2936208,37.0299961 93.6888865,36.9490126 92.1927513,36.7964489 L91.9210605,36.7792734 C91.8119784,36.7716932 91.7289832,36.6843769 91.7289832,36.5749916 C91.730046,36.4674294 91.8157465,36.3800171 91.9232827,36.3756033 C112.143959,35.4512975 129.197098,24.2979304 139.146856,13.4688812 C127.041543,23.3193158 111.767147,29.1367909 97.7623164,29.1367909 C96.7516884,29.1367909 95.7389348,29.1079093 94.7588382,29.044581 C94.6927513,29.0427579 88.158935,28.7893486 85.2593215,28.3834716 C70.7257953,26.3358554 64.8645394,24.1724252 55.1554576,20.5854508 C52.9204818,19.7612229 50.3902403,18.8276097 47.5203853,17.8095588 C44.5652163,19.1799455 40.4532357,21.9501764 39.0628976,23.3238255 C38.6394193,25.1154417 38.2672454,26.1296545 37.4199991,27.8050728 C36.6658928,29.3047069 36.1333324,30.1387219 35.116231,31.4014505 C38.8251198,34.6615164 41.1107236,36.4606168 45.1823177,39.3267996 C49.4387427,42.3246286 51.9912064,43.9153212 56.5647329,46.4122807 C56.6025107,46.431759 56.6330421,46.463615 56.6515928,46.5022837 C56.6515928,46.5022837 59.2187425,51.8732941 60.33024,54.1540736 C60.5306265,54.5626373 60.6789357,54.893192 60.8065685,55.1735638 C61.2141047,56.0776238 61.382897,56.4498217 62.3475347,57.4467632 C62.8864719,58.0059716 68.2076311,60.5415997 72.1089837,61.7504033 C77.3252155,63.366907 86.7919785,65.1248439 95.2445387,65.1641843 C95.3351667,65.1641843 95.4147802,65.2222353 95.4389348,65.3092637 C95.4650218,65.394661 95.4294662,65.4891738 95.3521715,65.5359984 C95.2593213,65.5940493 93.2121716,66.8609039 88.9768094,67.6630628 C90.7113987,67.8748289 94.0217368,68.2027929 97.9855048,68.2027929 C99.0956497,68.2027929 100.203862,68.1784211 101.273427,68.1278544 C101.366181,68.1158604 101.457002,68.1859053 101.481157,68.2807059 C101.506278,68.3732996 101.459901,68.4707869 101.371978,68.5119503 L96.5274372,70.8189248 C101.209659,72.4486699 104.7942,73.4501211 109.84734,74.0266008 C111.172944,74.1772455 112.374876,74.3230926 113.50048,74.4595364 C117.669562,74.9651076 120.681156,75.3294374 124.858934,75.3294374 C125.781639,75.3294374 126.72077,75.3125498 127.732364,75.2751286 C129.12077,75.2248497 130.180673,75.1998062 131.025117,75.1776413 C134.352654,75.0952185 134.352654,75.0952185 138.277291,74.0411856 C138.704344,73.9265229 139.17391,73.80025 139.697581,73.6592965 C137.689852,73.3938932 135.650238,73.0686159 133.730431,72.3800642 C132.778741,72.0352126 132.411591,71.262415 131.987436,70.3672786 C131.877291,70.1311407 131.760383,69.8831047 131.625117,69.6326699 C131.1942,68.8204361 129.481156,66.8272247 128.824151,66.2511288 C127.064731,64.7039024 126.128499,64.1210899 123.820287,63.130769 C123.475359,62.9827151 123.225118,62.7886041 122.936229,62.5618695 C122.596132,62.294931 122.171978,61.9614017 121.421253,61.5892039 C121.391301,61.5752908 121.367147,61.552838 121.347823,61.5284662 C121.016422,61.0862234 120.435746,60.5341154 119.820287,59.9486162 C118.767147,58.9467811 117.772944,58.0004063 117.635746,57.2957347 C117.626084,57.2395068 117.638644,57.1814558 117.672461,57.1356867 C117.706277,57.0888621 117.758451,57.0595968 117.816422,57.055087 C135.774876,55.2485024 152.276325,47.0888384 166.91787,32.7818163 C152.03961,44.1926226 129.277291,51.9632971 110.086954,51.9632971 C106.452171,51.9632971 103.036712,51.6764965 99.9371956,51.1049103 C99.8318816,51.0861996 99.760384,50.9906314 99.7700458,50.8838368 C99.7826062,50.781456 99.8676304,50.7039268 99.9739105,50.7039268 Z M161.441542,41.5374382 C156.934296,46.0599449 150.563281,51.5041666 139.851204,56.3081005 L136.329465,67.0071348 L135.687919,66.6596925 C136.18647,67.4175216 136.61932,68.2252457 137.116905,69.2852277 C139.849272,70.0854675 141.483088,70.4834765 144.335262,71.0457553 C147.96618,71.7597343 150.085987,72.0540192 153.787436,72.3586669 C153.884054,72.3661511 153.959416,72.4381151 153.973909,72.5310926 C153.985503,72.6256054 153.931397,72.71628 153.844441,72.7499592 C149.985503,74.2308827 147.732363,74.9212575 143.798064,75.830211 C137.737195,77.2372514 133.302412,78.1649156 127.42705,78.1855453 C129.468596,79.8171134 131.650238,81.0385827 132.382605,81.3665467 C135.231881,82.63983 136.853137,83.1551883 139.930431,83.7608375 C140.028016,83.7800279 140.096615,83.8654252 140.093716,83.9636801 C140.093716,84.0622228 140.021253,84.1450294 139.922702,84.1603817 L138.714972,84.3504627 C133.20676,85.2207475 132.592267,85.3155481 127.744924,85.2840758 C119.628016,85.2267925 113.289852,84.5652033 106.780674,81.4534792 C98.4985483,77.4951705 91.4934277,73.4719022 87.5505292,70.410457 C86.5801911,70.140544 85.6921718,69.8998963 84.8659882,69.6739293 C80.4480173,68.4681002 77.7819304,67.7391527 73.5450223,66.0468469 L71.861834,65.3777735 C67.3814476,63.6000704 65.3359404,62.7886041 61.8225105,60.3954648 C59.8022207,59.0217197 58.5514961,57.741048 57.9981628,56.4760166 C57.2762305,54.8230511 56.4617377,53.3564245 55.5989358,51.8058398 C54.9796122,50.6896299 54.3391291,49.5371502 53.7344914,48.3039748 C51.380192,47.059573 48.4360374,45.2162387 45.3219312,43.2687006 C43.4171004,42.077936 41.4462792,40.8448566 39.4622212,39.6533243 C32.8415451,35.6806228 30.6464727,34.1435674 26.5368109,30.922458 C26.4908206,30.8879153 26.4625114,30.834374 26.4601926,30.7754595 L26.2398061,27.1660323 C26.2344921,27.0854326 26.2775839,27.0104941 26.3488882,26.9729768 C28.334492,25.9445631 29.3493712,25.3437115 30.523091,24.6492108 C31.4134292,24.1244492 32.4226079,23.5255167 34.0270523,22.640935 C38.4665691,20.1941584 41.9882115,17.8845933 46.065023,15.207244 L47.7766172,14.0839337 C47.8351679,14.0483355 47.9060858,14.0427703 47.9672452,14.0667583 C63.7552641,20.6027221 80.2520753,23.802818 98.407727,23.8515616 C99.0995144,23.8804432 99.8048284,23.8950279 100.504345,23.8950279 C117.750722,23.8950279 136.514972,15.0194659 150.695648,0.159295324 C150.737194,0.118065988 150.790334,0.0959520216 150.844441,0.0959520216 C150.847339,0.0959520216 150.847339,0.0959520216 150.849272,0.0959520216 C150.982605,0.0910794532 151.060866,0.184407791 151.060866,0.298351297 C151.060866,0.348201251 151.040576,0.392428416 151.01159,0.428785596 C148.756518,5.73500435 145.453136,10.9748963 140.919803,16.4453129 C137.30048,20.8166951 134.759417,23.2750819 130.486953,26.4137685 C140.95362,21.6285452 150.225117,15.1824884 158.067629,7.24250657 C158.141059,7.17129098 158.251204,7.15892276 158.337194,7.22038962 C158.417387,7.28073385 158.441542,7.39205739 158.393233,7.48050596 C155.415455,12.8107463 152.486953,17.1188002 148.897581,21.449019 C143.861832,27.5315136 140.407726,30.8092346 134.210625,35.2796393 C146.107243,30.8122091 157.116904,23.9217026 166.124634,15.285253 C166.196131,15.2170311 166.308208,15.207244 166.389368,15.2679816 C166.470527,15.3294869 166.493716,15.4358977 166.447339,15.5239816 C163.495648,21.1784343 159.486953,26.6323472 154.189368,32.2016903 C149.000962,37.6513814 145.255069,40.6443168 138.968112,44.2511533 C152.171977,40.2222239 164.849271,33.0277413 174.828015,23.8710399 C174.900479,23.802818 175.015455,23.802818 175.095648,23.8605811 C175.173909,23.9246771 175.196131,24.0340624 175.143957,24.1214747 C171.686952,30.0607129 167.204827,35.7586318 161.441542,41.5374382 Z" id="path44" fill="#100F0D" fill-rule="nonzero"></path>
                    </g>
                </g>
            </g>
        </g>
    </g>
</svg>