<?xml version="1.0" encoding="UTF-8"?>
<svg width="200px" height="200px" viewBox="0 0 200 200" version="1.1" xmlns="http://www.w3.org/2000/svg" xmlns:xlink="http://www.w3.org/1999/xlink">
    <!-- Generator: Sketch 51.3 (57544) - http://www.bohemiancoding.com/sketch -->
    <title>new-england-col</title>
    <desc>Created with Sketch.</desc>
    <defs></defs>
    <g id="new-england-col" stroke="none" stroke-width="1" fill="none" fill-rule="evenodd">
        <g id="new-england-col_BGL">
            <g id="new-england-col" transform="translate(0.000000, 7.000000)">
                <g id="g10" transform="translate(100.000000, 93.411500) scale(-1, 1) rotate(-180.000000) translate(-100.000000, -93.411500) translate(0.000000, 0.017951)">
                    <g id="g12">
                        <path d="M68.4654746,175.301839 C68.0722824,173.131684 68.9295122,170.818417 69.163745,168.591106 L66.2232165,168.043472 L65.451444,175.275255 C64.8625413,175.463559 62.3829509,177.758217 64.9187748,178.752465 C65.2282808,181.119787 63.5975074,183.721049 64.8120639,186.033429 C66.5964834,186.813232 66.3719919,185.355976 66.8962481,184.857522 C67.5559963,182.744966 66.7704975,179.097617 70.086064,177.927027 C70.3061277,177.222989 70.1879043,176.530471 69.6233548,175.829092 L69.2447744,175.758644 C78.5210991,155.602076 94.1496029,138.181463 113.341632,122.903978 L113.03744,122.698394 L114.422025,122.434767 C129.488193,111.831224 149.677372,100.692453 173.431848,100.647703 C173.431848,100.647703 184.968142,108.326986 184.122868,106.530782 C184.122868,106.530782 140.414331,65.3656225 141.994627,65.2880854 C149.038435,70.6904337 147.076016,58.4874091 144.987847,49.8524245 C153.216102,57.1830121 168.056008,64.7422235 175.659052,65.578739 C184.099843,66.5078561 198.813998,63.1967966 198.813998,63.1967966 C198.813998,63.1967966 194.866136,62.3235063 187.194903,59.8210488 C179.52367,57.3185914 176.61945,54.11697 176.61945,54.11697 C176.61945,54.11697 181.224404,54.473198 187.371574,53.3065956 C193.518744,52.1395501 195.772514,44.837319 195.772514,44.837319 C195.772514,44.837319 192.305959,49.7314665 181.559148,48.7225969 C170.811452,47.7137273 165.996176,42.6538717 165.996176,42.6538717 C165.996176,42.6538717 173.505793,45.981768 180.585466,42.185104 C187.665582,38.3884401 183.350652,33.9028029 180.280831,29.9032131 C180.256035,29.870869 172.699483,37.8669471 166.019644,35.6409652 C157.969831,32.9586214 159.113985,25.5425215 169.54509,21.5814787 C179.976195,17.6213221 177.496162,18.0674932 185.181564,17.1955321 C192.867851,16.3240141 198.957903,19.4538582 198.957903,19.4538582 C198.957903,19.4538582 193.431073,13.7555393 175.491679,14.1574035 C157.551843,14.5597107 150.425677,16.7661976 145.976584,18.7617834 C141.527047,20.7573691 140.43957,21.0347307 140.43957,21.0347307 C140.43957,21.0347307 136.885343,18.6146842 128.226259,12.9487094 C119.567618,7.28273461 113.386796,4.84452227 106.640097,3.12053822 C99.8938397,1.39699724 75.7138486,0.914051315 75.7138486,0.914051315 C75.7138486,0.914051315 93.4198949,2.59151305 98.7913075,5.04833432 C104.163163,7.50471251 110.337343,15.4356594 110.337343,15.4356594 C110.337343,15.4356594 103.612782,10.3722594 96.5933278,9.17286979 C89.5734304,7.97348021 80.9630528,8.06652484 80.9630528,8.06652484 C80.9630528,8.06652484 92.4820784,9.35541449 90.7764745,11.9358522 C89.0704277,14.5158468 76.6485656,9.10818162 71.330287,7.14804144 C66.0124513,5.18790126 59.5451483,0.890125553 52.6381608,2.07622303 C45.731616,3.26232052 19.2856779,6.33899624 19.2856779,6.33899624 C19.2856779,6.33899624 32.0048695,9.73689746 60.4630395,7.16133353 C63.8888593,6.85162783 65.6595524,10.3744747 65.6595524,10.3744747 C65.6595524,10.3744747 60.0198127,8.70764664 56.2371091,8.63188173 C52.4544054,8.55655989 42.9752857,10.2211726 38.9645483,12.4901323 C34.9538109,14.7590921 11.708891,13.5003312 11.708891,13.5003312 C11.708891,13.5003312 24.9619473,21.0772654 46.1682011,14.6700351 C44.522373,20.711733 39.830191,25.3311772 34.8479855,29.8283343 C32.6252098,29.7126931 34.1346605,31.5585213 33.9371788,32.1172322 C34.1435161,32.2302149 34.275023,32.1057123 34.5034995,32.0742544 L34.6992101,32.2594575 C29.5947519,34.1394021 23.1849223,35.0313013 17.244178,35.7871781 C15.435184,35.8970594 13.4680718,34.1145902 12.4723392,35.4943091 L12.8637602,35.8647153 L14.1151121,36.4708346 C15.1044686,37.325516 18.9009871,36.6719883 19.4811227,38.7371359 C33.3898978,88.2634626 0.120215491,105.270248 0.596872459,110.202057 L4.42646694,108.497568 L4.29327751,109.366871 C5.73130709,109.485613 4.20436649,109.946406 5.05362619,110.253453 C7.30921213,110.15199 35.6556235,108.653971 38.3800734,108.416486 C35.779603,112.812623 26.8899616,123.139691 23.8636216,126.077243 C18.6790638,129.209302 17.0330143,128.577928 16.5952338,129.241203 L16.8221606,129.954102 L17.2023349,130.397615 L17.6914784,130.861509 C25.3011198,129.447674 65.7272984,121.234048 74.3885961,121.730286 L74.3589296,124.792341 L28.6794288,129.332476 L28.5794482,129.984231 L29.2861757,130.488444 C30.9182775,131.537633 33.4067236,129.915112 35.5183604,130.755172 C39.8625142,136.03479 30.1593458,154.679605 28.9168939,154.746065 C26.4521811,155.478902 16.6215351,155.396934 21.5386957,158.399174 C24.9610617,157.993766 28.8549927,156.707535 32.1532021,157.843565 C35.7047725,158.058011 53.3032223,157.984461 58.9797131,158.22239 L59.9042461,158.767365 L59.6089092,159.233918 C58.6600231,159.578183 60.1141257,161.786442 57.7957087,160.832956 C56.7910318,161.540095 56.5470579,163.133374 57.2856216,164.16484 C61.3424085,166.932253 67.2013263,168.172848 72.2348947,168.217155 C71.2563421,170.527763 70.229526,173.151622 68.4654746,175.301839 Z M125.13297,143.257712 C126.44184,142.757043 125.65944,142.014902 125.225955,141.18902 L124.89918,141.128319 C125.571769,138.198743 119.492345,125.965146 116.055898,123.536681 C117.657891,123.313817 115.710969,122.131707 114.420254,123.977093 C114.451249,124.504789 114.531393,123.252674 116.271534,124.322244 C120.386768,129.63332 122.561281,135.179223 120.660409,141.009133 C120.242864,142.271882 90.092816,146.041962 90.092816,146.041962 L89.3817049,147.027349 C101.240789,145.660479 112.884236,143.508489 124.743763,142.142063 L125.048398,142.34809 L123.608465,142.973704 C111.966788,144.380894 100.650115,146.593583 88.9220951,147.835951 L88.4084657,148.261298 C93.2047019,147.664926 98.6319053,147.335282 103.74606,146.127474 L103.941771,146.312677 C97.2008274,148.633033 89.894006,150.99681 83.9691134,153.84176 L83.3447879,154.991969 C96.3807915,149.598039 109.319383,144.111064 125.13297,143.257712 Z" id="path26" fill="#142C61" fill-rule="nonzero"></path>
                        <path d="M32.4086885,156.975149 C40.6475702,156.573284 49.700289,157.440372 57.8616835,157.545379 C58.114956,156.623794 58.3788552,155.629989 60.0795886,155.499727 C60.3080651,155.467826 60.5037756,155.653472 60.6016309,155.746073 L62.1677579,152.834663 C53.4803359,153.972466 44.6193426,154.780182 36.1161188,156.175851 C34.3932463,156.450997 32.7912538,156.673861 31.0794509,156.876787 C31.0794509,156.876787 53.4378287,153.517433 64.1766688,151.420827 C67.021556,151.13106 70.3353514,150.70527 72.2552628,149.871413 C55.7845838,152.092078 39.3891781,154.550671 22.9941709,157.009708 L22.6766062,157.620701 C25.9570157,157.412458 28.8058879,155.633534 32.4086885,156.975149" id="path28" fill="#FFFFFF" fill-rule="nonzero"></path>
                        <path d="M75.0904087,145.258615 C74.872559,145.218295 82.6690995,134.801727 92.9664841,127.281506 C59.6075808,132.316993 43.314901,129.653258 36.818817,130.379892 C42.9101964,138.145574 38.6652263,148.306491 33.3859127,154.251599 C38.0510849,153.780173 74.8955838,148.723862 75.0904087,145.258615" id="path30" fill="#FFFFFF" fill-rule="nonzero"></path>
                        <path d="M81.9553318,153.093858 L85.0393223,149.049519 L78.1606729,150.07744 L78.9089779,155.431937 C80.9023914,155.579922 81.2552903,154.006582 81.9553318,153.093858" id="path32" fill="#FFFFFF" fill-rule="nonzero"></path>
                        <path d="M43.8316299,40.7189865 C63.6001641,79.0095097 49.4682702,107.033223 26.8697264,126.589431 L75.6283913,118.063885 L81.4102647,113.297785 C80.9856348,113.144039 61.9122715,115.013793 61.4987113,114.787828 L60.1141257,115.051454 C56.5271326,115.798913 52.7891501,116.070514 48.9528696,116.249958 C47.8215565,115.591999 49.1193564,115.163551 49.1968436,114.656679 C52.3131573,114.790043 52.6771258,113.144039 54.1082036,111.846288 C56.8702902,109.902542 81.1525644,74.8295905 63.9034711,54.0859551 C59.5845561,48.8922926 45.2038175,41.9041979 43.8316299,40.7189865" id="path34" fill="#FFFFFF" fill-rule="nonzero"></path>
                        <path d="M42.0277279,126.358592 L40.6652816,126.791723 C41.025265,126.221218 41.6566749,127.194148 42.0277279,126.358592" id="path36" fill="#FFFFFF" fill-rule="nonzero"></path>
                        <path d="M65.1025302,127.873284 C64.8846805,127.828309 64.5579059,127.761336 64.3732649,127.476824 C64.6243235,127.281771 64.9400285,127.428916 65.1578782,127.473402 C63.9269387,127.467046 60.9841963,127.684097 60.045937,127.984742 L65.1025302,127.873284" id="path38" fill="#231F20" fill-rule="nonzero"></path>
                        <polyline id="path40" fill="#FFFFFF" fill-rule="nonzero" points="97.3509312 124.226984 81.866775 126.092307 81.8623471 127.552222 93.040429 126.274852 97.3509312 124.226984 97.3509312 124.226984"></polyline>
                        <path d="M98.970635,123.184884 C99.6215275,120.400634 115.421832,112.684576 115.750377,112.426267 C111.791888,113.402349 85.5308125,118.404162 81.7126861,119.927879 L82.1280175,124.387818 C82.3343548,124.500801 90.2296362,123.940318 90.2296362,123.940318 L98.970635,123.184884" id="path42" fill="#FFFFFF" fill-rule="nonzero"></path>
                        <path d="M42.5993621,104.11428 C45.9273266,98.4762183 58.2956118,53.0775286 23.0896351,38.4190119 C40.7653508,73.8707877 8.02408689,108.252107 8.02408689,108.252107 C17.7158758,106.407165 42.5993621,104.11428 42.5993621,104.11428" id="path44" fill="#FFFFFF" fill-rule="nonzero"></path>
                        <path d="M89.8311306,110.455936 C93.075409,107.55826 134.438518,103.716846 134.438518,103.716846 C134.739612,101.016337 137.326356,99.4868602 137.628334,96.7863506 C137.999387,96.5577266 139.849339,96.7283085 140.296551,96.7367268 C140.170357,99.0229662 137.071312,101.152802 136.07372,103.276435 C142.970523,103.59323 148.568641,100.687579 154.96687,99.8679001 L168.024127,98.7243373 C148.409239,95.1443344 130.766954,95.5080946 113.716228,98.5896441 C99.6706765,102.528976 87.7947671,109.852918 79.2733891,117.950459 L77.6488146,118.318207 C77.5819542,118.753301 78.3909206,117.860516 78.6291384,118.500752 C76.9067087,118.775898 78.6140837,120.062572 77.5115516,120.676667 C79.0015197,118.984584 90.408521,110.339851 89.8311306,110.455936" id="path46" fill="#FFFFFF" fill-rule="nonzero"></path>
                        <path d="M116.4761,108.801514 L116.96759,107.487369 C109.293258,108.590612 102.506265,109.61366 95.4961091,110.766085 C94.3829501,111.452842 85.4993748,114.817957 85.5839466,115.727579 C87.1217354,115.194566 116.516836,110.001346 116.4761,108.801514" id="path48" fill="#FFFFFF" fill-rule="nonzero"></path>
                        <path d="M126.231517,108.296857 L132.536318,105.895863 L119.325858,107.308812 L119.386519,109.108118 C121.588484,108.624286 123.791335,108.140454 126.231517,108.296857" id="path50" fill="#FFFFFF" fill-rule="nonzero"></path>
                        <polyline id="path54" fill="#FFFFFF" fill-rule="nonzero" points="104.591335 56.5091031 103.858085 57.6393738 104.620559 57.7811561 104.591335 56.5091031 104.591335 56.5091031"></polyline>
                        <polyline id="path56" fill="#FFFFFF" fill-rule="nonzero" points="103.447181 56.6686082 102.802045 57.2750598 103.40246 56.9879474 103.447181 56.6686082 103.447181 56.6686082"></polyline>
                        <path d="M37.0818307,38.7163117 L36.8856774,38.5306655 L38.2707058,38.267039 C42.8225252,39.2639458 48.443668,39.8647482 53.4643957,40.7251895 C48.0097397,39.0388664 41.2980199,38.9803812 35.4718681,37.5222389 C35.1251683,36.861179 36.1165616,36.9715034 36.5854699,36.835481 L37.6747185,37.0388499 C37.0340101,36.0999853 37.1894272,35.0857989 37.0070002,34.0831322 C32.6889707,35.2156183 28.3928148,36.2032206 23.7391107,36.6024263 C28.6510464,37.4433725 33.4208927,38.4814848 38.0373586,39.7880972 C38.0599406,39.6436565 38.3349094,38.5771878 37.0818307,38.7163117" id="path58" fill="#FFFFFF" fill-rule="nonzero"></path>
                        <path d="M137.678812,33.2554781 L136.162277,36.7490824 C136.162277,36.7490824 135.911218,54.1333636 135.866497,62.4692762 C136.215853,54.3389479 140.925747,41.3104845 137.678812,33.2554781" id="path60" fill="#FFFFFF" fill-rule="nonzero"></path>
                        <polyline id="path62" fill="#231F20" fill-rule="nonzero" points="36.3410531 38.5305315 35.3390329 38.3915416 36.101507 38.9103295 36.3410531 38.5305315 36.3410531 38.5305315"></polyline>
                        <path d="M89.7363749,41.4296703 C84.752841,38.8620816 40.6325156,25.8238707 40.5156206,30.7853648 C44.6963871,32.0108954 82.3595935,38.705678 87.1031385,41.3773881 L89.7363749,41.4296703" id="path64" fill="#FFFFFF" fill-rule="nonzero"></path>
                        <path d="M90.0109009,25.183635 C89.9258864,24.27357 89.643833,23.9231019 89.2214171,23.0249996 C87.9475275,22.5642072 87.4210574,23.8074607 86.8857315,24.3781344 C87.188153,25.3280757 86.6727524,26.4991089 87.5751462,27.1880822 C89.2422279,27.27581 89.1262185,25.838492 90.0109009,25.183635" id="path66" fill="#FFFFFF" fill-rule="nonzero"></path>
                        <path d="M59.9294848,19.7285614 C60.1601752,18.9518603 59.6066953,18.1782606 59.1621401,17.4245991 C56.7861612,17.5779012 57.2488705,19.6758361 57.2891638,20.8752257 C58.6033467,22.5354077 59.6872819,20.5774828 59.9294848,19.7285614" id="path68" fill="#FFFFFF" fill-rule="nonzero"></path>
                        <path d="M69.1845558,22.1977886 C69.5356835,21.3692483 69.844304,20.0852325 69.2040383,19.1463678 C67.5701654,18.8424221 67.4793947,20.1663142 67.0640633,20.6851488 C66.4729466,21.6178104 68.0448298,24.5181444 69.1845558,22.1977886" id="path70" fill="#FFFFFF" fill-rule="nonzero"></path>
                        <path d="M79.4553733,23.8876563 C79.3929408,22.8327074 80.4751049,21.6191396 79.1702204,20.6310943 C77.6656404,20.9465599 77.2702343,22.0648677 76.8858978,23.1109552 C76.350572,23.6816289 77.3729602,24.3192061 77.7643813,24.6900554 C78.7442622,24.8726001 78.8443314,24.2208447 79.4553733,23.8876563" id="path72" fill="#FFFFFF" fill-rule="nonzero"></path>
                        <path d="M29.0618614,129.828714 C46.4462694,128.225244 74.6454108,125.915522 74.6454108,125.915522 C74.4536853,125.733421 75.2644228,127.981113 74.9814839,128.023205 C67.115869,129.187149 36.2764066,129.533629 29.7688103,130.332927 L29.0618614,129.828714" id="path74" fill="#FFFFFF" fill-rule="nonzero"></path>
                        <path d="M40.3645206,105.94017 L39.75846,107.533891 L40.3645206,105.94017 Z" id="path76" fill="#FFFFFF" fill-rule="nonzero"></path>
                        <path d="M106.090602,55.8227882 C106.090602,55.8227882 119.561419,54.9548147 125.514207,49.6929194 C132.786934,43.2644217 133.537453,26.124715 133.537453,26.124715 C133.537453,26.124715 133.426757,31.1438081 129.876958,35.0082617 C126.327601,38.8727153 125.634644,40.0623573 125.634644,40.0623573 C125.634644,40.0623573 125.604978,36.6985724 128.052245,32.3290194 C130.499955,27.9590234 133.761502,20.0741557 132.404369,18.6142412 C120.807856,6.14138717 100.908258,3.44885284 100.908258,3.44885284 C100.908258,3.44885284 118.565598,10.8729281 120.091432,16.3962345 C121.618151,21.9199839 118.870233,23.1548191 116.241425,21.2828497 C111.174647,17.6740474 97.7923868,10.8751434 97.7923868,10.8751434 C97.7923868,10.8751434 116.074052,24.1583718 117.98378,29.6896535 C118.920711,32.4034552 126.257641,45.5280646 107.186492,41.0991403 C88.1153427,36.670216 103.920075,42.1828887 101.972268,42.6645054 C96.5503777,44.0061204 89.4516648,45.0039132 80.2284742,45.3800794 C79.9490775,46.6609938 119.273167,45.4425522 118.499623,46.6738428 C115.093286,52.0987877 106.090602,55.8227882 106.090602,55.8227882" id="path78" fill="#FFFFFF"></path>
                        <path d="M92.216408,9.91412533 C92.216408,9.91412533 110.340885,20.3754431 103.666802,22.8854327 C100.337952,24.1371045 89.7948224,22.314759 78.810237,19.5389276 C72.1906163,17.8658965 65.7179999,14.5787627 58.9788276,12.8897812 C52.2392124,11.1999135 44.8841275,13.6673684 44.8841275,13.6673684 C44.8841275,13.6673684 51.6852896,10.1299003 57.444581,10.7745666 C63.2043152,11.419676 69.0069994,14.1153118 72.5718534,14.98107 C76.1367073,15.846385 90.7100569,18.981989 93.7311721,17.2225594 C96.7518445,15.4640159 92.216408,9.91412533 92.216408,9.91412533" id="path80" fill="#FFFFFF" fill-rule="nonzero"></path>
                        <path d="M88.0989597,14.7320648 C88.0989597,14.7320648 87.6561757,16.2779349 79.7670933,14.5659137 C71.8784536,12.8538925 64.10051,5.91542164 59.1129911,5.55077531 C54.1254722,5.18657205 36.7497427,7.30666038 36.7497427,7.30666038 C36.7497427,7.30666038 54.5864103,4.12674942 57.694754,4.23264307 C65.7923876,4.51000468 74.2827707,10.4768238 78.7035261,12.6961597 C83.1238387,14.9159387 88.0989597,14.7320648 88.0989597,14.7320648" id="path82" fill="#FFFFFF" fill-rule="nonzero"></path>
                        <path d="M177.745893,15.8490434 C177.745893,15.8490434 175.740967,14.3403912 165.9395,16.0537416 C156.138476,17.7666489 144.942683,20.9199757 143.24682,23.9696242 C141.551401,27.0192726 139.315784,34.6090559 144.638933,42.9378794 C149.96164,51.2667029 154.702971,55.7660753 162.053628,59.5840065 C169.403842,63.4010517 170.588289,64.0120447 175.566952,64.5521466 C180.545616,65.0918055 190.469291,63.9686239 190.469291,63.9686239 C190.469291,63.9686239 179.179184,64.624367 172.890766,60.8277031 C166.602791,57.0319253 170.692344,51.2405618 170.692344,51.2405618 C170.692344,51.2405618 172.542738,52.9636597 176.522038,52.8249789 C187.235639,52.4514711 190.025621,50.5985538 190.025621,50.5985538 C190.025621,50.5985538 183.684954,52.6743352 178.584525,51.5445076 C173.483211,50.415123 154.719354,39.0884902 154.719354,39.0884902 C154.719354,39.0884902 154.309336,42.6330475 154.981039,45.8767605 C155.653628,49.1200304 158.463535,53.4922418 158.463535,53.4922418 C158.463535,53.4922418 138.571021,31.9178508 156.571519,23.9421538 C164.396841,20.4746907 177.745893,15.8490434 177.745893,15.8490434" id="path84" fill="#FFFFFF" fill-rule="nonzero"></path>
                        <path d="M158.18281,25.5894868 C156.545395,26.8779334 153.544205,29.7543417 154.277455,33.293139 C155.011148,36.8314933 162.57567,41.6808908 168.616129,42.24226 C174.657031,42.8036293 177.752534,42.4248047 179.328403,40.8412738 C180.904714,39.2577428 181.080942,35.0029449 181.080942,35.0029449 C181.080942,35.0029449 179.175642,40.1040059 173.438933,39.9892508 C167.702223,39.8749388 161.478009,38.4292025 158.832374,34.8523012 C156.187183,31.2758429 158.18281,25.5894868 158.18281,25.5894868" id="path86" fill="#FFFFFF" fill-rule="nonzero"></path>
                        <path d="M93.1998313,38.1248137 C93.1998313,38.1248137 89.4219982,36.2298047 75.5526752,32.8088639 C61.683795,29.3883661 45.8462971,27.5172829 45.8462971,27.5172829 L47.824656,24.4131369 C47.824656,24.4131369 65.2548479,27.0764286 71.9957914,28.5350139 C78.7362921,29.9935993 100.161724,37.204558 100.161724,37.204558 L93.1998313,38.1248137" id="path88" fill="#FFFFFF" fill-rule="nonzero"></path>
                        <path d="M171.435778,99.9729076 C161.237577,99.7690955 154.874328,101.936592 146.444606,104.31499 C133.444026,108.747016 121.799692,115.987217 112.301976,122.413057 C108.710997,122.912839 101.737592,122.60978 101.102197,123.832209 C103.204978,124.000575 108.909807,122.789223 110.759316,123.878731 C108.043279,124.788353 100.315813,125.372762 97.9159236,126.415748 C99.3762252,126.389607 108.881469,125.031598 108.881469,125.031598 C101.224406,131.874366 93.6758241,138.737958 87.585773,146.320209 C87.585773,146.320209 75.946753,146.982599 75.8648379,148.97907 C79.2875582,148.573662 82.7988353,147.588718 86.2304112,147.855446 C82.9569091,149.481068 77.7183317,148.579422 74.8358079,150.57545 C74.3828399,152.800546 74.0250704,152.212593 74.0250704,152.212593 C72.713987,153.458062 72.6564251,154.56485 72.5851369,152.838207 C81.1795742,134.025469 103.557434,119.568993 126.916061,108.946397 C141.010319,103.22814 156.985079,99.1266445 174.125691,99.1160109 C161.591804,96.1106694 153.414469,95.0831908 141.450889,94.9400793 C143.087418,90.104417 141.576639,78.3728186 141.580182,73.2327674 L138.127795,69.9598119 C139.733329,76.6869385 140.95807,90.4039321 138.405863,95.3667554 C102.413281,93.6308085 85.6149415,110.191423 85.6149415,110.191423 C74.8778724,111.544115 64.4565083,113.029284 53.7641605,114.091765 C71.9329161,100.788156 80.593771,81.5412097 79.0506688,60.1693016 C78.7473617,55.5680231 77.223742,50.8887645 75.7426295,46.6640952 C82.2307434,48.9162183 89.8656678,50.2635932 96.9891767,51.2932871 C113.990754,59.7656651 131.36604,63.8073465 131.36604,63.8073465 C146.989231,76.626681 159.343347,86.2771813 174.497186,99.2329812 L171.435778,99.9729076" id="path90" fill="#FFFFFF" fill-rule="nonzero"></path>
                        <path d="M102.736513,70.0058911 L106.323949,84.3095089 L104.683434,84.6794721 L100.89276,69.5672521 L95.7732918,68.5140755 L92.968698,80.7964096 L92.9390315,80.7902066 L89.5375649,67.2309458 L84.476101,66.2411282 L88.2371083,81.6940687 L82.6017964,83.4676766 L96.0345344,86.2674338 L98.8391282,73.9855428 L98.8692375,73.9913027 L102.269819,87.5505635 L106.589619,88.4987326 L125.484098,92.6139636 L125.475685,92.5794042 L128.349353,93.1704591 C132.222385,93.9675414 133.095997,94.1230589 133.283738,94.2453461 L133.33333,94.3250986 C133.33333,94.295856 133.324031,94.2714872 133.283738,94.2453461 L128.562775,86.5408078 L128.692068,87.0565408 C129.028584,88.3968266 128.559675,88.6670991 127.578023,88.4650593 L123.976418,87.7242468 C122.235392,87.3662465 121.552176,85.880634 120.970801,83.5607212 L120.466027,81.5500711 C119.787682,78.8433585 119.85587,77.879682 121.418455,78.2009075 L131.873028,80.6293723 C131.971769,80.6293723 130.895804,75.6421802 130.895804,75.6421802 L119.680528,73.2965695 C116.704134,72.6842472 115.25623,73.6089336 116.62709,79.0733117 L118.02363,84.6413681 C118.233067,85.4756683 118.45933,86.2209115 118.702418,86.8868452 L109.634645,85.0179773 L108.885011,82.0277002 L115.92262,83.5363524 L114.952923,79.6692404 L107.914872,78.1610313 L107.165238,75.1707541 L114.84267,76.810998 L113.717556,72.3258038 L102.736513,70.0058911" id="path92" fill="#142C61" fill-rule="nonzero"></path>
                        <path d="M106.141965,86.376872 L106.757877,86.2377481 C107.147527,86.1500203 107.497769,85.9470944 107.766096,85.6599853 C107.991473,86.3170576 108.548053,86.8124095 109.236139,86.9541917 L118.30347,88.8230596 C119.005725,88.9679434 119.73012,88.7207105 120.198142,88.1783932 C120.333192,88.0211035 120.441231,87.846091 120.520046,87.6608879 C121.184222,88.5877896 122.145506,89.3658199 123.578355,89.6604612 L127.17996,90.4012737 C127.719271,90.5120411 128.207219,90.5288778 128.643362,90.4535559 L129.175588,91.3219725 L125.873748,90.6431897 C125.76438,90.6205932 125.65457,90.6077442 125.545202,90.6037565 L106.141965,86.376872 Z M107.448177,80.671464 L107.288332,80.035659 C107.358292,80.0591417 107.429138,80.0786368 107.501311,80.0937011 L108.087115,80.2195329 C107.856867,80.3209959 107.644331,80.4676519 107.464118,80.6546273 C107.458361,80.6603872 107.453048,80.6657041 107.448177,80.671464 Z M118.132112,75.1153704 C118.295942,75.099863 118.639543,75.1007491 119.282465,75.2327839 L129.232264,77.313439 C129.282299,77.5522536 129.331891,77.7892958 129.380597,78.0210213 L121.865224,76.2757699 C121.848841,76.2717822 121.832901,76.2682377 121.816518,76.2646931 C120.258361,75.9447968 119.353311,76.4813542 118.868019,76.9882259 C118.6422,77.2248251 118.472613,77.4826916 118.349962,77.7604963 C117.996178,76.0887945 118.071894,75.3710216 118.132112,75.1153704 Z M105.728404,73.8145179 L105.421998,72.5934179 L112.101837,74.0050379 L112.154971,74.2154959 L107.577913,73.2376412 C106.909752,73.0954158 106.217238,73.3076462 105.743902,73.7981243 C105.738588,73.8034412 105.733718,73.8092011 105.728404,73.8145179 Z M89.7686981,82.942196 C90.1463928,82.477859 90.308009,81.8487 90.1565769,81.2261872 L87.1257204,68.7732713 L87.9271595,68.930118 L91.0226624,81.2713803 C91.2077461,82.0095343 91.8006338,82.5762204 92.5458393,82.7277503 C93.5974513,82.9408668 94.655705,82.2824652 94.8943656,81.2363778 L97.2685734,70.8397482 L99.2788127,71.2535753 L99.4957769,72.116675 C99.419618,72.09142 99.341688,72.0701526 99.2615441,72.0542021 C98.2121461,71.8415287 97.152564,72.4990441 96.9134606,73.5451315 L94.5405812,83.9368874 L89.7686981,82.942196 Z M84.476101,64.2641514 C83.9421035,64.2641514 83.4240463,64.4812555 83.0476799,64.8755875 C82.5823139,65.3629641 82.3972302,66.0537097 82.5566324,66.7085667 L85.8801691,80.3635305 L82.0089086,81.5819721 C81.151236,81.8518015 80.5844725,82.6674928 80.6287509,83.5660381 C80.6734721,84.4641403 81.3190512,85.219574 82.1993057,85.4030049 L95.631601,88.2027621 C96.687198,88.4234107 97.7206558,87.757477 97.9606448,86.707845 L98.9431824,82.4056386 L100.353892,88.0317372 C100.536319,88.7592575 101.114595,89.3206268 101.846517,89.4814611 L106.166318,90.4296302 L125.063896,94.5453042 C125.188318,94.5723315 125.314069,94.5873959 125.438934,94.5900543 L130.064698,95.5395526 C131.119852,95.7548844 131.898267,95.9139464 132.290573,96.0038896 C132.752397,96.2905556 133.324474,96.381828 133.872641,96.2263105 C134.722343,95.9848376 135.309032,95.2085795 135.309032,94.3250986 C135.309032,93.8598755 135.152729,93.417692 134.874661,93.0596917 L130.247125,85.5075693 C129.737038,84.6754845 128.696053,84.3400808 127.797644,84.7184622 C127.144981,84.9927224 126.708838,85.5828911 126.608769,86.2474956 L124.374038,85.7880324 C124.014498,85.7140398 123.521679,85.6125768 122.886727,83.0795476 L122.381953,81.0684544 C122.320406,80.8225507 122.269043,80.6067758 122.226979,80.4180281 L131.426259,82.5549531 C132.154639,82.7237626 132.94368,82.4512748 133.412588,81.8695243 C134.081635,81.0400979 134.081635,81.0400979 132.826785,75.2248086 C132.662069,74.4613996 132.063425,73.8668001 131.300066,73.707295 L120.08479,71.3616843 C119.339584,71.2088252 117.211564,70.7706293 115.664034,71.9669174 L115.633482,71.8446302 C115.449727,71.111793 114.864366,70.5477653 114.125803,70.3918048 L103.14476,68.071892 C102.831711,68.0058746 102.514235,68.0178375 102.215356,68.0989193 C101.959427,67.8676369 101.641951,67.7032581 101.29038,67.6310377 L96.1713546,66.5778611 C95.1188571,66.3620862 94.0867276,67.0262476 93.8476242,68.0736643 L92.8650866,72.3763138 L91.453934,66.7497722 C91.2675219,66.0067443 90.6684352,65.438286 89.916588,65.2911868 L84.8551241,64.3009261 C84.7293735,64.2761142 84.6018517,64.2641514 84.476101,64.2641514 Z" id="path94" fill="#142C61" fill-rule="nonzero"></path>
                        <path d="M102.736513,70.0058911 L106.323949,84.3095089 L104.683434,84.6794721 L100.89276,69.5672521 L95.7732918,68.5140755 L92.968698,80.7964096 L92.9390315,80.7902066 L89.5375649,67.2309458 L84.476101,66.2411282 L88.2371083,81.6940687 L82.6017964,83.4676766 L96.0345344,86.2674338 L98.8391282,73.9855428 L98.8692375,73.9913027 L102.269819,87.5505635 L106.589619,88.4987326 L125.484098,92.6139636 L125.475685,92.5794042 L128.349353,93.1704591 C132.222385,93.9675414 133.095997,94.1230589 133.283738,94.2453461 L133.33333,94.3250986 C133.33333,94.295856 133.324031,94.2714872 133.283738,94.2453461 L128.562775,86.5408078 L128.692068,87.0565408 C129.028584,88.3968266 128.559675,88.6670991 127.578023,88.4650593 L123.976418,87.7242468 C122.235392,87.3662465 121.552176,85.880634 120.970801,83.5607212 L120.466027,81.5500711 C119.787682,78.8433585 119.85587,77.879682 121.418455,78.2009075 L131.873028,80.6293723 C131.971769,80.6293723 130.895804,75.6421802 130.895804,75.6421802 L119.680528,73.2965695 C116.704134,72.6842472 115.25623,73.6089336 116.62709,79.0733117 L118.02363,84.6413681 C118.233067,85.4756683 118.45933,86.2209115 118.702418,86.8868452 L109.634645,85.0179773 L108.885011,82.0277002 L115.92262,83.5363524 L114.952923,79.6692404 L107.914872,78.1610313 L107.165238,75.1707541 L114.84267,76.810998 L113.717556,72.3258038 L102.736513,70.0058911" id="path96" fill="#D41041" fill-rule="nonzero"></path>
                        <path d="M84.3547782,83.3803919 L88.7653496,81.9918116 L85.0703171,66.8087004 L89.1766959,67.6119857 L92.577277,81.1690312 L93.274219,81.3103704 L93.4004124,80.8947711 L96.1084793,69.0355685 L100.531006,69.9451906 L104.358873,85.206725 L106.863703,84.6418112 L103.338256,70.5858693 L113.354916,72.702413 L114.240041,76.2292475 L106.563052,74.5890037 L107.552674,78.5367543 L114.590726,80.0449635 L115.319991,82.9537158 L108.28194,81.4455067 L109.27289,85.3959158 L119.390504,87.4814446 L119.118192,86.7348723 C118.879089,86.0791292 118.65504,85.3387598 118.453131,84.5332591 L117.05659,78.9656458 C116.395956,76.3307105 116.383558,74.6576795 117.020282,73.9921888 C117.451553,73.541587 118.269375,73.459176 119.591086,73.7303347 L130.523422,76.0170172 C130.855953,77.5646595 131.194683,79.2062326 131.349657,80.0529387 L121.518967,77.7693577 C121.05493,77.6740977 120.402709,77.6014343 119.974979,78.0493777 C119.413086,78.6360019 119.56319,79.7702603 120.036526,81.657737 L120.5413,83.6688302 C121.161198,86.1429312 121.937398,87.757477 123.887419,88.158012 L127.488581,88.8992676 C127.925609,88.9892107 128.552148,89.0605449 128.946669,88.6484901 C129.034783,88.5563316 129.099429,88.4517672 129.145921,88.3396706 L132.329538,93.5355485 C131.91465,93.4478207 131.344344,93.3312934 130.547776,93.1686868 L124.882354,92.0051859 L124.888553,92.0304408 L102.632901,87.1766127 L99.2305493,73.6124781 L98.5336072,73.4711389 L98.4078566,73.8867383 L95.6993469,85.7450546 L84.3547782,83.3803919 Z M83.8823277,65.6731129 L87.708867,81.3958829 L82.4689612,83.0449881 L82.5114684,83.9014418 L96.3697219,86.7898129 L98.8727798,75.8269403 L101.907178,87.9245143 L106.494863,88.9316116 L126.079642,93.1970433 L126.069458,93.1540655 L130.370662,94.0366603 C131.872142,94.3432645 132.70989,94.5147324 132.980874,94.5975865 L133.776114,95.8851469 L133.776114,94.3250986 C133.776114,94.1824302 133.72298,94.0543831 133.625567,93.9551355 L128.94047,86.3090823 L128.133274,86.6489168 L128.262567,87.1642068 C128.443223,87.8828658 128.312602,88.0295218 128.306846,88.0352817 C128.302418,88.0401555 128.199692,88.1402892 127.667023,88.0312941 L124.065418,87.2900385 C122.563052,86.981219 121.951124,85.6493516 121.399858,83.4530553 L120.895527,81.4419621 C120.744538,80.8398304 120.284928,79.0064082 120.614359,78.6621431 C120.702916,78.5699846 120.964159,78.560237 121.329456,78.6351158 L131.873028,81.072442 L132.084236,81.072442 L132.220171,80.9062909 C132.388871,80.697162 132.429165,80.6475382 131.328404,75.5486925 L131.268185,75.2673433 L119.771299,72.8628043 C118.731642,72.6488016 117.250972,72.4693584 116.380459,73.3789804 C115.482936,74.317402 115.426259,76.1069603 116.197589,79.1814207 L117.594573,84.7494771 C117.73095,85.2944528 117.877512,85.8119582 118.032929,86.2966764 L109.996842,84.6400389 L109.48764,82.6103368 L116.525692,84.1185459 L115.315121,79.2939604 L108.277512,77.7853082 L107.767425,75.7525046 L115.444856,77.3927485 L114.079753,71.9491946 L102.134769,69.4259129 L105.783752,83.9767636 L105.007552,84.1517761 L101.254515,69.1893137 L95.4385471,67.9925826 L92.9350464,78.954569 L89.8988766,66.850349 L83.8823277,65.6731129 Z" id="path98" fill="#FFFFFF" fill-rule="nonzero"></path>
                        <path d="M68.0736108,145.93917 L75.5991675,145.1093 L75.5991675,138.725995 L68.0736108,139.555865 L68.0736108,145.93917 Z M75.2723929,142.602412 L72.6692658,142.906801 L71.8452448,145.09202 L71.0216666,143.088459 L68.4185395,143.358289 L70.512465,141.81552 L69.7278518,139.797338 L71.8452448,140.847413 L73.9635235,139.329899 L73.1784674,141.521765 L75.2723929,142.602412 Z" id="path100" fill="#142C61" fill-rule="nonzero"></path>
                        <path d="M78.2217771,144.792062 L84.4309371,144.135433 L84.4309371,142.770335 L79.1294843,143.338794 L78.2217771,144.792062 Z M77.3375375,142.415436 L78.3891495,141.085784 L76.9053803,141.181487 L76.9053803,142.422083 L77.3375375,142.415436 Z M79.6068055,139.701192 L81.1012014,138.205832 L76.9053803,138.581998 L76.9053803,140.003365 L79.6068055,139.701192 Z" id="path102" fill="#D41041" fill-rule="nonzero"></path>
                        <path d="M84.211759,136.618313 L76.9230917,137.472108 L76.9230917,131.089247 L84.4486484,130.259377 L84.211759,136.618313 Z M77.2498663,134.893886 L79.8529934,134.624057 L80.6770144,136.627618 L81.5010354,134.442398 L84.1037197,134.138009 L82.0097942,133.056919 L82.7948502,130.865497 L80.6770144,132.382567 L78.5591785,131.332492 L79.3437918,133.351117 L77.2498663,134.893886 Z" id="path104" fill="#142C61" fill-rule="nonzero"></path>
                        <path d="M75.6173217,137.616106 L68.0917649,138.445975 L68.0917649,137.081321 L75.6173217,136.251451 L75.6173217,137.616106 Z M68.0917649,135.903199 L68.0917649,134.662161 L75.6173217,133.832734 L75.6173217,135.073329 L68.0917649,135.903199 Z M68.0917649,133.484481 L68.0917649,132.063114 L75.6173217,131.233244 L75.6173217,132.654612 L68.0917649,133.484481 Z" id="path106" fill="#D41041" fill-rule="nonzero"></path>
                        <polyline id="path108" fill="#D41041" fill-rule="nonzero" points="84.4309371 141.592213 84.4309371 140.351618 81.3983095 140.705188 80.3998316 142.067184 84.4309371 141.592213 84.4309371 141.592213"></polyline>
                        <polyline id="path110" fill="#D41041" fill-rule="nonzero" points="84.4309371 139.173496 84.4309371 137.752128 83.6675775 137.889923 82.5783288 139.251919 84.4309371 139.173496 84.4309371 139.173496"></polyline>
                    </g>
                </g>
            </g>
        </g>
    </g>
</svg>