<?xml version="1.0" encoding="UTF-8"?>
<svg width="200px" height="200px" viewBox="0 0 200 200" version="1.1" xmlns="http://www.w3.org/2000/svg" xmlns:xlink="http://www.w3.org/1999/xlink">
    <!-- Generator: Sketch 51.3 (57544) - http://www.bohemiancoding.com/sketch -->
    <title>new-jersey-city</title>
    <desc>Created with Sketch.</desc>
    <defs></defs>
    <g id="new-jersey-city" stroke="none" stroke-width="1" fill="none" fill-rule="evenodd">
        <g id="new-jersey-city_BGL">
            <g id="new-jersey-city" transform="translate(0.000000, 13.000000)">
                <path d="M160.29,0 L160.42,0 C160.71,3.595 158.98,7.45 156.615,10.105 C153.835,13.115 150.6,15.25 147.43,17.715 C149.47,17.8 151.48,17.71 153.505,18.025 C159.58,18.435 165.64,18.205 171.535,16.56 C179.035,14.325 185.845,10.65 192.245,6.185 C194.445,4.645 196.43,2.99 198.755,1.625 C199.095,2.37 199.595,3.16 199.68,3.98 C199.405,5.67 198.915,7.25 199.075,8.99 C198.16,13.925 196.13,18.51 192.68,22.19 C188.67,25.9 184.195,29.145 179.625,32.13 C177.635,33.475 175.68,34.23 173.985,35.88 C178.505,35.185 183.115,34.58 187.5,33.25 C185.84,38.74 180.93,43.51 176.68,47.165 C173.43,50.13 169.485,51.575 165.295,52.66 C159.465,54.03 153.49,54.855 147.505,55.105 C145.58,55.2 143.75,54.805 141.9,54.34 C144.19,56.695 147.12,58.645 150.265,59.62 C153.14,60.07 156.02,60.22 158.93,60.095 C157.355,61.47 155.675,62.485 153.755,63.3 C149.07,65.27 144.075,66.435 139.01,66.81 C134.69,66.8 130.42,66.335 126.25,65.205 C120.15,63.49 114.71,60.23 108.495,58.715 C100.715,56.805 91.655,56.12 84.095,59.21 C81.62,60.2 79.305,61.535 77.385,63.4 C79.735,64.9 81.93,66.615 84.05,68.425 C87.325,70.86 89.64,74.805 91.755,78.24 C94.575,83.905 96.29,90.015 96.975,96.305 L97.02,96.98 C95.325,90.02 93.215,83.4 88.915,77.56 C86.07,73.66 82,70.725 77.525,68.975 C82.155,72.895 87.265,77.63 89.775,83.255 C93.98,92.895 95.835,103.585 95.605,114.07 C95.455,116.855 95.095,119.515 94.5,122.235 C93.405,120.365 92.535,118.34 91.615,116.375 C90.95,115.105 91.245,113.88 91.27,112.505 C92.04,98.385 87.815,83.775 78.59,72.92 C75.16,68.86 72.065,64.515 66.935,62.51 C63.23,61.215 58.94,60.625 55.095,61.59 C51.295,62.54 48.55,65.175 45.775,67.77 C39.38,74.185 34.13,81.815 30.72,90.225 C27.815,97.44 25.48,104.98 24.19,112.66 C24.625,113.055 25.06,113.52 25.57,113.825 C26.79,114.04 28.22,113.315 29.32,112.83 C39.985,107.785 50.55,102.515 60.945,96.93 C66.13,94.075 71.025,91.52 75.21,87.215 C76.045,86.29 76.82,85.265 77.08,84.015 C77.165,82.245 76.325,79.98 77.51,78.475 L78.005,78.33 C79.965,81.255 80.52,85.305 80.43,88.76 C80.39,91.51 78.56,93.42 76.635,95.135 C72.65,98.5 67.705,101.125 63.15,103.65 C50.7,110.46 38.275,117.33 25.785,124.06 C26.425,130.865 27.5,137.925 29.715,144.41 C30.85,147.745 32.54,150.685 34.24,153.765 C36.76,158.22 39.455,162.825 42.78,166.73 C43.85,167.91 45.36,169.475 47,169.695 C48.695,169.455 50.32,168.145 51.745,167.245 C57.07,163.505 62.03,159.215 66.78,154.78 C71.21,150.41 75.975,146.035 79.34,140.825 C83.96,133.655 87.25,125.54 89.965,117.475 C91.085,119.61 92.19,121.755 93.225,123.935 C93.94,125.565 93.135,127.05 92.62,128.61 C88.955,137.86 82.83,145.87 76.075,153.075 C74.01,155.725 71.35,157.625 68.97,159.955 C63.885,164.095 58.71,168.27 53.04,171.55 C51.62,172.375 50.185,172.76 49.04,174 L47.615,174 C42.72,173.11 37.81,171.525 33.495,169.015 C29.45,166.705 25.305,164.27 21.88,161.085 C17.44,157.26 13.85,152.62 10.915,147.57 C6.005,138.83 2.465,129.435 0.945,119.5 C0.725,116.765 0.26,114.275 0.995,111.565 C2.45,110.265 5.05,109.8 6.84,108.93 C4.665,106.895 2.155,105.325 0.14,103.1 C0.37,101.9 0.605,100.695 0.82,99.49 C2.62,89.8 7.25,80.715 14.38,73.865 C18.87,69.67 23.71,65.98 29.23,63.23 C31.79,62.005 34.24,60.855 37.13,60.7 C39.38,59.015 40.68,56.625 42.695,54.69 C45.895,51.29 49.54,48.495 53.795,46.53 C50.22,40.58 47.265,33.47 48.975,26.435 C50.255,22.605 52.96,19.11 55.745,16.24 C59.555,12.845 64.55,10.645 69.515,9.59 C75.595,8.045 81.6,8.16 88,7.775 C95.99,7.805 104.17,8.585 112.095,9.63 C120.455,10.57 129.74,11.415 138.015,9.59 C145.82,7.76 153.34,3.935 160.29,0 Z" id="Shape" fill="#231F20" fill-rule="nonzero"></path>
                <path d="M198.76,1.62 L199.005,1.5 C199.34,1.75 199.675,2 200,2.26 L200,6.775 C199.69,7.51 199.36,8.24 199.075,8.99 C198.915,7.25 199.405,5.67 199.68,3.98 C199.595,3.16 199.095,2.37 198.76,1.62 Z" id="Shape" fill="#87898B" fill-rule="nonzero"></path>
                <path d="M154.165,8.535 C153.445,10.49 151.91,11.58 150.375,12.875 C147.74,14.91 145.165,16.8 141.915,17.725 C138.91,18.685 135.77,18.915 132.74,19.72 C134.255,20.54 136.305,20.23 138,20.295 C143.845,20.2 149.665,20.465 155.5,20.75 C160.6,21.11 166.005,20.045 171.085,19.33 C177.56,18.445 183.775,16.215 189.45,12.98 C191.565,11.8 193.51,10.345 195.64,9.18 C196.01,11.795 195.55,13.495 194.165,15.675 C191.63,19.595 187.82,22.825 184.125,25.625 C177.605,30.45 170.47,34.575 163.225,38.22 C161.725,38.94 160.255,39.7 158.875,40.64 C162.705,40.99 166.775,40.395 170.6,39.93 C173.765,39.585 176.67,38.92 179.875,39.3 C178.84,41.925 176.77,43.5 174.485,44.99 C169.32,48.195 162.97,49.8 157,50.63 C150.015,51.615 143.01,51.975 136.015,50.905 C128.985,49.875 122.02,47.33 114.935,46.805 C115.72,47.62 116.53,48.395 117.485,49.01 C122.02,51.93 126.85,53.9 131.9,55.715 C133.62,56.41 135.75,57.07 136.995,58.49 C136.39,59.39 135.48,59.565 134.505,59.81 C132.085,60.33 129.47,60.805 126.995,60.6 C120.63,60.115 114.635,58.645 108.5,56.985 C103.825,55.75 99.215,53.995 94.68,52.315 C92.845,51.64 91.05,50.905 89.39,49.855 C90.26,49.68 91.105,49.495 91.995,49.56 C96.5,49.815 100.605,50.94 105.01,51.685 C107.315,52.07 109.38,52.835 111.76,52.675 C110.945,52.265 110.145,51.86 109.255,51.635 C105.145,50.515 101.07,49.355 97.1,47.795 C94.35,46.725 91.45,46.07 88.505,45.89 C86.025,45.76 83.46,46.17 81,46.5 C78.69,46.865 76.245,47.17 74.045,47.985 C73.175,48.31 72.68,48.69 72.15,49.46 C72.57,50.62 73.82,51.245 74.995,51.29 C77.025,51.355 78.945,50.935 81.005,51.215 C83.205,51.535 85.36,52.335 87.405,53.185 C88.285,53.63 89.2,53.885 89.495,54.935 C88.63,55.23 87.9,55.23 87.005,55.07 C81.555,53.955 75.47,55.225 70.205,56.79 C69.05,54.575 69.52,52.365 68.915,50.055 C68.21,48.125 65.88,46.86 64.945,45.05 C64.59,44.265 64.38,43.41 64.125,42.59 C63.12,43.16 62.09,43.81 61.005,44.21 C59.485,44.255 59.155,42.63 58.7,41.525 C57.96,43.17 57.265,44.015 55.775,45.055 C54.66,40.67 54.08,35.27 56.055,31.055 C57.56,27.76 60.22,25.61 63.27,23.81 C68.545,20.74 74.285,18.43 80.1,16.62 C82.92,15.725 85.845,15.42 88.68,14.61 C86.145,13.86 83.565,13.995 80.995,14.48 C77.02,15.255 73.04,16.27 69.255,17.73 C66.74,18.68 64.81,20.175 62,19.175 C63.23,16.75 65.975,15.395 68.37,14.355 C74.135,12.16 80.88,11.705 87,11.425 C95.41,11.105 103.19,12.745 111.5,13.505 C117.655,14.065 123.82,14.42 130.005,14.44 C136.22,14.385 142.095,12.925 147.91,10.835 C150.005,10.105 152.04,9.17 154.165,8.535 Z" id="Shape" fill="#F3C725" fill-rule="nonzero"></path>
                <path d="M149.59,11.555 C144.09,15.355 136.875,19.18 129.99,18.235 C124.72,17.7 119.5,16.45 114.465,14.83 C118.99,15.165 123.44,15.865 128,15.78 C135.665,15.79 142.355,13.605 149.59,11.555 Z" id="Shape" fill="#FEFEFE" fill-rule="nonzero"></path>
                <path d="M191.41,13.545 C187.075,17.64 181.365,20.45 175.745,22.32 C167.93,24.855 159.715,26.08 151.505,25.285 C145.095,24.74 138.57,23.675 132.42,21.775 C140.2,22.2 148.21,22.865 156.005,22.42 C165.615,22.15 175.31,20.9 184.265,17.235 C186.785,16.24 189.045,14.84 191.41,13.545 Z" id="Shape" fill="#FEFEFE" fill-rule="nonzero"></path>
                <path d="M100,16.375 C105.83,16.58 111.66,17.415 117.42,18.28 C119.21,18.655 121.235,18.62 122.7,19.73 C118.66,20.01 114.555,19.41 110.5,19.35 C101.145,19.14 90.94,19.24 81.89,21.855 C76.015,23.46 71.16,27.155 67.29,31.765 C65.625,33.74 64.67,36.005 63.415,38.23 C63.04,35.42 62.98,32.68 64.02,29.995 C65.285,26.51 68.055,23.915 71.37,22.36 C80.19,18.145 90.265,16.31 100,16.375 Z" id="Shape" fill="#002F26" fill-rule="nonzero"></path>
                <path d="M104,21.685 C112.39,21.665 121.01,23.58 129.43,24.72 C140.335,26.275 151.105,27.61 162.125,27.85 C160.64,28.425 159.095,28.695 157.505,28.785 C152.075,29.14 146.42,28.56 140.995,28.15 C132.16,27.3 123.34,26.245 114.505,25.395 C105.925,24.62 96.5,24.575 88.245,27.3 C87.455,27.36 86.315,27.92 86.655,26.605 C88.155,25.535 90.07,25.08 91.695,24.2 C95.555,22.17 99.695,21.7 104,21.685 Z" id="Shape" fill="#002E26" fill-rule="nonzero"></path>
                <path d="M64.5,25.485 C63.065,27.955 61.575,30.1 61.04,32.985 C60.655,34.895 60.97,36.63 61.155,38.54 C59.905,37.48 58.595,36.545 57.925,34.99 C57.37,33.755 57.535,32.405 58.295,31.295 C59.815,28.95 62.23,27.07 64.5,25.485 Z" id="Shape" fill="#FEFEFE" fill-rule="nonzero"></path>
                <path d="M85,29.595 C89.865,29.415 94.36,30.42 99.07,31.48 C104.515,32.73 109.905,34.095 115.405,35.11 C120.75,36.17 126.08,36.27 131.5,36.315 C136.34,36.28 141.17,36.205 146,35.84 C152.515,35.7 158.985,34.73 165.485,34.4 C159.135,35.91 152.71,37.18 146.255,38.155 C139.65,39.255 132.67,39.01 126,38.675 C119.805,38.14 113.565,37.425 107.505,36.015 C99.46,33.89 90.57,32.92 82.405,34.9 C77.475,36.15 73.54,38.795 69.415,41.62 C70.82,37.945 73.105,34.645 76.285,32.295 C78.815,30.45 81.88,29.59 85,29.595 Z" id="Shape" fill="#FFFEFE" fill-rule="nonzero"></path>
                <path d="M100.505,37.92 C108,39.22 115.9,41.125 123.5,41.36 C132.645,41.78 141.88,41.47 150.995,40.615 C152.77,40.565 155.025,39.52 156.62,40.435 C155.205,41.17 153.67,41.585 152.23,42.24 C150.035,43.305 149.785,46.2 147.01,46.29 C142.175,46.565 137.225,45.885 132.41,45.41 C123.025,44.485 113.855,42.46 104.5,41.35 C99.28,40.825 93.72,40.18 88.495,40.835 C84.87,41.255 81.515,42.375 78.1,43.62 C75.66,44.505 73.375,45.6 70.82,46.16 C71.27,45.195 71.745,44.265 72.505,43.495 C75.85,40.095 80.27,38.23 84.925,37.44 C90.09,36.68 95.38,36.955 100.505,37.92 Z" id="Shape" fill="#003026" fill-rule="nonzero"></path>
                <path d="M89.24,41.905 C93.195,41.605 97.06,41.495 100.995,42.115 C106.68,42.95 112.365,43.815 118.02,44.8 C112.84,44.665 107.685,43.9 102.5,43.715 C97.965,43.435 93.48,43.39 89.015,42.445 L89.24,41.905 Z" id="Shape" fill="#FEFEFE" fill-rule="nonzero"></path>
                <path d="M58.01,48.825 C60.075,48.83 60.89,50.7 61.075,52.48 C61.145,54.825 60.86,57.335 60.08,59.55 C58.995,58.215 58.25,56.66 57.22,55.295 C56.295,54.635 54.88,55.565 54.04,56.045 C51.055,58.065 48.235,60.12 45.805,62.8 C42.115,66.84 39.025,71.535 36.2,76.205 C29.59,86.77 25.745,99.455 23.045,111.545 C22.595,111.21 21.87,110.94 21.625,110.435 C21.755,108.355 22.465,106.3 22.885,104.26 C25.34,94.385 28.455,84.505 32.75,75.265 C36.98,66.275 42.795,58.26 50.905,52.395 C52.945,50.96 55.465,49.045 58.01,48.825 Z" id="Shape" fill="#D5D5DA" fill-rule="nonzero"></path>
                <path d="M66.935,62.51 C72.065,64.515 75.16,68.86 78.59,72.92 C87.815,83.775 92.04,98.385 91.27,112.505 C91.245,113.88 90.95,115.105 91.615,116.375 C92.535,118.34 93.405,120.365 94.5,122.235 C94.07,122.795 93.645,123.365 93.225,123.935 C92.19,121.755 91.085,119.61 89.965,117.475 C87.25,125.54 83.96,133.655 79.34,140.825 C75.975,146.035 71.21,150.41 66.78,154.78 C62.03,159.215 57.07,163.505 51.745,167.245 C50.32,168.145 48.695,169.455 47,169.695 C45.36,169.475 43.85,167.91 42.78,166.73 C39.455,162.825 36.76,158.22 34.24,153.765 C32.54,150.685 30.85,147.745 29.715,144.41 C27.5,137.925 26.425,130.865 25.785,124.06 C38.275,117.33 50.7,110.46 63.15,103.65 C67.705,101.125 72.65,98.5 76.635,95.135 C78.56,93.42 80.39,91.51 80.43,88.76 C80.52,85.305 79.965,81.255 78.005,78.33 L77.51,78.475 C76.325,79.98 77.165,82.245 77.08,84.015 C76.82,85.265 76.045,86.29 75.21,87.215 C71.025,91.52 66.13,94.075 60.945,96.93 C50.55,102.515 39.985,107.785 29.32,112.83 C28.22,113.315 26.79,114.04 25.57,113.825 C25.06,113.52 24.625,113.055 24.19,112.66 C25.48,104.98 27.815,97.44 30.72,90.225 C34.13,81.815 39.38,74.185 45.775,67.77 C48.55,65.175 51.295,62.54 55.095,61.59 C58.94,60.625 63.23,61.215 66.935,62.51 Z" id="Shape" fill="#D5D5DA" fill-rule="nonzero"></path>
                <path d="M69.255,66.75 C72.765,69.035 75.085,72.98 76.07,76.98 C75.445,78.13 74.03,78.81 72.91,79.41 C69.125,81.265 65.235,82.985 61.525,85.03 C55.39,88.42 49.81,92.91 43.57,96.075 C42.685,96.4 40.775,97.425 40.305,96.03 C40.37,93.89 41.415,91.675 42.225,89.72 C44.91,83.675 48.075,77.79 51.87,72.375 C53.73,69.87 55.82,66.95 58.845,65.82 C62.285,64.43 66.185,64.52 69.255,66.75 Z" id="Shape" fill="#FFFFFF" fill-rule="nonzero"></path>
                <path d="M68.815,69.19 C70.79,71.115 71.01,75.12 68.51,76.72 C68.295,74.98 68.615,72.53 67.385,71.14 C65.52,69.025 62.265,68.905 59.74,69.685 C57.375,70.495 55.345,72.76 53.52,74.405 C55.56,71.585 57.88,68.12 61.595,67.545 C63.99,67.11 67.105,67.17 68.815,69.19 Z" id="Shape" fill="#231F20" fill-rule="nonzero"></path>
                <path d="M77.525,68.975 C82,70.725 86.07,73.66 88.915,77.56 C93.215,83.4 95.325,90.02 97.02,96.98 L96.975,96.305 C97.135,97.37 97.135,98.435 97.065,99.51 C96.715,104.39 96.505,109.25 95.605,114.07 C95.835,103.585 93.98,92.895 89.775,83.255 C87.265,77.63 82.155,72.895 77.525,68.975 Z" id="Shape" fill="#D5D5DA" fill-rule="nonzero"></path>
                <path d="M21.915,71.96 C15.945,77.29 12.03,83.92 8.685,91.1 C6.935,95.17 5.985,99.615 5.62,104.02 C4.925,103.53 4.235,103.04 3.54,102.545 C4.245,97.195 5.66,92.025 8.285,87.285 C11.55,81.325 16.16,75.66 21.915,71.96 Z" id="Shape" fill="#FFFFFF" fill-rule="nonzero"></path>
                <path d="M45.38,73.515 C46.115,75.955 45.44,78.1 44.97,80.51 C44.755,79.395 44.6,78.27 44.43,77.145 C43.48,77.64 42.665,78.12 42.06,79.03 C38.295,84.06 36.89,90.93 35.26,96.915 C34.865,98.595 34.16,100.615 35.38,102.125 C36.24,103.41 38.165,102.965 39.295,102.3 C43.085,100.215 46.86,98.075 50.725,96.115 C48.445,98.865 45.69,100.765 42.815,102.83 C40.16,104.685 37.48,106.555 34.65,108.145 C33.385,108.79 31.95,109.585 30.495,109.075 C29.66,107.75 29.96,106.46 30.125,105 C31.08,98.05 33.39,91.25 36.505,84.98 C38.265,81.575 40.265,78.175 42.78,75.265 C43.5,74.4 44.33,73.885 45.38,73.515 Z" id="Shape" fill="#231F20" fill-rule="nonzero"></path>
                <path d="M81.105,97.32 C82.19,97.895 82.775,98.575 83.375,99.635 C84.88,102.26 86.725,105.07 87.51,108 C87.865,109.175 87.75,110.325 87.48,111.5 C86.095,117.68 84.3,123.915 81.815,129.75 C78.895,136.715 74.24,143.105 69.115,148.615 C65.665,152.45 61.745,155.93 58.055,159.56 C55.535,162.035 52.64,164.415 49.365,165.81 C54.465,161.09 59.67,156.505 64.435,151.435 C70.32,145.3 75.45,138.675 78.8,130.8 C82.44,122.42 83.62,113.025 82.21,104 C81.915,101.585 80.64,99.81 81.105,97.32 Z" id="Shape" fill="#231F20" fill-rule="nonzero"></path>
                <path d="M76.645,100.705 C77.705,103.5 78.3,106.53 78.53,109.505 C78.78,112.895 76.24,116.195 73.975,118.48 C69.84,122.66 64.4,124.44 58.71,125.26 C51.025,126.295 43.07,125.58 35.545,123.825 C35.135,123.82 35.02,123.63 35.2,123.25 C36.17,122.505 37.34,121.98 38.41,121.395 C51.165,114.515 63.895,107.585 76.645,100.705 Z" id="Shape" fill="#FFFFFF" fill-rule="nonzero"></path>
                <path d="M10.105,110.815 C15.15,113.025 20.13,115.46 25.07,117.895 C23.585,118.58 22.105,119.28 20.615,119.945 C17.275,118.205 13.815,116.74 10.445,115.06 C8.425,114.11 6.72,113.02 4.455,112.735 C6.355,112.14 8.23,111.48 10.105,110.815 Z" id="Shape" fill="#D5D5DA" fill-rule="nonzero"></path>
                <path d="M0.995,111.565 C0.26,114.275 0.725,116.765 0.945,119.5 C0.69,118.345 0.335,117.245 0,116.115 L0,113.18 C0.325,112.64 0.65,112.095 0.995,111.565 Z" id="Shape" fill="#D9DBDC" fill-rule="nonzero"></path>
                <path d="M4.455,112.735 C6.72,113.02 8.425,114.11 10.445,115.06 C13.815,116.74 17.275,118.205 20.615,119.945 C19.94,120.24 19.26,120.52 18.575,120.8 C13.42,118.22 8.17,115.81 2.98,113.29 C3.47,113.095 3.96,112.91 4.455,112.735 Z" id="Shape" fill="#FFFFFE" fill-rule="nonzero"></path>
                <path d="M79.87,118.46 C79.705,120.4 79.485,122.335 79.14,124.255 C78.47,128.19 76.47,132.015 74.39,135.38 C68.455,144.705 60.91,152.9 52.15,159.64 C50.085,161.16 47.95,163.075 45.52,163.95 C43.675,163.035 42.25,161.095 40.94,159.545 C36.875,154.46 34.09,148.63 32.015,142.49 C31.105,139.775 30.23,137.075 29.74,134.245 C31.655,135.745 33.72,137.185 35.37,138.98 C37.645,146.935 41.82,153.96 46.595,160.65 C47.125,160.27 47.66,159.885 48.19,159.505 C44.235,153.83 40.75,147.535 38.785,140.88 C40.585,141.625 42.365,142.37 44.28,142.78 C46.095,147.925 48.15,152.83 51.505,157.185 C51.945,156.715 52.405,156.25 52.8,155.745 C52.255,154.37 51.31,153.16 50.675,151.82 C49.38,149.175 48.285,146.415 47.385,143.615 C48.8,143.6 50.205,143.58 51.615,143.465 L51.69,142.44 C53.065,145.845 54.935,148.875 56.715,152.065 C57.14,151.53 58.415,150.985 57.8,150.205 C56.5,147.775 55.245,145.37 54.425,142.72 C55.9,142.01 57.335,141.255 58.745,140.43 C59.655,142.53 60.76,144.525 61.98,146.455 C62.45,145.98 62.92,145.51 63.39,145.035 C62.255,143.13 61.24,141.175 60.54,139.065 C61.855,138.115 63.08,137.105 64.275,136.01 C65.095,137.66 66.04,139.23 67.02,140.785 C67.42,140.355 67.82,139.925 68.225,139.495 C67.27,137.85 66.36,136.19 65.69,134.405 C66.92,133.655 67.82,132.765 68.69,131.63 C69.425,132.93 70.32,134.105 71.31,135.22 C71.57,134.8 71.825,134.385 72.085,133.965 C71.065,132.58 70.075,131.255 69.495,129.61 C69.79,129.73 70.085,129.855 70.38,129.98 C71.11,129.14 71.84,128.305 72.57,127.47 C73.305,128.36 74.13,129.165 75.055,129.86 L75.75,129.045 C75.03,128.095 74.2,127.27 73.535,126.275 C75.805,123.79 77.69,121.015 79.87,118.46 Z" id="Shape" fill="#8B8F9E" fill-rule="nonzero"></path>
                <path d="M5.265,119.7 C6.425,120.225 7.59,120.74 8.755,121.245 C10.495,129.56 12.755,138.315 16.59,145.925 C21.05,154.515 27.67,160.905 35.005,167.02 C30.625,164.39 26.6,161.11 22.84,157.66 C19.535,154.505 16.57,151.035 14.485,146.95 C10.025,138.51 6.525,129.19 5.265,119.7 Z" id="Shape" fill="#FFFFFF" fill-rule="nonzero"></path>
                <path d="M72.665,124.86 C72.955,125.33 73.245,125.805 73.535,126.275 C74.2,127.27 75.03,128.095 75.75,129.045 L75.055,129.86 C74.13,129.165 73.305,128.36 72.57,127.47 C72.185,126.885 71.83,126.29 71.47,125.685 C71.865,125.41 72.265,125.135 72.665,124.86 Z" id="Shape" fill="#302D2F" fill-rule="nonzero"></path>
                <path d="M68.675,126.97 C68.95,127.85 69.21,128.73 69.495,129.61 C70.075,131.255 71.065,132.58 72.085,133.965 C71.825,134.385 71.57,134.8 71.31,135.22 C70.32,134.105 69.425,132.93 68.69,131.63 C68.07,130.515 67.415,129.31 67.09,128.07 C67.605,127.685 68.135,127.32 68.675,126.97 Z" id="Shape" fill="#231F20" fill-rule="nonzero"></path>
                <path d="M33.11,128.32 C34.19,128.585 35.32,128.79 36.37,129.175 C36.695,130.375 36.74,131.675 36.91,132.91 C37.285,135.595 38.03,138.28 38.785,140.88 C40.75,147.535 44.235,153.83 48.19,159.505 C47.66,159.885 47.125,160.27 46.595,160.65 C41.82,153.96 37.645,146.935 35.37,138.98 C34.33,135.505 33.555,131.92 33.11,128.32 Z" id="Shape" fill="#231F20" fill-rule="nonzero"></path>
                <path d="M64.055,128.77 C64.495,130.68 65,132.57 65.69,134.405 C66.36,136.19 67.27,137.85 68.225,139.495 C67.82,139.925 67.42,140.355 67.02,140.785 C66.04,139.23 65.095,137.66 64.275,136.01 C63.24,133.93 62.415,131.765 61.69,129.56 C62.48,129.305 63.265,129.04 64.055,128.77 Z" id="Shape" fill="#231F20" fill-rule="nonzero"></path>
                <path d="M41.27,130.235 C42.43,130.405 43.585,130.585 44.745,130.755 C45,135.205 46.075,139.385 47.385,143.615 C48.285,146.415 49.38,149.175 50.675,151.82 C51.31,153.16 52.255,154.37 52.8,155.745 C52.405,156.25 51.945,156.715 51.505,157.185 C48.15,152.83 46.095,147.925 44.28,142.78 C42.86,138.67 42.08,134.49 41.27,130.235 Z" id="Shape" fill="#231F20" fill-rule="nonzero"></path>
                <path d="M55.58,130.78 C56.455,130.585 57.33,130.39 58.205,130.19 C58.94,133.175 59.535,136.155 60.54,139.065 C61.24,141.175 62.255,143.13 63.39,145.035 C62.92,145.51 62.45,145.98 61.98,146.455 C60.76,144.525 59.655,142.53 58.745,140.43 C57.515,137.28 56.575,134.01 55.58,130.78 Z" id="Shape" fill="#231F20" fill-rule="nonzero"></path>
                <path d="M48.61,131.155 C49.65,131.055 50.7,130.99 51.745,130.93 C51.975,135.03 53.135,138.855 54.425,142.72 C55.245,145.37 56.5,147.775 57.8,150.205 C58.415,150.985 57.14,151.53 56.715,152.065 C54.935,148.875 53.065,145.845 51.69,142.44 C50.41,138.76 49.495,134.945 48.61,131.155 Z" id="Shape" fill="#231F20" fill-rule="nonzero"></path>
            </g>
        </g>
    </g>
</svg>