<?xml version="1.0" encoding="UTF-8"?>
<svg width="200px" height="200px" viewBox="0 0 200 200" version="1.1" xmlns="http://www.w3.org/2000/svg" xmlns:xlink="http://www.w3.org/1999/xlink">
    <!-- Generator: Sketch 51.2 (57519) - http://www.bohemiancoding.com/sketch -->
    <title>new-york-u</title>
    <desc>Created with Sketch.</desc>
    <defs>
        <polygon id="path-1" points="5.17123288e-05 0.21616083 151 0.21616083 151 199.740551 5.17123288e-05 199.740551"></polygon>
    </defs>
    <g id="new-york-u" stroke="none" stroke-width="1" fill="none" fill-rule="evenodd">
        <g id="new-york-u_BGL">
            <g id="Group-108" transform="translate(25.000000, 0.000000)">
                <g id="Group-3" transform="translate(0.000000, 0.043320)">
                    <mask id="mask-2" fill="white">
                        <use xlink:href="#path-1"></use>
                    </mask>
                    <g id="Clip-2"></g>
                    <path d="M5.31452774,126.379066 C5.28272466,126.458703 5.23695925,126.526148 5.2325637,126.596706 C5.22816815,126.670895 5.26307397,126.747678 5.28065616,126.823424 C5.31064932,126.754163 5.3592589,126.686459 5.36520582,126.615123 C5.37115274,126.542231 5.33495411,126.465707 5.31452774,126.379066 M145.024434,140.848586 C145.128375,140.879974 145.2318,140.911621 145.335742,140.943268 C145.703416,139.601634 146.067471,138.258703 146.441868,136.918885 C146.571408,136.454812 146.273286,136.265966 145.933019,136.192036 C145.423911,136.081271 145.553451,136.539377 145.520613,136.785811 C145.341689,138.13808 145.187327,139.493982 145.024434,140.848586 M112.57986,170.576472 C112.150906,171.956498 111.704112,173.242101 110.847755,174.26 C109.686555,175.639507 109.262514,177.131855 109.691468,178.974916 C110.944458,178.630947 112.203911,178.260519 113.296334,177.47297 C113.830523,177.088016 114.315843,176.620311 114.228449,175.885422 C114.01074,174.051958 113.688314,172.244695 112.57986,170.576472 M120.760233,99.8893126 C121.397329,99.7977432 121.836367,99.3839948 122.246963,98.9624643 C123.625613,97.5466407 124.220305,95.7858106 124.413968,93.8579248 C124.473178,93.2685603 124.672271,92.5051362 124.109641,92.2182361 C123.599757,91.9583139 122.95568,92.3689494 122.476565,92.7461219 C120.831079,94.0418418 119.374343,95.5349676 117.863567,97.1222568 C120.715243,97.0766018 120.715243,97.0766018 120.760233,99.8893126 M95.620026,169.867523 C94.8378771,170.624462 94.1718223,171.335227 93.4375072,171.965837 C91.9362983,173.255071 90.2807281,174.330558 88.5724113,175.3207 C87.8773976,175.723813 87.7819884,176.04677 88.4772606,176.603969 C89.7822212,177.649883 91.2425774,178.298651 92.8585877,178.648586 C93.472413,178.78166 93.8597384,178.679715 94.1544986,178.01201 C95.2857058,175.451699 95.8902229,172.809676 95.620026,169.867523 M103.347141,174.788405 C102.603,175.389961 102.466221,176.526407 101.415685,176.99022 C101.29623,176.064669 101.274511,175.203709 100.650601,174.471154 C100.281892,175.014864 99.9685158,175.516031 99.6135106,175.985292 C99.3862349,176.285681 99.1439627,176.72537 98.7209558,176.617717 C98.2974318,176.509805 98.3395774,176.016939 98.2852795,175.646511 C98.2177949,175.185292 98.3188925,174.679455 97.9098479,174.297095 C97.5491545,174.701245 97.2605997,175.289831 96.8055312,175.482049 C95.7250021,175.93834 95.5763291,176.849624 95.2960483,177.791518 C95.0607572,178.582438 95.2094301,178.802153 96.0396716,178.947419 C99.5830003,179.567912 103.14779,179.510065 106.716458,179.435875 C107.227892,179.42524 107.736742,179.310584 108.247142,179.248067 C108.56931,179.208379 108.858641,179.115253 108.825286,178.716031 C108.750562,177.835616 109.065749,176.915512 108.609387,176.069857 C108.264725,176.114475 108.192845,176.396706 108.02116,176.574916 C107.674428,176.934189 107.476629,177.658962 106.924858,177.541453 C106.323702,177.413826 106.555632,176.671933 106.418595,176.200597 C106.33844,175.92537 106.280781,175.643398 106.183303,175.24262 C105.842778,175.7731 105.589387,176.212529 105.29049,176.618236 C105.083899,176.898132 104.779314,177.148975 104.426377,177.111102 C103.980617,177.063372 104.05379,176.597224 103.983202,176.298392 C103.853146,175.75131 103.754634,175.204228 103.347141,174.788405 M101.125321,148.99463 C102.676173,152.947938 102.660401,156.625499 100.303612,160.343787 C107.646504,157.393852 111.690149,153.947678 112.15556,150.36428 C108.480365,150.792555 104.895666,150.440285 101.125321,148.99463 M110.630305,60.2231647 C112.847988,62.3876265 114.886488,64.3017639 116.839146,66.3004669 C119.519913,69.0449546 122.133196,71.8550713 124.781642,74.6314656 C125.154747,75.0223865 125.480017,75.5663554 126.076778,74.795668 C128.670927,71.4462516 129.952358,67.7507912 129.4055,63.4532555 C129.061096,60.7445655 128.250505,58.1474189 127.756136,55.4784176 C127.250648,52.748716 127.390788,49.9894423 127.420264,47.2363943 C127.447154,44.6999481 127.327958,42.1619455 127.613927,39.6299092 C127.896276,37.1261479 128.468214,34.6763424 129.055149,32.1302983 C128.837699,32.2350973 128.73686,32.2511803 128.692904,32.3098054 C128.358584,32.7590921 128.034607,33.2161608 127.70856,33.6716732 C124.27693,38.4662257 121.356735,43.6467704 117.045478,47.7785473 C116.178521,48.6094163 115.491523,49.6262776 114.671882,50.5108431 C114.001173,51.2343191 113.919985,51.6397665 114.945958,52.1850324 C117.625949,53.6088975 119.941627,55.5461219 122.069072,57.7090272 C122.510437,58.1577951 122.91069,58.6374319 122.577146,59.3007263 C122.233517,59.9829572 121.626156,59.998262 120.923386,59.9559792 C119.165166,59.8506615 117.398673,59.7772503 115.639161,59.8252399 C114.105632,59.8670039 112.543144,59.6382101 110.630305,60.2231647 M75.5228051,167.97751 C75.4858308,164.275045 74.9940466,161.406044 74.3654832,158.52978 C74.0593462,157.128223 73.261425,156.914994 72.1827058,156.800337 C71.8442486,156.76454 71.4933805,156.844695 71.1559575,156.804488 C62.3377127,155.756498 54.3616031,152.548197 47.2428839,147.249624 C46.2357863,146.499948 45.5575791,146.564021 44.6652829,147.244695 C40.859514,150.148716 37.9144969,153.86 34.96405,157.569728 C34.5968925,158.031206 34.6382623,158.393593 35.1091031,158.767393 C36.0528531,159.516809 36.9588531,160.314475 37.9013103,161.065966 C48.319276,169.372062 60.225264,174.567134 72.9932966,177.968431 C73.6071219,178.131855 74.0089267,178.157017 74.1208839,177.44262 C74.6532623,174.045473 75.6699267,170.713437 75.5228051,167.97751 M96.473538,174.806822 C97.0384952,174.547678 97.2546527,174.034838 97.4147024,173.487756 C97.4868411,173.240026 97.509336,172.917069 97.8539986,172.978288 C98.0272349,173.009157 98.2128822,173.205525 98.3108771,173.374656 C98.4828205,173.669857 98.5968462,173.999818 98.7245757,174.319403 C98.8572178,174.650661 98.7181116,175.259741 99.2106716,175.224721 C99.6597932,175.193074 99.7658034,174.6338 99.8495774,174.205785 C99.8824147,174.037173 99.8741408,173.86 99.9085295,173.691907 C99.9584318,173.447549 99.9568805,173.12952 100.254743,173.066226 C100.546401,173.004747 100.712139,173.261038 100.845557,173.482568 C101.231331,174.121997 101.605987,174.768431 102.003396,175.443917 C102.3765,174.996706 102.620324,174.601894 102.702805,174.114215 C102.744951,173.86441 102.803127,173.557017 103.087803,173.498651 C103.449531,173.424462 103.612166,173.736524 103.751273,174.002931 C104.100848,174.670895 104.433875,175.34716 104.784226,176.041582 C105.357199,175.602153 105.482343,175.070636 105.50794,174.491907 C105.518024,174.269339 105.575684,174.042361 105.807355,173.965318 C106.101339,173.867263 106.333786,174.058444 106.436435,174.28594 C106.72861,174.931595 106.970882,175.599559 107.261505,176.331595 C107.877141,175.905655 108.11993,175.317328 108.317213,174.710065 C108.431497,174.357017 108.631882,174.071673 108.90363,174.472711 C109.445059,175.271933 109.574339,174.470636 109.740336,174.261038 C113.243588,169.838729 112.309663,163.321738 108.923798,159.483087 C107.663569,158.054553 107.174629,158.048586 105.540261,158.934968 C103.497365,160.043139 103.578812,160.036654 103.754634,162.276083 C103.909254,164.242361 103.480817,166.152866 102.744434,167.984254 C102.695824,165.849364 102.641526,163.744047 102.140692,161.666485 C101.946771,160.862853 101.623052,160.679196 100.907353,161.070117 C100.418413,161.337821 99.9085295,161.576991 99.3864935,161.769209 C99.120175,161.867263 98.7662041,161.923554 98.5790055,161.594112 C98.4349866,161.340415 98.5756442,161.095279 98.7238,160.874786 C99.203949,160.160649 99.6990945,159.45585 100.159593,158.728742 C100.490293,158.206304 100.683439,157.694501 100.276204,157.059222 C98.5960705,154.440026 96.4432863,152.677899 93.1419712,152.721997 C91.4982949,152.744047 89.8879729,152.943009 88.2786853,153.245473 C87.3931116,153.41201 87.1412726,153.688534 87.4510295,154.684643 C88.87105,159.254293 89.4435055,163.92978 89.0070534,168.728482 C88.8314901,170.660519 88.384437,172.522776 88.011074,174.475045 C90.8019884,172.571284 94.2455123,171.436135 95.3306955,167.701505 C95.389389,167.499689 95.4180894,167.26415 95.6888034,167.229909 C96.0050243,167.189702 96.1730894,167.3993 96.2503993,167.652477 C96.3494284,167.978807 96.3843342,168.323813 96.4619027,168.657147 C96.9317092,170.680233 96.5935106,172.69035 96.3737332,174.704358 C96.265913,174.771025 96.1997212,174.848586 96.3359832,174.946381 C96.3442572,174.952348 96.4259627,174.85585 96.473538,174.806822 M120.254745,160.272192 C124.627798,158.607601 128.046759,155.602153 131.535531,152.301764 C128.047017,152.096316 124.862831,151.443658 121.611935,150.500726 C122.426146,154.038729 122.325307,157.262075 120.108916,160.127185 C120.08668,160.220311 120.020488,160.374137 120.050482,160.396187 C120.168903,160.483087 120.231992,160.393074 120.254745,160.272192 M137.536488,148.412789 C140.299995,149.494501 142.856911,150.903061 144.448617,153.528482 C145.77297,155.712918 146.552533,158.06415 145.627141,160.714734 C145.520355,158.258444 145.287391,155.842879 143.438675,153.758314 C142.804682,155.173878 142.20275,156.465966 141.643223,157.776213 C138.242362,165.744047 133.407517,172.82965 128.262916,179.726926 C128.022196,180.049624 127.743983,180.45144 127.353297,180.20345 C126.909346,179.922257 127.436295,179.602931 127.540754,179.334189 C128.503637,176.86441 129.04429,174.321219 129.018692,171.661297 C128.984045,168.034838 126.281559,165.571803 122.650577,165.873748 C122.222916,165.909287 121.788533,165.910843 121.368887,165.989702 C119.330646,166.371803 118.92729,167.32096 119.979377,169.088016 C122.780892,173.793333 124.187468,178.89476 123.769115,184.365058 C123.245269,191.222127 119.019079,195.485422 113.020708,197.754423 C103.581656,201.324851 94.5829353,200.168431 86.6820671,193.578029 C82.6872897,190.245992 78.972276,186.575694 75.3436219,182.834838 C74.4552041,181.918885 73.4455209,181.299689 72.2010637,180.944047 C60.1360603,177.495798 48.7963223,172.477121 38.5557298,165.123294 C36.9852264,163.995927 35.4563514,162.802153 33.9809986,161.552607 C33.3069284,160.98192 32.973901,161.066485 32.4927178,161.743009 C30.5868599,164.421608 29.8709027,167.492425 29.5052966,170.676083 C29.1903685,173.415901 29.2451836,176.149494 29.9267521,178.977769 C29.0621219,178.604228 28.5354318,177.990999 27.9422914,177.471414 C20.2198308,170.705136 14.793139,162.290869 10.6297795,153.002153 C6.48038219,143.743787 3.31817329,134.148457 1.19150377,124.217458 C0.68549863,121.854553 0.442709247,119.456368 0.264560274,117.049105 C0.241806849,116.743787 0.445811986,116.340415 5.17123288e-05,116.148975 L5.17123288e-05,113.036135 C0.587503767,111.462853 0.457188699,109.779326 0.732298288,108.154682 C1.7474113,102.15987 4.32630514,97.0024125 8.55585651,92.6418418 C11.4732075,89.6340597 13.9936664,86.3336706 15.8258342,82.5173281 C17.5320825,78.9632425 17.5799164,75.411751 16.1932503,71.779585 C15.5649455,70.1341894 14.8034815,68.5518288 13.9905637,66.9920363 C8.92197979,57.2664851 6.4095363,46.9079896 6.7735911,35.9456031 C7.10377432,25.9964462 8.69522123,16.2766018 13.2319438,7.25507134 C14.4443394,4.8446952 15.8798736,2.5754345 17.743586,0.21616083 C18.0044747,1.82679637 17.6153394,3.15805447 17.4886442,4.46622568 C16.9883274,9.6371725 18.7150021,13.7689494 22.9771322,16.748716 C24.3100175,17.6807523 25.7168514,18.5323735 27.1702264,19.2594812 C30.9185945,21.13393 33.6916682,23.9788067 35.0654062,27.8952789 C37.1791476,33.9214786 41.3753445,37.8849027 46.7746288,40.86 C51.2534336,43.3277043 55.7968788,45.5852918 60.9016613,46.4812711 C62.3633103,46.7375616 63.7223103,46.5357458 65.0629524,46.0472892 C70.973413,43.8942412 77.101324,42.7323735 83.3140432,41.9245914 C85.5345705,41.6358755 87.7494096,41.3728405 89.9945003,41.4257588 C90.7802692,41.4441764 91.5443188,41.5762127 92.2742384,41.8122698 C93.3064164,42.1461219 93.4292332,42.9544228 92.5669301,43.6400259 C91.5463873,44.4509209 90.2680586,44.7170687 88.701175,45.2651881 C91.3788394,45.5694682 93.6877949,45.8029313 95.9884764,46.0996887 C100.288098,46.6545525 104.517391,47.539118 108.547333,49.1785473 C109.450747,49.5461219 110.008982,49.3769909 110.723129,48.799559 C117.043151,43.6890532 122.148709,37.4670039 127.013288,31.0190143 C128.647398,28.8532555 130.285386,26.6906096 131.923891,24.5284825 C132.072305,24.3328923 132.180901,24.0799741 132.514187,24.0322438 C132.843595,24.3331518 132.66829,24.6812711 132.572363,24.966096 C130.652026,30.6680415 130.273233,36.5904799 130.064833,42.5362646 C129.83704,49.0309468 130.651767,55.4459922 131.476838,61.8680415 C131.955694,65.5948898 132.027057,69.3528664 130.992035,73.0283528 C130.555583,74.5775097 129.795153,75.9798444 128.623868,77.1064332 C128.258521,77.4581842 128.211721,77.6353567 128.597754,78.0140856 C132.128154,81.4753048 132.550903,85.7666148 131.746776,90.3362646 C131.509934,91.6823087 131.115627,93.0088975 130.685639,94.3085084 C130.450089,95.0213489 130.571613,95.3632425 131.224999,95.7458625 C134.110805,97.4361349 136.975668,99.1640208 139.819846,100.923813 C145.896045,104.683606 148.947589,110.391258 150.240139,117.243917 C150.513439,118.692425 150.468449,120.195668 151.000052,121.596446 L151.000052,128.859741 C150.360629,130.622905 150.485255,132.52511 150.003555,134.324332 C149.728704,135.352088 149.480743,136.397484 149.273118,137.437951 C149.102209,138.295279 149.023089,139.132114 148.676617,139.976991 C148.006425,141.613048 147.544117,143.334449 146.943478,145.179326 C145.971545,144.07323 145.040982,143.155201 143.942612,142.432244 C145.057788,139.213048 143.68948,135.892425 140.909425,135.071673 C141.064303,134.669339 141.414137,134.867523 141.678904,134.831984 C143.18244,134.630687 144.616165,135.087237 146.073677,135.320441 C146.308451,135.475824 146.470052,135.774656 146.832555,135.715512 C146.866427,135.366615 146.862031,135.018495 146.938824,134.689313 C148.018319,130.070376 148.369446,125.402931 147.915928,120.675824 C147.521105,116.559611 146.340512,112.712918 143.87461,109.361686 C139.821139,103.853515 134.381519,100.022127 128.462267,96.8109728 C126.875992,95.9502724 126.785754,95.843917 127.34192,94.0983917 C127.799315,92.661297 128.2156,91.2109728 128.671702,89.7736187 C128.826581,89.2859403 128.745134,88.9385992 128.270932,88.7038392 C127.689944,88.416939 127.062156,88.0470298 126.449365,88.309546 C126.014206,88.4957977 126.2526,89.0750454 126.299399,89.4947601 C126.72706,93.3544228 126.256737,97.0766018 124.549713,100.594112 C123.852889,102.030687 123.828584,102.001375 125.385125,102.133411 C126.968557,102.267782 128.475713,102.617717 129.900387,103.915512 C124.778281,103.502023 119.960502,103.281271 115.17013,104.556757 C115.872125,104.134708 116.574379,103.712659 117.392985,103.22083 C115.146343,102.788923 114.063745,101.431725 113.893095,99.3432685 C113.828971,98.5564981 113.565238,98.4607782 112.835577,98.6177173 C110.779495,99.0610376 108.783916,98.7253696 106.970107,97.688275 C103.698009,95.8174578 102.689101,92.6400259 102.474754,89.1622049 C102.419422,88.2672633 102.501386,87.1492348 103.389803,86.2140856 C103.337315,88.411751 103.515464,90.4065629 104.421723,92.2122698 C106.275351,95.9051362 108.987146,97.3396368 112.85497,95.6524773 C115.218482,94.6218677 116.996093,92.8957977 118.66666,91.0140856 C119.869488,89.6589624 121.0431,88.2755642 122.576112,87.2641505 C124.054309,86.2890532 125.589648,86.0675227 127.226343,86.8327626 C127.781733,87.0924254 128.3485,87.3277043 128.961809,87.5964462 C128.998524,84.2872374 127.80397,81.3004669 125.332896,78.5461219 C119.970586,72.5681712 114.248617,66.9383398 108.618178,61.2200519 C108.061495,60.6548119 107.506105,60.4711543 106.7736,60.7245914 C105.839416,61.0475486 104.90937,61.3886641 103.958898,61.6563684 C103.513396,61.7819196 102.97688,61.8418418 102.733574,61.262594 C102.48975,60.6820493 102.771841,60.2454734 103.240872,59.940415 C103.523738,59.7564981 103.858834,59.646511 104.179709,59.5287419 C107.82517,58.1912581 111.622406,57.816939 115.467218,57.7637613 C116.641863,57.7474189 117.817026,57.7614267 119.245579,57.7614267 C117.816509,56.3842542 116.462422,55.4042283 115.045762,54.5175875 C108.038483,50.1302983 100.241815,48.3884047 92.1410791,47.6597406 C88.4883788,47.3310765 84.8320586,47.3375616 81.1721185,47.4322438 C80.540711,47.4485863 79.9072349,47.4306874 79.7164164,46.6804929 C79.5318034,45.9531258 80.0471168,45.5692088 80.5898377,45.261297 C81.0955842,44.9746563 81.6225329,44.7253696 82.1396562,44.4597406 C81.6287384,44.289572 81.1710842,44.2804929 80.7242897,44.3456031 C77.6577486,44.7933333 74.6059455,45.3437873 71.6193,46.1694682 C68.0656288,47.1518288 64.3764712,47.8088975 61.2861425,50.0371725 C60.8067692,50.3829572 60.4905483,50.1038392 60.1236493,49.8973541 C57.6833445,48.5238132 55.1944301,47.2670039 52.5371921,46.3469001 C49.8520295,45.4171984 47.2400397,44.2963165 44.7087212,42.9941115 C40.7672075,40.9668742 37.4405534,38.2825681 35.0540295,34.4454734 C33.7922486,32.4166796 32.8658223,30.2392477 31.7646082,28.1414527 C29.9986322,24.7767315 27.6997606,21.9899611 24.0589541,20.4605188 C19.8343154,18.6859403 16.3990654,16.1053956 15.7454216,11.0919066 C15.7420603,11.0654475 15.6903479,11.0454734 15.5889918,10.9653178 C15.2944901,11.8470298 14.963014,12.6877562 14.7318599,13.555201 C12.9278753,20.3199222 11.6053325,27.1756939 11.0574404,34.1632425 C10.5558308,40.5609079 10.6747692,46.9334112 12.1563274,53.2205707 C13.364586,58.3492348 15.6342401,63.0462516 18.0031818,67.7051362 C19.2566887,70.169987 20.2156938,72.7435279 21.0221476,75.400856 C21.9568479,78.4820493 21.2028822,81.093463 19.4030346,83.55131 C18.9197829,84.2112322 18.3742178,84.8273152 17.8325312,85.4415824 C16.4285414,87.0325032 15.0545449,88.6511803 13.5083462,90.1559792 C16.5640277,88.9557198 19.5610158,87.7310765 22.8718976,87.4462516 C16.0264781,91.1536446 10.3448445,96.1577951 6.9225226,103.16869 C3.45857226,110.264929 3.42676918,117.866226 5.08802774,125.501764 C4.94323322,121.590739 5.16973322,117.745863 6.9825089,114.16869 C8.86432055,110.454293 11.8742366,108.169209 15.892026,107.010195 C15.8351425,107.480493 15.5427092,107.621608 15.3327572,107.810454 C11.9869695,110.817717 9.85926575,114.562464 8.79606027,118.903839 C7.1146339,125.770765 7.64416815,132.618495 9.22449692,139.418495 C11.9564592,151.175694 17.6357658,161.443398 25.1221596,170.780882 C25.2904832,170.990999 25.4114901,171.33834 25.8169147,171.260778 C25.8169147,170.404228 25.7261596,169.540934 25.8308771,168.701764 C26.9209729,159.980363 32.1131493,153.567912 38.0639455,147.780104 C42.2156699,143.741712 47.5560021,141.643139 53.1944558,140.345084 C58.2581271,139.179326 62.8403565,139.845214 66.8284113,143.406304 C68.6590277,145.040804 70.0162178,147.026537 71.2035329,149.140415 C72.1302178,150.790739 72.986574,152.481271 73.8744747,154.153385 C73.7071853,154.504358 73.5688548,154.877639 73.1851493,155.06415 C72.9348616,154.663632 72.6775928,154.267523 72.4360962,153.861556 C71.0429661,151.521219 69.551324,149.244695 67.4223274,147.504617 C63.1092606,143.980363 58.0608445,143.209676 52.7205123,143.786848 C50.7127812,144.003969 48.8087332,144.671933 46.9734627,145.837691 C49.4926288,147.834578 52.1289233,149.430687 54.8526116,150.900986 C60.3710928,153.880493 66.4007503,155.125629 72.4909113,156.154423 C72.8795295,156.220052 73.5685962,156.175435 73.4700842,155.381401 C73.9375637,155.39463 74.068913,154.870117 74.458824,154.759351 C74.7422075,155.430428 74.668776,156.161946 74.8694199,156.86882 C76.2356596,161.676861 77.0072075,166.568949 76.2509147,171.573359 C75.9809764,173.359611 75.3870603,175.095538 75.0907486,176.879455 C74.7577212,178.884125 74.651711,180.943268 76.6917623,182.219014 C80.6265534,184.679455 83.9974216,187.83847 87.5086887,190.828353 C92.6703548,195.223684 98.4543788,197.780623 105.40917,196.848067 C110.336062,196.187367 114.606466,194.146381 117.870031,190.396965 C122.162413,185.465447 122.146382,179.790739 120.036519,173.965058 C119.201107,171.658444 118.08774,169.452996 117.102362,167.200856 C116.905338,166.750532 116.476384,166.291128 117.25362,165.930817 C120.12624,164.598262 123.058329,163.476861 126.295262,163.652996 C128.679718,163.782698 130.015706,164.843139 130.724682,167.136524 C131.197591,168.666485 131.594742,170.226278 131.385565,171.913437 C132.216583,170.634319 132.898151,169.315512 133.59213,168.00345 C136.275225,162.928742 138.76388,157.762464 140.894687,152.427575 C141.152732,151.781401 141.469211,151.059222 140.651122,150.597224 C139.9,150.173619 139.277384,149.257406 138.164017,150.079715 C136.944641,150.980363 135.50316,151.500726 134.02548,151.829131 C133.356064,151.978547 132.865831,152.291388 132.392663,152.762205 C130.248928,154.896057 127.947213,156.846511 125.457781,158.563761 C123.138225,160.163502 120.669737,161.457925 117.900283,162.095538 C117.525627,162.18166 117.079608,162.340156 116.897322,161.852218 C116.747357,161.450143 117.113738,161.230687 117.414446,161.062594 C120.676718,159.240026 121.269858,156.248067 121.069732,152.856887 C121.011555,151.870636 120.65112,151.911362 119.982997,152.278936 C116.794932,154.032503 114.681708,156.676342 113.772863,160.187108 C112.413863,165.436654 113.427942,170.46856 115.520482,175.32511 C115.924872,176.263632 115.8155,176.810973 115.088166,177.446511 C113.307194,179.003709 111.215689,179.840026 108.926642,180.217717 C104.555399,180.938859 100.178209,180.524332 95.8186014,180.118625 C93.2924541,179.883606 90.7939729,179.357795 88.5108736,178.138859 C86.8454781,177.249883 86.4082503,175.947938 87.0973171,174.234578 C88.2802366,171.293463 88.5183719,168.214086 88.3653034,165.078677 C88.0997606,159.647549 86.4273839,154.597224 84.3795757,149.623165 C83.8919284,148.438988 83.4588377,148.482309 82.5220688,149.017458 C80.0727144,150.417458 77.8648565,152.121219 75.8134284,154.048327 C75.4413582,154.397743 75.1724541,155.016939 74.4676151,154.762464 C75.8240295,152.972581 77.3578171,151.347678 79.0710466,149.904099 C87.5262709,142.779066 97.3071408,141.215383 107.885156,143.031725 C103.841252,143.287237 99.7308976,142.684903 95.647175,143.954682 C98.6071887,147.574137 102.346766,149.389702 106.877024,149.566615 C111.682392,149.753904 116.407089,149.32952 120.906838,147.446511 C120.945363,147.480493 120.983113,147.514734 121.020863,147.549235 C121.18143,148.095798 121.638567,148.375953 122.076571,148.623424 C126.98769,151.39904 132.061446,151.617198 137.282581,149.582698 C138.040425,149.287497 137.80048,148.877899 137.536488,148.412789" id="Fill-1" fill="#050404" mask="url(#mask-2)"></path>
                </g>
                <path d="M120.906864,147.489805 C116.407115,149.372815 111.682418,149.797458 106.87705,149.609909 C102.346792,149.432996 98.6072146,147.617432 95.6472009,143.997977 C99.7309235,142.728457 103.841278,143.330532 107.884923,143.075279 C108.230362,142.876316 108.623376,143.298625 108.986138,142.985006 C108.129006,142.786304 107.299023,142.567367 106.458439,142.404462 C102.2051,141.578003 97.9334029,141.52249 93.649295,142.13987 C93.3739269,140.107445 92.8826598,138.10511 93.2756735,136.011466 C93.6689457,133.914708 93.714194,133.838184 95.8235399,134.160104 C100.499627,134.874241 105.046951,136.074241 109.490074,137.696031 C109.966862,137.870091 110.460197,138.306407 111.03136,137.89214 C111.031102,137.891621 110.962583,137.924047 110.962583,137.924047 C110.894064,138.39668 111.250362,138.183969 111.448161,138.227289 C111.955459,137.995383 112.262114,138.619248 112.948595,138.548171 C112.508781,138.291621 112.234189,138.128197 111.957011,137.97048 C106.674596,134.960882 101.026317,132.90511 95.138093,131.475279 C97.2327009,128.37904 99.3448909,127.744799 102.714983,129.204981 C105.156581,130.262827 107.568703,131.381375 109.861627,132.743761 C110.054256,132.858418 110.293942,133.160882 110.503377,132.821064 C110.699626,132.502776 110.36272,132.431958 110.166213,132.289805 C109.223239,131.608353 108.291899,130.911077 107.356423,130.219248 C107.242656,130.045707 107.129148,129.872166 107.015381,129.698885 C109.040435,130.070091 110.787019,130.995383 112.390102,132.27917 C113.341608,133.041816 114.227699,133.977224 115.555155,134.112114 C115.544812,134.287471 115.619795,134.298885 115.746232,134.211466 C115.692192,134.169183 115.637894,134.12716 115.583855,134.085396 C115.181792,132.95725 114.351292,132.020285 114.162542,130.788898 C114.093247,130.337795 114.026021,129.896809 114.358273,129.576446 C114.708624,129.239222 115.106292,129.570739 115.436216,129.703294 C117.707163,130.615616 119.608626,132.101479 121.390115,133.736498 C123.732942,135.886952 125.701372,138.247004 125.119867,141.978781 C129.142569,140.188638 132.806129,138.285655 135.247468,134.655564 C136.264132,133.14428 136.74092,132.96607 138.528874,133.503035 C139.310506,133.737795 140.068867,134.028327 140.708031,134.561401 C140.558324,134.660752 140.270286,134.706926 140.39543,134.946615 C140.455158,135.06153 140.731302,135.062309 140.909451,135.114708 C143.689506,135.93572 145.057814,139.256342 143.942638,142.475538 C142.271295,141.989416 140.66149,141.218988 138.85311,141.366848 C137.556423,141.190713 136.260771,140.990713 134.610889,141.189157 C137.500833,141.676316 139.99104,142.369183 142.29198,143.658677 C142.982598,144.045966 143.123256,144.367367 142.647244,145.037665 C141.741244,146.314449 140.644684,147.383709 139.401261,148.315486 C138.259711,148.074501 137.22624,147.28799 135.917401,147.667237 C136.204146,148.457899 137.020167,148.169961 137.536256,148.456342 C137.800506,148.921453 138.040451,149.331051 137.282607,149.625992 C132.061471,151.660493 126.987716,151.442335 122.076596,148.666719 C121.638593,148.419248 121.181456,148.139092 121.020889,147.592529 C121.080358,147.540649 121.194126,147.447523 121.191023,147.443113 C121.073377,147.286952 120.986759,147.374112 120.906864,147.489805" id="Fill-4" fill="#9A7E4C"></path>
                <path d="M139.401338,148.315383 C140.644761,147.383606 141.741321,146.314345 142.647321,145.037562 C143.123333,144.367263 142.982676,144.045863 142.292058,143.658833 C139.990859,142.369079 137.500652,141.676213 134.610967,141.189053 C136.260849,140.990869 137.556242,141.19061 138.853188,141.366744 C140.094801,141.874656 141.416568,142.144436 142.630515,142.75144 C146.147729,144.510195 147.946542,147.370117 148.170974,151.262464 C148.222169,152.151699 148.178472,153.046381 148.051777,153.951958 C147.977311,151.610324 147.806919,149.315123 146.252446,147.235227 C145.593631,148.504488 145.145285,149.72524 144.740378,150.970117 C144.545681,151.569339 144.271864,151.965447 143.634768,151.243787 C143.128504,150.670246 142.471499,150.230558 141.881462,149.730947 C142.603883,148.144695 143.382671,146.579196 143.623133,144.803839 C142.535623,146.098781 141.447854,147.393722 140.360343,148.688664 C139.982068,148.715642 139.644386,148.637302 139.401338,148.315383" id="Fill-6" fill="#050404"></path>
                <path d="M140.360343,148.688768 C141.447854,147.393826 142.535623,146.098885 143.623133,144.803684 C143.382671,146.57904 142.603883,148.14454 141.881462,149.731051 C141.318314,149.466459 140.696474,149.28773 140.360343,148.688768" id="Fill-8" fill="#9A7E4C"></path>
                <path d="M84.3729048,105.068742 C84.3289493,105.122438 84.2451753,105.180285 84.250088,105.228794 C84.2581034,105.30428 84.3261051,105.3738 84.3685092,105.445655 C84.4145332,105.385214 84.4967558,105.324514 84.4964973,105.264332 C84.4962387,105.198444 84.4197045,105.132815 84.3729048,105.068742 M99.9693432,115.840726 C105.807665,111.793774 111.964793,113.705058 118.39367,114.388586 C111.439138,111.103243 105.558929,107.080934 101.615605,100.392737 C102.335699,105.795071 101.487359,110.828016 99.9693432,115.840726 M94.7893192,87.1473411 C94.3316651,87.295201 94.3779476,87.5302205 94.4014767,87.7312581 C94.7052866,90.3242542 94.174201,92.7053178 92.4979459,94.736965 C90.0966839,97.6472114 87.2610384,98.1190661 84.0796959,96.1590143 C81.4904596,94.5634241 79.2792404,92.5216602 77.2777147,90.2360571 C73.28785,85.6809339 68.6908825,81.9904021 62.7649082,80.2975357 C58.3357473,79.0324254 54.2897747,79.750454 50.6991291,82.8560311 C51.2485726,83.1618677 51.5955623,82.8412451 51.9787507,82.6881971 C52.9362045,82.3055772 53.8758175,81.8526589 54.8637815,81.5769131 C56.9307233,81 59.0204185,80.8568093 61.0690024,81.6954604 C61.4692558,81.8594034 62.0701531,81.9540856 61.5848329,82.6640726 C60.4996497,84.2523995 60.6454784,86.0072633 60.9296377,87.787808 C61.3495418,90.4202335 62.3209579,92.8619974 63.4925007,95.2233463 C63.9400709,96.1258106 63.9612729,96.4536965 62.8282558,96.7439689 C60.370886,97.3735409 57.9745366,98.2415045 55.8033945,99.6095979 C55.2216308,99.9758755 54.5935846,100.322957 54.2036736,101.137743 C64.7338551,98.7107652 74.632112,100.119066 84.111499,104.995071 C81.8121103,102.713359 79.0012866,101.261479 76.1860675,99.5571984 C76.9015075,99.2977951 77.4703432,99.1971466 77.9184305,98.9079118 C78.9588825,98.2365759 79.7984322,98.371725 80.7928603,99.106096 C82.2689887,100.196109 83.9969562,100.896498 85.8505846,100.798444 C89.7378003,100.592737 93.4502284,97.5883268 94.6657267,93.8070039 C95.3723757,91.6077821 95.3894408,89.4007782 94.7893192,87.1473411 M21.6854099,33.6544747 C21.1977627,47.3159533 22.3240572,60.6031128 30.2900829,72.3642023 C30.7847113,72.2088197 30.7627336,71.9574578 30.8278911,71.7675746 C32.5755092,66.6747082 35.9735264,63.0798962 40.7388175,60.6988327 C44.4517627,58.8435798 48.429475,57.8931258 52.5323312,57.1976654 C52.1672421,56.7009079 51.6457233,56.7115435 51.2185795,56.5771725 C48.0111223,55.5688716 44.8587387,54.4036316 41.8607164,52.8869001 C33.2330315,48.5224384 25.2659716,43.4355383 21.6854099,33.6544747 M73.8742678,154.197147 C72.9866257,152.524514 72.1302695,150.834241 71.203326,149.183658 C70.0162695,147.06978 68.6590795,145.084306 66.828463,143.449546 C62.8404082,139.888457 58.2581788,139.222568 53.1945075,140.388327 C47.5557952,141.686381 42.2157216,143.784955 38.0637387,147.823346 C32.1129425,153.611414 26.9210247,160.023865 25.8309288,168.745266 C25.7262113,169.584176 25.8169664,170.447471 25.8169664,171.304021 C25.4112832,171.381842 25.2905349,171.034241 25.1222113,170.824125 C17.6358175,161.486641 11.956511,151.218936 9.22429007,139.461738 C7.64421986,132.661738 7.11468562,125.814267 8.79611199,118.947082 C9.8590589,114.605966 11.9870212,110.86096 15.3328089,107.853696 C15.542761,107.66511 15.8351942,107.523995 15.8918192,107.053437 C11.8740298,108.212451 8.86437226,110.497795 6.98230205,114.211933 C5.16978493,117.789105 4.94328493,121.633982 5.08782089,125.545266 C3.42682089,117.909468 3.45862397,110.308171 6.92257432,103.212192 C10.3448962,96.2010376 16.0265298,91.1968872 22.8719493,87.4894942 C19.5608089,87.7743191 16.5640795,88.9989624 13.5083979,90.1994812 C15.0545966,88.6944228 16.4285932,87.0757458 17.8323243,85.4848249 C18.3742695,84.8708171 18.9198346,84.2544747 19.4030863,83.5945525 C21.2029339,81.136965 21.9568997,78.5255512 21.0219408,75.444358 C20.2157455,72.7870298 19.2567404,70.213489 18.0032336,67.7483787 C15.6342918,63.0894942 13.3646377,58.3924773 12.1563791,53.2638132 C10.6748209,46.9769131 10.5558825,40.6044099 11.0574921,34.2064851 C11.6051257,27.2191958 12.9279271,20.3631647 14.7319116,13.598703 C14.9630658,12.7312581 15.2945418,11.8902724 15.5890435,11.0085603 C15.6903997,11.088716 15.742112,11.10869 15.7454733,11.1351492 C16.3988586,16.1486381 19.8343671,18.7291829 24.0587473,20.5037613 C27.6998123,22.0332036 29.9986839,24.8202335 31.7646599,28.1846952 C32.865874,30.2827497 33.7923003,32.4599222 35.0540812,34.488716 C37.4406051,38.32607 40.7672592,41.0101167 44.7087729,43.0376135 C47.2400914,44.339559 49.8520812,45.460441 52.5372438,46.3901427 C55.1942233,47.3105058 57.6833962,48.5670558 60.1234425,49.9405966 C60.4903414,50.1473411 60.8068209,50.4261997 61.2859356,50.0806744 C64.3765229,47.8521401 68.0656805,47.1950713 71.6193517,46.2127108 C74.6059973,45.3870298 77.6575418,44.8365759 80.7243414,44.3888457 C81.171136,44.3237354 81.6287901,44.3330739 82.1397079,44.5029831 C81.622326,44.7686122 81.095636,45.0178988 80.5898894,45.3045396 C80.0471685,45.6124514 79.5315966,45.9966278 79.7164682,46.7239948 C79.9072866,47.47393 80.5407627,47.4920882 81.1721702,47.4757458 C84.8318517,47.3810636 88.4884305,47.3743191 92.1411308,47.7029831 C100.241867,48.4319066 108.038276,50.1735409 115.045814,54.5608301 C116.462215,55.4474708 117.816561,56.4277562 119.245631,57.8046693 C117.817078,57.8046693 116.641915,57.7909209 115.46727,57.8072633 C111.622458,57.8601816 107.825222,58.2345006 104.179761,59.5722438 C103.858627,59.6897536 103.523532,59.7997406 103.240924,59.983917 C102.771893,60.288716 102.489543,60.7252918 102.733626,61.3058366 C102.976932,61.8850843 103.513189,61.8251621 103.958949,61.6996109 C104.909422,61.432166 105.83921,61.0910506 106.773651,60.767834 C107.506157,60.5146563 108.061547,60.6983139 108.61823,61.2632944 C114.248668,66.9818418 119.970638,72.6114137 125.332948,78.5893645 C127.804021,81.3437095 128.998576,84.3307393 128.96186,87.6399481 C128.348552,87.3709468 127.781785,87.1359274 127.226136,86.8760052 C125.589699,86.1107652 124.05436,86.3322957 122.576163,87.307393 C121.043151,88.3188067 119.86954,89.7022049 118.666711,91.0575875 C116.996145,92.9390402 115.218533,94.6653696 112.855021,95.6959792 C108.987198,97.3831388 106.275403,95.9486381 104.421775,92.2555123 C103.515516,90.4498054 103.337367,88.4549935 103.389855,86.2573281 C102.501437,87.1924773 102.419473,88.3105058 102.474805,89.2057069 C102.689153,92.6832685 103.698061,95.8607004 106.970158,97.7315175 C108.783968,98.7686122 110.779547,99.1042802 112.835629,98.6612192 C113.565032,98.5040208 113.829023,98.5997406 113.893146,99.3867704 C114.063797,101.474968 115.146395,102.832166 117.393037,103.264073 C116.57443,103.755901 115.872177,104.177951 115.169924,104.6 C119.960554,103.324514 124.778333,103.545266 129.900439,103.959014 C128.475506,102.661219 126.968609,102.311025 125.385177,102.176913 C123.828636,102.044877 123.852682,102.07393 124.549764,100.637354 C126.25653,97.1198444 126.727112,93.3979248 126.299192,89.5380026 C126.252651,89.1185473 126.014258,88.5390402 126.449158,88.3527886 C127.062208,88.0905318 127.689996,88.4601816 128.270725,88.7473411 C128.744927,88.9818418 128.826633,89.3294423 128.671754,89.8171206 C128.215393,91.2544747 127.799367,92.7045396 127.341972,94.1416342 C126.785805,95.8871595 126.876043,95.9935149 128.462319,96.8542153 C134.381571,100.06537 139.821191,103.896757 143.874662,109.405188 C146.340564,112.75642 147.521157,116.602853 147.91598,120.719066 C148.369497,125.446433 148.018112,130.113878 146.938876,134.732555 C146.862083,135.061738 146.866478,135.410117 146.832348,135.759014 C146.470103,135.817899 146.308502,135.519326 146.073728,135.363684 C146.037271,135.045914 145.72648,134.994812 145.546004,134.817121 C145.689764,125.083009 138.703687,115.958495 130.518143,115.357717 C132.449857,117.564981 134.269355,119.743709 135.635595,122.254475 C137.192653,125.115953 138.1046,128.12192 137.829232,131.43061 C137.772348,132.112322 137.520251,132.314916 136.872295,132.283528 C136.085492,132.245396 136.427828,131.729183 136.427052,131.36083 C136.424208,130.034241 136.295186,128.727367 135.929321,127.443839 C135.777287,127.48275 135.689376,127.490791 135.615427,127.526848 C135.422282,127.621012 135.231204,127.721141 135.046333,127.83035 C129.60723,131.03917 124.119259,131.358495 118.501749,128.242283 C116.550901,127.160052 114.567734,126.097795 112.417793,125.438911 C110.756535,124.929702 109.918795,125.702464 110.201145,127.4262 C110.349559,128.333593 110.850134,129.105837 111.173595,129.946044 L111.1979,129.927108 C109.693071,129.835279 108.574275,128.820752 107.271641,128.250324 C105.163071,127.327367 103.099749,126.299351 100.720465,126.322957 C96.4826394,124.460441 92.0912284,123.784436 87.5353723,124.770687 C85.160225,125.284825 82.8383414,126.006485 80.9655795,127.697276 C80.8719801,127.93048 80.7781223,128.163165 80.6840058,128.396368 C80.4476805,128.427237 80.1673997,128.327626 80.0148483,128.603372 C79.9957147,128.637095 80.0859527,128.785473 80.1097404,128.781582 C80.359511,128.742153 80.6074716,128.684565 80.6646137,128.375357 C82.9280623,127.726848 85.1364373,126.874708 87.5152045,126.667704 C90.0206668,126.449805 92.4914818,126.49546 95.1825914,127.217121 C93.4773774,128.098833 92.6903158,129.436316 91.9500538,130.81323 C88.7469921,130.337743 85.5353979,130.298573 82.3325949,130.754864 C80.3892455,131.031647 78.463737,131.437613 76.5304716,131.785992 C76.0821257,131.72166 75.632487,131.663554 75.1854339,131.59144 C74.4247455,131.468482 74.0627592,131.729442 74.2522849,132.541375 C73.3364596,133.381323 71.9042866,133.327886 71.1061068,134.371466 L71.1270503,134.351751 C70.9225281,134.397406 70.6047558,134.221271 70.5866565,134.63061 L70.6096685,134.610117 C70.4121274,134.66952 70.0863397,134.478859 70.0695332,134.889754 L70.0925452,134.867185 C69.9032781,134.945006 69.5896428,134.780804 69.5495658,135.148379 L69.5733534,135.121401 C69.4096839,135.250324 69.0880332,135.076265 69.0301154,135.407263 L69.0564887,135.383139 C68.8734271,135.477302 68.690624,135.570947 68.5078209,135.664591 L68.5360041,135.636057 C68.3912096,135.75201 68.2464151,135.868223 68.1016205,135.984436 C66.3496068,137.718547 64.4840846,138.191958 62.3421599,136.62179 C61.5832815,136.06511 60.683487,135.706615 59.8858243,135.197925 C53.3995469,131.062257 51.3137301,124.680674 54.0317301,117.458366 C55.1396668,114.514397 56.7776548,111.894423 58.7181599,109.451621 C59.2381274,108.797147 59.2900983,108.554086 58.3215264,108.355642 C53.0618654,107.278599 47.7820366,106.801297 42.4150726,107.323476 C31.7980144,108.357198 23.0079527,112.906096 16.0544545,121.001816 C13.8623688,123.554086 11.8427438,126.240467 10.6078534,129.4262 C10.5750161,129.44773 10.5375247,129.46537 10.5121856,129.493385 C10.5028774,129.503502 10.522011,129.540078 10.528475,129.564462 C10.5470914,129.512322 10.5654493,129.460182 10.5840658,129.408301 C11.1423003,129.655772 11.5795281,129.258366 12.0402849,129.093904 C14.3003723,128.286641 16.6088106,127.855253 19.0103312,128.105837 C20.7266634,128.284825 22.1291017,129.009339 23.0700075,130.529961 C23.4438877,131.134371 23.5121479,131.675227 23.1822233,132.3393 C22.3830092,133.948379 22.0993671,135.697795 21.9806873,137.472892 C21.601636,143.146563 23.2988346,148.293645 25.9909784,153.177173 C26.3477935,153.824384 26.5274938,154.613489 27.3024031,155.147082 C27.4877918,154.52166 27.3223123,154.037354 27.2796497,153.54345 C26.960326,149.856809 27.6801616,146.518029 30.4141925,143.79585 C32.9126736,141.308171 35.9706822,139.886122 39.3040589,139.035019 C46.8287199,137.114397 54.4710264,137.175097 62.136862,137.846433 C62.9448671,137.91751 63.8893928,137.807782 64.5130435,138.196887 C65.0917045,138.557717 65.4306788,138.35201 65.748451,138.142153 C68.407499,136.388846 71.3613072,135.376654 74.3877712,134.501686 C75.204826,134.265629 75.6480007,134.453178 76.0978979,135.132036 C77.7674305,137.651362 79.3754253,140.208301 80.8264733,142.860182 C81.4209065,143.946044 82.2058997,144.941375 82.4954887,146.183139 C79.3294014,148.537743 76.4309253,151.18262 73.8742678,154.197147" id="Fill-10" fill="#9A7E4C"></path>
                <path d="M74.4666325,154.805525 C75.1722473,155.060259 75.4414099,154.441064 75.8132216,154.091647 C77.8649082,152.16454 80.0727661,150.460778 82.5221205,149.060778 C83.4588894,148.525629 83.8919801,148.482309 84.3793688,149.666485 C86.4274356,154.640545 88.0998123,159.690869 88.3650966,165.121997 C88.5184236,168.257406 88.2800298,171.336783 87.0973688,174.277899 C86.4083021,175.991258 86.8452712,177.293204 88.5109253,178.182179 C90.7940247,179.401115 93.2925058,179.926926 95.8186531,180.161946 C100.178261,180.567652 104.555451,180.982179 108.926694,180.261038 C111.215482,179.883346 113.306987,179.04703 115.088218,177.489831 C115.815293,176.854293 115.924665,176.306952 115.520533,175.36869 C113.427994,170.511881 112.413915,165.479974 113.772915,160.230428 C114.681759,156.719663 116.794984,154.075824 119.983049,152.322257 C120.651172,151.954682 121.011607,151.913956 121.069783,152.900208 C121.26991,156.291647 120.67677,159.283346 117.414497,161.105914 C117.11379,161.274008 116.747408,161.493463 116.897374,161.895538 C117.07966,162.383476 117.525679,162.224981 117.900335,162.138859 C120.669788,161.501245 123.138276,160.206822 125.457574,158.607082 C127.947006,156.889831 130.24898,154.939377 132.392715,152.805525 C132.865883,152.334708 133.355857,152.021868 134.025532,151.872451 C135.503211,151.544047 136.944692,151.023684 138.164069,150.123035 C139.277436,149.300726 139.900052,150.216939 140.651174,150.640545 C141.469263,151.102542 141.152783,151.824721 140.894739,152.470895 C138.763674,157.805785 136.275018,162.972062 133.591924,168.04677 C132.898203,169.359092 132.216634,170.677639 131.385617,171.956757 C131.594793,170.269598 131.197643,168.709805 130.724734,167.179844 C130.015499,164.886459 128.679511,163.826018 126.295314,163.696316 C123.058381,163.520182 120.126033,164.641582 117.253672,165.974137 C116.476436,166.334449 116.905389,166.793852 117.102413,167.244176 C118.087792,169.496316 119.201158,171.701764 120.036571,174.008379 C122.146434,179.83406 122.162206,185.508768 117.870083,190.440285 C114.606518,194.189702 110.336114,196.230687 105.408963,196.891388 C98.4544305,197.823943 92.6704065,195.267004 87.5087404,190.871673 C83.9974733,187.88179 80.6266051,184.722776 76.691814,182.262335 C74.6515041,180.986589 74.7577729,178.927445 75.0908003,176.922776 C75.387112,175.138859 75.9807695,173.402931 76.2509664,171.61668 C77.0072592,166.61227 76.2354527,161.720182 74.8694716,156.91214 C74.6688277,156.205266 74.7420007,155.473748 74.4596514,154.802931 C74.4604271,154.803191 74.4666325,154.805525 74.4666325,154.805525" id="Fill-12" fill="#9A7E4C"></path>
                <path d="M56.8080616,168.205084 C57.3629349,168.270195 57.3523339,167.946459 57.486786,167.743346 C58.0181301,166.939715 57.8048168,165.99808 57.9984795,165.159948 C58.501899,162.979663 60.7213921,162.900545 62.3102534,162.503398 C63.4574914,162.216239 63.7522517,161.686796 64.1235462,160.874864 C64.3389281,160.403787 64.3210873,160.115071 63.755613,159.900026 C62.6735325,159.48939 61.6136884,159.01546 60.5605668,158.53297 C60.0087962,158.280311 59.7295497,158.392114 59.5159777,158.98096 C59.2553476,159.699248 59.0932295,160.976291 58.141464,160.581479 C57.3856884,160.26786 58.1117295,159.217795 58.3966644,158.529857 C58.5701592,158.110921 58.7444298,157.75035 58.1360342,157.510921 C56.9781952,157.055668 55.8371627,156.557354 54.6899247,156.074345 C54.36,155.935564 53.9775873,155.774994 53.8444281,156.257484 C53.6613664,156.920778 52.7817397,157.743865 53.3410086,158.190558 C54.5836558,159.182516 54.6723425,160.643217 55.266,161.882905 C55.7520959,162.89821 55.5333527,163.826355 54.416625,164.411569 C53.8860565,164.68939 53.2419795,166.573956 53.5721627,166.738936 C54.6847534,167.294838 55.8369041,167.771881 56.8080616,168.205084 M44.8482928,158.164877 C44.9967072,158.20716 45.1456387,158.249702 45.2943116,158.291984 C45.2943116,158.88965 45.3972192,159.509105 45.2751781,160.080311 C44.8958682,161.856187 45.6625034,162.92415 47.2330068,163.567211 C47.2725668,163.583554 47.3129024,163.604047 47.3444469,163.632062 C48.0679024,164.279014 48.4055839,163.894319 48.9183116,163.244773 C49.6549538,162.31144 49.1916113,161.034656 50.0702038,160.151907 C50.9550017,159.262931 51.1504743,157.839585 52.5213682,157.228171 C53.0017757,157.013645 53.9437158,155.970065 53.389101,155.363839 C52.5769589,154.475642 51.4144658,153.742309 50.2654178,153.395746 C49.5851421,153.190558 49.4201798,154.511699 48.8619452,155.008457 C48.8128185,155.052296 48.7202534,155.047367 48.6380308,155.067341 C48.3926558,154.824799 48.4482466,154.494319 48.4997003,154.231025 C48.8291079,152.549053 47.9812842,151.656446 46.6015993,150.882387 C45.6614692,150.35476 45.0952192,150.523113 44.870012,151.410013 C44.4322671,153.135564 43.607714,154.641401 42.6285411,156.086278 C42.4178134,156.397562 42.3074075,156.861115 41.891899,156.934008 C40.7917192,157.127263 40.5142825,158.136861 40.2908853,158.884981 C40.1036866,159.511699 41.1668921,159.620908 41.6325616,160.013904 C42.0560856,160.371362 42.586137,160.59808 43.0412055,160.922075 C43.5492791,161.283943 43.8391267,161.143087 44.1747397,160.648405 C44.6727295,159.914034 45.0903065,159.175512 44.8482928,158.164877 M63.7755223,168.349831 C63.7039007,168.973178 64.0335668,169.401193 64.326,169.902101 C65.1996798,171.39834 66.742,171.176809 68.0702312,171.466563 C70.2643853,171.945162 71.4548031,171.097951 71.8460068,168.888612 C72.0414795,167.783813 72.2369521,166.678755 72.4580223,165.579144 C72.5236969,165.252036 72.5971284,164.874086 72.8016507,164.635694 C74.1965908,163.009494 73.9659538,162.12882 71.9928699,161.71585 C71.4452363,161.601453 70.8823476,161.54594 70.3460908,161.393671 C69.6531455,161.197043 69.396911,161.500545 69.3312363,162.134267 C69.2557363,162.85904 69.3767432,163.573956 69.4284555,164.268898 C69.5298116,165.633878 68.9857979,167.05048 68.6812123,168.439585 C68.5845103,168.881608 68.2204555,168.89847 67.8553664,168.800156 C67.4882089,168.701064 67.054601,168.658521 67.1171729,168.100545 C67.1316524,167.971881 67.1438048,167.840104 67.1810377,167.716887 C67.6211096,166.25904 67.4054692,164.681608 68.4955651,163.31559 C69.5215377,162.029728 68.9826952,161.135305 67.3640993,160.833878 C66.8570599,160.739455 66.3425223,160.673567 65.844274,160.544903 C65.0776387,160.346459 64.7050514,160.474345 64.5726678,161.400156 C64.3606473,162.881608 65.001363,164.368249 64.4022757,165.844773 C64.0816592,166.634137 63.9774589,167.511699 63.7755223,168.349831 M75.5227534,168.020908 C75.669875,170.756835 74.6532106,174.088872 74.1208322,177.485759 C74.008875,178.200156 73.6070702,178.175253 72.9932449,178.011829 C60.2252123,174.610272 48.3192243,169.41546 37.9012586,161.109364 C36.9588014,160.357873 36.0530599,159.560208 35.1090514,158.810791 C34.6382106,158.436991 34.5970993,158.074345 34.9639983,157.613126 C37.9144452,153.903398 40.8594623,150.192114 44.6654897,147.288093 C45.5575274,146.607419 46.2357346,146.543346 47.2428322,147.293022 C54.3615514,152.591595 62.337661,155.799896 71.1559058,156.847886 C71.4933288,156.888093 71.8441969,156.807678 72.1826541,156.843735 C73.2613733,156.958392 74.0592945,157.171621 74.3654315,158.573178 C74.9939949,161.449442 75.4857791,164.318444 75.5227534,168.020908" id="Fill-14" fill="#572D7B"></path>
                <path d="M96.3722853,174.746148 C96.5933555,172.733696 96.9318127,170.72358 96.4620062,168.700493 C96.3844377,168.36716 96.3492733,168.022153 96.2502442,167.695824 C96.1729342,167.442646 96.0048692,167.233048 95.6886483,167.273256 C95.4181928,167.307497 95.3892339,167.542776 95.330799,167.744851 C94.2453572,171.479481 90.8020918,172.61463 88.0109188,174.518392 C88.3842818,172.566122 88.8315935,170.703865 89.0071568,168.771829 C89.4433503,163.973126 88.8708949,159.297639 87.4508743,154.72799 C87.141376,153.731881 87.3929565,153.455357 88.2785301,153.28882 C89.8880764,152.986355 91.4981397,152.787393 93.1420747,152.765344 C96.4431312,152.721245 98.596174,154.483372 100.276308,157.102568 C100.683542,157.737847 100.490397,158.24965 100.159438,158.772088 C99.6989394,159.499196 99.2037938,160.203735 98.7239034,160.918132 C98.575489,161.138625 98.4350901,161.383761 98.5788503,161.637458 C98.7663075,161.9669 99.1202784,161.91061 99.3863384,161.812555 C99.9086329,161.620337 100.418258,161.381167 100.907457,161.113463 C101.623155,160.722283 101.946874,160.90594 102.140796,161.709831 C102.641371,163.787393 102.695927,165.892711 102.744537,168.027601 C103.480662,166.196213 103.909099,164.285707 103.754737,162.319429 C103.578915,160.08 103.497468,160.086485 105.540364,158.978314 C107.174474,158.091933 107.663672,158.097899 108.923902,159.526433 C112.309766,163.365084 113.243691,169.882075 109.740181,174.304384 C109.574443,174.513722 109.445162,175.315279 108.903734,174.516057 C108.631986,174.115019 108.4316,174.400363 108.317058,174.753411 C108.120034,175.360674 107.876986,175.949001 107.26135,176.374942 C106.970727,175.642905 106.728713,174.974942 106.436539,174.329287 C106.333631,174.10179 106.101443,173.91061 105.8072,174.008664 C105.575787,174.085707 105.517869,174.312685 105.508044,174.535253 C105.482188,175.113982 105.357302,175.645499 104.784071,176.084929 C104.433979,175.390506 104.100951,174.714241 103.751376,174.046278 C103.61227,173.77987 103.449376,173.467808 103.087907,173.541997 C102.802972,173.600363 102.744796,173.907756 102.70265,174.157302 C102.620427,174.64524 102.376604,175.040052 102.003241,175.487004 C101.605832,174.811777 101.231434,174.165344 100.84566,173.525914 C100.711984,173.304384 100.546504,173.048093 100.254847,173.109572 C99.9567253,173.172866 99.9582767,173.490895 99.9086329,173.735253 C99.8742442,173.903346 99.8822596,174.080519 99.8494223,174.249131 C99.7659068,174.677147 99.6598966,175.23642 99.210775,175.268067 C98.7179565,175.302827 98.8570627,174.694008 98.7246791,174.36249 C98.5969497,174.043165 98.4826654,173.713204 98.3109805,173.418003 C98.2127271,173.248872 98.0270798,173.052503 97.8538435,173.021634 C97.5091808,172.960415 97.4869445,173.283372 97.4145473,173.530843 C97.2547562,174.078184 97.0383401,174.591025 96.4736414,174.850169 C96.440287,174.815409 96.4064154,174.780649 96.3722853,174.746148" id="Fill-16" fill="#BC2A36"></path>
                <path d="M110.630305,60.2665629 C112.543144,59.6816083 114.105632,59.9104021 115.639161,59.8683787 C117.398673,59.8203891 119.165166,59.8938003 120.923386,59.9993774 C121.626156,60.0416602 122.233517,60.0263554 122.577146,59.3438651 C122.91069,58.6808301 122.510437,58.2011933 122.069072,57.7524254 C119.941627,55.5895201 117.625949,53.6520363 114.945958,52.2284306 C113.919985,51.6831647 114.001173,51.2777173 114.671882,50.5542412 C115.491523,49.6696757 116.178521,48.6528145 117.045737,47.8219455 C121.356735,43.6901686 124.27693,38.5096239 127.70856,33.7150713 C128.034865,33.259559 128.358584,32.8022309 128.692904,32.3532036 C128.73686,32.2943191 128.837699,32.2784955 129.055149,32.1736965 C128.468214,34.7197406 127.896276,37.1692866 127.613927,39.6733074 C127.327958,42.2053437 127.447154,44.7433463 127.420264,47.2797925 C127.390788,50.0328405 127.250648,52.7921141 127.756136,55.5218158 C128.250505,58.1908171 129.061096,60.7879637 129.4055,63.4966537 C129.952358,67.7941894 128.670927,71.4896498 126.076778,74.8390661 C125.480017,75.6097536 125.154747,75.0655253 124.781642,74.6746044 C122.133196,71.8984695 119.519913,69.0880934 116.839146,66.3438651 C114.886488,64.3451621 112.847988,62.4307652 110.630305,60.2665629" id="Fill-18" fill="#9A7E4C"></path>
                <path d="M73.470136,155.424643 C73.5683894,156.218936 72.8795812,156.263294 72.490963,156.197665 C66.4008021,155.169131 60.370886,153.923735 54.8526634,150.944488 C52.128975,149.474189 49.4926805,147.877821 46.9735144,145.880934 C48.8087849,144.715175 50.7125743,144.047471 52.720564,143.83035 C58.0606377,143.252918 63.1093123,144.023606 67.4221205,147.548119 C69.5513757,149.288197 71.0430178,151.564462 72.4361479,153.905058 C72.6776445,154.310765 72.9349134,154.706874 73.1849425,155.107393 C73.2800932,155.21323 73.3749853,155.319066 73.470136,155.424643" id="Fill-20" fill="#9A7E4C"></path>
                <path d="M101.125372,149.037847 C104.895718,150.483502 108.480158,150.836031 112.155612,150.407497 C111.689942,153.991154 107.646555,157.437328 100.303405,160.387004 C102.660453,156.668716 102.676225,152.991154 101.125372,149.037847" id="Fill-22" fill="#FEFEFE"></path>
                <path d="M120.107934,160.16965 C122.325359,157.305318 122.426198,154.081971 121.611728,150.544228 C124.862883,151.4869 128.047069,152.139559 131.535324,152.345006 C128.046811,155.645655 124.627591,158.651102 120.254538,160.315435 C120.207222,160.26537 120.158353,160.216861 120.107934,160.16965" id="Fill-24" fill="#FEFEFE"></path>
                <path d="M103.347141,174.831777 C103.754634,175.247601 103.853146,175.794682 103.983202,176.341764 C104.05379,176.640597 103.980617,177.106744 104.426377,177.154475 C104.779314,177.192348 105.083899,176.941505 105.29049,176.661608 C105.589387,176.255901 105.842778,175.816472 106.183303,175.285992 C106.280781,175.68677 106.33844,175.968742 106.418595,176.243969 C106.555632,176.715305 106.323702,177.457198 106.924858,177.584825 C107.476629,177.702075 107.674428,176.977302 108.02116,176.618288 C108.192845,176.440078 108.264725,176.157847 108.609387,176.11297 C109.065749,176.958885 108.750562,177.878988 108.825286,178.759403 C108.858641,179.158625 108.56931,179.251751 108.247142,179.29118 C107.736742,179.353956 107.227892,179.468612 106.716458,179.479248 C103.14779,179.553437 99.5830003,179.611284 96.0396716,178.990791 C95.2094301,178.845525 95.0607572,178.625811 95.2960483,177.83489 C95.5763291,176.892996 95.7250021,175.981712 96.8055312,175.525422 C97.2605997,175.333204 97.5491545,174.744617 97.9098479,174.340208 C98.3188925,174.722827 98.2177949,175.228664 98.2852795,175.689883 C98.3395774,176.060052 98.2974318,176.553178 98.7209558,176.661089 C99.1439627,176.768742 99.3862349,176.328794 99.6135106,176.028664 C99.9685158,175.559403 100.281892,175.058236 100.650601,174.514527 C101.274511,175.247082 101.29623,176.108042 101.415685,177.033593 C102.466221,176.56978 102.603,175.433074 103.347141,174.831777" id="Fill-26" fill="#FEFEFE"></path>
                <path d="M95.6200777,169.910973 C95.8902747,172.853126 95.2857575,175.49489 94.1545503,178.055201 C93.8595315,178.723165 93.4722062,178.824851 92.8583808,178.692036 C91.2423705,178.342101 89.7822729,177.693333 88.4773123,176.647419 C87.7820401,176.089961 87.8774493,175.767004 88.572463,175.363891 C90.2807798,174.373748 91.93635,173.298521 93.4375589,172.009287 C94.1716154,171.378418 94.8379288,170.667912 95.6200777,169.910973" id="Fill-28" fill="#FEFEFE"></path>
                <path d="M73.470136,155.424643 C73.3749853,155.319066 73.2800932,155.21323 73.1849425,155.107393 C73.5689065,154.921141 73.707237,154.547601 73.8742678,154.196887 C76.4309253,151.182361 79.3294014,148.537743 82.4952301,146.182879 C85.9441839,144.088197 89.6878979,142.811414 93.6493209,142.139818 C97.9334288,141.522438 102.205126,141.577951 106.458465,142.40441 C107.299049,142.567575 108.129032,142.786252 108.986163,142.984955 C108.623401,143.298573 108.230388,142.876265 107.884949,143.075486 C97.3069339,141.258885 87.5263226,142.822309 79.0710983,149.947601 C77.3578688,151.390921 75.8240812,153.015824 74.4676668,154.805707 C74.4666325,154.805447 74.4604271,154.803113 74.4596514,154.803113 C74.0689647,154.913359 73.9376154,155.438132 73.470136,155.424643" id="Fill-30" fill="#FEFEFE"></path>
                <path d="M120.760156,99.932607 C120.715166,97.1198962 120.715166,97.1198962 117.86349,97.1655512 C119.374524,95.578262 120.831002,94.0851362 122.476746,92.7894163 C122.955603,92.4122438 123.59968,92.0016083 124.109563,92.2615305 C124.672193,92.5484306 124.473101,93.3118547 124.41389,93.9012192 C124.220228,95.8293645 123.625536,97.5899351 122.246885,99.0057588 C121.836289,99.4272892 121.397252,99.8410376 120.760156,99.932607" id="Fill-32" fill="#FEFEFE"></path>
                <path d="M112.57986,170.619767 C113.688314,172.288249 114.01074,174.095253 114.228449,175.928716 C114.315843,176.663606 113.830523,177.131569 113.296334,177.516265 C112.203911,178.303813 110.944458,178.674241 109.691468,179.01821 C109.262514,177.175149 109.686555,175.683061 110.847755,174.303294 C111.704112,173.285396 112.150906,171.999792 112.57986,170.619767" id="Fill-34" fill="#FEFEFE"></path>
                <path d="M145.024537,140.891984 C145.187431,139.537121 145.341792,138.181479 145.520717,136.829209 C145.553554,136.582776 145.424015,136.124669 145.933123,136.235435 C146.273131,136.309364 146.571253,136.49821 146.441713,136.962283 C146.067316,138.302101 145.70352,139.644773 145.335587,140.986667 C145.231903,140.955019 145.12822,140.923372 145.024537,140.891984" id="Fill-36" fill="#9A7E4C"></path>
                <path d="M145.545952,134.817043 C145.726428,134.994994 146.03722,135.045837 146.073677,135.363606 C144.616165,135.130661 143.18244,134.673852 141.678904,134.875409 C141.414137,134.910687 141.064303,134.712763 140.909425,135.114838 C140.731276,135.062179 140.455132,135.061401 140.395404,134.946744 C140.270261,134.706796 140.558298,134.660623 140.707747,134.56153 C142.337461,134.323658 143.963555,134.152451 145.545952,134.817043" id="Fill-38" fill="#FEFEFE"></path>
                <path d="M5.3147958,126.422387 C5.33528867,126.509027 5.37160514,126.585551 5.36563886,126.658444 C5.35967259,126.72978 5.31090475,126.797484 5.28081396,126.866744 C5.26317453,126.790999 5.22815508,126.714215 5.23256493,126.640026 C5.23697479,126.569468 5.28288919,126.502023 5.3147958,126.422387" id="Fill-40" fill="#9A7E4C"></path>
                <path d="M96.4742354,174.850272 C96.4265052,174.89904 96.3445338,174.995798 96.3362328,174.989572 C96.1995273,174.891777 96.2659345,174.814215 96.3733275,174.74703 C96.4067906,174.780493 96.4407724,174.815253 96.4742354,174.850272" id="Fill-42" fill="#BC2A36"></path>
                <path d="M120.255331,160.315564 C120.232504,160.436446 120.169209,160.5262 120.050403,160.439559 C120.020571,160.41751 120.086979,160.263684 120.108768,160.170039 C120.158833,160.216732 120.207601,160.265499 120.255331,160.315564" id="Fill-44" fill="#FEFEFE"></path>
                <path d="M91.562625,140.094267 C91.0899743,137.953152 90.8311541,136.138885 91.053,134.294786 C91.143238,133.544591 90.5948288,133.593878 90.1245051,133.577276 C88.664149,133.525655 87.2037928,133.470402 85.742661,133.443943 C84.5473305,133.422153 83.3512243,133.439533 82.1553767,133.439533 C82.1483955,133.55393 82.1411558,133.668586 82.1339161,133.782724 C85.5707175,135.230713 88.5327997,137.408405 91.562625,140.094267 M93.6492175,142.139922 C89.6877945,142.811518 85.944339,144.088042 82.4953853,146.182983 C82.2057962,144.941479 81.4208031,143.946148 80.8266284,142.860026 C79.3753219,140.208145 77.7673271,137.651466 76.0977945,135.131881 C75.6481558,134.453281 75.2047226,134.265473 74.3876678,134.50153 C71.3614623,135.376498 68.4073955,136.388949 65.7486062,138.142257 C65.4308339,138.351855 65.0918596,138.557562 64.5131986,138.196991 C63.8892894,137.807886 62.9447637,137.917354 62.1370171,137.846537 C54.4709229,137.175201 46.828875,137.114501 39.304214,139.035123 C35.9708373,139.885966 32.9125702,141.308275 30.414089,143.795953 C27.6800582,146.518132 26.9602226,149.856913 27.2795462,153.543554 C27.3224675,154.037458 27.4876884,154.521505 27.3025582,155.146926 C26.5273904,154.613593 26.3479486,153.824488 25.990875,153.177276 C23.2987312,148.293489 21.6015325,143.146667 21.9808425,137.472996 C22.0995223,135.697899 22.3829058,133.948482 23.1823784,132.339403 C23.5123031,131.675331 23.4437842,131.134475 23.0699041,130.530065 C22.1289983,129.009442 20.7265599,128.284929 19.0102277,128.105681 C16.6087072,127.855097 14.3005274,128.286485 12.0401815,129.094008 C11.5796832,129.25847 11.1421969,129.655875 10.5839623,129.408405 L10.60775,129.426304 C11.8426404,126.240571 13.862524,123.55393 16.0546096,121.00166 C23.0081079,112.90594 31.797911,108.357043 42.4149692,107.32358 C47.7819332,106.801141 53.0620205,107.278444 58.3214229,108.355486 C59.2899949,108.55393 59.238024,108.79725 58.7183151,109.451466 C56.7775514,111.894527 55.1395634,114.514501 54.0318853,117.45821 C51.3136267,124.680778 53.3994435,131.062361 59.8857209,135.198029 C60.6833836,135.706719 61.5834366,136.065214 62.3423151,136.621634 C64.4839812,138.192062 66.349762,137.718651 68.1015171,135.98428 C68.2310565,135.849131 68.526851,135.922542 68.5359007,135.635901 L68.5077175,135.664695 C68.7262021,135.640311 68.9573562,135.641608 69.0563853,135.383243 L69.030012,135.407367 C69.2112637,135.311907 69.3922568,135.216706 69.5735086,135.121245 L69.5494623,135.148482 C69.7304555,135.054578 69.9117072,134.960934 70.0924418,134.867289 L70.0694298,134.889857 C70.2496473,134.796472 70.4296062,134.703346 70.6095651,134.609961 L70.5868116,134.630713 C70.7667705,134.537588 70.946988,134.444721 71.1269469,134.351595 L71.1060034,134.37131 C72.5940257,133.838236 74.0649829,133.250947 75.5723973,132.781167 C83.5138596,130.305681 91.4149863,130.912944 99.2706062,133.205292 C103.335454,134.391803 107.313942,135.818003 111.031283,137.892711 C110.46012,138.3062 109.967043,137.870143 109.489997,137.696083 C105.046873,136.074293 100.49955,134.874293 95.8234623,134.160156 C93.7141164,133.838236 93.6688682,133.91476 93.2755959,136.011518 C92.8825822,138.105162 93.3738493,140.107497 93.6492175,142.139922" id="Fill-46" fill="#010101"></path>
                <path d="M145.545952,134.817043 C143.963555,134.152451 142.337461,134.323658 140.707747,134.56153 C140.068841,134.028457 139.31048,133.737925 138.528848,133.503165 C136.740894,132.96594 136.264107,133.14441 135.247442,134.655694 C132.806362,138.285525 129.142543,140.188508 125.119841,141.978651 C125.701346,138.247134 123.732916,135.886822 121.390089,133.736628 C119.6086,132.101349 117.707137,130.615746 115.43619,129.703165 C115.106266,129.57061 114.708598,129.239092 114.358247,129.576576 C114.025995,129.89668 114.093221,130.337665 114.162516,130.789027 C114.351524,132.020415 115.181766,132.957121 115.583829,134.085525 L115.554353,134.112503 C114.227673,133.977354 113.341583,133.041686 112.390076,132.2793 C110.786993,130.995512 109.04041,130.069961 107.015613,129.699014 C104.969615,128.475149 102.874232,127.34415 100.720413,126.322879 C103.099697,126.299274 105.163019,127.327289 107.271589,128.250506 C108.574223,128.820934 109.693019,129.835201 111.197848,129.927289 C111.128812,130.077743 111.174836,130.123398 111.328163,130.072555 C111.276709,130.030532 111.225255,129.988508 111.173543,129.946226 C110.850341,129.105759 110.349507,128.333515 110.201093,127.426122 C109.918743,125.702387 110.756483,124.929883 112.417742,125.439092 C114.567682,126.097977 116.55085,127.159974 118.501697,128.242205 C124.119208,131.358418 129.607178,131.039351 135.04654,127.830272 C135.231153,127.721323 135.42223,127.621193 135.615375,127.52677 C135.689324,127.490713 135.777235,127.482931 135.929528,127.443761 C136.295134,128.727289 136.424156,130.034423 136.427,131.361012 C136.427776,131.729364 136.08544,132.245318 136.872243,132.28345 C137.520199,132.315097 137.772555,132.112244 137.82918,131.430532 C138.104548,128.121842 137.192601,125.116135 135.635543,122.254397 C134.269303,119.743891 132.450064,117.564903 130.518091,115.357639 C138.703636,115.958677 145.689971,125.083191 145.545952,134.817043" id="Fill-48" fill="#010101"></path>
                <path d="M80.6843678,128.396291 C80.7779671,128.163346 80.8720836,127.930402 80.9651658,127.697717 C81.4789277,127.632607 81.9456315,127.438833 82.4200921,127.230272 C85.0762959,126.062957 87.8320459,125.354786 90.7563781,125.253878 C96.6608918,125.049987 101.837554,127.175798 106.7872,130.106537 C106.939234,130.196291 107.085063,130.631051 107.356294,130.219118 C108.29177,130.910947 109.223368,131.608482 110.166084,132.289935 C110.36259,132.432088 110.699755,132.502646 110.503248,132.821193 C110.294072,133.160752 110.054385,132.858288 109.861757,132.743891 C107.568832,131.381505 105.156452,130.262698 102.714854,129.204851 C99.3450202,127.744669 97.2328301,128.37917 95.1379637,131.475149 C94.053039,131.362568 92.978974,131.197588 91.9498986,130.813152 C92.6904192,129.436239 93.4774808,128.099014 95.1824363,127.217043 C92.4915853,126.495383 90.0205116,126.449728 87.5153079,126.667626 C85.1365408,126.87463 82.9281658,127.72677 80.6647171,128.375279 L80.6843678,128.396291 Z" id="Fill-50" fill="#050404"></path>
                <path d="M91.9499762,130.813256 C92.978793,131.197432 94.0531166,131.362412 95.1380413,131.475253 C101.026524,132.905084 106.674545,134.960856 111.956959,137.970454 C112.234137,138.128171 112.50873,138.291595 112.948543,138.548145 C112.26232,138.619222 111.955408,137.995357 111.448368,138.227523 C111.371576,137.989131 111.317795,137.713645 110.962531,137.924021 C110.962531,137.924021 111.03105,137.891595 111.031308,137.892114 C107.313968,135.817925 103.33548,134.391725 99.2703735,133.205473 C91.4150122,130.913126 83.5138854,130.305603 75.5724231,132.781089 C74.0650087,133.250869 72.5940515,133.838158 71.1060293,134.371492 C71.9044676,133.327912 73.336382,133.381349 74.2516902,132.541401 C75.0759848,132.487185 75.8276235,132.210661 76.530394,131.786018 C78.463918,131.437639 80.389168,131.031673 82.3327759,130.75463 C85.5353204,130.298599 88.7469146,130.337769 91.9499762,130.813256" id="Fill-52" fill="#FEFEFE"></path>
                <path d="M107.356372,130.219222 C107.085141,130.631154 106.939312,130.196394 106.787278,130.106381 C101.837373,127.175901 96.6609693,125.049831 90.7564557,125.253722 C87.8318649,125.35489 85.0763735,126.063061 82.4201697,127.230376 C81.9457091,127.438677 81.4790053,127.632451 80.9652433,127.697562 C82.8385224,126.006511 85.1601474,125.284851 87.5355533,124.770713 C92.0911509,123.784462 96.4825618,124.460467 100.720387,126.322724 C102.874206,127.344254 104.969848,128.474994 107.015846,129.698859 C107.129096,129.87214 107.242863,130.045681 107.356372,130.219222" id="Fill-54" fill="#FEFEFE"></path>
                <path d="M110.962611,137.924047 C111.319031,137.713411 111.372987,137.989157 111.45003,138.227549 C111.251327,138.183969 110.893869,138.39668 110.962611,137.924047" id="Fill-56" fill="#010101"></path>
                <path d="M120.906864,147.489805 C120.987019,147.374112 121.073919,147.286952 121.191948,147.443113 C121.195061,147.447523 121.080923,147.540649 121.02126,147.592529 C120.983388,147.558029 120.945255,147.523787 120.906864,147.489805" id="Fill-58" fill="#050404"></path>
                <path d="M115.583977,134.085422 C115.638193,134.127185 115.692667,134.169209 115.746883,134.211232 C115.620034,134.298911 115.544807,134.287497 115.555184,134.11214 C115.554405,134.112399 115.583977,134.085422 115.583977,134.085422" id="Fill-60" fill="#010101"></path>
                <path d="M21.6853324,33.6545266 C25.265894,43.4355901 33.2332125,48.5224903 41.8606389,52.886952 C44.8589197,54.4036835 48.0110447,55.5686641 51.2185019,56.5772244 C51.6459043,56.7115953 52.1671646,56.7009598 52.5325122,57.1977173 C48.4293974,57.8931777 44.4516851,58.8436316 40.7387399,60.6988846 C35.9737074,63.0799481 32.5754317,66.6747601 30.8278135,71.7676265 C30.762656,71.9575097 30.7846337,72.2088716 30.2900053,72.3642542 C22.3239796,60.6031647 21.1976851,47.3160052 21.6853324,33.6545266" id="Fill-62" fill="#010101"></path>
                <path d="M66.3834267,93.5197147 C66.8149661,92.4058366 67.6397777,91.9409857 68.4782932,91.518677 C69.7713599,90.8673152 71.6043034,91.3687419 72.6628548,92.6094682 C73.6073805,93.7163424 73.0907743,94.6787289 72.3921408,95.6348898 C72.2993171,95.7619974 72.2566545,95.9259403 72.1478,96.1682231 C72.9974336,96.3399481 73.7640688,96.3098573 74.5045894,96.1679637 C75.803086,95.9189364 76.2834935,94.7767834 75.4351527,93.7412451 C73.0108788,90.7819715 70.113437,88.3744488 66.7123171,86.6014267 C66.0067024,86.2335927 65.3639182,86.4854734 64.7728462,86.8623865 C64.1150654,87.2821012 64.3319986,87.9357977 64.4850671,88.5038911 C64.933413,90.1692607 65.5229336,91.7856031 66.3834267,93.5197147 M94.7892675,87.1472114 C95.3896476,89.4006485 95.372324,91.6079118 94.665675,93.8071336 C93.4504353,97.5884565 89.7377486,100.592866 85.8505329,100.798573 C83.9969045,100.896368 82.268937,100.195979 80.7928086,99.1059663 C79.7983805,98.3718547 78.9588308,98.2367056 77.9183788,98.9080415 C77.4702914,99.1972763 76.9014558,99.2979248 76.1860158,99.5570687 C79.0012349,101.261608 81.8120586,102.71323 84.1114473,104.994942 C74.6320603,100.118936 64.734062,98.7106355 54.2038805,101.137613 C54.5935329,100.323087 55.2218377,99.9760052 55.8033428,99.6097276 C57.9747435,98.2413748 60.3708342,97.3734112 62.8282041,96.7440986 C63.9612212,96.4538262 63.9400192,96.1259403 63.492449,95.223476 C62.3211647,92.8621271 61.3494901,90.4203632 60.929586,87.7879377 C60.6456853,86.0071336 60.4995979,84.2525292 61.5847812,82.6642023 C62.0701014,81.9542153 61.4694627,81.8592737 61.0689507,81.6955901 C59.0203668,80.856939 56.9306716,80.9998703 54.8637298,81.5770428 C53.8757658,81.8527886 52.9364113,82.3057069 51.9789575,82.6883268 C51.5955106,82.8413748 51.2485209,83.161738 50.6990774,82.8561608 C54.2897229,79.7503243 58.3356955,79.0322957 62.7648565,80.2976654 C68.6908308,81.9902724 73.2880568,85.6810636 77.277663,90.2361868 C79.2791887,92.5215305 81.4904079,94.5632944 84.0796442,96.1588846 C87.2609866,98.1191958 90.0966322,97.6473411 92.4978942,94.7368353 C94.1741493,92.7054475 94.7052349,90.3243839 94.401425,87.7313878 C94.3781545,87.5303502 94.3316134,87.2953307 94.7892675,87.1472114" id="Fill-64" fill="#050404"></path>
                <path d="M99.9694207,115.84083 C101.487436,110.828119 102.335518,105.794916 101.615424,100.392581 C105.558748,107.080778 111.438957,111.103087 118.393748,114.388431 C111.964871,113.705162 105.807743,111.793619 99.9694207,115.84083" id="Fill-66" fill="#010101"></path>
                <path d="M76.5304716,131.786018 C75.827701,132.210661 75.0760623,132.487185 74.2517678,132.541401 C74.0627592,131.729468 74.4247455,131.468249 75.1854339,131.591466 C75.632487,131.66358 76.0821257,131.721686 76.5304716,131.786018" id="Fill-68" fill="#050404"></path>
                <path d="M80.6646654,128.375279 C80.6075233,128.684488 80.3593041,128.742075 80.1097921,128.781505 C80.0860045,128.785396 79.9957664,128.637276 80.0146414,128.603294 C80.1674514,128.327549 80.4477322,128.42716 80.6840575,128.396291 C80.6843161,128.396291 80.6646654,128.375279 80.6646654,128.375279" id="Fill-70" fill="#050404"></path>
                <path d="M68.5372889,135.636031 C68.5282098,135.922412 68.2314524,135.849001 68.1014913,135.98441 C68.2467572,135.868457 68.392023,135.751984 68.5372889,135.636031" id="Fill-72" fill="#FEFEFE"></path>
                <path d="M84.3748351,105.06799 C84.4202307,105.13284 84.4970141,105.19847 84.4972735,105.264358 C84.4977923,105.32454 84.4150426,105.38524 84.3691282,105.445681 C84.3263267,105.373826 84.2581036,105.304306 84.2503215,105.22882 C84.2451334,105.180311 84.3291801,105.122464 84.3748351,105.06799" id="Fill-74" fill="#050404"></path>
                <path d="M69.5734051,135.121271 C69.3921534,135.216732 69.2111603,135.311933 69.0299086,135.407393 C69.0880849,135.076135 69.4097356,135.250195 69.5734051,135.121271" id="Fill-76" fill="#FEFEFE"></path>
                <path d="M70.0925452,134.867185 C69.9115521,134.96083 69.7305589,135.054734 69.5495658,135.148379 C69.5896428,134.780804 69.9032781,134.945006 70.0925452,134.867185" id="Fill-78" fill="#FEFEFE"></path>
                <path d="M70.6096685,134.610065 C70.4297096,134.703191 70.2494921,134.796576 70.0695332,134.889702 C70.0863397,134.478807 70.4121274,134.669468 70.6096685,134.610065" id="Fill-80" fill="#FEFEFE"></path>
                <path d="M69.0564111,135.383217 C68.957382,135.641582 68.7262279,135.640285 68.5077433,135.664669 C68.6905464,135.571025 68.8733495,135.477121 69.0564111,135.383217" id="Fill-82" fill="#FEFEFE"></path>
                <path d="M71.1270503,134.351673 C70.9468329,134.44454 70.766874,134.537665 70.5866565,134.630532 C70.6047558,134.221193 70.9225281,134.397328 71.1270503,134.351673" id="Fill-84" fill="#FEFEFE"></path>
                <path d="M10.5842303,129.408327 C10.5658126,129.460208 10.5471356,129.512348 10.5284586,129.564488 C10.5222329,129.540104 10.5027776,129.503528 10.5121161,129.493411 C10.5377971,129.465396 10.5754106,129.447756 10.6080954,129.426226 L10.5842303,129.408327 Z" id="Fill-86" fill="#010101"></path>
                <path d="M64.3059615,168.216732 C64.2459752,168.774189 64.484369,169.190532 64.7809392,169.647601 C65.5925642,170.897925 66.9249324,170.73476 68.1034563,170.983787 C70.0478399,171.394682 70.9714221,170.657458 71.4065813,168.69585 C71.78253,167.002205 71.6017954,165.153956 72.8842611,163.672244 C73.3088193,163.181712 73.4145711,162.266018 72.185369,162.240856 C71.6780711,162.23048 71.1612063,162.097406 70.6717491,161.945655 C69.9477765,161.72153 69.765232,162.060311 69.7507526,162.693256 C69.731619,163.521012 70.2228861,164.271984 69.8896002,165.180674 C69.5384735,166.137095 69.3962646,167.194163 69.3111978,168.219585 C69.2186327,169.339689 68.5644717,169.470947 67.709667,169.325681 C66.8251276,169.175486 66.3100728,168.729831 66.5637217,167.70856 C66.8228005,166.666278 66.975869,165.596239 67.2600283,164.561997 C67.4118039,164.010506 67.2796789,163.381453 68.077083,162.990272 C68.7358981,162.666537 68.3165111,161.50856 67.5447046,161.355253 C67.038958,161.254864 66.5345043,161.145136 66.0251378,161.066796 C65.2776361,160.951362 64.5130693,161.820623 64.9789974,162.331388 C65.7691618,163.196757 65.1116396,163.93476 65.0369152,164.681323 C64.9174598,165.872503 64.5616789,167.039559 64.3059615,168.216732 M63.7756515,168.349805 C63.9773296,167.511673 64.0817885,166.634112 64.4021464,165.844747 C65.0014923,164.368223 64.3607765,162.881582 64.5725385,161.40013 C64.7049221,160.474319 65.0775094,160.346433 65.8444033,160.544877 C66.342393,160.673541 66.8571892,160.739429 67.3642286,160.833852 C68.9825659,161.135279 69.521667,162.029702 68.4956943,163.315564 C67.4055985,164.681582 67.6212389,166.259014 67.1809084,167.716861 C67.1439341,167.840078 67.1317817,167.971855 67.1173022,168.100519 C67.0547303,168.658495 67.4883382,168.701038 67.8552372,168.80013 C68.2205848,168.898444 68.584381,168.881582 68.6813416,168.439559 C68.9859272,167.050454 69.5296824,165.633852 69.4285848,164.268872 C69.3768724,163.574189 69.255607,162.859014 69.331107,162.134241 C69.3970402,161.500519 69.6532748,161.197017 70.34622,161.393645 C70.8824769,161.545914 71.445107,161.601427 71.9927406,161.715824 C73.966083,162.128794 74.19672,163.009468 72.8015214,164.635668 C72.5972577,164.87406 72.5238262,165.25201 72.457893,165.579118 C72.2370813,166.678729 72.0413502,167.783787 71.8461361,168.888586 C71.4549324,171.097925 70.2645146,171.945136 68.0701019,171.466537 C66.7421293,171.176783 65.1998091,171.398314 64.3261293,169.902075 C64.0336961,169.401167 63.7037714,168.973152 63.7756515,168.349805" id="Fill-88" fill="#FEFEFE"></path>
                <path d="M48.7256057,156.386278 C48.833943,156.208586 49.0201074,156.017925 49.06458,155.79821 C49.1049156,155.59847 48.9231467,155.399507 48.6901827,155.412996 C48.4202443,155.429079 48.4233471,155.681738 48.4137803,155.877588 C48.4047307,156.069287 48.3708591,156.294449 48.7256057,156.386278 M48.0954909,157.836861 C48.0954909,156.634527 47.9341485,155.404176 48.1342752,154.236342 C48.4199858,152.567082 47.5225183,151.845162 46.277544,151.195097 C45.7823985,150.936472 45.6249344,151.116498 45.2549327,151.449053 C44.6054259,152.033748 45.2580354,152.761894 44.8221005,153.373048 C43.9983231,154.526874 43.3131348,155.779792 42.5470166,156.97668 C42.3624036,157.265396 42.2659601,157.59821 41.7048813,157.570454 C41.1745714,157.544254 41.0189173,158.263839 40.8273231,158.69393 C40.6075457,159.187575 41.2193026,159.22856 41.4799327,159.435824 C41.8481245,159.728431 42.2638916,159.962931 42.6675063,160.208327 C43.5096416,160.720389 44.5956005,160.241012 44.3809943,159.355149 C44.0440885,157.962412 45.2233882,157.535694 45.6117478,156.623632 C45.7174995,157.912088 45.8555714,159.175901 45.6813009,160.394838 C45.4801399,161.802361 46.0800029,162.524799 47.2293094,163.090817 C48.0792015,163.508975 49.0917289,163.143476 48.886431,162.303787 C48.641056,161.300156 49.2034276,160.772529 49.6274687,160.195097 C50.4983043,159.008846 50.7940988,157.399507 52.4046793,156.712088 C52.936282,156.48537 53.5268368,155.506381 52.2805697,154.989131 C51.8500646,154.810661 51.4790286,154.491336 51.0733454,154.249313 C50.2676673,153.768119 49.2794447,154.190169 49.4619892,155.062283 C49.7461485,156.417665 48.5960663,156.929209 48.0954909,157.836861 M44.8482152,158.164747 C45.0902289,159.175642 44.6729104,159.914163 44.1746622,160.648534 C43.8393077,161.143217 43.5492015,161.284073 43.0411279,160.921946 C42.5860594,160.597951 42.0562666,160.371232 41.6324841,160.013774 C41.1668146,159.621038 40.1036091,159.511829 40.2908077,158.88511 C40.514205,158.136732 40.7916416,157.127134 41.8918214,156.933878 C42.30733,156.860986 42.4177358,156.397691 42.6284635,156.086407 C43.607895,154.641271 44.4321896,153.135694 44.8699344,151.409883 C45.0951416,150.522983 45.6613916,150.35463 46.6017803,150.882257 C47.9812067,151.656576 48.8290303,152.548923 48.4996228,154.230895 C48.448169,154.494189 48.3925783,154.824669 48.6379533,155.067471 C48.7201759,155.047497 48.8127409,155.052166 48.8618676,155.008327 C49.4203608,154.511569 49.5853231,153.190687 50.2655988,153.395875 C51.4143882,153.742438 52.5768813,154.475772 53.3890235,155.363969 C53.9436382,155.970195 53.0016981,157.013774 52.5215491,157.228042 C51.1503967,157.839715 50.9551827,159.263061 50.0703848,160.152036 C49.1917923,161.034786 49.6548762,162.311569 48.9184926,163.244643 C48.4057649,163.894189 48.0680834,164.279144 47.3446279,163.632192 C47.3130834,163.603917 47.2724892,163.583424 47.2331878,163.567341 C45.6624259,162.924021 44.8957906,161.856316 45.2751005,160.080182 C45.3971416,159.508975 45.2942341,158.88952 45.2942341,158.292114 C45.1455611,158.249831 44.9968882,158.207289 44.8482152,158.164747" id="Fill-90" fill="#FEFEFE"></path>
                <path d="M56.7214435,167.624462 C57.2807123,167.270895 57.4552414,166.824721 57.3365616,166.10773 C57.1527243,164.998262 57.5922791,163.889572 58.5026747,163.411751 C59.8089281,162.725888 61.1808562,162.002153 62.6851678,161.85144 C63.4561986,161.774137 63.4233613,161.218236 63.5831524,160.806304 C63.8049983,160.233541 63.1759178,160.252996 62.8883973,160.096316 C62.4020428,159.830947 61.8153664,159.733152 61.3613322,159.428872 C60.2226267,158.666226 59.7791935,159.223165 59.5844966,160.291647 C59.4019521,161.29476 58.4129538,161.389702 57.9170325,161.249624 C57.4467089,161.11655 56.9701798,160.175175 57.2763168,159.537821 C57.5077295,159.057147 58.1068168,158.482568 57.8839366,158.111102 C57.6251164,157.680233 56.8853716,157.531855 56.3449777,157.28153 C55.8798253,157.066226 55.4056233,156.86856 54.9267671,156.685681 C54.6687226,156.587108 54.3431935,156.361167 54.1774555,156.788923 C54.0321438,157.16428 53.5062295,157.616161 53.8914863,157.936005 C54.9285771,158.798003 55.051911,160.089572 55.580411,161.179585 C56.4646918,163.002931 56.2288836,163.625759 54.6133904,165.069079 C54.2539897,165.39022 53.6918767,166.071933 54.2035702,166.474786 C54.8859144,167.012529 55.8164777,167.232763 56.7214435,167.624462 M56.8080616,168.205006 C55.8369041,167.771803 54.6847534,167.29476 53.5721627,166.738859 C53.2419795,166.573878 53.8860565,164.689572 54.416625,164.411492 C55.5333527,163.826278 55.7518373,162.898132 55.266,161.882827 C54.6723425,160.643139 54.5836558,159.182438 53.3410086,158.19048 C52.7817397,157.743787 53.6613664,156.9207 53.8444281,156.257665 C53.9775873,155.774916 54.36,155.935486 54.6899247,156.074527 C55.8371627,156.557276 56.9781952,157.05559 58.1360342,157.511102 C58.7444298,157.750532 58.5701592,158.110843 58.3966644,158.52978 C58.1117295,159.217717 57.3856884,160.268042 58.141464,160.58166 C59.0932295,160.976213 59.2553476,159.69917 59.5159777,158.981141 C59.7295497,158.392036 60.0087962,158.280493 60.5605668,158.532892 C61.6136884,159.015383 62.6735325,159.489572 63.755613,159.900208 C64.3210873,160.114994 64.3389281,160.403709 64.1235462,160.874786 C63.7522517,161.686719 63.4574914,162.216161 62.3102534,162.50332 C60.7213921,162.900467 58.501899,162.979844 57.9984795,165.15987 C57.8048168,165.998003 58.0181301,166.939637 57.486786,167.743268 C57.3523339,167.946381 57.3629349,168.270117 56.8080616,168.205006" id="Fill-92" fill="#FEFEFE"></path>
                <path d="M91.562625,140.094267 C88.5327997,137.408405 85.5707175,135.230713 82.1339161,133.782724 C82.1411558,133.668586 82.1483955,133.55393 82.1553767,133.439533 C83.3512243,133.439533 84.5473305,133.422153 85.742661,133.443943 C87.2037928,133.470402 88.664149,133.525655 90.1245051,133.577276 C90.5948288,133.593878 91.143238,133.544591 91.053,134.294786 C90.8311541,136.138885 91.0899743,137.953152 91.562625,140.094267" id="Fill-94" fill="#9A7E4C"></path>
                <path d="M111.173696,129.946122 C111.225317,129.988405 111.276938,130.030428 111.328819,130.072451 C111.174993,130.123554 111.128559,130.077639 111.198079,129.927445 C111.198079,129.927185 111.173696,129.946122 111.173696,129.946122" id="Fill-96" fill="#9A7E4C"></path>
                <path d="M66.3834267,93.5197147 C65.5229336,91.7856031 64.933413,90.1692607 64.4850671,88.5038911 C64.3319986,87.9357977 64.1150654,87.2821012 64.7728462,86.8623865 C65.3639182,86.4854734 66.0067024,86.2335927 66.7123171,86.6014267 C70.113437,88.3744488 73.0108788,90.7819715 75.4351527,93.7412451 C76.2834935,94.7767834 75.803086,95.9189364 74.5045894,96.1679637 C73.7640688,96.3098573 72.9974336,96.3399481 72.1478,96.1682231 C72.2566545,95.9259403 72.2993171,95.7619974 72.3921408,95.6348898 C73.0907743,94.6787289 73.6073805,93.7163424 72.6628548,92.6094682 C71.6043034,91.3687419 69.7713599,90.8673152 68.4782932,91.518677 C67.6397777,91.9409857 66.8149661,92.4058366 66.3834267,93.5197147" id="Fill-98" fill="#FEFEFE"></path>
                <path d="M64.3059615,168.216732 C64.5616789,167.039559 64.9174598,165.872503 65.0369152,164.681323 C65.1116396,163.93476 65.7691618,163.196757 64.9789974,162.331388 C64.5130693,161.820623 65.2776361,160.951362 66.0251378,161.066796 C66.5345043,161.145136 67.038958,161.254864 67.5447046,161.355253 C68.3165111,161.50856 68.7358981,162.666537 68.077083,162.990272 C67.2796789,163.381453 67.4118039,164.010506 67.2600283,164.561997 C66.975869,165.596239 66.8228005,166.666278 66.5637217,167.70856 C66.3100728,168.729831 66.8251276,169.175486 67.709667,169.325681 C68.5644717,169.470947 69.2186327,169.339689 69.3111978,168.219585 C69.3962646,167.194163 69.5384735,166.137095 69.8896002,165.180674 C70.2228861,164.271984 69.731619,163.521012 69.7507526,162.693256 C69.765232,162.060311 69.9477765,161.72153 70.6717491,161.945655 C71.1612063,162.097406 71.6780711,162.23048 72.185369,162.240856 C73.4145711,162.266018 73.3088193,163.181712 72.8842611,163.672244 C71.6017954,165.153956 71.78253,167.002205 71.4065813,168.69585 C70.9714221,170.657458 70.0478399,171.394682 68.1034563,170.983787 C66.9249324,170.73476 65.5925642,170.897925 64.7809392,169.647601 C64.484369,169.190532 64.2459752,168.774189 64.3059615,168.216732" id="Fill-100" fill="#050404"></path>
                <path d="M48.0956202,157.836809 C48.595937,156.929157 49.7460192,156.417613 49.4621185,155.06249 C49.2793154,154.190117 50.267538,153.768067 51.0732161,154.249261 C51.4788993,154.491543 51.8501938,154.81061 52.2804404,154.989079 C53.5267075,155.506589 52.9364113,156.485318 52.4048086,156.712036 C50.7939695,157.399455 50.498175,159.009053 49.6273394,160.195045 C49.2032983,160.772477 48.6411853,161.300363 48.8865603,162.303735 C49.0918582,163.143424 48.0793308,163.508923 47.2291801,163.090765 C46.0798736,162.524747 45.4800106,161.802309 45.6814301,160.394786 C45.8554421,159.17585 45.7176288,157.912036 45.6116185,156.62358 C45.2235175,157.535642 44.0442178,157.962361 44.3811236,159.355357 C44.5954712,160.241219 43.5095123,160.720337 42.6676356,160.208534 C42.2637623,159.962879 41.8479952,159.728379 41.480062,159.435772 C41.2191733,159.228508 40.607675,159.187523 40.8274524,158.694137 C41.018788,158.263787 41.1744421,157.544202 41.7050106,157.570661 C42.2660894,157.598158 42.3622743,157.265344 42.5471459,156.976887 C43.3130055,155.779741 43.9981938,154.526822 44.8219712,153.372996 C45.2581647,152.762101 44.6052966,152.033696 45.255062,151.449001 C45.6248051,151.116446 45.7825277,150.93642 46.2776733,151.195045 C47.5226476,151.84511 48.4201151,152.567289 48.1341459,154.236291 C47.9342777,155.404125 48.0956202,156.634475 48.0956202,157.836809" id="Fill-102" fill="#050404"></path>
                <path d="M48.7256057,156.386278 C48.3708591,156.294449 48.4047307,156.069287 48.4137803,155.877588 C48.4233471,155.681738 48.4202443,155.429079 48.6901827,155.412996 C48.9231467,155.399507 49.1049156,155.59847 49.06458,155.79821 C49.0201074,156.017925 48.833943,156.208586 48.7256057,156.386278" id="Fill-104" fill="#572D7B"></path>
                <path d="M56.7214435,167.624462 C55.8164777,167.232763 54.8859144,167.012529 54.2035702,166.474786 C53.6918767,166.071933 54.2539897,165.39022 54.6133904,165.069079 C56.2288836,163.625759 56.4646918,163.002931 55.580411,161.179585 C55.051911,160.089572 54.9285771,158.798003 53.8914863,157.936005 C53.5062295,157.616161 54.0321438,157.16428 54.1774555,156.788923 C54.3431935,156.361167 54.6687226,156.587108 54.9267671,156.685681 C55.4056233,156.86856 55.8798253,157.066226 56.3449777,157.28153 C56.8853716,157.531855 57.6251164,157.680233 57.8839366,158.111102 C58.1068168,158.482568 57.5077295,159.057147 57.2763168,159.537821 C56.9701798,160.175175 57.4467089,161.11655 57.9170325,161.249624 C58.4129538,161.389702 59.4019521,161.29476 59.5844966,160.291647 C59.7791935,159.223165 60.2226267,158.666226 61.3613322,159.428872 C61.8153664,159.733152 62.4020428,159.830947 62.8883973,160.096316 C63.1759178,160.252996 63.8049983,160.233541 63.5831524,160.806304 C63.4233613,161.218236 63.4561986,161.774137 62.6851678,161.85144 C61.1808562,162.002153 59.8089281,162.725888 58.5026747,163.411751 C57.5922791,163.889572 57.1527243,164.998262 57.3365616,166.10773 C57.4552414,166.824721 57.2807123,167.270895 56.7214435,167.624462" id="Fill-106" fill="#050404"></path>
            </g>
        </g>
    </g>
</svg>