<?xml version="1.0" encoding="UTF-8"?>
<svg width="200px" height="200px" viewBox="0 0 200 200" version="1.1" xmlns="http://www.w3.org/2000/svg" xmlns:xlink="http://www.w3.org/1999/xlink">
    <!-- Generator: Sketch 51.3 (57544) - http://www.bohemiancoding.com/sketch -->
    <title>new-rochelle</title>
    <desc>Created with Sketch.</desc>
    <defs></defs>
    <g id="new-rochelle" stroke="none" stroke-width="1" fill="none" fill-rule="evenodd">
        <g id="new-rochelle_BGL">
            <g id="new-rochelle" transform="translate(0.000000, 57.000000)">
                <path d="M35.0576271,0.18079096 C42.8971751,0.183050847 50.7389831,0.189830508 58.5785311,0.178531073 C60.7706215,2.38644068 62.879096,4.68022599 65.0779661,6.88135593 C65.0892655,10.1988701 65.1231638,13.5186441 65.0576271,16.8338983 C64.4587571,17.4350282 63.880226,18.0519774 63.3152542,18.680226 C63.8734463,19.3084746 64.5694915,19.880226 65.0259887,20.5853107 C65.1096045,21.019209 65.0960452,21.480226 65.100565,21.920904 C65.0734463,25.1276836 65.1096045,28.3344633 65.080226,31.5435028 C62.7548023,33.760452 60.5242938,36.0768362 58.1514124,38.2418079 C50.4542373,38.2259887 42.7548023,38.2350282 35.0576271,38.239548 C35.0508475,34.9152542 35.0689266,31.5932203 35.0485876,28.2689266 C35.9367232,28.2779661 36.8225989,28.2779661 37.7084746,28.2779661 C37.7039548,22.2056497 37.7152542,16.1310734 37.7016949,10.0564972 C36.820339,10.0474576 35.9389831,10.0474576 35.0553672,10.0542373 C35.059887,6.76384181 35.0553672,3.47118644 35.0576271,0.18079096 Z M49.0870056,10.079096 C49.0892655,11.3446328 49.0870056,12.6101695 49.0870056,13.8734463 C50.5581921,13.900565 52.0271186,13.9118644 53.4983051,13.859887 C53.4983051,12.6056497 53.4983051,11.3491525 53.500565,10.0949153 C52.0293785,10.0429379 50.5581921,10.0542373 49.0870056,10.079096 Z M49.1367232,23.7785311 C49.0350282,25.2610169 49.1299435,26.7615819 49.0960452,28.2485876 C50.5627119,28.2485876 52.0316384,28.2485876 53.500565,28.2463277 C53.4960452,26.7525424 53.5028249,25.2587571 53.4937853,23.7627119 C52.0451977,23.7514124 50.580791,23.6813559 49.1367232,23.7785311 Z" id="Shape" fill="#014693" fill-rule="nonzero"></path>
                <path d="M68.5039548,0.183050847 C74.1785311,0.185310734 79.8531073,0.183050847 85.5276836,0.183050847 C85.5322034,3.47118644 85.5254237,6.76158192 85.5299435,10.0519774 C84.5039548,10.0474576 83.4779661,10.0497175 82.4519774,10.0474576 C82.4610169,16.1242938 82.4564972,22.2011299 82.4542373,28.280226 C83.8011299,28.2757062 85.1480226,28.2847458 86.4926554,28.2666667 C86.5649718,26.2463277 86.3186441,24.1649718 86.6666667,22.1694915 C90.0338983,22.1830508 93.4011299,22.1740113 96.7683616,22.1740113 C96.7615819,27.5276836 96.7661017,32.8813559 96.7661017,38.2350282 C87.3446328,38.2372881 77.9231638,38.2305085 68.5039548,38.2372881 C68.499435,34.9152542 68.5129944,31.5932203 68.4949153,28.2689266 C69.3694915,28.2779661 70.2418079,28.2757062 71.1163842,28.280226 C71.1141243,22.2056497 71.120904,16.1310734 71.1118644,10.0564972 C70.2418079,10.0474576 69.3717514,10.0474576 68.499435,10.0564972 C68.5084746,6.76384181 68.5016949,3.47344633 68.5039548,0.183050847 Z" id="Shape" fill="#014693" fill-rule="nonzero"></path>
                <path d="M99.1683616,0.185310734 C104.449718,0.18079096 109.731073,0.187570621 115.010169,0.18079096 C115.055367,3.35367232 115.037288,6.53107345 115.021469,9.7039548 C114.512994,9.71073446 114.00452,9.73333333 113.493785,9.74011299 C113.480226,15.9186441 113.493785,22.099435 113.489266,28.280226 C115.014689,28.2757062 116.540113,28.2734463 118.065537,28.2824859 C118.061017,22.099435 118.072316,15.9163842 118.058757,9.73333333 C117.586441,9.72881356 117.116384,9.72429379 116.644068,9.7220339 C116.576271,6.54689266 116.578531,3.3559322 116.646328,0.18079096 C121.920904,0.185310734 127.19548,0.183050847 132.472316,0.183050847 C132.472316,3.47118644 132.470056,6.76158192 132.474576,10.0497175 C131.439548,10.0474576 130.40678,10.0497175 129.374011,10.0519774 C129.369492,17.2361582 129.371751,24.420339 129.371751,31.6045198 C127.349153,33.6180791 125.324294,35.640678 123.312994,37.6677966 C122.919774,38.0564972 122.625989,38.2734463 122.036158,38.2372881 C117.588701,38.2350282 113.125424,38.2282486 108.677966,38.239548 C106.698305,36.1446328 104.616949,34.1446328 102.585311,32.1016949 C102.415819,31.8960452 102.174011,31.7084746 102.171751,31.4214689 C102.097175,30.5943503 102.146893,29.7559322 102.140113,28.9265537 C102.137853,22.6372881 102.146893,16.3457627 102.135593,10.0564972 C101.145763,10.0497175 100.155932,10.0474576 99.1661017,10.0497175 C99.1683616,6.76158192 99.1638418,3.47344633 99.1683616,0.185310734 Z" id="Shape" fill="#014693" fill-rule="nonzero"></path>
                <path d="M135.778531,0.183050847 C145.500565,0.183050847 155.222599,0.187570621 164.944633,0.18079096 C164.946893,4.25536723 164.931073,8.33220339 164.951412,12.4090395 C161.532203,12.3932203 158.112994,12.4022599 154.691525,12.4045198 C154.696045,11.620339 154.696045,10.8361582 154.696045,10.0542373 C153.035028,10.0451977 151.374011,10.0474576 149.712994,10.0542373 C149.708475,11.4327684 149.706215,12.8112994 149.719774,14.1898305 C152.729944,14.2011299 155.740113,14.1943503 158.750282,14.1943503 C158.750282,17.3875706 158.752542,20.580791 158.748023,23.7717514 C155.737853,23.7717514 152.727684,23.7672316 149.717514,23.7762712 C149.703955,25.279096 149.712994,26.779661 149.708475,28.280226 C151.371751,28.2757062 153.035028,28.2757062 154.698305,28.2824859 C154.696045,27.3649718 154.696045,26.4474576 154.698305,25.5299435 C158.112994,25.5299435 161.529944,25.5322034 164.944633,25.5276836 C164.942373,29.7649718 164.942373,34.0022599 164.944633,38.2372881 C155.222599,38.2305085 145.500565,38.2350282 135.778531,38.2372881 C135.774011,34.9152542 135.780791,31.5954802 135.776271,28.2757062 C136.628249,28.2779661 137.482486,28.2779661 138.336723,28.280226 C138.334463,22.2033898 138.327684,16.1242938 138.338983,10.0474576 C137.484746,10.0497175 136.630508,10.0497175 135.776271,10.0519774 C135.776271,6.76158192 135.774011,3.47118644 135.778531,0.183050847 Z" id="Shape" fill="#014693" fill-rule="nonzero"></path>
                <path d="M38.5378531,3.44180791 C43.6949153,3.45084746 48.8542373,3.44180791 54.0112994,3.44632768 C54.8180791,3.45762712 55.6497175,3.38079096 56.4474576,3.49152542 C56.9265537,3.78305085 57.299435,4.28248588 57.699435,4.67344633 C59.0237288,5.99548023 60.2960452,7.36497175 61.6384181,8.67118644 C61.640678,11.0259887 61.640678,13.3830508 61.6384181,15.7378531 C60.6237288,16.7728814 59.5751412,17.7717514 58.5310734,18.7751412 C59.5412429,19.8079096 60.5740113,20.820339 61.5864407,21.8508475 C61.579661,24.4451977 61.5841808,27.0372881 61.5819209,29.6293785 C59.8214689,31.4214689 57.9954802,33.1480226 56.2169492,34.9242938 C50.3050847,34.9062147 44.3909605,34.919774 38.4768362,34.9175141 C38.4745763,33.7875706 38.4723164,32.659887 38.4700565,31.5299435 C39.3785311,31.5435028 40.2870056,31.5096045 41.1954802,31.5096045 C41.179661,23.3107345 41.179661,15.1096045 41.1954802,6.90847458 C40.3073446,6.9039548 39.419209,6.87909605 38.5333333,6.89039548 C38.5265537,5.74011299 38.5288136,4.58983051 38.5378531,3.44180791 Z M49.1367232,23.7785311 C49.0350282,25.2610169 49.1299435,26.7615819 49.0960452,28.2485876 C50.5627119,28.2485876 52.0316384,28.2485876 53.500565,28.2463277 C53.4960452,26.7525424 53.5028249,25.2587571 53.4937853,23.7627119 C52.0451977,23.7514124 50.580791,23.6813559 49.1367232,23.7785311 Z M49.0870056,10.079096 C49.0892655,11.3446328 49.0870056,12.6101695 49.0870056,13.8734463 C50.5581921,13.900565 52.0271186,13.9118644 53.4983051,13.859887 C53.4983051,12.6056497 53.4983051,11.3491525 53.500565,10.0949153 C52.0293785,10.0429379 50.5581921,10.0542373 49.0870056,10.079096 Z" id="Shape" fill="#C1C5E0" fill-rule="nonzero"></path>
                <path d="M71.9525424,3.4779661 C75.3581921,3.39887006 78.7932203,3.46892655 82.2033898,3.44632768 C82.2033898,4.59435028 82.2033898,5.74011299 82.2079096,6.88813559 C81.1728814,6.89039548 80.1355932,6.89943503 79.100565,6.89039548 C79.0915254,15.1389831 79.0983051,23.3875706 79.0960452,31.6384181 C82.7683616,31.6384181 86.4429379,31.640678 90.1152542,31.6361582 C90.1107345,29.5706215 90.119774,27.5050847 90.1062147,25.439548 C91.220339,25.4282486 92.3322034,25.4079096 93.4440678,25.4282486 C93.4485876,28.5898305 93.4440678,31.7514124 93.4463277,34.9129944 C86.2734463,34.919774 79.0983051,34.9152542 71.9231638,34.9152542 C71.920904,33.8237288 71.9186441,32.7322034 71.9186441,31.640678 C72.8045198,31.6384181 73.6903955,31.6384181 74.5762712,31.6384181 C74.5740113,23.3898305 74.580791,15.1412429 74.5717514,6.89265537 C73.6858757,6.89717514 72.8,6.89039548 71.9141243,6.88361582 C71.9435028,5.75141243 71.8621469,4.60564972 71.9525424,3.4779661 Z" id="Shape" fill="#C1C5E0" fill-rule="nonzero"></path>
                <path d="M102.60113,3.4440678 C105.722034,3.4440678 108.845198,3.45084746 111.966102,3.43954802 C111.977401,4.5920904 111.986441,5.74237288 111.975141,6.89265537 C111.353672,6.89039548 110.734463,6.89265537 110.112994,6.89265537 C110.103955,14.1581921 110.122034,21.439548 110.103955,28.7050847 C110.131073,29.0915254 110.079096,29.4305085 110.379661,29.7220339 C110.980791,30.3954802 111.670056,30.9920904 112.296045,31.6429379 C114.625989,31.6338983 116.958192,31.640678 119.288136,31.6384181 C119.99096,30.8655367 120.894915,30.2011299 121.480226,29.340113 C121.586441,28.6124294 121.520904,27.8531073 121.527684,27.1186441 C121.523164,20.3774011 121.529944,13.6338983 121.523164,6.89265537 C120.903955,6.89491525 120.282486,6.89265537 119.661017,6.89265537 C119.658757,5.74237288 119.661017,4.5920904 119.665537,3.44180791 C122.788701,3.44858757 125.914124,3.44632768 129.037288,3.4440678 C129.041808,4.59435028 129.041808,5.74463277 129.035028,6.89491525 C128.038418,6.89039548 127.041808,6.89265537 126.045198,6.89491525 C126.036158,14.7186441 126.065537,22.5423729 126.031638,30.3661017 C124.433898,31.8734463 122.836158,33.380791 121.263277,34.9152542 C117.568362,34.9175141 113.875706,34.9152542 110.180791,34.9152542 C108.723164,33.4282486 107.290395,31.9276836 105.832768,30.4361582 C105.502825,30.1378531 105.554802,29.7898305 105.527684,29.380791 C105.545763,21.8892655 105.532203,14.3864407 105.536723,6.89491525 C104.558192,6.89491525 103.579661,6.89265537 102.60339,6.89491525 C102.59887,5.74463277 102.59661,4.59435028 102.60113,3.4440678 Z" id="Shape" fill="#C1C5E0" fill-rule="nonzero"></path>
                <path d="M139.154802,3.44632768 C146.589831,3.44180791 154.027119,3.45084746 161.462147,3.44180791 C161.473446,5.32655367 161.471186,7.21129944 161.468927,9.0960452 C160.357062,9.0960452 159.247458,9.0960452 158.135593,9.09378531 C158.137853,8.36384181 158.137853,7.63389831 158.140113,6.9039548 C154.20339,6.87909605 150.266667,6.89943503 146.329944,6.89491525 C146.327684,10.4158192 146.327684,13.9344633 146.329944,17.4553672 C149.360452,17.4576271 152.39322,17.4553672 155.423729,17.4576271 C155.423729,18.4361582 155.423729,19.4146893 155.425989,20.3932203 C152.39548,20.3932203 149.364972,20.4 146.334463,20.3909605 C146.320904,24.140113 146.332203,27.8892655 146.329944,31.6384181 C150.264407,31.6361582 154.20113,31.6429379 158.137853,31.6361582 C158.135593,30.7322034 158.135593,29.8305085 158.137853,28.9288136 C159.247458,28.9242938 160.359322,28.9265537 161.471186,28.9310734 C161.466667,30.9265537 161.468927,32.9220339 161.468927,34.9152542 C154.027119,34.9062147 146.585311,34.9378531 139.145763,34.899435 C139.148023,33.8124294 139.159322,32.7254237 139.154802,31.6384181 C140.038418,31.6384181 140.922034,31.6384181 141.80565,31.6384181 C141.810169,23.3898305 141.80565,15.1412429 141.80791,6.89491525 C140.919774,6.90621469 140.033898,6.88361582 139.145763,6.87457627 C139.150282,5.73333333 139.157062,4.58983051 139.154802,3.44632768 Z" id="Shape" fill="#C1C5E0" fill-rule="nonzero"></path>
                <path d="M45.6497175,6.89491525 C48.7548023,6.89265537 51.8621469,6.89265537 54.9672316,6.89491525 C55.6587571,7.60903955 56.3570621,8.31412429 57.0644068,9.01242938 C57.0621469,11.0779661 57.0553672,13.1435028 57.0666667,15.2090395 C56.4429379,15.8079096 55.8824859,16.4858757 55.2180791,17.0372881 C54.980791,17.2677966 54.5468927,17.2158192 54.2372881,17.240678 C51.3740113,17.220339 48.5129944,17.2316384 45.6497175,17.2316384 C45.6497175,13.7853107 45.6519774,10.3412429 45.6497175,6.89491525 Z M49.0870056,10.079096 C49.0892655,11.3446328 49.0870056,12.6101695 49.0870056,13.8734463 C50.5581921,13.900565 52.0271186,13.9118644 53.4983051,13.859887 C53.4983051,12.6056497 53.4983051,11.3491525 53.500565,10.0949153 C52.0293785,10.0429379 50.5581921,10.0542373 49.0870056,10.079096 Z" id="Shape" fill="#014693" fill-rule="nonzero"></path>
                <path d="M45.6497175,20.5084746 C48.4384181,20.5084746 51.2225989,20.5175141 54.0112994,20.499435 C54.3141243,20.5265537 54.7615819,20.4745763 54.9920904,20.700565 C55.7333333,21.3288136 56.3638418,22.0836158 57.0666667,22.7548023 C57.0576271,24.9107345 57.0576271,27.0666667 57.0666667,29.2225989 C56.2711864,30.0338983 55.4621469,30.8338983 54.6576271,31.6384181 C51.6564972,31.6384181 48.6531073,31.6384181 45.6497175,31.6384181 C45.6497175,27.9276836 45.6497175,24.219209 45.6497175,20.5084746 Z M49.1367232,23.7785311 C49.0350282,25.2610169 49.1299435,26.7615819 49.0960452,28.2485876 C50.5627119,28.2485876 52.0316384,28.2485876 53.500565,28.2463277 C53.4960452,26.7525424 53.5028249,25.2587571 53.4937853,23.7627119 C52.0451977,23.7514124 50.580791,23.6813559 49.1367232,23.7785311 Z" id="Shape" fill="#014693" fill-rule="nonzero"></path>
                <path d="M23.3920904,47.2564972 C26.180791,56.4 29.0350282,65.6745763 31.8440678,74.8180791 C31.9073446,75.0282486 31.9932203,75.2248588 32.1039548,75.4056497 C33.2135593,75.4960452 34.3389831,75.4146893 35.4508475,75.4372881 C35.4553672,78.759322 35.4418079,82.0813559 35.459887,85.4033898 C30.1242938,85.3898305 24.7887006,85.3875706 19.4553672,85.4033898 C19.4711864,82.2101695 19.4621469,79.0146893 19.459887,75.8214689 C20.2915254,75.8282486 21.120904,75.8282486 21.9502825,75.8146893 C21.7446328,75.0870056 21.5344633,74.3615819 21.3265537,73.6361582 C18.8700565,73.6519774 16.4112994,73.6429379 13.9548023,73.6384181 C13.699435,74.3661017 13.4508475,75.0937853 13.2180791,75.8259887 C14,75.8282486 14.7841808,75.8259887 15.5683616,75.819209 C15.5638418,79.0146893 15.5570621,82.2079096 15.5728814,85.4033898 C10.4429379,85.3853107 5.31073446,85.3988701 0.18079096,85.3966102 C0.187570621,82.0768362 0.18079096,78.7570621 0.183050847,75.4372881 C1.22485876,75.4418079 2.26666667,75.4372881 3.30847458,75.4305085 C6.38418079,66.0610169 9.48022599,56.6576271 12.5717514,47.2926554 C16.1762712,47.2112994 19.7875706,47.2903955 23.3920904,47.2564972 Z M17.6768362,61.8011299 C17.1615819,63.059887 16.7954802,64.3525424 16.3615819,65.6497175 C17.2384181,65.6587571 18.1152542,65.6587571 18.9920904,65.6474576 C18.5378531,64.3774011 18.2440678,63.0214689 17.6768362,61.8011299 Z" id="Shape" fill="#014693" fill-rule="nonzero"></path>
                <path d="M39.0892655,47.2610169 C43.6836158,47.2587571 48.280226,47.2610169 52.8768362,47.2587571 C55.5525424,52.2553672 58.2418079,57.2429379 60.9129944,62.239548 C61.2632768,62.940113 61.6587571,63.6090395 62.0971751,64.2576271 C62.1875706,61.7875706 62.1242938,59.3084746 62.1355932,56.8338983 C61.2316384,56.8293785 60.3299435,56.8293785 59.4282486,56.8293785 C59.4282486,53.6384181 59.4282486,50.4497175 59.4282486,47.2610169 C64.3954802,47.2542373 69.3627119,47.2700565 74.3299435,47.2519774 C74.3096045,50.5627119 74.3254237,53.8711864 74.320904,57.1819209 C73.4644068,57.1932203 72.6079096,57.1977401 71.7514124,57.2045198 C71.7378531,66.6011299 71.7423729,76 71.7491525,85.3988701 C68.4248588,85.3943503 65.0983051,85.3875706 61.7740113,85.4033898 C58.7276836,79.7062147 55.6158192,74.040678 52.5536723,68.3502825 C52.2418079,67.6949153 51.8485876,67.0915254 51.4485876,66.4858757 C51.3559322,69.5389831 51.419209,72.6033898 51.4146893,75.6587571 C52.4225989,75.6632768 53.4282486,75.6677966 54.4361582,75.6610169 C54.4361582,78.9084746 54.4248588,82.1559322 54.4429379,85.4033898 C49.3242938,85.3853107 44.2056497,85.3988701 39.0892655,85.3966102 C39.1028249,82.0768362 39.0644068,78.7548023 39.1096045,75.4350282 C40.0045198,75.439548 40.899435,75.439548 41.7920904,75.4305085 C41.8033898,69.3559322 41.8033898,63.2813559 41.7943503,57.2067797 C40.8949153,57.2 39.9977401,57.1864407 39.100565,57.159322 C39.0757062,53.859887 39.0983051,50.560452 39.0892655,47.2610169 Z" id="Shape" fill="#014693" fill-rule="nonzero"></path>
                <path d="M180.110734,47.2497175 C184.546893,47.2745763 188.983051,47.2497175 193.416949,47.2632768 C195.374011,49.3152542 197.369492,51.3355932 199.362712,53.3536723 C199.364972,55.4508475 199.360452,57.5480226 199.364972,59.6451977 C195.850847,59.6949153 192.336723,59.6542373 188.822599,59.6677966 C188.820339,58.8451977 188.820339,58.0225989 188.813559,57.2022599 C187.184181,57.1909605 185.554802,57.1977401 183.925424,57.1977401 C183.927684,58.4361582 183.927684,59.6745763 183.920904,60.9129944 C187.611299,60.9062147 191.301695,60.9152542 194.989831,60.9084746 C196.60113,62.5762712 198.280226,64.1898305 199.825989,65.9163842 C199.80791,70.1762712 199.814689,74.4361582 199.821469,78.6983051 C198.097175,80.3615819 196.433898,82.0858757 194.693785,83.7333333 C194.131073,84.259887 193.627119,84.9355932 192.980791,85.3559322 C192.241808,85.4463277 191.480226,85.3875706 190.734463,85.3943503 C186.919774,85.3966102 183.107345,85.3898305 179.292655,85.3988701 C177.227119,83.220339 174.922034,81.0915254 172.949153,78.8610169 C172.845198,76.5785311 172.946893,74.2666667 172.906215,71.9774011 C176.580791,71.9887006 180.255367,71.9909605 183.929944,71.979661 C183.923164,73.1322034 183.927684,74.2847458 183.923164,75.4372881 C185.450847,75.4372881 186.978531,75.4372881 188.506215,75.4372881 C188.501695,73.5819209 188.503955,71.7265537 188.503955,69.8711864 C184.926554,69.8824859 181.349153,69.8553672 177.771751,69.8847458 C176.038418,68.2101695 174.4,66.4338983 172.682486,64.7389831 C172.60339,61.6158192 172.677966,58.4903955 172.639548,55.3672316 C172.646328,54.8677966 172.612429,54.3367232 172.723164,53.8463277 C173.150282,53.2451977 173.751412,52.7570621 174.271186,52.2350282 C175.907345,50.7096045 177.446328,49.080226 179.044068,47.5186441 C179.346893,47.1751412 179.699435,47.2836158 180.110734,47.2497175 Z" id="Shape" fill="#014693" fill-rule="nonzero"></path>
                <path d="M84.7412429,47.8870056 C89.4146893,47.839548 94.099435,47.8847458 98.7751412,47.8644068 C100.555932,49.6338983 102.320904,51.4169492 104.103955,53.1841808 C104.499435,53.5887006 104.974011,53.9751412 105.276836,54.4542373 C105.374011,56.6282486 105.299435,58.8293785 105.303955,61.0079096 C101.769492,61.0327684 98.2305085,61.0327684 94.6960452,61.0079096 C94.6824859,59.9186441 94.6779661,58.8293785 94.6757062,57.7378531 C92.9084746,57.7288136 91.1412429,57.7310734 89.3740113,57.7355932 C89.3649718,63.8124294 89.3762712,69.8892655 89.3694915,75.9661017 C91.1389831,75.9570621 92.9107345,75.9615819 94.680226,75.9615819 C94.6847458,74.8135593 94.6824859,73.6632768 94.680226,72.5152542 C94.079096,72.5152542 93.4757062,72.5107345 92.8723164,72.5107345 C92.8768362,69.4440678 92.8745763,66.3751412 92.8745763,63.3062147 C97.0214689,63.3062147 101.170621,63.3039548 105.317514,63.3062147 C105.317514,70.8429379 105.317514,78.379661 105.317514,85.9186441 C98.4542373,85.920904 91.5932203,85.9141243 84.7299435,85.920904 C82.5107345,83.7129944 80.300565,81.4937853 78.0858757,79.2813559 C78.0813559,71.5367232 78.0971751,63.7898305 78.0768362,56.0451977 C78.1288136,55.2971751 77.8734463,54.659887 78.5220339,54.1129944 C80.6259887,52.0700565 82.6033898,49.8892655 84.7412429,47.8870056 Z" id="Shape" fill="#014693" fill-rule="nonzero"></path>
                <path d="M109.168362,47.8644068 C118.883616,47.8711864 128.59661,47.8644068 138.311864,47.8666667 C138.311864,51.9389831 138.311864,56.0112994 138.311864,60.0836158 C134.917514,60.0836158 131.523164,60.0858757 128.128814,60.0836158 C128.128814,59.3016949 128.128814,58.5220339 128.124294,57.740113 C126.474576,57.7288136 124.824859,57.7288136 123.177401,57.740113 C123.168362,59.1186441 123.166102,60.4949153 123.179661,61.8734463 C126.189831,61.8892655 129.2,61.8757062 132.210169,61.8779661 C132.19887,65.0711864 132.237288,68.2644068 132.185311,71.4576271 C129.184181,71.459887 126.180791,71.4463277 123.179661,71.4644068 C123.163842,72.9627119 123.170621,74.4610169 123.172881,75.9615819 C124.822599,75.9615819 126.474576,75.9615819 128.126554,75.9615819 C128.124294,75.0508475 128.128814,74.140113 128.146893,73.2293785 C131.529944,73.2067797 134.917514,73.2022599 138.298305,73.2316384 C138.329944,77.459887 138.302825,81.6881356 138.311864,85.9186441 C128.59661,85.920904 118.883616,85.9141243 109.168362,85.920904 C109.118644,82.6011299 109.159322,79.2813559 109.145763,75.9615819 C110.038418,75.9615819 110.928814,75.9615819 111.821469,75.9638418 C111.816949,69.8892655 111.828249,63.8146893 111.816949,57.740113 C110.926554,57.7310734 110.036158,57.7310734 109.145763,57.7333333 C109.159322,54.4429379 109.118644,51.1525424 109.168362,47.8644068 Z" id="Shape" fill="#014693" fill-rule="nonzero"></path>
                <path d="M141.261017,47.8644068 C146.917514,47.8711864 152.576271,47.8644068 158.232768,47.8666667 C158.237288,51.1548023 158.232768,54.4451977 158.235028,57.7333333 C157.20226,57.7310734 156.167232,57.7355932 155.134463,57.7355932 C155.132203,63.8124294 155.136723,69.8892655 155.132203,75.9661017 C156.537853,75.9570621 157.945763,75.959322 159.353672,75.9615819 C159.344633,73.9254237 159.360452,71.8870056 159.342373,69.8508475 C162.727684,69.8711864 166.112994,69.8531073 169.498305,69.859887 C169.482486,75.2135593 169.527684,80.5672316 169.475706,85.920904 C160.070056,85.9186441 150.666667,85.9141243 141.261017,85.9231638 C141.20452,82.6033898 141.247458,79.2813559 141.236158,75.959322 C142.106215,75.9615819 142.978531,75.9615819 143.850847,75.9661017 C143.844068,69.8892655 143.855367,63.8124294 143.846328,57.7355932 C142.976271,57.7333333 142.106215,57.7310734 141.236158,57.7333333 C141.247458,54.4429379 141.20452,51.1525424 141.261017,47.8644068 Z" id="Shape" fill="#014693" fill-rule="nonzero"></path>
                <path d="M15.0689266,50.5785311 C16.980791,50.5423729 18.8971751,50.5785311 20.8090395,50.5649718 C23.7717514,59.959322 26.7186441,69.3581921 29.6745763,78.7548023 C30.4632768,78.7570621 31.2497175,78.759322 32.0384181,78.7638418 C32.0338983,79.8531073 32.0316384,80.9423729 32.0361582,82.0316384 C29.059887,82.0361582 26.0836158,82.0338983 23.1073446,82.0316384 C23.1096045,80.9423729 23.1050847,79.8531073 23.1028249,78.7638418 C24,78.759322 24.899435,78.7525424 25.7966102,78.7548023 C25.0372881,76.1920904 24.2101695,73.6519774 23.4576271,71.0892655 C19.5480226,71.0553672 15.6338983,71.0824859 11.7220339,71.0757062 C10.8610169,73.6293785 10.0474576,76.2011299 9.18418079,78.7570621 C10.1378531,78.7435028 11.0892655,78.7661017 12.040678,78.7706215 C12.0361582,79.8576271 12.0271186,80.9446328 12.0361582,82.0338983 C9.22937853,82.0338983 6.42259887,82.0338983 3.6180791,82.0338983 C3.61355932,80.940113 3.61581921,79.8463277 3.6180791,78.7548023 C4.33446328,78.7570621 5.04858757,78.759322 5.76497175,78.7638418 C7.87570621,72.3570621 9.9819209,65.9480226 12.0836158,59.5389831 C13.0960452,56.560452 14.0022599,53.5367232 15.0689266,50.5785311 Z M17.6768362,61.8011299 C17.1615819,63.059887 16.7954802,64.3525424 16.3615819,65.6497175 C17.2384181,65.6587571 18.1152542,65.6587571 18.9920904,65.6474576 C18.5378531,64.3774011 18.2440678,63.0214689 17.6768362,61.8011299 Z" id="Shape" fill="#C1C5E0" fill-rule="nonzero"></path>
                <path d="M42.540113,50.5694915 C45.2903955,50.5694915 48.040678,50.5514124 50.7909605,50.5785311 C55.4531073,58.9581921 60.1536723,67.319774 64.8497175,75.679096 C64.8700565,68.4564972 64.8519774,61.2338983 64.8587571,54.0112994 C64.0881356,54.0112994 63.3152542,54.0112994 62.5423729,54.0112994 C62.5423729,52.8632768 62.5423729,51.7152542 62.5446328,50.5672316 C65.3491525,50.5649718 68.1536723,50.5649718 70.9581921,50.5672316 C70.960452,51.7152542 70.960452,52.8632768 70.960452,54.0112994 C70.0949153,54.0112994 69.2293785,54.0112994 68.3638418,54.0112994 C68.3615819,63.3514124 68.359322,72.6915254 68.3638418,82.0293785 C66.8180791,82.0361582 65.2745763,82.0316384 63.7288136,82.0361582 C58.6757062,73.0689266 53.6632768,64.0768362 48.5920904,55.120904 C48.5830508,63.0011299 48.5853107,70.879096 48.5920904,78.759322 C49.4779661,78.7525424 50.3615819,78.759322 51.2474576,78.7661017 C51.2451977,79.8553672 51.240678,80.9446328 51.2429379,82.0338983 C48.3412429,82.0338983 45.4418079,82.0338983 42.540113,82.0338983 C42.5446328,80.9446328 42.5423729,79.8531073 42.5378531,78.7638418 C43.4237288,78.759322 44.3096045,78.7548023 45.1954802,78.759322 C45.2,70.5084746 45.1954802,62.259887 45.1977401,54.0112994 C44.3118644,54.0112994 43.4282486,54.0090395 42.5423729,54.0090395 C42.5423729,52.8632768 42.5423729,51.7152542 42.540113,50.5694915 Z" id="Shape" fill="#C1C5E0" fill-rule="nonzero"></path>
                <path d="M180.867797,50.6463277 C181.563842,50.4903955 182.336723,50.5740113 183.050847,50.5627119 C186.00452,50.5672316 188.958192,50.5717514 191.911864,50.5581921 C193.455367,52.1288136 194.969492,53.7288136 196.503955,55.3062147 C196.497175,55.760452 196.492655,56.2169492 196.485876,56.6734463 C195.021469,56.6621469 193.557062,56.6734463 192.092655,56.6621469 C191.844068,55.5751412 190.650847,54.8745763 189.950282,54.0180791 C187.525424,54.0067797 185.098305,54.0090395 182.673446,54.0158192 C181.988701,54.7186441 181.288136,55.4033898 180.564972,56.0700565 C180.564972,58.2327684 180.564972,60.3954802 180.564972,62.5581921 C180.976271,63.0011299 181.387571,63.4463277 181.79887,63.8892655 C185.6,63.9096045 189.40113,63.8960452 193.20226,63.8983051 C194.076836,64.7819209 194.917514,65.6971751 195.80565,66.5672316 C196.144633,66.9536723 196.526554,67.2248588 196.497175,67.7898305 C196.503955,70.9220339 196.494915,74.0723164 196.494915,77.2067797 C194.79096,78.8 193.120904,80.4316384 191.425989,82.0361582 C187.905085,82.0271186 184.384181,82.0429379 180.863277,82.0271186 C179.254237,80.440678 177.722034,78.7841808 176.103955,77.2067797 C176.101695,76.4451977 176.101695,75.6836158 176.097175,74.9220339 C177.579661,74.9107345 179.064407,74.9152542 180.546893,74.9152542 C180.60339,75.480226 180.4,76.3480226 180.858757,76.7683616 C181.455367,77.4644068 182.137853,78.0836158 182.750282,78.7638418 C185.046328,78.7480226 187.342373,78.759322 189.636158,78.7570621 C190.40452,77.9751412 191.186441,77.2067797 191.984181,76.4564972 C191.970621,73.7107345 191.975141,70.9649718 191.979661,68.219209 C191.572881,67.7762712 191.166102,67.3310734 190.761582,66.8836158 C187.00791,66.9016949 183.254237,66.8926554 179.500565,66.8881356 C178.646328,65.9887006 177.80113,65.0824859 176.926554,64.2011299 C176.650847,63.9073446 176.329944,63.6 176.146893,63.2361582 C176.083616,62.8813559 176.090395,62.5084746 176.088136,62.1468927 C176.119774,59.8485876 176.081356,57.5525424 176.110734,55.2542373 C177.290395,54.0813559 178.522034,52.9649718 179.674576,51.7627119 C180.051977,51.3830508 180.424859,50.9514124 180.867797,50.6463277 Z" id="Shape" fill="#C1C5E0" fill-rule="nonzero"></path>
                <path d="M86.3706215,51.1751412 C87.0983051,51.0711864 87.8553672,51.1344633 88.5875706,51.1276836 C91.4237288,51.1322034 94.2576271,51.1254237 97.0937853,51.1322034 C98.7073446,52.7073446 100.255367,54.3457627 101.853107,55.9367232 C101.857627,56.5355932 101.866667,57.1344633 101.875706,57.7333333 C100.625989,57.7446328 99.3785311,57.7446328 98.1310734,57.7333333 C98.1310734,57.4056497 98.1310734,57.0757062 98.1355932,56.7480226 C97.4033898,56 96.6553672,55.2768362 95.8824859,54.5740113 C93.6,54.5785311 91.3220339,54.580791 89.039548,54.5672316 C88.7073446,54.5943503 88.2892655,54.5355932 88.0361582,54.7864407 C87.3175141,55.3966102 86.6847458,56.1039548 85.9887006,56.7367232 C85.9841808,63.2090395 86.0022599,69.6836158 85.9774011,76.1559322 C86.0067797,76.499435 85.9435028,76.9039548 86.1898305,77.1751412 C86.7322034,77.8350282 87.3627119,78.4361582 87.9819209,79.0259887 C88.3344633,79.4101695 88.7887006,79.2971751 89.2655367,79.3355932 C92.2214689,79.3084746 95.179661,79.3288136 98.1355932,79.319774 C98.1333333,75.9887006 98.1378531,72.6553672 98.1333333,69.3242938 C97.380791,69.3220339 96.6282486,69.3220339 95.8757062,69.3220339 C95.8757062,68.4180791 95.8734463,67.5163842 95.8734463,66.6124294 C97.8711864,66.6124294 99.8689266,66.6079096 101.866667,66.6146893 C101.866667,71.9412429 101.859887,77.2677966 101.868927,82.5943503 C96.680226,82.6056497 91.4892655,82.5966102 86.300565,82.5988701 C84.6915254,80.9762712 83.0508475,79.3830508 81.4666667,77.7355932 C81.4689266,70.4813559 81.4734463,63.2293785 81.4644068,55.9751412 C82.8542373,54.560452 84.2757062,53.179661 85.6564972,51.7559322 C85.8734463,51.5502825 86.099435,51.3084746 86.3706215,51.1751412 Z" id="Shape" fill="#C1C5E0" fill-rule="nonzero"></path>
                <path d="M112.630508,51.1615819 C113.423729,51.0847458 114.232768,51.1344633 115.028249,51.1299435 C121.656497,51.1276836 128.284746,51.1322034 134.912994,51.1276836 C134.917514,53.0101695 134.915254,54.8926554 134.915254,56.7751412 C133.80339,56.779661 132.691525,56.779661 131.581921,56.7774011 C131.581921,56.0451977 131.581921,55.3107345 131.581921,54.5785311 C127.627119,54.5762712 123.672316,54.5762712 119.715254,54.5785311 C119.722034,58.099435 119.715254,61.620339 119.719774,65.1389831 C122.750282,65.1389831 125.780791,65.1412429 128.813559,65.1389831 C128.813559,66.119774 128.813559,67.0983051 128.811299,68.079096 C125.780791,68.079096 122.750282,68.079096 119.719774,68.0768362 C119.712994,71.8259887 119.722034,75.5728814 119.717514,79.3220339 C123.672316,79.3220339 127.627119,79.3220339 131.581921,79.3220339 C131.581921,78.4180791 131.581921,77.5163842 131.579661,76.6124294 C132.691525,76.6101695 133.80339,76.6079096 134.915254,76.6101695 C134.915254,78.6079096 134.919774,80.6033898 134.910734,82.6011299 C127.475706,82.5988701 120.038418,82.5988701 112.60113,82.6011299 C112.59887,81.5073446 112.59661,80.4158192 112.59661,79.3242938 C113.482486,79.3220339 114.368362,79.3220339 115.254237,79.3220339 C115.254237,71.0734463 115.258757,62.8248588 115.251977,54.5762712 C114.366102,54.580791 113.480226,54.5740113 112.59435,54.5694915 C112.623729,53.4350282 112.540113,52.2915254 112.630508,51.1615819 Z" id="Shape" fill="#C1C5E0" fill-rule="nonzero"></path>
                <path d="M144.635028,51.1276836 C148.058757,51.1276836 151.484746,51.1344633 154.908475,51.1254237 C154.915254,52.2757062 154.922034,53.4282486 154.912994,54.580791 C153.875706,54.5581921 152.838418,54.5875706 151.79887,54.5920904 C151.821469,62.8361582 151.80339,71.0779661 151.80791,79.3220339 C155.480226,79.319774 159.154802,79.3265537 162.827119,79.3175141 C162.822599,77.2474576 162.822599,75.1774011 162.827119,73.1073446 C163.936723,73.1050847 165.048588,73.1073446 166.158192,73.1096045 C166.126554,76.2372881 166.214689,79.3875706 166.122034,82.5084746 C165.674576,82.6824859 165.00565,82.5853107 164.519774,82.6079096 C157.891525,82.5875706 151.263277,82.6033898 144.635028,82.6011299 C144.632768,81.5073446 144.630508,80.4158192 144.635028,79.3242938 C145.518644,79.3242938 146.40452,79.3220339 147.290395,79.319774 C147.288136,71.0734463 147.283616,62.8271186 147.292655,54.5830508 C146.40678,54.5762712 145.520904,54.5740113 144.635028,54.5762712 C144.632768,53.4282486 144.630508,52.2779661 144.635028,51.1276836 Z" id="Shape" fill="#C1C5E0" fill-rule="nonzero"></path>
                <path d="M17.3966102,54.0949153 C17.6158192,54.0361582 17.8350282,53.9864407 18.0564972,53.9389831 C19.5141243,58.6937853 21.0124294,63.4372881 22.4723164,68.1920904 C19.2293785,68.1943503 15.9887006,68.1920904 12.7457627,68.1943503 C14.0745763,64.079096 15.4350282,59.9728814 16.7683616,55.8576271 C16.9649718,55.2745763 17.1028249,54.6350282 17.3966102,54.0949153 Z M17.6768362,61.8011299 C17.1615819,63.059887 16.7954802,64.3525424 16.3615819,65.6497175 C17.2384181,65.6587571 18.1152542,65.6587571 18.9920904,65.6474576 C18.5378531,64.3774011 18.2440678,63.0214689 17.6768362,61.8011299 Z" id="Shape" fill="#014693" fill-rule="nonzero"></path>
            </g>
        </g>
    </g>
</svg>