<?xml version="1.0" encoding="UTF-8"?>
<svg width="200px" height="200px" viewBox="0 0 200 200" version="1.1" xmlns="http://www.w3.org/2000/svg" xmlns:xlink="http://www.w3.org/1999/xlink">
    <!-- Generator: Sketch 51.3 (57544) - http://www.bohemiancoding.com/sketch -->
    <title>newman</title>
    <desc>Created with Sketch.</desc>
    <defs></defs>
    <g id="newman" stroke="none" stroke-width="1" fill="none" fill-rule="evenodd">
        <g id="newman_BGL" transform="translate(0.000000, 12.000000)">
            <g id="newman">
                <g id="g10" transform="translate(99.842020, 88.695105) scale(-1, 1) rotate(-180.000000) translate(-99.842020, -88.695105) translate(0.000000, 0.859404)" fill-rule="nonzero">
                    <g id="g12">
                        <path d="M22.5735223,87.2659694 C22.5735223,133.867927 60.3509622,171.646125 106.954437,171.646125 C153.557026,171.646125 191.335224,133.867927 191.335224,87.2659694 C191.335224,40.6619895 153.557026,2.88408208 106.954437,2.88408208 C60.3509622,2.88408208 22.5735223,40.6619895 22.5735223,87.2659694" id="path14" fill="#FFFFFF"></path>
                        <path d="M106.954437,171.191149 C60.6777868,171.191149 23.0282459,133.541861 23.0282459,87.2659694 C23.0282459,40.9883086 60.6777868,3.34024636 106.954437,3.34024636 C153.23096,3.34024636 190.878984,40.9883086 190.878984,87.2659694 C190.878984,133.541861 153.23096,171.191149 106.954437,171.191149 Z M106.954437,2.42891621 C60.1763018,2.42891621 22.1189252,40.4868236 22.1189252,87.2659694 C22.1189252,134.044862 60.1763018,172.101102 106.954437,172.101102 C153.733961,172.101102 191.790201,134.044862 191.790201,87.2659694 C191.790201,40.4868236 153.733961,2.42891621 106.954437,2.42891621 Z" id="path16" fill="#11204B"></path>
                        <path d="M33.9890039,86.6746266 C33.9890039,127.507106 67.0892874,160.607895 107.922651,160.607895 C148.755762,160.607895 181.856552,127.507106 181.856552,86.6746266 C181.856552,45.8412627 148.755762,12.7404736 107.922651,12.7404736 C67.0892874,12.7404736 33.9890039,45.8412627 33.9890039,86.6746266" id="path18" fill="#11204B"></path>
                        <path d="M107.922651,160.152919 C67.4062542,160.152919 34.443601,127.19115 34.443601,86.6746266 C34.443601,46.1586086 67.4062542,13.1970929 107.922651,13.1970929 C148.438543,13.1970929 181.400311,46.1586086 181.400311,86.6746266 C181.400311,127.19115 148.438543,160.152919 107.922651,160.152919 Z M107.922651,12.2857374 C66.9041373,12.2857374 33.5337748,45.6571237 33.5337748,86.6746266 C33.5337748,127.692888 66.9041373,161.062871 107.922651,161.062871 C148.940281,161.062871 182.311528,127.692888 182.311528,86.6746266 C182.311528,45.6571237 148.940281,12.2857374 107.922651,12.2857374 Z" id="path20" fill="#FFFFFF"></path>
                        <path d="M3.62065078,4.47028109 C14.3345336,13.3284041 67.7611357,57.841136 67.7611357,57.841136 C69.9466649,92.5098239 70.4897297,113.12897 70.4897297,113.12897 L86.9722569,123.832919 L84.1400295,59.9269495 L3.62065078,4.47028109" id="path22" fill="#B72530"></path>
                        <path d="M70.9375022,112.877217 C70.8693821,110.467485 70.2512463,90.1180388 68.2158593,57.8129527 L68.2029683,57.6165546 L68.0529525,57.4920681 C67.6026523,57.1169654 29.9481825,25.7454654 11.7357849,10.6121704 L83.6956693,60.1737742 L86.4786076,122.969476 L70.9375022,112.877217 Z M3.87835693,4.09458442 L3.3303759,4.82128266 C13.6414531,13.346224 64.1636635,55.4359544 67.3198087,58.0657173 C69.4688134,92.2116881 70.0290662,112.935479 70.0345006,113.14085 L70.0409461,113.380218 L87.4659062,124.695858 L84.5842633,59.6801249 L3.87835693,4.09458442 Z" id="path24" fill="#FFFFFF"></path>
                        <polyline id="path26" fill="#B72530" points="86.5112143 61.1512149 88.1536787 99.5838206 128.267927 127.53491 128.074562 117.591782 105.344073 101.881451 105.231593 98.6413877 127.818006 114.57491 128.058133 103.964737 105.784516 89.5004085 105.426601 84.2011985 127.644863 100.212825 128.185779 90.1145001 86.5112143 61.1512149 86.5112143 61.1512149"></polyline>
                        <path d="M88.598418,99.3393972 L87.0053691,62.048782 L127.718164,90.3431257 L127.235384,99.3567116 L104.90717,83.2657167 L105.346601,89.758102 L127.598101,104.207644 L127.381987,113.710961 L104.745779,97.7419249 L104.897312,102.125748 L127.623378,117.833678 L127.795257,126.651498 L88.598418,99.3393972 Z M86.0174386,60.2542797 L87.7083074,99.8282439 L128.740597,128.418322 L128.524483,117.349886 L105.790835,101.637027 L105.717786,99.5413561 L128.252761,115.43886 L128.518164,103.721324 L106.222809,89.2422095 L105.946411,85.1368067 L128.054341,101.068307 L128.653393,89.8854954 L128.444863,89.7407876 L86.0174386,60.2542797 Z" id="path28" fill="#FFFFFF"></path>
                        <path d="M137.986726,96.4786074 L139.6575,125.114057 L130.157343,119.261419 L129.972825,128.323535 L165.175351,152.135225 L164.681197,141.680881 L153.611371,133.85908 C153.611371,133.85908 152.048021,107.008275 152.252761,106.693331 C152.975668,105.579523 137.986726,96.4786074 137.986726,96.4786074" id="path30" fill="#B72530"></path>
                        <path d="M151.823061,106.621293 C151.820533,106.58717 151.824325,106.529918 151.857184,106.468749 C151.844546,106.492888 151.833172,106.53194 151.823061,106.621293 Z M140.161766,125.959175 L138.490992,97.3187969 C144.90363,101.245495 151.455288,105.67292 151.823061,106.631151 C151.749759,107.343947 151.82938,111.091056 153.157658,133.885621 L153.169033,134.104262 L164.236331,141.924799 L164.678669,151.250549 L130.432856,128.085937 L130.595889,120.066095 L140.161766,125.959175 Z M137.481197,95.639808 L139.151971,124.268307 L129.72006,118.456743 L129.512793,128.562398 L165.673298,153.021165 L165.124798,141.438227 L154.053709,133.613899 C153.454657,123.338765 152.618006,108.033615 152.691307,106.82856 C152.730486,106.729855 152.750707,106.599049 152.714056,106.439049 C152.332382,104.768402 141.525431,98.0954162 138.221797,96.0896027 L137.481197,95.639808 Z" id="path32" fill="#FFFFFF"></path>
                        <path d="M166.448021,135.546284 L166.656552,152.781039 L198.952286,173.754182 L198.145967,161.830012 L183.668874,152.428432 C183.668874,152.428432 196.03791,151.911529 196.404418,151.833172 C196.772191,151.754815 196.36524,136.289412 196.36524,136.289412 L162.197784,112.834752 L164.496678,126.361577 L177.63791,134.895415 L166.448021,135.546284" id="path34" fill="#B72530"></path>
                        <path d="M164.911212,126.089096 L162.825904,113.818639 L195.916583,136.53333 C196.051812,141.733962 196.188305,149.798416 196.03791,151.409791 C194.594624,151.503314 188.075825,151.788938 183.649916,151.973456 L182.225588,152.032856 L197.708684,162.087832 L198.436646,172.877089 L167.109001,152.532066 L166.908053,135.97472 L179.048337,135.269507 L164.911212,126.089096 Z M161.569664,111.851245 L164.082144,126.635068 L176.22622,134.521324 L165.98799,135.116584 L166.205367,153.028748 L199.467926,174.631275 L198.584513,161.572192 L185.11216,152.822745 C188.906156,152.662239 196.173139,152.347548 196.497941,152.278037 C196.974403,152.176931 197.237278,152.121323 196.820216,136.278038 L196.813897,136.046758 L161.569664,111.851245 Z" id="path36" fill="#FFFFFF"></path>
                        <path d="M0.256219899,0.386551649 L196.486567,134.152287 L195.969663,121.783125 L110.026664,62.4882133 C110.026664,62.4882133 113.966253,59.3468548 133.315636,57.3464757 C48.427171,30.3786406 0.256219899,0.386551649 0.256219899,0.386551649" id="path38" fill="#B72530"></path>
                        <path d="M195.993676,133.266347 L10.0543062,6.51609462 C28.1783247,16.437156 70.2236949,37.6051807 131.130486,57.1268232 C113.700597,59.1187347 109.902304,62.0053065 109.742809,62.1326999 L109.263947,62.5138689 L195.523534,122.029065 L195.993676,133.266347 Z M0.496643274,0 L0,0.763230313 L196.978194,135.038227 L196.414529,121.537817 L196.227483,121.408907 L110.869887,62.5162702 C112.50401,61.6720364 118.15115,59.3714993 133.362398,57.7991771 L133.454657,56.9129844 C49.6001251,30.2734906 0.97798165,0.300652125 0.496643274,0 Z" id="path40" fill="#FFFFFF"></path>
                    </g>
                </g>
            </g>
        </g>
    </g>
</svg>