<?xml version="1.0" encoding="UTF-8"?>
<svg width="200px" height="200px" viewBox="0 0 200 200" version="1.1" xmlns="http://www.w3.org/2000/svg" xmlns:xlink="http://www.w3.org/1999/xlink">
    <!-- Generator: Sketch 51.3 (57544) - http://www.bohemiancoding.com/sketch -->
    <title>nm-highlands</title>
    <desc>Created with Sketch.</desc>
    <defs></defs>
    <g id="nm-highlands" stroke="none" stroke-width="1" fill="none" fill-rule="evenodd">
        <g id="nm-highlands_BGL" transform="translate(15.899582, 0.000000)">
            <g id="nm-highlands">
                <g id="g10" transform="translate(84.258188, 100.420491) scale(-1, 1) rotate(-180.000000) translate(-84.258188, -100.420491) translate(0.176505, 0.339241)" fill-rule="nonzero">
                    <g id="g12" transform="translate(0.317709, 0.000000)">
                        <path d="M67.7376722,144.563451 C77.3850818,144.563804 87.0328445,144.598789 96.6795481,144.5267 C98.1759574,144.515745 98.4979025,144.94545 98.4869591,146.384395 C98.4149451,155.923414 98.4597774,165.463493 98.4265944,175.002865 C98.4163572,177.946483 98.1964319,180.883033 97.774585,183.800148 C96.6573084,191.525291 91.334977,196.431556 83.2333981,197.206155 C82.5312613,197.273297 81.8312425,197.398038 81.1280466,197.412527 C80.3355392,197.429135 80.1742136,197.825623 80.1735076,198.534847 C80.1728016,199.290718 80.5600535,199.424294 81.1686427,199.39249 C81.4033944,199.380122 81.639205,199.390723 81.8743097,199.390723 C99.1689744,199.390723 116.463639,199.390723 133.758304,199.391076 C133.993409,199.391076 134.229925,199.375881 134.463971,199.394257 C135.121275,199.446556 135.438631,199.199193 135.420275,198.492796 C135.404742,197.900538 135.334493,197.486029 134.600233,197.415707 C133.255971,197.287078 131.911003,197.12912 130.582273,196.893418 C123.452884,195.62904 118.924119,190.894162 117.90039,183.664806 C117.445713,180.454389 117.241673,177.22277 117.239908,173.983376 C117.228259,151.665239 117.227906,129.347455 117.240614,107.02967 C117.242732,103.968025 117.431239,100.914507 117.83826,97.8747708 C118.941769,89.6319334 124.037468,84.6549926 132.305668,83.7761477 C133.065698,83.6952247 133.82467,83.5690696 134.586465,83.5450401 C135.340142,83.5217173 135.40333,83.0838851 135.419569,82.4926878 C135.437925,81.8173872 135.179522,81.5014695 134.494683,81.5597764 C134.319237,81.5746182 134.141673,81.5622501 133.965168,81.5622501 C116.494351,81.5622501 99.0231813,81.5597764 81.5520116,81.5763851 C81.0892155,81.5767385 80.3701342,81.2703619 80.2388145,82.0414273 C80.1293814,82.6835106 79.9136923,83.4778988 81.0818023,83.5595285 C82.4264173,83.6542331 83.7713853,83.8411688 85.0987028,84.083231 C92.3364663,85.4023818 96.8468748,90.1821391 97.8162402,97.4902982 C98.2659749,100.88129 98.4495401,104.286416 98.4502461,107.703911 C98.4523642,118.068061 98.4170632,128.432212 98.4904892,138.795656 C98.5010795,140.329306 98.0139258,140.597164 96.605416,140.59363 C77.3695494,140.547338 58.1336828,140.545925 38.8978162,140.596457 C37.4451802,140.599991 37.0381597,140.245202 37.048397,138.767386 C37.1271182,127.520857 37.0822859,116.273621 37.155712,105.026738 C37.1715974,102.621311 37.404584,100.203515 37.7247641,97.8164638 C38.8466298,89.447118 43.9758647,84.563115 52.3672648,83.7517648 C53.011155,83.6899241 53.6529272,83.5623555 54.2968174,83.5545812 C55.1214487,83.54398 55.2217035,83.0877722 55.2224095,82.4071709 C55.2231156,81.6615486 54.8330395,81.519845 54.2223323,81.5601298 C53.9882867,81.5756783 53.75177,81.5626034 53.5166653,81.5626034 C36.2806003,81.5626034 19.0450294,81.5626034 1.80903845,81.5626034 C1.51491054,81.5626034 1.21967771,81.5806256 0.927064208,81.5608366 C0.226008989,81.514191 0.0222010092,81.8583788 0.0358525757,82.519191 C0.0488146784,83.1361846 0.169058595,83.491327 0.890799493,83.5542279 C2.23526976,83.6711952 3.5812509,83.8337479 4.90878022,84.0758101 C12.2469751,85.41475 16.8422824,90.423848 17.6706204,97.8351927 C18.0639088,101.352693 18.2135144,104.87938 18.2173975,108.409248 C18.2415081,129.784933 18.2422141,151.160619 18.2165503,172.536304 C18.2124201,175.947791 18.0785234,179.357511 17.7019323,182.758751 C16.7663147,191.209019 11.5366837,196.395865 3.03216154,197.210043 C2.27125912,197.282838 1.51270423,197.38355 0.750696894,197.437616 C-0.0557095633,197.494863 0.0817715838,198.072632 0.046608366,198.594214 C0.00262000474,199.245839 0.358250056,199.406271 0.90872534,199.390723 C1.20244023,199.382242 1.49684349,199.390723 1.79097493,199.390723 C19.0268141,199.390723 36.2625967,199.390723 53.4983088,199.390723 C53.7337665,199.390723 53.9695771,199.379768 54.2043288,199.392843 C54.7973855,199.425354 55.2192324,199.327822 55.2209975,198.564531 C55.2227625,197.881103 55.1052102,197.469067 54.3007005,197.398745 C52.9564385,197.281424 51.6111175,197.114985 50.283447,196.871862 C43.3323275,195.599357 38.8296853,190.895929 37.7858348,183.859515 C37.2835016,180.474178 37.0988774,177.065164 37.0921702,173.64873 C37.0741667,164.46238 37.1094677,155.275676 37.0533391,146.090033 C37.0459259,144.839791 37.3897576,144.52882 38.6192913,144.535181 C48.3253006,144.58642 58.0316629,144.563451 67.7376722,144.563451" id="path14" fill="#482F82"></path>
                        <path d="M57.5526284,67.5975563 C57.5526284,76.6361953 57.5632187,87.707097 57.5452152,98.7776452 C57.540626,101.489802 57.2977552,104.196305 56.7121116,106.843088 C55.132745,113.983747 49.5746029,118.217893 41.2149737,118.785767 C40.5650823,118.829939 39.56324,118.393874 39.5028753,119.686168 C39.4689864,120.415535 39.5364113,120.998958 40.4994225,120.862202 C40.6720444,120.837465 40.8517264,120.858314 41.0282314,120.858314 C58.3818488,120.858314 75.7358192,120.862202 93.0894366,120.839586 C93.5945939,120.839232 94.3849832,121.255862 94.5805508,120.421189 C94.7701171,119.611959 94.8290698,118.758557 93.5013993,118.770572 C91.6110308,118.787534 89.7513743,118.424971 87.937962,117.926711 C81.5220057,116.165134 77.5933577,110.958146 76.9688831,103.516058 C76.7030666,100.345926 76.5576264,97.1733204 76.5625686,93.9918806 C76.5925744,74.3827197 76.576689,54.7732054 76.6705896,35.1644685 C76.6921232,30.6987914 76.9766493,26.2204635 78.3544472,21.9050063 C81.8983144,10.8076369 90.5114048,4.05000148 102.104252,3.1351052 C111.559272,2.38804461 120.609741,3.82638545 129.236952,7.81497027 C139.120525,12.3840097 144.650074,19.8463112 144.665606,31.0019523 C144.669842,34.1813425 144.78916,37.3606267 144.787042,40.5399462 C144.772568,60.2077675 144.749269,79.8759421 144.692435,99.5437633 C144.687493,101.244206 144.518048,102.959844 144.254349,104.641912 C142.894555,113.318341 137.84157,117.954628 128.995493,118.718626 C128.527049,118.758911 128.056134,118.804143 127.586983,118.797075 C126.714696,118.784354 126.736229,119.355055 126.708695,119.984063 C126.677277,120.705303 127.003458,120.883404 127.654055,120.868209 C129.006437,120.836052 130.359877,120.858314 131.712964,120.858314 C142.772414,120.858314 153.831863,120.865735 164.891313,120.839586 C165.520023,120.838172 166.492919,121.331131 166.547988,119.961447 C166.602705,118.604839 165.68735,118.833119 164.899079,118.774106 C160.261234,118.426031 155.998638,117.220667 152.736826,113.601395 C149.760952,110.298747 148.952912,106.231748 148.655325,102.014918 C148.444578,99.0221811 148.355266,96.0156622 148.346088,93.0151506 C148.283958,73.0529676 148.277604,53.0907845 148.199942,33.1286722 C148.18794,30.0093205 147.768917,26.9063654 147.139147,23.8447199 C146.061408,18.6065992 143.180846,14.4750033 139.19607,11.0450699 C132.85954,5.59216758 125.384554,2.61746307 117.248733,1.28347048 C104.732059,-0.768178304 92.2743366,-0.533929206 80.0824311,3.26237339 C72.4139953,5.6501565 65.9094335,9.81500503 61.716028,16.9656293 C59.2827303,21.1146113 58.1516863,25.6514582 57.9112865,30.416091 C57.3207008,42.1273091 57.751373,53.8491284 57.5526284,67.5975563" id="path16" fill="#482F82"></path>
                        <path d="M152.561027,13.0703356 C149.672347,13.0363763 147.186803,10.5036632 147.211514,7.6181401 C147.235519,4.72459535 149.757775,2.24931645 152.658811,2.27112679 C155.548904,2.29348839 158.057746,4.84760536 158.009383,7.7180747 C157.959962,10.6355076 155.447237,13.103871 152.561027,13.0703356 Z M147.840578,7.92734368 C147.940127,10.6239169 150.097018,12.5529585 152.881913,12.4360619 C155.561612,12.3236885 157.538821,10.127813 157.421269,7.39508948 C157.307952,4.76215916 155.053278,2.7425262 152.352398,2.85461338 C149.699881,2.96407498 147.738558,5.16949512 147.840578,7.92734368 Z" id="path18" fill="#6A4D9A"></path>
                        <path d="M155.154945,8.21569811 C154.735216,7.21769497 154.406916,6.4366644 154.054259,5.59852834 C153.057006,6.12194816 153.39519,7.2816206 152.614685,7.91243124 C152.537023,7.12161216 152.46748,6.41623929 152.397937,5.71086642 C152.251084,5.71086642 152.104585,5.71086642 151.957733,5.71129047 C151.728983,6.9354186 152.000447,8.19375349 152.253556,9.40021285 C152.341455,9.81998762 152.850495,9.54004354 153.001584,9.19797604 C153.299877,8.52133259 153.544866,7.82090698 153.797974,7.16649085 C154.261476,7.13638326 154.15169,7.47028779 154.266771,7.63082629 C154.711211,8.25089431 154.503641,9.63803457 155.450414,9.46371443 C156.159964,9.33338953 155.860964,8.0399998 155.975693,7.26229096 C156.049472,6.7639608 155.98946,6.24520554 155.98946,5.45371505 C154.967496,6.32294815 155.51325,7.28091385 155.154945,8.21569811" id="path22" fill="#5D4291"></path>
                        <path d="M151.132749,9.47502244 C150.556284,8.9793426 149.777544,9.4598273 149.641635,8.71745601 C149.547381,8.20149241 150.022886,8.05349874 150.376601,7.86507892 C151.043084,7.51032523 151.655557,7.06931259 151.169815,6.23460427 C150.626533,5.30201094 149.824141,5.40279364 148.881604,5.8710162 C149.479603,6.34379731 150.40343,5.63881315 150.620178,6.50956577 C150.824924,7.33144655 149.949812,7.31943178 149.524082,7.63471342 C149.043283,7.99084526 148.748166,8.46514589 149.01716,8.98747024 C149.446067,9.82037634 150.198684,9.77828931 151.132749,9.47502244" id="path24" fill="#583E8E"></path>
                    </g>
                </g>
            </g>
        </g>
    </g>
</svg>