<?xml version="1.0" encoding="UTF-8"?>
<svg width="200px" height="200px" viewBox="0 0 200 200" version="1.1" xmlns="http://www.w3.org/2000/svg" xmlns:xlink="http://www.w3.org/1999/xlink">
    <!-- Generator: Sketch 51.3 (57544) - http://www.bohemiancoding.com/sketch -->
    <title>northeastern-st</title>
    <desc>Created with Sketch.</desc>
    <defs>
        <polygon id="path-1" points="0.00093442623 2.68992908 188.782131 2.68992908 188.782131 143.546099 0.00093442623 143.546099"></polygon>
    </defs>
    <g id="northeastern-st" stroke="none" stroke-width="1" fill="none" fill-rule="evenodd">
        <g id="northeastern-st_BGL" transform="translate(4.761905, 0.000000)">
            <g id="northeastern-st" transform="translate(0.000000, 27.619048)">
                <path d="M162.610098,47.058156 C162.610098,47.058156 169.026492,40.1024113 164.03977,30.431773 C156.922557,16.6170213 131.568459,9.14638298 115.356164,7.52056738 C67.0525574,2.66808511 22.7264918,22.2808511 22.7264918,22.2808511 C22.7264918,22.2808511 35.023541,27.5733333 40.3466557,31.4053901 C24.4925574,40.364539 3.68911475,55.8456738 3.68911475,55.8456738 C5.63895082,92.5029787 31.4322295,118.556596 53.1389508,132.833191 C55.9048525,134.652482 53.9612459,122.547801 56.5714098,124.051915 C69.8402623,131.544397 85.0278033,137.979007 85.0278033,137.979007 C88.5817377,95.782695 129.646656,83.5750355 129.646656,83.5750355 C149.724361,88.4087943 167.048623,99.1591489 167.048623,99.1591489 C167.048623,99.1591489 166.883541,90.3279433 161.806492,83.4658156 C164.541246,84.386383 166.827475,86.7548936 166.827475,86.7548936 C166.827475,86.7548936 166.684197,84.0805674 164.55682,81.2907801 C169.176,83.852766 173.408951,92.1597163 172.455836,99.0530496 C172.455836,99.0530496 190.546328,85.9185816 183.659607,66.2683688 C181.236328,59.3656738 170.882885,51.0243972 162.610098,47.058156 M77.1163279,122.329362 C77.1163279,122.329362 67.4855082,119.118298 56.5714098,111.394894 C56.4904262,111.332482 56.3876393,111.329362 56.278623,111.369929 C63.8100984,85.1446809 87.5320656,64.701844 87.5320656,64.701844 C61.0441967,79.3685106 49.6597705,103.325106 45.448623,115.198865 C41.0630492,111.232624 36.6556721,106.735887 32.5628852,101.739858 C50.3855082,69.4295035 73.3443607,54.4039716 91.5500984,48.1035461 C81.6514098,46.6774468 45.5981311,59.7307801 25.1030492,91.4076596 C21.1099344,85.0510638 17.8114098,78.0828369 15.680918,70.5716312 C14.871082,67.7038298 14.2232131,64.7642553 13.7871475,61.7404255 C25.916,47.6042553 54.4004262,32.2073759 54.4004262,32.2073759 C47.551082,25.9256738 40.0850164,22.8924823 40.0850164,22.8924823 C40.0850164,22.8924823 68.6597705,14.4326241 99.7668197,13.9302128 C126.179934,13.4933333 143.180262,20.1931915 150.288131,25.8944681 C150.565344,26.1160284 150.826984,26.3313475 151.085508,26.5497872 C151.141574,26.5997163 151.200754,26.652766 151.259934,26.702695 C151.776984,27.1458156 152.266,27.5889362 152.71141,28.022695 C152.742557,28.0507801 152.773705,28.0819858 152.804852,28.1100709 C152.988623,28.2941844 153.172393,28.4782979 153.34682,28.6592908 C153.384197,28.6967376 153.424689,28.7341844 153.458951,28.7716312 C153.458951,28.7716312 153.455836,28.7685106 153.452721,28.7685106 C162.354689,38.0397163 156.692066,45.204539 155.380754,45.9191489 C152.941902,35.5619858 145.964852,32.0388652 145.964852,32.0388652 C145.964852,32.0388652 148.730754,38.5514894 146.774689,45.1670922 C130.948623,34.6414184 102.16518,31.7143262 88.781082,32.4070922 C88.781082,32.4070922 107.226656,36.2453901 119.486328,41.4910638 C111.372393,40.617305 103.302066,41.0198582 103.302066,41.0198582 C116.197148,43.3353191 120.037639,48.4592908 120.423869,49.0241135 C120.265016,50.2504965 120.349115,51.5361702 120.707311,52.821844 C121.566984,55.8706383 123.822066,58.3265248 126.712557,59.768227 C110.089115,58.772766 96.6800984,66.8331915 93.9889508,71.8541844 C93.9889508,71.8541844 107.709443,74.612766 120.380262,79.0377305 C120.380262,79.0377305 87.3950164,87.2604255 77.1163279,122.329362 M128.481738,51.249078 C128.930262,53.1807092 131.035836,54.4913475 133.20059,54.1761702 C134.387311,54.004539 135.343541,53.3679433 135.891738,52.5129078 C136.916492,53.3960284 137.869607,54.2417021 138.726164,55.0312057 C137.607967,56.1702128 136.05682,56.9846809 134.225344,57.2499291 C129.883377,57.8834043 125.641082,55.2465248 124.750262,51.364539 C124.220754,49.0646809 124.993213,46.849078 126.600426,45.2887943 C127.780918,46.1126241 128.914689,46.942695 129.992393,47.7571631 C128.799443,48.5123404 128.160918,49.8510638 128.481738,51.249078 M174.86977,88.3807092 C174.991246,86.6019858 172.060262,79.3217021 165.148623,75.9046809 C158.134197,72.4346099 134.891902,71.3361702 134.891902,71.3361702 C151.979443,76.4414184 160.535672,89.8348936 160.535672,89.8348936 C135.910426,74.4036879 112.001574,70.3625532 112.001574,70.3625532 C116.714197,65.0669504 125.641082,64.1526241 136.872885,64.6363121 C143.077475,64.9015603 150.746,66.2714894 150.746,66.2714894 C148.690262,64.3180142 147.185836,63.0479433 147.185836,63.0479433 C149.04223,61.8777305 153.876328,56.8910638 153.430918,49.835461 C159.202557,53.701844 174.645508,61.1100709 178.031246,69.6385816 C182.737639,81.4873759 174.86977,88.3807092 174.86977,88.3807092" id="Fill-1" fill="#000000"></path>
                <path d="M154.004967,61.649305 C157.873492,62.023773 162.255951,62.5449078 166.06841,63.2563972 C162.748082,61.0376738 159.237754,59.1372482 156.359721,57.7111489 C155.758574,59.3182411 154.898902,60.6226383 154.004967,61.649305" id="Fill-3" fill="#000000"></path>
                <polygon id="Fill-5" fill="#000000" points="2.45878689 50.4926525 2.45878689 51.1510922 3.23747541 50.6174752 3.23747541 53.8379007 3.9912459 53.3230071 3.9912459 50.1057021 4.76993443 49.5752057 4.76993443 48.916766"></polygon>
                <polygon id="Fill-7" fill="#000000" points="5.91118033 49.6117163 5.92052459 49.6054752 6.76462295 51.4871773 7.0262623 51.3061844 7.9077377 48.2511489 7.91708197 48.2480284 8.22232787 50.4449078 8.98232787 49.9268936 8.40298361 46.3413617 7.86101639 46.7095887 6.94839344 49.8863262 5.98904918 47.9859007 5.45642623 48.3478865 4.80855738 52.7697305 5.56855738 52.2517163"></polygon>
                <path d="M126.711311,59.7688511 C123.817705,58.3271489 121.568852,55.8712624 120.702951,52.8193475 C120.347869,51.5336738 120.266885,50.2511206 120.422623,49.0247376 C120.036393,48.4599149 116.195902,43.3328227 103.30082,41.0204823 C103.30082,41.0204823 111.371148,40.6116879 119.488197,41.4916879 C107.22541,36.2491348 88.7767213,32.4045957 88.7767213,32.4045957 C102.163934,31.7149504 130.947377,34.6358014 146.773443,45.1645957 C148.729508,38.5521135 145.969836,32.0363688 145.969836,32.0363688 C145.969836,32.0363688 152.940656,35.5626099 155.379508,45.919773 C156.69082,45.2051631 162.353443,38.0403404 153.451475,28.7660142 C104.325574,6.8128227 56.62,25.7796312 56.62,25.7796312 C63.7278689,29.3058723 67.7459016,35.0914043 67.7459016,35.0914043 C52.0101639,38.9328227 26.9270492,60.439773 15.6827869,70.5722553 C17.8132787,78.083461 21.1118033,85.0516879 25.104918,91.4082837 C45.5968852,59.7282837 81.6470492,46.6780709 91.5488525,48.1041702 C73.3431148,54.4014752 50.3842623,69.4301277 32.5616393,101.737362 C36.6544262,106.736511 41.0618033,111.233248 45.447377,115.199489 C49.6616393,103.32261 61.0460656,79.3691348 87.5339344,64.7024681 C87.5339344,64.7024681 63.8119672,85.145305 56.2804918,111.370553 C56.3895082,111.326865 56.4891803,111.329986 56.5701639,111.398638 C67.4842623,119.118922 77.115082,122.333106 77.115082,122.333106 C87.3937705,87.2579291 120.382131,79.035234 120.382131,79.035234 C107.708197,74.6133901 93.9877049,71.8548085 93.9877049,71.8548085 C96.6788525,66.8338156 110.087869,58.7733901 126.711311,59.7688511" id="Fill-9" fill="#008265"></path>
                <g id="Group-13" transform="translate(0.000000, 0.431887)">
                    <mask id="mask-2" fill="white">
                        <use xlink:href="#path-1"></use>
                    </mask>
                    <g id="Clip-12"></g>
                    <path d="M187.017,64.5938723 C184.494049,57.4009645 175.539131,49.7742979 167.674377,45.2182695 C167.992082,44.5535887 168.297328,43.8171348 168.574541,42.9995461 C169.811098,39.2829504 170.200443,34.1090496 167.204049,28.2954326 C159.118148,12.6145816 131.801754,5.09089362 115.714049,3.47756028 C91.0171639,0.99670922 67.4229016,4.77571631 50.064377,9.1289078 C32.5999508,13.513305 13.8273279,21.8327376 13.8273279,21.8327376 L21.3276557,25.0594043 C21.4304426,25.1030922 28.0088033,27.9428085 33.4129016,30.8574184 C25.0155246,35.953305 16.9514262,41.7045106 10.2609344,46.4571348 L9.8965082,42.877844 L0.00093442623,48.7663546 L0.141098361,55.5411064 C1.97880328,90.0764255 24.0997869,115.774298 44.4110984,130.74366 C49.6501148,134.610043 53.6027377,136.838128 58.9258525,139.265929 L58.9258525,130.256851 C70.4753607,137.115858 88.6655246,143.547348 88.6655246,143.547348 C88.6655246,106.680965 123.61618,88.7782695 129.76159,86.7686241 C139.115197,89.1184113 147.848967,92.7663546 154.34323,95.8900426 C158.878311,98.0744397 170.007328,104.686922 170.007328,104.686922 C170.007328,104.686922 176.554541,99.8219574 177.650934,98.757844 C179.382738,97.0789787 181.625361,94.6106099 183.640607,91.4494752 C187.692902,85.096 190.929131,75.7530213 187.017,64.5938723 Z M5.46109836,47.9144397 L5.99372131,47.5524539 L6.94372131,49.4528794 L7.85634426,46.2792624 L8.40142623,45.9110355 L8.98388525,49.4903262 L8.22388525,50.0083404 L7.91552459,47.8145816 L7.90618033,47.8208227 L7.02781967,50.8758582 L6.76929508,51.0506099 L5.91896721,49.1751489 L5.9065082,49.1813901 L5.567,51.8182695 L4.807,52.3362837 L5.46109836,47.9144397 Z M2.46159016,50.7198298 L2.46159016,50.0645106 L4.7727377,48.4855035 L4.7727377,49.1439433 L3.99093443,49.6744397 L3.99093443,52.8917447 L3.24027869,53.4066383 L3.24027869,50.1893333 L2.46159016,50.7198298 Z M172.455525,98.620539 C173.408639,91.7272057 169.175689,83.4171348 164.559623,80.8582695 C166.683885,83.6480567 166.830279,86.3255035 166.830279,86.3255035 C166.830279,86.3255035 164.540934,83.9507518 161.80618,83.0301844 C166.886344,89.8954326 167.048311,98.7266383 167.048311,98.7266383 C167.048311,98.7266383 149.724049,87.9731631 129.649459,83.1425248 C129.649459,83.1425248 88.5814262,95.3501844 85.0274918,137.546496 C85.0274918,137.546496 69.8399508,131.115007 56.5742131,123.619404 C53.9609344,122.118411 55.904541,134.223092 53.1417541,132.403801 C31.431918,118.124085 5.63863934,92.0735887 3.68880328,55.4162837 C3.68880328,55.4162837 24.4922459,39.9351489 40.349459,30.9791206 C35.0263443,27.1408227 22.7230656,21.851461 22.7230656,21.851461 C22.7230656,21.851461 67.0522459,2.23869504 115.355852,7.08493617 C131.568148,8.71387234 156.922246,16.1845106 164.042574,29.9992624 C169.02618,39.6730213 162.612902,46.6225248 162.612902,46.6225248 C170.882574,50.5950071 181.239131,58.9362837 183.65618,65.8358582 C190.546016,85.4891915 172.455525,98.620539 172.455525,98.620539 Z" id="Fill-11" fill="#B5B7B9" mask="url(#mask-2)"></path>
                </g>
                <path d="M153.426869,49.8342128 C153.878508,56.8960567 149.03818,61.8764823 147.184902,63.046695 C147.184902,63.046695 148.689328,64.3230071 150.74818,66.2764823 C150.74818,66.2764823 143.073426,64.9003121 136.87818,64.6319433 C125.637033,64.1513759 116.713262,65.0688227 112.003754,70.361305 C112.003754,70.361305 135.909492,74.4024397 160.537852,89.8336454 C160.537852,89.8336454 151.978508,76.4401702 134.887852,71.3411631 C134.887852,71.3411631 158.136377,72.4333617 165.153918,75.9034326 C172.062443,79.3204539 174.987197,86.597617 174.865721,88.3825816 C174.865721,88.3825816 182.736705,81.4892482 178.033426,69.6404539 C174.647689,61.1088227 159.201623,53.6974752 153.426869,49.8342128 M154.006213,61.6486809 C154.903262,60.6220142 155.75982,59.317617 156.357852,57.7105248 C159.235885,59.1366241 162.746213,61.0370496 166.07277,63.255773 C162.254082,62.5442837 157.877852,62.0231489 154.006213,61.6486809" id="Fill-14" fill="#B5B7B9"></path>
                <path d="M129.993328,47.7559149 C128.909393,46.9383262 127.781852,46.117617 126.601361,45.2875461 C124.991033,46.8478298 124.218574,49.0603121 124.744967,51.3632908 C125.642016,55.2452766 129.884311,57.882156 134.220049,57.2486809 C136.051525,56.9834326 137.605787,56.1689645 138.727098,55.0299574 C137.864311,54.2404539 136.920541,53.3979007 135.892672,52.5116596 C135.34759,53.3698156 134.391361,54.0032908 133.195295,54.1780426 C131.039885,54.4900993 128.924967,53.179461 128.482672,51.2447092 C128.161852,49.8498156 128.797262,48.5110922 129.993328,47.7559149" id="Fill-16" fill="#FFFFFF"></path>
                <path d="M56.6171967,25.784 C56.6171967,25.784 104.32277,6.81407092 153.451787,28.7672624 C153.454902,28.770383 153.458016,28.770383 153.461131,28.770383 C153.420639,28.7329362 153.383262,28.6986099 153.352115,28.6611631 C153.171459,28.4770496 152.990803,28.2960567 152.803918,28.1088227 C152.769656,28.0807376 152.741623,28.055773 152.716705,28.0245674 C152.261951,27.5876879 151.782279,27.1476879 151.262115,26.7045674 C151.19982,26.6483972 151.143754,26.6015887 151.081459,26.548539 C150.822934,26.3332199 150.561295,26.1116596 150.287197,25.8932199 C143.176213,20.1950638 126.179,13.4952057 99.769,13.925844 C68.6588361,14.4313759 40.084082,22.891234 40.084082,22.891234 C40.084082,22.891234 47.5501475,25.9244255 54.396377,32.2123688 C54.396377,32.2123688 25.9181803,47.6030071 13.7830984,61.7391773 C14.2285082,64.7630071 14.8732623,67.7088227 15.6830984,70.5735035 C26.9304754,60.4347801 52.0104754,38.9340709 67.7493279,35.0864113 C67.7493279,35.0864113 63.7281803,29.3071206 56.6171967,25.784" id="Fill-18" fill="#FFFFFF"></path>
            </g>
        </g>
    </g>
</svg>