<?xml version="1.0" encoding="UTF-8"?>
<svg width="200px" height="200px" viewBox="0 0 200 200" version="1.1" xmlns="http://www.w3.org/2000/svg" xmlns:xlink="http://www.w3.org/1999/xlink">
    <!-- Generator: Sketch 51.3 (57544) - http://www.bohemiancoding.com/sketch -->
    <title>northland</title>
    <desc>Created with Sketch.</desc>
    <defs>
        <polygon id="path-1" points="0.000136986301 0.579157303 199.726027 0.579157303 199.726027 182.314538 0.000136986301 182.314538"></polygon>
    </defs>
    <g id="northland" stroke="none" stroke-width="1" fill="none" fill-rule="evenodd">
        <g id="northland_BGL">
            <g id="northland" transform="translate(0.000000, 9.000000)">
                <path d="M109.124863,92.2579079 L102.904315,77.6898742 L101.844726,75.2080652 L100.785137,72.7262562 L87.6913014,42.0597056 L87.1385616,40.7656831 L86.5933562,39.4887955 L71.2180137,3.47960449 L22.8262329,3.47960449 L17.2810274,28.7007056 L32.4036301,28.7007056 C35.3604795,28.7007056 36.8392466,29.978964 36.8392466,32.5341101 C36.8392466,32.9378067 36.8043151,33.3415034 36.7385616,33.7452 L25.3467808,114.452312 C24.8762329,117.816908 22.9604795,119.496807 19.6002055,119.496807 L4.47760274,119.496807 L2.96527397,144.717908 L57.5577397,144.717908 L58.9680137,144.717908 L60.3782877,144.717908 L69.5043151,144.717908 L75.0488356,119.496807 L63.9378767,119.496807 L62.5276027,119.496807 L61.1180137,119.496807 L59.9262329,119.496807 C56.9673288,119.496807 55.4906164,118.220604 55.4906164,115.662717 C55.4906164,115.260391 55.5241781,114.856009 55.5913014,114.452312 L63.8584247,55.9396045 L68.5563699,66.9422225 L69.6008904,69.3890764 L70.6604795,71.8708854 L93.3913014,125.106065 L94.4508904,127.58856 L95.5111644,130.070369 L101.765274,144.717908 L132.010479,144.717908 L143.037877,66.4035034 L112.777603,66.4035034 L109.124863,92.2579079 Z" id="Fill-1" fill="#E76025"></path>
                <path d="M103.479178,3.47974157 L97.9339726,28.7008427 L113.056575,28.7008427 C116.01411,28.7008427 117.492877,29.9784157 117.492877,32.5342472 C117.492877,32.9379438 117.45726,33.3416404 117.391507,33.7453371 L117.130548,35.5938427 L147.376438,35.5938427 L147.636712,33.7453371 C148.10589,30.3821124 150.020959,28.7008427 153.383288,28.7008427 L168.50589,28.7008427 L170.018219,3.47974157 L103.479178,3.47974157 Z" id="Fill-3" fill="#E76025"></path>
                <path d="M150.457534,149.361036 C149.986986,152.724946 148.071233,154.404845 144.710959,154.404845 L94.3027397,154.404845 C91.3438356,154.404845 89.8671233,153.129328 89.8671233,150.57144 C89.8671233,150.168429 89.9006849,149.764733 89.9678082,149.361036 L92.6369863,130.451036 L69.9061644,77.2165416 L64.3328767,116.702733 L75.0486301,116.702733 L78.5226027,116.702733 L77.7760274,120.097485 L72.2315068,145.318587 L71.7493151,147.51253 L69.5041096,147.51253 L59.9835616,147.51253 L59.7226027,149.361036 C59.3849315,151.849699 59.2184932,154.169755 59.2184932,156.321204 C59.2184932,171.857699 68.0554795,179.625946 85.7335616,179.625946 L146.223288,179.625946 C166.386301,179.625946 177.879452,169.536957 180.70274,149.361036 L182.819863,134.228238 L152.574658,134.228238 L150.457534,149.361036 Z" id="Fill-5" fill="#223252"></path>
                <path d="M176.531096,34.8505337 L175.359178,43.8360393 C170.923562,40.2041404 164.470822,38.3878483 156.002329,38.3878483 L149.803014,38.3878483 L148.39274,38.3878483 L146.983151,38.3878483 L116.73589,38.3878483 L115.325616,38.3878483 L113.915342,38.3878483 L105.59411,38.3878483 C99.7489041,38.3878483 94.6372603,39.2418483 90.2489041,40.9375112 L101.595479,67.5115787 C102.314658,64.9111966 104.150274,63.6089494 107.106438,63.6089494 L110.352329,63.6089494 L111.762603,63.6089494 L113.172877,63.6089494 L143.431781,63.6089494 L144.84137,63.6089494 L146.251644,63.6089494 L157.514658,63.6089494 C160.472192,63.6089494 161.950959,64.8872079 161.950959,67.4423539 C161.950959,67.8460506 161.915342,68.2497472 161.849589,68.6534438 L159.732466,83.7862416 L189.977671,83.7862416 L196.533836,34.8066685 L176.531096,34.8505337 Z" id="Fill-7" fill="#223252"></path>
                <g id="Group-11" transform="translate(0.000000, 0.106236)">
                    <mask id="mask-2" fill="white">
                        <use xlink:href="#path-1"></use>
                    </mask>
                    <g id="Clip-10"></g>
                    <path d="M196.527534,31.905673 L176.524795,31.9495382 L174.078904,31.9550213 L173.761781,34.3826843 L173.161781,38.9837292 C168.637123,36.6616169 162.888493,35.4875382 156.002192,35.4875382 L150.196712,35.4875382 L150.402192,34.028336 C150.677534,32.0544034 151.429589,31.3888865 153.383699,31.3888865 L168.505616,31.3888865 L171.135753,31.3888865 L171.293288,28.7617742 L172.805616,3.54067303 L172.983014,0.579088764 L170.017945,0.579088764 L103.479589,0.579088764 L101.234384,0.579088764 L100.752192,2.77303258 L95.2069863,27.9941337 L94.460411,31.3888865 L97.9343836,31.3888865 L113.056986,31.3888865 C114.700137,31.3888865 114.700137,31.6719539 114.700137,32.4279427 C114.700137,32.6698865 114.678219,32.9262236 114.635753,33.1907854 L114.630959,33.2188865 L114.626849,33.247673 L114.310411,35.4875382 L105.593973,35.4875382 C99.3864384,35.4875382 93.8939726,36.4231 89.1542466,38.2681787 L73.7857534,2.27543708 L73.0617808,0.579088764 L71.2179452,0.579088764 L22.8261644,0.579088764 L20.5809589,0.579088764 L20.0987671,2.77303258 L14.5535616,27.9941337 L13.8076712,31.3888865 L17.2809589,31.3888865 L32.4035616,31.3888865 C34.0467123,31.3888865 34.0467123,31.6719539 34.0467123,32.4279427 C34.0467123,32.6698865 34.0254795,32.9262236 33.9823288,33.1901 L33.9775342,33.2188865 L33.9734247,33.247673 L22.5816438,113.955471 C22.3049315,115.930774 21.5528767,116.596291 19.600137,116.596291 L4.47753425,116.596291 L1.84739726,116.596291 L1.68986301,119.223403 L0.177534247,144.444504 L0.000136986301,147.406089 L2.96520548,147.406089 L57.1631507,147.406089 L56.9576712,148.86392 C56.6042466,151.467044 56.4261644,153.93583 56.4261644,156.216134 C56.4261644,164.786976 58.9754795,171.373606 64.0035616,175.793021 C68.9268493,180.12128 76.2378082,182.314538 85.7336986,182.314538 L146.223425,182.314538 C156.955616,182.314538 165.563151,179.535269 171.806986,174.054179 C178.044658,168.579257 181.967945,160.365504 183.467945,149.641842 L185.585068,134.509044 L186.030274,131.327448 L182.819315,131.327448 L152.574795,131.327448 L150.146027,131.327448 L149.809041,133.734549 L147.691918,148.867347 C147.416575,150.838538 146.663836,151.50474 144.711096,151.50474 L94.3028767,151.50474 C92.659726,151.50474 92.659726,151.220988 92.659726,150.464999 C92.659726,150.216887 92.6809589,149.964662 92.7220548,149.713808 L92.7282192,149.679538 L92.7330137,149.645269 L94.7563014,135.308898 L99.1973973,145.70974 L99.9220548,147.406089 L101.765205,147.406089 L132.010411,147.406089 L134.437123,147.406089 L134.775479,145.001729 L145.858356,66.297336 L157.514521,66.297336 C159.158356,66.297336 159.158356,66.5804034 159.158356,67.3363921 C159.158356,67.578336 159.136438,67.834673 159.093288,68.0992348 L159.088493,68.1293921 L159.084384,68.1595494 L156.96726,83.2923472 L156.522055,86.4739427 L159.732329,86.4739427 L189.977534,86.4739427 L192.42137,86.4739427 L192.745342,84.0503921 L199.301507,35.0708191 L199.726164,31.8988191 L196.527534,31.905673 Z M159.732329,83.6795944 L161.850137,68.5467966 C161.915205,68.1437854 161.950822,67.7400888 161.950822,67.3363921 C161.950822,64.7805607 160.472055,63.5029876 157.514521,63.5029876 L146.251507,63.5029876 L144.841918,63.5029876 L143.431644,63.5029876 L113.17274,63.5029876 L111.762466,63.5029876 L110.352192,63.5029876 L107.106301,63.5029876 C104.150137,63.5029876 102.314521,64.8052348 101.595342,67.4049315 L90.2487671,40.8315494 C94.6371233,39.1358865 99.7487671,38.2818865 105.593973,38.2818865 L113.91589,38.2818865 L115.325479,38.2818865 L116.735753,38.2818865 L146.983014,38.2818865 L148.393288,38.2818865 L149.802877,38.2818865 L156.002192,38.2818865 C164.470685,38.2818865 170.923425,40.0974933 175.359041,43.7293921 L176.530959,34.7445719 L196.533699,34.7000213 L189.977534,83.6795944 L159.732329,83.6795944 Z M101.765205,144.61174 L95.5110959,129.964201 L94.4515068,127.482392 L93.3912329,124.999898 L70.6610959,71.764718 L69.6008219,69.282909 L68.5563014,66.8360551 L63.8583562,55.8334371 L55.5912329,114.346145 C55.5241096,114.750527 55.4905479,115.153538 55.4905479,115.556549 C55.4905479,118.114437 56.9672603,119.390639 59.9268493,119.390639 L61.1179452,119.390639 L62.5282192,119.390639 L63.9384932,119.390639 L75.0487671,119.390639 L69.5042466,144.61174 L60.3782192,144.61174 L58.9679452,144.61174 L57.5576712,144.61174 L2.96520548,144.61174 L4.47753425,119.390639 L19.600137,119.390639 C22.960411,119.390639 24.8761644,117.71074 25.3467123,114.346145 L36.7384932,33.6390326 C36.8042466,33.235336 36.839863,32.8316393 36.839863,32.4279427 C36.839863,29.8721112 35.3610959,28.5945382 32.4035616,28.5945382 L17.2809589,28.5945382 L22.8261644,3.37343708 L71.2179452,3.37343708 L86.5932877,39.3826281 L87.1384932,40.6595157 L87.6912329,41.9535382 L100.785068,72.6194034 L101.845342,75.1018978 L102.904932,77.5837067 L109.124795,92.1517404 L112.777534,66.297336 L143.037808,66.297336 L132.010411,144.61174 L101.765205,144.61174 Z M89.9679452,149.254594 C89.9008219,149.658291 89.8665753,150.061302 89.8665753,150.464999 C89.8665753,153.022201 91.3439726,154.298403 94.3028767,154.298403 L144.711096,154.298403 C148.07137,154.298403 149.987123,152.619875 150.457671,149.254594 L152.574795,134.121797 L182.819315,134.121797 L180.702192,149.254594 C177.879589,169.431201 166.386438,179.52019 146.223425,179.52019 L85.7336986,179.52019 C68.0556164,179.52019 59.2186301,171.752628 59.2186301,156.216134 C59.2186301,154.063313 59.3850685,151.743257 59.7227397,149.254594 L59.9836986,147.406089 L69.5042466,147.406089 L71.7487671,147.406089 L72.2316438,145.212145 L77.7761644,119.991044 L78.5227397,116.596291 L75.0487671,116.596291 L64.3330137,116.596291 L69.9063014,77.1101 L92.6371233,130.34528 L89.9679452,149.254594 Z M61.5124658,116.596291 L59.9268493,116.596291 C58.2830137,116.596291 58.2830137,116.313224 58.2830137,115.556549 C58.2830137,115.309122 58.3042466,115.056212 58.3460274,114.806044 L58.3515068,114.771774 L58.3563014,114.737504 L65.2227397,66.1403809 L67.7871233,72.1457966 L61.5124658,116.596291 Z M103.659041,72.2390101 L104.124795,68.9381562 C104.400822,66.9621674 105.152877,66.297336 107.106301,66.297336 L109.957671,66.297336 L107.761096,81.8447966 L103.659041,72.2390101 Z M113.056986,28.5945382 L97.9343836,28.5945382 L103.479589,3.37343708 L170.017945,3.37343708 L168.505616,28.5945382 L153.383699,28.5945382 C150.02137,28.5945382 148.105616,30.2758079 147.637123,33.6390326 L147.376849,35.4875382 L117.130959,35.4875382 L117.391918,33.6390326 C117.457671,33.235336 117.492603,32.8316393 117.492603,32.4279427 C117.492603,29.8721112 116.013836,28.5945382 113.056986,28.5945382 Z" id="Fill-9" fill="#FEFEFE" mask="url(#mask-2)"></path>
                </g>
            </g>
        </g>
    </g>
</svg>