<?xml version="1.0" encoding="UTF-8"?>
<svg width="200px" height="200px" viewBox="0 0 200 200" version="1.1" xmlns="http://www.w3.org/2000/svg" xmlns:xlink="http://www.w3.org/1999/xlink">
    <!-- Generator: Sketch 51.3 (57544) - http://www.bohemiancoding.com/sketch -->
    <title>northwestern-okla</title>
    <desc>Created with Sketch.</desc>
    <defs></defs>
    <g id="northwestern-okla" stroke="none" stroke-width="1" fill="none" fill-rule="evenodd">
        <g id="northwestern-okla_BGL" transform="translate(5.000000, 0.000000)">
            <g id="northwestern-okla" transform="translate(0.869822, 0.000000)">
                <g fill-rule="nonzero" id="Shape">
                    <path d="M187.663905,125.292308 C187.095858,124.610651 186.319527,124.156213 185.713609,123.493491 C183.933728,121.581065 182.892308,118.968047 182.608284,116.411834 C182.532544,114.688757 182.381065,113.11716 183.214201,111.545562 C182.740828,111.583432 182.286391,111.583432 181.831953,111.753846 C181.226036,111.92426 180.733728,112.340828 180.127811,112.511243 C180.033136,110.390533 180.298225,108.307692 180.866272,106.262722 C181.055621,105.543195 181.39645,104.880473 181.737278,104.217751 C180.828402,104.274556 180.184615,104.804734 179.370414,105.088757 C179.484024,104.236686 179.786982,103.40355 179.938462,102.551479 C180.127811,101.131361 180.24142,99.7112426 180.071006,98.2911243 C179.957396,96.6059172 179.408284,94.9017751 178.783432,93.3491124 C177.950296,91.2852071 176.681657,89.4863905 175.791716,87.460355 C175.280473,86.2295858 174.750296,85.0745562 174.617751,83.7301775 C174.466272,82.9727811 174.655621,82.1585799 174.788166,81.4011834 C173.557396,81.4390533 172.364497,82.2911243 171.83432,83.3893491 C171.569231,83.9005917 171.531361,84.4686391 171.209467,84.9420118 C170.338462,83.9384615 169.732544,82.8023669 169.088757,81.6473373 C168.369231,80.3029586 167.782249,78.9207101 167.460355,77.443787 C167.289941,76.7053254 167.308876,75.947929 167.157396,75.2094675 C165.983432,75.8721893 165.074556,76.9704142 164.544379,78.2011834 C164.430769,78.4094675 164.31716,78.6177515 164.20355,78.8449704 C163.427219,78.0307692 162.631953,77.235503 161.742012,76.5159763 C159.204734,73.8272189 155.947929,71.5550296 152.975148,69.3775148 C151.876923,68.6011834 150.721893,67.9763314 149.604734,67.2568047 C148.695858,66.6887574 147.749112,66.2721893 146.821302,65.7609467 C147.995266,66.0071006 149.017751,66.6508876 150.097041,67.1621302 C150.816568,67.5029586 151.55503,67.8248521 152.255621,68.2224852 C153.997633,69.2449704 155.815385,70.1727811 157.671006,70.9680473 C159.96213,71.9337278 162.291124,72.4449704 164.714793,72.956213 C166.797633,73.2023669 168.937278,73.1266272 170.982249,72.6532544 C170.944379,71.4792899 170.56568,70.3053254 170.300592,69.1692308 C172.042604,69.1881657 173.746746,69.8319527 175.526627,69.8130178 C175.583432,70.2106509 175.640237,70.5704142 175.469822,70.9680473 C175.091124,71.4224852 174.390533,71.7065089 174.390533,72.3692308 C174.409467,72.8426036 174.542012,73.4485207 174.92071,73.7704142 C175.545562,74.2059172 176.454438,74.1301775 177.022485,73.6378698 C177.382249,73.2781065 177.457988,72.6911243 177.382249,72.2177515 C177.306509,71.8579882 177.060355,71.5360947 176.927811,71.1952663 C176.889941,70.7786982 176.946746,70.3621302 176.946746,69.9455621 C178.442604,69.9455621 179.938462,70.0213018 181.415385,69.9455621 C182.191716,69.8887574 182.986982,69.8319527 183.763314,69.8130178 C184.407101,68.2982249 184.59645,66.556213 184.691124,64.9278107 C183.592899,64.9278107 182.513609,64.9656805 181.415385,64.8899408 C182.32426,63.7538462 184.066272,63.1668639 185.278107,62.4284024 C185.486391,62.1065089 185.56213,61.6899408 185.656805,61.3301775 C185.902959,60.1372781 186.035503,58.9443787 186.111243,57.7136095 C186.281657,55.7443787 186.584615,53.7940828 186.508876,51.7680473 C186.527811,51.4840237 186.168047,51.3136095 185.959763,51.1810651 C185.410651,50.9159763 184.823669,50.6887574 184.236686,50.4994083 C183.839053,50.3289941 183.51716,50.9159763 183.384615,51.2189349 C182.892308,52.5443787 182.32426,53.8508876 181.794083,55.1573964 C181.585799,55.6497041 181.377515,56.2177515 180.866272,56.4828402 C179.521893,57.2402367 178.026036,57.8272189 176.624852,58.4899408 C176.208284,58.6792899 175.848521,58.887574 175.375148,58.887574 C174.257988,58.887574 173.140828,58.887574 172.023669,58.887574 C171.947929,58.2816568 171.815385,57.6757396 171.72071,57.0698225 C169.240237,56.8426036 166.702959,56.8804734 164.24142,56.539645 C162.537278,56.312426 160.795266,56.2366864 159.091124,56.0662722 C156.72426,55.9337278 154.357396,55.5928994 151.990533,55.4035503 C150.286391,55.1952663 148.487574,54.5704142 147.181065,53.4153846 C146.688757,52.9988166 146.518343,52.4686391 146.19645,51.9384615 C145.931361,51.6733728 145.514793,51.5597633 145.173964,51.408284 C144.473373,51.1621302 143.734911,50.8781065 142.99645,50.8023669 C141.557396,50.7455621 140.080473,51.3325444 138.622485,51.408284 C137.732544,51.3893491 136.880473,50.7455621 135.990533,51.0106509 C135.592899,51.0295858 135.119527,51.408284 134.911243,50.8781065 C133.926627,49.060355 132.942012,47.2426036 132.16568,45.3301775 C131.786982,44.3266272 131.351479,43.3609467 130.972781,42.3384615 C130.688757,42.3005917 130.215385,42.3952663 130.08284,42.0923077 C129.514793,41.1455621 129.022485,40.1420118 128.454438,39.1763314 C128.151479,38.608284 127.394083,38.2863905 126.88284,37.9076923 C126.295858,37.547929 126.030769,36.9988166 125.689941,36.4497041 C125.235503,35.6923077 124.72426,34.9727811 124.250888,34.2343195 C125.008284,34.139645 125.746746,34.0828402 126.485207,33.912426 C125.973964,33.4011834 125.368047,33.060355 124.894675,32.5301775 C123.417751,30.9964497 122.471006,29.1029586 122.092308,27.0011834 C121.145562,27.0011834 120.236686,26.9633136 119.422485,26.452071 C118.911243,26.1680473 118.589349,25.6 118.305325,25.1076923 C117.453254,24.9751479 116.601183,24.7857988 115.768047,24.5964497 C115.749112,24.1609467 115.786982,23.7822485 115.900592,23.3656805 C116.411834,23.4035503 116.904142,23.4224852 117.415385,23.3846154 C117.850888,23.252071 118.078107,22.6272189 118.172781,22.2106509 C118.021302,21.6994083 117.604734,21.2449704 117.661538,20.695858 C117.718343,19.9384615 118.115976,19.1621302 118.418935,18.4804734 C119.062722,18.5372781 119.820118,18.6508876 120.426036,18.4426036 C120.842604,18.2153846 120.501775,17.5147929 120.388166,17.1739645 C120.123077,16.4923077 119.933728,15.8485207 119.952663,15.1100592 C120.293491,15.0153846 120.615385,14.9017751 120.956213,14.7881657 C120.975148,14.3526627 121.031953,13.9360947 121.069822,13.5005917 C122.546746,13.6710059 123.83432,14.0497041 125.368047,13.652071 C126.201183,13.4059172 127.091124,13.008284 127.715976,12.4023669 C128.189349,11.8532544 128.132544,10.887574 127.92426,10.2248521 C127.564497,8.99408284 126.428402,8.10414201 125.405917,7.42248521 C123.75858,6.41893491 122.016568,5.75621302 120.179882,5.24497041 C119.706509,5.13136095 119.706509,4.77159763 119.536095,4.39289941 C118.968047,3.01065089 118.305325,1.62840237 117.604734,0.321893491 L117.528994,0.189349112 L117.39645,0 L116.544379,0 C115.389349,0.15147929 114.215385,0.227218935 113.04142,0.359763314 C111.318343,0.586982249 109.595266,1.02248521 107.910059,1.47692308 C106.868639,1.74201183 105.846154,2.25325444 105.069822,3.01065089 C104.407101,3.69230769 104.179882,4.48757396 103.763314,5.30177515 C103.40355,5.52899408 102.968047,5.64260355 102.570414,5.81301775 C98.6508876,7.4035503 95.2804734,10.2816568 93.5573964,14.2011834 C96.9088757,13.4059172 100.089941,12.5538462 103.573964,12.5159763 C103.782249,13.3112426 103.914793,14.1254438 104.047337,14.939645 C102.684024,14.5609467 101.39645,14.1633136 99.9573964,14.1633136 C98.7076923,14.2390533 97.495858,14.4284024 96.3408284,14.939645 C96.7195266,15.1857988 97.0035503,15.5076923 97.3065089,15.8485207 C95.8485207,15.9242604 94.4094675,16.0757396 92.9514793,16.2650888 C92.2319527,16.3597633 91.512426,16.3408284 90.7739645,16.3029586 C91.2473373,17.6662722 92.5538462,18.4615385 93.7467456,19.1242604 C93.3869822,19.4272189 93.1218935,20.0710059 92.5727811,20.0142012 C90.8118343,20.0142012 89.0508876,20.0142012 87.2899408,20.0142012 C86.8544379,20.052071 86.5704142,19.3893491 86.1538462,19.4461538 C85.339645,19.4840237 84.5633136,19.5597633 83.7491124,19.4650888 C83.616568,19.1810651 83.5218935,18.783432 83.2757396,18.5751479 C82.5940828,18.4804734 81.8934911,18.5372781 81.2118343,18.4994083 C77.4248521,18.4994083 73.6378698,18.4994083 69.8508876,18.4994083 C69.5857988,18.4804734 69.3585799,18.556213 69.1881657,18.3100592 C68.9420118,17.9313609 68.8284024,17.4011834 68.487574,17.1171598 C67.6923077,16.435503 66.5751479,16.1325444 65.7609467,15.4887574 C65.4390533,15.1857988 65.5905325,14.4473373 65.5905325,14.0307692 C65.5715976,13.7846154 65.704142,13.3112426 65.4201183,13.1976331 C64.9467456,12.9893491 64.1514793,13.0650888 63.8295858,13.5005917 C63.2615385,14.5988166 63.4130178,15.6781065 63.6023669,16.852071 C61.6331361,16.5869822 59.4177515,16.3786982 57.4863905,17.0035503 C56.6911243,17.4390533 56.8236686,18.139645 56.8994083,18.8970414 C58.1680473,19.2 59.4745562,18.9349112 60.7810651,19.0863905 C59.7964497,19.9952663 57.9786982,20.0142012 56.8426036,20.6769231 C56.2556213,21.2449704 56.8804734,22.4568047 57.5810651,22.6272189 C58.7928994,22.3810651 59.7585799,21.7751479 61.0272189,21.7372781 C60.591716,22.4757396 59.7964497,22.9680473 59.2284024,23.6497041 C58.4710059,24.2366864 59.7207101,25.6568047 60.4213018,25.0319527 C61.1976331,24.4639053 61.6710059,23.7443787 62.6934911,23.5739645 C62.4852071,24.3502959 61.9928994,25.0130178 61.8414201,25.7893491 C61.9550296,26.2816568 62.9017751,27.0201183 63.2994083,26.3763314 C63.7159763,25.8840237 63.8863905,25.2213018 64.3029586,24.747929 C64.6059172,24.5017751 65.0035503,24.3502959 65.3822485,24.2366864 C66.1207101,24.5207101 66.764497,24.9751479 67.5408284,25.164497 C68.052071,25.3538462 68.4497041,25.0887574 68.9609467,25.0319527 C69.2639053,25.0698225 69.5668639,25.183432 69.8698225,25.2781065 C72.539645,26.2059172 75.2473373,27.0769231 77.9171598,28.0236686 C78.8828402,28.3266272 79.8674556,28.5159763 80.7952663,28.9325444 C81.1360947,29.0461538 81.495858,29.2733728 81.8366864,29.2733728 C82.1207101,29.0650888 82.3668639,28.8189349 82.5940828,28.5349112 C84.8094675,28.6863905 87.0248521,28.8568047 89.2213018,29.235503 C91.0201183,29.5384615 92.8189349,29.7467456 94.6177515,29.9171598 C95.3372781,30.0307692 96.1514793,30.6556213 96.0378698,31.4698225 C96,32.1325444 95.4508876,32.3408284 95.2047337,32.8899408 C94.8828402,34.2532544 94.9775148,35.6733728 95.3940828,37.0177515 C95.7159763,38.1159763 96.2461538,39.1195266 96.5301775,40.2366864 C96.852071,41.391716 97.1550296,42.5846154 97.1928994,43.7964497 C97.0414201,45.0272189 96.416568,46.1443787 96.2461538,47.3940828 C95.9242604,48.9846154 96.0189349,50.556213 96.3786982,52.1278107 C96.4544379,52.3171598 96.4544379,52.8473373 96.7763314,52.7526627 C97.9502959,52.487574 99.0863905,52.4307692 100.127811,53.1313609 C100.033136,54.2674556 99.7301775,55.3656805 99.635503,56.4828402 C99.5218935,57.2970414 99.616568,58.0923077 99.616568,58.9254438 C97.6284024,58.4142012 95.6023669,58.2816568 93.5763314,58.4899408 C91.3230769,58.7360947 89.183432,59.7017751 87.5171598,61.235503 C86.1538462,62.5798817 85.1502959,64.3786982 84.904142,66.2911243 C84.6769231,67.4650888 84.8094675,68.5633136 84.8284024,69.7372781 C83.3893491,69.983432 81.9502959,70.2295858 80.5112426,70.5514793 C80.1893491,70.6461538 79.8674556,70.6840237 79.6591716,70.9869822 C79.0153846,71.9526627 78.5420118,73.0508876 77.9928994,74.0733728 C77.8414201,74.3573964 77.7656805,74.3952663 77.4627219,74.4142012 C73.2402367,74.7739645 69.0556213,75.9668639 65.1928994,77.7467456 C60.2319527,80.0189349 55.8011834,83.3893491 52.3550296,87.6307692 C50.5751479,89.8272189 49.0224852,92.2319527 47.7538462,94.7502959 C47.6213018,95.0532544 47.3183432,94.8639053 47.0911243,94.8071006 C46.4094675,94.5230769 45.7467456,94.2011834 45.0272189,94.0118343 C43.2852071,93.5005917 41.4674556,93.6331361 39.687574,93.860355 C37.0366864,94.1822485 34.4804734,94.8639053 31.8295858,95.1857988 C31.0532544,95.2426036 30.295858,95.2994083 29.5763314,94.9207101 C28.8,94.5420118 28.2887574,93.7467456 27.8911243,93.008284 C26.2248521,89.9408284 25.7325444,86.3242604 24.1988166,83.2946746 C23.252071,81.2686391 22.0023669,79.3372781 20.4307692,77.7656805 C18.0639053,75.5313609 15.2804734,73.8650888 11.9668639,73.6 C10.6792899,73.5810651 9.41065089,73.5053254 8.19881657,73.9029586 C7.34674556,74.1869822 6.45680473,74.5088757 5.7183432,75.0011834 C6.5704142,75.2094675 7.36568047,75.2473373 8.14201183,75.6449704 C8.23668639,75.7207101 8.31242604,75.8153846 8.36923077,75.9289941 C7.19526627,76.1940828 6.11597633,76.1372781 4.99881657,76.591716 C3.38934911,77.235503 1.77988166,78.3526627 0.889940828,79.8674556 C0.435502959,80.643787 0.246153846,81.4579882 0,82.3100592 C0.378698225,82.347929 0.75739645,82.139645 1.13609467,82.0260355 C2.31005917,81.7230769 3.59763314,81.7988166 4.48757396,82.7076923 C5.86982249,84.0142012 6.2295858,85.7183432 6.53254438,87.5360947 C6.87337278,90.0544379 7.15739645,92.4402367 8.06627219,94.8260355 C8.71005917,96.5680473 9.71360947,98.1207101 11.2473373,99.2189349 C11.6828402,99.5408284 12.2508876,99.7491124 12.6295858,100.108876 C12.9893491,100.942012 13.1408284,101.850888 13.4627219,102.684024 C14.5609467,105.618935 16.3976331,108.269822 19.1431953,109.87929 C21.4721893,111.204734 24.2177515,111.92426 26.887574,111.299408 C28.0236686,111.053254 28.9704142,110.523077 29.9550296,109.936095 C30.7881657,110.504142 31.6023669,110.99645 32.6248521,111.110059 C33.4769231,111.166864 34.3100592,111.166864 35.1242604,110.901775 C37.1692308,110.295858 39.0248521,108.856805 40.539645,107.379882 C42.035503,105.978698 42.7739645,104.44497 44.4213018,103.289941 L44.7621302,103.157396 C44.7053254,104.52071 44.4023669,105.846154 44.4213018,107.209467 C44.3076923,111.110059 45.6142012,114.991716 47.7159763,118.248521 C49.6473373,121.297041 52.4497041,123.872189 55.4224852,125.87929 C57.2402367,127.166864 59.1905325,128.07574 61.1976331,129.022485 C63.0153846,130.385799 64.3597633,132.31716 65.3065089,134.36213 C65.8366864,135.536095 66.1585799,136.785799 66.1017751,138.073373 C66.1964497,140.250888 65.2497041,142.333728 63.9621302,144.03787 C63.7727811,144.302959 63.4887574,144.568047 63.3940828,144.871006 C63.6591716,147.332544 64.0189349,149.794083 64.435503,152.236686 C68.4307692,152.198817 72.4828402,153.278107 75.8721893,155.417751 C79.583432,157.992899 83.0485207,161.173964 86.5704142,164.033136 C87.252071,164.657988 88.0473373,165.24497 88.5964497,165.983432 C88.9751479,166.873373 88.9183432,167.990533 88.8236686,168.918343 C88.6532544,170.224852 88.3692308,171.474556 87.7254438,172.629586 C86.8733728,172.402367 85.9266272,171.985799 85.0556213,172.061538 C84.7905325,172.099408 84.7905325,172.534911 84.7147929,172.743195 C84.1656805,175.697041 84.0142012,178.707692 84.260355,181.718343 C84.4686391,183.327811 84.8473373,184.937278 85.6804734,186.357396 C86.4568047,186.205917 87.1384615,185.52426 87.7254438,185.031953 C90.1869822,182.797633 91.3420118,179.654438 92.0426036,176.492308 C92.3266272,175.110059 92.4213018,173.595266 92.9704142,172.288757 C93.2544379,171.777515 93.6710059,171.001183 94.295858,170.849704 C94.8071006,171.985799 94.7692308,173.330178 94.2011834,174.447337 C94.1254438,174.674556 93.9360947,174.84497 94.087574,175.072189 C94.5988166,175.96213 95.2804734,176.776331 96,177.514793 C97.1739645,178.650888 98.347929,179.730178 99.7112426,180.620118 C101.680473,181.907692 103.933728,182.570414 106.281657,182.702959 C106.376331,181.945562 106.262722,181.226036 106.205917,180.487574 C105.789349,177.07929 104.653254,173.95503 103.233136,170.830769 C102.949112,170.111243 102.4,169.315976 102.418935,168.539645 C102.381065,168.274556 102.494675,167.839053 102.305325,167.649704 C101.775148,167.327811 101.188166,167.157396 100.676923,166.778698 C99.7301775,166.097041 98.8591716,165.32071 98.0071006,164.525444 C97.8177515,164.298225 97.5337278,164.184615 97.6473373,163.843787 C97.8556213,163.067456 98.2911243,162.347929 98.6130178,161.609467 C100.544379,157.671006 102.759763,153.865089 105.278107,150.267456 C105.808284,149.491124 106.395266,148.733728 107.001183,148.014201 C108.345562,146.366864 109.235503,144.568047 110.295858,142.750296 C111.450888,143.280473 112.492308,144 113.590533,144.586982 C115.143195,145.439053 116.714793,146.461538 118.381065,147.067456 C118.115976,148.184615 117.510059,149.226036 117.017751,150.248521 C116.601183,151.138462 116.071006,151.971598 115.597633,152.823669 C115.370414,153.202367 115.502959,153.543195 115.540828,153.940828 C115.900592,155.985799 115.635503,158.068639 115.256805,160.113609 C114.518343,163.521893 113.401183,166.740828 112.132544,169.997633 C111.356213,172.137278 110.257988,174.201183 109.349112,176.321893 C109.065089,177.022485 108.610651,177.666272 108.402367,178.385799 C108.440237,179.635503 108.951479,180.885207 108.951479,182.153846 C108.951479,182.854438 108.970414,183.55503 108.913609,184.236686 C108.87574,184.407101 108.894675,184.842604 108.686391,184.880473 C107.966864,185.145562 107.114793,185.069822 106.376331,185.069822 C106.281657,186.56568 106.433136,188.042604 106.508876,189.538462 C106.773964,192.795266 107.190533,195.957396 109.065089,198.721893 C109.292308,198.986982 109.708876,199.592899 110.087574,199.592899 C112.189349,197.775148 113.268639,195.16213 113.779882,192.473373 C114.04497,191.242604 113.988166,190.011834 114.101775,188.781065 C114.08284,187.417751 113.893491,185.978698 114.063905,184.615385 C114.253254,183.40355 114.972781,182.47574 115.881657,181.699408 C116.24142,181.43432 116.127811,181.036686 116.16568,180.639053 C116.392899,174.617751 118.229586,168.728994 120.44497,163.181065 C120.691124,162.518343 120.975148,161.855621 121.334911,161.230769 C121.997633,160.113609 122.660355,158.92071 123.531361,157.91716 C123.891124,157.519527 124.326627,157.178698 124.629586,156.743195 C125.330178,155.607101 125.519527,154.452071 125.87929,153.202367 C126.371598,153.884024 126.466272,154.811834 126.84497,155.569231 C127.602367,156.004734 128.568047,156.156213 129.420118,156.364497 C132.639053,157.102959 136.104142,156.459172 139.266272,155.663905 C139.190533,155.417751 139.133728,155.171598 139.020118,154.944379 C138.338462,153.656805 137.52426,152.407101 136.710059,151.214201 C135.51716,149.510059 134.059172,148.071006 132.733728,146.480473 C132.16568,145.798817 131.351479,145.249704 130.915976,144.473373 C130.802367,144.227219 131.181065,144.056805 131.313609,143.905325 C132.733728,142.92071 133.869822,141.462722 134.778698,140.004734 C135.119527,139.379882 135.51716,138.75503 135.744379,138.092308 C136.028402,137.069822 135.782249,135.914793 136.085207,134.854438 C136.880473,131.862722 139.190533,129.07929 142.163314,128.056805 C142.390533,128.018935 142.84497,127.753846 142.977515,128.018935 C143.128994,128.814201 143.110059,129.647337 143.223669,130.461538 C143.280473,131.27574 143.450888,132.089941 143.413018,132.904142 C143.166864,133.339645 142.750296,133.661538 142.523077,134.115976 C142.087574,134.949112 142.144379,135.971598 142.579882,136.804734 C142.788166,137.221302 143.110059,137.52426 143.375148,137.884024 L143.337278,138.130178 C142.598817,138.433136 141.746746,138.357396 140.989349,138.243787 C140.383432,138.736095 139.985799,139.379882 139.474556,139.947929 C139.057988,140.440237 138.60355,140.894675 138.224852,141.424852 C138.508876,141.95503 138.67929,142.712426 139.076923,143.128994 C140.023669,142.674556 140.781065,142.087574 141.87929,142.068639 C142.92071,141.95503 143.810651,142.447337 144.511243,143.185799 C144.530178,143.356213 144.473373,143.450888 144.321893,143.469822 C143.469822,143.715976 142.731361,144.07574 141.973964,144.530178 C141.95503,145.950296 141.91716,147.370414 141.936095,148.790533 C142.201183,149.415385 142.750296,149.926627 143.053254,150.532544 C143.678107,150.32426 144.416568,150.4 144.662722,149.661538 C146.12071,149.472189 147.559763,149.964497 148.657988,150.930178 C148.847337,151.062722 149.036686,151.327811 149.263905,151.308876 C149.964497,151.005917 150.646154,150.589349 151.289941,150.172781 C151.157396,149.718343 150.986982,149.188166 151.062722,148.714793 C151.47929,148.146746 152.085207,147.692308 152.672189,147.313609 C154.508876,146.215385 156.440237,145.552663 158.485207,145.00355 C158.712426,144.96568 158.95858,144.927811 159.204734,144.889941 C159.318343,145.363314 159.545562,145.798817 159.678107,146.253254 C160.795266,145.836686 161.855621,145.211834 162.878107,144.605917 C164.582249,143.488757 166.248521,142.371598 167.801183,141.008284 C168.028402,140.8 168.274556,140.648521 168.539645,140.478107 C168.388166,141.76568 168.009467,143.03432 167.933728,144.340828 C167.839053,146.253254 167.839053,148.20355 168.104142,150.097041 C168.63432,148.923077 168.994083,147.692308 169.618935,146.594083 C170.111243,145.704142 170.60355,144.833136 171.247337,144.056805 C171.379882,143.867456 171.588166,143.753846 171.79645,143.659172 C171.872189,144.624852 171.777515,145.571598 171.83432,146.537278 C172.004734,149.131361 172.459172,151.592899 174.049704,153.713609 C173.973964,151.857988 173.898225,150.002367 174.049704,148.127811 C174.314793,145.988166 174.693491,143.867456 175.223669,141.76568 C175.450888,140.818935 175.640237,139.853254 176.03787,138.982249 C176.094675,138.830769 176.189349,138.75503 176.340828,138.773964 C176.946746,139.626036 177.533728,140.478107 178.253254,141.254438 C179.843787,142.863905 181.35858,144.435503 183.195266,145.798817 C183.498225,144.321893 183.668639,142.807101 183.706509,141.292308 C183.876923,139.75858 183.839053,138.224852 183.706509,136.710059 C183.668639,134.968047 183.271006,133.339645 182.949112,131.635503 C182.797633,130.764497 182.418935,129.969231 182.229586,129.098225 C183.460355,129.590533 184.463905,130.347929 185.846154,130.518343 C185.259172,129.230769 184.312426,127.943195 183.876923,126.579882 C183.668639,125.898225 183.40355,125.216568 183.327811,124.497041 C184.028402,124.591716 184.653254,124.932544 185.334911,125.102959 C186.035503,125.349112 186.849704,125.349112 187.663905,125.292308 Z M99.635503,147.919527 C98.6508876,150.608284 97.1739645,153.050888 95.583432,155.417751 C94.6366864,156.913609 93.4627219,158.295858 92.5349112,159.791716 C92.3076923,159.678107 92.0804734,159.564497 91.9100592,159.375148 C90.7550296,158.314793 89.808284,156.989349 88.8047337,155.83432 C88.0662722,155.001183 87.3467456,154.130178 86.6272189,153.278107 C85.4343195,151.876923 84.1278107,150.589349 83.0106509,149.131361 C81.7798817,147.635503 80.4544379,146.272189 79.0532544,144.946746 C78.712426,144.662722 78.939645,144.321893 79.0153846,143.96213 C79.7159763,141.80355 80.9846154,140.004734 82.4615385,138.300592 C82.6319527,138.111243 82.7455621,137.902959 83.0295858,137.921893 C84.1467456,139.75858 84.5254438,142.087574 85.1692308,144.132544 C85.2449704,144.246154 85.339645,144.340828 85.4532544,144.435503 C87.043787,145.647337 88.8615385,146.461538 90.7739645,147.029586 C90.9822485,147.086391 91.1715976,147.067456 91.304142,146.934911 C93.216568,145.268639 95.6213018,144.113609 97.9692308,143.204734 C98.8213018,142.92071 99.7491124,142.504142 100.657988,142.485207 C100.771598,144.397633 100.27929,146.139645 99.635503,147.919527 Z M120.331361,131.881657 C119.687574,133.699408 119.289941,135.573964 118.873373,137.467456 C117.983432,137.259172 117.28284,136.615385 116.373964,136.369231 C115.824852,135.876923 115.2,135.460355 114.613018,135.005917 C116.071006,133.453254 117.377515,131.824852 118.36213,129.931361 C118.702959,129.287574 118.968047,128.605917 119.308876,127.96213 C119.971598,128.094675 120.63432,128.814201 121.221302,129.173964 C121.050888,130.12071 120.63432,130.953846 120.331361,131.881657 Z M121.297041,50.5940828 C120.44497,50.4615385 119.573964,50.3857988 118.721893,50.3100592 C118.873373,49.8934911 119.271006,49.6284024 119.422485,49.2307692 C119.195266,47.6402367 118.721893,45.9928994 118.892308,44.3076923 C118.986982,43.3798817 119.119527,42.4331361 119.40355,41.5621302 C119.630769,41.2970414 119.782249,41.6378698 119.933728,41.7893491 C120.369231,42.3573964 120.710059,42.9633136 120.918343,43.6639053 C121.221302,44.6106509 121.827219,45.1786982 122.357396,46.0118343 C122.111243,46.2579882 121.940828,46.4662722 121.789349,46.7881657 C122.092308,47.5455621 122.64142,48.1893491 123.039053,48.8899408 C123.379882,49.4769231 123.910059,50.0449704 124.061538,50.7076923 C123.152663,50.6319527 122.205917,50.6698225 121.297041,50.5940828 Z M145.04142,135.005917 C144.833136,135.498225 144.700592,135.971598 144.321893,136.369231 C143.848521,135.801183 143.791716,135.062722 144.094675,134.418935 C144.416568,133.926627 144.719527,133.813018 145.306509,133.813018 C145.382249,134.248521 145.192899,134.608284 145.04142,135.005917 Z M151.043787,120.52071 C150.43787,121.391716 149.983432,122.338462 149.661538,123.360947 C149.055621,125.311243 148.639053,127.280473 148.828402,129.325444 C148.828402,129.723077 148.960947,130.23432 148.828402,130.594083 C148.16568,131.067456 147.521893,131.502959 146.991716,132.108876 C146.613018,132.033136 146.253254,131.957396 145.874556,131.900592 C145.666272,130.385799 145.723077,128.852071 145.590533,127.337278 C145.533728,126.409467 145.533728,125.500592 145.457988,124.572781 C145.420118,124.194083 145.552663,123.872189 145.760947,123.569231 C146.953846,121.865089 147.995266,120.066272 148.923077,118.210651 C149.131361,117.907692 149.301775,117.188166 149.794083,117.35858 C150.778698,117.604734 151.744379,118.097041 152.539645,118.721893 C152.028402,119.346746 151.47929,119.876923 151.043787,120.52071 Z" fill="#000000"></path>
                    <path d="M116.222485,2.32899408 C116.639053,3.10532544 117.017751,3.8816568 117.207101,4.75266272 C115.578698,4.69585799 113.988166,4.39289941 112.359763,4.46863905 C112.397633,3.95739645 112.246154,3.27573964 112.454438,2.82130178 C113.685207,2.61301775 114.953846,2.25325444 116.222485,2.32899408 Z" fill="#D2202E"></path>
                    <path d="M111.166864,6.21065089 C113.136095,6.2295858 115.010651,6.26745562 116.885207,6.94911243 C118.702959,7.42248521 120.274556,8.35029586 121.827219,9.41065089 C122.75503,10.0733728 123.626036,10.6982249 124.72426,11.0579882 C125.159763,11.1905325 125.671006,11.095858 126.125444,11.0579882 C125.292308,11.8721893 123.815385,11.6260355 122.773964,11.4745562 C121.334911,11.3420118 120.009467,10.8307692 118.608284,10.5088757 C117.926627,10.3573964 117.263905,10.1301775 116.582249,9.97869822 C115.919527,9.86508876 115.23787,9.80828402 114.556213,9.67573964 C112.227219,9.2591716 109.91716,9.33491124 107.569231,9.35384615 C106.357396,9.46745562 105.145562,9.52426036 103.952663,9.7704142 C102.4,9.92189349 100.923077,10.3384615 99.4272189,10.7550296 C99.1242604,10.8497041 98.8023669,10.8686391 98.4804734,10.887574 C98.5751479,10.7550296 98.6698225,10.6414201 98.764497,10.5278107 C102.210651,7.72544379 106.698225,6.09704142 111.166864,6.21065089 Z" fill="#D2202E"></path>
                    <path d="M107.83432,13.2733728 C108.099408,13.2923077 108.364497,13.3112426 108.629586,13.3301775 C109.197633,13.9550296 109.386982,14.6745562 109.708876,15.4508876 C110.295858,15.4698225 110.863905,15.4698225 111.450888,15.4508876 C111.621302,15.0343195 111.829586,14.5420118 112.170414,14.2579882 C112.492308,13.9739645 112.852071,13.860355 113.230769,13.6710059 C113.571598,14.2201183 114.139645,14.6366864 114.537278,15.147929 C114.328994,15.4887574 113.760947,15.6023669 113.439053,15.8295858 C113.950296,16 114.385799,16.2272189 114.953846,16.1514793 C115.654438,16.0568047 116.35503,15.7727811 117.017751,15.564497 C116.885207,16.5112426 115.919527,17.0224852 115.218935,17.5147929 C114.840237,18.2911243 114.556213,19.2189349 114.385799,20.0710059 C114.537278,20.4307692 114.859172,20.7147929 115.105325,21.0177515 C113.931361,21.112426 112.681657,20.695858 111.621302,20.2035503 C110.466272,19.3136095 109.95503,17.5715976 109.576331,16.208284 C109.235503,16.1704142 108.913609,16.1325444 108.572781,16.0946746 C108.591716,14.9964497 108.326627,14.2011834 107.83432,13.2733728 Z" fill="#D2202E"></path>
                    <path d="M65.912426,17.8366864 C66.4047337,17.8934911 67.0106509,18.0828402 67.3325444,18.4615385 C67.7869822,19.3136095 67.7680473,20.4686391 67.7680473,21.3964497 C67.7301775,22.0402367 67.8248521,22.6650888 67.4272189,23.1952663 C67.1053254,22.9491124 66.6130178,22.835503 66.6508876,22.3431953 C66.6508876,21.2071006 66.7266272,19.9005917 66.4047337,18.8023669 C66.2911243,18.5372781 65.7230769,18.0828402 65.912426,17.8366864 Z" fill="#D2202E"></path>
                    <path d="M103.119527,19.616568 C103.573964,20.0142012 103.763314,20.7905325 103.914793,21.3585799 C102.835503,20.9609467 101.907692,20.487574 100.733728,20.4686391 C101.036686,21.2260355 101.528994,21.8319527 101.794083,22.608284 C102.191716,23.8201183 102.4,25.0887574 102.021302,26.3195266 C101.585799,25.7325444 101.43432,24.9940828 100.942012,24.4071006 C100.222485,23.5171598 99.1810651,22.6461538 97.9692308,22.7408284 C98.9159763,24.0094675 99.3514793,25.4863905 99.1621302,27.0769231 C98.5183432,26.4331361 98.1964497,25.5810651 97.6284024,24.8804734 C97.1550296,24.2934911 96.5680473,23.687574 95.8295858,23.460355 C95.791716,23.7065089 95.7538462,23.9715976 95.7349112,24.2177515 C95.1289941,24.1798817 94.5230769,24.0473373 93.9171598,24.0094675 C92.591716,24.0473373 91.2662722,24.1230769 89.9408284,24.2556213 C89.0130178,24.3313609 88.1420118,24.5964497 87.1952663,24.5207101 C86.9112426,24.104142 86.7408284,23.6686391 86.191716,23.5928994 C84.9988166,23.3656805 83.7869822,23.3656805 82.5940828,23.0248521 C82.6508876,22.5514793 82.6508876,22.1159763 82.8213018,21.6615385 C82.9349112,21.3017751 83.1810651,21.3964497 83.4650888,21.339645 C84.0331361,21.3207101 84.6011834,21.3017751 85.1502959,21.3775148 C85.5668639,21.5668639 85.9076923,21.9455621 86.3053254,22.1538462 C87.4982249,22.2485207 88.7289941,22.2485207 89.9029586,22.0591716 C91.3420118,21.983432 92.8,22.1159763 94.2390533,22.0023669 C94.7692308,21.7183432 95.147929,21.2260355 95.6591716,20.904142 C96.7763314,20.2035503 98.0260355,19.6923077 99.3514793,19.5029586 C100.676923,19.3325444 101.888757,19.2189349 103.119527,19.616568 Z" fill="#D2202E"></path>
                    <path d="M69.5668639,20.5254438 C72.1798817,20.3550296 74.6224852,20.7147929 77.2733728,20.6769231 C78.5798817,20.7905325 79.9053254,20.7526627 81.2118343,20.8662722 C80.7763314,22.2106509 80.4544379,23.5550296 80.416568,24.956213 C78.7313609,24.7100592 77.0840237,24.1609467 75.4366864,23.7822485 C73.6189349,23.3656805 71.8011834,22.8544379 69.983432,22.4378698 C69.756213,22.3431953 69.1692308,22.2674556 69.2260355,21.9076923 C69.2260355,21.5289941 69.2639053,20.7905325 69.5668639,20.5254438 Z" fill="#D2202E"></path>
                    <path d="M104.785799,21.2260355 C105.202367,23.2142012 105.391716,25.2402367 105.107692,27.2662722 C104.785799,30.712426 103.536095,33.8745562 101.794083,36.8284024 C100.942012,38.3242604 99.8816568,39.687574 99.1053254,41.2213018 C98.8781065,40.6721893 98.9538462,40.0852071 98.6887574,39.5360947 C98.556213,39.1573964 98.2532544,38.7218935 98.3857988,38.3053254 C99.1810651,37.5100592 100.487574,36.695858 100.960947,35.5976331 C100.31716,35.7680473 99.7301775,35.9763314 99.0674556,35.9005917 C98.6887574,35.8627219 98.2532544,35.7112426 98.1207101,35.3136095 C98.783432,35.2189349 99.5218935,35.1431953 99.9763314,34.6130178 C100.20355,34.2153846 100.222485,33.8177515 100.639053,33.5905325 C101.510059,33.0224852 102.36213,32.1514793 102.43787,31.0721893 C101.301775,31.9242604 100.089941,32.5869822 98.7076923,32.9467456 C98.0828402,33.0792899 97.4201183,33.0414201 96.7763314,33.0414201 C97.7230769,32.5869822 98.7455621,32.3976331 99.6544379,31.8485207 C102.021302,30.6177515 103.725444,28.3076923 104.312426,25.7136095 C104.766864,24.2556213 104.747929,22.7597633 104.785799,21.2260355 Z" fill="#D2202E"></path>
                    <path d="M111.185799,24.104142 C112.302959,24.747929 113.325444,25.5242604 114.556213,25.9786982 C115.370414,26.3763314 116.298225,26.4710059 117.131361,26.8118343 C117.642604,27.2473373 118.134911,27.7017751 118.570414,28.2130178 C118.097041,28.1940828 117.642604,28.2698225 117.150296,28.1940828 C117.32071,28.8 117.926627,29.1786982 118.47574,29.4059172 C119.233136,29.6710059 120.142012,29.5384615 120.956213,29.5763314 C121.278107,30.504142 121.940828,31.2804734 122.224852,32.208284 C121.334911,32.3218935 120.388166,32.0189349 119.573964,31.7159763 C117.945562,31.0721893 116.771598,29.652071 115.881657,28.2130178 C115.484024,27.4934911 114.688757,27.4556213 114.026036,27.0390533 C112.852071,26.3952663 111.697041,25.3538462 111.185799,24.104142 Z" fill="#D2202E"></path>
                    <path d="M108.364497,24.2934911 C109.008284,25.1455621 109.330178,26.2059172 110.087574,27.0201183 C111.072189,28.2698225 112.397633,28.8946746 113.817751,29.5573964 C114.442604,30.7313609 115.105325,31.8485207 116.127811,32.7384615 C116.620118,33.1928994 117.207101,33.4201183 117.737278,33.7988166 C117.926627,34.2911243 117.794083,34.7266272 117.623669,35.1810651 C117.263905,34.9538462 116.866272,34.8402367 116.449704,34.6887574 C116.695858,35.2946746 117.112426,35.9195266 117.188166,36.5633136 C117.301775,37.2639053 117.301775,37.9455621 117.055621,38.608284 C116.525444,38.1727811 116.089941,37.7372781 115.351479,37.7751479 C113.931361,37.756213 112.530178,39.0248521 111.526627,39.9147929 C110.560947,40.6911243 109.860355,41.6946746 108.989349,42.5656805 C108.8,41.4485207 108.515976,40.3313609 108.383432,39.1952663 C108.307692,38.608284 108.004734,37.983432 108.080473,37.3964497 C109.159763,36.3360947 110.485207,35.3893491 111.848521,34.7266272 C112.189349,34.5372781 112.549112,34.4426036 112.776331,34.1207101 C110.88284,33.8934911 109.140828,34.3100592 107.304142,34.6130178 C106.71716,32.8142012 106.660355,30.939645 106.792899,29.0650888 C107.001183,27.4366864 107.455621,25.6757396 108.364497,24.2934911 Z" fill="#D2202E"></path>
                    <path d="M119.820118,34.4236686 C120.198817,34.4426036 120.59645,34.4615385 120.956213,34.4994083 C122.205917,36.4307692 123.323077,38.4378698 124.534911,40.3881657 C124.648521,40.5964497 124.83787,40.7289941 125.008284,40.8615385 C125.102959,40.6343195 125.178698,40.0852071 125.538462,40.2745562 C126.011834,40.4260355 126.466272,40.5775148 126.731361,41.0319527 C127.147929,41.7704142 127.697041,42.4710059 127.96213,43.2662722 C126.939645,43.7775148 125.936095,44.4402367 124.856805,44.8189349 C124.288757,43.8343195 123.569231,42.9065089 123.076923,41.8650888 C123.228402,41.6378698 123.285207,41.3727811 123.436686,41.1455621 C123.020118,40.8615385 122.67929,40.5017751 122.376331,40.0852071 C121.770414,39.252071 121.145562,38.4189349 120.52071,37.5857988 C120.369231,37.3775148 120.217751,37.1692308 120.198817,36.904142 C120.104142,36.0899408 119.895858,35.2568047 119.820118,34.4236686 Z" fill="#D2202E"></path>
                    <path d="M105.486391,35.2378698 C105.713609,35.616568 105.732544,36.1467456 105.789349,36.5822485 C105.959763,37.8319527 105.978698,39.0816568 106.149112,40.3313609 C106.168047,41.8650888 106.243787,43.3609467 105.997633,44.8757396 C105.959763,46.2769231 105.67574,47.6213018 105.391716,49.0035503 C105.297041,49.5337278 105.088757,50.0260355 104.880473,50.5183432 C104.388166,50.2721893 103.952663,50.0071006 103.51716,49.6852071 C102.532544,49.0224852 101.339645,48.9088757 100.20355,49.1739645 C99.843787,48.1514793 100.184615,46.7881657 100.487574,45.7656805 C101.453254,42.4899408 103.744379,40.1798817 104.842604,37.0177515 C105.050888,36.4307692 105.183432,35.7869822 105.486391,35.2378698 Z" fill="#D2202E"></path>
                    <path d="M118.305325,38.0781065 C118.36213,39.1005917 117.945562,39.9526627 117.642604,40.8994083 C116.998817,42.8686391 115.919527,44.4970414 114.745562,46.1822485 C114.613018,46.4094675 114.253254,46.8260355 114.404734,47.0911243 C115.16213,48.1704142 116.27929,48.5491124 117.226036,49.287574 C116.620118,49.287574 115.995266,49.2118343 115.408284,49.0982249 C114.310059,48.8899408 113.325444,48.208284 112.416568,47.583432 C112.265089,47.4319527 111.886391,47.2804734 112.018935,47.0153846 C112.189349,46.6177515 112.530178,46.2579882 112.814201,45.9360947 C113.988166,44.5727811 115.313609,43.3988166 116.373964,41.9218935 C117.24497,40.7289941 117.737278,39.4414201 118.305325,38.0781065 Z" fill="#D2202E"></path>
                    <path d="M130.063905,45.3112426 C131.256805,47.7538462 132.24142,50.2911243 133.339645,52.7905325 C133.491124,53.0934911 133.472189,53.3775148 133.491124,53.6994083 C133.169231,53.7372781 132.866272,53.756213 132.544379,53.7940828 C132.506509,54.4757396 132.714793,55.1573964 132.752663,55.8390533 C132.411834,55.5550296 132.089941,55.252071 131.824852,54.9112426 C129.893491,52.5443787 127.981065,50.1017751 126.314793,47.5455621 C126.011834,47.2047337 126.523077,47.147929 126.731361,46.9775148 C127.848521,46.4662722 128.908876,45.8035503 130.063905,45.3112426 Z" fill="#D2202E"></path>
                    <path d="M138.792899,54.1727811 C138.792899,54.9869822 138.71716,55.8011834 138.75503,56.6153846 C138.736095,56.8994083 138.849704,57.1266272 138.56568,57.3159763 C138.186982,57.4674556 137.486391,57.4674556 137.278107,57.0319527 C136.994083,56.4260355 137.069822,55.5928994 137.050888,54.9301775 C136.426036,55.7065089 136.691124,56.6153846 135.801183,57.2402367 C136.066272,57.4295858 136.293491,57.7325444 136.48284,58.016568 C136.766864,58.8686391 136.710059,59.8911243 136.691124,60.7810651 C135.536095,60.7621302 134.835503,59.7585799 134.721893,58.6982249 C134.646154,57.7325444 134.892308,56.6911243 135.100592,55.7443787 C135.289941,54.9301775 135.725444,53.964497 136.48284,53.5289941 C137.183432,53.1502959 138.433136,53.3964497 138.792899,54.1727811 Z" fill="#D2202E"></path>
                    <path d="M126.428402,53.6615385 C126.977515,54.4189349 127.488757,55.2331361 127.981065,56.0284024 C126.788166,56.0662722 125.671006,55.7254438 124.478107,55.5928994 C122.792899,55.3467456 121.088757,55.2899408 119.384615,55.3656805 C118.854438,56.8426036 117.623669,57.7325444 116.184615,58.2059172 C116.033136,58.3195266 115.540828,58.3195266 115.616568,58.5846154 C118.040237,59.3798817 120.312426,60.9704142 122.357396,62.4662722 C123.739645,63.5266272 125.102959,64.643787 126.352663,65.8745562 C128.549112,67.9573964 130.650888,70.1538462 132.639053,72.4639053 C132.790533,72.6721893 132.942012,72.8426036 132.923077,73.1076923 C132.904142,74.1680473 132.544379,75.2662722 132.392899,76.3266272 C131.881657,79.6213018 130.915976,82.783432 130.310059,86.0402367 C130.04497,86.9491124 129.874556,87.8769231 129.704142,88.8047337 C129.098225,91.2473373 128.738462,93.7467456 128.246154,96.208284 C127.829586,98.9159763 127.375148,101.528994 127.394083,104.274556 C126.257988,104.255621 125.235503,104.388166 124.118343,104.104142 C120.728994,103.384615 117.680473,101.150296 115.427219,98.5940828 C115.086391,98.3100592 115.465089,97.8745562 115.540828,97.5337278 C116.31716,95.564497 117.32071,93.7278107 118.513609,91.9668639 C119.782249,90.1112426 121.297041,88.4828402 122.830769,86.835503 C123.569231,86.6461538 124.307692,86.6650888 125.027219,86.3621302 C126.769231,85.6615385 128.454438,84.6769231 129.628402,83.1810651 C129.855621,82.8970414 129.855621,82.5751479 129.931361,82.2343195 C128.757396,82.9727811 127.583432,83.5408284 126.144379,83.2757396 C126.863905,82.1017751 127.697041,81.0224852 128.284024,79.7538462 C128.624852,78.9964497 129.15503,78.1065089 129.060355,77.2544379 C129.00355,76.2508876 129.022485,75.2473373 128.96568,74.243787 C128.96568,73.9029586 128.662722,73.8272189 128.435503,73.6568047 C125.102959,71.7633136 121.865089,69.6804734 118.778698,67.3893491 C118.134911,66.9727811 117.623669,66.4236686 117.017751,65.9502959 C115.824852,65.0982249 114.745562,64.0378698 113.704142,62.9964497 C112.643787,61.9550296 111.715976,60.7621302 110.977515,59.4745562 C110.807101,59.1147929 110.504142,58.6224852 110.693491,58.2059172 C111.110059,57.2213018 111.621302,56.2745562 112.03787,55.2710059 C111.469822,54.9112426 110.523077,54.8733728 110.239053,54.2295858 C111.469822,54.2674556 112.681657,54.0591716 113.893491,54.0970414 C113.590533,55.1952663 112.871006,56.2745562 112.03787,57.0508876 C112.094675,57.1266272 112.132544,57.2023669 112.151479,57.2781065 C113.628402,56.7668639 114.802367,55.8390533 115.900592,54.7408284 C115.824852,55.1952663 115.749112,55.6307692 115.540828,56.0284024 C115.313609,56.5207101 114.859172,56.8047337 114.613018,57.2781065 C116.506509,56.8615385 117.794083,55.3278107 118.816568,53.7940828 C121.334911,53.7183432 123.891124,53.9266272 126.428402,53.6615385 Z" fill="#D2202E"></path>
                    <path d="M140.004734,53.8319527 C141.046154,53.5857988 142.295858,54.5136095 142.144379,55.6307692 C142.087574,56.5775148 142.125444,57.5242604 141.973964,58.4710059 C141.84142,59.2852071 142.239053,59.9289941 141.671006,60.6485207 C141.254438,59.9857988 140.87574,59.3609467 140.118343,59.0769231 C139.663905,58.9633136 139.133728,58.9822485 138.660355,58.9822485 C138.736095,58.660355 138.75503,58.3763314 139.039053,58.1680473 C139.550296,57.6568047 140.307692,57.9786982 140.913609,58.0544379 C140.76213,57.5621302 140.364497,57.4106509 140.023669,57.0887574 C139.83432,56.8426036 139.966864,56.5207101 139.966864,56.2366864 C140.345562,56.2934911 140.72426,56.312426 141.084024,56.3502959 C140.8,55.9905325 140.345562,55.8011834 139.928994,55.6307692 C139.985799,55.460355 140.004734,55.2710059 139.947929,55.0816568 C140.364497,55.043787 140.705325,55.0816568 141.102959,55.1763314 C140.87574,54.6840237 140.459172,54.608284 140.004734,54.4189349 C139.985799,54.2295858 139.985799,54.0402367 140.004734,53.8319527 Z" fill="#D2202E"></path>
                    <path d="M147.900592,57.9218935 C149.112426,57.7136095 150.456805,58.1491124 151.687574,58.2627219 C153.63787,58.452071 155.550296,58.8497041 157.500592,59.0011834 C158.523077,59.1147929 159.545562,59.3420118 160.568047,59.4556213 C162.404734,59.6260355 164.222485,59.9857988 166.040237,60.2130178 C166.267456,60.2698225 166.646154,60.3076923 166.721893,60.591716 C166.608284,61.1976331 166.305325,61.7656805 166.153846,62.3715976 C165.945562,63.2047337 165.850888,64.0757396 165.756213,64.9278107 C164.373964,63.9053254 162.821302,63.3940828 161.230769,62.7692308 C157.254438,61.3112426 153.183432,60.1372781 149.169231,58.7360947 C148.733728,58.5656805 148.222485,58.4331361 147.862722,58.1301775 L147.900592,57.9218935 Z" fill="#D2202E"></path>
                    <path d="M180.960947,59.4366864 C180.809467,60.1751479 180.601183,60.6295858 180.052071,61.1408284 C179.389349,61.7467456 178.764497,62.5609467 177.988166,63.0153846 C177.514793,62.8071006 177.07929,62.4852071 176.662722,62.1822485 C176.284024,62.5609467 176.321893,63.2994083 176.208284,63.791716 C175.583432,63.4698225 175.356213,62.8449704 174.788166,62.4473373 C174.598817,63.0532544 174.560947,63.6970414 174.371598,64.3029586 C172.951479,64.0757396 171.493491,64 170.073373,63.7538462 C170.073373,62.939645 170.262722,62.1443787 170.792899,61.5005917 C171.020118,61.3869822 171.342012,61.4816568 171.588166,61.5005917 C172.572781,61.652071 173.576331,61.5195266 174.579882,61.6331361 C175.110059,61.652071 175.659172,61.8035503 176.132544,61.5573964 C177.420118,60.9514793 178.726627,60.3455621 180.014201,59.739645 C180.31716,59.6071006 180.639053,59.5313609 180.960947,59.4366864 Z" fill="#D2202E"></path>
                    <path d="M138.489941,62.5420118 C139.001183,62.4094675 139.550296,62.5230769 139.928994,62.9207101 C140.080473,63.1668639 140.099408,63.5266272 140.137278,63.8106509 C140.288757,65.8366864 140.440237,67.843787 140.629586,69.8698225 C140.705325,72.9183432 141.159763,75.9289941 141.254438,78.9585799 C141.349112,80.208284 141.443787,81.4390533 141.538462,82.6887574 C141.689941,84.7905325 141.95503,86.8923077 141.992899,88.9940828 C142.106509,90.5656805 142.276923,92.1372781 142.352663,93.7278107 C142.617751,95.8485207 142.598817,98.0071006 142.826036,100.146746 C142.88284,100.809467 143.053254,101.43432 142.731361,102.059172 C142.333728,99.5029586 142.220118,96.9278107 141.822485,94.3526627 C141.727811,93.1218935 141.633136,91.9289941 141.462722,90.6982249 C141.235503,88.2556213 140.970414,85.8319527 140.667456,83.408284 C140.515976,81.3065089 140.194083,79.2236686 140.042604,77.1029586 C139.531361,73.0130178 139.152663,68.9609467 138.71716,64.8331361 C138.622485,64.0757396 138.395266,63.2804734 138.489941,62.5420118 Z" fill="#D2202E"></path>
                    <path d="M98.4994083,63.0343195 C101.339645,63.6591716 104.009467,65.3254438 106.508876,66.783432 C108.440237,67.8248521 110.125444,69.1502959 112.113609,70.0781065 C112.814201,70.4378698 113.552663,70.6461538 114.272189,70.9491124 C114.423669,71.0059172 114.518343,71.1195266 114.556213,71.2899408 C113.514793,71.252071 112.359763,71.4035503 111.356213,71.1384615 C108.364497,70.4757396 105.486391,69.2639053 102.778698,67.8816568 C100.544379,66.9159763 98.4804734,65.8366864 96.0378698,65.4579882 C93.9739645,65.0224852 92.0994083,65.5337278 90.1680473,66.2343195 C90.3763314,65.2686391 91.2284024,64.5112426 92.0236686,63.9810651 C93.9360947,62.7692308 96.3029586,62.504142 98.4994083,63.0343195 Z" fill="#D2202E"></path>
                    <path d="M86.7408284,73.0319527 C87.043787,73.164497 87.2899408,73.4106509 87.5550296,73.6 C88.1609467,74.1112426 88.9183432,74.4142012 89.5621302,74.887574 C88.6153846,75.095858 87.6497041,75.2662722 86.7218935,75.5313609 C86.3053254,75.6260355 85.8698225,75.7775148 85.4343195,75.7585799 C84.8473373,75.4177515 84.3550296,74.9065089 83.8059172,74.5088757 C83.4650888,74.243787 83.0295858,74.016568 82.764497,73.6757396 C82.8591716,73.5810651 82.991716,73.5053254 83.1621302,73.4863905 C84.2982249,73.2213018 85.5668639,72.8804734 86.7408284,73.0319527 Z" fill="#D2202E"></path>
                    <path d="M144.927811,74.3573964 C148.998817,76.1183432 152.842604,78.3905325 156.364497,81.0982249 C160.662722,84.5443787 164.373964,88.6343195 167.214201,93.3491124 C169.126627,96.5491124 170.71716,99.9384615 171.79645,103.51716 C172.894675,106.792899 173.500592,110.182249 173.936095,113.609467 C174.049704,115.578698 174.314793,117.491124 174.144379,119.460355 C173.311243,116.222485 172.231953,113.07929 170.698225,110.106509 C166.892308,102.494675 160.795266,95.9053254 154.111243,90.7171598 C151.327811,88.5775148 148.392899,86.5704142 145.268639,84.9609467 C145.07929,84.8284024 144.757396,84.6769231 144.776331,84.4118343 C144.757396,83.2189349 144.776331,82.0449704 144.681657,80.852071 C144.681657,79.583432 144.473373,78.3337278 144.492308,77.0650888 C144.492308,76.1940828 144.302959,75.304142 144.359763,74.4331361 C144.435503,74.1491124 144.738462,74.2816568 144.927811,74.3573964 Z" fill="#D2202E"></path>
                    <path d="M102.721893,75.4366864 C103.252071,75.4556213 103.782249,75.6828402 104.293491,75.8343195 C105.865089,76.3455621 107.474556,76.6674556 109.065089,77.1029586 C108.989349,77.5573964 108.913609,78.0118343 108.76213,78.4473373 C108.042604,80.7384615 107.550296,83.0674556 106.982249,85.3775148 C106.71716,86.7597633 106.489941,88.1420118 106.168047,89.5053254 C104.123077,89.3727811 102.097041,89.0887574 100.033136,88.9183432 C99.9952663,88.5585799 99.9384615,88.1988166 99.9763314,87.8579882 C100.146746,83.843787 100.998817,79.8295858 102.4,76.0804734 C102.494675,75.8532544 102.570414,75.6071006 102.721893,75.4366864 Z" fill="#D2202E"></path>
                    <path d="M13.0840237,79.1857988 C15.0153846,79.3751479 16.852071,80.208284 18.139645,81.6662722 C20.0331361,83.7112426 20.695858,86.4 21.3585799,89.0130178 C21.5857988,90.1680473 21.983432,91.2473373 22.3431953,92.364497 C21.4343195,91.9668639 20.9798817,91.2094675 20.3360947,90.5088757 C20.2414201,91.739645 20.8662722,93.0461538 21.4343195,94.1065089 C21.9076923,95.0343195 22.608284,95.8295858 23.1195266,96.7384615 C22.2863905,96.7384615 21.5668639,96.435503 20.904142,95.9810651 C19.6733728,95.1289941 18.7455621,93.7278107 18.0071006,92.4402367 C16.7005917,90.0544379 15.6402367,87.5360947 14.3147929,85.1502959 C13.3680473,83.5597633 12.4781065,82.0639053 10.9633136,80.9278107 C10.3573964,80.3597633 9.56213018,80.0946746 8.93727811,79.564497 C10.2627219,79.1289941 11.6639053,79.1100592 13.0840237,79.1857988 Z" fill="#D2202E"></path>
                    <path d="M71.0248521,81.912426 C72.6343195,81.8366864 74.2816568,81.8366864 75.8911243,81.9313609 C78.2011834,82.2911243 80.435503,82.7266272 82.5940828,83.6733728 C86.3431953,85.112426 89.6378698,87.8390533 92.2887574,90.8118343 C93.216568,92.0426036 94.2390533,93.2733728 94.9585799,94.6177515 C96.3408284,96.852071 97.3443787,99.3136095 98.0260355,101.850888 C97.495858,101.301775 97.1550296,100.639053 96.7195266,100.014201 C94.1254438,96.1704142 90.8307692,92.8757396 87.1195266,90.1112426 C85.2449704,88.8994083 83.1053254,87.3278107 80.8710059,86.9301775 C81.0982249,87.3467456 81.4579882,87.5360947 81.8366864,87.8011834 C85.6615385,90.6414201 88.5585799,94.6366864 90.2248521,99.0863905 C90.452071,99.616568 90.5846154,100.127811 90.6414201,100.695858 C89.9597633,100.336095 89.391716,99.8059172 88.6721893,99.4650888 C86.3242604,98.1775148 83.6733728,97.4011834 81.0035503,97.2686391 C80.3786982,97.3065089 79.4887574,97.1550296 79.0153846,97.6473373 C81.1360947,99.1242604 83.3893491,100.676923 85.1881657,102.570414 C87.7065089,104.975148 89.7704142,107.853254 91.3988166,110.939645 C91.8153846,111.848521 92.2887574,112.776331 92.5159763,113.742012 C92.1940828,113.571598 91.947929,113.363314 91.7017751,113.098225 C90.035503,111.318343 87.8390533,110.068639 85.6047337,109.140828 C84.9988166,108.894675 84.4307692,108.572781 83.8059172,108.364497 C82.1964497,107.853254 80.5680473,107.379882 78.939645,106.906509 C76.8568047,106.357396 74.7360947,105.884024 72.6343195,105.429586 C70.6840237,104.842604 68.6390533,104.142012 66.8781065,103.081657 C65.0224852,101.945562 63.356213,100.582249 62.0686391,98.8023669 C60.156213,96.2650888 59.2473373,92.9893491 59.7207101,89.8272189 C60.1372781,87.7065089 61.2923077,85.7183432 63.0721893,84.4686391 C65.4201183,82.8213018 68.2792899,82.3100592 71.0248521,81.912426 Z" fill="#D2202E"></path>
                    <path d="M115.957396,104.577515 C116.31716,104.653254 116.601183,105.013018 116.885207,105.221302 C117.093491,105.429586 117.453254,105.6 117.547929,105.884024 C117.566864,106.56568 117.35858,107.247337 117.35858,107.928994 C117.39645,109.368047 117.737278,110.807101 118.759763,111.867456 C119.971598,113.192899 121.694675,113.723077 123.455621,113.760947 C124.042604,113.723077 124.83787,113.571598 125.216568,113.07929 C125.557396,112.511243 125.595266,112 126.295858,111.753846 C126.523077,112.302959 126.542012,112.927811 126.390533,113.495858 C126.106509,114.291124 125.519527,114.897041 124.8,115.294675 C123.777515,115.900592 122.357396,115.862722 121.221302,115.692308 C118.4,114.991716 115.749112,112.605917 115.313609,109.633136 C115.181065,107.891124 115.143195,106.186982 115.957396,104.577515 Z" fill="#D2202E"></path>
                    <path d="M119.573964,106.849704 C119.933728,106.67929 120.236686,106.811834 120.59645,106.868639 C121.410651,107.057988 122.224852,107.190533 123.020118,107.436686 C123.72071,107.663905 124.534911,107.607101 125.216568,107.360947 C125.822485,107.133728 126.409467,106.584615 127.091124,106.792899 C127.92426,107.001183 128.776331,107.228402 129.571598,107.512426 C129.798817,107.910059 129.723077,108.534911 129.723077,108.970414 C128.757396,108.818935 127.715976,108.459172 126.731361,108.572781 C125.254438,109.084024 123.872189,110.352663 122.149112,110.409467 C120.44497,110.390533 119.214201,108.440237 119.573964,106.849704 Z" fill="#D2202E"></path>
                    <path d="M49.1360947,107.020118 C49.2686391,107.436686 49.4011834,107.83432 49.495858,108.250888 C50.783432,113.457988 53.9266272,118.078107 58.1301775,121.372781 C58.9065089,122.054438 59.8153846,122.508876 60.5538462,123.228402 C58.5656805,122.471006 56.6911243,121.221302 55.0248521,119.933728 C52.5443787,117.945562 50.3100592,115.27574 49.3254438,112.208284 C48.8710059,110.542012 48.7005917,108.686391 49.1360947,107.020118 Z" fill="#D2202E"></path>
                    <path d="M89.8650888,117.188166 C90.4142012,117.604734 90.7171598,118.153846 91.095858,118.702959 C92.4591716,120.766864 93.6142012,123.001183 94.5420118,125.311243 C94.939645,126.257988 95.3372781,127.223669 95.583432,128.227219 C95.6402367,128.435503 95.6023669,128.624852 95.4698225,128.795266 C94.7313609,129.931361 93.8035503,130.915976 92.7053254,131.711243 C92.1940828,132.071006 91.6828402,132.544379 91.0390533,132.620118 C90.9065089,131.616568 91.1905325,130.707692 91.304142,129.704142 C91.4934911,128.378698 91.4366864,127.072189 91.4366864,125.727811 C91.4366864,124.705325 91.2473373,123.72071 91.1337278,122.698225 C90.9633136,120.861538 90.3195266,119.005917 89.8650888,117.188166 Z" fill="#D2202E"></path>
                    <path d="M168.52071,120.463905 C168.52071,121.56213 168.123077,122.471006 167.801183,123.512426 C166.816568,126.125444 165.24497,128.719527 163.048521,130.480473 C162.688757,130.726627 162.23432,131.181065 161.760947,130.972781 C161.15503,130.726627 160.624852,130.19645 160.189349,129.723077 C158.95858,128.454438 158.201183,126.769231 158.333728,124.970414 C158.371598,123.417751 159.204734,122.149112 160.302959,121.107692 C162.575148,119.176331 165.945562,119.062722 168.52071,120.463905 Z" fill="#D2202E"></path>
                    <path d="M171.095858,122.925444 C171.455621,123.001183 171.569231,123.379882 171.739645,123.663905 C172.497041,125.254438 172.497041,127.204734 172.042604,128.871006 C171.304142,131.313609 169.656805,133.510059 167.706509,135.119527 C167.460355,135.327811 167.176331,135.44142 166.892308,135.573964 C166.873373,134.646154 166.816568,133.699408 166.911243,132.771598 C167.043787,132.449704 167.346746,132.20355 167.55503,131.938462 C168.899408,130.328994 169.940828,128.473373 170.622485,126.485207 C171.057988,125.292308 171.001183,124.156213 171.095858,122.925444 Z" fill="#D2202E"></path>
                    <path d="M177.306509,131.086391 C178.253254,131.976331 178.953846,133.263905 179.502959,134.43787 C180.222485,135.895858 180.487574,137.467456 180.771598,139.039053 C180.847337,139.455621 180.809467,139.853254 180.809467,140.269822 C179.597633,139.152663 178.613018,137.770414 177.779882,136.369231 C177.439053,135.725444 176.984615,134.986982 176.984615,134.248521 C176.946746,133.207101 177.022485,132.108876 177.306509,131.086391 Z" fill="#D2202E"></path>
                    <path d="M108.497041,135.611834 C109.633136,135.687574 110.769231,135.857988 111.905325,135.990533 C112.321893,136.028402 112.530178,136.293491 112.833136,136.539645 C115.048521,138.67929 118.021302,140.080473 120.880473,141.197633 C122.792899,141.95503 124.781065,142.485207 126.750296,143.110059 C127.242604,143.299408 127.867456,143.488757 128.227219,143.886391 C128.454438,144.435503 128.549112,145.00355 128.889941,145.495858 C129.609467,146.650888 130.764497,147.294675 131.730178,148.35503 C132.960947,149.718343 134.172781,151.138462 135.157396,152.691124 C135.36568,152.994083 135.47929,153.315976 135.573964,153.656805 C134.759763,153.846154 134.002367,154.111243 133.150296,154.054438 C132.033136,154.092308 131.105325,154.016568 130.026036,153.67574 C129.287574,151.630769 128.359763,149.680473 127.072189,147.919527 C126.542012,146.953846 126.750296,145.514793 127.03432,144.492308 C126.201183,144.605917 125.538462,144.96568 124.818935,145.344379 C124.572781,145.287574 124.383432,144.889941 124.213018,144.719527 C123.342012,143.507692 122.111243,142.863905 120.766864,142.295858 C118.115976,141.140828 115.540828,139.79645 113.136095,138.205917 C112.568047,137.846154 112.132544,137.315976 111.583432,136.918343 C110.750296,136.44497 109.727811,136.255621 108.83787,135.876923 C108.686391,135.801183 108.591716,135.706509 108.497041,135.611834 Z" fill="#D2202E"></path>
                    <path d="M76.2508876,141.91716 C76.0426036,143.242604 75.4934911,144.511243 75.2852071,145.836686 C75.2284024,146.063905 75.4556213,146.19645 75.5692308,146.347929 C76.7431953,147.351479 77.9739645,148.35503 78.939645,149.566864 C77.9171598,149.188166 77.0272189,148.487574 76.0426036,147.995266 C74.8497041,147.27574 73.5810651,146.688757 72.4260355,145.931361 C72.3313609,145.647337 72.8426036,145.325444 73.0130178,145.136095 C74.2059172,144.170414 75.1526627,142.977515 76.2508876,141.91716 Z" fill="#D2202E"></path>
                    <path d="M100.298225,169.505325 C100.506509,170.224852 100.714793,170.944379 101.074556,171.607101 C101.813018,172.989349 102.381065,174.428402 102.797633,175.92426 C103.119527,176.889941 103.289941,177.855621 103.195266,178.878107 C101.604734,178.15858 99.7869822,177.249704 98.7455621,175.810651 C98.556213,175.526627 98.2721893,175.261538 98.4426036,174.901775 C98.8591716,173.671006 98.783432,172.231953 98.1585799,171.095858 C98.1017751,170.906509 97.8934911,170.660355 97.9692308,170.471006 C98.6698225,170.092308 99.4840237,169.6 100.298225,169.505325 Z" fill="#D2202E"></path>
                    <path d="M89.4106509,176.265089 C89.7893491,176.246154 89.6,176.795266 89.5431953,177.00355 C88.9183432,178.802367 87.895858,180.336095 86.6840237,181.794083 C86.608284,181.699408 86.5325444,181.604734 86.4568047,181.510059 C86.2485207,180.809467 86.1727811,179.938462 86.4757396,179.23787 C87.5739645,178.328994 88.5207101,177.382249 89.4106509,176.265089 Z" fill="#D2202E"></path>
                    <path d="M111.753846,188.326627 C112.07574,188.497041 112,188.856805 112,189.159763 C111.810651,190.92071 111.166864,192.681657 110.409467,194.272189 C110.276923,194.480473 110.220118,194.840237 109.898225,194.783432 C109.500592,194.15858 109.235503,193.136095 109.273373,192.397633 C109.633136,191.772781 110.163314,191.242604 110.560947,190.617751 C111.053254,189.91716 111.394083,189.121893 111.753846,188.326627 Z" fill="#D2202E"></path>
                </g>
            </g>
        </g>
    </g>
</svg>