<?xml version="1.0" encoding="UTF-8"?>
<svg width="200px" height="200px" viewBox="0 0 200 200" version="1.1" xmlns="http://www.w3.org/2000/svg" xmlns:xlink="http://www.w3.org/1999/xlink">
    <!-- Generator: Sketch 51.3 (57544) - http://www.bohemiancoding.com/sketch -->
    <title>notre-dame-oh</title>
    <desc>Created with Sketch.</desc>
    <defs></defs>
    <g id="notre-dame-oh" stroke="none" stroke-width="1" fill="none" fill-rule="evenodd">
        <g id="notre-dame-oh_BGL" transform="translate(0.000000, 32.835821)">
            <g id="notre-dame-oh">
                <g id="g10" transform="translate(99.959885, 67.772831) scale(-1, 1) rotate(-180.000000) translate(-99.959885, -67.772831) translate(0.000000, 0.079642)" fill-rule="nonzero">
                    <g id="g12">
                        <path d="M168.949214,51.0992788 C168.718167,51.6809623 168.511187,52.223145 168.287521,52.7583194 C167.035696,55.7546588 165.443076,58.5617759 163.510947,61.1780778 C163.398632,61.3306662 163.250698,61.457133 163.079017,61.638073 C159.593738,57.1926214 156.149214,52.7994131 152.706936,48.4039749 C152.664577,48.3498203 152.656234,48.2695442 152.630562,48.197869 C156.154027,47.7620842 164.321857,49.1924014 168.949214,51.0992788 Z M135.288244,56.4131144 C136.913916,59.2539985 138.664738,61.9117127 140.598472,64.4461457 C142.534453,66.9834457 144.645965,69.3713428 147.020293,71.6413742 C146.702925,71.6974401 146.482788,71.7598771 146.259764,71.7726194 C143.768308,71.9140583 141.284553,71.8876181 138.831605,71.3591334 C137.292897,71.0275164 135.818047,70.5267461 134.521296,69.6070744 C133.40842,68.8176922 132.563815,67.8199742 132.12964,66.5107083 C131.682307,65.1619414 131.724666,63.8074406 132.058079,62.4449758 C132.513434,60.583652 133.416764,58.9395835 134.528356,57.3964974 C134.749134,57.0900463 134.989808,56.7979303 135.288244,56.4131144 Z M150.964136,70.7752199 C148.178095,68.4096217 145.740229,65.7353426 143.514798,62.8680184 C141.323382,60.0436993 139.360767,57.0693402 137.671236,53.9296504 C140.710145,50.879475 144.32988,49.0930119 148.551942,48.4692789 C148.669391,48.597657 148.780101,48.7034177 148.873482,48.8225577 C152.870273,53.924235 156.865138,59.0271865 160.859683,64.1310936 C160.873161,64.1489328 160.873161,64.1795142 160.874124,64.2046801 C160.875086,64.2285718 160.86931,64.2534192 160.866101,64.2776295 C158.382026,67.0681816 154.60505,69.6660073 150.964136,70.7752199 Z M121.864096,113.687286 C121.868268,113.664987 121.871798,113.642688 121.87597,113.620071 C122.380101,113.557952 122.883591,113.455377 123.389327,113.442635 C124.389889,113.416832 125.371838,113.254687 126.36181,113.143192 C127.989728,112.960022 129.589086,112.638599 131.176892,112.260473 C133.492175,111.709371 135.739427,110.954711 137.927955,110.014015 C140.977453,108.703156 143.801681,107.015446 146.436579,105.023195 C148.413634,103.52853 150.291853,101.908353 152.01925,100.129217 C153.530361,98.572751 155.001681,96.9780588 156.503807,95.4133108 C157.423823,94.4544567 158.366943,93.5172644 159.304609,92.5756123 C161.100678,90.7716287 163.238825,89.5916966 165.764617,89.1495406 C166.977292,88.9373822 168.191251,88.8972441 169.426069,89.0718129 C171.275728,89.3330289 172.996706,89.9306403 174.63361,90.7990245 C174.753947,90.8627357 174.859522,90.9538428 175.00521,91.0551437 C174.354749,91.1229961 173.770393,91.173328 173.188925,91.2469145 C172.116482,91.382938 171.099875,91.6887519 170.145844,92.2105469 C168.668427,93.018724 167.56229,94.2043901 166.668909,95.5894724 C165.797348,96.9404691 165.105812,98.3921297 164.45856,99.8600366 C163.586679,101.839226 162.700999,103.810133 161.57272,105.663175 C160.524986,107.384652 159.206093,108.863709 157.495704,109.951578 C156.353947,110.677886 155.136779,111.276134 153.881424,111.799522 C151.871958,112.637644 149.803446,113.283357 147.673322,113.731566 C146.450057,113.988959 145.222941,114.222461 143.978817,114.373138 C143.091533,114.480491 142.21195,114.647733 141.314397,114.659201 C141.186358,114.660794 141.057999,114.668121 140.930281,114.677359 C139.732688,114.762413 138.536378,114.880279 137.337181,114.925514 C136.210185,114.968201 135.079981,114.935708 133.95106,114.934434 C133.66899,114.934115 133.385957,114.938256 133.10485,114.918824 C131.880622,114.834726 130.657357,114.743937 129.433771,114.65283 C128.643398,114.593897 127.8511,114.551211 127.064257,114.462333 C125.922821,114.333955 124.784273,114.181367 123.647329,114.016992 C123.049496,113.930663 122.4584,113.798462 121.864096,113.687286 Z M160.898833,81.9033431 C160.884071,82.2502508 161.115118,82.4123959 161.257276,82.608945 C162.236979,83.9679057 162.945203,85.4562002 163.437461,87.0492997 C163.503245,87.2620952 163.613313,87.4768021 163.490088,87.731647 C162.67661,87.9676971 161.851901,88.2066143 161.005692,88.4519025 C160.963333,88.323843 160.928355,88.2308245 160.901079,88.1352577 C160.474605,86.6536529 159.841151,85.2704819 158.903807,84.0351211 C157.597108,82.3136434 155.932287,81.0926176 153.817565,80.5348257 C151.340229,79.881467 148.977453,80.2525849 146.748492,81.4484449 C143.89057,82.9816558 141.895544,85.3281406 140.524666,88.2107555 C139.070674,91.2679392 138.454549,94.4796226 138.848613,97.8614151 C139.150257,100.449684 140.025668,102.800629 141.709102,104.828239 C141.800879,104.938778 141.87276,105.0662 141.982507,105.228345 C141.203366,105.708091 140.466904,106.161715 139.709904,106.627763 C139.312632,106.294871 139.045644,105.888394 138.775769,105.492428 C136.986118,102.869118 136.173282,99.9345787 135.988123,96.8018972 C135.901802,95.3432284 136.037542,93.895072 136.29394,92.4673032 C136.817004,89.551877 137.877253,86.8368227 139.574806,84.3858514 C140.658159,82.8220591 141.932447,81.4366583 143.471156,80.2971828 C143.750337,80.0904398 144.038504,79.9811751 144.384112,79.9477267 C145.455913,79.8441959 146.529639,79.7486291 147.59406,79.5903066 C150.458079,79.1647156 153.324023,78.7432658 156.178095,78.2539635 C159.285676,77.721019 162.361167,77.0323005 165.376971,76.099568 C165.615399,76.025663 165.878536,75.9969929 166.128837,76.0027269 C166.640991,76.0138764 167.152182,76.0794989 167.664336,76.0931969 C170.61564,76.173473 173.564697,76.144803 176.504127,75.838989 C177.753064,75.7093367 178.998792,75.5487843 180.24452,75.3914176 C180.978094,75.2987177 181.709101,75.1856303 182.503646,75.0728614 C182.556273,75.1474036 182.609863,75.2359622 182.675326,75.3149641 C182.952262,75.6494481 183.236899,75.977561 183.511588,76.3136377 C186.603445,80.0936254 189.118647,84.2151053 190.944239,88.7405144 C191.765097,90.7744957 192.435454,92.8562603 192.860645,95.0106558 C192.907817,95.2486173 192.977131,95.4865787 192.888884,95.7958968 C192.68736,95.6331146 192.528836,95.5101519 192.375446,95.3808181 C189.181865,92.6851957 185.780019,90.2909274 182.106694,88.272874 C178.54793,86.3172576 174.829679,84.7502797 170.927874,83.6139898 C168.166863,82.8093169 165.352904,82.2588518 162.49081,81.9590904 C161.964858,81.9039802 161.434733,81.8651163 160.898833,81.9033431 Z M186.869149,35.0360832 C186.992695,35.1345171 187.079337,35.1889902 187.147368,35.2600282 C188.193176,36.3463048 189.278776,37.3975402 190.271315,38.5296889 C192.457596,41.0233467 194.263613,43.7680268 195.510946,46.8468723 C196.814115,50.0649268 197.381142,53.3893791 196.968146,56.8648271 C196.718487,58.9641124 196.123862,60.9538143 195.186517,62.8361628 C193.881102,65.4578801 192.046846,67.6654745 189.677332,69.4117995 C187.948972,70.6857057 186.054388,71.6219423 183.922017,72.0331983 C183.343116,72.144693 182.768387,72.275301 182.189165,72.3839287 C180.146646,72.7668332 178.089687,73.0477998 176.017645,73.2128119 C174.994941,73.2943622 173.971596,73.3730456 172.946967,73.4189177 C171.152182,73.4991939 169.357076,73.5199 167.561007,73.4068126 C166.416362,73.3348189 165.297709,73.2768417 164.146967,73.6438184 C160.232327,74.8916029 156.189326,75.6016647 152.13702,76.2400513 C150.136859,76.5547848 148.123542,76.7860566 146.116964,77.0612891 C144.157237,77.329832 142.195584,77.463307 140.21211,77.3620061 C138.302443,77.2645279 136.439307,76.9548913 134.621096,76.391684 C131.886078,75.544006 129.432488,74.2067071 127.407618,72.161895 C126.354429,71.0985545 125.478376,69.9116141 124.96911,68.4924463 C124.610025,67.4912243 124.445404,66.4769414 124.804169,65.4282544 C125.248613,64.1269524 125.667706,62.8173679 126.10124,61.5122433 C126.9083,59.0826153 127.944481,56.7625706 129.444682,54.6661523 C132.006736,51.0862179 135.35852,48.4007893 139.174966,46.2578619 C141.292897,45.0686917 143.610426,44.3927154 145.969992,43.8772915 C148.907176,43.2357194 151.891212,42.9206673 154.893859,42.7906964 C157.278135,42.6878027 159.66209,42.6463904 162.049896,42.7339934 C164.89787,42.8387984 167.741352,43.0034919 170.574244,43.2908296 C172.971355,43.533888 175.359161,43.8699647 177.74793,44.1872467 C178.16574,44.242994 178.610505,44.245861 179.037942,44.4701246 C178.811067,44.8386941 178.496586,45.0597721 178.212912,45.3050603 C176.370954,46.8946557 174.288323,48.0685352 171.99069,48.8830834 C171.523141,49.0487326 171.120734,49.0372646 170.660565,48.8531391 C167.438423,47.5642608 164.099154,46.6796303 160.676129,46.114193 C159.362371,45.8972563 158.038023,45.7255545 156.711428,45.6121485 C155.35852,45.4958755 153.995985,45.4054055 152.640189,45.4305715 C150.355712,45.4729394 148.08696,45.7070782 145.862812,46.2798423 C143.838905,46.8010002 141.909984,47.5438732 140.120654,48.6218673 C137.72964,50.0617413 135.685195,51.911597 133.832969,53.9742483 C132.530121,55.4246346 131.413073,57.0100887 130.560767,58.7666075 C129.718087,60.5036944 129.159082,62.3115007 129.124746,64.263613 C129.085596,66.4950991 129.742476,68.4746072 131.18331,70.1909879 C132.189327,71.3890777 133.459443,72.2380299 134.872038,72.8853361 C136.901401,73.8158387 139.060406,74.2423854 141.271396,74.409946 C142.701962,74.5185737 144.135736,74.5615787 145.575287,74.489585 C147.586679,74.3892398 149.549615,74.052526 151.467626,73.4584187 C155.131966,72.3237216 158.329398,70.384033 161.14079,67.8161516 C165.426069,63.9026889 168.482306,59.1444152 170.753305,53.8605237 C171.124264,52.9965994 171.434252,52.1071905 171.763814,51.2528228 C171.837942,51.2136404 171.880942,51.1840147 171.928435,51.1671312 C172.121616,51.0986416 172.316081,51.0327005 172.510866,50.9689893 C175.662089,49.9381415 178.417645,48.2568019 180.743838,45.915414 C182.931724,43.7129165 184.570232,41.1380269 185.717765,38.264013 C186.132687,37.2252013 186.472198,36.1570824 186.869149,35.0360832 Z M127.474686,29.9312204 C127.252624,29.9771243 127.022219,29.9993914 126.810105,30.0735832 C124.367426,30.9260714 121.928276,31.7884348 119.48688,32.644682 C117.86891,33.2120305 116.248693,33.7733265 114.644522,34.3323926 C111.435216,33.061672 108.26891,31.7530751 105.068589,30.4985052 C102.430162,32.6319397 99.8921756,34.8118197 97.2864797,36.8989998 C94.0787782,36.2121927 90.9253086,35.5371721 87.7371819,34.8541876 C85.062172,36.9932924 82.3884456,39.131123 79.7086222,41.2740504 C76.5214582,41.0185683 73.3551526,40.7643605 70.1464884,40.5069671 C68.4145992,43.2535585 66.6891279,45.9902747 64.9678283,48.7199826 C61.3342945,49.1519448 57.747291,49.578173 54.1099064,50.0101352 C52.3934203,52.6461876 50.6695535,55.293708 48.9251492,57.9718098 C47.5754501,58.2604217 46.2235047,58.5455295 44.8734846,58.8392383 C43.5225019,59.1329471 42.1779372,59.4594672 40.8218201,59.7283286 C39.4724419,59.9955973 38.1429593,60.3718121 36.7630958,60.5610345 C29.7172235,49.9139312 22.1119288,39.7328756 14.283,29.6894363 C14.5636579,29.5467231 14.7793979,29.6534713 14.9937261,29.7021148 C17.8661528,30.3587865 20.7347929,31.0318639 23.6108458,31.6730856 C26.9883026,32.4258339 30.3904686,33.058805 33.8082623,33.6006691 C35.8835129,33.929419 37.9683905,34.2030588 40.0519846,34.4770171 C40.4723616,34.5321273 40.9081418,34.6372509 41.3541907,34.4989975 C42.276453,32.0059768 43.1906929,29.5203148 44.1161642,27.0386984 C45.0326503,24.5807189 45.9658232,22.1290786 46.8819884,19.6712266 C47.8055343,17.1936877 48.7332519,14.7179328 49.7152013,12.2140175 C59.245887,15.8599885 68.5336525,19.9072767 77.7864401,24.1665959 C78.011069,23.8167893 78.2190113,23.4998578 78.419252,23.1788168 C79.7304433,21.0737339 81.1738447,19.0678174 82.8344945,17.2150947 C86.5514619,13.0677799 91.0141975,9.9851117 96.1960666,7.91774578 C98.9204949,6.83115064 101.742476,6.09487174 104.641153,5.65051772 C106.162853,5.417685 107.696106,5.27943162 109.237061,5.25840691 C109.461369,5.25518949 109.685998,5.28169337 109.900358,5.29376665 C110.004329,5.50057332 110.089688,5.65625173 110.163174,5.81750487 C111.367185,8.46113892 112.568308,11.1055375 113.772641,13.7491716 C114.829038,16.0679102 115.887362,18.3864258 116.949857,20.7029026 C117.016924,20.8498844 117.126351,20.978167 117.238344,21.1499007 C117.828798,20.6857324 118.377534,20.2681371 118.911509,19.8333717 C121.280061,17.903845 123.795264,16.199219 126.557879,14.8676223 C130.003366,13.2074031 133.62631,12.1496691 137.432488,11.7273592 C138.374325,11.622809 139.325789,11.6046513 140.270193,11.5196605 C141.992134,11.3651289 143.709583,11.5049751 145.418689,11.645108 C147.231123,11.7935551 149.026872,12.108002 150.80497,12.5096694 C153.083991,13.0250934 155.313273,13.6966735 157.497309,14.5188352 C157.659683,14.5802846 157.901641,14.5758249 157.969029,14.8271657 C157.870834,14.8749491 157.806013,14.9147686 157.736057,14.9396479 C156.142796,15.5034923 154.530923,16.0188844 152.959483,16.6369789 C149.223582,18.1060645 145.702363,19.9773272 142.467706,22.3575471 C138.815881,25.04425 135.742636,28.2530664 133.533892,32.225462 C132.248693,34.53595 131.265139,36.9518801 130.951942,39.6051346 C130.644201,42.2134726 131.068107,44.6752748 132.319612,46.992771 C132.400799,47.142811 132.476852,47.296355 132.542315,47.423459 C132.485516,47.511699 132.466262,47.5633051 132.42968,47.5951607 C132.160125,47.8312109 131.885115,48.0605713 131.615881,48.2966215 C129.584273,50.0783062 127.825107,52.0896699 126.397109,54.3823188 C125.148172,56.3869928 124.238745,58.5413883 123.505492,60.7744671 C123.10822,61.9837064 122.740791,63.2031395 122.313675,64.4018664 C122.070434,65.0842137 121.912552,65.7668796 121.918007,66.4890465 C121.919933,66.701842 121.946888,66.9222829 121.863776,67.1917814 C121.702364,67.0745528 121.596146,67.0095673 121.503727,66.928654 C120.421658,65.9806308 119.480462,64.9064594 118.646768,63.7392695 C115.914317,59.9134098 114.86883,55.6422085 115.353066,51.0091274 C115.632889,48.3300699 116.470113,45.7886286 117.626632,43.3542223 C119.370073,39.6847736 121.723222,36.4218026 124.40818,33.3856436 C125.287763,32.3911112 126.227674,31.4490769 127.128757,30.4731482 C127.271557,30.3185847 127.534052,30.2220303 127.477253,29.9340874 L127.474686,29.9312204 Z M145.5586,86.0802518 C145.478376,86.2395298 145.394942,86.3972152 145.318889,86.5584046 C144.228476,88.8708039 144.020213,91.2513743 144.848773,93.6787724 C145.600317,95.8812698 147.026069,97.5110033 149.195022,98.4603007 C149.351942,98.5291088 149.503085,98.6116149 149.732527,98.7250209 C149.151059,99.3844322 148.545203,99.922155 147.95122,100.470072 C147.36911,101.00652 146.784754,101.542969 146.171517,102.043739 C145.545444,102.554703 144.961729,103.126512 144.266342,103.516424 C144.179379,103.465774 144.130923,103.445705 144.092736,103.413531 C144.034974,103.363836 143.98331,103.306496 143.931324,103.250749 C143.062331,102.319927 142.483751,101.224094 142.077173,100.030783 C141.33686,97.8559996 141.284553,95.6305661 141.671236,93.3965316 C142.163815,90.5521435 143.335095,88.0138878 145.334934,85.8837026 C145.636579,85.4737208 145.637862,85.4746765 145.990209,85.3886663 C145.927634,85.6811009 145.770393,85.8964448 145.5586,86.0802518 Z M42.9487354,82.74465 C38.2822293,83.5964692 33.6738058,84.1096632 29.0039624,84.689754 C29.1052379,84.8547661 29.1540145,84.9694463 29.2329876,85.0576864 C31.260264,87.3235765 33.2091448,89.6598676 35.389971,91.7881414 C38.9179292,95.2314152 42.7841145,98.2398598 47.0235046,100.77716 C50.2841544,102.728635 53.6991563,104.360917 57.2643387,105.67751 C60.3918156,106.832594 63.5943827,107.738568 66.8733236,108.368035 C67.321298,108.454045 67.767026,108.550568 68.3863601,108.677672 C66.4028864,109.619961 64.5317272,110.395327 62.6855981,111.223573 C60.8468497,112.048315 58.9904518,112.833556 57.1632557,113.67327 C57.2024053,113.775526 57.2059352,113.8386 57.2360997,113.856121 C58.7709572,114.730558 60.2916952,115.63016 61.848053,116.465096 C64.1549924,117.702687 66.5963882,118.639561 69.0689112,119.490424 C71.4679485,120.315803 73.9077398,121.010256 76.3802628,121.589072 C78.9766527,122.197196 81.5951845,122.68618 84.2358583,123.06558 C88.3809043,123.66128 92.5464879,123.971554 96.7335716,124.008188 C96.7784974,124.008507 96.8231023,124.030487 96.9444019,124.062343 C96.8295202,124.165555 96.7573181,124.261122 96.6613694,124.311453 C95.7320473,124.800756 94.7991954,125.282731 93.8666643,125.765344 C91.183311,127.15393 88.4993159,128.54188 85.8153208,129.92951 C85.6397893,130.020299 85.4430785,130.083692 85.3259505,130.32675 C86.5238647,130.555792 87.6723604,130.782285 88.8240652,130.994125 C91.5208962,131.489799 94.2135556,132.014461 96.9193718,132.459165 C99.245886,132.841751 101.586841,133.137053 103.923624,133.456883 C105.321137,133.648335 106.721217,133.822267 108.121939,133.985368 C109.268188,134.119161 110.416363,134.241487 111.565822,134.341513 C113.916403,134.545708 116.266985,134.755637 118.620775,134.917782 C120.309664,135.034055 122.003366,135.108597 123.695785,135.144275 C126.28672,135.199067 128.879259,135.247169 131.470193,135.217862 C133.803767,135.192058 136.138946,135.084386 138.4584,134.797686 C141.412592,134.432939 144.339507,133.907959 147.238825,133.238353 C149.735736,132.661767 152.212752,132.005541 154.663133,131.254704 C161.471316,129.16848 168.04075,126.520641 174.257517,123.04583 C177.81949,121.054854 181.205932,118.803617 184.326991,116.177121 C187.671395,113.362996 190.658639,110.22681 193.028796,106.541115 C195.246205,103.092745 196.842675,99.3981301 197.587801,95.3604305 C197.698511,94.7602706 197.774564,94.1537397 197.889446,93.5545355 C197.959401,93.1894701 197.905811,92.8502078 197.786437,92.5077599 C195.895382,87.0728728 193.539024,81.8587452 190.311106,77.063519 C189.670914,76.1123102 188.946004,75.2171674 188.259923,74.2962214 C188.111026,74.0964867 187.961487,73.8973891 187.778896,73.6540122 C187.97657,73.5434732 188.123541,73.4533218 188.277252,73.3762312 C193.224865,70.8854404 196.578254,66.9949137 198.518407,61.8687076 C199.254227,59.9242407 199.635775,57.9096914 199.755149,55.8333422 C199.972077,52.0383824 199.181062,48.44698 197.6446,44.9954237 C195.846927,40.9558128 193.221014,37.4896029 190.09803,34.3833616 C188.64821,32.9412578 187.129398,31.5682806 185.639145,30.166283 C185.550898,30.0831398 185.439867,30.0239202 185.283269,29.9136679 C185.054468,30.834359 184.827272,31.690861 184.629919,32.554212 C184.158519,34.6187746 183.584111,36.6482961 182.653826,38.5631373 C182.229277,39.4369369 181.761407,40.2858891 181.104849,41.0131529 C180.81572,41.333939 180.524665,41.6652374 180.065138,41.8155959 C178.641953,41.61172 177.199193,41.387775 175.75162,41.2017381 C174.150016,40.9956323 172.545523,40.8057728 170.938784,40.642672 C169.382747,40.4846682 167.824464,40.341955 166.263293,40.242884 C164.650778,40.1409461 163.034412,40.0734121 161.419009,40.0393266 C159.828315,40.0058782 158.236017,40.0093824 156.645002,40.0390081 C154.618207,40.0775534 152.598793,40.2260006 150.581946,40.4435744 C148.30838,40.6888627 146.061128,41.0602992 143.849816,41.6308333 C141.633691,42.2023231 139.491693,42.9700435 137.496025,44.1047406 C137.341994,44.1926621 137.177373,44.2621074 136.981946,44.3579928 C136.512151,43.8377906 136.391172,43.1882545 136.253827,42.5536906 C135.931324,41.0634848 136.161088,39.604816 136.627032,38.1881967 C137.505973,35.5151917 138.942636,33.1480007 140.772078,31.0108073 C143.126511,28.2606481 145.9655,26.1011876 149.097148,24.3011221 C151.970794,22.6497269 155.002323,21.3479789 158.147128,20.3022227 C160.533008,19.5090815 162.95868,18.8589083 165.432808,18.4090751 C166.718006,18.1752549 168.018608,18.0219338 169.313112,17.8395285 C170.481183,17.674389 171.650537,17.5209723 172.818929,17.3574574 C172.941833,17.3406695 173.060244,17.2925038 173.220052,17.2481927 C173.161327,17.1564803 173.139506,17.0832124 173.091051,17.0523443 C170.83706,15.636394 168.614516,14.1681685 166.317204,12.8253586 C163.54785,11.2068384 160.583389,9.99470024 157.542876,8.96410728 C155.185556,8.16523208 152.784272,7.52837456 150.338705,7.0735719 C149.030081,6.83016312 147.702844,6.68107882 146.380742,6.51546147 C144.314798,6.25637972 142.237622,6.19120313 140.158199,6.26536301 C134.198151,6.47914606 128.553547,7.91325414 123.263856,10.6581891 C122.061128,11.2826229 120.91552,12.0159074 119.744241,12.6989555 C119.592777,12.7871637 119.442275,12.8763913 119.23337,12.9989717 C117.269792,8.75045164 115.377775,4.52286069 113.419652,0.277741172 C112.573443,0.0908382069 111.704129,0.028620298 110.838024,0.00895939265 C108.395665,-0.0467879394 105.97224,0.166619856 103.557478,0.535448346 C99.2147589,1.19807069 95.0761308,2.4987993 91.1412733,4.42506394 C88.6270335,5.65599688 86.2671459,7.1407554 84.0702747,8.87564422 C81.0397092,11.268925 78.3849158,14.0160898 76.1344546,17.1466688 C76.0898497,17.2083731 76.0433194,17.2704597 75.9894084,17.3249647 C75.9547514,17.3600696 75.9056539,17.380712 75.8141979,17.4393264 C75.684234,17.3964169 75.5141578,17.3545904 75.3562757,17.2861646 C71.1297214,15.447745 66.9172867,13.5768327 62.6753294,11.7741232 C57.4202954,9.54075768 52.1071788,7.44848067 46.6724417,5.5177435 C46.2527064,6.33194125 46.0024056,7.21144301 45.6587233,8.05112526 C45.302205,8.9236825 44.9774558,9.80866343 44.6411541,10.6891846 C44.3141585,11.5457822 43.9910137,12.403654 43.6656227,13.2611435 C43.3405525,14.1183782 43.0141987,14.9753899 42.6891285,15.8328794 C42.355394,16.7140058 42.0213387,17.5951322 41.6904923,18.477501 C41.3686311,19.3357232 41.0509416,20.1958249 40.7306849,21.0549391 C40.4107491,21.9140532 40.0908133,22.7732948 39.7686312,23.6317719 C39.4377848,24.5141406 39.1027668,25.3950122 38.7719204,26.2770306 C38.4513428,27.1320354 38.1339742,27.9880277 37.7957471,28.8952757 C37.2052939,28.8213707 36.6475723,28.7729501 36.0975522,28.6790079 C33.8493373,28.2945106 31.5989723,27.9185824 29.3573358,27.4981201 C23.8133006,26.4593403 18.3184271,25.1977941 12.8640189,23.7710128 C8.97312452,22.7535125 5.10767737,21.6407957 1.23069712,20.5701284 C0.866551122,20.4694646 0.502408331,20.3684186 0,20.2464753 C0.175115278,20.5133935 0.255465377,20.6624778 0.360134768,20.7925125 C3.26251095,24.3908275 6.19109491,27.9688506 9.06438806,31.5901973 C11.3497951,34.4709646 13.5944481,37.3844794 15.8096426,40.319019 C18.4249654,43.7833175 21.0152261,47.2667293 23.5697387,50.7753071 C27.943104,56.7816839 32.1415154,62.9068822 36.0308054,69.2353194 C37.887845,72.2571433 39.6559958,75.3305734 41.1850772,78.5307888 C41.7671871,79.7489476 42.2690723,81.0043775 42.8027266,82.2448353 C42.8608092,82.3795846 42.8864811,82.5273946 42.9487354,82.74465 Z" id="path14" fill="#3065B9"></path>
                        <path d="M127.477253,29.9340874 C127.534052,30.2220303 127.271557,30.3185847 127.128757,30.4731482 C126.227674,31.4490769 125.287763,32.3911112 124.40818,33.3856436 C121.723222,36.4218026 119.370073,39.6847736 117.626632,43.3542223 C116.470113,45.7886286 115.632889,48.3300699 115.353066,51.0091274 C114.86883,55.6422085 115.914317,59.9134098 118.646768,63.7392695 C119.480462,64.9064594 120.421658,65.9806308 121.503727,66.928654 C121.596146,67.0095673 121.702364,67.0745528 121.863776,67.1917814 C121.946888,66.9222829 121.919933,66.701842 121.918007,66.4890465 C121.912552,65.7668796 122.070434,65.0842137 122.313675,64.4018664 C122.740791,63.2031395 123.10822,61.9837064 123.505492,60.7744671 C124.238745,58.5413883 125.148172,56.3869928 126.397109,54.3823188 C127.825107,52.0896699 129.584273,50.0783062 131.615881,48.2966215 C131.885115,48.0605713 132.160125,47.8312109 132.42968,47.5951607 C132.466262,47.5633051 132.485516,47.511699 132.542315,47.423459 C132.476852,47.296355 132.400799,47.142811 132.319612,46.992771 C131.068107,44.6752748 130.644201,42.2134726 130.951942,39.6051346 C131.265139,36.9518801 132.248693,34.53595 133.533892,32.225462 C135.742636,28.2530664 138.815881,25.04425 142.467706,22.3575471 C145.702363,19.9773272 149.223582,18.1060645 152.959483,16.6369789 C154.530923,16.0188844 156.142796,15.5034923 157.736057,14.9396479 C157.806013,14.9147686 157.870834,14.8749491 157.969029,14.8271657 C157.901641,14.5758249 157.659683,14.5802846 157.497309,14.5188352 C155.313273,13.6966735 153.083991,13.0250934 150.80497,12.5096694 C149.026872,12.108002 147.231123,11.7935551 145.418689,11.645108 C143.709583,11.5049751 141.992134,11.3651289 140.270193,11.5196605 C139.325789,11.6046513 138.374325,11.622809 137.432488,11.7273592 C133.62631,12.1496691 130.003366,13.2074031 126.557879,14.8676223 C123.795264,16.199219 121.280061,17.903845 118.911509,19.8333717 C118.377534,20.2681371 117.828798,20.6857324 117.238344,21.1499007 C117.126351,20.978167 117.016924,20.8498844 116.949857,20.7029026 C115.887362,18.3864258 114.829038,16.0679102 113.772641,13.7491716 C112.568308,11.1055375 111.367185,8.46113892 110.163174,5.81750487 C110.089688,5.65625173 110.004329,5.50057332 109.900358,5.29376665 C109.685998,5.28169337 109.461369,5.25518949 109.237061,5.25840691 C107.696106,5.27943162 106.162853,5.417685 104.641153,5.65051772 C101.742476,6.09487174 98.9204949,6.83115064 96.1960666,7.91774578 C91.0141975,9.9851117 86.5514619,13.0677799 82.8344945,17.2150947 C81.1738447,19.0678174 79.7304433,21.0737339 78.419252,23.1788168 C78.2190113,23.4998578 78.011069,23.8167893 77.7864401,24.1665959 C68.5336525,19.9072767 59.245887,15.8599885 49.7152013,12.2140175 C48.7332519,14.7179328 47.8055343,17.1936877 46.8819884,19.6712266 C45.9658232,22.1290786 45.0326503,24.5807189 44.1161642,27.0386984 C43.1906929,29.5203148 42.276453,32.0059768 41.3541907,34.4989975 C40.9081418,34.6372509 40.4723616,34.5321273 40.0519846,34.4770171 C37.9683905,34.2030588 35.8835129,33.929419 33.8082623,33.6006691 C30.3904686,33.058805 26.9883026,32.4258339 23.6108458,31.6730856 C20.7347929,31.0318639 17.8661528,30.3587865 14.9937261,29.7021148 C14.7793979,29.6534713 14.5636579,29.5467231 14.283,29.6894363 C22.1119288,39.7328756 29.7172235,49.9139312 36.7630958,60.5610345 C38.1429593,60.3718121 39.4724419,59.9955973 40.8218201,59.7283286 C42.1779372,59.4594672 43.5225019,59.1329471 44.8734846,58.8392383 C46.2235047,58.5455295 47.5754501,58.2604217 48.9251492,57.9718098 C50.6695535,55.293708 52.3934203,52.6461876 54.1099064,50.0101352 C57.747291,49.578173 61.3342945,49.1519448 64.9678283,48.7199826 C66.6891279,45.9902747 68.4145992,43.2535585 70.1464884,40.5069671 C73.3551526,40.7643605 76.5214582,41.0185683 79.7086222,41.2740504 C82.3884456,39.131123 85.062172,36.9932924 87.7371819,34.8541876 C90.9253086,35.5371721 94.0787782,36.2121927 97.2864797,36.8989998 C99.8921756,34.8118197 102.430162,32.6319397 105.068589,30.4985052 C108.26891,31.7530751 111.435216,33.061672 114.644522,34.3323926 C116.248693,33.7733265 117.86891,33.2120305 119.48688,32.644682 C121.928276,31.7884348 124.367426,30.9260714 126.810105,30.0735832 C127.022219,29.9993914 127.252624,29.9771243 127.474686,29.9312204 C127.52603,29.8885339 127.577373,29.8458473 127.628717,29.8034157 C127.644762,29.8327865 127.660165,29.8627627 127.67621,29.8923884 C127.609784,29.9063412 127.543679,29.9203895 127.477253,29.9340874" id="path16" fill="#FFFFFF"></path>
                        <path d="M168.827914,71.2282068 C169.041632,70.9529743 169.128917,70.8335157 169.223582,70.7201097 C169.566622,70.3091723 169.927633,69.9122512 170.253987,69.4888901 C171.438423,67.9524936 172.484873,66.3284942 173.435696,64.6379165 C174.953225,61.9391085 176.15146,59.1138338 177.008259,56.1436159 C177.08367,55.8827184 177.200156,55.6336075 177.301881,55.3682502 C177.606734,55.3682502 177.861528,55.3621976 178.116,55.3688873 C178.821014,55.3876821 179.488483,55.2220329 180.134773,54.962091 C181.28744,54.4985918 182.309181,53.8289867 183.223421,52.9956437 C184.917123,51.4519204 186.281905,49.6479368 187.478856,47.7079296 C188.336618,46.3164762 189.084953,44.8689569 189.799273,43.4020057 C189.859602,43.2784059 189.963573,43.1755123 190.086156,43.0111373 C190.219971,43.2159689 190.325547,43.3545408 190.406734,43.505855 C191.213152,45.0123072 191.918487,46.5662243 192.52306,48.1615536 C193.255029,50.0929598 193.800878,52.0804318 193.956513,54.1411717 C194.079418,55.7632598 194.010424,57.3761098 193.57689,58.9800402 C192.886317,61.5342236 191.480461,63.6083429 189.482226,65.2906381 C187.851098,66.6639338 185.981544,67.6648374 184.000958,68.4679175 C182.170874,69.2098349 180.29105,69.7749535 178.356674,70.17729 C176.929639,70.4738658 175.49811,70.7344448 174.04797,70.8908558 C173.438263,70.9564784 172.82663,71.0084031 172.21949,71.0912277 C171.148652,71.237445 170.075246,71.1743708 168.827914,71.2282068 Z M186.869149,35.0360832 C186.472198,36.1570824 186.132687,37.2252013 185.717765,38.264013 C184.570232,41.1380269 182.931724,43.7129165 180.743838,45.915414 C178.417645,48.2568019 175.662089,49.9381415 172.510866,50.9689893 C172.316081,51.0327005 172.121616,51.0986416 171.928435,51.1671312 C171.880942,51.1840147 171.837942,51.2136404 171.763814,51.2528228 C171.434252,52.1071905 171.124264,52.9965994 170.753305,53.8605237 C168.482306,59.1444152 165.426069,63.9026889 161.14079,67.8161516 C158.329398,70.384033 155.131966,72.3237216 151.467626,73.4584187 C149.549615,74.052526 147.586679,74.3892398 145.575287,74.489585 C144.135736,74.5615787 142.701962,74.5185737 141.271396,74.409946 C139.060406,74.2423854 136.901401,73.8158387 134.872038,72.8853361 C133.459443,72.2380299 132.189327,71.3890777 131.18331,70.1909879 C129.742476,68.4746072 129.085596,66.4950991 129.124746,64.263613 C129.159082,62.3115007 129.718087,60.5036944 130.560767,58.7666075 C131.413073,57.0100887 132.530121,55.4246346 133.832969,53.9742483 C135.685195,51.911597 137.72964,50.0617413 140.120654,48.6218673 C141.909984,47.5438732 143.838905,46.8010002 145.862812,46.2798423 C148.08696,45.7070782 150.355712,45.4729394 152.640189,45.4305715 C153.995985,45.4054055 155.35852,45.4958755 156.711428,45.6121485 C158.038023,45.7255545 159.362371,45.8972563 160.676129,46.114193 C164.099154,46.6796303 167.438423,47.5642608 170.660565,48.8531391 C171.120734,49.0372646 171.523141,49.0487326 171.99069,48.8830834 C174.288323,48.0685352 176.370954,46.8946557 178.212912,45.3050603 C178.496586,45.0597721 178.811067,44.8386941 179.037942,44.4701246 C178.610505,44.245861 178.16574,44.242994 177.74793,44.1872467 C175.359161,43.8699647 172.971355,43.533888 170.574244,43.2908296 C167.741352,43.0034919 164.89787,42.8387984 162.049896,42.7339934 C159.66209,42.6463904 157.278135,42.6878027 154.893859,42.7906964 C151.891212,42.9206673 148.907176,43.2357194 145.969992,43.8772915 C143.610426,44.3927154 141.292897,45.0686917 139.174966,46.2578619 C135.35852,48.4007893 132.006736,51.0862179 129.444682,54.6661523 C127.944481,56.7625706 126.9083,59.0826153 126.10124,61.5122433 C125.667706,62.8173679 125.248613,64.1269524 124.804169,65.4282544 C124.445404,66.4769414 124.610025,67.4912243 124.96911,68.4924463 C125.478376,69.9116141 126.354429,71.0985545 127.407618,72.161895 C129.432488,74.2067071 131.886078,75.544006 134.621096,76.391684 C136.439307,76.9548913 138.302443,77.2645279 140.21211,77.3620061 C142.195584,77.463307 144.157237,77.329832 146.116964,77.0612891 C148.123542,76.7860566 150.136859,76.5547848 152.13702,76.2400513 C156.189326,75.6016647 160.232327,74.8916029 164.146967,73.6438184 C165.297709,73.2768417 166.416362,73.3348189 167.561007,73.4068126 C169.357076,73.5199 171.152182,73.4991939 172.946967,73.4189177 C173.971596,73.3730456 174.994941,73.2943622 176.017645,73.2128119 C178.089687,73.0477998 180.146646,72.7668332 182.189165,72.3839287 C182.768387,72.275301 183.343116,72.144693 183.922017,72.0331983 C186.054388,71.6219423 187.948972,70.6857057 189.677332,69.4117995 C192.046846,67.6654745 193.881102,65.4578801 195.186517,62.8361628 C196.123862,60.9538143 196.718487,58.9641124 196.968146,56.8648271 C197.381142,53.3893791 196.814115,50.0649268 195.510946,46.8468723 C194.263613,43.7680268 192.457596,41.0233467 190.271315,38.5296889 C189.278776,37.3975402 188.193176,36.3463048 187.147368,35.2600282 C187.079337,35.1889902 186.992695,35.1345171 186.869149,35.0360832 Z" id="path18" fill="#F7BD15"></path>
                        <path d="M160.898833,81.9033431 C161.434733,81.8651163 161.964858,81.9039802 162.49081,81.9590904 C165.352904,82.2588518 168.166863,82.8093169 170.927874,83.6139898 C174.829679,84.7502797 178.54793,86.3172576 182.106694,88.272874 C185.780019,90.2909274 189.181865,92.6851957 192.375446,95.3808181 C192.528836,95.5101519 192.68736,95.6331146 192.888884,95.7958968 C192.977131,95.4865787 192.907817,95.2486173 192.860645,95.0106558 C192.435454,92.8562603 191.765097,90.7744957 190.944239,88.7405144 C189.118647,84.2151053 186.603445,80.0936254 183.511588,76.3136377 C183.236899,75.977561 182.952262,75.6494481 182.675326,75.3149641 C182.609863,75.2359622 182.556273,75.1474036 182.503646,75.0728614 C181.709101,75.1856303 180.978094,75.2987177 180.24452,75.3914176 C178.998792,75.5487843 177.753064,75.7093367 176.504127,75.838989 C173.564697,76.144803 170.61564,76.173473 167.664336,76.0931969 C167.152182,76.0794989 166.640991,76.0138764 166.128837,76.0027269 C165.878536,75.9969929 165.615399,76.025663 165.376971,76.099568 C162.361167,77.0323005 159.285676,77.721019 156.178095,78.2539635 C153.324023,78.7432658 150.458079,79.1647156 147.59406,79.5903066 C146.529639,79.7486291 145.455913,79.8441959 144.384112,79.9477267 C144.038504,79.9811751 143.750337,80.0904398 143.471156,80.2971828 C141.932447,81.4366583 140.658159,82.8220591 139.574806,84.3858514 C137.877253,86.8368227 136.817004,89.551877 136.29394,92.4673032 C136.037542,93.895072 135.901802,95.3432284 135.988123,96.8018972 C136.173282,99.9345787 136.986118,102.869118 138.775769,105.492428 C139.045644,105.888394 139.312632,106.294871 139.709904,106.627763 C140.466904,106.161715 141.203366,105.708091 141.982507,105.228345 C141.87276,105.0662 141.800879,104.938778 141.709102,104.828239 C140.025668,102.800629 139.150257,100.449684 138.848613,97.8614151 C138.454549,94.4796226 139.070674,91.2679392 140.524666,88.2107555 C141.895544,85.3281406 143.89057,82.9816558 146.748492,81.4484449 C148.977453,80.2525849 151.340229,79.881467 153.817565,80.5348257 C155.932287,81.0926176 157.597108,82.3136434 158.903807,84.0351211 C159.841151,85.2704819 160.474605,86.6536529 160.901079,88.1352577 C160.928355,88.2308245 160.963333,88.323843 161.005692,88.4519025 C161.851901,88.2066143 162.67661,87.9676971 163.490088,87.731647 C163.613313,87.4768021 163.503245,87.2620952 163.437461,87.0492997 C162.945203,85.4562002 162.236979,83.9679057 161.257276,82.608945 C161.115118,82.4123959 160.884071,82.2502508 160.898833,81.9033431" id="path20" fill="#FFFFFF"></path>
                        <path d="M121.864096,113.687286 C122.4584,113.798462 123.049496,113.930663 123.647329,114.016992 C124.784273,114.181367 125.922821,114.333955 127.064257,114.462333 C127.8511,114.551211 128.643398,114.593897 129.433771,114.65283 C130.657357,114.743937 131.880622,114.834726 133.10485,114.918824 C133.385957,114.938256 133.66899,114.934115 133.95106,114.934434 C135.079981,114.935708 136.210185,114.968201 137.337181,114.925514 C138.536378,114.880279 139.732688,114.762413 140.930281,114.677359 C141.057999,114.668121 141.186358,114.660794 141.314397,114.659201 C142.21195,114.647733 143.091533,114.480491 143.978817,114.373138 C145.222941,114.222461 146.450057,113.988959 147.673322,113.731566 C149.803446,113.283357 151.871958,112.637644 153.881424,111.799522 C155.136779,111.276134 156.353947,110.677886 157.495704,109.951578 C159.206093,108.863709 160.524986,107.384652 161.57272,105.663175 C162.700999,103.810133 163.586679,101.839226 164.45856,99.8600366 C165.105812,98.3921297 165.797348,96.9404691 166.668909,95.5894724 C167.56229,94.2043901 168.668427,93.018724 170.145844,92.2105469 C171.099875,91.6887519 172.116482,91.382938 173.188925,91.2469145 C173.770393,91.173328 174.354749,91.1229961 175.00521,91.0551437 C174.859522,90.9538428 174.753947,90.8627357 174.63361,90.7990245 C172.996706,89.9306403 171.275728,89.3330289 169.426069,89.0718129 C168.191251,88.8972441 166.977292,88.9373822 165.764617,89.1495406 C163.238825,89.5916966 161.100678,90.7716287 159.304609,92.5756123 C158.366943,93.5172644 157.423823,94.4544567 156.503807,95.4133108 C155.001681,96.9780588 153.530361,98.572751 152.01925,100.129217 C150.291853,101.908353 148.413634,103.52853 146.436579,105.023195 C143.801681,107.015446 140.977453,108.703156 137.927955,110.014015 C135.739427,110.954711 133.492175,111.709371 131.176892,112.260473 C129.589086,112.638599 127.989728,112.960022 126.36181,113.143192 C125.371838,113.254687 124.389889,113.416832 123.389327,113.442635 C122.883591,113.455377 122.380101,113.557952 121.87597,113.620071 C121.871798,113.642688 121.868268,113.664987 121.864096,113.687286" id="path22" fill="#98AEDF"></path>
                        <path d="M150.964136,70.7752199 C154.60505,69.6660073 158.382026,67.0681816 160.866101,64.2776295 C160.86931,64.2534192 160.875086,64.2285718 160.874124,64.2046801 C160.873161,64.1795142 160.873161,64.1489328 160.859683,64.1310936 C156.865138,59.0271865 152.870273,53.924235 148.873482,48.8225577 C148.780101,48.7034177 148.669391,48.597657 148.551942,48.4692789 C144.32988,49.0930119 140.710145,50.879475 137.671236,53.9296504 C139.360767,57.0693402 141.323382,60.0436993 143.514798,62.8680184 C145.740229,65.7353426 148.178095,68.4096217 150.964136,70.7752199" id="path24" fill="#FFFFFF"></path>
                        <path d="M135.288244,56.4131144 C134.989808,56.7979303 134.749134,57.0900463 134.528356,57.3964974 C133.416764,58.9395835 132.513434,60.583652 132.058079,62.4449758 C131.724666,63.8074406 131.682307,65.1619414 132.12964,66.5107083 C132.563815,67.8199742 133.40842,68.8176922 134.521296,69.6070744 C135.818047,70.5267461 137.292897,71.0275164 138.831605,71.3591334 C141.284553,71.8876181 143.768308,71.9140583 146.259764,71.7726194 C146.482788,71.7598771 146.702925,71.6974401 147.020293,71.6413742 C144.645965,69.3713428 142.534453,66.9834457 140.598472,64.4461457 C138.664738,61.9117127 136.913916,59.2539985 135.288244,56.4131144" id="path26" fill="#FFFFFF"></path>
                        <path d="M168.949214,51.0992788 C164.321857,49.1924014 156.154027,47.7620842 152.630562,48.197869 C152.656234,48.2695442 152.664577,48.3498203 152.706936,48.4039749 C156.149214,52.7994131 159.593738,57.1926214 163.079017,61.638073 C163.250698,61.457133 163.398632,61.3306662 163.510947,61.1780778 C165.443076,58.5617759 167.035696,55.7546588 168.287521,52.7583194 C168.511187,52.223145 168.718167,51.6809623 168.949214,51.0992788" id="path28" fill="#FFFFFF"></path>
                        <path d="M145.334934,85.8837026 C143.335095,88.0138878 142.163815,90.5521435 141.671236,93.3965316 C141.284553,95.6305661 141.33686,97.8559996 142.077173,100.030783 C142.483751,101.224094 143.062331,102.319927 143.931324,103.250749 C143.98331,103.306496 144.034974,103.363836 144.092736,103.413531 C144.130923,103.445705 144.179379,103.465774 144.266342,103.516424 C144.961729,103.126512 145.545444,102.554703 146.171517,102.043739 C146.784754,101.542969 147.36911,101.00652 147.95122,100.470072 C148.545203,99.922155 149.151059,99.3844322 149.732527,98.7250209 C149.503085,98.6116149 149.351942,98.5291088 149.195022,98.4603007 C147.026069,97.5110033 145.600317,95.8812698 144.848773,93.6787724 C144.020213,91.2513743 144.228476,88.8708039 145.318889,86.5584046 C145.394942,86.3972152 145.478376,86.2395298 145.5586,86.0802518 C145.483831,86.0146292 145.409383,85.9493252 145.334934,85.8837026" id="path30" fill="#FFFFFF"></path>
                        <path d="M145.334934,85.8837026 C145.409383,85.9493252 145.483831,86.0146292 145.5586,86.0802518 C145.770393,85.8964448 145.927634,85.6811009 145.990209,85.3886663 C145.637862,85.4746765 145.636579,85.4737208 145.334934,85.8837026" id="path32" fill="#98AEDF"></path>
                        <path d="M127.481055,30.3034157 C127.645864,30.2510022 127.809877,30.1972479 127.974686,30.1438593 C127.934877,30.0305 127.89666,29.9157999 127.856852,29.8034157 C127.729463,29.9657755 127.602074,30.1291104 127.474686,30.2924454 L127.481055,30.3034157" id="path34" fill="#3065B9"></path>
                        <path d="M168.827914,71.2282068 C170.075246,71.1743708 171.148652,71.237445 172.21949,71.0912277 C172.82663,71.0084031 173.438263,70.9564784 174.04797,70.8908558 C175.49811,70.7344448 176.929639,70.4738658 178.356674,70.17729 C180.29105,69.7749535 182.170874,69.2098349 184.000958,68.4679175 C185.981544,67.6648374 187.851098,66.6639338 189.482226,65.2906381 C191.480461,63.6083429 192.886317,61.5342236 193.57689,58.9800402 C194.010424,57.3761098 194.079418,55.7632598 193.956513,54.1411717 C193.800878,52.0804318 193.255029,50.0929598 192.52306,48.1615536 C191.918487,46.5662243 191.213152,45.0123072 190.406734,43.505855 C190.325547,43.3545408 190.219971,43.2159689 190.086156,43.0111373 C189.963573,43.1755123 189.859602,43.2784059 189.799273,43.4020057 C189.084953,44.8689569 188.336618,46.3164762 187.478856,47.7079296 C186.281905,49.6479368 184.917123,51.4519204 183.223421,52.9956437 C182.309181,53.8289867 181.28744,54.4985918 180.134773,54.962091 C179.488483,55.2220329 178.821014,55.3876821 178.116,55.3688873 C177.861528,55.3621976 177.606734,55.3682502 177.301881,55.3682502 C177.200156,55.6336075 177.08367,55.8827184 177.008259,56.1436159 C176.15146,59.1138338 174.953225,61.9391085 173.435696,64.6379165 C172.484873,66.3284942 171.438423,67.9524936 170.253987,69.4888901 C169.927633,69.9122512 169.566622,70.3091723 169.223582,70.7201097 C169.128917,70.8335157 169.041632,70.9529743 168.827914,71.2282068" id="path36" fill="#FFFFFF"></path>
                    </g>
                </g>
            </g>
        </g>
    </g>
</svg>