<?xml version="1.0" encoding="UTF-8"?>
<svg width="200px" height="200px" viewBox="0 0 200 200" version="1.1" xmlns="http://www.w3.org/2000/svg" xmlns:xlink="http://www.w3.org/1999/xlink">
    <!-- Generator: Sketch 51.3 (57544) - http://www.bohemiancoding.com/sketch -->
    <title>nova-southeastern</title>
    <desc>Created with Sketch.</desc>
    <defs></defs>
    <g id="nova-southeastern" stroke="none" stroke-width="1" fill="none" fill-rule="evenodd">
        <g id="nova-southeastern_BGL" transform="translate(0.000000, 32.835821)">
            <g id="nova-southeastern">
                <g id="g10" transform="translate(99.999998, 67.711523) scale(-1, 1) rotate(-180.000000) translate(-99.999998, -67.711523) translate(0.000000, 0.258783)" fill-rule="nonzero">
                    <g id="g12">
                        <path d="M121.252561,70.3281784 C122.38504,70.4673262 138.979911,74.550126 148.482048,78.3520849 C157.984611,82.1540437 161.244868,82.5774263 162.664526,85.3921995 C164.083757,88.2082453 164.792304,90.4587912 165.358116,91.3051322 C165.927346,92.1497762 169.898714,94.4045644 169.898714,94.4045644 C169.898714,94.4045644 176.137175,97.9235611 177.415808,99.471156 C178.691876,101.020024 179.543158,102.569316 179.543158,102.990577 C179.543158,103.412687 182.308542,106.09807 169.472218,108.200983 C154.540594,110.64413 136.993586,112.001669 132.456407,111.860824 C127.917518,111.71998 125.930766,112.143362 124.513672,111.71998 C123.096151,111.297446 117.138459,111.158722 116.570937,111.016605 C116.005125,110.874063 86.646579,102.005088 85.085468,100.457069 C83.5252116,98.9086256 67.3568359,86.3759914 67.3568359,85.9555784 C67.3568359,85.5321958 65.3717932,81.1689792 65.3717932,81.1689792 C65.3717932,81.1689792 59.9807677,80.4647556 62.2512805,78.3520849 C64.5209386,76.2398384 66.2230753,74.6909707 75.8662374,70.8902846 C85.5128184,67.0883257 82.1076903,66.947481 86.5029893,66.947481 C90.9012798,66.947481 99.9764932,67.6521288 102.104698,67.6521288 C104.232903,67.6521288 121.252561,70.3281784 121.252561,70.3281784" id="path14" fill="#FFFFFF"></path>
                        <path d="M57.2504259,81.1057688 C57.2504259,81.1057688 62.1764942,84.5568885 71.0132461,89.5899659 C79.8478613,94.6226191 85.0619637,97.2100044 89.6974337,96.9232242 C94.334613,96.6347471 94.768801,96.4900843 94.768801,96.4900843 C94.768801,96.4900843 95.6367497,97.9299246 95.9256386,98.3609433 C96.2162369,98.7923863 98.0991428,100.950026 98.244442,100.516886 C98.3888864,100.085018 99.1132454,99.0783181 99.4021343,98.3609433 C99.6931599,97.6414474 99.7085445,95.6378041 100.126493,95.4859294 C100.545724,95.3323577 101.140596,95.0540621 101.429485,94.3358389 C101.720083,93.6154946 101.720083,92.8964229 102.299997,92.3215898 C102.879912,91.745484 102.444442,92.0335369 103.024356,91.3148895 C103.604271,90.5953936 105.039314,90.1058309 104.031621,90.278493 C103.024356,90.4524277 99.9816214,91.1710751 98.3888864,92.0335369 C96.7948694,92.8964229 93.0290575,94.0469376 93.0290575,94.0469376 C93.0290575,94.0469376 90.5662371,94.3358389 91.7256387,93.4725287 C92.8850404,92.6087942 97.8089719,92.3215898 93.7546985,92.1765028 C89.6974337,92.0335369 90.8559806,91.8897226 88.103844,91.6008212 C85.3529893,91.3148895 83.7593996,91.0268366 82.7457244,90.5953936 C81.7316219,90.1639506 81.5858954,89.7320834 83.1799125,89.7320834 C84.7726475,89.7320834 89.6974337,89.5899659 90.4213653,89.5899659 C91.1452969,89.5899659 97.0850403,89.0147086 97.0850403,89.0147086 C97.0850403,89.0147086 89.6974337,88.1505499 87.5243568,88.1505499 C85.3529893,88.1505499 84.6273483,88.2947885 82.3111091,88.1505499 C79.9910236,88.0080083 83.1799125,87.2876639 79.9910236,86.7119824 C76.8064083,86.1371493 77.5303399,87.1438496 75.6465793,85.9946076 L78.2542715,84.8436687 L77.2405964,84.2692599 L74.9235024,78.6613493 C74.9235024,78.6613493 85.78675,77.654649 86.3658098,76.9347289 C86.945297,76.2148088 83.9055535,75.78379 83.9055535,75.78379 L62.3209386,75.78379 C62.3209386,75.78379 59.1333319,69.1700276 59.1333319,69.6018948 C59.1333319,70.0324894 57.20299,68.2961116 57.20299,68.2961116 L53.4841867,75.78379 L57.2504259,80.6739015" id="path16" fill="#D3D5D7"></path>
                        <polyline id="path18" fill="#B3B5B7" points="91.2897413 75.76173 59.8576908 75.76173 57.20299 68.2961116 55.3200841 75.7507 25.8650421 75.7507 18.0476919 54.874289 23.7316233 54.874289 15.2035039 32.1023711 8.74867499 32.1023711 1.08556835 11.6400097 39.3112383 11.6400097 42.7606827 20.8518056 45.0841869 11.6400097 62.7089728 11.6400097 74.6329041 0.868350094 97.7534164 0.7525138 117.964954 9.5022669 121.004698 17.6186982 125.976065 11.6582516 158.792731 11.6582516 175.739739 23.1562288 187.066235 54.874289 190.935038 54.874289 198.753414 75.7507 166.202987 75.760033 163.363244 75.76173 148.169654 75.76173"></polyline>
                        <path d="M91.2897413,75.0116894 L163.363244,75.0116894 C163.363244,75.0116894 192.05085,75.0023564 197.665807,75.0010837 C196.997858,73.217192 190.741021,56.5080028 190.410679,55.6239053 C189.625209,55.6239053 186.530337,55.6239053 186.530337,55.6239053 C186.530337,55.6239053 175.271363,24.0908522 175.109397,23.6359493 C174.71709,23.3699988 158.931193,12.6607945 158.559825,12.4079104 C158.103842,12.4079104 127.020082,12.4079104 126.331621,12.4079104 C125.918373,12.9017577 120.75427,19.0971859 120.75427,19.0971859 C120.75427,19.0971859 117.576493,10.614219 117.3688,10.059749 C116.802989,9.81632516 97.8811941,1.62483894 97.5982882,1.50137921 C97.2871771,1.50303796 75.4871776,1.61257442 74.9260665,1.61671916 C74.5136734,1.98874859 63.0008531,12.3870382 63.0008531,12.3870382 C63.0008531,12.3870382 46.7735031,12.3870382 45.6717937,12.3870382 C45.4205117,13.3883084 42.902563,23.3794591 42.902563,23.3794591 C42.902563,23.3794591 39.1145717,13.2640087 38.7858965,12.3870382 C37.7943153,12.3870382 4.19337596,12.3870382 2.17064097,12.3870382 C2.838376,14.1680026 8.94316217,30.4682331 9.27316216,31.3531791 C10.1595724,31.3531791 15.7279911,31.3531791 15.7279911,31.3531791 L24.8176917,55.6239053 C24.8176917,55.6239053 20.5532046,55.6239053 19.133632,55.6239053 C19.801367,57.4077969 26.0575207,74.1161376 26.389401,75.0010837 C27.3809822,75.0010837 53.6217935,75.0010837 54.7320499,75.0010837 C54.9769217,74.0329884 57.0803405,65.6993932 57.0803405,65.6993932 C57.0803405,65.6993932 60.0833318,74.140743 60.3918788,75.0116894 C61.4247848,75.0116894 91.2897413,75.0116894 91.2897413,75.0116894 Z M91.2897413,76.5100736 L59.3235028,76.5100736 C59.3235028,76.5100736 58.110255,73.0992558 57.3260669,70.891133 C56.7683746,73.09968 55.910255,76.4990436 55.910255,76.4990436 L25.3405549,76.4990436 L16.959615,54.1250969 C16.959615,54.1250969 21.2239738,54.1250969 22.6457259,54.1250969 C21.9693157,52.3212664 15.0135039,33.7429575 14.6798287,32.8507148 C13.7937176,32.8507148 8.22316219,32.8507148 8.22316219,32.8507148 L0,10.8891631 L39.8362383,10.8891631 C39.8362383,10.8891631 41.654999,15.747924 42.6195288,18.3233036 C43.276922,15.7172521 44.494016,10.8891631 44.494016,10.8891631 C44.494016,10.8891631 61.8504258,10.8891631 62.4170925,10.8891631 C62.8320497,10.5128277 74.3393144,0.118320591 74.3393144,0.118320591 L97.9081172,0 L118.558971,8.94283339 C118.558971,8.94283339 120.598288,14.3839363 121.256835,16.1433074 C122.412817,14.7569626 125.621364,10.9090171 125.621364,10.9090171 L159.026492,10.9090171 L176.368372,22.6746416 C176.368372,22.6746416 187.251277,53.1591228 187.597859,54.1250969 C188.390166,54.1250969 191.458115,54.1250969 191.458115,54.1250969 L199.839311,76.4990436 L163.363244,76.5100736 L91.2897413,76.5100736 Z" id="path20" fill="#231F20"></path>
                        <polyline id="path22" fill="#1C4E9D" points="87.7034166 71.021372 83.4952971 59.6651305 79.6474339 59.6651305 63.6123916 16.4283482 49.0183748 16.4283482 42.6732895 47.5635149 42.2108536 47.5635149 34.6267513 27.3131842 39.3521358 27.3131842 35.2761102 16.4283482 8.69773483 16.4283482 12.7741022 27.3131842 17.9340166 27.3131842 30.0502557 59.6651305 24.801025 59.6651305 29.0319651 70.9624039 50.7717936 70.9624039 58.0393148 42.1821438 64.6538445 59.6651305 59.5132464 59.6651305 63.7457249 70.9806458 87.7034166 71.021372"></polyline>
                        <polyline id="path24" fill="#1C4E9D" points="191.99914 70.9624039 187.767944 59.6651305 183.897859 59.6651305 171.030338 25.3032198 157.548287 16.4473962 131.10427 16.4473962 123.744869 25.3032198 136.612817 59.6651305 132.611535 59.6651305 136.818373 70.9004661 160.178201 70.9004661 155.971364 59.6651305 152.153842 59.6651305 141.552561 31.4469766 143.485466 27.2296531 155.459825 27.400194 159.322646 30.8729071 169.871363 59.6651305 164.884184 59.6651305 169.114953 70.9624039 191.99914 70.9624039"></polyline>
                        <polyline id="path26" fill="#1C4E9D" points="128.382475 54.1501265 124.958544 45.013462 109.223929 45.013462 111.54786 51.2178414 110.28504 52.9262199 101.447861 52.9262199 98.6487155 51.2178414 94.6709378 41.1104937 113.598715 41.1104937 121.225638 33.2698126 114.258972 14.6626561 98.4619634 6.40423466 77.5529895 6.40423466 68.5978615 14.3890695 72.2850409 24.2350484 88.4226474 24.2350484 86.0470064 17.8897818 87.5598269 15.8407033 96.3957241 15.8407033 99.4363223 17.8897818 103.74957 29.6754725 85.2076902 29.8179717 77.5628186 38.187584 83.5397415 54.1501265 99.8760659 62.4446924 118.168373 62.4446924 128.382475 54.1501265"></polyline>
                        <path d="M85.211109,69.2913577 C84.2564082,66.7171235 82.8059808,62.8061373 82.2824766,61.390054 C81.1448698,61.390054 78.4333314,61.390054 78.4333314,61.390054 C78.4333314,61.390054 63.1944429,20.295978 62.4004258,18.1541202 C60.5794857,18.1541202 52.5431611,18.1541202 50.4401697,18.1541202 C49.9256398,20.6796102 44.0944433,49.2905596 44.0944433,49.2905596 L41.0039306,49.2905596 L32.1275633,25.5866061 C32.1275633,25.5866061 35.7443581,25.5866061 36.8511102,25.5866061 C35.9154692,23.0882669 34.5836743,19.5312167 34.0681615,18.1541202 C32.0835035,18.1541202 15.0971364,18.1541202 11.1992732,18.1541202 C12.1335894,20.6532654 13.4653843,24.2100187 13.9810253,25.5866061 C15.3999569,25.5866061 19.1427773,25.5866061 19.1427773,25.5866061 L32.5508966,61.390054 C32.5508966,61.390054 28.6722215,61.390054 27.300854,61.390054 C28.2623925,63.9570762 29.7128625,67.8298816 30.23923,69.2357834 C32.2519223,69.2357834 47.1726484,69.2357834 49.4158107,69.2357834 C50.0170928,66.8554229 57.710255,36.3977107 57.710255,36.3977107 L67.1611094,61.390054 C67.1611094,61.390054 63.332477,61.390054 62.0123916,61.390054 C62.972648,63.9596216 64.4307676,67.8510932 64.9551266,69.2565707 C66.892306,69.2603888 81.4299125,69.2837215 85.211109,69.2913577 Z M87.7012799,72.7454471 L62.5363232,72.7025997 L57.0128191,57.9380858 C57.0128191,57.9380858 60.828631,57.9380858 62.1427335,57.9380858 C61.2705113,55.6323899 59.9444429,52.122302 58.3713661,47.9665345 C56.5777764,55.0681626 52.1282038,72.6869032 52.1282038,72.6869032 L27.8225207,72.6869032 L22.2995294,57.9380858 C22.2995294,57.9380858 26.1785464,57.9380858 27.5504267,57.9380858 C26.10376,54.0814011 17.4526064,30.9765043 16.7264098,29.0373017 C15.3091449,29.0373017 11.5656835,29.0373017 11.5656835,29.0373017 L6.19606822,14.7029156 L36.4828623,14.7029156 L41.8527767,29.0373017 C41.8527767,29.0373017 38.2358537,29.0373017 37.1285888,29.0373017 C38.1214948,31.6930306 40.2298708,37.3192255 42.0150417,42.0900008 C43.4752126,34.929447 47.5957253,14.7029156 47.5957253,14.7029156 L64.82393,14.7029156 C64.82393,14.7029156 80.0645279,55.7957189 80.8593997,57.9380858 C81.9970065,57.9380858 84.7072628,57.9380858 84.7072628,57.9380858 L90.197861,72.7496894 L87.7012799,72.7454471 Z" id="path28" fill="#FFFFFF"></path>
                        <path d="M189.499995,69.2357834 C188.538457,66.6696097 187.087175,62.79638 186.560252,61.390054 C185.417517,61.390054 182.687602,61.390054 182.687602,61.390054 C182.687602,61.390054 169.980338,27.4558531 169.599141,26.4325653 C168.749568,25.8729621 157.812817,18.6911967 157.024782,18.1731682 C156.051706,18.1731682 133.430339,18.1731682 131.923074,18.1731682 C131.106834,19.1565358 126.705552,24.4539516 125.724783,25.6346715 C126.386749,27.3993455 139.114526,61.390054 139.114526,61.390054 C139.114526,61.390054 135.814954,61.390054 135.113244,61.390054 C136.0688,63.9468947 137.501706,67.7730347 138.026065,69.1746941 C139.95427,69.1746941 153.921364,69.1746941 157.679056,69.1746941 C156.720082,66.6199746 155.288458,62.7921377 154.763671,61.390054 C153.632475,61.390054 150.945723,61.390054 150.945723,61.390054 L139.67521,31.3824934 L142.373928,25.4869967 L156.141022,25.6833732 L160.808543,29.8819457 L172.354269,61.390054 C172.354269,61.390054 168.629056,61.390054 167.387175,61.390054 C168.34615,63.9570762 169.797004,67.8298816 170.3235,69.2357834 C172.241449,69.2357834 185.767517,69.2357834 189.499995,69.2357834 Z M191.99914,72.6869032 L167.906406,72.6869032 L162.386748,57.9380858 C162.386748,57.9380858 166.137603,57.9380858 167.390594,57.9380858 C165.978201,54.0835223 158.099996,32.5839158 157.837603,31.8635715 C157.372646,31.4469766 155.452988,29.7203561 154.779483,29.1171844 C153.724355,29.0997485 146.34786,28.9953452 144.597432,28.970358 C144.168372,29.907442 143.735039,30.8497016 143.432902,31.5122657 C143.893586,32.7345603 152.599996,55.9191701 153.36068,57.9380858 C154.488885,57.9380858 157.177346,57.9380858 157.177346,57.9380858 L162.679483,72.6262381 L135.61068,72.6262381 L130.109398,57.9380858 C130.109398,57.9380858 133.407689,57.9380858 134.113245,57.9380858 C132.599142,53.893891 121.766664,24.9722771 121.766664,24.9722771 L130.282903,14.7229817 L158.072218,14.7229817 L172.461962,24.1751894 C172.461962,24.1751894 184.318371,55.8360208 185.104696,57.9380858 C186.25085,57.9380858 188.976064,57.9380858 188.976064,57.9380858 L194.500422,72.6869032 L191.99914,72.6869032 Z" id="path30" fill="#FFFFFF"></path>
                        <path d="M117.547433,60.7189204 C118.333758,60.0817254 124.821792,54.8093816 126.316664,53.5956565 C125.752134,52.0803031 124.305552,48.2181035 123.749997,46.737537 C122.044441,46.737537 114.940595,46.737537 111.724784,46.737537 C112.404271,48.5553672 113.503416,51.4876523 113.503416,51.4876523 L111.164527,54.6519919 L100.954698,54.6519919 L97.2427326,52.3827799 L92.1260661,39.3865459 C92.1260661,39.3865459 111.49786,39.3865459 112.859826,39.3865459 C113.657262,38.5669315 118.074783,34.0254954 119.217518,32.8523693 C118.558971,31.0956284 113.267946,16.9717458 112.859826,15.8806659 C111.798288,15.3261959 98.7290574,8.49391207 98.0324762,8.13000666 C97.2350403,8.13000666 79.4410237,8.13000666 78.2179468,8.13000666 C77.4260664,8.83592716 71.9820495,13.6898942 70.6388871,14.8880076 C71.2068358,16.3998399 72.9170922,20.9697842 73.4940153,22.5100824 C75.2158101,22.5100824 82.6675193,22.5100824 85.9213654,22.5100824 C85.2239295,20.6431687 84.0901688,17.6186982 84.0901688,17.6186982 L86.6790577,14.1149738 L96.9303395,14.1149738 L100.877775,16.7761753 L106.223502,31.3824934 C106.223502,31.3824934 87.3846132,31.5276653 85.9824765,31.5382711 C85.1794851,32.416387 80.6418783,37.3845146 79.5589724,38.569392 C80.1820493,40.2282203 84.5264936,51.8334007 84.9337586,52.9194322 C86.0239295,53.4722053 99.6111086,60.3702025 100.295297,60.7189204 C101.068374,60.7189204 116.415809,60.7189204 117.547433,60.7189204 Z M118.168373,64.1683433 L99.4585445,64.1683433 L82.1470065,55.3812451 L75.5653827,37.804461 L84.4320492,28.0985207 C84.4320492,28.0985207 97.5735018,27.9967477 101.276066,27.9679424 C100.245297,25.1563934 98.2722198,19.7656892 97.994442,19.0025823 C97.4427326,18.6297257 96.3910232,17.9229143 95.8619634,17.5648208 C95.018801,17.5648208 89.7730747,17.5648208 88.4405961,17.5648208 C88.2423055,17.8342924 88.2059807,17.8838426 88.0012799,18.1609079 C88.4884593,19.4572732 90.923502,25.9624324 90.923502,25.9624324 L71.0773487,25.9624324 L66.5559812,13.8892404 L76.8850408,4.67965052 L98.8918779,4.67965052 L115.655125,13.4437978 L123.238031,33.687256 L114.335467,42.8375808 C114.335467,42.8375808 101.030767,42.8375808 97.2162369,42.8375808 C98.2303394,45.4152088 99.7696556,49.3219527 100.057262,50.049509 C100.604271,50.3850758 101.461109,50.90688 101.941878,51.2012964 C102.725211,51.2012964 108.064955,51.2012964 109.404271,51.2012964 C109.494442,51.0782694 109.498715,51.0710574 109.590596,50.9459093 C109.108972,49.656671 106.722647,43.2881142 106.722647,43.2881142 L126.166236,43.2881142 L130.442304,54.7050208 L118.787604,64.1683433 L118.168373,64.1683433 Z" id="path32" fill="#FFFFFF"></path>
                        <polyline id="path34" fill="#1B4A96" points="87.7034166 71.021372 83.4952971 59.6651305 79.6474339 59.6651305 63.6123916 16.4283482 49.0183748 16.4283482 42.6732895 47.5635149 42.2108536 47.5635149 34.6267513 27.3131842 39.3521358 27.3131842 35.2761102 16.4283482 8.69773483 16.4283482 12.7741022 27.3131842 17.9340166 27.3131842 30.0502557 59.6651305 24.801025 59.6651305 29.0319651 70.9624039 50.7717936 70.9624039 58.0393148 42.1821438 64.6538445 59.6651305 59.5132464 59.6651305 63.7457249 70.9806458 87.7034166 71.021372"></polyline>
                        <polyline id="path36" fill="#1B4A96" points="191.99914 70.9624039 187.767944 59.6651305 183.897859 59.6651305 171.030338 25.3032198 157.548287 16.4473962 131.10427 16.4473962 123.744869 25.3032198 136.612817 59.6651305 132.611535 59.6651305 136.818373 70.9004661 160.178201 70.9004661 155.971364 59.6651305 152.153842 59.6651305 141.552561 31.4469766 143.485466 27.2296531 155.459825 27.400194 159.322646 30.8729071 169.871363 59.6651305 164.884184 59.6651305 169.114953 70.9624039 191.99914 70.9624039"></polyline>
                        <polyline id="path38" fill="#1B4A96" points="128.382475 54.1501265 124.958544 45.013462 109.223929 45.013462 111.54786 51.2178414 110.28504 52.9262199 101.447861 52.9262199 98.6487155 51.2178414 94.6709378 41.1104937 113.598715 41.1104937 121.225638 33.2698126 114.258972 14.6626561 98.4619634 6.40423466 77.5529895 6.40423466 68.5978615 14.3890695 72.2850409 24.2350484 88.4226474 24.2350484 86.0470064 17.8897818 87.5598269 15.8407033 96.3957241 15.8407033 99.4363223 17.8897818 103.74957 29.6754725 85.2076902 29.8179717 77.5628186 38.187584 83.5397415 54.1501265 99.8760659 62.4446924 118.168373 62.4446924 128.382475 54.1501265"></polyline>
                        <path d="M121.946151,100.654761 C121.946151,100.654761 122.813245,98.2103413 123.104698,97.6346597 C123.393587,97.0594024 123.538886,93.6091311 123.538886,93.6091311 C123.538886,93.6091311 125.652988,95.2640565 126.000852,95.7663461 C126.522219,96.5185078 125.981621,96.5333559 128.753843,99.0728031 C128.753843,99.0728031 128.464099,98.4966973 130.057262,98.3550041 C131.649997,98.2103413 134.11068,99.359159 134.982048,99.6480604 C135.850851,99.937386 137.642732,100.516886 137.642732,100.516886 L140.684612,102.674525 L142.13333,102.674525 C142.13333,102.674525 141.118373,100.950026 141.118373,100.374344 C141.118373,99.7990867 139.671364,97.785686 140.395723,97.785686 C141.118373,97.785686 152.998287,100.085018 155.026492,100.230105 C157.054697,100.374344 162.556834,101.667825 162.993586,101.812487 C163.426064,101.955453 164.439312,102.242658 164.874782,102.242658 C165.30897,102.242658 166.324782,101.812487 166.902987,101.812487 C167.482474,101.812487 167.048286,102.098843 168.931192,101.812487 C170.81538,101.523586 171.20256,101.571524 172.98632,101.379772 C174.771363,101.188019 173.903414,98.503485 173.903414,98.503485 C173.903414,98.503485 177.913243,101.667825 177.043585,102.386472 C176.173927,103.105544 166.902987,106.988955 163.136321,107.419125 C159.371791,107.852265 140.684612,107.131921 140.249569,106.988955 C139.816236,106.843868 133.87692,105.263183 133.442732,105.119793 C133.008116,104.975554 130.201706,105.831228 130.201706,105.831228 C130.201706,105.831228 128.030766,106.119281 127.595296,106.119281 C127.160253,106.119281 126.435894,106.549876 125.709826,106.119281 C124.797005,105.574568 125.84957,105.689959 121.207262,104.10588 L121.946151,100.654761" id="path40" fill="#D3D5D7"></path>
                        <path d="M55.143161,76.5172855 C66.0273488,91.5015511 93.9478609,103.20142 93.9478609,103.20142 C93.9478609,103.20142 108.625638,108.56964 115.386322,109.91318 C122.143159,111.255871 134.311108,111.255871 139.914954,111.255871 C145.514526,111.255871 164.055124,109.52925 169.076491,107.419125 C174.095295,105.310272 178.733756,104.927192 179.312816,104.352783 C179.892303,103.776677 179.119226,101.28432 179.119226,101.28432 C178.348713,98.9841388 170.81538,95.4138101 170.81538,95.4138101 C174.097004,98.8632329 175.930765,101.092143 175.159825,101.667825 C174.386748,102.242658 169.472218,104.132183 164.150423,103.105544 C158.936321,102.098843 156.910252,101.28432 152.659398,100.901239 C148.411962,100.516886 145.99615,99.5127307 145.030766,100.085018 C144.064954,100.661124 148.411107,104.687926 146.479484,105.263183 C144.547432,105.837167 135.664954,103.776677 132.765809,103.20142 C129.869655,102.627435 127.552561,101.667825 123.68974,101.092143 C123.251706,101.028084 122.667518,95.2195122 122.262817,95.1104849 C122.262817,95.1104849 120.259399,101.667825 120.259399,102.098843 C120.259399,102.530711 121.273501,105.694626 121.273501,105.694626 L118.232903,101.092143 C118.232903,101.092143 116.061536,97.2100044 116.784612,94.765585 C117.509826,92.3215898 119.826065,89.0147086 119.826065,89.0147086 L115.047433,94.6226191 C115.047433,94.6226191 114.612818,97.354243 114.612818,98.7923863 C114.612818,100.230105 114.323074,103.825464 114.612818,104.542838 C114.901707,105.263183 112.872647,101.812487 112.872647,101.812487 C112.872647,101.812487 111.57051,95.6293195 111.715809,94.9098236 C111.858544,94.1911761 114.177775,90.3081891 114.177775,90.3081891 C114.177775,90.3081891 110.844014,92.8964229 110.265809,94.0469376 C109.687177,95.1978765 109.396151,100.805787 109.396151,100.805787 L109.687177,103.681225 C109.687177,103.681225 107.120937,100.670033 107.265809,99.0880754 C107.410254,97.5073904 106.500425,96.0590655 106.500425,96.0590655 L106.646579,93.9022748 L108.961963,91.3148895 C108.961963,91.3148895 105.486322,93.0402372 104.761963,95.3416908 C104.038459,97.6414474 104.038459,99.0783181 104.038459,99.5127307 C104.038459,99.942901 104.183758,101.667825 104.183758,101.667825 C104.183758,101.667825 101.864527,97.6414474 101.720083,97.2100044 C101.574784,96.7789857 101.429485,94.3358389 101.429485,94.3358389 L104.031621,90.278493 C104.031621,90.278493 99.837177,93.6154946 99.5470061,94.479229 C99.2576898,95.3416908 98.5333309,98.9345037 98.5333309,99.3676437 C98.5333309,99.7990867 97.0850403,96.5397193 97.8089719,94.5751053 C97.8089719,94.5751053 97.6649548,96.7789857 89.5521345,95.6293195 C82.4764937,94.6238918 61.2683745,80.0362822 55.9474345,76.3590473 L55.143161,76.5172855" id="path42" fill="#B3B5B7"></path>
                        <path d="M149.714954,106.605026 C149.714954,106.605026 149.032048,105.460875 149.686321,104.43466 C150.338885,103.410142 152.719654,102.412774 154.072646,104.698531 C154.072646,104.698531 152.314099,105.583477 151.501706,106.365759 C150.665381,107.173071 149.714954,106.605026 149.714954,106.605026" id="path44" fill="#FFFFFF"></path>
                        <path d="M149.673073,106.222369 C149.673073,106.222369 150.272218,106.291095 150.572646,106.13116 C150.875637,105.969952 152.723928,105.096036 152.792304,105.051492 C152.86068,105.006099 153.81068,104.340904 153.81068,104.340904 C153.81068,104.340904 154.156834,104.249695 154.041022,104.77659 C153.923073,105.303485 151.521791,106.360244 151.288885,106.498119 C151.058543,106.635146 150.06709,107.026287 149.948287,107.002954 C149.83333,106.978349 149.601278,106.545209 149.601278,106.545209 L149.673073,106.222369" id="path46" fill="#2D7AC8"></path>
                        <path d="M152.858971,105.829956 C153.179483,105.278879 152.98333,104.583989 152.429911,104.276846 C151.870509,103.966308 150.870082,104.177576 150.555124,104.728227 C150.233757,105.278031 150.337603,106.137099 150.894013,106.445939 C151.447432,106.753931 152.543586,106.380607 152.858971,105.829956" id="path48" fill="#231F20"></path>
                        <polyline id="path50" fill="#FFFFFF" points="149.956834 105.694626 151.621791 105.046401 150.173073 104.975554 149.956834 105.694626"></polyline>
                        <path d="M143.194441,109.481312 C100.326921,113.02746 63.4829044,83.4691601 54.7880328,76.2148088 C53.4948705,75.1359891 52.7598277,75.78379 52.7598277,75.78379 C93.6093994,125.826511 157.506406,111.255871 167.461534,109.264106 C177.869654,107.182828 180.720936,104.236119 180.720936,104.236119 C180.720936,104.236119 180.691021,102.128115 176.827346,98.4670011 C174.434184,96.2033041 171.900423,94.9098236 171.466235,95.1244845 C177.563671,99.7316339 178.347431,102.242658 178.491449,103.681225 C178.491449,103.681225 175.376491,107.059801 161.327346,104.470719 C161.327346,104.470719 161.213244,106.176128 156.457261,104.079154 C156.457261,104.079154 153.721364,103.29772 151.982475,103.29772 C151.982475,103.29772 154.059825,103.634136 153.914953,104.783378 C153.914953,104.783378 153.017518,105.240699 151.018372,106.316973 C149.594441,107.082286 149.696577,106.172734 149.696577,106.172734 C149.696577,106.172734 149.232475,105.694626 149.858971,104.112244 C149.522646,104.495749 148.749996,104.735015 149.040167,106.605026 C149.040167,106.605026 147.63803,107.131921 146.915381,106.557512 C146.915381,106.557512 146.915381,108.138621 147.420936,108.56964 C147.420936,108.56964 144.380338,109.217016 143.366236,109.504645" id="path52" fill="#231F20"></path>
                        <path d="M112.680339,87.0963357 C112.680339,87.0963357 113.839741,86.904159 113.260681,84.2213217 C112.391023,80.1953689 105.265382,76.5919502 104.570938,74.6332753 C103.410681,71.3747565 100.89957,70.0324894 100.89957,70.0324894 L98.9675189,72.5244227 L96.6508523,74.6332753 C96.6508523,74.6332753 103.410681,82.4955497 103.990596,82.8786304 C104.570938,83.2625595 112.680339,87.0963357 112.680339,87.0963357" id="path54" fill="#B3B5B7"></path>
                        <path d="M88.7316217,64.2820372 C88.7316217,64.2820372 129.485039,72.3335187 137.016236,75.2098053 C144.547432,78.086092 144.547432,81.919444 143.776065,82.3029488 C143.002988,82.6873022 126.201279,84.7961548 126.201279,84.7961548 L118.861963,82.3029488 L107.273502,77.3182338 C107.273502,77.3182338 93.7546985,66.1982889 88.7316217,64.2820372" id="path56" fill="#FFFFFF"></path>
                        <path d="M155.459825,90.4524277 C155.459825,90.4524277 156.474782,90.1639506 157.778629,89.1589472 C159.082047,88.1505499 159.226492,87.001308 159.226492,86.569865 C159.226492,86.1371493 159.082047,85.5635889 158.501278,85.2759602 C157.923073,84.9879073 157.344441,84.7002786 156.910252,84.5568885 C156.474782,84.4134984 151.838885,83.9820554 151.838885,83.9820554 L153.720509,83.5501882 C153.720509,83.5501882 151.113671,81.1057688 149.811535,80.5300872 C148.507689,79.9548299 147.78333,80.0990684 146.479484,79.9548299 C145.175637,79.8101671 143.291877,79.2370309 143.291877,79.2370309 C143.291877,79.2370309 140.105979,78.2277852 139.382475,77.7971906 C138.657261,77.3657476 134.166663,75.497434 133.730766,75.2098053 C133.297005,74.9217524 129.966663,73.9150521 129.53333,73.6278477 C129.095723,73.3406432 118.957262,70.4635081 118.957262,70.4635081 C118.957262,70.4635081 132.716663,72.4769088 142.566663,75.78379 C152.417518,79.0927923 159.661534,81.5367875 160.820936,83.1174725 C161.978628,84.7002786 162.702133,85.706979 162.702133,86.4256264 C162.702133,87.1438496 162.702133,88.0080083 162.702133,88.0080083 C162.702133,88.0080083 160.820936,90.1639506 155.459825,90.4524277" id="path58" fill="#D3D5D7"></path>
                        <path d="M124.462817,70.4151458 C124.462817,70.4151458 143.009825,64.4691231 154.108543,55.0961618 C154.108543,55.0961618 148.121364,66.1007158 128.034185,71.0867036 L124.462817,70.4151458" id="path60" fill="#D3D5D7"></path>
                        <path d="M163.818799,85.172872 C163.640167,84.5047081 146.075637,70.2586045 91.6935875,64.9124446 C91.6935875,64.9124446 160.023928,76.8307923 161.918372,87.1816062 C161.918372,87.1816062 159.599569,90.7345414 148.507689,91.8888741 C148.507689,91.8888741 165.308116,90.7434502 163.818799,85.172872" id="path62" fill="#231F20"></path>
                        <path d="M89.1641003,103.005849 C99.7358949,111.491743 88.0773482,133.057954 87.0901688,133.685816 C86.1046987,134.311981 86.953844,134.844815 86.953844,134.844815 C105.345297,132.82293 118.448715,111.302961 118.448715,111.302961 L89.1641003,103.005849" id="path64" fill="#231F20"></path>
                        <path d="M148.604697,107.323673 C148.604697,107.323673 150.00427,108.52255 151.451706,107.708027 C152.468372,107.135739 154.446577,103.729163 155.991449,105.263183 C155.991449,105.263183 154.348714,104.400297 152.804697,107.179435 C152.354697,107.985049 150.486748,109.670944 148.604697,107.323673" id="path66" fill="#B3B5B7"></path>
                        <path d="M124.027775,110.872366 L118.861963,104.352783 C118.861963,104.352783 118.090168,102.242658 118.090168,101.475648 C118.090168,100.710759 117.895296,100.135078 118.090168,99.175467 C118.282903,98.2167048 118.476493,92.6563081 118.476493,92.6563081 L120.405553,88.6312037 C120.405553,88.6312037 116.350424,92.4649799 116.350424,95.7260441 C116.350424,98.9841388 116.156835,103.776677 116.350424,104.542838 C116.543159,105.311969 115.62692,109.145321 115.62692,109.145321 L124.027775,110.872366" id="path68" fill="#231F20"></path>
                        <path d="M117.654271,109.86312 L113.333331,103.9574 C113.333331,103.9574 112.661108,101.877395 112.664527,101.176565 C112.669655,100.477856 112.49957,99.915326 112.676493,99.0783181 C112.850852,98.2434313 113.050425,93.2103539 113.050425,93.2103539 L114.774783,89.9331689 C114.774783,89.9331689 111.173074,92.6032792 111.157262,95.577139 C111.139741,98.5505746 110.946151,102.88155 111.113672,103.621409 C111.279912,104.360419 112.14957,109.145321 112.14957,109.145321 L117.654271,109.86312" id="path70" fill="#231F20"></path>
                        <path d="M112.872647,109.289984 L107.923074,103.360506 C107.923074,103.360506 107.249997,101.538858 107.254271,100.926269 C107.258544,100.312406 107.09145,99.819874 107.265809,99.0880754 C107.44145,98.3592464 107.639314,93.9527583 107.639314,93.9527583 L109.364527,91.0819866 C109.364527,91.0819866 105.766237,93.4203483 105.74957,96.0234301 C105.733758,98.6260877 105.538886,102.418289 105.70598,103.064817 C105.873074,103.712618 106.211108,107.852265 106.211108,107.852265 L112.872647,109.289984" id="path72" fill="#231F20"></path>
                        <path d="M128.929057,110.083296 L123.979484,104.154243 C123.979484,104.154243 123.306835,102.332595 123.310681,101.720005 C123.314954,101.105718 123.148288,100.61361 123.322646,99.8813875 C123.49786,99.1529827 123.695723,94.7464946 123.695723,94.7464946 L125.420937,91.8752987 C125.420937,91.8752987 121.822647,94.2140846 121.80598,96.8171665 C121.790168,99.4198241 121.595723,103.212026 121.76239,103.858554 C121.929484,104.506355 122.267518,108.646001 122.267518,108.646001 L128.929057,110.083296" id="path74" fill="#231F20"></path>
                        <path d="M106.935467,108.85642 L102.64145,102.83446 C102.64145,102.83446 101.994442,100.969964 101.998715,100.343799 C102.00128,99.7172101 101.839314,99.2144962 102.009827,98.4661526 C102.178203,97.7203544 102.368374,93.2128993 102.368374,93.2128993 L104.031621,90.278493 C104.031621,90.278493 100.559827,92.6686108 100.545724,95.3323577 C100.529912,97.9944077 100.341878,101.870607 100.502989,102.531983 C100.663245,103.194632 101.467946,106.658479 101.467946,106.658479 L106.935467,108.85642" id="path76" fill="#231F20"></path>
                        <path d="M119.826065,106.413698 C119.826065,106.413698 123.593159,108.56964 124.462817,108.85642 C125.331621,109.145321 125.765809,109.431677 125.910681,108.713878 C126.05598,107.994382 126.201279,106.843868 126.201279,106.843868 C126.201279,106.843868 129.966663,108.425825 130.979911,109.001083 C131.994014,109.576764 132.28333,110.007783 133.297005,110.007783 C134.311108,110.007783 134.891877,110.152022 135.90598,110.152022 C136.920082,110.152022 139.237176,110.152022 140.249569,110.007783 C141.263672,109.86312 137.208971,111.445078 135.470937,111.445078 C133.730766,111.445078 130.400424,111.445078 129.67521,111.445078 C128.952988,111.445078 124.317518,111.588892 124.317518,111.588892 L122.578629,111.302536 L119.826065,106.413698" id="path78" fill="#231F20"></path>
                        <path d="M172.262389,96.4900843 C172.262389,96.4900843 170.379483,94.6226191 167.048286,95.6293195 C163.715381,96.6347471 162.268372,97.0649174 161.398287,97.2100044 C160.529483,97.354243 159.515381,97.785686 158.357688,98.0716177 C157.198287,98.3609433 154.155979,98.5060304 154.155979,98.5060304 L156.619227,96.9232242 C156.619227,96.9232242 154.735466,96.9232242 154.155979,96.9232242 C153.576065,96.9232242 154.880338,97.0649174 152.273073,96.7789857 C149.666236,96.4900843 151.547859,96.3475427 148.797432,96.0590655 C146.045723,95.7722853 144.741022,95.7722853 144.741022,95.7722853 C144.741022,95.7722853 143.580766,95.4859294 144.161535,95.6293195 C144.741022,95.7722853 145.755125,95.1978765 145.175637,94.9098236 C144.594868,94.6226191 142.858116,94.0469376 142.858116,94.0469376 C142.858116,94.0469376 142.277774,93.6154946 141.844014,93.3282901 C141.408116,93.0402372 139.382475,91.3148895 139.382475,91.3148895 L144.016663,92.3215898 C144.016663,92.3215898 146.479484,95.0540621 150.535039,95.4859294 C154.589312,95.9165239 157.778629,96.2991803 157.778629,96.2991803 C157.778629,96.2991803 159.371791,96.3475427 159.951278,95.9165239 C160.529483,95.4859294 163.282475,93.7588847 164.874782,93.7588847 C166.468372,93.7588847 166.124355,92.9770268 167.454697,93.5824045 C168.787603,94.1911761 168.787603,94.3358389 169.366235,94.479229 C169.94615,94.6226191 171.990594,96.1799714 171.990594,96.1799714" id="path80" fill="#D3D5D7"></path>
                        <path d="M120.550424,92.0335369 L122.143159,89.0147086 C122.143159,89.0147086 122.578629,88.1505499 123.158971,87.7186827 C123.738031,87.2876639 125.187176,85.5635889 125.187176,85.5635889 C125.187176,85.5635889 122.287604,86.2813878 121.564527,86.569865 C120.839313,86.8570694 119.391023,87.7186827 119.391023,87.7186827 L117.076065,89.4457274 C117.076065,89.4457274 119.102561,86.4256264 119.682476,85.8516417 C120.259399,85.2759602 121.564527,84.4134984 121.564527,84.4134984 C121.564527,84.4134984 121.708971,83.5501882 120.550424,84.2692599 C119.391023,84.9879073 115.336322,87.2876639 115.336322,87.2876639 C115.336322,87.2876639 115.62692,85.8516417 115.915809,85.4189261 C116.205125,84.9879073 116.641023,84.1258698 117.364527,83.9820554 C118.090168,83.8369684 118.090168,83.8369684 118.090168,83.8369684 C118.090168,83.8369684 116.929912,82.6873022 116.495724,82.6873022 C116.061536,82.6873022 115.62692,82.3988251 115.62692,82.3988251 L112.583758,79.0927923 L109.542305,76.7904903 L99.4021343,69.8882508 C99.4021343,69.8882508 114.467519,79.2370309 115.192732,79.5233869 C115.915809,79.8101671 116.929912,80.0990684 117.364527,80.5300872 C117.798715,80.9615302 118.811963,81.6806019 118.811963,81.6806019 L119.971365,82.3988251 L119.682476,83.5501882 C119.682476,83.5501882 120.694869,82.9749309 121.853416,82.8302681 C123.013672,82.6873022 123.158971,82.8302681 123.882476,82.5426394 C124.608544,82.2545865 124.608544,81.6806019 124.608544,82.2545865 C124.608544,82.8302681 123.013672,84.5568885 123.013672,84.5568885 C123.013672,84.5568885 125.910681,84.4134984 126.635467,84.4134984 C127.358971,84.4134984 129.82051,84.2692599 129.82051,84.2692599 C129.82051,84.2692599 129.241877,84.8436687 128.084185,85.5635889 C126.924783,86.2813878 129.966663,88.5811445 129.966663,88.5811445 C129.966663,88.5811445 130.688458,89.5899659 131.124356,89.8763219 C131.559826,90.1639506 133.008116,90.7387837 133.008116,90.7387837 L137.208971,92.7521843 C137.208971,92.7521843 133.008116,91.8897226 131.848715,91.4582796 C130.688458,91.0268366 129.966663,90.4524277 129.53333,90.4524277 C129.095723,90.4524277 126.635467,91.0268366 126.635467,91.0268366 L126.924783,89.8763219 C126.924783,89.8763219 126.344869,89.7320834 125.765809,89.7320834 C125.187176,89.7320834 124.896578,89.1589472 124.896578,89.1589472 L120.550424,92.0335369" id="path82" fill="#D3D5D7"></path>
                        <path d="M102.250852,69.2654796 C102.250852,69.2654796 114.420083,72.7174478 116.350424,73.4836091 C118.282903,74.2510431 119.438886,75.0176287 120.211535,75.4002851 C120.985467,75.78379 122.337604,76.7434007 122.916236,77.1264813 C123.496151,77.5099862 122.143159,76.9347289 124.849142,77.5099862 C127.552561,78.086092 128.325638,78.4691727 128.905552,78.6613493 C129.485039,78.8539502 128.905552,79.6184146 129.67521,80.1953689 C130.448287,80.7693535 131.412817,80.3866971 132.764099,80.1953689 C134.117945,80.0023437 134.891877,80.3858486 136.822646,80.9615302 C138.754697,81.5367875 142.036749,82.7827542 144.355552,82.7827542 C141.748714,81.8235677 141.070082,79.7155635 138.368373,79.3316344 C135.664954,78.9481295 134.117945,78.2774202 133.345296,78.2774202 C132.573074,78.2774202 131.994014,78.6613493 131.220937,78.086092 C130.448287,77.5099862 127.938886,76.3590473 127.166236,76.1672949 C126.394014,75.9755424 126.201279,76.3590473 125.234612,75.5916133 C124.269228,74.8267247 120.791877,73.4836091 120.791877,73.4836091 L116.543159,72.3335187 L102.250852,69.2654796" id="path84" fill="#D3D5D7"></path>
                        <path d="M45.3726484,78.086092 C45.3726484,78.086092 56.6700841,82.9749309 94.2243566,85.4053507 C101.452989,85.8737018 103.809826,87.5159002 106.554698,87.700865 C109.299143,87.8875267 115.431621,88.7495642 111.109826,85.1105101 C106.786749,81.4718802 103.366237,79.453813 102.444442,78.2277852 C101.521365,77.0059997 98.4854676,73.3809452 94.3012797,74.1738331 C90.1179465,74.9709633 79.8478613,80.0990684 45.3726484,78.086092" id="path86" fill="#231F20"></path>
                        <path d="M146.959398,77.0938155 C146.959398,77.0938155 157.904697,74.1135923 156.973073,54.7389593 C156.973073,54.7389593 155.608543,53.870134 154.108543,55.0961618 C152.694441,56.2521915 136.816663,70.0371559 126.82051,71.0120389" id="path88" fill="#231F20"></path>
                        <path d="M169.582474,94.0469376 C169.582474,94.0469376 168.887175,93.0164803 168.304697,92.1765028 C167.554269,91.0989559 165.961534,90.3803084 165.961534,90.3803084 C165.961534,90.3803084 165.358116,86.3759914 164.005124,85.9946076 C162.654697,85.6106785 164.923073,86.8282217 159.515381,89.3014888 C156.738458,90.5720609 150.439312,91.7929979 148.507689,91.8888741 C146.576492,91.9851746 142.277774,92.1043835 142.277774,92.1043835 C142.277774,92.1043835 145.313672,93.8785178 147.564526,94.8377043 C150.102988,95.9165239 156.134184,96.3954808 157.778629,96.2991803 C159.420081,96.2033041 162.123073,95.7234988 162.509398,95.4367186 C162.894868,95.1495141 165.636748,94.5352275 166.409825,94.5352275 C167.182047,94.5352275 168.373073,93.5785865 168.373073,93.5785865" id="path90" fill="#231F20"></path>
                        <path d="M162.832475,95.2279969 C162.832475,95.2279969 167.105124,93.0639942 171.990594,96.1799714 C176.872218,99.2967971 176.525209,99.8169044 176.525209,99.8169044 C176.525209,99.8169044 176.699568,98.6905709 175.477773,97.4785427 C174.258115,96.2665145 170.245295,93.4971341 167.454697,93.5824045 C164.66538,93.6693719 162.832475,95.2279969 162.832475,95.2279969" id="path92" fill="#231F20"></path>
                        <path d="M161.785893,95.661561 C161.785893,95.661561 157.514099,97.1323701 157.253415,97.1323701 C157.253415,97.1323701 158.720936,96.2962107 159.171364,95.9211904 C159.619654,95.5436248 161.785893,95.661561 161.785893,95.661561" id="path94" fill="#231F20"></path>
                        <polyline id="path96" fill="#2D7AC8" points="30.163589 69.6018948 49.138033 69.6018948 57.3961524 38.6847404 56.2363234 35.0912063 47.2559817 67.4442556 32.0467941 67.4442556 30.163589 69.6018948"></polyline>
                        <polyline id="path98" fill="#2D7AC8" points="64.7833317 69.7444365 85.2076902 69.7444365 82.3111091 61.5482922 77.964528 61.5482922 62.731195 18.506232 61.572648 22.0295135 76.3709383 63.5625413 80.7162373 63.5625413 82.2858954 67.8748501 67.2457248 67.8748501 64.7833317 69.7444365"></polyline>
                        <polyline id="path100" fill="#2D7AC8" points="41.1728622 49.757638 32.3364094 26.0312003 37.0431187 26.0312003 34.2681615 18.3629267 32.9151701 20.4237564 34.3646573 24.3071252 29.5848283 24.3071252 38.1306828 47.1711012 41.1728622 49.757638"></polyline>
                        <polyline id="path102" fill="#2D7AC8" points="91.5739293 37.8245271 111.715809 37.8245271 116.784612 32.358734 110.844014 16.6850504 99.6773479 10.789893 98.0991428 7.91356397 112.872647 15.3906366 119.102561 32.9342459 112.872647 39.6922892 92.4495703 39.5472871 97.2303394 52.0586674 94.768801 50.90688 90.4089721 39.6566538 91.5739293 37.8245271"></polyline>
                        <polyline id="path104" fill="#2D7AC8" points="123.882476 46.5949954 126.344869 53.6410493 117.364527 60.830069 100.560681 60.830069 103.313673 58.8166683 116.350424 58.6724298 123.882476 53.0653677 121.564527 46.737537 123.882476 46.5949954"></polyline>
                        <polyline id="path106" fill="#2D7AC8" points="82.0700834 17.3162638 83.3444424 21.1435917 75.3576904 21.1435917 73.1846136 22.8685577 86.2217927 22.8685577 84.5311945 17.8584736 86.8059807 14.5804401 95.5940147 14.5804401 93.7290575 12.9373932 85.4559808 12.9373932 82.0700834 17.3162638"></polyline>
                        <polyline id="path108" fill="#2D7AC8" points="170.767517 69.4568078 189.790594 69.4568078 186.560252 61.4040536 182.546577 61.4040536 169.366235 26.8957408 157.669227 18.5193407 160.334184 23.2109121 167.627774 28.3323569 180.665807 63.8493215 185.152987 63.8493215 186.602987 67.4442556 173.275637 67.4442556 170.767517 69.4568078"></polyline>
                        <polyline id="path110" fill="#2D7AC8" points="149.08803 57.2355591 139.237176 31.4956783 142.13333 25.5998421 154.139312 25.5998421 151.805552 23.3003825 140.684612 23.3003825 136.340168 30.9218209 146.915381 58.8166683 149.08803 57.2355591"></polyline>
                        <path d="M87.7666645,134.261073 C87.7666645,134.261073 103.604271,131.481511 115.192732,112.30754 L110.844014,112.16415 C110.844014,112.16415 103.024356,129.275934 87.7666645,134.261073" id="path112" fill="#2D7AC8"></path>
                        <path d="M55.8999986,79.4287833 C55.8999986,79.4287833 82.2136732,81.8235677 89.5521345,81.8235677 C96.8918779,81.8235677 96.1183737,81.5367875 98.244442,82.1107722 C100.367946,82.6873022 101.527348,82.7827542 102.879912,83.5501882 C104.231194,84.3167737 110.168801,86.3289017 110.168801,86.3289017 C110.168801,86.3289017 107.466237,87.671593 103.990596,86.1371493 C100.513245,84.6056751 96.0709378,83.8369684 89.6974337,83.6464886 C83.3252116,83.4538877 64.7833317,81.7276915 55.8999986,79.4287833" id="path114" fill="#2D7AC8"></path>
                        <path d="M143.668372,73.8017824 C143.668372,73.8017824 153.141877,66.7260324 155.751278,59.9676072 C155.751278,59.9676072 154.386321,70.5920501 147.049569,74.427099 L143.668372,73.8017824" id="path116" fill="#2D7AC8"></path>
                        <path d="M120.405553,110.296684 C120.405553,110.296684 138.005125,112.811526 149.88333,111.374656 C165.622645,109.46901 177.188884,105.550812 177.188884,105.550812 C177.188884,105.550812 169.801705,106.988955 167.7735,107.419125 C165.74444,107.852265 160.916663,107.947293 159.614099,107.947293 C158.310252,107.947293 155.605124,107.276584 155.170082,107.708027 C154.735466,108.138621 151.403415,111.662284 148.144013,109.86312 C148.144013,109.86312 146.045723,110.367955 143.580766,110.583465 C141.130338,110.79855 134.311108,110.869821 120.405553,110.296684" id="path118" fill="#2D7AC8"></path>
                        <path d="M113.38333,109.597976 C113.38333,109.597976 79.8286305,104.114365 61.7427335,83.5501882 C82.4136732,101.893091 113.38333,109.597976 113.38333,109.597976" id="path120" fill="#2D7AC8"></path>
                        <path d="M164.67521,90.7434502 C164.67521,90.7434502 165.100851,89.5623909 164.76538,88.8089565 L162.926064,89.3910016 C162.926064,89.3910016 164.745295,90.256433 164.67521,90.7434502" id="path122" fill="#FFFFFF"></path>
                        <path d="M149.132048,94.6612242 L150.970082,93.9497887 L152.369654,94.8130989 L153.287176,93.9497887 L155.170082,95.1507868 L156.041449,93.6630085 C156.041449,93.6630085 156.783757,94.1551165 157.30256,94.6073468 C157.819227,95.0612741 158.019654,95.1978765 158.019654,95.1978765 L158.22521,93.4971341 C158.22521,93.4971341 158.618372,93.4776195 159.038885,93.9370617 C159.455124,94.3952313 160.796577,95.022669 160.796577,95.022669 C160.796577,95.022669 161.010252,94.0231806 160.870936,93.2604132 C160.73162,92.4972215 160.73162,92.4972215 160.73162,92.4972215 C160.73162,92.4972215 161.429483,92.6503689 161.755552,93.2128993 C162.082902,93.7737328 162.529483,94.2811131 162.529483,94.2811131 L162.943586,93.3414413 L162.867517,91.8994799 C162.867517,91.8994799 164.207261,92.7140035 164.440167,93.3753798 C164.440167,93.3753798 165.21709,92.3572252 164.874782,91.5066419 C164.874782,91.5066419 166.118372,92.3741945 166.452987,93.1293258 C166.452987,93.1293258 166.759398,91.9215399 166.373073,91.1710751 C166.373073,91.1710751 167.383756,91.6551228 167.621791,92.4149206 C167.860252,93.1747185 167.683329,93.5671322 167.683329,93.5671322 C167.683329,93.5671322 166.520081,93.0885996 164.369227,93.7588847 C163.150423,94.1402684 161.085466,95.3679931 159.619654,95.5436248 C158.15256,95.7201049 155.328629,95.5919871 153.651706,95.4897474 C151.970082,95.3870835 149.132048,94.6612242 149.132048,94.6612242" id="path124" fill="#FFFFFF"></path>
                        <path d="M162.499569,91.5096115 C162.499569,91.5096115 162.927346,90.3294007 162.591022,89.5763905 L160.751705,90.1580113 C160.751705,90.1580113 162.5735,91.0242912 162.499569,91.5096115" id="path126" fill="#FFFFFF"></path>
                        <path d="M146.094013,92.6087942 L147.445295,93.7113708 L148.218372,92.7521843 L149.811535,93.5187699 L151.308116,92.3215898 L152.273073,93.4725287 L153.770509,91.9368122 C153.770509,91.9368122 154.735466,92.8484848 154.832902,93.4725287 C154.832902,93.4725287 155.798714,92.7530328 155.412389,91.5537316 C155.412389,91.5537316 157.199996,91.7946948 157.48974,92.8484848 C157.48974,92.8484848 158.310252,91.745484 158.019654,91.0268366 C158.019654,91.0268366 159.75897,91.3157379 159.806834,92.4166176 C159.806834,92.4166176 160.482047,91.2673756 160.192304,90.2606753 C160.192304,90.2606753 160.531193,90.0684986 159.85427,90.2118887 C159.179056,90.3552788 157.969654,90.5953936 157.585466,90.7387837 C157.199996,90.8830222 154.782902,91.5066419 153.045723,91.745484 C151.308116,91.9864473 150.150424,92.1765028 149.377347,92.2252894 C148.604697,92.272379 148.218372,92.272379 147.928629,92.3215898 C147.63803,92.3686795 146.094013,92.6087942 146.094013,92.6087942" id="path128" fill="#FFFFFF"></path>
                        <path d="M94.7499976,12.9373932 L85.4559808,12.9373932" id="path130" fill="#1C4E9D"></path>
                        <path d="M86.8059807,14.5804401 L96.0999976,14.5804401" id="path132" fill="#1C4E9D"></path>
                        <path d="M171.871363,14.2821632 C172.343585,14.2821632 172.76538,14.3156351 172.76538,14.8764261 C172.76538,15.3278504 172.352132,15.4118481 171.964098,15.4118481 L171.205551,15.4118481 L171.205551,14.2821632 L171.871363,14.2821632 Z M171.205551,12.2319393 L170.649141,12.2319393 L170.649141,15.881175 L172.048286,15.881175 C172.916662,15.881175 173.347004,15.5619835 173.347004,14.8426149 C173.347004,14.1900202 172.934184,13.9054885 172.39444,13.8383751 L173.439739,12.2319393 L172.81538,12.2319393 L171.84615,13.8133455 L171.205551,13.8133455 L171.205551,12.2319393 Z M171.87991,11.4199186 C173.321791,11.4199186 174.459825,12.5411613 174.459825,14.0645751 C174.459825,15.5619835 173.321791,16.6926442 171.87991,16.6926442 C170.421363,16.6926442 169.283756,15.5619835 169.283756,14.0645751 C169.283756,12.5411613 170.421363,11.4199186 171.87991,11.4199186 Z M168.642303,14.0645751 C168.642303,15.881175 170.126491,17.2199634 171.87991,17.2199634 C173.616662,17.2199634 175.100423,15.881175 175.100423,14.0645751 C175.100423,12.2319393 173.616662,10.8926418 171.87991,10.8926418 C170.126491,10.8926418 168.642303,12.2319393 168.642303,14.0645751 Z" id="path134" fill="#231F20"></path>
                    </g>
                </g>
            </g>
        </g>
    </g>
</svg>