<?xml version="1.0" encoding="UTF-8"?>
<svg width="200px" height="200px" viewBox="0 0 200 200" version="1.1" xmlns="http://www.w3.org/2000/svg" xmlns:xlink="http://www.w3.org/1999/xlink">
    <!-- Generator: Sketch 51.3 (57544) - http://www.bohemiancoding.com/sketch -->
    <title>oakland-city</title>
    <desc>Created with Sketch.</desc>
    <defs></defs>
    <g id="oakland-city" stroke="none" stroke-width="1" fill="none" fill-rule="evenodd">
        <g id="oakland-city_BGL" transform="translate(7.373272, 0.921659)">
            <g id="oakland-city">
                <g id="g10" transform="translate(91.999998, 99.842368) scale(-1, 1) rotate(-180.000000) translate(-91.999998, -99.842368) translate(0.000000, 0.163677)">
                    <g id="g12">
                        <path d="M25.0346858,148.039626 C19.5232298,144.593132 7.90677709,140.670379 3.84150209,135.82409 C-3.44800457,127.129639 1.79844327,119.966458 2.21902387,115.167928 C2.77957839,108.794932 3.0141449,100.890934 11.0159217,93.2885225 C12.5554151,91.8240641 14.2931839,90.9778014 16.0829388,90.1707126 C17.2923838,89.6236201 17.8353579,95.1522323 18.2018581,98.6776114 C18.9014598,105.423296 37.3589627,103.659399 40.1213731,93.3593575 C41.0930645,89.7298725 43.928325,91.8283572 47.5552943,87.3024348 C50.0694252,84.1658429 45.1292798,85.5302201 49.2691458,81.9133459 C51.8730002,78.9973082 55.6952184,79.7024377 58.0652562,78.4252625 C60.5847438,77.0732277 59.8415123,70.1488455 62.0870086,67.6862586 C70.7154567,58.2348941 70.1334597,50.4975202 87.8349556,39.1075863 C94.4688652,111.898252 147.544159,111.875177 157.530779,111.527979 L93.5394911,165.559196 L25.0346858,148.039626" id="path14" fill="#1A3374" fill-rule="nonzero"></path>
                        <path d="M13.6963222,96.2753952 C13.6963222,96.2753952 13.1938174,108.358116 20.1865136,117.869851 C18.9959238,116.952485 14.9141236,114.67906 13.9536812,114.025983 C14.7054028,117.062762 17.3036595,121.769797 20.1865136,124.078371 C34.0598187,135.187649 36.0251636,127.117297 42.9076205,161.858876 C42.9076205,161.858876 44.8697514,145.090318 27.2488727,143.174555 C13.5966087,141.687558 -1.64067466,132.531339 4.48826073,118.639376 C4.83593234,117.846776 5.69767904,125.118357 12.0312696,130.195665 C5.27605926,122.583057 1.61587885,107.640644 13.6963222,96.2753952" id="path16" fill="#76AFE3" fill-rule="nonzero"></path>
                        <path d="M45.5385258,167.554111 C45.5385258,167.554111 54.4765867,175.309999 63.4042022,174.430197 C72.4721612,173.53376 69.6036897,177.073896 87.6056921,173.660672 L91.8192117,142.407177 C91.8192117,142.407177 86.5965044,140.179633 80.6637767,144.308182 C74.9458497,148.285134 74.4249181,145.335557 64.4372269,151.430043 C64.4372269,151.430043 64.0946709,149.501938 55.9453727,147.600933 C47.7960745,145.70583 45.5385258,167.554111 45.5385258,167.554111" id="path18" fill="#1A3374" fill-rule="nonzero"></path>
                        <path d="M92.0064256,139.476382 C88.1702802,139.476382 80.4168364,142.292875 75.9486095,148.330747 C72.5479574,152.933944 71.7524989,158.325179 73.5860709,164.36332 C75.337151,170.122682 78.9290344,174.238889 84.2714622,176.595492 C88.1933137,178.323971 91.8877765,178.563308 93.2395202,178.583968 C94.4801141,168.772794 96.6819539,144.195758 92.9965974,139.994496 C92.6915377,139.647029 92.3663907,139.476382 92.0064256,139.476382" id="path20" fill="#76AFE3" fill-rule="nonzero"></path>
                        <path d="M93.4794969,179.189284 C91.2806032,179.189284 77.2920505,178.62985 73.0110375,164.540139 C67.7620827,147.26393 85.0074622,138.871333 92.0064256,138.871333 C99.0021751,138.871333 93.7719685,179.187138 93.7719685,179.187138 C93.7719685,179.187138 93.6701927,179.189284 93.4794969,179.189284 Z M92.7092146,177.962016 C93.0174882,175.393445 93.7920559,168.535604 94.1905886,161.34103 C94.4862742,156.045314 94.5237706,151.602569 94.302542,148.139439 C93.9581112,142.75035 93.0528419,140.974111 92.5428914,140.391601 C92.2699715,140.07982 92.0840967,140.07982 92.0064256,140.07982 C88.2940182,140.07982 80.775998,142.816892 76.4325803,148.690825 C73.1511132,153.12713 72.3880622,158.341815 74.1640505,164.184355 C75.860493,169.771191 79.3412265,173.760485 84.5119746,176.042228 C87.8952176,177.537811 91.1041025,177.889303 92.7092146,177.962016 Z" id="path22" fill="#1A3374" fill-rule="nonzero"></path>
                        <path d="M79.9288481,146.15311 C76.2402776,150.362958 74.818362,158.483216 77.0574304,163.993047 C81.1330169,174.010285 89.5356834,175.744936 93.2531796,175.923633 C93.2521083,175.934098 93.2531796,175.923633 93.2531796,175.923633 C93.2531796,175.923633 79.7927899,178.238648 74.9739719,163.982582 C72.4585018,156.5425 75.8428162,150.458746 79.9288481,146.15311" id="path24" fill="#FFFFFF" fill-rule="nonzero"></path>
                        <path d="M97.8188971,178.638167 C97.8188971,178.638167 97.4117938,178.654534 96.7111475,178.62341 C96.8209583,177.758365 101.693075,139.622076 95.2734299,138.361536 C95.5431359,138.33873 95.8058782,138.330412 96.0528186,138.330412 C103.050711,138.330412 97.8188971,178.638167 97.8188971,178.638167" id="path26" fill="#FFFFFF" fill-rule="nonzero"></path>
                        <path d="M124.381854,163.256793 C124.381854,163.256793 133.824509,162.96755 137.439158,166.253861 C141.05595,169.548758 147.513091,174.143369 151.900165,169.259516 C156.291257,164.371638 161.19953,170.950431 166.105661,164.947708 C171.013935,158.940692 167.915932,154.537389 174.626441,151.94789 C181.340968,149.364561 181.860025,148.863351 183.666278,140.061038 C185.474674,131.25631 176.744182,120.138984 169.575146,105.641704 C169.575146,105.641704 96.0860296,143.51585 124.381854,163.256793" id="path28" fill="#1A3374" fill-rule="nonzero"></path>
                        <path d="M131.881126,146.205163 C131.881126,146.205163 166.778185,151.727604 173.322639,150.117719 C176.592589,149.31063 179.827454,147.598786 180.647553,143.463797 C181.25794,140.35833 182.366493,137.727242 180.896636,132.982912 C180.896636,132.982912 180.666301,143.561464 174.811512,145.057047 C174.811512,145.057047 181.357573,142.87297 178.484013,127.117297 C178.484013,127.117297 178.488298,131.716201 166.317515,134.823547 C166.317515,134.823547 169.896811,136.084086 171.263018,134.823547 C172.63351,133.554689 165.171198,143.677912 142.787478,144.135656 C120.405901,144.597156 131.881126,146.205163 131.881126,146.205163" id="path30" fill="#76AFE3" fill-rule="nonzero"></path>
                        <path d="M130.851583,147.35945 C130.851583,147.35945 138.782599,151.141069 144.052177,154.541682 C150.212293,158.52078 156.399193,167.685049 161.039903,165.220315 C165.146558,163.040531 165.524467,161.836069 166.487588,158.158556 C166.487588,158.158556 165.341539,161.727939 160.271495,161.836069 C164.183169,159.930771 164.332619,158.680696 164.162278,156.498765 C159.341318,161.678032 140.82133,149.233624 130.851583,147.35945" id="path32" fill="#76AFE3" fill-rule="nonzero"></path>
                        <path d="M151.987478,165.636202 C151.987478,165.636202 150.480124,170.241277 147.378104,169.550637 C144.280369,168.862143 136.818593,159.392265 119.486169,155.502515 C102.153744,151.611155 112.45828,152.24545 118.377616,153.853188 C126.399962,156.032972 133.187071,158.144067 140.935694,162.243639 C140.289953,161.725792 137.706989,159.502273 137.213109,159.026016 C141.880066,161.725792 146.447926,164.417519 148.667443,164.138741 C148.667443,164.138741 148.707082,164.477622 147.722803,165.636202 C147.722803,165.636202 151.385394,166.455633 151.987478,165.636202" id="path34" fill="#76AFE3" fill-rule="nonzero"></path>
                        <path d="M153.677225,138.330412 C153.677225,138.330412 171.755023,129.769314 174.177824,114.577101 C174.177824,114.577101 171.0367,101.552329 169.161882,100.279447 L158.120543,109.111006 L159.021527,108.160637 L129.742762,74.9224218 C126.636457,74.0072024 123.970733,76.0769774 123.970733,76.0769774 C110.612387,62.9668818 123.970733,54.5555028 123.970733,54.5555028 C110.840847,63.6116406 106.462076,70.5961251 98.175916,85.0829405 C83.7149091,110.361081 93.7264372,119.161515 93.7264372,119.161515 C91.8173369,122.707823 94.164609,126.250106 92.2107808,129.251467 C84.7187402,140.755703 84.8060532,145.379292 84.8060532,145.379292 L84.297174,159.806005 C84.297174,159.806005 78.6164755,161.060373 78.6196894,165.060132 C78.6239747,167.562161 80.6878815,168.889242 82.4941348,169.475777 C82.4941348,169.475777 85.1879804,190.697813 105.701971,190.793333 L105.701971,190.799773 L105.847403,190.799773 C105.824638,190.799773 105.79973,190.797626 105.774821,190.797626 C126.358448,190.749598 129.057383,169.475777 129.057383,169.475777 C130.863904,168.889242 132.925668,167.562161 132.92781,165.060132 C132.931828,163.294088 131.823275,162.062795 130.589644,161.237192 C130.589644,161.237192 141.039612,153.847017 153.677225,138.330412" id="path36" fill="#1A3374" fill-rule="nonzero"></path>
                        <path d="M113.853412,196.845963 C113.853412,196.845963 109.615788,195.186172 110.284562,190.262876 C110.284562,190.262876 105.57743,189.794936 104.336032,189.447738 C104.336032,189.447738 102.556562,197.245482 104.246845,198.630788 C106.574029,200.53394 114.644317,198.010983 113.853412,196.845963" id="path38" fill="#1A3374" fill-rule="nonzero"></path>
                        <path d="M114.64646,162.726336 C114.64646,162.726336 112.295974,178.52789 107.618571,185.460322 C104.487357,190.100814 95.8037356,186.835163 94.3451272,186.053028 C92.8867866,185.266867 87.7674621,180.343572 86.5000852,176.45409 C84.9533603,171.715932 84.9324695,165.378352 88.4290051,164.309121 C88.4290051,164.309121 99.1601955,161.883829 103.310507,161.861023 C109.713546,161.827752 114.64646,162.726336 114.64646,162.726336" id="path40" fill="#76AFE3" fill-rule="nonzero"></path>
                        <path d="M99.5667632,159.475442 C100.241698,159.344236 100.864673,159.175735 101.452027,158.99677 C101.169733,158.870125 100.866816,158.73892 100.538455,158.585176 L102.737348,158.580883 C104.570652,157.956784 106.214868,157.347443 108.43251,157.443231 C115.130163,157.738376 120.657127,159.050969 120.657127,159.050969 C125.112765,159.912257 131.200032,161.1787 131.723642,163.982582 C126.601371,162.114848 123.572201,161.646908 119.371805,161.004027 C112.281779,161.074862 91.0138434,161.164211 99.5667632,159.475442" id="path42" fill="#76AFE3" fill-rule="nonzero"></path>
                        <path d="M79.8201086,165.411623 C79.8201086,165.411623 96.324935,158.978256 114.291584,160.388515 C114.291584,160.388515 113.004119,157.686592 109.341796,157.459866 C105.675188,157.233141 99.0436889,157.875753 93.7845566,158.603958 C88.5254243,159.335919 79.2448073,161.287099 79.8201086,165.411623" id="path44" fill="#76AFE3" fill-rule="nonzero"></path>
                        <path d="M98.4997239,185.716025 C100.864673,188.074774 93.9621287,183.282416 91.7621636,181.096729 C85.5034855,174.88177 88.0200269,167.314775 88.0200269,167.314775 C91.1975756,166.474415 93.7960733,165.892174 95.8492669,165.492654 C95.8492669,165.492654 91.9335756,179.160038 98.4997239,185.716025" id="path46" fill="#FFFFFF" fill-rule="nonzero"></path>
                        <path d="M116.824463,168.15916 C115.753138,170.278573 114.606821,172.171261 113.435863,173.849834 C114.976428,175.16028 116.398879,176.187923 117.638402,176.971937 C119.095671,174.806642 120.173423,172.745453 120.918798,171.133422 C119.764445,170.436878 118.37333,169.477924 116.824463,168.15916 Z M111.760312,163.036238 C110.774425,165.187044 109.655159,167.158616 108.463578,168.953638 C110.026908,170.717535 111.53828,172.2048 112.958588,173.444411 C114.133831,171.749203 115.271578,169.856515 116.3346,167.734955 C114.912149,166.486758 113.365691,164.937512 111.760312,163.036238 Z M103.129721,163.083998 C101.935997,165.205826 100.69219,167.092075 99.446507,168.76233 C100.571666,170.386972 101.973226,172.206678 103.661098,174.055899 C105.035607,172.566756 106.393511,170.881743 107.672405,169.003544 C106.190227,167.293847 104.65984,165.334617 103.129721,163.083998 Z M94.224871,174.688315 C95.4464489,176.146334 96.7888185,177.63977 98.2254648,179.079007 C99.8222741,177.826785 101.531037,176.312689 103.233639,174.517667 C101.568533,172.6934 100.17715,170.898378 99.0498491,169.288494 C97.3951882,171.445471 95.7528477,173.22815 94.224871,174.688315 Z M89.3881084,178.646485 C90.4222044,179.852825 91.6772612,181.192249 93.1481898,182.544284 C94.3887837,181.818226 95.9604168,180.817951 97.6898025,179.494894 C96.2689583,178.066122 94.9421228,176.595492 93.73474,175.15223 C92.0696338,176.689134 90.5695116,177.83725 89.3881084,178.646485 Z M97.8063091,186.230115 C99.0602945,185.701536 100.675584,184.903033 102.481837,183.742307 C100.962163,182.571384 99.5086438,181.281598 98.136277,179.940027 C96.4371562,181.238131 94.8850748,182.246724 93.6361782,182.981099 C94.8797182,184.089505 96.2729758,185.192008 97.8063091,186.230115 Z M102.749668,189.023265 C104.42522,188.447194 105.974088,187.723283 107.402699,186.887216 C105.90338,186.128156 104.441826,185.196032 103.034105,184.156047 C101.290257,185.300138 99.7164808,186.103202 98.4458898,186.656198 C99.7786176,187.517486 101.217406,188.318135 102.749668,189.023265 Z M112.968766,182.612704 C111.418023,181.668775 109.977092,180.64945 108.644096,179.582365 C106.945779,181.269255 105.309599,182.588019 103.860364,183.598758 C103.779747,183.654836 103.698594,183.711182 103.615567,183.76726 C105.048195,184.823881 106.532516,185.747418 108.050315,186.49199 C109.891922,185.34602 111.525692,184.018938 112.968766,182.612704 Z M103.65708,174.975143 C101.967066,176.757822 100.264731,178.267894 98.674082,179.521994 C100.061179,180.884493 101.531037,182.184475 103.063299,183.353251 C104.65984,182.271945 106.389494,180.909446 108.141645,179.180967 C106.476539,177.816589 104.986059,176.39372 103.65708,174.975143 Z M108.585977,178.735834 C109.933435,177.363139 111.285179,175.782232 112.595409,173.95394 C111.172958,172.718621 109.661587,171.239674 108.100131,169.48812 C106.816952,171.356122 105.459316,173.024231 104.084807,174.517667 C105.41566,175.938391 106.912568,177.367163 108.585977,178.735834 Z M117.2854,177.487905 C116.035432,176.689134 114.611106,175.66793 113.072684,174.363655 C111.754419,176.202412 110.404818,177.785197 109.086285,179.137231 C110.423299,180.197877 111.870658,181.217202 113.427828,182.155497 C114.922594,180.638986 116.201488,179.04359 117.2854,177.487905 Z M124.502378,172.173407 L124.321592,172.78087 C124.215799,172.745453 123.152777,172.41489 121.458477,171.451642 C120.706943,173.080309 119.625441,175.137473 118.167636,177.302768 C120.868981,178.94807 122.590064,179.44311 122.629435,179.453574 L122.467665,180.05889 C122.426151,180.048426 120.623915,179.538629 117.817045,177.818468 C116.73715,179.36825 115.466559,180.961499 113.981971,182.481767 C115.723945,183.494653 117.600905,184.407994 119.619013,185.164908 L119.394838,185.757882 C117.289418,184.960989 115.333715,184.004449 113.523176,182.943804 C112.111438,184.333134 110.512754,185.655923 108.723106,186.805917 C110.06012,187.411234 111.418023,187.868978 112.792533,188.135145 L112.672009,188.754951 C111.114839,188.451219 109.574274,187.916737 108.073348,187.211608 C106.690536,188.051968 105.19336,188.792515 103.580213,189.391392 C103.914734,189.535208 104.254879,189.678488 104.599578,189.807547 L104.375404,190.394082 C103.808673,190.17782 103.25828,189.944655 102.7186,189.699416 C102.643875,189.722223 102.571293,189.749323 102.494425,189.772129 L102.430146,189.570357 C100.750309,188.794393 99.1912639,187.900102 97.7481897,186.94544 C96.24405,187.550757 95.303427,187.756554 95.2265595,187.773458 L95.0969292,187.157677 C95.1290689,187.149359 95.874443,186.982736 97.1024488,186.512918 C95.6210748,185.485275 94.2754911,184.399676 93.0651622,183.309784 C91.5618259,184.164633 90.6171855,184.566031 90.5796891,184.582666 L90.3402481,184.000156 C90.3734592,183.987814 91.2192699,183.628005 92.5793165,182.866529 C91.1290108,181.524959 89.8905596,180.197877 88.8661055,178.99583 C87.5580182,179.852825 86.7545248,180.22927 86.7274738,180.241881 L86.4668741,179.669835 C86.4939251,179.657224 87.2414418,179.303855 88.4581987,178.513401 C86.4047373,176.037935 85.3323414,174.213936 85.3052904,174.174494 L85.8481842,173.854127 C85.8730925,173.89974 86.9403996,175.709519 88.9831477,178.165934 C90.1543733,177.367163 91.658513,176.221194 93.3351359,174.66524 C92.0270486,173.082455 90.8676076,171.545284 89.8873456,170.17876 C86.7866645,173.465071 84.468586,174.093195 84.3231536,174.130759 L84.1707577,173.519271 C84.2039688,173.513099 86.4679454,172.886854 89.5083646,169.642132 C87.6193515,166.967308 86.4751769,165.037325 86.3257271,164.781353 L86.8675495,164.460986 C86.9050459,164.523504 88.0344898,166.432827 89.9580531,169.149239 C91.4477299,167.474959 93.0994445,165.180605 94.753034,162.042135 L95.3095871,162.33728 C93.5906469,165.592467 91.8826877,167.961681 90.3421229,169.685867 C91.3282772,171.05883 92.5013776,172.604051 93.8241956,174.207765 C95.3572611,172.739282 97.0121897,170.933796 98.674082,168.747841 C96.3924284,165.396866 95.2972669,162.94689 95.2691446,162.884373 L95.8423033,162.632694 C95.871229,162.690918 96.9104139,165.012104 99.0726147,168.215237 C100.31428,166.53264 101.55166,164.637805 102.739491,162.501757 C102.538082,162.200172 102.336673,161.894294 102.137406,161.582244 L102.664766,161.241217 C102.801628,161.457478 102.9409,161.669715 103.077762,161.875512 C103.18784,161.671861 103.300061,161.472236 103.407997,161.26617 L103.964283,161.559438 C103.80037,161.86934 103.63619,162.168779 103.47442,162.466339 C105.008556,164.748082 106.542961,166.738437 108.035852,168.462891 C109.223415,166.655259 110.338396,164.675369 111.314105,162.503903 C111.075467,162.212514 110.836562,161.910929 110.595782,161.605319 L111.085913,161.21841 C111.255986,161.436818 111.430344,161.646908 111.598542,161.856998 C111.615147,161.815409 111.633895,161.777845 111.650501,161.736257 L112.227945,161.983911 C112.169558,162.125312 112.107153,162.258396 112.047159,162.397651 C113.64986,164.31556 115.20087,165.877417 116.629214,167.144127 C117.133808,166.097971 117.621528,165.012104 118.088894,163.866134 L118.670087,164.101177 C118.176207,165.317982 117.659025,166.472269 117.119345,167.566454 C118.655892,168.878778 120.042454,169.841758 121.184486,170.536691 C121.903077,168.905878 122.235188,167.851403 122.249651,167.807668 L122.849592,167.994951 C122.835129,168.038687 122.488288,169.149239 121.724434,170.863229 C123.431054,171.840698 124.47747,172.169382 124.502378,172.173407 Z" id="path48" fill="#1A3374" fill-rule="nonzero"></path>
                        <path d="M125.627805,161.861023 C100.879136,155.862324 79.8201086,165.411623 79.8201086,165.411623 C80.7987636,167.707855 84.8277475,166.110582 84.8277475,166.110582 C103.578338,161.488871 117.067386,162.562127 124.817883,164.140619 C124.817883,164.140619 125.266233,163.872305 125.453179,163.393901 C125.719135,162.73036 125.627805,161.861023 125.627805,161.861023" id="path50" fill="#FFFFFF" fill-rule="nonzero"></path>
                        <path d="M92.2959511,132.389938 C86.5965044,140.755703 86.2852846,144.308182 86.1243181,145.558257 C85.9644229,146.808333 85.5034855,159.317137 85.5034855,159.317137 C88.04681,158.256491 92.3821927,157.432767 92.3821927,157.432767 C96.513756,151.332377 101.56639,150.410718 101.56639,150.410718 C104.892318,150.410718 110.450617,155.026257 110.450617,155.026257 C110.450617,155.026257 110.886646,155.398677 111.226792,155.354942 C111.226792,155.354942 111.941098,134.54289 104.487357,128.529703 C101.574425,126.181417 92.2959511,132.389938 92.2959511,132.389938" id="path52" fill="#76AFE3" fill-rule="nonzero"></path>
                        <path d="M99.8742333,126.730388 C105.126938,130.967336 106.368603,142.390541 106.617686,148.863351 L106.314501,149.033998 L105.224428,148.035602 C104.960882,141.527375 103.067316,130.116512 97.8622858,125.919275" id="path54" fill="#FFFFFF" fill-rule="nonzero"></path>
                        <path d="M135.886273,124.078371 L117.289418,127.758031 C117.289418,127.758031 135.591391,142.203258 153.216555,136.154921 C153.216555,136.154921 142.773015,134.886064 135.886273,124.078371" id="path56" fill="#76AFE3" fill-rule="nonzero"></path>
                        <path d="M124.506396,130.349409 C124.506396,130.349409 135.909307,137.198931 147.569335,136.115211 C147.569335,136.115211 139.094087,135.580729 130.942914,129.228392 L124.506396,130.349409" id="path58" fill="#FFFFFF" fill-rule="nonzero"></path>
                        <path d="M99.6168476,126.730388 C104.865267,130.967336 106.065418,142.561189 106.314501,149.033998 L104.9649,148.035602 C104.701354,141.527375 102.808056,130.116512 97.6070427,125.919275" id="path60" fill="#1A3374" fill-rule="nonzero"></path>
                        <path d="M113.41524,0.430351682 C112.78423,0.430351682 112.142507,0.45131238 111.505069,0.486737892 L111.409721,0.496904313 L111.31839,0.513778588 C103.609406,2.16957178 98.713721,6.00489658 93.9798055,9.71967859 C92.8857153,10.5767007 91.6472641,11.5479978 90.4230079,12.44033 C84.2524462,16.9330351 78.2811509,22.5947848 73.6088366,28.3956821 L73.44171,28.601479 L73.3763592,28.8574507 C69.6963592,42.7244605 68.0299139,60.2794476 68.8055529,77.0088323 C69.4354917,90.588746 71.9718526,110.150991 80.4966501,126.222738 L80.7406443,126.684775 L81.2369354,126.828054 C92.6778783,130.235107 103.7152,131.888727 114.984999,131.888727 C119.51938,131.888727 124.228119,131.614242 128.982658,131.075467 L129.032742,131.071174 C145.484538,128.479796 159.752439,123.146785 173.947489,114.288126 L174.389678,114.013641 L174.499757,113.508137 C178.46339,95.7470847 175.733119,76.2100612 172.74332,62.9502463 C169.062249,46.6117953 162.80866,30.1324793 155.589539,17.7357772 L155.454552,17.5050808 L155.242966,17.353215 C149.200963,13.0019114 141.942739,9.12665074 134.804503,6.43733843 C133.392765,5.90291039 131.939246,5.29332757 130.656067,4.75669935 C125.57772,2.62916434 120.325016,0.430351682 113.41524,0.430351682" id="path62" fill="#1A3374"></path>
                        <path d="M114.984999,132.317224 L114.984999,131.456204 L114.984999,132.317224 C103.673686,132.317224 92.5937793,130.655287 81.1145365,127.242063 L80.7918,127.146275 L80.4449587,127.044316 L80.2767607,126.726095 L80.1190082,126.426657 C71.5543039,110.284075 69.0077654,90.6531414 68.3746126,77.027346 C67.5992414,60.2566409 69.2694364,42.6579186 72.9609531,28.7431489 L73.0046095,28.5829654 L73.0504087,28.4018533 L73.1666474,28.2561588 L73.2745833,28.123075 C77.9688598,22.2993173 83.9693487,16.6024721 90.1709788,12.088597 C91.3885392,11.2047435 92.6237764,10.2332586 93.7149205,9.3808247 C98.4874037,5.63856733 103.420318,1.76814705 111.224649,0.0914994041 L111.289464,0.0813327142 L111.351601,0.0643535291 L111.414006,0.0643535291 L111.474,0.0581696938 C112.124026,0.0209620397 112.775659,0 113.41524,0 C120.409918,0 125.702262,2.21704997 130.822122,4.35736746 C132.101283,4.89619585 133.550518,5.50368583 134.956096,6.03172799 C142.129417,8.73571709 149.423263,12.6317184 155.492049,17.0016698 L155.633196,17.099363 L155.78077,17.2094254 L155.873976,17.3655843 L155.961289,17.51745 C163.201032,29.9516356 169.47337,46.4787115 173.160601,62.8547265 C176.16272,76.1580083 178.903704,95.7658667 174.921323,113.599632 L174.846598,113.932342 L174.767588,114.283833 L174.460386,114.475141 L174.174074,114.658131 C159.931082,123.54389 145.609079,128.895683 129.103182,131.497793 L129.099164,131.499671 L129.092736,131.499671 L129.057383,131.503964 L129.04533,131.506111 L129.032742,131.507989 C124.26133,132.046764 119.535985,132.317224 114.984999,132.317224 Z M114.984999,131.456204 C119.556876,131.456204 124.186873,131.185744 128.937126,130.650994 L128.970337,130.644823 C145.358122,128.063641 159.575938,122.747265 173.721172,113.924024 L174.008019,113.74318 L174.080333,113.408324 C178.027361,95.7283027 175.30325,76.2599676 172.326039,63.0395949 C168.651128,46.7513186 162.41843,30.3154696 155.217789,17.9498919 L155.130744,17.8023191 L154.99174,17.7006549 C148.981073,13.3740899 141.757667,9.51790638 134.652911,6.83876317 C133.251618,6.31050635 131.847915,5.72630604 130.490011,5.15436769 C125.440859,3.04316496 120.237703,0.867199249 113.41524,0.867199249 C112.798425,0.867199249 112.169558,0.88197799 111.527834,0.919499035 L111.46784,0.923483499 L111.405435,0.935850096 C103.798227,2.56879366 98.9419131,6.37508956 94.2444227,10.0566543 C93.0849817,10.965461 91.8877765,11.9056068 90.6763762,12.7897823 C84.5350081,17.259627 78.591835,22.8963161 73.9430899,28.6639962 L73.8351539,28.79708 L73.7914974,28.9655813 C70.1230143,42.7993201 68.4608542,60.3046692 69.2362253,76.9860256 C69.8624146,90.5243506 72.3899371,110.0222 80.8777738,126.021234 L81.0365977,126.318526 L81.3606734,126.416461 C92.733855,129.802585 103.675829,131.456204 114.984999,131.456204 Z" id="path64" fill="#FFFFFF" fill-rule="nonzero"></path>
                        <path d="M53.8897687,167.554111 C53.8897687,167.554111 47.311568,171.258456 40.0801271,167.106832 C32.8473471,162.957354 31.1273355,155.881106 26.3913041,154.24439 L26.3913041,153.792817 C26.3913041,153.792817 24.1532535,153.252164 19.3333375,153.705615 C14.5113324,154.15692 12.1868527,154.418794 11.6708492,150.188286 C11.1540154,145.966095 6.59252968,137.169685 11.4124189,137.513127 C11.4124189,137.513127 13.012094,133.977016 15.6543018,135.014855 C15.6543018,135.014855 17.6109422,132.389938 22.1724548,134.823547 L57.5545022,147.342815 C57.5545022,147.342815 67.847253,160.232356 53.8897687,167.554111" id="path66" fill="#1A3374" fill-rule="nonzero"></path>
                        <path d="M58.2530058,160.48001 C58.2530058,160.48001 55.1191136,168.329808 47.0207033,166.590864 C37.823114,164.617145 37.807312,157.821822 31.0078828,153.875995 C31.0078828,153.875995 36.2067531,153.487208 37.6372392,147.945985 C37.6372392,147.945985 43.9904618,153.164694 47.7992885,155.947648 C53.1848371,159.885158 58.2530058,160.48001 58.2530058,160.48001" id="path68" fill="#76AFE3" fill-rule="nonzero"></path>
                        <path d="M93.5293135,132.329567 C93.5293135,132.329567 91.6065538,148.505688 93.671264,154.034032 L93.0839103,154.849438 C91.0167896,149.322973 92.9561549,133.107678 92.9561549,133.107678 L93.5293135,132.329567" id="path70" fill="#FFFFFF" fill-rule="nonzero"></path>
                        <path d="M114.631997,10.5538671 C113.984114,10.5538671 113.319892,10.5767007 112.663706,10.6182089 L112.574518,10.6225019 L112.489348,10.6410692 C105.261925,12.161659 100.658979,15.6327581 96.2108389,18.9920239 C95.1850457,19.7637489 94.0245333,20.6395262 92.8688419,21.4484664 C87.0668159,25.5085955 81.4477185,30.6234942 77.043771,35.850253 L76.8830723,36.0437075 L76.8145075,36.2787506 C73.297349,48.746234 71.644563,64.4957355 72.2801263,79.4985189 C72.7948977,91.6807844 75.0671772,109.217258 82.9623036,123.595943 L83.1969237,124.020147 L83.6731275,124.149206 C94.1490748,127.086173 104.254879,128.508774 114.57361,128.508774 C119.025231,128.508774 123.655228,128.236167 128.331024,127.708125 L128.376556,127.701685 C143.786488,125.284712 157.169475,120.423933 170.498895,112.405634 L170.922604,112.153956 L171.034558,111.677698 C174.844723,95.7221315 172.390319,78.208733 169.662191,66.3259061 C166.303053,51.6955427 160.539326,36.9444379 153.847565,25.8622335 L153.716864,25.6459991 L153.511169,25.5065026 C147.880555,21.6360716 141.108177,18.1975726 134.441056,15.8243612 C133.110203,15.3503038 131.760602,14.8157685 130.569021,14.3413891 C125.87046,12.4798527 121.012003,10.5538671 114.631997,10.5538671" id="path72" fill="#1A3374"></path>
                        <path d="M114.577895,128.941296 L114.577895,128.080276 L114.57361,128.941296 C104.217651,128.941296 94.0711359,127.508231 83.5571566,124.56724 L83.255043,124.484062 L82.9082017,124.386396 L82.7330401,124.0722 L82.5854652,123.803886 C74.6501641,109.35222 72.3671714,91.7451798 71.849186,79.5148861 C71.2117479,64.4726605 72.8696226,48.6689595 76.4004406,36.1623023 L76.4427579,36.012583 L76.4928423,35.8338858 L76.6141698,35.6900695 L76.717017,35.5714746 C81.1413197,30.3176161 86.7917533,25.1759396 92.6208303,21.0929502 C93.7719685,20.2880079 94.9298026,19.414404 95.952114,18.6449059 C100.438821,15.2609016 105.081406,11.7642053 112.39775,10.2189843 L112.45828,10.2064272 L112.516399,10.1897649 L112.574518,10.1878599 L112.634512,10.181474 C113.305162,10.1438564 113.975811,10.1250744 114.631997,10.1250744 C121.093156,10.1250744 125.993126,12.0639658 130.726774,13.9421645 C131.914337,14.4141291 133.259921,14.9445592 134.584346,15.4167384 C141.286553,17.8045193 148.09241,21.2614783 153.754092,25.1487863 L153.887204,25.2381885 L154.038797,25.3443604 L154.134145,25.5003314 L154.212887,25.6355349 C160.931699,36.7571547 166.713906,51.5538728 170.083757,66.2282397 C172.820188,78.1569484 175.282627,95.7409135 171.453981,111.781804 L171.385416,112.074803 L171.300246,112.426563 L170.989026,112.617871 L170.723338,112.778054 C157.344101,120.825331 143.906745,125.704892 128.446995,128.126158 L128.443246,128.126158 L128.43896,128.126158 L128.405749,128.130183 L128.393161,128.130183 L128.380573,128.132329 C123.686565,128.668958 119.041837,128.941296 114.577895,128.941296 Z M114.57361,128.080276 C119.062728,128.080276 123.613715,127.810084 128.283083,127.277481 L128.314151,127.271309 C143.661679,124.868825 156.995117,120.028707 170.276863,112.037508 L170.544694,111.875177 L170.615402,111.580032 C174.404409,95.7033495 171.960718,78.2589077 169.242767,66.4235724 C165.894074,51.830773 160.148829,37.1314529 153.477958,26.084961 L153.399216,25.9497575 L153.268514,25.8622335 C147.664683,22.0143408 140.929534,18.5927993 134.295892,16.2300789 C132.989947,15.7639905 131.677842,15.2440246 130.411269,14.7406137 C125.743776,12.8935393 120.929243,10.9864163 114.631997,10.9864163 C114.000987,10.9864163 113.353103,11.0048495 112.690757,11.046787 L112.630227,11.0486652 L112.574518,11.0612491 C105.446728,12.5672694 100.883153,16.0052586 96.469296,19.3352781 C95.3789554,20.1548972 94.2537968,21.0012404 93.1160501,21.7981065 C87.3461638,25.8394804 81.7549208,30.9312504 77.3732033,36.1268848 L77.2714275,36.2476262 L77.230985,36.395199 C73.724004,48.8210936 72.0746998,64.522567 72.7089239,79.4859082 C73.2236954,91.6185355 75.4847259,109.086052 83.3388742,123.387999 L83.4864492,123.65202 L83.7885627,123.737344 C94.1978201,126.651504 104.221668,128.080276 114.57361,128.080276 Z" id="path74" fill="#76AFE3" fill-rule="nonzero"></path>
                        <path d="M128.299688,127.433371 C123.634338,127.963828 119.016929,128.232142 114.57361,128.232142 C104.282198,128.232142 94.1988914,126.815712 83.7470489,123.885185 L83.3806558,123.787251 L83.201209,123.462859 C75.3320622,109.134081 73.0659429,91.6391957 72.5519749,79.4902012 C71.9166794,64.5142492 73.5673228,48.7958721 77.0780534,36.3579033 L77.1206385,36.2079157 L77.2545541,36.0292185 C81.6426996,30.8209733 87.2454592,25.7187391 93.025791,21.6730721 C94.1905886,20.8579607 95.351101,19.9802784 96.3736803,19.2085534 C100.800393,15.8721479 105.380306,12.419482 112.543182,10.9093833 L112.813156,10.8782589 L112.842349,11.0091694 C112.960731,11.5168465 124.705662,62.4490355 128.470029,127.262723 L128.480206,127.40654 L128.299688,127.433371" id="path76" fill="#76AFE3" fill-rule="nonzero"></path>
                        <path d="M36.1869336,152.646848 C34.8520632,153.986272 33.4183631,154.227755 33.4183631,154.227755 C39.5471431,157.780233 38.7532916,162.961379 47.0279348,165.409477 C49.0294369,166.002183 51.1980657,165.933494 52.1593117,165.216022 C52.1593117,165.216022 44.6311139,164.519211 36.1869336,152.646848" id="path78" fill="#FFFFFF" fill-rule="nonzero"></path>
                        <polyline id="path80" fill="#76AFE3" fill-rule="nonzero" points="170.623705 85.796656 147.365784 120.519721 43.6489771 143.357545 36.0251636 138.394807 123.185988 86.7180467 170.623705 85.796656"></polyline>
                        <path d="M43.6489771,143.357545 L147.365784,120.519721 L170.623705,85.796656 L123.185988,86.7180467 L36.0251636,138.394807 L43.6489771,143.357545 Z M171.910633,86.6638472 L148.65298,121.385034 L148.304264,121.905027 L147.697894,122.035964 L45.2404297,144.597156 L34.2539962,137.639771 L35.2350617,137.059676 L122.396958,85.3805008 L122.748084,85.1725574 L123.156795,85.1642396 L170.594243,84.2425807 L173.567705,84.1867714 L171.910633,86.6638472 Z" id="path82" fill="#1A3374" fill-rule="nonzero"></path>
                        <polyline id="path84" fill="#76AFE3" fill-rule="nonzero" points="49.1662986 153.792817 16.8294109 133.619353 23.0611988 132.389938 55.0639404 152.653019 49.1662986 153.792817"></polyline>
                        <path d="M20.0951832,151.94789 C20.0951832,151.94789 27.2001274,150.00932 29.998695,145.911895 C29.998695,145.911895 32.8462757,147.449067 35.2163135,147.638228 C35.2163135,147.638228 33.9446513,152.024896 29.3521506,151.94789 C24.7595161,151.877323 20.0951832,151.94789 20.0951832,151.94789" id="path86" fill="#76AFE3" fill-rule="nonzero"></path>
                        <path d="M28.5631201,144.399677 C28.5631201,144.399677 26.4090881,148.70746 26.2668162,145.404245 C26.1224285,142.103445 23.3965234,138.349194 25.1902422,139.222825 C26.9829164,140.087869 29.0645,142.103445 28.5631201,144.399677" id="path88" fill="#FFFFFF" fill-rule="nonzero"></path>
                        <path d="M23.3965234,148.353822 C23.3965234,148.353822 21.2444466,151.373966 21.7459069,146.053297 C22.2483045,140.734775 17.176038,132.96413 20.9567424,136.493802 C24.7385985,140.02562 24.7168506,147.571686 23.3965234,148.353822" id="path90" fill="#FFFFFF" fill-rule="nonzero"></path>
                        <path d="M16.8294109,133.619353 L49.1662986,153.792817 L55.0639404,152.653019 L23.0611988,132.389938 L16.8294109,133.619353 Z M45.2404297,144.597156 L55.8915386,151.342841 L59.1997889,153.437301 L55.3569477,154.17758 L49.4603772,155.317646 L48.8623103,155.429802 L48.3475388,155.109435 L16.0081335,134.931677 L12.6696719,132.851706 L13.06408,130.671922 L23.4193159,128.615026 L36.0251636,136.58959 L36.5951083,137.238374 L35.2163135,138.251528 L45.2404297,144.597156 Z" id="path92" fill="#1A3374" fill-rule="nonzero"></path>
                        <path d="M18.7322709,138.719467 C18.7322709,138.719467 17.8986464,136.926593 16.843847,137.282109 C15.7892619,137.644064 16.2490744,138.648632 16.843847,140.231417 C17.439691,141.812324 18.4435221,147.852611 18.2297928,148.927746 C18.0137335,150.00932 17.8787734,151.810781 19.5980082,149.508109 C21.3161182,147.205706 18.7322709,138.719467 18.7322709,138.719467" id="path94" fill="#FFFFFF" fill-rule="nonzero"></path>
                        <path d="M14.4270995,139.093766 C14.4270995,139.093766 13.709928,138.29097 12.7774204,138.579944 C11.8431718,138.864894 11.8743473,138.991806 12.7774204,141.454661 C13.6787525,143.915102 14.2112544,148.212421 14.4270995,150.367251 C14.6420876,152.52396 15.2035955,152.129002 16.2147652,151.003692 C17.2259349,149.876236 15.4672485,139.651054 14.4270995,139.093766" id="path96" fill="#FFFFFF" fill-rule="nonzero"></path>
                        <polyline id="path98" fill="#FFFFFF" fill-rule="nonzero" points="123.034396 88.8374598 37.6289365 138.480131 41.350718 140.755703 120.316713 114.088232 134.621842 116.950339 121.306885 113.038051 123.034396 88.8374598"></polyline>
                        <path d="M86.5965044,157.971541 C86.5965044,157.971541 86.887369,149.033998 87.2154622,145.635264 C87.2992933,144.772097 87.6129236,142.546432 91.6917241,134.77364 C91.6917241,134.77364 89.7534301,150.989203 91.8192117,156.519694 C91.8192117,156.519694 88.5730982,157.054175 86.5965044,157.971541" id="path100" fill="#FFFFFF" fill-rule="nonzero"></path>
                        <path d="M107.475013,189.106442 C107.475013,189.106442 105.882757,189.177277 104.807415,190.364835 C104.807415,190.364835 103.758588,197.129034 104.807415,197.860995 C105.853831,198.593224 108.455275,198.478922 109.894064,197.860995 C109.894064,197.860995 106.769278,196.640166 107.475013,189.106442" id="path102" fill="#76AFE3" fill-rule="nonzero"></path>
                        <path d="M107.157633,197.906877 C106.401814,197.929683 105.133098,197.927537 104.986059,197.357906 C104.487357,195.425508 105.316026,190.473234 105.316026,190.473234 C105.533773,190.317075 105.758216,190.198481 105.974088,190.100814 C105.974088,190.100814 105.297278,197.178672 107.157633,197.906877" id="path104" fill="#FFFFFF" fill-rule="nonzero"></path>
                        <path d="M105.116788,193.55348 C105.230553,193.55348 105.730168,194.05348 105.461977,194.05348 C105.348212,194.05348 104.852057,193.55348 105.116788,193.55348" id="path106" fill="#FFFFFF" fill-rule="nonzero"></path>
                    </g>
                </g>
            </g>
        </g>
    </g>
</svg>