<?xml version="1.0" encoding="UTF-8"?>
<svg width="200px" height="200px" viewBox="0 0 200 200" version="1.1" xmlns="http://www.w3.org/2000/svg" xmlns:xlink="http://www.w3.org/1999/xlink">
    <!-- Generator: Sketch 51.3 (57544) - http://www.bohemiancoding.com/sketch -->
    <title>ohio-dominican</title>
    <desc>Created with Sketch.</desc>
    <defs></defs>
    <g id="ohio-dominican" stroke="none" stroke-width="1" fill="none" fill-rule="evenodd">
        <g id="ohio-dominican_BGL" transform="translate(0.000000, 2.985075)">
            <g id="ohio-dominican">
                <g id="g10" transform="translate(99.999998, 97.849258) scale(-1, 1) rotate(-180.000000) translate(-99.999998, -97.849258) translate(0.000000, 0.366821)" fill-rule="nonzero">
                    <g id="g12">
                        <path d="M106.871209,47.6322297 L102.840907,44.0229677 C101.867674,43.1504496 101.32424,42.7873527 101.007573,42.6420837 C100.894947,42.6742931 100.442422,42.8099143 99.5323207,43.5997733 C98.6484824,44.3670204 97.5474723,45.5011833 96.0696946,47.1342653 L48.3944937,99.8144773 C47.1107564,101.232998 46.2434837,102.279175 45.6804534,103.100238 C45.1033827,103.941904 45.0236857,104.297664 45.0165645,104.345401 C45.1710595,104.605186 45.5780292,105.009186 46.4567665,105.796582 L52.0055543,110.767182 C58.6196955,116.692506 65.1510085,118.405483 72.3434325,116.652307 C81.0611091,114.64638 89.9318159,108.367807 100.036361,97.2020485 C109.968179,86.2287421 114.911108,76.8035975 115.687876,68.459302 C116.574745,60.2948967 113.349997,53.4364546 106.871209,47.6322297 Z M102.570199,99.4717813 C92.2979775,110.821953 82.8671696,117.712052 73.1328265,119.952138 C64.6904024,122.008816 57.0525238,119.852143 49.7245947,113.288158 L44.1757565,108.317056 C40.4089889,104.942857 40.6370192,103.317313 45.8607564,97.545247 L93.5363613,44.864633 C99.5035329,38.2704487 101.046967,37.8517767 105.12222,41.5024437 L109.151512,45.1123088 C116.266664,51.4863034 120.108078,59.3336395 119.079795,68.7984806 C118.204037,78.2050332 112.703533,88.2738634 102.570199,99.4717813 Z" id="path14" fill="#FBBF16"></path>
                        <path d="M178.957066,95.8790008 C182.059591,89.2667772 179.180804,79.6652598 171.540905,72.8213898 C163.865652,65.9468681 153.913633,64.1198261 147.63333,67.9507854 C147.451511,68.06083 147.274744,68.1784119 147.099491,68.2985062 C146.356562,68.8075253 145.667168,69.3974448 145.050501,70.0788169 C139.258077,76.479996 141.725249,88.0864358 150.561612,96.0031151 C158.423733,103.04597 168.678279,104.795126 174.925248,100.588307 L196.29545,115.725219 L178.957066,95.8790008 Z M145.647471,62.3661472 L144.957067,62.3661472 L144.957067,65.4061923 L144.93838,65.4061923 L143.874744,62.3731821 L143.871714,62.3661472 L143.311108,62.3661472 L143.308582,62.3731821 L142.247976,65.4061923 L142.227269,65.4061923 L142.227269,62.3731821 L142.227269,62.3661472 L141.53636,62.3661472 L141.53636,62.3731821 L141.53636,66.007669 L142.592421,66.007669 L143.578279,63.212335 L143.605047,63.212335 L144.590905,66.007669 L145.647471,66.007669 L145.647471,62.3731821 L145.647471,62.3661472 Z M139.731815,62.3661472 L139.040401,62.3661472 L139.040401,65.4252868 L137.93737,65.4252868 L137.93737,66.007669 L140.835855,66.007669 L140.835855,65.4252868 L139.731815,65.4252868 L139.731815,62.3731821 L139.731815,62.3661472 Z M134.286865,62.2053515 C130.411108,54.6791044 123.92828,46.7332306 113.798482,37.6594248 L77.1075738,4.79030701 L71.8858568,10.5602623 C80.490402,18.268912 80.0510081,20.3617192 72.8459578,28.3231701 L27.8922215,77.9959987 C20.6871207,85.9579018 18.6416662,86.6116371 10.0368684,78.9024848 L4.81474735,84.6730431 L44.2639383,120.012436 C59.274746,133.459485 71.8116144,139.326018 85.3166645,138.747153 C98.4318157,138.080353 110.954543,131.364115 121.833835,119.343124 C132.707572,107.32766 139.082825,94.4479185 139.164643,81.4209486 C139.098986,77.1201642 138.445956,72.8862106 136.998481,68.5788938 C136.291916,66.4774941 135.395451,64.3590098 134.286865,62.2053515 Z M109.148987,134.284066 C105.160603,136.714594 100.989391,138.668765 96.7409067,140.02548 C100.680806,141.764084 104.42222,144.403647 107.512119,147.601473 C106.402523,142.921814 106.793937,138.218537 109.148987,134.284066 Z M82.3914121,171.330909 C90.0308058,178.174276 99.9292904,180.01991 106.214644,176.258294 L127.865148,191.339933 L110.499997,171.776615 C114.052017,165.155849 111.231815,155.192038 103.370199,148.149686 C94.5328259,140.233007 82.6732303,139.004929 76.8803011,145.406611 C71.0868669,151.80779 73.5545436,163.414732 82.3914121,171.330909 Z M119.001007,160.042041 C126.640906,166.885911 136.539896,168.731042 142.824239,164.969929 L164.475248,180.051567 L147.110097,160.487747 C150.662622,153.866981 147.842421,143.903673 139.9803,136.86132 C131.142926,128.944641 119.28333,127.716563 113.489896,134.117743 C107.696967,140.518922 110.164644,152.125864 119.001007,160.042041 Z M147.277774,100.498864 C148.313128,100.419974 149.410602,100.3848 150.582825,100.403392 C149.449491,100.340079 148.346461,100.376258 147.277774,100.498864 Z M132.221714,111.89426 C128.543936,117.424127 124.056058,122.561049 119.038886,126.974893 C124.588381,125.604612 130.890906,127.092475 136.496461,130.33854 C134.307572,127.184932 133.001512,124.009718 132.43737,120.966659 C131.890906,118.438145 131.569189,115.123742 132.221714,111.89426 Z M132.174744,115.936766 C132.166663,116.037263 132.156057,116.136756 132.148987,116.237755 C132.13737,116.420661 132.13131,116.606078 132.124744,116.791496 C132.121209,116.890486 132.114643,116.989476 132.112623,117.088968 C132.108583,117.287953 132.112118,117.488947 132.114643,117.68944 C132.116158,117.776872 132.113633,117.8633 132.116158,117.951235 C132.124239,118.240165 132.138381,118.531105 132.159593,118.82305 C132.138381,118.531105 132.124239,118.240165 132.116158,117.951235 C132.113633,117.8633 132.116158,117.776872 132.114643,117.68944 C132.112118,117.488947 132.108583,117.287953 132.112623,117.088968 C132.114643,116.989476 132.121209,116.890486 132.124744,116.791496 C132.13131,116.606078 132.13737,116.420661 132.148987,116.237755 C132.156057,116.136756 132.166663,116.037263 132.174744,115.936766 C132.190401,115.756373 132.204542,115.57598 132.225249,115.397095 C132.235855,115.299613 132.251007,115.203638 132.263633,115.106658 C132.28737,114.926767 132.310098,114.746375 132.339391,114.567992 C132.353532,114.477042 132.372219,114.387097 132.387875,114.296146 C132.420199,114.113744 132.453532,113.931844 132.491411,113.751451 C132.509088,113.669043 132.528785,113.58764 132.547471,113.505735 C132.589896,113.318307 132.63333,113.131382 132.681815,112.946467 C132.700502,112.875616 132.721209,112.805268 132.740906,112.734418 C132.794441,112.539453 132.849492,112.345995 132.909593,112.154045 C132.927774,112.096259 132.946966,112.039478 132.966663,111.981692 C133.032825,111.778185 133.101512,111.575683 133.175249,111.375693 C133.191411,111.332479 133.208583,111.289266 133.224239,111.246052 C133.305047,111.031992 133.389391,110.81944 133.478279,110.609903 C133.489896,110.583272 133.501512,110.557142 133.513633,110.531013 C133.611108,110.303386 133.713128,110.078775 133.820704,109.856676 C133.824239,109.849641 133.828279,109.842104 133.830805,109.834566 C133.828279,109.842104 133.824239,109.849641 133.820704,109.856676 C133.713128,110.078775 133.611108,110.303386 133.513633,110.531013 C133.501512,110.557142 133.489896,110.583272 133.478279,110.609903 C133.389391,110.81944 133.305047,111.031992 133.224239,111.246052 C133.208583,111.289266 133.191411,111.332479 133.175249,111.375693 C133.101512,111.575683 133.032825,111.778185 132.966663,111.981692 C132.946966,112.039478 132.927774,112.096259 132.909593,112.154045 C132.849492,112.345995 132.794441,112.539453 132.740906,112.734418 C132.721209,112.805268 132.700502,112.875616 132.681815,112.946467 C132.63333,113.131382 132.589896,113.318307 132.547471,113.505735 C132.528785,113.58764 132.509088,113.669043 132.491411,113.751451 C132.453532,113.931844 132.420199,114.113744 132.387875,114.296146 C132.372219,114.387097 132.353532,114.477042 132.339391,114.567992 C132.310098,114.746375 132.28737,114.926767 132.263633,115.106658 C132.251007,115.203638 132.235855,115.299613 132.225249,115.397095 C132.204542,115.57598 132.190401,115.756373 132.174744,115.936766 Z M141.554542,90.4792778 C140.571714,95.0911016 138.907572,99.7069452 136.689391,104.178073 C138.885855,102.37314 142.001512,101.048082 146.369188,100.58278 C147.695451,100.361183 149.081309,100.278273 150.514643,100.352641 C149.747976,99.7798057 149.002016,99.1697868 148.281309,98.5235888 C145.352017,95.9001053 143.138885,93.1861742 141.554542,90.4792778 Z M168.677774,138.588368 L190.04848,153.725279 L172.709592,133.879061 C175.812117,127.266838 172.932824,117.66532 165.29343,110.821953 C156.456562,102.905776 144.596966,101.677196 138.803532,108.078877 C133.010098,114.480057 135.477269,126.086999 144.314643,134.003176 C152.176764,141.04603 162.430299,142.795187 168.677774,138.588368 Z M194.318682,118.488394 L174.712117,104.601166 C171.755046,105.990542 168.411107,106.46891 164.975248,106.160383 C165.84141,106.813113 166.709087,107.52564 167.574743,108.301479 C175.183834,115.118215 179.094945,125.058408 176.618177,133.182615 L192.621207,151.499765 C195.669187,154.989034 191.856561,159.169724 188.071712,156.488454 L168.464642,142.600725 C162.292925,145.501581 154.432319,144.430781 147.577774,140.523444 C151.593431,146.357316 153.409592,153.288116 151.099491,159.857628 L167.030299,177.806456 C170.107066,181.271605 166.326258,185.481439 162.520198,182.829816 L142.53737,168.909928 C134.675249,172.210763 124.329795,169.37925 116.720199,162.562515 C116.141411,162.044451 115.583835,161.506287 115.047472,160.950537 C115.773229,164.313178 115.673734,167.777322 114.489391,171.146496 L130.420199,189.095324 C133.495956,192.560473 129.716663,196.770307 125.909593,194.118685 L105.926765,180.198796 C98.0651491,183.499631 87.7196948,180.668118 80.110099,173.851383 C70.6747457,165.399052 66.6772711,151.61182 74.3469678,143.136878 C74.8762608,142.551983 75.428786,142.018845 76.0020183,141.535453 C64.7843418,139.597864 53.9747461,133.275575 41.9829282,122.53291 L0,84.9232815 L9.78454521,74.1122783 C17.8667672,81.3526104 17.919242,83.9469497 25.3590398,75.7262659 L70.3126245,26.0529348 C77.7525233,17.8322008 75.1535335,18.0518377 67.0712104,10.8115057 L76.8550486,0 L116.0803,35.1389511 C126.066664,44.0857785 132.7303,52.1134069 136.880805,59.8547183 C138.242421,59.1426945 139.941916,58.7140733 141.792421,58.7140733 C145.306057,58.7140733 148.28636,60.2436431 149.38838,62.3731821 L155.606562,62.3731821 C161.169693,62.3430328 167.531309,64.6660293 173.821713,70.3014185 C181.431309,77.1181543 185.342925,87.0583478 182.865147,95.1830566 L198.869187,113.500207 C201.917167,116.989476 198.104035,121.169663 194.318682,118.488394 Z" id="path16" fill="#FBBF16"></path>
                        <path d="M109.151512,45.1123088 L105.12222,41.5024437 C101.046967,37.8517767 99.5035329,38.2704487 93.5363613,44.864633 L45.8607564,97.545247 C40.6370192,103.317313 40.4089889,104.942857 44.1757565,108.317056 L49.7245947,113.288158 C57.0525238,119.852143 64.6904024,122.008816 73.1328265,119.952138 C82.8671696,117.712052 92.2979775,110.821953 102.570199,99.4717813 C112.703533,88.2738634 118.204037,78.2050332 119.079795,68.7984806 C120.108078,59.3336395 116.266664,51.4863034 109.151512,45.1123088 Z M139.164643,81.4209486 C139.082825,94.4479185 132.707572,107.32766 121.833835,119.343124 C110.954543,131.364115 98.4318157,138.080353 85.3166645,138.747153 C71.8116144,139.326018 59.274746,133.459485 44.2639383,120.012436 L4.81474735,84.6730431 L10.0368684,78.9024848 C18.6416662,86.6116371 20.6871207,85.9579018 27.8922215,77.9959987 L72.8459578,28.3231701 C80.0510081,20.3617192 80.490402,18.268912 71.8858568,10.5602623 L77.1075738,4.79030701 L113.798482,37.6594248 C123.92828,46.7332306 130.411108,54.6791044 134.286865,62.2053515 C135.395451,64.3590098 136.291916,66.4774941 136.998481,68.5788938 C138.445956,72.8862106 139.098986,77.1201642 139.164643,81.4209486 Z" id="path18" fill="#231F20"></path>
                        <path d="M103.370199,148.149686 C111.231815,155.192038 114.052017,165.155849 110.499997,171.776615 L127.865148,191.339933 L106.214644,176.258294 C99.9292904,180.01991 90.0308058,178.174276 82.3914121,171.330909 C73.5545436,163.414732 71.0868669,151.80779 76.8803011,145.406611 C82.6732303,139.004929 94.5328259,140.233007 103.370199,148.149686" id="path20" fill="#231F20"></path>
                        <path d="M113.489896,134.117743 C119.28333,127.716563 131.142926,128.944641 139.9803,136.86132 C147.842421,143.903673 150.662622,153.866981 147.110097,160.487747 L164.475248,180.051567 L142.824239,164.969929 C136.539896,168.731042 126.640906,166.885911 119.001007,160.042041 C110.164644,152.125864 107.696967,140.518922 113.489896,134.117743" id="path22" fill="#231F20"></path>
                        <path d="M138.803532,108.078877 C144.596966,101.677196 156.456562,102.905776 165.29343,110.821953 C172.932824,117.66532 175.812117,127.266838 172.709592,133.879061 L190.04848,153.725279 L168.677774,138.588368 C162.430299,142.795187 152.176764,141.04603 144.314643,134.003176 C135.477269,126.086999 133.010098,114.480057 138.803532,108.078877" id="path24" fill="#231F20"></path>
                        <path d="M150.561612,96.0031151 C141.725249,88.0864358 139.258077,76.479996 145.050501,70.0788169 C145.667168,69.3974448 146.356562,68.8075253 147.099491,68.2985062 C147.274744,68.1784119 147.451511,68.06083 147.63333,67.9507854 C153.913633,64.1198261 163.865652,65.9468681 171.540905,72.8213898 C179.180804,79.6652598 182.059591,89.2667772 178.957066,95.8790008 L196.29545,115.725219 L174.925248,100.588307 C168.678279,104.795126 158.423733,103.04597 150.561612,96.0031151" id="path26" fill="#231F20"></path>
                        <polyline id="path28" fill="#231F20" points="140.835855 65.4252868 140.835855 66.007669 137.93737 66.007669 137.93737 65.4252868 139.040401 65.4252868 139.040401 62.3731821 139.040401 62.3661472 139.731815 62.3661472 139.731815 62.3731821 139.731815 65.4252868 140.835855 65.4252868"></polyline>
                        <polyline id="path30" fill="#231F20" points="144.590905 66.007669 143.605047 63.212335 143.578279 63.212335 142.592421 66.007669 141.53636 66.007669 141.53636 62.3731821 141.53636 62.3661472 142.227269 62.3661472 142.227269 62.3731821 142.227269 65.4061923 142.247976 65.4061923 143.308582 62.3731821 143.311108 62.3661472 143.871714 62.3661472 143.874744 62.3731821 144.93838 65.4061923 144.957067 65.4061923 144.957067 62.3731821 144.957067 62.3661472 145.647471 62.3661472 145.647471 62.3731821 145.647471 66.007669 144.590905 66.007669"></polyline>
                    </g>
                </g>
            </g>
        </g>
    </g>
</svg>