<?xml version="1.0" encoding="UTF-8"?>
<svg width="200px" height="200px" viewBox="0 0 200 200" version="1.1" xmlns="http://www.w3.org/2000/svg" xmlns:xlink="http://www.w3.org/1999/xlink">
    <!-- Generator: Sketch 51.3 (57544) - http://www.bohemiancoding.com/sketch -->
    <title>okla-baptist</title>
    <desc>Created with Sketch.</desc>
    <defs></defs>
    <g id="okla-baptist" stroke="none" stroke-width="1" fill="none" fill-rule="evenodd">
        <g id="okla-baptist_BGL" transform="translate(0.000000, 39.000000)">
            <g id="okla-baptist">
                <g id="g10" transform="translate(99.999998, 60.875003) scale(-1, 1) rotate(-180.000000) translate(-99.999998, -60.875003) translate(0.000000, 0.111116)" fill-rule="nonzero">
                    <g id="g12">
                        <path d="M123.525691,2.85345826 C125.001386,-1.7993194 170.93194,-2.81521521 178.321523,16.0590274 C180.891662,22.6229161 178.577079,25.8354855 180.377079,32.7332631 C182.749995,41.823749 183.748607,46.1618044 183.748607,46.1618044 C187.537495,48.5576377 196.159717,51.1035404 199.061106,58.7003458 C201.197217,64.2933317 199.899301,74.4854148 192.965967,87.2930534 C191.20069,79.4104147 193.635412,70.4618038 187.441662,67.6801372 C185.374301,95.0236087 153.137496,100.037497 149.609024,100.774997 C152.317357,97.4104142 153.783329,94.6499976 151.447913,93.1701366 C143.721524,89.5256922 150.990968,122.38333 82.2243035,117.731942 C99.9493031,100.088886 31.8806936,127.33333 0,119.751386 C49.3562488,107.263886 100.692359,47.7154155 69.2938872,67.9445816 C80.418748,32.3209714 157.309718,41.4160406 123.525691,2.85345826" id="path14" fill="#FFFFFF"></path>
                        <path d="M124.543747,52.685832 C108.62847,62.521179 122.854164,77.3840258 121.490275,82.8944424 C117.721525,93.0874977 36.2749296,115.161803 13.4581247,117.977775 C100.934025,86.95972 82.9513868,52.9725681 124.543747,52.685832" id="path16" fill="#285B24"></path>
                        <path d="M145.165274,45.0827072 C133.196524,31.9097214 162.047218,11.0888886 129.409025,4.40700683 C153.166663,1.73882635 166.090274,10.5612497 169.126385,12.3673608 C165.761801,12.120208 162.602774,11.7499303 161.823607,11.5334719 C156.447913,6.7575415 150.444441,13.1459024 156.804163,17.8645829 C155.079857,35.1793047 145.268746,29.4938187 145.165274,45.0827072" id="path18" fill="#285B24"></path>
                        <path d="M124.75208,67.326665 C124.540969,60.5593735 136.036108,61.8416651 140.405552,59.9354152 C137.082635,58.1504847 136.507635,55.8791653 135.891663,52.9869431 C135.953469,62.8331234 121.572219,57.3665263 124.75208,67.326665" id="path20" fill="#285B24"></path>
                        <path d="M172.634718,15.3200691 C161.652774,13.3138191 161.371524,16.8660412 158.109718,16.6208329 C154.847913,16.3736801 155.217357,11.3818053 157.802079,11.3818053 C160.386802,11.3818053 160.818052,13.2277774 160.818052,13.2277774 C160.818052,13.2277774 171.58819,13.4749302 172.634718,15.3200691" id="path22" fill="#231F20"></path>
                        <path d="M146.101385,46.2312488 C146.655552,46.9083322 149.547913,48.5291655 151.70208,49.2062488 C157.240274,40.2826379 154.540274,34.0313186 154.602079,30.3382631 C152.694441,34.5841658 147.400691,35.3846519 147.586107,43.3235406 C150.478468,38.9547907 151.77083,39.6931935 152.263191,39.5084712 C151.463191,45.2327766 149.547913,46.1084016 146.101385,46.2312488" id="path24" fill="#231F20"></path>
                        <path d="M181.681245,50.0943737 C183.493051,56.4502069 184.164579,57.6893736 184.635412,61.0638874 C189.559717,61.8022901 194.03819,63.6021512 195.022217,68.4632622 C195.057634,57.1712486 188.164579,64.966665 181.681245,50.0943737 Z M137.246524,50.347221 C128.38333,57.1793736 114.430553,56.4217347 128.061802,83.0208313 C126.954163,75.4506926 125.798608,69.1110399 127.15208,66.0340956 C128.506941,62.9565262 139.338885,63.756804 145.185413,60.3103457 C141.554163,59.4485402 137.615274,55.8872903 137.246524,50.347221 Z M194.236801,80.1895813 C196.883328,65.1714567 186.728468,62.7104845 184.635412,63.2028456 C183.897218,71.1430538 183.343745,80.9895813 169.446524,90.20972 C170.00069,88.2236089 170.620135,88.1076367 170.734718,85.8104145 C166.172218,90.7131922 160.164579,94.4569421 155.777079,95.0680532 C157.272913,92.8124977 156.444441,89.49722 153.482635,88.7243033 C143.893052,86.95972 143.277774,100.99097 130.548608,107.965275 C133.695136,102.180553 134.177774,95.1312476 134.177774,95.1312476 C134.177774,95.1312476 129.520136,112.313192 108.568053,114.197914 C112.822914,112.941664 116.854164,107.95972 116.854164,107.95972 C116.854164,107.95972 105.36597,115.597914 88.82222,115.072914 C92.7611088,107.934025 91.5798588,104.806942 41.6194434,114.787497 C74.838887,106.174303 127.849302,91.3909699 123.829164,80.5583313 C120.662497,72.1319426 112.258331,58.7722208 131.58333,51.2638182 C127.768052,50.7701376 123.582636,50.2791654 111.766664,52.494582 C90.5944422,57.7861791 90.3652755,75.1159703 53.3973598,96.2791643 C76.7430536,78.7277758 100.113192,50.5256932 75.6312481,61.3026374 C80.6715258,55.5549986 90.25972,50.9868737 97.9701364,50.139721 C97.8236087,50.1161099 96.5861087,48.9395821 89.1180533,50.6480543 C97.8277753,44.4743044 111.158331,43.6577767 122.204164,43.7771517 C119.234025,41.8270128 114.884025,41.4979156 107.088886,42.1402767 C142.128469,33.1277075 138.024997,17.2070135 132.199302,7.05756927 C160.670135,12.8597219 122.082636,41.2855545 152.440968,51.6340959 C158.102774,45.6005544 157.049996,35.2618047 156.557635,32.1847909 C156.064579,29.1070132 157.418746,20.8590967 158.895829,19.1368051 C161.159024,16.9327774 169.220829,14.7943746 174.296523,18.2749995 C177.127079,20.7986106 175.372912,22.8458328 175.881246,28.1084715 C176.388884,33.3694436 179.158329,41.8473601 181.189579,48.8029154 C188.759023,52.3093042 193.401384,55.5916653 195.81944,59.6749985 C198.237495,63.756804 195.236801,76.1881925 194.236801,80.1895813 Z" id="path26" fill="#231F20"></path>
                    </g>
                </g>
            </g>
        </g>
    </g>
</svg>