<?xml version="1.0" encoding="UTF-8"?>
<svg width="200px" height="200px" viewBox="0 0 200 200" version="1.1" xmlns="http://www.w3.org/2000/svg" xmlns:xlink="http://www.w3.org/1999/xlink">
    <!-- Generator: Sketch 51.2 (57519) - http://www.bohemiancoding.com/sketch -->
    <title>okla-panhandle</title>
    <desc>Created with Sketch.</desc>
    <defs></defs>
    <g id="okla-panhandle" stroke="none" stroke-width="1" fill="none" fill-rule="evenodd">
        <g id="okla-panhandle_BGL">
            <g id="Asset-1" transform="translate(0.000000, 41.000000)">
                <path d="M199.668712,60.6409278 C199.232089,59.0772706 197.92298,57.9121994 196.319018,57.6597938 L195.411043,57.5371134 C183.570552,56.236701 177.791411,53.3169072 175.386503,51.6975258 C167.177914,46.1278351 161.141104,42.545567 157.423313,41.048866 L156.453988,40.5949485 C156.255352,40.1074529 155.99116,39.6493153 155.668712,39.2331959 C155.595092,38.3989691 155.496933,37.6015464 155.386503,36.7795876 C155.380549,36.7430243 155.380549,36.7057386 155.386503,36.6691753 C155.251534,35.5037113 153.141104,25.1862887 152.711656,23.1743299 C152.208589,20.7207216 152.220859,13.4580412 152.355828,9.42185567 L152.355828,8.9556701 C152.147239,6.34257732 149.693252,2.45360825 144.245399,2.45360825 C143.02808,2.46751291 141.816881,2.62815735 140.638037,2.93206186 C136.357663,3.68521731 132.013882,4.01803835 127.668712,3.9257732 C119.251534,3.93804124 113.95092,3.0056701 112.883436,2.33092784 C111.277347,0.8895512 109.212451,0.0637208334 107.055215,2.80096855e-16 C105.550462,-0.00477034487 104.086967,0.491618737 102.895706,1.41082474 C84.9815951,10.0597938 77.3006135,23.2356701 74.8466258,28.4373196 C72.6134969,29.2838144 70.4907975,31.6024742 68.5398773,35.3196907 C65.7423313,35.9821649 62.7730061,36.7182474 59.6564417,37.491134 L56.0736196,38.374433 C47.6095391,40.5245123 38.9167758,41.6449227 30.1840491,41.7113402 C14.809816,41.7113402 5.64417178,38.0309278 5.52147239,37.9695876 L4.36809816,37.478866 L3.14110429,37.7978351 C1.64934042,38.1685609 0.481009419,39.3272907 0.0981595092,40.8157732 C-0.231378478,42.3505081 0.339487589,43.9391729 1.57055215,44.913299 C2.60178846,45.7933036 3.6833715,46.6125579 4.80981595,47.3669072 C4.60349522,48.7211607 4.97272423,50.0999956 5.82822086,51.17 C6.0797549,51.4967537 6.37258225,51.7895358 6.6993865,52.0410309 C8.73836225,53.766779 10.9998794,55.2109552 13.4233129,56.3348454 C18.4907975,58.9479381 29.7423313,63.2908247 48.4417178,63.3153608 C49.5337423,63.3153608 50.6134969,63.3153608 51.6564417,63.3153608 C51.6949602,64.8192823 52.4882589,66.2027289 53.7668712,66.9957732 C54.9571972,67.5887695 56.265356,67.9073743 57.595092,67.9281443 L58.0245399,67.9281443 L58.8957055,68.0385567 C60.8588957,68.2716495 65.4601227,68.8114433 71.6441718,70.0259794 L72.8711656,70.2713402 C72.4272866,70.9552506 72.1849147,71.7502777 72.1717791,72.5654639 C72.129514,74.929531 73.8552019,76.9547966 76.196319,77.2886598 C92.392638,80.5396907 99.791411,91.3478351 101.202454,99.6410309 C101.92638,103.910309 95.4723926,107.811546 93.1533742,108.829794 L89.2515337,110.54732 L91.4969325,114.227732 C91.7668712,114.669381 94.3558282,118.521546 101.141104,118.521546 C103.892739,118.442752 106.61413,117.925064 109.202454,116.988041 C134.245399,108.584433 150.09816,94.1449485 156.331288,74.0498969 C156.441718,73.6695876 156.588957,73.2034021 156.638037,73.0929897 C157.498392,71.2617696 157.821738,69.2241522 157.570552,67.2165979 L156.09816,59.9907216 C161.006135,61.9781443 168,64.6403093 173.95092,66.3946392 C174.515337,66.5541237 175.104294,66.7136082 175.705521,66.8485567 C178.98855,67.6740333 182.357302,68.1105033 185.742331,68.1489691 C187.271545,68.1573919 188.798648,68.0342574 190.306748,67.7809278 C192.404908,67.4619588 196.319018,66.5541237 197.877301,65.3273196 C199.38017,64.2860079 200.098998,62.4357977 199.693252,60.6531959 M141.214724,14.292268 C141.214724,14.5253608 141.214724,14.7339175 141.214724,14.9547423 C141.108314,14.2690271 140.935729,13.5952285 140.699387,12.9427835 L141.386503,12.7342268 C141.392592,12.8077092 141.392592,12.8815692 141.386503,12.9550515 C141.386503,13.4457732 141.300613,13.8751546 141.263804,14.292268" id="Shape" fill="#FFFFFF" fill-rule="nonzero"></path>
                <path d="M131.509202,46.8393814 C130.760736,46.7535052 118.858896,45.2813402 114.969325,51.0105155 C111.423313,56.236701 125.361963,57.3162887 125.361963,57.3162887 C125.99783,57.2627246 126.568619,57.7054176 126.674847,58.3345361 C126.773006,59.1810309 125.96319,59.3159794 121.766871,58.8865979 C99.8527607,56.5924742 84.9570552,48.2379381 64.7730061,50.8510309 C55.9232265,52.1724447 46.984557,52.8081857 38.0368098,52.7525773 C37.202454,52.7525773 37.1779141,52.5562887 37.190184,52.36 C37.202454,52.1637113 37.398773,52.0287629 37.8895706,52.0287629 C41.9631902,52.0287629 49.1779141,52.1514433 69.3374233,46.9620619 C92.3312883,41.0365979 106.147239,39.9079381 129.96319,45.3181443 C130.834356,45.514433 132.417178,46.3241237 132.417178,46.6676289 C132.417178,47.011134 132.134969,46.9375258 131.546012,46.8639175" id="Shape" fill="#00205C" fill-rule="nonzero"></path>
                <path d="M135.533742,11.2375258 C135.533742,11.2375258 143.840491,21.9107216 126.944785,20.0582474 C110.04908,18.2057732 107.730061,11.2375258 107.730061,11.2375258 C107.530898,10.8629301 107.635155,10.3990556 107.97546,10.1456701 C108.539877,9.67948454 109.766871,10.71 110.343558,11.0535052 C110.920245,11.3970103 128.490798,21.1623711 135.558282,11.2375258" id="Shape" fill="#00205C" fill-rule="nonzero"></path>
                <path d="M153.90184,67.8790722 L151.742331,57.2672165 C151.742331,57.2672165 145.607362,62.2603093 127.766871,62.0885567 C103.411043,61.8431959 86.9447853,50.1394845 62.2453988,52.8752577 C32.6503067,56.1508247 22.3558282,51.8692784 17.8895706,50.7283505 C15.2387646,49.9309874 12.6406125,48.9680989 10.1104294,47.8453608 C8.63803681,47.2196907 7.98773006,47.8453608 8.77300613,48.8881443 C8.87471645,48.9994081 8.98552991,49.1019973 9.10429448,49.1948454 C10.9194621,50.7113017 12.9239644,51.9855721 15.0674847,52.9856701 C21.0920245,56.0894845 31.9631902,59.5490722 48.4539877,59.5613402 C79.1288344,59.5613402 90.7730061,68.3207216 90.7730061,68.3207216 C90.7730061,68.3207216 71.8527607,61.3770103 56.4171779,62.763299 C54.7239264,62.9227835 55.5214724,63.7447423 55.6932515,63.8551546 C56.6244961,64.105953 57.5778024,64.2661823 58.5398773,64.3336082 C59.5460123,64.4685567 64.8466258,64.9838144 72.3558282,66.4559794 C86.7484663,69.2776289 89.803681,73.4978351 89.803681,73.4978351 C89.803681,73.4978351 81.9141104,70.6148454 77.4355828,71.6208247 C76.3190184,71.8784536 75.8650307,72.1974227 75.8527607,72.6881443 C75.8527607,73.5714433 76.8220859,73.6941237 76.8220859,73.6941237 C96.6380368,77.5340206 103.546012,91.3601031 104.846626,98.9908247 C106.233129,107.112268 94.6380368,112.178969 94.6380368,112.178969 C94.6380368,112.178969 97.595092,116.926701 108,113.405773 C147.644172,100.119485 151.98773,74.3443299 153.226994,71.5472165 C153.79265,70.386022 154.026202,69.0910685 153.90184,67.8054639" id="Shape" fill="#CE0E2D" fill-rule="nonzero"></path>
                <path d="M195.484663,62.481134 C193.665048,63.3697439 191.70593,63.9382983 189.693252,64.1618557 C185.305609,64.7137321 180.852792,64.4180342 176.576687,63.2908247 C176.04908,63.1681443 175.509202,63.0209278 174.969325,62.8737113 C166.903205,60.3083411 158.970938,57.3398306 151.202454,53.9793814 L150.760736,53.6972165 L151.067485,55.0221649 C151.067485,55.0221649 150.711656,55.6723711 148.981595,56.3225773 C148.593238,55.1218426 148.305939,53.8907529 148.122699,52.6421649 L147.276074,52.3109278 L147.607362,55.7091753 C147.607362,55.7091753 147.484663,56.1876289 146.760736,55.7091753 C146.257669,55.341134 144.527607,54.3964948 144.527607,54.3964948 L133.95092,58.0769072 C133.95092,58.0769072 133.214724,58.31 132.895706,57.8928866 C132.662809,57.6635412 132.612528,57.3065973 132.773006,57.0218557 L135.717791,54.0284536 C135.717791,54.0284536 129.90184,55.1325773 129.90184,51.0227835 C129.90184,46.9129897 135.092025,47.9557732 135.092025,47.9557732 C135.092025,47.9557732 140,48.8390722 141.95092,49.2684536 C127.222994,42.8462721 111.197316,39.9558784 95.1533742,40.8280412 C77.1288344,41.8340206 66.0245399,46.6185567 55.9631902,48.3728866 C45.9018405,50.1272165 20.0368098,55.7337113 3.96319018,42.1039175 C3.28834356,41.5273196 4.09815951,41.3187629 4.09815951,41.3187629 C4.09815951,41.3187629 24.7361963,49.9063918 57.006135,41.9689691 C62.0858896,40.7421649 66.5889571,39.5153608 70.7361963,38.6075258 L71.1656442,38.5216495 C72.0245399,36.6691753 74.1226994,32.6084536 76.3312883,31.8723711 C76.760257,31.7174305 77.1988004,31.5903955 77.6441718,31.4920619 C78.7361963,28.7072165 85.398773,13.8138144 104.981595,4.50237113 C104.981595,4.50237113 106.993865,2.23278351 110.564417,5.20164948 C114.134969,8.17051546 134.858896,8.15824742 141.570552,6.50206186 C148.282209,4.84587629 148.711656,9.28690722 148.711656,9.28690722 C148.711656,9.28690722 148.355828,20.1809278 149.141104,23.9226804 C149.92638,27.664433 151.668712,36.288866 151.754601,37.0740206 C151.754601,37.0740206 151.754601,37.1598969 151.754601,37.2089691 C151.889571,38.092268 152.04908,39.3313402 152.134969,40.8893814 C152.653668,41.146548 153.028077,41.6246344 153.153374,42.1897938 C153.153374,42.4474227 153.288344,42.8031959 153.349693,43.1221649 L156,44.3489691 C158.453988,45.3549485 163.521472,48.0293814 173.361963,54.6663918 C181.349693,60.088866 194.981595,61.0703093 195.631902,61.1929897 C196.282209,61.3156701 196.294479,61.7818557 195.509202,62.4197938 M144.846626,10.1947423 C144.796292,9.65537624 144.510829,9.16558356 144.06631,8.85588665 C143.621791,8.54618974 143.063377,8.44805317 142.539877,8.58762887 C141.958423,8.67617689 141.384276,8.80739038 140.822086,8.98020619 C137.7654,9.96849301 134.602145,10.5903388 131.398773,10.8326804 C129.337423,11.0780412 125.447853,11.2620619 123.374233,11.3602062 C121.254877,11.400933 119.135252,11.2943532 117.030675,11.0412371 C113.493564,10.6534007 110.099496,9.42970682 107.128834,7.47123711 C106.787032,7.27046877 106.374236,7.23009282 106,7.36082474 C101.491422,9.36956064 97.38737,12.1841639 93.8895706,15.6662887 C91.7668712,17.8745361 89.8282209,20.2668041 87.9018405,22.6468041 C85.9866837,24.8663445 84.5386247,27.449082 83.6441718,30.2407216 C83.3006135,31.3939175 83.6441718,31.8110309 84.797546,31.8601031 C88.2944785,31.9705155 91.791411,32.0563918 95.2883436,32.2404124 C99.2515337,32.4489691 103.226994,32.6943299 107.177914,33.0378351 C110.699387,33.3445361 114.220859,33.7493814 117.717791,34.2646392 C121.214724,34.7798969 124.490798,35.3564948 127.852761,36.0189691 C133.656442,37.1476289 139.447853,38.3621649 145.239264,39.564433 C146.699387,39.871134 147.693252,39.2086598 147.595092,37.6996907 C147.533197,36.4063153 147.314838,35.1251978 146.944785,33.8843299 C145.239264,28.3514433 143.93865,22.8430928 144.662577,16.9176289 C144.846626,15.47 144.895706,14.5253608 145.055215,12.9918557 C144.969325,12.2803093 145.055215,10.9798969 144.846626,10.2192784 M140.453988,46.3486598 C143.852761,46.4590722 150.466258,46.716701 150.711656,46.5817526 C150.957055,46.4468041 150.368098,43.2816495 150.368098,43.2816495 C138.785652,40.1536338 127.020884,37.7445032 115.141104,36.0680412 C98.4171779,33.9579381 80.2208589,33.7003093 78.5276074,34.1296907 C76.8343558,34.5590722 75.5582822,37.0740206 75.2760736,37.6015464 C94.2331288,33.6389691 107.055215,34.3505155 140.453988,46.3241237 M183.865031,62.4075258 C184.748466,62.5179381 185.092025,62.4075258 185.190184,62.0149485 C185.288344,61.6223711 184.797546,61.2297938 184.638037,61.1929897 C169.447853,57.6597938 166.08589,50.3971134 153.631902,45.3917526 C153.631902,45.6984536 153.705521,46.6185567 153.705521,46.8025773 C153.705521,49.0476289 153.803681,49.1580412 151.582822,49.2561856 C150.195577,49.3017499 148.806865,49.268983 147.423313,49.1580412 C155.521472,52.9979381 171.018405,60.8004124 183.865031,62.3829897" id="Shape" fill="#00205C" fill-rule="nonzero"></path>
                <path d="M141.705521,70.7620619 C140.169607,68.9950461 137.90946,68.0278528 135.570552,68.136701 L113.423313,68.136701 L112.01227,74.7369072 L114.760736,77.1905155 C114.134969,80.1225773 113.055215,85.1156701 112.773006,86.4774227 L110.159509,86.4774227 L108.564417,93.8382474 L122.245399,93.8382474 L123.705521,87.0908247 L132.159509,87.0908247 C134.604427,87.1343652 136.996309,86.3759758 138.969325,84.9316495 C140.425186,83.9214921 141.507579,82.4598406 142.04908,80.7727835 C142.453988,79.2147423 142.809816,77.644433 143.067485,76.3685567 C143.493671,74.3667104 142.9932,72.2794802 141.705521,70.6884536" id="Shape" fill="#FFFFFF" fill-rule="nonzero"></path>
                <path d="M140.858896,71.4613402 C139.534841,69.9644708 137.603811,69.1479697 135.607362,69.2408247 L114.319018,69.2408247 L113.411043,73.6082474 L114.576687,73.6082474 L115.251534,70.4430928 L135.607362,70.4430928 C139.570552,70.4430928 141.423313,73.2647423 140.858896,76.0618557 C140.613497,77.2886598 140.269939,78.7608247 139.865031,80.3556701 C139.460123,81.9505155 136.858896,84.9684536 132.159509,84.9684536 L120.159509,84.9684536 L121.607362,86.2934021 L120.380368,91.7158763 L111.361963,91.7158763 L111.97546,88.8574227 L112.883436,88.8574227 C114.110429,88.8574227 114.699387,88.5139175 114.957055,87.2993814 C115.214724,86.0848454 117.411043,75.6202062 117.411043,75.6202062 L114.552147,75.6202062 L115.97546,76.9328866 C115.337423,79.8894845 114,86.1461856 113.803681,87.0662887 C113.693252,87.6183505 113.668712,87.7164948 112.858896,87.7164948 L111.055215,87.7164948 L109.93865,92.8690722 L121.349693,92.8690722 L122.809816,86.1216495 L132.159509,86.1216495 C134.360392,86.1562476 136.513116,85.4760922 138.294479,84.183299 C139.540972,83.316446 140.478091,82.074311 140.969325,80.6378351 C141.361963,79.0920619 141.717791,77.5462887 141.96319,76.2826804 C142.326155,74.6088607 141.916062,72.8606022 140.846626,71.5226804" id="Shape" fill="#00205C" fill-rule="nonzero"></path>
                <path d="M135.607362,70.3817526 L115.251534,70.3817526 L114.576687,73.6082474 L135.546012,73.6082474 L135.263804,74.8350515 L135.263804,75.2521649 C135.263804,76.2090722 135.656442,76.4789691 135.263804,77.7057732 L134.306748,82.0609278 C133.891303,81.9559735 133.481728,81.8290248 133.079755,81.6806186 C132.82306,81.5799023 132.555352,81.5098971 132.282209,81.4720619 L131.97546,81.4720619 L131.803681,81.4720619 L131.656442,81.4720619 C131.338841,81.5430561 131.038536,81.6765043 130.773006,81.8646392 C130.548446,82.0255915 130.286689,82.1269009 130.01227,82.1590722 C129.779141,82.1590722 129.644172,81.8646392 129.582822,81.7910309 C129.50191,81.6852566 129.383183,81.6149105 129.251534,81.5947423 C129.116712,81.621278 128.990377,81.6802254 128.883436,81.7664948 C128.812169,81.8177751 128.725767,81.8436916 128.638037,81.8401031 L128.466258,81.8401031 L127.840491,82.1836082 C127.733498,82.0777721 127.585577,82.0239911 127.435583,82.0363918 L127.337423,82.0363918 L127.202454,81.9627835 L126.797546,81.9627835 C126.711656,81.9627835 126.564417,81.9627835 126.515337,81.8891753 C126.409414,81.7729116 126.311053,81.6499792 126.220859,81.521134 L125.95092,81.521134 C125.808387,81.5399064 125.664006,81.5399064 125.521472,81.521134 C125.521472,81.4352577 125.361963,81.3248454 125.361963,81.3248454 L124.331288,81.3248454 C124.331288,81.0672165 124.147239,80.6378351 124.06135,80.6378351 C123.97546,80.6378351 123.840491,80.7482474 123.717791,80.7482474 C123.594294,80.7458602 123.488172,80.6599655 123.460123,80.5396907 C123.460123,80.4170103 123.214724,80.3556701 122.920245,80.2697938 L123.889571,75.6570103 L117.435583,75.6570103 C117.435583,75.6570103 115.177914,86.1216495 114.981595,87.3361856 C114.785276,88.5507216 114.110429,88.7960825 112.883436,88.7960825 L112,88.7960825 L111.386503,91.6545361 L120.453988,91.6545361 L121.680982,86.2320619 L120.233129,84.9071134 L132.233129,84.9071134 C136.932515,84.9071134 139.595092,81.8891753 139.93865,80.2943299 C140.282209,78.6994845 140.687117,77.1905155 140.932515,76.0005155 C141.496933,73.2034021 139.705521,70.3817526 135.680982,70.3817526" id="Shape" fill="#CE0E2D" fill-rule="nonzero"></path>
            </g>
        </g>
    </g>
</svg>