<?xml version="1.0" encoding="UTF-8"?>
<svg width="200px" height="200px" viewBox="0 0 200 200" version="1.1" xmlns="http://www.w3.org/2000/svg" xmlns:xlink="http://www.w3.org/1999/xlink">
    <!-- Generator: Sketch 51.3 (57544) - http://www.bohemiancoding.com/sketch -->
    <title>old-westbury</title>
    <desc>Created with Sketch.</desc>
    <defs></defs>
    <g id="old-westbury" stroke="none" stroke-width="1" fill="none" fill-rule="evenodd">
        <g id="old-westbury_BGL" transform="translate(18.000000, 0.000000)">
            <g id="old-westbury" transform="translate(0.032787, -1.000000)">
                <g id="g10" transform="translate(82.500000, 100.997860) scale(-1, 1) rotate(-180.000000) translate(-82.500000, -100.997860) translate(-0.000000, 0.997860)" fill-rule="nonzero">
                    <g id="g12" transform="translate(0.042775, 0.000000)">
                        <path d="M30.5715775,70.6105016 L68.1051815,70.6066519 C76.5365224,70.6066519 89.2782799,70.6066519 95.2723127,86.8208677 C97.8777258,93.8064203 98.0847558,102.312617 98.2853696,110.539067 L98.3345607,112.663263 L98.3366994,161.305911 C98.3366994,170.040525 98.3366994,179.940752 92.4141005,187.819871 L92.3987016,187.84083 C86.0778694,196.636612 76.5865689,196.954429 68.9602498,197.209367 L68.0658287,197.238026 L46.3550511,197.237598 L45.4824452,196.213997 C45.034593,196.595976 44.5178734,196.932186 43.9096157,197.237598 L30.3855071,197.237598 C23.24943,196.982233 15.1649927,196.684092 8.63768652,188.378082 C2.93627617,180.521634 2.46421347,170.964888 2.46421347,161.042418 L2.46421347,104.403449 C2.46421347,96.0824674 2.46421347,85.7262605 9.80646517,77.8672465 C15.8685954,71.1776954 23.2320634,70.8940985 29.7288284,70.6434382 L30.5715775,70.6105016 Z M68.1047538,68.1697715 L30.5001436,68.1744767 L29.6464441,68.2078411 C22.6581111,68.4773223 14.7506332,68.7818789 8.01291779,76.2165669 C0.0267342502,84.764683 0.0267342502,95.6538639 0.0267342502,104.403449 L0.0267342502,161.042418 C0.0267342502,171.39007 0.5355405,181.377558 6.67907119,189.828575 L6.70593377,189.864506 C13.9415907,199.087609 23.023023,199.412697 30.3200617,199.674051 L30.363692,199.674907 L68.1047538,199.674907 L69.027834,199.64582 C77.1991041,199.372489 87.3504197,199.032857 94.3706199,189.273786 C100.77358,180.745774 100.77358,170.418226 100.77358,161.305911 L100.771869,112.634604 L100.721822,110.480893 C100.516503,102.052119 100.30434,93.3380362 97.5569148,85.9722156 C90.9760118,68.1697715 76.0980807,68.1697715 68.1047538,68.1697715 Z" id="path26" fill="#0D3B18"></path>
                        <path d="M30.586121,73.6676166 L68.0675397,73.6676166 C76.0796876,73.6676166 87.0522793,73.6676166 92.2070705,87.7700405 C94.5806442,94.1999485 94.7756973,102.445647 94.9639064,110.418869 L95.0195136,112.507135 L95.0195136,161.672918 C95.0195136,170.262526 95.0195136,179.145141 89.8527455,186.097329 C84.4374558,193.724932 76.1395723,194.00639 68.8182375,194.254056 C68.8165265,194.254056 68.1154475,194.277154 68.0196319,194.278865 L30.3983396,194.280149 C22.3498332,193.986286 16.2504033,193.259114 11.0955693,186.632014 C6.11529932,179.679826 5.70256528,170.733904 5.70256528,161.408998 L5.70256528,104.108731 C5.70256528,94.3145849 6.16893892,86.3174083 12.0377698,79.9623562 C17.2158733,74.1847639 23.3326697,73.9456528 29.8085179,73.6924259 L30.586121,73.6676166 Z M68.0675397,70.2456325 L30.5039933,70.2460603 L29.6900744,70.2725807 C23.0937297,70.5305127 15.6345317,70.8222368 9.50652827,77.6597887 C2.81394024,84.9066953 2.28058125,93.5561877 2.28058125,104.108731 L2.28058125,161.408998 C2.28058125,171.325908 2.74361847,180.872388 8.33488371,188.654407 L8.37265386,188.704881 C14.4254592,196.506577 21.8866676,197.39501 30.3050905,197.700849 L30.3675417,197.702133 L68.0452968,197.700422 C68.0889271,197.700422 68.9268854,197.674329 68.9268854,197.674329 C76.2405208,197.426663 86.2468298,197.087887 92.6211306,188.108173 C98.4414977,180.27739 98.4414977,170.819454 98.4414977,161.672918 L98.4410699,112.439123 L98.3850349,110.332892 C98.1895541,102.084627 97.9880848,93.5497715 95.419458,86.5903115 C89.4451017,70.2456325 76.0630054,70.2456325 68.0675397,70.2456325 Z" id="path28" fill="#FFFFFF"></path>
                        <path d="M35.6027495,167.120289 L35.6194317,101.63592 L61.7723724,101.63592 L61.9806856,167.120289 L35.6027495,167.120289 Z M96.7715694,112.684651 L96.714679,110.603229 C96.5204814,102.574399 96.3181566,94.2743766 93.8526171,87.6733694 C88.2871878,72.6222004 76.1425665,72.6222004 68.1047538,72.6222004 C68.1047538,72.6222004 30.6002366,72.6222004 30.5963869,72.6222004 L29.7846495,72.6495763 C23.2360842,72.9023754 16.4659455,73.1633017 10.819843,79.3896016 C4.52878198,86.1240662 4.02887289,94.350088 4.02887289,104.403449 L4.02887289,161.042418 C4.02887289,170.554678 4.46496198,179.703352 9.76351927,186.989612 C15.3698412,194.130437 22.1407927,194.930753 30.4056113,195.228038 C30.4056113,195.228038 68.0448691,195.227183 68.0825109,195.227183 C68.1240024,195.227183 68.9080645,195.199807 68.9080645,195.199807 C76.2482203,194.955991 85.3793569,194.652289 91.2634584,186.457493 C96.7715694,179.136158 96.7715694,170.0756 96.7715694,161.305911 C96.7715694,161.305911 96.7715694,112.686362 96.7715694,112.684651 Z" id="path30" fill="#0D3B18"></path>
                        <path d="M36.837658,102.854574 L60.557568,102.854574 L60.7581818,165.901635 L36.8218313,165.901635 L36.837658,102.854574 Z M62.9871767,100.417693 L34.4007776,100.417693 L34.3840955,168.339371 L63.2031894,168.339371 L62.9871767,100.417693 Z M10.7359616,186.254741 C5.66731884,179.270471 5.2474414,170.343798 5.2474414,161.042418 L5.2474414,104.403449 C5.2474414,94.6221357 5.72331105,86.6305198 11.7104571,80.2219992 C17.0238572,74.3622793 23.2436126,74.1218849 29.8284081,73.8673749 L30.637023,73.8404268 L68.1047538,73.8408545 C76.2640469,73.8408545 87.4385358,73.8408545 92.7096744,88.0959845 C95.1063465,94.51306 95.3043938,102.707856 95.4964527,110.632743 L95.5529154,112.700905 L95.5529154,161.305911 C95.5529154,169.871564 95.5529154,178.728942 90.289904,185.724761 C84.7390181,193.455023 75.9385307,193.746747 68.8678562,193.981581 C68.8652897,193.982008 68.1543726,194.006818 68.0649732,194.008956 L30.4274264,194.009384 C22.2362233,193.71381 16.0256645,192.980223 10.7359616,186.254741 Z M68.1047538,71.4039741 L30.5963869,71.4039741 L29.7440135,71.43135 C23.2525953,71.6824381 15.9061945,71.9664628 9.9172519,78.5708919 C3.33425291,85.6171848 2.81009051,94.0771848 2.81009051,104.403449 L2.81009051,161.042418 C2.81009051,170.76898 3.26641207,180.127678 8.77785954,187.706517 L8.80510709,187.742448 C14.7287325,195.287068 22.0723102,196.147696 30.3615532,196.445837 L30.4056113,196.446692 L68.0825109,196.445837 C68.1261412,196.445837 68.9508393,196.417605 68.9508393,196.417605 C76.5540601,196.165234 86.0188401,195.851267 92.2532673,187.16841 C97.9902235,179.543375 97.9902235,170.271937 97.9902235,161.305911 L97.9897958,112.651714 L97.9329053,110.569865 C97.7365689,102.447358 97.5329609,94.0438204 94.9942765,87.2469047 C89.1358398,71.4039741 75.9710396,71.4039741 68.1047538,71.4039741 Z" id="path32" fill="#FFFFFF"></path>
                        <path d="M39.7972464,105.536126 L57.5149965,105.536126 L57.4161867,162.647756 L39.7852695,162.583166 L39.7972464,105.536126 Z M60.7068521,102.349831 L36.6109516,102.349831 L36.5981191,165.757912 L60.5969208,165.846028 L60.7068521,102.349831 Z" id="path34" fill="#0D3B18"></path>
                        <path d="M158.464381,116.40392 C158.464381,114.771205 158.464381,96.5183426 158.464381,94.8877672 C157.348814,94.8877672 153.017865,94.8877672 153.017865,94.8877672 C153.017865,94.8877672 142.715982,7.62678967 142.533334,6.07752918 C141.332218,6.07752918 116.653297,6.07752918 115.495811,6.07752918 C115.277659,7.55193377 107.936648,58.2237749 107.936648,58.2237749 C107.936648,58.2263414 106.176037,73.1175326 106.176037,73.1175326 L104.708006,73.1307928 L102.472595,56.3215795 C102.472595,56.3215795 95.478915,7.55193377 95.2676075,6.07752918 C94.1037052,6.07752918 69.6519183,6.07752918 68.4640621,6.07752918 C68.2754252,7.61092022 57.5000253,94.8877672 57.5000253,94.8877672 C57.5000253,94.8877672 53.2909849,94.8877672 52.1792679,94.8877672 C52.1792679,96.5183426 52.1792679,114.771205 52.1792679,116.40392 C53.5685934,116.40392 82.6777005,116.40392 84.0665983,116.40392 C84.0665983,114.771205 84.0665983,96.5183426 84.0665983,94.8877672 C82.8825918,94.8877672 77.0070452,94.8877672 77.0070452,94.8877672 L81.5946426,50.9529144 C82.2717676,42.2675339 82.5245667,39.0062548 83.0070665,26.8762625 L84.4875023,26.8592382 C85.0700951,37.0314279 85.3981778,40.7348273 87.3063616,53.7683517 C87.3063616,53.7683517 96.2912084,86.5167388 96.5089322,87.9937527 C97.6343372,87.9937527 114.056866,87.9937527 115.192537,87.9937527 C115.399995,86.4992012 123.812087,55.0468905 123.812087,55.0468905 C125.430258,43.0429983 125.795555,39.9922568 126.754993,28.5807528 L128.232007,28.6196778 C128.8146,41.270325 129.057133,43.858286 129.876698,51.7498089 L134.22604,94.8877672 C134.22604,94.8877672 127.678074,94.8877672 126.463697,94.8877672 C126.463697,96.5183426 126.463697,114.771205 126.463697,116.40392 C127.849601,116.40392 157.077194,116.40392 158.464381,116.40392" id="path14" fill="#100F0D"></path>
                        <path d="M142.112002,124.346344 L121.295218,124.346344 L121.284097,91.7446749 C121.284097,91.7446749 126.592449,91.7446749 128.818878,91.7446749 C128.20677,85.7562029 126.004723,56.6509455 125.156499,48.3898483 C124.369871,53.8449186 116.43985,95.0793983 116.43985,95.0793983 L90.8032016,95.0793983 C90.8032016,95.0793983 82.0566104,53.4458297 80.908107,45.8071059 C79.9362635,54.944231 78.5516433,85.8802498 77.9228537,91.7446749 C79.8186328,91.7446749 84.708648,91.7446749 84.708648,91.7446749 L84.708648,124.630369 L44.0396511,124.630369 L44.0396511,91.7446749 C44.0396511,91.7446749 48.5981616,91.7446749 50.1389099,91.7446749 C50.9148448,85.5915199 61.5426717,1.25500409 61.5426717,1.25500409 L95.7039104,1.25500409 C95.7039104,1.25500409 101.936627,43.8279159 103.081708,51.671531 C104.616896,41.3191311 110.535645,1.25500409 110.535645,1.25500409 L144.961232,1.25500409 C144.961232,1.25500409 155.118536,85.5440399 155.870089,91.7446749 C157.456606,91.7446749 162.075002,91.7446749 162.075002,91.7446749 L162.073718,124.346344 L142.112002,124.346344" id="path16" fill="#FFFFFF"></path>
                        <path d="M111.61913,2.51051291 L143.848231,2.51051291 C145.048492,12.4718485 153.927685,86.1522975 154.624059,91.8960977 L154.757516,93.0001153 L160.819561,93.0001153 L160.818278,123.090904 L122.550231,123.090904 L122.539537,93.0001153 L130.209059,93.0001153 L130.067902,91.617206 C129.78901,88.8920235 129.170059,81.2370452 128.514749,73.1320761 C127.742236,63.5821742 126.866636,52.7588664 126.405096,48.2615239 L123.914319,48.2106219 C123.209818,53.0972151 116.629343,87.4355415 115.402989,93.8243857 L91.8225251,93.8243857 C90.4862403,87.4440965 83.1807321,52.4786915 82.1494317,45.62018 L79.6599383,45.6740763 C79.1188371,50.758289 78.4506947,62.5577177 77.861258,72.9682486 C77.3937294,81.223785 76.9522935,89.0207756 76.674685,91.6107898 L76.525401,93.0001153 L83.4532076,93.0001153 L83.4532076,123.374929 L45.2946638,123.374929 L45.2946638,93.0001153 L51.2459217,93.0001153 L51.3845121,91.9016584 C52.107834,86.1629912 61.4006593,12.4222298 62.6492558,2.51051291 L94.6191415,2.51051291 C95.5935514,9.16668248 100.802667,44.7497128 101.839528,51.8524684 L104.32346,51.8554626 C105.708936,42.5099815 110.667819,8.94844545 111.61913,2.51051291 Z M146.07466,0 L109.451731,0 L109.293464,1.07187661 C109.293464,1.07187661 105.377004,27.5850837 103.089407,43.0477035 C100.901904,28.0940183 96.9456629,1.07371593 96.9456629,1.07371593 L96.7886794,0 L60.4356598,0 L60.2970695,1.0981104 C60.2970695,1.0981104 50.4995015,78.8459339 49.0323258,90.4896623 L42.7842108,90.4896623 L42.7842108,125.885382 L85.9636607,125.885382 L85.9636607,90.4896623 L79.2984913,90.4896623 C79.5752442,87.1091698 79.9469572,80.5458045 80.3678613,73.1102609 C80.7036435,67.1799626 81.0650905,60.7975347 81.4128497,55.4784882 C84.240264,69.9316655 89.2992396,94.0262828 89.5747093,95.3377581 L89.7843058,96.3348387 L117.476712,96.3348387 L117.67262,95.3167985 C117.916009,94.0532309 122.262356,71.4424715 124.750566,57.9273456 C125.146661,62.6295793 125.594513,68.168916 126.011995,73.3344009 C126.579617,80.3498959 127.119435,87.0287532 127.437252,90.4896623 L120.028228,90.4896623 L120.040205,125.601357 L163.329159,125.601357 L163.330442,90.4896623 L156.983089,90.4896623 C155.580076,78.8801537 146.305216,1.91367185 146.207689,1.10495864 L146.07466,0 Z" id="path18" fill="#0D3B18"></path>
                        <path d="M95.0597219,91.6946284 L82.2272819,33.5209 L77.8706684,33.4666188 C77.8706684,33.4666188 73.366482,90.1868167 72.8634503,94.8783568 C74.3811002,94.8783568 80.4499889,95.0212246 80.4499889,95.0212246 L80.3327859,121.02317 L47.7978451,121.02317 L47.7978451,95.3052493 C53.0706947,95.1298726 52.7627162,95.1294449 54.3269906,95.1294449 C54.9467975,90.2060654 65.4026697,4.71925817 65.4026697,4.71925817 L91.5213905,4.94100273 C91.5213905,4.94100273 100.170455,57.4380018 101.086264,63.713065 C101.103801,63.5851684 101.126472,63.4371676 101.147859,63.299005 C101.331791,75.016306 103.204899,79.7720083 103.433745,91.5782809 L95.0597219,91.6946284" id="path20" fill="#0D3B18"></path>
                        <path d="M112.124301,91.5782809 L124.146586,34.0910025 L127.56857,34.0910025 C127.56857,34.0910025 133.338891,90.1397644 133.84235,94.8317323 C132.325556,94.8317323 125.466616,95.0212246 125.466616,95.0212246 L125.583392,121.022742 L158.118333,121.022742 L158.118333,95.3043938 C152.845483,95.1294449 153.153461,95.1294449 151.589187,95.1294449 C150.96938,90.2060654 141.72489,4.94100273 141.72489,4.94100273 L114.394359,4.94100273 C114.394359,4.94100273 106.812098,54.9070169 105.89629,61.1820801 C107.247118,60.6478229 105.631514,63.886303 105.610982,63.7485681 C105.426623,75.4662969 102.711278,79.7715806 102.482861,91.5782809 L112.124301,91.5782809" id="path22" fill="#0D3B18"></path>
                        <polygon id="path24" fill="#0D3B18" points="90.7741147 56.439638 114.991068 56.439638 103.032945 84.5478148"></polygon>
                    </g>
                </g>
            </g>
        </g>
    </g>
</svg>