<?xml version="1.0" encoding="UTF-8"?>
<svg width="200px" height="200px" viewBox="0 0 200 200" version="1.1" xmlns="http://www.w3.org/2000/svg" xmlns:xlink="http://www.w3.org/1999/xlink">
    <!-- Generator: Sketch 51.3 (57544) - http://www.bohemiancoding.com/sketch -->
    <title>olivet</title>
    <desc>Created with Sketch.</desc>
    <defs></defs>
    <g id="olivet" stroke="none" stroke-width="1" fill="none" fill-rule="evenodd">
        <g id="olivet_BGL" transform="translate(-2.000000, 15.000000)" fill="#E72122">
            <g id="olivet" transform="translate(0.994975, 0.075377)">
                <g id="g10" transform="translate(100.393387, 85.325653) scale(-1, 1) rotate(-180.000000) translate(-100.393387, -85.325653) translate(0.000000, 0.646014)" fill-rule="nonzero">
                    <g id="g12" transform="translate(0.000000, 0.785687)">
                        <polyline id="path14" points="59.9605177 63.1980735 77.1964908 131.719615 68.9014654 131.721361 51.6644447 63.1980735 59.9605177 63.1980735"></polyline>
                        <path d="M129.138196,38.1617961 L132.926955,53.2555489 L175.497243,69.0671582 L159.605406,5.86912834 L76.0691168,5.84389032 L82.8576303,32.841645 L7.38184716,32.841645 L33.5185583,136.787299 L20.7095843,162.072465 L121.449808,162.149287 L115.134628,137.034354 L192.603403,137.091971 L182.502082,96.9302515 L139.944016,81.1093013 L145.876829,104.747841 L139.526729,104.745222 L122.837856,38.186327 L129.138196,38.1617961 Z M187.344536,92.5915112 L199.986245,142.852806 L122.51747,142.795188 L128.833524,167.909249 L11.345413,167.819331 L27.4135055,136.104624 L0,27.0861358 L75.4764466,27.0861358 L68.6879331,0.0862755624 L164.091681,0.115261473 L183.746087,78.2693033 L134.207625,59.8711239 L137.793852,74.1707215 L187.344536,92.5915112 Z" id="path16"></path>
                        <path d="M64.447491,57.4442229 L44.2818642,57.4442229 L64.414754,137.476958 L84.5780237,137.47172 L64.447491,57.4442229 Z M30.0726208,156.323852 L39.6240476,137.469101 L14.7636769,38.5982891 L84.3048664,38.5982891 L102.423952,110.65621 L89.0079038,137.015148 L109.198323,137.029989 L114.066093,156.38758 L30.0726208,156.323852 Z" id="path18"></path>
                        <polyline id="path20" points="149.562576 91.8468541 176.85299 101.991824 183.988778 130.370852 99.9542749 130.307124 109.549264 111.461103 84.6810361 12.5614825 154.370109 12.5815611 165.874319 58.3311767 138.578666 48.1915319 134.370001 31.427495 114.241563 31.5069367 134.288813 111.461103 154.486217 111.462849 149.562576 91.8468541"></polyline>
                    </g>
                </g>
            </g>
        </g>
    </g>
</svg>