<?xml version="1.0" encoding="UTF-8"?>
<svg width="200px" height="200px" viewBox="0 0 200 200" version="1.1" xmlns="http://www.w3.org/2000/svg" xmlns:xlink="http://www.w3.org/1999/xlink">
    <!-- Generator: Sketch 51.3 (57544) - http://www.bohemiancoding.com/sketch -->
    <title>oswego-st</title>
    <desc>Created with Sketch.</desc>
    <defs>
        <path d="M114.638703,25.4658893 C114.638703,25.4658893 113.197149,25.0423295 110.819415,24.793268 C108.441162,24.5442065 106.793525,24.806213 106.793525,24.806213 C106.793525,24.806213 109.801421,22.7593522 110.828735,19.3185756 C111.553654,16.8890611 112.651389,15.3346274 112.651389,15.3346274 C112.651389,15.3346274 111.539674,15.7058896 110.368411,16.1807116 C109.198185,16.6555336 108.010871,17.6590287 108.010871,17.6590287 C108.010871,17.6590287 108.918056,16.6912617 110.077926,12.9511971 C110.976308,10.053592 110.372036,8.156893 110.372036,8.156893 C110.372036,8.156893 107.825499,11.6478961 104.924787,12.7363104 C103.610612,13.2292553 102.46058,13.8050482 100.78757,14.0991582 C101.478832,12.1159868 101.926211,11.3698379 103.349641,9.36232986 C103.942004,8.52608393 104.76634,7.66446583 105.840256,6.75831698 C105.840256,6.75831698 103.896955,5.77553384 101.534237,6.06601927 C100.950677,6.13799337 100.051777,6.34200631 100.051777,6.34200631 L103.732813,2.01113264 C103.732813,2.01113264 100.461357,-1.16919091 95.5469232,0.551974096 C87.4614865,3.38433648 84.3717778,-0.248543683 63.7048528,5.81592218 C58.6894484,7.28750791 49.7216816,12.5089965 29.2950154,9.92673114 C15.8715854,8.23042051 5.53579274,5.44880245 0.0269255657,3.74110023 C4.43754034,7.94148847 14.2710676,18.1732034 20.3184461,31.0891902 C28.2992873,48.1372156 26.4844006,64.4287363 26.4844006,64.4287363 C26.4844006,64.4287363 30.6387047,67.6282184 44.9465361,67.0135906 C59.2543675,66.3984449 67.2890598,56.179675 72.0548849,46.7562448 C76.8212279,37.3333324 82.6428458,39.9508081 91.5163731,39.7954683 C100.390936,39.6401285 102.95715,36.8191577 106.228088,31.3610348 C109.499544,25.902912 114.638703,25.4658893 114.638703,25.4658893 Z" id="path-1"></path>
        <path d="M114.638703,25.4658893 C114.638703,25.4658893 113.197149,25.0423295 110.819415,24.793268 C108.441162,24.5442065 106.793525,24.806213 106.793525,24.806213 C106.793525,24.806213 109.801421,22.7593522 110.828735,19.3185756 C111.553654,16.8890611 112.651389,15.3346274 112.651389,15.3346274 C112.651389,15.3346274 111.539674,15.7058896 110.368411,16.1807116 C109.198185,16.6555336 108.010871,17.6590287 108.010871,17.6590287 C108.010871,17.6590287 108.918056,16.6912617 110.077926,12.9511971 C110.976308,10.053592 110.372036,8.156893 110.372036,8.156893 C110.372036,8.156893 107.825499,11.6478961 104.924787,12.7363104 C103.610612,13.2292553 102.46058,13.8050482 100.78757,14.0991582 C101.478832,12.1159868 101.926211,11.3698379 103.349641,9.36232986 C103.942004,8.52608393 104.76634,7.66446583 105.840256,6.75831698 C105.840256,6.75831698 103.896955,5.77553384 101.534237,6.06601927 C100.950677,6.13799337 100.051777,6.34200631 100.051777,6.34200631 L103.732813,2.01113264 C103.732813,2.01113264 100.461357,-1.16919091 95.5469232,0.551974096 C87.4614865,3.38433648 84.3717778,-0.248543683 63.7048528,5.81592218 C58.6894484,7.28750791 49.7216816,12.5089965 29.2950154,9.92673114 C15.8715854,8.23042051 5.53579274,5.44880245 0.0269255657,3.74110023 C4.43754034,7.94148847 14.2710676,18.1732034 20.3184461,31.0891902 C28.2992873,48.1372156 26.4844006,64.4287363 26.4844006,64.4287363 C26.4844006,64.4287363 30.6387047,67.6282184 44.9465361,67.0135906 C59.2543675,66.3984449 67.2890598,56.179675 72.0548849,46.7562448 C76.8212279,37.3333324 82.6428458,39.9508081 91.5163731,39.7954683 C100.390936,39.6401285 102.95715,36.8191577 106.228088,31.3610348 C109.499544,25.902912 114.638703,25.4658893 114.638703,25.4658893 Z" id="path-3"></path>
        <path d="M100.21126,20.9641419 L96.9853697,20.367637 C96.9853697,20.367637 98.2498357,16.9807115 99.1808389,15.1347569 C98.8437516,15.2833653 98.4926836,15.4117795 98.1297063,15.5117148 C95.9611626,16.1113265 93.8319718,16.1750158 93.4089297,13.0749511 C93.1199977,10.9550806 94.9012274,9.14537194 96.4986384,7.44284771 C98.7163729,5.07961152 97.1407095,4.02588987 97.137085,2.71171514 C97.137085,2.71171514 89.9536547,-3.60181221 74.7552085,3.20983811 C72.2335257,4.33967627 69.4601924,5.36957915 67.5272475,5.86459532 C63.8068592,6.81786391 61.0770211,7.40401276 57.0014225,8.56388328 C52.4230408,9.86666642 50.8976039,11.0757279 45.3654358,12.2485434 C39.674821,13.454498 32.0548859,14.0882844 21.5937859,12.7663427 C13.0190288,11.6825887 5.68750795,10.1612942 0.0398705492,8.75132664 C4.82744325,14.107443 10.7381227,21.7579283 14.920388,30.6915203 C21.6610998,45.0884131 21.6595464,58.9260827 21.4239477,63.6069887 C21.9101613,63.7954677 22.5377341,64.0020696 23.3273781,64.2034935 C25.8816822,64.8569563 30.2591578,65.4933317 37.2365039,65.1935259 C50.2954033,64.6322314 57.7983157,55.3444646 62.4507428,46.1462772 C65.0884126,40.93152 68.261487,38.6956625 72.2443995,38.0116495 C74.0846583,37.6952741 76.0088007,37.7263421 77.8873767,37.8029764 C79.713655,37.8775395 81.6963086,38.0116495 83.8658879,37.9733324 C91.774755,37.83508 93.7185737,35.587313 96.7005801,30.612297 C97.3664701,29.5005818 98.1032985,28.5638828 98.8675703,27.7742388 L96.2397387,27.4034945 L96.7031691,23.699158 C96.7031691,23.699158 98.8711949,22.6516499 99.7400622,21.8366338 C99.8985088,21.6875075 100.188994,21.2572163 100.21126,20.9641419 Z" id="path-5"></path>
        <path d="M114.638703,25.4658893 C114.638703,25.4658893 113.197149,25.0423295 110.819415,24.793268 C108.441162,24.5442065 106.793525,24.806213 106.793525,24.806213 C106.793525,24.806213 109.801421,22.7593522 110.828735,19.3185756 C111.553654,16.8890611 112.651389,15.3346274 112.651389,15.3346274 C112.651389,15.3346274 111.539674,15.7058896 110.368411,16.1807116 C109.198185,16.6555336 108.010871,17.6590287 108.010871,17.6590287 C108.010871,17.6590287 108.918056,16.6912617 110.077926,12.9511971 C110.976308,10.053592 110.372036,8.156893 110.372036,8.156893 C110.372036,8.156893 107.825499,11.6478961 104.924787,12.7363104 C103.610612,13.2292553 102.46058,13.8050482 100.78757,14.0991582 C101.478832,12.1159868 101.926211,11.3698379 103.349641,9.36232986 C103.942004,8.52608393 104.76634,7.66446583 105.840256,6.75831698 C105.840256,6.75831698 103.896955,5.77553384 101.534237,6.06601927 C100.950677,6.13799337 100.051777,6.34200631 100.051777,6.34200631 L103.732813,2.01113264 C103.732813,2.01113264 100.461357,-1.16919091 95.5469232,0.551974096 C87.4614865,3.38433648 84.3717778,-0.248543683 63.7048528,5.81592218 C58.6894484,7.28750791 49.7216816,12.5089965 29.2950154,9.92673114 C15.8715854,8.23042051 5.53579274,5.44880245 0.0269255657,3.74110023 C4.43754034,7.94148847 14.2710676,18.1732034 20.3184461,31.0891902 C28.2992873,48.1372156 26.4844006,64.4287363 26.4844006,64.4287363 C26.4844006,64.4287363 30.6387047,67.6282184 44.9465361,67.0135906 C59.2543675,66.3984449 67.2890598,56.179675 72.0548849,46.7562448 C76.8212279,37.3333324 82.6428458,39.9508081 91.5163731,39.7954683 C100.390936,39.6401285 102.95715,36.8191577 106.228088,31.3610348 C109.499544,25.902912 114.638703,25.4658893 114.638703,25.4658893 Z" id="path-7"></path>
        <path d="M100.21126,20.9641419 L96.9853697,20.367637 C96.9853697,20.367637 98.2498357,16.9807115 99.1808389,15.1347569 C98.8437516,15.2833653 98.4926836,15.4117795 98.1297063,15.5117148 C95.9611626,16.1113265 93.8319718,16.1750158 93.4089297,13.0749511 C93.1199977,10.9550806 94.9012274,9.14537194 96.4986384,7.44284771 C98.7163729,5.07961152 97.1407095,4.02588987 97.137085,2.71171514 C97.137085,2.71171514 89.9536547,-3.60181221 74.7552085,3.20983811 C72.2335257,4.33967627 69.4601924,5.36957915 67.5272475,5.86459532 C63.8068592,6.81786391 61.0770211,7.40401276 57.0014225,8.56388328 C52.4230408,9.86666642 50.8976039,11.0757279 45.3654358,12.2485434 C39.674821,13.454498 32.0548859,14.0882844 21.5937859,12.7663427 C13.0190288,11.6825887 5.68750795,10.1612942 0.0398705492,8.75132664 C4.82744325,14.107443 10.7381227,21.7579283 14.920388,30.6915203 C21.6610998,45.0884131 21.6595464,58.9260827 21.4239477,63.6069887 C21.9101613,63.7954677 22.5377341,64.0020696 23.3273781,64.2034935 C25.8816822,64.8569563 30.2591578,65.4933317 37.2365039,65.1935259 C50.2954033,64.6322314 57.7983157,55.3444646 62.4507428,46.1462772 C65.0884126,40.93152 68.261487,38.6956625 72.2443995,38.0116495 C74.0846583,37.6952741 76.0088007,37.7263421 77.8873767,37.8029764 C79.713655,37.8775395 81.6963086,38.0116495 83.8658879,37.9733324 C91.774755,37.83508 93.7185737,35.587313 96.7005801,30.612297 C97.3664701,29.5005818 98.1032985,28.5638828 98.8675703,27.7742388 L96.2397387,27.4034945 L96.7031691,23.699158 C96.7031691,23.699158 98.8711949,22.6516499 99.7400622,21.8366338 C99.8985088,21.6875075 100.188994,21.2572163 100.21126,20.9641419 Z" id="path-9"></path>
        <path d="M0.0170873782,4.12478954 L28.5328148,69.3732021 L86.0489299,55.0141087 C86.0489299,55.0141087 89.0407745,35.0762451 83.442328,21.8350804 C77.8449171,8.59339784 63.4930728,0.0269255657 63.4930728,0.0269255657 L0.0170873782,4.12478954 Z" id="path-11"></path>
        <path d="M114.638703,25.4658893 C114.638703,25.4658893 113.197149,25.0423295 110.819415,24.793268 C108.441162,24.5442065 106.793525,24.806213 106.793525,24.806213 C106.793525,24.806213 109.801421,22.7593522 110.828735,19.3185756 C111.553654,16.8890611 112.651389,15.3346274 112.651389,15.3346274 C112.651389,15.3346274 111.539674,15.7058896 110.368411,16.1807116 C109.198185,16.6555336 108.010871,17.6590287 108.010871,17.6590287 C108.010871,17.6590287 108.918056,16.6912617 110.077926,12.9511971 C110.976308,10.053592 110.372036,8.156893 110.372036,8.156893 C110.372036,8.156893 107.825499,11.6478961 104.924787,12.7363104 C103.610612,13.2292553 102.46058,13.8050482 100.78757,14.0991582 C101.478832,12.1159868 101.926211,11.3698379 103.349641,9.36232986 C103.942004,8.52608393 104.76634,7.66446583 105.840256,6.75831698 C105.840256,6.75831698 103.896955,5.77553384 101.534237,6.06601927 C100.950677,6.13799337 100.051777,6.34200631 100.051777,6.34200631 L103.732813,2.01113264 C103.732813,2.01113264 100.461357,-1.16919091 95.5469232,0.551974096 C87.4614865,3.38433648 84.3717778,-0.248543683 63.7048528,5.81592218 C58.6894484,7.28750791 49.7216816,12.5089965 29.2950154,9.92673114 C15.8715854,8.23042051 5.53579274,5.44880245 0.0269255657,3.74110023 C4.43754034,7.94148847 14.2710676,18.1732034 20.3184461,31.0891902 C28.2992873,48.1372156 26.4844006,64.4287363 26.4844006,64.4287363 C26.4844006,64.4287363 30.6387047,67.6282184 44.9465361,67.0135906 C59.2543675,66.3984449 67.2890598,56.179675 72.0548849,46.7562448 C76.8212279,37.3333324 82.6428458,39.9508081 91.5163731,39.7954683 C100.390936,39.6401285 102.95715,36.8191577 106.228088,31.3610348 C109.499544,25.902912 114.638703,25.4658893 114.638703,25.4658893 Z" id="path-13"></path>
        <path d="M100.21126,20.9641419 L96.9853697,20.367637 C96.9853697,20.367637 98.2498357,16.9807115 99.1808389,15.1347569 C98.8437516,15.2833653 98.4926836,15.4117795 98.1297063,15.5117148 C95.9611626,16.1113265 93.8319718,16.1750158 93.4089297,13.0749511 C93.1199977,10.9550806 94.9012274,9.14537194 96.4986384,7.44284771 C98.7163729,5.07961152 97.1407095,4.02588987 97.137085,2.71171514 C97.137085,2.71171514 89.9536547,-3.60181221 74.7552085,3.20983811 C72.2335257,4.33967627 69.4601924,5.36957915 67.5272475,5.86459532 C63.8068592,6.81786391 61.0770211,7.40401276 57.0014225,8.56388328 C52.4230408,9.86666642 50.8976039,11.0757279 45.3654358,12.2485434 C39.674821,13.454498 32.0548859,14.0882844 21.5937859,12.7663427 C13.0190288,11.6825887 5.68750795,10.1612942 0.0398705492,8.75132664 C4.82744325,14.107443 10.7381227,21.7579283 14.920388,30.6915203 C21.6610998,45.0884131 21.6595464,58.9260827 21.4239477,63.6069887 C21.9101613,63.7954677 22.5377341,64.0020696 23.3273781,64.2034935 C25.8816822,64.8569563 30.2591578,65.4933317 37.2365039,65.1935259 C50.2954033,64.6322314 57.7983157,55.3444646 62.4507428,46.1462772 C65.0884126,40.93152 68.261487,38.6956625 72.2443995,38.0116495 C74.0846583,37.6952741 76.0088007,37.7263421 77.8873767,37.8029764 C79.713655,37.8775395 81.6963086,38.0116495 83.8658879,37.9733324 C91.774755,37.83508 93.7185737,35.587313 96.7005801,30.612297 C97.3664701,29.5005818 98.1032985,28.5638828 98.8675703,27.7742388 L96.2397387,27.4034945 L96.7031691,23.699158 C96.7031691,23.699158 98.8711949,22.6516499 99.7400622,21.8366338 C99.8985088,21.6875075 100.188994,21.2572163 100.21126,20.9641419 Z" id="path-15"></path>
        <path d="M114.638703,25.4658893 C114.638703,25.4658893 113.197149,25.0423295 110.819415,24.793268 C108.441162,24.5442065 106.793525,24.806213 106.793525,24.806213 C106.793525,24.806213 109.801421,22.7593522 110.828735,19.3185756 C111.553654,16.8890611 112.651389,15.3346274 112.651389,15.3346274 C112.651389,15.3346274 111.539674,15.7058896 110.368411,16.1807116 C109.198185,16.6555336 108.010871,17.6590287 108.010871,17.6590287 C108.010871,17.6590287 108.918056,16.6912617 110.077926,12.9511971 C110.976308,10.053592 110.372036,8.156893 110.372036,8.156893 C110.372036,8.156893 107.825499,11.6478961 104.924787,12.7363104 C103.610612,13.2292553 102.46058,13.8050482 100.78757,14.0991582 C101.478832,12.1159868 101.926211,11.3698379 103.349641,9.36232986 C103.942004,8.52608393 104.76634,7.66446583 105.840256,6.75831698 C105.840256,6.75831698 103.896955,5.77553384 101.534237,6.06601927 C100.950677,6.13799337 100.051777,6.34200631 100.051777,6.34200631 L103.732813,2.01113264 C103.732813,2.01113264 100.461357,-1.16919091 95.5469232,0.551974096 C87.4614865,3.38433648 84.3717778,-0.248543683 63.7048528,5.81592218 C58.6894484,7.28750791 49.7216816,12.5089965 29.2950154,9.92673114 C15.8715854,8.23042051 5.53579274,5.44880245 0.0269255657,3.74110023 C4.43754034,7.94148847 14.2710676,18.1732034 20.3184461,31.0891902 C28.2992873,48.1372156 26.4844006,64.4287363 26.4844006,64.4287363 C26.4844006,64.4287363 30.6387047,67.6282184 44.9465361,67.0135906 C59.2543675,66.3984449 67.2890598,56.179675 72.0548849,46.7562448 C76.8212279,37.3333324 82.6428458,39.9508081 91.5163731,39.7954683 C100.390936,39.6401285 102.95715,36.8191577 106.228088,31.3610348 C109.499544,25.902912 114.638703,25.4658893 114.638703,25.4658893 Z" id="path-17"></path>
        <path d="M0.0441165038,1.46946275 L46.087248,100.554561 C46.087248,100.554561 46.8572157,101.598962 48.96207,101.036632 C50.8711961,100.527117 50.5537851,98.6702888 50.5537851,98.6702888 L9.18472469,0.025889967 L8.30653701,2.99961158 L5.58513902,0.0269255657 L5.14444,2.07181872 L3.31370866,0.953268585 L3.30423293,3.53460185 L0.0441165038,1.46946275 Z" id="path-19"></path>
        <path d="M113.193007,17.7967115 L117.600515,27.7265495 L129.270159,27.7265495 C129.127246,27.7099281 128.769964,27.6276498 128.196243,27.4795592 C127.475466,27.2933068 126.654754,26.8804653 125.733589,26.2401029 C124.811906,25.5998958 124.031065,24.609035 123.388994,23.2661742 L121.530094,18.9115853 L115.257991,4.13048533 C115.26058,4.08031058 114.989253,3.72711965 114.443492,3.07060186 C113.897214,2.4140323 113.059415,1.75787698 111.930094,1.1013592 C110.799738,0.445410992 109.360774,0.0916504831 107.610612,0.0414757271 L95.7685413,0.0414757271 L99.916114,9.77708713 L107.191195,9.77708713 L105.916891,7.22858234 C105.916891,7.22858234 107.182392,7.22692539 107.696567,7.34141082 C108.209188,7.45470532 108.749771,7.87785094 109.316243,8.60903538 L110.96181,12.7508087 L100.925305,12.7508087 L117.971777,50.9442058 C117.974366,50.9908078 118.252424,51.3108078 118.805952,51.9042058 C119.359479,52.4970861 120.171906,53.0878951 121.245304,53.6755974 C122.317667,54.262264 123.633913,54.5703546 125.19456,54.5988336 L136.930482,54.4932025 L128.592877,35.639559 L120.99935,35.639559 L127.956502,51.2616168 L127.000126,51.2616168 C126.946793,51.2885424 126.641809,51.2362447 126.084139,51.1031702 C125.526469,50.9711314 125.03456,50.6009049 124.609965,49.9914551 L109.84647,16.5218378 L110.803363,16.5218378 C110.849447,16.4959478 111.142004,16.5483491 111.678962,16.6814235 C112.216955,16.814498 112.721292,17.1862779 113.193007,17.7967115 Z M112.12634,46.9711315 L104.425628,46.9711315 L106.496826,51.3486071 L105.594302,51.3486071 C105.549771,51.3796751 105.240645,51.318057 104.664852,51.1637528 C104.089577,51.0099664 103.514819,50.5796751 102.939027,49.8723612 L100.337085,43.6251122 L110.055143,43.6251122 L108.196243,39.3776042 L98.4253697,39.3776042 L88.1755318,16.3820837 L89.1319072,16.3820837 C89.1779913,16.3577989 89.4700301,16.4205044 90.0080236,16.5685433 C90.5460172,16.7172552 91.0498359,17.0972682 91.5210333,17.7107568 L94.9732015,25.3572032 L102.302133,25.3572032 L98.690483,17.0200125 C98.6920364,16.9672488 98.4067289,16.600129 97.8350785,15.9192747 C97.263428,15.2362456 96.4002565,14.555443 95.2450462,13.8723621 C94.089318,13.1915595 92.6358553,12.8244398 90.8846579,12.7714172 L78.6982505,12.7714172 L95.5044636,51.2963094 C95.7478293,52.2500958 95.5919717,52.9615521 95.0379264,53.4332673 C94.4849167,53.9034291 93.8801271,54.2141087 93.2261465,54.3621993 L92.7684119,54.463688 L92.2231692,54.3321669 C91.4889298,54.1493838 90.659933,53.7465359 89.7372146,53.1215521 C88.8139784,52.4976039 88.0481531,51.5329437 87.4402567,50.2270538 L73.0485419,16.922718 C73.0495775,16.8709381 72.7647878,16.5084786 72.1952086,15.8353394 C71.6245937,15.1622003 70.7666002,14.4894754 69.618639,13.815922 C68.4701601,13.1422133 67.0296423,12.7803233 65.2950145,12.7285434 L43.0969569,12.7285434 L61.8055648,54.5755326 C61.8428464,54.5760504 68.264076,54.5915844 69.2934611,54.5755326 L52.2837527,16.3392099 C52.2837527,16.3392099 53.4161799,16.3066404 53.8443999,16.3790287 C54.2721022,16.4520384 54.8499663,16.8632747 55.5769565,17.6124785 L71.9699658,54.5755326 C72.0067296,54.5760504 78.4295126,54.59262 79.4578621,54.5755326 L62.6397395,16.3392099 C62.6397395,16.3392099 63.7721667,16.3066404 64.1998689,16.3790287 C64.6275712,16.4520384 65.2054353,16.8632747 65.9319077,17.6124785 L82.1302245,54.5755326 L115.419026,54.5656944 L112.12634,46.9711315 Z M38.0748211,50.7236233 C38.0763745,50.7707431 38.3621997,51.1005812 38.9328146,51.7126201 C39.5023938,52.3241411 40.3469246,52.9330731 41.4658889,53.5388983 C42.5848533,54.1452414 43.9678953,54.4626524 45.6155328,54.4932025 L57.7770859,54.4926847 L50.5548207,38.2859796 L43.0135912,38.2859796 L48.8554033,51.2533321 C48.8554033,51.2533321 47.7224584,51.2963094 47.2890603,51.2336557 C46.8556623,51.1715198 46.2622642,50.7541735 45.509384,49.9826525 L39.189643,35.6933583 L49.5989632,35.6933583 L41.2608404,16.469074 C41.2608404,16.4219025 40.9791576,16.0962585 40.4157919,15.490485 C39.8524262,14.8861097 39.0115201,14.2809576 37.8941091,13.6761679 C36.7756625,13.0708087 35.3853195,12.7451647 33.7200768,12.6984074 L21.6122713,12.6984074 L28.6751579,28.7362582 L36.1632095,28.7362582 L30.4811902,15.9379155 C30.4811902,15.9379155 31.6559215,15.8944203 32.0742516,15.9581096 C32.4923228,16.0212294 33.0766594,16.4385239 33.8262775,17.2121679 L39.9337207,31.2849701 L29.7908601,31.2849701 L38.0748211,50.7236233 Z M9.23443343,16.3630805 C9.23443343,16.3630805 10.3664981,16.3298896 10.7943039,16.4023297 C11.2221098,16.4749252 11.7999738,16.8865238 12.5267052,17.6351064 L27.3962453,51.3594809 C27.3962453,51.3594809 26.2633521,51.3921023 25.8296951,51.3196104 C25.3964524,51.2466007 24.8032097,50.8359858 24.0503813,50.0872479 L9.23443343,16.3630805 Z M16.9348863,50.9359211 C16.9374753,50.979934 17.2152229,51.2968272 17.768595,51.885565 C18.3222261,52.4727495 19.1351193,53.0609695 20.2077406,53.6491896 C21.2801548,54.2368918 22.5966596,54.553785 24.1565301,54.5988336 L35.9993777,54.5988336 L19.6957924,16.9987827 C19.6971904,16.9465886 19.4120383,16.5794688 18.8410092,15.8980449 C18.2687892,15.2159996 17.4055659,14.535197 16.2502002,13.8521679 C15.0948864,13.1713136 13.6409576,12.8036243 11.8897602,12.7508087 L0.0469126202,12.7508087 L16.9348863,50.9359211 Z M142.122974,50.9359211 C142.125563,50.979934 142.403621,51.2968272 142.956631,51.885565 C143.510676,52.4727495 144.323103,53.0609695 145.395466,53.6491896 C146.468346,54.2368918 147.78511,54.553785 149.344721,54.5988336 L161.18731,54.5455003 L144.88388,16.9987827 C144.885433,16.9465886 144.600126,16.5794688 144.028993,15.8980449 C143.456825,15.2159996 142.593653,14.535197 141.438443,13.8521679 C140.282715,13.1713136 138.829252,12.8041939 137.078055,12.7508087 L125.234948,12.7508087 L142.122974,50.9359211 Z M135.012553,16.3630805 C135.012553,16.3630805 136.144463,16.3298896 136.572165,16.4023297 C136.999867,16.4749252 137.578249,16.8865238 138.304721,17.6351064 L153.174365,51.3594809 C153.174365,51.3594809 152.04142,51.3921023 151.608022,51.3196104 C151.174106,51.2466007 150.581226,50.8359858 149.828346,50.0872479 L135.012553,16.3630805 Z" id="path-21"></path>
    </defs>
    <g id="oswego-st" stroke="none" stroke-width="1" fill="none" fill-rule="evenodd">
        <g id="oswego-st_BGL" transform="translate(0.000000, 26.000000)">
            <g id="oswego-st">
                <g id="g10" transform="translate(99.935273, 73.610358) scale(-1, 1) rotate(-180.000000) translate(-99.935273, -73.610358) translate(0.000000, 0.082852)">
                    <g id="g12">
                        <path d="M168.834171,67.5344967 C168.834171,67.5344967 174.165433,65.4684773 178.717407,65.2090599 C183.268863,64.9491246 187.128539,67.2429757 190.557406,65.0299013 C193.986791,62.8163091 196.592875,63.4801279 196.592875,63.4801279 C196.592875,63.4801279 194.054105,64.176568 191.181872,67.7923608 C188.135659,71.6256293 184.088539,72.1776034 180.875594,73.2768914 C177.663167,74.3766972 175.009963,75.3082182 175.009963,75.3082182 L168.834171,67.5344967" id="path14" fill="#FFFFFF" fill-rule="nonzero"></path>
                        <path d="M158.520643,84.6845286 C158.520643,84.6845286 165.552876,80.4142375 171.930611,78.9048524 C178.308863,77.3959851 184.065238,79.3682828 188.645691,75.6841405 C194.494235,70.9804513 199.478053,75.3807101 199.478053,75.3807101 C199.478053,75.3807101 195.165303,73.5093833 190.218765,79.4521663 C185.714947,84.8631694 180.910287,84.4939785 176.637924,86.8608393 C172.364526,89.2282178 169.204397,94.1820041 169.204397,94.1820041 L158.520643,84.6845286" id="path16" fill="#FFFFFF" fill-rule="nonzero"></path>
                        <path d="M172.066274,76.6084123 C172.066274,76.6084123 178.427957,72.302393 181.644526,71.659804 C184.861096,71.0177329 188.075076,72.5084772 190.061354,70.3430403 C192.236112,67.9730727 194.990286,67.015144 194.990286,67.015144 C194.990286,67.015144 192.404396,69.2789627 190.782131,72.2511309 C189.092034,75.3480887 186.037536,75.122846 183.859154,76.229901 C181.680254,77.336956 180.012423,79.7540433 180.012423,79.7540433 L172.066274,76.6084123" id="path18" fill="#FFFFFF" fill-rule="nonzero"></path>
                        <path d="M137.962974,107.005823 C137.962974,107.005823 145.606728,103.259027 152.326728,102.285564 C159.04621,101.312101 164.81087,103.855531 169.870805,100.4888 C176.331387,96.19003 182.37307,100.125823 182.37307,100.125823 C182.37307,100.125823 176.796371,98.8447872 171.155983,104.496567 C166.019413,109.641939 159.390028,109.933978 154.268475,109.646081 C149.278443,109.365434 137.962974,107.005823 137.962974,107.005823" id="path20" fill="#FFFFFF" fill-rule="nonzero"></path>
                        <path d="M163.662909,67.1653058 C163.662909,67.1653058 168.355206,64.2526845 175.600255,63.6453059 C180.156889,63.2631699 184.103037,65.3820048 187.46252,63.0586392 C190.822002,60.7352736 191.503426,58.2757267 191.503426,58.2757267 C191.503426,58.2757267 191.959607,62.6821991 188.185885,65.7895129 C184.412164,68.896309 181.265497,68.3386391 178.084656,69.5445937 C174.902779,70.7510662 172.240255,73.8355969 172.240255,73.8355969 L163.662909,67.1653058" id="path22" fill="#FFFFFF" fill-rule="nonzero"></path>
                        <path d="M176.031581,94.8411627 C176.031581,94.8411627 179.611128,93.498509 181.961937,91.6214864 C184.312228,89.7444638 185.125691,86.9317778 187.843102,86.4978619 C190.561031,86.0644639 192.08129,86.9141726 192.08129,86.9141726 C192.08129,86.9141726 190.148345,84.6280885 186.85307,84.8807746 C183.558313,85.1334607 182.346144,86.8287357 180.257342,87.7084768 C178.168539,88.5877001 175.409187,88.3448522 175.409187,88.3448522 L176.031581,94.8411627" id="path24" fill="#FFFFFF" fill-rule="nonzero"></path>
                        <path d="M37.8998567,36.0770476 L88.3500302,144.64621 L88.5281531,144.887504 C88.7497712,145.188864 89.3390269,145.866145 90.4248521,146.320255 C91.5521013,146.792488 92.9522307,146.914171 94.5724248,146.481291 C96.6576028,145.925174 97.7548196,144.466016 98.1706124,143.087116 C98.3637516,142.446598 98.386017,141.775013 98.3647872,141.278961 C98.3430396,140.767893 98.2643341,140.363492 98.2643341,140.363492 L96.9501594,137.229252 C100.048671,137.777602 104.305499,138.124009 110.05825,137.876501 C126.015272,137.190935 134.776955,125.720644 139.700708,115.986017 C141.73566,111.962198 143.662909,110.979415 145.734106,110.623169 C146.975789,110.409835 148.406987,110.410871 150.263815,110.486988 C152.185368,110.565693 154.271064,110.700839 156.552488,110.660968 C166.686857,110.483363 170.10019,106.901745 173.770352,100.777732 C175.055012,98.6330072 177.119478,97.0428455 178.364785,96.489318 C181.571516,95.0643342 186.313005,95.5800623 186.327503,95.5821335 L187.65773,95.7291885 C187.65773,95.7291885 185.859931,93.95003 184.666921,92.9988326 C183.488927,92.0595446 181.922584,90.9680236 180.476889,90.4916482 C179.86951,90.2922955 179.572811,90.2042696 179.174106,90.1297065 C178.889834,90.0758554 178.552229,90.0297712 178.000772,89.9536547 C178.371517,89.2282178 178.664591,88.4245933 178.771258,87.5754023 C178.866015,86.8297713 179.137342,86.2327487 179.388474,85.8205804 C179.504462,85.630548 179.613717,85.4840108 179.695012,85.3851111 L179.903167,85.1339785 L179.737471,84.8528134 C178.992876,83.5836872 178.348733,82.696697 177.767245,82.0950141 L177.820578,81.9676355 C178.595724,80.0776679 178.716889,78.3984446 178.612293,77.1386388 C178.558442,76.4862117 178.446597,75.9699657 178.350287,75.6152732 C178.27883,75.3496421 177.756889,74.1768266 177.272229,73.1054998 L178.354947,72.1931374 L176.805174,72.0812927 L175.934235,70.1851115 L174.663556,71.9275063 L171.12595,71.6732668 L173.911711,68.405953 C173.911711,68.405953 173.087892,67.6018106 172.499154,67.0462119 C171.921808,66.501487 171.235206,65.8687362 170.900708,65.6243349 C170.330611,65.2090599 169.509899,64.6814223 168.485692,64.2185097 C166.439349,63.2937201 163.411258,62.5651764 160.01087,63.7566327 C159.503426,62.0080243 158.600384,59.3522315 158.600384,59.3522315 C158.600384,59.3522315 154.98252,62.8618755 154.875854,62.9561149 C154.708605,63.1042055 154.409834,63.342911 153.964009,63.6054353 C153.085304,64.1237524 151.586275,64.7642702 149.320385,64.9434288 C147.743168,65.0682184 146.702909,65.1805809 146.019414,65.270678 C141.87909,65.6750793 136.399738,66.6009045 128.315337,68.9734611 C125.853201,69.6952733 122.424851,71.35016 117.101874,72.4955322 C112.023298,73.587571 105.013849,74.2379269 95.1187031,72.9874415 C82.9364381,71.4475063 73.3421341,69.0009044 67.6820695,67.3133964 L53.5311313,33.7340056 L51.782523,39.654109 L48.7269373,36.3159603 L47.9551056,39.8984585 L45.1921283,38.2099667 L45.1830668,40.6907433 L37.8998567,36.0770476 Z M83.0229105,100.039868 C86.0038813,106.406729 87.5640108,112.671065 88.3588327,117.94744 L75.6484123,87.6406451 C78.3119722,91.3423925 80.9102892,95.5277646 83.0229105,100.039868 Z" id="path26" fill="#FFFFFF" fill-rule="nonzero"></path>
                        <path d="M166.869122,18.5869769 C166.661485,18.3197924 166.371517,17.9609575 165.985756,17.5009963 C164.459284,15.6830546 162.595724,14.3503427 160.929446,13.3665239 C157.996113,11.635935 154.691517,11.0264852 151.85553,10.9411518 L139.726598,10.9391324 L139.155466,9.63774733 C139.083492,9.49633633 138.918831,9.16706773 138.702909,8.79326839 C138.480255,8.41020044 138.193395,7.95448524 137.859414,7.52041405 C137.673006,7.2777215 137.391841,6.92660177 137.016955,6.47611634 C135.481162,4.63005814 133.59689,3.30663552 131.95443,2.35234687 C129.030935,0.654529433 125.751194,0.0813105481 122.970612,0.00161812294 L13.0833395,0 L17.919896,10.9344722 L0,10.9395467 L22.9164525,62.7376036 C23.1373457,63.1704839 23.7297599,64.2739143 24.594433,65.2587686 C24.7829638,65.4736553 25.0665625,65.7848527 25.441967,66.184076 C26.9364912,67.7706132 28.6933844,68.9263413 30.2463682,69.7781212 C32.9947435,71.2843995 36.0535913,71.8265354 38.6660443,71.9021341 L190.399477,71.8053056 L167.109381,18.8976565 L166.869122,18.5869769" id="path28" fill="#FFFFFF" fill-rule="nonzero"></path>
                        <path d="M166.176307,72.4100953 L166.66252,72.3210338 L169.833005,68.5928785 C169.833005,68.5928785 165.910675,64.8497071 160.997278,66.5708721 C159.431452,67.1197394 158.053588,67.4257588 156.699025,67.6064708 C157.009187,67.2134611 157.275336,66.6832346 157.386145,65.9728139 C157.484527,65.3410987 157.289316,64.7580566 157.289316,64.7580566 C157.289316,64.7580566 155.038443,67.4832346 149.555466,67.9166326 C148.018637,68.0377977 147.017731,68.1460177 146.367893,68.233008 C142.348734,68.6218753 137.026793,69.5249174 129.155207,71.8348202 C124.138767,73.3069237 115.172036,78.5284123 94.744852,75.9466648 C81.3214219,74.2498363 70.9861471,71.4682183 65.4767621,69.7599983 L65.2722314,69.652296 L65.4555323,71.9456293 L68.9392863,73.7781211 L69.0972151,73.3944318 C71.7079594,76.1465353 74.8893185,79.7908071 78.0043993,84.095273 L92.1791563,87.7550787 L144.839349,78.90071 L166.176307,72.4100953" id="path30" fill="#B78B06" fill-rule="nonzero"></path>
                        <path d="M179.62252,93.3493828 C179.62252,93.3493828 178.180966,92.9258229 175.803232,92.6767614 C173.424979,92.4277 171.777342,92.6897064 171.777342,92.6897064 C171.777342,92.6897064 174.785238,90.6428456 175.812552,87.202069 C176.537471,84.7725545 177.635206,83.2181209 177.635206,83.2181209 C177.635206,83.2181209 176.523491,83.589383 175.352229,84.064205 C174.182002,84.539027 172.994688,85.5425221 172.994688,85.5425221 C172.994688,85.5425221 173.901873,84.5747552 175.061743,80.8346905 C175.960125,77.9370854 175.355853,76.0403864 175.355853,76.0403864 C175.355853,76.0403864 172.809316,79.5313896 169.908604,80.6198038 C168.594429,81.1127488 167.444397,81.6885416 165.771387,81.9826517 C166.46265,79.9994802 166.910028,79.2533314 168.333459,77.2458233 C168.925821,76.4095774 169.750158,75.5479593 170.824073,74.6418104 C170.824073,74.6418104 168.880772,73.6590273 166.518054,73.9495127 C165.934494,74.0214868 165.035595,74.2254998 165.035595,74.2254998 L168.71663,69.8946261 C168.71663,69.8946261 165.445174,66.7143025 160.53074,68.4354675 C152.445304,71.2678299 149.355595,67.6349498 128.68867,73.6994156 C123.673266,75.1710014 114.705499,80.3924899 94.2788326,77.8102246 C80.8554025,76.113914 70.5196099,73.3322959 65.0107427,71.6245937 C69.4213575,75.8249819 79.2548848,86.0566969 85.3022632,98.9726836 C93.2831045,116.020709 91.4682178,132.31223 91.4682178,132.31223 C91.4682178,132.31223 95.6225219,135.511712 109.930353,134.897084 C124.238185,134.281938 132.272877,124.063168 137.038702,114.639738 C141.805045,105.216826 147.626663,107.834302 156.50019,107.678962 C165.374753,107.523622 167.940967,104.702651 171.211905,99.2445283 C174.483361,93.7864054 179.62252,93.3493828 179.62252,93.3493828" id="path32" fill="#B78B06"></path>
                        <g id="g34" transform="translate(64.983817, 67.883493)">
                            <g id="g36-Clipped">
                                <mask id="mask-2" fill="white">
                                    <use xlink:href="#path-1"></use>
                                </mask>
                                <g id="path38"></g>
                                <g id="g36" mask="url(#mask-2)" fill="#B78B06" fill-rule="nonzero">
                                    <g transform="translate(7.508090, -0.517799)" id="path42">
                                        <path d="M100.21126,20.9641419 L96.9853697,20.367637 C96.9853697,20.367637 98.2498357,16.9807115 99.1808389,15.1347569 C98.8437516,15.2833653 98.4926836,15.4117795 98.1297063,15.5117148 C95.9611626,16.1113265 93.8319718,16.1750158 93.4089297,13.0749511 C93.1199977,10.9550806 94.9012274,9.14537194 96.4986384,7.44284771 C98.7163729,5.07961152 97.1407095,4.02588987 97.137085,2.71171514 C97.137085,2.71171514 89.9536547,-3.60181221 74.7552085,3.20983811 C72.2335257,4.33967627 69.4601924,5.36957915 67.5272475,5.86459532 C63.8068592,6.81786391 61.0770211,7.40401276 57.0014225,8.56388328 C52.4230408,9.86666642 50.8976039,11.0757279 45.3654358,12.2485434 C39.674821,13.454498 32.0548859,14.0882844 21.5937859,12.7663427 C13.0190288,11.6825887 5.68750795,10.1612942 0.0398705492,8.75132664 C4.82744325,14.107443 10.7381227,21.7579283 14.920388,30.6915203 C21.6610998,45.0884131 21.6595464,58.9260827 21.4239477,63.6069887 C21.9101613,63.7954677 22.5377341,64.0020696 23.3273781,64.2034935 C25.8816822,64.8569563 30.2591578,65.4933317 37.2365039,65.1935259 C50.2954033,64.6322314 57.7983157,55.3444646 62.4507428,46.1462772 C65.0884126,40.93152 68.261487,38.6956625 72.2443995,38.0116495 C74.0846583,37.6952741 76.0088007,37.7263421 77.8873767,37.8029764 C79.713655,37.8775395 81.6963086,38.0116495 83.8658879,37.9733324 C91.774755,37.83508 93.7185737,35.587313 96.7005801,30.612297 C97.3664701,29.5005818 98.1032985,28.5638828 98.8675703,27.7742388 L96.2397387,27.4034945 L96.7031691,23.699158 C96.7031691,23.699158 98.8711949,22.6516499 99.7400622,21.8366338 C99.8985088,21.6875075 100.188994,21.2572163 100.21126,20.9641419"></path>
                                    </g>
                                </g>
                            </g>
                        </g>
                        <g id="g44" transform="translate(64.983817, 67.883493)">
                            <g id="g46-Clipped">
                                <mask id="mask-4" fill="white">
                                    <use xlink:href="#path-3"></use>
                                </mask>
                                <g id="path48"></g>
                                <g id="g46" mask="url(#mask-4)">
                                    <g transform="translate(7.508090, -0.517799)" id="g52-Clipped">
                                        <g>
                                            <mask id="mask-6" fill="white">
                                                <use xlink:href="#path-5"></use>
                                            </mask>
                                            <g id="path54"></g>
                                            <g id="g52" mask="url(#mask-6)" fill="#EDAE09" fill-rule="nonzero">
                                                <g transform="translate(25.889967, -10.200647)" id="path58">
                                                    <path d="M0.0170873782,4.12478954 L28.5328148,69.3732021 L86.0489299,55.0141087 C86.0489299,55.0141087 89.0412923,35.0762451 83.4428458,21.8350804 C77.8443993,8.59339784 63.4930728,0.0269255657 63.4930728,0.0269255657 L0.0170873782,4.12478954"></path>
                                                </g>
                                            </g>
                                        </g>
                                    </g>
                                </g>
                            </g>
                        </g>
                        <g id="g60" transform="translate(64.983817, 67.883493)">
                            <g id="g62-Clipped">
                                <mask id="mask-8" fill="white">
                                    <use xlink:href="#path-7"></use>
                                </mask>
                                <g id="path64"></g>
                                <g id="g62" mask="url(#mask-8)">
                                    <g transform="translate(7.508090, -0.517799)" id="g68-Clipped">
                                        <g>
                                            <mask id="mask-10" fill="white">
                                                <use xlink:href="#path-9"></use>
                                            </mask>
                                            <g id="path70"></g>
                                            <g id="g68" mask="url(#mask-10)">
                                                <g transform="translate(-18.640776, 4.556634)" id="g74-Clipped">
                                                    <g>
                                                        <mask id="mask-12" fill="white">
                                                            <use xlink:href="#path-11"></use>
                                                        </mask>
                                                        <g id="path76"></g>
                                                        <g id="g74" mask="url(#mask-12)" fill-rule="nonzero">
                                                            <g transform="translate(0.000000, -22.368931)">
                                                                <polyline id="path80" fill="#B78B06" points="1.05786405 26.0737858 30.8116497 99.7172791 29.7646595 100.139803 0.0108737861 26.4968278 1.05786405 26.0737858"></polyline>
                                                                <polyline id="path82" fill="#B88C06" points="2.09864072 25.6533327 31.8524264 99.2963082 30.8054361 99.7198681 1.05165046 26.0763748 2.09864072 25.6533327"></polyline>
                                                                <polyline id="path84" fill="#B98C06" points="3.1394174 25.2328796 32.8932031 98.8763729 31.8462128 99.2988972 2.09294493 25.6559217 3.1394174 25.2328796"></polyline>
                                                                <polyline id="path86" fill="#BA8D06" points="4.18019407 24.8124266 33.9339797 98.4554021 32.8869895 98.8784441 3.13320381 25.2354686 4.18019407 24.8124266"></polyline>
                                                                <polyline id="path88" fill="#BB8E06" points="5.22097074 24.3919735 34.9747564 98.034949 33.9277661 98.4579911 4.17449828 24.8150156 5.22097074 24.3919735"></polyline>
                                                                <polyline id="path90" fill="#BC8E06" points="6.26226522 23.9715204 36.0160509 97.6144959 34.9690606 98.037538 5.21527495 24.3945625 6.26226522 23.9715204"></polyline>
                                                                <polyline id="path92" fill="#BC8F06" points="7.30304189 23.5505496 37.0563098 97.1940429 36.0093195 97.6170849 6.25605162 23.9741094 7.30304189 23.5505496"></polyline>
                                                                <polyline id="path94" fill="#BD8F06" points="8.34381856 23.1306143 38.0976042 96.7735898 37.050614 97.1966319 7.2968283 23.5531386 8.34381856 23.1306143"></polyline>
                                                                <polyline id="path96" fill="#BE9006" points="9.38459523 22.7096434 39.1383809 96.3531367 38.0913906 96.775661 8.33760497 23.1332033 9.38459523 22.7096434"></polyline>
                                                                <polyline id="path98" fill="#BF9006" points="10.4253719 22.2897082 40.1791576 95.9326837 39.1321673 96.3552079 9.37838164 22.7122324 10.4253719 22.2897082"></polyline>
                                                                <polyline id="path100" fill="#C09106" points="11.4661486 21.8687373 41.2199342 95.5117128 40.172944 95.9347549 10.4191583 22.2917794 11.4661486 21.8687373"></polyline>
                                                                <polyline id="path102" fill="#C19206" points="12.5069253 21.4482843 42.2607109 95.0912598 41.2137207 95.5148196 11.459935 21.8713263 12.5069253 21.4482843"></polyline>
                                                                <polyline id="path104" fill="#C29206" points="13.5477019 21.0278312 43.3014876 94.6708067 42.2544973 95.0938488 12.5012295 21.4508733 13.5477019 21.0278312"></polyline>
                                                                <polyline id="path106" fill="#C39307" points="14.5884786 20.6073781 44.3422643 94.2503536 43.295274 94.6733957 13.5414883 21.0304202 14.5884786 20.6073781"></polyline>
                                                                <polyline id="path108" fill="#C39307" points="15.6297731 20.1864073 45.3830409 93.8299006 44.3365685 94.2529426 14.5827828 20.6099671 15.6297731 20.1864073"></polyline>
                                                                <polyline id="path110" fill="#C49407" points="16.6705497 19.766472 46.4238176 93.4089297 45.3773451 93.8319718 15.6235595 20.1889963 16.6705497 19.766472"></polyline>
                                                                <polyline id="path112" fill="#C59407" points="17.7113264 19.3455011 47.4651121 92.9884766 46.4181218 93.4115187 16.6643362 19.769061 17.7113264 19.3455011"></polyline>
                                                                <polyline id="path114" fill="#C69507" points="18.7521031 18.9255659 48.5058888 92.5680236 47.4588985 92.9910656 17.7051128 19.3480901 18.7521031 18.9255659"></polyline>
                                                                <polyline id="path116" fill="#C79607" points="19.7928798 18.504595 49.5466654 92.1480883 48.4996752 92.5706126 18.7458895 18.9276371 19.7928798 18.504595"></polyline>
                                                                <polyline id="path118" fill="#C89607" points="20.8336564 18.0841419 50.5874421 91.7271174 49.5404518 92.1501595 19.7866662 18.507184 20.8336564 18.0841419"></polyline>
                                                                <polyline id="path120" fill="#C99707" points="21.8744331 17.6636889 51.6282188 91.3066644 50.5817463 91.7297064 20.8274428 18.0867309 21.8744331 17.6636889"></polyline>
                                                                <polyline id="path122" fill="#C99707" points="22.9152098 17.2432358 52.6689954 90.8862113 51.6220052 91.3092534 21.8682195 17.6657601 22.9152098 17.2432358"></polyline>
                                                                <polyline id="path124" fill="#CA9807" points="23.9559865 16.8227828 53.7102899 90.4657583 52.6627819 90.8888003 22.909514 17.2458248 23.9559865 16.8227828"></polyline>
                                                                <polyline id="path126" fill="#CB9807" points="24.9967631 16.4023297 54.7505488 90.0447874 53.7040763 90.4678295 23.9497729 16.8248539 24.9967631 16.4023297"></polyline>
                                                                <polyline id="path128" fill="#CC9907" points="26.0380576 15.9813588 55.7913255 89.6248521 54.744853 90.0473764 24.9910673 16.4049187 26.0380576 15.9813588"></polyline>
                                                                <polyline id="path130" fill="#CD9907" points="27.0788343 15.5614236 56.8326199 89.2038813 55.7851119 89.6269233 26.031844 15.9839478 27.0788343 15.5614236"></polyline>
                                                                <polyline id="path132" fill="#CE9A07" points="28.1196109 15.1404527 57.8733966 88.7834282 56.8264063 89.2064703 27.0726207 15.5634948 28.1196109 15.1404527"></polyline>
                                                                <polyline id="path134" fill="#CF9B07" points="29.1603876 14.7199996 58.9136555 88.3634929 57.867183 88.7860172 28.1133974 15.1430417 29.1603876 14.7199996"></polyline>
                                                                <polyline id="path136" fill="#D09B07" points="30.2011643 14.2995466 59.95495 87.9425221 58.9079597 88.3655641 29.154174 14.7225886 30.2011643 14.2995466"></polyline>
                                                                <polyline id="path138" fill="#D09C07" points="31.241941 13.8790935 60.9957266 87.522069 59.9487364 87.9451111 30.1949507 14.3021356 31.241941 13.8790935"></polyline>
                                                                <polyline id="path140" fill="#D19C07" points="32.2827176 13.4581226 62.0365033 87.1016159 60.989513 87.5241402 31.2357274 13.8816825 32.2827176 13.4581226"></polyline>
                                                                <polyline id="path142" fill="#D29D07" points="33.3234943 13.0381874 63.07728 86.6811629 62.0302897 87.1042049 32.276504 13.4607116 33.3234943 13.0381874"></polyline>
                                                                <polyline id="path144" fill="#D39D08" points="34.364271 12.6172165 64.1180566 86.260192 63.0715842 86.6832341 33.3177985 13.0407764 34.364271 12.6172165"></polyline>
                                                                <polyline id="path146" fill="#D49E08" points="35.4050477 12.1967634 65.1588333 85.839739 64.1118431 86.262781 34.3580574 12.6198055 35.4050477 12.1967634"></polyline>
                                                                <polyline id="path148" fill="#D59E08" points="36.4463421 11.7763104 66.2001278 85.4192859 65.1526197 85.842328 35.3993519 12.1993524 36.4463421 11.7763104"></polyline>
                                                                <polyline id="path150" fill="#D69F08" points="37.486601 11.3558573 67.2403867 84.9988328 66.1939142 85.4218749 36.4401285 11.7788994 37.486601 11.3558573"></polyline>
                                                                <polyline id="path152" fill="#D69F08" points="38.5278955 10.9354043 68.2816811 84.5783798 67.2346909 85.0014218 37.4809052 11.3584463 38.5278955 10.9354043"></polyline>
                                                                <polyline id="path154" fill="#D7A008" points="39.5686721 10.5149512 69.3224578 84.1579267 68.2754675 84.5809688 38.5216819 10.9379933 39.5686721 10.5149512"></polyline>
                                                                <polyline id="path156" fill="#D8A108" points="40.6094488 10.0939803 70.3632345 83.7374736 69.3162442 84.1605157 39.5624586 10.5175402 40.6094488 10.0939803"></polyline>
                                                                <polyline id="path158" fill="#D9A108" points="41.6502255 9.67404507 71.4040112 83.3165028 70.3570209 83.7395448 40.6032352 10.0965693 41.6502255 9.67404507"></polyline>
                                                                <polyline id="path160" fill="#DAA208" points="42.6910022 9.2530742 72.4447878 82.8965675 71.3977976 83.3190918 41.6440119 9.67611626 42.6910022 9.2530742"></polyline>
                                                                <polyline id="path162" fill="#DBA208" points="43.7322966 8.83262114 73.4855645 82.4755966 72.4385742 82.8986387 42.6853064 9.2556632 43.7322966 8.83262114"></polyline>
                                                                <polyline id="path164" fill="#DCA308" points="44.7725555 8.41216807 74.526859 82.0551436 73.4793509 82.4781856 43.7255652 8.83469234 44.7725555 8.41216807"></polyline>
                                                                <polyline id="path166" fill="#DCA308" points="45.81385 7.99171501 75.5671179 81.6346905 74.5206454 82.0572148 44.7668597 8.41475707 45.81385 7.99171501"></polyline>
                                                                <polyline id="path168" fill="#DDA408" points="46.8541089 7.57126195 76.6078945 81.2142375 75.5614221 81.6372795 45.8076364 7.99378621 46.8541089 7.57126195"></polyline>
                                                                <polyline id="path170" fill="#DEA408" points="47.8954033 7.15080888 77.649189 80.7937844 76.6021987 81.2168264 46.8484131 7.57385094 47.8954033 7.15080888"></polyline>
                                                                <polyline id="path172" fill="#DFA508" points="48.93618 6.72983802 78.6899657 80.3733313 77.6429754 80.7963734 47.8891897 7.15288008 48.93618 6.72983802"></polyline>
                                                                <polyline id="path174" fill="#E0A508" points="49.9769567 6.30990275 79.7302245 79.9528783 78.6837521 80.3759203 48.9299664 6.73242702 49.9769567 6.30990275"></polyline>
                                                                <polyline id="path176" fill="#E1A608" points="51.0177334 5.88893189 80.771519 79.5319074 79.7245288 79.9549495 49.9707431 6.31145615 51.0177334 5.88893189"></polyline>
                                                                <polyline id="path178" fill="#E2A609" points="52.05851 5.46899663 81.8122957 79.1114543 80.7658232 79.5344964 51.0120376 5.89152089 52.05851 5.46899663"></polyline>
                                                                <polyline id="path180" fill="#E2A709" points="53.0992867 5.04802576 82.8530724 78.6910013 81.8060821 79.1140433 52.0522964 5.47055003 53.0992867 5.04802576"></polyline>
                                                                <polyline id="path182" fill="#E3A809" points="54.1405812 4.6275727 83.8943668 78.2705482 82.8468588 78.6935903 53.0930731 5.05061476 54.1405812 4.6275727"></polyline>
                                                                <polyline id="path184" fill="#E4A809" points="55.18084 4.20711964 84.9346257 77.8500951 83.8881532 78.2726194 54.1343676 4.6296439 55.18084 4.20711964"></polyline>
                                                                <polyline id="path186" fill="#E5A909" points="56.2216167 3.78614877 85.9754024 77.4296421 84.9289299 77.8521663 55.1751443 4.20919083 56.2216167 3.78614877"></polyline>
                                                                <polyline id="path188" fill="#E6A909" points="57.2629112 3.36569571 87.0166969 77.0086712 85.9691888 77.4322311 56.2154031 3.78873777 57.2629112 3.36569571"></polyline>
                                                                <polyline id="path190" fill="#E7AA09" points="58.3036879 2.94524264 88.0574735 76.5887359 87.0104833 77.011778 57.2566976 3.36828471 58.3036879 2.94524264"></polyline>
                                                                <polyline id="path192" fill="#E8AA09" points="59.3444645 2.52478958 89.0982502 76.1677651 88.0512599 76.5908071 58.2974743 2.94783164 59.3444645 2.52478958"></polyline>
                                                                <polyline id="path194" fill="#E9AB09" points="60.3852412 2.10376694 90.1390269 75.747312 89.0920366 76.1703541 59.3387687 2.52737858 60.3852412 2.10376694"></polyline>
                                                                <polyline id="path196" fill="#E9AB09" points="61.4260179 1.68388345 91.1798035 75.326859 90.1328133 75.749901 60.3790276 2.10640771 61.4260179 1.68388345"></polyline>
                                                                <polyline id="path198" fill="#EAAC09" points="62.4673124 1.26296437 92.2205802 74.9064059 91.17359 75.329448 61.4198043 1.68647245 62.4673124 1.26296437"></polyline>
                                                                <polyline id="path200" fill="#EBAC09" points="63.5075712 0.843029105 93.2613569 74.4859528 92.2143666 74.9089949 62.460581 1.26555337 63.5075712 0.843029105"></polyline>
                                                                <polyline id="path202" fill="#ECAD09" points="64.5483479 0.421902902 94.3021336 74.0654998 93.2556611 74.488024 63.5018754 0.845048523 64.5483479 0.421902902"></polyline>
                                                                <polyline id="path204" fill="#EDAD09" points="65.5896424 0.00160517795 95.343428 73.6450467 94.29592 74.067571 64.5421343 0.424543679 65.5896424 0.00160517795"></polyline>
                                                            </g>
                                                        </g>
                                                    </g>
                                                </g>
                                            </g>
                                        </g>
                                    </g>
                                </g>
                            </g>
                        </g>
                        <g id="g206" transform="translate(64.983817, 67.883493)">
                            <g id="g208-Clipped">
                                <mask id="mask-14" fill="white">
                                    <use xlink:href="#path-13"></use>
                                </mask>
                                <g id="path210"></g>
                                <g id="g208" mask="url(#mask-14)">
                                    <g transform="translate(7.508090, -0.517799)" id="g214-Clipped">
                                        <g>
                                            <mask id="mask-16" fill="white">
                                                <use xlink:href="#path-15"></use>
                                            </mask>
                                            <g id="path216"></g>
                                            <g id="g214" mask="url(#mask-16)" fill="#B78B06" fill-rule="nonzero">
                                                <g transform="translate(78.446600, -5.592233)">
                                                    <path d="M14.9566339,9.76051756 C14.9566339,9.76051756 8.48932018,8.36090594 5.09255651,12.2102262 C2.83754038,14.7645304 0.00051779934,14.8385757 0.00051779934,14.8385757 C0.00051779934,14.8385757 2.89035591,13.364401 3.96996754,9.93708713 C4.7829125,7.35326842 10.4579933,0.0321035591 10.4579933,0.0321035591 L21.3001936,3.50343033 L14.9566339,9.76051756" id="path220"></path>
                                                    <path d="M25.9666013,8.44220044 C25.9666013,8.44220044 27.5137857,9.99974085 22.9587049,12.8952748 C18.4036241,15.7908087 24.1599994,15.6442715 21.4462131,20.0414234 C20.5131386,21.5533975 13.8966987,23.6530738 6.25398043,23.5422648 C10.1566341,22.4233004 11.8192877,20.672103 13.5285434,17.5269899 C14.3565045,16.0036242 14.2798702,14.726731 18.8354688,11.8306793 C23.3900318,8.93514541 25.4343036,7.16168267 25.4343036,7.16168267 L25.9666013,8.44220044" id="path222"></path>
                                                </g>
                                            </g>
                                        </g>
                                    </g>
                                </g>
                            </g>
                        </g>
                        <g id="g224" transform="translate(64.983817, 67.883493)">
                            <g id="g226-Clipped">
                                <mask id="mask-18" fill="white">
                                    <use xlink:href="#path-17"></use>
                                </mask>
                                <g id="path228"></g>
                                <g id="g226" mask="url(#mask-18)" fill="#B78B06" fill-rule="nonzero">
                                    <g transform="translate(75.132684, -1.708738)">
                                        <path d="M33.5777338,0.643624579 C33.5777338,0.643624579 37.2592871,6.87637523 33.8371513,9.05165026 C30.4150154,11.2269253 27.6903553,7.79754026 22.0256305,11.9735919 C20.9770869,12.7466663 18.5273782,14.7210352 15.1663427,15.3196113 C17.0133329,13.9433006 18.4455659,12.2837537 19.580582,10.1001939 C20.1817471,8.9449836 22.0209703,5.75999986 24.5291903,5.16660181 C28.4753391,4.2335274 28.0507436,0.0440129439 28.0507436,0.0440129439 L33.5777338,0.643624579" id="path232"></path>
                                        <path d="M0.00414239472,5.93190924 L0.259417469,6.95145614 C0.259417469,6.95145614 3.12025882,6.18666651 8.37851112,5.82938497 C12.0253719,5.58187688 12.0046599,6.08932024 15.8855659,5.62588983 C19.7669898,5.16142382 22.2710674,1.3369579 22.2710674,1.3369579 L5.47158562,1.43844657 L0.00414239472,5.93190924" id="path234"></path>
                                        <path d="M33.4317144,29.345242 C33.4317144,29.345242 31.0472484,28.3303553 27.8819411,29.5409701 C26.0359864,30.2467306 23.6375399,31.6774102 23.6375399,31.6774102 C23.6375399,31.6774102 27.7820058,23.9565043 33.4969571,21.7377341 C35.6598049,20.8983814 33.4317144,29.345242 33.4317144,29.345242" id="path236"></path>
                                        <path d="M32.6280898,22.1680253 C32.6280898,22.1680253 31.407119,21.8288668 29.6233002,22.251391 C27.7105495,22.7044655 26.9928796,23.0027179 26.9928796,23.0027179 C26.9928796,23.0027179 27.7276368,22.2907438 28.8088019,20.8740448 C29.9945624,19.3211646 31.1233649,17.273786 31.1233649,17.273786 L31.848284,20.9366985 L32.6280898,22.1680253" id="path238"></path>
                                    </g>
                                </g>
                            </g>
                        </g>
                        <path d="M44.8855393,44.0325685 L90.9286709,143.117666 C90.9286709,143.117666 91.6986385,144.162068 93.8034928,143.599738 C95.712619,143.090223 95.395208,141.233395 95.395208,141.233395 L54.0261475,42.5889957 L53.1479598,45.5627173 L50.4265618,42.5900313 L49.9858628,44.6349245 L48.1551315,43.5163743 L48.1456558,46.0977076 L44.8855393,44.0325685" id="path240" fill="#B78B06" fill-rule="nonzero"></path>
                        <g id="g242" transform="translate(44.841423, 42.563106)">
                            <g id="g244-Clipped">
                                <mask id="mask-20" fill="white">
                                    <use xlink:href="#path-19"></use>
                                </mask>
                                <g id="path246"></g>
                                <g id="g244" mask="url(#mask-20)">
                                    <g transform="translate(-48.776698, -98.071195)">
                                        <path d="M49.8029761,90.6543408 L95.846729,196.175011 C95.846729,196.175011 96.5250461,197.754817 98.7210331,197.058895 C100.556114,196.477924 100.312748,194.914688 100.312748,194.914688 L58.9436878,90.4880754 L58.0655002,93.338975 L55.3442575,89.9862243 L54.9035067,91.9694475 L53.0728272,90.5952599 L53.0635068,93.1749362 L49.8029761,90.6543408" id="path250" fill="#EDAE09" fill-rule="nonzero"></path>
                                        <path d="M91.8384443,194.392228 C91.9135252,194.483879 92.0279589,194.612293 92.1703537,194.733458 C92.3800624,194.910545 92.6695122,195.107827 93.0490592,195.266273 C93.8299006,195.593523 94.8535899,195.703814 96.1242694,195.364655 C97.5642694,194.980448 98.2679587,194.013717 98.540839,193.110675 C98.667182,192.690222 98.6966966,192.306532 98.6966966,192.031581 C98.6966966,191.713134 98.6226513,191.312875 98.6226513,191.312875 L56.9092542,93.0774863 L45.7578759,93.35192 L91.6660171,194.159218 C91.6660171,194.159218 91.7535252,194.289186 91.8384443,194.392228 Z M91.6784443,193.607244 L44.5942772,90.2680107 L54.638963,90.0210204 L97.573072,191.166856 C97.573072,191.166856 97.6222629,191.431452 97.6222629,191.695011 C97.6222629,191.93061 97.596373,192.256306 97.4902241,192.609445 C97.2665348,193.34938 96.6974733,194.153523 95.4620041,194.483361 C94.267441,194.801807 93.3690592,194.683749 92.7300948,194.416047 C92.4168262,194.285044 92.1832987,194.125044 92.0207097,193.986791 C91.8223925,193.819024 91.6784443,193.607244 91.6784443,193.607244 Z" id="path252" fill="#B78B06" fill-rule="evenodd"></path>
                                        <path d="M89.5306126,188.778248 C89.6056936,188.869898 89.7201272,188.997795 89.8630398,189.11896 C90.0722308,189.296565 90.3621984,189.493846 90.7412275,189.652293 C91.5225867,189.979542 92.546276,190.089833 93.8164378,189.750675 C95.2569555,189.366468 95.9601271,188.399736 96.2330073,187.496177 C96.3598681,187.076241 96.3893827,186.692552 96.3893827,186.417601 C96.3893827,186.099154 96.3153374,185.698895 96.3153374,185.698895 L68.3474417,119.019285 L67.3693187,119.043622 L95.2657581,185.553393 C95.2657581,185.553393 95.3149491,185.816953 95.3144313,186.080513 C95.3144313,186.31663 95.2890591,186.642325 95.1823924,186.995465 C94.9592209,187.7354 94.3896417,188.539542 93.1546902,188.86938 C91.9601272,189.187827 91.0617453,189.069769 90.4227809,188.802066 C90.1095123,188.671063 89.8759848,188.511063 89.7133958,188.372811 C89.5150787,188.204526 89.3711305,187.993264 89.3711305,187.993264 L57.4612283,119.286987 L57.1955973,119.293201 L89.3587033,188.545238 C89.3587033,188.545238 89.4462114,188.675206 89.5306126,188.778248" id="path254" fill="#B78B06" fill-rule="nonzero"></path>
                                        <path d="M59.2248529,127.697602 C59.3620697,127.864333 59.5717784,128.099414 59.8327493,128.321032 C60.215403,128.64621 60.7461473,129.006081 61.4399985,129.296566 C62.8696424,129.89566 64.7440761,130.097602 67.0684773,129.476761 C69.7051115,128.773071 70.9918429,127.004786 71.4910014,125.350935 C71.7229756,124.582521 71.7768267,123.880385 71.7768267,123.376566 C71.7773445,122.793524 71.6411633,122.061874 71.6411633,122.061874 L20.4559218,0.0264077663 L18.6652681,0.0704207102 L69.7206455,121.794172 C69.7206455,121.794172 69.8102248,122.277796 69.8102248,122.760385 C69.8102248,123.191712 69.7631051,123.788217 69.5684125,124.433913 C69.1598688,125.787958 68.1175388,127.259544 65.8568268,127.863298 C63.6701602,128.446858 62.0266651,128.230418 60.8574742,127.740579 C60.2837525,127.50032 59.8565681,127.207764 59.5583157,126.95456 C59.1958561,126.646987 58.9322963,126.260191 58.9322963,126.260191 L0.532566977,0.516763741 L0.0465190927,0.528155327 L58.9100309,127.270935 C58.9100309,127.270935 59.0695131,127.508605 59.2248529,127.697602" id="path256" fill="#B78B06" fill-rule="nonzero"></path>
                                    </g>
                                </g>
                            </g>
                        </g>
                        <path d="M120.646728,115.017732 C120.592877,115.119738 120.535919,115.224334 120.484139,115.332036 C120.344334,115.62045 120.009835,116.021745 119.584722,116.409059 C119.397279,116.58045 119.21812,116.725952 119.075725,116.830029 C119.097473,116.823816 120.002068,120.062651 120.002068,120.062651 C120.404916,119.954431 121.400126,120.062651 121.400126,120.062651 C124.153266,119.324787 128.476372,116.981745 130.687893,111.804269 L131.024981,111.014107 L130.581227,110.278314 C127.925951,105.879091 125.140709,100.939803 122.640256,96.1672468 C123.289576,96.3381206 123.968929,96.4535898 124.664333,96.5069232 C125.399609,96.5571497 126.147311,96.5861465 126.906405,96.5530073 C127.450612,96.5732015 128.001032,96.5742371 128.557149,96.5390267 C128.698508,96.5302241 128.850223,96.5328131 129.002974,96.5271173 C129.209576,96.5193503 129.527505,96.4991562 129.869252,96.4069879 L131.83223,95.8772792 L130.938508,94.0504831 C129.702521,91.5231045 127.381744,86.6620043 125.680256,83.0311953 L124.996761,81.5735902 L123.598702,81.5735902 L122.114172,82.1965028 C121.228217,82.5677649 120.336567,82.9499008 119.442327,83.3418749 C116.270806,84.7311306 112.06058,85.35715 107.530871,85.4902244 L105.053719,85.5627163 L106.041162,87.8358554 C109.781745,96.4411626 115.946664,107.608541 120.646728,115.017732" id="path258" fill="#B78B06" fill-rule="nonzero"></path>
                        <path d="M122.044787,115.017732 C121.990935,115.119738 121.93346,115.224334 121.882198,115.332036 C121.742392,115.62045 121.407893,116.021745 120.98278,116.409059 C120.794819,116.58045 120.61566,116.725952 120.473266,116.830029 C120.495531,116.823816 120.576825,116.850741 120.653978,116.794301 L121.400126,120.062651 C124.153266,119.324787 128.476372,116.981745 130.687893,111.804269 L131.024981,111.014107 L130.581227,110.278314 C127.799608,105.6699 124.875078,100.468088 122.284528,95.4868585 C122.532036,95.6308067 122.790935,95.7555963 123.05812,95.859674 C123.989123,96.2019393 125.00867,96.4261465 126.062392,96.5069232 C126.878961,96.5628455 127.7121,96.59236 128.557149,96.5390267 C128.698508,96.5302241 128.850223,96.5328131 129.002974,96.5271173 C129.209576,96.5193503 129.527505,96.4991562 129.869252,96.4069879 L131.83223,95.8772792 L130.938508,94.0504831 C129.702521,91.5231045 127.381744,86.6620043 125.680256,83.0311953 L124.996761,81.5735902 L123.51223,82.1965028 C122.626275,82.5677649 121.735143,82.9499008 120.840385,83.3418749 C117.668864,84.7311306 113.458638,85.35715 108.928929,85.4902244 L106.451259,85.5627163 L107.439221,87.8358554 C111.179285,96.4411626 117.344722,107.608541 122.044787,115.017732" id="path260" fill="#B78B06"></path>
                        <path d="M129.144851,111.145628 C125.133977,104.500709 120.830029,96.6322306 117.63935,89.9438165 C118.187182,89.6714541 118.761939,89.5409686 119.276114,89.6657583 C119.71469,89.7827809 120.10977,89.9552081 120.416308,90.2094476 C120.551453,90.3249168 120.784463,90.4460819 120.845046,90.6050463 C121.198702,91.3548197 121.554431,92.0994152 121.911712,92.8398682 C122.274172,93.4917776 122.864463,93.9852404 123.651518,94.2902242 C124.433395,94.5781206 125.279479,94.7640106 126.183557,94.8333957 C126.928152,94.88414 127.681032,94.9136546 128.452036,94.8649814 C128.760126,94.8453051 129.117926,94.8722306 129.431712,94.7873115 C128.192618,92.2542372 125.866664,87.3817454 124.161032,83.7436872 C123.283363,84.1118426 122.399997,84.4898361 121.513524,84.8787034 C118.053071,86.394302 113.592748,87.0322308 108.97812,87.1673765 C112.784981,95.9275057 119.128023,107.363104 123.830677,114.696696 C123.955984,115.108864 123.635466,115.558314 123.392618,116.061615 C122.835984,117.215272 121.304851,118.355466 121.097214,118.412424 L121.187311,118.395855 C123.544333,117.764139 127.173589,115.760256 129.144851,111.145628" id="path262" fill="#FFFFFF"></path>
                        <path d="M156.822779,66.6221343 C156.822779,66.6221343 154.572423,69.34783 149.089446,69.7807102 C145.159867,70.090872 144.729576,70.3155969 144.729576,70.3155969 L150.67909,71.2248526 L154.747439,70.5097717 C154.747439,70.5097717 156.57786,70.0333963 156.920126,67.8374093 C157.018507,67.2051763 156.822779,66.6221343 156.822779,66.6221343" id="path264" fill="#B78B06" fill-rule="nonzero"></path>
                        <path d="M152.831064,57.6838821 C152.831064,57.6838821 121.608282,3.26375655 119.121809,3.18850995 L17.9769575,3.18649054 L38.8753906,50.4300311 C39.0497337,50.7708466 39.4629893,51.5240893 40.0728016,52.2190278 C40.2449181,52.414756 40.5032482,52.6974744 40.8456689,53.0620051 C42.0267174,54.3155973 43.4694617,55.2823287 44.8616688,56.0460827 C47.04207,57.2411636 49.5198434,57.7128788 51.7949502,57.7791571 L152.831064,57.6838821" id="path266" fill="#1B5C28" fill-rule="nonzero"></path>
                        <path d="M185.515594,68.7166326 L164.351582,20.5406338 C164.162067,20.2957147 163.896954,19.968828 163.544332,19.5489445 C162.336307,18.1089963 160.805692,16.9937083 159.310287,16.1108604 C156.977083,14.7344462 154.293329,14.2016825 151.807375,14.1266016 L137.642456,14.1249964 L136.272359,10.9923104 C136.149641,10.7489965 135.809964,10.0831065 135.332553,9.46174734 C135.163233,9.24111304 134.907958,8.92271822 134.567246,8.51313895 C133.361291,7.06330079 131.824981,5.96199338 130.353913,5.10760376 C128.035725,3.76132547 125.373719,3.257486 122.924528,3.18709636 L101.165046,3.18507177 L106.052036,14.1249964 L105.735143,14.1249964 L93.1417452,14.1452424 L86.0313247,15.3398054 C84.0869882,14.5097213 81.9935255,14.1624333 80.0238168,14.1037666 L4.89300182,14.1240126 L25.7916887,61.3675066 C25.9660317,61.7087363 26.3792356,62.4621344 26.9890996,63.1565033 C27.1612161,63.3527492 27.4192873,63.6354677 27.7619152,63.9994806 C28.9431708,65.2535906 30.3855009,66.220322 31.7779151,66.9835582 C33.9585234,68.1791569 36.4360897,68.6508721 38.7113518,68.7166326 L185.515594,68.7166326" id="path268" fill="#1B5C28" fill-rule="nonzero"></path>
                        <path d="M133.299155,38.1877013 L145.700967,38.1877013 L155.403491,60.1315195 C155.484786,60.2899661 155.661355,60.6042703 155.960126,60.9444645 C156.10977,61.1153383 156.335012,61.3602574 156.633265,61.6776684 C157.396501,62.4875065 158.419155,63.2015518 159.598184,63.8482832 C161.034559,64.635856 162.736048,65.0071181 164.541614,65.058898 L179.642714,64.9915841 L162.055659,24.4898894 L162.0743,24.5881677 C161.977472,24.3359476 161.82265,24.0398699 161.572035,23.7178505 C161.418766,23.5204137 161.187828,23.2368667 160.879737,22.8691256 C160.095789,21.9350674 159.009964,21.1086079 157.741355,20.359404 C156.197278,19.4490092 154.335789,19.0244655 152.332941,18.9637795 L135.56867,18.9633652 L132.428217,11.6169317 C132.349511,11.4609706 132.199867,11.1771648 131.963751,10.8701615 C131.816696,10.67899 131.596113,10.4047117 131.30045,10.0489318 C130.534107,9.12823278 129.46278,8.32362439 128.220579,7.60072473 C126.697731,6.71684126 124.852812,6.31150793 122.863945,6.25444645 L107.715725,6.25403221 L115.246081,23.4486467 C114.473007,22.5707697 112.751324,21.0904331 111.547958,20.3794429 C110.003363,19.4692552 108.142392,19.0447115 106.139544,18.9846468 L90.678056,18.9836112 L108.700062,60.2972153 C108.396632,60.5550794 108.279609,60.561293 108.011907,60.6203221 C107.536567,60.4991571 106.943687,60.2355972 106.150418,59.6991571 C105.626923,59.3449823 105.081162,58.7236231 104.588217,57.6662769 L90.2218748,24.4168796 L90.2415511,24.5167631 C90.1442049,24.2641806 89.9867939,23.9638052 89.7299654,23.6369185 C89.5766968,23.4417599 89.3467939,23.1622001 89.0397389,22.799171 C88.2568263,21.8754169 87.1772146,21.059883 85.9163733,20.3199995 C84.3810982,19.420116 82.5351436,19.000595 80.5504187,18.9415659 L55.044141,18.9411516 L56.1651766,21.4498377 C55.565565,20.9822131 54.8774096,20.5499542 54.1291896,20.1444137 C52.6415521,19.339184 50.8719728,18.9637795 48.9726849,18.9110157 L33.5788729,18.9106015 L35.0032354,22.1446208 C34.3161156,21.5000124 33.483805,20.9092034 32.553216,20.359404 C31.0090866,19.4490092 29.1476498,19.0244655 27.145009,18.9637795 L12.0078702,18.9633652 L30.2156109,60.1315195 C30.2966983,60.2899661 30.4733196,60.6042703 30.7720381,60.9444645 C30.9221481,61.1153383 31.1466659,61.3602574 31.4453843,61.6776684 C32.2081545,62.4875065 33.2309636,63.2015518 34.4101998,63.8482832 C35.8466787,64.635856 37.5483227,65.0071181 39.3537854,65.058898 L54.4548854,64.9915841 L53.1805812,62.0577331 C53.8806459,62.6739143 54.7303546,63.2305486 55.6774096,63.7431699 C57.1712607,64.5524903 58.9297073,64.9190922 60.8196749,64.953267 L133.877537,65.0252411 L132.393006,61.6005163 C133.240644,62.5087363 134.265887,63.2274418 135.448023,63.874691 C136.893718,64.6664062 138.595725,65.0267945 140.408022,65.0594158 L155.402973,64.924788 L145.199737,41.8521672 L134.921938,41.8521672 L133.299155,38.1877013 Z M120.397149,35.818148 L124.758055,45.5902125 L115.027052,45.5902125 L110.671842,35.818148 L120.397149,35.818148 Z" id="path270" fill="#FFFFFF" fill-rule="nonzero"></path>
                        <path d="M128.416307,26.1332809 L132.823815,36.0631188 L144.493459,36.0631188 C144.350547,36.0464975 143.993265,35.9642192 143.419543,35.8161286 C142.698767,35.6298761 141.878055,35.2170347 140.95689,34.5766723 C140.035207,33.9364652 139.254365,32.9456044 138.612294,31.6027435 L136.753395,27.2481547 L130.481291,12.4670547 C130.48388,12.4168799 130.212553,12.063689 129.666793,11.4071712 C129.120515,10.7506017 128.282715,10.0944463 127.153395,9.43792857 C126.023039,8.78198036 124.584075,8.42821985 122.833913,8.3780451 L110.991842,8.3780451 L115.139415,18.1136565 L122.414495,18.1136565 L121.140191,15.5651517 C121.140191,15.5651517 122.405693,15.5634948 122.919867,15.6779802 C123.432489,15.7912747 123.973071,16.2144203 124.539544,16.9456048 L126.18511,21.0873781 L116.148606,21.0873781 L133.195078,59.2807752 C133.197667,59.3273772 133.475725,59.6473771 134.029252,60.2407752 C134.58278,60.8336554 135.395207,61.4244645 136.468605,62.0121667 C137.540967,62.5988334 138.857213,62.906924 140.417861,62.935403 L152.153783,62.8297719 L143.816178,43.9761284 L136.22265,43.9761284 L143.179802,59.5981862 L142.223427,59.5981862 C142.170094,59.6251118 141.86511,59.572814 141.30744,59.4397396 C140.74977,59.3077008 140.257861,58.9374743 139.833265,58.3280244 L125.06977,24.8584071 L126.026664,24.8584071 C126.072748,24.8325172 126.365304,24.8849185 126.902262,25.0179929 C127.440256,25.1510673 127.944592,25.5228473 128.416307,26.1332809 Z M127.349641,55.3077009 L119.648929,55.3077009 L121.720126,59.6851765 L120.817602,59.6851765 C120.773071,59.7162445 120.463945,59.6546263 119.888152,59.5003221 C119.312877,59.3465357 118.73812,58.9162445 118.162327,58.2089306 L115.560385,51.9616815 L125.278443,51.9616815 L123.419544,47.7141736 L113.64867,47.7141736 L103.398832,24.7186531 L104.355208,24.7186531 C104.401292,24.6943683 104.693331,24.7570738 105.231324,24.9051126 C105.769318,25.0538246 106.273137,25.4338376 106.744334,26.0473262 L110.196502,33.6937726 L117.525434,33.6937726 L113.913784,25.3565819 C113.915337,25.3038181 113.63003,24.9366984 113.058379,24.2558441 C112.486729,23.5728149 111.623557,22.8920124 110.468347,22.2089315 C109.312619,21.5281289 107.859156,21.1610092 106.107959,21.1079865 L93.9215511,21.1079865 L110.727764,59.6328788 C110.97113,60.5866652 110.815272,61.2981214 110.261227,61.7698366 C109.708217,62.2399984 109.103428,62.550678 108.449447,62.6987687 L107.991713,62.8002573 L107.44647,62.6687363 C106.71223,62.4859531 105.883234,62.0831052 104.960515,61.4581214 C104.037279,60.8341732 103.271454,59.8695131 102.663557,58.5636231 L88.2718425,25.2592874 C88.2728781,25.2075075 87.9880884,24.8450479 87.4185091,24.1719088 C86.8478943,23.4987696 85.9899008,22.8260447 84.8419396,22.1524914 C83.6934607,21.4787826 82.2529429,21.1168927 80.5183151,21.0651127 L58.3202574,21.0651127 L77.0288654,62.912102 C77.0661469,62.9126198 83.4873766,62.9281538 84.5167616,62.912102 L67.5070533,24.6757793 C67.5070533,24.6757793 68.6394805,24.6432097 69.0677005,24.7155981 C69.4954028,24.7886078 70.0732669,25.199844 70.8002571,25.9490479 L87.1932664,62.912102 C87.2300302,62.9126198 93.6528132,62.9291894 94.6811627,62.912102 L77.8630401,24.6757793 C77.8630401,24.6757793 78.9954673,24.6432097 79.4231695,24.7155981 C79.8508718,24.7886078 80.4287359,25.199844 81.1552083,25.9490479 L97.3535251,62.912102 L130.642327,62.9022638 L127.349641,55.3077009 Z M53.2981216,59.0601927 C53.299675,59.1073124 53.5855003,59.4371506 54.1561152,60.0491894 C54.7256944,60.6607105 55.5702251,61.2696425 56.6891895,61.8754677 C57.8081539,62.4818107 59.1911959,62.7992217 60.8388334,62.8297719 L73.0003865,62.8292541 L65.7781213,46.622549 L58.2368917,46.622549 L64.0787039,59.5899014 C64.0787039,59.5899014 62.9457589,59.6328788 62.5123609,59.570225 C62.0789628,59.5080891 61.4855648,59.0907429 60.7326846,58.3192218 L54.4129436,44.0299277 L64.8222638,44.0299277 L56.484141,24.8056434 C56.484141,24.7584719 56.2024581,24.4328279 55.6390925,23.8270544 C55.0757268,23.222679 54.2348207,22.6175269 53.1174097,22.0127373 C51.9989631,21.4073781 50.6086201,21.0817341 48.9433774,21.0349768 L36.8355719,21.0349768 L43.8984584,37.0728276 L51.38651,37.0728276 L45.7044908,24.2744848 C45.7044908,24.2744848 46.8792221,24.2309897 47.2975522,24.294679 C47.7156234,24.3577987 48.29996,24.7750932 49.0495781,25.5487372 L55.1570213,39.6215395 L45.0141607,39.6215395 L53.2981216,59.0601927 Z M24.457734,24.6996499 C24.457734,24.6996499 25.5897987,24.6664589 26.0176045,24.7388991 C26.4454103,24.8114945 27.0232744,25.2230932 27.7500058,25.9716757 L42.6195459,59.6960503 C42.6195459,59.6960503 41.4866527,59.7286716 41.0529957,59.6561797 C40.619753,59.58317 40.0265103,59.1725552 39.2736819,58.4238173 L24.457734,24.6996499 Z M32.1581869,59.2724904 C32.1607759,59.3165034 32.4385235,59.6333966 32.9918956,60.2221344 C33.5455267,60.8093189 34.3584199,61.3975389 35.4310412,61.985759 C36.5034554,62.5734612 37.8199602,62.8903544 39.3798307,62.935403 L51.2226783,62.935403 L34.919093,25.3353521 C34.920491,25.2831579 34.6353389,24.9160382 34.0643098,24.2346143 C33.4920898,23.552569 32.6288665,22.8717664 31.4735008,22.1887373 C30.3181869,21.507883 28.8642582,21.1401936 27.1130608,21.0873781 L15.2702132,21.0873781 L32.1581869,59.2724904 Z M157.346274,59.2724904 C157.348863,59.3165034 157.626922,59.6333966 158.179931,60.2221344 C158.733977,60.8093189 159.546404,61.3975389 160.618766,61.985759 C161.691646,62.5734612 163.00841,62.8903544 164.568022,62.935403 L176.41061,62.8820696 L160.10718,25.3353521 C160.108734,25.2831579 159.823426,24.9160382 159.252294,24.2346143 C158.680125,23.552569 157.816954,22.8717664 156.661744,22.1887373 C155.506016,21.507883 154.052553,21.1407632 152.301355,21.0873781 L140.458249,21.0873781 L157.346274,59.2724904 Z M150.235854,24.6996499 C150.235854,24.6996499 151.367763,24.6664589 151.795465,24.7388991 C152.223168,24.8114945 152.80155,25.2230932 153.528022,25.9716757 L168.397666,59.6960503 C168.397666,59.6960503 167.264721,59.7286716 166.831323,59.6561797 C166.397407,59.58317 165.804527,59.1725552 165.051646,58.4238173 L150.235854,24.6996499 Z" id="path272" fill="#B78B06" fill-rule="nonzero"></path>
                        <g id="g274" transform="translate(15.223301, 8.336569)">
                            <g id="g276-Clipped">
                                <mask id="mask-22" fill="white">
                                    <use xlink:href="#path-21"></use>
                                </mask>
                                <g id="path278"></g>
                                <g id="g276" mask="url(#mask-22)" fill="#EDAE09" fill-rule="nonzero">
                                    <g transform="translate(1.190938, 0.000000)" id="path282">
                                        <path d="M113.181615,17.7967115 L117.589123,27.7265495 L129.259285,27.7265495 C129.11689,27.7099281 128.758573,27.6276498 128.185369,27.4795592 C127.464592,27.2933068 126.64388,26.8804653 125.722198,26.2401029 C124.80155,25.5998958 124.020191,24.609035 123.378638,23.2661742 L121.51922,18.9115853 L115.247117,4.13048533 C115.249706,4.08031058 114.978379,3.72711965 114.432618,3.07060186 C113.886858,2.4140323 113.048541,1.75787698 111.919221,1.1013592 C110.788865,0.445410992 109.3499,0.0916504831 107.599221,0.0414757271 L95.7576675,0.0414757271 L99.905758,9.77708713 L107.180321,9.77708713 L105.905499,7.22858234 C105.905499,7.22858234 107.172036,7.22692539 107.685175,7.34141082 C108.198314,7.45470532 108.738897,7.87785094 109.305369,8.60903538 L110.951454,12.7508087 L100.914431,12.7508087 L117.961421,50.9442058 C117.96401,50.9908078 118.24155,51.3108078 118.795078,51.9042058 C119.348088,52.4970861 120.161033,53.0878951 121.233913,53.6755974 C122.306793,54.262264 123.622521,54.5703546 125.183686,54.5988336 L136.919608,54.4932025 L128.582003,35.639559 L120.988476,35.639559 L127.94511,51.2616168 L126.988735,51.2616168 C126.936437,51.2885424 126.630935,51.2362447 126.073783,51.1031702 C125.516113,50.9711314 125.023686,50.6009049 124.599091,49.9914551 L109.835596,16.5218378 L110.791971,16.5218378 C110.838573,16.4959478 111.130612,16.5483491 111.668088,16.6814235 C112.206081,16.814498 112.710418,17.1862779 113.181615,17.7967115 Z M112.115984,46.9711315 L104.415272,46.9711315 L106.48647,51.3486071 L105.583428,51.3486071 C105.538897,51.3796751 105.229771,51.318057 104.653978,51.1637528 C104.078703,51.0099664 103.503428,50.5796751 102.927635,49.8723612 L100.326211,43.6251122 L110.044787,43.6251122 L108.185369,39.3776042 L98.4150137,39.3776042 L88.164658,16.3820837 L89.1210334,16.3820837 C89.1671175,16.3577989 89.4596741,16.4205044 89.9971499,16.5685433 C90.5351434,16.7172552 91.0394799,17.0972682 91.5106773,17.7107568 L94.9628455,25.3572032 L102.29126,25.3572032 L98.6796092,17.0200125 C98.6811626,16.9672488 98.3963729,16.600129 97.8236869,15.9192747 C97.253072,15.2362456 96.3899005,14.555443 95.2336546,13.8723621 C94.078962,13.1915595 92.6244637,12.8244398 90.8732663,12.7714172 L78.6796097,12.7714172 L95.4935898,51.2963094 C95.7364377,52.2500958 95.5810979,52.9615521 95.0275704,53.4332673 C94.4740429,53.9034291 93.8692533,54.2141087 93.2157905,54.3621993 L92.7575381,54.463688 L92.2122954,54.3321669 C91.478056,54.1493838 90.649577,53.7465359 89.7263408,53.1215521 C88.8031046,52.4976039 88.0377972,51.5329437 87.4288651,50.2270538 L73.0376681,16.922718 C73.0381859,16.8709381 72.753914,16.5084786 72.1843348,15.8353394 C71.6137199,15.1622003 70.7557264,14.4894754 69.6072475,13.815922 C68.4592863,13.1422133 67.0182508,12.7803233 65.2846586,12.7285434 L43.0866009,12.7285434 L61.794691,54.5755326 C61.8319726,54.5760504 68.25372,54.5915844 69.2825873,54.5755326 L52.272879,16.3392099 C52.272879,16.3392099 53.4047883,16.3066404 53.834044,16.3790287 C54.2617462,16.4520384 54.8390925,16.8632747 55.5660828,17.6124785 L71.9590921,54.5755326 C71.9963736,54.5760504 78.4186388,54.59262 79.4469883,54.5755326 L62.6288657,16.3392099 C62.6288657,16.3392099 63.7607751,16.3066404 64.1889952,16.3790287 C64.6166974,16.4520384 65.1940437,16.8632747 65.9215518,17.6124785 L82.1193507,54.5755326 L93.31003,54.5755326 L115.408152,54.5656944 L112.115984,46.9711315 Z M38.0639473,50.7236233 C38.0655007,50.7707431 38.3518437,51.1005812 38.9224586,51.7126201 C39.49152,52.3241411 40.3360508,52.9330731 41.4550151,53.5388983 C42.5739795,54.1452414 43.9575394,54.4626524 45.6046591,54.4932025 L57.7662121,54.4926847 L50.543947,38.2859796 L43.0032352,38.2859796 L48.8445295,51.2533321 C48.8445295,51.2533321 47.7115846,51.2963094 47.2781865,51.2336557 C46.8442707,51.1715198 46.2513904,50.7541735 45.4985102,49.9826525 L39.1787692,35.6933583 L49.5886072,35.6933583 L41.2499666,16.469074 C41.2499666,16.4219025 40.967766,16.0962585 40.4049181,15.490485 C39.8420702,14.8861097 39.0006463,14.2809576 37.8832353,13.6761679 C36.7653065,13.0708087 35.3744975,12.7451647 33.7091513,12.6984074 L21.6013457,12.6984074 L28.6640252,28.7362582 L36.1522321,28.7362582 L30.4704717,15.9379155 C30.4704717,15.9379155 31.6452031,15.8944203 32.0635332,15.9581096 C32.4816044,16.0212294 33.0659409,16.4385239 33.8153519,17.2121679 L39.9228469,31.2849701 L29.7799345,31.2849701 L38.0639473,50.7236233 Z M9.22371498,16.3630805 C9.22371498,16.3630805 10.3555726,16.3298896 10.7833784,16.4023297 C11.2113913,16.4749252 11.7892554,16.8865238 12.5159867,17.6351064 L27.3855268,51.3594809 C27.3855268,51.3594809 26.2526336,51.3921023 25.8189767,51.3196104 C25.3855269,51.2466007 24.7922842,50.8359858 24.0396628,50.0872479 L9.22371498,16.3630805 Z M16.9241679,50.9359211 C16.9263944,50.979934 17.2045044,51.2968272 17.7578766,51.885565 C18.3115076,52.4727495 19.1244008,53.0609695 20.1970221,53.6491896 C21.2690221,54.2368918 22.5857858,54.553785 24.1458117,54.5988336 L35.9886075,54.5988336 L19.6848668,16.9987827 C19.686472,16.9465886 19.4013199,16.5794688 18.8298766,15.8980449 C18.2578636,15.2159996 17.3948475,14.535197 16.2394818,13.8521679 C15.0837537,13.1713136 13.6302391,12.8041939 11.8792489,12.7508087 L0.0361941739,12.7508087 L16.9241679,50.9359211 Z M142.1121,50.9359211 C142.114171,50.979934 142.392229,51.2968272 142.946275,51.885565 C143.499284,52.4727495 144.312229,53.0609695 145.38511,53.6491896 C146.456954,54.2368918 147.774236,54.553785 149.333847,54.5988336 L161.176954,54.5455003 L144.872488,16.9987827 C144.874559,16.9465886 144.589252,16.5794688 144.018119,15.8980449 C143.445951,15.2159996 142.58278,14.535197 141.427569,13.8521679 C140.272359,13.1713136 138.818378,12.8041939 137.067181,12.7508087 L125.224075,12.7508087 L142.1121,50.9359211 Z M135.001679,16.3630805 C135.001679,16.3630805 136.133589,16.3298896 136.561809,16.4023297 C136.989511,16.4749252 137.566857,16.8865238 138.293848,17.6351064 L153.163491,51.3594809 C153.163491,51.3594809 152.031064,51.3921023 151.597148,51.3196104 C151.16375,51.2466007 150.570352,50.8359858 149.817472,50.0872479 L135.001679,16.3630805 Z"></path>
                                    </g>
                                </g>
                            </g>
                        </g>
                        <path d="M37.2724392,12.5343686 C38.1330735,14.430032 37.6547305,15.2601161 35.6474295,15.2601161 C33.7018503,15.2601161 32.303585,14.2813718 31.4937468,12.4971906 C30.0707824,9.36227808 34.0827435,10.229592 33.2896302,8.48258878 C33.070394,7.9989642 32.6288665,7.62723606 32.1581869,7.62723606 C31.7121545,7.62723606 31.5261092,7.90006453 31.8691513,8.655948 L31.9647888,8.86669233 L29.7342128,8.86669233 L29.5936303,8.55663409 C28.7613197,6.72248527 29.5289054,6.06591571 31.4370995,6.06591571 C33.4694619,6.06591571 34.9545105,6.90899659 35.8094489,8.79166321 C37.2773065,12.0258897 33.1221739,11.1708994 33.9152354,12.9180579 C34.0954813,13.3151065 34.4929441,13.6988476 34.9884781,13.6988476 C35.4342515,13.6988476 35.4482321,13.2655531 35.2121674,12.7445434 L35.1163227,12.5343686 L37.2724392,12.5343686" id="path284" fill="#FFFFFF" fill-rule="nonzero"></path>
                        <polyline id="path286" fill="#FFFFFF" fill-rule="nonzero" points="46.9150538 6.23948204 49.2200894 6.23948204 52.3469243 13.128854 54.081552 13.128854 54.9706135 15.0871711 49.1960117 15.0871711 48.3072609 13.128854 50.0422512 13.128854 46.9150538 6.23948204 46.9150538 6.23948204"></polyline>
                        <path d="M66.1110663,9.52284766 L64.8227816,9.52284766 L67.1585744,13.2775142 L67.1834287,13.2775142 L66.1110663,9.52284766 Z M60.3707428,6.23948204 L62.8240761,6.23948204 L63.7628463,7.78821987 L65.5968916,7.78821987 L65.128801,6.23948204 L67.582652,6.23948204 L69.4420695,15.0871711 L66.5423932,15.0871711 L60.3707428,6.23948204 Z" id="path288" fill="#FFFFFF"></path>
                        <polyline id="path290" fill="#FFFFFF" fill-rule="nonzero" points="78.7298362 6.23948204 81.0350789 6.23948204 84.1620691 13.128854 85.8966969 13.128854 86.7852405 15.0871711 81.0107423 15.0871711 80.1221986 13.128854 81.8568264 13.128854 78.7298362 6.23948204 78.7298362 6.23948204"></polyline>
                        <polyline id="path292" fill="#FFFFFF" fill-rule="nonzero" points="93.5735899 6.23948204 98.9260817 6.23948204 99.7814862 8.12277002 96.7326837 8.12277002 97.531648 9.88266642 100.282716 9.88266642 101.103946 11.6913395 98.35236 11.6913395 99.0389619 13.2032618 101.975402 13.2032618 102.830806 15.0871711 97.5891238 15.0871711 93.5735899 6.23948204 93.5735899 6.23948204"></polyline>
                        <path d="M141.45553,8.93509363 L142.10744,8.93509363 L142.10744,9.2396632 L140.430288,9.2396632 L140.430288,8.93509363 L141.094624,8.93509363 L141.094624,7.17680241 L141.45553,7.17680241 L141.45553,8.93509363 Z M144.282715,9.2396632 L143.791323,9.2396632 L143.28854,7.6116503 L142.772294,9.2396632 L142.28142,9.2396632 L142.28142,7.17680241 L142.629382,7.17680241 L142.617472,8.45043345 L142.592618,8.86669233 L142.697731,8.52510011 L143.11456,7.17680241 L143.437666,7.17680241 L143.859673,8.52510011 L143.95909,8.87357907 L143.940449,8.45043345 L143.92854,7.17680241 L144.282715,7.17680241 L144.282715,9.2396632 Z" id="path294" fill="#FFFFFF"></path>
                    </g>
                </g>
            </g>
        </g>
    </g>
</svg>