<?xml version="1.0" encoding="UTF-8"?>
<svg width="200px" height="200px" viewBox="0 0 200 200" version="1.1" xmlns="http://www.w3.org/2000/svg" xmlns:xlink="http://www.w3.org/1999/xlink">
    <!-- Generator: Sketch 51.3 (57544) - http://www.bohemiancoding.com/sketch -->
    <title>paine</title>
    <desc>Created with Sketch.</desc>
    <defs></defs>
    <g id="paine" stroke="none" stroke-width="1" fill="none" fill-rule="evenodd">
        <g id="paine_BGL" transform="translate(0.000000, 27.000000)">
            <g id="paine" transform="translate(0.000000, -1.000000)">
                <g id="g10" transform="translate(100.000000, 74.281116) scale(-1, 1) rotate(-180.000000) translate(-100.000000, -74.281116) translate(0.000000, 0.781116)" fill-rule="nonzero">
                    <g id="g12">
                        <path d="M198.697563,75.1908422 L198.376533,75.5736748 C198.376533,75.5748193 197.978822,76.050928 197.555932,76.5619437 C197.345918,76.8148765 197.112441,77.0992828 196.936762,77.3173085 C196.931039,80.3072941 196.713586,85.0037175 195.663514,90.2838318 L199.265231,88.6037174 C199.265231,88.6037174 198.631182,107.477537 180.835475,123.418023 C171.862657,131.456363 160.923601,137.861513 148.556219,141.118738 C79.2978521,159.358508 42.7798559,124.041771 42.7798559,124.041771 L49.729498,122.763373 C44.4934467,119.212014 40.2116728,115.378538 36.5285256,111.749353 C34.4243768,109.680684 30.7146201,105.140484 25.1408291,100.379397 C11.8280398,89.0071509 0,86.014304 0,86.014304 C0,86.014304 11.8280398,79.8758206 22.5424887,79.9216003 C7.82323299,57.0484678 3.24258075,31.4346201 3.24258075,31.4346201 C3.24258075,31.4346201 17.9439194,35.258826 26.192789,36.2276386 L19.9393986,23.0402855 C19.9393986,23.0402855 42.6111005,37.1244626 77.6984244,38.4920162 C78.0669508,38.5052351 78.4314716,38.5030033 78.7908421,38.5000849 C98.0606556,38.3702422 96.0623724,30.9533612 94.7874082,28.8400565 C91.5250335,23.4290123 79.8889823,14.0996277 79.8889823,14.0996277 C79.8889823,14.0996277 98.2723867,3.71446057 122.999711,3.66975098 L123.145061,3.66975098 L120.591127,0.940852623 L123.556506,0.513233177 C123.612014,0.505186253 127.1422,0.00111767093 132.445776,0 C142.829181,0.0205650925 160.172242,1.87745918 171.399137,13.7437479 C177.458079,20.1801426 180.636333,28.1981109 180.842914,36.1464941 L180.855503,36.1545628 L180.855503,36.6116729 C186.176819,41.1400276 190.036619,46.9579387 192.940768,52.5545623 C194.731326,56.0573377 195.966805,59.5130171 197.044344,62.5321873 C198.564802,66.806293 198.769666,71.0494975 198.773099,73.2194545 C198.773099,74.1224588 198.735903,74.6638036 198.73247,74.6947049 L198.697563,75.1908422" id="path14" fill="#FFFFFF"></path>
                        <path d="M190.709008,72.4537893 C188.795417,75.2474945 186.487549,77.8763929 184.997993,79.4844043 C184.815446,82.50243 184.541912,86.0400551 184.541912,86.0400551 C184.541912,86.0400551 186.261512,86.2506416 188.795417,86.4051481 C187.365947,93.412301 183.067807,98.7811134 177.335046,103.781972 C179.875818,103.416879 182.453787,102.57396 186.63805,100.622601 C172.258651,142.276964 94.6420577,146.996849 63.2297552,128.195133 C65.8964218,127.70529 72.3319009,126.453788 75.0878379,125.918166 C43.3664081,117.0123 37.3962795,95.1296114 19.4874387,87.5319005 C27.8576817,86.9579377 39.8663223,89.6589391 39.8663223,89.6589391 C39.8663223,89.6589391 25.9498134,77.8500696 14.5585118,41.8913294 C26.4353069,44.42575 40.4844053,46.0961934 40.4844053,46.0961934 C40.4844053,46.0961934 38.0134468,42.7530175 35.8527602,38.1945055 C75.9914144,53.7962791 118.547064,44.6906427 103.229182,28.7066087 C105.867809,28.6093841 108.971671,28.6100708 112.334189,28.699284 C110.193989,23.4014873 103.357365,18.1401998 97.468381,15.9833472 C119.249782,6.9311014 139.979396,12.5178824 139.979396,12.5178824 C139.979396,12.5178824 137.91931,10.3283545 137.065519,9.52452051 C162.992271,7.08268938 174.624316,25.8100709 172.736476,40.3073524 C184.34506,47.6222592 191.506147,66.9007136 190.709008,72.4537893" id="path16" fill="#231F20"></path>
                        <path d="M164.072671,89.0334742 C166.562514,89.7339033 169.208007,91.1347617 170.298136,93.003145 C167.377964,98.2672365 160.668379,103.890126 155.772242,100.257508 C143.490697,105.948495 127.844346,105.894132 120.057794,105.419168 C90.7662352,129.066663 78.1384816,104.88469 93.5639462,97.9834024 C96.0761063,98.6552193 98.7811134,99.1170218 101.482115,99.4775369 C100.013731,101.243488 97.8723867,102.903002 95.2812566,104.18655 C99.1175941,104.4515 102.683831,103.690985 105.461514,102.766807 C103.621171,105.652072 99.6291821,108.244346 94.13562,109.761371 C104.503002,110.636335 111.732186,105.556507 115.108438,102.467522 C115.248638,100.066378 116.009725,96.1098688 118.934475,91.2904126 C112.086979,89.8374799 106.606578,87.1439177 106.606578,87.1439177 C106.606578,87.1439177 108.002859,79.2411997 116.966521,74.0349052 C123.132472,79.2480667 126.153931,81.0901267 136.671813,84.4595115 C139.668094,83.6721009 148.083544,80.9922727 154.757078,78.0978521 L147.732757,86.5150193 C138.335905,84.8532168 130.38054,92.3256057 123.040913,91.3321866 C126.395419,96.6798259 134.389696,99.6583666 138.606577,99.3098688 C146.615161,93.3854054 151.783115,90.3050049 155.752214,90.2620864 C154.751355,89.4844041 153.768236,88.8549334 152.797707,88.328467 L160.921312,79.0821153 C168.291841,75.613732 171.761369,75.7710997 174.266662,75.6263214 C175.021455,75.8535031 175.66981,76.0703844 176.264373,76.3404845 C172.100139,80.87439 168.338765,84.6580809 164.072671,89.0334742" id="path18" fill="#918F90"></path>
                        <path d="M165.582256,60.8932746 C165.848923,62.3925592 166.281541,64.703861 166.322743,66.1836893 C161.781398,70.7238895 145.214303,77.755649 139.296134,78.883546 C138.076105,78.5024301 136.940197,78.037194 135.88612,77.5055775 C145.602285,74.4812571 153.353358,69.6022872 153.353358,69.6022872 C153.353358,69.6022872 139.2721,73.8586534 132.618595,75.4575088 C131.8226,74.8520725 131.083831,74.206579 130.406291,73.5273229 C136.159081,71.0563645 153.176534,65.9725305 153.176534,65.9725305 C153.176534,65.9725305 143.320168,65.9719583 127.717879,70.2649482 C124.055505,64.8938467 122.985977,58.6906995 123.087264,55.4821731 C126.381685,61.9696694 131.311585,63.9954204 135.220597,65.9519297 C147.095848,56.488754 160.839481,57.3922732 165.582256,60.8932746 Z M179.11702,71.0666649 C176.742199,67.601715 173.889552,66.2426307 172.94878,65.8706707 C172.465232,64.6351915 172.100139,63.1639469 171.942199,61.4054348 C172.905861,60.7650915 174.54878,60.4194549 176.024602,60.7170228 C179.883257,65.7041471 179.553071,69.4512143 179.11702,71.0666649 Z M160.60486,35.4850921 C158.235189,34.706723 152.434331,34.3347631 146.689553,35.3368804 C147.442056,37.6618589 146.376534,39.9215441 146.376534,39.9215441 C146.376534,39.9215441 144.471527,36.5327602 140.810297,33.6892123 C150.881827,30.0773669 160.085261,32.4280392 162.360511,33.1084398 C163.87353,35.1743625 163.357936,38.8595126 163.357936,38.8595126 C163.357936,38.8595126 161.919882,36.627753 160.60486,35.4850921 Z M150.129896,52.3736754 C149.642915,49.2462363 148.165948,45.7779102 148.165948,45.7779102 C148.165948,45.7779102 151.149639,47.2371376 153.005433,50.0733035 C156.869238,51.3076954 165.123315,51.7145051 170.428036,52.0783964 C169.919309,49.9170803 168.530468,47.3195982 168.530468,47.3195982 C168.530468,47.3195982 173.454645,49.5571948 174.958508,53.8465795 C173.464373,53.9308141 171.601712,54.4979672 169.33104,56.2929314 C164.53104,52.8149343 156.930468,52.5956496 150.129896,52.3736754 Z M145.605719,90.537909 C143.00715,91.3939891 141.52961,92.1613711 138.390841,94.6111564 C134.703287,94.5728159 133.349353,92.8600835 133.349353,92.8600835 C139.166234,91.9090106 141.141627,89.2297546 145.605719,90.537909 Z M176.176247,86.2620865 C176.176247,86.2620865 177.4432,88.8835457 174.905289,90.4635171 C173.113014,88.0148762 171.366519,87.1462067 171.366519,87.1462067 C171.366519,87.1462067 174.329609,86.1991395 176.176247,86.2620865 Z" id="path20" fill="#FFFFFF"></path>
                        <path d="M102.560799,75.6331884 C96.7519289,74.8869795 88.481829,73.3333315 78.2472083,70.0984246 C87.0168791,76.2334745 94.1298975,79.6291826 99.1015712,81.5009994 C97.3676657,85.3293255 97.1433452,87.970241 97.1433452,87.970241 C97.1433452,87.970241 101.93705,91.6595113 108.408009,94.3439175 C80.1504987,93.2005699 74.3496405,81.4855487 56.7683534,78.4308993 C66.6626593,77.3321869 73.9216004,77.8420581 80.3530738,78.7032884 C71.9982815,74.3353343 62.2054348,66.9859783 53.3798556,54.6226596 C75.250928,63.9067223 89.7928447,67.248067 100.870956,68.3702415 C98.5258917,65.2148768 97.0803981,60.3530743 98.438338,52.8619157 C103.765377,58.2111573 108.890412,62.2180242 114.152787,65.071243 C108.774246,68.4909854 105.082115,72.2077235 102.560799,75.6331884 Z M89.4660922,128.852643 C117.897565,127.504432 129.207436,118.787408 129.207436,118.787408 C129.207436,118.787408 120.076106,121.278395 105.134761,120.967093 C114.176821,118.363946 119.14735,116.031471 122.350212,113.450069 C134.559653,113.955934 143.862085,111.551356 149.17539,109.641771 C147.14735,112.939625 143.146778,117.457508 135.505004,120.546492 C149.226892,118.531041 155.019739,112.352501 157.387121,108.319883 C158.995704,108.607723 161.063801,108.781113 163.222886,108.440627 C158.184259,117.622887 141.232042,136.866377 89.4660922,128.852643 Z M128.374246,32.3015156 C128.374246,32.3015156 131.926749,35.1490692 133.46323,35.8809719 C129.230898,37.6439476 125.198852,39.9277815 120.665519,42.7295554 C124.897851,36.6592838 119.909582,27.0082397 116.029754,18.8628894 C127.316163,18.6038336 134.268952,17.6698708 147.990268,23.1811153 C147.439767,21.716051 146.670669,20.2094416 145.865519,19.1633185 C151.125604,19.9805431 156.533902,23.7162226 158.001713,26.3867805 C141.978823,24.2082397 128.374246,32.3015156 128.374246,32.3015156 Z" id="path22" fill="#432C91"></path>
                    </g>
                </g>
            </g>
        </g>
    </g>
</svg>