<?xml version="1.0" encoding="UTF-8"?>
<svg width="200px" height="200px" viewBox="0 0 200 200" version="1.1" xmlns="http://www.w3.org/2000/svg" xmlns:xlink="http://www.w3.org/1999/xlink">
    <!-- Generator: Sketch 51.3 (57544) - http://www.bohemiancoding.com/sketch -->
    <title>pittsburg-st</title>
    <desc>Created with Sketch.</desc>
    <defs></defs>
    <g id="pittsburg-st" stroke="none" stroke-width="1" fill="none" fill-rule="evenodd">
        <g id="pittsburg-st_BGL" transform="translate(18.000000, 0.000000)">
            <g id="pittsburg-st" transform="translate(0.032787, 0.000000)">
                <g id="g10" transform="translate(81.902619, 99.786850) scale(-1, 1) rotate(-180.000000) translate(-81.902619, -99.786850) translate(0.000000, 0.315215)" fill-rule="nonzero">
                    <g id="g12">
                        <path d="M157.542401,5.62053494 L156.788483,5.62053494 L156.100191,7.09845091 L155.608775,7.09845091 L155.608775,5.62053494 L154.928751,5.62053494 L154.928751,9.25887148 L156.461906,9.25887148 C157.063387,9.25887148 157.542401,8.77825554 157.542401,8.1779636 C157.542401,7.71491668 157.240627,7.30917575 156.824138,7.16304288 L157.542401,5.62053494 Z M156.233509,9.94313298 C154.850724,9.94313298 153.730441,8.82166134 153.730441,7.43939317 C153.730441,6.06074214 154.850724,4.93644396 156.233509,4.93644396 C157.616294,4.93644396 158.735544,6.06074214 158.735544,7.43939317 C158.735544,8.82166134 157.616294,9.94313298 156.233509,9.94313298 Z" id="path14" fill="#FCCB07"></path>
                        <path d="M156.461906,8.57579847 L155.608775,8.57579847 L155.608775,7.78152392 L156.461906,7.78152392 C156.681519,7.78152392 156.858243,7.96036617 156.858243,8.1779636 C156.858243,8.39897149 156.681519,8.57579847 156.461906,8.57579847" id="path16" fill="#FCCB07"></path>
                        <path d="M156.233509,4.25317976 C154.476607,4.25317976 153.046283,5.67882273 153.046283,7.43939317 C153.046283,9.20053201 154.476607,10.6265677 156.233509,10.6265677 C157.995578,10.6265677 159.420735,9.20053201 159.420735,7.43939317 C159.420735,5.67882273 157.995578,4.25317976 156.233509,4.25317976 Z M123.852779,51.7402356 C125.573509,54.4665335 126.27782,56.2322197 124.318358,58.9213126 C124.318358,58.9213126 131.431226,61.4109455 134.175609,71.0542684 C136.074613,53.1529912 123.852779,51.7402356 123.852779,51.7402356 Z M113.000294,58.5306603 C112.242243,61.8713571 108.660747,64.5335798 108.660747,64.5335798 C108.660747,64.5335798 114.060119,68.3868784 115.173168,73.1341299 C116.932653,65.0410143 113.000294,58.5306603 113.000294,58.5306603 Z M96.3267813,80.453692 C90.9770159,80.453692 88.387653,76.4820609 88.387653,76.4820609 C87.196577,79.0021812 89.7146304,89.3973547 100.448266,89.3973547 C115.524549,89.3973547 114.176385,68.845223 107.605056,68.845223 C103.971887,68.845223 107.021661,80.453692 96.3267813,80.453692 Z M76.9734766,50.4483445 C78.6166964,59.8080312 70.525131,67.4836242 70.525131,67.4836242 C75.099276,77.2721499 67.3332541,82.0411043 62.2289382,82.0411043 C57.1251391,82.0411043 54.4453474,77.4075347 54.4453474,77.4075347 C54.4453474,77.4075347 54.2298686,89.9859167 66.592255,89.9859167 C76.5187491,89.9859167 81.3362767,78.2937365 77.3393255,72.2474113 C86.725314,54.3078957 76.9734766,50.4483445 76.9734766,50.4483445 Z M85.8721833,197.06752 C85.0536738,194.310734 85.344596,192.541431 85.344596,192.541431 C85.344596,192.541431 87.6745576,194.711204 91.1015492,195.584488 C91.1015492,195.584488 85.2712196,189.224504 84.4831975,180.631188 L87.5257377,175.338781 C87.5257377,175.338781 89.594231,177.544209 93.3240298,178.666042 C93.3240298,178.666042 83.0807766,166.748565 85.409188,153.634845 L81.732613,155.727108 C81.732613,155.727108 87.4187734,147.676881 86.1398524,140.072081 L83.43009,142.113704 C83.43009,142.113704 85.536305,135.518606 84.6811073,125.868565 C81.7672343,124.517818 82.4865305,128.736965 78.7438134,128.736965 C72.6359966,128.736965 68.952704,118.087041 65.8342037,118.087041 C62.2718273,118.087041 61.7829953,124.647002 50.8490215,124.647002 C45.6713807,124.647002 41.099251,122.546988 41.099251,121.325941 C41.099251,120.378248 45.7600009,121.472694 49.4768296,121.472694 C59.3042138,121.472694 60.1914491,116.189587 66.4331004,116.189587 C72.801352,116.189587 75.2005562,123.895668 79.09261,123.895668 C79.6568855,123.895668 80.181889,123.565991 80.181889,122.920071 C80.181889,121.657685 78.6880059,121.856112 78.6880059,118.819256 C78.6880059,116.997245 79.56594,115.256879 81.1642037,115.256879 C82.7598837,115.256879 85.4934159,118.308721 84.60153,123.697758 L85.3125584,124.052756 C85.3125584,124.052756 87.7484508,120.081641 87.261169,115.390714 L87.8435302,115.045534 C92.5225726,119.215592 87.9918334,123.971111 90.5238386,123.971111 C94.5409425,123.971111 92.8589676,115.21399 103.705251,115.21399 C109.10359,115.21399 110.877027,119.911118 121.851461,119.911118 C141.949899,119.911118 143.307364,100.629123 143.307364,100.629123 C143.307364,100.629123 139.098551,102.141092 131.926775,101.43058 C131.926775,101.43058 130.91449,105.430115 128.246066,108.462321 C128.246066,108.462321 127.061191,102.859872 121.655618,100.50459 L114.869328,100.620339 C114.869328,100.620339 107.908897,104.342387 108.236507,109.106174 C108.236507,109.106174 105.861073,106.196434 107.973489,101.43058 L106.125125,100.635841 C106.125125,100.635841 99.4644009,111.535348 82.5640409,109.235357 L82.1702882,107.581286 C82.1702882,107.581286 93.0398251,109.136144 96.7577389,100.801196 C96.7577389,100.801196 90.5755122,102.451134 83.7577005,100.236921 C83.7577005,100.236921 92.7535535,100.564531 100.13409,96.8445505 C100.13409,96.8445505 90.493868,96.464233 85.0133684,87.2699535 L82.8916514,87.2699535 C82.8916514,87.2699535 77.7056912,97.3292487 66.4331004,97.3292487 C50.7624165,97.3292487 47.2995118,80.054772 47.2995118,80.054772 L48.492603,79.2626161 C48.492603,79.2626161 49.7503379,86.8674163 56.0306927,90.7093468 L57.7664081,90.3130104 C52.9142593,87.3407463 44.6076285,72.0495015 61.6305582,63.580719 L62.8536718,60.9153959 C62.8536718,60.9153959 59.0608312,50.41424 58.6820639,45.8473809 C66.9348509,43.960882 73.4322864,48.9405096 81.2246618,48.9405096 C89.4624634,48.9405096 95.3181131,41.2603175 123.053389,44.1546579 C113.659649,31.4393409 90.3734685,41.2351008 82.6374174,41.2351008 C77.7744171,41.2351008 66.9519031,38.2751867 60.0710497,39.2961532 L63.318734,35.637819 C87.6766246,39.5928629 95.3139792,32.7875045 105.780979,34.6547809 L104.734589,33.2963342 C104.734589,33.2963342 85.5450895,30.7391123 85.5450895,4.6134841 C85.5450895,4.6134841 83.2766195,6.78639418 80.9792123,7.33924977 C80.9792123,7.33924977 81.9827131,4.77677777 82.1553029,1.41698765 L162.259682,1.41698765 L162.259682,197.06752 L85.8721833,197.06752 Z" id="path18" fill="#FCCB07"></path>
                        <path d="M120.822124,111.608725 C119.334441,114.294201 114.791817,113.921634 114.791817,113.921634 C114.139697,112.681468 114.727225,111.552917 114.727225,111.552917 C118.436355,112.194703 120.822124,111.608725 120.822124,111.608725" id="path20" fill="#FCCB07"></path>
                        <path d="M57.0233421,110.613492 C57.0233421,105.853839 52.0631955,102.687799 52.0631955,102.687799 C52.154141,102.752391 53.5539782,101.695149 57.1375407,101.790229 C59.851437,107.949202 57.0233421,110.613492 57.0233421,110.613492" id="path22" fill="#FCCB07"></path>
                        <path d="M37.3087358,108.244775 C37.3087358,108.244775 35.7514492,105.873475 37.9052039,101.958168 C37.9052039,101.958168 39.7787844,101.703934 42.2037737,102.554481 C38.5513303,105.250808 37.3087358,108.244775 37.3087358,108.244775" id="path24" fill="#FCCB07"></path>
                        <path d="M48.3507074,112.237592 C47.3641038,112.237592 48.2923679,110.295183 48.2923679,110.295183 C49.6774781,110.156697 51.6027322,110.591789 51.6027322,110.591789 C51.6027322,110.591789 50.0948973,112.237592 48.3507074,112.237592" id="path26" fill="#FCCB07"></path>
                        <path d="M35.8162479,69.8058348 C35.8162479,69.8058348 28.7737078,86.987299 41.6438388,97.0192072 C33.085041,98.6732784 21.4941926,82.0752088 35.8162479,69.8058348" id="path28" fill="#FCCB07"></path>
                        <path d="M51.4668824,95.210632 C51.4668824,95.210632 54.8396168,97.598468 58.0702488,98.8779058 L57.3034129,100.138224 C57.3034129,100.138224 53.495587,99.3775893 49.5287099,96.8001113 L51.4668824,95.210632" id="path30" fill="#FCCB07"></path>
                        <path d="M108.660747,64.5335798 C108.660747,64.5335798 112.242243,61.8713571 113.000294,58.5306603 C113.000294,58.5306603 116.932653,65.0410143 115.173168,73.1341299 C114.060119,68.3868784 108.660747,64.5335798 108.660747,64.5335798" id="path32" fill="#D21C2D"></path>
                        <path d="M124.318358,58.9213126 C126.27782,56.2322197 125.573509,54.4665335 123.852779,51.7402356 C123.852779,51.7402356 136.074613,53.1529912 134.175609,71.0542684 C131.431226,61.4109455 124.318358,58.9213126 124.318358,58.9213126" id="path34" fill="#D21C2D"></path>
                        <path d="M155.608775,8.57579847 L156.461906,8.57579847 C156.681519,8.57579847 156.858243,8.39897149 156.858243,8.1779636 C156.858243,7.96036617 156.681519,7.78152392 156.461906,7.78152392 L155.608775,7.78152392 L155.608775,8.57579847 Z M155.608775,7.09845091 L156.100191,7.09845091 L156.788483,5.62053494 L157.542401,5.62053494 L156.824138,7.16304288 C157.240627,7.30917575 157.542401,7.71491668 157.542401,8.1779636 C157.542401,8.77825554 157.063387,9.25887148 156.461906,9.25887148 L154.928751,9.25887148 L154.928751,5.62053494 L155.608775,5.62053494 L155.608775,7.09845091 Z" id="path36" fill="#D21C2D"></path>
                        <path d="M66.592255,89.9859167 C54.2298686,89.9859167 54.4453474,77.4075347 54.4453474,77.4075347 C54.4453474,77.4075347 57.1251391,82.0411043 62.2289382,82.0411043 C67.3332541,82.0411043 75.099276,77.2721499 70.525131,67.4836242 C70.525131,67.4836242 78.6166964,59.8080312 76.9734766,50.4483445 C76.9734766,50.4483445 86.725314,54.3078957 77.3393255,72.2474113 C81.3362767,78.2937365 76.5187491,89.9859167 66.592255,89.9859167" id="path38" fill="#D21C2D"></path>
                        <path d="M100.448266,89.3973547 C89.7146304,89.3973547 87.196577,79.0021812 88.387653,76.4820609 C88.387653,76.4820609 90.9770159,80.453692 96.3267813,80.453692 C107.021661,80.453692 103.971887,68.845223 107.605056,68.845223 C114.176385,68.845223 115.524549,89.3973547 100.448266,89.3973547" id="path40" fill="#D21C2D"></path>
                        <path d="M114.791817,113.921634 C114.791817,113.921634 119.334441,114.294201 120.822124,111.608725 C120.822124,111.608725 118.436355,112.194703 114.727225,111.552917 C114.727225,111.552917 114.139697,112.681468 114.791817,113.921634 Z M48.2923679,110.295183 C48.2923679,110.295183 47.3641038,112.237592 48.3507074,112.237592 C50.0948973,112.237592 51.6027322,110.591789 51.6027322,110.591789 C51.6027322,110.591789 49.6774781,110.156697 48.2923679,110.295183 Z M52.0631955,102.687799 C52.0631955,102.687799 57.0233421,105.853839 57.0233421,110.613492 C57.0233421,110.613492 59.851437,107.949202 57.1375407,101.790229 C53.5539782,101.695149 52.154141,102.752391 52.0631955,102.687799 Z M57.3034129,100.138224 L58.0702488,98.8779058 C54.8396168,97.598468 51.4668824,95.210632 51.4668824,95.210632 L49.5287099,96.8001113 C53.495587,99.3775893 57.3034129,100.138224 57.3034129,100.138224 Z M162.259682,1.41698765 L82.1553029,1.41698765 C81.9827131,4.77677777 80.9792123,7.33924977 80.9792123,7.33924977 C83.2766195,6.78639418 85.5450895,4.6134841 85.5450895,4.6134841 C85.5450895,30.7391123 104.734589,33.2963342 104.734589,33.2963342 L105.780979,34.6547809 C95.3139792,32.7875045 87.6766246,39.5928629 63.318734,35.637819 L60.0710497,39.2961532 C66.9519031,38.2751867 77.7744171,41.2351008 82.6374174,41.2351008 C90.3734685,41.2351008 113.659649,31.4393409 123.053389,44.1546579 C95.3181131,41.2603175 89.4624634,48.9405096 81.2246618,48.9405096 C73.4322864,48.9405096 66.9348509,43.960882 58.6820639,45.8473809 C59.0608312,50.41424 62.8536718,60.9153959 62.8536718,60.9153959 L61.6305582,63.580719 C44.6076285,72.0495015 52.9142593,87.3407463 57.7664081,90.3130104 L56.0306927,90.7093468 C49.7503379,86.8674163 48.492603,79.2626161 48.492603,79.2626161 L47.2995118,80.054772 C47.2995118,80.054772 50.7624165,97.3292487 66.4331004,97.3292487 C77.7056912,97.3292487 82.8916514,87.2699535 82.8916514,87.2699535 L85.0133684,87.2699535 C90.493868,96.464233 100.13409,96.8445505 100.13409,96.8445505 C92.7535535,100.564531 83.7577005,100.236921 83.7577005,100.236921 C90.5755122,102.451134 96.7577389,100.801196 96.7577389,100.801196 C93.0398251,109.136144 82.1702882,107.581286 82.1702882,107.581286 L82.5640409,109.235357 C99.4644009,111.535348 106.125125,100.635841 106.125125,100.635841 L107.973489,101.43058 C105.861073,106.196434 108.236507,109.106174 108.236507,109.106174 C107.908897,104.342387 114.869328,100.620339 114.869328,100.620339 L121.655618,100.50459 C127.061191,102.859872 128.246066,108.462321 128.246066,108.462321 C130.91449,105.430115 131.926775,101.43058 131.926775,101.43058 C139.098551,102.141092 143.307364,100.629123 143.307364,100.629123 C143.307364,100.629123 141.949899,119.911118 121.851461,119.911118 C110.877027,119.911118 109.10359,115.21399 103.705251,115.21399 C92.8589676,115.21399 94.5409425,123.971111 90.5238386,123.971111 C87.9918334,123.971111 92.5225726,119.215592 87.8435302,115.045534 L87.261169,115.390714 C87.7484508,120.081641 85.3125584,124.052756 85.3125584,124.052756 L84.60153,123.697758 C85.4934159,118.308721 82.7598837,115.256879 81.1642037,115.256879 C79.56594,115.256879 78.6880059,116.997245 78.6880059,118.819256 C78.6880059,121.856112 80.181889,121.657685 80.181889,122.920071 C80.181889,123.565991 79.6568855,123.895668 79.09261,123.895668 C75.2005562,123.895668 72.801352,116.189587 66.4331004,116.189587 C60.1914491,116.189587 59.3042138,121.472694 49.4768296,121.472694 C45.7600009,121.472694 41.099251,120.378248 41.099251,121.325941 C41.099251,122.546988 45.6713807,124.647002 50.8490215,124.647002 C61.7829953,124.647002 62.2718273,118.087041 65.8342037,118.087041 C68.952704,118.087041 72.6359966,128.736965 78.7438134,128.736965 C82.4865305,128.736965 81.7672343,124.517818 84.6811073,125.868565 C85.536305,135.518606 83.43009,142.113704 83.43009,142.113704 L86.1398524,140.072081 C87.4187734,147.676881 81.732613,155.727108 81.732613,155.727108 L85.409188,153.634845 C83.0807766,166.748565 93.3240298,178.666042 93.3240298,178.666042 C89.594231,177.544209 87.5257377,175.338781 87.5257377,175.338781 L84.4831975,180.631188 C85.2712196,189.224504 91.1015492,195.584488 91.1015492,195.584488 C87.6745576,194.711204 85.344596,192.541431 85.344596,192.541431 C85.344596,192.541431 85.0536738,194.310734 85.8721833,197.06752 L162.259682,197.06752 L162.259682,1.41698765 Z M37.9052039,101.958168 C35.7514492,105.873475 37.3087358,108.244775 37.3087358,108.244775 C37.3087358,108.244775 38.5513303,105.250808 42.2037737,102.554481 C39.7787844,101.703934 37.9052039,101.958168 37.9052039,101.958168 Z M35.8162479,69.8058348 C21.4941926,82.0752088 33.085041,98.6732784 41.6438388,97.0192072 C28.7737078,86.987299 35.8162479,69.8058348 35.8162479,69.8058348 Z M0,198.484409 L0,0 L163.672954,0 L163.672954,198.484409 L0,198.484409 Z" id="path42" fill="#D21C2D"></path>
                        <path d="M156.233509,9.94313298 C157.616294,9.94313298 158.735544,8.82166134 158.735544,7.43939317 C158.735544,6.06074214 157.616294,4.93644396 156.233509,4.93644396 C154.850724,4.93644396 153.730441,6.06074214 153.730441,7.43939317 C153.730441,8.82166134 154.850724,9.94313298 156.233509,9.94313298 Z M156.233509,4.25317976 C157.995578,4.25317976 159.420735,5.67882273 159.420735,7.43939317 C159.420735,9.20053201 157.995578,10.6265677 156.233509,10.6265677 C154.476607,10.6265677 153.046283,9.20053201 153.046283,7.43939317 C153.046283,5.67882273 154.476607,4.25317976 156.233509,4.25317976 Z" id="path44" fill="#D21C2D"></path>
                    </g>
                </g>
            </g>
        </g>
    </g>
</svg>