<?xml version="1.0" encoding="UTF-8"?>
<svg width="200px" height="200px" viewBox="0 0 200 200" version="1.1" xmlns="http://www.w3.org/2000/svg" xmlns:xlink="http://www.w3.org/1999/xlink">
    <!-- Generator: Sketch 51.3 (57544) - http://www.bohemiancoding.com/sketch -->
    <title>point-loma</title>
    <desc>Created with Sketch.</desc>
    <defs></defs>
    <g id="point-loma" stroke="none" stroke-width="1" fill="none" fill-rule="evenodd">
        <g id="point-loma_BGL" transform="translate(11.504425, 0.000000)">
            <g id="point-loma">
                <g id="g10" transform="translate(88.175822, 100.261612) scale(-1, 1) rotate(-180.000000) translate(-88.175822, -100.261612) translate(0.000000, 0.363275)" fill-rule="nonzero">
                    <g id="g12">
                        <path d="M175.8576,117.246786 C175.8576,148.81479 164.007029,177.57124 144.577227,199.185608 L31.2803728,199.185608 C11.8526848,177.57124 0,148.81479 0,117.246786 C0,61.2871108 37.2382057,14.1637679 87.927633,0 C138.620172,14.1637679 175.8576,61.2871108 175.8576,117.246786" id="path14" fill="#FAB217"></path>
                        <path d="M137.45703,12.5886565 L139.595293,12.5886565 L141.306942,9.79370862 L143.047117,12.5886565 L145.156854,12.5886565 L145.156854,5.35169663 L143.158634,5.35169663 L143.158634,9.58136627 L141.330282,6.71800748 L141.261557,6.71800748 L139.428018,9.58136627 L139.428018,5.35169663 L137.45703,5.35169663 L137.45703,12.5886565 Z M132.153513,10.8240108 L129.989315,10.8240108 L129.989315,12.5886565 L136.327601,12.5886565 L136.327601,10.8240108 L134.17248,10.8240108 L134.17248,5.35169663 L132.153513,5.35169663 L132.153513,10.8240108 Z" id="path16" fill="#FAB217"></path>
                        <path d="M41.0260056,178.732396 L134.831205,178.732396 C148.167798,161.129531 155.466941,139.507379 155.466941,117.33903 C155.466941,97.2184669 149.636963,78.2299985 139.337249,62.2120137 C138.141689,62.6893202 136.946128,63.1606587 135.768722,63.6572962 C114.410722,72.7304005 104.541125,81.847486 113.714263,84.0216371 C119.022707,85.2820427 129.525485,83.9415886 141.570172,80.8414967 C126.162096,89.5278518 108.646487,96.4719538 90.1355296,100.707643 C63.9396599,106.706603 40.1345221,106.275743 21.7426017,100.725417 C20.8561753,106.149119 20.3876764,111.698406 20.3876764,117.33903 C20.3876764,139.508676 27.6866894,161.130828 41.0260056,178.732396" id="path18" fill="#FFFFFF"></path>
                        <path d="M70.7346444,113.079469 L70.7346444,149.793016 L103.583769,149.793016 L103.583769,113.079469 L97.0141514,113.079469 L97.0141514,143.694027 L77.310875,143.694027 L77.310875,113.079469 L70.7346444,113.079469 Z M97.0141514,60.3348332 L97.0141514,93.365375 L107.476472,93.365375 C116.64961,93.365375 124.085425,100.806504 124.085425,109.981971 L124.085425,153.88236 C124.085425,163.062628 116.64961,170.500514 107.476472,170.500514 L51.0247548,170.500514 L51.0247548,113.079469 L35.845287,113.079469 L46.7522472,93.365375 L51.0247548,93.365375 L51.0247548,57.9306564 L70.7346444,57.9306564 L70.7346444,93.365375 L77.310875,93.365375 L77.310875,39.911202 L119.23796,39.911202 L130.244766,60.3348332 L97.0141514,60.3348332 Z" id="path20" fill="#1E513D"></path>
                        <path d="M85.4785495,105.543501 L62.5744907,105.543501 L62.5744907,159.671275 L104.92858,159.671275 C108.828804,159.671275 112.002226,156.493988 112.002226,152.591466 L112.002226,112.624866 C112.002226,108.721047 108.828804,105.543501 104.92858,105.543501 L88.8682615,105.543501 L88.8682615,134.987304 L85.4785495,134.987304 L85.4785495,105.543501 Z M88.8682615,51.9667257 L88.8682615,102.154612 L104.92858,102.154612 C110.700465,102.154612 115.395958,106.849964 115.395958,112.624866 L115.395958,152.591466 C115.395958,158.366109 110.700465,163.062628 104.92858,163.062628 L59.1859458,163.062628 L59.1859458,105.572822 L48.5716515,105.572822 L50.4473328,102.179911 L59.1859458,102.179911 L59.1859458,64.4813926 L62.5744907,64.4813926 L62.5744907,102.154612 L85.4785495,102.154612 L85.4785495,48.5712202 L115.190819,48.5712202 L117.181518,51.9667257 L88.8682615,51.9667257 Z" id="path22" fill="#FAB217"></path>
                        <path d="M170.89771,116.879368 C170.89771,63.6117581 135.760942,18.7562371 87.9300967,5.27111629 C40.0989924,18.7562371 4.95988999,63.6117581 4.95988999,116.879368 C4.95988999,146.544374 15.8678875,173.589578 33.7852145,194.071332 L142.07459,194.071332 C159.989842,173.589578 170.89771,146.544374 170.89771,116.879368 Z M38.526221,183.846672 C23.5179181,165.002213 15.2777579,141.481993 15.2777579,117.33903 C15.2777579,71.2302388 44.4019725,30.7545464 87.9300967,16.1016659 C131.451997,30.7545464 160.579842,71.2302388 160.579842,117.33903 C160.579842,141.481993 152.339293,165.002213 137.331249,183.846672 L38.526221,183.846672 Z" id="path24" fill="#1E513D"></path>
                    </g>
                </g>
            </g>
        </g>
    </g>
</svg>