<?xml version="1.0" encoding="UTF-8"?>
<svg width="200px" height="200px" viewBox="0 0 200 200" version="1.1" xmlns="http://www.w3.org/2000/svg" xmlns:xlink="http://www.w3.org/1999/xlink">
    <!-- Generator: Sketch 51.3 (57544) - http://www.bohemiancoding.com/sketch -->
    <title>purchase-st</title>
    <desc>Created with Sketch.</desc>
    <defs></defs>
    <g id="purchase-st" stroke="none" stroke-width="1" fill="none" fill-rule="evenodd">
        <g id="purchase-st_BGL">
            <g id="purchase-st" transform="translate(11.000000, 0.000000)">
                <path d="M2.23300971,1.06796117 L2.91262136,0.776699029 C30.776699,0.776699029 58.6407767,0.776699029 86.5048544,0.776699029 C93.8834951,5.53398058 101.262136,11.5533981 108.543689,16.7961165 C109.223301,17.3786408 110.776699,17.961165 110.970874,18.9320388 C111.067961,26.8932039 110.873786,34.8543689 111.067961,42.815534 C112.330097,42.038835 113.592233,41.4563107 115.048544,41.0679612 C113.009709,42.4271845 110.873786,43.2038835 109.029126,44.8543689 C107.281553,46.2135922 106.601942,48.2524272 104.854369,49.4174757 C104.271845,49.3203883 103.68932,49.223301 103.106796,49.0291262 L103.68932,48.2524272 C103.592233,39.8058252 103.883495,30.0970874 103.592233,21.8446602 C97.2815534,17.2815534 91.0679612,12.2330097 84.5631068,7.96116505 C60.0970874,7.96116505 35.5339806,7.96116505 10.9708738,7.96116505 C10.9708738,11.8446602 10.9708738,15.7281553 10.9708738,19.6116505 C14.0776699,19.8058252 17.184466,19.6116505 20.2912621,19.7087379 C20.2912621,43.7864078 20.2912621,68.0582524 20.2912621,92.038835 C17.2815534,92.815534 13.592233,91.8446602 10.5825243,92.5242718 C10.5825243,96.2135922 10.5825243,99.8058252 10.5825243,103.495146 C14.7572816,103.68932 19.1262136,103.68932 23.3980583,103.495146 L22.815534,104.757282 C19.6116505,106.116505 16.5048544,107.184466 13.8834951,109.708738 C11.8446602,112.815534 12.038835,116.116505 14.1747573,119.223301 C11.5533981,117.572816 11.5533981,112.427184 13.3980583,110.194175 L12.6213592,109.223301 C9.22330097,109.417476 5.82524272,109.223301 2.33009709,109.320388 L2.03883495,108.640777 C2.03883495,101.747573 2.13592233,94.8543689 2.03883495,88.0582524 C5.24271845,87.961165 8.54368932,88.1553398 11.7475728,87.961165 C12.5242718,86.7961165 11.8446602,84.8543689 12.1359223,83.3980583 C12.1359223,64.6601942 12.1359223,45.9223301 12.1359223,27.2815534 C9.02912621,26.8932039 5.63106796,27.6699029 2.62135922,26.8932039 C2.23300971,18.3495146 2.23300971,9.70873786 2.23300971,1.06796117 Z" id="Shape" fill="#073C78" fill-rule="nonzero"></path>
                <path d="M10.776699,7.86407767 C35.2427184,7.86407767 59.8058252,7.86407767 84.368932,7.86407767 C90.776699,12.1359223 97.0873786,17.184466 103.398058,21.7475728 C103.68932,30 103.398058,39.7087379 103.495146,48.1553398 L102.912621,48.9320388 L101.650485,48.0582524 L101.650485,47.4757282 C101.650485,39.223301 101.84466,30.8737864 101.553398,22.5242718 C95.7281553,17.961165 89.6116505,13.4951456 83.4951456,9.22330097 C59.8058252,9.41747573 36.0194175,9.32038835 12.3300971,9.22330097 C12.1359223,12.038835 12.4271845,14.8543689 12.2330097,17.6699029 C15.1456311,18.4466019 18.7378641,17.3786408 21.6504854,18.1553398 C21.8446602,42.5242718 21.6504854,68.5436893 21.7475728,93.2038835 L21.2621359,93.7864078 C18.3495146,94.0776699 14.6601942,93.3009709 11.9417476,94.2718447 C11.9417476,96.7961165 12.038835,99.223301 11.9417476,101.650485 C15.631068,102.330097 19.8058252,101.84466 23.592233,101.84466 C23.3980583,102.427184 23.2038835,102.912621 23.0097087,103.398058 C18.7378641,103.495146 14.4660194,103.592233 10.1941748,103.398058 C10.1941748,99.7087379 10.1941748,96.1165049 10.1941748,92.4271845 C13.2038835,91.7475728 16.9902913,92.7184466 19.9029126,91.9417476 C19.9029126,67.8640777 19.9029126,43.6893204 19.9029126,19.6116505 C16.7961165,19.5145631 13.6893204,19.7087379 10.5825243,19.5145631 C10.776699,15.7281553 10.776699,11.8446602 10.776699,7.86407767 Z" id="Shape" fill="#FFFFFF" fill-rule="nonzero"></path>
                <path d="M174.854369,38.7378641 C172.912621,37.5728155 170.679612,37.6699029 168.640777,36.5048544 C166.601942,36.0194175 164.563107,35.631068 162.718447,36.9902913 C159.320388,38.7378641 157.961165,43.2038835 155.92233,46.3106796 C154.174757,50.0970874 150.873786,51.9417476 147.961165,54.9514563 C145.631068,57.3786408 142.815534,59.0291262 140.485437,61.3592233 L138.834951,61.6504854 C140.970874,57.7669903 136.893204,54.368932 139.029126,50.9708738 C138.640777,47.6699029 140.776699,45.8252427 139.029126,43.0097087 C137.864078,41.4563107 135.92233,40.776699 133.980583,40.3883495 C130.38835,39.8058252 126.796117,39.4174757 123.300971,38.5436893 C120.38835,38.4466019 117.475728,39.8058252 114.854369,40.9708738 C112.815534,42.3300971 110.679612,43.1067961 108.834951,44.7572816 C107.087379,46.1165049 106.407767,48.1553398 104.660194,49.3203883 C104.07767,49.223301 103.495146,49.1262136 102.912621,48.9320388 L101.650485,48.0582524 C98.7378641,50 100.776699,53.592233 101.553398,56.1165049 C101.067961,58.2524272 100.873786,60.4854369 100.679612,62.7184466 C99.223301,64.4660194 96.9902913,65.8252427 95.8252427,67.7669903 C94.8543689,70 94.8543689,72.3300971 91.9417476,72.5242718 C90.0970874,73.1067961 88.5436893,73.9805825 86.7961165,74.8543689 C85.9223301,75.8252427 84.8543689,76.2135922 83.7864078,76.7961165 C77.7669903,80 71.8446602,83.6893204 66.7961165,88.1553398 C62.4271845,92.6213592 56.0194175,91.7475728 51.5533981,96.2135922 C43.9805825,96.407767 37.6699029,99.8058252 32.038835,104.660194 L31.5533981,103.106796 C31.6504854,101.84466 32.5242718,101.650485 34.1747573,102.330097 C38.4466019,99.3203883 42.9126214,96.7961165 48.1553398,96.2135922 L48.0582524,94.1747573 C45.5339806,93.4951456 42.3300971,94.1747573 39.7087379,93.8834951 L39.4174757,93.1067961 C39.4174757,83.6893204 39.5145631,74.2718447 39.3203883,64.8543689 L39.8058252,64.2718447 C53.9805825,63.9805825 69.0291262,64.2718447 83.3009709,64.0776699 C88.9320388,60.5825243 94.1747573,56.1165049 99.8058252,52.5242718 C99.5145631,51.0679612 99.8058252,47.6699029 101.650485,47.4757282 C101.650485,39.223301 101.84466,30.8737864 101.553398,22.5242718 C95.7281553,17.961165 89.6116505,13.4951456 83.592233,9.22330097 C59.9029126,9.41747573 36.1165049,9.32038835 12.4271845,9.22330097 C12.2330097,12.038835 12.5242718,14.8543689 12.3300971,17.6699029 C15.2427184,18.4466019 18.8349515,17.3786408 21.7475728,18.1553398 C21.9417476,42.5242718 21.7475728,68.5436893 21.8446602,93.2038835 L21.3592233,93.7864078 C18.4466019,94.0776699 14.7572816,93.3009709 12.038835,94.2718447 C12.038835,96.7961165 12.1359223,99.223301 12.038835,101.650485 C15.7281553,102.330097 20,101.84466 23.6893204,101.84466 C23.4951456,102.427184 23.3009709,102.912621 23.1067961,103.398058 L22.5242718,104.660194 C19.223301,106.019417 16.2135922,107.087379 13.592233,109.61165 C11.5533981,112.718447 11.7475728,116.116505 13.8834951,119.126214 C16.407767,121.262136 19.3203883,121.941748 22.6213592,121.359223 L23.1067961,122.912621 C18.8349515,125.825243 15.2427184,130.970874 11.9417476,134.854369 C8.34951456,136.601942 4.46601942,138.543689 1.65048544,141.359223 C-0.485436893,143.68932 0.388349515,146.699029 1.65048544,149.126214 C3.49514563,150.485437 5.14563107,151.456311 6.69902913,153.300971 C11.1650485,155.631068 14.9514563,152.912621 18.3495146,150.097087 C19.9029126,148.349515 21.1650485,146.407767 22.815534,144.854369 C25.2427184,142.524272 27.8640777,139.126214 31.1650485,138.15534 C36.9902913,137.184466 42.6213592,135.048544 48.3495146,133.786408 C48.1553398,135.339806 47.3786408,137.087379 48.7378641,138.349515 C52.815534,141.84466 60.2912621,143.68932 63.9805825,138.543689 C64.6601942,135.728155 66.3106796,132.718447 66.2135922,129.708738 C65.7281553,127.76699 65.3398058,125.92233 65.0485437,123.980583 C67.2815534,123.786408 69.5145631,124.660194 71.8446602,124.660194 C76.3106796,124.854369 80.9708738,122.621359 83.4951456,119.029126 C84.6601942,116.893204 86.1165049,114.660194 87.8640777,112.912621 C90.1941748,112.524272 92.7184466,112.621359 95.0485437,112.718447 C92.9126214,113.106796 90.5825243,112.815534 88.4466019,113.203883 C85.3398058,115.631068 84.1747573,119.805825 80.9708738,122.427184 C80.776699,139.805825 80.9708738,157.087379 80.8737864,174.466019 C80.776699,175.339806 80.776699,176.213592 81.0679612,176.893204 C87.0873786,181.262136 94.1747573,186.407767 100.485437,190.38835 C114.368932,190.485437 128.446602,190.38835 142.330097,190.38835 C148.349515,185.728155 154.757282,181.553398 160.776699,176.893204 C161.165049,173.300971 160.776699,169.61165 160.873786,165.92233 C156.213592,165.825243 151.553398,165.728155 146.990291,165.92233 C146.893204,168.737864 146.893204,171.650485 147.087379,174.466019 C146.601942,176.407767 143.786408,177.572816 142.330097,178.737864 C139.61165,180.485437 137.669903,182.912621 134.07767,182.330097 C125.631068,182.330097 117.184466,182.23301 108.737864,182.427184 C105.145631,180.679612 102.038835,177.76699 98.6407767,175.825243 C98.0582524,174.563107 98.4466019,172.912621 98.3495146,171.456311 C98.3495146,154.271845 98.3495146,137.087379 98.3495146,120 C98.3495146,119.126214 98.3495146,118.349515 98.6407767,117.572816 C101.747573,115.92233 104.466019,113.592233 107.378641,111.747573 C110.194175,110.679612 112.815534,111.359223 115.631068,111.359223 C121.165049,111.359223 126.601942,111.359223 132.135922,111.359223 C134.757282,111.359223 136.893204,110.485437 139.223301,111.941748 C141.650485,113.883495 144.271845,115.339806 146.601942,117.281553 C147.184466,119.805825 146.407767,122.718447 146.990291,125.339806 C151.650485,125.339806 156.31068,125.436893 160.873786,125.339806 C161.650485,122.524272 161.067961,119.126214 161.456311,116.213592 C158.543689,113.495146 154.951456,111.553398 151.84466,109.126214 C148.349515,106.990291 145.048544,103.68932 141.165049,102.330097 L141.262136,101.359223 L141.262136,101.165049 C142.427184,97.3786408 147.864078,94.9514563 145.825243,89.9029126 C143.980583,87.6699029 140.776699,86.1165049 138.058252,85.4368932 C141.456311,82.6213592 145.533981,82.1359223 149.126214,80 C151.747573,78.6407767 152.330097,75.2427184 154.174757,73.2038835 C158.446602,67.7669903 162.427184,62.038835 165.92233,56.0194175 C168.058252,53.1067961 172.23301,53.592233 175.048544,51.0679612 C175.728155,49.4174757 176.213592,47.7669903 177.378641,46.3106796 C178.252427,43.9805825 175.728155,41.4563107 174.854369,38.7378641 Z M48.9320388,27.4757282 C56.6990291,27.0873786 64.9514563,27.3786408 72.815534,27.2815534 C73.9805825,27.0873786 75.0485437,28.2524272 76.1165049,28.8349515 C76.3106796,33.8834951 76.5048544,39.9029126 76.0194175,44.8543689 C75.0485437,45.5339806 74.0776699,46.3106796 72.9126214,46.7961165 C65.7281553,46.7961165 58.6407767,46.7961165 51.4563107,46.7961165 C50.5825243,46.8932039 49.7087379,46.6990291 48.9320388,46.407767 C48.9320388,40 48.8349515,33.7864078 48.9320388,27.4757282 Z" id="Shape" fill="#FE7F01" fill-rule="nonzero"></path>
                <path d="M86.3106796,46.6019417 C86.3106796,39.223301 86.3106796,31.7475728 86.3106796,24.368932 C83.4951456,22.2330097 80.5825243,20.1941748 77.6699029,18.1553398 C65.4368932,18.1553398 51.8446602,17.961165 39.7087379,18.2524272 C39.7087379,30.3883495 39.5145631,43.2038835 39.8058252,55.3398058 C47.8640777,55.631068 55.9223301,55.3398058 64.0776699,55.4368932 C68.5436893,55.3398058 73.1067961,55.631068 77.5728155,55.2427184 C80.3883495,53.3009709 83.3009709,51.2621359 86.0194175,49.223301 C86.3106796,48.3495146 86.407767,47.5728155 86.3106796,46.6019417 Z M76.0194175,44.8543689 C75.0485437,45.5339806 74.0776699,46.3106796 72.9126214,46.7961165 C65.7281553,46.7961165 58.6407767,46.7961165 51.4563107,46.7961165 C50.5825243,46.8932039 49.7087379,46.6990291 48.9320388,46.407767 C48.9320388,40.0970874 48.9320388,33.7864078 48.9320388,27.4757282 C56.6990291,27.0873786 64.9514563,27.3786408 72.815534,27.2815534 C73.9805825,27.0873786 75.0485437,28.2524272 76.1165049,28.8349515 C76.3106796,33.8834951 76.5048544,39.9029126 76.0194175,44.8543689 Z" id="Shape" fill="#FFFFFF" fill-rule="nonzero"></path>
                <path d="M84.6601942,25.2427184 C82.4271845,23.3009709 79.7087379,21.6504854 77.2815534,19.8058252 C66.0194175,19.4174757 53.2038835,19.8058252 41.7475728,19.7087379 L41.4563107,20.3883495 C41.5533981,31.5533981 41.4563107,42.6213592 41.5533981,53.7864078 C53.3009709,53.7864078 65.0485437,53.8834951 76.7961165,53.7864078 C79.3203883,51.8446602 82.6213592,50.0970874 84.7572816,47.7669903 C84.5631068,40.1941748 84.6601942,32.7184466 84.6601942,25.2427184 Z M76.0194175,44.8543689 C75.0485437,45.5339806 74.0776699,46.3106796 72.9126214,46.7961165 C65.7281553,46.7961165 58.6407767,46.7961165 51.4563107,46.7961165 C50.5825243,46.8932039 49.7087379,46.6990291 48.9320388,46.407767 C48.9320388,40.0970874 48.9320388,33.7864078 48.9320388,27.4757282 C56.6990291,27.0873786 64.9514563,27.3786408 72.815534,27.2815534 C73.9805825,27.0873786 75.0485437,28.2524272 76.1165049,28.8349515 C76.3106796,33.8834951 76.5048544,39.9029126 76.0194175,44.8543689 Z" id="Shape" fill="#073C78" fill-rule="nonzero"></path>
                <path d="M166.796117,38.0582524 C168.932039,39.1262136 170.873786,39.7087379 173.203883,40.2912621 C173.495146,42.038835 173.786408,43.0097087 175.048544,44.368932 C175.825243,46.3106796 173.300971,47.8640777 173.203883,50.0970874 C170.776699,52.1359223 167.76699,51.7475728 165.436893,53.8834951 C163.300971,55.3398058 162.718447,57.4757282 161.359223,59.5145631 C158.446602,63.6893204 155.631068,67.961165 152.524272,72.038835 C150.679612,74.368932 150.485437,77.4757282 147.76699,79.0291262 C143.883495,80.9708738 138.446602,82.5242718 134.854369,85.5339806 C133.68932,86.9902913 131.941748,87.184466 131.747573,89.223301 L134.757282,88.9320388 C131.067961,91.7475728 124.951456,94.2718447 120.291262,93.0097087 C125.92233,91.6504854 128.737864,84.5631068 124.660194,80.0970874 C121.650485,77.6699029 117.76699,76.3106796 115.242718,73.0097087 C114.07767,70.8737864 114.660194,67.6699029 114.174757,65.4368932 C112.135922,65.1456311 112.135922,64.9514563 111.165049,66.8932039 L110.097087,66.7961165 C108.932039,62.815534 112.427184,60.5825243 111.359223,56.6990291 C109.61165,55.0485437 106.504854,55.631068 106.407767,58.3495146 C106.31068,62.1359223 106.893204,65.8252427 106.213592,69.6116505 C105.728155,70.8737864 104.368932,71.0679612 103.203883,71.4563107 C102.330097,73.1067961 102.815534,73.6893204 103.592233,75.1456311 C106.893204,77.2815534 112.330097,77.2815534 115.048544,80.1941748 C116.893204,82.4271845 114.660194,84.2718447 114.174757,86.6019417 C114.951456,88.6407767 116.504854,90.0970874 115.533981,92.4271845 C115.242718,94.1747573 113.495146,94.8543689 114.07767,96.6990291 C118.737864,96.9902913 123.495146,95.9223301 128.15534,95.3398058 C131.262136,94.9514563 132.135922,92.6213592 134.368932,90.8737864 C135.339806,89.8058252 136.990291,89.9029126 137.961165,88.9320388 L135.048544,89.1262136 C137.087379,86.0194175 140.485437,89.223301 142.815534,90.2912621 C145.825243,92.815534 142.912621,95.5339806 141.165049,97.7669903 C139.61165,98.8349515 139.61165,100.582524 138.543689,101.941748 C135.048544,103.883495 132.815534,100.291262 128.932039,101.747573 C127.572816,101.941748 124.951456,104.271845 124.07767,102.427184 C124.757282,102.135922 125.436893,101.747573 126.019417,101.359223 C121.941748,102.330097 117.864078,103.009709 113.68932,103.009709 C111.067961,103.106796 106.796117,103.980583 104.660194,102.135922 C105.048544,101.456311 105.339806,100.776699 105.728155,100.097087 C103.106796,96.6990291 103.68932,93.592233 104.271845,89.7087379 C102.524272,93.4951456 101.456311,98.0582524 101.84466,102.23301 C102.135922,104.757282 104.660194,105.242718 106.796117,105.242718 C112.718447,105.436893 118.543689,104.271845 124.174757,102.427184 L124.07767,103.786408 C119.126214,105.533981 113.883495,106.699029 108.640777,106.699029 C106.31068,107.184466 104.368932,108.737864 102.135922,109.417476 C97.6699029,110.679612 92.815534,111.067961 88.2524272,111.456311 L87.184466,110.776699 L87.3786408,110 C88.9320388,109.902913 90.4854369,109.708738 92.038835,109.61165 C92.2330097,108.834951 92.2330097,108.058252 92.038835,107.475728 C89.6116505,106.116505 85.7281553,107.378641 83.592233,105.92233 C83.592233,105.048544 83.8834951,104.660194 84.6601942,104.757282 C89.8058252,104.368932 95.5339806,104.563107 100.582524,105.242718 C100.679612,103.592233 99.5145631,102.135922 99.8058252,100.38835 C99.6116505,98.0582524 100.873786,95.8252427 100.582524,93.4951456 C98.5436893,91.8446602 96.6019417,91.6504854 94.1747573,92.7184466 C88.6407767,95.2427184 82.7184466,96.6990291 76.6990291,96.7961165 C74.8543689,96.6990291 73.4951456,98.2524272 74.2718447,100 C74.6601942,101.165049 76.6990291,100.873786 76.6019417,102.135922 C74.1747573,104.466019 71.3592233,106.990291 68.1553398,108.252427 C67.961165,106.699029 69.0291262,104.854369 67.4757282,103.883495 C64.6601942,102.23301 61.2621359,102.815534 58.7378641,104.757282 C56.0194175,106.990291 53.2038835,109.223301 50,110.873786 C49.5145631,109.514563 50.776699,108.349515 51.3592233,107.087379 C53.9805825,102.427184 57.3786408,98.7378641 61.9417476,95.8252427 C54.5631068,98.3495146 49.0291262,104.951456 44.8543689,111.262136 C41.1650485,116.504854 37.3786408,121.747573 32.6213592,126.213592 C30.6796117,127.961165 28.7378641,131.553398 25.7281553,130 C24.8543689,128.446602 26.6019417,126.504854 27.0873786,124.854369 C25.3398058,125.825243 24.1747573,127.572816 22.7184466,128.834951 C19.8058252,131.84466 16.407767,135.242718 14.9514563,139.223301 C15.631068,140.776699 15.631068,142.330097 15.1456311,143.883495 L16.407767,143.495146 C20.0970874,139.708738 21.8446602,135.048544 27.2815534,133.106796 C30.2912621,133.203883 34.0776699,132.718447 36.6019417,131.067961 C40.0970874,127.76699 42.5242718,123.398058 46.0194175,120 C50,116.019417 54.6601942,111.84466 59.7087379,109.417476 C60.3883495,109.029126 61.0679612,109.029126 61.9417476,109.320388 C62.038835,110.194175 61.7475728,111.067961 61.0679612,111.747573 C55.8252427,119.417476 49.223301,127.864078 40.8737864,132.23301 C42.815534,132.135922 44.7572816,131.067961 46.5048544,130.291262 C53.0097087,126.796117 59.1262136,122.23301 63.9805825,116.699029 C68.3495146,111.067961 74.2718447,106.893204 81.3592233,105.728155 L80.9708738,106.504854 C76.6019417,109.320388 71.6504854,111.941748 68.1553398,115.728155 C73.6893204,112.912621 79.6116505,111.262136 85.7281553,110.291262 L86.7961165,111.067961 C86.8932039,112.330097 85.631068,113.203883 84.9514563,114.368932 C82.1359223,117.087379 81.4563107,120.679612 77.4757282,122.427184 C71.9417476,125.145631 67.3786408,122.038835 62.038835,122.621359 L61.6504854,123.68932 C65.4368932,128.446602 65.0485437,134.660194 61.1650485,139.126214 C57.961165,141.165049 52.9126214,139.805825 50.2912621,137.184466 C49.6116505,134.368932 54.4660194,132.427184 53.7864078,130.097087 L52.5242718,129.902913 C45.5339806,133.398058 37.4757282,135.145631 29.9029126,136.796117 C24.5631068,139.126214 20.3883495,144.660194 16.7961165,149.126214 C14.9514563,150.485437 12.9126214,152.135922 10.6796117,152.621359 C7.47572816,153.203883 6.7961165,149.223301 3.49514563,148.349515 C3.00970874,147.378641 2.81553398,144.368932 3.39805825,143.398058 C6.50485437,140.194175 10.5825243,138.932039 14.0776699,136.699029 C16.9902913,132.524272 20.3883495,128.737864 24.0776699,125.242718 C25.631068,123.980583 27.0873786,122.621359 29.223301,123.592233 C30.4854369,124.174757 31.6504854,123.980583 32.6213592,123.106796 C38.4466019,118.349515 42.815534,111.165049 47.0873786,105.048544 L47.184466,103.883495 C42.9126214,103.883495 38.9320388,107.281553 35.631068,109.708738 C34.0776699,110.679612 33.8834951,112.135922 31.9417476,112.330097 L31.3592233,111.84466 C28.2524272,114.271845 24.5631068,117.572816 20.3883495,117.475728 C18.6407767,117.378641 17.5728155,115.92233 15.8252427,116.019417 C15.8252427,116.796117 16.2135922,117.669903 16.9902913,118.543689 C13.9805825,118.932039 13.4951456,113.980583 14.7572816,112.135922 C16.3106796,108.640777 21.3592233,108.349515 23.9805825,105.92233 C25.0485437,105.048544 25.7281553,103.786408 26.6990291,102.718447 C28.1553398,101.650485 30.5825243,103.495146 29.6116505,105.242718 C27.961165,109.902913 22.1359223,109.514563 18.9320388,112.524272 C17.6699029,114.660194 19.1262136,116.019417 21.3592233,115.825243 C25.4368932,115.339806 28.4466019,110.873786 31.3592233,108.349515 C36.9902913,103.106796 43.9805825,98.2524272 52.038835,98.8349515 C53.8834951,97.5728155 55.631068,95.9223301 57.6699029,94.9514563 C61.1650485,94.2718447 64.4660194,93.2038835 67.184466,90.8737864 C75.2427184,83.7864078 84.5631068,78.8349515 94.2718447,74.2718447 C97.0873786,73.2038835 96.5048544,70.5825243 98.2524272,68.5436893 C99.5145631,66.8932039 101.262136,65.631068 102.427184,63.9805825 C103.495146,62.1359223 102.815534,59.4174757 103.495146,57.3786408 C104.368932,55.2427184 101.456311,53.7864078 102.621359,51.5533981 C104.368932,51.7475728 105.92233,51.8446602 107.281553,50.3883495 C108.834951,47.7669903 110.970874,45.5339806 113.883495,44.368932 C117.184466,43.0097087 120.679612,40.6796117 124.368932,41.4563107 C127.864078,42.3300971 131.456311,42.5242718 134.854369,43.2038835 C136.213592,43.9805825 138.446602,45.2427184 137.184466,47.0873786 C136.407767,48.5436893 136.796117,49.9029126 136.601942,51.5533981 C135.145631,51.4563107 133.398058,50.8737864 132.038835,51.7475728 C131.456311,52.4271845 131.262136,53.3009709 131.553398,54.368932 C132.330097,54.5631068 133.106796,54.7572816 133.980583,54.8543689 C134.757282,54.4660194 135.436893,54.0776699 136.116505,53.592233 C136.504854,55.631068 136.893204,57.6699029 137.281553,59.7087379 C135.92233,63.4951456 132.815534,61.8446602 129.61165,63.2038835 L129.514563,64.1747573 C132.718447,64.7572816 137.76699,66.5048544 140.582524,64.2718447 C143.883495,62.2330097 146.796117,59.5145631 149.708738,56.8932039 C153.592233,53.3980583 157.378641,50.1941748 159.514563,45.3398058 C160.873786,42.1359223 163.009709,37.5728155 166.796117,38.0582524 Z" id="Shape" fill="#073C78" fill-rule="nonzero"></path>
                <path d="M165.728155,40.0970874 L165.92233,41.4563107 C163.398058,40.1941748 162.718447,46.1165049 165.048544,46.3106796 C169.126214,46.3106796 165.728155,41.3592233 169.902913,40.8737864 C170.582524,41.6504854 170.679612,42.9126214 170.194175,44.5631068 C171.262136,44.5631068 172.23301,44.0776699 173.203883,43.0097087 C173.300971,44.0776699 173.398058,45.1456311 173.592233,46.2135922 C172.815534,47.2815534 172.621359,48.4466019 172.038835,49.5145631 C169.61165,50.2912621 165.825243,52.6213592 163.398058,51.4563107 C161.553398,52.3300971 161.747573,54.0776699 160.291262,55.2427184 C158.640777,56.6990291 156.601942,58.0582524 154.660194,59.0291262 C156.796117,56.5048544 158.932039,52.3300971 162.23301,51.4563107 C160.38835,47.961165 162.330097,44.7572816 163.495146,41.6504854 C163.398058,40.2912621 164.660194,40.4854369 165.728155,40.0970874 Z" id="Shape" fill="#FFFFFF" fill-rule="nonzero"></path>
                <path d="M123.300971,42.2330097 C126.504854,42.7184466 129.708738,43.4951456 132.912621,43.6893204 C132.621359,44.368932 132.427184,44.9514563 132.135922,45.631068 C132.718447,46.3106796 133.495146,46.7961165 134.660194,47.0873786 C134.660194,47.6699029 134.660194,48.2524272 134.563107,48.8349515 C133.009709,48.9320388 131.262136,48.5436893 129.805825,49.0291262 C129.805825,50.0970874 129.805825,51.0679612 129.708738,52.1359223 C128.834951,51.3592233 128.15534,50.3883495 127.475728,49.5145631 C127.087379,51.4563107 126.116505,52.7184466 124.951456,54.368932 C127.864078,54.8543689 129.417476,58.7378641 132.621359,57.7669903 C132.621359,56.7961165 132.718447,56.0194175 133.009709,55.2427184 C133.980583,56.3106796 134.854369,57.2815534 136.019417,58.1553398 C135.436893,61.2621359 132.038835,59.3203883 130.097087,59.0291262 C125.048544,58.0582524 122.912621,61.9417476 118.349515,62.4271845 C114.854369,61.2621359 114.466019,58.3495146 113.883495,55.1456311 C111.067961,52.6213592 105.728155,55.7281553 103.786408,52.7184466 C106.699029,53.4951456 109.417476,53.0097087 112.135922,51.9417476 C113.592233,51.4563107 114.951456,50.5825243 116.504854,51.3592233 C116.893204,53.1067961 116.407767,54.5631068 116.31068,56.3106796 C116.796117,57.8640777 117.669903,58.9320388 119.223301,59.5145631 C118.446602,57.6699029 117.475728,56.6990291 118.446602,54.5631068 C119.417476,54.5631068 120.38835,54.6601942 121.359223,54.6601942 C122.23301,52.6213592 122.815534,51.2621359 124.07767,49.4174757 C121.941748,49.7087379 120.097087,53.4951456 118.446602,52.4271845 C118.737864,49.1262136 124.368932,49.223301 125.242718,46.9902913 C122.621359,47.184466 120.679612,48.5436893 118.058252,47.8640777 C117.281553,45.5339806 121.165049,42.5242718 123.300971,42.2330097 Z" id="Shape" fill="#FFFFFF" fill-rule="nonzero"></path>
                <path d="M125.728155,43.9805825 C127.281553,46.1165049 122.427184,46.5048544 121.262136,46.5048544 C122.718447,45.3398058 123.786408,44.0776699 125.728155,43.9805825 Z" id="Shape" fill="#073C78" fill-rule="nonzero"></path>
                <path d="M171.84466,48.5436893 C169.223301,49.9029126 166.990291,51.3592233 163.883495,50.5825243 C163.106796,49.1262136 165.631068,48.0582524 166.504854,47.0873786 C168.15534,45.2427184 171.747573,45.8252427 171.84466,48.5436893 Z" id="Shape" fill="#073C78" fill-rule="nonzero"></path>
                <path d="M101.747573,47.5728155 L101.747573,48.1553398 C98.9320388,50 100.873786,53.6893204 101.650485,56.2135922 C101.165049,58.3495146 100.970874,60.5825243 100.776699,62.815534 C99.3203883,64.5631068 97.0873786,65.9223301 96.0194175,67.8640777 C95.0485437,70.0970874 95.1456311,72.4271845 92.1359223,72.6213592 C94.8543689,71.3592233 94.7572816,69.3203883 96.2135922,66.9902913 C92.9126214,68.3495146 90,71.2621359 86.8932039,73.3009709 C74.8543689,73.592233 60.5825243,73.1067961 48.8349515,73.592233 C48.9320388,78.4466019 48.8349515,83.3009709 48.9320388,88.1553398 C52.038835,88.3495146 55.1456311,88.0582524 58.3495146,88.2524272 C58.7378641,89.223301 58.8349515,90.4854369 58.6407767,92.1359223 C64.4660194,91.1650485 66.9902913,87.184466 71.5533981,84.0776699 C76.407767,80.5825243 81.6504854,77.4757282 86.9902913,74.9514563 C86.1165049,75.9223301 85.0485437,76.3106796 83.9805825,76.8932039 C77.961165,80.0970874 72.038835,83.7864078 66.8932039,88.2524272 C62.5242718,92.7184466 56.1165049,91.8446602 51.6504854,96.3106796 C44.0776699,96.5048544 37.7669903,99.9029126 32.1359223,104.757282 L31.6504854,103.203883 C32.7184466,103.592233 33.592233,103.300971 34.2718447,102.427184 C38.5436893,99.4174757 43.0097087,96.8932039 48.2524272,96.3106796 L50,95.7281553 C50,94.6601942 50,93.592233 50,92.4271845 C47.184466,92.2330097 44.2718447,92.4271845 41.4563107,92.3300971 C41.1650485,83.4951456 41.2621359,74.4660194 41.4563107,65.631068 C55.7281553,65.631068 70.3883495,65.7281553 84.5631068,65.5339806 C89.9029126,61.8446602 95.0485437,57.8640777 100.291262,54.1747573 C100.485437,53.592233 100.38835,53.0097087 100,52.4271845 C99.6116505,51.1650485 99.9029126,47.8640777 101.747573,47.5728155 Z" id="Shape" fill="#073C78" fill-rule="nonzero"></path>
                <path d="M99.9029126,52.6213592 C100.291262,53.2038835 100.38835,53.7864078 100.194175,54.368932 C94.9514563,58.0582524 89.7087379,62.038835 84.4660194,65.7281553 C70.2912621,65.9223301 55.5339806,65.8252427 41.3592233,65.8252427 C41.1650485,74.6601942 41.1650485,83.6893204 41.3592233,92.5242718 C44.1747573,92.5242718 47.0873786,92.4271845 49.9029126,92.6213592 C49.9029126,93.6893204 50,94.7572816 49.9029126,95.9223301 L48.1553398,96.5048544 L48.0582524,94.4660194 C45.5339806,93.7864078 42.3300971,94.5631068 39.7087379,94.1747573 L39.4174757,93.3980583 C39.4174757,83.9805825 39.5145631,74.5631068 39.3203883,65.1456311 L39.8058252,64.5631068 C53.9805825,64.2718447 69.0291262,64.5631068 83.3009709,64.368932 C89.1262136,60.6796117 94.2718447,56.2135922 99.9029126,52.6213592 Z" id="Shape" fill="#FFFFFF" fill-rule="nonzero"></path>
                <path d="M111.359223,56.6019417 C112.427184,60.4854369 109.029126,62.7184466 110.097087,66.6990291 L111.165049,66.7961165 C112.038835,64.8543689 112.135922,65.0485437 114.174757,65.3398058 C114.660194,67.5728155 114.07767,70.776699 115.242718,72.9126214 C117.864078,76.2135922 121.650485,77.5728155 124.660194,80 C128.737864,84.4660194 125.92233,91.5533981 120.291262,92.9126214 C124.951456,94.1747573 131.067961,91.7475728 134.757282,88.8349515 L135.048544,88.8349515 L137.961165,88.6407767 C136.990291,89.6116505 135.339806,89.5145631 134.368932,90.5825243 C132.135922,92.3300971 131.262136,94.6601942 128.15534,95.0485437 C123.592233,95.7281553 118.737864,96.6990291 114.07767,96.407767 C113.495146,94.5631068 115.242718,93.8834951 115.533981,92.1359223 C116.407767,89.8058252 114.854369,88.3495146 114.174757,86.3106796 C114.563107,83.9805825 116.893204,82.2330097 115.048544,79.9029126 C112.427184,76.9902913 106.990291,76.9902913 103.592233,74.8543689 C102.718447,73.3980583 102.330097,72.815534 103.203883,71.1650485 C104.368932,70.776699 105.631068,70.4854369 106.213592,69.3203883 C106.893204,65.5339806 106.31068,61.8446602 106.407767,58.0582524 C106.504854,55.5339806 109.61165,54.9514563 111.359223,56.6019417 Z" id="Shape" fill="#FFFFFF" fill-rule="nonzero"></path>
                <path d="M157.184466,60.5825243 C155.048544,63.0097087 152.912621,65.1456311 151.747573,68.2524272 C150.485437,71.3592233 148.932039,75.631068 146.116505,77.7669903 C147.184466,76.0194175 148.543689,73.8834951 148.640777,71.7475728 L147.669903,71.7475728 C143.980583,74.0776699 140.097087,76.0194175 136.504854,78.3495146 C133.495146,80.8737864 130.970874,84.1747573 128.446602,87.2815534 C128.737864,85.5339806 129.902913,83.3009709 129.223301,81.6504854 C127.378641,76.6019417 121.359223,76.6990291 118.543689,71.7475728 C116.796117,69.3203883 118.15534,66.7961165 120.873786,66.2135922 C120.970874,69.0291262 121.747573,71.6504854 123.786408,73.592233 C123.300971,71.0679612 122.621359,68.7378641 123.592233,66.2135922 C124.271845,66.1165049 124.854369,66.1165049 125.533981,66.3106796 C125.728155,67.961165 125.825243,71.4563107 127.76699,71.9417476 C127.281553,69.5145631 127.669903,66.407767 128.834951,64.2718447 C131.067961,65.3398058 133.786408,65.9223301 135.825243,67.0873786 C134.757282,68.6407767 134.854369,68.2524272 135.728155,69.9029126 C134.854369,72.5242718 132.912621,71.4563107 131.84466,73.0097087 C135.92233,74.0776699 140.291262,72.2330097 143.883495,70.3883495 C149.029126,67.7669903 152.524272,63.592233 157.184466,60.5825243 Z" id="Shape" fill="#FFFFFF" fill-rule="nonzero"></path>
                <path d="M154.174757,73.592233 C153.300971,76.407767 151.553398,79.3203883 149.029126,80.9708738 C146.019417,82.7184466 142.135922,83.3980583 139.223301,85.4368932 C141.262136,86.7961165 143.786408,87.6699029 145.631068,89.3203883 C146.893204,91.1650485 146.504854,92.9126214 146.31068,94.9514563 C154.368932,100.38835 162.23301,106.116505 170.194175,111.553398 L170.38835,112.427184 C170.291262,119.126214 170.679612,128.349515 170,134.660194 C158.932039,134.660194 147.76699,134.660194 136.699029,134.660194 C136.213592,131.165049 136.699029,126.796117 136.504854,123.203883 C136.699029,121.650485 135.436893,121.650485 134.466019,120.776699 C126.601942,120.679612 118.834951,120.776699 110.970874,120.679612 C109.61165,121.067961 108.543689,122.330097 107.281553,123.009709 C107.378641,138.737864 107.087379,156.116505 107.475728,171.650485 C108.834951,172.330097 110.097087,173.68932 111.553398,173.883495 C118.737864,173.786408 125.92233,173.883495 133.009709,173.883495 C134.368932,173.398058 135.533981,172.524272 136.601942,171.553398 C136.504854,167.087379 136.699029,162.524272 136.504854,158.058252 L136.893204,157.475728 C147.76699,157.475728 158.737864,157.378641 169.61165,157.475728 L170,158.15534 C169.902913,165.92233 170,173.68932 169.902913,181.456311 L169.417476,182.038835 C162.135922,187.378641 154.757282,192.621359 147.378641,197.864078 C146.31068,198.640777 145.048544,200 143.495146,199.708738 C127.669903,199.61165 111.84466,199.708738 96.0194175,199.61165 C88.8349515,194.563107 81.5533981,189.417476 74.368932,184.368932 C73.1067961,183.398058 71.4563107,182.524272 70.5825243,181.262136 C70.5825243,162.621359 70.776699,143.68932 70.4854369,125.048544 C68.6407767,124.757282 66.8932039,124.466019 65.0485437,124.271845 C67.2815534,129.320388 66.6019417,133.980583 63.8834951,138.640777 C64.5631068,135.825243 66.2135922,132.815534 66.1165049,129.805825 C65.631068,127.864078 65.2427184,126.019417 64.9514563,124.07767 C67.184466,123.883495 69.4174757,124.757282 71.7475728,124.757282 C76.2135922,124.951456 80.8737864,122.718447 83.3980583,119.126214 C84.5631068,116.990291 86.0194175,114.757282 87.7669903,113.009709 C90.0970874,112.621359 92.6213592,112.718447 94.9514563,112.815534 C92.815534,113.203883 90.4854369,112.912621 88.3495146,113.300971 C85.2427184,115.728155 84.0776699,119.902913 80.8737864,122.524272 L79.6116505,123.300971 L79.223301,124.07767 C79.223301,142.038835 79.3203883,160 79.223301,177.961165 C86.0194175,182.912621 93.0097087,187.76699 100,192.427184 C114.174757,192.330097 128.543689,192.524272 142.815534,192.330097 C149.320388,187.669903 156.504854,182.718447 162.815534,177.864078 C162.718447,173.398058 162.912621,169.029126 162.718447,164.563107 C156.893204,164.563107 151.165049,164.563107 145.339806,164.563107 C145.242718,168.058252 145.339806,171.553398 145.339806,174.951456 C142.330097,176.893204 139.417476,179.514563 136.213592,180.970874 C127.087379,180.873786 117.961165,180.970874 108.932039,180.873786 C106.019417,178.737864 102.912621,176.893204 100.097087,174.563107 C100.194175,156.796117 100.097087,138.932039 100.097087,121.165049 C100,120.194175 100.194175,119.320388 100.582524,118.640777 C103.398058,116.893204 106.019417,114.757282 108.834951,113.009709 C118.252427,113.009709 127.76699,113.106796 137.184466,113.009709 C139.902913,114.07767 142.427184,116.504854 144.951456,118.058252 C145.728155,120.679612 144.757282,124.368932 145.436893,127.087379 C150.970874,126.699029 157.669903,127.475728 163.009709,126.699029 C162.912621,123.009709 163.68932,118.15534 162.912621,114.757282 C156.407767,110.291262 150,105.631068 143.495146,101.262136 L141.456311,101.262136 C142.524272,97.4757282 148.058252,95.0485437 146.019417,90 C144.174757,87.7669903 140.970874,86.2135922 138.252427,85.5339806 C141.553398,82.7184466 145.728155,82.2330097 149.320388,80.0970874 C151.650485,79.0291262 152.23301,75.631068 154.174757,73.592233 Z" id="Shape" fill="#073C78" fill-rule="nonzero"></path>
                <path d="M95.1456311,75.9223301 C90.4854369,78.9320388 86.407767,81.3592233 81.8446602,84.7572816 C77.2815534,88.0582524 72.7184466,92.5242718 67.0873786,93.8834951 C67.5728155,92.4271845 69.3203883,91.8446602 70.2912621,90.776699 C76.5048544,85.4368932 83.6893204,81.1650485 90.9708738,77.4757282 C92.3300971,76.7961165 93.592233,76.0194175 95.1456311,75.9223301 Z" id="Shape" fill="#FFFFFF" fill-rule="nonzero"></path>
                <path d="M104.368932,89.5145631 C103.786408,93.4951456 103.203883,96.5048544 105.825243,99.9029126 C105.436893,100.582524 105.145631,101.262136 104.757282,101.941748 C106.893204,103.786408 111.067961,103.009709 113.786408,102.815534 C117.961165,102.912621 122.038835,102.135922 126.116505,101.165049 C125.533981,101.553398 124.854369,101.941748 124.174757,102.23301 C118.543689,104.07767 112.718447,105.242718 106.796117,105.048544 C104.660194,104.951456 102.135922,104.563107 101.84466,102.038835 C101.456311,97.7669903 102.621359,93.3009709 104.368932,89.5145631 Z" id="Shape" fill="#FFFFFF" fill-rule="nonzero"></path>
                <path d="M100.582524,93.1067961 C100.873786,95.4368932 99.6116505,97.6699029 99.8058252,100 C99.5145631,101.84466 100.679612,103.203883 100.582524,104.854369 C95.5339806,104.174757 89.8058252,104.07767 84.6601942,104.368932 C83.8834951,104.271845 83.592233,104.660194 83.592233,105.533981 C85.631068,106.893204 89.6116505,105.728155 92.038835,107.087379 C92.3300971,107.76699 92.3300971,108.446602 92.038835,109.223301 C90.4854369,109.417476 88.9320388,109.514563 87.3786408,109.61165 L87.184466,110.38835 L86.6990291,110.485437 L85.631068,109.708738 C79.5145631,110.776699 73.592233,112.330097 68.1553398,115.145631 C71.6504854,111.359223 76.6990291,108.737864 80.9708738,105.92233 L81.3592233,105.145631 C74.2718447,106.31068 68.3495146,110.582524 63.9805825,116.116505 C59.1262136,121.650485 53.0097087,126.213592 46.5048544,129.708738 C44.7572816,130.582524 42.815534,131.650485 40.8737864,131.650485 C49.223301,127.281553 55.7281553,118.737864 61.0679612,111.165049 C61.6504854,110.485437 61.9417476,109.708738 61.9417476,108.737864 C61.0679612,108.446602 60.2912621,108.446602 59.7087379,108.834951 C54.5631068,111.262136 50,115.436893 46.0194175,119.417476 C42.6213592,122.815534 40.0970874,127.184466 36.6019417,130.485437 C34.0776699,132.23301 30.2912621,132.621359 27.2815534,132.524272 C21.9417476,134.466019 20.0970874,139.126214 16.407767,142.912621 L15.1456311,143.300971 C15.631068,141.747573 15.631068,140.194175 14.9514563,138.640777 C16.5048544,134.660194 19.8058252,131.262136 22.7184466,128.252427 C24.1747573,126.893204 25.4368932,125.145631 27.184466,124.271845 C26.7961165,125.92233 25.0485437,127.76699 25.8252427,129.417476 C28.8349515,131.067961 30.776699,127.378641 32.7184466,125.631068 C37.3786408,121.165049 41.1650485,115.92233 44.9514563,110.679612 C49.1262136,104.368932 54.6601942,97.7669903 62.038835,95.2427184 C57.4757282,98.1553398 54.0776699,101.747573 51.4563107,106.504854 C50.8737864,107.669903 49.6116505,108.932039 50.0970874,110.291262 C53.3009709,108.640777 56.1165049,106.407767 58.8349515,104.174757 C61.3592233,102.23301 64.7572816,101.747573 67.5728155,103.300971 C69.1262136,104.271845 68.0582524,106.116505 68.2524272,107.669903 C71.4563107,106.504854 74.2718447,103.883495 76.6990291,101.553398 C76.7961165,100.291262 74.7572816,100.582524 74.368932,99.4174757 C73.592233,97.6699029 75.0485437,96.1165049 76.7961165,96.2135922 C82.815534,96.1165049 88.8349515,94.6601942 94.2718447,92.1359223 C96.5048544,91.1650485 98.5436893,91.4563107 100.582524,93.1067961 Z" id="Shape" fill="#FFFFFF" fill-rule="nonzero"></path>
                <path d="M141.165049,101.747573 L141.165049,101.553398 L143.203883,101.553398 C149.708738,106.019417 156.116505,110.679612 162.621359,115.048544 C163.398058,118.543689 162.621359,123.300971 162.718447,126.990291 C157.378641,127.76699 150.679612,126.990291 145.145631,127.378641 C144.466019,124.563107 145.436893,120.970874 144.660194,118.349515 C142.135922,116.796117 139.61165,114.368932 136.893204,113.300971 C127.475728,113.398058 117.961165,113.398058 108.543689,113.300971 C105.728155,115.048544 103.106796,117.087379 100.291262,118.932039 C99.9029126,119.61165 99.7087379,120.485437 99.8058252,121.456311 C99.8058252,139.223301 99.9029126,157.087379 99.8058252,174.854369 C102.524272,177.184466 105.728155,179.126214 108.640777,181.165049 C117.76699,181.262136 126.893204,181.165049 135.92233,181.262136 C139.126214,179.805825 142.038835,177.184466 145.048544,175.242718 C145.048544,171.747573 144.951456,168.252427 145.048544,164.854369 C150.873786,164.854369 156.601942,164.854369 162.427184,164.854369 C162.524272,169.320388 162.427184,173.68932 162.524272,178.15534 C156.213592,183.009709 149.029126,187.961165 142.524272,192.621359 C128.252427,192.718447 113.980583,192.621359 99.7087379,192.718447 C92.7184466,187.961165 85.7281553,183.203883 79.0291262,178.252427 C79.1262136,160.291262 79.0291262,142.330097 79.0291262,124.368932 L79.4174757,123.592233 L80.776699,123.009709 C80.5825243,140.38835 80.776699,157.669903 80.6796117,175.048544 C80.5825243,175.92233 80.5825243,176.796117 80.8737864,177.572816 C86.8932039,182.038835 94.0776699,187.087379 100.291262,191.067961 C114.174757,191.165049 128.252427,191.165049 142.135922,191.067961 C148.15534,186.407767 154.563107,182.23301 160.582524,177.572816 C160.970874,173.980583 160.582524,170.291262 160.679612,166.601942 C156.019417,166.504854 151.359223,166.504854 146.796117,166.601942 C146.699029,169.417476 146.699029,172.330097 146.893204,175.145631 C146.407767,177.087379 143.592233,178.252427 142.135922,179.417476 C139.417476,181.165049 137.475728,183.592233 133.883495,183.009709 C125.436893,183.009709 116.990291,182.912621 108.543689,183.106796 C104.951456,181.359223 101.84466,178.446602 98.4466019,176.504854 C97.8640777,175.242718 98.2524272,173.592233 98.1553398,172.23301 C98.1553398,155.048544 98.1553398,137.864078 98.1553398,120.776699 C98.1553398,119.902913 98.2524272,119.126214 98.4466019,118.349515 C101.553398,116.699029 104.271845,114.368932 107.184466,112.524272 C110,111.456311 112.621359,112.135922 115.533981,112.135922 C121.067961,112.135922 126.504854,112.135922 132.038835,112.135922 C134.660194,112.038835 136.796117,111.262136 139.126214,112.718447 C141.553398,114.563107 144.174757,116.116505 146.504854,118.058252 C147.087379,120.582524 146.31068,123.495146 146.893204,126.116505 C151.553398,126.116505 156.213592,126.213592 160.776699,126.116505 C161.553398,123.300971 160.970874,119.902913 161.359223,116.990291 C158.446602,114.271845 154.854369,112.330097 151.747573,109.902913 C148.252427,107.76699 144.951456,104.466019 141.067961,103.106796 L141.165049,101.747573 Z" id="Shape" fill="#FFFFFF" fill-rule="nonzero"></path>
                <path d="M34.2718447,102.427184 C33.592233,103.398058 32.7184466,103.592233 31.6504854,103.203883 C31.7475728,102.038835 32.6213592,101.747573 34.2718447,102.427184 Z" id="Shape" fill="#FFFFFF" fill-rule="nonzero"></path>
                <path d="M39.8058252,108.932039 L41.0679612,109.417476 C38.3495146,113.398058 35.5339806,117.184466 32.038835,120.485437 L31.0679612,121.165049 C29.9029126,121.067961 28.7378641,120.970874 27.5728155,120.679612 L28.0582524,119.223301 C32.4271845,116.504854 35.4368932,111.941748 39.8058252,108.932039 Z" id="Shape" fill="#FFFFFF" fill-rule="nonzero"></path>
                <path d="M31.3592233,111.553398 L31.9417476,112.038835 C31.6504854,112.621359 31.2621359,113.106796 30.776699,113.495146 L30.0970874,114.07767 C27.6699029,114.951456 26.3106796,117.281553 23.7864078,117.961165 C21.6504854,119.029126 19.7087379,118.640777 17.4757282,118.349515 L16.9902913,118.15534 C16.2135922,117.281553 15.8252427,116.407767 15.8252427,115.631068 C17.5728155,115.533981 18.6407767,116.990291 20.3883495,117.087379 C24.5631068,117.281553 28.2524272,113.980583 31.3592233,111.553398 Z" id="Shape" fill="#FFFFFF" fill-rule="nonzero"></path>
                <path d="M30.776699,113.495146 L30.0970874,114.07767 L30.776699,113.495146 Z" id="Shape" fill="#073C78" fill-rule="nonzero"></path>
                <path d="M30.0970874,114.07767 C29.1262136,116.893204 25.0485437,118.834951 22.3300971,119.514563 C20.8737864,119.417476 17.961165,120.194175 17.4757282,118.349515 C19.7087379,118.640777 21.5533981,119.029126 23.7864078,117.961165 C26.407767,117.281553 27.7669903,114.951456 30.0970874,114.07767 Z" id="Shape" fill="#073C78" fill-rule="nonzero"></path>
                <path d="M82.2330097,113.980583 C81.0679612,116.504854 79.1262136,119.126214 76.6019417,120.485437 C75.8252427,120.679612 74.9514563,120.485437 74.1747573,119.902913 C73.6893204,117.864078 75.7281553,116.990291 77.184466,116.019417 C78.8349515,115.339806 80.3883495,113.980583 82.2330097,113.980583 Z" id="Shape" fill="#FFFFFF" fill-rule="nonzero"></path>
                <polygon id="Shape" fill="#073C78" fill-rule="nonzero" points="31.9417476 120.485437 31.6504854 121.165049 30.9708738 121.165049"></polygon>
                <path d="M59.7087379,127.669903 C61.3592233,130.291262 61.5533981,136.31068 58.0582524,137.76699 C57.0873786,137.669903 56.6019417,136.796117 56.6019417,135.339806 C55.9223301,135.242718 55.4368932,135.242718 54.8543689,135.436893 C54.4660194,136.31068 53.9805825,136.990291 53.3980583,137.572816 C50.6796117,136.213592 53.1067961,134.368932 54.4660194,133.203883 C55.7281553,132.038835 56.8932039,132.524272 58.3495146,132.524272 C57.961165,130.873786 56.1165049,130.582524 55.2427184,129.029126 C55.4368932,126.796117 58.2524272,127.184466 59.7087379,127.669903 Z" id="Shape" fill="#FFFFFF" fill-rule="nonzero"></path>
                <path d="M3.88349515,143.592233 C5.24271845,142.621359 7.57281553,144.563107 8.73786408,145.242718 C9.61165049,145.242718 10.4854369,145.339806 11.3592233,145.339806 C11.5533981,147.961165 7.86407767,148.058252 6.89320388,145.728155 C5.9223301,145.728155 4.95145631,145.825243 4.0776699,146.213592 C3.59223301,145.339806 3.59223301,144.466019 3.88349515,143.592233 Z" id="Shape" fill="#FFFFFF" fill-rule="nonzero"></path>
            </g>
        </g>
    </g>
</svg>