<?xml version="1.0" encoding="UTF-8"?>
<svg width="200px" height="200px" viewBox="0 0 200 200" version="1.1" xmlns="http://www.w3.org/2000/svg" xmlns:xlink="http://www.w3.org/1999/xlink">
    <!-- Generator: Sketch 51.3 (57544) - http://www.bohemiancoding.com/sketch -->
    <title>quinnipiac</title>
    <desc>Created with Sketch.</desc>
    <defs></defs>
    <g id="quinnipiac" stroke="none" stroke-width="1" fill="none" fill-rule="evenodd">
        <g id="quinnipiac_BGL">
            <g id="Group-131" transform="translate(6.000000, 0.000000)">
                <path d="M111.076564,137.747089 C144.09025,119.339494 155.947945,77.6205063 137.563745,44.565443 C134.37034,38.8224051 130.367206,33.5698734 125.678236,28.9686076 C125.326785,30.5755696 124.868507,32.1572152 124.306564,33.7027848 C149.930287,61.5097468 148.188832,104.850886 120.41721,130.507848 C117.517735,133.185696 114.392598,135.607848 111.076564,137.747089" id="Fill-1" fill="#3A8DDE"></path>
                <path d="M74.0162559,11.6332911 C87.377102,11.6162025 100.447811,15.5339241 111.601339,22.8991139 C112.991975,22.2662025 114.376289,21.6332911 115.728998,20.8611392 C93.4339515,5.97063291 64.508102,5.48582278 41.7282291,19.6206329 L41.8040819,19.6649367 C51.7155201,14.3687342 62.7818177,11.6092405 74.0162559,11.6332911" id="Fill-3" fill="#3A8DDE"></path>
                <path d="M80.2360625,97.1270253 C79.5742465,98.465 79.0085107,99.8479114 78.5420157,101.266266 C78.1027013,99.8415823 77.5616177,98.4491772 76.9238217,97.1017089 C75.6722498,96.3725949 74.1058886,96.465 72.9478686,97.3358861 C72.9478686,97.3358861 73.4914806,101.01943 73.9402766,101.943481 C74.3890726,102.867532 75.2487381,104.253608 78.5167314,104.253608 C81.7847247,104.253608 82.6823167,102.943481 83.1374338,102.025759 C83.5925508,101.108038 84.2056946,97.4308228 84.2056946,97.4308228 C83.0634773,96.5403165 81.5002766,96.4206962 80.2360625,97.1270253" id="Fill-5" fill="#FFFFFF"></path>
                <path d="M180.286152,185.297658 C179.25961,187.302089 177.51373,188.844494 175.399965,189.614114 C174.263436,190.049557 173.057376,190.274241 171.841202,190.278671 C171.549169,190.921709 171.202774,191.537532 170.804546,192.120443 C172.861423,192.471076 174.975189,192.252089 176.917021,191.487532 L176.689463,191.867911 C175.192633,194.433101 172.654092,196.216646 169.736286,196.753987 C167.950583,197.085 166.120633,197.096392 164.331771,196.785 C160.161128,197.990063 155.702245,197.710316 151.714914,195.993861 C150.912138,195.595759 147.068928,192.532468 145.678292,191.563481 C145.678292,191.563481 140.981105,187.80462 136.253577,187.557152 C132.043744,188.190063 128.605082,188.602089 126.284617,188.240696 C121.974279,187.607785 95.8107371,181.374241 75.5839445,167.911582 C66.2894428,161.840696 57.4943057,155.036266 49.2819712,147.564114 C10.8517605,131.766013 -7.51221271,87.7647468 8.2658107,49.2856329 C12.9206468,37.935 20.2733157,27.8951266 29.6866535,20.0387975 C28.5994294,18.3236076 27.7985498,16.441962 27.3162522,14.4685443 C27.0741552,13.3160127 26.9553191,12.1406962 26.9622722,10.9622152 C26.9622722,7.79765823 29.9268542,5.36727848 29.9268542,5.36727848 C30.0975231,8.98816456 32.4552823,12.4058861 35.849697,15.399557 C61.9892187,-2.17892405 96.2993559,-1.58525316 121.816252,16.8868987 C125.741637,13.785 128.554513,10.1527215 128.813045,6.22803797 C128.813045,6.22803797 131.682811,8.51917722 131.682811,11.5324684 C131.689764,12.8223418 131.549436,14.1090506 131.266252,15.3672785 C130.61771,17.7362658 129.546921,19.9685443 128.105717,21.9558861 C158.956332,49.7881646 161.431664,97.3913291 133.635389,128.28057 C128.283339,134.228038 122.019159,139.282468 115.077991,143.253354 C118.272028,144.178038 121.536229,144.840696 124.837724,145.234367 C124.837724,145.234367 133.801001,146.747658 140.457088,142.507152 C143.674513,140.45019 146.335684,138.494494 149.489266,138.494494 C151.491781,138.478671 153.450048,139.081835 155.096055,140.221709 C162.802072,139.235 167.599764,144.753354 167.599764,144.753354 C164.857052,144.310316 162.050496,144.481203 159.382373,145.253354 C160.127627,146.247658 160.127627,148.240696 160.127627,148.240696 C164.97652,147.262215 170.013148,148.344494 174.033981,151.228671 C178.756453,150.728671 181.935319,146.30462 181.935319,146.30462 C182.928359,154.019177 178.263409,156.196392 178.263409,156.196392 C178.756453,158.690696 175.772276,162.418544 175.772276,162.418544 C178.756453,162.918544 180.247593,165.659051 180.247593,165.659051 C182.70649,164.63943 184.731128,162.78943 185.968162,160.431203 C186.643884,164.796392 185.04971,169.205886 181.739998,172.126772 C181.520025,173.08943 181.071229,173.983734 180.430904,174.735 C180.052272,175.329304 179.609165,175.881203 179.110433,176.379937 C179.673008,177.099557 180.13255,177.894494 180.475784,178.741329 C183.76274,177.899557 186.41759,173.905253 186.41759,173.905253 C186.291169,182.874241 180.286152,185.297658 180.286152,185.297658 M187.561704,167.259684 C188.402406,164.159051 189.116687,159.234367 187.466256,154.209684 C187.466256,154.209684 184.426453,159.779304 180.803847,162.196392 C180.43849,161.852722 180.045319,161.53943 179.628761,161.260316 C180.279199,160.082468 180.707767,158.795127 180.892975,157.462215 C182.985249,155.462215 186.487122,149.867278 182.485252,140.664747 C180.317757,145.626772 177.176185,147.753987 174.647757,148.481203 C174.432841,148.348291 174.179998,148.190063 173.901239,148.038797 L169.559296,143.038165 C165.975249,139.266013 160.913336,137.267911 155.722473,137.576772 C153.835001,136.471076 151.688998,135.885633 149.50254,135.88057 C145.918493,135.88057 143.080332,137.721709 140.071503,139.678038 L139.079095,140.310949 C133.390132,143.95019 125.356052,142.684367 125.273878,142.66538 L125.166419,142.66538 C124.053911,142.532468 122.897155,142.348924 121.734078,142.133734 C157.165573,117.894494 166.264122,69.4856329 142.056319,34.0090506 C138.967844,29.4831013 135.410346,25.2970253 131.443242,21.5191772 C137.764312,10.5071519 132.397724,4.26664557 126.576018,1.08246835 C127.694847,7.34829114 123.902205,11.5951266 121.689831,13.6020886 C96.0477773,-3.98462025 62.4007204,-4.56246835 36.1720716,12.1331013 C34.3516033,10.2343671 31.1152154,6.50651899 32.246687,0.10778481 C29.3137104,1.51917722 24.3643124,6.67740506 24.3643124,10.949557 C24.3586234,12.3109494 24.4964227,13.6685443 24.7751819,15.0008228 C25.1348508,16.5394304 25.6847839,18.028038 26.4123391,19.4312025 C-5.83523278,47.820443 -8.99260736,97.0090506 19.3605532,129.297658 C27.1797171,138.202722 36.9274395,145.201456 47.8597304,149.760316 C56.0764896,157.20462 64.867202,163.98943 74.1490615,170.050823 C94.7683926,183.772975 121.481235,190.108418 125.886389,190.785633 C128.414817,191.171076 131.626553,190.848924 136.290871,190.152722 C139.451406,190.399557 142.94759,192.684367 144.066419,193.58943 L144.166924,193.659051 L146.215583,195.222342 C149.003175,197.386899 150.008225,198.107785 150.766754,198.386899 C155.147256,199.85462 159.844443,200.105886 164.357055,199.114114 C169.363342,199.80462 178.332941,198.760316 181.891704,187.658418 C181.999162,187.494494 182.112941,187.341962 182.214078,187.171709 C185.411908,185.570443 191.006687,178.899557 187.561704,167.259684" id="Fill-7" fill="#FFFFFF"></path>
                <path d="M143.402328,178.32943 C140.418783,178.582595 132.220987,180.323101 128.990288,179.823101 C125.760853,179.323101 99.8059064,173.367405 79.8945351,160.114873 C76.1651037,157.633228 72.6297291,155.154747 69.2877793,152.678165 C52.884602,140.506646 40.9504214,128.228165 33.3145686,114.387025 C29.0857726,106.741456 26.1850334,95.1775316 25.9252375,83.975 L26.5573445,83.3420886 C27.2210569,93.5509494 29.9776756,103.728165 33.8082441,110.671835 C42.3164047,126.101582 56.1589164,139.607911 75.5898863,153.133228 C77.1575117,154.221835 78.7504214,155.310443 80.3812575,156.399684 C100.293261,169.652215 126.253264,175.614241 129.483331,176.114241 C132.71403,176.614241 143.079953,174.633228 147.814435,178.354747 C146.34605,178.252848 144.871977,178.24462 143.402328,178.32943 Z M166.524803,166.817405 C163.90788,166.753481 161.537478,166.026266 159.912963,165.893354 C156.929418,165.645886 152.959786,168.133861 152.959786,168.133861 C154.224,165.893354 156.189853,164.399051 159.167077,163.652848 C161.180338,163.262342 163.223308,163.050316 165.273863,163.019937 C165.722659,161.323101 166.170823,157.854747 163.061488,155.778797 C158.83206,152.956013 146.790421,161.114241 124.672997,156.75981 C124.672997,156.75981 142.625468,153.424367 144.034435,151.778797 C144.034435,151.778797 141.215237,152.012975 140.040151,151.545253 C140.040151,151.545253 149.906709,148.956013 150.848548,146.842089 C151.73413,144.849051 149.078649,143.04462 146.019883,143.450316 C142.037609,145.854747 136.790488,150.550949 128.605334,152.19019 C121.872763,153.531962 111.999251,150.557278 105.217375,147.968671 C102.884268,147.082595 100.918415,146.247785 99.5657057,145.645886 C99.9241104,145.785127 100.297054,145.918038 100.684535,146.04462 C93.1498194,142.677532 74.3319933,133.658544 67.9729967,124.949684 C67.9729967,124.949684 62.6765719,106.184494 54.2120268,105.702848 C51.9857458,105.464873 49.7638896,106.19019 48.1058729,107.696519 C44.6356054,110.981329 44.6103211,117.221835 44.6103211,117.278797 L44.6103211,120.54462 L42.6128629,117.975633 C35.2178428,110.406013 33.5105217,99.7724684 33.5105217,99.7851266 L31.0326622,102.158544 C28.7640301,96.0129747 28.4157391,81.310443 28.3778127,81.4623418 L25.9315585,83.9939873 C25.9612676,78.3642405 26.5819967,72.753481 27.7836321,67.253481 C21.2286823,81.9560127 24.6610234,105.614241 31.6774114,118.354747 C38.1697826,130.114241 47.758214,140.760443 60.5520602,151.145886 C65.9003177,155.481329 71.784602,159.773101 78.2510569,164.082595 C98.1630602,177.336392 124.123064,183.298418 127.347441,183.791456 C130.570555,184.285127 138.781625,182.525633 141.758849,182.298418 C144.330261,182.193987 146.905465,182.278797 149.464866,182.550949 L142.511689,184.538924 C144.709525,185.29019 146.73606,186.473734 148.472458,188.019937 C149.462338,188.84019 150.541977,189.547152 151.689251,190.127532 C153.655736,190.031962 157.764431,189.456013 160.0141,186.330063 C159.799184,186.139557 159.5849,185.949684 159.381993,185.772468 C157.643699,184.031962 151.164602,182.285127 151.164602,182.285127 C154.059652,182.595253 158.080485,184.019304 161.442662,185.197152 C162.934435,185.101582 166.012796,184.197152 165.665769,178.304114 L165.854769,178.342722 C163.237846,177.70981 161.328883,176.664873 160.854803,176.07057 C159.862395,174.804747 154.141826,174.323101 154.141826,174.323101 C156.133595,173.830063 160.355438,172.582595 162.839619,173.330063 C164.319381,173.772468 166.145538,174.646519 167.960318,175.19019 C168.699251,173.607911 168.787746,170.993987 166.405334,166.792089 L166.524803,166.817405 Z" id="Fill-9" fill="#FFB71B"></path>
                <polygon id="Fill-11" fill="#FFB71B" points="112.245773 145.94962 110.867779 145.500253 110.608615 145.411646 110.86209 145.500253"></polygon>
                <path d="M106.582094,147.468797 C106.999284,147.538418 107.416475,147.608038 107.846308,147.665 C107.422796,147.608038 107.005605,147.538418 106.582094,147.468797 L106.474635,147.468797 L106.582094,147.468797 Z" id="Fill-13" fill="#FFB71B"></path>
                <path d="M92.5874338,137.247089 C91.2726512,136.519873 90.0084371,135.779367 88.7947916,135.050886 C90.0084371,135.779367 91.2726512,136.519873 92.5874338,137.247089" id="Fill-15" fill="#FFB71B"></path>
                <path d="M69.8315809,125.316899 C70.463688,125.437152 71.2664639,125.570063 72.1008452,125.702975 C71.2664639,125.576392 70.4889722,125.443481 69.8315809,125.316899" id="Fill-17" fill="#FFB71B"></path>
                <path d="M68.3081398,125.038165 L69.1741264,125.203354 L68.3081398,125.038165 Z" id="Fill-19" fill="#FFB71B"></path>
                <path d="M75.7418448,126.20943 C78.2702729,128.13981 82.1703732,130.942975 86.9617445,133.923987 C82.1640522,130.937278 78.2829151,128.13981 75.7418448,126.20943 C74.585089,126.089177 73.3019117,125.905633 72.1072294,125.70943 C73.3335171,125.905633 74.5977311,126.089177 75.7418448,126.20943" id="Fill-21" fill="#FFB71B"></path>
                <path d="M92.9288348,81.4624684 L92.3915438,81.8168987 L92.9288348,81.4624684 Z" id="Fill-23" fill="#FFB71B"></path>
                <path d="M114.90688,74.6840506 C119.079418,75.1005063 122.819596,77.4403797 125.020592,81.0131646 C125.311994,79.8549367 124.87584,76.3865823 124.87584,76.3865823 C120.836676,71.9055696 114.762127,70.7473418 107.258385,73.4941772 C104.148418,74.6334177 99.8564117,77.0827848 95.8804585,79.5637975 C96.0631375,80.3941772 96.1358298,81.2460759 96.0953749,82.095443 C102.082061,78.0701266 109.900592,74.1650633 114.90688,74.6840506" id="Fill-25" fill="#FFB71B"></path>
                <path d="M84.9706706,67.0891139 C84.8916572,66.9802532 84.819597,66.8656962 84.7557542,66.7473418 C84.8126438,66.8929114 84.8884967,67.0068354 84.9706706,67.0891139" id="Fill-29" fill="#FFB71B"></path>
                <polygon id="Fill-31" fill="#FFB71B" points="117.530377 27.2156329 117.530377 27.2156329 117.416598 27.2725949"></polygon>
                <path d="M114.748853,83.8358861 C113.414475,84.4485443 112.161007,85.2270253 111.020054,86.1523418 C117.422666,85.886519 122.827181,89.0257595 125.128683,90.5827215 C125.330325,89.0637342 125.451057,87.8042405 125.451057,87.8042405 C123.864469,82.4561392 117.511161,76.9561392 111.00678,77.3928481 C104.502398,77.829557 95.9879167,83.8991772 95.9879167,83.8991772 C95.6661742,85.4839873 95.2281241,87.0428481 94.6794552,88.5637342 C110.627515,79.7093038 114.748853,83.8358861 114.748853,83.8358861" id="Fill-33" fill="#FFB71B"></path>
                <path d="M85.2614398,121.107848 C84.4144164,121.197089 80.8809381,121.538861 78.4978946,121.640127 C80.8809381,121.519241 84.4144164,121.197089 85.2614398,121.107848" id="Fill-35" fill="#FFB71B"></path>
                <path d="M70.0844237,84.3612658 C69.9832866,84.2473418 69.8821495,84.1397468 69.7683702,84.0258228 C69.8821495,84.1397468 69.9832866,84.2536709 70.0844237,84.3612658 L70.1792398,84.4625316 L70.0844237,84.3612658 Z" id="Fill-37" fill="#FFB71B"></path>
                <path d="M72.069303,86.5637975 L70.2488348,85.2283544 C69.2501057,84.5068354 67.8910756,83.538481 66.3360923,82.4625316 C65.7545538,82.0637975 65.14141,81.6397468 64.509303,81.1967089 L66.3360923,82.4625316 C67.8973967,83.538481 69.2501057,84.5005063 70.2488348,85.2220253 C71.3550221,86.0764557 72.069303,86.5637975 72.069303,86.5637975" id="Fill-39" fill="#FFB71B"></path>
                <path d="M66.8732569,86.2662025 C67.0502468,86.4370886 67.2462,86.6079747 67.4105478,86.7725316 C67.2462,86.6079747 67.0502468,86.4370886 66.8732569,86.2662025 L66.4307819,85.8548101 C66.5888087,86.0003797 66.7215512,86.1332911 66.8732569,86.2662025" id="Fill-41" fill="#FFB71B"></path>
                <path d="M37.9355237,61.3929114 C37.9355237,61.3929114 46.0517779,60.1270886 50.381711,66.203038 C48.3419017,65.1948101 46.1269987,64.588481 43.8583666,64.4182278 C40.7553532,64.1448101 37.6434903,64.8340506 34.9456575,66.3929114 C35.5619619,64.6878481 36.4734602,63.1043038 37.6384334,61.7156962 C37.7585338,61.595443 37.8596709,61.481519 37.9355237,61.3929114 Z M38.7888682,53.0891139 C39.1428482,52.0321519 41.9051559,51.0068354 41.9051559,51.0068354 C43.4664602,52.1764557 44.9272595,53.4739241 46.2730154,54.8865823 C43.0239853,53.2346835 38.7888682,53.0891139 38.7888682,53.0891139 Z M48.7382328,57.3865823 C52.4360589,51.6903797 60.4006074,49.7283544 60.4006074,49.7283544 C58.5295706,50.753038 56.9265472,52.2062025 55.7230154,53.9688608 C57.3968348,54.0910127 59.0434736,54.46 60.6092027,55.0637975 C61.8607746,49.8555696 64.9555706,45.2770886 69.3196375,42.1777215 C65.7583465,46.438481 63.9505204,51.8967089 64.2627813,57.4435443 C65.5516475,58.8182278 66.523196,60.4606329 67.1072629,62.2536709 C67.6255906,63.6144304 69.4903064,66.26 71.532012,67.0131646 C71.389788,67.1688608 71.2260722,67.303038 71.0452896,67.4118987 C72.4359251,66.6270886 73.0490689,63.5321519 72.8341525,62.1840506 C72.8341525,62.1840506 75.2488013,71.2156962 69.0035839,70.1460759 C69.2330388,71.0005063 69.2507378,71.8979747 69.0541525,72.76 C68.8013097,72.4941772 68.5231826,72.26 68.2513766,72.0258228 C63.7760589,68.3043038 56.5637177,68.8612658 54.6484334,69.0827848 C54.3450221,69.0827848 54.1680321,69.1460759 54.1680321,69.1460759 C53.9910421,68.9878481 53.8456575,68.8232911 53.6876308,68.6650633 C52.4474368,67.3694937 51.6301224,65.7277215 51.3425137,63.9562025 C51.0302528,61.8536709 51.2192528,59.7062025 51.8924468,57.6903797 C50.7135672,57.531519 49.5188849,57.531519 48.3400054,57.6903797 C48.4664268,57.5865823 48.5991692,57.4916456 48.7382328,57.4055696 L48.7382328,57.3865823 Z M84.0793365,62.1460759 C83.7879351,63.7163291 84.0098047,65.338481 84.7114435,66.7726582 C86.4434167,66.9941772 88.8201391,64.4435443 89.4206408,62.8675949 C90.2404836,60.7074684 91.7518515,58.8802532 93.7189686,57.6713924 C94.2840722,52.0922785 92.481303,46.5321519 88.7506074,42.3486076 C93.1993766,45.7574684 96.2752094,50.6549367 97.4167946,56.1460759 C98.9692495,55.7751899 100.561527,55.6011392 102.157597,55.6270886 C101.155708,53.7511392 99.7265137,52.1378481 97.985691,50.9182278 C97.985691,50.9182278 105.912313,53.7536709 108.902179,59.9941772 C107.322544,59.6834177 105.70751,59.5986076 104.104487,59.7410127 C104.104487,59.7410127 104.736594,59.6840506 105.602581,59.6777215 C105.950239,61.2283544 106.980574,67.3865823 102.151276,70.8865823 C102.151276,70.8865823 92.3789017,68.3549367 86.8416441,73.0321519 C86.7266007,72.1555696 86.829002,71.2650633 87.1387344,70.4372152 C80.8303064,70.8865823 84.0793365,62.1460759 84.0793365,62.1460759 Z M116.247263,51.5321519 C116.247263,51.5321519 118.807296,52.9941772 118.990607,54.0637975 C118.990607,54.0637975 114.787096,53.5194937 111.310507,54.6144304 C112.868651,53.453038 114.519714,52.4220253 116.247263,51.5321519 Z M119.812346,62.0891139 C121.098684,63.5732911 122.086035,65.2929114 122.720039,67.1524051 C115.077865,62.5637975 107.277664,66.6903797 107.277664,66.6903797 C111.715056,60.7093671 119.812346,62.0891139 119.812346,62.0891139 Z M34.8571625,60.481519 C32.9102729,63.1270886 30.9191358,67.4941772 29.9267278,74.6967089 C29.9267278,74.6967089 36.1466609,65.8359494 47.2148548,68.924557 C52.6067278,70.424557 57.9290689,73.7853165 62.3158916,77.26 C62.9050154,75.9935443 63.8696107,74.9397468 65.0781993,74.2410127 C65.7912161,73.8581013 66.5889351,73.6618987 67.3980321,73.6713924 C67.7722395,73.6808861 68.1445505,73.7251899 68.5105405,73.8043038 C72.246293,74.538481 75.7228816,78.2346835 75.7228816,78.2346835 C73.6230221,77.1270886 71.2816977,76.5593671 68.9087679,76.5827848 C68.0080154,76.5827848 67.1173766,76.7777215 66.2981659,77.1524051 C67.4644033,77.7144304 68.501691,78.5112658 69.3449217,79.4941772 L69.3954903,79.5574684 C72.2924368,80.9270886 75.4814167,81.5618987 78.6811425,81.4055696 C81.8928783,81.6327848 85.110303,81.0637975 88.0489686,79.7473418 C88.8896709,78.7327848 89.9484502,77.9213924 91.146293,77.3739241 C88.8770288,76.1903797 84.5660589,76.8422785 81.7595037,78.316962 C81.7595037,78.316962 86.0451893,73.8865823 90.1665271,73.8865823 C92.4357913,73.8865823 94.1867278,75.4562025 95.1854569,77.5574684 C99.610206,74.1587342 105.014721,70.8929114 110.431878,69.4878481 C121.550641,66.595443 127.612547,75.5574684 127.612547,75.5574684 C125.596126,58.7853165 117.94131,57.203038 117.94131,57.203038 C119.641678,56.245443 121.500072,55.6017722 123.427999,55.3043038 C119.098066,47.3486076 105.235959,38.5321519 105.235959,38.5321519 L105.83646,38.6270886 C106.31054,38.095443 107.991945,36.4562025 111.373718,35.424557 C111.373718,35.424557 109.597497,34.7156962 105.507765,36.4941772 C105.507765,36.4941772 106.683484,33.5827848 110.716326,30.6524051 C109.831377,31.1081013 109.117096,31.481519 108.699905,31.7346835 C106.531778,33.0005063 101.911076,36.0764557 101.190474,40.4118987 C100.728403,42.8486076 102.052668,45.2726582 104.351009,46.1967089 C94.9642194,46.9182278 93.8074635,38.6777215 93.8074635,38.6777215 C90.4889017,38.5321519 85.5900722,38.6777215 85.5900722,38.6777215 C83.5610087,41.2789873 85.299303,45.9055696 85.8745204,50.2410127 C86.4497378,54.5764557 83.5610087,55.7346835 83.5610087,55.7346835 C84.7177645,51.5448101 81.2538181,49.0827848 81.2538181,49.0827848 C81.6558381,51.2910127 81.0711391,53.5644304 79.6545873,55.3043038 C79.3745639,55.7055696 79.12741,56.1289873 78.9150221,56.5701266 C78.7089552,56.1296203 78.4687545,55.7062025 78.1944201,55.3043038 C76.8113699,53.5391139 76.2709184,51.2562025 76.7152896,49.0574684 C76.7152896,49.0574684 73.2070957,51.4562025 74.2879987,55.6713924 C74.2879987,55.6713924 71.4182328,54.4625316 72.069303,50.1334177 C72.7203732,45.8043038 74.5408415,41.2093671 72.5623465,38.5764557 C72.5623465,38.5764557 67.657196,38.3486076 64.3449552,38.4308861 C64.3449552,38.4308861 63.0428147,46.6587342 53.6749886,45.7663291 C55.9960856,44.8891139 57.3696542,42.4865823 56.949303,40.038481 C56.317196,35.6903797 51.7344201,32.5764557 49.5915773,31.2346835 C49.1807077,30.9751899 48.4727478,30.6017722 47.5941191,30.1207595 C51.5763933,33.1144304 52.7015438,36.0448101 52.7015438,36.0448101 C48.6813431,34.1777215 46.8608749,34.8612658 46.8608749,34.8612658 C50.2236843,35.9562025 51.8734836,37.6207595 52.3412428,38.1650633 L52.9733498,38.0764557 C52.9733498,38.0764557 38.9595371,46.6524051 34.4842194,54.5321519 C36.4089853,54.8543038 38.2591625,55.5232911 39.9456241,56.5068354 C38.9949351,56.7694937 38.1125137,57.2359494 37.3603064,57.8739241 C36.4096174,58.6232911 35.5670187,59.5005063 34.8571625,60.481519 Z" id="Fill-43" fill="#FFB71B"></path>
                <path d="M42.6448475,74.0511392 C47.6637773,73.6270886 55.4070883,77.6650633 61.3299311,81.8422785 C61.3014863,80.9903797 61.3887171,80.1391139 61.589095,79.3106329 C57.6637104,76.7789873 53.4096301,74.2473418 50.3186268,73.0448101 C42.8597639,70.1713924 36.7725732,71.2220253 32.6512355,75.6334177 C32.6512355,75.6334177 32.158192,79.095443 32.429998,80.2536709 C34.6815632,76.703038 38.4596669,74.4093671 42.6448475,74.0511392" id="Fill-45" fill="#FFB71B"></path>
                <path d="M64.6861666,84.3739241 L64.6482401,84.3422785 L64.6861666,84.3739241 Z" id="Fill-47" fill="#FFB71B"></path>
                <path d="M76.1085301,121.474937 C76.8923428,121.544557 77.6635134,121.607848 78.3398679,121.646456 C77.6635134,121.607848 76.8923428,121.519241 76.1085301,121.474937" id="Fill-49" fill="#FFB71B"></path>
                <path d="M70.5457987,110.127089 C70.488909,109.994177 70.4256983,109.842278 70.3561666,109.69038 C69.7240595,108.139747 68.7190094,105.61443 67.6317853,102.728354 C68.7190094,105.633418 69.7050963,108.165063 70.3561666,109.69038 L70.5457987,110.127089 Z" id="Fill-51" fill="#FFB71B"></path>
                <path d="M62.6256241,88.316962 C62.1085605,86.7865823 61.6989552,85.2213924 61.3993365,83.6334177 C61.3993365,83.6334177 52.985992,77.4118987 46.5005739,76.8675949 C40.0151559,76.3232911 33.5550221,81.703038 31.8799385,86.9941772 C31.8799385,86.9941772 31.9747545,88.26 32.1580656,89.7789873 C34.4778983,88.2346835 39.9329819,85.1840506 46.3362261,85.5701266 C45.2110756,84.6239241 43.9708816,83.8239241 42.6447211,83.1903797 C42.6447211,83.1903797 46.8608749,79.1524051 62.6256241,88.316962" id="Fill-53" fill="#FFB71B"></path>
                <path d="M59.1049144,66.0256962 C59.0543458,65.6370886 59.0252689,65.2465823 59.0164194,64.8548101 C58.2446167,64.6896203 57.7528375,63.9294937 57.9178174,63.1573418 C58.057513,62.5022785 58.6320983,62.0320253 59.3008676,62.0256962 C59.4304495,61.4548101 59.6011184,60.8946835 59.8128742,60.348481 C58.5259043,59.413038 56.9778742,58.9060759 55.3881251,58.8991139 C55.3881251,58.8991139 54.0417371,62.9813924 56.102406,65.8611392 C57.106192,65.8029114 58.1131385,65.8579747 59.1049144,66.0256962" id="Fill-55" fill="#FFB71B"></path>
                <path d="M66.3803398,68.1586709 C66.3803398,68.1586709 63.3525472,63.500443 62.0946542,62.2472785 C62.3038816,63.6903165 62.1066642,65.1637342 61.5257579,66.500443 C63.186303,66.9206962 64.8095538,67.4751266 66.3803398,68.1586709" id="Fill-57" fill="#FFB71B"></path>
                <path d="M94.913398,63.5385443 C94.913398,63.3739873 94.9709197,63.2157595 95.0025251,63.0701899 L94.824903,63.2031013 C94.7174448,63.2917089 94.5973445,63.3993038 94.4709231,63.519557 L94.5594181,63.519557 C94.6776221,63.5094304 94.7970903,63.5157595 94.913398,63.5385443" id="Fill-59" fill="#FFB71B"></path>
                <path d="M97.5745686,67.2661392 C98.5183043,67.2091772 99.4658328,67.253481 100.400719,67.3990506 C102.726241,64.7281646 101.77808,60.5382911 101.77808,60.5382911 C100.300214,60.3908228 98.8128662,60.6882911 97.5056689,61.3927215 C98.0208361,63.3136076 98.0448562,65.3338608 97.5745686,67.2661392" id="Fill-61" fill="#FFB71B"></path>
                <path d="M94.9202247,66.3486076 C94.8386829,66.3675949 94.756509,66.3802532 94.6730709,66.3865823 C93.8797766,66.4150633 93.2122716,65.7948101 93.1819304,65.0005063 C93.1749773,64.9543038 93.1749773,64.9074684 93.1819304,64.8612658 C91.6832047,66.5258228 89.9518635,68.703038 89.9518635,68.703038 C91.6825726,68.1397468 93.4587933,67.7289873 95.2615625,67.4751899 C95.1085926,67.1125316 94.9941813,66.7346835 94.9202247,66.3486076" id="Fill-63" fill="#FFB71B"></path>
                <polygon id="Fill-65" fill="#FFB71B" points="93.1880619 64.8550633 93.1880619 64.8550633 93.2386304 64.7981013"></polygon>
                <path d="M124.824892,148.73462 L124.869139,148.73462 C124.116932,148.652342 123.364725,148.544747 122.618838,148.430823 L121.936163,148.316899 C121.400768,148.228291 120.863477,148.133354 120.32429,148.032089 L119.591046,147.886519 C119.028471,147.772595 118.465895,147.646013 117.896999,147.513101 L117.347066,147.386519 C116.594859,147.209304 115.848972,147.01943 115.103086,146.81057 L114.799675,146.721962 C114.167568,146.544747 113.535461,146.354873 112.903354,146.158671 L112.271246,145.962468 L110.886932,145.513101 L110.634089,145.424494 L110.001982,145.215633 C109.357233,144.992215 108.725126,144.764367 108.105661,144.532089 L107.859139,144.437152 C107.125895,144.165 106.392651,143.873861 105.659407,143.582722 L105.32439,143.443481 C104.692283,143.196646 104.123387,142.943481 103.529838,142.683987 L103.010879,142.462468 L101.317464,141.702975 L100.918604,141.51943 C99.5153268,140.886519 98.1373334,140.196646 96.7972666,139.506772 L96.5513769,139.38019 L94.7998084,138.463101 L94.4837548,138.291582 C93.8516478,137.962468 93.2701094,137.658671 92.6759288,137.297911 L92.606397,137.259937 C91.2916144,136.532089 90.0274003,135.791582 88.8137548,135.063734 L88.7568652,135.025759 C88.1626846,134.665 87.5748251,134.31057 87.0059288,133.956139 C82.2145575,130.975127 78.3207783,128.171329 75.7860291,126.240949 C74.6292732,126.120696 73.346096,125.937152 72.1514137,125.740949 C71.3170324,125.608038 70.5395408,125.475127 69.8821495,125.354873 L69.8062967,125.354873 L69.2500425,125.253608 L68.3840559,125.089051 L68.3018819,125.089051 L68.1375341,125.089051 L68.0996077,125.089051 L68.0237548,125.089051 C74.3827515,133.797911 93.2005776,142.81057 100.735293,146.183987 L100.798504,146.183987 L101.272584,146.329557 L101.702417,146.456139 L102.201782,146.59538 L102.637935,146.709304 L103.162584,146.842215 L103.61138,146.943481 L104.154992,147.063734 L104.610741,147.158671 L105.172685,147.272595 L105.627802,147.354873 L106.20934,147.462468 L106.531715,147.513101 L106.639173,147.513101 C107.056364,147.582722 107.473554,147.652342 107.903387,147.709304 L108.257367,147.766266 L108.889474,147.854873 L109.306665,147.911835 L109.938772,147.987785 L110.387568,148.038418 L111.019675,148.108038 L111.474792,148.158671 L112.106899,148.221962 L112.555695,148.259937 L113.187802,148.316899 L113.604992,148.354873 L114.237099,148.405506 L114.566427,148.405506 L115.95643,148.500443 L116.183989,148.500443 L116.771848,148.538418 L117.151113,148.538418 L117.713688,148.570063 L118.092952,148.570063 L118.61128,148.570063 L119.003186,148.570063 L119.470945,148.570063 L119.869173,148.570063 L120.305959,148.570063 L120.671949,148.570063 L121.082818,148.570063 L121.398872,148.570063 L122.144758,148.570063 L124.93235,148.570063 L124.824892,148.73462 Z" id="Fill-67" fill="#FFFFFF"></path>
                <path d="M163.055041,155.798038 C166.165007,157.873987 165.716211,161.342342 165.267415,163.037911 L166.82872,162.962595 L166.961462,162.962595 L167.403937,162.930949 L167.630864,162.930949 L167.985476,162.930949 L168.219355,162.930949 L168.528456,162.899304 L168.744004,162.899304 L169.041094,162.861329 L169.211131,162.861329 L169.603037,162.779051 C171.48482,162.38538 172.965847,160.932215 173.39568,159.056899 C173.825512,157.203101 173.111231,155.342342 170.690262,153.487911 C168.269924,151.633481 164.154275,151.829051 161.171362,151.829051 C158.187817,151.829051 145.021027,154.817025 145.021027,154.817025 C148.749827,152.823354 156.449522,149.342342 156.449522,149.342342 C156.449522,146.607532 154.464074,142.126519 149.988757,142.126519 C149.689138,142.130316 149.390783,142.163861 149.098118,142.228418 C149.003302,142.228418 148.907854,142.284747 148.81367,142.310063 C148.598753,142.367658 148.383205,142.42462 148.181563,142.506899 C148.067151,142.551203 147.953372,142.608165 147.840225,142.658797 C147.625308,142.747405 147.416713,142.842342 147.208118,142.949937 L146.790927,143.171456 L146.189793,143.513228 L146.051362,143.589177 C149.110128,143.20943 151.740325,144.987911 150.880027,146.981582 C149.93882,149.095506 140.071629,151.684114 140.071629,151.684114 C141.247348,152.152468 144.066546,151.918291 144.066546,151.918291 C142.656947,153.563861 124.704476,156.899304 124.704476,156.899304 C146.784606,161.133481 158.826245,152.975253 163.055041,155.798038" id="Fill-69" fill="#FFFFFF"></path>
                <path d="M174.710778,178.291772 C174.559073,178.335443 174.407999,178.367722 174.249972,178.405696 C173.959203,178.481646 173.661481,178.557595 173.370711,178.608228 C173.181079,178.646203 172.997768,178.66519 172.814457,178.696835 C172.631146,178.727848 172.296129,178.779114 172.037598,178.80443 C171.777802,178.829747 171.65138,178.835443 171.455427,178.848734 C171.259474,178.860759 170.968705,178.886076 170.734825,178.893038 C170.500945,178.899367 170.342919,178.893038 170.146966,178.893038 L169.457969,178.893038 C169.23041,178.893038 169.085026,178.893038 168.895394,178.855063 L168.231681,178.798101 L167.707032,178.727848 L167.04332,178.620886 L166.588203,178.532278 C166.35622,178.489873 166.129293,178.439241 165.905527,178.38038 L165.716527,178.342405 C166.063554,184.23481 162.985193,185.139873 161.49342,185.23481 L162.631213,185.627215 L162.719708,185.658861 L163.4972,185.924684 L163.66218,185.975316 C163.933354,186.070253 164.198838,186.152532 164.458002,186.23481 L164.635624,186.291772 L165.184925,186.455696 L165.425758,186.525949 L165.867601,186.639241 L166.069875,186.690506 C166.272149,186.73481 166.455461,186.779114 166.626129,186.80443 C169.610307,187.30443 174.578036,187.30443 176.815695,184.070253 C179.053354,180.836076 176.069808,177.848734 176.069808,177.848734 C175.624805,178.01962 175.171584,178.168354 174.710778,178.291772" id="Fill-71" fill="#FFFFFF"></path>
                <path d="M165.779169,189.949937 C165.633785,189.886013 165.4884,189.836013 165.324052,189.760063 L164.831009,189.525886 L164.388534,189.303734 L163.838601,189.00057 L163.408768,188.747405 L162.820908,188.392975 L162.422681,188.13981 L161.790574,187.728418 L161.47452,187.50057 C161.253283,187.348671 161.044688,187.196139 160.842413,187.037911 L160.652781,186.886646 C160.425223,186.70943 160.203985,186.532215 160.020674,186.355 C157.770373,189.468924 153.661678,190.044241 151.695825,190.152468 C154.388601,191.538544 157.593383,192.962595 159.685658,193.038544 C162.369584,193.198671 164.99346,192.198671 166.891678,190.291709 C166.653373,190.25057 166.418229,190.189177 166.190039,190.108165 C166.044654,190.057532 165.911912,190.00057 165.779169,189.949937" id="Fill-73" fill="#FFFFFF"></path>
                <path d="M172.428619,165.462342 L172.119519,165.62057 C171.922933,165.721835 171.721291,165.823101 171.524706,165.911709 C171.329385,166.000949 171.253532,166.019304 171.12079,166.076899 L170.627114,166.260443 L170.153034,166.399051 L169.735843,166.506646 L169.211194,166.62057 L168.857846,166.677532 L168.288318,166.753481 L167.997549,166.753481 L167.365442,166.792089 L166.430556,166.792089 C168.812967,170.993987 168.725104,173.607911 167.985539,175.19019 L168.048117,175.19019 L168.592362,175.32943 L169.12902,175.456013 L169.591091,175.531962 C169.811696,175.531962 170.020291,175.582595 170.223198,175.602215 L170.582867,175.602215 C170.907137,175.607278 171.230144,175.584494 171.54999,175.531962 C174.287014,175.031962 178.010124,173.291456 178.262967,169.835759 C178.516442,166.380063 173.294606,164.854747 173.294606,164.854747 C173.017111,165.072468 172.728238,165.275 172.428619,165.462342" id="Fill-75" fill="#FFFFFF"></path>
                <path d="M89.4016144,90.2410127 C88.3333535,91.7726582 84.3447582,93.76 84.3447582,93.76 C86.0198418,96.0574684 86.1778686,100.032152 86.1778686,100.032152 C89.2499087,97.5891139 89.4016144,90.2410127 89.4016144,90.2410127" id="Fill-77" fill="#FFFFFF"></path>
                <path d="M81.000912,111.203165 C81.000912,111.203165 83.9022833,111.664557 85.1222498,109.367722 C85.1222498,109.367722 85.7543569,108.298101 83.1374338,104.779114 C83.1374338,104.779114 82.9857281,109.677848 81.000912,111.203165" id="Fill-79" fill="#FFFFFF"></path>
                <path d="M90.918608,86.0764557 L91.4306147,85.6460759 L92.0627217,85.1334177 L92.7327552,84.6081013 C92.8901498,83.5732911 92.9660027,82.5283544 92.9603137,81.481519 L92.4230227,81.8359494 L92.2333906,81.9562025 L91.6708154,82.3296203 L91.2156983,82.6334177 L90.9375712,82.816962 L90.3054642,83.2283544 L90.2359324,83.2789873 C87.3219191,85.2410127 85.2991766,86.6967089 85.2991766,86.6967089 C85.4824876,86.481519 85.7037251,86.2283544 85.9312836,85.9625316 C85.96921,85.9182278 86.0197786,85.8675949 86.057705,85.816962 C86.2663003,85.595443 86.4812167,85.3549367 86.7277385,85.1017722 C86.8099124,85.0068354 86.9110495,84.9118987 86.9995445,84.816962 C87.2144609,84.595443 87.4230562,84.3739241 87.6316515,84.1397468 L88.0551632,83.7220253 L88.6872702,83.0891139 L89.2372033,82.5701266 L89.8693104,81.9688608 C90.0842268,81.7726582 90.2991431,81.5764557 90.5014174,81.3802532 L91.1335244,80.7916456 L91.8604475,80.1587342 L92.5873706,79.5258228 L92.6189759,79.5258228 C92.5064609,78.9707595 92.2561465,78.453038 91.8920528,78.0194937 C91.6474274,77.7593671 91.3585545,77.545443 91.0387084,77.3865823 C89.8408656,77.9340506 88.7827184,78.745443 87.9413839,79.76 C86.7846281,83.5131646 82.8845278,86.2663291 80.9882067,88.1460759 C79.8820194,89.2327848 79.1702669,90.6587342 78.9654642,92.1967089 C82.1259993,92.1967089 84.5975378,91.9055696 89.7997786,86.9878481 C90.2296114,86.7093671 90.5646281,86.3802532 90.918608,86.0764557" id="Fill-81" fill="#FFFFFF"></path>
                <path d="M111.373528,35.443481 C107.991756,36.4751266 106.316672,38.1143671 105.836271,38.6460127 L106.095434,38.6966456 C108.71299,39.1517089 111.245842,40.0055063 113.604866,41.2282911 C113.655434,41.2523418 113.704107,41.279557 113.750883,41.3105696 C117.707873,38.3928481 119.888642,34.0131013 121.07005,30.4624684 C121.574471,28.9542405 121.963217,27.4093038 122.233759,25.8422152 C122.37219,25.0257595 122.41707,24.5384177 122.41707,24.5384177 C122.41707,24.5384177 122.201521,24.6966456 122.062458,24.7915823 L121.89811,24.8991772 L121.556772,25.108038 L121.455635,25.1713291 L121.322893,25.2472785 L120.918976,25.4751266 C120.829849,25.5257595 120.741354,25.5827215 120.640217,25.6333544 L120.154127,25.8991772 L119.52202,26.2536076 L119.130113,26.4624684 L118.541622,26.7662658 L118.250853,26.9118354 L117.561856,27.2662658 L117.448077,27.3232278 C115.109281,28.4814557 112.523963,29.7472785 110.72309,30.6523418 C106.689615,33.5827215 105.513896,36.4941139 105.513896,36.4941139 C109.597307,34.7156329 111.373528,35.443481 111.373528,35.443481" id="Fill-83" fill="#FFFFFF"></path>
                <path d="M71.3424431,92.8041772 C70.1161555,92.0636709 68.4916405,90.9687342 67.8784967,90.0573418 C67.8784967,90.0573418 67.8784967,97.3991139 70.9189314,99.905443 C71.0251254,98.4820253 71.3139983,97.0775949 71.778597,95.7282278 C72.0352324,94.9908861 72.3993261,94.2953165 72.8595,93.6649367 C72.8595,93.6649367 72.1957876,93.3168354 71.3424431,92.8041772" id="Fill-85" fill="#FFFFFF"></path>
                <path d="M74.0603769,111.013418 C74.6659355,111.172911 75.295514,111.222278 75.9187716,111.158354 C73.9592398,109.595696 73.889708,104.696962 73.889708,104.696962 C73.6495074,105.013418 73.440912,105.329873 73.257601,105.583038 C71.3612799,108.35519 71.8290391,109.253924 71.8290391,109.253924 C72.2841562,110.134937 73.0976779,110.776709 74.0603769,111.013418" id="Fill-87" fill="#FFFFFF"></path>
                <path d="M71.298006,120.968734 L71.386501,120.968734 L72.0565344,121.044684 C72.8656314,121.140253 74.2183405,121.28519 75.6089759,121.418101 L76.1083405,121.462405 C76.8921532,121.532025 77.6633237,121.595316 78.3396783,121.633291 L78.497705,121.633291 C81.2220863,121.519367 85.4508823,121.082658 85.4508823,121.082658 C90.9375712,97.5193671 105.957066,90.4307595 105.957066,90.4307595 C104.52408,91.848481 103.173267,93.3465823 101.910949,94.9181013 C108.409009,90.5763291 117.795799,96.3611392 117.795799,96.3611392 C117.795799,98.8168354 116.20921,103.013038 116.20921,103.013038 C106.095498,93.4687342 99.8882067,102.00038 99.8882067,102.00038 C112.163725,98.0953165 115.058775,110.386456 115.058775,110.386456 C121.411451,102.291519 120.981618,92.6016456 120.981618,92.6016456 C122.422822,93.1775949 124.009411,95.4940506 124.009411,95.4940506 C124.077678,95.3813924 124.134568,95.263038 124.180712,95.1396203 L124.218006,95.0446835 C124.262886,94.9307595 124.30018,94.8105063 124.344427,94.6775949 L124.382354,94.5510127 C124.420912,94.4117722 124.458207,94.2725316 124.496765,94.1206329 C124.499294,94.0763291 124.499294,94.0320253 124.496765,93.9877215 C124.540381,93.8294937 124.571986,93.6649367 124.609912,93.5003797 C124.609912,93.4497468 124.609912,93.405443 124.641518,93.3548101 C124.680076,93.1839241 124.711049,93.0067089 124.748976,92.8231646 L124.748976,92.6775949 L124.843792,92.1206329 C124.846953,92.07 124.846953,92.0193671 124.843792,91.9687342 C124.843792,91.791519 124.900682,91.6079747 124.932287,91.4307595 L124.932287,91.2472152 C124.932287,91.1902532 124.976534,90.9687342 124.99613,90.8294937 C125.014461,90.6902532 124.99613,90.6775949 125.027103,90.6079747 C122.726233,89.0193671 117.321718,85.8801266 110.918474,86.1775949 C112.06006,85.2522785 113.312896,84.4737975 114.648538,83.8611392 C114.648538,83.8611392 110.627705,79.7092405 94.6796448,88.6079747 C94.6290763,88.7598734 94.5785077,88.9244304 94.5216181,89.0826582 C94.4647284,89.2408861 94.4394441,89.3358228 94.3951967,89.4624051 C94.3509492,89.5889873 94.2940595,89.7662025 94.2371699,89.9181013 C94.1802803,90.07 94.1297117,90.234557 94.0791431,90.3927848 C94.0285746,90.5510127 93.9843271,90.6649367 93.9337585,90.8041772 L93.7062,91.4370886 L93.5734575,91.8105063 C93.4786415,92.0826582 93.3838254,92.3548101 93.2826883,92.6332911 L93.1309826,93.0573418 C93.0614508,93.2535443 92.9919191,93.4497468 92.9160662,93.6459494 L92.7706816,94.0573418 L92.5241599,94.7282278 C92.4799124,94.848481 92.4356649,94.9624051 92.3977385,95.0763291 C92.2713171,95.4117722 92.1512167,95.7472152 92.0247953,96.0763291 C92.0247953,96.1712658 91.9552635,96.2598734 91.9236582,96.3548101 L91.6455311,97.0953165 C91.5886415,97.2535443 91.5317518,97.405443 91.4685411,97.5636709 C91.4053304,97.7218987 91.3294776,97.9307595 91.2662669,98.1079747 C91.2030562,98.2851899 91.1335244,98.4497468 91.0703137,98.6206329 L90.8617184,99.1586076 L90.6847284,99.6396203 L90.3307485,100.544684 C90.2548957,100.754177 90.1727217,100.956076 90.0905478,101.177595 C90.0526214,101.28519 90.0083739,101.387089 89.9704475,101.494051 C89.8819525,101.71557 89.7997786,101.937089 89.7112836,102.126962 C89.7112836,102.21557 89.6480729,102.297848 89.6101465,102.386456 C89.5216515,102.620633 89.4331565,102.848481 89.3383405,103.076329 C89.022287,103.886456 88.7062334,104.671266 88.4091431,105.405443 L88.4091431,105.449747 C88.308006,105.690253 88.21319,105.92443 88.124695,106.152278 L88.124695,106.183924 C87.7517518,107.108608 87.404093,107.943418 87.1006816,108.658608 C87.1006816,108.696582 87.0690763,108.734557 87.0564341,108.766203 L86.8604809,109.21557 C86.8604809,109.253544 86.8288756,109.28519 86.8162334,109.323797 C86.6961331,109.601646 86.5823538,109.85481 86.4812167,110.076329 C86.4736314,110.10038 86.4628856,110.123797 86.4496114,110.145949 C86.418006,110.222532 86.3800796,110.291519 86.3484742,110.367468 C86.3168689,110.443418 86.2852635,110.50038 86.2599793,110.564304 C86.234695,110.626962 86.2030896,110.671266 86.1778054,110.722532 C86.1525211,110.784557 86.122812,110.846582 86.0893104,110.906076 L86.0324207,111.013671 C85.9989191,111.08519 85.9609926,111.15481 85.9186415,111.222532 C85.1639057,112.641519 83.8586047,113.687722 82.3093104,114.114304 C82.2012201,114.141519 82.0912334,114.162405 81.9806147,114.178228 L81.5887084,114.228861 C80.6974375,114.323165 79.4269023,114.361772 78.4913839,114.380127 L78.2511833,114.380127 L78.0236247,114.380127 L77.9098455,114.380127 C76.9288154,114.347848 75.9496816,114.26557 74.9768689,114.133291 L74.6544943,114.063671 L74.5723204,114.063671 C73.0672736,113.592152 71.8125411,112.537089 71.0894107,111.133291 L70.9756314,110.918101 L70.937705,110.842152 C70.9042033,110.766203 70.8662769,110.683924 70.8239258,110.595316 L70.7859993,110.506709 C70.7291097,110.392785 70.6785411,110.273165 70.6153304,110.133291 L70.4256983,109.696582 C69.7935913,108.152278 68.7885411,105.620633 67.7013171,102.734557 L67.7013171,102.678228 C67.5812167,102.361772 67.4674375,102.045316 67.3473371,101.721899 C67.3233171,101.668101 67.3024575,101.613038 67.2841264,101.557342 L66.9427886,100.633291 L66.885899,100.475063 L66.5066348,99.4434177 C66.4687084,99.3294937 66.4307819,99.2218987 66.3865344,99.1079747 L66.1526548,98.4750633 L65.9630227,97.9434177 L65.7923538,97.4687342 C65.7228221,97.2788608 65.6532903,97.0889873 65.5900796,96.8991139 L65.4573371,96.5193671 C65.17921,95.7472152 64.9137251,94.9813924 64.6482401,94.2218987 C64.6482401,94.1712658 64.6166348,94.1206329 64.5976716,94.07 C64.5028555,93.7978481 64.4143605,93.5320253 64.3195445,93.2662025 L64.3195445,93.1965823 C63.7316849,91.4687342 63.1880729,89.8294937 62.745598,88.3864557 C46.9808488,79.2218987 42.764695,83.2851899 42.764695,83.2851899 C44.0908555,83.9187342 45.3310495,84.7187342 46.4562,85.6649367 C40.0529559,85.2788608 34.5978722,88.3294937 32.2780395,89.8737975 L32.3538923,90.5067089 C32.3570528,90.5655696 32.3570528,90.6250633 32.3538923,90.6839241 C32.3538923,90.848481 32.3981398,91.0193671 32.4234241,91.1902532 L32.4613505,91.4244304 C32.4613505,91.5763291 32.505598,91.7218987 32.5308823,91.8737975 C32.5561666,92.0256962 32.5624876,92.0510127 32.5751298,92.1396203 C32.5877719,92.2282278 32.6193773,92.405443 32.6446615,92.5383544 C32.6699458,92.6712658 32.682588,92.7155696 32.6952301,92.8041772 L32.7710829,93.1649367 L32.8279726,93.4117722 C32.8279726,93.5320253 32.8848622,93.6396203 32.9164676,93.7472152 C32.9480729,93.8548101 32.954394,93.8927848 32.9733572,93.9560759 L33.0681732,94.2598734 C33.0681732,94.3105063 33.1060997,94.3674684 33.1250629,94.4117722 C33.1680462,94.5320253 33.2211431,94.648481 33.2830896,94.7598734 C33.2830896,94.7598734 34.9076047,92.4750633 36.3614508,91.9244304 C36.3614508,91.9244304 35.7672702,101.601646 41.9745612,109.810506 C41.9745612,109.810506 45.0782067,97.57 57.2841933,101.683924 C57.2841933,101.683924 51.222287,93.0510127 40.9505478,102.411772 C40.9505478,102.411772 39.433491,98.1965823 39.4777385,95.7408861 C39.4777385,95.7408861 48.9593438,90.1143038 55.3815512,94.5636709 C54.1483104,92.9725316 52.8246783,91.4529114 51.4182401,90.013038 C51.4182401,90.013038 66.2158656,97.3105063 71.298006,120.968734" id="Fill-89" fill="#FFFFFF"></path>
                <path d="M69.3640114,79.513038 C68.5207806,78.5301266 67.4828609,77.7326582 66.3172555,77.1712658 C66.0511385,77.3060759 65.806513,77.4788608 65.5903324,77.6839241 L65.4891953,77.7725316 C65.1206769,78.1991139 64.8621452,78.7098734 64.736988,79.2598734 L64.8697304,79.3674684 L65.4259846,79.8548101 L65.9948809,80.3674684 L66.2919712,80.6332911 L66.7660515,81.07 C67.0441786,81.3294937 67.3159846,81.5826582 67.5751485,81.8358228 L68.0113023,82.2535443 L68.7382254,82.9687342 L69.149095,83.3801266 C69.3576903,83.5953165 69.5726067,83.8105063 69.781202,84.013038 C69.9897973,84.2155696 69.9961184,84.234557 70.0972555,84.348481 L70.1920716,84.4497468 L70.678794,84.9687342 L71.1086268,85.4497468 L71.4373224,85.8231646 C71.671202,86.0889873 71.8734763,86.3358228 72.0694294,86.5510127 C72.0694294,86.5510127 71.3867538,86.0383544 70.2489612,85.2155696 C69.2502321,84.4940506 67.8975231,83.5320253 66.3362187,82.4560759 L64.5094294,81.1902532 C64.4866736,82.2351899 64.5441953,83.2807595 64.6800983,84.3168354 L64.7180247,84.348481 L65.3501318,84.8674684 L65.9822388,85.405443 L66.4689612,85.8294937 L66.9114361,86.2408861 C67.0884261,86.4117722 67.2843793,86.5826582 67.4487271,86.7472152 C68.5365833,87.8332911 69.7002923,88.8402532 70.9316368,89.7598734 C72.9853525,91.4022785 75.5618207,92.2472152 78.1882254,92.1396203 C78.0124997,90.598481 77.3241351,89.1605063 76.2350147,88.0573418 C74.3955833,86.1586076 70.5460515,83.3294937 69.4525064,79.5510127 L69.3640114,79.513038 Z" id="Fill-91" fill="#FFFFFF"></path>
                <path d="M44.3831418,40.6712025 L44.4716368,40.6268987 L44.5348475,40.6268987 L44.673911,40.5572785 L44.7118375,40.5572785 L44.939396,40.4496835 L45.2428074,40.310443 L45.5967873,40.1522152 L45.9950147,39.9813291 L46.0392622,39.9813291 L46.4943793,39.8041139 L46.5323057,39.8041139 L47.0443124,39.6142405 L47.0885599,39.6142405 L47.6511351,39.418038 L47.6953826,39.418038 L48.3274896,39.2155063 L48.3654161,39.2155063 C48.5803324,39.1458861 48.807891,39.0825949 49.0354495,39.0193038 L49.0733759,39.0193038 C49.3009344,38.9560127 49.5411351,38.8927215 49.7876569,38.8357595 L49.8255833,38.8357595 C50.0657839,38.7787975 50.3186268,38.7155063 50.5777906,38.6648734 L50.6220381,38.6648734 C50.8748809,38.6079114 51.1403659,38.5572785 51.4121719,38.5066456 L51.4500983,38.5066456 L52.2844796,38.3674051 C51.8167204,37.8231013 50.1669211,36.1585443 46.8041117,35.0636076 C46.8041117,35.0636076 48.5929746,34.3863924 52.6511017,36.2344937 C52.6511017,36.2344937 51.5259512,33.3041139 47.5436769,30.310443 C46.0455833,29.5129747 44.0481251,28.4876582 42.1265197,27.475 L41.6334763,27.2218354 L41.1846803,26.9813291 L40.622105,26.6838608 L40.2112355,26.4686709 L39.6865866,25.9496835 L39.3452488,25.7661392 L38.5108676,25.3167722 L38.3781251,25.2408228 L37.7460181,24.8863924 L37.4994963,24.7408228 L37.0759846,24.4939873 L36.8547472,24.3547468 L36.5134094,24.1332278 L36.3617037,24.0509494 C36.2226401,23.9496835 36.0962187,23.8610759 36.0077237,23.7851266 C35.9192288,23.7091772 36.8231418,34.9053797 44.3831418,40.6712025" id="Fill-93" fill="#FFFFFF"></path>
                <path d="M105.248727,28.6017089 C100.823978,30.3232278 96.6767237,35.5637342 96.6767237,35.5637342 C97.4573759,36.3118354 98.3037672,36.9877848 99.2051518,37.5827215 C99.4017371,33.2536076 105.248727,28.6017089 105.248727,28.6017089" id="Fill-95" fill="#FFFFFF"></path>
                <path d="M59.0857615,37.5953165 C59.9877783,37.0003797 60.8341696,36.3244304 61.6141896,35.5763291 C61.6141896,35.5763291 57.4802097,30.3231646 53.0364922,28.614278 C53.0301763,28.6016456 58.8834873,33.2535443 59.0857615,37.5953165" id="Fill-97" fill="#FFFFFF"></path>
                <path d="M59.1363933,64.8800633 C59.9151492,65.0446203 60.6793666,64.5452532 60.8437144,63.7655063 C61.0074301,62.9857595 60.5093298,62.2199367 59.7299418,62.0560127 C59.6471358,62.0382911 59.5624334,62.0281646 59.4777311,62.0256329 L59.3007411,62.0256329 C58.5118716,62.0161392 57.864594,62.6490506 57.8551124,63.4389241 C57.8462629,64.131962 58.3355137,64.731962 59.016293,64.8610759 L59.1363933,64.8800633 Z" id="Fill-99" fill="#FFFFFF"></path>
                <path d="M55.7230786,53.9688608 C56.9266104,52.2062025 58.5296338,50.753038 60.4006706,49.7283544 C60.4006706,49.7283544 52.4361221,51.6713924 48.738296,57.3865823 L48.8204699,57.3359494 C48.9361455,57.2593671 49.0568779,57.1897468 49.1807709,57.1270886 L49.3577609,57.0321519 L49.8002358,56.816962 L50.0088311,56.7283544 C50.2673629,56.6194937 50.5309515,56.524557 50.7989649,56.4435443 L50.8432124,56.4435443 C51.1150184,56.3675949 51.4057876,56.2979747 51.709199,56.2410127 L52.0126104,56.1903797 C52.2591321,56.1524051 52.5246171,56.1270886 52.8027441,56.1081013 L53.1314398,56.1081013 C53.5359883,56.0903797 53.941801,56.1011392 54.3450853,56.1397468 C58.0871589,56.5005063 62.4866237,59.1081013 64.6294666,61.924557 C66.7723094,64.7410127 68.6623094,67.7536709 70.4701355,67.6207595 C70.5731689,67.6087342 70.674306,67.5878481 70.7735468,67.5574684 L70.9758211,67.4688608 L71.0453528,67.4688608 C71.2261355,67.36 71.3898512,67.2258228 71.5320753,67.0701266 C69.5156538,66.316962 67.6509381,63.6713924 67.1073261,62.3106329 C66.5232592,60.5175949 65.5517107,58.8751899 64.2628445,57.5005063 C63.226189,56.4441772 61.9822023,55.6150633 60.6092659,55.0637975 C59.0429047,54.46 57.3962659,54.0910127 55.7230786,53.9688608" id="Fill-101" fill="#FFFFFF"></path>
                <path d="M53.1060923,57.8676582 C53.0302395,57.8676582 52.6825806,57.7917089 52.176895,57.7284177 L52.0820789,57.7284177 L51.8924468,57.7284177 C51.2192528,59.7442405 51.0302528,61.8910759 51.3425137,63.9942405 C51.6301224,65.7651266 52.4474368,67.4075316 53.6876308,68.7031013 C53.8456575,68.8613291 53.9910421,69.0258861 54.1680321,69.1841139 C54.1680321,69.1841139 54.3450221,69.1524684 54.6484334,69.1208228 C56.5447545,68.8929747 63.7760589,68.3423418 68.2513766,72.0638608 C68.5231826,72.298038 68.8013097,72.5322152 69.0541525,72.798038 C68.7962528,72.4606962 68.5149652,72.1410759 68.2134502,71.8423418 C67.8771692,71.4986709 67.5225572,71.1727215 67.1515104,70.8676582 C65.040905,69.1100633 62.4726542,67.9923418 59.7495371,67.6461392 C58.1262863,67.4537342 56.4834401,67.5068987 54.875992,67.8043671 C54.0763766,66.969557 53.5093766,65.9398101 53.2325137,64.8170253 C52.6389652,62.555 52.6086241,60.1822152 53.1440187,57.9056329 L53.1060923,57.8676582 Z" id="Fill-103" fill="#FFFFFF"></path>
                <path d="M94.9202247,66.3486076 C95.695188,66.1827848 96.1894957,65.4194937 96.0238836,64.6435443 C95.9056796,64.0897468 95.4733184,63.6568354 94.9202247,63.538481 C94.8026528,63.5220253 94.6831846,63.5220253 94.5656127,63.538481 L94.4777498,63.538481 L94.401897,63.6144304 C94.053606,63.9498734 93.6427365,64.3865823 93.2008936,64.8802532 C93.1945726,64.9283544 93.1945726,64.9770886 93.2008936,65.0258228 C93.2318669,65.8207595 93.8987398,66.4403797 94.6926662,66.4118987 C94.7697833,66.3960759 94.8456361,66.3751899 94.9202247,66.3486076" id="Fill-105" fill="#FFFFFF"></path>
                <path d="M84.9960181,67.1459494 C85.0649177,67.2320253 85.1414027,67.3124051 85.2235766,67.3864557 C85.2419077,67.4067089 85.2627672,67.4237975 85.2867873,67.4370886 C85.3582154,67.4991139 85.4365967,67.5522785 85.5206669,67.5953165 C85.5453191,67.6162025 85.5731318,67.6332911 85.6028408,67.6459494 C85.7109311,67.6978481 85.8253425,67.7339241 85.9441786,67.7535443 C87.7203993,68.0573418 89.8948475,65.2218987 92.2968542,62.6332911 C94.6988609,60.0446835 99.3322054,57.8611392 103.086921,57.8611392 C105.2285,57.8111392 107.31066,58.5731646 108.914948,59.9940506 C105.924449,53.7535443 97.9858174,50.9181013 97.9858174,50.9181013 C99.7380181,52.1339241 101.17859,53.7478481 102.189329,55.626962 C100.593891,55.6010127 99.0003492,55.7750633 97.4485264,56.1459494 C96.1432254,56.4560759 94.8954462,56.9712658 93.7507003,57.6712658 C91.7835833,58.8801266 90.2722154,60.7073418 89.4523726,62.8674684 C88.8202656,64.4497468 86.4625064,67.0067089 84.724212,66.7725316 C84.8000649,66.8927848 84.8759177,67.0067089 84.9580916,67.1143038 L84.9960181,67.1459494 Z" id="Fill-107" fill="#FFFFFF"></path>
                <path d="M86.8543495,73.0322152 C92.391607,68.3613291 102.163982,70.8866456 102.163982,70.8866456 C106.993279,67.3866456 105.956624,61.2284177 105.615286,59.6777848 C104.75562,59.6777848 104.117192,59.7410759 104.117192,59.7410759 C104.843483,67.0132278 101.44338,69.4246203 101.44338,69.4246203 C92.296791,66.8360127 86.8543495,73.0322152 86.8543495,73.0322152" id="Fill-109" fill="#FFFFFF"></path>
                <path d="M162.890251,173.35519 C160.40607,172.607722 156.184227,173.85519 154.192458,174.348228 C154.192458,174.348228 159.913026,174.848228 160.905434,176.095696 C161.379515,176.690633 163.288478,177.734937 165.906033,178.367848 C166.129167,178.426709 166.356093,178.477342 166.588709,178.519114 L167.043194,178.608354 L167.706906,178.715949 L168.231555,178.78557 L168.895267,178.842532 C169.084899,178.842532 169.26821,178.874177 169.458475,178.879873 C169.647475,178.886203 169.919281,178.879873 170.146839,178.879873 L170.734699,178.879873 C170.936973,178.879873 171.2151,178.879873 171.455301,178.83557 C171.696133,178.791899 171.840886,178.83557 172.037471,178.791899 C172.232792,178.747595 172.555167,178.721646 172.814331,178.684304 C173.073495,178.645696 173.180953,178.633671 173.370585,178.595063 C173.661354,178.54443 173.959077,178.468481 174.249846,178.393165 C174.407873,178.354557 174.558946,178.323544 174.710652,178.278608 C175.169562,178.150759 175.620886,177.998861 176.063361,177.823544 C176.063361,177.823544 179.047538,180.804557 176.809879,184.045063 C174.571588,187.28557 169.603227,187.279241 166.619682,186.779241 C166.449013,186.779241 166.265702,186.70962 166.06406,186.664684 L165.861154,186.614051 L165.418679,186.500759 L165.178478,186.430506 L164.628545,186.265949 L164.452187,186.20962 C164.193023,186.127342 163.927538,186.045063 163.6551,185.949494 L163.490752,185.898861 L162.713893,185.633038 L162.624766,185.602025 L161.486973,185.208987 C158.124164,184.031772 154.104595,182.607722 151.209545,182.298228 C151.209545,182.298228 157.669046,184.045063 159.426936,185.78557 C159.603294,185.962785 159.818842,186.152658 160.059043,186.342532 C160.298612,186.531772 160.481923,186.696962 160.69115,186.873544 L160.88015,187.026076 C161.083057,187.177975 161.297341,187.336203 161.512257,187.488101 L161.828311,187.715316 C162.024264,187.854557 162.232859,187.987468 162.460418,188.127342 L162.858645,188.379873 L163.446505,188.734937 L163.87697,188.987468 L164.426903,189.291899 L164.868745,189.512785 L165.361789,189.746962 C165.526137,189.823544 165.671521,189.874177 165.816906,189.936835 C165.962291,190.000759 166.082391,190.04443 166.202491,190.083038 C166.431314,190.164051 166.665826,190.22481 166.904762,190.266582 C165.006545,192.172911 162.382036,193.172911 159.69811,193.013418 C157.606468,192.936835 154.401053,191.512785 151.708909,190.127342 C150.560371,189.546962 149.481364,188.84 148.491485,188.019747 C146.755719,186.474177 144.729184,185.29 142.530083,184.538734 L149.483261,182.550759 C146.924491,182.279241 144.349287,182.19443 141.778508,182.298228 C138.801284,182.550759 130.602224,184.291266 127.365836,183.791266 C124.13008,183.291266 98.1814545,177.336203 78.2700833,164.083038 C71.7973074,159.772911 65.912391,155.481772 60.5710866,151.145696 C47.7582773,140.772911 38.1692137,130.126709 31.6774746,118.35519 C24.6610866,105.614684 21.2287455,81.9564557 27.7780064,67.2349367 C26.5757388,72.7343038 25.9550097,78.3456962 25.9253007,83.975443 L28.3715548,81.4437975 C28.4101134,81.2918987 28.7571401,96.0007595 31.0264043,102.139367 L33.5105849,99.7855696 C33.5105849,99.7855696 35.217906,110.405823 42.6129261,117.975443 L44.5914211,120.564051 L44.5914211,117.298228 C44.5914211,117.241266 44.5914211,110.969114 48.0869729,107.715949 C49.7393007,106.201392 51.9592605,105.466582 54.1868057,105.696962 C62.6507187,106.177342 67.9477756,124.943797 67.9477756,124.943797 L68.0236284,124.943797 L68.0615548,124.943797 L68.2259027,124.943797 L68.3080766,124.943797 L69.1740632,125.108354 L69.7303174,125.20962 L69.8061702,125.20962 C70.4382773,125.329241 71.2410532,125.462785 72.0754344,125.595696 C73.2701167,125.791899 74.5539261,125.975443 75.7100498,126.095696 C78.2384779,128.026076 82.1322572,130.823544 86.9299495,133.810886 C87.4988458,134.165316 88.0867054,134.519747 88.680886,134.880506 L88.7377756,134.918481 C89.9514211,135.646329 91.2156351,136.386835 92.5304177,137.114051 L92.5999495,137.152658 C93.1941301,137.488101 93.8009528,137.817215 94.4077756,138.145696 L94.7238291,138.317215 L96.4753977,139.234937 L96.7212873,139.361519 C98.0613542,140.051392 99.4393475,140.721646 100.842625,141.374177 L101.241485,141.557722 L102.934899,142.317215 L103.453859,142.538734 C104.047408,142.798228 104.647909,143.050759 105.249043,143.298228 L105.583428,143.436835 C106.316672,143.727975 107.049916,144.019114 107.78316,144.291899 L108.029682,144.386203 C108.661789,144.622911 109.293896,144.850759 109.926003,145.07038 L110.55811,145.279241 L110.817274,145.367215 L112.195899,145.816582 L112.828006,146.013418 C113.460113,146.208987 114.09222,146.398861 114.724327,146.576076 L115.027107,146.665316 C115.772993,146.873544 116.519511,147.064051 117.271087,147.240633 L117.82102,147.367215 C118.390548,147.500127 118.952491,147.627342 119.515067,147.740633 L120.248311,147.886835 C120.78813,147.988101 121.324789,148.082405 121.860184,148.171646 L122.542859,148.28557 C123.289378,148.398861 124.040953,148.506456 124.79316,148.588734 L121.961321,148.588734 L121.215434,148.588734 L120.899381,148.588734 L120.488511,148.588734 L120.121889,148.588734 L119.685735,148.588734 L119.28814,148.588734 L118.819749,148.588734 L118.427842,148.588734 L117.909515,148.588734 L117.530251,148.588734 L116.968307,148.557089 L116.588411,148.557089 L116.000552,148.519747 L115.772993,148.519747 L114.38299,148.424177 L114.053662,148.424177 L113.421555,148.373544 L113.004364,148.336203 L112.372257,148.279241 L111.923461,148.240633 L111.291354,148.177975 L110.836237,148.127342 L110.20413,148.057089 L109.755334,148.006456 L109.123227,147.931139 L108.706036,147.873544 L108.073929,147.78557 L107.720582,147.728608 C107.296438,147.671646 106.879879,147.602025 106.456368,147.531772 L106.348277,147.531772 L106.025903,147.481139 L105.444364,147.373544 L104.989247,147.291266 L104.427304,147.177975 L103.971555,147.082405 L103.428575,146.962785 L102.979779,146.861519 L102.45513,146.728608 L102.018344,146.614684 L101.51898,146.47481 L101.089147,146.348861 L100.615067,146.203291 L100.551856,146.203291 C100.168167,146.076076 99.7958559,145.943165 99.4330264,145.804557 C100.785735,146.405823 102.751588,147.240633 105.084063,148.127342 C111.886167,150.715316 121.759679,153.690633 128.472023,152.348861 C136.657809,150.70962 141.904297,146.019747 145.887204,143.608354 L146.025635,143.532405 L146.626769,143.190633 L147.04396,142.968481 C147.258876,142.860886 147.467471,142.766582 147.676067,142.677342 C147.789214,142.626709 147.902993,142.569747 148.017404,142.526076 C148.244331,142.443165 148.459247,142.386203 148.649511,142.329241 C148.743695,142.329241 148.839143,142.266582 148.933327,142.247595 C149.226625,142.183038 149.52498,142.148861 149.824598,142.145696 C154.299916,142.145696 156.284732,146.627342 156.284732,149.361519 C156.284732,149.361519 148.585669,152.842532 144.856869,154.83557 C144.856869,154.83557 158.023026,151.848861 161.007204,151.848861 C163.990117,151.848861 168.098812,151.652658 170.526103,153.507089 C172.953394,155.360886 173.686638,157.222278 173.231521,159.076076 C172.801057,160.951392 171.32003,162.404557 169.438879,162.797595 L169.046973,162.879873 L168.876936,162.879873 L168.579214,162.918481 L168.364297,162.918481 L168.054565,162.950127 L167.821317,162.950127 L167.466705,162.950127 L167.239147,162.950127 L166.797304,162.981139 L166.664562,162.981139 L165.102625,163.057089 C163.052702,163.088734 161.0091,163.300127 158.996471,163.69 C156.019247,164.436835 154.02811,165.931139 152.789812,168.171646 C152.789812,168.171646 156.765766,165.684304 159.74299,165.931139 C161.366873,166.063418 163.737274,166.791899 166.354197,166.854557 L167.220816,166.854557 L167.852923,166.817215 L168.143692,166.817215 L168.711956,166.741266 L169.066568,166.684304 L169.591217,166.569747 L170.008408,166.462152 L170.482488,166.323544 L170.974899,166.14 C171.107642,166.083038 171.240384,166.038101 171.38008,165.975443 C171.518511,165.911519 171.778307,165.784937 171.973628,165.684304 L172.283361,165.526076 C172.59499,165.351392 172.896505,165.162152 173.187274,164.955823 C173.187274,164.955823 178.402157,166.450127 178.155635,169.937468 C177.909113,173.424177 174.179682,175.158987 171.442659,175.633671 C171.122812,175.68557 170.799806,175.708987 170.475535,175.703291 L170.115866,175.703291 C169.900317,175.703291 169.691722,175.703291 169.483759,175.633671 L169.021689,175.557089 L168.48503,175.430506 L167.940786,175.291899 L167.878207,175.291899 C166.19617,174.684304 164.356739,173.797595 162.890251,173.35519 Z M77.8149662,9.35455696 C91.315508,9.33746835 104.516431,13.3374684 115.741388,20.8488608 C114.389311,21.5887342 113.004364,22.2665823 111.613729,22.8868354 C90.6903542,9.11151899 63.9212538,7.88493671 41.8291134,19.69 L41.7279763,19.6210127 C52.552809,12.89 65.0476686,9.33746835 77.7896819,9.36721519 L77.8149662,9.35455696 Z M61.6336585,35.5640506 C60.8530064,36.3121519 60.0066151,36.9881013 59.1052304,37.5824051 C58.9023241,33.2412658 53.049013,28.5893671 53.049013,28.5893671 C57.4737622,30.3235443 61.6083742,35.5767089 61.6083742,35.5767089 L61.6336585,35.5640506 Z M105.249043,28.6020253 C105.249043,28.6020253 99.4020532,33.2539241 99.1991468,37.5950633 C98.2971301,37.0001266 97.4513709,36.3248101 96.6707187,35.5767089 C96.6707187,35.5767089 100.81102,30.3235443 105.249043,28.6020253 Z M121.89811,24.8678481 L122.062458,24.7602532 C122.201521,24.6653165 122.327943,24.5824051 122.41707,24.5070886 C122.504933,24.4311392 122.37219,24.9944304 122.233759,25.8102532 C121.963217,27.3779747 121.574471,28.9222785 121.07005,30.4311392 C119.888642,33.9817722 117.707873,38.3608861 113.750883,41.2792405 C111.276184,39.9608861 108.602371,39.0589873 105.836271,38.6083544 L105.235769,38.5134177 C105.235769,38.5134177 119.098508,47.3292405 123.427809,55.2855696 C121.500515,55.583038 119.641488,56.2260759 117.941752,57.1843038 C117.941752,57.1843038 125.595936,58.7722785 127.612358,75.5387342 C127.612358,75.5387342 121.551083,66.5767089 110.432321,69.468481 C105.014531,70.8741772 99.6359328,74.14 95.1858993,77.5381013 C94.1871702,75.4374684 92.4362338,73.8678481 90.1663375,73.8678481 C86.0449997,73.8678481 81.759314,78.2982278 81.759314,78.2982278 C84.5658692,76.8229114 88.8768391,76.1716456 91.1467355,77.3551899 C91.4659495,77.5134177 91.7548224,77.7279747 91.9994478,77.9881013 C92.3635415,78.4210127 92.6138559,78.9393671 92.727003,79.4944304 L92.6947656,79.4944304 L91.9678425,80.1273418 L91.2409194,80.7602532 L90.6088124,81.3482278 C90.381886,81.5444304 90.1663375,81.7412658 89.9767054,81.9374684 L89.3445983,82.5387342 L88.7946652,83.0577215 L88.1625582,83.6906329 L87.7390465,84.1083544 C87.5121201,84.3418987 87.2902505,84.5634177 87.1069395,84.7855696 C87.0184445,84.8798734 86.9179395,84.9748101 86.8351334,85.0703797 L86.1651,85.7855696 C86.1278057,85.8362025 86.076605,85.8868354 86.0386786,85.9311392 C85.79911,86.196962 85.5772405,86.4494937 85.4065716,86.6653165 C85.4065716,86.6653165 87.429314,85.2089873 90.3433274,83.246962 L90.4128592,83.196962 L91.0449662,82.7849367 L91.3230933,82.6013924 L91.7788425,82.2975949 L92.3407856,81.9248101 L92.5304177,81.804557 L93.0683408,81.4501266 C93.0733977,82.4963291 92.9975448,83.5418987 92.8401502,84.5760759 L92.1701167,85.1020253 L91.5380097,85.6146835 L91.0266351,86.0450633 C90.6726552,86.3488608 90.3370064,86.6779747 90.033595,86.9437975 C84.8313542,91.861519 82.3787789,92.1526582 79.1999127,92.1526582 C79.4040833,90.6140506 80.1158358,89.1887342 81.2220231,88.1020253 C83.1183441,86.2032911 86.9994813,83.468481 88.1752003,79.7159494 C85.2447522,81.0374684 82.0336485,81.6159494 78.8263375,81.3988608 C75.6266117,81.5558228 72.4376318,80.9210127 69.5406853,79.5513924 C70.6285415,83.3488608 74.4837622,86.1456962 76.3231936,88.0570886 C77.4129462,89.1608861 78.1006786,90.5982278 78.2764043,92.14 C75.6506318,92.246962 73.0741635,91.4020253 71.0198157,89.7596203 C69.7884712,88.84 68.6247622,87.833038 67.536906,86.7475949 C67.3725582,86.5824051 67.1772371,86.4121519 66.9996151,86.2412658 C66.8232572,86.0703797 66.715799,85.9748101 66.5577722,85.8292405 L66.0710498,85.4058228 L65.4389428,84.8672152 L64.8068358,84.3488608 L64.7689094,84.3488608 C64.6323742,83.3121519 64.5754846,82.2672152 64.5982405,81.2222785 C65.2303475,81.6463291 65.8624545,82.0703797 66.4243977,82.4881013 C67.980013,83.5634177 69.3390431,84.5324051 70.3377722,85.2539241 L72.1576084,86.5893671 L71.5255013,85.861519 L71.1968057,85.4874684 L70.7669729,85.0070886 L70.2802505,84.4881013 L70.1854344,84.3868354 C70.0842973,84.2792405 69.9837923,84.1653165 69.8693809,84.0507595 C69.7556017,83.9374684 69.4585114,83.6267089 69.2372739,83.4178481 L68.8264043,83.0070886 L68.0109863,82.2792405 L67.5748324,81.8608861 C67.3156686,81.6083544 67.0438625,81.3551899 66.7657355,81.0950633 L66.2916552,80.6589873 L65.9945649,80.3931646 L65.4263007,79.8805063 L64.8694144,79.3931646 L64.7366719,79.2855696 C64.8618291,78.7349367 65.1203609,78.2248101 65.4888793,77.7982278 L65.5900164,77.7089873 C65.806197,77.5039241 66.0514545,77.3311392 66.3169395,77.196962 C67.1273007,76.8089873 68.0109863,76.5994937 68.9085783,76.583038 C71.2758191,76.5646835 73.6101903,77.1343038 75.7037288,78.2412658 C75.7037288,78.2412658 72.2271401,74.5197468 68.4913876,73.8108861 C68.1260298,73.7317722 67.7530866,73.6874684 67.3788793,73.6779747 C66.5704144,73.668481 65.7720632,73.8646835 65.0590465,74.2475949 C63.8504579,74.9456962 62.8858625,76.0001266 62.2967388,77.2665823 C57.9099161,73.7912658 52.588207,70.4305063 47.195702,68.9311392 C36.1464712,65.8235443 29.9265381,74.6843038 29.9265381,74.6843038 C30.9189462,67.4817722 32.9100833,63.1146835 34.8569729,60.4691139 C35.5592438,59.4893671 36.392993,58.6121519 37.3348324,57.861519 C38.0876719,57.2229114 38.9700933,56.7564557 39.9201502,56.4937975 C38.2336886,55.5108861 36.3835114,54.8418987 34.4587455,54.5197468 C38.9340632,46.64 52.9478759,38.0640506 52.9478759,38.0640506 L52.3157689,38.1520253 L51.4820197,38.2918987 L51.4434612,38.2918987 C51.1716552,38.3425316 50.9061702,38.3931646 50.6533274,38.4501266 L50.6090799,38.4501266 C50.3499161,38.5007595 50.0977054,38.5640506 49.8568726,38.6210127 L49.8189462,38.6210127 C49.5724244,38.6773418 49.3322237,38.7412658 49.1046652,38.804557 L49.0667388,38.804557 C48.8391803,38.8678481 48.6116217,38.9305063 48.3967054,39.0007595 L48.359411,39.0007595 L47.727304,39.2032911 L47.6824244,39.2032911 L47.1198492,39.3994937 L47.0756017,39.3994937 L46.563595,39.5887342 L46.5256686,39.5887342 L46.0705515,39.7665823 L46.026304,39.7665823 L45.6280766,39.9374684 L45.2740967,40.0956962 L44.9706853,40.2343038 L44.7431268,40.3425316 L44.7052003,40.3425316 L44.5667689,40.4121519 L44.5029261,40.4121519 L44.4144311,40.4564557 C36.8234579,34.9051899 36.039013,23.7532911 36.039013,23.7532911 C36.039013,23.7532911 36.2539294,23.918481 36.392993,24.0197468 L36.5510197,24.1203797 L36.8923575,24.3425316 L37.1142271,24.4817722 L37.5371067,24.7279747 L37.7836284,24.8735443 L38.4157355,25.2279747 L38.54911,25.304557 L39.3828592,25.7665823 L39.724197,25.9501266 L40.3000465,26.2602532 L40.7102839,26.475443 L41.2728592,26.7722785 L41.7222873,27.0134177 L42.2146987,27.2665823 C44.1110197,28.2792405 46.1343943,29.3039241 47.6318559,30.1020253 C48.5104846,30.5640506 49.2184445,30.9564557 49.629314,31.2153165 C51.7721569,32.5577215 56.3359696,35.6456962 56.9870398,40.0197468 C57.407391,42.4678481 56.0344545,44.8703797 53.7127254,45.746962 C63.0805515,46.6336709 64.382692,38.4121519 64.382692,38.4121519 C67.7075749,38.3298734 72.6000833,38.5577215 72.6000833,38.5577215 C74.5792104,41.1906329 72.7644311,45.7918987 72.1070398,50.1146835 C71.4496485,54.4368354 74.3257355,55.6526582 74.3257355,55.6526582 C73.2448324,51.4374684 76.7530264,49.0387342 76.7530264,49.0387342 C76.3086552,51.2374684 76.8491067,53.5203797 78.2321569,55.2855696 C78.5058592,55.6868354 78.7473241,56.1102532 78.9527589,56.5513924 C79.1651468,56.1096203 79.4123007,55.6862025 79.6923241,55.2855696 C81.1044512,53.5437975 81.6840933,51.2697468 81.2789127,49.0640506 C81.2789127,49.0640506 84.7428592,51.5260759 83.5867355,55.7153165 C83.5867355,55.7153165 86.4811535,54.5640506 85.8996151,50.2222785 C85.3180766,45.8805063 83.5867355,41.2602532 85.615799,38.6589873 C85.615799,38.6589873 90.5203174,38.5134177 93.8331903,38.6589873 C93.8331903,38.6589873 94.989314,46.8868354 104.376735,46.1779747 C102.077762,45.2532911 100.753498,42.8298734 101.2162,40.3925316 C101.910886,36.0767089 106.531588,33.0324051 108.731321,31.7349367 C109.148511,31.4817722 109.862792,31.1020253 110.748374,30.6526582 C112.523963,29.7475949 115.109281,28.4817722 117.391819,27.304557 L117.504966,27.246962 L118.193963,26.8931646 L118.484732,26.746962 L119.073224,26.4431646 L119.46513,26.2349367 L120.097237,25.8805063 L120.583327,25.6146835 C120.684465,25.5640506 120.77296,25.5064557 120.862087,25.4564557 L121.266003,25.2279747 L121.398745,25.1526582 L121.500515,25.0893671 L121.89811,24.8678481 Z M146.208946,77.8925316 C146.214635,102.753291 132.769087,125.664684 111.076438,137.760253 C142.84424,117.272911 152.010424,74.8792405 131.549752,43.0710127 C129.41007,39.7450633 126.986572,36.6102532 124.306438,33.7032911 C124.869013,32.1570886 125.326659,30.575443 125.67811,28.9691139 C138.828465,41.8343038 146.231702,59.4716456 146.208946,77.8798734 L146.208946,77.8925316 Z M95.8805849,79.6020253 C99.8508492,77.1210127 104.142856,74.6716456 107.258511,73.5324051 C114.767943,70.7849367 120.836802,71.9437975 124.875334,76.4248101 C124.875334,76.4248101 125.31212,79.8931646 125.020719,81.0513924 C122.81909,77.4786076 119.078913,75.1381013 114.907006,74.7222785 C109.900719,74.2096203 102.082187,78.1146835 96.0955013,82.1843038 C96.1416452,81.3134177 96.0689528,80.4406329 95.8805849,79.5893671 L95.8805849,79.6020253 Z M71.7783441,95.7412658 C71.3143776,97.0906329 71.0248726,98.4944304 70.9193107,99.918481 C67.9035281,97.3868354 67.8782438,90.0703797 67.8782438,90.0703797 C68.5103508,90.9817722 70.1159027,92.0767089 71.3421903,92.8172152 C72.1961669,93.3298734 72.8592472,93.6773418 72.8592472,93.6773418 C72.4003375,94.304557 72.0362438,94.9950633 71.7783441,95.7286076 L71.7783441,95.7412658 Z M73.8895816,104.70962 C73.8895816,104.70962 73.9597455,109.607722 75.9186452,111.171646 C75.2953876,111.23557 74.6664411,111.18557 74.0602505,111.026076 C73.0956552,110.790633 72.2789729,110.149494 71.8225916,109.265949 C71.8225916,109.265949 71.3421903,108.367215 73.2511535,105.595063 C73.4407856,105.303924 73.6493809,105.013418 73.8895816,104.696962 L73.8895816,104.70962 Z M83.1373074,102.038101 C82.6821903,102.956456 81.7909194,104.266582 78.5172371,104.266582 C75.2422906,104.266582 74.3826251,102.886203 73.9401502,101.955823 C73.4976753,101.026076 72.9477421,97.3488608 72.9477421,97.3488608 C74.1057622,96.4773418 75.6721234,96.3855696 76.9243274,97.1146835 C77.5614913,98.4621519 78.1025749,99.8539241 78.5425214,101.278608 C79.0083843,99.8608861 79.5741201,98.4773418 80.2359361,97.14 C81.5001502,96.433038 83.0633508,96.5532911 84.2062003,97.4437975 C84.2062003,97.4437975 83.5924244,101.108354 83.1373074,102.026076 L83.1373074,102.038101 Z M84.3642271,93.7729114 C84.3642271,93.7729114 88.3332271,91.7855696 89.4210833,90.2539241 C89.4210833,90.2539241 89.2687455,97.6020253 86.2156686,100.04443 C86.1967054,100.031772 86.0386786,96.0577215 84.3642271,93.7602532 L84.3642271,93.7729114 Z M85.1221234,109.380506 C83.902789,111.677975 81.0007856,111.215316 81.0007856,111.215316 C82.9856017,109.69 83.1373074,104.791899 83.1373074,104.791899 C85.7352672,108.298228 85.1221234,109.367215 85.1221234,109.367215 L85.1221234,109.380506 Z M61.3296151,81.8551899 C55.4067722,77.6779747 47.6634612,73.6273418 42.6451635,74.0640506 C38.4631435,74.4178481 34.6856719,76.704557 32.4296819,80.2475949 C32.1578759,79.0893671 32.6509194,75.6273418 32.6509194,75.6273418 C36.7722572,71.196962 42.8594478,70.1646835 50.3499161,73.0387342 C53.4409194,74.2279747 57.6949997,76.7539241 61.6210164,79.3039241 C61.4067321,80.133038 61.3068592,80.9868354 61.323294,81.8425316 L61.3296151,81.8551899 Z M55.287304,94.5134177 C48.8644645,90.083038 39.3828592,95.6906329 39.3828592,95.6906329 C39.3392438,98.1456962 40.8556686,102.361519 40.8556686,102.361519 C51.1274077,93.0007595 57.189314,101.633671 57.189314,101.633671 C44.9833274,97.5197468 41.880314,109.760253 41.880314,109.760253 C35.672391,101.532405 36.2665716,91.8741772 36.2665716,91.8741772 C34.8127254,92.4241772 33.1888425,94.7096203 33.1888425,94.7096203 C33.1256318,94.5975949 33.0731669,94.4817722 33.0308157,94.3608861 C33.0308157,94.3172152 32.9928893,94.2602532 32.973294,94.2096203 L32.8784779,93.9058228 C32.8784779,93.8425316 32.8405515,93.7665823 32.8215883,93.696962 C32.8026251,93.6273418 32.7646987,93.4817722 32.7330933,93.3608861 L32.6768358,93.1146835 L32.6003508,92.7532911 C32.6003508,92.6653165 32.5687455,92.5767089 32.5497823,92.4874684 C32.5314512,92.3994937 32.5055348,92.2222785 32.4802505,92.0893671 C32.4549662,91.9564557 32.4802505,91.9121519 32.436003,91.8235443 C32.3917555,91.7349367 32.3860666,91.525443 32.3664712,91.3741772 L32.3285448,91.14 C32.3285448,90.9691139 32.2842973,90.804557 32.259013,90.6336709 C32.2621736,90.5748101 32.2621736,90.5153165 32.259013,90.4564557 L32.1831602,89.8235443 C31.9998492,88.304557 31.9050331,87.0387342 31.9050331,87.0387342 C33.5801167,81.7222785 40.0339294,76.3425316 46.5256686,76.9121519 C53.0174077,77.4817722 61.4244311,83.6779747 61.4244311,83.6779747 C61.7246819,85.2653165 62.1342873,86.8305063 62.6507187,88.3608861 C63.0931936,89.804557 63.6368057,91.4437975 64.2246652,93.1716456 L64.2246652,93.2406329 C64.3201134,93.5070886 64.4079763,93.7729114 64.5027923,94.0444304 C64.5027923,94.0956962 64.5027923,94.1463291 64.5533609,94.196962 C64.8188458,94.9501266 65.0849629,95.7222785 65.3624579,96.4944304 L65.4952003,96.8741772 C65.5590431,97.0634177 65.6279428,97.2539241 65.6974746,97.4437975 L65.8681435,97.918481 L66.0584077,98.4494937 L66.2916552,99.0824051 C66.3365348,99.196962 66.3744612,99.304557 66.4117555,99.418481 L66.7910197,100.450127 L66.8485415,100.608354 L67.1892472,101.532405 C67.2075783,101.587468 67.2290699,101.642532 67.2524579,101.696329 C67.3725582,102.019747 67.4863375,102.329241 67.6064378,102.652658 L67.6064378,102.70962 C68.6936619,105.614684 69.6803809,108.14 70.3308191,109.671646 C70.4003508,109.822911 70.4635615,109.97481 70.5204512,110.107722 C70.5836619,110.247595 70.6342304,110.367215 70.6911201,110.481139 L70.7290465,110.57038 C70.7751903,110.658354 70.8137488,110.740633 70.8428258,110.816582 L70.8807522,110.893165 L70.9945314,111.107722 C71.718294,112.511519 72.9723943,113.566582 74.4774411,114.038101 L74.5596151,114.038101 L74.8826217,114.108354 C75.8548023,114.240633 76.8339361,114.322911 77.8149662,114.354557 L77.9287455,114.354557 L78.156304,114.354557 L78.3965047,114.354557 C79.3320231,114.354557 80.6025582,114.297595 81.4938291,114.203291 L81.8857355,114.152658 C81.9963542,114.137468 82.1063408,114.115949 82.2144311,114.088734 C83.7637254,113.662785 85.0690264,112.615949 85.8237622,111.196962 C85.8661134,111.129873 85.9040398,111.05962 85.9375415,110.988101 L85.9944311,110.880506 C86.0279328,110.821013 86.0576418,110.75962 86.0829261,110.696962 L86.1651,110.538734 C86.1651,110.47481 86.2219896,110.412152 86.253595,110.341899 C86.2852003,110.272911 86.3231268,110.196962 86.3547321,110.121013 C86.3680064,110.098861 86.3787522,110.075443 86.3863375,110.050759 C86.4874746,109.829873 86.6012538,109.576076 86.7219863,109.298228 C86.7219863,109.25962 86.7219863,109.228608 86.7656017,109.19 L86.9615548,108.740633 C86.9615548,108.740633 86.9615548,108.671646 87.0058023,108.633038 C87.3092137,107.917848 87.6379094,107.083038 88.0298157,106.158354 L88.0298157,106.126709 C88.1183107,105.899494 88.2131268,105.665316 88.314896,105.42481 L88.314896,105.380506 C88.6113542,104.645696 88.947003,103.860886 89.2434612,103.051392 C89.3382773,102.823544 89.4267722,102.588734 89.5152672,102.360886 C89.5531936,102.272278 89.584799,102.190633 89.6164043,102.102025 C89.7048993,101.886203 89.7870732,101.664684 89.8755682,101.469114 C89.9134946,101.361519 89.9577421,101.260253 89.9956686,101.152658 C90.0784746,100.943797 90.1600164,100.741266 90.2365013,100.519114 L90.5898492,99.6146835 L90.7668391,99.133038 L90.9754344,98.5950633 C91.0386452,98.4241772 91.1018559,98.2532911 91.1720197,98.0824051 C91.2409194,97.9121519 91.3047622,97.7222785 91.3736619,97.5381013 C91.4431936,97.354557 91.4937622,97.2286076 91.5506518,97.0703797 L91.8287789,96.3298734 C91.8603843,96.2343038 91.8983107,96.1463291 91.9299161,96.0507595 C92.0563375,95.7216456 92.1764378,95.3868354 92.3028592,95.0513924 C92.3407856,94.9374684 92.3850331,94.8229114 92.4292806,94.7026582 L92.6758023,94.0317722 L92.9286452,93.6716456 C93.004498,93.475443 93.0740298,93.2786076 93.1435615,93.0824051 L93.2952672,92.6589873 C93.3970365,92.3805063 93.4912204,92.1077215 93.5860365,91.8362025 L93.7187789,91.4621519 L93.9463375,90.8292405 C93.996906,90.6906329 94.0411535,90.5507595 94.0917221,90.4178481 C94.1422906,90.2855696 94.1991803,90.1013924 94.2497488,89.9431646 C94.3003174,89.7849367 94.357207,89.6393671 94.4077756,89.4881013 C94.4583441,89.3362025 94.4905816,89.2349367 94.534197,89.1083544 C94.5784445,88.9811392 94.6416552,88.7849367 94.6922237,88.6336709 C95.2415247,87.1121519 95.6783107,85.5532911 96.0013174,83.9691139 C96.0013174,83.9691139 104.521488,77.8994937 111.019548,77.4627848 C117.51824,77.0260759 123.876605,82.5260759 125.463194,87.8735443 C125.463194,87.8735443 125.343725,89.1393671 125.140819,90.6526582 C125.140819,90.7216456 125.140819,90.7982278 125.109214,90.8741772 C125.07824,90.9501266 125.064966,91.1456962 125.046003,91.2918987 C125.027672,91.4374684 125.046003,91.4121519 125.046003,91.4748101 C125.014398,91.6526582 124.989113,91.8362025 124.957508,92.0127848 C124.960669,92.0640506 124.960669,92.1146835 124.957508,92.1653165 L124.862692,92.7222785 C124.860164,92.7703797 124.860164,92.8191139 124.862692,92.8678481 C124.824766,93.0513924 124.79316,93.2279747 124.755234,93.3988608 C124.755234,93.4501266 124.755234,93.4944304 124.723628,93.5444304 C124.686334,93.7096203 124.654729,93.8735443 124.609849,94.0317722 C124.61301,94.0767089 124.61301,94.1210127 124.609849,94.1653165 C124.571923,94.3172152 124.533996,94.4564557 124.496702,94.5956962 L124.458143,94.7222785 C124.413896,94.8551899 124.37597,94.975443 124.331722,95.0893671 L124.293796,95.1843038 C124.248284,95.3077215 124.191394,95.4260759 124.123127,95.5387342 C124.123127,95.5387342 122.536538,93.2222785 121.095334,92.6456962 C121.095334,92.6456962 121.525799,102.336203 115.173123,110.431139 C115.173123,110.431139 112.283762,98.14 100.002555,102.045063 C100.002555,102.045063 106.209214,93.5134177 116.322926,103.057722 C116.322926,103.057722 117.910147,98.861519 117.910147,96.4051899 C117.910147,96.4051899 108.522725,90.6210127 102.024665,94.9627848 C103.287615,93.3912658 104.638428,91.8931646 106.07015,90.475443 C106.07015,90.475443 91.0519194,97.5640506 85.5645983,121.126709 C85.5645983,121.126709 81.3358023,121.564051 78.6114211,121.677975 L78.4533943,121.677975 C77.7770398,121.64 77.0058692,121.576076 76.2220565,121.507089 L75.722692,121.462785 C74.3320565,121.329873 72.9793475,121.183671 72.1702505,121.089367 L71.4117221,121.000127 C66.3548659,97.3418987 51.4371401,89.9881013 51.4371401,89.9881013 C52.8043876,91.4229114 54.0894612,92.9336709 55.287304,94.5134177 Z M180.513394,178.727975 C180.170792,177.881139 179.711251,177.086835 179.148675,176.367848 C179.646776,175.869114 180.089883,175.317215 180.469779,174.721646 C181.108839,173.971646 181.558267,173.076709 181.777608,172.114684 C185.087321,169.193165 186.682127,164.783671 186.006404,160.418481 C184.768739,162.776709 182.744732,164.626709 180.286468,165.645696 C180.286468,165.645696 178.794063,162.90519 175.810518,162.40519 C175.810518,162.40519 178.794063,158.677975 178.30102,156.183671 C178.30102,156.183671 182.966602,154.007089 181.973562,146.291266 C181.973562,146.291266 178.813026,150.721646 174.072224,151.215949 C170.051391,148.331772 165.014762,147.250127 160.165869,148.228608 C160.165869,148.228608 160.165869,146.234304 159.420615,145.241266 C162.088739,144.467848 164.895294,144.297595 167.638006,144.741266 C167.638006,144.741266 162.839682,139.221646 155.134297,140.20962 C153.487659,139.069114 151.529391,138.465949 149.527508,138.481139 C146.366973,138.481139 143.712123,140.436835 140.494699,142.493797 C133.838612,146.734304 124.875334,145.222278 124.875334,145.222278 C121.574471,144.827975 118.310271,144.165316 115.115602,143.241266 C151.165929,122.604557 163.682913,76.6140506 143.072431,40.5178481 C139.10596,33.5697468 134.057953,27.2994937 128.118043,21.9437975 C129.559879,19.9558228 130.630669,17.7241772 131.278578,15.354557 C131.561762,14.0963291 131.70209,12.8096203 131.695769,11.5197468 C131.695769,8.50708861 128.826003,6.21531646 128.826003,6.21531646 C128.566839,10.14 125.753963,13.7722785 121.828578,16.8741772 C96.3116819,-1.59797468 62.0015448,-2.19164557 35.8626552,15.3868354 C32.4676084,12.3931646 30.1098492,8.97544304 29.9391803,5.35518987 C29.9391803,5.35518987 26.9745983,7.77924051 26.9745983,10.9494937 C26.9676452,12.1279747 27.0864813,13.3032911 27.3292104,14.4558228 C27.811508,16.4292405 28.6117555,18.3108861 29.6996117,20.0260759 C-2.21104716,46.6596203 -6.51569599,94.1526582 20.0846318,126.103291 C27.9309763,135.527975 37.95809,142.890633 49.2949294,147.550759 C57.5066318,155.024177 66.3017689,161.828608 75.5962706,167.899494 C95.8236953,181.360886 121.986605,187.563418 126.297575,188.228608 C128.617408,188.588734 132.056702,188.177975 136.265903,187.545063 C140.994063,187.791899 145.690618,191.551392 145.690618,191.551392 C147.081254,192.532405 150.924465,195.595696 151.72724,195.981772 C155.712043,197.700759 160.167766,197.984304 164.337776,196.78557 C166.127271,197.096329 167.95722,197.084937 169.742291,196.753924 C172.660097,196.216582 175.199903,194.433038 176.695468,191.867848 L176.923026,191.487468 C174.981194,192.252025 172.867428,192.471013 170.810552,192.12038 C171.208779,191.538101 171.555806,190.921646 171.847207,190.278608 C173.064013,190.274177 174.269441,190.049494 175.406602,189.614051 C177.520368,188.84443 179.265615,187.302025 180.292157,185.297595 C180.292157,185.297595 186.297174,182.874177 186.461521,173.90519 C186.480485,173.893165 183.800351,177.886203 180.513394,178.727975 Z" id="Fill-111" fill="#0A2240"></path>
                <path d="M129.489779,176.095696 C126.260344,175.595696 100.299076,169.633038 80.387705,156.380506 C78.7505478,155.291899 77.1639592,154.202658 75.5963338,153.114051 C56.1653639,139.588734 42.3222201,126.082405 33.8140595,110.652658 C29.983491,103.690633 27.2275043,93.5317722 26.563792,83.3229114 L25.9316849,83.9558228 C26.1845278,95.1589873 29.0922201,106.741266 33.314695,114.336203 C40.9505478,128.177342 52.9100127,140.475443 69.2879057,152.627342 C72.6589324,155.108354 76.1949391,157.586835 79.8946615,160.064051 C99.8060328,173.316582 125.760979,179.278608 128.990414,179.772911 C132.220481,180.266582 140.418909,178.507089 143.402454,178.278608 C144.875896,178.184937 146.353762,178.184937 147.827203,178.278608 C143.086401,174.614051 132.751451,176.583038 129.489779,176.095696" id="Fill-113" fill="#0A2240"></path>
                <path d="M93.7630896,57.6714557 C94.9078355,56.9714557 96.1562468,56.4562658 97.4609157,56.1461392 C96.3193304,50.655 93.2434977,45.7575316 88.7947284,42.3486709 C92.5254241,46.5315823 94.3281933,52.0923418 93.7630896,57.6714557" id="Fill-115" fill="#0A2240"></path>
                <path d="M107.277791,66.6777848 C107.277791,66.6777848 115.077991,62.5512025 122.720165,67.1398101 C122.086162,65.2803165 121.098811,63.5606962 119.812473,62.076519 C119.812473,62.076519 111.715182,60.7094304 107.277791,66.6777848" id="Fill-117" fill="#0A2240"></path>
                <path d="M69.3195742,42.1839873 C64.9567716,45.2820886 61.8626077,49.8574051 60.6091395,55.0637342 C61.9858686,55.5947468 63.2387047,56.4048734 64.2880023,57.443481 C63.9700525,51.9017089 65.7690291,46.4466456 69.3195742,42.1839873" id="Fill-119" fill="#0A2240"></path>
                <path d="M37.9355237,61.3929114 C37.8343866,61.4941772 37.7332495,61.6081013 37.6384334,61.7156962 C36.4734602,63.1043038 35.5619619,64.6878481 34.9456575,66.3929114 C37.6434903,64.8340506 40.7553532,64.1448101 43.8583666,64.4182278 C46.1269987,64.588481 48.3419017,65.1948101 50.381711,66.203038 C46.0770622,60.1270886 37.9355237,61.3929114 37.9355237,61.3929114" id="Fill-121" fill="#0A2240"></path>
                <path d="M61.5256314,66.4877215 C62.1065378,65.1510127 62.3037552,63.6782278 62.0945278,62.234557 C63.3587418,63.5003797 66.3802134,68.1459494 66.3802134,68.1459494 C64.8094274,67.4668354 63.1855445,66.9168354 61.5256314,66.5003797 L61.5256314,66.4877215 Z M55.3941933,58.8927848 C56.9845746,58.8997468 58.5326047,59.4067089 59.8189425,60.3421519 C59.6052903,60.8896203 59.432093,61.4522785 59.3006147,62.0256962 L59.4776047,62.0256962 C60.2721632,62.0737975 60.8777217,62.7573418 60.8296816,63.5529114 C60.7816415,64.348481 60.0989659,64.9548101 59.3044074,64.9067089 C59.2481498,64.9035443 59.1918923,64.8965823 59.1362669,64.8864557 L59.0161666,64.8864557 C59.0250161,65.2782278 59.054093,65.6693671 59.1046615,66.0573418 C58.115414,65.8902532 57.1103639,65.8351899 56.1084742,65.8927848 C54.0478054,62.9750633 55.3941933,58.8927848 55.3941933,58.8927848 Z M71.0451632,67.4181013 L70.9756314,67.4181013 L70.7733572,67.5067089 C70.6747485,67.5370886 70.5729793,67.5579747 70.4699458,67.57 C68.6621197,67.6902532 66.7721197,64.6839241 64.6292769,61.8737975 C62.4864341,59.0636709 58.0869692,56.4687342 54.3701799,56.1079747 C53.9504609,56.0674684 53.5275813,56.0567089 53.1059659,56.0763291 L52.7772702,56.0763291 C52.4991431,56.0763291 52.2336582,56.1206329 51.9871365,56.1586076 L51.6837251,56.2092405 C51.3803137,56.2662025 51.0895445,56.3358228 50.8177385,56.4117722 L50.773491,56.4117722 C50.5054776,56.4927848 50.241889,56.5883544 49.9833572,56.6965823 L49.7747619,56.7851899 L49.332287,57.0003797 L49.155297,57.0953165 C49.0162334,57.1649367 48.8961331,57.2408861 48.794996,57.3041772 L48.7128221,57.3548101 C48.5737585,57.4408861 48.4410161,57.5358228 48.3145946,57.6396203 C49.4934742,57.4813924 50.6881565,57.4813924 51.8670361,57.6396203 L52.0566682,57.6396203 L52.1514843,57.6396203 C52.6571699,57.7029114 53.0048288,57.7662025 53.0806816,57.7788608 L53.118608,57.7788608 C52.5832134,60.055443 52.6135545,62.4282278 53.207103,64.6902532 C53.4839659,65.813038 54.0509659,66.8434177 54.8505813,67.6775949 C56.4580294,67.3801266 58.1008756,67.326962 59.7241264,67.5193671 C62.4472435,67.8662025 65.0154943,68.9832911 67.1260997,70.7408861 C67.4977786,71.0465823 67.8517585,71.3718987 68.1880395,71.7155696 C68.4901866,72.0143038 68.7708421,72.3339241 69.0287418,72.6712658 C69.2253271,71.8092405 69.2082602,70.9117722 68.9781732,70.0573418 C75.2233906,71.126962 72.8087418,62.0953165 72.8087418,62.0953165 C73.0489425,63.5383544 72.4357987,66.6332911 71.0451632,67.4181013 Z" id="Fill-123" fill="#0A2240"></path>
                <path d="M100.400529,67.4243671 C99.4656431,67.2794304 98.5181147,67.2344937 97.5743789,67.2914557 C98.0421381,65.3648734 98.017486,63.3522152 97.5054793,61.4370253 C98.8076197,60.7174051 100.296232,60.4041139 101.778523,60.5382911 C101.778523,60.5382911 102.726683,64.7281646 100.400529,67.3990506 L100.400529,67.4243671 Z M89.9574893,68.7281646 C89.9574893,68.7281646 92.8405294,65.1015823 94.3822385,63.6205696 L94.4587234,63.5446203 C94.5851448,63.4243671 94.7052452,63.3167722 94.8127033,63.2281646 L94.9890612,63.0952532 C94.958088,63.2408228 94.9264826,63.3990506 94.9011983,63.5636076 C95.6755294,63.7294304 96.1704692,64.4927215 96.0048572,65.2686709 C95.8866532,65.8224684 95.454292,66.2553797 94.9011983,66.3737342 C94.9770512,66.760443 95.0933589,67.1382911 95.2488572,67.5003165 C93.4536732,67.7471519 91.6831415,68.1496835 89.9574893,68.7028481 L89.9574893,68.7281646 Z M92.2969174,62.6585443 C89.8949107,65.2661392 87.7198304,68.0825949 85.9442418,67.7787975 C85.8254057,67.7591772 85.7109943,67.7231013 85.602904,67.6712025 C85.573195,67.6585443 85.5453823,67.6414557 85.520098,67.6205696 C85.4366599,67.5775316 85.3582786,67.5243671 85.2868505,67.4623418 C85.2628304,67.4490506 85.2419709,67.431962 85.2236398,67.4117089 C85.1395696,67.339557 85.0637167,67.2591772 84.9960813,67.1712025 C84.0352786,65.9496835 83.8266833,63.3737342 84.1300946,62.2028481 C84.1300946,62.2028481 80.8557803,70.9623418 87.1768505,70.4939873 C86.8671181,71.3218354 86.7647167,72.2129747 86.8797602,73.0889241 C86.8797602,73.0889241 92.3095595,66.8927215 101.468158,69.4813291 C101.468158,69.4813291 104.868894,67.0699367 104.142603,59.7977848 C105.745626,59.6553797 107.36066,59.7408228 108.940295,60.0509494 C107.336008,58.6294304 105.253847,57.868038 103.112269,57.918038 C99.3322686,57.8610759 94.7052452,60.031962 92.2969174,62.6585443 Z" id="Fill-125" fill="#0A2240"></path>
                <path d="M118.990923,54.0955696 C118.807612,52.9943038 116.246947,51.5639241 116.246947,51.5639241 C114.518766,52.4639241 112.867703,53.5056962 111.310823,54.6778481 C114.787412,53.5512658 118.990923,54.0955696 118.990923,54.0955696" id="Fill-127" fill="#0A2240"></path>
                <path d="M41.9050294,51.0067089 C41.9050294,51.0067089 39.1427217,52.0320253 38.7887418,53.0889873 C38.7887418,53.0889873 43.0238589,53.234557 46.272889,54.8864557 C44.9271331,53.4737975 43.4663338,52.1763291 41.9050294,51.0067089" id="Fill-129" fill="#0A2240"></path>
            </g>
        </g>
    </g>
</svg>