<?xml version="1.0" encoding="UTF-8"?>
<svg width="200px" height="200px" viewBox="0 0 200 200" version="1.1" xmlns="http://www.w3.org/2000/svg" xmlns:xlink="http://www.w3.org/1999/xlink">
    <!-- Generator: Sketch 51.3 (57544) - http://www.bohemiancoding.com/sketch -->
    <title>quincy</title>
    <desc>Created with Sketch.</desc>
    <defs></defs>
    <g id="quincy" stroke="none" stroke-width="1" fill="none" fill-rule="evenodd">
        <g id="quincy_BGL" transform="translate(0.000000, 61.691542)">
            <g id="quincy">
                <g id="g10" transform="translate(99.962076, 39.502467) scale(-1, 1) rotate(-180.000000) translate(-99.962076, -39.502467) translate(0.000000, 0.063711)" fill-rule="nonzero">
                    <g id="g12">
                        <path d="M55.5807343,58.3371999 C56.2766766,60.7657171 55.2749323,61.5126264 53.3145227,61.5126264 L35.5737572,61.5126264 C33.6133477,61.5126264 32.185058,60.7657171 31.4882055,58.3371999 L20.5823279,20.2378455 C19.8872957,17.8096621 20.8878569,17.0624797 22.848054,17.0624797 L30.504967,17.0624797 L28.1083952,25.6536664 L36.8876745,25.6536664 L39.2813035,17.0624797 L40.5894567,17.0624797 C42.5501696,17.0624797 43.9793694,17.8096621 44.6740982,20.2378455 L55.5807343,58.3371999 Z M47.3616977,9.40462623 L41.3849061,9.40462623 L43.3574506,2.58804999 L34.5799005,2.58804999 L32.6088729,9.40462623 L11.6927415,9.40462623 C3.66219179,9.40462623 1.21101248,13.8875992 3.29732263,21.1713002 L13.6675309,57.4034115 C15.7527489,64.6877496 20.7700564,69.171026 28.8013038,69.171026 L64.4702297,69.171026 C72.5008704,69.171026 74.9527475,64.6877496 72.8676508,57.4034115 L62.4961683,21.1713002 C60.4110717,13.8875992 55.3923384,9.40462623 47.3616977,9.40462623 Z" id="path14" fill="#4E1A06"></path>
                        <path d="M192.065221,61.5126264 L180.063098,19.5828588 C178.484637,14.0738715 172.386799,9.40462623 166.690933,9.40462623 L129.526883,9.40462623 C123.830714,9.40462623 120.40652,14.0738715 121.98407,19.5828588 L133.9868,61.5126264 C135.05559,65.2471732 135.029196,67.1162668 135.058017,69.171026 L154.854452,69.171026 C153.704964,67.1162668 152.60887,65.2471732 151.539776,61.5126264 L139.537046,19.5828588 C139.003106,17.7161619 139.936894,17.0624797 141.618502,17.0624797 L168.508149,17.0624797 C170.18915,17.0624797 171.499124,17.7161619 172.033064,19.5828588 L184.036097,61.5126264 C185.104887,65.2471732 185.079404,67.1162668 185.106101,69.171026 L195.37747,69.171026 C194.230408,67.1162668 193.135528,65.2471732 192.065221,61.5126264" id="path16" fill="#4E1A06"></path>
                        <path d="M141.228059,57.8612045 C138.932723,59.4181252 134.428211,61.1027668 132.52969,62.1952203 C130.630562,63.2864603 130.298366,63.5419021 126.209174,67.6853984 C122.118465,71.8301082 112.982326,77.7607868 103.066209,77.7125502 C93.1494857,77.6640102 82.1221064,71.3659444 76.7687505,68.6382994 C76.7687505,68.6382994 72.8819094,63.2612802 72.7933239,62.2986712 C72.7933239,62.2986712 72.9174043,61.5957512 73.3657926,61.7362139 C73.8135742,61.8760697 75.0197933,62.3362897 75.4481589,62.0781175 C75.4481589,62.0781175 75.1726944,61.7286295 73.8102371,60.2017429 C72.4456561,58.6754631 71.9290084,56.2132713 71.9729978,55.4281366 C72.0163805,54.6433054 70.667575,53.7180116 69.8872944,53.1067108 C69.1088341,52.4941966 68.5139156,51.5288573 67.8880529,49.3560852 C67.262797,47.1830098 64.2466423,37.8169122 63.8276814,33.7902153 C63.4084171,29.7641858 64.4213863,29.5053462 64.8594599,28.2193395 C65.2960166,26.9327259 64.6595357,24.1820851 64.1650344,23.2834276 C63.6708365,22.3867116 60.6695472,16.9893663 56.5060282,16.3853466 C56.5060282,16.3853466 56.5105788,11.5996053 58.5441017,9.57184656 C60.5785347,7.54527095 62.8204762,7.30375408 62.8204762,7.30375408 C62.8204762,7.30375408 65.4683336,10.0320058 66.0119817,10.0611602 C66.0119817,10.0611602 65.7058762,6.50621144 66.0653757,6.36268471 C66.4236616,6.21824785 67.2776623,6.06537717 68.5029941,6.9760787 C68.5029941,6.9760787 68.5145224,7.01982538 68.5257472,7.06354173 C68.5302979,7.07989364 68.5393991,7.11141431 68.5448599,7.13359102 C68.560332,7.19271882 68.5818716,7.27129295 68.6073551,7.36348863 C68.6155463,7.3947666 68.6252543,7.43032215 68.6343555,7.46396644 C68.6634795,7.56826678 68.6980643,7.69386405 68.7356828,7.82683333 C68.7490313,7.8743722 68.7605595,7.91845259 68.7751215,7.96938926 C68.8828197,8.34921481 69.0199452,8.82123603 69.1822508,9.35602555 C69.1943858,9.3958587 69.2077343,9.43945369 69.2201727,9.48083404 C69.2890388,9.70587765 69.3630624,9.94348098 69.4398162,10.1879406 C69.462266,10.2598708 69.4862326,10.3332269 69.5089857,10.4061279 C69.5827059,10.6363896 69.6600665,10.874448 69.7401575,11.1165716 C69.7647309,11.1914445 69.7896077,11.2670759 69.8150912,11.3434961 C69.9164184,11.6465071 70.0213862,11.9545238 70.1315113,12.2670304 C70.1354552,12.2763744 70.1387923,12.2855059 70.1415227,12.2960634 C70.2974575,12.1062113 70.4800893,11.9356842 70.7006429,11.8065071 C71.0298048,11.6141673 71.3249887,11.5361999 71.5855879,11.5261279 C71.5822508,11.512476 71.5801271,11.4994612 71.5783069,11.486052 C71.4973058,11.129374 71.4269227,10.7762151 71.3662477,10.4279102 C71.355933,10.3703297 71.346225,10.3129614 71.3374271,10.2552595 C71.2791791,9.90246467 71.2309425,9.55419013 71.1987847,9.21868767 C71.1975712,9.20315487 71.1975712,9.18953333 71.1963577,9.17554774 C71.1663236,8.85157354 71.1526717,8.53882421 71.1508515,8.23569187 C71.1505481,8.18803165 71.1487278,8.14015907 71.149638,8.09346965 C71.1526717,7.79400815 71.1729978,7.50889629 71.207886,7.23610145 C71.2142568,7.18513444 71.2230547,7.13595735 71.2309425,7.08629486 C71.2737184,6.81231686 71.3301461,6.54862327 71.411754,6.30926037 C71.414181,6.30106924 71.4178215,6.29466803 71.4211586,6.28684095 C71.5012496,6.05506242 71.6062174,5.84661343 71.7269607,5.65309049 C71.7494104,5.61789899 71.7694332,5.58091757 71.792793,5.54748564 C71.9205139,5.36154708 72.0703812,5.19896839 72.2420915,5.05698888 C72.274856,5.02962445 72.311261,5.00629491 72.3464525,4.9798406 C72.5333315,4.84274542 72.7378063,4.72175946 72.9765625,4.63714816 C78.1078479,2.82719447 82.6454283,10.661509 82.6454283,10.661509 C82.6454283,10.661509 82.6675747,10.6323547 82.7091371,10.5819944 C82.7309801,10.5565109 82.7634412,10.52047 82.7968125,10.4825481 C82.8286669,10.445233 82.853847,10.4151382 82.8963195,10.3690251 C82.9451629,10.3165413 83.0046244,10.2571708 83.0659062,10.1945845 C83.108682,10.1515659 83.1463005,10.1130676 83.1945372,10.0662569 C83.2679539,9.99739072 83.3483483,9.92794818 83.4332933,9.85459209 C83.4851705,9.80990495 83.5355307,9.76688637 83.5919585,9.72138011 C83.6850946,9.6461431 83.7836915,9.57633651 83.8880525,9.50322312 C83.9490309,9.46020454 84.0109194,9.42040174 84.0758417,9.37914273 C84.1862702,9.30933613 84.2979122,9.24714425 84.4165318,9.18622654 C84.4881283,9.15006424 84.5609383,9.11890762 84.6352652,9.08668919 C84.7578287,9.03299181 84.8803923,8.98654509 85.0099334,8.94801646 C85.0915413,8.92371612 85.1755762,8.90951817 85.2596111,8.89219545 C85.389759,8.86519508 85.5177832,8.84028799 85.6533919,8.83343171 C85.6749315,8.83249125 85.6949542,8.82454282 85.7164939,8.82430012 L85.7158871,8.82430012 C87.4160008,5.32908595 88.9544157,5.46951826 88.9544157,5.46951826 C93.7101228,4.39408408 96.0530882,8.77821745 96.0530882,8.77821745 C97.4983669,5.75108063 99.2452004,5.54596877 101.360938,5.1701781 C103.475765,4.79663242 107.205458,8.43631378 107.205458,8.43631378 L108.879785,8.18663612 C108.872504,8.20298804 108.868863,8.21755004 108.862189,8.23353791 C108.91801,8.09313594 108.976258,7.95115642 109.039057,7.80799374 C109.066967,7.74210068 109.099732,7.67811888 109.130373,7.61234717 C109.198329,7.46339003 109.271745,7.31582841 109.347589,7.16817578 C109.380354,7.1047704 109.410691,7.04279087 109.446186,6.98011359 C109.54994,6.7913233 109.660976,6.60562744 109.779899,6.42302601 C109.817517,6.3669623 109.855742,6.31114129 109.893361,6.25532028 C110.022599,6.06537717 110.160028,5.88037907 110.307771,5.70320805 C110.330828,5.67678408 110.355704,5.65190733 110.378761,5.62642383 C110.520134,5.46254063 110.671821,5.30727328 110.831093,5.1594993 C110.866588,5.12740222 110.899049,5.09457704 110.934847,5.06244963 C111.112018,4.90745532 111.301628,4.76608255 111.500642,4.63678411 C111.542811,4.60951069 111.58407,4.58405753 111.627756,4.55857402 C111.840119,4.43082279 112.059762,4.31396273 112.297001,4.22119064 C112.307316,4.216549 112.318541,4.21454673 112.328856,4.21051184 C112.560331,4.1222297 112.805155,4.05670069 113.06181,4.00822136 C113.10853,4.00006058 113.153126,3.98877502 113.199845,3.98085693 C113.461355,3.93996198 113.735606,3.92172914 114.023812,3.92658314 C114.077813,3.92810002 114.134847,3.93298435 114.190062,3.93568439 C114.49374,3.95051943 114.806823,3.98428507 115.140839,4.05670069 C115.503372,4.13679171 115.835871,4.26335977 116.141673,4.42866883 C116.282136,4.50357213 116.397115,4.61378828 116.525443,4.70540754 C116.678344,4.81371243 116.841863,4.90863848 116.978685,5.03814929 C117.130979,5.18167602 117.258397,5.35848299 117.392489,5.52473251 C117.482591,5.63613183 117.582401,5.73199834 117.664616,5.85277194 C117.800225,6.05233204 117.913687,6.27925657 118.029879,6.5025406 C118.084184,6.60562744 118.149409,6.69606354 118.199466,6.80436843 C118.199466,6.80436843 118.199466,6.80412573 118.199466,6.80318527 L118.4003,6.77284776 C118.736137,6.72946513 119.056197,6.70519513 119.361999,6.69606354 C119.734544,6.6870533 120.077054,6.70980643 120.40834,6.74736426 C124.127111,7.16817578 125.188924,10.3921423 125.488658,12.1110653 C125.491692,12.1034809 125.496546,12.1003865 125.50049,12.0928021 C125.57694,11.9611677 125.646413,11.8547437 125.711032,11.7688279 C125.727414,11.745104 125.743493,11.7227149 125.760179,11.7030562 C125.825405,11.6244821 125.883956,11.5665374 125.928249,11.5589531 C125.928249,11.5589531 133.617592,15.7063022 134.145465,16.6440345 C134.145465,16.6440345 132.269697,17.6679252 128.923774,17.4967914 C128.923774,17.4967914 124.827604,21.7212888 124.634354,23.1879251 C124.441104,24.6537119 123.632913,31.2236625 125.293285,34.45491 C126.950623,37.6852474 127.551912,39.7163433 130.153049,40.5169501 C130.153049,40.5169501 136.419261,39.9059527 139.878343,45.7735294 C139.878343,45.7735294 141.241711,44.5597258 141.890023,44.0115272 C141.890023,44.0115272 144.033671,47.8883568 144.642241,51.0656036 C145.252632,54.2437605 143.520664,56.3033736 141.228059,57.8612045" id="path18" fill="#FEF5D5"></path>
                        <path d="M55.5807343,58.3371999 C56.2766766,60.7657171 55.2749323,61.5126264 53.3145227,61.5126264 L35.5737572,61.5126264 C33.6133477,61.5126264 32.185058,60.7657171 31.4882055,58.3371999 L20.5823279,20.2378455 C19.8872957,17.8096621 20.8878569,17.0624797 22.848054,17.0624797 L30.504967,17.0624797 L28.1083952,25.6536664 L36.8876745,25.6536664 L39.2813035,17.0624797 L40.5894567,17.0624797 C42.5501696,17.0624797 43.9793694,17.8096621 44.6740982,20.2378455 L55.5807343,58.3371999 Z M47.3616977,9.40462623 L41.3849061,9.40462623 L43.3574506,2.58804999 L34.5799005,2.58804999 L32.6088729,9.40462623 L11.6927415,9.40462623 C3.66219179,9.40462623 1.21101248,13.8875992 3.29732263,21.1713002 L13.6675309,57.4034115 C15.7527489,64.6877496 20.7700564,69.171026 28.8013038,69.171026 L64.4702297,69.171026 C72.5008704,69.171026 74.9527475,64.6877496 72.8676508,57.4034115 L62.4961683,21.1713002 C60.4110717,13.8875992 55.3923384,9.40462623 47.3616977,9.40462623 Z" id="path20" fill="#4E1A06"></path>
                        <path d="M23.1064992,19.6505115 L25.1270377,26.7094419 L25.6154108,24.9583915 L27.0960024,19.6505115 L23.1064992,19.6505115 Z M25.5657483,28.2420926 L33.9764876,57.6248753 C34.3205149,58.8235101 34.6484633,58.9242306 35.5737572,58.9242306 L53.056654,58.9242306 L42.1858162,20.9501701 C41.9379588,20.0837917 41.6979891,19.7909438 41.2347354,19.6950772 L39.3811139,26.3484863 L38.8532413,28.2420926 L36.8876745,28.2420926 L28.1083952,28.2420926 L25.5657483,28.2420926 Z M64.4702297,71.7594218 L28.8013038,71.7594218 C19.9560405,71.7594218 13.6977471,66.9139157 11.1791275,58.1157361 L0.809040556,21.8836551 C-0.541336354,17.1689036 -0.199919297,13.4167611 1.82416074,10.7312853 C3.78235865,8.13354549 7.10252542,6.81656411 11.6927415,6.81656411 L30.6630254,6.81656411 L32.0934387,1.86907542 L32.634053,0 L34.5799005,0 L43.3574506,0 L46.8007573,0 L45.843609,3.30739468 L44.8282128,6.81656411 L47.3616977,6.81656411 C56.2075071,6.81656411 62.4658308,11.6614635 64.9844504,20.4589756 L75.3559329,56.6910869 C76.7056484,61.4067486 76.3637448,65.1591944 74.3393231,67.8443669 C72.3810373,70.4421674 69.0605974,71.7594218 64.4702297,71.7594218 Z M22.848054,17.0624797 L30.504967,17.0624797 L28.1083952,25.6536664 L36.8876745,25.6536664 L39.2813035,17.0624797 L40.5894567,17.0624797 C42.5501696,17.0624797 43.9793694,17.8096621 44.6740982,20.2378455 L55.5807343,58.3371999 C56.2766766,60.7657171 55.2749323,61.5126264 53.3145227,61.5126264 L35.5737572,61.5126264 C33.6133477,61.5126264 32.185058,60.7657171 31.4882055,58.3371999 L20.5823279,20.2378455 C19.8872957,17.8096621 20.8878569,17.0624797 22.848054,17.0624797 Z M64.4702297,69.171026 C72.5008704,69.171026 74.9527475,64.6877496 72.8676508,57.4034115 L62.4961683,21.1713002 C60.4110717,13.8875992 55.3923384,9.40462623 47.3616977,9.40462623 L41.3849061,9.40462623 L43.3574506,2.58804999 L34.5799005,2.58804999 L32.6088729,9.40462623 L11.6927415,9.40462623 C3.66219179,9.40462623 1.21101248,13.8875992 3.29732263,21.1713002 L13.6675309,57.4034115 C15.7527489,64.6877496 20.7700564,69.171026 28.8013038,69.171026 L64.4702297,69.171026 Z" id="path22" fill="#4E1A06"></path>
                        <path d="M192.065221,61.5126264 L180.063098,19.5828588 C178.484637,14.0738715 172.386799,9.40462623 166.690933,9.40462623 L129.526883,9.40462623 C123.830714,9.40462623 120.40652,14.0738715 121.98407,19.5828588 L133.9868,61.5126264 C135.05559,65.2471732 135.029196,67.1162668 135.058017,69.171026 L154.854452,69.171026 C153.704964,67.1162668 152.60887,65.2471732 151.539776,61.5126264 L139.537046,19.5828588 C139.003106,17.7161619 139.936894,17.0624797 141.618502,17.0624797 L168.508149,17.0624797 C170.18915,17.0624797 171.499124,17.7161619 172.033064,19.5828588 L184.036097,61.5126264 C185.104887,65.2471732 185.079404,67.1162668 185.106101,69.171026 L195.37747,69.171026 C194.230408,67.1162668 193.135528,65.2471732 192.065221,61.5126264" id="path24" fill="#4E1A06"></path>
                        <path d="M199.787026,71.7594218 L182.551076,71.7594218 L182.518008,69.2047006 L182.514671,68.9283259 C182.492525,67.0668167 182.473412,65.4592323 181.547512,62.224951 L169.544782,20.2948497 C169.418274,19.8522255 169.360633,19.6505115 168.508149,19.6505115 L142.248612,19.6505115 L154.028362,60.8003019 C154.965791,64.0764489 155.888354,65.7225619 156.957144,67.6283639 L157.113079,67.9071655 L159.268255,71.7594218 L154.854452,71.7594218 L135.058017,71.7594218 L132.506026,71.7594218 L132.470228,69.207431 L132.465981,68.9131572 C132.442014,67.0546817 132.421688,65.4498277 131.498518,62.224951 L119.495484,20.2948497 C118.508909,16.8491767 119.058018,13.3934013 121.002045,10.8147134 C122.917858,8.27361375 126.025025,6.81656411 129.526883,6.81656411 L166.690933,6.81656411 C173.53204,6.81656411 180.646791,12.2236478 182.551076,18.8699275 L194.553806,60.8006052 C195.491539,64.0734152 196.412282,65.7189214 197.478038,67.6241166 L197.637614,67.9092892 L199.787026,71.7594218 Z M195.37747,69.171026 C194.230408,67.1162668 193.135528,65.2471732 192.065221,61.5126264 L180.063098,19.5828588 C178.484637,14.0738715 172.386799,9.40462623 166.690933,9.40462623 L129.526883,9.40462623 C123.830714,9.40462623 120.40652,14.0738715 121.98407,19.5828588 L133.9868,61.5126264 C135.05559,65.2471732 135.029196,67.1162668 135.058017,69.171026 L154.854452,69.171026 C153.704964,67.1162668 152.60887,65.2471732 151.539776,61.5126264 L139.537046,19.5828588 C139.003106,17.7161619 139.936894,17.0624797 141.618502,17.0624797 L168.508149,17.0624797 C170.18915,17.0624797 171.499124,17.7161619 172.033064,19.5828588 L184.036097,61.5126264 C185.104887,65.2471732 185.079404,67.1162668 185.106101,69.171026 L195.37747,69.171026 Z" id="path26" fill="#4E1A06"></path>
                        <path d="M55.5807343,58.3371999 C56.2766766,60.7657171 55.2749323,61.5126264 53.3145227,61.5126264 L35.5737572,61.5126264 C33.6133477,61.5126264 32.185058,60.7657171 31.4882055,58.3371999 L20.5823279,20.2378455 C19.8872957,17.8096621 20.8878569,17.0624797 22.848054,17.0624797 L30.504967,17.0624797 L28.1083952,25.6536664 L36.8876745,25.6536664 L39.2813035,17.0624797 L40.5894567,17.0624797 C42.5501696,17.0624797 43.9793694,17.8096621 44.6740982,20.2378455 L55.5807343,58.3371999 Z M47.3616977,9.40462623 L41.3849061,9.40462623 L43.3574506,2.58804999 L34.5799005,2.58804999 L32.6088729,9.40462623 L11.6927415,9.40462623 C3.66219179,9.40462623 1.21101248,13.8875992 3.29732263,21.1713002 L13.6675309,57.4034115 C15.7527489,64.6877496 20.7700564,69.171026 28.8013038,69.171026 L64.4702297,69.171026 C72.5008704,69.171026 74.9527475,64.6877496 72.8676508,57.4034115 L62.4961683,21.1713002 C60.4110717,13.8875992 55.3923384,9.40462623 47.3616977,9.40462623 Z" id="path28" fill="#4E1A06"></path>
                        <path d="M22.848054,18.3566776 C22.0482664,18.3566776 21.7568444,18.5107314 21.7120662,18.5702233 C21.6593093,18.6396658 21.5774284,19.0116643 21.8264083,19.8817439 L32.7323465,57.9810376 C33.2693204,59.8522549 34.180659,60.2187319 35.5737572,60.2187319 L53.3145227,60.2187319 C54.1151295,60.2187319 54.4066729,60.064314 54.4515724,60.0048525 C54.5040563,59.9350762 54.5859675,59.5634418 54.3368966,58.6936656 L43.4299572,20.5940685 C42.8948036,18.7227299 41.9831616,18.3566776 40.5894567,18.3566776 L40.2642387,18.3566776 L38.1342425,26.0010308 L37.8706096,26.9478947 L36.8876745,26.9478947 L28.1083952,26.9478947 L26.4039432,26.9478947 L26.8619789,25.3059683 L28.800606,18.3566776 L22.848054,18.3566776 Z M64.4702297,70.4649205 L28.8013038,70.4649205 C20.585301,70.4649205 14.7686913,65.9528235 12.4233292,57.7592705 L2.05311485,21.5275535 C0.820535436,17.2237538 1.09120361,13.8535605 2.85753197,11.5099883 C4.55808862,9.25448593 7.53067861,8.11042831 11.6927415,8.11042831 L31.6359492,8.11042831 L33.3366696,2.22886001 L33.6069768,1.29420399 L34.5799005,1.29420399 L43.3574506,1.29420399 L45.0791039,1.29420399 L44.6003781,2.9479529 L43.1065594,8.11042831 L47.3616977,8.11042831 C55.5783073,8.11042831 61.3949169,12.6221916 63.7403094,20.8151986 L74.1117919,57.0472492 C75.3437979,61.3512309 75.0725806,64.7217276 73.3060277,67.0652998 C71.6050039,69.3211966 68.6325353,70.4649205 64.4702297,70.4649205 Z M22.848054,17.0624797 L30.504967,17.0624797 L28.1083952,25.6536664 L36.8876745,25.6536664 L39.2813035,17.0624797 L40.5894567,17.0624797 C42.5501696,17.0624797 43.9793694,17.8096621 44.6740982,20.2378455 L55.5807343,58.3371999 C56.2766766,60.7657171 55.2749323,61.5126264 53.3145227,61.5126264 L35.5737572,61.5126264 C33.6133477,61.5126264 32.185058,60.7657171 31.4882055,58.3371999 L20.5823279,20.2378455 C19.8872957,17.8096621 20.8878569,17.0624797 22.848054,17.0624797 Z M64.4702297,69.171026 C72.5008704,69.171026 74.9527475,64.6877496 72.8676508,57.4034115 L62.4961683,21.1713002 C60.4110717,13.8875992 55.3923384,9.40462623 47.3616977,9.40462623 L41.3849061,9.40462623 L43.3574506,2.58804999 L34.5799005,2.58804999 L32.6088729,9.40462623 L11.6927415,9.40462623 C3.66219179,9.40462623 1.21101248,13.8875992 3.29732263,21.1713002 L13.6675309,57.4034115 C15.7527489,64.6877496 20.7700564,69.171026 28.8013038,69.171026 L64.4702297,69.171026 Z" id="path30" fill="#FCD13B"></path>
                        <path d="M192.065221,61.5126264 L180.063098,19.5828588 C178.484637,14.0738715 172.386799,9.40462623 166.690933,9.40462623 L129.526883,9.40462623 C123.830714,9.40462623 120.40652,14.0738715 121.98407,19.5828588 L133.9868,61.5126264 C135.05559,65.2471732 135.029196,67.1162668 135.058017,69.171026 L154.854452,69.171026 C153.704964,67.1162668 152.60887,65.2471732 151.539776,61.5126264 L139.537046,19.5828588 C139.003106,17.7161619 139.936894,17.0624797 141.618502,17.0624797 L168.508149,17.0624797 C170.18915,17.0624797 171.499124,17.7161619 172.033064,19.5828588 L184.036097,61.5126264 C185.104887,65.2471732 185.079404,67.1162668 185.106101,69.171026 L195.37747,69.171026 C194.230408,67.1162668 193.135528,65.2471732 192.065221,61.5126264" id="path32" fill="#4E1A06"></path>
                        <path d="M197.582399,70.4649205 L183.828589,70.4649205 L183.811903,69.188015 L183.808869,68.9128538 C183.786419,67.0395129 183.765183,65.2699263 182.791653,61.8687887 L170.789226,19.9389604 C170.463098,18.8001209 169.823887,18.3566776 168.508149,18.3566776 L141.618502,18.3566776 C140.972617,18.3566776 140.742962,18.4767231 140.694119,18.5083651 C140.681377,18.5577849 140.648006,18.7616226 140.781187,19.2269999 L152.784221,61.1567675 C153.763212,64.5776245 154.76617,66.3669305 155.827982,68.2612042 L155.983917,68.5390957 L157.061505,70.4649205 L154.854452,70.4649205 L135.058017,70.4649205 L133.782022,70.4649205 L133.764123,69.1892285 L133.760179,68.8964715 C133.736212,67.0264678 133.713459,65.2599149 132.742659,61.8687887 L120.739929,19.9389604 C119.865905,16.8870986 120.33826,13.8453997 122.03534,11.5941446 C123.72878,9.34762206 126.389379,8.11042831 129.526883,8.11042831 L166.690933,8.11042831 C169.723469,8.11042831 172.92529,9.27842222 175.706025,11.3987104 C178.477053,13.5120512 180.466283,16.2918464 181.306935,19.2263931 L193.309665,61.1567675 C194.288657,64.5742874 195.289187,66.3626832 196.348876,68.2560468 L196.507542,68.5400059 L197.582399,70.4649205 Z M195.37747,69.171026 C194.230408,67.1162668 193.135528,65.2471732 192.065221,61.5126264 L180.063098,19.5828588 C178.484637,14.0738715 172.386799,9.40462623 166.690933,9.40462623 L129.526883,9.40462623 C123.830714,9.40462623 120.40652,14.0738715 121.98407,19.5828588 L133.9868,61.5126264 C135.05559,65.2471732 135.029196,67.1162668 135.058017,69.171026 L154.854452,69.171026 C153.704964,67.1162668 152.60887,65.2471732 151.539776,61.5126264 L139.537046,19.5828588 C139.003106,17.7161619 139.936894,17.0624797 141.618502,17.0624797 L168.508149,17.0624797 C170.18915,17.0624797 171.499124,17.7161619 172.033064,19.5828588 L184.036097,61.5126264 C185.104887,65.2471732 185.079404,67.1162668 185.106101,69.171026 L195.37747,69.171026 Z" id="path34" fill="#FCD13B"></path>
                        <path d="M103.186649,78.7130811 L103.061355,78.7127777 C93.8730352,78.6678782 83.9590423,73.5050418 78.0353412,70.4197176 C77.4119055,70.0951063 76.8364031,69.7953718 76.314598,69.5296153 C76.1735286,69.4577154 76.0512685,69.3527476 75.9581323,69.2241166 C74.1117919,66.6700021 71.8913899,63.4111474 71.7970403,62.3905938 C71.7888492,62.3020083 71.792793,62.2125127 71.8082652,62.1248373 C71.9165701,61.5111096 72.3094407,60.8925279 72.9598768,60.7484247 C71.4900248,59.0161532 70.9387923,56.4462633 70.9721636,55.4254063 C70.8377684,55.095941 69.9534302,54.4188079 69.5708743,54.126051 C69.464693,54.0447465 69.3636691,53.9670825 69.2702296,53.8939691 C68.2445186,53.0872948 67.566172,51.8531652 66.9266574,49.6327633 C66.8204761,49.2632525 66.6420916,48.6771319 66.4163806,47.9350765 C65.2887356,44.2247998 63.1890769,37.318467 62.8326112,33.8939696 C62.4834266,30.5395518 63.0971543,29.4431544 63.5904421,28.5618195 C63.7211967,28.3280084 63.8343556,28.1255966 63.912323,27.8968821 C64.2181251,26.9958886 63.7269609,24.562123 63.2885839,23.7657635 C62.5319666,22.3927488 59.7961305,17.8732798 56.3622284,17.3751987 C55.8701541,17.3038752 55.5051939,16.8816378 55.5058007,16.3843758 C55.506104,15.8519526 55.5758803,11.1186952 57.8378446,8.86340516 C60.0955616,6.61418262 62.607507,6.32051558 62.7133849,6.30926037 C62.7491831,6.30534683 62.7849814,6.3032232 62.8204762,6.3032232 C63.0895699,6.3032232 63.3489556,6.4121045 63.5382616,6.60693195 C63.9660204,7.04743251 64.4483867,7.52157736 64.8928311,7.93871804 C64.8585498,6.58442153 64.940461,5.73472872 65.6940446,5.43372 C65.9871049,5.31546441 66.3256715,5.25266578 66.6709123,5.25266578 C67.4609009,5.25266578 68.2781932,5.56265439 69.0997328,6.17343936 C69.282668,6.30926037 69.413726,6.50372377 69.4710639,6.72497518 C69.4753111,6.74096305 69.7495622,7.79224857 70.1994673,9.2620703 C69.9249129,6.23472112 70.742812,4.3658702 72.6434567,3.69419786 C73.261735,3.47576783 73.9021597,3.36533932 74.547135,3.36533932 C76.6819852,3.36533932 78.8523302,4.53154331 80.9971918,6.83139915 C81.7547192,7.64326109 82.3690537,8.45148253 82.8010597,9.06854737 C83.3638204,8.58918446 84.144101,8.08127397 85.0657544,7.89569946 C86.6284392,4.95165706 88.1556292,4.50487664 88.8394365,4.4708683 C89.3745901,4.35710266 89.9082268,4.29940073 90.4269981,4.29940073 C93.1103503,4.29940073 94.9387917,5.78414851 95.959042,6.94728841 C97.4437594,4.84332184 99.2282114,4.52966238 100.96291,4.22449743 L101.185587,4.18502834 C101.345162,4.15717851 101.511412,4.14285921 101.681302,4.14285921 C103.787028,4.14285921 106.522864,6.44884322 107.537047,7.37510789 L108.178078,7.27981779 C109.467119,4.42132716 111.445124,2.91903823 113.928856,2.91903823 C114.388469,2.91903823 114.868105,2.97307539 115.354415,3.07925665 C116.790592,3.3933105 117.937047,4.28304881 118.769508,5.72799379 C119.046489,5.70499796 119.317707,5.69350005 119.581036,5.69350005 C121.790213,5.69350005 123.612284,6.52317011 124.850054,8.09289324 C125.47713,8.8879482 125.880619,9.77353028 126.140611,10.581145 C126.231624,10.600834 126.320209,10.6336592 126.403334,10.6781947 C126.422447,10.6885094 128.362227,11.7361241 130.341142,12.8846717 C134.553504,15.3298138 134.843834,15.8453087 135.017061,16.1535377 C135.148423,16.3867421 135.181187,16.66251 135.107164,16.9198024 C135.033444,17.1770644 134.85961,17.3940686 134.624798,17.5223962 C134.550167,17.5630485 132.767232,18.5165562 129.671897,18.5165562 C129.560558,18.5165562 129.448006,18.5152517 129.33515,18.5125213 C127.383842,20.5672805 125.717706,22.7179365 125.625784,23.3188618 C124.995674,28.1004771 125.204092,32.0925286 126.18278,33.9977238 C126.439132,34.4973825 126.665753,34.9585126 126.88479,35.4044739 C128.071897,37.8217662 128.686231,38.9557821 130.281074,39.5067112 C130.380277,39.5021606 130.509515,39.4982167 130.665147,39.4982167 C132.126201,39.4982167 136.887369,39.8610532 140.080694,44.2584744 C140.482666,43.9044358 140.938032,43.5064077 141.244138,43.2476288 C141.425859,43.0938177 141.655211,43.0112996 141.890023,43.0112996 C141.950091,43.0112996 142.010766,43.0167604 142.070835,43.0276819 C142.365412,43.081986 142.62055,43.2652246 142.765563,43.5273406 C142.855969,43.6914665 144.99355,47.5816446 145.62457,50.8775111 C146.219488,53.9758803 144.965336,56.5309049 141.790516,58.6885082 C140.345541,59.668713 138.133027,60.667727 136.181111,61.5493348 C134.9306,62.1142192 133.749257,62.6475525 133.028741,63.0622662 C131.227604,64.0973818 130.946072,64.3097443 126.921195,68.388015 C123.135985,72.2229789 113.877889,78.7130811 103.186649,78.7130811 Z M103.186649,77.7128536 C113.055742,77.7128536 122.135151,71.8131192 126.209174,67.6853984 C130.298366,63.5419021 130.630562,63.2864603 132.52969,62.1952203 C134.428211,61.1027668 138.932723,59.4181252 141.228059,57.8612045 C143.520664,56.3033736 145.252632,54.2437605 144.642241,51.0656036 C144.033671,47.8883568 141.890023,44.0115272 141.890023,44.0115272 C141.241711,44.5597258 139.878343,45.7735294 139.878343,45.7735294 C137.015089,40.9167984 132.229348,40.4987476 130.665147,40.4987476 C130.339625,40.4987476 130.153049,40.5169501 130.153049,40.5169501 C127.551912,39.7163433 126.950623,37.6852474 125.293285,34.45491 C123.632913,31.2236625 124.441104,24.6537119 124.634354,23.1879251 C124.827604,21.7212888 128.923774,17.4967914 128.923774,17.4967914 C129.181946,17.5102005 129.43132,17.515995 129.671897,17.515995 C132.547892,17.515995 134.145465,16.6440345 134.145465,16.6440345 C133.617592,15.7063022 125.928249,11.5589531 125.928249,11.5589531 C125.832382,11.575305 125.676447,11.7843304 125.488658,12.1110653 C125.167384,10.2701856 123.981491,6.69369722 119.581036,6.69369722 C119.210919,6.69369722 118.817138,6.71881667 118.4003,6.77284776 L118.200073,6.80318527 C118.20068,6.80436843 118.201286,6.80591564 118.201893,6.80685611 C118.200376,6.80591564 118.200376,6.80436843 118.199466,6.80318527 L118.200073,6.80318527 C117.550547,5.40007571 116.574893,4.37014779 115.140839,4.05670069 C114.71217,3.96295781 114.308681,3.91957518 113.928856,3.91957518 C111.16875,3.91957518 109.664009,6.21527478 108.879785,8.18663612 C108.872504,8.20511166 108.867043,8.22146358 108.859762,8.23757279 C108.866436,8.22085683 108.873111,8.20356445 108.879785,8.18663612 L107.205458,8.43631378 C107.205458,8.43631378 103.830714,5.14314739 101.681302,5.14314739 C101.570873,5.14314739 101.463782,5.15191493 101.360938,5.1701781 C99.2452004,5.54596877 97.4983669,5.75108063 96.0530882,8.77821745 C96.0530882,8.77821745 94.1946127,5.29993161 90.4269981,5.29993161 C89.9652613,5.29993161 89.4737937,5.35244583 88.9544157,5.46951826 C88.9544157,5.46951826 88.9462245,5.46869914 88.9295389,5.46869914 C88.7247608,5.46869914 87.2894935,5.58944241 85.7158871,8.82430012 C85.7164939,8.82430012 85.7171006,8.82430012 85.7171006,8.82430012 C84.0030317,8.87253675 82.6454283,10.661509 82.6454283,10.661509 C82.6454283,10.661509 78.9991637,4.3658702 74.547135,4.3658702 C74.0332177,4.3658702 73.5077721,4.44990508 72.9765625,4.63714816 C70.856881,5.38645417 70.856881,8.32858531 71.5855879,11.5261279 C71.3249887,11.5361999 71.0298048,11.6141673 70.7006429,11.8065071 C70.4800893,11.9356842 70.2974575,12.1062113 70.1415227,12.2960634 C69.1628348,9.51899862 68.5029941,6.9760787 68.5029941,6.9760787 C67.7369721,6.40667409 67.1162668,6.25319666 66.6709123,6.25319666 C66.4036388,6.25319666 66.1997708,6.30841092 66.0653757,6.36268471 C65.7058762,6.50621144 66.0119817,10.0611602 66.0119817,10.0611602 C65.4683336,10.0320058 62.8204762,7.30375408 62.8204762,7.30375408 C62.8204762,7.30375408 60.5785347,7.54527095 58.5441017,9.57184656 C56.5105788,11.5996053 56.5060282,16.3853466 56.5060282,16.3853466 C60.6695472,16.9893663 63.6708365,22.3867116 64.1650344,23.2834276 C64.6595357,24.1820851 65.2960166,26.9327259 64.8594599,28.2193395 C64.4213863,29.5053462 63.4084171,29.7641858 63.8276814,33.7902153 C64.2466423,37.8169122 67.262797,47.1830098 67.8880529,49.3560852 C68.5139156,51.5288573 69.1088341,52.4941966 69.8872944,53.1067108 C70.667575,53.7180116 72.0163805,54.6433054 71.9729978,55.4281366 C71.9290084,56.2132713 72.4456561,58.6754631 73.8102371,60.2017429 C75.1726944,61.7286295 75.4481589,62.0781175 75.4481589,62.0781175 C75.3574498,62.132725 75.2315491,62.1551748 75.085019,62.1551748 C74.5419777,62.1551748 73.7186178,61.846339 73.3657926,61.7362139 C73.3251404,61.7231687 73.2869151,61.7174046 73.2517236,61.7174046 C72.8958647,61.7174046 72.7933239,62.2986712 72.7933239,62.2986712 C72.8819094,63.2612802 76.7687505,68.6382994 76.7687505,68.6382994 C82.1221064,71.3659444 93.1494857,77.6640102 103.066209,77.7125502 C103.106861,77.7125502 103.145997,77.7128536 103.186649,77.7128536 Z" id="path36" fill="#FCD13B"></path>
                        <path d="M104.446262,62.1937034 C104.446262,62.1937034 105.075765,62.8229032 104.331586,63.7372756 C103.587407,64.6513446 102.957904,64.1947652 102.673035,64.0230549 C102.386649,63.851648 102.104207,63.1007948 102.673035,62.5365172 C103.241256,61.9707228 103.530373,61.8499795 104.446262,62.1937034" id="path38" fill="#FFFAEA"></path>
                        <path d="M85.1428117,60.3637452 C85.1428117,60.3637452 90.3472105,59.6772075 90.433369,58.9909731 C90.5189208,58.3050422 81.8827435,57.3600289 81.8827435,57.3600289 C81.8827435,57.3600289 83.9990878,56.7893805 92.0060652,56.5606357 C92.0060652,56.5606357 91.4627205,58.7045871 91.4345066,60.4207797 C91.4345066,60.4207797 86.8587009,60.648311 85.1428117,60.3637452" id="path40" fill="#FFFAEA"></path>
                        <path d="M112.30853,61.9079241 C112.30853,61.9079241 112.566398,63.1080758 112.280619,63.708455 L110.077813,60.219642 C110.077813,60.219642 109.193475,62.0508138 108.906785,62.1645794 C108.906785,62.1645794 108.420172,56.7887737 102.529235,56.8455048 C102.529235,56.8455048 93.4631755,56.8163808 96.4095539,65.3955236 C96.4095539,65.3955236 94.9218027,65.5393234 93.8651474,64.9383374 C93.8651474,64.9383374 92.6349617,62.6226757 92.6349617,60.3916557 C92.6349617,58.160939 96.2954849,55.4733395 101.328173,55.4733395 C106.361165,55.4733395 111.908075,59.1896838 112.30853,61.9079241" id="path42" fill="#FFFAEA"></path>
                        <path d="M127.122333,58.875994 C126.522257,57.3885462 125.417668,57.5863467 125.005685,57.7046629 C125.005685,57.7046629 123.261279,57.9321942 123.690858,59.7330285 C124.119527,61.5350762 125.978912,60.8782692 125.978912,60.8782692 C125.978912,60.8782692 127.723319,60.3637452 127.122333,58.875994 Z M132.039132,60.0200213 C126.092678,62.2507379 125.302689,64.4411057 123.261279,66.2531648 C121.220778,68.0664374 120.059459,68.6261644 117.198329,69.4555917 C117.198329,69.4555917 116.998708,69.7422812 116.255742,70.3993915 C115.51217,71.0583221 110.87933,74.6035628 104.560331,74.4318525 C98.2392088,74.2610524 97.3533537,72.7453907 97.3533537,72.7453907 C97.3533537,72.7453907 103.187862,73.1455424 105.475007,72.2014392 C105.475007,72.2014392 105.1598,71.8015909 99.1547946,71.1150532 C93.1494857,70.4288189 89.0596868,68.5988606 89.0596868,68.5988606 C89.0596868,68.5988606 103.958738,67.9120195 114.655439,69.0281363 C114.655439,69.0281363 115.96966,69.3136122 115.855894,68.426847 C115.855894,68.426847 114.283804,66.9397025 113.967991,66.3963578 C113.967991,66.3963578 121.362454,62.6090238 121.603637,62.2507379 C121.844214,61.892452 122.374513,61.6506621 121.717403,61.0496761 C121.060293,60.4486902 120.830334,59.3917315 121.060293,58.9042079 C121.289038,58.4175943 121.689493,57.3885462 122.374513,56.7599531 C122.374513,56.7599531 122.546224,56.4456565 122.260748,56.1013259 C122.260748,56.1013259 118.429424,57.9604081 118.028666,58.3326493 C118.028666,58.3326493 118.0857,55.583768 114.912094,54.0426228 C114.912094,54.0426228 111.794309,52.4125888 109.021764,51.5543408 C106.24649,50.6973063 105.217441,48.838224 105.703145,47.6374656 C106.190669,46.4364038 107.362303,44.6352662 111.164502,45.5214247 C111.164502,45.5214247 112.423509,46.0638593 112.681074,45.4923007 C112.939246,44.9210455 111.451495,43.9487285 111.451495,43.9487285 C111.451495,43.9487285 114.483425,43.1186944 116.485397,43.1186944 C116.485397,43.1186944 121.064843,44.2982166 124.549106,44.4056113 C128.030031,44.5133095 129.580277,44.4914665 131.812208,44.6349629 C134.042014,44.7772458 136.015165,46.2376932 136.732041,47.1520656 L134.557448,47.036783 C134.557448,47.036783 130.840497,50.3544925 125.177699,50.2674238 C119.516721,50.1824788 112.259383,48.6191873 111.594385,48.5806586 C110.929993,48.5436469 108.275462,48.4386791 108.248461,49.1813412 C108.220248,49.9252168 109.657032,50.4273025 111.566778,50.6684857 C113.475007,50.9093654 117.800225,51.9271887 121.660369,52.5846024 C125.520816,53.2417127 133.698897,52.5836923 137.587558,50.2382998 C140.858851,48.267879 141.055742,47.8140299 141.033899,47.7190735 C141.182552,47.967841 142.815013,50.8028808 142.020778,53.0417886 C141.191957,55.3874844 137.989227,57.789608 132.039132,60.0200213 Z" id="path44" fill="#FCD13B"></path>
                        <path d="M111.910502,15.2008794 C107.705724,15.0946981 108.263023,17.9312548 108.263023,17.9312548 C108.263023,17.9312548 106.559269,13.8175499 103.357449,13.7280846 C100.155932,13.636708 99.1981773,16.4432912 99.1981773,16.4432912 C99.1981773,16.4432912 98.6882038,7.88347345 104.242091,8.00151668 C104.242091,8.00151668 106.221006,8.13375786 108.106482,10.9709212 C108.106482,10.9709212 109.248992,2.77042996 115.140839,4.05670069 C121.032989,5.34389065 119.233368,18.6717932 118.502234,20.6862642 C118.502234,20.6862642 116.113763,15.3058775 111.910502,15.2008794" id="path46" fill="#4E1A06"></path>
                        <path d="M85.49412,15.4915734 C85.49412,15.4915734 83.6059137,15.6292753 82.2006805,18.536579 C82.2006805,18.536579 79.8295012,16.0212965 77.352444,16.972893 C74.876297,17.9251873 75.4381475,21.1182096 75.4381475,21.1182096 L75.1280982,21.1182096 C75.1280982,21.1182096 67.8455804,6.44826681 72.9765625,4.63714816 C78.1078479,2.82719447 82.6454283,10.661509 82.6454283,10.661509 C82.6454283,10.661509 84.3015527,8.46901761 86.2665128,8.86495238 C88.2317763,9.26146355 94.5510784,14.9521119 93.7723147,17.9236704 C93.7723147,17.9236704 89.4768275,14.4030941 85.49412,15.4915734" id="path48" fill="#4E1A06"></path>
                        <path d="M125.978912,60.8782692 C125.978912,60.8782692 124.119527,61.5350762 123.690858,59.7330285 C123.261279,57.9321942 125.005685,57.7046629 125.005685,57.7046629 C125.417668,57.5863467 126.522257,57.3885462 127.122333,58.875994 C127.723319,60.3637452 125.978912,60.8782692 125.978912,60.8782692" id="path50" fill="#4E1A06"></path>
                        <path d="M141.033899,47.7190735 C141.055742,47.8140299 140.858851,48.267879 137.587558,50.2382998 C133.698897,52.5836923 125.520816,53.2417127 121.660369,52.5846024 C117.800225,51.9271887 113.475007,50.9093654 111.566778,50.6684857 C109.657032,50.4273025 108.220248,49.9252168 108.248461,49.1813412 C108.275462,48.4386791 110.929993,48.5436469 111.594385,48.5806586 C112.259383,48.6191873 119.516721,50.1824788 125.177699,50.2674238 C130.840497,50.3544925 134.557448,47.036783 134.557448,47.036783 L136.732041,47.1520656 C136.015165,46.2376932 134.042014,44.7772458 131.812208,44.6349629 C129.580277,44.4914665 128.030031,44.5133095 124.549106,44.4056113 C121.064843,44.2982166 116.485397,43.1186944 116.485397,43.1186944 C114.483425,43.1186944 111.451495,43.9487285 111.451495,43.9487285 C111.451495,43.9487285 112.939246,44.9210455 112.681074,45.4923007 C112.423509,46.0638593 111.164502,45.5214247 111.164502,45.5214247 C107.362303,44.6352662 106.190669,46.4364038 105.703145,47.6374656 C105.217441,48.838224 106.24649,50.6973063 109.021764,51.5543408 C111.794309,52.4125888 114.912094,54.0426228 114.912094,54.0426228 C118.0857,55.583768 118.028666,58.3326493 118.028666,58.3326493 C118.429424,57.9604081 122.260748,56.1013259 122.260748,56.1013259 C122.546224,56.4456565 122.374513,56.7599531 122.374513,56.7599531 C121.689493,57.3885462 121.289038,58.4175943 121.060293,58.9042079 C120.830334,59.3917315 121.060293,60.4486902 121.717403,61.0496761 C122.374513,61.6506621 121.844214,61.892452 121.603637,62.2507379 C121.362454,62.6090238 113.967991,66.3963578 113.967991,66.3963578 C114.283804,66.9397025 115.855894,68.426847 115.855894,68.426847 C115.96966,69.3136122 114.655439,69.0281363 114.655439,69.0281363 C103.958738,67.9120195 89.0596868,68.5988606 89.0596868,68.5988606 C89.0596868,68.5988606 93.1494857,70.4288189 99.1547946,71.1150532 C105.1598,71.8015909 105.475007,72.2014392 105.475007,72.2014392 C103.187862,73.1455424 97.3533537,72.7453907 97.3533537,72.7453907 C97.3533537,72.7453907 98.2392088,74.2610524 104.560331,74.4318525 C110.87933,74.6035628 115.51217,71.0583221 116.255742,70.3993915 C116.998708,69.7422812 117.198329,69.4555917 117.198329,69.4555917 C120.059459,68.6261644 121.220778,68.0664374 123.261279,66.2531648 C125.302689,64.4411057 126.092678,62.2507379 132.039132,60.0200213 C137.989227,57.789608 141.191957,55.3874844 142.020778,53.0417886 C142.815013,50.8028808 141.182552,47.967841 141.033899,47.7190735 Z M102.673035,64.0230549 C102.957904,64.1947652 103.587407,64.6513446 104.331586,63.7372756 C105.075765,62.8229032 104.446262,62.1937034 104.446262,62.1937034 C103.530373,61.8499795 103.241256,61.9707228 102.673035,62.5365172 C102.104207,63.1007948 102.386649,63.851648 102.673035,64.0230549 Z M101.328173,55.4733395 C96.2954849,55.4733395 92.6349617,58.160939 92.6349617,60.3916557 C92.6349617,62.6226757 93.8651474,64.9383374 93.8651474,64.9383374 C94.9218027,65.5393234 96.4095539,65.3955236 96.4095539,65.3955236 C93.4631755,56.8163808 102.529235,56.8455048 102.529235,56.8455048 C108.420172,56.7887737 108.906785,62.1645794 108.906785,62.1645794 C109.193475,62.0508138 110.077813,60.219642 110.077813,60.219642 L112.280619,63.708455 C112.566398,63.1080758 112.30853,61.9079241 112.30853,61.9079241 C111.908075,59.1896838 106.361165,55.4733395 101.328173,55.4733395 Z M81.8827435,57.3600289 C81.8827435,57.3600289 90.5189208,58.3050422 90.433369,58.9909731 C90.3472105,59.6772075 85.1428117,60.3637452 85.1428117,60.3637452 C86.8587009,60.648311 91.4345066,60.4207797 91.4345066,60.4207797 C91.4627205,58.7045871 92.0060652,56.5606357 92.0060652,56.5606357 C83.9990878,56.7893805 81.8827435,57.3600289 81.8827435,57.3600289 Z M141.228059,57.8612045 C138.932723,59.4181252 134.428211,61.1027668 132.52969,62.1952203 C130.630562,63.2864603 130.298366,63.5419021 126.209174,67.6853984 C122.118465,71.8301082 112.982326,77.7607868 103.066209,77.7125502 C93.1494857,77.6640102 82.1221064,71.3659444 76.7687505,68.6382994 C76.7687505,68.6382994 72.8819094,63.2612802 72.7933239,62.2986712 C72.7933239,62.2986712 72.9174043,61.5957512 73.3657926,61.7362139 C73.8135742,61.8760697 75.0197933,62.3362897 75.4481589,62.0781175 C75.4481589,62.0781175 75.1726944,61.7286295 73.8102371,60.2017429 C72.4456561,58.6754631 71.9290084,56.2132713 71.9729978,55.4281366 C72.0163805,54.6433054 70.667575,53.7180116 69.8872944,53.1067108 C69.1088341,52.4941966 68.5139156,51.5288573 67.8880529,49.3560852 C67.262797,47.1830098 64.2466423,37.8169122 63.8276814,33.7902153 C63.4084171,29.7641858 64.4213863,29.5053462 64.8594599,28.2193395 C65.2960166,26.9327259 64.6595357,24.1820851 64.1650344,23.2834276 C63.6708365,22.3867116 60.6695472,16.9893663 56.5060282,16.3853466 C56.5060282,16.3853466 56.5105788,11.5996053 58.5441017,9.57184656 C60.5785347,7.54527095 62.8204762,7.30375408 62.8204762,7.30375408 C62.8204762,7.30375408 65.4683336,10.0320058 66.0119817,10.0611602 C66.0119817,10.0611602 65.7058762,6.50621144 66.0653757,6.36268471 C66.4236616,6.21824785 67.2776623,6.06537717 68.5029941,6.9760787 C68.5029941,6.9760787 70.2152428,13.5797039 72.2175181,17.1245805 C72.2175181,17.1245805 72.3604077,19.1550393 72.0163805,20.527599 L72.131663,24.3028284 C72.131663,24.3028284 72.1028423,25.0175496 71.1587392,24.6747055 C70.2152428,24.3316187 68.0995053,23.4724605 67.7269608,23.5874093 L68.8136502,25.5893206 C68.8136502,25.5893206 68.6604458,25.9871666 68.3849812,26.3047396 C68.1095167,26.6207957 67.9557055,26.7339849 68.0700779,27.1341669 C68.1847537,27.5337725 70.3863464,28.9917626 70.6730358,29.2204771 C70.9588151,29.4491915 71.5297669,29.6206591 71.6441393,30.250405 C71.7600285,30.8799386 70.2716706,31.1936283 70.128781,31.4800144 C69.9858913,31.7670072 70.6150911,32.051573 70.5013255,32.4805453 C70.3863464,32.9101243 68.9571466,33.2523314 68.7563123,35.3116411 C68.5563881,37.3709509 72.1307528,39.2594605 73.2750835,39.9162675 C74.418504,40.5733778 74.0189591,40.7739087 73.7325731,41.0032603 C73.446187,41.2307915 71.1305253,41.7738329 71.1875598,42.9475909 C71.1875598,42.9475909 72.7317388,43.9487285 74.047173,43.9487285 C74.047173,43.9487285 74.2467937,44.2906322 73.1604077,46.2070523 C72.0737183,48.1237758 72.3886216,48.8097068 72.3886216,48.8097068 C72.3886216,48.8097068 72.9034491,49.0378448 73.9045867,48.8952585 C74.9048142,48.753279 74.0756902,49.3245342 76.2484623,49.9252168 C78.4227512,50.5246859 84.7138394,51.9839198 91.1766378,52.327037 C91.1766378,52.327037 87.5558567,49.6937416 84.7193001,48.4647694 L84.9365166,48.1562369 C84.9365166,48.1562369 89.6612795,48.4945001 90.2046242,48.437769 L85.8320798,45.3406132 C85.8320798,45.3406132 85.9273395,44.9880914 90.0817573,44.5393997 C90.0817573,44.5393997 90.5695844,41.0050805 86.4837294,36.9574507 C86.4837294,36.9574507 87.2169868,34.9897602 86.0222959,33.227758 C84.8273016,31.4669693 83.147514,30.0878263 83.1438735,29.4392408 C83.1438735,29.4392408 84.7429634,29.2793622 87.630487,30.7658695 C87.630487,30.7658695 88.6046243,31.0125134 88.3801267,29.8781638 C88.1589663,28.7441783 87.3422807,25.7098515 85.9573737,24.5490779 C85.9573737,24.5490779 85.4865356,23.7694344 86.2298044,23.5928701 C86.2298044,23.5928701 88.1456178,23.9302535 91.8919962,26.9628207 C91.8919962,26.9628207 92.5202859,27.619203 92.8643132,27.3613342 C93.2068236,27.1041935 92.0012112,23.9318007 92.3036761,23.7029649 C92.606141,23.4740078 96.1234712,26.1906402 96.4095539,26.6484028 L96.8166832,25.8818044 C96.8166832,25.8818044 98.3827052,27.2199614 99.1547946,28.9355776 C99.1547946,28.9355776 93.4932096,30.3936284 92.7778513,34.5116412 C92.0627963,38.6293506 95.8379953,43.2624942 98.1824776,43.8628734 C98.1824776,43.8628734 99.383236,41.1133854 100.898898,40.5154332 C100.898898,40.5154332 97.4112983,37.5141439 97.9962054,33.6536965 C97.9962054,33.6536965 98.5474378,30.9927941 100.69594,29.9358961 C100.69594,29.9358961 103.70087,32.6531657 103.987862,32.7387174 C103.987862,32.7387174 103.759118,36.6561993 109.221385,38.7152057 C114.683349,40.7739087 118.838677,40.5415234 119.46272,40.5154332 C119.46272,40.5154332 120.381643,38.5896084 119.306178,33.9761842 C118.229804,29.3645802 116.647399,26.6244665 116.647399,26.6244665 C116.647399,26.6244665 111.008264,27.3304202 110.61418,27.018035 C110.61418,27.018035 110.138791,26.7780653 110.679102,26.6435488 C111.2182,26.5089413 118.118162,24.5469543 123.007354,17.6900716 C123.007354,17.6900716 125.391578,11.6532724 125.928249,11.5589531 C125.928249,11.5589531 133.617592,15.7063022 134.145465,16.6440345 C134.145465,16.6440345 132.269697,17.6679252 128.923774,17.4967914 C128.923774,17.4967914 124.827604,21.7212888 124.634354,23.1879251 C124.441104,24.6537119 123.632913,31.2236625 125.293285,34.45491 C126.950623,37.6852474 127.551912,39.7163433 130.153049,40.5169501 C130.153049,40.5169501 136.419261,39.9059527 139.878343,45.7735294 C139.878343,45.7735294 141.241711,44.5597258 141.890023,44.0115272 C141.890023,44.0115272 144.033671,47.8883568 144.642241,51.0656036 C145.252632,54.2437605 143.520664,56.3033736 141.228059,57.8612045 Z" id="path52" fill="#4E1A06"></path>
                        <path d="M110.679102,26.6435488 C110.138791,26.7780653 110.61418,27.018035 110.61418,27.018035 C111.008264,27.3304202 116.647399,26.6244665 116.647399,26.6244665 C116.647399,26.6244665 118.229804,29.3645802 119.306178,33.9761842 C120.381643,38.5896084 119.46272,40.5154332 119.46272,40.5154332 C118.838677,40.5415234 114.683349,40.7739087 109.221385,38.7152057 C103.759118,36.6561993 103.987862,32.7387174 103.987862,32.7387174 C103.70087,32.6531657 100.69594,29.9358961 100.69594,29.9358961 C98.5474378,30.9927941 97.9962054,33.6536965 97.9962054,33.6536965 C97.4112983,37.5141439 100.898898,40.5154332 100.898898,40.5154332 C99.383236,41.1133854 98.1824776,43.8628734 98.1824776,43.8628734 C95.8379953,43.2624942 92.0627963,38.6293506 92.7778513,34.5116412 C93.4932096,30.3936284 99.1547946,28.9355776 99.1547946,28.9355776 C98.3827052,27.2199614 96.8166832,25.8818044 96.8166832,25.8818044 L96.4095539,26.6484028 C96.1234712,26.1906402 92.606141,23.4740078 92.3036761,23.7029649 C92.0012112,23.9318007 93.2068236,27.1041935 92.8643132,27.3613342 C92.5202859,27.619203 91.8919962,26.9628207 91.8919962,26.9628207 C88.1456178,23.9302535 86.2298044,23.5928701 86.2298044,23.5928701 C85.4865356,23.7694344 85.9573737,24.5490779 85.9573737,24.5490779 C87.3422807,25.7098515 88.1589663,28.7441783 88.3801267,29.8781638 C88.6046243,31.0125134 87.630487,30.7658695 87.630487,30.7658695 C84.7429634,29.2793622 83.1438735,29.4392408 83.1438735,29.4392408 C83.147514,30.0878263 84.8273016,31.4669693 86.0222959,33.227758 C87.2169868,34.9897602 86.4837294,36.9574507 86.4837294,36.9574507 C90.5695844,41.0050805 90.0817573,44.5393997 90.0817573,44.5393997 C85.9273395,44.9880914 85.8320798,45.3406132 85.8320798,45.3406132 L90.2046242,48.437769 C89.6612795,48.4945001 84.9365166,48.1562369 84.9365166,48.1562369 L84.7193001,48.4647694 C87.5558567,49.6937416 91.1766378,52.327037 91.1766378,52.327037 C84.7138394,51.9839198 78.4227512,50.5246859 76.2484623,49.9252168 C74.0756902,49.3245342 74.9048142,48.753279 73.9045867,48.8952585 C72.9034491,49.0378448 72.3886216,48.8097068 72.3886216,48.8097068 C72.3886216,48.8097068 72.0737183,48.1237758 73.1604077,46.2070523 C74.2467937,44.2906322 74.047173,43.9487285 74.047173,43.9487285 C72.7317388,43.9487285 71.1875598,42.9475909 71.1875598,42.9475909 C71.1305253,41.7738329 73.446187,41.2307915 73.7325731,41.0032603 C74.0189591,40.7739087 74.418504,40.5733778 73.2750835,39.9162675 C72.1307528,39.2594605 68.5563881,37.3709509 68.7563123,35.3116411 C68.9571466,33.2523314 70.3863464,32.9101243 70.5013255,32.4805453 C70.6150911,32.051573 69.9858913,31.7670072 70.128781,31.4800144 C70.2716706,31.1936283 71.7600285,30.8799386 71.6441393,30.250405 C71.5297669,29.6206591 70.9588151,29.4491915 70.6730358,29.2204771 C70.3863464,28.9917626 68.1847537,27.5337725 68.0700779,27.1341669 C67.9557055,26.7339849 68.1095167,26.6207957 68.3849812,26.3047396 C68.6604458,25.9871666 68.8136502,25.5893206 68.8136502,25.5893206 L67.7269608,23.5874093 C68.0995053,23.4724605 70.2152428,24.3316187 71.1587392,24.6747055 C72.1028423,25.0175496 72.131663,24.3028284 72.131663,24.3028284 L72.0163805,20.527599 C72.3604077,19.1550393 72.2175181,17.1245805 72.2175181,17.1245805 C71.4575636,15.779992 70.7397783,13.9943569 70.1415227,12.2960634 C70.2974575,12.1062113 70.4800893,11.9356842 70.7006429,11.8065071 C71.0304116,11.6141673 71.3262022,11.5361999 71.5868014,11.5261279 C72.6216137,16.065832 75.1280982,21.1182096 75.1280982,21.1182096 L75.4381475,21.1182096 C75.4381475,21.1182096 74.876297,17.9251873 77.352444,16.972893 C79.8295012,16.0212965 82.2006805,18.536579 82.2006805,18.536579 C83.6059137,15.6292753 85.49412,15.4915734 85.49412,15.4915734 C89.4768275,14.4030941 93.7723147,17.9236704 93.7723147,17.9236704 C94.5510784,14.9521119 88.2317763,9.26146355 86.2665128,8.86495238 C86.0799372,8.82797096 85.897002,8.81883937 85.7158871,8.82430012 C87.4160008,5.32908595 88.9544157,5.46951826 88.9544157,5.46951826 C93.7101228,4.39408408 96.0530882,8.77821745 96.0530882,8.77821745 C97.4983669,5.75108063 99.2452004,5.54596877 101.360938,5.1701781 C103.475765,4.79663242 107.205458,8.43631378 107.205458,8.43631378 L108.879785,8.18663612 C108.28972,9.67126256 108.106482,10.9709212 108.106482,10.9709212 C106.221006,8.13375786 104.242091,8.00151668 104.242091,8.00151668 C98.6882038,7.88347345 99.1981773,16.4432912 99.1981773,16.4432912 C99.1981773,16.4432912 100.155932,13.636708 103.357449,13.7280846 C106.559269,13.8175499 108.263023,17.9312548 108.263023,17.9312548 C108.263023,17.9312548 107.705724,15.0946981 111.910502,15.2008794 C116.113763,15.3058775 118.502234,20.6862642 118.502234,20.6862642 C119.054377,19.1618046 120.216303,11.1645655 118.199466,6.80318527 L118.4003,6.77284776 C123.776409,6.07936276 125.140384,10.1169508 125.488658,12.1110653 C124.616455,13.6164426 123.007354,17.6900716 123.007354,17.6900716 C118.118162,24.5469543 111.2182,26.5089413 110.679102,26.6435488" id="path54" fill="#FEF5D5"></path>
                    </g>
                </g>
            </g>
        </g>
    </g>
</svg>