<?xml version="1.0" encoding="UTF-8"?>
<svg width="200px" height="200px" viewBox="0 0 200 200" version="1.1" xmlns="http://www.w3.org/2000/svg" xmlns:xlink="http://www.w3.org/1999/xlink">
    <!-- Generator: Sketch 51.3 (57544) - http://www.bohemiancoding.com/sketch -->
    <title>regis-co</title>
    <desc>Created with Sketch.</desc>
    <defs></defs>
    <g id="regis-co" stroke="none" stroke-width="1" fill="none" fill-rule="evenodd">
        <g id="regis-co_BGL" transform="translate(0.990099, 0.000000)">
            <g id="regis-co">
                <g id="g10" transform="translate(98.999998, 99.801233) scale(-1, 1) rotate(-180.000000) translate(-98.999998, -99.801233) translate(0.000000, 0.041259)" fill-rule="nonzero">
                    <g id="g12">
                        <path d="M98.6399975,0 C98.5323725,0.284647458 98.2574975,0.367858902 98.0264975,0.495458283 C94.5419976,2.42617006 91.1306227,4.47641003 87.7758728,6.62496233 C84.1949979,8.91872915 80.720623,11.3640861 77.3291231,13.9240171 C74.6549981,15.9429189 72.0348732,18.0325528 69.4923733,20.2186089 C66.7436233,22.5825452 64.0833734,25.0402034 61.4309985,27.5112129 C59.0362485,29.742686 56.7854986,32.1084975 54.5696236,34.5029994 C50.4603737,38.9431433 46.6091238,43.5992338 43.1801239,48.5992337 C39.033749,54.6448381 35.7941991,61.1224857 33.6706117,68.1424375 C32.8404742,70.8858368 32.2163242,73.678366 31.8304867,76.5271508 C31.5007492,78.9630193 31.3306492,81.3996379 31.3321117,83.8576337 C31.3438492,102.964294 31.3388617,122.071329 31.3384117,141.178364 C31.3382992,142.2806 31.2500992,142.351107 30.1573117,142.193591 C27.2349743,141.772424 24.3103869,141.364758 21.389512,140.93309 C18.7341745,140.540801 16.0850246,140.107257 13.4277747,139.728844 C12.6593247,139.619708 11.8958622,139.458817 11.1262122,139.38831 C9.88008725,139.274299 8.68814978,139.564953 7.57192481,140.122634 C5.34768737,141.234245 3.13271617,142.363858 0.911133727,143.479969 C0.620216234,143.626234 0.349951116,143.836255 1.86517463e-15,143.83438 C1.86517463e-15,150.43504 1.86517463e-15,157.0357 1.86517463e-15,163.63636 C0.769773731,164.170038 1.69628996,164.156162 2.56010619,164.328679 C3.27992992,164.471943 3.58154241,164.79185 3.54374991,165.530674 C3.49965741,166.392135 3.50170866,167.259222 3.54345741,168.121058 C3.57802866,168.833629 3.30893617,169.253671 2.67861368,169.615582 C1.78066496,170.130884 0.765674981,170.457917 0,171.197115 C0,177.917787 0,184.638459 0,191.359131 C0.331933492,191.658786 0.755861231,191.707916 1.16836122,191.773923 C9.63134976,193.129683 18.111637,194.365057 26.6188493,195.412536 C30.1863367,195.851705 33.7583617,196.260121 37.3354866,196.610781 C39.461249,196.819302 41.589749,196.724418 43.6691239,196.153235 C44.2477489,195.99422 44.7078739,195.89446 44.8083739,196.736044 C44.8822489,197.355606 45.4454989,197.494745 45.9667489,197.531498 C47.8477488,197.663886 49.7291238,197.793274 51.6101237,197.926788 C54.3266236,198.119932 57.0494986,198.211066 59.7648735,198.431588 C60.9877485,198.530973 62.2188734,198.572977 63.4413734,198.608981 C67.1519983,198.717742 70.8558732,198.973517 74.5698731,199.028273 C79.480873,199.100655 84.3907479,199.201915 89.3024978,199.188414 C89.4787478,199.188039 89.6643728,199.154285 89.8199978,199.279923 C91.6199977,199.279923 93.4199977,199.279923 95.2199976,199.279923 C95.3726226,199.077403 95.5698726,198.939764 95.8286226,198.980643 C96.9393726,199.156161 98.0692475,199.111156 99.1799975,199.279923 C101.159997,199.279923 103.139997,199.279923 105.119997,199.279923 C105.305622,199.137784 105.523122,199.186539 105.727872,199.189539 C109.532997,199.24917 113.338122,199.148285 117.141747,199.084528 C121.900497,199.004645 126.655122,198.777748 131.408622,198.524597 C134.128497,198.379458 136.850997,198.251195 139.570872,198.09968 C142.888121,197.914787 146.203496,197.693139 149.518496,197.461366 C152.236871,197.271222 154.949246,197.005321 157.669871,196.843679 C158.491121,196.794925 159.388121,196.867307 159.828746,195.89896 C159.948746,195.636059 160.226621,195.647685 160.463621,195.690439 C164.539121,196.425138 168.529871,195.506296 172.529621,195.010871 C180.47137,194.027523 188.40487,192.967667 196.29487,191.615657 C196.83712,191.522647 197.459245,191.566527 197.819995,190.999095 C197.819995,178.697865 197.819995,166.396636 197.819995,154.095406 C197.53687,153.865508 197.69212,153.5336 197.624245,153.254197 C197.156245,151.33363 196.36987,149.579954 194.98837,148.126684 C194.423245,147.531874 193.763995,147.064578 193.05412,146.678664 C190.44937,145.262898 187.832245,143.869633 185.218495,142.470368 C184.21537,141.933315 183.22012,141.378634 182.20012,140.875334 C180.898495,140.232895 179.506121,140.107632 178.085246,140.308652 C176.225246,140.572304 174.370121,140.870459 172.510496,141.13936 C170.650496,141.407887 168.784496,141.640035 166.928246,141.932565 C166.507121,141.998946 166.339496,141.961068 166.261871,141.512523 C166.184246,141.063978 166.165871,140.621059 166.165871,140.172139 C166.165496,121.184365 166.166246,102.196967 166.164371,83.2091938 C166.164371,82.0394519 166.177496,80.8685848 166.128746,79.700343 C166.061621,78.0873068 165.824621,76.4881469 165.561371,74.899113 C165.013121,71.5924075 164.136371,68.367085 163.015871,65.2077691 C161.590496,61.1862421 159.750371,57.3691105 157.511246,53.7323719 C155.200871,49.9797467 152.696621,46.3647603 150.010496,42.8757865 C148.239371,40.5756816 146.374496,38.3505841 144.460496,36.1652031 C141.853121,33.1874429 139.175997,30.2763644 136.317747,27.5393407 C133.657872,24.9921611 130.957497,22.490961 128.106372,20.1508021 C123.915747,16.7112957 119.551497,13.5118884 115.100247,10.4238296 C110.300997,7.09420924 105.356997,3.9929867 100.363872,0.965721548 C99.8887475,0.677704003 99.2834975,0.562117448 98.9999975,0 C98.8799975,0 98.7599975,0 98.6399975,0" id="path14" fill="#C6C5C5"></path>
                        <path d="M99.1799975,199.279923 C98.5983725,198.907511 97.9106226,199.194414 97.2892476,198.963766 C96.8298726,198.793124 96.3063726,198.794624 95.8117476,198.717742 C95.2807476,198.635234 95.2811226,198.634483 95.2199976,199.279923 C96.5399976,199.279923 97.8599976,199.279923 99.1799975,199.279923" id="path16" fill="#FBFBFB"></path>
                        <path d="M193.48312,142.012073 C193.48312,141.593906 193.482745,141.175364 193.48312,140.757197 C193.483495,140.514173 193.44787,140.279774 193.324495,140.065253 C193.21537,139.876609 193.03612,139.872859 192.85537,139.901737 C192.677995,139.93024 192.617995,140.067128 192.614245,140.227269 C192.60937,140.43654 192.584995,140.652562 192.62512,140.854332 C192.76087,141.533525 192.786745,142.217968 192.784495,142.906537 C192.78337,143.184815 192.79087,143.484095 193.183495,143.464218 C193.50862,143.447716 193.932745,143.645736 194.062495,143.108682 C194.166745,142.674389 194.29687,142.246846 194.406745,141.814053 C194.44387,141.669288 194.456995,141.518898 194.66812,141.436765 C194.837995,141.970819 195.012745,142.494746 195.170245,143.024299 C195.287245,143.417713 195.561745,143.48447 195.92887,143.48297 C196.358995,143.480719 196.36687,143.198316 196.43737,142.896411 C196.638745,142.0372 196.523245,141.167113 196.562995,140.302652 C196.57387,140.066378 196.49062,139.896861 196.213495,139.889735 C195.94537,139.88336 195.851995,140.026249 195.82837,140.272649 C195.77812,140.805202 195.711745,141.33663 195.64087,141.962943 C195.26662,141.420263 195.21712,140.852457 195.00712,140.349531 C194.91637,140.131635 194.886745,139.877734 194.55262,139.894611 C194.24287,139.909988 194.14312,140.139885 194.087995,140.365283 C193.94887,140.931215 193.799245,141.490771 193.48312,142.012073" id="path18" fill="#C8C7C7"></path>
                        <path d="M190.91887,143.472469 C191.217745,143.472844 191.51662,143.475469 191.815495,143.472094 C192.043495,143.469468 192.23362,143.415088 192.236245,143.130434 C192.23812,142.917413 192.131245,142.767773 191.924245,142.779024 C191.34862,142.809777 191.31862,142.456492 191.33362,142.025574 C191.35162,141.518148 191.338495,141.009222 191.336995,140.500672 C191.33587,140.199516 191.370745,139.88636 190.91287,139.875859 C190.473745,139.865358 190.444495,140.136885 190.447495,140.462793 C190.452745,141.000972 190.43887,141.539525 190.451245,142.077329 C190.45987,142.472619 190.42762,142.800777 189.899245,142.774524 C189.63937,142.761773 189.529495,142.930164 189.55237,143.18294 C189.573745,143.415838 189.74212,143.466468 189.932245,143.470218 C190.26112,143.476219 190.589995,143.471719 190.91887,143.472469" id="path20" fill="#C8C7C7"></path>
                        <path d="M47.2132488,191.830553 C47.2132488,192.666887 47.2072488,193.491969 47.2151238,194.317052 C47.2222488,195.089254 47.2286238,195.083628 48.0176238,195.134259 C52.4759987,195.420037 56.9328736,195.725693 61.3919985,195.990469 C64.3256234,196.164862 67.2622483,196.279623 70.1973732,196.425513 C76.2779981,196.727418 82.3612479,196.942314 88.4497478,197.025198 C89.7686228,197.043199 91.0878727,197.060826 92.4071227,197.065327 C93.0322477,197.067202 93.0359977,197.04695 93.0517477,196.401135 C93.0596227,196.072977 93.0532477,195.74407 93.0532477,195.457541 C93.2036227,195.321027 93.3123727,195.358531 93.4199977,195.414787 C95.9662476,196.739419 98.7161225,197.075828 101.530872,197.060826 C102.880122,197.054075 104.228997,196.985444 105.577872,196.94719 C110.344497,196.811051 115.111497,196.69704 119.876997,196.533523 C124.192872,196.385009 128.507622,196.207241 132.820497,195.997595 C137.102997,195.789824 141.385121,195.559926 145.663121,195.276773 C149.311871,195.035624 152.954621,194.706341 156.599996,194.413436 C157.239371,194.362056 157.247621,194.356056 157.264121,193.731993 C157.277246,193.227943 157.266371,192.723142 157.266371,192.15046 C157.920746,192.385984 158.471996,192.612131 159.040121,192.784274 C161.347496,193.483343 163.715621,193.54635 166.082246,193.287574 C169.388246,192.925288 172.685621,192.483494 175.982621,192.045075 C179.011871,191.642284 182.03962,191.224868 185.06137,190.766947 C188.318995,190.273398 191.56912,189.725843 194.82187,189.20004 C195.66712,189.063527 195.671245,189.060526 195.67162,188.188939 C195.672745,182.428363 195.66937,176.667787 195.67687,170.907211 C195.67762,170.382159 195.69787,169.885609 195.104245,169.630959 C194.864995,169.528574 194.86237,169.311802 194.95087,169.09353 C195.029245,168.899261 195.11437,168.707242 195.19162,168.512222 C195.602995,167.471493 195.82612,166.403761 195.81562,165.271148 C195.788245,162.301226 195.829495,159.330554 195.79762,156.360632 C195.77737,154.408937 195.28912,152.567503 194.26387,150.88696 C193.544245,149.707092 192.57937,148.792751 191.351245,148.151061 C188.216995,146.513648 185.080495,144.879984 181.95787,143.220819 C180.75037,142.579129 179.517746,142.328604 178.148246,142.548001 C174.985121,143.054677 171.812996,143.504722 168.642371,143.962268 C167.279246,144.159162 165.908621,144.308052 164.544746,144.499696 C164.193746,144.548826 164.032121,144.462943 164.046371,144.095781 C164.056871,143.826504 164.046371,143.556102 164.046371,143.286075 C164.046371,123.424089 164.070746,103.562104 164.035121,83.700493 C164.018996,74.6639645 161.878496,66.1498633 157.568996,58.1735659 C153.279371,50.2351473 147.971621,43.040428 141.930746,36.368811 C132.634122,26.1018595 122.005122,17.4012897 110.507622,9.7283976 C106.915872,7.33123294 103.242372,5.06563144 99.5272475,2.86493392 C98.9894975,2.54615205 98.6054975,2.55889958 98.0722475,2.87094202 C84.8729979,10.6000972 72.5433732,19.4906611 61.5918735,30.2126455 C54.1031236,37.5442535 47.4314988,45.5423031 42.0701239,54.5818318 C39.340124,59.185042 36.9683991,63.9517686 35.5561491,69.1460379 C34.6973241,72.3049787 34.1550366,75.518675 33.8050867,78.7721252 C33.5670367,80.9844714 33.5296867,83.1983178 33.5304367,85.4185397 C33.5352367,104.860108 33.5332117,124.302052 33.5332117,143.743996 C33.5330617,144.870608 33.5290867,144.895361 32.4102367,144.743471 C29.6512118,144.369933 26.8937993,143.982145 24.1385619,143.579729 C21.117037,143.13906 18.098287,142.677389 15.0789371,142.221344 C14.0726246,142.069453 13.0696122,141.893561 12.0620997,141.750672 C10.6738872,141.553402 9.33674977,141.601407 8.0507998,142.315103 C6.37484984,143.245196 4.65367488,144.095031 2.93906243,144.953867 C2.51293869,145.166888 2.33276244,145.416288 2.33481369,145.917338 C2.35473744,150.957467 2.34536244,155.998346 2.34843744,161.03885 C2.34887619,161.731919 2.35942494,161.732669 3.07060492,161.865057 C3.9244499,162.024073 4.77671238,162.19434 5.63377486,162.334229 C5.96028735,162.387485 6.08673735,162.519873 6.08512485,162.859657 C6.07424985,165.259522 6.07252485,167.660137 6.08804985,170.060002 C6.09082485,170.458667 5.90024985,170.651436 5.58427486,170.818328 C4.73643738,171.266122 3.9136124,171.765297 3.04863367,172.176713 C2.51733369,172.429489 2.31958119,172.739645 2.33041869,173.34533 C2.37363369,175.804826 2.35473744,178.265447 2.35868994,180.725693 C2.36308494,183.365957 2.36381994,186.005846 2.37451119,188.64611 C2.37758619,189.445315 2.39077119,189.440814 3.21240367,189.565702 C7.41809981,190.205141 11.6185497,190.882834 15.8305496,191.478018 C19.7466745,192.031198 23.6743494,192.503746 27.5983868,193.00067 C31.0773742,193.441339 34.5565491,193.910136 38.057624,194.111906 C41.230874,194.29455 44.2781239,193.80175 46.9409988,191.871807 C46.9811238,191.842554 47.0501238,191.853431 47.2132488,191.830553" id="path22" fill="#0C2950"></path>
                        <path d="M155.795621,189.70184 C157.284371,190.90196 159.013121,191.538399 160.859996,191.874433 C162.680621,192.206341 164.500871,192.066077 166.321121,191.828678 C168.517496,191.542524 170.717621,191.283374 172.914371,190.999845 C175.377746,190.681813 177.841496,190.362281 180.301495,190.020622 C182.583745,189.703341 184.86337,189.369182 187.140745,189.018897 C189.209995,188.700115 191.273245,188.341204 193.34212,188.019047 C193.78387,187.95004 194.002495,187.818777 194.00062,187.301225 C193.98037,182.321478 193.990495,177.341355 193.985995,172.361607 C193.98562,171.705291 193.958245,171.692915 193.33162,171.773173 C192.68737,171.856056 192.04312,171.94344 191.362495,172.033824 C191.407495,171.64041 191.677495,171.465267 191.84812,171.235744 C193.303495,169.281424 194.16187,167.153836 194.084245,164.653086 C194.00212,162.015823 194.093995,159.373308 194.05687,156.733794 C194.022745,154.293801 193.220995,152.13846 191.38537,150.468418 C189.948745,149.161412 188.190745,148.500971 186.30412,148.144311 C184.598245,147.822529 182.903995,147.973669 181.202995,148.208067 C178.176371,148.624734 175.146371,149.021523 172.115996,149.411187 C169.411496,149.759222 166.706621,150.104632 163.998746,150.418163 C161.021996,150.763198 158.042246,151.082729 155.061746,151.39101 C152.378621,151.668538 149.693996,151.93369 147.007121,152.172213 C144.947246,152.354857 142.883996,152.513122 140.819621,152.636885 C136.838997,152.875034 132.857997,153.110182 128.874372,153.292075 C124.651497,153.48522 120.425622,153.619108 116.200872,153.770623 C110.806122,153.964518 105.410247,154.096156 100.012122,154.115283 C98.3193725,154.120908 96.6791226,154.431064 95.1153726,155.109507 C93.9134977,155.630434 92.8717477,156.363257 92.0017477,157.344356 C91.8513727,157.513497 91.7523727,157.741895 91.3886227,157.882159 C91.3886227,157.061577 91.3886227,156.299876 91.3886227,155.538175 C91.3886227,155.358157 91.3923727,155.178139 91.3878727,154.998121 C91.3713727,154.33768 91.3702477,154.333554 90.6701227,154.302426 C90.2508727,154.28405 89.8308728,154.280299 89.4112478,154.270923 C85.0042479,154.173038 80.600623,153.993395 76.1977481,153.785625 C73.0529982,153.63711 69.9067483,153.515223 66.7631233,153.346456 C63.1706234,153.154062 59.5792485,152.928289 55.9882486,152.707017 C52.7864987,152.509747 49.5854988,152.299726 46.3841238,152.092705 C45.3971239,152.028949 44.4044989,152.003822 43.4246239,151.879309 C39.204374,151.343756 35.6683491,152.849156 32.4968242,155.477794 C32.2067992,155.717818 31.9228867,155.965718 31.6171867,156.226744 C31.4274742,155.942465 31.5051367,155.699066 31.5035242,155.474044 C31.4939992,154.183915 31.4993992,152.893786 31.4986867,151.604032 C31.4980867,150.68819 31.4993992,150.672814 30.6379492,150.552426 C29.1247493,150.34053 27.6082118,150.151886 26.0939993,149.948991 C23.2139619,149.562703 20.333212,149.181289 17.4549371,148.782625 C14.2507496,148.33858 11.0485872,147.880284 7.8460123,147.423114 C6.68981233,147.258097 5.53653736,147.069078 4.37973739,146.908187 C3.74487366,146.820428 3.70619991,146.852682 3.70546866,147.480869 C3.70019616,151.650536 3.71337741,155.820578 3.69008616,159.99062 C3.68701116,160.524673 3.9471749,160.658187 4.36698739,160.724568 C5.19449987,160.855081 6.01904985,161.007722 6.84974983,161.110482 C7.24027482,161.158862 7.43861231,161.272123 7.43699981,161.709042 C7.42091231,166.028724 7.41971231,170.348031 7.41123731,174.667712 C7.41108731,174.721343 7.36683732,174.774973 7.31527482,174.89161 C6.18971235,174.719843 5.04551237,174.54545 3.9323624,174.375558 C3.70078116,174.568327 3.77006241,174.790725 3.77006241,174.987244 C3.77051241,179.186914 3.78588741,183.386584 3.76904991,187.586629 C3.76698741,188.109806 3.9007499,188.3007 4.43906239,188.374958 C6.63149983,188.677238 8.81471228,189.0474 11.0041872,189.372558 C13.4018622,189.728093 15.8006996,190.076503 18.2027245,190.40016 C20.723887,190.739944 23.2485369,191.053101 25.7731869,191.366257 C28.0905743,191.653911 30.4081117,191.939689 32.7284242,192.200715 C34.5440991,192.405111 36.3609366,192.626383 38.183249,192.735894 C39.927374,192.840154 41.653124,192.599005 43.3181239,192.042449 C45.6288739,191.269872 46.9882488,190.106506 48.4694988,187.675888 C48.7571238,187.778648 48.6258738,188.025798 48.6273738,188.20094 C48.6389988,189.790724 48.6311238,191.380883 48.6363738,192.970667 C48.6389988,193.664862 48.6468738,193.663361 49.2911238,193.719992 C52.6946237,194.018147 56.1041236,194.222542 59.5117485,194.460316 C64.4167484,194.802725 69.3262483,195.051 74.2364981,195.272272 C77.5008731,195.419287 80.768623,195.513046 84.0371229,195.561426 C86.2559978,195.593679 88.4741228,195.644685 90.6929977,195.633808 C91.3878727,195.630058 91.3972477,195.619182 91.4028727,194.944865 C91.4114977,193.926263 91.4051227,192.907661 91.4051227,191.901435 C91.6848727,191.784049 91.7396227,192.013947 91.8464977,192.127583 C93.8842477,194.294175 96.4477476,195.368657 99.3611225,195.489044 C102.716247,195.627433 106.077372,195.526173 109.434747,195.415537 C112.491372,195.314652 115.549497,195.24452 118.605372,195.121882 C121.899747,194.989869 125.192622,194.813601 128.485872,194.654211 C129.773247,194.591579 131.061372,194.548825 132.348747,194.467067 C135.998247,194.235669 139.652997,194.088654 143.302121,193.856506 C147.189746,193.608981 151.073246,193.293575 154.959746,193.032548 C155.454746,192.99917 155.626871,192.842404 155.606996,192.344355 C155.572121,191.486269 155.597246,190.625558 155.597246,189.765972 C155.663246,189.744595 155.729621,189.723218 155.795621,189.70184" id="path24" fill="#FCD006"></path>
                        <path d="M156.296246,104.373685 C156.296246,98.0438019 156.266996,91.7135441 156.307121,85.3836612 C156.331496,81.5350265 156.058121,77.7235204 155.393996,73.9307662 C154.604996,69.4235656 153.004496,65.2268961 150.799871,61.235747 C146.907746,54.1895426 142.125371,47.792153 136.718622,41.850434 C128.369997,32.6755917 118.828497,24.9298674 108.371622,18.2895285 C105.488247,16.4585954 102.539622,14.7389735 99.5598725,13.0705067 C99.0449975,12.7820279 98.6872475,12.8010798 98.1746225,13.083258 C86.2087478,19.6628033 75.2144981,27.5611679 65.4978734,37.1845175 C58.5412485,44.0740313 52.4298737,51.6317869 47.5507488,60.1492634 C45.2737489,64.1235358 43.4621239,68.2759509 42.5658739,72.798153 C41.811749,76.6040335 41.418374,80.4429173 41.414999,84.320805 C41.410499,89.9309909 41.427749,95.5408017 41.429249,101.150988 C41.432249,110.091131 41.429999,119.0309 41.429999,127.971419 C41.429999,128.151437 41.435624,128.331455 41.429249,128.511098 C41.410124,129.025649 41.378624,129.170039 42.1117489,129.2863 C45.7811239,129.868734 49.4621238,130.348407 53.1577487,130.733195 C57.7199986,131.208743 62.2912484,131.553402 66.8703733,131.819304 C72.9479982,132.172589 79.030123,132.375484 85.1148729,132.545376 C90.1811227,132.68639 95.2481226,132.804527 100.314372,132.799652 C106.130997,132.794026 111.946122,132.601632 117.759372,132.38186 C120.066372,132.294851 122.374497,132.22997 124.681122,132.13021 C128.484747,131.964818 132.287622,131.779175 136.082997,131.468644 C138.562122,131.265373 141.046121,131.106357 143.519996,130.853957 C147.095621,130.489796 150.667871,130.087005 154.215371,129.495571 C154.717496,129.411938 155.219621,129.297552 155.725121,129.275424 C156.223121,129.254047 156.306371,129.010273 156.302246,128.58423 C156.286871,126.844056 156.296246,125.103882 156.296246,123.364083 C156.296246,117.033825 156.296246,110.703943 156.296246,104.373685" id="path26" fill="#FFFFFF"></path>
                        <path d="M86.4296228,140.402037 C86.4296228,140.68819 86.4296228,140.973969 86.4296228,141.260122 C86.4299978,143.629609 86.4273728,145.999471 86.4318728,148.368958 C86.4333728,149.055277 86.4427478,149.055277 87.1109978,149.078904 C87.9494978,149.108532 88.7879978,149.142286 89.6268728,149.165538 C90.3014977,149.18429 90.3123727,149.178664 90.3134977,148.481094 C90.3179977,145.451542 90.3153727,142.421989 90.3153727,139.392436 C90.3153727,138.792376 90.3044977,138.192316 90.3187477,137.593006 C90.3258727,137.2836 90.1994977,137.172214 89.8983728,137.165463 C88.1898728,137.125334 86.4813728,137.090081 84.7739979,137.015448 C84.3378729,136.996321 84.2171229,137.260348 84.0513729,137.547251 C82.5971229,140.063003 81.138748,142.576879 79.680373,145.090755 C79.531498,145.347281 79.374373,145.599681 79.217248,145.860332 C78.913498,145.73282 79.045123,145.493546 79.044748,145.321404 C79.034998,142.741521 79.040623,140.162013 79.036123,137.58213 C79.034998,136.890936 79.025248,136.87931 78.361873,136.857557 C77.4929981,136.828679 76.6218731,136.844806 75.7544981,136.793801 C75.2909981,136.766798 75.2122481,136.953192 75.2144981,137.363108 C75.2291231,140.152637 75.2219981,142.942166 75.2219981,145.731695 C75.2219981,146.571779 75.2306231,147.411863 75.2182481,148.251571 C75.2129981,148.596231 75.2587481,148.810377 75.6937481,148.814503 C77.4026231,148.829879 79.111498,148.866633 80.819623,148.921013 C81.247123,148.93489 81.373498,148.653612 81.539998,148.370083 C82.9068729,146.045601 84.2752479,143.721869 85.6454979,141.399261 C85.8506229,141.051602 86.0673728,140.710318 86.2784978,140.366033 C86.3287478,140.378034 86.3793728,140.390035 86.4296228,140.402037" id="path28" fill="#FFFFFF"></path>
                        <path d="M108.724872,145.827704 C107.409747,145.827704 106.183122,145.830329 104.956497,145.825829 C104.671872,145.824704 104.469372,145.856582 104.339247,146.188865 C104.100747,146.796426 103.554747,147.082955 102.953247,147.225469 C102.096747,147.428364 101.227872,147.453867 100.369497,147.228469 C99.2909975,146.946066 98.5076225,146.308877 98.0609975,145.268148 C96.9026226,142.570128 98.3512475,140.007122 101.324247,139.570579 C102.243372,139.435565 103.176747,139.477944 104.103372,139.624209 C104.473872,139.682715 104.596122,139.836105 104.581122,140.204392 C104.499372,142.214218 105.003747,141.862808 102.902997,141.908562 C101.402247,141.941566 101.401497,141.916063 101.420622,143.454092 C101.422122,143.604107 101.423622,143.754122 101.426622,143.904137 C101.431122,144.122034 101.546247,144.230044 101.761497,144.229294 C102.061497,144.228544 102.361122,144.222169 102.661122,144.221043 C104.490747,144.214293 106.320747,144.212418 108.150747,144.200041 C108.854247,144.195541 108.865122,144.18504 108.867747,143.528349 C108.874497,141.818178 108.867372,140.108007 108.871872,138.398211 C108.872997,138.050552 108.882372,137.763648 108.395997,137.714143 C105.951372,137.465118 103.514997,137.100957 101.046372,137.187965 C99.4439975,137.244221 97.8836226,137.498121 96.4451226,138.248946 C94.2359976,139.402187 93.1526227,141.23987 93.2309977,143.729369 C93.3074977,146.164863 94.5438726,147.840155 96.7248726,148.843006 C98.3718725,149.600206 100.135872,149.739345 101.911497,149.693966 C103.196247,149.661337 104.489622,149.623834 105.738747,149.24167 C106.491372,149.011772 107.205747,148.715493 107.780997,148.157812 C108.416622,147.54125 108.721872,146.787425 108.724872,145.827704" id="path30" fill="#FFFFFF"></path>
                        <path d="M137.248872,141.585655 C137.499372,141.5354 137.586372,141.517023 137.673747,141.500522 C139.525122,141.146486 140.139746,140.572679 140.471996,138.728619 C140.662871,137.670639 140.840246,136.612658 141.155621,135.628559 C141.005996,135.360033 140.814371,135.456042 140.647871,135.465793 C139.510497,135.531425 138.373872,135.630435 137.234997,135.655187 C136.692372,135.666438 136.509747,135.921464 136.443747,136.392511 C136.335747,137.163963 136.201497,137.93129 136.091622,138.702742 C135.934872,139.802352 135.533622,140.238145 134.440872,140.381785 C133.817622,140.463918 133.183872,140.465043 132.557997,140.530675 C132.173247,140.571179 132.102747,140.38366 132.104997,140.061503 C132.112872,138.891386 132.114747,137.720894 132.104622,136.551152 C132.098997,135.949592 132.085122,135.946966 131.503122,135.97997 C130.455372,136.039601 129.407997,136.115733 128.359872,136.158112 C127.939497,136.174989 127.802247,136.33363 127.804122,136.759673 C127.819122,140.390035 127.821747,144.020398 127.802622,147.650761 C127.799997,148.13531 128.008497,148.18969 128.398122,148.165688 C129.953997,148.069303 131.512872,148.008922 133.067622,147.895661 C134.559747,147.7869 136.066872,147.812028 137.531997,147.434365 C138.318747,147.231469 139.085622,146.982445 139.757622,146.508022 C140.576996,145.929714 141.023246,145.156762 140.936246,144.133285 C140.850371,143.125184 140.231246,142.518373 139.358622,142.119708 C138.724122,141.830179 138.037497,141.740546 137.248872,141.585655" id="path32" fill="#FFFFFF"></path>
                        <path d="M50.1528737,140.999471 C52.5903737,141.088355 53.0077487,140.105382 53.2574987,138.359207 C53.3898737,137.435115 53.6223737,136.542151 53.9129987,135.63531 C53.6418737,135.413288 53.3039987,135.437665 52.9908737,135.404662 C51.9491237,135.293276 50.9006237,135.232145 49.8644988,135.083255 C49.4028738,135.016873 49.2644988,135.213768 49.2029988,135.577554 C49.0638738,136.403762 48.9389988,137.232595 48.8028738,138.059177 C48.6382488,139.060528 48.3247488,139.326054 47.3126238,139.347056 C46.6199988,139.361683 45.9416239,139.224044 45.2561239,139.168538 C44.8784989,139.13816 44.8327489,138.942766 44.8349989,138.63861 C44.8432489,137.589631 44.8387489,136.541026 44.8376239,135.492421 C44.8368739,134.539826 44.8357489,134.545451 43.9181239,134.440441 C43.0552489,134.341806 42.1953739,134.218418 41.332124,134.127284 C40.640249,134.054527 40.627499,134.068779 40.625999,134.749097 C40.620749,137.265973 40.624124,139.78285 40.624124,142.300101 C40.624124,143.289075 40.620749,144.277674 40.624874,145.266648 C40.628624,146.079729 40.633124,146.075229 41.473499,146.164113 C42.3959989,146.261623 43.3158739,146.38501 44.2394989,146.468643 C46.1456238,146.640785 48.0356238,147.006072 49.9623738,146.937065 C50.6549987,146.912313 51.3299987,146.833555 51.9903737,146.609282 C54.0941236,145.895211 53.9658737,143.795001 52.9938737,142.702142 C52.4849987,142.130209 51.8437487,141.759672 51.1451237,141.465643 C50.8514987,141.342256 50.5064987,141.326879 50.1528737,140.999471" id="path34" fill="#FFFFFF"></path>
                        <path d="M156.613871,141.946441 C155.305496,142.133585 154.069121,142.315103 152.830871,142.48387 C152.552246,142.521749 152.453996,142.682265 152.346371,142.923789 C151.842371,144.051527 150.110996,144.686465 148.979996,144.18429 C148.273496,143.870758 148.165871,143.323954 148.717121,142.771899 C149.084246,142.403612 149.554871,142.194716 150.035621,142.025574 C151.078496,141.658037 152.131496,141.317878 153.174746,140.951092 C154.108871,140.622934 155.020871,140.244146 155.806496,139.621209 C156.677246,138.93039 157.159121,138.049051 157.174871,136.914938 C157.189121,135.876084 156.724871,135.144761 155.840246,134.644836 C155.009621,134.175289 154.093871,134.004272 153.165371,133.962643 C150.983996,133.864383 148.868621,134.227419 146.833496,135.021749 C146.103371,135.306402 145.436621,135.707317 144.869621,136.258622 C144.060371,137.045826 143.674496,137.988295 143.727371,139.119408 C144.996746,138.944641 146.260871,138.769498 147.524996,138.597356 C147.716996,138.571104 147.870371,138.505847 147.919121,138.296576 C148.235996,136.93594 149.322371,136.631785 150.482996,136.42964 C150.962996,136.346006 151.446371,136.362508 151.911371,136.48552 C152.780996,136.716168 152.968871,137.478619 152.332871,138.119934 C151.918871,138.537725 151.378496,138.73687 150.846746,138.93114 C149.780246,139.320804 148.697621,139.667338 147.628871,140.052502 C146.924996,140.306402 146.227121,140.591056 145.603496,141.009222 C144.698246,141.617533 144.056246,142.412613 143.938496,143.550851 C143.823371,144.669963 144.310871,145.633435 145.296371,146.173114 C145.855871,146.479519 146.465996,146.652037 147.093371,146.700791 C149.302121,146.872184 151.457996,146.600281 153.536246,145.813453 C154.296371,145.525424 155.005871,145.14101 155.603996,144.575079 C156.315371,143.902262 156.717371,143.104182 156.613871,141.946441" id="path36" fill="#FFFFFF"></path>
                        <path d="M55.8419986,135.559178 C55.7651236,135.894461 55.9511236,136.083105 56.0497486,136.289376 C57.7946236,139.932865 59.5608735,143.565853 61.2854985,147.219093 C61.5539985,147.78765 61.8761235,147.989045 62.4993734,147.995421 C63.7559984,148.008547 65.0126234,148.110932 66.2666233,148.205067 C66.6674983,148.23582 66.9243733,148.164563 67.1313733,147.773399 C69.0494983,144.149036 70.9882482,140.53555 72.9187482,136.917938 C72.9449982,136.869183 72.9431232,136.805427 72.9716232,136.661413 C72.0873732,136.592406 71.2109982,136.519649 70.3346232,136.457392 C69.8264983,136.421389 69.3119983,136.43864 68.8106233,136.364008 C68.3647483,136.297251 68.1551233,136.464893 68.0043733,136.860558 C67.8344983,137.306852 67.5907483,137.724644 67.4103733,138.167563 C67.2809983,138.48672 67.0991233,138.626234 66.7383733,138.600357 C64.9158734,138.469468 63.0922484,138.352832 61.2678735,138.248196 C60.9641235,138.230945 60.8651235,138.059553 60.7724985,137.824029 C60.5636235,137.295226 60.3401235,136.772424 60.1271235,136.244746 C60.0363735,136.019349 59.9576235,135.796951 59.6549985,135.780075 C58.3811235,135.709568 57.1072486,135.63306 55.8419986,135.559178" id="path38" fill="#FFFFFF"></path>
                        <path d="M123.845622,141.341506 C121.913247,141.407887 119.998497,141.478769 118.082997,141.538775 C116.870997,141.576654 117.020997,141.748796 117.023997,140.546051 C117.025497,140.072754 116.817372,139.480945 117.121122,139.153537 C117.463122,138.7845 118.085997,139.005772 118.584747,138.983645 C120.381747,138.904137 122.179122,138.83738 123.977247,138.794251 C124.385997,138.784125 124.594872,138.695991 124.552122,138.241821 C124.499622,137.68039 124.776747,136.967443 124.442247,136.589406 C124.089747,136.190741 123.368997,136.476894 122.813622,136.495271 C119.727747,136.596156 116.642247,136.721044 113.557122,136.840306 C112.732122,136.872184 112.726122,136.875934 112.725372,137.698766 C112.723122,141.177989 112.722747,144.657212 112.726122,148.136435 C112.726872,148.867008 112.736247,148.886885 113.463747,148.861382 C116.938497,148.73987 120.413622,148.610857 123.888372,148.473594 C124.529622,148.448091 124.532247,148.425964 124.546122,147.805652 C124.553997,147.445616 124.515372,147.08183 124.555122,146.726669 C124.611372,146.218118 124.370997,146.125859 123.930372,146.143861 C121.952997,146.224869 119.975622,146.284875 117.998247,146.352382 C117.818247,146.358757 117.638247,146.357632 117.458622,146.370008 C117.174747,146.389885 116.987997,146.310002 117.019122,145.979219 C117.022122,145.949591 117.017247,145.919213 117.018747,145.88921 C117.049497,145.263648 116.768247,144.483945 117.125997,144.051902 C117.500247,143.599606 118.308372,143.875634 118.925622,143.844506 C120.422247,143.768748 121.920372,143.710242 123.418497,143.671239 C123.800997,143.661113 123.968997,143.54035 123.940497,143.151062 C123.897372,142.560377 124.021122,141.958817 123.845622,141.341506" id="path40" fill="#FFFFFF"></path>
                        <path d="M25.0713744,167.455366 C25.0713744,166.567653 25.0711119,165.680314 25.0713744,164.792975 C25.0715244,163.772873 25.0823619,162.752771 25.0671369,161.733044 C25.0611369,161.331754 25.2143619,161.206867 25.6061994,161.254496 C26.6164868,161.377134 27.6298868,161.473893 28.6289243,161.579654 C28.8474743,161.463017 28.7975243,161.266123 28.7976743,161.098481 C28.8017618,158.578604 28.7926868,156.058352 28.8082118,153.538475 C28.8111368,153.077929 28.7227868,152.875034 28.1901743,152.807527 C24.1524744,152.295226 20.117587,151.757797 16.0877996,151.18699 C13.0958622,150.763573 10.1125497,150.279774 7.12574982,149.820353 C6.40327484,149.708967 6.34893734,149.740095 6.34747484,150.456042 C6.34248734,152.88591 6.34263734,155.316153 6.34773734,157.746021 C6.34923734,158.454091 6.36018734,158.453341 7.09278732,158.578229 C7.8304873,158.703866 8.56788729,158.832504 9.30569977,158.958517 C10.0744497,159.090155 10.0779747,159.089405 10.0782747,159.94224 C10.0795872,163.932264 10.0788747,167.922288 10.0788747,171.912687 C10.0788747,173.859132 10.0788747,175.805951 10.0788747,177.854781 C9.01976227,177.693515 8.0301373,177.544625 7.04092482,177.391235 C6.45791234,177.300851 6.43477484,177.301226 6.43271234,177.914412 C6.42464984,180.464292 6.44268734,183.014547 6.41819984,185.564427 C6.41324984,186.078603 6.62681233,186.229368 7.08356232,186.296125 C11.3512122,186.921312 15.6127496,187.588504 19.892587,188.128558 C23.4895119,188.581978 27.0814493,189.080028 30.6845242,189.478318 C33.5425867,189.794475 36.3941991,190.209641 39.276749,190.264022 C40.243874,190.282023 41.189624,190.111006 42.1136239,189.84848 C44.5668739,189.15016 45.9926239,187.475993 46.6001238,185.046125 C46.6364988,184.901361 46.6623738,184.752096 46.6766238,184.603206 C46.9136238,182.089704 46.9683738,179.554826 46.6987488,177.061952 C46.4306238,174.581829 44.8293739,172.837904 42.7076239,171.599156 C42.0363739,171.206866 41.325749,170.882459 40.637624,170.518298 C40.376249,170.380284 40.076999,170.298526 39.849374,170.014247 C40.408124,169.402186 40.968374,168.785624 41.531624,168.172063 C42.8699989,166.713917 44.2181239,165.264397 45.5418739,163.793125 C45.8313739,163.471343 46.1141238,163.348706 46.5528738,163.397836 C47.5353738,163.507722 48.5249988,163.550476 49.5112488,163.629234 C49.8539988,163.656612 50.0669987,163.610482 50.0643737,163.173188 C50.0493737,160.593305 50.0493737,158.013047 50.0666237,155.433164 C50.0692487,155.029624 49.8854988,154.900611 49.5431238,154.871733 C48.9461238,154.821853 48.3483738,154.777224 47.7517488,154.725094 C46.0207488,154.573578 44.2916239,154.396936 42.5587489,154.271298 C40.202624,154.100656 38.065124,154.796351 36.0726741,156.007722 C34.8062991,156.777674 33.7009117,157.73927 32.7334117,158.857632 C30.5160742,161.421013 28.3054868,163.990395 26.0912243,166.556026 C25.8077619,166.884934 25.5188994,167.208592 25.2325119,167.534874 C25.1786244,167.508247 25.1249994,167.481619 25.0713744,167.455366" id="path42" fill="#0C2950"></path>
                        <path d="M113.593122,156.363632 C109.186872,156.453266 104.780622,156.535775 100.374372,156.634785 C98.3223725,156.680914 96.4173726,157.249471 94.7036226,158.385835 C92.3238727,159.963992 91.3128727,162.278349 91.2944977,165.054001 C91.2652477,169.523323 91.2862477,173.993395 91.2862477,178.462717 C91.2862477,180.502546 91.2123727,182.54575 91.3038727,184.581454 C91.4493727,187.828528 92.8042477,190.410286 95.7772476,191.964442 C97.4662476,192.84728 99.3108725,193.10043 101.181372,193.072302 C105.468372,193.007421 109.754247,192.893785 114.040497,192.785399 C118.446747,192.673638 122.851497,192.526998 127.253247,192.292599 C127.957497,192.255096 127.964622,192.246845 127.965372,191.511021 C127.968372,188.15106 127.965747,184.791475 127.967247,181.431889 C127.967622,180.703941 128.017872,180.701691 127.210122,180.726443 C123.434622,180.84308 119.659122,180.972093 115.883247,181.077478 C115.472997,181.089104 115.373622,181.24887 115.388997,181.616782 C115.409622,182.125708 115.397997,182.636509 115.392372,183.146185 C115.384872,183.855381 115.381872,183.872258 114.639747,183.89101 C112.931247,183.934514 111.222372,183.960766 109.513872,183.994145 C108.704247,184.009896 107.894622,184.017772 107.085747,184.047775 C106.747497,184.060526 106.575372,183.94764 106.594497,183.59248 C106.604247,183.413212 106.594872,183.232444 106.594872,183.052426 C106.594497,177.44299 106.594497,171.833554 106.594497,166.224118 C106.594497,166.104106 106.608747,165.982219 106.592997,165.864457 C106.526622,165.375408 106.766247,165.268898 107.214372,165.261772 C109.732497,165.221268 112.250247,165.159012 114.767997,165.087005 C115.204122,165.074628 115.416747,165.160512 115.403997,165.666062 C115.371747,166.955066 115.370622,168.245945 115.404372,169.534949 C115.417872,170.044625 115.200372,170.118133 114.768372,170.114757 C113.449122,170.104256 112.129122,170.122258 110.809872,170.144385 C110.178372,170.154886 110.163747,170.169888 110.161872,170.799951 C110.155497,173.13981 110.170122,175.480044 110.150247,177.819528 C110.146122,178.284574 110.276622,178.436464 110.755497,178.422213 C114.562122,178.310077 118.368747,178.221943 122.175372,178.127058 C123.854247,178.085054 125.532747,178.04755 127.211247,178.002546 C127.966122,177.982294 127.978497,177.975918 127.978872,177.276848 C127.982247,170.407662 127.982622,163.5381 127.978497,156.668538 C127.978122,155.997596 127.960122,155.984845 127.350372,155.999471 C122.764872,156.110482 118.178622,156.225244 113.593122,156.33888 C113.593122,156.347131 113.593122,156.355382 113.593122,156.363632" id="path44" fill="#0C2950"></path>
                        <path d="M191.225245,174.577328 C190.08262,174.731469 188.926495,174.881109 187.772245,175.044625 C185.40262,175.380284 183.03337,175.721193 180.664495,176.063977 C179.923871,176.170863 179.187746,176.313377 178.444871,176.392885 C178.088246,176.430764 177.986621,176.584529 177.999371,176.906686 C178.012871,177.235969 178.001996,177.566377 178.001246,177.89641 C177.998621,178.84413 177.997496,178.834754 177.013496,178.94164 C176.329121,179.015897 175.648496,179.120158 174.966371,179.211667 C173.423621,179.417937 171.881996,179.627208 170.338871,179.828603 C170.107121,179.858606 169.870496,179.852606 169.550246,179.867232 C169.550246,178.398585 169.550621,176.964817 169.549871,175.531424 C169.549496,175.270398 169.686746,175.181889 169.937996,175.150761 C171.811121,174.918237 173.683121,174.680089 175.553246,174.428063 C178.194746,174.071778 180.851995,173.822378 183.47587,173.34608 C185.02162,173.065552 186.48262,172.523623 187.77487,171.611907 C190.189495,169.908112 191.48962,167.597506 191.49337,164.608082 C191.49637,162.178214 191.497495,159.748721 191.49187,157.318853 C191.48887,155.976969 191.20012,154.708967 190.51912,153.5351 C189.614995,151.976819 188.19187,151.153987 186.51712,150.715943 C185.078245,150.33978 183.614995,150.361532 182.14687,150.577554 C180.19312,150.865208 178.236371,151.132609 176.279246,151.396636 C173.728496,151.74092 171.177371,152.079954 168.624371,152.409237 C166.517246,152.681514 164.407871,152.93879 162.298871,153.198316 C160.219496,153.454467 158.140121,153.709492 156.059246,153.954017 C155.597996,154.008022 155.403371,154.189915 155.406371,154.695466 C155.428121,158.114683 155.414996,161.534649 155.420996,164.954241 C155.421746,165.635684 155.443496,165.661562 156.145496,165.582429 C159.004121,165.262522 161.860496,164.927239 164.718371,164.597956 C165.998246,164.450566 167.278121,164.305051 168.557996,164.157287 C169.181621,164.084904 169.187621,164.083779 169.198871,163.44509 C169.208246,162.905411 169.236371,162.362357 169.190621,161.826054 C169.149746,161.342255 169.376246,161.197491 169.795871,161.146486 C171.311996,160.962342 172.827746,160.765823 174.343121,160.570803 C175.144871,160.467668 175.946246,160.358532 176.747621,160.250146 C177.602996,160.134259 177.620996,160.143635 177.623996,160.967218 C177.628496,162.227344 177.629246,163.487095 177.623621,164.746846 C177.620246,165.461667 177.614996,165.476293 176.888621,165.574553 C175.820996,165.718943 174.749621,165.836705 173.680871,165.972093 C171.453746,166.254121 169.228496,166.546275 167.000996,166.823428 C165.605621,166.996695 164.201621,167.108457 162.824996,167.412237 C161.255246,167.758022 159.808496,168.385084 158.524121,169.360182 C156.425621,170.952966 155.377871,173.101181 155.327621,175.707691 C155.278871,178.256821 155.303996,180.807451 155.327621,183.356581 C155.345996,185.325153 156.201746,186.878933 157.814246,187.99542 C159.284996,189.012897 160.959371,189.429563 162.719996,189.54695 C163.983746,189.631708 165.234371,189.473068 166.483121,189.311051 C170.017496,188.851255 173.553746,188.400085 177.084746,187.912162 C180.64462,187.420112 184.199245,186.887934 187.75612,186.373383 C188.76412,186.227868 189.770995,186.075978 190.78087,185.943965 C191.126245,185.898585 191.318995,185.787574 191.318995,185.389659 C191.31862,181.85043 191.33287,178.311202 191.34112,174.772348 C191.34112,174.746845 191.312245,174.721343 191.225245,174.577328" id="path46" fill="#0C2950"></path>
                        <path d="M74.7742481,192.641009 C79.060123,192.7989 83.3456229,192.956416 87.6341228,193.009296 C89.0103728,193.026173 88.7639978,193.157061 88.7703728,191.874058 C88.7846228,188.933764 88.7748728,185.993845 88.7744978,183.053551 C88.7744978,182.84353 88.7707478,182.633509 88.7718728,182.423488 C88.7733728,182.177088 88.6852478,182.018072 88.4084978,182.027073 C88.3188728,182.030448 88.2284978,182.024823 88.1384978,182.022573 C85.1107479,181.945315 82.0829979,181.866182 79.054873,181.79155 C78.401248,181.775423 78.422248,181.784799 78.371248,182.406236 C78.330748,182.899035 78.626623,183.557226 78.190498,183.838879 C77.8612481,184.051526 77.2683731,183.857631 76.7928731,183.84113 C74.5454981,183.763872 72.2977482,183.685114 70.0499982,183.607481 C69.3517483,183.583479 69.3404983,183.584229 69.3371233,182.925663 C69.3296233,181.515522 69.3284983,180.105381 69.3378733,178.69524 C69.3416233,178.098555 69.3629983,178.09068 69.9453733,178.116557 C71.0238732,178.165312 72.1027482,178.206941 73.1801232,178.269948 C73.7969982,178.305951 73.7966232,178.322453 73.8127482,178.963767 C73.8164982,179.113782 73.8127482,179.263797 73.8134982,179.413812 C73.8187482,180.257646 73.8183732,180.272648 74.7037481,180.302276 C77.1911231,180.385909 79.679248,180.461292 82.1673729,180.529173 C82.9447479,180.550551 82.9522479,180.535549 82.9529979,179.74797 C82.9556229,176.327628 82.9556229,172.907286 82.9529979,169.486944 C82.9522479,168.701616 82.9447479,168.702741 82.1759979,168.675738 C79.658998,168.585729 77.1419981,168.49497 74.6246231,168.405336 C73.8551232,168.378334 73.8547482,168.379834 73.8453732,169.184664 C73.8318732,170.332654 73.8314982,170.342405 72.7061232,170.2959 C71.7479982,170.256146 70.7909982,170.163887 69.8324983,170.14701 C69.3551233,170.13876 69.3097483,169.906986 69.3134983,169.526323 C69.3273733,168.176188 69.3374983,166.825678 69.3086233,165.476293 C69.2984983,164.997371 69.4559983,164.852981 69.9228733,164.876609 C72.0191232,164.982744 74.1168731,165.063002 76.2138731,165.154886 C76.7231231,165.177389 77.2338731,165.250146 77.7404981,165.224268 C78.244873,165.198766 78.328498,165.423413 78.325123,165.858832 C78.321748,166.2965 78.110623,166.851931 78.442498,167.147836 C78.755998,167.427614 79.303498,167.277599 79.746748,167.294475 C82.4733729,167.396485 85.2003729,167.488745 87.9281228,167.567503 C88.7163728,167.59038 88.7242478,167.565252 88.7253728,166.798676 C88.7283728,163.708367 88.7279978,160.618058 88.7253728,157.527749 C88.7246228,156.79155 88.7186228,156.778424 87.9296228,156.751046 C84.6633729,156.63741 81.395998,156.547401 78.130123,156.420263 C74.5353731,156.280374 70.9413732,156.111607 67.3477483,155.949591 C65.9999984,155.888835 64.6518734,155.857707 63.3041234,155.771073 C59.6546235,155.53705 56.0017486,155.355907 52.3496237,155.158637 C51.6577487,155.121133 51.6449987,155.131259 51.6434987,155.7872 C51.6386237,158.247446 51.6382487,160.707692 51.6442487,163.167938 C51.6457487,163.772873 51.6596237,163.776999 52.2907487,163.829879 C52.9777487,163.886885 53.6651237,163.954766 54.3536236,163.981394 C54.7211236,163.996021 54.9213736,164.102156 54.8834986,164.502696 C54.8669986,164.681589 54.8816236,164.862732 54.8816236,165.04275 C54.8816236,170.593305 54.8816236,176.14386 54.8816236,181.694415 C54.8816236,181.814427 54.8834986,181.934439 54.8812486,182.054451 C54.8673736,182.730643 54.8666236,182.747145 54.1818736,182.716767 C53.4337487,182.683389 52.6878737,182.601631 51.9397487,182.566377 C51.3374987,182.538249 51.3183737,182.554376 51.3168737,183.125558 C51.3097487,185.675813 51.3097487,188.226068 51.3172487,190.776323 C51.3191237,191.436764 51.3356237,191.446515 52.0439987,191.49377 C53.0909987,191.563902 54.1387486,191.626908 55.1872486,191.678288 C60.4882485,191.939689 65.7896234,192.195465 71.0909982,192.454241 C72.3191232,192.514247 73.5464982,192.578753 74.7742481,192.641009" id="path48" fill="#0C2950"></path>
                        <path d="M149.434871,172.665762 C149.434871,169.785474 149.433371,166.905561 149.435996,164.025648 C149.436746,163.305576 149.442746,163.299951 150.142871,163.239195 C150.889496,163.174313 151.636496,163.106807 152.384621,163.068553 C152.792621,163.047551 152.962871,162.893035 152.960621,162.465117 C152.947121,159.915238 152.950871,157.365358 152.957246,154.815103 C152.958371,154.423188 152.817746,154.309552 152.414996,154.33993 C147.933371,154.679714 143.450996,155.017248 138.966372,155.319528 C136.424247,155.491295 133.877997,155.596681 131.333622,155.732069 C130.647747,155.768448 130.633122,155.768073 130.631247,156.442015 C130.624872,158.871883 130.629372,161.301751 130.628622,163.731619 C130.628247,164.463317 130.657122,164.408562 131.337372,164.39506 C132.176997,164.377809 133.016622,164.372183 133.855872,164.34218 C134.199372,164.329804 134.357622,164.447566 134.327247,164.801601 C134.311872,164.980494 134.325372,165.161262 134.325372,165.34128 C134.325747,170.921088 134.326872,176.501271 134.324622,182.081079 C134.324247,183.245195 134.384997,183.025423 133.387872,183.088054 C132.670122,183.133059 131.952747,183.234319 131.235372,183.230568 C130.726872,183.227943 130.652247,183.45034 130.655622,183.878633 C130.670247,185.79845 130.661247,187.718267 130.661622,189.638459 C130.661622,190.298525 130.674372,190.958591 130.658247,191.618282 C130.649622,191.961441 130.764372,192.107706 131.122122,192.077328 C131.599497,192.036449 132.080247,192.034199 132.559122,192.003821 C135.012747,191.847055 137.465997,191.686539 139.919247,191.527523 C143.209871,191.314877 146.500871,191.101855 149.791871,190.890334 C150.659621,190.834454 151.527371,190.774448 152.395871,190.738069 C152.828621,190.720067 153.017621,190.587679 153.012746,190.09788 C152.986496,187.517997 152.991371,184.937739 153.009371,182.357856 C153.012746,181.914187 152.870246,181.773923 152.438621,181.821553 C151.754246,181.89656 151.066121,181.949065 150.378371,181.986569 C149.293871,182.045075 149.437871,182.078828 149.436371,181.035474 C149.431871,178.245195 149.434871,175.455666 149.434871,172.665762" id="path50" fill="#0C2950"></path>
                        <path d="M102.563247,18.5759446 C101.398497,17.9174163 100.224372,17.274302 99.0742475,16.5913212 C98.6677475,16.3501721 98.3426225,16.3340455 97.9286226,16.5774073 C96.9543726,17.1505021 95.9594976,17.6894685 94.9571226,18.2126083 C94.5686226,18.415091 94.2813726,18.6817052 94.0991226,19.0718192 C93.3952477,19.7363481 93.1533727,20.6641159 92.7806227,21.5009371 C88.8029978,30.4256668 84.8103729,39.3433083 80.823748,48.2643252 C78.316498,53.873761 75.7552481,59.4603195 73.3304982,65.1057589 C71.2653732,69.9133646 71.0868732,74.808354 73.1201232,79.7059686 C73.3383732,80.2321462 73.5468732,80.7620742 73.7549982,81.2927522 C73.9608732,81.8189298 73.8123732,82.0038233 73.2352482,81.9288158 C71.3339982,81.6820412 69.4304983,81.4540184 67.5224983,81.2612491 C64.8123734,80.9874717 62.0988734,80.7635743 59.3823735,80.5550535 C54.6314986,80.190517 49.8794988,79.9617442 45.1143739,80.0427523 C44.7896239,80.0483778 44.4532489,79.9666197 44.1446239,80.1410121 C43.7433739,80.1995179 43.5341239,80.3694099 43.5573739,80.8374567 C43.5922489,81.5537783 43.5318739,82.2742254 43.5314989,82.9927972 C43.5292489,93.8351312 43.5299989,104.67784 43.5299989,115.520174 C43.5299989,115.639811 43.5521239,115.764699 43.5262489,115.87871 C43.4186239,116.353882 43.7384989,116.493396 44.0853739,116.617534 C44.8638739,117.097207 45.7582489,117.049952 46.6031238,117.070204 C49.9601238,117.151212 53.3039987,116.869559 56.6486236,116.608533 C59.3669985,116.396637 62.0782484,116.120609 64.7891234,115.83333 C65.4922484,115.758698 66.1087483,115.591431 66.3206233,114.826355 C67.2356233,111.526025 68.4783733,108.344582 69.7878733,105.186391 C69.8223733,105.103133 69.8366233,105.013499 69.8564983,104.926115 C69.8924983,104.811354 70.0154982,104.963994 69.9119983,104.903613 C69.8954983,104.894237 69.8774983,104.917114 69.8594983,104.972995 C69.3716233,106.491897 69.1544983,108.069304 68.8713733,109.631335 C67.7587483,115.769574 66.9209983,121.946067 66.3044983,128.153312 C66.2726233,128.477345 66.1769983,128.811503 66.4271233,129.099532 C67.2907483,129.380435 68.1952483,129.338806 69.0806233,129.396561 C76.5014981,129.87961 83.9324979,130.153012 91.3676227,130.275649 C97.3349976,130.373909 103.302372,130.309028 109.269372,130.166513 C115.325622,130.021749 121.375872,129.761848 127.420872,129.386435 C132.296997,129.083405 137.168247,128.694491 142.031246,128.211818 C145.461746,127.871284 148.885121,127.476744 152.306246,127.058953 C153.342371,126.932565 153.341996,126.925814 153.341996,125.879835 C153.342371,122.669889 153.327371,119.459943 153.355871,116.250372 C153.360746,115.68144 153.166121,115.417414 152.657246,115.190891 C146.610746,112.498122 140.416121,110.189766 134.165247,108.02805 C120.306372,103.235071 106.246872,99.0995325 92.1052477,95.2362712 C87.4882478,93.9746451 82.8727479,92.7066433 78.182623,91.7319209 C74.3429981,90.9342161 70.4861232,90.2370214 66.6108733,89.632461 C63.2369984,89.1062834 59.8499985,88.682116 56.4633736,88.2511979 C55.9796236,88.1896918 55.4591236,88.2939522 54.8921236,87.9725451 C56.5188736,87.5108739 58.0664985,87.4096138 59.6099985,87.3556084 C62.8244984,87.2442222 66.0187483,87.5483776 69.2054983,87.9369165 C78.718123,89.0976575 87.9453728,91.5676545 97.1643726,94.0616538 C115.828872,99.1104086 134.251122,104.939991 152.504996,111.309253 C152.756621,111.397012 152.996621,111.52415 153.279371,111.506898 C153.397871,111.213994 153.338621,110.913589 153.338996,110.621059 C153.343496,106.721419 153.340871,102.821405 153.343496,98.9217647 C153.343871,98.4724698 153.366371,98.0224248 153.378746,97.5731299 C153.533996,96.4405166 153.402746,95.3011527 153.447746,94.1662893 C153.463871,93.7616238 153.266996,93.7064933 152.941496,93.8396316 C152.717246,93.9311408 152.524121,94.0744051 152.329121,94.2142941 C150.710996,95.3791605 148.921871,96.2098686 147.092996,96.984696 C145.564871,97.6312607 144.065246,97.5693795 142.478621,97.094207 C142.588121,96.7502976 142.903871,96.6055331 143.105996,96.3748851 C143.825996,95.553553 144.494621,94.6943421 144.577496,93.5583535 C144.673496,92.2517229 143.911871,91.5935321 142.623371,91.8264303 C141.823121,91.9711948 141.059246,92.2449722 140.310371,92.5566283 C139.088997,93.0651792 137.843997,93.5028479 136.548372,93.7758752 C135.627747,93.9701447 134.702622,94.0170244 133.799997,93.6776154 C133.517997,93.5718548 133.207497,93.4360913 133.158747,93.1056832 C133.111122,92.782776 133.430247,92.6687646 133.646247,92.522875 C134.425497,91.9970724 135.053622,91.3100037 135.676872,90.6206848 C136.020372,90.2411469 136.296747,89.8076035 136.455747,89.3148042 C136.717122,88.5035981 136.341372,88.0955574 135.494997,88.2658244 C135.229122,88.3190797 134.978997,88.4237152 134.732247,88.5343512 C132.823872,89.3916869 130.803372,89.8091037 128.743872,90.0885066 C128.111997,90.1747652 127.814997,90.0517529 127.838622,89.3080536 C127.891497,87.6125091 127.855122,87.6136342 129.462747,87.2723501 C129.902622,87.1789657 130.343247,87.0807059 130.766997,86.9284407 C131.111997,86.8046783 131.478372,86.6456624 131.469747,86.2128691 C131.462247,85.8232052 131.110122,85.6919421 130.799622,85.57118 C129.780747,85.1751404 128.696247,85.0971326 127.630122,84.9384917 C124.361997,84.4505679 121.147497,83.7147444 117.953247,82.8799109 C117.779247,82.8341563 117.605997,82.7831512 117.442122,82.7077687 C117.251622,82.620385 117.025497,82.5397519 117.008997,82.2978527 C116.990997,82.0417021 117.225372,81.960694 117.410247,81.8725602 C117.979497,81.600658 118.552497,81.3328813 119.041872,80.9278408 C119.848497,80.259899 119.813247,79.7217202 118.934997,79.1775408 C117.649122,78.3813362 116.202747,78.0633044 114.734622,77.9706701 C112.041372,77.8000281 109.341747,77.859659 106.642872,77.9500431 C103.363122,78.059929 100.774122,79.6238354 98.3962475,81.7154195 C97.0004976,82.9429172 95.5979976,84.1632892 94.1947476,85.3821611 C93.5778727,85.9177146 93.3532477,85.9177146 93.1012477,85.1725151 C91.8569977,81.4885218 89.8188728,78.1701901 88.2892478,74.6170848 C87.1852478,72.0522034 85.7013729,69.6767159 84.2058729,67.3203554 C83.3358729,65.9495933 83.0306229,64.5285762 83.8807479,63.0809315 C84.7286229,61.6377872 86.0936228,61.1641149 87.7503728,61.055729 C90.6389977,60.8663351 93.3453727,61.5320267 96.0314976,62.425366 C98.2859975,63.175441 100.557372,63.2493234 102.855372,62.6548889 C103.609872,62.4594944 104.365122,62.2629747 105.126372,62.0938328 C105.713247,61.9633198 106.304622,61.8643099 106.908747,62.0019486 C108.126747,62.2791014 108.662997,63.115435 108.389997,64.3369321 C108.218622,65.1053839 107.842872,65.7943278 107.540622,66.5125246 C107.428497,66.7780511 107.260497,67.1050838 107.528997,67.3484832 C107.786997,67.5828816 108.108747,67.4373671 108.373497,67.2997283 C113.246247,64.765975 116.909622,61.2308716 118.027122,55.5974334 C118.205247,54.7003437 118.199247,53.8073794 117.909372,52.9305417 C117.814497,52.642888 117.699372,52.3462333 117.356247,52.2809768 C116.965122,52.2063443 116.733747,52.4669954 116.567997,52.7602747 C116.057622,53.663365 115.333122,54.3819368 114.584997,55.0753812 C113.556747,56.0291015 112.373622,56.433767 110.949747,56.1363622 C106.461372,55.1983935 102.348747,53.3472084 98.3726225,51.0369774 C101.113872,50.8558343 103.640247,49.9883726 106.094997,48.9131401 C108.595872,47.8180306 111.210747,47.2130951 113.903997,46.8901878 C114.443997,46.8253064 114.977622,46.8688107 115.496247,47.0747063 C115.966122,47.26185 116.487747,47.3031041 116.858997,46.9355674 C118.229997,45.5775566 119.080872,43.971271 119.014497,41.980197 C119.007372,41.7773017 118.988997,41.5237763 118.762122,41.4457685 C118.507497,41.3583848 118.371372,41.5984088 118.291872,41.770176 C117.340497,43.8291318 115.452747,44.0845324 113.532747,44.2139203 C110.301747,44.431442 107.067747,44.1347874 103.833747,44.2135452 C101.797122,44.2630502 99.7676225,44.5045743 97.7253726,44.4096899 C96.8684976,44.3703109 96.0536226,44.2262965 95.3219976,43.7687508 C94.8596226,43.4799719 94.5708726,43.0460535 94.6469976,42.4891229 C94.7189976,41.960695 95.2248726,41.9359425 95.6167476,41.8313071 C100.846497,40.440293 106.158747,39.530077 111.555747,39.1149105 C111.874872,39.0905331 112.267872,39.1332874 112.377372,38.7237464 C112.473747,38.3640854 112.240122,38.0936834 111.983997,37.8724113 C111.253497,37.2404731 110.350122,36.9892355 109.440372,36.7967288 C107.792622,36.4491065 106.165497,36.0377279 104.620497,35.3581224 C103.041747,34.6647531 101.581497,33.7935035 100.481247,32.4205287 C98.4663725,29.9070275 98.1716225,27.1640032 99.4057475,24.2285848 C100.107747,22.5592554 101.066247,21.0388534 102.160872,19.6009971 C102.389997,19.3005171 102.728247,19.0346155 102.563247,18.5759446" id="path52" fill="#0C2950"></path>
                        <path d="M102.563247,18.5759446 C102.495372,18.9218042 102.221622,19.1336629 102.023622,19.3916512 C100.778622,21.0167637 99.7023725,22.7340228 98.9692475,24.6606279 C97.6256226,28.1938937 98.8683725,31.5923709 101.435247,33.7365353 C103.155747,35.173679 105.197622,35.9368053 107.311497,36.5409532 C108.086997,36.7626003 108.886122,36.9022268 109.672122,37.0873828 C110.315622,37.2385979 110.942997,37.4400306 111.508497,37.7944035 C111.859872,38.0141755 112.183872,38.2643255 112.321122,38.7736264 C111.428247,38.8636354 110.605122,38.949519 109.780872,39.0290269 C105.210747,39.4689459 100.700247,40.2490239 96.2557476,41.4048895 C95.7918726,41.5252765 95.3336226,41.6677907 94.8682476,41.7810521 C94.4336226,41.8875627 94.3098726,42.1688408 94.3364976,42.5825072 C94.3788726,43.2358225 94.6901226,43.7229962 95.2387476,44.0489038 C95.9501226,44.4719461 96.7338726,44.6650904 97.5584976,44.6478387 C99.5966225,44.6054594 101.634372,44.5233262 103.672497,44.500824 C106.250622,44.4723211 108.828747,44.4321921 111.407622,44.5675806 C112.723872,44.6365875 114.043122,44.4944483 115.342497,44.2491738 C116.741622,43.9855225 117.878997,43.3562095 118.436622,41.950194 C118.489122,41.8163056 118.576497,41.6966686 118.757997,41.3741364 C118.853997,42.0840824 118.855497,42.5956335 118.743747,43.1034343 C118.454622,44.4194408 117.809997,45.5629302 116.979372,46.6059094 C116.596122,47.0867075 116.151372,47.181592 115.543497,46.8384327 C115.144497,46.6126601 114.757872,46.5770315 114.338997,46.6141603 C111.484872,46.8691857 108.722247,47.4902478 106.094247,48.6599898 C104.007372,49.5889577 101.852622,50.2981536 99.5917475,50.6765664 C98.9797475,50.7793267 98.3594975,50.6919429 97.6488726,50.8085796 C98.2799975,51.3148802 98.9163725,51.6340371 99.5324975,51.9753212 C103.168122,53.9877724 106.970622,55.5629299 111.060372,56.404139 C112.231122,56.644538 113.265372,56.3928879 114.208872,55.7294466 C115.200372,55.0318768 116.005122,54.1452882 116.642247,53.1105597 C116.720622,52.983422 116.785497,52.8469084 116.865372,52.7205207 C116.957997,52.573131 117.022122,52.3758613 117.244872,52.3886126 C117.505122,52.402864 117.585747,52.6260113 117.642372,52.8187806 C117.778122,53.2782015 117.875622,53.7447481 117.883872,54.2311718 C117.910497,55.7973283 117.460497,57.2487234 116.824122,58.6513637 C116.138622,60.1616397 115.219122,61.5294014 114.190497,62.8240308 C114.024372,63.0336768 113.826747,63.2241958 113.620872,63.395963 C112.005747,64.7423476 110.310747,65.9750959 108.472872,67.0041987 C108.265122,67.1208354 108.048372,67.2243458 107.831247,67.3233557 C107.783997,67.3447328 107.716122,67.3203554 107.601747,67.3139797 C107.491497,66.9479431 107.710497,66.6486632 107.854872,66.3490082 C108.114747,65.8089543 108.398997,65.2827766 108.559122,64.6988433 C109.096872,62.7336468 107.980122,61.4225157 105.942747,61.6940429 C105.145122,61.8005535 104.353872,62.0000735 103.578372,62.2224707 C101.096622,62.935792 98.6414975,63.0077992 96.1481226,62.2115946 C94.6691226,61.7390474 93.1953727,61.2027437 91.6529977,60.9623447 C90.0479977,60.7129448 88.4088728,60.6308116 86.8113728,60.8603345 C83.2833729,61.3677602 82.3357479,64.936242 83.8057479,67.1493383 C86.0156228,70.4755458 87.8426228,74.01815 89.4483728,77.6755156 C89.8694978,78.6356116 90.3359977,79.5780808 90.8294977,80.5029233 C91.6514977,82.040952 92.2897477,83.6521131 92.8758727,85.2906519 C93.3022477,86.481771 93.3839977,86.4780206 94.3278726,85.62106 C96.3037476,83.8265056 98.3148725,82.0750805 100.412997,80.4211651 C102.050622,79.129911 103.897122,78.5155996 105.941247,78.2845765 C108.727122,77.9702951 111.514122,78.1161847 114.297747,78.1844415 C115.919997,78.2241955 117.508872,78.5812312 118.936872,79.4348165 C119.637747,79.8537334 119.657622,80.0570037 119.045997,80.6285608 C118.532247,81.1082338 117.896622,81.3790109 117.260997,81.6494129 C116.937747,81.7866766 116.483247,81.8658095 116.496372,82.2944774 C116.509122,82.7122692 116.960997,82.8157795 117.290247,82.9189148 C119.033622,83.4653444 120.817872,83.8568836 122.599497,84.2566736 C124.937622,84.781351 127.301997,85.1571386 129.671997,85.4987977 C130.120497,85.5633042 130.548372,85.6949424 130.962747,85.8730852 C131.128872,85.9443423 131.307747,86.041102 131.295372,86.2492478 C131.283372,86.4483927 131.104872,86.5361515 130.937997,86.6089087 C130.299747,86.8853114 129.618747,86.9951973 128.941122,87.1182096 C128.475372,87.2029681 128.007747,87.2764755 127.519872,87.3582336 C127.668372,88.3648343 127.755372,89.3144292 127.496247,90.2861514 C127.894497,90.5074235 128.320497,90.3874115 128.712747,90.3360313 C130.825872,90.0588786 132.908997,89.6553383 134.860872,88.7436221 C135.156372,88.6056083 135.478497,88.4990977 135.799122,88.4454673 C136.220997,88.3753353 136.406622,88.6086086 136.319997,89.0279006 C136.264497,89.2971775 136.129872,89.5300758 135.985497,89.7595987 C135.255372,90.92259 134.319747,91.87331 133.123122,92.5615038 C132.533247,92.9005377 132.518247,93.0749302 133.038372,93.5185995 C133.537872,93.943892 134.137872,94.1077834 134.780997,94.1479124 C135.906747,94.2184195 136.990872,94.0023979 138.046497,93.6453622 C138.953622,93.3389566 139.848747,92.9965473 140.741996,92.6511378 C141.470246,92.3691096 142.205621,92.1058333 142.982996,92.0176995 C143.938496,91.9093136 144.317621,92.253223 144.367121,93.2058183 C144.418871,94.203793 143.943371,94.993997 143.351996,95.7301956 C142.927496,96.2582484 142.403246,96.694417 141.749996,97.2603486 C143.566871,97.5570033 145.141496,98.0719297 146.833121,97.3518578 C148.963496,96.4450171 151.063121,95.5107987 152.912621,94.0927819 C153.005246,94.0215248 153.092246,93.9345161 153.312746,93.963019 C153.334871,95.1563883 153.356996,96.364384 153.378746,97.5731299 C153.608996,97.3192295 153.532496,97.003823 153.532871,96.7131689 C153.536621,91.3763854 153.598121,86.0384767 153.499871,80.7035683 C153.459371,78.5043485 153.088871,76.3133794 152.747621,74.1276609 C152.046371,69.6388371 150.123746,65.6450629 147.970871,61.725921 C146.034746,58.2020688 143.781746,54.8852372 141.358121,51.6872924 C139.894872,49.7569745 138.346497,47.891913 136.739997,46.0741063 C134.874372,43.9622701 132.936372,41.9228162 130.934997,39.9411181 C127.869372,36.9048521 124.626747,34.0714063 121.290747,31.3358453 C117.145122,27.9364679 112.801497,24.8128182 108.338622,21.8519346 C106.767747,20.810043 105.151497,19.8383208 103.565247,18.8189689 C103.247997,18.615061 102.946872,18.45477 102.563247,18.5759446" id="path54" fill="#C6C5C5"></path>
                        <path d="M44.1446239,80.1410121 C45.5208739,80.1848915 46.8967488,80.2516482 48.2733738,80.2685248 C51.9326237,80.3124042 55.5813736,80.5430523 59.2316235,80.7857016 C62.2522484,80.9867216 65.2627484,81.2841264 68.2732483,81.5792809 C70.0004982,81.7487978 71.7183732,82.0131993 73.4418732,82.2250955 C73.7291232,82.260724 74.0257481,82.3488578 74.3448731,82.1962176 C74.1168731,81.3223802 73.7433732,80.5040484 73.3919982,79.6853415 C71.2784982,74.7577239 71.5173732,69.847358 73.6312482,65.0255009 C77.1543731,56.9891975 80.774998,48.9960234 84.3532479,40.9837223 C87.5156228,33.9019268 90.6764977,26.8190062 93.8362477,19.7355981 C93.9333727,19.5184889 94.0121226,19.2934664 94.0991226,19.0718192 C93.1019977,19.4906611 92.2087477,20.0955591 91.2888727,20.650352 C83.0891229,25.5929337 75.6202481,31.4764844 68.7764983,38.1634404 C62.8214984,43.9821471 57.4106236,50.26215 52.7006237,57.134712 C48.2741238,63.5943578 45.5699989,70.7358218 44.3186239,78.4450925 C44.2274989,79.0046485 44.2012489,79.5754556 44.1446239,80.1410121" id="path56" fill="#FCD006"></path>
                        <path d="M66.4271233,129.099532 C66.6603733,127.106207 66.8913733,125.112508 67.1272483,123.119559 C67.5566233,119.490321 68.0722483,115.873084 68.6699983,112.267849 C69.1154983,109.58183 69.6131233,106.905563 70.2348732,104.112659 C69.8602483,104.416439 69.7826233,104.746847 69.6506233,105.032626 C68.1911233,108.191191 66.9607483,111.436016 66.0918733,114.807978 C65.9613734,115.313153 65.7236234,115.487546 65.2447484,115.537426 C59.8192485,116.103732 54.3911236,116.631785 48.9348738,116.803177 C47.3129988,116.853807 45.6997489,116.735671 44.0853739,116.617534 C44.0546239,119.818854 44.0313739,123.020549 43.9871239,126.221869 C43.9799989,126.720294 44.1719989,126.868809 44.6557489,126.932565 C48.3314988,127.414863 52.0113737,127.851782 55.7013736,128.210318 C59.0947485,128.539601 62.4877484,128.867008 65.8897484,129.094281 C66.0682483,129.106282 66.2478733,129.098407 66.4271233,129.099532" id="path58" fill="#FCD006"></path>
                        <path d="M133.819122,142.753147 C133.400997,142.776774 132.954372,142.800401 132.508497,142.828154 C132.220122,142.845781 132.092622,142.995796 132.104247,143.291326 C132.118497,143.648361 132.106872,144.006522 132.106872,144.364308 C132.106872,145.681064 132.107997,145.69119 133.462122,145.561803 C134.053122,145.505172 134.653497,145.510422 135.230622,145.330779 C135.517122,145.241896 135.797997,145.149636 136.029747,144.949741 C136.748247,144.329429 136.577997,143.28945 135.702747,142.924914 C135.100497,142.674389 134.469747,142.771899 133.819122,142.753147" id="path60" fill="#0D2A52"></path>
                        <path d="M44.8376239,141.458517 C44.8376239,142.18984 44.8293739,142.783525 44.8394989,143.376834 C44.8548739,144.28705 44.6793739,144.167788 45.6187489,144.301302 C46.3541238,144.405937 47.0992488,144.516573 47.8473738,144.459192 C48.6918738,144.394311 49.0878738,144.096906 49.1703738,143.513348 C49.2671238,142.825904 48.9491238,142.311728 48.1826238,142.008697 C47.1419988,141.597656 46.0349988,141.582655 44.8376239,141.458517" id="path62" fill="#0D2A51"></path>
                        <path d="M64.1636234,145.59068 C64.8011234,144.058277 65.4389984,142.526249 66.1278733,140.870834 C64.7339984,140.78045 63.4409984,140.696066 61.9979985,140.602307 C62.6842484,142.332355 63.3292484,143.958892 63.9742484,145.585055 C64.0376234,145.58693 64.1006234,145.588805 64.1636234,145.59068" id="path64" fill="#0D2A52"></path>
                        <path d="M35.1334116,183.855381 C35.1334116,183.171688 35.1334116,182.487994 35.1334116,181.804676 C35.1334116,179.975243 35.1089241,178.145435 35.1471741,176.316377 C35.1597741,175.712192 34.9855866,175.34503 34.4589741,175.017247 C32.3238367,173.686989 30.2178367,172.309477 28.1044868,170.943965 C27.8555993,170.783449 27.5749493,170.660812 27.3846743,170.411787 C27.4582118,170.137259 27.6760118,169.966992 27.8446118,169.766347 C30.1766617,166.98732 32.5551367,164.245795 34.8339741,161.423638 C36.5696616,159.274298 38.718749,157.708517 41.150249,156.476144 C41.538749,156.279249 41.931374,156.09023 42.2966239,155.828454 C41.048999,155.68669 39.872249,155.914338 38.730749,156.358757 C36.9388116,157.057077 35.3914866,158.122933 34.1372991,159.574703 C31.0601242,163.137185 28.0079618,166.721043 24.9484869,170.298901 C24.5023119,170.820578 24.5033244,170.835579 25.0772619,171.212867 C27.6058493,172.874658 30.1287742,174.545075 32.6771617,176.175738 C33.1668367,176.48927 33.3644617,176.809927 33.3454117,177.39761 C33.2982367,178.835504 33.3442492,180.276398 33.3215242,181.715417 C33.3148117,182.138459 33.4436992,182.441865 33.7400242,182.740394 C34.1378991,183.14131 34.4767116,183.601106 34.8410241,184.035024 C34.9385616,183.975393 35.0359866,183.915012 35.1334116,183.855381" id="path66" fill="#FFFFFF"></path>
                        <path d="M44.5004989,186.099605 C43.1306239,186.952441 41.762624,187.102456 40.382624,187.19209 C38.969249,187.283599 37.5656241,187.126833 36.1661241,186.969317 C32.6822617,186.577778 29.1969743,186.19674 25.7200119,185.748945 C22.0363869,185.274898 18.361387,184.732969 14.6838746,184.210916 C13.3792872,184.026023 12.0792372,183.808126 10.7759622,183.613107 C9.89148725,183.480718 9.89062475,183.486719 9.87202475,182.564127 C9.87011225,182.474118 9.85357475,182.379983 9.87288725,182.294475 C10.2407247,180.667562 9.12449977,179.886734 8.1022123,179.062777 C7.9300873,179.126158 7.9685998,179.230044 7.9681498,179.309927 C7.9601248,180.959716 7.9685998,182.609131 7.9416373,184.258546 C7.9341748,184.719092 8.0418373,184.969617 8.54516229,185.042375 C11.3891622,185.454166 14.2267121,185.911336 17.0721746,186.311877 C19.711087,186.683539 22.3549869,187.021823 25.0006494,187.341354 C27.3793868,187.629008 29.7626993,187.880658 32.1457117,188.131558 C34.0820616,188.335204 36.0193491,188.537349 37.9601241,188.69599 C39.096374,188.789374 40.238999,188.763122 41.353874,188.469092 C42.2921239,188.221942 43.1624989,187.836404 43.8528739,187.124583 C44.0966239,186.873308 44.3448739,186.621282 44.5004989,186.099605" id="path68" fill="#FFFFFF"></path>
                        <path d="M7.9174873,151.729669 C7.9174873,153.429714 7.9223248,155.129384 7.9136623,156.829429 C7.9117498,157.181964 8.0945623,157.284725 8.40262479,157.331604 C9.23084977,157.457617 10.0570497,157.597506 10.8814497,157.746396 C11.6365872,157.882909 11.6416872,157.89116 11.6425872,158.652486 C11.6458122,161.321253 11.6438997,163.99002 11.6438997,166.658787 C11.6438997,170.706941 11.6560497,174.755096 11.6309997,178.803251 C11.6272122,179.422813 11.7646122,179.894235 12.2638122,180.279398 C12.6079122,180.54455 12.8972247,180.880959 13.3532487,181.323878 C13.3532247,180.855081 13.3532247,180.568927 13.3532247,180.282774 C13.3532247,172.69614 13.3533747,165.109882 13.3529247,157.523248 C13.3529247,156.590155 13.3511622,156.593155 12.3931497,156.442765 C11.6242497,156.322378 10.8587247,156.176864 10.0871997,156.075229 C9.78089976,156.0351 9.67383726,155.898961 9.67586226,155.613557 C9.67983726,155.013873 9.65699976,154.413437 9.68204976,153.814878 C9.69813726,153.429339 9.59384976,153.135685 9.31199977,152.860782 C8.90549978,152.463993 8.54238729,152.022573 8.1606373,151.600281 C8.0797873,151.643411 7.9986373,151.68654 7.9174873,151.729669" id="path70" fill="#FFFFFF"></path>
                        <path d="M31.8398617,180.715942 C31.8398617,179.684589 31.8370492,178.728993 31.8418867,177.773398 C31.8429367,177.540875 31.7541367,177.385984 31.5554992,177.258096 C29.4657743,175.912087 27.3808493,174.557826 25.2918369,173.210692 C25.2544869,173.186689 25.1821119,173.216317 25.0384119,173.228319 C25.0384119,173.775873 25.0384119,174.333929 25.0384119,174.891985 C25.0384119,176.211742 25.0376994,177.531499 25.0387119,178.851631 C25.0393119,179.740095 25.0375494,179.761097 25.9022619,179.887484 C27.8513618,180.171763 29.8038743,180.433164 31.8398617,180.715942" id="path72" fill="#FCCF06"></path>
                        <path d="M48.2857488,162.006447 C47.6084988,161.333254 47.0681238,160.792825 46.5232488,160.256147 C46.3649988,160.100131 46.1583738,160.072378 45.9453739,160.057377 C45.0247489,159.992495 44.1048739,159.921988 43.1688739,159.852606 C43.8157489,161.068103 44.8841239,161.766798 46.1467488,161.838055 C46.7902488,161.874058 47.4318738,161.93819 48.2857488,162.006447" id="path74" fill="#FAFAFC"></path>
                        <path d="M22.0614369,157.719393 C22.6451619,158.34008 23.0932494,158.814502 23.5379994,159.291925 C23.6447619,159.406687 23.7672369,159.475319 23.9235369,159.494445 C24.9553869,159.621208 25.9871994,159.750596 27.1032743,159.746846 C26.5992368,159.256297 26.0969243,158.763122 25.5899244,158.275574 C25.4301369,158.121808 25.2187494,158.095931 25.0086744,158.071178 C24.0899244,157.962792 23.1711744,157.852156 22.0614369,157.719393" id="path76" fill="#FBFBFD"></path>
                        <path d="M96.3813726,159.077029 C94.9368726,159.764847 93.9734977,160.877584 93.3903727,162.339855 C93.0539977,163.182189 92.9051227,164.059777 92.9054977,164.972993 C92.9088727,171.572153 92.8642477,178.171688 92.9103727,184.770097 C92.9317477,187.818027 94.5502476,190.369782 98.2496225,191.322002 C99.0933725,191.539149 99.9569975,191.652785 100.828872,191.649035 C106.496247,191.625408 112.160622,191.49677 117.822747,191.25112 C120.128997,191.15136 122.436747,191.077478 124.743747,190.989719 C125.212497,190.971717 125.681247,190.94284 126.271497,190.912837 C125.763747,190.219767 125.216622,189.767472 124.687872,189.305801 C124.447122,189.09578 124.106247,189.230418 123.814122,189.240544 C119.559747,189.388309 115.306122,189.566077 111.050997,189.693965 C107.694747,189.794475 104.336622,189.838729 100.978872,189.903611 C100.009122,189.922362 99.0674975,189.750595 98.1678725,189.392059 C95.9962476,188.526473 94.8952476,186.873308 94.6852476,184.584829 C94.6552476,184.257046 94.6683726,183.925138 94.6683726,183.59548 C94.6676226,177.535999 94.6964976,171.476518 94.6522476,165.417788 C94.6364976,163.247071 95.1476226,161.270998 96.2996226,159.446816 C96.3569976,159.356432 96.4724976,159.275799 96.3813726,159.077029" id="path78" fill="#FFFFFF"></path>
                        <path d="M103.223997,162.319228 C104.729997,163.876759 104.729997,163.874508 106.874247,163.837005 C109.991997,163.782624 113.110122,163.731244 116.228622,163.680989 C116.923872,163.669738 116.936622,163.674613 116.941122,164.365807 C116.954997,166.49602 116.974497,168.625858 116.954247,170.755696 C116.950122,171.248496 117.089997,171.612657 117.445122,171.933314 C117.820497,172.272348 118.173372,172.636134 118.538622,172.99092 C118.828872,172.879159 118.714122,172.635759 118.714497,172.457616 C118.721622,169.157287 118.721622,165.856957 118.718247,162.556627 C118.717872,161.835429 118.708497,161.818928 117.974997,161.835054 C113.178372,161.94194 108.382122,162.056327 103.585872,162.169963 C103.475247,162.172963 103.347372,162.135459 103.223997,162.319228" id="path80" fill="#FEFEFF"></path>
                        <path d="M111.747747,171.920938 C111.747747,173.483344 111.760122,174.978243 111.739872,176.472768 C111.733872,176.900686 111.928872,176.956191 112.285497,176.94494 C114.319497,176.881934 116.353872,176.832054 118.387872,176.782549 C120.871122,176.721793 123.354372,176.665537 125.837247,176.605906 C125.948997,176.603281 126.060747,176.586029 126.322497,176.562027 C125.779497,176.027598 125.316372,175.582429 124.866747,175.125258 C124.615497,174.869858 124.308372,174.956491 124.019997,174.961367 C120.847872,175.015747 117.676122,175.077253 114.504372,175.136509 C114.325122,175.139885 114.145122,175.136884 113.965872,175.14326 C113.721747,175.151886 113.518497,175.068252 113.577747,174.796725 C113.833122,173.627733 113.065122,172.984544 112.337247,172.318103 C112.190247,172.183839 112.083372,171.99407 111.747747,171.920938" id="path82" fill="#FFFFFF"></path>
                        <path d="M118.759872,186.559776 C118.759872,185.790949 118.752747,185.169512 118.763622,184.54845 C118.767372,184.323428 118.708872,184.140034 118.546872,183.985894 C118.095747,183.556101 117.645747,183.124808 117.170997,182.670637 C116.656122,184.430688 116.956122,185.186014 118.759872,186.559776" id="path84" fill="#F6F6FA"></path>
                        <path d="M160.334621,169.930239 C159.419996,170.397911 158.726621,171.068853 158.158871,171.877808 C157.382996,172.984169 156.919121,174.222168 156.893246,175.567802 C156.843746,178.174688 156.768371,180.784949 156.937496,183.389959 C157.069871,185.424913 158.154371,186.787424 160.055246,187.486869 C161.393246,187.978918 162.793496,188.181063 164.207996,188.053176 C167.250371,187.778648 170.275496,187.348855 173.300246,186.926563 C175.998746,186.54965 178.697996,186.180988 181.394245,185.793575 C183.971995,185.423413 186.546745,185.034124 189.12262,184.64971 C189.169495,184.642585 189.208495,184.585579 189.34312,184.479443 C188.86237,184.031649 188.39587,183.587229 187.91737,183.155936 C187.740745,182.99692 187.51612,183.075303 187.31362,183.104931 C184.291495,183.54635 181.271995,184.009896 178.246871,184.431063 C175.309871,184.840229 172.367621,185.213017 169.426121,185.589929 C167.702621,185.810451 165.976121,186.008096 164.250746,186.216617 C163.099871,186.355381 161.977871,186.239494 160.899746,185.804076 C159.647621,185.29815 158.855246,184.335429 158.776496,183.025798 C158.615246,180.335279 158.548121,177.635009 158.695121,174.93924 C158.780996,173.355456 159.341621,171.904061 160.126496,170.534799 C160.221371,170.369408 160.420871,170.232144 160.334621,169.930239" id="path86" fill="#FFFFFF"></path>
                        <path d="M181.01212,156.468643 C176.146121,157.133209 171.340121,157.789525 166.530746,158.446591 C167.074121,159.597956 167.773871,159.956867 168.960371,159.789225 C171.865496,159.377809 174.774371,158.99452 177.681746,158.598106 C178.007996,158.553851 178.334996,158.512597 178.657871,158.449966 C179.056121,158.373083 179.188871,158.526099 179.184746,158.923638 C179.169371,160.24302 179.179871,161.562402 179.180246,162.882159 C179.180621,163.961892 179.193371,165.041625 179.173496,166.120983 C179.166746,166.509147 179.263871,166.808052 179.559746,167.071703 C180.024745,167.48762 180.461245,167.935039 181.01212,168.468343 C181.01212,164.406687 181.01212,160.475919 181.01212,156.468643" id="path88" fill="#FEFEFF"></path>
                        <path d="M189.149995,167.782774 C189.08212,167.786524 189.018745,167.769648 188.986495,167.7944 C186.96712,169.333179 184.621495,169.960992 182.154745,170.285024 C178.799621,170.726068 175.450121,171.204616 172.097621,171.664037 C170.052746,171.944565 168.006746,172.218718 165.855371,172.510497 C166.503371,173.111682 167.210246,173.476218 167.901371,173.850131 C168.083996,173.948766 168.371996,173.880884 168.606371,173.851256 C172.288871,173.384709 175.972496,172.928289 179.650871,172.432489 C181.07212,172.240845 182.51062,172.142585 183.899995,171.74317 C185.914495,171.164487 187.646995,170.169888 188.861245,168.406461 C188.987995,168.222693 189.179995,168.055426 189.149995,167.782774" id="path90" fill="#FFFFFF"></path>
                        <path d="M156.978746,155.58393 C156.978746,158.497221 156.978746,161.185865 156.978746,163.870008 C157.797371,164.031649 166.537871,163.032174 167.487371,162.652261 C167.064746,162.23597 166.660496,161.845556 166.265246,161.446141 C166.036496,161.215117 165.762746,161.2935 165.502871,161.321253 C163.568621,161.526774 161.635496,161.740545 159.702371,161.951691 C159.612746,161.961442 159.523871,161.975318 159.434621,161.982444 C158.781746,162.03645 158.770871,162.036075 158.766371,161.405261 C158.758496,160.237395 158.750621,159.068778 158.771246,157.901286 C158.778371,157.512747 158.681996,157.217218 158.387246,156.953566 C157.947371,156.560527 157.538996,156.132609 156.978746,155.58393" id="path92" fill="#FFFFFF"></path>
                        <path d="M181.41112,181.489269 C181.41112,180.863707 181.40512,180.278648 181.414495,179.69359 C181.41862,179.458816 181.30537,179.303551 181.142995,179.161412 C180.67762,178.754121 180.21412,178.344955 179.731496,177.920413 C179.292371,179.600956 179.696246,180.466167 181.41112,181.489269" id="path94" fill="#F9FAFC"></path>
                        <path d="M53.0459987,184.34968 C52.8596237,184.440064 52.8701237,184.536449 52.8701237,184.618582 C52.8663737,186.267997 52.8731237,187.917412 52.8592487,189.566827 C52.8562487,189.930613 52.9522487,190.090379 53.3519987,190.114007 C56.0744986,190.272648 58.7939985,190.486419 61.5172485,190.622557 C65.3489984,190.814577 69.1826233,190.967217 73.0162482,191.112731 C75.8913731,191.221867 78.768373,191.292749 81.644248,191.382383 C83.1719979,191.430388 84.6997479,191.482894 86.2274978,191.530523 C86.4584978,191.537649 86.6898728,191.531648 87.1338728,191.531648 C86.3857478,190.882834 85.7853729,190.365657 85.1894979,189.843605 C84.9344979,189.620457 84.6209979,189.677838 84.3314979,189.667712 C81.365998,189.563077 78.399748,189.477193 75.4342481,189.373683 C70.8206232,189.212041 66.2103733,188.990769 61.6023735,188.713617 C59.5679985,188.590979 57.5339986,188.457091 55.4984986,188.357331 C55.0286236,188.334454 54.8381236,188.161561 54.9198736,187.709641 C55.1358736,186.518147 54.6851236,185.631559 53.7101237,184.959866 C53.4663737,184.79185 53.2683737,184.557076 53.0459987,184.34968" id="path96" fill="#FFFFFF"></path>
                        <path d="M58.2408735,185.866707 C58.2408735,185.385534 58.2408735,185.124133 58.2408735,184.862732 C58.2408735,177.248345 58.2408735,169.633959 58.2408735,162.019573 C58.2408735,161.899561 58.2438735,161.779549 58.2404985,161.659912 C58.2206235,160.998346 58.2202485,160.996096 57.5208736,160.951091 C56.8331236,160.906837 56.1453736,160.862957 55.4572486,160.828454 C55.1594986,160.813452 55.0233736,160.676939 55.0511236,160.377284 C55.0589986,160.288025 55.0349986,160.19389 55.0537486,160.108007 C55.4009986,158.512972 54.3761236,157.658262 53.3197487,156.818928 C53.1746237,156.910062 53.1798737,157.030824 53.1798737,157.149711 C53.1798737,158.708367 53.1907487,160.267398 53.1723737,161.826054 C53.1674987,162.234469 53.2679987,162.417863 53.7149987,162.427239 C54.4023736,162.44149 55.0886236,162.525123 55.7748736,162.582129 C56.3969986,162.634259 56.3981236,162.63576 56.4179986,163.280449 C56.4236236,163.460092 56.4191236,163.64011 56.4191236,163.820128 C56.4191236,170.265147 56.4292486,176.710542 56.4041236,183.155561 C56.4014986,183.84263 56.5619986,184.363182 57.1001236,184.790724 C57.4481236,185.067502 57.7514986,185.400535 58.2408735,185.866707" id="path98" fill="#FDFDFE"></path>
                        <path d="M87.2587478,165.990095 C86.7731228,165.517923 86.3099978,165.067503 85.8464979,164.617083 C85.6751229,164.450941 85.4549979,164.496321 85.2502479,164.48657 C84.2324979,164.43894 83.2147479,164.374433 82.1962479,164.362057 C81.761998,164.356807 81.592498,164.205666 81.638248,163.784124 C81.651373,163.665612 81.640123,163.544475 81.639748,163.424463 C81.634123,162.039825 81.632998,162.060827 80.200873,161.997446 C75.6502481,161.796051 71.1003732,161.577404 66.5501233,161.367008 C66.3828733,161.359132 66.2152483,161.365883 65.9369984,161.365883 C66.5081233,162.074328 67.1062483,162.609132 67.6833733,163.160812 C67.9248733,163.391835 68.2574983,163.280449 68.5473733,163.293575 C72.0494982,163.454466 75.5523731,163.604856 79.054498,163.758247 C79.204498,163.764997 79.354123,163.786 79.503373,163.782999 C79.806748,163.776999 79.928623,163.908637 79.910998,164.218043 C79.889248,164.606582 79.925248,164.998871 79.896373,165.387035 C79.868998,165.756822 80.034748,165.835579 80.367373,165.84383 C81.805123,165.879834 83.2421229,165.949216 84.6802479,165.986344 C85.5074979,166.007722 86.3362478,165.990095 87.2587478,165.990095" id="path100" fill="#FFFFFF"></path>
                        <path d="M81.312748,178.960017 C80.806498,178.454841 80.439748,178.078678 80.060623,177.715642 C79.903123,177.564877 79.694623,177.531499 79.476373,177.529624 C79.057498,177.525873 78.638248,177.509747 78.218998,177.492495 C77.1434981,177.44824 77.2064981,177.662762 77.1858731,176.487394 C77.1626231,175.139135 77.4843731,175.29065 75.9438731,175.200641 C72.9239982,175.023998 69.9014983,174.89236 66.8797483,174.74197 C66.7364983,174.734844 66.5891233,174.696215 66.3491233,174.854481 C66.8092483,175.373158 67.2449983,175.883209 67.7032483,176.372258 C67.9297483,176.613782 68.2582483,176.559777 68.5544983,176.572903 C70.3196232,176.652036 72.0847482,176.727418 73.8502482,176.805426 C74.0894981,176.815927 74.3291231,176.825678 74.5679981,176.84593 C75.6217481,176.935939 75.4203731,176.912312 75.4289981,177.773023 C75.4391231,178.760497 75.4304981,178.758996 76.4148731,178.797625 C77.7618731,178.850131 79.108123,178.906761 80.454748,178.958516 C80.680123,178.967142 80.906248,178.960017 81.312748,178.960017" id="path102" fill="#FEFEFF"></path>
                        <path d="M79.949248,183.2962 C79.841998,185.631559 79.904248,185.756071 81.659998,186.930688 C81.676498,186.941564 81.712123,186.923563 81.820123,186.904811 C81.820123,186.305876 81.821248,185.689314 81.819748,185.072753 C81.819373,184.881108 81.734248,184.732594 81.584248,184.612582 C81.079498,184.209791 80.577748,183.802876 79.949248,183.2962" id="path104" fill="#F7F7FA"></path>
                        <path d="M75.4683731,169.951616 C75.3292481,171.898061 75.5887481,172.405111 77.1922481,173.427463 C77.1922481,172.886284 77.1836231,172.387859 77.1959981,171.89056 C77.2016231,171.655786 77.0954981,171.49677 76.9372481,171.347881 C76.4842481,170.921088 76.0346231,170.49017 75.4683731,169.951616" id="path106" fill="#F7F8FB"></path>
                        <path d="M137.703747,186.25037 C137.703747,185.989719 137.703747,185.728693 137.703747,185.467667 C137.703747,177.607631 137.706747,169.747596 137.700747,161.88756 C137.699997,160.805577 137.900622,160.906087 136.673622,160.940215 C135.954747,160.960092 135.235872,161.011847 134.519247,161.072603 C134.125872,161.105982 133.825497,161.0396 133.930497,160.565553 C134.255247,159.096531 133.397997,158.217443 132.394122,157.402861 C132.372747,157.385235 132.338622,157.381859 132.308247,157.371358 C132.041622,157.44074 132.156747,157.661637 132.155622,157.812777 C132.146622,159.312552 132.165747,160.813077 132.140622,162.312477 C132.133122,162.776024 132.262122,162.954916 132.744372,162.920788 C133.640622,162.857032 134.541747,162.852531 135.438747,162.796276 C135.796122,162.773773 135.934497,162.899411 135.913872,163.246696 C135.901497,163.455967 135.911997,163.666738 135.911997,163.876384 C135.911997,170.416287 135.920247,176.956566 135.900372,183.49647 C135.898497,184.164787 136.019997,184.710091 136.524372,185.178888 C136.892997,185.521673 137.194122,185.937964 137.525622,186.322003 C137.584872,186.298 137.644497,186.274373 137.703747,186.25037" id="path108" fill="#FEFEFF"></path>
                        <path d="M151.426871,189.341804 C150.887246,188.825378 150.467996,188.44584 150.074621,188.041174 C149.821496,187.780523 149.542871,187.705141 149.187371,187.731768 C147.964121,187.824778 146.738246,187.886284 145.514621,187.971792 C141.901871,188.223818 138.289872,188.480718 134.677497,188.736119 C134.092122,188.777748 133.984122,188.757871 134.090622,188.191939 C134.390997,186.59278 133.464747,185.707691 132.338622,184.89686 C132.101622,185.036749 132.206997,185.270022 132.205872,185.457916 C132.196122,186.955441 132.194997,188.452966 132.203247,189.950115 C132.206622,190.539674 132.220872,190.547925 132.800622,190.523923 C135.880497,190.39566 138.956622,190.19914 142.031246,189.980493 C144.240371,189.823728 146.451371,189.69809 148.660871,189.5522 C149.521496,189.49557 150.380996,189.421687 151.426871,189.341804" id="path110" fill="#FFFFFF"></path>
                        <path d="M151.266371,161.63666 C151.179746,161.482144 151.162121,161.420638 151.122371,161.385009 C150.589121,160.906087 150.173621,160.087755 149.531621,159.98912 C148.589246,159.84473 147.573371,159.996621 146.530871,160.208892 C146.913746,160.834454 147.452996,161.247746 147.907121,161.733419 C148.072496,161.909687 148.300496,161.848931 148.502996,161.835805 C149.395496,161.777299 150.287246,161.708292 151.266371,161.63666" id="path112" fill="#FBFCFD"></path>
                        <path d="M119.397372,90.1785156 C119.178747,89.2746752 119.076372,88.5392267 119.294247,87.7662744 C118.839747,87.5367515 118.352622,87.6140092 117.896997,87.5727551 C116.410497,87.4381166 114.919122,87.3597338 113.431122,87.2385967 C113.133372,87.2142192 112.905747,87.2337212 112.759497,87.5273755 C112.644747,87.7576486 112.641747,87.9406669 112.937247,87.9901718 C115.162872,88.3633341 117.218622,89.2457973 119.397372,90.1785156" id="path114" fill="#C5C4C5"></path>
                    </g>
                </g>
            </g>
        </g>
    </g>
</svg>