<?xml version="1.0" encoding="UTF-8"?>
<svg width="200px" height="200px" viewBox="0 0 200 200" version="1.1" xmlns="http://www.w3.org/2000/svg" xmlns:xlink="http://www.w3.org/1999/xlink">
    <!-- Generator: Sketch 51.3 (57544) - http://www.bohemiancoding.com/sketch -->
    <title>rhodes</title>
    <desc>Created with Sketch.</desc>
    <defs>
        <path d="M91.9382801,50.8039178 C91.9382801,50.8039178 83.1260532,49.0928765 81.1819485,47.3285823 C77.7962135,44.2549594 81.1819485,42.6498453 81.1819485,42.6498453 C81.1819485,42.6498453 73.4195033,45.8340259 70.5420652,46.9338157 C65.244831,48.9597441 63.8480333,48.4503678 63.8480333,48.4503678 C63.8480333,48.4503678 64.1589504,56.205043 51.6692855,59.0042972 C47.6972332,59.8939692 33.5644824,65.5295233 18.8809311,52.4941209 C8.78136805,43.5279406 5.76943217,0.0441073561 5.76943217,0.0441073561 C5.76943217,0.0441073561 -10.1420667,24.552516 11.073071,50.6233207 C16.1967973,56.9193275 26.3807854,62.2562018 39.4905376,62.5323069 C48.231731,62.716377 57.2477424,61.2171899 68.7976693,56.3659596 C83.9429382,50.0045443 91.9382801,50.8039178 91.9382801,50.8039178 Z" id="path-1"></path>
        <path d="M0.0331877721,3.83189891 C-0.0797671014,6.82216928 2.44133909,5.45727235 4.52983977,4.7701932 C6.91703039,3.9847118 7.94585133,4.37774192 7.94585133,3.83189891 C7.94585133,1.73130055 6.17467233,0.0272053246 3.98951955,0.0272053246 C1.80436677,0.0272053246 0.112954873,1.73245823 0.0331877721,3.83189891 Z" id="path-3"></path>
    </defs>
    <g id="rhodes" stroke="none" stroke-width="1" fill="none" fill-rule="evenodd">
        <g id="rhodes_BGL" transform="translate(0.000000, 15.920398)">
            <g id="rhodes">
                <g id="g10" transform="translate(99.854437, 85.158457) scale(-1, 1) rotate(-180.000000) translate(-99.854437, -85.158457) translate(0.000000, 0.358882)">
                    <g id="g12">
                        <path d="M79.6244522,129.227028 C64.9909736,129.884587 62.6608427,127.316289 43.3979028,128.811424 C25.7482963,130.180951 0,148.468139 0,148.468139 C0,148.468139 2.51046282,143.370324 6.0673652,140.073849 C11.0482676,135.458205 18.6724304,131.218227 18.6724304,131.218227 L3.39110326,136.959129 C3.39110326,136.959129 11.6109459,129.565648 17.2222994,126.849167 C29.2182817,121.042278 37.867772,119.550037 37.867772,119.550037 C44.8344094,115.052475 58.5123712,108.126116 60.3516724,101.694082 C61.9301295,96.1754532 55.2376697,92.9669614 50.6948459,90.3963477 L58.921687,91.7699271 C57.2147875,91.3149615 49.2563015,88.7264038 44.7673351,86.7739876 C44.6829683,86.7375209 59.1417744,88.4572447 61.6267816,86.6408552 C63.7915559,85.0583157 62.9292561,80.0085444 65.7478877,67.717526 C68.5135354,55.6592 68.2299837,36.1940218 68.2299837,36.1940218 L72.1432296,42.8646516 C72.1432296,42.8646516 69.2471598,34.7302016 79.6972324,19.1293951 C88.1496339,6.5112182 100.974088,0 100.974088,0 C100.974088,0 99.5656453,3.41513649 97.8148447,10.4468447 C97.0707399,13.4349154 96.947887,14.7031466 96.947887,14.7031466 C96.947887,14.7031466 97.1417734,14.5826328 97.6139714,12.7303554 C98.0209582,11.1340396 99.7531271,7.84549467 99.7531271,7.84549467 C99.7531271,7.84549467 99.4061111,15.513518 99.9371154,20.3691475 C100.07336,21.6165985 100.363899,23.5574958 100.363899,23.5574958 C100.363899,23.5574958 101.663462,20.5308166 104.004655,17.5109677 C110.086751,9.66541512 113.254146,8.57083493 113.254146,8.57083493 C113.254146,8.57083493 108.839007,37.5212943 135.668701,20.3323335 C153.045702,9.19945158 160.353999,13.9852155 163.930127,16.9488594 C166.175251,18.8099351 167.577871,21.6109837 167.190098,23.7119294 C167.183693,23.7456177 170.890243,26.7318362 172.880927,32.7598994 C174.174086,36.6733564 173.542354,39.8402299 173.542354,39.8402299 C176.830854,39.5427078 179.96215,42.1386167 183.329835,45.0352892 C187.337987,48.4809883 188.746429,52.0344667 188.746429,52.0344667 C188.746429,52.0344667 190.30509,51.8210496 193.512659,53.3271248 C197.412513,55.1579274 201.744973,61.5118178 198.301596,66.565641 C191.048612,77.2110266 187.276269,79.7833769 187.221538,80.5416529 C187.14934,82.3157874 187.035803,83.3391707 186.434348,84.5935098 C185.888205,85.7343969 183.790388,86.7438881 183.790388,86.7438881 C183.790388,86.7438881 188.65327,95.6562367 171.998831,110.464037 C167.240753,114.694754 158.405236,126.36005 147.90742,132.050594 C121.240754,146.506461 113.303054,146.200257 93.8969409,148.868694 C63.1307117,153.098833 41.9884706,169.526218 41.9884706,169.526218 C41.9884706,169.526218 45.4448897,164.622313 49.3581938,160.731373 C55.0168254,155.106817 62.4593871,152.765423 62.4593871,152.765423 L46.7655884,155.804315 C46.7655884,155.804315 51.8297513,150.826899 63.3467233,147.324358 C74.2375527,144.011675 77.8323125,146.242512 83.9772905,138.939908 C89.8486149,131.962032 98.6218316,125.715226 98.6218316,125.715226 C98.6218316,125.715226 93.5982509,128.598412 79.6244522,129.227028" id="path14" fill="#FFFFFF"></path>
                        <path d="M107.842792,37.7182145 C107.842792,37.7182145 104.561861,46.9836535 105.110914,51.5680401 C106.476853,62.9733804 109.481802,67.3187075 109.481802,67.3187075 C109.481802,67.3187075 106.203782,65.4178078 104.018629,61.3439552 C102.107712,57.782373 100.740609,51.5680401 100.740609,51.5680401 C100.740609,51.5680401 100.325471,56.8053545 101.286751,62.1589572 C102.65269,69.762556 106.749925,74.6508319 106.749925,74.6508319 C106.749925,74.6508319 101.01368,73.8364087 94.1845682,64.874859 C91.9411913,61.9308956 83.5312934,45.0502232 83.5312934,45.0502232 C83.5312934,45.0502232 78.3406094,59.9865831 77.7944668,63.7883825 C77.2483241,67.5901819 77.2483241,70.8490325 77.2483241,70.8490325 L76.1554566,59.7151087 C76.1554566,59.7151087 72.604365,73.5649343 72.604365,78.1811569 C72.604365,82.7979584 71.5167377,88.4502987 75.1778729,91.5030834 C83.3735059,98.3350929 93.523724,98.6922352 93.523724,98.6922352 C93.523724,98.6922352 88.1752525,99.0922113 86.8087315,99.0922113 C85.4433749,99.0922113 82.1653546,99.3636857 82.1653546,99.3636857 C82.1653546,99.3636857 86.528091,99.9847775 88.9944665,100.178109 C96.003491,100.729161 101.402035,104.323737 101.402035,104.323737 C101.402035,104.323737 98.5409,103.68065 97.0317297,103.573565 C95.5638986,103.468796 93.6378434,103.165485 93.6378434,103.165485 C93.6378434,103.165485 99.0800557,104.752655 102.15662,106.525053 C103.325179,107.197662 106.203782,110.226714 106.203782,110.226714 L101.559823,108.597289 L97.4625885,106.967863 C97.4625885,106.967863 101.559823,108.597289 103.745558,110.49761 C105.930711,112.398509 111.533622,120.536953 102.353418,120.65793 C100.987479,120.675874 98.5554561,120.003266 98.5554561,120.003266 C98.5554561,120.003266 108.935077,124.890963 112.759823,127.334811 C116.583985,129.779239 119.862006,131.408664 119.862006,131.408664 C119.862006,131.408664 117.403782,132.223666 116.310914,131.952192 C115.218047,131.680138 112.486169,131.680138 112.486169,131.680138 C112.486169,131.680138 116.583985,131.952192 118.496067,132.223666 C120.408148,132.49514 138.164189,133.038089 141.71528,131.13719 C145.266372,129.23629 170.818627,105.673585 172.730709,102.415313 C174.64279,99.1564622 179.204071,92.8025718 178.931582,90.08667 C178.657929,87.3707683 179.13886,85.2423857 179.13886,85.2423857 C179.13886,85.2423857 193.889951,68.9481328 192.797084,67.0472331 C191.704216,65.1457546 191.077142,63.70503 188.972921,62.1589572 C183.11033,57.8524701 180.553707,67.9461665 173.948758,69.4910816 C169.304799,70.5775581 162.202616,73.2934599 162.202616,81.4405863 C162.202616,84.1692225 172.855891,84.9703325 172.855891,84.9703325 C172.855891,84.9703325 167.119646,83.8844349 157.831728,97.1913116 C153.123723,103.936496 149.363606,108.868763 146.085586,110.769663 C142.808148,112.670562 143.326925,112.414138 141.442209,113.213511 C141.81135,111.033033 142.429691,109.306942 143.080637,107.782287 C145.040462,103.19269 147.724596,100.993111 147.724596,100.993111 C147.724596,100.993111 144.720229,104.79491 138.164189,106.967863 C131.608148,109.140237 124.779036,107.782287 124.779036,107.782287 C124.779036,107.782287 128.603199,105.881387 132.974087,103.708434 C137.344392,101.536639 142.808148,98.8207369 142.808148,98.8207369 C142.808148,98.8207369 133.247158,101.264585 129.149924,101.808113 C125.052107,102.351062 117.949924,100.721637 117.949924,100.721637 C117.949924,100.721637 118.496067,100.178109 126.964771,97.1913116 C135.432893,94.2039354 138.710914,92.8459846 138.710914,92.8459846 C138.710914,92.8459846 117.403782,96.6483628 110.847741,94.7474631 C104.2917,92.8459846 94.7307109,89.587134 91.9988332,83.3409072 C89.2675378,77.0952593 91.4526906,73.0214066 91.4526906,73.0214066 C91.4526906,73.0214066 96.9158637,78.4532102 101.833476,80.8970587 C106.749925,83.3409072 112.217173,83.9527376 117.403782,84.1559093 C145.319356,85.2504895 161.039297,75.465834 161.039297,75.465834 C161.039297,75.465834 150.580491,79.4007658 137.679181,79.8105822 C123.906838,80.2487616 118.214262,77.2179727 118.214262,77.2179727 C118.214262,77.2179727 125.634349,76.9985935 130.444829,76.3416139 C137.56448,75.3697471 144.446576,71.1205069 144.446576,71.1205069 C144.446576,71.1205069 137.890535,72.7499322 133.519647,71.3919813 C129.149924,70.0346093 126.418046,65.9613355 126.418046,65.9613355 C126.418046,65.9613355 133.519647,68.405184 138.43726,67.3187075 C143.35429,66.232231 149.910331,64.0598569 149.910331,64.0598569 C149.910331,64.0598569 134.612515,68.1331307 118.222996,57.2706813 C108.386023,50.7513015 107.842792,37.7182145 107.842792,37.7182145" id="path16" fill="#D3D2D2"></path>
                        <path d="M165.912077,38.5586854 C170.813387,43.3028888 163.935949,44.5043802 161.99068,48.3677099 C160.045411,52.2300556 164.039588,53.4874626 156.996212,57.832095 C149.952252,62.1769012 131.779909,57.2666295 129.83988,54.3735458 C127.899269,51.4800569 126.019793,49.6485598 126.019793,49.6485598 C126.019793,49.6485598 136.49432,35.8195723 140.137406,32.6800778 C143.781074,29.5403518 146.679472,23.8058167 150.576415,26.4008574 C160.062296,32.7175865 163.873649,28.7896585 163.873649,28.7896585 C163.873649,28.7896585 168.791844,30.2638977 169.761859,33.8856789 C170.731873,37.5074601 170.007565,38.2855324 165.912077,38.5586854" id="path18" fill="#231F20" fill-rule="nonzero"></path>
                        <path d="M126.379618,49.6248274 C127.644247,47.9640871 136.965353,35.7728023 140.316154,32.8849281 C141.298978,32.038611 142.227071,31.006661 143.124887,30.0092674 C145.612806,27.2428332 147.759531,24.8528744 150.425033,26.6264879 C159.153999,32.4397448 163.179035,29.7411503 163.940607,29.0975997 C164.748176,29.3748045 168.670738,30.8664667 169.497521,33.9550814 C169.968555,35.7130663 169.993591,36.6618376 169.584857,37.2291554 C169.142354,37.8432433 168.10771,38.1401286 165.894028,38.2877898 L165.282674,38.3289451 L165.721684,38.7531167 C166.862878,39.8581159 167.400869,40.810939 167.365935,41.6658229 C167.317026,42.8710188 166.104799,43.8683544 164.821539,44.9240368 C163.644829,45.8924884 162.427361,46.8939338 161.746139,48.2460384 C161.029981,49.6676035 161.083548,50.7662355 161.130709,51.735787 C161.215716,53.4856682 161.282674,54.8685091 156.852398,57.601718 C149.885877,61.8984807 131.944102,57.0224183 130.067537,54.2225273 C128.467537,51.8370834 126.887915,50.1480379 126.379618,49.6248274 Z M148.615426,25.4769761 C146.468119,25.4769761 144.568846,27.5885724 142.716736,29.6468578 C141.831146,30.63198 140.91528,31.6508483 139.958075,32.4745329 C136.334786,35.597299 126.229982,48.9198622 125.801452,49.4853278 L125.657639,49.6757072 L125.828818,49.8423543 C125.846867,49.8604719 127.712369,51.6901168 129.612806,54.5241591 C131.548177,57.4108756 149.992427,62.4732655 157.140025,58.0631088 C161.843955,55.1613425 161.766517,53.5620746 161.676852,51.7091026 C161.630855,50.7628204 161.583111,49.7833708 162.235222,48.489092 C162.864043,47.2393835 164.036677,46.2750416 165.169719,45.3425936 C166.549632,44.2074948 167.853271,43.1348526 167.912077,41.6877608 C167.948759,40.7890011 167.491117,39.8354834 166.515862,38.7850106 C168.256182,38.6350919 169.453853,38.3427214 170.029108,37.5457212 C170.631728,36.7097652 170.46346,35.4496957 170.025614,33.8155818 C169.027652,30.0902467 164.15953,28.5915806 163.952834,28.5296451 L163.7933,28.4821805 L163.676852,28.6015366 C163.641335,28.6379454 159.879472,32.268988 150.728381,26.175632 C149.995338,25.687036 149.293155,25.4769761 148.615426,25.4769761 Z" id="path20" fill="#231F20" fill-rule="nonzero"></path>
                        <path d="M171.763606,84.9552827 C171.763606,84.9552827 162.951379,83.2442415 161.007274,81.4799472 C157.621539,78.4063244 161.007274,76.8012102 161.007274,76.8012102 C161.007274,76.8012102 153.244829,79.9853909 150.367391,81.0851806 C145.070156,83.111109 143.673359,82.6017327 143.673359,82.6017327 C143.673359,82.6017327 143.984276,90.3564079 131.494611,93.1556622 C127.522559,94.0453342 113.389808,99.6808882 98.7062566,86.6454859 C88.6066936,77.6793055 85.5947577,34.1954723 85.5947577,34.1954723 C85.5947577,34.1954723 69.6832588,58.703881 90.8983966,84.7746857 C96.0221228,91.0706924 106.206111,96.4075667 119.315863,96.6836718 C128.057056,96.8677419 137.073068,95.3685549 148.622995,90.5173245 C163.768264,84.1559093 171.763606,84.9552827 171.763606,84.9552827" id="path22" fill="#231F20" fill-rule="nonzero"></path>
                        <g id="g24" transform="translate(79.825326, 34.151365)">
                            <g id="g26-Clipped">
                                <mask id="mask-2" fill="white">
                                    <use xlink:href="#path-1"></use>
                                </mask>
                                <g id="path28"></g>
                                <g id="g26" mask="url(#mask-2)" fill="#231F20" fill-rule="nonzero">
                                    <g transform="translate(71.091701, 52.268953)">
                                        <path d="M0.293449774,2.90344486 C0.293449774,4.32448894 1.59126634,5.47753164 3.19243078,5.47753164 C4.79359522,5.47753164 6.09141178,4.32448894 6.09141178,2.90344486 C6.09141178,1.48182194 4.79359522,0.329358079 3.19243078,0.329358079 C1.59126634,0.329358079 0.293449774,1.48182194 0.293449774,2.90344486" id="path32"></path>
                                        <path d="M3.19243078,5.20547839 C1.74439588,5.20547839 0.566521092,4.17283373 0.566521092,2.90344486 C0.566521092,1.63405599 1.74439588,0.600832488 3.19243078,0.600832488 C4.64046568,0.600832488 5.81892271,1.63405599 5.81892271,2.90344486 C5.81892271,4.17283373 4.64046568,5.20547839 3.19243078,5.20547839 Z M3.19243078,0.0573048327 C1.44337697,0.0573048327 0.0209606982,1.33421858 0.0209606982,2.90344486 C0.0209606982,4.4720923 1.44337697,5.74900604 3.19243078,5.74900604 C4.94148459,5.74900604 6.3644831,4.4720923 6.3644831,2.90344486 C6.3644831,1.33421858 4.94148459,0.0573048327 3.19243078,0.0573048327 Z" id="path34"></path>
                                    </g>
                                </g>
                            </g>
                        </g>
                        <path d="M172.874523,70.0155077 C172.874523,70.0155077 176.951961,67.1936788 178.171757,66.0388996 C182.257928,62.1687974 183.022994,58.2697535 183.022994,58.2697535 C183.022994,58.2697535 187.953998,58.3762594 189.616298,60.7732222 C192.597957,65.0728211 191.039879,67.2996059 191.039879,67.2996059 C191.039879,67.2996059 191.132455,65.8513565 189.41426,65.2655738 C188.29985,64.8858569 187.816589,64.5744427 183.631436,66.1569823 C179.445701,67.7401006 172.874523,70.0155077 172.874523,70.0155077" id="path36" fill="#231F20" fill-rule="nonzero"></path>
                        <path d="M174.558948,63.8202185 C174.558948,63.8202185 167.273358,65.9022941 156.797085,69.3139576 C147.593009,72.3117528 142.985732,76.0215172 133.266372,76.160438 C114.779619,76.4249664 108.149051,59.6317562 108.149051,59.6317562 C108.149051,59.6317562 118.428527,76.0689818 134.804072,74.7336056 C142.97758,74.0673645 148.878599,69.8870059 157.533621,66.9146795 C167.726924,63.4132963 174.558948,63.8202185 174.558948,63.8202185" id="path38" fill="#231F20" fill-rule="nonzero"></path>
                        <path d="M156.73595,92.7093791 C156.73595,92.7093791 146.80873,95.0287777 141.956911,95.3969179 C137.105673,95.765058 126.98515,98.4821174 126.98515,98.4821174 C126.98515,98.4821174 133.321685,100.479104 136.401161,100.997742 C140.772049,101.734601 145.476561,100.294455 145.476561,100.294455 C145.476561,100.294455 143.549341,102.136313 141.771175,105.560133 C139.994174,108.98453 138.326634,111.856718 138.326634,111.856718 C138.326634,111.856718 146.00873,106.512898 149.290826,103.350713 C155.254145,97.6063375 156.73595,92.7093791 156.73595,92.7093791" id="path40" fill="#231F20" fill-rule="nonzero"></path>
                        <path d="M160.39592,92.9449656 C160.39592,92.9449656 156.703344,89.8099861 159.09461,86.4098994 C161.485877,83.0103914 171.877725,84.9552827 171.877725,84.9552827 C171.877725,84.9552827 165.226779,84.3289814 163.031728,86.8411327 C160.836677,89.3527051 160.39592,92.9449656 160.39592,92.9449656" id="path42" fill="#231F20" fill-rule="nonzero"></path>
                        <path d="M179.526051,58.7802874 C179.526051,58.7802874 169.350214,59.8916539 156.974669,64.5148226 C150.248613,67.0269738 143.945848,69.0378525 139.167973,69.5946934 C114.255019,72.4998748 108.397086,50.6319454 108.397086,50.6319454 C108.397086,50.6319454 115.901016,71.7248124 139.012515,68.1846472 C144.17758,67.3939563 150.866372,65.0942381 157.952252,61.8747484 C169.349632,56.6958965 179.526051,58.7802874 179.526051,58.7802874" id="path44" fill="#231F20" fill-rule="nonzero"></path>
                        <path d="M130.561278,51.2507797 C130.561278,51.2507797 132.459968,46.9206182 135.243082,47.5399156 C140.381365,48.6842178 140.564189,48.1822506 143.362442,42.2510268 C146.582238,35.4270631 151.06084,37.1231125 157.88413,37.3134919 C159.83988,37.3686551 170.799996,41.6629287 154.903053,43.5040925 C149.795047,44.0958372 156.363897,54.9657536 145.539443,54.6681737 C134.294029,54.3590749 130.561278,51.2507797 130.561278,51.2507797" id="path46" fill="#EE293D" fill-rule="nonzero"></path>
                        <path d="M99.7933017,120.925931 C99.7933017,120.925931 104.308585,123.441556 109.952253,124.498511 C121.509167,126.662782 129.421249,123.476865 131.952253,121.493191 C137.717609,116.973634 137.871903,113.406843 137.871903,113.406843 C137.871903,113.406843 144.570593,114.815152 141.716445,118.508709 C138.357493,122.853458 132.254436,124.217197 132.254436,124.217197 C132.254436,124.217197 134.31266,124.91238 137.383985,123.552692 C139.012515,122.832041 142.242791,121.320698 142.242791,121.320698 C142.242791,121.320698 140.447158,122.28504 137.550506,125.164174 C135.73857,126.965513 133.704218,127.661854 133.704218,127.661854 C133.704218,127.661854 144.983402,128.090772 154.121685,119.235728 C156.155455,117.264789 167.402034,104.371781 167.402034,104.371781 C167.402034,104.371781 162.512369,114.396654 157.921976,118.333901 C145.607566,128.894776 140.964771,131.071781 128.004655,130.38586 C106.267828,129.235132 104.58515,125.749956 104.58515,125.749956 L99.7933017,120.925931" id="path48" fill="#231F20"></path>
                        <path d="M135.627362,127.412954 C135.627362,127.412954 143.756619,124.819766 152.802325,112.998763 C158.579909,105.448417 167.891117,97.2052037 167.891117,97.2052037 C167.891117,97.2052037 160.936823,111.509995 154.281219,117.266526 C144.415135,125.799158 135.627362,127.412954 135.627362,127.412954" id="path50" fill="#231F20" fill-rule="nonzero"></path>
                        <path d="M162.500141,21.7672118 C162.500141,21.7672118 168.750505,26.2219968 170.845993,31.5748471 C172.765061,36.4789252 171.541772,40.28003 170.992718,40.4179668 C169.248904,40.8548148 167.199996,37.7968784 167.199996,37.7968784 C167.199996,37.7968784 167.206983,37.7182145 166.893737,37.5171846 C166.580491,37.3175438 166.06346,36.6433148 166.06346,36.6433148 C166.06346,36.6433148 166.107128,37.7464618 165.256473,37.256708 C164.405236,36.7671858 163.733911,35.8410471 163.733911,35.8410471 C163.733911,35.8410471 163.738569,37.2875022 163.02183,37.0206584 C162.305673,36.7538726 161.075979,35.887875 161.075979,35.887875 C161.075979,35.887875 160.834348,37.0548098 160.028526,36.8318998 C159.222121,36.6096265 159.410767,36.7376073 159.410767,36.7376073 C159.410767,36.7376073 160.094901,37.7082585 159.802616,39.1790826 C158.85298,43.9493337 155.623286,39.5612306 154.186313,38.1059772 C153.419501,37.3309149 151.95167,36.9263659 151.95167,36.9263659 C151.95167,36.9263659 149.605236,35.2452505 145.855018,38.6655966 C140.122267,43.8950388 130.462297,47.7929251 130.462297,47.7929251 C130.462297,47.7929251 134.112369,40.8339767 136.893155,37.9185499 C139.673941,35.002197 146.418046,26.6235359 150.251525,26.6681063 C154.085003,26.7126188 155.226779,27.8031472 158.544974,27.9815446 C161.863169,28.1597106 162.512369,27.4520248 163.318191,26.4453699 C164.124596,25.4391781 162.500141,21.7672118 162.500141,21.7672118" id="path52" fill="#231F20" fill-rule="nonzero"></path>
                        <path d="M136.925761,39.6288387 C138.940317,36.2964758 143.518483,27.7651755 149.350797,27.1601175 C152.370302,26.8469668 158.773795,31.1368992 161.42183,30.8594628 C164.069865,30.5829525 163.781655,28.916308 163.781655,28.916308 C163.781655,28.916308 164.581073,27.874402 167.267536,32.1236421 C168.633475,34.2833976 169.787478,37.9827429 169.031728,36.9806608 C167.86084,35.4288575 167.134785,34.1721452 167.134785,34.1721452 C167.134785,34.1721452 167.109166,34.6381666 166.542063,34.6069673 C166.164188,34.5861871 165.590098,33.1257242 165.590098,33.1257242 C165.590098,33.1257242 165.16739,34.3758957 164.174668,33.8827268 C163.771175,33.6819863 162.582238,32.3789091 162.853562,32.4982652 C162.853562,32.4982652 162.875687,34.0830622 161.779326,33.8377512 C160.983402,33.6605114 159.69199,32.4982652 159.69199,32.4982652 C159.69199,32.4982652 159.64774,34.1131617 158.617172,34.0166118 C157.180782,33.8809324 156.199123,32.5867115 156.199123,32.5867115 C156.199123,32.5867115 157.736823,34.821079 157.689079,37.2748256 C157.648322,39.4020505 155.467245,36.1379325 154.344683,35.1573252 C150.674232,31.9517855 148.950797,31.6334253 148.950797,31.6334253 C148.950797,31.6334253 147.425906,33.3167982 144.580491,35.7877363 C141.105091,38.8064854 136.280637,40.6956347 136.925761,39.6288387" id="path54" fill="#FFFFFF"></path>
                        <path d="M187.792135,53.777344 C187.792135,53.777344 185.473649,49.5958856 181.24017,45.7981959 C179.589515,44.3169528 176.025032,42.0420668 174.098977,42.1793089 C172.292863,42.3070582 173.339734,45.6864805 173.339734,45.6864805 C173.339734,45.6864805 173.10509,45.7592981 172.533911,45.4943067 C171.785731,45.1474677 171.570884,45.6864805 171.570884,45.6864805 C171.570884,45.6864805 171.082965,45.3054902 170.40116,45.0658518 C169.25298,44.6613028 169.241917,45.4416325 169.241917,45.4416325 L168.908293,45.0190239 C168.908293,45.0190239 167.844537,42.2465119 162.579326,40.8531941 C160.808147,40.3842785 159.453853,40.4688465 159.353126,42.0606474 C159.237842,43.8713065 159.99592,45.1284819 160.976997,47.8779562 C161.516153,49.392193 160.911204,50.6864139 160.880345,50.6556777 C160.880345,50.6556777 152.614261,53.908219 144.179327,56.4325258 C136.647449,58.6865159 133.183112,56.4325258 133.183112,56.4325258 C133.183112,56.4325258 140.564189,66.0238498 154.636968,58.2390751 C155.660549,57.672915 171.193591,51.7687807 173.010767,52.1814334 C174.827943,52.5947806 183.272193,56.7040581 183.272193,56.7040581 L187.792135,53.777344" id="path56" fill="#231F20" fill-rule="nonzero"></path>
                        <path d="M136.193883,60.0386784 C136.193883,60.0386784 140.936241,59.9553259 147.051525,58.2356021 C156.094319,55.6933513 162.900141,51.3740141 162.900141,51.3740141 C162.900141,51.3740141 163.835222,50.6470531 162.963024,48.3919053 C161.71528,45.168248 160.747594,43.4781027 161.930127,43.3039886 C162.719647,43.1875267 164.493737,43.6345623 166.173504,45.4137905 C167.643082,46.9696457 168.930418,49.3279421 168.930418,49.3279421 C168.930418,49.3279421 168.564188,47.6753633 169.645993,47.7528696 C170.426779,47.8084958 171.464333,48.7190638 171.464333,48.7190638 C171.464333,48.7190638 171.638424,47.5559493 172.945556,48.3502869 C173.703052,48.8104042 174.016881,49.1373312 174.016881,49.1373312 C174.016881,49.1373312 174.27132,47.953205 175.410185,48.9562711 C175.64541,49.1640156 175.97787,49.4118734 176.293445,49.7069065 C176.199704,48.8400407 176.8687,49.1373312 176.8687,49.1373312 C176.8687,49.1373312 174.779617,45.8583371 176.015134,45.9948847 C177.06084,46.110652 178.794755,47.8245874 180.398249,49.4778608 C182.658511,51.8088362 184.686458,55.3430973 184.686458,55.3430973 L183.371757,57.3014176 C179.172048,54.8963511 174.164188,51.7839462 171.821248,52.7446993 C139.052689,66.1743474 136.193883,60.0386784 136.193883,60.0386784" id="path58" fill="#FFFFFF" fill-rule="nonzero"></path>
                        <path d="M75.5429384,30.9295599 C76.6107696,27.9051382 78.1327491,24.59535 80.2911188,21.1442677 C88.1077125,8.64365258 98.7062566,3.14607005 98.7062566,3.14607005 C98.7062566,3.14607005 97.620376,4.53278911 95.8847138,15.2623029 C94.5944663,23.2350837 94.511788,26.2577111 94.511788,26.2577111 C94.511788,26.2577111 95.8235784,21.5806527 96.2002887,19.764321 C96.9967952,15.9198035 98.0273629,14.9154639 98.0273629,14.9154639 C98.0273629,14.9154639 98.1554561,19.4819066 98.576999,22.3650343 C98.8605507,24.305237 99.5423556,27.3007169 99.5423556,27.3007169 C99.5423556,27.3007169 101.389808,23.9708431 103.411351,20.8618533 C107.939444,13.8979848 111.507421,10.9081196 111.507421,10.9081196 C111.507421,10.9081196 110.104218,40.1504863 135.184858,22.050726 C153.250651,9.01312405 160.640462,16.3028197 163.634348,19.6693918 C165.547012,21.8198859 166.320229,25.0394335 165.073067,26.9749476 C163.843955,28.8805359 159.858511,29.9565933 155.872485,28.809339 C151.886459,27.66139 150.037842,26.7207804 146.331874,28.9673614 C145.648905,29.3811718 144.841336,30.0630993 143.957493,30.9306597 L138.655601,30.9295599 C143.332165,24.9693364 148.27365,21.0309894 155.533038,24.4454313 C158.87627,26.0187094 159.805527,26.5808177 161.199996,25.0699382 C162.593882,23.5598111 160.420957,20.9387228 156.363315,19.0581981 C154.986313,18.4192203 149.701889,16.6698022 133.499851,28.7032961 C132.358658,29.5514076 131.262879,30.2910451 130.213679,30.9313543 L110.218338,30.9295599 C108.964772,27.2839885 109.046285,22.9449708 109.046285,22.9449708 C109.046285,22.9449708 106.864044,27.4843239 105.672778,30.932512 L86.4617155,30.9295599 C86.0553108,27.743006 85.8928654,25.6985548 85.8928654,25.6985548 C85.8928654,25.6985548 84.4890809,27.0947668 82.7068393,30.9318174 L75.5429384,30.9295599" id="path60" fill="#231F20"></path>
                        <path d="M138.655601,30.9295599 C138.063461,31.6831474 137.475397,32.4704811 136.887915,33.279058 C133.841045,37.4692569 124.832602,48.2552998 124.832602,48.2552998 C124.832602,48.2552998 130.284713,61.940157 134.488497,63.1059341 C140.30742,64.7203096 149.591845,64.669372 155.070156,61.7722943 C160.548468,58.8757955 168.553708,55.6083202 171.199996,55.3587259 C178.531,54.6659162 183.046866,59.0378698 183.046866,59.0378698 C183.046866,59.0378698 184.750505,57.2885674 187.329253,57.2885674 C189.407856,57.2885674 190.213096,57.8379992 191.719937,60.4953806 C194.333037,65.1006053 190.602033,67.2313032 188.787768,69.7318777 C186.004071,73.5684073 183.612222,75.7645137 182.09199,77.2347589 L188.086167,77.2364954 C190.043081,75.0895901 192.784275,71.8388433 196.176414,66.7410285 C198.065788,63.9018345 196.878598,60.6481934 194.963023,57.5218965 C193.199995,54.645599 189.547011,53.8931113 187.526051,53.7404721 C184.091407,53.4810954 182.651524,55.4692837 182.651524,55.4692837 C182.651524,55.4692837 178.138569,50.8837973 169.134202,51.473053 C166.206692,51.664127 161.952834,53.801713 155.905091,56.999149 C149.857347,60.1967008 144.201452,61.1396258 139.445702,60.3749825 C134.689953,59.6097604 130.124596,48.7102655 130.124596,48.7102655 C130.124596,48.7102655 138.498978,36.2878512 143.957493,30.9306597 L138.655601,30.9295599 Z M110.218338,30.9295599 C110.750507,32.4697865 111.521977,33.888631 112.641627,34.7985044 C115.069575,36.7712956 117.786314,37.3876409 120.93333,36.6281493 C120.93333,36.6281493 117.985441,36.2132391 116.552544,35.1168646 C115.014844,33.9406105 113.873651,30.9498771 113.873651,30.9498771 C115.317028,34.5328183 120.965354,36.5765749 130.213679,30.9313543 L110.218338,30.9295599 Z M86.4617155,30.9295599 C87.1784549,36.5476331 88.6532729,45.7199372 91.3310021,53.4734547 C94.3737968,62.2863013 98.6934473,65.0722423 98.6934473,65.0722423 C98.6934473,65.0722423 94.9403179,54.8899839 94.5636075,48.298018 C94.2783091,43.3121502 95.9906817,32.7465283 95.9906817,32.7465283 C95.9906817,32.7465283 96.5467225,39.9813502 97.4625885,44.5170567 C98.1816569,48.0809542 99.8398811,53.5324382 99.8398811,53.5324382 C99.8398811,53.5324382 98.9653541,48.7269939 100.582821,40.7048961 C101.47598,36.2763323 101.752545,36.653676 102.904801,34.2296237 C102.904801,34.2296237 102.09665,38.4919455 102.19039,41.2380626 C102.260259,43.295827 102.904801,46.4706305 102.904801,46.4706305 C103.090536,41.9860354 103.663462,37.2318759 105.439299,31.6352197 C105.511497,31.4077948 105.590099,31.1726134 105.672778,30.932512 L86.4617155,30.9295599 Z M65.5021818,77.2364954 C65.921978,72.8489133 66.75109,68.2737881 67.7228513,64.158838 C70.1694306,53.801713 69.0148454,39.2365611 69.0148454,39.2365611 L73.247742,46.7785717 C73.247742,46.7785717 72.2847144,40.1683145 75.5429384,30.932512 L82.7068393,30.9295599 C81.9441028,32.5751926 81.1120795,34.6664138 80.2911188,37.2875022 C77.7071305,45.5377194 78.2567666,58.7704472 78.2567666,58.7704472 L73.9138264,52.2422691 C73.9138264,52.2422691 74.3970869,58.1418306 72.1804931,67.5247734 C71.370595,70.9520654 70.6020361,74.207443 70.0826766,77.2347589 L65.5021818,77.2364954 Z" id="path62" fill="#231F20"></path>
                        <path d="M182.09199,77.2364954 C180.822703,78.4630504 180.161276,79.1848597 180.388351,79.9338744 C180.972339,81.3983313 180.182237,83.4942989 178.69461,84.4528525 C177.710621,85.0872575 175.689079,85.6707249 175.689079,85.6707249 C175.689079,85.6707249 179.583693,89.0875979 175.49461,96.3566291 C168.615425,108.585133 145.909749,128.833419 140.921685,130.234783 C137.158657,131.292318 133.836969,131.461338 126.699851,132.19704 C124.459386,132.427995 122.062879,132.980784 119.068993,133.055454 C114.64221,133.16717 111.07598,133.656287 107.775252,131.883889 C111.551671,132.592964 118.945557,131.828899 118.945557,131.828899 C116.890245,131.457286 115.735077,131.09725 113.834641,130.234783 C111.402617,129.13152 108.127508,126.459031 108.127508,126.459031 C108.127508,126.459031 106.634641,124.680845 104.232312,123.596684 C101.7409,122.472583 102.390099,122.437274 102.390099,122.437274 C102.390099,122.437274 105.308877,121.167885 105.513826,118.928945 C105.833476,115.436823 102.211933,112.687928 102.211933,112.687928 L104.880347,114.811101 C103.349051,111.984641 101.73566,110.308909 99.967392,109.113032 C98.1193571,107.863903 95.8631708,106.415653 92.8797648,105.67069 C93.7991243,105.388797 94.7254707,105.470992 97.3915551,106.303359 C100.77205,107.357999 99.6547282,107.475503 102.554874,108.67138 C102.554874,108.67138 100.131002,105.815978 94.6439569,104.19813 C91.5569118,103.28762 89.757203,102.882434 86.5688479,102.920637 C87.7845684,102.723833 88.3068391,102.628325 89.7088769,102.588385 C92.1746702,102.517767 94.4675377,102.46162 96.7161548,103.094288 C94.114117,101.844001 88.2678289,101.193967 85.5190663,100.891236 C83.5277999,100.671278 80.0163008,100.470421 77.0375527,99.7937614 C73.2512354,98.9336101 71.1737973,96.4168281 69.8107697,93.8786292 C69.8107697,93.8786292 71.9836954,97.1091168 75.2506531,98.1417615 C77.115573,98.9324524 80.5857331,98.9984398 84.1082948,98.9984398 C79.6163008,98.1550747 77.0637535,97.3117096 74.1671015,94.8441288 C72.5234334,93.2830063 71.2640448,91.7595081 70.7324582,90.6406167 C69.0328949,87.063406 69.1813665,82.494648 70.0826766,77.2347589 L65.5021818,77.2364954 C64.864045,83.8989058 65.1673928,90.1312405 67.3379896,93.6725634 C68.3638993,95.3465591 68.4023273,97.3435457 71.6989793,99.8585911 C73.3362427,101.107142 74.4366794,101.576578 76.0943212,102.018231 L71.392138,101.078779 C72.4919924,101.503066 73.0917012,101.89899 73.9126619,102.741198 C77.7211043,106.650082 68.0174655,112.324997 65.0794744,113.585703 C56.5611631,117.241636 54.4222985,118.108733 37.1774663,121.755404 C19.7252397,125.446067 8.60832584,133.486109 8.60832584,133.486109 L27.9137111,127.483572 C27.9137111,127.483572 21.8886749,130.457635 16.1237842,133.820098 C9.47691388,137.697725 3.00855305,144.967335 3.00855305,144.967335 C3.00855305,144.967335 25.6616005,124.915274 56.5438705,127.4199 C89.2675378,130.074445 99.8410455,124.001291 99.8410455,124.001291 C99.8410455,124.001291 99.8922828,124.326597 100.389517,124.545976 C100.776126,124.716733 101.14352,124.853917 101.14352,124.853917 C101.14352,124.853917 96.6439568,128.576416 90.0908274,134.54017 C83.8154273,140.251552 82.5938844,145.376572 71.9726328,146.689374 C56.9919054,148.541072 49.5030555,154.489198 49.5030555,154.489198 L70.066956,150.084251 C70.066956,150.084251 62.9275093,152.991748 57.3519636,156.310797 C50.6436669,160.302455 43.8455302,167.615478 43.8455302,167.615478 C43.8455302,167.615478 62.3586593,152.537361 90.8745247,148.619215 C121.640172,144.391392 133.079473,137.804231 145.796212,131.760597 C155.735658,127.037868 164.130418,115.735503 168.750505,111.627499 C184.921102,97.2497741 181.060257,87.2081152 181.060257,87.2081152 C181.060257,87.2081152 182.111786,86.7641474 183.07132,85.9925581 C185.082383,84.3747095 184.611349,82.9108315 184.682383,81.1882135 C184.861713,80.5098169 186.047157,79.4731204 188.086167,77.2359166 L182.09199,77.2364954" id="path64" fill="#231F20"></path>
                        <path d="M134.621248,81.3572339 C134.621248,81.3572339 109.952253,92.5368858 99.0177559,84.4650081 C88.0826761,76.3937092 82.1729237,63.9927119 82.484423,57.1578661 C82.79534,50.3228466 86.2165917,43.8134228 86.2165917,43.8134228 C86.2165917,43.8134228 88.0989789,59.6317562 93.4032,66.7757587 C110.167101,89.356757 134.621248,81.3572339 134.621248,81.3572339" id="path66" fill="#231F20" fill-rule="nonzero"></path>
                        <path d="M147.094611,86.8637073 C146.649196,90.7916931 149.370011,89.1570583 152.635804,88.3692616 C156.094319,87.5351579 159.518482,86.5088804 159.464916,86.2217774 C159.000869,83.7310431 156.654436,82.3007377 153.25298,82.3007377 C149.851525,82.3007377 147.378744,84.3590809 147.094611,86.8637073" id="path68" fill="#FFFFFF" fill-rule="nonzero"></path>
                        <path d="M147.620957,86.9227487 C147.890535,84.5495182 150.258512,82.8274791 153.25298,82.8274791 C156.2556,82.8274791 158.327798,84.0083059 158.872194,86.0052925 C158.154872,86.3265469 155.852689,87.0512504 152.511204,87.8575699 C151.913242,88.0017003 151.346721,88.1695629 150.79825,88.332216 C149.513825,88.7130906 148.301597,89.0725481 147.869574,88.7125117 C147.68151,88.555647 147.485877,88.1180464 147.620957,86.9227487 Z M153.25298,81.7734174 C149.71004,81.7734174 146.898977,83.8896444 146.568264,86.804666 C146.412806,88.1753513 146.610186,89.0383968 147.190098,89.5205677 C148.059385,90.2441136 149.46841,89.8261935 151.101597,89.3417072 C151.636677,89.183106 152.189807,89.0192952 152.760986,88.8809532 C160.165935,87.0946632 160.070447,86.5800773 159.986022,86.1256905 C159.478308,83.4005274 156.961277,81.7734174 153.25298,81.7734174 Z" id="path70" fill="#FFFFFF" fill-rule="nonzero"></path>
                        <path d="M149.494611,87.1264992 C149.381656,90.1167695 151.902762,88.7518726 153.991263,88.0647935 C156.378453,87.2793121 157.407274,87.6723422 157.407274,87.1264992 C157.407274,85.0259008 155.636095,83.3218056 153.450942,83.3218056 C151.26579,83.3218056 149.574378,85.0270585 149.494611,87.1264992" id="path72" fill="#231F20" fill-rule="nonzero"></path>
                        <g id="g74" transform="translate(149.461423, 83.294600)">
                            <g id="g76-Clipped">
                                <mask id="mask-4" fill="white">
                                    <use xlink:href="#path-3"></use>
                                </mask>
                                <g id="path78"></g>
                                <g id="g76" mask="url(#mask-4)" fill="#231F20" fill-rule="nonzero">
                                    <g transform="translate(2.620087, 3.473020)">
                                        <path d="M0.289956325,2.51678195 C0.289956325,3.77575175 1.35895193,4.79624085 2.67772919,4.79624085 C3.99650645,4.79624085 5.06550206,3.77575175 5.06550206,2.51678195 C5.06550206,1.2572333 3.99650645,0.236744208 2.67772919,0.236744208 C1.35895193,0.236744208 0.289956325,1.2572333 0.289956325,2.51678195" id="path82"></path>
                                        <path d="M2.67772919,4.56528501 C1.48937405,4.56528501 0.522852971,3.64609234 0.522852971,2.51678195 C0.522852971,1.38689272 1.48937405,0.467700049 2.67772919,0.467700049 C3.86608433,0.467700049 4.83260541,1.38689272 4.83260541,2.51678195 C4.83260541,3.64609234 3.86608433,4.56528501 2.67772919,4.56528501 Z M2.67772919,0.00520953025 C1.23318774,0.00520953025 0.05764192,1.13162574 0.05764192,2.51678195 C0.05764192,3.90135932 1.23318774,5.02719669 2.67772919,5.02719669 C4.12227064,5.02719669 5.29781646,3.90135932 5.29781646,2.51678195 C5.29781646,1.13162574 4.12227064,0.00520953025 2.67772919,0.00520953025 Z" id="path84"></path>
                                    </g>
                                </g>
                            </g>
                        </g>
                        <path d="M149.880637,87.1409701 C149.953417,85.2151804 151.521976,83.7061532 153.450942,83.7061532 C155.3933,83.7061532 156.978162,85.1995518 157.020083,87.0512504 C156.908875,87.0801922 156.696357,87.1062399 156.5048,87.1299722 C155.933621,87.1994326 155.069574,87.3053597 153.870156,87.7001263 C153.588351,87.7927402 153.299559,87.8975097 153.010185,88.0017003 C151.945848,88.3872055 150.740608,88.8236484 150.234057,88.4572447 C149.973795,88.268544 149.854436,87.8257339 149.880637,87.1409701 Z M153.450942,82.9380369 C151.105091,82.9380369 149.197085,84.7717915 149.108584,87.1126071 C149.071321,88.0815797 149.290826,88.7246673 149.779327,89.0783365 C150.617755,89.6843785 151.967973,89.196998 153.274523,88.7235096 C153.55691,88.6216344 153.838133,88.5197591 154.112369,88.4294606 C155.239589,88.0584263 156.057638,87.9582875 156.599123,87.8923001 C157.213388,87.8170514 157.793883,87.7458544 157.793883,87.1264992 C157.793883,84.8169408 155.84512,82.9380369 153.450942,82.9380369 Z" id="path86" fill="#231F20" fill-rule="nonzero"></path>
                        <path d="M142.740608,92.0593455 C142.740608,92.0593455 148.694611,90.5960463 152.619501,89.3764374 C156.54381,88.1574073 163.59068,85.142247 163.59068,85.142247 L162.141481,83.9232169 C162.141481,83.9232169 154.649196,87.1600717 152.508293,87.7140184 C150.367391,88.268544 142.406401,90.5960463 142.406401,90.5960463 L142.740608,92.0593455" id="path88" fill="#231F20" fill-rule="nonzero"></path>
                        <path d="M142.729545,90.7841682 C144.089662,90.3876651 150.676561,88.4688215 152.576998,87.9768103 C154.567682,87.4616456 160.979909,84.7185385 162.094319,84.2392617 L163.075978,85.0652617 C161.519647,85.7228202 155.864916,88.0838951 152.53857,89.1171186 C149.139443,90.1734955 144.152544,91.4284135 142.945557,91.7288297 L142.729545,90.7841682 Z M162.18806,83.6065932 L162.032601,83.6743171 C161.957492,83.7061532 154.535076,86.9088566 152.439589,87.4512266 C150.319065,88.0005426 142.409312,90.3118375 142.328963,90.334991 L142.083257,90.4073456 L142.536241,92.3892824 L142.806401,92.323295 C142.86579,92.3082453 148.812806,90.8432096 152.701015,89.6357562 C156.593883,88.4265664 163.627944,85.4218251 163.698395,85.3917256 L164.104217,85.2186534 L162.18806,83.6065932 Z" id="path90" fill="#231F20" fill-rule="nonzero"></path>
                        <path d="M137.304218,91.1621486 C137.304218,91.1621486 133.612806,88.0271691 136.00349,84.6270823 C138.395339,81.2275744 148.417464,82.334889 148.417464,82.334889 C148.417464,82.334889 142.135659,82.5467433 139.940608,85.0583157 C137.746139,87.5698881 137.304218,91.1621486 137.304218,91.1621486" id="path92" fill="#231F20" fill-rule="nonzero"></path>
                        <path d="M144.295193,84.5483605 L143.640171,82.267744 C143.640171,82.267744 148.26841,81.7334777 150.521102,80.9572577 C152.773213,80.1810377 157.633766,78.5967617 157.633766,78.5967617 C157.633766,78.5967617 156.441917,79.5935184 156.887915,80.148044 C157.333912,80.7019907 157.213388,80.9861995 157.213388,80.9861995 C157.213388,80.9861995 154.180491,82.094093 150.813388,83.2025652 C148.291699,84.0326171 144.295193,84.5483605 144.295193,84.5483605" id="path94" fill="#231F20" fill-rule="nonzero"></path>
                        <path d="M34.5496935,123.315948 C43.4914108,119.280299 63.3985428,110.487769 62.9117888,98.2204833 C62.8064031,95.5694112 53.1509157,91.3421668 53.1509157,91.3421668 L63.4672473,93.0867806 L48.4779609,87.5982511 C48.4779609,87.5982511 57.8663741,89.7914633 62.4972328,87.6572924 C65.1446854,86.4376835 65.6558936,75.70663 65.6558936,75.70663 C65.6558936,75.70663 66.6975238,87.6370331 66.7470143,88.9828285 C66.8681206,92.2995627 63.7094598,91.6408466 63.7094598,91.6408466 L67.2314394,94.5327147 L64.8075675,94.2919186 C64.8075675,94.2919186 69.6675383,97.2648239 68.837844,101.862524 C66.2096053,116.423161 41.8353992,123.042158 41.8353992,123.042158 C41.8353992,123.042158 34.1860253,123.556744 34.5496935,123.315948" id="path96" fill="#231F20" fill-rule="nonzero"></path>
                        <path d="M136.936241,54.01021 C137.486459,54.01021 143.750797,54.9350174 144.989225,52.9156298 C146.227653,50.8960107 148.947303,45.7298932 148.947303,45.7298932 C148.947303,45.7298932 148.841918,51.579559 147.19068,53.5995833 C145.539443,55.6187393 145.847449,54.6937583 143.095775,55.2413957 C140.342937,55.7883385 138.174669,55.9255806 138.174669,55.9255806 C138.174669,55.9255806 136.385441,54.01021 136.936241,54.01021" id="path98" fill="#231F20" fill-rule="nonzero"></path>
                        <path d="M50.8924587,121.052118 C50.8924587,121.052118 65.6326039,118.078055 69.7868978,116.158054 C75.3286735,113.597859 78.2107695,111.321294 79.9842775,108.217572 C80.8704492,106.666289 79.8544376,105.010238 79.8544376,105.010238 C79.8544376,105.010238 84.6695758,104.962773 86.3213952,105.43221 C87.9737969,105.901646 89.2244519,106.136075 89.2244519,106.136075 C89.2244519,106.136075 88.0983966,106.16849 86.9030546,106.44228 C85.5417737,106.753694 83.8305656,107.433248 83.8305656,107.433248 C83.8305656,107.433248 86.5577853,107.191873 89.93304,107.895739 C91.9493427,108.315974 95.0777269,110.077374 95.0777269,110.077374 C95.0777269,110.077374 91.3484693,108.931856 90.1682656,108.904651 C87.1475961,108.834033 84.2451216,109.374088 84.2451216,109.374088 C84.2451216,109.374088 92.8494882,110.541022 95.5499248,112.072045 C98.5705943,113.784823 101.969721,117.365507 98.5874793,119.052816 C92.6788914,122.000252 83.2809295,123.587423 76.4250345,123.691034 C68.0372618,123.816642 53.4241035,123.062418 53.4241035,123.062418 L63.6861702,119.428481 L50.8924587,121.052118" id="path100" fill="#FFFFFF" fill-rule="nonzero"></path>
                        <path d="M85.7705947,145.573377 C85.7705947,145.573377 90.5589497,140.388158 93.8567662,137.617266 C100.404073,132.11716 102.5409,128.740227 104.83435,129.166829 C106.128091,129.407625 108.187479,130.255042 108.187479,130.255042 L103.541191,130.253306 C103.541191,130.253306 103.986606,132.697733 106.093156,133.74427 C108.199706,134.791386 114.010477,135.77946 117.696649,135.255613 C121.382821,134.731765 130.839007,134.677934 130.839007,134.677934 C130.839007,134.677934 124.068701,137.315114 110.003491,140.802026 C102.202035,142.735919 89.1877707,145.505074 89.1877707,145.505074 L97.7799102,141.248888 L85.7705947,145.573377" id="path102" fill="#FFFFFF" fill-rule="nonzero"></path>
                    </g>
                </g>
            </g>
        </g>
    </g>
</svg>