<?xml version="1.0" encoding="UTF-8"?>
<svg width="200px" height="200px" viewBox="0 0 200 200" version="1.1" xmlns="http://www.w3.org/2000/svg" xmlns:xlink="http://www.w3.org/1999/xlink">
    <!-- Generator: Sketch 51.3 (57544) - http://www.bohemiancoding.com/sketch -->
    <title>rivier</title>
    <desc>Created with Sketch.</desc>
    <defs>
        <polygon id="path-1" points="0 1.14855118 199.334524 1.14855118 199.334524 149.810191 0 149.810191"></polygon>
    </defs>
    <g id="rivier" stroke="none" stroke-width="1" fill="none" fill-rule="evenodd">
        <g id="rivier_BGL">
            <g id="Group-21" transform="translate(0.000000, 25.000000)">
                <g id="Group-3" transform="translate(0.000000, 0.041614)">
                    <mask id="mask-2" fill="white">
                        <use xlink:href="#path-1"></use>
                    </mask>
                    <g id="Clip-2"></g>
                    <path d="M54.8725,129.270624 C55.2855952,128.619065 55.6034524,127.763002 55.8189286,126.983034 L49.7582143,125.184113 C47.8070238,124.600325 30.5986905,119.368829 23.1236905,114.704475 C16.5379762,110.604884 11.2129762,101.50327 7.90821429,94.5941283 L7.26059524,93.2363173 L-0.000119047619,86.5400024 L8.1522619,80.0541362 C14.8427381,74.5634433 17.999881,64.9993173 18.3010714,63.4691047 L18.3058333,63.4726717 C18.4296429,62.7699866 19.0832143,58.8273409 19.0832143,58.8273409 L19.8213095,54.3781913 L25.5736905,55.6622858 C29.8582143,44.3170732 40.0010714,35.8016244 52.9355952,32.7090969 C57.1379762,18.2428213 68.899881,7.46356142 85.6165476,2.91215984 C89.9213095,1.74101811 94.2546429,1.1477189 98.4963095,1.1477189 C111.862976,1.1477189 124.982024,7.04979764 137.490357,18.6934433 C139.307024,20.3817898 141.128452,22.079648 142.939167,23.7822622 C145.939167,26.6025142 149.24869,29.3074354 152.774881,31.8185535 C156.189167,34.2464433 158.901071,35.3498134 161.566548,35.3926165 L170.053452,35.5341047 L164.882024,42.2565772 C164.49869,42.7559472 160.915357,47.1432701 153.617738,47.2383882 L153.311786,47.2395772 C150.749881,47.2395772 148.337976,46.8377031 146.014167,46.2634276 C147.580833,47.4262465 149.293929,48.5498291 151.168929,49.6424984 C154.941548,51.8444827 159.307024,53.6362701 164.140357,54.9679236 C166.767738,55.6884433 169.699881,56.0926953 172.617738,56.1295535 L173.053452,56.1343094 C176.793929,56.1331205 180.841548,55.4684827 184.44869,54.2581047 C186.07131,53.7123646 187.367738,53.0394039 188.408214,52.1987976 C189.711786,51.1453646 190.792738,50.0693409 191.045119,49.6746008 C191.041548,49.6817346 198.458214,42.0984433 198.515357,43.1245299 L199.237976,50.8397976 C200.749881,77.1744354 184.561786,99.2311362 158.949881,105.746727 C158.3225,105.920317 156.028452,106.469624 152.12131,106.469624 L152.120119,106.469624 C145.843929,106.469624 135.689167,105.045231 122.064167,98.5343961 C112.709405,110.166152 95.6975,130.604656 64.7582143,141.631223 L41.8129762,149.810191 L54.8725,129.270624 Z" id="Fill-1" fill="#CFD4D8" mask="url(#mask-2)"></path>
                </g>
                <g id="Group-20" transform="translate(5.952381, 4.797520)">
                    <path d="M189.02369,46.3278701 C189.090357,47.4764213 185.966548,50.0945472 185.139167,50.762752 C183.5725,52.0254449 181.757024,52.9052874 179.857024,53.5437677 C175.67131,54.9479488 171.015357,55.7005709 166.607024,55.6399331 C163.44631,55.5971299 160.105833,55.1619646 157.052262,54.3225472 C152.199881,52.9873268 147.411786,51.1075551 143.060595,48.5714685 C138.5225,45.9224291 134.3225,42.7977992 130.828452,38.8515866 C129.855833,37.7529724 128.887976,36.6127441 128.035595,35.4142559 C127.784405,35.0611299 127.636786,34.7983661 126.765357,33.7009409 C133.878452,34.3703346 140.389167,38.3106024 147.610595,38.2166732 C153.04869,38.1465236 155.545119,34.9029961 155.545119,34.9029961 C151.334405,34.8328465 147.682024,32.9114606 144.343929,30.5358858 C140.72369,27.959374 137.29631,25.1759803 134.059405,22.1322008 C132.257024,20.4367205 130.440357,18.7436181 128.624881,17.0588386 C115.130833,4.49254724 99.3117857,-2.7685315 80.7891667,2.27153937 C65.8439286,6.33902756 53.8463095,16.1052795 50.4641667,31.5869409 C36.9713095,33.9423031 26.2915476,42.6634449 22.8403571,54.7565236 L22.5094048,55.9217205 L17.345119,54.7696024 C17.345119,54.7696024 16.3641667,60.6740591 16.5594048,59.419689 C16.3355952,60.8642953 12.9939286,71.9622008 4.86178571,78.6359252 L0.602261905,82.0221299 L4.81059524,85.9041378 L5.81059524,87.9991142 C8.31535714,93.2365551 13.4129762,102.581909 19.4344048,106.331941 C26.5855952,110.794169 44.274881,116.114839 45.0225,116.340744 L49.4713095,117.659319 L50.2510714,113.087705 C50.2582143,113.037768 50.2986905,112.807106 50.3855952,112.430201 C50.4939286,111.956988 50.7296429,111.003429 51.1415476,109.795429 L51.2094048,109.607571 C51.3820238,109.115335 51.5796429,108.596941 51.7975,108.073791 C52.170119,109.117713 52.5713095,110.111697 52.9153571,110.964193 C53.149881,111.546791 53.3605952,112.063996 53.5129762,112.482516 C54.7296429,115.887744 54.6855952,117.906626 54.4653571,120.830319 C54.3629762,122.160783 53.7641667,124.850248 52.524881,126.801358 L46.124881,136.868421 L57.370119,132.859193 C88.0332143,121.930122 104.630833,101.262146 113.54869,90.1559173 C114.036786,89.5471614 114.495119,88.9788307 114.940357,88.4307126 C138.805833,100.744941 151.891548,96.8712559 151.891548,96.8712559 C174.557024,91.1285 190.455833,71.2916181 189.02369,46.3278701" id="Fill-4" fill="#28588D"></path>
                    <path d="M61.5288095,123.091157 C61.5288095,123.091157 93.2216667,100.305614 97.1633333,84.3994882 C97.1633333,84.3994882 98.752619,87.2601654 106.085952,86.8416457 C106.085952,86.8416457 84.7907143,112.415339 61.5288095,123.091157 M43.3942857,55.4883386 C43.3942857,55.4883386 38.0847619,54.5038661 33.8930952,53.5431732 C33.8930952,53.5431732 40.7240476,39.1839055 53.1335714,38.0103858 C53.1335714,38.0103858 45.1871429,41.7830079 43.3942857,55.4883386 M97.7204762,78.0491654 C93.877619,83.4673307 83.7692857,88.6179764 84.3002381,87.9509606 C89.1692857,81.7659055 92.1538095,77.665126 92.827619,74.7366772 C93.1930952,73.685622 93.5002381,72.6048425 93.7252381,71.4895827 C96.9692857,55.5965354 84.5038095,39.6464173 65.8895238,35.8630945 C48.0288095,32.2248268 31.002619,41.1171811 26.7883333,55.8818898 C41.8061905,59.6640236 56.3347619,63.572189 67.8347619,65.9596535 C69.6097619,63.8694331 72.2561905,62.5389685 75.2192857,62.5389685 C80.5669048,62.5389685 84.902619,66.8704094 84.902619,72.2124803 C84.902619,77.0016772 81.4169048,80.9681024 76.8430952,81.742126 C77.4680952,88.1293071 76.3716667,91.9994252 73.3954762,93.869685 C71.7585714,94.9017165 70.0502381,95.3024016 68.2395238,95.7292441 C66.302619,96.1822441 63.8919048,96.7470079 60.5038095,98.3295354 C58.0335714,99.4828425 56.155,101.296031 54.73,103.284 C54.7335714,103.305402 54.7347619,103.322047 54.7395238,103.347016 C55.1335714,105.919961 56.7490476,109.346591 57.3764286,111.10152 C58.8514286,115.221323 58.8085714,117.815669 58.5561905,121.138858 C58.4288095,122.822449 57.7407143,126.244323 55.9895238,128.997992 C90.7216667,116.61837 106.814524,91.1861654 114.282381,82.8300394 C105.776429,83.9904803 99.9240476,81.0085276 97.7204762,78.0491654" id="Fill-6" fill="#CFD4D8"></path>
                    <path d="M120.417857,28.0996732 C115.472619,35.5902244 111.97381,8.85133465 89.0595238,10.0688465 C66.1440476,11.2875472 61.8607143,29.2874606 61.8607143,29.2874606 C75.5238095,11.0521299 98.8535714,16.7413819 111.065476,26.8250906 C123.278571,36.9111772 120.417857,28.0996732 120.417857,28.0996732" id="Fill-8" fill="#CFD4D8"></path>
                    <path d="M48.8375,95.5612417 C46.6529762,94.8038638 43.5113095,93.5697063 41.6065476,92.1643362 C39.2446429,90.415352 36.8577381,87.3870291 35.8470238,86.0292181 L39.2077381,85.6867929 C40.3053571,87.0469819 41.8458333,88.7876433 43.3136905,89.8719898 C45.4410714,91.4485724 49.7553571,92.8860449 51.3934524,93.3937378 C50.464881,94.0785882 49.6136905,94.8062417 48.8375,95.5612417 M44.8255952,100.480037 C42.910119,99.7904307 37.4089286,97.7430134 34.1529762,95.8858323 C33.9565476,95.7776354 33.7577381,95.6527929 33.5625,95.5208165 C33.5077381,95.4839583 33.4517857,95.4399661 33.3970238,95.397163 C30.4279762,93.2902969 27.7232143,89.0076039 26.5482143,86.9803992 L29.7363095,86.6558087 L29.8303571,86.6462969 L30.1636905,86.6094386 C31.4160714,88.6604228 33.6244048,91.7541394 35.8077381,92.9989976 C38.8041667,94.7016118 44.8232143,96.9238087 46.889881,97.6669189 C46.1065476,98.6085882 45.4196429,99.5573913 44.8255952,100.480037 M42.2732143,105.360785 C42.2684524,105.380998 42.2613095,105.396454 42.2494048,105.4131 C42.0125,106.000454 41.8232143,106.514092 41.6839286,106.929045 C41.0065476,106.690061 39.0589286,106.000454 36.764881,105.133691 C33.5005952,103.893588 29.5327381,102.28847 27.514881,101.099494 C22.960119,98.4100291 18.3863095,90.5806197 16.9446429,87.9624937 L21.0970238,87.5368402 C23.0982143,90.9289898 26.5696429,96.1141157 29.4613095,97.8226748 C30.0660714,98.1781787 30.8375,98.5705409 31.7053571,98.970037 C33.5196429,99.8094543 35.7613095,100.704754 37.8065476,101.481155 C37.8589286,101.497801 37.9077381,101.516824 37.9577381,101.535848 C40.285119,102.415691 42.335119,103.131454 43.1577381,103.41562 C42.8065476,104.119494 42.5160714,104.778187 42.2732143,105.360785 M70.9744048,90.4557772 C72.3482143,89.5902024 72.7541667,84.2838008 72.4208333,81.4742496 C71.3863095,81.1627378 70.4279762,80.6788244 69.5720238,80.0641236 L29.1946429,84.223163 L29.0994048,84.2338638 L25.6863095,84.5822339 L9.51488095,86.2313441 C11.3589286,90.0860055 16.2684524,99.5312339 21.6089286,102.855612 C28.3767857,107.076478 46.2029762,112.414982 46.2029762,112.414982 C46.2029762,112.414982 46.2553571,112.09158 46.3815476,111.531572 C46.5446429,110.796785 46.8434524,109.655368 47.3184524,108.285667 C47.3255952,108.271399 47.3315476,108.260698 47.335119,108.249998 C48.8208333,104.025565 52.0422619,97.6906984 58.6077381,94.6290843 C65.3315476,91.4866197 68.7375,91.8647142 70.9744048,90.4557772" id="Fill-10" fill="#CFD4D8"></path>
                    <path d="M20.357381,75.6877394 C20.357381,75.6877394 24.1680952,70.5145031 24.2133333,69.916448 C24.2859524,68.9664559 24.1407143,67.298322 24.1407143,67.298322 L47.6954762,73.6284323 L20.357381,75.6877394 Z M65.53,72.2135504 C65.53,71.2885268 65.6692857,70.3956055 65.9133333,69.5454874 L20.6216667,59.7090858 C20.9395238,59.8125268 17.5407143,73.542826 7.46452381,81.8038339 C7.46571429,81.8038339 55.8561905,76.967078 66.2728571,75.9255346 C65.7978571,74.7805504 65.53,73.5309362 65.53,72.2135504 Z" id="Fill-12" fill="#CFD4D8"></path>
                    <path d="M75.2192857,68.9463622 C77.0228571,68.9463622 78.4883333,70.4111811 78.4883333,72.2136693 C78.4883333,74.0185354 77.0228571,75.4785984 75.2192857,75.4785984 C73.4109524,75.4785984 71.9454762,74.0185354 71.9454762,72.2136693 C71.9454762,70.4111811 73.4109524,68.9463622 75.2192857,68.9463622 M75.2192857,78.3820787 C78.6288095,78.3820787 81.3919048,75.6188976 81.3919048,72.2136693 C81.3919048,68.806063 78.6288095,66.0428819 75.2192857,66.0428819 C71.8061905,66.0428819 69.0407143,68.806063 69.0407143,72.2136693 C69.0407143,75.6188976 71.8061905,78.3820787 75.2192857,78.3820787" id="Fill-14" fill="#CFD4D8"></path>
                    <path d="M122.244286,62.4185252 C120.670476,61.2129031 119.122857,59.9478323 117.537143,58.704163 C113.919286,55.8636984 109.90381,53.8495724 105.599048,52.2682339 C104.976429,52.0399504 104.027619,51.9222417 103.459762,51.5845724 C117.441905,59.9442654 114.726429,76.9501945 141.68,83.2910055 C168.639524,89.6341945 178.343095,64.1556197 178.343095,64.1556197 C173.384762,70.4631394 164.864524,71.9077457 157.344286,72.2596827 C148.970476,72.6520449 140.165714,70.9541866 132.263333,68.2076512 C128.485952,66.8926433 125.310952,64.7679425 122.244286,62.4185252" id="Fill-16" fill="#CFD4D8"></path>
                    <path d="M76.1528571,31.0511882 C94.4219048,26.8255661 105.605238,56.3930307 126.532619,47.5755819 C108.544524,50.2816921 96.2671429,10.676889 76.1528571,31.0511882" id="Fill-18" fill="#CFD4D8"></path>
                </g>
            </g>
        </g>
    </g>
</svg>