<?xml version="1.0" encoding="UTF-8"?>
<svg width="200px" height="200px" viewBox="0 0 200 200" version="1.1" xmlns="http://www.w3.org/2000/svg" xmlns:xlink="http://www.w3.org/1999/xlink">
    <!-- Generator: Sketch 51.3 (57544) - http://www.bohemiancoding.com/sketch -->
    <title>roberts-wesleyan</title>
    <desc>Created with Sketch.</desc>
    <defs></defs>
    <g id="roberts-wesleyan" stroke="none" stroke-width="1" fill="none" fill-rule="evenodd">
        <g id="roberts-wesleyan_BGL" transform="translate(15.254237, 0.000000)">
            <g id="roberts-wesleyan">
                <g id="g10" transform="translate(84.444442, 99.876309) scale(-1, 1) rotate(-180.000000) translate(-84.444442, -99.876309) translate(0.000000, 0.031205)" fill-rule="nonzero">
                    <g id="g12" transform="translate(0.000000, 0.401163)">
                        <path d="M40.3338657,81.958121 L41.6732434,79.0706362 C41.4163101,80.0307539 40.9949768,81.0158328 40.3338657,81.958121 Z M67.9662205,27.7248458 C66.2302206,27.7248458 65.054665,27.4245082 64.6564428,26.8788368 C64.4355539,26.5770728 64.3648873,26.0742369 64.4453317,25.3798677 C66.5013317,25.7127441 67.9399983,26.3796113 68.6142205,27.3156592 C68.7088872,27.446795 68.7831094,27.5765045 68.8408872,27.7016675 C68.5342205,27.7173574 68.2417761,27.7248458 67.9662205,27.7248458 Z M52.1075543,26.4153149 C51.9168876,25.1038673 51.5195543,23.7391541 50.9444432,22.4874352 C52.7182209,22.7508658 55.3675542,23.2857503 56.9226652,24.6711903 C55.7533319,25.4066564 54.6186653,26.190708 53.5231098,27.0241917 C52.5919987,26.9011237 52.2062209,26.5673112 52.1075543,26.4153149 Z M61.1088874,22.329154 C61.6448873,21.8447715 62.275554,21.4216779 62.9626651,21.2308578 C63.2004429,21.1639973 63.447554,21.1127821 63.7013317,21.0776134 C63.6942206,21.0985185 63.6866651,21.119067 63.6799984,21.140819 L62.7826651,21.5416257 C62.2191096,21.793066 61.6617762,22.0564966 61.1088874,22.329154 Z M93.8911088,21.9379306 C93.4417754,19.8307531 93.5919977,17.8209693 94.0346643,16.0251392 C95.0657754,16.8591132 96.5399976,18.3943208 96.5453309,19.6249563 C96.5457754,19.846978 96.5493309,20.5239189 95.3382198,21.3767476 C95.1208865,21.5287439 94.465331,21.7768858 93.8911088,21.9379306 Z M56.9417764,7.16749667 C56.8715541,6.43376888 57.1933319,5.83113236 57.1977763,5.82346568 L57.2893319,5.65426389 C57.2795541,5.72509151 57.2728875,5.79685518 57.268443,5.86803939 C57.1671097,7.41978385 58.2897763,9.39702893 58.8822208,10.2545825 C59.0395541,10.7164998 59.348443,11.8080207 59.2351096,13.0235457 C58.9777763,12.6357545 58.6279985,12.2903083 58.1991097,11.997459 C58.1426652,11.7954955 58.1119985,11.5614836 58.1088874,11.2994347 C58.092443,10.0005123 57.9422208,8.25291101 56.9417764,7.16749667 Z M165.452885,183.02187 C165.671107,182.06621 165.448885,175.132324 164.553774,167.691189 C164.834663,168.393225 165.111107,169.121559 165.607996,171.03288 C165.607996,171.03288 167.047107,173.340461 168.623996,170.610767 C169.78444,147.857672 163.97244,133.369435 158.646218,124.847388 C160.137774,126.307622 160.848885,127.2771 161.558663,128.459195 C161.558663,128.459195 163.031107,128.910281 163.493329,127.286461 C164.00044,125.503958 163.470218,125.147814 163.395551,124.624519 C161.098663,108.43624 152.586218,94.2618013 138.06133,82.4083154 L143.69733,83.6644025 L140.385774,80.0222849 C140.287996,79.9144165 138.940441,78.4479415 136.58533,76.6168536 L139.234219,77.2725329 L137.815552,74.2963464 C136.567108,71.6780869 133.522219,69.5973862 130.42533,68.0680624 L133.258219,68.268644 L131.119108,65.510423 C126.267552,59.2545032 110.848442,55.0525399 99.4902197,55.0525399 C97.8093309,55.0525399 96.2071087,55.1403501 94.7048865,55.3132961 C95.2195532,53.9956973 95.9288865,52.0308883 96.7497754,49.1371632 C99.624442,46.8001638 104.776442,43.9696888 111.070664,42.7127548 C112.921331,42.2624712 114.656886,42.0418759 116.294219,42.0418759 C127.80933,42.0427674 132.091108,53.0275564 132.132886,53.1385449 L132.983997,55.3926373 L134.684886,53.6908131 C134.791552,53.5833905 145.240885,42.8295825 135.968885,26.9768544 L135.556885,26.2730802 L134.744441,26.2119696 C134.721774,26.2093398 134.432886,26.1887913 133.91333,26.1673959 L132.460441,24.7058686 C131.258663,23.4983669 129.98133,22.3377121 128.662219,21.2567997 L127.785775,20.3879245 L124.926219,18.47179 C122.743108,17.0088809 120.456441,15.7416504 118.130219,14.7058466 L117.791108,14.5538502 L117.861775,14.4779412 L115.626219,13.6889866 L115.515997,13.6261377 C114.345775,13.0503345 110.783108,11.2954231 107.781775,11.1685218 L106.440442,11.2285626 L104.73022,10.871126 C103.263553,10.5662418 101.876886,10.4105905 100.608442,10.4105905 C98.6319975,10.4105905 97.1319976,10.7785018 96.0119976,11.2646227 C97.0591087,9.48131781 98.0586642,8.39866704 98.084442,8.37134335 C98.084442,8.37134335 99.8871086,5.96850853 97.5737753,5.50449624 C95.2608865,5.04048394 94.8479976,6.44090067 94.117331,6.77034494 C94.9782198,6.22431703 95.5773309,5.98491165 95.5942198,5.97916164 C95.5942198,5.97916164 96.4755531,3.67506649 95.0582198,2.96641587 C93.6417754,2.25671776 94.8715532,2.96502071 94.8715532,2.96502071 C93.9359977,2.96502071 90.0924422,3.01986865 86.1066645,3.85423496 C86.2213312,3.69961769 86.3377756,3.54761243 86.4555534,3.39874517 C86.4555534,3.39874517 89.4715533,0.693156804 89.2471089,0.16854433 C89.0231089,-0.355719132 84.7488868,0.948586433 84.7488868,0.948586433 C75.160887,4.1404784 70.093776,8.81097383 67.5751094,12.038556 C67.386665,11.167452 67.1733317,9.98624876 67.2977761,9.06936761 C67.6808872,6.27686943 63.0359984,2.57866027 62.3888873,2.37093788 C62.1991096,2.3080845 61.9928873,2.26298482 61.7764429,2.23843808 C61.0542207,1.82212411 60.2711096,1.58724297 59.5742207,1.45543406 L58.9013319,1.353231 C58.4697763,1.30378093 58.1062208,1.29263751 57.8599986,1.29263751 C57.2657763,1.29263751 56.4226653,1.35096666 55.7839986,1.62554961 L56.028443,3.11476162 L55.0319986,3.72730242 C54.5235542,4.04018755 54.1044431,4.44274608 53.7582209,4.88657093 C53.8475542,4.57366351 53.9559987,4.39938923 53.9662209,4.38389541 L51.8506654,2.18585448 C49.8253321,3.47953501 49.0031099,5.48256597 48.6706654,6.84344582 C48.6666654,6.84834893 48.6328877,6.88628115 48.6195543,6.90232769 L46.3986655,5.82975058 C44.3057322,8.49494624 44.4884433,11.142045 44.7195544,12.3242734 C44.4702211,13.1095284 44.1459989,14.4784315 44.49111,15.5224369 C44.67511,16.0724764 44.9853322,16.6776982 45.3542211,17.3034685 C44.4724433,16.6496614 42.9958211,16.4097211 42.0925323,16.322847 L42.0921767,16.3166066 L42.0878656,16.3211086 C41.630399,16.2765349 41.3204879,16.2720329 41.3112879,16.2720329 C41.018399,16.2720329 40.7883545,16.2962365 40.585599,16.3470505 L40.5378657,16.3602889 L39.3633768,16.6611614 L37.4093768,17.162259 L37.4163102,17.1091717 L37.3590213,17.1751408 L36.9003546,17.7006202 L34.0548436,20.9585125 C32.7588436,22.4428615 32.5531103,24.4486783 32.8147547,25.8652753 C32.3821325,26.3862528 31.9263992,27.1885795 31.996177,28.4254999 C32.0453325,29.3432725 32.9176881,32.7259712 34.6798658,35.2515174 C35.100888,35.8541539 35.6789769,35.9527064 36.5548435,36.1015826 C37.7505324,36.3058193 39.977599,36.6838043 42.5704878,37.9090464 L42.8850656,38.0584575 L43.2435545,38.0601958 C43.9953322,38.0601958 44.4145767,37.5716234 44.6399989,37.3076579 C44.7302211,37.202152 44.8559989,37.0559056 45.0315544,36.886481 L46.5457766,37.2890261 C50.0164432,38.2085371 55.1577764,40.5049745 55.7195542,42.7287568 C55.7906653,43.0078773 56.0053319,43.8578979 54.4666653,45.3105105 C53.6937764,46.040182 52.6697765,46.4101438 51.4226654,46.4101438 C50.4199987,46.4101438 49.3155543,46.1690001 48.2297766,45.7139025 C45.5493322,44.5919823 44.7924433,43.6127425 44.7666655,43.2115792 C44.7413322,42.8072956 45.4226655,42.1569653 45.9222211,41.8684842 L49.7399988,39.6697078 L45.4004433,38.9725751 C45.3479989,38.9640169 44.1095545,38.7697201 42.4845323,38.7697201 C35.4996436,38.7697201 33.9649325,42.1355699 33.6715103,44.1422336 C33.6281325,44.4373561 33.5713325,44.7689399 33.5091992,45.1299869 C33.2614658,46.5817526 32.9307103,48.5158057 33.072577,50.3063316 C32.1906214,51.7830585 32.4059103,52.9589129 32.5699547,53.6640689 C32.0166659,54.6750006 31.081777,56.4909334 31.460577,59.3267127 C31.8977325,62.5993142 33.1142214,64.2503243 34.4015547,65.9980594 C35.1359547,66.9947275 35.8951547,68.0243801 36.6385324,69.5162621 C38.7597324,73.7703767 39.1593768,77.5685023 39.1628435,77.6063899 L39.6807101,82.783626 C38.7609324,83.817736 37.5045324,84.7684932 35.800888,85.5342695 C-5.10279987,103.926718 -0.559373319,126.125762 0.934546643,133.420249 L2.18454661,139.678397 L3.66857769,135.215232 C4.47448878,138.339403 6.01439985,141.66683 8.3795109,145.534937 C14.5951552,155.703982 14.7982663,167.921189 8.98453311,181.850473 C8.98453311,181.850473 8.26404424,183.028556 8.92466644,184.046174 C9.58471087,185.064683 10.4484442,184.606465 10.4484442,184.606465 C12.8338663,182.663497 15.7579996,179.376632 17.3517329,177.062811 C16.7171996,178.568065 15.9784885,179.818358 15.2232441,181.09584 C14.8112885,181.792527 14.4015552,182.486094 14.0091996,183.216657 C14.0091996,183.216657 13.2427108,184.453132 13.801733,185.421718 C14.4519107,186.548542 16.0369774,185.421718 16.0369774,185.421718 C25.3057327,178.877852 30.6671992,167.725065 31.9432436,151.718647 C33.2145769,135.781764 39.8564434,128.099485 41.5244879,126.405684 L41.5548434,126.405684 L42.0118212,125.939889 C45.0519989,122.842017 48.7733321,120.227769 53.073332,118.169801 C53.073332,118.169801 58.6879985,115.766832 58.484443,114.992587 C56.1719986,114.065899 54.8302209,112.597196 54.2728875,112.183997 C56.848443,112.82363 59.1973319,112.960917 60.7359985,112.960917 C61.6942207,112.960917 62.5439984,113.095084 63.8048873,112.673417 C65.8862206,111.977621 63.4964429,109.861262 63.4964429,109.861262 C60.5564429,109.251493 59.2982207,108.456744 58.5297763,107.78279 C63.239554,106.106373 74.0297759,101.060183 76.9924425,89.3060966 L77.4542203,87.4763459 L75.5742203,87.3680318 C70.5204427,87.0787484 69.7871094,85.8346963 69.7199983,85.6938433 C69.6195538,85.4821182 69.6995538,85.2106644 69.7866649,85.016323 C70.8782205,84.490799 71.9204426,84.2255854 72.8902204,84.2255854 C77.0026647,84.2255854 79.7168869,89.2913872 79.8728869,93.9836614 C80.1742202,103.07536 70.7488871,105.333464 67.8528872,105.808174 L66.6057761,106.013213 L66.4568872,107.297382 L66.4031095,108.551686 L67.6142205,108.872171 C86.0773312,113.745414 101.527109,120.895037 117.710664,132.054065 C138.05333,146.079627 158.956885,182.153128 158.33244,196.966754 C158.33244,196.966754 157.711552,198.732319 159.792885,198.964994 C161.873774,199.197223 161.425329,197.248906 161.425329,197.248906 C161.470663,196.920398 162.158663,191.828297 161.874663,183.901755 C161.835996,182.826637 161.779552,181.699368 161.700885,180.525742 C161.700885,180.525742 162.006218,183.661057 163.72444,184.351058 C164.881329,184.81507 165.452885,183.02187 165.452885,183.02187 Z" id="path14" fill="#FFFFFF"></path>
                        <path d="M149.772441,116.485806 C149.772441,116.485806 169.230662,132.295208 166.841329,169.349331 C164.449329,162.594631 161.270218,157.61976 161.270218,157.61976 C163.612885,167.444697 164.185329,181.589271 163.937774,182.674195 C161.623996,174.147245 158.581329,168.04243 158.581329,168.04243 C161.623996,184.608248 159.885774,197.032723 159.885774,197.032723 C160.524885,181.866519 139.456441,145.155614 118.590664,130.769896 C100.681775,118.419859 84.5262201,111.723997 68.0102205,107.364243 C67.926665,107.343293 81.8164424,105.704763 81.4262202,93.9324016 C81.2084424,87.3925473 76.4679981,79.7009084 68.6804427,83.8302166 C68.6804427,83.8302166 65.2151095,88.3352812 75.4853314,88.9249914 C71.9288871,103.034353 55.9582208,106.953273 55.9582208,106.953273 C55.9582208,106.953273 56.944443,109.785041 62.1217762,111.354035 C62.1217762,111.354035 54.9106653,112.024424 49.0591099,108.358236 C49.0591099,108.358236 50.9213321,112.537021 55.4786653,114.724253 C54.9004431,115.143246 48.9857766,114.000822 45.7826655,112.241052 C45.7826655,112.241052 49.3284432,115.914817 52.4039987,116.762609 C47.6226655,119.051023 43.8694656,121.824399 40.9038212,124.846496 C40.8986212,124.846496 31.9176881,132.490887 30.3934215,151.593395 C29.1164882,167.616305 24.0036438,177.866475 15.3781329,183.955689 C17.6142218,179.788939 20.4440884,176.871144 20.7643995,167.261053 C20.8347106,166.92051 17.6142218,176.586764 10.4180442,182.452218 C13.516133,175.030696 18.718044,159.466449 9.70453309,144.720129 C4.88506654,136.837269 3.99357768,131.775925 4.8118221,126.851867 L2.56093771,133.619939 C1.33350663,127.46743 -4.39305767,105.315635 36.4367991,86.9570622 C46.3719988,82.4898853 43.0331545,72.4447546 43.0331545,72.4447546 L40.7097323,77.4530564 C40.7097323,77.4530564 40.3199545,73.4128956 38.0291546,68.8182378 C35.8954658,64.5409449 33.617688,63.7346065 33.0010214,59.1198907 C32.622577,56.2850029 33.8121325,54.72002 34.1984436,53.9136817 C34.1581769,53.2169946 33.4958214,52.2787181 34.6807102,50.7008089 C34.3647547,48.5857865 34.9775991,45.9519261 35.2093769,44.3682669 C35.9862658,39.0542341 45.1568878,40.5117497 45.1568878,40.5117497 C45.1568878,40.5117497 39.4289768,43.7151283 47.6311099,47.1531875 C50.1857765,48.2225107 53.3808876,48.4765809 55.5319986,46.4458028 C62.4848873,39.8828593 46.9417766,35.7811868 46.9417766,35.7811868 C46.9417766,35.7811868 47.9479988,34.4100104 48.7377766,33.5176894 C44.3421767,34.3877235 43.4081767,36.5812402 43.2331545,36.4987343 C39.2939101,34.6386289 36.1151102,34.5900882 35.9536435,34.3583049 C34.3873325,32.1130827 33.5838658,29.0063399 33.5473769,28.3377343 C33.4663103,26.8896237 34.499288,26.5770728 34.5378658,26.227615 C34.1225769,25.3690362 34.0678658,23.3097755 35.2241325,21.9865159 C35.2241325,21.9865159 34.9701325,23.9672377 35.9524435,24.4674884 C36.137688,24.3894845 36.642888,24.0840654 36.8178657,24.0426564 C36.6034658,23.1934827 36.6498213,20.3586841 37.9750213,19.4658282 C37.9750213,19.4658282 37.2527991,21.7051221 38.7024435,23.039748 C38.8621324,22.8894901 39.0673768,22.7686507 39.3312435,22.7094123 C39.3847101,22.6968871 39.4307101,22.6968871 39.4814212,22.6885518 C39.7123101,21.9619558 40.1437323,20.8493515 40.7883545,20.1250287 L41.0001768,23.3097755 C42.8434212,25.2929489 42.7987989,27.2676087 42.7987989,27.2676087 C42.7987989,27.2676087 44.9208878,29.8643837 46.4693322,29.1729564 C48.0959988,28.4482771 46.3097766,26.418435 46.3097766,26.418435 C46.3097766,26.418435 43.4802211,23.5995046 43.4180434,23.4623068 C42.8890656,22.8297613 41.9802212,21.2567997 43.0635545,20.0813465 C43.0369767,20.0118561 43.0074656,19.9261854 42.9735989,19.825538 C42.5453323,18.5823773 40.9710212,17.8580546 40.9710212,17.8580546 C41.432799,17.7394439 43.8277767,18.0074211 44.4986656,18.6112611 C44.7617767,18.8475463 44.9279989,19.051783 45.0315544,19.2335546 C45.30311,19.209886 45.5826655,19.2260662 45.8635544,19.3009501 C48.3617766,19.9747708 50.1928876,23.751189 50.5928876,26.8088116 C50.8377765,27.63971 51.8577765,28.5511978 53.9977764,28.6230952 C56.4279986,26.7255924 59.5568874,24.6907136 63.415554,22.9652208 C62.0613318,27.2644886 62.7373318,29.9806765 70.5511093,29.1257974 C70.5511093,29.1257974 71.541776,24.8204231 64.3835539,23.793846 C64.3835539,23.793846 65.1497761,21.7725175 65.8355539,19.5338922 C64.8097762,19.400706 63.6786651,19.4141227 62.5462207,19.7284119 C59.7653318,20.5044401 58.1008874,23.6409582 58.1008874,23.6409582 C55.1902208,20.8742682 49.3564432,20.8993186 49.230221,20.6139577 C48.6173321,19.2304344 46.4897766,16.5991594 45.9662211,15.0298529 C45.6728877,14.1432818 46.3373322,12.4043724 46.3373322,12.4043724 C46.2315544,12.0571878 45.5337766,9.45100769 47.6195544,6.79521707 C47.6195544,6.79521707 47.1831099,8.57731845 48.226221,10.2181658 C48.7066654,10.0719194 49.1315543,10.0661694 49.2551099,10.0745493 C49.2551099,10.0745493 48.9911099,8.81008235 49.8328876,7.87840273 C49.8924432,7.80926891 49.9799988,7.74329982 50.0826654,7.67643926 C50.262221,6.66831573 50.8417765,4.67850087 52.685332,3.50130035 C52.685332,3.50130035 51.6231098,4.97259819 52.3271098,7.40097375 C52.7688876,7.5329565 53.1986653,7.79291036 53.5515542,8.24577922 C53.6324431,8.1886803 53.7062209,8.12721316 53.8031098,8.08125767 C53.8586653,8.05531577 53.9071098,8.04292428 53.9599987,8.01925564 C54.1995542,7.15180673 54.7404431,5.73623494 55.8453319,5.05474753 C55.8453319,5.05474753 55.0577764,6.40399364 55.5253319,7.99384863 C56.3471097,8.51357805 56.5377764,10.0162023 56.5546653,11.3199832 C56.564443,12.0446626 56.7186652,12.6201091 56.9635541,13.0748946 C57.460443,13.3271818 57.8782208,13.6757928 58.0759985,14.1338768 C58.3155541,14.6856547 59.5582207,15.1042018 60.5626652,14.3595089 C61.2351096,11.9966121 60.3462207,9.7193414 60.2697763,9.5204981 C59.7039985,8.76533035 58.7511096,7.01723871 58.8195541,5.96850853 C58.8471096,5.54140326 59.0626652,5.11937941 59.3795541,4.75877812 C58.676443,3.24273719 56.3986653,3.0581753 56.3986653,3.0581753 C57.1648875,2.72700603 59.7488874,2.68243232 61.2946651,3.77762168 C61.5079985,3.76961178 61.7186651,3.79050793 61.9168873,3.85649485 C62.1217762,3.92161704 65.9888872,7.17324668 65.7577761,8.85866769 C65.5079984,10.6905579 66.258665,13.0235457 66.2977761,13.5357868 C66.3457761,13.7889654 66.6342206,14.1659253 67.8057761,14.3924489 C70.485776,10.2350592 75.9195537,5.53115131 85.2382201,2.42891936 C83.8226646,4.21587036 82.5604424,6.49572633 82.5604424,6.49572633 C87.8604422,4.42307124 95.0359976,4.52423127 95.0359976,4.52423127 C95.0359976,4.52423127 89.4986644,6.66203083 87.1559978,13.070883 C87.1559978,13.070883 90.9902199,9.437591 96.9533309,7.30206469 C96.9533309,7.30206469 89.9235533,14.7810424 92.7195532,23.5808728 C93.1639977,23.8843752 95.5075532,23.1617908 96.2311087,22.6523134 C101.30222,19.0846784 94.4426643,14.3835341 94.4426643,14.3835341 C94.4426643,14.3835341 96.5186643,10.7511336 104.413775,12.3977755 C103.18622,16.0893699 102.623997,19.8009779 102.623997,19.8009779 C104.403109,17.0088809 106.119553,14.6745113 107.716886,12.7257934 C110.796442,12.8555029 114.882219,15.0787948 115.109775,15.159072 C111.395553,19.1715526 108.856442,23.2751418 108.856442,23.2751418 C112.084886,20.100112 115.003997,17.7977909 117.498664,16.129932 C119.892441,17.1965808 122.076441,18.4375128 124.062664,19.7680825 C117.094664,21.627653 113.412886,25.3204955 113.412886,25.3204955 C120.775553,22.4486115 124.355108,22.6693851 127.679997,22.4642569 C129.021775,23.5638011 130.245775,24.6863453 131.359552,25.8072849 C126.198219,26.1442176 122.043108,28.3863196 122.043108,28.3863196 C129.356886,27.368791 134.627997,27.7659428 134.627997,27.7659428 C143.399552,42.7613402 133.586219,52.5867224 133.586219,52.5867224 C133.586219,52.5867224 127.718663,37.042489 110.767108,41.184367 C104.483553,42.4395626 98.7959975,45.3283399 95.3848865,48.2483635 C93.1199977,56.3906426 91.6755533,57.3788417 92.7755532,57.176477 C105.277331,54.8466094 124.926664,60.0648532 129.891552,66.4674205 C125.899997,66.1839318 121.634219,66.4674205 121.634219,66.4674205 C121.634219,66.4674205 133.866219,69.6259134 136.412885,74.9685179 C133.047997,74.1358811 129.238663,73.4084382 128.431997,73.4298336 C135.110663,76.5343923 139.23733,81.0728871 139.23733,81.0728871 L131.413774,79.328718 C161.426218,100.422779 161.369329,124.118162 162.123996,126.384735 C162.123996,126.384735 158.36444,121.177189 149.772441,116.485806" id="path16" fill="#231F20"></path>
                        <path d="M60.2848874,111.340996 C60.2848874,111.340996 60.1047582,111.263662 59.7848874,111.122329 C59.9133204,111.075662 60.0474076,111.031662 60.1814948,110.995662 C60.2162283,111.106329 60.2558082,111.226329 60.2848874,111.340996" id="path18" fill="#871C30"></path>
                        <path d="M59.3982207,112.300307 C59.3982207,112.300307 59.2180965,112.233641 58.8982207,112.097641 C59.0255499,112.053641 59.1606431,112.020307 59.2918543,111.984307 C59.3291214,112.090974 59.3679412,112.198974 59.3982207,112.300307" id="path20" fill="#871C30"></path>
                        <path d="M156.568441,130.649101 C156.568441,130.649101 149.000885,122.85628 135.340441,118.925325 C160.249774,133.316392 162.19244,150.648432 162.19244,150.648432 C158.408885,143.571911 150.228441,138.855121 150.228441,138.855121 C158.70444,149.536318 160.332885,166.224714 160.332885,166.224714 C153.379552,149.005891 144.902663,142.248517 144.902663,142.248517 C152.031996,150.521843 155.552885,172.109335 155.552885,172.109335 C137.079108,122.849594 78.3968869,106.064027 78.3968869,106.064027 C84.2182201,102.357724 85.8404423,97.351205 85.5697756,93.204513 C84.9733312,84.0776007 77.7448869,80.1279245 77.7448869,80.1279245 C98.476442,86.3343675 88.2559978,104.805266 88.2559978,104.805266 C116.276442,112.189346 125.342664,125.247214 125.342664,125.247214 C121.647997,113.038921 107.955553,104.104122 107.955553,104.104122 C122.41333,106.856102 133.015108,115.546638 133.015108,115.546638 C126.646219,103.666408 110.780886,96.0380635 110.780886,96.0380635 C129.254219,99.307545 138.817774,105.846062 138.817774,105.846062 C127.72933,86.9615196 96.6546643,81.6523453 96.6546643,81.6523453 C117.519108,81.6523453 131.427997,91.461681 131.427997,91.461681 C126.646219,84.049965 111.433331,77.5105565 111.433331,77.5105565 C150.55333,86.0120996 157.292441,116.527705 157.292441,116.527705 C147.412441,110.91231 138.569774,109.522947 138.569774,109.522947 C151.863996,120.189881 156.568441,130.649101 156.568441,130.649101" id="path22" fill="#C21B32"></path>
                        <path d="M60.2848874,111.340996 C60.2848874,111.340996 60.1047582,111.263662 59.7848874,111.122329 C59.9133204,111.075662 60.0474076,111.031662 60.1814948,110.995662 C60.2162283,111.106329 60.2558082,111.226329 60.2848874,111.340996" id="path24" fill="#871C30"></path>
                        <path d="M59.3982207,112.300307 C59.3982207,112.300307 59.2180965,112.233641 58.8982207,112.097641 C59.0255499,112.053641 59.1606431,112.020307 59.2918543,111.984307 C59.3291214,112.090974 59.3679412,112.198974 59.3982207,112.300307" id="path26" fill="#871C30"></path>
                        <path d="M46.7391099,75.4726466 L51.4435543,83.2676965 L51.8519987,79.1660239 C56.1475542,83.0622117 62.3408873,84.4431051 62.3408873,84.4431051 C57.1235541,87.0586903 50.5786654,85.1397922 50.5786654,85.1397922 C54.273332,90.1534427 70.5728871,91.6783093 70.5728871,91.6783093 C65.7911095,100.832857 57.9671097,101.704273 57.9671097,101.704273 C53.6195542,100.396926 47.002221,95.3614347 47.002221,95.3614347 C48.6439988,100.347895 52.7528876,106.89399 52.7528876,106.89399 C46.6671099,105.325887 42.5378656,102.989779 42.5378656,102.989779 C43.1919989,105.362437 48.5297766,110.079227 48.5297766,110.079227 C43.4397767,108.860136 39.2501768,105.501953 39.2501768,105.501953 C40.3109323,109.078993 44.5666656,117.635808 44.5666656,117.635808 C29.3842215,129.136715 25.1425327,142.614467 25.1425327,151.118239 C25.1425327,164.040603 22.323955,170.584468 22.323955,170.584468 C24.2418216,159.161119 19.3147551,147.426645 19.3147551,147.426645 C19.9272439,162.809922 16.2388885,169.931464 16.2388885,169.931464 C19.9333328,157.505206 15.5626663,149.889788 10.4480886,140.582352 C3.24097325,127.47367 11.7652886,115.469525 11.7652886,115.469525 C6.44808873,117.52259 3.99357768,123.675991 3.99357768,123.675991 C5.17031098,112.582486 14.2501774,100.987528 39.4932435,88.4092736 C48.9897766,83.6777746 46.7391099,75.4726466 46.7391099,75.4726466" id="path28" fill="#C21B32"></path>
                        <path d="M90.9217755,53.7937784 C90.1524422,54.4971515 89.6391089,54.9442258 89.6391089,54.9442258 C90.05822,54.5279073 90.4871088,54.1503681 90.9217755,53.7937784" id="path30" fill="#121722"></path>
                        <path d="M72.0564427,44.7635911 C71.8738669,44.5245869 71.7056851,44.2733694 71.5564427,44.0111423 C71.7011396,44.2862512 71.864776,44.5393853 72.0564427,44.7635911" id="path32" fill="#121722"></path>
                        <path d="M71.4284427,35.3781067 C71.5694348,35.0875307 71.7391476,34.7955284 71.9284427,34.4969291 C71.8579466,34.5037043 71.8096437,34.5063342 71.7639518,34.5111927 C71.6647351,34.7274643 71.5524635,35.0228989 71.4284427,35.3781067" id="path34" fill="#121722"></path>
                        <path d="M43.2635545,49.5178227 C43.2739545,49.5178227 43.2780878,49.5178227 43.2832878,49.5178227 C43.2780878,49.5178227 43.2739545,49.5178227 43.2635545,49.5178227" id="path36" fill="#121722"></path>
                        <path d="M78.2528869,55.3988776 C75.6884426,56.2497897 73.0906648,56.8497518 70.5164427,56.8194416 C67.0217761,56.7766509 63.939554,55.2232572 60.8671096,52.8568391 C60.643554,51.9756169 64.0146651,54.4093413 71.2244427,49.6225709 C71.5746649,49.3876674 66.7324428,46.8563266 67.1488872,46.8928771 C71.2733316,47.2561528 73.0888871,45.1032427 73.1324426,45.1848126 C68.1373316,38.7787686 72.4275537,32.2468038 72.4275537,32.2468038 C72.4275537,32.2468038 75.7217759,24.3203506 67.9079983,22.5650826 C68.8195538,17.7723839 79.7497758,9.77416706 87.7977756,7.7509665 C81.9395535,12.6728844 79.867998,20.7962642 79.4688869,23.2974286 C80.9911091,22.27259 84.9782201,17.7680157 86.6355534,16.9862374 C86.0862201,17.246013 83.5706646,21.5487575 81.6617757,27.7056791 C83.2088868,25.0344214 85.6244423,22.946589 88.8155533,21.7060136 C85.0079979,27.6759039 83.811109,31.3518529 83.811109,31.3518529 C83.811109,31.3518529 86.5568867,30.1577679 87.9431089,29.9486726 C87.9351089,29.9529963 86.4586645,35.0305655 86.3062201,35.3732482 C85.4142201,37.3858402 84.3328868,39.2922577 83.1262201,41.0743145 L88.5235533,37.7971218 C88.7319978,39.539508 87.5991089,44.4337011 83.2515535,50.4511961 C81.6084424,52.4726137 79.9168869,54.0924222 78.2528869,55.3988776" id="path38" fill="#C21B32"></path>
                        <path d="M66.8439983,62.1455539 C66.8439983,62.1455539 70.8142205,65.0383875 81.0262202,63.1172607 C80.2782202,64.2561189 75.068887,67.1712394 70.3919982,68.4460474 C70.3919982,68.4460474 75.1675537,72.6301813 74.4959981,72.734038 C69.377776,73.5198725 64.2324428,72.8111505 64.2324428,72.8111505 C64.0053317,73.4730701 69.0293316,76.9306525 73.3671093,78.320015 C62.8839984,78.1501892 57.1235541,73.8671016 54.0595542,73.3602986 C52.5888876,73.1169262 57.1253319,77.5716224 66.3679983,82.5950792 C48.7853321,79.1152099 42.0375101,67.1881774 42.0375101,67.1881774 L41.6472434,70.3618253 C41.0262212,68.1893028 39.8086657,66.780328 38.635599,64.9706354 C37.4180435,63.0949739 36.1281324,59.2460342 36.1689324,57.2656244 C36.188888,56.169557 37.9223991,55.1702145 38.2718657,55.3057185 C38.4663101,55.3841683 38.7900879,55.420273 39.211999,55.1470361 C39.931599,54.6821324 40.7093768,53.4652702 41.0904434,52.670521 C41.4463545,52.0014696 42.7024434,51.0756737 42.7024434,51.0756737 C42.7024434,51.0756737 46.0413322,53.1639519 49.7679988,55.1403501 C51.1559987,56.1093825 54.2822209,60.126365 55.5662208,59.5928177 C57.108443,59.5727595 67.6382205,57.3904308 68.382665,60.3461133 C68.382665,60.3461133 63.9808873,54.2145542 58.2897763,51.6185815 C65.4582206,56.289906 75.8071092,51.8334268 85.1675534,47.9925104 C79.2115536,59.7269845 66.8439983,62.1455539 66.8439983,62.1455539" id="path40" fill="#C21B32"></path>
                        <path d="M41.4605767,41.9835735 C41.4628434,41.9772886 38.1645768,41.8249357 37.3147546,44.6784553 C36.8751546,46.153845 37.8008879,50.395479 37.8008879,50.395479 C38.8708435,50.3032114 40.044799,49.0284034 40.044799,49.0284034 C40.044799,49.0284034 41.9055545,47.9751267 44.7195544,49.8169122 C37.8234213,43.1010364 41.4605767,41.9835735 41.4605767,41.9835735" id="path42" fill="#F9AB16"></path>
                        <path d="M41.417199,48.7261936 C40.5699545,48.7587324 40.044799,49.0284034 40.044799,49.0284034 C40.044799,49.0284034 38.7032879,50.841216 36.9475546,50.3624944 C36.9475546,50.3624944 36.7496435,46.1614225 37.1859546,44.6838041 C37.7600879,42.7416386 39.4032879,42.0521725 40.7331545,42.0330058 C38.8824435,44.4788097 39.9645768,46.8233421 41.417199,48.7261936" id="path44" fill="#F9AB16"></path>
                        <path d="M39.3980879,43.1424899 C39.3980879,43.1424899 37.5505324,45.2525646 40.044799,49.0284034 C40.044799,49.0284034 39.7887101,49.4447218 39.2362657,49.8360789 C38.7557324,50.1761763 38.2913324,50.2951881 38.2913324,50.2951881 C38.044799,49.4277838 37.1191102,43.8948495 39.3980879,43.1424899" id="path46" fill="#F9AB16"></path>
                        <path d="M61.3573318,47.5209206 C61.3573318,47.5209206 59.8333318,43.3667402 59.9742207,43.3510503 C59.9742207,43.3510503 61.7568873,34.4091635 70.0124427,31.7230628 C70.0124427,31.7230628 61.9168873,36.668159 61.3573318,47.5209206" id="path48" fill="#C21B32"></path>
                        <path d="M58.5359985,41.1415316 C58.5359985,41.1415316 57.7186652,36.4715443 51.4359987,34.3974852 C51.4359987,34.3974852 58.9875541,29.8412054 61.9159985,25.5470191 L57.8599986,34.1363278 C57.8599986,34.1363278 61.3146651,31.341913 62.1426651,31.8750591 C62.1426651,31.8750591 58.5413319,38.2790527 58.5359985,41.1415316" id="path50" fill="#C21B32"></path>
                        <path d="M36.1099102,51.7959848 C36.1099102,51.7959848 35.2314213,53.2972273 37.3789768,53.4625958 C38.5482657,53.5508517 39.6871546,52.8367809 39.8164879,51.0743365 L39.427599,50.3032114 C38.0630213,51.9916634 36.1099102,51.7959848 36.1099102,51.7959848" id="path52" fill="#A99782"></path>
                        <path d="M44.6999989,57.1916321 C44.6999989,57.1916321 46.5519988,56.2359718 47.7151099,56.756147 C49.7759988,57.678377 49.446221,60.2917334 47.0635544,61.4234598 C47.0635544,61.4234598 44.1810656,58.1963234 44.6999989,57.1916321" id="path54" fill="#F9AB16"></path>
                        <path d="M43.2713323,53.5856192 C42.9211989,54.0224415 41.6185767,57.0744032 45.0333322,60.1464231 C48.3404432,63.1270669 48.2106655,65.7653846 48.2048877,65.7907917 C48.2048877,65.7907917 50.0999987,62.6389848 46.3484433,58.7552777 C42.9333323,55.2196913 44.1133767,54.2649225 44.1194656,54.2591279 C44.1142211,54.2613566 43.2713323,53.5856192 43.2713323,53.5856192" id="path56" fill="#121722"></path>
                        <path d="M47.4693321,62.564101 C47.2013322,62.1731896 46.9017766,61.8125883 46.5804433,61.4840801 L46.4675544,60.8181489 C46.4888877,60.8136915 48.6124432,60.4722569 48.8688877,58.9848323 C49.0675543,57.8129896 48.294221,56.6794802 46.8008877,56.756147 C45.3595544,56.8314765 44.5764433,58.2007808 44.5395544,58.2636297 L43.57311,56.9576201 C44.13991,55.9462427 46.0737766,55.5571142 46.9537766,55.7581417 C48.142221,56.0269211 50.210221,56.9094805 49.9115543,59.5977208 C49.6937765,61.5665414 48.4479988,62.3274146 47.4693321,62.564101" id="path58" fill="#121722"></path>
                        <path d="M46.7951099,59.6574496 C47.2551099,59.1831853 47.3279988,58.4454905 46.9497766,58.0100053 C46.5773322,57.5718458 45.8955544,57.6083962 45.4319989,58.0786489 C44.96711,58.5524674 44.8942211,59.2910537 45.2742211,59.7283218 C45.6497766,60.1624697 46.3297766,60.133051 46.7951099,59.6574496" id="path60" fill="#121722"></path>
                        <path d="M42.0088434,34.460869 C41.9215101,34.2798106 38.2206657,31.9530631 38.151199,31.8042315 C37.5430657,30.4563671 36.6463546,29.3615478 36.5661324,29.0981171 C36.0383547,27.3668744 36.3043546,26.9179726 36.3043546,26.9179726 L36.362488,26.8605171 C36.2235991,26.8370267 35.075688,27.0954205 35.1312436,28.5196842 C35.1312436,28.5196842 36.2783102,32.2504589 37.4927102,32.7522697 C39.3152879,33.5051641 42.0201323,34.4795008 42.0088434,34.460869" id="path62" fill="#F9AB16"></path>
                        <path d="M51.5186654,32.4799689 C50.8386654,32.3185675 49.8124432,32.1118792 48.7075543,32.0021833 C46.7631099,31.8073516 44.2513767,33.3468829 44.2513767,33.3468829 L39.4272435,30.5160959 C39.4272435,30.5160959 36.7779546,26.7205556 38.5765768,25.703339 C39.6567546,25.0927238 40.9415101,27.2742502 41.0560879,28.0457319 C41.145999,28.6706553 40.3086657,29.7226394 40.3086657,29.7226394 C40.3086657,29.7226394 41.6090212,29.4943774 42.0126656,29.788653 C42.5716878,30.1920896 43.7657767,30.800075 44.0661322,31.039837 C45.1866655,31.9184293 48.4039988,30.4563671 48.4039988,30.4563671 C48.4039988,30.4563671 51.8537765,32.1750847 51.5186654,32.4799689" id="path64" fill="#F9AB16"></path>
                        <path d="M44.5079989,22.7308522 C43.6026211,21.1039119 45.7186655,21.2045594 46.2973322,21.7850427 C47.8315544,23.3249306 48.0239988,24.7544094 48.0239988,24.7544094 C48.0239988,24.7544094 47.4631099,26.1005353 47.4084433,27.0205367 C47.4084433,27.0205367 47.1213322,25.8215931 46.4097766,24.7647059 C45.5444433,23.4788436 44.5795544,22.8631916 44.5079989,22.7308522" id="path66" fill="#F9AB16"></path>
                        <path d="M57.7542208,20.8364697 C57.7542208,20.8364697 57.8626652,20.121552 56.240443,19.4015975 C55.0799986,18.8881084 52.6951098,18.4066678 51.5311098,17.9694888 C50.1857765,17.464023 48.7559988,12.3174982 48.7559988,12.3174982 C48.6004432,12.3469169 47.2235544,12.998629 47.8315544,14.5952592 C47.8315544,14.5952592 48.8297766,17.5611491 50.6484432,18.9924109 C50.9315543,19.2158143 57.7542208,20.8364697 57.7542208,20.8364697" id="path68" fill="#F9AB16"></path>
                        <path d="M57.7542208,20.8364697 C57.7542208,20.8364697 50.9315543,19.2158143 50.6484432,18.9924109 C50.6288876,18.9767209 50.6111098,18.9607189 50.5919987,18.9438255 C50.9191098,18.6460731 51.1959987,18.2929602 51.4071098,17.8963434 C51.4484432,17.9209035 51.4897765,17.9525954 51.5311098,17.9694888 C52.6951098,18.4066678 55.0799986,18.8881084 56.240443,19.4015975 C57.8626652,20.121552 57.7542208,20.8364697 57.7542208,20.8364697" id="path70" fill="#F9AB16"></path>
                        <path d="M54.0159986,17.8580546 C53.1844431,17.3886043 52.461332,17.0379429 52.3719987,16.9571754 C51.9351098,16.5676458 50.7266654,13.2161042 50.5111098,12.1659922 C50.2946654,11.1165934 50.050221,9.31327493 51.1986654,9.21561394 C52.1817765,9.12909637 52.8924431,10.2342123 52.9395542,11.5749003 C52.9484431,11.7954955 51.9004431,11.9689318 51.8702209,12.2011608 C51.8475543,12.3745971 52.9462209,12.7275317 53.0506653,13.0789063 C53.3657764,14.1201035 54.0742209,15.6096676 54.0742209,15.6096676 C54.0742209,15.6096676 54.3559986,15.7113403 54.7484431,15.8570963 C54.5151097,16.5377368 54.2542209,17.1948424 54.0159986,17.8580546" id="path72" fill="#F9AB16"></path>
                        <path d="M68.6742205,19.0303431 C67.7431094,18.8524048 60.8591096,16.725927 57.7542208,20.8364697 C56.9768875,20.3496357 57.3475541,20.5105022 56.240443,19.4015975 C55.1471097,18.3069118 52.5475542,17.1149217 52.3719987,16.9571754 C52.3644431,16.9482606 52.3528876,16.9331502 52.3444431,16.9233885 C52.8702209,16.70052 53.3524431,16.3639439 53.7546653,15.9288154 C53.7319987,15.9560054 53.7088875,15.9859589 53.6875542,16.0153775 C53.7999987,15.8950731 53.9279987,15.7942474 54.0479986,15.6853984 C54.0697764,15.6641813 54.0857764,15.6413596 54.1057764,15.6208111 C54.3817764,15.7198984 56.452443,16.5230721 57.1017764,16.8694098 C60.8591096,18.8760735 63.1573318,16.4182793 63.1573318,16.4182793 C63.1573318,16.4182793 66.0697761,16.1111219 68.6742205,19.0303431" id="path74" fill="#F9AB16"></path>
                        <path d="M64.1453317,12.486388 C64.2093317,13.4741413 62.6297762,14.5693173 62.5333318,13.9279017 C62.2262207,11.9034531 61.8844429,11.4911463 62.0857762,10.5796585 C62.2097762,10.0125472 63.2728873,9.47503291 63.2728873,9.47503291 C63.2728873,9.47503291 61.8048873,9.28612954 61.5959985,9.00963884 C61.2977762,8.6135123 60.6346652,7.87127093 60.4142207,7.52408633 C60.0386652,6.93887813 60.8693318,5.91314798 61.7408873,6.27914269 C62.611554,6.6451374 63.7786651,8.59247351 63.9346651,9.23215078 C64.0671095,9.76650039 64.039554,10.8479477 64.1453317,12.486388" id="path76" fill="#F9AB16"></path>
                        <path d="M119.705775,71.6161294 C104.612442,66.5431958 87.6666645,66.6385836 87.6666645,66.6385836 C89.0399978,66.5093198 106.367108,64.0550915 124.447552,70.2026972 C123.520886,70.8178143 120.663108,71.0714387 119.705775,71.6161294" id="path78" fill="#C21B32"></path>
                        <path d="M111.265331,63.1497995 C100.236442,60.0372175 89.67022,60.797645 89.67022,60.797645 C90.7031088,60.675513 108.03422,58.0568077 117.516442,62.7566594 C117.484442,62.8212913 117.457775,62.8917177 117.432886,62.9563496 C115.378664,63.1021056 113.323553,63.1560398 111.265331,63.1497995" id="path80" fill="#C21B32"></path>
                        <path d="M132.405774,30.151483 C132.405774,30.151483 124.827997,29.8683954 115.347553,31.2404187 C115.347553,31.2404187 120.40933,26.4704971 125.208886,24.8280897 C125.208886,24.8280897 114.546219,26.3693594 103.256886,34.5754234 C103.256886,34.5754234 109.443997,32.1130827 112.950219,33.9014244 C107.512886,35.4295002 101.804442,38.4413456 96.784442,44.0059272 C96.784442,44.0059272 107.980886,35.6937777 120.288441,36.6132887 C125.443552,36.9975587 132.511997,39.0065402 133.576441,43.7005082 C133.576441,43.7005082 136.34133,37.7253582 132.405774,30.151483" id="path82" fill="#C21B32"></path>
                        <path d="M71.3302204,14.3684236 L73.5777759,13.7541088 C73.5777759,13.7541088 77.100887,8.27296918 80.931998,6.12259983 C80.931998,6.12259983 73.7817759,10.2202607 71.3302204,14.3684236" id="path84" fill="#C21B32"></path>
                        <path d="M48.4897766,50.1044127 C48.4897766,50.1044127 55.0679986,51.9845316 54.4551097,58.746363 L55.8368875,57.8905478 C55.8368875,57.8905478 57.1111097,51.8276322 48.4897766,50.1044127" id="path86" fill="#C21B32"></path>
                        <path d="M35.4255102,56.9232984 C35.4255102,56.9232984 34.188888,59.7309962 38.635599,64.9706354 C41.0444434,67.8077519 41.6472434,70.3618253 41.6472434,70.3618253 C41.6472434,70.3618253 41.0930656,66.822673 39.7145768,64.8230965 C38.3352435,62.8266401 36.0053769,59.6864225 37.0213324,57.4457022 L35.4255102,56.9232984" id="path88" fill="#C21B32"></path>
                    </g>
                </g>
            </g>
        </g>
    </g>
</svg>