<?xml version="1.0" encoding="UTF-8"?>
<svg width="200px" height="200px" viewBox="0 0 200 200" version="1.1" xmlns="http://www.w3.org/2000/svg" xmlns:xlink="http://www.w3.org/1999/xlink">
    <!-- Generator: Sketch 51.3 (57544) - http://www.bohemiancoding.com/sketch -->
    <title>rust</title>
    <desc>Created with Sketch.</desc>
    <defs></defs>
    <g id="rust" stroke="none" stroke-width="1" fill="none" fill-rule="evenodd">
        <g id="rust_BGL">
            <g id="rust" transform="translate(0.000000, 1.000000)">
                <path d="M93.4857143,1.4295977 C94.48,1.87563218 96.3542857,2.17298851 95.6,3.69408046 C93.9428571,7.03362069 92.2971429,10.3045402 91.28,13.9071264 C92.4228571,13.9871839 93.5657143,14.0786782 94.7085714,14.1587356 C95.4628571,12.1801724 96.1714286,10.213046 96.5828571,8.14298851 C97.4514286,6.51896552 98.3085714,4.90637931 99.2114286,3.31666667 C98.08,2.58471264 96.96,1.82988506 95.8514286,1.07505747 C98.6171429,1.20086207 101.36,1.40672414 104.102857,1.79557471 C105.497143,1.28091954 106.902857,0.766264368 108.297143,0.263045977 C110.125714,1.05218391 111.942857,1.97856322 113.851429,2.5504023 C116.4,3.01931034 118.777143,2.37885057 121.302857,3.32810345 C125.04,4.78057471 129.074286,5.15798851 132.754286,6.7133908 C137.268571,8.90925287 141.897143,9.02362069 145.668571,12.7405747 C149.371429,13.8499425 151.817143,16.1144253 154.788571,18.3674713 C158.571429,19.8885632 160.697143,20.9864943 163.051429,24.406092 C166.925714,26.0644253 168.674286,28.9808046 171.314286,31.9886782 C174.411429,34.2417241 176.354286,35.9114943 177.851429,39.5483908 C180.857143,41.9501149 182.388571,44.6835057 184.068571,48.0687931 C186.674286,51.2482184 189.04,53.4898276 189.782857,57.7786207 C192.914286,61.2554023 194.468571,63.6456897 194.731429,68.4948851 C196.468571,71.6857471 197.234286,74.1103448 197.142857,77.8272989 C199.291429,82.0703448 199.84,84.2318966 198.651429,88.9895977 C199.108571,89.9731609 199.565714,90.9567241 200,91.9517241 L200,97.5557471 C198.857143,102.370632 199.577143,106.956782 196.96,111.40569 C197.451429,115.305632 197.451429,117.478621 195.142857,120.841034 C195.691429,122.213448 196.262857,123.585862 196.834286,124.958276 C195.577143,127.337126 194.24,129.67023 192.834286,131.969023 C192.502857,135.891839 191.828571,137.916149 189.348571,140.946897 C189.131429,142.685287 189.028571,144.538046 188.468571,146.219253 C186.822857,148.483736 184.685714,150.187816 183.44,152.761092 C181.531429,156.958391 177.36,158.765402 175.2,162.814023 C173.714286,165.604598 171.234286,166.325115 168.537143,167.51454 C167.257143,169.241494 166.125714,171.151437 164.354286,172.409483 C158.182857,176.561034 152.251429,180.975632 145.862857,184.852701 C142.857143,186.282299 139.645714,186.533908 136.834286,188.455287 C133.097143,190.948506 128.834286,191.600402 124.834286,193.533218 C120.788571,195.580402 116.388571,195.317356 112.194286,196.952816 C108.582857,198.416724 104.491429,197.227299 100.582857,197.936379 C97.7028571,198.451034 95.1771429,197.593276 92.4457143,196.838448 C89.4285714,197.467471 86.8914286,198.576839 83.8057143,197.375977 C80.7771429,196.129368 77.6228571,196.117931 74.4914286,195.363103 C71.7257143,194.150805 69.28,192.583966 66.2514286,192.023563 C62.1485714,191.245862 60.1257143,187.403103 56,186.35092 C52.9257143,185.447414 51.0057143,183.548908 48.9257143,181.227241 C46.8685714,180.666839 44.4685714,180.41523 42.6285714,179.317299 C41.04,177.841954 39.8285714,175.886264 38.2971429,174.353736 C36.1485714,172.523851 33.7371429,171.574598 32.1142857,169.138563 C29.9885714,165.913391 26.7771429,163.85477 24.4342857,160.824023 C22.9371429,158.891207 21.2342857,157.164253 19.6,155.357241 C17.1542857,152.726782 17.2685714,149.227126 14.2742857,146.996954 C11.0971429,144.286437 9.90857143,142.422241 8.91428571,138.33931 C6.17142857,134.633793 5.53142857,133.135575 6.14857143,128.446494 C5.15428571,126.856782 4.04571429,125.209885 3.37142857,123.471494 C2.93714286,121.378563 3.78285714,119.07977 3.78285714,116.952529 C3.22285714,114.836724 2.10285714,112.881034 1.53142857,110.76523 C1.46285714,108.935345 1.81714286,107.036839 2.05714286,105.218391 C1.36,103.091149 0.182857143,100.666552 0.342857143,98.402069 C0.72,96.0117816 1.78285714,93.6786782 2.60571429,91.4141954 C2.34285714,89.2068966 1.82857143,86.8394828 2.12571429,84.6321839 C2.73142857,83.0653448 3.64571429,81.5556897 4.46857143,80.0803448 C3.15428571,74.8651724 4.06857143,72.1317816 6.50285714,67.5913793 C6.75428571,63.4283908 7.52,61.5756322 9.95428571,58.3275862 C10.32,53.7643103 12.7085714,51.1452874 15.1657143,47.5998851 C16.9257143,43.6084483 18.7542857,40.897931 21.6342857,37.6498851 C23.5428571,33.6355747 24.3657143,30.6505747 28.72,28.6377011 C33.7371429,23.6970115 39.9885714,19.9 45.9085714,16.1258621 C51.8171429,11.7455747 58.5942857,8.01718391 65.7371429,6.11867816 C71.0971429,3.8541954 76.64,3.88850575 82.24,2.48178161 C85.7485714,1.70408046 89.9657143,0.28591954 93.4857143,1.4295977 Z" id="Shape" fill="#40368D" fill-rule="nonzero"></path>
                <path d="M109.622857,2.20729885 C109.097143,3.32810345 108.571429,4.43747126 108.045714,5.54683908 C108.48,6.2787931 108.914286,7.01074713 109.348571,7.75413793 C108.068571,8.34885057 106.788571,8.94356322 105.508571,9.53827586 C104.64,11.0593678 103.76,12.5804598 102.88,14.1015517 C101.725714,13.9986207 100.571429,13.8956897 99.4285714,13.7927586 C100.754286,10.9335632 101.76,7.79988506 103.497143,5.16942529 C104.937143,3.56827586 107.691429,3.03074713 109.622857,2.20729885 Z" id="Shape" fill="#FFFFFF" fill-rule="nonzero"></path>
                <path d="M91.6457143,3.22517241 C90.3771429,5.37528736 88.9485714,7.42247126 87.4857143,9.44678161 C88.1828571,10.476092 88.88,11.5054023 89.5657143,12.5461494 L87.4628571,11.9056897 C85.9085714,13.5868966 84.2971429,15.1994828 82.5485714,16.6862644 C83.28,12.8892529 83.9314286,8.88637931 85.3942857,5.29522989 C86.4342857,3.53396552 89.8857143,3.7283908 91.6457143,3.22517241 Z" id="Shape" fill="#FFFFFF" fill-rule="nonzero"></path>
                <path d="M79.7714286,3.8541954 C79.1542857,7.13655172 78.7314286,10.3502874 78.9142857,13.7127011 C77.5314286,15.1766092 76.1028571,19.270977 73.7257143,18.5047126 C73.5657143,14.3074138 74.5142857,10.0071839 75.7371429,5.99287356 C77.0514286,5.23804598 78.4114286,4.55183908 79.7714286,3.8541954 Z" id="Shape" fill="#FFFFFF" fill-rule="nonzero"></path>
                <path d="M120.948571,4.20873563 C119.942857,5.12367816 118.948571,6.01574713 117.942857,6.90781609 C116.948571,9.19517241 115.84,11.413908 114.822857,13.6898276 C112.674286,14.1129885 110.525714,14.4332184 108.32,14.5933333 C110.24,11.7112644 112.24,8.53183908 114.788571,6.15298851 C116.262857,4.5404023 118.937143,4.7233908 120.948571,4.20873563 Z" id="Shape" fill="#FFFFFF" fill-rule="nonzero"></path>
                <path d="M69.8171429,5.7183908 C70.2857143,7.04505747 70.7428571,8.38316092 71.1885714,9.72126437 C70.3885714,11.5397126 69.6342857,13.3695977 68.88,15.1994828 C69.6914286,15.5997701 70.4914286,16.0000575 71.2914286,16.4117816 C69.3028571,18.3903448 67.4057143,20.4604023 65.3828571,22.416092 C66.0342857,18.0929885 66.16,13.7012644 66.7885714,9.3895977 C67.6228571,8.05149425 68.8,6.90781609 69.8171429,5.7183908 Z" id="Shape" fill="#FFFFFF" fill-rule="nonzero"></path>
                <path d="M130.548571,7.90281609 C128.24,9.81275862 126.217143,11.8141954 124.582857,14.3417241 C123.76,14.8906897 122.925714,15.451092 122.08,16.0000575 C123.04,16.8921264 124,17.7841954 124.937143,18.6877011 C121.657143,18.8249425 119.417143,17.8985632 116.617143,16.3660345 C119.268571,13.6097701 121.702857,10.5447126 124.594286,8.02862069 C126.194286,6.50752874 128.628571,7.62833333 130.548571,7.90281609 Z" id="Shape" fill="#FFFFFF" fill-rule="nonzero"></path>
                <path d="M62.1142857,10.8649425 C61.5885714,12.5232759 61.1085714,14.2044828 60.7085714,15.9085632 C61.8514286,16.2516667 62.9828571,16.5833333 64.1371429,16.9035632 C62.88,17.3610345 61.6228571,17.8185057 60.3657143,18.2874138 C60.7885714,19.168046 61.2,20.0372414 61.6228571,20.9064368 C60.2285714,22.4504023 58.8228571,23.9714943 57.3714286,25.4582759 C57.2914286,21.2724138 56.96,16.9035632 57.6228571,12.7520115 C58.88,10.3045402 59.2685714,9.49252874 62.1142857,10.8649425 Z" id="Shape" fill="#FFFFFF" fill-rule="nonzero"></path>
                <path d="M139.634286,12.1344253 C138.354286,13.2437931 137.062857,14.3531609 135.794286,15.4854023 C132.811429,17.2352299 130.068571,19.007931 126.537143,19.3510345 C129.668571,15.5197126 134.137143,10.5904598 139.634286,12.1344253 Z" id="Shape" fill="#FFFFFF" fill-rule="nonzero"></path>
                <path d="M49.9771429,15.3481609 C50.8457143,16.4575287 51.6914286,17.5783333 52.5257143,18.6991379 C52.1942857,19.2023563 51.8514286,19.7170115 51.52,20.2316667 C52.1714286,24.1201724 52.9257143,27.7685057 50.2857143,31.1309195 C48.6857143,26.1902299 46.08,19.8199425 49.9771429,15.3481609 Z" id="Shape" fill="#FFFFFF" fill-rule="nonzero"></path>
                <path d="M90.4457143,16.7205747 C93.0057143,16.4804023 95.5885714,16.3545977 98.1714286,16.183046 C101.188571,16.6405172 104.057143,16.7320115 107.108571,16.5147126 C110.08,17.1666092 113.428571,17.3953448 116.16,18.7448851 C118.148571,19.6941379 120.102857,20.3917816 122.274286,20.7806322 C126.262857,21.4439655 129.885714,23.1594828 133.817143,24.0286782 C136.914286,25.4582759 139.942857,26.6133908 142.297143,29.2095402 C144.205714,31.2567241 146.548571,32.3203448 149.085714,33.3839655 C151.051429,35.4197126 153.165714,37.0666092 155.531429,38.6220115 C158.594286,43.8028736 163.177143,48.4462069 168.068571,51.9344253 C170.651429,57.3554598 173.782857,62.5134483 176.434286,67.9344828 C177.291429,70.5306322 178.32,72.9895402 179.508571,75.4370115 C179.28,79.6343103 179.668571,82.3448276 181.737143,85.9817241 C181.165714,89.286954 181.451429,91.8373563 182.377143,95.0167816 C182.262857,99.7172989 182.765714,104.166207 181.154286,108.706609 C181.28,109.690172 181.417143,110.685172 181.542857,111.680172 C180.491429,114.848161 180.091429,117.810287 180.045714,121.149828 C178.868571,123.894655 178.148571,126.662356 177.6,129.601609 C175.691429,132.209195 174.685714,134.450805 173.931429,137.607356 C170.765714,141.816092 168.788571,146.676724 165.702857,150.942644 C162.811429,154.625287 158.64,156.157816 156.697143,160.686782 C151.44,164.552414 145.794286,167.617471 140.411429,171.242931 C136.422857,171.974885 133.668571,173.004195 130.365714,175.337299 C127.268571,175.371609 125.245714,176.034943 122.537143,177.418793 C120.148571,178.77977 117.222857,177.887701 114.434286,178.413793 C112.548571,179.351609 110.822857,180.849828 109.154286,182.142184 C108.411429,181.467414 107.668571,180.792644 106.925714,180.117874 C103.211429,179.80908 100.468571,180.083563 96.9028571,181.215805 C95.8628571,180.907011 94.8114286,180.609655 93.7714286,180.300862 C92.3314286,180.918448 90.8914286,181.536034 89.4514286,182.153621 C87.2685714,180.975632 85.0742857,179.877701 82.8228571,178.848391 C80.3771429,177.46454 77.9885714,176.629655 75.2571429,176.012069 C71.9428571,174.010632 69.4171429,173.221494 65.5085714,172.969885 C63.9657143,171.49454 62.4457143,169.344425 60.3085714,168.818333 C58.1371429,167.972011 56.1371429,168.052069 54.5714286,166.165 C52.2971429,163.660345 50.2857143,162.345115 47.1657143,161.018448 C45.36,158.891207 43.4857143,156.88977 41.4742857,154.956954 C39.6914286,150.405115 37.1085714,148.140632 33.1085714,145.55592 C31.68,142.147759 30.1942857,140.249253 27.3714286,137.904713 C26.8,135.697414 26.2971429,133.535862 25.1771429,131.522989 C22.6171429,127.440057 22.4571429,122.773851 19.2342857,118.965402 C19.0285714,115.580115 18.4457143,112.926782 17.1085714,109.815977 C17.8285714,106.053276 17.68,103.640115 16.5142857,100.026092 C17.44,98.4249425 18.56,96.7437356 19.0285714,94.9595977 C18.9371429,92.9581609 18.1371429,90.9567241 17.5657143,89.0353448 C19.9314286,85.2154598 20.24,83.1911494 19.6685714,78.6736207 C21.8514286,75.151092 22.6057143,72.7836782 22.8457143,68.5978161 C24.5828571,65.9559195 25.2228571,63.4512644 25.68,60.3404598 C28.2742857,58.1903448 29.6,55.8458046 30.8914286,52.7807471 C33.6685714,50.4018966 35.0971429,48.6635057 36.1942857,45.1066667 C38.8914286,43.0594828 40.9485714,40.9779885 42.88,38.175977 C47.6457143,34.7792529 53.0285714,32.103046 57.3828571,28.1802299 C62.8114286,25.87 68.4457143,23.8113793 73.7028571,21.1694828 C79.3028571,19.8085057 84.9257143,18.378908 90.4457143,16.7205747 Z" id="Shape" fill="#FFFFFF" fill-rule="nonzero"></path>
                <path d="M148.537143,15.554023 C147.108571,16.8692529 145.668571,18.1616092 144.217143,19.4539655 C142.902857,20.4375287 141.611429,21.4554023 140.342857,22.5075862 C138.468571,22.5762069 136.731429,22.5647701 134.937143,21.89 C138.937143,18.4246552 142.982857,15.5197126 148.537143,15.554023 Z" id="Shape" fill="#FFFFFF" fill-rule="nonzero"></path>
                <path d="M153.382857,20.9293103 C155.108571,20.0944253 157.542857,21.9357471 159.131429,22.5418966 C153.897143,24.245977 148.4,29.4725862 142.868571,26.7506322 C146.274286,24.6805747 149.714286,22.4732759 153.382857,20.9293103 Z" id="Shape" fill="#FFFFFF" fill-rule="nonzero"></path>
                <path d="M43.4514286,22.5533333 C43.8857143,26.0186782 44.5714286,29.4725862 44.8685714,32.9493678 C43.9657143,33.932931 42.9828571,34.8364368 42,35.7399425 C41.0514286,31.6112644 40.2742857,27.4482759 39.5314286,23.2738506 C41.0971429,22.2216667 41.6114286,22.2445402 43.4514286,22.5533333 Z" id="Shape" fill="#FFFFFF" fill-rule="nonzero"></path>
                <path d="M102.651429,22.1301724 C105.028571,22.4504023 105.428571,24.7263218 106.594286,26.4532759 C104.914286,25.5154598 103.291429,24.4404023 101.554286,23.6055172 C100,23.2395402 98.16,24.6462644 97.9428571,26.235977 C97.5542857,28.7863793 97.2457143,32.6177011 99.5085714,34.4247126 C101.954286,35.6370115 104.788571,33.1666667 107.12,32.3775287 C105.474286,34.2417241 104.445714,36.3689655 101.725714,36.7235057 C97.4514286,37.2038506 93.8057143,34.1159195 93.9314286,29.7356322 C93.6,24.7034483 97.7942857,21.2952874 102.651429,22.1301724 Z" id="Shape" fill="#40368D" fill-rule="nonzero"></path>
                <path d="M114.811429,24.7263218 C120.228571,22.5075862 126.617143,28.3517816 124.045714,33.83 C122.251429,38.439023 116.56,40.8064368 112.628571,37.1581034 C108.354286,33.727069 109.874286,26.5790805 114.811429,24.7263218 Z" id="Shape" fill="#40368D" fill-rule="nonzero"></path>
                <path d="M34.4571429,26.0872989 C35.1085714,28.6605747 34.7085714,30.7077586 37.4171429,32.0572989 C37.2114286,32.4347126 37.0057143,32.8121264 36.8,33.1895402 C37.2457143,35.7399425 37.7371429,38.2560345 37.4742857,40.8636207 L35.5428571,41.6413218 C33.5885714,37.6270115 32.1485714,33.3153448 31.4742857,28.8893103 C32.4571429,27.9400575 33.4514286,27.0136782 34.4571429,26.0872989 Z" id="Shape" fill="#FFFFFF" fill-rule="nonzero"></path>
                <path d="M116.902857,26.5676437 C117.92,24.9321839 121.085714,27.1737931 120.811429,28.7749425 C120.708571,31.7599425 119.542857,35.7856897 116.674286,37.2381609 C114.88,36.8721839 113.954286,35.9000575 113.874286,34.3103448 C113.862857,31.5540805 114.674286,28.3746552 116.902857,26.5676437 Z" id="Shape" fill="#FFFFFF" fill-rule="nonzero"></path>
                <path d="M161.382857,27.2424138 C163.805714,26.8535632 165.017143,28.6720115 166.811429,29.9300575 C164.8,29.7241954 162.788571,29.484023 160.777143,29.1981034 C158.24,30.3875287 155.965714,32.0001149 153.52,33.361092 C152.24,33.9443678 151.988571,32.4575862 151.348571,31.6684483 C154.308571,29.6441379 157.794286,27.757069 161.382857,27.2424138 Z" id="Shape" fill="#FFFFFF" fill-rule="nonzero"></path>
                <path d="M66.48,29.7127586 C67.3485714,30.6048276 68.1942857,31.5197701 69.0285714,32.4461494 C67.3942857,32.2974713 65.76,32.1487931 64.1142857,32.0001149 C66.0114286,35.9915517 68.1142857,39.8457471 70.7428571,43.414023 C69.28,44.2374713 67.8171429,45.0494828 66.3542857,45.8614943 C64.7542857,41.8814943 62.72,38.1302299 60.6285714,34.3904023 C59.4285714,35.7399425 58.1714286,37.0551724 56.9257143,38.3704023 L57.3371429,35.190977 C59.7028571,32.7435057 63.4742857,31.2910345 66.48,29.7127586 Z" id="Shape" fill="#40368D" fill-rule="nonzero"></path>
                <path d="M131.257143,29.0494253 C132.617143,29.7585057 133.965714,30.4675862 135.325714,31.1652299 C132.811429,34.8364368 130.708571,38.6563218 128.834286,42.682069 C131.12,42.9222414 133.417143,43.0709195 135.714286,43.2310345 C134.708571,43.9858621 133.714286,44.7978736 132.64,45.4497701 C129.817143,44.4776437 127.2,42.7621264 124.594286,41.321092 C127.554286,37.4668966 129.657143,33.6470115 131.257143,29.0494253 Z" id="Shape" fill="#40368D" fill-rule="nonzero"></path>
                <path d="M26.6857143,33.9214943 C28.0228571,36.3918391 29.0742857,38.9879885 30.08,41.6070115 C30.4114286,43.8600575 30.9485714,46.0559195 31.5542857,48.2403448 C30.9371429,48.9265517 30.32,49.6013218 29.6914286,50.276092 C28.24,46.5362644 26.1028571,42.8193103 25.3371429,38.8850575 C24.96,36.8950575 25.7485714,35.5455172 26.6857143,33.9214943 Z" id="Shape" fill="#FFFFFF" fill-rule="nonzero"></path>
                <path d="M173.28,36.6434483 C168.811429,37.9243678 163.771429,40.2117241 159.051429,39.8343103 L158.617143,37.7871264 C163.257143,35.3625287 168.674286,32.5376437 173.28,36.6434483 Z" id="Shape" fill="#FFFFFF" fill-rule="nonzero"></path>
                <path d="M144.171429,36.6320115 C145.428571,37.546954 146.651429,38.5190805 147.885714,39.4683333 C144.525714,42.4647701 141.691429,45.8386207 139.085714,49.5098276 C141.2,50.013046 143.325714,50.4705172 145.451429,50.9165517 C144.56,51.7285632 143.668571,52.5405747 142.777143,53.3411494 C140.228571,51.3625862 137.737143,49.3154023 135.245714,47.2567816 C138.914286,44.1688506 141.68,40.7035057 144.171429,36.6320115 Z" id="Shape" fill="#40368D" fill-rule="nonzero"></path>
                <path d="M49.6571429,40.531954 C51.6914286,39.4225862 52.3314286,41.4354598 53.9428571,42.3732759 C52.1828571,42.4075862 50.4342857,42.419023 48.6857143,42.4304598 C48.3771429,43.6313218 48.1028571,44.8436207 47.8628571,46.0673563 C50.72,45.7128161 53.0971429,44.1688506 55.8742857,43.5741379 C58.2742857,43.9515517 60.1714286,46.7878736 59.6114286,49.1895977 C58.88,53.100977 54.6971429,56.8293678 50.6171429,54.7478736 C51.1428571,52.7121264 55.6,52.6778161 57.2457143,51.3282759 C57.0171429,50.3104023 56.7085714,49.3039655 56.32,48.3089655 C53.92,49.2467816 51.6571429,50.6763793 49.1771429,51.374023 C47.8057143,51.5227011 46.5142857,50.0702299 45.8171429,49.0294828 C43.6457143,45.9301149 46.6057143,41.6985057 49.6571429,40.531954 Z" id="Shape" fill="#40368D" fill-rule="nonzero"></path>
                <path d="M91.1885714,42.1102299 C99.7828571,41.9386782 107.977143,42.0987931 116.262857,44.7063793 C117.885714,45.2210345 119.52,45.7128161 121.154286,46.1702874 C121.691429,46.7078161 122.217143,47.2453448 122.754286,47.7828736 C123.702857,47.9086782 124.651429,48.0344828 125.588571,48.1602874 C126.137143,48.7778736 126.685714,49.4068966 127.234286,50.0244828 C128.045714,50.1960345 128.857143,50.3561494 129.668571,50.5277011 C133.405714,53.9015517 137.222857,57.2182184 141.131429,60.3862069 C141.405714,61.1524713 141.668571,61.9301724 141.931429,62.6964368 C142.845714,62.9366092 143.771429,63.1882184 144.697143,63.4283908 C144.96,64.6864368 145.234286,65.9444828 145.497143,67.2025287 C146.514286,67.6714368 147.542857,68.128908 148.56,68.5978161 C149.897143,71.7658046 151.177143,74.9681034 152.605714,78.1017816 C153.508571,81.2354598 154.388571,84.3920115 155.474286,87.4685057 C155.52,88.3605747 155.577143,89.2640805 155.622857,90.1561494 C155.897143,90.8537931 156.16,91.5514368 156.434286,92.2490805 C156.377143,95.4971264 156.457143,98.7451724 156.697143,101.981782 C156.32,102.725172 155.931429,103.457126 155.554286,104.18908 C155.874286,104.909598 156.205714,105.630115 156.525714,106.350632 C155.234286,110.856724 154.194286,115.431437 153.005714,119.971839 C152.342857,121.412874 151.702857,122.865345 151.074286,124.317816 C150.548571,124.935402 150.022857,125.552989 149.497143,126.159138 C148.32,128.274943 147.04,130.31069 145.817143,132.392184 C145.417143,132.941149 145.017143,133.478678 144.617143,134.027644 C143.497143,135.445805 142.32,136.795345 141.074286,138.099138 C140.72,138.796782 140.365714,139.482989 140.011429,140.180632 C139.108571,140.489425 138.205714,140.786782 137.302857,141.095575 C137.017143,141.987644 136.731429,142.868276 136.434286,143.748908 C135.531429,143.897586 134.617143,144.034828 133.702857,144.183506 C130.251429,147.134195 126.388571,149.044138 122.468571,151.24 C118.72,152.58954 114.96,153.824713 111.017143,154.442299 C110.285714,154.86546 109.565714,155.277184 108.845714,155.688908 C108.228571,155.460172 107.611429,155.231437 106.994286,155.002701 C104.022857,155.380115 101.051429,155.597414 98.0685714,155.906207 C97.4171429,155.471609 96.7657143,155.048448 96.1257143,154.613851 C95.3485714,154.945517 94.5828571,155.265747 93.8057143,155.585977 C93.0285714,155.139943 92.24,154.682471 91.4514286,154.225 C88.7771429,153.927644 86.1371429,153.470172 83.4857143,153.058448 C82.8914286,152.498046 82.2971429,151.94908 81.7028571,151.388678 C80.8228571,151.365805 79.9428571,151.320057 79.0628571,151.27431 C77.4628571,150.588103 75.84,149.970517 74.2057143,149.341494 C73.7142857,148.872586 73.2114286,148.392241 72.7085714,147.923333 C70.5942857,146.882586 68.5028571,145.807529 66.3885714,144.789655 C65.8857143,143.977644 65.3828571,143.165632 64.88,142.342184 C64.1028571,142.090575 63.3142857,141.827529 62.5371429,141.57592 C60.7542857,139.665977 58.9257143,137.824655 57.2685714,135.823218 C56.7657143,135.411494 56.2628571,134.99977 55.7485714,134.588046 C54.88,133.284253 54,132.003333 53.0857143,130.722414 C52.8457143,129.979023 52.5942857,129.224195 52.3542857,128.469368 C51.7714286,128.023333 51.1885714,127.565862 50.6057143,127.108391 C49.9657143,125.69023 49.3028571,124.283506 48.5828571,122.911092 C47.1771429,119.502931 45.8857143,116.06046 44.9371429,112.492184 C44.5257143,111.863161 44.1142857,111.234138 43.7028571,110.605115 C43.8971429,109.724483 44.08,108.832414 44.2742857,107.951782 C43.8857143,107.162644 43.4971429,106.373506 43.1085714,105.584368 C43.0742857,103.903161 43.0171429,102.221954 42.9142857,100.540747 C42.4571429,92.8094828 43.7371429,85.2726437 45.7371429,77.8387356 C48.24,73.3783908 50.6057143,68.8379885 52.9485714,64.2861494 C57.2,60.3862069 60.72,56.1431609 65.1771429,52.6435057 C70.3314286,48.7092529 76.6285714,45.9529885 82.6857143,43.7456897 C85.4857143,43.0251724 88.32,42.5105172 91.1885714,42.1102299 Z" id="Shape" fill="#40368D" fill-rule="nonzero"></path>
                <path d="M180.777143,44.6377586 C178.457143,44.9694253 176.148571,45.301092 173.851429,45.7814368 C170.045714,46.1588506 166.502857,46.3761494 162.937143,44.6835057 C168.857143,42.6363218 175.268571,40.326092 180.777143,44.6377586 Z" id="Shape" fill="#FFFFFF" fill-rule="nonzero"></path>
                <path d="M19.36,43.4368966 C21.3371429,45.2667816 23.1771429,47.1881609 24.9371429,49.2353448 C25.3257143,52.8493678 27.1085714,55.456954 24.4,58.6478161 C22.3314286,55.6513793 19.6457143,52.5062644 18.5485714,48.9951724 C18.4342857,47.1538506 19.04,45.2210345 19.36,43.4368966 Z" id="Shape" fill="#FFFFFF" fill-rule="nonzero"></path>
                <path d="M93.6,44.8664943 C100.262857,44.6606322 106.8,45.1524138 113.234286,46.9708621 C114.731429,47.3482759 116.228571,47.7028161 117.737143,48.0459195 C118.502857,48.4462069 119.268571,48.8464943 120.034286,49.2467816 C122.251429,50.218908 124.4,51.3168391 126.605714,52.3118391 C127.062857,52.8608046 127.52,53.4097701 127.977143,53.9587356 C129.462857,54.8622414 130.925714,55.7771839 132.365714,56.7378736 C133.005714,57.0237931 133.645714,57.3097126 134.285714,57.5956322 C135.645714,59.4598276 137.04,61.2897126 138.4,63.1653448 C139.268571,63.3712069 140.148571,63.577069 141.017143,63.782931 C141.12,64.5835057 141.211429,65.3840805 141.314286,66.1846552 C143.108571,67.9116092 144,69.284023 144.902857,71.5942529 C145.382857,72.0402874 145.851429,72.4863218 146.331429,72.9323563 C147.177143,74.3276437 148.034286,75.7114943 148.902857,77.0953448 C148.937143,77.9416667 148.971429,78.7994253 149.017143,79.6457471 C149.497143,80.1375287 149.977143,80.6293103 150.468571,81.121092 C150.857143,82.7451149 151.268571,84.3691379 151.714286,85.9817241 C154.845714,98.139023 153.325714,111.565805 147.714286,122.808161 C147.485714,123.505805 147.257143,124.192011 147.028571,124.889655 C146.114286,126.090517 145.211429,127.291379 144.331429,128.503678 C143.508571,129.841782 142.731429,131.191322 141.965714,132.563736 C141.371429,132.918276 140.765714,133.272816 140.171429,133.61592 C139.977143,134.496552 139.782857,135.365747 139.588571,136.234943 C138.651429,136.440805 137.714286,136.63523 136.777143,136.841092 C136.48,137.687414 136.171429,138.522299 135.874286,139.368621 C134.937143,139.574483 134.011429,139.791782 133.074286,140.00908 C132.731429,140.763908 132.388571,141.518736 132.045714,142.273563 C131.097143,142.399368 130.16,142.513736 129.222857,142.63954 C128.742857,143.360057 128.274286,144.080575 127.794286,144.789655 C123.211429,146.859713 119.051429,149.410115 114.125714,150.416552 C109.862857,151.262874 105.531429,151.766092 101.245714,152.543793 C100.48,152.029138 99.7142857,151.52592 98.9371429,151.011264 C98.1028571,151.468736 97.2571429,151.926207 96.4228571,152.383678 C95.6457143,152.017701 94.8685714,151.651724 94.1028571,151.297184 C90.1028571,151.217126 86.0342857,150.016264 82.0914286,149.307184 C81.6342857,148.872586 81.1771429,148.426552 80.72,147.991954 C76.1485714,146.756782 72.32,144.400805 68.72,141.392931 C68.1142857,141.129885 67.52,140.855402 66.9257143,140.592356 C65.12,138.842529 63.2342857,137.195632 61.3485714,135.537299 C59.1314286,133.410057 57.2685714,130.974023 55.5771429,128.412184 C55.0514286,127.897529 54.5371429,127.371437 54.0114286,126.856782 C52.88,124.260632 51.5771429,121.767414 49.9657143,119.43431 C49.04,116.952529 48.3085714,114.493621 47.68,111.920345 C47.1085714,108.054713 46.1942857,104.326322 46.3085714,100.380632 C46.0571429,99.6601149 45.8057143,98.9395977 45.5428571,98.2190805 C45.84,95.8974138 46.1028571,93.5871839 46.4571429,91.276954 C46.2742857,90.6021839 46.0914286,89.9274138 45.92,89.2412069 C47.3371429,84.0717816 48.1028571,79.131092 50.3314286,74.3733908 C53.2228571,68.4720115 57.0057143,63.0967241 62.2742857,59.0824138 C70.8,51.637069 82.1257143,45.4383333 93.6,44.8664943 Z" id="Shape" fill="#FFFFFF" fill-rule="nonzero"></path>
                <path d="M155.302857,46.3075287 C157.177143,49.120977 162.388571,52.3461494 160.491429,56.0974138 C159.371429,54.4733908 158.502857,52.3461494 156.948571,51.0881034 C155.714286,51.8200575 154.502857,52.5977586 153.302857,53.4097701 C154.56,54.3247126 155.817143,55.251092 157.074286,56.1545977 L155.142857,57.9272989 C154.422857,56.6006322 153.691429,55.2854023 152.971429,53.9587356 C151.371429,55.2854023 149.782857,56.5891954 148.434286,58.1674713 C150.022857,59.3683333 151.76,60.3404598 153.485714,61.3354598 C152.72,61.9416092 151.965714,62.5477586 151.2,63.153908 C148.971429,60.5005747 146.742857,57.8586782 144.468571,55.2396552 C148.685714,52.7693103 152.045714,49.9329885 155.302857,46.3075287 Z" id="Shape" fill="#40368D" fill-rule="nonzero"></path>
                <path d="M101.485714,48.1488506 C101.177143,49.120977 100.857143,50.0931034 100.525714,51.0652299 C101.085714,52.3804598 101.6,53.7185632 102.08,55.0681034 C100.845714,56.4862644 99.4742857,56.2575287 97.76,56.4748276 C98.7085714,55.7771839 99.6571429,55.0795402 100.617143,54.4047701 C99.7142857,53.0209195 98.8228571,51.6256322 97.9657143,50.2074713 C99.12,49.486954 100.297143,48.8121839 101.485714,48.1488506 Z" id="Shape" fill="#40368D" fill-rule="nonzero"></path>
                <path d="M89.1085714,50.379023 C89.8514286,50.1731609 90.5942857,49.9787356 91.3485714,49.7957471 C92.0685714,49.6013218 92.8,49.4068966 93.5314286,49.2010345 C93.2571429,51.6485057 93.1085714,54.0502299 93.12,56.5091379 C92.3657143,56.5320115 91.6,56.5434483 90.8342857,56.5663218 C89.4857143,56.9666092 88.1257143,57.3554598 86.7657143,57.7214368 C86.4228571,54.9537356 86.08,52.1974713 85.9085714,49.4183333 C86.9028571,51.5112644 87.6571429,53.6956897 88.6171429,55.8000575 C89.9657143,56.3833333 91.0057143,55.6628161 92.32,55.354023 C91.2457143,53.6956897 90.1142857,52.0716667 89.1085714,50.379023 Z" id="Shape" fill="#40368D" fill-rule="nonzero"></path>
                <path d="M104.662857,49.4983908 C107.302857,47.862931 107.977143,51.0881034 108.8,52.8836782 C107.805714,53.3182759 106.811429,53.7528736 105.817143,54.1874713 C105.165714,55.3082759 104.502857,56.4290805 103.828571,57.5498851 C104.011429,54.8736782 104.125714,52.1288506 104.662857,49.4983908 Z" id="Shape" fill="#40368D" fill-rule="nonzero"></path>
                <path d="M39.6685714,50.7907471 C42.6628571,53.1238506 46.1371429,54.9308621 48.9142857,57.5041379 C51.7142857,60.3175862 47.5657143,65.8301149 44.5942857,66.6878736 C40.4,66.5506322 36.4228571,62.5935057 32.6628571,60.8436782 C33.6342857,59.4483908 34.6057143,58.0531034 35.5657143,56.6463793 C38.6742857,59.7571839 42.1028571,61.953046 46.0571429,63.8286782 C46.8914286,62.7307471 47.6685714,61.6099425 48.4,60.4433908 C47.2,56.4748276 41.1542857,54.7135632 37.68,53.5127011 C38.3428571,52.5977586 38.9942857,51.6828161 39.6685714,50.7907471 Z" id="Shape" fill="#40368D" fill-rule="nonzero"></path>
                <path d="M111.931429,49.8872414 C112.868571,50.4933908 113.771429,51.1452874 114.651429,51.8543678 C114,54.1188506 113.348571,56.3718966 112.708571,58.6363793 C112.514286,57.344023 112.331429,56.0402299 112.148571,54.7364368 C111.154286,55.7657471 110.16,56.7836207 109.154286,57.7900575 C109.897143,55.354023 110.034286,51.6828161 111.931429,49.8872414 Z" id="Shape" fill="#40368D" fill-rule="nonzero"></path>
                <path d="M180.617143,50.5162644 C183.04,50.3904598 184.24,52.4262069 185.965714,53.7871839 C182.537143,54.2675287 179.085714,54.4962644 175.645714,54.7821839 C173.634286,54.0616667 171.657143,53.2954023 169.691429,52.4833908 C172.64,49.8414943 176.891429,50.6535057 180.617143,50.5162644 Z" id="Shape" fill="#FFFFFF" fill-rule="nonzero"></path>
                <path d="M79.9314286,51.213908 C81.0742857,53.0437931 81.9885714,54.9994828 82.88,56.9666092 C83.8971429,57.2754023 84.9028571,57.5841954 85.92,57.8929885 C84.7085714,58.3962069 83.5085714,58.8879885 82.2971429,59.3912069 C81.2571429,56.7264368 80.2514286,54.0845402 79.9314286,51.213908 Z" id="Shape" fill="#40368D" fill-rule="nonzero"></path>
                <polygon id="Shape" fill="#FFFFFF" fill-rule="nonzero" points="105.497143 51.213908 106.308571 50.7106897 107.142857 51.1567241 107.165714 52.105977 106.365714 52.6091954 105.531429 52.1631609"></polygon>
                <polygon id="Shape" fill="#FFFFFF" fill-rule="nonzero" points="112.057143 51.8086207 112.994286 51.8086207 113.462857 52.632069 112.994286 53.4555172 112.057143 53.4555172 111.588571 52.632069"></polygon>
                <path d="M118.342857,51.0423563 C117.805714,54.1760345 116.88,57.0009195 115.028571,59.6199425 C115.462857,56.3375862 116.251429,53.627069 118.342857,51.0423563 Z" id="Shape" fill="#40368D" fill-rule="nonzero"></path>
                <path d="M79.0514286,56.9894828 C80.1942857,58.7621839 78.2514286,60.6606897 77.7028571,62.3762069 C76.2628571,60.797931 71.28,56.8979885 74.1942857,54.7936207 C75.8857143,52.5291379 78.3085714,55.2854023 79.0514286,56.9894828 Z" id="Shape" fill="#40368D" fill-rule="nonzero"></path>
                <path d="M121.394286,52.4376437 C121.691429,54.0159195 121.988571,55.5827586 122.262857,57.1610345 C123.268571,56.0287931 124.285714,54.8965517 125.314286,53.7871839 C124.525714,56.8636782 123.142857,59.4941379 121.314286,62.0788506 L121.154286,57.4812644 C119.908571,58.4877011 118.651429,59.4827011 117.382857,60.4662644 C118.64,57.7557471 119.977143,55.0795402 121.394286,52.4376437 Z" id="Shape" fill="#40368D" fill-rule="nonzero"></path>
                <path d="M13.8628571,54.095977 C15.8742857,55.8343678 17.7714286,57.6528161 19.6342857,59.5398851 C20.4914286,61.792931 21.4171429,64.0231034 22.3085714,66.2647126 C18.2285714,65.9559195 15.2228571,60.9923563 12.7542857,58.1217241 C13.0971429,56.7721839 13.4742857,55.4340805 13.8628571,54.095977 Z" id="Shape" fill="#FFFFFF" fill-rule="nonzero"></path>
                <path d="M75.28,56.1088506 C76.6628571,56.2804023 78.4685714,57.6299425 77.5428571,59.1281609 C75.92,59.8258046 75.1657143,57.3325862 75.28,56.1088506 Z" id="Shape" fill="#FFFFFF" fill-rule="nonzero"></path>
                <path d="M69.3257143,56.349023 C71.3257143,58.5677586 73.2,60.9008621 74.9714286,63.314023 C73.3714286,62.5363218 71.76,61.7586207 70.16,60.9809195 C70.6514286,62.5935057 71.1428571,64.2175287 71.6228571,65.8301149 C69.6342857,63.5541954 67.7828571,61.1867816 65.9885714,58.7507471 C67.5657143,59.4941379 69.1314286,60.2718391 70.6971429,61.0152299 C70.24,59.4598276 69.7714286,57.9044253 69.3257143,56.349023 Z" id="Shape" fill="#40368D" fill-rule="nonzero"></path>
                <path d="M132.022857,58.6478161 C127.691429,59.0938506 127.245714,58.6249425 125.451429,63.0395402 C126.937143,62.2504023 128.422857,61.4612644 129.897143,60.6606897 C128.902857,62.2275287 127.897143,63.7714943 126.845714,65.2925862 C125.554286,62.9137356 123.622857,62.0331034 125.485714,59.2882759 C127.497143,56.0059195 129.268571,57.7786207 132.022857,58.6478161 Z" id="Shape" fill="#40368D" fill-rule="nonzero"></path>
                <path d="M175.577143,59.963046 C179.051429,59.5055747 182.685714,59.2997126 186.16,59.8258046 C187.485714,60.4433908 188.548571,61.69 189.657143,62.6392529 C187.234286,63.1882184 184.8,63.6342529 182.388571,64.1832184 C179.885714,63.0281034 177.474286,62.0331034 175.577143,59.963046 Z" id="Shape" fill="#FFFFFF" fill-rule="nonzero"></path>
                <path d="M133.748571,61.1067241 C134.822857,61.7357471 135.828571,62.4562644 136.845714,63.1653448 C135.908571,63.1424713 134.971429,63.1195977 134.034286,63.0967241 C133.28,64.8808621 132.491429,66.665 131.657143,68.4148276 C130.628571,67.4312644 129.611429,66.4362644 128.594286,65.4412644 L131.222857,65.7386207 C132.022857,64.1946552 132.788571,62.5591954 133.748571,61.1067241 Z" id="Shape" fill="#40368D" fill-rule="nonzero"></path>
                <path d="M165.474286,61.9987931 C168.24,63.577069 169.748571,66.665 169.622857,69.8215517 C168.708571,70.9652299 167.68,72.0288506 166.537143,73.000977 C166.971429,71.1482184 167.531429,69.2954598 167.851429,67.4083908 C167.142857,64.148908 162.8,64.8694253 160.514286,65.7500575 C158.422857,66.665 155.12,69.1124713 157.062857,71.6056897 C160.4,73.0467241 160.777143,69.9016092 162.251429,67.7858046 C163.017143,69.7986782 163.828571,71.7886782 164.617143,73.7901149 C162.628571,74.5449425 160.651429,75.2768966 158.662857,76.0202874 C156.685714,73.4813218 153.931429,71.0224138 154.4,67.4884483 C155.085714,62.7764943 161.337143,59.963046 165.474286,61.9987931 Z" id="Shape" fill="#40368D" fill-rule="nonzero"></path>
                <path d="M8.49142857,63.4283908 C10.0228571,63.8858621 11.5542857,64.3776437 13.0628571,64.9037356 C14.0342857,65.8072414 14.9714286,66.7450575 15.92,67.6828736 C16.5371429,66.7107471 17.1542857,65.7271839 17.7828571,64.7550575 C17.7142857,66.4133908 17.6114286,68.0717241 17.5314286,69.7300575 C18.5028571,72.1546552 19.1542857,74.2475862 18.8342857,76.9123563 C14.7771429,73.3783908 9.07428571,69.1925287 8.49142857,63.4283908 Z" id="Shape" fill="#FFFFFF" fill-rule="nonzero"></path>
                <path d="M93.76,63.8858621 C96.4228571,64.045977 98.6285714,65.5785057 100.937143,66.767931 C104.777143,65.7614943 109.097143,63.9316092 113.085714,64.2747126 C118.262857,65.1896552 123.177143,69.2497126 128.091429,70.9995402 C130.571429,71.8458621 133.508571,71.5828161 136.08,72.0974713 C138.571429,73.7786782 140.514286,76.4091379 142.56,78.5821264 C141.005714,92.7294253 138.914286,107.025402 138.754286,121.252759 C138.674286,124.009023 137.965714,127.199885 136.068571,129.281379 C134.388571,131.134138 131.44,131.099828 129.131429,130.974023 C120.765714,130.63092 114.742857,125.495805 106.274286,125.552989 C102.137143,125.427184 98.6857143,128.114828 94.8114286,128.32069 C90.6285714,126.376437 88.4,122.819598 83.4628571,122.247759 C74.5942857,120.589425 67.4057143,126.170575 59.1428571,123.860345 C55.3028571,123.254195 52.6628571,119.274195 52.6971429,115.557241 C52.88,109.953218 54.3657143,104.486437 54.64,98.870977 C55.3828571,98.8252299 56.1142857,98.7909195 56.8571429,98.768046 C56.6057143,101.615805 56.3428571,104.463563 56.0457143,107.311322 L56.8342857,107.288448 C57.4628571,101.398506 59.1771429,95.9088506 57.6,90.1104023 C57.4742857,92.271954 57.4285714,94.4449425 57.4628571,96.6293678 C56.6514286,96.7208621 55.84,96.8009195 55.0285714,96.880977 C55.7714286,90.5221264 56.3542857,84.1747126 56.5714286,77.7701149 C56.8228571,74.5335057 56.6285714,71.0224138 57.5542857,67.9001724 C60.0114286,66.7450575 62.7085714,66.0702874 65.28,65.2125287 C68.9485714,66.138908 72.8571429,67.0652874 76.6514286,67.030977 C82.7885714,66.7336207 87.4857143,63.3940805 93.76,63.8858621 Z" id="Shape" fill="#40368D" fill-rule="nonzero"></path>
                <path d="M93.7485714,65.406954 C96.6057143,65.4984483 98.5028571,67.1796552 100.822857,68.6092529 C104.331429,67.4884483 108.32,65.8644253 112.011429,65.9444828 C117.257143,66.2418391 121.44,69.6156897 126.011429,71.8115517 C128.994286,73.366954 132.137143,73.2182759 135.428571,73.527069 C135.222857,76.4891954 134.845714,79.6343103 135.314286,82.5735632 L137.097143,82.848046 C137.908571,81.7272414 138.72,80.6064368 139.52,79.4741954 C139.371429,82.9052299 139.085714,86.2676437 137.977143,89.5385632 C137.668571,87.8916667 137.337143,86.2447701 136.982857,84.6093103 C136,84.2433333 135.005714,83.8887931 134.011429,83.5571264 C133.417143,92.7408621 131.691429,101.77592 131.028571,110.948218 C130.64,114.585115 130.525714,118.359253 129.657143,121.916092 C125.451429,124.946839 120.102857,122.762414 115.988571,120.703793 C109.131429,117.432874 103.108571,117.318506 96.1828571,120.463621 C93.7828571,118.199138 91.5657143,116.049023 88.2742857,115.168391 C82.7314286,113.39569 78.2285714,115.214138 72.8914286,116.415 C69.0514286,117.329943 65.36,116.76954 61.5885714,115.877471 C61.84,112.709483 62.1142857,109.541494 62.3771429,106.373506 C60.9142857,106.762356 59.4514286,107.162644 57.9885714,107.551494 C58.5942857,105.298448 59.1085714,103.011092 59.5657143,100.712299 C60.7657143,101.089713 61.9657143,101.478563 63.1657143,101.855977 C63.1657143,90.1104023 63.7142857,78.341954 64.9828571,66.665 C68.7885714,67.9001724 72.56,68.8151149 76.5828571,68.5291954 C82.7085714,68.4262644 87.5885714,65.0066667 93.7485714,65.406954 Z" id="Shape" fill="#FFFFFF" fill-rule="nonzero"></path>
                <path d="M178.982857,67.7400575 C183.2,68.2089655 187.554286,68.8608621 191.6,70.2104023 C193.554286,70.8737356 193.84,72.7150575 194.834286,74.3390805 C189.771429,72.9323563 182.502857,71.9373563 178.982857,67.7400575 Z" id="Shape" fill="#FFFFFF" fill-rule="nonzero"></path>
                <path d="M30.7771429,67.8429885 C33.2914286,68.025977 34.2514286,69.7300575 35.8857143,71.3426437 C38.3428571,70.9309195 40.8114286,70.5306322 43.28,70.1417816 C42.6628571,71.8572989 42.0457143,73.5728161 41.4171429,75.2883333 C38.7085714,75.2654598 36.2857143,75.3683908 33.7828571,76.5921264 C36.0685714,77.1982759 38.3771429,77.6786207 40.6971429,78.1246552 C40.2171429,79.7715517 39.7485714,81.4184483 39.2685714,83.0653448 C34.6971429,80.8694828 30.4342857,79.6457471 25.3828571,79.1196552 C26.7542857,75.7000575 27.3257143,69.8101149 30.7771429,67.8429885 Z" id="Shape" fill="#40368D" fill-rule="nonzero"></path>
                <polygon id="Shape" fill="#40368D" fill-rule="nonzero" points="99.7257143 71.1253448 100.32 71.1253448 100.32 71.7314943 99.7142857 71.7314943"></polygon>
                <path d="M32.1028571,73.000977 C32.7428571,74.098908 33.28,75.254023 33.7257143,76.4663218 C31.9657143,75.6428736 29.12,75.5628161 28.5028571,73.4012644 C29.6114286,73.0124138 31.1085714,71.6743103 32.1028571,73.000977 Z" id="Shape" fill="#FFFFFF" fill-rule="nonzero"></path>
                <path d="M5.87428571,73.4127011 C7.58857143,74.2018391 9.23428571,75.151092 10.9028571,76.0202874 C13.9085714,78.9595402 15.7714286,81.7958621 17.52,85.6043103 C16.7314286,86.1875862 15.9314286,86.7708621 15.1428571,87.3427011 C10.9828571,82.9395402 5.39428571,80.3090805 5.87428571,73.4127011 Z" id="Shape" fill="#FFFFFF" fill-rule="nonzero"></path>
                <path d="M96.9485714,75.1053448 C95.7485714,74.9337931 94.56,74.7736782 93.36,74.5906897 C92.6514286,74.7622414 91.9428571,74.9337931 91.2342857,75.1053448 C88.6742857,74.8994828 86.1142857,74.7508046 83.5657143,74.5106322 C87.68,72.7836782 93.12,72.532069 96.9485714,75.1053448 Z" id="Shape" fill="#40368D" fill-rule="nonzero"></path>
                <polygon id="Shape" fill="#40368D" fill-rule="nonzero" points="99.52 73.5385057 100.468571 73.5385057 100.937143 74.3505172 100.457143 75.1625287 99.52 75.151092 99.04 74.3390805"></polygon>
                <path d="M79.1085714,74.4877586 C75.4857143,77.141092 73.5428571,77.346954 69.0514286,76.8094253 C72.24,75.3912644 75.6685714,74.8766092 79.1085714,74.4877586 Z" id="Shape" fill="#40368D" fill-rule="nonzero"></path>
                <path d="M82.1714286,74.8308621 C81.7371429,81.1668391 81.1657143,87.4799425 80.4457143,93.793046 C79.8628571,99.3284483 80.3771429,106.018966 77.9657143,111.074023 C78.1485714,99.031092 80.4457143,87.0682184 80.8342857,75.0595977 C81.2685714,74.9681034 81.7028571,74.888046 82.1714286,74.8308621 Z" id="Shape" fill="#40368D" fill-rule="nonzero"></path>
                <path d="M108.788571,74.7508046 C111.142857,74.4877586 112.937143,75.7572414 114.948571,76.7522414 C111.2,76.5235057 107.508571,76.3405172 103.771429,76.7979885 C105.394286,76.0660345 107.04,75.151092 108.788571,74.7508046 Z" id="Shape" fill="#40368D" fill-rule="nonzero"></path>
                <path d="M182.902857,75.62 C187.371429,77.0038506 191.828571,78.1932759 196.034286,80.2976437 C196.297143,81.6814943 196.56,83.0767816 196.822857,84.4606322 C191.497143,83.6143103 186.811429,81.5213793 182.057143,79.1082184 C182.342857,77.9531034 182.617143,76.7865517 182.902857,75.62 Z" id="Shape" fill="#FFFFFF" fill-rule="nonzero"></path>
                <path d="M61.9657143,75.7686782 C62.2742857,80.2862069 61.6,84.6893678 61.5771429,89.2068966 C61.4057143,92.8323563 61.9428571,96.0575287 59.6914286,99.1797701 C59.92,91.4942529 59.8514286,83.1911494 61.9657143,75.7686782 Z" id="Shape" fill="#FFFFFF" fill-rule="nonzero"></path>
                <path d="M117.702857,75.7686782 C117.28,85.6386207 115.702857,95.3827586 115.177143,105.241264 C115.051429,107.997529 114.502857,110.605115 113.634286,113.212701 C113.234286,102.965345 115.554286,92.5121264 116.16,82.2990805 C116.262857,79.8859195 116.72,77.9531034 117.702857,75.7686782 Z" id="Shape" fill="#40368D" fill-rule="nonzero"></path>
                <path d="M172.628571,76.1689655 C173.257143,79.2683333 173.908571,82.3791379 174.537143,85.4785057 C173.645714,85.9131034 172.754286,86.3477011 171.851429,86.7594253 C172.057143,84.940977 172.297143,83.1454023 172.342857,81.3040805 C170.971429,81.2926437 169.588571,81.3498276 168.205714,81.487069 C168.411429,83.0310345 168.777143,84.5292529 169.12,86.0503448 L166.708571,86.3705747 C166.708571,84.8151724 166.697143,83.2597701 166.674286,81.7158046 C164.868571,82.219023 163.074286,82.7222414 161.325714,83.3970115 C161.622857,85.6157471 162.982857,87.0682184 164.228571,88.7951724 C163.142857,88.8866667 162.057143,88.9781609 160.971429,89.081092 C160.148571,85.6958046 159.462857,82.2762069 158.697143,78.8794828 C163.542857,78.6621839 168.057143,77.8158621 172.628571,76.1689655 Z" id="Shape" fill="#40368D" fill-rule="nonzero"></path>
                <path d="M100.034286,77.0038506 C99.68,86.9652874 98.5257143,96.9267241 98.4114286,106.922471 C98.1828571,110.685172 98.64,114.059023 96.4685714,117.341379 C96.2285714,112.457874 97.1542857,107.78023 97.4171429,102.931034 C97.76,96.4578161 98.0914286,89.9617241 98.6057143,83.4885057 C98.7657143,81.2011494 99.2,79.131092 100.034286,77.0038506 Z" id="Shape" fill="#40368D" fill-rule="nonzero"></path>
                <path d="M120.011429,78.5478161 C123.588571,79.5542529 127.234286,80.2061494 130.891429,80.9152299 C127.794286,83.4427586 124.742857,82.321954 121.005714,82.4935057 C120.605714,81.6357471 120.205714,80.7665517 119.817143,79.8973563 C119.874286,79.4513218 119.942857,78.9938506 120.011429,78.5478161 Z" id="Shape" fill="#40368D" fill-rule="nonzero"></path>
                <path d="M95.5542857,81.9674138 C91.5885714,81.8987931 87.6228571,81.6586207 83.6685714,81.3955747 C87.7942857,78.5363793 91.3371429,80.4691954 95.5542857,81.9674138 Z" id="Shape" fill="#40368D" fill-rule="nonzero"></path>
                <path d="M78.6971429,82.4248851 C75.12,82.5278161 71.5428571,82.4363218 67.9771429,82.116092 C71.8628571,80.9838506 75.3028571,79.0510345 78.6971429,82.4248851 Z" id="Shape" fill="#40368D" fill-rule="nonzero"></path>
                <path d="M114.137143,82.6307471 C113.428571,83.1797126 112.72,83.7401149 112.022857,84.2890805 C108.891429,83.111092 105.828571,82.8937931 102.514286,82.8022989 C106.502857,80.331954 109.92,81.9102299 114.137143,82.6307471 Z" id="Shape" fill="#40368D" fill-rule="nonzero"></path>
                <path d="M120.262857,84.3920115 C123.131429,84.6893678 125.988571,85.6043103 128.811429,86.2333333 C128.434286,86.7022414 128.068571,87.1597126 127.691429,87.6171839 C124.662857,87.1711494 121.68,86.7479885 118.811429,85.6386207 C119.28,85.204023 119.76,84.7808621 120.262857,84.3920115 Z" id="Shape" fill="#40368D" fill-rule="nonzero"></path>
                <path d="M2.97142857,84.9066667 C4.20571429,85.0896552 5.42857143,85.2840805 6.65142857,85.4899425 C7.31428571,86.5535632 7.96571429,87.6286207 8.60571429,88.7151149 C9.92,89.0353448 11.2228571,89.3555747 12.5371429,89.6758046 C14.2742857,92.4778161 15.1085714,94.7422989 15.6,98.0589655 C12.5028571,96.1032759 9.41714286,94.0789655 6.60571429,91.7229885 C4.36571429,89.9388506 3.96571429,87.457069 2.97142857,84.9066667 Z" id="Shape" fill="#FFFFFF" fill-rule="nonzero"></path>
                <path d="M77.4742857,86.2447701 C74.8114286,88.8409195 71.52,88.7265517 68.0457143,88.7722989 L68.0914286,87.4227586 C71.1428571,86.7022414 74.3428571,86.4163218 77.4742857,86.2447701 Z" id="Shape" fill="#40368D" fill-rule="nonzero"></path>
                <path d="M112.56,87.1139655 C112.034286,87.7772989 111.508571,88.4406322 110.982857,89.1039655 C108.148571,88.7951724 105.314286,88.6121839 102.468571,88.3948851 C105.76,87.2855172 109.12,87.2054598 112.56,87.1139655 Z" id="Shape" fill="#40368D" fill-rule="nonzero"></path>
                <path d="M196.091429,90.8766667 C197.097143,92.1918966 197.668571,93.8731034 198.388571,95.3598851 C194.502857,93.9188506 190.605714,92.5464368 186.674286,91.2655172 C185.76,89.9274138 184.845714,88.6007471 183.931429,87.2626437 C188.4,86.8166092 192.4,88.5321264 196.091429,90.8766667 Z" id="Shape" fill="#FFFFFF" fill-rule="nonzero"></path>
                <path d="M118.342857,89.4699425 C121.622857,90.3277011 124.902857,91.2998276 128.114286,92.3748851 C123.862857,92.4663793 121.12,93.2212069 118.342857,89.4699425 Z" id="Shape" fill="#40368D" fill-rule="nonzero"></path>
                <path d="M77.6685714,92.5693103 C73.9657143,93.8387931 70.4114286,95.1768966 66.6171429,93.5185632 C69.9771429,92.8552299 74.4571429,90.545 77.6685714,92.5693103 Z" id="Shape" fill="#40368D" fill-rule="nonzero"></path>
                <path d="M86,91.7344253 C89.9542857,91.7572989 92.0685714,92.535 95.2114286,94.8109195 C92.3085714,94.2733908 89.4285714,93.6558046 86.5142857,93.2326437 C85.5771429,93.0954023 84.64,92.9695977 83.7028571,92.8437931 C84.4571429,92.4663793 85.2228571,92.0889655 86,91.7344253 Z" id="Shape" fill="#40368D" fill-rule="nonzero"></path>
                <path d="M104.4,92.8209195 C105.531429,92.2948276 106.457143,92.3520115 107.211429,92.9810345 C108.262857,94.993908 104.594286,96.0003448 103.394286,94.8223563 C103.017143,94.0904023 103.36,93.4156322 104.4,92.8209195 Z" id="Shape" fill="#40368D" fill-rule="nonzero"></path>
                <path d="M137.725714,92.7065517 C137.702857,94.2162069 137.657143,95.7144253 137.588571,97.2126437 C137.725714,98.5736207 137.851429,99.9231609 137.954286,101.284138 C135.245714,98.6193678 136.24,95.7029885 137.725714,92.7065517 Z" id="Shape" fill="#FFFFFF" fill-rule="nonzero"></path>
                <path d="M2.74285714,95.8059195 C3.89714286,97.2812644 4.90285714,98.8595402 5.92,100.437816 C6.59428571,99.5114368 7.26857143,98.5850575 7.94285714,97.6701149 C8.26285714,99.6143678 8.57142857,101.570057 8.91428571,103.51431 C9.63428571,102.965345 10.3428571,102.416379 11.0628571,101.855977 C13.6457143,104.028966 14.5371429,105.126897 15.4742857,108.409253 C11.5771429,106.693736 7.30285714,105.012529 4,102.290575 C1.78285714,100.517874 2.75428571,98.2648276 2.74285714,95.8059195 Z" id="Shape" fill="#FFFFFF" fill-rule="nonzero"></path>
                <path d="M75.76,98.1504598 L77.1542857,99.0425287 C73.0171429,100.220517 69.8971429,100.403506 65.6342857,99.6372414 C68.9028571,98.1962069 72.24,98.1504598 75.76,98.1504598 Z" id="Shape" fill="#40368D" fill-rule="nonzero"></path>
                <path d="M94.3657143,100.323448 C90.3771429,100.048966 86.5028571,99.1912069 82.6285714,98.2533908 C86.7428571,96.4349425 91.0742857,97.3727586 94.3657143,100.323448 Z" id="Shape" fill="#40368D" fill-rule="nonzero"></path>
                <path d="M183.862857,97.4871264 C188.251429,96.8466667 192.434286,98.6879885 195.737143,101.467126 C197.085714,102.599368 196.971429,105.14977 197.382857,106.75092 C192.8,104.257701 186.491429,102.302011 183.862857,97.4871264 Z" id="Shape" fill="#FFFFFF" fill-rule="nonzero"></path>
                <path d="M113.725714,101.101149 C110.16,101.272701 106.502857,101.055402 102.902857,100.918161 C103.405714,100.357759 103.908571,99.7973563 104.411429,99.2483908 C107.874286,98.3791954 110.72,99.397069 113.725714,101.101149 Z" id="Shape" fill="#40368D" fill-rule="nonzero"></path>
                <path d="M116.674286,101.181207 C118.091429,101.261264 119.508571,101.352759 120.914286,101.45569 C123.314286,101.650115 125.691429,101.913161 128.068571,102.244828 C124,103.891724 119.988571,104.76092 116.674286,101.181207 Z" id="Shape" fill="#40368D" fill-rule="nonzero"></path>
                <path d="M133.782857,100.403506 C135.188571,101.215517 136.582857,102.027529 137.977143,102.83954 C137.12,104.12046 136.24,105.389943 135.348571,106.659425 C134.8,109.061149 134.251429,111.451437 133.394286,113.773103 C132.88,109.289885 133.222857,104.852414 133.782857,100.403506 Z" id="Shape" fill="#FFFFFF" fill-rule="nonzero"></path>
                <path d="M85.6114286,102.336322 C88.8914286,102.416379 91.6457143,102.885287 94.2971429,104.921034 C91.12,104.577931 88.1714286,104.475 85.6114286,102.336322 Z" id="Shape" fill="#40368D" fill-rule="nonzero"></path>
                <path d="M60.8685714,103.880287 C62.7771429,103.411379 62.9485714,106.590805 60.9485714,106.17908 C60.0685714,105.43569 60.0457143,104.669425 60.8685714,103.880287 Z" id="Shape" fill="#40368D" fill-rule="nonzero"></path>
                <path d="M65.6228571,104.097586 C69.1542857,104.166207 72.6742857,104.234828 76.2057143,104.109023 C72.2285714,106.842414 69.6685714,106.442126 65.6228571,104.097586 Z" id="Shape" fill="#40368D" fill-rule="nonzero"></path>
                <path d="M112.057143,106.453563 C108.365714,106.579368 104.697143,106.899598 101.005714,107.10546 C103.988571,104.017529 108.777143,103.548621 112.057143,106.453563 Z" id="Shape" fill="#40368D" fill-rule="nonzero"></path>
                <path d="M195.52,114.516494 L193.257143,115.534368 C188.777143,114.024713 186.4,110.216264 183.737143,106.590805 C188.411429,107.208391 192.64,111.016839 195.52,114.516494 Z" id="Shape" fill="#FFFFFF" fill-rule="nonzero"></path>
                <path d="M86.6285714,109.232701 C87.4514286,108.889598 88.2628571,108.546494 89.0742857,108.203391 C90.5714286,109.461437 92.0342857,110.742356 93.4514286,112.08046 C91.8742857,111.417126 90.3085714,110.662299 88.6971429,110.12477 C86,109.552931 83.7828571,110.502184 81.4857143,108.660862 C83.5085714,108.432126 84.7314286,108.397816 86.6285714,109.232701 Z" id="Shape" fill="#40368D" fill-rule="nonzero"></path>
                <path d="M116,107.42569 C117.325714,107.551494 118.651429,107.677299 119.977143,107.803103 C122.342857,107.974655 124.365714,108.386379 126.537143,109.324195 C123.657143,109.667299 120.777143,109.884598 117.862857,109.896034 C117.234286,109.084023 116.617143,108.260575 116,107.42569 Z" id="Shape" fill="#40368D" fill-rule="nonzero"></path>
                <path d="M3.56571429,109.312759 C6.93714286,110.525057 10.16,112.023276 13.6228571,112.961092 C15.0857143,114.665172 16.4457143,116.415 17.7371429,118.244885 C13.4971429,117.352816 8.65142857,116.415 4.99428571,113.978966 C3.32571429,112.812414 3.79428571,111.108333 3.56571429,109.312759 Z" id="Shape" fill="#FFFFFF" fill-rule="nonzero"></path>
                <path d="M29.4857143,108.157644 C34.6742857,112.377816 39.7371429,116.758103 44.88,121.058333 C44.8571429,127.451494 44.9942857,133.844655 44.9142857,140.249253 C39.5771429,137.161322 34.4114286,133.844655 29.1428571,130.642356 C29.1657143,123.151264 29.0971429,115.637299 29.4857143,108.157644 Z" id="Shape" fill="#40368D" fill-rule="nonzero"></path>
                <path d="M76.1142857,110.879598 C71.8857143,111.588678 67.9314286,114.344943 64.5028571,110.456437 C66.2285714,110.364943 67.9657143,110.250575 69.6914286,110.113333 C72.6971429,109.530057 73.5085714,109.061149 76.1142857,110.879598 Z" id="Shape" fill="#40368D" fill-rule="nonzero"></path>
                <path d="M111.862857,112.354943 C108.194286,112.274885 104.285714,113.006839 100.708571,112.160517 C103.577143,109.347069 108.8,110.330632 111.862857,112.354943 Z" id="Shape" fill="#40368D" fill-rule="nonzero"></path>
                <path d="M170.742857,109.667299 C171.188571,116.929655 171.508571,124.203448 171.817143,131.477241 C165.874286,136.132011 159.988571,140.866839 153.897143,145.338621 C154.24,137.801782 154.08,129.807471 155.417143,122.396437 C160.08,117.741667 165.645714,113.841724 170.742857,109.667299 Z" id="Shape" fill="#40368D" fill-rule="nonzero"></path>
                <polygon id="Shape" fill="#FFFFFF" fill-rule="nonzero" points="56 112.183391 56.9371429 112.183391 57.4057143 112.983966 56.9257143 113.795977 55.9771429 113.795977 55.52 112.995402"></polygon>
                <path d="M115.68,113.487184 C119.2,113.78454 122.731429,114.242011 126.217143,114.882471 C122.434286,115.808851 118.48,117.135517 115.68,113.487184 Z" id="Shape" fill="#40368D" fill-rule="nonzero"></path>
                <path d="M31.4285714,112.732356 C34.9257143,115.70592 38.7657143,118.405 42,121.664483 C42.5371429,122.167701 42.8228571,122.819598 42.8685714,123.631609 C43.1771429,127.874655 42.9142857,132.163448 42.9142857,136.406494 C39.0742857,134.00477 35.2457143,131.580172 31.4285714,129.155575 C31.36,123.677356 31.4057143,118.210575 31.4285714,112.732356 Z" id="Shape" fill="#FFFFFF" fill-rule="nonzero"></path>
                <path d="" id="Shape" fill="#FFFFFF" fill-rule="nonzero"></path>
                <path d="M168.662857,113.795977 C168.891429,119.605862 169.211429,125.415747 169.417143,131.237069 C165.028571,134.588046 160.765714,138.076264 156.102857,141.072701 C156.217143,135.262816 156.56,129.452931 156.777143,123.643046 C160.674286,120.292069 164.685714,117.05546 168.662857,113.795977 Z" id="Shape" fill="#FFFFFF" fill-rule="nonzero"></path>
                <path d="M184.182857,114.756667 C187.108571,116.918218 190.457143,118.770977 193.028571,121.344253 C194.697143,122.933966 193.782857,124.969713 193.771429,127.016897 C190.251429,123.460057 186.742857,119.994713 182.88,116.803851 L184.182857,114.756667 Z" id="Shape" fill="#FFFFFF" fill-rule="nonzero"></path>
                <path d="M82.9257143,117.867471 C82.1142857,119.274195 79.2914286,120.04046 78.9485714,117.901782 C79.4628571,115.877471 82.1142857,116.277759 82.9257143,117.867471 Z" id="Shape" fill="#FFFFFF" fill-rule="nonzero"></path>
                <path d="M131.977143,117.718793 C133.897143,116.220575 135.165714,119.605862 132.925714,120.097644 C131.702857,119.75454 131.382857,118.965402 131.977143,117.718793 Z" id="Shape" fill="#FFFFFF" fill-rule="nonzero"></path>
                <path d="M105.897143,120.417874 C106.388571,121.001149 106.868571,121.584425 107.36,122.156264 C106,122.179138 104.64,122.190575 103.28,122.202011 C101.405714,122.750977 99.5428571,123.197011 97.6114286,123.528678 C100.217143,122.007586 103.04,121.264195 105.897143,120.417874 Z" id="Shape" fill="#FFFFFF" fill-rule="nonzero"></path>
                <path d="M4.53714286,120.234885 C5.87428571,120.772414 7.21142857,121.309943 8.53714286,121.847471 C10.08,121.733103 11.6228571,121.630172 13.1771429,121.550115 C13.7714286,122.144828 14.3657143,122.728103 14.9714286,123.322816 C18.1942857,124.397874 19.1542857,125.026897 20.9485714,127.897529 C15.7714286,127.886092 10.7428571,126.879655 6.09142857,124.546552 C5.55428571,123.116954 5.04,121.67592 4.53714286,120.234885 Z" id="Shape" fill="#FFFFFF" fill-rule="nonzero"></path>
                <path d="M39.1771429,120.543678 C40.7428571,122.991149 41.4514286,125.358563 41.8514286,128.240632 C40.7657143,128.252069 39.6914286,128.274943 38.6057143,128.286379 C37.6114286,129.086954 36.5828571,129.853218 35.5542857,130.608046 C35.8628571,128.64092 36.2971429,126.708103 36.6857143,124.752414 C35.1771429,124.969713 33.6571429,125.175575 32.1485714,125.37 C34.1828571,123.174138 36.4571429,121.755977 39.1771429,120.543678 Z" id="Shape" fill="#40368D" fill-rule="nonzero"></path>
                <path d="M37.9085714,123.505805 C39.4057143,122.750977 41.1428571,125.072644 40.08,126.33069 C38.6171429,127.07408 36.88,124.718103 37.9085714,123.505805 Z" id="Shape" fill="#FFFFFF" fill-rule="nonzero"></path>
                <path d="M164.08,122.70523 C162.822857,124.420747 161.497143,126.090517 160.16,127.748851 C161.268571,128.457931 162.411429,129.121264 163.565714,129.750287 C165.314286,129.281379 165.325714,126.433621 165.954286,124.946839 C166.571429,125.507241 167.177143,126.067644 167.782857,126.628046 C166.605714,128.789598 165.817143,130.802471 163.371429,131.820345 C160.948571,131.214195 158.834286,129.921839 159.131429,127.096954 C159.657143,124.386437 161.954286,123.906092 164.08,122.70523 Z" id="Shape" fill="#40368D" fill-rule="nonzero"></path>
                <path d="M180.777143,123.402874 C184.205714,124.981149 187.394286,126.204885 189.462857,129.567299 C190.765714,131.317126 190.194286,133.878966 190.228571,135.949023 C187.474286,133.215632 184.88,130.356437 182.571429,127.234195 C181.942857,125.976149 181.337143,124.69523 180.777143,123.402874 Z" id="Shape" fill="#FFFFFF" fill-rule="nonzero"></path>
                <path d="M12.1485714,130.619483 C12.9028571,131.705977 13.6457143,132.803908 14.3771429,133.913276 C14.9942857,133.467241 15.6114286,133.032644 16.2285714,132.586609 C19.8171429,133.124138 23.8171429,132.666667 25.1657143,136.863966 C20.3085714,137.264253 15.0628571,137.34431 10.32,136.132011 C8.65142857,135.846092 8.42285714,133.718851 7.87428571,132.415057 C9.29142857,131.786034 10.6971429,131.168448 12.1485714,130.619483 Z" id="Shape" fill="#FFFFFF" fill-rule="nonzero"></path>
                <path d="M179.108571,132.643793 C182.068571,135.331437 187.954286,139.94046 186.662857,144.469425 C183.908571,142.296437 181.394286,139.791782 178.902857,137.321437 C178.822857,135.743161 178.868571,134.210632 179.108571,132.643793 Z" id="Shape" fill="#FFFFFF" fill-rule="nonzero"></path>
                <path d="M12.5142857,138.430805 C13.8057143,138.716724 15.0971429,139.002644 16.4,139.288563 C17.7485714,139.597356 19.1085714,139.894713 20.48,140.180632 C21.28,141.084138 22.08,141.99908 22.88,142.902586 C23.8857143,142.410805 24.8914286,141.907586 25.9085714,141.404368 C27.5885714,142.376494 29.28,143.348621 30.9485714,144.332184 C30.2171429,144.892586 29.5085714,145.681724 28.64,145.97908 C22.6857143,146.276437 17.12,146.676724 11.7714286,143.588793 C12.0342857,141.873276 12.2742857,140.146322 12.5142857,138.430805 Z" id="Shape" fill="#FFFFFF" fill-rule="nonzero"></path>
                <path d="M93.9657143,139.437241 C94.9942857,140.683851 96,141.93046 97.0171429,143.188506 C97.4057143,142.273563 97.8057143,141.381494 98.24,140.500862 C100.491429,140.901149 102.662857,140.752471 104.925714,140.638103 C104.114286,141.232816 103.302857,141.827529 102.502857,142.433678 C103.154286,144.057701 104.411429,145.91046 104.32,147.717471 C103.04,148.449425 101.588571,148.92977 99.9771429,149.158506 C100.902857,148.392241 101.828571,147.61454 102.765714,146.848276 C102.022857,145.041264 101.314286,143.222816 100.64,141.392931 C100.217143,141.495862 99.7828571,141.587356 99.36,141.690287 C99.3142857,143.977644 99.2571429,146.265 99.2,148.552356 L98.0228571,148.460862 C98.0571429,147.420115 98.08,146.379368 98.1142857,145.350057 C97.2685714,145.361494 96.4228571,145.372931 95.5885714,145.384368 C94.8914286,146.768218 94.1828571,148.129195 93.4514286,149.490172 C93.4285714,146.127759 93.68,142.788218 93.9657143,139.437241 Z" id="Shape" fill="#40368D" fill-rule="nonzero"></path>
                <path d="M175.222857,139.757471 C178.594286,144.343621 182.262857,147.854713 181.405714,154.053448 C179.851429,152.623851 178.331429,151.137069 176.742857,149.730345 C175.074286,146.310747 173.702857,143.60023 175.222857,139.757471 Z" id="Shape" fill="#FFFFFF" fill-rule="nonzero"></path>
                <path d="M24.3085714,149.341494 C27.2114286,149.627414 30.0914286,150.084885 33.0057143,150.290747 C34.72,151.537356 38.2514286,152.703908 38.6628571,154.968391 C34.2057143,155.402989 29.5657143,155.54023 25.0971429,155.563103 C22.1714286,155.688908 20.8114286,153.767529 18.72,152.120632 C19.4171429,151.503046 20.1257143,150.896897 20.8457143,150.290747 C22,149.936207 23.1542857,149.615977 24.3085714,149.341494 Z" id="Shape" fill="#FFFFFF" fill-rule="nonzero"></path>
                <path d="M170.32,147.328621 C172.662857,151.903333 176.011429,156.741092 173.36,161.979138 C171.92,162.928391 171.257143,160.892644 170.194286,160.16069 C170.537143,159.474483 170.891429,158.788276 171.234286,158.090632 C170.228571,155.883333 168.902857,153.607414 168.4,151.217126 C168.971429,149.89046 169.611429,148.598103 170.32,147.328621 Z" id="Shape" fill="#FFFFFF" fill-rule="nonzero"></path>
                <path d="M73.6342857,156.100632 C75.4971429,156.283621 77.3714286,156.466609 79.2342857,156.638161 C77.8514286,161.132816 74.2285714,166.165 75.5657143,170.842644 C73.1428571,169.79046 70.6857143,168.82977 68.2171429,167.880517 C69.3485714,167.354425 70.48,166.828333 71.6,166.313678 C72.9828571,162.779713 75.0857143,160.057759 73.6342857,156.100632 Z" id="Shape" fill="#40368D" fill-rule="nonzero"></path>
                <path d="M118.982857,156.969828 C117.325714,158.994138 115.542857,160.926954 113.874286,162.951264 C116.56,163.397299 119.028571,162.448046 120.662857,165.17 C122.617143,168.738276 120.434286,172.180747 116.582857,172.546724 C111.851429,172.77546 110.137143,165.547414 111.68,162.116379 C112.96,158.605287 115.76,157.930517 118.982857,156.969828 Z" id="Shape" fill="#40368D" fill-rule="nonzero"></path>
                <path d="M162.662857,157.392989 L164.354286,156.718218 C165.588571,159.52023 166.48,162.653908 166.582857,165.730402 C166.502857,167.766149 164.594286,169.001322 163.268571,170.270805 C162.731429,166.187874 161.794286,161.464483 162.662857,157.392989 Z" id="Shape" fill="#FFFFFF" fill-rule="nonzero"></path>
                <path d="M30.8685714,159.028448 L32.4457143,159.097069 C37.0857143,159.440172 40.9942857,158.090632 44.9028571,161.304368 C39.1771429,162.425172 33.0742857,165.513103 27.5542857,162.379425 C28.64,161.235747 29.68,160.069195 30.8685714,159.028448 Z" id="Shape" fill="#FFFFFF" fill-rule="nonzero"></path>
                <path d="M88.8457143,158.52523 C88.5828571,159.886207 88.3085714,161.247184 88.0342857,162.608161 C88.6514286,163.191437 89.2685714,163.774713 89.8857143,164.369425 C90.2514286,162.47092 90.6285714,160.560977 91.1085714,158.685345 L93.1885714,162.47092 C92.72,163.82046 92.1828571,165.147126 91.6,166.45092 C92.08,167.503103 92.56,168.555287 93.04,169.607471 C92.0228571,170.81977 91.0171429,172.215057 89.7485714,173.175747 C87.5085714,173.976322 84.9257143,173.507414 83.36,171.643218 C81.2914286,169.870517 83.68,167.262931 84.3771429,165.364425 C84.3428571,163.88908 84.32,162.425172 84.32,160.949828 C85.8057143,160.114943 87.3142857,159.302931 88.8457143,158.52523 Z" id="Shape" fill="#40368D" fill-rule="nonzero"></path>
                <path d="M106.697143,159.222874 C104.731429,160.949828 102.708571,162.608161 100.742857,164.335115 C102.674286,165.089943 104.96,165.616034 106.605714,166.919828 C106.982857,168.635345 107.428571,171.014195 106.217143,172.48954 C104.628571,174.525287 101.817143,174.616782 99.5771429,173.781897 C95.7714286,170.762586 96.7771429,164.792586 99.7485714,161.555977 C101.36,159.829023 104.56,159.783276 106.697143,159.222874 Z" id="Shape" fill="#40368D" fill-rule="nonzero"></path>
                <path d="M46.16,163.992011 C47.0857143,164.758276 47.9885714,165.558851 48.9028571,166.347989 C51.2114286,166.462356 52.2628571,166.83977 54.2628571,168.109253 C50.2628571,169.332989 46.1828571,170.476667 42.0457143,171.128563 C40.1371429,171.368736 38.1714286,171.563161 36.4342857,170.556724 C34.8685714,169.413046 33.7485714,167.571724 32.5828571,166.062069 C33.9542857,166.83977 35.3142857,167.628908 36.6742857,168.406609 C36.9142857,167.400172 37.1657143,166.382299 37.4057143,165.375862 C38.72,166.508103 40.0342857,167.628908 41.3485714,168.772586 C42.0228571,167.994885 42.6971429,167.205747 43.36,166.428046 C44.5142857,166.702529 45.6571429,166.977011 46.8,167.240057 C46.5828571,166.153563 46.3657143,165.078506 46.16,163.992011 Z" id="Shape" fill="#FFFFFF" fill-rule="nonzero"></path>
                <path d="M115.611429,164.438046 C118.011429,166.919828 118.96,168.612471 116.697143,171.666092 C116,169.275805 115.531429,166.942701 115.611429,164.438046 Z" id="Shape" fill="#FFFFFF" fill-rule="nonzero"></path>
                <path d="M157.314286,163.980575 C157.622857,169.035632 159.211429,174.250805 154.228571,177.567471 C153.737143,176.252241 153.44,175.039943 153.554286,173.621782 C154.034286,169.687529 153.2,166.004885 157.314286,163.980575 Z" id="Shape" fill="#FFFFFF" fill-rule="nonzero"></path>
                <path d="M103.074286,166.622471 C103.222857,168.520977 103.291429,170.419483 103.348571,172.317989 C102.617143,172.329425 101.885714,172.340862 101.142857,172.352299 C101.6,170.042069 100.514286,167.720402 103.074286,166.622471 Z" id="Shape" fill="#FFFFFF" fill-rule="nonzero"></path>
                <path d="M86.4,166.896954 C87.2571429,168.326552 88.1371429,169.733276 88.8228571,171.254368 C87.8742857,171.311552 86.9257143,171.311552 85.9771429,171.265805 C84.6971429,169.767586 86.0685714,168.520977 86.4,166.896954 Z" id="Shape" fill="#FFFFFF" fill-rule="nonzero"></path>
                <path d="M147.737143,169.081379 C148.045714,172.066379 148.342857,175.039943 148.548571,178.024943 C149.04,180.220805 146.194286,181.753333 145.028571,183.285862 C144.754286,180.255115 144.571429,177.224368 144.388571,174.182184 C145.497143,172.478103 146.594286,170.762586 147.737143,169.081379 Z" id="Shape" fill="#FFFFFF" fill-rule="nonzero"></path>
                <path d="M52.9371429,170.293678 C53.6228571,171.265805 54.32,172.237931 55.0057143,173.198621 C57.9885714,172.947011 60.6171429,173.175747 63.5428571,173.850517 C57.12,177.876264 51.1085714,179.157184 43.5885714,177.658966 C44.24,176.503851 44.8685714,175.337299 45.4971429,174.170747 C48.1714286,173.667529 50.8228571,173.324425 53.5428571,173.290115 C53.3371429,172.295115 53.1314286,171.300115 52.9371429,170.293678 Z" id="Shape" fill="#FFFFFF" fill-rule="nonzero"></path>
                <path d="M138.022857,173.678966 C141.691429,174.731149 139.52,179.111437 139.131429,181.684713 C138.182857,186.053563 135.188571,187.654713 131.325714,189.107184 C131.702857,185.721897 133.142857,182.816954 134.651429,179.820517 C133.794286,179.488851 132.937143,179.168621 132.091429,178.836954 C134.217143,177.258678 136.137143,175.554598 138.022857,173.678966 Z" id="Shape" fill="#FFFFFF" fill-rule="nonzero"></path>
                <path d="M68.9371429,176.652529 C70.2171429,176.480977 71.4971429,176.320862 72.7885714,176.206494 C69.8971429,180.323736 64.2514286,182.222241 60.24,185.230115 C57.8742857,184.498161 55.5085714,183.743333 53.1542857,182.965632 C57.1428571,181.616092 60.2742857,179.969195 63.3714286,177.098563 C64.1942857,177.167184 65.0285714,177.224368 65.8628571,177.270115 C66.8914286,177.07569 67.9085714,176.869828 68.9371429,176.652529 Z" id="Shape" fill="#FFFFFF" fill-rule="nonzero"></path>
                <path d="M78.4114286,179.157184 C79.0742857,179.523161 79.7257143,179.900575 80.3657143,180.277989 C77.1771429,183.04569 74.5828571,186.488161 71.3257143,189.164368 C67.8171429,190.857011 65.1657143,189.072874 62.1257143,187.460287 C63.0857143,187.563218 64.0457143,187.666149 64.9942857,187.76908 C69.2457143,184.338046 73.1771429,181.021379 78.4114286,179.157184 Z" id="Shape" fill="#FFFFFF" fill-rule="nonzero"></path>
                <path d="M127.554286,177.647529 C128.445714,178.265115 129.325714,178.882701 130.205714,179.500287 C129.074286,182.874138 128.285714,186.522471 126.662857,189.69046 C125.611429,191.909195 122.171429,192.252299 120.148571,193.052874 C121.097143,191.062874 122.114286,189.130057 123.188571,187.220115 C121.805714,187.242989 120.422857,187.265862 119.04,187.288736 C119.337143,186.613966 119.645714,185.939195 119.954286,185.264425 C121.165714,185.801954 122.377143,186.339483 123.588571,186.877011 C123.542857,185.207241 123.52,183.526034 123.531429,181.856264 C124.765714,180.358046 126.125714,178.962759 127.554286,177.647529 Z" id="Shape" fill="#FFFFFF" fill-rule="nonzero"></path>
                <path d="M118.034286,179.511724 C119.977143,182.702586 116.88,187.162931 115.851429,190.342356 C114.171429,194.596839 111.645714,195.969253 107.131429,196.163678 C108.685714,193.430287 110.502857,190.868448 112.388571,188.352356 L109.977143,188.69546 C112.765714,185.71046 115.142857,182.40523 118.034286,179.511724 Z" id="Shape" fill="#FFFFFF" fill-rule="nonzero"></path>
                <path d="M84.6057143,182.668276 C85.9771429,182.977069 87.3257143,183.354483 88.6628571,183.800517 C86.1142857,186.831264 83.4514286,189.987816 80.32,192.435287 C78.4457143,194.242299 75.1885714,193.31592 72.8,193.373103 C74.2628571,191.954943 75.7257143,190.525345 77.2342857,189.164368 C77.5771429,188.169368 77.9085714,187.174368 78.2514286,186.179368 C79.04,185.733333 79.8285714,185.275862 80.6171429,184.818391 C81.9314286,184.052126 83.2,183.251552 84.6057143,182.668276 Z" id="Shape" fill="#FFFFFF" fill-rule="nonzero"></path>
                <path d="M96.3542857,184.155057 C94.8685714,188.249425 92.2857143,192.481034 88.7085714,195.05431 C86.24,196.666897 84.6742857,195.717644 82.2057143,194.779828 C83.2685714,194.34523 84.3314286,193.910632 85.3942857,193.476034 C88.0228571,190.147931 90.7885714,187.06 92.5714286,183.160057 C94.6514286,182.702586 94.8685714,182.416667 96.3542857,184.155057 Z" id="Shape" fill="#FFFFFF" fill-rule="nonzero"></path>
                <path d="M103.474286,183.377356 C104.925714,182.988506 106.411429,182.679713 107.908571,182.428103 C106.228571,186.282299 105.234286,190.33092 103.782857,194.242299 C101.474286,195.946379 98.0685714,195.717644 95.3371429,195.934943 C100.114286,192.70977 100.674286,187.929195 103.474286,183.377356 Z" id="Shape" fill="#FFFFFF" fill-rule="nonzero"></path>
            </g>
        </g>
    </g>
</svg>