<?xml version="1.0" encoding="UTF-8"?>
<svg width="200px" height="200px" viewBox="0 0 200 200" version="1.1" xmlns="http://www.w3.org/2000/svg" xmlns:xlink="http://www.w3.org/1999/xlink">
    <!-- Generator: Sketch 51.3 (57544) - http://www.bohemiancoding.com/sketch -->
    <title>rutgers-camden</title>
    <desc>Created with Sketch.</desc>
    <defs></defs>
    <g id="rutgers-camden" stroke="none" stroke-width="1" fill="none" fill-rule="evenodd">
        <g id="rutgers-camden_BGL" transform="translate(8.219178, 0.000000)">
            <g id="rutgers-camden">
                <g id="g10" transform="translate(91.336896, 100.569530) scale(-1, 1) rotate(-180.000000) translate(-91.336896, -100.569530) translate(0.000000, 0.445000)" fill-rule="nonzero">
                    <g id="g12">
                        <path d="M180.070691,40.2931214 L179.827996,66.9736257 L165.469835,66.7588487 L133.937729,114.817053 C156.071269,123.183799 167.142605,136.322493 167.142605,154.227115 C167.142605,166.607219 162.070798,176.986141 151.95067,185.354719 C141.25251,194.054428 126.833415,198.410173 108.687905,198.410173 L2.07547439,198.274056 L2.07547439,171.799297 L14.24699,171.72993 L14.24699,66.7588487 L2.07547439,66.9736257 L2.07547439,40.2931214 L77.6882932,40.2931214 L77.6882932,66.9736257 L65.1040262,66.7588487 L65.1040262,109.568957 L87.5157518,109.568957 L114.437693,66.66998 L98.5959612,66.9358008 L98.5322863,40.2814729 L180.070691,40.2931214 Z M108.825433,141.103603 C103.701041,137.080298 96.1269944,135.07519 86.0778481,135.07519 L65.8940903,135.07519 L65.8940903,171.72993 L91.4831656,171.72993 C99.8166135,171.72993 106.167398,169.470911 110.527822,164.950256 C113.560468,161.939976 115.071702,158.169273 115.071702,153.649927 C115.071702,148.795523 112.987133,144.609925 108.825433,141.103603 Z" id="path14" fill="#E51635"></path>
                        <path d="M66.5464967,135.729599 L86.0778481,135.729599 C95.9226607,135.729599 103.437991,137.708531 108.415199,141.611424 C112.399967,144.973776 114.419296,149.023257 114.419296,153.649927 C114.419296,157.974259 112.955557,161.619316 110.06918,164.485626 C105.846284,168.862311 99.5964916,171.075521 91.4831656,171.075521 L66.5464967,171.075521 L66.5464967,135.729599 Z M86.0778481,134.420781 L65.2416839,134.420781 L65.2416839,172.384339 L91.4831656,172.384339 C99.963405,172.384339 106.529353,170.03632 110.997293,165.405724 C114.13041,162.294665 115.724108,158.335493 115.724108,153.649927 C115.724108,148.614906 113.544158,144.225133 109.24493,140.602326 L109.228098,140.587929 C104.015501,136.496566 96.2273345,134.420781 86.0778481,134.420781 Z M99.2473237,66.2690893 L99.186128,40.9358816 L179.41176,40.94753 L179.182113,66.3084847 L165.122755,66.0993356 L132.944767,115.141116 L133.708082,115.429579 C155.460616,123.652094 166.490199,136.705977 166.490199,154.227115 C166.490199,166.341529 161.458841,176.643231 151.53574,184.850824 C141.004595,193.413108 126.588763,197.755764 108.687905,197.755764 L2.72788079,197.620956 L2.72788079,172.44978 L14.8993964,172.380412 L14.8993964,66.0926607 L2.72788079,66.3074376 L2.72788079,40.94753 L77.0358868,40.94753 L77.0358868,66.3074376 L64.4516198,66.0926607 L64.4516198,110.223365 L87.8761411,110.223365 L88.0671657,109.918149 L115.631336,65.9944994 L99.2473237,66.2690893 Z M97.8788361,39.6270642 L97.9451205,67.6019889 L113.243529,67.3437592 L87.1553625,108.914548 L65.7564326,108.914548 L65.7564326,67.4250368 L78.3406996,67.6398137 L78.3406996,39.6387127 L1.42306799,39.6387127 L1.42306799,67.6398137 L13.5945836,67.4250368 L13.5945836,171.079448 L1.42306799,171.148815 L1.42306799,198.928464 L108.686861,199.064581 C126.894089,199.064581 141.589152,194.623764 152.361686,185.863849 C162.603162,177.393183 167.795012,166.74988 167.795012,154.227115 C167.795012,136.312023 156.739333,122.948081 134.929387,114.496523 L165.81822,67.4183618 L180.473878,67.6382431 L180.729621,39.6387127 L97.8788361,39.6270642 Z" id="path16" fill="#220000"></path>
                        <path d="M67.1962935,136.386623 L86.0778481,136.386625 C95.9608917,136.384008 103.23157,138.369484 108.017623,142.134951 C111.921884,145.461965 113.749144,149.196021 113.766889,153.649927 C113.751623,157.880024 112.398923,161.234523 109.590053,164.041937 C105.527779,168.24324 99.5954478,170.41326 91.4806865,170.421113 L67.1962935,170.421113 L67.1962935,136.386623 Z M64.5892775,133.767682 L64.5892775,173.040083 L91.4806865,173.040056 C100.033212,173.049218 106.801929,170.698582 111.445236,165.880825 C114.720577,162.645429 116.389824,158.45983 116.376515,153.649927 C116.391912,148.406804 114.057993,143.781443 109.661426,140.101049 L108.822953,141.106221 L109.628284,140.074873 C104.162293,135.791113 96.2870949,133.770299 86.0778481,133.767682 L64.5892775,133.767682 Z M99.8401002,41.5953947 L178.755439,41.6045564 L178.533621,65.6489716 L164.769151,65.439299 L131.950499,115.468844 L133.47713,116.044069 C155.348403,124.377571 165.793429,136.942873 165.835183,154.227115 C165.816916,166.243368 160.985194,176.160277 151.127333,184.339077 C140.717537,192.803199 126.63156,197.098738 108.687905,197.103973 L3.38028719,196.970473 L3.38028719,173.102879 L15.5518028,173.030895 L15.5518028,65.4290903 L3.38028719,65.6449142 L3.38028719,41.6045564 L76.3815232,41.6045564 L76.3815232,65.6463539 L63.7992134,65.4290903 L63.7992134,110.880392 L88.2339208,110.880392 L116.825109,65.3191496 L99.8930756,65.6085291 L99.8401002,41.5953947 Z M97.2936275,68.2666064 L112.046754,68.0217266 L86.7954952,108.262757 L66.4063598,108.262757 L66.4063598,68.0912248 L78.9911488,68.3060018 L78.9911488,38.9869216 L0.770655061,38.9869216 L0.770655061,68.3084885 L12.942112,68.0938425 L12.942112,170.430274 L0.770655061,170.50095 L0.770655061,199.582873 L108.685818,199.71899 C127.031747,199.724225 141.784873,195.306967 152.776617,186.366435 C163.153793,177.814622 168.464381,166.974996 168.447418,154.227115 C168.485258,136.128788 157.322584,122.62284 135.918435,114.180575 L166.166605,68.0810161 L181.118455,68.3060018 L181.375503,40.3064713 L180.070691,40.2931214 L180.070691,41.6045564 L180.070691,40.2931214 L181.375503,40.3064713 L181.388552,38.9869216 L97.220297,38.9726555 L97.2936275,68.2666064 Z" id="path18" fill="#231F20"></path>
                        <path d="M20.3045834,11.6040012 L26.1915074,9.7322876 C25.2893598,6.44080818 23.7884336,3.99444524 21.6909471,2.39626141 C19.5911118,0.79960628 16.9278584,0 13.7015783,0 C9.70810735,0 6.42569417,1.36914079 3.85582621,4.10437281 C1.28544416,6.84266747 0,10.581998 0,15.3274296 C0,20.3480531 1.29207,24.2474128 3.87620739,27.0244615 C6.46136775,29.8032117 9.85847398,31.1902964 14.0716232,31.1902964 C17.7484552,31.1902964 20.7368679,30.0987427 23.0339909,27.9182529 C24.4005213,26.6303766 25.4270175,24.7785309 26.1099566,22.3638937 L20.1007717,20.9252416 C19.7439054,22.4881004 19.0023803,23.7207447 17.8764573,24.6282786 C16.7470113,25.5321479 15.376436,25.9867002 13.762774,25.9867002 C11.5328098,25.9867002 9.72595719,25.1829554 8.33703616,23.5780836 C6.9496548,21.9722955 6.25494637,19.373115 6.25494637,15.7814584 C6.25494637,11.9680095 6.93946421,9.25221338 8.30646439,7.6330623 C9.6739604,6.01391121 11.451259,5.20664573 13.6403825,5.20664573 C15.2535226,5.20664573 16.6398862,5.7194273 17.8035183,6.74807924 C18.965715,7.7782625 19.8000123,9.39588226 20.3045834,11.6040012" id="path20" fill="#231F20"></path>
                        <path d="M47.7591496,12.4480837 L43.6154556,23.6399906 L39.555661,12.4480837 L47.7591496,12.4480837 Z M58.9382638,0.515858596 L52.3342147,0.515858596 L49.7093228,7.36619443 L37.688213,7.36619443 L35.2069809,0.515858596 L28.7660335,0.515858596 L40.4782942,30.6775017 L46.8983646,30.6775017 L58.9382638,0.515858596 Z" id="path22" fill="#231F20"></path>
                        <polyline id="path24" fill="#231F20" points="62.4959664 0.515858596 62.4959664 30.6775017 71.5822913 30.6775017 77.0390184 10.1014134 82.4325926 30.6775017 91.5392726 30.6775017 91.5392726 0.515858596 85.8994802 0.515858596 85.8994802 24.256051 79.9315274 0.515858596 74.0847917 0.515858596 68.1366721 24.256051 68.1366721 0.515858596 62.4959664 0.515858596"></polyline>
                        <path d="M104.03951,25.5740301 L104.03951,5.59774655 L108.573212,5.59774655 C110.268425,5.59774655 111.493644,5.69182434 112.245477,5.88456079 C113.229176,6.13201889 114.047293,6.54920444 114.69709,7.13817226 C115.344408,7.72969228 115.874553,8.70108346 116.284786,10.050291 C116.69515,11.4010298 116.901571,13.2426144 116.901571,15.574927 C116.901571,17.9057999 116.69515,19.6961312 116.284786,20.9451356 C115.874553,22.1921768 115.301088,23.1660678 114.562042,23.8674631 C113.823518,24.5653245 112.888228,25.0388546 111.753693,25.2862211 C110.905043,25.4774394 109.243364,25.5740301 106.768917,25.5740301 L104.03951,25.5740301 Z M97.9689986,30.6775017 L109.064996,30.6775017 C111.568149,30.6775017 113.476438,30.4836659 114.788819,30.0987427 C116.552925,29.5777025 118.06416,28.6528921 119.320564,27.3231336 C120.578925,25.9918046 121.53718,24.363374 122.192196,22.4360095 C122.849691,20.5090377 123.178373,18.1337958 123.178373,15.3080591 C123.178373,12.8238582 122.870568,10.6837324 122.253261,8.88820509 C121.501558,6.69439155 120.429133,4.91726621 119.034549,3.5598786 C117.982609,2.53122666 116.560102,1.72906557 114.768463,1.15186139 C113.428029,0.727517927 111.636391,0.515858596 109.393809,0.515858596 L97.9689986,0.515858596 L97.9689986,30.6775017 Z" id="path26" fill="#231F20"></path>
                        <polyline id="path28" fill="#231F20" points="128.747314 0.515858596 128.747314 30.6775017 151.041215 30.6775017 151.041215 25.5740301 134.817173 25.5740301 134.817173 18.8874129 149.915162 18.8874129 149.915162 13.8054059 134.817173 13.8054059 134.817173 5.59774655 151.616638 5.59774655 151.616638 0.515858596 128.747314 0.515858596"></polyline>
                        <polyline id="path30" fill="#231F20" points="157.244296 0.515858596 157.244296 30.6775017 163.151183 30.6775017 175.458177 10.5334278 175.458177 30.6775017 181.100188 30.6775017 181.100188 0.515858596 175.006712 0.515858596 162.886306 20.1834039 162.886306 0.515858596 157.244296 0.515858596"></polyline>
                    </g>
                </g>
            </g>
        </g>
    </g>
</svg>