<?xml version="1.0" encoding="UTF-8"?>
<svg width="200px" height="200px" viewBox="0 0 200 200" version="1.1" xmlns="http://www.w3.org/2000/svg" xmlns:xlink="http://www.w3.org/1999/xlink">
    <!-- Generator: Sketch 51.3 (57544) - http://www.bohemiancoding.com/sketch -->
    <title>saginaw-valley</title>
    <desc>Created with Sketch.</desc>
    <defs></defs>
    <g id="saginaw-valley" stroke="none" stroke-width="1" fill="none" fill-rule="evenodd">
        <g id="saginaw-valley_BGL" transform="translate(0.000000, 8.000000)">
            <g id="saginaw-valley">
                <g id="g10" transform="translate(99.807319, 91.730251) scale(-1, 1) rotate(-180.000000) translate(-99.807319, -91.730251) translate(0.000000, 0.400773)" fill-rule="nonzero">
                    <g id="g12">
                        <path d="M119.556837,4.44394594 L120.712906,0 C150.759148,23.3989975 147.397299,52.0785343 147.397299,52.0785343 C161.677067,59.2723685 199.337953,58.5549118 199.337953,58.5549118 L171.184581,88.9441211 C146.247395,182.236604 0,181.900582 0,181.900582 C75.1366455,123.536028 12.3904429,76.314449 12.3904429,76.314449 C12.3904429,76.314449 95.5499013,88.9618475 119.556837,4.44394594" id="path14" fill="#231F20"></path>
                        <path d="M59.9105958,92.0161827 C54.8181875,95.6130997 102.85703,92.9919052 102.85703,92.9919052 C106.114834,90.6173388 120.766086,88.0308263 120.766086,88.0308263 C120.766086,88.0308263 112.572637,93.6847761 105.339496,102.028514 C99.0111729,109.327165 83.2747571,120.758378 83.2747571,120.758378 C83.2747571,120.758378 107.713292,117.477454 122.03622,103.118302 C122.03622,103.118302 108.3052,126.659727 92.3244678,134.87938 C92.3244678,134.87938 103.499805,133.99229 124.136413,112.160305 C138.73911,96.7121363 162.370709,87.8527916 162.370709,87.8527916 C162.370709,87.8527916 147.643156,124.037762 110.591905,144.680536 C77.4651233,163.132173 48.8399988,159.97225 17.8784581,174.451633 C17.8784581,174.451633 28.0238143,167.656258 36.7169162,154.676682 C38.5822726,154.071672 40.4736021,153.50674 42.3307889,153.028898 C53.2622723,150.188821 66.3640831,143.371095 70.681925,137.66859 C70.681925,137.66859 57.028515,143.793445 42.175182,145.070517 C44.0787658,141.047395 45.7159141,136.628898 46.9035826,131.821962 C56.6937943,128.847781 64.4571853,122.958764 64.4571853,122.958764 C64.4571853,122.958764 57.765856,125.267049 48.4170315,123.196143 C48.5203071,121.979188 48.3324073,100.97572 33.0238142,87.0050075" id="path16" fill="#D85557"></path>
                        <path d="M162.370709,87.8527916 C162.370709,87.8527916 138.578031,96.5649301 124.136413,112.160305 C122.695951,113.720999 121.317145,115.114448 119.969939,116.423118 C125.114448,112.153369 136.607318,103.263196 145.609245,100.907897 C145.609245,100.907897 140.397684,118.351442 117.845854,134.484004 C95.3125217,150.615025 56.2129466,156.732944 46.0799218,159.870516 C41.5492861,161.273214 33.4543344,164.518686 25.8779184,167.678609 C21.3035833,172.14566 17.8784581,174.451633 17.8784581,174.451633 C17.8784581,174.451633 143.273214,162.527164 162.370709,87.8527916" id="path18" fill="#E99C95"></path>
                        <path d="M125.156837,15.8658185 C139.460497,30.9040455 137.911365,47.1977638 137.911365,47.1977638 C113.75414,89.8450845 67.2762989,85.6670499 67.2762989,85.6670499 C100.872444,89.12678 117.136799,78.2250462 117.136799,78.2250462 C112.909438,84.1109806 104.999612,91.2847761 104.999612,91.2847761 C104.999612,91.2847761 90.1934467,110.14335 48.2917907,119.038147 L48.0506346,118.070132 C45.2598062,96.2813078 31.2852401,85.3510576 31.2852401,85.3510576 C31.2852401,85.3510576 107.004236,85.6300557 124.779188,17.5382655" id="path20" fill="#C4122E"></path>
                        <path d="M132.805392,98.3044291 C132.394602,97.3857394 132.2736,96.0631961 132.302887,94.9973001 C132.394602,91.1221557 135.88516,88.353755 139.757993,88.4485527 C142.002309,88.5017319 143.946046,89.620807 145.193831,91.2894004 C135.141422,84.8254314 135.070517,100.582656 132.805392,98.3044291" id="path22" fill="#FFFFFF"></path>
                        <path d="M163.022732,84.751443 C163.022732,84.751443 169.88516,76.9201522 184.510978,64.2888616 C184.510978,64.2888616 170.016181,65.7141409 145.967626,60.6867037 L147.968397,81.3741791 L163.022732,84.751443" id="path24" fill="#F9A72B"></path>
                        <path d="M162.971865,84.6566453 C162.971865,84.6566453 160.055487,78.249709 155.324852,75.5145261 C155.324852,75.5145261 152.643541,73.4242756 157.580728,71.4474741 C157.580728,71.4474741 174.234292,69.6941023 183.217722,65.1083606 L162.971865,84.6566453" id="path26" fill="#FCD99F"></path>
                        <path d="M10.8950286,87.3302483 L11.3632367,87.3302483 C11.8978802,87.3302483 12.352755,87.5221558 12.352755,88.0269728 C12.352755,88.3845835 12.0935642,88.7391115 11.3632367,88.7391115 C11.1539882,88.7391115 11.0073215,88.7236972 10.8950286,88.7067415 L10.8950286,87.3302483 Z M10.8950286,85.0789959 L10.2477839,85.0789959 L10.2477839,89.1460479 C10.5867435,89.1946028 10.9109824,89.242387 11.3956837,89.242387 C12.0134872,89.242387 12.4190363,89.1136779 12.6607319,88.9341018 C12.9037376,88.7576086 13.0326008,88.4786105 13.0326008,88.0917126 C13.0326008,87.5576086 12.6785353,87.2331385 12.2399226,87.102888 L12.2399226,87.0697473 C12.5954525,87.0065489 12.8383812,86.6843909 12.9199997,86.0840056 C13.0193446,85.452021 13.1141423,85.207705 13.1791904,85.0789959 L12.5002694,85.0789959 C12.4018494,85.207705 12.3048937,85.5822715 12.2236606,86.1132926 C12.1263966,86.6335238 11.8680537,86.8277435 11.3490556,86.8277435 L10.8950286,86.8277435 L10.8950286,85.0789959 Z M11.5748745,90.2828494 C9.97287066,90.2828494 8.65965296,88.8994197 8.65965296,87.20231 C8.65965296,85.4674352 9.97287066,84.1078977 11.5911365,84.1078977 C13.2117145,84.0917127 14.5068975,85.4674352 14.5068975,87.1845836 C14.5068975,88.8994197 13.2117145,90.2828494 11.5911365,90.2828494 L11.5748745,90.2828494 Z M11.5911365,90.8454698 C13.5850478,90.8454698 15.1718686,89.2277434 15.1718686,87.20231 C15.1718686,85.1445065 13.5850478,83.5383409 11.5748745,83.5383409 C9.58242751,83.5383409 7.96331387,85.1445065 7.96331387,87.20231 C7.96331387,89.2277434 9.58242751,90.8454698 11.5748745,90.8454698 L11.5911365,90.8454698 Z" id="path28" fill="#231F20"></path>
                    </g>
                </g>
            </g>
        </g>
    </g>
</svg>