<?xml version="1.0" encoding="UTF-8"?>
<svg width="200px" height="200px" viewBox="0 0 200 200" version="1.1" xmlns="http://www.w3.org/2000/svg" xmlns:xlink="http://www.w3.org/1999/xlink">
    <!-- Generator: Sketch 51.3 (57544) - http://www.bohemiancoding.com/sketch -->
    <title>salem</title>
    <desc>Created with Sketch.</desc>
    <defs></defs>
    <g id="salem" stroke="none" stroke-width="1" fill="none" fill-rule="evenodd">
        <g id="salem_BGL">
            <g id="salem" transform="translate(0.000000, 27.000000)">
                <path d="M199.376694,91.2913235 L191.680217,82.044375 L191.680217,70.9977574 L200,58.8162132 L174.720867,62.2804412 L174.720867,55.3357721 L163.95122,56.8111765 L163.95122,23.3038235 L159.940379,23.8442647 L121.409214,29.1189706 C117.902439,29.6053676 113.99458,30.1458088 110.113821,31.6860662 C108.496597,32.31953 106.956521,33.1335774 105.523035,34.1126471 L105.523035,0 L101.512195,0.540441176 L58.9105691,6.37720588 C55.9031109,6.70720719 52.9407069,7.36321657 50.0758808,8.33360294 C46.4859032,9.60634419 43.2924819,11.7937384 40.8130081,14.6783824 C38.6719708,17.1303684 37.1697129,20.0705282 36.4390244,23.2389706 C35.9102517,25.81919 35.6523121,28.4472893 35.6693767,31.0807721 L35.6693767,54.8601838 C35.642493,57.6174253 35.9463665,60.3679807 36.5745257,63.0532721 C37.3895112,66.2352012 39.1640439,69.0911594 41.6585366,71.2355515 C42.5096876,71.9925479 43.4443136,72.6506998 44.4444444,73.1973529 L25.897019,75.7374265 L25.897019,82.6875 L0.54200542,86.1517279 L9.09485095,95.4311029 L9.09485095,106.191287 L0,118.616029 L36.9268293,113.5575 L36.9268293,126.257868 L84.1734417,119.772574 C87.5772358,119.307794 91.3387534,118.815993 95.1598916,117.037941 L95.1598916,123.220588 C95.1598916,126.701029 95.1598916,131.61364 96.9159892,136.347904 C97.8400905,138.884305 99.3845113,141.150596 101.409214,142.941287 C103.834953,144.971202 106.783141,146.281887 109.918699,146.724375 L109.97832,146.724375 C111.18718,146.888257 112.406047,146.967715 113.626016,146.962169 C116.349631,146.905429 119.06609,146.661654 121.756098,146.232574 L163.945799,140.449853 L163.945799,100.057279 L135.826558,103.910625 L135.826558,114.319522 L127.073171,115.519301 L127.073171,96.7389706 L160.357724,92.1776471 L160.357724,96.6308824 L199.382114,91.2805147 L199.376694,91.2913235 Z M67.6747967,34.7179412 L75.804878,33.6046324 L75.804878,41.7869118 L100.95393,38.3388971 C100.46137,38.9362879 100.000052,39.5586226 99.5718157,40.2034191 C98.2035454,42.2629396 97.1598188,44.5193397 96.4769648,46.8940809 C94.4907998,46.3856141 92.4461031,46.1403044 90.395664,46.1644853 C87.8157416,46.2210265 85.2409143,46.41949 82.6829268,46.7589706 L82.6341463,46.7589706 L67.6856369,48.8072426 L67.6747967,34.7179412 Z M127.078591,57.9569118 L135.826558,56.7463235 L135.826558,60.6591176 L127.073171,61.8588971 L127.078591,57.9569118 Z" id="Shape" fill="#F0CB00" fill-rule="nonzero"></path>
                <path d="M160.433604,62.0804779 L160.433604,27.3301103 L121.907859,32.6048162 C114.932249,33.5613971 107.447154,34.72875 102.498645,42.1544118 C100.603842,45.0530076 99.420995,48.3561607 99.0460705,51.7958824 C98.7804878,51.6391544 98.504065,51.4770221 98.2168022,51.3311029 C93.6693767,48.9315441 87.9837398,49.7097794 83.0406504,50.2502206 L64.1138211,52.8443382 L64.1138211,31.6590441 L79.2899729,29.5783456 L79.2899729,37.7498162 L101.9729,34.636875 L101.9729,4.0425 L59.3766938,9.87926471 C54.3252033,10.5710294 48.1355014,11.5492279 43.4634146,16.9698529 C39.4200542,21.6825 39.295393,26.3573162 39.1653117,31.1618382 L39.1653117,54.7575 C39.295393,59.7836029 39.5447154,64.7826838 43.9674797,68.5873897 C48.5149051,72.6244853 54.0704607,71.8624632 59.2520325,71.2895956 L79.6910569,68.4901103 L79.6910569,94.4312868 L64.5149051,96.5119853 L64.5149051,88.5350735 L40.4390244,91.8371691 L40.4390244,122.220772 L83.6693767,116.275919 C88.0921409,115.670625 92.2601626,115.097757 96.4281843,112.260441 C97.2167979,111.732467 97.9666655,111.149113 98.6720867,110.514816 L98.6720867,123.220588 C98.6720867,130.105809 98.802168,141.330772 110.466125,143.243934 C114.02168,143.74114 117.571816,143.243934 121.252033,142.752132 L160.433604,137.385551 L160.433604,104.099779 L139.360434,107.007353 L139.360434,117.41625 L123.539295,119.578015 L123.539295,54.8872059 L139.360434,52.7254412 L139.360434,64.9772426 L160.433604,62.0804779" id="Shape" fill="#0069AA" fill-rule="nonzero"></path>
                <polyline id="Shape" fill="#FFFFFF" fill-rule="nonzero" points="143.203252 60.9023162 157.230352 58.9783456 157.230352 31.7941544 153.691057 35.8852941 153.696477 55.9464706 146.737127 56.8976471 143.203252 60.9023162"></polyline>
                <path d="M144.081301,45.6402574 L121.089431,48.7964338 C119.945799,48.9801838 118.856369,49.2179779 117.886179,50.3204779 C117.221115,51.0661943 116.846137,52.024901 116.829268,53.0226838 L116.829268,116.254301 C116.861789,117.421654 116.926829,118.524154 117.913279,119.367243 C118.492851,119.863687 119.242529,120.117378 120.00542,120.075221 L120.357724,120.075221 L120.357724,52.4390074 L140.552846,49.6665441 L144.075881,45.661875" id="Shape" fill="#FFFFFF" fill-rule="nonzero"></path>
                <path d="M157.181572,134.656324 L157.181572,109.169118 L153.653117,113.249449 L153.653117,131.624449 L146.802168,132.564816 L121.121951,136.083088 C115.084011,136.909963 108.01626,137.834118 103.100271,133.380882 C103.749102,135.322802 104.978519,137.02016 106.623306,138.244853 C106.785908,138.358346 106.948509,138.466434 107.105691,138.563713 L107.181572,138.606949 C111.382114,141.092978 116.644986,140.190441 121.219512,139.552721 L134.807588,137.682794 L143.203252,136.531654 L157.181572,134.656324" id="Shape" fill="#FFFFFF" fill-rule="nonzero"></path>
                <polyline id="Shape" fill="#FFFFFF" fill-rule="nonzero" points="83.3875339 34.0153676 98.8292683 31.9022426 98.8292683 8.47952206 95.2899729 12.5706618 95.295393 28.8649632 86.9159892 30.0106985 83.3875339 34.0153676"></polyline>
                <path d="M83.9132791,22.2553676 L61.6910569,25.2980515 C60.5528455,25.4872059 59.4634146,25.725 58.4878049,26.8275 C57.8263627,27.5750003 57.4535872,28.5329892 57.4363144,29.5297059 L57.4363144,49.7746324 C57.4363144,50.9419853 57.5338753,52.0444853 58.5203252,52.8875735 C59.0998971,53.3840182 59.8495755,53.6377084 60.6124661,53.5955515 L60.9756098,53.5955515 L60.9756098,28.9190074 L80.4065041,26.2546324 L83.9295393,22.2553676" id="Shape" fill="#FFFFFF" fill-rule="nonzero"></path>
                <path d="M94.8834688,109.736581 C97.2700914,108.179883 99.1010558,105.909607 100.113821,103.251287 C101.300813,100.057279 101.360434,96.5876471 101.420054,93.2206985 L101.420054,66.4742647 C101.420054,64.0638971 101.344173,61.6102941 100.731707,59.5295956 C100.153081,57.2237978 98.5817465,55.2910165 96.4390244,54.2494853 C96.0416159,54.0418437 95.6305575,53.8612833 95.2086721,53.7090441 C97.9186992,56.3355882 97.9186992,60.2970221 97.9186992,63.3883456 L97.9186992,84.0386029 L97.9186992,84.8276471 L97.9186992,93.7179044 C97.8861789,96.2147426 97.8428184,98.7980515 97.203252,101.224632 C96.537519,103.428934 95.1331685,105.338604 93.2249322,106.634449 L92.6070461,107.039779 C89.9783198,108.661103 86.7371274,109.201544 83.7181572,109.601471 L47.696477,114.530294 L44.2710027,118.524154 L83.6639566,113.119743 C87.5772358,112.579301 91.5230352,111.979412 94.8726287,109.731176" id="Shape" fill="#FFFFFF" fill-rule="nonzero"></path>
                <polyline id="Shape" fill="#0069AA" fill-rule="nonzero" points="188.281843 69.9493015 192.883469 63.2154044 171.327913 66.1716176 171.327913 59.2269485 29.2791328 78.6990441 29.2791328 85.6383088 7.44173442 88.6323529 12.4932249 94.1124265 12.4932249 107.299191 7.46341463 114.173603 36.9810298 110.125699 36.9810298 105.672463 163.756098 88.2972794 163.756098 88.2972794 163.642276 88.3134926 163.642276 92.7667279 163.756098 92.6856618 163.756098 92.7505147 192.850949 88.7620588 188.281843 83.2711765 188.281843 69.9493015"></polyline>
                <polyline id="Shape" fill="#FFFFFF" fill-rule="nonzero" points="171.338753 87.2650368 169.149051 88.8269118 186.487805 86.4489706 185.084011 84.7627941 185.084011 69.3223897 186.482385 67.2795221 171.376694 69.3494118 171.376694 62.6317279 29.2574526 82.1038235 29.2574526 88.8269118 14.1680217 90.8968015 15.6856369 92.5397426 15.6856369 107.990956 14.1680217 110.06625 31.4742547 107.693713 29.2791328 106.731728 29.2791328 103.321544 29.2574526 103.326949 171.376694 83.8494485 171.376694 87.2596324 171.338753 87.2650368"></polyline>
                <path d="M103.712737,87.3893382 L101.934959,83.3198162 L103.886179,82.0227574 L103.886179,76.5480882 L101.647696,75.2510294 L93.6476965,76.3319118 L93.3224932,76.6399632 L92.5745257,77.3533456 L94.1192412,78.5693382 L94.1192412,91.2372794 L99.295393,90.5238971 L100.070461,90.4158088 L104.802168,89.761875 L105.127371,89.4538235 L106.03252,88.5891176 L103.707317,87.3623162 L103.712737,87.3893382 Z M98.6883469,79.3259559 L99.3116531,79.2394853 L99.3116531,80.7148897 L98.6883469,81.125625 L98.6883469,79.3259559 Z" id="Shape" fill="#F0CB00" fill-rule="nonzero"></path>
                <path d="M74.796748,85.9679779 L74.796748,80.5635662 L72.5474255,79.2719118 L64.5474255,80.3527941 L64.2222222,80.6716544 L63.495935,81.3850368 L65.0243902,82.5902206 L65.0243902,95.2581618 L70.1626016,94.5501838 L70.4878049,94.2313235 L71.2357724,93.4855147 L69.6097561,92.3019485 L69.6097561,89.4700368 L74.8130081,85.9571691 L74.796748,85.9679779 Z M70.2384824,83.2549632 L70.2384824,84.7303676 L69.6097561,85.1465074 L69.6097561,83.3414338 L70.2384824,83.2549632 Z" id="Shape" fill="#F0CB00" fill-rule="nonzero"></path>
                <path d="M68.6883469,92.7721324 L69.8482385,93.6044118 L69.7344173,93.7179044 L65.9403794,94.2583456 L65.9403794,82.1470588 L64.8563686,81.2985662 L64.9647696,81.1904779 L72.3685637,80.1690441 L73.897019,81.0499632 L73.897019,85.4707721 L68.6937669,88.9836397 L68.6937669,92.7667279 L68.6883469,92.7721324 Z M68.6937669,82.5740074 L68.6937669,86.8380882 L71.1273713,85.2167647 L71.1273713,82.228125 L68.6937669,82.5740074 Z" id="Shape" fill="#0069AA" fill-rule="nonzero"></path>
                <polyline id="Shape" fill="#F0CB00" fill-rule="nonzero" points="86.4769648 89.9942647 86.4769648 77.3425368 81.4417344 78.0343015 81.1111111 78.3531618 80.3685637 79.0611397 81.9132791 80.2771324 81.9132791 92.9450735 87.1056911 92.2316912 87.4146341 91.8371691 87.9891599 91.1129779 86.4769648 89.9942647"></polyline>
                <polyline id="Shape" fill="#0069AA" fill-rule="nonzero" points="85.5772358 90.4428309 86.7100271 91.2859191 86.6233062 91.3886029 82.8130081 91.9128309 82.8130081 79.8447794 81.7344173 78.9962868 81.8536585 78.8881985 85.5772358 78.369375 85.5772358 90.4428309"></polyline>
                <path d="M97.7940379,85.0059926 L97.7940379,88.7890809 L98.9159892,89.6321691 L98.8346883,89.7348529 L95.0406504,90.2752941 L95.0406504,78.1640074 L93.9566396,77.3155147 L94.0704607,77.2074265 L101.463415,76.2022059 L102.98103,77.0669118 L102.98103,81.5417647 L100.813008,82.9901471 L103.01355,88.0378676 L104.514905,88.8323162 L104.401084,88.9404044 L100.607046,89.4808456 L98.4390244,84.5736397 L97.7940379,85.0222059 L97.7940379,85.0059926 Z M97.7940379,78.5855515 L97.7940379,82.8334191 L100.216802,81.2445221 L100.216802,78.2558824 L97.7940379,78.5855515 Z" id="Shape" fill="#0069AA" fill-rule="nonzero"></path>
                <polyline id="Shape" fill="#F0CB00" fill-rule="nonzero" points="116.227642 85.8977206 116.227642 73.2459926 111.181572 73.9431618 110.861789 74.2566176 110.124661 74.97 111.658537 76.1805882 111.658537 88.8485294 116.861789 88.1297426 117.170732 87.7352206 117.728997 87.0110294 116.227642 85.8977206"></polyline>
                <polyline id="Shape" fill="#0069AA" fill-rule="nonzero" points="115.327913 86.3462868 116.460705 87.1839706 116.373984 87.2920588 112.558266 87.8216912 112.558266 75.7482353 111.485095 74.8997426 111.598916 74.7916544 115.327913 74.2782353 115.327913 86.3462868"></polyline>
                <polyline id="Shape" fill="#F0CB00" fill-rule="nonzero" points="131.756098 74.7970588 134.753388 78.8936029 134.753388 70.6897059 123.241192 72.2840074 123.241192 80.6770588 124.905149 77.9694485 126.401084 75.5374632 126.710027 75.4942279 126.710027 86.7732353 132 86.0436397 132.644986 84.8762868 131.279133 83.8332353 131.279133 74.8619118 131.756098 74.7970588"></polyline>
                <polyline id="Shape" fill="#0069AA" fill-rule="nonzero" points="124.140921 77.5046691 124.140921 73.0622426 133.853659 71.7219485 133.853659 76.1427574 132.162602 73.8350735 130.379404 74.0782721 130.379404 84.2763971 131.485095 85.1194853 131.425474 85.2221691 127.615176 85.7463971 127.615176 74.4673897 125.859079 74.7105882 124.140921 77.5046691"></polyline>
                <polyline id="Shape" fill="#F0CB00" fill-rule="nonzero" points="56.0650407 81.4985294 50.6178862 82.2497426 48.5420054 83.9953676 48.5420054 89.8213235 53.7398374 91.5507353 53.7398374 93.1072059 53.1056911 93.1936765 53.1056911 92.7505147 53.1056911 92.0965809 48.5420054 90.6211765 48.5420054 95.9120956 50.7859079 97.2361765 56.2872629 96.4741544 58.303523 94.7285294 58.303523 88.8701471 57.598916 88.6431618 53.1056911 87.2272059 53.1056911 85.6275 53.7398374 85.5410294 53.7398374 86.54625 58.303523 87.9946324 58.303523 82.8496324 56.0650407 81.4985294"></polyline>
                <polyline id="Shape" fill="#0069AA" fill-rule="nonzero" points="57.403794 86.7678309 57.403794 83.3576471 55.8753388 82.4334926 50.99729 83.1036397 49.4417344 84.4169118 49.4417344 89.1781985 54.6395664 90.9076103 54.6395664 93.8908456 52.2059621 94.2259191 52.2059621 92.7505147 49.4417344 91.8587868 49.4417344 95.4040809 50.9756098 96.3066176 55.902439 95.6256618 57.403794 94.3231985 57.403794 89.5240809 57.3170732 89.4970588 52.2059621 87.8865441 52.2059621 84.8492647 54.6395664 84.5087868 54.6395664 85.8923162 57.403794 86.7678309"></polyline>
                <polyline id="Shape" fill="#F0CB00" fill-rule="nonzero" points="149.186992 68.7387132 143.734417 69.4899265 141.658537 71.2355515 141.658537 77.0615074 146.856369 78.7909191 146.856369 80.3473897 146.222222 80.4338603 146.222222 79.9906985 146.222222 79.3367647 141.658537 77.8613603 141.658537 83.1522794 143.902439 84.4763603 149.409214 83.7143382 151.420054 81.9687132 151.420054 76.1103309 150.710027 75.8779412 146.222222 74.4673897 146.222222 72.8676838 146.856369 72.7812132 146.856369 73.7864338 151.420054 75.2348162 151.420054 70.0898162 149.186992 68.7387132"></polyline>
                <polyline id="Shape" fill="#0069AA" fill-rule="nonzero" points="150.520325 74.0080147 150.520325 70.5924265 148.99187 69.6736765 144.119241 70.3438235 142.558266 71.6516912 142.558266 76.4129779 147.761518 78.1423897 147.761518 81.125625 145.322493 81.4661029 145.322493 79.9906985 142.558266 79.0935662 142.558266 82.6388603 144.092141 83.5413971 149.01897 82.8604412 150.520325 81.5579779 150.520325 76.7642647 150.439024 76.7372426 145.322493 75.1267279 145.322493 72.0840441 147.761518 71.7489706 147.761518 73.1270956 150.520325 74.0080147"></polyline>
                <polyline id="Shape" fill="#F0CB00" fill-rule="nonzero" points="98.3306233 79.0233088 99.7289973 78.8233456 99.7777778 80.941875 98.3523035 81.7741544 98.3306233 79.0233088"></polyline>
                <polyline id="Shape" fill="#F0CB00" fill-rule="nonzero" points="69.1761518 83.0766176 70.5745257 82.8766544 70.6178862 84.9951838 69.197832 85.8274632 69.1761518 83.0766176"></polyline>
            </g>
        </g>
    </g>
</svg>