<?xml version="1.0" encoding="UTF-8"?>
<svg width="200px" height="200px" viewBox="0 0 200 200" version="1.1" xmlns="http://www.w3.org/2000/svg" xmlns:xlink="http://www.w3.org/1999/xlink">
    <!-- Generator: Sketch 51.3 (57544) - http://www.bohemiancoding.com/sketch -->
    <title>san-fran-st</title>
    <desc>Created with Sketch.</desc>
    <defs></defs>
    <g id="san-fran-st" stroke="none" stroke-width="1" fill="none" fill-rule="evenodd">
        <g id="san-fran-st_BGL" transform="translate(0.000000, 2.000000)">
            <g id="san-fran-st">
                <g id="g10" transform="translate(99.889987, 97.936194) scale(-1, 1) rotate(-180.000000) translate(-99.889987, -97.936194) translate(0.000000, 0.246427)" fill-rule="nonzero">
                    <g id="g12">
                        <path d="M155.443314,0 L155.045981,2.47043338 L155.443314,0 Z" id="path14" fill="#FCCB06"></path>
                        <polygon id="path16" fill="#FCCB06" points="99.7377313 9.80057181 99.7386114 9.80057181 100.519249 17.174741"></polygon>
                        <path d="M153.421338,101.72321 L146.181735,101.72321 L146.181735,112.983936 L152.246421,112.983936 L153.421338,101.72321 Z M189.599115,111.581075 L162.245981,111.581075 L161.082504,122.786356 L125.158193,122.786356 L136.379315,113.62904 L136.379315,91.9207898 L175.192075,91.9207898 L172.481404,66.2503834 L136.379315,66.2503834 L136.379315,35.3654557 L141.703847,35.3654557 L143.665563,16.8609017 L144.411878,9.80057181 L99.7377313,9.80057181 L100.519249,17.174741 L102.446642,35.3654557 L107.771174,35.3654557 L107.867984,35.3654557 L107.867984,122.786356 L102.444882,122.786356 L99.7377313,148.372274 L189.599115,148.372274 L189.599115,111.581075 Z M45.8285577,93.2391616 L57.1390085,93.2391616 L57.1390085,81.9626822 L47.0403509,81.9626822 L45.8285577,93.2391616 Z M59.264949,138.512648 L48.0266655,138.512648 L48.0266655,149.775134 L58.1026168,149.775134 L59.264949,138.512648 Z M91.8820659,129.439821 L80.4506911,138.512648 L90.9236501,138.512648 L91.8820659,129.439821 Z M95.3619338,148.373154 L68.1016485,148.373154 L66.9420445,159.578434 L27.0039157,159.578434 L38.2253896,150.419358 L38.2253896,128.710228 L77.0320773,128.710228 L95.3619338,114.157093 L95.3619338,61.0533758 L88.051923,55.2227929 L77.1111972,46.5937942 L52.9012088,46.5937942 L28.1346528,46.5937942 L9.80233199,61.0533758 L9.80233199,83.3793599 L37.0352466,83.3793599 L38.2253896,72.157622 L66.9420445,72.157622 L66.9420445,103.042462 L28.1346528,103.042462 L9.80233199,117.593836 L9.80233199,170.696585 L27.9383051,185.165232 L77.0320773,185.165232 L95.3619338,170.696585 L95.3619338,148.373154 Z M105.163474,158.176454 L105.163474,175.44818 L80.4355535,194.965892 L24.5104504,194.965892 L0,175.417377 L0,112.863364 L24.8198894,93.1819559 L0,93.1819559 L0,56.303629 L24.7339048,36.789438 L52.9012088,36.789438 L80.1069287,36.789438 L80.5122092,36.789438 L97.9687544,50.5621109 L97.9687544,45.1670836 L93.6281605,45.1670836 L89.101868,2.44946088 L88.842242,0 L155.308247,0 L155.045981,2.47043338 L153.04202,21.4099005 C153.04114,21.4099005 153.04026,21.4099005 153.03938,21.4099005 L150.522328,45.1670836 L146.181735,45.1670836 L146.181735,56.4469953 L181.301646,56.4469953 L186.097245,101.72321 L199.401535,101.72321 L199.401535,158.176454 L105.163474,158.176454 Z" id="path18" fill="#FCCB06"></path>
                        <polyline id="path20" fill="#4A217B" points="102.444882 122.786356 107.867984 122.786356 107.867984 35.3654557 102.444882 35.3654557 99.7386114 9.80057181 144.412758 9.80057181 141.703847 35.3654557 136.379315 35.3654557 136.379315 66.2503834 172.481404 66.2503834 175.192075 91.9207898 136.379315 91.9207898 136.379315 113.62904 125.158193 122.786356 161.082504 122.786356 162.245981 111.581075 189.599115 111.581075 189.599115 148.372274 99.7386114 148.372274 102.444882 122.786356"></polyline>
                        <polyline id="path22" fill="#4A217B" points="95.3619338 114.157093 77.0320773 128.710228 38.2253896 128.710228 38.2253896 150.419358 27.0039157 159.578434 66.9420445 159.578434 68.1016485 148.373154 95.3619338 148.373154 95.3619338 170.696585 77.0320773 185.165232 27.9383051 185.165232 9.80233199 170.696585 9.80233199 117.593836 28.1346528 103.042462 66.9420445 103.042462 66.9420445 72.157622 38.2253896 72.157622 37.0352466 83.3793599 9.80233199 83.3793599 9.80233199 61.0533758 28.1346528 46.5937942 77.2322093 46.5937942 95.3619338 61.0533758 95.3619338 114.157093"></polyline>
                    </g>
                </g>
            </g>
        </g>
    </g>
</svg>