<?xml version="1.0" encoding="UTF-8"?>
<svg width="200px" height="200px" viewBox="0 0 200 200" version="1.1" xmlns="http://www.w3.org/2000/svg" xmlns:xlink="http://www.w3.org/1999/xlink">
    <!-- Generator: Sketch 51.3 (57544) - http://www.bohemiancoding.com/sketch -->
    <title>sc-aiken</title>
    <desc>Created with Sketch.</desc>
    <defs></defs>
    <g id="sc-aiken" stroke="none" stroke-width="1" fill="none" fill-rule="evenodd">
        <g id="sc-aiken_BGL" transform="translate(0.000000, 32.000000)">
            <g id="sc-aiken">
                <path d="M128.978297,0 L139.880309,0 L140.399452,0.172554947 L140.918595,0.345109894 C144.033456,1.43795789 146.283077,2.64584252 148.417334,5.23416672 C150.724638,3.91124546 153.031942,2.5883242 155.569976,1.78306778 C155.339246,6.03942314 156.608263,9.49052207 155.454611,13.5168042 C157.242772,14.6671705 159.550076,15.6449818 160.472997,17.6581229 C161.85738,20.6490753 162.145793,23.7550643 164.280049,26.5159435 C166.818083,29.8520058 171.894152,30.5997439 174.028409,33.9933245 C175.585839,36.4666121 174.316822,40.2628209 174.316822,43.0237001 C174.143774,44.9793228 174.662917,47.5101287 173.336217,49.1206415 C172.124883,50.673636 170.913548,52.5717405 169.298435,53.7221068 C165.433701,55.9653211 161.222871,55.6777295 156.954359,55.7352478 C158.742519,59.0713101 159.665441,62.6374457 160.992141,66.1460629 C162.145793,66.2610996 163.299445,66.1460629 164.395414,66.0310263 C175.931935,64.708105 187.410772,63.3276655 199.004975,62.5799274 L199.004975,63.4427021 C196.870719,66.5486911 195.370971,69.9422718 193.582811,73.2208158 C189.14125,81.4459349 184.988103,89.7860906 180.431177,97.8961731 C178.758382,98.0112098 176.681808,97.7811365 175.124378,98.5288746 C172.701709,101.922455 171.317326,106.178811 168.836975,109.514873 C166.29894,110.320129 163.587858,110.377648 160.992141,110.780276 C131.458649,114.921595 101.925157,119.350505 72.5070301,124.354598 C55.4906626,127.288032 38.5896604,130.394021 21.7463408,134.132712 C19.1506237,134.650377 16.6125892,135.283078 14.1322374,136.088335 L12.2287115,136.088335 C8.19092941,129.243655 6.97959478,121.133573 8.42165982,113.3686 C9.17153364,109.62991 10.7866465,106.121292 13.2093157,103.245376 C14.5936982,101.634864 16.3241762,100.311942 17.8816065,98.8739845 C15.343572,98.1837647 12.7478549,97.6085816 10.2675031,96.8033251 C12.1133463,95.8255138 14.0745548,95.1928123 16.0357632,94.5601108 C20.8234191,92.8920797 25.6110751,91.3966035 30.4564136,89.9586456 C31.3793352,89.7285723 31.840796,89.2684258 32.417622,88.5206877 C28.7259355,89.0958709 25.2072968,90.5338287 21.6309756,91.5116401 C14.4206504,93.5822995 7.38337299,96.2856603 0.115365203,98.1262464 C2.65339967,96.4006969 5.36448194,95.0202574 8.07556421,93.5822995 C15.920398,89.3834624 24.1113274,85.8173269 32.5329872,82.8838928 C33.2251785,81.0433067 33.9173697,79.2602389 34.5518783,77.3621345 C26.9377749,79.2027206 19.7274497,82.3662279 12.1133463,84.2643323 C13.7284592,82.9414111 15.5166198,81.9060814 17.3047804,80.8707517 C22.9576754,77.6497261 28.8413007,74.8313286 34.8979739,72.530596 C37.1475954,71.7253395 39.4548994,71.0351198 41.5891557,69.9422718 C40.2624558,67.6415391 38.8203908,65.5708798 38.35893,62.8100006 C37.782104,59.41642 38.7627082,55.8502844 41.0700123,53.3769969 C44.877064,48.8905683 52.1450717,48.0277935 57.3365059,50.2134895 C60.3360012,51.4213741 61.7203836,53.8371434 63.0470834,56.6555409 C64.2584181,56.9431324 65.4697527,57.230724 66.6234047,57.6908705 C67.7770567,58.0359804 68.469248,59.41642 69.1614392,60.2791947 C73.7183647,57.3457606 78.3906554,55.045028 83.524407,53.2619602 C86.6392674,52.1115939 89.8694931,51.5364108 93.0420362,50.6161177 C91.3115582,48.3153851 89.6964453,46.0721708 89.2349845,43.1387367 C88.1966977,37.3869051 90.3309539,32.2102567 92.926671,27.2061633 C93.6188622,27.4937549 94.368736,27.7813464 95.0609272,28.1264563 C94.7148316,26.055797 94.7725142,24.1001742 93.3881318,22.3746248 C91.0231451,19.3836724 89.1196193,16.1051284 87.6775543,12.5965111 C90.6770495,13.6318408 93.215084,15.4149086 96.3299445,16.1626467 C94.657149,13.1716943 92.4075276,10.6984067 91.0231451,7.53489934 C94.657149,9.03037555 97.8873747,10.92848 101.809792,11.7337364 C105.270748,12.5389928 109.827673,13.0566576 113.057899,11.3886265 C113.288629,7.59241766 113.634725,4.14131872 114.961425,0.51766484 C116.691903,1.38043957 118.364698,2.47328757 120.152859,3.22102567 C121.767972,3.91124546 123.383085,3.91124546 125.171245,3.91124546 C123.613815,3.04847073 122.114067,2.24321431 120.556637,1.38043957 C123.383085,1.03532968 126.209532,0.632701472 128.978297,0 Z" id="Shape" fill="#99A7A7" fill-rule="nonzero"></path>
                <path d="M133.823635,1.49547621 C137.284592,1.38043957 141.264691,1.61051284 144.264186,3.39358062 C145.994664,4.4289103 146.975269,5.86686819 148.186603,7.41986271 C150.147812,6.15445977 152.10902,4.88905683 154.300959,4.02628209 C154.589372,7.88000924 155.627659,11.1585532 153.724133,14.8397254 C155.627659,15.5874635 157.531185,16.1051284 158.857884,17.7156412 C160.415315,19.5562273 160.819093,22.4321431 161.742015,24.6178391 C162.895667,27.6087915 165.433701,29.8520058 168.202466,31.4050003 C169.759896,32.3252934 171.894152,33.1880681 172.932439,34.7410626 C174.028409,36.2365388 173.62463,38.5372714 173.509265,40.2628209 C173.16317,42.5635535 173.16317,44.8642862 173.047804,47.1650188 C173.047804,48.0853118 172.182565,49.0056049 171.605739,49.753343 C170.336722,51.3063375 169.356118,52.859332 167.39491,53.6070701 C163.530175,55.217583 158.800202,54.5848815 154.704737,54.5848815 C157.185089,58.7837185 158.742519,63.0400739 159.953854,67.7565758 C169.125388,66.7787644 178.354604,65.8584714 187.526137,64.9956966 C190.525633,64.6505867 193.582811,64.3629952 196.639988,64.3629952 C191.852333,73.7384806 186.949311,83.0564477 182.103973,92.4319332 C181.411782,93.8123727 180.777273,95.3078489 179.796669,96.5157336 C178.066191,96.9758801 176.220348,97.0909167 174.432187,97.32099 C172.297931,101.002162 170.567453,105.028444 168.202466,108.537062 C166.29894,109.342318 163.933953,109.2848 161.915062,109.62991 C128.113058,114.173856 94.368736,119.062913 60.8551446,125.044818 C46.607542,127.518106 32.4753046,130.566576 18.4007499,133.902639 C16.9586848,134.247749 15.5166198,134.592858 14.0745548,134.650377 C13.0362679,133.902639 12.4594419,132.579717 11.9402985,131.486869 C10.0367727,127.115477 9.51762925,122.111384 9.92140746,117.337364 C10.3828683,111.98816 12.4017593,106.753994 16.208811,102.842748 C17.9392891,101.059681 19.9004975,99.8517959 21.9770712,98.5288746 C19.6697671,98.0112098 17.362463,97.5510632 15.055159,96.9183618 C17.4201456,95.5954405 19.9581801,95.0202574 22.438532,94.1574826 C26.1302185,92.949598 29.8795876,91.85675 33.5712741,90.763902 C33.5712741,89.5560174 33.5712741,88.4056511 33.6289567,87.1977664 C26.5916793,88.6932426 19.8428149,91.3966035 12.9209027,93.1221529 C14.2476026,92.3168965 15.631985,91.6266767 17.0163674,90.9939753 C22.5538972,88.5206877 28.2644747,86.2774734 33.9750523,84.2643323 C34.9556565,80.9857884 36.1669911,78.1098726 38.1281996,75.2914751 C33.4559089,76.3268048 29.0720311,78.3399458 24.3420578,79.3177572 C29.3027616,76.2692865 35.1287043,74.543737 40.5508688,72.4730776 C41.8198861,71.9554128 42.8581729,71.0351198 43.8964597,70.172345 C42.4543947,68.3892772 41.0700123,66.7787644 40.377821,64.5930684 C39.3972168,61.1419695 39.9163602,57.403279 42.3390295,54.6999181 C45.9153508,50.5585994 52.3181195,49.8108613 57.2211407,51.8240024 C60.0475881,53.0894053 61.2589228,55.5626929 62.2972096,58.323572 C63.9123224,58.7262002 65.8158483,58.8412369 67.2579133,59.7040116 C67.8924219,60.0491215 67.5463263,61.1994878 67.2579133,61.6596343 C66.2196265,63.1551105 64.1430529,63.9028486 62.52794,64.6505867 C62.7009878,65.3983248 62.8740356,66.0885446 63.0470834,66.8362827 C65.5274353,65.2832882 67.7770567,63.3851838 70.199726,61.7746709 C75.4488427,58.3810903 81.1594203,55.7352478 87.1584108,53.95218 C90.2732713,53.031887 93.3881318,52.5142221 96.5029923,51.8240024 C94.0226404,49.5232697 91.9460668,47.1075005 91.3692408,43.6564015 C90.6770495,39.4575645 90.9077799,34.5685077 92.9843536,30.7722988 C93.9072752,33.0155132 94.4841012,35.8914289 96.3876271,37.5019418 C97.2528661,38.3071982 98.3488355,38.3647165 99.444805,38.5947898 C98.4065181,37.3869051 97.3682313,36.4090938 96.4453097,35.0861725 C95.6377533,33.9358062 95.5800707,32.3252934 95.3493403,30.9448538 C96.9067705,31.1749271 98.5218833,31.4050003 100.079314,31.5775553 C98.5795659,29.5068959 96.7914053,27.9539014 96.2722619,25.3655772 C96.9644531,25.3080589 97.6566443,25.1930222 98.3488355,25.0779856 C95.2916577,22.4321431 92.6959406,19.4411907 91.2538755,15.6449818 C95.2916577,17.313013 98.9256615,19.2686357 103.424904,19.4411907 C101.752109,18.2908244 99.9639484,17.2554947 98.5795659,15.8175368 C97.1951835,14.3795789 96.0992141,12.5965111 95.0032446,10.92848 C101.521379,13.4592858 108.21256,15.2998719 115.019107,12.5389928 C115.019107,9.2029305 115.07679,5.98190482 116.230442,2.76087915 C118.422381,3.79620883 120.383589,4.94657514 122.806259,5.29168503 C125.517341,5.69431324 128.516836,5.29168503 131.227918,4.83153851 C129.439758,4.02628209 127.651597,3.22102567 125.921119,2.24321431 C128.343788,1.8405861 131.054871,1.61051284 133.823635,1.49547621 Z" id="Shape" fill="#1C3260" fill-rule="nonzero"></path>
                <path d="M142.764439,4.94657514 C143.802726,5.5217583 144.898695,6.21197808 145.01406,7.53489934 C145.187108,9.14541218 143.918091,10.2957785 143.052852,11.5036631 C141.783834,10.6984067 140.514817,9.72059534 139.01507,9.26044881 C133.362175,7.41986271 127.074771,9.49052207 121.652607,7.76497261 C123.959911,7.64993597 126.267215,7.70745429 128.574519,7.3623444 C131.458649,7.0172345 134.342779,6.55708798 137.284592,6.95971619 C139.303483,7.24730776 141.149326,8.39767408 142.995169,9.2029305 C142.476026,7.99504587 142.245295,6.84467956 141.091643,6.03942314 C138.438244,4.19883704 134.688874,3.79620883 131.574014,3.16350736 C135.381066,2.76087915 139.2458,3.22102567 142.764439,4.94657514 Z" id="Shape" fill="#99A7A7" fill-rule="nonzero"></path>
                <path d="M152.339751,7.0172345 C152.801211,9.54804039 152.512798,12.0788463 150.897685,14.1495056 C150.263177,14.7822071 149.167207,15.0122804 148.359651,15.3573903 C149.974764,15.9900917 151.532194,16.5077566 153.20499,16.9679031 C154.704737,17.4280496 156.262167,17.8881962 157.242772,19.2111174 C157.87728,20.3039654 158.108011,21.6268867 158.454106,22.8347713 C157.87728,22.777253 157.358137,22.7197347 156.781311,22.6622163 C157.992645,24.0426559 159.146297,25.4806138 160.29995,26.9185717 C157.992645,27.3787182 155.743024,28.1839746 153.43572,28.5866029 C149.628668,26.2283519 147.148316,21.684405 143.110534,19.4411907 C145.360156,23.3524361 148.532699,26.1133153 151.474512,29.3918593 C151.243781,30.4271889 149.513303,31.347482 148.763429,32.2102567 C146.052347,34.7985809 145.244791,38.2496799 145.648569,41.9308521 C141.380056,40.090266 137.457639,37.3869051 133.881318,34.453471 C130.708775,31.6925919 127.132454,28.1839746 125.921119,24.0426559 C125.401976,22.7197347 125.28661,21.51185 123.959911,20.8216302 C121.306511,19.1535991 118.999207,17.2554947 117.96092,14.207024 C117.268729,11.7912547 117.845555,9.6055587 118.883842,7.41986271 C121.306511,8.97285723 123.325402,11.0435166 125.748071,12.6540294 C127.536232,12.021328 129.151345,11.3311082 131.112553,11.2735899 C134.746557,11.2160715 138.553609,12.5965111 141.956882,12.8841027 C143.514312,12.941621 145.071743,13.0566576 146.11003,11.6762181 C147.725142,9.37548544 150.090129,8.57022902 152.339751,7.0172345 Z" id="Shape" fill="#74263C" fill-rule="nonzero"></path>
                <path d="M119.460668,10.9859983 C120.672002,12.1938829 121.710289,13.6318408 123.036989,14.7246888 C124.652102,16.0476101 126.555628,16.6803115 128.459154,17.3705313 C127.420867,18.0607511 126.38258,18.8084892 125.401976,19.6712639 C121.767972,17.9457145 119.51835,15.1848353 119.460668,10.9859983 Z" id="Shape" fill="#1C3260" fill-rule="nonzero"></path>
                <path d="M100.944553,15.0697987 C104.924652,15.8175368 108.443291,15.9325734 112.538755,15.7600185 C108.789386,17.3705313 104.405509,17.140458 100.944553,15.0697987 Z" id="Shape" fill="#99A7A7" fill-rule="nonzero"></path>
                <path d="M117.614824,17.8881962 C118.768476,18.9810441 119.979811,20.1889288 120.84505,21.5693683 C121.364194,23.6400277 121.364194,25.883242 121.883337,27.9539014 C122.460163,30.3121523 121.479559,32.2102567 121.191146,34.5685077 C120.61432,38.0196066 121.248828,41.5857422 123.267719,44.461658 C125.401976,47.3950921 128.574519,49.6958247 132.093157,50.673636 C129.901219,48.4304217 127.536232,46.8199089 126.094167,43.8864748 C124.306006,40.7804858 124.190641,37.3293868 124.709784,33.8782879 C127.305501,36.2940571 129.555123,38.9398997 132.554618,40.8955224 C135.438748,43.0812184 138.668974,44.289103 141.841517,45.9571342 C137.9191,47.1650188 133.939001,46.3597624 130.651092,43.9439931 C128.459154,42.4485169 127.478549,40.3203392 126.209532,38.0771249 C126.728675,44.1165481 132.323888,48.1428302 136.823131,51.3638558 C135.784844,51.7089657 134.688874,51.9965573 133.592905,52.1691122 C126.670993,52.9168503 120.037494,52.2841489 113.057899,52.3416672 C109.135482,52.2266306 105.270748,52.5142221 101.348331,52.3991855 C103.021126,49.9834163 104.809287,48.0277935 106.078304,45.381951 C109.077799,39.2274912 110.116086,32.5553666 112.308025,26.2858702 C113.51936,23.0648446 114.84606,20.0738921 117.614824,17.8881962 Z" id="Shape" fill="#74263C" fill-rule="nonzero"></path>
                <path d="M133.650588,17.6006046 C133.535222,18.405861 133.419857,19.2111174 133.304492,19.9588555 C137.861418,21.7419233 141.8992,24.8479123 145.417838,28.1839746 C143.110534,27.7813464 141.033961,26.8035351 138.726657,26.3433885 C136.419353,26.1133153 133.70827,27.4937549 131.804744,25.5956504 C130.420362,24.1001742 131.170236,22.7197347 131.631697,20.9941852 C131.400966,20.5340387 131.170236,20.0163738 130.997188,19.498709 C131.400966,18.405861 132.669983,18.1182694 133.650588,17.6006046 Z" id="Shape" fill="#1C3260" fill-rule="nonzero"></path>
                <path d="M96.3299445,20.1889288 C98.9256615,20.591557 101.175283,21.3968134 103.828683,21.3968134 C105.962939,21.3968134 108.097195,20.9941852 110.231451,20.8216302 C106.135987,24.3302475 100.136996,23.8125827 96.3299445,20.1889288 Z" id="Shape" fill="#99A7A7" fill-rule="nonzero"></path>
                <path d="M117.557142,20.0163738 C117.211046,21.7419233 116.749585,23.3524361 116.288125,25.0204673 C115.07679,29.5644142 114.788377,34.1083611 113.173264,38.6523081 C111.788882,42.5060352 109.423895,46.5323173 106.020622,48.9480866 C107.289639,45.9571342 109.020117,43.196255 109.943038,40.090266 C112.19266,33.8782879 113.057899,25.1930222 117.557142,20.0163738 Z" id="Shape" fill="#99A7A7" fill-rule="nonzero"></path>
                <path d="M135.03497,21.9144782 C134.631192,22.5471797 134.227414,23.1223629 133.765953,23.697546 C134.112048,24.3302475 134.458144,24.9054307 134.80424,25.5381321 C133.881318,25.0779856 132.727666,24.8479123 132.612301,23.5825094 C132.554618,22.0870332 134.054366,22.3171065 135.03497,21.9144782 Z" id="Shape" fill="#FFFFFF" fill-rule="nonzero"></path>
                <path d="M122.806259,22.9498079 C123.902228,24.2727292 124.536737,25.8257237 125.228928,27.3787182 C124.594419,27.4362365 124.017593,27.5512732 123.440767,27.6087915 C123.094672,26.055797 122.806259,24.5603208 122.806259,22.9498079 Z" id="Shape" fill="#FFFFFF" fill-rule="nonzero"></path>
                <path d="M107.405004,27.7813464 C104.86697,29.7369692 102.617348,29.9670424 99.7909006,28.4140479 C102.328935,28.3565296 104.86697,28.068938 107.405004,27.7813464 Z" id="Shape" fill="#99A7A7" fill-rule="nonzero"></path>
                <path d="M126.497945,28.1264563 C126.786358,28.1839746 127.132454,28.241493 127.420867,28.2990113 C126.497945,28.5290845 125.632706,28.7016395 124.767467,28.9892311 C124.190641,29.9670424 124.594419,30.7722988 124.767467,31.8076285 C124.017593,30.8873355 123.152354,30.3121523 123.613815,28.9892311 C124.363689,28.0114197 125.344293,27.8963831 126.497945,28.1264563 Z" id="Shape" fill="#FFFFFF" fill-rule="nonzero"></path>
                <path d="M159.780806,28.3565296 C160.992141,28.068938 161.338236,28.9892311 162.145793,29.6794508 C157.87728,30.4847073 153.954863,31.5775553 151.070733,35.0286542 C149.282573,37.0993136 148.936477,39.4575645 148.417334,42.0458887 C147.609777,38.997418 148.763429,36.5816487 149.974764,33.8782879 C149.167207,34.3959527 148.359651,34.9136176 147.552095,35.3737641 C150.147812,31.347482 155.108515,28.8741944 159.780806,28.3565296 Z" id="Shape" fill="#FFFFFF" fill-rule="nonzero"></path>
                <path d="M159.953854,31.2899637 C162.895667,30.254634 165.779797,32.6704033 168.317831,33.8782879 C167.741005,34.6835443 166.356623,35.6613557 166.645036,36.7542037 C166.875766,38.1346432 168.029418,38.4797531 169.125388,39.1124546 C169.298435,38.3647165 169.529166,37.6744967 169.759896,36.9267586 C170.682818,36.811722 170.971231,37.1568319 171.028913,38.0196066 C170.971231,40.6654491 170.163674,43.196255 168.490879,45.2669144 C169.067705,45.3244327 169.644531,45.381951 170.221357,45.4394693 C170.105992,46.1296891 170.394405,47.3950921 169.529166,47.6251653 C165.779797,49.2356781 161.453602,48.8330499 157.588867,48.0853118 C155.396928,47.6251653 153.320355,47.1075005 151.993655,45.0943594 C150.147812,42.5060352 150.55159,39.2274912 152.224385,36.639167 C153.839498,33.9358062 156.954359,32.3252934 159.953854,31.2899637 Z" id="Shape" fill="#74263C" fill-rule="nonzero"></path>
                <path d="M107.520369,32.3252934 C106.885861,33.6482146 106.4244,34.9136176 105.0977,35.718874 C103.655635,36.6966853 101.925157,36.3515755 100.252361,36.2365388 C100.88687,35.8339106 101.521379,35.4312824 102.155887,35.0286542 C100.252361,34.5685077 98.4642007,34.1083611 96.7914053,32.9579948 C100.483092,33.1305498 103.886365,33.0730315 107.520369,32.3252934 Z" id="Shape" fill="#99A7A7" fill-rule="nonzero"></path>
                <path d="M122.460163,32.3828117 L123.49845,32.3252934 C123.844545,33.7632513 123.49845,35.3737641 123.440767,36.8692403 C123.325402,38.824863 123.613815,40.7229674 123.786863,42.6785902 C121.998702,39.4575645 121.767972,35.8914289 122.460163,32.3828117 Z" id="Shape" fill="#FFFFFF" fill-rule="nonzero"></path>
                <path d="M128.632201,32.0952201 C130.651092,33.9933245 132.439253,36.0064656 134.746557,37.6169784 C137.457639,39.6301194 140.457135,41.010559 143.514312,42.4485169 C142.12993,42.275962 140.80323,41.9883704 139.418848,41.7582971 C139.822626,42.4485169 140.168722,43.0812184 140.5725,43.7714382 C135.496431,40.9530407 130.247314,37.9620883 126.61331,33.3031047 C127.305501,32.9004765 127.997693,32.44033 128.632201,32.0952201 Z" id="Shape" fill="#FFFFFF" fill-rule="nonzero"></path>
                <path d="M161.511284,38.6523081 C162.376523,40.8955224 160.126902,42.2184436 158.165693,41.9883704 C157.069724,41.2406323 156.31985,39.917711 155.281563,39.0549363 C154.474007,38.8823813 153.551085,38.8823813 152.685846,38.824863 C154.127911,35.3737641 160.011537,35.4888007 161.511284,38.6523081 Z" id="Shape" fill="#1C3260" fill-rule="nonzero"></path>
                <path d="M93.3304492,38.1346432 C94.657149,39.0549363 95.9838489,40.4353759 97.5412791,40.8380041 C99.9062658,41.4707055 102.155887,40.8380041 104.463191,40.4353759 C102.617348,43.9439931 98.1181051,46.0146525 94.4264186,44.0015114 C96.3299445,43.8289565 98.1757877,43.6564015 100.021631,43.196255 C98.4065181,42.5635535 96.3876271,42.103407 95.0032446,41.010559 C94.080323,40.2628209 93.7342274,39.2274912 93.3304492,38.1346432 Z" id="Shape" fill="#99A7A7" fill-rule="nonzero"></path>
                <path d="M147.494412,43.2537733 C148.417334,43.6564015 148.590381,44.5766946 149.051842,45.381951 C148.186603,45.1518777 147.379047,44.8642862 146.513808,44.6917312 C145.706251,44.8067678 145.01406,45.4394693 144.379552,45.8996158 C144.437234,45.2669144 144.494917,44.6342129 144.610282,44.0015114 L144.78333,43.5988832 C145.648569,43.2537733 146.456125,42.7936268 147.494412,43.2537733 Z" id="Shape" fill="#FFFFFF" fill-rule="nonzero"></path>
                <path d="M116.63422,47.9127569 C119.056889,47.6251653 121.594924,47.3375737 124.017593,47.6251653 C125.228928,47.7402019 126.094167,48.7180133 126.959406,49.4657514 C124.421371,49.6383064 121.883337,49.5232697 119.402985,49.4657514 C116.230442,49.4082331 113.115582,49.753343 110.000721,49.4657514 C112.134977,48.3729034 114.269234,48.2578668 116.63422,47.9127569 Z" id="Shape" fill="#1C3260" fill-rule="nonzero"></path>
                <path d="M152.801211,49.5232697 C155.166198,49.8683796 157.358137,50.5585994 159.780806,50.7311544 C162.607254,50.9612276 165.202971,50.4435628 168.029418,50.1559712 C164.510779,53.2619602 158.800202,53.1469236 154.589372,51.7089657 C153.378037,51.4213741 153.089624,50.6161177 152.801211,49.5232697 Z" id="Shape" fill="#74263C" fill-rule="nonzero"></path>
                <path d="M142.533708,50.0409346 C143.283582,50.0409346 144.091139,50.1559712 144.841012,50.2710078 C142.937486,52.9168503 139.130435,53.95218 136.073257,54.6999181 C123.094672,57.403279 110.058404,54.5273632 97.4259139,55.8502844 C92.2921624,56.2529127 87.1584108,57.5183156 82.3130723,59.1288284 C79.60199,59.9916032 77.0639556,61.2570061 74.3528733,62.0047442 C77.4677338,59.7615299 81.1594203,58.1510171 84.7934242,56.9431324 C95.0032446,53.4920335 105.847574,53.4920335 116.461172,53.8371434 C122.921624,53.8946617 130.247314,54.4698449 136.534718,52.8018137 C138.784339,52.2841489 140.514817,51.0187459 142.533708,50.0409346 Z" id="Shape" fill="#FFFFFF" fill-rule="nonzero"></path>
                <path d="M56.8173625,53.7796251 C58.4324753,54.7574364 58.8362535,56.2529127 59.4707621,57.9209438 C57.7979667,56.7705775 56.3559017,55.3901379 54.1639628,55.3326196 C52.0297065,55.2751013 49.4339895,55.9653211 47.9342418,57.6333522 C46.7805898,58.8412369 47.2420506,60.5667863 47.2420506,62.0622625 C51.2221501,62.1197808 55.144567,61.5445977 59.0669839,60.681823 C60.9705098,60.2216764 62.7586704,60.2216764 64.7198789,60.509268 C63.9123224,61.1419695 63.2201312,61.7171526 62.2972096,62.1197808 C57.3941885,63.8453303 52.4334848,63.9603669 47.2997332,63.7302937 C47.0690028,65.4558431 46.8382724,66.893801 45.6846204,68.2742406 C45.1077944,67.7565758 44.5886509,67.1813926 44.0118249,66.6062095 C44.3002379,65.8584714 44.5886509,65.1107333 44.877064,64.3629952 C44.0695075,63.8453303 43.2042685,63.3276655 42.3967121,62.7524823 C42.2813469,60.0491215 42.1659817,57.5758339 44.2425553,55.5051745 C47.2997332,52.5717405 53.0103108,51.3063375 56.8173625,53.7796251 Z" id="Shape" fill="#99A7A7" fill-rule="nonzero"></path>
                <path d="M151.186098,55.1025463 C151.820607,55.6777295 152.397433,56.2529127 152.858894,56.9431324 C154.99315,60.681823 156.377533,64.708105 155.800707,69.0219787 C154.704737,69.1945337 153.608768,69.4246069 152.512798,69.5971619 C152.974259,67.8716124 153.43572,66.2035812 153.262672,64.4205135 C153.147307,61.1419695 151.87829,58.323572 151.186098,55.1025463 Z" id="Shape" fill="#74263C" fill-rule="nonzero"></path>
                <path d="M139.47653,56.310431 C139.418848,57.0006508 139.418848,57.6908705 139.361165,58.3810903 C121.018098,60.9118962 102.675031,63.9603669 84.5050112,67.5840208 C82.3130723,68.0441673 80.0634509,68.5043139 77.8138294,68.8494238 C82.1400245,65.2257699 87.1007282,62.2923358 91.9460668,59.5314566 C95.1186098,57.6333522 98.9833441,57.8634255 102.617348,57.6333522 C111.673516,57.230724 120.729685,58.0359804 129.728171,57.4607973 C133.073762,57.3457606 136.188622,56.4254676 139.47653,56.310431 Z" id="Shape" fill="#74263C" fill-rule="nonzero"></path>
                <path d="M107.866465,59.8190482 C106.943543,60.8543779 106.482082,61.8897076 104.982335,61.9472259 C99.2140746,62.5799274 93.503497,63.6727754 87.7352369,64.3054768 C90.2732713,63.3276655 92.7536232,62.8675189 95.4070229,62.2923358 C99.5024876,61.4295611 103.655635,60.3942314 107.866465,59.8190482 Z" id="Shape" fill="#FFFFFF" fill-rule="nonzero"></path>
                <path d="M143.629678,60.3367131 C142.822121,61.602116 142.014565,62.8100006 141.149326,64.0178853 C137.399957,63.9028486 133.535222,64.4780318 130.074266,65.8584714 C127.94001,66.7212461 126.670993,68.6768688 125.28661,70.4024183 C126.151849,70.8625648 127.017088,71.1501564 128.055375,71.0926381 C131.804744,70.8625648 135.496431,69.9997901 139.188117,69.5396436 C138.553609,70.6324916 137.976783,71.9554128 136.996179,72.7606692 C134.285096,73.450889 131.400966,73.623444 128.632201,74.0835905 C125.575023,74.4862187 121.825654,75.4640301 118.883842,74.1986271 C117.499459,73.6809623 117.326411,72.1854861 117.96092,71.0351198 C119.229937,68.7343871 121.075781,66.2610996 123.49845,65.0532149 C126.844041,63.2701472 130.766458,62.2923358 134.458144,61.6596343 C137.515322,61.1419695 140.514817,60.509268 143.629678,60.3367131 Z" id="Shape" fill="#FFFFFF" fill-rule="nonzero"></path>
                <path d="M84.2742808,60.9694145 C80.8133247,63.3851838 77.0639556,65.1107333 73.8337299,67.8140941 C72.2186171,69.252052 70.4304564,68.5618322 68.6422958,69.4821252 C66.0465787,70.6900099 63.7969572,72.4155593 61.2012402,73.623444 C62.1818444,72.6456326 63.2201312,71.7828579 64.3737833,71.0351198 C67.9501045,68.7919055 71.5264258,66.5486911 75.3334775,64.6505867 C78.2176076,63.2126288 80.9863725,61.7171526 84.2742808,60.9694145 Z" id="Shape" fill="#99A7A7" fill-rule="nonzero"></path>
                <path d="M142.591391,60.9694145 C141.8992,61.8897076 141.495421,63.4427021 140.168722,63.3851838 C136.36167,63.7302937 132.843031,64.0754036 129.26671,65.6859164 C127.074771,66.7787644 125.863436,68.7919055 124.594419,70.8050465 C125.632706,71.1501564 126.728675,71.5527846 127.824645,71.5527846 C131.227918,71.437748 134.746557,70.6324916 138.092148,70.2298633 C137.515322,71.0926381 137.226909,72.358041 136.073257,72.4730776 C133.939001,72.9332242 131.689379,73.1057791 129.49744,73.5084073 C126.440262,73.9685539 122.748576,74.716292 119.691398,74.0260722 C118.537746,73.7384806 117.672507,72.7606692 118.307016,71.5527846 C119.633715,69.0219787 121.594924,66.4911728 124.248324,65.2832882 C129.843536,62.4648907 136.477035,61.7171526 142.591391,60.9694145 Z" id="Shape" fill="#74263C" fill-rule="nonzero"></path>
                <path d="M118.19165,65.1107333 C117.614824,65.9159897 117.153364,66.9513194 116.345807,67.5840208 C113.000216,67.986649 109.712308,68.159204 106.4244,69.252052 C105.616843,69.4821252 105.213065,70.0573084 104.751604,70.6900099 C107.289639,71.0926381 110.750595,70.1148267 113.000216,71.437748 C112.481073,73.7959989 110.750595,76.1542498 108.327926,76.901988 C102.501983,78.8576107 96.1568967,79.6053488 89.9848583,79.9504587 C90.5616843,79.0301656 91.1961929,78.0523543 91.9460668,77.2470978 C93.9649578,76.901988 95.9838489,76.8444696 98.0027399,76.4418414 C100.021631,75.9816949 102.040522,75.9241766 103.424904,74.1986271 C101.1176,73.9685539 98.7526137,74.1411088 96.4453097,73.9110355 C95.6377533,73.7959989 95.1762925,73.3933707 95.4070229,72.530596 C95.8108011,70.8050465 97.2528661,69.3670886 98.8679789,68.7343871 C102.501983,67.2389109 106.712813,66.6062095 110.577547,65.973508 C113.115582,65.6283981 115.653616,65.2832882 118.19165,65.1107333 Z" id="Shape" fill="#FFFFFF" fill-rule="nonzero"></path>
                <path d="M49.6647199,65.3983248 C50.8760545,65.5133615 51.9720239,65.8584714 53.1833586,65.973508 C54.4523758,66.0885446 55.721393,65.6283981 56.9327277,65.3983248 C57.1057755,66.0885446 57.2788233,66.7787644 57.3941885,67.4689842 C56.9327277,67.6990575 56.5289495,67.986649 56.0674886,68.2167223 C56.1828538,68.9069421 56.298219,69.5396436 56.4135843,70.2298633 C53.8178672,69.1370153 51.2798327,68.3317589 48.4533852,67.7565758 C48.8571635,66.9513194 49.2609417,66.1460629 49.6647199,65.3983248 Z" id="Shape" fill="#FFFFFF" fill-rule="nonzero"></path>
                <path d="M116.691903,65.9159897 L116.345807,67.066356 C112.942534,67.5840208 108.904752,67.7565758 105.616843,69.1370153 C104.636239,69.4821252 104.693922,70.3449 104.347826,71.2076747 C107.001226,71.3802297 109.712308,71.3802297 112.365708,71.437748 C112.019612,73.0482608 111.269738,74.716292 109.885356,75.6941033 C108.097195,76.7869513 105.847574,77.3046162 103.828683,77.7647627 C99.6178528,78.6850557 95.3493403,79.3177572 91.0231451,79.3752755 C91.5999712,78.6275374 91.8307016,77.822281 92.926671,77.7647627 C96.2722619,77.2470978 99.3871224,77.1320612 102.559665,75.80914 C103.482587,75.4640301 103.597952,74.6587736 104.00173,73.9110355 C101.521379,73.7384806 98.9833441,73.9685539 96.5029923,73.623444 C96.1568967,73.450889 95.9838489,73.1057791 95.8684837,72.6456326 C96.5029923,71.2076747 97.4835965,69.9997901 98.9833441,69.4246069 C102.328935,67.986649 106.135987,67.4114659 109.654625,66.7787644 C111.961929,66.3186179 114.326916,65.800953 116.691903,65.9159897 Z" id="Shape" fill="#74263C" fill-rule="nonzero"></path>
                <path d="M190.064172,68.2167223 C189.025885,70.5749732 187.756868,72.7031509 186.487851,74.8888469 C183.546038,80.1805319 180.546543,85.4146987 177.547047,90.7063837 C177.200952,91.1665302 176.854856,92.0868233 176.220348,92.2018599 C174.259139,92.6044881 172.182565,92.7770431 170.163674,92.7770431 C168.721609,88.9808342 168.779292,84.6094422 167.452592,80.7557151 C164.626145,85.0695888 162.607254,90.0161639 159.665441,94.2150009 C156.608263,94.7326658 153.493403,95.135294 150.378542,95.4804039 C152.974259,89.9011273 156.08912,84.5519239 158.857884,79.0301656 C160.29995,76.4418414 161.453602,73.6809623 163.126397,71.2076747 C165.895162,70.4599366 168.95234,70.5174549 171.778787,70.2298633 C172.644026,73.8535172 173.451583,77.5346894 174.374504,81.1583433 C176.220348,78.1673909 177.950826,75.0614019 179.508256,71.8978945 C178.93143,70.9776014 177.950826,70.3449 177.143269,69.5971619 C181.411782,69.079497 185.737977,68.3317589 190.064172,68.2167223 Z" id="Shape" fill="#FFFFFF" fill-rule="nonzero"></path>
                <path d="M92.6959406,69.079497 C90.7924147,71.8978945 88.8888889,74.716292 87.0430456,77.5922077 C86.3508544,78.6275374 85.7163458,79.6628671 84.5050112,80.2380503 C81.8516115,81.6760081 78.736751,82.3662279 75.852621,83.0564477 C73.1415387,83.6316309 70.199726,84.206814 67.4309611,83.9767408 C66.5657221,83.8617041 65.8735309,83.9767408 65.2967049,83.1714844 C66.2196265,80.0654953 69.1614392,77.822281 70.1420434,74.6587736 C68.180835,74.6587736 66.2773091,74.8313286 64.3161007,74.6012553 C66.1042613,73.9110355 68.1231524,73.6809623 70.0266782,73.3358524 C73.1992213,72.8181875 76.2563992,72.1854861 79.4289422,71.7828579 C77.4100512,74.9463652 74.9873819,77.8797993 73.1415387,81.1583433 C74.9296993,80.9857884 76.9485904,81.1583433 78.2176076,79.7203854 C80.2941813,77.1320612 81.8516115,74.0835905 83.7551374,71.437748 C84.2742808,70.6900099 85.1972024,70.5749732 86.0624414,70.3449 C88.3120629,69.8847534 90.5040017,69.4821252 92.6959406,69.079497 Z" id="Shape" fill="#FFFFFF" fill-rule="nonzero"></path>
                <path d="M54.856154,71.6678212 C51.8566587,71.6103029 48.6841157,71.9554128 45.742303,71.2076747 L45.6846204,70.6900099 C48.7994809,69.8847534 52.0873891,70.172345 54.856154,71.6678212 Z" id="Shape" fill="#99A7A7" fill-rule="nonzero"></path>
                <path d="M91.3115582,69.9997901 C89.8694931,72.7606692 87.9659673,75.2914751 86.2354892,77.9373176 C84.9087894,80.007977 82.6591679,80.6981968 80.4672291,81.4459349 C76.8332252,82.5387829 73.0261735,83.3440393 69.2191218,83.6316309 C68.0077872,83.7466675 66.8541351,83.4590759 65.7004831,83.0564477 C67.2579133,80.4106052 69.1037566,77.8797993 70.8342346,75.2914751 C70.7188694,74.7738103 70.5458216,74.2561454 70.4304564,73.7959989 C73.0261735,73.450889 75.5642079,72.8757059 78.159925,72.530596 C76.6024948,75.80914 73.8914125,78.2249092 72.5070301,81.5609715 C74.5836037,81.6184898 77.0639556,81.7910448 78.5637032,80.1805319 C80.6402769,77.5922077 82.1400245,74.543737 84.1589156,71.8978945 C84.4473286,71.5527846 84.7934242,71.265193 85.1972024,71.1501564 C87.1584108,70.5174549 89.2349845,70.2298633 91.3115582,69.9997901 Z" id="Shape" fill="#74263C" fill-rule="nonzero"></path>
                <path d="M158.627154,71.8403762 C157.992645,73.1057791 157.415819,74.4862187 156.665946,75.6941033 C152.512798,76.7869513 148.071238,77.0170246 143.860408,77.7647627 C142.937486,79.2027206 142.072247,80.6981968 141.322374,82.2511913 C144.898695,82.021118 148.359651,81.3884166 151.935972,81.100825 C151.186098,82.7688561 150.320859,84.379369 149.340255,85.9898818 C146.398443,86.3349917 143.45663,86.7376199 140.514817,87.0827298 C139.591896,87.2552848 138.611291,87.1977664 138.034465,88.0605412 C136.938496,89.4984991 136.073257,91.1665302 135.323383,92.7770431 C139.534213,92.5469698 143.629678,91.7417134 147.782825,91.3390852 C146.975269,92.8345614 146.167712,94.3875559 145.129425,95.7104772 C144.148821,96.228142 142.879804,96.2856603 141.841517,96.4582153 C134.919605,97.32099 127.997693,98.4713563 121.075781,99.4491677 C124.190641,93.4097445 127.766962,87.6003947 131.054871,81.6760081 C132.38157,79.5478305 133.362175,77.1320612 134.919605,75.1764385 C136.015574,74.7738103 137.284592,74.6587736 138.438244,74.4862187 C145.071743,73.5084073 151.820607,72.4730776 158.627154,71.8403762 Z" id="Shape" fill="#FFFFFF" fill-rule="nonzero"></path>
                <path d="M49.6647199,72.9907425 C46.895955,74.543737 44.1848727,75.7516216 42.1082991,78.2249092 C39.6279472,80.8132334 38.5896604,83.8617041 36.9745476,86.9101749 C36.9745476,82.1361547 38.8203908,77.1320612 43.0312207,74.4862187 C45.0501118,73.1632974 47.2997332,72.9332242 49.6647199,72.9907425 Z" id="Shape" fill="#99A7A7" fill-rule="nonzero"></path>
                <path d="M131.400966,75.5215484 C125.344293,80.2380503 119.114572,84.7819972 113.173264,89.671054 C114.269234,93.1221529 115.595933,96.5157336 116.63422,100.024351 C112.769486,100.657052 108.904752,101.289754 105.040017,101.864937 C103.828683,98.9890211 102.963444,95.9980687 101.752109,93.1221529 C99.6755354,95.9980687 97.7720095,98.9315028 95.8108011,101.864937 C95.1762925,102.727712 94.7148316,103.590486 93.5611796,103.705523 C90.0425409,104.338224 86.5239022,104.970926 82.9475809,105.373554 C84.389646,102.44012 86.408537,99.7942776 88.0813325,96.9758801 C90.9077799,92.4894515 93.9072752,88.1180595 96.6183575,83.5165942 C95.5800707,82.9414111 94.4841012,82.4237462 93.4458144,81.8485631 C99.0410268,80.92827 104.636239,79.835422 110.231451,78.8576107 C108.443291,82.3662279 106.078304,85.5872536 104.405509,89.1533892 C107.866465,86.7376199 110.923643,83.7466675 114.211551,81.0433067 C115.884346,79.7203854 117.614824,77.5346894 119.806763,77.3046162 C123.671498,76.729433 127.536232,76.0392132 131.400966,75.5215484 Z" id="Shape" fill="#FFFFFF" fill-rule="nonzero"></path>
                <path d="M64.7198789,79.4327938 C63.7392746,80.7557151 63.1624486,82.193673 61.3166054,82.4237462 C55.4906626,83.6316309 49.7224025,85.0120704 43.8964597,86.2199551 C47.0113202,84.8970338 50.4145937,83.9767408 53.6448194,82.8838928 C57.3365059,81.7335265 60.9705098,80.4681235 64.7198789,79.4327938 Z" id="Shape" fill="#FFFFFF" fill-rule="nonzero"></path>
                <path d="M89.5810801,82.8838928 C87.9082847,85.9323635 85.8893936,88.8082793 84.0435504,91.7992317 C80.6979595,96.9183618 77.583099,102.267565 74.1221429,107.21414 C69.911313,108.364507 65.4697527,108.882171 61.1435576,109.802464 C65.7581657,102.44012 70.776552,95.3653673 75.4488427,88.0605412 C74.1221429,87.485358 72.8531257,86.9676932 71.5841084,86.3349917 C77.4677338,85.1271071 83.5820896,83.9192225 89.5810801,82.8838928 Z" id="Shape" fill="#FFFFFF" fill-rule="nonzero"></path>
                <path d="M66.6810873,88.3481328 C67.4309611,88.578206 67.8347393,88.9233159 67.9501045,89.7285723 C67.3732785,91.2815668 66.3349917,92.6620064 65.4697527,94.042446 C62.3548922,98.9890211 59.1823491,103.935596 56.1251712,108.882171 C55.5483452,109.687428 55.2022496,110.665239 54.1062802,110.837794 C50.8760545,111.585532 47.5881462,112.448307 44.3002379,112.965972 C45.5692552,110.205093 47.5304636,107.961878 48.7994809,105.200999 C46.1460812,105.546109 43.5503641,106.236329 40.9546471,106.926549 C39.5702646,107.156622 38.8780734,108.824653 38.070517,109.802464 C36.8014997,111.528014 35.8208955,113.771228 34.1481001,115.151668 C30.9178744,116.244516 27.4569183,116.877217 24.1113274,117.509919 C27.9183791,110.780276 32.4753046,104.510779 36.3400389,97.7811365 C33.9750523,97.32099 31.6100656,96.9183618 29.3027616,96.2856603 C31.9561612,95.2503306 34.5518783,94.7326658 37.3206432,93.9849277 C45.3962074,91.85675 53.5871368,90.1312005 61.7780662,88.4631694 C63.3354964,88.2906144 65.0659745,88.0030229 66.6810873,88.3481328 Z" id="Shape" fill="#FFFFFF" fill-rule="nonzero"></path>
                <path d="M56.009806,93.7548544 C55.0868844,95.7679955 54.1062802,97.9536915 52.6065326,99.5642043 C49.7224025,100.484497 46.7229072,101.002162 43.7810945,101.692382 C44.7616988,99.7942776 45.742303,97.4935449 47.3574158,96.055587 C49.9531329,94.7326658 53.0679934,94.1574826 56.009806,93.7548544 Z" id="Shape" fill="#1C3260" fill-rule="nonzero"></path>
                <path d="M171.375009,95.2503306 C170.971231,96.055587 170.567453,96.8608435 170.105992,97.6085816 C166.818083,97.6660999 163.472493,97.9536915 160.242267,98.7589479 C159.434711,98.9315028 158.97325,99.506686 158.396424,100.024351 C161.049823,100.484497 164.107001,99.8517959 166.587353,100.714571 C166.645036,103.13034 164.049319,105.488591 161.742015,106.006256 C156.031437,107.674287 149.974764,108.191952 144.091139,108.422025 C144.667965,107.616768 145.129425,106.351366 145.994664,105.891219 C149.109525,105.603627 152.10902,105.603627 155.166198,104.740853 C155.858389,104.453261 157.242772,104.280706 156.954359,103.245376 C154.358642,102.555157 151.359146,103.47545 148.821112,102.670193 C148.763429,101.864937 148.705747,101.174717 149.340255,100.542016 C151.186098,97.9536915 154.185594,97.5510632 157.069724,96.8608435 C161.799697,96.1706237 166.645036,95.5379222 171.375009,95.2503306 Z" id="Shape" fill="#FFFFFF" fill-rule="nonzero"></path>
                <path d="M170.452087,95.9980687 L169.817579,96.9758801 C166.52967,97.6085816 162.376523,97.4935449 158.97325,98.8164662 C158.396424,98.9890211 158.223376,100.081869 157.992645,100.599534 C160.76141,101.002162 163.587858,100.714571 166.414305,101.117199 C165.491384,102.900267 164.74151,104.568298 162.722619,105.316036 C157.300454,107.271659 151.070733,107.616768 145.360156,108.134433 C145.590886,107.616768 145.821617,107.099104 146.052347,106.581439 C149.397938,106.293847 153.031942,106.121292 156.262167,105.085963 C157.300454,104.798371 157.64655,103.993115 158.223376,103.13034 C155.166198,102.325083 152.339751,102.78523 149.282573,102.44012 C149.917081,101.059681 150.609272,99.7942776 152.051338,99.1040578 C154.300959,98.0112098 156.954359,97.5510632 159.377028,97.148435 C162.953349,96.5732519 166.702718,95.9405504 170.452087,95.9980687 Z" id="Shape" fill="#74263C" fill-rule="nonzero"></path>
                <path d="M143.68736,98.6439112 C144.956378,98.5288746 147.66746,98.0112098 148.301968,99.5642043 C147.494412,101.807419 145.763934,103.13034 143.802726,104.338224 C143.571995,106.351366 143.110534,108.076915 141.437739,109.342318 C138.784339,110.090056 136.015574,110.262611 133.304492,110.780276 C134.112048,109.399836 134.919605,108.076915 135.669479,106.696475 C134.285096,106.811512 132.727666,106.86903 131.400966,107.329177 C129.901219,108.422025 128.978297,110.320129 127.593914,111.528014 C124.767467,112.390789 121.767972,112.620862 118.883842,113.081008 C120.902733,110.032538 123.267719,107.271659 125.517341,104.338224 C126.209532,103.47545 126.555628,102.497638 126.786358,101.40479 C132.38157,100.484497 138.034465,99.6792409 143.68736,98.6439112 Z" id="Shape" fill="#FFFFFF" fill-rule="nonzero"></path>
                <path d="M26.1879011,99.2766127 C27.6299661,99.1040578 29.1297138,99.506686 30.5717788,99.7367592 C26.9954575,100.542016 23.592184,101.807419 20.1312279,103.015303 C21.573293,101.059681 23.880597,99.8517959 26.1879011,99.2766127 Z" id="Shape" fill="#99A7A7" fill-rule="nonzero"></path>
                <path d="M147.89819,99.4491677 C146.456125,102.152528 145.071743,103.302895 142.187613,104.338224 C142.591391,104.798371 142.995169,105.316036 143.341265,105.833701 C142.706756,106.86903 142.072247,108.24947 141.033961,108.997208 C138.957387,109.514873 136.823131,109.744946 134.688874,109.917501 C135.208018,108.824653 135.842526,107.846842 136.073257,106.581439 C135.03497,105.891219 133.304492,106.52392 132.208523,106.638957 C129.785853,106.926549 128.920614,110.032538 127.017088,111.240422 C124.82515,111.873124 122.517846,112.103197 120.268224,112.275752 C122.287115,108.537062 125.575023,105.718664 127.593914,101.922455 C133.016079,100.944644 138.495926,100.139387 143.918091,99.1615761 C145.360156,98.8164662 146.513808,98.9890211 147.89819,99.4491677 Z" id="Shape" fill="#74263C" fill-rule="nonzero"></path>
                <path d="M140.284087,101.7499 C139.649578,102.612675 139.072752,103.82056 137.9191,104.108151 C136.073257,104.683334 134.112048,104.855889 132.208523,105.143481 C132.958396,104.16567 133.650588,102.842748 134.688874,102.152528 C136.477035,101.462309 138.380561,101.289754 140.284087,101.7499 Z" id="Shape" fill="#FFFFFF" fill-rule="nonzero"></path>
                <path d="M124.075276,101.7499 C123.440767,102.670193 122.806259,103.648005 122.17175,104.568298 C118.364698,104.798371 114.153868,105.085963 110.462182,106.121292 C110.000721,106.638957 109.654625,107.21414 109.30853,107.789323 C111.327421,107.674287 113.288629,107.386695 115.30752,107.156622 C114.615329,107.961878 113.980821,108.767135 113.173264,109.399836 C111.269738,110.147574 109.020117,110.032538 107.058908,110.722758 C106.65513,111.240422 106.251352,111.815606 105.962939,112.390789 C110.173769,112.103197 114.269234,111.125386 118.364698,110.147574 C117.672507,111.182904 116.864951,112.448307 115.768981,113.081008 C113.634725,113.828747 111.269738,114.001302 109.077799,114.40393 C104.578556,115.09415 100.136996,115.956924 95.6377533,116.532107 C97.3105487,113.253563 99.6755354,110.665239 101.636744,107.616768 C102.155887,106.86903 102.040522,106.121292 102.098205,105.258518 C109.30853,103.993115 116.691903,102.670193 124.075276,101.7499 Z" id="Shape" fill="#FFFFFF" fill-rule="nonzero"></path>
                <path d="M139.361165,101.864937 C138.207513,104.395743 135.842526,103.935596 133.535222,104.223188 C133.881318,103.648005 134.227414,103.13034 134.688874,102.612675 C136.188622,102.09501 137.803735,101.979974 139.361165,101.864937 Z" id="Shape" fill="#1C3260" fill-rule="nonzero"></path>
                <path d="M29.4758094,102.44012 C27.1108227,106.811512 24.0536448,110.837794 21.4002452,115.09415 C19.6120845,118.027584 17.4201456,120.673426 15.9780806,123.779415 C18.9775759,123.491824 21.7463408,122.686567 24.6881534,122.053866 C23.015358,124.699708 21.4002452,127.460587 19.5544019,129.991393 C18.9198933,130.911686 17.9969717,131.199278 16.9010022,131.026723 C15.5166198,129.301173 14.766746,127.000441 14.2476026,124.929781 C13.0939505,119.638096 13.8438244,113.71371 17.3047804,109.399836 C20.3619583,105.488591 24.8035186,103.47545 29.4758094,102.44012 Z" id="Shape" fill="#99A7A7" fill-rule="nonzero"></path>
                <path d="M122.517846,102.670193 C122.40248,103.648005 121.883337,104.108151 121.075781,104.050633 C117.557142,104.280706 113.807773,104.568298 110.404499,105.488591 C109.30853,106.121292 108.616339,107.55925 107.866465,108.537062 C109.712308,108.306988 111.558151,107.961878 113.461677,107.90436 C113.057899,108.709616 112.538755,109.112245 111.788882,109.169763 C110.173769,109.514873 108.500973,109.572391 106.943543,110.032538 C105.905256,110.837794 105.213065,112.103197 104.463191,113.138527 C108.385608,112.67838 112.250342,111.700569 116.115077,111.240422 C116.40349,112.505825 114.326916,112.850935 113.403995,113.02349 C107.808782,113.828747 102.21357,114.979113 96.6183575,115.611814 C98.5218833,111.930642 101.406013,108.997208 103.251857,105.316036 C107.924147,104.568298 112.654121,103.935596 117.326411,103.072822 C119.056889,102.900267 120.84505,102.44012 122.517846,102.670193 Z" id="Shape" fill="#74263C" fill-rule="nonzero"></path>
                <path d="M173.739996,103.245376 C175.355109,103.245376 176.970221,103.302895 178.527652,103.302895 C179.046795,104.16567 179.277525,105.085963 179.738986,105.948737 C180.200447,104.970926 180.71959,103.993115 181.238734,103.015303 C182.219338,104.568298 181.873242,106.063774 181.700195,107.789323 C181.411782,107.099104 181.123369,106.466402 180.892638,105.776182 C180.661908,106.466402 180.200447,106.926549 179.854351,107.55925 C179.104478,107.329177 178.816065,106.063774 178.469969,105.373554 C178.296921,106.178811 178.239239,107.099104 177.777778,107.789323 C177.662413,106.52392 177.60473,105.200999 177.547047,103.878078 C176.970221,103.935596 176.451078,103.993115 175.931935,103.993115 C175.931935,105.258518 175.816569,106.52392 175.758887,107.731805 C174.95133,106.811512 175.124378,105.776182 174.893648,104.625816 C174.547552,104.223188 174.143774,103.763041 173.739996,103.245376 Z" id="Shape" fill="#1C3260" fill-rule="nonzero"></path>
                <path d="M98.6949311,105.718664 C97.8873747,106.811512 97.0221357,107.90436 96.1568967,108.997208 C92.5228928,109.227281 88.7735237,109.62991 85.4279328,111.010349 C83.4090417,111.873124 82.0246593,113.541155 81.2171029,115.554296 C85.543298,115.726851 89.4080323,114.518966 93.6188622,113.828747 C92.9843536,114.806558 92.349845,116.129479 91.3115582,116.819699 C88.6581585,117.624955 85.831711,117.79751 83.1206287,118.372693 C80.5825943,118.775322 77.4100512,119.580578 74.9296993,118.545248 C73.7183647,118.200139 73.6029995,116.819699 74.1798255,115.899406 C75.7372558,113.253563 77.7561468,110.952831 80.6402769,109.687428 C86.1778066,107.156622 92.6959406,106.466402 98.6949311,105.718664 Z" id="Shape" fill="#FFFFFF" fill-rule="nonzero"></path>
                <path d="M97.3105487,106.408884 C96.7914053,107.21414 96.2722619,108.537062 95.1186098,108.59458 C91.6576538,108.882171 87.7352369,109.2848 84.5626938,110.837794 C82.7168505,111.98816 80.9286899,113.656192 80.6979595,115.956924 C84.6203764,116.302034 88.1966977,115.09415 92.061432,114.806558 C91.5422886,115.554296 91.3692408,116.417071 90.3886365,116.589626 C88.1390151,117.107291 85.7740284,117.394882 83.524407,117.79751 C80.9286899,118.257657 77.8138294,118.890358 75.2757949,118.200139 C74.3528733,117.79751 74.1221429,117.279845 74.5259211,116.302034 C75.852621,113.771228 77.9868772,111.412977 80.6402769,110.205093 C85.7163458,107.789323 91.773019,107.099104 97.3105487,106.408884 Z" id="Shape" fill="#74263C" fill-rule="nonzero"></path>
                <path d="M73.1415387,110.090056 C74.0644603,110.147574 74.7566515,111.067867 74.1221429,111.873124 C72.3916649,115.036631 70.1420434,117.912547 68.3538828,121.076054 C65.8158483,121.708756 63.2778138,122.168902 60.7397794,122.629049 C61.5473358,121.306128 62.4125748,119.983206 63.104766,118.602767 C61.7780662,118.83284 60.4513664,119.005395 59.1823491,119.408023 C57.7979667,120.443353 57.2211407,122.571531 55.8367582,123.491824 C53.3564064,124.239562 50.5299589,124.814745 47.9342418,124.9873 C49.5493547,122.226421 51.4528805,119.580578 53.2987238,116.877217 C53.990915,115.899406 54.4523758,114.806558 54.856154,113.656192 C58.6632057,112.563344 62.5856226,111.930642 66.4503569,111.067867 C68.5269306,110.665239 70.8919172,109.975019 73.1415387,110.090056 Z" id="Shape" fill="#FFFFFF" fill-rule="nonzero"></path>
                <path d="M71.641791,110.550203 C72.2762997,110.492684 74.3528733,110.262611 73.6606821,111.470496 C71.9878867,114.634003 69.7382652,117.567437 67.8924219,120.615908 C65.9312135,121.076054 63.9123224,121.478683 61.951114,121.823792 C62.6433052,120.500871 63.393179,119.17795 64.1430529,117.855029 C62.3548922,118.14262 60.4513664,118.372693 58.7785709,119.005395 C57.5672363,120.098243 56.8750451,121.708756 55.7790756,122.859122 C53.702502,123.721897 51.2798327,123.95197 49.0302113,124.29708 C50.7606893,121.076054 53.125676,118.315175 54.9138366,115.09415 C55.43298,114.173856 55.7790756,113.656192 56.8750451,113.483637 C61.7780662,112.563344 66.6810873,111.470496 71.641791,110.550203 Z" id="Shape" fill="#74263C" fill-rule="nonzero"></path>
                <path d="M67.4309611,113.138527 C66.8541351,114.05882 66.2196265,115.09415 65.4120701,115.899406 C63.393179,116.704662 61.085875,116.934736 59.0093013,117.337364 C59.7014925,116.302034 60.3360012,114.921595 61.374288,114.173856 C63.3354964,113.3686 65.3543875,113.02349 67.4309611,113.138527 Z" id="Shape" fill="#FFFFFF" fill-rule="nonzero"></path>
                <path d="M66.1619439,113.656192 C65.9888961,114.231375 65.7581657,114.806558 65.4120701,115.324223 C63.9123224,116.129479 62.0087966,116.244516 60.3360012,116.417071 C60.6820968,115.784369 61.0281924,115.209186 61.4319706,114.634003 C62.8740356,113.943783 64.6045137,113.828747 66.1619439,113.656192 Z" id="Shape" fill="#1C3260" fill-rule="nonzero"></path>
                <path d="M51.1067849,115.266704 C50.5299589,117.509919 48.6264331,119.580578 46.6652246,120.673426 C43.2042685,122.514012 38.7050256,122.859122 35.0133391,124.067007 C33.6289567,125.274891 32.7637176,127.230514 31.3216526,128.38088 C28.9566659,129.243655 26.3032663,129.588765 23.8229144,130.048912 C25.6687577,126.827886 27.9183791,123.95197 29.5911746,120.673426 C27.9183791,120.443353 26.2455837,120.328316 24.5727882,120.040725 C31.6677482,118.085102 38.935756,116.762181 46.030716,115.036631 C47.5881462,114.691521 49.8954503,113.886265 51.1067849,115.266704 Z" id="Shape" fill="#FFFFFF" fill-rule="nonzero"></path>
                <path d="M50.5299589,115.036631 C49.9531329,117.337364 48.2803374,119.17795 46.2614464,120.328316 C43.0889033,121.938829 39.224169,122.341457 35.8208955,123.26175 C33.5135915,123.549342 32.706035,126.827886 30.8601918,127.978252 C29.0720311,128.72599 27.0531401,128.898545 25.1496142,129.128619 C26.5916793,126.080148 28.7259355,123.376787 30.398731,120.500871 C29.7642224,120.21328 29.1297138,119.925688 28.4952051,119.638096 C32.5329872,118.315175 36.8014997,117.682474 40.8969645,116.704662 C44.1848727,115.956924 47.1266854,114.921595 50.5299589,115.036631 Z" id="Shape" fill="#74263C" fill-rule="nonzero"></path>
                <path d="M43.4349989,117.970065 C42.8004903,118.947877 42.3967121,119.925688 41.1853775,120.385835 C39.512582,121.076054 37.6090562,121.363646 35.7632129,121.708756 C36.3977215,120.730944 36.916865,119.580578 37.782104,118.775322 C39.3972168,117.970065 41.7045209,118.027584 43.4349989,117.970065 Z" id="Shape" fill="#FFFFFF" fill-rule="nonzero"></path>
                <path d="M42.4543947,118.430212 C41.4161079,120.615908 39.224169,120.443353 37.205278,120.845981 C38.070517,118.315175 40.2047732,118.717803 42.4543947,118.430212 Z" id="Shape" fill="#1C3260" fill-rule="nonzero"></path>
            </g>
        </g>
    </g>
</svg>