<?xml version="1.0" encoding="UTF-8"?>
<svg width="200px" height="200px" viewBox="0 0 200 200" version="1.1" xmlns="http://www.w3.org/2000/svg" xmlns:xlink="http://www.w3.org/1999/xlink">
    <!-- Generator: Sketch 51.3 (57544) - http://www.bohemiancoding.com/sketch -->
    <title>shepherd</title>
    <desc>Created with Sketch.</desc>
    <defs></defs>
    <g id="shepherd" stroke="none" stroke-width="1" fill="none" fill-rule="evenodd">
        <g id="shepherd_BGL" transform="translate(19.000000, 0.000000)">
            <g id="shepherd" transform="translate(0.268403, 0.000000)">
                <g id="g10" transform="translate(80.060122, 100.129128) scale(-1, 1) rotate(-180.000000) translate(-80.060122, -100.129128) translate(0.000000, 0.278864)" fill-rule="nonzero">
                    <g id="g12" transform="translate(0.359821, 0.000000)">
                        <path d="M58.3868573,0.0196776985 C56.4335703,0.9975851 55.5740484,2.90632635 54.5075396,4.62566694 C52.6252272,7.65883911 51.0291522,10.8557927 49.4746365,14.0590072 C45.5300114,22.1866388 41.6787597,30.3616768 38.64664,38.8884395 C38.3553651,39.7082012 38.1104171,40.5483827 37.9069384,41.3948611 C37.6504762,42.4606502 38.6202831,43.5930961 39.9502706,43.8324669 C45.7759489,44.8841331 51.477219,46.414091 56.9595383,48.6421912 C60.3754068,50.0305596 63.5800606,51.8131117 66.4055532,54.2752753 C68.4390803,56.0473926 69.9250501,58.1757325 71.2933586,60.4347772 C71.1527586,60.8592758 71.3998655,61.1993964 71.5396559,61.5599368 C72.6570793,64.4564041 73.4213386,67.4421069 73.6202295,70.5438519 C73.8560021,74.2228394 72.7428066,77.628543 71.3379763,80.9596737 C71.1864918,81.3194945 70.9268811,81.639645 70.9261615,82.0563175 C70.1411225,84.2458269 68.8909252,86.1897586 67.6677145,88.1398972 C65.2702287,91.9629929 62.5174199,95.5216204 59.5710275,98.9390182 C57.178849,101.712337 54.7683197,104.469463 52.7668167,107.562123 C49.1000631,113.228401 46.542637,119.348952 45.0133987,125.910284 C44.4069208,128.513587 44.0155257,131.148375 43.6820618,133.804751 C43.2428106,137.30131 43.1303666,140.806864 43.3309667,144.294426 C43.6483286,149.815876 44.8254823,155.176306 46.9098341,160.340634 C48.5589826,164.426399 50.716468,168.209914 53.2875673,171.749651 C54.4885591,173.402128 55.8575872,174.947558 57.2420875,176.474098 C61.1934593,180.831527 65.7769463,184.387456 70.7139572,187.525093 C74.8862589,190.176972 79.3292359,192.295417 83.9261261,194.089124 C89.0757011,196.098723 94.4007787,197.530809 99.81878,198.582385 C101.262561,198.862146 102.736027,199.126614 104.247274,199.092431 C105.401399,199.066344 106.003199,198.57249 106.313545,197.546102 C107.38761,194.009063 108.513849,190.490016 109.73724,187.000654 C111.434694,182.163764 113.124952,177.33317 115.345946,172.692381 C117.229608,168.755942 119.128562,164.820402 120.788235,160.778716 C121.047306,160.149029 121.314473,159.532836 121.164248,158.848277 C120.872793,157.525036 119.750152,156.838678 118.211019,157.240778 C115.797521,157.872263 113.348941,157.968515 110.902159,157.824587 C105.664968,157.518739 100.890146,155.949021 96.7648011,152.543318 C93.4949299,149.845561 91.6166655,146.37599 90.8007719,142.322609 C90.2862281,139.767881 90.6118659,137.20146 91.322512,134.680915 C92.7465027,129.627232 95.4703459,125.23562 98.2535596,120.870994 C102.875457,113.627802 108.361825,106.983711 112.92795,99.7045369 C114.578628,97.0724479 116.271585,94.4565509 117.438304,91.5536968 C117.823312,91.4160654 117.936655,91.0571442 118.085081,90.7369037 C120.540858,85.4458292 121.994534,79.9016208 122.415524,74.0727941 C122.554955,72.1370483 122.601732,70.2089487 122.597234,68.2732029 C122.596334,67.8164104 122.671897,67.3325414 122.342661,66.9329605 C122.348058,64.6166143 122.151056,62.3094435 121.82272,60.0244017 C121.358551,56.801397 120.723467,53.5989022 119.858098,50.4602756 C118.634708,46.016669 117.149547,41.6566307 114.933051,37.5914656 C113.267981,34.5364973 111.276373,31.6965219 109.063475,29.0098301 C107.2068,26.7553731 105.317741,24.5282624 103.195698,22.519383 C98.3974879,17.9738572 93.1980777,13.9592469 87.4944687,10.5869166 C82.0584764,7.37280858 76.3839229,4.71913039 70.365021,2.80653006 C66.7931701,1.67224905 63.1903747,0.662014449 59.4533661,0.218563233 C59.3785234,0.209778209 59.3173538,0.0889010081 59.2502473,0.0196776985 C58.9624806,0.0196776985 58.6743541,0.0196776985 58.3868573,0.0196776985" id="path14" fill="#283477"></path>
                        <path d="M70.9261615,82.0563175 C72.0122805,80.8472297 72.3289227,79.2783212 72.8338412,77.8175388 C74.9098272,71.8056534 73.8434084,66.0496005 71.2933586,60.4347772 C68.0342819,60.3978956 64.7891483,60.7440432 61.5792772,61.1667427 C56.4037051,61.8487829 51.2491826,62.7085747 46.163206,63.9563431 C39.9056529,65.4919682 33.7651315,67.3486434 27.8590333,69.9464594 C23.557376,71.8373176 19.3389272,73.8992705 15.5056666,76.6355276 C10.4639479,80.2337353 5.96902181,84.3733834 3.2390886,90.0865276 C1.78821029,93.1225154 0.978964375,96.3519068 0.531649584,99.6793494 C0.0969833923,102.919535 0.0804676188,106.174114 0.0818736185,109.43499 C0.092414568,134.83204 0.0874958181,160.229989 0.0874958181,185.627039 C0.0874958181,185.699902 0.0867923684,185.771866 0.0871440933,185.843831 C0.0959291174,187.619546 0.0959291174,187.633039 1.85427338,187.633939 C10.5957322,187.639336 19.3375779,187.625843 28.0790637,187.653729 C28.9599949,187.656428 29.2698906,187.417147 29.2491109,186.5068 C29.1925291,184.025836 29.3134289,181.539475 29.2101603,179.061209 C28.7941176,169.071685 29.3239536,159.074065 28.9904897,149.090837 C28.6149268,137.84284 28.8183155,126.597541 28.8520487,115.353142 C28.8650922,111.028996 29.4831743,106.677863 31.6041379,102.758516 C32.9031808,100.359411 34.6987764,98.3615058 36.7684655,96.5498082 C39.0313783,94.5689949 41.3867651,92.7321098 43.948779,91.1821819 C48.3787124,88.5032263 53.0781516,86.4019629 58.0277562,84.8537441 C60.9864724,83.9292746 63.9957435,83.2472343 67.0436953,82.7148795 C68.3368012,82.488912 69.6316163,82.2756283 70.9261615,82.0563175" id="path16" fill="#D9AE13"></path>
                        <path d="M122.342661,66.9329605 C122.18254,69.2233097 122.309377,71.5171671 122.136663,73.8156122 C121.70128,79.6651285 120.27639,85.235334 117.852098,90.5632901 C117.704571,90.8889279 117.576835,91.2235613 117.438304,91.5536968 C119.088082,93.028962 121.013123,94.1408082 122.687189,95.5953836 C126.414932,98.8346701 128.945372,102.732429 129.880906,107.643083 C130.536679,111.092864 130.680608,114.560637 130.753471,118.059894 C131.223937,140.855439 130.819139,163.653684 130.935181,186.450129 C130.939679,187.409051 131.233832,187.659126 132.169366,187.656428 C140.659337,187.624044 149.148409,187.641135 157.63838,187.636638 C159.197303,187.635738 159.191906,187.622245 159.191906,186.036335 C159.191006,159.128937 159.236884,132.22154 159.152326,105.315042 C159.136134,100.28115 158.333733,95.315623 156.134329,90.6658391 C154.782302,87.807153 153.093843,85.2244494 150.894439,82.9421962 C145.59158,77.4387375 139.176876,73.6230181 132.312395,70.4511081 C129.694699,69.2430098 127.020331,68.1871158 124.302784,67.2344903 C123.679395,67.0158992 123.050608,66.6722703 122.342661,66.9329605" id="path18" fill="#D9AE13"></path>
                    </g>
                </g>
            </g>
        </g>
    </g>
</svg>