<?xml version="1.0" encoding="UTF-8"?>
<svg width="200px" height="200px" viewBox="0 0 200 200" version="1.1" xmlns="http://www.w3.org/2000/svg" xmlns:xlink="http://www.w3.org/1999/xlink">
    <!-- Generator: Sketch 51.3 (57544) - http://www.bohemiancoding.com/sketch -->
    <title>sioux-falls</title>
    <desc>Created with Sketch.</desc>
    <defs></defs>
    <g id="sioux-falls" stroke="none" stroke-width="1" fill="none" fill-rule="evenodd">
        <g id="sioux-falls_BGL" transform="translate(0.000000, 27.000000)">
            <g id="sioux-falls">
                <g id="g10" transform="translate(99.949416, 72.720285) scale(-1, 1) rotate(-180.000000) translate(-99.949416, -72.720285) translate(0.000000, 0.287308)">
                    <g id="g12">
                        <path d="M30.7538283,86.5978734 L21.8917546,39.4957603 C21.2847744,36.7036511 20.9207481,33.4259577 20.9207481,29.9054722 C20.9207481,23.2286894 25.0482138,18.1297315 32.817723,18.1297315 C42.0439039,18.1297315 47.9923104,24.1998578 50.9058156,39.3743642 L59.8891234,86.5978734 L77.3705595,86.5978734 L68.5082431,40.1027405 C63.7742017,15.337946 52.9695485,3.44082136 30.6325941,3.44082136 C13.7582192,3.31974094 3.4395548,12.1813249 3.4395548,29.5409603 C3.4395548,33.0617695 3.92498119,37.0678392 4.65351531,40.952958 L13.2724731,86.5978734 L30.7538283,86.5978734" id="path14" fill="#432C91" fill-rule="nonzero"></path>
                        <path d="M81.527565,90.0374282 L57.0419814,90.0374282 L56.5102667,87.2408678 L47.5269589,40.0173991 C44.4058664,23.761699 38.3398271,21.5692863 32.817723,21.5692863 C25.1842988,21.5692863 24.3603029,27.3991698 24.3603029,29.9054722 C24.3603029,33.0153153 24.6688512,36.0789875 25.252928,38.7649965 L25.2631658,38.81226 L25.2720277,38.8596854 L34.1341013,85.9621627 L34.9008792,90.0374282 L30.7538283,90.0374282 L13.2724731,90.0374282 L10.4218915,90.0374282 L9.89268564,87.2364166 L1.27371165,41.5910966 C0.440218502,37.1459374 0,32.9805151 0,29.5409603 C0,20.1003536 2.77630342,12.6923618 8.25193707,7.52291332 C13.5394635,2.53114005 20.954739,0.00047420535 30.2914712,0.00047420535 C30.4081328,0.00047420535 30.5268581,0.00047420535 30.6439648,0.0012645422 C42.6796145,0.00331942531 51.8239744,3.290181 58.600302,10.0496507 C64.9731901,16.4063122 69.3191687,26.0256948 71.8866952,39.4570349 L80.7490116,85.9540697 L81.527565,90.0374282 Z M77.3705595,86.5978734 L68.5082431,40.1027405 C63.7742017,15.337946 52.9695485,3.44082136 30.6325941,3.44082136 C30.5194125,3.44002824 30.404329,3.44002824 30.2914712,3.44002824 C13.6181686,3.44002824 3.4395548,12.2978247 3.4395548,29.5409603 C3.4395548,33.0617695 3.92498119,37.0678392 4.65351531,40.952958 L13.2724731,86.5978734 L30.7538283,86.5978734 L21.8917546,39.4957603 C21.2847744,36.7036511 20.9207481,33.4259577 20.9207481,29.9054722 C20.9207481,23.2286894 25.0482138,18.1297315 32.817723,18.1297315 C42.0439039,18.1297315 47.9923104,24.1998578 50.9058156,39.3743642 L59.8891234,86.5978734 L77.3705595,86.5978734 Z" id="path16" fill="#432C91" fill-rule="nonzero"></path>
                        <path d="M77.4102156,23.7142736 C82.2660576,20.8007683 89.1856326,18.4942433 96.7125924,18.4942433 C103.510771,18.4942433 109.70197,21.650217 109.70197,27.9631354 C109.70197,32.6975814 106.18108,35.6110866 98.6549292,39.6171563 C90.0354049,44.2302467 81.7804734,50.6646421 81.7804734,61.225694 C81.7804734,77.8573577 96.1056122,87.8118339 113.950832,87.8118339 C123.905308,87.8118339 129.732723,85.626705 133.253209,83.8057642 L127.790386,69.238238 C125.119268,70.6949906 119.292258,72.8801196 112.615475,72.7587235 C104.360139,72.7587235 100.111277,68.7526538 100.111277,64.2609999 C100.111277,59.5265539 105.08892,56.4916526 112.008495,52.6065743 C121.962971,47.5079401 128.275566,40.8311573 128.275566,30.9980367 C128.275566,12.7883052 113.222455,3.44082136 95.012643,3.44082136 C83.6014142,3.56221741 75.4678787,6.47571051 71.5832051,9.26814342 L77.4102156,23.7142736" id="path18" fill="#432C91" fill-rule="nonzero"></path>
                        <path d="M113.950832,91.2513887 C104.285278,91.2513887 95.4415758,88.4847727 89.048455,83.4601901 C85.6724308,80.8068771 83.0373272,77.5983794 81.2159818,73.923721 C79.3080405,70.0750615 78.3409186,65.8027298 78.3409186,61.225694 C78.3409186,48.1056134 89.0079897,40.8789064 97.031864,36.5848043 C104.835607,32.4309147 106.262415,30.4231454 106.262415,27.9631354 C106.262415,23.2037222 100.25938,21.9337981 96.7125924,21.9337981 C90.5804732,21.9337981 84.1897804,23.657703 79.1797653,26.6638334 L75.726857,28.7356189 L74.220332,25.0011122 L68.3933215,10.554982 L67.3833064,8.05102661 L69.575719,6.47494167 C71.6309542,4.99795637 79.5358604,0.165971063 94.9762242,0.0012645422 L94.9944336,0.0012645422 L95.012643,0.0012645422 C105.168637,0.0012645422 114.003032,2.64842482 120.560847,7.65725828 C127.857963,13.2313603 131.715121,21.3026196 131.715121,30.9980367 C131.715121,41.3296904 125.800705,49.3899836 113.636011,55.6374291 C107.72807,58.9559925 103.550832,61.521091 103.550832,64.2609999 C103.550832,67.2865942 107.193523,69.3191687 112.615475,69.3191687 L112.646634,69.3191687 L112.677792,69.319978 C112.836011,69.3228106 112.992612,69.3240246 113.149618,69.3240246 C118.537579,69.3240246 123.516436,67.651187 126.143447,66.2187136 L129.620229,64.3225072 L131.011024,68.030752 L136.473846,82.5982782 L137.545773,85.4579645 L134.833381,86.8608982 C129.121292,89.8152734 122.290336,91.2513887 113.950832,91.2513887 Z M113.950832,87.8118339 C123.905308,87.8118339 129.732723,85.626705 133.253209,83.8057642 L127.790386,69.238238 C125.190892,70.6557393 119.601413,72.7635794 113.149618,72.7635794 C112.97238,72.7635794 112.794332,72.7619608 112.615475,72.7587235 C104.360139,72.7587235 100.111277,68.7526538 100.111277,64.2609999 C100.111277,59.5265539 105.08892,56.4916526 112.008495,52.6065743 C121.962971,47.5079401 128.275566,40.8311573 128.275566,30.9980367 C128.275566,12.7883052 113.222455,3.44082136 95.012643,3.44082136 C83.6014142,3.56221741 75.4678787,6.47571051 71.5832051,9.26814342 L77.4102156,23.7142736 C82.2660576,20.8007683 89.1856326,18.4942433 96.7125924,18.4942433 C103.510771,18.4942433 109.70197,21.650217 109.70197,27.9631354 C109.70197,32.6975814 106.18108,35.6110866 98.6549292,39.6171563 C90.0354049,44.2302467 81.7804734,50.6646421 81.7804734,61.225694 C81.7804734,77.8573577 96.1056122,87.8118339 113.950832,87.8118339 Z" id="path20" fill="#432C91" fill-rule="nonzero"></path>
                        <polyline id="path22" fill="#432C91" fill-rule="nonzero" points="147.698125 86.5978734 195.64997 86.5978734 192.736465 71.6661591 162.387047 71.6661591 158.623769 52.4855829 187.152246 52.4855829 184.238741 37.7962155 155.83166 37.7962155 149.640462 4.77616579 132.15943 4.77616579 147.698125 86.5978734"></polyline>
                        <path d="M199.825589,90.0374282 L144.850173,90.0374282 L144.318863,87.2396539 L128.780169,5.41794625 L128.004853,1.33662313 L132.15943,1.33662313 L149.640462,1.33662313 L152.495292,1.33662313 L153.020937,4.1424784 L158.686086,34.3566607 L184.238741,34.3566607 L187.062818,34.3566607 L187.612742,37.1269591 L190.526247,51.816286 L191.341219,55.9251377 L187.152246,55.9251377 L162.80384,55.9251377 L165.217194,68.2266043 L192.736465,68.2266043 L195.569848,68.2266043 L196.112489,71.0073832 L199.025994,85.9390975 L199.825589,90.0374282 Z M195.64997,86.5978734 L192.736465,71.6661591 L162.387047,71.6661591 L158.623769,52.4855829 L187.152246,52.4855829 L184.238741,37.7962155 L155.83166,37.7962155 L149.640462,4.77616579 L132.15943,4.77616579 L147.698125,86.5978734 L195.64997,86.5978734 Z" id="path24" fill="#432C91" fill-rule="nonzero"></path>
                        <path d="M30.7538283,86.5978734 L21.8917546,39.4957603 C21.2847744,36.7036511 20.9207481,33.4259577 20.9207481,29.9054722 C20.9207481,23.2286894 25.0482138,18.1297315 32.817723,18.1297315 C42.0439039,18.1297315 47.9923104,24.1998578 50.9058156,39.3743642 L59.8891234,86.5978734 L77.3705595,86.5978734 L68.5082431,40.1027405 C63.7742017,15.337946 52.9695485,3.44082136 30.6325941,3.44082136 C13.7582192,3.31974094 3.4395548,12.1813249 3.4395548,29.5409603 C3.4395548,33.0617695 3.92498119,37.0678392 4.65351531,40.952958 L13.2724731,86.5978734 L30.7538283,86.5978734" id="path26" fill="#432C91" fill-rule="nonzero"></path>
                        <path d="M80.3047021,89.0257944 L57.8796141,89.0257944 L57.5040957,87.05149 L48.5207879,39.8280213 C47.16358,32.7595338 45.1629731,27.7984414 42.4060687,24.6656949 C39.9402317,21.8629838 36.8931908,20.5576525 32.817723,20.5576525 C26.8884161,20.5576525 23.3486691,24.0522402 23.3486691,29.9054722 C23.3486691,33.0861297 23.66527,36.2242176 24.2643595,38.9803126 L24.2714814,39.0134942 L24.277794,39.0469995 L33.1398677,86.1491127 L33.6812536,89.0257944 L30.7538283,89.0257944 L13.2724731,89.0257944 L11.2601312,89.0257944 L10.8867574,87.0486574 L2.26764182,41.4033374 C1.44568939,37.0200901 1.01163376,32.919372 1.01163376,29.5409603 C1.01163376,20.3896404 3.68124219,13.229337 8.94632249,8.25905897 C14.0400603,3.45014458 21.2215675,1.01210721 30.2914712,1.01210721 C30.4100346,1.01210721 30.5307833,1.01210721 30.6499942,1.01290033 C42.3923105,1.01290033 51.3068272,4.20317643 57.8860886,10.7661707 C64.1100642,16.9748908 68.3649958,26.4214864 70.8928662,39.6471816 L79.7555873,86.1434475 L80.3047021,89.0257944 Z M77.3705595,86.5978734 L68.5082431,40.1027405 C63.7742017,15.337946 52.9695485,3.44082136 30.6325941,3.44082136 C30.5194125,3.44002824 30.404329,3.44002824 30.2914712,3.44002824 C13.6181686,3.44002824 3.4395548,12.2978247 3.4395548,29.5409603 C3.4395548,33.0617695 3.92498119,37.0678392 4.65351531,40.952958 L13.2724731,86.5978734 L30.7538283,86.5978734 L21.8917546,39.4957603 C21.2847744,36.7036511 20.9207481,33.4259577 20.9207481,29.9054722 C20.9207481,23.2286894 25.0482138,18.1297315 32.817723,18.1297315 C42.0439039,18.1297315 47.9923104,24.1998578 50.9058156,39.3743642 L59.8891234,86.5978734 L77.3705595,86.5978734 Z" id="path28" fill="#FFFFFF" fill-rule="nonzero"></path>
                        <path d="M77.4102156,23.7142736 C82.2660576,20.8007683 89.1856326,18.4942433 96.7125924,18.4942433 C103.510771,18.4942433 109.70197,21.650217 109.70197,27.9631354 C109.70197,32.6975814 106.18108,35.6110866 98.6549292,39.6171563 C90.0354049,44.2302467 81.7804734,50.6646421 81.7804734,61.225694 C81.7804734,77.8573577 96.1056122,87.8118339 113.950832,87.8118339 C123.905308,87.8118339 129.732723,85.626705 133.253209,83.8057642 L127.790386,69.238238 C125.119268,70.6949906 119.292258,72.8801196 112.615475,72.7587235 C104.360139,72.7587235 100.111277,68.7526538 100.111277,64.2609999 C100.111277,59.5265539 105.08892,56.4916526 112.008495,52.6065743 C121.962971,47.5079401 128.275566,40.8311573 128.275566,30.9980367 C128.275566,12.7883052 113.222455,3.44082136 95.012643,3.44082136 C83.6014142,3.56221741 75.4678787,6.47571051 71.5832051,9.26814342 L77.4102156,23.7142736" id="path30" fill="#432C91" fill-rule="nonzero"></path>
                        <path d="M113.950832,90.239755 C104.51067,90.239755 95.8891225,87.5496184 89.67324,82.6646413 C82.9215963,77.3580153 79.3525524,69.944763 79.3525524,61.225694 C79.3525524,48.649063 89.7149194,41.6481527 97.5093552,37.4766202 C104.902375,33.5416481 107.274049,31.2307124 107.274049,27.9631354 C107.274049,25.8423463 106.314211,24.1351941 104.421646,22.8891446 C102.494282,21.6206773 99.7563961,20.9221644 96.7125924,20.9221644 C90.4024257,20.9221644 83.8219504,22.6986742 78.6593809,25.7961754 L76.2217482,27.2586336 L75.1583188,24.6226802 L69.3313083,10.1762264 L68.6187135,8.40906403 L70.1661085,7.29671201 C72.160241,5.86351022 79.8433971,1.17428424 94.9867452,1.01290033 L95.0000988,1.01290033 L95.012643,1.01290033 C104.803235,1.01290033 113.658267,3.65848043 119.946583,8.46138573 C126.983912,13.8363173 130.703487,21.6295392 130.703487,30.9980367 C130.703487,40.9189671 124.963882,48.6875051 113.156902,54.746382 C106.741525,58.3494169 102.539198,60.9618599 102.539198,64.2609999 C102.539198,67.8915512 106.588566,70.3308025 112.615475,70.3308025 L112.637326,70.3308025 L112.659582,70.3312071 C112.823467,70.3344444 112.986947,70.3356583 113.149618,70.3356583 C118.727766,70.3356583 123.89681,68.5964576 126.627817,67.1065234 L129.08204,65.7683342 L130.06373,68.3856331 L135.526552,82.9531593 L136.283254,84.9719756 L134.368838,85.9621627 C128.803639,88.8404631 122.124833,90.239755 113.950832,90.239755 Z M113.950832,87.8118339 C123.905308,87.8118339 129.732723,85.626705 133.253209,83.8057642 L127.790386,69.238238 C125.190892,70.6557393 119.601413,72.7635794 113.149618,72.7635794 C112.97238,72.7635794 112.794332,72.7619608 112.615475,72.7587235 C104.360139,72.7587235 100.111277,68.7526538 100.111277,64.2609999 C100.111277,59.5265539 105.08892,56.4916526 112.008495,52.6065743 C121.962971,47.5079401 128.275566,40.8311573 128.275566,30.9980367 C128.275566,12.7883052 113.222455,3.44082136 95.012643,3.44082136 C83.6014142,3.56221741 75.4678787,6.47571051 71.5832051,9.26814342 L77.4102156,23.7142736 C82.2660576,20.8007683 89.1856326,18.4942433 96.7125924,18.4942433 C103.510771,18.4942433 109.70197,21.650217 109.70197,27.9631354 C109.70197,32.6975814 106.18108,35.6110866 98.6549292,39.6171563 C90.0354049,44.2302467 81.7804734,50.6646421 81.7804734,61.225694 C81.7804734,77.8573577 96.1056122,87.8118339 113.950832,87.8118339 Z" id="path32" fill="#FFFFFF" fill-rule="nonzero"></path>
                        <polyline id="path34" fill="#432C91" fill-rule="nonzero" points="147.698125 86.5978734 195.64997 86.5978734 192.736465 71.6661591 162.387047 71.6661591 158.623769 52.4855829 187.152246 52.4855829 184.238741 37.7962155 155.83166 37.7962155 149.640462 4.77616579 132.15943 4.77616579 147.698125 86.5978734"></polyline>
                        <path d="M198.597466,89.0257944 L145.687806,89.0257944 L145.312692,87.0510853 L129.773998,5.22889213 L129.226906,2.3482569 L132.15943,2.3482569 L149.640462,2.3482569 L151.655231,2.3482569 L152.026703,4.3289832 L157.84643,35.3682945 L184.238741,35.3682945 L186.232469,35.3682945 L186.620532,37.3235803 L189.534037,52.0129476 L190.109049,54.9135039 L187.152246,54.9135039 L161.574503,54.9135039 L164.384821,69.238238 L192.736465,69.238238 L194.736262,69.238238 L195.119064,71.2012122 L198.032974,86.1329265 L198.597466,89.0257944 Z M195.64997,86.5978734 L192.736465,71.6661591 L162.387047,71.6661591 L158.623769,52.4855829 L187.152246,52.4855829 L184.238741,37.7962155 L155.83166,37.7962155 L149.640462,4.77616579 L132.15943,4.77616579 L147.698125,86.5978734 L195.64997,86.5978734 Z" id="path36" fill="#FFFFFF" fill-rule="nonzero"></path>
                        <path d="M37.6383197,120.519167 C37.6383197,120.519167 37.5429834,125.09418 30.2943037,125.189274 C23.2114511,125.282749 13.2816587,112.982496 20.9540915,102.311378 C29.7259274,90.1106705 44.0230641,98.5962545 44.0230641,98.5962545 C44.0230641,98.5962545 45.1091542,97.627514 45.5364683,94.8540189 C46.1098623,91.1397043 46.4615062,89.7282729 50.2211419,89.7282729 C53.7501251,89.7282729 62.6128462,89.7282729 62.6128462,89.7282729 C62.6128462,89.7282729 64.8048542,90.3012623 64.8999478,92.2067756 C64.9958507,94.112289 62.9948391,95.0672713 62.135355,95.2582677 C61.275871,95.4492642 62.1309039,97.1633764 58.9883647,97.4502758 C55.8462303,97.7363658 54.2183092,96.7862394 53.7452693,98.6917527 C53.272634,100.596861 53.3632764,104.980877 56.1282738,105.457964 C58.8928665,105.93586 60.7987845,104.311985 68.8064727,107.363073 C76.814161,110.414969 76.1509339,110.987959 76.1509339,110.987959 C76.1509339,110.987959 80.82104,109.369345 82.7261487,109.082445 C84.631662,108.796355 90.0483538,109.09499 90.3708627,105.920483 C90.678804,102.884368 87.4302457,99.8753642 88.567322,96.8117325 C89.6768819,93.8209385 93.0217478,94.1608474 97.1678276,93.8209385 C102.613654,93.375415 102.777135,93.9301949 103.698935,91.920281 C104.355688,90.4869982 103.88548,89.7282729 105.413047,89.7282729 C106.941424,89.7282729 120.569749,89.7282729 120.569749,89.7282729 C120.569749,89.7282729 122.288717,91.6337863 121.047645,92.6846714 C119.805763,93.7351519 119.142132,93.4482526 119.142132,93.4482526 C119.142132,93.4482526 117.427615,95.1623648 116.472632,95.2582677 C115.518055,95.353766 115.97936,95.8692945 113.978753,96.6288291 C111.978146,97.3879591 111.783508,98.3554857 105.924529,98.8447117 C101.349922,99.2263 100.337883,100.919775 100.280827,104.302678 C100.203943,108.879309 104.462921,109.841575 109.037934,108.796355 C113.502476,107.775415 111.03854,106.890842 118.664236,103.648354 C126.29074,100.405865 127.909759,101.45675 127.909759,101.45675 C127.909759,101.45675 129.679309,98.5865428 134.298429,96.5903871 C140.740108,93.8071803 141.007179,94.3101646 141.256041,91.8247827 C141.515019,89.2394515 145.417902,89.7282729 145.417902,89.7282729 L158.227209,89.7282729 C158.227209,89.7282729 160.34557,90.9847221 159.199591,92.0347979 C158.053613,93.0852784 157.372581,94.0163861 156.226602,94.971773 C155.080623,95.9267553 153.647745,97.0678782 151.360644,97.1633764 C149.073137,97.2592793 145.926147,97.5405135 143.543143,99.4508827 C141.160947,101.360847 139.828423,103.265956 139.828423,103.265956 C139.828423,103.265956 141.828626,103.070508 144.307533,104.598075 C146.785631,106.126856 148.123011,107.45938 148.123011,107.45938 C148.123011,107.45938 154.125641,103.738996 155.080623,102.311378 C156.035606,100.883761 156.508241,99.2598862 160.037224,97.2592793 C163.565803,95.2582677 166.361554,96.1744033 171.227512,94.8418793 C175.35862,93.7104681 175.367927,93.8100128 175.80212,92.7409183 C176.847745,90.167322 178.66302,90.167322 178.66302,90.167322 L190.290334,90.167322 C190.290334,90.167322 193.518255,91.0021222 193.246328,92.8364165 C192.864335,95.4096081 189.526348,95.7924104 189.526348,95.7924104 C189.526348,95.7924104 188.891042,97.1488089 185.935048,98.2903364 C182.979459,99.431864 179.999591,98.938996 178.376121,99.1299925 C176.753056,99.3205843 175.233987,101.321596 170.750021,104.277185 C166.26646,107.233179 166.509252,107.456143 164.420431,109.082445 C162.877082,110.283862 161.941928,112.224175 159.272834,114.894079 C156.604144,117.562769 157.36813,117.085682 156.985732,117.75417 C156.604144,118.422658 159.087098,119.950629 160.609809,119.281737 C162.133734,118.613654 162.957608,116.195445 165.049262,115.431459 C168.108443,114.313806 168.055433,114.964084 169.392004,114.868586 C170.728979,114.773088 170.599085,112.978449 174.741119,111.450073 C175.672631,111.106118 177.277891,112.191803 177.154067,113.179562 C176.953359,114.78806 178.360339,115.351742 177.757406,115.592511 C176.807279,115.972885 177.797871,114.385834 175.022353,115.994737 C174.361958,116.377943 173.09256,117.844408 173.09256,117.844408 C173.09256,117.844408 173.720987,118.060897 174.580471,118.729385 C175.439955,119.397873 175.626096,119.936062 176.148908,119.851085 C177.383506,119.648758 178.584518,118.760948 178.642383,118.286694 C178.868584,116.411934 177.007987,116.848556 177.918458,116.517954 C178.80303,116.195445 178.642383,116.55761 179.526956,117.160948 C179.973288,117.465247 182.34213,117.663123 183.297517,118.995647 C184.252095,120.328171 183.870506,121.951641 183.870506,121.951641 C183.870506,121.951641 185.107127,122.52463 185.107127,123.952652 C185.107127,125.380675 184.634087,126.431155 181.86909,128.52726 C179.104093,130.623365 177.290436,131.769344 177.290436,131.769344 C177.290436,131.769344 177.425185,133.519066 175.706217,135.620432 C174.739905,136.801615 171.240056,139.20202 167.982191,140.006471 C167.982191,140.006471 167.694482,141.088919 167.239247,142.241777 C166.784012,143.39423 165.418306,144.507027 163.629738,144.802424 C162.275363,145.025793 160.056647,144.455636 159.24734,143.444812 C158.438033,142.433178 158.573997,140.888616 158.573997,140.888616 C158.573997,140.888616 153.521898,141.46201 149.324832,140.606977 C145.127361,139.752349 146.283051,139.963578 144.377943,139.963578 C142.472834,139.963578 136.402222,142.725743 131.227109,141.653006 C118.036214,138.917953 117.009203,133.989678 101.748505,133.72989 C90.5250357,133.539299 88.5240241,137.422758 78.4258959,137.422758 C71.320585,137.422758 65.519877,132.157812 57.9892752,124.245217 C50.4586735,116.333027 49.5526543,113.561555 49.5526543,113.561555 C49.5526543,113.561555 42.9151229,112.734443 41.6987344,109.450275 C40.9282741,107.369952 41.1597359,104.687908 41.1597359,104.687908 C41.1597359,104.687908 35.1700952,99.6070789 28.5797464,103.935253 C25.2423261,106.126856 24.7692052,111.560948 27.3430443,114.134544 C29.9170048,116.708545 30.2943037,116.135556 34.3006972,116.135556 C37.7339394,116.135556 37.6383197,120.519167 37.6383197,120.519167" id="path38" fill="#432C91"></path>
                        <path d="M181.822555,124.102374 C182.112287,124.44026 182.835807,125.035505 182.304902,125.855738 C181.773996,126.676375 181.16297,127.737781 178.991599,129.201413 C176.820228,130.665449 175.452499,131.293067 175.25867,131.582799 C175.066055,131.872126 175.78998,131.888312 175.596961,132.757103 C175.404346,133.62549 175.404346,134.928879 172.395747,136.488818 C169.387957,138.049162 166.554169,139.274453 166.554169,139.274453 C166.554169,139.274453 166.228423,141.113603 165.96904,141.686188 C165.710062,142.259177 165.220836,143.175717 163.397467,143.41163 C161.574098,143.647139 160.029536,142.585732 159.909354,141.317144 C159.601412,139.954675 159.623264,139.177741 159.623264,139.177741 C159.333532,138.888413 157.210719,139.932419 152.722303,139.641878 C146.753664,139.255839 146.555383,138.289121 144.373087,138.001008 C140.592814,137.502475 135.92635,140.706926 131.380472,139.755586 C118.852804,137.133431 120.455637,134.219926 109.092966,132.908848 C92.7765278,131.0264 88.844105,135.58725 78.9389965,135.968029 C75.1518444,136.113704 72.0926639,133.637225 72.0926639,133.637225 C72.0926639,133.637225 75.3258454,135.259076 81.7068265,134.948302 C88.5130984,134.616486 89.1641859,129.684165 94.9871499,128.912086 C100.810923,128.140007 100.553563,130.295596 106.489426,129.941929 C112.425288,129.587857 119.454929,127.753967 124.217296,130.472834 C128.978044,133.190892 130.491044,135.475566 133.884873,135.764893 C137.279106,136.054625 143.005358,134.639147 143.005358,134.639147 C143.005358,134.639147 147.719167,136.923416 151.901665,137.212743 C156.994634,137.565601 160.488008,137.907533 160.488008,137.907533 C160.316435,139.69246 160.323314,140.424073 160.764791,141.472126 C161.169445,142.433178 163.664943,143.950629 165.012439,141.455535 C162.720482,143.748302 162.154776,140.243598 162.585732,138.960037 C163.016688,137.676476 163.395444,137.071519 164.47425,135.318155 C165.553056,133.564387 167.489323,131.405561 169.725438,130.375718 C171.961554,129.346684 174.101361,129.137478 177.012843,127.06201 C179.92473,124.986947 180.696404,124.102374 181.179156,123.813047 C181.662312,123.523315 181.532823,123.764489 181.822555,124.102374" id="path40" fill="#FFFFFF"></path>
                        <path d="M48.5960534,112.58634 C48.5960534,112.58634 43.2789064,111.113806 42.6537167,109.133027 C42.028527,107.152248 42.3995943,105.457964 42.3995943,105.457964 L43.4484562,106.389881 C43.4484562,106.389881 43.2789064,108.710164 44.2958006,109.758217 C46.11836,111.638642 48.5960534,112.58634 48.5960534,112.58634" id="path42" fill="#FFFFFF"></path>
                        <path d="M62.3664122,92.7781464 C63.7090525,92.1630731 63.3128967,91.2695981 63.3128967,91.2695981 C63.3128967,91.2695981 64.5794622,91.9368718 64.0404638,92.8728353 C62.7212933,95.1623648 60.8627198,93.4668667 62.3664122,92.7781464" id="path44" fill="#FFFFFF"></path>
                        <path d="M118.902981,91.8798156 C120.246026,91.2635283 119.849871,90.3708627 119.849871,90.3708627 C119.849871,90.3708627 121.116436,91.038541 120.577033,91.9740999 C119.258267,94.2636294 117.399289,92.5689405 118.902981,91.8798156" id="path46" fill="#FFFFFF"></path>
                        <path d="M116.653108,91.9983791 C117.363275,91.3829011 116.819016,90.6723295 116.819016,90.6723295 C116.819016,90.6723295 117.807989,91.3440544 117.688616,92.4176001 C117.546583,93.6963052 115.460999,93.0314595 116.653108,91.9983791" id="path48" fill="#FFFFFF"></path>
                        <path d="M45.1674243,99.9486065 C45.1674243,99.9486065 47.9020727,101.99939 50.0337873,104.774504 C53.8136557,109.695091 59.8247835,116.561656 63.9486074,120.820634 C70.101364,127.174908 74.6460275,126.853209 74.6460275,126.853209 C74.6460275,126.853209 70.101364,126.20981 65.8387439,121.544559 C64.4940803,120.072835 61.0605953,117.272228 59.0822443,114.868586 C55.7847229,110.862516 50.8815364,104.884165 49.4705096,103.08548 C47.862012,101.034292 45.1674243,99.9486065 45.1674243,99.9486065" id="path50" fill="#FFFFFF"></path>
                        <path d="M56.8263011,106.132521 C56.8263011,106.132521 63.8049554,106.582091 67.7078385,108.160645 C71.6111262,109.738389 74.5582177,111.730093 74.5582177,111.730093 C74.5582177,111.730093 74.3939283,111.645521 73.9358606,112.103184 C73.4781975,112.561252 73.3535642,112.934747 73.3535642,112.934747 C73.3535642,112.934747 69.864237,109.846836 66.3631749,108.706522 C61.1937263,107.022354 56.8263011,106.132521 56.8263011,106.132521" id="path52" fill="#FFFFFF"></path>
                        <path d="M74.8434984,113.179562 C74.8434984,113.179562 79.8223551,111.111378 85.4757692,110.521393 C90.0580655,110.042688 91.8486573,109.846836 92.8602911,106.936163 C93.8719248,104.025086 90.2021222,99.0013126 91.2137559,97.5676253 C92.5721778,95.6430932 100.666057,94.9944336 100.666057,94.9944336 C100.666057,94.9944336 90.9608475,94.4036395 90.1175496,96.9776405 C89.0953948,100.098733 92.6777923,103.996356 91.5508323,106.936163 C90.3708627,110.015576 83.0709135,109.677691 80.0756682,110.437225 C77.0796137,111.195546 74.8434984,113.179562 74.8434984,113.179562" id="path54" fill="#FFFFFF"></path>
                        <path d="M104.082951,127.44198 C104.082951,127.44198 108.134747,126.004246 108.471823,121.997367 C108.809304,117.990083 104.886189,113.600806 104.886189,113.600806 C104.886189,113.600806 107.420533,118.19848 107.123113,121.659886 C106.825288,125.121696 104.082951,127.44198 104.082951,127.44198" id="path56" fill="#FFFFFF"></path>
                        <path d="M138.936972,102.547291 C138.936972,102.547291 136.531307,102.085582 134.294382,101.703993 C132.058267,101.322405 128.893876,101.15326 128.893876,101.15326 C128.893876,101.15326 131.637023,100.310771 134.463527,100.816588 C137.290032,101.322405 138.936972,102.547291 138.936972,102.547291" id="path58" fill="#FFFFFF"></path>
                        <path d="M138.514918,101.069092 C138.514918,101.069092 137.347493,101.186846 137.880421,100.563275 C139.864033,98.2421827 143.999592,97.1459763 143.999592,97.1459763 C143.999592,97.1459763 141.381888,98.2866946 140.454018,99.3833056 C139.526957,100.479107 138.514918,101.069092 138.514918,101.069092" id="path60" fill="#FFFFFF"></path>
                        <path d="M156.356496,91.6467352 C157.699541,91.0312572 157.303385,90.1389962 157.303385,90.1389962 C157.303385,90.1389962 158.569546,90.8058652 158.030952,91.7418288 C156.711377,94.0313583 154.853208,92.3362648 156.356496,91.6467352" id="path62" fill="#FFFFFF"></path>
                        <path d="M146.995242,108.03237 C146.995242,108.03237 147.039754,107.188667 146.320684,107.27324 C145.601615,107.357408 143.577943,109.128171 141.257255,111.701768 C138.936972,114.275769 136.615475,117.90551 136.615475,117.90551 C136.615475,117.90551 140.156193,113.938287 143.028019,111.364287 C145.89944,108.791095 146.995242,108.03237 146.995242,108.03237" id="path64" fill="#FFFFFF"></path>
                        <path d="M157.827411,114.810316 C157.827411,114.810316 155.422151,118.356294 152.005257,120.210821 C148.588362,122.065753 146.436011,122.616487 146.436011,122.616487 L147.19514,121.391196 C147.19514,121.391196 150.065752,120.466158 152.42731,118.98634 C154.579258,117.637225 157.827411,114.810316 157.827411,114.810316" id="path66" fill="#FFFFFF"></path>
                        <path d="M176.225792,98.7811811 C176.225792,98.7811811 174.242181,100.97845 170.403233,103.001717 C166.565094,105.024985 164.084568,107.104499 164.084568,107.104499 C164.084568,107.104499 162.735858,107.27324 161.426804,107.020736 C160.117346,106.767423 158.599895,106.047949 158.599895,106.047949 C158.599895,106.047949 160.15255,105.575718 166.14385,103.339198 C172.134341,101.102678 176.225792,98.7811811 176.225792,98.7811811" id="path68" fill="#FFFFFF"></path>
                        <path d="M173.062211,95.7859359 C173.062211,95.7859359 171.162363,96.7138064 169.644912,96.7138064 C168.127057,96.7138064 166.565094,96.039249 166.565094,96.039249 C166.565094,96.039249 168.131913,96.2727341 169.72908,96.2079895 C171.797264,96.1234169 173.062211,95.7859359 173.062211,95.7859359" id="path70" fill="#FFFFFF"></path>
                        <path d="M189.064234,92.6543224 C190.40647,92.0388444 190.010719,91.1457742 190.010719,91.1457742 C190.010719,91.1457742 191.276879,91.8134524 190.738286,92.7490113 C189.419115,95.0389455 187.560946,93.343852 189.064234,92.6543224" id="path72" fill="#FFFFFF"></path>
                        <path d="M190.917547,93.3665126 C192.259783,92.7510346 191.864032,91.858369 191.864032,91.858369 C191.864032,91.858369 193.130192,92.5256426 192.590789,93.4616062 C191.272428,95.7511357 189.41345,94.0560422 190.917547,93.3665126" id="path74" fill="#FFFFFF"></path>
                        <path d="M176.433784,120.90116 C176.433784,120.90116 179.527765,122.294382 180.033582,123.053512 C180.539399,123.812238 180.370658,124.065146 179.864841,124.065146 C179.359429,124.065146 177.375818,125.374605 172.902373,126.132926 C168.429333,126.892056 165.012439,127.094382 165.012439,127.094382 C165.012439,127.094382 169.693875,126.599491 173.829839,125.458773 C177.966207,124.318055 179.494179,123.965601 179.146177,123.72807 C178.363981,123.193118 178.089626,123.683153 173.914007,124.48639 C169.738387,125.290032 165.776829,125.164185 165.776829,125.164185 C165.776829,125.164185 170.665853,124.48639 173.576526,123.981383 C176.487603,123.475566 177.527158,123.128373 177.358822,122.791297 C177.190082,122.454221 176.106419,122.99241 172.774098,122.99241 C169.440967,122.99241 166.660997,122.791297 166.660997,122.791297 C166.660997,122.791297 176.53252,122.503184 176.954169,121.912794 C177.375818,121.322405 176.433784,120.90116 176.433784,120.90116" id="path76" fill="#FFFFFF"></path>
                        <path d="M174.664234,131.156294 C174.664234,131.156294 174.784821,132.000806 174.382596,132.684266 C173.98037,133.36813 173.778853,133.529182 173.336971,133.649769 C172.894685,133.770356 172.130294,134.092055 171.004548,133.569243 C169.878802,133.046431 168.913299,132.644205 169.194533,132.121393 C169.476172,131.59858 170.642383,132.443092 172.170759,132.000806 C173.699136,131.558115 173.699136,131.116233 174.020835,131.075768 C174.342939,131.035707 174.664234,131.156294 174.664234,131.156294" id="path78" fill="#432C91"></path>
                        <path d="M171.929181,132.563679 L171.346076,132.563679 L170.602322,132.644205 C170.602322,132.644205 170.964083,133.005965 171.446834,133.046431 C171.808595,133.074756 172.045317,133.107938 172.162666,132.991398 C172.032773,132.938793 171.864437,132.658773 171.929181,132.563679" id="path80" fill="#FFFFFF"></path>
                    </g>
                </g>
            </g>
        </g>
    </g>
</svg>