<?xml version="1.0" encoding="UTF-8"?>
<svg width="200px" height="200px" viewBox="0 0 200 200" version="1.1" xmlns="http://www.w3.org/2000/svg" xmlns:xlink="http://www.w3.org/1999/xlink">
    <!-- Generator: Sketch 51.3 (57544) - http://www.bohemiancoding.com/sketch -->
    <title>slippery-rock</title>
    <desc>Created with Sketch.</desc>
    <defs></defs>
    <g id="slippery-rock" stroke="none" stroke-width="1" fill="none" fill-rule="evenodd">
        <g id="slippery-rock_BGL" transform="translate(0.000000, 4.975124)">
            <g id="slippery-rock">
                <g id="g10" transform="translate(99.943596, 95.915559) scale(-1, 1) rotate(-180.000000) translate(-99.943596, -95.915559) translate(0.000000, 0.305241)" fill-rule="nonzero">
                    <g id="g12">
                        <path d="M184.301405,188.591577 L67.6760276,188.591577 C53.0382389,188.591577 32.9921255,188.591577 17.3736262,177.953246 C3.12746749,168.209971 2.67572695,156.874088 2.27739193,146.872711 L2.27298359,146.766776 L2.27298359,117.459296 L2.27650756,117.35785 C2.63430563,107.916219 3.12570325,94.9872801 18.8996273,84.5074017 C33.3595931,74.6685164 50.6612508,74.3973961 65.9271275,74.1585947 L67.2992651,74.1379465 C67.2992651,74.1379465 106.064746,74.1379465 114.772248,74.1379465 C114.772248,67.7980397 114.772248,55.9046548 114.772248,49.5642992 C107.907499,49.5642992 91.9381816,49.5642992 85.0738839,49.5642992 C85.0738839,54.6361348 85.0738839,61.8639158 85.0738839,61.8639158 L6.02368851,61.8639158 L6.02368851,2.26138153 L129.921711,2.26138153 C143.525772,2.26138153 156.374503,2.26138153 169.646471,7.06084444 C196.60101,16.5571485 197.173148,35.1966718 197.551715,47.5304478 L197.576532,48.3361779 L197.576532,76.5250623 C197.576532,86.6786088 197.575178,103.668966 175.21669,113.278925 C161.334232,119.409208 144.766155,119.67943 130.147769,119.916885 L128.094751,119.950551 C128.094751,119.950551 93.5981928,119.950551 85.0738839,119.950551 C85.0738839,125.900385 85.0738839,135.337977 85.0738839,141.287362 C91.9381816,141.287362 107.907499,141.287362 114.772248,141.287362 C114.772248,136.80445 114.772248,130.977158 114.772248,130.977158 L189.702421,130.977158 L189.702421,188.591577 L184.301405,188.591577" id="path14" fill="#FFFFFF"></path>
                        <path d="M8.29685258,4.52295159 L129.921711,4.52295159 C143.319117,4.52295159 155.974277,4.52295159 168.869934,9.18581743 C194.376532,18.1727834 194.898585,35.1805572 195.27986,47.5991256 L195.303323,48.3702924 L195.303323,76.5250623 C195.303323,86.7419001 195.303323,102.181844 174.315168,111.203329 C160.832935,117.156754 144.51122,117.422039 130.110769,117.655903 L128.057301,117.689569 L82.801126,117.689569 L82.801126,143.548344 L117.045457,143.548344 L117.045457,133.238141 L187.429211,133.238141 L187.429211,186.330146 L67.6760276,186.330146 C53.3355881,186.330146 33.6955209,186.330146 18.6580029,176.087274 C5.35354753,166.988134 4.94429768,156.716533 4.54880981,146.782936 L4.54614766,146.720093 L4.54826836,117.435954 C4.90621533,107.990732 5.35196828,96.227521 20.1619848,86.3881868 C34.0788711,76.9182766 51.0177088,76.6534405 65.9627733,76.4195767 L67.3335573,76.3989285 L117.045457,76.3989285 L117.045457,47.3028683 L82.801126,47.3028683 L82.801126,59.6024849 L8.29685258,59.6024849 L8.29685258,4.52295159 Z M129.921711,0 L3.75070493,0 L3.75070493,64.1253467 L87.3470931,64.1253467 L87.3470931,51.8257301 L112.499038,51.8257301 L112.499038,71.8765156 L67.2992651,71.8765156 L65.8928354,71.8976127 C50.3056953,72.1413517 32.6406309,72.4178585 17.6163335,82.6409805 C0.896433142,93.7492836 0.36008888,107.904997 0.00511138171,117.272564 L0,117.459296 L0.00634517751,146.966076 C0.405033718,156.972841 0.901017462,169.431359 16.0859105,179.816974 C32.2883241,190.852559 52.7417923,190.852559 67.6760276,190.852559 L191.97563,190.852559 L191.97563,128.715728 L112.499038,128.715728 L112.499038,139.025931 L87.3470931,139.025931 L87.3470931,122.211982 L128.094751,122.211982 L130.18522,122.177867 C145.018835,121.936821 161.83237,121.663457 176.138969,115.345994 C199.849741,105.154742 199.849741,86.5304801 199.849741,76.5250623 L199.848839,48.2661535 L199.823571,47.4604233 C199.450418,35.2985664 198.825489,14.9417381 170.40541,4.92904856 C156.774728,0 143.731074,0 129.921711,0 Z" id="path16" fill="#00674E"></path>
                        <path d="M184.301405,183.218995 L184.301405,136.350189 L120.17236,136.350189 L120.17236,146.659944 L79.6733201,146.659944 L79.6733201,114.578418 L128.046472,114.578418 C142.672078,114.327497 159.550137,114.327497 173.046358,108.359707 C192.175968,100.152033 192.175968,86.7221496 192.175968,76.5250623 L192.175968,48.4210152 C191.799657,36.4831917 191.799657,20.5647919 167.80056,12.1097874 C155.422895,7.63315973 143.04884,7.63315973 129.921711,7.63315973 L11.4246585,7.63315973 L11.4246585,56.4913341 L79.6733201,56.4913341 L79.6733201,44.1922562 L120.17236,44.1922562 L120.17236,79.510977 L67.2992651,79.510977 C51.924195,79.7578581 35.4230335,79.7578581 21.9232933,88.9584435 C8.80022539,97.664369 8.05062586,107.614126 7.67395356,117.560293 L7.67395356,146.659944 C8.05062586,156.111899 8.42341773,165.312485 20.4245906,173.520159 C34.3007775,182.971665 52.6736591,183.218995 67.6760276,183.218995 L184.301405,183.218995" id="path18" fill="#00674E"></path>
                    </g>
                </g>
            </g>
        </g>
    </g>
</svg>