<?xml version="1.0" encoding="UTF-8"?>
<svg width="200px" height="200px" viewBox="0 0 200 200" version="1.1" xmlns="http://www.w3.org/2000/svg" xmlns:xlink="http://www.w3.org/1999/xlink">
    <!-- Generator: Sketch 51.3 (57544) - http://www.bohemiancoding.com/sketch -->
    <title>smith</title>
    <desc>Created with Sketch.</desc>
    <defs></defs>
    <g id="smith" stroke="none" stroke-width="1" fill="none" fill-rule="evenodd">
        <g id="smith_BGL" fill="#00457C">
            <g id="Asset-2" transform="translate(28.000000, 1.000000)">
                <path d="M17.9417105,0 C19.0705526,0.178922884 20.1892021,0.800040897 21.2212136,1.2780206 C26.0444423,3.66874777 30.3137736,7.04825457 33.7531454,11.1980165 C40.1923873,18.9147049 44.0477783,28.9318304 45.5613951,38.8032615 C46.4328715,43.7466452 48.4051601,48.3756358 51.9318363,51.9975462 C54.5614571,54.7945185 57.8618908,56.8687162 61.5180761,58.0221353 C64.3491002,58.932086 67.4782609,59.3819492 70.4366937,58.9193058 C72.0344004,58.6637017 73.5633063,58.0911484 74.7329193,56.9307057 C76.1497054,55.522327 77.2658067,53.658973 77.2479694,51.6013598 C77.3830228,48.7462618 76.1038382,46.2490095 74.4016563,44.0559262 C71.3158146,40.1093986 67.5801879,36.5181607 64.0993789,32.9218107 C60.8784838,29.5401682 58.238573,25.6882141 56.5669693,21.3097155 C54.9259436,16.9312169 54.367893,12.2971142 54.5284281,7.64000716 C54.6176143,5.37279861 54.714445,3.07491757 55.1145087,0.838381515 C55.6598184,1.78156072 55.9630514,2.79630908 56.3554706,3.80594535 C58.9800924,10.2778417 62.657111,16.253866 67.7101449,21.1001201 C73.0613155,26.3911254 79.6661889,29.9951435 86.3577003,33.2719883 C92.3917821,36.3136774 98.3162924,38.9975206 103.47635,43.4961532 C107.084568,46.6400838 110.257047,50.7348618 111.375697,55.4712062 C112.178372,58.5998006 112.127409,61.8408609 112.904603,64.9541191 C113.393853,66.7637962 114.163402,68.670603 115.631151,69.9051709 C116.543399,70.7256601 117.802198,71.3161056 119.04316,70.9838203 C120.39879,70.6387547 121.377289,69.5268768 121.9914,68.3178693 C123.125338,66.0787772 123.23491,63.584081 122.946966,61.1302814 C122.353241,56.8386882 120.217869,52.6800092 117.565217,49.3009227 C116.836439,48.3321831 115.977703,47.5116939 115.307533,46.4892774 C115.958855,46.7373709 116.593045,47.0285473 117.205925,47.3608875 C123.094141,50.5962145 128.086008,55.2521014 131.73053,60.9079058 C134.128364,64.7189633 135.914636,68.7881809 136.25864,73.3353782 C136.360567,75.124607 136.136327,76.9138359 136.312152,78.7030647 C136.633222,82.0872632 137.841057,85.3027631 139.242555,88.3700125 C140.368849,90.816144 141.839146,92.8328605 142.733556,95.3710094 C143.684026,97.891266 143.854754,100.830713 142.93741,103.384199 C142.292722,105.291005 141.010989,106.944764 140.134416,108.792782 C139.018315,110.901516 138.335404,113.153388 137.721293,115.438489 C136.643415,115.458937 136.41153,114.311275 136.123587,113.493342 C135.649626,111.313038 136.633222,108.859239 137.112279,106.745393 C137.491957,104.86159 137.912406,102.837206 137.644848,100.925287 C137.39003,97.0758889 136.115942,93.4411983 134.194617,90.1183447 C133.237905,88.575645 132.100078,87.1536911 130.805542,85.8829844 C127.949036,83.1326841 124.608377,80.6200956 120.888039,79.1887125 C116.492435,77.6141911 111.653448,76.8371546 106.99793,77.3636991 C102.688963,77.8749073 98.4997611,79.6411318 94.9246695,82.0795951 C91.9789775,84.1244281 89.4333493,86.8312757 87.2113394,89.640365 C83.9598662,93.8143803 81.2893773,98.2542239 78.7310081,102.87299 C78.4022934,103.517113 77.9512661,103.849398 77.3295111,104.186795 C76.6965079,103.846957 76.1518773,103.362806 75.739449,102.773305 C74.4781016,100.940623 73.5658544,98.9622473 72.1057493,97.2266953 C70.9794553,95.8949978 69.4046823,94.5939729 67.6591814,94.2463513 C66.7622233,94.0572042 65.8601688,94.3613731 65.0804268,94.8010122 C62.787068,96.2860721 61.2581621,98.5839532 60.4937092,101.191115 C59.625038,103.623613 59.5793655,106.275404 60.3637522,108.736549 C62.1729575,114.699793 67.03233,119.924341 68.9434623,125.892697 C69.8888358,128.724791 70.166587,131.725583 69.3893932,134.634358 C68.9409142,136.507937 67.9827998,138.161695 67.5037426,140.022493 C67.2234432,141.04491 67.0578118,142.067326 66.8794394,143.102523 C65.2893773,142.737009 63.7528269,141.824502 62.310559,141.05769 C52.867017,135.822917 44.96767,127.566904 39.1221532,118.538967 C33.885355,110.352888 30.0035815,101.370754 27.6273292,91.9408021 C25.7111005,84.617744 22.5691989,77.5809626 17.7837235,71.6816195 C14.050645,67.0526289 9.32887402,63.2850242 3.85539099,60.9283542 C2.8361204,60.4963832 1.77607899,60.1487616 0.754260233,59.7142346 C5.23650263,58.9474222 9.95062908,59.2030264 14.3768116,60.2101066 C21.8123905,61.909874 28.2796624,66.313933 33.1237458,72.1570432 C34.4717312,73.823582 35.7942348,75.3904353 37.5397356,76.6684559 C39.1272496,77.8391228 40.9135213,78.7541855 42.8909062,79.0251259 C44.3663004,79.1963806 45.8442427,78.9203282 46.9832776,77.9209161 C48.1121198,76.8678271 48.6701704,75.3393145 48.8867654,73.8312502 C49.2231247,70.7640007 48.9377289,67.7299798 47.4317566,65.0001278 C45.9028508,62.1475858 43.3189998,60.2637835 40.4446568,58.9269739 C37.256888,57.4214656 33.9977703,56.8642487 30.6239847,55.9849705 C26.4449753,54.8066355 22.5258799,53.1503208 19.0985826,50.4306929 C16.1962096,48.0970273 13.9003026,44.9658768 12.7663641,41.3925312 C11.4209269,37.3769905 11.176302,32.9575953 11.7012263,28.7656877 C12.317885,30.02326 12.735786,31.3472893 13.444179,32.5639649 C14.4430642,34.3276334 15.8878802,36.0964139 17.7607899,36.9577998 C19.6999522,37.8805306 21.9754738,37.8294098 24.0063704,37.2466324 C25.7773531,36.7149758 27.4107342,35.856146 28.3866858,34.2126115 C29.6964485,31.9684073 30.1321867,29.1158653 30.1704093,26.5444879 C30.137283,21.6701173 29.1893614,16.5350305 26.9061953,12.1948726 C25.1071827,8.6164149 22.5539099,5.33445799 19.9267399,2.32344145 C19.2769549,1.54640493 18.512502,0.833269432 17.9417105,0 Z" id="Shape" fill-rule="nonzero"></path>
                <path d="M104.240803,93.8067122 C104.843455,94.051039 105.424033,94.3469271 105.976111,94.6911024 C108.172639,95.905222 110.471094,96.585129 112.856187,97.2752601 C115.440038,98.0190681 117.901577,98.8881221 120.184743,100.34251 C122.540712,101.841942 124.621571,103.737269 126.336041,105.945352 C128.341456,108.544846 129.990126,111.785906 130.206721,115.10876 C129.136487,114.623112 128.774646,113.659484 127.854754,112.869667 C126.844078,111.948053 125.559079,111.385759 124.198121,111.269586 C122.197802,110.939856 120.335085,111.4025 118.337315,111.502185 C116.599459,111.586535 114.785157,111.105999 113.521261,109.853539 C112.361841,108.708432 111.360408,107.404851 110.853321,105.832886 C110.402293,104.570202 110.269788,103.258953 109.935977,101.970708 C109.702185,100.910513 109.05289,99.9892976 108.134416,99.4146666 C107.092212,98.7909925 106.057652,98.4152545 105.20911,97.4925236 C104.327441,96.5007796 103.720975,95.1281855 104.240803,93.8067122 Z" id="Shape" fill-rule="nonzero"></path>
                <path d="M130.301003,129.931242 C131.850295,129.762544 132.907788,130.88209 134.416308,130.646934 C135.494187,130.498684 136.668896,130.24308 137.751871,130.544692 C138.959707,130.928099 139.996815,131.907062 140.73069,132.916699 C141.240325,133.622166 141.42889,134.542341 140.850454,135.270813 C139.72416,136.686859 137.695811,137.808961 135.889154,137.019145 C135.058449,136.763541 134.869884,135.628658 134.30164,135.020321 C133.190635,134.207499 131.740723,133.921223 130.624622,133.064949 C129.860169,132.484728 128.904603,131.61823 129.210384,130.537024 C129.465882,130.182295 129.865683,129.960227 130.301003,129.931242 Z" id="Shape" fill-rule="nonzero"></path>
                <path d="M132.87721,141.175268 C134.243032,141.267285 135.203695,141.957416 136.472687,142.348491 C137.048575,142.547862 137.769709,142.716561 138.223284,143.140863 C138.771142,143.618843 138.763497,144.533906 138.597866,145.185696 C138.271699,145.569103 137.85125,145.875828 137.519987,146.24901 C137.407867,147.054163 137.909858,147.884876 137.807931,148.725813 C137.625328,150.273223 137.028303,151.742128 136.080268,152.97651 C135.647078,153.487718 135.13999,154.108836 134.401019,154.042379 C132.940914,154.042379 131.455327,153.165657 130.323937,152.301715 C129.745501,151.836516 129.521261,151.445441 129.686893,150.683741 C130.555821,149.939933 131.980252,149.901592 132.999522,149.40572 C133.651855,149.10922 134.337315,148.518774 134.164039,147.718733 C133.909221,147.026046 133.116738,146.604299 132.492435,146.310355 C130.229654,145.318611 127.6509,145.201033 125.207199,145.287938 C123.110049,145.346727 121.216754,145.886052 119.157828,145.799146 C119.341296,145.287938 119.440675,144.792066 119.922281,144.449557 C121.402771,143.263553 123.377608,142.56831 125.186813,142.059658 C127.666189,141.389975 130.311196,140.975897 132.87721,141.175268 Z" id="Shape" fill-rule="nonzero"></path>
                <path d="M97.3123109,158.45155 C101.990325,161.453884 106.87178,164.124636 111.921007,166.444291 C115.998089,168.195179 120.011467,169.779925 124.445294,170.298801 C126.89664,170.472612 129.376015,170.505841 131.506291,169.097462 C132.54085,168.445671 133.065775,167.51016 133.79965,166.574649 C133.983726,168.834978 133.082709,171.047956 131.373786,172.532781 C128.86638,174.869003 125.044115,175.753393 121.731486,176.060118 C120.212111,176.19379 118.747201,176.69266 117.460742,177.514506 C115.54961,178.718401 114.313744,180.671216 113.597707,182.77995 C112.323618,186.445313 112.303233,190.660225 112.677815,194.486619 C112.800127,195.987015 113.133939,197.451627 113.225673,198.952023 C109.184265,195.749303 105.813028,191.16121 104.625577,186.077244 C103.677656,182.355648 103.537506,178.746517 102.989648,174.930348 C102.480013,171.162743 101.628922,167.476932 100.06689,163.993048 C99.307533,162.053012 98.2169135,160.312348 97.3123109,158.45155 Z" id="Shape" fill-rule="nonzero"></path>
            </g>
        </g>
    </g>
</svg>