<?xml version="1.0" encoding="UTF-8"?>
<svg width="200px" height="200px" viewBox="0 0 200 200" version="1.1" xmlns="http://www.w3.org/2000/svg" xmlns:xlink="http://www.w3.org/1999/xlink">
    <!-- Generator: Sketch 51.3 (57544) - http://www.bohemiancoding.com/sketch -->
    <title>southern-vt</title>
    <desc>Created with Sketch.</desc>
    <defs></defs>
    <g id="southern-vt" stroke="none" stroke-width="1" fill="none" fill-rule="evenodd">
        <g id="southern-vt_BGL" fill="#FAB63D">
            <g id="southern-vt" transform="translate(25.000000, 13.000000)">
                <g id="g10" transform="translate(75.333331, 87.573339) scale(-1, 1) rotate(-180.000000) translate(-75.333331, -87.573339) translate(0.000000, 0.240008)" fill-rule="nonzero">
                    <g id="g12">
                        <path d="M62.7958651,166.094663 L54.6811986,156.038663 L51.5051987,158.155996 C51.5051987,158.155996 53.093732,162.037329 48.6822654,165.387996 C44.2723989,168.739996 34.9218658,170.153329 29.1005326,168.682662 C23.2786661,167.211996 21.9843995,163.330663 22.2202661,159.685329 C22.4557328,156.038663 23.2786661,151.570663 39.1562657,145.747996 C55.0322653,139.926663 62.2073318,136.10533 65.677065,129.28333 C69.1458649,122.461464 67.7343983,118.816664 67.5587983,117.404664 C67.3817316,115.993197 65.975465,114.253597 65.975465,114.253597 L77.7155981,114.253597 L77.7155981,108.793731 C77.7155981,108.793731 73.6197315,109.270797 71.6406649,107.565064 C69.6614649,105.859331 70.0702649,103.060397 71.2994649,99.9213308 C72.5270649,96.7817309 84.1983979,66.7535983 84.1983979,66.7535983 L99.1453309,101.901597 C99.1453309,101.901597 100.987464,105.177597 99.0759975,107.225064 C97.1661309,109.272931 90.6139977,108.521331 90.6139977,108.521331 L90.6139977,114.11773 L116.40933,114.11773 L116.40933,108.453597 C116.40933,108.453597 112.861464,108.930664 109.721864,107.429731 C106.582797,105.928664 105.353597,101.560397 99.8259975,89.0026644 C94.297331,76.4442648 84.4015979,53.3759987 84.4015979,53.3759987 L66.3843983,99.7843975 C66.3843983,99.7843975 64.1989317,106.678664 59.6953318,107.770264 C55.190132,108.861997 40.517199,108.452664 40.517199,108.452664 L40.517199,114.185464 L45.6354655,114.185464 C45.6354655,114.185464 44.6473322,116.292664 41.0729323,117.29733 C37.4999991,118.30213 23.2073328,120.53493 16.5639996,126.06253 C9.91926642,131.59013 7.42083981,135.735997 6.90259983,143.36133 C6.38437317,150.98533 9.59895976,156.950663 9.59895976,156.950663 C9.59895976,156.950663 9.65103976,143.931996 18.6759995,137.551997 C27.7005326,131.172397 42.4827989,129.253597 45.3869322,124.067197 C48.2917321,118.880264 46.2890655,114.17133 46.2890655,114.17133 L55.9363986,114.17133 C55.9363986,114.17133 57.5754652,117.739064 55.9677319,121.99213 C54.359332,126.24533 46.6317322,130.653063 36.4661324,134.854663 C26.299466,139.055997 16.5494663,142.115996 13.281253,151.970663 C10.0145864,161.826663 14.940133,170.227996 25.625066,172.873329 C36.3098658,175.518662 44.1937322,172.510662 49.1207988,170.331996 C54.0483986,168.153329 56.0702653,166.909329 57.8869319,167.686662 C59.7021318,168.463996 59.7021318,168.463996 59.7021318,168.463996 L62.7958651,166.094663" id="path14"></path>
                        <path d="M81.572398,47.0765322 L79.7661313,42.9781323 L74.7311981,42.9781323 L53.0546653,96.8770642 C53.0546653,96.8770642 48.5625321,92.979731 42.3750656,93.007331 C36.1885324,93.0343977 30.0546659,97.4322642 24.2213327,98.7655975 C18.3879995,100.098931 13.6666663,99.7103975 6.83333316,96.3770643 C7.57912233e-15,93.043731 7.57912233e-15,93.043731 7.57912233e-15,93.043731 C7.57912233e-15,93.043731 7.49895981,104.320797 16.2770663,106.265597 C25.054666,108.210397 32.0562659,105.432797 36.6666658,103.710397 C41.2770656,101.987464 43.6666656,102.543731 47.6666655,103.765597 C51.6666654,104.987464 57.3333319,103.710397 60.5546652,98.5437309 C63.7770651,93.3770643 81.572398,47.0765322 81.572398,47.0765322" id="path16"></path>
                        <path d="M137.834663,62.5530651 L145.923996,74.0349315 L141.902663,76.8947981 C141.902663,76.8947981 141.030663,74.9073315 138.026663,75.3437314 C135.023997,75.7797314 134.39333,76.9906647 132.989063,78.1057314 C131.583863,79.2197314 128.580263,82.6109313 120.00573,81.5458646 C111.430264,80.479198 105.388531,72.0426649 102.805197,57.9593319 C100.221864,43.8759989 102.055197,26.542666 108.555197,14.0426663 C115.055197,1.54270663 122.471864,-1.62395996 128.805197,0.709374649 C135.138663,3.04270659 135.222663,7.20937315 139.222663,8.1265598 C143.222663,9.04270644 145.138663,6.7932265 145.138663,6.7932265 L149.555996,8.70937312 L143.055996,23.8759994 L138.555997,21.7093328 C138.555997,21.7093328 139.055997,14.626533 132.555197,11.959893 C126.055197,9.29322643 116.221864,7.70937314 110.471864,20.5426662 C104.721864,33.3759992 105.305197,48.9593321 107.055197,58.2093319 C108.805197,67.4593316 114.88853,75.4593314 123.971864,75.1259981 C133.055197,74.7926648 133.971997,69.6259983 134.138663,68.3759983 C134.30533,67.1259983 134.138663,65.1259984 134.138663,65.1259984 L137.834663,62.5530651" id="path18"></path>
                        <path d="M107.395331,77.5311981 C107.395331,77.5311981 95.7661309,72.9958648 89.9526644,57.5297319 C84.1385312,42.0635989 88.3250645,26.1333327 93.2078643,17.1786662 C98.0917309,8.22395979 107.279197,4.38645322 107.279197,4.38645322 C107.279197,4.38645322 96.8130642,16.9453329 95.4187976,39.7385323 C94.021331,62.5297318 107.395331,77.5311981 107.395331,77.5311981" id="path20"></path>
                    </g>
                </g>
            </g>
        </g>
    </g>
</svg>