<?xml version="1.0" encoding="UTF-8"?>
<svg width="200px" height="200px" viewBox="0 0 200 200" version="1.1" xmlns="http://www.w3.org/2000/svg" xmlns:xlink="http://www.w3.org/1999/xlink">
    <!-- Generator: Sketch 51.3 (57544) - http://www.bohemiancoding.com/sketch -->
    <title>southern-ark</title>
    <desc>Created with Sketch.</desc>
    <defs></defs>
    <g id="southern-ark" stroke="none" stroke-width="1" fill="none" fill-rule="evenodd">
        <g id="southern-ark_BGL" transform="translate(4.761905, 0.000000)">
            <g id="Group-57">
                <path d="M80.1447619,134.718801 C80.1447619,134.718801 82.6054428,133.063539 82.3906215,131.434343 L81.4532192,132.001303 C79.8062555,133.93027 77.5994544,135.572499 76.5839353,139.221896 L77.3325552,139.59987 C77.9509803,138.635386 79.4872784,136.732486 80.1447619,134.718801" id="Fill-1" fill="#FFFFFF"></path>
                <path d="M85.9709773,5.52231997 C84.2458967,6.34995112 84.4086402,8.22678397 84.4086402,8.22678397 C86.2964642,7.64679049 85.9709773,5.52231997 85.9709773,5.52231997" id="Fill-3" fill="#FFFFFF"></path>
                <path d="M129.129888,120.087977 C129.129888,118.347996 127.821431,116.184425 127.821431,113.98827 L126.695246,112.580645 C125.634159,114.17074 125.666708,115.773868 125.666708,115.773868 C126.903558,117.396546 128.296642,120.107527 128.296642,120.107527 L129.129888,120.087977 Z" id="Fill-5" fill="#FFFFFF"></path>
                <path d="M88.857395,87.9270121 L89.8859336,87.2688172 C90.322086,85.0140111 91.6696018,81.182144 91.6696018,80.3349625 C91.6696018,79.4812643 90.1072647,78.2821766 89.3391156,78.2821766 C88.5774763,78.2821766 86.9435321,78.9990225 85.3877048,78.6471163 L84.8278673,79.487781 C85.2965684,81.4558488 85.5244093,83.4695341 86.0451883,84.2710981 C88.9875898,84.3101988 88.857395,87.9270121 88.857395,87.9270121" id="Fill-7" fill="#FFFFFF"></path>
                <path d="M187.390089,106.439883 C187.390089,106.902574 187.37056,108.088628 186.407118,108.088628 C184.994505,108.088628 186.231355,107.332682 183.106681,107.332682 C181.192818,107.332682 183.510285,111.601173 180.789215,111.601173 C177.462739,111.601173 180.105692,106.257413 178.120222,106.257413 C174.845824,106.257413 175.45123,101.597915 175.45123,100.20984 C175.45123,98.111437 172.352594,100.157706 172.352594,96.7494298 C172.352594,88.8771587 169.742189,85.71652 164.964042,85.71652 C164.469302,85.71652 163.955033,85.7882046 163.440763,85.8924731 C163.863896,84.1590094 164.27401,82.4255458 164.651574,80.7051157 C165.126785,80.6790486 165.608506,80.6594982 166.116266,80.6594982 C176.850823,80.6594982 183.510285,97.6552623 188.09314,104.289345 C188.09314,105.247312 187.390089,105.384164 187.390089,106.439883 Z M75.9303576,184.237211 C73.2613651,184.237211 70.7420966,183.99609 68.3400033,183.546432 C69.1992887,180.868035 70.6509603,176.54741 72.2132973,172.722059 C74.2703745,173.093516 76.4641561,173.302053 78.8337007,173.302053 C115.958736,173.302053 149.770314,120.02737 149.770314,61.52623 C149.770314,57.7204301 149.301613,53.7647442 148.579032,49.9263604 C148.86546,49.255132 149.099811,48.4666015 149.262554,47.5281851 C150.076271,46.8113392 151.749274,45.0452916 151.749274,42.6601499 C151.749274,39.714565 149.529454,39.7666993 149.529454,38.821766 C149.529454,38.5089606 149.431807,38.2157054 149.243025,37.961551 C147.706727,35.9348322 145.193968,33.9993483 144.1459,33.2303682 C143.748806,30.3629847 143.182459,27.7236885 142.485917,25.390681 L181.427169,6.10752688 L178.185319,37.1730205 L167.711151,42.3343109 C167.711151,95.0746171 135.696261,184.237211 75.9303576,184.237211 Z M156.904986,117.792115 C156.904986,119.864451 153.226985,122.666667 149.770314,125.13001 C151.742764,120.907136 153.558981,116.593027 155.231984,112.233301 C155.961074,114.26002 156.904986,116.104268 156.904986,117.792115 Z M145.428319,135.094167 C145.428319,136.319322 144.354212,137.550994 142.577054,138.906484 C143.481907,137.362007 144.354212,135.791463 145.213497,134.201369 C145.337182,134.442489 145.428319,134.716194 145.428319,135.094167 Z M73.5347741,169.691756 C77.8116719,166.589769 79.1266389,163.42913 82.850209,155.002933 C85.8446884,151.581623 89.2167325,144.74552 90.570758,141.109156 C101.767507,141.513196 115.769953,132.148583 121.837029,122.907788 C122.507532,124.523949 125.03982,127.541219 125.03982,128.212447 C125.03982,130.343434 112.834061,132.754643 112.36536,138.730531 C112.085442,141.154774 108.89567,145.188661 108.89567,148.877159 C108.89567,149.652656 109.527115,150.278267 110.308283,150.278267 C111.115491,150.278267 111.707877,150.128381 111.707877,150.128381 C110.829062,151.314435 109.89817,152.826328 109.084452,154.618442 L106.350363,156.76898 C106.148561,156.918866 105.998837,157.127403 105.9077,157.35549 L104.501597,160.926686 C104.4365,161.089606 104.397441,161.265559 104.397441,161.434995 L104.501597,162.438579 C104.521126,162.614532 104.67085,162.725318 104.755477,162.88172 C104.68387,162.953405 104.618772,163.02509 104.560185,163.109808 C96.4685805,168.727273 87.7520415,171.887911 78.8337007,171.887911 C76.6724678,171.887911 74.6609588,171.705442 72.7731348,171.379602 C73.0270146,170.799609 73.2808943,170.232649 73.5347741,169.691756 Z M124.108927,142.014989 C122.416395,142.588465 120.502533,143.494298 119.506543,144.002607 C119.532582,142.738351 119.727874,142.575432 121.32276,141.7087 L122.904626,140.815901 C123.256152,140.613881 123.399366,140.346693 123.594658,139.968719 C124.427904,138.385142 124.714333,137.837732 127.930143,137.257739 C127.194543,138.456826 126.439413,139.636364 125.671264,140.789834 C124.955193,141.317693 124.356297,141.806452 124.108927,142.014989 Z M77.3299513,112.304985 C77.3299513,112.995764 77.1086202,114.983382 74.3745303,114.983382 C71.6339307,114.983382 72.7405861,112.585207 72.7405861,112.585207 L77.3299513,112.304985 Z M88.9954015,115.009449 C88.9954015,116.241121 88.9693625,117.003584 87.1791846,117.140437 C84.6924648,117.322906 85.6689254,118.965135 84.0740397,118.965135 C83.4751438,118.965135 80.142158,117.955034 80.142158,115.120235 C80.142158,114.598892 81.08607,113.432388 83.4230659,113.432388 C84.0284715,113.432388 85.1025782,113.790811 86.3524479,113.790811 C87.6088273,113.790811 88.9954015,113.771261 88.9954015,115.009449 Z M80.6238786,63.7875529 C84.8747374,55.8044966 85.753552,52.3831867 87.2833404,44.5630499 L87.9603531,44.4457478 C89.8937453,47.4825676 90.8832254,51.7054415 92.6213254,54.6119257 C92.7970884,54.9116976 93.0900266,55.1202346 93.4220232,55.2245031 L94.6133052,55.5764093 C95.0689869,55.7067449 95.5637269,55.6024764 95.9217625,55.2961877 L97.4385314,54.0188987 L98.4475408,54.5597915 L98.2522487,54.9442815 C98.1090344,55.1723688 98.0374273,55.4330401 98.0374273,55.7002281 C98.0374273,55.9608993 98.1546026,56.3714565 98.3694239,57.218638 C97.6077846,57.8703161 96.8331258,59.597263 96.2016812,61.4545455 C92.8817149,61.8194852 87.2052236,64.6412512 78.5472722,70.2196155 C79.3870284,69.1182796 80.2332943,68.036494 81.0144629,67.0524601 C81.1576771,66.876507 81.2488134,66.6614532 81.2943816,66.4333659 L81.5222224,65.1104594 C81.5222224,64.5630499 81.1186187,64.054741 80.6238786,63.7875529 Z M66.4912378,93.9537309 C68.6264318,93.9537309 71.0610737,89.9784946 72.1612194,87.0394265 C72.4606674,89.2095145 73.189758,92.2528511 73.189758,92.2528511 C71.8227131,93.1130661 71.5688333,94.2535028 71.5688333,94.2535028 C70.8006842,94.0514826 69.9609281,93.8755295 69.0951329,93.8755295 C63.3535442,93.8755295 57.7942281,97.3163897 53.6084666,100.288042 L65.469209,88.1733464 C65.046076,89.1508635 64.5122775,90.5193874 64.5122775,91.4317367 C64.5122775,93.1652004 65.5408161,93.9537309 66.4912378,93.9537309 Z M59.2654288,182.236559 C57.5924262,185.038775 56.0431086,187.156729 54.7672,189.124796 L55.01457,185.827305 C55.1057063,185.631802 56.1016962,183.481264 57.1627835,181.193874 C57.8528157,181.565331 58.5493576,181.917237 59.2654288,182.236559 Z M64.6099236,168.642555 C64.9614494,167.906158 65.2999558,167.130661 65.5863842,166.309547 L65.6970498,166.218312 L65.1372123,168.903226 C64.9614494,168.811991 64.7791767,168.73379 64.6099236,168.642555 Z M64.8247449,170.376018 L64.8247449,170.389052 C63.2103299,174.826979 61.5633663,178.215705 60.0075389,180.972304 C59.2458996,180.626914 58.5037895,180.255458 57.7812086,179.870968 C58.7771985,177.713913 59.682052,175.765396 59.7731884,175.576409 C60.3655745,174.976865 62.2664179,172.92408 63.9329108,169.932877 C64.225849,170.095797 64.525297,170.232649 64.8247449,170.376018 Z M66.1917899,185.729554 L65.0590955,187.039427 C62.6309633,187.867058 61.8042266,189.535354 61.8042266,190.532421 C61.8042266,191.522972 62.7220996,193.139133 62.7220996,193.139133 C63.0085281,194.937765 62.5333172,197.075269 62.5333172,197.075269 L52.0200906,197.075269 L53.2634505,193.699576 C54.0055606,191.666341 55.5093101,192.285435 55.5093101,192.285435 L55.9780112,191.913978 L55.5093101,190.975562 L55.9780112,189.848159 C58.1652831,186.166178 61.7977168,182.627566 66.1787704,170.786575 L67.4026011,164.908439 L67.3114648,162.933855 L64.4081217,165.475399 C62.5919048,170.936461 58.6014355,174.755295 58.6014355,174.755295 L53.6345056,185.449332 L53.3610966,188.258065 L52.7947494,189.848159 L51.2975097,191.62724 L50.1713251,192.285435 L49.4227052,193.223851 L49.1427865,194.540241 L47.8278194,197.635712 L40.0031146,197.635712 L41.7412146,193.139133 C41.7412146,193.139133 42.7437142,192.024764 44.735694,191.353535 C44.735694,191.353535 45.7056449,189.893776 47.267982,188.629521 L47.1768457,187.410883 C47.1768457,187.410883 52.8728663,179.121538 56.0626378,165.69697 C55.7436606,165.872923 55.3335472,166.016292 54.864846,166.016292 C50.470773,166.016292 47.3330794,164.17856 45.5819599,161.252525 C40.6150299,160.750733 39.0136344,156.110785 35.7262168,152.845878 C27.9666093,145.13001 29.3271445,138.033236 24.4318217,137.199088 C20.1874726,136.469208 8.91911644,135.224503 6.66023742,135.224503 C4.40135839,135.224503 1.4784861,135.79798 1.4784861,134.716194 C1.4784861,133.627892 4.57712131,132.630824 7.54556176,131.777126 C10.7483528,130.864777 18.1499247,129.196481 18.1499247,128.349299 C18.1499247,127.61942 13.7102835,120.97882 12.2390827,119.655914 C10.767882,118.333007 7.53905202,115.661127 7.53905202,114.86608 C7.53905202,114.071033 9.42036625,114.553275 10.5856093,115.654611 C13.176485,118.098403 22.2315303,120.646465 26.534467,125.69697 C27.8299048,122.770935 26.261058,112.298469 42.6070097,106.394265 L63.0540962,85.4428152 L64.102164,85.5861844 L63.7506382,87.9061584 L46.8839075,105.14956 C46.8839075,105.14956 47.0466509,105.625285 47.8798973,105.625285 C50.2559516,105.625285 59.6429936,95.2831541 69.0951329,95.2831541 C71.1912685,95.2831541 73.4501475,96.4105572 73.4501475,96.4105572 C73.4501475,96.4105572 72.818703,95.582926 72.818703,94.8660802 C72.818703,94.1492343 73.8667707,93.1195829 74.8757801,93.1195829 C75.8847895,93.1195829 78.5928404,94.7943956 79.5562816,94.7943956 L76.11914,91.6337569 L75.201267,91.8422939 L74.4982153,91.6337569 C74.4982153,91.6337569 73.4501475,87.5216683 73.4501475,85.6513522 C73.4501475,79.7015314 73.5673228,75.1267514 78.5733112,71.868361 C83.5792996,68.6230042 93.4545719,62.4320626 97.2627685,62.8035191 C97.2627685,62.8035191 98.043937,59.7797328 99.3003164,58.228739 L100.843124,58.5806452 L106.324324,63.9244053 L106.181109,63.012056 C106.181109,63.012056 104.137052,59.2518736 99.7950565,57.1013359 L99.4370209,55.7002281 C99.4370209,55.7002281 101.012377,53.236885 98.9487906,53.236885 L97.2627685,52.3180189 L95.016909,54.2209189 L93.8191172,53.8690127 C91.9508224,50.8778104 90.870206,45.6448355 88.832658,43.1814923 C88.832658,43.1814923 87.8627071,42.7318345 86.0920584,43.3900293 C84.6013284,49.1964809 85.2653217,52.435321 78.9964442,63.8527208 C78.9964442,63.8527208 79.2763629,64.8172043 80.1226288,65.0518084 L79.9078075,66.1726947 C76.8807794,69.9850114 72.5778427,75.7588791 71.5493041,77.6422287 L70.5012363,81.6435321 C70.5012363,83.2140762 71.3540119,84.1003584 71.3540119,84.5956338 C71.3540119,86.4920169 68.0665943,92.5461062 66.4912378,92.5461062 C66.1657509,92.5461062 65.9248906,92.0834148 65.9248906,91.4317367 C65.9248906,89.9002933 67.4026011,88.0039101 67.4026011,86.6419029 C67.4026011,86.6419029 64.9484299,87.3066145 64.9484299,82.2756598 C64.9484299,81.3633105 67.4351498,78.111437 68.3920812,75.6676442 C68.3920812,75.6676442 68.8347434,67.1893125 69.7265775,63.4356468 C69.7265775,63.4356468 70.0911228,63.0772239 70.3580221,63.0772239 C71.6078917,63.0772239 74.0360239,65.6122515 74.7130367,65.6122515 L74.9929554,65.0518084 C73.3004236,63.8136201 72.3239629,63.1880091 72.3239629,61.9563376 L72.3239629,57.8768328 C72.3239629,57.8768328 75.0580528,52.6503747 75.4876955,47.0003258 C75.9173382,41.350277 75.7871434,37.3945911 78.5733112,34.246986 C78.5733112,34.246986 78.0785711,32.9371131 75.9043187,33.2629521 L75.4160884,35.9348322 C75.4160884,35.9348322 73.4761865,36.6321277 72.7080374,36.6321277 L71.972437,37.0622353 C71.972437,37.0622353 69.8893209,36.4235907 69.3750516,37.5509938 C68.3465131,37.5509938 67.3179745,35.6546106 65.020037,35.6546106 C64.7401183,35.6546106 64.1672614,35.0941675 63.9654595,35.0941675 C63.3470344,35.0941675 62.5007685,36.3584229 62.0646161,36.3584229 C61.6545026,36.3584229 61.3615644,35.9283154 61.3615644,35.582926 C61.3615644,35.2440534 61.5894052,34.5337243 61.296467,34.5337243 C61.0035288,34.5337243 60.625964,35.1658521 60.1247142,35.1658521 C59.6299741,35.1658521 58.9790003,34.0058651 58.9790003,32.9827305 C58.9790003,32.4874552 59.7471494,31.6467905 59.7471494,31.6467905 L59.7471494,29.3268166 C60.3916134,28.4079505 61.4136423,20.3206256 67.9689483,20.3206256 C76.1321595,20.3206256 79.3089116,26.4398827 80.4025475,26.4398827 C81.5743003,26.4398827 83.8201599,23.4095797 87.244282,22.894754 C90.6749138,22.3799283 97.399473,21.3046595 98.0374273,20.8810688 C98.0374273,20.8810688 103.004357,13.0413816 108.544144,13.0413816 C110.959257,13.0413816 115.10596,14.2274356 116.297242,14.2274356 C116.297242,14.2274356 116.629239,13.1977843 117.514563,13.1977843 C118.406397,13.1977843 120.704334,14.2274356 120.704334,14.2274356 L121.915146,15.257087 C121.915146,15.257087 122.221103,14.9768654 122.572629,14.9768654 C123.353798,14.9768654 127.227092,16.6451613 128.00826,16.9449332 C129.25813,17.427175 129.694282,18.6392962 129.694282,19.0107527 C129.694282,19.3822092 129.570597,23.370479 127.845517,23.370479 C126.53055,23.370479 123.510031,22.5754317 120.137987,22.5754317 C119.220114,22.5754317 119.467484,22.8491365 117.82703,22.8491365 C116.752924,22.8491365 118.308751,21.0700554 113.250685,21.0700554 C106.037895,21.0700554 108.38791,26.016292 104.970298,27.2609971 C104.970298,29.7829912 110.210637,31.4252199 110.210637,39.5451287 C110.210637,39.5451287 109.6508,40.666015 109.6508,41.5131965 C111.226156,41.8911698 112.541123,45.273379 113.426448,46.1270772 C114.324791,46.9742587 117.983264,51.2297165 117.983264,55.4330401 C117.983264,60.2228739 114.233655,68.420984 114.233655,68.420984 C114.233655,68.420984 112.847081,70.0892799 109.839582,67.769306 L109.6508,68.7989573 C111.427958,70.649723 114.10346,70.2261323 114.10346,71.5751059 C114.10346,72.4418377 112.990295,73.0153144 112.313282,75.6024764 C111.62976,78.1831215 110.243186,85.0843923 109.839582,88.303682 C109.839582,88.303682 108.439988,92.0899316 108.023365,93.2043011 C107.606742,94.3251874 99.3003164,110.832193 97.1911614,113.334637 L94.7565194,114.931248 L80.7996415,111.653307 C80.7996415,111.653307 81.0795603,110.037146 80.4285865,108.929293 C80.4285865,108.929293 81.756573,105.664386 80.0510217,106.12056 C80.0510217,106.12056 79.8296906,106.713587 80.2072554,106.961225 C80.2072554,106.961225 78.950876,109.620072 78.3649996,110.147931 C77.7791232,110.67579 74.5437835,111.679374 71.7120475,111.927012 C71.7120475,111.927012 70.8788011,114.27957 73.0009756,115.420007 C76.0735719,117.062235 80.5913299,117.896383 81.0990895,119.330075 C81.0990895,119.330075 81.9388457,120.55523 84.4516045,120.55523 C86.9578535,120.55523 89.3339078,116.338873 95.0364382,116.338873 C96.4881097,116.338873 97.523158,116.280222 98.1285636,115.869664 C99.1961606,115.152819 99.0659659,111.04073 100.45254,111.04073 C101.103514,111.04073 101.604764,111.42522 101.604764,112.089932 C101.604764,113.393288 100.127053,117.622678 100.127053,118.326491 C100.127053,119.134572 101.591744,119.160639 101.591744,121.12219 C101.591744,125.644835 98.2197,132.572173 98.2197,134.618442 L100.569715,134.435973 L101.031907,132.181167 L103.095494,129.183447 L104.215169,120.366243 C106.545655,116.293255 112.63226,110.532421 115.926187,103.018573 C115.926187,103.018573 120.261672,99.7275986 123.418895,97.2121212 L123.418895,96.1759531 L120.55461,96.7168459 L118.478004,99.1345715 L106.884161,104.569567 L105.764486,103.865754 C105.764486,103.865754 108.824063,98.2939068 113.068412,94.5858586 C120.31375,92.5852069 119.838539,87.1176279 123.04133,76.7233627 C123.04133,76.7233627 125.54107,74.8074291 133.899573,74.8074291 C138.488938,74.8074291 143.338693,75.850114 147.504925,77.6878462 C145.220007,99.2453568 138.488938,119.388726 129.00425,135.478658 C128.789429,135.569892 128.581117,135.661127 128.385825,135.752362 C123.614187,136.521342 123.30823,137.49886 122.201574,139.597263 C118.484514,141.747801 118.08091,141.369827 118.08091,144.471815 C118.08091,145.53405 118.673296,145.592701 119.487013,145.592701 C119.487013,145.592701 121.648246,144.445748 123.698814,143.650701 C118.3413,151.138482 112.326302,157.420658 105.888171,162.151841 L105.810054,161.434995 L107.216158,157.876833 L110.210637,155.530792 C112.345831,150.538938 115.639758,147.938742 115.639758,147.938742 L114.800002,147.840991 L110.959257,148.877159 L110.308283,148.877159 C110.308283,145.475399 113.426448,141.91072 113.764954,138.893451 C114.389889,133.321603 126.445923,132.148583 126.445923,128.20593 C126.445923,126.426849 122.80698,123.44868 122.572629,120.55523 L121.915146,120.001303 C116.785472,130.004562 100.94728,140.731183 89.6008071,139.636364 C88.6308561,142.731834 84.8161498,150.734441 81.6589269,154.246986 C79.4065576,158.117954 78.2152756,165.103943 72.369531,168.844575 C69.3034445,175.257087 66.1917899,185.729554 66.1917899,185.729554 Z M39.3911992,159.408276 C40.7712636,160.828935 42.3921884,161.988921 44.7812621,162.484197 C46.8123003,165.462366 50.0866985,167.163245 54.1552846,167.352232 C53.3415674,170.395569 52.4106749,173.139133 51.4797824,175.543825 C46.5323816,171.333985 42.5549318,165.794721 39.3911992,159.408276 Z M28.2855865,99.0237862 L16.3727663,98.8608667 L13.3652674,73.0087977 L48.582949,71.0993809 C48.0296213,74.5076572 45.9334857,87.9582926 45.0937296,101.832519 L41.7867827,105.221245 C40.4327573,105.723037 39.2024168,106.257413 38.0762322,106.817856 C37.8679206,104.78462 36.7352262,103.24666 35.4528078,103.298794 C34.0662337,103.344412 33.0116561,105.208211 33.1027925,107.443467 C33.1288314,108.225481 33.2980846,108.95536 33.5584741,109.561421 C31.4428093,111.158032 29.9325501,112.839361 28.8258947,114.507657 C28.4548397,109.268166 28.2855865,104.067775 28.2855865,99.0237862 Z M82.674446,14.3773216 C82.674446,8.47311828 81.9583749,2.91430433 87.9473337,1.50016292 C87.9473337,1.50016292 89.3273981,1.34376018 89.3273981,3.35092864 C89.3273981,5.35158032 89.3404176,12.4744216 86.6779348,15.3352884 C84.0089423,18.1961551 84.8161498,22.2365591 82.3229202,22.2365591 C81.1576771,22.2365591 82.674446,15.8175301 82.674446,14.3773216 Z M90.2387614,15.4200065 L93.675903,9.49625285 C93.675903,9.49625285 95.23824,4.9866406 98.0374273,3.37699576 C98.0374273,3.37699576 98.8055764,3.01205604 98.8055764,4.42619746 C98.8055764,5.85337243 97.2302198,10.7148908 95.785058,14.2730531 C94.346406,17.8312154 93.3113576,17.0166178 91.7945887,18.1505376 C90.2843296,19.2844575 87.5958078,21.7999348 86.1636655,21.7999348 C85.7340228,21.7999348 86.6323666,17.7725644 90.2387614,15.4200065 Z M121.348798,77.9094167 C121.348798,86.133594 113.61523,90.8126426 111.082942,93.0022809 C110.197618,93.0022809 109.767975,92.6308244 109.767975,91.9986966 C109.767975,91.3665689 112.996805,85.3646139 113.224646,78.6262626 C113.257194,77.5053763 116.427437,73.7060932 117.742404,73.7060932 C119.06388,73.7060932 121.348798,75.1463017 121.348798,77.9094167 Z M129.166994,28.9814272 C129.166994,29.848159 127.207563,31.4187032 125.443424,32.2789182 C125.176524,32.4092538 124.955193,32.6243076 124.818489,32.8914956 C124.759901,33.0087977 123.321249,35.7849462 123.321249,39.1671554 C123.321249,44.8172043 129.049818,44.3936136 131.927122,44.0938416 C134.049297,45.8533724 136.360254,53.6278918 143.16293,53.6278918 C144.373741,53.6278918 146.111841,53.2890192 147.459357,51.7445422 C148.019194,55.0224829 148.36421,58.3395243 148.36421,61.52623 C148.36421,66.4789834 148.11684,71.392636 147.648139,76.2346041 C143.488417,74.4424894 138.664701,73.3932877 133.899573,73.3932877 C125.827498,73.3932877 122.852548,75.1463017 122.266671,75.5438254 C121.348798,73.4389052 119.285212,72.2984686 117.742404,72.2984686 C116.707355,72.2984686 115.34682,73.3020528 114.188087,74.5402411 C114.5982,73.5562072 115.516073,72.8393614 115.516073,71.5751059 C115.516073,70.7474747 115.138509,70.2130987 114.650278,69.8286087 C115.223135,69.4897361 115.392388,69.2877159 115.516073,69.0074943 C115.678817,68.6621049 119.389367,60.4705116 119.389367,55.4330401 C119.389367,50.8843271 115.691836,46.3356142 114.402908,45.1039427 C113.452486,43.7810362 112.202617,41.4284783 111.226156,40.7963506 C111.356351,40.3923102 111.61674,40.0143369 111.61674,39.5451287 C111.61674,33.6539589 108.928219,30.4346693 106.682359,27.9061584 C109.63778,25.4623656 107.756466,22.4841968 113.250685,22.4841968 C117.488524,22.4841968 115.555132,24.2567612 117.82703,24.2567612 C118.562631,24.2567612 119.369838,23.9830564 120.137987,23.9830564 C122.461964,23.9830564 127.207563,24.7781036 127.845517,24.7781036 C128.366296,24.7781036 128.802448,24.6282177 129.166994,24.3936136 L129.166994,28.9814272 Z M130.573097,28.9814272 L130.573097,21.5913978 C130.573097,18.1766048 132.389314,16.1042685 134.355255,16.1042685 C137.681731,16.1042685 141.463888,23.2075595 142.850463,34.038449 C142.850463,34.038449 146.300624,36.417074 148.12335,38.821766 C148.12335,41.0309547 150.343171,40.2750081 150.343171,42.6601499 C150.343171,45.0387748 147.980136,46.7657217 147.980136,46.7657217 C147.504925,50.5975888 145.695218,52.2137504 143.16293,52.2137504 C136.392803,52.2137504 134.576586,42.686217 131.927122,42.686217 C130.052318,42.686217 124.727352,43.8266536 124.727352,39.1671554 C124.727352,36.0977517 126.061849,33.5431737 126.061849,33.5431737 C126.061849,33.5431737 130.573097,31.3470186 130.573097,28.9814272 Z M166.116266,79.2518736 C165.712662,79.2518736 165.335097,79.2714239 164.951022,79.2844575 C167.711151,66.2769632 169.097725,53.8494624 169.097725,43.220593 C169.800777,42.8752036 179.500286,38.0984034 179.500286,38.0984034 L183.100171,3.70935158 L142.049765,24.0286738 C140.090334,18.2613229 137.297656,14.6966439 134.355255,14.6966439 C132.897073,14.6966439 131.399834,15.5307918 130.390824,17.0883024 C129.961182,16.5017921 129.349266,15.9543825 128.51602,15.6285435 C126.367806,14.7618117 123.412385,13.5692408 122.572629,13.5692408 C122.572629,13.5692408 122.357808,13.6539589 122.260162,13.6995764 C122.260162,13.6995764 121.661266,13.1130661 121.277191,12.9436298 C120.502533,12.5982405 118.58867,11.7901597 117.514563,11.7901597 C116.655277,11.7901597 116.043362,12.2072336 115.620229,12.702509 C113.276724,12.3831867 110.835572,11.6272401 108.544144,11.6272401 C103.010867,11.6272401 98.2913071,18.0071685 97.1325737,19.7015314 C96.3709344,19.9426523 93.8777048,20.4118605 90.5316996,20.9592701 L92.6408546,19.2779407 C93.8191172,18.5219941 95.5246685,18.7305311 97.0935153,14.8009123 C98.3694239,11.5946562 100.218189,6.26392962 100.218189,4.42619746 C100.218189,2.21049202 98.5386771,1.59139785 97.4320217,2.09970674 C94.3333865,3.88530466 92.6668936,8.17334637 92.3999943,8.89019225 C92.2893288,9.07917889 89.3208884,14.2013685 89.1255962,14.5337243 L88.7024633,14.8725969 C90.0629985,12.4744216 90.7400112,8.7012056 90.7400112,3.38351254 C90.7400112,0.959270121 89.0149307,-0.168132942 87.7520415,0.105571848 C80.4936839,1.68914956 81.1902258,8.96839361 81.2683427,14.3773216 C81.2683427,15.3548387 80.4741546,19.0694037 80.4741546,21.0048876 C80.4741546,22.9273379 81.3985374,23.5985663 82.2708423,23.637667 L80.5587812,24.8693385 C79.0355026,23.4095797 74.9799359,18.913001 67.9689483,18.913001 C61.1858015,18.913001 59.4802501,25.8468557 58.341046,29.3268166 L58.341046,31.1906158 C57.9374423,31.7184751 57.5663872,32.3245357 57.5663872,32.9827305 C57.5663872,35.2375367 59.3370359,36.8406647 60.2158505,36.5408928 C60.5478472,37.218638 61.1988209,37.7660476 62.0646161,37.7660476 C63.0020183,37.7660476 64.0240472,36.6647116 64.0240472,36.6647116 L65.020037,37.0622353 C66.634452,37.0622353 67.8192243,38.9586184 69.2774056,38.9586184 C69.7005385,38.9586184 70.4817071,38.3264907 70.4817071,38.3264907 C71.1652296,38.0658195 71.998476,38.9521017 73.1832483,37.9811013 C73.860261,37.8898664 74.7000172,37.6617791 75.2989131,37.4597589 C74.4266082,40.1577061 74.2313161,44.7715868 74.0815921,46.8895406 C73.6844981,52.1681329 71.1001322,57.1730205 71.0740932,57.2251548 C70.9699374,57.427175 70.9178595,57.6487455 70.9178595,57.8768328 L70.9178595,61.408928 L68.7501168,62.419029 C68.3595325,62.6014989 68.4571786,62.686217 68.3595325,63.1098078 C67.5132666,66.66797 67.0706045,73.9863148 66.9989973,75.3222548 C66.1397119,77.6161616 63.5358168,80.7181492 63.5358168,82.2756598 C63.5358168,82.9468882 63.5878947,83.5464321 63.6660116,84.1003584 L63.2363689,84.0482242 C62.7937067,83.9895732 62.3510445,84.1394591 62.0385771,84.4587814 L46.6430472,100.242424 C47.7366831,84.973607 50.2689711,69.5940046 50.2689711,69.5940046 L11.7899108,71.6858912 L15.1163869,100.248941 C15.1163869,100.248941 25.6686719,100.398827 26.8859928,100.418377 C26.8990123,105.006191 27.0682655,110.610622 27.5695153,116.729879 C26.4498404,119.088954 26.0332172,121.298143 25.7272595,122.992506 C20.376255,118.574128 13.8079296,116.593027 11.5490505,114.624959 C10.221064,113.478006 8.90609697,113.073965 7.93614603,113.073965 C6.95968536,113.073965 6.13294865,113.91463 6.13294865,114.86608 C6.13294865,116.54741 9.3943273,118.789182 11.2951707,120.705116 C12.3757872,121.676116 15.2596011,125.912023 16.353237,127.814923 C15.0512895,128.329749 10.4358854,129.554904 7.16148723,130.428152 C2.35730071,131.803193 0.0723827341,132.787227 0.0723827341,134.716194 C0.0723827341,137.51841 3.78944303,136.638645 6.66023742,136.632128 C8.83448985,136.632128 20.1419045,137.896383 24.1909614,138.587162 C27.7127296,139.336592 27.4718693,146.615836 34.7367367,153.849462 C35.1338307,154.26002 35.5113955,154.690127 35.8629213,155.120235 C39.3781797,163.735419 44.2344442,171.457804 50.9004157,176.984034 C48.4071861,183.031606 46.050661,186.557185 46.0116026,186.615836 C45.8553689,186.85044 45.7707423,187.130661 45.7707423,187.410883 L45.8163104,188.056044 C44.8658887,188.909743 44.162837,189.756924 43.8243307,190.213099 C41.8779191,190.988596 40.8168318,192.057348 40.6931468,192.187683 C40.5824812,192.318019 40.4913449,192.467905 40.4262475,192.624308 L38.6881475,197.120886 C38.3170925,198.150538 39.1047707,199.043337 40.0031146,199.043337 L47.8278194,199.043337 C48.3941666,199.043337 48.9084359,198.704464 49.1232573,198.189638 L50.5163412,194.833496 C50.5163412,194.833496 50.6530457,194.214402 50.7311625,193.842946 L51.1087273,193.373737 C51.3365681,193.210818 52.0396198,192.911046 52.3130288,192.585207 C52.1958535,192.800261 52.0461296,192.930596 51.9419737,193.210818 L50.6986138,196.579993 C50.3666172,197.648746 51.1477857,198.482893 52.0200906,198.482893 L62.5333172,198.482893 C63.1973104,198.482893 63.7701674,198.020202 63.9133816,197.375041 C63.9133816,197.375041 64.4601996,194.559791 64.1151835,192.911046 C64.0826348,192.74161 64.0305569,192.585207 63.9459303,192.441838 C63.6009142,191.822744 63.2103299,190.890844 63.2103299,190.532421 C63.2103299,190.173998 63.6399726,189.014011 65.5212869,188.375367 C65.7556374,188.290648 65.9704588,188.147279 66.1332022,187.951776 L67.2593869,186.641903 C67.3895816,186.492017 67.4807179,186.316064 67.5393056,186.127077 C67.5458153,186.107527 67.6760101,185.657869 67.9103606,184.921473 C70.4296292,185.384164 73.0921119,185.644835 75.9303576,185.644835 C103.694389,185.644835 125.358797,167.019876 140.780366,141.91072 C144.419309,139.577713 146.834422,137.524927 146.834422,135.094167 C146.834422,134.194852 146.39827,133.504073 145.988156,132.754643 C146.827912,131.144998 147.654649,129.528837 148.455347,127.893125 C152.322131,125.182144 158.31109,120.913653 158.31109,117.792115 C158.31109,115.641577 156.703185,112.624308 156.06523,110.024112 C158.838379,102.549365 161.162355,94.9507983 163.050179,87.4630173 C163.77276,87.2479635 164.417224,87.1306615 164.964042,87.1306615 C167.925973,87.1306615 170.953001,88.2710981 170.953001,96.7494298 C170.953001,100.242424 174.038616,100.444444 174.038616,100.444444 C174.038616,102.810036 173.70662,106.909091 177.514816,107.554252 C177.521326,110.154448 177.514816,113.008798 180.789215,113.008798 C183.054603,113.008798 183.816243,111.268817 183.673028,108.77289 C185.404619,108.811991 184.649489,109.496253 186.407118,109.496253 C186.810722,109.496253 188.796192,109.352884 188.796192,106.439883 C188.796192,106.309547 189.232345,105.299446 189.505754,104.289345 C189.622929,103.904855 189.460185,103.839687 189.251874,103.487781 C184.304473,96.0912349 177.645011,79.2518736 166.116266,79.2518736 Z" id="Fill-9" fill="#FFFFFF"></path>
                <path d="M59.7920666,157.836429 C59.4470505,157.282502 58.5877651,156.709026 58.5877651,156.709026 C58.366434,156.1942 57.8847134,155.724992 57.8847134,155.724992 C57.9563205,152.355816 56.4851198,151.625937 55.4435617,151.332682 C55.4891299,151.156729 55.560737,151.013359 55.560737,150.817856 C55.560737,142.886934 50.867216,138.931248 48.3674767,137.393288 C49.5327198,135.659824 50.3920052,131.195829 54.0830265,131.195829 C58.3403951,131.195829 60.351904,139.283154 60.7685273,142.398175 C60.7880565,142.567612 60.8401344,142.737048 60.924761,142.886934 C62.239728,145.330727 63.6523411,148.504399 63.6523411,149.338547 C63.6523411,150.889541 61.9012216,154.447703 59.7920666,157.836429 M54.0830265,129.788205 C48.9273142,129.788205 48.2893599,135.724992 46.3299288,137.901597 C46.3299288,137.901597 54.1546336,141.075269 54.1546336,150.817856 C54.1546336,151.854024 52.5337089,152.557836 54.343416,152.557836 C55.8146168,152.557836 56.6804119,153.333333 56.4525711,156.37667 C57.2727981,156.754643 57.1881715,157.425872 57.7414992,157.842946 C58.2883172,158.253503 58.789567,158.514174 58.789567,159.094167 C58.789567,160.16292 58.1776516,160.345389 56.8171164,160.782014 C56.4851198,160.886282 56.1661426,161.420658 56.1661426,162.567612 C56.1661426,163.629847 56.4655906,164.125122 56.6153145,164.587814 C59.7790471,161.068752 65.0649542,152.642555 65.0649542,149.338547 C65.0649542,147.59205 62.1616112,142.215705 62.1616112,142.215705 C62.1616112,142.215705 60.5211572,129.788205 54.0830265,129.788205" id="Fill-12" fill="#FFFFFF"></path>
                <path d="M157.162121,71.3998045 C155.358924,71.0348648 153.419022,73.107201 152.826636,76.0267188 C152.240759,78.9527533 153.22373,81.6181167 155.033437,81.9830564 C156.843144,82.3479961 158.776536,80.269143 159.368922,77.3496253 C159.954799,74.4301075 158.971828,71.7647442 157.162121,71.3998045" id="Fill-14" fill="#FFFFFF"></path>
                <path d="M152.371605,97.2316716 C150.848326,96.8406647 149.090697,98.5285109 148.452743,101.004888 C147.821298,103.481264 148.550389,105.807755 150.073668,106.198762 C151.603456,106.589769 153.361085,104.901922 153.99904,102.425546 C154.630484,99.9491691 153.907903,97.6226784 152.371605,97.2316716" id="Fill-16" fill="#FFFFFF"></path>
                <path d="M144.975241,117.869664 C143.666784,117.420007 142.0068,118.762463 141.28422,120.880417 C140.548619,122.998371 141.010811,125.083741 142.319268,125.533399 C143.627725,125.989573 145.281199,124.6406 146.016799,122.522646 C146.74589,120.411209 146.283698,118.325839 144.975241,117.869664" id="Fill-18" fill="#FFFFFF"></path>
                <path d="M127.960088,37.8325187 C127.960088,38.4385793 128.812864,38.7513848 129.294584,38.7513848 C130.062734,38.7513848 129.834893,37.734767 129.834893,37.3567937 C129.834893,36.991854 129.222977,36.783317 129.222977,36.783317 L127.960088,37.8325187 Z" id="Fill-20" fill="#FFFFFF"></path>
                <path d="M137.934309,37.9758879 C137.934309,36.4053438 135.193709,32.9840339 133.579294,32.9840339 C131.964879,32.9840339 134.210738,36.0990551 134.210738,38.7513848 C136.111582,38.2886934 137.934309,39.3183447 137.934309,37.9758879" id="Fill-22" fill="#FFFFFF"></path>
                <path d="M67.8882275,194.356468 L67.230744,194.356468 L67.230744,193.750407 L67.8882275,193.750407 C68.0574807,193.750407 68.1941852,193.880743 68.1941852,194.050179 C68.1941852,194.219616 68.0574807,194.356468 67.8882275,194.356468 M68.721474,194.050179 C68.721474,193.587488 68.3439092,193.222548 67.8882275,193.222548 L66.7034552,193.222548 L66.7034552,196.018247 L67.230744,196.018247 L67.230744,194.87781 L67.6083088,194.87781 L68.1355976,196.018247 L68.721474,196.018247 L68.1681463,194.832193 C68.4871234,194.721408 68.721474,194.408602 68.721474,194.050179" id="Fill-24" fill="#FFFFFF"></path>
                <path d="M67.7131156,196.545455 C66.6520283,196.545455 65.7927429,195.685239 65.7927429,194.616487 C65.7927429,193.554252 66.6520283,192.694037 67.7131156,192.694037 C68.7742028,192.694037 69.6334882,193.554252 69.6334882,194.616487 C69.6334882,195.685239 68.7742028,196.545455 67.7131156,196.545455 M67.7131156,192.166178 C66.3590901,192.166178 65.2654542,193.267514 65.2654542,194.616487 C65.2654542,195.971978 66.3590901,197.066797 67.7131156,197.066797 C69.067141,197.066797 70.160777,195.971978 70.160777,194.616487 C70.160777,193.267514 69.067141,192.166178 67.7131156,192.166178" id="Fill-27" fill="#FFFFFF"></path>
                <path d="M59.7731884,175.575758 C59.6885618,175.764744 58.7771985,177.713262 57.7812086,179.870316 C58.5037895,180.261323 59.2458996,180.626263 60.0010292,180.971652 C61.5633663,178.215054 63.2038202,174.826328 64.8182352,170.3884 L64.8247449,170.381883 C64.525297,170.231997 64.225849,170.088628 63.9329108,169.938742 C62.2729277,172.923428 60.3655745,174.976214 59.7731884,175.575758" id="Fill-29" fill="#F0CB00"></path>
                <path d="M44.7799602,162.48159 C42.3908864,161.986315 40.7699617,160.832845 39.3898973,159.40567 C42.5601396,165.798631 46.5310797,171.331378 51.4784804,175.541219 C52.4158827,173.136527 53.3467752,170.392962 54.1539827,167.349625 C50.0853965,167.167155 46.8109984,165.466276 44.7799602,162.48159" id="Fill-31" fill="#F0CB00"></path>
                <path d="M45.0911257,101.832519 C45.9308818,87.9582926 48.0270174,74.5076572 48.5803451,71.0993809 L13.3626635,73.0087977 L16.3701624,98.85435 L28.2829826,99.030303 C28.2829826,104.061258 28.4522358,109.268166 28.8298006,114.507657 C29.9299463,112.839361 31.4467152,111.158032 33.56238,109.561421 C33.2954807,108.95536 33.1262275,108.225481 33.1001886,107.443467 C33.0090522,105.201694 34.0636298,103.344412 35.4502039,103.292278 C36.739132,103.24666 37.8653167,104.791137 38.0736283,106.817856 C39.1998129,106.257413 40.4366631,105.723037 41.7841788,105.221245 L45.0911257,101.832519 Z" id="Fill-33" fill="#F0CB00"></path>
                <path d="M159.36762,77.350277 C158.775234,80.2697947 156.835332,82.3486478 155.032135,81.983708 C153.222428,81.6187683 152.239457,78.953405 152.825334,76.0338873 C153.41772,73.1078527 155.357622,71.0355165 157.160819,71.4004562 C158.970526,71.7653959 159.960006,74.4307592 159.36762,77.350277 Z M153.997087,102.426849 C153.365642,104.903226 151.608013,106.584555 150.078224,106.200065 C148.548436,105.809058 147.825855,103.482568 148.4573,101.006191 C149.088744,98.5232975 150.846373,96.8419681 152.369652,97.2329749 C153.90595,97.6239818 154.628531,99.9504725 153.997087,102.426849 Z M146.016148,122.524601 C145.280548,124.642555 143.627074,125.985011 142.318617,125.528837 C141.01016,125.079179 140.547968,123.000326 141.283569,120.882372 C142.012659,118.764418 143.666133,117.415445 144.97459,117.865103 C146.283047,118.327794 146.751748,120.406647 146.016148,122.524601 Z M142.48136,25.3919844 C143.184412,27.7249919 143.750759,30.364288 144.147853,33.2316716 C145.195921,34.0006517 147.70217,35.9361355 149.244978,37.9628543 C149.43376,38.210492 149.531406,38.5102639 149.531406,38.8165526 C149.531406,39.7680026 151.751227,39.7093516 151.751227,42.6614532 C151.751227,45.046595 150.078224,46.8126426 149.264507,47.5294884 C149.101764,48.4679049 148.867413,49.2499185 148.580985,49.9276637 C149.303566,53.7595308 149.772267,57.7152167 149.772267,61.5275334 C149.772267,120.028674 115.960688,173.303356 78.8356536,173.303356 C76.4661091,173.303356 74.2723274,173.094819 72.2087405,172.723363 C70.6464034,176.548713 69.2012416,180.869339 68.3419563,183.547735 C70.7375398,183.997393 73.2633181,184.238514 75.9323106,184.238514 C135.698214,184.238514 167.713104,95.0694037 167.713104,42.3356142 L178.180763,37.1743239 L181.429122,6.10883024 L142.48136,25.3919844 Z" id="Fill-35" fill="#F0CB00"></path>
                <path d="M74.3758322,114.987292 C77.1099221,114.987292 77.337763,112.993157 77.337763,112.308895 L72.7418881,112.589117 C72.7418881,112.589117 71.6352326,114.987292 74.3758322,114.987292" id="Fill-37" fill="#00539B"></path>
                <path d="M83.4217639,113.431085 C81.0847681,113.431085 80.1473658,114.597589 80.1473658,115.118931 C80.1473658,117.960248 83.4738418,118.963832 84.0792475,118.963832 C85.6741332,118.963832 84.6911628,117.321603 87.1843924,117.139133 C88.9745703,117.002281 88.9940995,116.239818 88.9940995,115.008146 C88.9940995,113.769958 87.6075254,113.789508 86.351146,113.789508 C85.1012763,113.789508 84.0271696,113.431085 83.4217639,113.431085" id="Fill-39" fill="#00539B"></path>
                <path d="M149.771616,125.128055 C153.228287,122.664712 156.906288,119.862496 156.906288,117.79016 C156.906288,116.10883 155.962376,114.258065 155.233286,112.231346 C153.560283,116.591072 151.744066,120.905181 149.771616,125.128055" id="Fill-41" fill="#00539B"></path>
                <path d="M142.58161,138.906484 C144.352259,137.557511 145.432876,136.325839 145.432876,135.094167 C145.432876,134.716194 145.341739,134.442489 145.211544,134.207885 C144.358769,135.791463 143.479954,137.362007 142.58161,138.906484" id="Fill-43" fill="#00539B"></path>
                <path d="M128.294038,120.106875 C128.294038,120.106875 126.900954,117.389378 125.664104,115.773216 C125.664104,115.773216 125.631555,114.170088 126.692642,112.579993 L127.818827,113.987618 C127.818827,116.177256 129.127284,118.347344 129.127284,120.087325 L128.294038,120.106875 Z M80.141507,134.717498 C79.4840235,136.731183 77.9542351,138.634083 77.3293003,139.59205 L76.5871902,139.214076 C77.5961996,135.571196 79.8095104,133.928967 81.4564741,131.993483 L82.3938763,131.43304 C82.6021879,133.062235 80.141507,134.717498 80.141507,134.717498 Z M56.6153145,164.59042 C56.4655906,164.121212 56.1661426,163.625937 56.1661426,162.563702 C56.1661426,161.416748 56.47861,160.888889 56.8236261,160.78462 C58.1776516,160.347996 58.789567,160.159009 58.789567,159.090257 C58.789567,158.510264 58.2948269,158.256109 57.7414992,157.839036 C57.1881715,157.421962 57.2727981,156.750733 56.4460613,156.379277 C56.6804119,153.33594 55.8211265,152.553926 54.343416,152.553926 C52.5337089,152.553926 54.1546336,151.850114 54.1546336,150.813946 C54.1546336,141.071359 46.3299288,137.904203 46.3299288,137.904203 C48.2893599,135.727599 48.9273142,129.784295 54.0830265,129.784295 C60.5211572,129.784295 62.1616112,142.211795 62.1616112,142.211795 C62.1616112,142.211795 65.0584445,147.588139 65.0584445,149.334637 C65.0584445,152.638645 59.7790471,161.064842 56.6153145,164.59042 Z M85.3883557,78.6471163 C86.9441831,78.9990225 88.5716175,78.2821766 89.3397666,78.2821766 C90.1079157,78.2821766 91.663743,79.4812643 91.663743,80.3284457 C91.663743,81.182144 90.3162273,85.0074943 89.8800748,87.2688172 L88.858046,87.9270121 C88.858046,87.9270121 88.981731,84.3101988 86.0458393,84.2710981 C85.5185505,83.4695341 85.2972194,81.4558488 84.8285183,79.487781 L85.3883557,78.6471163 Z M123.040679,76.7181492 C119.837888,87.1124145 120.313099,92.5865103 113.067761,94.5806452 C108.823412,98.2952102 105.763835,103.867058 105.763835,103.867058 L106.88351,104.57087 L118.477353,99.1358749 L120.553959,96.7116325 L123.418244,96.1772564 L123.418244,97.2069078 C120.254512,99.7289019 115.925536,103.019876 115.925536,103.019876 C112.625099,110.533724 106.545004,116.294558 104.214518,120.367546 L103.094843,129.178234 L101.031256,132.18247 L100.569064,134.437276 L98.219049,134.619746 C98.219049,132.573477 101.591093,125.646139 101.591093,121.116976 C101.591093,119.155425 100.126402,119.135875 100.126402,118.327794 C100.126402,117.623982 101.604113,113.394591 101.604113,112.084718 C101.604113,111.426523 101.102863,111.042033 100.451889,111.042033 C99.0653149,111.042033 99.1889999,115.147605 98.1279127,115.864451 C97.522507,116.275008 96.4874587,116.333659 95.0357872,116.333659 C89.3332569,116.333659 86.9572025,120.556533 84.4509535,120.556533 C81.9381947,120.556533 81.0984385,119.331378 81.0984385,119.331378 C80.5971887,117.897687 76.0729209,117.063539 73.0003246,115.414793 C70.8781501,114.274356 71.7113966,111.928315 71.7113966,111.928315 C74.5431325,111.680678 77.7784722,110.677094 78.3643486,110.149234 C78.950225,109.621375 80.2066044,106.962529 80.2066044,106.962529 C79.8355494,106.714891 80.0503707,106.121864 80.0503707,106.121864 C81.755922,105.665689 80.4279355,108.930596 80.4279355,108.930596 C81.0789093,110.031932 80.7989906,111.654611 80.7989906,111.654611 L94.7558685,114.926035 L97.1905104,113.33594 C99.2996655,110.833496 107.606091,94.3264907 108.022714,93.2056044 C108.439337,92.0847181 109.838931,88.2984686 109.838931,88.2984686 C110.242535,85.0856957 111.629109,78.1844249 112.312631,75.597263 C112.989644,73.0166178 114.102809,72.4366243 114.102809,71.5764093 C114.102809,70.2274356 111.427307,70.6445096 109.650149,68.7937439 L109.838931,67.7640925 C112.83992,70.0840665 114.239514,68.4222874 114.239514,68.4222874 C114.239514,68.4222874 117.982613,60.2176605 117.982613,55.4278267 C117.982613,51.2310199 114.32414,46.9755621 113.425797,46.1218638 C112.540472,45.2746823 111.225505,41.8924731 109.650149,41.5144998 C109.650149,40.6608016 110.216496,39.5464321 110.216496,39.5464321 C110.216496,31.4265233 104.969647,29.7777778 104.969647,27.2623004 C108.387259,26.0175953 106.037244,21.0713587 113.250034,21.0713587 C118.3081,21.0713587 116.752273,22.8504399 117.826379,22.8504399 C119.466833,22.8504399 119.219463,22.5702183 120.137336,22.5702183 C123.502871,22.5702183 126.536409,23.3652656 127.844866,23.3652656 C129.563437,23.3652656 129.693631,19.3835125 129.693631,19.0055393 C129.693631,18.6405995 129.257479,17.4219616 128.007609,16.9462366 C127.226441,16.6464646 123.353147,14.9781688 122.571978,14.9781688 C122.220452,14.9781688 121.914495,15.2583904 121.914495,15.2583904 L120.697174,14.228739 C120.697174,14.228739 118.405746,13.1925709 117.513912,13.1925709 C116.628588,13.1925709 116.296591,14.228739 116.296591,14.228739 C115.105309,14.228739 110.958606,13.0361681 108.543493,13.0361681 C103.003706,13.0361681 98.0367763,20.8823721 98.0367763,20.8823721 C97.398822,21.3059629 90.6742628,22.3812317 87.243631,22.8895406 C83.8195089,23.410883 81.5736494,26.4411861 80.4018966,26.4411861 C79.3082606,26.4411861 76.1315085,20.321929 67.9682973,20.321929 C61.4129913,20.321929 60.3909625,28.402737 59.7464984,29.3216031 L59.7464984,31.6415771 C59.7464984,31.6415771 58.9718396,32.4822418 58.9718396,32.9775171 C58.9718396,34.0071685 59.6228134,35.1671554 60.1240632,35.1671554 C60.625313,35.1671554 61.0028778,34.5285109 61.295816,34.5285109 C61.5887542,34.5285109 61.3674231,35.2453568 61.3674231,35.5842294 C61.3674231,35.923102 61.6538516,36.3597263 62.0639651,36.3597263 C62.5001175,36.3597263 63.3463834,35.0954708 63.9648085,35.0954708 C64.1666104,35.0954708 64.7459771,35.6493972 65.0193861,35.6493972 C67.3173235,35.6493972 68.3393524,37.5522972 69.3744007,37.5522972 C69.88867,36.4248941 71.9717861,37.0570218 71.9717861,37.0570218 L72.7073864,36.6269143 C73.4755355,36.6269143 75.4154374,35.9296188 75.4154374,35.9296188 L75.9036677,33.2577387 C78.0779201,32.9318996 78.5726602,34.2482893 78.5726602,34.2482893 C75.7864924,37.3958944 75.9101775,41.3450635 75.4805348,46.9951124 C75.0574018,52.6451613 72.3233119,57.8781362 72.3233119,57.8781362 L72.3233119,61.9576409 C72.3233119,63.1893125 73.2997726,63.8084066 74.9923044,65.046595 L74.7123857,65.6135549 C74.035373,65.6135549 71.6072407,63.0785272 70.3573711,63.0785272 C70.0904718,63.0785272 69.7259265,63.4304334 69.7259265,63.4304334 C68.8340924,67.1906158 68.3849205,75.6689475 68.3849205,75.6689475 C67.4279891,78.1062235 64.9412692,81.3646139 64.9412692,82.2769632 C64.9412692,87.3014011 67.4019501,86.6366895 67.4019501,86.6366895 C67.4019501,87.9986966 65.9177299,89.8950798 65.9177299,91.4330401 C65.9177299,92.0782014 66.1585902,92.5474096 66.4905868,92.5474096 C68.0659434,92.5474096 71.3468512,86.4933203 71.3468512,84.5904203 C71.3468512,84.095145 70.5005853,83.2153796 70.5005853,81.6448355 L71.5486531,77.6370153 C72.5771917,75.7536657 76.8736187,69.9863148 79.9071565,66.173998 L80.1219778,65.046595 C79.2757119,64.8185077 78.9957932,63.8540241 78.9957932,63.8540241 C85.2646707,52.4301075 84.6006775,49.1912675 86.0914074,43.3848159 C87.8620561,42.726621 88.832007,43.1762789 88.832007,43.1762789 C90.869555,45.639622 91.9501715,50.8791137 93.8184662,53.8637993 L95.016258,54.2157054 L97.2621175,52.3193223 L98.9481396,53.2316716 C101.011727,53.2316716 99.4428797,55.6950147 99.4428797,55.6950147 L99.7944055,57.1026393 C104.136401,59.2531769 106.180458,63.0068426 106.180458,63.0068426 L106.323673,63.9257087 L100.842473,58.5754317 L99.2996655,58.2300424 C98.0432861,59.7810362 97.2621175,62.7983056 97.2621175,62.7983056 C93.4539209,62.4333659 83.5786486,68.6177908 78.5726602,71.8696644 C73.5666718,75.121538 73.4494966,79.7028348 73.4494966,85.6526556 C73.4494966,87.5229717 74.4975643,91.6285435 74.4975643,91.6285435 L75.200616,91.8435973 L76.1184891,91.6285435 L79.5556306,94.7956989 C78.5921894,94.7956989 75.8841385,93.1208863 74.8751291,93.1208863 C73.8661198,93.1208863 72.818052,94.1440209 72.818052,94.8673835 C72.818052,95.5842294 73.4494966,96.4118605 73.4494966,96.4118605 C73.4494966,96.4118605 71.1906175,95.2844575 69.0944819,95.2844575 C59.6423426,95.2844575 50.2553007,105.626588 47.8792464,105.626588 C47.0459999,105.626588 46.8832565,105.144347 46.8832565,105.144347 L63.7499872,87.9009449 L64.101513,85.580971 L63.0469355,85.4441186 L42.6063587,106.395569 C26.260407,112.299772 27.8292539,122.772239 26.533816,125.691756 C22.2308793,120.647768 13.175834,118.099707 10.5849584,115.655914 C9.41971528,114.554578 7.53840105,114.072336 7.53840105,114.867384 C7.53840105,115.655914 10.767231,118.334311 12.2384318,119.657217 C13.7096325,120.973607 18.1492737,127.620723 18.1492737,128.350603 C18.1492737,129.197784 10.7477018,130.86608 7.54491079,131.778429 C4.57647034,132.632128 1.48434487,133.629195 1.48434487,134.710981 C1.48434487,135.792766 4.40070742,135.225806 6.65958644,135.225806 C8.91846547,135.225806 20.1868216,136.470512 24.4311707,137.200391 C29.3264936,138.034539 27.9659584,145.124796 35.7255658,152.847181 C39.0129834,156.112089 40.614379,160.74552 45.5813089,161.253829 C47.3324284,164.179863 50.4766318,166.017595 54.8641951,166.017595 C55.3328962,166.017595 55.7430097,165.874226 56.0619868,165.698273 C52.8722153,179.122841 47.1761947,187.412186 47.1761947,187.412186 L47.267331,188.630824 C45.7049939,189.89508 44.735043,191.354839 44.735043,191.354839 C42.7430632,192.01955 41.7405636,193.13392 41.7405636,193.13392 L40.0024636,197.637015 L47.8271685,197.637015 L49.1421355,194.541544 L49.4220542,193.225155 L50.1706741,192.286738 L51.290349,191.628543 L52.7940984,189.842946 L53.3539359,188.252851 L53.6338546,185.444119 L58.6007846,174.750081 C58.6007846,174.750081 62.5912539,170.931248 64.4074707,165.470186 L67.3108138,162.935158 L67.4019501,164.909743 L66.1781194,170.787879 C61.7970658,182.628869 58.1646321,186.160964 55.9773602,189.842946 L55.5086591,190.970349 L55.9773602,191.908765 L55.5086591,192.286738 C55.5086591,192.286738 54.0049097,191.661127 53.2627996,193.694363 L52.0194396,197.070055 L62.5326662,197.070055 C62.5326662,197.070055 63.0143868,194.939068 62.7214486,193.13392 C62.7214486,193.13392 61.8100853,191.524275 61.8100853,190.533724 C61.8100853,189.536657 62.6303123,187.868361 65.0584445,187.034213 L66.1846291,185.72434 C66.1846291,185.72434 69.3027936,175.251874 72.3688801,168.845878 C78.2146246,165.105246 79.4059067,158.119257 81.658276,154.241773 C84.8154988,150.735745 88.6302052,142.726621 89.6001561,139.637667 C100.946629,140.725969 116.791331,130.005865 121.914495,119.99609 L122.571978,120.556533 C122.806329,123.443467 126.445272,126.428152 126.445272,128.207234 C126.445272,132.143369 114.389238,133.31639 113.764303,138.888237 C113.425797,141.905507 110.307632,145.470186 110.307632,148.871945 L110.958606,148.871945 L114.799351,147.842294 L115.645617,147.940046 C115.645617,147.940046 112.34518,150.533724 110.216496,155.532095 L107.208997,157.878136 L105.802894,161.436298 L105.88752,162.153144 C112.325651,157.421962 118.334139,151.139785 123.698163,143.652004 C121.647595,144.447051 119.479853,145.594005 119.479853,145.594005 C118.672645,145.594005 118.080259,145.535354 118.080259,144.466601 C118.080259,141.364614 118.483863,141.742587 122.200923,139.59205 C123.307579,137.493646 123.613536,136.522646 128.385174,135.747149 C128.580466,135.662431 128.788778,135.571196 129.003599,135.473444 C138.488287,119.390029 145.219356,99.2466601 147.504274,77.6891496 C143.338042,75.8449006 138.488287,74.8022157 133.898922,74.8022157 C125.540419,74.8022157 123.040679,76.7181492 123.040679,76.7181492 Z" id="Fill-45" fill="#00539B"></path>
                <path d="M166.113011,80.6594982 C165.605251,80.6594982 165.12353,80.6790485 164.64832,80.7051157 C164.270755,82.4255458 163.867151,84.1590094 163.437508,85.8989899 C163.958287,85.7882046 164.472557,85.7230368 164.960787,85.7230368 C169.745444,85.7230368 172.355849,88.8706419 172.355849,96.7494298 C172.355849,100.157706 175.454484,98.111437 175.454484,100.20984 C175.454484,101.591398 174.842569,106.250896 178.123477,106.250896 C180.108947,106.250896 177.459484,111.60769 180.78596,111.60769 C183.50703,111.60769 181.196073,107.332682 183.109936,107.332682 C186.23461,107.332682 184.99776,108.088628 186.410373,108.088628 C187.367305,108.088628 187.386834,106.896057 187.386834,106.439883 C187.386834,105.377647 188.096395,105.247312 188.096395,104.289345 C183.50703,97.6552623 176.847568,80.6594982 166.113011,80.6594982" id="Fill-47" fill="#00539B"></path>
                <path d="M117.744357,73.7067449 C116.42288,73.7067449 113.259147,77.506028 113.220089,78.6269143 C112.998758,85.3652656 109.769928,91.3607038 109.769928,91.9928315 C109.769928,92.6249593 110.193061,93.0029326 111.084895,93.0029326 C113.617183,90.8067775 121.344242,86.1342457 121.344242,77.9035516 C121.344242,75.1404366 119.065833,73.7067449 117.744357,73.7067449" id="Fill-49" fill="#00539B"></path>
                <path d="M86.1649675,21.7986315 C87.5906,21.7986315 90.2856315,19.2831541 91.7958907,18.1492343 C93.3061499,17.0153144 94.3477079,17.8364288 95.78636,14.2717498 C97.225012,10.7135875 98.8068783,5.85206908 98.8068783,4.4248941 C98.8068783,3.01075269 98.0387293,3.37569241 98.0387293,3.37569241 C95.2460517,4.98533724 93.6837146,9.49494949 93.6837146,9.49494949 L90.2400633,15.4187032 C86.6336686,17.771261 85.7353248,21.7986315 86.1649675,21.7986315" id="Fill-51" fill="#00539B"></path>
                <path d="M85.9709773,5.52231997 C85.9709773,5.52231997 86.2964642,7.64679049 84.4086402,8.22678397 C84.4086402,8.22678397 84.2458967,6.34995112 85.9709773,5.52231997 M82.3255241,22.2378625 C84.8122439,22.2378625 84.0115462,18.1974585 86.6805387,15.3365917 C89.3430215,12.475725 89.330002,5.35288368 89.330002,3.352232 C89.330002,1.34506354 87.9499376,1.50146628 87.9499376,1.50146628 C81.9609788,2.91560769 82.6770499,8.47442164 82.6770499,14.378625 C82.6770499,15.8188335 81.1537713,22.2378625 82.3255241,22.2378625" id="Fill-53" fill="#00539B"></path>
                <path d="M134.212691,38.7455197 C134.212691,36.09319 131.966832,32.9781688 133.581247,32.9781688 C135.195662,32.9781688 137.936261,36.4059954 137.936261,37.9700228 C137.936261,39.3189964 136.113535,38.2893451 134.212691,38.7455197 M129.297839,38.7455197 C128.816119,38.7455197 127.956833,38.4327142 127.956833,37.8266536 L129.226232,36.7774519 C129.226232,36.7774519 129.844657,36.9859889 129.844657,37.3574454 C129.844657,37.7354187 130.065988,38.7455197 129.297839,38.7455197 M148.124001,38.8172043 C146.301275,36.4125122 142.851113,34.0338873 142.851113,34.0338873 C141.464539,23.2095145 137.682382,16.0997067 134.355906,16.0997067 C132.383455,16.0997067 130.573748,18.1785598 130.573748,21.5868361 L130.573748,28.9768654 C130.573748,31.3489736 126.0625,33.5386119 126.0625,33.5386119 C126.0625,33.5386119 124.734513,36.09319 124.734513,39.1691105 C124.734513,43.8286087 130.059479,42.688172 131.927773,42.688172 C134.577237,42.688172 136.393454,52.2157054 143.163581,52.2157054 C145.695869,52.2157054 147.499066,50.593027 147.987297,46.76116 C147.987297,46.76116 150.343822,45.0407299 150.343822,42.6621049 C150.343822,40.2769632 148.124001,41.0329097 148.124001,38.8172043" id="Fill-55" fill="#00539B"></path>
            </g>
        </g>
    </g>
</svg>