<?xml version="1.0" encoding="UTF-8"?>
<svg width="200px" height="200px" viewBox="0 0 200 200" version="1.1" xmlns="http://www.w3.org/2000/svg" xmlns:xlink="http://www.w3.org/1999/xlink">
    <!-- Generator: Sketch 51.3 (57544) - http://www.bohemiancoding.com/sketch -->
    <title>southern-ind</title>
    <desc>Created with Sketch.</desc>
    <defs></defs>
    <g id="southern-ind" stroke="none" stroke-width="1" fill="none" fill-rule="evenodd">
        <g id="southern-ind_BGL" transform="translate(0.000000, 28.855721)">
            <g id="southern-ind">
                <g id="g10" transform="translate(99.962586, 71.669895) scale(-1, 1) rotate(-180.000000) translate(-99.962586, -71.669895) translate(0.000000, 0.187255)" fill-rule="nonzero">
                    <g id="g12">
                        <path d="M183.566026,36.3883794 C187.853044,40.0828877 190.173733,44.8494869 188.673695,47.9103111 C187.80875,49.6758283 184.855364,51.7228177 180.887089,53.1497955 C180.605458,52.3663101 179.856935,51.7174676 179.856935,51.7174676 C176.618028,51.0650585 175.00456,51.8613246 175.00456,51.8613246 C176.896666,52.235531 178.487089,53.0059385 179.51395,53.606036 C177.054691,54.355935 174.286266,54.854976 171.423565,54.9218516 C170.588847,54.3699046 169.822368,53.7189816 169.132805,52.9988051 C169.132805,52.9988051 163.684844,50.8902901 155.59835,51.3964645 C151.688735,48.6465377 148.507591,44.9422211 148.507591,44.9422211 C150.281777,40.6054094 155.812641,30.5027277 165.864567,25.7867162 C165.864567,25.7867162 166.161163,28.5865471 165.568271,30.5752506 C156.779644,35.4262617 153.629326,44.7285162 153.629326,44.7285162 C153.629326,44.7285162 154.847733,46.1768942 157.028653,47.7031452 C157.028653,47.7031452 173.07205,48.8109032 182.910583,41.2224488 C184.387874,40.0849682 184.104447,38.0043924 183.566026,36.3883794" id="path14" fill="#C6C5C5"></path>
                        <path d="M125.361164,38.4193187 C127.735126,38.7768805 129.990868,39.4432592 129.990868,39.4432592 C122.247958,44.5662313 106.580768,48.2964065 106.580768,48.2964065 C115.571714,47.8077685 121.965728,46.2036445 121.965728,46.2036445 C120.174483,50.0393346 115.736623,57.7199289 99.522332,64.4963643 C99.522332,64.4963643 102.342833,66.7499252 108.54201,69.3675868 C105.339316,68.9131296 97.0391296,67.3090056 89.3677494,62.3774465 C89.3677494,62.3774465 109.469208,57.4658014 115.61571,49.5346464 C115.61571,49.5346464 111.818927,51.2303157 105.822669,53.2024043 C103.277513,52.5291894 96.8323208,50.6132763 90.7723135,46.9508684 C90.7723135,46.9508684 102.849231,46.6054929 113.628729,43.2423907 C113.628729,43.2423907 108.720386,43.3172914 102.172238,43.2495241 C98.6771393,41.3796808 95.6315726,39.0729167 95.6315726,39.0729167 C105.377925,40.3982435 114.060304,39.3422027 119.627981,38.2329585 C119.627981,38.2329585 117.123828,36.2718672 115.505272,35.1736204 C115.505272,35.1736204 128.506693,32.2215805 141.545227,36.880287 C140.811968,35.3552249 139.278111,33.431584 139.278111,33.431584 C139.278111,33.431584 144.979271,33.7814179 148.5878,35.1299283 C147.420872,36.9477571 146.29315,38.7872834 145.356974,40.6089761 C135.756375,36.3747071 125.361164,38.4193187 125.361164,38.4193187" id="path16" fill="#C6C5C5"></path>
                        <path d="M36.9804705,95.1738604 L37.9657304,95.1738604 C38.5104367,95.1738604 38.9770286,94.9545082 38.9770286,94.3365772 C38.9770286,94.0277603 38.7827899,93.7314269 38.4975673,93.6279926 L39.0943499,92.5597655 L38.4975673,92.5597655 L38.0435456,93.460952 L37.5126066,93.460952 L37.5126066,92.5597655 L36.9804705,92.5597655 L36.9804705,95.1738604 Z M37.9139534,91.7739023 C39.003366,91.7739023 39.8458651,92.6111854 39.8458651,93.8342668 C39.8458651,95.0445675 39.003366,95.9077092 37.9139534,95.9077092 C36.8251394,95.9077092 35.9955098,95.0445675 35.9955098,93.8342668 C35.9955098,92.6111854 36.8251394,91.7739023 37.9139534,91.7739023 Z" id="path18" fill="#C6C5C5"></path>
                        <path d="M38.4068827,94.3107186 C38.4068827,94.5681156 38.264421,94.7357506 37.8759437,94.7357506 L37.5126066,94.7357506 L37.5126066,93.872906 L37.8493069,93.872906 C38.2000739,93.872906 38.4068827,94.0277603 38.4068827,94.3107186" id="path20" fill="#C6C5C5"></path>
                        <path d="M191.908113,36.6876851 C186.550239,31.2092318 178.624163,29.9029274 176.026932,29.7034596 C175.65282,29.9540501 175.916494,30.4581439 176.521657,31.0861806 C177.124724,31.7124339 181.664343,36.0578651 178.45716,38.7694499 C176.992738,40.0076897 173.950164,40.8738037 170.76034,41.2384989 C170.76034,41.2384989 170.098612,38.4163464 170.017803,35.2862687 C169.896891,30.7657719 171.633067,26.0895291 169.643692,19.4857815 C169.643692,19.4857815 160.812865,22.4490862 156.889484,25.9022476 C151.197303,18.4365471 141.298313,16.1732373 141.298313,16.1732373 C141.298313,16.1732373 142.733405,19.4619737 142.793562,22.4618668 C138.898912,19.8561537 132.292103,16.7316935 123.303551,17.063159 C123.303551,17.063159 127.511258,19.5895725 130.731011,24.1472224 C130.731011,24.1472224 118.275792,16.5768095 99.1488191,23.1847183 C99.1488191,23.1847183 102.336548,19.4676507 109.089111,17.9021363 C104.844891,9.79508347 99.7171692,5.75641829 98.0980148,4.62393115 C87.0820779,49.8999361 47.7776269,68.4247887 26.2059103,75.1492098 C34.3545072,77.4140652 41.6502795,78.4311695 41.6502795,78.4311695 C28.0577621,86.0234879 14.8002091,88.5287984 14.8002091,88.5287984 C20.9712827,89.4588158 30.4005978,90.0871497 41.7472492,90.2669709 C41.4895613,91.3649205 41.4240169,92.5428236 41.5976046,93.7757134 L44.4603057,114.299999 L43.5908706,115.578365 C40.9984277,119.342424 41.7957341,124.00113 42.4113719,128.337347 C63.4032158,135.981086 85.7598183,140.174338 108.960416,140.296497 C132.073023,140.418062 157.482375,135.933827 178.484994,128.308516 C178.978522,123.459289 179.706094,118.154415 175.934152,114.282166 L177.507814,98.2650016 C178.966251,97.8331335 180.421095,97.3867014 181.877137,96.9456193 L184.030224,76.6721913 L166.235387,73.2133826 C174.560415,69.6576785 181.21092,65.4507542 185.386901,60.501956 C185.386901,60.501956 184.822143,59.5335966 183.97276,59.0586308 C201.942382,52.4593415 197.551211,42.3415013 191.908113,36.6876851 Z M175.003063,33.7546677 C174.465839,33.2259042 173.291429,31.8681799 173.073845,31.0953946 C172.771563,33.2892131 172.782338,35.6152969 173.113052,37.8724245 C174.152483,37.7104368 175.882674,37.478304 176.512678,36.5161862 C176.924799,35.888744 175.53909,34.2837284 175.003063,33.7546677 Z M37.9139534,96.3710832 C39.263149,96.3710832 40.3654311,95.3409009 40.3654311,93.8342668 C40.3654311,92.3273354 39.263149,91.2971532 37.9139534,91.2971532 C36.5782258,91.2971532 35.4759437,92.3273354 35.4759437,93.8342668 C35.4759437,95.3409009 36.5782258,96.3710832 37.9139534,96.3710832 Z M196.196927,55.1099951 C194.375453,57.046714 191.908712,58.7596224 188.665614,60.2802261 L189.009198,60.8182035 C185.40426,65.5304105 180.491728,69.2495884 175.16887,72.2274869 L186.968046,74.5205787 L184.369019,98.9923115 C182.917167,99.4325019 181.465016,99.8735839 180.013164,100.31318 L178.727717,113.408324 C182.57059,118.267658 181.573957,124.570019 180.996329,130.250288 C157.233068,139.073119 132.379495,143.049099 108.960416,142.926048 C85.6254374,142.802997 61.254918,138.146668 39.9709679,130.293386 C39.6878404,128.282361 39.10273,124.467476 39.0988393,122.133962 C39.0928535,119.511247 39.5869799,116.635 41.365057,114.060139 L41.6502795,113.640457 C41.6502795,113.640457 40.14695,102.903794 39.3753825,97.358465 C38.9485961,97.5219388 38.4861943,97.6143758 38.0013459,97.6143758 C35.8889628,97.6143758 34.1764301,95.9133565 34.1764301,93.8155416 C34.1764301,93.4992941 34.217732,93.1931522 34.2910579,92.899791 C34.2904593,92.899791 34.29016,92.899791 34.2895614,92.899791 C19.7722704,92.1674283 5.39363997,90.4735424 0,88.8735796 C0,88.8735796 21.6791614,84.5302289 33.3273467,79.2966891 C33.3273467,79.2966891 22.6489482,76.7999981 17.2547096,75.3055502 C17.2547096,75.3055502 48.6748959,67.5117132 70.3961075,47.0031801 C92.7955083,25.8543943 96.1529344,0 96.1529344,0 C96.1529344,0 107.175456,5.18066352 112.381292,17.3941786 C112.381292,17.3941786 115.764756,17.1097044 118.219825,17.4655721 L113.196256,14.4468943 C121.848108,13.8025103 130.18391,13.417039 138.300932,16.7402833 L136.158919,11.8158576 C145.995956,13.7611663 153.090606,17.4589439 157.338417,21.9289422 C157.338417,21.9289422 163.971863,18.087902 171.595656,15.7389914 C171.595656,15.7389914 174.221919,22.3709457 173.361462,28.3410094 C173.940287,27.560199 175.225734,26.7009212 175.225734,26.7009212 C182.414361,27.1334135 190.116568,30.3321205 194.805233,35.4628204 C199.939838,41.0777001 201.87175,49.1081283 196.196927,55.1099951 Z" id="path22" fill="#C6C5C5"></path>
                        <path d="M156.823939,59.0690337 C157.049005,58.80272 157.401567,58.6199266 157.812491,58.5792067 C158.310509,58.533434 158.779195,58.7236581 159.112604,59.0250444 C157.411444,62.1093494 155.301156,61.9527118 155.301156,61.9527118 C154.502054,61.4602098 153.786154,60.4704501 153.620049,59.5006046 C153.25312,57.3014359 155.320011,55.3323195 158.244964,55.0624391 C159.75428,54.9376046 161.197751,55.2927886 162.273696,55.9547089 C161.862772,56.1312606 161.668234,56.1386913 161.040924,56.6478379 C160.506693,56.4023299 159.889259,56.2977067 159.223041,56.3512072 C157.650576,56.4917947 156.533629,57.566858 156.73116,58.7515973 C156.750314,58.8562205 156.782637,58.9566826 156.823939,59.0690337" id="path24" fill="#FFFFFF"></path>
                        <path d="M180.761986,54.4290524 C181.056187,54.0150178 181.035536,53.5638301 180.887089,53.1497955 C184.855364,51.7228177 187.80875,49.6758283 188.673695,47.9103111 C190.173733,44.8494869 187.853044,40.0828877 183.566026,36.3883794 C183.140437,35.109717 182.555327,34.1217407 182.555327,34.1217407 C189.390493,37.8067377 193.57276,44.456258 191.819225,48.4432358 C190.737294,50.8757261 188.253493,53.4904155 181.832244,55.9547089 C177.799023,57.5094935 174.225809,56.7765364 171.423565,54.9218516 C174.286266,54.854976 177.054691,54.355935 179.51395,53.606036 C180.304971,54.0679239 180.761986,54.4290524 180.761986,54.4290524" id="path26" fill="#FFFFFF"></path>
                        <path d="M103.9147,75.4550544 C103.9147,75.4550544 112.505796,72.704236 118.073173,64.8447122 C118.073173,64.8447122 114.723529,66.9740329 108.54201,69.3675868 C102.342833,66.7499252 99.522332,64.4963643 99.522332,64.4963643 C115.736623,57.7199289 120.174483,50.0393346 121.965728,46.2036445 C121.965728,46.2036445 115.571714,47.8077685 106.580768,48.2964065 C106.580768,48.2964065 122.247958,44.5662313 129.990868,39.4432592 C129.990868,39.4432592 127.735126,38.7768805 125.361164,38.4193187 C125.361164,38.4193187 135.756375,36.3747071 145.356974,40.6089761 C144.813165,41.6670975 144.333704,42.7189772 143.951212,43.7568873 C142.630449,43.9744561 141.064568,44.1590329 141.064568,44.1590329 C141.064568,44.1590329 143.423266,47.753079 149.425511,52.2691175 C146.386828,52.931335 143.137445,54.0129372 139.774033,55.6726423 C139.774033,55.6726423 145.297415,55.0814615 151.149716,54.9364157 C150.345526,56.0569544 149.805907,57.4821488 149.787351,58.9878912 C141.581441,64.9754912 134.013614,69.4279235 134.013614,69.4279235 C134.013614,69.4279235 141.059181,67.9747899 150.317392,65.3208668 C149.869057,66.9862192 148.708713,68.7511419 148.708713,68.7511419 C148.708713,68.7511419 154.133928,69.547408 159.033591,65.1261844 C163.496591,61.0874895 165.336921,58.9471714 170.912379,59.1608763 C172.359143,59.8534108 173.882824,60.3114347 175.448406,60.5281118 C170.345226,68.1207274 133.096592,82.1128971 103.9147,75.4550544" id="path28" fill="#FFFFFF"></path>
                        <path d="M103.493899,112.8861 C106.731011,110.873291 110.826484,110.846541 114.479309,110.763318 C118.759443,110.671178 123.039877,110.44707 127.327793,110.090995 L127.659705,102.122984 C124.316645,102.39435 120.977775,102.588438 117.639803,102.705248 L117.563484,106.660422 C111.875792,106.862238 106.195583,106.834002 100.507891,106.577496 L100.272351,94.189748 C110.336548,94.6308301 120.386679,94.3975084 130.469731,93.4888912 C133.78406,93.1895855 136.913726,92.8388599 139.971564,93.4564937 C145.896592,94.5672239 145.676016,98.0914221 145.452746,100.911494 L144.909237,107.619865 C144.722181,109.991424 144.446835,113.084349 139.713577,115.674071 C136.374707,117.531728 132.353158,118.087539 128.855066,118.413001 C125.005309,118.777993 121.162436,119.031229 117.321359,119.173302 L117.183387,126.32335 C120.344778,126.203568 124.406731,126.010966 127.573809,125.734547 L127.719264,122.241557 C132.942758,121.826928 140.027531,120.55748 141.765503,125.32616 C142.391616,127.083057 142.200371,129.525951 142.015111,131.940607 C133.021171,133.4624 123.188025,134.627522 114.265317,134.840336 C110.819301,134.9298 106.621172,134.83885 103.394535,132.540408 C100.598576,130.540083 100.456414,128.396792 100.325624,126.216943 L100.184659,119.34064 C100.230749,117.047251 100.34837,114.78091 103.493899,112.8861" id="path30" fill="#FFFFFF"></path>
                        <path d="M152.932581,121.651566 L154.296442,98.3363356 C154.296442,98.3363356 151.446311,98.8963078 150.022293,99.1548936 L150.422742,90.8251597 C159.435836,89.2263858 168.481253,87.1024151 177.562584,84.4122306 L176.684769,92.6822222 C175.216756,93.1265738 172.288211,93.9703959 172.288211,93.9703959 L170.024388,117.021987 C173.291429,118.045036 173.549116,121.435483 173.26569,124.147959 C164.953232,126.891644 156.705421,129.226942 148.49113,130.859005 L148.875417,122.520355 C150.225511,122.257608 152.932581,121.651566 152.932581,121.651566" id="path32" fill="#FFFFFF"></path>
                        <path d="M88.5147752,95.2511389 C92.7497171,97.7552605 92.8374088,100.821138 92.9361743,103.467036 L93.7319842,125.7717 C97.2375584,128.141773 97.960641,131.788725 98.0336676,134.542516 C91.1610901,134.096678 84.2744461,133.263259 77.3539824,132.041664 L74.9381201,99.9829628 C71.6743716,99.455091 68.4040387,98.8541018 65.1280193,98.1788063 L68.230451,130.210757 C61.2746711,128.647056 54.2760929,126.69399 47.2176569,124.348883 C46.8216973,121.607873 46.9485959,118.238827 50.1731375,117.2348 L47.1589962,95.0204922 C46.8106236,92.4168002 46.3715664,89.3333868 50.3039269,88.3445189 C53.8041139,87.5125858 59.3346787,88.7618229 63.5510646,89.612184 C67.396332,90.3992361 71.2338179,91.08969 75.0638215,91.6823569 C79.2257369,92.341305 84.7533088,93.0733705 88.5147752,95.2511389" id="path34" fill="#FFFFFF"></path>
                        <path d="M158.079158,42.3444736 C159.850351,38.9718602 162.156375,36.6341846 165.533254,34.5360725 C165.533254,34.5360725 165.142083,36.9929353 165.347396,39.326747 C165.582338,42.0546791 163.941036,43.1814595 162.450277,43.2860827 C162.783385,42.1964555 162.429326,40.9008512 162.429326,40.9008512 C161.162435,42.3079149 158.079158,42.3444736 158.079158,42.3444736" id="path36" fill="#DD1731"></path>
                        <path d="M136.412118,24.171476 C140.25978,25.5699499 144.964605,29.6918678 144.964605,29.6918678 C141.401268,28.8673951 139.722555,28.8483727 139.722555,28.8483727 C139.722555,28.8483727 138.034864,26.0681586 136.412118,24.171476" id="path38" fill="#DD1731"></path>
                        <path d="M147.453195,23.718921 C151.263146,25.9224292 152.433966,31.4779233 152.433966,31.4779233 C150.010621,30.3772987 147.994908,30.1300074 147.994908,30.1300074 C148.438156,26.2028313 147.453195,23.718921 147.453195,23.718921" id="path40" fill="#DD1731"></path>
                        <path d="M104.111632,33.0407329 C104.111632,33.0407329 114.599623,26.6242966 124.34837,26.7422355 C128.810173,27.9944152 130.512829,29.865477 130.512829,29.865477 C116.027232,28.7517745 104.111632,33.0407329 104.111632,33.0407329" id="path42" fill="#DD1731"></path>
                        <path d="M84.2322463,79.2414052 C77.8696576,75.3450811 72.9203124,70.0339655 72.9203124,70.0339655 C72.9203124,70.0339655 84.6356881,77.3882066 108.066739,80.8699016 C99.990121,80.8303707 92.0377081,80.2638596 84.2322463,79.2414052" id="path44" fill="#DD1731"></path>
                        <path d="M162.450277,43.2860827 C163.941036,43.1814595 165.582338,42.0546791 165.347396,39.326747 C165.142083,36.9929353 165.533254,34.5360725 165.533254,34.5360725 C162.156375,36.6341846 159.850351,38.9718602 158.079158,42.3444736 C158.079158,42.3444736 161.162435,42.3079149 162.429326,40.9008512 C162.429326,40.9008512 162.783385,42.1964555 162.450277,43.2860827 Z M157.028653,47.7031452 C154.847733,46.1768942 153.629326,44.7285162 153.629326,44.7285162 C153.629326,44.7285162 156.779644,35.4262617 165.568271,30.5752506 C166.161163,28.5865471 165.864567,25.7867162 165.864567,25.7867162 C155.812641,30.5027277 150.281777,40.6054094 148.507591,44.9422211 C148.507591,44.9422211 151.688735,48.6465377 155.59835,51.3964645 C163.684844,50.8902901 169.132805,52.9988051 169.132805,52.9988051 C169.822368,53.7189816 170.588847,54.3699046 171.423565,54.9218516 C174.225809,56.7765364 177.799023,57.5094935 181.832244,55.9547089 C188.253493,53.4904155 190.737294,50.8757261 191.819225,48.4432358 C193.57276,44.456258 189.390493,37.8067377 182.555327,34.1217407 C182.555327,34.1217407 183.140437,35.109717 183.566026,36.3883794 C184.104447,38.0043924 184.387874,40.0849682 182.910583,41.2224488 C173.07205,48.8109032 157.028653,47.7031452 157.028653,47.7031452 Z M147.453195,23.718921 C147.453195,23.718921 148.438156,26.2028313 147.994908,30.1300074 C147.994908,30.1300074 150.010621,30.3772987 152.433966,31.4779233 C152.433966,31.4779233 151.263146,25.9224292 147.453195,23.718921 Z M136.412118,24.171476 C138.034864,26.0681586 139.722555,28.8483727 139.722555,28.8483727 C139.722555,28.8483727 141.401268,28.8673951 144.964605,29.6918678 C144.964605,29.6918678 140.25978,25.5699499 136.412118,24.171476 Z M124.34837,26.7422355 C114.599623,26.6242966 104.111632,33.0407329 104.111632,33.0407329 C104.111632,33.0407329 116.027232,28.7517745 130.512829,29.865477 C130.512829,29.865477 128.810173,27.9944152 124.34837,26.7422355 Z M72.9203124,70.0339655 C72.9203124,70.0339655 77.8696576,75.3450811 84.2322463,79.2414052 C92.0377081,80.2638596 99.990121,80.8303707 108.066739,80.8699016 C84.6356881,77.3882066 72.9203124,70.0339655 72.9203124,70.0339655 Z M50.3039269,88.3445189 C46.3715664,89.3333868 46.8106236,92.4168002 47.1589962,95.0204922 L50.1731375,117.2348 C46.9485959,118.238827 46.8216973,121.607873 47.2176569,124.348883 C54.2760929,126.69399 61.2746711,128.647056 68.230451,130.210757 L65.1280193,98.1788063 C68.4040387,98.8541018 71.6743716,99.455091 74.9381201,99.9829628 L77.3539824,132.041664 C84.2744461,133.263259 91.1610901,134.096678 98.0336676,134.542516 C97.960641,131.788725 97.2375584,128.141773 93.7319842,125.7717 L92.9361743,103.467036 C92.8374088,100.821138 92.7497171,97.7552605 88.5147752,95.2511389 C84.7533088,93.0733705 79.2257369,92.341305 75.0638215,91.6823569 C71.2338179,91.08969 67.396332,90.3992361 63.5510646,89.612184 C59.3346787,88.7618229 53.8041139,87.5125858 50.3039269,88.3445189 Z M100.325624,126.216943 C100.456414,128.396792 100.598576,130.540083 103.394535,132.540408 C106.621172,134.83885 110.819301,134.9298 114.265317,134.840336 C123.188025,134.627522 133.021171,133.4624 142.015111,131.940607 C142.200371,129.525951 142.391616,127.083057 141.765503,125.32616 C140.027531,120.55748 132.942758,121.826928 127.719264,122.241557 L127.573809,125.734547 C124.406731,126.010966 120.344778,126.203568 117.183387,126.32335 L117.321359,119.173302 C121.162436,119.031229 125.005309,118.777993 128.855066,118.413001 C132.353158,118.087539 136.374707,117.531728 139.713577,115.674071 C144.446835,113.084349 144.722181,109.991424 144.909237,107.619865 L145.452746,100.911494 C145.676016,98.0914221 145.896592,94.5672239 139.971564,93.4564937 C136.913726,92.8388599 133.78406,93.1895855 130.469731,93.4888912 C120.386679,94.3975084 110.336548,94.6308301 100.272351,94.189748 L100.507891,106.577496 C106.195583,106.834002 111.875792,106.862238 117.563484,106.660422 L117.639803,102.705248 C120.977775,102.588438 124.316645,102.39435 127.659705,102.122984 L127.327793,110.090995 C123.039877,110.44707 118.759443,110.671178 114.479309,110.763318 C110.826484,110.846541 106.731011,110.873291 103.493899,112.8861 C100.34837,114.78091 100.230749,117.047251 100.184659,119.34064 L100.325624,126.216943 Z M173.26569,124.147959 C173.549116,121.435483 173.291429,118.045036 170.024388,117.021987 L172.288211,93.9703959 C172.288211,93.9703959 175.216756,93.1265738 176.684769,92.6822222 L177.562584,84.4122306 C168.481253,87.1024151 159.435836,89.2263858 150.422742,90.8251597 L150.022293,99.1548936 C151.446311,98.8963078 154.296442,98.3363356 154.296442,98.3363356 L152.932581,121.651566 C152.932581,121.651566 150.225511,122.257608 148.875417,122.520355 L148.49113,130.859005 C156.705421,129.226942 164.953232,126.891644 173.26569,124.147959 Z M159.223041,56.3512072 C159.889259,56.2977067 160.506693,56.4023299 161.040924,56.6478379 C161.668234,56.1386913 161.862772,56.1312606 162.273696,55.9547089 C161.197751,55.2927886 159.75428,54.9376046 158.244964,55.0624391 C155.320011,55.3323195 153.25312,57.3014359 153.620049,59.5006046 C153.786154,60.4704501 154.502054,61.4602098 155.301156,61.9527118 C155.301156,61.9527118 157.411444,62.1093494 159.112604,59.0250444 C158.779195,58.7236581 158.310509,58.533434 157.812491,58.5792067 C157.401567,58.6199266 157.049005,58.80272 156.823939,59.0690337 C156.782637,58.9566826 156.750314,58.8562205 156.73116,58.7515973 C156.533629,57.566858 157.650576,56.4917947 159.223041,56.3512072 Z M175.448406,60.5281118 C173.882824,60.3114347 172.359143,59.8534108 170.912379,59.1608763 C165.336921,58.9471714 163.496591,61.0874895 159.033591,65.1261844 C154.133928,69.547408 148.708713,68.7511419 148.708713,68.7511419 C148.708713,68.7511419 149.869057,66.9862192 150.317392,65.3208668 C141.059181,67.9747899 134.013614,69.4279235 134.013614,69.4279235 C134.013614,69.4279235 141.581441,64.9754912 149.787351,58.9878912 C149.805907,57.4821488 150.345526,56.0569544 151.149716,54.9364157 C145.297415,55.0814615 139.774033,55.6726423 139.774033,55.6726423 C143.137445,54.0129372 146.386828,52.931335 149.425511,52.2691175 C143.423266,47.753079 141.064568,44.1590329 141.064568,44.1590329 C141.064568,44.1590329 142.630449,43.9744561 143.951212,43.7568873 C144.333704,42.7189772 144.813165,41.6670975 145.356974,40.6089761 C146.29315,38.7872834 147.420872,36.9477571 148.5878,35.1299283 C144.979271,33.7814179 139.278111,33.431584 139.278111,33.431584 C139.278111,33.431584 140.811968,35.3552249 141.545227,36.880287 C128.506693,32.2215805 115.505272,35.1736204 115.505272,35.1736204 C117.123828,36.2718672 119.627981,38.2329585 119.627981,38.2329585 C114.060304,39.3422027 105.377925,40.3982435 95.6315726,39.0729167 C95.6315726,39.0729167 98.6771393,41.3796808 102.172238,43.2495241 C108.720386,43.3172914 113.628729,43.2423907 113.628729,43.2423907 C102.849231,46.6054929 90.7723135,46.9508684 90.7723135,46.9508684 C96.8323208,50.6132763 103.277513,52.5291894 105.822669,53.2024043 C111.818927,51.2303157 115.61571,49.5346464 115.61571,49.5346464 C109.469208,57.4658014 89.3677494,62.3774465 89.3677494,62.3774465 C97.0391296,67.3090056 105.339316,68.9131296 108.54201,69.3675868 C114.723529,66.9740329 118.073173,64.8447122 118.073173,64.8447122 C112.505796,72.704236 103.9147,75.4550544 103.9147,75.4550544 C133.096592,82.1128971 170.345226,68.1207274 175.448406,60.5281118 Z M183.97276,59.0586308 C184.822143,59.5335966 185.386901,60.501956 185.386901,60.501956 C181.21092,65.4507542 174.560415,69.6576785 166.235387,73.2133826 L184.030224,76.6721913 L181.877137,96.9456193 C180.421095,97.3867014 178.966251,97.8331335 177.507814,98.2650016 L175.934152,114.282166 C179.706094,118.154415 178.978522,123.459289 178.484994,128.308516 C157.482375,135.933827 132.073023,140.418062 108.960416,140.296497 C85.7598183,140.174338 63.4032158,135.981086 42.4113719,128.337347 C41.7957341,124.00113 40.9984277,119.342424 43.5908706,115.578365 L44.4603057,114.299999 L41.5976046,93.7757134 C41.4240169,92.5428236 41.4895613,91.3649205 41.7472492,90.2669709 C30.4005978,90.0871497 20.9712827,89.4588158 14.8002091,88.5287984 C14.8002091,88.5287984 28.0577621,86.0234879 41.6502795,78.4311695 C41.6502795,78.4311695 34.3545072,77.4140652 26.2059103,75.1492098 C47.7776269,68.4247887 87.0820779,49.8999361 98.0980148,4.62393115 C99.7171692,5.75641829 104.844891,9.79508347 109.089111,17.9021363 C102.336548,19.4676507 99.1488191,23.1847183 99.1488191,23.1847183 C118.275792,16.5768095 130.731011,24.1472224 130.731011,24.1472224 C127.511258,19.5895725 123.303551,17.063159 123.303551,17.063159 C132.292103,16.7316935 138.898912,19.8561537 142.793562,22.4618668 C142.733405,19.4619737 141.298313,16.1732373 141.298313,16.1732373 C141.298313,16.1732373 151.197303,18.4365471 156.889484,25.9022476 C160.812865,22.4490862 169.643692,19.4857815 169.643692,19.4857815 C171.633067,26.0895291 169.896891,30.7657719 170.017803,35.2862687 C170.098612,38.4163464 170.76034,41.2384989 170.76034,41.2384989 C173.950164,40.8738037 176.992738,40.0076897 178.45716,38.7694499 C181.664343,36.0578651 177.124724,31.7124339 176.521657,31.0861806 C175.916494,30.4581439 175.65282,29.9540501 176.026932,29.7034596 C178.624163,29.9029274 186.550239,31.2092318 191.908113,36.6876851 C197.551211,42.3415013 201.942382,52.4593415 183.97276,59.0586308 Z" id="path46" fill="#0F2B53"></path>
                        <path d="M180.761986,54.4290524 C180.761986,54.4290524 180.304971,54.0679239 179.51395,53.606036 C178.487089,53.0059385 176.896666,52.235531 175.00456,51.8613246 C175.00456,51.8613246 176.618028,51.0650585 179.856935,51.7174676 C179.856935,51.7174676 180.605458,52.3663101 180.887089,53.1497955 C181.035536,53.5638301 181.056187,54.0150178 180.761986,54.4290524" id="path48" fill="#0F2B53"></path>
                        <path d="M37.8493069,93.872906 C38.2000739,93.872906 38.4068827,94.0277603 38.4068827,94.3107186 C38.4068827,94.5681156 38.264421,94.7357506 37.8756444,94.7357506 L37.5126066,94.7357506 L37.5126066,93.872906 L37.8493069,93.872906 Z M36.9804705,95.1738604 L37.9657304,95.1738604 C38.5104367,95.1738604 38.9770286,94.9545082 38.9770286,94.3365772 C38.9770286,94.0277603 38.7827899,93.7314269 38.4975673,93.6279926 L39.0943499,92.5597655 L38.4975673,92.5597655 L38.0435456,93.460952 L37.5126066,93.460952 L37.5126066,92.5597655 L36.9804705,92.5597655 L36.9804705,95.1738604 Z M39.8458651,93.8342668 C39.8458651,95.0445675 39.003366,95.9077092 37.9139534,95.9077092 C36.8251394,95.9077092 35.9955098,95.0445675 35.9955098,93.8342668 C35.9955098,92.6111854 36.8251394,91.7739023 37.9139534,91.7739023 C39.003366,91.7739023 39.8458651,92.6111854 39.8458651,93.8342668 Z M35.4759437,93.8342668 C35.4759437,95.3409009 36.5782258,96.3710832 37.9139534,96.3710832 C39.263149,96.3710832 40.3654311,95.3409009 40.3654311,93.8342668 C40.3654311,92.3273354 39.263149,91.2971532 37.9139534,91.2971532 C36.5782258,91.2971532 35.4759437,92.3273354 35.4759437,93.8342668 Z" id="path50" fill="#0F2B53"></path>
                    </g>
                </g>
            </g>
        </g>
    </g>
</svg>