<?xml version="1.0" encoding="UTF-8"?>
<svg width="200px" height="200px" viewBox="0 0 200 200" version="1.1" xmlns="http://www.w3.org/2000/svg" xmlns:xlink="http://www.w3.org/1999/xlink">
    <!-- Generator: Sketch 51.3 (57544) - http://www.bohemiancoding.com/sketch -->
    <title>southern-nazarene</title>
    <desc>Created with Sketch.</desc>
    <defs>
        <polygon id="path-1" points="81.0100751 113.217068 89.5967078 97.078744 96.3819491 71.7953694 99.5043609 54.1860331 9.26965972 0 2.13162821e-14 40.7559926 75.4858079 122.469707"></polygon>
    </defs>
    <g id="southern-nazarene" stroke="none" stroke-width="1" fill="none" fill-rule="evenodd">
        <g id="southern-nazarene_BGL" transform="translate(0.000000, 29.000000)">
            <g id="southern-nazarene" transform="translate(0.000000, 2.999512)">
                <g id="g10" transform="translate(95.432258, 68.988780) scale(-1, 1) rotate(-180.000000) translate(-95.432258, -68.988780) ">
                    <g id="g12" transform="translate(0.000000, -1.999675)">
                        <polyline id="path14" fill="#1B1615" fill-rule="nonzero" points="142.219856 141.822248 196.561833 141.822248 136.51545 108.415917 159.333076 112.181526 100.787852 73.4495478 125.88724 78.1834562 0.930718127 0.61191133 60.3766369 52.7924929 32.9354401 48.1123788 82.6538449 83.8856641 57.0740859 78.5062227 142.219856 141.822248 142.219856 141.822248"></polyline>
                        <polygon id="path16" stroke="#1B1615" stroke-width="0.889999978" points="142.219856 141.822248 196.561833 141.822248 136.51545 108.415917 159.333076 112.181526 100.787852 73.4495478 125.88724 78.1834562 0.930718127 0.61191133 60.3766369 52.7924929 32.9354401 48.1123788 82.6538449 83.8856641 57.0740859 78.5062227"></polygon>
                        <polyline id="path18" fill="#FFFFFF" fill-rule="nonzero" points="145.282222 137.572489 179.928985 137.572489 117.240561 101.74541 142.339949 106.802084 83.8547726 67.5859567 107.933372 72.1584819 28.1917758 21.4841439 72.5660526 58.0643454 45.6052268 52.7924929 98.0257189 90.7713491 68.6029914 83.6704865 145.282222 137.572489 145.282222 137.572489"></polyline>
                        <polygon id="path20" stroke="#FFFFFF" stroke-width="0.889999978" points="145.282222 137.572489 179.928985 137.572489 117.240561 101.74541 142.339949 106.802084 83.8547726 67.5859567 107.933372 72.1584819 28.1917758 21.4841439 72.5660526 58.0643454 45.6052268 52.7924929 98.0257189 90.7713491 68.6029914 83.6704865"></polygon>
                        <path d="M6.33489257,85.9836463 L6.33489257,107.23244 C6.33489257,112.450498 8.37646957,117.291995 12.8799483,121.272782 C17.0831951,125.199774 21.4663408,127.190167 28.1917758,127.190167 C34.496646,127.190167 38.6398464,125.468746 43.3234643,121.649343 C47.9470357,117.614762 49.8084736,112.450498 49.8084736,107.23244 L49.8084736,95.1824911 L33.1756256,95.1824911 L33.1756256,107.23244 C33.1756256,110.298721 31.194095,112.181526 28.1917758,112.181526 C24.4686599,112.181526 22.6672685,109.975955 22.6672685,106.533112 L22.6672685,92.1162095 L49.8084736,59.5167946 L49.8084736,31.2747273 C49.8084736,25.8414915 47.5267111,21.3227607 43.3234643,17.1267964 C39.1202175,13.2535986 34.6167388,11.4783829 28.1317295,11.4783829 C21.5266274,11.4783829 17.5633259,13.038421 12.8799483,16.8578243 C8.19657061,20.8924054 6.33489257,25.8414915 6.33489257,31.2747273 L6.33489257,46.6599297 L23.0878333,46.6599297 L23.0878333,31.2747273 C23.0878333,28.3160345 24.9492712,26.3256412 28.1317295,26.3256412 C31.5543733,26.3256412 33.4158111,28.6925954 33.4158111,31.9202602 L33.4158111,53.0614649 L6.33489257,85.9836463" id="path22" fill="#1B1615" fill-rule="nonzero"></path>
                        <path d="M14.7678666,18.6647787 C19.0945087,15.1429122 22.4718775,13.952926 28.1317295,13.952926 C33.7208468,13.952926 37.5409976,15.3629314 41.3047049,18.8171245 C45.2221309,22.7403511 47.04634,26.6994586 47.04634,31.2747273 L47.04634,58.6958918 L19.9051349,91.2953067 L19.9051349,106.533112 C19.9051349,111.543524 23.0805677,114.656069 28.1917758,114.656069 C32.7522986,114.656069 35.9377592,111.603236 35.9377592,107.23244 L35.9377592,97.6570341 L47.04634,97.6570341 L47.04634,107.23244 C47.04634,110.743601 46.0705863,115.77822 41.4290009,119.848306 C37.0131899,123.440697 33.5437099,124.715624 28.1917758,124.715624 C22.57864,124.715624 18.8444756,123.270168 14.8736683,119.559968 L14.8199869,119.511015 C11.0224735,116.154781 9.09726635,112.02337 9.09726635,107.23244 L9.09726635,86.7970178 L36.1779447,53.8748365 L36.1779447,31.9202602 C36.1779447,27.0938792 32.944447,23.8510982 28.1317295,23.8510982 C23.462883,23.8510982 20.3256997,26.8345901 20.3256997,31.2747273 L20.3256997,44.1853866 L9.09726635,44.1853866 L9.09726635,31.2747273 C9.09726635,26.0884078 10.951919,21.9628066 14.7678666,18.6647787 Z M28.1317295,9.00448544 C21.0425334,9.00448544 16.4050913,10.6369845 11.0203718,15.0281687 L10.9652493,15.0746471 C6.06000023,19.2999831 3.57275896,24.750487 3.57275896,31.2747273 L3.57275896,49.1339348 L25.8499669,49.1339348 L25.8499669,31.2747273 C25.8499669,28.7995387 27.5077875,28.7995387 28.1317295,28.7995387 C30.2165399,28.7995387 30.6536775,30.4968063 30.6536775,31.9202602 L30.6536775,52.2480934 L3.57275896,85.1702747 L3.57275896,107.23244 C3.57275896,113.298298 6.11067937,118.753051 10.9124685,123.009803 C15.9151128,127.673779 21.0851664,129.66471 28.1917758,129.66471 C34.8725364,129.66471 39.7951388,127.872281 45.1825003,123.479429 L45.2509532,123.421869 C50.0396522,119.243119 52.5706072,113.645272 52.5706072,107.23244 L52.5706072,92.707948 L30.413492,92.707948 L30.413492,107.23244 C30.413492,109.706983 28.7412002,109.706983 28.1917758,109.706983 C27.2263501,109.706983 25.4296422,109.706983 25.4296422,106.533112 L25.4296422,92.9376502 L52.5706072,60.3376974 L52.5706072,31.2747273 C52.5706072,25.4728921 50.2185904,20.3044324 45.3794524,15.4742858 L45.3043944,15.4022013 C40.5024852,10.9776107 35.2063943,9.00448544 28.1317295,9.00448544 Z" id="path24" fill="#1B1615" fill-rule="nonzero"></path>
                        <path d="M6.33489257,85.9836463 L6.33489257,107.23244 C6.33489257,112.450498 8.37646957,117.291995 12.8799483,121.272782 C17.0831951,125.199774 21.4663408,127.190167 28.1917758,127.190167 C34.496646,127.190167 38.6398464,125.468746 43.3234643,121.649343 C47.9470357,117.614762 49.8084736,112.450498 49.8084736,107.23244 L49.8084736,95.1824911 L33.1756256,95.1824911 L33.1756256,107.23244 C33.1756256,110.298721 31.194095,112.181526 28.1917758,112.181526 C24.4686599,112.181526 22.6672685,109.975955 22.6672685,106.533112 L22.6672685,92.1162095 L49.8084736,59.5167946 L49.8084736,31.2747273 C49.8084736,25.8414915 47.5267111,21.3227607 43.3234643,17.1267964 C39.1202175,13.2535986 34.6167388,11.4783829 28.1317295,11.4783829 C21.5266274,11.4783829 17.5633259,13.038421 12.8799483,16.8578243 C8.19657061,20.8924054 6.33489257,25.8414915 6.33489257,31.2747273 L6.33489257,46.6599297 L23.0878333,46.6599297 L23.0878333,31.2747273 C23.0878333,28.3160345 24.9492712,26.3256412 28.1317295,26.3256412 C31.5543733,26.3256412 33.4158111,28.6925954 33.4158111,31.9202602 L33.4158111,53.0614649 L6.33489257,85.9836463" id="path26" fill="#AB252C" fill-rule="nonzero"></path>
                        <polyline id="path30" fill="#1B1615" points="79.4113402 125.737718 103.009569 60.216122 103.009569 125.737718 125.046591 125.737718 125.046591 111.535993 119.402231 111.535993 119.402231 26.0566691 124.926498 26.0566691 124.926498 12.7694489 102.769383 12.7694489 83.8547726 64.6272639 83.7947262 12.6618601 60.6768689 12.6618601 60.6768689 25.8414915 67.1618782 25.8414915 66.8616463 111.320815 60.9771008 111.320815 60.9771008 125.737718 79.4113402 125.737718 79.4113402 125.737718"></polyline>
                        <path d="M63.4390025,15.1364031 L81.0349944,15.1364031 L81.092639,64.6299537 L86.4800004,65.3959861 L104.77253,15.2433464 L122.164365,15.2433464 L122.164365,23.5821261 L116.640698,23.5821261 L116.640698,114.010536 L122.284457,114.010536 L122.284457,123.263175 L105.771102,123.263175 L105.771102,60.216122 L100.380738,59.4565449 L77.4003869,123.263175 L63.7392344,123.263175 L63.7392344,113.795358 L69.6147729,113.795358 L69.9330187,23.367594 L63.4390025,23.367594 L63.4390025,15.1364031 Z M86.553257,10.1879625 L57.9147353,10.1879625 L57.9147353,28.3160345 L64.3907376,28.3160345 L64.1079192,108.846272 L58.2149672,108.846272 L58.2149672,128.212261 L81.4222936,128.212261 L100.247435,75.9439948 L100.247435,128.212261 L127.808124,128.212261 L127.808124,109.06145 L122.164365,109.06145 L122.164365,28.5305666 L127.688031,28.5305666 L127.688031,10.2949058 L100.766236,10.2949058 L86.5994927,49.1366245 L86.553257,10.1879625 Z" id="path32" fill="#1B1615" fill-rule="nonzero"></path>
                        <polyline id="path34" fill="#AB252C" points="79.4113402 125.737718 103.009569 60.216122 103.009569 125.737718 125.046591 125.737718 125.046591 111.535993 119.402231 111.535993 119.402231 26.0566691 124.926498 26.0566691 124.926498 12.6618601 102.769383 12.7694489 83.8547726 64.6272639 83.7947262 12.6618601 60.6768689 12.6618601 60.6768689 25.8414915 66.8616463 25.8414915 66.8616463 111.320815 60.9771008 111.320815 60.9771008 125.737718 79.4113402 125.737718 79.4113402 125.737718"></polyline>
                        <g id="g38" transform="translate(3.445161, 6.172909)">
                            <g id="g40-Clipped" transform="translate(0.000000, 0.000000)">
                                <mask id="mask-2" fill="white">
                                    <use xlink:href="#path-1"></use>
                                </mask>
                                <g id="path42"></g>
                                <g id="g40" mask="url(#mask-2)">
                                    <g transform="translate(-2.514443, -5.560998)">
                                        <polyline id="path46" stroke="none" fill="#1B1615" fill-rule="nonzero" points="141.289138 141.210337 195.631115 141.210337 135.584732 107.804006 158.402357 111.569615 99.8571343 72.8376365 124.956522 77.5715449 0 0 59.4459188 52.1805815 32.0047219 47.5004675 81.7231268 83.2737528 56.1433678 77.8943114 141.289138 141.210337 141.289138 141.210337"></polyline>
                                        <polygon id="path48" stroke="#1B1615" stroke-width="0.889999978" fill="none" points="141.289138 141.210337 195.631115 141.210337 135.584732 107.804006 158.402357 111.569615 99.8571343 72.8376365 124.956522 77.5715449 0 0 59.4459188 52.1805815 32.0047219 47.5004675 81.7231268 83.2737528 56.1433678 77.8943114"></polygon>
                                        <polyline id="path50" stroke="none" fill="#FFFFFF" fill-rule="nonzero" points="144.351504 136.960578 178.998267 136.960578 116.309843 101.133498 141.409231 106.190173 82.9240544 66.9740454 107.002654 71.5465706 27.2610577 20.8722326 71.6353345 57.4524341 44.6745087 52.1805815 97.0950007 90.1594378 67.6722732 83.0585751 144.351504 136.960578 144.351504 136.960578"></polyline>
                                        <polygon id="path52" stroke="#FFFFFF" stroke-width="0.889999978" fill="none" points="144.351504 136.960578 178.998267 136.960578 116.309843 101.133498 141.409231 106.190173 82.9240544 66.9740454 107.002654 71.5465706 27.2610577 20.8722326 71.6353345 57.4524341 44.6745087 52.1805815 97.0950007 90.1594378 67.6722732 83.0585751"></polygon>
                                    </g>
                                </g>
                            </g>
                        </g>
                        <path d="M171.162213,125.791513 L194.460209,125.791513 L194.460209,111.482198 L188.755803,111.482198 L188.695757,31.0057552 C188.695757,25.7339026 186.534087,21.3227607 181.67033,17.1267964 C177.34699,13.2535986 172.423187,11.4783829 165.037482,11.4783829 C157.952009,11.4783829 153.44853,13.038421 148.524727,16.8578243 C143.480831,20.8924054 141.259114,25.8414915 141.259114,31.2747273 L141.259114,111.482198 L135.734847,111.482198 L135.734847,125.791513 L159.573261,125.791513 L159.573261,31.2747273 C159.573261,28.2622401 161.91507,26.3256412 165.037482,26.3256412 C169.120636,26.3256412 171.162213,28.6925954 171.162213,31.9202602 L171.162213,125.791513" id="path54" fill="#1B1615" fill-rule="nonzero"></path>
                        <path d="M138.49638,113.956742 L144.020648,113.956742 L144.020648,31.2747273 C144.020648,26.2998199 146.155296,22.0703955 150.364548,18.7040486 C154.877634,15.2025702 158.726007,13.952926 165.037482,13.952926 C171.561521,13.952926 175.814006,15.3795538 179.717021,18.8767825 C184.027751,22.5955365 185.933623,26.3267171 185.933623,31.0057552 L185.996071,113.956742 L191.698676,113.956742 L191.698676,123.31697 L173.923746,123.31697 L173.923746,31.9202602 C173.923746,27.0938792 170.352788,23.8510982 165.037482,23.8510982 C160.271,23.8510982 156.811127,26.9732721 156.811127,31.2747273 L156.811127,123.31697 L138.49638,123.31697 L138.49638,113.956742 Z M165.037482,9.00448544 C157.403785,9.00448544 152.266817,10.6817415 146.71673,14.9873926 C141.251909,19.3581887 138.496981,24.8296723 138.496981,31.2747273 L138.496981,109.007655 L132.972714,109.007655 L132.972714,128.266056 L162.334794,128.266056 L162.334794,31.2747273 C162.334794,29.724964 163.345375,28.7995387 165.037482,28.7995387 C166.480997,28.7995387 168.400079,29.1235963 168.400079,31.9202602 L168.400079,128.266056 L197.222343,128.266056 L197.222343,109.007655 L191.516135,109.007655 L191.45729,31.0040876 C191.45729,24.9532381 188.956358,19.9768245 183.585809,15.3446413 C178.704039,10.969434 172.972011,9.00448544 165.037482,9.00448544 Z" id="path56" fill="#1B1615" fill-rule="nonzero"></path>
                        <path d="M171.342352,125.791513 L194.640349,125.791513 L194.640349,111.482198 L189.116081,111.482198 L188.815849,31.0057552 C188.815849,25.7339026 186.834319,21.3227607 182.030608,17.1267964 C177.587176,13.2535986 172.603326,11.4783829 165.337714,11.4783829 C158.252241,11.4783829 153.688716,13.038421 148.764912,16.8578243 C143.600923,20.8924054 141.4993,25.8414915 141.4993,31.2747273 L141.4993,111.482198 L135.914986,111.482198 L135.914986,125.791513 L159.873493,125.791513 L159.873493,31.2747273 C159.873493,28.2622401 162.035163,26.3256412 165.337714,26.3256412 C169.360821,26.3256412 171.342352,28.6925954 171.342352,31.9202602 L171.342352,125.791513" id="path58" fill="#AB252C" fill-rule="nonzero"></path>
                    </g>
                </g>
            </g>
        </g>
    </g>
</svg>