<?xml version="1.0" encoding="UTF-8"?>
<svg width="200px" height="200px" viewBox="0 0 200 200" version="1.1" xmlns="http://www.w3.org/2000/svg" xmlns:xlink="http://www.w3.org/1999/xlink">
    <!-- Generator: Sketch 51.3 (57544) - http://www.bohemiancoding.com/sketch -->
    <title>south-dakota-mines</title>
    <desc>Created with Sketch.</desc>
    <defs></defs>
    <g id="south-dakota-mines" stroke="none" stroke-width="1" fill="none" fill-rule="evenodd">
        <g id="south-dakota-mines_BGL" transform="translate(0.000000, 8.955224)">
            <g id="south-dakota-mines">
                <g id="g10" transform="translate(99.949262, 91.940709) scale(-1, 1) rotate(-180.000000) translate(-99.949262, -91.940709) translate(0.101471, 0.100926)" fill-rule="nonzero">
                    <g id="g12" transform="translate(0.162354, 0.201846)">
                        <path d="M154.167424,66.8270665 C155.315673,65.849326 156.144085,64.7076869 156.903497,63.4970165 C157.756668,62.1369804 157.766409,60.7700814 157.146216,59.3466657 C156.721254,58.3709437 156.118109,57.5074479 155.348144,56.7820146 C153.204664,54.7623467 151.872954,52.2699563 150.967424,49.5179924 C150.679245,48.6435969 150.485638,47.7465947 150.315572,46.8431335 C150.229524,46.3857512 150.423132,45.9860967 150.537185,45.5731205 C151.11476,43.4759439 151.693959,41.3795747 152.29954,39.290472 C152.817449,37.5041781 152.606795,35.7465463 152.154639,33.9936377 C151.342868,30.846904 149.933228,27.9455339 148.382746,25.111661 C144.673766,18.3364282 140.278028,12.0082433 135.564482,5.89595257 C134.669099,4.7348555 133.578485,3.71444487 132.433076,2.78958798 C131.174832,1.77387632 129.744898,1.57360908 128.236628,2.25215369 C128.020291,2.3494433 127.865649,2.44471446 127.692742,2.14366567 C126.598475,0.236538911 124.832874,-0.226918946 122.856618,0.0936685045 C120.802026,0.427186189 119.012072,1.42537765 117.270012,2.49800172 C114.890713,3.96214989 112.686349,5.66459706 110.613493,7.52601788 C109.937288,8.13312931 109.272042,8.48349303 108.332011,8.55304905 C105.148653,8.78799742 102.693453,10.4007444 100.71192,12.8067852 C99.9687443,13.7089546 99.3481457,14.6919835 98.8590538,15.7524806 C98.7340412,16.0237209 98.6191756,16.064857 98.3516972,15.9253009 C97.5289676,15.4965403 96.625061,15.387907 95.7146602,15.3451561 C94.9325192,15.3084201 94.2944675,15.6176477 93.804158,16.2216104 C92.2134934,18.1795134 90.6228288,20.1377394 89.0406878,22.102586 C88.8625041,22.3241318 88.7074559,22.4177882 88.3945183,22.3681342 C87.6501246,22.25066 87.0461673,22.6196339 86.4848279,23.053158 C85.3394195,23.9368384 84.3433769,24.9752536 83.3611344,26.0292514 C81.6738691,27.8402108 80.067375,29.7205244 78.4888869,31.6255842 C78.2047672,31.9682375 77.9291711,32.1931339 77.4258733,32.249247 C76.2386587,32.3809311 75.2872635,33.0692653 74.418263,33.8309097 C73.9644832,34.2286265 73.4822914,34.5184365 72.9034989,34.6447515 C71.3055284,34.9935812 70.3914746,36.0944071 69.7408405,37.4791089 C69.5289683,37.9304358 69.3487552,38.3990811 69.1896482,38.8714403 C69.094671,39.1528132 69.0276999,39.2735169 68.6599678,39.2028709 C67.6708253,39.013136 66.8200897,39.3086381 66.2445443,40.1709228 C65.1068477,41.8757114 63.9070507,43.5389198 63.0181618,45.4031664 C62.4012161,46.6982083 61.8727534,47.9944612 61.792794,49.4865044 C61.6848285,49.3254316 61.5748336,49.1659735 61.4697093,49.0036896 C60.5808204,47.631139 58.9199376,47.4393856 57.7802116,48.6012093 C56.2670711,50.143714 55.538507,52.0446965 55.3099935,54.1543876 C54.964991,57.3354754 55.7016729,60.3692159 56.6185678,63.3742944 C56.8673755,64.1905583 57.141754,64.999152 57.400303,65.8125901 C57.4518504,65.9740667 57.5614395,66.1492687 57.2562137,66.2086113 C55.2909169,66.5880812 53.7172995,67.6796626 52.267883,68.9759156 C49.5220688,71.4323774 47.4459653,74.4136381 45.6036518,77.5612196 C45.1790958,78.2870566 44.6936569,78.718199 43.861592,78.9648544 C41.238761,79.7415566 38.7363562,80.805687 36.6091112,82.5791031 C35.0751488,83.8571899 33.9521453,85.3956576 33.6396542,87.423803 C33.5472341,88.024092 33.541024,88.628418 33.7236724,89.1984302 C34.7896085,92.5244432 33.8432462,95.4556461 31.9631448,98.201151 C30.6424345,100.129988 28.9201413,101.65796 27.0795326,103.088642 C23.9080664,105.553582 20.9340228,108.251047 17.9631046,110.948917 C15.5074983,113.178908 13.0641093,115.423028 10.6449921,117.691773 C9.60044623,118.671128 8.87650916,119.915305 8.07094856,121.084395 C5.39145598,124.971943 3.16225258,129.090806 1.67522675,133.583487 C0.436010136,137.327724 -0.167744288,141.166022 0.0960811747,145.106453 C0.483417542,150.893772 2.63744286,155.989972 6.35336362,160.437439 C8.64409923,163.179311 11.2896192,165.515473 14.4712325,167.201288 C16.7430945,168.404692 19.1812476,169.089756 21.7315063,169.388488 C27.1486548,170.023091 32.3478023,168.995696 37.4557474,167.315533 C40.8336875,166.204978 44.0734641,164.773085 47.1898517,163.068296 C47.5121246,162.892287 47.7451028,162.912471 48.0271931,163.099784 C49.8390652,164.304399 51.3765588,165.801286 52.7070509,167.505268 C53.4555035,168.463631 53.5577866,169.570956 53.2253665,170.722284 C53.0630124,171.284626 52.8267871,171.825169 52.4631139,172.280533 C51.4930479,173.494029 51.1829515,174.945703 50.9515969,176.410295 C50.7470307,177.702108 50.8318607,178.993112 51.4561124,180.185213 C52.3364776,181.866588 53.8354121,182.686081 55.630643,183.044155 C57.5659042,183.430488 59.5072537,183.299692 61.438862,183.00863 C65.0260765,182.468088 68.4761018,181.420912 71.8668678,180.16301 C72.1781819,180.047958 72.4582427,179.965605 72.832469,180.105686 C76.6181615,181.524257 80.5353607,182.336081 84.576761,182.580718 C90.6053757,182.945251 96.472854,182.078525 102.224655,180.331753 C108.358394,178.469121 114.104107,175.781344 119.40091,172.177188 C120.420088,171.483646 121.375948,170.710173 122.590763,170.370669 C124.59746,169.809942 126.542868,170.115536 128.452559,170.804637 C131.094061,171.758156 133.384066,173.301064 135.549464,175.044204 C137.216841,176.386477 138.743781,177.874484 140.21958,179.423851 C140.978992,180.220738 141.97747,180.743114 142.941447,181.276794 C144.823132,182.317914 146.824958,182.990464 148.993198,183.030026 C151.968743,183.084524 154.529474,181.986888 156.784572,180.118604 C159.487363,177.878521 161.405171,175.0329 163.037236,171.980994 C165.599996,167.189581 167.331909,162.082885 168.798778,156.874863 C169.940939,152.820591 170.646368,148.67791 171.429727,144.548552 C173.007403,136.233317 175.198778,128.09167 178.611462,120.312537 C180.859255,115.188887 183.594516,110.351857 187.246266,106.071518 C189.806185,103.07088 192.691218,100.450116 196.294262,98.713839 C196.773613,98.4825239 197.273257,98.2859262 197.776961,98.1107242 C199.266966,97.5927882 199.882694,96.3381154 199.288478,94.8872487 C197.888985,91.474442 196.038554,88.3220162 193.660878,85.4889103 C188.425769,79.2506679 181.706337,75.5649658 173.720544,74.0890702 C172.094567,73.7883202 170.449514,73.6252289 168.787819,73.648643 C166.888682,73.6748829 164.989138,73.6559094 163.089595,73.6712497 C162.604562,73.6752866 162.118717,73.7269591 161.634496,73.7701541 C161.431554,73.7887239 161.31547,73.7640987 161.253776,73.529554 C160.346622,70.045294 157.879651,68.1172641 154.624045,66.982084 C154.501873,66.9392927 154.379296,66.8989236 154.167424,66.8270665" id="path14" fill="#B09F56"></path>
                        <path d="M166.485232,75.5011826 C164.932314,75.524193 163.372903,75.4107557 161.819986,75.601298 C161.304106,75.6650813 160.800808,75.7728669 160.301569,75.9121404 C159.909484,76.021137 159.65337,75.8568347 159.640382,75.4575839 C159.532416,72.1880877 157.645455,70.2459286 154.801823,69.010633 C153.813086,68.5815091 152.713137,68.4345655 151.801112,67.7963294 C151.514151,67.5960985 151.385486,67.4273555 151.49061,67.0963286 C151.553522,66.8973088 151.595329,66.6914262 151.647688,66.4891768 C151.740635,66.1294878 151.846977,65.8917136 152.321863,65.7750468 C152.962756,65.6172035 153.416942,65.0544578 153.865039,64.5627617 C154.511615,63.8530723 155.023436,63.0485154 155.495481,62.2193334 C155.862807,61.5742346 155.772294,60.910566 155.512934,60.2590082 C155.166308,59.3886496 154.603751,58.6567572 153.944999,58.0056031 C150.785587,54.8818394 149.123081,51.0423309 148.452558,46.7232371 C148.413188,46.4681042 148.434294,46.2174119 148.507353,45.9598568 C149.120646,43.7908232 149.658444,41.5983754 150.343984,39.4527559 C150.899641,37.7140572 150.809129,36.0270714 150.337084,34.3173982 C149.477013,31.2040901 148.055603,28.329848 146.496597,25.5205599 C142.899235,19.0384475 138.671128,12.9698361 134.161742,7.09204968 C133.36783,6.05694468 132.372599,5.1741928 131.38508,4.31352284 C130.377673,3.43500972 129.214,3.48466375 128.254893,4.45998206 C127.475593,5.25287225 127.249921,5.2847235 126.718211,4.20408211 C126.589951,3.94402414 126.431656,3.69789353 126.305426,3.43706854 C125.612579,1.99905939 124.643731,1.61965411 122.958089,1.94134364 C121.110093,2.29425869 119.516588,3.24402334 117.959206,4.23924363 C115.358698,5.90035281 112.974122,7.84045308 110.700758,9.91659734 C110.391474,10.1988987 110.091524,10.323599 109.666157,10.3127397 C106.253473,10.2250579 103.719125,11.8087794 101.770063,14.4759682 C101.042311,15.4722785 100.478536,16.5586119 100.029627,17.7046916 C99.7747311,18.3562899 99.1537266,18.6298715 98.6345993,18.9912964 C98.3926916,19.1592723 98.0395714,18.8821786 98.0740716,18.5459844 C98.1394192,17.9117449 97.7769636,17.6389303 97.262301,17.4568252 C97.1713827,17.4244895 97.0776231,17.3990973 96.9858931,17.368336 C96.0235389,17.0523264 95.3079631,17.171375 94.6199875,18.0962723 C93.0382524,20.221788 91.3075573,22.2374189 89.6369333,24.2970118 C89.2541835,24.7688463 89.0739704,24.8117183 88.5958375,24.4192092 C88.2812763,24.1617348 88.0413981,24.1888225 87.741043,24.4104087 C86.626076,25.2340198 85.6990339,26.2508376 84.7634682,27.2580071 C82.8700131,29.2958411 81.0561116,31.403554 79.295787,33.5563592 C79.0173496,33.8968325 78.7324181,34.1013426 78.2705206,34.0445836 C77.3114136,33.9261405 76.5645846,34.4232057 75.9184151,35.011384 C75.1212564,35.7372614 74.2425146,36.2506761 73.1924893,36.4913165 C72.3949246,36.6741079 71.9415507,37.2555042 71.5851834,37.9301128 C70.9467258,39.138684 70.5976644,40.4442218 70.3046152,41.7679258 C70.2506324,42.0133701 70.2498207,42.2983762 69.9255183,42.3815366 C69.5926923,42.4663118 69.4185675,42.2467037 69.2428192,42.0291141 C69.0293235,41.7650999 68.8215102,41.4958378 68.5982733,41.2403012 C68.2889887,40.8862639 67.9943159,40.8967598 67.7317081,41.2774408 C66.4389633,43.1529908 65.1689481,45.0406516 64.2410943,47.1329839 C63.7142551,48.3206438 63.6253662,49.5636095 63.7264317,50.8291819 C63.7958381,51.6963109 63.9204449,52.5577883 64.146523,53.4023106 C64.2045646,53.6178817 64.2488061,53.8629224 64.0271927,54.0264174 C63.806797,54.1887013 63.5644834,54.1402584 63.3363759,54.0336838 C62.794519,53.7801657 62.397969,53.3522528 62.0079132,52.9182846 C61.2367311,52.0604405 60.6096383,51.0996551 59.9935043,50.1320069 C59.6383547,49.5741055 59.4025353,49.5414065 58.9564673,50.0395616 C57.8967007,51.223992 57.3544379,52.6357007 57.1588012,54.1911235 C56.8255694,56.8421646 57.3791969,59.3874386 58.1126317,61.9064726 C58.5315054,63.3432101 59.0019265,64.7654148 59.4358179,66.1981154 C59.5190244,66.4734329 59.5661071,66.7653017 59.5859955,67.05273 C59.6501253,67.9751647 59.0952801,68.4999635 58.2335856,68.198406 C57.4749859,67.9323734 56.8665638,68.1693402 56.2390651,68.4632275 C54.6865537,69.1902757 53.4315562,70.3072896 52.2760007,71.5417778 C50.0071017,73.9655407 48.1818354,76.7041828 46.5704707,79.5877501 C46.3289689,80.0201036 46.0310491,80.2405191 45.5573809,80.370104 C43.270623,80.9954219 41.0528655,81.8015935 39.0429214,83.0837173 C37.7733527,83.8935221 36.6430432,84.8547112 35.9454075,86.224436 C35.469304,87.1593852 35.3185176,88.1092709 35.6205775,89.1649238 C36.5582132,92.4433013 35.8217749,95.4762344 34.0978581,98.3258917 C32.7087967,100.622088 30.8658338,102.501675 28.7363565,104.135818 C25.420801,106.680688 22.3268589,109.486746 19.234378,112.29119 C16.8491523,114.454169 14.4843832,116.638946 12.1214,118.826146 C11.1507658,119.724359 10.4761032,120.859136 9.73252132,121.932955 C6.91494655,126.002971 4.58873657,130.318431 3.15494665,135.07553 C2.15864429,138.380551 1.69916992,141.754604 1.95284825,145.198091 C2.30433277,149.966493 3.9773515,154.262577 6.86153205,158.076652 C9.25767608,161.24563 12.1058546,163.925333 15.6885638,165.747596 C17.8805069,166.862187 20.2332212,167.433007 22.6766103,167.642926 C27.5813286,168.064784 32.2859454,167.098347 36.9024445,165.569568 C40.3847783,164.416221 43.719938,162.926197 46.9073555,161.115237 C47.2353108,160.929539 47.5332307,160.907336 47.8770155,161.021581 C48.866564,161.348975 49.6856406,161.956126 50.4750875,162.601629 C51.5928957,163.515182 52.5840677,164.558724 53.5687455,165.610744 C55.7361731,167.92551 55.7183142,170.712595 54.090714,173.146854 C53.4319621,174.131861 53.0597653,175.177018 52.8275989,176.29928 C52.6729566,177.045302 52.6311504,177.80303 52.8146106,178.5543 C53.1514954,179.936943 54.1053259,180.708397 55.4171473,181.1024 C56.8909169,181.545249 58.4040574,181.503669 59.9050213,181.346229 C64.0418046,180.911454 67.969151,179.664451 71.8356146,178.202281 C72.2106527,178.060182 72.5329256,178.015372 72.9424639,178.176445 C76.6287145,179.626908 80.4549955,180.46376 84.413595,180.7306 C90.0440363,181.110474 95.5376942,180.353956 100.929475,178.784 C107.09812,176.988381 112.871839,174.331688 118.205172,170.756194 C119.252762,170.053771 120.227699,169.249618 121.437237,168.813631 C123.781631,167.968302 126.118718,168.130989 128.445659,168.865708 C131.588429,169.858788 134.279043,171.639471 136.814608,173.678112 C138.483203,175.019175 139.98782,176.53221 141.48919,178.054126 C142.459662,179.037922 143.706947,179.672929 144.969656,180.227601 C149.112934,182.048249 153.054486,181.240462 156.454994,177.931001 C158.710904,175.735727 160.374628,173.132725 161.792791,170.359769 C164.441599,165.177583 166.180412,159.672041 167.62577,154.060731 C168.534547,150.530854 169.060574,146.928312 169.771279,143.361295 C171.477621,134.79335 173.798474,126.411103 177.444541,118.434162 C179.682187,113.539 182.373613,108.91956 185.891015,104.811193 C188.551593,101.703174 191.563263,99.0093411 195.264125,97.1568015 C195.887159,96.8451518 196.532923,96.5880004 197.191269,96.3587037 C197.664937,96.1935939 197.755855,96.015566 197.563059,95.5553579 C194.001822,87.0661325 188.107961,80.8957101 179.39685,77.5539531 C175.245861,75.9617944 170.942664,75.2420127 166.485232,75.5011826" id="path16" fill="#192343"></path>
                        <path d="M145.006998,55.4897985 C146.551797,55.4143083 146.343984,55.361021 146.215724,54.0494278 C146.117906,53.0547323 146.003852,52.0616516 145.903193,51.0673598 C145.880869,50.8441185 145.819174,50.6559983 145.589849,50.5679936 C145.351189,50.475952 145.193299,50.613207 145.033786,50.759747 C144.066156,51.6506938 143.036019,52.4536359 141.802533,52.9558279 C139.638353,53.8366825 137.718515,53.354675 136.232569,51.5622854 C135.335156,50.4787778 134.752711,49.234601 134.286755,47.9173562 C133.530184,45.7785994 132.248804,44.0903621 130.056212,43.2087002 C129.591879,43.0217911 129.2899,43.0439942 128.925821,43.4581815 C128.08848,44.4125078 126.96986,44.425426 125.828916,44.1634303 C124.241093,43.7980896 122.863112,42.9862663 121.524908,42.1005675 C120.686755,41.5462992 119.886755,40.9415696 119.123285,40.2892044 C118.98569,40.1717302 118.837541,40.0837255 118.669505,40.0187312 C117.871128,39.7086962 117.078434,39.3853394 116.277623,39.0829746 C115.499946,38.7890873 114.798982,38.9283608 114.248602,39.558523 C113.458343,40.4631953 113.069505,41.5475103 112.974528,42.7266927 C112.933533,43.2405918 112.959916,43.7605463 112.772803,44.2518387 C112.516689,44.9231774 112.022321,45.1714476 111.309586,45.0115858 C109.158394,44.5283673 107.001114,44.0871326 104.781327,44.0750219 C103.642007,44.0685628 102.514863,44.1339608 101.450226,44.5933616 C100.202128,45.1314821 99.6330772,46.1197186 99.8108549,47.3957869 C99.8433258,47.6315427 99.9553501,47.8200665 100.06291,48.0166642 C100.523184,48.857957 100.909992,49.7242787 100.882798,50.7092856 C100.854792,51.7391022 100.297106,52.3716865 99.3331279,52.5537513 C95.4638231,53.2820105 92.2621996,55.083685 89.9868065,58.3547961 C89.8029404,58.6192139 89.6495158,58.90422 89.4770145,59.1771154 C89.2391657,59.5533557 89.1352591,59.9344403 89.1928948,60.4011075 C89.4481966,62.4659888 89.0199876,64.4400395 88.2780292,66.3559587 C87.0920323,69.4159391 85.2728543,72.0851464 83.1094855,74.5351492 C82.8976134,74.7753455 82.7823419,75.0086791 82.7636712,75.344954 C82.7096884,76.3081616 82.2477909,77.127655 81.7144576,77.9051646 C80.9793993,78.9781762 80.102687,79.9284656 79.1204445,80.779447 C78.8647367,81.0006699 78.7652948,81.2376367 78.7665125,81.5731042 C78.7774714,84.3343531 78.7381005,87.0960056 78.7872126,89.8564471 C78.8127834,91.3093323 78.4259747,92.6205218 77.7554521,93.8760019 C76.5122254,96.2040899 74.8188718,98.1967104 73.0301352,100.116666 C71.8161321,101.419378 70.5408404,102.661133 69.1953306,103.829012 C68.9197345,104.068401 68.8763047,104.324341 68.9700642,104.648102 C69.1563656,105.290375 69.2168425,105.947181 69.1303889,106.610042 C69.0496178,107.233341 68.7070505,107.620078 68.153423,107.633803 C66.5660054,107.672961 65.5581922,108.548568 64.9108051,109.879134 C64.366107,110.998167 64.0292221,112.162816 64.1375935,113.459069 C64.2768122,115.11703 63.5713835,116.396328 62.0594607,117.192003 C61.0820888,117.70671 60.023134,117.917033 58.9394201,118.028855 C57.8070001,118.14633 56.6741741,118.112016 55.5433776,117.986872 C55.4496181,117.976376 55.3469291,117.975972 55.2580402,118.002616 C54.1584969,118.330413 53.0622006,118.667899 52.0470814,119.215708 C51.9902575,119.246389 51.9314041,119.276262 51.8818861,119.317035 C51.7341438,119.437335 51.5125304,119.539872 51.5405365,119.751003 C51.5685426,119.9585 51.7897501,120.024706 51.9784868,120.085259 C52.586503,120.279838 53.22009,120.306886 53.8479946,120.362192 C54.0899022,120.383991 54.3346511,120.376724 54.5777764,120.37511 C55.3574821,120.369862 56.11527,120.439297 56.862099,120.71744 C57.7087758,121.033127 58.5903588,121.255964 59.4524592,121.532089 C59.7747321,121.635434 60.0909168,121.763808 60.3985779,121.904696 C60.6579386,122.023381 61.024859,122.133185 60.9940117,122.46179 C60.9599173,122.82592 60.571485,122.854582 60.2691005,122.900199 C58.1649909,123.218712 56.1140524,123.720904 54.1771676,124.623154 C53.1758485,125.089417 52.2272945,125.641263 51.3578881,126.323098 C51.1472336,126.488611 50.9418557,126.661795 51.1062392,126.9686 C51.2633168,127.262488 51.5149657,127.218485 51.7816324,127.153087 C53.4457622,126.743744 55.1082685,126.327539 56.7776749,125.939188 C57.5545394,125.758738 58.3508864,125.709487 59.1472334,125.803144 C60.0259752,125.906085 60.5244023,126.444205 60.4586489,127.180942 C60.433484,127.461508 60.3129361,127.653261 60.0462694,127.781231 C58.1333319,128.698822 56.4700138,129.982964 54.8387607,131.313127 C54.635818,131.47864 54.412987,131.648594 54.5891412,131.957418 C54.7681366,132.271894 55.0246562,132.186715 55.3091818,132.110821 C60.2938595,130.778639 65.1510892,131.107244 69.859359,133.251653 C70.6573295,133.615379 71.4516471,134.036025 72.0263807,134.697271 C72.9619464,135.773916 74.134955,135.922071 75.4293233,135.751713 C77.7741229,135.442889 80.1172989,135.122358 82.4616925,134.813535 C85.1441886,134.460708 87.8234377,134.083257 90.5108044,133.773626 C97.5979681,132.957362 104.325112,130.853322 110.853371,128.092881 C120.121357,124.173845 128.422118,118.742985 135.872143,112.00901 C139.847384,108.416157 143.386298,104.434549 146.672751,100.217589 C147.963061,98.5616474 149.322371,96.9581854 150.679245,95.294977 C150.055805,95.066084 149.432366,95.0083561 148.817449,94.9312511 C145.543172,94.5211007 142.319225,94.6745034 139.191067,95.8282533 C138.8416,95.9574345 138.493756,96.0821751 138.107353,96.0510909 C137.919022,96.0361543 137.758698,95.9824634 137.621103,95.8621633 C137.082899,95.3918629 137.234294,94.0059905 137.874375,93.6915149 C139.014101,93.1319987 140.260981,93.0016064 141.498931,92.8603144 C143.092843,92.6786533 144.693249,92.5627939 146.299743,92.6366694 C146.630133,92.6520097 146.692234,92.5902449 146.611463,92.2394371 C146.074882,89.9020642 146.128459,87.5332033 146.30989,85.1635351 C146.365496,84.4356796 146.519327,84.3638225 147.299844,84.4163024 C147.74023,84.4465793 148.168845,84.3169943 148.575948,84.159151 C151.266156,83.112783 153.651138,81.6376948 155.302279,79.2082803 C156.306034,77.731981 156.58853,76.1018753 156.101467,74.363984 C155.180514,71.0783401 151.021813,69.2988686 148.00162,70.8982938 C147.413086,71.2103472 146.844847,71.5603476 146.356567,72.0100598 C143.96022,74.2206736 141.227394,74.4604663 138.270519,73.4007765 C136.780108,72.8670965 135.427698,72.0875685 134.206389,71.0815697 C133.261488,70.3032527 132.131909,69.9657668 130.945913,69.8260896 C129.572397,69.6638056 128.200098,69.647658 126.869606,70.1373356 C125.188023,70.7561944 124.498018,72.0730356 124.271534,73.7313997 C123.912326,76.3614489 124.885233,78.5357305 126.508368,80.5380396 C127.626988,81.9182603 129.067475,82.4886762 130.776658,82.6009024 C131.024654,82.6174537 131.428104,82.4067269 131.507252,82.8386766 C131.585994,83.2673968 131.461387,83.6795657 131.066866,83.9375245 C130.462503,84.3319309 129.781022,84.3319309 129.095481,84.2689551 C126.462909,84.0259329 124.527242,82.6089762 122.92156,80.6365403 C122.037947,79.5514179 121.276506,78.4000902 120.972904,77.0085661 C120.50776,74.8742499 121.050428,72.9264391 122.104107,71.0783401 C122.54571,70.3044638 123.086755,69.6020409 123.663518,68.923032 C124.215522,68.2730889 124.994416,68.0240114 125.73678,67.7248761 C129.772904,66.0979999 134.1037,66.9675511 137.076404,69.9802996 C137.133634,70.0380275 137.198576,70.0901037 137.244035,70.1555017 C138.443426,71.8917782 140.110803,71.9955269 141.952711,71.4937385 C143.205273,71.1522156 144.272751,70.4421226 145.373512,69.7982348 C146.154436,69.3412562 146.928053,68.8701484 147.717906,68.4277027 C148.05885,68.236353 148.265445,67.9985788 148.403852,67.6170905 C148.832061,66.4391191 149.312224,65.2789102 149.790762,64.1195086 C149.928357,63.7860595 149.923487,63.5499001 149.65195,63.2600497 C148.204968,61.7171414 146.38092,60.8734264 144.362046,60.3934374 C141.679144,59.7556051 138.967018,59.8064702 136.240281,60.0543367 C133.205882,60.3300579 130.311514,61.2460335 127.357074,61.8866917 C123.534446,62.7158738 119.692336,63.3694501 115.756466,63.2947672 C113.80781,63.2576276 111.98985,62.7526097 110.250226,61.917776 C110.091119,61.8414783 109.941347,61.7405555 109.796852,61.6372105 C109.166918,61.1862872 109.125517,60.8637378 109.584168,60.2335756 C111.208927,58.0011625 112.833686,55.7679419 114.240484,53.3885851 C114.543275,52.8763007 114.832671,52.3571537 114.991778,51.773416 C115.120849,51.3006934 115.654995,51.0738188 116.225263,51.2252031 C116.557278,51.3132078 116.877927,51.451674 117.121052,51.6918703 C119.017755,53.5658056 121.363772,54.6682866 123.828713,55.5600408 C127.121661,56.7509303 130.540839,57.3455677 134.015217,57.6992013 C136.342564,57.9357645 138.675593,57.9216353 141.008216,57.9765373 C145.199793,58.0758454 148.885232,59.4911872 152.019479,62.2782723 C152.218363,62.4550891 152.288175,62.4086646 152.408317,62.2189297 C152.776455,61.6384215 152.755349,61.1717543 152.31821,60.6279821 C151.613999,59.7519718 150.809535,58.9934358 149.835816,58.4101018 C148.739925,57.7536997 147.655806,57.0787277 146.522168,56.4877236 C146.150377,56.2939517 145.779804,56.145797 145.329271,56.1478155 C144.921762,56.1494302 145.095075,55.7295912 145.006998,55.4897985" id="path18" fill="#FEFEFE"></path>
                        <path d="M25.8376046,165.042347 C29.7325208,165.03064 33.4306638,164.083176 37.019583,162.660971 C42.3204454,160.560969 47.1155747,157.580516 51.6927435,154.230281 C54.3196333,152.307903 56.8206987,150.231718 59.2998463,148.12445 C61.8248589,145.978426 64.7383038,144.472254 67.8149146,143.272483 C71.4711296,141.847453 75.2669692,141.023922 79.1805155,140.708236 C86.402839,140.124902 93.3812255,141.298029 100.206187,143.574444 C107.106238,145.875889 113.488785,149.217646 119.573817,153.152425 C123.015319,155.377572 126.33952,157.766214 129.515573,160.350242 C130.982442,161.543957 132.228104,162.986347 133.649921,164.238194 C136.836526,167.044656 140.146927,169.677127 143.989849,171.563981 C145.684421,172.395988 147.447992,173.037454 149.352812,173.135955 C152.165192,173.282495 154.1865,172.013693 155.432974,169.546735 C156.225262,167.978394 156.776049,166.309938 157.168946,164.596268 C157.270011,164.155033 157.258241,163.697247 157.215217,163.246324 C157.112122,162.169679 156.008926,161.517314 154.996242,161.925849 C154.516891,162.119621 154.143071,162.455493 153.811868,162.83254 C153.190052,163.540211 152.683913,164.327006 152.316587,165.19252 C152.152203,165.580871 151.886754,165.776258 151.478028,165.818645 C150.730793,165.89575 150.030641,165.702786 149.344289,165.450075 C147.019783,164.593846 144.930286,163.302437 142.872447,161.958952 C138.421914,159.051163 134.208013,155.821633 130.124806,152.431836 C125.521661,148.610494 120.411565,145.646188 114.957278,143.23171 C109.297613,140.726402 103.403346,138.988914 97.28706,138.017633 C92.5170956,137.260308 87.716284,137.031415 82.8903074,137.28574 C73.0240469,137.804887 63.7154728,140.425652 54.8204958,144.616775 C54.2473858,144.886845 53.7428703,145.26793 53.2310489,145.636903 C44.3928959,152.011594 34.7590047,156.739223 24.1715671,159.474636 C21.5219071,160.158892 18.8335662,160.668351 16.1080869,160.965468 C15.851892,160.992919 15.5666358,161.008663 15.4710498,161.312642 C15.3700656,161.631962 15.5785283,161.811605 15.8092335,161.988825 C17.8857428,163.585425 20.2595632,164.452957 22.8318614,164.836868 C23.8273764,164.98583 24.8279649,165.07222 25.8376046,165.042347" id="path20" fill="#FFFFFF"></path>
                        <path d="M52.3100951,112.653301 C54.7697602,112.582655 56.9785881,111.684039 58.9386084,110.196436 C59.6687961,109.642168 60.1205464,108.79159 60.6891918,108.068579 C62.967832,105.172901 65.2200897,102.257038 67.516183,99.3754892 C67.9602215,98.8179914 68.131911,98.2269873 68.1655995,97.557667 C68.2601708,95.6861539 67.8218146,93.9095083 67.144392,92.1881683 C66.9682378,91.7408783 67.0299324,91.4441652 67.3274463,91.1014312 C68.0068984,90.3194811 68.712327,89.5621561 69.4555031,88.8419707 C69.7375934,88.5686717 69.7700642,88.3369528 69.6211043,87.9917967 C68.963976,86.4690729 68.3547421,84.9293941 68.0320632,83.2928294 C67.8628091,82.4345816 67.8486031,81.6481908 68.3920835,80.8565521 C69.0289176,79.9296767 69.5200389,78.9043007 69.7720936,77.7893052 C70.0298308,76.6488771 69.3966497,76.0025672 68.3218654,76.4413797 C66.0460663,77.3698699 64.2167412,76.5471469 62.5160816,75.1330161 C61.1855895,74.0269018 60.1367819,72.672921 59.230034,71.2091361 C59.1216627,71.0335304 59.0636211,70.8268404 58.9828499,70.6346833 C58.6297296,69.7921795 58.048096,69.5431019 57.1916779,69.8721104 C56.6059854,70.0969664 56.1112112,70.4667477 55.6813786,70.9063676 C51.4532712,75.2311131 47.7848796,79.955513 45.2407903,85.4747811 C43.8563155,88.4778411 42.8756965,91.6024122 42.4913231,94.8904782 C41.9888371,99.1905985 42.286351,103.417247 44.2954834,107.328613 C45.6032459,109.873886 47.6022312,111.775273 50.5294762,112.465585 C50.7969546,112.528965 51.0701154,112.577004 51.3432762,112.605262 C51.6489079,112.636346 51.9581925,112.637154 52.3100951,112.653301" id="path22" fill="#FFFFFF"></path>
                        <path d="M69.0220176,157.373422 C68.6749856,157.342338 68.220394,157.447701 68.110805,157.132015 C67.9922865,156.789684 68.4371368,156.627804 68.691221,156.45341 C69.2241484,156.087665 69.7927938,155.799026 70.4239455,155.609291 C71.398882,155.316211 72.3519008,154.952889 73.200607,154.369555 C73.5362742,154.13824 73.8467764,153.880685 74.0781311,153.541987 C74.598882,152.779818 74.4422102,152.002309 73.6669692,151.504961 C73.1007592,151.142042 72.4647369,151.047982 71.8080144,151.048386 C71.5389125,151.048386 71.27874,151.042331 71.1545391,150.747636 C71.0205969,150.430335 71.2620987,150.27451 71.4536765,150.10617 C71.7942143,149.807842 72.135158,149.509515 72.4874665,149.225316 C72.7135446,149.043251 72.8438338,148.822432 72.7216623,148.554784 C72.5938084,148.274219 72.3376948,148.268971 72.0547927,148.332754 C70.5765584,148.667011 69.2156249,149.306054 67.8538796,149.935813 C66.1828497,150.708882 64.5227787,151.516668 62.9491613,152.466554 C61.5695571,153.299369 60.3571776,154.359866 59.5713836,155.804274 C58.7957367,157.231323 58.9942147,158.525961 60.1359701,159.684959 C61.1908661,160.756356 62.518517,161.386922 63.8944682,161.929886 C64.3295773,162.102263 64.7792982,162.237903 65.2176544,162.403013 C66.1925909,162.769968 67.1841688,162.863624 68.2155234,162.67389 C68.9241992,162.543901 69.6426162,162.593959 70.3297801,162.820833 C71.0619972,163.062644 71.3132402,163.567662 71.0810738,164.295921 C70.9020784,164.859475 70.5712818,165.316453 70.1093843,165.706419 C68.5649907,167.010342 66.9365787,168.221416 65.5050212,169.651291 C64.1716879,170.982261 63.1269391,172.500544 62.751901,174.391838 C62.69183,174.695818 62.6678828,175.001009 62.8002014,175.294896 C62.936173,175.597665 63.1212567,175.737745 63.4873652,175.60816 C69.2144072,173.588896 74.9475374,171.587798 80.6709264,169.558846 C81.7814287,169.165247 82.8659543,168.688487 83.8526615,168.031681 C84.236629,167.776145 84.7577858,167.525452 84.6737675,166.989754 C84.5840669,166.418127 83.985386,166.393098 83.5275474,166.259476 C82.3707742,165.923201 81.2294247,166.073778 80.0775221,166.322048 C79.0315556,166.547712 77.9677302,166.673663 76.892134,166.577585 C75.9098916,166.489984 75.663925,165.984562 76.2492117,165.193731 C77.1092827,164.032311 78.2924384,163.224121 79.4557058,162.402205 C80.1172989,161.934327 80.7841685,161.474926 81.3304901,160.871811 C81.5098914,160.674003 81.7542344,160.453991 81.6202922,160.158892 C81.486756,159.864601 81.1612359,159.889227 80.8905104,159.898512 C79.8632146,159.933229 78.8724486,160.156067 77.9084709,160.508085 C77.0435293,160.824176 76.1655993,161.098282 75.2653457,161.296091 C75.076609,161.337671 74.8813781,161.359067 74.6881767,161.366737 C74.5331285,161.372792 74.3257211,161.428098 74.2526618,161.246437 C74.1869083,161.080923 74.3443919,160.951742 74.4511397,160.835883 C75.0315557,160.206932 75.8031437,159.79113 76.3385065,159.101625 C76.9120224,158.362466 77.5671213,157.685476 78.010754,156.852257 C78.1674257,156.557966 78.4060863,156.230572 78.1783847,155.911252 C77.9376947,155.574977 77.5557566,155.732417 77.2338895,155.820018 C74.9832554,156.432418 72.6977151,156.87446 70.3935041,157.22446 C69.9295771,157.294702 69.4599678,157.326594 69.0220176,157.373422" id="path24" fill="#FFFFFF"></path>
                        <path d="M110.145507,164.14373 C104.279247,164.161088 98.5213573,164.887733 92.9453046,166.77499 C89.1007588,168.076087 85.5334327,169.90158 82.332621,172.40487 C82.1101958,172.578861 81.819176,172.717327 81.8699117,173.083071 C81.921865,173.458908 82.2449497,173.480303 82.5116164,173.576786 C84.381936,174.252969 86.3240973,174.579959 88.3003529,174.718425 C94.6828997,175.166118 100.703397,173.680131 106.544898,171.28947 C110.370773,169.723552 113.975441,167.736583 117.451849,165.513051 C117.699439,165.354804 117.837846,165.171932 117.75951,164.878044 C117.68848,164.60959 117.46362,164.569624 117.228612,164.543384 C114.875289,164.280177 112.515066,164.13283 110.145507,164.14373" id="path26" fill="#FFFFFF"></path>
                        <path d="M130.093147,59.0757888 C126.788835,58.6446465 123.596141,57.9567564 120.564178,56.6447595 C119.224756,56.064655 117.947029,55.3755539 116.791879,54.4817812 C116.552407,54.2968906 116.461083,54.2932574 116.317805,54.581493 C115.280768,56.6665588 114.09396,58.6555461 112.414812,60.3082585 C112.149769,60.5686395 112.373412,60.6077975 112.548348,60.669966 C113.593909,61.0397473 114.677623,61.2149493 115.781225,61.263796 C119.455705,61.4252725 123.034802,60.790266 126.587922,59.9582581 C127.747536,59.6873812 128.897815,59.3781537 130.093147,59.0757888" id="path28" fill="#FFFFFF"></path>
                        <path d="M156.102279,83.3376391 C155.756871,83.7554597 155.437033,84.1712618 155.08716,84.5596128 C153.820798,85.9648624 152.269098,86.7407572 150.333431,86.6765703 C149.619479,86.6523488 149.52369,86.7690156 149.502178,87.4694201 C149.449413,89.1770345 149.395836,90.884649 149.334141,92.591456 C149.328053,92.770695 149.377571,92.8510295 149.558596,92.8849396 C150.193806,93.0028175 150.827393,93.1275581 151.424857,93.3939944 C151.678941,93.5074317 151.665953,93.2317105 151.719529,93.1170621 C152.417246,91.6141192 153.102381,90.1059283 153.791168,88.5989485 C154.526226,86.9886237 155.264532,85.3803174 155.993096,83.7671667 C156.048296,83.6448482 156.173715,83.5306036 156.102279,83.3376391" id="path30" fill="#FFFFFF"></path>
                        <path d="M99.6294242,107.924865 C99.7394191,103.921054 100.214305,99.9850631 101.971383,96.3159124 C104.046674,91.9822857 107.402534,89.2593876 112.211463,88.426976 C112.752509,88.3337233 113.306948,88.3095018 113.855705,88.2675179 C114.110195,88.2485444 114.412174,88.1996978 114.512427,88.5274951 C114.613087,88.8548888 114.340738,88.9634818 114.115877,89.0995258 C112.74845,89.9230562 111.573006,90.9439916 110.848095,92.3928398 C109.880464,94.3269251 109.986806,96.3175272 110.59604,98.3206437 C110.958495,99.5135516 111.490205,100.632988 112.179399,101.672897 C112.375035,101.967995 112.388024,102.14239 112.077927,102.385008 C109.681174,104.260155 107.292133,106.145393 104.918922,108.049202 C104.137593,108.675731 103.413899,109.367658 102.507963,109.832306 C100.079145,111.078905 97.6677804,110.882307 95.262504,109.781037 C94.5984756,109.477462 93.9892417,109.085074 93.4189728,108.624865 C91.7832549,107.305198 89.9868065,106.245509 87.9833565,105.595162 C86.583458,105.141009 85.1291709,105.044123 83.6744779,105.405831 C83.5498711,105.436511 83.4268878,105.480917 83.309587,105.532993 C82.7056296,105.801448 82.5952288,106.165578 83.0108554,106.658889 C83.4325702,107.159062 83.9370857,107.581323 84.6019258,107.706871 C86.3821389,108.04355 87.8989324,108.914312 89.3313017,109.962699 C91.0782321,111.241189 92.6104492,112.747765 94.0075065,114.390789 C94.3078617,114.743212 94.6707232,115.004804 95.0372376,115.268414 C97.1405354,116.779834 99.385893,117.998982 101.956365,118.53024 C106.16499,119.400599 109.757887,118.189525 112.852762,115.320087 C113.675898,114.55711 114.322879,113.678677 114.856618,112.675101 C117.161641,108.3443 120.408724,104.835818 124.500454,102.116957 C125.383254,101.530394 126.388226,101.129528 127.313645,100.603518 C128.344188,100.017762 129.317501,99.3464234 130.06433,98.4054189 C131.243832,96.9186236 130.79817,95.726523 128.925821,95.4290025 C127.806795,95.2509746 126.688581,95.3999367 125.59675,95.6550697 C125.090611,95.7729475 124.905527,95.6405368 124.731808,95.1585293 C124.084421,93.3612954 123.268186,91.6472219 121.903599,90.2536794 C120.602737,88.9251311 118.976354,88.2453149 117.18437,87.8452568 C114.577775,87.2635375 111.96915,87.0071935 109.34226,87.6518886 C106.034295,88.4641156 103.605883,90.4708653 101.798069,93.2773276 C100.152204,95.8318865 99.205274,98.6613592 98.5680341,101.605077 C98.051342,103.990892 97.8065932,106.409004 97.7132396,108.844877 C97.6884806,109.492398 98.0452538,109.783056 98.8963953,109.804452 C99.4013166,109.816966 99.6257712,109.539226 99.6290183,108.893724 C99.6306419,108.570771 99.6294242,108.247818 99.6294242,107.924865" id="path32" fill="#192343"></path>
                        <path d="M109.506238,46.1705837 C108.505325,47.9165488 107.502788,49.6625139 106.502686,51.4088827 C104.756568,54.4575598 103.04292,57.525614 101.253371,60.5488586 C100.446877,61.9117206 99.6119711,63.2451131 99.1999975,64.7908473 C98.9865018,65.592982 98.8687951,66.4056127 98.989343,67.2315652 C99.21258,68.7567112 100.12704,69.7453513 101.495279,70.3775319 C102.628917,70.9015233 103.837643,71.0956989 105.2002,71.2377982 C103.752001,70.4764363 103.040484,69.31542 102.7519,67.8815083 C102.522981,66.7455208 102.587922,65.6018632 102.789647,64.4670868 C103.064432,62.9233711 103.530388,61.4325389 104.187111,60.0111417 C105.159612,57.9054876 105.957176,55.7328207 106.785588,53.5706499 C107.689089,51.212285 108.588125,48.8531127 109.487973,46.4939405 C109.521256,46.4063394 109.548856,46.3171236 109.579297,46.2287152 C109.554538,46.209338 109.530591,46.1899609 109.506238,46.1705837" id="path34" fill="#192343"></path>
                        <path d="M53.2395725,89.0999295 C53.2558079,90.4361479 53.2862493,92.1582952 53.5249099,93.8723687 C53.6182635,94.5404778 53.6056811,95.2223125 53.4697095,95.895266 C53.1985781,97.2387508 52.3218658,97.7857526 50.9791971,97.4623959 C49.3662088,97.0736411 48.2975127,96.1298107 47.8027385,94.5344225 C47.4816832,93.4989542 47.266564,92.4465308 47.1301865,91.3755376 C47.1094864,91.2136574 47.1297807,91.0130228 46.9564676,90.9581208 C46.7425661,90.8903006 46.6544889,91.1018349 46.5631647,91.2451453 C46.2315564,91.7655035 46.1313028,92.3003945 46.2559095,92.9358047 C46.8371373,95.9053583 47.3753413,98.8833894 47.914357,101.861017 C47.9752398,102.196888 48.1172997,102.395504 48.4363255,102.527915 C49.8581418,103.119323 51.2844229,103.015574 52.7143569,102.583221 C53.8829007,102.230394 54.9836617,101.714881 55.9780808,101.016495 C57.6032456,99.8736443 59.3331289,98.8720861 60.8101456,97.5269865 C61.4331796,96.9602038 62.0249604,96.3651628 62.4466753,95.6239854 C63.2081161,94.2861523 62.9382024,93.1295766 61.6491106,92.2894949 C60.9931999,91.8619857 60.2662593,91.5915125 59.5072537,91.4106588 C59.3416525,91.371097 59.2073045,91.3133692 59.0891918,91.1914544 C57.322373,89.3623289 56.5175024,87.1832029 56.6331797,84.6504434 C56.7545394,81.9913285 57.6917286,79.6026867 59.0274973,77.3416115 C59.3838646,76.7389003 59.2560107,76.3275388 58.5984765,76.0623136 C57.7481467,75.7187722 57.0065942,75.9977229 56.3291716,76.4978965 C55.3517997,77.2196967 54.8359195,78.260413 54.4361224,79.3624904 C53.7875177,81.1492283 53.5322158,83.0138787 53.3706735,84.8938693 C53.2618962,86.1638823 53.2330783,87.4375285 53.2395725,89.0999295" id="path36" fill="#192343"></path>
                        <path d="M117.831352,96.8544367 C117.771687,96.5347131 117.848399,96.0902489 117.435614,95.9675268 C117.047587,95.852071 116.835309,96.2190265 116.653878,96.4967661 C116.145304,97.2726609 115.899338,98.1256607 115.978079,99.0577841 C115.998374,99.3028247 116.040992,99.5547281 116.309688,99.6516141 C116.59056,99.7533443 116.773615,99.5510949 116.924604,99.3706449 C117.528561,98.6500558 117.754233,97.7881748 117.831352,96.8544367" id="path38" fill="#FEFEFE"></path>
                    </g>
                </g>
            </g>
        </g>
    </g>
</svg>