<?xml version="1.0" encoding="UTF-8"?>
<svg width="200px" height="200px" viewBox="0 0 200 200" version="1.1" xmlns="http://www.w3.org/2000/svg" xmlns:xlink="http://www.w3.org/1999/xlink">
    <!-- Generator: Sketch 51.3 (57544) - http://www.bohemiancoding.com/sketch -->
    <title>southwestern-tx</title>
    <desc>Created with Sketch.</desc>
    <defs></defs>
    <g id="southwestern-tx" stroke="none" stroke-width="1" fill="none" fill-rule="evenodd">
        <g id="southwestern-tx_BGL" transform="translate(0.000000, 32.000000)">
            <g id="southwestern-tx" transform="translate(0.000000, 0.828530)">
                <g fill-rule="nonzero" id="Shape">
                    <path d="M86.2628236,0.0293111871 C94.4992672,0.0879335613 102.940889,1.1431363 110.825598,3.60527601 C113.199805,4.33805569 115.515388,5.27601368 117.830972,6.21397167 C117.860283,9.02784563 117.743039,11.8710308 117.889595,14.6849047 C118.798241,20.8695652 119.736199,27.0542257 120.615535,33.209575 C111.910112,33.209575 103.175379,33.209575 94.469956,33.209575 C94.469956,29.7508549 94.469956,26.2628236 94.469956,22.8041036 C91.7733268,22.1299463 89.0473864,21.9540791 86.2628236,21.8954568 C83.2730826,21.8954568 80.3126527,22.1006351 77.381534,22.8041036 C77.4108451,25.1783097 77.381534,27.5525159 77.381534,29.9560332 C89.6922325,35.3199805 102.032242,40.6839277 114.342941,46.0771861 C114.987787,46.3116756 115.749878,46.839277 116.453346,46.7220322 C123.634587,45.4909624 130.845139,44.2892037 138.02638,43.0288227 C138.02638,45.7254519 137.997069,48.4220811 138.02638,51.1187103 C139.198828,50.5031754 140.341964,49.8290181 141.4851,49.1548608 C160.24426,38.1924768 178.182706,25.999023 195.417684,12.7796776 C196.707377,11.753786 198.085002,10.815828 199.286761,9.73131412 C199.550562,11.6365413 199.521251,13.5417684 199.140205,15.4469956 C198.290181,19.7264289 196.179775,23.7127504 193.805569,27.3180264 C190.024426,33.0337079 185.246702,38.1338544 180.322423,42.8822667 C174.841231,48.099658 168.978994,52.8773815 162.940889,57.4206155 C154.938935,63.5466536 146.614558,69.2623351 137.997069,74.4504152 C137.997069,77.9970689 137.997069,81.5730337 137.997069,85.1196873 C141.426478,86.2042013 144.855887,87.2300928 148.343918,88.1680508 C150.014656,86.5852467 151.802638,85.061065 153.561309,83.5075721 C154.616512,82.5403029 155.906204,81.9540791 157.313141,81.6902785 C163.146067,80.4885198 168.978994,79.1988276 174.753298,77.6746458 C173.053249,83.7713727 171.441133,89.8974108 169.770396,95.9941378 C173.668784,97.1079629 177.479238,98.4269663 181.260381,99.8925256 C183.312164,97.8993649 185.481192,95.9941378 187.474353,93.9423547 C189.203713,92.0371275 192.34001,91.4215926 194.56766,92.740596 C196.209086,93.6492428 197.117733,95.55447 197.264289,97.3424524 C197.469468,98.9838788 196.765999,100.478749 196.912555,102.120176 C197.762579,102.9702 198.612604,103.820225 199.462628,104.640938 C199.02296,106.282364 198.671226,107.982413 198.143625,109.594529 C198.75916,114.870542 195.857352,120.351734 191.10894,122.72594 C189.819248,123.400098 188.470933,123.605276 187.063996,123.839766 C185.393258,125.627748 183.575965,127.269174 181.846605,129.027846 C177.889595,132.662433 172.672203,133.83488 167.454812,133.952125 C161.563263,133.922814 155.613092,132.60381 150.014656,130.845139 C146.086957,129.672692 142.393747,127.972643 138.641915,126.360528 C140.166097,120.99658 141.836834,115.632633 143.273083,110.268686 C141.514411,109.829018 139.785051,109.213483 138.02638,108.744504 C138.02638,111.206644 138.02638,113.639472 138.02638,116.072301 C132.515877,118.505129 126.770884,120.234489 120.850024,121.289692 C105.373718,123.986321 88.7249634,122.46214 74.3038593,116.072301 C74.3038593,112.261847 74.3038593,108.422081 74.3038593,104.611627 C72.8969223,104.93405 71.5779189,105.490962 70.2002931,105.93063 C65.6570591,107.454812 61.0845139,108.978994 56.4533464,110.297997 C57.801661,115.720567 59.6189546,121.025892 61.0258915,126.448461 C58.5344406,127.445042 56.1602345,128.588178 53.6687836,129.526136 C49.3893503,131.10894 44.9926722,132.398632 40.4787494,133.219345 C36.7562286,133.864191 32.9164631,134.245237 29.1646312,133.805569 C25.2076209,133.365901 21.2212995,132.046898 18.2022472,129.37958 C16.4142648,127.738153 14.7142159,126.038105 12.9848559,124.338056 C12.7210552,124.103566 12.5158769,123.839766 12.1055203,123.781143 C6.71226185,123.194919 2.52076209,118.329262 1.67073766,113.141182 C1.34831461,111.529067 1.78798241,110.034196 1.23106986,108.480703 C0.850024426,107.249634 0.70346849,105.872008 0.0879335613,104.728872 L0.0879335613,104.640938 L0.175867123,104.787494 C0.937957987,103.878847 1.87591597,103.146067 2.60869565,102.208109 C3.10698583,101.387396 2.55007328,99.9804592 2.46213972,99.0718124 C2.13971666,96.9027846 2.81387396,94.4113337 4.60185638,93.0337079 C6.80019541,91.3629702 10.2296043,91.8612604 12.0762091,93.7957987 C14.1866146,95.7889595 16.2090865,97.9286761 18.4367367,99.8045921 C21.0161212,98.9545677 23.5368832,97.8993649 26.1455789,97.1079629 C27.3766488,96.7855398 28.5197851,96.2286273 29.8094773,96.1406937 C29.7215437,95.3492916 29.5456766,94.5872008 29.3111871,93.8544211 C27.8456277,88.4611627 26.4093796,83.0679043 24.9438202,77.6746458 C30.1905227,79.0229604 35.4958476,80.2247191 40.8011724,81.3385442 C42.0029311,81.6023449 43.2633122,81.778212 44.3771373,82.3351246 C45.6961407,82.9506595 46.6927211,84.0937958 47.8358574,85.0317538 C48.9789936,86.0869565 50.2100635,87.0835369 51.3531998,88.1680508 C52.320469,87.9042501 53.258427,87.6111383 54.2550073,87.4059599 C54.0205178,86.9076698 53.8739619,86.4973131 53.9032731,85.9110894 C53.9325843,81.8954568 53.9032731,77.9091353 53.9032731,73.8935027 C53.9325843,72.3106986 53.4342941,70.6692721 53.1704934,69.1157792 C47.3961895,65.3053249 41.7391304,61.2896922 36.2579384,57.0688813 C31.7440156,53.6101612 27.259404,50.0341964 23.0385931,46.2530532 C19.8143625,43.4391793 16.7953102,40.3615046 13.8348803,37.28383 C9.35026869,32.3009282 4.86565706,26.6731803 2.16902785,20.517831 C0.791402052,17.2642892 -0.293111871,13.2486566 0.498290181,9.73131412 C1.43624817,10.6106497 2.4914509,11.3434294 3.51734245,12.1348315 C18.2022472,23.4196385 33.4733757,34.0889106 49.3014167,43.7322912 C50.6790425,41.2994626 52.2618466,38.9545677 53.727406,36.5510503 C53.9618955,36.2286273 53.9618955,35.8475818 53.9618955,35.4665364 C53.9618955,25.7059111 53.9618955,15.8866634 53.9618955,6.1260381 C55.8964338,5.36394724 57.801661,4.60185638 59.7655105,3.95701026 C68.2071324,1.17244748 77.381534,0.0586223742 86.2628236,0.0293111871 Z M50.0928188,43.9960918 L50.0341964,44.0840254 L49.9462628,44.1426478 C51.0600879,44.6995603 52.1152907,45.3737176 53.1704934,46.0185638 C59.2965315,49.7117733 65.5398144,53.258427 71.8417196,56.6585247 C72.5744993,57.0395701 73.3952125,56.9223254 74.2159257,56.9516365 C74.2159257,56.0723009 74.2159257,55.2222765 74.2159257,54.3429409 C67.2398632,51.3238886 60.2638007,48.3048363 53.2877382,45.2857841 C52.2325354,44.8461163 51.2652662,44.3478261 50.1807523,44.025403 L50.0928188,43.9960918 Z M99.8339033,94.3527113 C99.1011236,94.6458232 98.3976551,94.9682462 97.6648754,95.2613581 C97.6648754,96.3165608 97.6648754,97.3717636 97.6648754,98.4269663 C102.002931,99.6580362 106.780655,99.5994138 111.235955,99.159746 C107.425501,97.6355642 103.644358,95.9355154 99.8339033,94.3527113 Z" fill="#231F20"></path>
                    <path d="M85.9697118,2.98974108 C95.7303371,3.01905227 105.725452,4.45530044 114.81192,8.14851001 C114.929165,10.815828 114.606742,13.5417684 115.105032,16.1211529 C115.8085,20.840254 116.511969,25.5593552 117.215437,30.2784563 C110.62042,30.2784563 104.025403,30.2784563 97.4596971,30.2784563 C97.4596971,27.0542257 97.4890083,23.8299951 97.4303859,20.6057645 C92.6526624,18.9643381 87.7576942,18.7884709 82.7747924,19.0522716 C79.9609184,19.1988276 77.1763556,19.7264289 74.4797264,20.5471422 C74.4797264,24.3282853 74.4504152,28.1094284 74.4797264,31.8905716 C87.9335613,37.7234978 101.387396,43.6150464 114.870542,49.4772838 C114.899853,61.3190034 114.870542,73.1314118 114.870542,84.9731314 C108.39277,87.5818271 101.592574,88.9301417 94.6458232,89.6629213 C94.6458232,93.3268197 94.6458232,96.9907181 94.6458232,100.625305 C99.3356131,102.47191 104.171959,102.647777 109.154861,102.413288 C112.085979,102.237421 115.017098,101.680508 117.743039,100.595994 C117.743039,83.5661944 117.713727,66.5363947 117.713727,49.506595 C123.488031,48.5100147 129.291646,47.5134343 135.095261,46.5461651 C135.095261,69.0571568 135.095261,91.5974597 135.095261,114.108451 C131.783097,115.515388 128.324377,116.599902 124.836346,117.449927 C114.841231,119.824133 104.347826,120.175867 94.2061553,118.710308 C88.4318515,117.830972 82.6575476,116.394724 77.2642892,114.049829 C77.3229116,105.901319 77.2642892,97.7821202 77.2936004,89.6336102 C70.2882267,88.9008305 63.4587201,87.5818271 56.9223254,84.9731314 C56.9223254,81.8661456 56.9223254,78.7591597 56.9223254,75.6521739 C56.9223254,74.3624817 57.0102589,73.1021006 56.7464582,71.8417196 C56.0136786,67.9140205 55.3102101,63.9570103 54.6067416,60.0293112 C61.1724475,60.0293112 67.7381534,60.0293112 74.3331705,60.0293112 C74.3331705,64.2208109 74.3331705,68.4416219 74.3331705,72.6331216 C75.3297509,72.9262335 76.29702,73.1900342 77.2936004,73.4245237 C77.2936004,66.41915 77.2936004,59.4137763 77.2936004,52.4084025 C69.4382022,48.9789936 61.5534929,45.6082071 53.6980948,42.1787982 C54.6360528,40.6839277 55.5740107,39.1890572 56.5119687,37.6941866 C56.7757694,37.2545188 56.9223254,36.9320957 56.8930142,36.4044944 C56.8930142,26.9956033 56.8930142,17.5867123 56.8930142,8.1778212 C66.0087934,4.48461163 76.1797753,3.01905227 85.9697118,2.98974108 Z" fill="#FED104"></path>
                    <path d="M95.1148021,4.92427943 C101.328774,5.56912555 107.542745,6.85881778 113.375672,9.17440156 C113.434294,11.4899853 113.199805,13.8935027 113.610161,16.1211529 C114.255007,20.3419638 114.870542,24.592086 115.486077,28.8128969 C109.946263,28.8128969 104.43576,28.8128969 98.8959453,28.8128969 C98.8959453,25.7352223 98.8959453,22.6575476 98.8959453,19.6091842 C96.3165608,18.6712262 93.678554,17.9677577 90.9526136,17.7332682 C84.8265755,17.2056668 78.7884709,17.4401563 72.9555447,19.5212506 C72.9848559,23.9765511 72.9555447,28.4025403 72.9848559,32.8578407 C86.4386908,38.7200782 99.9218368,44.5823156 113.375672,50.444553 C113.375672,61.6121153 113.375672,72.7796776 113.375672,83.9765511 C106.956522,86.4093796 99.9804592,87.728383 93.1802638,88.3146067 C93.1216414,92.740596 93.209575,97.1665852 93.1216414,101.592574 C96.2286273,102.999511 99.5701026,103.70298 102.9702,103.878847 C108.568637,104.171959 114.020518,103.908158 119.208598,101.533952 C119.179287,84.592086 119.179287,67.6502198 119.179287,50.7083537 C123.986321,49.8876404 128.793356,49.0669272 133.600391,48.246214 C133.659013,69.8485589 133.600391,91.4802149 133.629702,113.08256 C126.096727,116.130923 117.860283,117.655105 109.770396,118.006839 C99.3356131,118.446507 88.4904739,116.951637 78.7591597,113.08256 C78.7591597,104.816805 78.7591597,96.5510503 78.7591597,88.2852956 C71.8710308,87.6404494 64.8363459,86.4093796 58.3585735,83.9179287 C58.3878847,80.4592086 58.3585735,77.0297997 58.3878847,73.5710796 C58.4171959,72.2520762 58.0947728,71.0503175 57.8602833,69.7606253 C57.3619932,67.0053737 56.863703,64.2208109 56.3654128,61.4655594 C61.875916,61.4655594 67.357108,61.4655594 72.8676111,61.4655594 C72.8969223,65.5398144 72.8383,69.6140694 72.8969223,73.6883244 C74.8607719,74.2745481 76.7953102,74.8021495 78.7884709,75.2125061 C78.7884709,67.2691744 78.8177821,59.2965315 78.7591597,51.3531998 C71.1089399,48.099658 63.4880313,44.7581827 55.8671226,41.4460186 C56.5119687,40.3908158 57.1568149,39.3649243 57.8309722,38.3390327 C58.0947728,37.8700537 58.4171959,37.4890083 58.3878847,36.9320957 C58.3878847,27.728383 58.3878847,18.3194919 58.3878847,9.11577919 C64.2501221,6.91744016 70.3761602,5.59843674 76.5901319,4.95359062 C82.71617,4.3087445 88.9594529,4.3087445 95.1148021,4.92427943 Z" fill="#231F20"></path>
                    <path d="M111.85149,10.1416707 C110.092819,11.6951637 108.099658,12.9262335 106.282364,14.3917929 C106.282364,16.7366878 106.282364,19.0522716 106.311676,21.3678554 C106.253053,21.924768 106.399609,22.4230581 105.901319,22.7747924 C104.084025,24.2989741 102.266732,25.8231558 100.420127,27.2887152 C100.420127,24.3575965 100.420127,21.3971666 100.420127,18.4660479 C102.354665,17.0591109 104.347826,15.7401075 106.253053,14.3038593 C103.234001,13.1021006 99.9804592,12.3400098 96.7855398,11.753786 C86.4093796,9.9951148 75.5349292,10.9037616 65.5691255,14.3038593 C65.5984367,22.0420127 65.5691255,29.7801661 65.5984367,37.5183195 C63.0776746,38.5735222 60.5862237,39.6873473 58.0361505,40.7132389 C58.593063,39.5114802 59.9706888,38.2510992 59.8241329,36.8734734 C59.7948217,27.9628725 59.8534441,19.0522716 59.7948217,10.1416707 C66.5070835,7.62090865 73.8348803,6.44846116 80.98681,6.00879336 C91.3043478,5.53981436 102.120176,6.5950171 111.85149,10.1416707 Z" fill="#818085"></path>
                    <path d="M4.92427943,16.5315095 C24.4748412,31.3922814 44.7874939,45.0512946 66.3019052,56.9516365 C65.3346361,56.9223254 64.3380557,57.0102589 63.3707865,56.863703 C62.4914509,56.5705911 61.7000489,56.0136786 60.9086468,55.5740107 C46.8099658,47.4548119 33.1216414,38.6321446 19.8729849,29.1939424 C15.3883732,26.0576453 11.0210064,22.71617 6.5950171,19.4919394 C6.88812897,20.5471422 7.2691744,21.5144113 7.79677577,22.4816805 C9.29164631,25.1783097 11.2261847,27.6404494 13.160723,30.0146556 C15.505618,32.8578407 18.0263801,35.4958476 20.6350757,38.075232 C29.5163654,46.839277 39.482169,54.6653639 49.7410845,61.72936 C50.4738642,62.2569614 51.2945774,62.6966292 51.9687347,63.3121641 C52.2325354,63.8983879 52.2911578,64.6311676 52.4377137,65.2467025 C39.5114802,56.5999023 26.9369809,46.7806546 16.2090865,35.4665364 C13.3659013,32.4181729 10.6399609,29.2232535 8.29506595,25.7938447 C7.23986321,24.2110405 6.15534929,22.5109917 5.48119199,20.7230093 C4.95359062,19.3746947 4.86565706,17.9677577 4.92427943,16.5315095 Z" fill="#FED104"></path>
                    <path d="M194.831461,16.5315095 C194.860772,17.703957 194.831461,18.8470933 194.538349,19.9902296 C194.040059,21.778212 192.984856,23.5075721 191.988276,25.061065 C189.731314,28.4904739 187.063996,31.6560821 184.308745,34.6751343 C178.387885,41.0356619 171.822179,46.8978994 165.021983,52.3497802 C156.492428,59.1792868 147.464582,65.3932584 138.172936,71.0796287 C138.172936,70.5227162 138.172936,69.9951148 138.172936,69.4382022 C151.216414,61.406937 163.849536,52.2911578 175.134343,41.9149976 C180.410357,37.0200293 185.627748,31.7147044 189.848559,25.852467 C191.196873,23.8886175 192.662433,21.7195896 193.248657,19.4040059 C188.588178,22.8334148 183.986321,26.2921348 179.26722,29.6336102 C166.018564,39.0425012 152.300928,47.8651685 138.172936,55.925745 C138.172936,55.3688324 138.172936,54.8412311 138.172936,54.2843185 C157.635564,43.1753786 176.365413,30.5715681 194.186615,17.0004885 C194.362482,16.8539326 194.596971,16.7073766 194.831461,16.5315095 Z" fill="#FED104"></path>
                    <path d="M10.024426,23.654128 C11.1382511,24.4162189 12.1934538,25.2662433 13.3072789,26.0576453 C28.4318515,37.1958964 44.2012702,47.5134343 60.4396678,56.9223254 C57.7723498,56.9516365 55.0757206,56.9223254 52.4084025,56.9516365 C40.2442599,49.037616 28.5490962,40.420127 17.6746458,30.8060576 C15.8866634,29.1646312 14.0107474,27.6111383 12.3106986,25.8817782 C11.9589643,25.5007328 11.5486077,25.3248657 11.0503175,25.1783097 C10.6692721,24.6800195 10.346849,24.1817294 10.024426,23.654128 Z" fill="#BCBBC0"></path>
                    <path d="M189.731314,23.654128 C189.438202,24.123107 189.14509,24.5627748 188.822667,25.0024426 C187.679531,25.2662433 186.946751,26.6438691 185.979482,27.3180264 C172.818759,39.3649243 158.485589,50.0048852 143.331705,59.4430874 C141.602345,60.4982902 139.931607,61.6121153 138.143625,62.5500733 C138.143625,60.8793356 138.114314,59.2085979 138.143625,57.5378603 C156.05276,47.3668784 173.170493,35.9062042 189.731314,23.654128 Z" fill="#BCBBC0"></path>
                    <path d="M188.822667,25.0024426 C184.748412,30.6595017 180,35.5251588 174.929165,40.2735711 C169.418661,45.4030288 163.644358,50.1221299 157.635564,54.6360528 C157.04934,55.0464094 156.492428,55.6033219 155.759648,55.7205667 C153.678554,56.1602345 151.568149,56.5412799 149.487054,56.9516365 C150.36639,57.5085491 151.245725,58.0654617 152.125061,58.6516854 C147.552516,61.8466048 142.892037,64.9242794 138.172936,67.8553981 C138.172936,66.0967269 138.172936,64.3380557 138.172936,62.5793845 C139.960918,61.6414265 141.660967,60.5276014 143.361016,59.4723986 C158.5149,50.0635076 172.818759,39.3942355 186.008793,27.3473376 C186.946751,26.6438691 187.679531,25.2662433 188.822667,25.0024426 Z" fill="#FFFFFF"></path>
                    <path d="M11.0503175,25.1783097 C11.5486077,25.3541768 11.9296532,25.5007328 12.3106986,25.8817782 C14.0107474,27.6111383 15.8866634,29.1646312 17.6746458,30.8060576 C28.5784074,40.420127 40.2442599,49.037616 52.4084025,56.9516365 C51.9101124,56.9516365 51.4118222,56.9516365 50.913532,56.9516365 C51.1773327,58.4758183 51.4411334,59.9706888 51.7342452,61.4655594 C48.7738153,59.4723986 45.901319,57.3913043 43.0288227,55.2808989 C43.9667807,54.6653639 44.8754275,54.049829 45.8133854,53.4636053 C43.6150464,52.9946263 41.4167074,52.5549585 39.2183683,52.1152907 C38.3976551,51.9687347 37.8114314,51.3531998 37.1665852,50.8549096 C33.4733757,47.9237909 29.8680997,44.9047386 26.3800684,41.7391304 C20.8109428,36.6096727 15.505618,31.3043478 11.0503175,25.1783097 Z" fill="#FFFFFF"></path>
                    <path d="M71.5486077,33.8251099 C84.9731314,39.6580362 98.4562775,45.5202736 111.85149,51.382511 C110.004885,52.7308256 108.041036,53.9032731 106.135809,55.1929653 C106.194431,63.0483635 106.16512,70.9037616 106.135809,78.7884709 C98.3976551,81.6609673 90.0439668,82.7747924 81.8368344,82.3058134 C76.29702,81.9540791 70.6985833,80.8109428 65.5398144,78.7005374 C67.4450415,77.381534 69.3795799,76.0625305 71.284807,74.7728383 C74.1866146,75.7401075 77.1470445,76.443576 80.1367855,77.0884221 C80.1660967,68.2071324 80.1367855,59.3258427 80.1367855,50.444553 C82.0420127,51.2652662 83.9472399,52.0859795 85.852467,52.9066927 C85.9110894,62.6966292 85.8231558,72.5158769 85.9110894,82.3058134 C87.728383,80.7230093 89.3991207,78.9936492 91.1577919,77.3522228 C91.7147044,76.765999 92.5354177,76.7366878 93.2975085,76.5608207 C95.6424035,76.1211529 97.9579873,75.5642404 100.214949,74.7142159 C100.185638,69.5261358 100.24426,64.3380557 100.185638,59.1499756 C102.090865,57.7723498 104.113337,56.5412799 106.047875,55.1636541 C93.7371764,49.7997069 81.3971666,44.4650708 69.0571568,39.1304348 C67.8847093,38.6321446 66.6829507,38.1338544 65.5398144,37.5476307 C67.5622863,36.2872496 69.5261358,34.9975574 71.5486077,33.8251099 Z" fill="#818085"></path>
                    <path d="M132.076209,50.0341964 C130.200293,51.9394235 128.295066,53.8153395 126.41915,55.7205667 C126.389839,73.0727894 126.41915,90.4543234 126.389839,107.835857 C118.710308,110.385931 110.444553,111.294577 102.383977,110.85491 C96.814851,110.503175 91.2164143,109.594529 85.9404006,107.806546 C84.0058622,109.213483 82.1592574,110.708354 80.2247191,112.085979 C80.1954079,103.732291 80.2540303,95.3786028 80.1954079,86.9956033 C82.1006351,87.0249145 84.0058622,87.1714704 85.9110894,87.2007816 C85.9404006,94.0302882 85.9110894,100.889106 85.9404006,107.718613 C87.8749389,106.077186 89.7508549,104.347826 91.6560821,102.618466 C93.2681974,103.234001 94.8510015,103.878847 96.5217391,104.318515 C99.5701026,105.168539 102.735711,105.403029 105.901319,105.43234 C109.242794,105.43234 112.613581,105.197851 115.867123,104.289204 C117.508549,103.849536 119.062042,103.20469 120.644846,102.559844 C120.703468,85.7059111 120.615535,68.8226673 120.644846,51.9687347 C124.4553,51.3238886 128.265755,50.5911089 132.076209,50.0341964 Z" fill="#818085"></path>
                    <path d="M93.1802638,57.655105 C95.0561798,58.4758183 96.9320957,59.2672203 98.8080117,60.0879336 C98.8080117,64.6311676 98.8373229,69.1450904 98.7787005,73.6883244 C96.9320957,74.3038593 95.0561798,74.7142159 93.1509526,75.0952614 C93.1509526,69.2916463 93.1509526,63.4587201 93.1802638,57.655105 Z" fill="#FED104"></path>
                    <path d="M94.616512,59.8827553 C94.9096238,60 95.2027357,60.1465559 95.4958476,60.2638007 C96.1113825,60.5276014 96.7269174,60.7914021 97.3131412,61.0552027 C97.3131412,64.9242794 97.3131412,68.7640449 97.3131412,72.6331216 C96.4044944,72.8676111 95.5251588,73.1021006 94.616512,73.3072789 C94.616512,68.8226673 94.616512,64.3673669 94.616512,59.8827553 Z" fill="#231F20"></path>
                    <path d="M58.0947728,62.9311187 C62.4914509,62.9311187 66.888129,62.9018075 71.284807,62.9604299 C69.4382022,64.6604787 67.4743527,66.1846605 65.5691255,67.826087 C65.5398144,71.4606742 65.5984367,75.1245725 65.5398144,78.7591597 C63.605276,80.0781632 61.7586712,81.5437225 59.8241329,82.8627259 C59.7948217,79.7557401 59.8241329,76.6487543 59.8241329,73.5417684 C59.8241329,72.7503664 59.7655105,71.9589643 59.5896434,71.1968735 C59.1206644,68.7347338 58.6809966,66.272594 58.2413288,63.8104543 C58.2120176,63.5466536 58.1533952,63.2535418 58.0947728,62.9311187 Z" fill="#818085"></path>
                    <path d="M28.9008305,81.6902785 C29.2232535,81.7489008 29.5163654,81.8368344 29.8387885,81.8954568 C33.3268197,82.71617 36.814851,83.5075721 40.3028823,84.2403517 C41.2115291,84.44553 42.1494871,84.5627748 43.0288227,84.8558867 C43.9081583,85.1489985 44.5823156,85.7938447 45.2564729,86.4093796 C47.1030777,88.1094284 49.037616,89.7508549 50.913532,91.4509038 C53.4636053,90.7474353 56.0136786,90.0146556 58.5637518,89.2232535 C59.531021,88.8715193 60.7620909,89.5456766 61.72936,89.8094773 C58.124084,91.0698583 54.4015633,92.0371275 50.7376649,93.1216414 C48.3634587,91.0405471 46.0185638,88.9301417 43.6736688,86.8490474 C42.9408891,86.1748901 42.0908647,86.1162677 41.1529067,85.9110894 C37.7234978,85.2369321 34.2940889,84.44553 30.8939912,83.654128 C32.3302394,88.9301417 33.7664875,94.2061553 35.2320469,99.482169 C34.3527113,99.5701026 33.9716659,99.7166585 33.3854421,100.332193 C33.0337079,100.273571 32.7112848,100.214949 32.3595506,100.156326 C31.8905716,100.156326 31.5095261,100.683928 31.1577919,100.97704 C30.8060576,100.918417 30.395701,100.801172 30.0439668,100.801172 C29.6336102,100.918417 29.2818759,101.358085 28.9594529,101.621886 C28.5784074,101.563263 28.1680508,101.446019 27.7870054,101.504641 C27.4059599,101.651197 27.0835369,102.061553 26.790425,102.354665 C26.3800684,102.325354 25.7645335,102.090865 25.4127992,102.354665 C25.1196873,102.589155 24.8851979,102.852956 24.6213972,103.087445 C24.2110405,103.058134 23.654128,102.852956 23.2730826,103.087445 C23.0092819,103.321935 22.7747924,103.585735 22.5109917,103.849536 C22.1885686,103.820225 21.8368344,103.761602 21.5144113,103.761602 C21.0747435,103.849536 20.7230093,104.377137 20.4005862,104.670249 C19.2867611,104.465071 19.110894,104.69956 18.3488031,105.403029 C15.7987298,102.852956 13.2193454,100.332193 10.7278945,97.752809 C10.0537372,97.0493405 9.3209575,96.5217391 8.29506595,96.6682951 C7.06399609,96.8734734 6.41914998,98.1338544 6.65363947,99.3063019 C6.94675134,100.918417 7.2691744,102.383977 6.80019541,103.996092 C6.53639472,105.197851 5.77430386,106.018564 4.92427943,106.839277 C5.18808012,107.982413 5.59843674,109.066927 5.89154861,110.210064 C5.89154861,111.089399 5.62774792,111.910112 5.74499267,112.789448 C6.03810454,115.456766 7.91402052,117.977528 10.493405,118.798241 C11.431363,119.120664 12.369321,119.00342 13.3365901,118.886175 C15.4763068,120.967269 17.5867123,123.048363 19.7264289,125.129458 C21.3678554,126.770884 23.4196385,127.884709 25.6472887,128.500244 C29.9853444,129.731314 34.9682462,129.37958 39.3649243,128.617489 C45.0219834,127.591597 50.5324866,125.862237 55.8085002,123.575965 C54.2256961,118.065462 52.6135809,112.554958 51.0600879,107.015144 C58.8568637,104.787494 66.5950171,102.354665 74.2159257,99.628725 C74.2159257,100.156326 74.2159257,100.713239 74.1866146,101.24084 C67.1226185,103.732291 60,105.989253 52.8187592,108.099658 C54.4015633,113.551539 55.9843674,119.00342 57.5378603,124.4553 C51.4704446,127.15193 45.0219834,129.262335 38.4562775,130.288227 C33.8837323,130.991695 28.7249634,131.138251 24.2989741,129.555447 C22.247191,128.822667 20.4005862,127.708842 18.8764045,126.18466 C16.9418661,124.308745 15.0073278,122.432829 13.1021006,120.527601 C12.0175867,120.556913 10.9916952,120.527601 9.96580362,120.146556 C6.47777235,118.856864 4.01563263,115.017098 4.3087445,111.323889 C4.63116756,109.594529 3.6345872,107.835857 3.31216414,106.077186 C3.89838788,105.520274 4.543234,104.963361 4.98290181,104.259893 C5.56912555,103.234001 5.65705911,101.914998 5.48119199,100.771861 C5.30532487,99.6580362 4.95359062,98.6614558 5.27601368,97.5476307 C5.56912555,96.3751832 6.44846116,95.407914 7.65021983,95.1734245 C8.99853444,94.9096238 10.2296043,95.4665364 11.1675623,96.4044944 C13.4831461,98.7493894 15.828041,101.064973 18.172936,103.351246 C18.9350269,103.175379 19.6384954,102.9702 20.3126527,102.589155 C23.3903273,101.387396 26.468002,100.302882 29.6336102,99.3356131 C30.7474353,99.159746 31.6267709,98.544211 32.7699072,98.5735222 C32.9750855,98.4562775 33.1802638,98.3390327 33.3561309,98.221788 C31.9198828,92.740596 30.395701,87.2300928 28.9008305,81.6902785 Z" fill="#FED104"></path>
                    <path d="M170.825598,81.6902785 C169.330728,87.259404 167.747924,92.8285296 166.311676,98.4269663 C170.708354,99.3942355 175.017098,101.006351 179.237909,102.559844 C180,102.9702 180.703468,103.20469 181.524182,103.409868 C183.898388,101.094284 186.243283,98.7787005 188.558867,96.4338056 C189.584758,95.3492916 191.10894,94.8216903 192.574499,95.3786028 C194.040059,95.9648266 194.714216,97.5769419 194.509038,99.0718124 C194.303859,100.537372 193.893503,101.827064 194.303859,103.321935 C194.596971,104.582316 195.505618,105.227162 196.384954,106.106497 C196.121153,107.249634 195.79873,108.334148 195.476307,109.447973 C195.183195,110.415242 195.505618,111.499756 195.417684,112.525647 C195.153884,115.456766 193.365901,118.27064 190.786517,119.706888 C189.496825,120.439668 188.089888,120.644846 186.624328,120.556913 C184.660479,122.491451 182.696629,124.425989 180.703468,126.360528 C179.355154,127.65022 177.801661,128.6468 176.072301,129.350269 C171.822179,131.079629 166.809966,131.050318 162.325354,130.493405 C155.407914,129.555447 148.549096,127.357108 142.159257,124.513923 C143.742062,119.062042 145.324866,113.610161 146.90767,108.128969 C143.976551,107.249634 141.045432,106.399609 138.143625,105.461651 C138.143625,104.93405 138.143625,104.406448 138.143625,103.849536 C141.660967,104.963361 145.17831,105.989253 148.724963,107.015144 C147.142159,112.525647 145.530044,118.03615 143.976551,123.575965 C150.014656,126.18466 156.404494,128.14851 162.940889,128.998534 C167.454812,129.555447 172.672203,129.526136 176.834392,127.445042 C179.032731,126.389839 180.410357,124.719101 182.139717,123.077675 C183.575965,121.700049 184.982902,120.263801 186.41915,118.886175 C187.327797,119.00342 188.207132,119.120664 189.115779,118.856864 C191.753786,118.094773 193.688324,115.515388 193.981436,112.818759 C194.06937,111.910112 193.864191,111.089399 193.83488,110.239375 C194.127992,109.12555 194.538349,108.041036 194.802149,106.897899 C194.215926,106.282364 193.600391,105.696141 193.248657,104.904739 C192.60381,103.46849 192.60381,101.885686 192.896922,100.361505 C193.043478,99.5114802 193.307279,98.7493894 192.926234,97.8993649 C192.574499,97.0786517 191.812408,96.6096727 190.903762,96.6682951 C189.995115,96.7562286 189.37958,97.4303859 188.764045,98.0459209 C186.331216,100.537372 183.839766,102.999511 181.377626,105.461651 C181.055203,105.197851 180.73278,104.816805 180.322423,104.640938 C180,104.640938 179.677577,104.69956 179.325843,104.758183 C179.032731,104.43576 178.710308,103.908158 178.27064,103.790914 C177.918906,103.761602 177.596483,103.849536 177.244748,103.908158 C176.893014,103.556424 176.54128,102.9702 175.984367,102.9702 C175.691255,102.999511 175.427455,103.058134 175.134343,103.116756 C174.782609,102.823644 174.401563,102.237421 173.932584,102.208109 C173.610161,102.237421 173.287738,102.296043 172.936004,102.354665 C172.613581,102.061553 172.261847,101.533952 171.822179,101.47533 C171.470445,101.47533 171.148021,101.592574 170.825598,101.651197 C170.503175,101.358085 170.210064,100.947728 169.799707,100.801172 C169.418661,100.74255 169.008305,100.889106 168.627259,100.97704 C168.304836,100.683928 167.953102,100.214949 167.513434,100.127015 C167.1617,100.156326 166.809966,100.24426 166.458232,100.332193 C165.842697,99.6873473 165.490962,99.5114802 164.553004,99.4235467 C166.018564,94.147533 167.454812,88.8715193 168.89106,83.5955056 C165.490962,84.3575965 162.120176,85.1489985 158.720078,85.8231558 C157.723498,86.0283341 156.814851,86.1455789 156.023449,86.8783586 C153.707865,88.9594529 151.421593,91.0405471 149.076698,93.0630191 C145.44211,92.0078163 141.807523,90.9819248 138.202247,89.8387885 C138.202247,89.3111871 138.202247,88.7542745 138.202247,88.2266732 C141.71959,89.3404983 145.266243,90.3663898 148.812897,91.3922814 C151.040547,89.5163654 153.180264,87.5525159 155.349292,85.6179775 C156.05276,84.9731314 156.902785,84.6800195 157.840743,84.5041524 C162.149487,83.7127504 166.487543,82.71617 170.825598,81.6902785 Z" fill="#FED104"></path>
                    <path d="M32.8578407,85.6472887 C35.7010259,86.2042013 38.544211,86.9076698 41.3873962,87.4645823 C41.8856864,87.6111383 42.7357108,87.6404494 42.9702003,88.1680508 C43.3219345,88.8422081 42.8529555,89.8094773 42.0322423,89.6922325 C39.8925256,89.3404983 37.752809,88.7835857 35.6130923,88.3732291 C37.8114314,96.4044944 40.0683928,104.406448 42.296043,112.408403 C37.8700537,114.137763 33.2681974,115.398144 28.6077186,116.218857 C24.8851979,116.834392 20.9281876,117.127504 17.1763556,116.570591 C14.2452369,116.101612 11.284807,115.017098 9.20371275,112.818759 C7.79677577,111.3532 7.00537372,109.535906 6.53639472,107.601368 C7.65021983,106.399609 8.23644358,105.080606 8.4123107,103.439179 C8.58817782,102.032242 8.29506595,100.713239 8.08988764,99.3356131 C7.97264289,98.8080117 8.38299951,98.221788 8.96922325,98.221788 C9.46751343,98.2510992 9.76062531,98.544211 9.90718124,98.9838788 C10.7865169,102.120176 10.5813385,105.520274 8.70542257,108.246214 C9.40889106,110.239375 10.6399609,111.763556 12.4865657,112.818759 C15.6228627,114.694675 19.7850513,114.929165 23.3317049,114.723986 C28.988764,114.342941 34.616512,112.994626 39.951148,111.11871 C37.5183195,102.677088 35.1148021,94.147533 32.8578407,85.6472887 Z" fill="#BCBBC0"></path>
                    <path d="M166.927211,85.6179775 C164.611627,94.147533 162.208109,102.647777 159.892526,111.177333 C164.230581,112.672203 168.773815,113.844651 173.346361,114.460186 C177.244748,114.958476 181.670738,115.134343 185.42257,113.786028 C188.060576,112.84807 190.288227,111.001466 191.138251,108.246214 C189.262335,105.549585 189.086468,102.090865 189.965804,99.01319 C190.141671,98.3097215 190.991695,97.9579873 191.519297,98.5148999 C192.017587,98.9838788 191.636541,99.9218368 191.577919,100.537372 C191.079629,103.058134 191.460674,105.725452 193.307279,107.630679 C192.896922,109.272106 192.281387,110.85491 191.196873,112.203224 C189.702003,114.07914 187.620909,115.280899 185.334636,115.984367 C181.465559,117.186126 177.03957,117.068881 173.053249,116.54128 C167.747924,115.8085 162.501221,114.372252 157.489008,112.467025 C159.687347,104.43576 161.97362,96.4338056 164.171959,88.4025403 C162.325354,88.7835857 160.478749,89.1646312 158.661456,89.5749878 C158.251099,89.6336102 157.694187,89.8387885 157.28383,89.6336102 C156.609673,89.3111871 156.492428,88.2559844 157.107963,87.8163166 C157.635564,87.5818271 158.192477,87.4938935 158.749389,87.3766488 C161.47533,86.8490474 164.20127,86.2335125 166.927211,85.6179775 Z" fill="#BCBBC0"></path>
                    <path d="M114.665364,88.3439179 C114.694675,90.2491451 114.665364,92.1543723 114.694675,94.0302882 C112.203224,93.0337079 109.741085,92.0078163 107.278945,90.9819248 C108.744504,90.1025892 110.327308,89.7508549 111.939424,89.2232535 C112.84807,88.9594529 113.727406,88.6370298 114.665364,88.3439179 Z" fill="#FFFFFF"></path>
                    <path d="M44.5236932,89.4870542 C46.0771861,90.8353688 47.6013679,92.2129946 49.1255496,93.5906204 C46.6634099,94.2647777 44.171959,94.8803127 41.6805081,95.5251588 C42.9408891,100.302882 44.2305813,105.080606 45.5202736,109.858329 C46.1944309,109.301417 46.839277,108.656571 47.5720567,108.128969 C48.1875916,107.747924 49.0083048,107.630679 49.7117733,107.425501 C51.1480215,112.320469 52.4670249,117.244748 53.9912066,122.110405 C53.4929165,122.022472 53.1704934,121.758671 52.8187592,121.406937 C51.4118222,119.970689 49.8290181,118.739619 48.4220811,117.303371 C46.9272106,115.837811 45.109917,114.548119 43.8495359,112.84807 C41.7684416,105.315095 39.628725,97.8114314 37.5769419,90.2784563 C39.159746,90.542257 40.7425501,91.0405471 42.3546654,91.1871031 C43.5271128,91.1871031 43.9374695,90.395701 44.5236932,89.4870542 Z" fill="#BCBBC0"></path>
                    <path d="M155.261358,89.4870542 C155.788959,90.4250122 156.28725,91.2457255 157.518319,91.2164143 C159.101124,91.0405471 160.654617,90.5715681 162.237421,90.3077675 C160.097704,98.0166097 157.987298,105.725452 155.759648,113.404983 C153.502687,115.222277 151.450904,117.361993 149.252565,119.26722 C148.168051,120.234489 147.17147,121.289692 146.057645,122.22765 L145.969712,121.612115 C147.347338,116.893014 148.695652,112.173913 150.043967,107.454812 C150.425012,107.542745 150.806058,107.65999 151.187103,107.777235 C152.388862,108.011724 153.268197,109.154861 154.235467,109.88764 C155.525159,105.109917 156.78554,100.332193 158.075232,95.55447 C155.613092,94.938935 153.121641,94.3234001 150.659502,93.6199316 C152.154372,92.1836834 153.707865,90.8353688 155.261358,89.4870542 Z" fill="#BCBBC0"></path>
                    <path d="M65.7743039,90.8353688 C68.5588666,91.5095261 71.431363,91.9198828 74.2452369,92.3302394 L74.2159257,92.6526624 C65.8915486,95.7010259 57.4499267,98.3976551 48.8617489,100.625305 C48.0117245,102.677088 47.0737665,104.69956 46.1944309,106.751343 L46.0185638,106.780655 C45.109917,103.409868 44.2598925,100.039082 43.3512457,96.6682951 C50.2686859,94.8803127 57.1275037,92.9750855 63.8983879,90.7474353 C64.5725452,90.5129458 65.1294577,90.6888129 65.7743039,90.8353688 Z" fill="#BCBBC0"></path>
                    <path d="M138.172936,91.5388373 C138.75916,91.6853933 139.345383,91.8612604 139.931607,92.0371275 C145.354177,93.7664875 150.86468,95.2320469 156.375183,96.6682951 C155.437225,100.039082 154.645823,103.46849 153.649243,106.809966 C152.652662,104.787494 151.802638,102.7064 150.893991,100.654617 C146.614558,99.482169 142.364436,98.3097215 138.172936,96.9320957 C138.172936,95.1441133 138.085002,93.3561309 138.172936,91.5388373 Z" fill="#BCBBC0"></path>
                    <path d="M105.403029,91.802638 C108.510015,93.0337079 111.587689,94.3820225 114.694675,95.5837811 C114.694675,96.1113825 114.694675,96.6682951 114.694675,97.1958964 C111.089399,95.7596483 107.454812,94.2940889 103.908158,92.7112848 C103.878847,92.271617 105.051295,92.0371275 105.403029,91.802638 Z" fill="#FED104"></path>
                    <path d="M74.2159257,92.6526624 C74.1866146,94.469956 74.2159257,96.2872496 74.1866146,98.075232 C64.9829018,101.387396 55.6619443,104.289204 46.1944309,106.751343 C47.0737665,104.69956 48.0117245,102.677088 48.8617489,100.625305 C57.4499267,98.3976551 65.9208598,95.7303371 74.2159257,92.6526624 Z" fill="#FFFFFF"></path>
                    <path d="M138.143625,96.9614069 C142.364436,98.3390327 146.614558,99.5114802 150.86468,100.683928 C151.773327,102.735711 152.623351,104.846116 153.619932,106.839277 C148.431851,105.403029 143.243771,103.966781 138.114314,102.325354 C138.143625,100.537372 138.143625,98.7493894 138.143625,96.9614069 Z" fill="#FFFFFF"></path>
                    <path d="M11.5486077,100.508061 C13.2779678,102.296043 15.0659502,104.054714 16.8539326,105.813385 C16.6780655,106.077186 16.5021983,106.311676 16.3263312,106.575476 C16.0039082,106.487543 15.6521739,106.399609 15.3297509,106.311676 C14.7142159,106.253053 14.4211041,106.809966 14.2452369,107.308256 C13.7469468,108.89106 14.0693698,110.649731 14.3331705,112.261847 C12.5451881,111.499756 11.0796287,110.503175 10.2002931,108.744504 C11.6072301,106.223742 11.9589643,103.351246 11.5486077,100.508061 Z" fill="#BCBBC0"></path>
                    <path d="M188.207132,100.508061 C187.796776,103.351246 188.14851,106.194431 189.555447,108.744504 C188.6468,110.503175 187.181241,111.499756 185.42257,112.261847 C185.627748,110.85491 185.891549,109.565217 185.68637,108.128969 C185.598437,107.542745 185.42257,106.868588 184.953591,106.458232 C184.4553,106.135809 183.927699,106.487543 183.400098,106.604787 C183.224231,106.340987 183.077675,106.077186 182.901808,105.813385 C184.68979,104.054714 186.448461,102.296043 188.207132,100.508061 Z" fill="#BCBBC0"></path>
                    <path d="M34.4113337,101.446019 C34.9096238,101.094284 35.0268686,101.827064 35.1441133,102.149487 C35.4372252,103.263312 35.7303371,104.406448 35.9648266,105.520274 C36.0820713,105.872008 35.9355154,106.135809 35.55447,106.311676 C35.1148021,105.637518 34.9975574,104.787494 34.7923791,103.996092 C34.6751343,103.234001 34.147533,102.149487 34.4113337,101.446019 Z" fill="#FED104"></path>
                    <path d="M164.846116,101.446019 C165.197851,101.299463 165.403029,101.387396 165.43234,101.73913 C165.373718,102.47191 165.109917,103.20469 164.963361,103.937469 C164.758183,104.758183 164.611627,105.520274 164.259893,106.311676 C163.820225,106.194431 163.673669,105.959941 163.790914,105.608207 C164.084025,104.20127 164.377137,102.765022 164.846116,101.446019 Z" fill="#FED104"></path>
                    <path d="M32.6233512,101.944309 C33.0923302,103.292623 33.4147533,104.728872 33.7664875,106.106497 C33.9423547,106.458232 33.7957987,107.39619 33.2681974,106.897899 C32.7992184,105.813385 32.6233512,104.582316 32.271617,103.439179 C32.1836834,102.882267 31.7147044,102.090865 32.6233512,101.944309 Z" fill="#FED104"></path>
                    <path d="M167.65999,102.149487 C167.718613,102.9702 167.366878,103.849536 167.191011,104.640938 C167.044455,105.256473 166.897899,105.872008 166.692721,106.458232 C166.604787,106.956522 166.135809,107.425501 165.93063,106.692721 C166.106497,105.403029 166.516854,104.142648 166.839277,102.882267 C167.073766,102.413288 166.927211,101.709819 167.65999,102.149487 Z" fill="#FED104"></path>
                    <path d="M30.4836346,102.911578 C30.9526136,104.230581 31.2457255,105.637518 31.5681485,106.985833 C31.6267709,107.425501 31.6560821,108.187592 31.0405471,107.65999 C30.7181241,106.956522 30.6008793,106.194431 30.395701,105.461651 C30.1905227,104.69956 29.9560332,103.908158 29.8680997,103.116756 C30.0146556,102.442599 30.0146556,102.618466 30.4836346,102.911578 Z" fill="#FED104"></path>
                    <path d="M169.506595,102.618466 L169.829018,102.852956 C169.88764,104.113337 169.242794,105.520274 169.008305,106.751343 C168.773815,107.1617 168.861749,108.128969 168.15828,107.718613 C167.982413,106.927211 168.422081,105.989253 168.597948,105.227162 C168.861749,104.377137 168.949682,103.321935 169.506595,102.618466 Z" fill="#FED104"></path>
                    <path d="M27.6990718,103.497802 L28.2266732,103.439179 C28.7249634,104.69956 28.9594529,106.047875 29.3111871,107.337567 C29.3698095,107.747924 29.6629213,108.422081 29.1060088,108.568637 C28.4904739,108.041036 28.4611627,106.839277 28.197362,106.106497 C27.9921837,105.285784 27.6404494,104.377137 27.6990718,103.497802 Z" fill="#FED104"></path>
                    <path d="M171.558378,103.380557 L172.085979,103.585735 C172.056668,104.43576 171.763556,105.285784 171.558378,106.106497 C171.411822,106.722032 171.265266,107.337567 171.089399,107.923791 C170.942843,108.422081 170.591109,108.978994 170.297997,108.187592 C170.591109,106.634099 171.001466,104.846116 171.558378,103.380557 Z" fill="#FED104"></path>
                    <path d="M25.8817782,103.937469 C26.4973131,105.168539 26.7024915,106.487543 27.0835369,107.865169 C27.1714704,108.363459 27.4352711,108.861749 27.0249145,109.272106 C26.321446,109.008305 26.321446,107.65999 26.0869565,107.044455 C25.9404006,106.106497 25.0903762,104.69956 25.8817782,103.937469 Z" fill="#FED104"></path>
                    <path d="M174.225696,104.318515 C174.137763,105.959941 173.522228,107.689301 173.053249,109.272106 C172.84807,109.184172 172.642892,109.096238 172.467025,109.008305 C172.730826,107.65999 173.08256,106.311676 173.434294,104.963361 C173.551539,104.640938 173.756717,103.644358 174.225696,104.318515 Z" fill="#FED104"></path>
                    <path d="M23.8299951,104.758183 C24.2989741,106.077186 24.592086,107.454812 24.914509,108.803127 C24.9438202,109.272106 25.2369321,109.975574 24.4748412,109.799707 C24.0058622,108.803127 23.8886175,107.65999 23.5661944,106.634099 C23.4782609,105.872008 22.9799707,105.285784 23.8299951,104.758183 Z" fill="#FED104"></path>
                    <path d="M175.8085,105.051295 L176.277479,104.875427 C176.570591,105.989253 175.896434,107.337567 175.720567,108.480703 C175.515388,108.949682 175.574011,109.975574 174.841231,109.858329 C174.548119,109.066927 175.105032,107.982413 175.222277,107.1617 C175.398144,106.458232 175.5447,105.725452 175.8085,105.051295 Z" fill="#FED104"></path>
                    <path d="M21.5144113,105.66683 L21.778212,105.813385 C22.1885686,106.839277 22.3351246,107.982413 22.6282364,109.037616 C22.6575476,109.535906 23.0972154,110.327308 22.3644358,110.473864 C21.8954568,109.829018 21.8075232,108.861749 21.6023449,108.099658 C21.5730337,107.513434 20.840254,106.018564 21.5144113,105.66683 Z" fill="#FED104"></path>
                    <path d="M177.918906,105.93063 L178.299951,105.608207 C178.827553,106.282364 178.212018,107.454812 178.124084,108.216903 C178.006839,108.685882 177.918906,109.154861 177.801661,109.62384 C177.655105,110.004885 177.713727,110.385931 177.215437,110.444553 C176.805081,110.092819 177.03957,109.741085 177.098192,109.272106 C177.361993,108.15828 177.53786,107.015144 177.918906,105.93063 Z" fill="#FED104"></path>
                    <path d="M19.4626282,106.458232 C19.9902296,107.015144 19.9902296,107.982413 20.1954079,108.685882 C20.3419638,109.360039 20.517831,110.063508 20.5471422,110.766976 L19.9902296,110.942843 C19.579873,109.916952 19.433317,108.773815 19.1988276,107.718613 C19.1695164,107.249634 18.9057157,106.692721 19.4626282,106.458232 Z" fill="#FED104"></path>
                    <path d="M180.351734,106.487543 L180.615535,106.722032 C180.586224,108.070347 180.175867,109.565217 179.794822,110.85491 L179.50171,110.942843 L179.208598,110.796287 C179.208598,110.034196 179.413776,109.330728 179.560332,108.597948 C179.765511,108.041036 179.736199,106.692721 180.351734,106.487543 Z" fill="#FED104"></path>
                    <path d="M17.4108451,107.1617 C17.9091353,108.422081 18.2608696,110.004885 18.2608696,111.3532 L17.6746458,111.382511 C17.3522228,110.297997 17.1177333,108.978994 17.0297997,107.865169 L17.4108451,107.1617 Z" fill="#FED104"></path>
                    <path d="M182.081094,107.718613 C182.22765,107.308256 182.432829,107.249634 182.72594,107.572057 C182.696629,108.832438 182.403517,110.151441 182.081094,111.3532 L181.524182,111.382511 C181.377626,110.210064 181.846605,108.861749 182.081094,107.718613 Z" fill="#FED104"></path>
                    <path d="M15.505618,108.128969 C15.7401075,109.301417 16.0332193,110.503175 16.0039082,111.704934 L15.5935515,111.85149 C15.0073278,111.177333 15.0952614,109.829018 14.9487054,108.949682 C14.8607719,108.451392 15.1538837,108.39277 15.505618,108.128969 Z" fill="#FED104"></path>
                    <path d="M184.425989,108.011724 C185.041524,108.832438 184.631168,109.88764 184.543234,110.85491 C184.396678,111.265266 184.4553,112.203224 183.781143,111.734245 C183.634587,110.942843 183.898388,110.063508 183.986321,109.272106 C184.103566,108.861749 184.250122,108.451392 184.425989,108.011724 Z" fill="#FED104"></path>
                    <path d="M7.09330728,112.437714 C8.58817782,114.284319 10.4054714,115.8085 11.9589643,117.596483 C9.52613581,117.53786 7.67953102,115.691255 7.21055203,113.375672 C7.15192965,113.08256 7.12261847,112.760137 7.09330728,112.437714 Z" fill="#818085"></path>
                    <path d="M192.691744,112.408403 C192.515877,114.137763 191.84172,115.691255 190.405471,116.717147 C189.614069,117.303371 188.734734,117.479238 187.767465,117.567171 C189.37958,115.8085 191.138251,114.225696 192.691744,112.408403 Z" fill="#818085"></path>
                    <path d="M43.8202247,112.877382 C45.0806058,114.57743 46.8978994,115.837811 48.3927699,117.332682 C49.7997069,118.76893 51.382511,120 52.789448,121.436248 C53.1411822,121.787982 53.4342941,122.022472 53.9618955,122.139717 C53.9912066,122.344895 53.9912066,122.520762 53.9912066,122.72594 C52.9066927,123.282853 51.704934,123.663898 50.5911089,124.103566 C45.6668295,125.832926 40.5080606,127.210552 35.2906693,127.738153 C31.9491939,128.060576 28.2852956,128.001954 25.0903762,126.91744 C23.4489497,126.360528 21.9540791,125.481192 20.6936981,124.279433 C18.2901808,121.96385 15.9159746,119.648266 13.5417684,117.27406 C18.9057157,118.974108 24.2989741,118.622374 29.7508549,117.655105 C34.5872008,116.746458 39.3649243,115.368832 43.8788471,113.463605 L43.8202247,112.877382 Z" fill="#818085"></path>
                    <path d="M155.730337,113.375672 C160.449438,115.339521 165.403029,116.775769 170.415242,117.684416 C175.749878,118.593063 180.967269,118.886175 186.18466,117.215437 C183.781143,119.589643 181.348315,121.96385 178.915486,124.308745 C177.361993,125.803615 175.398144,126.712262 173.287738,127.210552 C169.565217,128.119199 165.461651,127.884709 161.709819,127.327797 C156.228627,126.448461 150.806058,124.777723 145.647289,122.696629 C145.735222,122.315584 145.852467,121.934538 145.940401,121.553493 L146.028334,122.169028 C147.142159,121.23107 148.13874,120.175867 149.223254,119.208598 C151.421593,117.332682 153.473376,115.222277 155.730337,113.375672 Z" fill="#818085"></path>
                </g>
            </g>
        </g>
    </g>
</svg>