<?xml version="1.0" encoding="UTF-8"?>
<svg width="200px" height="200px" viewBox="0 0 200 200" version="1.1" xmlns="http://www.w3.org/2000/svg" xmlns:xlink="http://www.w3.org/1999/xlink">
    <!-- Generator: Sketch 51.3 (57544) - http://www.bohemiancoding.com/sketch -->
    <title>southern-wesleyan</title>
    <desc>Created with Sketch.</desc>
    <defs></defs>
    <g id="southern-wesleyan" stroke="none" stroke-width="1" fill="none" fill-rule="evenodd">
        <g id="southern-wesleyan_BGL" transform="translate(0.985222, 0.985222)">
            <g id="southern-wesleyan">
                <g id="g10" transform="translate(98.455807, 99.938343) scale(-1, 1) rotate(-180.000000) translate(-98.455807, -99.938343) translate(0.000000, 0.222774)" fill-rule="nonzero">
                    <g id="g12">
                        <path d="M158.516324,38.1242325 L155.481694,21.6948194 C155.481694,21.6948194 133.908029,23.6640605 117.640019,26.4309907 L111.455156,25.3253148 C99.9748903,22.6445572 92.5997195,5.75305796 92.5997195,5.75305796 L60.1192017,25.9491029 C52.0716326,45.3168367 12.7421258,56.7155285 12.7421258,56.7155285 C14.4060113,57.0160896 26.3091947,60.3809597 37.1381669,64.5584056 C38.5844243,65.6156735 40.1321426,66.9112687 41.000392,68.1421549 C41.000392,68.1421549 30.9498747,65.3844182 20.8997816,69.7623561 C20.8997816,69.7623561 39.5414077,72.8436379 41.163012,83.0581189 C41.163012,83.0581189 28.2353579,81.3548214 22.520997,86.8278625 C22.520997,86.8278625 41.4868379,93.7591554 41.8103103,102.028122 C41.8103103,102.028122 33.0984738,98.9889188 28.1131101,100.569517 C28.1131101,100.569517 40.8388325,106.082515 44.2425399,114.351481 L31.4621984,108.758216 L31.4381589,108.823632 C32.7862434,110.039313 42.0316149,118.447952 44.4656122,122.542302 L44.3726359,122.603829 C35.6102459,117.520456 28.9348007,113.025123 28.2280047,112.550943 L28.1725018,112.575342 C31.9004947,131.544991 49.7542975,147.022121 49.7542975,147.022121 C40.5146531,143.861279 34.6926448,135.099392 34.6926448,135.099392 L34.6454143,135.11884 C35.4239399,153.573292 63.6141177,165.262998 63.6141177,165.262998 L63.5967952,165.376858 C53.4638013,168.983237 34.9109798,162.187727 32.909976,161.4388 L32.8472966,161.553367 C47.6183191,184.841902 73.4618196,177.058784 73.4618196,177.058784 C72.0021283,183.38259 63.4917992,184.71991 63.4917992,184.71991 L63.5080612,184.847206 C84.9484483,188.390999 85.1796515,176.955886 85.1796515,176.955886 L85.300556,176.953411 C86.519499,184.736883 75.6964306,194.935452 75.6964306,194.935452 L75.768549,195.079721 C101.832294,194.626051 110.664327,179.977409 110.664327,179.977409 C114.784623,184.098632 111.146885,193.284841 110.70675,194.347413 L110.753415,194.403635 C124.997867,187.226236 121.727791,175.842749 121.727791,175.842749 C127.848313,177.108995 127.549233,183.915113 127.3251,185.914729 L127.39934,185.935945 C133.581375,170.590709 120.94474,164.265489 118.577205,163.22979 L118.625284,163.119467 C122.028638,163.662952 132.598231,168.722633 134.077719,169.436554 L134.176352,169.341435 C129.677434,158.39606 122.941077,157.671178 122.941077,157.671178 L122.959814,157.579241 C131.773465,156.867442 134.515026,152.540776 134.915919,151.767804 L134.857942,151.643336 C133.310931,151.933289 128.939281,151.377428 124.233199,150.602334 C141.339056,148.281295 148.64423,138.211083 150.456736,135.227749 L152.443881,144.723359 C152.476052,144.690827 176.749209,119.638528 177.035561,92.0555043 C182.474847,93.4882968 188.020189,95.2336728 192.29957,96.8786261 C192.369214,91.7093286 191.315719,63.9643554 158.516324,38.1242325 Z M196.061395,102.615454 L196.0469,102.71623 L181.782651,99.1498074 C180.707945,119.8567 168.390894,141.330908 150.953787,154.56479 L150.856215,154.625963 L148.060212,146.883155 C147.329129,147.335058 142.674308,150.176952 139.553418,151.194263 C139.398575,151.776644 137.825757,157.052729 131.523525,158.826747 C132.571717,159.752121 139.352971,166.124371 136.767666,173.770292 L136.626611,173.816614 C136.597976,173.796105 133.818941,171.839629 130.237059,170.29722 L130.156456,170.419566 C130.721737,171.340697 132.291374,173.922694 132.714893,177.270945 C133.202753,181.135807 132.420056,186.817119 125.917377,191.93267 L125.76713,191.854524 C125.771019,191.780267 126.083179,184.50492 124.272087,182.559406 L124.232139,182.567892 C124.145172,183.324599 123.697614,186.261965 121.698448,189.476555 C119.566359,192.903659 115.188345,197.359389 106.425955,199.125274 L106.321666,198.998331 C106.359847,198.906748 110.067936,189.928457 109.625681,186.33905 C108.996058,186.950073 106.142077,189.622239 101.708561,192.26258 C97.0689415,195.023852 89.7026088,198.314112 80.9437539,198.314112 C76.8641129,198.314112 72.7809367,197.603727 68.8087663,196.202405 L68.7921508,196.035859 C68.8342199,196.010046 73.0552696,193.399054 76.841134,188.525721 L76.7258859,188.442978 C70.7669233,190.068483 63.9803663,188.081598 55.5463979,183.794889 L55.5775078,183.619503 C55.6386671,183.612431 61.4346562,182.982313 63.8523914,181.200516 L63.8340083,181.133686 C62.0462488,181.133686 55.6482122,180.894297 48.3854613,177.817612 C38.9807222,173.833233 32.0892753,166.869055 27.9055575,157.117085 L28.0221136,156.99297 C28.1974958,157.056972 45.4971886,163.294853 53.4436505,163.469532 L53.4680435,163.356733 C41.0866513,158.492947 31.8697029,147.80358 30.5743992,132.308063 C30.1440926,131.747251 22.39532,121.351373 24.8703965,108.622786 L24.9400049,108.5701 L31.2013347,112.048476 L31.2274246,112.013116 L26.4974097,105.461944 L26.5160756,105.399003 L31.8163918,106.435409 L31.8340679,106.37954 C27.8390247,103.143381 22.7917947,101.750191 22.7917947,101.750191 C22.7917947,101.583645 22.9057347,97.6922627 32.8990522,96.9284839 L32.9330256,96.8528132 C26.2144508,91.4087675 16.942247,88.1920564 16.942247,88.1920564 L16.9574485,88.1132033 C16.9707055,88.0400078 17.3242273,86.2939245 19.6330071,84.3646758 C21.7290376,82.6150565 25.9030689,80.3891362 33.9213664,79.6702648 C32.3109334,78.59956 22.0003655,72.016918 11.8179846,71.6855936 L11.7396796,71.5452139 C11.7724157,71.4889913 15.0498098,65.8370279 24.1405509,64.7380351 C21.8540075,64.013506 10.5744365,60.448144 0,57.209156 L0,57.0327089 C21.9547966,49.445132 46.2894309,37.2964518 55.507157,21.4862654 L55.5205908,21.4635995 L93.8858317,0 L93.9279007,0.0897814942 C94.021584,0.286472223 103.396274,19.822253 111.677874,21.1131806 L158.980852,16.4406576 L163.626835,36.7112416 C179.567484,46.6506208 201.2366,70.8365968 196.061395,102.615454 Z" id="path14" fill="#100F0D"></path>
                        <polygon id="path16" fill="#94A0AB" points="152.448154 144.73351 152.442821 144.738843 152.445487 144.720176"></polygon>
                        <path d="M109.463414,147.530246 C105.437155,147.191142 98.8510446,146.079066 95.2847172,144.956382 C91.7516209,139.191973 87.3039637,130.579306 84.5843209,124.384211 C78.7501515,123.56421 70.9058574,121.97654 67.9726874,120.826275 C66.5614286,116.862051 65.5779311,114.038898 64.6630168,109.628429 C69.5122746,111.01596 76.0131861,112.552711 81.359142,113.055179 C73.8888739,88.0159629 73.3900547,62.4212393 78.0374516,19.3299692 L79.0637253,18.5602145 C80.4233699,53.4906846 86.4289974,88.7977754 95.8326759,113.209349 C103.256279,113.268754 112.321284,112.273366 118.222976,111.459023 C118.222976,111.459023 122.291304,116.368777 127.122886,120.594666 C114.333176,123.674533 99.3929935,124.362642 99.3929935,124.362642 C99.3929935,124.362642 102.614637,134.614958 109.463414,147.530246" id="path18" fill="#2A3C98"></path>
                        <path d="M116.582989,163.442305 L116.642027,163.372645 C127.420198,166.858801 127.769831,178.640796 127.769831,178.640796 L127.679329,178.640796 C126.340189,171.259723 119.7813,168.992785 119.7813,168.992785 C119.7813,166.865165 117.187864,164.080909 116.582989,163.442305" id="path20" fill="#2A3C98"></path>
                        <path d="M89.3865603,162.831635 L89.4424168,162.868056 C89.4120139,163.828437 88.6540633,172.746262 73.1768811,175.965449 C51.4476667,180.341972 38.8488586,166.66432 37.2109923,164.752751 L37.2707375,164.656218 C74.9420152,183.658399 89.3865603,162.831635 89.3865603,162.831635" id="path22" fill="#2A3C98"></path>
                        <path d="M87.0770028,161.129045 C59.9647127,173.655018 40.6348505,145.198599 40.6348505,145.198599 C57.1867388,160.099358 85.5261028,161.005285 87.0702858,161.048424 L87.0770028,161.129045" id="path24" fill="#2A3C98"></path>
                        <path d="M48.7849409,125.34141 L48.6781773,125.35025 C47.1318732,120.987517 38.1828236,113.423631 37.0773611,112.51523 L37.1356922,112.419757 C50.1201926,116.411563 48.7849409,125.34141 48.7849409,125.34141" id="path26" fill="#2A3C98"></path>
                        <path d="M84.7034577,174.082168 L84.7667381,174.101263 C83.7125363,186.990384 68.3134824,184.315744 68.3134824,184.315744 L68.3134824,184.16511 C78.1360842,182.810109 84.1194398,174.876003 84.7034577,174.082168" id="path28" fill="#2A3C98"></path>
                        <path d="M76.8234579,153.184331 L76.7898734,153.243029 C47.226617,154.36147 33.360292,121.636375 32.6068665,119.794113 L32.6739649,119.75946 C40.6171744,135.891812 76.8234579,153.184331 76.8234579,153.184331" id="path30" fill="#2A3C98"></path>
                        <path d="M79.2556876,149.94216 L79.2171537,149.961608 C77.9755853,149.049671 49.6026367,128.199569 39.2974777,123.918872 L39.3176284,123.834715 C42.3550873,124.650119 76.1602511,134.152094 79.2556876,149.94216" id="path32" fill="#2A3C98"></path>
                        <path d="M62.4771918,123.642356 L62.3969424,123.674533 C54.2913957,108.434317 61.0995175,91.4098283 61.0995175,91.4098283 C53.3188573,100.812087 52.548887,107.441758 52.548887,107.441758 L52.4484868,107.4262 C52.0688044,89.9819862 66.9358081,82.7356345 66.9358081,82.7356345 C58.5396665,93.8832694 62.0755911,120.744947 62.4771918,123.642356" id="path34" fill="#2A3C98"></path>
                        <path d="M58.1009461,87.7617236 C58.1009461,87.7617236 53.0823513,81.3304229 63.5267979,68.4674681 L63.6127037,68.5466748 C63.6127037,68.5466748 57.9393866,82.4106749 58.1009461,87.7617236" id="path36" fill="#2A3C98"></path>
                        <path d="M34.1158034,102.221896 L34.1478678,102.18406 C35.393537,102.10945 46.0695403,101.890571 47.6932657,116.138582 L47.6066529,116.190915 C47.6066529,116.190915 44.0187607,105.576511 34.1158034,102.221896" id="path38" fill="#2A3C98"></path>
                        <path d="M48.6258561,107.08745 L48.5710602,107.104776 C41.4405266,89.9483941 27.5886606,86.8130112 26.3387491,86.5626615 L26.3491073,86.5064389 C49.2445192,84.9435211 48.7188323,105.26322 48.6258561,107.08745" id="path40" fill="#2A3C98"></path>
                        <path d="M50.5992145,99.3343872 L50.4726537,99.3202432 C50.3828592,96.5632138 48.8902904,71.1919662 24.2450872,69.7733177 L24.2452286,69.7096695 C26.0197664,69.5204928 40.6673745,68.1750398 45.5371366,73.6544457 C45.5371366,73.6544457 43.9979029,67.8179025 41.5663803,66.1966405 L41.617641,66.118141 C43.5906458,66.5930275 55.7369461,70.8100768 50.5992145,99.3343872" id="path42" fill="#2A3C98"></path>
                        <path d="M51.7707856,109.170515 L51.8467928,109.157785 C54.9404616,122.681621 67.097014,128.863279 67.097014,128.863279 L71.7974392,133.727419 L71.7256743,133.79142 C52.2335456,128.301407 51.736494,111.417651 51.7707856,109.170515" id="path44" fill="#2A3C98"></path>
                        <path d="M54.9287954,88.248279 C54.9316236,86.9113124 54.9284419,81.7052403 53.3991068,79.4107214 C53.3991068,79.4107214 53.857978,68.8963865 51.0686914,63.636567 L51.1676775,63.5881236 C51.1676775,63.5881236 58.6676414,69.7630633 55.020004,88.248279 L54.9287954,88.248279" id="path46" fill="#2A3C98"></path>
                        <path d="M118.599123,157.281863 L118.581093,157.385468 C127.205257,158.713594 130.358671,165.183438 130.823198,166.250253 L130.751787,166.287734 C126.4618,160.853236 109.328722,157.361777 105.309887,156.586329 C105.063836,156.540007 104.820966,156.498282 104.573148,156.449839 L104.531786,156.343051 C104.531786,156.343051 106.335454,155.704094 107.490056,154.035803 C107.490056,154.035803 120.327137,157.135825 133.529761,152.382009 L133.581021,152.559517 C131.874572,153.65356 126.729416,156.515609 118.599123,157.281863" id="path48" fill="#2A3C98"></path>
                        <path d="M108.515269,164.453605 L108.629456,164.453605 C119.035722,187.708548 82.626871,193.260089 78.6872246,193.777761 L78.6433879,193.647282 C106.044152,185.625129 108.515269,164.453605 108.515269,164.453605" id="path50" fill="#2A3C98"></path>
                        <path d="M86.5085398,188.550473 L86.4272298,188.428834 C88.194485,186.508425 103.145627,170.320911 105.071613,159.49965 L105.167418,159.516269 C105.5471,161.475221 107.130878,174.498711 86.5085398,188.550473" id="path52" fill="#2A3C98"></path>
                        <path d="M115.648984,165.466319 L115.72888,165.426715 C125.779857,181.964295 115.081582,190.233969 115.081582,190.233969 L115.026432,190.170674 C120.426477,183.093698 116.268708,167.588987 115.648984,165.466319" id="path54" fill="#2A3C98"></path>
                        <path d="M93.7617455,144.581918 C80.0762115,140.988622 71.2233199,128.839941 68.2823725,122.062465 C69.04704,122.309986 70.3013352,122.704251 71.8260745,123.137413 C73.7103454,129.481728 78.9071151,137.191297 92.3045289,142.083725 C92.460432,142.363423 93.58251,144.045151 93.7617455,144.581918" id="path56" fill="#94A1AC"></path>
                        <path d="M191.007094,94.1863058 C191.00462,94.1276079 191.003559,94.0427436 190.989772,93.9401992 C188.178213,72.3454136 174.101331,53.0292349 156.131113,40.5191741 C151.242261,41.7903708 137.256233,53.6947125 137.256233,53.6947125 C139.183281,53.4528492 141.142498,53.7481063 143.131058,54.5497205 C142.048221,55.3212786 141.161588,55.975441 139.865931,56.9573918 C142.01605,58.7667697 152.421256,68.2659153 156.629932,79.5422611 C159.560628,79.4315839 161.821399,79.3926877 164.483065,79.4966465 C164.778255,80.0365957 165.073092,80.583617 165.368637,81.138771 C152.530848,80.8972613 143.952996,82.2140726 126.481598,87.3112355 L126.481598,87.4173159 C129.486886,87.0608858 144.865789,85.6588566 164.454429,86.9148484 C181.84876,88.030107 191.014165,94.298751 191.014165,94.298751 C191.014165,94.298751 191.012751,94.2584404 191.007094,94.1863058 Z M153.403693,24.3826137 C153.403693,24.3826137 120.785655,44.3819148 112.019376,69.0357054 L112.109171,69.151333 C112.109171,69.151333 131.440094,43.5421117 152.593775,30.5165003 L155.379526,36.5906636 L155.561236,36.539745 C155.561236,36.539745 153.943874,29.273627 153.403693,24.3826137 Z M143.460187,27.5752446 L136.044361,28.6834311 C136.044361,28.6834311 107.462127,47.6863191 103.242492,71.0611337 L108.509966,68.3249667 C108.509966,68.3249667 118.340345,46.3302581 143.488822,27.6785669 L143.460187,27.5752446 Z M126.766183,30.7562773 C124.15896,31.0459121 111.098452,32.7704257 104.496433,38.8363855 C101.930573,45.8518355 101.018133,53.6929445 101.160602,57.4018687 L105.351603,58.0008693 C105.351603,58.0008693 111.460105,40.4364314 126.803656,30.9659275 L126.766183,30.7562773 Z M109.2863,98.2113495 C116.574504,98.2113495 118.094294,93.1562651 117.623403,88.4866062 C117.307708,85.3540522 114.760937,81.0150106 112.736318,80.1023656 C112.736318,80.1023656 111.396117,80.9007973 110.856643,82.0411616 C111.282637,83.5241655 111.9766,85.2313526 112.728894,87.0265864 C116.177853,95.2517065 104.251796,97.0119338 103.242492,89.5131108 C102.529085,84.2090912 105.038382,82.1557284 108.222906,80.6285243 C107.646666,79.4605792 106.663168,78.7190773 105.748607,78.4188697 C96.8836961,81.4138728 96.2148329,98.2113495 109.2863,98.2113495 Z M118.586396,75.8411162 C117.757388,76.7272411 116.353199,78.3018277 116.353199,78.3018277 C120.171234,82.5167553 121.888997,87.232736 121.888997,87.232736 C123.319699,86.470018 124.718231,85.8434364 126.421145,85.1666435 C123.798721,80.1310073 120.622328,77.3258881 118.586396,75.8411162 Z M126.635026,67.9261045 C125.130437,69.3009064 123.895586,70.4642547 122.53276,71.807586 C127.925734,76.126826 130.928194,81.5744078 131.71478,83.3371104 C133.912625,82.6652679 135.880327,82.1755301 138.347555,81.6543217 C133.559457,73.8036654 127.182631,68.3840182 126.635026,67.9261045 Z M144.243591,43.2655955 L146.479969,37.6532355 L146.408558,37.5531663 C146.408558,37.5531663 120.554098,57.8456383 111.443489,72.8832412 L116.303706,71.9727179 C116.303706,71.9727179 131.715841,50.3273673 144.243591,43.2655955 Z M134.838145,60.8802448 C133.222197,62.1825584 132.335918,62.9205243 130.822491,64.224606 C138.009588,70.5190629 141.729344,78.7427685 142.60431,80.8555364 C145.76126,80.3230128 148.323585,80.0153797 151.760524,79.7611403 C146.026755,70.3539311 136.737264,62.0036361 135.128386,60.6465143 C135.11778,60.6550007 134.84875,60.8717583 134.838145,60.8802448 Z M164.854969,89.5703943 C154.92419,88.2832855 145.206584,88.8211131 145.206584,88.8211131 C143.630584,91.3451192 142.666884,97.804708 142.666884,97.804708 L139.221107,98.8793023 L142.30311,101.199988 C154.24967,97.555419 161.710393,95.6944153 161.710393,95.6944153 L164.854969,89.5703943 Z M156.999009,128.472196 L155.631233,134.850456 C155.631233,134.850456 173.124197,114.153111 173.695841,91.281471 C173.695841,91.281471 171.97914,90.6262478 168.605128,90.2546128 C168.605128,90.2546128 165.882304,94.8036936 164.171612,98.3542044 C164.171612,98.3542044 153.165773,101.322687 142.420833,103.204907 C142.420833,103.204907 133.578547,99.4945686 123.228844,94.298751 C121.093926,95.6480936 120.098409,97.4878812 120.098409,97.4878812 C120.098409,97.4878812 127.36717,123.074118 156.999009,128.472196 Z M192.299923,96.8786261 C188.020543,95.2336728 182.4752,93.4882968 177.035561,92.0555043 C176.749562,119.638528 152.476052,144.690827 152.444235,144.723359 L154.038618,129.839926 C126.021312,124.372542 114.84755,99.0377157 114.84755,99.0377157 C107.377636,102.003724 100.156954,99.0447878 97.9272923,92.3875359 C96.2929613,87.508545 97.6094762,81.1217982 103.278905,75.4319995 L103.022248,75.1324992 C94.7752924,79.5415539 91.3669892,88.3674426 95.0641197,95.8139326 C100.71269,107.192116 112.35699,103.105192 112.35699,103.105192 C113.870063,105.716537 115.44076,108.089556 117.040799,110.253242 C110.955629,111.129466 103.428798,111.685327 96.6874915,111.835962 C88.1340328,87.1903038 82.1938068,61.5096551 80.0730299,17.8972121 L90.7939304,11.3675749 C92.4632601,21.8504747 103.565257,25.9355599 103.565257,25.9355599 C99.0985099,27.1792465 95.1850241,28.7403255 91.4963782,31.7346214 C90.0709785,36.9821002 89.5735734,41.6602456 90.1278955,47.4769871 C91.1442705,58.1408954 95.5166275,58.9410952 95.5166275,58.9410952 C95.0602309,44.967125 96.1070088,38.0177985 97.9686543,33.6172655 C105.577856,28.5907522 117.640372,26.4309907 117.640372,26.4309907 C133.908029,23.6640605 155.482047,21.6948194 155.482047,21.6948194 L158.516678,38.1242325 C191.316072,63.9643554 192.369567,91.7093286 192.299923,96.8786261 Z" id="path58" fill="#94A1AC"></path>
                        <path d="M75.6875925,94.0218812 C73.874733,97.4415594 70.8446981,102.959508 70.6735936,109.88974 C68.5991279,109.445263 66.1792716,108.869954 64.5795856,108.450229 C63.2072142,99.8368547 66.1149306,86.854029 70.420472,81.3555286 C70.420472,81.3555286 65.5963142,79.6306614 61.2190079,82.3056553 L61.1681008,82.2632232 C62.7766247,76.6727865 64.8719481,70.1495495 68.0734411,61.7207551 L67.9889494,61.6567532 C64.9649244,63.633031 61.2582488,66.5848947 57.5982381,73.3319613 L57.5034943,73.3270109 C57.4536477,70.7623406 56.0522875,64.2238987 46.7493627,58.8671925 L46.673002,58.9007846 C46.673002,58.9007846 49.7762159,62.1556847 50.0551446,67.8154273 C39.2200564,61.9336231 23.9773299,57.3898462 23.9773299,57.3898462 C62.016553,45.7719216 64.9776511,27.0919423 64.9776511,27.0919423 L77.1009725,19.7080397 C70.9380278,66.8126139 75.572698,93.3885812 75.6875925,94.0218812" id="path60" fill="#94A1AC"></path>
                        <path d="M142.420833,133.94064 C142.420833,133.94064 129.864447,128.977139 123.754177,122.658283 C125.132559,122.365148 126.484072,122.045492 127.772659,121.694366 C137.417439,129.68717 145.870144,131.502206 146.955456,131.708709 C140.079105,146.390942 122.949562,148.24841 110.739274,147.493118 C110.476254,147.013634 110.185305,146.466613 109.877742,145.876452 C117.881474,146.160041 133.012205,144.919961 142.420833,133.94064" id="path62" fill="#94A1AC"></path>
                        <path d="M108.509966,68.3249667 L103.242492,71.0611337 C107.462127,47.6863191 136.044361,28.6834311 136.044361,28.6834311 L143.460187,27.5752446 L143.488822,27.6785669 C118.340345,46.3302581 108.509966,68.3249667 108.509966,68.3249667" id="path64" fill="#25346D"></path>
                        <path d="M116.303706,71.9727179 L111.443489,72.8832412 C120.554098,57.8456383 146.408558,37.5531663 146.408558,37.5531663 L146.479969,37.6532355 L144.243591,43.2655955 C131.715841,50.3273673 116.303706,71.9727179 116.303706,71.9727179" id="path66" fill="#25346D"></path>
                        <path d="M139.221107,98.8793023 L142.666884,97.804708 C142.666884,97.804708 143.630584,91.3451192 145.206584,88.8211131 C145.206584,88.8211131 154.92419,88.2832855 164.854969,89.5703943 L161.710393,95.6944153 C161.710393,95.6944153 154.24967,97.555419 142.30311,101.199988 L139.221107,98.8793023" id="path68" fill="#25346D"></path>
                        <path d="M165.229702,79.5274098 C162.228656,79.3834941 159.832486,79.4213295 156.629932,79.5422611 C152.421256,68.2659153 142.01605,58.7667697 139.865931,56.9573918 C141.563189,55.6713439 142.555524,54.9496436 144.21142,53.7855881 C156.941739,63.0230687 163.971872,76.7969005 165.229702,79.5274098" id="path70" fill="#25346D"></path>
                        <path d="M135.128386,60.6465143 C136.737264,62.0036361 146.026755,70.3539311 151.760524,79.7611403 C148.323585,80.0153797 145.76126,80.3230128 142.60431,80.8555364 C141.729344,78.7427685 138.009588,70.5190629 130.822491,64.224606 C132.335918,62.9205243 133.222197,62.1825584 134.838145,60.8802448 C134.84875,60.8717583 135.11778,60.6550007 135.128386,60.6465143" id="path72" fill="#25346D"></path>
                        <path d="M138.347555,81.6543217 C135.880327,82.1755301 133.912625,82.6652679 131.71478,83.3371104 C130.928194,81.5744078 127.925734,76.126826 122.53276,71.807586 C123.895586,70.4642547 125.130437,69.3009064 126.635026,67.9261045 C127.182631,68.3840182 133.559457,73.8036654 138.347555,81.6543217" id="path74" fill="#25346D"></path>
                        <path d="M121.888997,87.232736 C121.888997,87.232736 120.171234,82.5167553 116.353199,78.3018277 C116.353199,78.3018277 117.757388,76.7272411 118.586396,75.8411162 C120.622328,77.3258881 123.798721,80.1310073 126.421145,85.1666435 C124.718231,85.8434364 123.319699,86.470018 121.888997,87.232736" id="path76" fill="#25346D"></path>
                        <path d="M78.0374516,19.3299692 C73.3900547,62.4212393 73.8888739,88.0159629 81.359142,113.055179 C76.0131861,112.552711 69.5122746,111.01596 64.6630168,109.628429 C65.5779311,114.038898 66.5614286,116.862051 67.9726874,120.826275 C70.9058574,121.97654 78.7501515,123.56421 84.5843209,124.384211 C87.3039637,130.579306 91.7516209,139.191973 95.2847172,144.956382 C98.8510446,146.079066 105.437155,147.191142 109.463414,147.530246 C102.614637,134.614958 99.3929935,124.362642 99.3929935,124.362642 C99.3929935,124.362642 114.333176,123.674533 127.122886,120.594666 C122.291304,116.368777 118.222976,111.459023 118.222976,111.459023 C112.321284,112.273366 103.256279,113.268754 95.8326759,113.209349 C86.4289974,88.7977754 80.4233699,53.4906846 79.0637253,18.5602145 L78.0374516,19.3299692 Z M64.9776511,27.0919423 C64.9776511,27.0919423 62.016553,45.7719216 23.9773299,57.3898462 C23.9773299,57.3898462 39.2200564,61.9336231 50.0551446,67.8154273 C49.7762159,62.1556847 46.673002,58.9007846 46.673002,58.9007846 L46.7493627,58.8671925 C56.0522875,64.2238987 57.4536477,70.7623406 57.5034943,73.3270109 L57.5982381,73.3319613 C61.2582488,66.5848947 64.9649244,63.633031 67.9889494,61.6567532 L68.0734411,61.7207551 C64.8719481,70.1495495 62.7766247,76.6727865 61.1681008,82.2632232 L61.2190079,82.3056553 C65.5963142,79.6306614 70.420472,81.3555286 70.420472,81.3555286 C66.1149306,86.854029 63.2072142,99.8368547 64.5795856,108.450229 C66.1792716,108.869954 68.5991279,109.445263 70.6735936,109.88974 C75.2859918,110.922256 79.4345696,111.45089 79.4345696,111.45089 C79.4345696,111.45089 76.6544745,101.120074 75.6875925,94.0218812 C75.572698,93.3885812 70.9380278,66.8126139 77.1009725,19.7080397 L64.9776511,27.0919423 Z M24.2452286,69.7096695 L24.2450872,69.7733177 C48.8902904,71.1919662 50.3828592,96.5632138 50.4726537,99.3202432 L50.5992145,99.3343872 C55.7369461,70.8100768 43.5906458,66.5930275 41.617641,66.118141 L41.5663803,66.1966405 C43.9979029,67.8179025 45.5371366,73.6544457 45.5371366,73.6544457 C40.6673745,68.1750398 26.0197664,69.5204928 24.2452286,69.7096695 Z M26.3491073,86.5064389 L26.3387491,86.5626615 C27.5886606,86.8130112 41.4405266,89.9483941 48.5710602,107.104776 L48.6258561,107.08745 C48.7188323,105.26322 49.2445192,84.9435211 26.3491073,86.5064389 Z M34.1478678,102.18406 L34.1158034,102.221896 C44.0187607,105.576511 47.6066529,116.190915 47.6066529,116.190915 L47.6932657,116.138582 C46.0695403,101.890571 35.393537,102.10945 34.1478678,102.18406 Z M37.1356922,112.419757 L37.0773611,112.51523 C38.1828236,113.423631 47.1318732,120.987517 48.6781773,125.35025 L48.7849409,125.34141 C48.7849409,125.34141 50.1201926,116.411563 37.1356922,112.419757 Z M39.3176284,123.834715 L39.2974777,123.918872 C49.6026367,128.199569 77.9755853,149.049671 79.2171537,149.961608 L79.2556876,149.94216 C76.1602511,134.152094 42.3550873,124.650119 39.3176284,123.834715 Z M32.6739649,119.75946 L32.6068665,119.794113 C33.360292,121.636375 47.226617,154.36147 76.7898734,153.243029 L76.8234579,153.184331 C76.8234579,153.184331 40.6171744,135.891812 32.6739649,119.75946 Z M40.6348505,145.198599 C40.6348505,145.198599 59.9647127,173.655018 87.0770028,161.129045 L87.0702858,161.048424 C85.5261028,161.005285 57.1867388,160.099358 40.6348505,145.198599 Z M37.2707375,164.656218 L37.2109923,164.752751 C38.8488586,166.66432 51.4476667,180.341972 73.1768811,175.965449 C88.6540633,172.746262 89.4120139,163.828437 89.4424168,162.868056 L89.3865603,162.831635 C89.3865603,162.831635 74.9420152,183.658399 37.2707375,164.656218 Z M68.3134824,184.16511 L68.3134824,184.315744 C68.3134824,184.315744 83.7125363,186.990384 84.7667381,174.101263 L84.7034577,174.082168 C84.1194398,174.876003 78.1360842,182.810109 68.3134824,184.16511 Z M78.6433879,193.647282 L78.6872246,193.777761 C82.626871,193.260089 119.035722,187.708548 108.629456,164.453605 L108.515269,164.453605 C108.515269,164.453605 106.044152,185.625129 78.6433879,193.647282 Z M86.4272298,188.428834 L86.5085398,188.550473 C107.130878,174.498711 105.5471,161.475221 105.167418,159.516269 L105.071613,159.49965 C103.145627,170.320911 88.194485,186.508425 86.4272298,188.428834 Z M86.4335932,144.525342 C86.6552513,147.402949 87.5889023,152.766728 94.021584,154.446334 C101.137977,156.304155 104.704658,153.722512 106.098948,150.200996 C103.330519,149.767128 100.408661,149.167773 97.3210025,148.369695 C93.2795419,147.322682 89.6669031,146.025319 86.4335932,144.525342 Z M93.7617455,144.581918 C93.58251,144.045151 92.460432,142.363423 92.3045289,142.083725 C87.9880283,135.085601 83.8649041,125.467646 83.8649041,125.467646 C79.2556876,124.906127 75.2803355,124.11901 71.8260745,123.137413 C70.3013352,122.704251 69.04704,122.309986 68.2823725,122.062465 C71.2233199,128.839941 80.0762115,140.988622 93.7617455,144.581918 Z M51.8467928,109.157785 L51.7707856,109.170515 C51.736494,111.417651 52.2335456,128.301407 71.7256743,133.79142 L71.7974392,133.727419 L67.097014,128.863279 C67.097014,128.863279 54.9404616,122.681621 51.8467928,109.157785 Z M53.3991068,79.4107214 C54.9284419,81.7052403 54.9316236,86.9113124 54.9287954,88.248279 L55.020004,88.248279 C58.6676414,69.7630633 51.1676775,63.5881236 51.1676775,63.5881236 L51.0686914,63.636567 C53.857978,68.8963865 53.3991068,79.4107214 53.3991068,79.4107214 Z M63.6127037,68.5466748 L63.5267979,68.4674681 C53.0823513,81.3304229 58.1009461,87.7617236 58.1009461,87.7617236 C57.9393866,82.4106749 63.6127037,68.5466748 63.6127037,68.5466748 Z M66.9358081,82.7356345 C66.9358081,82.7356345 52.0688044,89.9819862 52.4484868,107.4262 L52.548887,107.441758 C52.548887,107.441758 53.3188573,100.812087 61.0995175,91.4098283 C61.0995175,91.4098283 54.2913957,108.434317 62.3969424,123.674533 L62.4771918,123.642356 C62.0755911,120.744947 58.5396665,93.8832694 66.9358081,82.7356345 Z M130.751787,166.287734 L130.823198,166.250253 C130.358671,165.183438 127.205257,158.713594 118.581093,157.385468 L118.599123,157.281863 C126.729416,156.515609 131.874572,153.65356 133.581021,152.559517 L133.529761,152.382009 C120.327137,157.135825 107.490056,154.035803 107.490056,154.035803 C106.335454,155.704094 104.531786,156.343051 104.531786,156.343051 L104.573148,156.449839 C104.820966,156.498282 105.063836,156.540007 105.309887,156.586329 C109.328722,157.361777 126.4618,160.853236 130.751787,166.287734 Z M115.081582,190.233969 C115.081582,190.233969 125.779857,181.964295 115.72888,165.426715 L115.648984,165.466319 C116.268708,167.588987 120.426477,183.093698 115.026432,190.170674 L115.081582,190.233969 Z M127.679329,178.640796 L127.769831,178.640796 C127.769831,178.640796 127.420198,166.858801 116.642027,163.372645 L116.582989,163.442305 C117.187864,164.080909 119.7813,166.865165 119.7813,168.992785 C119.7813,168.992785 126.340189,171.259723 127.679329,178.640796 Z M146.955456,131.708709 C145.870144,131.502206 137.417439,129.68717 127.772659,121.694366 C126.484072,122.045492 125.132559,122.365148 123.754177,122.658283 C123.754177,122.658637 123.754531,122.658637 123.754531,122.658637 C119.189151,123.62998 114.304894,124.295457 110.254596,124.737105 C109.3867,124.831871 108.557338,124.916028 107.777469,124.990991 C106.217731,125.140918 104.856319,125.252656 103.784087,125.332924 C102.17627,125.453148 101.218933,125.502652 101.218933,125.502652 C104.488656,134.802013 107.700755,141.701128 109.875974,145.876452 L109.877742,145.876452 C110.185305,146.466613 110.476254,147.013634 110.739274,147.493118 C122.949562,148.24841 140.079105,146.390942 146.955456,131.708709 Z M95.5166275,58.9410952 C95.5166275,58.9410952 91.1442705,58.1408954 90.1278955,47.4769871 C89.5735734,41.6602456 90.0709785,36.9821002 91.4963782,31.7346214 C95.1850241,28.7403255 99.0985099,27.1792465 103.565257,25.9355599 C103.565257,25.9355599 92.4632601,21.8504747 90.7939304,11.3675749 L80.0730299,17.8972121 C82.1938068,61.5096551 88.1340328,87.1903038 96.6874915,111.835962 C103.428798,111.685327 110.955629,111.129466 117.040799,110.253242 C115.44076,108.089556 113.870063,105.716537 112.35699,103.105192 C112.35699,103.105192 100.71269,107.192116 95.0641197,95.8139326 C91.3669892,88.3674426 94.7752924,79.5415539 103.022248,75.1324992 L103.278905,75.4319995 C97.6094762,81.1217982 96.2929613,87.508545 97.9272923,92.3875359 C100.156954,99.0447878 107.377636,102.003724 114.84755,99.0377157 C114.84755,99.0377157 126.021312,124.372542 154.038618,129.839926 L152.444235,144.724066 L150.457089,135.227749 C148.644583,138.211083 141.33941,148.281295 124.233553,150.602334 C128.939634,151.377428 133.310931,151.933289 134.857942,151.643336 L134.916273,151.767804 C134.515379,152.540776 131.773818,156.867442 122.960167,157.579241 L122.941077,157.671178 C122.941077,157.671178 129.677434,158.39606 134.176705,169.341435 L134.078073,169.436554 C132.598584,168.722633 122.028638,163.662952 118.625284,163.119467 L118.577558,163.22979 C120.94474,164.265489 133.581728,170.590709 127.399694,185.935945 L127.3251,185.914729 C127.549587,183.915113 127.848313,177.108995 121.727791,175.842749 C121.727791,175.842749 124.99822,187.226236 110.753415,194.403635 L110.70675,194.347413 C111.147238,193.284841 114.784977,184.098632 110.664327,179.977409 C110.664327,179.977409 101.832647,194.626051 75.768549,195.079721 L75.6964306,194.935452 C75.6964306,194.935452 86.5198525,184.736883 85.3009095,176.953411 L85.180005,176.955886 C85.180005,176.955886 84.9484483,188.390999 63.5080612,184.847206 L63.4921527,184.71991 C63.4921527,184.71991 72.0024818,183.38259 73.4618196,177.058784 C73.4618196,177.058784 47.6183191,184.841902 32.8472966,161.553367 L32.909976,161.4388 C34.9109798,162.187727 53.4641548,168.983237 63.5967952,165.376858 L63.6141177,165.262998 C63.6141177,165.262998 35.4242934,153.573292 34.6454143,135.11884 L34.6926448,135.099392 C34.6926448,135.099392 40.5146531,143.861279 49.7546511,147.022121 C49.7546511,147.022121 31.9004947,131.544991 28.1725018,112.575342 L28.2280047,112.550943 C28.9349421,113.025123 35.6105994,117.520456 44.3726359,122.603829 L44.4656122,122.542302 C42.0319684,118.447952 32.7862434,110.039313 31.4381589,108.823632 L31.4621984,108.758216 L44.2428935,114.351481 C40.8391861,106.082515 28.1131101,100.569517 28.1131101,100.569517 C33.0986152,98.9889188 41.8103103,102.028122 41.8103103,102.028122 C41.4868379,93.7591554 22.520997,86.8278625 22.520997,86.8278625 C28.235464,81.3548214 41.163012,83.0581189 41.163012,83.0581189 C39.5414077,72.8436379 20.8997816,69.7623561 20.8997816,69.7623561 C30.9498747,65.3844182 41.000392,68.1421549 41.000392,68.1421549 C40.1321426,66.9112687 38.5844243,65.6156735 37.1381669,64.5584056 C26.3091947,60.3809597 14.4061527,57.0160896 12.7421258,56.7155285 C12.7421258,56.7155285 52.0716326,45.3168367 60.1195552,25.9491029 L92.5997195,5.75305796 C92.5997195,5.75305796 99.9748903,22.6445572 111.455509,25.3253148 L117.640372,26.4309907 C117.640372,26.4309907 105.577856,28.5907522 97.9686543,33.6172655 C96.1070088,38.0177985 95.0602309,44.967125 95.5166275,58.9410952 Z" id="path78" fill="#25346D"></path>
                        <path d="M175.541932,80.5475496 C173.404186,80.2095068 171.491633,79.9736547 169.163692,79.7851852 C168.352714,77.5147112 162.249514,62.020609 148.257123,51.0200722 C149.611819,50.1201569 150.581882,49.502769 151.882135,48.7008012 C153.278546,49.7403891 169.571657,62.1747792 175.541932,80.5475496" id="path80" fill="#25346D"></path>
                        <path d="M179.537081,81.2915268 C178.687922,78.9103756 171.298257,59.8367673 155.379526,46.6272832 C156.68791,45.8811844 157.958821,45.1913082 159.179885,44.5679091 C160.961988,46.2436257 179.962014,64.4215619 185.620483,82.920568 C183.749646,82.3021193 181.711593,81.7575733 179.537081,81.2915268" id="path82" fill="#25346D"></path>
                        <path d="M105.748607,78.4188697 C106.663168,78.7190773 107.646666,79.4605792 108.222906,80.6285243 C105.038382,82.1557284 102.529085,84.2090912 103.242492,89.5131108 C104.251796,97.0119338 116.177853,95.2517065 112.728894,87.0265864 C111.9766,85.2313526 111.282637,83.5241655 110.856643,82.0411616 C111.396117,80.9007973 112.736318,80.1023656 112.736318,80.1023656 C114.760937,81.0150106 117.307708,85.3540522 117.623403,88.4866062 C118.094294,93.1562651 116.574504,98.2113495 109.2863,98.2113495 C96.2148329,98.2113495 96.8836961,81.4138728 105.748607,78.4188697" id="path84" fill="#C8DBF1"></path>
                        <path d="M120.098409,97.4878812 C120.098409,97.4878812 121.093926,95.6480936 123.228844,94.298751 C133.578547,99.4945686 142.420833,103.204907 142.420833,103.204907 C153.165773,101.322687 164.171612,98.3542044 164.171612,98.3542044 C165.882304,94.8036936 168.605128,90.2546128 168.605128,90.2546128 C171.97914,90.6262478 173.695841,91.281471 173.695841,91.281471 C173.124197,114.153111 155.631233,134.850456 155.631233,134.850456 L156.999009,128.472196 C127.36717,123.074118 120.098409,97.4878812 120.098409,97.4878812" id="path86" fill="#C8DBF1"></path>
                        <path d="M105.351603,58.0008693 L101.160602,57.4018687 C101.018133,53.6929445 101.930573,45.8518355 104.496433,38.8363855 C111.098452,32.7704257 124.15896,31.0459121 126.766183,30.7562773 L126.803656,30.9659275 C111.460105,40.4364314 105.351603,58.0008693 105.351603,58.0008693" id="path88" fill="#C8DBF1"></path>
                        <path d="M152.593775,30.5165003 C131.440094,43.5421117 112.109171,69.151333 112.109171,69.151333 L112.019376,69.0357054 C120.785655,44.3819148 153.403693,24.3826137 153.403693,24.3826137 C153.943874,29.273627 155.561236,36.539745 155.561236,36.539745 L155.379526,36.5906636 L152.593775,30.5165003" id="path90" fill="#C8DBF1"></path>
                        <path d="M123.754531,122.658637 C129.864801,128.977492 142.420833,133.94064 142.420833,133.94064 C133.011498,144.920668 117.878999,146.160394 109.875974,145.876452 C107.700755,141.701128 104.488656,134.802013 101.218933,125.502652 C101.218933,125.502652 113.319276,124.878192 123.754531,122.658637" id="path92" fill="#C8DBF1"></path>
                        <path d="M71.8260745,123.137413 C75.2803355,124.11901 79.2556876,124.906127 83.8649041,125.467646 C83.8649041,125.467646 87.9880283,135.085601 92.3045289,142.083725 C78.9071151,137.191297 73.7103454,129.481728 71.8260745,123.137413" id="path94" fill="#C8DBF1"></path>
                        <path d="M94.021584,154.446334 C87.5889023,152.766728 86.6552513,147.402949 86.4335932,144.525342 C89.6669031,146.025319 93.2795419,147.322682 97.3210025,148.369695 C100.408661,149.167773 103.330519,149.767128 106.098948,150.200996 C104.704658,153.722512 101.137977,156.304155 94.021584,154.446334" id="path96" fill="#C8DBF1"></path>
                        <path d="M75.6875925,94.0218812 C76.6544745,101.120074 79.4345696,111.45089 79.4345696,111.45089 C79.4345696,111.45089 75.2859918,110.922256 70.6735936,109.88974 C70.8446981,102.959508 73.874733,97.4415594 75.6875925,94.0218812" id="path98" fill="#C8DBF1"></path>
                        <path d="M159.179885,44.5679091 C157.958821,45.1913082 156.68791,45.8811844 155.379526,46.6272832 C171.298257,59.8367673 178.687922,78.9103756 179.537081,81.2915268 C181.711593,81.7575733 183.749646,82.3021193 185.620483,82.920568 C179.962014,64.4215619 160.961988,46.2436257 159.179885,44.5679091 Z M148.257123,51.0200722 C162.249514,62.020609 168.352714,77.5147112 169.163692,79.7851852 C171.491633,79.9736547 173.404186,80.2095068 175.541932,80.5475496 C169.571657,62.1747792 153.278546,49.7403891 151.882135,48.7008012 C150.581882,49.502769 149.611819,50.1201569 148.257123,51.0200722 Z M164.454429,86.9148484 C144.865789,85.6588566 129.486886,87.0608858 126.481598,87.4173159 L126.481598,87.3112355 C143.952996,82.2140726 152.530848,80.8972613 165.368637,81.138771 C165.073092,80.583617 164.778255,80.0365957 164.483065,79.4966465 C164.729823,79.5061938 164.975167,79.5150338 165.229702,79.5274098 C163.971872,76.7969005 156.941739,63.0230687 144.21142,53.7855881 C143.819718,54.0610435 143.466904,54.3103324 143.131058,54.5497205 C141.142498,53.7481063 139.183281,53.4528492 137.256233,53.6947125 C137.256233,53.6947125 151.242261,41.7903708 156.131113,40.5191741 C174.101331,53.0292349 188.178213,72.3454136 190.989772,93.9401992 C191.003559,94.0427436 191.00462,94.1276079 191.007094,94.1863058 C191.012751,94.2584404 191.014165,94.298751 191.014165,94.298751 C191.014165,94.298751 181.84876,88.030107 164.454429,86.9148484 Z" id="path100" fill="#C8DBF1"></path>
                    </g>
                </g>
            </g>
        </g>
    </g>
</svg>