<?xml version="1.0" encoding="UTF-8"?>
<svg width="200px" height="200px" viewBox="0 0 200 200" version="1.1" xmlns="http://www.w3.org/2000/svg" xmlns:xlink="http://www.w3.org/1999/xlink">
    <!-- Generator: Sketch 51.3 (57544) - http://www.bohemiancoding.com/sketch -->
    <title>st-augustines</title>
    <desc>Created with Sketch.</desc>
    <defs></defs>
    <g id="st-augustines" stroke="none" stroke-width="1" fill="none" fill-rule="evenodd">
        <g id="st-augustines_BGL" transform="translate(9.909910, 0.000000)">
            <g id="st-augustines">
                <g id="g10" transform="translate(89.939878, 99.769513) scale(-1, 1) rotate(-180.000000) translate(-89.939878, -99.769513) translate(0.000000, 0.110738)" fill-rule="nonzero">
                    <g id="g12">
                        <path d="M22.210292,30.724752 L24.8740034,31.3351741 L20.7471097,8.9871994 L18.0804164,8.37523675 L16.6679755,0 L31.5741876,3.70279047 L33.1296184,11.5743797 L30.0157748,10.9682425 L31.5257547,18.6198218 L38.5179309,20.0222181 L39.989001,26.7065777 L32.9464681,25.5742229 L34.3756464,32.3761027 L39.7842074,33.2081332 L38.7236383,29.4084859 L46.1313656,30.6419919 L49.2610809,41.7815801 C39.6913818,40.130759 31.4894902,39.3147607 23.2973621,38.7272072 L22.210292,30.724752" id="path14" fill="#A09D9E"></path>
                        <path d="M42.1187484,17.0806955 L43.9599187,17.5929994 L50.6904997,40.852924 L62.5664113,42.8181758 L62.1773131,22.1997864 L63.8823231,22.5846041 L63.5100585,16.8894662 L54.6973934,14.6571096 L55.1033253,21.4184038 L51.0372733,20.4113206 L49.1379547,13.0643987 L41.110989,10.6229513 L42.1187484,17.0806955 M55.5698583,26.5231959 L55.9502992,37.5982707 L52.4027241,25.8265955 L55.5698583,26.5231959" id="path16" fill="#A09D9E"></path>
                        <polyline id="path18" fill="#A09D9E" points="64.5691367 22.8623488 66.4891366 23.344755 68.2412809 38.9617664 67.1422829 38.6503207 67.8060103 43.8446131 77.4468919 45.7574357 76.8942666 40.6992473 74.8646073 40.2742291 73.138916 24.9310627 75.7765111 25.6214525 76.3680943 30.0155378 82.5431643 31.3413847 81.2912204 21.7116028 64.1559904 17.111556 64.5691367 22.8623488"></polyline>
                        <path d="M83.1179138,27.6145317 L85.0436852,43.0261594 C85.4472123,46.2330535 87.5456491,48.6744047 90.2823224,49.308947 L101.715268,52.3882587 L100.6812,43.6076948 L94.8663704,42.2302853 L95.2525828,45.2787847 L91.7622422,44.4535908 L89.8845669,29.5837313 L93.3744265,30.4763273 L93.924166,34.8093175 L99.7399574,36.2483517 L98.5115807,26.6287283 L87.0512203,23.624955 C84.2784748,22.8873838 82.7124629,24.3736476 83.1179138,27.6145317" id="path20" fill="#A09D9E"></path>
                        <path d="M111.917432,30.2022897 L104.295629,28.2752164 C101.523845,27.5876671 99.9544664,28.9887154 100.355589,32.0313893 L102.222202,46.7962941 C102.601681,49.9256759 104.636631,52.9886186 107.336751,53.9129898 L114.883043,56.0481911 C117.612502,57.0077077 119.178033,55.5537488 118.820678,52.2390113 L117.087292,36.5949427 C116.721761,33.4001328 114.643524,30.922192 111.917432,30.2022897 M110.407212,34.9373814 L112.145408,49.831313 L108.864767,48.7591387 L107.10156,34.0318346 L110.407212,34.9373814" id="path22" fill="#A09D9E"></path>
                        <polyline id="path24" fill="#A09D9E" points="142.685527 60.3484431 140.842 59.6166492 138.777712 36.6186779 132.539636 35.2213367 127.532822 47.08179 126.083203 33.9037707 117.838073 32.0786189 118.547973 37.5390531 120.46172 37.946932 122.183564 52.8427412 120.778193 52.3160422 121.387572 57.7881274 128.919917 60.7557442 133.917592 48.9483459 135.248894 63.3252074 143.199195 66.736715 142.685527 60.3484431"></polyline>
                        <path d="M143.300678,54.4440218 L143.946129,60.6315318 C144.37178,64.9544117 146.813143,68.8049957 150.207772,70.689365 L164.141238,79.2807216 L163.388052,66.3130449 L156.38188,62.8673548 L156.64208,66.3539675 L152.088333,64.0931095 L151.51695,57.3249789 L158.483202,60.2198978 C161.91679,61.7662938 163.910858,59.4982142 163.574665,54.3265496 L162.998954,45.9346068 C162.639675,41.0204663 160.153583,37.5862346 156.623804,37.0211164 L141.445608,35.3653845 L142.625407,44.7804427 L150.533383,46.5935583 L150.198153,43.1604339 L154.870217,44.1897117 L155.507491,51.6540576 L148.298834,49.4432697 C144.811379,48.4876046 142.849536,50.354642 143.300678,54.4440218" id="path26" fill="#A09D9E"></path>
                        <path d="M21.4121838,31.5644374 L24.0745966,32.1705746 L19.9471258,9.82293692 L17.2825006,9.2094818 L15.8689054,0.840643428 L30.773867,4.53854244 L32.3315583,12.4116578 L29.2154542,11.8045578 L30.7276465,19.4552223 L37.7200151,20.8591111 L39.1912776,27.5453483 L32.1466766,26.4105381 L33.577923,33.2128032 L38.9851373,34.0423782 L37.9232696,30.2457159 L45.3325359,31.4768147 L48.2356701,42.6457228 C38.6644319,40.994324 30.6891215,40.1552163 22.4984844,39.5644853 L21.4121838,31.5644374" id="path28" fill="#FFFFFF"></path>
                        <path d="M41.3208326,17.9155183 L43.1605119,18.4296998 L49.891141,41.6886616 L61.7675335,43.6529986 L61.3779544,23.0364868 L63.0844072,23.4212563 L62.7121427,17.726311 L53.9009205,15.4923176 L54.3054095,22.2552968 L50.2369527,21.248021 L48.3390769,13.9035545 L40.3132655,11.4602295 L41.3208326,17.9155183 M54.7709806,27.3595111 L55.1514215,38.4345859 L51.6038464,26.6623812 L54.7709806,27.3595111" id="path30" fill="#FFFFFF"></path>
                        <polyline id="path32" fill="#FFFFFF" points="63.9631247 23.7477712 65.6902589 24.1799148 67.4409602 39.796541 65.5103791 39.317553 66.1745875 44.5156488 76.648976 46.5931732 76.0949079 41.5359477 74.0642867 41.1094371 72.3395573 25.7664151 74.9776334 26.4562753 75.5706594 30.8518531 81.7442865 32.1764 80.4923427 22.5479181 63.5499784 17.9964008 63.9631247 23.7477712"></polyline>
                        <path d="M82.3180741,28.4518098 L84.2448075,43.8657003 C84.6473726,47.0702835 86.7467714,49.5111532 89.4844066,50.1456955 L100.914947,53.2245258 L99.8808793,44.44401 L94.0650878,43.0694411 L94.4527431,46.1145703 L90.9633645,45.2902912 L89.0861701,30.4189392 L92.5769917,31.3150497 L93.1252883,35.6446698 L98.9396368,37.0850521 L97.7102982,27.4648509 L86.2513806,24.4641108 C83.48104,23.7231213 81.9131042,25.210348 82.3180741,28.4518098" id="path34" fill="#FFFFFF"></path>
                        <path d="M111.117111,31.0416381 L103.49627,29.1075838 C100.723525,28.42586 99.1541458,29.8254159 99.5552681,32.8677046 L101.422362,47.6335723 C101.801841,50.7609802 103.838234,53.8282558 106.537873,54.7487755 L114.084165,56.8854211 C116.815067,57.8434934 118.380117,56.3904973 118.021801,53.0776856 L116.287933,37.4297655 C115.922883,34.2358703 113.845608,31.756437 111.117111,31.0416381 M109.608334,35.7731189 L111.347492,50.6680616 L108.067332,49.597813 L106.302683,34.8704126 L109.608334,35.7731189" id="path36" fill="#FFFFFF"></path>
                        <polyline id="path38" fill="#FFFFFF" points="141.885207 61.1827845 140.043123 60.4524349 137.981239 37.4553301 131.742201 36.0591444 126.73635 47.91902 125.283364 34.7398933 117.039195 32.9137787 117.748614 38.3797014 119.662362 38.7870506 121.385167 53.6809341 119.497392 53.0560206 120.107252 58.5281058 128.122001 61.5924928 133.118714 49.7850945 134.45146 64.1638817 142.399836 67.5729821 141.885207 61.1827845"></polyline>
                        <path d="M142.499876,55.2807704 L143.147251,61.4663546 C143.572421,65.7901974 146.014265,69.6407813 149.408894,71.5256321 L163.34188,80.119396 L162.590136,67.1497934 L155.583964,63.7031404 L155.843203,67.1892718 L151.289936,64.9322653 L150.717591,58.161246 L157.684325,61.0566463 C161.117431,62.6020795 163.11198,60.3315926 162.778192,55.1623353 L162.199595,46.7703443 C161.840317,41.856252 159.352301,38.422935 155.823964,37.8568539 L140.644806,36.2020849 L141.825087,45.6167579 L149.735467,47.4336288 L149.399275,44.0001674 L154.072301,45.0284823 L154.710056,52.4908061 L147.498513,50.281944 C144.013944,49.3243532 142.052101,51.1937977 142.499876,55.2807704" id="path40" fill="#FFFFFF"></path>
                        <path d="M20.674244,32.1653268 L23.3392539,32.771801 L19.211254,10.4266187 L16.5456669,9.81128599 L15.1332261,1.44433007 L30.0392457,5.14316307 L31.5963599,13.0153397 L28.4800634,12.4086247 L29.9900433,20.0598188 L36.9840953,21.4593747 L38.4542034,28.1465747 L31.4115263,27.01422 L32.8420032,33.816485 L38.248496,34.6475525 L37.1879269,30.8466054 L44.5953175,32.0786189 L47.4997022,43.2471419 C37.9290892,41.5961282 29.9537788,40.7590907 21.7624203,40.1653748 L20.674244,32.1653268" id="path42" fill="#0B335E"></path>
                        <path d="M40.5849128,18.5192001 L42.4253617,19.0333816 L49.1543074,42.289551 L61.0316618,44.2585581 L60.6425636,23.6394465 L62.3475736,24.0230605 L61.9753091,18.330378 L53.1636059,16.0950847 L53.5676139,22.8598934 L49.5015619,21.8473699 L47.6030128,14.5049735 L39.5773457,12.060156 L40.5849128,18.5192001 M54.0351089,27.9604006 L54.4155497,39.0382678 L50.8655699,27.266063 L54.0351089,27.9604006" id="path44" fill="#0B335E"></path>
                        <polyline id="path46" fill="#0B335E" points="62.9223231 24.2805364 64.9534252 24.7837892 66.7055695 40.3980082 64.7735455 39.9187795 65.4377539 45.1155754 75.9121424 47.1944478 75.3580743 42.1377519 73.328415 41.7142262 71.6041665 26.3682193 74.2407997 27.0580794 74.8338258 31.4555349 81.0074529 32.7800819 79.756471 23.1478447 62.5082149 18.5327287 62.9223231 24.2805364"></polyline>
                        <path d="M81.5836453,29.0556842 L83.5094167,44.4656268 C83.9115009,47.6700175 86.0108997,50.1110316 88.7490158,50.7489441 L100.179076,53.8292187 L99.1450075,45.0486066 L93.330178,43.6693677 L93.7144666,46.717867 L90.2274927,45.8941656 L88.3488555,31.0207434 L91.8396771,31.9163243 L92.3865308,36.2483517 L98.2037651,37.6887339 L96.9753884,28.0691105 L85.514547,25.0649521 C82.7437254,24.3268031 81.1762705,25.8106116 81.5836453,29.0556842" id="path48" fill="#0B335E"></path>
                        <path d="M110.380278,31.6453199 L102.760398,29.7103027 C99.9876528,29.0272791 98.419236,30.4290977 98.8184344,33.468594 L100.68649,48.2367726 C101.065969,51.3627843 103.1014,54.4290971 105.802001,55.3486539 L113.347813,57.4867438 C116.07631,58.4481862 117.64136,56.9918201 117.285448,53.6790083 L115.552542,38.0311845 C115.184606,34.8373375 113.109256,32.3579042 110.380278,31.6453199 M108.8715,36.3768007 L110.609216,51.2713101 L107.329055,50.1996172 L105.565849,35.4713021 L108.8715,36.3768007" id="path50" fill="#0B335E"></path>
                        <polyline id="path52" fill="#0B335E" points="141.149816 61.7879588 139.304846 61.0537576 137.244405 38.0552567 131.003925 36.6600339 125.999516 48.52275 124.546049 35.3413124 116.303324 33.5152459 117.013224 38.9790502 118.925528 39.3878919 120.648334 54.2822569 118.760558 53.6611949 119.370418 59.1284657 127.385167 62.1952598 132.381399 50.3849729 133.714626 64.7642416 141.662041 68.1728605 141.149816 61.7879588"></polyline>
                        <path d="M141.764485,55.8845003 L142.410417,62.0676773 C142.83703,66.3939273 145.277431,70.2445113 148.67206,72.1298435 L162.604084,80.7207187 L161.852341,67.7535234 L154.846649,64.3035003 L155.104445,67.791076 L150.553102,65.5326252 L149.980758,58.764013 L156.948453,61.6603763 C160.380597,63.2067723 162.374184,60.9353226 162.039916,55.7626952 L161.462761,47.3721485 C161.101078,42.4580562 158.616429,39.0268094 155.087611,38.4605357 L139.909896,36.8057668 L141.090658,46.2204397 L148.998634,48.0341331 L148.663403,44.6038492 L153.334505,45.6297569 L153.973223,53.0921289 L146.762161,50.8832668 C143.275668,49.929046 141.315267,51.7936762 141.764485,55.8845003" id="path54" fill="#0B335E"></path>
                        <path d="M58.2189965,68.0395007 C52.0694175,75.0247624 60.309738,81.2363445 62.998796,82.6960808 C66.5872528,84.6449635 73.0985152,86.4282297 79.970018,89.5359465 C85.1153486,91.8651695 94.7730638,97.2486691 79.970018,105.422614 C60.8796778,115.960447 58.7822029,124.106468 63.1902189,134.389135 C69.0925834,148.161304 81.7038857,159.464631 98.987252,174.194872 C99.7428432,175.240567 101.787412,175.756674 100.179076,175.756674 C98.4028833,175.756674 82.4368717,170.621118 73.7612807,164.225624 C72.7887757,163.507792 76.4777536,166.87934 78.5405992,169.19412 C78.3717816,169.508021 68.391341,165.034931 56.6356699,157.460864 C20.1489374,132.460473 7.82202786,106.570857 7.82202786,106.570857 C7.82202786,106.570857 -12.2128734,72.3816383 11.8457552,57.8256799 C27.0676226,48.6151871 62.3211207,57.731317 65.4666116,58.3971532 C90.7156691,63.7532105 90.1721821,64.7459467 97.9185547,67.080947 C80.3975932,64.3319054 62.8564313,62.7715475 58.2189965,68.0395007 M142.293544,86.6058823 C189.771699,105.248813 172.766328,137.193543 168.595427,147.148347 C168.590136,145.400226 168.482401,146.342411 168.35687,143.959748 C165.743323,152.87319 162.561759,155.296776 156.550697,163.430761 C156.563202,162.09283 156.868613,160.161761 156.868613,160.161761 C156.868613,160.161761 153.807772,168.303931 139.849776,178.674702 C139.852181,177.977572 140.31679,176.133163 140.31679,176.133163 C135.035347,181.534957 133.210578,183.015877 127.380358,186.906421 C128.68184,184.851139 128.143163,184.953205 129.442241,183.165606 C125.332903,186.23577 115.718474,191.980352 111.61154,193.550821 C112.282001,192.21626 112.404646,191.824365 112.978434,190.291449 C112.978434,190.291449 100.939476,196.290233 91.8464105,199.068161 C98.0205186,192.107935 101.788374,191.369882 111.709176,173.155917 C119.878795,158.157994 126.919115,138.665315 114.133705,123.294755 C109.620358,117.867925 106.056911,114.516598 97.4048873,107.002711 C88.9163906,100.278392 95.6238854,102.924886 101.727292,104.651342 C100.810579,103.733711 100.179076,102.554656 101.223244,102.163243 C102.877272,102.163243 106.123765,102.560915 106.62637,102.797304 C99.4898572,97.5125 89.1910198,90.8445096 84.7478937,83.9704614 C80.9107795,76.6929636 80.2961102,68.6307132 94.1362702,68.5970121 C95.8735046,68.7029297 101.229496,68.9667606 103.474627,69.2065194 C118.110779,70.3070989 146.507732,80.6740187 142.648974,85.4542698 C141.43166,86.3781596 141.617311,86.3410884 142.293544,86.6058823" id="path56" fill="#A09D9E"></path>
                        <path d="M97.4419214,95.9454019 C83.5094167,86.0416307 81.2517815,77.3953894 86.2379137,73.3613756 C90.1563104,70.1954041 94.6634044,68.4646152 100.288254,68.7481853 C101.895148,68.8290678 79.5395571,62.2515887 64.7456497,65.0569591 C56.3076539,66.6558325 52.3224035,77.3515781 65.5195174,82.2353395 C82.9365911,86.8851194 90.5107793,91.6090416 97.4419214,95.9454019" id="path58" fill="#FFFFFF"></path>
                        <path d="M168.482401,138.389448 C168.242882,136.861828 168.504044,134.989977 167.596469,131.803784 C167.063082,141.010426 164.069575,149.134782 158.087371,155.862472 C159.169535,151.580033 158.511579,149.990307 158.511579,149.990307 C158.511579,149.990307 154.588854,163.032608 142.348854,172.201696 C143.478153,169.444952 144.642562,166.928929 144.642562,166.928929 C144.642562,166.928929 138.173143,174.808712 131.74172,179.087299 C132.521359,177.28959 132.162081,178.213961 132.895067,175.833705 C129.948694,180.076184 120.207773,186.720584 116.152783,188.262165 C118.564807,184.389916 117.959276,185.451499 119.81146,182.160834 C119.81146,182.160834 111.851059,188.44704 104.690498,191.52924 C95.3237652,196.150133 105.612021,191.323664 114.854186,174.083658 C126.544446,152.270423 127.066289,135.135854 117.090177,123.362157 C112.678314,118.15968 107.375228,113.365948 97.9704986,105.422614 C98.7559094,104.368253 105.208975,108.149991 106.445528,108.732537 C102.812342,104.900248 101.930258,103.357222 105.552863,103.908475 C107.322322,104.178565 112.133865,104.533388 109.312542,102.645168 C102.519436,97.7151877 91.9363504,91.3861333 87.231581,84.3416542 C84.1202384,80.1112114 81.2849679,70.7076598 97.0965908,68.5787173 C97.7718613,68.6191585 98.4182741,68.6008637 99.0858492,68.5787173 C82.1506993,66.0540283 64.223806,63.4426796 60.1534253,68.0553884 C54.0808003,74.9414727 59.9990366,80.6581311 62.4100986,82.4750983 C65.4820024,84.7889151 73.7045272,87.2986793 79.5732245,91.0289024 C84.2736652,94.0167398 90.9850077,97.2486691 75.739958,105.289736 C58.0429645,114.620108 55.9849285,122.49267 60.675269,134.868171 C65.5603992,147.75978 74.6616414,156.674185 90.4997172,169.88451 C91.954627,171.166112 89.6791962,169.853216 85.7194367,167.955847 C75.3412406,162.975797 70.5388359,159.623507 63.5249684,153.15676 C65.7595174,158.463229 70.1987958,162.676821 70.1987958,162.676821 C70.1987958,162.676821 53.4156299,152.021517 48.7700188,144.562996 C50.334107,148.55705 52.0790368,150.886273 52.0790368,150.886273 C52.0790368,150.886273 39.6061072,140.211711 35.4021634,133.654453 C35.8840873,137.085218 37.8060592,140.643566 37.8060592,140.643566 C37.8060592,140.643566 22.9533301,125.132905 19.8571378,115.310498 C19.8885446,118.427362 21.1429895,121.83887 21.1429895,121.83887 C21.1429895,121.83887 10.6997192,107.855348 9.24028835,95.7090132 C8.68607594,98.9626074 8.54140259,100.601922 8.54140259,100.601922 C8.54140259,100.601922 -5.27610408,71.9189713 14.5150938,59.8039307 C29.0051776,50.932374 57.9814014,56.6812891 61.0932249,57.3057211 C67.3976737,58.5671027 86.4254888,62.2583289 103.307733,68.7096699 C117.988614,70.1265577 145.880557,81.3230043 138.749335,86.4161936 C138.556469,86.5842173 138.407371,86.6954307 138.290979,86.7705359 C138.365528,86.7729431 138.449215,86.7883493 138.543003,86.8259019 C182.660196,104.887731 170.916549,130.388822 168.482401,138.389448" id="path60" fill="#FFFFFF"></path>
                        <path d="M152.952621,108.805717 C169.696829,121.866312 165.391258,136.915269 161.357912,147.714043 C161.2218,147.972097 161.096269,147.648567 160.953423,147.907102 C160.813463,139.819816 160.235828,130.593917 152.516389,123.901373 C166.258914,141.664226 152.309094,158.133922 147.517271,164.660849 C149.499796,157.566781 152.177792,147.215749 147.745247,140.612272 C153.145006,154.390699 143.582521,166.810494 136.280077,173.989296 C138.597351,167.567323 142.079996,159.854119 138.22653,153.345967 C142.20168,168.670791 127.188454,179.454159 120.351099,184.533386 C123.155588,178.730068 125.085688,177.837472 127.002321,170.123305 C119.740278,182.798746 105.501881,189.507178 105.501881,189.507178 C118.395027,175.731158 139.042241,140.062464 115.702121,118.706118 C107.237192,110.962583 102.108695,107.816832 101.334827,107.093223 C100.404647,106.21844 106.492663,108.805717 119.246811,117.204015 C95.4786349,99.6347024 109.984446,106.377798 112.619636,106.113486 C115.395268,105.207409 111.975628,102.965327 95.9855687,91.5339365 C76.2969119,76.0829749 87.0969117,63.647293 117.903484,72.7210559 C141.669255,80.7919723 138.772902,87.058439 136.953423,87.6380968 C169.392381,101.823825 170.052741,116.884336 168.688733,129.033078 C165.810657,120.666074 161.302601,114.252286 152.952621,108.805717" id="path62" fill="#0B335E"></path>
                        <path d="M16.3540036,74.3006716 C4.81769928,85.9674884 11.5721841,101.205171 16.8757511,112.576863 C17.0602481,112.846952 17.2505647,113.117042 17.4410737,113.390983 C15.7224044,105.309957 14.6813624,95.1182822 20.2513342,89.2056764 C11.6734747,105.577639 26.8685043,125.941249 32.7664922,132.966952 C29.3232858,125.66153 25.7164563,113.919127 28.2811376,107.764836 C26.4649292,121.002603 37.9157666,135.857056 46.2717103,143.784984 C42.6748366,137.119882 38.4421794,126.883433 40.4960311,120.762844 C39.4123758,135.782432 55.069177,150.096225 62.519758,155.877878 C58.2733452,150.305171 53.1251289,142.416722 53.4733454,136.812721 C62.86076,156.058901 82.559517,165.243877 85.5275329,166.826381 C73.0513809,155.941429 53.9182351,140.706635 56.6082551,122.047335 C59.4714214,102.184426 101.164086,102.701015 72.6367918,88.8258176 C70.8485754,87.8985577 61.1509404,84.7393264 57.0113012,79.9682227 C51.3176741,72.4071548 50.1412412,57.3331634 90.0370318,65.075254 C89.1501381,64.8109416 67.9753089,58.9541832 52.7153494,57.4982985 C31.9854581,54.2355568 21.3733221,58.5656584 16.3477992,61.5977886 C4.57289447,68.708707 4.60070369,80.6205785 7.57495773,91.9301643 C8.3090018,83.8525077 9.72480938,78.0944452 16.3540036,74.3006716" id="path64" fill="#0B335E"></path>
                        <path d="M59.0746278,60.3701081 C53.1097382,65.5605489 55.6905798,70.9546402 55.6905798,70.9546402 C55.6905798,70.9546402 37.7722476,63.9905621 49.3255298,53.8715857 C45.1651612,59.9242915 61.3053291,60.0205802 59.0746278,60.3701081" id="path66" fill="#FFFFFF"></path>
                        <path d="M58.0203593,61.4235061 C52.1021229,61.0754226 46.2704117,58.326381 49.1687362,55.0597879 C49.942604,54.6019352 40.6296423,59.8809616 54.7940668,61.8033649 C55.9171128,62.0267547 59.2073733,61.4957226 58.0203593,61.4235061" id="path68" fill="#0B335E"></path>
                        <path d="M67.6646075,72.3753796 C66.8585154,70.9507887 65.0424032,70.4062763 63.60577,71.1659939 C62.1681748,71.9208971 61.6549884,73.6906828 62.4596377,75.1191253 C63.2623631,76.5437162 65.0799182,77.0838956 66.5184753,76.3251409 C67.9560704,75.5702377 68.467333,73.8004519 67.6646075,72.3753796" id="path70" fill="#0B335E"></path>
                        <path d="M65.3545475,73.0248467 C65.1121427,72.592992 64.5744272,72.4220796 64.1516617,72.6498023 C63.7274533,72.8760807 63.579317,73.408557 63.8217219,73.8399303 C64.0612409,74.2727478 64.5989563,74.4398087 65.0217218,74.2135303 C65.4459302,73.9896592 65.5931046,73.4542941 65.3545475,73.0248467" id="path72" fill="#FFFFFF"></path>
                        <path d="M73.1523829,79.4545227 C71.2314211,79.7592763 68.618836,80.9537373 64.5446076,77.1585193 C59.5098983,72.4625208 57.429738,73.9391076 57.429738,73.9367004 C57.429738,73.9367004 58.5614414,69.6783339 62.40577,72.3233837 C66.2472128,74.9631376 67.5838059,79.5195175 73.1523829,79.4545227" id="path74" fill="#0B335E"></path>
                        <path d="M29.1212818,40.7504248 C32.3711896,41.138757 33.7725683,41.2871378 36.5758548,41.6770106 C36.5037105,43.9471123 34.9089851,46.1280989 34.9089851,46.1280989 L34.1338188,46.5713638 C34.1338188,46.5713638 31.8708449,50.2246523 26.2130013,47.4014684 C24.2365365,46.4126319 21.617747,44.1088773 20.6864123,41.69882 C19.1798472,42.9457102 17.6097952,42.8595318 17.6097952,42.8595318 L16.5456669,42.8796561 C16.5456669,42.8796561 12.0371781,43.4406821 8.77264908,37.204113 C6.87342668,33.5744634 6.01183151,25.4501068 11.6300919,21.7747682 L11.6084486,21.755029 C11.6084486,21.755029 9.60779134,19.3448273 11.4168334,14.7379921 C14.4717111,6.9558936 23.3640235,5.22741566 29.3223239,16.6357456 C23.2447449,12.9618995 20.1199835,11.5277278 17.4061078,15.0802502 C18.8281679,13.5319284 20.5524644,16.5915491 20.674244,17.4199686 C20.7935225,18.2371224 20.6452901,18.9367078 20.5366889,19.5225281 C21.6684403,19.4256616 27.5591175,18.8720018 29.8913981,21.5933122 C23.3954303,22.3481672 14.4668052,24.2400952 13.8571379,30.373828 C15.100713,27.7946878 18.4170897,28.3521029 20.1211378,30.1191926 C21.0416989,31.0694655 20.5212981,30.6689046 20.8900997,31.1826528 C21.8890095,28.7498714 30.382893,25.3100068 34.9283679,24.7601022 C26.8685043,31.2722013 24.696817,34.0938926 25.7335304,38.500977 C26.2567689,39.5582747 27.6519432,40.4671916 29.1212818,40.7504248" id="path76" fill="#0B335E"></path>
                        <path d="M34.8765202,41.4065839 C34.9414981,43.3086703 32.9736906,45.2282331 32.9736906,45.2282331 L32.3095784,45.6238833 C32.3095784,45.6238833 29.6330734,47.7542701 25.2138511,44.9301234 C23.6041677,43.8974755 22.0588852,42.0892224 21.2611618,39.9530101 C19.9691057,41.0579226 18.1399595,41.4152017 18.1399595,41.4152017 L17.2265166,41.4368667 C17.2265166,41.4368667 13.2473263,42.0809898 10.337122,36.626381 C8.19308998,32.6005035 8.13763507,25.4770195 13.901675,22.2864944 L13.8836389,22.2710882 C13.8836389,22.2710882 11.4468935,20.7912276 12.3855388,16.5172623 C13.3245207,12.2435378 18.9497069,6.65200655 26.2157909,13.5251882 C33.4811535,20.3928813 17.4711338,5.35080959 15.6959034,16.7909147 C16.9142761,15.4197159 19.3354384,15.3354633 19.434228,18.8898633 C19.4558713,19.6221868 19.4099875,20.2336199 19.3172099,20.7535787 C20.2874063,20.665956 21.3298913,20.6381286 22.4667409,20.6943612 C36.5814821,21.4035272 5.56468122,19.9379655 14.1487451,33.8757507 C14.2015067,31.2823597 16.7264124,28.9683985 20.0983883,32.6967922 C20.5575626,33.2081332 20.9334824,33.6822104 21.2491377,34.137704 C22.1051057,31.9847856 24.0956146,29.9717265 27.5760474,28.1057483 C33.8103238,24.7601022 14.7632702,34.5768285 26.895342,41.3127506 C28.3172097,40.2115934 31.1407928,40.9270182 34.8765202,41.4065839" id="path78" fill="#FFFFFF"></path>
                        <path d="M16.1731138,18.7691655 C16.1731138,18.7691655 16.584192,19.6900703 17.0001278,17.5471178 C18.6884003,6.67944882 33.9786605,20.8811131 26.9941797,14.4418082 C19.4799194,7.51576407 14.0594786,12.3962035 13.514645,16.7600542 C13.1773945,20.8532856 15.3163764,19.0886513 15.3163764,19.0886513 L16.1731138,18.7691655" id="path80" fill="#0B335E"></path>
                        <path d="M26.1566326,14.4524962 C26.1566326,14.4524962 19.0583081,11.0058914 17.2432541,15.0336465 C15.8285527,18.1778568 18.0375627,18.8250129 17.730228,19.898102 C17.6278312,20.2586068 15.7332742,18.6886682 15.7332742,18.6886682 C15.7332742,18.6886682 14.9092421,15.8583108 17.3482481,13.9594019 C19.7874464,12.0639113 22.8509333,11.9749406 26.1566326,14.4524962" id="path82" fill="#FFFFFF"></path>
                        <path d="M31.2529531,42.8432109 C31.2529531,42.8432109 30.9200313,41.3106804 28.3292338,40.4970893 C16.9565527,34.2272524 39.108985,23.4096054 28.9294742,28.1375236 C18.9486007,32.771801 21.3853462,41.1322093 25.5274382,43.7637787 C29.6706365,46.3981405 31.1167447,43.6616646 31.1167447,43.6616646 L31.2529531,42.8432109" id="path84" fill="#0B335E"></path>
                        <path d="M26.0542358,31.5644374 C26.0542358,31.5644374 23.1410495,36.3581689 26.2806246,39.2666163 C29.4200073,42.177808 33.434933,41.7734919 33.7663639,41.6202003 C34.0952937,41.4714343 31.6202637,43.2471419 31.6202637,43.2471419 C31.6202637,43.2471419 26.9603681,42.4200703 25.2452579,39.9631686 C23.5338992,37.5025597 23.4953742,34.6413419 26.0542358,31.5644374" id="path86" fill="#FFFFFF"></path>
                        <path d="M16.6576349,37.0605947 C16.6576349,37.0605947 16.6240156,35.3163255 14.7283523,32.9356362 C8.11228837,19.9663707 36.4693217,22.3775353 23.6041677,21.3702595 C11.0673665,20.3866707 8.80290158,29.9476543 10.9950298,34.9956842 C13.1872061,40.0440511 16.261226,37.6772755 16.261226,37.6772755 L16.6576349,37.0605947" id="path88" fill="#0B335E"></path>
                        <path d="M25.5875585,21.8257531 C25.5875585,21.8257531 13.9533303,24.9801218 13.4883363,29.6958594 C13.0254105,34.4117415 17.1228212,35.7712413 17.4626689,35.9094637 C17.8025647,36.0465787 16.3455868,37.7769343 16.3455868,37.7769343 C16.3455868,37.7769343 10.9854586,34.7462965 12.7449135,28.5770332 C14.2620117,23.2445185 21.3310456,22.2272768 25.5875585,21.8257531" id="path90" fill="#FFFFFF"></path>
                        <path d="M21.8589494,41.5053279 C21.8589494,41.5053279 19.499254,37.6729425 21.7323602,33.1405867 C23.9629653,28.6064013 20.7752941,31.5999679 20.7752941,31.5999679 C20.7752941,31.5999679 16.7673423,36.4919138 21.3490816,42.9080613 C24.148809,46.8274917 21.8589494,41.5053279 21.8589494,41.5053279" id="path92" fill="#0B335E"></path>
                        <path d="M19.7089053,20.7001866 C19.7089053,20.7001866 14.9947571,20.7001866 11.4083685,24.2888173 C7.83761103,27.8601641 9.59706589,24.2098124 9.59706589,24.2098124 C9.59706589,24.2098124 12.414637,18.8340159 20.2466207,19.6900703 C25.0308932,20.2157102 19.7089053,20.7001866 19.7089053,20.7001866" id="path94" fill="#0B335E"></path>
                        <path d="M170.950697,47.0582475 C170.950697,47.0582475 165.544685,51.5235864 162.524244,45.4997672 C160.935146,42.3294145 162.988373,40.3705178 164.713102,40.733478 C161.990858,39.9154094 158.955026,39.9998546 155.279515,45.1828812 C155.189094,32.3823134 167.069815,34.1275455 170.154705,37.9414916 C172.918793,41.3597395 171.958793,45.3148929 171.958793,45.3148929 L170.950697,47.0582475" id="path96" fill="#0B335E"></path>
                        <path d="M169.941639,45.8565167 C169.941639,45.8565167 166.777391,50.7186131 163.946449,44.8676802 C162.458353,41.7815801 164.562561,40.7801298 166.210817,41.4093763 C159.293623,34.0747312 152.623163,52.3882587 155.78212,43.2947566 C158.934345,34.1988473 166.218032,36.4727043 168.916228,39.7076185 C171.61202,42.9364665 170.187892,45.285573 170.187892,45.285573 L169.941639,45.8565167" id="path98" fill="#FFFFFF"></path>
                        <path d="M174.753663,60.9983917 C174.753663,60.9983917 168.372741,65.7536077 163.635747,57.1497335 C162.190938,54.5287559 163.639595,52.0623215 164.799675,51.9154813 C160.453222,46.8867573 156.559355,52.6848278 151.400076,57.8473449 C156.018273,38.5476288 171.549495,44.815588 174.753663,50.1216234 C178.694184,56.6456623 175.263483,60.2044916 175.263483,60.2044916 L174.753663,60.9983917" id="path100" fill="#0B335E"></path>
                        <path d="M173.305006,60.4996163 C173.305006,60.4996163 167.682561,66.8546686 164.842,57.7760913 C163.348613,52.997766 166.608092,51.9963638 168.860918,53.2630413 C161.2521,38.8549341 149.439676,64.8234591 154.250257,53.0921289 C160.897631,41.9034334 171.032461,47.5487419 173.115026,50.9583719 C176.320637,56.2138076 173.784525,59.7259369 173.784525,59.7259369 L173.305006,60.4996163" id="path102" fill="#FFFFFF"></path>
                        <path d="M163.606409,74.1196489 C163.606409,74.1196489 163.430377,72.4812971 163.084565,66.8204862 C163.252421,65.7280912 165.306609,63.9424178 166.62685,64.2572817 C166.298834,57.9118583 146.587571,62.2453299 158.970898,57.5676263 C167.261719,54.4382445 177.870296,58.8607832 173.939394,69.6942215 C172.15695,74.5991664 169.282721,74.8764778 167.331459,74.9910613 C165.615387,75.0936088 163.606409,74.1196489 163.606409,74.1196489" id="path104" fill="#0B335E"></path>
                        <path d="M163.388533,72.2165033 C163.388533,72.2165033 163.478954,72.8703034 163.124485,67.2619697 C165.284485,64.5196684 168.680076,66.5768758 168.981158,68.675006 C172.132902,56.2114004 143.064525,62.7060712 160.885607,58.4443347 C169.15719,56.4656025 174.79743,63.4296806 171.820276,69.473239 C170.077751,73.0070333 168.887371,73.0416972 167.056829,73.1529106 C165.446569,73.2530508 163.388533,72.2165033 163.388533,72.2165033" id="path106" fill="#FFFFFF"></path>
                        <path d="M167.157831,43.8721035 C167.157831,43.8721035 166.549415,43.6577167 165.745727,41.9133993 C163.870457,41.0347652 163.292341,36.9776902 157.117752,43.4681244 C159.733703,35.9502901 165.750537,37.831867 167.979795,40.5004594 C170.210497,43.17247 167.977391,43.9595336 167.977391,43.9595336 L167.157831,43.8721035" id="path108" fill="#0B335E"></path>
                        <path d="M169.553022,56.7458025 C169.553022,56.7458025 169.174986,56.0303777 168.577631,53.6790083 C164.310537,41.7328581 150.175547,61.2314102 156.583403,52.3352999 C162.990777,43.4406821 170.716469,48.8207634 172.606168,53.2264516 C174.495867,57.6292511 170.53226,55.7877302 170.53226,55.7877302 L169.553022,56.7458025" id="path110" fill="#0B335E"></path>
                        <path d="M166.210817,69.1034905 C166.210817,69.1034905 166.494104,68.360142 167.866769,66.6177985 C172.514785,57.2248386 151.784846,60.7364865 161.279515,59.2011636 C170.77226,57.663915 172.236308,64.6438807 170.676068,68.0462409 C169.029735,71.6310682 167.019314,69.3297689 167.019314,69.3297689 L166.210817,69.1034905" id="path112" fill="#0B335E"></path>
                        <path d="M156.489134,43.9431645 C156.489134,43.9431645 159.439355,40.1832363 162.670457,41.0979787 C165.898673,42.0121434 165.633663,44.0906306 165.667331,44.3727083 C165.702441,44.6563266 166.282,43.2067006 166.282,43.2067006 C166.282,43.2067006 166.462842,39.7243245 162.328012,39.8446854 C159.978032,39.9131466 157.499154,40.9702518 156.489134,43.9431645" id="path114" fill="#FFFFFF"></path>
                        <path d="M156.848413,59.7625266 C156.848413,59.7625266 166.13723,60.0345421 167.261719,63.4296806 C168.503082,67.1777171 165.491298,69.6504102 165.226288,69.8617638 C164.962721,70.0702288 167.110697,70.6869577 167.110697,70.6869577 C167.110697,70.6869577 171.146449,64.5528879 167.551739,61.6921515 C165.487451,60.0465781 160.854345,59.1732399 156.848413,59.7625266" id="path116" fill="#FFFFFF"></path>
                        <path d="M155.264124,53.8783259 C155.264124,53.8783259 161.138593,48.9329397 165.465807,50.8991544 C168.653142,52.351669 168.72721,56.5036365 168.633904,56.8676077 C168.539154,57.230616 170.450497,56.9918201 170.450497,56.9918201 C170.450497,56.9918201 170.305727,51.1904276 165.454264,49.9097883 C162.138032,49.0325985 158.188854,50.5679214 155.264124,53.8783259" id="path118" fill="#FFFFFF"></path>
                        <path d="M30.0947007,43.726515 C30.0947007,43.726515 29.9139552,44.2585581 29.1680794,44.3727083 C28.4229732,44.4847883 26.8204081,44.3862368 25.0408491,42.6226135 C22.7389654,40.3387425 22.9533301,38.4571656 22.9533301,38.4571656 C22.9533301,38.4571656 23.7305645,41.4859258 25.9935384,42.7055181 C28.2570895,43.9254955 30.0947007,43.726515 30.0947007,43.726515" id="path120" fill="#FFFFFF"></path>
                        <path d="M14.6330738,37.6022185 C14.6330738,37.6022185 14.2511419,37.8288339 13.6003043,37.4245178 C12.9486009,37.0244865 10.9950298,35.3253285 10.939623,32.267778 C10.8793103,28.907833 11.716665,28.2752164 11.716665,28.2752164 C11.716665,28.2752164 10.7564727,30.9333133 11.7012743,33.7606375 C12.6472301,36.5882025 14.6330738,37.6022185 14.6330738,37.6022185" id="path122" fill="#FFFFFF"></path>
                        <path d="M14.5333223,17.8177371 C14.5333223,17.8177371 14.0018113,18.1744867 13.9437592,17.9452233 C13.7617151,17.2226731 13.79216,16.3653188 14.6235026,14.812664 C15.8213864,12.57583 17.3133302,12.4863297 17.3133302,12.4863297 C17.3133302,12.4863297 15.2477912,13.5781951 14.7452341,15.7153703 C14.242677,17.8510049 14.5333223,17.8177371 14.5333223,17.8177371" id="path124" fill="#FFFFFF"></path>
                        <path d="M168.731058,69.0972318 C168.731058,69.0972318 169.162,69.3923566 169.599675,68.8425482 C169.824765,68.5589781 170.482721,67.884476 170.67222,66.2047201 C170.998312,63.3059497 169.400557,61.7691825 169.400557,61.7691825 C169.400557,61.7691825 170.751579,64.1037013 170.152781,66.4507377 C169.581399,68.6899307 168.731058,69.0972318 168.731058,69.0972318" id="path126" fill="#FFFFFF"></path>
                        <path d="M171.940998,54.7155559 C171.940998,54.7155559 172.262761,54.5249043 172.090577,53.8407733 C171.921759,53.1595309 170.540437,50.3690853 167.76192,48.982047 C165.162801,47.688842 164.33699,48.2983974 164.33699,48.2983974 C164.33699,48.2983974 166.602801,48.2459201 168.892661,50.2390956 C171.17723,52.2327525 171.940998,54.7155559 171.940998,54.7155559" id="path128" fill="#FFFFFF"></path>
                        <path d="M167.748934,42.4907462 C167.748934,42.4907462 168.336669,42.6009486 168.301559,42.3790513 C168.187571,41.6954499 167.839835,40.9702518 166.546048,39.9530101 C164.685206,38.4885557 162.520878,38.7740516 162.520878,38.7740516 C162.520878,38.7740516 165.633663,39.0484262 166.943803,40.9871986 C168.09186,42.6842864 167.748934,42.4907462 167.748934,42.4907462" id="path130" fill="#FFFFFF"></path>
                        <polyline id="path132" fill="#0B335E" points="146.239355 82.9339138 146.239355 85.8711997 145.076389 85.8711997 145.076389 86.2202461 147.87174 86.2202461 147.87174 85.8711997 146.705888 85.8711997 146.705888 82.9339138 146.239355 82.9339138"></polyline>
                        <polyline id="path134" fill="#0B335E" points="148.331539 82.9339138 148.331539 86.2202461 148.976028 86.2202461 149.88697 83.6767809 150.822922 86.2202461 151.400076 86.2202461 151.400076 82.9339138 150.963844 82.9339138 150.963844 85.6073688 150.057712 83.1548963 149.608974 83.1548963 148.729776 85.6136275 148.729776 82.9339138 148.331539 82.9339138"></polyline>
                        <polyline id="path136" fill="#0B335E" points="174.666128 43.2730917 174.666128 46.2114367 173.501238 46.2114367 173.501238 46.5604832 176.294184 46.5604832 176.294184 46.2114367 175.130737 46.2114367 175.130737 43.2730917 174.666128 43.2730917"></polyline>
                        <polyline id="path138" fill="#0B335E" points="176.755426 43.2730917 176.755426 46.5604832 177.400877 46.5604832 178.309414 44.0149959 179.246328 46.5604832 179.823482 46.5604832 179.823482 43.2730917 179.390617 43.2730917 179.390617 45.9454874 178.483523 43.4925817 178.033342 43.4925817 177.153182 45.9513129 177.153182 43.2730917 176.755426 43.2730917"></polyline>
                        <path d="M50.7299386,50.2217636 C50.497634,50.6983925 50.1955899,51.2303874 49.6174737,51.1355431 C49.2606,51.0772884 49.0018425,50.71091 49.0696581,50.2405399 C49.1360308,49.7778728 49.4395178,49.5617048 50.0748685,49.3084656 C50.8655699,49.0066006 51.4465719,48.6450366 51.5624837,47.8415558 C51.6894576,46.9576739 51.1209606,46.1497157 50.0638064,45.9768775 C49.8055298,45.9346068 49.5717823,45.9379769 49.3654497,45.9618565 C49.1509407,45.9936318 49.0133855,46.0293549 48.8917022,46.0673407 C48.7849286,46.2657435 48.6137062,46.8608075 48.4929848,47.3225117 L48.7387563,47.4539457 C48.9619226,46.9839607 49.4630849,46.2025782 50.1474937,46.314273 C50.573626,46.3842268 50.7991971,46.7620635 50.7294576,47.2487546 C50.6630849,47.7110365 50.3283354,47.9795856 49.7482953,48.2256994 C49.0042473,48.527083 48.3842874,48.8905727 48.2722232,49.6695481 C48.1505399,50.5135183 48.6305399,51.2891235 49.6799988,51.4614802 C50.0830448,51.527438 50.4740669,51.459073 50.6736661,51.4248905 C50.7405198,51.1206183 50.8439266,50.7802379 50.9810007,50.3127564 L50.7299386,50.2217636" id="path140" fill="#0B335E"></path>
                        <path d="M53.5637662,49.5501501 L53.5483754,49.5477429 L53.2862512,48.126474 L54.1832451,48.2733623 L53.5637662,49.5501501 Z M54.3804395,46.7938388 L54.3405197,47.0697539 L54.475189,47.1082694 C54.6608403,47.1722532 54.6954696,47.2527024 54.5660908,47.5054602 L54.3511008,47.9184904 L53.22565,47.7345309 C53.2011209,47.5810949 53.1717822,47.4597712 53.1506199,47.2816853 C53.1208003,47.0027852 53.20064,46.9324463 53.4098584,46.9426048 L53.5805999,46.9456379 L53.6200387,46.6691449 L52.2820027,46.4506178 L52.2420829,46.726533 C52.5402792,46.816611 52.6605197,46.9027412 52.783165,47.4539457 L53.5046079,50.6117327 L53.8715818,50.7633874 L55.497714,47.7909561 C55.7165517,47.403009 55.8488162,47.349954 56.1883753,47.3725337 L56.2278142,47.0966185 L54.3804395,46.7938388 Z" id="path142" fill="#0B335E"></path>
                        <path d="M56.8775938,47.2045581 L56.8395978,47.4727702 C57.2527441,47.5737289 57.3003593,47.6224509 57.228215,48.1255111 L56.9151088,50.3002389 C56.8429645,50.8033472 56.7852491,50.8264564 56.3620026,50.7908296 L56.3235256,51.0585121 L58.2093773,51.3675988 L58.2464114,51.1076194 C57.8193172,50.996406 57.7779545,50.9559647 57.8515416,50.4451533 L58.1617621,48.2873242 C58.2343873,47.7838307 58.2868122,47.7428118 58.7249685,47.7813754 L58.7634454,47.5135484 L56.8775938,47.2045581" id="path144" fill="#0B335E"></path>
                        <path d="M62.7943872,51.8538566 C62.5139864,51.7999349 62.3663311,51.6916102 62.3730646,51.4277792 C62.380279,51.212574 62.3995175,50.9169678 62.4779143,50.3734183 L62.8020826,48.1174228 L62.4072129,48.0532946 L59.8869725,50.6386935 L59.8735055,50.6276203 L60.0471328,49.4191975 C60.1288963,48.8510944 60.1899785,48.586782 60.2443272,48.3720582 C60.2996378,48.1481871 60.473746,48.0770297 60.8493772,48.1140527 L60.8854494,47.8622579 L59.4565115,47.6282764 L59.4204394,47.8795417 C59.6993973,47.9415997 59.8436859,48.0739966 59.8335857,48.3041747 C59.8249284,48.527083 59.8095376,48.798617 59.7277741,49.3667202 L59.564247,50.5029265 C59.4685356,51.1673183 59.3396378,51.254941 58.8634855,51.2096854 L58.8259705,51.4691833 L60.1337059,51.6839071 L62.2383952,49.6031089 L62.2610004,49.6074419 L62.1585556,50.3214224 C62.0801588,50.8644905 62.0157099,51.152875 61.9560706,51.3507483 C61.887293,51.6136163 61.7319423,51.663205 61.3418822,51.6155421 L61.3048482,51.8755215 L62.7568722,52.1133545 L62.7943872,51.8538566" id="path146" fill="#0B335E"></path>
                        <path d="M66.5776336,51.658872 C66.4323831,51.9997339 66.3511005,52.1273164 66.256351,52.2356412 C66.1649683,52.3280783 66.0067318,52.3425216 65.7710605,52.3020803 L65.5132649,52.2573061 L65.916311,49.5905914 C65.9947078,49.0720769 66.0485755,49.0229696 66.547333,49.0759284 L66.5877338,48.8077645 L64.5979944,48.4654582 L64.5571126,48.7326593 C65.0236457,48.8462799 65.0601988,48.9112748 64.9793972,49.4456769 L64.5787559,52.096504 L64.4041667,52.0666545 C64.0775936,52.0098442 63.9568721,51.9308875 63.8914613,51.7951205 C63.8250886,51.6670565 63.7914213,51.4783308 63.7534253,51.1644297 L63.5105395,51.1225441 C63.4605195,51.6049504 63.4311808,52.0570257 63.3936657,52.3579278 L63.5605595,52.3872958 C63.6634854,52.2717494 63.7269724,52.2659721 63.9092569,52.2972659 L66.1351486,52.6804948 C66.3097378,52.7103443 66.3352288,52.7483783 66.4016015,52.8754794 L66.5761907,52.9058103 C66.6204392,52.6140556 66.737313,52.0445081 66.8181146,51.7171267 L66.5776336,51.658872" id="path148" fill="#0B335E"></path>
                        <path d="M70.8437658,53.7526692 L70.8211606,53.7468918 C70.7591165,53.1065722 70.7365113,52.5009164 70.6855293,51.8798545 L71.7340263,52.147537 L70.8437658,53.7526692 Z M72.242884,50.1235492 L72.1837257,50.3868987 C72.5757096,50.5462564 72.5915814,50.6516925 72.3838058,51.012775 C72.255389,51.2332761 72.1014812,51.5312895 71.952383,51.7724926 L70.6648479,51.4441483 C70.6499381,51.2284617 70.626371,50.9439286 70.6143469,50.6117327 C70.5984752,50.1514729 70.6480143,50.0715533 71.1660102,50.1274007 L71.2251686,49.8640512 L69.6750283,49.4683047 L69.616351,49.7321357 C70.0246876,49.8871605 70.1170323,50.0031883 70.1906195,50.6637286 L70.6725433,55.1536693 L71.0024832,55.3385436 C71.7633649,54.0636816 72.4665313,52.7984484 73.2307797,51.5418813 C73.6208398,50.8977101 73.7300182,50.8327152 74.1523028,50.890007 L74.211942,50.626176 L72.242884,50.1235492 Z" id="path150" fill="#0B335E"></path>
                        <path d="M77.5546273,55.2186642 C77.2569119,55.134893 77.154948,55.0236796 77.1751484,54.7930683 C77.1991965,54.5793074 77.2381544,54.301996 77.3487756,53.8070723 L77.457954,53.3193701 C77.59599,52.704567 77.6036854,52.1744978 77.3930241,51.773937 C77.2198778,51.4513699 76.8740662,51.1942792 76.4844871,51.0951018 C76.0727837,50.9896657 75.6923428,50.9935173 75.3797176,51.1504678 C75.0492967,51.3194544 74.7823629,51.6988318 74.6279741,52.3863329 L74.3163108,53.7757784 C74.2056895,54.2711837 74.1498979,54.3077734 73.7141465,54.2384455 L73.656912,54.4945734 L75.513425,54.9683136 L75.5706594,54.7126672 C75.1680943,54.5672713 75.133946,54.5085352 75.2445673,54.01313 L75.5187155,52.7902639 C75.7298578,51.8480792 76.0982747,51.5115503 76.6302185,51.6468359 C77.1765913,51.7864545 77.3232846,52.3309669 77.1227235,53.2259701 L77.0135452,53.7127094 C76.8904189,54.263962 76.813946,54.497462 76.7485352,54.6837806 C76.6590762,54.9062074 76.509978,54.9355755 76.131942,54.8556559 L76.0747075,55.1117838 L77.4973929,55.474792 L77.5546273,55.2186642" id="path152" fill="#0B335E"></path>
                        <path d="M82.1752284,54.3376228 C81.9227234,54.2312239 81.8981943,54.1989672 81.9876533,53.7998506 L82.0929839,53.3285176 C82.1415611,53.1128309 82.1978336,52.9327711 82.2579539,52.8047072 C81.9203186,52.6169443 81.4850481,52.3709267 81.005529,52.2486401 C79.7405992,51.9255916 78.8070521,52.5235443 78.5454089,53.6900815 C78.2327836,55.0877116 79.1033247,56.0019725 80.2561904,56.2970973 C80.6981944,56.4092736 81.1219218,56.3914602 81.3234449,56.3750911 C81.3917415,56.1728849 81.4893767,55.8426148 81.637994,55.3573199 L81.3965511,55.2706601 C81.0449679,55.9581612 80.6000781,56.0722632 80.2249279,55.976456 C79.73098,55.8503179 79.2995571,55.1994064 79.5554289,54.0569414 C79.7598377,53.146532 80.3312204,52.3974061 80.9896573,52.5659113 C81.1546272,52.6077969 81.258515,52.7098629 81.1974328,52.9813969 L81.0704589,53.5490186 C80.981,53.9486166 80.9420421,53.9803919 80.4163507,53.8889176 L80.3576733,54.1527486 L82.1160701,54.6014538 L82.1752284,54.3376228" id="path154" fill="#0B335E"></path>
                        <path d="M86.2422423,57.4347479 C85.9445269,57.3504954 85.842563,57.2402448 85.8627634,57.0086706 C85.8868115,56.7953912 85.9252884,56.5180798 86.0363906,56.0221931 L86.14605,55.5354539 C86.2836051,54.9201693 86.2917814,54.3905816 86.0801582,53.9900207 C85.9074928,53.6674537 85.5616812,53.4103629 85.172583,53.3111856 C84.7603987,53.2057495 84.3799578,53.2096011 84.0678135,53.3665516 C83.7369117,53.5350568 83.4699779,53.9144341 83.3155891,54.6019352 L83.0044067,55.9918622 C82.8933045,56.486786 82.837513,56.5233757 82.4022424,56.4545293 L82.345008,56.7101757 L84.2015209,57.183916 L84.2587554,56.928751 C83.8557093,56.7828736 83.821561,56.7236561 83.9326632,56.2287323 L84.2068115,55.0063477 C84.4174728,54.064163 84.7863706,53.7276341 85.3173526,53.8634011 C85.8642063,54.0025383 86.0113806,54.5470507 85.8108195,55.441091 L85.7016411,55.9287931 C85.577553,56.4800458 85.501561,56.7135458 85.4361502,56.8998644 C85.3466913,57.1222912 85.1975931,57.1511778 84.819557,57.0717397 L84.7623225,57.3273861 L86.1850079,57.6903944 L86.2422423,57.4347479" id="path156" fill="#0B335E"></path>
                        <path d="M89.2275729,57.3259417 C88.9635248,57.833383 88.6037653,58.0957697 88.2218816,57.9989996 C87.9448475,57.9277459 87.7914207,57.6605449 87.8577934,57.3649387 C87.9275329,57.0534448 88.1959096,56.9533046 88.4806391,56.882051 L88.7134246,56.8319809 C89.3357893,56.7034355 89.8508996,56.5224128 89.9975929,55.8676498 C90.173144,55.0848229 89.7027633,54.4661682 88.8567513,54.2500001 C88.3329838,54.1166403 87.9434046,54.2288166 87.7967112,54.2837012 C87.7120619,54.4141723 87.5369918,54.8426569 87.3859698,55.2687343 L87.6173124,55.4035384 C87.8390359,55.0126064 88.3618415,54.4449847 88.88609,54.578826 C89.1852483,54.6553755 89.3617613,54.9283538 89.2862503,55.2634384 C89.2232443,55.543157 89.0347072,55.6803684 88.6268515,55.7708797 L88.3603986,55.8296158 C87.9111802,55.9259045 87.3268114,56.1314808 87.1854086,56.762653 C87.0281341,57.4655603 87.3907794,58.1068429 88.2589156,58.3287883 C88.6109797,58.4188182 88.9933445,58.3725996 89.1419617,58.3432316 C89.2169918,58.1511357 89.3136651,57.8969336 89.4603585,57.4535242 L89.2275729,57.3259417" id="path158" fill="#0B335E"></path>
                        <path d="M93.3474927,58.4024491 C93.179156,58.7307935 93.0887351,58.8511543 92.9867712,58.951776 C92.889136,59.03651 92.7299376,59.0379543 92.4981139,58.9792182 L92.2436851,58.9142234 L92.8323824,56.2860241 C92.9473323,55.7747313 93.0045668,55.7309199 93.4985147,55.8228756 L93.557673,55.5590446 L91.5963103,55.0583435 L91.537152,55.3221745 C91.9940658,55.4728663 92.0267712,55.5393055 91.9079737,56.0669674 L91.323124,58.679279 L91.1504586,58.6349862 C90.8286951,58.5531409 90.7142262,58.4650367 90.6584346,58.3239738 C90.6012001,58.1910955 90.5809997,58.0004439 90.564647,57.6836542 L90.325128,57.6225109 C90.2419216,58.0996212 90.1808394,58.547845 90.1221621,58.8458584 L90.286651,58.887744 C90.3977533,58.781345 90.4612402,58.7799007 90.64112,58.8266007 L92.8343063,59.3860379 C93.0064907,59.4293678 93.0290959,59.4693276 93.0863303,59.6022059 L93.2585147,59.6464987 C93.3229636,59.3585956 93.4797572,58.7991584 93.583164,58.47948 L93.3474927,58.4024491" id="path160" fill="#0B335E"></path>
                        <path d="M95.0842461,55.9774189 L95.010178,56.2364354 C95.4060096,56.4001262 95.4464104,56.4559736 95.3069315,56.9422314 L94.7052481,59.0480646 C94.5662501,59.5348039 94.5056489,59.5497286 94.0920217,59.4495884 L94.0174726,59.7086049 L95.843204,60.302706 L95.9148673,60.0513926 C95.5070116,59.8756658 95.4714205,59.8299286 95.6133042,59.3350049 L96.2106589,57.2450593 C96.3496569,56.7588015 96.4068914,56.7255819 96.8359094,56.831018 L96.9099775,56.57152 L95.0842461,55.9774189" id="path162" fill="#0B335E"></path>
                        <path d="M100.334426,61.4909082 C100.064607,61.3941381 99.9323422,61.2651113 99.9746668,61.0046504 C100.01122,60.7932968 100.069416,60.5029864 100.220438,59.9762874 L100.844727,57.7924604 L100.462362,57.668248 L97.6193964,59.8429276 L97.6073723,59.8304101 L97.9416408,58.6595398 C98.0989154,58.1092501 98.1951078,57.8579367 98.2783142,57.6528418 C98.3624825,57.4400438 98.5438052,57.3962325 98.911741,57.4896325 L98.9814805,57.2460221 L97.5977531,56.7958726 L97.5275326,57.0394829 C97.7959094,57.1434747 97.9209595,57.2960923 97.8800777,57.523815 C97.8416008,57.7428717 97.7896569,58.0091099 97.6328633,58.5589182 L97.3183142,59.6585348 C97.1341058,60.302706 96.9946268,60.3691452 96.5290557,60.251673 L96.4569114,60.5034679 L97.7228032,60.915102 L100.08625,59.1775729 L100.108855,59.1847945 L99.9111799,59.8756658 C99.7606388,60.4018833 99.6581939,60.6777504 99.5721017,60.8645504 C99.4682139,61.1144195 99.3085346,61.1389731 98.9285747,61.0330556 L98.8569114,61.2838876 L100.263244,61.7417402 L100.334426,61.4909082" id="path164" fill="#0B335E"></path>
                        <path d="M104.703484,60.2174905 C104.742442,59.9122554 104.805929,59.2979337 104.802082,59.1419461 L101.857152,58.1833924 L101.783565,58.4428903 C102.230859,58.6229501 102.261641,58.6840934 102.108695,59.2180141 L101.531541,61.2367061 C101.383885,61.7557021 101.335308,61.7826629 100.909176,61.6695237 L100.835108,61.9285402 L103.602563,62.8298022 C103.654987,62.6752589 103.779557,62.2954001 103.917112,61.9275773 L103.670859,61.8303258 C103.542442,62.0551598 103.469336,62.1427825 103.364005,62.2284794 C103.239917,62.325731 103.0913,62.3372856 102.745969,62.2241464 L102.480959,62.1379681 C102.289056,62.0763433 102.290979,62.0421609 102.349176,61.8375474 L102.66132,60.7465968 L103.059076,60.8756236 C103.45635,61.0051319 103.467412,61.0518319 103.41643,61.4557628 L103.66653,61.5371268 L104.003685,60.3590349 L103.752623,60.2771895 C103.588615,60.6276803 103.545809,60.6647514 103.155268,60.5376504 L102.757993,60.4086235 L102.99607,59.5757265 C103.092262,59.2382348 103.176911,59.0856172 103.280799,59.0586564 C103.387092,59.0249553 103.54629,59.0591378 103.795909,59.1409832 C104.083524,59.2339018 104.248975,59.3306719 104.329296,59.5290265 C104.388935,59.6859771 104.417793,59.8925163 104.438955,60.1573101 L104.703484,60.2174905" id="path166" fill="#0B335E"></path>
                        <path d="M105.507653,64.3256467 C105.704847,63.6347755 105.257552,63.0599321 104.773224,62.7301434 L104.598154,62.9742352 C104.927132,63.2871734 105.058434,63.587594 104.973304,63.8856075 C104.892502,64.1691776 104.645769,64.3290168 104.340839,64.2986859 C104.3014,64.2938714 104.217713,64.3617549 104.16625,64.5422962 C104.10613,64.7541313 104.254266,64.9659663 104.452903,65.0299983 C104.791981,65.1407303 105.33643,64.9231179 105.507653,64.3256467" id="path168" fill="#0B335E"></path>
                        <path d="M108.920077,63.4032012 C108.627172,63.8913848 108.253464,64.1306621 107.877833,64.0078941 C107.605609,63.9197899 107.467092,63.6424786 107.550779,63.3521682 C107.638314,63.0459702 107.9115,62.963162 108.200077,62.9111661 L108.434787,62.8760207 C109.062923,62.7888795 109.588134,62.6415578 109.772342,61.9978681 C109.992142,61.2280401 109.558314,60.5800174 108.72625,60.3094462 C108.21114,60.1414225 107.816751,60.2276008 107.66621,60.2728565 C107.574346,60.3980318 107.375228,60.8135174 107.200158,61.229003 L107.422843,61.3787319 C107.667172,61.0027246 108.22124,60.4712112 108.736831,60.638272 C109.03118,60.7345607 109.19134,61.0181308 109.097071,61.348401 C109.018194,61.6233051 108.82148,61.7484804 108.409296,61.8115495 L108.139957,61.8524722 C107.68641,61.9193928 107.09146,62.0864536 106.914466,62.7070341 C106.716791,63.3983868 107.04144,64.0627786 107.895629,64.3405714 C108.24144,64.4527477 108.625729,64.4320457 108.77627,64.4123065 C108.861881,64.2255065 108.972983,63.9780446 109.144687,63.5447456 L108.920077,63.4032012" id="path170" fill="#0B335E"></path>
                        <path d="M115.598715,67.8873646 C115.227893,67.7491904 115.121119,67.5595017 115.168254,67.2831532 C115.210578,67.0226924 115.257232,66.7458624 115.43663,66.1170974 L115.677111,65.2769788 C115.899316,64.4994477 115.99647,63.7926889 115.758875,63.2173641 C115.560719,62.7580671 115.162482,62.4046877 114.684406,62.2491815 C114.242883,62.1052299 113.778755,62.0657516 113.377151,62.2612176 C112.912542,62.4793114 112.607612,62.9554589 112.348855,63.8586466 L111.796711,65.7906788 C111.603845,66.4661438 111.534105,66.511881 111.034867,66.4016304 L110.960799,66.660647 L112.955829,67.3105955 L113.029897,67.0510975 C112.579236,66.8522614 112.546049,66.7728233 112.738915,66.0978397 L113.282883,64.1966199 C113.599356,63.0888187 114.091861,62.6314475 114.798875,62.861096 C115.527532,63.098929 115.710298,63.8105023 115.346691,65.0834385 L115.083604,66.0020324 C114.908534,66.6149098 114.79166,66.9119604 114.704125,67.1324614 C114.593023,67.3794419 114.412662,67.4752491 113.920638,67.3409264 L113.84657,67.5999429 L115.524646,68.1463812 L115.598715,67.8873646" id="path172" fill="#0B335E"></path>
                        <path d="M119.86629,68.0987183 C119.60128,67.9879863 119.475749,67.8522193 119.530578,67.5936842 C119.577712,67.3842563 119.650338,67.0977975 119.82637,66.5802459 L120.55647,64.43349 L120.180839,64.2876127 L117.234947,66.3019717 L117.222923,66.2889727 L117.614426,65.1378416 C117.798634,64.5976622 117.90637,64.3511632 117.999676,64.1508827 C118.094426,63.9428992 118.278634,63.9091982 118.640799,64.0233003 L118.7216,63.7840229 L117.36144,63.2568424 L117.279676,63.4966012 C117.542763,63.6159992 117.660117,63.7753569 117.608654,63.9997095 C117.559115,64.216359 117.494666,64.48019 117.310458,65.0203694 L116.942522,66.1012098 C116.727532,66.7343078 116.584686,66.7925624 116.125368,66.6500552 L116.0412,66.8965542 L117.285929,67.3794419 L119.73162,65.7747912 L119.753264,65.7829757 L119.522402,66.4627737 C119.34637,66.9798439 119.229977,67.2499336 119.135227,67.4319192 C119.019797,67.6750481 118.859155,67.6914172 118.484005,67.5638347 L118.400318,67.8112966 L119.782602,68.3461801 L119.86629,68.0987183" id="path174" fill="#0B335E"></path>
                        <path d="M121.592943,64.8980828 L121.50637,65.1527664 C121.894025,65.3381221 121.93154,65.3958953 121.768013,65.87445 L121.064847,67.9441749 C120.90132,68.4232111 120.840237,68.4347657 120.43142,68.3110348 L120.344847,68.5657183 L122.139797,69.261404 L122.223965,69.0144235 C121.824766,68.8160689 121.79158,68.768406 121.957031,68.2816667 L122.655869,66.2278294 C122.818915,65.7487932 122.878073,65.7194252 123.30132,65.848452 L123.387893,65.593287 L121.592943,64.8980828" id="path176" fill="#0B335E"></path>
                        <path d="M126.52136,70.6802175 C126.20681,70.4967876 126.134666,70.3725752 126.09138,69.8752442 C126.029336,69.2392576 125.995668,67.8454791 125.967291,66.5065851 L125.6715,66.3910387 C124.951019,67.2571553 124.248334,68.0948667 123.515348,68.9470215 C123.224366,69.2975122 123.097392,69.3095483 122.794867,69.2358875 L122.710698,69.4828679 L124.484005,70.1698876 L124.567692,69.9229071 L124.419075,69.83047 C124.244486,69.7192566 124.221881,69.6402999 124.405127,69.4145029 C124.847612,68.8598802 125.264606,68.3312554 125.711901,67.7877059 C125.719115,68.3678451 125.727772,69.4019854 125.707091,69.8227669 C125.70132,70.179035 125.645047,70.2705092 125.400718,70.2194762 L125.241039,70.183368 L125.15639,70.4308299 L126.43671,70.9267165 L126.52136,70.6802175" id="path178" fill="#0B335E"></path>
                        <path d="M130.983724,69.6643721 C131.037111,69.3620256 131.129937,68.751074 131.134746,68.5955678 L128.239836,67.4738048 L128.153263,67.7289698 C128.590939,67.9340646 128.619315,67.9966523 128.440398,68.5214255 L127.765127,70.5064165 C127.5915,71.0157835 127.542442,71.0408186 127.1216,70.9040887 L127.035508,71.1587722 L129.755828,72.2131332 C129.815949,72.0614785 129.959756,71.6878785 130.114626,71.3287217 L129.873183,71.2184712 C129.734185,71.4351207 129.656269,71.5188919 129.547091,71.5992929 C129.418674,71.6888414 129.270057,71.6922115 128.930017,71.5607774 L128.668854,71.4596743 C128.480798,71.3864949 128.484646,71.3527939 128.552462,71.1525135 L128.917993,70.0788948 L129.308534,70.230068 C129.699556,70.3817227 129.707732,70.4289041 129.637512,70.829465 L129.883283,70.9247908 L130.277191,69.766438 L130.030939,69.6715937 C129.849616,70.0119742 129.805367,70.0466381 129.42156,69.898835 L129.030538,69.7471803 L129.309496,68.9287266 C129.422522,68.5965307 129.513424,68.4487276 129.618754,68.4280255 C129.72649,68.3996204 129.884245,68.4429503 130.129536,68.538276 C130.412341,68.6480451 130.572983,68.7539627 130.643684,68.9556874 C130.695147,69.1155266 130.714866,69.3239916 130.722562,69.5897483 L130.983724,69.6643721" id="path180" fill="#0B335E"></path>
                        <path d="M132.788293,71.3340176 C133.020117,71.4240475 133.142281,71.4972269 133.228854,71.6532146 C133.318794,71.819794 133.33178,72.0691816 133.242802,72.3315682 C133.04657,72.911226 132.658434,73.0142549 132.354947,72.8967827 C132.173624,72.8269735 132.134185,72.7499425 132.200077,72.5568837 L132.635828,71.2752815 L132.788293,71.3340176 Z M135.554786,70.2560659 L135.294105,70.1549628 C134.526971,69.8579123 134.239355,69.9561267 133.949335,70.1843309 C133.688173,70.3980917 133.445768,70.6537381 133.203363,70.9093846 C133.065327,71.0480403 132.98645,71.0875186 132.820037,71.0234866 L132.733464,70.9893042 L132.980678,70.263769 C133.150458,69.7616236 133.212502,69.7245525 133.613624,69.8449133 L133.701159,69.5902298 L131.942762,68.9089874 L131.856189,69.163671 C132.257311,69.354804 132.285688,69.4178731 132.117351,69.9118339 L131.434385,71.9194527 C131.257872,72.4370043 131.2016,72.4586693 130.800478,72.3383084 L130.715828,72.5857703 L132.510778,73.2804931 C132.923444,73.4403323 133.213464,73.5005127 133.486169,73.4485168 C133.774265,73.3941137 134.018594,73.1827601 134.134025,72.8433425 C134.289375,72.3878971 134.087371,71.9680785 133.773303,71.6638063 C133.919035,71.5015599 134.317271,71.1486619 134.578434,70.9353825 C134.83671,70.7293248 134.993023,70.6325546 135.143083,70.5511907 C135.281119,70.4828258 135.408093,70.4703082 135.505728,70.4727154 L135.554786,70.2560659 Z" id="path182" fill="#0B335E"></path>
                        <path d="M137.333864,73.9708829 C137.017391,74.4422159 136.632141,74.6603097 136.262762,74.5168396 C135.995347,74.4138107 135.871259,74.1292777 135.967932,73.8433004 C136.070377,73.5428797 136.347411,73.4749962 136.638393,73.438888 L136.875508,73.4167416 C137.507492,73.3647457 138.038474,73.2477549 138.254425,72.6141755 C138.51174,71.857828 138.108694,71.1857331 137.29154,70.8694248 C136.785087,70.6729959 136.38685,70.7370278 136.234866,70.7745804 C136.13675,70.8939784 135.916951,71.2983908 135.72168,71.7032847 L135.93667,71.8655311 C136.198794,71.5039671 136.779315,71.0027846 137.285768,71.1992135 C137.575307,71.3113898 137.72152,71.6041073 137.610898,71.9281187 C137.518554,72.1986899 137.317031,72.3123105 136.90148,72.3522703 L136.630217,72.3782682 C136.174746,72.4201538 135.57162,72.5539951 135.363844,73.1639838 C135.132983,73.8433004 135.424926,74.5245427 136.264686,74.8499984 C136.604726,74.9819139 136.989977,74.9823954 137.140999,74.9713222 C137.235267,74.7893366 137.358393,74.5481334 137.55174,74.1254262 L137.333864,73.9708829" id="path184" fill="#0B335E"></path>
                        <path d="M139.309175,71.7653909 L139.222121,72.0200744 C139.609776,72.2054301 139.647291,72.2632033 139.483764,72.741758 L138.780598,74.811483 C138.617071,75.2900377 138.555989,75.3015923 138.147171,75.1778614 L138.060598,75.4330263 L139.855067,76.128712 L139.939716,75.8812501 C139.540518,75.6828954 139.507331,75.635714 139.672782,75.1484933 L140.37162,73.094656 C140.534185,72.6161013 140.593343,72.5867332 141.017071,72.7152786 L141.103644,72.4605951 L139.309175,71.7653909" id="path186" fill="#0B335E"></path>
                        <path d="M143.768654,76.7112584 C143.550778,77.0049389 143.443523,77.1079678 143.327131,77.1888502 C143.21699,77.2552894 143.060197,77.2292915 142.841359,77.1296327 L142.599916,77.0203451 L143.590217,74.5336901 C143.782602,74.050321 143.84657,74.0161385 144.318874,74.194754 L144.417471,73.9458478 L142.562401,73.1042848 L142.462842,73.3536725 C142.889936,73.5828395 142.91158,73.655056 142.712461,74.1538313 L141.728894,76.6250801 L141.56681,76.5514192 C141.261399,76.413245 141.162802,76.3058831 141.129616,76.1571171 C141.094025,76.0165357 141.103644,75.8244398 141.136349,75.5090944 L140.909816,75.4060655 C140.753984,75.8619924 140.623644,76.2933656 140.519275,76.5769357 L140.675107,76.6472265 C140.801119,76.5615296 140.864125,76.5721213 141.033904,76.6491522 L143.109255,77.5898926 C143.271339,77.6640348 143.288654,77.7068833 143.324245,77.8479462 L143.48681,77.9220885 C143.595507,77.6495915 143.83695,77.1257812 143.989415,76.8292121 L143.768654,76.7112584" id="path188" fill="#0B335E"></path>
                        <path d="M147.725046,79.3880835 C147.397511,79.2036907 147.328734,79.0828484 147.265728,78.652438 C147.228213,78.3683865 147.181078,77.9191998 147.139716,77.2668441 C147.137311,77.1488905 147.156068,77.0598234 147.206569,76.9307966 L147.471579,76.2664048 C147.655788,75.805182 147.715908,75.7791841 148.198794,75.9534666 L148.297391,75.7040789 L146.406249,74.8466283 L146.307652,75.0964974 C146.76697,75.3487737 146.77707,75.4070284 146.599596,75.8528449 L146.352862,76.4724625 C146.284085,76.6462636 146.22204,76.7165543 146.104686,76.8234347 C145.76657,77.1257812 145.464044,77.3814276 145.105247,77.6736637 C144.772902,77.9423091 144.671419,77.9668627 144.347251,77.8561307 L144.247692,78.105037 L145.933944,78.869569 L146.032541,78.6206628 L145.882,78.5161896 C145.749736,78.4295298 145.765608,78.347203 145.898834,78.2205834 C146.282161,77.8681668 146.547171,77.6221493 146.864606,77.3289503 C146.898273,77.7906544 146.900197,78.2465813 146.90693,78.5884061 C146.915588,78.8604216 146.853543,78.9114546 146.675107,78.8758278 L146.500036,78.8320164 L146.400477,79.0818855 L147.626449,79.6369897 L147.725046,79.3880835" id="path190" fill="#0B335E"></path>
                    </g>
                </g>
            </g>
        </g>
    </g>
</svg>