<?xml version="1.0" encoding="UTF-8"?>
<svg width="200px" height="200px" viewBox="0 0 200 200" version="1.1" xmlns="http://www.w3.org/2000/svg" xmlns:xlink="http://www.w3.org/1999/xlink">
    <!-- Generator: Sketch 51.3 (57544) - http://www.bohemiancoding.com/sketch -->
    <title>st-benedict</title>
    <desc>Created with Sketch.</desc>
    <defs></defs>
    <g id="st-benedict" stroke="none" stroke-width="1" fill="none" fill-rule="evenodd">
        <g id="st-benedict_BGL" transform="translate(0.000000, 65.000000)">
            <g id="st-benedict">
                <g id="g10" transform="translate(99.999998, 34.842106) scale(-1, 1) rotate(-180.000000) translate(-99.999998, -34.842106) translate(0.000000, 0.631581)" fill-rule="nonzero">
                    <g id="g12">
                        <polyline id="path14" fill="#141111" points="99.1271905 3.22265781 76.4014893 3.22265781 67.810086 11.9003506 67.810086 59.2362266 76.3123665 67.7343843 98.861401 67.7343843 107.452629 59.2362266 107.452629 44.5583322 90.7184188 42.3225428 90.7184188 53.4196478 84.54184 53.4196478 84.54184 17.5386838 90.8973661 17.5386838 90.8973661 30.5149992 107.72105 32.8402623 107.72105 11.7211401 99.1271905 3.22265781"></polyline>
                        <polyline id="path16" fill="#141111" points="136.801751 46.2629813 136.801751 53.8657881 130.538593 53.8657881 130.538593 47.7823672 153.622803 34.9852623 153.622803 11.7211401 145.215786 3.22265781 122.12719 3.22265781 113.536839 11.9894734 113.536839 25.0548239 130.449997 27.6521046 130.449997 17.3571048 136.710523 17.3571048 136.710523 25.5029818 113.536839 38.3867534 113.536839 59.1481564 121.857014 67.7343843 145.302628 67.7343843 153.714908 59.5925424 153.714908 48.8538584 136.801751 46.2629813"></polyline>
                        <path d="M54.6412267,67.7343843 C54.6412267,67.7343843 60.8285073,46.2092094 54.6412267,27.9485081 C48.4433321,9.67824537 28.6903502,0 28.6903502,0 C28.6903502,0 8.93842083,9.67824537 2.75048239,27.9485081 C-3.43818412,46.2092094 2.75048239,67.7343843 2.75048239,67.7343843 L54.6412267,67.7343843" id="path18" fill="#CF123C"></path>
                        <path d="M28.4059642,40.3032446 L28.1986835,59.3606126 L24.9040345,59.3606126 C24.7642976,59.3606126 24.7385959,59.1828055 24.8903503,59.1536827 C26.5264906,58.7667529 26.3285081,57.7165775 26.3285081,57.7165775 L27.1227186,42.3265779 C27.1981572,41.2043849 26.7818414,40.8885077 25.7511397,40.9690341 L10.3769296,41.7592095 C10.3769296,41.7592095 9.31947345,41.5614902 8.93228048,43.1904375 C8.88912258,43.3570165 8.7143682,43.3220165 8.7143682,43.1808761 L8.7143682,39.8885955 L27.8001747,39.6823674 C28.107894,39.6823674 28.4059642,39.8369288 28.4059642,40.3032446" id="path20" fill="#FFFFFF"></path>
                        <path d="M48.4672795,43.1904375 C48.0800865,41.5600867 47.0189462,41.7592095 47.0189462,41.7592095 L31.6303501,40.9690341 C30.6064905,40.8885077 30.2004378,41.2043849 30.2775431,42.3265779 L31.0632448,57.7165775 C31.0632448,57.7165775 30.863508,58.7667529 32.5014027,59.1536827 C32.6658764,59.1828055 32.6161395,59.3606126 32.4859641,59.3606126 L29.1923677,59.3606126 L28.9788589,40.3032446 C28.9788589,39.8369288 29.2849115,39.6823674 29.5795607,39.6823674 L48.667104,39.8885955 L48.667104,43.1808761 C48.667104,43.3220165 48.4923672,43.3570165 48.4672795,43.1904375" id="path22" fill="#FFFFFF"></path>
                        <path d="M28.9788589,38.3378061 L29.1923677,19.4102627 L28.1986835,19.4102627 L28.4059642,38.3378061 C28.4059642,38.7969289 28.107894,38.9600867 27.8001747,38.9600867 L8.7143682,38.746578 L8.7143682,35.4515781 C8.7143682,35.3128061 8.88912258,35.2899114 8.93228048,35.4358763 C9.31947345,37.0836833 10.3769296,36.8845605 10.3769296,36.8845605 L25.7511397,37.6689464 C26.7818414,37.7484201 27.1981572,37.4362271 27.1227186,36.3127184 L26.3285081,20.9172802 C26.3285081,20.9172802 26.528245,19.8608767 24.8903503,19.4771048 C24.7395608,19.4541223 24.7642976,19.2714907 24.9040345,19.2714907 L27.9914028,19.2714907 L28.6464905,10.1220173 L29.3071922,19.2714907 L32.4859641,19.2714907 C32.6161395,19.2714907 32.6658764,19.4541223 32.5014027,19.4771048 C30.863508,19.8608767 31.0632448,20.9172802 31.0632448,20.9172802 L30.2775431,36.3127184 C30.2004378,37.4362271 30.6064905,37.7484201 31.6303501,37.6689464 L47.0189462,36.8845605 C47.0189462,36.8845605 48.0800865,37.0836833 48.4672795,35.4358763 C48.4923672,35.2899114 48.6687707,35.3128061 48.6687707,35.4515781 L48.6687707,38.746578 L29.581315,38.9600867 C29.2849115,38.9600867 28.9788589,38.7969289 28.9788589,38.3378061" id="path24" fill="#FFFFFF"></path>
                        <path d="M183.532452,28.9421923 L175.454382,28.9421923 L175.454382,17.3581575 L183.532452,17.3581575 L183.532452,28.9421923 Z M183.263153,53.4587706 L175.454382,53.4587706 L175.454382,42.9509638 L183.263153,42.9509638 L183.263153,53.4587706 Z M190.95789,2.99410519 L159.354382,2.99410519 L159.354382,67.7343843 L191.141223,67.7343843 L199.580697,59.2040336 L199.580697,42.9522796 L192.846486,36.0382447 L199.762276,29.2135958 L199.762276,11.5244734 L190.95789,2.99410519 Z" id="path26" fill="#141111"></path>
                    </g>
                </g>
            </g>
        </g>
    </g>
</svg>