<?xml version="1.0" encoding="UTF-8"?>
<svg width="200px" height="200px" viewBox="0 0 200 200" version="1.1" xmlns="http://www.w3.org/2000/svg" xmlns:xlink="http://www.w3.org/1999/xlink">
    <!-- Generator: Sketch 51.3 (57544) - http://www.bohemiancoding.com/sketch -->
    <title>st-catherine</title>
    <desc>Created with Sketch.</desc>
    <defs></defs>
    <g id="st-catherine" stroke="none" stroke-width="1" fill="none" fill-rule="evenodd">
        <g id="st-catherine_BGL" transform="translate(0.000000, 17.000000)">
            <g id="st-catherine">
                <path d="M112.070393,0 L119.461698,0 L119.627329,0.0207453416 C125.900621,0.663850932 132.153209,2.03304348 137.991718,4.46024845 C143.146998,6.61776398 148.198758,9.72956522 151.759834,14.1068323 C152.670807,15.3308075 153.747412,16.4095652 154.761905,17.5298137 C155.548654,18.3596273 156.356108,19.1686957 157.391304,19.6665839 C166.376812,24.1475776 175.362319,28.6285714 184.327122,33.1303106 C187.536232,34.6862112 190.600414,36.615528 193.561077,38.6070807 C195.424431,39.8932919 197.3706,41.3039752 198.902692,42.9843478 C199.440994,43.5859627 199.855072,44.2498137 199.979296,45.058882 L199.979296,46.4695652 C199.855072,47.1126708 199.710145,47.7557764 199.337474,48.3159006 C198.716356,49.2701863 197.701863,50.037764 196.956522,50.9090683 C196.687371,51.1580124 196.811594,51.5521739 196.770186,51.863354 C196.811594,53.2532919 196.708075,54.6224845 196.583851,56.0124224 C196.418219,58.6678261 195.942029,61.4269565 194.741201,63.8541615 C193.416149,66.6340373 192.091097,69.4346584 190.559006,72.1108075 C189.958592,73.2518012 188.819876,74.3513043 187.536232,74.6002484 C185.755694,74.7454658 183.975155,74.8077019 182.173913,74.9114286 C180.455487,76.9029814 178.674948,78.8945342 176.749482,80.6578882 C175.175983,82.1100621 173.478261,83.562236 171.614907,84.6202484 C170.600414,85.1803727 169.440994,85.6782609 168.26087,85.6782609 C169.772257,83.7489441 171.118012,81.7159006 171.966874,79.4131677 C172.939959,76.8407453 173.271222,74.0816149 172.339545,71.4469565 C171.283644,68.3559006 168.799172,66.0946584 166.066253,64.4765217 C165.010352,63.7504348 163.871636,63.6052174 162.670807,63.335528 C156.418219,62.1322981 149.834369,62.4434783 143.664596,63.9786335 C137.57764,65.4722981 131.863354,68.2314286 126.79089,71.903354 C125.15528,73.1273292 123.747412,74.7247205 122.52588,76.3428571 C119.109731,80.9690683 117.204969,86.4250932 116.542443,92.1093168 C115.921325,96.1961491 116.024845,100.241491 116.356108,104.349068 C116.687371,108.041739 117.246377,111.692919 118.033126,115.323354 C118.219462,116.256894 118.654244,117.024472 119.047619,117.854286 C120.434783,120.717143 122.028986,123.621491 123.995859,126.152422 C125.341615,127.85354 126.853002,129.388696 128.964803,130.114783 C130.621118,130.57118 132.52588,130.405217 134.202899,130.156273 C137.57764,129.616894 140.931677,128.496646 144.120083,127.272671 C143.89234,127.749814 143.540373,128.143975 143.20911,128.558882 C141.242236,131.089814 139.275362,133.6 137.287785,136.110186 C136.915114,136.545839 136.977226,137.209689 136.873706,137.769814 C136.521739,140.238509 136.004141,142.790186 135.093168,145.13441 C134.699793,146.109441 134.223602,147.105217 133.478261,147.872795 C132.256729,149.138261 130.931677,150.320745 129.544513,151.399503 C128.426501,152.270807 127.163561,153.183602 125.817805,153.660745 C122.401656,154.946957 118.447205,154.988447 114.886128,154.283106 C112.546584,153.992671 110.414079,152.270807 109.068323,150.424472 C108.178054,149.138261 107.349896,147.437143 107.556936,145.839752 C107.660455,143.163602 107.556936,140.445963 107.515528,137.749068 C107.47412,137.25118 107.536232,136.649565 107.329193,136.193168 C106.480331,134.512795 104.927536,133.247329 103.126294,132.70795 C101.345756,132.189317 99.3581781,132.313789 97.5983437,132.873913 C93.9751553,134.18087 90.6832298,136.504348 88.3022774,139.533168 C87.7846791,140.197019 87.3498965,140.923106 86.8115942,141.586957 C84.2443064,144.82323 81.6770186,148.059503 79.1097308,151.295776 C78.757764,151.731429 78.426501,152.146335 78.1573499,152.623478 C76.4803313,155.839006 74.8654244,159.07528 73.4575569,162.41528 C72.8364389,163.908944 72.2567288,165.423354 71.863354,167 L71.8012422,167 C71.2215321,163.099876 70.8488613,159.137516 70.8488613,155.175155 C70.7660455,149.553168 71.2836439,143.578509 73.1677019,138.246957 C74.057971,136.027205 74.699793,133.765963 75.4865424,131.483975 C76.1904762,129.388696 76.8944099,127.293416 77.5569358,125.198137 C77.7639752,124.51354 78.0745342,123.89118 78.1573499,123.165093 C76.8530021,123.455528 75.6728778,123.994907 74.5134576,124.638012 C72.2153209,125.924224 70.2070393,127.583851 68.3022774,129.430186 C64.9689441,132.770186 62.2153209,136.545839 59.7722567,140.59118 C57.7225673,143.972671 55.9213251,147.478634 54.3064182,151.067578 C54.2236025,151.212795 54.1407867,151.358012 54.0372671,151.482484 C53.5196687,148.47441 53.6853002,145.362609 54.36853,142.396025 C55.6935818,136.545839 57.494824,130.799379 59.5238095,125.177391 C61.3871636,120.074037 63.4782609,115.032919 65.7763975,110.095528 C66.0455487,109.556149 66.3146998,109.01677 66.5010352,108.435901 C66.1076605,108.539627 65.7349896,108.664099 65.3623188,108.830062 C57.2049689,112.439752 49.7101449,117.916522 44.0372671,124.82472 C42.3188406,126.982236 40.5797101,129.264224 39.3374741,131.732919 C38.9648033,132.438261 38.73706,133.185093 38.5921325,133.994161 C38.0745342,130.508944 38.5921325,126.795528 39.5238095,123.434783 C40.4140787,120.219255 41.7598344,117.148944 43.4161491,114.265342 C45.4865424,110.323727 47.7225673,106.465093 50.1242236,102.710186 C52.505176,98.9967702 55.010352,95.3663354 57.8674948,92.0055901 C59.2132505,90.4496894 60.6004141,88.9145342 61.8219462,87.2549068 C62.1532091,86.8607453 62.2360248,86.3836025 62.2981366,85.9064596 C61.884058,85.8649689 61.4699793,85.927205 61.0559006,86.0101863 C53.2298137,87.6075776 45.7971014,91.2587578 39.6480331,96.3413665 C35.5486542,99.7228571 32.0703934,103.809689 29.2339545,108.290683 C29.2753623,107.730559 29.3374741,107.170435 29.4824017,106.631056 C30.4761905,102.129317 32.173913,97.7313043 34.2443064,93.644472 C38.5300207,85.2218634 44.6169772,77.732795 51.6977226,71.5091925 C54.8861284,68.7085714 58.2815735,66.1361491 61.8219462,63.7919255 C62.3809524,63.4185093 62.9192547,63.1488199 63.4161491,62.6924224 C61.242236,61.3647205 58.5921325,61.2817391 56.1283644,61.6344099 C53.8302277,61.9248447 51.6977226,62.733913 49.5445135,63.5429814 C48.0331263,64.1238509 46.5010352,64.7047205 45.0724638,65.4722981 C41.1801242,67.9202484 37.2670807,70.3474534 33.436853,72.8991304 C33.1469979,73.0858385 32.8364389,73.2725466 32.5258799,73.4385093 C33.9751553,71.5921739 35.5693582,69.8495652 37.1014493,68.0654658 C37.9710145,67.0904348 38.8405797,66.073913 39.8136646,65.2026087 C41.6356108,63.584472 43.4575569,61.9455901 45.2795031,60.3274534 C45.5279503,60.0992547 45.7349896,59.8710559 45.9627329,59.6428571 C42.1118012,58.4603727 38.2815735,57.2156522 34.4099379,56.0746584 C30.1449275,60.7631056 25.0931677,64.7877019 19.7515528,68.1484472 C16.6045549,70.0985093 13.3540373,71.841118 9.95859213,73.3140373 C9.46169772,73.5214907 8.98550725,73.8534161 8.44720497,73.9778882 C6.48033126,74.1231056 4.80331263,73.355528 3.2505176,72.2352795 C3.126294,72.1108075 2.71221532,71.8826087 2.96066253,71.6959006 C3.76811594,71.3224845 4.61697723,71.0113043 5.40372671,70.5756522 C10.8281573,67.7335404 15.8799172,63.7919255 20.5175983,59.7880745 C22.505176,58.1284472 24.4720497,56.4273292 26.2939959,54.5809938 C26.9151139,53.9793789 27.2463768,53.1495652 27.0186335,52.2782609 C26.8322981,51.676646 26.4803313,51.0542857 26.0248447,50.6393789 C24.5341615,49.5398758 22.7950311,48.8967702 21.3043478,47.9009938 C17.2049689,45.2663354 13.4575569,42.0922981 10.2277433,38.4826087 C9.9378882,38.1506832 9.66873706,37.7772671 9.44099379,37.4038509 C8.3436853,35.6197516 7.18426501,33.8771429 5.96273292,32.1760248 C5.34161491,31.3047205 4.28571429,30.6823602 3.3126294,30.2674534 C2.13250518,29.7903106 1.07660455,29.0227329 0.186335404,28.1306832 L0.186335404,28.0477019 C3.91304348,28.0891925 7.63975155,27.8609938 11.3664596,27.9024845 C14.1821946,27.9854658 17.0600414,27.3838509 19.7515528,26.6370186 C27.2256729,24.6454658 34.7412008,22.8406211 42.3188406,21.2639752 C46.873706,20.3511801 51.4906832,19.4798758 56.0869565,18.8782609 C58.7784679,18.5463354 61.4492754,18.2559006 64.1614907,18.2559006 C64.5548654,18.2973913 64.8654244,17.7995031 65.1345756,17.5713043 C67.0393375,15.7249689 69.1925466,14.1068323 71.3871636,12.633913 C78.0331263,8.21515528 85.5693582,5.04111801 93.2505176,2.98732919 C99.4202899,1.32770186 105.714286,0.414906832 112.070393,0 Z" id="Shape" fill="#FFE153" fill-rule="nonzero"></path>
                <path d="M122.153209,5.12409938 C126.563147,5.35229814 131.180124,5.91242236 135.362319,7.34385093 C139.875776,9.00347826 144.057971,11.2439752 147.619048,14.5217391 C149.917184,16.637764 151.821946,18.9197516 154.430642,20.7868323 C157.453416,22.9650932 161.221532,24.3965217 164.596273,25.931677 C173.995859,30.2881988 183.064182,35.0803727 191.635611,40.9513043 C192.919255,41.843354 194.513458,42.7146584 195.465839,43.9593789 C196.045549,44.6854658 196.10766,45.5982609 195.755694,46.4280745 C195.05176,48.1084472 193.229814,48.7515528 192.587992,50.5149068 C191.966874,52.4857143 192.173913,54.8714286 191.73913,56.904472 C191.138716,59.6843478 190.393375,62.3812422 189.254658,64.9951553 C188.302277,67.1111801 187.039337,69.2479503 185.093168,70.5963975 C183.561077,71.6544099 181.863354,71.2395031 180.227743,72.1315528 C178.612836,72.9613665 177.867495,75.181118 176.21118,75.7827329 C176.190476,74.0816149 176.169772,72.2560248 175.817805,70.5963975 C175.424431,68.7500621 174.409938,67.0696894 173.167702,65.7004969 C170.68323,63.0036025 167.163561,61.1780124 163.747412,60.0162733 C158.799172,58.356646 153.581781,58.1491925 148.447205,58.7715528 C140.414079,59.7880745 132.691511,63.2110559 126.149068,67.9409938 C119.585921,72.7746584 114.389234,79.9525466 112.670807,88.0017391 C112.111801,90.4704348 111.801242,92.9598758 111.614907,95.4700621 C111.200828,102.481988 111.863354,109.514658 113.78882,116.27764 C114.720497,119.555404 116.004141,122.853913 117.784679,125.758261 C118.985507,127.749814 120.517598,129.513168 122.236025,131.069068 C123.602484,132.272298 125.175983,133.28882 126.935818,133.828199 C128.550725,134.326087 130.269151,134.326087 131.904762,133.869689 C133.975155,133.351056 135.942029,132.272298 138.033126,131.878137 C137.060041,133.703727 135.031056,135.155901 133.706004,136.670311 C132.52588,138.101739 132.52588,139.844348 132.360248,141.607702 C132.070393,144.159379 130.393375,146.586584 128.530021,148.287702 C125.879917,150.694161 122.277433,152.187826 118.654244,151.793665 C114.824017,151.358012 111.552795,148.578137 110.207039,145.009938 C109.026915,141.628447 109.585921,137.541615 108.364389,134.201615 C107.743271,132.541988 106.604555,131.380248 104.94824,130.778634 C101.925466,129.67913 98.5093168,129.533913 95.4244306,130.446708 C92.2981366,131.359503 89.6480331,133.205839 87.2670807,135.384099 C84.6376812,137.728323 82.4637681,140.362981 79.9792961,142.810932 C78.7163561,144.097143 77.3291925,145.404099 75.7971014,146.358385 C76.0662526,140.383727 77.2877847,134.409068 79.5031056,128.849317 C80.7246377,125.71677 82.2774327,122.729441 83.9958592,119.845839 C81.1801242,119.866584 78.3436853,120.55118 75.6935818,121.505466 C71.8426501,122.895404 68.3643892,125.09441 64.6169772,126.629565 C66.1697723,118.497391 69.5445135,110.717888 74.389234,103.996398 C74.6376812,103.685217 74.8447205,103.353292 75.010352,103.000621 C72.173913,103.208075 69.3995859,103.747453 66.6873706,104.598012 C62.194617,106.008696 58.2608696,108.103975 53.9337474,109.867329 C53.436853,110.095528 52.9192547,110.282236 52.3809524,110.427453 C53.1469979,108.352919 54.1200828,106.340621 55.1138716,104.390559 C59.0269151,96.8185093 64.2650104,90.3667081 69.3581781,83.624472 C69.7515528,83.0850932 70.1863354,82.649441 70.4554865,82.0270807 C62.9399586,82.587205 55.5279503,83.9356522 48.2608696,85.927205 C47.7018634,86.0931677 47.1428571,86.2383851 46.563147,86.3628571 C48.5921325,83.0850932 51.0144928,80.035528 53.6438923,77.2141615 C59.6687371,70.7623602 66.8944099,65.7627329 74.7826087,61.9040994 C75.0517598,61.7796273 75.320911,61.6551553 75.5900621,61.5514286 C75.3623188,61.4684472 75.1552795,61.3647205 74.9275362,61.3232298 C69.3167702,60.12 63.6645963,58.5640994 58.0124224,57.6098137 C57.6604555,57.5890683 57.7639752,57.1949068 57.8881988,56.9874534 C58.2815735,56.4480745 58.9855072,56.0954037 59.5652174,55.7634783 C60.8074534,55.1203727 61.9047619,54.2698137 63.0848861,53.4814907 C66.0041408,51.4691925 69.0890269,49.5191304 71.7391304,47.1541615 C61.0351967,46.5732919 50.1656315,45.5152795 39.6687371,43.3162733 C31.5320911,41.5944099 23.6853002,39.167205 16.2318841,35.4537888 C15.1966874,34.8936646 13.8923395,33.9808696 13.4782609,32.8398758 C13.6853002,32.6324224 14.0993789,32.5909317 14.389234,32.5079503 C20.1449275,30.8898137 25.9213251,30.2052174 31.6977226,28.6493168 C36.8530021,27.2801242 41.552795,25.3300621 46.8115942,24.3135404 C50.1449275,23.6704348 53.5610766,23.4214907 56.9565217,23.6289441 C59.0062112,23.7326708 60.8695652,24.4587578 62.9606625,24.5832298 C63.8509317,24.6039752 64.679089,24.6247205 65.4451346,24.0853416 C66.6873706,23.1932919 67.6190476,21.803354 68.73706,20.7453416 C73.4989648,16.1813665 79.378882,12.9243478 85.5279503,10.6423602 C93.0848861,7.82099379 101.304348,6.30658385 109.31677,5.49751553 C113.561077,5.10335404 117.888199,4.91664596 122.153209,5.12409938 Z" id="Shape" fill="#4F2682" fill-rule="nonzero"></path>
                <path d="M132.070393,14.7706832 C138.012422,15.8701863 143.540373,18.7330435 148.322981,22.4049689 C146.438923,23.7949068 144.306418,24.8944099 142.049689,25.5582609 C139.358178,26.3465839 136.501035,26.4088199 133.768116,25.807205 C129.834369,24.9981366 126.024845,22.9443478 122.360248,21.3884472 C119.648033,20.2474534 116.873706,19.2931677 113.89234,19.3554037 C111.221532,19.4176398 108.923395,20.2681988 106.335404,20.6831056 C105.093168,20.8698137 103.768116,20.828323 102.505176,20.766087 C103.043478,20.4341615 103.623188,20.2059627 104.202899,19.9570186 C107.57764,18.4426087 110.952381,17.0111801 114.513458,15.973913 C120.186335,14.3142857 126.21118,13.6504348 132.070393,14.7706832 Z" id="Shape" fill="#FFE153" fill-rule="nonzero"></path>
                <path d="M133.436853,17.1356522 C137.267081,18.0691925 140.973085,19.8532919 143.975155,22.4257143 C142.587992,23.0688199 141.055901,23.4007453 139.52381,23.5667081 C135.320911,23.9608696 131.26294,22.8821118 127.349896,21.4921739 C124.016563,20.3304348 120.766046,18.8160248 117.391304,17.7580124 C117.267081,17.7372671 117.204969,17.6542857 117.225673,17.5090683 C118.674948,16.2436025 120.57971,16.4925466 122.360248,16.3888199 C126.066253,16.0568944 129.813665,16.2436025 133.436853,17.1356522 Z" id="Shape" fill="#4F2682" fill-rule="nonzero"></path>
                <path d="M149.668737,39.0219876 C158.571429,39.6443478 167.763975,41.1172671 176.169772,44.208323 C177.47412,44.6647205 179.026915,45.1626087 180,46.1791304 C180.641822,46.8429814 180.869565,47.672795 180.828157,48.5855901 C178.095238,48.7100621 175.962733,47.3408696 173.478261,46.5318012 C166.563147,44.3742857 159.358178,43.0050932 152.173913,42.1130435 C149.006211,41.7396273 145.838509,41.4284472 142.650104,41.2832298 C139.026915,41.0135404 135.507246,41.0965217 131.884058,41.0757764 C126.645963,41.1587578 121.428571,41.6151553 116.252588,42.4864596 C115.383023,42.631677 114.554865,42.8598758 113.6853,42.8806211 C117.536232,41.6151553 121.449275,40.6193789 125.465839,39.9970186 C133.416149,38.7315528 141.635611,38.503354 149.668737,39.0219876 Z" id="Shape" fill="#FFE153" fill-rule="nonzero"></path>
                <path d="M25.4451346,44.6024845 C26.0869565,44.7062112 26.7080745,44.8929193 27.3291925,45.058882 C33.4161491,46.6562733 39.6066253,47.8802484 45.8592133,48.6893168 C50.5590062,49.2701863 55.300207,49.7058385 60.0414079,49.7058385 C59.8550725,50.0792547 59.5445135,50.2037267 59.2132505,50.4111801 C57.5362319,51.4691925 55.9213251,52.3819876 54.4513458,53.7304348 C53.4575569,54.6017391 52.3809524,55.7012422 51.1594203,56.2406211 C50.2898551,56.6140373 49.4409938,56.5103106 48.5300207,56.3236025 C46.7287785,55.9086957 44.9068323,55.0581366 43.1469979,54.4357764 C38.73706,52.9421118 34.4927536,50.9090683 30.5383023,48.4196273 C28.7991718,47.2578882 26.9772257,46.0546584 25.4451346,44.6024845 Z" id="Shape" fill="#4F2682" fill-rule="nonzero"></path>
                <path d="M151.966874,49.2286957 C157.080745,49.311677 162.194617,49.8718012 167.204969,50.888323 C168.964803,51.2617391 170.703934,51.7181366 172.484472,52.0915528 C173.6853,52.3819876 174.968944,52.7346584 175.817805,53.7096894 C176.273292,54.2075776 176.418219,54.7884472 176.501035,55.4522981 C175.63147,55.5145342 174.803313,55.5560248 173.954451,55.3693168 C172.236025,54.9959006 170.68323,54.228323 168.964803,53.7511801 C166.418219,53.0665839 163.809524,52.589441 161.200828,52.2367702 C156.438923,51.6351553 151.614907,51.4069565 146.811594,51.6559006 C141.035197,51.8840994 135.279503,52.6101863 129.627329,53.7511801 C124.575569,54.8091925 119.52381,56.1991304 114.741201,58.1491925 C114.140787,58.3773913 113.706004,58.6885714 113.064182,58.7093168 C113.706004,58.1491925 114.430642,57.7550311 115.134576,57.2986335 C118.488613,55.2448447 122.256729,53.7511801 125.983437,52.589441 C133.167702,50.4111801 140.724638,49.3946584 148.219462,49.249441 C149.461698,49.1457143 150.703934,49.1457143 151.966874,49.2286957 Z" id="Shape" fill="#FFE153" fill-rule="nonzero"></path>
            </g>
        </g>
    </g>
</svg>