<?xml version="1.0" encoding="UTF-8"?>
<svg width="200px" height="200px" viewBox="0 0 200 200" version="1.1" xmlns="http://www.w3.org/2000/svg" xmlns:xlink="http://www.w3.org/1999/xlink">
    <!-- Generator: Sketch 51.3 (57544) - http://www.bohemiancoding.com/sketch -->
    <title>st-josephs-brkln</title>
    <desc>Created with Sketch.</desc>
    <defs></defs>
    <g id="st-josephs-brkln" stroke="none" stroke-width="1" fill="none" fill-rule="evenodd">
        <g id="st-josephs-brkln_BGL">
            <g id="st-josephs-brkln" transform="translate(0.000000, 28.000000)">
                <path d="M42.7381974,0.291845494 C44.223176,1.0472103 45.5107296,2.21459227 47.0472103,2.84978541 C50.472103,3.15879828 52.1630901,7.93133047 54.111588,10.3004292 C54.806867,11.6566524 56.1545064,10.4120172 57.1759657,10.223176 C61.1416309,8.61802575 64.5236052,9.8111588 68.5751073,9.77682403 C71.1502146,11.1158798 73.1158798,11.5879828 76.0257511,11.751073 C76.0686695,12.6094421 76.111588,13.4678112 76.1630901,14.3261803 L74.1802575,14.1716738 C72.9699571,13.304721 71.8111588,12.360515 70.6008584,11.4763948 C68.3175966,11.7596567 66.3862661,11.0042918 64.2145923,10.5407725 C62.5150215,10.1373391 60.8755365,10.8927039 59.3733906,11.5879828 C58.1716738,14.2060086 55.6137339,14.3948498 53.2961373,16.2746781 C53.3905579,16.9527897 53.4849785,17.639485 53.5793991,18.3261803 C52.695279,19.3304721 51.9828326,20.360515 51.3390558,21.5364807 C51.9570815,22.1030043 52.5751073,22.6781116 53.193133,23.2532189 C52.4291845,23.9055794 51.6566524,24.5579399 50.8841202,25.2017167 C50.9012876,25.9570815 50.9184549,26.72103 50.9356223,27.4763948 C48.5579399,30.248927 46.944206,30.9012876 43.3304721,31.3819742 C43.776824,31.8111588 44.223176,32.2317597 44.6695279,32.6609442 C42.9184549,34.3862661 39.5965665,33.8369099 38.2060086,36.1373391 C39.2532189,36.3175966 40.3004292,36.4978541 41.3476395,36.6695279 C41.4935622,37.1072961 41.6309013,37.5364807 41.7682403,37.9656652 C40.0772532,38.2060086 38.5579399,38.583691 37.0300429,39.3476395 C37.1845494,39.9828326 37.3390558,40.6094421 37.4935622,41.2446352 C37.0815451,41.5193133 36.6695279,41.7939914 36.2575107,42.0686695 C36.4806867,42.6781116 36.7038627,43.2961373 36.9270386,43.9055794 C35.3390558,45.2274678 33.9313305,45.9742489 31.9656652,46.583691 C32.0772532,47.639485 32.1888412,48.7038627 32.3004292,49.7596567 C35.8283262,50.8927039 39.2532189,52.72103 42.8841202,53.4420601 C43.3304721,52.4206009 43.7424893,51.3304721 44.4377682,50.4463519 C46.0257511,49.1759657 47.7167382,49.3218884 49.6309013,49.2017167 L49.0472103,47.5364807 C48.3004292,47.5879828 47.5536481,47.6223176 46.806867,47.6480687 C49.0901288,47.1244635 49.3133047,47.193133 51.3133047,48.1802575 C50.8927039,49.3819742 51.1072961,50.2317597 51.3991416,51.4678112 C49.0729614,50.7725322 47.1072961,50.0429185 45.0386266,51.8540773 C44.6266094,52.6437768 44.2403433,53.4506438 43.8712446,54.2746781 C44.944206,54.9356223 46.0085837,55.4334764 47.2017167,55.8283262 C47.8969957,54.5321888 48.1030043,53.3390558 49.6995708,52.8927039 C51.7854077,52.9356223 53.7339056,55.0472103 55.3218884,56.248927 C58.5236052,58.7811159 61.776824,62.4377682 61.7167382,66.7639485 L60.0944206,66.3347639 C59.1416309,66.0429185 58.3519313,66.583691 57.7424893,67.9484979 C58.4120172,68.4377682 59.27897,68.6695279 60.3519313,68.6351931 C60.5236052,69.7253219 61.0300429,70.6351931 60.3519313,71.6738197 L58.5493562,71.1072961 C58.5064378,74.0515021 58.4978541,76.9871245 58.5579399,79.9313305 C60.806867,79.9914163 63.0472103,79.9742489 65.2961373,79.751073 C66.0343348,80.5665236 66.8841202,81.304721 67.5450644,82.1802575 C67.776824,86.3004292 67.6566524,90.4549356 67.5879828,94.5751073 C64.5751073,94.5407725 61.5622318,94.5150215 58.5579399,94.5922747 C58.4892704,97.9828326 58.5407725,101.381974 58.5493562,104.772532 C59.4077253,104.592275 60.2746781,104.412017 61.1330472,104.23176 C61.4678112,101.356223 61.5107296,98.5150215 61.3733906,95.6223176 C66.7982833,95.6137339 72.1974249,95.4077253 77.6223176,95.6309013 C77.5107296,99.6137339 77.5107296,103.639485 77.6652361,107.622318 C78.4978541,106.274678 78.583691,104.815451 78.7811159,103.296137 C79.7424893,97.9742489 80.806867,92.5493562 81.2703863,87.167382 C82.0515021,86.7381974 82.8669528,86.4978541 83.7253219,86.4463519 C83.6051502,90.5236052 82.4206009,94.4120172 82.6437768,98.5407725 C82.4806867,97.8197425 82.3175966,97.0901288 82.1545064,96.360515 C82.0171674,100.935622 81.4678112,105.93133 79.3905579,110.060086 C78.8497854,112.643777 79.2703863,115.562232 79.0987124,118.223176 C83.7339056,118.180258 88.3776824,118.171674 93.0128755,118.171674 C92.944206,115.639485 93.2188841,112.969957 92.8755365,110.472103 C90.8755365,108.291845 91.1416309,106.214592 91.4420601,103.459227 C94.6008584,103.416309 97.7596567,103.467811 100.918455,103.424893 C101.244635,106.283262 101.476395,108.497854 99.4506438,110.781116 C99.416309,113.261803 99.4077253,115.733906 99.5193133,118.206009 C104.901288,118.16309 110.283262,118.214592 115.665236,118.171674 C115.690987,115.699571 115.83691,113.201717 115.690987,110.738197 C112.635193,106.472103 113.072961,102 112.017167,97.0901288 C111.347639,93.8197425 110.866953,90.583691 110.540773,87.2532189 C105.158798,87.1416309 102,84.0429185 100.463519,79.0901288 C97.7253219,82.0858369 94.9012876,84.6266094 90.8583691,85.6480687 C83.9227468,87.193133 76.0085837,85.2188841 69.416309,82.8927039 C68.72103,82.3948498 68.0515021,81.8540773 67.4334764,81.2618026 C69.5364807,80.4206009 70.2575107,82.0171674 72.0343348,82.6523605 C74.9527897,83.5793991 78.111588,83.7939914 81.1158798,84.4377682 C86.3347639,85.4678112 91.7596567,84.6094421 96.2403433,81.6909871 C98.0085837,80.6695279 98.8154506,78.9785408 99.8025751,77.27897 C97.8369099,73.5965665 94.3433476,71.9399142 91.8369099,68.6609442 C90.7811159,67.5793991 89.9828326,65.5536481 88.3862661,65.3476395 C87.5107296,66.0257511 86.832618,66.8927039 85.888412,67.4935622 C83.0386266,66.7124464 80.0686695,64.8841202 78.1201717,62.6523605 C76.1974249,61.0128755 76.4034335,57.5622318 76.8841202,55.3390558 C78.5579399,52.583691 82.4291845,51.193133 85.4248927,50.5064378 C96.7467811,48.6695279 109.648069,47.9227468 120.626609,51.7682403 C122.72103,52.3347639 124.094421,54.6609442 124.772532,56.5751073 C125.330472,61.6309013 121.184549,66.7896996 115.862661,66.2918455 C115.330472,65.6223176 114.7897,64.9527897 114.248927,64.2832618 C110.583691,67.6309013 107.974249,71.8369099 104.180258,75.0214592 C103.098712,75.9914163 102.171674,77.0901288 101.244635,78.2060086 C102.240343,81.3133047 104.300429,85.4506438 107.991416,85.7339056 C109.064378,85.9570815 110.145923,86.1201717 111.227468,86.3004292 C111.845494,87.3304721 112.472103,88.3519313 113.098712,89.3733906 C113.802575,93.0472103 114.351931,96.7467811 115.090129,100.412017 C115.751073,103.407725 115.587983,106.291845 117.587983,108.746781 C118.309013,107.819742 119.133047,106.875536 119.613734,105.811159 C120.618026,99.9570815 119.236052,93.6051502 120.23176,87.7253219 L121.828326,87.7081545 C122.652361,89.3390558 122.111588,91.7081545 122.034335,93.4849785 C121.553648,97.5364807 122.034335,101.562232 121.716738,105.60515 C121.60515,107.081545 120.515021,108.386266 120.540773,109.845494 C120.592275,112.600858 120.600858,115.330472 120.412017,118.077253 L120.935622,118.085837 C126.025751,118.137339 131.124464,118.103004 136.214592,118.094421 C136.120172,115.098712 136.32618,112.077253 136.085837,109.098712 C135.433476,107.587983 134.48927,106.480687 134.55794,104.729614 C134.532189,101.064378 134.575107,97.3991416 134.532189,93.7339056 C136.88412,93.7424893 138.995708,93.4334764 140.772532,95.304721 C142.772532,98.3347639 141.888412,102.935622 142.060086,106.437768 C142.248927,110.23176 141.622318,114.566524 143.004292,118.128755 C147.502146,118.060086 152.008584,118.223176 156.497854,118.008584 C156.094421,114.806867 157.167382,110.832618 155.562232,107.991416 C153.184549,103.407725 155.708155,96.7553648 153.356223,92.2145923 C152.171674,90.0343348 150.042918,89.8454936 148.197425,88.5493562 L148.154506,87.27897 C150.540773,86.1545064 152.678112,85.0214592 153.716738,82.4120172 C156.06867,76.9957082 155.965665,70.2918455 154.025751,64.7553648 C155.356223,64.9785408 156.901288,64.1201717 157.347639,65.8111588 C157.347639,62.9184549 157.579399,60.1802575 158.95279,57.5622318 C156.592275,58.1630901 154.403433,58.2575107 152.515021,59.9828326 C151.888412,58.6351931 151.44206,57.6566524 152.206009,56.223176 C154.532189,56.806867 155.04721,56.3433476 156.798283,55.1244635 C156.48927,54.3433476 156.137339,53.5793991 155.742489,52.8412017 C154.042918,50.9957082 150.23176,52.9785408 148.351931,51.6824034 C150.257511,51.0815451 152.180258,50.7553648 154.171674,51.0300429 C156.248927,51.5193133 157.27897,53.1072961 158.652361,54.5665236 C159.60515,53.9742489 160.463519,53.3133047 161.527897,52.9871245 C164.961373,52.0686695 167.802575,49.9399142 171.201717,48.8927039 C171.579399,46.8669528 171.347639,45.0386266 170.901288,43.055794 C171.390558,42.4635193 171.879828,41.8798283 172.369099,41.2875536 C170.16309,38.3261803 167.055794,37.9141631 164.034335,36.0686695 C165.184549,34.4978541 168.257511,35.7596567 169.93133,35.8025751 C167.759657,32.9871245 164.214592,33.9742489 161.081545,33.6824034 C160.987124,30.8841202 156.48927,32.3948498 155.090129,30.223176 C154.145923,28.3948498 153.630901,26.472103 152.334764,24.8240343 C153.030043,24.5751073 153.725322,24.3261803 154.420601,24.0686695 C154.549356,20.9957082 153.630901,18.8583691 151.991416,16.3519313 C150.32618,14.9785408 148.145923,14.9957082 146.849785,13.0214592 C144.197425,13.2274678 141.648069,13.2961373 138.995708,13.1845494 C136.575107,14.3261803 135.184549,16.1459227 132.240343,15.6566524 C130.909871,16.8154506 129.802575,17.9399142 127.965665,18.248927 C125.939914,18.6008584 125.124464,20.3175966 123.373391,21.1072961 C119.974249,22.4463519 117.244635,24.8497854 113.708155,25.9570815 C111.158798,26.9184549 109.313305,24.8841202 106.48927,25.1330472 C107.373391,24.2403433 108.463519,23.9828326 109.622318,23.6137339 C110.515021,24.2832618 111.150215,25.1502146 112.403433,24.7639485 C114.660944,24.2575107 116.772532,22.8841202 118.806867,21.8197425 C120.858369,20.5665236 122.909871,19.7682403 123.828326,17.3562232 C124.566524,17.4248927 125.313305,17.4849785 126.060086,17.5536481 C126.927039,16.5579399 127.802575,15.5708155 128.703863,14.6094421 C129.390558,14.832618 130.085837,15.0643777 130.772532,15.2961373 C130.360515,14.3519313 129.957082,13.4077253 129.553648,12.472103 L131.141631,12.6437768 C132.7897,14.1545064 133.11588,13.5793991 134.454936,12.2832618 C134.772532,12.944206 135.098712,13.6137339 135.424893,14.2832618 C137.596567,12.7296137 140.025751,11.7939914 142.506438,10.8669528 C145.030043,12.6781116 147.536481,11.9656652 150.446352,12.5064378 C152.128755,9.68240343 154.532189,7.87982833 156.918455,5.63948498 C160.094421,5.84549356 162.145923,2.93562232 165.339056,3.8111588 C168.841202,4.7639485 171.708155,2.75536481 175.004292,5.20171674 L174.515021,7.03862661 C176.154506,7.35622318 177.622318,6.92703863 178.686695,8.46351931 C182.412017,13.6566524 180.712446,19.9055794 180.23176,25.751073 C179.133047,30.4034335 176.437768,34.0257511 173.038627,37.2875536 L171.193133,37.6137339 C170.987124,39.167382 173.11588,40.3776824 173.67382,41.8111588 C173.793991,43.3218884 173.665236,44.7982833 173.579399,46.3004292 C173.433476,47.2961373 173.287554,48.2832618 173.133047,49.2703863 C172.32618,49.6480687 171.519313,50.0257511 170.703863,50.3862661 C169.030043,51.1072961 167.321888,51.7339056 165.587983,52.2918455 C165.167382,52.806867 164.746781,53.3133047 164.334764,53.8197425 C163.459227,53.7596567 162.592275,53.7081545 161.716738,53.6566524 C160.214592,54.6094421 158.575107,55.2532189 156.935622,55.9313305 L157.502146,56.4120172 C159.313305,56.0772532 161.381974,55.7081545 162.892704,54.6180258 C165.93133,54.6351931 168.618026,53.5536481 171.665236,53.0815451 C174.188841,52.695279 176.72103,52.3776824 179.253219,52.0257511 C179.93133,52.2918455 180.609442,52.5665236 181.287554,52.8497854 C174.480687,53.8712446 167.570815,55.0042918 161.004292,57.1072961 C161.296137,59.0386266 160.403433,60.7038627 160.06867,62.6609442 C159.27897,67.6137339 159.261803,72.7553648 160.240343,77.6824034 C161.012876,81.5193133 163.244635,85.5193133 166.944206,87.1759657 C169.896996,88.5751073 172.88412,89.8798283 176.034335,90.7811159 C179.090129,91.7253219 181.60515,93.6051502 182.188841,96.9270386 C182.609442,99.9313305 182.944206,104.515021 180.034335,106.437768 C177.467811,107.854077 174.815451,106.317597 173.922747,103.742489 C173.407725,101.381974 173.527897,98.7553648 173.484979,96.3347639 C169.124464,96.2575107 164.746781,96.1716738 160.386266,96.2832618 C160.360515,101.433476 160.317597,106.592275 160.386266,111.742489 C160.652361,114.017167 164.171674,116.120172 166.197425,116.583691 C165.862661,116.695279 165.536481,116.806867 165.201717,116.918455 C167.201717,117.150215 168.772532,118.274678 170.798283,118.214592 C175.098712,118.248927 179.399142,118.214592 183.699571,118.206009 C187.965665,118.145923 191.287554,115.236052 193.253219,111.648069 C196.480687,105.802575 196.575107,98.3090129 195.914163,91.8283262 C195.27897,86.9270386 193.158798,82.4978541 188.695279,80.0343348 C184.274678,77.2703863 178.540773,76.695279 174.798283,73.2532189 C172.55794,70.4978541 172.987124,67.4506438 174.094421,64.2918455 C174.875536,63.6566524 175.656652,63.0214592 176.429185,62.3690987 C178.463519,62.2660944 179.896996,62.583691 181.072961,64.360515 C182.051502,66.3433476 182.197425,68.8927039 182.223176,71.0815451 C186.351931,71.0815451 190.48927,71.1244635 194.618026,71.0729614 C194.515021,66.3519313 194.618026,61.6309013 194.566524,56.9184549 C192.978541,55.4506438 191.27897,54.1802575 189.519313,52.9356223 C190.695279,52.7124464 191.871245,52.4806867 193.038627,52.223176 C194.454936,53.2446352 195.76824,54.3776824 197.012876,55.5965665 C196.995708,61.5536481 196.978541,67.5107296 197.012876,73.4678112 C191.862661,73.5450644 186.712446,73.3991416 181.553648,73.5450644 C180.695279,73.304721 179.957082,72.72103 179.347639,71.8111588 C179.845494,69.5364807 179.871245,65.9570815 177.613734,64.5321888 C174.746781,66.3776824 175.038627,72.4806867 178.781116,73.0300429 C185.098712,75.7424893 191.76824,77.27897 195.742489,83.2360515 C199.030043,89.5622318 199.081545,97.8197425 198.06867,104.72103 C197.373391,110.060086 195.11588,114.875536 190.7897,118.206009 C193.356223,118.257511 195.93133,118.266094 198.497854,118.266094 C198.652361,126.686695 198.652361,135.150215 198.549356,143.579399 C132.841202,143.562232 67.1330472,143.553648 1.4248927,143.579399 C1.3304721,140.738197 1.34763948,137.896996 1.37339056,135.055794 C2.15450644,125.871245 1.45064378,116.532189 1.76824034,107.321888 C2.31759657,105.44206 3.79399142,104.343348 3.54506438,102.154506 C3.53648069,90.4120172 3.53648069,78.6866953 3.54506438,66.944206 C3.7167382,64.832618 2.52360515,63.5708155 1.7167382,61.7854077 C1.39055794,57.3819742 1.68240343,52.9356223 1.38197425,48.5236052 C2.42918455,48.4806867 3.48497854,48.4377682 4.53218884,48.3948498 C5.03862661,48.832618 5.54506438,49.2703863 6.05150215,49.7081545 C7.51072961,49.8540773 8.97854077,50.0171674 10.4377682,50.2317597 C8.16309013,50.8841202 5.93133047,50.7467811 3.60515021,50.806867 C4.02575107,54.2145923 3.08154506,58.4463519 4.17167382,61.5965665 C5.48497854,63.3648069 5.84549356,64.7553648 5.82832618,66.9356223 C5.8111588,77.8197425 5.84549356,88.6866953 5.82832618,99.5708155 C5.64806867,102.712446 6.24892704,105.484979 3.86266094,107.965665 C3.80257511,111.330472 3.87124464,114.703863 3.78540773,118.077253 C11.9484979,118.111588 20.1201717,118.197425 28.2832618,118.051502 C32.0858369,118.034335 35.3991416,115.854077 37.0472103,112.454936 C39.0042918,108.309013 39.4077253,103.227468 39.3562232,98.7124464 C39.2703863,95.1330472 38.7553648,91.2618026 37.167382,88.0171674 C35.8712446,85.9484979 33.8540773,84.248927 31.304721,84.2317597 C31.304721,83.5450644 31.2961373,82.8583691 31.2875536,82.1716738 C34.3175966,80.7811159 37.055794,78.0171674 37.7939914,74.695279 C39.1587983,69.2103004 38.1974249,64.2060086 38.1373391,58.806867 C39.3648069,59.2274678 40.5751073,59.5708155 41.8454936,59.7939914 C41.9399142,62.5407725 41.2961373,65.7682403 42.6866953,68.1888412 C43.3733906,69.4334764 43.4592275,70.695279 43.4592275,72.0858369 C43.4678112,82.9270386 43.4763948,93.8111588 43.4248927,104.643777 C43.4849785,106.635193 42.3004292,108.017167 41.8712446,109.83691 C41.6995708,112.575107 41.8369099,115.321888 41.7854077,118.051502 C52.8669528,118.094421 63.9914163,118.274678 75.0643777,117.991416 C74.9270386,111.236052 75.2360515,104.454936 74.9098712,97.7081545 C71.2961373,97.7081545 67.6824034,97.751073 64.0772532,97.6995708 C63.6909871,100.72103 64.3261803,104.334764 61.8283262,106.600858 C60.0858369,107.244635 58.0944206,107.253219 56.2746781,107.622318 C55.9742489,102.497854 56.2060086,97.3476395 56.111588,92.2060086 C59.2188841,92.1888412 62.3261803,92.1888412 65.4334764,92.1888412 C65.4849785,88.9871245 65.4248927,85.7854077 65.5107296,82.5751073 C62.4806867,81.9141631 59.2017167,82.4549356 56.1030043,82.1630901 C56.2746781,77.4334764 55.7854077,72.6094421 56.4377682,67.9227468 C55.2103004,66.0515021 55.3819742,64.0257511 54.7639485,61.9484979 C54.0429185,61.6909871 53.3218884,61.4334764 52.6008584,61.167382 C49.7253219,58.6609442 45.5364807,57.5536481 42.0085837,56.3175966 L41.6223176,58.7553648 C40.0171674,58.3519313 38.3948498,58.0343348 36.7982833,57.639485 L36.7381974,55.9141631 C38.1373391,56.2746781 39.527897,56.583691 40.944206,56.8583691 C40.0858369,56.1287554 39.1587983,55.4592275 38.1545064,54.8497854 C39.8283262,55.1158798 41.4763948,55.4935622 43.1416309,55.8369099 C42.5493562,54.2060086 40.111588,53.6223176 38.6437768,53.0815451 C34.8583691,52.0772532 31.193133,50.7553648 27.4678112,49.5364807 C26.3261803,50.248927 25.4506438,50.8755365 24.0085837,50.6695279 C20.695279,50.0257511 17.4506438,49.6223176 14.3948498,48.0944206 C15.776824,48.2060086 17.167382,48.3433476 18.5493562,48.5064378 L18.5751073,47.3218884 C13.0901288,46.0429185 7.86266094,44.6866953 2.42918455,43.2532189 C10.0429185,43.4077253 17.5364807,47.0214592 25.0214592,47.9227468 C27.0729614,48.4549356 28.7811159,49.4420601 30.9871245,49.0386266 C30.5493562,47.9742489 29.9742489,47.0214592 29.3218884,46.0858369 C30.9871245,45.4678112 34.4978541,45.5021459 35.0214592,43.4849785 L32.7553648,43.527897 C33.1244635,42.3948498 33.3562232,41.0987124 34.0171674,40.1030043 C35.4334764,38.9270386 37.2446352,38.3519313 38.7725322,37.304721 C37.6480687,37.2961373 36.5321888,37.2961373 35.4077253,37.2961373 C36.4120172,35.9656652 37.6223176,34.8240343 38.695279,33.5450644 C36.806867,33.2875536 34.8927039,33.2017167 33.0214592,32.9098712 C31.6824034,32.6523605 31.3819742,32.1373391 31.1587983,30.8583691 C29.8798283,30.4206009 28.8669528,30.6437768 28.3433476,29.1587983 C27.4248927,26.8755365 25.5708155,25.7424893 23.8025751,24.1545064 C22.5493562,21.0901288 22.6008584,19.6137339 23.4763948,16.3776824 C22.3948498,16.9012876 21.1244635,17.1759657 21.0042918,18.6094421 C20.5493562,20.3690987 22.3948498,23.2274678 21.3905579,24.72103 C21.055794,21.4935622 20.8841202,18.4463519 20.9785408,15.2017167 C22.1030043,16.360515 22.6523605,15.5021459 23.6309013,14.6866953 C22.3776824,12.9270386 22.8154506,9.75965665 23.3648069,7.8111588 C25.0987124,5.93133047 26.944206,4.15450644 28.6266094,2.19742489 C32.111588,1.75965665 34.9356223,1.21888412 38.360515,2.41201717 L37.7854077,0.0944206009 C39.7596567,0.686695279 40.8154506,0.978540773 42.7381974,0.291845494 Z" id="Shape" fill="#0D4A7E" fill-rule="nonzero"></path>
                <path d="M30.0429185,3.35622318 C33.0386266,2.98712446 36.1201717,2.64377682 38.944206,3.89699571 C40.5751073,4.52360515 40.944206,3.9055794 41.9656652,2.73819742 C43.167382,3.47639485 44.3261803,4.26609442 45.4506438,5.10729614 C46.0515021,4.89270386 46.6523605,4.6695279 47.2532189,4.45493562 C49.7081545,6.83261803 51.7167382,9.13304721 53.6995708,11.9141631 C53.2360515,14.9699571 51.2532189,16.2832618 49.416309,18.4635193 C48.583691,19.4592275 48.8154506,20.1373391 50.111588,20.4892704 C49.5708155,23.1072961 48.8154506,25.6738197 48.2746781,28.2832618 C44.4892704,30.3690987 40.5064378,29.416309 37.1158798,32.1974249 C36.0772532,32.3261803 35.0386266,32.4549356 33.9914163,32.5751073 C34.0257511,31.8283262 34.0600858,31.0815451 34.0944206,30.3347639 C29.8540773,29.2446352 26.5665236,26.3519313 24.5150215,22.5236052 C24.7467811,21.2274678 24.6266094,20.0858369 24.4291845,18.8154506 C24.5493562,17.9227468 25.3304721,17.0643777 25.7339056,16.2575107 C25.4248927,15.6566524 25.1072961,15.055794 24.7982833,14.4549356 C25.6223176,12.2575107 25.5879828,10.1459227 25.4678112,7.84549356 C27.3304721,6.62660944 28.4978541,4.87553648 30.0429185,3.35622318 Z" id="Shape" fill="#B0B6BC" fill-rule="nonzero"></path>
                <polygon id="Shape" fill="#0D4A7E" fill-rule="nonzero" points="155.579399 3.60515021 156.128755 3.60515021 156.120172 4.15450644 155.570815 4.15450644"></polygon>
                <path d="M162.051502,5.20171674 C162.652361,5.57939914 163.261803,5.95708155 163.871245,6.33476395 C166.729614,5.31330472 169.313305,4.8583691 172.369099,5.07296137 C172.197425,5.89699571 172.017167,6.72103004 171.845494,7.54506438 C173.536481,7.84549356 175.227468,8.11158798 176.927039,8.30901288 C177.708155,9.67381974 179.253219,11.2360515 179.218884,12.8583691 C179.133047,15.2360515 180.180258,17.3991416 180.137339,19.7424893 C178.824034,23.9656652 179.587983,27.9484979 176.386266,31.27897 C174.566524,32.9871245 174.23176,35.167382 171.828326,36.0343348 C170.351931,33.9914163 169.304721,33.0643777 166.892704,32.223176 C166.969957,31.7253219 167.04721,31.2274678 167.133047,30.7296137 C164.437768,30.4978541 161.742489,30.4806867 159.038627,30.4806867 C158.16309,29.0643777 156.660944,28 157.562232,26.1888412 C158.206009,23.6480687 159.381974,22.806867 161.502146,21.4935622 C161.04721,22.9613734 160.429185,24.3433476 159.716738,25.6995708 C160.643777,25.3905579 161.570815,25.0815451 162.48927,24.7725322 C162.137339,25.7854077 161.793991,26.7982833 161.459227,27.8111588 C163.021459,27.3648069 164.506438,26.72103 166.051502,26.223176 C167.819742,26.360515 168.781116,26.6695279 170.283262,25.4334764 C170.291845,24.7553648 170.309013,24.0772532 170.317597,23.3991416 C168.197425,23.8712446 166.223176,24.695279 164.214592,25.4849785 C164.463519,22.9699571 168.755365,21.8969957 168.454936,19.5021459 C166.137339,20.3433476 164.540773,22.223176 162.257511,23.1416309 C162.369099,20.6523605 164.635193,19.5364807 164.978541,17.1759657 C165.11588,15.2446352 166.609442,13.9484979 166.180258,11.9742489 C162.128755,14.6523605 159.167382,18.4206009 157.51073,22.9957082 C156.995708,22.8240343 156.480687,22.6609442 155.974249,22.4892704 C156.017167,20.0429185 155.072961,18.0085837 154.171674,15.8111588 C153.27897,15.1587983 152.39485,14.4978541 151.51073,13.8369099 C152.755365,11.9914163 154.025751,10.1630901 155.304721,8.34334764 C157.802575,7.73390558 159.708155,6.14592275 162.051502,5.20171674 Z" id="Shape" fill="#B0B6BC" fill-rule="nonzero"></path>
                <path d="M107.716738,6.06008584 C107.690987,7.09012876 107.665236,8.12017167 107.622318,9.15021459 C108.901288,9.10729614 109.854077,8.49785408 110.935622,7.92274678 L111.236052,9.66523605 C112.618026,9.27038627 113.879828,8.78969957 115.141631,8.10300429 C114.841202,8.90128755 114.549356,9.69957082 114.257511,10.4978541 C116.283262,9.74248927 118.240343,8.83261803 120.23176,8 C120.008584,9.53648069 118.755365,10.1287554 117.76824,11.2103004 C121.11588,10.8841202 124.111588,9.75965665 127.296137,10.360515 C126.48927,10.7038627 125.690987,11.0472103 124.88412,11.3819742 C124.497854,12.0858369 124.128755,12.7982833 123.776824,13.527897 C122.377682,13.1845494 121.690987,11.6223176 120.300429,11.5450644 C118.660944,11.5965665 116.669528,13.5536481 115.905579,11.2446352 C112.55794,11.6309013 108.918455,10.8240343 105.862661,9.45922747 C105.390558,9.91416309 104.927039,10.3776824 104.472103,10.8412017 C104.094421,10.4806867 103.716738,10.111588 103.347639,9.75107296 C101.957082,10.0343348 100.583691,10.1030043 99.2274678,9.93991416 C98.7811159,10.2575107 98.3433476,10.583691 97.8969957,10.9098712 C97.3390558,10.7467811 96.7811159,10.583691 96.223176,10.4206009 C96.0515021,11.1244635 95.8712446,11.8197425 95.6995708,12.5236052 C93.6652361,12.6094421 91.1587983,10.9699571 91.2360515,14.1545064 C88.8497854,13.0815451 87.9914163,12.9871245 85.416309,13.9570815 L84.0858369,14.0257511 C82.8583691,13.1759657 81.6137339,13.4678112 80.1201717,13.0987124 L80.360515,12.5493562 C82.7296137,11.9055794 85.5793991,12.3519313 88.0171674,12.5751073 C88.3948498,12 88.7639485,11.4334764 89.1416309,10.8669528 C91.0729614,11.2875536 92.9527897,11.5793991 94.9356223,11.7167382 C94.1630901,10.944206 93.3991416,10.1630901 92.6266094,9.39055794 C93.639485,9.39055794 94.6609442,9.38197425 95.6738197,9.38197425 L95.7167382,7.84549356 C97.2017167,8.0944206 98.4206009,8.46351931 99.7424893,9.21030043 C100.248927,8.45493562 100.729614,7.68240343 101.193133,6.90987124 C101.742489,7.17596567 102.283262,7.44206009 102.832618,7.70815451 C103.373391,7.34763948 103.922747,6.99570815 104.472103,6.63519313 L104.197425,9.63090129 C105.793991,8.73819742 106.128755,6.89270386 107.716738,6.06008584 Z" id="Shape" fill="#0D4A7E" fill-rule="nonzero"></path>
                <path d="M105.862661,9.45922747 C108.918455,10.8240343 112.55794,11.6309013 115.905579,11.2446352 C116.669528,13.5536481 118.660944,11.5965665 120.300429,11.5450644 C121.690987,11.6223176 122.377682,13.1845494 123.776824,13.527897 C124.128755,12.7982833 124.497854,12.0858369 124.88412,11.3819742 C126.712446,11.6223176 128.55794,11.776824 130.39485,12.0085837 L131.141631,12.6437768 L129.553648,12.472103 C129.957082,13.4077253 130.360515,14.3519313 130.772532,15.2961373 C130.085837,15.0643777 129.390558,14.832618 128.703863,14.6094421 C127.802575,15.5708155 126.927039,16.5579399 126.060086,17.5536481 C125.313305,17.4849785 124.566524,17.4248927 123.828326,17.3562232 C122.909871,19.7682403 120.858369,20.5665236 118.806867,21.8197425 C116.772532,22.8841202 114.660944,24.2575107 112.403433,24.7639485 C111.150215,25.1502146 110.515021,24.2832618 109.622318,23.6137339 C108.463519,23.9828326 107.373391,24.2403433 106.48927,25.1330472 C109.313305,24.8841202 111.158798,26.9184549 113.708155,25.9570815 C117.244635,24.8497854 119.974249,22.4463519 123.373391,21.1072961 C125.124464,20.3175966 125.939914,18.6008584 127.965665,18.248927 C129.802575,17.9399142 130.909871,16.8154506 132.240343,15.6566524 C135.184549,16.1459227 136.575107,14.3261803 138.995708,13.1845494 C141.648069,13.2961373 144.197425,13.2274678 146.849785,13.0214592 C148.145923,14.9957082 150.32618,14.9785408 151.991416,16.3519313 C153.630901,18.8583691 154.549356,20.9957082 154.420601,24.0686695 C153.725322,24.3261803 153.030043,24.5751073 152.334764,24.8240343 C153.630901,26.472103 154.145923,28.3948498 155.090129,30.223176 C156.48927,32.3948498 160.987124,30.8841202 161.081545,33.6824034 C164.214592,33.9742489 167.759657,32.9871245 169.93133,35.8025751 C168.257511,35.7596567 165.184549,34.4978541 164.034335,36.0686695 C167.055794,37.9141631 170.16309,38.3261803 172.369099,41.2875536 C171.879828,41.8798283 171.390558,42.4635193 170.901288,43.055794 C171.347639,45.0386266 171.579399,46.8669528 171.201717,48.8927039 C167.802575,49.9399142 164.961373,52.0686695 161.527897,52.9871245 C160.463519,53.3133047 159.60515,53.9742489 158.652361,54.5665236 C157.27897,53.1072961 156.248927,51.5193133 154.171674,51.0300429 C152.180258,50.7553648 150.257511,51.0815451 148.351931,51.6824034 C150.23176,52.9785408 154.042918,50.9957082 155.742489,52.8412017 C156.137339,53.5793991 156.48927,54.3433476 156.798283,55.1244635 C155.04721,56.3433476 154.532189,56.806867 152.206009,56.223176 L152.042918,56.1802575 L151.502146,56.0343348 L150.300429,55.5021459 C147.227468,56.7467811 144.72103,58.8669528 143.622318,62.0600858 C141.725322,67.2961373 140.506438,72.3433476 136.678112,76.6094421 C131.845494,82.0257511 123.751073,85.8798283 116.549356,86.3175966 C117.76824,87.9742489 121.690987,86.6351931 123.416309,86.111588 C122.729614,87.7167382 122.06867,89.1845494 122.351931,90.9871245 C123.150215,95.5622318 122.918455,100.120172 122.832618,104.738197 C122.841202,106.798283 120.875536,108.652361 120.866953,110.712446 C120.729614,113.158798 120.866953,115.639485 120.935622,118.085837 L120.412017,118.077253 C120.600858,115.330472 120.592275,112.600858 120.540773,109.845494 C120.515021,108.386266 121.60515,107.081545 121.716738,105.60515 C122.034335,101.562232 121.553648,97.5364807 122.034335,93.4849785 C122.111588,91.7081545 122.652361,89.3390558 121.828326,87.7081545 L120.23176,87.7253219 C119.236052,93.6051502 120.618026,99.9570815 119.613734,105.811159 C119.364807,99.7167382 120.103004,93.9227468 119.407725,87.8626609 C118.188841,87.8369099 116.969957,87.751073 115.76824,87.6051502 C114.987124,86.3690987 114.034335,86.1030043 112.72103,86.7467811 L113.244635,87.7167382 C113.193133,88.2660944 113.150215,88.8240343 113.098712,89.3733906 C112.472103,88.3519313 111.845494,87.3304721 111.227468,86.3004292 C110.145923,86.1201717 109.064378,85.9570815 107.991416,85.7339056 C104.300429,85.4506438 102.240343,81.3133047 101.244635,78.2060086 C102.171674,77.0901288 103.098712,75.9914163 104.180258,75.0214592 C107.974249,71.8369099 110.583691,67.6309013 114.248927,64.2832618 C114.7897,64.9527897 115.330472,65.6223176 115.862661,66.2918455 C121.184549,66.7896996 125.330472,61.6309013 124.772532,56.5751073 C124.094421,54.6609442 122.72103,52.3347639 120.626609,51.7682403 C109.648069,47.9227468 96.7467811,48.6695279 85.4248927,50.5064378 C82.4291845,51.193133 78.5579399,52.583691 76.8841202,55.3390558 C76.4034335,57.5622318 76.1974249,61.0128755 78.1201717,62.6523605 C80.0686695,64.8841202 83.0386266,66.7124464 85.888412,67.4935622 C86.832618,66.8927039 87.5107296,66.0257511 88.3862661,65.3476395 C89.9828326,65.5536481 90.7811159,67.5793991 91.8369099,68.6609442 C94.3433476,71.9399142 97.8369099,73.5965665 99.8025751,77.27897 C98.8154506,78.9785408 98.0085837,80.6695279 96.2403433,81.6909871 C91.7596567,84.6094421 86.3347639,85.4678112 81.1158798,84.4377682 C78.111588,83.7939914 74.9527897,83.5793991 72.0343348,82.6523605 C70.2575107,82.0171674 69.5364807,80.4206009 67.4334764,81.2618026 L67.5622318,80 C66.2145923,78.0257511 63.8454936,76.4463519 62.9184549,74.223176 C61.888412,72.2660944 62.4034335,70.1459227 62.3862661,67.9828326 L61.9828326,68.1373391 C61.7253219,69.776824 61.5965665,71.4334764 61.5708155,73.0987124 C61.1759657,72.6094421 60.7725322,72.1373391 60.3519313,71.6738197 C61.0300429,70.6351931 60.5236052,69.7253219 60.3519313,68.6351931 C61.1845494,67.7424893 60.583691,67.193133 60.0944206,66.3347639 L61.7167382,66.7639485 C61.776824,62.4377682 58.5236052,58.7811159 55.3218884,56.248927 C53.7339056,55.0472103 51.7854077,52.9356223 49.6995708,52.8927039 C48.1030043,53.3390558 47.8969957,54.5321888 47.2017167,55.8283262 C46.0085837,55.4334764 44.944206,54.9356223 43.8712446,54.2746781 C44.2403433,53.4506438 44.6266094,52.6437768 45.0386266,51.8540773 C47.1072961,50.0429185 49.0729614,50.7725322 51.3991416,51.4678112 C51.1072961,50.2317597 50.8927039,49.3819742 51.3133047,48.1802575 C49.3133047,47.193133 49.0901288,47.1244635 46.806867,47.6480687 C47.5536481,47.6223176 48.3004292,47.5879828 49.0472103,47.5364807 L49.6309013,49.2017167 C47.7167382,49.3218884 46.0257511,49.1759657 44.4377682,50.4463519 C43.7424893,51.3304721 43.3304721,52.4206009 42.8841202,53.4420601 C39.2532189,52.72103 35.8283262,50.8927039 32.3004292,49.7596567 C32.1888412,48.7038627 32.0772532,47.639485 31.9656652,46.583691 C33.9313305,45.9742489 35.3390558,45.2274678 36.9270386,43.9055794 C36.7038627,43.2961373 36.4806867,42.6781116 36.2575107,42.0686695 C36.6695279,41.7939914 37.0815451,41.5193133 37.4935622,41.2446352 C37.3390558,40.6094421 37.1845494,39.9828326 37.0300429,39.3476395 C38.5579399,38.583691 40.0772532,38.2060086 41.7682403,37.9656652 C41.6309013,37.5364807 41.4935622,37.1072961 41.3476395,36.6695279 C40.3004292,36.4978541 39.2532189,36.3175966 38.2060086,36.1373391 C39.5965665,33.8369099 42.9184549,34.3862661 44.6695279,32.6609442 C44.223176,32.2317597 43.776824,31.8111588 43.3304721,31.3819742 C46.944206,30.9012876 48.5579399,30.248927 50.9356223,27.4763948 C50.9184549,26.72103 50.9012876,25.9570815 50.8841202,25.2017167 C51.6566524,24.5579399 52.4291845,23.9055794 53.193133,23.2532189 C52.5751073,22.6781116 51.9570815,22.1030043 51.3390558,21.5364807 C51.9828326,20.360515 52.695279,19.3304721 53.5793991,18.3261803 C53.4849785,17.639485 53.3905579,16.9527897 53.2961373,16.2746781 C55.6137339,14.3948498 58.1716738,14.2060086 59.3733906,11.5879828 C60.8755365,10.8927039 62.5150215,10.1373391 64.2145923,10.5407725 C66.3862661,11.0042918 68.3175966,11.7596567 70.6008584,11.4763948 C71.8111588,12.360515 72.9699571,13.304721 74.1802575,14.1716738 L76.1630901,14.3261803 C76.7639485,14.3862661 77.3733906,14.4635193 77.9742489,14.5407725 C80.3948498,16.583691 83.5193133,16.5922747 85.8798283,18.7896996 C88.2746781,20.4806867 91.5536481,24.1459227 94.7124464,23.527897 C96.4291845,25.7939914 98.6180258,25.416309 101.184549,25.3476395 C102.420601,25.0729614 102.600858,24.695279 102.7897,23.5021459 C100.429185,25.3476395 98.2660944,24.3433476 95.751073,23.5364807 C91.7339056,21.8283262 88.6351931,19.1587983 85.2360515,16.5150215 C85.2961373,15.6652361 85.3562232,14.8154506 85.416309,13.9570815 C87.9914163,12.9871245 88.8497854,13.0815451 91.2360515,14.1545064 C91.1587983,10.9699571 93.6652361,12.6094421 95.6995708,12.5236052 C95.8712446,11.8197425 96.0515021,11.1244635 96.223176,10.4206009 C96.7811159,10.583691 97.3390558,10.7467811 97.8969957,10.9098712 C98.3433476,10.583691 98.7811159,10.2575107 99.2274678,9.93991416 C100.583691,10.1030043 101.957082,10.0343348 103.347639,9.75107296 C103.716738,10.111588 104.094421,10.4806867 104.472103,10.8412017 C104.927039,10.3776824 105.390558,9.91416309 105.862661,9.45922747 Z" id="Shape" fill="#B0B6BC" fill-rule="nonzero"></path>
                <path d="M30.8583691,10.9184549 C34.4549356,10.7038627 38.1030043,12.583691 41.5021459,13.8025751 C44.0257511,15.2703863 46.2660944,17.6309013 47.6480687,20.1974249 C46.1630901,20.4291845 45.27897,19.4506438 44.0772532,18.7811159 C44.944206,20.3090129 46.3776824,21.5708155 43.5708155,21.9484979 C43.2017167,22.5751073 42.8412017,23.2017167 42.472103,23.8369099 C43.6309013,24.3347639 44.7467811,24.8583691 45.776824,25.5965665 C44.1287554,25.5107296 42.4892704,25.3133047 40.8583691,25.0901288 C40.7982833,26.1459227 40.7381974,27.2017167 40.6695279,28.2660944 C40.7124464,26.0257511 40.0515021,23.5364807 41.5193133,21.639485 C40.9356223,21.167382 40.3519313,20.6866953 39.7682403,20.2060086 C40.8412017,19.2188841 40.8154506,19.2274678 40.6266094,17.8369099 C39.3819742,16.9699571 38.5579399,15.8969957 36.9356223,15.8712446 C36.6180258,14.9957082 36.3090129,14.1201717 36.0171674,13.2446352 C35.5965665,13.9313305 35.1158798,14.3690987 34.5665236,14.5493562 L33.9313305,12.9785408 C33.7081545,13.5193133 33.4763948,14.0686695 33.2532189,14.6094421 C32.6609442,14.1545064 32.0686695,13.6995708 31.4763948,13.2446352 C30.472103,13.2274678 29.4678112,13.2103004 28.4635193,13.1845494 C29.0214592,12.0858369 29.8197425,11.3304721 30.8583691,10.9184549 Z" id="Shape" fill="#0D4A7E" fill-rule="nonzero"></path>
                <path d="M76.2918455,12.4120172 C77.2703863,12.3776824 78.2575107,12.3433476 79.2360515,12.3175966 C79.5536481,12.8927039 79.8712446,13.4763948 80.1974249,14.0515021 C81.6309013,14.2403433 82.9012876,14.7381974 84.2145923,15.3133047 C84.5493562,15.7167382 84.8927039,16.1201717 85.2360515,16.5150215 C88.6351931,19.1587983 91.7339056,21.8283262 95.751073,23.5364807 C98.2660944,24.3433476 100.429185,25.3476395 102.7897,23.5021459 C102.600858,24.695279 102.420601,25.0729614 101.184549,25.3476395 C98.6180258,25.416309 96.4291845,25.7939914 94.7124464,23.527897 C91.5536481,24.1459227 88.2746781,20.4806867 85.8798283,18.7896996 C83.5193133,16.5922747 80.3948498,16.583691 77.9742489,14.5407725 C76.9012876,14.1974249 76.3347639,13.4935622 76.2918455,12.4120172 Z" id="Shape" fill="#0D4A7E" fill-rule="nonzero"></path>
                <path d="M58.6523605,22.6180258 C65.9055794,22.695279 71.1759657,26.4291845 76.8412017,30.4120172 C79.9742489,32.7811159 83.6995708,34.0772532 87.5622318,34.6266094 C91.3390558,33.8540773 94.7639485,32.2575107 98.7124464,32.1373391 C105.519313,31.8798283 112.472103,31.3133047 118.866953,34 C121.296137,35.1330472 123.888412,34.7038627 126.309013,33.776824 C127.545064,33.4334764 128.583691,32.3776824 129.828326,33.167382 C128.540773,34.4034335 126.72103,35.3991416 126.145923,37.0987124 C128.034335,37.3991416 129.922747,37.4763948 131.83691,37.4592275 C130.944206,35.6909871 130.824034,34.6609442 131.158798,32.7639485 L129.828326,33.167382 L129.974249,32.1201717 C131.742489,30.4549356 133.845494,29.1587983 135.67382,27.5708155 C137.364807,26.2145923 138.549356,24.6437768 140.643777,23.8626609 C141.081545,26.6094421 138.446352,27.7424893 136.412017,28.72103 C138.506438,30.1630901 140.7897,30.5150215 141.072961,33.4592275 C141.60515,35.7682403 139.648069,37.1158798 138.412017,38.7296137 C141.424893,39.9656652 142.017167,36.3948498 142.7897,34.3862661 C143.44206,31.1502146 141.630901,29.3218884 139.639485,27.1244635 C141.596567,26.944206 142.051502,26.8583691 143.227468,28.472103 C145.021459,31.8369099 144.540773,35.5450644 146.429185,38.8412017 C145.347639,38.8669528 144.266094,38.8927039 143.193133,38.9270386 C143.27897,41.193133 145.93133,40.4806867 147.502146,41.5708155 C144.497854,41.2188841 141.545064,40.5922747 138.626609,39.7854077 C133.012876,38.2145923 126.703863,39.5450644 121.459227,36.5064378 C115.459227,33.2961373 108.866953,32.472103 102.145923,32.9270386 C94.5321888,32.9270386 88.0772532,35.3905579 81.0214592,37.7339056 C73.8626609,40.1888412 66.695279,39.5536481 59.7167382,42.6180258 C58.3862661,40.9098712 57.6223176,39.4678112 57.0214592,37.3905579 L57.7854077,37.2618026 C58.1888412,38.6437768 58.6695279,39.9227468 59.3304721,41.2103004 C60.9613734,40.7038627 60.583691,38.0944206 60.248927,36.7896996 C59.3133047,33.9399142 60.1974249,31.3218884 61.4248927,28.7381974 C62.5493562,27.527897 64.1974249,26.7725322 65.4763948,25.6995708 C62.7038627,25.8283262 61.1759657,27.5107296 59.1416309,29.0987124 C59.4506438,27.2103004 60.9012876,26.472103 62.1373391,25.1759657 C60.4549356,24.6351931 59.7339056,23.9313305 58.6523605,22.6180258 Z" id="Shape" fill="#0D4A7E" fill-rule="nonzero"></path>
                <path d="M37.4678112,23.167382 C38.3519313,23.3133047 39.2446352,23.4506438 40.1287554,23.5965665 C40.0429185,24.6609442 39.9570815,25.7253219 39.8712446,26.7896996 C38.7896996,27.0300429 37.8025751,27.4334764 36.9184549,28 C35.7682403,27.3905579 34.6781116,27.3304721 34.2746781,25.9313305 C35.3905579,25.9227468 36.5064378,25.9313305 37.6223176,25.9399142 C37.5622318,25.0214592 37.5107296,24.0944206 37.4678112,23.167382 Z" id="Shape" fill="#0D4A7E" fill-rule="nonzero"></path>
                <path d="M72.1802575,28.7553648 C68.9012876,29.6137339 66.4291845,31.5107296 66.8669528,35.1759657 C67.2875536,37.3390558 68.7725322,38.0772532 70.4806867,39.1244635 C68.6695279,39.3991416 66.8755365,39.8025751 65.0729614,40.1030043 C64.4978541,40.2918455 63.9742489,40.1030043 63.4935622,39.527897 C62.111588,36.6094421 61.8798283,32.832618 63.3218884,29.8798283 C65.2188841,27.3390558 70.223176,25.055794 72.1802575,28.7553648 Z" id="Shape" fill="#FFFFFF" fill-rule="nonzero"></path>
                <path d="M165.467811,27.7253219 C167.055794,28.1287554 168.515021,27.9914163 170.111588,27.7854077 C169.751073,28.8841202 169.090129,29.3648069 168.214592,30.0429185 C166.094421,28.695279 164.128755,30.3776824 162.283262,29.2532189 C163.236052,28.695279 164.248927,27.27897 165.467811,27.7253219 Z" id="Shape" fill="#0D4A7E" fill-rule="nonzero"></path>
                <path d="M99.8969957,29.2274678 C102.841202,28.7038627 106.248927,28.5665236 109.081545,29.6824034 C105.914163,29.751073 102.746781,29.8283262 99.5793991,29.8454936 L99.8969957,29.2274678 Z" id="Shape" fill="#0D4A7E" fill-rule="nonzero"></path>
                <polygon id="Shape" fill="#B0B6BC" fill-rule="nonzero" points="180.386266 30.1287554 180.944206 30.1287554 180.935622 30.6781116 180.386266 30.6781116 180.386266 30.1287554"></polygon>
                <path d="M74.4549356,32.9527897 C74.583691,34.2317597 74.5493562,35.3218884 74.2918455,36.5922747 C73.416309,36.5579399 72.5321888,36.5407725 71.6566524,36.5150215 C71.5193133,35.3218884 71.416309,34.1888412 71.6566524,33.0042918 C72.583691,32.9785408 73.5193133,32.9613734 74.4549356,32.9527897 Z" id="Shape" fill="#FFFFFF" fill-rule="nonzero"></path>
                <path d="M129.828326,33.167382 L131.158798,32.7639485 C130.824034,34.6609442 130.944206,35.6909871 131.83691,37.4592275 C129.922747,37.4763948 128.034335,37.3991416 126.145923,37.0987124 C126.72103,35.3991416 128.540773,34.4034335 129.828326,33.167382 Z" id="Shape" fill="#FFFFFF" fill-rule="nonzero"></path>
                <path d="M137.656652,33.167382 C137.76824,34.248927 137.742489,35.3218884 137.682403,36.4034335 C136.16309,36.5321888 134.583691,37.2017167 134.283262,35.0729614 C134.180258,32.5751073 135.725322,32.6351931 137.656652,33.167382 Z" id="Shape" fill="#FFFFFF" fill-rule="nonzero"></path>
                <path d="M77.6995708,32.5064378 C78.5321888,32.9957082 79.3733906,33.4935622 80.2060086,33.9914163 C80.8154506,34.3690987 81.4248927,34.7467811 82.0429185,35.1158798 C82.2660944,37.8283262 78.248927,37.4248927 76.5922747,38.4206009 C76.7896996,37.4592275 77.1330472,36.5321888 77.639485,35.639485 C77.6909871,34.6008584 77.7081545,33.5536481 77.6995708,32.5064378 Z" id="Shape" fill="#FFFFFF" fill-rule="nonzero"></path>
                <path d="M32.6866953,35.27897 C33.6909871,34.8412017 34.1630901,35.0815451 34.1287554,36 C33.0987124,36.4291845 32.6266094,36.1974249 32.6866953,35.27897 Z" id="Shape" fill="#0D4A7E" fill-rule="nonzero"></path>
                <polygon id="Shape" fill="#0D4A7E" fill-rule="nonzero" points="174.412017 38.7982833 174.95279 38.806867 174.95279 39.3476395 174.403433 39.3476395"></polygon>
                <path d="M96.1373391,39.8712446 C102.729614,38.832618 110.575107,38.6695279 116.72103,41.639485 C113.733906,41.6652361 111.11588,40.3690987 108.16309,40.1545064 C102.025751,39.6995708 96.1201717,40.5321888 90.1287554,41.7424893 C87.4420601,42.2575107 85.1502146,43.5708155 82.3347639,43.527897 C86.5407725,41.5708155 91.6137339,41.0300429 96.1373391,39.8712446 Z" id="Shape" fill="#0D4A7E" fill-rule="nonzero"></path>
                <path d="M193.862661,42.6180258 C189.76824,44.2145923 184.875536,45.5450644 180.626609,46.944206 L180.472103,48.111588 L180.085837,48.1545064 C178.626609,48.4034335 177.287554,48.8583691 175.948498,49.4763948 C178.609442,49.8283262 181.879828,49.1158798 184.111588,50.6609442 C179.751073,50.4463519 175.004292,49.5793991 170.703863,50.3862661 C171.519313,50.0257511 172.32618,49.6480687 173.133047,49.2703863 C173.287554,48.2832618 173.433476,47.2961373 173.579399,46.3004292 L173.708155,48.0257511 C180.412017,46.6695279 186.892704,43.5450644 193.862661,42.6180258 Z" id="Shape" fill="#0D4A7E" fill-rule="nonzero"></path>
                <path d="M13.0815451,42.9527897 C14.0858369,42.5064378 16.3175966,42.1716738 16.3261803,43.8025751 C15.304721,43.8712446 14.248927,43.6995708 13.167382,43.2875536 L13.0815451,42.9527897 Z" id="Shape" fill="#0D4A7E" fill-rule="nonzero"></path>
                <path d="M26.6094421,44.5579399 L26.2317597,46.1287554 C24.360515,46.1545064 22.4377682,45.5107296 20.6351931,45.0643777 C22.6266094,44.4463519 24.5407725,44.6008584 26.6094421,44.5579399 Z" id="Shape" fill="#0D4A7E" fill-rule="nonzero"></path>
                <path d="M2.56652361,45.6137339 C4.34334764,45.8969957 6.05150215,46.3261803 7.79399142,46.7725322 C6.11158798,46.8583691 4.42918455,46.9270386 2.75536481,46.944206 L2.56652361,45.6137339 Z" id="Shape" fill="#0D4A7E" fill-rule="nonzero"></path>
                <polygon id="Shape" fill="#B0B6BC" fill-rule="nonzero" points="186.309013 46.6437768 187.030043 46.6351931 187.364807 47.2274678 186.978541 47.8369099 186.248927 47.8454936 185.914163 47.2446352"></polygon>
                <path d="M1.21030043,48.3347639 C5.57081545,47.8369099 10.0085837,47.8712446 14.3948498,48.0944206 C17.4506438,49.6223176 20.695279,50.0257511 24.0085837,50.6695279 C25.4506438,50.8755365 26.3261803,50.248927 27.4678112,49.5364807 C31.193133,50.7553648 34.8583691,52.0772532 38.6437768,53.0815451 C40.111588,53.6223176 42.5493562,54.2060086 43.1416309,55.8369099 C41.4763948,55.4935622 39.8283262,55.1158798 38.1545064,54.8497854 C39.1587983,55.4592275 40.0858369,56.1287554 40.944206,56.8583691 C39.527897,56.583691 38.1373391,56.2746781 36.7381974,55.9141631 L36.7982833,57.639485 C36.4635193,56.8669528 36.1373391,56.0944206 35.8111588,55.3218884 C29.1330472,53.3476395 22.0858369,52.472103 15.2961373,50.8927039 C14.2317597,50.5751073 12.9871245,51.0042918 11.8969957,51.1330472 C9.24463519,51.7339056 6.75536481,50.8240343 4.0944206,51.2703863 C3.95708155,54.7124464 3.95708155,58.1545064 4.17167382,61.5965665 C3.08154506,58.4463519 4.02575107,54.2145923 3.60515021,50.806867 C5.93133047,50.7467811 8.16309013,50.8841202 10.4377682,50.2317597 C8.97854077,50.0171674 7.51072961,49.8540773 6.05150215,49.7081545 C5.54506438,49.2703863 5.03862661,48.832618 4.53218884,48.3948498 C3.48497854,48.4377682 2.42918455,48.4806867 1.38197425,48.5236052 C1.68240343,52.9356223 1.39055794,57.3819742 1.7167382,61.7854077 C2.52360515,63.5708155 3.7167382,64.832618 3.54506438,66.944206 C3.53648069,78.6866953 3.53648069,90.4120172 3.54506438,102.154506 C3.79399142,104.343348 2.31759657,105.44206 1.76824034,107.321888 C1.45064378,116.532189 2.15450644,125.871245 1.37339056,135.055794 C0.274678112,125.939914 1.40772532,116.575107 0.69527897,107.407725 C0.35193133,105.390558 2.55793991,104.343348 2.2832618,102.171674 C2.16309013,90.4206009 2.24034335,78.5407725 2.24034335,66.806867 C1.95708155,66.1287554 1.30472103,65.6566524 0.291845494,65.4077253 C1.41630901,59.7253219 1.0472103,54.0772532 1.21030043,48.3347639 Z" id="Shape" fill="#B0B6BC" fill-rule="nonzero"></path>
                <path d="M180.085837,48.1545064 L180.472103,48.111588 C183.545064,48.1373391 186.283262,48.8841202 189.072961,50.1030043 C187.433476,50.4806867 185.802575,50.7725322 184.111588,50.6609442 C181.879828,49.1158798 178.609442,49.8283262 175.948498,49.4763948 C177.287554,48.8583691 178.626609,48.4034335 180.085837,48.1545064 Z" id="Shape" fill="#0D4A7E" fill-rule="nonzero"></path>
                <path d="M24.1630901,48.7896996 L24.8154506,48.5150215 L25.527897,48.9098712 L25.6137339,49.5708155 C24.6781116,49.9914163 24.1974249,49.7339056 24.1630901,48.7896996 Z" id="Shape" fill="#B0B6BC" fill-rule="nonzero"></path>
                <path d="M152.901288,49.0729614 C151.004292,50.3347639 147.536481,50.8154506 145.218884,51.0815451 C147.742489,49.3390558 149.854077,48.9527897 152.901288,49.0729614 Z" id="Shape" fill="#0D4A7E" fill-rule="nonzero"></path>
                <path d="M189.072961,50.1030043 L189.313305,50.1974249 L189.141631,52.0343348 C190.515021,52.0085837 191.759657,51.6909871 193.038627,52.223176 C191.871245,52.4806867 190.695279,52.7124464 189.519313,52.9356223 C189.107296,52.5579399 188.695279,52.1802575 188.300429,51.7854077 C185.785408,51.639485 183.776824,52.9613734 181.287554,52.8497854 C180.609442,52.5665236 179.93133,52.2918455 179.253219,52.0257511 C180.944206,51.8798283 182.635193,51.9399142 184.334764,52 L184.111588,50.6609442 C185.802575,50.7725322 187.433476,50.4806867 189.072961,50.1030043 Z" id="Shape" fill="#0D4A7E" fill-rule="nonzero"></path>
                <path d="M15.2961373,50.8927039 C22.0858369,52.472103 29.1330472,53.3476395 35.8111588,55.3218884 C36.1373391,56.0944206 36.4635193,56.8669528 36.7982833,57.639485 C38.3948498,58.0343348 40.0171674,58.3519313 41.6223176,58.7553648 L41.8454936,59.7939914 C40.5751073,59.5708155 39.3648069,59.2274678 38.1373391,58.806867 C38.1974249,64.2060086 39.1587983,69.2103004 37.7939914,74.695279 C37.055794,78.0171674 34.3175966,80.7811159 31.2875536,82.1716738 C31.2961373,82.8583691 31.304721,83.5450644 31.304721,84.2317597 C33.8540773,84.248927 35.8712446,85.9484979 37.167382,88.0171674 C38.7553648,91.2618026 39.2703863,95.1330472 39.3562232,98.7124464 C39.4077253,103.227468 39.0042918,108.309013 37.0472103,112.454936 C35.3991416,115.854077 32.0858369,118.034335 28.2832618,118.051502 C20.1201717,118.197425 11.9484979,118.111588 3.78540773,118.077253 C3.87124464,114.703863 3.80257511,111.330472 3.86266094,107.965665 C6.24892704,105.484979 5.64806867,102.712446 5.82832618,99.5708155 C5.84549356,88.6866953 5.8111588,77.8197425 5.82832618,66.9356223 C5.84549356,64.7553648 5.48497854,63.3648069 4.17167382,61.5965665 C3.95708155,58.1545064 3.95708155,54.7124464 4.0944206,51.2703863 C6.75536481,50.8240343 9.24463519,51.7339056 11.8969957,51.1330472 C12.9871245,51.0042918 14.2317597,50.5751073 15.2961373,50.8927039 Z" id="Shape" fill="#FFFFFF" fill-rule="nonzero"></path>
                <path d="M170.703863,50.3862661 C175.004292,49.5793991 179.751073,50.4463519 184.111588,50.6609442 L184.334764,52 C182.635193,51.9399142 180.944206,51.8798283 179.253219,52.0257511 C176.72103,52.3776824 174.188841,52.695279 171.665236,53.0815451 C168.618026,53.5536481 165.93133,54.6351931 162.892704,54.6180258 C161.381974,55.7081545 159.313305,56.0772532 157.502146,56.4120172 L156.935622,55.9313305 C158.575107,55.2532189 160.214592,54.6094421 161.716738,53.6566524 C162.592275,53.7081545 163.459227,53.7596567 164.334764,53.8197425 C164.746781,53.3133047 165.167382,52.806867 165.587983,52.2918455 C167.321888,51.7339056 169.030043,51.1072961 170.703863,50.3862661 Z" id="Shape" fill="#FFFFFF" fill-rule="nonzero"></path>
                <path d="M188.300429,51.7854077 C188.695279,52.1802575 189.107296,52.5579399 189.519313,52.9356223 C191.27897,54.1802575 192.978541,55.4506438 194.566524,56.9184549 C194.618026,61.6309013 194.515021,66.3519313 194.618026,71.0729614 C190.48927,71.1244635 186.351931,71.0815451 182.223176,71.0815451 C182.197425,68.8927039 182.051502,66.3433476 181.072961,64.360515 C179.896996,62.583691 178.463519,62.2660944 176.429185,62.3690987 C175.656652,63.0214592 174.875536,63.6566524 174.094421,64.2918455 C172.987124,67.4506438 172.55794,70.4978541 174.798283,73.2532189 C178.540773,76.695279 184.274678,77.2703863 188.695279,80.0343348 C193.158798,82.4978541 195.27897,86.9270386 195.914163,91.8283262 C196.575107,98.3090129 196.480687,105.802575 193.253219,111.648069 C191.287554,115.236052 187.965665,118.145923 183.699571,118.206009 C179.399142,118.214592 175.098712,118.248927 170.798283,118.214592 C168.772532,118.274678 167.201717,117.150215 165.201717,116.918455 C165.536481,116.806867 165.862661,116.695279 166.197425,116.583691 C164.171674,116.120172 160.652361,114.017167 160.386266,111.742489 C160.317597,106.592275 160.360515,101.433476 160.386266,96.2832618 C164.746781,96.1716738 169.124464,96.2575107 173.484979,96.3347639 C173.527897,98.7553648 173.407725,101.381974 173.922747,103.742489 C174.815451,106.317597 177.467811,107.854077 180.034335,106.437768 C182.944206,104.515021 182.609442,99.9313305 182.188841,96.9270386 C181.60515,93.6051502 179.090129,91.7253219 176.034335,90.7811159 C172.88412,89.8798283 169.896996,88.5751073 166.944206,87.1759657 C163.244635,85.5193133 161.012876,81.5193133 160.240343,77.6824034 C159.261803,72.7553648 159.27897,67.6137339 160.06867,62.6609442 C160.403433,60.7038627 161.296137,59.0386266 161.004292,57.1072961 C167.570815,55.0042918 174.480687,53.8712446 181.287554,52.8497854 C183.776824,52.9613734 185.785408,51.639485 188.300429,51.7854077 Z" id="Shape" fill="#FFFFFF" fill-rule="nonzero"></path>
                <path d="M115.742489,54.3776824 L115.44206,55.2103004 C106.515021,57.3991416 97.8712446,58.9613734 88.8154506,56.4291845 C87.5879828,55.9742489 86.0257511,55.8969957 85.3905579,54.6008584 C91.7854077,54.9957082 98.7896996,57.055794 105.596567,56.0772532 C109.141631,55.5879828 112.309013,54.0686695 115.742489,54.3776824 Z" id="Shape" fill="#FFFFFF" fill-rule="nonzero"></path>
                <path d="M50.8583691,54.9871245 C52.6266094,56.0686695 55.0042918,57.2360515 53.5793991,59.7167382 C50.6866953,60.6437768 50.2832618,56.9957082 50.8583691,54.9871245 Z" id="Shape" fill="#B0B6BC" fill-rule="nonzero"></path>
                <path d="M150.300429,55.5021459 L151.502146,56.0343348 C151.244635,56.8583691 150.978541,57.6738197 150.712446,58.4978541 L152.008584,58.9527897 C151.2103,60.1545064 149.905579,60.6008584 149.004292,61.639485 C147.742489,64.6609442 148.506438,67.8798283 147.021459,70.7639485 C146.549356,70.7725322 146.077253,70.7811159 145.60515,70.7896996 C145.476395,70.0515021 145.347639,69.304721 145.227468,68.5579399 C142.678112,69.2188841 140.540773,71.1416309 142.806867,73.6223176 C142.858369,76.4635193 142.961373,80.2832618 140.806867,82.472103 C139.296137,84.1030043 136.497854,83.5536481 134.48927,83.4763948 C134.532189,82.3004292 134.583691,81.1330472 134.635193,79.9570815 C131.733906,82.9957082 127.339056,84.806867 123.416309,86.111588 C121.690987,86.6351931 117.76824,87.9742489 116.549356,86.3175966 C123.751073,85.8798283 131.845494,82.0257511 136.678112,76.6094421 C140.506438,72.3433476 141.725322,67.2961373 143.622318,62.0600858 C144.72103,58.8669528 147.227468,56.7467811 150.300429,55.5021459 Z" id="Shape" fill="#0D4A7E" fill-rule="nonzero"></path>
                <path d="M151.502146,56.0343348 L152.042918,56.1802575 L152.206009,56.223176 C151.44206,57.6566524 151.888412,58.6351931 152.515021,59.9828326 C154.403433,58.2575107 156.592275,58.1630901 158.95279,57.5622318 C157.579399,60.1802575 157.347639,62.9184549 157.347639,65.8111588 C156.901288,64.1201717 155.356223,64.9785408 154.025751,64.7553648 C155.965665,70.2918455 156.06867,76.9957082 153.716738,82.4120172 C152.678112,85.0214592 150.540773,86.1545064 148.154506,87.27897 L148.197425,88.5493562 C150.042918,89.8454936 152.171674,90.0343348 153.356223,92.2145923 C155.708155,96.7553648 153.184549,103.407725 155.562232,107.991416 C157.167382,110.832618 156.094421,114.806867 156.497854,118.008584 C152.008584,118.223176 147.502146,118.060086 143.004292,118.128755 C141.622318,114.566524 142.248927,110.23176 142.060086,106.437768 C141.888412,102.935622 142.772532,98.3347639 140.772532,95.304721 C138.995708,93.4334764 136.88412,93.7424893 134.532189,93.7339056 C134.575107,97.3991416 134.532189,101.064378 134.55794,104.729614 C134.48927,106.480687 135.433476,107.587983 136.085837,109.098712 C136.32618,112.077253 136.120172,115.098712 136.214592,118.094421 C131.124464,118.103004 126.025751,118.137339 120.935622,118.085837 C120.866953,115.639485 120.729614,113.158798 120.866953,110.712446 C120.875536,108.652361 122.841202,106.798283 122.832618,104.738197 C122.918455,100.120172 123.150215,95.5622318 122.351931,90.9871245 C122.06867,89.1845494 122.729614,87.7167382 123.416309,86.111588 C127.339056,84.806867 131.733906,82.9957082 134.635193,79.9570815 C134.583691,81.1330472 134.532189,82.3004292 134.48927,83.4763948 C136.497854,83.5536481 139.296137,84.1030043 140.806867,82.472103 C142.961373,80.2832618 142.858369,76.4635193 142.806867,73.6223176 C140.540773,71.1416309 142.678112,69.2188841 145.227468,68.5579399 C145.347639,69.304721 145.476395,70.0515021 145.60515,70.7896996 C146.077253,70.7811159 146.549356,70.7725322 147.021459,70.7639485 C148.506438,67.8798283 147.742489,64.6609442 149.004292,61.639485 C149.905579,60.6008584 151.2103,60.1545064 152.008584,58.9527897 L150.712446,58.4978541 C150.978541,57.6738197 151.244635,56.8583691 151.502146,56.0343348 Z" id="Shape" fill="#FFFFFF" fill-rule="nonzero"></path>
                <path d="M42.0085837,56.3175966 C45.5364807,57.5536481 49.7253219,58.6609442 52.6008584,61.167382 C49.3648069,61.9742489 47.5364807,61.5450644 44.4377682,60.4120172 C43.5793991,60.1888412 42.7124464,59.9828326 41.8454936,59.7939914 L41.6223176,58.7553648 L42.0085837,56.3175966 Z" id="Shape" fill="#B0B6BC" fill-rule="nonzero"></path>
                <path d="M41.8454936,59.7939914 C42.7124464,59.9828326 43.5793991,60.1888412 44.4377682,60.4120172 C47.5364807,61.5450644 49.3648069,61.9742489 52.6008584,61.167382 C53.3218884,61.4334764 54.0429185,61.6909871 54.7639485,61.9484979 C55.3819742,64.0257511 55.2103004,66.0515021 56.4377682,67.9227468 C55.7854077,72.6094421 56.2746781,77.4334764 56.1030043,82.1630901 C59.2017167,82.4549356 62.4806867,81.9141631 65.5107296,82.5751073 C65.4248927,85.7854077 65.4849785,88.9871245 65.4334764,92.1888412 C62.3261803,92.1888412 59.2188841,92.1888412 56.111588,92.2060086 C56.2060086,97.3476395 55.9742489,102.497854 56.2746781,107.622318 C58.0944206,107.253219 60.0858369,107.244635 61.8283262,106.600858 C64.3261803,104.334764 63.6909871,100.72103 64.0772532,97.6995708 C67.6824034,97.751073 71.2961373,97.7081545 74.9098712,97.7081545 C75.2360515,104.454936 74.9270386,111.236052 75.0643777,117.991416 C63.9914163,118.274678 52.8669528,118.094421 41.7854077,118.051502 C41.8369099,115.321888 41.6995708,112.575107 41.8712446,109.83691 C42.3004292,108.017167 43.4849785,106.635193 43.4248927,104.643777 C43.4763948,93.8111588 43.4678112,82.9270386 43.4592275,72.0858369 C43.4592275,70.695279 43.3733906,69.4334764 42.6866953,68.1888412 C41.2961373,65.7682403 41.9399142,62.5407725 41.8454936,59.7939914 Z" id="Shape" fill="#FFFFFF" fill-rule="nonzero"></path>
                <path d="M154.334764,59.8454936 C155.098712,61.3218884 155.879828,62.7896996 156.660944,64.2660944 C155.596567,64.0944206 154.532189,63.9227468 153.467811,63.751073 C153.081545,62.583691 152.343348,61.5622318 151.253219,60.695279 C152.257511,60.3433476 153.287554,60.0600858 154.334764,59.8454936 Z" id="Shape" fill="#0D4A7E" fill-rule="nonzero"></path>
                <path d="M56.3519313,60.6266094 C57.1158798,61.2188841 57.6995708,61.9914163 58.111588,62.9270386 L58.6695279,64.2746781 C58.0515021,65.7339056 58.695279,67.1416309 56.5751073,66.8583691 C55.5708155,65.4248927 56.4549356,62.3347639 56.3519313,60.6266094 Z" id="Shape" fill="#FFFFFF" fill-rule="nonzero"></path>
                <path d="M147.261803,61.7596567 C147.44206,64.4206009 147.373391,67.0643777 147.175966,69.7167382 C143.811159,68.2832618 145.407725,63.8969957 147.261803,61.7596567 Z" id="Shape" fill="#FFFFFF" fill-rule="nonzero"></path>
                <path d="M18.2918455,62.9012876 C20.0600858,62.7725322 21.9055794,62.832618 23.6309013,63.2532189 C25.27897,64.3948498 26.4034335,65.8712446 26.3776824,67.9656652 C26.472103,70.4806867 26.9613734,74.5150215 24.9356223,76.4034335 C23.2360515,78.3090129 20.5407725,77.6051502 18.248927,77.8025751 C17.6824034,74.1802575 17.9399142,70.6094421 17.8626609,66.9527897 C17.8712446,65.5536481 17.7682403,64.2317597 18.2918455,62.9012876 Z" id="Shape" fill="#0D4A7E" fill-rule="nonzero"></path>
                <polygon id="Shape" fill="#0D4A7E" fill-rule="nonzero" points="0.909871245 64.7639485 1.3304721 64.5236052 1.57939914 64.9356223 1.15879828 65.1845494"></polygon>
                <path d="M20.4549356,65.6223176 C22.1545064,65.1416309 23.3133047,65.751073 23.9141631,67.4506438 C23.2618026,67.8712446 22.6094421,68.2918455 21.9656652,68.72103 C22,70.0600858 22.0257511,71.3991416 22.0343348,72.7467811 L22.7038627,72.6781116 C22.6180258,71.7081545 22.5236052,70.7467811 22.4377682,69.7854077 C22.9527897,69.0987124 23.4849785,68.4120172 24.0085837,67.7339056 C23.7939914,70.4635193 24.4377682,72.8154506 22.8669528,75.193133 C22.1716738,75.2618026 21.4678112,75.3304721 20.7725322,75.3991416 C20.360515,72.1373391 20.5493562,68.8927039 20.4549356,65.6223176 Z" id="Shape" fill="#FFFFFF" fill-rule="nonzero"></path>
                <path d="M60.0944206,66.3347639 C60.583691,67.193133 61.1845494,67.7424893 60.3519313,68.6351931 C59.27897,68.6695279 58.4120172,68.4377682 57.7424893,67.9484979 C58.3519313,66.583691 59.1416309,66.0429185 60.0944206,66.3347639 Z" id="Shape" fill="#FFFFFF" fill-rule="nonzero"></path>
                <polygon id="Shape" fill="#0D4A7E" fill-rule="nonzero" points="64.5493562 66.2575107 65.0729614 66.2575107 65.0643777 66.7896996 64.5407725 66.7811159"></polygon>
                <path d="M178.16309,67.2532189 C178.360515,68.2403433 178.403433,69.2360515 178.291845,70.248927 C176.077253,70.9184549 175.536481,66.2403433 178.16309,67.2532189 Z" id="Shape" fill="#0D4A7E" fill-rule="nonzero"></path>
                <path d="M61.9828326,68.1373391 L62.3862661,67.9828326 C62.4034335,70.1459227 61.888412,72.2660944 62.9184549,74.223176 C63.8454936,76.4463519 66.2145923,78.0257511 67.5622318,80 L67.4334764,81.2618026 C66.6266094,80.4635193 65.8369099,79.639485 65.0300429,78.8412017 L64.5579399,78.360515 C63.5021459,78.7124464 62.4463519,78.8497854 61.3905579,78.7725322 C61.4849785,77.0214592 61.2017167,75.4678112 62.223176,73.9227468 L61.5708155,73.0987124 C61.5965665,71.4334764 61.7253219,69.776824 61.9828326,68.1373391 Z" id="Shape" fill="#0D4A7E" fill-rule="nonzero"></path>
                <path d="M41.1072961,71.4248927 C41.5107296,73.9914163 40.9270386,76.4034335 40.9699571,78.9699571 C40.9957082,82.8240343 41.0214592,86.6866953 40.9699571,90.5407725 C39.6824034,87.4763948 38.4206009,84.6781116 35.527897,82.7896996 C38.7038627,79.9570815 40.806867,75.6652361 41.1072961,71.4248927 Z" id="Shape" fill="#FFFFFF" fill-rule="nonzero"></path>
                <path d="M58.5493562,71.1072961 L60.3519313,71.6738197 C60.7725322,72.1373391 61.1759657,72.6094421 61.5708155,73.0987124 L62.223176,73.9227468 C61.2017167,75.4678112 61.4849785,77.0214592 61.3905579,78.7725322 C62.4463519,78.8497854 63.5021459,78.7124464 64.5579399,78.360515 L65.0300429,78.8412017 L65.2961373,79.751073 C63.0472103,79.9742489 60.806867,79.9914163 58.5579399,79.9313305 C58.4978541,76.9871245 58.5064378,74.0515021 58.5493562,71.1072961 Z" id="Shape" fill="#FFFFFF" fill-rule="nonzero"></path>
                <path d="M140.729614,73.9742489 C139.974249,76.8497854 141.012876,80.8412017 137.124464,81.4248927 C137.244635,80.1201717 136.669528,79.3562232 135.399142,79.1330472 C137.888412,78.0686695 139.184549,76.0600858 140.729614,73.9742489 Z" id="Shape" fill="#FFFFFF" fill-rule="nonzero"></path>
                <polygon id="Shape" fill="#B0B6BC" fill-rule="nonzero" points="187.416309 74.7467811 188.042918 74.3948498 188.686695 74.7124464 188.695279 75.4077253 188.051502 75.7596567 187.416309 75.4334764 187.416309 74.7467811"></polygon>
                <path d="M157.725322,78.111588 L157.845494,78.5064378 L157.871245,78.6008584 C158.446352,80.6609442 158.961373,82.6351931 160.274678,84.3776824 C163.021459,88.6523605 167.854077,90.7467811 172.540773,92.1630901 C173.562232,92.4978541 174.515021,92.4463519 175.253219,93.1759657 C172.077253,93.5107296 168.858369,93.4849785 165.665236,93.5793991 C163.193133,93.6309013 159.802575,92.7725322 157.630901,94.1287554 C157.759657,97.9914163 157.682403,101.862661 157.553648,105.716738 L156.927039,105.133047 C156.600858,101.133047 157.227468,96.8583691 156.506438,92.8927039 C155.596567,91.0042918 154.360515,88.4978541 152.32618,87.6309013 C155.733906,86.0944206 156.969957,81.4248927 157.725322,78.111588 Z" id="Shape" fill="#FFFFFF" fill-rule="nonzero"></path>
                <path d="M65.0300429,78.8412017 C65.8369099,79.639485 66.6266094,80.4635193 67.4334764,81.2618026 C68.0515021,81.8540773 68.72103,82.3948498 69.416309,82.8927039 C68.4549356,86.3862661 67.9570815,90.5150215 69.1244635,94 C72.4120172,93.9399142 75.6909871,93.8712446 78.9699571,94.1545064 C78.4034335,97.3218884 77.7081545,100.111588 78.7811159,103.296137 C78.583691,104.815451 78.4978541,106.274678 77.6652361,107.622318 C77.5107296,103.639485 77.5107296,99.6137339 77.6223176,95.6309013 C77.639485,95.2875536 77.6566524,94.9356223 77.6738197,94.5922747 C74.3090129,94.5150215 70.9527897,94.6008584 67.5879828,94.5751073 C67.6566524,90.4549356 67.776824,86.3004292 67.5450644,82.1802575 C66.8841202,81.304721 66.0343348,80.5665236 65.2961373,79.751073 L65.0300429,78.8412017 Z" id="Shape" fill="#FFFFFF" fill-rule="nonzero"></path>
                <path d="M100.463519,79.0901288 C102,84.0429185 105.158798,87.1416309 110.540773,87.2532189 C110.866953,90.583691 111.347639,93.8197425 112.017167,97.0901288 C113.072961,102 112.635193,106.472103 115.690987,110.738197 C115.83691,113.201717 115.690987,115.699571 115.665236,118.171674 C110.283262,118.214592 104.901288,118.16309 99.5193133,118.206009 C99.4077253,115.733906 99.416309,113.261803 99.4506438,110.781116 C101.476395,108.497854 101.244635,106.283262 100.918455,103.424893 C97.7596567,103.467811 94.6008584,103.416309 91.4420601,103.459227 C91.1416309,106.214592 90.8755365,108.291845 92.8755365,110.472103 C93.2188841,112.969957 92.944206,115.639485 93.0128755,118.171674 C88.3776824,118.171674 83.7339056,118.180258 79.0987124,118.223176 C79.2703863,115.562232 78.8497854,112.643777 79.3905579,110.060086 C81.4678112,105.93133 82.0171674,100.935622 82.1545064,96.360515 C82.3175966,97.0901288 82.4806867,97.8197425 82.6437768,98.5407725 C82.4206009,94.4120172 83.6051502,90.5236052 83.7253219,86.4463519 C82.8669528,86.4978541 82.0515021,86.7381974 81.2703863,87.167382 C80.806867,92.5493562 79.7424893,97.9742489 78.7811159,103.296137 C77.7081545,100.111588 78.4034335,97.3218884 78.9699571,94.1545064 C79.0214592,91.9742489 79.9828326,89.4506438 79.3218884,87.3390558 C75.8369099,87.0987124 72.5579399,86.1287554 69.2103004,85.2103004 C69.2618026,88.1459227 69.3390558,91.0643777 69.1244635,94 C67.9570815,90.5150215 68.4549356,86.3862661 69.416309,82.8927039 C76.0085837,85.2188841 83.9227468,87.193133 90.8583691,85.6480687 C94.9012876,84.6266094 97.7253219,82.0858369 100.463519,79.0901288 Z" id="Shape" fill="#FFFFFF" fill-rule="nonzero"></path>
                <path d="M39.3304721,80.9613734 C39.8540773,81.7682403 39.9055794,82.7725322 39.4678112,83.9828326 C37.2188841,84.2918455 37.6995708,80.695279 39.3304721,80.9613734 Z" id="Shape" fill="#0D4A7E" fill-rule="nonzero"></path>
                <path d="M98.0171674,82.3776824 C98.583691,86.5407725 99.167382,90.695279 99.8369099,94.8412017 C97.27897,94.8927039 94.72103,94.9012876 92.1630901,94.8927039 C92.2145923,91.7424893 93.193133,88.7725322 93.2274678,85.6137339 C94.8755365,84.6094421 96.472103,83.5450644 98.0171674,82.3776824 Z" id="Shape" fill="#0D4A7E" fill-rule="nonzero"></path>
                <path d="M157.888412,83.304721 C159.922747,87.4592275 163.339056,89.4849785 166.858369,92.1459227 C163.845494,92.2060086 160.824034,92.1888412 157.802575,92.2145923 C157.012876,90.5665236 156.120172,89.1072961 154.978541,87.6652361 C156.060086,86.2832618 156.987124,84.806867 157.888412,83.304721 Z" id="Shape" fill="#0D4A7E" fill-rule="nonzero"></path>
                <path d="M69.2103004,85.2103004 C72.5579399,86.1287554 75.8369099,87.0987124 79.3218884,87.3390558 C79.9828326,89.4506438 79.0214592,91.9742489 78.9699571,94.1545064 C75.6909871,93.8712446 72.4120172,93.9399142 69.1244635,94 C69.3390558,91.0643777 69.2618026,88.1459227 69.2103004,85.2103004 Z" id="Shape" fill="#0D4A7E" fill-rule="nonzero"></path>
                <path d="M95.9399142,85.7682403 C96.7038627,87.7424893 96.5922747,90.0429185 96.7725322,92.1802575 C96.1630901,92.4463519 95.5622318,92.7038627 94.9613734,92.9613734 C95.2274678,90.5579399 95.5193133,88.1545064 95.9399142,85.7682403 Z" id="Shape" fill="#FFFFFF" fill-rule="nonzero"></path>
                <path d="M112.72103,86.7467811 C114.034335,86.1030043 114.987124,86.3690987 115.76824,87.6051502 C114.95279,87.751073 114.111588,87.7854077 113.244635,87.7167382 L112.72103,86.7467811 Z" id="Shape" fill="#0D4A7E" fill-rule="nonzero"></path>
                <path d="M113.244635,87.7167382 C114.111588,87.7854077 114.95279,87.751073 115.76824,87.6051502 C116.969957,87.751073 118.188841,87.8369099 119.407725,87.8626609 C120.103004,93.9227468 119.364807,99.7167382 119.613734,105.811159 C119.133047,106.875536 118.309013,107.819742 117.587983,108.746781 C115.587983,106.291845 115.751073,103.407725 115.090129,100.412017 C114.351931,96.7467811 113.802575,93.0472103 113.098712,89.3733906 C113.150215,88.8240343 113.193133,88.2660944 113.244635,87.7167382 Z" id="Shape" fill="#FFFFFF" fill-rule="nonzero"></path>
                <path d="M18.2060086,88.6008584 C19.9399142,88.5665236 21.7424893,88.4206009 23.4334764,88.8927039 C24.8497854,89.8712446 26.0600858,91.0214592 26.3776824,92.7896996 C27.1759657,96.4892704 27.3733906,101.579399 24.8669528,104.712446 C23.2875536,106.437768 20.360515,106.274678 18.2317597,106.223176 C18.0515021,100.532189 17.4935622,94.3175966 18.2060086,88.6008584 Z" id="Shape" fill="#0D4A7E" fill-rule="nonzero"></path>
                <path d="M118.257511,89.4248927 C118.051502,94.583691 118.300429,99.7339056 118.128755,104.892704 L117.218884,104.429185 C116.32618,99.527897 115.819742,94.5751073 114.635193,89.7167382 C115.83691,89.5793991 117.04721,89.4849785 118.257511,89.4248927 Z" id="Shape" fill="#0D4A7E" fill-rule="nonzero"></path>
                <path d="M20.7811159,91.0386266 C24.0772532,90.9356223 23.8540773,93.6480687 24.2575107,96.1287554 C24.2746781,98.3776824 24.4206009,101.939914 22.5493562,103.536481 C19.4592275,104.266094 21.0729614,101.381974 20.6781116,99.5708155 C20.6523605,96.7296137 20.6008584,93.8712446 20.7811159,91.0386266 Z" id="Shape" fill="#FFFFFF" fill-rule="nonzero"></path>
                <path d="M22.2918455,92.7553648 C23.8969957,94.2832618 23.1845494,97.5536481 23.2618026,99.5965665 C23.3819742,100.755365 22.8240343,101.330472 21.5879828,101.304721 C21.5965665,98.8497854 20.6266094,94.695279 22.2918455,92.7553648 Z" id="Shape" fill="#B0B6BC" fill-rule="nonzero"></path>
                <path d="M177.424893,93.8283262 C180.841202,96.1030043 181.854077,102.901288 177.648069,104.944206 C175.072961,102.549356 176.034335,97.639485 176.085837,94.4549356 C175.922747,93.6137339 176.369099,93.3991416 177.424893,93.8283262 Z" id="Shape" fill="#0D4A7E" fill-rule="nonzero"></path>
                <path d="M58.5579399,94.5922747 C61.5622318,94.5150215 64.5751073,94.5407725 67.5879828,94.5751073 C70.9527897,94.6008584 74.3090129,94.5150215 77.6738197,94.5922747 C77.6566524,94.9356223 77.639485,95.2875536 77.6223176,95.6309013 C72.1974249,95.4077253 66.7982833,95.6137339 61.3733906,95.6223176 C61.5107296,98.5150215 61.4678112,101.356223 61.1330472,104.23176 C60.2746781,104.412017 59.4077253,104.592275 58.5493562,104.772532 C58.5407725,101.381974 58.4892704,97.9828326 58.5579399,94.5922747 Z" id="Shape" fill="#FFFFFF" fill-rule="nonzero"></path>
                <path d="M136.987124,96.472103 C137.502146,96.4549356 138.008584,96.4377682 138.532189,96.4291845 C139.193133,97.7596567 139.596567,98.9098712 139.596567,100.420601 C139.716738,106.403433 139.390558,112.188841 140.274678,118.197425 C139.690987,118.223176 139.11588,118.257511 138.532189,118.283262 C138.55794,114.88412 138.523605,111.476395 138.463519,108.077253 C135.922747,105.2103 137.313305,100.111588 136.987124,96.472103 Z" id="Shape" fill="#FFFFFF" fill-rule="nonzero"></path>
                <path d="M199.236052,103.124464 L199.467811,103.373391 C199.957082,104.420601 200.06867,105.459227 199.819742,106.472103 C198.300429,106.472103 198.712446,103.974249 199.236052,103.124464 Z" id="Shape" fill="#0D4A7E" fill-rule="nonzero"></path>
                <path d="M93.6738197,105.982833 C95.3304721,105.939914 96.9871245,105.982833 98.6437768,105.982833 C98.5064378,107.467811 98.5150215,107.699571 97.304721,108.652361 C97.0729614,111.381974 97.2618026,114.111588 97.1416309,116.841202 C97.1244635,117.939914 96.583691,118.429185 95.5193133,118.32618 C95.5364807,115.167382 95.5193133,112.008584 95.5193133,108.858369 C94.9270386,108.497854 94.3433476,108.137339 93.7682403,107.76824 C93.7167382,107.175966 93.6824034,106.575107 93.6738197,105.982833 Z" id="Shape" fill="#FFFFFF" fill-rule="nonzero"></path>
                <path d="M39.0815451,112.987124 L39.0815451,113.012876 L39.0987124,113.158798 L39.1158798,113.313305 C39.2961373,114.944206 39.3733906,116.575107 39.3819742,118.223176 C38.0171674,118.223176 36.6523605,118.223176 35.2961373,118.223176 C37.0815451,116.72103 38.4806867,115.519313 39.0386266,113.098712 L39.0815451,112.987124 Z" id="Shape" fill="#FFFFFF" fill-rule="nonzero"></path>
                <path d="M158.549356,115.175966 C160.472103,115.67382 161.819742,117.622318 163.622318,118.515021 C161.914163,118.472103 160.154506,118.875536 158.669528,117.93133 C158.600858,117.012876 158.55794,116.094421 158.549356,115.175966 Z" id="Shape" fill="#FFFFFF" fill-rule="nonzero"></path>
                <path d="M3.8111588,121.253219 C5.5193133,120.609442 7.63948498,120.935622 9.44206009,120.858369 C71.5364807,120.866953 133.630901,120.866953 195.725322,120.858369 L196.154506,121.270386 C196.223176,127.93133 196.214592,134.609442 196.120172,141.270386 C132.042918,141.124464 67.9313305,141.201717 3.84549356,141.236052 C3.75965665,134.575107 3.84549356,127.914163 3.8111588,121.253219 Z" id="Shape" fill="#B0B6BC" fill-rule="nonzero"></path>
                <path d="M97.2188841,123.965665 C98.6266094,123.83691 99.7339056,123.690987 100.678112,124.935622 C101.124464,127.2103 100.197425,128.738197 98.0085837,129.433476 C98.2060086,128.549356 98.4978541,127.699571 98.8669528,126.866953 C98.3090129,125.905579 97.7081545,124.95279 97.2188841,123.965665 Z" id="Shape" fill="#0D4A7E" fill-rule="nonzero"></path>
                <path d="M12.72103,125.44206 C12.7639485,126.266094 12.806867,127.081545 12.8497854,127.905579 C11.8798283,127.090129 10.7811159,125.545064 9.4248927,125.630901 C7.60515021,125.991416 8.11158798,127.055794 7.99141631,128.446352 C10.1459227,129.871245 13.8969957,130.583691 13.27897,133.93133 C13.1502146,137.356223 8.29184549,138.669528 5.92274678,136.55794 C5.66523605,135.656652 5.46781116,134.738197 5.3304721,133.802575 C7.57939914,134.618026 7.46781116,136.858369 10.4463519,136.223176 C12.0944206,133.819742 10.1802575,132.592275 8.15450644,131.639485 C5.44206009,130.386266 5.38197425,128.240343 6.59227468,125.733906 L6.97854077,125.44206 C9.00429185,124.515021 10.7467811,124.16309 12.72103,125.44206 Z" id="Shape" fill="#0D4A7E" fill-rule="nonzero"></path>
                <path d="M14.2918455,124.686695 C17.8540773,125.081545 21.3562232,124.969957 24.9184549,124.755365 C24.9184549,125.896996 24.9184549,127.030043 24.9184549,128.16309 C23.5965665,126.755365 23.1587983,125.304721 20.8755365,126.171674 C20.944206,129.270386 20.9012876,132.369099 20.9098712,135.467811 C21.6137339,135.922747 22.3261803,136.377682 23.0386266,136.841202 C21.0987124,137.055794 19.1759657,137.124464 17.2274678,137.107296 C19.0643777,133.939914 18.0600858,129.476395 18.248927,125.914163 C16.2403433,125.725322 15.9227468,126.755365 14.6437768,127.905579 C13.8283262,127.725322 14.3862661,125.373391 14.2918455,124.686695 Z" id="Shape" fill="#0D4A7E" fill-rule="nonzero"></path>
                <path d="M31.9570815,124.944206 C33.8540773,124.901288 35.7596567,124.927039 37.6652361,124.95279 C37.1845494,125.587983 36.7124464,126.223176 36.2403433,126.858369 C36.1630901,129.914163 36.3519313,132.995708 36.1545064,136.042918 C35.4506438,137.914163 33.776824,139.184549 31.8798283,139.716738 C32.4892704,138.300429 33.4592275,137.227468 33.3733906,135.639485 C33.3390558,132.755365 33.5193133,129.896996 33.6051502,127.012876 C33.0643777,126.317597 32.4892704,125.648069 31.9570815,124.944206 Z" id="Shape" fill="#0D4A7E" fill-rule="nonzero"></path>
                <path d="M43.2274678,124.841202 C47.27897,123.467811 51.7081545,127.133047 51.2188841,131.330472 C51.3819742,136.403433 44.5064378,139.639485 40.7982833,136.051502 C36.7982833,132.918455 38.4291845,126.137339 43.2274678,124.841202 Z" id="Shape" fill="#0D4A7E" fill-rule="nonzero"></path>
                <path d="M58.8497854,124.918455 C60.1630901,125.484979 59.751073,126.849785 60.0515021,128.034335 C58.5150215,126.849785 57.8540773,125.399142 55.6051502,125.776824 C55.0386266,127.021459 54.8240343,128.283262 56.223176,129.030043 C57.5793991,129.896996 60.6094421,131.150215 60.6008584,132.995708 C61.0987124,136.566524 56.4034335,138.841202 53.6309013,136.927039 C52.3004292,136.171674 52.7467811,135.072961 52.5064378,133.776824 C54,134.712446 55.1330472,136.077253 56.6351931,137.030043 C58.3090129,135.313305 58.4120172,135.227468 57.6995708,132.918455 C55.9399142,131.793991 52.0944206,130.55794 52.8927039,127.871245 C52.9012876,125.141631 56.7639485,123.922747 58.8497854,124.918455 Z" id="Shape" fill="#0D4A7E" fill-rule="nonzero"></path>
                <path d="M61.9742489,124.935622 C64.7124464,124.927039 67.4506438,124.95279 70.1974249,124.866953 C70.4034335,125.939914 70.4978541,127.038627 70.4806867,128.154506 C68.8412017,126.403433 68.5150215,125.364807 65.7596567,126.008584 C65.7081545,127.493562 65.751073,128.95279 65.8969957,130.437768 C67.6051502,130.420601 68.3776824,129.725322 69.6137339,128.703863 C69.6909871,130.180258 69.7081545,131.648069 69.5965665,133.124464 C69.167382,132.626609 68.7296137,132.120172 68.3004292,131.613734 C67.4248927,131.536481 66.5579399,131.459227 65.6909871,131.381974 C65.6909871,132.686695 65.6566524,134 65.7596567,135.296137 C66.3347639,136.72103 67.9399142,135.948498 69.1416309,136.085837 C69.8283262,135.313305 70.5064378,134.549356 71.2017167,133.785408 C71.1416309,134.875536 71.0815451,135.974249 71.0128755,137.072961 C67.9484979,137.021459 64.8927039,137.158798 61.8283262,137.030043 C62.248927,136.317597 62.6695279,135.60515 63.0901288,134.892704 C62.832618,131.51073 63.9227468,127.76824 61.9742489,124.935622 Z" id="Shape" fill="#0D4A7E" fill-rule="nonzero"></path>
                <path d="M82.7639485,124.832618 C84.6266094,124.892704 86.4806867,124.944206 88.3433476,124.901288 C86.832618,126.686695 87.0214592,127.939914 87.0901288,130.180258 C88.8669528,130.266094 90.5922747,130.291845 92.3347639,129.896996 C92.2660944,127.965665 91.9914163,126.583691 91.0300429,124.918455 C92.7124464,124.918455 94.3948498,124.918455 96.0772532,124.909871 C95.639485,125.459227 95.193133,126.008584 94.7467811,126.55794 C94.8841202,129.83691 93.6223176,134.48927 95.9055794,137.124464 C94.0515021,137.081545 92.2060086,137.081545 90.360515,137.107296 C91.0042918,136.39485 91.6480687,135.690987 92.3004292,134.978541 C92.2060086,133.793991 92.0944206,132.609442 91.9742489,131.433476 C90.3261803,131.27897 88.7124464,131.193133 87.0729614,131.476395 C87.0729614,132.746781 87.0643777,134.025751 87.0643777,135.304721 C87.4849785,135.93133 87.9055794,136.566524 88.3261803,137.193133 C86.3862661,137.167382 84.472103,137.064378 82.5493562,136.815451 C83.1759657,136.454936 83.8111588,136.111588 84.4377682,135.76824 C84.6695279,132.781116 84.5407725,129.83691 84.5493562,126.841202 C83.9742489,126.16309 83.3562232,125.51073 82.7639485,124.832618 Z" id="Shape" fill="#0D4A7E" fill-rule="nonzero"></path>
                <path d="M108.669528,124.901288 C109.656652,125.44206 109.407725,126.961373 109.60515,127.914163 C108.583691,127.484979 107.991416,126.686695 107.304721,125.854077 C106.309013,125.742489 105.519313,125.914163 104.944206,126.360515 C103.785408,129.158798 108.497854,129.665236 109.579399,131.587983 C110.978541,133.536481 109.630901,135.218884 108.626609,136.935622 C106.600858,137.141631 104.635193,137.2103 102.618026,136.909871 C102.463519,135.665236 102.343348,134.420601 102.266094,133.158798 C103.012876,134.128755 103.742489,135.11588 104.472103,136.094421 C105.914163,136.343348 107.253219,136.618026 107.699571,134.815451 C108.480687,132.918455 105.76824,132.291845 104.583691,131.527897 C102.223176,130.798283 101.871245,127.339056 103.476395,125.759657 C104.600858,124.360515 107.107296,124.583691 108.669528,124.901288 Z" id="Shape" fill="#0D4A7E" fill-rule="nonzero"></path>
                <path d="M125.905579,125.064378 C126.051502,126.446352 125.93133,127.793991 125.819742,129.175966 C125.175966,127.879828 124.995708,126.678112 123.60515,126 C120.686695,124.472103 117.751073,127.648069 117.939914,130.472103 C117.871245,132.755365 118.403433,134.961373 120.506438,136.16309 C121.562232,136.403433 122.738197,136.137339 123.811159,136.051502 C124.695279,135.124464 125.493562,134.240343 126.738197,133.828326 C126.412017,134.901288 126.060086,135.957082 125.708155,137.021459 C123.313305,137.055794 120.626609,137.424893 118.309013,136.772532 C114.360515,134.643777 114.034335,128.806867 117.579399,126.137339 C120.197425,124 122.832618,124.532189 125.905579,125.064378 Z" id="Shape" fill="#0D4A7E" fill-rule="nonzero"></path>
                <path d="M131.742489,124.935622 C133.579399,124.429185 135.484979,124.566524 137.150215,125.536481 C139.399142,126.806867 140.23176,129.776824 139.888412,132.197425 C139.390558,136.454936 134,139.081545 130.343348,136.660944 C125.639485,134.008584 126.618026,126.463519 131.742489,124.935622 Z" id="Shape" fill="#0D4A7E" fill-rule="nonzero"></path>
                <path d="M146.712446,124.901288 C146.042918,125.896996 145.158798,126.55794 145.270386,127.871245 C145.244635,130.618026 145.158798,133.424893 145.519313,136.145923 C146.549356,136.128755 147.553648,136.060086 148.566524,135.922747 C149.107296,135.253219 149.639485,134.575107 150.180258,133.905579 L150.454936,134.995708 C151.2103,135.030043 151.957082,135.04721 152.703863,135.055794 C152.515021,132.309013 152.618026,129.562232 152.618026,126.815451 C152.137339,126.171674 151.648069,125.527897 151.167382,124.88412 C153.081545,124.909871 154.987124,124.944206 156.901288,124.978541 C156.369099,125.630901 155.759657,126.291845 155.373391,127.04721 C155.098712,129.974249 155.519313,132.961373 155.459227,135.905579 C158.309013,136.763948 158.866953,135.399142 160.660944,133.699571 C160.652361,134.832618 160.515021,135.965665 160.240343,137.090129 C157.759657,137.055794 155.321888,136.918455 152.858369,137.304721 C151.725322,137.587983 151.038627,136.918455 150.051502,136.480687 C147.630901,137.785408 143.699571,136.892704 140.927039,137.098712 C141.519313,136.600858 142.103004,136.094421 142.695279,135.596567 C142.755365,132.703863 142.832618,129.802575 142.712446,126.909871 C142.523605,126.240343 141.982833,125.716738 141.081545,125.339056 L141.167382,125.313305 C142.961373,124.618026 144.746781,124.935622 146.712446,124.901288 Z" id="Shape" fill="#0D4A7E" fill-rule="nonzero"></path>
                <path d="M182.317597,124.961373 C182.532189,125.957082 182.703863,126.969957 182.832618,127.991416 C181.090129,126.695279 180.008584,125.218884 177.553648,125.699571 C174.137339,127.579399 174.034335,131.776824 175.785408,134.875536 C176.729614,135.905579 178.309013,136.420601 179.545064,137.021459 C180.875536,134.824034 180.32618,133.536481 179.570815,131.304721 C180.841202,131.390558 182.103004,131.467811 183.373391,131.545064 C183.107296,133.021459 182.849785,134.506438 182.592275,135.982833 C183.828326,136.283262 184.901288,136.257511 186.154506,136.085837 C186.703863,133.133047 186.309013,130.017167 186.437768,127.012876 C185.888412,126.317597 185.339056,125.630901 184.781116,124.935622 C187.67382,124.909871 190.566524,124.866953 193.459227,124.987124 C193.51073,125.957082 193.553648,126.935622 193.596567,127.905579 C191.974249,126.652361 191.150215,125.424893 188.832618,125.982833 C188.798283,127.450644 188.841202,128.901288 188.969957,130.360515 C190.643777,130.515021 191.502146,129.682403 192.755365,128.7897 C192.729614,130.188841 192.712446,131.587983 192.695279,132.995708 C192.257511,132.506438 191.828326,132.008584 191.399142,131.519313 C190.549356,131.476395 189.699571,131.433476 188.849785,131.390558 C188.772532,132.866953 188.763948,134.343348 188.781116,135.819742 C189.905579,136.145923 191.090129,136.206009 192.334764,136 C193.04721,135.107296 193.562232,134.206009 194.669528,133.759657 C194.454936,134.88412 194.197425,136 193.871245,137.098712 C191.107296,137.055794 188.454936,136.88412 185.742489,137.562232 C184.137339,137.167382 182.815451,136.472103 181.167382,137.175966 C177.965665,138.39485 172.738197,136.600858 172.017167,132.935622 C171.630901,130.351931 171.871245,127.733906 174.214592,126.154506 C176.729614,124.085837 179.339056,124.600858 182.317597,124.961373 Z" id="Shape" fill="#0D4A7E" fill-rule="nonzero"></path>
                <path d="M73.1330472,125.012876 C75.5793991,125.021459 78.8841202,124.291845 80.8927039,125.948498 C82.3690987,126.866953 82.1030043,129.04721 81.5708155,130.446352 C80.248927,132.55794 77.3562232,131.553648 76.0171674,132.88412 C75.8283262,135.098712 76.4291845,135.742489 77.9141631,137.124464 C76.0343348,137.081545 74.1459227,137.098712 72.2575107,137.133047 C72.6781116,136.55794 73.0987124,135.991416 73.5193133,135.416309 C73.4248927,131.828326 73.7939914,128.540773 73.1330472,125.012876 Z" id="Shape" fill="#0D4A7E" fill-rule="nonzero"></path>
                <path d="M162.257511,124.944206 C163.527897,124.944206 164.806867,124.935622 166.085837,124.927039 C165.484979,126.652361 165.313305,128.309013 165.261803,130.120172 C167.519313,130.429185 167.690987,130.257511 169.124464,128.686695 C169.055794,130.128755 169.012876,131.562232 169.004292,133.004292 C167.974249,131.613734 167.373391,131.055794 165.502146,131.133047 C165.433476,132.746781 165.381974,134.360515 165.339056,135.974249 C168.472103,136.463519 169.150215,135.948498 170.978541,133.60515 C170.95279,134.763948 170.849785,135.922747 170.669528,137.081545 C167.587983,137.081545 164.515021,137.158798 161.44206,137.158798 C161.845494,136.39485 162.669528,135.587983 162.652361,134.695279 C162.712446,131.476395 162.858369,128.120172 162.257511,124.944206 Z" id="Shape" fill="#0D4A7E" fill-rule="nonzero"></path>
                <path d="M166.55794,125.261803 C167.914163,124.755365 168.969957,124.798283 169.733906,125.399142 C170.034335,126.103004 170.085837,126.88412 169.896996,127.742489 C168.763948,126.583691 168.025751,125.991416 166.55794,125.261803 Z" id="Shape" fill="#0D4A7E" fill-rule="nonzero"></path>
                <path d="M43.0300429,126.283262 C44.360515,125.27897 46.3519313,125.553648 47.3133047,126.978541 C48.7038627,129.313305 48.472103,132.609442 47.527897,135.064378 C46.7896996,135.742489 45.7596567,137.038627 44.6695279,136.763948 C43.2188841,135.785408 41.8798283,134.832618 41.7253219,132.944206 C41.5536481,130.849785 41.1845494,127.785408 43.0300429,126.283262 Z" id="Shape" fill="#B0B6BC" fill-rule="nonzero"></path>
                <path d="M76.0686695,125.965665 C80.3004292,125.038627 80.3776824,131.596567 76.223176,131.321888 C76.111588,129.536481 76.0686695,127.759657 76.0686695,125.965665 Z" id="Shape" fill="#B0B6BC" fill-rule="nonzero"></path>
                <path d="M134.875536,125.785408 C137.527897,128.06867 137.04721,130.824034 136.738197,133.965665 C136.300429,135.536481 135.072961,136.051502 133.922747,137.038627 C132.944206,136.317597 131.974249,135.587983 131.004292,134.849785 C130.403433,132.06867 129.622318,129.67382 131.236052,127.021459 C132.171674,125.476395 133.27897,125.665236 134.875536,125.785408 Z" id="Shape" fill="#B0B6BC" fill-rule="nonzero"></path>
                <path d="M27.1158798,135.012876 C27.167382,135.725322 27.2017167,136.437768 27.2188841,137.158798 C26.2918455,137.107296 25.3648069,137.04721 24.4463519,136.995708 C24.4463519,136.343348 24.4549356,135.690987 24.472103,135.038627 C25.2446352,134.360515 26.4463519,133.974249 27.1158798,135.012876 Z" id="Shape" fill="#0D4A7E" fill-rule="nonzero"></path>
            </g>
        </g>
    </g>
</svg>