<?xml version="1.0" encoding="UTF-8"?>
<svg width="200px" height="200px" viewBox="0 0 200 200" version="1.1" xmlns="http://www.w3.org/2000/svg" xmlns:xlink="http://www.w3.org/1999/xlink">
    <!-- Generator: Sketch 51.3 (57544) - http://www.bohemiancoding.com/sketch -->
    <title>st-josephs-me</title>
    <desc>Created with Sketch.</desc>
    <defs></defs>
    <g id="st-josephs-me" stroke="none" stroke-width="1" fill="none" fill-rule="evenodd">
        <g id="st-josephs-me_BGL">
            <g id="Group-28" transform="translate(0.000000, 20.000000)">
                <path d="M156.231667,1.24315942 C140.210238,-0.598869565 113.707857,-0.39684058 78.4197619,11.0071014 L74.3959524,12.311971 L74.3530952,14.3797971 C74.0554762,30.0073333 79.9197619,48.5512174 82.7530952,56.542058 C76.3745238,56.3685507 66.0483333,55.154 52.062619,50.4788116 C39.565,46.3051304 28.6459524,45.9676232 19.612619,49.4853043 C12.5364286,52.2352754 9.21738095,56.4778841 8.83642857,56.9888986 C8.57452381,57.3335362 5.11261905,61.9825797 2.90785714,69.5170725 C2.88404762,69.6002609 2.85547619,69.6882029 2.83166667,69.7713913 L0.000714285714,79.6517971 L7.60785714,72.7043768 C7.85309524,72.4857101 13.6864286,67.2614783 23.3030952,67.7606087 C32.7983333,68.2526087 42.5840476,74.0924348 52.3864286,85.116087 C60.7292857,94.4831014 66.8340476,103.503101 72.7388095,112.228377 C86.617381,132.728377 98.6007143,150.435623 132.236429,160.361188 L134.117381,160.914986 L135.343571,159.381942 C154.122143,135.775449 171.648333,126.879043 187.422143,132.939913 C187.424524,132.939913 198.836429,137.313246 198.836429,137.313246 L195.526905,126.00913 C191.815,113.319333 185.234048,103.80258 181.660238,99.2795072 C185.145952,90.8204348 187.969762,82.9294203 190.122143,75.577942 C194.015,62.3058261 195.755476,50.7545217 195.410238,40.6506957 C195.345952,38.7635072 195.205476,36.8953333 194.99119,35.0865797 C193.679286,23.9963768 189.824524,17.1155072 187.017381,12.0861739 C187.017381,12.0909275 186.243571,10.7076232 186.243571,10.7076232 L186.174524,10.584029 L186.017381,10.3511014 C184.99119,8.8655942 183.750714,8.33081159 181.860238,7.51556522 C180.267381,6.82866667 178.474524,6.15365217 176.534048,5.51904348 C172.376905,4.15475362 165.484048,2.30797101 156.231667,1.24315942" id="Fill-1" fill="#007CC2"></path>
                <path d="M133.059286,157.571762 C143.783095,144.092864 165.035476,121.223183 188.46881,130.226545 L194.390238,132.4964 L192.730714,126.825328 C188.737857,113.175299 181.292619,103.332922 178.311667,99.7677043 C188.378333,75.7191246 193.030714,56.3861391 192.499762,40.7490957 C192.433095,38.8666609 192.295,37.0959362 192.099762,35.4226609 C190.854524,24.9147768 187.225952,18.4237043 184.47119,13.508458 L183.704524,12.1180232 L183.616429,12.0015594 C183.11881,11.2790087 182.616429,11.010429 180.702143,10.1832986 C179.195,9.52967536 177.483095,8.88793623 175.623571,8.27947246 C171.592619,6.95796522 164.897381,5.16584928 155.902143,4.13431304 C140.164048,2.32555942 114.104524,2.52996522 79.3188095,13.7722841 L77.2688095,14.4354145 C76.8878571,34.1890957 86.9211905,59.4165739 86.9211905,59.4165739 C81.2188095,59.6780232 69.042619,59.2145449 51.142619,53.2368638 C22.7211905,43.7415014 11.6259524,58.1140812 11.1711905,58.7320522 C11.1711905,58.7320522 7.74738095,63.1980812 5.62833333,70.5733275 C5.62833333,70.5733275 26.247381,51.354429 54.5664286,83.182313 C82.8854762,115.012574 86.5188095,143.840922 133.059286,157.571762" id="Fill-4" fill="#231F20"></path>
                <path d="M13.5071429,60.4614203 C13.5071429,60.4614203 23.4761905,47.0609565 50.2142857,55.9906377 C76.9547619,64.9250725 91.2261905,61.9017681 91.2261905,61.9017681 C94.0761905,61.5476232 97.0047619,60.7941739 99.6738095,59.9290145 C99.6738095,59.9290145 84.6214286,41.2591594 80.3047619,16.5664638 C146.630952,-4.87 181.116667,13.623971 181.116667,13.623971 C139.714286,21.2725507 125.421429,96.8195072 125.421429,96.8195072 C129.240476,101.145304 132.630952,106.141362 135.561905,111.762522 C137.702381,115.869652 139.414286,119.99342 140.795238,123.891391 C151.283333,116.211913 161.330952,113.412029 169.261905,112.668087 C171.333333,108.268609 173.211905,104.068783 174.911905,100.068609 C174.878571,100.135159 174.85,100.208841 174.821429,100.282522 C174.821429,100.282522 181.221429,107.101594 186.271429,118.127623 C186.271429,118.127623 156.711905,114.381768 135.380952,146.297594 C135.380952,146.297594 107.147619,143.414522 88.5785714,106.764087 C76.297619,82.5301159 45.4333333,44.6627536 13.5071429,60.4614203" id="Fill-6" fill="#B06010"></path>
                <path d="M164.011667,69.7133971 C164.011667,69.7133971 163.523571,66.9990783 165.066429,66.0340928 C165.747381,67.2367594 170.997381,72.6344986 176.21881,73.9821507 C179.059286,73.2572232 180.259286,72.9220928 179.240238,66.2171072 C178.22119,59.5168754 179.487857,48.3529913 179.487857,48.3529913 C179.487857,48.3529913 183.795,47.6565855 184.985476,51.0482957 C185.51881,48.9091652 190.625952,30.7408174 170.62119,24.5611072 C170.62119,24.5611072 140.045,28.8726435 150.711667,73.3451652 C150.711667,73.3451652 150.585476,67.9807014 155.764048,65.1570493 C156.502143,67.1131652 159.599762,70.4811072 164.011667,69.7133971" id="Fill-8" fill="#FFFFFF"></path>
                <path d="M174.554048,77.0249449 C174.554048,77.0249449 168.899286,72.7324232 164.385,72.7324232 C159.870714,72.7324232 156.130238,71.788829 154.563571,68.9437855 C153.223095,70.0632638 151.494524,72.5803072 152.306429,77.3149159 C149.568333,75.900713 143.070714,69.8422203 146.023095,61.6469739 C142.635,64.7415826 137.304048,69.6354377 140.499286,85.942742 C143.694524,102.250046 136.85881,100.793061 135.082619,100.06338 C136.25881,101.42767 143.251667,104.184771 146.504048,97.4393797 C147.168333,98.772771 149.71119,108.149293 139.042143,108.555728 C139.042143,108.555728 154.370714,113.278452 154.873095,98.9938145 C154.873095,98.9938145 161.332619,102.212017 159.030238,110.592655 C160.801667,107.700075 163.027857,104.600713 160.170714,97.3942203 C159.449286,95.568829 160.437381,92.5098725 163.351667,90.736771 C160.849286,86.7080754 158.823095,83.8630319 158.644524,75.2399594 C160.206429,75.5798435 167.173095,77.4337565 170.635,81.6977565 C171.987381,80.9870899 173.780238,79.7392638 174.554048,77.0249449" id="Fill-10" fill="#007CC2"></path>
                <path d="M143.269048,68.7106203 C143.269048,68.7106203 144.614286,79.3563594 154.369048,83.323258 C154.369048,83.323258 150.464286,84.5615768 151.892857,93.7479536 C153.316667,102.931954 148.569048,106.5352 148.569048,106.5352 C148.569048,106.5352 153.211905,99.2146203 145.52381,87.965171 C137.835714,76.7157217 143.269048,68.7106203 143.269048,68.7106203" id="Fill-12" fill="#231F20"></path>
                <path d="M168.215476,83.8304696 C168.215476,83.8304696 166.59881,87.2887304 164.670238,88.5793391 C162.59881,86.751571 161.013095,83.8399768 160.472619,81.6390493 L161.59881,79.7209623 C161.59881,79.7209623 165.24881,82.5374841 168.317857,83.7686725" id="Fill-14" fill="#FFFFFF"></path>
                <path d="M154.701905,21.873171 L150.499524,20.5873159 C150.499524,20.5873159 130.268571,37.9261565 112.423333,76.9248812 C103.818571,75.9598957 96.0614286,75.6936928 89.1090476,75.9289971 C91.1209524,77.9730551 93.0352381,80.1121855 94.8519048,82.3321275 C111.354286,85.783258 120.604286,93.8620406 120.604286,93.8620406 C130.994762,38.8008232 154.701905,21.873171 154.701905,21.873171" id="Fill-16" fill="#231F20"></path>
                <path d="M175.637381,106.006122 C177.315952,108.264093 179.487381,111.472788 181.592143,115.425426 C179.920714,115.563281 178.125476,115.770064 176.239762,116.067165 C175.456429,114.641078 174.437381,113.010586 173.182619,111.415745 C174.027857,109.59273 174.846905,107.783977 175.637381,106.006122" id="Fill-18" fill="#FFFFFF"></path>
                <path d="M166.969286,12.8534087 L164.197857,15.1042493 C164.197857,15.1042493 140.588333,13.8421623 101.340714,24.5116696 C102.595476,32.2862203 104.664524,42.6158435 112.259762,54.0340464 C110.747857,55.5029159 110.266905,55.7144522 110.266905,55.7144522 C110.266905,55.7144522 99.3716667,44.9546261 88.4407143,21.024887 C95.1621429,19.3658725 129.164524,10.0440174 166.969286,12.8534087" id="Fill-20" fill="#FFFFFF"></path>
                <path d="M123.572619,102.062754 L122.765476,105.050406 C122.765476,105.050406 130.477381,117.806754 133.94881,140.892725 C139.053571,134.106928 146.294048,127.371043 151.836905,124.102928 L151.496429,122.05887 C151.496429,122.05887 141.853571,126.641362 138.805952,129.987913 C137.410714,126.812493 132.24881,112.542116 123.572619,102.062754" id="Fill-22" fill="#231F20"></path>
                <path d="M167.764524,42.1827884 C167.843095,42.1732812 167.926429,42.1328754 167.962143,42.023542 C168.024048,41.8072522 167.833571,41.6480058 167.814524,41.6361217 C165.355,40.2837159 161.714524,38.7340348 156.235952,37.8712522 L155.797857,35.4754261 C155.797857,35.4754261 168.462143,37.2128754 176.626429,46.5561217 C176.626429,46.5561217 171.288333,48.1747304 170.697857,55.2885275 C170.426429,58.6350783 170.174048,61.2614551 169.98119,63.1082377 C169.388333,63.4029623 168.885952,63.5836 168.485952,63.6905565 C167.450238,61.9958899 165.588333,60.0017449 162.412143,59.4931072 C162.445476,59.0961797 162.495476,58.7325275 162.552619,58.4021507 C166.12881,57.0378609 170.03119,54.5540928 169.47881,49.7101507 C168.42881,48.2698029 167.090714,47.2168754 165.709762,46.4491652 C165.759762,46.577513 165.800238,46.7129913 165.816905,46.8579768 C165.924048,47.8229623 165.207381,48.6809913 164.219286,48.773687 C163.22881,48.8663826 162.338333,48.1580928 162.233571,47.1907304 C162.143095,46.3921217 162.626429,45.669571 163.359762,45.3938609 C160.743095,44.4645275 158.514524,44.3837159 158.514524,44.3837159 L158.552619,46.0712522 L158.074048,46.1069043 C157.802619,45.429513 157.397857,44.3742087 156.776429,42.7365855 C161.909762,42.9909043 165.345476,44.773513 167.419286,46.3588464 C167.424048,46.3612232 167.709762,46.5751362 168.02881,46.3968754 C168.297857,46.2542667 168.207381,46.0118319 168.166905,45.9286435 C164.902619,40.7947304 157.069286,41.4507304 157.069286,41.4507304 L156.862143,40.0008754 C156.862143,40.0008754 161.357381,39.917687 167.521667,42.1447594 C167.521667,42.1447594 167.638333,42.187542 167.764524,42.1827884" id="Fill-24" fill="#231F20"></path>
                <path d="M103.269524,98.1075014 C95.4766667,89.5081971 87.0052381,85.598342 81.9647619,83.9012986 C87.007619,90.3947478 91.5838095,97.5394435 95.2742857,104.826748 C104.826667,123.677241 116.998095,133.232023 126.188571,138.035559 C116.267143,125.117588 111.998095,107.738342 103.269524,98.1075014" id="Fill-26" fill="#FFFFFF"></path>
            </g>
        </g>
    </g>
</svg>