<?xml version="1.0" encoding="UTF-8"?>
<svg width="200px" height="200px" viewBox="0 0 200 200" version="1.1" xmlns="http://www.w3.org/2000/svg" xmlns:xlink="http://www.w3.org/1999/xlink">
    <!-- Generator: Sketch 51.3 (57544) - http://www.bohemiancoding.com/sketch -->
    <title>st-josephs-li</title>
    <desc>Created with Sketch.</desc>
    <defs></defs>
    <g id="st-josephs-li" stroke="none" stroke-width="1" fill="none" fill-rule="evenodd">
        <g id="st-josephs-li_BGL" transform="translate(0.000000, 40.000000)">
            <g id="st-josephs-li">
                <g id="g10" transform="translate(99.871297, 60.334623) scale(-1, 1) rotate(-180.000000) translate(-99.871297, -60.334623) translate(0.000000, 0.360365)">
                    <g id="g12" transform="translate(0.000000, 0.463320)">
                        <path d="M35.3350076,35.0862797 C35.3350076,35.0892655 35.3342076,35.0925088 35.3342076,35.0945165 C35.3342076,35.1341047 35.3448076,35.1727147 35.3506076,35.2113247 C35.3487076,35.1691111 35.3448076,35.1262797 35.3350076,35.0862797 Z M42.3950054,108.272327 C42.241183,108.149804 42.0873606,108.023678 41.9466141,107.849161 C42.0883387,108.026252 42.2321225,108.165248 42.3950054,108.272327 Z M197.699866,74.2450432 C197.142852,76.9873855 195.876958,80.2630611 194.620845,82.2131254 C192.219815,85.9423402 188.692917,90.4658922 182.688284,92.3541804 C178.512737,93.6679513 174.094719,94.4097788 169.181978,94.6213619 C169.117628,94.6244507 169.032171,94.6259951 168.960099,94.6285691 C169.425993,95.1994828 169.80952,95.9464583 169.80952,96.9652485 C169.80952,97.0785047 169.804886,97.1948496 169.795105,97.3142833 C169.598451,99.7230348 167.141823,101.164991 164.880305,101.167565 C164.611064,101.16808 164.343368,101.110422 164.097293,100.999225 C163.52535,100.740795 162.693432,100.901928 161.812609,101.071812 L161.025993,101.214412 C157.653021,101.751864 154.199224,102.836548 150.761901,104.438607 C146.241438,106.544656 142.193047,108.473614 138.413381,110.747488 C134.696522,112.984296 130.295492,115.495493 125.083137,116.996651 C117.410036,119.206175 106.826767,119.704502 98.7454287,118.236805 C98.7443991,118.23629 97.7281829,118.0175 97.7281829,118.0175 L96.791246,117.816728 C96.7922756,117.817243 96.3011559,117.794592 96.3011559,117.794592 C95.9042447,117.790473 95.4095214,117.78687 94.8607441,117.638607 L93.0918896,117.078504 C92.4751586,116.867436 91.8918896,116.668208 91.3065614,116.522005 L86.0365487,115.305016 C82.7907315,114.58687 79.434747,113.844013 76.0561114,112.757269 L73.6360342,111.918144 C72.1451719,111.381207 70.6023148,110.826252 69.0491617,110.481851 C65.7086213,109.741053 61.8290847,109.627796 57.7235507,109.507333 C55.7549536,109.45019 53.7199472,109.390473 51.7389948,109.255596 L49.8344904,109.116085 C48.2297543,108.993562 46.7145419,108.878247 45.1335381,108.837063 C45.1369358,108.837063 44.8976565,108.856625 44.8976565,108.856625 C44.4548251,108.900898 43.5694198,108.966793 42.7439372,108.505017 C40.1558291,108.44427 39.7214919,107.006947 39.6983774,106.149289 C39.6973478,106.122005 39.6963697,106.094206 39.6963697,106.067436 C39.6963697,104.746458 40.6042718,103.911452 42.3950054,103.584039 C42.3950054,103.584039 42.4549796,103.571683 42.4925601,103.563961 C42.5790466,103.446587 42.6665112,103.328183 42.6665112,103.328183 C43.4950311,102.438093 44.5738985,101.82548 45.7287505,101.351864 C39.6255846,99.7647337 33.8555976,98.2527646 28.5074896,95.8666643 C21.4050445,92.6975524 5.52566267,83.8944638 0.494088019,78.3649916 C0.174348516,78.0149273 0,77.5582992 0,77.0882864 C0,77.0203327 0.00341859966,76.9508346 0.0114623421,76.882881 C0.0703830098,76.3418256 0.358952887,75.8522504 0.803773468,75.5387369 C0.803773468,75.5387369 7.45899595,70.8406675 7.74857123,70.6368065 C11.0581722,67.0656354 15.468571,63.3194321 19.3707588,60.0066909 L21.1514538,58.4926626 L21.6453534,58.0859702 C21.7097034,58.0334606 21.7618013,57.9876433 21.8241436,57.9366781 C21.2087511,56.7444001 20.5075413,55.3132547 20.2324834,53.71274 L20.0062286,52.1400244 L19.8087511,50.7444518 C19.8081334,50.7444518 19.6629596,50.0211056 19.6629596,50.0211056 C19.4954435,49.2416976 19.3255079,48.4453527 19.3255079,47.693641 C19.3255079,47.1979396 19.3995362,46.7211829 19.5976314,46.2811829 C20.3450703,44.6141044 21.9544396,43.1485189 23.4298578,41.9347222 C26.5353404,39.3766271 30.8015436,36.5323543 35.2642462,34.0227019 C35.2632166,33.9557263 35.2511703,33.8929721 35.2511703,33.8250185 C35.2511703,32.0046839 35.6101407,30.099922 35.8771677,28.7522258 C35.7358035,28.3918654 35.666048,28.02785 35.666048,27.6638861 C35.666048,26.3010547 36.5106297,24.9800766 37.0405139,24.1517626 C38.3721483,22.0684679 40.3408484,20.4144654 42.0778883,18.9544912 L42.7570131,18.3814152 C46.9819808,14.7840408 51.0155457,12.2116342 55.7729716,9.45786334 C57.6005134,8.40010275 59.1505777,7.68180161 60.9575274,7.05539236 L62.5935634,6.43238079 C63.789445,5.95577849 65.0275402,5.46311441 66.4674372,5.16147735 L70.0010279,4.39792524 L72.2965233,3.89699862 L78.4499337,2.65645296 L84.1956221,1.50317628 C87.9624174,0.70583782 100.994077,-1.61076444 110.535905,2.08232685 L111.098582,2.30071552 C112.585325,2.87886222 114.124064,3.47590725 115.619045,3.9392277 C115.61956,3.9392277 116.691374,4.21874893 116.691374,4.21874893 C117.297294,4.36494712 117.923807,4.51576823 118.547745,4.75325599 C119.54028,5.1305121 120.106046,5.82610024 120.479791,6.28679521 C120.632687,6.47361631 120.763961,6.63567551 120.877732,6.7257656 C121.33333,7.08473599 121.598967,7.63392516 121.598967,8.21410533 L121.598967,8.35464587 C121.598967,8.8443241 121.41055,9.31428548 121.072326,9.66841675 C119.748774,11.0486999 118.36705,12.3053279 117.031143,13.5207719 C113.624708,16.6214153 110.406175,19.5485195 108.743884,24.0067948 C108.217243,25.4166789 107.955724,27.0378886 107.955724,28.7119684 C107.955724,30.6068976 108.291374,32.5683904 108.955982,34.3671549 C110.133845,37.5494457 111.834746,40.3881071 113.746201,42.3604623 C114.199225,42.8261508 115.259714,43.3821868 116.196136,43.8722769 L116.796908,44.1889822 C120.364476,46.0911185 124.220332,48.0324827 128.238349,49.3349795 C130.188414,49.9654042 132.204372,50.3161377 134.337706,50.6873604 L137.394076,51.2510154 C137.394591,51.2510154 139.199997,51.6365495 139.199997,51.6365495 L142.06795,52.2285701 C143.018787,52.4025727 144.031399,52.4504491 145.102184,52.5039884 L147.096007,52.6259961 C147.096007,52.6265109 147.925865,52.8329459 148.107075,52.8772188 C148.199224,52.8576563 148.302699,52.8355199 148.302699,52.8355199 L148.882879,52.7145418 C150.824707,52.4005135 154.839636,52.0710412 157.574771,52.8298571 C158.875672,53.1907323 160.568851,53.7364208 162.124063,54.7624182 C162.124063,54.7634478 163.316856,55.6030874 163.316856,55.6030874 C163.993303,56.0952367 164.631656,56.5601015 165.313767,56.9055327 C165.314282,56.9055327 166.212094,57.3673087 166.212094,57.3673087 C168.373226,58.4844258 170.239378,59.4496768 172.996135,59.5886729 C174.548258,59.6669226 176.008232,59.3575275 177.354951,59.0120963 C178.881334,58.6213628 180.343367,58.4360346 181.955208,58.432431 C182.214152,57.7616459 182.3758,57.1047605 182.3758,56.3696254 C182.3758,56.1765752 182.364989,55.9768326 182.343367,55.7709124 C182.33616,55.7039883 182.333586,55.6370642 182.333586,55.5711698 C182.333586,54.7582998 182.855079,54.0252239 183.643239,53.7688532 C184.475156,53.4980682 185.281334,53.7039884 186.040665,54.3799214 C186.040665,54.3799214 186.045298,54.3845546 186.047357,54.3871286 C186.106044,54.4252239 186.189442,54.4818519 186.189442,54.4818519 C187.910935,55.6283126 189.69163,56.814413 191.306044,58.3474889 C193.349802,60.2872572 194.903985,62.3464592 196.058168,64.6414398 C197.310162,67.1325595 197.939249,69.543885 197.939249,71.8393804 C197.939249,72.6568836 197.859455,73.4589428 197.699866,74.2450432 Z" id="path14" fill="#E88B0F"></path>
                        <path d="M161.360099,96.1039873 C161.441952,95.7935626 160.841695,95.4584275 160.516341,95.1191739 C159.571167,94.133331 158.528696,92.7166 157.631399,91.8815936 C157.437319,92.760358 156.891116,93.498582 156.294462,94.0643477 C153.804372,96.4200748 149.65611,97.7395085 145.879018,98.7078482 C145.814153,98.1492897 146.507075,97.9655059 146.864861,97.7225201 C148.051991,96.9163425 149.207718,95.9907312 150.382493,95.0486463 C151.086225,94.4849397 151.80952,93.934618 152.564218,93.07799 C152.829855,92.7773465 154.490086,91.3528935 154.112737,90.4746438 C153.974256,90.1534083 152.808748,89.9238073 152.353149,89.9824945 C151.472326,90.094721 150.141566,91.447102 149.39768,92.0226489 C148.388156,92.8046309 147.355981,93.4620311 146.513252,94.1343606 C145.571682,94.8844249 144.721232,95.6993541 143.768336,96.386098 C140.935904,98.4236784 137.55212,100.14929 133.775544,101.240667 C130.179147,102.281079 125.522262,103.2314 121.17992,102.296523 C121.352378,101.772456 122.022133,101.685969 122.446329,101.522777 C125.682365,100.278505 129.069752,98.7449139 132.368594,97.4409242 C128.522005,97.6926617 124.603343,97.3297273 121.884682,95.962932 C121.599997,95.820847 121.030113,95.6622885 121.038864,95.2597145 C121.246329,94.8586849 121.857397,95.0594571 122.166278,95.0486463 C124.902442,94.953923 127.919688,94.5425974 130.891116,94.5559822 C129.390988,87.6061754 133.7323,83.0975526 140.461258,83.5783763 C142.635775,83.7348756 144.086998,84.5328164 145.527409,85.5490326 C146.593561,84.760873 147.389958,83.705532 148.624449,83.0857122 C145.881592,80.5091357 143.059456,78.2918899 139.757525,76.0489041 C138.85611,75.4383508 137.403858,74.2501912 136.379919,74.1498051 C135.453793,74.0581706 134.589958,74.444271 133.775544,74.4308862 C130.233201,74.3711693 127.129469,72.7402813 126.035518,69.7868708 C124.791245,68.3500626 122.859714,66.7037306 122.376316,64.4386084 C121.919688,62.2944643 122.43037,59.696781 124.346972,59.0203331 C126.188414,58.3701401 129.574772,59.0604876 131.664862,59.3729715 C132.467436,59.4918904 133.260228,59.856884 133.846071,59.864606 C134.929212,59.8795352 136.211065,59.1969097 137.224707,58.8092649 C138.362931,58.3747733 139.335904,57.7755455 140.249675,57.4728428 C134.209006,56.8319162 128.299096,56.6151852 123.502185,54.7974246 C118.752121,52.9987117 114.441181,50.7764209 110.484425,48.3948508 C106.458685,45.9723026 102.795879,43.2392267 99.5068186,39.9501148 C96.2872563,36.7299862 93.2046309,32.9585063 92.32947,27.8471036 C92.897295,27.6689311 93.3904739,28.3067689 93.7369346,28.621312 C96.6203322,31.2467946 99.5438843,34.5111446 102.603344,36.7845036 C101.604116,34.0658936 100.919946,31.1562927 101.055339,27.7770907 C101.178376,24.6862799 102.223936,21.7569621 103.306561,19.5439377 C105.601027,14.85462 108.992533,10.9879534 113.299354,8.56581703 C110.398968,8.04113236 107.357011,6.88849404 104.010808,6.73662789 C92.7902165,6.22707835 82.9374497,8.19516067 75.2298565,11.2407719 C73.1809506,15.2988413 71.7117099,19.9927408 71.7117099,25.9475412 C71.7117099,28.0226505 72.3531513,30.3099092 72.978634,32.3511961 C77.0146699,45.5181971 86.5178872,53.4259961 96.620847,60.4983254 C96.9425973,60.723808 97.3971662,60.9425982 97.5361623,61.3425982 C92.4077197,60.8504489 87.9907314,58.6223924 84.3773467,56.0653783 C77.2895734,51.0480811 71.8424692,43.8573992 68.756755,34.533281 C67.5721991,30.9539761 66.7505775,27.1352374 67.2082351,22.4284164 C67.2720704,21.7740535 67.3858413,21.0919428 67.489831,20.3881076 C67.5881579,19.717477 67.5629327,18.9683908 67.7008992,18.3473869 C67.8120961,17.8476701 68.103988,17.2613123 68.2635762,16.6590472 C68.4169867,16.0782493 68.5240652,15.4615183 68.756755,14.9698323 C68.9250948,14.6130756 69.2612595,14.3516599 69.4599725,13.9850704 C70.1070768,12.7907848 70.5039879,11.3348775 71.1485182,10.2553923 C68.0458155,10.6810808 65.4656354,11.8420074 62.8447861,12.7186097 C60.2259959,13.5953665 58.1014142,15.1789958 55.8090076,16.3772969 C51.1778108,18.7968592 47.0378881,21.8351603 42.9309642,24.8916339 C42.9898574,27.8173481 42.4171418,30.0679529 42.2975022,32.9132553 C42.1426502,36.6023157 41.7706553,40.7480556 43.1420839,43.3992782 C44.6412344,52.2295997 49.3679782,58.231144 54.5420836,63.4527655 C59.7436279,68.7042454 66.0180164,72.9369351 71.9933058,77.3863559 C71.8522505,77.6679517 71.7111951,77.9495476 71.5706546,78.2311435 C62.6110666,76.1194318 56.1338467,70.9575272 50.600668,65.4234218 C45.7754429,60.5981967 41.5062023,54.5734864 39.553564,46.9164467 C39.2639887,45.7832678 39.2267686,44.5847608 38.920102,43.3293168 C38.6074122,42.0457132 37.8824701,40.6814919 37.6538472,39.1763182 C32.8949284,42.3222126 28.271814,45.6046835 24.0019556,49.2390721 C24.7792014,49.5700374 24.7490341,50.787695 25.0577085,51.702444 C26.415083,55.7240655 28.9726119,59.296781 31.2494201,62.6084926 C37.7638601,72.0833959 46.3203592,80.2079774 56.7232933,86.0416967 C58.1338467,86.8329451 59.9500629,87.6437559 61.7194322,88.4334598 C62.2666651,88.6785049 63.1531516,88.9817224 63.0563691,89.3482603 C62.9601014,89.7158279 62.354696,89.4888009 61.6489045,89.3482603 C57.795108,88.5842964 54.600256,87.5510918 51.5155714,86.1111948 C48.0809769,84.5086208 45.0122511,82.3109375 42.2271289,80.1307573 C36.4044264,75.5701397 31.7400764,70.2517357 27.6609002,64.1575274 C25.2728951,68.2944642 21.8066404,71.5685954 19.07619,75.4156995 C18.6253277,76.051993 18.1507331,76.6733572 17.6685195,77.3168578 C16.6582235,78.6640907 15.9602055,80.1992258 14.5029083,81.1866132 C14.675212,81.5644767 15.1317371,81.801285 15.4876701,82.030886 C18.1984037,83.7760597 21.1605143,85.4815937 24.0723289,87.1675654 C30.5143879,90.8962654 38.2927146,93.6571405 46.7312215,95.7523786 C49.8344904,96.5230349 52.876704,97.3719409 56.0200758,98.2146694 C57.6128686,98.6424686 60.352122,98.9801777 59.6082353,101.31068 C59.1557257,102.730499 56.1791492,102.78095 55.0347477,103.422391 C61.2241941,103.31068 67.125867,103.134103 71.9227781,104.618273 C75.4038591,105.69575 78.4602297,107.187642 81.8440134,108.419045 C85.8095217,109.860486 90.6126103,110.836548 95.4254802,111.655081 C98.8854544,112.244013 102.451992,112.74131 106.333073,112.92252 C112.276445,113.198453 118.176574,112.516857 122.798453,111.303472 C127.571168,110.051477 131.532043,107.873356 135.324064,105.884682 C143.338478,101.684425 151.015698,97.5608727 161.360099,96.1039873" id="path16" fill="#B3B5B7"></path>
                        <path d="M195.840922,73.8676944 C195.363187,76.2182735 194.228052,79.3194317 193.025993,81.1866132 C190.41441,85.2416967 187.145941,88.9637043 182.118914,90.5451715 C178.214153,91.7734855 173.997936,92.515313 169.100639,92.7263812 C168.463316,92.7541804 167.602055,92.7675652 166.708361,92.7263812 C166.06589,92.6970376 164.721746,92.4416965 164.316598,92.5863555 C163.982493,92.7047596 164.316598,92.8010273 164.527666,93.0079771 C164.973998,93.4476167 165.563445,94.0442705 166.004629,94.4859693 C166.830884,95.3122241 168.018014,95.7709114 167.904758,97.1598431 C167.799738,98.4499332 166.201798,99.2689808 164.879275,99.2705252 C163.508361,98.6507054 162.023677,99.1351327 160.726894,99.3415677 C156.850961,99.9588135 153.167564,101.224708 149.960871,102.718659 C145.594334,104.753151 141.383265,106.746458 137.435775,109.122262 C133.52741,111.473356 129.409006,113.776574 124.558041,115.173742 C117.626252,117.170139 107.28391,117.859971 99.0846822,116.370653 C98.4453,116.253794 97.7786333,116.062803 97.1145407,115.948002 C96.5194313,115.845042 95.9232923,115.960357 95.3549526,115.806947 C94.1688522,115.487771 93.0054031,114.990988 91.7667931,114.681593 C86.6368061,113.39974 81.6998693,112.579663 76.6373211,110.951863 C74.3088785,110.203343 71.9788914,109.188672 69.4599725,108.629598 C64.2491618,107.473871 57.8471028,107.770911 51.867695,107.363189 C49.6334093,107.210808 47.4551339,106.99974 45.1832164,106.940538 C44.6056617,106.925609 43.8646064,107.20669 43.4236283,106.658942 C42.9319423,106.527153 41.6137956,106.802571 41.5938728,106.09678 C41.5745678,105.390988 43.1205652,105.548003 43.6347479,105.181465 C43.7916077,105.069753 43.9420324,104.74234 44.0570903,104.618273 C45.9322511,102.605918 50.0386088,102.246587 52.4308867,101.170654 C44.3868715,98.9353901 36.2994586,97.265892 29.2796904,94.1343606 C22.2862285,91.0136399 6.67068194,82.3330739 1.89732299,77.0882864 L8.99294701,72.0792775 C12.7463575,67.9963947 18.1129468,63.5819804 22.3831655,59.9346188 C22.9854306,59.4213627 23.6486481,58.9683383 24.1433199,58.3171157 C23.508262,56.9915044 22.4219814,55.2509639 22.1026507,53.3909897 C21.9407459,52.4504491 21.8452504,51.4321737 21.6803598,50.4349537 C21.5166533,49.4459704 21.0072582,47.7718907 21.3284422,47.0583772 C21.9417755,45.6895741 23.4827279,44.3474378 24.6354177,43.3992782 C28.3170649,40.367618 33.1094972,37.3467687 37.2315563,35.0949283 C36.9455847,33.1413119 37.4461252,30.5755462 37.7939759,28.8318654 C37.8201278,28.6990984 37.9725602,28.3952631 37.7939759,28.3397676 C37.1796645,27.5289568 37.9307584,26.279536 38.6386091,25.1737445 C39.981878,23.073307 42.1868715,21.3569621 43.9866656,19.8250703 C48.0554428,16.3613896 52.0257387,13.8193562 56.7232933,11.098584 C58.2754168,10.2012867 59.7050178,9.4974515 61.5783768,8.84730995 C63.3266393,8.242059 64.9389945,7.42038591 66.8566264,7.0183782 C68.743885,6.62244514 70.6810793,6.18646059 72.6970381,5.75129973 C76.5559826,4.91895998 80.5508345,4.21512988 84.5884149,3.35967559 C92.4314005,1.69723548 102.688801,1.07906818 109.85122,3.85235512 C111.517114,4.49686475 113.304502,5.20931776 115.058427,5.75129973 C115.977861,6.03603589 116.995106,6.19150564 117.872841,6.52509636 C118.72741,6.85045028 118.998195,7.65868707 119.702442,8.21410533 L119.702442,8.35464587 C115.015699,13.2452506 109.473871,16.6214153 106.966278,23.344195 C105.563447,27.1026505 105.905789,31.5902695 107.176316,35.0249155 C108.416471,38.3731265 110.213125,41.4404108 112.384038,43.6808226 C113.16808,44.4885961 114.640924,45.1886218 115.9027,45.8624956 C119.598453,47.8338212 123.538736,49.8053527 127.654566,51.1392008 C130.695492,52.1240656 133.853793,52.4617748 137.012094,53.1093938 C138.615183,53.4378365 140.140022,53.8043745 141.728182,54.0947219 C143.393561,54.3984542 145.070267,54.3572702 146.935389,54.5168584 C147.325608,54.5503204 147.65508,54.7850694 147.990215,54.7974246 C148.333587,54.811839 148.779404,54.6537953 149.186611,54.587386 C151.352377,54.2368069 154.903986,54.0571415 157.067692,54.6568841 C158.528181,55.0630617 159.882621,55.5567554 161.078503,56.3459445 C162.187898,57.0785057 163.212351,57.9680809 164.457139,58.5981967 C167.082621,59.9279264 169.327151,61.3029586 172.900382,61.4831387 C174.635774,61.5706548 176.255337,61.2525081 177.827023,60.8499341 C179.468721,60.4277977 181.066147,60.2445287 183.174255,60.35727 C183.865118,58.9920191 184.435002,57.5181453 184.229596,55.5727142 C184.523033,55.4769613 184.739249,55.7940784 184.933329,55.9243229 C186.68468,57.0913757 188.443239,58.2450436 189.999995,59.7240654 C191.759069,61.3930487 193.246327,63.2720705 194.363444,65.4934347 C195.502183,67.7595865 196.480304,70.7202042 195.840922,73.8676944" id="path18" fill="#15366F"></path>
                        <path d="M161.360099,96.1039873 C161.441952,95.7935626 160.841695,95.4584275 160.516341,95.1191739 C159.571167,94.133331 158.528696,92.7166 157.631399,91.8815936 C157.437319,92.760358 156.891116,93.498582 156.294462,94.0643477 C153.804372,96.4200748 149.65611,97.7395085 145.879018,98.7078482 C145.814153,98.1492897 146.507075,97.9655059 146.864861,97.7225201 C148.051991,96.9163425 149.207718,95.9907312 150.382493,95.0486463 C151.086225,94.4849397 151.80952,93.934618 152.564218,93.07799 C152.829855,92.7773465 154.490086,91.3528935 154.112737,90.4746438 C153.974256,90.1534083 152.808748,89.9238073 152.353149,89.9824945 C151.472326,90.094721 150.141566,91.447102 149.39768,92.0226489 C148.388156,92.8046309 147.355981,93.4620311 146.513252,94.1343606 C145.571682,94.8844249 144.721232,95.6993541 143.768336,96.386098 C140.935904,98.4236784 137.55212,100.14929 133.775544,101.240667 C130.179147,102.281079 125.522262,103.2314 121.17992,102.296523 C121.352378,101.772456 122.022133,101.685969 122.446329,101.522777 C125.682365,100.278505 129.069752,98.7449139 132.368594,97.4409242 C128.522005,97.6926617 124.603343,97.3297273 121.884682,95.962932 C121.599997,95.820847 121.030113,95.6622885 121.038864,95.2597145 C121.246329,94.8586849 121.857397,95.0594571 122.166278,95.0486463 C124.902442,94.953923 127.919688,94.5425974 130.891116,94.5559822 C129.390988,87.6061754 133.7323,83.0975526 140.461258,83.5783763 C142.635775,83.7348756 144.086998,84.5328164 145.527409,85.5490326 C146.593561,84.760873 147.389958,83.705532 148.624449,83.0857122 C145.881592,80.5091357 143.059456,78.2918899 139.757525,76.0489041 C138.85611,75.4383508 137.403858,74.2501912 136.379919,74.1498051 C135.453793,74.0581706 134.589958,74.444271 133.775544,74.4308862 C130.233201,74.3711693 127.129469,72.7402813 126.035518,69.7868708 C124.791245,68.3500626 122.859714,66.7037306 122.376316,64.4386084 C121.919688,62.2944643 122.43037,59.696781 124.346972,59.0203331 C126.188414,58.3701401 129.574772,59.0604876 131.664862,59.3729715 C132.467436,59.4918904 133.260228,59.856884 133.846071,59.864606 C134.929212,59.8795352 136.211065,59.1969097 137.224707,58.8092649 C138.362931,58.3747733 139.335904,57.7755455 140.249675,57.4728428 C134.209006,56.8319162 128.299096,56.6151852 123.502185,54.7974246 C118.752121,52.9987117 114.441181,50.7764209 110.484425,48.3948508 C106.458685,45.9723026 102.795879,43.2392267 99.5068186,39.9501148 C96.2872563,36.7299862 93.2046309,32.9585063 92.32947,27.8471036 C92.897295,27.6689311 93.3904739,28.3067689 93.7369346,28.621312 C96.6203322,31.2467946 99.5438843,34.5111446 102.603344,36.7845036 C101.604116,34.0658936 100.919946,31.1562927 101.055339,27.7770907 C101.178376,24.6862799 102.223936,21.7569621 103.306561,19.5439377 C105.601027,14.85462 108.992533,10.9879534 113.299354,8.56581703 C110.398968,8.04113236 107.357011,6.88849404 104.010808,6.73662789 C92.7902165,6.22707835 82.9374497,8.19516067 75.2298565,11.2407719 C73.1809506,15.2988413 71.7117099,19.9927408 71.7117099,25.9475412 C71.7117099,28.0226505 72.3531513,30.3099092 72.978634,32.3511961 C77.0146699,45.5181971 86.5178872,53.4259961 96.620847,60.4983254 C96.9425973,60.723808 97.3971662,60.9425982 97.5361623,61.3425982 C92.4077197,60.8504489 87.9907314,58.6223924 84.3773467,56.0653783 C77.2895734,51.0480811 71.8424692,43.8573992 68.756755,34.533281 C67.5721991,30.9539761 66.7505775,27.1352374 67.2082351,22.4284164 C67.2720704,21.7740535 67.3858413,21.0919428 67.489831,20.3881076 C67.5881579,19.717477 67.5629327,18.9683908 67.7008992,18.3473869 C67.8120961,17.8476701 68.103988,17.2613123 68.2635762,16.6590472 C68.4169867,16.0782493 68.5240652,15.4615183 68.756755,14.9698323 C68.9250948,14.6130756 69.2612595,14.3516599 69.4599725,13.9850704 C70.1070768,12.7907848 70.5039879,11.3348775 71.1485182,10.2553923 C68.0458155,10.6810808 65.4656354,11.8420074 62.8447861,12.7186097 C60.2259959,13.5953665 58.1014142,15.1789958 55.8090076,16.3772969 C51.1778108,18.7968592 47.0378881,21.8351603 42.9309642,24.8916339 C42.9898574,27.8173481 42.4171418,30.0679529 42.2975022,32.9132553 C42.1426502,36.6023157 41.7706553,40.7480556 43.1420839,43.3992782 C44.6412344,52.2295997 49.3679782,58.231144 54.5420836,63.4527655 C59.7436279,68.7042454 66.0180164,72.9369351 71.9933058,77.3863559 C71.8522505,77.6679517 71.7111951,77.9495476 71.5706546,78.2311435 C62.6110666,76.1194318 56.1338467,70.9575272 50.600668,65.4234218 C45.7754429,60.5981967 41.5062023,54.5734864 39.553564,46.9164467 C39.2639887,45.7832678 39.2267686,44.5847608 38.920102,43.3293168 C38.6074122,42.0457132 37.8824701,40.6814919 37.6538472,39.1763182 C32.8949284,42.3222126 28.271814,45.6046835 24.0019556,49.2390721 C24.7792014,49.5700374 24.7490341,50.787695 25.0577085,51.702444 C26.415083,55.7240655 28.9726119,59.296781 31.2494201,62.6084926 C37.7638601,72.0833959 46.3203592,80.2079774 56.7232933,86.0416967 C58.1338467,86.8329451 59.9500629,87.6437559 61.7194322,88.4334598 C62.2666651,88.6785049 63.1531516,88.9817224 63.0563691,89.3482603 C62.9601014,89.7158279 62.354696,89.4888009 61.6489045,89.3482603 C57.795108,88.5842964 54.600256,87.5510918 51.5155714,86.1111948 C48.0809769,84.5086208 45.0122511,82.3109375 42.2271289,80.1307573 C36.4044264,75.5701397 29.3500636,66.488544 25.2708874,60.3927913 C22.8818527,64.5307577 21.0971938,65.8193034 16.5051733,69.9938206 C15.9280305,70.5178876 12.3968594,73.1063045 11.9148002,73.7487755 C10.903732,75.0980676 7.94563687,76.9359054 6.48869997,77.9232928 C6.66126109,78.3011563 15.1317371,81.801285 15.4876701,82.030886 C18.1984037,83.7760597 21.1605143,85.4815937 24.0723289,87.1675654 C30.5143879,90.8962654 38.2927146,93.6571405 46.7312215,95.7523786 C49.8344904,96.5230349 52.876704,97.3719409 56.0200758,98.2146694 C57.6128686,98.6424686 60.352122,98.9801777 59.6082353,101.31068 C59.1557257,102.730499 56.1791492,102.78095 55.0347477,103.422391 C61.2241941,103.31068 67.125867,103.134103 71.9227781,104.618273 C75.4038591,105.69575 78.4602297,107.187642 81.8440134,108.419045 C85.8095217,109.860486 90.6126103,110.836548 95.4254802,111.655081 C98.8854544,112.244013 102.451992,112.74131 106.333073,112.92252 C112.276445,113.198453 118.176574,112.516857 122.798453,111.303472 C127.571168,110.051477 131.532043,107.873356 135.324064,105.884682 C143.338478,101.684425 151.015698,97.5608727 161.360099,96.1039873" id="path20" fill="#DADBEB"></path>
                        <path d="M161.360099,96.1039873 C151.015698,97.5608727 143.338478,101.684425 135.324064,105.884682 C131.532043,107.873356 127.571168,110.051477 122.798453,111.303472 C118.176574,112.516857 112.276445,113.198453 106.333073,112.92252 C102.451992,112.74131 98.8854544,112.244013 95.4254802,111.655081 C90.6126103,110.836548 85.8095217,109.860486 81.8440134,108.419045 C78.4602297,107.187642 75.4038591,105.69575 71.9227781,104.618273 C67.125867,103.134103 61.2241941,103.31068 55.0347477,103.422391 C56.1791492,102.78095 59.1557257,102.730499 59.6082353,101.31068 C59.9634477,100.197681 59.521234,99.5423399 58.7917617,99.1114518 C59.6108093,98.9008984 60.4298569,98.6882858 61.2494193,98.6882858 C46.0726372,93.377089 32.035263,86.5477456 17.9973226,79.3389942 C20.2736674,76.6836532 22.1706043,70.9925336 24.0673353,71.7508348 C40.7611315,82.3742579 57.4548248,92.6177583 76.4252233,97.1706539 C71.9202041,94.76808 67.3374501,92.257398 62.9034733,89.5181445 C62.9801786,89.4888009 63.0332031,89.436806 63.0563691,89.3482603 C63.1531516,88.9817224 62.2666651,88.6785049 61.7194322,88.4334598 C61.1232932,88.167308 60.522521,87.8985821 59.9320448,87.6293414 C48.7666912,80.3207187 38.9321998,71.3081063 34.3116594,58.4715558 C33.1734869,55.0568841 37.3467687,51.2632677 39.6229591,47.8486989 C39.72247,47.9876436 39.8266657,48.1249924 39.9272062,48.2645548 C42.0169874,55.2844259 46.0625986,60.8849406 50.600668,65.4234218 C56.1338467,70.9575272 62.6110666,76.1194318 71.5706546,78.2311435 C71.7111951,77.9495476 71.8522505,77.6679517 71.9933058,77.3863559 C71.2967807,76.8679517 70.5961372,76.3521216 69.8939493,75.8373211 C78.1178874,80.8066904 87.0100364,84.5328164 96.1544378,86.5477456 C74.5276687,77.0625463 54.0401531,58.0921478 52.143628,34.5682359 C51.7637053,31.1536672 58.5930487,26.6007201 62.7665364,23.1865116 C64.2841683,37.6041689 73.3899596,49.745224 83.2545668,59.9897025 C90.0833954,67.1979391 98.8097787,72.8890587 108.674901,74.4072053 C103.388929,70.7897022 98.9220052,66.2018001 95.2689809,61.0023151 C96.0087492,61.1510924 96.7639615,61.2684669 97.5361623,61.3425982 C97.3971662,60.9425982 96.9425973,60.723808 96.620847,60.4983254 C95.54234,59.7420834 94.4705253,58.9760603 93.4105511,58.1966523 C88.1894444,49.8121995 84.928698,40.1055846 83.6334599,30.3959323 C82.5595861,23.7333327 81.852765,15.4888542 83.8537946,8.55794058 C85.1680802,8.24664072 86.5240648,7.97075913 87.9150557,7.72864846 C86.4931767,15.760154 88.590474,24.362316 93.2339745,31.0985835 C94.2007698,33.5907328 95.6890581,35.7369875 97.3621597,37.6616722 C98.1915033,40.5168072 99.3487749,43.2356231 100.707333,45.9511958 C102.983781,50.1250953 106.018015,54.2975533 108.294463,58.8514786 C109.053794,59.9897025 110.570911,61.1279264 112.089058,61.8862275 C109.053794,60.7480036 106.398453,59.9897025 104.122005,57.7132547 C111.330242,70.2337177 125.368337,78.960101 140.544655,78.960101 C142.062287,79.3389942 145.476959,79.7178873 145.097551,82.7536659 C138.647616,80.856626 131.059456,80.4772181 126.127153,85.7889296 C125.747745,86.5477456 125.368337,87.6859695 126.127153,88.8241934 C121.573742,88.8241934 117.401284,89.5824945 112.847359,89.9624173 C115.124836,91.1006412 117.020846,92.6177583 119.297294,94.135905 C116.26306,94.515313 112.847359,95.2741289 109.81261,94.8942061 C115.945428,97.5927904 122.554952,99.0203321 129.12638,98.7701391 C126.880306,99.7132536 124.629083,100.683138 122.446329,101.522777 C122.022133,101.685969 121.352378,101.772456 121.17992,102.296523 C125.522262,103.2314 130.179147,102.281079 133.775544,101.240667 C137.55212,100.14929 140.935904,98.4236784 143.768336,96.386098 C144.721232,95.6993541 145.571682,94.8844249 146.513252,94.1343606 C147.355981,93.4620311 148.388156,92.8046309 149.39768,92.0226489 C150.141566,91.447102 151.472326,90.094721 152.353149,89.9824945 C152.808748,89.9238073 153.974256,90.1534083 154.112737,90.4746438 C154.490086,91.3528935 152.829855,92.7773465 152.564218,93.07799 C151.80952,93.934618 151.086225,94.4849397 150.382493,95.0486463 C149.207718,95.9907312 148.051991,96.9163425 146.864861,97.7225201 C146.507075,97.9655059 145.814153,98.1492897 145.879018,98.7078482 C149.65611,97.7395085 153.804372,96.4200748 156.294462,94.0643477 C156.891116,93.498582 157.437319,92.760358 157.631399,91.8815936 C158.528696,92.7166 159.571167,94.133331 160.516341,95.1191739 C160.841695,95.4584275 161.441952,95.7935626 161.360099,96.1039873" id="path22" fill="#FFFFFF"></path>
                        <path d="M103.306561,19.5439377 C102.223936,21.7569621 101.178376,24.6862799 101.055339,27.7770907 C100.919946,31.1562927 101.604116,34.0658936 102.603344,36.7845036 C100.917372,35.5314792 99.273614,33.978429 97.6535368,32.3964471 C95.183524,24.0303211 93.5979385,15.1182493 95.4198174,6.83135118 C98.1786333,6.64453008 101.045043,6.60334604 104.010808,6.73662789 C107.357011,6.88849404 110.398968,8.04113236 113.299354,8.56581703 C108.992533,10.9879534 105.601027,14.85462 103.306561,19.5439377" id="path24" fill="#FFFFFF"></path>
                        <path d="M133.42445,94.3443992 C134.55907,94.3310144 135.520203,94.1425974 136.52046,93.99382 C136.75315,93.1150556 136.50656,92.7227776 136.590988,91.9531509 C136.815441,89.9186593 139.725093,87.4543093 142.079276,88.786613 C142.762931,89.1732281 143.705016,90.0581702 143.205659,91.2489038 C144.142596,90.5204611 145.156753,89.8692384 146.230627,89.2782474 C146.183265,88.9014135 145.696779,88.9199463 145.457397,88.7160853 C145.323034,88.60077 145.320974,88.4041162 145.175801,88.2929193 C144.229597,87.5742578 142.806689,86.820075 141.516599,86.6749013 C140.476187,86.5580416 139.316856,86.9528936 138.350576,87.3081059 C137.479533,87.6283118 136.346457,87.9443993 135.7462,88.4334598 C135.083652,88.9734855 134.633201,90.0427262 134.268208,90.9678227 C133.833201,92.071555 133.666921,93.3317866 133.42445,94.3443992" id="path26" fill="#FFFFFF"></path>
                        <path d="M142.431399,91.8815936 C141.587126,91.8352615 141.323034,91.2077197 140.672326,90.9678227 C139.967564,91.5994829 139.667435,92.6357763 139.334874,93.6411817 C140.667178,93.6164713 141.438349,92.4746438 142.431399,91.8815936" id="path28" fill="#FFFFFF"></path>
                        <path d="M168.889571,83.5783763 C168.970395,83.9840391 168.639893,84.6815938 168.397422,84.915828 C167.769365,85.5212334 165.181978,86.0993543 164.033973,85.8306285 C163.168593,85.6277971 162.271811,84.8437559 161.360099,84.2126105 C160.440665,83.5742579 159.555723,82.9837817 158.686225,82.2414394 C157.378632,81.1253519 156.326894,79.9335887 155.309134,78.6532799 C154.972969,78.2311435 154.412866,77.8471023 154.464861,77.3168578 C157.818786,77.9114524 160.476701,79.342083 162.979147,81.045043 C163.676186,81.5207187 164.789185,82.5935629 165.441437,82.7341035 C165.775028,82.8056607 166.18172,82.6774754 166.426765,82.7341035 C166.53127,82.7124818 166.350575,82.4391228 166.567821,82.3819799 C167.270523,82.9286981 168.705272,82.6522502 168.889571,83.5783763 Z M135.887255,68.1683381 C136.718658,68.5796637 137.878504,68.6640909 139.053278,68.7315298 C137.270009,68.8689815 134.704759,69.4563689 132.931786,68.6610021 C131.74517,68.1281836 131.157783,67.0831386 130.327925,66.3392519 C131.045042,66.5137693 131.695235,66.7526367 132.298066,67.0419546 C137.055338,65.0656354 142.64813,63.5001271 148.975543,64.3685956 C151.696779,64.7413111 154.311965,65.5809507 156.856624,66.3392519 C159.452763,67.1109378 161.975286,68.1513496 164.879275,68.1683381 C166.215697,68.1765749 167.621103,67.9088786 168.960099,67.6051463 C172.872068,66.7181451 176.274384,65.7060473 179.16293,63.8754167 C177.13719,64.2527654 175.109906,64.8921477 172.337705,64.7202043 C168.264603,64.4669225 164.930755,62.4972957 161.711708,61.0610023 C159.709134,60.1678235 158.264604,58.7788917 155.520717,58.5981967 C151.430112,58.3294709 147.607718,59.2339754 144.472068,60.2867424 C143.368851,60.6568839 142.194591,60.8849406 141.16499,61.2720705 C136.483394,63.0311439 131.672584,62.5297282 125.82445,61.9758028 C125.908877,62.5909894 125.866664,63.0311439 126.106046,63.5943356 C126.349546,64.1667938 126.947745,64.5029585 127.091374,64.9307577 C127.225222,65.3286985 127.121747,65.8054038 127.231914,66.1976817 C127.911966,68.6239365 130.647616,71.610809 133.213381,71.8980677 C134.283652,72.0169866 135.771425,71.8471025 137.154179,71.7570124 C138.567822,71.6643483 139.747744,71.4563689 140.953922,71.0532801 C148.240408,75.448132 153.779147,81.5907316 158.545685,88.5050171 C159.277216,88.7346181 159.842982,89.1304997 160.445813,89.4898305 C170.62136,88.7752874 181.198966,88.2295988 186.551347,82.3819799 C187.069236,81.8177586 187.536675,81.0537946 188.030369,80.3418255 C188.500896,79.6617741 189.093432,78.9734858 189.437318,78.3011563 C189.866147,77.4620315 190.15598,76.4483893 190.563187,75.4156995 C190.925092,74.500899 191.354435,73.3395091 191.407975,72.3196893 C191.676186,67.1577847 188.022132,65.0501914 186.480819,61.4831387 C186.131269,61.9866136 186.01338,62.4509637 185.707589,62.8906033 C185.680819,62.9297282 185.702441,62.8571413 185.637576,62.9606162 C184.730497,64.4175016 182.958039,65.5721991 181.345169,66.5503201 C179.620588,67.5953651 177.71737,68.4731 176.067434,69.1536662 C174.060227,69.979921 172.125607,70.3227782 169.874384,70.8416971 C167.689571,71.3467164 165.373998,71.6720703 162.907589,71.4048888 C158.834488,70.9626752 154.639378,69.2097795 150.382493,68.2388657 C146.068465,67.2530228 140.315569,67.6442712 135.887255,68.1683381 Z" id="path30" fill="#EDAE09"></path>
                        <path d="M166.567821,82.3819799 C166.350575,82.4391228 166.53127,82.7124818 166.426765,82.7341035 C166.18172,82.6774754 165.775028,82.8056607 165.441437,82.7341035 C164.789185,82.5935629 163.676186,81.5207187 162.979147,81.045043 C160.476701,79.342083 157.818786,77.9114524 154.464861,77.3168578 C154.412866,77.8471023 154.972969,78.2311435 155.309134,78.6532799 C156.326894,79.9335887 157.378632,81.1253519 158.686225,82.2414394 C159.555723,82.9837817 160.440665,83.5742579 161.360099,84.2126105 C162.271811,84.8437559 163.168593,85.6277971 164.033973,85.8306285 C165.181978,86.0993543 167.769365,85.5212334 168.397422,84.915828 C168.639893,84.6815938 168.970395,83.9840391 168.889571,83.5783763 C168.705272,82.6522502 167.270523,82.9286981 166.567821,82.3819799" id="path32" fill="#15366F"></path>
                        <path d="M140.705273,36.7716336 C141.114025,38.4222384 141.643755,40.7243233 139.557268,40.7243233 C138.193047,40.7243233 137.202571,39.6380428 136.858684,38.2480814 C136.67593,37.5098575 136.573484,36.7716336 136.98481,36.1637057 C137.414668,35.468725 138.810293,34.947335 139.627796,34.6866915 C142.012866,33.9484676 145.21544,32.9498576 146.994591,31.3859452 C148.012866,30.4735642 148.666663,29.38785 148.761386,27.8243494 C148.925093,26.2172452 148.72535,24.4365502 148.294977,22.6990985 L148.252249,22.5255593 C146.478761,15.3591759 142.238864,10.0603344 132.009263,10.0603344 C127.636548,10.0603344 123.248903,10.9725094 120.499868,13.9692146 L122.97194,23.9587124 L133.442468,23.9587124 C132.894205,21.7436803 132.446329,20.0931269 132.613639,19.3112479 C132.79176,18.573024 133.435775,18.0952376 134.238349,18.0952376 C135.682365,18.0952376 136.70064,19.615495 137.033716,20.9616468 C137.979919,24.7840406 135.848645,25.0882877 133.073356,25.8697548 C127.004373,27.6072065 123.77297,29.3010031 125.761129,37.3365242 L125.96499,38.1615949 C127.11454,42.1575279 128.211065,44.1554172 131.588671,46.4571417 C134.337191,48.3248894 137.775029,48.7588662 140.98378,48.7588662 C145.637577,48.7588662 149.522261,47.7599988 152.693432,44.849986 L150.522519,36.0766529 L140.53333,36.0766529 L140.705273,36.7716336" id="path34" fill="#15366F" fill-rule="nonzero"></path>
                        <path d="M139.557268,39.9521226 C138.463832,39.9521226 137.823935,38.9344134 137.608233,38.0628562 C137.419816,37.3025473 137.42445,36.8910673 137.624192,36.5960866 C137.694205,36.4844779 138.033459,36.0422642 139.597937,35.5099605 L139.955724,36.9570647 C140.142596,37.7111445 140.530756,39.2798961 140.149803,39.7673092 C140.054051,39.8897802 139.854823,39.9521226 139.557268,39.9521226 Z M134.418529,24.6889054 L134.042725,23.1732813 C133.637577,21.5454306 133.254566,20.0076185 133.368851,19.4729467 C133.457397,19.1067177 133.792532,18.8674384 134.238349,18.8674384 C135.200511,18.8674384 136.010807,20.0422131 136.284166,21.1474383 C136.884939,23.5748257 136.207976,24.1411062 134.418529,24.6889054 Z M121.351863,14.1966534 C123.602056,11.9635003 127.184553,10.8325351 132.009263,10.8325351 C140.573484,10.8325351 145.497036,14.6068465 147.502699,22.7109389 L147.544913,22.8835001 C147.982493,24.6491114 148.137448,26.3304498 147.993304,27.7461512 C147.916084,29.0054047 147.450189,29.9409002 146.479276,30.81081 C144.81647,32.2723801 141.685968,33.2412347 139.399739,33.9490854 C137.760614,34.4715049 136.757783,35.0625474 136.327925,35.7575281 C135.761644,36.593667 135.898066,37.5814662 136.109134,38.4334611 C136.569366,40.2944134 137.922776,41.4965241 139.557268,41.4965241 C140.549803,41.4965241 141.088285,41.073461 141.365762,40.718712 C142.154951,39.7112474 141.826509,38.1060994 141.519688,36.8488536 L149.918143,36.8488536 L151.832171,44.5827531 C149.099095,46.9338984 145.729726,47.9866655 140.98378,47.9866655 C137.047616,47.9866655 134.200254,47.2979139 132.022648,45.8188406 C128.75418,43.5913503 127.779147,41.6741302 126.707333,37.9480557 L126.510679,37.1504753 C124.711451,29.8801537 127.193304,28.3562412 133.285968,26.6121486 L133.806432,26.4680045 C136.285711,25.7868719 138.849417,25.0826249 137.783266,20.7762157 C137.37194,19.1129982 136.086998,17.3230369 134.238349,17.3230369 C133.078504,17.3230369 132.123549,18.0493689 131.86306,19.13045 C131.68082,19.9818785 131.97889,21.2710934 132.454566,23.1865116 L123.576316,23.1865116 L121.351863,14.1966534 Z M132.009263,9.28813362 C126.526123,9.28813362 122.462803,10.6873614 119.931014,13.4471554 L119.650962,13.7524321 L122.367565,24.7309132 L134.278504,24.7309132 C134.007719,24.8107587 133.714282,24.8916339 133.397165,24.9786866 L132.864347,25.1262799 C126.891631,26.8366016 122.834489,28.7252502 125.01158,37.5216979 L125.215441,38.3470261 C126.380434,42.3990723 127.511451,44.6130748 131.154179,47.0953914 C133.599997,48.7578366 136.723291,49.531067 140.98378,49.531067 C146.271811,49.531067 150.158555,48.2245548 153.215955,45.418892 L153.553149,45.109394 L151.12638,35.3044521 L140.244012,35.3044521 C142.614153,34.5678241 145.686998,33.562985 147.504243,31.9655076 C148.7897,30.8144136 149.432686,29.5145424 149.532043,27.8708359 C149.691631,26.311917 149.523806,24.4483906 149.044527,22.5136674 L149.002313,22.3413122 C146.82831,13.5573742 141.270009,9.28813362 132.009263,9.28813362 Z" id="path36" fill="#E88B0F" fill-rule="nonzero"></path>
                        <path d="M148.44118,17.6174513 C152.423162,17.6606945 152.949803,19.7894461 153.594848,22.3954177 L157.399739,37.7704495 C157.743625,39.1604109 158.207461,40.5503722 157.13925,41.4187377 L158.773226,48.0206423 L171.811064,48.0206423 L170.177087,41.4187377 C168.677988,40.5503722 168.454565,39.1604109 168.110678,37.7704495 L164.262544,22.2212607 C163.488799,19.0938477 162.811322,15.7066663 160.101412,13.1871297 C157.250447,10.581158 154.192532,10.0603344 151.144398,10.0603344 C149.619559,10.0603344 148.170395,10.3639637 146.710421,10.625019 L148.44118,17.6174513" id="path38" fill="#15366F" fill-rule="nonzero"></path>
                        <path d="M147.657654,11.2375287 C148.839121,11.0233717 149.966534,10.8325351 151.144398,10.8325351 C153.733329,10.8325351 156.760871,11.1800255 159.580434,13.7570138 C161.935646,15.9475414 162.659455,18.9116598 163.359069,21.7786867 L163.512995,22.4073096 L167.439893,38.2806683 C167.740536,39.5314276 168.079275,40.9401277 169.502698,41.9063567 L170.824706,47.2484415 L159.377602,47.2484415 L157.993818,41.6582229 C158.907075,40.5678754 158.535389,39.1073349 158.231141,37.9094456 L158.149288,37.5850698 L154.344398,22.2096262 C153.727152,19.7158296 153.090344,17.1412608 149.051219,16.868571 L147.657654,11.2375287 Z M151.144398,9.28813362 C149.740537,9.28813362 148.408233,9.53106797 147.119687,9.76571404 L145.762673,10.0098324 L147.83526,18.3830111 L148.432429,18.389652 C151.817242,18.4268206 152.204372,19.9901668 152.845299,22.5806429 L156.734102,38.2902951 C157.087255,39.6772191 157.194333,40.3794584 156.652248,40.8200762 L156.272326,41.1289565 L158.168851,48.7928431 L172.797422,48.7928431 L170.847872,40.9153658 L170.564217,40.7504752 C169.469751,40.1164469 169.236547,39.1469746 168.941051,37.9190724 L168.860227,37.5850698 L164.859198,21.4126636 C164.141051,18.468468 163.326637,15.1315312 160.627023,12.6218787 C157.393561,9.66640902 153.861,9.28813362 151.144398,9.28813362 Z" id="path40" fill="#E88B0F" fill-rule="nonzero"></path>
                        <path d="M186.033457,36.5976825 C186.409777,38.1179398 187.334873,40.7243233 185.088284,40.7243233 C182.842209,40.7243233 182.47773,38.1179398 182.101411,36.5976825 L178.543625,22.2212607 C178.167821,20.7012093 177.242209,18.0952376 179.488284,18.0952376 C181.734873,18.0952376 182.099352,20.7012093 182.475671,22.2212607 L183.518142,26.434388 L193.868206,26.434388 L190.793818,14.0124063 C187.413638,11.5367822 182.627537,10.1904245 178.262544,10.0603344 C173.937705,9.93003836 170.023677,10.9725094 168.435002,13.1438864 C166.20746,16.1410035 167.295749,20.0498837 168.306302,24.1328694 L171.508876,37.0754688 C172.336675,40.4200762 173.543882,43.677219 176.629597,45.9361121 C179.47284,48.0206423 183.509905,48.9328173 187.518142,48.7588662 C191.567563,48.585327 195.555722,47.1953656 198.393303,44.71969 L195.835259,34.3830622 L185.485195,34.3830622 L186.033457,36.5976825" id="path42" fill="#15366F" fill-rule="nonzero"></path>
                        <path d="M186.553921,48.0077723 C182.857138,48.0077723 179.446585,47.0441172 177.086225,45.3133065 C174.141566,43.1577853 173.025478,39.9911444 172.258426,36.8900892 L168.941566,23.4867433 C168.009262,19.7373483 167.128439,16.1960871 169.054822,13.604221 C170.40257,11.7621619 173.92329,10.6976059 178.239378,10.8319174 C182.637833,10.9636548 187.051218,12.3206175 190.112737,14.4741309 L192.881848,25.6621873 L184.122518,25.6621873 L183.225221,22.036087 C183.190214,21.8945168 183.155208,21.7430625 183.119172,21.5856365 C182.750575,19.9913509 182.134873,17.3230369 179.488284,17.3230369 C178.693947,17.3230369 178.093689,17.5798194 177.70347,18.0859712 C176.923548,19.0990986 177.341051,20.6827279 177.677216,21.9552118 C177.718914,22.113307 177.759069,22.2651217 177.794075,22.4073096 L181.351862,36.7835255 C181.387383,36.9250956 181.421874,37.0758807 181.457911,37.2339759 C181.826508,38.8277983 182.442209,41.4965241 185.088284,41.4965241 C185.882621,41.4965241 186.483393,41.2395356 186.873612,40.732972 C187.654049,39.719896 187.235517,38.1364727 186.899867,36.8637314 C186.858168,36.7058935 186.818013,36.553873 186.783007,36.4123028 L186.472067,35.155263 L195.230883,35.155263 L197.527923,44.4385574 C194.938476,46.5359577 191.308103,47.8233707 187.48468,47.9876436 C187.172711,48.0011314 186.861771,48.0077723 186.553921,48.0077723 Z M177.525864,9.27665356 C172.988927,9.27665356 169.389957,10.5307076 167.811579,12.6878247 C165.453793,15.8604887 166.464861,19.9270008 167.442467,23.8594074 L170.759326,37.2613118 C171.596392,40.6445292 172.832428,44.1131521 176.173998,46.5590722 C179.009005,48.6384029 183.152634,49.7210798 187.551604,49.5304492 C191.89755,49.3442459 196.034487,47.8028302 198.900896,45.3018264 L199.256108,44.991968 L196.439635,33.6108615 L184.498322,33.6108615 L185.283908,36.7835255 C185.320459,36.9323028 185.362672,37.0913762 185.40643,37.2576567 C185.602055,37.9995357 185.966533,39.3796129 185.649931,39.7904752 C185.547486,39.9238085 185.288026,39.9521226 185.088284,39.9521226 C183.775028,39.9521226 183.364217,38.6235254 182.963187,36.8864856 C182.924577,36.7207713 182.888026,36.5616979 182.850961,36.4123028 L179.293174,22.036087 C179.256624,21.8866404 179.21441,21.7276185 179.170652,21.5608746 C178.975028,20.8196649 178.610549,19.4393303 178.926636,19.0285195 C179.030111,18.8951861 179.288541,18.8674384 179.488284,18.8674384 C180.802055,18.8674384 181.21338,20.196087 181.613895,21.9331269 C181.652505,22.0988411 181.689571,22.257863 181.726122,22.4073096 L182.913766,27.2065888 L194.854564,27.2065888 L191.475928,13.5551605 L191.250446,13.3894463 C187.939764,10.9652507 183.093432,9.43171148 178.28571,9.28813362 C178.029854,9.28030865 177.776057,9.27665356 177.525864,9.27665356 Z" id="path44" fill="#E88B0F" fill-rule="nonzero"></path>
                    </g>
                </g>
            </g>
        </g>
    </g>
</svg>