<?xml version="1.0" encoding="UTF-8"?>
<svg width="200px" height="200px" viewBox="0 0 200 200" version="1.1" xmlns="http://www.w3.org/2000/svg" xmlns:xlink="http://www.w3.org/1999/xlink">
    <!-- Generator: Sketch 51.3 (57544) - http://www.bohemiancoding.com/sketch -->
    <title>st-marys-in</title>
    <desc>Created with Sketch.</desc>
    <defs></defs>
    <g id="st-marys-in" stroke="none" stroke-width="1" fill="none" fill-rule="evenodd">
        <g id="st-marys-in_BGL" transform="translate(11.504425, 0.000000)" fill="#18468B">
            <g id="st-marys-in">
                <g id="g10" transform="translate(88.499998, 100.078162) scale(-1, 1) rotate(-180.000000) translate(-88.499998, -100.078162) translate(0.000000, 0.237003)" fill-rule="nonzero">
                    <g id="g12">
                        <polyline id="path14" points="60.8733745 174.805734 0.36047688 174.805734 0.36047688 176.822727 60.8733745 176.822727 60.8733745 174.805734"></polyline>
                        <polyline id="path16" points="174.839184 174.763881 114.326365 174.763881 114.326365 176.780874 174.839184 176.780874 174.839184 174.763881"></polyline>
                        <polyline id="path18" points="175.847731 0 0.36047688 0 0.36047688 4.03398623 175.847731 4.03398623 175.847731 0"></polyline>
                        <path d="M20.298773,130.400118 C20.298773,132.316261 20.298773,133.627307 19.7944995,134.434104 C18.4327594,136.551947 14.8522159,137.358744 12.4819287,137.358744 C8.34673483,137.358744 4.81640185,134.484529 4.81640185,130.147994 C4.81640185,119.204797 24.8878635,128.281771 24.8878635,115.624635 C24.8878635,107.001485 17.1720756,102.866649 9.65784591,102.866649 C6.63200325,102.866649 3.80785486,103.623021 1.03415399,104.782792 C1.23606005,106.698936 1.33671809,109.119328 1.3873421,111.085896 L1.3873421,112.498295 L3.10206864,112.498295 L3.10206864,110.127824 C3.10206864,109.018478 3.20272667,108.060406 3.80785486,107.505733 C5.82536738,105.740864 9.052869,105.186191 11.6246638,105.186191 C16.1633269,105.186191 20.6013371,107.858707 20.6013371,112.850765 C20.6013371,125.054582 0.630931865,113.658066 0.630931865,128.3327 C0.630931865,135.240901 6.48072121,139.628366 12.9862022,139.628366 C16.4154637,139.628366 19.5925884,138.519019 22.7699148,137.308319 C22.6184311,136.502026 22.4167217,135.694725 22.3662943,134.887927 C22.2656413,133.375183 22.0637302,131.912863 22.0135046,130.400118 L20.298773,130.400118" id="path20"></path>
                        <path d="M55.8961952,117.439928 L49.5921714,132.467536 L43.2885511,117.439928 L55.8961952,117.439928 Z M63.813289,110.480798 C64.4693488,108.867203 65.1249044,107.203184 66.3855881,105.992988 C66.9402889,105.48874 67.9992633,105.186191 69.1590923,105.135766 L69.1590923,103.623021 C66.9402889,103.773792 64.7214856,103.875146 62.4517506,103.875146 C60.1825199,103.875146 57.9637165,103.773792 55.7444089,103.623021 L55.7444089,105.135766 C57.0560242,105.186191 58.4175626,105.236616 59.5269643,105.841714 C60.2329472,106.194688 60.2833746,107.001485 59.8799558,107.909132 L56.8038875,115.271661 L42.4817135,115.271661 C41.8763836,113.910191 39.1026777,107.909132 39.1026777,106.799786 C39.1026777,105.135766 41.5738195,105.38789 43.389204,105.135766 L43.389204,103.623021 C41.4731665,103.773792 39.5565238,103.875146 37.5898572,103.875146 C35.6229889,103.875146 33.7065479,103.773792 31.7905103,103.623021 L31.7905103,105.135766 C34.6144419,105.690439 34.9674333,105.236616 36.1776897,107.858707 L38.6488315,113.052968 L45.4571288,128.281771 C47.070804,131.862438 48.7349065,135.54345 50.0461688,139.174542 L51.6597936,139.174542 L63.813289,110.480798 Z" id="path22"></path>
                        <path d="M86.1939551,109.674001 C86.1939551,105.740864 86.1435278,105.38789 90.9845533,105.135766 L90.9845533,103.623021 C88.5640405,103.773792 86.1939551,103.875146 83.7225107,103.875146 C81.2515706,103.875146 78.8814852,103.773792 76.6122545,103.623021 L76.6122545,105.135766 C81.45328,105.38789 81.4028527,105.740864 81.4028527,109.674001 L81.4028527,132.82051 C81.4028527,136.75415 81.45328,137.10662 76.6122545,137.358744 L76.6122545,138.871993 C78.8814852,138.720719 81.2515706,138.619869 83.7225107,138.619869 C86.1939551,138.619869 88.5640405,138.720719 90.9845533,138.871993 L90.9845533,137.358744 C86.1435278,137.10662 86.1939551,136.75415 86.1939551,132.82051 L86.1939551,109.674001" id="path24"></path>
                        <path d="M133.391433,108.867203 L133.391433,133.929856 C133.391433,136.854496 132.483236,137.308319 129.407672,137.308319 L128.60033,137.358744 L128.60033,138.871993 C130.617928,138.720719 132.635022,138.619869 134.652116,138.619869 C136.66921,138.619869 138.686304,138.720719 140.653475,138.871993 L140.653475,137.358744 L139.846638,137.308319 C136.66921,137.308319 135.711091,136.854496 135.711091,133.929856 L135.711091,104.732368 L135.862373,102.866649 L131.878612,103.572092 L107.52069,133.173483 L107.52069,108.564655 C107.52069,105.640015 108.478809,105.186191 111.655732,105.186191 L112.46257,105.135766 L112.46257,103.623021 C110.496407,103.773792 108.478809,103.875146 106.461715,103.875146 C104.444117,103.875146 102.427023,103.773792 100.409929,103.623021 L100.409929,105.135766 L101.216767,105.186191 C104.293339,105.186191 105.200527,105.640015 105.200527,108.564655 L105.200527,133.929856 C105.200527,136.854496 104.394194,137.308319 101.569758,137.358744 L100.863775,137.358744 L100.863775,138.871993 C102.326168,138.720719 103.738134,138.619869 105.250955,138.619869 C106.713852,138.619869 108.125818,138.720719 109.588211,138.871993 L133.391433,108.867203" id="path26"></path>
                        <path d="M159.804774,131.25734 C159.754346,133.173483 159.754346,134.787078 159.603064,136.299823 L151.836748,136.047698 C150.777774,135.997274 150.172142,135.845999 150.071287,134.534954 C149.870082,133.324758 149.567013,132.013712 149.51709,130.652242 L148.00427,130.652242 C148.00427,131.610314 148.00427,132.517961 147.953338,133.476032 C147.902911,135.240901 147.852988,137.006274 147.701201,138.871993 C152.492304,138.720719 157.283406,138.619869 162.225791,138.619869 C167.117244,138.619869 171.908346,138.720719 176.799799,138.871993 C176.648517,137.006274 176.59809,135.240901 176.547662,133.476032 C176.496731,132.517961 176.496731,131.610314 176.496731,130.652242 L174.98391,130.652242 C174.933987,132.013712 174.630919,133.324758 174.429714,134.534954 C174.328859,135.845999 173.723226,135.997274 172.664756,136.047698 L164.797586,136.299823 C164.645799,134.787078 164.645799,133.173483 164.595372,131.25734 L164.595372,109.674001 C164.595372,105.740864 164.545449,105.38789 169.386979,105.135766 L169.386979,103.623021 C166.965962,103.773792 164.595372,103.875146 162.124432,103.875146 C159.653492,103.875146 157.283406,103.773792 155.013671,103.623021 L155.013671,105.135766 C159.855201,105.38789 159.804774,105.740864 159.804774,109.674001 L159.804774,131.25734" id="path28"></path>
                        <path d="M23.5734242,60.8627673 L22.5648772,60.8627673 L8.49463825,90.463654 L8.49463825,66.2077991 C8.49463825,63.283159 9.45295959,62.8293356 12.6300843,62.8293356 L13.4369219,62.7789108 L13.4369219,61.2661659 C11.4700536,61.4169362 9.45295959,61.5182901 7.43546221,61.5182901 C5.41836824,61.5182901 3.40108769,61.4169362 1.38399373,61.2661659 L1.38399373,62.7789108 L2.19102798,62.8293356 C5.26708619,62.8293356 6.17477848,63.283159 6.17477848,66.2077991 L6.17477848,91.5730003 C6.17477848,94.4976403 5.26708619,94.9514637 2.19102798,94.9514637 L1.38399373,95.0018886 L1.38399373,96.5151376 C2.94743822,96.3638632 4.56111339,96.2630135 6.17477848,96.2630135 C7.78865536,96.2630135 9.40233053,96.3638632 10.9657801,96.5151376 L24.2792054,68.4264915 L34.6679957,89.8081313 C35.7775991,92.1276734 36.735517,94.295941 37.3912743,96.5151376 C38.9545221,96.3638632 40.568399,96.2630135 42.1820742,96.2630135 C43.795951,96.2630135 45.4096262,96.3638632 46.9730757,96.5151376 L46.9730757,95.0018886 L46.2166655,95.0018886 C43.1906211,94.9514637 42.2831306,94.4976403 42.2831306,91.5730003 L42.2831306,67.3171453 C42.2831306,63.3840087 42.2327032,63.0310349 47.0739304,62.7789108 L47.0739304,61.2661659 C44.653216,61.4169362 42.2831306,61.5182901 39.8119887,61.5182901 C37.3408469,61.5182901 34.9703581,61.4169362 32.7011274,61.2661659 L32.7011274,62.7789108 C37.5425563,63.0310349 37.4919273,63.3840087 37.4919273,67.3171453 L37.4919273,90.463654 L23.5734242,60.8627673" id="path30"></path>
                        <path d="M70.1086393,75.083073 L63.8047164,90.1106802 L57.5012977,75.083073 L70.1086393,75.083073 Z M78.0262374,68.1239425 C78.6817929,66.510348 79.3378527,64.8463287 80.5985364,63.6361328 C81.1532373,63.1318846 82.2122116,62.8293356 83.3720407,62.7789108 L83.3720407,61.2661659 C81.1532373,61.4169362 78.9339297,61.5182901 76.6646989,61.5182901 C74.3954682,61.5182901 72.1761606,61.4169362 69.9573572,61.2661659 L69.9573572,62.7789108 C71.2689726,62.8293356 72.6300067,62.8797604 73.7399127,63.4848584 C74.4458956,63.8378322 74.4963229,64.6446294 74.0929041,65.5522763 L71.0163316,72.9148054 L56.6944601,72.9148054 C56.0893319,71.5533351 53.3153235,65.5522763 53.3153235,64.4429301 C53.3153235,62.7789108 55.7862636,63.0310349 57.6021524,62.7789108 L57.6021524,61.2661659 C55.6854089,61.4169362 53.7691696,61.5182901 51.802503,61.5182901 C49.8356347,61.5182901 47.9193954,61.4169362 46.0029544,61.2661659 L46.0029544,62.7789108 C48.8270877,63.3335839 49.1800791,62.8797604 50.3905372,65.5018515 L52.8614773,70.696113 L59.6696737,85.9249153 C61.2833489,89.5055823 62.9479557,93.1865948 64.2585625,96.8171824 L65.8722377,96.8171824 L78.0262374,68.1239425 Z" id="path32"></path>
                        <path d="M85.026562,90.463654 C85.026562,94.3972949 85.0764851,94.7497644 80.2354595,95.0018886 L80.2354595,96.5151376 C83.0593911,96.3638632 85.9846816,96.2630135 88.9598952,96.2630135 C91.9351088,96.2630135 94.8603993,96.3638632 97.7851856,96.5151376 C104.74416,96.8681114 107.972519,93.0857451 107.972519,88.8500595 C107.972519,83.3532491 103.030134,80.0756352 98.1386813,79.1175635 L109.586194,64.1908059 C110.393031,63.2327342 111.452006,62.9301853 112.460553,62.7789108 L112.460553,61.2661659 C111.351151,61.4169362 110.191322,61.5182901 109.030989,61.5182901 C107.871664,61.5182901 106.761758,61.4169362 105.602433,61.2661659 C104.795091,62.3250873 104.239886,63.2327342 103.534408,64.0899563 L91.53169,79.5209621 L91.7339037,80.2773346 C93.2966472,80.1764849 94.8603993,80.2269097 96.3732198,80.4790339 C99.9036385,81.0841318 102.929279,83.8070725 102.929279,87.539014 C102.929279,92.9848954 98.8950915,94.5989942 95.1629634,94.5989942 C93.3975019,94.5989942 91.4817669,94.34687 90.1197242,93.9429672 C89.8171601,93.0857451 89.8171601,92.0268237 89.8171601,90.463654 L89.8171601,67.3171453 C89.8171601,63.3840087 89.7667328,63.0310349 94.6082626,62.7789108 L94.6082626,61.2661659 C92.1872456,61.4169362 89.8171601,61.5182901 87.34622,61.5182901 C84.8752799,61.5182901 82.5046902,61.4169362 80.2354595,61.2661659 L80.2354595,62.7789108 C85.0764851,63.0310349 85.026562,63.3840087 85.026562,67.3171453 L85.026562,90.463654" id="path34"></path>
                        <path d="M125.872715,78.7141649 L131.067236,86.9334118 C132.983475,90.1611051 134.849792,93.2874444 136.51339,96.5151376 L140.548082,96.5151376 L140.548082,95.7587652 C136.31168,90.8670527 130.209467,82.3447525 128.14245,77.8564386 C127.537322,76.545393 127.435963,75.2847723 127.435963,74.0745765 L127.435963,67.3171453 C127.435963,63.3840087 127.38604,63.0310349 132.227065,62.7789108 L132.227065,61.2661659 C129.806552,61.4169362 127.435963,61.5182901 124.965023,61.5182901 C122.494082,61.5182901 120.123493,61.4169362 117.854262,61.2661659 L117.854262,62.7789108 C122.695792,63.0310349 122.64486,63.3840087 122.64486,67.3171453 L122.64486,74.7300992 C122.64486,75.1334979 122.64486,75.7385958 122.392723,76.2932689 L116.341442,86.882987 C114.677339,89.7577065 111.601271,94.6993396 108.020425,94.295941 L108.020425,95.7587652 L113.366228,96.8171824 C114.828621,97.0693065 115.585031,96.2125887 116.442296,95.1536673 C117.249134,94.0947459 117.955621,93.0353203 118.6611,91.8755492 L125.872715,78.7141649" id="path36"></path>
                        <path d="M140.546569,83.2523994 L139.790159,83.7566477 C142.008962,87.185536 143.471355,91.068752 143.723492,95.0018886 C144.984176,95.3044375 146.194937,95.7083404 147.354261,96.111739 L148.614945,96.5151376 L149.270501,95.8596149 C147.707757,91.7746996 145.488449,87.8919878 142.765372,84.4630995 L140.546569,83.2523994" id="path38"></path>
                        <path d="M170.947705,88.0432623 C170.947705,89.9594058 170.947705,91.2704513 170.443432,92.0772485 C169.081389,94.1950913 165.501047,95.0018886 163.130962,95.0018886 C158.994911,95.0018886 155.464996,92.1276734 155.464996,87.7911382 C155.464996,76.847942 175.536594,85.9249153 175.536594,73.2677792 C175.536594,64.6446294 167.820705,60.5097935 160.306526,60.5097935 C157.280885,60.5097935 154.456449,61.2661659 151.682945,62.425937 C151.884654,64.3420804 151.985509,66.7624722 152.035936,68.7290405 L152.035936,70.1414399 L153.750466,70.1414399 L153.750466,67.7709687 C153.750466,66.6616225 153.851321,65.7035508 154.456449,65.1488777 C156.473543,63.3840087 159.701398,62.8293356 162.273193,62.8293356 C166.812158,62.8293356 171.250269,65.5018515 171.250269,70.4939094 C171.250269,82.6977263 151.279526,71.3012109 151.279526,85.9758444 C151.279526,92.8840458 157.129099,97.2715101 163.635235,97.2715101 C167.064295,97.2715101 170.241218,96.1621638 173.418645,94.9514637 C173.267363,94.1451707 173.065654,93.3378692 173.015226,92.531072 C172.914372,91.0183271 172.712662,89.5560071 172.662235,88.0432623 L170.947705,88.0432623" id="path40"></path>
                        <path d="M19.0910884,32.4428805 C17.1848842,31.3536033 14.1594449,30.657892 12.2534424,30.657892 C5.56692721,30.657892 0,34.5908269 0,41.7613887 C0,48.7799196 5.65769644,52.7131066 11.6483142,52.7131066 C14.310727,52.7131066 16.9731397,52.0777538 19.514779,51.351132 C19.2122149,49.8384376 19.030626,48.3256928 18.8489867,46.8133513 L17.9716517,46.8133513 C17.880832,48.7497656 18.3648337,49.4456786 16.5799577,50.3224151 C15.3395458,50.928572 13.8872381,51.442401 11.7087766,51.442401 C6.71687248,51.442401 3.26773257,47.9031831 3.26773257,42.4269964 C3.26773257,36.376017 7.20087418,32.201396 13.2821099,32.201396 C15.4603193,32.201396 17.6087765,32.8967039 19.4240098,34.1068998 L19.6962166,33.8047038 L19.0910884,32.4428805" id="path42"></path>
                        <path d="M46.7144339,41.4285344 C46.7144339,47.4184493 44.0217143,51.4121461 38.3945264,51.4121461 C33.1301633,51.4121461 30.7400078,47.7517069 30.7400078,42.7896013 C30.7400078,37.4953978 33.2207812,31.9587013 39.2111973,31.9587013 C44.2639673,32.291959 46.7144339,35.8620872 46.7144339,41.4285344 Z M49.9518193,42.3659319 C49.9518193,35.8620872 44.8690955,30.657892 38.2432443,30.657892 C32.1013445,30.657892 27.5026224,34.8933758 27.5026224,41.7911393 C27.5026224,47.9630878 31.8592428,52.8033671 38.8784777,52.7131066 C45.3530972,52.7131066 49.9518193,49.0820652 49.9518193,42.3659319 Z" id="path44"></path>
                        <path d="M63.2016053,33.7739951 L63.2923745,32.6546143 C64.5631437,32.5039449 66.1057163,32.5039449 67.558024,32.5039449 C69.1918701,32.5039449 70.8559726,32.5644043 72.4293059,33.0176227 C72.5503315,33.2900176 72.6411007,33.6227206 72.73187,33.9859306 L73.4277674,36.5272915 L74.3959725,36.4667817 C74.3052033,36.0431123 74.214434,35.2569893 74.0934084,34.4397541 L73.7605879,31.2633933 C72.7923828,31.1121188 70.8559726,31.1418695 69.0708444,31.1121188 C67.3764855,31.2023288 65.6518702,31.2633933 63.8969984,31.2633933 C62.1426309,31.2633933 60.448272,31.2023288 58.6934002,31.1121188 L58.6934002,32.0197657 C60.1154515,32.2612502 60.3272464,33.1387431 60.3272464,35.5591348 L60.3272464,48.6286451 C60.3272464,50.9885775 60.3575028,51.2003618 57.4528875,51.351132 L57.4528875,52.2587789 C58.8144259,52.1685185 60.2364771,52.1075044 61.7190412,52.1075044 C63.2016053,52.1075044 64.6231522,52.1685185 66.0754599,52.2587789 L66.0754599,51.351132 C63.1708446,51.2003618 63.2016053,50.9885775 63.2016053,48.6286451 L63.2016053,33.7739951" id="path46"></path>
                        <path d="M87.7345106,33.7739951 L87.8252799,32.6546143 C89.0960491,32.5039449 90.6391259,32.5039449 92.0914336,32.5039449 C93.7247754,32.5039449 95.388878,32.5644043 96.9627155,33.0176227 C97.0832369,33.2900176 97.1745104,33.6227206 97.2647753,33.9859306 L97.9606728,36.5272915 L98.9288779,36.4667817 C98.8381086,36.0431123 98.7473394,35.2569893 98.626818,34.4397541 L98.292989,31.2633933 C97.3252882,31.1121188 95.388878,31.1418695 93.6042541,31.1121188 C91.9093909,31.2023288 90.1852798,31.2633933 88.430408,31.2633933 C86.6755363,31.2633933 84.9811774,31.2023288 83.2263056,31.1121188 L83.2263056,32.0197657 C84.6483569,32.2612502 84.8601517,33.1387431 84.8601517,35.5591348 L84.8601517,48.6286451 C84.8601517,50.9885775 84.8904081,51.2003618 81.9862971,51.351132 L81.9862971,52.2587789 C83.3473312,52.1685185 84.7693825,52.1075044 86.2519466,52.1075044 C87.7345106,52.1075044 89.1565619,52.1685185 90.6088695,52.2587789 L90.6088695,51.351132 C87.7042542,51.2003618 87.7345106,50.9885775 87.7345106,48.6286451 L87.7345106,33.7739951" id="path48"></path>
                        <path d="M112.267416,35.2569893 C112.267416,34.1673592 112.297672,33.4416955 112.418698,32.6546143 C113.538185,32.5039449 115.080758,32.5039449 116.53357,32.5039449 C118.167416,32.5039449 119.831014,32.5644043 121.404347,33.0176227 C121.555629,33.4714461 121.707416,34.0166898 121.767424,34.5610762 L122.039732,36.2241375 L123.038194,36.2241375 C122.917168,35.5892889 122.735629,34.742303 122.735629,33.7739951 L122.735629,31.2633933 C121.616142,31.1121188 119.588963,31.1418695 117.71357,31.1121188 C115.927937,31.2023288 114.113057,31.2633933 112.267416,31.2633933 C110.421775,31.2633933 108.636647,31.2023288 106.79151,31.1121188 L106.79151,32.0197657 C108.304331,32.0802251 109.393057,32.7150737 109.393057,34.742303 L109.393057,48.6286451 C109.393057,50.9885775 109.423818,51.2003618 106.518698,51.351132 L106.518698,52.2587789 C108.364843,52.1685185 110.180228,52.1075044 112.055621,52.1075044 C113.931519,52.1075044 115.777159,52.1685185 117.59204,52.2587789 C119.498194,52.2290283 121.585886,52.2587789 122.614604,52.1075044 C122.281783,51.1095971 122.160758,50.14139 122.130501,49.1732837 C122.130501,48.5380317 122.039732,48.0235472 122.039732,47.3882952 L121.101783,47.3882952 C121.071527,48.5681858 120.890493,49.415928 120.678194,50.3533255 C119.22639,50.8065439 117.683313,50.8675579 116.170493,50.8675579 C114.839211,50.8675579 113.41716,50.8675579 112.418698,50.7162834 C112.297672,49.9599614 112.267416,49.2644518 112.267416,48.205127 L112.267416,42.5475117 C118.862809,42.4870524 119.286903,42.1244474 119.317159,45.0894273 L120.315117,45.0894273 L120.315117,38.1004957 L119.317159,38.1004957 C119.317159,41.5187444 119.10486,41.3373159 112.267416,41.0958314 L112.267416,35.2569893" id="path50"></path>
                        <path d="M152.140321,39.4615627 L152.140321,38.7051903 C150.657253,38.4635041 150.92956,36.9805099 151.02033,35.0452554 L151.141355,32.201396 C150.657253,32.0802251 150.203407,31.9289506 149.719304,31.8080319 C147.813654,31.2330376 145.120834,30.657892 143.123911,30.657892 C136.376732,30.657892 130.931082,34.1673592 130.931082,41.6402682 C130.931082,48.5080794 136.074168,52.7131066 143.335706,52.7131066 C145.99827,52.7131066 148.66033,52.0777538 151.201868,51.351132 C150.899304,49.8384376 150.717765,48.3256928 150.536227,46.8133513 L149.659295,46.8133513 C149.568022,48.7497656 150.052124,49.4456786 148.267501,50.3224151 C147.026484,50.928572 145.57468,51.442401 143.396219,51.442401 C137.586988,51.442401 134.168014,47.6912476 134.168014,42.3361813 C134.168014,36.2550479 137.677757,31.9587013 143.910578,31.9587013 C146.239817,31.9587013 147.934176,32.4125247 148.176227,33.1688971 C148.448535,34.076544 148.267501,37.374832 148.206483,37.8584061 C148.115714,38.4932547 146.905458,38.4635041 144.757253,38.5543192 L144.757253,39.4615627 L152.140321,39.4615627" id="path52"></path>
                        <path d="M165.935227,35.2569893 C165.935227,34.1673592 165.965483,33.4416955 166.086509,32.6546143 C167.205996,32.5039449 168.749073,32.5039449 170.20138,32.5039449 C171.835226,32.5039449 173.498825,32.5644043 175.072158,33.0176227 C175.223944,33.4714461 175.375226,34.0166898 175.435739,34.5610762 L175.707543,36.2241375 L176.706508,36.2241375 C176.584978,35.5892889 176.40344,34.742303 176.40344,33.7739951 L176.40344,31.2633933 C175.284457,31.1121188 173.257278,31.1418695 171.38138,31.1121188 C169.596756,31.2023288 167.780868,31.2633933 165.935227,31.2633933 C164.09009,31.2633933 162.304962,31.2023288 160.459321,31.1121188 L160.459321,32.0197657 C161.972141,32.0802251 163.061372,32.7150737 163.061372,34.742303 L163.061372,48.6286451 C163.061372,50.9885775 163.091628,51.2003618 160.187013,51.351132 L160.187013,52.2587789 C162.032654,52.1685185 163.847534,52.1075044 165.723432,52.1075044 C167.599329,52.1075044 169.44497,52.1685185 171.260355,52.2587789 C173.166508,52.2290283 175.254201,52.2587789 176.282919,52.1075044 C175.950098,51.1095971 175.828568,50.14139 175.798816,49.1732837 C175.798816,48.5380317 175.707543,48.0235472 175.707543,47.3882952 L174.770098,47.3882952 C174.739842,48.5681858 174.558303,49.415928 174.346508,50.3533255 C172.894201,50.8065439 171.351124,50.8675579 169.838303,50.8675579 C168.507021,50.8675579 167.08497,50.8675579 166.086509,50.7162834 C165.965483,49.9599614 165.935227,49.2644518 165.935227,48.205127 L165.935227,42.5475117 C172.531124,42.4870524 172.954714,42.1244474 172.98497,45.0894273 L173.983432,45.0894273 L173.983432,38.1004957 L172.98497,38.1004957 C172.98497,41.5187444 172.773175,41.3373159 165.935227,41.0958314 L165.935227,35.2569893" id="path54"></path>
                        <path d="M12.587927,13.8981415 L12.587927,22.9151092 C12.587927,23.9669711 12.2613091,24.1302467 11.1544792,24.1302467 L10.8643202,24.1483492 L10.8643202,24.6929878 C11.5900202,24.6386298 12.3158715,24.6027778 13.0413698,24.6027778 C13.7672715,24.6027778 14.4931227,24.6386298 15.2007193,24.6929878 L15.2007193,24.1483492 L14.9103586,24.1302467 C13.7672715,24.1302467 13.4225501,23.9669711 13.4225501,22.9151092 L13.4225501,12.410004 L13.4771125,11.7389504 L12.0436647,11.9930411 L3.28033941,22.6427143 L3.28033941,13.7886188 C3.28033941,12.7364039 3.62505572,12.5735317 4.76794621,12.5735317 L5.05831697,12.5553788 L5.05831697,12.0111436 C4.35053887,12.0651486 3.62505572,12.1019587 2.89917924,12.1019587 C2.17349943,12.1019587 1.44761791,12.0651486 0.721938102,12.0111436 L0.721938102,12.5553788 L1.01228869,12.5735317 C2.11912866,12.5735317 2.44552977,12.7364039 2.44552977,13.7886188 L2.44552977,22.9151092 C2.44552977,23.9669711 2.15517918,24.1302467 1.13914373,24.1483492 L0.885236986,24.1483492 L0.885236986,24.6929878 C1.41137578,24.6386298 1.91939098,24.6027778 2.46385002,24.6027778 C2.98998881,24.6027778 3.49800402,24.6386298 4.02414281,24.6929878 L12.587927,13.8981415" id="path56"></path>
                        <path d="M29.1590095,18.1972615 C29.1590095,21.7896271 27.5441745,24.1848064 24.1694755,24.1848064 C21.0122696,24.1848064 19.5790234,21.9897632 19.5790234,19.014295 C19.5790234,15.8394974 21.066832,12.5195267 24.6593772,12.5195267 C27.6893549,12.7186543 29.1590095,14.8591883 29.1590095,18.1972615 Z M31.1002608,18.7600026 C31.1002608,14.8591883 28.0521796,11.7389504 24.0788575,11.7389504 C20.3954927,11.7389504 17.6377722,14.2788994 17.6377722,18.4150967 C17.6377722,22.1164304 20.250514,25.0197911 24.4598361,24.9648281 C28.3425403,24.9648281 31.1002608,22.7880891 31.1002608,18.7600026 Z" id="path58"></path>
                        <path d="M37.8203102,21.9535078 C37.802005,22.6427143 37.802005,23.2232049 37.7476444,23.7678435 L34.9534649,23.6774318 C34.5724863,23.6592788 34.3547914,23.6043158 34.3183829,23.1329949 C34.2460701,22.6966689 34.137147,22.2257514 34.1190436,21.7356725 L33.5745795,21.7356725 C33.5745795,22.0805783 33.5745795,22.4067261 33.5566274,22.7516319 C33.5383222,23.3864805 33.5202188,24.0219342 33.4658581,24.6929878 C35.1892128,24.6386298 36.913223,24.6027778 38.6911905,24.6027778 C40.4512058,24.6027778 42.1748126,24.6386298 43.934828,24.6929878 C43.8804673,24.0219342 43.8621622,23.3864805 43.8440083,22.7516319 C43.8261066,22.4067261 43.8261066,22.0805783 43.8261066,21.7356725 L43.2816425,21.7356725 C43.2633374,22.2257514 43.1545656,22.6966689 43.0818998,23.1329949 C43.0456425,23.6043158 42.8279981,23.6592788 42.4470195,23.6774318 L39.6163811,23.7678435 C39.5620204,23.2232049 39.5620204,22.6427143 39.543917,21.9535078 L39.543917,14.1880843 C39.543917,12.7730627 39.5256118,12.6459922 41.267675,12.5553788 L41.267675,12.0111436 C40.3968451,12.0651486 39.543917,12.1019587 38.6549332,12.1019587 C37.7659495,12.1019587 36.913223,12.0651486 36.0967034,12.0111436 L36.0967034,12.5553788 C37.8384136,12.6459922 37.8203102,12.7730627 37.8203102,14.1880843 L37.8203102,21.9535078" id="path60"></path>
                        <path d="M48.0929159,22.5156942 C48.0929159,23.9311191 48.1110193,24.0581392 46.3693091,24.1483492 L46.3693091,24.6929878 C47.385168,24.6386298 48.4376373,24.6027778 49.5082099,24.6027778 C50.5786312,24.6027778 51.63105,24.6386298 52.6834688,24.6929878 C55.1871867,24.819655 56.3485285,23.4591427 56.3485285,21.9354052 C56.3485285,19.9575922 54.5704602,18.7787102 52.8105457,18.4338043 L56.9289473,13.0635602 C57.2194088,12.7186543 57.6006396,12.6097367 57.9632122,12.5553788 L57.9632122,12.0111436 C57.5638276,12.0651486 57.1467934,12.1019587 56.729255,12.1019587 C56.3122208,12.1019587 55.9128362,12.0651486 55.495802,12.0111436 C55.2053405,12.3919015 55.0056482,12.7186543 54.7514944,13.0273551 L50.4334004,18.578574 L50.5060158,18.8508177 C51.0682808,18.8145622 51.63105,18.8326647 52.1751611,18.9234798 C53.445426,19.1413655 54.5341525,20.1210695 54.5341525,21.4638323 C54.5341525,23.4233411 53.0823491,24.0037813 51.7399731,24.0037813 C51.1045885,24.0037813 50.4153475,23.9124115 49.9252441,23.7678435 C49.8165227,23.4591427 49.8165227,23.0784352 49.8165227,22.5156942 L49.8165227,14.1880843 C49.8165227,12.7730627 49.7983688,12.6459922 51.5402808,12.5553788 L51.5402808,12.0111436 C50.6694004,12.0651486 49.8165227,12.1019587 48.9275389,12.1019587 C48.0385552,12.1019587 47.1858287,12.0651486 46.3693091,12.0111436 L46.3693091,12.5553788 C48.1110193,12.6459922 48.0929159,12.7730627 48.0929159,14.1880843 L48.0929159,22.5156942" id="path62"></path>
                        <path d="M63.5767847,14.497138 C63.5767847,13.8435818 63.5949386,13.4078609 63.6670497,12.9359349 C64.338742,12.8451198 65.2640838,12.8451198 66.1349642,12.8451198 C67.1147676,12.8451198 68.1127248,12.8819804 69.0557162,13.1543753 C69.1469897,13.4262155 69.2372547,13.7529684 69.2740666,14.0791666 L69.436947,15.0770235 L70.0355196,15.0770235 C69.9634085,14.6962657 69.8539812,14.1880843 69.8539812,13.6075936 L69.8539812,12.1019587 C69.1827931,12.0111436 67.967494,12.0292965 66.8424599,12.0111436 C65.7718872,12.0651486 64.683665,12.1019587 63.5767847,12.1019587 C62.4699044,12.1019587 61.3993318,12.0651486 60.2924515,12.0111436 L60.2924515,12.5553788 C61.1996395,12.5910291 61.8526737,12.9727955 61.8526737,14.1880843 L61.8526737,22.5156942 C61.8526737,23.9311191 61.8708275,24.0581392 60.1290669,24.1483492 L60.1290669,24.6929878 C61.2359472,24.6386298 62.3246737,24.6027778 63.4497078,24.6027778 C64.5742377,24.6027778 65.681118,24.6386298 66.7698445,24.6929878 C67.9130325,24.6748853 69.1646393,24.6929878 69.7818701,24.6027778 C69.5821777,24.0037813 69.5095624,23.4233411 69.4914085,22.8420437 C69.4914085,22.4616892 69.436947,22.1526354 69.436947,21.7715246 L68.874682,21.7715246 C68.8565282,22.4798421 68.7476051,22.9872167 68.6205282,23.5503612 C67.7496479,23.8222015 66.824306,23.8584065 65.917118,23.8584065 C65.1188531,23.8584065 64.2661266,23.8584065 63.6670497,23.7678435 C63.5949386,23.31402 63.5767847,22.8970067 63.5767847,22.2621581 L63.5767847,18.8689202 C67.5318017,18.8326647 67.7859556,18.6154346 67.8041094,20.3929098 L68.4026821,20.3929098 L68.4026821,16.201951 L67.8041094,16.201951 C67.8041094,18.2522245 67.6770325,18.1433069 63.5767847,17.9981338 L63.5767847,14.497138" id="path64"></path>
                        <path d="M83.2162201,14.478027 C83.2162201,13.9524995 83.2162201,13.4078609 83.2888355,12.9359349 C83.7966389,12.8638274 84.34075,12.8270173 84.9942885,12.8094695 C89.6209978,12.6824493 91.1812199,15.2586538 91.1812199,18.578574 C91.1812199,22.4067261 88.8227328,23.876156 85.7017842,23.876156 C84.9035192,23.876156 84.1052543,23.8040485 83.2888355,23.7678435 C83.234374,23.3502251 83.2162201,22.8787025 83.2162201,22.2257514 L83.2162201,14.478027 Z M81.5107672,22.2978085 C81.5107672,24.0037813 81.3473826,24.1126989 79.913733,24.1302467 L79.913733,24.6929878 C81.0750749,24.6386298 82.2364167,24.6027778 83.4340663,24.6027778 C84.6312116,24.6027778 85.7925534,24.6386298 86.9538953,24.6929878 C90.3284935,24.729445 93.0863652,22.6427143 93.0863652,19.1232126 C93.0863652,14.7508253 89.7294166,11.7207974 85.375015,12.0111436 C84.57675,12.0651486 83.7784851,12.1019587 82.9620663,12.1019587 C82.1456475,12.1019587 81.3473826,12.0651486 80.5491176,12.0111436 L80.5491176,12.5553788 C81.2021518,12.6824493 81.5107672,12.8638274 81.5107672,13.6440508 L81.5107672,22.2978085 Z" id="path66"></path>
                        <path d="M103.181416,16.982124 L100.913194,22.3886236 L98.6454762,16.982124 L103.181416,16.982124 Z M106.029553,14.478027 C106.266057,13.8981415 106.502057,13.2995484 106.955399,12.8638274 C107.154587,12.6824493 107.535818,12.5735317 107.953356,12.5553788 L107.953356,12.0111436 C107.154587,12.0651486 106.356826,12.1019587 105.539903,12.1019587 C104.723485,12.1019587 103.924715,12.0651486 103.126955,12.0111436 L103.126955,12.5553788 C103.59845,12.5735317 104.088604,12.5910291 104.487989,12.8094695 C104.741638,12.9359349 104.760297,13.2268862 104.615066,13.5532357 L103.507681,16.201951 L98.3550146,16.201951 C98.1371685,15.7124772 97.1392112,13.5532357 97.1392112,13.1543753 C97.1392112,12.5553788 98.0282454,12.6459922 98.6812796,12.5553788 L98.6812796,12.0111436 C97.992442,12.0651486 97.3031001,12.1019587 96.5951001,12.1019587 C95.8876044,12.1019587 95.1977583,12.0651486 94.5089207,12.0111436 L94.5089207,12.5553788 C95.5245275,12.7549098 95.6516044,12.5910291 96.0867925,13.5345281 L96.9758266,15.4032218 L99.4255873,20.8833416 C100.006006,22.1707883 100.604579,23.4953981 101.076579,24.8019054 L101.656997,24.8019054 L106.029553,14.478027 Z" id="path68"></path>
                        <path d="M118.264236,11.8659705 L117.901664,11.8659705 L112.839262,22.5156942 L112.839262,13.7886188 C112.839262,12.7364039 113.184185,12.5735317 114.327373,12.5735317 L114.61733,12.5553788 L114.61733,12.0111436 C113.909835,12.0651486 113.184185,12.1019587 112.458536,12.1019587 C111.732382,12.1019587 111.006732,12.0651486 110.281083,12.0111436 L110.281083,12.5553788 L110.571544,12.5735317 C111.67792,12.5735317 112.00469,12.7364039 112.00469,13.7886188 L112.00469,22.9151092 C112.00469,23.9669711 111.67792,24.1302467 110.571544,24.1302467 L110.281083,24.1483492 L110.281083,24.6929878 C110.843348,24.6386298 111.424271,24.6027778 112.00469,24.6027778 C112.585108,24.6027778 113.166031,24.6386298 113.728296,24.6929878 L118.51839,14.5869446 L122.256065,22.279706 C122.65545,23.1142873 123.000373,23.8942585 123.235869,24.6929878 C123.798638,24.6386298 124.378552,24.6027778 124.959476,24.6027778 C125.540399,24.6027778 126.120817,24.6386298 126.683082,24.6929878 L126.683082,24.1483492 L126.410775,24.1483492 C125.322048,24.1302467 124.996287,23.9669711 124.996287,22.9151092 L124.996287,14.1880843 C124.996287,12.7730627 124.977125,12.6459922 126.71939,12.5553788 L126.71939,12.0111436 C125.84851,12.0651486 124.996287,12.1019587 124.106749,12.1019587 C123.217715,12.1019587 122.364988,12.0651486 121.54857,12.0111436 L121.54857,12.5553788 C123.29033,12.6459922 123.272176,12.7730627 123.272176,14.1880843 L123.272176,22.5156942 L118.264236,11.8659705" id="path70"></path>
                        <path d="M132.713185,14.497138 C132.713185,13.8435818 132.731339,13.4078609 132.803954,12.9359349 C133.475646,12.8451198 134.400988,12.8451198 135.271868,12.8451198 C136.251672,12.8451198 137.249629,12.8819804 138.193125,13.1543753 C138.28339,13.4262155 138.374663,13.7529684 138.410467,14.0791666 L138.573851,15.0770235 L139.172928,15.0770235 C139.100313,14.6962657 138.99139,14.1880843 138.99139,13.6075936 L138.99139,12.1019587 C138.319697,12.0111436 137.104398,12.0292965 135.979364,12.0111436 C134.909296,12.0651486 133.820569,12.1019587 132.713185,12.1019587 C131.606809,12.1019587 130.536236,12.0651486 129.42986,12.0111436 L129.42986,12.5553788 C130.336544,12.5910291 130.990082,12.9727955 130.990082,14.1880843 L130.990082,22.5156942 C130.990082,23.9311191 131.007732,24.0581392 129.266475,24.1483492 L129.266475,24.6929878 C130.373356,24.6386298 131.461578,24.6027778 132.586612,24.6027778 C133.711646,24.6027778 134.818527,24.6386298 135.906749,24.6929878 C137.049937,24.6748853 138.302048,24.6929878 138.918774,24.6027778 C138.719082,24.0037813 138.646971,23.4233411 138.628313,22.8420437 C138.628313,22.4616892 138.573851,22.1526354 138.573851,21.7715246 L138.011586,21.7715246 C137.993432,22.4798421 137.884509,22.9872167 137.757432,23.5503612 C136.886552,23.8222015 135.96121,23.8584065 135.054527,23.8584065 C134.255757,23.8584065 133.402527,23.8584065 132.803954,23.7678435 C132.731339,23.31402 132.713185,22.8970067 132.713185,22.2621581 L132.713185,18.8689202 C136.66921,18.8326647 136.92286,18.6154346 136.941014,20.3929098 L137.540091,20.3929098 L137.540091,16.201951 L136.941014,16.201951 C136.941014,18.2522245 136.813937,18.1433069 132.713185,17.9981338 L132.713185,14.497138" id="path72"></path>
                        <path d="M145.472817,14.0791666 C144.891894,12.4464611 143.858133,10.9945791 142.805714,9.6341172 L142.061407,9.28921138 L141.807253,9.48949879 C142.605518,10.7954514 143.314022,12.2290293 143.440595,13.7886188 C143.893937,13.8981415 144.347783,14.024607 144.783475,14.1880843 L145.218663,14.3332573 L145.472817,14.0791666" id="path74"></path>
                        <path d="M157.78062,14.1880843 C157.78062,12.7730627 157.76297,12.6459922 159.504227,12.5553788 L159.504227,12.0111436 C158.633851,12.0651486 157.78062,12.1019587 156.89209,12.1019587 C156.003056,12.1019587 155.149825,12.0651486 154.333406,12.0111436 L154.333406,12.5553788 C156.075167,12.6459922 156.057013,12.7730627 156.057013,14.1880843 L156.057013,22.5156942 C156.057013,23.9311191 156.075167,24.0581392 154.333406,24.1483492 L154.333406,24.6929878 C155.149825,24.6386298 156.003056,24.6027778 156.89209,24.6027778 C157.78062,24.6027778 158.633851,24.6386298 159.504227,24.6929878 L159.504227,24.1483492 C157.76297,24.0581392 157.78062,23.9311191 157.78062,22.5156942 L157.78062,14.1880843" id="path76"></path>
                        <path d="M173.677842,13.8981415 L173.677842,22.9151092 C173.677842,23.9669711 173.351073,24.1302467 172.244192,24.1302467 L171.953731,24.1483492 L171.953731,24.6929878 C172.67938,24.6386298 173.405534,24.6027778 174.131184,24.6027778 C174.856833,24.6027778 175.582987,24.6386298 176.290483,24.6929878 L176.290483,24.1483492 L176.000021,24.1302467 C174.856833,24.1302467 174.51191,23.9669711 174.51191,22.9151092 L174.51191,12.410004 L174.566372,11.7389504 L173.133226,11.9930411 L164.369962,22.6427143 L164.369962,13.7886188 C164.369962,12.7364039 164.71438,12.5735317 165.857569,12.5735317 L166.14803,12.5553788 L166.14803,12.0111436 C165.440534,12.0651486 164.71438,12.1019587 163.988731,12.1019587 C163.263081,12.1019587 162.537432,12.0651486 161.811278,12.0111436 L161.811278,12.5553788 L162.102244,12.5735317 C163.20862,12.5735317 163.534885,12.7364039 163.534885,13.7886188 L163.534885,22.9151092 C163.534885,23.9669711 163.244928,24.1302467 162.228816,24.1483492 L161.974663,24.1483492 L161.974663,24.6929878 C162.501124,24.6386298 163.008928,24.6027778 163.553543,24.6027778 C164.078996,24.6027778 164.587304,24.6386298 165.113261,24.6929878 L173.677842,13.8981415" id="path78"></path>
                        <path d="M111.253826,174.921711 C111.51504,176.761713 112.657219,177.989558 112.636544,180.411462 C112.344066,185.147362 111.253826,188.099736 107.253929,189.637189 C105.665467,187.888456 103.718972,186.156867 102.48804,184.718247 C103.871262,184.410655 105.409297,184.255347 106.02451,182.717894 C106.794032,181.027149 105.715895,179.642988 104.48698,178.413126 L91.8070233,178.413126 L91.8070233,191.137831 C93.0364421,192.367189 94.4181515,193.444263 96.1115019,192.675284 C97.649536,192.060102 97.8018266,190.522649 98.110442,189.137983 C99.5521599,190.368853 101.282322,192.315755 103.031143,193.905146 C101.494117,197.902322 98.5415958,198.994524 93.8049549,199.286484 C91.3854507,199.306654 90.1570405,198.165036 88.3184593,197.904843 C86.5176987,198.185205 85.2872714,199.294047 82.8975193,199.273373 C78.1613827,198.979901 75.2093656,197.89022 73.6713315,193.891531 C75.4206562,192.303149 77.1513229,190.356751 78.5925365,189.125377 C78.8996391,190.508025 79.0529382,192.045478 80.5909723,192.661166 C82.2838185,193.430144 83.6665364,192.354583 84.8969637,191.123713 L84.8969637,178.299166 L72.1332973,178.299166 C70.9038786,179.528523 69.8267504,180.912685 70.5957675,182.603429 C71.2114854,184.141387 72.7490153,184.296695 74.1327417,184.603782 C72.9013059,186.04442 70.9553145,187.773991 69.3663487,189.522724 C65.3669556,187.985775 64.2767163,185.034915 63.9842377,180.296998 C63.9630582,177.886187 65.0941437,176.657838 65.3624172,174.829938 C65.0648958,173.06759 63.984742,171.837224 64.0064258,169.476334 C64.296383,164.740938 65.3911608,161.788565 69.3885367,160.251112 C70.9769982,162.000349 72.9224854,163.730929 74.1569469,165.172071 C72.7722119,165.478149 71.234682,165.632449 70.618964,167.170407 C69.849947,168.861151 70.9260666,170.245817 72.1564939,171.475678 L84.9090663,171.475678 L84.9090663,158.848293 C83.6781347,157.618936 82.2939039,156.541861 80.6030749,157.309831 C79.065545,157.926023 78.9107331,159.46398 78.602622,160.848142 C77.1629211,159.616263 75.4332631,157.669865 73.6829298,156.081483 C75.2209639,152.083802 78.172981,150.993617 82.9096219,150.699641 C85.3321517,150.678462 86.5605619,151.821089 88.3996474,152.081785 C88.3996474,152.08229 88.3996474,152.08229 88.3996474,152.08229 C90.2246131,151.813021 91.4515105,150.681488 93.8619378,150.706196 C98.6005958,150.993617 101.5511,152.087836 103.08863,156.087534 C101.337792,157.675916 99.6081343,159.618784 98.1689377,160.853688 C97.8618352,159.469023 97.7065189,157.931065 96.1684848,157.316387 C94.4776558,156.548417 93.0939293,157.624482 91.863502,158.854344 L91.863502,171.458534 L104.472861,171.458534 C105.703792,170.232202 106.779912,168.847536 106.010895,167.157296 C105.394673,165.619843 103.857647,165.46403 102.471903,165.157447 C103.705861,163.71681 105.652356,161.987238 107.241826,160.237497 C111.236681,161.775454 112.329946,164.722785 112.622929,169.463728 C112.643604,171.871513 111.512519,173.096837 111.245758,174.921711 C111.248279,174.921711 111.250801,174.921711 111.253826,174.921711" id="path80"></path>
                        <path d="M73.9814597,156.012401 C75.5341178,152.15238 78.4457929,151.229101 82.9247501,150.951261 C84.3064594,150.94168 85.2872714,151.324909 86.2428696,151.697548 C86.9337243,151.966817 87.5862542,152.220958 88.3638439,152.331388 L88.4001516,152.336935 L88.4364593,152.331388 C89.2014422,152.218437 89.8448952,151.967825 90.526673,151.702086 C91.4832798,151.329447 92.4600575,150.952269 93.8594165,150.95832 C98.211801,151.222546 101.238955,152.167003 102.7901,156.017947 C101.996878,156.746082 101.213741,157.536239 100.455818,158.301688 C99.7029377,159.061086 98.986365,159.784682 98.326271,160.379695 C98.3247582,160.374148 98.3237497,160.369106 98.3227411,160.363559 C98.0610232,159.106972 97.7655189,157.682975 96.2617754,157.082415 C94.4605105,156.263516 92.9971088,157.36429 91.6854934,158.676344 L91.6113652,158.749965 L91.6113652,171.710658 L104.577245,171.710658 L104.650869,171.637038 C105.963997,170.328514 107.065835,168.867706 106.240339,167.052917 C105.642775,165.560342 104.21669,165.264348 102.959032,165.003147 C102.954997,165.002139 102.949955,165.00113 102.945416,165.000122 C103.543989,164.335523 104.27216,163.614448 105.036638,162.857571 C105.7991,162.103216 106.586271,161.324152 107.310408,160.535508 C111.17163,162.090105 112.094954,165.00113 112.371296,169.479359 C112.382895,170.849906 111.998134,171.836216 111.626484,172.789245 C111.360228,173.472502 111.108596,174.117939 110.996143,174.885405 L110.954288,175.173835 L111.039006,175.173835 C111.162553,175.859109 111.394519,176.453113 111.638083,177.079389 C112.011245,178.03494 112.396006,179.022762 112.384407,180.409445 C112.108066,184.875572 111.185749,187.786597 107.323014,189.339178 C106.60039,188.552046 105.814732,187.773991 105.054288,187.020644 C104.288801,186.262255 103.559621,185.540171 102.961049,184.875068 C102.9671,184.873555 102.972647,184.872547 102.978194,184.871538 C104.234339,184.609833 105.657399,184.313335 106.258493,182.811684 C107.077937,181.011518 105.977613,179.547685 104.664989,178.234622 L104.591365,178.161002 L91.5548866,178.161002 L91.5548866,191.242715 L91.6290148,191.316335 C92.9396216,192.627885 94.4035276,193.728155 96.2158865,192.904717 C97.7045018,192.3092 98.0005104,190.889237 98.2622283,189.63618 C98.2637411,189.627608 98.2657582,189.619036 98.2677753,189.610463 C98.9374505,190.211527 99.6636043,190.945209 100.42657,191.716204 C101.175921,192.473081 101.94998,193.254666 102.733117,193.974228 C101.183485,197.819121 98.1558266,198.765595 93.7893224,199.034864 C92.4328267,199.053017 91.4308353,198.661216 90.4757413,198.289081 C89.7848866,198.019812 89.1318525,197.765167 88.3537585,197.655241 L88.3164422,197.650198 L88.2796303,197.655241 C87.5338098,197.771722 86.9024594,198.017291 86.2337927,198.276979 C85.2766816,198.64861 84.287297,199.041923 82.9000407,199.021249 C78.4336903,198.744417 75.5225195,197.821138 73.9693571,193.961118 C74.7550152,193.239538 75.5310921,192.456441 76.2824596,191.697043 C77.0434083,190.929577 77.7675451,190.197913 78.4357074,189.598361 C78.436716,189.605421 78.4382288,189.61248 78.4397416,189.61954 C78.700451,190.873605 78.9964596,192.294577 80.4971775,192.895641 C82.3004595,193.714036 83.7633569,192.613766 85.0749722,191.301712 L85.1491004,191.228092 L85.1491004,178.047042 L72.0289127,178.047042 L71.9552888,178.120662 C70.6431692,179.43322 69.5423401,180.896549 70.366323,182.708313 C70.9633828,184.199879 72.3869469,184.496377 73.6425879,184.757578 C73.6481349,184.758587 73.6541862,184.759595 73.6592289,184.761108 C73.0596477,185.428228 72.3284512,186.152329 71.5599384,186.913239 C70.8015111,187.664569 70.0183743,188.440103 69.2972632,189.224714 C65.4345283,187.672133 64.5122121,184.761108 64.2358702,180.281366 C64.2242719,178.908298 64.6090326,177.920476 64.9811864,176.964421 C65.2474428,176.28066 65.4990753,175.634718 65.6115283,174.866748 L65.6175796,174.827417 L65.611024,174.788085 C65.4905026,174.073565 65.2529898,173.462417 65.0018616,172.815466 C64.6302121,171.857899 64.2459557,170.868059 64.2585625,169.478855 C64.5258274,165.127193 65.4713402,162.100694 69.3194513,160.549122 C70.043588,161.337767 70.8297504,162.11683 71.5922119,162.87169 C72.3566905,163.629071 73.0848614,164.350146 73.6829298,165.014745 C73.677887,165.016258 73.6728443,165.017266 73.6672973,165.017771 C72.4106478,165.278971 70.9865794,165.573956 70.3844769,167.076616 C69.5650324,168.878295 70.6658615,170.342128 71.9779811,171.654182 L72.0521093,171.727802 L85.161203,171.727802 L85.161203,158.743914 L85.0870748,158.670293 C83.7739466,157.358239 82.3095364,156.257465 80.4986903,157.080398 C79.0085621,157.676924 78.711545,159.099409 78.4498271,160.354483 C78.4488186,160.361542 78.4473057,160.368097 78.4457929,160.375157 C77.7816647,159.777623 77.0610579,159.049992 76.3041434,158.285552 C75.549246,157.523128 74.7701434,156.736501 73.9814597,156.012401 Z M82.9766902,150.447012 C82.9534937,150.447012 82.9308013,150.447012 82.9071005,150.447517 C78.2677844,150.734938 75.0742203,151.762596 73.4474341,155.990718 L73.3859127,156.152077 L73.5134939,156.268054 C74.3369725,157.014846 75.1549041,157.841309 75.9461092,158.640038 C76.8336306,159.536592 77.6722374,160.383729 78.4387331,161.039756 L78.7574339,161.312554 L78.8487074,160.903105 C78.8814852,160.755864 78.9127502,160.606607 78.9435108,160.457349 C79.2027074,159.216898 79.4467758,158.045025 80.6968698,157.544307 C82.1274937,156.894331 83.3175791,157.631542 84.6569295,158.953177 L84.6569295,171.223554 L72.2613828,171.223554 C70.9386734,169.885784 70.2019299,168.696262 70.8484085,167.274786 C71.3541948,166.012652 72.5276392,165.769605 73.7701691,165.511934 C73.9179212,165.481175 74.0656734,165.450416 74.2114084,165.418648 L74.621887,165.327379 L74.3485708,165.00819 C73.6909982,164.240724 72.8438187,163.401655 71.9467162,162.513169 C71.1479469,161.722004 70.3224512,160.904113 69.5751179,160.081684 L69.459135,159.953605 L69.2977675,160.015628 C65.0643915,161.643845 64.038195,164.83725 63.7547933,169.460702 C63.7406736,170.959832 64.1430839,171.996063 64.5318787,172.998508 C64.768383,173.608144 64.9927847,174.185004 65.1067505,174.832963 C64.9993403,175.528322 64.7623317,176.137454 64.5112035,176.781883 C64.1219044,177.781807 63.7189899,178.815516 63.732101,180.299519 C64.018024,184.938603 65.0447249,188.132007 69.2760837,189.758208 L69.436947,189.819726 L69.5529299,189.692656 C70.2967333,188.873252 71.1197076,188.059396 71.9149469,187.27176 C72.8155794,186.379745 73.6662888,185.53765 74.3243657,184.767663 L74.5971776,184.448474 L74.1872033,184.357709 C74.0414682,184.325437 73.8937161,184.294678 73.7454597,184.263919 C72.5039384,184.00524 71.3309982,183.761183 70.8297504,182.510143 C70.1792376,181.079087 70.9159811,179.889061 72.2381862,178.55129 L84.6448269,178.55129 L84.6448269,191.018829 C83.3074936,192.340968 82.1174082,193.076162 80.695357,192.431733 C79.4346732,191.92698 79.1916134,190.756116 78.9334254,189.516673 C78.9026647,189.367416 78.8713997,189.218158 78.838622,189.070918 L78.7478527,188.661468 L78.4286476,188.933762 C77.658622,189.591806 76.8164853,190.441969 75.9244255,191.342556 C75.136246,192.13826 74.32134,192.961193 73.5018956,193.704959 L73.3738101,193.820937 L73.4358358,193.982296 C75.0626221,198.211426 78.2561861,199.23858 82.8818868,199.524993 C84.3694936,199.540625 85.4153568,199.136218 86.4163397,198.746938 C87.0471859,198.501873 87.6437414,198.269919 88.3199722,198.159489 C89.0249465,198.264877 89.6411687,198.504899 90.2931943,198.75904 C91.2921601,199.14832 92.3309635,199.563316 93.806972,199.538608 C98.4457839,199.252699 101.639852,198.22605 103.266638,193.995406 L103.328664,193.834047 L103.200579,193.71807 C102.383656,192.975816 101.570767,192.1549 100.785109,191.361213 C99.8905274,190.458105 99.0468779,189.605421 98.2738266,188.945864 L97.95563,188.67357 L97.8643565,189.08302 C97.8310745,189.231773 97.7998095,189.382039 97.7680403,189.533313 C97.5103565,190.771747 97.2662882,191.941603 96.0182113,192.441313 C94.5870831,193.091289 93.3964934,192.354583 92.0591601,191.032948 L92.0591601,178.66525 L104.382091,178.66525 C105.704297,180.003525 106.44104,181.193551 105.795066,182.613514 C105.289784,183.875144 104.116844,184.1192 102.875322,184.377879 C102.727066,184.408638 102.579314,184.439397 102.433074,184.472173 L102.023604,184.562938 L102.296416,184.882127 C102.95298,185.649089 103.801168,186.489671 104.699784,187.379165 C105.49704,188.168818 106.321527,188.9857 107.067348,189.806616 L107.183331,189.934191 L107.344698,189.872673 C111.575048,188.245968 112.602254,185.052563 112.888177,180.427094 C112.901288,178.929981 112.497869,177.896272 112.10857,176.895843 C111.850886,176.235782 111.607826,175.612531 111.504954,174.895994 C111.612869,174.211225 111.84786,173.609153 112.095963,172.972791 C112.485766,171.974884 112.888177,170.942688 112.875066,169.461711 C112.589142,164.823635 111.561937,161.630231 107.332091,160.002013 L107.171228,159.93999 L107.054741,160.06807 C106.307912,160.890498 105.481408,161.708389 104.682134,162.49905 C103.785032,163.387032 102.936844,164.226101 102.280279,164.993567 L102.006963,165.312756 L102.416938,165.403521 C102.562168,165.435792 102.709416,165.466047 102.856664,165.496806 C104.100203,165.755486 105.27516,165.999038 105.776912,167.251086 C106.428433,168.684664 105.691185,169.872673 104.368476,171.20641 L92.1156387,171.20641 L92.1156387,158.959228 C93.4539806,157.637089 94.6430575,156.90139 96.0641002,157.54582 C97.3262967,158.050572 97.5708694,159.223958 97.8290574,160.466426 C97.8598181,160.614675 97.8905787,160.762419 97.9228523,160.908147 L98.0141258,161.318605 L98.3333309,161.044798 C99.0957924,160.390788 99.930365,159.54819 100.813348,158.656679 C101.609091,157.85442 102.431057,157.024931 103.258066,156.273601 L103.386151,156.158128 L103.324126,155.996769 C101.695322,151.760075 98.5017582,150.734938 93.8775703,150.454576 C92.4015618,150.433398 91.3446046,150.841839 90.3436217,151.232127 C89.7001687,151.482738 89.0925191,151.720239 88.3986388,151.82714 C87.6941687,151.722256 87.0779465,151.48173 86.4264252,151.227589 C85.4420833,150.843856 84.4244594,150.447012 82.9766902,150.447012 Z" id="path82"></path>
                    </g>
                </g>
            </g>
        </g>
    </g>
</svg>