<?xml version="1.0" encoding="UTF-8"?>
<svg width="200px" height="200px" viewBox="0 0 200 200" version="1.1" xmlns="http://www.w3.org/2000/svg" xmlns:xlink="http://www.w3.org/1999/xlink">
    <!-- Generator: Sketch 51.3 (57544) - http://www.bohemiancoding.com/sketch -->
    <title>st-pauls</title>
    <desc>Created with Sketch.</desc>
    <defs></defs>
    <g id="st-pauls" stroke="none" stroke-width="1" fill="none" fill-rule="evenodd">
        <g id="st-pauls_BGL" fill="#434445">
            <g id="_GENERIC-LOGO_BGL" transform="translate(1.000000, 1.000000)">
                <g id="Group" transform="translate(47.472527, 25.714286)">
                    <path d="M51.4285714,146.373626 C51.0433387,146.373626 50.4654896,146.180776 49.6950241,145.795074 L2.88924559,125.545759 C1.15569823,124.967207 0,123.231551 0,121.495895 L0,4.62841506 C0,2.31420753 1.73354735,0 4.62279294,0 L98.2343499,0 C100.545746,0 102.857143,1.73565565 102.857143,4.62841506 L102.857143,122.074447 C102.857143,123.810103 101.701445,125.545759 99.9678973,126.12431 L53.1621188,146.373626 C52.5842697,146.373626 52.0064205,146.373626 51.4285714,146.373626 Z M6.28571429,28.3490423 L6.28571429,37.0273205 L97.0080257,37.0273205 L97.0080257,28.3490423 L6.28571429,28.3490423 Z" id="Shape" fill-rule="nonzero"></path>
                </g>
            </g>
        </g>
    </g>
</svg>