<?xml version="1.0" encoding="UTF-8"?>
<svg width="200px" height="200px" viewBox="0 0 200 200" version="1.1" xmlns="http://www.w3.org/2000/svg" xmlns:xlink="http://www.w3.org/1999/xlink">
    <!-- Generator: Sketch 51.3 (57544) - http://www.bohemiancoding.com/sketch -->
    <title>st-thomas-fl.50</title>
    <desc>Created with Sketch.</desc>
    <defs></defs>
    <g id="st-thomas-fl" stroke="none" stroke-width="1" fill="none" fill-rule="evenodd">
        <g id="st-thomas-fl_BGL">
            <g id="st-thomas-fl" transform="translate(0.000000, 1.000000)">
                <path d="M57.9032258,0.215135135 C57.6344086,2.15135135 57.2580645,4.03378378 56.9892473,5.97 C56.3978495,9.46594595 57.0967742,13.2845946 58.172043,16.6191892 C60.2688172,22.8581081 64.6236559,27.3221622 67.7956989,32.8081081 C68.8709677,34.6367568 69.3010753,36.6805405 69.6236559,38.7781081 C73.0645161,38.3478378 76.2903226,37.7562162 79.7849462,38.2402703 C82.6344086,38.4554054 85.2688172,39.2621622 88.0107527,40.0151351 C89.5698925,40.4991892 90.8602151,39.9613514 92.3655914,39.5848649 C100.645161,37.3797297 109.569892,37.3259459 117.849462,39.6924324 C126.55914,42.0051351 134.301075,47.2221622 140.430108,53.7837838 C142.903226,51.0945946 145.483871,48.4054054 148.387097,46.1464865 C159.247312,37.3797297 172.258065,31.5710811 183.225806,22.9118919 C187.634409,19.3621622 191.88172,15.167027 194.892473,10.3264865 C196.505376,7.79864865 197.634409,5.05567568 199.032258,2.36648649 C201.075269,8.71297297 199.408602,15.0594595 195.806452,20.4378378 C191.236559,27.2683784 184.623656,32.9694595 178.387097,38.2402703 C180.537634,43.3497297 181.451613,48.7818919 181.666667,54.2678378 C182.311828,58.2478378 181.666667,61.9589189 181.129032,65.9389189 C179.193548,77.6637838 173.064516,87.56 165.215054,96.2191892 C171.236559,97.0797297 177.795699,97.4562162 183.709677,95.9502703 C186.290323,95.3048649 188.172043,93.7451351 190.322581,92.292973 C189.247312,94.4981081 187.956989,96.2191892 186.129032,97.8327027 C181.451613,102.242973 175.430108,103.157297 170.322581,107.298649 C166.774194,110.310541 163.924731,113.967838 160.16129,116.764595 C163.172043,124.401892 163.333333,132.845946 161.182796,140.752162 C159.946237,144.83973 158.602151,148.765946 156.236559,152.369459 C155.806452,150.110541 155.483871,147.905405 155.053763,145.646486 C153.817204,148.927297 152.741935,152.100541 150.860215,155.112432 C148.387097,159.092432 145.215054,162.695946 141.505376,165.60027 C140.16129,166.622162 138.924731,167.697838 138.11828,169.203784 C133.225806,177.755405 126.55914,185.231351 118.709677,191.201351 C114.784946,194.159459 110.537634,197.01 105.967742,198.892432 C110.215054,191.093784 114.623656,184.209459 116.344086,175.227568 C116.989247,171.462703 116.129032,167.321351 113.225806,164.632162 C110.591398,162.158108 106.774194,161.297568 103.225806,161.297568 C99.3010753,161.243784 95.6451613,161.405135 92.3655914,163.771622 C89.1397849,166.084324 88.0107527,170.279459 87.9032258,174.044324 C88.0107527,177.970541 89.2473118,182.058108 90.2688172,185.822973 C86.4516129,185.016216 83.2258065,183.133784 80,181.036216 C80.6451613,182.972432 81.344086,184.908649 82.4193548,186.683514 C83.8172043,188.996216 85.6451613,190.663514 87.3655914,192.653514 C82.8494624,192.922432 78.4408602,191.685405 74.8387097,188.942432 C72.7419355,187.328919 71.344086,185.338919 69.8387097,183.187568 C63.3333333,183.725405 56.2365591,183.348919 50.483871,179.960541 C45.2688172,177.163784 41.6129032,171.301351 41.6129032,165.385135 C41.5591398,163.18 42.4731183,161.405135 43.0107527,159.361351 C42.8494624,157.317568 41.8817204,155.596486 42.2043011,153.498919 C42.7956989,150.110541 44.7849462,147.851622 46.9892473,145.377568 C47.4193548,147.421351 47.7419355,149.465135 48.3870968,151.455135 C50.5913978,149.25 52.3655914,146.184324 51.5053763,142.957297 C50.483871,139.622703 47.8494624,137.901622 44.9462366,136.341892 C44.1935484,137.901622 43.4946237,139.515135 43.1182796,141.182432 C42.4731183,143.602703 42.7419355,145.915405 42.9032258,148.389459 C38.8172043,145.108649 35,141.558919 31.6129032,137.471351 C30.4301075,135.911622 28.2795699,135.373784 26.5053763,134.513243 C22.4193548,132.630811 18.1182796,129.941622 15.4301075,126.284324 C14.3010753,124.778378 13.9247312,123.164865 14.0322581,121.282432 C14.0322581,119.453784 15.1075269,118.162973 15.483871,116.495676 C15.1612903,114.882162 14.3010753,113.268649 14.1397849,111.601351 C14.6774194,108.965946 16.344086,106.491892 17.4193548,104.017838 C14.9462366,103.587568 12.5268817,103.157297 10.0537634,102.888378 C9.30297699,102.80674 5.58425739,102.359364 0.902795279,101.810234 C10.483871,101.810234 13.0861881,102.265932 13.5483871,102.296757 C15.1612903,102.404324 16.7204301,102.619459 18.3333333,102.834595 C19.9462366,100.575676 21.7204301,98.4781081 23.4946237,96.3805405 C18.6021505,94.6056757 13.6123334,93.2628709 8.49462366,92.1316216 C5.81815986,91.54 3.39329217,90.9431786 0.295593918,90.4121688 C4.51581401,90.4121688 8.96105788,91.2935694 10.483871,91.54 C14.1397849,92.1316216 18.7096774,93.0997297 22.6344086,94.3905405 C23.3870968,94.6056757 24.3010753,94.9821622 25.0537634,94.767027 C26.344086,93.9064865 27.4731183,92.8308108 28.655914,91.8627027 C27.4193548,88.6894595 26.6666667,85.4086486 27.4193548,82.0202703 C27.7956989,79.7613514 29.0860215,77.9864865 29.7849462,75.8889189 C30.3763441,73.5762162 30.5913978,71.2097297 31.4516129,68.9508108 C32.2043011,66.6918919 33.6021505,64.8094595 35.2688172,63.0883784 C39.1397849,59.1621622 43.5483871,55.72 48.3333333,53.0845946 C47.6344086,49.8037838 47.2580645,46.522973 47.688172,43.1345946 C48.2795699,37.057027 50.5376344,31.6786486 53.2258065,26.2464865 C53.9247312,25.0632432 53.0645161,24.2027027 52.688172,23.0732432 C51.7204301,20.9756757 51.2365591,18.8781081 51.1827957,16.5654054 C50.8602151,10.6491892 53.8709677,4.51783784 57.9032258,0.215135135 Z" id="Shape" fill="#00457C" fill-rule="nonzero"></path>
                <path d="M55.483871,28.1827027 C57.9032258,30.3340541 60.1075269,33.1308108 61.0215054,36.2502703 C61.344086,38.5091892 61.3978495,41.1445946 60.3763441,43.1883784 C58.3870968,47.1145946 55.2150538,50.3416216 50.9677419,51.7937838 C48.8709677,44.0489189 51.9892473,35.1208108 55.483871,28.1827027 Z" id="Shape" fill="#FFFFFF" fill-rule="nonzero"></path>
                <path d="M169.83871,38.2402703 C167.526882,40.552973 164.892473,42.542973 162.473118,44.8018919 C153.870968,52.6005405 145.752688,61.2059459 140.16129,71.4786486 C138.333333,74.6518919 137.204301,78.0402703 135.645161,81.3210811 C136.021505,75.6737838 136.88172,70.3491892 139.247312,65.1321622 C142.473118,58.6243243 147.365591,53.73 153.010753,49.3735135 C158.333333,45.1783784 164.086022,41.6286486 169.83871,38.2402703 Z" id="Shape" fill="#FFFFFF" fill-rule="nonzero"></path>
                <path d="M84.6236559,41.8975676 C82.7956989,43.6186486 80.9677419,45.2859459 79.2473118,47.0608108 C76.3978495,50.0727027 74.1935484,53.9989189 73.6021505,58.1402703 C75.3763441,56.472973 76.9354839,54.6443243 78.8172043,53.0845946 C85.0537634,47.9213514 92.5806452,44.6405405 100.483871,43.2421622 C106.72043,42.0589189 113.870968,41.3597297 120,43.5110811 C127.365591,45.8775676 133.225806,50.5567568 138.494624,56.0427027 C136.827957,58.6781081 135.16129,61.2597297 133.978495,64.2178378 C129.623656,73.8451351 129.83871,85.57 131.612903,95.7889189 C131.666667,97.7251351 134.032258,98.3167568 135.537634,98.9083784 C138.924731,99.8227027 143.010753,100.629459 146.451613,99.7689189 C152.043011,97.7251351 158.27957,99.1235135 164.032258,99.5537838 C168.225806,100.091622 172.419355,99.9302703 176.612903,100.091622 C173.387097,101.92027 170.16129,103.211081 167.258065,105.577568 C163.870968,108.159189 161.505376,111.655135 158.333333,114.398108 C156.344086,116.172973 154.086022,117.463784 151.935484,119.023514 C153.709677,118.647027 155.537634,118.270541 157.311828,117.894054 C160.645161,126.122973 160.268817,134.943514 157.419355,143.28 C156.612903,141.236216 156.075269,139.138649 155.322581,137.094865 C154.139785,133.867838 152.258065,130.963514 149.516129,128.91973 C150.268817,131.071081 151.290323,133.061081 151.827957,135.32 C152.849462,139.515135 152.580645,144.032973 151.182796,148.120541 C149.354839,153.23 145.967742,157.909189 141.935484,161.512703 C142.150538,159.038649 142.634409,156.833514 142.526882,154.413243 C142.258065,150.110541 141.236559,146.022973 138.709677,142.473243 C139.032258,144.893514 139.83871,147.206216 140,149.572703 C140.16129,152.261892 140.107527,154.897297 139.462366,157.532703 C137.580645,167.16 131.182796,175.819189 124.301075,182.488378 C120.752688,185.984324 116.935484,189.211351 112.795699,191.954324 C115.376344,186.522162 118.172043,181.466486 119.032258,175.335135 C119.408602,169.634054 118.817204,163.072432 115.967742,158.016757 C115.806452,159.791622 115.913978,161.512703 115.913978,163.287568 C113.924731,161.674054 111.88172,160.221892 109.354839,159.522703 C105.645161,158.500811 101.666667,158.500811 97.8494624,158.877297 C93.0107527,159.468919 88.4408602,162.158108 86.5053763,166.783514 C84.516129,171.731622 85.1612903,176.464595 85.8602151,181.574054 C84.1397849,180.605946 82.4731183,179.584054 81.0752688,178.078108 C79.1397849,176.141892 78.2258065,173.829189 76.9892473,171.462703 C76.827957,173.882973 77.1505376,175.926757 77.7956989,178.239459 C70.6989247,181.52027 62.4731183,181.681622 55.1075269,179.315135 C50.2688172,177.647838 45.9677419,173.721622 44.7311828,168.665946 C44.0860215,166.353243 44.4623656,164.148108 45,161.835405 C52.7419355,165.761622 62.311828,165.492703 70.483871,163.18 C76.0752688,161.674054 80.4301075,157.855405 83.5483871,153.068649 C87.1505376,147.744054 89.9462366,142.419459 94.7849462,137.955405 C97.2043011,135.588919 100.053763,133.814054 102.956989,132.092973 C103.064516,133.652703 103.11828,135.212432 103.225806,136.772162 C104.408602,134.728378 105.698925,132.577027 106.021505,130.156757 C106.344086,127.79027 105.107527,125.531351 103.27957,124.079189 C101.129032,122.411892 98.7096774,121.712703 96.0752688,121.013514 C97.688172,122.519459 99.4086022,123.917838 101.021505,125.477568 C98.2258065,124.294324 95.3225806,123.003514 92.311828,122.411892 C89.6774194,122.035405 86.9354839,122.089189 84.2473118,122.250541 C81.6666667,122.411892 79.516129,123.38 77.2043011,124.509459 C75,122.842162 73.1182796,121.981622 70.3763441,121.497568 C71.0215054,123.595135 71.9892473,125.746486 71.8817204,127.951622 C71.827957,129.726486 70.9139785,131.447568 69.4623656,132.523243 C67.4193548,134.082973 64.7311828,134.620811 62.2580645,134.782162 C58.1182796,134.997297 53.9784946,134.782162 49.8924731,133.975405 C44.7849462,133.007297 39.8924731,130.802162 34.8387097,130.102973 C33.4408602,129.941622 31.7204301,129.834054 30.483871,130.640811 C29.7849462,131.232432 29.2473118,132.092973 28.7096774,132.792162 C24.8924731,130.855946 20.0537634,128.543243 17.6344086,124.885946 C16.4516129,123.164865 16.827957,121.443784 17.2043011,119.507568 C20.5376344,123.541351 23.9247312,127.413784 28.4408602,130.210541 C30.8602151,128.059189 33.1182796,125.854054 35,123.272432 C35.7526882,122.250541 36.5053763,121.121081 37.3655914,120.260541 C39.5698925,119.668919 41.8817204,119.884054 44.1397849,119.131081 C47.688172,118.109189 52.2043011,116.119189 54.2473118,112.892162 C53.8172043,109.234865 49.8924731,106.330541 46.2365591,106.599459 C39.1935484,106.384324 33.7096774,110.149189 27.1505376,112.031622 C23.7634409,112.730811 20.483871,112.515676 17.4193548,110.848378 C21.9892473,100.575676 30.4301075,93.2072973 40.3225806,88.1516216 C40.1075269,85.4086486 39.7311828,82.6656757 40.1612903,79.8689189 C40.5376344,77.7713514 41.6129032,76.1040541 42.4731183,74.2216216 C39.9462366,75.8351351 38.3333333,77.9327027 36.9354839,80.5143243 C35.9139785,77.9327027 35,75.4586486 35.0537634,72.6618919 C35.1612903,70.402973 34.5698925,68.1440541 36.2365591,66.422973 C42.2043011,59.6462162 50.2150538,54.5905405 58.7634409,51.74 C58.4408602,54.5367568 57.7956989,57.2259459 56.8817204,59.8613514 C62.2580645,56.2040541 65.483871,50.3416216 68.1182796,44.532973 C68.7096774,43.4035135 68.8709677,42.1664865 70.3225806,41.79 C75.0537634,40.4991892 79.9462366,40.6605405 84.6236559,41.8975676 Z" id="Shape" fill="#FFFFFF" fill-rule="nonzero"></path>
                <path d="M176.021505,40.4454054 C178.978495,47.5986486 179.247312,55.2359459 178.763441,62.8194595 C178.11828,67.7137838 176.72043,72.6618919 174.193548,76.9108108 C169.301075,85.57 160.322581,91.8089189 150.806452,94.282973 C146.612903,95.3048649 142.526882,96.0040541 138.387097,94.3367568 C139.462366,85.6775676 142.634409,77.3948649 147.419355,70.0264865 C154.462366,59.1083784 164.946237,49.8037838 174.784946,41.4135135 C175.16129,41.0908108 175.591398,40.7681081 176.021505,40.4454054 Z" id="Shape" fill="#FFFFFF" fill-rule="nonzero"></path>
                <path d="M87.1505376,70.7794595 C90.483871,70.5105405 93.7634409,70.402973 96.827957,72.0164865 C99.8387097,73.63 101.612903,76.6956757 101.505376,80.0840541 C101.666667,82.9883784 100.698925,85.4086486 99.1935484,87.7751351 C102.473118,89.0659459 105.483871,90.5718919 107.634409,93.4762162 C109.892473,96.272973 110.537634,99.6075676 110.645161,103.157297 C113.817204,103.48 116.989247,103.91027 120,104.932162 C118.548387,104.717027 117.096774,104.501892 115.645161,104.501892 C109.516129,104.340541 103.44086,104.340541 97.311828,104.448108 C95.3225806,104.448108 93.3870968,104.663243 91.3978495,105.03973 C84.0860215,106.222973 76.9354839,107.997838 70.1612903,111.117297 C68.8709677,111.708919 67.8494624,112.784595 66.5591398,113.43 C64.6774194,113.86027 63.7096774,111.762703 64.516129,110.256757 C65.6451613,109.45 67.311828,109.396216 68.6021505,108.858378 C81.3978495,103.964054 95.483871,101.705135 109.139785,103.04973 C104.139785,99.3924324 98.4408602,96.9183784 92.311828,96.0578378 C86.6666667,95.1972973 80.4301075,95.4662162 75.1075269,97.6175676 C73.4946237,98.3705405 70.6989247,99.8227027 71.2365591,102.027838 C71.8817204,103.641351 74.0860215,104.609459 75.4301075,105.685135 C71.3978495,105.792703 67.7956989,106.007838 64.0322581,104.340541 C62.4731183,103.641351 61.1827957,102.350541 61.1290323,100.521892 C60.9139785,98.5856757 62.9032258,97.4562162 64.0860215,96.272973 C62.7419355,95.1972973 61.5053763,94.2291892 60.5376344,92.8308108 C59.6774194,91.7013514 59.1397849,90.3567568 58.2795699,89.2810811 C56.344086,88.5818919 54.5698925,88.3667568 52.9569892,87.0221622 C50.5913978,85.0321622 49.9462366,81.9127027 49.8387097,78.9545946 C50.6989247,80.0840541 51.3978495,81.2672973 52.311828,82.2891892 C54.8924731,85.2472973 59.516129,86.1078378 63.0107527,84.332973 C66.344086,82.6656757 69.4086022,79.8689189 72.4193548,77.61 C76.6129032,74.2754054 81.5591398,71.4248649 87.1505376,70.7794595 Z" id="Shape" fill="#00457C" fill-rule="nonzero"></path>
                <path d="M92.4193548,77.9864865 C93.8709677,78.3091892 95.4301075,78.7932432 96.3978495,80.0302703 C97.311828,81.2672973 97.4193548,83.1497297 96.9354839,84.6018919 C95.9677419,86.6456757 93.3870968,87.9364865 91.3978495,88.797027 C87.7419355,90.1954054 83.8709677,91.0559459 80.1075269,91.9702703 C80.9677419,89.6037838 81.9354839,87.56 82.0430108,85.0321622 C82.1505376,82.9883784 81.7204301,81.1597297 81.2903226,79.1697297 C85,78.1478378 88.5483871,77.2872973 92.4193548,77.9864865 Z" id="Shape" fill="#FFFFFF" fill-rule="nonzero"></path>
                <path d="M31.3978495,79.0621622 C32.2043011,79.7075676 33.0107527,80.4605405 33.8172043,81.1059459 C32.6344086,83.6337838 32.9032258,85.9464865 32.9569892,88.5818919 C32.4193548,89.2272973 31.7204301,89.7113514 31.1290323,90.2491892 C30.8602151,89.4962162 30.5376344,88.6894595 30.3225806,87.9364865 C29.3548387,85.0859459 30.1612903,81.7513514 31.3978495,79.0621622 Z" id="Shape" fill="#58A0D3" fill-rule="nonzero"></path>
                <path d="M78.5483871,80.2454054 C80.0537634,84.3867568 79.0860215,89.4962162 75.7526882,92.4005405 C73.6021505,93.7451351 70.8064516,94.3367568 68.2795699,94.4981081 C65.0537634,94.5518919 63.0107527,91.6475676 61.3978495,89.2810811 C62.9569892,88.6356757 64.5698925,87.7751351 66.2365591,87.56 C67.7419355,88.0440541 69.0322581,89.2272973 70.5913978,89.6575676 C72.7956989,90.0340541 75.1612903,88.9045946 76.0215054,86.807027 C76.5591398,85.1397297 75.9677419,83.2035135 76.3978495,81.5362162 C77.0430108,81.0521622 77.7956989,80.6756757 78.5483871,80.2454054 Z" id="Shape" fill="#58A0D3" fill-rule="nonzero"></path>
                <path d="M35.2688172,83.58 C35.7526882,83.5262162 36.2903226,83.5262162 36.7741935,83.4724324 C36.8817204,84.0640541 36.9892473,84.7094595 37.0967742,85.3010811 C36.344086,85.3548649 35.5913978,85.3548649 34.8924731,85.4086486 C34.9462366,84.817027 35.1075269,84.2254054 35.2688172,83.58 Z" id="Shape" fill="#FFFFFF" fill-rule="nonzero"></path>
                <path d="M73.8709677,84.1178378 C74.3010753,85.4086486 73.655914,85.57 72.7956989,86.322973 C72.4193548,85.8389189 72.0430108,85.3548649 71.6666667,84.8708108 C72.5268817,84.2791892 72.9032258,82.827027 73.8709677,84.1178378 Z" id="Shape" fill="#FFFFFF" fill-rule="nonzero"></path>
                <path d="M127.096774,105.147297 C132.634409,105.308649 138.333333,106.868378 141.72043,111.547568 C145.215054,116.334324 145.537634,122.035405 144.946237,127.682703 C144.193548,133.007297 140.537634,137.256216 136.021505,139.891622 C131.129032,142.688378 125.376344,144.140541 119.784946,144.570811 C122.419355,143.172432 125.053763,142.150541 127.580645,140.590811 C131.451613,138.116757 134.731183,134.88973 136.129032,130.425676 C137.419355,126.875946 136.88172,123.38 135.913978,119.83027 C135.322581,122.358108 135.053763,124.670811 133.870968,126.983514 C132.365591,129.941622 129.892473,132.415676 127.043011,134.082973 C121.236559,137.363784 114.784946,138.331892 108.225806,138.224324 C113.11828,136.503243 117.849462,135.104865 122.043011,131.824054 C126.72043,128.381892 129.946237,123.164865 129.946237,117.248649 C130.107527,112.892162 128.494624,109.127297 127.096774,105.147297 Z" id="Shape" fill="#00457C" fill-rule="nonzero"></path>
                <path d="M48.0107527,109.611351 C49.4623656,109.88027 50.3763441,111.224865 51.344086,112.246757 C47.8494624,115.043514 43.7634409,116.872162 39.2473118,117.087297 C38.2258065,117.141081 37.311828,116.388108 36.4516129,115.904054 C34.4086022,119.4 32.0430108,123.111081 28.9784946,125.80027 C28.2258065,126.660811 27.4731183,125.907838 26.7741935,125.477568 C23.0107527,122.465676 20.1075269,118.700811 17.8494624,114.451892 C20.483871,114.882162 23.1182796,115.527568 25.8064516,115.097297 C30.483871,114.344324 34.3010753,112.246757 38.655914,110.687027 C41.5053763,109.718919 45,108.912162 48.0107527,109.611351 Z" id="Shape" fill="#98012E" fill-rule="nonzero"></path>
                <path d="M101.075269,112.300541 C109.569892,113.268649 118.870968,114.98973 126.505376,118.96973 C110.537634,113.914054 93.8172043,112.085405 77.4193548,115.85027 C75.483871,116.226757 73.8709677,117.194865 72.0430108,117.947838 C70.1075269,117.84027 69.2473118,114.828378 71.1290323,114.236757 C75.7526882,113.698919 80.3225806,112.730811 85,112.300541 C90.3225806,111.977838 95.6989247,111.924054 101.075269,112.300541 Z" id="Shape" fill="#00457C" fill-rule="nonzero"></path>
                <path d="M62.311828,113.322432 C62.7419355,115.688919 63.0107527,117.947838 62.2043011,120.260541 C61.4516129,122.573243 59.4623656,124.240541 57.0967742,124.832162 C54.516129,125.262432 51.9892473,125.208649 49.3548387,125.154865 C50.3225806,124.885946 51.2903226,124.617027 52.2580645,124.401892 C55.3225806,123.864054 58.1182796,122.842162 60.1075269,120.314324 C61.827957,118.270541 61.827957,115.904054 62.311828,113.322432 Z" id="Shape" fill="#00457C" fill-rule="nonzero"></path>
                <path d="M68.2795699,114.505676 C68.8172043,117.84027 69.1935484,121.927838 67.3655914,124.93973 C65.9139785,127.467568 63.4408602,128.758378 60.6989247,129.457568 C56.1827957,130.533243 52.2043011,129.726486 47.7419355,128.973514 C51.2365591,128.704595 54.3548387,129.134865 57.7956989,128.220541 C61.0752688,127.467568 64.0860215,125.907838 65.9139785,123.003514 C67.6344086,120.314324 67.8494624,117.517568 68.2795699,114.505676 Z" id="Shape" fill="#00457C" fill-rule="nonzero"></path>
                <path d="M45.6451613,124.509459 C47.8494624,124.563243 50.0537634,124.670811 52.2580645,124.455676 C51.2903226,124.670811 50.3225806,124.93973 49.3548387,125.208649 C51.9892473,125.262432 54.4623656,125.316216 57.0967742,124.885946 C53.2258065,126.069189 49.516129,125.423784 45.6451613,124.509459 Z" id="Shape" fill="#00457C" fill-rule="nonzero"></path>
                <path d="M88.7096774,124.778378 C93.2795699,124.348108 97.9032258,126.822162 101.344086,129.618919 C97.8494624,131.501351 94.2473118,133.061081 90.9677419,135.104865 C87.0430108,137.578919 83.4946237,140.429459 80.5376344,143.979189 C78.3870968,146.453243 76.4516129,149.411351 73.4408602,150.863514 C72.311828,151.293784 71.0752688,151.992973 70,151.024865 C67.6344086,149.142432 66.2903226,145.915405 65.2688172,143.172432 C64.4086022,144.624595 63.5483871,146.076757 62.688172,147.475135 C62.0430108,143.656486 62.2043011,139.999189 65.3225806,137.363784 C68.2258065,136.933514 71.2365591,138.224324 74.3010753,137.202432 C77.9569892,135.965405 80.1612903,132.630811 82.311828,129.672703 C83.9247312,127.36 85.6989247,125.101081 88.7096774,124.778378 Z" id="Shape" fill="#98012E" fill-rule="nonzero"></path>
                <path d="M81.7741935,125.477568 C79.6236559,127.844054 78.0107527,130.587027 75.8602151,132.89973 C74.6774194,134.190541 73.172043,134.620811 71.5053763,135.158649 C72.2580645,134.082973 73.1182796,133.007297 73.7634409,131.877838 C74.6236559,130.425676 74.6774194,128.489459 74.9462366,126.875946 C75.3763441,127.467568 75.8064516,128.059189 76.2365591,128.650811 C78.0645161,127.413784 79.8924731,126.391892 81.7741935,125.477568 Z" id="Shape" fill="#FFFFFF" fill-rule="nonzero"></path>
                <path d="M42.5268817,134.88973 C41.344086,137.31 40.5913978,139.676486 39.9462366,142.311892 C36.8817204,139.568919 33.9784946,136.933514 32.2043011,133.114865 C35.9677419,132.577027 39.0322581,133.921622 42.5268817,134.88973 Z" id="Shape" fill="#FFFFFF" fill-rule="nonzero"></path>
                <path d="M52.0430108,137.363784 C55.1075269,137.525135 58.172043,137.686486 61.2903226,137.632703 C60,140.052973 59.4623656,142.042973 59.2473118,144.83973 C56.6129032,142.580811 54.1397849,140.160541 52.0430108,137.363784 Z" id="Shape" fill="#FFFFFF" fill-rule="nonzero"></path>
                <path d="M88.6021505,140.214324 C87.311828,142.311892 85.8602151,144.355676 84.5698925,146.453243 C82.4193548,150.056757 80.3763441,153.498919 77.1505376,156.295676 C74.4623656,158.877297 71.1827957,160.006757 67.688172,161.028649 C66.3978495,157.263784 65.6451613,153.391351 65.5376344,149.357568 C66.7204301,150.917297 67.7956989,152.745946 69.1397849,154.198108 C69.8387097,155.058649 70.4301075,154.628378 71.344086,154.467027 C73.8709677,153.875405 76.4516129,152.745946 78.2795699,150.917297 C80.2688172,148.981081 81.827957,146.560811 83.7096774,144.517027 C85.1612903,142.84973 86.827957,141.505135 88.6021505,140.214324 Z" id="Shape" fill="#FFFFFF" fill-rule="nonzero"></path>
                <path d="M55.2688172,145.431351 C55.8064516,145.646486 56.2903226,145.969189 56.7741935,146.238108 C55.6451613,148.81973 54.1397849,151.132432 53.2795699,153.767838 C51.9354839,154.144324 50.6989247,154.78973 49.4086022,155.327568 C50.5376344,153.445135 51.9892473,151.831622 53.2258065,150.056757 C54.1935484,148.604595 54.6236559,147.044865 55.2688172,145.431351 Z" id="Shape" fill="#FFFFFF" fill-rule="nonzero"></path>
                <path d="M59.1935484,148.335676 C60.4301075,149.142432 62.0430108,150.002973 62.8494624,151.293784 C63.1182796,152.423243 63.0645161,153.66027 63.172043,154.843514 C60.6989247,155.542703 58.4408602,155.865405 55.8602151,155.435135 C56.5591398,152.907297 57.6344086,150.540811 59.1935484,148.335676 Z" id="Shape" fill="#98012E" fill-rule="nonzero"></path>
                <path d="M45.4301075,152.154324 C46.2903226,154.036757 46.9354839,156.618378 48.7096774,157.855405 C50.2688172,158.931081 51.6129032,157.962973 53.2795699,157.855405 C54.8924731,157.909189 56.4516129,158.500811 58.1182796,158.500811 C60.1612903,158.608378 61.9354839,158.070541 63.8709677,157.64027 C64.1935484,158.931081 64.4623656,160.275676 64.7849462,161.566486 C61.1827957,161.942973 57.6344086,162.158108 54.0322581,161.674054 C51.2365591,161.351351 47.5806452,160.383243 45.8602151,157.962973 C44.516129,156.080541 45.1612903,154.305676 45.4301075,152.154324 Z" id="Shape" fill="#FFFFFF" fill-rule="nonzero"></path>
                <path d="M77.4193548,181.842973 C78.0645161,184.532162 79.1935484,186.952432 80.5376344,189.318919 C77.3655914,187.651622 75.1075269,185.822973 72.9569892,182.972432 C74.4086022,182.595946 75.8602151,182.165676 77.4193548,181.842973 Z" id="Shape" fill="#FFFFFF" fill-rule="nonzero"></path>
            </g>
        </g>
    </g>
</svg>