<?xml version="1.0" encoding="UTF-8"?>
<svg width="200px" height="200px" viewBox="0 0 200 200" version="1.1" xmlns="http://www.w3.org/2000/svg" xmlns:xlink="http://www.w3.org/1999/xlink">
    <!-- Generator: Sketch 51.3 (57544) - http://www.bohemiancoding.com/sketch -->
    <title>stevenson</title>
    <desc>Created with Sketch.</desc>
    <defs></defs>
    <g id="stevenson" stroke="none" stroke-width="1" fill="none" fill-rule="evenodd">
        <g id="stevenson_BGL" transform="translate(0.000000, 39.800995)">
            <g id="stevenson">
                <g id="g10" transform="translate(99.999998, 60.746890) scale(-1, 1) rotate(-180.000000) translate(-99.999998, -60.746890) translate(0.000000, 0.109754)" fill-rule="nonzero">
                    <g id="g12">
                        <path d="M160.736925,16.5865889 L149.038724,16.5865889 L148.644533,16.1171312 L148.442597,16.5865889 L145.983675,16.5865889 L145.990038,16.6178678 L130.837341,16.6178678 L130.831809,16.5865889 L126.007466,16.5865889 L125.859748,15.901499 C124.703178,16.4713509 123.375101,16.7819722 121.853109,16.7819722 C121.315073,16.7819722 120.737756,16.735877 120.139969,16.646156 C119.464174,16.5434844 118.902625,16.4224845 118.424063,16.2710563 C117.551588,16.0015914 116.751864,15.6369729 116.040108,15.1927305 C115.641214,15.4932547 115.20138,15.7604422 114.704561,15.9730837 C113.693773,16.4099455 112.532777,16.6178678 111.143012,16.6178678 L102.108435,16.6178678 L102.096816,16.5614012 L98.5665259,16.5614012 L98.5997209,16.6178678 L61.6190856,16.6178678 L61.6113401,16.5865889 L49.6099573,16.5865889 L49.0702616,14.0920155 C49.0702616,14.0920155 47.6603031,7.53217492 47.6578135,7.53000735 C47.5311191,6.93430922 47.4644525,6.36445733 47.4644525,5.83820381 C47.4644525,3.29111485 48.9565686,1.30929021 51.4600264,0.536427384 C52.5438438,0.197851018 53.7715063,0.033439597 55.2105104,0.033439597 C56.2755173,0.033439597 57.2448118,0.159159586 58.1352683,0.382732822 L58.0912849,0.179952088 L67.6204686,0.179952088 L67.629044,0.223573785 L70.4793897,0.197851018 L70.4741338,0.179952088 L72.4406621,0.179952088 L75.0417685,0.156908878 L75.0467478,0.179952088 L87.905392,0.179952088 L87.9040089,0.171806682 L103.583953,0.171806682 L103.58506,0.179952088 L117.264174,0.179952088 C117.937203,0.0641996363 118.652832,0 119.418808,0 C120.341352,0 121.273303,0.0976392334 122.182846,0.292811516 C122.300965,0.317996506 122.414658,0.362154609 122.533884,0.392914922 L122.48741,0.179952088 L150.456151,0.179952088 L150.969844,2.71353653 L151.667493,6.14849584 L160.736925,16.5865889" id="path14" fill="#C6C5C5"></path>
                        <path d="M168.518391,40.114072 L147.570397,40.114072 L147.331947,39.0064154 C146.97759,39.1710411 146.620467,39.3299049 146.242597,39.4632517 C144.573164,40.0438317 142.758503,40.333573 140.813551,40.333573 C137.046746,40.333573 133.721988,39.319753 130.907051,37.3480857 C128.556843,39.360635 125.533883,40.3826863 121.899582,40.3826863 C121.022404,40.3826863 120.086304,40.308056 119.125032,40.1590697 C118.436512,40.0539836 117.833745,39.9357275 117.286304,39.8023807 L117.354907,40.114072 L89.8641748,40.114072 L89.8439812,40.0207841 L85.0099564,40.0207841 L85.0669412,40.114072 L51.0304275,40.114072 L51.0467484,40.0207841 L46.28105,40.0207841 L46.300967,40.114072 L21.6696813,40.114072 L21.5887685,39.7381767 C20.1905113,40.1590697 18.6668045,40.3826863 17.01029,40.3826863 C16.1301517,40.3826863 15.1956843,40.308056 14.2328074,40.1590697 C13.1301795,39.9897796 12.2198061,39.789485 11.453914,39.548034 C9.59737182,38.9729415 7.92724738,38.1284116 6.51463331,37.0427051 C4.5974826,35.5586043 3.36099577,33.8105536 2.8348547,31.8339476 C2.83228209,31.8235213 2.65830422,31.1688598 2.65830422,31.1688598 C2.45061681,30.3753639 2.34569565,29.569521 2.34569565,28.7581906 C2.34569565,28.5655786 2.36320049,28.3781796 2.37605803,28.1905063 L0,27.8083003 L0,23.3362429 C0,20.8909475 0.887684625,18.694676 2.5468962,16.9923638 C5.00260015,14.4483753 8.56199149,13.1596578 13.1246746,13.1596578 C14.6077451,13.1596578 16.1048682,13.3190429 17.5775929,13.6321062 C18.5035127,13.8296296 19.4022402,14.1068044 20.2675514,14.4409672 L20.0539137,13.4472315 L31.5330559,13.4472315 L31.5302897,13.4342535 L38.071645,13.4342535 L111.653109,13.4646818 L111.80304,14.1789379 C113.601934,13.5033689 115.674963,13.1596578 118.017701,13.1596578 C119.497922,13.1596578 120.996677,13.3190429 122.468323,13.6321062 C123.969292,13.9506295 125.408296,14.4587742 126.745225,15.1403246 C127.306774,15.43152 127.837341,15.7625823 128.344395,16.1196006 C129.017424,15.5986151 129.746055,15.1186763 130.570674,14.718142 C132.625723,13.7166689 134.879941,13.2059725 137.263897,13.2059725 C138.837618,13.2059725 140.401103,13.4164465 141.925308,13.81185 L141.847576,13.4472315 L169.35048,13.4317841 L170.248682,17.6163501 L173.704007,33.7691228 L175.063066,40.114072 L168.518391,40.114072" id="path16" fill="#C6C5C5"></path>
                        <path d="M184.212444,73.1840844 L182.79391,78.3184858 L182.667215,78.786846 L182.607741,79.0052494 L182.152139,79.5572943 L171.196123,92.8478021 C177.324754,99.4569756 182.196123,107.867154 182.408571,108.23427 L186.239276,114.870606 L187.99142,117.903835 L177.956565,112.892628 L173.452831,110.641097 C173.965418,111.479591 174.283813,112.026148 174.348543,112.153185 L174.358778,112.173763 L177.472471,118.345306 L178.901517,121.179612 L149.547714,106.516675 C144.013828,107.456413 137.79972,107.93273 131.065004,107.93273 C117.088241,107.93273 105.484921,105.882866 104.995848,105.795614 L96.4243406,104.262674 L98.7374802,102.820004 L103.474133,99.8625035 C93.4049769,98.6264389 84.161547,96.6202002 75.9573978,93.8849441 L70.5615473,92.0877801 L68.0937742,91.2638284 L75.1040092,87.9109515 C64.6196388,84.7248953 55.193083,80.8216197 47.0547706,76.291669 L39.8204693,72.2651985 L46.8082976,70.4035561 C38.4824333,66.2385257 31.074688,61.7033618 24.76011,56.8951936 L20.2410783,53.4547907 L18.1773993,51.8812433 L20.7630977,51.5758626 L23.7449233,51.2241123 C19.1331669,48.5206838 14.8819913,45.691591 11.0720329,42.7906117 L5.65872738,38.6675608 L3.18044252,36.7834196 L138.896815,36.7834196 L138.908157,36.9014013 L168.99308,36.9014013 L174.803039,31.6333786 C175.189484,30.7658012 175.765694,30.0082485 176.199166,29.5102558 C177.299304,28.2470278 179.700964,26.1266213 183.420466,26.1266213 C183.826551,26.1266213 184.147713,26.1266213 191.907326,30.6349237 C195.626551,32.7937155 199.304283,34.9835118 199.340797,35.00409 L199.83651,35.2995932 L199.83651,43.5580418 L184.212444,73.1840844" id="path18" fill="#C6C5C5"></path>
                        <path d="M172.632637,44.0870391 C178.395846,42.0613198 183.180355,37.9884797 186.113412,32.7531078 L189.848405,34.4268025 C184.775929,45.7305524 172.632637,44.0870391 172.632637,44.0870391" id="path20" fill="#FFFFFF"></path>
                        <path d="M181.046745,71.9518609 L179.538031,77.4352689 L166.669152,93.0428836 C173.476068,99.5060889 179.47828,109.899184 179.47828,109.899184 L162.996123,101.666253 C167.753523,107.460529 171.325584,113.643322 171.325584,113.643322 L150.073579,103.026884 C153.172057,102.455084 156.186995,101.699178 159.020743,100.712521 C159.020743,100.712521 83.2605788,105.441394 25.5275236,40.130809 L135.824616,40.130809 C136.795294,50.2893127 142.1751,57.4982725 142.1751,57.4982725 C144.917285,53.7552326 149.350757,51.3138333 154.372334,51.3138333 C155.513966,51.3138333 156.621849,51.4510214 157.690729,51.6886312 L177.754629,33.4999598 C177.669152,32.9273367 179.70373,29.4795256 183.421572,29.4795256 C183.565417,29.4795256 184.985058,30.2881122 186.83402,31.3790319 C186.609677,31.8465689 186.36597,32.3028565 186.113412,32.7531078 C183.180355,37.9884797 178.395846,42.0613198 172.632637,44.0870391 C172.632637,44.0870391 184.775929,45.7305524 189.848405,34.4268025 C189.99308,34.1038618 190.133329,33.772141 190.266385,33.4277989 C193.419082,35.3248358 196.471641,37.1941607 196.471641,37.1941607 L196.471641,42.7110426 L181.046745,71.9518609" id="path22" fill="#004C40"></path>
                        <path d="M150.073579,103.026884 C129.657535,106.794892 105.598614,102.496789 105.598614,102.496789 L113.658918,97.4674739 C104.589486,96.8589075 90.5131374,95.2030472 77.0348528,90.7093142 L84.6365124,87.075476 C75.9089884,84.8892466 61.6921146,80.5955337 48.7087125,73.3690139 L56.5764854,71.2766211 C48.2976475,67.661715 36.9562923,61.9549648 26.8165415,54.2353909 L34.6337474,53.3110176 C27.8428762,49.9145148 20.1930839,45.5116003 13.1301795,40.130809 L25.5275236,40.130809 C83.2605788,105.441394 159.020743,100.712521 159.020743,100.712521 C156.186995,101.699178 153.172057,102.455084 150.073579,103.026884" id="path24" fill="#231F20"></path>
                        <path d="M175.225998,75.4907649 L165.566248,84.1884898 L164.795293,84.8854053 L164.904007,83.8559459 L165.299858,80.1513187 L165.319498,79.9666635 L165.474408,79.8637725 C166.244809,79.3556278 166.980909,78.754744 167.663066,78.072096 L167.833744,77.9028059 L168.064449,77.9744181 C168.432084,78.0874611 168.742181,78.1401413 169.045362,78.1401413 C170.872472,78.1401413 172.357949,76.6653693 172.357949,74.8539378 C172.357949,73.9619408 172.001102,73.1275629 171.35131,72.5036314 L171.178142,72.3343413 L171.247852,72.1030422 C171.387548,71.6541628 171.48077,71.3021381 171.55048,70.9709661 L171.729456,70.0880235 L172.262513,70.817041 L175.280217,74.9683527 L175.489899,75.254527 L175.225998,75.4907649" id="path26" fill="#FFFFFF"></path>
                        <path d="M61.7795282,40.130809 C86.7814639,71.0327007 121.819361,89.199422 143.242873,96.8589075 C121.981463,92.0940907 78.1701225,75.1439534 47.9056696,40.130809 L50.4901785,38.9798009 L61.7795282,40.130809" id="path28" fill="#C6C5C5"></path>
                        <path d="M65.4899015,40.130809 C89.4091264,70.3190483 122.619361,88.768377 143.242873,96.8589075 C122.707604,91.5963723 81.1908693,74.1545529 52.0962643,40.130809 L65.4899015,40.130809" id="path30" fill="#231F20"></path>
                        <path d="M138.037894,24.0575505 C137.934436,24.0575505 137.864174,24.0652604 137.82185,24.0729704 C137.791974,24.1574234 137.742459,24.3500355 137.742459,24.7226932 C137.742459,25.1690758 137.810232,25.69286 137.940522,26.2783787 C138.353524,28.152368 138.855598,28.8045602 139.055045,28.9996417 C139.487133,29.4254735 139.800273,29.481995 140.030425,29.481995 C140.071919,29.481995 140.105667,29.4795256 140.130287,29.4770562 C140.13416,29.4718431 140.135543,29.4669043 140.136649,29.456478 C140.214381,29.2613966 140.254768,29.0073242 140.254768,28.7120954 C140.254768,28.2807761 140.185889,27.7545226 140.054215,27.1459836 C139.606359,25.0974911 138.928074,24.0575505 138.037894,24.0575505 Z M162.10622,36.7834196 L161.777313,35.2611805 L161.101794,32.1160063 L159.24232,35.7333819 L158.70373,36.7834196 L150.292112,36.7834196 L149.964312,35.2611805 L149.446746,32.850237 C149.167078,33.3224384 148.835958,33.7691228 148.448129,34.179864 C147.537756,35.1429244 146.413551,35.8642594 145.10871,36.3265832 C143.82268,36.7729933 142.383122,36.9990792 140.813551,36.9990792 C137.558779,36.9990792 134.73001,36.0977535 132.402763,34.3186983 C131.810232,33.8670751 131.26943,33.3767649 130.790591,32.8656021 C130.66611,32.7319809 130.547438,32.5909515 130.428213,32.4548609 C130.053109,33.3635948 129.488793,34.1518776 128.738309,34.8026979 C127.02434,36.2931093 124.720882,37.0501132 121.899582,37.0501132 C121.19972,37.0501132 120.438725,36.9861836 119.640384,36.8657324 C118.726415,36.7268981 117.981187,36.5677599 117.362653,36.3751478 C115.871643,35.9103546 114.55712,35.2480105 113.464451,34.4084193 C113.112307,34.1365125 112.798337,33.8539051 112.51452,33.5638895 L112.706498,34.4600021 L113.203317,36.7834196 L104.397784,36.7834196 L103.393635,32.1160063 L100.994188,36.7834196 L69.7195003,36.7834196 L66.1789748,30.4807243 L65.2923912,36.7834196 L24.3970395,36.7834196 L24.0735264,35.253498 L23.9546605,34.7011787 C23.9209399,34.7373964 23.8839828,34.7730653 23.8483258,34.8065392 C22.1322816,36.2931093 19.8312028,37.0501132 17.01029,37.0501132 C16.3094325,37.0501132 15.5497921,36.9861836 14.7493219,36.8657324 C13.8337479,36.7268981 13.088907,36.5677599 12.4755737,36.3751478 C10.9819084,35.9103546 9.66987528,35.2480105 8.5757121,34.4084193 C7.25319484,33.3869168 6.41640371,32.2342625 6.08240649,30.9811865 L5.90918381,30.3243299 C5.7739141,29.8131671 5.70799432,29.2869135 5.70799432,28.7581906 C5.70799432,27.4977065 6.13438436,26.3988573 6.93604409,25.5491417 L3.36099577,24.9740218 L3.36099577,23.3362429 C3.36099577,21.7752894 3.92127238,20.3763001 4.97482698,19.2976451 C6.77568448,17.4366063 9.51773144,16.4919291 13.1246746,16.4919291 C14.3785612,16.4919291 15.6396953,16.6252759 16.874882,16.8897746 C18.0747437,17.1465907 19.2315071,17.554835 20.3102346,18.1016393 C21.3966246,18.6611198 22.3463342,19.3802872 23.1341903,20.2429533 C24.0064171,21.1974806 24.5704835,22.2837359 24.8092663,23.4774918 C24.8118666,23.4953811 24.8260298,23.569984 24.8830699,23.803533 L24.9373161,24.024104 L24.9373161,24.838233 C24.9373161,25.9494566 24.6197504,27.6132188 23.0203037,28.9250114 L23.3379801,28.9996417 L26.8430145,28.9996417 L24.7083535,19.1081609 L24.2089067,16.7795028 L33.9114791,16.7795028 L34.2378968,18.3044307 L36.5355454,28.9996417 L38.291562,28.9996417 L36.1737197,19.0925214 L35.6766243,16.7693234 L54.2785602,16.7693234 L54.6035948,18.2970226 L55.4116169,22.1089308 L55.9048395,24.4296595 L54.2495145,24.4296595 L54.3117552,24.7251626 L55.0993071,28.3576014 L55.2699848,29.1458842 L56.3803582,29.1458842 L58.2821562,18.372476 L58.5640373,16.7795028 L67.3623773,16.7795028 L67.9239264,17.7315607 L73.7988917,27.6620578 L71.9715058,19.0925214 L71.4744104,16.7693234 L90.0777294,16.7693234 L90.0777294,16.7795028 L97.0868579,16.7795028 L97.4146587,18.2992724 L98.2973696,22.3759263 L99.2860279,20.5483066 C99.2666642,20.5842224 100.654216,17.8780776 100.654216,17.8780776 L101.18589,16.8384388 L102.363483,16.8280399 L107.33582,16.7795028 L108.922266,16.7665248 L109.250896,18.3044307 L109.543289,19.6623733 C109.644257,19.5391235 109.750481,19.4121148 109.864451,19.2976451 C111.663344,17.4366063 114.406636,16.4919291 118.017701,16.4919291 C119.268877,16.4919291 120.530841,16.6252759 121.765419,16.8897746 C122.963759,17.1465907 124.120329,17.554835 125.202486,18.1016393 C126.289623,18.6611198 127.237065,19.3802872 128.023787,20.2429533 C128.204976,20.4426443 128.370675,20.6482069 128.528627,20.8589004 C129.28658,19.5445836 130.467217,18.4789065 132.053662,17.7115312 C133.645363,16.9337296 135.400273,16.5404937 137.263897,16.5404937 C138.648406,16.5404937 140.026829,16.7279475 141.366525,17.1029649 C143.436788,17.6829961 145.22268,18.6890787 146.70871,20.0887265 L146.495985,19.1053622 L145.999443,16.7795028 L154.796677,16.7795028 L155.123094,18.2992724 L156.005529,22.3759263 L156.996953,20.5483066 C156.976206,20.5842224 158.362098,17.8780776 158.362098,17.8780776 L158.896538,16.8384388 L166.630425,16.7665248 L170.911476,36.7834196 L162.10622,36.7834196 Z" id="path32" fill="#231F20"></path>
                        <path d="M5.30105104,23.3362429 L10.9872196,24.2554031 C10.9872196,23.9546594 11.0842321,23.6775943 11.2771228,23.4259365 C11.48686,23.1411615 11.733333,22.9227306 12.0153524,22.7713024 C12.678091,22.4019646 13.3936373,22.2195319 14.1651449,22.2195319 C14.7454215,22.2195319 15.3336926,22.3298311 15.9352416,22.5507314 C16.4433191,22.735606 16.7202762,22.9642163 16.766196,23.2385925 L16.766196,23.3307554 C16.766196,23.7672879 16.2615487,24.1011489 15.2528627,24.3371672 L11.6802763,25.1768132 C10.3550758,25.490096 9.29773144,26.0034538 8.50254474,26.714582 C7.93244793,27.2255253 7.64652816,27.9084476 7.64652816,28.7581906 C7.64652816,29.1228366 7.69449497,29.4844644 7.78558763,29.8362147 L7.95903161,30.4884068 C8.1842045,31.3304673 8.78459176,32.128902 9.76304263,32.8850828 C10.6798891,33.5896808 11.7787272,34.1414513 13.0573441,34.5371018 C13.5728904,34.6987093 14.2356013,34.8400131 15.0450619,34.963208 C15.7443979,35.0710378 16.3993357,35.1248155 17.01029,35.1248155 C19.3597506,35.1248155 21.2135818,34.534358 22.569792,33.3586561 C23.2479662,32.7681985 23.7066661,32.0262853 23.9433189,31.1329165 L18.7538861,29.862006 C18.6854767,30.4269466 18.3464172,30.8505834 17.7375099,31.1353859 C17.2605528,31.3485762 16.6950757,31.4536622 16.0388654,31.4536622 C15.4533053,31.4536622 14.9349374,31.3716238 14.4787272,31.2023337 C13.9851449,31.0198735 13.7160716,30.7965313 13.6681048,30.5399896 L13.6614934,30.4244772 L13.6681048,30.4011552 C13.6681048,29.9648971 14.1424616,29.6518339 15.0917285,29.4614168 L18.7538861,28.7145648 C21.5823784,28.1394724 22.9975928,26.8482581 22.9975928,24.838233 L22.9975928,24.2554031 C22.949626,24.0603217 22.9192525,23.9264535 22.9037062,23.8520702 C22.7354628,23.002382 22.3323922,22.2324001 21.696265,21.5363901 C21.0613273,20.8383222 20.3032083,20.2660009 19.4251447,19.8164904 C18.4933605,19.3391307 17.5072471,18.9950904 16.4665556,18.7717208 C15.3563758,18.5355103 14.2432915,18.4171719 13.1246746,18.4171719 C10.0503455,18.4171719 7.80168722,19.1542561 6.37576748,20.6302902 C5.65872738,21.3645757 5.30105104,22.2631577 5.30105104,23.3362429" id="path34" fill="#FFFFFF"></path>
                        <polyline id="path36" fill="#FFFFFF" points="26.6074406 18.7047456 29.2431528 30.924665 25.1405803 30.924665 25.9726135 34.8564756 39.773443 34.8564756 38.9408012 30.924665 34.9648677 30.924665 32.3399715 18.7047456 26.6074406 18.7047456"></polyline>
                        <polyline id="path38" fill="#FFFFFF" points="38.071645 18.6918773 41.5048399 34.7629134 56.1363748 34.7629134 55.3507593 31.0687125 46.6019352 31.0687125 46.1048398 28.7631294 53.2013818 28.7631294 52.4149364 25.1281389 45.3175646 25.1281389 44.7518661 22.5071056 53.5125851 22.5071056 52.7042864 18.6918773 38.071645 18.6918773"></polyline>
                        <polyline id="path40" fill="#FFFFFF" points="60.1941894 18.7047456 57.341354 34.8564756 63.6044244 34.8564756 65.0605793 24.5322213 70.8625155 34.8564756 75.8105099 34.8564756 66.2508974 18.7047456 60.1941894 18.7047456"></polyline>
                        <polyline id="path42" fill="#FFFFFF" points="73.8694311 18.6918773 77.3015195 34.7629134 91.935544 34.7629134 91.1479922 31.0687125 82.3977849 31.0687125 81.9006895 28.7631294 88.9977848 28.7631294 88.2102329 25.1281389 81.1164572 25.1281389 80.5496522 22.5071056 89.3114777 22.5071056 88.5006894 18.6918773 73.8694311 18.6918773"></polyline>
                        <path d="M90.6860282,18.7047456 L94.1538012,34.8564756 L99.8044235,34.8564756 L104.499029,25.7340164 L104.926138,30.0211442 L105.966249,34.8564756 L110.808849,34.8564756 L107.352418,18.7047456 L102.383123,18.7508133 L100.995848,21.4567661 L99.7120307,23.8290226 L98.8356822,25.6311253 C98.3123074,26.7096706 97.8063599,27.8982957 97.3197763,29.2073445 L97.3197763,28.8276078 C97.3197763,28.6887735 97.3289049,28.5554266 97.3424595,28.4270186 L97.3424595,27.441185 C97.3424595,27.3744841 97.3313945,27.2715931 97.3092645,27.1379444 C97.2879644,27.004625 97.2744097,26.9020358 97.2744097,26.8329204 L95.5175633,18.7047456 L90.6860282,18.7047456" id="path44" fill="#FFFFFF"></path>
                        <path d="M110.190315,23.3362429 L115.877176,24.2554031 C115.877176,23.9546594 115.975101,23.6775943 116.166802,23.4259365 C116.373718,23.1411615 116.619914,22.9227306 116.907051,22.7713024 C117.572058,22.4019646 118.285474,22.2195319 119.057812,22.2195319 C119.634852,22.2195319 120.22517,22.3298311 120.825723,22.5507314 C121.333054,22.735606 121.609955,22.9642163 121.656705,23.2385925 L121.656705,23.3307554 C121.656705,23.7672879 121.152971,24.1011489 120.142182,24.3371672 L116.570675,25.1768132 C115.245364,25.490096 114.185336,26.0034538 113.392252,26.714582 C112.825447,27.2255253 112.537757,27.9084476 112.537757,28.7581906 C112.537757,29.1228366 112.584783,29.4844644 112.677729,29.8362147 L112.848683,30.4884068 C113.074133,31.3304673 113.674409,32.128902 114.652833,32.8850828 C115.569015,33.5896808 116.668877,34.1414513 117.947438,34.5371018 C118.462791,34.6987093 119.125032,34.8400131 119.935267,34.963208 C120.636788,35.0710378 121.291837,35.1248155 121.899582,35.1248155 C124.250066,35.1248155 126.103178,34.534358 127.459748,33.3586561 C128.137756,32.7681985 128.595847,32.0262853 128.836235,31.1329165 L123.646747,29.862006 C123.577037,30.4269466 123.235682,30.8505834 122.629872,31.1353859 C122.151034,31.3485762 121.583953,31.4536622 120.929181,31.4536622 C120.344395,31.4536622 119.823787,31.3716238 119.368462,31.2023337 C118.876899,31.0198735 118.606359,30.7965313 118.560993,30.5399896 L118.553247,30.4244772 L118.560993,30.4011552 C118.560993,29.9648971 119.034575,29.6518339 119.98174,29.4614168 L123.646747,28.7145648 C126.473026,28.1394724 127.888793,26.8482581 127.888793,24.838233 L127.888793,24.2554031 C127.840107,24.0603217 127.811615,23.9264535 127.795847,23.8520702 C127.62517,23.002382 127.221297,22.2324001 126.586995,21.5363901 C125.950481,20.8383222 125.194464,20.2660009 124.31452,19.8164904 C123.383123,19.3391307 122.396954,18.9950904 121.35629,18.7717208 C120.245917,18.5355103 119.133054,18.4171719 118.017701,18.4171719 C114.942459,18.4171719 112.69073,19.1542561 111.266111,20.6302902 C110.550481,21.3645757 110.190315,22.2631577 110.190315,23.3362429" id="path46" fill="#FFFFFF"></path>
                        <path d="M136.04481,26.6964731 C135.884367,25.9702543 135.804146,25.3128215 135.804146,24.7226932 C135.804146,22.9949738 136.548268,22.1347496 138.037894,22.1347496 C139.97344,22.1347496 141.278281,23.6698844 141.951034,26.7428976 C142.114243,27.482067 142.194187,28.1394724 142.194187,28.7120954 C142.194187,29.2410927 142.114243,29.7182329 141.951034,30.1443391 C141.626276,30.9863996 140.988378,31.4061952 140.027936,31.4061952 C139.171228,31.4061952 138.389761,31.0585605 137.685474,30.3652119 C136.976483,29.6696683 136.433192,28.4475968 136.04481,26.6964731 Z M129.656705,26.6964731 C130.065834,28.5529573 130.917562,30.1701305 132.211615,31.5562789 C132.620467,31.9928114 133.079941,32.4062963 133.588378,32.7937155 C135.576207,34.3162289 137.985889,35.0759766 140.813551,35.0759766 C142.169844,35.0759766 143.382292,34.8885777 144.453938,34.5137798 C145.471366,34.1546214 146.33167,33.6050459 147.034574,32.8631327 C147.733606,32.1214939 148.194187,31.2484289 148.409125,30.2392733 C148.502071,29.8106977 148.548544,29.3228568 148.548544,28.7837076 C148.548544,27.4052417 148.281877,26.0833247 147.750204,24.8150757 C147.502901,24.219158 147.187272,23.6517755 146.801656,23.1181139 C145.320882,21.0411136 143.33333,19.652194 140.835405,18.9564034 C139.665833,18.6280025 138.473855,18.4632671 137.263897,18.4632671 C135.692389,18.4632671 134.238171,18.7870584 132.905114,19.4390037 C130.609402,20.5560165 129.460301,22.3556499 129.460301,24.838233 C129.460301,25.4774472 129.527521,26.1011043 129.656705,26.6964731 Z" id="path48" fill="#FFFFFF"></path>
                        <path d="M148.393357,18.7047456 L151.861407,34.8564756 L157.511753,34.8564756 L162.206912,25.7340164 L162.634297,30.0211442 L163.674408,34.8564756 L168.518391,34.8564756 L165.06445,18.7047456 L160.092112,18.7508133 L158.705114,21.4567661 L157.42102,23.8290226 L156.543841,25.6311253 C156.02102,26.7096706 155.513966,27.8982957 155.027105,29.2073445 L155.027105,28.8276078 C155.027105,28.6887735 155.037617,28.5554266 155.050342,28.4270186 L155.050342,27.441185 C155.050342,27.3744841 155.040107,27.2715931 155.019637,27.1379444 C154.9964,27.004625 154.983122,26.9020358 154.983122,26.8329204 L153.226829,18.7047456 L148.393357,18.7047456" id="path50" fill="#FFFFFF"></path>
                        <path d="M52.1820181,13.4317841 L55.9789751,13.4317841 L54.5369281,6.7070983 C54.5175643,6.61600541 54.508989,6.53369256 54.508989,6.45631847 C54.508989,6.23058919 54.608574,6.03819661 54.8047013,5.87636954 C54.9283527,5.77369797 55.0752407,5.69415632 55.2486846,5.63511057 C55.4221286,5.57370518 55.613,5.54538955 55.8212987,5.54538955 C56.2334702,5.54538955 56.630704,5.64808856 57.0163195,5.85332194 C57.4564301,6.08709045 57.7167344,6.38503554 57.7928063,6.7493248 L59.2378962,13.4317841 L62.1834009,13.4317841 L60.7629307,6.77742092 C60.5377578,5.70455518 59.9651437,4.83920014 59.0522807,4.1770481 C58.1388644,3.5172557 56.8591964,3.18608365 55.2105104,3.18608365 C54.1103721,3.18608365 53.1759323,3.30678173 52.4074676,3.54546157 C51.2334704,3.91018983 50.644812,4.67479393 50.644812,5.83820381 C50.644812,6.14355707 50.6860292,6.49006675 50.76957,6.8712027 L52.1820181,13.4317841" id="path52" fill="#231F20"></path>
                        <path d="M62.0201921,3.33528942 L64.193636,13.4646818 L67.7377576,13.4646818 L70.6804962,7.74020694 L70.9471628,10.4306849 L71.5988917,13.4646818 L74.6378958,13.4646818 L72.4697077,3.33528942 L69.3526954,3.36324835 L68.4838157,5.0603199 L67.6807729,6.5491125 L67.1294589,7.67622241 C66.8005516,8.35121526 66.4835391,9.10081098 66.1789748,9.92009826 L66.1789748,9.68075991 C66.1789748,9.59630693 66.1839541,9.51152469 66.1939126,9.42954108 L66.1939126,8.81326474 C66.1939126,8.76985843 66.1867203,8.7054349 66.173719,8.62065266 C66.1587812,8.53855931 66.1510357,8.47435529 66.1510357,8.43105872 L65.0484078,3.33528942 L62.0201921,3.33528942" id="path54" fill="#231F20"></path>
                        <polyline id="path56" fill="#231F20" points="74.4033176 3.33528942 76.5681862 13.4317841 80.375655 13.4317841 78.2080202 3.33528942 74.4033176 3.33528942"></polyline>
                        <polyline id="path58" fill="#231F20" points="83.2555996 3.33528942 81.4652815 13.4646818 85.3914225 13.4646818 86.3059453 6.99058377 89.9438428 13.4646818 93.0459175 13.4646818 87.0533865 3.33528942 83.2555996 3.33528942"></polyline>
                        <polyline id="path60" fill="#231F20" points="91.8279368 3.32714044 93.9814638 13.4062671 103.155737 13.4062671 102.663898 11.0902578 97.1764844 11.0902578 96.8666642 9.63466472 101.31535 9.63466472 100.823511 7.3604703 96.3737182 7.3604703 96.0171484 5.71720392 101.509541 5.71720392 101.00221 3.32714044 91.8279368 3.32714044"></polyline>
                        <path d="M108.011339,11.3037499 L107.596954,9.37293728 L109.396125,9.37293728 C109.814935,9.37293728 110.172058,9.46542949 110.462238,9.65557218 C110.73665,9.83251738 110.904838,10.0562163 110.969845,10.3305925 C110.977591,10.3742183 110.98257,10.4356237 110.98257,10.5102265 C110.98257,10.7078597 110.899582,10.8724854 110.728905,11.0082742 C110.560993,11.2061269 110.244811,11.3037499 109.78008,11.3037499 L108.011339,11.3037499 Z M104.685475,13.4646818 L111.143012,13.4646818 C112.078835,13.4646818 112.843427,13.3368225 113.433745,13.0828051 C114.461131,12.6385626 114.976207,11.9197244 114.976207,10.9342201 C114.976207,10.857038 114.971228,10.7692651 114.960716,10.6669228 L114.916733,10.4306849 C114.854492,10.0893335 114.699582,9.72748618 114.453109,9.34497834 C114.323925,9.14443679 114.196954,8.9775612 114.073026,8.84424181 C113.951311,8.71336438 113.767632,8.56193616 113.518946,8.38960048 C113.08907,8.08668918 112.636512,7.87127644 112.157397,7.74020694 L113.433745,3.33528942 L109.263621,3.33528942 L108.249237,7.22188289 L107.133607,7.22188289 L106.308158,3.33528942 L102.518946,3.33528942 L104.685475,13.4646818 Z" id="path62" fill="#231F20"></path>
                        <path d="M114.511754,6.23873816 L118.077175,6.81363858 C118.077175,6.62585552 118.136373,6.45631847 118.258088,6.2972626 C118.390039,6.12050947 118.542736,5.98439144 118.724202,5.88942985 C119.13831,5.66062755 119.585889,5.54538955 120.07026,5.54538955 C120.433745,5.54538955 120.802487,5.61453235 121.178144,5.75342157 C121.498752,5.86865957 121.67192,6.01270707 121.700689,6.18438424 L121.700689,6.24098805 C121.700689,6.51558373 121.384783,6.72608514 120.753247,6.87257458 L118.511754,7.39849884 C117.680772,7.59390956 117.016871,7.91490225 116.520052,8.36161411 C116.161823,8.68238731 115.983123,9.10874045 115.983123,9.63993274 C115.983123,9.87123186 116.012998,10.0970435 116.07109,10.3151451 L116.17842,10.726188 C116.319499,11.2522221 116.697093,11.7529586 117.308158,12.2278489 C117.885198,12.6689909 118.571505,13.0131409 119.375931,13.2625489 C119.698476,13.36212 120.11369,13.4498929 120.621297,13.5264165 C121.061408,13.5934191 121.47026,13.6296368 121.853109,13.6296368 C123.326138,13.6296368 124.487964,13.2597777 125.339969,12.5203339 C125.764036,12.153246 126.051449,11.6884253 126.20138,11.1265029 L122.947991,10.3281231 C122.904008,10.6823427 122.691836,10.9492284 122.308711,11.1265029 C122.011062,11.2625935 121.655045,11.3292669 121.24481,11.3292669 C120.877729,11.3292669 120.551311,11.2752422 120.266664,11.1699092 C119.956014,11.0545615 119.787825,10.915782 119.759333,10.7544762 L119.760716,10.6823427 L119.759333,10.6669228 C119.759333,10.3947965 120.056982,10.1971359 120.650896,10.076136 L122.947991,9.60947698 C124.720882,9.24979725 125.608849,8.44093627 125.608849,7.18072647 L125.608849,6.81363858 C125.580356,6.69285818 125.558503,6.61084714 125.549374,6.56165149 C125.443427,6.03081589 125.191975,5.54538955 124.791975,5.10863755 C124.393635,4.67479393 123.918946,4.31294662 123.367632,4.03053122 C122.782293,3.73557683 122.163759,3.5144845 121.511477,3.37589709 C120.816594,3.22691083 120.118946,3.15532608 119.417701,3.15532608 C117.491837,3.15532608 116.078559,3.61737557 115.185889,4.54177636 C114.737756,5.00382585 114.511754,5.56843715 114.511754,6.23873816" id="path64" fill="#231F20"></path>
                        <polyline id="path66" fill="#231F20" points="126.416318 3.33528942 128.582569 13.4317841 132.387549 13.4317841 130.221297 3.33528942 126.416318 3.33528942"></polyline>
                        <polyline id="path68" fill="#231F20" points="133.819084 3.33528942 135.470259 11.0005642 132.898752 11.0005642 133.42019 13.4646818 142.073025 13.4646818 141.552417 10.9980948 139.060024 10.9980948 137.411338 3.33528942 133.819084 3.33528942"></polyline>
                        <polyline id="path70" fill="#231F20" points="144.179526 3.33528942 145.083261 7.58864154 142.243703 13.4317841 146.346054 13.4317841 147.765695 10.1483792 150.528904 13.4317841 153.797783 13.4317841 148.714242 7.58244063 147.852555 3.33528942 144.179526 3.33528942"></polyline>
                        <path d="M160.167078,9.68075991 L160.678834,9.68075991 C161.003315,9.68075991 161.245362,9.729105 161.245362,10.0786054 C161.245362,10.3872786 160.913689,10.4352944 160.650895,10.4352944 L160.167078,10.4352944 L160.167078,9.68075991 Z M159.59308,10.8806344 L160.685473,10.8806344 C161.411338,10.8806344 161.81936,10.6545759 161.81936,10.0309188 C161.81936,9.5024154 161.48741,9.29663326 161.058917,9.26233624 L161.833191,8.00791578 L161.231808,8.00791578 L160.526414,9.23489862 L160.167078,9.23489862 L160.167078,8.00791578 L159.59308,8.00791578 L159.59308,10.8806344 Z M160.623232,7.41781493 C161.694878,7.41781493 162.572887,8.26838109 162.572887,9.44068076 C162.572887,10.6067795 161.694878,11.4504863 160.623232,11.4504863 C159.537755,11.4504863 158.673302,10.6067795 158.673302,9.44068076 C158.673302,8.26838109 159.537755,7.41781493 160.623232,7.41781493 Z M160.623232,11.9987173 C162.026829,11.9987173 163.278281,10.9975461 163.278281,9.44068076 C163.278281,7.87706578 162.026829,6.86906256 160.623232,6.86906256 C159.219636,6.86906256 157.968461,7.87706578 157.968461,9.44068076 C157.968461,10.9975461 159.219636,11.9987173 160.623232,11.9987173 Z" id="path72" fill="#C6C5C5"></path>
                    </g>
                </g>
            </g>
        </g>
    </g>
</svg>