<?xml version="1.0" encoding="UTF-8"?>
<svg width="200px" height="200px" viewBox="0 0 200 200" version="1.1" xmlns="http://www.w3.org/2000/svg" xmlns:xlink="http://www.w3.org/1999/xlink">
    <!-- Generator: Sketch 51.3 (57544) - http://www.bohemiancoding.com/sketch -->
    <title>stevens</title>
    <desc>Created with Sketch.</desc>
    <defs></defs>
    <g id="stevens" stroke="none" stroke-width="1" fill="none" fill-rule="evenodd">
        <g id="stevens_BGL">
            <g id="stevens" transform="translate(0.000000, 21.000000)">
                <path d="M109.591496,13.2981828 C110.47797,13.977419 111.240109,14.7492621 111.837336,15.6221533 L111.012022,16.1868276 L111.035268,17.1865574 C110.326708,17.2234382 109.967474,17.2524721 109.580083,17.2936935 C108.476088,17.4111676 107.373647,17.6018161 106.354336,17.8798033 C105.935855,17.9939316 105.541831,18.1202149 105.175425,18.2585298 C105.751032,18.6383109 106.440287,19.1218682 107.243786,19.7228889 L108.558504,20.7063045 L107.081496,21.4232686 C106.569985,21.6715645 106.085861,21.8081328 105.271881,21.9765079 C104.699879,22.0936745 104.522357,22.1325683 104.325121,22.1841449 L103.540423,22.0636034 C102.271962,21.2672528 101.454705,20.6141259 100.81493,19.7501519 C99.9573146,15.5023405 96.4023518,12.9581284 91.0884021,11.6029305 L90.5696157,11.2769004 C85.3669293,5.07934093 77.4210613,1.65087448 68.2687285,1.08225144 C60.1635136,0.578684537 51.8076243,2.43893585 46.287499,5.81234606 C39.7712033,9.79377943 33.0073284,17.6858916 30.1730925,23.6516994 C31.9024807,23.1016671 33.4289797,22.8546081 34.9900414,22.9210139 L36.9699913,23.0052387 L35.7259576,24.5478584 C32.8720835,28.0867032 31.5976185,33.2249118 32.1544909,38.1823003 C33.2777118,37.0664632 34.7358141,36.2166759 36.2945644,35.7363092 L37.9715183,35.2195151 L37.5613724,36.9256894 C36.7195374,40.4276558 36.8739271,43.7267727 38.1225556,46.6255855 C39.252287,45.7677566 40.6421786,45.3290556 42.0270105,45.4181023 L44.7708758,45.594537 L42.554761,47.2220385 C41.308315,48.137421 40.1587589,49.2805767 38.6214471,51.0376013 L37.8479226,51.921678 L37.0986692,51.0169399 C35.5847325,49.1888318 34.1537814,48.0597354 32.5884651,47.5766257 C31.6614881,47.3574328 30.6855253,47.0451466 29.5692665,46.6245921 C28.8993405,46.372195 28.2563337,46.1124849 27.2600115,45.6978471 C23.2730971,44.0386196 21.9699539,43.6012467 20.4830286,43.6141965 C17.9309134,43.6364304 14.7613103,46.4035984 12.8313095,49.8728899 C11.7338041,51.9457476 10.3892312,53.3346659 7.15560002,56.1315738 C2.02420835,60.5703339 0.5287604,62.7774871 1.09759652,66.6783444 C1.29300301,68.2842816 1.79854873,69.4391486 3.16281759,71.8052823 C4.60200601,74.3007407 5.15040861,75.4773225 5.49006729,77.1845542 C5.45094005,77.7982977 5.40562278,78.047658 5.34760166,78.3612199 C5.29859695,78.6253722 5.29859695,78.6253722 5.25016281,78.8857745 C5.21128541,79.0950699 5.18282478,79.2493541 5.15539246,79.4000246 C5.08558687,79.7834279 5.03023423,80.1017385 4.98126671,80.4054102 C4.55885718,83.0249797 4.58986455,84.9876797 5.25741907,87.5071274 C7.746677,96.9077247 8.38167704,101.28326 6.74208261,104.974895 C8.50171586,104.801051 10.3775458,104.321957 12.0893642,103.583988 L13.7742581,102.857627 L13.4715417,104.667276 C13.3124586,105.618281 13.0433598,106.52637 12.6725278,107.355529 C14.6747373,106.814607 16.6825315,105.66278 18.9356833,103.889693 L19.682254,103.30219 L20.3072348,104.017681 C20.7871949,104.567149 20.9512981,105.596522 20.8477039,106.673116 C24.069879,104.364299 27.4435133,100.007214 28.4160861,96.7256622 L28.6320197,95.9970817 L29.3918164,96.0099644 C33.9051901,96.0864909 38.1677357,95.1687355 41.5104028,93.2191894 L42.418048,92.6898229 L42.9018823,93.6225356 C43.4430606,94.6657934 43.7840685,95.7606928 43.9117769,96.8970501 C43.654736,98.0954649 43.2255841,98.4448633 42.3373913,98.8741564 C42.152592,98.9635395 41.9446656,99.0931284 41.713612,99.2629229 C40.4868781,99.5802051 39.6618771,99.7189158 37.8073277,99.9770526 C34.2818681,100.467806 32.8073717,100.855456 31.2486482,101.950789 C28.7426754,103.55131 27.5709722,106.032152 28.0765056,108.863614 C29.3945383,111.712261 31.6876137,113.345432 36.2326067,115.31795 C39.9986527,116.86061 50.911548,120.296159 66.8263022,125.032514 C67.5657642,125.252584 68.3140947,125.474879 69.0709383,125.699303 C76.5929104,127.929764 84.6527158,130.281409 92.7125977,132.607546 C95.5336161,133.421712 98.1531147,134.174525 100.503898,134.847658 C101.326625,135.083242 102.05698,135.292033 102.686563,135.47174 C103.064233,135.579542 103.324441,135.653709 103.458472,135.691861 C117.975623,149.389255 128.29884,154.845415 141.326116,153.010737 C142.204756,153.244859 142.533415,153.41262 142.931894,153.624859 C143.085489,153.706668 143.242722,153.791415 143.455219,153.906671 C143.717535,154.049116 143.858049,154.125401 143.980082,154.191371 C144.709812,154.585855 145.201173,154.838265 145.691779,155.062648 C147.254769,155.777496 148.368227,155.963341 149.202584,155.60789 C150.512307,155.049895 151.171317,153.365496 150.913957,151.571372 L150.822651,150.934851 L151.363906,150.587663 C155.793752,147.746136 159.031,143.233628 160.531435,138.100542 C160.668572,137.529107 160.735767,137.042953 160.854032,135.920092 C161.121407,133.38179 161.405044,132.227634 162.369479,130.891448 L163.368552,129.507272 L164.087354,131.05563 C165.802058,134.749239 170.185442,144.95125 171.80117,148.915544 C172.013667,149.435816 172.209003,149.952388 172.433437,150.577285 C172.507433,150.783314 172.86136,151.785167 172.957384,152.050032 C173.628399,153.900912 174.14259,154.854144 175.031128,155.711419 C176.21635,156.85552 177.188743,156.787792 178.185109,155.979502 C178.443369,155.769993 178.637673,155.560893 178.746803,155.42126 C180.02287,152.852955 181.927581,152.423561 185.191521,153.022214 C187.235422,153.41213 187.844005,153.482165 188.391464,153.396822 C189.431914,153.157868 189.7184,152.574639 190.034619,150.453102 C190.311384,148.610813 190.558436,147.744649 191.203936,146.923954 C192.061094,145.474422 193.165456,144.806432 195.30662,144.040497 C197.594989,143.226452 198.287981,142.778488 198.716579,141.714932 C198.917212,141.137398 198.094716,140.330401 196.393478,139.342312 C190.474045,136.429683 184.610822,132.321818 178.51277,127.086926 C174.774412,123.87772 173.012175,122.201461 166.661898,115.988894 C162.911694,112.320016 161.274527,110.89273 160.514643,110.68053 L158.872385,110.221923 L160.074295,109.012484 C164.344581,104.715448 168.892331,96.9173893 171.081359,90.3847831 C170.044309,91.0254367 168.944847,91.4205487 167.804965,91.541494 L166.089527,91.7235077 L166.784091,90.1444457 C167.783269,87.8728574 168.433643,83.8767405 168.278901,81.1341828 C167.459362,82.1292843 166.506715,82.9807377 165.453943,83.6644408 L162.962455,85.2824912 L163.968358,82.4871813 C164.695629,80.4661665 164.91176,77.5655746 164.670155,75.291887 C156.046061,80.5844508 148.541023,79.3971305 142.517793,74.1547402 C141.395367,73.1778231 140.422467,72.1325562 139.600448,71.0858158 C139.102762,70.4520726 138.762056,69.9520768 138.580989,69.6520465 L136.334122,65.9289601 L139.981618,68.2965649 C143.101281,70.3215507 144.589976,69.8968533 147.340454,67.2788394 C147.644099,66.9889486 147.801398,66.8391163 147.953955,66.6960867 C149.188388,65.5387428 150.050448,64.9318613 151.132218,64.637708 C155.45827,63.4617285 159.326856,61.4221294 160.635758,59.287791 C161.91977,57.1913327 161.875255,54.3850537 160.876923,51.8262445 C160.432116,50.6841752 159.420269,49.7195989 156.879236,47.7969487 C156.601749,47.5871026 156.466796,47.4849459 156.32338,47.3758885 C155.921342,47.0701681 155.610837,46.8295137 155.281149,46.563912 C153.42469,44.9289133 152.513842,43.3452289 151.042254,39.860095 C150.297193,38.0952062 149.961835,37.36289 149.476581,36.5115815 C149.200651,35.8549329 149.08102,35.5769616 148.939658,35.2626929 C148.533231,34.3591439 148.035526,33.3499642 147.443768,32.2617153 C145.75077,29.1482788 143.647584,26.0338983 141.113805,23.1302834 C135.097355,16.2356609 127.676729,11.6388889 118.724189,10.3186444 C119.133514,11.0027989 119.383914,11.7594017 119.539128,12.6463187 L119.781452,14.0309917 L118.393892,13.805787 C118.23176,13.7794726 117.928214,13.7327239 117.50951,13.6723533 C116.80963,13.5714415 116.046832,13.4704747 115.247519,13.3762608 C113.976898,13.2264945 112.737219,13.1084196 111.576198,13.0340028 C110.674408,12.9762016 109.847553,12.9469821 109.111301,12.9475895 C109.273202,13.0602158 109.433414,13.1770563 109.591496,13.2981828 Z" id="Path" fill="#979797" fill-rule="nonzero"></path>
                <path d="M142.190492,94.5973241 C142.190492,94.5973241 149.226557,89.8137379 149.545683,86.3061379 C149.545683,86.3061379 150.825464,91.4089931 148.907432,96.1914897 C148.907432,96.1914897 155.565355,91.9854207 161.680109,80.1288828 C161.680109,80.1288828 163.617814,82.4803586 163.938033,85.0312414 C164.257158,87.5821241 166.816721,90.1330069 166.816721,90.1330069 L168.734754,93.0031586 C168.734754,93.0031586 162.340219,115.323655 140.591585,118.513076 L132.595956,102.569241 C132.595956,102.569241 130.676831,98.1049241 123.960984,97.1482069 L125.239672,100.655807 C125.239672,100.655807 116.284481,100.655807 113.726011,98.1049241 C113.726011,98.1049241 114.04623,93.3213379 110.209071,90.1330069 C110.207978,90.1330069 118.842951,87.5821241 124.920546,91.4089931 C124.920546,91.4089931 123.640765,80.2487448 107.969727,71.3201103 C107.969727,71.3201103 123.640765,70.6815724 142.190492,94.5973241" id="Fill-1" fill="#EEE1C6"></path>
                <path d="M126.519672,27.2090166 C126.519672,27.2090166 133.554645,31.9926028 135.153552,39.0067131 C135.153552,39.0067131 136.434426,37.0943683 135.47377,34.2242166 C135.47377,34.2242166 141.551366,39.3259821 140.591803,49.2113338 L143.789617,46.3411821 C143.789617,46.3411821 146.028962,47.9353476 145.388525,49.2113338 C145.388525,49.2113338 148.906557,45.0662855 152.42459,45.7037338 C152.42459,45.7037338 162.338251,47.9353476 159.780874,57.8206993 C159.780874,57.8206993 157.222404,61.3282993 153.063934,62.6031959 C153.063934,62.6031959 146.348087,67.0675131 145.069399,68.3434993 C143.789617,69.6183959 135.153552,63.5599131 135.153552,63.5599131 L129.078142,52.3996648 C129.078142,52.3996648 138.672678,43.4710303 126.519672,27.2090166" id="Fill-3" fill="#EEE1C6"></path>
                <path d="M119.057158,58.6711752 C109.308525,52.0438924 107.90306,50.5205545 103.105246,53.7088855 C92.9391257,60.4669269 85.7959563,66.9623614 85.7959563,66.9623614 C78.7609836,65.3671062 73.2353005,68.5107614 73.4068852,72.6252993 C71.0997814,74.642251 66.7664481,75.3189269 58.7172678,69.4064579 C47.851694,61.4258234 45.5872131,66.2954924 45.5872131,66.2954924 L47.6320219,78.1727338 C47.6320219,78.1727338 70.230929,85.6695614 75.6691803,85.9877407 C79.672459,86.2231062 81.3828415,78.9856166 81.3828415,78.9856166 C82.3424044,77.0721821 88.6735519,75.8899062 88.6735519,75.8899062 C88.3544262,69.8314234 96.6702732,65.0489269 96.6702732,65.0489269 C111.652787,56.6291614 129.746776,72.4923614 134.753333,77.1081407 C130.221093,70.9929959 125.530383,63.0712028 119.057158,58.6711752" id="Fill-5" fill="#EEE1C6"></path>
                <path d="M11.0066667,81.9710538 C11.0066667,81.9710538 9.40666667,87.0728193 11.9662295,91.8564055 C14.5236066,96.6389021 12.6055738,100.78395 12.6055738,100.78395 L14.8438251,103.972281 L19.9596721,100.465771 L23.8077596,103.34464 L28.8755191,94.3931228 C28.8755191,94.3931228 37.9869945,93.0844469 41.3891803,89.942971 C41.3891803,89.942971 39.4700546,79.420171 47.4645902,78.7827228 L44.3443716,72.9432607 C44.3443716,72.9432607 40.0602186,77.7279366 34.3520219,84.8412055 C32.2197814,87.4977848 29.0219672,90.0486676 25.1848087,89.8361848 C21.9629508,89.6574814 17.0831694,88.3488055 15.5891803,83.6720055 C15.5891803,83.6720055 14.5236066,87.0728193 15.1640437,88.6669848 C15.1640437,88.6669848 10.6864481,83.8844883 11.0066667,81.9710538" id="Fill-7" fill="#EEE1C6"></path>
                <path d="M28.9637158,56.6339559 C28.9637158,56.6339559 26.9232787,61.5559283 20.4281967,60.5338317 C20.4281967,60.5338317 25.7167213,64.1144386 25.7167213,66.0278731 C25.7167213,66.0278731 35.6795628,61.4175421 28.9637158,56.6339559" id="Fill-9" fill="#EEE1C6"></path>
                <path d="M27.3521311,54.0161683 C33.4297268,55.0796717 35.0100546,52.2367614 36.0756284,51.4925269 C36.0756284,51.4925269 38.5794536,56.3828993 33.8526776,58.9381407 C33.8526776,58.9381407 31.2756284,56.0135062 27.3521311,54.0161683" id="Fill-11" fill="#EEE1C6"></path>
                <path d="M18.5619672,60.2678469 C19.2013115,65.3696124 8.87234973,68.1558607 8.87234973,68.1558607 C8.87234973,68.1558607 15.5422951,78.8279434 18.7401093,79.1472124 L21.9401093,77.2860814 C21.9401093,77.2860814 24.5455738,69.134371 25.1422951,67.624109 C23.4789071,63.1957503 18.5619672,60.2678469 18.5619672,60.2678469" id="Fill-13" fill="#EEE1C6"></path>
                <path d="M48.7884153,49.5426979 C49.7665574,49.2321462 50.8703825,47.7175255 51.8299454,45.8051807 C51.8299454,45.8051807 54.1982514,41.7058979 61.2343169,39.7924634 C61.2343169,39.7924634 56.4518033,36.1551945 56.8780328,30.8409462 C56.8780328,30.8409462 56.7927869,26.212091 62.1228415,23.6612083 C62.1228415,23.6612083 63.8452459,23.3822566 67.9020765,24.3694841 C67.9020765,24.3694841 76.3665574,31.1961738 78.9250273,32.2585876 C81.4834973,33.322091 84.2069945,33.0736497 86.1261202,32.4362014 C88.0452459,31.7987531 88.8824044,29.9539669 88.7031694,26.3199669 C90.2157377,28.8904634 89.5042623,29.688091 91.6375956,30.7515945 C91.6375956,30.7515945 93.0605464,30.004091 93.0605464,25.965829 C93.0605464,21.9264772 94.1654645,15.436491 98.2168306,16.92496 C102.268197,18.4123393 98.9272131,15.2403531 97.5053552,14.2651117 C96.0834973,13.29096 92.2408743,11.6063531 89.6824044,11.6063531 C89.6824044,11.6063531 80.2583607,-0.980253793 59.0113661,2.74309793 C59.0113661,2.74309793 74.4824044,1.59133241 77.0408743,11.4766841 C77.0408743,11.4766841 70.3250273,8.60653241 65.528306,10.2017876 C65.528306,10.2017876 70.9643716,13.0708497 70.6452459,15.3035531 C70.6452459,15.3035531 67.5796721,16.9162428 62.0102732,14.9842841 C54.6539891,12.4334014 46.9785792,15.6217324 42.8212022,21.0427669 C42.8212022,21.0427669 44.4201093,20.7234979 45.6987978,20.4053186 C45.6987978,20.4053186 39.3031694,28.0579669 49.2168306,36.0298841 C49.2168306,36.0298841 42.717377,38.1623393 41.6321311,42.9393876 C41.6321311,42.9393876 46.2343169,48.0596772 48.7884153,49.5426979" id="Fill-15" fill="#EEE1C6"></path>
                <path d="M111.012022,16.1868276 C109.151913,13.4681379 105.765027,12.3076552 105.765027,12.3076552 C108.980328,11.2648552 118.554098,12.8187034 118.554098,12.8187034 C118.322404,11.4947724 117.863388,10.2776276 116.080874,9.02561379 C140.77377,10.7843172 150.345355,36.0163724 150.345355,36.0163724 C152.2,39.2700828 152.84153,43.0827862 155.942077,45.8134621 C158.181421,47.6081241 160.980328,49.3363172 161.808743,51.4633241 C162.674317,53.6818621 163.180328,57.0478069 161.488525,59.8100828 C159.794536,62.5723586 155.02623,64.6154621 151.394536,65.6026897 C147.763934,66.5899172 145.985792,73.3860966 139.437158,69.1353517 C139.437158,69.1353517 148.919126,84.8470897 165.40765,73.6236414 C165.910383,75.7680828 165.982514,79.8433931 164.90929,82.8257793 C166.432787,81.8363724 167.795628,80.4176414 168.790164,78.5968276 C169.989071,81.3634621 168.892896,87.8338345 167.699454,90.5470759 C169.640437,90.341131 171.430601,89.2068 172.949727,87.433931 C171.351913,94.6583448 165.860109,104.609076 160.783607,109.717379 C164.416393,110.731848 178.819672,129.580703 196.834973,138.445048 C198.029508,139.136979 200.213115,140.454372 199.661202,142.04309 C198.292896,145.448262 193.871038,144.298676 192.030601,147.491366 C190.365027,149.537738 191.798907,153.64029 188.615301,154.371448 C185.769399,154.826924 181.544262,151.920814 179.604372,155.943821 C179.604372,155.943821 177.255738,159.248745 174.336612,156.430897 C172.476503,154.636234 172.120219,152.341421 170.87541,149.293655 C169.632787,146.2448 165.155191,135.730717 163.180328,131.476703 C161.69071,133.54051 162.052459,136.047807 161.503825,138.333903 C159.995628,143.497779 156.733333,148.33149 151.903825,151.429379 C152.177049,153.334097 151.571585,155.685572 149.594536,156.527876 C147.167213,157.561959 143.989071,155.198497 141.465574,154.000966 C125.898361,156.193352 114.099454,147.071848 103.184699,136.653655 C103.184699,136.653655 45.8131148,120.322993 35.8535519,116.243324 C32.410929,114.749407 28.820765,112.960193 27.115847,109.167103 C26.4579235,105.770648 27.9311475,102.883062 30.7103825,101.108014 C33.7617486,98.9613931 37.7398907,99.2577793 41.2535519,98.3490069 C41.8185792,97.8924414 42.6896175,97.8336 42.9180328,97.008731 C42.8021858,95.9779172 42.4907104,95.0015862 42.0142077,94.0830069 C38.2196721,96.2960966 33.6163934,97.0817379 29.3748634,97.0098207 C28.1628415,101.099297 23.2994536,107.080414 19.1398907,108.795531 C19.9857923,107.510828 20.0775956,105.274855 19.5540984,104.675545 C16.9245902,106.7448 14.0196721,108.48171 10.6972678,108.693103 C11.6273224,107.555503 12.2240437,106.063766 12.4852459,104.50229 C10.0284153,105.561434 7.31584699,106.092097 5.01967213,106.045241 C7.98360656,101.483945 6.11584699,94.6583448 4.29071038,87.7630069 C3.15519126,83.4773931 3.9147541,80.7543448 4.50928962,77.3796828 C3.7147541,73.3860966 0.604371585,70.9038621 0.104918033,66.799131 C-1.1147541,58.4392966 8.65901639,55.616 11.947541,49.4049655 C13.6907104,46.2711172 17.0972678,42.6436552 20.4743169,42.6142345 C23.852459,42.5848138 28.5191257,45.5868138 32.8185792,46.6034621 C34.8830601,47.2376414 36.4918033,48.7163034 37.8688525,50.3791172 C39.0863388,48.9876276 40.4360656,47.5372966 41.9628415,46.4160414 C40.4546448,46.3190621 38.8830601,46.9902897 37.8306011,48.2924276 C35.8087432,44.6682345 35.6502732,40.5972828 36.589071,36.6919586 C34.6655738,37.284731 32.5803279,38.6391724 31.5617486,40.6484966 C30.252459,34.9626759 31.3464481,28.3855172 34.947541,23.9201103 C32.6677596,23.823131 30.4754098,24.518331 28.3868852,25.3726207 C30.2382514,19.9090897 37.4928962,10.013931 45.7661202,4.95902069 C56.789071,-1.77722759 79.7256831,-3.19595862 91.3355191,10.6339448 C95.7278689,11.7541103 100.738798,14.1785931 101.618579,19.1550483 C102.256831,20.0169655 103.195628,20.6664 104.072131,21.2166759 C104.918033,20.9954759 105.854645,20.9072138 106.644809,20.5236552 C104.264481,18.7431586 103.087432,18.1819862 103.087432,18.1819862 C105.95082,16.3045103 111.012022,16.1868276 111.012022,16.1868276 M109.707104,22.6114345 C115.018579,25.7877793 114.130055,31.4605241 112.657923,34.8613379 C115.996721,34.3274069 122.219672,34.7403862 123.863388,37.6475862 C124.487432,38.7524966 123.90929,41.2107586 123.081967,42.3614345 C123.819672,46.4400138 120.885246,53.3538759 107.737705,52.1018621 C102.584699,54.4805793 99.4163934,58.8577241 94.2163934,61.8629931 C88.0819672,65.408731 81.3256831,63.2817241 75.6360656,63.2817241 C67.8131148,65.0545931 55.0120219,63.9910897 49.3224044,56.0137241 C44.536612,63.2882621 46.1213115,72.5002069 50.3398907,77.6945931 C56.3147541,78.1130207 71.7836066,85.9138621 77.2994536,83.7171172 C78.1245902,77.2859724 84.1737705,75.2504966 86.6601093,75.1589655 C87.9038251,67.2992828 97.4174863,60.5336138 106.306011,60.9771034 C120.103825,61.6646759 133.693989,72.5481517 141.038251,85.8517517 C141.420765,86.6221379 141.868852,87.4589931 141.389071,88.1759862 C128.93224,69.1745793 107.906011,60.7112276 95.8546448,67.4093379 C92.7092896,69.4568 90.7497268,72.5002069 89.9038251,76.3946345 C99.2087432,81.4735172 106.89071,89.1457793 114.727869,96.9531586 C117.063388,98.8535172 120.144262,99.2087448 122.957377,99.3885379 C121.686339,96.6088276 119.196721,93.536 115.793443,90.8717931 C121.808743,90.9033931 126.753005,94.1265931 131.143169,97.5557379 C129.660109,89.3451862 125.720219,81.4473655 118.521311,75.9762069 C117.240437,74.8930897 119.018579,75.0707034 120.266667,75.8258345 C128.862295,80.9395862 134.020765,90.4609931 135.816393,99.5824966 C136.551913,101.186469 138.133333,102.568152 139.476503,103.555379 C137.925683,103.935669 135.436066,103.462759 133.893989,102.754483 C135.04153,107.518455 138.4,113.390607 140.161749,116.864428 C150.488525,116.108207 162.491803,106.535586 166.499454,94.5373931 C164.95082,95.4864828 162.994536,96.313531 161.208743,96.3974345 C163.053552,94.4218897 164.404372,91.7086483 164.525683,88.8079862 C163.114754,90.6364276 159.912568,92.8854759 157.980328,92.9236138 C159.67541,89.3408276 161.15847,84.9680414 161.162842,80.9341379 C153.793443,83.2191448 144.403279,82.4019034 139.268852,76.0568414 C133.013115,68.1568414 130.880874,58.5711448 123.537705,51.2660966 C127.115847,47.3128276 129.369399,42.0519724 128.684153,36.2495586 C128.597814,35.8485655 128.975956,35.6709517 129.145355,36.0120138 C131.57377,40.1254621 130.131148,46.5293655 128.547541,49.9715862 C131.740984,53.5402069 135.448087,57.097931 135.697268,61.8237655 C136.244809,64.0608276 139.085246,63.1792966 140.609836,63.5399724 C142.133333,63.9017379 142.397814,66.0461793 143.955191,66.5692138 C145.510383,67.0933379 146.24153,65.6942207 146.844809,65.1428552 C149.501639,61.6951862 152.03388,59.695669 155.981421,58.4207724 C156.178142,59.5583724 155.557377,60.5336138 154.810929,61.7071724 C158.935519,59.2042345 159.050273,55.9450759 158.325683,52.522469 C157.602186,49.0998621 151.762842,47.238731 149.570492,43.5851172 C148.121311,39.8988138 146.865574,36.1569379 144.827322,32.6373517 C140.951913,24.0051034 132.268852,16.3535448 123.615301,14.0925103 C123.615301,14.0925103 126.62623,16.1672138 126.838251,18.457669 C126.838251,18.457669 119.840437,15.5384828 115.44918,15.4774621 C115.44918,15.4774621 118.749727,17.7276 119.311475,19.089669 C119.311475,19.089669 115.501639,18.4631172 110.43388,19.177931 C110.43388,19.177931 112.902732,20.0976 113.545355,21.6198483 C113.545355,21.6198483 111.37377,21.5337655 109.707104,22.6114345 M45.7661202,51.7586207 L43.947541,49.4899586 C42.0284153,49.9857517 40.6688525,51.4044828 39.4983607,52.8864138 C39.779235,54.8902897 39.2469945,56.781931 38.3420765,58.1298345 C40.073224,59.7752138 41.5344262,61.6984552 41.4349727,64.0357655 C41.2874317,67.4616414 38.7136612,70.3721103 36.4404372,72.4838621 C37.9377049,73.0286897 38.2240437,75.6972552 37.3628415,77.7937517 C36.8863388,75.9827448 36.5748634,74.3373655 34.5912568,74.2676276 C31.4491803,76.5722483 29.7628415,83.9633793 27.8338798,84.1453517 C25.7639344,84.2880966 23.6743169,82.1087862 22.7934426,80.1136276 C21.7628415,80.2770759 20.6885246,80.671531 19.4054645,81.1248276 C17.8513661,81.6729241 16.0819672,80.5985241 14.8459016,79.4238759 C12.9606557,77.3306483 9.96939891,74.5967034 10.9092896,71.3974759 C9.98360656,70.6161931 8.64590164,69.4404552 8.25027322,68.1720966 C8.11693989,67.8016138 8.4284153,67.5357379 8.74644809,67.8408414 C11.5311475,70.4287724 14.1322404,66.7544552 17.2983607,67.9803172 C19.095082,68.888 20.4,71.9673655 19.3879781,73.2651448 C18.4448087,71.4955448 17.2601093,70.6423448 16.3803279,70.6031172 C15.1836066,70.5497241 14.263388,71.2187724 13.4229508,72.0817793 C14.2306011,74.2327586 16.3114754,77.227131 17.8142077,77.7207448 C19.3180328,78.2154483 20.6579235,77.2685379 21.8786885,76.5504552 C22.4327869,73.3980828 23.3628415,70.1944966 24.6065574,67.841931 C23.2349727,63.8385379 20.695082,61.7453103 16.1737705,58.9187448 C16.1737705,58.9187448 16.0502732,58.2289931 16.6808743,58.3630207 C19.8666667,59.8547586 24.9868852,60.4486207 27.0579235,64.7069931 C28.8163934,63.3994069 31.5650273,61.4402069 30.3967213,59.0538621 C29.1125683,56.4267034 26.2065574,54.2408552 21.1027322,51.9754621 C20.8513661,51.8697655 21.0961749,51.315131 21.4819672,51.4142897 C25.4961749,52.4091448 31.1191257,53.9738897 33.789071,58.5133931 C34.8,57.4662345 35.7748634,56.4495862 36.2502732,55.1539862 C36.8327869,52.8046897 35.1693989,51.0514345 32.779235,49.8103172 C30.3868852,48.5681103 22.6513661,45.4658621 20.4284153,45.4658621 C18.4743169,45.4658621 17.1836066,47.1057931 16.5355191,48.2205103 C17.7322404,47.3269931 18.3846995,47.2082207 19.0371585,47.3269931 C16.1147541,52.4636276 8.4284153,57.4313655 5.84699454,59.6335586 C4.24262295,61.0054345 3.74535519,62.7379862 3.80437158,65.0545931 C3.93770492,70.2282759 8.24153005,72.8554345 7.62404372,77.511531 C6.20546448,87.3020828 10.9234973,92.8887448 11.0360656,100.752786 C13.2273224,100.33109 14.9169399,99.7993379 16.2153005,98.5353379 C16.642623,99.8036966 16.873224,101.616883 16.5191257,102.717434 C18.7398907,101.749821 21.7191257,98.7358345 22.5519126,97.0730207 C23.2797814,98.0983862 23.5857923,99.7110759 23.3628415,101.040455 C25.1989071,99.5040414 27.452459,95.4265517 27.4699454,92.6631862 C31.8765027,93.4270345 36.7737705,92.4812138 40.4622951,89.7516276 C38.5355191,82.8399448 43.5726776,78.3494759 46.6229508,78.1130207 C41.3202186,72.1449793 40.7868852,56.8996138 45.7661202,51.7586207 M39.2480874,43.8716966 C41.8404372,42.2252276 44.6098361,41.9648 46.0021858,42.4268138 C45.2896175,44.7695724 47.0098361,47.5046069 48.9213115,48.9669241 C50.0338798,48.6116966 50.9661202,45.2849793 52.5213115,43.604731 C54.1213115,41.8754483 57.4404372,40.0001517 60.210929,39.8170897 C57.989071,37.5734897 56.7453552,35.8485655 56.3912568,32.0587448 C56.0185792,28.0466345 58.6120219,24.5477517 61.5256831,23.4864276 C59.2961749,22.9426897 55.3377049,22.7160414 53.2262295,23.6912828 C53.7672131,22.9219862 55.1103825,22.0655172 56.3092896,21.5457517 C64.6415301,18.2833241 71.3409836,26.9210207 78.3234973,31.4202069 C80.5464481,32.8618207 83.8404372,32.4444828 85.947541,31.284 C87.3650273,30.4776552 88.2874317,28.9695724 87.8142077,26.6747586 C87.0601093,22.9960828 82.7672131,18.6799586 78.6131148,17.0138759 C81.6087432,17.7177931 84.7136612,18.4445931 87.6371585,17.7668276 C87.5945355,20.0812552 89.104918,27.7382621 91.7027322,30.0330759 C93.3704918,27.2511862 91.5486339,23.2172828 92.704918,18.742069 C93.1420765,17.0443862 94.3956284,13.7525379 98.6601093,16.1476 C96.926776,14.5316414 91.6371585,12.3457931 89.252459,12.2172138 C88.2065574,10.3440966 86.3693989,8.93953103 84.6229508,7.64611034 C78.5912568,3.5076 69.8874317,2.18148966 61.8863388,2.71324138 C49.8655738,3.51195862 39.3060109,14.2363448 34.8852459,21.0390621 C36.7868852,20.4255862 39.5420765,19.7608966 41.5879781,19.9385103 C38.3431694,23.3066345 34.9879781,28.3898759 34.4765027,33.5962483 C36.6218579,32.3398759 39.3202186,30.8851862 41.6765027,31.1063862 C39.0087432,34.3415724 38.4338798,39.6024276 39.2480874,43.8716966" id="Fill-17" fill="#004275"></path>
                <path d="M158.348087,127.903179 C157.475956,128.732407 156.534973,129.168269 155.239891,129.855841 L154.275956,125.323966 C155.468306,124.381414 156.83224,122.463621 158.01694,120.363855 C158.846448,120.099069 159.939344,120.785552 160.822404,121.208338 C160.861749,119.476876 158.613661,118.677069 158.613661,118.677069 C159.260656,117.289938 159.350273,114.867634 159.468306,112.740628 C162.668306,113.686448 175.262842,130.763524 192.739344,139.1822 C194.109836,139.863234 196.421311,141.104352 195.028962,142.069786 C192.580874,143.633441 188.612568,144.652269 188.522951,148.240503 C186.204918,146.794531 178.351366,138.601414 176.728415,136.672724 C176.137158,136.008034 175.74153,136.516903 176.25082,137.325428 C176.759016,138.135041 182.17541,146.206117 185.046448,150.530959 C183.325137,150.90689 181.396175,149.381372 179.957923,150.667166 C178.715301,151.607538 178.270492,153.955745 176.803825,153.927414 C175.195082,153.894724 168.202732,136.579014 165.306557,128.340131 C166.197268,127.020559 166.771038,124.304048 165.334973,121.753166 C165.05082,123.661152 164.727322,124.80529 163.736066,125.548434 C163.030055,124.748628 161.631148,123.967345 160.564481,123.731979 C161.512022,124.926241 162.105464,126.608669 162.046448,127.897731 C161.157923,129.19769 159.457377,131.286559 158.846448,132.80009 C158.905464,130.881207 158.731694,129.459207 158.348087,127.903179" id="Fill-19" fill="#F79239"></path>
                <path d="M158.525246,137.276938 C157.543825,141.437241 155.187541,145.346924 151.255301,147.809545 C150.222514,142.699062 147.644372,134.367559 145.344918,128.761283 C147.316503,128.556428 149.248743,127.771876 151.085902,126.920855 C151.085902,126.920855 152.627978,133.352 152.385355,134.714069 L155.223607,133.223421 C155.223607,133.223421 155.39847,138.118152 154.755847,139.04109 C156.474973,138.740345 158.525246,137.276938 158.525246,137.276938" id="Fill-21" fill="#EEE1C6"></path>
                <path d="M153.525027,121.827589 C153.572022,120.953686 153.452896,120.008954 153.096612,119.063134 C151.203716,121.965975 147.639781,124.784913 144.224481,124.896058 C143.659454,123.81403 143.190601,122.735272 142.852896,121.597672 C146.667104,120.273741 152.742514,117.173672 155.916284,114.070334 C156.297705,117.644403 153.525027,121.827589 153.525027,121.827589" id="Fill-23" fill="#FFFFFF"></path>
                <path d="M147.762842,150.451741 C140.444809,134.102554 118.953005,110.325189 105.664481,97.4977683 C97.9497268,90.0499752 86.3934426,79.9456028 81.1213115,83.8792579 C85.5038251,74.6269959 97.9497268,85.8842234 103.404372,90.922789 C116.086339,102.193092 132.069945,120.218168 138.665574,130.025065 C142.413115,135.594292 149.244809,146.422196 147.762842,150.451741" id="Fill-25" fill="#F79239"></path>
                <path d="M144.195956,152.609258 C125.134754,140.218789 95.7227322,131.122348 82.0965027,127.099341 C68.4680874,123.076334 53.9937705,118.618554 40.3511475,114.124817 C37.883388,113.153934 34.5642623,112.563341 33.6156284,110.199879 C32.6669945,107.836417 34.6582514,107.32101 37.0615301,106.831754 C40.2549727,106.18123 44.4025137,104.763589 46.5369399,102.871948 C49.2178142,100.355934 46.6232787,95.409989 46.3139891,93.5935338 C45.9445902,91.4087752 47.5434973,90.4400717 48.6702732,89.9312028 C53.767541,87.6276717 64.8680874,91.8555338 68.346776,92.591051 C72.2582514,93.4180993 75.083388,93.3025959 77.8287432,91.5275476 C79.6899454,90.1622097 80.7861202,87.1841821 83.5489617,87.3018648 C87.3719126,87.3018648 90.6210929,90.442251 93.9555191,92.9582648 C111.531475,106.247699 143.289945,144.029313 144.966448,151.133865 C145.163169,151.848679 144.565355,152.271465 144.195956,152.609258" id="Fill-27" fill="#910028"></path>
                <path d="M127.822842,107.454492 C130.30153,109.708989 133.178033,111.627872 135.319016,114.221251 C138.249071,119.413458 140.788962,124.717899 142.477486,130.37103 C138.970383,125.859858 135.663279,120.490037 131.642514,115.924382 C132.621749,116.020272 133.953989,115.754396 134.691694,115.349044 C132.402077,113.230754 129.456721,112.111679 126.786776,110.650451 C124.717923,107.835872 122.375847,105.458244 120.047978,102.729748 C123.031585,103.658134 125.952896,104.054768 128.798798,103.818313 C128.323388,101.690217 126.137596,98.7219959 126.137596,98.7219959 C126.936503,98.8527545 127.933224,99.6329476 128.846885,100.088423 C130.029399,102.544506 130.786776,105.110644 131.772568,107.622299 C130.57694,107.289954 129.094973,107.058948 127.822842,107.454492" id="Fill-29" fill="#F79239"></path>
                <path d="M115.145574,141.332852 C122.658142,143.96219 129.567432,147.84899 136.618798,151.48517 C130.220984,151.562535 119.434098,146.008563 115.145574,141.332852" id="Fill-31" fill="#EEE1C6"></path>
                <path d="M88.7037158,58.0518152 C94.4228415,56.9000497 97.9681967,52.3943255 102.681858,48.4225324 C109.595519,42.5994152 118.011913,42.9546428 119.440328,46.2486703 C117.020656,47.9103945 114.159454,48.6219393 111.014098,48.4236221 C111.995519,47.5933048 113.240328,47.0604634 112.853443,46.0645186 C107.817377,46.6180634 105.10918,49.3585462 102.661093,51.3155669 C100.214098,53.2725876 91.9419672,63.3301048 84.0785792,60.6539117 C84.0785792,60.6539117 75.4720219,58.2152634 69.3102732,59.6034841 C69.3102732,59.6034841 69.9802186,60.2442014 70.8763934,60.9263255 C63.5452459,61.863429 50.2097268,57.0765738 52.933224,50.2182841 C55.112459,44.7253324 61.0556284,42.2746979 72.8676503,41.4759807 C73.323388,40.5977186 72.1080874,39.6475393 72.764918,38.5851255 C76.8818579,36.1584634 79.8665574,36.8133462 86.3933333,36.0702014 C92.6151913,35.3608359 104.973661,33.9431945 105.115738,23.9227255 C109.684044,24.3705738 113.151803,31.5503117 108.310273,35.7029876 C101.39224,37.9749186 94.9091803,43.6324083 90.4654645,49.7301186 C90.4239344,49.9534979 90.4785792,50.1801462 90.6654645,50.3163531 C99.1638251,42.777029 107.381311,37.1631255 115.639235,37.7297462 C121.152896,38.1089462 120.856721,40.6500221 119.880765,41.9695945 C119.463279,41.98376 119.15071,41.7451255 118.729945,41.8235807 C118.663279,38.9948359 112.81082,39.3674979 110.070929,40.4724083 C101.712459,43.8405324 95.9157377,53.521029 89.5922404,54.8613048 C83.270929,56.200491 78.8425137,51.5705462 75.5507104,49.4489876 C72.2567213,47.327429 66.8938798,44.6229048 61.8567213,45.8204359 C58.1845902,46.6583807 54.5671038,49.8968359 54.6239344,53.5297462 L56.9037158,52.1197324 C61.7310383,55.8539807 67.2982514,58.8167531 74.2534426,57.9265048 C75.2326776,58.0114979 78.6446995,57.5331393 81.2293989,57.4372497 C83.8140984,57.3424497 85.8304918,58.6304221 88.7037158,58.0518152" id="Fill-33" fill="#F79239"></path>
                <path d="M44.689071,87.9748359 C44.1349727,86.6356497 44.1076503,84.8497048 45.1327869,83.5998703 C48.0879781,80.001829 56.1666667,82.4797048 60.7437158,84.1675807 C65.3240437,85.8543669 71.2901639,88.1121324 77.0508197,87.26656 C75.8136612,90.2271531 69.0147541,89.1778152 63.5830601,87.7525462 C58.152459,86.3272772 49.8551913,83.6685186 44.689071,87.9748359" id="Fill-35" fill="#F79239"></path>
                <path d="M71.2386885,51.1074428 L76.4889617,54.5562014 C75.0135519,55.2154428 71.3293989,55.4039531 69.1949727,54.8961738" id="Fill-37" fill="#FFFFFF"></path>
                <path d="M71.0722404,35.3904745 C69.6503825,36.5465986 68.5236066,37.2221848 68.5236066,37.2221848 C67.2656831,37.7811779 66.2121311,38.5809848 63.6044809,38.9362124 C59.9301639,37.6362538 58.5170492,33.6023503 59.0416393,30.6635503 C59.5673224,27.7247503 61.7673224,25.3449434 64.4230601,25.3024469 C68.2962842,26.4945297 71.476612,29.6120331 74.2689617,32.778571 C73.087541,33.3811503 72.435082,34.3858124 71.0722404,35.3904745" id="Fill-39" fill="#FFFFFF"></path>
                <path d="M29.6307104,107.542319 C30.0613115,103.93665 35.5126776,100.390912 42.0405464,101.719201 C37.171694,103.108512 32.1935519,104.527243 29.6307104,107.542319" id="Fill-41" fill="#F79239"></path>
                <path d="M69.3240437,54.8610869 C64.9688525,54.2410731 61.2136612,52.1423972 58.857377,49.3158317 C60.1513661,48.4092386 61.857377,48.3852662 63.426776,48.5803145 C63.426776,48.5803145 63.2693989,51.7054455 63.3699454,51.9451697 C63.3699454,51.9451697 64.7721311,48.9965628 65.2486339,48.882149 C66.0213115,48.850549 66.9437158,49.0303421 67.7295082,49.4487697 C67.7295082,49.4487697 66.3448087,53.2952524 66.363388,53.5545903 C66.363388,53.5545903 69.0770492,50.209349 69.563388,50.2507559 L71.4202186,51.2292662" id="Fill-43" fill="#FFFFFF"></path>
                <path d="M71.5386885,34.4822469 C71.628306,34.1433641 71.6446995,33.8001228 71.6446995,33.4318193 C71.6446995,31.189309 69.8720219,29.3706745 67.6851366,29.3706745 C65.4982514,29.3706745 63.7244809,31.189309 63.7244809,33.4318193 C63.7244809,35.6743297 65.4982514,37.4929641 67.6851366,37.4929641 C67.8829508,37.4929641 67.7856831,37.5223848 67.9791257,37.4940538 C67.9791257,37.4940538 69.6720219,36.8010331 70.4315847,36.182109 C71.0042623,35.7168262 71.5386885,34.4822469 71.5386885,34.4822469" id="Fill-45" fill="#910028"></path>
                <path d="M67.6846995,35.6878414 C68.9349727,35.6878414 69.9480874,34.677731 69.9480874,33.4311655 C69.9480874,32.1856897 68.9349727,31.1755793 67.6846995,31.1755793 C66.4344262,31.1755793 65.4213115,32.1856897 65.4213115,33.4311655 C65.4213115,34.677731 66.4344262,35.6878414 67.6846995,35.6878414" id="Fill-47" fill="#004275"></path>
                <polygon id="Fill-49" fill="#FFFFFF" points="63.3643716 32.3944676 65.1250273 30.0015848 67.2845902 32.952371"></polygon>
                <path d="M95.4756284,19.1185448 C94.8089617,20.0861586 94.364153,22.1543241 94.4657923,23.9184759 C94.8384699,24.9024345 94.9860109,26.7635655 94.5685246,29.0769034 C94.3936612,30.5751793 94.069071,31.5253586 94.069071,31.5253586 C94.069071,31.5253586 95.5193443,30.8105448 97.3696175,30.6111379 C98.1051366,30.5315931 99.0297268,29.9333724 99.6297268,29.6903793 C100.871257,29.312269 102.049399,28.3217724 102.305137,26.2873862 C102.602404,23.9271931 99.3422951,19.7320207 95.4756284,19.1185448" id="Fill-51" fill="#FFFFFF"></path>
                <path d="M97.3689617,30.6114648 C97.3689617,30.6114648 98.5066667,30.4196855 99.1055738,30.1320166 C100.165683,29.6220579 100.48918,29.3256717 100.48918,29.3256717 C101.131803,28.63592 101.358033,27.8393821 101.407213,26.8521545 C101.51541,24.6739338 99.8028415,22.8269683 97.555847,22.7158234 C96.2684153,22.6526234 94.9995628,23.2399476 94.4236066,24.0157821 C94.8257923,26.3868717 94.5678689,29.0761407 94.5678689,29.0761407 C95.2367213,29.9838234 96.2771585,30.3673821 96.2771585,30.3673821 C96.6137705,30.4730786 97.0006557,30.5929407 97.3689617,30.6114648" id="Fill-53" fill="#910028"></path>
                <path d="M95.2408743,26.5625241 C95.1796721,27.8069103 96.1414208,28.8660552 97.3895082,28.9270759 C98.6375956,28.9891862 99.6998907,28.0302897 99.7621858,26.7848138 C99.823388,25.5404276 98.8616393,24.4823724 97.612459,24.4202621 C96.3654645,24.3592414 95.3042623,25.3181379 95.2408743,26.5625241" id="Fill-55" fill="#004275"></path>
                <polygon id="Fill-57" fill="#FFFFFF" points="99.1097268 22.0459034 101.419016 23.9168414 98.3567213 25.9218069"></polygon>
                <path d="M26.6648087,79.1245476 C25.5828415,77.37892 26.1281967,74.4183269 26.5981421,72.41772 C28.030929,67.5066441 34.7424044,61.5974441 36.9424044,60.7333476 C38.9981421,64.5732924 35.6659016,69.2130441 33.7380328,70.9891821 C31.8079781,72.76532 28.6079781,75.6016924 26.6648087,79.1245476" id="Fill-59" fill="#EEE1C6"></path>
                <polygon id="Fill-61" fill="#004275" points="73.8983607 50.4583352 70.5005464 54.1141283 72.2360656 49.7271766"></polygon>
            </g>
        </g>
    </g>
</svg>