<?xml version="1.0" encoding="UTF-8"?>
<svg width="200px" height="200px" viewBox="0 0 200 200" version="1.1" xmlns="http://www.w3.org/2000/svg" xmlns:xlink="http://www.w3.org/1999/xlink">
    <!-- Generator: Sketch 51.3 (57544) - http://www.bohemiancoding.com/sketch -->
    <title>sweet-briar</title>
    <desc>Created with Sketch.</desc>
    <defs></defs>
    <g id="sweet-briar" stroke="none" stroke-width="1" fill="none" fill-rule="evenodd">
        <g id="sweet-briar_BGL" fill="#ED2B74">
            <g id="sweet-briar" transform="translate(2.000000, 0.000000)">
                <path d="M43.5744681,0 L44.4970986,0 C48.1257253,0.526112186 51.5744681,2.07156673 54.7640232,3.827853 C58.5377176,6 62.0464217,8.5860735 65.2417795,11.5454545 C70.8220503,16.7098646 75.5067698,22.9129594 79.1779497,29.5589942 C82.6731141,35.8220503 85.2398453,42.4951644 87.1934236,49.384913 C91.2669246,48.2282398 95.4119923,48.1489362 99.6131528,48.2088975 C101.740812,48.205029 103.887814,48.4003868 105.992263,48.7156673 C106.98646,48.8800774 107.955513,49.1702128 108.951644,49.3346228 C110.816248,42.7756286 113.232108,36.4119923 116.485493,30.410058 C120.174081,23.5435203 124.89942,17.1702128 130.584139,11.8239845 C134.504836,8.16054159 138.934236,4.96324952 143.748549,2.57833656 C146.309478,1.38104449 148.866538,0.382978723 151.688588,0 L152.564797,0 C152.524178,2.0754352 152.669246,4.13539652 152.663443,6.20889749 C152.783366,14.5918762 153.313346,23.0116054 154.50677,31.3133462 C155.754352,39.8471954 157.783366,48.1972921 161.311412,56.0947776 C164.816248,64.040619 169.727273,71.0541586 175.462282,77.5415861 C177.344294,79.7775629 179.390716,81.8588008 181.363636,84.0135397 C186.216634,89.0251451 191.195358,93.9187621 196.131528,98.8491296 L196.131528,98.9148936 C194.212766,99.7562863 192.222437,100.441006 190.301741,101.27853 C173.887814,108.067698 158.261122,116.847195 144.297872,127.854932 C133.174081,136.628627 122.996132,146.940039 114.798839,158.514507 C110.976789,163.912959 107.572534,169.603482 104.715667,175.572534 C104.096712,175.458414 103.520309,175.212766 102.907157,175.079304 C99.6731141,174.253385 96.1682785,174.516441 93.0638298,175.72147 C92.6499033,175.862669 92.1470019,176.218569 91.7059961,176.158607 C91.344294,175.549323 91.0889749,174.870406 90.762089,174.239845 C86.4874275,165.615087 81.0928433,157.597679 74.9381044,150.206963 C63.7079304,136.731141 50.0019342,125.37911 35.1044487,116.168279 C24.5377176,109.642166 13.2862669,104.141199 1.72147002,99.6247582 C1.13733075,99.3907157 0.558994197,99.1953578 -1.13686838e-13,98.9032882 L-1.13686838e-13,98.827853 C0.539651838,98.3384913 1.03675048,97.8104449 1.55512573,97.2998066 C7.66731141,91.1779497 13.8239845,85.2359768 19.5957447,78.7852998 C21.5705996,76.483559 23.5841393,74.2263056 25.4042553,71.7969052 C28.0058027,68.3868472 30.3713733,64.8104449 32.4023211,61.0309478 C35.9381044,54.4912959 38.3694391,47.4487427 39.9961315,40.205029 C41.5667311,33.1818182 42.4294004,26.0193424 42.9439072,18.8471954 C43.2920696,13.8568665 43.4796905,8.87234043 43.4893617,3.86847195 C43.5996132,2.57833656 43.5454545,1.29206963 43.5744681,0 Z M62.7524178,42.8781431 C62.4158607,42.72147 62.1566731,42.6692456 62.065764,43.1083172 C57.3268859,56.7524178 51.0444874,70.1682785 42.7891683,82.0541586 C40.6673114,85.0502901 38.4216634,87.9806576 35.9535783,90.7021277 C35.8839458,90.7988395 35.8317215,90.9090909 35.8007737,91.032882 C44.2804642,95.5299807 52.4119923,100.694391 60.1179884,106.415861 C62.4893617,108.15087 64.7524178,110.032882 67.0715667,111.837524 C68.8994197,113.363636 70.7001934,114.922631 72.5125725,116.466151 C74.1218569,117.947776 75.7350097,119.431335 77.3423598,120.914894 C78.8201161,122.402321 80.3346228,123.854932 81.7911025,125.363636 C83.2901354,127.038685 84.8762089,128.611219 86.3075435,130.346228 C89.655706,134.191489 92.8259188,138.305609 95.3810445,142.725338 C96.5415861,144.744681 97.6112186,146.988395 98.0464217,149.288201 C98.5996132,146.907157 99.5860735,144.682785 100.837524,142.588008 C103.410058,138.131528 106.636364,134.001934 110.011605,130.12766 C111.475822,128.375242 113.096712,126.765957 114.622824,125.067698 C116.535783,123.176015 118.396518,121.224371 120.402321,119.433269 C125.007737,115.081238 129.88588,111.096712 134.909091,107.239845 C142.895551,101.224371 151.346228,95.8220503 160.16441,91.1102515 C160.481625,90.9709865 160.2147,90.7562863 160.085106,90.5957447 C158.247582,88.6015474 156.605416,86.4545455 154.961315,84.303675 C149.497099,76.8646035 144.897485,68.7079304 141.003868,60.3481625 C138.346228,54.6170213 136.009671,48.7466151 133.953578,42.7736944 C133.702128,42.8104449 133.485493,42.7601547 133.284333,42.9516441 C132.696325,43.4313346 132.340426,44.2398453 132.003868,44.9052224 C130.967118,47.2862669 130.321083,49.8665377 129.756286,52.3945841 C128.632495,57.2746615 127.868472,62.1295938 127.145068,67.0696325 C126.595745,66.9690522 126.088975,66.7640232 125.562863,66.5860735 C122.174081,65.5473888 118.754352,64.9226306 115.255319,64.3829787 C113.39265,64.1856867 111.537718,63.8762089 109.67118,63.7408124 C106.663443,63.4564797 103.601547,63.3133462 100.580271,63.2901354 C99.6092843,63.3094778 98.6499033,63.1760155 97.6789168,63.212766 C95.1102515,63.3597679 92.5067698,63.2572534 89.9439072,63.4874275 C86.9574468,63.5996132 84.0058027,63.9922631 81.0425532,64.344294 C76.9555126,64.9323017 72.9187621,65.7079304 68.9961315,67.0212766 C68.3326886,62.6499033 67.6692456,58.2882012 66.7369439,53.9632495 C66.0386847,50.893617 65.3791103,47.7156673 64.0793037,44.7911025 C63.7427466,44.139265 63.3694391,43.303675 62.7524178,42.8781431 Z" id="Shape" fill-rule="nonzero"></path>
                <path d="M81.8181818,87.9651838 C82.0618956,87.9903288 82.5357834,87.8955513 82.6711799,88.1470019 C82.696325,94.2611219 82.6479691,100.382979 82.696325,106.497099 C82.4235977,106.508704 82.3152805,106.460348 82.098646,106.303675 C78.5183752,103.773694 74.7698259,101.435203 71.0232108,99.1624758 C65.7678917,96.0232108 60.3945841,93.0909091 54.901354,90.3887814 C54.6112186,90.2224371 54.2920696,90.1682785 54.1489362,89.8433269 C56.8143133,89.1624758 59.4990329,88.9574468 62.2147002,88.6189555 C68.754352,88.0773694 75.2572534,87.9148936 81.8181818,87.9651838 Z" id="Shape" fill-rule="nonzero"></path>
                <path d="M113.462282,88.0928433 C113.613153,88.0058027 113.765957,87.9651838 113.922631,87.9709865 C120.044487,87.9187621 126.197292,88.0348162 132.301741,88.5029014 C134.125725,88.5976789 135.941973,88.8839458 137.758221,89.0676983 C139.152805,89.2553191 140.551257,89.4874275 141.916828,89.8201161 C141.938104,89.9825919 141.889749,90.0793037 141.769826,90.1102515 C140.061896,90.9748549 138.350097,91.8375242 136.642166,92.7021277 C129.295938,96.5647969 122.154739,100.762089 115.286267,105.425532 C114.688588,105.810445 114.133462,106.319149 113.477756,106.574468 C113.458414,106.187621 113.448743,105.802708 113.450677,105.415861 C113.464217,99.6615087 113.441006,93.8394584 113.462282,88.0928433 Z" id="Shape" fill-rule="nonzero"></path>
                <path d="M101.704062,182.646035 C104.092843,183.40619 106.081238,185.162476 107.110251,187.450677 C108.591876,190.651838 107.955513,194.644101 105.514507,197.199226 C104.094778,198.740812 102.183752,199.661509 100.12766,200 L97.868472,200 C94.9806576,199.547389 92.3965184,197.814313 91.073501,195.181818 C89.3578337,191.887814 89.9555126,187.667311 92.5473888,185.003868 C94.8471954,182.531915 98.4932302,181.624758 101.704062,182.646035 Z" id="Shape" fill-rule="nonzero"></path>
            </g>
        </g>
    </g>
</svg>