<?xml version="1.0" encoding="UTF-8"?>
<svg width="200px" height="200px" viewBox="0 0 200 200" version="1.1" xmlns="http://www.w3.org/2000/svg" xmlns:xlink="http://www.w3.org/1999/xlink">
    <!-- Generator: Sketch 51.3 (57544) - http://www.bohemiancoding.com/sketch -->
    <title>tex-permian-basin</title>
    <desc>Created with Sketch.</desc>
    <defs></defs>
    <g id="tex-permian-basin" stroke="none" stroke-width="1" fill="none" fill-rule="evenodd">
        <g id="tex-permian-basin_BGL" transform="translate(0.000000, 3.000000)">
            <g id="tex-permian-basin">
                <g id="g10" transform="translate(99.981344, 96.786427) scale(-1, 1) rotate(-180.000000) translate(-99.981344, -96.786427) translate(0.000000, 0.088052)" fill-rule="nonzero">
                    <g id="g12">
                        <path d="M143.186715,51.4726344 C144.590334,51.5642591 145.928741,51.7130373 147.172091,51.9410545 C147.172091,51.9410545 149.251255,50.3950743 150.442078,47.4988983 C150.442078,47.4988983 146.553401,49.8692023 143.186715,51.4726344 Z M121.091286,54.7896274 C135.269984,49.1182976 146.654874,40.2820359 149.870543,36.9647445 C149.870543,36.9647445 149.101433,34.5234089 148.508857,33.1564998 C152.952057,34.1175145 156.73941,36.9035618 158.571904,39.6433491 C160.969964,43.2322317 160.062671,46.135869 156.442451,49.2511086 C152.820739,52.3650052 149.263193,54.563401 149.263193,54.563401 C142.527286,52.1841434 126.558326,53.9666467 121.091286,54.7896274 Z" id="path14" fill="#FFFFFF"></path>
                        <path d="M115.780784,52.5301983 C111.045996,52.5015469 105.991865,51.0730075 105.991865,51.0730075 C108.250846,47.9283704 111.725272,43.9365779 117.410033,41.6235767 C115.382948,45.4254046 115.691249,51.0619648 115.780784,52.5301983" id="path16" fill="#FFFFFF"></path>
                        <path d="M122.610853,63.5296384 C119.024657,63.719603 115.693039,63.1189688 115.693039,63.1189688 C115.693039,63.1189688 116.578247,66.0969206 119.217307,67.4653219 C118.675766,68.1619084 118.139598,68.8898323 117.625962,69.6501382 C117.625962,69.6501382 114.03126,70.1519848 112.741501,66.0870717 C112.175039,64.2984502 112.913409,62.4959507 113.917102,61.0399537 C117.357356,61.4559955 120.873864,61.6752083 124.452002,61.6840126 C123.875393,62.2343577 123.25715,62.849616 122.610853,63.5296384" id="path18" fill="#FFFFFF"></path>
                        <path d="M194.424916,121.933517 L172.1052,110.391342 L171.936575,110.438498 C128.088339,122.643086 81.1000912,123.030775 37.0547277,111.555603 L36.8937129,111.514864 L14.0478116,122.939896 L14.0478116,156.92445 L7.38056314,171.397869 C63.9813452,191.597085 127.25327,193.17888 184.726725,175.628423 L184.843122,175.592609 L194.310012,165.054277 L194.424916,164.927435 L194.424916,121.933517 Z M158.695762,100.071924 C158.95243,92.9835455 158.215254,85.4231652 156.496172,77.6835646 C155.233721,79.112104 153.854874,80.4479741 152.420813,81.661479 C147.531875,85.806228 142.013501,89.0897945 136.472744,92.2839746 C135.539187,92.8219339 134.604884,93.3585502 133.673117,93.8956141 C121.862187,100.698822 110.030962,107.464426 98.1982441,114.234506 C100.243385,114.339411 102.306582,114.39552 104.392163,114.39552 C106.54221,114.39552 108.670171,114.335532 110.776643,114.22406 C129.268715,113.243497 145.971569,108.044765 158.695762,100.071924 Z M163.879869,36.6618159 C155.897776,26.7696319 137.208279,26.7203873 137.208279,26.7203873 C137.208279,26.7203873 140.635997,30.5823533 142.766794,34.7502323 C142.766794,34.7502323 133.002347,45.2978164 121.07129,48.2611441 C121.07129,48.2611441 120.846705,43.1949252 124.334263,36.218615 C122.767988,36.1828008 110.089458,36.8558096 99.691846,49.4934515 C86.4016393,46.0802078 73.6980396,39.8433118 51.6899073,21.8809918 C63.2716268,40.7073297 83.3807105,55.3559397 107.765862,60.0716269 C106.343888,62.743218 105.413614,66.2406251 106.430589,68.8458106 C108.168772,73.3000541 111.741687,75.262673 111.741687,75.262673 C109.815927,77.3245271 104.842825,78.3429938 104.842825,78.3429938 C97.9617211,76.4079817 93.9696302,73.5270267 93.9696302,73.5270267 C93.9696302,73.5270267 96.7780614,81.32587 104.879684,85.473902 C104.879684,85.473902 111.488749,84.6994196 117.921877,79.8841987 C124.610778,74.8717012 128.345753,69.4962863 131.625738,65.5009124 C134.772166,61.6668517 138.537135,60.8037291 141.629394,60.1616101 C144.786566,63.4869598 143.589774,68.9701158 143.589774,68.9701158 C147.290576,66.3735854 147.346685,62.7494855 147.074647,60.8807297 C148.011337,61.3419869 148.653456,61.9444118 148.88789,62.5665345 C149.695949,64.7153873 150.216747,68.4884146 138.973173,75.3372859 C138.973173,75.3372859 105.80578,94.6589046 74.9745178,110.639803 C79.4687538,111.836595 84.1672801,112.765078 89.0238366,113.399438 C104.04954,104.808354 135.696471,86.6942713 138.265544,85.1242657 C149.742209,78.1091568 161.623574,69.2323057 155.427715,58.2286872 C171.548587,47.4493553 166.852449,40.3432185 163.879869,36.6618159 Z M104.393655,5.97497467 C96.0529728,10.3980747 87.0879292,17.5653792 79.6509587,25.5206112 C85.0154801,29.1408312 90.9983935,32.9908591 96.9865299,36.4797603 C87.178957,33.7459421 75.9746297,28.6200329 64.612123,20.4484233 C75.1841802,34.0861771 82.7366515,38.4689414 97.9287422,43.5306835 C104.065955,37.1080013 117.512103,28.1410178 131.405033,32.978921 C131.405033,32.978921 128.545119,37.0766639 127.489197,39.8821105 C129.183806,39.1061359 132.144895,37.1572459 136.046406,33.8712918 C126.775151,21.5273265 115.736017,11.9887779 104.393655,5.97497467 Z M126.07752,12.3096136 L127.11449,14.8897739 L128.363063,14.8897739 L129.092181,10.0623165 L127.837788,10.0623165 L127.485914,12.8408876 L127.472782,12.8408876 L126.314789,10.0623165 L125.815031,10.0623165 L124.707626,12.8408876 L124.69524,12.8408876 L124.291734,10.0623165 L123.043608,10.0623165 L123.505313,12.7826596 L123.862858,14.8897739 L125.09815,14.8897739 L125.290801,14.3808838 L126.07752,12.3096136 Z M121.840549,10.0623165 L120.586007,10.0623165 L120.586007,13.8272408 L119.548738,13.8272408 L119.548738,14.8897739 L121.629096,14.8897739 L122.87752,14.8897739 L122.87752,13.8272408 L121.840549,13.8272408 L121.840549,11.3531204 L121.840549,10.0623165 Z M58.7758985,57.8568163 C66.412981,62.5025166 76.429321,66.7232216 88.1881716,67.3632514 C88.1881716,67.3632514 74.1161705,57.2446917 65.2975175,45.2721496 C62.8152941,49.3231847 60.4612557,53.98142 58.7758985,57.8568163 Z M53.4418192,72.9913058 C61.5797037,75.3684741 73.0418933,77.4980768 84.5603411,75.4323428 C84.5603411,75.4323428 69.548963,71.0613674 56.6643522,63.0583831 C55.4117502,66.3767191 54.3365776,69.6980397 53.4418192,72.9913058 Z M50.4277548,89.3270636 C56.8429756,89.8789009 72.0293957,90.4578974 86.0094737,84.4676718 C86.0094737,84.4676718 67.4991962,84.0465564 52.2923322,77.640289 C51.4123472,81.5946258 50.7911198,85.5035979 50.4277548,89.3270636 Z M50.0952795,100.071924 C53.6580475,102.304194 57.5310562,104.318893 61.6696869,106.084981 C69.9432178,102.908261 81.5486643,98.1470597 90.7872389,93.3403446 C90.7872389,93.3403446 68.2742755,96.785075 50.2130187,92.0498391 C50.0403644,94.7784345 50.0012672,97.4574868 50.0952795,100.071924 Z M187.924636,180.296209 C160.952057,188.694642 132.162205,193.260954 102.424321,193.260954 C66.500875,193.260954 31.6908032,186.490575 1.21265957e-13,174.428647 L8.61109473,155.73512 L8.61109473,119.584701 L36.3908217,105.761758 C43.8691278,107.77198 51.5062102,109.446891 59.2661056,110.779926 C54.1105004,108.536614 49.3298999,105.938591 44.9213195,103.061516 C43.8057068,80.4085785 50.0648374,60.6071986 61.2739399,41.7340038 C52.4872212,33.3519857 47.2610322,23.3493745 44.8599877,12.5230215 C44.8599877,12.5230215 54.8825952,19.899272 63.9679148,26.3905981 C60.8922201,21.5944781 58.7860459,15.9149408 58.2730073,9.18036164 C58.2730073,9.18036164 65.8888997,15.7821298 75.2823708,22.4868489 C85.2649857,11.9798691 93.8460711,5.0214511 104.393655,0 C109.646257,2.50105571 114.37821,5.45268406 119.038087,9.08039522 C120.527958,7.37472841 123.204623,6.55999984 125.957393,7.19565735 C129.671028,8.0537062 132.110424,11.2202646 131.405033,14.271934 C131.067932,15.731393 130.0717,16.8998317 128.717475,17.628054 C130.066775,18.9487031 131.433386,20.3290426 132.830588,21.789964 C142.94109,21.6079084 155.657523,23.7522844 162.456254,28.3335192 C166.227192,30.874836 169.692217,34.5398238 171.287442,38.8658823 C173.115459,43.821674 171.823163,49.0553243 168.772986,53.2260386 C167.100164,55.5296386 164.848345,57.7881724 161.860843,60.1043074 C162.959145,64.2763647 162.271214,68.186083 160.562578,71.715126 C163.20686,81.3600427 164.302178,92.3823144 163.8739,103.059725 C160.255172,105.421672 156.382761,107.594252 152.259649,109.538665 C159.150901,108.163698 165.937694,106.518781 172.596153,104.606451 L199.85823,118.621597 L199.85823,167.007644 L187.924636,180.296209 Z" id="path20" fill="#FFFFFF"></path>
                        <path d="M109.61104,180.409621 C110.971383,177.113221 112.325459,173.804883 113.682668,170.487591 C113.682668,161.745939 113.682668,153.004286 113.682668,144.263828 C112.325459,141.061291 110.971383,137.846816 109.61104,134.62488 C114.860657,134.483862 120.107589,134.193766 125.345716,133.750864 C125.345716,145.752058 125.345716,157.751162 125.345716,169.751908 C128.824022,169.457933 132.302179,169.098298 135.7681,168.671512 C135.7681,165.973508 135.7681,163.276996 135.7681,160.580485 C134.259127,160.765525 132.746574,160.940119 131.233871,161.098299 C130.165115,157.983954 129.096658,154.862149 128.027007,151.734374 C132.358587,151.325495 136.68166,150.815143 140.995632,150.19884 C143.121205,151.570226 145.240213,152.913259 147.359668,154.233908 C147.359668,160.156683 147.359668,166.082443 147.359668,172.005219 C145.367204,173.927248 143.368323,175.828386 141.370487,177.70714 C130.833349,179.224767 120.227865,180.124599 109.61104,180.409621" id="path22" fill="#FFFFFF"></path>
                        <path d="M175.732881,154.490576 C174.254053,154.90244 172.775224,155.300873 171.293411,155.684383 C170.233907,152.683451 169.168434,149.675057 168.102962,146.661888 C170.654724,146.032453 173.197533,145.36407 175.732881,144.658679 C175.732881,141.266477 175.732881,137.875169 175.732881,134.482668 C172.340977,135.426074 168.93415,136.302477 165.519862,137.112625 C165.519862,145.852337 165.519862,154.590558 165.519862,163.329226 C168.93415,162.520421 172.340977,161.645958 175.732881,160.701358 C175.732881,158.631595 175.732881,156.561832 175.732881,154.490576 Z M150.012307,176.320831 C151.356833,172.822976 152.696881,169.313184 154.035437,165.792945 C154.035437,157.052785 154.035437,148.31546 154.035437,139.574852 L150.012307,130.534598 C160.367092,128.704492 170.642786,126.274498 180.787162,123.244765 C182.876324,124.345753 184.958026,125.421523 187.03525,126.472819 C187.03525,132.371121 187.03525,138.270319 187.03525,144.169219 C186.03096,145.346163 185.022193,146.518482 184.01641,147.684682 C185.022193,148.195184 186.03096,148.699567 187.03525,149.197683 C187.03525,153.505685 187.03525,157.813837 187.03525,162.120496 C184.972948,164.445435 182.90617,166.743514 180.833422,169.017716 C170.674124,172.054463 160.382014,174.48983 150.012307,176.320831 Z" id="path24" fill="#FFFFFF"></path>
                        <path d="M104.392163,114.39552 C102.306582,114.39552 100.243385,114.339411 98.1982441,114.234506 C110.030962,107.464426 121.862187,100.698822 133.673117,93.8956141 C134.604884,93.3585502 135.539187,92.8219339 136.472744,92.2839746 C142.013501,89.0897945 147.531875,85.806228 152.420813,81.661479 C153.854874,80.4479741 155.233721,79.112104 156.496172,77.6835646 C158.215254,85.4231652 158.95243,92.9835455 158.695762,100.071924 C145.971569,108.044765 129.268715,113.243497 110.776643,114.22406 C108.670171,114.335532 106.54221,114.39552 104.392163,114.39552" id="path26" fill="#E8431F"></path>
                        <path d="M131.405033,32.978921 C117.512103,28.1410178 104.065955,37.1080013 97.9287422,43.5306835 C82.7366515,38.4689414 75.1841802,34.0861771 64.612123,20.4484233 C75.9746297,28.6200329 87.178957,33.7459421 96.9865299,36.4797603 C90.9983935,32.9908591 85.0154801,29.1408312 79.6509587,25.5206112 C87.0879292,17.5653792 96.0529728,10.3980747 104.393655,5.97497467 C115.736017,11.9887779 126.775151,21.5273265 136.046406,33.8712918 C132.144895,37.1572459 129.183806,39.1061359 127.489197,39.8821105 C128.545119,37.0766639 131.405033,32.978921 131.405033,32.978921" id="path28" fill="#E8431F"></path>
                        <path d="M44.3233714,138.302254 C40.4627485,137.466887 36.6186896,136.549446 32.7892549,135.546201 C32.7892549,147.550976 32.7892549,159.555303 32.7892549,171.560525 C27.6642411,170.218985 22.5693708,168.725234 17.5073303,167.082257 C18.8133552,164.245472 20.1259461,161.39675 21.4379401,158.540567 C21.4379401,148.206823 21.4379401,137.873677 21.4379401,127.539933 C23.5290425,126.512513 25.6299938,125.459426 27.7287066,124.381866 C34.9551194,126.420888 42.2422672,128.158773 49.5738842,129.593878 C51.6645389,131.679012 53.7562382,133.737583 55.8537572,135.774069 C55.8537572,146.105424 55.8537572,156.43499 55.8537572,166.765898 C57.1963425,170.259276 58.5408678,173.739223 59.8868853,177.213202 C54.6806925,176.399921 49.4907654,175.432937 44.3233714,174.316728 C44.3233714,162.311505 44.3233714,150.306282 44.3233714,138.302254" id="path30" fill="#E8431F"></path>
                        <path d="M63.676029,177.78026 C63.676029,171.742581 63.676029,165.706394 63.676029,159.667222 C67.4487579,161.172911 71.2268589,162.601003 75.0115258,163.947021 C75.0115258,165.754146 75.0115258,167.558287 75.0115258,169.36392 C76.3814195,169.5027 77.753253,169.626558 79.1277727,169.742954 C79.1277727,161.001302 79.1277727,152.259649 79.1277727,143.516057 C77.7729509,140.138627 76.4190244,136.749111 75.065844,133.350193 C80.3011358,133.872782 85.5492611,134.243459 90.7988785,134.463268 C90.7988785,146.469834 90.7988785,158.4764 90.7988785,170.483115 C92.1717567,170.538328 93.5462763,170.58608 94.9233328,170.623387 C94.9233328,168.817754 94.9233328,167.01212 94.9233328,165.206487 C98.7142673,164.339485 102.506395,163.3919 106.297927,162.365226 C106.297927,168.404398 106.297927,174.440585 106.297927,180.481249 C92.0601357,180.687181 77.809362,179.787349 63.676029,177.78026" id="path32" fill="#E8431F"></path>
                        <path d="M88.1881716,67.3632514 C76.429321,66.7232216 66.412981,62.5025166 58.7758985,57.8568163 C60.4612557,53.98142 62.8152941,49.3231847 65.2975175,45.2721496 C74.1161705,57.2446917 88.1881716,67.3632514 88.1881716,67.3632514" id="path34" fill="#231F20"></path>
                        <path d="M53.4418192,72.9913058 C54.3365776,69.6980397 55.4117502,66.3767191 56.6643522,63.0583831 C69.548963,71.0613674 84.5603411,75.4323428 84.5603411,75.4323428 C73.0418933,77.4980768 61.5797037,75.3684741 53.4418192,72.9913058" id="path36" fill="#231F20"></path>
                        <path d="M90.7872389,93.3403446 C81.5486643,98.1470597 69.9432178,102.908261 61.6696869,106.084981 C57.5310562,104.318893 53.6580475,102.304194 50.0952795,100.071924 C50.0012672,97.4574868 50.0403644,94.7784345 50.2130187,92.0498391 C68.2742755,96.785075 90.7872389,93.3403446 90.7872389,93.3403446" id="path38" fill="#231F20"></path>
                        <path d="M50.4277548,89.3270636 C50.7911198,85.5035979 51.4123472,81.5946258 52.2923322,77.640289 C67.4991962,84.0465564 86.0094737,84.4676718 86.0094737,84.4676718 C72.0293957,90.4578974 56.8429756,89.8789009 50.4277548,89.3270636" id="path40" fill="#231F20"></path>
                        <path d="M156.442451,49.2511086 C160.062671,46.135869 160.969964,43.2322317 158.571904,39.6433491 C156.73941,36.9035618 152.952057,34.1175145 148.508857,33.1564998 C149.101433,34.5234089 149.870543,36.9647445 149.870543,36.9647445 C146.654874,40.2820359 135.269984,49.1182976 121.091286,54.7896274 C126.558326,53.9666467 142.527286,52.1841434 149.263193,54.563401 C149.263193,54.563401 152.820739,52.3650052 156.442451,49.2511086 Z M113.917102,61.0399537 C112.913409,62.4959507 112.175039,64.2984502 112.741501,66.0870717 C114.03126,70.1519848 117.625962,69.6501382 117.625962,69.6501382 C118.139598,68.8898323 118.675766,68.1619084 119.217307,67.4653219 C116.578247,66.0969206 115.693039,63.1189688 115.693039,63.1189688 C115.693039,63.1189688 119.024657,63.719603 122.610853,63.5296384 C123.25715,62.849616 123.875393,62.2343577 124.452002,61.6840126 C120.873864,61.6752083 117.357356,61.4559955 113.917102,61.0399537 Z M105.991865,51.0730075 C105.991865,51.0730075 111.045996,52.5015469 115.780784,52.5301983 C115.691249,51.0619648 115.382948,45.4254046 117.410033,41.6235767 C111.725272,43.9365779 108.250846,47.9283704 105.991865,51.0730075 Z M138.265544,85.1242657 C135.696471,86.6942713 104.04954,104.808354 89.0238366,113.399438 C84.1672801,112.765078 79.4687538,111.836595 74.9745178,110.639803 C105.80578,94.6589046 138.973173,75.3372859 138.973173,75.3372859 C150.216747,68.4884146 149.695949,64.7153873 148.88789,62.5665345 C148.653456,61.9444118 148.011337,61.3419869 147.074647,60.8807297 C147.346685,62.7494855 147.290576,66.3735854 143.589774,68.9701158 C143.589774,68.9701158 144.786566,63.4869598 141.629394,60.1616101 C138.537135,60.8037291 134.772166,61.6668517 131.625738,65.5009124 C128.345753,69.4962863 124.610778,74.8717012 117.921877,79.8841987 C111.488749,84.6994196 104.879684,85.473902 104.879684,85.473902 C96.7780614,81.32587 93.9696302,73.5270267 93.9696302,73.5270267 C93.9696302,73.5270267 97.9617211,76.4079817 104.842825,78.3429938 C104.842825,78.3429938 109.815927,77.3245271 111.741687,75.262673 C111.741687,75.262673 108.168772,73.3000541 106.430589,68.8458106 C105.413614,66.2406251 106.343888,62.743218 107.765862,60.0716269 C83.3807105,55.3559397 63.2716268,40.7073297 51.6899073,21.8809918 C73.6980396,39.8433118 86.4016393,46.0802078 99.691846,49.4934515 C110.089458,36.8558096 122.767988,36.1828008 124.334263,36.218615 C120.846705,43.1949252 121.07129,48.2611441 121.07129,48.2611441 C133.002347,45.2978164 142.766794,34.7502323 142.766794,34.7502323 C140.635997,30.5823533 137.208279,26.7203873 137.208279,26.7203873 C137.208279,26.7203873 155.897776,26.7696319 163.879869,36.6618159 C166.852449,40.3432185 171.548587,47.4493553 155.427715,58.2286872 C161.623574,69.2323057 149.742209,78.1091568 138.265544,85.1242657 Z" id="path42" fill="#231F20"></path>
                        <path d="M147.172091,51.9410545 C145.928741,51.7130373 144.590334,51.5642591 143.186715,51.4726344 C146.553401,49.8692023 150.442078,47.4988983 150.442078,47.4988983 C149.251255,50.3950743 147.172091,51.9410545 147.172091,51.9410545" id="path44" fill="#231F20"></path>
                        <polyline id="path46" fill="#231F20" points="122.87752 13.8272408 122.87752 14.8897739 119.548738 14.8897739 119.548738 13.8272408 120.069089 13.8272408 120.586007 13.8272408 120.586007 10.3099867 120.586007 10.0623165 121.840549 10.0623165 121.840549 11.3531204 121.840549 13.8272408 122.87752 13.8272408 122.87752 13.8272408"></polyline>
                        <polyline id="path48" fill="#231F20" points="123.862858 14.8897739 123.505313 12.7826596 123.043608 10.0623165 124.291734 10.0623165 124.69524 12.8408876 124.707626 12.8408876 125.815031 10.0623165 126.314789 10.0623165 127.472782 12.8408876 127.485914 12.8408876 127.837788 10.0623165 129.092181 10.0623165 128.363063 14.8897739 127.11449 14.8897739 126.07752 12.3096136 125.290801 14.3808838 125.09815 14.8897739 123.862858 14.8897739 123.862858 14.8897739"></polyline>
                        <path d="M187.03525,149.197683 C186.03096,148.699567 185.022193,148.195184 184.01641,147.684682 C185.022193,146.518482 186.03096,145.346163 187.03525,144.169219 C187.03525,138.270319 187.03525,132.371121 187.03525,126.472819 C184.958026,125.421523 182.876324,124.345753 180.787162,123.244765 C170.642786,126.274498 160.367092,128.704492 150.012307,130.534598 L154.035437,139.574852 C154.035437,148.31546 154.035437,157.052785 154.035437,165.792945 C152.696881,169.313184 151.356833,172.822976 150.012307,176.320831 C160.382014,174.48983 170.674124,172.054463 180.833422,169.017716 C182.90617,166.743514 184.972948,164.445435 187.03525,162.120496 C187.03525,157.813837 187.03525,153.505685 187.03525,149.197683 Z M147.359668,154.233908 C145.240213,152.913259 143.121205,151.570226 140.995632,150.19884 C136.68166,150.815143 132.358587,151.325495 128.027007,151.734374 C129.096658,154.862149 130.165115,157.983954 131.233871,161.098299 C132.746574,160.940119 134.259127,160.765525 135.7681,160.580485 C135.7681,163.276996 135.7681,165.973508 135.7681,168.671512 C132.302179,169.098298 128.824022,169.457933 125.345716,169.751908 C125.345716,157.751162 125.345716,145.752058 125.345716,133.750864 C120.107589,134.193766 114.860657,134.483862 109.61104,134.62488 C110.971383,137.846816 112.325459,141.061291 113.682668,144.263828 C113.682668,153.004286 113.682668,161.745939 113.682668,170.487591 C112.325459,173.804883 110.971383,177.113221 109.61104,180.409621 C120.227865,180.124599 130.833349,179.224767 141.370487,177.70714 C143.368323,175.828386 145.367204,173.927248 147.359668,172.005219 C147.359668,166.082443 147.359668,160.156683 147.359668,154.233908 Z M106.297927,162.365226 C102.506395,163.3919 98.7142673,164.339485 94.9233328,165.206487 C94.9233328,167.01212 94.9233328,168.817754 94.9233328,170.623387 C93.5462763,170.58608 92.1717567,170.538328 90.7988785,170.483115 C90.7988785,158.4764 90.7988785,146.469834 90.7988785,134.463268 C85.5492611,134.243459 80.3011358,133.872782 75.065844,133.350193 C76.4190244,136.749111 77.7729509,140.138627 79.1277727,143.516057 C79.1277727,152.259649 79.1277727,161.001302 79.1277727,169.742954 C77.753253,169.626558 76.3814195,169.5027 75.0115258,169.36392 C75.0115258,167.558287 75.0115258,165.754146 75.0115258,163.947021 C71.2268589,162.601003 67.4487579,161.172911 63.676029,159.667222 C63.676029,165.706394 63.676029,171.742581 63.676029,177.78026 C77.809362,179.787349 92.0601357,180.687181 106.297927,180.481249 C106.297927,174.440585 106.297927,168.404398 106.297927,162.365226 Z M55.8537572,166.765898 C55.8537572,156.43499 55.8537572,146.105424 55.8537572,135.774069 C53.7562382,133.737583 51.6645389,131.679012 49.5738842,129.593878 C42.2422672,128.158773 34.9551194,126.420888 27.7287066,124.381866 C25.6299938,125.459426 23.5290425,126.512513 21.4379401,127.539933 C21.4379401,137.873677 21.4379401,148.206823 21.4379401,158.540567 C20.1259461,161.39675 18.8133552,164.245472 17.5073303,167.082257 C22.5693708,168.725234 27.6642411,170.218985 32.7892549,171.560525 C32.7892549,159.555303 32.7892549,147.550976 32.7892549,135.546201 C36.6186896,136.549446 40.4627485,137.466887 44.3233714,138.302254 C44.3233714,150.306282 44.3233714,162.311505 44.3233714,174.316728 C49.4907654,175.432937 54.6806925,176.399921 59.8868853,177.213202 C58.5408678,173.739223 57.1963425,170.259276 55.8537572,166.765898 Z M184.843122,175.592609 L184.726725,175.628423 C127.25327,193.17888 63.9813452,191.597085 7.38056314,171.397869 L14.0478116,156.92445 L14.0478116,122.939896 L36.8937129,111.514864 L37.0547277,111.555603 C81.1000912,123.030775 128.088339,122.643086 171.936575,110.438498 L172.1052,110.391342 L194.424916,121.933517 L194.424916,164.927435 L194.310012,165.054277 L184.843122,175.592609 Z" id="path50" fill="#231F20"></path>
                        <path d="M165.519862,137.112625 C168.93415,136.302477 172.340977,135.426074 175.732881,134.482668 C175.732881,137.875169 175.732881,141.266477 175.732881,144.658679 C173.197533,145.36407 170.654724,146.032453 168.102962,146.661888 C169.168434,149.675057 170.233907,152.683451 171.293411,155.684383 C172.775224,155.300873 174.254053,154.90244 175.732881,154.490576 C175.732881,156.561832 175.732881,158.631595 175.732881,160.701358 C172.340977,161.645958 168.93415,162.520421 165.519862,163.329226 C165.519862,154.590558 165.519862,145.852337 165.519862,137.112625" id="path52" fill="#231F20"></path>
                    </g>
                </g>
            </g>
        </g>
    </g>
</svg>