<?xml version="1.0" encoding="UTF-8"?>
<svg width="200px" height="200px" viewBox="0 0 200 200" version="1.1" xmlns="http://www.w3.org/2000/svg" xmlns:xlink="http://www.w3.org/1999/xlink">
    <!-- Generator: Sketch 51.3 (57544) - http://www.bohemiancoding.com/sketch -->
    <title>tex-am-commerce</title>
    <desc>Created with Sketch.</desc>
    <defs></defs>
    <g id="tex-am-commerce" stroke="none" stroke-width="1" fill="none" fill-rule="evenodd">
        <g id="tex-am-commerce_BGL" transform="translate(0.000000, 0.995025)">
            <g id="tex-am-commerce">
                <g id="g10" transform="translate(99.999998, 99.923326) scale(-1, 1) rotate(-180.000000) translate(-99.999998, -99.923326) translate(0.000000, 0.242521)" fill-rule="nonzero">
                    <g id="g12" transform="translate(0.000000, 0.320976)">
                        <path d="M107.15842,158.738561 C97.2354814,158.737135 93.8154098,150.81046 93.5261625,143.48508 C93.2387073,136.158987 92.1598543,128.65814 88.238349,126.561811 C88.238349,126.561811 103.212184,127.202336 108.246592,137.242101 C108.440499,137.628699 108.642291,137.994968 108.846592,138.354104 C108.252685,138.394761 107.65627,138.422936 107.052685,138.422936 C104.035123,138.422936 101.135123,137.904025 98.4172018,136.958216 C102.479926,141.419066 107.870965,144.520048 113.917201,145.542891 C111.439065,146.166654 107.987811,146.431994 105.580284,146.062159 C110.664513,148.293297 116.375624,149.029401 122.110033,147.845357 C122.822219,147.698065 123.51756,147.514752 124.20394,147.315747 C123.290678,148.664559 116.178492,158.740344 107.15842,158.738561" id="path14" fill="#1D2953"></path>
                        <path d="M149.957702,122.390196 C149.957702,122.390196 149.957702,122.39198 149.959136,122.39198 C149.627595,122.945841 149.309315,123.501129 149.02186,124.056417 C147.785301,126.432351 146.807523,127.706982 146.141215,128.388163 C146.140498,128.386737 142.408599,128.960214 139.136556,128.408849 C134.80824,127.679164 132.591395,126.157739 132.591395,126.157739 C133.407165,126.282206 134.405015,126.202319 135.400713,126.035055 C135.282075,125.755806 135.145158,125.210503 135.550176,124.524329 C137.258778,121.952243 141.299638,120.700794 145.534405,121.713651 C147.673473,119.449702 153.064512,114.30553 158.913258,113.094739 C155.721501,114.70675 152.332613,118.438985 149.957702,122.390196" id="path16" fill="#1D2953"></path>
                        <path d="M169.094619,96.2663362 C170.895695,94.7902043 176.274906,93.9118006 176.461286,91.0996964 C176.461286,91.0996964 178.391035,92.2591321 180.276698,92.4848851 C179.340856,91.0037603 177.973831,88.9274038 176.598203,87.1495547 C175.841214,86.1709353 175.110748,85.6498846 174.480999,85.3795517 C174.834404,86.509743 175.123652,87.7094791 175.256626,88.8981593 C175.256626,88.8981593 171.323652,85.9901189 168.41039,85.1587917 C168.41039,85.1587917 153.618276,81.1594338 148.068455,81.9165799 C145.774548,82.2300662 143.372398,83.8185396 143.411108,83.8103369 C143.500355,83.7903651 144.19462,74.2263574 153.781358,76.3736852 C159.603939,77.6757769 170.763795,81.9433279 171.287092,82.1444727 C170.929745,80.388022 170.09211,77.6222809 168.129745,74.9032596 C168.129745,74.9032596 171.7853,68.2340966 168.625444,60.8602135 C165.465229,53.4870437 158.346233,49.9456112 158.346233,49.9456112 C158.346233,49.9456112 160.475265,54.8708059 155.614691,60.2335975 C151.107165,64.5945882 144.857344,67.8888694 138.697488,70.5208706 L138.727954,70.5308565 C114.689961,80.1340945 115.216485,95.0494814 115.216485,95.0494814 C113.045158,90.746623 112.429029,86.9673118 112.787811,83.6876528 C104.754478,93.3251283 106.337632,107.256546 106.337632,107.256546 C105.108241,105.148805 90.8802845,77.4122201 121.418993,65.5885431 C126.562004,63.5974235 130.798921,61.494319 134.287093,59.3502009 L134.286377,59.3484177 C140.411466,56.2674071 152.763795,44.3634861 138.682792,26.2415871 C139.161287,27.9513536 139.418276,29.7103365 139.418276,31.5073014 C139.418276,43.5414315 128.224728,53.8993193 112.146951,58.5384889 C122.959137,53.3939608 129.914692,45.3688535 129.914692,36.3487214 C129.914692,28.7705194 125.002864,21.8926509 117.021861,16.837033 C118.844083,20.8494797 119.862004,25.4331562 119.635122,30.660282 C119.635122,30.660282 115.689603,21.0595761 95.6039403,16.2371294 C98.0788506,23.347099 98.1064492,34.0652286 84.4433671,45.0614301 C64.1448013,61.396243 62.8569877,81.222559 62.8569877,81.222559 C58.6727584,62.7935575 61.8849447,46.6527566 65.8032242,35.5844425 C57.2075255,41.5078718 51.0781349,50.7252256 49.2659486,61.4069422 C48.6842282,58.6968369 48.3706081,55.8879424 48.3706081,53.0041535 C48.3706081,43.8367292 51.4673822,35.3946745 56.6731169,28.6459808 C39.709318,42.251109 28.8530459,63.0909951 28.8530459,86.4591002 C28.8530459,108.097146 38.1616478,127.570389 53.0064503,141.138034 C37.2068091,131.92603 25.1208237,117.096236 19.5109314,99.4040525 C16.8999279,149.30544 59.2820774,167.700204 66.3103926,170.399611 C61.564873,170.40282 56.9114681,169.979489 52.3838697,169.170987 C65.6025073,177.844108 81.3770589,182.689772 98.2100334,182.237197 C108.221503,181.968647 118.116843,179.866256 126.893545,176.221041 C124.926162,178.564164 122.628312,180.691163 120.051968,182.547116 C139.965229,180.332027 155.358777,165.55466 155.358777,147.642429 C155.358777,147.342139 155.343007,147.045414 155.334405,146.747977 C150.386735,150.384989 138.589961,152.613631 138.589961,152.613631 C145.807882,148.935248 151.977774,143.697994 154.677774,141.242529 C154.675265,141.223984 154.671681,141.205795 154.667738,141.187607 C159.083867,137.052726 164.117917,131.199911 164.667021,124.651292 C164.893544,121.965439 166.572039,119.980738 166.572039,119.980738 L182.207164,100.238589 C178.324368,100.507496 172.175265,98.9932035 167.665946,101.119846 C167.665946,101.119846 167.293544,97.7431813 169.094619,96.2663362 Z M170.460211,169.647101 C151.600713,188.41384 126.52437,198.748546 99.8530441,198.748546 C73.1817186,198.748546 48.1053751,188.41384 29.2463434,169.647101 C10.38767,150.881075 0,125.930916 0,99.3922834 C0,72.8529378 10.38767,47.9031354 29.2463434,29.1363605 C48.1053751,10.3704058 73.1817186,0.0353853484 99.8530441,0.0353853484 C126.52437,0.0353853484 151.600713,10.3704058 170.460211,29.1363605 C189.31935,47.9031354 199.706447,72.8529378 199.706447,99.3922834 C199.706447,125.930916 189.31935,150.881075 170.460211,169.647101 Z" id="path18" fill="#1D2953"></path>
                        <path d="M145.534047,121.713651 C141.299638,120.700794 137.258778,121.952243 135.550176,124.524329 C135.145158,125.210503 135.282075,125.755806 135.400713,126.035055 C134.405015,126.202319 133.407165,126.282206 132.591395,126.157739 C132.591395,126.157739 134.80824,127.679164 139.136197,128.408849 C142.408599,128.960214 146.140498,128.386737 146.141215,128.388163 C146.807523,127.706982 147.784943,126.432351 149.02186,124.056417 C149.309315,123.501129 149.627595,122.945841 149.959136,122.39198 C149.957702,122.39198 149.957702,122.390196 149.957702,122.390196 C152.332613,118.438985 155.72186,114.70675 158.913258,113.094739 C153.064512,114.30553 147.673473,119.449702 145.534047,121.713651 Z M122.110033,147.845357 C116.375624,149.029401 110.664513,148.293297 105.580284,146.062159 C107.987811,146.431994 111.439065,146.166654 113.917201,145.542891 C107.870965,144.520048 102.479926,141.419066 98.4172018,136.958216 C101.134764,137.904025 104.035123,138.422936 107.052685,138.422936 C107.655911,138.422936 108.252685,138.394761 108.846592,138.354104 C108.642291,137.994968 108.440499,137.628699 108.246951,137.242101 C103.212184,127.202336 88.238349,126.561811 88.238349,126.561811 C92.1598543,128.65814 93.2390658,136.158987 93.5261625,143.48508 C93.8154098,150.81046 97.2354814,158.737135 107.15842,158.738561 C116.178133,158.740344 123.290678,148.664559 124.203581,147.315747 C123.51756,147.514752 122.822219,147.698065 122.110033,147.845357 Z M182.207164,100.238589 L166.572039,119.980738 C166.572039,119.980738 164.893544,121.965439 164.667021,124.651292 C164.117917,131.199911 159.083867,137.052369 154.668096,141.18725 C154.671322,141.205795 154.675265,141.223984 154.677415,141.242529 C151.977774,143.697637 145.80824,148.935248 138.589961,152.613631 C138.589961,152.613631 150.386735,150.384989 155.334405,146.747977 C155.343007,147.045414 155.358777,147.342139 155.358777,147.642429 C155.358777,165.55466 139.965229,180.332027 120.051968,182.547116 C122.628312,180.691163 124.926162,178.564164 126.893545,176.221041 C118.116843,179.866256 108.221503,181.968647 98.2100334,182.237197 C81.3770589,182.689772 65.6028657,177.844108 52.3838697,169.170987 C56.9118265,169.979489 61.5645146,170.40282 66.3103926,170.399611 C59.2820774,167.700204 16.8999279,149.30544 19.5110748,99.4040525 C25.1208237,117.09588 37.2068091,131.92603 53.0064503,141.138034 C38.1616478,127.570389 28.8530459,108.097146 28.8530459,86.4591002 C28.8530459,63.0909951 39.7096764,42.251109 56.6731169,28.6459808 C51.4673822,35.3946745 48.3706081,43.8367292 48.3706081,53.0041535 C48.3706081,55.8879424 48.6842282,58.6968369 49.2655902,61.4069422 C51.0781349,50.7252256 57.2075255,41.5078718 65.8032242,35.5844425 C61.8849447,46.6527566 58.6727584,62.7935575 62.8569877,81.222559 C62.8569877,81.222559 64.1448013,61.396243 84.4433671,45.0614301 C98.1064492,34.0652286 98.0788506,23.347099 95.6039403,16.2371294 C115.689244,21.0595761 119.635122,30.660282 119.635122,30.660282 C119.862004,25.4331562 118.844083,20.8494797 117.021861,16.837033 C125.002864,21.8926509 129.914692,28.7705194 129.914692,36.3487214 C129.914692,45.3688535 122.959137,53.3939608 112.147309,58.5384889 C128.224728,53.8993193 139.418635,43.5414315 139.418635,31.5073014 C139.418635,29.7103365 139.161287,27.9513536 138.682792,26.2415871 C152.763795,44.3634861 140.411466,56.2674071 134.286377,59.3484177 L134.287093,59.3502009 C130.798921,61.494319 126.562004,63.5974235 121.418993,65.5885431 C90.8802845,77.4122201 105.108241,105.148805 106.33799,107.256546 C106.33799,107.256546 104.754478,93.3251283 112.787811,83.6876528 C112.429029,86.9673118 113.045158,90.746623 115.216485,95.0494814 C115.216485,95.0494814 114.689961,80.1340945 138.727954,70.5308565 L138.697488,70.5208706 C144.857344,67.8888694 151.107165,64.5945882 155.614691,60.2335975 C160.475265,54.8708059 158.346233,49.9456112 158.346233,49.9456112 C158.346233,49.9456112 165.465229,53.4870437 168.625085,60.8602135 C171.7853,68.2340966 168.129745,74.9032596 168.129745,74.9032596 C170.09211,77.6222809 170.929745,80.388022 171.287092,82.1444727 C170.763795,81.9433279 159.604297,77.6757769 153.781358,76.3736852 C144.19462,74.2263574 143.500355,83.7903651 143.411108,83.8103369 C143.372398,83.8185396 145.774548,82.2300662 148.068455,81.9165799 C153.618276,81.1594338 168.41039,85.1587917 168.41039,85.1587917 C171.323293,85.9901189 175.256268,88.8981593 175.256268,88.8981593 C175.123652,87.7094791 174.834763,86.509743 174.480999,85.3795517 C175.110748,85.649528 175.841214,86.1709353 176.598203,87.1495547 C177.973472,88.9274038 179.340497,91.0037603 180.276698,92.4848851 C178.391035,92.2591321 176.461286,91.0996964 176.461286,91.0996964 C176.274906,93.9118006 170.896053,94.7902043 169.094261,96.2663362 C167.293544,97.7431813 167.665946,101.119846 167.665946,101.119846 C172.175265,98.9932035 178.324727,100.507496 182.207164,100.238589 Z" id="path20" fill="#E8A311"></path>
                    </g>
                </g>
            </g>
        </g>
    </g>
</svg>