<?xml version="1.0" encoding="UTF-8"?>
<svg width="200px" height="200px" viewBox="0 0 200 200" version="1.1" xmlns="http://www.w3.org/2000/svg" xmlns:xlink="http://www.w3.org/1999/xlink">
    <!-- Generator: Sketch 51.3 (57544) - http://www.bohemiancoding.com/sketch -->
    <title>tex-am-kingsville</title>
    <desc>Created with Sketch.</desc>
    <defs></defs>
    <g id="tex-am-kingsville" stroke="none" stroke-width="1" fill="none" fill-rule="evenodd">
        <g id="tex-am-kingsville_BGL" transform="translate(0.000000, 24.000000)" fill="#1E59AE">
            <g id="tex-am-kingsville">
                <g id="g10" transform="translate(100.000000, 76.998887) scale(-1, 1) rotate(-180.000000) translate(-100.000000, -76.998887) translate(0.000000, 0.432622)" fill-rule="nonzero">
                    <g id="g12" transform="translate(0.536601, 0.536116)">
                        <path d="M152.132236,76.9004387 C152.132236,76.9004387 51.0199847,137.225969 35.0740029,149.757377 C49.3905074,142.015865 59.6521,138.435804 66.4883919,135.928569 C64.8064471,138.003337 62.6200977,142.009908 62.6200977,142.009908 C62.6200977,142.009908 67.3517227,137.051434 74.8307429,131.699807 C79.3274561,128.484304 84.018538,125.979452 84.018538,125.979452 L80.2289452,132.174567 C80.2289452,132.174567 87.2262173,125.694119 95.5131195,120.216804 C99.3736629,117.661914 101.989889,116.807107 101.989889,116.807107 L98.3314652,123.786739 C98.3314652,123.786739 103.227648,118.478597 107.590211,115.575828 C111.29514,113.120418 117.349784,109.73038 117.349784,109.73038 L114.938658,115.563915 C114.938658,115.563915 116.487645,112.811258 124.398331,105.865581 C128.177192,102.544046 130.50902,100.988715 130.50902,100.988715 L128.657151,106.468413 C128.657151,106.468413 131.124322,103.363707 136.902914,98.8406776 C139.737358,96.6092448 143.70224,94.4058091 143.70224,94.4058091 L141.966039,99.8807422 C141.966039,99.8807422 145.565437,95.5012722 148.262749,92.9577009 C150.974371,90.4171079 162.081408,82.733378 166.206078,81.9768591 C170.324786,81.2298712 174.280129,84.3268331 181.358487,82.1621169 C188.432672,80.0009748 192.969332,76.9617942 197.505992,73.7105501 C191.736939,72.4536565 190.579074,71.7954255 184.952519,65.7712716 C179.34385,59.7375868 173.687483,52.353486 165.443509,53.1808913 C162.69194,53.4596715 162.667495,52.6120129 162.30678,51.5892232 C161.938314,50.5789429 162.28472,50.399642 161.362363,47.1853302 C160.440602,43.9632746 159.859881,40.741219 158.75031,45.6955242 C157.672339,50.482442 154.15522,58.0404826 142.817445,59.9472676 C131.490403,61.8492871 122.992437,58.5956603 120.005957,55.2401714 C117.003378,51.8888523 115.387018,48.0008219 119.957663,43.4861316 C124.519364,38.9827594 130.814286,34.611629 137.512254,33.4691068 C144.201279,32.3259889 148.985371,29.8550911 169.050061,43.8125665 C167.908294,38.0439612 167.317437,34.1332947 164.64934,29.4107107 C161.976473,24.6899137 160.372633,21.9896774 158.073597,18.2857134 C162.337187,16.3402089 166.076697,13.3731061 174.190695,14.5871104 C168.088354,10.4429357 164.543212,4.71602825 151.461485,5.45646366 C138.386913,6.19689907 130.861387,9.05797007 122.138646,12.4492 C113.415905,15.8416213 94.8059992,24.6899137 82.328246,20.4867663 C85.1221466,22.6413559 86.5107498,23.1268385 86.5107498,23.1268385 C86.5107498,23.1268385 76.1978821,24.1686901 70.8151816,22.0498415 C65.4384434,19.9298016 65.1254263,21.1295095 68.9329059,22.5901271 C72.7481363,24.0549144 75.5509802,26.5567879 69.6787807,25.6394343 C63.8053888,24.7262505 58.2617082,22.9564728 54.963403,21.6465634 C51.6722525,20.3455892 52.7227973,21.519087 54.4697304,22.8516324 C56.217856,24.1794124 57.9719438,25.8509021 57.9719438,25.8509021 C57.9719438,25.8509021 54.8775469,26.2512019 50.8912005,24.9543975 C46.9084315,23.6659327 42.7289088,21.1855038 41.1656124,20.7018083 C39.6094706,20.2169214 37.5197093,19.069038 39.6315308,21.4154379 C41.7445448,23.7582637 42.1040672,24.5940086 43.1629591,25.9485944 C37.7981454,24.8513441 30.8795747,22.7557273 26.8663982,20.1073155 C22.8562029,17.4493728 19.5394149,15.2983573 22.358953,18.6526548 C25.1761063,22.0051652 25.7150918,23.1905767 27.8114116,25.0276666 C21.7478245,23.0916931 5.77083914,15.708188 1.59250897,13.3993162 C0.557465994,13.0776468 -1.52752553,12.4301381 3.35852124,15.75346 C8.24218312,19.0726121 33.6895733,35.4825193 49.2134292,36.7406042 C64.7396701,37.9963064 71.8150474,38.8904283 106.711975,25.6692185 C141.607709,12.4456259 148.422537,8.91262314 155.371515,11.8618554 C152.651546,14.1278379 148.731977,16.2383469 146.864607,17.6334392 C151.921769,20.9508043 160.304663,27.2716089 164.593295,35.3764875 C158.123084,30.7128762 146.574246,20.5368038 136.978038,23.0916931 C127.383023,25.6370515 107.247383,36.2235504 103.909131,41.9010161 C100.571475,47.5826516 101.846796,60.8390068 115.031669,66.0619655 C128.22012,71.2771803 141.949941,69.7486547 156.999204,63.0996282 C163.843246,60.0812966 169.760759,63.5589007 172.388909,66.2329268 C175.027792,68.9123142 178.387508,73.7933502 180.461768,74.4396675 C177.391816,76.0301442 174.803612,75.5625321 169.591432,73.4335569 C164.387002,71.3194739 165.620587,70.6963882 152.132236,76.9004387" id="path112"></path>
                        <path d="M69.535091,106.15687 C69.535091,106.15687 95.6788695,92.3072138 99.0946306,90.6518075 C98.0399122,96.1195924 96.5559134,102.498178 86.7206202,104.264382 C76.8602857,105.117402 77.0600204,103.525138 69.535091,106.15687" id="path114"></path>
                        <path d="M190.163507,6.46197852 C189.945289,6.58409377 189.595903,6.64485355 189.114155,6.64485355 L188.373646,6.64485355 L188.373646,4.86494929 L189.157083,4.86494929 C189.524356,4.86494929 189.799811,4.90188171 189.984044,4.97455518 C190.321506,5.10858411 190.490833,5.3647283 190.490833,5.74239205 C190.490833,6.09980255 190.381725,6.34045895 190.163507,6.46197852 Z M189.228033,7.23636792 C189.837969,7.23636792 190.285136,7.17739519 190.570727,7.06004541 C191.078709,6.84738617 191.333296,6.43278999 191.333296,5.81446984 C191.333296,5.37485493 191.173509,5.05199412 190.852741,4.84410034 C190.682817,4.73389878 190.446117,4.65526847 190.142639,4.60642237 C190.527203,4.54566258 190.808024,4.38542354 190.986295,4.12510957 C191.165161,3.86479559 191.253402,3.61162982 191.253402,3.3644209 L191.253402,3.00522335 C191.253402,2.89144768 191.257576,2.76873674 191.265923,2.63947328 C191.27427,2.50961413 191.287983,2.42502698 191.308851,2.38332909 L191.338662,2.32316499 L190.527799,2.32316499 C190.523626,2.33865278 190.519452,2.35533194 190.515875,2.37201109 C190.511105,2.38809456 190.506931,2.40596509 190.503354,2.42621835 L190.484275,2.58407465 L190.484275,2.97305641 C190.484275,3.54014772 190.331046,3.91542874 190.02101,4.09711241 C189.837969,4.20254851 189.516605,4.2555644 189.057513,4.2555644 L188.373646,4.2555644 L188.373646,2.32316499 L187.507334,2.32316499 L187.507334,7.23636792 L189.228033,7.23636792 Z M186.592132,7.48655527 C185.843872,6.73480186 185.469444,5.82578784 185.469444,4.76070456 C185.469444,3.68847308 185.841487,2.77350221 186.585573,2.0181747 C187.334429,1.26165582 188.244265,0.884587752 189.313293,0.884587752 C190.382917,0.884587752 191.292157,1.26165582 192.040417,2.0181747 C192.789869,2.77350221 193.163701,3.68847308 193.163701,4.76070456 C193.163701,5.82578784 192.789869,6.73480186 192.040417,7.48655527 C191.287983,8.24247846 190.37934,8.62014222 189.313293,8.62014222 C188.252016,8.62014222 187.345161,8.24247846 186.592132,7.48655527 Z M192.486391,1.59106916 C191.611732,0.713030715 190.554033,0.274607175 189.313293,0.274607175 C188.072553,0.274607175 187.017239,0.713030715 186.146753,1.59106916 C185.280441,2.46493782 184.847583,3.52346857 184.847583,4.76725709 C184.847583,5.99913193 185.284615,7.05111015 186.158678,7.92557449 C187.029163,8.79408199 188.0809,9.22952711 189.313293,9.22952711 C190.554033,9.22952711 191.611732,8.79408199 192.486391,7.92557449 C193.36105,7.05587562 193.798082,6.00270603 193.798082,4.76725709 C193.798082,3.52763836 193.36105,2.46910761 192.486391,1.59106916 Z" id="path116"></path>
                    </g>
                </g>
            </g>
        </g>
    </g>
</svg>