<?xml version="1.0" encoding="UTF-8"?>
<svg width="200px" height="200px" viewBox="0 0 200 200" version="1.1" xmlns="http://www.w3.org/2000/svg" xmlns:xlink="http://www.w3.org/1999/xlink">
    <!-- Generator: Sketch 51.3 (57544) - http://www.bohemiancoding.com/sketch -->
    <title>texas-womans</title>
    <desc>Created with Sketch.</desc>
    <defs>
        <polygon id="path-1" points="0 0.178611111 199.859444 0.178611111 199.859444 79.9833333 0 79.9833333"></polygon>
    </defs>
    <g id="texas-womans" stroke="none" stroke-width="1" fill="none" fill-rule="evenodd">
        <g id="texas-womans_BGL" transform="translate(0.000000, 59.000000)">
            <g id="texas-womans" transform="translate(0.000000, 1.000000)">
                <g id="Group-3">
                    <mask id="mask-2" fill="white">
                        <use xlink:href="#path-1"></use>
                    </mask>
                    <g id="Clip-2"></g>
                    <path d="M180.761111,0.178611111 C177.964722,0.178611111 173.274722,0.749166667 168.128056,4.71472222 C165.106389,7.04277778 162.545,10.65 161.285278,14.3863889 C161.059167,12.9991667 160.546389,9.0825 155.970278,4.6075 C153.514167,2.20638889 148.829444,0.1825 144.256667,0.1825 L144.238333,0.1825 L144.220278,0.182777778 L133.416944,0.221944444 C126.979167,0.253055556 120.876944,3.16694444 116.664722,7.96694444 C116.2825,7.38222222 114.168889,4.53638889 111.770833,3.03611111 C109.736667,1.76361111 106.834167,0.210555556 102.366389,0.210555556 L90.4780556,0.210555556 L86.9227778,7.26944444 C86.9227778,7.26944444 87.1516667,6.84972222 86.9227778,7.26944444 C86.3272222,6.12722222 85.0130556,4.02666667 81.9941667,2.34083333 C78.9377778,0.633888889 75.6419444,0.1825 72.7802778,0.1825 L26.655,0.1825 L26.6322222,0.182777778 C24.7294444,0.182777778 17.1758333,0.635 10.4058333,7.11638889 C6.3225,11.0255556 4.50388889,15.4638889 3.745,18.5583333 L0,33.7258333 L22.2808333,33.7258333 L10.8255556,79.3747222 C10.8255556,79.3747222 28.9691667,79.3747222 29.5733333,79.3747222 C30.8847222,79.3747222 37.2516667,78.9580556 42.9361111,74.8366667 C48.7286111,70.6363889 50.1436111,63.7086111 50.1436111,63.7086111 L55.7205556,41.1897222 L55.9813889,79.3752778 L74.1808333,79.3752778 C79.4994444,79.3508333 84.7630556,77.0191667 88.7027778,73.2627778 C89.2655556,72.7263889 89.8011111,72.16 90.3063889,71.5658333 C91.0333333,72.5719444 92.2738889,74.1513889 93.9580556,75.5722222 C94.5533333,76.0747222 98.4011111,79.3752778 104.513611,79.3752778 C106.587778,79.3752778 118.085833,79.3752778 118.085833,79.3752778 L123.598333,68.4113889 C123.942222,68.9211111 124.306111,69.4197222 124.689444,69.9055556 C131.269167,78.2494444 141.460556,80 148.776111,80 C159.980556,80 168.353611,75.1938889 171.853056,72.8402778 C183.471389,65.0266667 186.774722,51.9713889 187.056389,50.8886111 L187.065556,50.8536111 L187.074167,50.8186111 L199.859444,0.178611111 L180.761111,0.178611111" id="Fill-1" fill="#862633" mask="url(#mask-2)"></path>
                </g>
                <path d="M174.619444,55.3288889 C175.815278,53.1955556 176.759444,50.8719444 177.407222,48.3816667 L187.059444,10.1619444 L180.758333,10.1619444 C177.003611,10.1619444 173.319444,12.5344444 171.468333,15.8963889 C171.468056,15.8963889 171.468056,15.8966667 171.468056,15.8966667 C171.467778,15.8972222 171.4675,15.8977778 171.467222,15.8980556 C171.015833,16.6933333 170.664167,17.5433333 170.4425,18.4325 L163.245556,46.7488889 C162.874444,48.2655556 162.316944,49.6313889 161.600278,50.835 C161.6,50.8355556 161.599722,50.8363889 161.599444,50.8369444 C159.365278,54.4997222 155.611111,56.5966667 150.963611,56.6180556 C150.955278,56.6180556 150.9475,56.6180556 150.939444,56.6180556 C148.988056,56.6180556 146.4,56.2491667 144.973889,54.4413889 C143.503889,52.5775 143.777222,49.8077778 144.265278,47.8113889 L151.276389,19.1355556 C151.874722,16.7369444 151.383333,14.5580556 150.021667,12.8147222 C148.680833,11.0983333 146.632778,10.1619444 144.254167,10.1619444 L133.450833,10.1619444 C129.137778,10.1830556 124.880278,12.7302778 122.629444,16.6941667 C122.629167,16.6944444 122.628889,16.695 122.628611,16.6955556 C122.464444,16.9769444 122.308889,17.2644444 122.166111,17.5605556 L109.795278,43.1902778 L109.793889,43.1936111 L109.462778,17.1630556 C109.413056,13.2752778 106.2475,10.1619444 102.363611,10.1619444 C102.351944,10.1619444 102.340278,10.1530556 102.328889,10.1530556 L96.6194444,10.1619444 L96.6194444,10.1805556 L96.5597222,10.2983333 L96.5586111,10.3008333 L96.55,10.3008333 L79.9161111,43.1961111 L79.9147222,43.1994444 L80.3244444,17.955 C80.3588889,15.8222222 79.6141667,13.7969444 78.2283333,12.3886111 C76.8613889,10.9986111 74.9316667,10.2166667 72.7752778,10.1619444 L72.7777778,10.1536111 L26.6752778,10.1619444 C23.7913889,10.1755556 20.8305556,11.4225 18.3402778,13.4302778 C16.785,14.6855556 15.5186111,16.2055556 14.6186111,17.8677778 C14.6180556,17.8686111 14.6175,17.8691667 14.6169444,17.87 C14.0511111,18.8908333 13.6205556,19.9652778 13.3516667,21.0680556 L12.6566667,23.8813889 L34.9869444,23.8813889 L23.5319444,69.5316667 L28.1072222,69.5316667 C32.9633333,69.5316667 37.1086111,67.9605556 39.2641667,64.2425 C39.2644444,64.2419444 39.2647222,64.2411111 39.2652778,64.2405556 C39.7777778,63.3838889 40.1844444,62.4127778 40.4655556,61.3155556 L49.7361111,23.8813889 L63.5330556,23.8813889 C64.6241667,23.8813889 65.5105556,24.7622222 65.5175,25.8530556 L65.7980556,69.5116667 L74.0608333,69.5116667 C77.8558333,69.4941667 81.7694444,67.0730556 83.8141667,63.5802778 C83.8144444,63.5794444 83.8147222,63.5788889 83.815,63.5783333 C83.8152778,63.5783333 83.8152778,63.5780556 83.8152778,63.5780556 C83.9594444,63.3386111 84.0958333,63.0944444 84.2216667,62.8447222 L96.2636111,38.3252778 L96.2636111,38.3255556 L96.5908333,59.9877778 C96.6605556,64.5736111 99.715,69.5488889 104.441667,69.5488889 L111.871944,69.5488889 L111.873333,69.5288889 L111.9325,69.4111111 L111.941389,69.4111111 L111.942778,69.4086111 L134.607222,24.2716667 C134.607222,24.2713889 134.6075,24.2711111 134.6075,24.2708333 L134.607778,24.2708333 C134.6225,24.2466667 134.643333,24.2286111 134.660833,24.2069444 C134.680833,24.1830556 134.698333,24.1563889 134.721111,24.1358333 C134.756667,24.1041667 134.796111,24.0788889 134.836389,24.0561111 C134.844722,24.0511111 134.851944,24.0441667 134.860833,24.0397222 C134.905556,24.0163889 134.9525,23.9994444 134.999167,23.9866667 C135.003889,23.9855556 135.008611,23.9827778 135.013611,23.9816667 C135.060278,23.97 135.107222,23.9647222 135.1525,23.9638889 C135.156389,23.9636111 135.160556,23.9625 135.164444,23.9625 C135.165,23.9625 135.165556,23.9625 135.166389,23.9625 C135.380833,23.9633333 135.550556,24.0883333 135.487222,24.3458333 L129.823333,47.2955556 C128.205833,53.9044444 129.112222,59.6311111 132.444722,63.8569444 C135.843333,68.1669444 141.417222,70.1563889 148.528889,70.1563889 C148.581389,70.1563889 148.635,70.1558333 148.6875,70.1558333 C159.520278,70.1047222 168.953889,64.8041667 174.132778,56.1719444 C174.299167,55.8944444 174.461389,55.6133333 174.619167,55.3291667 L174.619444,55.3288889" id="Fill-4" fill="#FFFFFE"></path>
                <polyline id="Fill-5" fill="#862633" points="174.235556 76.4122222 173.255833 76.4122222 173.255833 76.0619444 175.615556 76.0619444 175.615556 76.4122222 174.636389 76.4122222 174.636389 78.9383333 174.235556 78.9383333 174.235556 76.4122222"></polyline>
                <path d="M176.167778,76.0619444 L176.588611,76.0619444 L177.244722,77.6183333 C177.309167,77.7772222 177.386111,78.0055556 177.386111,78.0055556 L177.394167,78.0055556 C177.394167,78.0055556 177.470833,77.7772222 177.536111,77.6183333 L178.191389,76.0619444 L178.612778,76.0619444 L178.843333,78.9383333 L178.446389,78.9383333 L178.304722,77.1255556 C178.292778,76.9502778 178.300833,76.7016667 178.300833,76.7016667 L178.292778,76.7016667 C178.292778,76.7016667 178.208056,76.9663889 178.138889,77.1255556 L177.568333,78.4211111 L177.211944,78.4211111 L176.645556,77.1255556 C176.580833,76.9702778 176.491389,76.6933333 176.491389,76.6933333 L176.483611,76.6933333 C176.483611,76.6933333 176.4875,76.9502778 176.475278,77.1255556 L176.337778,78.9383333 L175.937222,78.9383333 L176.167778,76.0619444" id="Fill-6" fill="#862633"></path>
            </g>
        </g>
    </g>
</svg>