<?xml version="1.0" encoding="UTF-8"?>
<svg width="200px" height="200px" viewBox="0 0 200 200" version="1.1" xmlns="http://www.w3.org/2000/svg" xmlns:xlink="http://www.w3.org/1999/xlink">
    <!-- Generator: Sketch 51.3 (57544) - http://www.bohemiancoding.com/sketch -->
    <title>texas-tyler</title>
    <desc>Created with Sketch.</desc>
    <defs></defs>
    <g id="texas-tyler" stroke="none" stroke-width="1" fill="none" fill-rule="evenodd">
        <g id="texas-tyler_BGL" transform="translate(9.049774, 0.000000)">
            <g id="texas-tyler" transform="translate(0.000000, 0.905405)">
                <g id="g10" transform="translate(90.500000, 99.619823) scale(-1, 1) rotate(-180.000000) translate(-90.500000, -99.619823) translate(-0.000000, 0.025228)" fill-rule="nonzero">
                    <g id="g12">
                        <polyline id="path14" fill="#E6431F" points="90.4140741 198.99932 90.4140741 189.308773 180.717568 189.308773 180.717568 198.99932 90.4140741 198.99932"></polyline>
                        <polyline id="path16" fill="#FFFFFF" points="90.4140741 179.616731 180.717568 179.616731 180.717568 189.308773 90.4140741 189.308773 90.4140741 179.616731"></polyline>
                        <polyline id="path18" fill="#E6431F" points="90.4140741 169.925436 180.717568 169.925436 180.717568 179.616731 90.4140741 179.616731 90.4140741 169.925436"></polyline>
                        <polyline id="path20" fill="#FFFFFF" points="90.4140741 160.233393 180.717568 160.233393 180.717568 169.925436 90.4140741 169.925436 90.4140741 160.233393"></polyline>
                        <polyline id="path22" fill="#E6431F" points="138.987823 131.159509 180.717568 131.159509 180.717568 140.850804 138.987823 140.850804 138.987823 131.159509"></polyline>
                        <polyline id="path24" fill="#FFFFFF" points="138.987823 140.850804 180.717568 140.850804 180.717568 150.542099 138.987823 150.542099 138.987823 140.850804"></polyline>
                        <polyline id="path26" fill="#E6431F" points="90.4140741 160.233393 90.4140741 150.542099 180.717568 150.542099 180.717568 160.233393 90.4140741 160.233393"></polyline>
                        <polyline id="path28" fill="#002D72" points="115.340893 36.1811577 115.340893 150.542099 90.4140741 150.542099 90.4140741 198.99932 0 198.99932 0 131.159509 41.8968105 131.159509 41.8968105 150.533129 65.5438902 150.533129 65.5438902 36.1811577 43.2875031 36.1811577 43.2875031 0 137.596607 0 137.596607 36.1811577 115.340893 36.1811577"></polyline>
                        <polyline id="path30" fill="#FFFFFF" points="39.1072065 177.711361 29.059073 170.404581 32.9224235 158.535828 22.8529212 165.864286 12.7627225 158.535828 16.6258489 170.404581 6.59863595 177.711361 18.9898695 177.711361 22.8529212 189.516577 26.6949777 177.711361 39.1072065 177.711361"></polyline>
                        <path d="M144.078238,0.0455524491 L143.987084,1.4958904 C143.978118,1.68627781 143.978118,1.92099178 143.969152,2.18411062 L143.941507,2.18411062 C143.878746,1.96658908 143.797305,1.67663511 143.733796,1.44999411 L143.289982,0.0814621908 L142.782659,0.0814621908 L142.338845,1.4859487 C142.293268,1.6675904 142.22154,1.96658908 142.166997,2.18411062 L142.139352,2.18411062 C142.139352,1.95694637 142.131134,1.72215766 142.121421,1.4958904 L142.031014,0.0455524491 L141.560302,0.0455524491 L141.741115,2.50934644 L142.474828,2.50934644 L142.900711,1.30520399 C142.963472,1.11511558 143.000083,0.933473884 143.063592,0.6803416 L143.072558,0.6803416 C143.136067,0.897893041 143.190609,1.11511558 143.244405,1.28711457 L143.670287,2.50934644 L144.376356,2.50934644 L144.566882,0.0455524491 L144.078238,0.0455524491 Z M141.415353,2.50934644 L141.415353,2.10263348 L140.627097,2.10263348 L140.627097,0.0455524491 L140.138453,0.0455524491 L140.138453,2.10263348 L139.359163,2.10263348 L139.359163,2.50934644 L141.415353,2.50934644 Z" id="path32" fill="#002D72"></path>
                    </g>
                </g>
            </g>
        </g>
    </g>
</svg>