<?xml version="1.0" encoding="UTF-8"?>
<svg width="200px" height="200px" viewBox="0 0 200 200" version="1.1" xmlns="http://www.w3.org/2000/svg" xmlns:xlink="http://www.w3.org/1999/xlink">
    <!-- Generator: Sketch 51.3 (57544) - http://www.bohemiancoding.com/sketch -->
    <title>tiffin</title>
    <desc>Created with Sketch.</desc>
    <defs></defs>
    <g id="tiffin" stroke="none" stroke-width="1" fill="none" fill-rule="evenodd">
        <g id="tiffin_BGL" transform="translate(1.960784, 0.000000)">
            <g id="tiffin">
                <g id="g10" transform="translate(97.901307, 100.359300) scale(-1, 1) rotate(-180.000000) translate(-97.901307, -100.359300) translate(0.000000, 0.434463)" fill-rule="nonzero">
                    <g id="g12" transform="translate(0.157905, 0.000000)">
                        <path d="M146.529833,199.077923 C148.672609,193.976622 146.990127,189.436953 144.541805,184.963638 C141.569237,179.532941 137.179469,175.403241 132.49047,171.530265 C131.566724,170.767992 130.631135,170.021518 129.752392,169.3098 C134.635614,165.97239 137.560021,161.534621 137.725032,155.395366 C138.909322,155.771367 140.137036,156.195554 141.416069,156.43095 C145.288697,157.143458 149.192907,157.212181 153.104222,156.955457 C158.62854,156.592884 164.072326,155.739771 169.266622,153.744434 C173.278997,152.2033 176.765546,149.876987 179.355194,146.366584 C180.357893,145.007922 181.125313,143.535512 181.227951,141.800848 C181.264269,141.202089 181.194002,140.621498 180.920825,140.020369 C180.533168,140.172824 180.41237,140.519599 180.19525,140.762104 C177.74456,143.499176 174.756201,144.765417 171.067532,144.093985 C170.732773,144.033161 170.401172,143.906774 170.090098,143.760639 C168.391827,142.96282 168.134441,141.634175 169.484532,140.325278 C171.669152,138.207504 174.251694,136.604757 176.718964,134.852715 C180.970565,131.833642 185.076894,128.623408 188.314743,124.485809 C190.641478,121.512552 192.212636,118.160133 192.494497,114.322703 C192.592398,112.990108 192.47239,111.679632 191.394686,110.591912 C190.977026,111.035057 190.902021,111.574572 190.682533,112.031146 C189.493506,114.500435 187.878924,116.596882 185.474815,117.99425 C183.992874,118.855262 182.423295,119.328424 180.683967,118.931884 C178.31144,118.390789 177.312688,116.90969 177.689293,114.491746 C178.015367,112.394509 178.917007,110.535828 180.016817,108.754559 C181.872205,105.752075 184.299999,103.232231 186.710424,100.6879 C190.098283,97.1119333 193.013216,93.2144697 194.365675,88.3706823 C195.202573,85.3760969 195.245208,82.3973099 193.905381,79.5038341 C193.355081,78.315005 192.598714,77.2874775 191.461796,76.4200668 C191.255729,77.9817379 190.900442,79.426422 190.106968,80.7234701 C188.520809,83.310457 186.38435,85.2236424 183.310723,85.6912748 C177.883516,86.5167409 174.229587,82.2077291 175.604153,76.732638 C176.531057,73.0397636 178.315387,69.771234 180.47869,66.6794094 C182.700418,63.5064601 185.100579,60.4476542 186.80122,56.9359084 C189.240857,51.8986697 189.155588,46.842236 186.86754,41.787698 C186.573047,41.1381471 186.276974,40.1881107 185.61693,40.1523273 C185.201639,40.1309995 185.211113,41.2631124 185.025574,41.8704026 C183.354936,47.3445459 178.178799,50.9427089 172.723959,50.2531091 C169.83745,49.8880872 168.133651,47.9117082 167.039367,45.3944712 C165.899291,42.7725699 165.896922,40.1010616 166.876725,36.6244671 C164.977913,37.1064761 163.097261,37.4381634 161.173184,37.3560907 C156.594719,37.1610596 152.451283,35.5590235 148.478385,33.4120219 C142.764581,30.3258057 137.680029,26.3336308 132.604162,22.3318978 C127.231433,18.0946897 121.98266,13.6918355 116.190692,10.0153124 C112.397806,7.60698954 108.460436,5.48840131 103.979873,4.69045606 C102.876114,4.49451649 102.306076,4.11930465 101.843413,3.04828418 C101.117838,1.36908876 99.4250932,0.767703171 97.7947206,0.219696406 C97.5586521,0.139778654 97.3138989,0.0845458913 97.0738828,0.0182051995 C96.3790993,0.0182051995 95.6843158,0.0182051995 94.9895324,0.0182051995 C92.713327,0.585343108 90.4189625,1.08861198 88.1656534,1.73381046 C83.0629425,3.19516184 78.3904448,5.43317012 74.7851502,9.49475534 C73.462693,10.9845438 72.3496183,12.6362658 71.2119104,14.2620785 C70.2811374,15.5913553 69.7778142,17.1310667 69.6732808,18.7748105 C69.6082238,19.7960977 69.8870057,20.5450205 70.9158379,21.0624969 C75.3850326,23.3097393 78.4746083,26.9584572 80.975434,31.1861072 C81.9860282,32.8939925 82.9618831,34.6262864 84.1927552,36.1940399 C85.2601953,37.5551505 86.5084369,38.6057436 88.4751478,38.6351286 C87.7906282,39.2559265 87.1692707,39.762265 86.6173916,40.3340089 C85.7670714,41.2156382 85.8207592,41.7858022 86.7966141,42.485987 C90.5421287,45.1753475 93.3252102,48.6621319 95.3882433,52.760472 C96.0253914,54.0258443 96.7004367,55.2730485 97.5381244,56.4224606 C98.8463701,58.218027 99.6051053,58.6460055 101.825254,58.8054902 C101.293903,59.3640424 100.738076,59.8571103 100.291993,60.4350155 C99.6003681,61.3332332 99.7409039,61.8871248 100.738866,62.3758481 C105.170479,64.5459944 108.775458,67.6630964 111.562487,71.7389239 C112.131735,72.5698403 112.75704,73.3668693 113.403663,74.1394897 C114.483735,75.4271378 115.883566,76.1346688 117.67816,76.2809619 C116.981798,76.7882483 116.320964,77.2035091 115.818825,77.8061388 C115.398007,78.3124773 115.313528,78.659331 116.031208,79.0314622 C120.998909,81.6026507 124.140436,85.5996442 125.36736,91.0887959 C125.688698,92.5264497 126.846144,93.1180995 128.102281,93.5549251 C125.71791,95.0881591 125.729753,95.0818398 127.101161,97.6143222 C127.956218,99.1925817 128.789959,100.78743 128.939969,102.627152 C128.962865,102.905994 128.935231,103.189575 128.936021,103.469997 C128.93839,104.03005 128.77101,104.170655 128.197814,103.923411 C123.470128,101.882258 118.541902,101.683988 113.535514,102.462849 C112.750724,102.584497 112.109629,102.421773 111.45748,102.094747 C109.308388,101.015716 107.359836,99.622298 105.431812,98.2012325 C101.693403,95.4452028 98.1571134,92.4521972 94.8379432,89.200098 C94.2592202,88.6329357 93.7499755,88.019958 93.5715425,87.2418871 C91.9348537,80.1018033 86.6016011,76.0084396 81.0725458,72.1125559 C79.108993,70.7286956 76.9113455,69.7672054 74.4674447,69.486073 C72.0304127,69.2055725 70.8504651,70.1029212 70.5099422,72.5136771 C70.3495894,73.6498185 70.3283511,74.7809835 70.5161795,75.9081988 C70.6166863,76.5132773 70.4103829,76.7675524 69.8435028,77.0054762 C66.3776386,78.453241 64.0516141,80.9470174 63.0794699,84.6225135 C62.6461777,86.2608069 62.685654,86.2868743 64.2810506,85.8871749 C66.8072201,85.2552392 69.3484696,84.8160439 71.9370117,85.5206522 C74.4088618,86.1928738 75.1252783,87.5333675 74.3792545,89.9971269 C74.1303957,90.8202232 73.751344,91.5738066 73.2921553,92.2926335 C72.8356509,93.0075108 72.2232151,93.5912614 71.4879289,94.2974496 C72.9482375,93.9933305 74.2173226,93.5888916 75.5543071,93.6694634 C75.7433987,93.6813122 75.9339904,93.6686735 76.1220557,93.6868417 C79.0703062,93.9641035 80.2617019,95.9468018 79.1303102,98.6767642 C78.7661016,99.5567347 78.1985898,100.298469 77.4805942,101.071801 C78.4511594,100.919346 79.3032165,100.765312 80.1606425,100.655513 C81.8960221,100.432756 83.5524491,100.698959 84.4501409,102.341991 C85.4181006,104.114571 85.1796635,105.935336 83.9558972,107.583898 C83.9037884,107.654201 83.8682597,107.737143 83.7956233,107.867479 C84.3024994,107.794017 84.7564772,107.713445 85.2136132,107.66447 C88.0306443,107.361141 90.3929081,108.756139 91.4666644,111.378672 C91.9940682,112.667821 92.3833048,113.994096 92.3383018,115.412792 C92.2972464,116.697991 91.8803764,117.780181 90.6463462,118.349713 C89.3309947,118.956372 88.0322234,118.822085 86.910306,117.921577 C82.7510795,114.581797 78.3564951,111.565093 74.0554696,108.418843 C72.081653,106.97487 69.9520627,106.311338 67.5742452,106.170732 C66.5056209,106.108328 65.444655,105.905319 64.3757148,105.851604 C63.5920306,105.811319 63.0872073,105.415569 62.6600734,104.836558 C61.4060682,103.135071 61.337932,101.040994 62.525617,99.2241785 C60.2460956,99.0796232 58.0363683,99.120699 55.9191736,99.9603836 C54.5470552,100.505428 53.5255656,101.443853 52.9102875,102.815943 C52.8104124,103.037911 52.859442,103.495274 52.4865485,103.43919 C52.11555,103.384685 52.0174907,103.012633 51.9582762,102.642161 C51.7466831,101.320625 52.047098,100.132586 52.8471254,99.0780434 C53.8793525,97.7178017 55.2674983,96.9002348 56.9156352,96.5029053 C57.0667506,96.466569 57.221261,96.4420814 57.3689814,96.3938963 C57.4199059,96.378098 57.4537766,96.3093749 57.5200969,96.2382822 C56.9600066,95.4349339 56.0927905,95.1071172 55.2165738,94.9009482 C51.8888768,94.1181378 48.5879448,94.0999696 45.4110474,95.5557916 C44.5311199,95.9586506 44.4849326,95.0455035 44.0315075,94.7927292 C43.548554,94.5225767 44.0379816,94.2579536 44.1980976,94.0604737 C46.122253,91.6836054 48.6888463,90.2396323 51.4746912,89.1424338 C53.2035967,88.4607332 54.9846899,87.9338568 56.8015486,87.5349473 C57.3295051,87.6905615 57.8365391,87.5151993 58.3515474,87.4441066 C59.3578781,87.1502565 60.4465564,87.2110803 61.4109632,86.7355486 C61.6012391,86.1446887 61.0433596,86.1241508 60.7670253,85.8871749 C58.8277899,84.8847669 56.7567825,84.2915372 54.6182705,83.9052665 C53.8025316,83.8420729 53.0034516,83.4194659 52.1673429,83.7875685 C43.765358,83.1974985 35.9987052,85.3666179 28.6946361,89.347813 C27.1677705,90.1795984 25.7012247,90.8012651 23.9506862,91.077737 C18.86195,91.8826652 14.0788395,93.5936311 9.89655887,96.7193432 C8.85596272,97.4966242 7.95511279,98.4216201 7.19333009,99.4840621 C6.9157641,99.8711227 6.89355471,100.144435 7.17359193,100.555193 C11.4688223,106.866651 15.9073833,113.07305 20.5853288,119.108036 C21.7831986,120.653119 23.3496196,121.564686 25.1766632,122.086823 C26.2653415,122.398052 27.365389,122.691112 28.4784637,122.890172 C31.6291489,123.451804 34.4714449,124.665121 37.1219648,126.481146 C43.0921286,130.57372 48.8535416,134.911959 53.9934391,140.030638 C54.5294488,140.563834 55.0173763,141.145215 55.5228312,141.708428 C55.6261803,141.823756 55.7078963,141.958042 55.8448002,142.144463 C51.5410114,144.053699 47.2402228,145.900531 44.0086901,149.761659 C46.2770792,149.926752 48.314137,149.987576 50.3326408,150.310653 C55.0460361,151.065816 59.0112759,153.09512 62.2214913,156.709792 C65.6562481,160.577239 69.3056772,164.251155 72.8026487,168.065677 C74.902316,170.356444 77.5706792,171.734064 80.8562155,171.566601 C87.2608558,171.238784 93.29205,172.681968 99.0382251,175.478283 C101.794463,176.819567 104.73545,177.647403 107.70328,178.382028 C110.350563,179.036871 112.901524,178.85045 115.311949,177.529704 C116.073052,177.113417 116.730728,177.157652 117.524202,177.469671 C126.208996,180.879754 133.835823,185.897323 140.489954,192.426799 C142.068218,193.975832 143.610164,195.554881 145.039207,197.24136 C145.523976,197.814051 146.028484,198.378844 146.340347,199.077923 C146.403509,199.077923 146.466671,199.077923 146.529833,199.077923" id="path14" fill="#221D1E"></path>
                        <path d="M58.2676997,87.2561057 C57.7526125,87.21424 57.2807913,87.400661 56.8002854,87.5349473 C63.0378619,92.8116107 69.2766226,98.0874841 75.5080408,103.370467 C76.2537487,104.003192 76.9532694,104.688053 77.687845,105.334207 C78.2094063,105.79236 78.7522059,106.231556 79.3837483,106.530145 C79.6521873,106.658112 79.9664189,106.923525 80.2506485,106.638364 C80.5419839,106.346094 80.2688077,106.040395 80.1172185,105.784461 C79.4350675,104.633548 78.4604758,103.722771 77.5679159,102.74722 C68.7526927,93.1078306 59.8794394,83.5229454 51.1742763,73.782525 C49.720126,72.1560804 48.354166,70.468891 47.5409535,68.4054629 C47.2316169,67.6217836 47.0801857,66.8129848 47.27662,65.9968399 C47.6781732,64.3293984 49.2627532,63.5734453 50.904416,64.2124113 C51.6704938,64.511159 52.2293207,65.0483043 52.6746927,65.7182352 C54.8835515,69.0460877 60.078637,69.1226309 62.3463944,65.8586039 C62.3035231,65.8336424 62.2446244,65.7750304 62.2205439,65.7870372 C60.1834861,66.8121159 58.956088,66.4606017 57.8504348,64.4691352 C57.0050886,62.947039 56.7015946,61.2770699 56.6889621,59.5513324 C56.6812248,58.5037409 56.5927188,57.4650756 56.273829,56.4666171 C55.6313912,54.4547707 54.2133223,53.4364853 52.0982593,53.4476232 C51.5949361,53.4497559 51.0916128,53.5368051 50.589237,53.5343563 C50.118916,53.5312756 49.7115202,53.3346646 49.5458775,52.8613448 C49.3698131,52.3584029 49.5165861,51.9001705 49.9566682,51.6095591 C50.8115677,51.0438976 51.7343665,50.7832241 52.7237223,51.2491188 C53.5486988,51.6369693 54.3527527,52.0699243 55.1731499,52.4688337 C57.1080429,53.409707 58.9804054,53.232528 60.7247856,52.0279005 C62.5298804,50.7816443 63.7478042,49.1085945 64.1496733,46.900532 C64.2310735,46.4528056 64.200203,46.035017 64.0213752,45.6011932 C63.9529233,45.6842137 63.8674965,45.7465384 63.8387577,45.828927 C63.1072613,47.9095754 61.402989,48.8139544 58.8579498,47.6124076 C57.0130628,46.7404153 55.5975205,45.3778039 54.423968,43.7316113 C53.3004716,42.1539048 51.8888768,40.9856926 49.8616882,40.8697324 C48.5148346,40.7931892 47.2547501,41.2378349 46.0069032,41.6910908 C44.4050325,42.2723927 42.7701597,42.4865399 41.083178,42.1255467 C40.4847958,41.9978166 39.9281795,41.7851703 39.5201521,41.3103496 C39.0704377,40.7876597 38.8675293,40.2124402 39.3718,39.6073618 C39.8390419,39.0464398 40.404343,39.1105813 40.996488,39.3962952 C41.628741,39.7015202 42.0136352,40.303202 42.654494,40.8576466 C42.6125701,38.8017227 41.8174378,37.2527692 40.5591692,35.9215966 C38.3444679,33.5771151 35.5268841,32.2438097 32.4880749,31.415026 C24.4657734,29.2270275 16.6383271,29.5115566 9.19490652,33.5984429 C5.94673854,35.3812916 3.33297103,37.7534993 2.2664942,41.473231 C1.62254046,43.7180247 1.69131613,46.0174808 1.65491895,48.3242832 C1.61020016,51.1623856 2.62609991,53.7691205 3.16458079,56.4783079 C3.17692109,56.5400796 3.19635134,56.6008245 3.20806792,56.6634651 C3.75055958,59.5679997 3.01161,60.6056382 0.0181962211,60.9682113 C1.49547404,61.7995227 2.91045584,61.94392 4.31987937,61.2116645 C5.6028602,60.5463942 6.4216862,59.5269239 6.32053205,57.9579064 C6.29894639,57.6215587 6.36432709,57.2589855 6.47658989,56.9381202 C6.71437163,56.2595792 7.04097513,55.612793 7.94800705,55.8337335 C8.75261368,56.0305815 9.23714619,56.841197 9.07371417,57.6594748 C8.91359817,58.4595844 8.50407068,59.1578734 7.91808399,59.683091 C5.62075088,61.7433594 5.55043563,64.323869 6.26563626,67.0024866 C7.59425963,71.9789804 11.4780597,74.6504887 16.9976407,74.5218108 C17.3066614,74.5138326 17.6153663,74.4863434 18.1471125,74.4545887 C17.4420652,74.1799336 16.9107138,74.018553 16.4227863,73.7723351 C15.7162389,73.4149754 15.1567803,72.9024755 15.2233374,72.0147638 C15.2770252,71.3069168 15.7306872,70.8674845 16.359861,70.636117 C17.1398344,70.3485073 17.7772982,70.6678718 18.3152028,71.2238962 C18.5328753,71.4491813 18.7666541,71.6852093 18.8996104,71.9616812 C19.9790513,74.2074228 21.9152075,75.2855052 24.2075982,75.8353682 C25.7379377,76.2019699 27.2948054,76.4540333 28.8328033,76.7897492 C29.3200992,76.8955984 29.8052633,77.0628244 30.2552146,77.2779195 C31.3343396,77.7953959 31.6982324,78.6016669 31.4456629,79.7629278 C31.2516762,80.6571168 30.8026723,81.4501962 30.4032508,82.3127885 C32.8807065,81.0102109 35.1151459,76.6823991 34.7422525,73.9871142 C34.5368966,72.4995375 33.2507577,71.452262 31.4132923,71.3099975 C30.7119557,71.2547821 30.0084875,71.1899297 29.4517922,70.7317763 C28.8241975,70.2158008 28.3208742,69.5878936 28.6101568,68.6915718 C28.8411723,67.9772474 29.6908609,67.6100138 30.6777692,67.7634162 C31.9872782,67.9664255 33.106748,68.5918839 34.1667665,69.3539984 C36.6263,71.1236554 39.0334878,72.9617195 41.3810664,74.8772747 C44.8046909,77.6697987 48.228947,80.4620067 51.6492555,83.2583223 C51.8392156,83.4131465 51.995305,83.6106265 52.1673429,83.7875685 C52.9892402,83.9068463 53.8112164,84.0253343 54.6327978,84.1454021 C54.4986572,83.3262554 53.7392905,83.0300355 53.2233348,82.5789914 C48.6620024,78.5889492 44.1471731,74.5446395 39.4670959,70.6937812 C37.1993384,68.8279119 34.854839,67.0546213 32.3814099,65.4636441 C30.5250748,64.2701545 28.5762071,63.6699735 26.364664,64.441725 C24.3917158,65.130456 23.0927076,66.8960054 23.3687261,68.6440186 C23.7163547,70.843155 25.4135212,72.2847583 27.8012078,72.2760692 C24.7467659,72.5850068 22.0148458,72.2002369 19.6213167,70.3692032 C18.4891355,69.5027403 17.916097,68.3730762 17.9201236,66.9447434 C17.9219395,66.2823168 17.9435726,65.6185473 17.9000696,64.9558047 C17.8750416,64.5728517 17.7816406,64.2038012 17.5731267,63.8776434 C17.3325579,63.5024315 16.9982723,63.2630069 16.5387678,63.4052714 C16.1131339,63.537346 15.9259372,63.9273293 16.0193382,64.3096504 C16.4147331,65.9259051 15.5422272,66.8105361 14.3379622,67.4243037 C14.9112375,67.0302128 14.983716,66.408467 14.7434631,65.7182352 C14.5877684,65.2701928 14.3425414,64.8610144 14.1343433,64.4352477 C13.2729697,62.6770445 13.3309999,61.0465713 14.7080133,59.5300046 C15.607679,58.5385764 15.5931517,57.4373494 14.7808077,56.4397598 C14.3258824,55.8821556 13.7655553,55.5353808 13.043849,55.8266242 C12.3736988,56.0978826 12.1300509,56.6569878 12.2546382,57.3709961 C12.2697181,57.4570974 12.2947461,57.5542575 12.1574474,57.6434394 C10.4272787,56.5354191 9.18748497,54.9515512 8.24747452,53.1535361 C6.44481934,49.7066426 5.90140392,46.0618743 6.7137558,42.2221538 C7.25562375,39.6620242 8.90191317,37.9075336 10.8972839,36.4572411 C13.5298816,34.541686 16.506634,33.4759264 19.7680897,33.213673 C25.7249895,32.7341128 30.811594,34.6450865 35.103382,38.7551174 C35.6280225,39.2574274 36.0603673,39.8489982 36.4770795,40.4429388 C36.8561312,40.9832438 37.1999701,41.5497742 37.5398613,42.2505119 C37.1653888,42.1539048 36.9218198,41.9730922 36.6519596,41.8697707 C35.7556889,41.5259976 34.8872096,41.8524714 34.4992362,42.6784904 C34.1334485,43.4582201 34.4458642,44.2583297 35.3159226,44.7307807 C36.1572422,45.1889341 37.0423805,45.2938354 37.9756011,45.0553587 C38.7398629,44.8593796 39.5148623,44.6461803 40.3062838,44.6961822 C41.4519659,44.7696447 42.3938712,45.2845934 43.2284009,46.0918123 C44.9444371,47.7522234 46.929623,48.0604501 48.8704374,47.0539344 C50.367459,46.2760215 51.0222134,44.9220202 50.7838553,43.0987277 C50.7634855,42.9740784 50.9472873,43.0506216 50.8208841,43.0506216 C50.8084886,43.0506216 50.8088044,43.0734503 50.8118835,43.1200555 C50.841175,43.5665181 50.9744471,43.989915 51.1070875,44.4101523 C51.6837578,46.2411861 51.1943302,47.8265548 50.0334892,49.2743196 C49.4410284,50.0136054 48.7936955,50.7088137 48.2459219,51.483014 C46.1885733,54.3906292 47.8872399,58.5552437 51.3947911,59.1498952 C52.7505663,59.3797618 53.7753719,58.7771321 54.4946307,57.7542652 C53.2486786,61.2132444 49.2695432,62.4764839 45.5631102,61.4674405 C44.8627211,61.275569 44.1854652,61.0080232 43.4909186,60.793876 C42.7219985,60.5575321 42.0515325,60.7407934 41.4939688,61.3042431 C40.9165879,61.8877568 40.8795591,62.5702473 41.1371027,63.3231988 C41.6210036,64.736997 42.589437,65.8373551 43.5053669,66.9552494 C45.905449,69.8856933 48.4562518,72.6861955 50.9892112,75.5021011 C53.3315789,78.1063873 55.7341086,80.655537 58.0576856,83.2757005 C58.9140851,84.2425622 59.876676,85.109894 60.7105741,86.0988734 C60.8894809,86.368236 61.3308263,86.2710759 61.4486236,86.6265397 C61.7638027,87.4085602 62.4108198,87.9520249 62.9613567,88.5286663 C65.246089,90.9252825 67.4573163,93.3898319 69.7590234,95.7690699 C72.2130302,98.3078717 74.6380614,100.875111 76.8736851,103.322282 C72.1010753,99.0740938 67.0835544,94.775351 62.1474337,90.3841876 C61.1821584,89.5255449 60.1755119,88.7127176 59.2373174,87.8240579 C58.9523772,87.5531155 58.6112227,87.4093501 58.2676997,87.2561057" id="path16" fill="#98591D"></path>
                        <path d="M117.187864,147.77817 C111.579067,148.124155 106.455828,150.331981 101.191264,151.986072 C98.9584829,152.688311 96.6901728,153.118817 94.3531739,153.224666 C92.7851739,153.294969 91.277178,153.062733 89.8386604,152.432377 C89.3080985,152.200141 89.1115063,152.197771 89.2244086,152.907119 C89.4944268,154.599917 90.7308255,155.541501 91.8906402,156.555758 C92.0990752,156.738229 92.3438285,156.878045 92.6075304,157.062096 C91.9032726,157.161626 90.9653149,156.918331 89.8331337,156.412782 C88.3969847,155.771367 87.192167,154.806086 86.1136736,153.697038 C81.8407553,149.301925 76.7034631,146.470853 70.7351153,145.153267 C65.4718147,143.992875 60.3044416,144.368087 55.256366,146.273373 C54.966136,146.383172 54.6999865,146.558534 54.4230995,146.70388 C54.5402653,146.943225 54.7715966,146.964553 54.9884006,146.969293 C58.3845496,147.047495 61.2290563,148.582309 63.9744774,150.373846 C64.7167903,150.858067 65.356149,151.467885 65.9862703,152.091132 C69.6871765,155.74925 73.3655023,159.435015 77.5586784,162.548878 C78.0919247,162.944628 78.6384351,163.3151 79.2526868,163.578933 C79.8408842,163.832498 80.3130212,163.60737 80.6951521,163.187133 C81.1080745,162.732139 80.7243645,162.352188 80.470137,162.017262 C78.471845,159.38288 76.6510386,156.584195 73.8194801,154.707346 C73.7421065,154.656791 73.6869186,154.577799 73.6816288,154.422185 C74.2725895,153.965611 74.7601222,154.193898 75.3344239,154.588858 C78.3179662,156.641069 80.4961913,159.47846 82.8039778,162.188675 C83.3384873,162.815081 83.9093151,163.399622 84.4990915,163.969154 C85.0114944,164.462853 85.6044289,164.737745 86.3363201,164.841225 C90.8903099,165.485799 95.1355948,167.037202 99.1195464,169.320069 C100.270676,169.979652 101.469178,170.547605 102.668469,171.110027 C103.043494,171.286179 103.464312,171.561072 103.90013,171.195339 C102.823216,170.227687 101.822096,169.203951 100.979671,168.008013 C97.125202,162.540189 100.361472,153.953762 107.546954,153.138565 C110.803752,152.768883 113.478668,153.772081 115.885935,155.809284 C117.274712,156.984684 118.335836,158.440506 119.205105,160.020345 C119.779091,161.065409 120.617568,161.689446 121.717379,162.011733 C124.671787,162.879854 127.50382,162.486474 130.211107,161.100165 C130.834833,160.781038 131.599094,160.600146 131.905431,159.834714 C133.269733,158.755684 133.57528,157.212181 133.697656,155.617333 C133.834244,153.840014 133.299735,152.176443 132.65785,150.554738 C132.43994,150.005744 132.496786,149.796415 133.127618,149.875407 C136.569954,150.303544 139.775433,149.393556 142.854587,148.004087 C147.804129,145.770984 151.850453,142.336414 155.465696,138.333891 C157.44425,136.141864 159.197789,133.810811 160.585776,131.195387 C162.59828,127.401403 163.993374,123.390981 164.980282,119.221785 C166.014562,114.851159 166.323267,110.41497 166.093514,105.950344 C165.804548,100.330856 165.28425,94.7311155 163.474655,89.3493928 C162.276943,85.7852753 160.82974,82.3119985 159.534127,78.7833484 C157.335295,72.7935456 155.030667,66.8383413 153.234494,60.7108555 C152.078627,56.7652857 151.148564,52.760472 151.157249,48.6133938 C151.161197,46.2948216 151.435162,44.0087151 152.582345,41.9203255 C152.733144,41.6460654 152.879207,41.3563229 152.79078,41.0196591 C149.740049,40.2975936 146.797483,39.2685652 144.064931,37.7241933 C143.204347,37.2385507 142.969857,37.5125738 142.688786,38.3126834 C141.909523,40.5309358 142.023215,42.8238356 142.24823,45.062468 C142.732999,49.8692081 143.88334,54.5520098 145.548452,59.0875706 C148.123098,66.0996084 150.461676,73.192534 152.754461,80.2984933 C154.552214,85.8690068 156.403654,91.4292513 157.752165,97.1356309 C158.566957,100.58284 158.987774,104.083764 158.817237,107.624184 C158.526691,113.672599 157.219235,119.46745 153.583464,124.436044 C149.140798,130.505787 143.655956,135.356684 136.368625,137.771468 C132.563896,139.03218 128.665213,139.284164 124.743634,138.228832 C124.662313,138.207504 124.588887,138.161688 124.311763,138.038461 C125.770019,137.598476 126.951151,136.96654 128.022539,136.147393 C130.742458,134.066745 132.394148,131.269639 133.152883,127.988313 C134.546397,121.965176 133.418164,116.487083 129.03787,111.974272 C126.216891,109.066577 122.572436,107.697647 118.599538,107.124955 C116.649407,106.843744 114.696908,106.917206 112.745198,106.964601 C111.942249,106.984349 111.279836,106.77897 110.626108,106.340565 C107.347204,104.143008 104.296473,101.653181 101.279691,99.1199091 C98.8897941,97.1135132 96.533057,95.069991 94.3152766,92.8700647 C92.5167348,91.0864261 91.0845335,89.0737108 90.4529121,86.5854639 C89.6562797,83.4463232 87.7645738,81.1160602 85.3225679,79.0741178 C83.2153212,77.3109382 81.1317603,75.5407282 78.7661016,74.1292997 C77.729532,73.5115826 76.6309846,73.0437921 75.4667486,72.7334327 C75.0417464,72.6204742 74.6075067,72.5263158 74.1852678,72.7611589 C75.6372863,74.293524 76.156637,76.1886993 76.1677693,78.2217945 C76.1819018,80.7408483 76.9914825,82.9241863 78.4049721,85.0032548 C81.656006,89.7854285 84.8772748,94.607888 88.7333231,98.9129501 C92.7796472,103.430501 97.1923118,107.606016 102.410294,110.80756 C102.879272,111.094301 103.00007,111.243596 102.544513,111.675682 C100.024344,114.05729 99.1274416,117.130077 98.9182171,120.468278 C98.6466199,124.77413 99.805645,128.641577 102.470298,132.061139 C105.570769,136.040754 109.665254,138.194865 114.618744,138.83865 C115.654603,138.972936 116.680988,139.099323 117.615788,138.900263 C113.464456,139.454787 109.280755,139.479274 105.329963,137.440492 C102.891905,136.18057 100.857295,134.427738 99.4029864,132.122753 C97.583917,129.241126 94.7408315,128.350886 91.795897,127.682614 C94.1913209,126.919552 95.7127388,125.238603 96.1856653,122.616069 C96.7454397,119.507736 96.8559734,116.41599 95.9914417,113.338463 C95.7087912,112.331315 95.3456089,111.354975 94.8908415,110.41655 C94.7621487,110.150347 94.6910913,109.72774 94.2110591,109.836749 C94.7100399,111.460034 95.1963884,113.089638 95.2974478,114.795865 C95.4853551,117.982401 94.6705636,120.667338 91.19033,121.63183 C89.2133553,122.179244 87.4156031,121.808772 85.7631237,120.563858 C81.7902255,117.568483 77.7526651,114.659209 73.8220066,111.610909 C71.4049497,109.736429 68.7690359,108.734811 65.7222525,108.410944 C61.9498152,108.010455 58.1492707,107.770319 54.4205731,106.970921 C52.7301965,106.608347 51.3179701,105.79552 50.0266993,104.700692 C48.0473559,103.023692 46.2965016,101.101818 44.7131058,99.0788333 C42.3596847,96.0708192 39.2928474,94.6252662 35.6369441,94.0359862 C32.2599017,93.4917315 28.8673846,93.3479661 25.4702882,93.5075299 C22.7760284,93.634707 20.2300418,94.5178371 17.7572443,95.5565815 C15.9542812,96.3133245 14.2182699,97.2090934 12.6327425,98.3726451 C12.3252218,98.5985621 12.022991,98.8173699 11.8142402,99.1420268 C11.9431699,99.3229185 12.13313,99.327658 12.3243534,99.3102797 C12.5442365,99.2897418 12.7610406,99.2455063 12.982187,99.2265483 C15.8503795,98.992732 17.0500652,99.9374759 17.0877257,102.770918 C17.1009897,103.72751 17.4053522,104.624859 17.9651266,105.433737 C20.0685046,108.474138 22.2843902,111.430017 24.6202838,114.295056 C25.5103172,115.386725 26.621576,116.083434 28.019275,116.374914 C29.6569112,116.716949 31.2541237,117.246196 32.9044713,117.528987 C35.1154618,117.906568 36.9717179,119.017195 38.7922874,120.231302 C45.5710845,124.751222 52.394016,129.205579 59.1886036,133.702592 C62.2692577,135.741375 65.3755714,137.742241 68.4652261,139.768385 C69.0194738,140.132538 69.5930649,140.463514 70.2253179,140.678372 C70.6268711,141.044895 70.8449384,140.731297 71.0308719,140.436657 C71.2960739,140.01563 71.5576441,139.585914 71.7673424,139.134869 C72.4356767,137.698006 73.6464948,137.033683 75.1151723,136.717715 C76.2815401,138.446849 78.1576134,138.498194 79.2132105,136.828304 C80.2893354,135.361423 81.8897059,134.769773 83.5295528,134.255536 C84.0522194,134.091232 84.5969928,133.995652 85.1315024,133.868475 C87.7385195,133.357397 90.3179031,133.449818 92.8672847,134.223149 C94.4115988,134.692361 95.5516754,135.708198 96.5662171,136.905716 C97.3810086,137.867838 98.1958002,138.827591 99.0682271,139.741528 C101.642874,142.440683 104.803349,143.242452 108.396485,142.728214 C108.859147,142.661861 109.314704,142.515726 109.868952,142.5726 C109.699993,142.96045 109.362076,143.078148 109.07074,143.207695 C106.695055,144.255129 104.254628,144.879165 101.635768,144.310423 C101.347591,144.248019 100.995462,144.078187 100.783869,144.447079 C100.609383,144.749618 100.705705,145.070326 100.873875,145.346798 C101.489705,146.361054 102.388976,146.924267 103.582741,146.99852 C104.691236,147.067243 105.782362,146.935326 106.875067,146.748905 C108.896255,146.4045 110.928497,146.165154 112.989161,146.248096 C114.203453,146.297861 115.361689,146.543526 116.441761,147.113848 C116.74494,147.274202 117.082068,147.396639 117.187864,147.77817" id="path18" fill="#105F33"></path>
                        <path d="M126.043195,24.7127946 C120.149379,19.5298157 112.252533,15.7234299 103.978293,14.1055954 C104.176465,15.7675074 104.81835,17.2606925 105.409705,18.7581432 C106.370559,21.1920437 107.145085,23.6692317 107.740388,26.2262807 C108.249633,28.4111985 107.434052,29.8148067 105.739727,30.9562406 C105.558136,31.0786782 105.38523,31.2129645 105.023627,31.4758498 C106.067381,31.4758498 106.922438,31.4594984 107.775917,31.4798784 C109.362865,31.5177945 109.97238,32.0028842 110.40662,33.509261 C111.582225,37.5828767 113.00811,41.5513541 115.356162,45.1225808 C116.013048,46.1232511 116.752045,47.0696538 117.399457,48.0761695 C118.461371,49.7294713 118.339784,51.5650866 117.088384,53.0739912 C118.282938,52.8613448 119.436436,52.7888302 120.582039,53.0961879 C121.122865,53.2405852 121.54842,53.4766132 121.752118,54.068421 C123.286958,58.5204082 125.857656,62.2740275 129.366313,65.4108774 C130.459018,66.3865862 131.07327,67.6590678 131.182224,69.1472764 C131.236702,69.9007808 131.062216,70.5802697 130.459018,71.216787 C131.710418,71.4396233 132.89076,71.2319534 134.060049,71.4152148 C135.296448,71.609298 135.945439,72.2239345 136.323622,73.3557314 C137.289213,76.2550525 138.132428,79.2052445 139.683058,81.874383 C140.633648,83.5095167 141.58108,85.1478101 142.516669,86.7924229 C142.734579,87.1755339 142.928802,87.5768131 143.084339,87.9883612 C143.801229,89.8738995 143.476734,90.6393316 141.627662,91.500344 C141.516339,91.5524787 141.41449,91.6251513 141.234478,91.7325804 C141.629241,92.0406491 142.065849,92.0438088 142.456665,92.159137 C144.008875,92.6165005 145.11816,93.4316976 145.447392,95.1805797 C145.919529,97.6941041 146.078224,100.236856 145.512133,102.691926 C144.792085,105.816848 144.223626,108.971787 143.485418,112.09039 C143.237507,113.136244 142.811163,114.121273 142.073745,114.94437 C141.49818,115.584205 140.805765,115.994963 139.945181,116.032089 C139.476202,116.053417 139.338824,116.155317 139.508573,116.639537 C140.383368,119.134893 140.650228,121.72662 140.672335,124.353103 C141.021306,124.666701 141.330011,124.398128 141.622135,124.261472 C146.915912,121.796923 150.411936,117.79282 151.880455,112.110928 C152.92342,108.076018 152.868153,103.996083 152.226268,99.89798 C151.387001,94.5312658 149.665833,89.4236452 147.737019,84.3760586 C144.837088,76.7873004 141.393173,69.4410476 137.613709,62.2613888 C134.64272,56.615043 131.750684,50.9386803 129.401842,45.0040929 C127.925427,41.2742502 126.584811,37.4863485 125.923977,33.5139215 C125.507107,31.0129569 125.562373,28.4901904 126.032931,25.9852762 C126.111095,25.5696205 126.350321,25.1376134 126.043195,24.7127946" id="path20" fill="#105F33"></path>
                        <path d="M188.167891,86.6794643 C182.510142,90.6124743 176.505003,88.5405151 173.477957,83.7591314 C172.62369,82.4107385 172.353671,80.8751347 172.342618,79.2921357 C171.910747,78.393997 172.116024,77.4506749 172.2234,76.5432152 C172.608689,73.27121 173.878247,70.2942398 175.332556,67.371537 C176.838183,64.3454338 178.905164,61.6541775 180.425792,58.6398441 C181.275323,56.9562883 181.566658,55.1823657 181.445861,53.3220259 C181.427701,53.045554 181.451387,52.7428568 181.153736,52.5716023 C177.750086,54.5288652 174.253273,55.1743085 170.523549,53.4639745 C167.747573,52.1914929 165.281881,50.5761862 163.64914,47.7571209 C162.902248,48.8984758 162.673285,50.1006546 162.46485,51.2901946 C161.850598,54.796648 162.020346,58.3056291 162.41432,61.8278809 C163.224375,69.0571466 164.910804,76.0849828 167.405708,82.8949592 C168.798433,86.6976325 169.947194,90.5326925 170.514864,94.5328456 C170.806199,96.5850569 170.960946,98.6570162 171.169381,100.721076 C171.443347,103.425761 171.433083,106.142295 171.336761,108.850929 C171.056479,116.717739 169.73797,124.37996 166.229313,131.508985 C164.288657,135.453054 161.815859,139.062987 158.84566,142.331674 C154.736173,146.854754 149.792157,150.098164 144.081511,152.20962 C144.248101,152.745975 144.75024,152.745185 145.157636,152.836026 C148.4697,153.576971 151.803082,153.741274 155.202784,153.520886 C160.509192,153.177271 165.376624,151.511331 170.052201,149.117084 C171.098324,148.580729 172.029965,147.88007 172.911867,147.113058 C173.237941,146.830267 173.598755,146.523778 173.417164,145.993742 C171.976278,146.001641 170.534602,146.064835 169.123718,145.633538 C168.267081,145.372075 167.490187,144.971586 166.823037,144.392575 C165.634799,143.36015 165.551899,142.37433 166.420379,140.40901 C167.654409,138.412883 169.488479,137.022624 171.274388,135.578651 C174.579347,132.907143 177.866936,130.212727 180.785027,127.108343 C182.082219,125.728353 183.274404,124.257522 184.067879,122.518909 C184.222626,122.178454 184.63318,121.782704 184.162622,121.360097 C182.16433,122.071025 180.17867,122.11447 178.231697,121.191844 C175.750215,120.016444 174.480656,117.410499 175.045168,114.709764 C175.083065,114.529662 175.080697,114.341661 175.097277,114.15682 C174.976479,112.238895 175.720213,110.51371 176.395258,108.802744 C177.686135,105.533267 179.899967,102.85228 182.131959,100.19341 C183.84918,98.1483079 185.873526,96.3465012 187.163613,93.9609438 C188.281582,91.894514 188.895834,89.7119659 188.472648,87.3335178 C188.430013,87.0918024 188.432382,86.82007 188.167891,86.6794643" id="path22" fill="#105F33"></path>
                        <path d="M60.7105741,86.0988734 C60.9850925,85.8121326 60.6396746,85.7252414 60.5264565,85.6004341 C57.2770805,82.0299972 54.0011765,78.4831789 50.7678279,74.8979706 C47.978825,71.8052771 45.1513721,68.7437065 42.617781,65.4281767 C42.0599015,64.6984489 41.5439458,63.950474 41.3070878,63.0411185 C40.9566959,61.6967542 41.8748364,60.6997966 43.2456916,60.9990971 C43.8893927,61.1407297 44.5006442,61.4202823 45.1374764,61.5980142 C48.2505801,62.465978 51.148064,62.2598879 53.5351189,59.7898091 C54.2682734,59.0307753 54.7663068,58.1278972 54.8400486,56.8306911 C54.5711358,57.2469787 54.4193888,57.5077312 54.2429296,57.7502366 C53.464851,58.8141794 52.3551713,59.1871794 51.0709272,58.8246063 C47.8129454,57.9057717 46.5333596,54.2106856 48.5460209,51.4860947 C49.0511601,50.8020242 49.6353309,50.1756179 50.1685772,49.5112955 C51.8934561,47.3621611 52.0594146,45.1880652 50.6885595,42.672329 C50.6237393,43.341312 50.744379,43.9994731 50.5497607,44.6477601 C49.695177,47.4954995 46.010614,48.3217555 43.6725097,46.1510562 C42.8009512,45.3413886 41.922287,44.6264323 40.6865198,44.462287 C39.9093098,44.3586495 39.1823926,44.5348016 38.4490013,44.7023436 C37.513649,44.9155429 36.5868237,45.0435889 35.6610247,44.6746174 C34.8116519,44.3366898 34.3749647,43.6011166 34.613007,42.9108058 C34.8887887,42.1113281 35.7544257,41.7463062 36.6340374,42.1073785 C37.0664611,42.2844785 37.4609086,42.554473 37.913939,42.8055885 C37.9987342,42.3532805 37.7220841,42.0246739 37.5348873,41.6926707 C34.9960853,37.2021354 30.9910534,34.6410579 26.1259111,33.4703969 C19.499177,31.8772869 13.5696738,33.3077525 8.6067881,38.1506709 C7.0301823,39.6894344 6.35229471,41.6707109 6.18668359,43.7701594 C5.74473025,49.3644494 7.36480739,54.1789308 11.8799288,57.7826233 C12.1103127,57.9658846 12.3243534,58.2321665 12.696852,58.1840604 C12.8202551,57.8378387 12.551895,57.5860913 12.491812,57.2913722 C12.3918579,56.8047817 12.4754688,56.4002639 12.8807328,56.1157348 C13.2803912,55.8371301 13.7087884,55.8701488 14.1273165,56.113602 C15.1848085,56.7288704 15.5033825,58.4352549 14.6145334,59.3213868 C12.9568432,60.9756365 13.0278216,62.7677273 13.9798329,64.6968691 C14.0356524,64.8088797 14.0899719,64.923339 14.1482389,65.0347967 C14.9374498,66.555392 14.9173958,66.6676396 13.6569954,67.7315824 C15.5484645,67.5341025 16.5612693,66.2868984 16.261486,64.4802731 C16.1920866,64.0624846 16.1791384,63.6832442 16.6266421,63.5443763 C17.0827516,63.4021907 17.3116354,63.7505453 17.4673301,64.1201487 C17.7211629,64.7212776 17.732611,65.3611915 17.661001,65.9866499 C17.355691,68.6621868 18.6359085,70.3716519 20.9316941,71.4948387 C23.3043007,72.6559416 25.7755981,72.8993948 28.3535606,72.2609818 C27.9908521,72.1986571 27.6294068,72.1258265 27.2651981,72.0746397 C25.0983422,71.7697307 23.6235064,70.2411572 23.6084264,68.2783648 C23.5932675,66.3279742 24.9477794,64.8909523 27.1387159,64.4725319 C28.7363231,64.1677019 30.2108432,64.4564965 31.588804,65.2837794 C34.4921305,67.027764 37.1879693,69.0704173 39.7594576,71.2572308 C44.7562929,75.5077096 49.6797023,79.8442895 54.6331136,84.1454021 C56.7432026,84.5324627 58.7762338,85.1628186 60.7105741,86.0988734" id="path24" fill="#FFF201"></path>
                        <path d="M101.259164,20.4653966 C100.359893,17.4531959 99.4898344,14.4327011 98.8692664,11.346485 C98.621355,10.1109717 98.3781808,8.87490539 98.1144789,7.64154852 C97.7536652,5.95432752 96.916767,5.23784669 95.1782292,5.13201325 C92.801754,4.98760014 90.5626563,5.67076216 88.3346121,6.34373422 C86.9529404,6.76245483 85.5989022,7.2799154 84.2559173,7.81156293 C79.9000987,9.53519923 77.0343538,12.8519139 74.8215474,16.8166787 C74.1334749,18.0506122 74.3172767,18.721096 75.2656561,19.4724676 C78.9850373,22.4123906 81.8249647,26.0689287 84.0159012,30.2514743 C84.5551479,31.2817665 85.088868,32.3141915 85.6257461,33.3457476 C86.2549989,33.1149331 86.9047793,33.0226705 87.5719293,33.0738573 C88.3732989,33.13555 89.058608,32.8844345 89.6468054,32.3462623 C89.7628658,32.240413 89.8978749,32.1537588 90.0107772,32.0454608 C91.6853633,30.4326029 93.6765495,29.6426832 95.9985474,29.3707929 C99.0121707,29.0193576 99.7219552,28.681193 100.156984,24.7639814 C100.24778,23.9447557 100.087506,23.1320074 100.010132,22.3176792 C99.8861768,21.0078344 100.044082,20.805773 101.259164,20.4653966" id="path26" fill="#FFF201"></path>
                        <path d="M152.79078,41.0196591 C150.901442,44.0009739 150.711166,47.3100264 150.981974,50.6884338 C151.511746,57.2984815 153.711368,63.4836315 155.933885,69.6502183 C158.187194,75.9001416 160.548669,82.110569 162.851718,88.3438251 C164.348661,92.3961129 165.064761,96.6174436 165.457156,100.897228 C165.771388,104.32311 166.08483,107.76558 165.836129,111.20015 C164.711053,126.765517 158.148508,139.115911 144.295473,147.012738 C140.755235,149.030983 136.91103,150.059458 132.772331,149.601305 C132.585213,149.579977 132.394937,149.572868 132.20624,149.570498 C132.148605,149.569708 132.09097,149.605255 131.980436,149.641591 C133.530277,153.047724 134.340331,156.461757 131.905431,159.834714 C133.219993,159.254913 133.911618,158.089782 134.568504,156.919911 C135.269604,155.670258 135.607521,154.289478 135.854643,152.885791 C135.905962,152.591151 135.886224,152.30046 136.356782,152.240427 C143.529632,151.32333 149.382393,147.816086 154.568794,142.9644 C162.395372,135.643425 166.946993,126.684946 168.150231,116.034459 C168.873438,109.644799 168.996604,103.248029 168.108387,96.8631086 C167.283331,90.9323918 165.471367,85.2639283 163.510183,79.6270616 C161.024753,72.4853189 158.681438,65.2923895 157.422143,57.8063999 C156.765257,53.9003261 156.356282,49.9812187 157.279239,46.0513684 C157.490042,45.1574953 157.807432,44.304935 158.216407,43.4804169 C158.624592,42.6566096 159.180419,41.9422853 159.969156,41.0662644 C157.416616,41.5488263 155.094618,41.581213 152.79078,41.0196591" id="path28" fill="#FFF201"></path>
                        <path d="M126.043195,24.7127946 C125.049181,28.6928838 125.258406,32.6379006 126.316371,36.5797577 C128.056488,43.0642082 130.676138,49.2008571 133.67397,55.1789691 C137.417116,62.6430779 141.422385,69.9766921 144.708395,77.6657701 C147.583851,84.3958066 150.317193,91.1796367 151.70597,98.4050318 C152.7063,103.608233 152.897366,108.805904 151.051452,113.896146 C149.245015,118.87738 145.71741,122.206891 140.949459,124.323086 C140.868137,124.358632 140.764709,124.344414 140.672335,124.353103 C140.557853,124.492919 140.339155,124.636684 140.343102,124.77334 C140.389684,126.44876 139.711481,127.881674 138.730099,129.365143 C140.312311,129.181882 141.583449,128.629728 142.746421,127.893523 C148.764983,124.08374 152.572081,118.705967 154.121922,111.730187 C155.349636,106.203909 154.796967,100.769261 153.47451,95.3433032 C151.040399,85.355559 147.024866,75.9538562 142.852218,66.6140041 C139.875702,59.9502418 136.697858,53.3732917 134.190321,46.5055722 C132.260718,41.218087 131.098534,35.7969473 131.347235,30.1323544 C131.374079,29.5192188 131.224859,29.0714923 130.724299,28.6669745 C129.134982,27.3849348 127.695675,25.9235835 126.043195,24.7127946" id="path30" fill="#D3D2D3"></path>
                        <path d="M113.210229,46.8483973 C112.013306,44.9621482 110.675848,43.1629482 109.712626,41.1319857 C109.144166,39.9335196 108.663345,38.710724 108.398064,37.402696 C107.885661,34.8647631 106.166861,33.6403876 103.558265,33.8440289 C99.7922231,34.138116 96.4477881,35.6553147 93.1625677,37.3545899 C91.9301165,37.992687 90.7063502,38.6563775 89.7297057,39.673715 C88.7854318,40.657086 88.8462254,41.2637443 89.98946,42.0196974 C92.4519937,43.6501706 94.1471074,45.9307477 95.570624,48.4625192 C96.7580721,50.5730265 97.7899835,52.7727948 99.1653389,54.7769 C99.9769723,54.7170241 100.791764,54.697908 101.602608,54.6522506 C102.589516,54.5960874 103.468259,54.1758501 104.039087,53.370211 C104.955727,52.0738739 106.233182,51.7659632 107.68749,51.836898 C109.300493,51.9165219 110.570052,51.2886147 111.526958,50.0105247 C111.868823,49.5548201 112.112787,49.034263 112.319643,48.5065967 C112.551764,47.9151048 112.850994,47.3673745 113.210229,46.8483973" id="path32" fill="#FFF201"></path>
                        <path d="M103.319039,158.123748 C100.843083,161.382167 101.447861,165.992138 104.80177,168.884824 C107.467212,171.18349 110.671901,172.510555 113.940541,173.668577 C117.881858,175.065155 121.93134,176.203429 125.536319,178.400196 C131.457769,182.008549 137.321584,185.710113 142.252178,190.670018 C143.228033,191.651888 144.109144,192.726969 145.03447,193.759394 C145.591876,193.655914 145.20106,193.30756 145.157636,193.122719 C144.638127,190.908574 143.33304,189.118616 141.917418,187.422658 C137.871094,182.574131 133.018663,178.606365 127.973588,174.862936 C123.943844,171.87388 119.790144,169.067295 115.372742,166.674629 C114.677169,166.297837 114.318724,165.801767 114.088182,165.049764 C112.801254,160.845811 108.97126,157.666385 104.313842,157.892302 C103.964082,157.90889 103.619059,157.90968 103.319039,158.123748" id="path34" fill="#FFFFFF"></path>
                        <path d="M94.2110591,109.836749 C95.3590308,111.390521 95.7332665,113.230244 96.1225031,115.060488 C96.6838566,117.706719 96.3285696,120.340311 95.8738022,122.949416 C95.5311477,124.917105 94.3160661,126.286036 92.5191034,127.12888 C92.0651256,127.342159 91.5898305,127.505672 91.0513734,127.72132 C91.6379917,128.099692 92.2838245,127.991473 92.8593894,128.148667 C95.51062,128.869863 97.7260318,130.051583 99.3706158,132.460048 C102.954277,137.707485 108.166732,139.751797 114.403993,139.443728 C115.47617,139.390013 116.54361,139.298383 117.592102,139.070096 C117.851067,139.014012 118.166877,139.088264 118.464529,138.73675 C116.684146,138.815742 115.00956,138.681456 113.342869,138.408933 C102.601359,136.648202 96.0948697,124.812836 100.468058,114.977546 C101.149419,113.445892 102.158435,112.182811 103.58353,111.154335 C99.7093228,109.159788 96.593061,106.269472 93.4696935,103.388635 C86.9126746,97.3402201 81.9718167,90.0295136 77.247447,82.5521341 C76.7463344,81.7590548 76.565296,80.9027819 76.553532,79.9493488 C76.5298462,77.932052 76.4085749,75.9112795 75.4688803,74.0540204 C75.1814136,73.4863051 74.8761037,72.9293328 74.1846362,72.7611589 C73.4401915,72.9602186 73.3711079,73.5637173 73.3618705,74.1805655 C73.3174201,77.105717 74.1226584,79.8442895 75.2119683,82.5205373 C76.7521769,86.3026727 79.2953213,89.4568219 81.6149506,92.7499969 C84.9238569,97.4476492 88.7191116,101.77009 92.1527631,106.372162 C92.9588698,107.451982 93.7515546,108.5476 94.2110591,109.836749" id="path36" fill="#D3D2D3"></path>
                        <path d="M125.658696,65.9527623 C123.379332,63.9535547 121.68106,61.5140458 120.157274,58.9107075 C118.098978,55.3915365 116.637564,54.8442011 112.715196,55.9238633 C110.090019,56.6467978 107.584062,57.6560781 105.311804,59.1878114 C104.893355,59.4692597 104.478064,59.7605031 104.194624,60.1959068 C103.801439,60.8016172 103.778543,61.3277037 104.53491,61.6556784 C107.369311,62.8822656 109.30523,65.1035987 111.07377,67.5214638 C112.282535,69.1731858 113.427349,70.8786224 114.84218,72.3708596 C116.212009,71.3186076 117.783167,71.6630126 119.302217,71.767282 C120.311232,71.8370319 121.100758,71.5429448 121.687377,70.7261679 C122.221886,69.9828535 122.960094,69.5033722 123.767779,69.1306091 C124.568359,68.7609267 125.044444,68.1817576 124.970228,67.2860677 C124.918909,66.6645589 125.203928,66.280737 125.658696,65.9527623" id="path38" fill="#FFF201"></path>
                        <path d="M70.2253179,140.678372 C67.9442964,139.167256 65.6670646,137.6514 63.3813849,136.147393 C54.7937823,130.496308 46.1792569,124.886299 37.6323938,119.175179 C35.5243576,117.766753 33.1342235,117.447625 30.8134099,116.799891 C30.6619787,116.758025 30.5035207,116.741437 30.351142,116.702731 C25.1908747,115.380405 26.3593742,116.071585 23.0671269,111.956894 C21.4325699,109.914161 19.9759721,107.730033 18.3987347,105.640696 C17.7239262,104.745717 17.3384004,103.771746 17.3446376,102.670598 C17.3600334,100.034636 16.0033108,98.2675858 12.2753238,99.1096401 C12.1266559,99.1436067 11.9678031,99.1325478 11.8139244,99.1420268 C11.4700066,99.5038101 11.0145286,99.7723827 10.863729,100.29373 C12.0886797,100.762942 12.7641197,101.796157 13.450929,102.818313 C16.1612161,106.857172 18.7808656,110.956855 21.7070883,114.84721 C22.1437755,115.427801 22.6310713,115.969685 23.0634161,116.551066 C24.5635168,118.565361 26.7945613,119.138053 29.0616871,119.638862 C29.8940851,119.822914 30.7175614,120.05436 31.5606969,120.179957 C34.1729248,120.568598 36.3271483,121.950957 38.4910041,123.324627 C45.5297922,127.793203 52.5115765,132.34314 59.1753395,137.365449 C60.435503,138.315723 61.588054,139.399492 62.885799,140.300791 C65.347859,140.120689 67.7824434,140.483262 70.2253179,140.678372" id="path40" fill="#D3D2D3"></path>
                        <path d="M138.448238,85.0869863 C136.803654,82.1461154 135.537253,79.0196134 134.018204,76.0202094 C132.864706,73.7454778 131.508299,73.0494006 128.923389,73.5282499 C126.038458,74.0635784 123.30038,74.8803554 120.860742,76.5605145 C119.704875,77.3569115 119.574603,78.2208466 120.685467,78.9429122 C124.438877,81.3838429 126.262684,84.9866665 127.075107,89.2356444 C128.617052,88.5973893 130.174788,88.7245663 131.755421,89.0871395 C132.731276,89.3114767 133.715815,89.5121163 134.712198,89.0713411 C135.536464,88.7071881 136.144399,88.1826815 136.397837,87.2971815 C136.432577,87.1763238 136.479159,87.0586258 136.50995,86.9369782 C136.772073,85.9164019 137.342901,85.2228525 138.448238,85.0869863" id="path42" fill="#FFF201"></path>
                        <path d="M103.319039,158.123748 C105.770519,157.979983 108.109887,158.333867 110.132654,159.840244 C111.922511,161.173628 113.236283,162.901972 113.852903,165.059243 C114.093709,165.904457 114.424521,166.438443 115.240102,166.880798 C120.341234,169.643937 125.090237,172.95133 129.707388,176.455414 C132.793648,178.797526 135.767006,181.282613 138.505874,184.013365 C140.841294,186.340468 143.130921,188.758412 144.518909,191.83436 C144.792875,192.441018 145.185269,193.032668 145.03447,193.759394 C145.101579,193.862083 145.177374,194.058773 145.23343,194.052454 C145.539767,194.020067 145.377124,193.777562 145.362913,193.634587 C145.128423,191.289315 144.447851,189.086229 143.290405,187.022959 C141.005515,182.951713 137.788194,179.671967 134.409809,176.536775 C130.360327,172.779128 125.846603,169.595751 121.486047,166.225164 C119.940944,165.030806 118.691912,163.61527 117.741322,161.907463 C116.759151,160.141203 115.649077,158.457094 114.083445,157.133189 C111.362736,154.834523 108.124098,154.418235 105.43576,156.030461 C104.564912,156.553388 103.806177,157.205072 103.319039,158.123748" id="path44" fill="#D3D2D3"></path>
                        <path d="M103.90013,171.195339 C103.139027,171.222196 102.517669,170.823287 101.881311,170.501789 C98.9071637,168.998572 96.045919,167.264698 92.8664952,166.182509 C90.7742495,165.470791 88.6409484,164.916267 86.4547491,164.623997 C85.609166,164.511039 84.9514903,164.191911 84.4122436,163.586833 C82.691865,161.657059 80.9785921,159.721756 79.2779517,157.775394 C78.0218937,156.34011 76.528583,155.182877 75.0087441,154.052502 C74.2376924,153.47981 73.7032618,154.255512 72.7582773,154.341613 C76.238353,156.310883 78.1495602,159.408947 80.3461813,162.23844 C80.5048761,162.443029 80.9762236,162.687114 80.603567,163.003082 C80.2609124,163.293772 79.9269426,163.741657 79.2984794,163.383033 C77.4213797,162.313482 75.7880859,160.929543 74.1679772,159.525856 C71.3531567,157.085794 68.7507979,154.421395 66.0840137,151.824929 C63.374595,149.185807 60.0817161,147.594909 56.4008638,146.812099 C55.7630842,146.676232 55.0833807,146.734686 54.4230995,146.70388 C53.9345404,147.012738 53.2474154,146.956654 52.9026291,147.530136 C56.0754999,147.575161 58.850923,148.741872 61.3949358,150.553158 C63.0618635,151.738828 64.2714973,153.379491 65.6093502,154.883498 C68.8405671,158.515548 72.1538157,162.060708 75.7532678,165.338874 C77.5784166,167.000865 79.7216657,167.529322 82.0831399,167.677826 C84.8156917,167.850029 87.5616655,167.889525 90.271321,168.370586 C93.0867731,168.869815 95.7782695,169.741097 98.3497579,170.98759 C99.2016571,171.400718 100.040134,171.840703 100.893613,172.250671 C102.339236,172.945801 103.862233,173.281517 105.46892,173.215163 C105.68604,172.512925 105.249431,172.102956 104.776505,171.733274 C104.508855,171.523155 104.193834,171.373071 103.90013,171.195339" id="path46" fill="#D3D2D3"></path>
                        <path d="M130.788251,100.899598 C130.785092,100.931195 130.775618,100.962792 130.777987,100.993599 C130.880625,102.217974 130.52218,103.510283 130.966684,104.656456 C131.434873,105.865033 132.882075,106.049084 133.821612,106.800298 C136.205193,108.706374 138.46166,110.697762 139.617527,113.629943 C139.777801,114.037542 139.972814,113.972769 140.257833,113.810835 C140.874454,113.460901 141.051308,112.830545 141.183948,112.227046 C141.379751,111.337597 141.486337,110.427609 141.601608,109.522361 C141.822675,107.801126 142.16454,106.138345 142.853008,104.508741 C144.013612,101.76298 144.010454,98.8631852 143.471207,95.9594405 C143.295932,95.010747 142.685628,94.3930298 141.857414,93.9972801 C138.239803,92.2705157 134.536134,91.7823454 130.725878,93.3408569 C130.237161,93.5414964 129.775288,93.8377163 129.345785,94.1513144 C128.051751,95.0944785 127.959376,95.7106158 128.849963,97.0763869 C131.688311,97.2280515 134.540081,97.7809953 137.320005,96.6269226 C138.308492,96.2169543 139.367247,95.9602305 140.456794,96.1039958 C141.64819,96.2611898 141.960842,96.6782674 141.894522,97.8742058 C141.800568,99.5677935 141.31422,100.016468 139.622264,100.045695 C138.607723,100.063073 137.61055,99.9927703 136.636275,99.6902311 C135.390401,99.3047503 134.172162,99.4935411 133.073141,100.102569 C132.33967,100.509378 131.532774,100.58995 130.788251,100.899598" id="path48" fill="#FFF201"></path>
                        <path d="M117.187864,147.77817 C116.993641,146.872922 116.207272,146.642266 115.503804,146.40134 C113.671312,145.772564 111.765395,145.897372 109.883953,146.066414 C108.476227,146.192802 107.08587,146.50166 105.682882,146.690451 C104.358056,146.868973 103.03323,146.943225 101.851309,146.128028 C101.110733,145.61774 100.879401,145.151687 100.929931,144.421802 C104.147252,145.255167 107.131663,144.590055 109.976328,143.019694 C110.232134,142.879089 110.634003,142.67055 110.457939,142.322195 C110.301613,142.012547 109.877637,142.168161 109.593407,142.232144 C107.979615,142.597087 106.349242,142.760601 104.714132,142.505457 C102.452928,142.152363 100.58096,141.038576 99.0429623,139.358417 C98.4050247,138.661708 97.7284004,137.985536 97.1859956,137.216944 C95.1063823,134.268174 92.1046019,133.360557 88.7120058,133.300523 C87.4921871,133.278405 86.2644732,133.301313 85.1315024,133.868475 C86.8676715,133.795012 88.5912083,133.764206 90.2626362,134.399301 C93.5478567,135.647374 95.9180157,139.860806 95.2287589,143.288267 C95.0155867,144.349919 95.2374437,144.616122 96.3340963,144.685635 C96.9372947,144.723551 97.5002272,144.530021 98.0828979,144.386255 C98.0828979,144.503163 98.1018465,144.567937 98.0805293,144.612962 C96.9838767,146.930587 97.5894437,148.188929 100.074874,148.899066 C102.144223,149.489926 104.131462,148.999386 106.128964,148.549132 C108.984682,147.904557 111.805661,147.066453 114.77586,147.09726 C115.646708,147.106739 116.465447,147.260773 117.187864,147.77817" id="path50" fill="#D3D2D2"></path>
                        <path d="M101.259164,20.4653966 C100.108823,20.1327614 99.73064,20.382376 99.6990589,21.5552487 C99.6864265,22.0230392 99.7424829,22.4984918 99.8159089,22.9622536 C100.056715,24.4905902 99.8688072,25.9661601 99.34693,27.4142409 C98.9221647,28.5910632 97.8728838,28.7814338 96.8591315,29.0011895 C96.2156673,29.1409262 95.557202,29.2341368 94.9011054,29.2862715 C92.833335,29.4528655 91.2432283,30.5525917 89.8015526,31.906593 C88.9804449,32.6782655 88.0772264,32.9902838 86.9616252,32.8353805 C86.4642234,32.7659466 85.8507612,32.6070147 85.6257461,33.3457476 C85.8515507,34.1498068 86.2644732,34.8576538 86.821879,35.4649441 C87.9848518,36.7322122 89.8836634,36.9352215 91.2724408,35.8633006 C93.927619,33.8132221 96.9388737,32.6465107 100.205935,32.0574676 C100.925983,31.9278418 101.610503,31.6893651 102.209754,31.267548 C103.024545,30.6948562 103.452469,29.9404039 103.542475,28.8984209 C103.811703,25.7939576 102.687417,23.0949601 101.259164,20.4653966" id="path52" fill="#FFFA99"></path>
                        <path d="M79.2132105,136.828304 C78.8642397,137.036843 78.521822,137.25723 78.164956,137.45313 C76.9569802,138.114293 76.4798692,138.026612 75.5654394,136.96259 C75.4365097,136.812506 75.3399506,136.664001 75.1151723,136.716925 C73.7991893,138.396295 73.9616739,140.147546 74.8952102,141.919336 C74.5923478,142.015706 74.3129343,142.071791 74.0640755,142.191859 C73.592807,142.418565 73.3217625,142.820635 73.4277959,143.339612 C73.536119,143.868858 73.9508574,144.094775 74.483551,144.099514 C74.9245017,144.102674 75.3572412,144.091615 75.7911651,143.957329 C76.083211,143.866488 76.1976134,143.736941 76.2019558,143.435192 C76.2362213,140.99671 77.6117346,139.646737 79.8321994,138.990314 C80.8412145,138.795204 81.8320705,138.548749 82.8876676,138.649069 C84.9641228,138.848129 86.6055487,139.782604 87.8348417,141.439065 C88.8312244,142.781139 88.613315,144.759097 87.3824429,146.146196 C87.0682113,146.49929 86.6426564,146.739426 86.391587,147.150974 C87.8474741,149.237152 89.9957762,149.365119 92.2238205,149.15737 C93.0141366,149.083118 93.8415606,149.003336 94.6058224,148.504896 C93.5296976,148.477249 92.5230511,148.462241 91.6103582,147.948793 C90.4292263,147.28605 90.241319,146.488232 91.0276876,145.443168 C92.5048919,143.481007 92.2167147,140.450876 90.3668537,138.498984 C87.6414077,135.623677 84.3940845,134.963304 80.6998892,136.230335 C80.1953817,136.403327 79.7082437,136.627664 79.2132105,136.828304" id="path54" fill="#FFFFFF"></path>
                        <path d="M62.885799,140.300791 C61.4603086,138.632481 59.6542664,137.408105 57.9083861,136.130805 C50.7570114,130.899957 43.3653838,126.027732 35.8019552,121.413022 C33.8305861,120.209974 31.5674868,120.066209 29.4280275,119.471399 C28.5792863,119.235213 27.7259659,119.008506 26.8630132,118.833934 C25.0283112,118.462672 23.8643909,117.2067 22.7735019,115.82908 C19.4032495,111.572203 16.5436628,106.959072 13.4866945,102.484177 C13.1493298,101.989687 12.7977536,101.502307 12.4094643,101.048103 C12.0128061,100.58442 11.5406692,100.212368 10.863729,100.29373 C10.9167852,100.891699 11.3546567,101.289028 11.6532557,101.749552 C15.0318772,106.960652 18.4394743,112.150424 22.2877851,117.036867 C23.4986032,118.573261 24.9225146,119.606476 26.8851989,119.884527 C27.724071,120.003015 28.5383099,120.285017 29.3731554,120.441421 C32.2891932,120.989625 34.9457925,122.12316 37.451908,123.718797 C45.043128,128.552316 52.4094907,133.697062 59.0528839,139.780234 C60.4361346,141.046475 61.5710792,140.461145 62.885799,140.300791" id="path56" fill="#FFF201"></path>
                        <path d="M188.167891,86.6794643 C188.872148,90.6898865 187.35152,93.9609438 184.769768,96.8717977 C182.428032,99.5117093 180.021554,102.094747 178.084056,105.068004 C176.587113,107.365091 175.540991,109.839119 175.018324,112.525636 C174.914896,113.053302 174.689091,113.633103 175.097277,114.15682 C175.405982,111.479782 176.691331,109.222982 178.132217,107.023845 C180.222884,103.83099 183.069127,101.323785 185.661143,98.5780242 C188.690557,95.3693705 191.103351,91.7294207 192.279745,87.4054005 C192.803202,85.4795764 192.796096,83.5632313 191.549433,81.6358273 C191.131774,83.9258044 189.791947,85.4029542 188.167891,86.6794643" id="path58" fill="#FFF201"></path>
                        <path d="M113.210229,46.8483973 C112.479127,46.9378952 112.427018,47.5769402 112.229637,48.0839107 C111.615385,49.6600374 110.787171,51.0217009 109.00442,51.4941518 C108.32148,51.6743325 107.629854,51.5801741 106.942966,51.5990532 C105.794994,51.6314399 104.808876,51.9128093 104.10067,52.9434174 C103.356146,54.0280561 102.2666,54.4893692 100.93151,54.4436329 C100.336996,54.423016 99.6643198,54.2027074 99.1653389,54.7769 C100.146721,57.4894841 102.564251,58.3339872 104.988098,56.7369276 C106.964283,55.435061 109.036001,54.4390513 111.414056,54.1677929 C111.72355,54.1323255 112.029886,54.0320847 112.329117,53.9348456 C115.090881,53.035996 115.945149,50.4261805 114.240561,48.0746686 C113.927119,47.6432935 113.555252,47.2553639 113.210229,46.8483973" id="path60" fill="#FFFA99"></path>
                        <path d="M181.153736,52.5716023 C181.521655,55.2863192 180.853716,57.7628753 179.397828,60.046533 C177.551125,62.9423785 175.721003,65.847861 174.275379,68.9726252 C173.200044,71.2964109 172.324459,73.6852859 171.996805,76.2439147 C171.864165,77.2769716 171.8389,78.3124773 172.187871,79.3189929 C172.192608,79.3340014 172.23919,79.3450603 172.262086,79.3403208 C172.290509,79.3340014 172.315774,79.308724 172.342618,79.2921357 C172.298405,75.7416048 173.567174,72.5714202 175.223601,69.5302295 C176.628958,66.9481401 178.384866,64.5981291 180.139194,62.2440895 C182.327762,59.3056674 184.367109,56.2746666 185.272696,52.642616 C185.754308,50.7073129 185.698251,48.6464125 185.072157,47.2538631 C184.443693,49.5856269 183.069917,51.2845861 181.153736,52.5716023" id="path62" fill="#FFF201"></path>
                        <path d="M125.658696,65.9527623 C124.85101,65.8712426 124.580202,66.2387922 124.730212,67.0135454 C124.911804,67.961449 124.50125,68.5579174 123.620138,68.9340771 C122.717709,69.318531 121.920287,69.849594 121.366039,70.7206384 C120.972855,71.3383556 120.340444,71.6213048 119.577761,71.5438927 C118.827711,71.4689293 118.076871,71.3787995 117.324452,71.3559708 C116.359651,71.3266648 115.435904,71.4633209 114.84218,72.3708596 C115.925411,74.047859 117.31103,75.2050123 119.449069,75.1315498 C120.043582,75.1118018 120.512561,74.9572145 120.96417,74.5227587 C121.752118,73.762777 122.744553,73.3424608 123.837258,73.2138618 C124.404138,73.1475086 124.953648,73.0305215 125.493685,72.848761 C126.582442,72.4831862 127.716202,72.140361 127.932533,70.783911 C128.181233,69.2182902 128.024118,67.7498296 126.641656,66.6858868 C126.317951,66.4369041 125.986349,66.1977164 125.658696,65.9527623" id="path64" fill="#FFFA99"></path>
                        <path d="M105.46892,173.215163 C105.286539,173.005835 105.028364,172.95528 104.781242,172.957649 C102.844533,172.976608 101.166789,172.175629 99.5174678,171.298028 C95.036904,168.913261 90.2436876,167.767877 85.1875588,167.593305 C83.4569163,167.533271 81.7286425,167.355539 80.0027372,167.198345 C77.8380919,167.001655 76.3515711,165.590859 74.8634712,164.222718 C70.9985013,160.671239 67.552928,156.718481 64.0854848,152.790211 C61.4834418,149.84302 58.3562056,147.903768 54.3968083,147.417967 C53.87351,147.353983 53.3991624,147.480371 52.9029449,147.530136 C54.0088349,147.845314 55.117883,148.149433 56.2201412,148.476459 C59.4257774,149.427523 61.8039106,151.510541 63.9862413,153.956922 C67.6399339,158.052655 71.2550975,162.187095 75.3226599,165.897348 C77.345822,167.7426 79.6853475,168.268686 82.3492104,168.32951 C87.0421569,168.436149 91.7429987,168.685764 96.1169764,170.744295 C97.8239331,171.547643 99.5695766,172.270419 101.312062,172.996356 C102.304497,173.410273 103.345093,173.668577 104.431482,173.671737 C104.839667,173.672527 105.272328,173.707283 105.46892,173.215163" id="path66" fill="#FFF201"></path>
                        <path d="M173.417164,145.993742 C173.024769,146.917948 172.211557,147.442454 171.426767,147.941684 C167.200431,150.63452 162.578542,152.296511 157.626631,152.99401 C153.2566,153.610147 148.899992,153.528785 144.597072,152.426058 C144.417849,152.380242 144.252049,152.283082 144.081511,152.20962 C143.713592,152.289402 143.340935,152.353385 142.979332,152.455285 C142.683259,152.538226 142.400609,152.666983 141.969527,152.828917 C143.522526,153.795778 145.123686,154.105427 146.749322,154.301327 C154.051654,155.179718 161.122655,154.242083 167.938638,151.484473 C170.865414,150.300384 173.689551,148.916445 175.951544,146.624098 C176.431577,146.138297 176.880817,145.62327 177.168205,144.899703 C175.87496,145.277285 174.646457,145.635908 173.417164,145.993742" id="path68" fill="#FFF201"></path>
                        <path d="M130.788251,100.899598 C131.468033,101.123935 132.094128,100.952523 132.672061,100.598639 C134.0411,99.7621138 135.466986,99.5701633 137.009721,100.059913 C138.134796,100.417747 139.313559,100.370352 140.48048,100.334016 C141.289745,100.309528 141.74767,99.8561142 141.962421,99.11122 C142.737737,96.4254931 141.84794,95.4689004 139.049068,95.8883478 C137.818196,96.072399 136.716017,96.6458807 135.511989,96.8931256 C134.166635,97.1695975 132.826019,97.1324712 131.470402,96.9642183 C130.599554,96.8559993 129.711336,96.7635787 128.849963,97.0763869 C128.864174,97.4555484 129.125507,97.6988436 129.343417,97.9650466 C130.051622,98.8307985 130.391908,99.8798118 130.788251,100.899598" id="path70" fill="#FFFA99"></path>
                        <path d="M184.162622,121.360097 C184.007085,122.672154 183.242034,123.686411 182.49751,124.699878 C180.19604,127.831909 177.242421,130.309097 174.298276,132.791025 C172.368672,134.417469 170.394066,135.991779 168.492886,137.65061 C167.622828,138.409723 166.76856,139.232819 166.420379,140.40901 C168.462094,138.274647 170.908838,136.642673 173.263206,134.89695 C177.319005,131.889726 181.29743,128.789292 184.880302,125.217275 C186.406457,123.69589 187.674436,121.965966 188.689768,120.062259 C189.022948,119.436643 189.346654,118.790489 189.325337,117.947644 C187.739178,119.390827 186.044064,120.520413 184.162622,121.360097" id="path72" fill="#FFF201"></path>
                        <path d="M138.448238,85.0869863 C137.570285,84.7773378 136.995509,85.1233226 136.646538,85.9329903 C136.497318,86.2789751 136.345729,86.6249599 136.235195,86.9827935 C135.749636,88.5547336 134.555082,89.2901488 132.920762,89.0168366 C131.500404,88.7790708 130.095836,88.452834 128.632843,88.5365655 C127.994905,88.5736917 127.465922,88.7142974 127.075107,89.2356444 C127.070369,91.7231014 128.65337,92.7026018 130.87194,91.5832856 C132.80707,90.6069449 134.849576,90.5184739 136.939453,90.8676184 C137.416327,90.9474003 137.882937,90.930812 138.342442,90.8178535 C139.180129,90.6108945 139.69569,90.1598504 139.78017,89.2072073 C139.920705,87.6242083 139.237765,86.3476981 138.448238,85.0869863" id="path74" fill="#FFFA99"></path>
                        <path d="M54.996059,86.4337993 C55.5876514,86.3769251 56.1794806,86.3208408 57.0433017,86.2371093 C56.0138379,85.8295108 55.1789924,85.719712 54.3499894,85.6288712 C48.727691,85.011154 43.1809504,85.1738775 37.8192748,87.2521561 C36.8878702,87.6131494 36.1877969,88.1739923 35.8161667,89.1147867 C35.4157977,90.1282536 35.740609,90.8652486 36.7768627,91.1551491 C37.4691987,91.3486795 38.1856152,91.4561085 38.8909783,91.6022437 C39.2697142,91.5232517 39.4538318,91.2112334 39.6598194,90.9379212 C40.8253186,89.3944182 42.4053194,88.4473045 44.1829387,87.7956208 C46.5487553,86.9274991 49.0138944,86.5696655 51.5169308,86.554657 C52.6805352,86.5483377 53.8311914,86.2900339 54.996059,86.4337993" id="path76" fill="#D3D2D3"></path>
                        <path d="M58.2676997,87.2561057 C63.4285986,91.7926143 68.5883133,96.3314927 73.7519756,100.866421 C74.9985593,101.96046 76.2590386,103.038701 77.5130438,104.12405 C77.5762059,104.061647 77.639447,103.998453 77.7030039,103.935259 C76.4443405,102.563959 75.1990201,101.181599 73.9262241,99.8253074 C69.9560893,95.5929178 65.9760854,91.3700073 61.9975815,87.144727 C61.8251489,86.9622556 61.6321096,86.7987422 61.4486236,86.6265397 C60.3814994,86.8019019 59.3054535,86.9330286 58.2676997,87.2561057" id="path78" fill="#FFF201"></path>
                        <path d="M54.996059,86.4337993 C54.9196329,86.3832445 54.8440752,86.289244 54.765991,86.2876642 C50.5898686,86.1802351 46.4513277,86.3066223 42.5888054,88.2079589 C41.0196211,88.9812902 39.8029605,90.1211443 38.8909783,91.6022437 C39.9333903,92.0177414 41.0634399,92.2325996 41.9858439,92.9214095 C42.2628098,93.1291584 42.3911079,93.0383176 42.5832787,92.7997619 C45.7681503,88.8233063 50.1485232,87.1707944 54.996059,86.4337993" id="path80" fill="#FFFFFF"></path>
                        <path d="M86.391587,147.150974 C88.4790955,146.353155 89.4352123,143.242452 88.0803845,141.341905 C86.1452546,138.630111 82.9208277,137.683787 79.8321994,138.990314 C81.7436435,138.686985 83.5729768,138.897104 85.2791439,139.869495 C87.5545597,141.166543 87.931164,144.198254 86.0410371,145.984263 C85.387309,146.60198 86.006298,146.842905 86.391587,147.150974" id="path82" fill="#D3D2D2"></path>
                        <path d="M65.4320225,84.0198048 C66.4192467,83.8254846 67.3993651,83.566391 68.3958267,83.4518526 C69.8160273,83.2883392 71.2285694,83.3744405 72.7752522,84.1493517 C72.3579873,83.2093473 72.0285968,82.4660329 71.6988905,81.7211386 C70.9528667,81.0149504 70.0217779,81.2298086 69.1890641,81.3451369 C67.7792853,81.5410369 66.6153651,82.2993598 65.6556165,83.349953 C65.4887895,83.5324244 65.3173043,83.7338539 65.4320225,84.0198048" id="path84" fill="#FEFEFE"></path>
                        <path d="M65.4320225,84.0198048 C66.947519,81.9320472 69.2523052,81.0868331 71.6988905,81.7211386 C71.4734806,80.1626271 70.3545634,79.4216825 68.8735693,79.9580379 C67.0924761,80.6018225 65.9917969,82.0055097 65.1411609,83.6216853 C64.9435424,83.9968972 64.9937563,84.0229645 65.4320225,84.0198048" id="path86" fill="#D3D2D2"></path>
                        <path d="M57.2875812,104.630389 C58.3358358,104.775734 59.3840904,104.921079 60.5699594,105.086172 C59.6891635,103.789124 59.4744912,102.516564 59.923495,101.111297 C60.1224557,100.48963 59.6601878,100.662622 59.3301657,100.806388 C58.2433033,101.306407 57.3445851,102.004696 56.9952195,103.206953 C56.8496308,103.706183 56.64917,104.269395 57.2875812,104.630389" id="path88" fill="#FEFEFE"></path>
                        <path d="M57.2875812,104.630389 C56.8847647,103.553728 57.3529541,102.347521 58.5017943,101.499147 C58.7917085,101.285079 59.1766028,101.183969 59.3301657,100.806388 C57.4630141,100.851413 55.9059096,101.514946 54.8736824,103.132701 C54.3323829,103.980285 54.4625759,104.246488 55.4263511,104.410001 C56.0416292,104.51427 56.6670133,104.558506 57.2875812,104.630389" id="path90" fill="#D2D1D2"></path>
                        <path d="M48.3499025,98.6420077 C48.8754115,99.3229185 49.4006046,100.005409 50.0285152,100.820606 C50.2601623,98.6870331 51.4663222,97.4334306 53.1123274,96.5139641 C53.0987475,96.0644998 52.7416446,96.1253237 52.4936543,96.1561305 C51.1684338,96.3228036 49.8925587,96.6522001 48.841146,97.5361202 C48.514282,97.8102223 48.1237821,98.1017027 48.3499025,98.6420077" id="path92" fill="#FEFEFE"></path>
                        <path d="M48.3499025,98.6420077 C48.7329019,97.4350105 49.8222118,97.0724373 50.8322533,96.7785872 C51.5431431,96.5716283 52.2919302,96.0092055 53.1123274,96.5139641 C53.3667918,96.4728883 53.5795693,96.3686189 53.7692136,96.0218442 C51.5172466,95.7856582 49.3528382,95.7524816 47.2324854,96.4902665 C46.6474462,96.6932759 46.4296947,96.9468401 47.0452887,97.4271113 C47.5118989,97.7912642 47.9174788,98.2344092 48.3499025,98.6420077" id="path94" fill="#D3D2D2"></path>
                        <path d="M80.5356677,141.255804 C79.7414038,141.277132 78.7062554,142.107337 78.5258486,142.891727 C78.3697592,143.571848 78.6310135,143.996825 79.3426929,144.094775 C80.218278,144.215633 81.4562558,143.398066 81.7073252,142.542583 C81.922866,141.808747 81.3978308,141.233686 80.5356677,141.255804" id="path96" fill="#FEFEFE"></path>
                        <path d="M78.1844573,92.4435081 C77.4661459,91.4647977 76.7475187,90.4860872 75.8704336,89.2909387 C75.9607554,90.4505408 75.6665778,91.3147129 74.9417923,92.1946834 C76.1572686,91.9498083 77.1410978,92.1464983 78.1844573,92.4435081" id="path98" fill="#F7F6F7"></path>
                        <path d="M86.3852708,103.167457 C86.5179112,104.259916 86.4579072,105.092492 86.0757763,105.948765 C86.9047793,106.002479 87.6911479,105.871352 88.6141045,106.272632 C87.9445859,105.115399 87.2853312,104.215681 86.3852708,103.167457" id="path100" fill="#F9F9F9"></path>
                        <path d="M80.9517482,96.1766684 C81.093863,97.183816 80.8364773,98.0740555 80.4764532,98.9761437 C81.2872971,98.993522 82.0768237,98.8031513 82.9018791,99.0859426 C82.2520986,98.1159212 81.6023182,97.1466898 80.9517482,96.1766684" id="path102" fill="#F9F9F9"></path>
                        <path d="M88.775168,127.852447 C86.9750472,126.767887 84.9814923,126.583046 83.0360986,126.964577 C80.1022175,127.541219 77.4954373,126.848459 74.9510297,125.508755 C73.4691671,124.729105 72.0661783,123.827806 70.7351153,122.816709 C70.3107447,122.493632 69.9125864,122.124739 69.5542202,121.72978 C68.5006758,120.565438 67.8052607,119.27076 68.3748253,117.419978 C66.3828495,119.007716 64.2449692,119.433483 62.0012923,119.3616 C59.8281991,119.292088 57.7082411,118.847363 55.5873356,118.246234 C56.1452151,118.638824 56.7015946,119.032994 57.2610532,119.424004 C62.5049314,123.088441 67.688016,126.84056 73.0559289,130.324895 C74.2121117,131.075319 74.5399232,131.06584 75.532753,130.140844 C76.0042583,129.701649 76.2368529,129.879381 76.4394454,130.343853 C76.7568351,131.07137 76.5116082,131.771238 76.2849351,132.459258 C75.9956525,133.339229 75.8657753,134.225519 76.08479,135.374852 C77.1805741,132.695444 78.8516073,130.761721 81.2691379,129.535766 C83.6187693,128.344567 86.1499918,127.950397 88.775168,127.852447" id="path104" fill="#D3D2D3"></path>
                        <path d="M34.8471016,112.932444 C37.8183274,112.426106 40.4588993,113.062781 42.8793512,114.753999 C43.700301,115.327481 44.6489963,115.715331 45.5322397,116.201922 C47.4992665,117.284112 49.6387258,116.946026 51.9628555,117.000531 C51.0077651,116.625319 50.2397925,116.372544 49.5153228,116.028139 C48.1975239,115.400943 47.2186687,114.423813 46.5238063,113.116496 C44.4704053,109.253788 41.2534,106.852433 37.0559604,105.722058 C36.6266158,105.606729 36.1470573,105.443216 35.8124559,105.817638 C35.4744595,106.196009 35.8294307,106.58149 35.9870202,106.948013 C36.2300366,107.512806 36.7148059,108.081548 36.2007451,108.700055 C35.6693147,109.3391 34.8844463,109.311453 34.1837413,109.155048 C32.5883448,108.800375 31.18354,108.014404 29.9440621,106.958282 C28.3301117,105.582242 27.1341367,103.898923 26.397982,101.902796 C26.2193911,101.419365 25.9563208,100.97622 25.3900723,101.147633 C24.8102439,101.322205 24.898434,101.821434 24.9953089,102.331722 C26.2320235,108.839081 29.847503,113.351102 36.1153183,115.637919 C36.5764019,115.806172 37.2508945,116.209821 37.5293606,115.554188 C37.8414605,114.819562 37.0571447,114.660789 36.5667697,114.423023 C35.8491689,114.073878 35.0698271,113.798986 34.8471016,112.932444" id="path106" fill="#252122"></path>
                        <path d="M108.892307,107.743462 C103.620638,103.380736 98.6418827,98.9121602 93.5518043,94.539165 C94.2655364,95.8125155 94.7597801,97.2351608 95.7806381,98.2841741 C99.1629703,101.759821 102.648731,105.135937 105.749991,108.876207 C105.994745,109.172427 106.160545,109.126611 106.440827,108.925972 C107.134032,108.428322 107.925137,108.110775 108.892307,107.743462" id="path108" fill="#252122"></path>
                        <path d="M42.1042729,51.2981728 C41.0785198,52.6419841 40.2739132,52.8739835 38.7457054,52.328149 C37.3171358,51.8187298 36.189297,50.8449169 35.0676164,49.8793981 C33.1489877,48.2270441 31.0771118,47.0356873 28.4143542,47.1976998 C27.4727647,47.2553639 26.8553548,46.5160781 26.973468,45.7141517 C27.0964763,44.8776268 28.019275,44.2410305 28.8732271,44.422791 C29.4635562,44.5498891 29.9539312,44.8942941 30.6191074,45.3833333 C29.7444697,43.0845881 28.3609822,41.4282056 26.6683949,40.0606177 C23.1599753,37.225912 19.1956829,36.4177452 14.8557338,37.7313026 C11.7349717,38.6751776 9.60538143,41.5442448 9.48632081,44.7893927 C9.38486663,47.5476342 9.92056048,50.1194546 11.5249576,52.4102217 C12.4704948,53.7611423 13.6714438,54.7059652 15.5860459,54.7540713 C15.1657019,54.4168546 14.8449173,54.1718215 14.5381072,53.9104371 C13.9820436,53.439013 13.6082027,52.8613448 13.7102885,52.101679 C13.7963469,51.4608172 14.0014659,50.8384395 14.718514,50.6520185 C15.4540371,50.4607789 15.9191472,50.9143508 16.2651968,51.4799333 C16.8039698,52.3621156 17.0112205,53.370211 17.0694876,54.3702493 C17.3399794,58.9810894 20.4302658,61.7448603 25.9223712,61.0222418 C25.2784332,60.8121232 24.7050789,60.6698586 24.1706483,60.4369113 C23.5762927,60.1782916 22.9764893,59.7993672 23.2138999,59.024298 C23.4468103,58.2636843 24.109539,57.9714931 24.8660634,58.0560145 C25.7219103,58.1516737 26.4950938,58.5283864 27.2306168,58.9675028 C30.0340681,60.6380249 32.5032338,62.7550885 34.9908745,64.8407134 C40.8376352,69.741849 46.706029,74.618102 52.4668104,79.7573983 C52.4862327,79.416943 52.2540329,79.2866062 52.1090758,79.1357316 C46.6095489,73.3921467 41.366855,67.4186952 36.2507222,61.334813 C35.4623798,60.3974153 34.6065329,59.4976178 34.0566275,58.3797235 C33.8204012,57.8995314 33.6008338,57.4129409 33.5940439,56.8560475 C33.5814114,55.8275721 34.062549,55.3329244 35.0938287,55.3829263 C35.4673538,55.4011735 35.8370891,55.4999134 36.2078509,55.5646868 C39.6138689,56.1657367 41.5077855,54.8377238 42.1042729,51.2981728" id="path110" fill="#FFFA99"></path>
                    </g>
                </g>
            </g>
        </g>
    </g>
</svg>