<?xml version="1.0" encoding="UTF-8"?>
<svg width="200px" height="200px" viewBox="0 0 200 200" version="1.1" xmlns="http://www.w3.org/2000/svg" xmlns:xlink="http://www.w3.org/1999/xlink">
    <!-- Generator: Sketch 51.3 (57544) - http://www.bohemiancoding.com/sketch -->
    <title>trinity-washington</title>
    <desc>Created with Sketch.</desc>
    <defs></defs>
    <g id="trinity-washington" stroke="none" stroke-width="1" fill="none" fill-rule="evenodd">
        <g id="trinity-washington_BGL">
            <g id="trinity-washington" transform="translate(18.000000, 0.000000)">
                <g id="g10" transform="translate(82.500000, 99.844556) scale(-1, 1) rotate(-180.000000) translate(-82.500000, -99.844556) translate(0.000000, 0.376471)" fill-rule="nonzero">
                    <g id="g12">
                        <path d="M162.390241,122.92851 C162.390241,98.3027935 137.857888,34.1263485 82.1688112,1.6052757 C26.1028196,34.5054316 2.62880469,94.4526612 1.38643162,128.313818 L1.38643162,196.91955 L163.071533,196.91955 C163.071533,196.91955 162.390241,147.530672 162.390241,122.92851" id="path14" fill="#3D1A61"></path>
                        <path d="M2.77286325,195.534012 L2.77286325,128.313818 C3.95241155,96.2244869 26.0833264,36.5144613 82.1710295,3.21272947 C134.662717,34.2812516 161.003809,96.601076 161.003809,122.92851 C161.003809,144.939162 161.556163,187.292279 161.665414,195.534012 L2.77286325,195.534012 Z M82.1677021,0 L81.4669996,0.409165918 C23.8996965,34.1925772 1.20771227,95.3790318 0.00108314971,128.261722 L0,198.305088 L164.476266,198.305088 L164.457965,196.901261 C164.450201,196.406347 163.776672,147.239432 163.776672,122.92851 C163.776672,97.5016756 139.343865,33.3903509 82.8684046,0.409165918 L82.1677021,0 Z" id="path16" fill="#3D1A61"></path>
                        <path d="M71.0091458,181.968766 L46.3999845,181.968766 C40.663485,181.968766 35.6573577,181.654804 31.3755022,181.029095 C28.5432997,180.612325 27.1274757,178.039381 27.1274757,173.314421 C27.1274757,169.766336 27.0570727,166.708454 26.919511,164.13745 L26.81661,162.051662 L15.898461,162.051662 L15.898461,190.281993 L147.956101,190.281993 L147.956101,162.051662 L137.037952,162.051662 L136.935079,164.13745 C136.726005,166.708454 136.623132,169.766336 136.623132,173.314421 C136.623132,178.039381 135.240027,180.612325 132.477978,181.029095 C128.123751,181.654804 123.108751,181.968766 117.437136,181.968766 L92.8454439,181.968766 L92.8454439,63.5075074 C92.8454439,54.3067055 93.6761937,48.7210487 95.3388025,46.7510912 C97.0014113,44.7811336 101.959014,43.5848604 110.2105,43.1736328 L114.681742,43.0708259 L114.681742,36.6627139 L49.5194556,36.6627139 L49.5194556,43.0708259 L53.9407861,43.1736328 C62.096886,43.5848604 66.9798982,44.7811336 68.5903772,46.7510912 C70.2022426,48.7210487 71.0091458,54.3067055 71.0091458,63.5075074 L71.0091458,181.968766" id="path18" fill="#FFFFFF"></path>
                    </g>
                </g>
            </g>
        </g>
    </g>
</svg>