<?xml version="1.0" encoding="UTF-8"?>
<svg width="200px" height="200px" viewBox="0 0 200 200" version="1.1" xmlns="http://www.w3.org/2000/svg" xmlns:xlink="http://www.w3.org/1999/xlink">
    <!-- Generator: Sketch 51.3 (57544) - http://www.bohemiancoding.com/sketch -->
    <title>truman</title>
    <desc>Created with Sketch.</desc>
    <defs></defs>
    <g id="truman" stroke="none" stroke-width="1" fill="none" fill-rule="evenodd">
        <g id="truman_BGL" transform="translate(9.090909, 0.000000)">
            <g id="truman" transform="translate(0.000000, -0.909091)">
                <g id="g10" transform="translate(91.000000, 100.293759) scale(-1, 1) rotate(-180.000000) translate(-91.000000, -100.293759) translate(0.000000, 0.293759)">
                    <g id="g12">
                        <path d="M0,199.132123 L0.07290665,127.232264 L24.2134076,127.116615 L24.2134076,130.783324 C24.2134076,145.275505 29.7528564,156.751376 40.6775474,164.891638 C47.1897216,169.744169 54.0046384,172.083782 57.7293523,172.936819 L57.7040394,148.741936 L57.0931539,148.802963 L56.3509787,149.543723 L54.3745448,151.025242 L53.8797613,151.39579 L51.531396,152.877983 L50.6667062,153.247857 L47.8235575,153.371598 L46.340557,153.00105 L44.6101649,152.136549 L40.9013138,149.791205 L39.7899072,148.926704 L38.9238674,147.691656 L37.6882587,145.592444 L36.9460835,144.111262 L36.3291229,143.616636 L35.0925017,142.25852 L33.2391899,140.529857 L31.3845956,138.678127 L30.2721765,137.690223 L28.9122645,135.838156 L28.4185272,134.973992 L28.1713043,134.355962 L27.923845,133.367721 L27.7999466,130.280943 L30.3061634,129.842286 L32.2844198,130.336238 L32.7445077,130.52775 L33.2391899,130.52775 L35.0925017,130.774557 L36.0820686,130.52775 L37.6882587,130.280943 L41.3960972,129.911069 L45.9693007,129.911069 L43.8683271,127.194164 L42.8787602,126.207271 L38.4300964,126.823615 L36.0820686,126.947356 L34.5977182,126.823615 L33.7326571,126.453742 L35.0925017,122.254981 L35.2167038,121.761029 L35.7104748,121.020606 L36.5755021,119.785221 L36.8228938,119.662828 L37.3176773,118.798328 L35.0925017,115.340664 L32.2497242,114.847049 L31.3845956,114.722971 L30.6427579,114.476501 L29.2827108,113.858808 L27.6766558,112.747163 L29.1594537,109.907866 L32.3740613,107.067895 L32.7445077,106.821424 L33.9800826,106.327135 L34.3516765,100.399374 L29.9018314,97.4366731 L28.5419194,96.0785579 L28.7889736,94.8431721 L30.2721765,93.3623275 L31.5078865,92.6219052 L33.2391899,92.0038751 L35.3402309,91.2634529 L35.7104748,90.1518079 L38.9238674,89.2879819 L39.1709216,89.040163 L39.9127593,87.3114995 L38.9238674,86.3246069 L38.0585025,85.4604438 L37.5647316,84.8420765 L37.3176773,84.4722025 L36.6997042,83.113413 L36.2049207,81.7549607 L36.2049207,80.6446644 L37.3176773,79.9025563 L38.4300964,79.656086 L42.7559081,79.2855377 L41.8908807,76.9391813 L42.0137328,72.6176911 L42.2611246,70.272009 L42.2611246,64.7154702 L43.5780722,62.5700663 L44.5669641,59.6066913 L44.8146934,57.6302089 L45.1849372,54.1742305 L45.432329,53.5558633 L45.9271124,52.6927116 L47.4097754,50.9633738 L53.4673292,44.6664127 L54.82714,43.9249789 L55.815357,43.8019123 L57.593675,43.1801734 L57.5744371,24.964976 C57.5744371,24.8516873 57.5744371,24.6638844 57.5727496,24.4518391 L36.0537182,24.4518391 L36.0537182,-2.84217094e-14 L142.530381,-2.84217094e-14 L142.530381,24.4838364 L140.006175,24.4838364 C137.0611,24.4838364 133.250322,24.4700125 129.93534,24.4575035 C127.389534,24.4481639 125.136683,24.4399707 123.796785,24.4399707 C123.626345,24.4399707 123.47953,24.4423646 123.352627,24.44577 C123.350265,24.6558598 123.350265,24.8804141 123.350265,25.0857498 L123.350265,42.6349717 L124.042827,42.6902674 L127.750665,43.4317012 L128.987287,44.0480454 L131.212462,46.5174684 L131.953287,47.6291133 L132.200679,48.2474806 L133.931071,50.7162292 L134.548707,52.5689707 L137.020937,58.3716427 L137.557908,61.1350767 L137.681098,63.4807587 L137.557908,67.3079597 L135.950706,72.8661844 L135.703314,75.5817404 L135.580125,76.8167891 L139.412503,76.9391813 L141.018693,77.4338076 L141.760531,77.8036816 L141.88372,78.0508262 L141.760531,79.2855377 L141.018693,81.5081532 L140.029126,83.3605576 L138.670328,84.9658174 L139.412503,86.8178846 L142.131112,87.0646921 L142.501356,87.9295296 L145.715761,88.4231444 L147.940936,89.1635667 L151.029789,90.8935789 L150.906937,92.3744235 L149.794518,93.7322015 L148.804951,94.5963646 L147.816397,95.7080096 L146.70499,96.5718356 L145.963153,97.0664619 L145.467357,97.3136065 L145.591896,100.770596 L145.83895,102.128037 L149.176545,103.240357 L151.029789,104.227249 L153.254965,106.203394 L153.502357,106.821424 L153.502357,107.43878 L151.771965,108.796558 L149.91737,110.031607 L148.31118,110.648288 L147.569343,110.894758 L146.579776,111.018837 L146.333734,111.265307 L146.333734,112.377289 L146.579776,113.612 L146.333734,114.599567 L146.086005,115.216586 L145.963153,115.216586 L146.828517,116.822857 L148.187991,118.921057 L148.682774,119.909636 L149.423599,121.885444 L148.55891,123.366963 L146.209532,123.490029 L144.231748,123.366963 L142.748747,123.119481 L141.388937,122.74927 L140.030138,122.254981 L139.288301,123.366963 L138.546463,124.231463 L137.804963,124.848145 L137.804963,125.094952 L137.434719,125.342434 L137.434719,125.712645 L138.299746,125.218693 L139.535355,124.725078 L141.018693,124.477933 L142.996139,124.477933 L144.726531,124.725078 L148.064126,125.836049 L150.906937,126.576808 L153.996803,128.552279 L154.119992,129.046905 L153.254965,131.639395 L152.265398,133.244992 L150.906937,134.973992 L149.91737,135.838156 L149.670991,136.20803 L149.052006,136.702656 L148.682774,136.825385 L148.55891,137.319 L148.187991,138.183501 L147.075572,140.529857 L146.086005,142.13478 L141.513139,147.197704 L140.523909,147.938463 L139.412503,148.556156 L138.615314,148.782396 L133.605378,147.909129 L130.086543,147.054407 L125.567678,145.345636 L123.961825,144.604877 L123.350265,144.299402 L123.350265,172.885569 C127.018953,171.964762 133.758943,169.511523 140.261667,164.60808 C151.295744,156.28777 156.946603,144.802458 157.057305,130.475489 L157.064055,127.473002 L181.629752,127.54111 L181.654727,199.024566 L0,199.132123 Z" id="path18-path" fill="#FFFFFF"></path>
                        <path d="M8.47271152,190.335731 L172.791825,190.510047 L172.718586,136.181056 C172.718586,136.181056 165.732892,136.062373 165.732892,136.105193 C165.732892,172.3579 126.915339,183.799043 114.762768,183.799043 L114.762768,22.8600323 C114.762768,17.9350103 115.151237,15.9292279 121.520984,15.8685376 C124.220692,15.842171 128.33455,15.7781764 133.824082,15.7781764 L133.824082,8.98513907 L44.7603549,8.98513907 L44.7603549,15.7781764 L58.6649183,15.7781764 C64.5689071,15.7781764 66.4667021,16.1477469 66.4667021,24.9511521 L66.4667021,183.609891 C54.1153403,183.609891 15.5906748,172.282374 15.5906748,136.030005 C15.5906748,135.980441 8.53957141,136.020564 8.53957141,136.020564 L8.47271152,190.335731" id="path14" fill="#651A7A" fill-rule="nonzero"></path>
                        <polyline id="path16" fill="#FFFFFF" fill-rule="nonzero" points="156.661411 126.756856 157.290184 129.279215 156.035 133.040668 154.771041 135.092339 153.130088 137.180424 152.230635 137.966027 151.946793 138.392545 151.205292 138.984613 150.988951 139.489017 149.75908 142.088588 148.536634 144.071139 143.580024 149.558558 142.190175 150.599398 140.591073 151.488174 138.78643 152.000333 133.092369 151.008046 129.195865 150.06802 124.501497 148.292827 122.698204 147.469461 121.128802 146.686556 119.071367 145.463983 117.186059 144.109576 115.675721 144.041131 114.517063 143.889742 113.844077 143.778814 112.723895 144.31154 112.600706 145.166263 112.197386 146.374675 111.759304 147.249965 111.333371 148.595605 110.599971 150.062625 107.850649 152.465289 104.284563 151.275421 103.048279 150.393725 101.971973 149.489102 100.933806 148.463772 99.5129062 146.780289 99.1078992 146.228007 97.869253 146.370966 95.3517973 146.622494 92.4914358 146.637666 89.4447711 146.715215 88.9513376 147.60298 87.954683 148.93075 86.6002723 150.282122 84.9356938 151.392418 82.7290809 152.193531 80.5629688 152.193531 78.6763114 150.306061 77.6958571 149.046736 76.5611627 147.292448 75.5688957 145.184807 74.4011256 144.990261 73.749402 144.854045 70.1752157 146.36692 68.2544702 146.847385 66.3674754 147.035863 65.3978213 147.728407 63.8864704 149.006276 62.4476832 150.15737 61.1101478 150.992199 59.8046754 151.55055 58.8610092 151.785894 58.4833402 151.823657 58.3554255 151.951107 55.7114052 153.932984 52.958708 155.681878 51.3619681 156.364644 47.5241898 156.53188 45.289564 155.973528 43.2608167 154.959662 39.2860111 152.464615 37.5731692 151.150331 36.4452249 149.5417 35.0790014 147.23985 34.5366296 146.172037 34.2517748 145.943773 32.9383372 144.501366 31.1755108 142.856995 29.30934 140.996161 28.0228692 139.853497 26.3696309 137.602559 25.6853716 136.404599 25.2839423 135.400848 24.9106946 133.9109 24.6675892 127.859735 30.4264167 126.8516 30.4538221 126.858344 32.1807717 121.526022 32.4079469 120.623422 33.1917028 119.447715 33.6456481 118.798328 33.2679116 118.211655 31.7832912 117.953721 30.6932487 117.797274 29.5411052 117.414588 27.7867502 116.617521 23.753556 113.826777 26.7355884 108.115815 30.5271284 104.766045 31.0709515 104.4046 31.2199603 102.063975 27.9764622 99.9044102 25.2540055 97.1861568 26.000197 93.4563975 28.3987494 91.0614889 30.212438 89.9747944 32.9371222 89.0050975 33.3537394 87.7548762 35.4725332 87.1850613 35.1998285 86.8438466 34.6635318 86.0609411 33.943632 84.4782716 33.1768188 82.3989527 33.1768188 79.1314516 36.1141317 77.1721648 37.9788512 76.7594704 38.8718915 76.6829331 38.9866434 72.6409557 39.2330227 70.2221081 39.2330227 63.9686417 40.8159248 61.389639 41.5996132 59.0409224 41.8068418 57.3891333 42.2185989 53.5457482 42.6998821 52.3423934 43.4427323 51.0456429 45.1123735 49.0984942 51.6107099 42.3362404 53.8878614 41.0944483 55.1271827 40.9400251 57.1555925 40.2312967 58.9868988 39.3856778 62.059889 38.844185 64.5712696 39.3809574 67.8366381 40.5556529 70.7034122 41.5469286 72.0169848 41.6851678 73.2728438 41.2360592 78.2338413 40.135878 82.8981713 40.135878 86.4143066 40.7215398 87.7822176 41.2465114 90.5841906 41.2465114 96.441266 39.9052546 99.5733197 39.7491455 104.655144 40.8179701 109.489577 42.2913969 110.528758 42.4212068 113.718187 40.6001591 119.12638 39.0566012 121.403194 39.5438099 124.472809 39.7889314 128.753733 40.6450026 130.868881 41.6989917 133.627316 44.7611571 134.666159 46.3195504 134.90005 46.9048751 136.682081 49.4474637 137.400968 51.6023083 139.9515 57.5880628 140.589385 60.873771 140.730463 63.5589818 140.590735 67.8946331 138.958557 73.5391729 138.917044 73.9960364 139.926862 74.0284046 142.16115 74.7165658 144.034982 75.6511972 145.002611 77.5899167 144.758932 80.0337149 143.828428 82.8200763 143.084566 84.2125827 144.219935 84.3160935 144.639792 85.2955683 146.441061 85.5723838 149.183633 86.484762 154.226982 89.3092235 153.865513 93.67522 151.993368 95.9598745 150.957901 96.8641608 149.91197 98.0408792 148.575785 99.0793586 148.60751 99.9576828 150.389541 100.551774 152.786845 101.828969 155.818659 104.52126 156.549022 106.347028 156.549022 109.023473 153.657272 111.29228 151.331182 112.852359 149.642641 113.500735 149.701367 113.79542 149.352048 115.195681 149.45465 115.386182 150.838424 117.522819 151.408808 118.660763 152.78347 122.27892 151.892792 123.804608 152.148621 123.871367 156.661411 126.756856"></polyline>
                        <path d="M176.582353,132.570992 L162.055428,132.530869 C161.257565,151.221811 151.50466,162.449526 143.303269,168.633873 C133.448101,176.065406 123.378615,178.373663 120.826059,178.373663 L118.301516,178.373663 L118.301516,141.013357 L115.803635,140.900405 L114.938271,140.776664 L113.455608,140.529857 L112.590243,140.900405 L109.995161,142.13478 L109.870959,142.752473 L109.747432,143.493906 L109.62323,144.358069 L109.500377,144.727943 L109.376175,145.098492 L109.005594,145.838914 L108.882404,146.086733 L108.759552,146.580685 L108.51081,147.321107 L108.264769,147.814722 L108.140567,148.062541 L107.152012,148.926704 L105.669012,148.432078 L104.803984,147.814722 L103.937945,147.0743 L103.073592,146.210137 L101.836971,144.727943 L101.219335,143.863443 L100.724552,142.876213 L97.5114969,143.247099 L96.2745382,143.369828 L95.038592,143.493906 L92.44351,143.493906 L87.6229148,143.616636 L86.3873061,145.838914 L85.6451309,146.827492 L84.6559015,147.814722 L83.5444949,148.556156 L82.1846841,149.049771 L81.8130902,149.049771 L80.9490754,148.18527 L80.0840481,147.0743 L79.2176707,145.716185 L78.2294538,143.616636 L77.8588724,142.382261 L74.891859,141.887635 L73.1614669,141.518098 L73.1614669,141.640828 L72.1732499,142.13478 L69.2062366,143.369828 L68.7117906,143.493906 L67.7232361,143.740714 L65.2510063,143.987521 L64.3856414,144.604877 L63.5209516,145.22257 L62.7500884,145.874317 L62.7841765,178.376697 L60.2569331,178.376697 C57.6061627,178.376697 47.3270864,176.138909 37.6588957,168.934964 C29.4195694,162.795461 19.6348041,151.471653 19.1808926,132.184597 L5.11665523,132.252367 L5.05401415,194.085046 L176.603953,193.983221 L176.582353,132.570992 Z M123.796785,19.3962991 C125.141071,19.3962991 127.400334,19.4044586 129.953903,19.4137981 C132.375507,19.422632 135.062391,19.4323761 137.481632,19.4370965 L137.481632,5.04370536 L41.1028047,5.04370536 L41.1028047,19.4081337 L58.4603898,19.4081337 C62.6235237,19.4081337 62.6235237,22.4895514 62.6235237,24.9625821 L62.6414115,41.9643434 L63.7258176,42.1963154 L66.8160206,43.3079603 L70.0294132,44.4189309 L72.3784535,44.6664127 L74.1078331,44.0480454 L78.5575094,43.0608157 L82.6372793,43.0608157 L85.6019302,43.5547677 L87.2091327,44.1717863 L90.9183213,44.1717863 L96.850323,42.8133339 L99.3225529,42.6902674 L104.019958,43.6778343 L108.840216,45.1603647 L110.818,45.4071721 L111.435636,45.2834312 L114.89642,43.3079603 L118.301516,42.3359032 L118.301516,25.0866601 C118.301178,23.4224296 118.300841,22.1078428 119.222232,20.9519951 C120.462565,19.3962991 122.550039,19.3962991 123.796785,19.3962991 Z M0,199.132123 L0.07290665,127.232264 L24.2134076,127.116615 L24.2134076,130.783324 C24.2134076,145.275505 29.7528564,156.751376 40.6775474,164.891638 C47.1897216,169.744169 54.0046384,172.083782 57.7293523,172.936819 L57.7040394,148.741936 L57.0931539,148.802963 L56.3509787,149.543723 L54.3745448,151.025242 L53.8797613,151.39579 L51.531396,152.877983 L50.6667062,153.247857 L47.8235575,153.371598 L46.340557,153.00105 L44.6101649,152.136549 L40.9013138,149.791205 L39.7899072,148.926704 L38.9238674,147.691656 L37.6882587,145.592444 L36.9460835,144.111262 L36.3291229,143.616636 L35.0925017,142.25852 L33.2391899,140.529857 L31.3845956,138.678127 L30.2721765,137.690223 L28.9122645,135.838156 L28.4185272,134.973992 L28.1713043,134.355962 L27.923845,133.367721 L27.7999466,130.280943 L30.3061634,129.842286 L32.2844198,130.336238 L32.7445077,130.52775 L33.2391899,130.52775 L35.0925017,130.774557 L36.0820686,130.52775 L37.6882587,130.280943 L41.3960972,129.911069 L45.9693007,129.911069 L43.8683271,127.194164 L42.8787602,126.207271 L38.4300964,126.823615 L36.0820686,126.947356 L34.5977182,126.823615 L33.7326571,126.453742 L35.0925017,122.254981 L35.2167038,121.761029 L35.7104748,121.020606 L36.5755021,119.785221 L36.8228938,119.662828 L37.3176773,118.798328 L35.0925017,115.340664 L32.2497242,114.847049 L31.3845956,114.722971 L30.6427579,114.476501 L29.2827108,113.858808 L27.6766558,112.747163 L29.1594537,109.907866 L32.3740613,107.067895 L32.7445077,106.821424 L33.9800826,106.327135 L34.3516765,100.399374 L29.9018314,97.4366731 L28.5419194,96.0785579 L28.7889736,94.8431721 L30.2721765,93.3623275 L31.5078865,92.6219052 L33.2391899,92.0038751 L35.3402309,91.2634529 L35.7104748,90.1518079 L38.9238674,89.2879819 L39.1709216,89.040163 L39.9127593,87.3114995 L38.9238674,86.3246069 L38.0585025,85.4604438 L37.5647316,84.8420765 L37.3176773,84.4722025 L36.6997042,83.113413 L36.2049207,81.7549607 L36.2049207,80.6446644 L37.3176773,79.9025563 L38.4300964,79.656086 L42.7559081,79.2855377 L41.8908807,76.9391813 L42.0137328,72.6176911 L42.2611246,70.272009 L42.2611246,64.7154702 L43.5780722,62.5700663 L44.5669641,59.6066913 L44.8146934,57.6302089 L45.1849372,54.1742305 L45.432329,53.5558633 L45.9271124,52.6927116 L47.4097754,50.9633738 L53.4673292,44.6664127 L54.82714,43.9249789 L55.815357,43.8019123 L57.593675,43.1801734 L57.5744371,24.964976 C57.5744371,24.8516873 57.5744371,24.6638844 57.5727496,24.4518391 L36.0537182,24.4518391 L36.0537182,0 L142.530381,0 L142.530381,24.4838364 L140.006175,24.4838364 C137.0611,24.4838364 133.250322,24.4700125 129.93534,24.4575035 C127.389534,24.4481639 125.136683,24.4399707 123.796785,24.4399707 C123.626345,24.4399707 123.47953,24.4423646 123.352627,24.44577 C123.350265,24.6558598 123.350265,24.8804141 123.350265,25.0857498 L123.350265,42.6349717 L124.042827,42.6902674 L127.750665,43.4317012 L128.987287,44.0480454 L131.212462,46.5174684 L131.953287,47.6291133 L132.200679,48.2474806 L133.931071,50.7162292 L134.548707,52.5689707 L137.020937,58.3716427 L137.557908,61.1350767 L137.681098,63.4807587 L137.557908,67.3079597 L135.950706,72.8661844 L135.703314,75.5817404 L135.580125,76.8167891 L139.412503,76.9391813 L141.018693,77.4338076 L141.760531,77.8036816 L141.88372,78.0508262 L141.760531,79.2855377 L141.018693,81.5081532 L140.029126,83.3605576 L138.670328,84.9658174 L139.412503,86.8178846 L142.131112,87.0646921 L142.501356,87.9295296 L145.715761,88.4231444 L147.940936,89.1635667 L151.029789,90.8935789 L150.906937,92.3744235 L149.794518,93.7322015 L148.804951,94.5963646 L147.816397,95.7080096 L146.70499,96.5718356 L145.963153,97.0664619 L145.467357,97.3136065 L145.591896,100.770596 L145.83895,102.128037 L149.176545,103.240357 L151.029789,104.227249 L153.254965,106.203394 L153.502357,106.821424 L153.502357,107.43878 L151.771965,108.796558 L149.91737,110.031607 L148.31118,110.648288 L147.569343,110.894758 L146.579776,111.018837 L146.333734,111.265307 L146.333734,112.377289 L146.579776,113.612 L146.333734,114.599567 L146.086005,115.216586 L145.963153,115.216586 L146.828517,116.822857 L148.187991,118.921057 L148.682774,119.909636 L149.423599,121.885444 L148.55891,123.366963 L146.209532,123.490029 L144.231748,123.366963 L142.748747,123.119481 L141.388937,122.74927 L140.030138,122.254981 L139.288301,123.366963 L138.546463,124.231463 L137.804963,124.848145 L137.804963,125.094952 L137.434719,125.342434 L137.434719,125.712645 L138.299746,125.218693 L139.535355,124.725078 L141.018693,124.477933 L142.996139,124.477933 L144.726531,124.725078 L148.064126,125.836049 L150.906937,126.576808 L153.996803,128.552279 L154.119992,129.046905 L153.254965,131.639395 L152.265398,133.244992 L150.906937,134.973992 L149.91737,135.838156 L149.670991,136.20803 L149.052006,136.702656 L148.682774,136.825385 L148.55891,137.319 L148.187991,138.183501 L147.075572,140.529857 L146.086005,142.13478 L141.513139,147.197704 L140.523909,147.938463 L139.412503,148.556156 L138.615314,148.782396 L133.605378,147.909129 L130.086543,147.054407 L125.567678,145.345636 L123.961825,144.604877 L123.350265,144.299402 L123.350265,172.885569 C127.018953,171.964762 133.758943,169.511523 140.261667,164.60808 C151.295744,156.28777 156.946603,144.802458 157.057305,130.475489 L157.064055,127.473002 L181.629752,127.54111 L181.654727,199.024566 L0,199.132123 Z" id="path18" fill="#231F20"></path>
                        <path d="M60.1833569,136.702656 C60.2241951,136.538118 60.2653708,136.372231 60.3072215,136.20803 C60.2653708,136.20803 60.2241951,136.20803 60.1833569,136.20803 C59.3422924,134.794282 55.5416398,135.569769 53.5095174,135.591348 C53.3859903,135.425798 53.2617882,135.26126 53.1389361,135.096722 C53.0555722,135.096722 52.4787748,134.727185 52.3967609,134.727185 C52.2735712,134.561635 52.1493691,134.39676 52.0261795,134.232559 C51.9431531,134.232559 51.4895453,133.780416 51.4085439,133.738607 C51.0777882,133.367721 50.7487201,132.997847 50.418977,132.627299 C50.336963,132.627299 50.2539366,132.627299 50.1719227,132.627299 C50.0328703,132.093898 49.7193275,132.002525 49.6771392,131.269521 C49.7179774,131.269521 49.7601657,131.269521 49.8013414,131.269521 C49.8013414,131.145443 49.8013414,131.022713 49.8013414,130.898635 C49.9663817,130.774557 50.130747,130.651828 50.2961248,130.52775 C50.2961248,130.445481 50.3781387,130.280943 50.418977,130.280943 C50.3781387,129.499048 50.336963,128.717154 50.2961248,127.934923 C49.9876446,127.731273 49.4719357,126.947356 49.3065579,126.823615 C49.3065579,126.741346 48.5647202,125.794914 48.5647202,125.712645 C48.4823687,125.67151 45.928125,123.243222 44.733692,122.131914 C44.733692,122.049645 42.4265024,119.045135 42.3856642,119.045135 C42.343476,118.67425 42.3033128,118.303702 42.2611246,117.933828 C42.0346582,117.201497 41.8635428,116.197746 41.6431515,115.46373 C41.6431515,115.216586 41.3960972,113.487585 41.3960972,113.241115 C41.3549215,113.241115 41.3140833,113.241115 41.2729076,113.241115 C41.2729076,112.912375 41.2729076,112.583299 41.2729076,112.254222 C40.8247,110.678296 40.7794742,108.530195 40.7781242,106.574617 C40.7781242,105.41678 40.9013138,100.482317 40.9013138,100.030511 C40.943502,100.030511 40.9843402,100.030511 41.0255159,100.030511 C41.0663541,98.6720589 41.1075298,97.3136065 41.1487055,95.954817 C41.1908937,95.954817 41.4382855,95.460865 41.5202994,95.2147319 C41.5611376,95.2147319 42.0137328,94.3084226 42.0137328,94.2261535 C42.137935,94.14321 42.3856642,93.8154821 42.3856642,93.7322015 C42.5085163,93.6499323 43.3327055,92.7038372 43.4977458,92.49749 C43.5800972,92.49749 44.4451245,91.839674 44.4859627,91.7574049 C44.6513406,91.7152588 46.4640841,90.9744993 46.834328,90.8935789 C46.717551,90.2131726 48.9646645,90.1268574 49.1823557,89.4117228 C49.2613321,89.1527773 49.2235315,87.6402389 49.1823557,87.4362519 C49.1003418,87.3941058 48.1941388,84.5952691 48.1941388,84.4722025 C48.1529631,84.4722025 46.1755167,81.0556729 46.0935028,81.0135269 C46.0523271,80.8493257 44.7745302,78.5451154 44.733692,78.5451154 C44.7745302,77.6398177 44.8157059,76.7341828 44.8565441,75.828885 C44.8565441,75.0193432 44.9807462,71.9585265 44.9807462,71.2605874 C45.0219219,71.2605874 45.1039358,70.272009 45.1039358,69.7783942 C45.144774,69.7783942 45.5167054,66.5678746 45.5987193,65.5792962 C45.6395575,65.5792962 45.928125,64.0977773 45.9693007,64.0977773 C45.9693007,63.8506327 45.9693007,63.6038253 45.9693007,63.3570178 C46.4995222,61.5912658 47.5066395,61.1172067 48.1512756,59.4832876 C48.234302,59.1120649 48.3163159,58.7418538 48.3983298,58.3716427 C48.440518,58.3716427 49.0173154,57.2192003 49.0173154,57.1376055 C49.0993293,57.0961338 49.634951,56.3553743 49.634951,56.2724308 C49.8823427,56.0670952 50.128722,55.860748 50.3757762,55.6560866 C50.4588026,55.5316714 50.7885458,55.2845268 50.8705597,55.2845268 C50.9535861,55.1614602 51.0356,55.0377194 51.1182889,54.9146528 C51.2013154,54.9146528 55.2797353,50.9225764 55.4437631,50.7162292 C55.525777,50.7162292 60.5947764,48.1230653 60.6346021,48.0006731 C61.4598037,48.1230653 62.2829804,48.2474806 63.1071695,48.3705471 C64.3529034,48.7953796 65.1264666,48.8237017 65.4562098,48.8644991 C65.4562098,48.9052965 68.2170071,50.3048835 68.299021,50.3463552 C68.299021,50.42795 68.8758184,51.5803924 68.9169941,51.5803924 C68.9379195,51.6950297 68.6696024,52.9796421 68.6696024,53.1859893 C68.4640613,53.885277 68.2581828,54.5852391 68.0516293,55.2845268 C67.9696154,55.3259985 67.392818,55.9851632 67.1866019,56.1493643 C67.1454262,56.2309591 65.4973855,57.7546241 65.4562098,57.7546241 C65.0120522,58.4454826 64.9077629,59.2863811 63.9732093,59.4832876 C63.9711843,60.7827354 62.696425,61.8751618 62.6555868,61.8751618 C62.6555868,62.0390257 62.5735728,62.3697881 62.5323971,62.3697881 C62.5323971,62.5751238 62.5323971,62.7807967 62.5323971,62.9868067 C62.4902089,62.9868067 62.3261811,63.6038253 62.2850054,63.6038253 C62.2850054,63.7676892 62.0787894,64.7154702 62.0376137,64.7154702 C62.0376137,64.9214802 61.7085455,67.0611523 61.6670323,67.0611523 C61.6670323,67.4320378 61.6670323,67.8019117 61.6670323,68.1721229 C61.6653448,70.061953 62.614411,72.4946246 62.6555868,72.4946246 C62.8692279,72.8725906 62.9090536,73.1379423 63.2732223,73.3594621 C63.2732223,73.4002595 63.4450128,72.0994629 63.3974245,71.6307986 C63.2890851,70.5653457 62.5199094,68.7429493 63.0271806,67.5551043 C63.0680188,67.5551043 64.9637888,62.9868067 65.0036145,62.9868067 C65.0458027,62.7807967 65.2510063,61.7112978 65.2510063,61.3812097 C65.2931945,61.3812097 66.4447642,61.0875359 66.4447642,60.9644693 C66.4856024,60.9644693 66.6918185,60.3474508 66.6918185,60.2243842 C66.7329942,60.2243842 68.5464128,57.0961338 68.5464128,57.0131903 C68.6696024,56.9315955 68.9169941,56.6841137 68.9169941,56.6433163 C69.0820344,56.6433163 69.4937915,56.4791152 69.5346297,56.3961717 C69.6176561,56.3961717 70.0294132,55.9851632 70.0294132,55.9015454 C70.1526028,55.8199506 70.8944405,54.7497774 70.8944405,54.6675082 C70.9764544,54.6267108 71.2238462,53.9682205 71.2650219,53.6802785 C71.3072101,53.6802785 71.0588058,52.0750187 71.0179676,51.8271998 C70.8883654,51.4974489 70.6953121,51.3049256 70.6470488,50.8403072 C70.7702384,50.7991727 71.59544,50.3048835 71.6356032,50.2229515 C72.295427,50.1808054 73.6130496,50.0169415 73.6130496,49.9761441 C73.9012796,49.9761441 75.3444543,49.770134 75.3444543,49.7293366 C75.6326842,49.7293366 78.5575094,49.2755077 78.5575094,49.2347103 C78.8356142,49.0991685 79.4228742,49.0287003 79.4228742,48.9875657 C80.2058877,49.0694977 82.1836716,49.3577768 82.3898876,49.3577768 C82.3898876,49.3985742 84.4905236,50.0577389 84.4905236,50.0992106 C84.7369028,50.1808054 90.1110075,53.3016381 90.4238753,53.6802785 C90.6719421,53.6087988 90.5312022,53.6947768 90.6699171,53.5558633 C91.2089138,52.9850368 90.3921498,52.5912239 90.1761461,52.0750187 C90.1353079,51.4987975 90.0931197,50.9225764 90.053294,50.3463552 C90.4647135,50.140008 90.8771456,49.933998 91.2889027,49.7293366 C91.4529305,49.7293366 91.6183083,49.7293366 91.7836862,49.7293366 C92.7982286,49.4039689 94.3716805,49.4815177 95.7389165,49.4815177 C96.4389035,49.4815177 97.1395655,49.4815177 97.8395525,49.4815177 C97.8803907,49.5637869 99.3225529,50.0577389 99.3225529,50.0992106 C99.9172381,50.2725153 101.619955,50.0928044 102.042175,49.9761441 C102.412756,49.9761441 104.802972,49.933998 105.626148,49.9761441 C105.626148,50.0169415 106.574202,50.2229515 106.73958,50.2229515 C106.73958,50.2640861 111.161243,52.4931078 111.435636,52.5689707 C111.476811,52.9796421 111.476811,53.8036822 111.435636,53.8036822 C111.435636,54.0096922 110.858838,56.0259606 110.818,56.0259606 C110.94119,56.5613843 111.394797,58.20643 111.435636,58.4957207 C111.559163,58.5779899 112.918636,60.3882482 113.041826,60.471866 C113.041826,60.5534608 114.197445,61.6691517 114.197445,61.7520952 C114.279797,61.7922183 115.844811,63.8098353 115.927838,63.8506327 C116.009852,64.0977773 116.875216,65.8264408 116.916392,65.8264408 C117.267736,66.7088111 117.038232,68.3076647 117.039244,69.408183 C117.039244,69.7365853 117.122608,70.3954127 117.163446,70.3954127 C117.163446,70.5184793 117.163446,70.6422202 117.163446,70.7652867 C117.172896,70.7831567 117.3511,70.8991427 117.410838,71.0124313 C117.452014,71.0124313 118.358217,69.408183 118.400068,69.408183 C118.441243,69.1195667 118.728798,68.1721229 118.770649,68.1721229 C118.954927,67.5773574 118.441243,65.4562297 118.400068,65.4562297 C118.400068,65.2087479 118.275865,64.2208438 118.275865,63.9740364 C118.192839,63.933239 117.781419,63.4399613 117.65823,63.3570178 C117.65823,63.2740744 116.95723,62.2453729 116.916392,62.2453729 C116.875216,62.0811718 116.91538,62.3229217 116.874204,62.3229217 C116.833028,62.1590577 115.307839,59.0311445 115.267001,58.8655947 C114.978434,58.6187873 114.197445,57.7640648 114.031393,57.6302089 C114.072231,56.7663829 114.113407,55.9015454 114.154582,55.0377194 C114.066831,54.7184207 113.851502,53.0443785 114.031393,52.5689707 C114.072231,52.5689707 114.60819,51.7048076 114.649028,51.7048076 C114.732392,51.3332478 114.813056,50.9633738 114.89642,50.5931626 C114.937258,50.5931626 115.143812,49.7293366 115.143812,49.7293366 C115.184987,49.5229894 115.441829,48.9120399 115.514056,48.8644991 C115.597419,48.8644991 116.215393,48.616343 116.37942,48.616343 C116.462447,48.4932765 116.544798,48.3705471 116.626812,48.2474806 C116.982543,47.9069403 117.739231,47.5468442 117.739231,47.5053724 C117.862421,47.5053724 118.97484,47.1358356 119.222232,47.1358356 C119.508437,47.0478346 119.952594,46.74472 120.458853,46.8890282 C120.458853,46.9298256 120.952624,47.0950382 120.952624,47.1358356 C121.405894,47.1358356 121.859839,47.1358356 122.312435,47.1358356 C122.312435,47.176633 124.990881,47.4652494 125.4023,47.5053724 C125.4023,47.5468442 126.679084,48.2474806 126.762448,48.2474806 C126.968664,48.4932765 127.173868,48.7407583 127.380421,48.9875657 C127.380421,49.0694977 127.915706,50.0992106 127.998057,50.3463552 C128.081083,50.3871526 128.491828,51.1285864 128.491828,51.2101812 C128.574854,51.2509786 129.151652,52.033547 129.233666,52.0750187 C129.275854,52.239557 130.098693,53.5558633 130.098693,53.5558633 C130.098693,53.6388068 130.222895,53.9682205 130.222895,54.0504897 C130.305247,54.0912871 132.654287,58.6187873 132.695463,58.6187873 C132.736301,58.9070664 132.900666,59.4832876 132.942517,59.4832876 C132.942517,59.5652196 134.590895,61.7881723 134.672909,61.8289697 C134.714085,62.3229217 134.056286,61.2581432 134.097124,61.7520952 C134.268915,62.3643934 134.220314,63.4123135 134.220314,64.2208438 C134.220314,65.6130131 134.424842,67.4950883 134.097124,68.6667492 C134.097124,70.0252016 134.01511,72.7424435 133.97326,72.7424435 C133.97326,72.9063074 132.778489,75.7051441 132.737651,75.7051441 C132.737651,75.7880876 130.430461,80.1507124 130.389286,80.1507124 C130.389286,80.2731046 129.935678,81.5081532 129.89484,81.5081532 C129.89484,81.6733659 129.811476,82.0017681 129.770637,82.0017681 C129.611335,82.5392149 130.718691,86.6944809 130.759529,86.6944809 C130.759529,86.7770872 130.759529,86.858682 130.759529,86.9416255 C130.841881,86.9817486 133.520327,87.0238947 133.602678,87.0646921 C133.848045,87.4413094 133.956047,87.6914885 133.97326,88.2994035 C134.715097,88.2994035 135.456935,88.2994035 136.198098,88.2994035 C136.280112,88.4231444 137.804963,90.4397499 137.928152,90.5220191 C138.257895,91.1805094 138.587301,91.839674 138.917719,92.49749 C138.958557,93.0329138 138.999733,93.5683375 139.040571,94.103087 C139.034496,94.1327578 139.494517,96.4480947 139.535355,96.4480947 C139.535355,96.6952393 139.740896,97.9306251 139.783084,97.9306251 C139.783084,98.2597017 139.98795,100.277656 140.030138,100.277656 C140.030138,101.470896 139.412503,112.949127 139.412503,113.73473 C138.806005,113.911406 136.569692,117.48101 136.569692,117.562942 C136.404314,117.68702 133.438313,121.349683 133.355286,121.391492 C133.355286,121.473424 131.9543,123.572299 131.872286,123.61377 C131.83111,123.860578 131.172299,125.465837 131.130111,125.465837 C130.977558,125.819527 130.571539,127.343192 130.759529,127.934923 C130.800705,127.934923 131.38594,128.970031 131.377503,129.046905 C131.336327,129.046905 131.294476,129.046905 131.2533,129.046905 C131.120998,129.820033 130.681903,130.291395 130.388273,130.898635 C127.711852,130.883126 124.514997,130.719262 122.231433,131.145443 C122.139632,131.319422 122.009354,131.518688 121.860852,131.639395 C121.90169,131.763136 121.942866,131.886877 121.984041,132.009943 C122.387361,132.236183 122.655678,132.678211 123.096461,132.874106 C124.250055,133.203183 125.40365,133.532597 126.557245,133.862348 C127.874867,133.903145 129.194853,133.944954 130.512475,133.985751 C130.512475,134.027223 131.294476,134.355962 131.377503,134.355962 C131.377503,134.39676 132.201692,134.644579 132.614124,134.727185 C132.614124,134.685376 132.860503,134.603107 132.984705,134.603107 C133.107895,134.438569 133.231084,134.274368 133.355286,134.109492 C133.396462,134.109492 133.72553,133.203183 133.85007,132.751377 C133.890908,132.751377 133.97326,132.585827 133.97326,132.503558 C134.056286,132.462761 134.220314,132.215953 134.220314,132.133684 C134.261489,132.133684 134.515969,131.914862 134.591908,131.639395 C134.911863,131.550382 135.208868,131.187252 135.208868,131.145443 C135.291895,131.145443 135.538949,130.980905 135.580125,130.898635 C135.662476,130.898635 135.90953,130.734097 135.950706,130.651828 C136.3223,130.52775 136.692544,130.405358 137.063125,130.280943 C137.063125,130.240482 137.557908,129.951866 137.557908,129.911069 C137.763112,129.869597 138.175544,129.705059 138.175544,129.663587 C138.299746,129.663587 138.546463,129.581318 138.546463,129.54052 C138.793517,129.458251 139.288301,129.211444 139.288301,129.169972 C139.370315,129.169972 139.535355,129.087703 139.535355,129.046905 C139.783084,128.964636 140.030138,128.881693 140.27753,128.799086 C140.318706,128.717154 140.648111,128.47001 140.648111,128.42955 C141.018693,128.47001 141.388937,128.511482 141.760531,128.552279 C142.914125,128.593751 144.06772,128.634885 145.221315,128.676694 C145.221315,128.717154 146.621964,128.923502 146.828517,128.923502 C146.828517,128.964636 147.569343,129.169972 147.693545,129.169972 C147.693545,129.211444 148.854565,129.653472 148.929153,129.787328 C148.929153,130.158213 148.929153,130.52775 148.929153,130.898635 C148.668261,131.131282 148.187991,132.051752 148.187991,132.133684 C148.02295,132.256751 147.857573,132.380491 147.693545,132.503558 C147.321951,132.915915 145.389393,134.631766 144.726531,134.973992 C144.644517,134.973992 144.108558,135.302732 144.108558,135.343529 C144.06772,135.343529 143.902342,135.838156 143.861504,136.084963 C143.820328,136.084963 143.16118,137.649425 143.119329,137.813627 C143.078153,137.813627 142.789923,138.513589 142.748747,138.678127 C142.707909,138.678127 140.895503,141.435829 140.770964,141.518098 C140.770964,141.600367 138.670328,144.027981 138.670328,144.111262 C138.322359,144.55801 137.999704,145.023977 136.816071,145.469377 C136.002007,145.759679 134.456905,145.129174 133.97326,144.974751 C133.766706,144.974751 133.561502,144.974751 133.355286,144.974751 C133.355286,144.933953 127.916718,143.123021 127.793866,143.123021 C127.793866,143.081549 125.156258,141.640828 125.074244,141.640828 C124.476184,141.332993 123.425866,140.40679 123.343852,140.40679 C122.973271,139.994433 121.571609,138.595858 121.242879,138.307579 C121.242879,138.224972 120.248587,137.068484 120.207411,137.068484 C120.166573,136.944743 119.924244,136.084963 119.883405,135.961222 C119.800042,135.961222 119.71769,135.961222 119.635676,135.961222 C119.593488,136.084963 119.553662,136.20803 119.512824,136.331771 C118.763224,136.214099 117.831033,136.034051 117.163446,135.838156 C116.752027,135.838156 116.339595,135.838156 115.927838,135.838156 C115.927838,135.796347 114.815419,135.46727 114.692229,135.46727 C114.692229,135.425798 113.620648,134.891386 113.455608,134.849914 C113.41342,134.767982 111.189594,133.244992 111.10758,133.244992 C111.025566,133.120914 110.942202,132.997847 110.859851,132.874106 C110.498045,132.618195 110.021149,132.470516 109.747432,132.133684 C109.499027,132.203815 109.640105,132.119186 109.500377,132.256751 C109.247586,132.421963 109.267836,132.459052 109.252986,132.874106 C109.502402,133.085848 109.665418,133.44999 109.747432,133.491799 C109.747432,133.532597 110.160201,134.067683 110.242215,134.109492 C110.433918,134.340453 110.468344,134.557589 110.488594,134.973992 C110.348529,135.077166 110.470707,134.958146 110.365405,135.096722 C109.829783,135.2208 108.759552,135.549539 108.759552,135.591348 C108.593837,135.591348 106.286985,136.167232 106.286985,136.20803 C105.091539,136.372231 103.896431,136.538118 102.701998,136.702656 C102.208565,136.843255 100.351946,137.157159 99.6117954,136.949463 C99.6117954,136.907992 97.5114969,136.578578 97.2637676,136.578578 C97.2637676,136.538118 95.8219429,136.20803 95.6575776,136.20803 C95.6575776,136.167232 91.9487265,135.343529 91.7026848,135.343529 C91.3182657,135.232601 89.9290919,134.935892 89.3543195,135.096722 C88.013409,135.471991 86.2705291,135.454458 84.9032932,135.838156 C84.4915361,135.838156 82.3078737,136.043154 82.3078737,136.084963 C81.566711,136.084963 80.8248733,136.084963 80.0840481,136.084963 C79.6503531,136.203984 76.959082,136.383694 76.3748595,136.20803 C76.3748595,136.167232 74.7929699,135.962234 74.7929699,135.921436 C74.6279295,135.879627 73.8212907,135.138194 73.6562504,135.096722 C72.4786927,134.358997 71.3574984,133.513041 69.4536283,133.491799 C69.3810646,133.649594 69.3314512,133.756139 69.2062366,133.862348 C69.2767753,134.110504 69.1913863,133.968556 69.3304387,134.109492 C69.6379065,135.257551 71.040918,135.219788 71.1840205,136.454837 C70.8998406,136.70333 71.095594,136.737722 70.9366287,137.072193 C70.689237,137.360809 70.4418452,137.649425 70.1958035,137.936693 C69.083047,138.47178 67.9706279,139.007204 66.8582088,139.542627 C66.4467893,139.624896 65.0458027,139.994433 64.7562228,140.036242 C64.7562228,140.07704 63.6438037,140.40679 63.5209516,140.40679 C63.5209516,140.447588 62.3673568,140.900405 62.2850054,140.900405 C62.1608033,141.065281 59.6895859,143.329031 59.4421942,143.616636 C59.3598427,143.616636 58.618005,144.275463 58.3297751,144.604877 C58.205573,144.645674 56.8457621,145.798454 56.8457621,145.838914 C56.5595572,146.111009 56.28449,146.460316 55.8575452,146.580685 C55.816032,146.785684 55.1744335,147.262777 54.8689907,147.321107 C54.8689907,147.444848 53.9617752,148.021069 53.5095174,148.18527 C53.5095174,148.226742 49.1003418,149.667127 48.6885848,149.791205 C48.4141926,149.387277 47.8984837,149.409193 47.4529761,149.173849 C47.4529761,149.13204 45.6817457,148.357564 44.6101649,147.567915 C43.9935418,147.22198 42.5905302,145.756982 42.5085163,145.716185 C42.5085163,145.633916 41.7666786,144.687146 41.6431515,144.604877 C41.6431515,144.522608 40.9843402,143.534367 40.9013138,143.493906 C40.9013138,143.4113 38.3058943,139.747626 38.1827047,139.665019 C37.9353129,139.377752 36.6997042,138.224972 36.4523125,137.936693 C36.3702986,137.936693 34.7634335,136.867194 34.5977182,136.825385 C34.55688,136.743116 33.6917852,136.20803 33.6096362,136.20803 C33.5263061,136.084963 33.0319276,135.673617 32.9917307,135.591348 C32.5919888,135.211359 32.2046334,134.944322 32.1266021,134.232559 C32.166664,134.232559 32.208616,134.232559 32.2497242,134.232559 C32.6117666,134.551857 34.7853714,134.489144 35.5872852,134.479366 C37.1114613,134.274368 40.1604886,133.780416 40.1604886,133.738607 C40.6130838,133.698146 43.9915167,133.327261 43.9915167,133.367721 C44.2800842,133.367721 45.5987193,133.698146 45.5987193,133.738607 C45.7627471,133.780416 46.4225709,134.149952 46.4640841,134.232559 C46.5471106,134.232559 47.1637336,134.644579 47.2059219,134.727185 C47.2879358,134.727185 48.6885848,135.920425 48.936314,136.20803 C49.0183279,136.20803 50.2961248,137.27854 50.418977,137.443415 C50.5009909,137.443415 51.1193015,137.854424 51.1611522,137.936693 C51.32653,137.978165 51.736937,138.224972 51.7791253,138.307579 C51.9023149,138.307579 52.1493691,138.389848 52.1493691,138.430982 C52.9735582,138.389848 54.621599,138.224972 54.621599,138.183501 C54.8689907,138.183501 55.1163825,138.183501 55.3627617,138.183501 C55.3627617,138.14304 55.9807348,137.978165 55.9807348,137.936693 C56.1457751,137.936693 56.3108155,137.936693 56.4751808,137.936693 C56.4751808,137.896233 56.8045864,137.813627 56.9696268,137.813627 C58.0412076,137.443415 59.1127885,137.072193 60.1833569,136.702656" id="path20" fill="#FFFFFF"></path>
                        <path d="M80.0840481,142.876213 C80.372278,142.876213 80.6594954,142.876213 80.9490754,142.876213 C81.1124282,143.62203 81.360495,143.376234 81.8130902,143.740714 C81.9372923,143.987521 82.060482,144.234329 82.1846841,144.481136 C82.6949928,144.388752 83.0132608,144.245118 83.6676845,144.234329 C83.6160461,144.90462 83.3025032,145.271459 83.0497114,145.716185 C83.0497114,145.798454 83.0497114,145.880723 83.0497114,145.962992 C82.9676975,146.004464 82.8846711,146.045261 82.8026572,146.086733 C82.8026572,146.169339 82.8026572,146.251271 82.8026572,146.33354 C82.761144,146.33354 82.7203058,146.33354 82.6781175,146.33354 C82.5140897,146.538876 82.3500619,146.744886 82.1846841,146.951233 C81.5805487,146.788381 81.4995473,146.292069 81.1954546,145.838914 C81.1134407,145.798454 81.0310893,145.756982 80.9490754,145.716185 C80.9068872,145.551309 80.8657115,145.387108 80.8248733,145.22257 C80.7428594,145.180761 80.6594954,145.140301 80.5788316,145.098492 C80.5788316,145.016223 80.5788316,144.933953 80.5788316,144.851684 C80.2406508,144.244106 80.0796605,143.873558 80.0840481,142.876213" id="path22" fill="#FFFFFF"></path>
                        <path d="M107.028148,143.247099 C107.024772,143.89716 106.823619,144.182405 106.657566,144.604877 C106.657566,144.727943 106.657566,144.851684 106.657566,144.974751 C106.61639,144.974751 106.574202,144.974751 106.534377,144.974751 C106.45135,145.551309 106.369336,146.12753 106.286985,146.703752 C106.121607,146.703752 105.956567,146.703752 105.792539,146.703752 C105.669012,146.538876 105.54481,146.374338 105.421957,146.210137 C105.338594,146.210137 105.25658,146.210137 105.174566,146.210137 C104.968012,145.962992 104.761796,145.716185 104.55693,145.469377 C104.473229,145.469377 104.391215,145.469377 104.309201,145.469377 L104.062147,145.22257 C104.062147,145.140301 104.062147,145.058032 104.062147,144.974751 C103.855593,144.809875 103.649377,144.645674 103.444174,144.481136 C103.23762,143.987521 103.031742,143.493906 102.825525,142.99928 C102.908552,142.99928 102.990566,142.99928 103.073592,142.99928 C103.314909,143.282839 103.535638,143.218102 103.937945,143.369828 C105.159715,143.830401 105.757438,143.327345 107.028148,143.247099" id="path24" fill="#FFFFFF"></path>
                        <path d="M75.6336968,139.789435 C75.7096356,139.354824 75.766674,139.222654 76.2516699,139.171742 C76.6620769,139.627594 77.5871803,139.659962 78.2294538,139.912164 C78.2294538,139.953973 79.8774945,140.40679 80.0840481,140.40679 C80.0840481,140.447588 81.1954546,140.653598 81.4425089,140.653598 C81.4425089,140.694395 82.1023327,140.776664 82.4320758,140.776664 C82.4320758,140.818473 83.3379414,140.900405 83.7908741,140.900405 C84.7277902,141.161374 86.4716826,141.123274 87.6229148,141.023472 C89.847753,140.776664 92.0729286,140.529857 94.2967542,140.28305 C95.8914691,140.723729 98.0056053,140.899731 99.9837268,140.900405 C100.724552,140.900405 102.208565,140.818473 102.208565,140.776664 C102.701998,140.776664 103.690553,140.694395 103.690553,140.653598 C104.019958,140.653598 106.162783,140.324521 106.162783,140.28305 C106.369336,140.28305 107.769985,139.953973 107.769985,139.912164 C108.058553,139.872041 108.346783,139.830232 108.63535,139.789435 C109.197297,139.569601 109.775782,139.248616 110.488594,139.171742 C110.667472,139.475531 110.878076,139.515654 110.983378,139.912164 C110.612796,140.036242 109.870959,140.365656 109.870959,140.40679 C109.747432,140.40679 109.129796,140.612126 109.129796,140.653598 C109.005594,140.653598 108.387621,140.858934 108.387621,140.900405 C108.223593,140.900405 108.058553,140.900405 107.892837,140.900405 C107.892837,140.941203 106.904958,141.229819 106.904958,141.271291 C106.080769,141.353223 105.25658,141.435829 104.433403,141.518098 C104.087122,141.615203 101.576079,141.809412 101.095133,141.640828 C101.095133,141.600367 100.930768,141.518098 100.847404,141.518098 C100.847404,141.476626 100.601362,141.39402 100.47716,141.39402 C100.47716,141.353223 100.47716,141.311751 100.47716,141.271291 C100.01309,141.153619 99.1943007,141.722085 98.4993763,141.518098 C97.3386939,141.176209 96.1101728,141.023472 94.5451585,141.023472 C94.0507125,141.023472 93.0611456,141.105741 93.0611456,141.147213 C92.5677121,141.147213 91.5781451,141.229819 91.5781451,141.271291 C91.2079013,141.271291 90.4660636,141.353223 90.4660636,141.39402 C90.0954822,141.39402 89.7235508,141.39402 89.3543195,141.39402 C88.0910353,141.74535 86.4865328,141.764906 84.9032932,141.764906 C84.2853201,141.764906 83.6676845,141.764906 83.0497114,141.764906 C81.978468,141.558896 80.9068872,141.353223 79.8363188,141.147213 C79.8363188,141.105741 79.2595214,140.941203 78.9712915,140.900405 C78.9712915,140.858934 78.7242373,140.776664 78.5996976,140.776664 C78.5996976,140.735867 77.982062,140.529857 77.8588724,140.529857 C77.8588724,140.48906 77.4872785,140.324521 77.4872785,140.28305 C77.3219007,140.28305 77.1578729,140.28305 76.9938451,140.28305 C76.9938451,140.241241 76.086292,139.912164 75.6336968,139.789435" id="path26" fill="#FFFFFF"></path>
                        <path d="M41.6431515,125.094952 C41.1487055,125.136424 40.655272,125.178233 40.1604886,125.218693 C40.1604886,125.260502 40.1604886,125.300962 40.1604886,125.342434 C39.6245294,125.342434 39.0889077,125.342434 38.553286,125.342434 C38.2650561,125.342434 37.9764886,125.342434 37.6882587,125.342434 C37.2711015,125.224425 36.7543802,125.109787 36.2049207,125.094952 C36.2049207,125.054155 36.2049207,125.012683 36.2049207,124.971885 C36.2460965,124.971885 36.2869347,124.971885 36.3291229,124.971885 C36.3291229,124.848145 36.3291229,124.725078 36.3291229,124.601 C36.3702986,124.601 36.4101243,124.601 36.4523125,124.601 C36.4523125,124.519068 36.4523125,124.436462 36.4523125,124.354193 C36.6062151,124.06389 36.834369,123.828209 37.0702856,123.61377 C37.1114613,123.531501 37.1522995,123.449232 37.1944877,123.366963 C37.3996912,123.366963 37.6059073,123.366963 37.8124608,123.366963 C38.1101409,123.724024 38.6248372,123.882831 38.9238674,124.231463 C39.1732841,124.160321 39.0308567,124.246299 39.1709216,124.107385 C39.8499832,123.454627 38.5796115,122.098534 40.1604886,122.007836 C40.3656921,122.460991 40.5729206,122.913808 40.7781242,123.366963 C40.8192999,123.61377 40.8601381,123.860578 40.9013138,124.107385 C40.9843402,124.148183 41.0663541,124.189654 41.1487055,124.231463 C41.1487055,124.313732 41.1487055,124.396001 41.1487055,124.477933 C41.1908937,124.477933 41.2320694,124.477933 41.2729076,124.477933 C41.4507732,124.695407 41.5530374,124.774979 41.6431515,125.094952" id="path28" fill="#FFFFFF"></path>
                        <path d="M141.141545,121.391492 C141.141545,121.308211 141.141545,121.225942 141.141545,121.143673 C141.760531,120.403251 142.378166,119.662828 142.996139,118.921057 C143.243531,119.003327 143.861504,119.291943 143.861504,119.291943 C143.861504,119.53875 143.861504,119.785221 143.861504,120.032365 C143.943518,120.074174 144.108558,120.320982 144.108558,120.403251 C144.495002,120.491926 144.749482,120.781891 145.098125,120.896866 C145.385343,120.896866 145.963153,120.979135 145.963153,121.020606 C146.25172,121.061404 146.538937,121.102876 146.828517,121.143673 C146.828517,121.185145 146.828517,121.225942 146.828517,121.267414 C146.95137,121.267414 147.075572,121.267414 147.198761,121.267414 C147.218674,121.27854 147.331401,121.453194 147.446153,121.514221 C147.446153,121.67876 147.446153,121.843298 147.446153,122.007836 C146.374572,122.049645 145.303329,122.090442 144.231748,122.131914 C144.231748,122.090442 144.231748,122.049645 144.231748,122.007836 C143.654951,121.967376 143.078153,121.925567 142.501356,121.885444 C142.501356,121.843298 142.501356,121.8025 142.501356,121.761029 C142.296152,121.761029 141.88372,121.67876 141.88372,121.638299 C141.760531,121.638299 141.265747,121.431952 141.141545,121.391492" id="path30" fill="#FFFFFF"></path>
                        <path d="M138.422936,121.391492 C138.958557,120.403251 140.27753,118.139163 140.27753,118.056894 C140.359882,118.016097 140.441895,117.974625 140.523909,117.933828 C140.523909,117.851559 140.936679,117.356932 141.141545,117.192394 C141.141545,117.110125 141.141545,117.027856 141.141545,116.945924 C141.348773,116.781048 142.748747,114.681499 142.748747,114.599567 C142.789923,114.599567 142.832111,114.599567 142.87295,114.599567 C142.914125,114.435029 143.078153,114.105952 143.119329,114.105952 C143.119329,113.69427 143.202355,112.871578 143.243531,112.871578 C143.401146,112.309855 142.914125,104.96902 142.87295,104.96902 C142.87295,104.352001 142.625558,100.523115 142.625558,100.030511 C142.584382,100.030511 142.542531,100.030511 142.501356,100.030511 C142.46018,99.206134 142.296152,97.5590653 142.254301,97.5590653 C142.254301,97.4366731 141.925571,96.4480947 141.88372,96.4480947 C141.88372,96.3263768 141.554314,95.460865 141.513139,95.460865 C141.513139,95.3377984 141.059531,93.8549309 141.018693,93.8549309 C141.018693,93.6499323 140.770964,92.6219052 140.770964,92.49749 C140.730125,92.49749 140.68895,92.49749 140.648111,92.49749 C140.648111,92.3744235 140.441895,91.7574049 140.40072,91.7574049 C140.40072,91.6744614 139.947112,90.6457599 139.905936,90.6457599 C139.905936,90.5220191 139.329139,89.1635667 139.288301,89.1635667 C139.122923,88.6696147 138.958557,88.176337 138.793517,87.6817106 C138.835705,87.6817106 138.917719,87.8462489 138.917719,87.9295296 C139.287288,88.1645361 139.98795,89.4103741 140.030138,89.4103741 C140.030138,89.4926433 140.730125,90.8935789 140.770964,90.8935789 C140.770964,91.0152968 140.977517,91.5105975 141.018693,91.5105975 C141.018693,91.6323153 141.224909,92.127616 141.265747,92.127616 C141.306923,92.3744235 141.471288,92.8677011 141.513139,92.8677011 C141.513139,92.9506446 141.59549,93.1145086 141.636328,93.1145086 C142.089936,94.7201055 142.542531,96.3263768 142.996139,97.9306251 C143.078153,98.7128563 143.16118,99.4950875 143.243531,100.277656 C143.512861,101.191046 143.595887,102.452731 143.861504,103.363423 C143.861504,103.857375 144.35595,113.776876 144.35595,114.476501 C143.811891,115.422933 142.501356,116.616847 142.501356,116.698779 C142.337328,116.822857 141.59549,117.645211 141.388937,117.810087 C141.388937,117.892019 140.895503,118.591981 140.895503,118.67425 C140.730125,118.798328 140.40072,119.209674 140.40072,119.291943 C140.194166,119.456481 139.98795,119.621357 139.783084,119.785221 C139.783084,119.868164 139.165111,120.69153 139.165111,120.773799 C138.917719,120.979135 138.670328,121.185145 138.422936,121.391492" id="path32" fill="#FFFFFF"></path>
                        <path d="M45.2271254,84.1006427 C45.1859497,84.225058 45.144774,84.3487988 45.1039358,84.4722025 C45.0627601,84.4722025 43.1683401,87.9295296 43.1264894,87.9295296 C43.1264894,88.0532704 41.2803328,89.7461941 41.2391571,89.7461941 C41.2391571,89.5408584 40.3424042,89.8793757 40.3424042,90.1130335 C40.3005535,90.1130335 40.037299,90.6457599 40.037299,90.7688265 C39.9954482,90.7688265 38.8003402,92.2506826 38.8003402,92.3744235 C38.759502,92.3744235 38.4712721,93.239261 38.4300964,93.239261 C38.3879082,93.5683375 38.1827047,94.637162 38.1827047,94.8431721 C37.680496,96.4534894 37.9353129,99.1231905 37.9353129,101.140808 C37.9353129,101.84077 37.853299,103.240357 37.8124608,103.240357 C37.8124608,103.857375 37.8124608,104.475068 37.8124608,105.093435 C37.7702726,105.093435 37.7304469,105.093435 37.6882587,105.093435 C37.6882587,105.504107 37.6059073,106.327135 37.5647316,106.327135 C37.5647316,106.656549 37.4827177,107.314702 37.4405294,107.314702 C37.4405294,107.561847 37.3585155,108.054787 37.3176773,108.054787 C37.2039379,108.367005 36.834369,109.876846 36.9460835,110.278077 C36.9879342,110.278077 37.2765016,111.883337 37.3176773,111.883337 C37.3176773,112.047538 38.8826917,116.574701 38.9238674,116.574701 C38.9660556,116.822857 39.0068938,117.069327 39.0480695,117.316135 C39.4321511,118.200191 39.9657477,119.21136 40.0362864,120.403251 C39.9954482,120.403251 39.953935,120.403251 39.9127593,120.403251 C39.9127593,120.361442 39.9127593,120.320982 39.9127593,120.279173 C39.3930004,119.829053 38.8418535,118.427443 38.8003402,118.427443 C38.759502,118.262904 38.05479,116.888605 37.9353129,116.451972 C37.2765016,114.476501 36.6176903,112.500355 35.9578665,110.524547 C35.7860761,109.958441 36.219771,109.016729 36.3291229,108.672817 C36.3291229,108.42601 36.3291229,108.178865 36.3291229,107.931721 C36.3702986,107.931721 36.4523125,107.43878 36.4523125,107.191636 C36.4934882,107.191636 36.6578535,106.327135 36.6997042,106.327135 C36.6997042,105.915452 36.7817181,105.093435 36.8228938,105.093435 C36.863732,103.857375 36.9049077,102.621989 36.9460835,101.387952 C36.9879342,101.387952 37.0702856,100.06996 37.0702856,99.412144 C37.1114613,99.412144 37.3176773,97.9727712 37.3176773,97.9306251 C37.2366759,97.2431383 36.6578535,96.0219136 36.9460835,95.090991 C36.9879342,95.090991 37.1944877,94.3498944 37.1944877,94.2261535 C37.2356634,94.2261535 38.3058943,91.839674 38.3058943,91.7574049 C38.34707,91.7574049 38.6352999,91.1390376 38.6774881,91.1390376 C38.7183263,90.7688265 39.5016773,90.3989525 39.5425155,90.028067 C39.5847037,90.028067 40.4487185,89.4171175 40.5307324,89.1699729 C40.5719081,89.1699729 41.5466248,88.8860769 41.587463,88.6800669 C41.6296513,88.6800669 42.549692,87.6817106 42.6317059,87.3114995 C42.6738942,87.3114995 42.8787602,86.8178846 42.8787602,86.6938066 C42.9209484,86.6938066 43.2085033,86.0761137 43.2493415,86.0761137 C43.3327055,85.8293062 43.4147194,85.5824988 43.4970708,85.3360285 C43.5389215,85.3360285 44.1157189,84.3066528 44.1157189,84.225058 C44.1977328,84.1829119 45.1039358,83.1542104 45.3513276,82.8666056 C45.4333415,82.8666056 45.5167054,82.8666056 45.5987193,82.8666056 C45.8008853,83.2479433 45.8322733,83.0884625 45.8457735,83.7304316 C45.5828565,83.8814831 45.5767814,84.00927 45.2271254,84.1006427" id="path34" fill="#FFFFFF"></path>
                        <path d="M33.9800826,113.73473 C32.5265802,113.763052 31.6245622,113.351706 30.5193658,113.118386 C30.6235201,112.977786 30.5036717,113.099504 30.6427579,112.994307 C30.8552853,112.74514 30.924744,112.891471 31.1374064,112.747163 C31.2195553,112.624433 31.3026154,112.500355 31.3845956,112.377289 C31.4666095,112.377289 31.5487584,112.377289 31.6307386,112.377289 C31.6729268,112.294008 31.7142038,112.212076 31.7550757,112.130144 C32.0972053,111.916717 32.4456463,111.887383 32.9917307,111.883337 C32.9917307,111.925146 32.9917307,111.964932 32.9917307,112.007078 C33.1139415,112.007078 33.2391899,112.007078 33.362177,112.007078 C33.362177,112.047538 33.362177,112.08901 33.362177,112.130144 C33.403454,112.130144 33.4443259,112.130144 33.4854679,112.130144 C33.7000878,112.554302 33.8747808,113.186831 33.9800826,113.73473" id="path36" fill="#FFFFFF"></path>
                        <path d="M146.456924,109.290173 C146.456924,108.672817 146.456924,108.054787 146.456924,107.43878 C146.546363,107.164325 146.750216,106.91718 146.828517,106.574617 C147.215637,106.398952 147.371227,106.233739 147.940936,106.203394 C148.15964,106.589452 148.426945,106.592487 149.052006,106.574617 C149.259572,106.330507 149.675379,106.156191 150.041573,106.079316 C150.260614,106.411427 150.571794,106.473466 150.906937,106.697346 C150.947776,106.779615 150.988951,106.861547 151.029789,106.944491 C151.236005,106.985626 151.442559,107.02676 151.648775,107.067895 C151.648775,107.108692 151.648775,107.149827 151.648775,107.191636 C151.490822,107.274916 151.481372,107.384159 151.401383,107.43878 C151.318019,107.43878 150.988951,107.685925 150.906937,107.80798 C150.74156,107.849789 150.329127,108.096933 150.288964,108.178865 C150.123586,108.221011 149.958546,108.261472 149.794518,108.302943 C148.865027,108.801279 147.872085,109.254433 146.456924,109.290173" id="path38" fill="#FFFFFF"></path>
                        <path d="M34.5977182,95.460865 C34.6233686,96.580602 34.4441531,97.5529963 34.1042847,98.3018478 C33.5003519,98.052343 32.7642855,97.6821318 32.2497242,97.3136065 C32.0435419,97.0664619 31.8381359,96.8189802 31.6307386,96.5718356 C31.3888144,96.3290742 30.8111058,96.0094383 31.0141492,95.7080096 C31.232988,95.3067789 31.5065702,95.1091981 32.1266021,95.090991 C32.3285655,95.4682827 32.530934,95.6854193 33.1139415,95.7080096 C33.1139415,95.6665378 33.1139415,95.6257404 33.1139415,95.584943 C33.5263061,95.584943 33.9389069,95.584943 34.3516765,95.584943 C34.3516765,95.584943 34.3726018,95.4999765 34.5977182,95.460865" id="path40" fill="#FFFFFF"></path>
                        <path d="M145.467357,95.2147319 C145.436981,94.8286738 145.138963,94.2261535 145.098125,94.2261535 C145.098125,94.103087 144.602329,92.8677011 144.602329,92.7446346 C144.562504,92.7446346 144.520315,92.7446346 144.47914,92.7446346 C144.237148,92.2493339 144.031607,91.6704154 143.984356,91.0152968 C144.965485,91.0065304 145.307379,91.2833458 145.963153,91.5105975 C146.168356,91.5105975 146.374572,91.5105975 146.579776,91.5105975 C146.621964,91.5921923 146.662802,91.6744614 146.70499,91.7574049 C146.787342,91.7574049 146.95137,91.839674 146.95137,91.8791228 C147.239599,91.8791228 147.528167,91.8791228 147.816397,91.8791228 C147.816397,91.839674 147.816397,91.7975279 147.816397,91.7574049 C148.240642,91.6427675 148.641936,91.8258501 148.929153,91.8791228 C149.000705,92.069623 149.023655,92.0834469 149.052006,92.3744235 C148.887978,92.49749 148.228154,93.239261 148.064126,93.3623275 C147.322963,94.1078073 146.69014,94.9507289 145.467357,95.2147319" id="path42" fill="#FFFFFF"></path>
                        <path d="M40.6542595,85.8293062 C40.4372433,85.4941606 40.1139128,85.4452712 39.7899072,85.2136363 C39.6657051,85.0484237 39.3362994,84.7176613 39.2951237,84.7176613 C38.7341891,83.9465567 38.2245554,83.1575821 37.8124608,82.249587 C38.2235429,82.249587 39.0480695,82.3311818 39.0480695,82.3733279 C39.2529355,82.4141253 39.459489,82.4549227 39.6657051,82.4963944 C39.7068808,82.4141253 39.747719,82.3311818 39.7899072,82.249587 C39.8709086,82.249587 40.3656921,82.1251718 40.5307324,82.1251718 C40.6697848,82.3665845 41.3707843,83.1963565 41.6431515,83.2368167 C41.7832164,83.2577212 42.137935,83.1956822 42.137935,83.2368167 C41.7305655,83.6087137 41.55405,84.4418574 41.2718951,84.9654802 C41.2320694,84.9654802 41.1908937,84.9654802 41.1487055,84.9654802 C41.1487055,85.0484237 40.9549772,85.6350971 40.6542595,85.8293062" id="path44" fill="#FFFFFF"></path>
                        <path d="M137.681098,83.9775762 C137.591322,83.5456632 137.367218,83.3025646 137.186315,82.9903465 C137.186315,82.9087517 137.186315,82.8251339 137.186315,82.743539 C136.940273,82.5371919 136.692544,82.3311818 136.445489,82.1265205 C136.089421,81.5961542 136.084358,80.9052957 136.074908,80.0262972 C136.588592,80.0380981 137.852551,80.483835 138.298734,80.2731046 C138.422936,80.1085663 138.546463,79.9447023 138.670328,79.7794897 C139.164099,79.8216358 139.658544,79.8617589 140.153328,79.9032306 C140.153328,79.9447023 140.153328,79.9854997 140.153328,80.0262972 C140.112152,80.0262972 140.069964,80.0262972 140.029126,80.0262972 C139.9893,80.2323072 139.576531,81.1379421 139.535355,81.1379421 C139.535355,81.2195369 139.288301,81.7971067 139.288301,81.8793759 C139.205274,81.9201733 139.122923,81.9609707 139.040571,82.0017681 C138.958557,82.2482383 138.875531,82.4963944 138.793517,82.743539 C138.711503,82.7843364 138.408086,83.7884246 137.681098,83.9775762" id="path46" fill="#FFFFFF"></path>
                        <path d="M56.4333301,43.9183678 L56.9333301,43.4317012 C56.6937846,43.4997012 56.4333301,43.9183678 56.4333301,43.9183678" id="path48" fill="#231F20"></path>
                        <path d="M88.9827256,133.738607 C89.6837252,133.532597 90.3833747,133.327261 91.0836992,133.120914 C91.2615647,132.816788 91.4718308,132.777339 91.5781451,132.380491 C91.5369694,132.380491 91.4951187,132.380491 91.453943,132.380491 C91.4131048,132.174481 91.3719291,131.969146 91.3307534,131.763136 C91.2899152,131.763136 90.960172,131.022713 90.960172,130.898635 C90.9183213,130.898635 90.8363074,130.569559 90.8363074,130.405358 C90.7961442,130.405358 90.7961442,129.993675 90.8363074,129.787328 C90.8771456,129.787328 90.9183213,129.787328 90.960172,129.787328 C90.960172,129.376319 90.960172,128.963962 90.960172,128.552279 C90.6743046,128.444048 90.4151002,128.426515 89.9712801,128.42955 C89.8302027,128.570149 89.9712801,128.478776 89.7235508,128.552279 C89.4764966,128.923502 89.2301174,129.293713 88.9827256,129.663587 C88.9827256,129.869597 88.9827256,130.075607 88.9827256,130.280943 C88.8470483,130.722971 88.3387646,132.370714 88.6111318,133.120914 C88.65332,133.120914 88.9405374,133.614866 88.9827256,133.738607" id="path50" fill="#231F20"></path>
                        <path d="M91.453943,126.453742 C91.7951614,126.364392 91.7310353,126.418676 91.8255369,126.082856 C92.0121776,125.89539 91.8781878,124.418929 91.9487265,124.354193 C91.9487265,124.313732 91.9487265,124.271923 91.9487265,124.231463 C92.1981433,124.442194 92.6905642,125.178233 92.6905642,125.218693 C92.7729156,125.218693 93.8033208,125.67151 93.8033208,125.712645 C93.9683611,125.712645 94.7915377,125.918655 94.7915377,125.959452 C95.038592,126.000924 95.5333755,126.165462 95.5333755,126.207271 C95.6987533,126.247731 96.1921867,126.453742 96.2745382,126.453742 C96.3157139,126.536011 96.3568896,126.61828 96.3987403,126.700549 C96.9346995,126.782818 97.4699837,126.865087 98.0056053,126.947356 C98.0056053,126.905885 98.0056053,126.865087 98.0056053,126.823615 C98.1291325,126.823615 98.8291195,126.41227 98.8709702,126.330001 C99.0761737,126.165462 99.2827272,126.000924 99.4889433,125.836049 C99.4889433,125.754117 99.4889433,125.67151 99.4889433,125.589241 C99.5297815,125.589241 99.5709572,125.589241 99.6117954,125.589241 C99.7309349,125.437178 99.7015719,125.349851 99.8595246,125.218693 C99.8595246,124.930077 99.8595246,124.642809 99.8595246,124.354193 C98.0322683,124.374423 97.7669887,123.067557 96.2745382,122.74927 C95.9451325,122.090442 95.6153894,121.431952 95.2863212,120.773799 C95.2863212,120.567789 95.2043073,120.156443 95.1631316,120.156443 C94.9464529,119.412986 95.2599958,118.18603 95.2863212,117.562942 C96.0281589,116.904789 96.7689841,116.245287 97.5114969,115.587134 C97.7177129,115.340664 97.9225789,115.094194 98.1291325,114.847049 C98.8291195,114.847049 99.5297815,114.847049 100.229768,114.847049 C100.489985,114.610357 102.455957,114.805577 102.455957,114.847049 C102.619984,114.887509 102.78435,114.928981 102.94939,114.970116 C103.073592,115.134654 103.196782,115.299192 103.320984,115.46373 C103.403335,115.46373 104.927174,116.163355 104.927174,116.204827 C105.050026,116.204827 105.54481,116.4105 105.54481,116.451972 C105.710525,116.492432 106.039593,116.658319 106.039593,116.698779 C106.162783,116.698779 106.410174,116.781048 106.410174,116.822857 C106.574202,116.86298 108.264769,117.521808 108.264769,117.562942 C108.551649,117.604751 108.841566,117.645211 109.129796,117.68702 C110.163239,118.028235 111.381972,118.163102 112.466041,117.810087 C112.631419,117.810087 115.680783,117.151934 115.680783,117.192394 C115.844811,117.192394 116.916392,117.645211 116.916392,117.68702 C116.999418,117.68702 117.163446,117.769289 117.163446,117.810087 C118.110825,117.810087 120.006258,117.892019 120.006258,117.933828 C120.335663,117.933828 120.995825,118.016097 120.995825,118.056894 C121.284054,118.056894 121.571609,118.056894 121.860852,118.056894 C122.665128,118.28718 123.690133,118.424745 124.702651,118.427443 C125.11542,118.427443 126.186326,118.551183 126.309853,118.551183 C126.309853,118.591981 126.309853,118.633453 126.309853,118.67425 C126.668622,118.79934 128.246461,118.46824 128.410489,118.427443 C128.493516,118.303702 128.823259,118.056894 128.905273,118.056894 C129.029475,117.892019 130.430461,116.369702 130.883732,115.958357 C131.007259,115.793818 131.584056,115.299192 131.624894,115.216586 C131.748084,115.216586 132.242867,115.011587 132.242867,114.970116 C132.406895,114.970116 133.066719,114.847049 133.231084,114.847049 C133.653979,114.692289 134.261489,114.14675 134.344516,114.105952 C134.344516,113.36553 134.344516,112.624433 134.344516,111.883337 C134.656034,111.538076 134.1383,109.043028 134.097124,109.043028 C134.056286,108.879164 133.85007,108.384875 133.85007,108.302943 C133.72553,108.261472 133.189909,107.727059 133.107895,107.685925 C133.107895,107.602981 132.737651,106.367595 132.614124,105.83352 C132.531097,105.792386 132.449083,105.750914 132.365719,105.710117 C132.324881,105.586039 132.283706,105.463309 132.242867,105.338894 C131.677545,104.900575 130.086543,104.901586 130.086543,104.860789 C129.840501,104.819317 129.276866,104.392799 129.276866,104.352001 C128.988299,104.268721 128.262324,104.036412 128.164447,104.103508 C127.759103,104.548234 127.957894,105.586039 127.916718,105.586039 C128.082434,106.039193 128.659231,107.356848 128.659231,107.43878 C128.700069,107.43878 128.988299,108.672817 129.029475,109.167106 C128.988299,109.167106 128.947461,109.167106 128.905273,109.167106 C128.784446,109.668813 128.123272,110.236268 128.040245,110.278077 C128.040245,110.360346 127.339921,111.636529 127.299083,111.636529 C127.299083,111.718461 126.845475,112.294008 126.804637,112.377289 C126.639259,112.377289 126.474893,112.377289 126.309853,112.377289 C125.988885,112.100473 124.826853,112.171616 124.826853,112.130144 C124.126866,112.130144 117.606929,112.08901 117.039244,111.883337 C117.081432,111.758922 117.369662,111.265307 117.410838,111.265307 C117.672405,110.419014 117.750706,109.515739 117.53504,108.672817 C117.328487,108.055799 117.122608,107.43878 116.916392,106.821424 C117.078057,106.737469 117.987635,106.121462 118.152001,106.079316 C118.192839,105.997384 120.583055,104.556663 120.624231,104.475068 C120.706245,104.475068 121.159852,104.227249 121.242879,104.227249 C121.284054,104.145654 121.32523,104.063385 121.366068,103.98179 C121.695812,103.939644 123.220663,103.528636 123.220663,103.487164 C123.303014,103.487164 123.879474,103.281154 124.084677,103.240357 C124.168041,103.116278 124.991893,102.29325 125.074244,102.251778 C125.074244,101.923039 124.991893,101.2632 124.949705,101.2632 C124.991893,100.812742 125.156258,99.906096 125.197434,99.906096 C125.197434,99.7830295 125.567678,98.7536537 125.567678,98.6720589 C125.651042,98.6299128 125.816082,98.3827682 125.816082,98.3018478 C125.898096,98.2597017 126.145488,97.9306251 126.186326,97.9306251 C126.186326,97.8486931 126.391867,97.3136065 126.433043,97.3136065 C126.722285,95.6665378 127.217069,92.3744235 127.17488,92.3744235 C127.17488,92.2506826 126.722285,91.0152968 126.680097,91.0152968 C126.680097,90.6042882 127.010853,89.2879819 127.051691,89.2879819 C127.287607,88.6332005 126.946389,87.6739557 126.804637,87.3114995 C126.722285,87.3533084 126.145488,88.0111244 126.062461,88.0519218 C125.857258,88.6281429 125.651042,89.2057128 125.444488,89.7819339 C125.40365,90.2340771 125.11542,91.7574049 125.074244,91.7574049 C125.074244,91.9212688 124.868703,92.6219052 124.826853,92.6219052 C124.826853,92.8677011 124.620637,93.7322015 124.579461,93.7322015 C124.579461,93.8549309 124.290894,94.4325007 124.20888,94.4732981 C124.168041,94.637162 123.023897,96.566778 122.973271,97.3136065 C121.891565,97.5833414 121.788288,99.5004822 120.624231,100.030511 C120.501041,100.030511 114.568027,102.087914 114.568027,102.128037 C114.444837,102.128037 111.353622,103.321277 111.353622,103.363423 C111.27262,103.363423 108.759552,104.556663 108.759552,104.598809 C108.63535,104.556663 108.51081,104.517214 108.387621,104.475068 C108.382558,104.477765 107.996114,105.142662 107.892837,105.215153 C107.812173,105.215153 103.196782,107.931721 103.196782,107.931721 C103.113755,107.931721 102.660823,108.178865 102.578809,108.178865 C102.578809,108.178865 99.1581876,110.072404 99.1183619,110.154336 C99.0353355,110.154336 97.6353615,110.854635 97.6353615,110.894758 C97.5114969,110.936567 97.2637676,111.101443 97.2637676,111.142915 C97.2215794,111.142915 97.1817537,111.142915 97.1409155,111.142915 C97.1409155,111.101443 97.1409155,111.060308 97.1409155,111.018837 C97.0167134,111.018837 96.7689841,110.936567 96.7689841,110.894758 C95.9451325,110.854635 94.2967542,110.854635 94.2967542,110.894758 C94.0915507,110.894758 93.6801312,110.977702 93.6801312,111.018837 C93.3908887,111.060308 91.601433,111.539762 90.8363074,112.254222 C90.7961442,112.418086 90.6311039,112.747163 90.5889157,112.747163 C90.5889157,112.829769 90.1363204,113.73473 90.0954822,113.858808 C89.5838234,113.393852 89.6867627,112.59274 88.8585235,112.377289 C87.9280201,111.501325 85.0578708,112.394147 83.7908741,112.007078 C83.5856706,112.007078 83.172901,111.925146 83.172901,111.883337 C82.7118681,111.672606 82.3898876,111.583257 82.060482,111.265307 C81.978468,111.142915 80.0840481,110.072404 80.0840481,110.031607 C79.8363188,109.948326 78.7242373,109.454711 78.7242373,109.414251 C78.5996976,109.414251 77.4872785,109.0845 77.4872785,109.043028 C77.1170347,109.001557 76.7464533,108.961096 76.3748595,108.91895 C76.2516699,108.755086 76.1284802,108.589874 76.0042781,108.42601 C75.7983996,108.384875 75.5928586,108.343404 75.3866425,108.302943 C75.3866425,108.261472 75.3866425,108.221011 75.3866425,108.178865 C74.8510208,108.138405 73.77944,107.972855 73.77944,107.931721 C73.6974261,107.931721 71.5542643,106.861547 71.5542643,106.821424 C71.3082226,106.738481 71.0604934,106.656549 70.8134391,106.574617 C70.8134391,106.532471 70.8134391,106.492685 70.8134391,106.450539 C70.5663849,106.367595 69.4536283,105.874318 69.4536283,105.83352 C69.3716144,105.83352 66.8582088,104.764021 66.8582088,104.721875 C66.7758574,104.721875 65.498398,104.268721 65.498398,104.227249 C65.210168,104.186452 62.7794514,103.651028 62.7794514,103.61023 C62.0376137,103.569433 61.2957759,103.528636 60.5549507,103.487164 C60.5549507,103.445692 60.5549507,103.405569 60.5549507,103.363423 C60.2147449,103.241705 59.8441635,103.28756 59.5653838,103.116278 C59.5242081,103.034009 58.1654098,101.923039 58.0823833,101.881567 C58.0823833,101.798623 57.423572,100.812742 57.3402081,100.770596 C57.217356,100.399374 56.8876129,99.6592886 56.8457621,99.6592886 C56.8045864,99.4950875 56.3928294,98.4239028 56.3509787,98.4239028 C56.3108155,98.2189043 55.7751938,96.9433954 55.7340181,96.9433954 C55.7340181,96.8189802 55.4039374,96.0785579 55.3627617,96.0785579 C55.3627617,95.9969631 55.0333561,95.584943 54.8689907,95.460865 C54.8689907,95.3785958 54.5395851,94.8431721 54.4973969,94.8431721 C54.4565587,94.6793081 54.127153,93.8154821 54.127153,93.7322015 C53.9607627,93.4122285 53.7292337,93.1778963 53.6323695,92.7446346 C53.4673292,92.7038372 53.3029639,92.6616911 53.1389361,92.6219052 C53.1389361,92.6616911 53.1389361,92.7038372 53.1389361,92.7446346 C52.7788174,92.987396 52.8716315,93.7534431 52.8912068,94.3498944 C53.3438021,95.6257404 53.7977474,96.9012493 54.2513552,98.1774325 C54.2513552,98.7536537 54.2513552,99.3298749 54.2513552,99.906096 C54.2925309,99.906096 54.3333691,99.906096 54.3745448,99.906096 C54.415383,100.23551 54.5794108,100.894674 54.621599,100.894674 C54.621599,101.017741 54.9513422,102.128037 54.9921804,102.128037 C55.0752068,102.540394 55.3219235,103.363423 55.3627617,103.363423 C55.3627617,103.445692 55.5689777,104.021913 55.6101535,104.227249 C55.6520042,104.227249 55.6921674,104.227249 55.7340181,104.227249 C55.7340181,104.352001 56.2709898,106.732412 57.0931539,106.944491 C57.6507134,107.541954 60.3072215,107.643779 60.3072215,107.685925 C60.7189785,107.767857 62.3302312,108.07704 62.3302312,108.119186 C63.2337342,108.586502 63.892208,109.0845 64.1385872,109.167106 C64.1807754,109.249038 65.2931945,109.907866 65.3752084,109.907866 C65.3752084,109.948326 65.3752084,109.989461 65.3752084,110.031607 C65.498398,110.072404 65.6212501,110.113539 65.7454522,110.154336 C65.6749135,110.433175 65.4163841,110.648288 65.3752084,110.648288 C65.0667281,111.165505 64.7973985,111.883337 64.7562228,111.883337 C64.5122061,112.44978 64.4004917,113.586376 64.3856414,114.35276 C63.6745167,114.37063 63.1702831,114.551015 62.6555868,114.722971 C62.1608033,114.805577 61.1725863,115.052048 61.1725863,115.094194 C60.0189915,115.340664 58.8643842,115.587134 57.7121395,115.834279 C56.1660255,115.905421 54.7849518,115.791795 53.8797613,115.216586 C53.8385856,115.134654 53.5095174,114.887509 53.5095174,114.847049 C53.3252393,114.676779 53.1797743,114.476501 53.1389361,114.476501 C53.0555722,113.94074 52.8091929,112.871578 52.7670047,112.871578 C52.7670047,112.705691 52.3144094,110.894758 52.2735712,110.894758 C52.0535175,110.154336 52.3420849,108.660342 52.3967609,108.054787 C52.1652319,107.968809 51.9137901,107.933069 51.531396,107.931721 C51.3167423,108.175831 51.2445161,108.037254 51.03695,108.178865 C50.8715722,108.384875 50.7075444,108.589874 50.5425041,108.796558 C50.418977,108.837018 50.0885588,109.0845 50.0487331,109.167106 C49.9663817,109.167106 49.3065579,109.414251 49.1833683,109.414251 C48.8951383,109.743328 48.6055584,110.072404 48.3183409,110.401481 C48.2353145,110.442615 47.740531,111.142915 47.6996928,111.142915 C47.6996928,111.224847 47.2457475,112.500355 47.2059219,112.500355 C46.6794128,114.121462 47.3216863,116.954353 47.5761657,118.303702 C47.740531,118.427443 48.4003548,118.963203 48.4415305,119.045135 C48.7213228,119.217091 49.8013414,119.497953 49.8013414,119.53875 C50.6667062,119.662828 53.4430288,120.051584 53.4430288,120.092381 C53.5250427,120.092381 54.0039634,120.609261 54.0039634,120.650058 C54.127153,120.650058 55.2395721,121.102876 55.2395721,121.143673 C55.3627617,121.143673 56.3519912,121.349683 56.7225725,121.391492 C56.7225725,121.431952 56.7225725,121.473424 56.7225725,121.514221 C57.6983018,121.794408 58.5359911,121.079611 59.317992,121.267414 C60.4378362,121.536474 62.2482173,120.71176 63.2732223,120.403251 C63.6438037,120.403251 67.5170201,119.950433 68.2180196,119.909636 C69.9895875,119.621357 71.7618304,119.33274 73.5320482,119.045135 C73.5320482,119.003327 73.5320482,118.963203 73.5320482,118.921057 C73.6562504,118.921057 75.5098321,117.851559 75.5098321,117.810087 C75.7572239,117.727818 76.6222512,117.356932 76.6222512,117.316135 C76.7052776,117.316135 79.0944811,116.492432 79.0944811,116.451972 C79.3418728,116.451972 79.8363188,116.369702 79.8363188,116.328231 C80.5366433,116.328231 81.2376428,116.328231 81.9372923,116.328231 C81.9372923,116.287433 81.9372923,116.245287 81.9372923,116.204827 C82.4047379,116.030511 82.5498653,115.976227 83.172901,115.958357 C83.4206303,116.163355 83.6676845,116.369702 83.9147387,116.574701 C83.9147387,116.658319 83.9981027,116.822857 84.0382659,116.822857 C84.1202798,116.945924 84.2033062,117.069327 84.2853201,117.192394 C84.5327118,117.275 84.7801036,117.356932 85.0274953,117.439201 C85.1506849,117.604751 85.563117,118.016097 85.6451309,118.056894 C85.6451309,118.139163 86.4284818,119.167865 86.5104958,119.167865 C86.5449213,120.979135 85.6937317,121.789014 85.0274953,122.872674 C84.8634675,123.449232 84.6980897,124.025116 84.5327118,124.601 C84.1887934,124.653598 82.5343401,125.16778 82.4320758,125.342434 C82.4320758,125.42504 82.3078737,125.918655 82.3078737,126.082856 C82.4698765,126.149615 83.172901,126.41227 83.172901,126.453742 C83.4206303,126.536011 83.9147387,126.782818 83.9147387,126.823615 C84.8634675,127.161121 86.352543,126.168834 86.8807396,125.959452 C87.169307,125.918655 87.457537,125.876846 87.7461044,125.836049 C88.0343344,125.507309 88.7765096,124.765875 88.8585235,124.725078 C89.1595787,124.300583 88.9783381,124.040289 89.6006987,123.860578 C89.6492996,124.342392 89.8342527,124.629659 89.9712801,124.971885 C89.9712801,125.094952 90.3013607,125.836049 90.3425365,125.836049 C90.3857372,125.989797 89.9301044,126.905885 89.847753,126.947356 C89.8069148,127.194164 89.7657391,127.441308 89.7235508,127.688116 C90.0394563,127.860072 90.1079699,128.00674 90.5889157,128.058664 C90.8781581,127.54347 91.3034154,127.132462 91.453943,126.453742" id="path52" fill="#231F20"></path>
                        <path d="M105.298768,100.277656 C105.45132,99.6967143 105.741575,99.8686703 105.792539,99.04227 C105.564047,98.8578388 105.255567,98.3847912 105.174566,98.054366 C104.602831,97.9956987 103.937945,97.822394 103.444174,97.6834805 C102.908552,97.6834805 102.37293,97.6834805 101.836971,97.6834805 C101.548404,97.6834805 100.971606,97.766424 100.971606,97.8072214 C100.724552,97.8072214 99.3647411,98.1366351 99.3647411,98.1774325 C99.1581876,98.2189043 98.4993763,98.5068463 98.4993763,98.5489924 C98.3279234,98.6595837 98.0056053,98.5891154 98.0056053,98.5489924 C97.8817407,98.5068463 97.4288079,98.1774325 97.3869572,98.1774325 C97.3457815,98.054366 97.0987273,97.7256266 97.0167134,97.6834805 C96.9755377,97.5196166 96.9346995,97.3544039 96.8931863,97.1902028 C96.6049563,96.9433954 96.0281589,96.3658256 96.0281589,96.3263768 C95.9039568,96.3263768 94.6683481,95.8725479 94.6683481,95.8317505 C94.3787682,95.7909531 93.555929,95.584943 93.4317269,95.584943 C93.4317269,95.5441456 93.4317269,95.5019996 93.4317269,95.460865 C92.9656314,95.2208009 92.5950501,95.1621336 92.44351,94.5963646 C92.1066792,94.2598704 91.743523,92.127616 91.7026848,92.127616 C91.7026848,91.9620662 91.9487265,90.3173577 91.9487265,90.1518079 C91.9794395,90.0776308 92.3783714,89.4558919 92.44351,89.4103741 C93.1823101,88.8968663 94.7685873,88.9184451 96.0281589,88.9164221 C96.439916,88.9164221 100.601362,88.2171344 100.601362,88.176337 C100.971606,88.1355396 103.814417,87.4770493 103.814417,87.4349032 C104.165086,87.3195915 105.421957,87.5171723 105.421957,87.5593184 C105.54481,87.5593184 106.286985,87.8877207 106.286985,87.9295296 C107.055486,87.9295296 107.856724,89.5078159 107.892837,89.6578559 C108.099391,89.822057 109.08862,90.5641651 109.129796,90.6457599 C109.376175,90.7280291 109.62323,90.8109726 109.870959,90.8935789 C109.912809,90.9744993 110.488594,91.4684514 110.612796,91.6323153 C110.69481,91.6323153 111.189594,92.0038751 111.353622,92.127616 C111.353622,92.2098852 111.931432,92.8677011 112.219999,93.1145086 C112.219999,93.1971149 112.714445,93.773336 112.960824,93.9793461 C113.002,94.0609409 113.249054,94.2261535 113.331406,94.2261535 C113.41342,94.3498944 113.496783,94.4732981 113.57981,94.5963646 C113.825852,94.5963646 114.073581,94.5963646 114.320635,94.5963646 C114.461712,94.4567768 115.144824,92.9907677 115.433054,92.2506826 C115.47423,91.7574049 115.516418,91.2634529 115.557256,90.7688265 C115.677408,90.3436569 115.598432,88.0519218 115.557256,88.0519218 C115.557256,87.7639798 115.350028,86.4476735 115.30919,86.4476735 C115.30919,86.2416635 115.226838,85.8306549 115.186,85.8306549 C115.186,85.7062397 114.716529,84.8633181 114.692229,84.1019914 C115.236288,84.053102 115.936275,83.735152 116.298419,83.4836242 C116.381783,83.3605576 117.122608,82.743539 117.287648,82.619461 C117.287648,82.5371919 118.110825,81.3847495 118.152001,81.3847495 C118.152001,81.301806 118.358217,80.7677309 118.400068,80.7677309 C118.441243,80.2323072 118.605609,79.1624712 118.646784,79.1624712 C118.646784,78.7099909 118.564095,77.8036816 118.523257,77.8036816 C118.482081,77.3104039 118.441243,76.8167891 118.400068,76.3221627 C117.987635,75.9519516 117.081432,75.0459795 117.039244,74.9633732 C116.95723,74.9633732 116.875216,74.9633732 116.792865,74.9633732 C116.709839,74.8416553 116.381783,74.5928249 116.298419,74.5928249 C116.257581,74.5105557 115.557256,74.017278 115.557256,73.9764806 C115.47423,73.9764806 115.062473,73.8530769 114.938271,73.8530769 C114.938271,73.8122795 114.938271,73.7701334 114.938271,73.7279874 C114.692229,73.7279874 114.197445,73.8122795 114.197445,73.8530769 C113.867027,73.8530769 112.590243,74.0587498 112.590243,74.0995472 C112.466041,74.0995472 111.148418,74.4704327 110.612796,74.5928249 C109.305637,75.1538735 107.182725,76.0224198 105.174566,75.4566509 C104.803984,75.4566509 103.444174,75.2526639 103.444174,75.2111921 C103.320984,75.2111921 102.331755,74.8817784 102.331755,74.8416553 C102.084363,74.7587118 101.589917,74.5105557 101.589917,74.4704327 C101.507565,74.4704327 101.095133,74.2647598 101.095133,74.2232881 C100.930768,74.181142 99.9003628,73.5641234 99.8595246,73.4811799 C99.7771732,73.4811799 98.9529841,72.9879023 98.8709702,72.9879023 C98.7879438,72.8661844 97.9637546,72.2478171 97.8817407,72.2478171 C97.840565,72.1662223 97.3869572,71.7946625 97.3869572,71.7538651 C97.2036916,71.6082083 97.1682535,71.5812348 96.8931863,71.5063833 C96.850998,71.383654 96.439916,70.5184793 96.3987403,70.5184793 C96.3568896,70.3549525 96.1921867,70.0252016 96.1513485,70.0252016 C96.1513485,69.9021351 95.7608544,68.9064761 95.6575776,68.4196046 C95.3366096,68.3616116 95.1104807,68.3019328 94.6683481,68.2965381 C94.5029703,68.748344 93.9261729,70.065999 93.9261729,70.1482681 C93.9261729,70.1482681 93.6801312,70.5592767 93.6801312,70.6422202 C93.5971048,70.6830176 92.8140913,71.7946625 92.8140913,71.8769317 C92.2794822,72.2886145 91.7425105,72.7002974 91.2079013,73.1123175 C91.0836992,73.1123175 88.7765096,73.3186647 87.7461044,73.3594621 C86.8807396,73.3186647 84.9863196,73.1123175 84.9032932,73.1123175 C84.9032932,73.0701714 84.9032932,73.0300483 84.9032932,72.9879023 C84.6980897,72.9471048 84.4915361,72.9063074 84.2853201,72.8661844 C83.9147387,72.4524785 83.5444949,72.0414699 83.172901,71.6307986 C83.0088732,71.5063833 82.8438329,71.383654 82.6781175,71.2592387 C82.6781175,71.1776439 82.1023327,70.5184793 81.8130902,70.272009 C81.8130902,70.1897399 81.4846971,69.7783942 81.3196568,69.6536418 C81.3196568,69.572047 80.9899136,69.1607013 80.8248733,69.0379719 C80.8248733,68.9543541 80.6594954,68.7075466 80.5788316,68.6667492 C80.4954676,68.5011995 80.4121037,68.3373355 80.3300898,68.1721229 C80.1248863,68.214269 79.9186702,68.254392 79.7121167,68.2965381 C79.7121167,68.3373355 79.7121167,68.3794816 79.7121167,68.4196046 C79.5713768,68.5605411 79.6628408,68.420279 79.5892646,68.6667492 C79.4333369,68.8339849 79.3523355,69.7854747 79.4650625,70.1482681 C79.8646693,71.4332178 80.5288807,72.4578732 80.8248733,73.8530769 C80.6699581,73.9309629 80.3300898,74.181142 80.3300898,74.2232881 C80.2480759,74.2232881 80.166062,74.2232881 80.0840481,74.2232881 C80.0418598,74.3055572 80.0006841,74.387152 79.9598459,74.4704327 C79.2595214,74.6757684 78.5588594,74.8817784 77.8588724,75.0881256 C77.5294668,75.0881256 76.8693054,75.1697204 76.8693054,75.2111921 C76.7052776,75.2111921 76.3748595,75.2927869 76.3748595,75.334933 C76.2104942,75.334933 75.881426,75.4165278 75.881426,75.4566509 C75.8392378,75.4566509 75.7983996,75.4566509 75.7572239,75.4566509 C75.7572239,75.5817404 75.7572239,75.7051441 75.7572239,75.828885 C76.0488289,76.0729951 76.0474789,76.3265459 76.4990616,76.4465779 C76.6610644,76.5999897 77.6118182,76.6104419 77.6118182,76.5689701 C78.9712915,76.5281727 81.6902381,76.5281727 81.6902381,76.5689701 C81.8964541,76.5689701 82.6781175,76.7749802 82.6781175,76.8167891 C82.9258468,76.8983839 83.5856706,77.1866631 83.6676845,77.1866631 C83.7085227,77.2682579 84.368684,77.8458277 84.5327118,78.0508262 C84.6559015,78.1330954 84.9863196,78.5451154 85.0274953,78.5451154 C85.1095092,78.6678448 85.3474508,78.8246282 85.5209288,79.0390674 C85.9610363,78.9436487 86.2661416,78.6900979 86.6336854,78.5451154 C87.4177113,78.3391054 88.1997122,78.1330954 88.9827256,77.9274225 C88.9827256,77.8852764 88.9827256,77.8458277 88.9827256,77.8036816 C89.0647395,77.8036816 89.847753,77.4746051 89.847753,77.4338076 C89.9301044,77.4338076 90.8363074,76.9813274 90.8363074,76.9391813 C91.3307534,76.8575865 92.3203204,76.6104419 92.3203204,76.5689701 C92.6075378,76.5689701 92.8971178,76.5689701 93.1853477,76.5689701 C93.637943,76.4411832 96.8931863,76.5281727 96.8931863,76.5689701 C97.4699837,76.5689701 98.6235784,76.652588 98.6235784,76.6933854 C98.8709702,76.6933854 101.342188,77.0214504 101.342188,77.0635965 C102.002349,77.0635965 103.320984,77.1451913 103.320984,77.1866631 C103.567363,77.1866631 105.050026,77.6398177 105.050026,77.6806151 C105.215741,77.7214125 106.410174,78.2568362 106.657566,78.2976336 C106.657566,78.3391054 106.657566,78.3799028 106.657566,78.4207002 C106.863782,78.58625 107.069998,78.7507883 107.275202,78.9153266 C107.418304,79.1220109 107.276214,79.1958508 107.522594,79.4092786 C107.537444,79.8128694 107.593132,80.4332597 107.399404,80.6433157 C107.303552,81.0253278 107.016335,81.379692 106.781431,81.6318941 C106.603228,82.2172188 106.198558,82.6005796 105.669012,82.9903465 C103.815767,83.5257702 101.960161,84.0598453 100.106579,84.5952691 C99.3235654,84.6768639 98.5415645,84.7598074 97.7585511,84.8420765 C96.7018205,85.1489 94.8674765,85.2247629 93.8033208,84.8420765 C93.6801312,84.1427888 93.555929,83.4435011 93.4317269,82.743539 C93.1853477,82.7843364 92.9382935,82.8251339 92.6905642,82.8666056 C92.2794822,83.3197602 91.1248749,84.3895962 91.0836992,84.4722025 C91.0013477,84.4722025 89.7235508,85.1721646 89.7235508,85.2122877 C87.3670854,86.2416635 82.4793266,85.9786719 79.9598459,85.2122877 C79.1356568,85.0892211 78.3114677,84.9658174 77.4872785,84.8420765 C77.4872785,84.8012791 77.4872785,84.7598074 77.4872785,84.71901 C77.3219007,84.6768639 76.1284802,84.0190479 76.1284802,83.9775762 C75.881426,83.8959814 75.3866425,83.6488368 75.3866425,83.607365 C75.2624404,83.607365 74.1510338,83.1542104 74.1510338,83.113413 C73.9444803,83.0726156 72.7908855,82.6605956 72.7908855,82.619461 C72.7088716,82.619461 71.1840205,82.0439142 71.1840205,82.0017681 C71.0186426,81.9609707 70.3186556,81.6733659 70.3186556,81.6318941 C70.0716014,81.5502993 69.2470748,81.1800882 69.083047,81.1379421 C69.0408587,81.0556729 67.6823979,80.1507124 67.5993715,80.1507124 C67.4346687,79.9447023 67.2706409,79.7386923 67.1056005,79.5323451 C66.9813984,79.4922221 65.7454522,78.0100288 65.7454522,77.9274225 C65.498398,77.7214125 65.2510063,77.5154025 65.0036145,77.3104039 C64.7562228,77.3508642 64.5098435,77.3930102 64.2627893,77.4338076 C64.2256637,79.9204262 65.0140772,81.1780652 65.9931815,82.619461 C65.9931815,82.701393 66.3222496,83.2368167 66.3634253,83.3605576 C66.5699789,83.5257702 67.1464387,84.1835862 67.2287902,84.225058 C67.2287902,84.2658554 67.2287902,84.3080014 67.2287902,84.3474502 C67.4346687,84.513 67.6412222,84.6768639 67.8464257,84.8420765 C67.8464257,85.0076263 67.7644118,85.3360285 67.7232361,85.3360285 C67.6412222,85.7885088 67.3938305,86.6944809 67.3526548,86.6944809 C67.3526548,86.9416255 67.2706409,87.4349032 67.2287902,87.4349032 C67.2287902,87.970327 67.2287902,88.5057507 67.2287902,89.040163 C67.2287902,90.861885 67.4663942,91.9917371 67.9706279,93.239261 C67.9706279,93.3623275 68.2180196,94.103087 68.2180196,94.2261535 C68.4654114,94.637162 68.7117906,95.0495193 68.9588448,95.460865 C69.2062366,95.460865 69.4536283,95.460865 69.70102,95.460865 C69.8420975,95.3206028 70.1617154,95.1462867 70.1958035,95.090991 C70.1958035,95.0087219 70.4016821,94.3498944 70.4418452,94.3498944 C70.483021,94.103087 70.5241967,93.8549309 70.5663849,93.6091349 C70.9366287,93.1145086 71.3082226,92.6219052 71.678804,92.127616 C71.7618304,92.127616 72.4196292,91.6744614 72.4196292,91.6323153 C72.5846695,91.5921923 73.1614669,91.3042503 73.1614669,91.2634529 C73.4088586,91.1811837 73.9036421,90.9330276 73.9036421,90.8935789 C74.1510338,90.8514328 75.6336968,90.3173577 75.6336968,90.2752116 C75.7572239,90.2752116 77.0350208,89.7819339 77.1170347,89.7819339 C77.628356,89.4235237 78.1059267,88.2171344 78.1059267,88.176337 C78.419132,88.1915096 80.3489901,88.0815926 81.566711,88.6696147 C81.6902381,88.6696147 82.8026572,88.9993656 82.8026572,89.040163 C82.9676975,89.040163 83.2971032,89.1227693 83.2971032,89.1635667 C84.3676715,89.1635667 86.5104958,89.2465102 86.5104958,89.2879819 C86.7578875,89.2879819 87.7882927,89.5347893 87.8703066,89.5347893 C87.8703066,89.5742381 87.8703066,89.6163842 87.8703066,89.6578559 C88.334377,89.9056748 88.5837938,89.8048614 88.7356714,90.3989525 C89.3354192,90.9323533 89.3593821,93.2675831 89.3543195,94.4732981 C89.0522518,94.6702046 88.7765096,95.2147319 88.7356714,95.3377984 C88.447104,95.3785958 88.158874,95.4193932 87.8703066,95.460865 C87.2523335,95.748807 86.6336854,96.0377605 86.0157123,96.3263768 C85.8108463,96.5718356 85.2326988,97.1480567 85.1506849,97.1902028 C85.1506849,97.272472 84.9863196,97.5196166 84.9032932,97.5590653 C84.8212793,97.9306251 84.7392654,98.3018478 84.6559015,98.6720589 C84.0382659,99.04227 83.4206303,99.412144 82.8026572,99.7830295 C81.4468964,100.264843 80.5606062,99.1053206 79.5892646,98.7951254 C78.7556253,98.5297737 77.9368363,99.0072045 77.4872785,99.1653366 C76.9516569,99.2482801 76.4170477,99.3298749 75.881426,99.412144 C75.8392378,99.7830295 75.7983996,100.152903 75.7572239,100.523115 C75.910789,100.605384 77.2412368,101.470896 77.2412368,101.511693 C77.4872785,101.593962 78.3526434,101.964173 78.3526434,102.006319 C78.4346573,102.006319 79.3418728,102.334722 79.3418728,102.374845 C79.4650625,102.374845 80.4542919,102.704933 80.4542919,102.746404 C82.1023327,103.116278 85.3980767,103.939644 85.3980767,103.98179 C85.5209288,103.98179 86.8807396,104.433596 86.8807396,104.475068 C87.0052792,104.475068 87.9931587,104.681078 87.9931587,104.721875 C88.2419004,104.721875 88.7356714,104.639606 88.7356714,104.598809 C89.1879292,104.556663 90.0954822,104.392799 90.0954822,104.352001 C90.2183343,104.352001 93.3085373,103.281154 93.3085373,103.240357 C93.6801312,103.199559 94.4209564,103.034009 94.4209564,102.993212 C95.0807802,102.993212 95.7389165,102.993212 96.3987403,102.993212 C96.3987403,102.952415 96.3987403,102.910268 96.3987403,102.870145 C96.5641181,102.870145 98.0056053,102.664135 98.0056053,102.623338 C98.4173624,102.623338 98.8291195,102.623338 99.2415515,102.623338 C100.337433,102.621989 103.073592,102.128037 103.196782,102.128037 C103.567363,101.717029 103.937945,101.305346 104.309201,100.894674 C104.391215,100.894674 104.473229,100.894674 104.55693,100.894674 C104.875536,100.664051 104.763146,100.424324 105.298768,100.277656" id="path54" fill="#231F20"></path>
                        <path d="M73.4962726,88.0111244 C73.1560668,88.1072174 72.4763301,88.3988683 72.4763301,88.4470834 C72.087861,88.49631 71.2140585,88.7872865 71.1654577,88.8830424 C70.8286269,89.1885172 70.5093464,89.4842141 70.2913177,89.9029775 C70.2913177,89.9990705 70.1461902,90.4845933 70.1461902,90.629913 C69.903186,91.0179941 69.6598443,91.405738 69.4178527,91.7931448 C69.3209885,91.7931448 69.1262477,91.6960402 69.1262477,91.6488366 C69.319976,91.3733698 68.9605324,90.935725 69.1262477,90.3389365 C69.3314512,89.6008744 69.3685768,87.4288342 69.4178527,87.4288342 C69.4664535,87.1864099 69.5157294,86.9443229 69.5629802,86.7012243 C69.8262347,86.5636595 69.7924841,86.5002718 70.1461902,86.4095734 C70.6450237,86.9574724 72.3305276,87.2339507 72.3305276,87.2835145 C72.6700585,87.3802819 73.0099268,87.4770493 73.3501326,87.5751653 C73.3983959,87.7198107 73.4480093,87.8647932 73.4962726,88.0111244" id="path56" fill="#FFFFFF"></path>
                        <path d="M112.960824,91.1390376 C112.837972,91.1390376 112.508229,91.0152968 112.466041,91.0152968 C112.466041,90.9330276 111.931432,90.0688644 111.848405,90.028067 C111.56085,89.6989905 110.819013,89.040163 110.736999,89.040163 C110.69481,88.9585682 109.904372,88.4568613 109.62323,88.176337 C109.418364,87.8462489 109.08862,87.1877586 109.129796,87.1877586 C109.555053,86.6729021 110.243228,86.6702048 110.983378,86.8178846 C111.025566,86.9416255 111.27262,87.2707021 111.353622,87.3114995 C111.39581,87.5171723 111.436648,87.7231824 111.477824,87.9295296 C111.725216,88.0940678 111.972607,88.2579318 112.219999,88.4231444 C112.781946,89.1794136 112.953399,89.8048614 112.960824,91.1390376" id="path58" fill="#FFFFFF"></path>
                        <path d="M75.1389133,112.130144 C75.7707241,112.224214 76.463286,112.442362 76.9938451,112.624433 C77.3819767,112.757952 77.7188075,112.614656 77.982062,112.871578 C77.2000611,112.95351 76.4160352,113.035779 75.6336968,113.118386 C75.6336968,113.158846 75.6336968,113.200655 75.6336968,113.241115 C75.5098321,113.282587 75.3866425,113.323384 75.2624404,113.36553 C75.2216022,112.95351 75.1804265,112.541153 75.1389133,112.130144" id="path60" fill="#FFFFFF"></path>
                        <path d="M69.2062366,113.118386 C69.1242227,112.871578 69.0408587,112.624433 68.9588448,112.377289 C68.9190191,112.377289 68.8768309,112.377289 68.8359927,112.377289 C68.8768309,111.964932 68.9190191,111.553923 68.9588448,111.142915 C69.0999222,111.245751 68.9780827,111.127068 69.083047,111.265307 C69.3294262,111.479409 69.1863237,111.551226 69.3304387,111.758922 C69.4536283,111.841865 69.5768179,111.925146 69.70102,112.007078 C69.7418582,112.130144 69.7840465,112.254222 69.8238722,112.377289 C69.9787873,112.591391 70.2673548,112.694902 70.4418452,112.994307 C70.3017803,113.098493 70.4253075,112.978461 70.3186556,113.118386 C69.7691962,113.171995 69.7259955,113.211107 69.2062366,113.118386" id="path62" fill="#FFFFFF"></path>
                        <path d="M112.219999,111.636529 C112.00197,110.766297 111.086317,110.596027 110.859851,109.783114 C111.423148,109.727481 111.554775,109.684323 112.095459,109.783114 C112.191649,110.21941 112.485279,110.523536 112.590243,110.894758 C112.549405,111.142915 112.508229,111.390059 112.466041,111.636529 C112.384027,111.636529 112.301,111.636529 112.219999,111.636529" id="path64" fill="#FFFFFF"></path>
                        <path d="M106.039593,109.536643 C105.998417,109.948326 105.956567,110.360346 105.916403,110.771692 C105.998417,110.812489 106.080769,110.854635 106.162783,110.894758 C106.162783,110.977702 106.162783,111.060308 106.162783,111.142915 C105.253542,111.312173 104.722983,111.036706 103.690553,111.018837 C103.690553,110.977702 103.690553,110.936567 103.690553,110.894758 C103.831293,110.791585 103.709453,110.910605 103.814417,110.771692 C104.55693,110.360346 105.298768,109.948326 106.039593,109.536643" id="path66" fill="#FFFFFF"></path>
                    </g>
                </g>
            </g>
        </g>
    </g>
</svg>