<?xml version="1.0" encoding="UTF-8"?>
<svg width="200px" height="200px" viewBox="0 0 200 200" version="1.1" xmlns="http://www.w3.org/2000/svg" xmlns:xlink="http://www.w3.org/1999/xlink">
    <!-- Generator: Sketch 51.3 (57544) - http://www.bohemiancoding.com/sketch -->
    <title>union-tn</title>
    <desc>Created with Sketch.</desc>
    <defs></defs>
    <g id="union-tn" stroke="none" stroke-width="1" fill="none" fill-rule="evenodd">
        <g id="union-tn_BGL" transform="translate(0.000000, 0.995025)">
            <g id="union-tn" transform="translate(0.000000, 5.970149)">
                <path d="M187.797546,56.9030332 C190.030061,55.7863906 192.015337,54.0068368 193.122086,51.1978495 C195.806748,44.3857808 192.898773,29.255914 184.987117,19.2055208 C183.520859,17.3430268 170.351534,0.989183117 159.495706,0.161611298 C158.968098,0.121360937 158.397546,0.100625903 157.8,0.100625903 C151.495706,0.100625903 141.759509,2.36013481 137.439877,3.92197079 C135.357669,4.67514043 134.623926,4.77698604 134.180368,4.77698604 C133.73681,4.77698604 133.111656,4.6781897 132.020859,4.43729738 C131.716564,4.37021345 131.120859,4.17384048 130.489571,3.96527042 C126.43865,2.62969026 118.89816,0.14331568 99.9392638,0.142095972 C80.9687117,0.14331568 73.4282209,2.62969026 69.3766871,3.96527042 C68.7453988,4.17323062 68.1490798,4.37021345 67.8460123,4.43729738 C66.7546012,4.6781897 66.1294479,4.77698604 65.6858896,4.77698604 C65.2423313,4.77698604 64.508589,4.67514043 62.4269939,3.92258065 C58.1067485,2.36013481 48.3711656,0.100625903 42.0662577,0.100625903 C41.4693252,0.100625903 40.8981595,0.121360937 40.3693252,0.161611298 C36.5625767,0.451901781 32.2018405,2.61444391 27.0392638,6.77181833 C22.8631902,10.134553 18.5453988,14.5505055 14.8803681,19.2055208 C6.96871166,29.2553041 4.0595092,44.3845611 6.74355828,51.1978495 C7.40368098,52.8725084 8.84478528,55.2265447 11.9558282,56.8475365 C4.10245399,68.5597817 0,81.4960039 0,94.7950891 C0,114.937955 9.37484663,134.625261 26.3981595,150.230814 C29.0539877,152.665351 31.9496933,155.00597 35.0251534,157.206933 C36.6631902,161.128904 38.9153374,164.641053 41.7374233,167.670807 C46.508589,172.792361 54.4153374,175.729417 63.4312883,175.729417 C67.2079755,175.729417 70.9552147,175.195185 74.206135,174.207222 C77.2680982,174.859766 80.3441718,175.38668 83.401227,175.781865 C85.0779141,179.411106 88.796319,183.935002 96.9337423,187.720366 L97.002454,187.752688 L97.0723926,187.783181 L97.2190184,187.847216 L99.9791411,189.054726 L102.78589,187.717317 C111.008589,183.885604 114.719632,179.31048 116.369939,175.669042 C119.450307,175.294592 122.523313,174.795731 125.553988,174.176119 C128.828834,175.184818 132.612883,175.730027 136.433129,175.730027 C145.449693,175.730027 153.357669,172.792971 158.128834,167.670807 C160.840491,164.760584 163.026994,161.400899 164.646626,157.660664 C186.963804,142.097801 199.715337,119.291703 199.715337,94.7950891 C199.715337,81.5142995 195.628221,68.5994222 187.797546,56.9030332" id="Fill-1" fill="#CBCCCB"></path>
                <path d="M99.8588957,27.0250682 C52.3582822,27.0250682 14.5822086,57.3677419 14.5822086,94.7950891 C14.5822086,129.605553 46.0202454,157.965591 88.8895706,161.81133 C88.8895706,161.81133 92.7134969,162.202247 99.8208589,162.155898 C106.928221,162.108939 110.7,161.682651 110.7,161.682651 C154.033129,158.183309 185.133129,129.86657 185.133129,94.7950891 C185.133129,57.3677419 147.358282,27.0250682 99.8588957,27.0250682" id="Fill-4" fill="#951432"></path>
                <path d="M162.005521,141.947167 C162.106748,140.845161 162.183436,139.797432 162.254601,138.825325 C162.392638,136.909774 162.512883,135.25524 162.759509,133.947713 C163.165031,131.796758 165.506135,129.189023 168.470552,125.887273 C173.383436,120.413834 180.111656,112.918729 181.693252,102.695747 C183.841718,88.8105922 181.795706,77.2703258 179.206135,69.8233991 C183.034356,77.5514685 185.133129,85.975991 185.133129,94.7950891 C185.133129,113.266956 176.502454,129.861692 162.005521,141.947167 Z M111.064417,161.649719 L111.053988,156.988605 C111.052147,155.983566 110.227607,155.241984 109.222086,155.33895 C109.222086,155.33895 105.028834,155.745113 99.795092,155.745113 C94.6490798,155.745113 90.4828221,155.34017 90.4828221,155.34017 C89.4773006,155.241984 88.6539877,155.983566 88.6527607,156.988605 L88.6453988,161.786936 C86.1552147,161.558241 83.703681,161.245996 81.2944785,160.855079 C83.5380368,156.575734 84.7159509,151.489552 85.0521472,149.878318 C88.7509202,151.907912 94.1343558,153.065415 99.9331288,153.065415 C105.732515,153.065415 111.115337,151.907912 114.81411,149.878318 C115.147853,151.477965 116.310429,156.503162 118.522699,160.762382 C116.081595,161.141101 113.593865,161.43749 111.064417,161.649719 Z M14.5822086,94.7950891 C14.5822086,85.5923929 16.8705521,76.8196437 21.0214724,68.8189697 C18.2674847,76.2103996 15.9245399,88.1690258 18.1736196,102.696357 C19.7552147,112.918729 26.4834356,120.413834 31.3957055,125.886663 C34.3595092,129.189023 36.701227,131.796758 37.1067485,133.947713 C37.3533742,135.25524 37.4730061,136.909774 37.6122699,138.825325 C37.6797546,139.756572 37.7527607,140.757342 37.8478528,141.807511 C23.3153374,129.689713 14.5822086,113.139496 14.5822086,94.7950891 Z M193.153988,94.7950891 C193.153988,79.361515 186.944785,64.6945274 176.009816,52.352303 C176.788344,52.4419515 177.882822,52.5346493 179.106135,52.5346493 C179.106135,52.5346493 179.106135,52.5346493 179.106748,52.5346493 C183.576074,52.5346493 186.427607,51.2960359 187.351534,48.9511475 C189.122699,44.4577435 186.860123,31.581897 180.106135,23.0018617 C172.901227,13.8497833 163.83681,6.67119242 159.021472,6.30406034 C158.65092,6.27539721 158.239877,6.26137057 157.8,6.26137057 C152.489571,6.26137057 143.44908,8.30438132 139.558282,9.7113144 C137.088344,10.6053603 135.630675,10.9377307 134.180368,10.9377307 C133.096933,10.9377307 131.995706,10.7431873 130.67546,10.4510672 C130.065031,10.3156797 129.390798,10.0936928 128.53865,9.81255015 C124.819018,8.58613385 117.896933,6.30345049 99.9276074,6.30284064 C81.9699387,6.30345049 75.0472393,8.58613385 71.3282209,9.81255015 C70.4754601,10.0936928 69.801227,10.3156797 69.1907975,10.4510672 C67.8705521,10.7431873 66.7693252,10.9377307 65.6858896,10.9377307 C64.2355828,10.9377307 62.7779141,10.6053603 60.307362,9.7113144 C56.4165644,8.30438132 47.3760736,6.26137057 42.0656442,6.26137057 C41.6263804,6.26137057 41.2153374,6.27539721 40.8447853,6.30406034 C36.0300613,6.67119242 26.9662577,13.8497833 19.7607362,23.0018617 C13.0067485,31.581897 10.7441718,44.4577435 12.5141104,48.9511475 C13.4380368,51.2960359 16.2889571,52.5346493 20.7601227,52.5346493 C21.8969325,52.5346493 22.9245399,52.4547585 23.6895706,52.3712085 C12.7650307,64.7097737 6.56196319,79.3688333 6.56196319,94.7950891 C6.56196319,113.525534 15.6564417,131.510737 30.8466258,145.435532 C33.693865,148.045097 36.7404908,150.468657 39.9570552,152.700722 C41.1957055,156.382411 43.1411043,160.111058 46.2846626,163.48477 C49.8877301,167.353073 56.1392638,169.571112 63.4374233,169.571112 C67.490184,169.571112 71.4349693,168.839287 74.4159509,167.589087 C78.7447853,168.558755 83.1748466,169.269844 87.6791411,169.699791 C87.6791411,169.699791 88.0190184,169.735163 88.6325153,169.78822 L88.6325153,170.015696 C88.6122699,170.277323 88.2674847,176.488076 99.7153374,181.812711 L99.8619632,181.876745 L99.9785276,181.821858 C111.442945,176.488076 111.103681,170.277933 111.084049,170.034601 L111.083436,169.674177 C111.698773,169.607703 112.041718,169.564404 112.041718,169.564404 C116.595092,169.16312 121.041718,168.481913 125.36135,167.549446 C128.352761,168.822821 132.334969,169.571112 136.428834,169.571112 C143.726994,169.571112 149.979141,167.353073 153.581595,163.48477 C156.619632,160.223881 158.541718,156.630621 159.784663,153.069074 C180.204294,139.26198 193.153988,118.256171 193.153988,94.7950891 Z" id="Fill-5" fill="#1A1919"></path>
                <path d="M137.752761,79.2773552 C125.128221,67.7309902 109.333742,66.8277965 102.23681,66.7320494 C108.855215,67.0863746 122.821472,68.6658963 134.293252,79.0681753 C147.899387,91.4067405 152.938037,107.330637 155.165031,114.491542 C158.08773,117.149896 161.869325,120.330284 161.869325,120.330284 C161.869325,120.330284 155.477301,95.4891029 137.752761,79.2773552" id="Fill-6" fill="#8A8B8A"></path>
                <path d="M102.076687,81.8698443 C104.592025,78.6662815 107.431902,75.8530252 108.944785,77.3721714 C108.944785,77.3721714 110.454601,79.1011074 111.217791,79.4529931 C111.849693,79.7475526 112.465031,79.9573423 113.307362,79.7475526 C113.307362,79.7475526 113.062577,80.6745306 112.121472,80.6172043 C111.217791,80.5635372 109.922086,80.1415182 109.282209,79.4706789 C108.642945,78.8010592 108.046012,78.63091 106.903681,78.9413256 C105.608589,79.2950409 104.596933,80.0707752 103.655828,80.7068528 C102.716564,81.3411009 102.076687,81.8698443 102.076687,81.8698443" id="Fill-7" fill="#8A8B8A"></path>
                <path d="M85.7576687,102.194447 C85.7576687,102.194447 84.5883436,99.5293853 84.3773006,98.3566362 C84.1846626,97.2802439 83.8509202,95.1024555 83.8509202,95.1024555 C83.8509202,95.1024555 81.8208589,97.3113465 81.2748466,99.4744985 C80.7300613,101.634601 81.0386503,104.327106 81.0386503,104.327106 L85.7576687,102.194447" id="Fill-8" fill="#8A8B8A"></path>
                <path d="M114.053988,102.150538 C114.053988,102.150538 115.176687,99.6354999 115.401227,98.4542128 C115.605521,97.3692826 115.965644,95.1744182 115.965644,95.1744182 C115.965644,95.1744182 117.990798,97.4241695 118.519632,99.6123255 C119.04908,101.797432 118.739264,104.339913 118.739264,104.339913 L114.053988,102.150538" id="Fill-9" fill="#8A8B8A"></path>
                <path d="M157.009816,13.0624619 C150.193865,12.310512 143.774847,16.9948002 140.728221,17.2027604 C137.28773,17.438164 135.613497,18.6444551 135.613497,18.6444551 L134.670552,22.8481785 C134.670552,22.8481785 121.419018,16.0745306 113.467485,15.6982507 C105.515951,15.3207511 102.488344,17.5784304 99.4582822,17.5784304 C96.4288344,17.5784304 92.2650307,15.3219708 83.5564417,15.6982507 C74.8472393,16.0745306 64.2460123,22.8481785 64.2460123,22.8481785 L62.7239264,18.6444551 C62.7239264,18.6444551 61.9453988,17.229594 58.2018405,16.732563 C53.1208589,16.0568448 46.7331288,12.5203017 42.3993865,13.0624619 C38.2503067,13.5808377 26.7423313,20.8716418 24.9828221,27.7404269 C23.2184049,34.6293372 18.8484663,39.1782378 18.8484663,41.0596373 C18.8484663,42.9410368 21.9539877,43.9271706 27.2546012,40.9151019 C32.5552147,37.9024234 34.4478528,27.7404269 38.9920245,26.6121971 C43.5349693,25.4833574 46.8282209,33.7639544 46.8282209,33.7639544 C46.8282209,33.7639544 37.7779141,52.5114749 35.6312883,64.082234 C34.190184,71.8487241 34.7570552,79.0254855 34.7570552,79.0254855 C34.7570552,79.0254855 40.2349693,69.2361098 46.292638,67.7303804 C46.292638,67.7303804 32.9220859,84.2372974 32.4411043,95.1134328 C32.0067485,104.918665 33.9558282,104.52287 33.9558282,104.52287 C33.9558282,104.52287 42.4484663,87.7128551 53.6435583,78.5522388 C67.1558282,67.4943669 82.0398773,61.9928743 98.3214724,61.9928743 C98.9846626,61.9928743 99.9331288,61.3366715 99.9331288,59.7345851 C99.9331288,55.0137057 99.9331288,46.1330124 99.9331288,44.1125662 C99.6730061,47.1813513 99.0239264,49.4286631 96.6650307,51.5210721 C94.0331288,53.855593 87.9466258,54.2458995 87.9466258,54.2458995 C87.9466258,54.2458995 84.4190184,60.3724924 77.8490798,61.8184561 C72.6822086,62.958883 66.6754601,62.5899214 63.1055215,58.1867758 C57.4680982,51.228952 63.8674847,45.2414059 63.8674847,45.2414059 C63.8674847,45.2414059 61.3797546,42.9617718 56.596319,41.8219547 C51.8128834,40.6815278 47.7944785,41.8219547 47.7944785,41.8219547 C47.7944785,41.8219547 51.6214724,36.1131119 60.0411043,36.1131119 C68.4613497,36.1131119 72.6699387,40.8675333 77.2631902,44.8626866 C81.8546012,48.8584497 87.5527607,50.306243 92.1883436,47.7149735 C98.3110429,44.2906436 99.9453988,35.3264003 99.9453988,35.3264003 C99.9453988,35.3264003 101.582822,44.2906436 107.706135,47.7149735 C112.341104,50.306243 118.039264,48.8584497 122.631288,44.8626866 C127.225153,40.8675333 131.432515,36.1131119 139.852761,36.1131119 C148.27362,36.1131119 152.099387,41.8219547 152.099387,41.8219547 C152.099387,41.8219547 145.971779,32.7418392 135.99816,34.2079281 C125.096933,35.811844 123.542945,40.4400257 119.120859,42.7349061 C119.120859,42.7349061 119.023926,32.5064356 124.698773,29.5888942 C132.019018,25.827315 135.921472,27.9459477 140.706135,23.6531857 C144.884663,19.9044134 148.51227,17.2027604 153.984663,16.6313272 C163.355215,15.6506821 173.022086,25.7510833 173.022086,25.7510833 C173.022086,25.7510833 163.82454,13.8144118 157.009816,13.0624619" id="Fill-10" fill="#8A8B8A"></path>
                <path d="M99.9331288,103.76909 L99.9331288,109.790178 C99.9331288,109.790178 89.4374233,110.545787 85.6509202,114.684866 C85.6509202,114.684866 94.2539877,112.426577 99.9331288,113.555416 L99.9331288,143.054662 C99.9331288,143.054662 92.8460123,143.430942 89.8165644,141.927042 C86.7871166,140.421313 84.8944785,130.867951 84.8944785,130.867951 C84.8944785,130.867951 83.2582822,132.409661 83.1245399,135.877291 C82.9828221,139.546172 83.891411,143.702937 83.891411,143.702937 C83.891411,143.702937 78.6791411,140.39021 78.0797546,129.927556 C77.3907975,117.896967 79.9717791,110.543348 85.2736196,107.156829 C90.5748466,103.76909 99.9331288,103.76909 99.9331288,103.76909" id="Fill-11" fill="#CBCCCB"></path>
                <path d="M129.709816,111.300786 C128.350307,108.185043 125.638037,105.497416 124.742945,104.77108 C124.680368,103.431231 124.876687,101.795603 124.215951,99.994094 C123.277301,97.434537 120.562577,94.3291606 119.440491,93.3643717 C118.168712,92.2696838 115.527607,90.6383245 115.527607,90.6383245 C115.527607,90.6383245 115.613497,90.8468946 115.613497,90.953619 C116.123313,91.3695394 116.650307,91.9836623 117.022699,92.4099502 C117.871779,93.379618 120.623313,96.6179425 121.555828,99.179939 C122.993252,103.129353 122.227607,106.256074 122.189571,106.407318 C122.189571,106.407318 124.111656,107.879506 125.419018,110.218905 C126.452147,112.066763 127.496319,115.353876 127.442945,119.375863 C127.378528,124.263842 126.910429,127.597914 125.644172,133.517766 C124.542331,138.666763 123.603681,142.807061 123.603681,142.807061 C123.603681,142.807061 129.494479,130.874659 130.43865,125.886054 C131.382209,120.896229 131.254601,114.840989 129.709816,111.300786" id="Fill-12" fill="#CBCCCB"></path>
                <path d="M87.1668712,70.5918151 C93.3607362,68.4060985 99.9331288,68.6201573 99.9331288,68.6201573 L99.9331288,66.8277965 C99.9331288,66.8277965 78.7840491,64.2395763 62.9337423,79.2773552 C45.7693252,95.5610656 40.595092,119.201444 40.595092,119.201444 C40.595092,119.201444 48.9251534,109.415118 53.4687117,108.286278 C53.4687117,108.286278 45.9907975,118.354357 45.1392638,130.916129 C44.3515337,142.532017 47.695092,153.358145 52.9478528,157.449655 C57.1834356,160.750185 63.9754601,160.933751 69.2766871,158.297352 C74.5779141,155.661563 78.4907975,151.562735 76.5177914,143.760263 C74.4355828,135.526625 68.9993865,117.462141 74.6717791,109.462687 C75.391411,108.449109 76.2803681,107.538597 77.2895706,106.719563 C77.1404908,106.027989 76.5595092,102.721971 78.0392638,98.6896164 C78.9773006,96.1300594 81.6742331,93.1222597 82.5717791,92.1971112 C83.4705521,91.2725726 85.4503067,89.7900177 85.4503067,89.7900177 C85.4503067,89.7900177 86.8,94.9536511 87.4613497,96.5429305 C88.0877301,98.0480501 89.4171779,100.316707 89.9306748,101.175381 C91.1730061,100.880822 92.3748466,100.639929 93.4871166,100.448435 C96.8552147,99.8672444 97.8932515,99.8184561 98.5269939,99.7324667 C99.5202454,99.597689 99.9116564,97.6132242 99.9147239,95.8592842 C99.9208589,91.0518055 99.9331288,84.6129674 99.9331288,84.4842882 C99.9331288,81.4740491 92.6042945,75.511507 90.7104294,78.1460761 C88.8171779,80.7800353 85.9797546,81.4222115 85.409816,80.0274755 C84.804908,78.5485797 82.991411,72.0652223 87.1668712,70.5918151" id="Fill-13" fill="#FFFFFE"></path>
                <path d="M71.9687117,51.9626063 C73.3865031,51.8223399 73.8,50.8203499 73.8214724,50.7679024 C72.6533742,50.2294014 71.5368098,49.6719949 70.498773,49.1267854 C70.4588957,49.1054405 70.4196319,49.0847055 70.3797546,49.0639705 C70.0552147,48.8932114 69.7374233,48.7224523 69.4300613,48.5553523 C68.7,48.1589472 68.0159509,47.7741294 67.4006135,47.4167549 C67.2539877,47.5454341 65.4184049,49.199358 65.5398773,52.2333815 C65.7822086,58.3624137 72.5564417,59.8650939 72.5564417,59.8650939 C72.5564417,59.8650939 70.9196319,58.7216177 69.6441718,55.8120045 C68.8650307,54.0354999 69.1736196,52.3748676 69.6748466,51.1624779 C70.1429448,51.7095169 70.9214724,52.0650618 71.9687117,51.9626063" id="Fill-14" fill="#FFFFFE"></path>
                <path d="M133.03865,47.4167549 C132.423313,47.7741294 131.739264,48.1589472 131.009816,48.5553523 C130.705521,48.7212325 130.390184,48.8895522 130.069939,49.0584818 C130.023926,49.0828759 129.979141,49.1066602 129.933129,49.1304446 C128.897546,49.6750441 127.783436,50.2306211 126.618405,50.7679024 C126.639877,50.8203499 127.054601,51.8223399 128.470552,51.9626063 C129.517178,52.0644519 130.296319,51.7095169 130.764417,51.1624779 C131.266258,52.3754775 131.57546,54.0354999 130.796319,55.8120045 C129.520245,58.7216177 127.882822,59.8650939 127.882822,59.8650939 C127.882822,59.8650939 134.657669,58.3624137 134.900613,52.2333815 C135.021472,49.199358 133.186503,47.5454341 133.03865,47.4167549" id="Fill-15" fill="#FFFFFE"></path>
                <path d="M105.093865,159.959204 L105.093865,170.829241 L102.420245,173.485765 L97.298773,173.485765 L94.6251534,170.829241 L94.6251534,159.959204 L91.6110429,159.959204 L91.6110429,161.492377 L93.1533742,161.492377 L93.1533742,171.432386 L96.690184,174.946975 L103.026994,174.946975 L106.561963,171.432386 L106.561963,161.492377 L108.104908,161.492377 L108.104908,159.959204 L105.093865,159.959204 Z M101.879755,172.193484 L103.791411,170.29135 C103.791411,169.783341 103.791411,159.959204 103.791411,159.959204 L100.777914,159.959204 L100.777914,161.492377 L102.319018,161.492377 L102.319018,169.685765 L101.273006,170.729835 L98.4460123,170.729835 L97.3957055,169.685765 L97.3957055,161.492377 L98.9404908,161.492377 L98.9404908,159.959204 L95.9269939,159.959204 C95.9269939,159.959204 95.9269939,169.783341 95.9269939,170.29135 L97.8368098,172.193484 L101.879755,172.193484 Z" id="Fill-16" fill="#8A8B8A"></path>
                <path d="M104.843865,159.710448 L108.354908,159.710448 L108.354908,161.741133 L106.811963,161.741133 L106.811963,171.432386 L106.73867,171.608354 L103.2037,175.122942 L103.026994,175.195731 L96.690184,175.195731 L96.5135236,175.122988 L92.9767138,171.608399 L92.9033742,171.432386 L92.9033742,161.741133 L91.3610429,161.741133 L91.3610429,159.710448 L94.8751534,159.710448 L94.8751534,170.726099 L97.4022219,173.237009 L102.316797,173.237009 L104.843865,170.726099 L104.843865,159.710448 Z M105.343865,170.829241 L105.270516,171.005264 L102.596896,173.661787 L102.420245,173.734521 L97.298773,173.734521 L97.1221225,173.661787 L94.4485029,171.005264 L94.3751534,170.829241 L94.3751534,160.20796 L91.8610429,160.20796 L91.8610429,161.243621 L93.4033742,161.243621 L93.4033742,171.329252 L96.7936412,174.698219 L102.923499,174.698219 L106.311963,171.32929 L106.311963,161.243621 L107.854908,161.243621 L107.854908,160.20796 L105.343865,160.20796 L105.343865,170.829241 Z M100.527914,161.741133 L100.527914,159.710448 L104.041411,159.710448 L104.041411,170.29135 L103.968187,170.467247 L102.056531,172.369382 L101.879755,172.44224 L97.8368098,172.44224 L97.6599485,172.369297 L95.7501326,170.467163 L95.6769939,170.29135 L95.6769939,159.710448 L99.1904908,159.710448 L99.1904908,161.741133 L97.6457055,161.741133 L97.6457055,169.582656 L98.5494948,170.481078 L101.169224,170.481078 L102.069018,169.582954 L102.069018,161.741133 L100.527914,161.741133 Z M103.541411,170.188311 L103.541411,160.20796 L101.027914,160.20796 L101.027914,161.243621 L102.569018,161.243621 L102.569018,169.685765 L102.496071,169.861387 L101.450059,170.905457 L101.273006,170.978591 L98.4460123,170.978591 L98.2693212,170.905817 L97.2190144,169.861747 L97.1457055,169.685765 L97.1457055,161.243621 L98.6904908,161.243621 L98.6904908,160.20796 L96.1769939,160.20796 L96.1769939,170.188381 L97.9404333,171.944728 L101.776202,171.944728 L103.541411,170.188311 Z" id="Stroke-17" fill="#8A8B8A" fill-rule="nonzero"></path>
            </g>
        </g>
    </g>
</svg>