<?xml version="1.0" encoding="UTF-8"?>
<svg width="200px" height="200px" viewBox="0 0 200 200" version="1.1" xmlns="http://www.w3.org/2000/svg" xmlns:xlink="http://www.w3.org/1999/xlink">
    <!-- Generator: Sketch 51.3 (57544) - http://www.bohemiancoding.com/sketch -->
    <title>upper-iowa</title>
    <desc>Created with Sketch.</desc>
    <defs></defs>
    <g id="upper-iowa" stroke="none" stroke-width="1" fill="none" fill-rule="evenodd">
        <g id="upper-iowa_BGL" transform="translate(1.960784, 0.000000)">
            <g id="upper-iowa">
                <g id="g10" transform="translate(97.999998, 99.869279) scale(-1, 1) rotate(-180.000000) translate(-97.999998, -99.869279) translate(0.087111, 0.087147)" fill-rule="nonzero">
                    <g id="g12" transform="translate(0.156800, 0.000000)">
                        <path d="M180.319995,120.035553 C185.938662,137.335073 190.28028,155.702654 193.226377,174.628318 L195.637613,190.115899 L179.840884,192.432239 C154.398343,196.162087 128.008555,198.054897 101.40308,198.054897 C80.7986895,198.054897 60.1617194,196.906313 40.0650123,194.640518 L38.6609555,194.481912 L38.2229608,196.158601 C37.6286888,198.431368 35.290104,199.827446 33.009361,199.266226 C25.6002127,197.450104 24.1534714,196.30152 23.6083301,195.869276 C23.1191141,195.480605 16.9991928,189.953808 16.162177,187.456204 C15.8756512,186.600431 15.8533333,185.671455 16.1488316,184.184745 C14.7965013,183.290627 14.2081006,182.70152 13.8246027,182.230932 C13.4302855,181.748144 8.63291996,175.030932 8.34803179,172.414288 C8.29358735,171.920693 8.32557455,171.420998 8.46324494,170.846183 C6.86121938,169.361564 6.28302811,168.527403 5.94853887,167.902044 C5.65351097,167.350235 2.22969594,159.831804 2.44897203,157.208188 C2.50186589,156.577425 2.69220367,155.964789 3.09230499,155.231543 C2.04833062,153.728101 1.69730595,152.897251 1.5111739,152.279212 C1.23058031,151.347273 -0.511777765,143.494375 0.177488884,141.101347 C0.496465374,139.995639 1.09453715,138.877034 5.55693959,135.439474 C7.27412604,134.116598 9.64434963,134.152328 11.3188691,135.525574 C12.5223613,136.511195 14.6109198,138.226402 16.6978406,139.956598 C22.1823212,118.661784 29.5777059,98.4568167 38.6855208,79.8886255 C52.7081445,51.2963822 70.2174774,27.5975592 90.7258715,9.45009127 L101.40308,0 L112.07994,9.44840064 C132.588857,27.5963392 150.098016,51.2955107 164.121859,79.8881026 C168.432291,88.6772963 172.399505,97.9220891 175.912173,107.367666 C177.215356,110.890978 180.319995,120.035553 180.319995,120.035553" id="path14" fill="#FFFFFF"></path>
                        <path d="M144.825877,137.639038 C142.344256,138.509975 140.056718,138.805574 138.881938,138.491326 C139.620989,138.268755 140.418926,137.966707 141.236203,137.586227 C144.189444,136.21089 146.248053,134.367578 145.835321,133.468406 C145.8064,133.404964 145.763715,133.349888 145.713017,133.299692 C148.120071,132.749975 150.006375,132.847753 150.281646,133.644441 C150.635143,134.669103 148.192547,136.457513 144.825877,137.639038" id="path16" fill="#1D2953"></path>
                        <path d="M179.323444,188.906313 C154.052163,192.61176 127.835552,194.490627 101.403603,194.490627 C80.84451,194.490627 60.4181745,193.349015 40.4639812,191.098906 L41.4323083,187.391716 L71.5318098,174.949015 C81.4265864,175.503264 91.3974982,175.783874 101.403603,175.783874 C124.670632,175.783874 147.749849,174.277468 170.11249,171.304397 C168.25772,160.731674 165.944049,150.443046 163.196739,140.455247 C164.492081,139.4515 165.746133,138.408014 166.926662,137.315726 C172.308387,132.33272 174.858129,126.162263 176.906982,121.203483 C176.915693,121.182045 176.922662,121.158515 176.933116,121.136206 C182.501258,138.281652 186.776671,156.343351 189.707089,175.175595 L191.564297,187.111106 L179.323444,188.906313" id="path18" fill="#1D2953"></path>
                        <path d="M81.6438415,122.590324 L81.655166,122.527927 C75.1788035,96.8869693 87.4672191,77.6479283 88.1052209,61.6280595 C85.806533,70.2121115 82.0947286,77.8581244 77.3537936,84.0273617 C79.5601438,76.9364687 80.783358,69.1299329 80.783358,60.9305431 C80.783358,58.4568177 80.6612282,56.0238766 80.4451927,53.6303255 C75.9026968,59.7504124 71.5934844,66.2799112 67.5285316,73.2045298 C67.2783485,75.5979066 67.1464623,78.0299763 67.1464623,80.4956843 C67.1464623,96.5880586 72.6118133,111.299866 81.6438415,122.590324 Z M30.0745877,173.783699 L26.6939798,180.439211 C29.820049,180.688449 33.4598996,180.991717 35.4615387,181.20261 L62.1948927,168.096902 L30.0745877,173.783699 Z M23.5050163,162.741957 L19.6587124,167.675813 C22.754467,168.620998 26.5148793,169.782305 28.5248811,170.453155 L57.5015203,163.385617 L23.5050163,162.741957 Z M19.7301435,150.697513 L14.8127737,154.928972 C17.5957471,156.415857 20.8531799,158.170454 22.6194448,159.172806 L51.9194405,157.849756 L19.7301435,150.697513 Z M95.8591549,107.258908 C97.6466749,108.181087 99.9218428,109.015248 102.718284,109.453941 C105.423606,108.82527 108.241825,108.490629 111.138443,108.490629 C119.337341,108.490629 126.910432,111.159039 133.048978,115.666925 C148.435413,123.120868 166.599996,119.193897 174.114897,113.095771 C174.114897,113.095771 172.158033,125.697426 163.902339,134.046184 C155.921568,142.116946 143.32234,147.198079 137.260103,149.803046 C137.250347,149.852022 137.224388,149.920345 137.170379,150.008537 C123.875481,171.96078 97.5363922,169.879386 92.4630412,169.126967 C88.3073187,168.510497 84.5186823,167.487926 81.0720442,166.186314 L37.6844399,184.120257 L34.7780649,195.252283 C34.6724862,195.658383 34.2621929,195.904135 33.8562552,195.804788 C31.9849343,195.3464 27.0807531,194.077555 25.822346,193.077119 C24.2576563,191.836161 19.8620297,187.287141 19.5397186,186.323307 C19.3668902,185.807403 19.8059302,184.034854 20.2514164,182.495856 C18.6696529,181.610453 17.1285005,180.646619 16.5860248,179.980823 C15.3227047,178.429625 11.9987364,173.037207 11.888837,172.026314 C11.8488182,171.656989 12.2126987,170.775421 12.6901199,169.80566 C11.1440893,168.521826 9.54267354,167.069625 9.09032297,166.222741 C8.14659606,164.456118 5.91402545,158.520083 5.99834901,157.506576 C6.03359416,157.087752 6.70198028,156.122872 7.47291359,155.137077 C6.30351664,153.665704 5.17896449,152.104223 4.92130725,151.250367 C4.34295918,149.330715 3.31872418,143.065792 3.60040667,142.088711 C3.81328879,141.349539 6.45603077,139.244267 7.73050114,138.262829 C8.1263166,137.957469 8.67572636,137.965661 9.06208155,138.282001 C11.0539293,139.914071 17.0650662,144.851064 19.5663746,147.025182 L61.9250225,153.70004 C54.5247595,146.244528 51.4403294,139.007927 51.4403294,139.007927 C51.5582778,139.246881 64.7906295,159.039299 93.2878092,163.31834 C112.147713,166.151107 130.951343,153.727229 133.375296,137.208188 C133.375296,137.208188 135.193479,139.596511 136.217557,143.733504 C145.140871,141.102567 154.135093,136.233199 159.506538,131.785095 C163.82812,128.206184 165.694737,124.895335 166.343889,123.508842 C152.473884,128.936293 144.794169,128.144833 144.794169,128.144833 C144.795214,128.144311 150.060906,127.353897 158.114677,124.051064 C146.823858,125.234681 140.435129,123.839648 133.130514,122.163483 C134.548857,123.891413 136.733952,125.880433 139.904971,127.155378 C135.819634,127.66187 132.148946,127.466489 129.323759,127.067884 C132.140932,128.858907 135.211076,130.151456 139.904971,130.527753 C139.904971,130.527753 125.836527,134.707448 123.37407,138.936293 C123.282777,140.636511 122.72997,142.79163 120.84175,144.611935 C119.043254,146.344746 102.033416,156.005399 102.033416,156.005399 C102.033416,156.005399 101.76825,154.175857 102.086205,151.937251 C100.743997,152.799125 97.6424936,154.339168 94.3995212,155.755116 C91.3983693,157.065268 80.54659,153.781085 78.5236958,152.34004 C80.4516389,148.977425 88.5810218,151.625617 87.5435285,145.604528 C90.0453595,146.445661 93.747059,147.363134 98.7008935,146.631282 C97.4926625,144.181783 97.1079798,141.297774 97.741626,138.399474 C99.1883673,131.78126 105.915958,127.598428 112.76777,129.055857 C114.642401,129.454463 116.322774,130.237382 117.752442,131.294114 C120.414209,128.304833 119.308594,124.926881 119.308594,124.926881 C119.308594,124.926881 121.261625,124.830672 123.271104,125.428494 C122.626656,124.694725 121.777323,123.904136 120.851158,123.103788 C117.390756,120.114681 112.902618,118.526359 108.342525,118.85089 C88.2909418,120.276773 85.547813,140.329234 85.2976299,142.640519 L85.3136583,142.870585 C71.3582844,140.589103 59.6134421,130.788145 53.5336093,117.304224 C57.5750421,121.731762 62.4140642,125.265705 67.789865,127.62126 C61.2591451,118.726969 57.0443612,107.488973 55.9225444,95.4870564 C48.7297801,111.089148 42.8382816,127.774463 38.2957857,145.381086 L21.4885684,142.805399 C21.0286217,142.414288 20.5150146,141.980999 19.9723124,141.526271 C25.4211123,120.187709 32.7494214,100.0793 41.882847,81.4582986 C55.7000626,53.2860989 72.9276782,29.9564263 93.0862341,12.1185356 L101.403254,4.75816982 L109.7201,12.1185356 C129.879179,29.9559034 147.106272,53.2860989 160.92401,81.4582986 C165.207089,90.1908474 169.092942,99.2505422 172.574773,108.610193 L171.309919,109.636947 C167.9598,112.35503 161.959239,114.584747 155.050979,115.167927 C151.783616,106.382568 148.149166,97.8800847 144.13648,89.698647 C136.711129,74.5594753 128.261526,60.9795192 118.876349,49.0722428 C116.397341,58.8256194 107.991119,66.8969046 105.411236,69.6634405 C99.3334944,76.1830046 93.5778892,84.7090175 91.5293844,98.0155095 C90.9534057,101.758255 92.4950981,105.523832 95.8591549,107.258908 Z" id="path20" fill="#1D2953"></path>
                        <path d="M178.12828,180.752937 C153.251438,184.400867 127.43728,186.250104 101.40308,186.250104 C88.2426822,186.250104 75.139255,185.77603 62.1840909,184.83834 L66.8215379,182.919385 C78.2621883,183.653154 89.810508,184.022653 101.40308,184.022653 C127.329437,184.022653 153.035577,182.182131 177.805969,178.548144 L179.6022,178.286706 L179.368742,176.786052 C177.424422,164.290018 174.870325,152.151107 171.727007,140.412371 C172.355253,139.779866 172.943253,139.134288 173.502854,138.481042 C176.835551,150.718776 179.535996,163.385443 181.569169,176.44444 L182.147587,180.16383 L178.12828,180.752937" id="path22" fill="#95CBEB"></path>
                        <path d="M151.531168,86.0688432 C138.317806,59.1295846 121.918095,36.8869708 102.788147,19.9581694 L101.403254,18.7328971 L100.018362,19.9581694 C80.8878913,36.8869708 64.4881797,59.1295846 51.2758636,86.0688432 C43.2339403,102.466054 36.6467724,120.081217 31.549553,138.714593 L29.3334464,138.375073 C34.4771831,119.51442 41.138047,101.684355 49.2775348,85.0879282 C62.6189495,57.8860116 79.1941029,35.412461 98.5432224,18.2901956 L101.403254,15.7594593 L104.263112,18.2901956 C123.612406,35.4119381 140.187733,57.8860116 153.529497,85.0879282 C157.105233,92.3790827 160.3888,99.9140716 163.393262,107.663614 C162.729998,107.912328 162.022307,108.146054 161.276462,108.36113 C158.30667,100.709889 155.062652,93.2693659 151.531168,86.0688432" id="path24" fill="#95CBEB"></path>
                        <path d="M111.063354,143.399561 C110.554973,143.156075 110.232662,142.62675 110.305661,142.055596 C110.397476,141.336816 111.076595,140.831543 111.822266,140.926881 C112.527691,141.017164 113.032239,141.613766 113.008371,142.286881 L111.063354,143.399561" id="path26" fill="#FFFFFF"></path>
                        <path d="M80.7835322,60.9303688 C80.7835322,69.1297586 79.560318,76.9364687 77.353271,84.0273617 C82.0947286,77.8581244 85.806533,70.2126344 88.1052209,61.6278852 C87.4672191,77.6477541 75.1789777,96.8869693 81.655166,122.527753 L81.6440157,122.590324 C72.6119875,111.299866 67.1466365,96.5880586 67.1466365,80.49551 C67.1466365,78.0353793 67.2778259,75.6087127 67.526441,73.2200417 C71.5924391,66.2943774 75.9023483,59.7622643 80.4464122,53.6404344 C80.6614024,56.0303254 80.7835322,58.4604778 80.7835322,60.9303688" id="path28" fill="#95CBEB"></path>
                        <path d="M67.7896907,127.62126 C62.4140642,125.265531 57.5750421,121.731587 53.5334351,117.304049 C59.6134421,130.788493 71.3581102,140.588929 85.3140068,142.870933 L85.2974556,142.640868 C85.4896228,140.86919 87.1459534,128.676772 96.9365451,122.435378 C93.4195212,125.932023 91.2375622,130.77089 91.2375622,136.123047 C91.2375622,140.109626 92.4485808,143.811761 94.5178181,146.888362 C91.6023835,146.809408 89.2824404,146.189277 87.5433543,145.604354 C88.5815445,151.625443 80.4514647,148.977251 78.5240443,152.34004 C80.5469384,153.781434 91.398195,157.065094 94.399347,155.754942 C94.9190518,155.528188 95.4344012,155.2976 95.9405167,155.067534 C98.7519406,156.185617 101.813548,156.809408 105.022895,156.809408 C115.044331,156.809408 123.660317,150.811499 127.495471,142.211238 C127.630319,143.517208 127.91221,149.023613 123.835933,154.013068 L124.209291,153.83163 C120.998376,156.810105 117.13674,159.242523 112.88868,160.950933 C108.619887,162.036946 103.628421,162.47773 97.8304793,161.819604 C97.8304793,161.819604 68.4426756,159.986401 50.4815845,130.311456 C48.6299508,127.252284 46.8764042,124.12235 45.7887349,120.61455 C48.8107934,111.96357 52.1945374,103.585357 55.9234155,95.4948996 C57.0462777,107.493505 61.2607131,118.72906 67.7896907,127.62126" id="path30" fill="#95CBEB"></path>
                        <path d="M120.850984,123.103788 C121.755894,123.884964 122.583275,124.656206 123.2218,125.375509 C119.612438,122.859256 115.19573,121.435465 110.460893,121.580651 C105.569953,121.730019 101.120317,123.527491 97.617754,126.419518 C98.1703869,124.063788 99.1296544,122.182132 100.320637,120.677644 C102.627514,119.721827 105.282486,119.068058 108.342874,118.85089 C112.902966,118.526359 117.39093,120.114507 120.850984,123.103788" id="path32" fill="#95CBEB"></path>
                        <path d="M103.793235,140.10004 C103.488694,142.477556 104.374266,144.73394 105.989654,146.302916 L104.204051,147.324266 C102.379596,145.525922 101.378863,142.868145 101.740026,140.049844 C102.339525,135.370106 106.447684,132.040432 110.914916,132.613679 C112.817249,132.857513 114.473754,133.773766 115.707073,135.102045 C114.709999,134.382219 113.521455,133.890193 112.209736,133.722001 C108.080669,133.192676 104.31294,136.048275 103.793235,140.10004" id="path34" fill="#95CBEB"></path>
                        <path d="M33.903992,185.514592 C33.9909289,185.627882 34.0287351,185.769059 33.9919743,185.911978 L32.4192703,191.933764 C32.3387796,192.242261 31.952529,192.418296 31.595025,192.308492 C30.5362766,191.980823 29.6933895,191.679298 29.288497,191.471891 C29.2456384,191.450976 29.2104455,191.426575 29.1747299,191.396945 C28.3367211,190.698034 26.7577451,189.106749 25.5920242,187.830932 L33.903992,185.514592" id="path36" fill="#95CBEB"></path>
                        <path d="M25.9761842,174.170802 C26.1293256,174.330279 26.1836829,174.548144 26.0871638,174.738122 L23.2705132,180.285834 C23.1264314,180.568187 22.7119568,180.657076 22.3865097,180.472327 C21.4220155,179.92505 20.6634519,179.449233 20.3118715,179.158165 C20.2745879,179.128536 20.245667,179.097163 20.2174431,179.060562 C19.6247391,178.297163 18.6139018,176.72505 17.7886111,175.335943 L25.9761842,174.170802" id="path38" fill="#95CBEB"></path>
                        <path d="M19.5033062,162.613155 C19.5074875,162.71895 19.4797862,162.822305 19.4114911,162.910497 L15.59031,167.811761 C15.3950592,168.062044 14.9710023,168.069538 14.6872117,167.825007 C13.8453525,167.100824 13.1918276,166.487665 12.9021831,166.134898 C12.8718162,166.097599 12.8488189,166.061695 12.828069,166.020214 C12.4370098,165.244266 11.8389398,163.763307 11.3263432,162.366009 L19.5033062,162.613155" id="path40" fill="#95CBEB"></path>
                        <path d="M15.8395872,149.730367 C15.8316252,149.852545 15.7820067,149.966881 15.6854528,150.050192 L10.9798849,154.098645 C10.739162,154.305704 10.3231368,154.228144 10.0927105,153.932545 C9.40928901,153.05516 8.88921827,152.324005 8.67469845,151.920693 C8.65177081,151.877818 8.63685738,151.838428 8.62453987,151.793635 C8.39622166,150.965922 8.10554931,149.425704 7.87879909,147.97089 L15.8395872,149.730367" id="path42" fill="#95CBEB"></path>
                    </g>
                </g>
            </g>
        </g>
    </g>
</svg>