<?xml version="1.0" encoding="UTF-8"?>
<svg width="200px" height="200px" viewBox="0 0 200 200" version="1.1" xmlns="http://www.w3.org/2000/svg" xmlns:xlink="http://www.w3.org/1999/xlink">
    <!-- Generator: Sketch 51.3 (57544) - http://www.bohemiancoding.com/sketch -->
    <title>ursuline</title>
    <desc>Created with Sketch.</desc>
    <defs></defs>
    <g id="ursuline" stroke="none" stroke-width="1" fill="none" fill-rule="evenodd">
        <g id="ursuline_BGL" transform="translate(0.000000, 56.716418)">
            <g id="ursuline">
                <g id="g10" transform="translate(99.999998, 44.374807) scale(-1, 1) rotate(-180.000000) translate(-99.999998, -44.374807) translate(0.052493, 0.070346)" fill-rule="nonzero">
                    <g id="g12" transform="translate(0.083989, 0.000000)">
                        <path d="M87.1528587,43.3478204 C86.2383181,43.8186866 85.3627275,44.0676104 84.6208903,44.0676104 C83.6909165,44.0676104 83.2017827,43.6763244 83.1119139,43.4296052 L83.0937512,43.3799464 L83.1201029,43.3338572 C83.3285019,42.9704976 83.8024126,42.5999989 84.3042499,42.207663 C85.3457197,41.3932798 86.9101291,40.1700777 86.8079768,37.9848809 C86.7366907,36.4614164 85.767137,35.6437786 85.494801,35.4434637 C85.2303391,35.6790542 84.2437774,36.4495529 82.655746,36.4496579 C82.5091843,36.4496579 82.359263,36.4428337 82.2104966,36.4295004 C81.9086594,36.4209965 81.6551161,36.4103928 81.4328589,36.401049 C81.1290268,36.3883455 80.8890268,36.3782668 80.6443024,36.3782668 C78.4929114,36.3782668 75.4041976,36.7615739 73.4281346,40.0749596 C73.0998407,40.6254058 72.8327541,41.2111276 72.6343289,41.8160619 L72.5026754,42.2174268 L72.4145914,41.8044084 L68.0918618,21.5365874 L57.8618358,21.5365874 C56.7519146,21.5365874 55.6999461,22.0398945 54.9755367,22.9174797 C54.3178989,23.7139102 54.0265603,24.715065 54.1964291,25.5954849 L65.6858776,79.7989481 L65.715064,79.9364809 L65.5743816,79.9364809 L41.1854058,79.9364809 L41.0452483,79.9364809 L41.0738047,79.7993681 L43.6346446,67.4866125 L33.2487131,18.4244615 C32.4752748,14.7516007 32.7255635,12.1669288 33.9927551,10.742152 C35.2639361,9.31151683 37.7406815,8.58616252 41.3540147,8.58616252 L86.2761133,8.58616252 L86.4231999,8.58616252 L86.3864545,8.72851422 L85.5529637,11.9551703 L91.3909688,39.6124924 L91.4008376,39.6594216 L91.3741709,39.6994216 C90.3752208,41.1923349 88.9549584,42.4198415 87.1528587,43.3478204" id="path14" fill="#FFFFFF"></path>
                        <path d="M99.9026747,79.9364809 L80.5473996,79.9364809 L80.528187,79.8462972 L74.0999457,49.7065604 L74.0097619,49.2835683 L74.2966911,49.6072429 C75.1966385,50.622256 76.3676621,51.4750643 77.7774259,52.141941 C78.9980033,52.7194737 80.5404704,53.0246706 82.2378982,53.0246706 C83.8565858,53.0245656 88.0370582,52.6843031 91.8860869,49.5362717 L92.1463494,49.3233583 L92.0690791,49.6506024 C91.6894465,51.2586864 91.5048796,52.9478202 91.5048796,54.8145918 C91.5048796,59.9108646 93.2654045,62.5628331 94.6799976,64.6938567 C95.8743283,66.4930167 96.7372154,67.7928592 96.4910212,70.3329116 L96.2060868,73.273699 L98.1859293,72.4558512 L98.3126485,72.4034628 L98.3408899,72.537636 L99.8736983,79.7990531 L99.9026747,79.9364809" id="path16" fill="#FFFFFF"></path>
                        <path d="M137.378474,24.6701306 L137.286086,24.6701306 L137.267188,24.5795269 C137.165351,24.0927028 136.908133,22.8937527 136.732805,22.2773748 C136.578474,21.7384771 136.083986,20.8346451 134.499734,20.8346451 L123.102359,20.8346451 C122.21312,20.8346451 121.450916,21.1708131 120.955378,21.7813118 C120.495535,22.3484509 120.309708,23.1083459 120.45879,23.8137527 L123.687136,39.2904977 L123.793173,39.8018888 L123.483461,39.3813114 C121.500259,36.6895529 118.678212,36.3782668 116.729656,36.3782668 C116.282412,36.3782668 115.812071,36.3896054 115.148554,36.409028 C115.057215,36.417112 114.956428,36.4213114 114.85564,36.4213114 C113.239892,36.4213114 111.707084,35.3623088 111.293436,35.0524926 C111.141205,35.3420464 110.748554,36.201154 110.600522,37.5872956 C110.335955,40.0702352 112.047241,41.4081879 113.069813,42.207663 C113.571651,42.5999989 114.045142,42.9706026 114.254065,43.3340672 L114.280312,43.3800514 L114.261414,43.4297102 C114.172176,43.6764294 113.682937,44.0676104 112.752753,44.0676104 C112.010496,44.0676104 111.134905,43.8186866 110.22047,43.3478204 C107.286087,41.8366394 105.353278,39.5014163 104.631388,36.5945398 L104.596323,36.4531224 L104.742045,36.4531224 L106.972176,36.4531224 L106.972176,30.578162 L105.673488,30.578162 L105.441467,30.578162 L105.58215,30.3947499 C106.29921,29.4618365 107.170601,28.4776896 109.217845,27.5889757 C107.441467,23.7100257 104.682622,20.243989 104.346349,19.827926 L100.330811,19.827926 L100.238528,19.827926 L100.219315,19.7376373 L99.308134,15.461207 C98.7980028,12.9797372 99.1419398,11.1988449 100.330181,10.1673593 C101.53732,9.11811001 103.354853,8.58616252 105.732281,8.58616252 L147.290285,8.58616252 L147.379524,8.58616252 L147.400521,8.67359558 L151.187398,24.5296582 L151.220994,24.6701306 L151.077162,24.6701306 L137.378474,24.6701306" id="path18" fill="#FFFFFF"></path>
                        <path d="M160.203671,78.3565335 C159.026768,79.4049324 157.259839,79.9364809 154.951177,79.9364809 L120.953278,79.9364809 C118.564826,79.9364809 116.506034,79.3982132 114.833593,78.336691 C113.17585,77.2851424 112.075588,75.4825178 111.562202,72.9787908 L106.826244,50.7475053 L106.769551,50.4838833 L106.998423,50.6271903 C109.423619,52.1508648 112.388449,53.0246706 115.132806,53.0246706 C116.832543,53.0246706 118.37585,52.7194737 119.595798,52.141941 C122.984774,50.5386864 124.299209,48.2205762 124.806296,46.5581091 C124.838842,46.4492377 124.870338,46.3337521 124.906034,46.1947495 L125.026769,45.7154844 L125.127556,46.1994739 L129.451965,66.9296571 C129.596847,67.714434 129.906558,68.194224 130.203671,68.4542765 C130.507083,68.7204182 131.035167,68.849867 131.818369,68.849867 L142.548028,68.849867 C143.352227,68.849867 143.840416,68.7174786 144.085036,68.4333841 C144.330705,68.1451951 144.297109,67.6575311 144.13018,66.8372687 L143.620994,64.3360614 L159.104458,64.299526 L160.875587,72.3444601 C161.463513,75.2096569 161.211545,77.456586 160.203671,78.3565335" id="path20" fill="#FFFFFF"></path>
                        <path d="M160.7643,72.3690271 L159.013119,64.4136467 L143.760626,64.4496572 L144.240416,66.8071374 C144.429393,67.6669799 144.44724,68.1843553 144.171125,68.5076098 C143.903408,68.8188959 143.387923,68.9637778 142.548028,68.9637778 L131.818369,68.9637778 C131.006821,68.9637778 130.45354,68.8249852 130.128081,68.5399458 C129.81417,68.2643552 129.482411,67.6955364 129.339629,66.9529642 L125.01627,46.222676 C124.984774,46.3459306 124.952228,46.4689752 124.914433,46.5913899 C124.402097,48.2756943 123.070863,50.6238308 119.645141,52.2450381 C118.409446,52.829605 116.849341,53.1385813 115.132806,53.1385813 C112.78005,53.1385813 109.74173,52.485143 106.93753,50.7237783 L111.674538,72.9559037 C112.180575,75.4293944 113.264039,77.2062973 114.894485,78.240523 C116.549078,79.2903917 118.586874,79.8225702 120.953278,79.8225702 L154.951177,79.8225702 C157.231492,79.8225702 158.973224,79.3005754 160.12808,78.2715991 C161.105508,77.3989482 161.342778,75.1924391 160.7643,72.3690271 Z M120.347504,23.8372697 C120.191073,23.0986871 120.386349,22.3028866 120.867189,21.7096058 C121.384774,21.0718105 122.178475,20.7206294 123.102359,20.7206294 L134.499734,20.7206294 C136.158527,20.7206294 136.679262,21.6763249 136.841991,22.2459837 C137.017319,22.8602619 137.270338,24.0387396 137.378474,24.5561149 L151.077162,24.5561149 L147.290285,8.69996829 L105.732281,8.69996829 C103.383095,8.69996829 101.590654,9.22268743 100.404932,10.2534486 C99.2501812,11.2558527 98.9185277,13.0001047 99.4196301,15.4374799 L100.330811,19.7139103 L104.400522,19.7139103 C104.400522,19.7139103 107.459315,23.4265611 109.370076,27.6478733 C107.309184,28.5211541 106.441992,29.4621515 105.673488,30.4641462 L107.086611,30.4641462 L107.086611,36.5671382 L104.742045,36.5671382 C105.458265,39.4515476 107.34173,41.7372168 110.272963,43.2464031 C111.171651,43.7090803 112.028344,43.9536997 112.752753,43.9536997 C113.704984,43.9536997 114.098685,43.5451958 114.154328,43.3907601 C113.956953,43.0467181 113.491861,42.6823086 112.999472,42.2973218 C111.920207,41.4540672 110.21942,40.0851434 110.487136,37.5752222 C110.677163,35.7962196 111.25879,34.8816789 111.25879,34.8816789 C111.25879,34.8816789 113.212596,36.4614164 115.145404,36.2951172 C115.853015,36.2743298 116.30026,36.264356 116.729656,36.264356 C118.745404,36.264356 121.5748,36.5993692 123.57585,39.3136998 L120.347504,23.8372697 Z M94.8224648,21.7302882 C96.4481866,23.7912855 97.5227272,25.7771122 97.7089739,32.3509703 L97.7122285,32.4680307 L96.3028847,32.4680307 L96.2945908,32.3629388 C96.2309687,31.5588444 95.7580029,27.3996844 92.645457,23.7336477 C92.389604,24.1761674 91.5677667,25.6019941 90.8234098,26.9430964 C91.7490791,27.5089757 94.1455095,29.490288 94.7925436,32.3287131 L94.8243546,32.4680307 L92.2910213,32.4680307 L92.2910213,34.5631487 L94.9421499,34.5631487 L94.9348008,34.6839886 C94.6536459,39.2658258 92.26194,42.8428336 88.0180555,45.0280304 C85.0721239,46.5450907 82.9313365,45.9867705 81.9099192,44.9582141 C81.2038825,44.247243 81.0137513,43.2802089 81.4254048,42.4942772 C81.8112316,41.7577942 82.4867171,41.2296053 83.1400504,40.7188441 C84.1598929,39.9212588 85.1256672,39.1661932 84.879368,37.7065607 C84.5739611,37.9404715 83.7902341,38.3573744 82.1362709,38.3077156 L81.7805754,38.2952221 C79.6775833,38.2193166 76.7980033,38.1140148 75.0513367,41.0429386 C74.1175834,42.6087128 73.8775835,44.3717574 74.3757462,46.0076629 C74.9422553,47.8680303 76.3980033,49.3985289 78.5857198,50.4335945 C80.9630426,51.5584239 85.3540136,51.485563 89.1463495,49.1701825 C92.253856,47.2726497 96.0166905,43.2174267 96.2949057,34.67328 L96.2984753,34.5631487 L97.6263493,34.5631487 L97.74026,34.5713377 L97.74026,34.6853535 C97.74026,40.1236735 96.5617824,42.9723874 95.4220449,45.7273479 C94.3795252,48.2476628 93.3947483,50.6280302 93.3947483,54.8145918 C93.3947483,59.3406809 94.9140134,61.6293948 96.2545908,63.6487123 C97.4678191,65.4763238 98.6157456,67.2052477 98.3951681,70.2440927 C99.484197,69.298161 104.665614,64.2823081 103.874538,55.5093949 C103.471074,51.0325447 102.534486,48.4886077 101.628659,46.0283453 C100.552018,43.1041459 99.5352206,40.3419412 99.5353256,34.6770595 L99.5354306,34.5631487 L101.050811,34.5631487 L101.054381,34.67328 C101.332806,43.2116525 105.09816,47.2669804 108.207871,49.1654581 C112.008396,51.485983 116.407346,51.5601037 118.787399,50.4335945 C120.975325,49.3985289 122.431493,47.8680303 122.997372,46.0076629 C123.49606,44.3717574 123.25564,42.6087128 122.322307,41.0429386 C120.575325,38.1140148 117.694485,38.2193166 115.592648,38.2952221 L115.236743,38.3077156 C113.587399,38.3568494 112.799997,37.9404715 112.494485,37.7065607 C112.247766,39.1661932 113.213645,39.9212588 114.233068,40.7188441 C114.887136,41.2296053 115.562202,41.7577942 115.948554,42.4942772 C116.360102,43.2802089 116.169026,44.247243 115.463514,44.9582141 C114.441992,45.9865605 112.30131,46.5449857 109.355378,45.0280304 C105.111808,42.8428336 102.719892,39.2658258 102.438843,34.6839886 L102.431389,34.5631487 L105.082412,34.5631487 L105.082412,32.4680307 L102.549184,32.4680307 L102.580995,32.3287131 C103.228449,29.4887132 105.626244,27.5070859 106.551178,26.9424665 C105.840417,25.6284508 104.983934,24.2048288 104.719682,23.7693432 C101.613016,27.426141 101.126507,31.5637787 101.060155,32.3634638 L101.051546,32.4680307 L99.5619923,32.4680307 L99.5651419,32.3509703 C99.7372154,25.9762723 100.642307,24.0841989 102.106769,21.7302882 L94.8224648,21.7302882 Z M85.4359034,11.9525456 L86.2761133,8.69996829 L41.3540147,8.69996829 C37.7746972,8.69996829 35.3267183,9.4124827 34.0778994,10.8178475 C32.8360097,12.2140679 32.5945399,14.765354 33.3602091,18.4009444 L43.751075,67.4864025 L41.1854058,79.8225702 L65.5743816,79.8225702 L54.0845131,25.6170072 C53.9079252,24.7014167 54.2087126,23.667086 54.8876627,22.8449338 C55.6339094,21.9408918 56.7182138,21.4225716 57.8618358,21.4225716 L68.1841453,21.4225716 L72.5260874,41.7805764 C72.7238827,41.1774268 72.9905494,40.5861407 73.3301819,40.0165869 C75.3360611,36.6532274 78.4650899,36.264356 80.6443024,36.264356 C81.0730688,36.264356 81.4932263,36.2951172 82.2207853,36.3160096 C84.2993155,36.5029912 85.4840924,35.2974269 85.4840924,35.2974269 C85.4840924,35.2974269 86.8352734,36.128818 86.9217826,37.9795266 C87.0268745,40.2281355 85.3933837,41.5005764 84.3743811,42.2973218 C83.8820976,42.6823086 83.4162709,43.0466131 83.2190005,43.3905501 C83.2752735,43.5451958 83.6691843,43.9536997 84.6208903,43.9536997 C85.3446698,43.9536997 86.2022026,43.7090803 87.1006802,43.2464031 C88.8971106,42.3214688 90.2976355,41.103411 91.2794728,39.6361145 L85.4359034,11.9525456 Z M80.639578,79.8225702 L99.7622022,79.8225702 L98.2293939,72.561153 L96.0744333,73.4514417 L96.3776354,70.321888 C96.6198401,67.8221505 95.7662968,66.5364813 94.5850895,64.7569538 C93.1619924,62.6132268 91.3909688,59.9453003 91.3909688,54.8145918 C91.3909688,52.7547493 91.6146959,51.0795788 91.9582129,49.6244607 C88.7788954,52.2247756 85.0249848,53.1383714 82.2378982,53.1385813 C80.5232526,53.1386863 78.9644075,52.829605 77.728607,52.2450381 C76.1532789,51.4996313 75.024985,50.6004187 74.2114417,49.6828334 L80.639578,79.8225702 Z M161.462463,79.7662972 L161.462463,79.7664022 C159.928605,81.1333313 157.737529,81.8263497 154.951177,81.8263497 L120.953278,81.8263497 C118.200522,81.8263497 115.800522,81.1891843 113.82047,79.9323865 C111.715483,78.5966385 110.332806,76.3875047 109.713383,73.3670323 L106.043042,56.140786 C106.522832,65.1460351 101.283252,70.4622555 100.067924,71.5680822 L102.233173,81.8263497 L79.0180558,81.8263497 L66.562413,23.4264561 L57.8618358,23.4264561 C57.3177938,23.4264561 56.7970589,23.6795795 56.4330695,24.1206293 C56.1435157,24.4711805 55.9932794,24.9057212 56.0495524,25.2235164 L68.0476623,81.8263497 L38.7218888,81.8263497 L41.703621,67.4900771 L31.3997892,18.8159575 C30.4828339,14.4621519 30.8691856,11.4104984 32.5805766,9.4860995 C34.248818,7.60871372 37.1186342,6.69615731 41.3540147,6.69615731 L88.8634099,6.69615731 L87.4937511,11.9986349 L89.9266119,23.5249338 C91.2783179,21.4029391 92.7868743,19.6572174 92.8025174,19.6392646 L92.8365331,19.6001045 L98.2576353,19.6001045 L97.4567955,15.8409445 C96.7991577,12.6416795 97.3489739,10.2529131 99.0910211,8.74028325 C100.651756,7.38382134 102.886087,6.69615731 105.732281,6.69615731 L148.871387,6.69615731 L153.615744,26.5601043 L135.752228,26.5601043 C135.752228,26.5601043 135.054065,23.2971123 134.937529,22.8783196 C134.902884,22.7541202 134.862989,22.7245139 134.499734,22.7245139 L123.102359,22.7245139 C122.883986,22.7245139 122.588973,22.7674535 122.423094,22.9719679 C122.323357,23.0953275 122.277162,23.2766398 122.308658,23.4234115 L131.287136,66.4762188 C131.349078,66.6945915 131.419419,66.9598933 131.818369,66.9598933 L142.225718,66.9598933 L141.309183,62.451547 L160.622568,62.4060877 L162.721256,71.9380559 L162.727555,71.9666124 C163.472962,75.6024128 163.023618,78.3722815 161.462463,79.7662972 Z" id="path22" fill="#FCCC2A"></path>
                        <path d="M17.7422568,46.2734897 L30.6627814,46.2734897 L30.9082407,47.5403663 C30.9082407,47.5403663 23.8089233,50.2990014 22.2124929,50.4822035 C19.828346,50.7559042 13.1843566,51.4413635 13.11748,51.4482927 L12.8115482,51.4797887 L17.708661,46.3090802 L17.7422568,46.2734897" id="path24" fill="#FCCC2A"></path>
                        <path d="M30.2403142,44.2680304 L17.2292909,44.2680304 L11.5185299,38.5785817 L11.8408396,38.6132274 C11.8920732,38.6188967 16.9925455,39.1698678 19.3059313,39.5591591 C20.9890808,39.8426237 30.0469284,43.2085029 30.0469284,43.2085029 L30.2403142,44.2680304" id="path26" fill="#FCCC2A"></path>
                        <g id="g28" transform="translate(130.203136, 32.064566)" fill="#FCCC2A">
                            <path d="M59.7730152,13.0313895 L14.1760362,25.4445741 L26.2742885,15.9648892 L26.3535754,15.9051908 L7.54858186,15.9051908 C4.14973785,15.8182084 1.19979777,14.6760102 0.0361455109,12.9959435 C0.00582992111,12.9537349 0.00233196845,12.8992835 0.0256516529,12.8536935 L0.073457006,12.7825684 L38.576588,12.7825684 C25.5443824,9.76325229 25.5455483,9.76336889 25.5350545,9.75917135 L11.2843953,0.248704435 C11.229594,0.212558924 11.2086063,0.14259987 11.235424,0.0826682814 C11.2564117,0.0328807551 11.305383,0.00198217318 11.3590183,0.00198217318 C11.3706781,0.00198217318 11.381172,0.00326475582 11.3928318,0.00594651954 L59.7695172,12.7698592 C59.8289824,12.7839676 59.8721239,12.8377195 59.8732898,12.9003328 C59.8732898,12.9620134 59.8324804,13.0156487 59.7730152,13.0313895" id="path30"></path>
                        </g>
                        <path d="M118.836742,50.5365867 C114.264564,52.6997362 101.46026,50.6151168 100.94047,34.6771645 L99.6492364,34.6771645 C99.6492364,34.6798941 99.6492364,34.6825188 99.6492364,34.6851435 C99.6492364,45.0803138 103.103305,45.686823 103.988029,55.4991062 C104.872753,65.3114944 98.3106537,70.4827279 98.2587902,70.5041452 C98.8969004,63.9180037 93.2808376,63.6016782 93.2808376,54.8145918 C93.2808376,46.0274004 97.6263493,45.0803138 97.6263493,34.6851435 C97.6263493,34.6825188 97.6263493,34.6798941 97.6263493,34.6771645 L96.4087115,34.6771645 C95.8898664,50.6151168 83.1088693,52.6997362 78.5369009,50.5365867 C73.8699194,48.3285027 73.0729641,44.1376367 74.953384,40.9845659 C76.8339088,37.8314951 79.9421502,38.1238836 82.1399455,38.1936998 C84.3377407,38.2634111 84.9514939,37.4868232 84.9514939,37.4868232 C85.5674519,40.1401565 82.5254573,40.639894 81.5262972,42.5472955 C80.5272421,44.4546971 83.2912315,47.3338571 87.9658771,44.926718 C92.3440397,42.6722299 94.5576879,38.968293 94.820995,34.6771645 L92.1770056,34.6771645 L92.1770056,32.3541199 L94.6813625,32.3541199 C93.9985278,29.3581095 91.3806801,27.3872959 90.669919,26.9850912 C91.5845646,25.3334377 92.6273993,23.5375322 92.6273993,23.5375322 C95.3935934,26.7254586 96.2636196,30.5244087 96.4080816,32.3541199 L97.5950632,32.3541199 C97.4102863,25.83496 96.3962181,23.87517 94.5861394,21.6162724 L102.312438,21.6162724 C100.803252,24.0233065 99.8541707,25.8638314 99.6790526,32.3541199 L100.946664,32.3541199 C101.09837,30.5244087 101.969446,26.7639888 104.73564,23.5761674 C104.73564,23.5761674 105.836218,25.3720729 106.703409,26.9850912 C105.992648,27.3872959 103.375116,29.3581095 102.692176,32.3541199 L105.196848,32.3541199 L105.196848,34.6771645 L102.552648,34.6771645 C102.81585,38.968293 105.029919,42.6722299 109.407871,44.926718 C114.081887,47.3338571 116.846191,44.4546971 115.846716,42.5472955 C114.848291,40.639894 111.805771,40.1401565 112.422044,37.4868232 C112.422044,37.4868232 113.036218,38.2634111 115.233593,38.1936998 C117.430968,38.1238836 120.53963,37.8314951 122.419944,40.9845659 C124.300259,44.1376367 123.503409,48.3285027 118.836742,50.5365867" id="path32" fill="#374FA9"></path>
                        <g id="g34" transform="translate(0.008744, 0.000000)" fill="#374FA9">
                            <path d="M189.938494,44.945383 L141.622774,32.1850335 C141.55783,32.1672659 141.525971,32.2096631 141.525971,32.2096631 L155.77194,41.7181674 C155.775616,41.7190252 169.59026,44.9198957 169.59026,44.9198957 C169.614768,44.9252872 169.611092,44.9611901 169.58781,44.9611901 C166.704551,44.9611901 131.671672,44.9611901 130.338486,44.9611901 C130.321331,44.9611901 130.313979,44.9812859 130.323782,44.9951324 C131.534432,46.7405271 134.793874,47.8560897 137.746978,47.8560897 C140.700082,47.8560897 156.884562,47.8560897 156.884562,47.8560897 L156.539012,48.120276 L144.865061,57.2208599 C144.865061,57.2208599 144.925104,57.2475726 144.960639,57.2412008 C144.972893,57.2388726 189.938494,44.9860648 189.938494,44.9860648 C189.959325,44.9809183 189.959325,44.950407 189.938494,44.945383 Z M148.773942,6.81022511 L105.723814,6.81022511 C102.905867,6.81022511 100.696185,7.48874055 99.1573855,8.82638632 C97.4486289,10.3098615 96.911066,12.6621987 97.5598911,15.8180987 L97.5612389,15.8247156 L97.5625868,15.8313325 L98.3899461,19.7139901 L92.8801404,19.7139901 C92.8801404,19.7139901 91.263408,21.5772639 89.8647886,23.8237059 L87.3681292,11.996047 L88.7078091,6.81022511 L41.3454147,6.81022511 C37.1442874,6.81022511 34.3022007,7.71048067 32.65704,9.56181946 C30.9713201,11.457124 30.5935433,14.4758456 31.5026337,18.7924012 L41.8114169,67.4899416 L38.8532891,81.712629 L67.8983522,81.712629 L55.929459,25.2473225 C55.8667209,24.8936853 56.0256493,24.4247422 56.3365217,24.0480683 C56.7223858,23.5805956 57.2752656,23.3124881 57.8532652,23.3124881 L66.6461626,23.3124881 L79.1017666,81.712629 L102.084267,81.712629 L99.9342601,71.5277291 C102.06172,69.6185046 106.647731,64.0426524 105.862402,55.3295255 C105.859216,55.3053861 105.857133,55.2819818 105.85505,55.2578423 L105.963126,55.2578423 L109.81613,73.3434591 C110.4304,76.3334461 111.7952,78.5180078 113.873891,79.8362439 C115.83507,81.0813264 118.214096,81.712629 120.944798,81.712629 L154.942375,81.712629 C157.700648,81.712629 159.865849,81.029739 161.377936,79.6814817 C162.908403,78.3157018 163.343404,75.584142 162.608192,71.9898102 L162.604516,71.9762088 L162.602065,71.9627299 L160.522639,62.5203947 L141.440196,62.5653652 L142.356761,67.0740564 L131.810137,67.0740564 C131.372685,67.0740564 131.25015,66.87898 131.169276,66.50733 L122.187797,23.4467869 C122.150056,23.2654345 122.204707,23.0507524 122.326507,22.9002789 C122.520726,22.6608447 122.850346,22.6106052 123.094192,22.6106052 L134.491212,22.6106052 C134.972776,22.6106052 135.013213,22.7272589 135.045072,22.8724634 C135.19334,23.5620928 135.836651,26.4460866 135.836651,26.4460866 L153.462147,26.4460866 L148.773942,6.81022511 Z M19.2783767,39.6718257 C16.9415035,39.278487 11.8199391,38.7265874 11.8199391,38.7265874 L17.2676928,44.1541718 L30.0715424,44.1541718 L29.8975421,43.278166 C26.6463095,42.0535469 20.9219444,39.9483882 19.2783767,39.6718257 Z M22.1909213,50.3690463 C23.7401367,50.1913699 27.9318287,48.5991445 30.7324985,47.4828467 L30.5149981,46.3875025 L17.7825867,46.3875025 L13.0970769,51.3348705 C13.0970769,51.3348705 19.7796691,50.6457313 22.1909213,50.3690463 Z M183.701441,51.4741933 C179.558518,52.7590998 173.533451,54.6097524 166.977805,56.6170053 L170.129416,71.3376766 C171.582687,78.4286794 168.934696,82.5533446 166.45703,84.7647415 L166.45703,84.7649865 C163.659546,87.2580924 159.971229,88.5221679 155.490109,88.5221679 L30.4395163,88.5221679 L35.0135188,68.2582388 L31.6042156,52.1537748 C27.9938317,53.3918728 24.8798388,54.357452 23.33626,54.5948031 C18.3746779,55.3581988 2.9855635,56.9010424 2.62151074,56.9369453 C2.25745797,56.9727256 2.05511522,56.7459126 2.05511522,56.7459126 L12.4258278,45.7870789 L0.0122125324,33.175855 C0.0122125324,33.175855 0.13934484,32.9771025 0.445366049,32.9992814 C0.631062366,33.0128829 15.2704878,34.3833191 20.6605763,35.3250039 C22.1904312,35.5921311 25.1518674,36.5778061 28.5735468,37.8373478 L24.8384218,20.1931037 C23.4535264,13.6168722 24.3454618,8.66016701 27.5648351,5.03979646 C30.5776137,1.6485059 35.0852021,0 41.3452921,0 L154.857826,0 L161.760247,32.2436054 C171.09132,35.007147 179.39187,37.4859162 183.571553,38.7831988 C196.312787,42.7372946 199.745004,44.0819984 199.745004,44.9559211 C199.745004,45.8298438 198.527002,46.8782569 183.701441,51.4741933 Z" id="path36"></path>
                        </g>
                    </g>
                </g>
            </g>
        </g>
    </g>
</svg>