<?xml version="1.0" encoding="UTF-8"?>
<svg width="200px" height="200px" viewBox="0 0 200 200" version="1.1" xmlns="http://www.w3.org/2000/svg" xmlns:xlink="http://www.w3.org/1999/xlink">
    <!-- Generator: Sketch 51.3 (57544) - http://www.bohemiancoding.com/sketch -->
    <title>virginia-union</title>
    <desc>Created with Sketch.</desc>
    <defs>
        <polygon id="path-1" points="0 0.539 199.97974 0.539 199.97974 123 0 123"></polygon>
        <polygon id="path-3" points="0.000193611526 0.539 199.979557 0.539 199.979557 123 0.000193611526 123"></polygon>
        <polygon id="path-5" points="0 123.461 199.98 123.461 199.98 1 0 1"></polygon>
    </defs>
    <g id="virginia-union" stroke="none" stroke-width="1" fill="none" fill-rule="evenodd">
        <g id="virginia-union_BGL">
            <g id="Group-110" transform="translate(0.000000, 38.500000)">
                <g id="Group-3" transform="translate(0.000000, 0.461000)">
                    <mask id="mask-2" fill="white">
                        <use xlink:href="#path-1"></use>
                    </mask>
                    <g id="Clip-2"></g>
                    <path d="M98.1801,122.9413 C103.1811,123.0003 107.7041,122.7033 112.2311,122.2743 C115.5181,121.9623 118.7841,121.5133 122.0231,120.9413 C128.3731,119.8183 134.6041,118.2013 140.6991,116.0433 C147.8801,113.5013 154.7121,110.2753 161.0631,106.0683 C166.5421,102.4373 171.4991,98.2043 175.5621,92.9973 C176.2471,92.1183 176.8651,91.4293 178.0831,92.1413 C178.3891,92.3203 178.8651,92.2263 179.2631,92.2273 C183.7691,92.2313 188.2751,92.2323 192.7811,92.2293 C196.6131,92.2263 199.2531,89.6023 199.2561,85.7923 C199.2591,81.7533 199.2561,77.7133 199.2581,73.6733 C199.2581,73.3143 199.1751,72.9113 199.3071,72.6033 C200.0511,70.8563 199.9861,69.0213 199.9721,67.1903 C199.9411,63.1833 197.2761,60.5573 193.2431,60.5543 C190.5811,60.5523 187.9181,60.5163 185.2581,60.5763 C184.4431,60.5943 184.1671,60.2913 183.9901,59.5593 C183.1501,56.0983 181.8721,52.8113 180.1611,49.6723 C176.7291,43.3743 171.9811,38.2233 166.4691,33.7283 C163.5001,31.3073 160.2961,29.2223 157.0091,27.2553 C155.2721,26.2163 154.2901,24.3623 152.7831,23.0553 C151.0711,21.5713 149.2481,20.3873 146.9681,19.9223 C145.6381,19.6503 144.2851,19.2433 143.6061,17.7913 C143.3981,17.3473 142.8581,17.0983 142.4581,16.7703 C140.2691,14.9723 136.9601,14.6783 135.6431,11.7113 C135.5991,11.6113 135.4771,11.5373 135.3771,11.4733 C133.7031,10.3913 132.0731,9.2453 130.3071,8.3043 C126.0211,6.0223 121.4771,4.4103 116.8141,3.1323 C111.2771,1.6153 105.6531,0.6413 99.8891,0.5413 C95.9991,0.4743 92.2611,1.5853 88.4181,1.8773 C85.8351,2.0733 83.2311,2.5183 80.6721,2.1573 C78.5651,1.8603 76.5361,2.2413 74.4861,2.3243 C71.0791,2.4623 67.7071,3.1563 64.2801,3.2053 C62.4031,3.2313 60.5391,3.0363 58.6701,2.9683 C56.3491,2.8833 54.9611,4.9453 55.8101,7.1103 C56.1291,7.9223 56.4071,8.7603 56.9491,9.4743 C57.3661,10.0213 57.3741,10.3923 56.5671,10.6623 C55.5131,11.0143 54.4971,11.5033 53.5001,12.0023 C48.9671,14.2713 44.5171,16.7003 40.1591,19.2853 C34.4321,22.6833 29.5161,26.9853 25.8791,32.6373 C24.9031,34.1543 24.9461,35.3523 26.1821,36.6083 C26.7171,37.1493 26.6731,37.4753 26.1501,37.9583 C24.6231,39.3673 23.3101,40.9723 21.9851,42.5693 C17.7911,47.6263 14.8651,53.3243 13.3161,59.7053 C13.1351,60.4523 12.8501,60.5703 12.2131,60.5623 C10.2531,60.5383 8.2931,60.5333 6.3331,60.5583 C2.7751,60.6053 0.2151,63.3623 0.0181,66.9043 C-0.1399,69.7333 0.7721,72.2913 1.3551,74.9583 C2.1521,78.6013 2.7941,82.2813 3.4131,85.9623 C3.9231,88.9833 5.1301,91.3573 8.4061,92.0773 C8.7911,92.1623 9.1941,92.2413 9.5831,92.2203 C12.8801,92.0403 16.2011,92.6223 19.4901,91.8373 C20.2831,91.6483 21.1031,92.0973 21.6581,92.8333 C23.9531,95.8753 26.7011,98.4813 29.5601,100.9773 C33.5741,104.4803 37.9931,107.4013 42.6701,109.9133 C48.6241,113.1123 54.8701,115.6183 61.3381,117.6053 C69.4271,120.0913 77.7071,121.5843 86.0991,122.4193 C90.2551,122.8323 94.4421,123.1323 98.1801,122.9413" id="Fill-1" fill="#FEFEFE" mask="url(#mask-2)"></path>
                </g>
                <g id="Group-6" transform="translate(0.000000, 0.461000)">
                    <mask id="mask-4" fill="white">
                        <use xlink:href="#path-3"></use>
                    </mask>
                    <g id="Clip-5"></g>
                    <path d="M21.6703,89.7664 C24.5413,93.8864 28.0793,97.3854 32.0013,100.4694 C39.2403,106.1614 47.3163,110.3624 55.9703,113.4584 C64.7653,116.6074 73.8163,118.6014 83.1063,119.6394 C87.7393,120.1574 92.3823,120.3974 97.0243,120.4994 C101.4733,120.5984 105.9273,120.2844 110.3693,119.8664 C113.7723,119.5454 117.1673,119.1804 120.5213,118.5694 C127.2183,117.3474 133.8153,115.7144 140.2093,113.3304 C143.7983,111.9924 147.3413,110.5344 150.7403,108.7784 C156.0943,106.0134 161.1933,102.8334 165.7233,98.8134 C168.7983,96.0844 171.7573,93.2494 174.0493,89.7974 C174.7493,89.5154 175.4623,89.2624 176.1423,88.9384 C176.4803,88.7774 176.7193,88.7854 177.0033,89.0114 C177.8053,89.6524 178.7523,89.7204 179.7313,89.6984 C182.0013,89.6464 184.2813,89.5614 186.5413,89.5974 C188.8553,89.6354 191.1733,89.6944 193.4853,89.6574 C195.1993,89.6294 196.6013,88.2594 196.6343,86.6164 C196.7003,83.3374 196.8433,80.0444 196.6093,76.7814 C196.3733,73.4794 197.5833,70.3514 197.3723,67.0664 C197.2063,64.4794 196.0283,63.1574 193.4493,63.1484 C189.3843,63.1334 185.3183,63.1144 181.2533,63.0974 C181.2353,62.6994 181.2653,62.2914 181.1923,61.9034 C179.6993,53.9814 175.7773,47.3164 170.4083,41.4574 C167.1673,37.9194 163.4453,34.9084 159.4503,32.2434 C158.3253,31.4934 157.0563,30.8794 156.1293,29.9334 C154.9973,28.7784 154.1443,27.3564 153.0443,26.1394 C151.2513,24.1544 149.2423,22.6164 146.6003,21.8474 C144.9853,21.3774 142.7813,21.6514 142.2253,19.2604 C142.1723,19.0334 141.8603,18.8394 141.6323,18.6844 C141.0053,18.2604 140.3623,17.8564 139.7193,17.4584 C137.8263,16.2894 135.3373,15.9014 134.4543,13.4054 C134.3843,13.2054 134.1353,13.0494 133.9403,12.9134 C128.0963,8.8394 121.5423,6.3974 114.7053,4.6454 C111.3963,3.7974 108.0343,3.2094 104.6243,2.8664 C101.6893,2.5714 98.7573,2.2684 95.8323,2.7644 C90.7643,3.6214 85.6943,4.3464 80.5323,4.1534 C76.8203,4.0154 73.1393,4.3584 69.4593,4.8344 C67.2553,5.1194 65.0243,5.2654 62.8013,5.3144 C61.5453,5.3424 60.2823,5.0474 59.0223,4.8964 C58.3263,4.8134 57.6863,4.8304 57.1793,5.4564 C56.6783,6.0754 56.7823,6.6144 57.0433,7.3234 C57.6443,8.9554 58.7183,10.2814 59.7133,11.7604 C57.1423,12.2254 54.8613,13.2534 52.6543,14.4584 C48.5583,16.6954 44.3993,18.8284 40.3973,21.2234 C35.0393,24.4294 30.4503,28.5274 26.9473,33.7634 C26.4213,34.5494 26.1993,35.3344 26.8793,36.0524 C27.6053,36.8194 28.4093,36.5884 29.2583,36.0674 C30.7823,35.1314 32.3373,34.2334 34.0353,33.5084 C34.0623,33.9374 33.8223,34.0234 33.6333,34.1684 C28.6283,37.9914 24.1323,42.3074 20.6123,47.5734 C17.4473,52.3074 15.2213,57.4094 14.4663,63.0954 C11.7093,63.1134 8.9503,63.1234 6.1933,63.1514 C4.0553,63.1734 2.6913,64.5474 2.6583,66.6864 C2.6243,68.9524 2.9473,71.1094 3.5493,73.3484 C4.7083,77.6554 5.2753,82.1214 6.1113,86.5174 C6.5223,88.6774 7.7523,89.6804 9.9433,89.6924 C12.1433,89.7044 14.3433,89.6834 16.5433,89.6994 C17.5153,89.7054 18.4763,89.6884 19.2893,89.0674 C19.5713,88.8514 19.7513,88.9344 20.0253,89.0754 C20.5533,89.3454 21.1203,89.5394 21.6703,89.7664 M98.1803,122.9414 C94.4423,123.1324 90.2553,122.8314 86.0993,122.4184 C77.7073,121.5834 69.4273,120.0914 61.3373,117.6054 C54.8703,115.6184 48.6243,113.1124 42.6703,109.9124 C37.9933,107.4014 33.5733,104.4804 29.5603,100.9774 C26.7003,98.4814 23.9533,95.8744 21.6583,92.8324 C21.1033,92.0974 20.2833,91.6484 19.4893,91.8374 C16.2003,92.6214 12.8803,92.0394 9.5833,92.2204 C9.1943,92.2414 8.7913,92.1624 8.4063,92.0774 C5.1303,91.3574 3.9223,88.9834 3.4133,85.9614 C2.7943,82.2814 2.1513,78.6014 1.3553,74.9574 C0.7723,72.2914 -0.1397,69.7324 0.0183,66.9044 C0.2153,63.3624 2.7743,60.6044 6.3333,60.5584 C8.2933,60.5334 10.2533,60.5384 12.2123,60.5624 C12.8503,60.5704 13.1343,60.4524 13.3163,59.7044 C14.8653,53.3244 17.7913,47.6254 21.9853,42.5694 C23.3103,40.9724 24.6233,39.3674 26.1493,37.9584 C26.6733,37.4744 26.7163,37.1494 26.1823,36.6074 C24.9453,35.3514 24.9033,34.1544 25.8793,32.6374 C29.5163,26.9854 34.4323,22.6834 40.1593,19.2854 C44.5173,16.7004 48.9663,14.2704 53.5003,12.0014 C54.4973,11.5024 55.5133,11.0144 56.5663,10.6624 C57.3743,10.3924 57.3653,10.0214 56.9493,9.4744 C56.4063,8.7604 56.1293,7.9224 55.8103,7.1104 C54.9613,4.9454 56.3493,2.8834 58.6703,2.9684 C60.5393,3.0364 62.4023,3.2314 64.2803,3.2044 C67.7073,3.1564 71.0793,2.4624 74.4853,2.3244 C76.5363,2.2414 78.5653,1.8604 80.6723,2.1574 C83.2313,2.5174 85.8353,2.0734 88.4183,1.8764 C92.2603,1.5844 95.9993,0.4744 99.8893,0.5414 C105.6523,0.6414 111.2763,1.6154 116.8143,3.1324 C121.4773,4.4104 126.0213,6.0224 130.3073,8.3044 C132.0723,9.2454 133.7033,10.3914 135.3773,11.4734 C135.4773,11.5374 135.5993,11.6114 135.6433,11.7114 C136.9603,14.6784 140.2693,14.9724 142.4583,16.7704 C142.8583,17.0984 143.3983,17.3474 143.6063,17.7914 C144.2853,19.2434 145.6383,19.6504 146.9683,19.9224 C149.2483,20.3874 151.0703,21.5714 152.7823,23.0554 C154.2903,24.3624 155.2723,26.2164 157.0093,27.2554 C160.2963,29.2224 163.5003,31.3074 166.4693,33.7284 C171.9813,38.2234 176.7293,43.3744 180.1613,49.6724 C181.8723,52.8114 183.1493,56.0984 183.9893,59.5584 C184.1673,60.2914 184.4423,60.5944 185.2583,60.5764 C187.9183,60.5164 190.5813,60.5524 193.2423,60.5544 C197.2753,60.5574 199.9413,63.1834 199.9723,67.1904 C199.9853,69.0214 200.0513,70.8554 199.3073,72.6024 C199.1753,72.9114 199.2583,73.3144 199.2583,73.6734 C199.2563,77.7134 199.2593,81.7524 199.2563,85.7914 C199.2533,89.6024 196.6123,92.2264 192.7803,92.2294 C188.2743,92.2324 183.7693,92.2314 179.2633,92.2274 C178.8643,92.2264 178.3893,92.3204 178.0833,92.1414 C176.8643,91.4294 176.2473,92.1184 175.5623,92.9964 C171.4993,98.2044 166.5423,102.4374 161.0633,106.0684 C154.7123,110.2754 147.8803,113.5004 140.6983,116.0424 C134.6043,118.2014 128.3733,119.8184 122.0233,120.9414 C118.7843,121.5134 115.5183,121.9624 112.2313,122.2744 C107.7043,122.7034 103.1813,122.9994 98.1803,122.9414" id="Fill-4" fill="#E4E4E4" mask="url(#mask-4)"></path>
                </g>
                <path d="M77.7689,99.7714 C77.7689,101.9684 77.8119,104.1674 77.7479,106.3624 C77.7219,107.2234 77.9899,107.4234 78.8129,107.4124 C79.5829,107.4014 79.8159,107.2104 79.8099,106.4174 C79.7699,101.9434 79.7709,97.4684 79.8099,92.9944 C79.8159,92.1994 79.5849,92.0004 78.8079,91.9874 C77.9609,91.9724 77.7279,92.2254 77.7499,93.0604 C77.8069,95.2964 77.7689,97.5344 77.7689,99.7714 M123.4579,99.6514 C123.4579,101.9274 123.5089,104.2054 123.4329,106.4784 C123.4029,107.4004 123.8449,107.3944 124.5089,107.4064 C125.2059,107.4174 125.5759,107.3454 125.5649,106.4604 C125.5149,101.9494 125.5149,97.4364 125.5649,92.9244 C125.5749,92.0254 125.1679,92.0024 124.4909,91.9914 C123.7809,91.9794 123.4119,92.0744 123.4369,92.9434 C123.4999,95.1774 123.4579,97.4154 123.4579,99.6514 M130.7249,100.8534 C130.7249,102.7314 130.7819,104.6114 130.7019,106.4864 C130.6619,107.4074 131.1119,107.3954 131.7759,107.4094 C132.4749,107.4224 132.8259,107.3474 132.8099,106.4684 C132.7489,102.9534 132.7849,99.4364 132.7849,95.9204 C132.7849,94.3044 132.7839,94.2464 134.4329,94.2154 C135.3009,94.1994 135.1789,93.6844 135.1289,93.1944 C135.0819,92.7294 135.4879,91.9914 134.4779,92.0034 C132.6399,92.0264 130.8019,92.0084 128.9639,92.0114 C128.7309,92.0114 128.5249,92.0004 128.4099,92.3124 C128.0049,93.4104 128.4999,94.2284 129.6539,94.1744 C130.4669,94.1364 130.7739,94.3524 130.7449,95.2204 C130.6819,97.0964 130.7249,98.9754 130.7249,100.8534 M140.9449,97.6734 C140.8759,97.6554 140.8089,97.6374 140.7409,97.6194 C140.3129,96.0024 139.8579,94.3924 139.4639,92.7684 C139.1439,91.4504 138.0849,91.9794 137.4319,92.0794 C136.6289,92.2014 137.3119,92.8764 137.4149,93.1954 C138.8299,97.5564 140.3699,101.8854 139.7839,106.5984 C139.7689,106.7154 139.7859,106.8374 139.7869,106.9574 C139.7899,107.1804 139.8939,107.2964 140.1149,107.3754 C141.2069,107.7714 141.8539,107.3064 141.9129,106.1674 C142.0309,103.8754 141.5769,101.5634 142.3879,99.2944 C143.2309,96.9384 143.9029,94.5214 144.6549,92.1134 C142.5179,91.8684 142.5149,91.8674 141.9959,93.7694 C141.6399,95.0694 141.2939,96.3724 140.9449,97.6734 M93.6979,99.6994 C93.6979,101.9384 93.7339,104.1784 93.6789,106.4164 C93.6589,107.2214 93.9119,107.4404 94.6909,107.4074 C96.1279,107.3474 97.5689,107.3964 99.0079,107.3854 C99.2999,107.3824 99.6329,107.4944 99.7879,107.0474 C100.2019,105.8484 99.7039,105.1134 98.4379,105.1124 C97.8779,105.1124 97.3139,105.0674 96.7589,105.1244 C96.0389,105.1984 95.7009,104.9794 95.8179,104.2114 C95.8599,103.9384 95.8099,103.6524 95.8279,103.3744 C95.8849,102.5074 95.4609,101.4114 96.0119,100.8364 C96.5189,100.3054 97.6059,100.7444 98.4329,100.6644 C98.7129,100.6374 99.0639,100.8314 99.2309,100.3724 C99.6239,99.2924 99.1429,98.5604 98.0009,98.5574 C97.4819,98.5554 96.9599,98.5344 96.4419,98.5624 C95.9829,98.5874 95.8019,98.4304 95.8179,97.9524 C95.8569,96.7544 95.4809,95.3484 95.9929,94.4254 C96.3809,93.7264 97.9149,94.2774 98.9329,94.1904 C98.9729,94.1874 99.0139,94.1864 99.0529,94.1904 C100.0239,94.3044 99.7739,93.5894 99.7899,93.0814 C99.8059,92.5404 99.9539,91.9494 99.0129,91.9924 C97.5769,92.0584 96.1339,92.0504 94.6969,91.9934 C93.9239,91.9624 93.6599,92.1734 93.6789,92.9824 C93.7339,95.2204 93.6979,97.4594 93.6979,99.6994 M86.8829,101.8914 C86.5109,101.3334 86.5309,100.8434 86.4599,100.3814 C86.0669,97.8154 85.6949,95.2474 85.2929,92.6824 C85.0959,91.4254 84.0919,92.0974 83.4789,92.0484 C82.6579,91.9834 83.1139,92.6964 83.1699,93.0024 C83.9939,97.5174 84.8799,102.0214 85.6879,106.5404 C85.8219,107.2864 86.1329,107.4054 86.7899,107.4124 C87.4619,107.4184 87.7699,107.2624 87.8999,106.5374 C88.6829,102.1754 89.5219,97.8254 90.3389,93.4694 C90.6359,91.8824 90.6319,91.9384 89.0209,91.9854 C88.2599,92.0064 88.3309,92.4844 88.2619,92.9234 C87.8029,95.8674 87.3549,98.8114 86.8829,101.8914 M177.9149,76.8634 C177.9149,75.1064 177.9989,73.3444 177.8959,71.5934 C177.7049,68.3654 176.0009,66.4514 172.9259,65.8944 C171.1829,65.5784 169.4199,65.5784 167.6779,65.8834 C164.9049,66.3684 163.1739,67.9244 162.8279,70.6224 C162.2909,74.7904 162.2919,78.9974 162.8319,83.1664 C163.1489,85.6114 164.6619,87.1854 167.1249,87.7344 C169.2629,88.2084 171.4059,88.2144 173.5379,87.7174 C175.8319,87.1824 177.1939,85.7124 177.7039,83.4324 C178.1899,81.2604 177.9319,79.0544 177.9149,76.8634 M117.8969,102.7464 C117.9039,104.6144 117.6049,105.1504 116.6169,105.2104 C115.4179,105.2834 115.0959,104.5154 115.0849,103.5344 C115.0779,102.7464 114.5049,102.9924 114.1589,103.0344 C113.7599,103.0844 113.1569,102.6514 112.9739,103.4114 C112.6469,104.7774 113.7849,106.7354 115.2219,107.2784 C116.9099,107.9164 118.6989,107.2994 119.4609,105.8194 C120.9829,102.8634 119.8629,99.6384 116.8629,98.3394 C116.6069,98.2294 116.3559,98.1074 116.1019,97.9914 C115.4969,97.7134 115.1749,97.2644 115.2169,96.5764 C115.2719,95.6484 114.9819,94.4654 116.2859,94.2344 C117.6229,93.9974 117.7489,95.0554 117.9239,96.0634 C118.0689,96.8974 118.8269,96.3724 119.2969,96.4754 C119.6499,96.5514 119.9609,96.5134 120.0339,95.9714 C120.2559,94.2914 119.0409,92.3974 117.4139,92.0014 C115.6039,91.5624 113.8729,92.4784 113.3799,94.3004 C112.7409,96.6674 112.7909,99.4204 116.1539,100.4704 C117.3409,100.8414 118.1449,101.5194 117.8969,102.7464 M63.1389,98.5214 C63.1389,96.7614 63.1069,95.0004 63.1519,93.2424 C63.1729,92.4124 63.1079,91.9604 62.0389,91.9644 C61.0049,91.9694 60.9999,92.4184 61.0059,93.1814 C61.0319,96.7014 61.0199,100.2214 61.0159,103.7414 C61.0149,104.5464 60.7559,105.2004 59.8159,105.1984 C58.9479,105.1964 58.6899,104.5674 58.6319,103.8254 C58.6069,103.5064 58.6229,103.1854 58.6229,102.8654 C58.6229,99.5054 58.5969,96.1454 58.6409,92.7864 C58.6519,91.9824 58.2489,91.9354 57.6859,92.0204 C57.2229,92.0904 56.4889,91.6654 56.4949,92.6774 C56.5189,96.4774 56.4509,100.2784 56.5489,104.0764 C56.6019,106.1434 58.2009,107.6164 59.9709,107.5184 C61.7739,107.4184 63.1079,105.8704 63.1339,103.8014 C63.1559,102.0424 63.1389,100.2814 63.1389,98.5214 M110.2799,107.2594 C109.6629,105.2734 109.0639,103.2924 108.4239,101.3254 C108.2329,100.7394 108.2759,100.3614 108.7629,99.8804 C110.2339,98.4294 110.2589,94.6264 108.8949,93.0744 C108.3979,92.5084 107.7679,92.1594 107.0269,92.1104 C105.9529,92.0414 104.8719,92.0734 103.7979,92.0004 C103.1409,91.9574 103.0029,92.2204 103.0059,92.8244 C103.0269,97.4174 103.0439,102.0124 102.9959,106.6064 C102.9859,107.5374 103.5069,107.3704 104.0469,107.3914 C104.6479,107.4164 105.1249,107.4374 105.0879,106.5604 C105.0219,104.9654 105.0549,103.3654 105.0809,101.7674 C105.0869,101.4354 104.8269,100.9314 105.5019,100.8484 C106.1279,100.7724 106.3089,101.0834 106.4479,101.6294 C106.7909,102.9824 107.2069,104.3164 107.5929,105.6584 C108.1479,107.5884 108.1479,107.5884 110.2799,107.2594 M71.8609,100.3974 L71.6529,100.4414 C71.5429,100.1234 71.4289,99.8064 71.3229,99.4874 C70.5699,97.2124 69.7889,94.9474 69.0789,92.6594 C68.7419,91.5704 67.9149,92.0974 67.2939,92.0374 C66.6409,91.9734 66.8299,92.5534 66.8289,92.9054 C66.8179,97.4624 66.8479,102.0204 66.8009,106.5774 C66.7909,107.6084 67.4219,107.3434 67.9759,107.3914 C68.6139,107.4474 68.9869,107.3844 68.9659,106.5404 C68.9019,103.9964 68.9419,101.4494 68.9419,98.9034 C69.2299,99.1754 69.3409,99.4924 69.4489,99.8094 C70.2279,102.1154 71.0409,104.4104 71.7699,106.7314 C72.1139,107.8264 72.9369,107.3074 73.5589,107.3614 C74.2439,107.4204 73.9689,106.8034 73.9699,106.4824 C73.9889,101.9644 73.9559,97.4474 74.0049,92.9294 C74.0149,92.0464 73.6409,92.0074 72.9509,91.9914 C72.1749,91.9714 71.8149,92.1024 71.8389,93.0124 C71.9039,95.4724 71.8609,97.9354 71.8609,100.3974 M185.9529,85.2454 C186.3129,85.4544 186.3539,85.8524 186.4239,86.1674 C186.6889,87.3614 187.3729,87.7714 188.5829,87.6794 C189.9349,87.5774 191.3029,87.6074 192.6599,87.6714 C193.8159,87.7264 194.2089,87.2564 194.1989,86.1214 C194.1579,81.7224 194.1809,77.3234 194.1839,72.9244 C194.1849,72.5254 194.0629,72.0144 194.2589,71.7464 C195.2389,70.4044 194.6919,68.8984 194.8319,67.4724 C194.9339,66.4244 194.4039,66.0474 193.3959,66.0784 C191.9979,66.1224 190.5969,66.0894 189.1979,66.0894 C187.0269,66.0894 187.0269,66.0894 186.9029,68.1964 C186.5559,67.8184 186.4759,67.3394 186.3259,66.8974 C186.1299,66.3274 185.7549,66.0814 185.1539,66.0844 C183.1949,66.0984 181.2349,66.0944 179.2759,66.0864 C178.8489,66.0854 178.3409,66.1494 178.2689,66.5644 C178.0039,68.0874 177.7669,69.6634 178.3939,71.1254 C178.6199,71.6514 178.8209,72.1174 178.8209,72.6814 C178.8169,75.4804 178.8219,78.2794 178.8149,81.0794 C178.8139,81.3964 178.8819,81.8134 178.7149,82.0144 C177.5649,83.3964 178.2369,85.0064 178.1029,86.5074 C178.0349,87.2754 178.4949,87.6694 179.2919,87.6604 C180.6129,87.6454 181.9319,87.6614 183.2509,87.6554 C185.9609,87.6454 185.7599,87.9164 185.9529,85.2454 M29.8049,66.5764 C29.5099,65.9724 28.9499,66.0924 28.4449,66.0914 C25.6709,66.0864 22.8979,66.0894 20.1239,66.0894 C15.5759,66.0894 11.0269,66.1004 6.4779,66.0814 C5.5049,66.0774 5.1649,66.4874 5.1159,67.4504 C5.0209,69.3414 5.5449,71.0794 5.9699,72.8954 C6.9959,77.2874 7.7069,81.7544 8.4939,86.2004 C8.6799,87.2464 9.0889,87.7204 10.2229,87.6784 C12.3399,87.6004 14.4629,87.5984 16.5799,87.6794 C17.7419,87.7234 18.1979,87.3134 18.3779,86.1644 C19.0999,81.5444 19.9099,76.9394 20.6959,72.3314 C20.7659,71.9214 20.7199,71.2724 21.2979,71.3354 C21.8569,71.3974 21.6869,72.0344 21.6899,72.4424 C21.7059,74.6824 21.7009,76.9214 21.6969,79.1614 C21.6949,80.0814 21.9959,81.1814 21.5989,81.8814 C20.7699,83.3424 21.1809,84.8214 21.0479,86.2884 C20.9629,87.2354 21.3689,87.6844 22.3679,87.6674 C24.4869,87.6304 26.6069,87.6574 28.7269,87.6554 C29.1649,87.6554 29.6279,87.6914 29.8099,87.1424 C29.9679,87.0704 30.0419,86.7924 30.2919,86.9484 C30.4399,87.7134 31.0409,87.6804 31.5989,87.6514 C34.0199,87.5254 36.4529,87.5764 38.8699,87.5314 C40.9459,87.4934 43.0729,87.5654 45.1749,87.6444 C46.5559,87.6964 46.7429,87.4584 46.7529,86.0444 C46.7589,85.3204 46.7539,84.5964 46.7539,83.5514 C48.2029,86.2644 48.6989,86.9454 50.2039,87.4214 C53.8799,88.5844 57.4439,88.3334 60.8019,86.2914 C61.5119,85.8584 61.8559,85.3204 61.7979,84.4314 C61.5889,81.2194 61.8259,78.0024 61.6299,74.7744 C61.5229,73.0194 61.6319,71.1404 61.7909,69.3254 C61.8589,68.5474 61.5519,68.0664 60.9139,67.6564 C58.3499,66.0084 55.5419,65.4784 52.5509,65.7604 C49.1269,66.0834 47.2939,67.7414 46.8249,71.1304 C46.3629,74.4674 46.6749,77.8344 46.6379,81.1894 C46.6339,81.5914 46.8499,82.0264 46.5289,82.4464 C45.9439,82.1434 46.1389,81.6144 46.1039,81.1714 C46.0069,79.9044 46.1849,78.5504 45.3909,77.4654 C44.9599,76.8764 45.0809,76.5844 45.4419,76.0594 C48.1549,72.1254 45.8949,66.7904 41.2189,66.2354 C37.8819,65.8404 34.5099,66.1484 31.1539,66.0994 C30.7209,66.0934 30.3899,66.3014 30.3009,66.7744 C30.0489,66.9254 29.9709,66.6414 29.8049,66.5764 M71.0829,66.7024 C70.7669,66.1104 70.2249,66.0824 69.6419,66.0874 C67.9239,66.1034 66.2059,66.0924 64.4889,66.0924 C62.1279,66.0924 62.1199,66.0934 62.1679,68.5084 C62.2209,71.1334 63.1769,73.6644 62.8719,76.3444 C62.6919,77.9224 62.8409,79.5364 62.8369,81.1344 C62.8359,81.4134 62.9209,81.7754 62.7809,81.9574 C61.7379,83.3094 62.3199,84.8694 62.1709,86.3314 C62.0719,87.3094 62.5779,87.6804 63.5359,87.6654 C65.6129,87.6304 67.6909,87.6394 69.7679,87.6644 C70.3369,87.6694 70.7869,87.5414 71.0869,87.0374 C71.1719,87.0784 71.2579,87.1194 71.3439,87.1594 C71.5469,87.6884 72.0049,87.6554 72.4449,87.6564 C73.6439,87.6574 74.8439,87.6564 76.0439,87.6564 C78.5809,87.6564 78.5809,87.6564 79.1009,85.2154 C79.2659,85.6234 79.4269,85.8984 79.4879,86.1944 C79.7359,87.3994 80.4599,87.7674 81.6519,87.6794 C83.0049,87.5804 84.3729,87.6064 85.7289,87.6714 C86.9019,87.7284 87.2629,87.2174 87.2539,86.1034 C87.2169,81.6654 87.2389,77.2264 87.2399,72.7874 C87.2399,72.4674 87.2379,72.1464 87.2539,71.8284 C87.2729,71.4684 87.5329,71.1504 87.8069,71.1504 C88.0779,71.1504 88.3719,71.4394 88.3719,71.8224 C88.3719,75.1804 88.3709,78.5384 88.3699,81.8964 C88.3699,81.9364 88.3749,81.9894 88.3529,82.0134 C87.2149,83.2394 87.8499,84.7484 87.7049,86.1294 C87.5859,87.2544 88.1209,87.6614 89.2589,87.6794 C92.5239,87.7324 95.7839,87.5174 99.0509,87.6264 C100.8719,87.6884 102.7279,87.5014 104.5299,87.5494 C106.9559,87.6144 109.3859,87.5234 111.8089,87.6644 C112.9049,87.7274 113.3029,87.2404 113.3169,86.1794 C113.3389,84.3964 112.9039,82.7544 112.4519,81.0234 C111.2919,76.5874 110.5939,72.0294 109.7799,67.5084 C109.5829,66.4174 109.1069,66.0414 108.0209,66.0704 C105.7039,66.1324 103.3819,66.1124 101.0639,66.0774 C100.1819,66.0644 99.7479,66.3904 99.6189,67.2784 C99.3519,69.0964 99.0149,70.9044 98.7089,72.7164 C98.2099,75.6714 97.7209,78.6284 97.2079,81.5814 C97.1379,81.9874 97.0639,82.5584 96.4949,82.4804 C96.0059,82.4134 96.0559,81.8964 96.0639,81.4944 C96.0689,81.2944 96.0649,81.0944 96.0649,80.8944 C96.0659,76.5484 95.9989,72.2084 96.6329,67.8804 C96.8809,66.1924 96.5939,66.0094 94.8259,66.1094 C92.4979,66.2404 90.1449,66.2364 87.8389,66.2864 C85.8209,66.3314 83.6799,66.2964 81.6059,66.0884 C80.5119,65.9794 79.9079,66.3834 80.0129,67.5684 C80.0289,67.7454 79.9789,67.9274 79.9329,68.3564 C79.7639,67.9564 79.6549,67.7884 79.6229,67.6074 C79.4029,66.3224 78.6219,65.9874 77.3889,66.0644 C75.7959,66.1654 74.1919,66.0874 72.5919,66.0904 C72.1199,66.0914 71.6129,66.0174 71.3529,66.5714 C71.2639,66.6154 71.1739,66.6584 71.0829,66.7024 M181.2529,63.5584 C185.3189,63.5754 189.3839,63.5944 193.4499,63.6094 C196.0289,63.6184 197.2069,64.9404 197.3729,67.5274 C197.5829,70.8124 196.3729,73.9404 196.6099,77.2424 C196.8429,80.5054 196.7009,83.7984 196.6339,87.0774 C196.6009,88.7204 195.1999,90.0904 193.4859,90.1184 C191.1729,90.1554 188.8549,90.0964 186.5409,90.0584 C184.2819,90.0224 182.0009,90.1074 179.7309,90.1594 C178.7519,90.1814 177.8049,90.1134 177.0029,89.4724 C176.7189,89.2464 176.4799,89.2384 176.1419,89.3994 C175.4619,89.7234 174.7489,89.9764 174.0489,90.2584 C172.2779,90.2224 170.8369,90.7524 169.8279,92.3554 C169.3039,93.1854 168.5219,93.8614 167.8179,94.5684 C161.3279,101.0864 153.6769,105.8754 145.2899,109.5214 C127.7479,117.1474 109.3359,119.6994 90.3529,118.6744 C76.7169,117.9384 63.5189,115.1744 50.9539,109.7134 C41.1689,105.4614 32.2969,99.8634 25.3659,91.5984 C24.2709,90.2934 23.1809,89.9364 21.6699,90.2274 C21.1199,90.0004 20.5539,89.8064 20.0259,89.5364 C19.7509,89.3954 19.5709,89.3124 19.2899,89.5284 C18.4769,90.1494 17.5149,90.1674 16.5429,90.1604 C14.3429,90.1444 12.1439,90.1654 9.9439,90.1534 C7.7519,90.1414 6.5219,89.1384 6.1109,86.9784 C5.2749,82.5834 4.7079,78.1164 3.5489,73.8094 C2.9469,71.5704 2.6239,69.4134 2.6589,67.1474 C2.6909,65.0084 4.0549,63.6344 6.1929,63.6124 C8.9509,63.5844 11.7089,63.5744 14.4669,63.5564 C16.4339,63.6934 16.4289,63.6924 16.8409,61.7414 C17.4809,58.7134 18.5349,55.8324 19.9709,53.0944 C24.0069,45.3974 30.0139,39.5094 37.1119,34.6774 C43.6619,30.2194 50.4529,26.3494 58.6629,25.8094 C63.3209,25.5024 67.9129,25.5374 72.4699,26.6514 C73.2319,26.8384 73.3339,27.0464 73.0069,27.7424 C72.5339,28.7514 72.1379,29.8044 71.8089,30.8694 C71.4609,31.9944 70.8599,32.6294 69.6409,32.9374 C59.0989,35.5994 49.6389,40.4634 41.1999,47.2834 C37.5179,50.2584 35.4789,54.2954 34.4549,58.8644 C34.2619,59.7234 34.3669,60.5834 35.1689,61.1214 C35.9519,61.6464 36.6929,61.3264 37.3799,60.8254 C41.9439,57.4974 47.0059,55.1564 52.3569,53.4494 C57.7829,51.7174 63.2899,50.4164 69.0689,50.8954 C69.8639,50.9604 70.2359,51.2804 70.5689,51.9754 C72.5169,56.0484 75.4129,59.2364 79.6729,60.9104 C83.3939,62.3734 87.3209,62.8824 91.3139,62.7834 C94.9079,62.6944 98.3339,61.7424 101.7339,60.6694 C102.1809,60.5284 102.6129,60.2994 103.1229,60.4294 C106.5749,61.3114 110.0009,62.2454 112.9719,64.3404 C113.5789,64.7684 114.1089,65.2424 114.2999,65.9774 C115.0479,68.8494 117.1179,70.2374 119.8329,70.8134 C121.0259,71.0674 121.4949,71.6284 121.4659,72.8634 C121.3999,75.8214 121.4169,78.7824 121.4559,81.7414 C121.4849,83.9554 122.3119,85.7824 124.2689,86.9854 C125.5739,87.7884 127.0309,88.0584 128.5169,88.0754 C132.9999,88.1264 136.1889,86.1734 136.2299,81.2644 C136.2539,78.3064 136.2519,75.3464 136.2749,72.3874 C136.2789,71.9324 136.1859,71.2544 136.7889,71.2374 C137.4299,71.2184 137.3369,71.8834 137.3369,72.3574 C137.3369,75.3574 137.3379,78.3574 137.3359,81.3564 C137.3359,81.5964 137.4169,81.9224 137.2949,82.0624 C136.1239,83.3904 136.8329,84.9744 136.6779,86.4324 C136.5889,87.2574 137.0559,87.6694 137.9149,87.6604 C139.6749,87.6394 141.4359,87.6344 143.1949,87.6624 C144.0519,87.6744 144.4539,87.2724 144.4939,86.4554 C144.5099,86.1004 144.4969,85.7444 144.4969,85.3884 C144.7739,85.6254 144.9489,85.8914 145.0109,86.1824 C145.2659,87.3754 145.9719,87.7714 147.1739,87.6774 C148.4859,87.5744 149.8119,87.6574 151.1319,87.6534 C152.6229,87.6484 152.7529,87.5164 152.7539,85.9794 C152.7569,81.4194 152.7579,76.8604 152.7509,72.3014 C152.7509,71.7944 152.8059,71.1734 153.3409,71.1624 C153.9219,71.1504 153.9389,71.7984 153.9399,72.2874 C153.9419,75.3264 153.9419,78.3664 153.9379,81.4064 C153.9379,81.6044 153.9819,81.8674 153.8759,81.9934 C152.7629,83.3224 153.3429,84.8954 153.2359,86.3604 C153.1709,87.2324 153.6249,87.6744 154.5469,87.6624 C156.4669,87.6354 158.3869,87.6544 160.3069,87.6544 C162.1499,87.6534 162.0739,87.5234 162.3069,85.6804 C162.5699,83.6024 161.3749,81.8074 161.5429,79.7544 C161.7179,77.6094 161.5819,75.4384 161.5829,73.2784 C161.5829,72.7594 161.3809,72.0774 161.6339,71.7484 C162.5789,70.5234 162.2029,69.1564 162.2449,67.8434 C162.2939,66.2984 162.0549,66.0964 160.5519,66.0934 C158.9929,66.0904 157.4329,66.1014 155.8729,66.0904 C154.3479,66.0804 152.8329,66.2924 151.2959,66.1194 C150.1119,65.9864 148.8999,66.0924 147.6999,66.0924 C145.6789,66.0924 145.6789,66.0924 145.4579,68.0864 C144.3189,66.0924 144.3189,66.0924 141.8539,66.0924 L140.1739,66.0924 L132.8229,66.0924 C133.2949,63.3194 135.8589,61.3164 135.1609,58.3214 C136.1159,57.1294 136.8949,55.8364 137.4569,54.4114 C137.5699,54.1244 137.9189,54.1404 138.1689,54.0264 C140.4529,52.9794 142.8529,52.1594 144.8949,50.6384 C145.6689,50.0624 146.2849,49.2114 147.4619,49.4324 C147.6939,49.4754 148.0709,49.1954 148.2559,48.9654 C149.4739,47.4464 151.0869,46.3854 152.5749,45.1784 C154.6859,43.4644 156.2729,41.4194 156.7079,38.6534 C156.8569,37.7114 157.0469,36.7414 156.1929,35.8824 C157.1719,35.7084 157.9869,35.4094 158.2479,34.3624 C158.6839,34.6564 159.0559,34.8834 159.4029,35.1454 C160.7429,36.1564 162.1139,37.1304 163.4009,38.2054 C171.2669,44.7764 177.2589,52.5584 179.1989,62.9194 C179.2979,63.4534 179.5069,63.6874 180.0599,63.6164 C180.4539,63.5664 180.8549,63.5754 181.2529,63.5584" id="Fill-7" fill="#761F20"></path>
                <path d="M34.9281,33.5053 C34.8941,33.4933 34.8591,33.4723 34.8251,33.4743 C34.8131,33.4753 34.8031,33.5293 34.7931,33.5593 C34.8271,33.5703 34.8621,33.5913 34.8961,33.5893 C34.9081,33.5883 34.9171,33.5343 34.9281,33.5053 Z M129.1131,72.1443 C129.0681,72.1443 129.0241,72.1443 128.9791,72.1443 L128.9791,81.0553 L129.1131,81.0553 L129.1131,72.1443 Z M134.6991,41.4143 C134.8421,41.9473 135.1981,41.7903 135.4291,41.8553 C139.5391,43.0143 140.8761,46.1133 138.6831,49.4843 C138.2981,50.0753 138.0401,50.7653 137.8261,51.4423 C137.7061,51.8193 137.7351,52.3213 138.4181,52.0143 C140.5941,51.0363 142.8671,50.2483 144.7761,48.7503 C145.9901,47.7973 146.0531,47.5383 144.9681,46.3893 C142.7301,44.0183 140.0201,42.3973 136.8731,41.5193 C136.1631,41.3203 135.4491,41.2663 134.6991,41.4143 Z M136.6931,52.8033 C135.0341,53.5833 133.6291,54.4373 132.0411,54.8763 C129.8451,55.4833 127.7051,55.6353 125.7991,54.0513 C125.4961,53.8003 125.0241,53.5953 124.8421,53.9073 C124.1421,55.1113 123.2861,54.5763 122.3981,54.2763 C121.9451,54.1223 121.4561,54.1863 120.9731,54.2293 C120.2621,54.2933 119.5591,54.4773 118.8291,54.3643 C117.6721,54.1863 117.3211,54.5753 117.5151,55.7633 C117.7661,57.2953 118.0391,57.5333 119.6061,57.6523 C124.1161,57.9963 128.6301,57.8613 133.1441,57.7743 C133.4661,57.7673 133.7761,57.7793 134.0131,57.4893 C135.1221,56.1333 136.1841,54.7533 136.6931,52.8033 Z M157.4311,86.6903 C158.2701,86.6903 159.1151,86.6333 159.9471,86.7063 C160.7771,86.7793 160.9071,86.4863 161.0281,85.6793 C161.2681,84.0643 160.3281,82.7013 160.3351,81.1643 C160.3481,78.2883 160.3341,75.4123 160.3441,72.5353 C160.3451,72.0993 160.2541,71.5523 160.4721,71.2473 C161.2541,70.1533 160.8771,68.9443 160.9821,67.7843 C161.0341,67.1973 160.7771,67.0323 160.2141,67.0423 C158.4971,67.0703 156.7771,67.1013 155.0621,67.0323 C154.1881,66.9973 153.8291,67.2023 153.9241,68.1383 C154.0321,69.2173 154.3221,70.3023 154.4321,71.3143 C154.8331,74.9923 154.6931,78.7203 154.5261,82.4293 C154.5221,82.5023 154.4781,82.5883 154.4261,82.6433 C153.5341,83.6003 153.8541,84.8103 153.9941,85.8343 C154.2521,87.6973 155.8341,86.2463 156.7191,86.6763 C156.9121,86.7703 157.1921,86.6903 157.4311,86.6903 Z M127.6991,71.0353 C125.9971,71.4433 124.3601,71.3373 122.7251,71.3083 C122.3921,71.3023 122.0571,71.1463 122.0751,71.7873 C122.1781,75.2993 121.9581,78.8173 122.2121,82.3263 C122.3691,84.5013 123.5471,85.9793 125.6001,86.6553 C127.5001,87.2803 129.4591,87.2493 131.3731,86.6833 C133.4631,86.0663 134.6401,84.5913 134.9001,82.4563 C135.4291,78.1003 134.6541,73.6933 135.6151,69.3173 C136.0981,67.1183 135.7001,67.0713 133.3921,67.0303 C132.5951,67.0163 132.2191,67.2263 132.1791,68.0363 C132.1211,69.2143 131.4491,69.9673 130.3621,70.2953 C129.6591,70.5073 129.7401,70.8193 129.7591,71.4763 C129.8641,74.8653 129.8111,78.2593 129.8071,81.6523 C129.8071,81.7683 129.7441,81.8823 129.7171,81.9993 C129.5891,82.5453 129.2311,82.8343 128.6861,82.7973 C128.1421,82.7613 127.8211,82.4113 127.7571,81.8723 C127.7101,81.4773 127.7011,81.0763 127.7011,80.6773 C127.6981,77.5263 127.6991,74.3753 127.6991,71.0353 Z M147.0611,76.1933 L146.8851,76.2333 C146.7431,75.8723 146.5881,75.5153 146.4621,75.1493 C145.6451,72.7773 144.8211,70.4083 144.0311,68.0283 C143.8071,67.3563 143.5231,66.9823 142.7031,67.0293 C141.2691,67.1123 139.8251,67.0903 138.3891,67.0373 C137.6351,67.0083 137.2911,67.1813 137.3671,68.0123 C137.4691,69.1333 137.7131,70.2483 137.8521,71.3263 C138.3211,74.9603 138.0911,78.6523 137.9831,82.3233 C137.9801,82.4343 137.9121,82.5593 137.8401,82.6503 C136.9361,83.7883 137.5431,85.1093 137.4011,86.3383 C137.3521,86.7583 137.7491,86.6853 138.0111,86.6863 C139.5301,86.6933 141.0491,86.6953 142.5681,86.6843 C142.8131,86.6823 143.1971,86.8103 143.2001,86.3703 C143.2081,85.3343 143.5321,84.1023 143.0901,83.3013 C142.1461,81.5923 142.8611,79.9173 142.6801,78.2333 C143.7601,80.7593 144.7461,83.3013 145.6681,85.8673 C145.8931,86.4923 146.1651,86.7433 146.8521,86.7083 C148.0871,86.6443 149.3311,86.6433 150.5671,86.7073 C151.3381,86.7473 151.5661,86.5313 151.5591,85.7343 C151.5171,81.3383 151.5351,76.9413 151.5441,72.5453 C151.5441,72.1103 151.4581,71.5543 151.6831,71.2633 C152.5131,70.1893 152.1151,68.9803 152.2201,67.8283 C152.2671,67.3143 152.1741,67.0183 151.5301,67.0383 C150.0131,67.0833 148.4921,67.0483 146.9741,67.0573 C146.7161,67.0583 146.3151,66.9583 146.3001,67.3483 C146.2631,68.3833 145.9181,69.6713 146.3961,70.4003 C147.0961,71.4683 146.9781,72.4933 147.0491,73.5623 C147.1071,74.4363 147.0611,75.3163 147.0611,76.1933 Z M147.5831,47.5743 C149.1041,45.7293 150.9971,44.5053 152.6981,43.0583 C154.3361,41.6623 155.4401,39.9493 155.7661,37.8013 C155.8381,37.3273 156.0661,36.7723 155.5271,36.3623 C153.1801,34.5763 151.8251,31.6363 148.5371,30.6693 C149.9951,30.2523 151.0201,30.5463 151.9431,31.2863 C152.7521,31.9353 153.5421,32.6113 154.3711,33.2343 C154.9901,33.7003 155.6941,33.9703 156.4971,33.8773 C156.9771,33.8213 157.2621,33.7423 156.8941,33.1553 C155.2111,30.4743 153.4331,27.8663 151.0661,25.7343 C148.9701,23.8483 146.6801,22.4763 143.7181,23.6073 C143.6021,23.0513 144.3051,23.0053 144.2051,22.4723 C143.1541,22.2243 142.1111,22.5073 141.0631,22.6193 C140.8381,22.6433 140.5441,22.7893 140.4061,22.5293 C140.2661,22.2653 140.3891,21.9683 140.5811,21.7553 C140.8481,21.4603 141.1701,21.2153 141.4351,20.9193 C141.7551,20.5603 141.7681,20.2073 141.3181,19.9193 C139.6101,18.8253 137.9981,17.5343 135.8871,17.2673 C135.4301,17.2093 135.1251,17.1053 134.9881,16.5323 C134.6891,15.2953 133.9911,14.2943 132.8481,13.6313 C131.8471,13.0523 130.9031,12.3723 129.8901,11.8173 C122.8751,7.9783 115.3131,5.8333 107.4551,4.6113 C102.8451,3.8953 98.2411,3.7773 93.6301,4.6543 C89.6531,5.4103 85.6341,5.7223 81.5841,5.6133 C79.5871,5.5603 77.5941,5.5793 75.5951,5.7133 C70.0411,6.0843 64.5231,7.4433 58.8911,6.3023 C60.8151,12.8313 69.1411,16.5753 78.0831,15.4963 C74.9371,14.3713 71.5751,13.9513 69.7811,10.6523 C73.4721,10.3243 77.0121,10.1213 80.5401,10.6673 C82.1201,10.9113 83.6451,11.3893 84.9501,12.4013 C85.4171,12.7623 85.4201,12.9723 84.9631,13.3723 C79.8721,17.8233 69.8401,18.3613 64.3001,14.3603 C62.7621,13.2503 61.2171,12.9483 59.4581,13.4673 C58.5431,13.7373 57.6021,13.9683 56.7421,14.3673 C51.7841,16.6683 47.0441,19.3853 42.3091,22.1033 C37.3351,24.9573 33.0321,28.6073 29.6241,33.2573 C29.3111,33.6863 29.0251,34.1353 28.6681,34.6603 C29.2821,34.7043 29.5571,34.3803 29.8831,34.1953 C39.7581,28.5683 50.1101,24.3643 61.6151,23.6653 C66.2371,23.3833 70.7781,23.9033 75.2231,25.2403 C75.9061,25.4453 76.0201,25.6723 75.6451,26.2833 C74.6791,27.8583 74.1261,29.6113 73.5041,31.3393 C73.1301,32.3783 72.6301,33.3423 71.3421,33.6533 C60.6151,36.2373 51.0131,41.1223 42.4741,48.0673 C39.2021,50.7283 37.4171,54.3753 36.4481,58.4353 C36.3861,58.6973 36.2221,59.0193 36.4551,59.2343 C36.7411,59.4983 36.9651,59.1713 37.1701,59.0223 C41.8311,55.6313 47.0031,53.2563 52.4651,51.5263 C58.2331,49.6993 64.0831,48.3203 70.2281,48.9823 C71.2641,49.0933 71.8051,49.4563 72.2391,50.4353 C74.1481,54.7523 77.2111,57.9323 81.7771,59.4403 C84.1351,60.2173 86.5941,60.5653 89.0651,60.7653 C93.6631,61.1373 98.0181,59.9843 102.3291,58.5933 C102.7901,58.4443 103.2311,58.2983 103.7291,58.4233 C106.6711,59.1613 109.5801,59.9843 112.2931,61.3873 C114.2541,62.4023 115.9871,63.5863 116.5701,65.9243 C116.8331,66.9843 117.6121,67.7333 118.6101,68.1463 C122.4591,69.7383 126.3611,69.8323 130.2901,68.4383 C130.7071,68.2903 131.0801,68.1053 131.1611,67.5683 C131.5601,64.9183 132.9101,62.6273 133.9621,60.2233 C134.4911,59.0133 134.4861,58.9653 133.1811,58.9793 C129.9051,59.0123 126.6291,59.1013 123.3531,59.1243 C121.3501,59.1383 119.3551,59.0063 117.5111,58.0933 C116.1251,57.4063 115.4531,56.2893 115.4501,54.7283 C115.4491,53.1463 116.2411,51.9063 117.1141,50.7103 C119.1491,47.9193 121.4721,45.3603 124.1901,43.2493 C128.7851,39.6793 133.9351,38.8173 139.4111,40.9203 C142.7841,42.2143 145.2881,44.7013 147.5831,47.5743 Z M181.2531,63.5583 C180.8551,63.5753 180.4531,63.5663 180.0601,63.6163 C179.5071,63.6873 179.2981,63.4533 179.1991,62.9193 C177.2591,52.5583 171.2671,44.7763 163.4011,38.2053 C162.1141,37.1303 160.7421,36.1563 159.4031,35.1453 C159.0561,34.8833 158.6841,34.6563 158.2481,34.3623 C157.9871,35.4093 157.1721,35.7083 156.1931,35.8823 C157.0471,36.7413 156.8571,37.7123 156.7081,38.6533 C156.2731,41.4203 154.6861,43.4643 152.5741,45.1783 C151.0871,46.3853 149.4741,47.4463 148.2561,48.9653 C148.0711,49.1953 147.6941,49.4753 147.4621,49.4323 C146.2841,49.2123 145.6691,50.0623 144.8951,50.6383 C142.8531,52.1593 140.4521,52.9803 138.1691,54.0263 C137.9191,54.1403 137.5701,54.1243 137.4561,54.4113 C136.8951,55.8373 136.1161,57.1303 135.1601,58.3213 C135.8591,61.3173 133.2951,63.3193 132.8231,66.0923 L140.1741,66.0923 L141.8541,66.0923 C144.3191,66.0923 144.3191,66.0923 145.4581,68.0873 C145.6791,66.0923 145.6791,66.0923 147.6991,66.0923 C148.9001,66.0923 150.1121,65.9863 151.2961,66.1193 C152.8331,66.2923 154.3481,66.0803 155.8731,66.0903 C157.4331,66.1013 158.9921,66.0903 160.5521,66.0933 C162.0551,66.0963 162.2941,66.2983 162.2441,67.8433 C162.2021,69.1563 162.5781,70.5243 161.6341,71.7483 C161.3811,72.0773 161.5831,72.7593 161.5831,73.2783 C161.5811,75.4383 161.7181,77.6093 161.5431,79.7553 C161.3751,81.8073 162.5701,83.6023 162.3071,85.6803 C162.0741,87.5233 162.1501,87.6533 160.3071,87.6543 C158.3871,87.6543 156.4671,87.6353 154.5471,87.6623 C153.6251,87.6743 153.1711,87.2323 153.2361,86.3603 C153.3431,84.8953 152.7631,83.3223 153.8761,81.9933 C153.9821,81.8673 153.9381,81.6053 153.9381,81.4063 C153.9421,78.3663 153.9421,75.3263 153.9401,72.2873 C153.9391,71.7983 153.9221,71.1513 153.3411,71.1623 C152.8061,71.1733 152.7511,71.7953 152.7511,72.3013 C152.7581,76.8603 152.7571,81.4203 152.7541,85.9793 C152.7531,87.5163 152.6221,87.6483 151.1321,87.6533 C149.8121,87.6573 148.4861,87.5743 147.1741,87.6773 C145.9721,87.7713 145.2661,87.3763 145.0111,86.1823 C144.9491,85.8913 144.7741,85.6253 144.4961,85.3883 C144.4961,85.7443 144.5101,86.1003 144.4931,86.4553 C144.4531,87.2723 144.0521,87.6743 143.1951,87.6623 C141.4361,87.6343 139.6751,87.6393 137.9151,87.6603 C137.0561,87.6703 136.5891,87.2573 136.6781,86.4323 C136.8331,84.9743 136.1241,83.3903 137.2951,82.0623 C137.4171,81.9223 137.3361,81.5963 137.3361,81.3573 C137.3381,78.3573 137.3371,75.3583 137.3371,72.3583 C137.3371,71.8833 137.4301,71.2183 136.7881,71.2373 C136.1861,71.2553 136.2791,71.9323 136.2751,72.3873 C136.2521,75.3463 136.2541,78.3063 136.2301,81.2643 C136.1891,86.1733 133.0001,88.1273 128.5171,88.0753 C127.0311,88.0583 125.5741,87.7883 124.2691,86.9853 C122.3121,85.7823 121.4851,83.9553 121.4551,81.7413 C121.4171,78.7823 121.4001,75.8213 121.4661,72.8633 C121.4941,71.6293 121.0261,71.0673 119.8331,70.8143 C117.1171,70.2373 115.0481,68.8493 114.3001,65.9773 C114.1091,65.2423 113.5781,64.7683 112.9721,64.3403 C110.0011,62.2453 106.5741,61.3113 103.1221,60.4293 C102.6131,60.2993 102.1811,60.5283 101.7341,60.6693 C98.3341,61.7423 94.9081,62.6943 91.3141,62.7833 C87.3211,62.8823 83.3941,62.3733 79.6731,60.9103 C75.4131,59.2363 72.5171,56.0483 70.5691,51.9753 C70.2361,51.2803 69.8641,50.9613 69.0691,50.8953 C63.2901,50.4163 57.7821,51.7173 52.3571,53.4493 C47.0061,55.1563 41.9441,57.4973 37.3801,60.8253 C36.6931,61.3263 35.9521,61.6463 35.1691,61.1213 C34.3671,60.5843 34.2611,59.7233 34.4541,58.8643 C35.4791,54.2953 37.5171,50.2583 41.2001,47.2833 C49.6391,40.4633 59.0981,35.5993 69.6401,32.9373 C70.8601,32.6303 71.4611,31.9943 71.8091,30.8693 C72.1371,29.8043 72.5341,28.7513 73.0071,27.7423 C73.3341,27.0463 73.2321,26.8383 72.4701,26.6513 C67.9131,25.5373 63.3211,25.5023 58.6621,25.8093 C50.4531,26.3493 43.6621,30.2193 37.1121,34.6773 C30.0131,39.5093 24.0071,45.3973 19.9701,53.0943 C18.5351,55.8323 17.4811,58.7133 16.8411,61.7413 C16.4281,63.6923 16.4341,63.6933 14.4671,63.5563 C15.2211,57.8703 17.4481,52.7683 20.6121,48.0343 C24.1331,42.7683 28.6291,38.4523 33.6331,34.6293 C33.8221,34.4843 34.0621,34.3993 34.0351,33.9693 C32.3381,34.6943 30.7821,35.5923 29.2591,36.5283 C28.4091,37.0493 27.6051,37.2803 26.8801,36.5133 C26.1991,35.7963 26.4211,35.0103 26.9471,34.2243 C30.4501,28.9883 35.0391,24.8903 40.3971,21.6843 C44.3991,19.2903 48.5581,17.1563 52.6551,14.9203 C54.8621,13.7143 57.1421,12.6863 59.7141,12.2213 C58.7191,10.7423 57.6441,9.4163 57.0431,7.7843 C56.7821,7.0753 56.6781,6.5363 57.1791,5.9183 C57.6861,5.2923 58.3261,5.2743 59.0221,5.3583 C60.2821,5.5083 61.5461,5.8033 62.8021,5.7753 C65.0241,5.7263 67.2551,5.5803 69.4591,5.2953 C73.1391,4.8193 76.8211,4.4763 80.5321,4.6143 C85.6941,4.8073 90.7641,4.0833 95.8321,3.2253 C98.7571,2.7303 101.6891,3.0323 104.6241,3.3273 C108.0341,3.6703 111.3961,4.2583 114.7051,5.1073 C121.5421,6.8593 128.0961,9.3003 133.9401,13.3753 C134.1351,13.5103 134.3841,13.6663 134.4541,13.8663 C135.3371,16.3623 137.8261,16.7513 139.7191,17.9203 C140.3631,18.3173 141.0051,18.7213 141.6321,19.1463 C141.8611,19.3003 142.1721,19.4943 142.2251,19.7213 C142.7821,22.1123 144.9861,21.8383 146.6001,22.3083 C149.2421,23.0773 151.2511,24.6153 153.0441,26.6003 C154.1441,27.8173 154.9971,29.2393 156.1291,30.3943 C157.0561,31.3403 158.3251,31.9543 159.4501,32.7043 C163.4461,35.3693 167.1671,38.3803 170.4081,41.9183 C175.7781,47.7773 179.6991,54.4423 181.1931,62.3643 C181.2651,62.7533 181.2361,63.1603 181.2531,63.5583 Z" id="Fill-9" fill="#F6F4F3"></path>
                <path d="M21.6703,90.2274 C23.1803,89.9364 24.2713,90.2934 25.3653,91.5984 C32.2973,99.8634 41.1693,105.4614 50.9543,109.7134 C63.5183,115.1744 76.7173,117.9384 90.3533,118.6744 C109.3363,119.6994 127.7473,117.1474 145.2903,109.5214 C153.6773,105.8754 161.3273,101.0864 167.8173,94.5684 C168.5223,93.8614 169.3043,93.1854 169.8273,92.3554 C170.8373,90.7524 172.2773,90.2224 174.0493,90.2584 C171.7573,93.7104 168.7983,96.5454 165.7233,99.2744 C161.1933,103.2944 156.0943,106.4744 150.7403,109.2394 C147.3413,110.9954 143.7983,112.4534 140.2093,113.7914 C133.8153,116.1754 127.2183,117.8084 120.5213,119.0304 C117.1673,119.6414 113.7723,120.0064 110.3693,120.3274 C105.9273,120.7454 101.4733,121.0594 97.0243,120.9604 C92.3823,120.8584 87.7393,120.6184 83.1063,120.1004 C73.8163,119.0624 64.7653,117.0684 55.9703,113.9194 C47.3163,110.8234 39.2403,106.6224 32.0013,100.9304 C28.0793,97.8464 24.5413,94.3474 21.6703,90.2274" id="Fill-11" fill="#F6F4F3"></path>
                <path d="M91.9799,86.6884 C92.7779,86.6884 93.5839,86.6194 94.3739,86.7064 C95.2889,86.8074 95.4819,86.4834 95.4809,85.5984 C95.4799,83.1524 94.5139,80.8284 94.7749,78.3344 C94.9809,76.3584 94.8109,74.3454 94.8209,72.3484 C94.8229,71.9524 94.7389,71.4404 94.9449,71.1804 C95.7689,70.1404 95.3349,68.9604 95.4579,67.8474 C95.5269,67.2064 95.2439,67.0294 94.6309,67.0434 C93.0339,67.0784 91.4319,67.1334 89.8409,67.0284 C88.7009,66.9544 88.3459,67.2544 88.3899,68.4434 C88.4729,70.6774 89.4079,72.7764 89.1509,75.0814 C88.9229,77.1324 89.1079,79.2294 89.0989,81.3054 C89.0979,81.6614 89.1729,82.1184 88.9889,82.3554 C88.1349,83.4544 88.5299,84.7114 88.4159,85.9054 C88.3529,86.5554 88.6109,86.7304 89.2249,86.7004 C90.1409,86.6544 91.0619,86.6884 91.9799,86.6884 Z M104.3779,67.0554 C103.4589,67.0554 102.5279,67.1514 101.6259,67.0304 C100.5489,66.8854 100.2949,67.3844 100.1469,68.3074 C99.4789,72.4804 98.7469,76.6434 98.0479,80.8114 C97.7629,82.5104 96.9179,84.1024 97.1919,85.9194 C97.2849,86.5324 97.4059,86.7174 98.0179,86.7014 C99.5749,86.6614 101.1329,86.6944 102.6919,86.6824 C102.9539,86.6804 103.2659,86.8064 103.4669,86.5234 C103.7349,86.1444 103.3829,83.3444 103.0089,82.9624 C102.6899,82.6384 102.6139,82.2544 102.7589,81.8644 C102.9119,81.4564 103.3139,81.6884 103.5989,81.6584 C103.9949,81.6164 104.3999,81.6774 104.7959,81.6414 C105.5079,81.5774 105.7619,82.0224 105.4299,82.4914 C104.6789,83.5504 105.0759,84.7044 104.9329,85.8104 C104.8299,86.6024 105.1729,86.7234 105.8699,86.7044 C107.5849,86.6564 109.3069,86.6324 111.0209,86.7104 C111.9129,86.7504 111.9739,86.4034 112.0519,85.6344 C112.2079,84.0994 111.4919,82.8064 111.1929,81.3994 C110.2499,76.9574 109.4079,72.4924 108.6109,68.0214 C108.4589,67.1664 108.1259,67.0014 107.3739,67.0424 C106.3769,67.0954 105.3769,67.0554 104.3779,67.0554 Z M81.4369,75.9994 L81.2289,76.0134 C80.3119,73.3544 79.3639,70.7044 78.4989,68.0284 C78.2439,67.2394 77.8669,66.9904 77.0549,67.0354 C75.6999,67.1094 74.3349,67.1164 72.9809,67.0344 C72.0429,66.9764 71.7009,67.2474 71.8089,68.2034 C71.9249,69.2394 72.1719,70.2784 72.2989,71.2614 C72.7789,74.9704 72.6619,78.7354 72.3829,82.4784 C72.3799,82.5164 72.3629,82.5594 72.3379,82.5884 C71.3919,83.7004 71.9799,85.0264 71.8289,86.2494 C71.7649,86.7624 72.1569,86.6864 72.4669,86.6874 C73.9849,86.6894 75.5039,86.6944 77.0219,86.6814 C77.2659,86.6794 77.6619,86.8194 77.6699,86.3884 C77.6889,85.3524 78.0149,84.1154 77.5709,83.3204 C76.6179,81.6114 77.3459,79.9354 77.1559,78.2524 C78.2209,80.7414 79.1989,83.2434 80.0889,85.7764 C80.3489,86.5144 80.7049,86.7504 81.4609,86.7064 C82.5769,86.6384 83.7019,86.6294 84.8159,86.7064 C85.7179,86.7684 86.0169,86.5414 86.0029,85.5644 C85.9419,81.2894 85.9749,77.0134 85.9789,72.7374 C85.9799,72.1014 85.9059,71.4354 86.2859,70.8744 C87.0329,69.7744 86.5379,68.5624 86.6219,67.4054 C86.6549,66.9384 86.1699,67.0634 85.8789,67.0604 C84.5209,67.0484 83.1589,67.1144 81.8049,67.0344 C80.9149,66.9814 80.6059,67.2204 80.6839,68.1404 C80.7799,69.2904 80.9329,70.3554 81.3269,71.4954 C81.7929,72.8474 81.4369,74.4854 81.4369,75.9994 Z M71.3539,66.5714 C71.6129,66.0174 72.1199,66.0914 72.5919,66.0904 C74.1919,66.0874 75.7959,66.1654 77.3889,66.0644 C78.6219,65.9874 79.4029,66.3224 79.6239,67.6074 C79.6549,67.7884 79.7639,67.9564 79.9329,68.3564 C79.9799,67.9274 80.0289,67.7454 80.0129,67.5684 C79.9079,66.3834 80.5119,65.9794 81.6059,66.0884 C83.6799,66.2964 85.8209,66.3314 87.8389,66.2864 C90.1459,66.2364 92.4989,66.2404 94.8259,66.1094 C96.5939,66.0094 96.8809,66.1924 96.6329,67.8804 C95.9989,72.2084 96.0659,76.5484 96.0649,80.8944 C96.0649,81.0944 96.0689,81.2944 96.0639,81.4944 C96.0559,81.8964 96.0059,82.4134 96.4949,82.4804 C97.0639,82.5584 97.1379,81.9874 97.2089,81.5814 C97.7209,78.6284 98.2099,75.6714 98.7089,72.7164 C99.0149,70.9044 99.3519,69.0964 99.6189,67.2784 C99.7489,66.3904 100.1819,66.0644 101.0639,66.0774 C103.3819,66.1124 105.7039,66.1324 108.0209,66.0704 C109.1069,66.0414 109.5839,66.4174 109.7799,67.5084 C110.5939,72.0294 111.2919,76.5874 112.4519,81.0234 C112.9039,82.7544 113.3389,84.3964 113.3169,86.1794 C113.3029,87.2404 112.9049,87.7274 111.8089,87.6644 C109.3859,87.5234 106.9559,87.6144 104.5299,87.5494 C102.7279,87.5014 100.8719,87.6884 99.0509,87.6264 C95.7839,87.5174 92.5239,87.7324 89.2589,87.6794 C88.1209,87.6614 87.5859,87.2544 87.7049,86.1294 C87.8499,84.7484 87.2149,83.2394 88.3529,82.0134 C88.3749,81.9894 88.3699,81.9364 88.3699,81.8964 C88.3709,78.5384 88.3719,75.1804 88.3719,71.8224 C88.3719,71.4394 88.0779,71.1504 87.8069,71.1504 C87.5329,71.1504 87.2729,71.4684 87.2539,71.8284 C87.2379,72.1464 87.2399,72.4674 87.2399,72.7874 C87.2389,77.2264 87.2169,81.6654 87.2539,86.1034 C87.2629,87.2174 86.9019,87.7284 85.7289,87.6714 C84.3729,87.6064 83.0049,87.5804 81.6519,87.6794 C80.4599,87.7674 79.7359,87.3994 79.4879,86.1944 C79.4269,85.8984 79.2659,85.6234 79.1009,85.2154 C78.5819,87.6564 78.5819,87.6564 76.0439,87.6564 C74.8439,87.6564 73.6449,87.6574 72.4449,87.6564 C72.0049,87.6554 71.5469,87.6884 71.3439,87.1594 C71.3299,85.7044 71.3159,84.2494 71.3019,82.7944 C71.7289,82.2864 71.8339,81.7104 71.8259,81.0444 C71.7899,78.2484 71.7929,75.4494 71.8239,72.6524 C71.8319,71.9924 71.7509,71.4094 71.3019,70.9094 L71.3539,66.5714 Z" id="Fill-13" fill="#F2EDEB"></path>
                <path d="M54.3871,74.5072 C54.5231,73.8052 54.7611,73.0772 54.2171,72.1952 C54.0221,73.1272 53.9071,73.8252 54.3871,74.5072 Z M47.3671,76.1232 C47.3671,78.4232 47.2871,79.9872 47.3871,81.5402 C47.5141,83.4992 47.8861,85.5402 49.9511,86.3312 C53.4041,87.6532 56.8291,87.3952 60.0481,85.4312 C60.4241,85.2012 60.5891,84.9172 60.5851,84.4582 C60.5661,81.7382 60.5541,79.0192 60.5911,76.3002 C60.6001,75.6292 60.3411,75.5012 59.7531,75.5272 C58.8351,75.5662 57.9141,75.5372 56.9941,75.5362 C54.1641,75.5362 54.1621,75.5372 54.1881,78.4242 C54.1911,78.7372 54.1831,79.3092 54.2631,79.3242 C55.5891,79.5742 54.9661,80.5972 55.0441,81.2932 C55.1221,81.9912 55.0121,82.7722 54.0921,82.7872 C53.0751,82.8042 53.0651,81.9622 53.0611,81.2292 C53.0491,78.9892 53.0541,76.7502 53.0571,74.5102 C53.0581,73.6712 53.0541,72.8312 53.0801,71.9922 C53.1001,71.3632 53.3731,70.8712 54.0691,70.8822 C54.7581,70.8932 55.0151,71.3852 55.0451,72.0142 C55.0611,72.3732 55.0881,72.7362 55.0571,73.0922 C55.0061,73.6812 55.1651,73.9652 55.8371,73.9412 C57.1551,73.8942 58.4771,73.8932 59.7951,73.9422 C60.4541,73.9662 60.6061,73.7132 60.5871,73.1112 C60.5491,71.9532 60.5221,70.7892 60.5951,69.6342 C60.6421,68.9072 60.3091,68.5592 59.7511,68.2302 C57.3451,66.8112 54.7441,66.4552 52.0161,66.7592 C49.5021,67.0402 48.0561,68.4022 47.5611,70.8822 C47.1651,72.8672 47.4391,74.8712 47.3671,76.1232 Z M42.7311,76.8142 C44.8101,75.6422 45.5021,73.8992 45.1171,71.1352 C44.7921,68.8002 43.6041,67.5582 41.2621,67.2412 C38.2001,66.8272 35.1141,67.1892 32.0441,67.0322 C31.0311,66.9812 30.9691,67.3952 30.8611,68.2482 C30.6871,69.6262 31.4871,70.7762 31.5171,72.0502 C31.5931,75.2462 31.5441,78.4452 31.5371,81.6442 C31.5361,81.9202 31.5651,82.2722 31.4171,82.4602 C30.5421,83.5682 31.0361,84.8462 30.9061,86.0432 C30.8611,86.4622 30.9601,86.7032 31.4721,86.6972 C33.4301,86.6742 35.3891,86.6882 37.3481,86.6862 C37.5871,86.6852 37.8511,86.6952 37.8451,86.3422 C37.8291,85.3062 38.1521,84.0772 37.7061,83.2802 C37.0191,82.0552 37.3681,80.8762 37.2191,79.6872 C37.1361,79.0212 37.5251,78.9752 38.0331,79.0932 C38.7381,79.2572 38.9911,79.7752 39.0261,80.4192 C39.1241,82.2112 39.1991,84.0052 39.2801,85.7992 C39.3091,86.4562 39.5461,86.7572 40.3021,86.7112 C41.6161,86.6302 42.9441,86.6152 44.2571,86.7122 C45.2901,86.7872 45.5181,86.4922 45.5851,85.4362 C45.7101,83.4552 44.5311,81.7262 44.7451,79.7402 C44.8921,78.3872 44.2031,77.3642 42.7311,76.8142 Z M30.3011,66.7742 C30.3891,66.3012 30.7201,66.0932 31.1541,66.0992 C34.5101,66.1492 37.8821,65.8402 41.2191,66.2362 C45.8951,66.7902 48.1551,72.1252 45.4421,76.0592 C45.0801,76.5842 44.9601,76.8762 45.3901,77.4652 C46.1841,78.5502 46.0071,79.9042 46.1041,81.1712 C46.1381,81.6142 45.9441,82.1432 46.5291,82.4462 C46.8501,82.0262 46.6341,81.5912 46.6381,81.1892 C46.6751,77.8352 46.3631,74.4672 46.8251,71.1302 C47.2941,67.7412 49.1271,66.0832 52.5511,65.7602 C55.5421,65.4782 58.3491,66.0082 60.9131,67.6562 C61.5521,68.0662 61.8591,68.5482 61.7911,69.3252 C61.6321,71.1402 61.5231,73.0192 61.6301,74.7752 C61.8261,78.0022 61.5891,81.2192 61.7981,84.4312 C61.8561,85.3202 61.5121,85.8582 60.8021,86.2912 C57.4441,88.3332 53.8801,88.5852 50.2031,87.4222 C48.6991,86.9452 48.2021,86.2642 46.7541,83.5512 C46.7541,84.5962 46.7591,85.3202 46.7531,86.0452 C46.7431,87.4582 46.5551,87.6962 45.1751,87.6442 C43.0731,87.5652 40.9461,87.4932 38.8691,87.5312 C36.4521,87.5762 34.0201,87.5252 31.5991,87.6512 C31.0411,87.6802 30.4401,87.7142 30.2921,86.9482 C30.2961,85.5972 30.3011,84.2462 30.3051,82.8962 C30.8441,82.2862 30.8291,81.5492 30.8251,80.7972 C30.8091,78.1282 30.7911,75.4582 30.8361,72.7892 C30.8481,72.0492 30.7101,71.4072 30.3051,70.8072 L30.3011,66.7742 Z" id="Fill-15" fill="#F2EDEB"></path>
                <path d="M25.2264,86.6884 C25.9844,86.6884 26.7504,86.6244 27.5004,86.7044 C28.4524,86.8054 28.7524,86.5524 28.7834,85.5134 C28.8234,84.1734 28.2214,82.9764 28.1694,81.7204 C28.0374,78.4924 28.1184,75.2554 28.1224,72.0224 C28.1224,71.7474 28.0894,71.3964 28.2354,71.2084 C29.0354,70.1744 28.6274,68.9864 28.7384,67.8664 C28.7984,67.2494 28.5674,67.0274 27.9304,67.0424 C26.2944,67.0814 24.6504,67.1404 23.0214,67.0264 C21.8624,66.9454 21.6154,67.3754 21.6864,68.4234 C21.8514,70.8404 22.6804,73.1684 22.4224,75.6554 C22.2254,77.5514 22.3884,79.4844 22.3784,81.4004 C22.3764,81.7554 22.4494,82.2234 22.2604,82.4464 C21.4054,83.4604 21.8134,84.6414 21.6954,85.7524 C21.6214,86.4604 21.8104,86.7694 22.5924,86.7054 C23.4654,86.6314 24.3484,86.6884 25.2264,86.6884 M13.6734,80.2044 C13.6264,80.2064 13.5794,80.2094 13.5324,80.2114 C13.1964,77.8464 12.8544,75.4814 12.5274,73.1154 C12.4344,72.4474 12.0324,71.6674 12.3774,71.1244 C13.0514,70.0644 12.6884,68.9644 12.8214,67.8904 C12.9094,67.1754 12.5894,67.0264 11.9354,67.0414 C10.1774,67.0824 8.4174,67.0884 6.6614,67.0394 C5.9554,67.0194 5.9004,67.2954 5.7894,67.9164 C5.4464,69.8384 6.5134,71.4444 6.8214,73.2144 C7.5604,77.4574 8.4104,81.6814 9.1724,85.9204 C9.2804,86.5244 9.4834,86.7094 10.0814,86.7004 C12.1594,86.6684 14.2374,86.6724 16.3154,86.6984 C16.8514,86.7054 17.0524,86.5644 17.1384,85.9924 C17.4864,83.6654 17.9114,81.3494 18.3024,79.0284 C18.7074,76.6294 18.9024,74.1694 19.5864,71.8534 C19.9864,70.4994 20.2274,69.2114 20.2264,67.8314 C20.2254,67.3184 20.1724,67.0224 19.5284,67.0404 C17.9314,67.0854 16.3314,67.0514 14.7334,67.0594 C14.4744,67.0614 14.0414,66.9754 14.0674,67.3534 C14.1474,68.5024 13.6164,69.7234 14.4234,70.7914 C14.6874,71.1414 14.7024,71.5414 14.6564,71.9364 C14.3364,74.6934 14.0024,77.4484 13.6734,80.2044 M29.8094,87.1424 C29.6274,87.6914 29.1654,87.6554 28.7264,87.6554 C26.6064,87.6574 24.4864,87.6304 22.3674,87.6674 C21.3684,87.6844 20.9634,87.2354 21.0484,86.2884 C21.1804,84.8214 20.7704,83.3424 21.5984,81.8814 C21.9954,81.1814 21.6944,80.0814 21.6964,79.1614 C21.7014,76.9214 21.7064,74.6824 21.6904,72.4424 C21.6874,72.0344 21.8564,71.3974 21.2974,71.3354 C20.7204,71.2724 20.7664,71.9214 20.6964,72.3314 C19.9104,76.9394 19.0994,81.5444 18.3774,86.1644 C18.1984,87.3134 17.7424,87.7234 16.5804,87.6794 C14.4634,87.5984 12.3394,87.6004 10.2224,87.6784 C9.0884,87.7204 8.6794,87.2464 8.4944,86.2004 C7.7064,81.7544 6.9964,77.2874 5.9694,72.8954 C5.5454,71.0794 5.0214,69.3414 5.1164,67.4504 C5.1644,66.4874 5.5054,66.0774 6.4774,66.0814 C11.0264,66.1004 15.5754,66.0894 20.1244,66.0894 C22.8974,66.0894 25.6714,66.0864 28.4444,66.0914 C28.9504,66.0924 29.5094,65.9724 29.8054,66.5764 C29.8074,68.0484 29.8094,69.5204 29.8114,70.9924 C29.4854,71.3984 29.3274,71.8284 29.3334,72.3824 C29.3674,75.3614 29.3674,78.3404 29.3334,81.3184 C29.3274,81.8734 29.4824,82.3034 29.8104,82.7094 C29.8104,84.1864 29.8094,85.6654 29.8094,87.1424" id="Fill-17" fill="#F2EDEB"></path>
                <path d="M188.4037,76.2812 C188.3587,76.2762 188.3127,76.2712 188.2667,76.2662 C187.3347,73.5592 186.3617,70.8652 185.4897,68.1382 C185.2077,67.2562 184.7917,66.9692 183.8827,67.0322 C182.6107,67.1212 181.3217,67.1262 180.0497,67.0322 C179.0497,66.9592 178.7747,67.2632 178.7977,68.2662 C178.8527,70.7042 179.7807,73.0322 179.5067,75.5282 C179.2987,77.4232 179.4707,79.3602 179.4607,81.2782 C179.4577,81.6742 179.5287,82.1732 179.3257,82.4472 C178.4927,83.5702 178.9547,84.8292 178.8207,86.0212 C178.7617,86.5432 178.9597,86.7102 179.4857,86.6992 C181.0037,86.6682 182.5217,86.6882 184.0407,86.6872 C184.3157,86.6872 184.6217,86.7372 184.6157,86.3012 C184.6037,85.3022 184.7997,84.2522 184.5557,83.3152 C183.9677,81.0482 183.7717,79.9312 184.1047,77.8962 C185.1407,80.6582 186.1317,83.2502 187.0787,85.8592 C187.2967,86.4612 187.5587,86.7552 188.2617,86.7082 C189.3767,86.6342 190.5037,86.6232 191.6157,86.7072 C192.6537,86.7862 193.0297,86.5382 193.0077,85.3842 C192.9277,81.0692 192.9737,76.7532 192.9797,72.4372 C192.9797,71.9242 192.8847,71.3822 193.2157,70.9272 C194.0057,69.8372 193.5027,68.6082 193.5827,67.4462 C193.6187,66.9112 193.0767,67.0642 192.7507,67.0612 C191.3517,67.0482 189.9517,67.0922 188.5547,67.0402 C187.8597,67.0142 187.6567,67.2462 187.6917,67.9202 C187.7547,69.1222 187.9017,70.2402 188.2907,71.4382 C188.7667,72.9102 188.4037,74.6552 188.4037,76.2812 M185.9527,85.2452 C185.7597,87.9162 185.9617,87.6452 183.2517,87.6552 C181.9317,87.6612 180.6127,87.6452 179.2927,87.6602 C178.4947,87.6702 178.0347,87.2752 178.1027,86.5082 C178.2367,85.0072 177.5647,83.3962 178.7157,82.0142 C178.8827,81.8132 178.8137,81.3962 178.8147,81.0792 C178.8217,78.2802 178.8167,75.4802 178.8207,72.6812 C178.8207,72.1172 178.6197,71.6512 178.3937,71.1252 C177.7667,69.6632 178.0047,68.0872 178.2687,66.5652 C178.3407,66.1492 178.8487,66.0852 179.2757,66.0872 C181.2347,66.0942 183.1947,66.0982 185.1537,66.0852 C185.7557,66.0812 186.1307,66.3272 186.3257,66.8972 C186.4757,67.3392 186.5557,67.8182 186.9027,68.1962 C187.0267,66.0902 187.0267,66.0902 189.1977,66.0892 C190.5967,66.0892 191.9977,66.1222 193.3957,66.0782 C194.4037,66.0482 194.9337,66.4252 194.8317,67.4722 C194.6917,68.8992 195.2387,70.4052 194.2587,71.7462 C194.0627,72.0142 194.1847,72.5252 194.1837,72.9242 C194.1807,77.3232 194.1577,81.7222 194.1987,86.1212 C194.2097,87.2572 193.8157,87.7262 192.6597,87.6722 C191.3027,87.6072 189.9347,87.5772 188.5837,87.6792 C187.3727,87.7712 186.6887,87.3612 186.4247,86.1682 C186.3537,85.8522 186.3127,85.4542 185.9527,85.2452" id="Fill-19" fill="#F2EDEB"></path>
                <path d="M71.8612,100.3974 C71.8612,97.9354 71.9042,95.4724 71.8392,93.0124 C71.8152,92.1024 72.1752,91.9714 72.9502,91.9914 C73.6402,92.0074 74.0142,92.0464 74.0052,92.9294 C73.9562,97.4474 73.9882,101.9644 73.9692,106.4824 C73.9682,106.8034 74.2432,107.4204 73.5582,107.3614 C72.9372,107.3074 72.1142,107.8264 71.7702,106.7314 C71.0412,104.4104 70.2282,102.1154 69.4482,99.8094 C69.3412,99.4924 69.2302,99.1754 68.9422,98.9034 C68.9422,101.4494 68.9022,103.9964 68.9652,106.5404 C68.9862,107.3844 68.6132,107.4474 67.9762,107.3914 C67.4222,107.3434 66.7912,107.6084 66.8012,106.5774 C66.8472,102.0204 66.8182,97.4624 66.8282,92.9054 C66.8292,92.5534 66.6402,91.9734 67.2942,92.0374 C67.9152,92.0974 68.7412,91.5704 69.0792,92.6594 C69.7882,94.9474 70.5692,97.2124 71.3232,99.4874 C71.4282,99.8064 71.5432,100.1234 71.6532,100.4414 L71.8612,100.3974 Z" id="Fill-21" fill="#F6F4F3"></path>
                <path d="M105.0687,96.5331 C105.0687,97.0891 105.0617,97.6451 105.0727,98.2021 C105.0767,98.4271 105.0207,98.6731 105.2847,98.8271 C105.9277,99.2031 107.3637,98.6791 107.5957,97.9331 C107.8727,97.0441 107.8477,96.1191 107.6377,95.2241 C107.3837,94.1471 106.4947,94.1561 105.6357,94.2001 C104.6537,94.2511 105.1787,95.0141 105.0837,95.4631 C105.0097,95.8041 105.0687,96.1761 105.0687,96.5331 M110.2797,107.2601 C108.1477,107.5891 108.1477,107.5891 107.5927,105.6581 C107.2077,104.3161 106.7917,102.9821 106.4477,101.6301 C106.3087,101.0841 106.1287,100.7721 105.5027,100.8481 C104.8267,100.9311 105.0877,101.4351 105.0817,101.7671 C105.0547,103.3651 105.0217,104.9661 105.0887,106.5601 C105.1257,107.4371 104.6477,107.4161 104.0477,107.3911 C103.5067,107.3701 102.9857,107.5371 102.9957,106.6061 C103.0447,102.0121 103.0267,97.4181 103.0057,92.8241 C103.0037,92.2211 103.1407,91.9571 103.7977,92.0011 C104.8717,92.0731 105.9527,92.0411 107.0267,92.1101 C107.7677,92.1591 108.3977,92.5091 108.8947,93.0741 C110.2587,94.6271 110.2337,98.4291 108.7627,99.8811 C108.2757,100.3611 108.2327,100.7391 108.4237,101.3251 C109.0637,103.2921 109.6627,105.2731 110.2797,107.2601" id="Fill-23" fill="#F6F4F3"></path>
                <path d="M63.1385,98.5214 C63.1385,100.2814 63.1565,102.0424 63.1345,103.8014 C63.1085,105.8704 61.7735,107.4184 59.9715,107.5184 C58.2015,107.6164 56.6025,106.1434 56.5485,104.0764 C56.4505,100.2784 56.5185,96.4774 56.4945,92.6774 C56.4895,91.6654 57.2225,92.0904 57.6865,92.0204 C58.2495,91.9354 58.6515,91.9824 58.6405,92.7864 C58.5965,96.1454 58.6225,99.5054 58.6225,102.8654 C58.6225,103.1854 58.6075,103.5064 58.6325,103.8254 C58.6895,104.5674 58.9475,105.1964 59.8165,105.1984 C60.7555,105.2004 61.0145,104.5464 61.0155,103.7414 C61.0195,100.2214 61.0325,96.7014 61.0055,93.1814 C60.9995,92.4184 61.0055,91.9694 62.0385,91.9644 C63.1085,91.9604 63.1735,92.4124 63.1525,93.2424 C63.1075,95.0004 63.1385,96.7614 63.1385,98.5214" id="Fill-25" fill="#F6F4F3"></path>
                <path d="M117.8969,102.746 C118.1449,101.519 117.3409,100.842 116.1539,100.471 C112.7919,99.421 112.7409,96.668 113.3799,94.301 C113.8729,92.478 115.6039,91.562 117.4139,92.002 C119.0419,92.397 120.2559,94.291 120.0339,95.972 C119.9609,96.514 119.6499,96.552 119.2969,96.475 C118.8269,96.372 118.0689,96.897 117.9239,96.063 C117.7499,95.056 117.6239,93.997 116.2859,94.234 C114.9819,94.466 115.2719,95.648 115.2169,96.576 C115.1749,97.265 115.4969,97.714 116.1019,97.991 C116.3559,98.107 116.6069,98.229 116.8629,98.34 C119.8629,99.639 120.9829,102.863 119.4609,105.819 C118.6989,107.3 116.9099,107.916 115.2219,107.278 C113.7849,106.735 112.6469,104.777 112.9739,103.411 C113.1569,102.651 113.7599,103.084 114.1589,103.034 C114.5049,102.992 115.0779,102.746 115.0849,103.534 C115.0959,104.516 115.4179,105.283 116.6169,105.211 C117.6049,105.15 117.9039,104.614 117.8969,102.746" id="Fill-27" fill="#F6F4F3"></path>
                <path d="M176.7338,76.9701 C176.7338,75.4121 176.7358,73.8551 176.7328,72.2981 C176.7318,72.0981 176.7088,71.8991 176.6908,71.7001 C176.4378,68.9161 175.2248,67.4021 172.6848,66.8921 C170.8328,66.5201 168.9598,66.5491 167.0978,66.9511 C165.0098,67.4041 163.7658,68.7411 163.5238,70.7871 C163.0468,74.8021 163.0768,78.8421 163.5028,82.8601 C163.7348,85.0481 165.0678,86.4041 167.2388,86.8201 C169.1358,87.1841 171.0518,87.1961 172.9488,86.7841 C174.9038,86.3601 176.0808,85.1451 176.4908,83.1801 C176.9208,81.1251 176.7838,79.0441 176.7338,76.9701 M177.9148,76.8631 C177.9318,79.0541 178.1898,81.2611 177.7038,83.4321 C177.1938,85.7131 175.8328,87.1821 173.5378,87.7181 C171.4058,88.2151 169.2628,88.2091 167.1258,87.7341 C164.6618,87.1851 163.1488,85.6111 162.8328,83.1661 C162.2928,78.9971 162.2918,74.7901 162.8278,70.6221 C163.1738,67.9241 164.9048,66.3681 167.6778,65.8831 C169.4208,65.5781 171.1828,65.5781 172.9258,65.8941 C176.0018,66.4511 177.7048,68.3651 177.8958,71.5941 C177.9998,73.3451 177.9148,75.1061 177.9148,76.8631" id="Fill-29" fill="#F2EDEB"></path>
                <path d="M86.8832,101.8915 C87.3552,98.8115 87.8022,95.8675 88.2622,92.9235 C88.3302,92.4845 88.2592,92.0065 89.0212,91.9855 C90.6322,91.9385 90.6362,91.8825 90.3392,93.4695 C89.5222,97.8255 88.6822,102.1755 87.9002,106.5375 C87.7702,107.2625 87.4622,107.4185 86.7902,107.4125 C86.1332,107.4055 85.8212,107.2865 85.6882,106.5395 C84.8802,102.0215 83.9942,97.5175 83.1702,93.0025 C83.1142,92.6965 82.6572,91.9835 83.4792,92.0485 C84.0922,92.0975 85.0962,91.4255 85.2932,92.6825 C85.6952,95.2465 86.0672,97.8155 86.4602,100.3815 C86.5302,100.8435 86.5102,101.3335 86.8832,101.8915" id="Fill-31" fill="#F2EDEB"></path>
                <path d="M93.6981,99.6991 C93.6981,97.4601 93.7341,95.2201 93.6791,92.9821 C93.6591,92.1741 93.9241,91.9631 94.6971,91.9931 C96.1341,92.0511 97.5761,92.0581 99.0131,91.9921 C99.9531,91.9491 99.8061,92.5401 99.7891,93.0811 C99.7741,93.5901 100.0241,94.3041 99.0531,94.1901 C99.0141,94.1861 98.9731,94.1871 98.9331,94.1901 C97.9141,94.2771 96.3811,93.7261 95.9931,94.4261 C95.4811,95.3481 95.8571,96.7551 95.8181,97.9521 C95.8021,98.4301 95.9831,98.5881 96.4421,98.5621 C96.9601,98.5341 97.4821,98.5551 98.0011,98.5571 C99.1431,98.5601 99.6241,99.2931 99.2311,100.3721 C99.0641,100.8311 98.7131,100.6371 98.4331,100.6641 C97.6061,100.7441 96.5191,100.3051 96.0111,100.8371 C95.4611,101.4111 95.8851,102.5081 95.8281,103.3741 C95.8091,103.6521 95.8601,103.9381 95.8181,104.2121 C95.7011,104.9791 96.0381,105.1981 96.7591,105.1241 C97.3141,105.0671 97.8781,105.1121 98.4381,105.1121 C99.7031,105.1131 100.2011,105.8481 99.7871,107.0481 C99.6331,107.4941 99.3001,107.3831 99.0081,107.3861 C97.5691,107.3961 96.1281,107.3471 94.6911,107.4071 C93.9111,107.4401 93.6591,107.2211 93.6791,106.4161 C93.7341,104.1781 93.6981,101.9381 93.6981,99.6991" id="Fill-33" fill="#F2EDEB"></path>
                <path d="M66.3231,86.6903 C67.1611,86.6903 68.0091,86.6153 68.8361,86.7103 C69.7811,86.8183 69.8101,86.4013 69.9491,85.5983 C70.2251,84.0113 69.2061,82.7263 69.2141,81.2333 C69.2301,78.3183 69.2121,75.4033 69.2251,72.4883 C69.2271,72.0563 69.1741,71.5143 69.3991,71.2113 C70.2031,70.1263 69.7811,68.9183 69.9031,67.7673 C69.9661,67.1713 69.7061,67.0313 69.1501,67.0413 C67.4341,67.0713 65.7141,67.1073 64.0001,67.0303 C63.0981,66.9893 62.7161,67.2493 62.9041,68.1463 C63.7401,72.1333 63.5121,76.1753 63.5401,80.2053 C63.5431,80.6043 63.5581,81.0043 63.5351,81.4023 C63.5151,81.7593 63.5721,82.2013 63.3881,82.4553 C62.5741,83.5783 63.0291,84.8373 62.8971,86.0303 C62.8391,86.5603 63.0491,86.7213 63.5681,86.7003 C64.4851,86.6643 65.4051,86.6903 66.3231,86.6903 M71.0871,87.0373 C70.7861,87.5413 70.3371,87.6693 69.7671,87.6643 C67.6911,87.6393 65.6131,87.6303 63.5361,87.6653 C62.5771,87.6803 62.0721,87.3093 62.1711,86.3313 C62.3201,84.8693 61.7381,83.3093 62.7811,81.9573 C62.9211,81.7753 62.8361,81.4133 62.8371,81.1343 C62.8411,79.5363 62.6921,77.9223 62.8721,76.3443 C63.1771,73.6643 62.2201,71.1333 62.1681,68.5083 C62.1201,66.0933 62.1281,66.0923 64.4891,66.0923 C66.2061,66.0923 67.9241,66.1033 69.6411,66.0873 C70.2251,66.0823 70.7671,66.1103 71.0831,66.7023 C71.0901,68.0773 71.0961,69.4523 71.1021,70.8283 C70.5261,71.3443 70.4011,72.0023 70.4081,72.7503 C70.4331,75.4843 70.4331,78.2183 70.4081,80.9523 C70.4011,81.7013 70.5261,82.3583 71.1021,82.8753 C71.0971,84.2623 71.0921,85.6493 71.0871,87.0373" id="Fill-35" fill="#F6F4F3"></path>
                <path d="M140.9447,97.6737 C141.2947,96.3717 141.6397,95.0697 141.9957,93.7697 C142.5147,91.8667 142.5177,91.8677 144.6547,92.1127 C143.9027,94.5217 143.2307,96.9387 142.3877,99.2947 C141.5767,101.5637 142.0307,103.8757 141.9127,106.1677 C141.8537,107.3067 141.2067,107.7717 140.1147,107.3757 C139.8937,107.2967 139.7897,107.1807 139.7867,106.9567 C139.7857,106.8377 139.7687,106.7157 139.7837,106.5987 C140.3697,101.8857 138.8297,97.5567 137.4157,93.1947 C137.3117,92.8767 136.6297,92.2007 137.4317,92.0787 C138.0857,91.9797 139.1437,91.4497 139.4647,92.7687 C139.8577,94.3927 140.3127,96.0027 140.7407,97.6187 C140.8087,97.6377 140.8767,97.6547 140.9447,97.6737" id="Fill-37" fill="#F6F4F3"></path>
                <path d="M130.725,100.8534 C130.725,98.9754 130.682,97.0964 130.745,95.2204 C130.774,94.3524 130.467,94.1364 129.654,94.1744 C128.5,94.2284 128.005,93.4104 128.41,92.3124 C128.525,91.9994 128.731,92.0114 128.964,92.0114 C130.802,92.0084 132.64,92.0264 134.478,92.0034 C135.488,91.9914 135.081,92.7294 135.129,93.1944 C135.179,93.6844 135.301,94.1994 134.433,94.2154 C132.784,94.2464 132.785,94.3044 132.785,95.9204 C132.785,99.4364 132.749,102.9534 132.81,106.4684 C132.826,107.3474 132.475,107.4224 131.776,107.4094 C131.112,107.3954 130.662,107.4074 130.702,106.4864 C130.782,104.6114 130.725,102.7314 130.725,100.8534" id="Fill-39" fill="#F2EDEB"></path>
                <path d="M123.4584,99.6513 C123.4584,97.4153 123.5004,95.1773 123.4374,92.9433 C123.4114,92.0743 123.7804,91.9793 124.4904,91.9913 C125.1684,92.0033 125.5744,92.0253 125.5644,92.9243 C125.5154,97.4363 125.5154,101.9493 125.5644,106.4613 C125.5754,107.3453 125.2054,107.4183 124.5094,107.4063 C123.8454,107.3943 123.4024,107.4003 123.4334,106.4783 C123.5094,104.2053 123.4584,101.9273 123.4584,99.6513" id="Fill-41" fill="#F2EDEB"></path>
                <path d="M77.7689,99.7714 C77.7689,97.5344 77.8069,95.2964 77.7499,93.0604 C77.7279,92.2254 77.9609,91.9724 78.8079,91.9874 C79.5849,92.0004 79.8159,92.1994 79.8099,92.9944 C79.7709,97.4684 79.7699,101.9434 79.8099,106.4174 C79.8159,107.2104 79.5829,107.4014 78.8129,107.4124 C77.9899,107.4234 77.7219,107.2234 77.7479,106.3624 C77.8119,104.1674 77.7689,101.9684 77.7689,99.7714" id="Fill-43" fill="#FEFEFE"></path>
                <path d="M29.8119,70.9921 C29.8099,69.5201 29.8079,68.0481 29.8049,66.5761 C29.9709,66.6411 30.0489,66.9251 30.3009,66.7741 L30.3049,70.8071 C30.0499,70.6261 29.9579,70.8821 29.8119,70.9921" id="Fill-45" fill="#E4E4E4"></path>
                <path d="M29.8099,87.1425 C29.8099,85.6645 29.8099,84.1865 29.8109,82.7085 C29.9569,82.8185 30.0479,83.0775 30.3049,82.8955 C30.3009,84.2465 30.2959,85.5975 30.2919,86.9485 C30.0419,86.7915 29.9679,87.0705 29.8099,87.1425" id="Fill-47" fill="#E4E4E4"></path>
                <path d="M71.0868,87.037 C71.0918,85.649 71.0968,84.263 71.1028,82.875 C71.1628,82.832 71.2288,82.805 71.3018,82.794 C71.3158,84.249 71.3298,85.704 71.3438,87.159 C71.2578,87.119 71.1718,87.078 71.0868,87.037" id="Fill-49" fill="#E4E4E4"></path>
                <path d="M71.1024,70.828 C71.0964,69.453 71.0894,68.078 71.0834,66.702 C71.1734,66.659 71.2634,66.615 71.3534,66.572 C71.3364,68.017 71.3194,69.463 71.3024,70.91 C71.2294,70.898 71.1634,70.871 71.1024,70.828" id="Fill-51" fill="#E4E4E4"></path>
                <path d="M96.556,57.4589 C95.92,57.3399 95.614,57.2699 95.304,57.2269 C91.189,56.6609 87.742,54.7699 84.879,51.8269 C82.43,49.3089 80.792,46.4369 81.288,42.7099 C81.503,41.0899 81.566,39.4499 81.9,37.8439 C83.02,32.4739 84.761,27.3839 88.564,23.2389 C89.744,21.9529 89.731,21.9779 90.954,23.1599 C94.376,26.4669 98.467,27.6829 103.145,26.9589 C104.129,26.8059 104.949,26.3139 105.44,25.4039 C105.8,24.7359 105.79,24.3089 104.824,24.2609 C102.966,24.1679 101.341,23.4219 99.963,22.1909 C98.706,21.0689 97.64,19.7739 96.795,18.3099 C96.601,17.9719 96.53,17.5899 95.997,17.5639 C90.715,17.3119 85.912,18.5859 82.368,22.6779 C76.498,29.4559 74.717,37.6419 76.145,46.1999 C77.707,55.5579 86.23,60.3259 96.556,57.4589 M100.01,45.5939 C103.961,43.6909 107.95,41.8749 112.039,40.2819 C112.791,39.9889 113.239,39.9699 113.852,40.6639 C115.48,42.5079 117.67,42.9689 120.285,42.9469 C118.827,41.4079 117.273,40.3759 116.198,38.7759 C121.441,37.1509 126.834,36.9049 132.162,36.2289 C130.891,35.6999 129.591,35.5969 128.268,35.6449 C124.523,35.7799 120.944,36.7679 117.357,37.7279 C115.494,38.2249 115.518,38.2009 114.759,36.4459 C114.462,35.7579 114.546,35.5149 115.324,35.3169 C119.269,34.3109 123.271,34.0219 127.327,34.1489 C129.452,34.2159 131.583,34.1609 134.021,34.1609 C131.635,33.0299 129.377,32.9459 127.121,33.0089 C123.119,33.1209 119.172,33.7089 115.254,34.5159 C115.012,34.5649 114.626,34.8749 114.513,34.3009 C114.306,33.2439 115.696,31.3479 116.786,31.2079 C119.856,30.8149 122.929,30.9119 126.001,31.1559 C128.355,31.3439 130.706,31.5759 133.058,31.7879 C130.667,30.2969 128.027,30.1289 125.357,30.0359 C122.723,29.9449 120.096,30.1429 117.173,30.3179 C118.454,29.2929 119.621,28.7949 120.831,28.4039 C125.482,26.8989 130.124,27.2989 134.771,28.4639 C136.591,28.9209 138.435,29.2839 140.268,29.6899 L140.441,29.3529 C137.527,29.0489 136.369,26.7649 134.943,24.7729 C134.176,23.7019 133.384,22.6459 132.564,21.6159 C131.966,20.8649 131.364,20.0089 130.485,19.6609 C129.296,19.1889 128.537,18.2999 127.715,17.4419 C127.162,16.8649 126.633,16.2649 126.103,15.6669 C124.176,13.5009 121.99,11.8339 118.995,11.3579 C115.325,10.7749 111.651,10.2299 107.95,9.9249 C105.155,9.6949 102.367,9.2159 99.33,9.4559 C106.131,11.4989 113.222,11.7909 119.656,15.3139 C115.776,15.6739 112.165,15.5209 108.375,16.0909 C108.72,16.3829 108.822,16.5269 108.958,16.5779 C113.844,18.3749 118.827,19.7369 124.063,19.9799 C124.377,19.9949 124.767,19.9209 124.993,20.0769 C126.79,21.3069 128.556,22.5839 130.597,24.0349 C129.818,23.9729 129.392,23.9339 128.966,23.9069 C125.154,23.6629 121.37,23.8379 117.702,24.9919 C114.781,25.9099 112.273,27.3739 111.421,30.6279 C111.286,31.1449 110.908,31.1539 110.512,31.2289 C108.787,31.5529 107.048,31.8219 105.346,32.2399 C103.297,32.7439 101.251,33.3069 99.501,34.6009 C103.383,33.8179 107.194,32.7349 111.123,32.1349 C111.217,32.9689 111.26,33.6879 111.388,34.3929 C111.523,35.1369 111.262,35.4309 110.517,35.5929 C108.609,36.0059 106.732,36.5599 104.905,37.2589 C103.337,37.8589 101.756,38.4469 100.424,39.5599 C100.958,39.8169 101.346,39.5229 101.755,39.3919 C104.373,38.5519 106.98,37.6759 109.606,36.8619 C111.627,36.2359 111.601,36.2819 112.353,38.2369 C112.638,38.9779 112.496,39.2209 111.746,39.4659 C110.083,40.0089 108.436,40.6209 106.832,41.3199 C104.356,42.3999 101.815,43.3929 99.844,45.3559 C99.774,45.4279 99.631,45.5349 99.647,45.5659 C99.738,45.7589 99.88,45.6629 100.01,45.5939 M147.583,47.5739 C145.288,44.7019 142.785,42.2149 139.411,40.9199 C133.935,38.8169 128.785,39.6799 124.19,43.2499 C121.472,45.3599 119.149,47.9189 117.114,50.7099 C116.242,51.9069 115.449,53.1459 115.451,54.7289 C115.453,56.2889 116.125,57.4069 117.511,58.0929 C119.355,59.0069 121.35,59.1379 123.353,59.1239 C126.629,59.1019 129.905,59.0129 133.181,58.9799 C134.486,58.9659 134.492,59.0139 133.962,60.2239 C132.91,62.6269 131.56,64.9179 131.161,67.5679 C131.08,68.1049 130.707,68.2909 130.29,68.4379 C126.361,69.8319 122.459,69.7389 118.61,68.1459 C117.612,67.7329 116.833,66.9839 116.57,65.9239 C115.987,63.5859 114.254,62.4019 112.293,61.3879 C109.58,59.9839 106.671,59.1609 103.729,58.4229 C103.231,58.2979 102.79,58.4449 102.329,58.5929 C98.018,59.9839 93.663,61.1379 89.065,60.7659 C86.594,60.5649 84.135,60.2179 81.777,59.4399 C77.211,57.9329 74.148,54.7519 72.239,50.4349 C71.806,49.4559 71.264,49.0929 70.228,48.9819 C64.083,48.3209 58.233,49.6989 52.465,51.5269 C47.003,53.2569 41.831,55.6309 37.17,59.0219 C36.965,59.1709 36.742,59.4979 36.455,59.2339 C36.223,59.0199 36.386,58.6979 36.448,58.4359 C37.417,54.3759 39.202,50.7289 42.474,48.0669 C51.014,41.1219 60.615,36.2369 71.342,33.6529 C72.63,33.3429 73.13,32.3779 73.504,31.3399 C74.126,29.6119 74.679,27.8579 75.645,26.2829 C76.02,25.6719 75.906,25.4449 75.223,25.2399 C70.778,23.9029 66.237,23.3839 61.615,23.6649 C50.11,24.3639 39.758,28.5679 29.883,34.1949 C29.557,34.3809 29.282,34.7039 28.668,34.6609 C29.025,34.1349 29.311,33.6859 29.624,33.2579 C33.032,28.6069 37.335,24.9579 42.309,22.1029 C47.044,19.3859 51.784,16.6679 56.743,14.3669 C57.602,13.9679 58.543,13.7379 59.458,13.4679 C61.217,12.9479 62.762,13.2499 64.3,14.3609 C69.84,18.3609 79.872,17.8239 84.963,13.3729 C85.42,12.9729 85.417,12.7619 84.951,12.4009 C83.645,11.3889 82.12,10.9109 80.54,10.6669 C77.012,10.1219 73.473,10.3239 69.781,10.6519 C71.575,13.9509 74.937,14.3719 78.083,15.4969 C69.141,16.5749 60.815,12.8309 58.891,6.3019 C64.523,7.4439 70.041,6.0839 75.595,5.7129 C77.594,5.5789 79.587,5.5609 81.584,5.6139 C85.634,5.7219 89.653,5.4109 93.63,4.6539 C98.242,3.7769 102.845,3.8959 107.455,4.6119 C115.313,5.8339 122.875,7.9779 129.89,11.8169 C130.903,12.3719 131.847,13.0529 132.848,13.6319 C133.992,14.2939 134.689,15.2949 134.988,16.5329 C135.125,17.1049 135.43,17.2089 135.887,17.2669 C137.998,17.5339 139.61,18.8259 141.318,19.9189 C141.768,20.2079 141.755,20.5609 141.435,20.9189 C141.17,21.2149 140.848,21.4599 140.581,21.7549 C140.389,21.9679 140.266,22.2659 140.406,22.5289 C140.544,22.7899 140.838,22.6439 141.063,22.6199 C142.111,22.5069 143.154,22.2249 144.205,22.4729 C144.305,23.0049 143.602,23.0519 143.718,23.6069 C146.68,22.4769 148.97,23.8479 151.066,25.7349 C153.433,27.8669 155.211,30.4749 156.894,33.1549 C157.262,33.7429 156.977,33.8209 156.497,33.8769 C155.694,33.9709 154.99,33.6999 154.371,33.2349 C153.542,32.6109 152.752,31.9349 151.943,31.2859 C151.02,30.5459 149.995,30.2519 148.537,30.6689 C151.826,31.6359 153.18,34.5759 155.527,36.3619 C156.066,36.7719 155.838,37.3279 155.766,37.8009 C155.44,39.9499 154.336,41.6629 152.698,43.0579 C150.997,44.5049 149.104,45.7289 147.583,47.5739" id="Fill-53" fill="#2A2728"></path>
                <path d="M147.0609,76.1938 C147.0609,75.3168 147.1069,74.4358 147.0489,73.5628 C146.9779,72.4928 147.0959,71.4688 146.3959,70.3998 C145.9179,69.6708 146.2629,68.3838 146.2999,67.3478 C146.3149,66.9578 146.7159,67.0588 146.9739,67.0568 C148.4929,67.0478 150.0129,67.0838 151.5299,67.0378 C152.1739,67.0188 152.2669,67.3148 152.2199,67.8288 C152.1149,68.9808 152.5129,70.1888 151.6829,71.2638 C151.4579,71.5548 151.5439,72.1108 151.5439,72.5448 C151.5359,76.9418 151.5169,81.3378 151.5589,85.7348 C151.5659,86.5308 151.3379,86.7468 150.5669,86.7068 C149.3319,86.6438 148.0869,86.6448 146.8519,86.7078 C146.1649,86.7428 145.8929,86.4918 145.6679,85.8668 C144.7469,83.3018 143.7599,80.7588 142.6799,78.2338 C142.8609,79.9168 142.1459,81.5918 143.0899,83.3018 C143.5329,84.1018 143.2079,85.3338 143.2009,86.3698 C143.1969,86.8108 142.8129,86.6828 142.5679,86.6848 C141.0489,86.6948 139.5299,86.6938 138.0109,86.6868 C137.7489,86.6858 137.3519,86.7588 137.4009,86.3378 C137.5429,85.1088 136.9359,83.7878 137.8399,82.6508 C137.9129,82.5598 137.9799,82.4348 137.9829,82.3238 C138.0909,78.6528 138.3209,74.9598 137.8519,71.3258 C137.7129,70.2488 137.4689,69.1338 137.3679,68.0128 C137.2909,67.1808 137.6349,67.0088 138.3889,67.0368 C139.8259,67.0898 141.2689,67.1118 142.7039,67.0288 C143.5229,66.9818 143.8069,67.3558 144.0309,68.0288 C144.8209,70.4088 145.6449,72.7768 146.4619,75.1488 C146.5879,75.5148 146.7439,75.8718 146.8849,76.2338 L147.0609,76.1938 Z" id="Fill-55" fill="#2A2728"></path>
                <path d="M127.6986,71.0351 C127.6986,74.3751 127.6976,77.5261 127.7016,80.6781 C127.7016,81.0761 127.7106,81.4771 127.7576,81.8721 C127.8206,82.4111 128.1416,82.7621 128.6856,82.7981 C129.2306,82.8341 129.5896,82.5451 129.7176,81.9991 C129.7446,81.8831 129.8066,81.7681 129.8066,81.6521 C129.8106,78.2601 129.8636,74.8661 129.7596,71.4761 C129.7396,70.8191 129.6596,70.5071 130.3616,70.2951 C131.4496,69.9671 132.1216,69.2151 132.1786,68.0361 C132.2196,67.2261 132.5946,67.0161 133.3916,67.0301 C135.7006,67.0711 136.0976,67.1181 135.6146,69.3171 C134.6536,73.6941 135.4286,78.1001 134.8996,82.4561 C134.6396,84.5921 133.4636,86.0661 131.3736,86.6831 C129.4596,87.2491 127.5006,87.2801 125.5996,86.6551 C123.5476,85.9791 122.3696,84.5011 122.2126,82.3261 C121.9586,78.8171 122.1776,75.2991 122.0756,71.7871 C122.0566,71.1461 122.3916,71.3021 122.7246,71.3081 C124.3596,71.3371 125.9976,71.4431 127.6986,71.0351" id="Fill-57" fill="#2A2728"></path>
                <path d="M157.431,86.6903 C157.192,86.6903 156.912,86.7703 156.719,86.6763 C155.834,86.2463 154.252,87.6973 153.994,85.8343 C153.854,84.8103 153.535,83.6003 154.426,82.6433 C154.478,82.5883 154.522,82.5023 154.526,82.4293 C154.693,78.7203 154.833,74.9923 154.432,71.3143 C154.322,70.3023 154.033,69.2173 153.924,68.1383 C153.829,67.2023 154.188,66.9973 155.062,67.0323 C156.777,67.1013 158.497,67.0703 160.214,67.0423 C160.777,67.0323 161.035,67.1973 160.982,67.7843 C160.877,68.9443 161.254,70.1533 160.472,71.2473 C160.254,71.5523 160.345,72.0993 160.344,72.5353 C160.334,75.4123 160.348,78.2883 160.335,81.1643 C160.328,82.7013 161.268,84.0643 161.028,85.6793 C160.908,86.4863 160.777,86.7793 159.947,86.7063 C159.115,86.6333 158.27,86.6903 157.431,86.6903" id="Fill-59" fill="#2A2728"></path>
                <path d="M136.6927,52.8036 C136.1837,54.7536 135.1227,56.1336 134.0127,57.4896 C133.7757,57.7796 133.4657,57.7676 133.1437,57.7736 C128.6297,57.8616 124.1157,57.9956 119.6057,57.6526 C118.0397,57.5326 117.7657,57.2946 117.5147,55.7626 C117.3207,54.5746 117.6717,54.1866 118.8297,54.3646 C119.5587,54.4766 120.2617,54.2926 120.9727,54.2296 C121.4567,54.1866 121.9447,54.1216 122.3977,54.2756 C123.2867,54.5766 124.1417,55.1116 124.8417,53.9076 C125.0237,53.5956 125.4967,53.8006 125.7987,54.0516 C127.7057,55.6356 129.8447,55.4826 132.0417,54.8756 C133.6297,54.4376 135.0347,53.5826 136.6927,52.8036" id="Fill-61" fill="#2A2728"></path>
                <path d="M134.6986,41.4145 C135.4496,41.2665 136.1636,41.3205 136.8736,41.5185 C140.0196,42.3975 142.7296,44.0185 144.9686,46.3895 C146.0526,47.5385 145.9896,47.7975 144.7756,48.7495 C142.8676,50.2485 140.5946,51.0365 138.4186,52.0145 C137.7346,52.3215 137.7066,51.8195 137.8266,51.4425 C138.0406,50.7655 138.2986,50.0755 138.6826,49.4845 C140.8766,46.1135 139.5396,43.0145 135.4286,41.8555 C135.1976,41.7895 134.8426,41.9475 134.6986,41.4145" id="Fill-63" fill="#2A2728"></path>
                <path d="M129.1127,72.144 L129.1127,81.055 L128.9787,81.055 L128.9787,72.144 C129.0237,72.144 129.0677,72.144 129.1127,72.144" id="Fill-65" fill="#761F20"></path>
                <path d="M34.9281,33.5053 C34.9171,33.5343 34.9081,33.5883 34.8961,33.5893 C34.8621,33.5913 34.8271,33.5703 34.7931,33.5593 C34.8031,33.5293 34.8131,33.4753 34.8251,33.4743 C34.8591,33.4723 34.8941,33.4933 34.9281,33.5053" id="Fill-67" fill="#E4E4E4"></path>
                <path d="M81.4364,75.9989 C81.4364,74.4849 81.7934,72.8479 81.3264,71.4949 C80.9334,70.3549 80.7804,69.2909 80.6834,68.1399 C80.6064,67.2199 80.9144,66.9809 81.8044,67.0339 C83.1584,67.1139 84.5204,67.0489 85.8794,67.0609 C86.1694,67.0629 86.6544,66.9379 86.6214,67.4049 C86.5384,68.5619 87.0334,69.7739 86.2864,70.8739 C85.9054,71.4349 85.9794,72.1019 85.9784,72.7369 C85.9744,77.0129 85.9414,81.2899 86.0034,85.5639 C86.0174,86.5409 85.7184,86.7689 84.8154,86.7059 C83.7024,86.6299 82.5764,86.6389 81.4614,86.7059 C80.7044,86.7509 80.3494,86.5149 80.0894,85.7759 C79.1994,83.2429 78.2204,80.7409 77.1564,78.2529 C77.3454,79.9359 76.6174,81.6109 77.5714,83.3199 C78.0154,84.1149 77.6894,85.3529 77.6694,86.3889 C77.6614,86.8189 77.2654,86.6799 77.0224,86.6819 C75.5034,86.6939 73.9854,86.6889 72.4664,86.6869 C72.1564,86.6869 71.7644,86.7629 71.8284,86.2489 C71.9794,85.0269 71.3914,83.6999 72.3384,82.5879 C72.3624,82.5599 72.3794,82.5159 72.3824,82.4779 C72.6614,78.7349 72.7794,74.9699 72.2994,71.2609 C72.1714,70.2789 71.9254,69.2389 71.8084,68.2039 C71.7014,67.2469 72.0434,66.9769 72.9804,67.0339 C74.3344,67.1169 75.7004,67.1089 77.0544,67.0349 C77.8674,66.9899 78.2444,67.2399 78.4984,68.0279 C79.3644,70.7049 80.3114,73.3539 81.2284,76.0139 L81.4364,75.9989 Z" id="Fill-69" fill="#2A2728"></path>
                <path d="M104.1078,72.1591 C104.0418,72.1501 103.9738,72.1411 103.9078,72.1321 C103.6878,73.8831 103.4938,75.6371 103.2408,77.3831 C103.0898,78.4261 103.8348,78.0321 104.2948,78.1031 C104.9668,78.2081 104.9758,77.8291 104.8948,77.3201 C104.6188,75.6011 104.3688,73.8801 104.1078,72.1591 M104.3788,67.0551 C105.3778,67.0551 106.3778,67.0961 107.3738,67.0421 C108.1268,67.0011 108.4588,67.1661 108.6108,68.0211 C109.4078,72.4921 110.2498,76.9571 111.1928,81.3991 C111.4918,82.8061 112.2078,84.0991 112.0518,85.6351 C111.9738,86.4031 111.9128,86.7511 111.0208,86.7111 C109.3068,86.6331 107.5858,86.6561 105.8698,86.7041 C105.1728,86.7231 104.8298,86.6021 104.9328,85.8101 C105.0758,84.7041 104.6788,83.5501 105.4298,82.4921 C105.7618,82.0221 105.5078,81.5771 104.7958,81.6411 C104.3998,81.6781 103.9948,81.6171 103.5988,81.6591 C103.3138,81.6891 102.9118,81.4561 102.7588,81.8651 C102.6138,82.2551 102.6898,82.6381 103.0088,82.9621 C103.3828,83.3441 103.7348,86.1441 103.4668,86.5231 C103.2658,86.8061 102.9538,86.6801 102.6918,86.6821 C101.1328,86.6941 99.5748,86.6611 98.0178,86.7011 C97.4058,86.7181 97.2848,86.5321 97.1918,85.9201 C96.9188,84.1021 97.7628,82.5111 98.0478,80.8111 C98.7468,76.6431 99.4788,72.4801 100.1468,68.3071 C100.2948,67.3841 100.5488,66.8851 101.6258,67.0301 C102.5278,67.1521 103.4598,67.0551 104.3788,67.0551" id="Fill-71" fill="#2A2728"></path>
                <path d="M91.9799,86.6884 C91.0619,86.6884 90.1409,86.6544 89.2249,86.7004 C88.6109,86.7304 88.3529,86.5554 88.4159,85.9054 C88.5299,84.7114 88.1349,83.4544 88.9889,82.3554 C89.1729,82.1184 89.0979,81.6614 89.0989,81.3054 C89.1079,79.2294 88.9229,77.1324 89.1509,75.0814 C89.4079,72.7764 88.4729,70.6774 88.3899,68.4434 C88.3459,67.2544 88.7009,66.9544 89.8409,67.0284 C91.4319,67.1334 93.0339,67.0784 94.6309,67.0434 C95.2439,67.0294 95.5269,67.2064 95.4579,67.8474 C95.3349,68.9604 95.7689,70.1404 94.9449,71.1804 C94.7389,71.4404 94.8229,71.9524 94.8209,72.3484 C94.8109,74.3454 94.9809,76.3584 94.7749,78.3344 C94.5139,80.8284 95.4799,83.1524 95.4809,85.5984 C95.4819,86.4834 95.2889,86.8074 94.3739,86.7064 C93.5839,86.6194 92.7779,86.6884 91.9799,86.6884" id="Fill-73" fill="#2A2728"></path>
                <path d="M71.1024,70.828 C71.1634,70.871 71.2294,70.898 71.3024,70.91 C71.7504,71.409 71.8314,71.993 71.8234,72.652 C71.7924,75.45 71.7894,78.248 71.8254,81.045 C71.8334,81.71 71.7284,82.286 71.3024,82.794 C71.2284,82.805 71.1624,82.832 71.1024,82.875 C70.5254,82.358 70.4014,81.701 70.4084,80.953 C70.4334,78.219 70.4334,75.484 70.4084,72.75 C70.4014,72.002 70.5254,71.345 71.1024,70.828" id="Fill-75" fill="#761F20"></path>
                <path d="M37.2064,73.1518 C37.2064,73.5108 37.2424,73.8738 37.1994,74.2278 C37.0794,75.2148 37.5884,75.2618 38.3414,75.0638 C39.1514,74.8498 39.3724,74.2448 39.3984,73.5278 C39.4284,72.7048 39.5654,71.8088 38.6344,71.3228 C37.6394,70.8048 37.2154,71.0738 37.2064,72.1948 C37.2044,72.5138 37.2064,72.8328 37.2064,73.1518 M42.7304,76.8148 C44.2034,77.3648 44.8924,78.3878 44.7454,79.7398 C44.5304,81.7268 45.7104,83.4548 45.5854,85.4368 C45.5184,86.4918 45.2894,86.7868 44.2564,86.7118 C42.9444,86.6148 41.6164,86.6298 40.3024,86.7108 C39.5454,86.7578 39.3094,86.4558 39.2794,85.7988 C39.1984,84.0048 39.1234,82.2118 39.0254,80.4188 C38.9914,79.7758 38.7384,79.2578 38.0324,79.0928 C37.5244,78.9748 37.1354,79.0208 37.2194,79.6868 C37.3684,80.8758 37.0194,82.0558 37.7064,83.2808 C38.1524,84.0768 37.8294,85.3068 37.8454,86.3428 C37.8514,86.6948 37.5874,86.6858 37.3484,86.6868 C35.3894,86.6888 33.4304,86.6738 31.4724,86.6968 C30.9604,86.7028 30.8604,86.4618 30.9064,86.0428 C31.0364,84.8458 30.5424,83.5678 31.4164,82.4608 C31.5644,82.2728 31.5364,81.9208 31.5374,81.6438 C31.5444,78.4458 31.5924,75.2468 31.5174,72.0498 C31.4874,70.7768 30.6874,69.6268 30.8614,68.2478 C30.9694,67.3948 31.0304,66.9808 32.0444,67.0318 C35.1134,67.1888 38.1994,66.8278 41.2614,67.2418 C43.6034,67.5578 44.7924,68.7998 45.1174,71.1348 C45.5014,73.8988 44.8104,75.6418 42.7304,76.8148" id="Fill-77" fill="#2A2728"></path>
                <path d="M47.3676,76.1234 C47.4386,74.8714 47.1656,72.8674 47.5616,70.8814 C48.0556,68.4014 49.5026,67.0404 52.0166,66.7594 C54.7436,66.4554 57.3446,66.8114 59.7506,68.2294 C60.3086,68.5594 60.6416,68.9074 60.5956,69.6344 C60.5226,70.7894 60.5496,71.9534 60.5866,73.1114 C60.6066,73.7134 60.4546,73.9664 59.7946,73.9424 C58.4766,73.8934 57.1546,73.8944 55.8366,73.9414 C55.1656,73.9654 55.0056,73.6814 55.0566,73.0924 C55.0876,72.7364 55.0616,72.3734 55.0446,72.0144 C55.0156,71.3854 54.7576,70.8934 54.0696,70.8824 C53.3736,70.8714 53.1006,71.3634 53.0806,71.9924 C53.0546,72.8314 53.0576,73.6714 53.0566,74.5104 C53.0546,76.7504 53.0486,78.9894 53.0606,81.2284 C53.0646,81.9614 53.0756,82.8044 54.0926,82.7874 C55.0126,82.7724 55.1216,81.9914 55.0446,81.2934 C54.9666,80.5974 55.5886,79.5744 54.2636,79.3244 C54.1826,79.3094 54.1906,78.7374 54.1876,78.4244 C54.1616,75.5374 54.1636,75.5364 56.9946,75.5364 C57.9136,75.5374 58.8346,75.5654 59.7536,75.5264 C60.3406,75.5014 60.5996,75.6284 60.5916,76.3004 C60.5546,79.0194 60.5666,81.7384 60.5856,84.4574 C60.5886,84.9164 60.4246,85.2014 60.0476,85.4314 C56.8286,87.3954 53.4036,87.6534 49.9516,86.3314 C47.8856,85.5404 47.5136,83.4994 47.3876,81.5404 C47.2876,79.9874 47.3676,78.4234 47.3676,76.1234" id="Fill-79" fill="#2A2728"></path>
                <path d="M30.3051,82.8959 C30.0481,83.0779 29.9571,82.8189 29.8111,82.7089 C29.4821,82.3039 29.3271,81.8729 29.3341,81.3189 C29.3671,78.3399 29.3671,75.3609 29.3331,72.3829 C29.3271,71.8279 29.4861,71.3989 29.8121,70.9929 C29.9581,70.8819 30.0501,70.6259 30.3051,70.8069 C30.7101,71.4069 30.8481,72.0499 30.8361,72.7899 C30.7911,75.4579 30.8091,78.1279 30.8251,80.7969 C30.8291,81.5499 30.8441,82.2869 30.3051,82.8959" id="Fill-81" fill="#761F20"></path>
                <path d="M54.3871,74.5072 C53.9071,73.8252 54.0221,73.1272 54.2171,72.1952 C54.7611,73.0772 54.5231,73.8052 54.3871,74.5072" id="Fill-83" fill="#E4E4E4"></path>
                <path d="M13.6737,80.204 C14.0027,77.448 14.3367,74.693 14.6557,71.936 C14.7017,71.541 14.6877,71.141 14.4237,70.791 C13.6157,69.723 14.1477,68.502 14.0677,67.353 C14.0417,66.975 14.4737,67.061 14.7337,67.059 C16.3317,67.051 17.9307,67.085 19.5277,67.04 C20.1727,67.022 20.2247,67.319 20.2257,67.831 C20.2277,69.211 19.9857,70.499 19.5867,71.853 C18.9027,74.17 18.7077,76.63 18.3027,79.029 C17.9107,81.349 17.4867,83.665 17.1387,85.992 C17.0527,86.564 16.8517,86.705 16.3157,86.698 C14.2377,86.673 12.1587,86.669 10.0817,86.7 C9.4837,86.71 9.2807,86.524 9.1727,85.921 C8.4107,81.681 7.5607,77.457 6.8207,73.214 C6.5127,71.445 5.4457,69.839 5.7897,67.916 C5.9007,67.296 5.9557,67.019 6.6607,67.039 C8.4177,67.088 10.1777,67.082 11.9357,67.041 C12.5897,67.026 12.9097,67.176 12.8217,67.891 C12.6887,68.965 13.0517,70.065 12.3777,71.124 C12.0327,71.668 12.4347,72.447 12.5277,73.116 C12.8547,75.482 13.1957,77.846 13.5317,80.211 C13.5797,80.209 13.6267,80.206 13.6737,80.204" id="Fill-85" fill="#2A2728"></path>
                <path d="M25.2264,86.6884 C24.3484,86.6884 23.4654,86.6314 22.5924,86.7054 C21.8104,86.7694 21.6214,86.4604 21.6954,85.7524 C21.8134,84.6414 21.4054,83.4604 22.2604,82.4464 C22.4494,82.2234 22.3764,81.7554 22.3784,81.4004 C22.3884,79.4844 22.2254,77.5514 22.4224,75.6554 C22.6804,73.1684 21.8514,70.8404 21.6864,68.4234 C21.6154,67.3754 21.8624,66.9454 23.0214,67.0264 C24.6504,67.1404 26.2944,67.0814 27.9304,67.0424 C28.5674,67.0274 28.7984,67.2494 28.7384,67.8664 C28.6274,68.9864 29.0354,70.1744 28.2354,71.2084 C28.0894,71.3964 28.1224,71.7474 28.1224,72.0224 C28.1184,75.2554 28.0374,78.4924 28.1694,81.7204 C28.2214,82.9764 28.8234,84.1734 28.7834,85.5134 C28.7524,86.5524 28.4524,86.8054 27.5004,86.7044 C26.7504,86.6244 25.9844,86.6884 25.2264,86.6884" id="Fill-87" fill="#2A2728"></path>
                <path d="M188.4037,76.2812 C188.4037,74.6552 188.7667,72.9102 188.2907,71.4382 C187.9017,70.2402 187.7547,69.1222 187.6917,67.9202 C187.6567,67.2462 187.8597,67.0142 188.5547,67.0402 C189.9517,67.0922 191.3517,67.0482 192.7507,67.0612 C193.0767,67.0642 193.6187,66.9112 193.5827,67.4462 C193.5027,68.6082 194.0057,69.8372 193.2157,70.9272 C192.8847,71.3822 192.9797,71.9242 192.9797,72.4372 C192.9737,76.7532 192.9277,81.0692 193.0077,85.3842 C193.0297,86.5382 192.6537,86.7862 191.6157,86.7072 C190.5037,86.6232 189.3767,86.6342 188.2617,86.7082 C187.5587,86.7552 187.2967,86.4612 187.0787,85.8592 C186.1317,83.2502 185.1407,80.6582 184.1047,77.8962 C183.7717,79.9312 183.9677,81.0482 184.5557,83.3152 C184.7997,84.2522 184.6037,85.3022 184.6157,86.3012 C184.6217,86.7372 184.3157,86.6872 184.0407,86.6872 C182.5217,86.6882 181.0037,86.6682 179.4857,86.6992 C178.9597,86.7102 178.7617,86.5432 178.8207,86.0212 C178.9547,84.8292 178.4927,83.5702 179.3257,82.4472 C179.5287,82.1732 179.4577,81.6742 179.4607,81.2782 C179.4707,79.3602 179.2987,77.4232 179.5067,75.5282 C179.7807,73.0322 178.8527,70.7042 178.7977,68.2662 C178.7747,67.2632 179.0497,66.9592 180.0497,67.0322 C181.3217,67.1262 182.6107,67.1212 183.8827,67.0322 C184.7917,66.9692 185.2077,67.2562 185.4897,68.1382 C186.3617,70.8652 187.3347,73.5592 188.2667,76.2662 C188.3127,76.2712 188.3587,76.2762 188.4037,76.2812" id="Fill-89" fill="#2A2728"></path>
                <path d="M105.0687,96.5331 C105.0687,96.1761 105.0097,95.8041 105.0837,95.4631 C105.1787,95.0141 104.6537,94.2511 105.6357,94.2001 C106.4947,94.1561 107.3837,94.1471 107.6377,95.2241 C107.8477,96.1191 107.8727,97.0441 107.5957,97.9331 C107.3637,98.6791 105.9277,99.2031 105.2847,98.8271 C105.0207,98.6731 105.0767,98.4271 105.0727,98.2021 C105.0617,97.6451 105.0687,97.0891 105.0687,96.5331" id="Fill-91" fill="#761F20"></path>
                <path d="M168.9779,76.7621 C168.9779,78.3181 168.9679,79.8731 168.9819,81.4291 C168.9889,82.1101 169.1549,82.7531 169.9839,82.7991 C170.8399,82.8451 171.0839,82.1621 171.0919,81.5181 C171.1329,78.4091 171.1309,75.2991 171.0949,72.1891 C171.0879,71.5391 170.8559,70.8541 170.0119,70.8761 C169.0889,70.9011 168.9899,71.6271 168.9819,72.3351 C168.9659,73.8111 168.9769,75.2861 168.9779,76.7621 M176.7339,76.9701 C176.7839,79.0441 176.9199,81.1251 176.4909,83.1801 C176.0809,85.1451 174.9039,86.3601 172.9489,86.7841 C171.0519,87.1961 169.1359,87.1841 167.2389,86.8201 C165.0679,86.4041 163.7349,85.0481 163.5019,82.8601 C163.0769,78.8421 163.0469,74.8021 163.5239,70.7871 C163.7659,68.7411 165.0099,67.4041 167.0979,66.9511 C168.9589,66.5491 170.8319,66.5201 172.6849,66.8921 C175.2249,67.4021 176.4379,68.9161 176.6909,71.7001 C176.7079,71.8991 176.7319,72.0981 176.7329,72.2981 C176.7359,73.8551 176.7339,75.4121 176.7339,76.9701" id="Fill-93" fill="#2A2728"></path>
                <path d="M66.3231,86.6903 C65.4051,86.6903 64.4851,86.6643 63.5681,86.7003 C63.0491,86.7213 62.8391,86.5603 62.8971,86.0303 C63.0291,84.8373 62.5741,83.5783 63.3881,82.4553 C63.5721,82.2013 63.5151,81.7593 63.5351,81.4023 C63.5581,81.0043 63.5431,80.6043 63.5401,80.2053 C63.5121,76.1753 63.7401,72.1333 62.9041,68.1463 C62.7161,67.2493 63.0981,66.9893 64.0001,67.0303 C65.7141,67.1073 67.4341,67.0713 69.1501,67.0413 C69.7061,67.0313 69.9661,67.1713 69.9031,67.7673 C69.7811,68.9183 70.2031,70.1263 69.3991,71.2113 C69.1741,71.5143 69.2271,72.0563 69.2251,72.4883 C69.2121,75.4033 69.2301,78.3183 69.2141,81.2333 C69.2061,82.7263 70.2251,84.0113 69.9491,85.5983 C69.8101,86.4013 69.7811,86.8183 68.8361,86.7103 C68.0091,86.6153 67.1611,86.6903 66.3231,86.6903" id="Fill-95" fill="#2A2728"></path>
                <path d="M99.8441,45.3564 C101.8151,43.3934 104.3561,42.3994 106.8321,41.3204 C108.4361,40.6214 110.0831,40.0094 111.7461,39.4654 C112.4961,39.2204 112.6381,38.9784 112.3531,38.2374 C111.6011,36.2824 111.6271,36.2354 109.6061,36.8624 C106.9801,37.6764 104.3731,38.5524 101.7551,39.3914 C101.3461,39.5234 100.9581,39.8174 100.4241,39.5604 C101.7561,38.4464 103.3371,37.8584 104.9051,37.2594 C106.7321,36.5604 108.6091,36.0064 110.5171,35.5924 C111.2621,35.4314 111.5231,35.1374 111.3881,34.3924 C111.2601,33.6884 111.2171,32.9694 111.1231,32.1354 C107.1941,32.7344 103.3831,33.8184 99.5011,34.6004 C101.2511,33.3064 103.2971,32.7434 105.3461,32.2404 C107.0481,31.8214 108.7871,31.5534 110.5121,31.2284 C110.9071,31.1544 111.2861,31.1444 111.4211,30.6274 C112.2731,27.3744 114.7811,25.9104 117.7021,24.9914 C121.3701,23.8384 125.1541,23.6624 128.9661,23.9064 C129.3921,23.9344 129.8181,23.9734 130.5971,24.0344 C128.5561,22.5834 126.7901,21.3074 124.9921,20.0764 C124.7671,19.9214 124.3771,19.9944 124.0631,19.9804 C118.8271,19.7364 113.8441,18.3754 108.9581,16.5774 C108.8221,16.5274 108.7201,16.3834 108.3751,16.0904 C112.1651,15.5214 115.7761,15.6734 119.6561,15.3144 C113.2221,11.7914 106.1311,11.4984 99.3301,9.4564 C102.3661,9.2164 105.1551,9.6944 107.9491,9.9254 C111.6511,10.2304 115.3241,10.7754 118.9951,11.3574 C121.9901,11.8334 124.1761,13.5004 126.1031,15.6674 C126.6331,16.2644 127.1621,16.8654 127.7151,17.4414 C128.5371,18.3004 129.2961,19.1894 130.4851,19.6614 C131.3641,20.0094 131.9661,20.8654 132.5641,21.6154 C133.3841,22.6464 134.1761,23.7014 134.9431,24.7734 C136.3681,26.7654 137.5271,29.0494 140.4411,29.3534 L140.2681,29.6894 C138.4351,29.2844 136.5911,28.9214 134.7711,28.4644 C130.1241,27.2984 125.4821,26.8994 120.8311,28.4034 C119.6211,28.7954 118.4541,29.2934 117.1731,30.3174 C120.0961,30.1434 122.7231,29.9444 125.3571,30.0364 C128.0271,30.1284 130.6671,30.2964 133.0581,31.7884 C130.7061,31.5764 128.3551,31.3434 126.0011,31.1564 C122.9291,30.9124 119.8561,30.8154 116.7861,31.2084 C115.6961,31.3474 114.3061,33.2434 114.5131,34.3004 C114.6261,34.8754 115.0121,34.5654 115.2541,34.5154 C119.1721,33.7094 123.1191,33.1214 127.1211,33.0094 C129.3771,32.9454 131.6351,33.0304 134.0211,34.1614 C131.5831,34.1614 129.4521,34.2164 127.3261,34.1494 C123.2711,34.0224 119.2691,34.3114 115.3231,35.3164 C114.5461,35.5144 114.4621,35.7584 114.7591,36.4464 C115.5181,38.2014 115.4941,38.2254 117.3571,37.7274 C120.9441,36.7684 124.5231,35.7794 128.2681,35.6444 C129.5911,35.5974 130.8911,35.6994 132.1621,36.2294 C126.8341,36.9044 121.4411,37.1514 116.1981,38.7764 C117.2731,40.3754 118.8261,41.4084 120.2851,42.9464 C117.6701,42.9684 115.4801,42.5074 113.8521,40.6634 C113.2391,39.9694 112.7911,39.9894 112.0391,40.2824 C107.9491,41.8754 103.9611,43.6914 100.0101,45.5934 C99.9541,45.5144 99.8991,45.4354 99.8441,45.3564" id="Fill-97" fill="#F6F4F3"></path>
                <path d="M96.556,57.4589 C86.23,60.3259 77.707,55.5579 76.145,46.1999 C74.717,37.6419 76.498,29.4559 82.368,22.6779 C85.912,18.5859 90.715,17.3119 95.997,17.5639 C96.53,17.5899 96.601,17.9719 96.795,18.3099 C97.64,19.7739 98.706,21.0689 99.963,22.1909 C101.341,23.4219 102.966,24.1679 104.824,24.2609 C105.79,24.3089 105.8,24.7359 105.44,25.4039 C104.949,26.3139 104.129,26.8059 103.145,26.9589 C98.467,27.6829 94.376,26.4669 90.954,23.1599 C89.731,21.9779 89.744,21.9529 88.564,23.2389 C84.761,27.3839 83.02,32.4739 81.9,37.8439 C81.566,39.4499 81.503,41.0899 81.288,42.7099 C80.792,46.4369 82.43,49.3089 84.879,51.8269 C87.742,54.7699 91.189,56.6609 95.304,57.2269 C95.614,57.2699 95.92,57.3399 96.556,57.4589" id="Fill-99" fill="#FEFEFE"></path>
                <path d="M100.0101,45.5937 C99.8801,45.6627 99.7381,45.7597 99.6471,45.5667 C99.6311,45.5347 99.7741,45.4277 99.8441,45.3567 C99.8991,45.4357 99.9541,45.5147 100.0101,45.5937" id="Fill-101" fill="#F6F4F3"></path>
                <path d="M104.1078,72.1591 C104.3688,73.8801 104.6188,75.6011 104.8948,77.3201 C104.9758,77.8291 104.9668,78.2081 104.2948,78.1031 C103.8348,78.0321 103.0898,78.4261 103.2408,77.3831 C103.4938,75.6371 103.6878,73.8831 103.9078,72.1321 C103.9738,72.1411 104.0418,72.1501 104.1078,72.1591" id="Fill-103" fill="#E4E4E4"></path>
                <path d="M37.2064,73.1518 C37.2064,72.8328 37.2044,72.5138 37.2064,72.1948 C37.2154,71.0738 37.6394,70.8048 38.6344,71.3228 C39.5654,71.8088 39.4284,72.7048 39.3984,73.5278 C39.3724,74.2448 39.1514,74.8498 38.3414,75.0638 C37.5884,75.2618 37.0794,75.2148 37.1994,74.2278 C37.2424,73.8738 37.2064,73.5108 37.2064,73.1518" id="Fill-105" fill="#E4E4E4"></path>
                <mask id="mask-6" fill="white">
                    <use xlink:href="#path-5"></use>
                </mask>
                <g id="Clip-108"></g>
                <path d="M170.27,81.5 L170.372,81.5 L170.372,72.203 L170.27,72.203 L170.27,81.5 Z M168.978,76.762 C168.977,75.287 168.966,73.811 168.982,72.335 C168.99,71.627 169.089,70.901 170.012,70.876 C170.856,70.854 171.088,71.539 171.095,72.189 C171.131,75.299 171.133,78.409 171.092,81.518 C171.084,82.163 170.84,82.846 169.984,82.799 C169.155,82.753 168.989,82.11 168.982,81.429 C168.968,79.873 168.978,78.318 168.978,76.762 Z" id="Fill-107" fill="#F2EDEB" mask="url(#mask-6)"></path>
                <polygon id="Fill-109" fill="#761F20" mask="url(#mask-6)" points="170.27 81.5 170.372 81.5 170.372 72.203 170.27 72.203"></polygon>
            </g>
        </g>
    </g>
</svg>