<?xml version="1.0" encoding="UTF-8"?>
<svg width="200px" height="200px" viewBox="0 0 200 200" version="1.1" xmlns="http://www.w3.org/2000/svg" xmlns:xlink="http://www.w3.org/1999/xlink">
    <!-- Generator: Sketch 51.3 (57544) - http://www.bohemiancoding.com/sketch -->
    <title>washburn</title>
    <desc>Created with Sketch.</desc>
    <defs></defs>
    <g id="washburn" stroke="none" stroke-width="1" fill="none" fill-rule="evenodd">
        <g id="washburn_BGL" transform="translate(0.000000, 23.000000)">
            <g id="washburn">
                <g id="g10" transform="translate(99.999998, 76.869568) scale(-1, 1) rotate(-180.000000) translate(-99.999998, -76.869568) translate(0.000000, 0.265015)" fill-rule="nonzero">
                    <g id="g12">
                        <path d="M193.301444,152.852584 C191.69896,152.956932 153.736228,147.295234 134.655483,143.848858 C132.087367,143.38509 130.296063,141.017388 130.096063,138.415732 L126.997512,109.1942 C126.986332,109.042233 126.981363,108.889852 126.981363,108.737057 C126.981363,106.759832 127.954862,104.872461 129.590059,103.734159 C130.145338,103.347409 130.758175,103.081571 131.395442,102.89772 C129.893579,98.9453391 127.016974,91.3416126 124.511798,84.7279482 C122.698548,90.9975133 120.816974,97.4989624 120.021115,100.255484 C122.709314,100.777223 124.727533,103.037679 124.932502,105.770598 L127.976394,135.226912 C127.987574,135.383433 127.992957,135.535814 127.992957,135.691094 C127.992957,137.376394 127.303931,138.973495 126.059624,140.134158 C124.700618,141.402895 122.867906,141.975152 121.030225,141.708485 C120.075773,141.570597 100.984262,138.5648 83.0629379,135.804551 C80.5097288,135.412419 78.8778448,131.482398 78.6989628,128.903931 L75.8558987,99.4472025 C75.8459608,99.3072439 75.841406,99.1652149 75.841406,99.0223578 C75.841406,97.1900597 76.6724619,95.4422336 78.110143,94.2828134 C79.0385073,93.5362295 80.1606605,93.1602461 81.3138696,93.0418196 C79.8219442,88.5312607 76.3325033,77.9797082 73.6645944,69.9022757 C71.6550707,77.6074515 69.29358,86.6819854 68.4285697,90.0049667 C70.8708057,90.6385071 72.7594185,92.7383 72.9809506,95.3697699 L76.2927517,126.94244 C76.3076585,127.113454 76.3146979,127.282398 76.3146979,127.452999 C76.3146979,129.278672 76.2608677,130.842233 75.2501016,132.130846 C74.0057953,133.714282 73.1921307,134.128775 71.1826069,133.968527 C69.4028968,133.828154 42.0244296,129.694407 14.3149893,125.00745 C12.2056312,124.650929 12.0121736,120.599583 12.2790473,118.474117 L16.5945337,85.6563126 C16.8051342,83.9739109 17.7170596,82.4414058 19.0975979,81.4558986 C20.4779705,80.4720477 22.2227738,80.1043458 23.8828151,80.452586 C23.9041402,80.4571408 25.5784259,80.7598323 25.8401236,79.952793 L48.1287773,4.22521729 C49.1250505,1.12334987 52.3718413,-0.640202883 55.5155266,0.215773908 L88.3821924,5.39581767 C90.4264988,5.94786735 92.0128341,7.49031037 92.6198735,9.52463744 C92.6198735,9.52463744 97.9726684,28.1689848 101.123807,38.7084462 C103.81449,30.5255065 108.515525,13.7800825 108.515525,13.7800825 C109.535815,10.6819459 112.792544,8.94248425 115.935401,9.81979272 L149.013247,15.2269147 C150.949479,15.7660452 152.49482,17.2265006 153.139955,19.1267076 C153.139955,19.1267076 179.115523,103.586333 179.203308,103.837264 C179.329188,104.089438 180.239747,105.802068 182.954861,106.547823 C185.031051,107.123807 186.666662,108.770598 187.221941,110.850101 L198.787573,145.206208 C198.927117,145.729189 198.995026,146.258796 198.995026,146.783847 C198.995026,148.042232 198.607034,149.280742 197.852169,150.329189" id="path14" fill="#15356F"></path>
                        <path d="M197.852169,150.329189 C196.785502,151.813247 195.12836,152.734572 193.301444,152.852584" id="path16" fill="#133A72"></path>
                        <path d="M196.435192,145.835607 L184.867076,111.476188 C184.533743,110.224428 183.559416,109.243061 182.309726,108.898962 C178.330844,107.80124 177.059209,105.023186 176.941196,104.746995 L150.834365,19.9118422 C150.446373,18.771014 149.521735,17.8964385 148.359831,17.5710141 L115.281571,12.1643889 C113.399997,11.6361074 111.439335,12.6832709 110.829397,14.5407864 L101.01449,46.8339533 L90.2865402,10.2195029 C89.9258777,9.01333311 88.9631448,8.07536212 87.7440972,7.74488593 L54.8774313,2.56486122 C52.9937875,2.05340782 51.0438911,3.11141193 50.4463756,4.97138704 L28.1552374,80.705588 C27.2740366,83.4240145 23.9976392,82.952793 23.3838089,82.8368509 C22.3827324,82.6252567 21.3434777,82.8480311 20.5115937,83.4389213 C19.6815316,84.0314679 19.1364384,84.9457536 19.010103,85.95859 L14.6951135,118.77598 C14.5336642,120.058382 15.2332501,122.327119 16.5055482,122.539127 C44.9204958,127.351136 69.7345738,131.118423 72.0327104,131.210349 C73.2401638,131.260038 73.9677,128.347409 73.8670789,127.147409 L70.5540355,95.5730825 C70.3917167,93.6476167 68.7581763,92.1809501 66.824843,92.228155 C66.2476174,92.2405774 65.7581764,92.228155 65.340371,92.201654 L73.3855054,61.3068308 L84.8844699,96.0819852 L82.9565197,95.517596 C81.8082795,95.1817782 80.5710125,95.4293972 79.6405777,96.1805359 C78.7072444,96.9275338 78.2033107,98.0890245 78.2861264,99.281571 L81.1271201,128.736643 C81.2360228,130.284469 82.168942,133.227326 83.7035176,133.455897 C100.063352,135.898961 120.428568,139.160659 121.380121,139.297719 C122.477016,139.458382 123.58716,139.111798 124.399169,138.35569 C125.209107,137.597512 125.633123,136.514282 125.551136,135.40952 L122.501446,105.952792 C122.380949,104.305173 121.164386,102.944097 119.537057,102.637265 C118.426912,102.430639 117.595442,102.225256 116.966043,102.042233 L124.20538,77.0343666 C127.530846,85.8223581 132.956518,100.153207 135.013661,105.587161 C134.868734,105.53126 134.726291,105.471633 134.595028,105.412006 C133.419458,104.871219 132.043061,104.992544 130.982191,105.733331 C129.918009,106.473289 129.325049,107.717596 129.426498,109.008693 L132.52215,138.22774 C132.642233,139.788816 133.714282,141.232295 135.259624,141.487781 C153.553205,144.537885 191.556931,150.52629 193.142438,150.424013 C194.23395,150.351135 195.23809,149.795027 195.874943,148.907243 C196.515109,148.019872 196.717179,146.89275 196.435192,145.835607" id="path18" fill="#FFFFFF"></path>
                        <path d="M192.95983,147.588402 C191.392542,147.689437 155.573909,141.59627 135.965214,138.737057 C135.617802,138.687781 135.382605,138.358589 135.355276,138.012419 L132.256725,108.793372 C132.234779,108.505173 132.368527,108.228983 132.604137,108.065008 C132.839334,107.898962 133.145752,107.874531 133.407864,107.993372 C135.046373,108.744925 137.797512,109.463765 138.609934,108.669563 C138.681156,108.511799 138.896891,107.895235 138.519251,106.826084 L124.128775,68.8053813 C124.063351,68.6385076 123.942854,68.6443047 123.885297,68.6443047 C123.816974,68.6472033 123.699376,68.687783 123.614904,68.8550707 L113.722564,103.027327 C113.717181,103.055484 113.706001,103.082399 113.695235,103.109314 C113.613248,103.317596 113.585918,103.584676 113.615732,103.690681 C113.870391,103.889024 115.095649,104.692751 119.012005,105.428569 C119.375566,105.49979 119.643475,105.800826 119.670804,106.166457 L122.717595,135.622771 C122.736643,135.867491 122.640991,136.109727 122.463351,136.274945 C122.279914,136.444717 122.031053,136.523806 121.790473,136.487781 C121.560659,136.451756 106.956519,133.69275 84.5573478,130.383848 C84.2157329,130.332916 83.9867474,130.002481 83.9606604,129.657554 L81.1196667,99.0811569 C81.1018613,98.8165607 81.2115922,98.5577615 81.4207019,98.3925441 C81.6273272,98.2244282 81.9035176,98.1701839 82.1590042,98.2451321 L86.3184243,99.4629375 C86.3809502,99.481571 87.7068301,99.9337449 88.1995837,99.2782584 C88.2186313,99.2529996 88.2393353,99.2293971 88.2604533,99.207865 C88.2674926,99.1991694 88.7739108,98.5697698 88.2770164,97.2886104 C88.2633518,97.2501011 73.7213232,53.2716343 73.7213232,53.2716343 C73.6948222,53.1950297 73.5461679,52.8285701 73.1668719,52.8285701 C73.1511369,52.8285701 72.6488595,52.8393362 72.5875758,53.1047606 L62.0422345,93.5863331 C62.0356092,93.6115919 61.8761889,94.2567264 62.1577624,94.4401633 C62.1436837,94.4310535 63.4409922,95.1498941 66.8944083,95.0679065 C67.3238078,95.0567264 67.6857126,95.3834345 67.7209093,95.8095214 L71.0351949,127.382606 C71.0571411,127.652171 70.946168,127.911384 70.7383005,128.079914 C70.5291908,128.248858 70.251344,128.304345 69.9937871,128.228568 C69.7238078,128.149065 47.6782597,124.592543 17.8230223,119.870804 C17.5399582,119.826498 17.4789644,119.412833 17.5146994,119.129604 L21.8282396,86.3105568 C21.856397,86.0836417 21.9786744,85.8815714 22.1646785,85.7498943 C22.3473286,85.6169751 22.5783017,85.569356 22.8003721,85.6169751 C23.0581775,85.6679068 29.1480738,86.8542421 30.85855,81.5813644 L53.1498952,5.84140772 C53.2824003,5.42571415 53.7167688,5.19585908 54.1349883,5.30472036 L87.0004119,10.4849273 C87.2720475,10.5585091 87.485298,10.7692751 87.5648011,11.0376395 L100.44596,54.8331249 C100.478672,54.9428558 100.579708,55.0960649 100.934987,55.1064168 C101.00124,55.1093154 101.063766,55.1204955 101.126706,55.1370587 C101.093993,55.1287771 101.079915,55.1258785 101.079915,55.1258785 C101.175567,55.1370587 101.298962,54.9975142 101.399997,54.7730835 C101.372668,54.838922 113.528362,15.4294406 113.528362,15.4294406 C113.662523,15.0161901 114.097306,14.7813247 114.515939,14.9014903 L147.596684,20.3081154 C147.853412,20.3797925 148.058381,20.5735813 148.146166,20.8276599 L174.286124,105.763144 C174.346165,105.923807 175.943681,110.092337 181.552376,111.636436 C181.831465,111.713869 182.0472,111.931674 182.123805,112.210349 L193.68985,146.568526 C193.75279,146.804137 193.705999,147.052998 193.566455,147.251342 C193.421527,147.447201 193.200409,147.571425 192.95983,147.588402" id="path20" fill="#15356F"></path>
                        <polygon id="path22" fill="#133A72" points="143.107955 49.6377545 143.099955 49.6377545 143.073288 49.6124211"></polygon>
                        <path d="M186.882811,75.1678242 L186.882811,75.1738242 L186.888811,75.1478242 L186.882811,75.1678242 Z M198.018629,77.1010333 C197.302273,77.5585902 196.405378,77.7813645 195.270388,77.7813645 L189.262107,77.7813645 C188.105171,77.7813645 187.101445,76.9884039 186.828153,75.8650085 L186.746165,75.5113853 C185.851755,77.5987558 184.202894,77.7813645 182.580948,77.7813645 L175.18012,77.7813645 C174.0207,77.7813645 173.014488,76.9867476 172.743681,75.8596254 L172.680741,75.5917165 C172.472459,75.8538283 172.250927,76.1018615 172.00248,76.315112 L171.933743,76.368114 C170.386331,77.6111782 168.444302,77.7813645 166.579292,77.7813645 L151.252998,77.7813645 C150.590887,77.7813645 149.978464,77.5117993 149.527118,77.0790871 L149.494406,77.1010333 C148.77805,77.5585902 147.880742,77.7813645 146.745752,77.7813645 L139.460038,77.7813645 C138.626498,77.7813645 137.871632,77.3693562 137.409106,76.7167683 C137.261694,76.8554846 137.094821,76.983849 136.914282,77.1010333 C136.197926,77.5585902 135.297719,77.7813645 134.165628,77.7813645 L126.87743,77.7813645 C125.717595,77.7813645 124.711384,76.9867476 124.443475,75.8596254 L124.350307,75.4761886 C123.82774,76.1383004 123.154862,76.6774308 122.345339,77.0579691 L122.354034,77.0554846 C121.246374,77.5763956 119.977637,77.7813645 117.830225,77.7813645 L103.891095,77.7813645 C103.185091,77.7813645 102.539542,77.4823997 102.080329,76.9987558 C102.039335,77.0252569 102.006623,77.0567269 101.968113,77.0819857 C101.249687,77.5527931 100.344511,77.7813645 99.1983412,77.7813645 L91.9130412,77.7813645 C91.069977,77.7813645 90.3072441,77.3602465 89.8501013,76.6964784 C89.7072441,76.8314681 89.5494802,76.9581761 89.3797079,77.0716337 C88.6521717,77.5556916 87.7623166,77.7813645 86.579708,77.7813645 L79.2935798,77.7813645 C78.6248428,77.7813645 78.0120063,77.5105571 77.5598324,77.0716337 C77.0960643,77.5167682 76.4848842,77.7813645 75.8368511,77.7813645 L66.4095221,77.7813645 C64.2641806,77.7813645 63.0650088,77.6492734 61.6832283,76.8795012 C59.8720482,75.9196668 58.3875762,73.9250499 57.4989634,71.2587974 L57.4902677,71.2314682 C57.4662512,71.1544496 57.4434768,71.0728761 57.4202884,70.998756 L54.7291912,70.998756 L54.6277419,73.0691493 L54.6314686,73.0227725 C54.5917171,74.3080727 54.5536218,75.0161472 54.1391291,75.8401637 L54.0165618,76.0567269 C52.9213237,77.7813645 51.0082803,77.7813645 50.2890257,77.7813645 L40.2228975,77.7813645 C39.4783427,77.7813645 38.798674,77.4484453 38.3344504,76.9151119 C37.7245125,77.4128345 36.8035187,77.7813645 35.4038915,77.7813645 L28.9436018,77.7813645 C28.0247198,77.7813645 27.2014072,77.2811575 26.7653409,76.5113853 C26.3352374,77.2699774 25.519047,77.7813645 24.5872044,77.7813645 L17.902277,77.7813645 C16.9324219,77.7813645 16.0479913,77.2198738 15.635983,76.3407848 L14.0963143,73.0558988 C14.0893578,74.2587973 13.9889023,75.4977207 13.1560659,76.4857124 C12.0614904,77.7813645 10.4608279,77.7813645 9.60144904,77.7813645 L2.72758171,77.7813645 C1.5697805,77.7813645 0.562078661,76.9867476 0.293413657,75.8596254 L0.0684198741,74.9209091 C-0.0936529997,74.2426482 0.0349378873,73.5233936 0.425399575,72.9436835 C0.71735816,72.5055882 1.13855484,72.1747394 1.62396683,71.9946152 L2.33016143,52.2786736 L2.33016143,52.2654231 C2.37674528,51.1246364 2.51002892,49.8231872 3.49783428,48.8360236 C4.61035185,47.7225661 6.14728763,47.7225661 6.97171825,47.7225661 L12.418302,47.7225661 C13.4015732,47.7225661 14.294451,48.2997918 14.6989644,49.1937876 L15.5737056,51.127535 C15.6667491,50.364388 15.8842646,49.6480319 16.4018629,49.0190464 C17.4703929,47.7225661 19.0461693,47.7225661 19.8919664,47.7225661 L25.6393782,47.7225661 C26.6011588,47.7225661 27.4796266,48.274947 27.8975976,49.1449263 L28.0221111,49.4016551 C28.582608,48.4583839 29.6745748,47.7225661 31.5096058,47.7225661 L38.0821523,47.7225661 C39.2774731,47.7225661 40.3028147,48.5623176 40.5374731,49.732918 L40.7252992,50.6732907 C40.8245953,51.1689428 40.7534151,51.6472037 40.5797091,52.0824004 L42.8650093,52.0824004 L42.8662515,52.033125 L42.8662515,52.0463755 C42.8836428,51.2534149 42.9184254,49.7763963 44.0389223,48.7316758 C45.0339533,47.7991706 46.2944088,47.7225661 47.3979284,47.7225661 L54.3453403,47.7225661 C54.7797088,47.7225661 55.191303,47.8322969 55.549481,48.0343673 C56.3788806,47.7527938 57.2012408,47.7225661 58.2583836,47.7225661 L65.6960646,47.7225661 C68.7122136,47.7225661 71.0505158,48.2041396 73.0587973,50.4190464 C73.2799154,49.595858 73.7734971,48.8985495 74.4915095,48.4256717 C75.2111782,47.9523798 76.1180105,47.7225661 77.2633521,47.7225661 L84.5507225,47.7225661 C85.3875755,47.7225661 86.1457535,48.1383011 86.6024823,48.7946158 C86.7474098,48.6608683 86.9043457,48.5374729 87.0732897,48.4256717 C87.7929585,47.9523798 88.701033,47.7225661 89.8476168,47.7225661 L97.1693557,47.7225661 C97.8732895,47.7225661 98.5142833,48.0207027 98.9730824,48.4989636 C99.0173888,48.4691499 99.0583826,48.4335392 99.102689,48.4037255 C99.8256704,47.9469967 100.730018,47.7225661 101.86418,47.7225661 L115.197099,47.7225661 C118.415732,47.7225661 120.351964,48.7453404 121.880742,51.2534149 L121.886125,51.2612824 C121.990059,51.4364376 122.088196,51.6335391 122.192544,51.8252575 C122.774738,50.6356095 123.710142,49.6480319 124.992958,48.9180112 C126.898962,47.8347814 129.565628,47.3097297 133.151135,47.3097297 C137.669148,47.3097297 140.732088,48.0236013 143.078671,49.6202886 C143.797926,50.1018621 144.372253,50.6240153 144.85921,51.1900608 C144.929603,50.0252575 145.498961,49.0161478 146.461694,48.40621 C147.183847,47.9469967 148.088609,47.7225661 149.224013,47.7225661 L156.512211,47.7225661 C157.668733,47.7225661 158.675358,48.5184253 158.94658,49.6426489 L159.079913,50.2057958 C159.320493,49.6318828 159.645959,49.0708062 160.16894,48.6140775 C161.199582,47.7225661 162.405793,47.7225661 163.201652,47.7225661 L166.691507,47.7225661 C167.795855,47.7225661 168.952791,47.8322969 169.93747,48.6385081 C169.959416,48.6550712 169.975979,48.6741189 169.995441,48.6935806 C170.12629,48.5838497 170.262936,48.479916 170.411176,48.3842638 C171.130016,47.9387152 172.024426,47.7225661 173.151134,47.7225661 L179.159002,47.7225661 C180.356931,47.7225661 181.385503,48.5677006 181.617801,49.7407855 L181.801238,50.6790878 C181.897304,51.1544501 181.848029,51.6418207 181.670389,52.0824004 L181.891507,52.0824004 L182.334157,50.8952368 C182.629395,50.0881975 183.002066,49.0790878 183.994612,48.3979284 C184.976393,47.7225661 186.062107,47.7225661 186.934571,47.7225661 L191.742438,47.7225661 C192.907242,47.7225661 193.922148,48.5296054 194.184674,49.6674936 L199.440989,72.6865406 C199.553204,73.1565199 199.619043,73.6766027 199.619043,74.1142839 C199.619043,75.3639733 199.036434,76.4530002 198.018629,77.1010333 Z" id="path24" fill="#15356F"></path>
                        <path d="M37.0181357,74.3354019 C37.0181357,74.9755675 36.5691502,75.2761886 35.404554,75.2761886 L28.9431463,75.2761886 L28.7194196,74.3354019 C29.5077839,74.2616959 29.846169,73.9606607 29.846169,73.3975137 C29.846169,72.9842632 29.694285,72.4596255 29.3204962,71.6687353 L24.8133327,61.9051744 L24.5883638,75.2761886 L17.9017801,75.2761886 L11.6307658,61.9051744 L11.5924221,72.9105572 C11.5924221,74.9755675 11.3297306,75.2761886 9.60273268,75.2761886 L2.72871215,75.2761886 L2.50371836,74.3354019 C3.7050351,74.1469961 4.04211998,73.6981348 4.11862516,72.3117994 L4.8311386,52.3660442 C4.90683218,50.5229801 5.20654231,50.2248435 6.97316753,50.2248435 L12.4176808,50.2248435 L18.1279084,62.8434767 L18.0145337,52.5142844 C18.0145337,50.4902679 18.2399995,50.2248435 19.8925875,50.2248435 L25.6398751,50.2248435 L36.6812413,73.2852984 C36.9076595,73.7366441 37.0181357,74.1109712 37.0181357,74.3354019" id="path26" fill="#FFFFFF"></path>
                        <path d="M40.7493986,60.4778453 L44.8803301,69.604139 L45.1436842,60.4778453 L40.7493986,60.4778453 Z M53.1060028,52.8149055 L52.1304335,72.9490665 C52.0944086,74.1469961 52.0538289,74.4120064 51.9026902,74.7130416 C51.6409925,75.1283625 51.2289842,75.2761886 50.2890257,75.2761886 L40.2228975,75.2761886 L39.9978872,74.3383004 C40.7117174,74.2616959 41.0864586,73.9631451 41.0864586,73.4741182 C41.0864586,73.1759816 40.8990052,72.7217373 40.4874938,71.8600396 L30.3446783,52.2161478 C30.1195438,51.8004128 30.0443057,51.5022761 30.0443057,51.2041395 C30.0443057,50.5229801 30.4949475,50.227742 31.5096058,50.227742 L38.0821523,50.227742 L38.2696057,51.1660443 C37.5194194,51.3134563 37.1810343,51.6144915 37.1810343,52.1776384 C37.1810343,52.4401643 37.2931254,52.7792947 37.4831875,53.1921312 L38.7957754,56.1242222 L45.2558995,56.1242222 L45.3685289,52.1035184 C45.4053819,50.4902679 45.6687359,50.227742 47.3979284,50.227742 L54.3453403,50.227742 L54.5697709,51.1660443 C53.5942016,51.349067 53.180537,51.8004128 53.1060028,52.8149055 Z" id="path28" fill="#FFFFFF"></path>
                        <path d="M66.4095221,75.2761886 C64.4575553,75.2761886 63.7436837,75.1668718 62.8790875,74.6745323 C61.6393359,74.0372652 60.549895,72.4977208 59.8745327,70.4683212 C59.3105575,68.7014476 58.8600399,66.45093 58.8600399,65.397928 C58.8600399,63.5954435 59.8368515,62.4306403 62.4298121,61.1917169 L64.9080729,60.0650089 C66.3345739,59.4633526 66.7482385,58.976396 66.7482385,58.0385079 C66.7482385,57.286541 66.4095221,56.5751539 65.8472033,56.1950297 C65.2824,55.8202885 64.8318824,55.7084872 62.9913028,55.7084872 L60.1743256,55.7084872 C58.0343671,55.7084872 57.4712201,55.970599 57.4712201,57.2099365 L56.4186321,57.2099365 L55.5196673,53.307245 C55.4430628,52.9300194 55.2550711,52.0273279 55.2550711,51.8004128 C55.2550711,51.1246364 55.6683216,50.6405784 56.3051746,50.4111789 C56.7200814,50.2604542 57.1685286,50.2248435 58.2583836,50.2248435 L65.6952365,50.2248435 C68.8894393,50.2248435 70.3552777,50.8240153 71.7809506,52.8149055 C72.983435,54.4314686 74.2223584,58.6376797 74.2223584,61.0414063 C74.2223584,62.1681144 73.8840561,63.1089011 73.2070375,63.7817789 C72.7204951,64.2737044 71.9689423,64.7196671 70.4264993,65.4335387 L67.98799,66.5627313 C66.7482385,67.1267064 66.4467892,67.4654227 66.4467892,68.2530004 C66.4467892,69.1556919 66.8227727,69.8666649 67.4997913,70.2057953 C67.951137,70.430226 68.4389217,70.5068305 69.7904744,70.5068305 L72.983435,70.5068305 C74.5233936,70.5068305 74.8244288,70.8049672 75.2356089,72.4977208 L75.8376793,75.2761886 L66.4095221,75.2761886" id="path30" fill="#FFFFFF"></path>
                        <path d="M96.1929583,52.327949 C96.1929583,52.5552782 96.2310535,52.7411995 96.3830204,53.380951 L100.92712,73.2443046 C101.00124,73.5863336 101.039335,73.8513439 101.039335,74.0753605 C101.039335,74.9014474 100.475774,75.2761886 99.1979271,75.2761886 L91.9134553,75.2761886 L91.6873683,74.3354019 C92.4749459,74.1875758 92.8501012,73.8078656 92.8501012,73.1759816 C92.8501012,72.9490665 92.8136623,72.7602466 92.7006188,72.120081 L91.312213,66.1093151 L86.6915092,66.1093151 L88.3076582,73.2443046 C88.3821924,73.5863336 88.4207017,73.8513439 88.4207017,74.0753605 C88.4207017,74.9014474 87.8948218,75.2761886 86.5792939,75.2761886 L79.294408,75.2761886 L79.0674928,74.3354019 C79.8952361,74.1875758 80.2691491,73.8078656 80.2691491,73.1759816 C80.2691491,72.9490665 80.231468,72.7602466 80.0815715,72.120081 L75.5378863,52.2513444 C75.4612818,51.9151126 75.425671,51.6144915 75.425671,51.4310546 C75.425671,50.5995847 75.9863335,50.2248435 77.2650084,50.2248435 L84.5498944,50.2248435 L84.7755672,51.1631457 C83.9494803,51.3134563 83.5734969,51.6525867 83.5734969,52.327949 C83.5734969,52.5552782 83.611178,52.7411995 83.7614886,53.380951 L85.6409916,61.6049674 L90.2985485,61.6049674 L88.1188384,52.2513444 C88.0443042,51.9151126 88.0066231,51.6144915 88.0066231,51.4310546 C88.0066231,50.5995847 88.56977,50.2248435 89.8480309,50.2248435 L97.1714261,50.2248435 L97.3585897,51.1631457 C96.5685276,51.3134563 96.1929583,51.6525867 96.1929583,52.327949" id="path32" fill="#FFFFFF"></path>
                        <path d="M115.346995,66.9022758 C114.969769,66.4124207 114.408693,66.1498948 113.660039,66.1498948 L111.294407,66.1498948 L112.267492,70.5068305 L114.258796,70.5068305 C115.686125,70.5068305 116.02567,70.2799154 116.02567,69.2679072 C116.02567,68.2530004 115.798341,67.4269134 115.346995,66.9022758 M113.506829,56.5341601 C112.943268,55.7084872 112.421115,55.4815721 111.102689,55.4815721 L108.849273,55.4815721 L110.315111,61.8318825 L112.155691,61.8318825 C113.958175,61.8318825 114.482813,61.4546568 114.482813,60.2153194 C114.482813,59.6902677 114.146581,57.4720483 113.506829,56.5341601 M121.355691,65.6989632 C122.334573,66.9022758 123.12215,69.5275345 123.12215,71.5598326 C123.12215,73.0583833 122.482399,74.2231866 121.284469,74.7892321 C120.570597,75.1283625 119.630225,75.2761886 117.82774,75.2761886 L103.891095,75.2761886 L103.666664,74.3383004 C104.492337,74.1875758 104.869977,73.8078656 104.869977,73.1759816 C104.869977,72.9490665 104.831467,72.7602466 104.681157,72.1229796 L100.137058,52.2513444 C100.061695,51.9151126 99.986747,51.6144915 99.986747,51.4285701 C99.986747,50.6024832 100.590888,50.2248435 101.86418,50.2248435 L115.197099,50.2248435 C117.5648,50.2248435 118.689024,50.8240153 119.742026,52.5523796 C121.057554,54.7345742 122.069562,58.4898536 122.069562,61.0795016 C122.069562,63.1445119 121.243475,64.1950295 119.29068,64.5337458 C120.231467,64.7606609 120.907243,65.1354021 121.355691,65.6989632" id="path34" fill="#FFFFFF"></path>
                        <path d="M148.58923,74.1109712 C148.58923,74.9014474 148.023185,75.2761886 146.745752,75.2761886 L139.462936,75.2761886 L139.236021,74.3354019 C140.023599,74.1875758 140.439334,73.8078656 140.439334,73.1759816 C140.439334,72.9490665 140.401239,72.7602466 140.24803,72.120081 L137.018216,57.9594188 C136.53126,55.8973071 135.817802,55.2215307 134.089024,55.2215307 C132.850514,55.2215307 132.212833,55.7084872 132.212833,56.7258785 C132.212833,57.0592118 132.248444,57.286541 132.475359,58.339129 L135.891094,73.2443046 C135.968113,73.5122135 136.006208,73.9225654 136.006208,74.1109712 C136.006208,74.9014474 135.442647,75.2761886 134.165628,75.2761886 L126.87743,75.2761886 L126.653413,74.3354019 C127.443475,74.1875758 127.817802,73.8078656 127.817802,73.1759816 C127.817802,72.9490665 127.782606,72.7602466 127.67039,72.120081 L124.476187,58.1859199 C124.213661,57.0592118 123.986332,55.6699779 123.986332,54.9946156 C123.986332,51.5022761 126.918423,49.812007 133.151135,49.812007 C137.245131,49.812007 139.799582,50.4111789 141.678257,51.6906819 C143.404137,52.8558993 144.082398,54.1304334 144.908485,57.6993774 L148.43892,73.0227725 C148.548236,73.4766027 148.58923,73.8513439 148.58923,74.1109712" id="path36" fill="#FFFFFF"></path>
                        <path d="M163.009934,66.3387147 C162.484882,65.6989632 161.809106,65.3950294 160.718422,65.3950294 L158.467905,65.3950294 L159.62981,70.5068305 L161.582191,70.5068305 C163.349478,70.5068305 163.838919,70.1701846 163.838919,69.0024827 C163.838919,67.98799 163.534986,67.014077 163.009934,66.3387147 M167.10393,57.3221518 L165.564799,61.2302262 C167.369354,61.6430626 168.384261,62.2828142 169.35776,63.5954435 C170.669975,65.4364373 171.614074,68.4422343 171.614074,70.993787 C171.614074,72.4596255 171.15983,73.7366441 170.372667,74.4120064 C169.620286,75.0136627 168.570182,75.2761886 166.579292,75.2761886 L151.255897,75.2761886 L151.028982,74.3383004 C151.854655,74.1875758 152.232294,73.8103501 152.232294,73.1759816 C152.232294,72.9490665 152.193371,72.7573481 152.04306,72.1229796 L147.498133,52.2513444 C147.424427,51.917597 147.350307,51.6144915 147.350307,51.4285701 C147.350307,50.6024832 147.949065,50.2248435 149.228982,50.2248435 L156.512211,50.2248435 L156.739541,51.1660443 C155.91304,51.3134563 155.532915,51.6501022 155.532915,52.327949 C155.532915,52.5167689 155.573909,52.7411995 155.647615,53.0418206 L157.529603,61.2302262 L158.24099,61.2302262 L161.095648,52.0273279 C161.621114,50.3755681 161.771425,50.2248435 163.201652,50.2248435 L166.693992,50.2248435 C168.343267,50.2248435 168.681983,50.5258787 169.056725,52.1366447 L169.847201,55.4815721 L169.28364,55.4815721 C167.894406,55.4815721 167.782605,55.5962719 167.10393,57.3221518" id="path38" fill="#FFFFFF"></path>
                        <path d="M195.273287,75.2761886 L189.262107,75.2761886 L189.037676,74.3383004 C189.866662,74.1875758 190.23809,73.8078656 190.23809,73.1759816 C190.23809,72.9490665 190.200409,72.7602466 190.052169,72.1229796 L188.250099,64.2356092 L184.527946,74.2997911 C184.230223,75.1668718 184.005793,75.2761886 182.580948,75.2761886 L175.18012,75.2761886 L174.956103,74.3383004 C175.781362,74.1875758 176.154033,73.8078656 176.154033,73.1759816 C176.154033,72.9490665 176.118422,72.7602466 175.967697,72.1229796 L171.42277,52.2513444 C171.34865,51.9917171 171.27453,51.6144915 171.27453,51.3900608 C171.27453,50.6024832 171.874116,50.2248435 173.151134,50.2248435 L179.159002,50.2248435 L179.348236,51.1631457 C178.55776,51.3134563 178.183018,51.6525867 178.183018,52.327949 C178.183018,52.5523796 178.224012,52.7411995 178.371838,53.380951 L180.551548,62.881986 L184.680741,51.764802 C185.206207,50.3374729 185.356517,50.2248435 186.934571,50.2248435 L191.742438,50.2248435 L197.00455,73.2443046 C197.075357,73.5478242 197.116351,73.8869547 197.116351,74.1109712 C197.116351,74.9014474 196.550306,75.2761886 195.273287,75.2761886" id="path40" fill="#FFFFFF"></path>
                        <path d="M162.329188,24.7361899 L161.051756,24.7361899 L161.051756,25.9263348 L162.329188,25.9263348 C162.660037,25.9263348 162.925048,25.6609103 162.925048,25.332546 C162.925048,25.001283 162.660037,24.7361899 162.329188,24.7361899 M163.948236,25.332546 C163.948236,26.2268731 163.226083,26.9511795 162.329188,26.9511795 L160.026083,26.9511795 L160.026083,21.5010347 L161.051756,21.5010347 L161.051756,23.713457 L161.785089,23.713457 L162.819044,21.5010347 L163.948236,21.5010347 L162.873288,23.8066247 C163.499789,24.0306412 163.948236,24.6323389 163.948236,25.332546" id="path42" fill="#133A72"></path>
                        <path d="M161.990472,20.4724633 C159.914282,20.4724633 158.234779,22.1519249 158.234779,24.2273286 C158.234779,26.2977219 159.914282,27.9768523 161.990472,27.9768523 C164.060451,27.9768523 165.742025,26.2977219 165.742025,24.2273286 C165.742025,22.1519249 164.060451,20.4724633 161.990472,20.4724633 M161.990472,29.0024837 C159.350721,29.0024837 157.212418,26.8638503 157.212418,24.2273286 C157.212418,21.5859622 159.350721,19.4468318 161.990472,19.4468318 C164.626497,19.4468318 166.764799,21.5859622 166.764799,24.2273286 C166.764799,26.8638503 164.626497,29.0024837 161.990472,29.0024837" id="path44" fill="#133A72"></path>
                    </g>
                </g>
            </g>
        </g>
    </g>
</svg>