<?xml version="1.0" encoding="UTF-8"?>
<svg width="200px" height="200px" viewBox="0 0 200 200" version="1.1" xmlns="http://www.w3.org/2000/svg" xmlns:xlink="http://www.w3.org/1999/xlink">
    <!-- Generator: Sketch 51.3 (57544) - http://www.bohemiancoding.com/sketch -->
    <title>wesleyan-ga</title>
    <desc>Created with Sketch.</desc>
    <defs>
        <polygon id="path-1" points="0 0.113802817 199.69418 0.113802817 199.69418 199.647887 0 199.647887"></polygon>
    </defs>
    <g id="wesleyan-ga" stroke="none" stroke-width="1" fill="none" fill-rule="evenodd">
        <g id="wesleyan-ga_BGL">
            <g id="Group-52">
                <path d="M30.6866314,61.8573944 C30.6866314,61.8573944 21.8277249,69.8362676 16.0502998,77.1521127 C10.2728748,84.4679577 6.58892416,95.1714789 6.58892416,95.1714789 C6.58892416,95.1714789 13.4083245,91.2091549 16.0210229,90.2475352 L18.6337213,89.2855634 C18.6337213,89.2855634 13.4086772,94.2461268 9.74835979,101.154225 C6.08804233,108.062324 4.46088183,117.216197 4.46088183,117.216197 C4.46088183,117.216197 10.7578836,111.624648 13.2778131,110.565141 C15.7977425,109.50493 15.8012698,109.410563 15.8012698,109.410563 C15.8012698,109.410563 12.6012698,115.859155 11.0002116,124.164085 C9.39915344,132.469366 11.2816931,139.554577 11.2816931,139.554577 C11.2816931,139.554577 14.8961552,134.160915 17.4651146,131.583099 C20.0344268,129.004225 21.0086772,128.465845 21.0086772,128.465845 C21.0086772,128.465845 19.8435979,135.075704 19.6287831,141.905986 C19.4139683,148.734155 21.1469489,154.486268 21.1469489,154.486268 C21.1469489,154.486268 26.1360141,147.995423 30.8139683,145.294014 L35.4922751,142.591901 C35.4922751,142.591901 36.0361905,149.635211 38.0263139,153.305986 C40.0157319,156.977465 42.2446561,159.135211 42.2446561,159.135211 C42.2446561,159.135211 43.0150265,152.892254 45.9723457,150.137324 C46.2379541,149.890493 46.5183774,149.646479 46.80903,149.407746 C46.7578836,150.448239 46.7945679,151.719718 47.0577072,153.072183 C47.7166138,156.456338 49.9413051,158.706338 49.9413051,158.706338 C49.9413051,158.706338 52.4026808,153.421831 56.4361905,152.911972 C58.8361905,152.608451 61.7504762,153.190493 64.1829277,154.281338 C65.9300176,156.194366 67.4827513,158.216197 68.4330159,160.145775 C71.8506526,167.089437 69.6640564,175.755986 67.5674074,181.577113 C65.4704056,187.398239 69.333545,187.265493 74.3349559,192.548239 C79.3363668,197.832394 97.5497707,196.034507 97.5497707,196.034507 C97.5497707,196.034507 115.380106,198.962676 120.703915,194.002113 C126.027019,189.041549 130.108148,189.423944 128.381164,183.482746 C126.65418,177.541901 125.01679,168.755986 128.864409,162.039085 C129.894039,160.242254 131.48769,158.394718 133.268289,156.652817 C135.861235,155.581338 139.037954,155.097183 141.570229,155.579577 C145.563527,156.341197 147.68769,161.77007 147.68769,161.77007 C147.68769,161.77007 150.049594,159.663028 150.919436,156.327817 C151.240071,155.099648 151.364233,153.927465 151.393157,152.936268 C151.570935,153.107746 151.743422,153.28169 151.908854,153.457042 C154.688042,156.392254 155.064409,162.67007 155.064409,162.67007 C155.064409,162.67007 157.42455,160.65669 159.640776,157.116901 C161.857354,153.578521 162.84254,146.582042 162.84254,146.582042 L167.343069,149.572535 C171.841834,152.561972 176.41291,159.351761 176.41291,159.351761 C176.41291,159.351761 178.503915,153.720423 178.717672,146.891549 C178.933192,140.06162 178.18575,133.391549 178.18575,133.391549 C178.18575,133.391549 179.123668,133.990493 181.525432,136.724648 C183.927549,139.458099 187.196332,145.06831 187.196332,145.06831 C187.196332,145.06831 189.520494,138.114085 188.444656,129.725 C187.368818,121.335563 184.579753,114.699296 184.579753,114.699296 C184.579753,114.699296 184.576931,114.794718 187.026667,116.009859 C189.474286,117.225352 195.407619,123.2 195.407619,123.2 C195.407619,123.2 194.359295,113.962676 191.140247,106.838732 C187.920847,99.715493 183.018201,94.4369718 183.018201,94.4369718 L185.564233,95.5605634 C188.112028,96.6841549 194.669347,101.065493 194.669347,101.065493 C194.669347,101.065493 191.664762,90.1524648 186.358236,82.4894366 C181.052063,74.8260563 172.711323,66.3084507 172.711323,66.3084507 C189.207619,34.4640845 179.025608,9.05528169 179.025608,9.05528169 L175.066173,10.2598592 C171.107795,11.4644366 161.366702,14.006338 148.659471,16.6447183 C135.951534,19.2830986 123.300035,32.2676056 123.300035,32.2676056 C123.300035,32.2676056 121.592451,31.834507 116.041834,31.9454225 C110.49157,32.0556338 101.13284,34.0003521 101.13284,34.0003521 C101.13284,34.0003521 91.9152028,31.4735915 86.3822222,31.0158451 C80.8492416,30.5577465 79.117672,30.8830986 79.117672,30.8830986 C79.117672,30.8830986 67.3077954,17.1320423 54.7906878,13.703169 C42.2732275,10.2739437 32.712381,7.12711268 28.8365432,5.67746479 L24.9610582,4.22711268 C24.9610582,4.22711268 16.2241975,29.0433099 30.6866314,61.8573944" id="Fill-1" fill="#231F20"></path>
                <g id="Group-5" transform="translate(0.000000, 0.238380)">
                    <mask id="mask-2" fill="white">
                        <use xlink:href="#path-1"></use>
                    </mask>
                    <g id="Clip-4"></g>
                    <path d="M97.6471252,192.779296 L98.0365432,192.843028 C104.840423,193.955704 115.73672,194.297606 118.65806,191.575775 C120.459118,189.897254 122.107795,188.788099 123.43231,187.896901 C126.09157,186.107113 126.09157,186.107113 125.501799,184.078592 C122.630899,174.201831 122.886631,166.206761 126.261587,160.314859 C127.332134,158.446549 128.983633,156.415563 131.169877,154.276479 L131.585044,153.870845 L132.121552,153.649014 C135.39351,152.296549 139.135661,151.831056 142.132487,152.401127 C144.585397,152.869085 146.462646,154.394437 147.811499,155.997606 C147.889101,155.784577 147.958589,155.563451 148.018201,155.33493 C148.241481,154.479648 148.368466,153.563099 148.396332,152.610634 L148.594215,145.832465 L153.47746,150.546549 C153.689453,150.751127 153.895097,150.958521 154.091922,151.167324 C155.317319,152.461338 156.167407,154.151479 156.75612,155.823662 C156.870406,155.651127 156.984691,155.474014 157.098272,155.292324 C158.63231,152.844085 159.641129,147.578592 159.87358,145.926831 L160.53672,141.216268 L169.004444,146.843028 C171.182222,148.289507 173.324727,150.464155 175.057002,152.469085 C175.38328,150.73 175.653474,148.702535 175.720847,146.559577 C175.926843,140.03669 175.213263,133.55007 175.206208,133.485282 L174.510265,127.253592 L179.801623,130.632113 C180.191393,130.881056 181.358942,131.757113 183.779753,134.512746 C184.368113,135.182817 184.995626,135.996197 185.615026,136.855704 C185.779048,134.783169 185.793862,132.389155 185.470406,129.86662 C184.533898,122.560282 182.196684,116.56662 181.855591,115.718732 C181.660176,115.30993 181.568818,114.86169 181.582928,114.374718 L187.34448,113.303239 C187.35224,113.321901 187.371993,113.369085 187.401975,113.442676 C187.1406,112.720845 186.643951,112.23493 186.304974,112.021901 C186.343069,112.046197 186.725079,112.279648 188.361058,113.09162 C189.035838,113.426479 189.868289,114.000775 190.75612,114.691268 C190.163527,112.427535 189.391746,110.00993 188.407266,107.831056 C185.423845,101.23 180.865467,96.2828169 180.819612,96.2338732 L184.230547,91.461338 L186.776578,92.5845775 C187.382222,92.8521831 188.160705,93.2641549 189.012557,93.7490141 C187.712381,90.5828169 185.983986,86.973662 183.891922,83.9528873 C178.789277,76.5835211 170.648889,68.245493 170.567407,68.1620423 L169.053122,66.6159155 L170.048183,64.6951408 C178.204092,48.9507746 179.457002,34.9162676 179.071817,25.9148592 C178.813616,19.883169 177.807266,15.2349296 177.066878,12.5416197 L175.9406,12.8845775 C172.425608,13.9539437 162.853122,16.5162676 149.270053,19.336338 C137.595626,21.7606338 125.569171,33.9926761 125.448889,34.1159155 L124.182222,35.4162676 L122.589982,34.9384507 C122.329312,34.8912676 120.564233,34.6085211 116.101799,34.6993662 C110.897566,34.8028873 101.83478,36.6733099 101.743774,36.6919718 L101.036543,36.8388028 L100.339189,36.6479577 C100.249594,36.623662 91.3226102,34.189507 86.1346032,33.7602817 C81.6841623,33.3919718 79.9053263,33.5623944 79.6428924,33.5926761 L77.9014462,33.995493 L76.8414815,32.5926761 C76.7300176,32.4634507 65.4629982,19.4919718 53.997037,16.3507746 C40.6252557,12.6877465 31.2287831,9.53 27.7846914,8.24161972 L26.9899824,7.94443662 C26.3674074,10.6528873 25.5783422,15.1116901 25.3875132,20.8750704 C25.0880423,29.9078169 26.240776,44.0997183 33.4308995,60.4138028 L34.3028571,62.3923239 L32.6954497,63.8409155 C32.6086772,63.9190845 23.9529453,71.7412676 18.4051499,78.7666197 C16.1219048,81.6574648 14.1702293,85.1493662 12.6753439,88.2247183 C13.5571781,87.7937324 14.3614109,87.4303521 14.9836332,87.2011268 L17.5959788,86.2391549 L20.6996825,91.2159155 C20.6531217,91.2602817 15.7698765,95.9528873 12.3988007,102.315211 C11.2767549,104.432817 10.3540035,106.796901 9.62067019,109.01662 C10.5508289,108.382113 11.4185538,107.860986 12.1137919,107.56838 C13.7991534,106.859577 14.1949206,106.650423 14.2344268,106.628944 C13.8831041,106.819789 13.3571781,107.272606 13.0502998,107.97507 C13.0838095,107.905704 13.105679,107.861338 13.1144974,107.843732 L18.7973898,109.281056 C18.7734039,109.94338 18.6199647,110.444085 18.3159083,110.864155 C17.6524162,112.296549 15.2351323,117.795493 13.9444797,124.49162 C13.4629982,126.988099 13.3279012,129.378239 13.3614109,131.456761 C14.0333686,130.638099 14.7106173,129.865211 15.3395414,129.233873 C17.9293122,126.634225 19.1508289,125.833169 19.5557672,125.609225 L25.0464198,122.573662 L23.9614109,128.745493 C23.9501235,128.809577 22.8308995,135.238803 22.6256085,141.761338 C22.5582363,143.904648 22.7007407,145.945141 22.917672,147.701479 C24.7726984,145.808873 27.0485362,143.772254 29.3127337,142.464859 L38.1155556,137.380704 L38.4816931,142.123662 C38.6213757,143.908873 39.2859259,149.102887 40.6629982,151.643028 C40.765291,151.831761 40.8682892,152.015915 40.9716402,152.195845 C41.6651146,150.562746 42.6210229,148.927183 43.926843,147.710986 C44.2305467,147.427887 44.5585891,147.141972 44.9032099,146.858873 L50.1360141,142.557465 L49.803739,149.315915 C49.7532981,150.340211 49.819612,151.331408 50.0009171,152.263099 C50.046067,152.494789 50.1017989,152.719789 50.1656437,152.937746 C51.6125573,151.422254 53.5818695,150.017676 56.0594709,149.704296 C58.9183774,149.344085 62.3271958,149.929648 65.4118519,151.313099 L65.9794004,151.567676 L66.398448,152.026831 C68.5508289,154.383521 70.1409524,156.590915 71.1236684,158.587042 C74.1219048,164.678592 73.8742857,172.673662 70.3885714,182.351479 C69.647478,184.408873 69.647478,184.408873 72.1497707,186.377887 C73.3628219,187.332465 74.8728748,188.520141 76.5141446,190.254296 C79.2601764,193.155704 90.2968607,193.500775 97.2555908,192.817676 L97.6471252,192.779296 Z M108.454885,199.647958 C108.000917,199.647958 107.538131,199.642676 107.064762,199.632465 C102.609383,199.535282 98.6802822,198.994437 97.452769,198.810282 C96.2069136,198.91662 92.2009171,199.207465 87.6954497,199.02507 C79.9060317,198.707465 74.8227866,197.183521 72.1554145,194.365563 C70.8160847,192.95007 69.5525926,191.956056 68.4376014,191.078944 C65.6746384,188.904648 62.5434215,186.440563 64.7458907,180.326127 C67.6608818,172.232817 67.9959788,165.807113 65.7420106,161.227183 C65.0697002,159.86169 63.9458907,158.286338 62.3980952,156.538451 C60.4922751,155.783521 58.3998589,155.442676 56.8125573,155.642676 C55.024903,155.868732 53.2122046,158.544085 52.6598236,159.73 L50.8397178,163.637042 L47.8072663,160.570141 C47.624903,160.385634 46.5469489,159.258169 45.5663492,157.428239 C45.3938624,158.14831 45.2781658,158.794085 45.2203175,159.262394 L44.4831041,165.233521 L40.1571781,161.045141 C40.052769,160.944085 37.5726984,158.521197 35.3892769,154.49162 C34.25806,152.405352 33.5473016,149.572606 33.1137919,147.185282 L32.3155556,147.646197 C28.900388,149.61838 24.8125573,154.395493 23.5257848,156.069789 L19.9617637,160.706761 L18.2756966,155.110282 C18.1991534,154.856056 16.4047972,148.807113 16.6323104,141.573662 C16.6859259,139.863099 16.7963316,138.172606 16.9328395,136.592324 C15.2661728,138.760282 13.7959788,140.947254 13.7734039,140.980704 L10.0841623,146.483521 L8.38363316,140.083521 C8.29968254,139.766972 6.34518519,132.235282 8.05594356,123.360282 C8.54589065,120.818732 9.17587302,118.448662 9.8238448,116.363803 C8.68239859,117.285282 7.50003527,118.285634 6.45347443,119.214155 L-0.000141093474,124.942676 L1.50885362,116.454648 C1.57869489,116.062042 3.26194004,106.756056 7.09791887,99.5166197 C7.48204586,98.7919718 7.88134039,98.0884507 8.28945326,97.408169 C8.2217284,97.4476056 8.15753086,97.4845775 8.0972134,97.5197887 L1.13671958,101.564155 L3.75365079,93.9606338 C3.91061728,93.5039437 7.67216931,82.6884507 13.6958025,75.0606338 C18.142716,69.4296479 24.2432451,63.5275352 27.0968607,60.855 C13.5092063,28.3296479 21.7667019,4.03422535 22.1324868,2.9965493 L23.1469489,0.113802817 L29.8891005,2.63633803 C33.2383069,3.88915493 42.419612,6.97190141 55.5839859,10.5785915 C66.7846914,13.6469014 77.1300176,24.0528873 80.3681129,27.555 C81.6256085,27.5166197 83.6174956,27.545493 86.630194,27.7947887 C91.5328395,28.2004225 98.926843,30.0807042 101.229489,30.6888028 C103.565996,30.2257746 111.064056,28.8120423 115.982222,28.714507 C119.004092,28.655 120.993862,28.7507746 122.245714,28.8673239 C125.697919,25.5750704 136.677108,15.8370423 148.048889,13.4761268 C161.421728,10.6993662 170.774109,8.19866197 174.192099,7.15852113 L180.786102,5.1521831 L181.809383,7.70535211 C181.920847,7.98387324 184.54836,14.6490141 185.049594,25.3623944 C185.490511,34.7873944 184.297566,49.2655634 176.339189,65.5292958 C179.018201,68.373662 184.738836,74.648662 188.82455,80.5493662 C194.357178,88.5388028 197.43231,99.5683803 197.560353,100.034225 L199.694392,107.785634 L193.001623,103.314507 C192.943422,103.275423 192.881693,103.234577 192.81679,103.191268 C193.181164,103.895493 193.535661,104.622254 193.873228,105.369437 C197.24642,112.835282 198.342011,122.228592 198.38716,122.624718 L199.359295,131.189507 L193.278519,125.068732 C192.292628,124.076479 191.174815,123.003944 190.094039,122.013451 C190.609735,124.134577 191.089453,126.539507 191.418907,129.106761 C192.568466,138.071197 190.144127,145.466972 190.040776,145.777535 L187.940952,152.058873 L184.604444,146.335282 C184.584339,146.30007 183.254885,144.025423 181.727901,141.757465 C181.764938,143.34338 181.768113,145.037042 181.714497,146.747606 C181.48769,153.980704 179.316261,159.905 179.224198,160.153592 L177.18963,165.632817 L173.924374,160.782817 C172.741305,159.028944 168.95224,153.999014 165.681693,151.825775 L164.913086,151.314859 C164.33037,153.670845 163.442892,156.454296 162.182928,158.465563 C159.750476,162.35007 157.122963,164.612394 157.012557,164.706761 L152.431605,168.614507 L152.071817,162.610282 C152.044303,162.178239 151.988219,161.664155 151.902152,161.108521 C150.878166,162.66838 149.866878,163.601831 149.685573,163.763451 L146.466173,166.635986 L144.895097,162.620845 C144.388571,161.357113 142.765291,158.616268 141.007619,158.280704 C139.316614,157.958521 136.98963,158.232465 134.939189,158.976831 C133.364938,160.562746 132.198095,162.010634 131.466878,163.28669 C128.929665,167.71662 128.859824,174.151127 131.260529,182.410634 C133.068995,188.630704 129.730018,190.877887 126.784339,192.85993 C125.575168,193.674014 124.204444,194.596197 122.750123,195.951479 C120.084868,198.43493 115.400212,199.647958 108.454885,199.647958 Z" id="Fill-3" fill="#BEBFC1" mask="url(#mask-2)"></path>
                </g>
                <path d="M30.6866314,61.8573944 C30.6866314,61.8573944 21.8277249,69.8362676 16.0502998,77.1521127 C10.2728748,84.4679577 6.58892416,95.1714789 6.58892416,95.1714789 C6.58892416,95.1714789 13.4083245,91.2091549 16.0210229,90.2475352 L18.6337213,89.2855634 C18.6337213,89.2855634 13.4086772,94.2461268 9.74835979,101.154225 C6.08804233,108.062324 4.46088183,117.216197 4.46088183,117.216197 C4.46088183,117.216197 10.7578836,111.624648 13.2778131,110.565141 C15.7977425,109.50493 15.8012698,109.410563 15.8012698,109.410563 C15.8012698,109.410563 12.6012698,115.859155 11.0002116,124.164085 C9.39915344,132.469366 11.2816931,139.554577 11.2816931,139.554577 C11.2816931,139.554577 14.8961552,134.160915 17.4651146,131.583099 C20.0344268,129.004225 21.0086772,128.465845 21.0086772,128.465845 C21.0086772,128.465845 19.8435979,135.075704 19.6287831,141.905986 C19.4139683,148.734155 21.1469489,154.486268 21.1469489,154.486268 C21.1469489,154.486268 26.1360141,147.995423 30.8139683,145.294014 L35.4922751,142.591901 C35.4922751,142.591901 36.0361905,149.635211 38.0263139,153.305986 C40.0157319,156.977465 42.2446561,159.135211 42.2446561,159.135211 C42.2446561,159.135211 43.0150265,152.892254 45.9723457,150.137324 C46.2379541,149.890493 46.5183774,149.646479 46.80903,149.407746 C46.7578836,150.448239 46.7945679,151.719718 47.0577072,153.072183 C47.7166138,156.456338 49.9413051,158.706338 49.9413051,158.706338 C49.9413051,158.706338 52.4026808,153.421831 56.4361905,152.911972 C58.8361905,152.608451 61.7504762,153.190493 64.1829277,154.281338 C65.9300176,156.194366 67.4827513,158.216197 68.4330159,160.145775 C71.8506526,167.089437 69.6640564,175.755986 67.5674074,181.577113 C65.4704056,187.398239 69.333545,187.265493 74.3349559,192.548239 C79.3363668,197.832394 97.5497707,196.034507 97.5497707,196.034507 C97.5497707,196.034507 115.380106,198.962676 120.703915,194.002113 C126.027019,189.041549 130.108148,189.423944 128.381164,183.482746 C126.65418,177.541901 125.01679,168.755986 128.864409,162.039085 C129.894039,160.242254 131.48769,158.394718 133.268289,156.652817 C135.861235,155.581338 139.037954,155.097183 141.570229,155.579577 C145.563527,156.341197 147.68769,161.77007 147.68769,161.77007 C147.68769,161.77007 150.049594,159.663028 150.919436,156.327817 C151.240071,155.099648 151.364233,153.927465 151.393157,152.936268 C151.570935,153.107746 151.743422,153.28169 151.908854,153.457042 C154.688042,156.392254 155.064409,162.67007 155.064409,162.67007 C155.064409,162.67007 157.42455,160.65669 159.640776,157.116901 C161.857354,153.578521 162.84254,146.582042 162.84254,146.582042 L167.343069,149.572535 C171.841834,152.561972 176.41291,159.351761 176.41291,159.351761 C176.41291,159.351761 178.503915,153.720423 178.717672,146.891549 C178.933192,140.06162 178.18575,133.391549 178.18575,133.391549 C178.18575,133.391549 179.123668,133.990493 181.525432,136.724648 C183.927549,139.458099 187.196332,145.06831 187.196332,145.06831 C187.196332,145.06831 189.520494,138.114085 188.444656,129.725 C187.368818,121.335563 184.579753,114.699296 184.579753,114.699296 C184.579753,114.699296 184.576931,114.794718 187.026667,116.009859 C189.474286,117.225352 195.407619,123.2 195.407619,123.2 C195.407619,123.2 194.359295,113.962676 191.140247,106.838732 C187.920847,99.715493 183.018201,94.4369718 183.018201,94.4369718 L185.564233,95.5605634 C188.112028,96.6841549 194.669347,101.065493 194.669347,101.065493 C194.669347,101.065493 191.664762,90.1524648 186.358236,82.4894366 C181.052063,74.8260563 172.711323,66.3084507 172.711323,66.3084507 C189.207619,34.4640845 179.025608,9.05528169 179.025608,9.05528169 L175.066173,10.2598592 C171.107795,11.4644366 161.366702,14.006338 148.659471,16.6447183 C135.951534,19.2830986 123.300035,32.2676056 123.300035,32.2676056 C123.300035,32.2676056 121.592451,31.834507 116.041834,31.9454225 C110.49157,32.0556338 101.13284,34.0003521 101.13284,34.0003521 C101.13284,34.0003521 91.9152028,31.4735915 86.3822222,31.0158451 C80.8492416,30.5577465 79.117672,30.8830986 79.117672,30.8830986 C79.117672,30.8830986 67.3077954,17.1320423 54.7906878,13.703169 C42.2732275,10.2739437 32.712381,7.12711268 28.8365432,5.67746479 L24.9610582,4.22711268 C24.9610582,4.22711268 16.2241975,29.0433099 30.6866314,61.8573944" id="Fill-6" fill="#231F20"></path>
                <path d="M97.5782363,195.147183 L97.6928748,195.166197 C97.8664198,195.194366 115.156014,197.966901 120.102046,193.358803 C121.780705,191.794366 123.352487,190.73662 124.615273,189.886972 C127.481587,187.957746 128.553898,187.235915 127.534145,183.727817 C124.829383,174.422535 125.019506,166.978169 128.098871,161.601761 C129.072416,159.903169 130.603986,158.026408 132.651252,156.024296 L132.773298,155.904577 L132.931323,155.839437 C135.837496,154.63838 139.129912,154.218662 141.735908,154.714789 C144.925679,155.323239 146.989877,158.435211 147.927443,160.211268 C148.62903,159.350352 149.593757,157.917254 150.06642,156.105986 C150.329559,155.096831 150.479471,154.021831 150.51157,152.910563 L150.569771,150.917254 L152.006455,152.303521 C152.194109,152.484859 152.376473,152.66831 152.551076,152.853521 C154.5606,154.976056 155.397637,158.584859 155.733439,160.772887 C156.585644,159.857746 157.762363,158.456338 158.892875,156.650352 C160.983527,153.31338 161.959541,146.527465 161.969418,146.459507 L162.164832,145.074296 L167.831852,148.839789 C171.172945,151.059859 174.481587,155.20493 176.109806,157.407042 C176.729912,155.280986 177.697108,151.314085 177.836085,146.864085 C178.047372,140.174296 177.316861,133.555634 177.309453,133.489789 L177.10381,131.655986 L178.661129,132.650352 C178.768007,132.71831 179.774004,133.395775 182.188466,136.144366 C183.779647,137.954577 185.702046,140.929577 186.878413,142.834155 C187.471358,140.235211 188.27418,135.328521 187.570123,129.836972 C186.613157,122.375 184.257954,116.26338 183.832557,115.202465 C183.70381,115.039437 183.692169,114.887324 183.698166,114.673944 L185.392346,114.359155 C185.321093,114.190845 185.210688,114.074648 185.13873,114.023239 C185.170829,114.046127 185.504868,114.271831 187.418801,115.221831 C189.0897,116.051056 192.163422,118.846479 194.15425,120.744718 C193.614215,117.530634 192.444903,111.867254 190.336261,107.200352 C187.217743,100.300704 182.419506,95.0873239 182.371534,95.0355634 L183.374709,93.6320423 L185.920741,94.7552817 C187.616332,95.503169 190.939436,97.5880282 193.105573,98.9876761 C191.929206,95.3978873 189.338025,88.340493 185.63291,82.9897887 C180.429383,75.475 172.163422,67.0080986 172.080529,66.9235915 L171.635379,66.4690141 L171.927795,65.9038732 C180.341905,49.6623239 181.601869,35.1647887 181.177531,25.8630282 C180.808571,17.7795775 179.139788,12.1091549 178.47806,10.1422535 L175.32321,11.1021127 C171.842787,12.1609155 162.347901,14.7017606 148.838907,17.506338 C136.537672,20.0605634 124.056543,32.7535211 123.932028,32.881338 L123.576825,33.2461268 L123.082998,33.1207746 C123.072063,33.1183099 121.342257,32.7200704 116.059718,32.8253521 C110.655838,32.9327465 101.405397,34.8426056 101.312628,34.8623239 L101.104515,34.9052817 L100.899577,34.8489437 C100.808219,34.8242958 91.6964021,32.3390845 86.3094533,31.8933099 C81.0452557,31.4573944 79.2918166,31.7464789 79.2745326,31.7492958 L78.7803527,31.8348592 L78.4484303,31.4559859 C78.3316755,31.3204225 66.6639506,17.868662 54.557425,14.5517606 C41.2583069,10.9088028 31.9380247,7.77746479 28.5270899,6.50176056 L25.5267372,5.37887324 C24.9387302,7.40950704 23.5602469,12.9295775 23.2787654,20.8489437 C22.9486067,30.1426056 24.1059259,44.7397887 31.4935802,61.5028169 L31.7503704,62.0848592 L31.2773545,62.5109155 C31.1895238,62.590493 22.4061023,70.5257042 16.742963,77.696831 C12.7091005,82.8049296 9.6794709,89.6862676 8.27982363,93.1954225 C10.5299118,91.9341549 13.9771781,90.0616197 15.7161552,89.4214789 L18.3285009,88.459507 L19.2417284,89.9232394 C19.1902293,89.971831 14.0734744,94.8742958 10.5277954,101.565845 C8.12814815,106.095423 6.60610229,111.672183 5.86571429,114.844366 C7.97153439,113.074296 11.2159788,110.476761 12.9352028,109.753873 C14.9059259,108.924648 15.2533686,108.720423 15.2865256,108.7 C15.2113933,108.746831 15.0932275,108.856338 15.0113933,109.019718 L16.6826455,109.442606 C16.6748854,109.653873 16.6533686,109.803873 16.5161552,109.957394 C16.027619,110.985563 13.288642,116.951056 11.866067,124.330634 C10.8156261,129.779577 11.3091005,134.72007 11.7383774,137.346479 C13.0318519,135.519718 15.1380247,132.67007 16.8399647,130.962324 C19.4230335,128.369718 20.4702998,127.757042 20.5810582,127.695775 L22.1965785,126.802465 L21.8770018,128.61831 C21.8653616,128.683803 20.720388,135.249296 20.5105115,141.933451 C20.3704762,146.383803 21.0865256,150.403873 21.5718871,152.564437 C23.3352028,150.46831 26.8981658,146.53838 30.3725926,144.532042 L36.2632451,141.129577 L36.3715344,142.524296 C36.3768254,142.592606 36.9249735,149.425352 38.8018695,152.886972 C39.817037,154.760211 40.9031041,156.232746 41.6960494,157.199648 C42.1690653,155.03662 43.2314991,151.48662 45.3708289,149.493662 C45.6420811,149.241197 45.9373192,148.983803 46.2484303,148.728169 L47.7874074,147.463028 L47.6897002,149.450704 C47.6311464,150.644366 47.709806,151.806338 47.9235626,152.904225 C48.2812346,154.741901 49.1538977,156.232042 49.8001058,157.135915 C50.8473721,155.422535 53.1031041,152.446127 56.3253263,152.03838 C58.7711817,151.729577 61.844903,152.267606 64.5443739,153.478521 L64.7112169,153.553521 L64.8346737,153.68838 C66.8526631,155.897887 68.3295591,157.939789 69.2244444,159.757394 C71.9598942,165.315141 71.6815873,172.75669 68.3969312,181.875 C67.1401411,185.364437 68.1475485,186.157042 70.839612,188.275352 C71.9983422,189.187324 73.4406702,190.322183 74.9757672,191.943662 C76.8576014,193.932042 81.3041623,195.124648 87.834321,195.392606 C92.8935802,195.601056 97.4177425,195.16338 97.4628924,195.158451 L97.5782363,195.147183 Z M108.326032,197.774296 C103.147549,197.774296 98.3845855,197.058803 97.5210935,196.921831 C95.8004586,197.082042 78.7736508,198.519718 73.693933,193.152817 C72.2477249,191.625 70.9196825,190.57993 69.7479012,189.658099 C67.0209171,187.511972 65.0508995,185.961972 66.7373192,181.279225 C69.8540741,172.627113 70.1581305,165.647183 67.6413757,160.533803 C66.8378483,158.901761 65.4971076,157.044366 63.655485,155.011268 C61.2812346,153.978873 58.6367901,153.519014 56.546843,153.785211 C53.0378483,154.228873 50.7634215,159.029225 50.7408466,159.077465 L50.2053968,160.226761 L49.3136861,159.324648 C49.2152734,159.225 46.893933,156.844014 46.1919929,153.239789 C46.0791182,152.659155 45.9994004,152.063732 45.9538977,151.457042 C43.7697707,154.207042 43.1263845,159.188732 43.1196825,159.242958 L42.9013404,160.996831 L41.6304409,159.767254 C41.5355556,159.675 39.2812346,157.472183 37.2505467,153.724648 C35.7214462,150.904577 35.0205644,146.321127 34.7524868,144.03662 L31.2558377,146.055986 C26.7859965,148.636972 21.8953439,154.958803 21.8466667,155.022535 L20.7983422,156.385563 L20.3023986,154.739789 C20.2300882,154.499648 18.5306173,148.771127 18.7475485,141.878521 C18.8861728,137.471831 19.4226808,133.12007 19.7881129,130.576408 C19.3299118,130.991197 18.7676543,131.524296 18.0904056,132.203873 C15.6103351,134.692606 12.050194,139.990845 12.0145679,140.044014 L10.9295591,141.663028 L10.4293827,139.780282 C10.3503704,139.483099 8.51368607,132.404225 10.1341446,123.997887 C11.2001058,118.469366 12.9419048,113.797535 14.0311464,111.203169 C13.9006349,111.258451 13.7637743,111.315845 13.6202116,111.376408 C11.6635979,112.199296 6.76800705,116.345423 5.0470194,117.873944 L3.1486067,119.559507 L3.59269841,117.062324 C3.66007055,116.683099 5.28652557,107.692958 8.96871252,100.742606 C11.0244444,96.8637324 13.536261,93.6133803 15.3944621,91.4616197 C12.4604233,92.7838028 7.09287478,95.8971831 7.03255732,95.9320423 L4.98529101,97.1214789 L5.75495591,94.8852113 C5.90733686,94.4426056 9.55425044,83.9559859 15.3577778,76.6070423 C20.353545,70.281338 27.7094533,63.3961268 29.6262081,61.6327465 C22.3147443,44.771831 21.1761199,30.0926056 21.5193298,20.7049296 C21.8960494,10.3841549 24.0378483,4.19366197 24.1288536,3.93521127 L24.427619,3.08732394 L29.1461376,4.85316901 C32.5288536,6.11866197 41.7863492,9.2278169 55.0240917,12.8542254 C60.341552,14.3109155 66.1277954,17.6943662 72.2219753,22.9109155 C75.9542504,26.1052817 78.6004586,28.9757042 79.4759436,29.956338 C80.3531922,29.8820423 82.4318519,29.8056338 86.4551323,30.1387324 C91.6138624,30.565493 99.7344974,32.7112676 101.161305,33.0957746 C102.60963,32.8010563 110.849841,31.1679577 116.024444,31.0651408 C120.061834,30.9855634 122.129912,31.1915493 123.000459,31.3204225 C123.935908,30.3961268 126.757425,27.6971831 130.683351,24.7426056 C137.09358,19.9183099 143.081235,16.9038732 148.480176,15.7827465 C161.926737,12.9908451 171.357072,10.4683099 174.809277,9.41795775 L179.543316,7.97746479 L179.84455,8.72816901 C179.95037,8.99330986 182.450547,15.3373239 182.935203,25.6992958 C183.376473,35.1267606 182.134497,49.7549296 173.783527,66.1503521 C175.584938,68.0292254 182.494991,75.3619718 187.083704,81.9887324 C192.413862,89.6866197 195.39552,100.380634 195.51933,100.832394 L196.147196,103.112324 L194.178589,101.797183 C194.120741,101.758099 188.959189,98.3151408 186.114039,96.8116197 C187.833263,99.0757042 190.135908,102.476408 191.943668,106.476408 C195.182469,113.643662 196.24067,122.71831 196.284056,123.101056 L196.570123,125.620423 L194.781411,123.819718 C193.159541,122.18662 188.533439,117.741549 186.633968,116.797887 C186.493933,116.728521 186.360952,116.662676 186.233968,116.599296 C187.158131,119.25669 188.60328,124.028521 189.31933,129.61338 C190.408219,138.104225 188.130265,145.055282 188.032557,145.346831 L187.415273,147.194718 L186.433968,145.510915 C186.401517,145.455634 183.180353,139.942254 180.86254,137.305282 C180.229735,136.584859 179.702399,136.017958 179.271711,135.575352 C179.476296,138.136972 179.738377,142.513732 179.599048,146.919366 C179.383175,153.811972 177.32709,159.422183 177.239612,159.657746 L176.641728,161.268662 L175.680882,159.842606 C175.636085,159.776408 171.15284,153.16162 166.854427,150.305282 L163.490406,148.07007 C163.079118,150.333803 162.091817,154.865141 160.388466,157.583451 C158.126384,161.196479 155.738025,163.253521 155.637496,163.339085 L154.291817,164.486972 L154.184586,162.722887 C154.181058,162.670423 153.877354,158.041549 152.072063,155.122183 C151.994109,155.608099 151.893933,156.084507 151.772945,156.549648 C150.846314,160.101408 148.38,162.333099 148.275591,162.426408 L147.328501,163.271479 L146.866067,162.090141 C146.847372,162.041197 144.865362,157.104225 141.405044,156.444366 C139.202575,156.024648 136.288995,156.391901 133.762716,157.402465 C131.89358,159.24507 130.50381,160.951408 129.629735,162.476056 C126.796578,167.422183 126.661481,174.407394 129.228325,183.237676 C130.606455,187.978521 128.506984,189.391197 125.601164,191.346479 C124.326737,192.204225 122.882293,193.176056 121.305926,194.645423 C118.656896,197.113732 113.299577,197.774296 108.326032,197.774296 Z" id="Fill-8" fill="#BEBFC1"></path>
                <path d="M102.335661,43.8520423 C102.335661,43.8520423 83.673933,34.5611972 64.9889242,44.4883099 C49.4443034,52.7467606 25.1920988,74.513662 23.9303704,75.9583803 C19.4658201,81.0721127 16.0637037,85.8502817 16.0637037,85.8502817 C16.0637037,85.8502817 18.7765785,84.7372535 21.5797531,83.8111972 C24.3822222,82.8851408 27.9264903,82.7192958 27.9264903,82.7192958 C27.9264903,82.7192958 21.5476543,90.9069718 17.7286067,96.7784507 C13.9099118,102.64993 12.8238448,106.76331 12.8238448,106.76331 C12.8238448,106.76331 16.0520635,104.468239 19.1504762,103.275282 C22.2481834,102.08162 24.2697002,101.684085 24.2697002,101.684085 C24.2697002,101.684085 19.7525926,108.454859 17.5201411,115.574577 C15.2873369,122.693944 15.2443034,127.116127 15.2443034,127.116127 C15.2443034,127.116127 18.9850441,123.731972 21.926843,121.427042 C24.868642,119.122817 27.8859259,117.465775 27.8859259,117.465775 C27.8859259,117.465775 25.7314286,125.141127 24.6975661,133.679507 C23.6640564,142.22 23.8668783,144.898873 23.8668783,144.898873 C23.8668783,144.898873 29.9557672,139.835845 35.1271958,136.587958 C40.2982716,133.339366 42.6263139,132.306268 42.6263139,132.306268 C42.6263139,132.306268 42.3021517,136.536901 42.3744621,140.317183 C42.4464198,144.098873 42.7681129,146.044296 42.7681129,146.044296 C42.7681129,146.044296 45.5204938,143.687958 47.7480071,142.789366 C49.9765785,141.891831 52.1405996,141.499225 52.1405996,141.499225 C52.1405996,141.499225 50.500388,140.433732 48.8972134,139.692183 L47.295097,138.950282 C47.295097,138.950282 54.7480071,139.184085 62.0361905,144.666127 C69.3236684,150.148169 75.3765785,161.443944 75.3765785,161.443944 C75.3765785,161.443944 76.1815168,169.303803 75.3473016,174.531268 C74.5134392,179.759437 73.3144974,185.39993 73.3144974,185.39993 C73.3144974,185.39993 73.2428924,183.657676 78.0524162,188.877746 C82.86194,194.098521 97.6926279,191.492887 97.6926279,191.492887 C97.6926279,191.492887 111.399859,196.346761 116.527901,191.436901 C121.655238,186.528803 122.445009,187.23162 122.445009,187.23162 C122.445009,187.23162 121.562822,181.234085 121.059471,175.964366 C120.555414,170.695 121.852769,162.900634 121.852769,162.900634 C121.852769,162.900634 128.603386,152.005915 136.22067,146.991479 C143.839365,141.975986 151.292275,142.209437 151.292275,142.209437 L149.646067,142.84993 C147.999859,143.48831 146.29545,144.449225 146.29545,144.449225 C146.29545,144.449225 148.431605,144.97669 150.598095,146.012606 C152.766349,147.048873 155.364586,149.573521 155.364586,149.573521 C155.364586,149.573521 155.807266,147.650986 156.117319,143.88162 C156.427019,140.112958 156.369171,135.871056 156.369171,135.871056 C156.369171,135.871056 158.627372,137.047113 163.584691,140.613662 C168.541658,144.178803 174.300388,149.61331 174.300388,149.61331 C174.300388,149.61331 174.670758,146.951338 174.176226,138.364014 C173.68134,129.778099 172.013616,121.982676 172.013616,121.982676 C172.013616,121.982676 174.919436,123.825634 177.710617,126.309085 C180.502857,128.793239 184.023845,132.405563 184.023845,132.405563 C184.023845,132.405563 184.257707,127.989366 182.47746,120.743592 C180.697213,113.498873 176.613968,106.458028 176.613968,106.458028 C176.613968,106.458028 178.606561,106.981972 181.623139,108.366831 C184.640071,109.751338 187.717672,112.244296 187.717672,112.244296 C187.717672,112.244296 186.893333,108.070352 183.450653,101.971761 C180.008325,95.8728169 174.155414,87.3020423 174.155414,87.3020423 C174.155414,87.3020423 177.682399,87.6890141 180.422434,88.7893662 C183.160705,89.888662 185.798448,91.1692958 185.798448,91.1692958 C185.798448,91.1692958 182.70321,86.1872535 178.568818,80.8041549 C174.434427,75.4210563 157.593157,57.9030986 139.569524,46.8256338 C121.54448,35.748169 102.335661,43.8520423 102.335661,43.8520423" id="Fill-10" fill="#FEFEFE"></path>
                <path d="M75.1109347,135.143944 C75.1109347,135.143944 78.7070547,137.625282 78.1208113,141.687606 C77.533157,145.749577 76.3776014,150.36331 77.1906526,153.710493 C78.0040564,157.057676 82.1261023,160.467183 87.9444444,162.21507 C94.5881834,164.21331 99.007231,164.35169 99.007231,164.35169 C99.007231,164.35169 104.706349,164.27669 110.114815,162.910845 C116.006526,161.422113 119.705644,158.364366 120.726808,155.07493 C121.74903,151.785493 120.886243,147.108732 120.555026,143.016831 C120.224868,138.926338 123.969841,136.675634 123.969841,136.675634 C122.317989,139.561549 122.278836,140.793592 122.641446,143.842183 C123.006173,146.889014 124.902116,150.840423 123.480247,155.161197 C122.058377,159.481268 119.222046,162.050282 119.222046,162.050282 C119.222046,162.050282 117.855556,164.479155 117.204762,168.530915 C117.008289,169.753099 116.073898,172.228803 116.02381,180.159789 C116.00194,183.618239 116.134921,184.813662 115.712698,185.580915 C113.699647,189.251338 97.8647266,189.196761 97.8647266,189.196761 C97.8647266,189.196761 80.2146384,187.440775 79.6791887,183.258732 C79.3811287,180.931972 80.2128748,177.43162 80.2128748,177.43162 C80.3902998,169.475986 79.7691358,169.354507 79.5945326,167.83162 C79.127866,163.755211 78.2552028,160.767183 78.2552028,160.767183 C78.2552028,160.767183 75.5857143,158.024577 74.4379189,153.623873 C73.2901235,149.222817 75.4312169,145.398873 75.9857143,142.379507 C76.5398589,139.360845 76.5786596,138.127746 75.1109347,135.143944" id="Fill-12" fill="#231F20"></path>
                <path d="M80.9069136,161.995634 C81.0148501,173.767113 84.3622928,176.813592 84.3622928,176.813592 C84.3622928,176.813592 84.2695238,176.714648 85.3263139,173.52169 C86.3831041,170.32838 88.2525926,168.67838 88.2525926,168.67838 L90.5400705,171.977324 L93.6836332,169.323803 L96.36194,172.350211 L98.3940388,169.186479 C98.3940388,169.186479 100.134074,169.240704 104.947478,168.253028 C109.760176,167.265352 116.299153,163.104789 116.299153,163.104789 C115.451534,174.845634 111.919259,177.676972 111.919259,177.676972 C111.919259,177.676972 112.017319,177.584366 111.163704,174.331197 C110.309383,171.078732 108.548183,169.314648 108.548183,169.314648 L106.058236,172.463592 L103.086455,169.618521 L100.223668,172.470634 L98.3940388,169.186479 C98.3940388,169.186479 96.654709,169.132254 91.9129101,167.84493 C87.1714638,166.557606 80.9069136,161.995634 80.9069136,161.995634" id="Fill-14" fill="#FEFEFE"></path>
                <path d="M86.7628571,145.252394 C86.7628571,145.252394 85.5328748,148.115775 85.6894885,151.021761 C85.8453968,153.929507 88.312769,155.875282 89.1864903,156.445 C90.0612698,157.012254 90.4030688,157.170704 90.4030688,157.170704 C90.4030688,157.170704 88.6976014,154.658732 90.500776,154.075282 C92.3035979,153.491831 94.8944268,154.655563 95.4820811,156.444648 C96.0704409,158.234085 94.1173545,158.860845 94.1173545,158.860845 C94.1173545,158.860845 95.3244092,159.882676 96.5438095,160.511197 C97.7639153,161.139366 99.0189418,161.277042 99.0189418,161.277042 C99.0189418,161.277042 100.28067,161.218239 101.536755,160.667183 C102.79284,160.116127 104.061975,159.173169 104.061975,159.173169 C104.061975,159.173169 102.152628,158.424225 102.851746,156.675282 C103.55157,154.927746 106.210123,153.928803 107.972734,154.622817 C109.734991,155.317887 107.876085,157.717887 107.876085,157.717887 C107.876085,157.717887 108.225996,157.580915 109.134286,157.07 C110.042928,156.55662 112.62776,154.767887 112.966384,151.877042 C113.305714,148.986197 112.257037,146.051338 112.257037,146.051338 C111.519118,144.306972 110.944868,143.648521 107.757566,142.566127 C104.568501,141.482324 99.5967196,142.900282 99.5967196,142.900282 C99.5967196,142.900282 94.723351,141.173873 91.4732628,142.055915 C88.2238801,142.937606 87.609418,143.558028 86.7628571,145.252394" id="Fill-16" fill="#231F20"></path>
                <path d="M73.879612,30.653662 C68.9409877,26.3328873 59.593545,18.9614085 51.2284656,16.9209155 C39.1741446,13.9807746 29.8189418,10.366338 29.8189418,10.366338 C29.8189418,10.366338 25.1886067,17.7180986 28.4468078,32.719507 C31.7053616,47.7209155 35.3095944,54.7614085 35.3095944,54.7614085 L38.8379894,52.1269014 C38.8379894,52.1269014 28.8245855,37.216338 32.3956614,23.5314789 C33.0242328,21.1205634 33.6923104,21.0216197 33.6923104,21.0216197 C33.6923104,21.0216197 36.2245855,25.6557746 38.2792593,27.2388732 C40.3332275,28.8209155 44.5946032,30.1885211 44.5946032,30.1885211 C44.5946032,30.1885211 41.5900176,31.4230282 40.1572134,31.3783099 C38.7240564,31.3335915 39.8288183,32.6962676 42.4834921,33.4441549 C45.1381658,34.1916901 47.0520988,34.1564789 47.0520988,34.1564789 L52.8302293,42.0247887 L53.8140035,41.6244366 C54.6309347,41.0054225 55.4457496,40.4001408 56.2524515,39.8128169 C55.5215873,37.941338 53.1734392,32.7959155 48.3508642,29.3571831 C42.3635626,25.0892254 38.7660317,23.9321831 36.2841975,20.7230282 C33.802716,17.5138732 31.2760847,12.6895775 31.2760847,12.6895775 C31.2760847,12.6895775 36.9917813,19.5114085 42.5483951,22.2476761 C48.1053616,24.9839437 54.9018342,27.8547183 58.1356966,31.4673944 C60.1766138,33.7473239 61.328642,35.2047183 61.9014815,35.9709155 C62.8263492,35.3962676 63.7117108,34.8800704 64.544515,34.4371127 C67.6175309,32.8015493 70.7766138,31.5614085 73.879612,30.653662" id="Fill-18" fill="#FAFAFA"></path>
                <path d="M89.5206349,129.209261 C89.5206349,129.209261 87.5114638,101.471232 83.5266314,93.9272183 C79.5425044,86.3839085 68.442328,84.0018662 63.480776,83.8465845 C58.5185185,83.6913028 50.5008818,82.0039789 50.5008818,82.0039789 C50.5008818,82.0039789 52.756261,85.3050352 55.0610229,87.0522183 C57.3650794,88.7997535 58.1051146,88.9427113 58.1051146,88.9427113 C58.1051146,88.9427113 59.3386243,97.1180634 65.4391534,100.539894 C71.5396825,103.961373 78.3809524,103.577923 78.3809524,103.577923 C78.3809524,103.577923 88.0920635,117.515951 88.4645503,125.424754" id="Fill-20" fill="#231F20"></path>
                <path d="M80.2753439,98.6120775 C80.2753439,98.6120775 79.6598236,96.1004577 77.3137919,93.729331 C77.3183774,93.8092606 77.3194356,93.8905986 77.3169665,93.9722887 C77.2697002,95.4905986 75.9532981,96.6814437 74.377284,96.6321479 C72.802328,96.5825 71.5628219,95.3117254 71.6111464,93.7930634 C71.6506526,92.5303873 72.5684656,91.4937676 73.782575,91.2096127 C73.7081481,91.1733451 73.6333686,91.1374296 73.5585891,91.1022183 C68.051358,88.5367254 65.1755203,89.1641901 65.1755203,89.1641901 C65.6340741,96.6754577 72.5095591,104.65081 80.2753439,98.6120775" id="Fill-22" fill="#BDBFC1"></path>
                <path d="M65.3625044,89.3137676 C65.6997178,93.9246831 68.4235273,98.3722183 71.8827866,99.9310211 C74.5078307,101.114472 77.3378131,100.634542 80.0736155,98.5451056 C79.9318166,98.0672887 79.26903,96.0965141 77.4817284,94.1602465 C77.4143563,94.8725704 77.0834921,95.5275 76.5388713,96.0204577 C75.9494533,96.5539085 75.1759083,96.8373592 74.3720282,96.8081338 C73.5639153,96.7827817 72.8140035,96.4553169 72.2591534,95.8863028 C71.7028924,95.3155282 71.4101235,94.5701056 71.4348148,93.7877113 C71.4711464,92.6289085 72.2175309,91.6105986 73.300776,91.1771479 C68.7251146,89.0831338 66.0073016,89.2348944 65.3625044,89.3137676 M74.7769665,100.917641 C73.5886067,100.917641 72.5610935,100.623275 71.7378131,100.252148 C68.1258201,98.624331 65.2919577,93.9655282 64.9995414,89.1746831 L64.9903704,89.024331 L65.1378131,88.9922887 C65.2580952,88.9658803 68.1353439,88.3817254 73.6330511,90.9426408 L74.3057143,91.2676408 L73.8228219,91.3810211 C72.6605644,91.6532042 71.8235273,92.6475704 71.7875485,93.7986268 C71.765679,94.4848944 72.0228219,95.1391197 72.5120635,95.6408803 C73.002716,96.1440493 73.6669136,96.433838 74.382963,96.4560211 C75.1011287,96.4810211 75.7808466,96.2313732 76.3018342,95.7595423 C76.8214109,95.2898239 77.1194709,94.6528521 77.1406349,93.9665845 C77.1431041,93.8905282 77.1420459,93.8141197 77.1378131,93.7391197 L77.1117108,93.2746831 L77.4394004,93.6053169 C79.7924868,95.9841901 80.4210582,98.4658803 80.4468078,98.5704577 L80.4736155,98.6810211 L80.3836684,98.7510915 C78.2933686,100.376444 76.3879012,100.917641 74.7769665,100.917641" id="Fill-24" fill="#231F20"></path>
                <path d="M110.918025,130.455775 C110.918025,130.455775 112.006914,102.238873 116.457707,94.9592958 C120.907443,87.6804225 132.136367,85.9980282 137.098624,86.153662 C142.059471,86.3092958 150.16776,85.1276056 150.16776,85.1276056 C150.16776,85.1276056 147.709206,88.2807746 145.300035,89.8804225 C142.890511,91.4800704 142.142363,91.5765493 142.142363,91.5765493 C142.142363,91.5765493 140.398448,99.6582394 134.094392,102.69169 C127.790335,105.724789 120.987513,104.913169 120.987513,104.913169 C120.987513,104.913169 115.803739,107.861761 114.935309,115.732183" id="Fill-26" fill="#231F20"></path>
                <path d="M119.40843,99.8388028 C119.40843,99.8388028 120.180564,97.3708451 122.671922,95.1507746 C122.66134,95.2303521 122.654991,95.3109859 122.652169,95.3930282 C122.604903,96.911338 123.843351,98.1821127 125.419012,98.2317606 C126.995026,98.2810563 128.310723,97.0902113 128.358695,95.5719014 C128.398554,94.3088732 127.54776,93.2169718 126.353757,92.8571127 C126.429947,92.8257746 126.507196,92.7944366 126.584797,92.7638028 C132.24194,90.5483099 135.072275,91.355 135.072275,91.355 C134.142469,98.8222535 126.779859,106.351479 119.40843,99.8388028" id="Fill-28" fill="#BDBFC1"></path>
                <path d="M119.614109,99.7846479 C122.213404,102.040986 125.00776,102.696972 127.701587,101.680423 C131.251852,100.341338 134.249735,96.0730282 134.876543,91.4923944 C134.238095,91.3737324 131.535802,91.050493 126.837037,92.8550704 C127.891005,93.3557746 128.571781,94.4188028 128.535097,95.5776056 C128.483951,97.1906338 127.077601,98.4733803 125.413404,98.4075352 C123.807055,98.3571831 122.526631,97.1019014 122.47619,95.5709155 C120.571076,97.3916901 119.785185,99.3166901 119.614109,99.7846479 M125.2,102.498028 C123.495591,102.498028 121.463492,101.889577 119.291711,99.9705634 L119.205996,99.8948592 L119.239859,99.7864085 C119.27231,99.6835915 120.055732,97.2462676 122.554497,95.0191549 L122.910053,94.7026056 L122.846561,95.1740845 C122.837037,95.2480282 122.831041,95.3230282 122.828571,95.3987324 C122.784127,96.8173944 123.948854,98.0092958 125.424691,98.0557746 C126.907584,98.0952113 128.137566,96.9853521 128.182363,95.5666901 C128.219048,94.4149296 127.445855,93.3702113 126.302998,93.025493 L125.82716,92.8821831 L126.519929,92.6001408 C132.168607,90.3878169 135.002822,91.1522535 135.120988,91.1857042 L135.265961,91.2269014 L135.247266,91.3765493 C134.654321,96.1395775 131.532981,100.611408 127.826102,102.009648 C127.089594,102.287817 126.201411,102.498028 125.2,102.498028" id="Fill-30" fill="#231F20"></path>
                <path d="M130.694215,33.1390845 C135.606737,29.2735915 146.058589,21.7757042 155.033545,20.1742958 C167.249418,17.9943662 176.813439,14.9725352 176.813439,14.9725352 C176.813439,14.9725352 180.972875,22.6 176.778519,37.3679577 C172.584162,52.1355634 168.544656,58.9369718 168.544656,58.9369718 L165.857531,55.9471831 C165.857531,55.9471831 174.986984,35.4704225 174.400388,28.7538732 C174.18381,26.2725352 172.278342,25.3640845 172.278342,25.3640845 C172.278342,25.3640845 169.459647,29.831338 167.309735,31.2823944 C165.159824,32.7330986 160.821552,33.8309859 160.821552,33.8309859 C160.821552,33.8309859 165.420141,36.6323944 162.723492,37.2119718 C160.027196,37.7919014 158.119259,37.6373239 158.119259,37.6373239 C158.119259,37.6373239 153.406384,45.0820423 152.392981,45.1214789 C151.355238,44.3126761 150.10127,43.3577465 148.740071,42.3732394 C149.734074,40.3338028 152.376402,35.7211268 157.125256,32.7661972 C163.368642,28.8809859 167.032487,27.9521127 169.710088,24.9042254 C172.388748,21.8566901 175.212734,17.2 175.212734,17.2 C175.212734,17.2 169.080106,23.6507042 163.362293,26.0341549 C157.643774,28.4165493 150.681517,30.856338 147.227196,34.259507 C144.945362,36.506338 143.692099,37.9161972 143.103386,38.615493 C140.43284,37.0584507 135.704797,34.9855634 130.694215,33.1390845" id="Fill-32" fill="#FAFAFA"></path>
                <path d="M101.327407,75.9293662 L98.1161199,95.2874648 C98.1161199,95.2874648 96.1990123,98.4540141 93.1542152,101.015986 C90.1083598,103.577606 88.8540388,103.918099 88.8540388,103.918099 C88.8540388,103.918099 91.2787302,99.8180986 92.102716,97.9459155 C92.9267019,96.0737324 93.0371076,95.6029577 93.0371076,95.6029577 C93.0371076,95.6029577 87.3185891,82.8022535 76.5658554,78.0047183 C65.8134744,73.2071831 54.7323457,75.8019014 54.7323457,75.8019014 C54.7323457,75.8019014 57.2917813,76.5462676 59.4536861,77.7533099 C61.6152381,78.9592958 62.2607407,79.7388732 62.2607407,79.7388732 C62.2607407,79.7388732 54.7270547,79.028662 48.6360494,84.1522535 C42.5450441,89.2751408 42.3422222,92.6853521 42.3422222,92.6853521 C42.3422222,92.6853521 44.7877249,90.9589437 47.9732628,90.0152817 L51.1591534,89.0709155 C51.1591534,89.0709155 46.7432804,92.6335915 44.6797884,97.4089437 C42.6173545,102.184296 41.5598589,105.377958 41.5598589,105.377958 C41.5598589,105.377958 53.4801411,100.436761 63.4617989,102.362465 C73.4438095,104.288873 78.8275838,109.486761 78.8275838,109.486761 C78.8275838,109.486761 73.8861376,111.515986 69.9506878,114.99838 C66.0155908,118.48007 64.5192945,120.427254 64.5192945,120.427254 C64.5192945,120.427254 64.3616226,119.377606 65.2960141,117.034648 C66.2304056,114.692042 66.5288183,114.32162 66.5288183,114.32162 C66.5288183,114.32162 62.6744974,115.245211 59.028642,118.641338 C55.3827866,122.038521 54.6635626,123.629014 54.6635626,123.629014 C54.6635626,123.629014 54.6483951,121.06669 55.7799647,118.53993 C56.9115344,116.012817 57.6995414,115.277958 57.6995414,115.277958 C57.6995414,115.277958 53.5528042,116.381479 50.7337566,120.848732 C47.9150617,125.315986 48.6653263,134.924085 48.6653263,134.924085 C48.6653263,134.924085 49.0261728,132.563169 50.3277601,130.706479 C51.6300529,128.849085 51.8268783,128.66493 51.8268783,128.66493 C51.8268783,128.66493 52.0783774,132.847676 53.7115344,135.651197 C55.3450441,138.454718 58.1422222,140.725493 58.1422222,140.725493 C58.1422222,140.725493 57.1813757,137.84838 57.2501587,135.668099 C57.3182363,133.487113 57.5242328,133.018803 57.5242328,133.018803 C57.5242328,133.018803 60.5852557,139.093099 62.8991887,141.538873 C65.2131217,143.983239 69.465679,148.672676 72.3563316,154.076901 C75.2469841,159.481831 75.4441623,162.335352 75.4441623,162.335352 L75.4134744,162.346972 C75.3841975,162.008592 75.3647972,161.818803 75.3647972,161.818803 C75.3647972,161.818803 69.3118871,150.524085 62.0240564,145.041338 C54.7362257,139.558944 47.2833157,139.325845 47.2833157,139.325845 L48.8857848,140.067394 C50.488254,140.808592 52.1288183,141.873732 52.1288183,141.873732 C52.1288183,141.873732 49.9644444,142.26669 47.7365785,143.164577 C45.5083598,144.062817 42.7563316,146.418803 42.7563316,146.418803 C42.7563316,146.418803 42.4346384,144.47338 42.3626808,140.692042 C42.2900176,136.911761 42.6145326,132.681831 42.6145326,132.681831 C42.6145326,132.681831 40.2864903,133.714577 35.1154145,136.962465 C29.9443386,140.210704 23.8547443,145.274085 23.8547443,145.274085 C23.8547443,145.274085 23.6522751,142.595915 24.6857848,134.05507 C25.7196473,125.515986 27.8737919,117.84169 27.8737919,117.84169 C27.8737919,117.84169 24.8572134,119.498028 21.9150617,121.801901 C18.9729101,124.106479 15.232522,127.491338 15.232522,127.491338 C15.232522,127.491338 15.2759083,123.068803 17.5080071,115.949437 C19.7404586,108.830423 24.2575661,102.058944 24.2575661,102.058944 C24.2575661,102.058944 22.2364021,102.456127 19.1386949,103.650493 C16.0402822,104.843099 12.8120635,107.138521 12.8120635,107.138521 C12.8120635,107.138521 13.8977778,103.024789 17.7168254,97.153662 C21.535873,91.2821831 27.914709,83.094507 27.914709,83.094507 C27.914709,83.094507 24.3704409,83.2603521 21.567619,84.1864085 C18.7651499,85.1124648 16.0519224,86.2251408 16.0519224,86.2251408 C16.0519224,86.2251408 19.4540388,81.4469718 23.9189418,76.3335915 C28.3838448,71.219507 46.4956614,48.2997887 65.1810229,38.3723239 C83.8663845,28.4455634 102.52776,37.7364085 102.52776,37.7364085 C102.52776,37.7364085 121.736931,29.6325352 139.761623,40.7096479 C157.785961,51.7874648 174.422293,75.7962676 178.556684,81.1793662 C182.692134,86.5624648 185.785961,91.544507 185.785961,91.544507 C185.785961,91.544507 183.149277,90.2638732 180.410653,89.1642254 C177.671323,88.0642254 174.143986,87.6772535 174.143986,87.6772535 C174.143986,87.6772535 179.99619,96.2483803 183.438166,102.347324 C186.881552,108.445915 187.706243,112.619507 187.706243,112.619507 C187.706243,112.619507 184.628642,110.126901 181.611358,108.74169 C178.594427,107.356479 176.602187,106.833592 176.602187,106.833592 C176.602187,106.833592 180.685079,113.87338 182.465326,121.118803 C184.246279,128.364225 184.011005,132.780775 184.011005,132.780775 C184.011005,132.780775 180.491429,129.168803 177.699541,126.683944 C174.908713,124.200141 172.001481,122.357887 172.001481,122.357887 C172.001481,122.357887 173.669912,130.152606 174.164092,138.739225 C174.65933,147.327958 174.288607,149.988873 174.288607,149.988873 C174.288607,149.988873 168.529877,144.552958 163.572557,140.987817 C158.615944,137.422676 156.356684,136.245915 156.356684,136.245915 C156.356684,136.245915 156.415238,140.487465 156.105538,144.256479 C155.795132,148.025845 155.352451,149.947676 155.352451,149.947676 C155.352451,149.947676 152.754568,147.423732 150.585961,146.388169 C148.419824,145.351901 146.283668,144.824789 146.283668,144.824789 C146.283668,144.824789 147.987725,143.864225 149.63358,143.224789 L151.280494,142.584648 C151.280494,142.584648 143.827231,142.350493 136.2103,147.365986 C128.591605,152.381479 121.840282,163.275845 121.840282,163.275845 C121.840282,163.275845 121.809242,163.463521 121.758801,163.799437 L121.729524,163.785352 C121.729524,163.785352 122.10448,160.950141 125.330229,155.736761 C128.554215,150.524437 133.09284,146.110352 135.555979,143.816338 C138.019118,141.520211 141.456155,135.648732 141.456155,135.648732 C141.456155,135.648732 141.631817,136.129366 141.563739,138.31 C141.495309,140.490634 140.354568,143.301901 140.354568,143.301901 C140.354568,143.301901 143.289312,141.210704 145.096014,138.515634 C146.902011,135.819507 147.415238,131.660704 147.415238,131.660704 C147.415238,131.660704 147.600423,131.856479 148.783139,133.79169 C149.965503,135.726549 150.178201,138.105775 150.178201,138.105775 C150.178201,138.105775 151.530229,128.563169 148.997601,123.92831 C146.466032,119.294507 142.395838,117.933239 142.395838,117.933239 C142.395838,117.933239 143.136226,118.714577 144.106243,121.307887 C145.077319,123.900845 144.900952,126.457535 144.900952,126.457535 C144.900952,126.457535 144.28261,124.824437 140.858272,121.205775 C137.432875,117.588169 133.644162,116.425141 133.644162,116.425141 C133.644162,116.425141 133.918589,116.812465 134.703774,119.21 C135.489312,121.606831 135.265326,122.643803 135.265326,122.643803 C135.265326,122.643803 133.894603,120.607887 130.185961,116.885704 C126.477319,113.163521 121.673086,110.829718 121.673086,110.829718 C121.673086,110.829718 127.37291,105.97831 137.456508,104.681831 C147.539753,103.384296 159.124586,109.061761 159.124586,109.061761 C159.124586,109.061761 158.27097,105.808592 156.511534,100.913521 C154.75351,96.0184507 150.570088,92.1864085 150.570088,92.1864085 L153.689665,93.3279577 C156.809947,94.469507 159.142222,96.3459155 159.142222,96.3459155 C159.142222,96.3459155 159.154215,92.9297183 153.396543,87.435 C147.640635,81.9402817 140.076614,82.1779577 140.076614,82.1779577 C140.076614,82.1779577 140.769383,81.4402817 143.002892,80.3712676 C145.236049,79.3026056 147.836755,78.719507 147.836755,78.719507 C147.836755,78.719507 136.941517,75.4364085 125.908713,79.5511972 C114.875908,83.6656338 108.363739,96.0828873 108.363739,96.0828873 C108.363739,96.0828873 108.444515,96.56 109.149277,98.4800704 C109.854039,100.400493 112.016296,104.643803 112.016296,104.643803 C112.016296,104.643803 110.786314,104.225845 107.907302,101.477958 C105.029347,98.7307746 103.314709,95.450493 103.314709,95.450493 L101.327407,75.9293662 Z" id="Fill-34" fill="#231F20"></path>
                <path d="M35.1918871,65.4715493 C33.5964727,67.7444366 31.9269841,70.251831 31.1061728,71.8898592 C29.2691358,75.5557042 28.5848325,79.0666197 28.5848325,79.0666197 C28.5848325,79.0666197 30.9047619,78.2803521 34.5481481,78.0127465 C38.1901235,77.7447887 38.4772487,77.7539437 38.4772487,77.7539437 C38.4772487,77.7539437 30.545679,86.6708451 28.3231041,90.4201408 C26.1012346,94.1697887 25.8624339,95.689507 25.8624339,95.689507 C25.8624339,95.689507 29.2514991,94.3634507 32.4345679,93.5085211 C35.6176367,92.6535915 35.7164021,92.561338 35.7164021,92.561338 C35.7164021,92.561338 29.9492063,102.596197 28.7961199,105.807113 C27.6433862,109.015915 27.3587302,111.968028 27.3587302,111.968028 C27.3587302,111.968028 30.4141093,109.102535 33.4359788,107.288803 L36.4578483,105.473662 C36.4578483,105.473662 34.3276896,115.431408 33.9922399,120.002887 C33.9188713,121.006056 33.8617284,121.795493 33.8162257,122.421901 C35.2733686,120.078239 37.3929453,117.090563 39.691358,115.170845 C43.7679012,111.765211 50.3463845,109.394085 50.3463845,109.394085 C50.3463845,109.394085 48.8560847,111.16169 47.8959436,112.801479 C46.9354497,114.443028 46.9312169,114.585986 46.9312169,114.585986 C46.9312169,114.585986 51.361552,110.571197 55.2239859,109.404296 C59.0864198,108.235282 60.4134039,108.61169 60.4134039,108.61169 C60.4134039,108.61169 57.9978836,109.395493 57.2109347,110.086338 L56.4243386,110.776831 C56.4243386,110.776831 60.4765432,109.663451 63.0455026,110.078592 C65.6151675,110.492676 66.5940035,111.288099 66.5940035,111.288099 C61.1058201,109.346197 52.4447972,113.199014 49.4599647,117.815211 C47.4645503,120.901479 46.096649,124.469085 45.3329806,126.78 C45.4959436,128.871549 45.768254,131.255704 46.2148148,132.79831 C47.1640212,136.074718 49.5943563,137.868732 49.5943563,137.868732 C49.5943563,137.868732 49.5375661,136.626831 50.2666667,134.739859 C50.9954145,132.853239 51.1982363,132.477887 51.1982363,132.477887 C51.1982363,132.477887 52.1326279,136.230704 55.5837743,139.011338 C59.0352734,141.792324 60.0744268,142.207113 60.0744268,142.207113 L59.3223986,138.746901 C59.3223986,138.746901 62.5199295,141.564155 66.8059965,149.334577 C65.3185185,147.665563 63.7075838,146.096549 62.0306878,144.834225 C54.7428571,139.352535 47.2895944,139.118732 47.2895944,139.118732 L48.8924162,139.860282 C50.4952381,140.602183 52.1354497,141.668028 52.1354497,141.668028 C52.1354497,141.668028 49.9707231,142.05993 47.7428571,142.958521 C45.5149912,143.856056 42.7626102,146.212746 42.7626102,146.212746 C42.7626102,146.212746 42.4412698,144.266972 42.3693122,140.485986 C42.2970018,136.703944 42.621164,132.474718 42.621164,132.474718 C42.621164,132.474718 40.2931217,133.507817 35.1216931,136.756056 C29.9506173,140.004648 23.8610229,145.067324 23.8610229,145.067324 C23.8610229,145.067324 23.6589065,142.387042 24.6924162,133.848662 C25.7262787,125.309225 27.8804233,117.634577 27.8804233,117.634577 C27.8804233,117.634577 24.8631393,119.291972 21.9213404,121.595845 C18.9798942,123.90007 15.2391534,127.284577 15.2391534,127.284577 C15.2391534,127.284577 15.2821869,122.862394 17.5146384,115.742676 C19.7470899,108.624366 24.2641975,101.852887 24.2641975,101.852887 C24.2641975,101.852887 22.2433862,102.25007 19.1449735,103.443732 C16.0469136,104.637042 12.8183422,106.932817 12.8183422,106.932817 C12.8183422,106.932817 13.9044092,102.81838 17.7234568,96.9472535 C21.5425044,91.0757746 27.9213404,82.8880986 27.9213404,82.8880986 C27.9213404,82.8880986 24.3770723,83.0535915 21.5742504,83.98 C18.7714286,84.9057042 16.0582011,86.0190845 16.0582011,86.0190845 C16.0582011,86.0190845 19.4610229,81.2405634 23.9252205,76.1264789 C25.7414462,74.0472535 29.7809524,70.095493 35.1918871,65.4715493 M167.988713,69.633169 C173.09806,74.5870423 176.881834,78.7835211 178.563316,80.9729577 C182.698413,86.3560563 185.792593,91.3380986 185.792593,91.3380986 C185.792593,91.3380986 183.155203,90.0571127 180.416931,88.958169 C177.676896,87.858169 174.149912,87.470493 174.149912,87.470493 C174.149912,87.470493 180.002116,96.0419718 183.44515,102.140563 C186.887478,108.238803 187.712875,112.413099 187.712875,112.413099 C187.712875,112.413099 184.635273,109.920141 181.618342,108.53493 C178.6,107.15007 176.609171,106.627535 176.609171,106.627535 C176.609171,106.627535 180.691005,113.667676 182.471958,120.912394 C184.25291,128.157817 184.017637,132.574366 184.017637,132.574366 C184.017637,132.574366 180.497002,128.961338 177.70582,126.477183 C174.914638,123.993732 172.008113,122.151127 172.008113,122.151127 C172.008113,122.151127 173.67619,129.945845 174.170723,138.533521 C174.665256,147.119789 174.29418,149.781761 174.29418,149.781761 C174.29418,149.781761 168.536508,144.346901 163.578836,140.781761 C158.622928,137.215563 156.364021,136.039507 156.364021,136.039507 C156.364021,136.039507 156.421869,140.281056 156.112169,144.049718 C155.801764,147.819789 155.35873,149.741268 155.35873,149.741268 C155.35873,149.741268 152.760847,147.216972 150.593298,146.181408 C148.425397,145.145493 146.2903,144.618028 146.2903,144.618028 C146.2903,144.618028 147.994356,143.657465 149.640564,143.018028 L151.286772,142.377887 C151.286772,142.377887 143.834568,142.144789 136.215873,147.160282 C134.462787,148.313451 132.755908,149.779648 131.166843,151.351127 C135.933333,143.864859 139.301587,141.252887 139.301587,141.252887 L138.333333,144.659577 C138.333333,144.659577 139.39612,144.312042 143.016226,141.751479 C146.634921,139.192324 147.803175,135.504648 147.803175,135.504648 C147.803175,135.504648 147.982363,135.892324 148.590476,137.821197 C149.199647,139.749718 149.064903,140.985986 149.064903,140.985986 C149.064903,140.985986 151.60388,139.34831 152.756614,136.137394 C153.299471,134.625775 153.720988,132.262746 154.014815,130.185282 C153.397884,127.832465 152.25679,124.185986 150.459965,120.980352 C147.770723,116.186338 139.368607,111.799014 133.769312,113.392676 C133.769312,113.392676 134.797178,112.660986 137.386949,112.408169 C139.977778,112.155352 143.951323,113.520493 143.951323,113.520493 L143.209524,112.781761 C142.467372,112.042324 140.106173,111.109225 140.106173,111.109225 C140.106173,111.109225 141.454321,110.817324 145.235979,112.224718 C149.017284,113.631761 153.186596,117.915563 153.186596,117.915563 C153.186596,117.915563 153.190829,117.773662 152.335802,116.074718 C151.480776,114.377887 150.103704,112.520141 150.103704,112.520141 C150.103704,112.520141 156.520635,115.297958 160.375309,118.952887 C162.548854,121.012746 164.475838,124.127535 165.783069,126.557465 C165.777425,125.930704 165.769312,125.137394 165.759436,124.133521 C165.711817,119.549014 164.212346,109.477887 164.212346,109.477887 L167.11358,111.478239 C170.01552,113.477887 172.884303,116.528239 172.884303,116.528239 C172.884303,116.528239 172.785891,113.564859 171.837743,110.289507 C170.888183,107.013099 165.763316,96.6366901 165.763316,96.6366901 C165.763316,96.6366901 165.856085,96.7356338 168.978483,97.7873944 C172.101587,98.8402113 175.400705,100.375775 175.400705,100.375775 C175.400705,100.375775 175.257848,98.8440845 173.275838,94.9627465 C171.293827,91.0817606 163.938272,81.6852817 163.938272,81.6852817 C163.938272,81.6852817 164.225044,81.6947887 167.843034,82.1898592 C171.462081,82.6849296 173.728748,83.6152113 173.728748,83.6152113 C173.728748,83.6152113 173.266667,80.0683803 171.663492,76.2944366 C170.946384,74.608169 169.438448,72.0011268 167.988713,69.633169" id="Fill-36" fill="#FAFAFA"></path>
                <path d="M72.5977072,43.4284155 C73.4446208,44.5030634 74.2802469,45.4960211 75.0435626,46.498838 C75.4287478,46.9928521 75.8082892,47.4791197 76.1832451,47.9597535 C76.5451499,48.4439085 76.9028219,48.9224296 77.257672,49.3967254 C78.6548501,51.2914437 79.9631393,53.0991901 81.0820106,54.9597535 C82.2128748,56.8182042 83.1786596,58.6836972 83.9522046,60.7632746 C84.0047619,60.8914437 84.057672,61.0199648 84.0968254,61.1572887 L84.1620811,61.3597535 L84.1948854,61.4608099 L84.212522,61.5136268 L84.2537919,61.6231338 C84.3606702,61.9213732 84.4820106,62.1974296 84.5814815,62.5203169 C84.6813051,62.8439085 84.7821869,63.1692606 84.8834215,63.4963732 C85.0481481,64.2083451 85.2149912,64.9280634 85.3832451,65.6558803 C85.4686067,66.0227817 85.554321,66.3921479 85.6407407,66.7632746 C85.6820106,66.9548239 85.7328042,67.1234859 85.7666667,67.3358099 C85.7998236,67.552007 85.8326279,67.7685563 85.8657848,67.986162 C86.4075838,71.582993 86.9751323,75.3513028 87.5747795,79.3347535 C87.6693122,79.952007 87.7708995,80.614331 88.1426808,83.0417958 C89.0132275,81.452007 90.0975309,79.4713732 91.6188713,76.6928521 C92.4097002,75.2432042 93.3137566,73.5851056 94.3606702,71.6660915 C94.6227513,71.1759507 94.8957672,70.6932042 95.1747795,70.1491901 C95.4534392,69.5998944 95.7416226,69.0319366 96.0393298,68.4449648 C96.1881834,68.1513028 96.3395062,67.8530634 96.4932981,67.5498944 C96.6435626,67.2344014 96.796649,66.9139789 96.9518519,66.5882746 C97.2622575,65.9354577 97.5825397,65.2618662 97.9130511,64.5660915 C98.3673721,63.5660915 98.8901235,62.4150352 99.4583774,61.1639789 C99.7881834,60.4146831 100.144444,59.6055282 100.513757,58.7671479 C101.019577,57.5995423 101.561023,56.3495423 102.064374,55.1875704 C102.049559,55.2034155 102.045679,55.1847535 102.046032,55.1724296 L102.046032,55.1685563 C102.046032,55.1685563 102.045326,55.1731338 102.042857,55.1759507 C102.041446,55.1773592 102.03933,55.1784155 102.036508,55.1777113 L102.032275,55.1763028 C102.22769,55.5523592 102.431217,55.9425 102.639683,56.3435563 C103.466138,57.9572887 104.359612,59.7622183 105.190653,61.5263028 C105.606173,62.407993 106.005467,63.2794718 106.381129,64.1083451 C106.565256,64.5234859 106.744797,64.9277113 106.917637,65.3178521 C107.003704,65.5129225 107.087654,65.7041197 107.169841,65.8914437 C107.260141,66.1034155 107.347972,66.3104577 107.433686,66.5125704 C107.837213,67.4653873 108.233333,68.3974296 108.579365,69.3646831 C108.922575,70.3365141 109.255203,71.2780634 109.574427,72.1808803 C109.653086,72.4104577 109.735273,72.6213732 109.808642,72.8586972 C109.87284,73.1284155 109.936684,73.3949648 109.999824,73.6583451 C110.125397,74.1847535 110.248148,74.6981338 110.367019,75.1963732 C110.486243,75.6949648 110.60194,76.1784155 110.713404,76.6460211 C110.828042,77.1410915 110.938801,77.6192606 111.045326,78.0787676 C111.912346,81.8949648 112.5,84.482993 112.631922,85.0646831 C113.966667,82.7400352 115.113051,80.7428521 116.105996,79.0129225 C117.117284,77.2365141 117.994885,75.7692606 118.744092,74.370669 C118.92963,74.0157394 119.108113,73.6748944 119.279189,73.3477817 C119.451323,73.0252465 119.613933,72.7058803 119.765961,72.3836972 C120.073192,71.7509507 120.355026,71.1710211 120.614991,70.6344014 C121.12575,69.5414437 121.552557,68.627007 121.929982,67.8178521 C122.187125,67.2594014 122.440741,66.707993 122.691182,66.1639789 C122.847795,65.8171479 123.002293,65.4748944 123.155026,65.1368662 C123.45485,64.4657394 123.746914,63.811162 124.032275,63.1720775 C124.590653,61.9076408 125.122222,60.7034155 125.634039,59.5435563 C126.646032,57.2375704 127.583598,55.1586972 128.547266,53.1671479 C129.040741,52.1868662 129.524339,51.2044718 130.066138,50.2727817 C130.324691,49.7886268 130.618166,49.3484859 130.897884,48.8713732 C131.200176,48.4305282 131.489771,47.9509507 131.824868,47.5203169 C132.143386,47.0615141 132.502822,46.6481338 132.867901,46.2023592 C133.252381,45.795669 133.642857,45.3548239 134.090829,44.9724296 C134.971958,44.1822887 136.006173,43.4516549 137.258025,42.8967254 C135.896473,42.8005986 134.52328,42.970669 133.22134,43.327007 C132.560317,43.4932042 131.944444,43.7407394 131.317284,43.9851056 C130.7194,44.261162 130.108113,44.5379225 129.54903,44.870669 C128.96455,45.1826408 128.440741,45.548838 127.892945,45.9058803 C127.381834,46.2854577 126.844974,46.6601056 126.365961,47.0734859 C125.367725,47.8805282 124.470723,48.7660915 123.589947,49.6928521 C121.865432,51.5604577 120.314109,53.6351056 118.875661,55.9604577 C118.149383,57.1231338 117.453792,58.3491901 116.766314,59.6449648 C116.420635,60.2932042 116.083422,60.9576408 115.74127,61.6417958 C115.573721,61.9833451 115.404409,62.3294718 115.232981,62.6798239 C115.157848,62.8351056 115.082716,62.9917958 115.006526,63.148838 C115.004762,63.1491901 115.00194,63.1491901 115.00194,63.1491901 C114.994533,63.1495423 114.99418,63.1175 115.007231,63.1034155 C115.006526,63.0932042 115.018519,63.1210211 115.024162,63.1287676 C114.952557,62.9590493 114.879541,62.7851056 114.804762,62.6069366 C114.717284,62.4069366 114.628042,62.2027113 114.537037,61.9949648 C114.353263,61.5798239 114.163139,61.1498944 113.968078,60.7086972 C113.570899,59.8305282 113.147972,58.9118662 112.708818,57.9844014 C111.830864,56.1305282 110.887302,54.2425 110.010053,52.548838 C109.787125,52.1259507 109.570547,51.7146831 109.361728,51.3185563 C108.955379,50.5470775 108.558907,49.8041197 108.16843,49.1217254 C107.779012,48.4389789 107.410053,47.7921479 107.065432,47.1879225 C106.719753,46.589331 106.405115,46.0069366 106.102469,45.5414437 C104.907407,43.6266549 104.178307,42.457993 104.178307,42.457993 C104.178307,42.457993 103.983951,42.148838 101.829453,38.7175 C101.775838,38.6312324 101.679894,38.4773592 101.54515,38.2618662 C101.478131,38.1541197 101.401235,38.0308803 101.31552,37.8935563 C101.272487,37.8248944 101.227337,37.7527113 101.180071,37.677007 C101.15679,37.6400352 101.132804,37.602007 101.108818,37.5629225 L101.072134,37.5041197 C101.060494,37.5037676 101.05097,37.5421479 101.040035,37.5594014 C100.702822,38.2766549 100.254145,39.2305282 99.7215168,40.3618662 C99.1938272,41.4851056 98.5828924,42.7851056 97.9165785,44.2034155 C97.5835979,44.9175 97.2368607,45.661162 96.8795414,46.4273592 C96.5261023,47.2083451 96.1627866,48.0125704 95.7920635,48.8319366 C94.3271605,52.1748944 92.6417989,56.020669 91.5910053,58.4182042 C91.608642,58.3910915 91.613933,58.3946127 91.6097002,58.4259507 C91.6089947,58.4319366 91.608642,58.4351056 91.608642,58.4351056 C91.6047619,58.4530634 91.5917108,58.5062324 91.5497354,58.5322887 C91.5289242,58.5453169 91.4992945,58.5523592 91.4608466,58.5467254 C91.4410935,58.5467254 91.4181658,58.5414437 91.380776,58.498838 L91.3744268,58.4925 L91.3440917,58.4294718 L91.2820106,58.2998944 L91.1578483,58.0425 C91.0795414,57.8703169 90.9850088,57.7044718 90.8901235,57.5400352 C89.4379189,54.8713732 87.6058201,52.7407394 85.6837743,51.0284155 C83.7589065,49.2977817 81.7056437,47.9798239 79.5546737,46.7650352 C79.012522,46.4678521 78.4689594,46.1678521 77.9134039,45.8791197 C77.3522046,45.6051761 76.7839506,45.3277113 76.207231,45.0460211 C75.0608466,44.4826408 73.8414462,43.9777113 72.5977072,43.4284155" id="Fill-38" fill="#FEFEFE"></path>
                <path d="M107.69933,178.031197 C107.691922,178.268521 108.54448,180.049859 107.974815,181.456549 C107.404797,182.861479 106.150123,183.202324 105.297566,182.938239 C104.445362,182.673803 103.84254,182.085423 103.84254,182.085423 C103.84254,182.085423 102.649594,183.519225 101.26194,183.523099 C99.8749912,183.527324 97.9998589,181.712887 97.9998589,181.712887 C97.9998589,181.712887 97.5755203,179.373803 96.695097,178.492817 C95.8136155,177.611479 94.7314286,177.055493 94.7314286,177.055493 C94.7314286,177.055493 93.3473016,178.482958 93.0880423,179.139296 C92.8280776,179.79493 92.6277249,180.073803 92.6277249,180.073803 C92.6277249,180.073803 89.6047972,178.887183 88.5508289,177.431197 C88.5430688,177.668169 87.5804586,179.393169 88.0612346,180.831901 C88.5423633,182.269577 89.7723457,182.688944 90.6393651,182.47838 C91.5067372,182.267817 92.1458907,181.719225 92.1458907,181.719225 C92.1458907,181.719225 93.2464198,183.223803 94.630194,183.316056 C96.0139683,183.406901 97.9998589,181.712887 97.9998589,181.712887 C97.9998589,181.712887 98.5709347,179.405845 99.5049735,178.580845 C100.439012,177.756197 101.554709,177.269577 101.554709,177.269577 C101.554709,177.269577 102.846067,178.780845 103.064056,179.451268 C103.282046,180.122746 103.464056,180.413944 103.464056,180.413944 C103.464056,180.413944 106.556473,179.418169 107.69933,178.031197" id="Fill-40" fill="#FEFEFE"></path>
                <path d="M98.242716,76.2348944 C98.242716,76.1162324 98.2420106,76.0729225 98.3587654,75.9155282 C99.0405996,74.8327817 100.807795,73.2127113 102.974991,75.7757394 C103.014497,75.8229225 103.159118,76.0472183 103.180988,76.1616549 C103.222963,78.9070775 103.226843,81.6500352 103.201446,84.3898239 C103.158765,88.9637676 103.045538,93.5303169 102.89351,98.087007 L102.73619,102.649331 C102.73619,102.649331 102.54254,104.521162 102.226843,107.043697 C101.910794,109.566585 101.474815,112.738415 101.004268,115.349683 C99.6511817,124.220458 98.6765785,120.633838 98.282575,115.0775 C98.217672,115.36412 98.1065608,112.048275 98.016261,108.66412 C97.9308995,105.28243 97.8434215,101.830317 97.8434215,101.830317 L97.9756966,97.930669 C98.1220811,93.3975704 98.2289594,88.871162 98.2663492,84.3503873 C98.2903351,81.6422887 98.2850441,78.937007 98.242716,76.2348944" id="Fill-42" fill="#231F20"></path>
                <path d="M90.5450794,144.461197 C95.1327337,143.23338 97.0762963,145.928803 99.8875838,145.617183 C102.685115,145.704155 104.610335,142.505211 108.532734,145.02493" id="Fill-44" fill="#231F20"></path>
                <path d="M90.5450794,144.461549 C91.4590123,144.460493 92.1881129,144.533732 92.9221517,144.645 C93.6583069,144.76507 94.3870547,144.933028 95.3404938,145.242887 C95.5023986,145.294296 95.7154497,145.364014 96.0300882,145.479155 C96.3457848,145.589718 96.7591887,145.754507 97.3651852,145.953803 C97.6145679,146.037606 98.0516049,146.170704 98.4530159,146.235141 C98.6519577,146.271408 98.834321,146.300282 98.9736508,146.303451 C99.1108642,146.312606 99.195873,146.317887 99.195873,146.317887 C99.195873,146.317887 99.267478,146.325986 99.3842328,146.328803 C99.5006349,146.323873 99.6625397,146.317183 99.8441975,146.309437 C100.00328,146.303451 100.179647,146.297113 100.351076,146.290775 C100.554603,146.287254 100.738025,146.236901 100.897108,146.21507 C101.81351,146.029507 102.427972,145.715423 102.905573,145.518239 C103.381764,145.307676 103.710864,145.173169 103.939083,145.086901 C104.85478,144.745 105.52709,144.623169 106.236437,144.620352 C106.940847,144.625282 107.662187,144.747465 108.532734,145.025282 C107.900635,144.380915 107.242787,143.89007 106.400106,143.625986 C105.563774,143.360141 104.526737,143.400634 103.463245,143.798169 C103.201517,143.893944 102.82515,144.046056 102.354603,144.252746 C101.880882,144.45169 101.307337,144.727042 100.633968,144.857676 C100.520035,144.869648 100.381058,144.912958 100.242787,144.911901 C100.072769,144.919648 99.8981658,144.927394 99.7401411,144.934437 C99.6046914,144.941831 99.4840564,144.948873 99.397284,144.953451 C99.3108642,144.952042 99.2583069,144.946056 99.2583069,144.946056 C99.2583069,144.946056 99.1955203,144.941127 99.0946384,144.93338 C98.9948148,144.931972 98.8540741,144.90662 98.699224,144.877042 C98.3909347,144.825986 98.0177425,144.711549 97.7909347,144.64007 C96.699224,144.267887 96.1119224,144.030211 95.7538977,143.933028 C94.6949912,143.597817 93.762716,143.523873 92.9295591,143.637254 C92.0932275,143.755915 91.3454321,144.036549 90.5450794,144.461549" id="Fill-46" fill="#FEFEFE"></path>
                <path d="M71.6486772,90.2946479 C71.1964727,90.3742254 70.794709,90.4777465 70.4878307,90.695 C70.3291005,90.7995775 70.1798942,90.9217606 70.0641975,91.0876056 C69.945679,91.251338 69.8261023,91.4337324 69.756261,91.6721127 C69.7199295,91.8009859 69.6402116,91.9830282 69.5992945,92.2340845 C69.5756614,92.3580282 69.5499118,92.4939437 69.5220459,92.6393662 C69.5104056,92.788662 69.49806,92.948169 69.4853616,93.1147183 C69.4553792,93.7847887 69.5911817,94.5932394 69.9037037,95.2830282 C70.2074074,95.9780986 70.6603175,96.5390141 71.0310406,96.8985211 C71.4014109,97.2619014 71.6783069,97.4488732 71.6783069,97.4488732 C71.6783069,97.4488732 71.940388,97.6559155 72.3954145,97.9020423 C72.8518519,98.1414789 73.513933,98.4048592 74.2656085,98.4978169 C75.0126984,98.6038028 75.8465608,98.5006338 76.5005291,98.2383099 C76.6610229,98.1671831 76.8190476,98.1069718 76.956261,98.0305634 C77.091358,97.9499296 77.2176367,97.8742254 77.3326279,97.8055634 C77.5492063,97.6506338 77.7142857,97.5126056 77.8218695,97.42 C78.1975309,97.0548592 78.3781305,96.6721127 78.4194004,96.2823239 C78.4338624,96.0844366 78.4352734,95.8911268 78.3929453,95.6872535 C78.3481481,95.4823239 78.2825397,95.273169 78.1985891,95.0601408 C77.982716,95.1460563 77.7890653,95.223169 77.6130511,95.2932394 C77.4416226,95.3597887 77.2765432,95.4069718 77.1432099,95.4685915 C76.8659612,95.5840845 76.64903,95.6967606 76.4419753,95.8883099 C76.3820106,95.9333803 76.2917108,96.0009859 76.1798942,96.0847887 C76.119224,96.1182394 76.0536155,96.1559155 75.9848325,96.1985211 C75.9142857,96.238662 75.8306878,96.2640141 75.7495591,96.3034507 C75.4137566,96.4372535 74.9657848,96.5027465 74.5199295,96.4404225 C74.0744268,96.3876056 73.6525573,96.2256338 73.3597884,96.0752817 C73.0680776,95.9189437 72.8987654,95.7876056 72.8987654,95.7876056 C72.8987654,95.7876056 72.7216931,95.6650704 72.4895944,95.4340845 C72.2553792,95.2059155 71.9791887,94.8552113 71.8031746,94.4453521 C71.6218695,94.0376056 71.5477954,93.5812676 71.5619048,93.1893662 C71.5686067,93.0907746 71.5753086,92.9971127 71.5809524,92.9087324 C71.5978836,92.8203521 71.6134039,92.7376056 71.627866,92.6622535 C71.6451499,92.510493 71.7022928,92.3904225 71.719224,92.3083803 C71.912522,91.7115493 71.7873016,91.2369014 71.6486772,90.2946479" id="Fill-48" fill="#FEFEFE"></path>
                <path d="M121.24515,97.1644366 C121.2,97.6207746 121.191182,98.0348592 121.317813,98.3883803 C121.376367,98.5693662 121.453968,98.7454225 121.582716,98.9014085 C121.708289,99.059507 121.852205,99.2239437 122.063139,99.3552817 C122.177778,99.425 122.331922,99.5510563 122.562963,99.6580986 C122.67619,99.7140845 122.8,99.7757042 122.932981,99.8415493 C123.074074,99.8929577 123.224339,99.9478873 123.382011,100.005282 C124.019753,100.214789 124.836684,100.302465 125.586243,100.188028 C126.338624,100.083803 127.002116,99.7996479 127.448677,99.5401408 C127.899118,99.2820423 128.154497,99.0661972 128.154497,99.0661972 C128.154497,99.0661972 128.424691,98.8700704 128.785185,98.4992958 C129.13933,98.125 129.571429,97.5598592 129.864198,96.8623239 C130.167901,96.1725352 130.293122,95.3429577 130.216578,94.6440141 C130.191182,94.4704225 130.175661,94.3024648 130.13933,94.1496479 C130.097707,93.9982394 130.058907,93.856338 130.023633,93.7274648 C129.932628,93.4774648 129.843739,93.281338 129.784127,93.1528169 C129.532981,92.6933099 129.212346,92.4165493 128.847619,92.2714789 C128.660317,92.2045775 128.474427,92.1507042 128.266314,92.1366197 C128.05679,92.1242958 127.837037,92.1309859 127.609171,92.1538732 C127.63351,92.384507 127.655732,92.5915493 127.675838,92.7799296 C127.693827,92.9623239 127.694533,93.1341549 127.718519,93.2785211 C127.754497,93.5764085 127.804938,93.8151408 127.934039,94.0658451 C127.961199,94.1359155 128.002116,94.2408451 128.05291,94.3711268 C128.068783,94.4383803 128.087125,94.5116197 128.110053,94.5894366 C128.129806,94.6679577 128.131217,94.7549296 128.147443,94.8440141 C128.185891,95.2024648 128.128395,95.6510563 127.948148,96.0630282 C127.777072,96.4764085 127.506878,96.8387324 127.282892,97.0795775 C127.053263,97.3179577 126.881129,97.4450704 126.881129,97.4450704 C126.881129,97.4450704 126.715344,97.5823944 126.42963,97.7433099 C126.146737,97.9066901 125.733686,98.0778169 125.291005,98.1362676 C124.848677,98.2003521 124.38836,98.1485915 124.014462,98.0292254 C123.920988,97.9961268 123.832099,97.9647887 123.748854,97.9352113 C123.667725,97.8950704 123.59224,97.8577465 123.523457,97.8235915 C123.381658,97.7658451 123.281129,97.6785211 123.206702,97.640493 C122.683245,97.293662 122.191534,97.2855634 121.24515,97.1644366" id="Fill-50" fill="#FEFEFE"></path>
            </g>
        </g>
    </g>
</svg>