<?xml version="1.0" encoding="UTF-8"?>
<svg width="200px" height="200px" viewBox="0 0 200 200" version="1.1" xmlns="http://www.w3.org/2000/svg" xmlns:xlink="http://www.w3.org/1999/xlink">
    <!-- Generator: Sketch 51.3 (57544) - http://www.bohemiancoding.com/sketch -->
    <title>west-va-wesleyan</title>
    <desc>Created with Sketch.</desc>
    <defs></defs>
    <g id="west-va-wesleyan" stroke="none" stroke-width="1" fill="none" fill-rule="evenodd">
        <g id="west-va-wesleyan_BGL" transform="translate(-2.000000, 36.000000)">
            <g id="west-va-wesleyan" transform="translate(0.994975, 0.180905)">
                <g id="g10" transform="translate(100.618430, 64.136140) scale(-1, 1) rotate(-180.000000) translate(-100.618430, -64.136140) translate(0.463679, 0.612062)" fill-rule="nonzero">
                    <g id="g12" transform="translate(0.834623, 0.000000)">
                        <path d="M100.668507,68.7955562 C98.6459377,63.3629029 96.7865833,58.3736198 94.9309384,53.3825748 C92.7058337,47.3945262 90.4573595,41.4149167 88.2870617,35.4070227 C87.9248354,34.4042696 87.4676475,34.0557682 86.3935805,34.0648563 C80.0517446,34.1173448 73.7087032,34.1155828 67.3671455,34.0655982 C66.3198792,34.0565101 65.8280081,34.3010546 65.5102949,35.3732668 C58.587376,58.703945 51.6118759,82.0183944 44.6925736,105.349815 C44.3281216,106.579492 43.8188162,107.063574 42.5222758,106.952291 C41.0867244,106.828024 39.629751,106.968056 38.1861316,106.907777 C37.3037497,106.870683 37.0411216,107.185058 37.0461294,108.053065 C37.0770104,113.727574 37.0846148,119.402082 37.0411216,125.076591 C37.0335173,126.087412 37.4345072,126.248772 38.3187439,126.246918 C51.3931119,126.224661 64.4670163,126.213533 77.5409207,126.261755 C78.779872,126.266392 78.850815,125.735943 78.8461782,124.777981 C78.8175228,119.325112 78.7849725,113.872242 78.8663946,108.421227 C78.8859619,107.10345 78.448434,106.75569 77.2533467,106.909632 C76.6599298,106.986603 76.0481512,106.923542 75.2367123,106.923542 C77.2558506,99.7142551 79.2272299,92.6743035 81.1989802,85.6350938 C81.3246373,85.6187722 81.4500162,85.6020798 81.5760443,85.5857583 C83.5485365,92.6351689 85.5213068,99.6845796 87.5010324,106.758473 C87.2133657,106.831734 87.0586822,106.899431 86.9000112,106.908705 C83.9187381,107.082121 83.9183671,107.080266 83.9183671,110.020921 C83.9187381,114.861734 83.9524012,119.702547 83.8955541,124.541505 C83.8807164,125.771183 84.1002222,126.274738 85.5151863,126.26732 C97.0314061,126.203332 108.548275,126.207041 120.064217,126.26361 C121.431143,126.271029 121.722334,125.833316 121.703787,124.565616 C121.628671,119.281526 121.589722,113.995581 121.678748,108.712418 C121.703787,107.205459 121.269783,106.696339 119.817539,106.911487 C119.229594,106.998658 118.617537,106.926324 117.842265,106.926324 C119.918621,99.7689692 121.939336,92.8017226 123.951705,85.8633168 C124.758507,85.8597001 124.674117,86.4689748 124.778909,86.8218348 C126.635481,93.0493274 128.420647,99.2969436 130.323587,105.510248 C130.740898,106.869756 130.2698,106.962491 129.147696,106.943017 C126.833936,106.901286 126.833008,106.947654 126.833936,109.331893 C126.833936,114.505628 126.864539,119.68029 126.80797,124.854025 C126.796841,125.956654 127.11678,126.258046 128.211064,126.254337 C139.89393,126.21817 151.576796,126.216315 163.26059,126.255264 C164.412369,126.258973 164.783313,125.950163 164.771257,124.770563 C164.714688,119.262979 164.710979,113.755395 164.774966,108.247811 C164.787949,107.082121 164.357655,106.854918 163.333851,106.904995 C161.889953,106.976402 160.436782,106.85399 158.996594,106.946726 C157.915293,107.015351 157.484999,106.62957 157.15115,105.59 C152.349286,90.6779782 147.49178,75.7847813 142.650968,60.884722 C139.888366,52.3784306 137.11649,43.8735303 134.397474,35.3526795 C134.091446,34.3945324 133.688972,34.0565101 132.662386,34.0648563 C126.26361,34.1155828 119.865762,34.1228162 113.468841,34.0593849 C112.344882,34.0485348 111.963737,34.4778092 111.646581,35.4558945 C108.215353,46.0234263 104.74054,56.5768621 101.275927,67.1335438 C101.139606,67.5479804 100.977318,67.9536999 100.668507,68.7955562" id="path14" fill="#EF3E20"></path>
                        <path d="M0.0923736306,0 C11.2417216,8.85084223 22.6294095,17.0615472 34.603559,24.4721641 C41.8267567,28.9437028 49.1148696,27.981939 56.6297216,26.0004514 C59.124595,25.341934 61.4154494,24.2641576 63.6287767,22.9485136 C69.2186173,19.6256016 75.3211019,17.5810536 81.5724276,15.9357336 C81.9390125,15.8401229 82.331749,15.841143 82.8500498,16.0961667 C81.326492,16.8612377 79.8086839,17.6393845 78.277429,18.3896178 C76.7548913,19.1343796 75.218907,19.8530827 73.4855806,20.6782465 C80.1201837,21.3821119 86.4769501,22.246503 92.7898524,23.4234141 C95.7368132,23.972225 98.6431557,23.6613743 101.536515,22.8920375 C104.64224,22.0664099 107.712725,21.0962999 111.001139,20.5736405 C102.230179,15.8567227 93.3655567,11.7143964 83.8495571,9.0566046 C85.679236,8.6066872 87.380383,9.05007599 89.08153,9.40147079 C94.4950797,10.518289 99.7179645,12.1411669 104.56156,14.903676 C108.583515,17.1970343 112.913353,18.7844871 117.351692,20.0986473 C125.713686,22.5739534 134.105356,24.9626442 142.399653,27.6490172 C150.69395,30.3365957 158.405866,28.5934394 165.384241,24.258037 C176.99941,17.0413308 187.769755,8.56974123 198.75432,0.430352907 C198.875804,0.340515023 198.952775,0.190180888 199.105789,0 C132.714318,0 66.4032487,0 0.0923736306,0" id="path16" fill="#EF3E20"></path>
                        <path d="M125.430842,57.1673115 C127.305961,63.2625627 129.193137,69.3541044 131.051564,75.4543634 C134.450334,86.6131791 138.030866,97.7176516 141.014179,108.999899 C141.384195,110.399283 141.598415,111.817215 141.673531,113.272241 C141.764413,115.046278 140.916807,115.992184 139.277236,116.323251 C138.46487,116.486466 137.628392,116.534689 136.80397,116.634844 C136.234572,116.705323 135.322051,116.448445 135.319269,117.258956 C135.314632,118.190024 136.280013,117.92109 136.891142,117.97024 C137.443848,118.014754 138.003973,117.982296 138.558533,117.966531 C143.727631,117.815372 148.893947,117.646592 154.062118,117.964676 C154.559182,117.995279 155.066447,117.979514 155.558875,117.913672 C155.881596,117.870086 156.223791,117.704088 156.173714,117.277503 C156.140329,116.986313 155.930746,116.786003 155.643264,116.705323 C155.484686,116.661737 155.314052,116.634844 155.150837,116.64319 C150.959175,116.842572 148.94217,114.187544 147.591008,110.7795 C144.292393,102.460164 141.750502,93.8802409 138.926695,85.3966698 C134.595002,72.3799835 130.581393,59.2574855 125.929761,46.346889 C125.517086,45.2011372 125.061753,44.0539016 124.471026,42.9925395 C123.801473,41.7898479 122.867622,41.7717644 122.205488,42.9733432 C121.540572,44.1814135 121.022178,45.4854654 120.561281,46.7896101 C114.307173,64.4909421 108.074395,82.1991367 101.834197,99.9043636 C101.598648,100.572989 101.335278,101.231414 101.070054,101.93157 C100.417193,101.502203 100.393082,100.839141 100.186281,100.290145 C93.278385,82.0005891 86.385327,63.7063039 79.4771531,45.4177682 C79.1641695,44.5900078 78.8157608,43.7539938 78.3401185,43.0142397 C77.5079994,41.7180703 76.4665755,41.7499714 75.8507165,43.1508396 C75.1605761,44.7211363 74.6255828,46.3675691 74.1303732,48.0140019 C68.1004081,68.067765 62.0921431,88.1281124 56.0700606,108.18475 C55.7671852,109.194644 55.4013421,110.185991 55.0543245,111.181974 C53.8067487,114.764361 51.246682,116.517069 47.4905079,116.598677 C47.2684982,116.603314 47.042779,116.600531 46.824757,116.635771 C46.2795628,116.724798 45.3742751,116.396513 45.4195302,117.31367 C45.4594066,118.122327 46.3291764,117.980441 46.9030261,117.967458 C54.1849256,117.801461 61.4665469,117.72449 68.7488173,117.964676 C69.3287875,117.983223 70.2394539,118.085233 70.2492839,117.329435 C70.261896,116.353854 69.2776901,116.72758 68.6813984,116.64319 C68.0228809,116.549527 67.3439615,116.56251 66.6999108,116.418769 C64.7520864,115.980128 63.9932287,114.899755 64.3409882,112.904079 C65.2766005,107.534672 66.664022,102.268201 68.1188625,97.0212051 C71.81346,83.6952446 75.5286448,70.3753119 79.2529177,56.9905569 C80.0042639,57.2307428 79.9477877,57.8835107 80.1169379,58.3373601 C87.0438445,76.9156954 93.9507201,95.5021914 100.870671,114.08368 C101.218431,115.01753 101.615341,115.939325 102.067892,116.826807 C102.584431,117.839483 103.268821,117.797752 103.75383,116.833299 C104.325083,115.696357 104.811019,114.506555 105.233895,113.304698 C111.572392,95.2805526 117.895124,77.2508428 124.222493,59.2219676 C124.471953,58.5130946 124.73625,57.8103421 124.994056,57.1039729 C125.139651,57.1245602 125.285247,57.1463532 125.430842,57.1673115" id="path18" fill="#FFFFFF"></path>
                    </g>
                </g>
            </g>
        </g>
    </g>
</svg>