<?xml version="1.0" encoding="UTF-8"?>
<svg width="200px" height="200px" viewBox="0 0 200 200" version="1.1" xmlns="http://www.w3.org/2000/svg" xmlns:xlink="http://www.w3.org/1999/xlink">
    <!-- Generator: Sketch 51.3 (57544) - http://www.bohemiancoding.com/sketch -->
    <title>west-virginia-st</title>
    <desc>Created with Sketch.</desc>
    <defs></defs>
    <g id="west-virginia-st" stroke="none" stroke-width="1" fill="none" fill-rule="evenodd">
        <g id="west-virginia-st_BGL" transform="translate(18.000000, 0.000000)">
            <g id="west-virginia-st" transform="translate(0.000000, -1.000025)">
                <g id="g10" transform="translate(82.089552, 100.940705) scale(-1, 1) rotate(-180.000000) translate(-82.089552, -100.940705) translate(0.000000, 0.938205)" fill-rule="nonzero">
                    <g id="g12">
                        <path d="M14.175031,156.932084 C18.08295,157.364183 21.7480235,156.329216 25.3734838,155.091567 C26.852086,154.587021 28.3616898,154.244619 29.9057398,154.069537 C31.9888725,153.832357 33.7904076,152.841376 35.6401674,151.984078 C38.2701332,150.767129 40.9095717,149.563117 43.1959368,147.730363 C43.4861458,147.497495 43.8237184,147.303439 44.1699025,147.166305 C44.4222208,147.066259 44.6874563,146.728169 44.9716373,146.975699 C45.2644298,147.230991 45.3626014,147.615654 45.2928479,148.015841 C45.2756248,148.115888 45.2558183,148.223697 45.2050102,148.308219 C43.4801178,151.174216 43.1511568,154.462825 42.4915124,157.631549 C42.0841864,159.589362 41.8843985,161.599786 41.7405857,163.612798 C41.4099024,168.267563 42.3029196,172.742934 43.4275873,177.20968 C44.7477372,182.448339 50.3314628,183.331511 53.8888919,181.202928 C56.766009,179.481433 59.5518437,177.514133 61.4618843,174.793894 C66.5625023,167.528424 70.937167,159.819643 74.4670392,151.648576 C74.9725369,150.479063 75.0414292,149.212091 75.4530611,148.022741 C75.7174355,147.257728 76.1635135,147.063671 76.8412421,147.249103 C78.6272765,147.738987 80.0869333,148.790342 81.43464,150.016778 C81.89708,150.436802 81.9151642,151.066407 82.0555324,151.60114 C83.0191643,155.265787 85.4174795,157.895466 88.1921192,160.253466 C88.8405685,160.804586 89.6044125,161.217711 90.2890303,161.728295 C91.6126248,162.714101 93.1549524,163.093589 94.7317263,163.367855 C95.6118261,163.521375 96.1767435,163.984523 96.5522068,164.79611 C98.7007872,169.451738 101.3807,173.8193 104.079558,178.155812 C105.391096,180.261971 107.253773,182.03004 109.173287,183.6696 C111.15997,185.365222 113.095845,187.120354 115.066167,188.834949 C117.796027,191.211062 121.062385,192.746263 124.100538,194.641978 C128.363253,197.301844 133.200358,198.061682 137.939291,199.178585 C138.929618,199.412315 139.935447,199.600334 140.960221,199.598609 C143.200083,199.596021 144.424645,197.924549 144.068127,195.69592 C143.763279,193.797617 142.562829,193.057616 140.938692,192.527195 C139.40842,192.027823 137.82648,192.182206 136.27554,191.975213 C134.824495,191.781156 133.388951,191.655235 131.990436,191.145514 C130.687509,190.671154 129.327746,190.327027 127.971428,190.024299 C125.80218,189.53959 123.830136,188.567583 121.824507,187.670611 C121.017605,187.310098 120.221899,186.928885 119.420164,186.559746 C117.568682,185.708486 116.121942,184.271606 114.560669,183.033958 C113.010591,181.803209 111.722304,180.250759 110.19031,178.960499 C108.258741,177.333876 106.82578,175.260491 105.469461,173.137084 C103.944357,170.745447 102.360694,168.391759 100.822672,166.008747 C100.208669,165.056577 100.316313,164.823709 101.393617,164.557205 C101.657131,164.49252 101.935283,164.401098 102.196213,164.427834 C104.716812,164.689163 107.058291,163.972449 109.367047,163.109976 C110.36168,162.73825 111.392482,162.537294 112.42759,162.392399 C114.062061,162.162118 115.461437,162.7555 116.353593,164.113894 C119.72329,169.237845 124.413137,172.989601 129.188239,176.65511 C132.986791,179.57113 136.756926,182.558735 141.083366,184.668344 C144.984396,186.570959 148.952595,188.344202 152.945769,190.042411 C154.757638,190.812599 156.809769,190.685816 158.722393,191.121365 C159.667079,191.33612 160.616072,191.395631 161.57712,191.34647 C163.610306,191.242111 164.561881,189.852667 163.947017,187.925041 C163.685226,187.103967 163.289095,186.35534 162.795654,185.659325 C162.266905,184.915011 161.582287,184.30438 160.639323,184.308693 C159.208945,184.31473 157.908602,183.810183 156.573812,183.444495 C152.26029,182.26032 147.880458,181.378873 143.487709,180.560386 C142.202867,180.321481 141.239235,179.443484 140.112845,178.893226 C137.098804,177.422711 134.433531,175.364851 131.525412,173.704591 C129.670486,172.645474 128.098017,171.082674 126.429961,169.705305 C124.205599,167.8691 122.001905,166.006159 119.818017,164.119931 C119.531253,163.873264 118.927584,163.693007 119.19368,163.094451 C119.436526,162.548506 119.836963,162.276827 120.495746,162.348413 C121.11061,162.414823 121.719446,162.155219 122.212888,161.836104 C123.444339,161.041766 124.781712,161.188387 126.072582,161.375543 C129.322579,161.845591 132.526935,161.908551 135.67101,160.808036 C136.21526,160.616567 136.780177,160.422511 137.258979,160.111158 C140.546005,157.978263 143.153581,155.260612 144.397088,151.445033 C144.975784,149.669201 144.782024,147.867496 144.258442,146.117539 C144.095684,145.571593 144.193856,145.198143 144.602904,144.979075 C146.847934,143.772475 147.836539,141.287691 149.868864,139.837875 C150.525063,139.370415 150.833357,138.371671 151.218293,137.576471 C152.137145,135.685069 153.214449,133.834202 153.836202,131.84534 C154.464845,129.833191 155.198549,127.821043 155.284664,125.637262 C155.391447,122.906673 155.623959,120.171772 155.789301,117.446358 C155.962393,114.590711 155.201132,111.800612 153.540826,109.328765 C149.974786,104.020246 144.724327,101.376767 138.763416,99.8320783 C136.316015,99.1972984 133.786804,99.1145011 131.293762,98.7919363 C131.02422,98.7565749 130.556614,98.98858 130.529918,98.5685558 C130.506667,98.2192544 130.586754,97.8035425 130.981163,97.5111643 C131.740701,96.9479696 132.532963,96.5288079 133.489706,96.4813719 C136.197175,96.3459637 138.367285,95.0065435 140.494336,93.4773794 C141.471746,92.7761891 142.51891,92.1819454 143.229363,91.1857895 C143.857144,90.3052048 144.839722,90.0145515 145.756851,89.7420101 C148.033744,89.0649691 149.297918,87.3969469 150.283079,85.4211944 C150.662848,84.6621321 150.960808,83.8599463 151.246711,83.0594854 C151.500751,82.3456167 151.325076,81.6434777 151.05209,80.9612618 C150.307191,79.1059105 150.624096,77.5389701 152.297319,76.4454409 C154.324477,75.1213728 154.839447,72.9237923 155.816858,70.9885761 C156.106206,70.415808 155.761744,69.7612774 155.35614,69.388603 C153.753532,67.9109285 153.661388,66.0371203 153.820702,64.0806872 C153.888733,63.2418462 153.645887,62.5380685 153.120583,61.8918177 C152.801095,61.4969777 152.590112,61.060394 152.515191,60.5135863 C152.249956,58.5669854 150.899666,57.2311014 149.669076,55.8744319 C148.677887,54.7818514 147.656558,53.6252755 146.41994,52.8756143 C145.315079,52.2062492 144.153381,51.5455089 142.959821,51.0290602 C142.158948,50.6830362 141.281431,51.1672283 140.503809,51.5051451 C139.454062,51.961307 138.382785,52.1631256 137.238311,52.2580838 C136.04389,52.3571819 135.138816,53.2903774 134.697044,54.2599692 C133.981425,55.8295833 132.762891,56.652296 131.346292,57.364871 C128.85325,58.619855 127.896507,60.5222973 128.351197,63.2883335 C128.459702,63.9489876 128.339141,64.5820426 128.078211,65.1907758 C127.502099,66.5353708 127.273032,67.9285229 127.32384,69.3970552 C127.348813,70.100143 127.178305,70.8178065 127.037936,71.5161506 C126.91393,72.136441 126.621999,72.5770783 125.88485,72.7202488 C124.607758,72.9695897 124.314105,74.073641 124.045425,75.1446596 C123.782772,76.1873028 123.807746,77.2542678 123.854248,78.3114869 C123.878361,78.8586395 123.698379,79.2154445 123.275552,79.5250722 C122.813112,79.8649727 122.332588,80.1917636 122.180164,80.8180913 C121.997599,81.5649927 121.497268,81.5561954 121.0288,81.1441922 C118.862136,79.23968 116.132276,78.9843018 113.47992,78.4920886 C111.953955,78.2091113 110.424544,78.6325854 108.895995,78.4806178 C108.251851,78.4169673 107.576706,78.4291281 107.16938,77.8216886 C105.994766,76.0667291 104.191508,75.137846 102.421836,74.1682542 C101.013848,73.3974624 99.6161944,72.610801 98.2659042,71.7351325 C97.7827966,71.4221411 97.5804253,71.0444643 97.584731,70.4673838 C97.5933426,69.1747097 97.3608309,67.8540053 98.7447061,66.9837703 C99.2278138,66.6802662 99.2605376,65.9781271 99.4474082,65.437443 C99.8685127,64.221529 100.386067,63.9136262 101.517624,64.4570703 C102.746491,65.0469154 103.963302,64.7390126 105.215421,64.7275417 C108.508476,64.7009776 111.114329,62.8466612 113.74085,61.3582058 C115.862735,60.1547977 118.236938,59.2020241 119.975608,57.3450341 C120.959047,56.296181 121.769393,55.0914791 121.728919,53.6545996 C121.683278,52.0546265 122.199109,50.7763557 123.255746,49.6861902 C124.856632,48.0330025 126.380875,46.3535094 127.484876,44.2852999 C128.005013,43.3088945 129.2933,43.4989835 130.281044,43.3348549 C131.050916,43.205484 131.846623,43.2280808 132.613912,43.087584 C133.789387,42.8709309 134.787465,42.3241232 135.483278,41.2979531 C136.000832,40.5328536 136.571778,39.8041504 137.076414,39.0302537 C137.444127,38.4652478 137.641331,37.8935146 137.525937,37.1321237 C137.321843,35.7882187 137.644776,34.3961878 137.276202,33.0448656 C136.762093,31.1534629 136.008582,29.4241189 134.04515,28.6273666 C133.462149,28.3901866 133.304557,28.0872862 133.347615,27.5001148 C133.390673,26.923983 133.33642,26.3363803 133.273556,25.7596448 C133.25461,25.581113 133.203802,25.4557095 133.351921,25.3102103 C134.496395,24.1812335 135.676177,23.0909818 137.355428,22.8588904 C139.969893,22.4977731 142.181338,21.4446076 143.766723,19.2573769 C144.21194,18.6458837 144.867279,18.7941428 145.202268,19.166731 C146.670536,20.8011168 148.689943,21.0254459 150.630985,21.4728967 C152.740814,21.9576927 154.636215,21.4213209 156.250018,20.0602527 C158.322817,18.3110718 158.790424,15.9143464 158.500215,13.3656533 C158.345207,11.9977716 157.902574,10.6757734 157.354018,9.38206436 C156.337856,6.98602893 154.727497,5.54306897 152.05878,5.19471624 C150.482006,4.98954261 148.942262,4.59434899 147.333625,4.8126667 C146.935772,4.86690761 146.605088,4.83321943 146.337269,4.34336081 C143.844227,-0.228420549 138.583434,-1.33851452 134.399085,1.79300314 C133.465593,2.49342585 132.491628,3.1567881 131.645974,3.95288491 C129.984807,5.51645306 128.022236,5.42481533 126.016607,5.11891351 C123.931752,4.80054034 121.867565,4.3521149 119.73793,4.3908658 C119.047284,4.40299217 118.379028,4.48755762 117.724551,4.65903444 C116.862535,4.88341534 116.109025,5.2583926 115.719783,6.1771244 C115.468326,6.77041075 115.022248,7.26364164 114.612338,7.77337164 C113.66593,8.94815434 113.429112,10.295423 113.581537,11.8098388 C113.816632,14.147916 114.229125,16.4965155 113.725349,18.8598632 C113.583259,19.5282795 113.098429,20.067325 113.059677,20.7700677 C113.044176,21.0608073 112.83836,21.1295464 112.567097,21.1825022 C111.489792,21.3910481 110.558884,21.9620913 109.578891,22.4225654 C108.07187,23.1314318 107.790273,24.4554999 107.472507,25.9139412 C106.939452,28.3548252 107.879833,30.3108271 109.131951,32.2255165 C109.789873,33.2311597 109.97416,34.2988146 109.655533,35.4597891 C109.530666,35.913191 109.320544,36.3835837 108.84002,36.3980732 C108.365524,36.4111828 107.902223,36.2360146 107.556039,35.7545823 C106.895533,34.8344964 106.898117,33.7530419 106.717274,32.7308392 C106.123939,29.3836689 104.982909,26.2380585 103.427664,23.2308749 C103.08923,22.5741881 102.628513,22.042215 101.981786,21.6790277 C100.78392,21.0072477 100.503184,19.9015577 100.728806,18.68297 C101.667464,13.605507 104.593667,9.87634747 108.835714,7.14302484 C110.565774,6.0278735 112.228663,4.76178944 114.331602,4.27968445 C115.403739,4.03374173 115.757674,2.73835085 115.365849,1.36883906 C115.143671,0.592612759 114.508139,0.349368719 113.247409,0.656288257 C108.517087,1.80951086 103.870298,3.21877402 99.3819604,5.13103988 C96.0217357,6.56186485 92.639982,7.94249391 89.2840631,9.38646297 C87.9914702,9.9433616 86.6532361,9.85814929 85.3442813,9.72265483 C82.872768,9.46831163 80.4021158,9.57077339 77.9314636,9.57448202 C77.13059,9.57612072 76.4933357,10.1468189 75.7630767,10.4116843 C73.7617537,11.1352989 71.6717318,11.6090551 69.7901092,12.6679129 C67.2049235,14.1229906 64.8307206,15.7859242 62.8629827,18.0792391 C61.3516566,19.8412709 59.6947954,21.5153304 57.8519248,22.9572985 C56.977853,23.6411531 56.6997001,24.6147986 56.3018467,25.5447166 C55.6335909,27.1082934 55.0876189,27.3144244 53.5091228,26.5796839 C51.6619464,25.7198849 50.6690353,24.2165949 50.2849604,22.269994 C50.2238185,21.9603663 50.1695657,21.6204658 50.5062771,21.3280013 C51.4389074,20.5174495 51.737728,19.3729482 51.8970416,18.2224096 C52.1562491,16.3542937 51.9840182,14.4946301 51.4914378,12.6749852 C51.2597873,11.817601 50.6767857,11.1760938 50.0033629,10.6333398 C48.5583457,9.47271024 47.0194627,8.45663114 45.326433,7.68207028 C45.0301958,7.5456271 44.6995125,7.398403 44.4437496,7.53214665 C43.3431942,8.10218936 42.2762238,7.68544255 41.190308,7.5217021 C39.8753251,7.3242821 38.6180396,7.77943482 37.3495591,7.9822539 C35.8950692,8.21673436 34.8108757,8.08838117 33.5484232,7.02140756 C31.5307383,5.31532442 29.4682733,3.4808881 26.9071999,2.62279675 C24.750008,1.9001395 22.4627817,1.91462041 20.1600546,1.99312268 C18.0863947,2.06319859 16.6766848,3.00046493 15.3840919,4.39692899 C15.0241293,4.78571443 14.5548002,5.0852167 14.0656644,5.15832852 C12.775655,5.35070305 11.6639046,5.82674486 10.7622759,6.78590939 C10.6296581,6.92639757 10.4074802,7.06621302 10.2266378,7.06621302 C8.8264006,7.06554029 8.05222273,7.85894618 7.55361429,9.06536438 C7.2091525,9.89954798 6.46597619,10.364507 5.77360799,10.8671561 C5.47048162,11.0878629 5.08726788,11.2778656 5.00373589,11.6589061 C4.45948627,14.1351514 3.12297452,16.43114 3.34515238,19.0811737 C3.70339264,23.3636094 5.80719302,26.5011989 10.528903,26.9280366 C11.9661698,27.0574075 13.4292713,26.6426444 14.7709499,26.0069158 C15.9963727,25.4257817 17.246769,24.9056244 18.2138455,23.8733308 C18.8106256,23.2358772 19.5443292,22.9727368 20.5157114,23.218714 C22.3938893,23.693764 24.2634557,24.1795948 26.0589628,24.9126966 C27.0734027,25.3273735 27.7304636,25.9931162 27.7528536,27.201613 C27.7692156,28.1028107 28.3754683,28.6728189 29.1539519,29.0646403 C29.8945448,29.4362797 29.9841049,29.8682061 29.4510502,30.5756924 C29.0075557,31.1638988 28.5537273,31.6294616 27.8811656,31.9590124 C27.06393,32.3598897 26.573072,33.0491779 26.3508941,33.9925506 C25.7549752,36.5361551 27.292136,39.8418405 29.6069192,40.7683086 C30.5447164,41.1433118 31.506626,41.4626854 32.4685355,41.7740381 C33.714626,42.178279 33.9996682,42.652639 33.6827633,43.955749 C33.586314,44.350934 33.4778086,44.7512076 33.3098834,45.1200872 C32.2213842,47.5205212 33.3753312,49.3903621 34.8194872,51.1048716 C36.1232751,52.6529238 37.5243734,54.1157638 38.675737,55.7925832 C38.9048041,56.1271364 39.188985,56.4764378 39.5308634,56.6732541 C41.3711505,57.7374592 42.8712816,59.1794273 44.2362114,60.7810391 C45.209316,61.9238154 46.419238,62.7620527 47.7454159,63.4183944 C48.9424206,64.0103094 49.2868824,65.0469154 49.4367233,66.236869 C49.5977591,67.5194521 49.6812911,68.8185948 49.9508325,70.0776324 C50.5217779,72.7428456 52.3336469,74.6187237 54.1567109,76.4902032 C55.2770729,77.6397069 56.56536,78.0969036 58.1369669,77.9038823 C58.9757314,77.7994368 59.5380652,77.9641691 59.6207361,79.0567495 C59.7016846,80.1210408 60.0151448,81.1542831 60.6558437,82.1178377 C61.058864,82.7238972 61.0726425,83.7885335 60.5585333,84.3646653 C59.9006113,85.0994058 60.0573414,85.740223 60.2700465,86.492213 C60.7247361,88.103312 58.9498967,90.5190981 57.2628951,90.5018486 C55.7481244,90.4871866 54.2660775,90.4871866 52.9157873,91.3332723 C52.3043677,91.7153477 51.9073754,91.5359534 51.5956375,90.8244134 C51.1030572,89.698024 49.9809729,89.1796779 49.0414534,88.5017744 C47.7884736,87.597903 47.6859962,87.3503733 48.4222833,85.9696408 C48.9036686,85.0664593 49.4720306,84.2049354 50.0636437,83.3684231 C52.0262148,80.5920372 51.3906828,76.3968837 46.948848,75.2203847 C46.179837,75.0169274 45.3875749,74.900666 44.5290039,75.1213728 C43.4861458,75.3895156 42.1840803,74.3002988 41.8344516,73.0436761 C41.6432753,72.3580965 41.5020459,71.6550088 41.3780397,70.9532147 C41.1334718,69.5654961 40.415269,68.430482 39.0839242,68.0602225 C36.3859272,67.3099575 33.6465948,66.9450453 31.1578584,68.7915994 C30.6661392,69.1565116 30.1899208,69.5324634 29.9324356,70.1355043 C29.3778521,71.4292134 28.3720237,72.2226883 26.9941765,72.4194183 C25.5508816,72.6252905 24.8240673,73.5362342 24.5588317,74.8184724 C24.2548441,76.2867459 23.8449346,77.618145 22.6065945,78.6161122 C21.9831186,79.1180713 21.8143324,79.9347467 21.7187442,80.7456436 C21.6360734,81.4477826 21.4672871,82.1124903 20.9824571,82.7215686 C19.365209,84.7467407 19.6356116,86.5353366 21.0789064,89.1236172 C21.9090594,90.6122451 23.2360984,91.6955108 24.3547381,92.9486837 C24.6285852,93.255724 24.9127662,93.553277 25.184891,93.8629047 C26.0365728,94.8314616 26.4740392,95.7379204 25.692111,97.0980399 C24.3065134,99.5069261 24.5364417,101.913225 26.3061141,104.128055 C26.840891,104.797334 27.2731906,105.550272 27.8208848,106.206614 C28.3677179,106.861231 28.0938708,107.229507 27.492785,107.554659 C27.2525229,107.685755 27.0165665,107.84445 26.7582202,107.919485 C24.1833683,108.662074 22.3499705,110.508628 20.5639361,112.311196 C18.4601357,114.434604 16.2073556,116.393279 14.1044164,118.5141 C11.7396862,120.897974 9.79433823,123.584577 8.15039434,126.492835 C6.04228819,130.223892 3.56474677,133.766929 2.19637231,137.882649 C1.19054388,140.906479 0.531760712,144.020005 0.692796598,147.210292 C0.826275542,149.833934 1.26804779,152.448088 3.34515238,154.38089 C4.88920235,155.817769 6.86038494,156.320591 8.84965177,156.754415 C10.6150184,157.140802 12.4053586,156.869123 14.175031,156.932084" id="path16" fill="#100F0D"></path>
                        <path d="M153.623497,119.631864 C153.723391,112.708796 150.588789,108.07818 145.12907,104.894793 C140.262686,102.05812 134.919222,100.656602 129.347553,100.303851 C125.859877,100.082195 122.690829,101.466464 119.668176,103.101712 C113.694348,106.333398 108.549811,110.713896 103.289879,114.943463 C99.9391274,117.636965 96.6564065,120.455526 92.8466591,122.505623 C89.5312144,124.291804 85.9875637,125.109428 82.1976229,124.523809 C81.5732859,124.427213 80.9816728,124.237469 80.4408678,123.94854 C79.1396634,123.255975 77.8315697,122.600495 76.3977475,122.20807 C75.7157132,122.021776 75.413448,121.575878 75.6287366,120.792753 C76.0386461,119.303262 76.7318755,117.956942 77.7316758,116.813303 C78.78659,115.605842 79.7433326,114.273321 81.2374357,113.513483 C81.8066588,113.223692 81.9573608,112.609612 82.0899786,112.041242 C82.3638257,110.868279 82.6462844,109.694454 82.8374607,108.507691 C82.9261596,107.952259 83.1991455,107.752165 83.6805309,107.652981 C85.5311519,107.270905 87.3921067,107.304542 89.2031145,107.761652 C93.1050055,108.744871 97.0146468,108.759533 100.972513,108.208413 C102.010204,108.063518 103.102148,108.192026 104.156201,108.310185 C106.422759,108.566339 108.368107,107.733191 110.153281,106.520554 C112.176132,105.147498 114.164538,103.738217 116.423346,102.761036 C117.090741,102.47297 117.655658,102.000335 118.128432,101.44404 C118.732101,100.730775 118.628763,100.225366 117.777942,99.8467404 C116.027215,99.0653401 114.291989,99.3396064 112.56968,99.9804237 C111.079022,100.534994 109.777817,101.470776 108.325911,102.096069 C106.769805,102.76621 105.181836,103.166398 103.587839,102.187491 C103.065979,101.867514 102.606984,101.453527 102.787826,100.770449 C102.952307,100.151193 103.295907,99.6406094 104.035639,99.5707491 C104.445549,99.5310754 104.851152,99.4137791 105.258479,99.4068793 C106.32631,99.3887674 107.394142,99.431891 108.460251,99.4034294 C108.793518,99.3956672 109.254235,99.6431968 109.44455,99.1265757 C109.622809,98.6401411 109.557362,98.1813056 109.204288,97.7768059 C108.492975,96.9626316 107.577568,96.5158708 106.538154,96.3278517 C103.263184,95.7361955 100.288756,96.7694378 97.3969994,98.1174826 C96.3438074,98.6082296 95.2949213,99.1593496 94.5638011,100.132219 C93.9170741,100.992967 93.9954392,101.26982 95.0434642,101.428515 C95.7435828,101.533737 96.0535984,101.931337 95.9442318,102.547142 C95.8236701,103.229358 95.2380851,103.058589 94.7704782,102.967167 C91.3973361,102.306513 88.0414172,101.560474 84.7931425,100.424597 C83.9776292,100.139119 83.5978601,100.385786 83.0665278,100.96968 C80.5562625,103.730455 80.4055604,107.212257 80.074016,110.619887 C79.9775667,111.603968 79.8604497,112.292222 78.7245869,112.370707 C78.3344839,112.399168 78.0692484,112.707071 77.7850674,112.964088 C76.790434,113.865372 75.820774,114.80288 74.7572482,115.616191 C73.4810173,116.594235 72.3236257,117.630065 71.7785149,119.20149 C71.723401,119.361048 71.6329798,119.524918 71.5141405,119.641351 C68.4863214,122.599633 68.5655476,126.424699 68.5758814,130.224754 C68.5793261,131.598673 69.0012917,132.868233 69.7263838,134.032571 C70.1362933,134.690638 70.6323183,135.241758 71.4495539,135.403903 C72.0816413,135.528961 72.358933,135.991247 72.4080188,136.588078 C72.4381592,136.963253 72.4846616,137.37724 72.3649611,137.717917 C71.8835758,139.091836 72.397685,140.106966 73.3716507,141.038437 C75.3213044,142.903103 77.4216602,144.554738 79.7889738,145.859659 C80.4951205,146.248635 80.9963124,146.192574 81.3218288,145.384437 C81.4225839,145.13432 81.5896478,144.894552 81.7773795,144.699634 C82.3026837,144.150238 83.134559,144.34602 83.3885995,145.067047 C83.8174545,146.285721 83.8794576,147.569943 83.9354326,148.834328 C84.01552,150.680882 84.5924935,152.258344 85.62674,153.820282 C87.8648805,157.201175 91.0554578,159.478966 94.7188089,160.556194 C99.7892865,162.046547 105.013911,162.432072 110.083527,159.851554 C114.575309,157.565139 118.416058,154.570634 121.672083,150.738667 C122.81139,149.398385 123.912807,148.035678 124.906579,146.594486 C125.354379,145.944182 125.834904,145.697514 126.506604,145.958844 C127.855172,146.48409 128.929032,145.863972 129.910748,145.124833 C130.615172,144.596137 131.087946,144.757419 131.589138,145.29819 C132.295284,146.059753 133.140077,146.703158 132.666442,148.022741 C132.415846,148.722206 132.043827,148.935237 131.487521,148.781717 C129.870273,148.334956 128.370142,149.133606 126.795952,149.140505 C126.167309,149.143093 125.861599,149.818409 125.580002,150.316056 C123.893,153.297624 121.34915,155.491755 118.838023,157.711759 C118.117237,158.349127 117.315502,158.891622 116.567159,159.498803 C116.323452,159.696309 116.09783,159.996449 116.258005,160.307802 C116.405262,160.595006 116.76953,160.462185 117.006348,160.413886 C121.270785,159.530714 125.276875,158.136096 128.363253,154.821613 C129.667902,153.420958 131.252426,152.268694 132.063634,150.452326 C132.077412,150.423002 132.10583,150.394541 132.134249,150.378154 C133.208108,149.764936 133.797999,148.941274 133.580127,147.607029 C133.50004,147.121457 134.071846,146.905839 134.486923,146.742831 C135.70115,146.266746 136.903322,145.739776 138.152857,145.375812 C139.002817,145.128282 139.718436,144.735857 140.41511,144.216649 C141.740427,143.230843 143.096745,142.286435 144.453063,141.343752 C146.431996,139.968108 147.888208,138.221601 149.123104,136.098193 C152.577195,130.160931 153.243728,123.771733 153.623497,119.631864" id="path36" fill="#C59A19"></path>
                        <path d="M64.029847,118.02939 C62.4539343,117.877595 61.0786706,118.325218 59.7611042,119.210115 C57.0691354,121.019583 53.9422835,121.579328 50.8249043,122.086462 C46.6586389,122.763503 42.483762,122.899773 38.3295529,121.986415 C36.1758055,121.512055 34.2433749,120.628883 32.7785511,118.872888 C31.6538834,117.524843 31.7313873,116.101763 32.3832812,114.634697 C32.8018023,113.695465 33.3228008,112.800218 33.8127976,111.893759 C34.0987009,111.363338 34.2339022,110.801006 34.2252906,110.208487 C34.2149568,109.439162 34.1848164,108.55599 33.3529412,108.279999 C32.409977,107.967783 31.3335339,107.553796 30.4396556,108.445593 C27.911306,110.963151 24.7284791,112.627723 22.0485664,114.953812 C21.14866,115.733488 20.530351,116.714119 19.7570343,117.579179 C16.6362105,121.070469 13.6178641,124.64973 10.9250341,128.484284 C7.76287483,132.986392 5.18974526,137.770528 4.34839734,143.311052 C3.91523664,146.164975 4.37509313,148.941274 5.2930838,151.630464 C5.60568287,152.545548 6.64595747,152.727529 7.50452848,152.906924 C9.08819156,153.238113 10.7114677,153.280374 12.3226878,153.312286 C18.2448471,153.43217 23.88627,151.952167 29.4346883,150.102163 C35.2879553,148.149524 40.8665139,145.466372 45.8276249,141.864686 C49.1413473,139.458387 52.6117998,137.168522 55.6060339,134.355998 C57.09497,132.957068 58.7328858,131.685783 60.0306456,130.057434 C61.638421,128.040111 63.8111137,126.511809 65.2501029,124.355627 C66.3015725,122.77989 67.8387332,121.603477 68.7076381,119.895781 C69.3560874,118.621909 69.158883,118.302794 67.7328112,118.261395 C66.4970545,118.225171 65.2638813,118.1096 64.029847,118.02939" id="path38" fill="#FFFFFF"></path>
                        <path d="M36.0750505,109.507297 C36.4539584,109.338253 36.4505138,108.930303 36.6589132,108.677598 C37.0800177,108.16874 37.0171534,107.179483 37.7964982,107.100136 C38.9065264,106.987152 40.0802799,106.915567 41.0904141,107.61072 C42.0816029,108.292936 41.9584578,109.353777 41.886982,110.328371 C41.8292846,111.123571 41.0551068,111.118396 40.471244,111.265879 C39.1132034,111.610006 37.7077993,111.77905 36.579687,112.776931 C35.5936651,113.648891 34.9219646,114.658847 34.5111939,115.915469 C34.2321799,116.771905 34.5206666,117.187617 35.2182017,117.570555 C37.1299647,118.617596 39.2044858,119.025546 41.3410101,119.243752 C45.6226701,119.681888 49.8629947,119.369673 54.0413162,118.408016 C55.8772976,117.986266 57.6564427,117.349762 59.202215,116.155237 C60.4784459,115.167706 61.8511262,114.295746 63.4916254,113.991293 C63.8670888,113.921432 64.2089671,113.841223 64.5749578,114.082715 C66.9577722,115.656728 69.4051732,115.316051 71.8577411,114.274184 C72.5535539,113.979218 73.2321437,113.639404 73.9003995,113.284928 C74.3232264,113.060685 74.8881437,112.867491 75.0879316,112.49749 C76.1471516,110.536227 78.0304964,109.0269 78.4404059,106.729273 C78.8201751,104.603277 79.1921938,102.461758 78.8167304,100.270214 C78.5506337,98.7134512 77.6757008,97.4775279 76.8619098,96.2122804 C76.1101219,95.0462173 75.3953637,93.8792917 75.279969,92.4613866 C75.2403559,91.9723646 75.0026773,91.9309659 74.6056851,91.9551151 C74.0571297,91.9878891 73.5025462,91.9947889 72.9548519,91.9551151 C72.5337474,91.9232036 72.135894,91.7731334 72.0515009,91.2677244 C71.9731358,90.8045765 72.1600064,90.5190981 72.5750828,90.2646686 C72.9057661,90.0619875 73.5748832,90.0412882 73.4043746,89.400471 C73.2037256,88.6458073 73.0246054,87.835083 72.4717443,87.2684384 C72.163451,86.9536359 71.8629081,87.2399768 71.7810984,87.6703507 C71.6708706,88.2438951 71.5124182,88.8079522 71.4125243,89.382359 C71.3298534,89.856719 71.0723683,90.1663467 70.6116506,90.1827337 C70.1311264,90.1991207 69.8788082,89.8084205 69.7556631,89.4056458 C69.6152949,88.9485353 69.5610422,88.4646881 69.4723432,87.9911905 C69.3380031,87.2796506 69.181273,86.5715605 68.8152824,85.9366081 C68.6249672,85.6074885 68.3795382,85.1978139 67.960156,85.3227862 C67.5778034,85.4356839 67.2850109,85.7934376 67.2350639,86.2438208 C67.2083681,86.4835883 67.1971731,86.7319804 67.2316193,86.9674354 C67.3590702,87.8307706 67.1291419,88.4396764 66.1861778,88.6363201 C65.496393,88.7794906 65.334496,89.3909838 65.1622651,89.9446912 C65.0107019,90.4311258 64.8100529,90.8209635 64.2658033,90.946022 C63.8748392,91.0357192 63.6276878,91.3220601 63.4037877,91.641175 C63.0274632,92.1767706 62.5779405,92.6675176 62.2524241,93.2315747 C61.3843804,94.7357271 60.3466893,95.6922094 58.4917626,94.7426269 C58.248917,94.6184308 57.8682867,94.677079 57.5772165,94.7503892 C56.1442555,95.1143526 54.7336844,95.543864 53.3954504,96.1958934 C52.0753006,96.8392981 51.280455,97.6871087 51.4836874,99.3396064 C51.6619464,100.784248 51.0195252,101.288795 49.5280056,101.334506 C48.9630883,101.351755 48.6789073,101.173223 48.6987139,100.599679 C48.7254097,99.8432905 48.7701897,99.0869019 48.7960243,98.3296509 C48.8080805,97.9915616 48.8270259,97.6793465 48.4532849,97.4395791 C45.0947824,95.2877097 42.5810725,95.0513921 39.1562612,98.1623312 C38.1659335,99.0618902 37.3288914,100.136531 36.0965793,100.748887 C35.7478118,100.921381 35.6479178,101.282757 35.6272501,101.621709 C35.47052,104.175491 35.7753687,106.712023 35.9260707,109.254593 C35.9312377,109.33739 36.0190754,109.415875 36.0750505,109.507297" id="path40" fill="#C59A19"></path>
                        <path d="M73.4190142,145.231779 C73.5456039,144.791918 73.2433387,144.423642 72.7843433,144.02173 C71.985192,143.319677 71.2626834,142.527065 70.5436194,141.739627 C69.9296163,141.066898 69.5507083,140.279461 69.4301467,139.347128 C69.2665273,138.079293 68.8815913,136.874419 68.2047239,135.767866 C67.040443,133.862664 66.6908143,131.738394 66.5891981,129.551163 C66.5771419,129.282071 66.6537847,128.958644 66.3566864,128.807711 C66.0216973,128.638667 65.7676567,128.892234 65.5342838,129.081115 C64.4010045,130.003099 63.5355443,131.173474 62.6580279,132.317113 C61.3861027,133.975648 59.887694,135.353879 58.1679685,136.534604 C56.3250979,137.800714 54.5493974,139.164284 52.7530291,140.495942 C51.5215782,141.407575 50.611338,142.632286 49.6167045,143.7742 C49.1775158,144.278747 49.3678309,144.976487 49.1137903,145.536232 C46.9686545,150.270345 46.263369,155.396883 45.1877871,160.407849 C44.323188,164.439909 44.3800242,168.540104 45.3109322,172.600626 C45.6717559,174.171188 45.8267637,175.784875 46.8282864,177.149307 C48.4248668,179.322738 51.2003676,179.568543 53.3687546,177.916907 C58.0809919,174.326433 61.5299155,169.692368 64.5766801,164.708138 C65.7943525,162.717551 67.4563806,161.035729 68.4208736,158.86316 C69.2975289,156.890685 69.8090546,154.763828 70.9397505,152.902611 C71.8396569,151.420021 72.4261031,149.809784 72.8894042,148.148662 C73.139139,147.252553 73.3165368,146.343507 73.4190142,145.231779" id="path42" fill="#FFFFFF"></path>
                        <path d="M6.23260333,18.9848355 C5.89244731,21.3771623 8.40615722,23.2779659 10.6537704,23.4326072 C12.9866379,23.5946659 15.0396301,22.8124031 16.9083353,21.4550436 C17.3268564,21.1511082 17.4853088,20.7020186 17.6997363,20.2731972 C18.5858642,18.5027132 20.1281919,18.2914937 21.4018394,19.7627859 C21.684298,20.0888868 22.0571779,20.26371 22.4739767,20.3327941 C24.7103949,20.7044336 26.634214,22.1301872 28.9507195,22.2544695 C29.2280112,22.269994 29.4923857,22.5354631 29.7610659,22.6897595 C30.325122,23.0124968 30.9615152,23.1971522 31.5436556,22.9272845 C32.7225761,22.3822017 33.9290535,21.8472099 34.9167977,20.976285 C35.9010972,20.10605 36.0294093,20.0862131 36.8406168,21.0746931 C37.2643048,21.5921767 37.1368539,23.2463131 36.6416901,23.7015262 C35.5618024,24.6933698 34.6093655,25.8482208 33.0248413,26.1217971 C32.3247227,26.2424571 32.1791876,26.845498 32.2902765,27.4930425 C32.3574466,27.8838289 32.5425948,28.2392539 32.9137524,28.376387 C33.2582142,28.502998 33.4743639,28.1674961 33.6775964,27.9552416 C34.0590878,27.5593666 34.4181892,27.1396012 34.7540395,26.7046562 C35.2707322,26.0339112 35.9854904,25.9035053 36.763974,25.8775449 C37.1971347,25.8647803 37.3969226,26.0655639 37.4460084,26.4685112 C37.555375,27.3552194 37.6191004,28.2503798 37.7835809,29.126652 C37.9773407,30.1561857 37.4262018,30.6471052 36.6037993,31.0069288 C35.6479178,31.4249693 34.6429506,31.6510234 33.6112875,31.7278697 C31.6642172,31.8710402 30.4603233,33.1277492 29.3787133,34.5430669 C29.009278,35.0257929 29.6155307,36.9949906 30.17442,37.258821 C31.2207227,37.7503442 32.1593811,38.4298864 33.3572469,38.6552505 C34.3570473,38.8432696 34.7712626,38.5552037 34.9366042,37.6347728 C35.0700832,36.8922701 35.2552314,36.1574433 35.3783765,35.4133019 C35.6668632,33.6650697 36.7088601,32.6634801 38.3596933,32.1038216 C40.6520865,31.3259575 42.9858151,31.3673561 45.2833752,31.7992825 C47.0168792,32.1253834 48.7211039,32.4195728 50.489054,32.3609247 C51.8298715,32.3160761 52.819338,32.9878561 53.6038498,34.0427465 C53.7924426,34.294416 54.0163428,34.7205638 54.4012788,34.5834306 C54.8120495,34.4368965 54.5115066,33.9763361 54.6122616,33.6728319 C55.2124863,31.8666416 54.3608045,30.6110538 52.997597,29.6165365 C50.9781898,28.1432607 48.8718059,26.8808594 46.196199,27.1523658 C45.7690664,27.1954894 45.136979,27.4964061 44.8829384,26.7437262 C44.6116747,25.9422303 44.3834688,25.1566039 45.0233066,24.4173786 C45.4848854,23.8860954 46.0696093,23.4757309 46.7103082,23.2729635 C47.2201116,23.1109049 47.3467014,22.8804522 47.3708137,22.4121295 C47.394926,21.9334572 47.5180711,21.4610809 47.5688792,20.9823223 C47.6722177,20.0093668 48.0278745,19.1839804 48.6763239,18.416466 C49.4901148,17.4512728 49.4840868,16.5621496 48.7245485,15.6090311 C47.2063332,13.7055538 45.4461334,12.1110143 43.1089602,11.2209424 C41.84823,10.7404589 40.6340022,10.7499461 39.3758555,11.0992475 C38.4836995,11.3459147 37.5725981,11.5372974 36.6993874,11.8408016 C34.6369225,12.5583788 33.000729,11.670032 31.7115807,10.2805884 C29.0661142,7.42939165 25.6791936,6.2916694 22.0192871,5.77183123 C19.58222,5.4241426 17.44139,6.08548668 16.0239297,8.30736299 C15.8758111,8.53951477 15.6880794,8.75306301 15.579574,9.00240387 C15.0137955,10.3038752 14.3016207,11.0999375 12.636148,10.6586102 C11.1248219,10.2583366 10.1568843,11.4553625 9.26817285,12.449966 C7.97816344,13.8946078 6.93702769,15.5046719 6.37899959,17.3977132 C6.2274364,17.9145069 6.27049412,18.4198296 6.23260333,18.9848355" id="path44" fill="#FFFFFF"></path>
                        <path d="M130.630673,24.6822439 C130.947578,24.4891363 131.007858,24.246609 131.019053,24.0131376 C131.149088,21.4119199 132.914454,20.4456918 135.100926,19.8911218 C136.725063,19.4780836 138.404314,19.3048991 139.980227,18.6752078 C141.532027,18.0539687 141.983272,17.4115128 141.600058,15.7926515 C141.359796,14.7776074 142.059915,14.1903497 142.400071,13.4418096 C142.565413,13.0792261 142.890068,13.3909237 143.108801,13.5003715 C144.01818,13.9592933 144.824221,14.6024392 145.311634,15.4753478 C146.265793,17.1858037 147.712533,17.9272714 149.593294,18.0405141 C150.242605,18.0792391 150.901388,18.1577242 151.52917,18.3224564 C154.101438,18.9942364 155.127934,17.9360687 155.906418,15.7710897 C156.716764,13.5132224 155.914168,11.1568607 153.995516,9.71929119 C152.41702,8.53744484 150.733463,7.90645118 148.70975,8.31511662 C146.820377,8.69544984 145.371054,7.95361981 144.350586,6.30986758 C143.554879,5.02895761 142.57833,3.93974945 140.980027,3.68033491 C140.67604,3.63013038 140.349662,3.58027083 140.056009,3.63956583 C137.421737,4.17962036 134.829662,4.83928261 132.681082,6.59791621 C131.406573,7.64062846 130.186317,8.74297208 128.669824,9.46900161 C127.584769,9.9875202 126.56344,9.99355751 125.672145,9.26821796 C123.647571,7.62075709 121.385318,7.92430436 119.092925,8.29691845 C117.650491,8.53175252 116.941761,9.45623701 116.871147,10.8526666 C116.756613,13.120711 116.981374,15.4022101 116.63519,17.6635273 C116.561131,18.1462533 116.907315,18.1877382 117.227665,18.3363423 C118.226604,18.7958677 119.217793,19.2745401 119.83524,20.2698336 C120.095309,20.6905478 120.260651,21.1366186 120.33471,21.6137385 C120.612002,23.415099 119.731902,24.3476908 118.06729,23.683673 C116.177917,22.9296131 114.418579,23.2722736 112.834916,24.0734245 C112.048682,24.4709381 111.066965,25.0281817 110.547689,25.9482676 C110.106778,26.7278567 110.037886,27.5846371 110.067165,28.4410725 C110.105917,29.522527 110.276426,29.6165365 111.317561,29.3368366 C112.509399,29.017118 113.706404,28.7152526 114.894797,28.3841493 C116.373399,27.9700761 117.808083,28.1270462 119.232432,28.6428911 C120.03675,28.9342344 120.860014,29.1741743 121.672944,29.444042 C121.898566,29.5198534 122.269724,29.5767766 122.311059,29.719257 C122.596963,30.7134293 123.440033,30.5624966 124.13929,30.6410679 C124.748127,30.708427 125.23554,30.9412084 125.709175,31.3181952 C128.506205,33.5330251 129.580925,36.5722064 129.809993,39.9860459 C129.862523,40.7673599 130.089007,40.9725422 130.791709,40.7285487 C132.998848,39.9611204 134.600595,38.5258796 135.34291,36.2963014 C135.735597,35.1174737 135.135372,34.0865601 134.39564,33.1819125 C133.913394,32.5903424 133.303696,32.1244347 132.65783,31.7322683 C131.780314,31.1989152 131.063833,30.5608579 130.719372,29.5552147 C130.593643,29.1896126 130.327546,28.9231947 129.916776,28.8170243 C128.281443,28.3951889 126.795952,27.5593666 125.065893,27.3239116 C123.545955,27.1180394 122.224083,27.6018003 120.824707,27.8656307 C120.455272,27.9353185 120.086697,28.0175984 119.714679,28.0745216 C119.166123,28.1597339 118.58915,28.2685779 118.310997,27.5897257 C118.023371,26.8808594 118.106042,26.2269326 118.732963,25.7326494 C119.470111,25.1515153 120.311459,24.7512418 121.220838,24.5306212 C122.842392,24.1387999 124.560395,24.0138276 125.826292,22.705629 C125.976133,22.5502977 126.301649,22.4198918 126.490242,22.4734513 C128.009319,22.903739 129.780713,22.8770886 130.630673,24.6822439" id="path46" fill="#FFFFFF"></path>
                        <path d="M73.6808052,31.9546138 C72.9582966,31.9528889 72.2357879,31.9303783 71.5141405,31.9572875 C66.677897,32.1359056 62.2541464,33.3794187 58.6932727,36.8973586 C58.1584958,37.4252782 57.4618218,37.7890692 56.9210168,38.3109514 C55.8833257,39.3132309 56.0874193,40.1592304 57.4540714,40.480329 C58.6372977,40.7578727 59.6302088,41.3020068 60.4414163,42.1954422 C61.1079498,42.929579 61.8769608,43.2331694 62.9120685,43.1192368 C64.9952011,42.889129 67.0946957,42.7968445 69.1804119,42.6112403 C71.9533293,42.3645731 74.6625213,42.8443667 77.4009925,42.97874 C83.9035699,43.2988036 89.4976294,46.1672153 94.9358199,49.3782874 C96.798497,50.4779401 98.3218793,52.077827 99.8487061,53.6232056 C100.745168,54.5298369 101.656269,55.4216337 102.526897,56.3514655 C103.151234,57.0182432 103.50689,57.0067723 103.89441,56.1658614 C104.423159,55.0213601 104.448132,53.7940615 104.09592,52.6279984 C103.202903,49.669027 102.369305,46.675298 100.327508,44.2181995 C99.7591461,43.5333099 99.3328746,42.7287954 99.0650556,41.863649 C99.0039136,41.665194 98.972912,41.4660491 98.7808746,41.3366782 C97.8749401,40.725185 97.2480196,39.8374419 96.647795,38.9689318 C95.198472,36.8689833 93.1454797,35.7521674 90.7781661,35.0595156 C87.9768306,34.2401665 85.1823843,33.4009805 82.4068834,32.4902956 C80.6639068,31.9185624 78.797785,32.091057 76.9850549,31.9694483 C75.8879441,31.8950169 74.7830829,31.9556488 73.6808052,31.9546138" id="path48" fill="#C59A19"></path>
                        <path d="M49.3316624,95.1083153 C49.903469,91.7739958 48.9079744,90.1991207 45.8724049,89.4306575 C44.7425702,89.1443166 43.6049852,88.8571131 42.4527605,88.703593 C41.7121676,88.6052711 41.4365982,88.3163428 41.4564048,87.6013529 C41.474489,86.919137 41.7991442,86.3162685 42.4338151,86.3921661 C44.0837871,86.5888099 45.209316,86.0212166 45.9326857,84.5421622 C46.0274127,84.3481058 46.274564,84.160173 46.4846857,84.1075622 C47.1073004,83.9489535 47.2097778,83.5177171 47.1029946,83.0079095 C46.8670383,81.8823826 46.5656342,80.7645317 47.7299151,79.9252595 C47.8229198,79.8582454 47.9202302,79.6304664 47.8780337,79.5641422 C47.3251725,78.6962359 46.4183768,78.3876432 45.499525,78.1096682 C44.7485983,77.8823204 44.791656,78.4745804 44.6392317,78.9196164 C44.4273877,79.5364568 43.1304891,79.5432704 42.6473814,78.9135791 C42.3347823,78.5083031 42.0790194,78.0511063 41.842202,77.5949445 C41.167918,76.2945082 40.2688727,75.1877832 39.1554,74.2373383 C38.6008165,73.7647032 38.2305201,73.1868465 38.235687,72.372586 C38.2442986,71.1246743 37.6156558,70.5485425 36.3420083,70.485582 C35.3051784,70.4336611 34.3768538,70.761487 33.5346448,71.3386538 C32.3023327,72.1812033 31.183693,73.1481215 30.4870191,74.5011687 C30.2829255,74.8979924 30.0245791,75.0317619 29.6026134,75.0402141 C28.334994,75.0671233 27.5702889,75.7045769 27.3016087,76.9645632 C27.1956867,77.4648836 26.969203,77.9371737 26.8314183,78.4314568 C26.6187132,79.1982813 26.221721,79.7797604 25.480267,80.1452763 C24.4925228,80.6344708 23.8173777,81.3423022 24.0025259,82.5817617 C24.0585009,82.9594385 23.9077989,83.3296981 23.6692591,83.6443281 C22.0451218,85.7823117 23.4488036,88.9864841 25.3700392,90.1214981 C26.0348504,90.5139232 26.6057959,90.9184229 26.9571469,91.657562 C27.2111875,92.1922951 27.5926789,92.8443245 28.3134652,92.7434152 C29.0127226,92.6450933 29.1918427,91.9223411 29.399381,91.3600089 C29.8445978,90.1568595 31.4644294,89.6497256 32.4495901,90.4768369 C32.8147196,90.7830147 33.1927664,91.1331786 33.4097774,91.546303 C34.3983827,93.4239061 34.1830941,93.7171469 32.0500144,95.0608793 C31.5350441,95.3851691 30.9055401,95.5214398 30.3440674,95.7767317 C28.6295089,96.5555445 27.6684605,97.8966896 27.5367038,99.7717053 C27.3946134,101.778679 28.4056087,103.160361 30.0598865,104.154792 C30.6161922,104.490293 31.2345012,104.748173 31.668523,105.252719 C32.0835995,105.733979 32.5899583,105.499387 33.0110628,105.38554 C33.4881424,105.257032 33.3073,104.746448 33.2711315,104.410946 C33.1540145,103.321643 32.7518553,102.276326 32.8638054,101.148212 C32.9387259,100.389236 33.2487415,99.827766 33.7611284,99.2628464 C35.3404857,97.5206515 36.99218,95.8966154 39.0925357,94.7685011 C41.7931162,93.3204094 44.5427824,92.8184503 47.4750134,94.01125 C48.1053784,94.2674044 48.704742,94.564095 49.3316624,95.1083153" id="path50" fill="#FFFFFF"></path>
                        <path d="M150.521619,62.7404908 C150.456171,63.6598868 150.405363,64.409548 150.345943,65.1571394 C150.330443,65.3471421 150.409669,65.5850121 150.139266,65.6772967 C149.871447,65.7686325 149.696633,65.6402103 149.51579,65.4495176 C149.02321,64.9303953 148.785531,64.2680163 148.628801,63.6117608 C147.975185,60.8916081 145.995391,59.212115 143.90623,57.6960605 C142.813425,56.9026718 141.740427,55.9950056 140.384108,55.5951632 C139.644377,55.3758364 138.951147,55.41896 138.307004,55.8269096 C137.06608,56.6146059 137.109999,57.9288419 138.355228,58.6939414 C141.703397,60.7518013 144.105157,63.6653203 145.842967,67.1512625 C146.258904,67.9861361 146.513806,68.8849189 146.4053,69.8464897 C146.370854,70.1517188 146.407884,70.4572929 146.010892,70.5900275 C145.616483,70.7210371 145.32369,70.6115893 145.121319,70.2915256 C144.645101,69.536862 144.165438,68.7811634 143.737444,67.9992457 C142.08575,64.9829199 139.57204,62.8311367 136.770704,60.9603472 C136.628614,60.8656477 136.399547,60.8094145 136.350461,60.6827172 C135.810517,59.2785254 134.867553,59.5365772 133.844501,60.0341377 C133.598211,60.1530727 133.333837,60.2642455 133.066879,60.3016768 C131.916376,60.4627004 131.485799,61.2234014 131.371266,62.3163268 C132.123915,62.5050358 132.853312,62.2118813 133.561181,62.0791468 C134.213937,61.9565032 134.691016,62.1091608 135.177568,62.4541499 C135.373912,62.5949917 135.540114,62.798449 135.755403,62.8846963 C137.888483,63.7394067 137.658554,65.604849 137.6775,67.3601534 C137.679222,67.5592121 137.597412,67.7643944 137.533687,67.9594857 C136.892988,69.9145388 136.863709,71.8665733 137.576745,73.8078269 C137.912595,74.7254978 137.627553,75.179331 136.643253,75.098776 C136.126561,75.0559974 136.019777,75.258506 136.010305,75.7422669 C136.002554,76.1381419 135.834629,76.5410891 135.68565,76.9221296 C135.578866,77.1946709 135.460027,77.5783851 135.056146,77.461175 C134.694461,77.3570746 134.242355,77.3793264 134.114043,76.8264814 C133.70155,75.0489251 133.207247,73.3257046 134.195852,71.5239129 C134.884776,70.2682389 135.345494,68.8806065 135.543559,67.4326011 C135.764015,65.8299543 135.026866,64.9408312 133.396701,64.8657098 C131.000108,64.7552271 130.849406,64.9000363 129.991696,67.1246121 C129.53184,68.3166356 129.356164,69.5015006 129.521506,70.7547597 C129.663596,71.8241396 129.466392,72.8290928 128.796414,73.6827683 C127.900813,74.8283046 127.962816,76.0209318 128.499315,77.2687574 C128.593181,77.4898091 128.712021,77.7061173 128.769718,77.9371737 C128.881668,78.3860045 129.216657,78.8498423 128.82311,79.3043654 C128.414061,79.7743268 127.942149,79.4872959 127.486598,79.3673259 C127.39876,79.3441254 127.292838,79.3895777 127.173138,79.4061372 C127.241169,80.3299317 127.742361,80.9999868 128.463147,81.4147499 C130.418829,82.5396731 131.937044,84.2204599 133.73944,85.5081316 C137.694723,88.3370421 142.01169,88.8372763 146.485388,86.7078312 C147.924377,86.0222516 148.751085,84.7406172 149.349588,83.3104649 C149.498567,82.9553849 149.518374,82.5551113 149.360783,82.1996863 C149.152383,81.7297249 148.854424,81.4372604 148.353232,81.92611 C146.756651,83.4829595 144.689881,84.2221848 142.689419,85.0071212 C141.192732,85.5943789 139.612514,85.068443 138.161469,84.6025353 C137.739503,84.4670408 137.338205,83.646053 137.256395,82.9665108 C137.171141,82.2516072 137.638748,82.0730753 138.193331,82.0271918 C139.156102,81.9487068 140.119734,81.9591427 141.077338,82.0969658 C144.132714,82.5369131 146.101313,81.5555917 147.560109,78.8637281 C148.06819,77.9270828 148.556464,76.9790528 149.086935,76.0556032 C149.588989,75.180021 150.246911,74.4556301 151.157151,73.9614333 C153.328121,72.7822606 153.630386,71.9042634 152.467828,69.7369557 C151.817656,68.5251815 151.726374,67.2684726 151.712595,65.9532017 C151.699678,64.8269848 151.688483,63.669374 150.521619,62.7404908" id="path52" fill="#FFFFFF"></path>
                        <path d="M116.780725,30.8954111 C115.45627,30.9196466 114.458192,30.8128724 113.504894,31.2501461 C112.443951,31.736322 111.412288,34.3253788 111.915203,35.3674183 C112.103795,35.7582909 112.46548,35.8047782 112.869362,35.8374659 C113.980251,35.9280256 114.30749,36.4428355 113.982835,37.4986746 C113.422223,39.3243568 113.249131,39.4399282 111.334785,39.2414732 C110.583858,39.1650581 109.835515,39.0457782 109.082866,39.0002396 C107.839359,38.9261532 107.782522,39.0157641 107.729992,40.3094732 C107.693823,41.2123958 107.785967,42.1035026 107.945281,42.9814999 C108.53431,46.2275021 107.830747,49.3428398 107.04968,52.4548138 C106.849031,53.2532911 106.615658,54.046076 106.466678,54.8549891 C106.106716,56.7927928 105.329954,58.5198082 104.046834,60.0230118 C103.443165,60.7308432 103.003976,61.5545909 102.55187,62.3672127 C102.347776,62.7321249 102.404613,63.0416663 102.598372,63.3253336 C102.867053,63.7168962 103.146067,63.3486204 103.399246,63.2556458 C105.616719,62.444059 107.483702,60.8198504 109.890628,60.4428636 C111.170304,58.9024873 113.33783,58.7121396 114.686398,57.2742251 C115.09114,56.8440237 115.559608,56.4875637 116.138304,56.3255051 C117.917449,55.8269096 118.651153,54.1588874 119.825768,52.9929106 C120.086697,52.7341687 119.932551,52.2580838 119.668176,51.9434538 C119.40208,51.6277888 119.125649,51.3204897 118.838023,51.0256966 C117.712495,49.8735193 117.534236,48.1630634 118.540925,46.912478 C119.143733,46.1638517 120.099615,46.121763 120.928045,46.4259571 C121.950236,46.801909 122.527209,46.3943044 123.095571,45.6336034 C124.22885,44.1181526 125.444801,42.6691122 126.479047,41.0735377 C127.277337,39.8428754 127.180888,38.6852646 126.525549,37.4872037 C125.021113,34.7394519 123.082654,32.5040952 119.971303,31.4560183 C118.799271,31.0617821 117.66427,30.8316743 116.780725,30.8954111" id="path54" fill="#C59A19"></path>
                        <path d="M42.0936591,34.1926442 C41.4736278,34.2472388 40.8518743,34.2661269 40.2438993,34.3668637 C39.6522861,34.4645819 39.1080365,34.7189251 38.8229944,35.291607 C38.0117869,36.9276314 37.3641987,38.6205791 37.0421269,40.4310818 C36.9250099,41.0874236 37.1213531,41.5135713 37.6432127,41.9255745 C38.4733657,42.5801913 38.531063,45.4789621 37.7680801,46.2080103 C37.4184514,46.5415285 36.9146761,46.4181949 36.4918492,46.5502394 C35.3663203,46.902042 35.2311191,47.297227 35.9562111,48.2226603 C36.9215653,49.4540125 38.1211535,50.4348165 39.3715498,51.3514525 C39.9054655,51.7432739 40.448854,52.1331115 40.7571473,52.7169193 C41.7905327,54.6747323 43.431032,56.0193273 45.2101771,57.2233392 C46.2762863,57.9454013 47.2313067,58.7724264 47.9202302,59.8720791 C48.3103332,60.4957331 48.9561991,60.75344 49.5512568,61.0890281 C50.2927108,61.5098285 51.135781,61.7857336 51.6249168,62.562994 C51.726533,62.7243626 51.8746516,62.8139735 52.0589386,62.7337636 C52.3129792,62.6215559 52.2501149,62.3931731 52.1967233,62.2007554 C51.9676563,61.3726954 51.7911196,60.5222973 51.4750759,59.7279599 C50.7413723,57.8890819 51.0496656,56.2453814 52.1717499,54.6652451 C53.6804925,52.5427861 54.9050542,50.2579234 55.7894598,47.8069484 C56.1959247,46.6813353 56.6110012,45.6092817 57.7632259,45.0338399 C58.2721682,44.7805317 58.2463335,44.4338177 57.8967048,44.0568308 C57.6883054,43.8318117 57.5048795,43.5515081 57.2482555,43.4066127 C56.3139029,42.8770544 55.50614,42.3103236 54.9687796,41.2770813 C54.4598373,40.2956736 53.2697218,40.3688113 52.2940338,40.25255 C51.6481679,40.1757037 50.9842179,40.1818272 50.3340462,40.2265895 C49.5564237,40.2801491 48.9518933,40.1531931 48.5583457,39.3624781 C48.1492973,38.5387305 48.1337965,37.7890692 48.6375719,37.0260396 C48.6754627,36.9691164 48.7099089,36.9077946 48.7512443,36.853545 C49.7897966,35.4624628 49.7820462,35.4897169 48.0072068,35.0036273 C46.067887,34.4722579 44.0812036,34.3567728 42.0936591,34.1926442" id="path56" fill="#C59A19"></path>
                        <path d="M85.8954202,67.373953 C83.4101284,67.3988784 80.9696166,67.7212707 78.6031641,68.5285452 C76.9988333,69.0763016 75.8009675,69.9751707 75.6063466,71.8042165 C75.408281,73.6673301 75.2489675,75.5128492 76.4976414,77.1499086 C76.7792389,77.5180982 77.019501,77.707066 77.493136,77.6889541 C78.541161,77.6467791 79.533211,77.3655268 80.4882313,76.9827614 C81.5870644,76.5427278 81.730016,75.928561 81.0479817,74.9128269 C80.6639068,74.3424737 80.2445246,73.795666 79.8501158,73.2333338 C79.4359005,72.6417638 79.4772359,72.2691756 80.2875823,72.0889188 C82.2656541,71.6516451 84.2325309,71.1610706 86.2002689,70.6806733 C86.674765,70.564067 87.0338664,70.6105543 87.3774671,71.0316997 C88.8664031,72.847981 90.2390834,74.7315351 91.2242441,76.8834045 C91.5204812,77.5274992 91.3094984,77.7243154 90.733386,77.8830104 C88.7079507,78.4408578 86.7298789,79.1025468 84.9472891,80.2763722 C84.1679443,80.7887672 83.5823593,81.4389854 83.1517821,82.2273717 C82.699676,83.0534481 82.6807306,83.773699 83.379988,84.6378967 C85.4777603,87.2313521 87.5092237,89.8817307 88.3531551,93.2332997 C88.6795326,94.5287337 90.8616981,95.67151 92.1689305,95.4084558 C94.6318323,94.9133965 97.0017295,94.0923225 99.3819604,93.3109222 C100.194029,93.0444181 100.71675,92.3535775 101.299751,91.7783082 C101.728606,91.3556966 102.092875,91.2142511 102.636263,91.6040887 C103.151234,91.973227 103.726485,92.148309 104.3646,91.7731334 C105.071608,91.3556966 105.133611,90.7407535 105.109499,90.0076517 C105.06558,88.6130334 104.278485,87.5496045 103.612812,86.4370147 C103.162429,85.6832998 102.848968,84.9037107 102.741324,84.0334758 C102.526035,82.3048217 101.102547,81.6909999 99.7066157,82.7182049 C98.2529869,83.7874986 98.1152022,84.3929544 98.9453551,86.017163 C99.1020852,86.3214434 99.2751773,86.6276212 99.3699043,86.9536359 C99.5154394,87.4530076 99.4611866,87.9842908 98.9066031,88.1593727 C97.1042068,88.7268798 95.488681,89.761847 93.6389212,90.2189576 C92.8010179,90.4268135 92.255046,90.3319415 91.759021,89.5212171 C90.9934547,88.2671818 89.8567308,87.2520514 89.3874016,85.7971462 C89.0024655,84.6018453 89.0834141,84.3293039 90.1796637,83.7609344 C91.9131677,82.8620654 93.6044751,81.916709 95.5894361,81.562319 C96.9052802,81.3260877 98.0325314,78.6575109 97.2118511,77.4534128 C95.561018,75.0290882 94.3261225,72.373621 92.751071,69.9232498 C91.5566497,68.0646211 89.5131301,67.5936248 87.4429148,67.3806803 C86.9322502,67.3287594 86.4121129,67.373953 85.8954202,67.373953" id="path58" fill="#C59A19"></path>
                        <path d="M73.5938286,51.9579433 C72.7128675,51.9441437 71.9042435,52.2570488 71.065479,52.4079816 C68.6800811,52.8352505 66.4875818,53.8200219 64.2184398,54.5800328 C62.3893477,55.1931647 60.8874943,56.377426 59.4846737,57.6458646 C57.9078998,59.0733431 56.5696658,60.7578386 54.8516626,62.0393868 C54.4977281,62.3032172 54.3263584,62.6441526 54.2290479,63.0656431 C53.8044988,64.9037449 53.3480869,66.7062266 52.233753,68.3112021 C51.5586079,69.2841575 51.9538778,70.4182229 52.6031883,71.3032061 C53.7080495,72.8115847 55.0902024,74.0675174 56.5843054,75.1894219 C57.3188702,75.7415769 57.8192009,75.5923692 57.9707641,74.7669828 C59.2616346,67.7344666 63.7783899,63.3314571 69.7031326,59.9152028 C73.6506647,57.6391373 77.8040128,57.3207124 82.1605933,57.7149486 C83.8045371,57.8641564 85.442453,58.0339773 87.0777853,58.2617563 C90.4647058,58.7326664 92.9543034,60.8032909 95.4335672,62.8853863 C96.0303472,63.3873454 96.6469338,63.9125913 96.9982848,64.6544903 C97.1205688,64.9104722 97.2996889,65.170249 97.6312334,65.0000831 C97.9421101,64.8407844 97.8585782,64.5240844 97.78538,64.2653426 C97.3806374,62.8587359 96.7252989,61.5933159 95.7470274,60.4859872 C93.0335296,57.4103233 89.439932,55.6459629 85.8799194,53.847621 C84.2230582,53.0100738 82.3664092,52.979111 80.5493732,52.7998029 C78.2259785,52.5703852 75.9120564,52.2435943 73.5938286,51.9579433" id="path60" fill="#C59A19"></path>
                        <path d="M122.367034,87.6255021 C122.807084,85.5677285 121.727197,84.1962244 119.881743,83.1915299 C117.324114,81.8011377 114.608033,81.0319845 111.702497,81.0343994 C110.089555,81.0370731 109.859627,81.4665845 110.679446,82.8162681 C111.848033,84.7406172 112.389699,86.8527266 112.694547,89.050307 C112.878834,90.378515 112.670435,91.6446249 112.17441,92.8848607 C111.666329,94.1587329 111.091078,95.4101808 110.945543,96.808249 C110.882678,97.4059426 111.065243,97.5723999 111.636189,97.5896493 C113.094984,97.6327729 114.480582,97.1816997 115.908376,97.0178299 C117.803777,96.7996243 119.416719,97.1290889 120.321793,99.0196291 C120.740314,99.891589 121.41632,99.9726614 122.204276,99.7156445 C123.476201,99.2990702 124.74296,98.8842208 126.055359,98.596155 C127.397038,98.3003268 128.254748,97.2800216 128.878223,96.1751941 C129.794492,94.549433 131.166311,93.9629516 132.901537,94.0466114 C134.124376,94.106122 135.199097,93.6679859 136.272096,93.2143253 C137.590523,92.6563054 139.051041,92.4251627 140.192932,91.4479812 C140.466779,91.2125261 140.595091,91.0158823 140.553756,90.6812429 C140.501225,90.2750183 140.173126,90.3345289 139.919085,90.3293541 C136.646698,90.267256 134.014149,88.6958307 131.540913,86.7638919 C130.782236,86.1713731 130.088145,85.4952808 129.177905,85.1243313 C128.736994,84.9441607 128.501038,84.5543231 128.25647,84.1773362 C127.638161,83.2252526 127.037936,82.2600594 126.39207,81.3267777 C126.133724,80.9541895 125.886573,80.3895286 125.296682,80.5886735 C124.711958,80.7843686 124.363191,81.2752881 124.27363,81.9055831 C124.137568,82.864739 124.438972,83.7531722 124.798935,84.6096076 C125.306155,85.8133607 125.8771,86.9864098 125.992495,88.3215176 C126.04847,88.9640598 126.55569,89.3314731 127.043103,89.6566253 C127.558935,90.0024769 127.869812,90.4561375 128.018791,91.0538311 C128.225468,91.878355 127.770779,92.3561649 126.924264,92.1465841 C126.126835,91.9499403 125.647172,91.3677712 125.304432,90.6648559 C124.891939,89.8213576 124.371802,89.6074644 123.627765,90.3008925 C123.056819,90.8330381 122.714941,90.5553219 122.50568,89.9421038 C122.263696,89.2366011 122.421287,88.5060868 122.367034,87.6255021" id="path62" fill="#C59A19"></path>
                        <path d="M142.514605,148.455702 C142.505993,147.180968 141.6457,146.528938 140.546005,147.154231 C138.866754,148.108988 137.204726,149.059433 135.310186,149.513094 C134.819328,149.63039 134.898554,150.029715 134.933862,150.346242 C135.017394,151.087969 134.741824,151.689112 134.32072,152.257482 C132.718111,154.427463 130.973412,156.465486 128.710298,157.974813 C128.175521,158.331015 128.008457,158.845048 128.142798,159.284047 C128.296944,159.788594 128.904919,159.653185 129.326024,159.535027 C132.095497,158.761389 135.1414,158.738102 137.407097,156.581058 C141.172926,155.276999 141.436439,151.706362 142.51116,148.661833 C142.532689,148.600598 142.513743,148.5247 142.514605,148.455702" id="path64" fill="#C59A19"></path>
                        <path d="M94.2667028,116.189736 C94.3200944,114.651947 94.3149275,114.626073 92.8501037,114.924488 C91.8287745,115.134069 90.8341411,115.181505 89.7930054,115.002111 C88.4022409,114.763206 87.8493797,115.331575 87.8950209,116.77018 C87.9380786,118.168248 88.4496044,119.449883 88.9017105,120.744454 C89.1161379,121.361122 89.6147464,121.399071 90.170191,121.299887 C93.0869212,120.774641 94.1521693,119.449883 94.2667028,116.189736" id="path66" fill="#FFFFFF"></path>
                        <path d="M84.6346901,122.183921 C84.8749522,122.185646 85.1160754,122.187371 85.3563375,122.184784 C86.3053297,122.174434 86.6704592,121.801846 86.6007057,120.885037 C86.4758383,119.242889 86.3380536,117.602466 86.206297,115.96118 C86.1985466,115.857684 86.2347151,115.720551 86.1813235,115.65759 C85.4880941,114.834791 84.5201565,114.991761 83.6211112,115.005561 C83.0243312,115.014185 82.2682376,114.79598 82.0055854,115.67484 C81.5078382,117.335962 81.2804934,119.031583 81.3924435,120.763428 C81.445835,121.588815 82.1580098,122.077837 83.3980722,122.177884 C83.8079818,122.210658 84.2221971,122.182196 84.6346901,122.183921" id="path68" fill="#FFFFFF"></path>
                        <path d="M88.6580038,111.911009 C88.6252799,110.84068 88.1705903,110.185201 87.3266589,109.872986 C86.2312705,109.466761 85.1617166,109.58492 84.2428648,110.343896 C83.55308,110.91399 83.2206744,111.787675 83.5065777,112.559588 C83.8088429,113.374625 84.812949,113.524695 85.5845434,113.529007 C86.4146964,113.534182 87.2551831,113.246979 88.040556,112.894227 C88.5443314,112.667397 88.8121504,112.336208 88.6580038,111.911009" id="path70" fill="#FFFFFF"></path>
                        <path d="M91.9338354,110.556064 C90.2898915,110.59315 90.2898915,110.59315 90.0780475,112.202524 C89.9781536,112.964088 90.4362877,113.428961 91.2388837,113.37635 C91.7857168,113.340988 92.3351334,113.249566 92.8776607,113.283203 C93.4632457,113.319427 93.8507652,113.073622 94.206422,112.663085 C95.0486311,111.692803 94.8298979,110.959701 93.5700289,110.699234 C93.0378354,110.588838 92.4798073,110.60005 91.9338354,110.556064" id="path72" fill="#FEFEFE"></path>
                        <path d="M97.7414611,114.194836 C97.1515703,114.367331 96.3214174,113.991293 96.0734049,114.665746 C95.7530555,115.535119 95.8830898,116.498501 96.2818043,117.371323 C96.4437014,117.7258 96.7356327,117.737012 97.0525376,117.560205 C97.9197201,117.076358 98.7860415,116.591648 99.6558075,116.114701 C100.119109,115.861134 100.012325,115.410923 100.041605,115.016773 C100.076912,114.529476 99.6299729,114.482902 99.3389027,114.410455 C98.8118762,114.280221 98.2581538,114.258659 97.7414611,114.194836" id="path74" fill="#FEFEFD"></path>
                        <path d="M98.6990649,111.005412 C98.5965875,111.005412 98.493249,110.99765 98.3916328,111.007137 C97.9576109,111.051123 97.2729931,110.83033 97.3022724,111.523758 C97.3246624,112.076603 97.8163816,112.463854 98.4622474,112.458679 C98.8032646,112.456091 99.1477264,112.437117 99.4861601,112.463854 C99.9787405,112.503527 100.332675,112.25686 100.369705,111.823036 C100.416207,111.30469 100.025243,111.046811 99.5180228,111.021799 C99.245898,111.008 98.9711897,111.019212 98.6990649,111.019212 C98.6990649,111.014899 98.6990649,111.009725 98.6990649,111.005412" id="path76" fill="#FBFCFC"></path>
                        <path d="M127.360008,127.144002 C126.059665,127.5968 125.508526,126.755026 124.83252,125.609663 C123.528732,123.401732 121.547215,121.800983 119.187652,120.806552 C116.812588,119.805221 114.30749,119.151467 111.770529,118.697806 C109.528082,118.297619 107.296831,118.58396 105.170641,119.346386 C99.7109214,121.305924 94.6593893,123.952853 90.6154079,128.252279 C88.0775856,130.951819 86.0900411,133.940287 85.2736667,137.634257 C84.7698913,139.912048 85.0351269,142.058742 85.9272829,144.181287 C86.7875762,146.224485 87.8381847,148.169361 89.2315326,149.87447 C91.2251052,152.313543 94.1581974,152.962985 97.0361756,153.656413 C101.078435,154.628419 103.912494,152.347179 106.570017,149.921906 C109.931964,146.851503 112.242441,142.928977 114.608033,139.093561 C116.497406,136.028333 118.635652,133.221847 121.429237,130.91732 C122.224083,130.260978 123.043041,129.909089 124.024757,129.893565 C125.536944,129.869415 127.052576,129.827154 128.561319,129.905639 C129.977918,129.980674 131.358348,130.253216 132.376233,131.422729 C132.593244,131.671121 132.929955,131.834991 133.237387,131.982473 C134.17949,132.433547 134.99242,131.967811 135.031172,130.944056 C135.093175,129.291559 134.879609,127.948689 132.419291,127.653723 C130.786542,127.458804 129.165849,127.143139 127.360008,127.144002" id="path80" fill="#100F0D"></path>
                        <path d="M133.52243,141.816387 C133.450954,142.439955 133.593905,143.019537 134.237188,143.249817 C134.993281,143.521496 135.733013,143.239467 136.221288,142.697834 C139.36364,139.203957 143.163915,136.298287 145.607871,132.177392 C146.466442,130.729301 147.393906,129.322608 148.254199,127.874516 C148.571965,127.339783 148.744196,126.729152 148.675304,126.09006 C148.62019,125.577751 148.804477,124.872248 148.138804,124.702341 C147.430935,124.521222 146.671397,124.610057 146.201207,125.322459 C145.519172,126.356564 144.826804,127.387219 144.199884,128.45496 C142.016857,132.174805 138.961481,135.178797 136.107615,138.345797 C135.563366,138.95039 134.750436,139.286755 134.212214,139.929297 C133.760108,140.47093 133.408757,141.052236 133.52243,141.816387" id="path82" fill="#110F0E"></path>
                        <path d="M77.5689176,125.250012 C76.9738599,125.265536 76.4356383,125.344021 76.3684683,126.085748 C76.2987148,126.855936 76.0558692,127.705471 76.9928053,128.156545 C77.8892671,128.588643 78.8072577,128.975031 79.7183592,129.378668 C80.6888803,129.809905 81.741211,129.635685 82.1485371,128.980206 C82.3913827,128.590368 81.9668335,126.848173 81.3950269,126.673954 C80.0860721,126.278079 78.9545152,125.409569 77.5689176,125.250012" id="path84" fill="#110F0D"></path>
                        <path d="M100.070023,145.734601 C100.689193,145.734601 101.308363,145.720801 101.926672,145.738051 C103.0367,145.7691 103.541337,144.785018 104.298291,144.260635 C104.736619,143.957045 104.016694,142.084616 103.284712,141.80345 C101.735496,141.211794 100.701249,140.141465 99.7479511,138.825332 C98.8523504,137.591133 97.7759073,137.873162 96.5384283,138.678712 C94.936681,139.723166 94.7988963,141.314428 94.3993206,142.834968 C94.0488308,144.170938 94.3941537,144.653922 95.7272208,145.119658 C97.1352084,145.610405 98.5690306,145.911408 100.070023,145.734601" id="path86" fill="#FFFFFF"></path>
                    </g>
                </g>
            </g>
        </g>
    </g>
</svg>