<?xml version="1.0" encoding="UTF-8"?>
<svg width="200px" height="200px" viewBox="0 0 200 200" version="1.1" xmlns="http://www.w3.org/2000/svg" xmlns:xlink="http://www.w3.org/1999/xlink">
    <!-- Generator: Sketch 51.3 (57544) - http://www.bohemiancoding.com/sketch -->
    <title>wheelock</title>
    <desc>Created with Sketch.</desc>
    <defs></defs>
    <g id="wheelock" stroke="none" stroke-width="1" fill="none" fill-rule="evenodd">
        <g id="wheelock_BGL">
            <g id="weelock" transform="translate(0.000000, 61.000000)">
                <g id="g10" transform="translate(99.935273, 38.974758) scale(-1, 1) rotate(-180.000000) translate(-99.935273, -38.974758) translate(0.000000, 0.139808)" fill-rule="nonzero">
                    <g id="g12">
                        <path d="M0,77.4187683 L57.6486717,77.4187683 L57.6486717,70.3420047 L131.661356,70.3420047 L131.661356,66.2322314 L135.706922,66.2322314 C135.706922,66.2322314 138.101744,70.3420047 142.341485,70.3420047 C146.580708,70.3420047 199.072616,70.3420047 199.072616,70.3420047 L199.072616,58.4652413 L196.386791,58.4652413 C196.386791,58.4652413 198.004914,57.4296426 198.004914,55.6494484 C198.004914,53.8697721 198.004914,49.4360635 198.004914,49.4360635 L199.525691,49.4360635 L199.525691,20.8062131 C199.525691,20.8062131 167.357925,20.8062131 166.09553,20.8062131 C164.832617,20.8062131 163.085562,21.4103813 162.632488,21.9281807 L162.632488,20.8062131 L144.736307,20.8062131 L144.736307,21.0541872 L143.603362,21.0541872 L143.603362,20.8062131 L127.777861,20.8062131 L127.777861,21.0541872 L126.710159,21.0541872 L126.710159,20.8062131 L108.55456,20.8062131 L108.55456,21.6367114 C108.55456,21.6367114 107.681033,20.8062131 105.577214,20.8062131 C103.473913,20.8062131 97.3250461,20.8062131 96.4836222,20.8062131 C95.6421983,20.8062131 94.0240753,21.0867568 93.2794799,21.8308862 L93.2794799,20.8062131 C93.2794799,20.8062131 79.4614867,20.8062131 78.7163734,20.8062131 C77.971778,20.8062131 76.2423282,21.2257341 75.3506777,22.2192357 L24.769035,22.2192357 L23.1290609,32.1112225 L8.45835578,32.1112225 L3.19377079,63.3517136 L0,63.3517136 L0,77.4187683" id="path14" fill="#20315E"></path>
                        <polyline id="path16" fill="#F9A81F" points="3.02083099 74.6138493 3.02083099 66.19961 5.8040128 66.19961 11.0467311 34.937682 24.1858894 34.937682 28.7813585 56.6203222 33.6357273 34.8729571 46.7101606 34.8729571 51.952879 66.19961 54.8655002 66.19961 54.8655002 74.6138493 38.4900961 74.6138493 38.4900961 66.19961 41.2732676 66.19961 38.554821 49.1124389 33.2473778 74.6138493 24.5742389 74.6138493 19.1373458 49.1124389 16.5483491 66.19961 19.2020707 66.19961 19.2020707 74.6138493 3.02083099 74.6138493"></polyline>
                        <polyline id="path18" fill="#F9A81F" points="77.1961146 46.5234422 77.1961146 40.9570993 68.9760501 40.9570993 68.9760501 51.6043482 65.4482832 51.6043482 65.4482832 40.9247368 57.0666652 40.9247368 57.0666652 46.5234422 58.9752736 46.5234422 58.9752736 61.4099661 57.098251 61.4099661 57.098251 66.976309 65.4803867 66.976309 65.4803867 57.0086717 69.0076358 57.0086717 69.0076358 66.9442054 77.2277003 66.9442054 77.2277003 61.4099661 75.7069237 61.4099661 75.7069237 46.5234422 77.1961146 46.5234422"></polyline>
                        <polyline id="path20" fill="#F9A81F" points="80.7342375 61.3669888 79.094367 61.3669888 79.094367 66.9550792 96.6135898 66.9550792 96.6135898 58.6915196 90.9607744 58.6915196 90.9607744 61.3669888 87.2932017 61.3669888 87.2932017 56.6203222 92.4277 56.6203222 92.4277 51.9601282 87.2932017 51.9601282 87.2932017 46.5020053 90.9607744 46.5020053 90.9607744 49.8029761 96.5706125 49.8029761 96.5706125 40.9356624 79.0731372 40.9356624 79.0731372 46.5448791 80.7342375 46.5448791 80.7342375 61.3669888"></polyline>
                        <polyline id="path22" fill="#F9A81F" points="100.376438 61.3669888 98.7365671 61.3669888 98.7365671 66.9550792 116.25579 66.9550792 116.25579 58.6915196 110.602975 58.6915196 110.602975 61.3669888 106.935402 61.3669888 106.935402 56.6203222 112.0699 56.6203222 112.0699 51.9601282 106.935402 51.9601282 106.935402 46.5020053 110.602975 46.5020053 110.602975 49.8029761 116.212813 49.8029761 116.212813 40.9356624 98.7153373 40.9356624 98.7153373 46.5448791 100.376438 46.5448791 100.376438 61.3669888"></polyline>
                        <polyline id="path24" fill="#F9A81F" points="128.328282 66.976309 118.382392 66.976309 118.382392 61.3887363 120.086469 61.3887363 120.086469 46.5234422 118.339415 46.5234422 118.339415 40.9358695 135.771647 40.9358695 135.771647 51.0329567 129.385628 51.0329567 129.385628 46.5236493 126.753654 46.5236493 126.753654 61.4104839 128.328282 61.4104839 128.328282 66.976309"></polyline>
                        <path d="M147.745757,46.4910797 L144.380061,46.4910797 L144.380061,61.4099661 L147.745757,61.4099661 L147.745757,46.4910797 Z M154.477148,61.3778625 C154.477148,65.8438818 151.047245,66.976309 149.525951,66.976309 L142.729835,66.976309 C141.239608,66.976309 137.77812,65.8438818 137.77812,61.3778625 C137.77812,58.8209694 137.746016,49.1124389 137.746016,46.5234422 C137.746016,43.7732546 139.525692,40.8923744 142.66511,40.8923744 L149.590676,40.8923744 C152.729575,40.8923744 154.50977,43.7732546 154.50977,46.5234422 C154.50977,49.1124389 154.477148,58.8209694 154.477148,61.3778625 Z" id="path26" fill="#F9A81F"></path>
                        <path d="M162.643362,40.8923744 C159.503944,40.8923744 157.724268,43.7732546 157.724268,46.5234422 C157.724268,49.1124389 157.756371,58.8209694 157.756371,61.3778625 C157.756371,65.8438818 161.21786,66.976309 162.708087,66.976309 C164.396112,66.976309 173.765174,66.976309 173.765174,66.976309 L173.765174,58.6055649 L168.026404,58.6055649 L168.026404,61.3669888 L164.401808,61.3669888 L164.401808,46.4801542 L167.939931,46.4801542 L167.939931,50.9680246 L174.066533,50.9680246 L174.066533,40.8709375 L162.643362,40.8923744" id="path28" fill="#F9A81F"></path>
                        <polyline id="path30" fill="#F9A81F" points="176.137212 66.976309 176.137212 61.4099661 177.863038 61.4099661 177.863038 46.5232351 176.18019 46.5232351 176.18019 40.9998177 184.551452 40.9998177 184.551452 51.0107431 187.917147 51.0107431 187.917147 40.9998177 196.201937 40.9998177 196.201937 46.5232351 194.691516 46.5232351 194.691516 55.8001281 190.549121 55.8001281 193.48349 61.4099661 195.51171 61.4099661 195.51171 67.0192864 189.384073 67.0192864 184.574235 56.3940439 184.574235 66.976309 176.137212 66.976309"></polyline>
                        <polyline id="path32" fill="#FFFFFF" points="146.156631 34.6998567 144.674171 34.6998567 144.674171 37.6225751 160.506404 37.6225751 160.506404 33.30097 155.397278 33.30097 155.397278 34.6998567 152.083362 34.6998567 152.083362 32.2174231 156.722844 32.2174231 156.722844 29.7799345 152.083362 29.7799345 152.083362 26.9247372 155.397278 26.9247372 155.397278 28.6510802 160.467051 28.6510802 160.467051 24.0135657 144.656048 24.0135657 144.656048 26.9476239 146.156631 26.9476239 146.156631 34.6998567"></polyline>
                        <polyline id="path34" fill="#FFFFFF" points="181.777083 34.6777985 180.295659 34.6777985 180.295659 37.6003097 196.126338 37.6003097 196.126338 33.2781351 191.018248 33.2781351 191.018248 34.6777985 187.704332 34.6777985 187.704332 32.1947953 192.343296 32.1947953 192.343296 29.7573067 187.704332 29.7573067 187.704332 26.9023165 191.018248 26.9023165 191.018248 28.6288666 196.086985 28.6288666 196.086985 23.990679 180.275983 23.990679 180.275983 26.9249443 181.777083 26.9249443 181.777083 34.6777985"></polyline>
                        <polyline id="path36" fill="#FFFFFF" points="119.965304 37.5891771 110.977344 37.5891771 110.977344 34.6666658 112.517797 34.6666658 112.517797 26.8911838 110.939026 26.8911838 110.939026 23.9684654 126.691 23.9684654 126.691 29.2498116 120.920644 29.2498116 120.920644 26.8911838 118.541874 26.8911838 118.541874 34.6777985 119.965304 34.6777985 119.965304 37.5891771"></polyline>
                        <polyline id="path38" fill="#FFFFFF" points="136.763751 37.5891771 127.776825 37.5891771 127.776825 34.6666658 129.315725 34.6666658 129.315725 26.8911838 127.736955 26.8911838 127.736955 23.9684654 143.489446 23.9684654 143.489446 29.2498116 137.719608 29.2498116 137.719608 26.8911838 135.34032 26.8911838 135.34032 34.6777985 136.763751 34.6777985 136.763751 37.5891771"></polyline>
                        <path d="M102.39948,26.9193003 L99.3584441,26.9193003 L99.3584441,34.7224846 L102.39948,34.7224846 L102.39948,26.9193003 Z M108.482586,34.7057079 C108.482586,37.0418632 105.382522,37.634122 104.008282,37.634122 L97.8666642,37.634122 C96.5203859,37.634122 93.3923601,37.0418632 93.3923601,34.7057079 C93.3923601,33.3683357 93.364399,28.2902258 93.364399,26.936077 C93.364399,25.4975787 94.9716481,23.990679 97.8086707,23.990679 L104.066794,23.990679 C106.903298,23.990679 108.512101,25.4975787 108.512101,26.936077 C108.512101,28.2902258 108.482586,33.3683357 108.482586,34.7057079 Z" id="path40" fill="#FFFFFF"></path>
                        <path d="M80.593396,23.9455787 C77.7568913,23.9455787 76.1491243,25.4528926 76.1491243,26.8911838 C76.1491243,28.2453326 76.1776033,33.3236497 76.1776033,34.6608147 C76.1776033,36.9967628 79.3056291,37.5891771 80.6524252,37.5891771 C82.177862,37.5891771 90.644399,37.5891771 90.644399,37.5891771 L90.644399,33.2103552 L85.4586386,33.2103552 L85.4586386,34.6551189 L82.18304,34.6551189 L82.18304,26.8685042 L85.3804509,26.8685042 L85.3804509,29.2154297 L90.9162437,29.2154297 L90.9162437,23.9346531 L80.593396,23.9455787" id="path42" fill="#FFFFFF"></path>
                        <path d="M167.584203,23.9455787 C164.74718,23.9455787 163.139931,25.4528926 163.139931,26.8911838 C163.139931,28.2453326 163.167892,33.3236497 163.167892,34.6608147 C163.167892,36.9967628 166.295918,37.5891771 167.642714,37.5891771 C169.168151,37.5891771 177.634688,37.5891771 177.634688,37.5891771 L177.634688,33.2103552 L172.44841,33.2103552 L172.44841,34.6551189 L169.173329,34.6551189 L169.173329,26.8685042 L172.370222,26.8685042 L172.370222,29.3496951 L170.707051,29.3499022 L170.707051,32.0250607 L177.906533,32.0250607 L177.906533,23.9346531 L167.584203,23.9455787" id="path44" fill="#FFFFFF"></path>
                        <path d="M20.9000901,53.4995456 C20.9000901,53.4995456 28.3232096,53.7983158 34.151093,48.7259535 C34.151093,48.7259535 38.9730993,49.9494098 46.7775263,49.0240506 C46.7775263,49.0240506 46.500193,49.4118305 45.7368532,49.8301088 C45.7368532,49.8301088 55.8653708,50.5463288 63.8446586,45.3543549 C63.8446586,45.3543549 67.2424579,45.652918 70.261228,45.4735005 C73.2794804,45.2942901 76.6441405,44.6677011 78.2042699,44.8768403 C79.7659527,45.0853581 82.0199332,45.3543549 85.0381856,49.7400635 C85.0381856,49.7400635 84.3443345,46.1003484 82.9566322,43.683261 C81.56893,41.266588 78.8292537,39.3266527 77.0252408,38.5811252 C77.0252408,38.5811252 76.3655644,36.4628081 75.117668,34.5825234 C75.117668,34.5825234 75.1523606,31.002407 73.1748849,29.3610349 C73.1748849,29.3610349 78.9322958,28.5552355 82.5755319,27.2724394 C82.5755319,27.2724394 79.0021987,28.3464588 73.6605807,28.6448148 C73.6605807,28.6448148 74.0774092,28.0774621 74.4585095,27.4219281 C74.4585095,27.4219281 78.2042699,26.5564265 80.8067294,25.660789 C80.8067294,25.660789 77.4752084,26.6761935 74.6656292,26.8549896 C74.6656292,26.8549896 76.3313897,24.0202454 75.1865353,19.6929445 C75.1865353,19.6929445 73.1054998,21.6626014 72.3769561,22.2000253 C72.3769561,22.2000253 73.7646584,18.7691905 72.3417458,17.1268345 C72.3417458,17.1268345 70.6770209,19.1559348 68.2490598,19.6339154 C68.2490598,19.6339154 70.5387685,14.7997407 69.2551439,10.2948865 C69.2551439,10.2948865 67.590419,12.6213589 65.6823285,13.9055531 C65.6823285,13.9055531 68.6301601,6.59526197 65.092555,2.2737367e-14 C65.092555,2.2737367e-14 64.1216812,5.07240893 57.7035584,9.1003234 C57.7035584,9.1003234 55.8653708,5.66928141 51.9119728,4.53600506 C47.9577464,3.40190024 45.0774875,4.17819536 44.2805426,4.32726462 C43.4826138,4.47532416 40.6043744,5.16403871 39.1460443,5.96701603 C37.7926722,6.7144076 37.2380573,7.75870531 37.2380573,7.75870531 C37.2380573,7.75870531 33.596271,8.05742375 30.9947436,10.5637279 C30.9947436,10.5637279 34.151093,10.3238315 34.3244522,10.8913913 C34.3244522,10.8913913 33.1104199,11.4277796 30.7170478,11.3992489 C28.3232096,11.3687505 25.5481159,10.5926211 22.669514,8.65351435 C22.669514,8.65351435 23.7095658,10.0857473 24.0574233,10.6225499 C24.4039347,11.160181 25.3404266,12.3830677 25.7214751,12.7710547 C25.7214751,12.7710547 18.7152358,11.0105369 16.2520125,5.7598963 C16.2520125,5.7598963 13.6161032,10.9508347 17.4662002,17.7538377 C17.4662002,17.7538377 15.5588346,17.0972682 13.338977,14.7997407 C13.338977,14.7997407 9.83513244,20.4690739 19.0277277,30.3159604 C19.0277277,30.3159604 13.9627699,28.7639604 11.2918573,27.3023682 C11.2918573,27.3023682 13.0606599,32.0165688 21.1084008,35.6567499 C21.1084008,35.6567499 17.9520513,36.880258 13.1306663,36.7609052 C13.1306663,36.7609052 15.767197,38.9688534 19.6516759,39.3865103 C19.6516759,39.3865103 17.3270675,40.9680249 17.0499413,44.2499924 C17.0499413,44.2499924 17.9172552,43.474329 19.2697989,42.9374747 C19.2697989,42.9374747 17.3620708,44.9666267 16.460375,47.5922318 C16.460375,47.5922318 18.3333588,47.0250862 18.8191581,47.0250862 C18.8191581,47.0250862 14.7609058,49.3523353 13.026278,56.7223287 C13.026278,56.7223287 15.1422132,54.1561152 16.4953264,53.4104841 C17.8479219,52.6648531 20.8662778,52.5452414 22.0448927,52.4856945 C22.0448927,52.4856945 21.6980189,53.0821993 20.9000901,53.4995456" id="path46" fill="#20315E"></path>
                        <path d="M31.7924652,30.7038957 C27.3529572,29.1518957 27.0748472,26.764789 27.0748472,26.764789 C32.1395461,26.8842971 32.763339,26.3472874 32.763339,26.3472874 C27.3529572,22.0505884 28.045721,18.649061 28.045721,18.649061 C36.6484392,17.4554818 38.5918437,13.3373718 38.5918437,13.3373718 C31.3757921,18.291883 23.9532939,15.3673006 23.9532939,15.3673006 C22.7736434,21.155158 28.6704977,24.796323 28.6704977,24.796323 C25.2018634,25.094679 21.1084008,23.6017599 21.1084008,23.6017599 C23.4674428,29.7486077 31.7924652,30.7038957 31.7924652,30.7038957 Z M49.6909243,31.4593649 C50.3737981,31.1230025 50.9633644,30.7038957 50.6630408,30.58475 C50.2645424,30.4263552 49.6678823,30.7635462 48.9749114,31.002407 C48.281371,31.2409054 40.3950281,34.0851771 25.4328537,34.3834813 C28.3232096,34.5825234 43.6100442,34.4631707 49.6909243,31.4593649 Z M53.9691896,26.9639864 C56.5359209,27.0630932 57.6693837,28.8936174 57.6693837,28.8936174 C57.6238173,27.401475 56.5359209,26.3072615 53.5533967,26.3072615 C50.5699923,26.3072615 47.6561283,28.2767113 47.6561283,28.2767113 C47.6561283,28.2767113 51.4020958,26.8648796 53.9691896,26.9639864 Z M47.3670927,8.14705481 C51.8068595,7.1027571 54.894497,8.74314541 54.894497,8.74314541 C51.0784712,4.17819536 43.4126073,6.50506133 43.4126073,6.50506133 C45.6680895,6.50506133 47.3670927,8.14705481 47.3670927,8.14705481 Z M60.6296425,15.5851388 C64.6524256,10.8121162 64.4686068,7.07158558 64.4686068,7.07158558 C62.9882185,9.93610331 58.7800633,12.0451 58.7800633,12.0451 C59.3341085,14.2726728 60.6296425,15.5851388 60.6296425,15.5851388 Z M77.0594155,43.683261 C76.0191567,43.6535394 73.0708072,44.1903419 69.6020695,44.3695523 C66.1333317,44.5483484 63.5666004,44.100918 63.5666004,44.100918 C57.4622639,48.099727 50.1075975,48.5469502 50.1075975,48.5469502 C50.1075975,48.5469502 52.1190925,47.2139794 53.0910019,46.4977594 C53.0910019,46.4977594 47.8646978,47.9696558 43.5169957,48.2089308 C39.1690864,48.4472221 35.1456302,47.7712351 33.6195202,47.3729956 C33.6195202,47.3729956 30.6128665,50.7548466 24.4154298,51.9886071 C24.4154298,51.9886071 24.8206078,50.9935521 24.8206078,50.128413 C24.8206078,50.128413 23.5018247,50.9336427 22.7736434,51.1424194 C22.0448927,51.3515586 20.6573458,51.411002 19.8250351,51.4407236 C18.9927244,51.4706524 17.4312488,51.7093579 16.4259931,52.1869243 C16.4259931,52.1869243 18.2641808,50.5756363 20.6917276,50.0687625 C23.1199476,49.5610602 25.4793521,49.4417593 28.7392614,48.0396622 C32.0004134,46.6369438 35.3654878,43.2951187 34.3588341,39.3567887 C34.3588341,39.3567887 31.9656173,41.266588 30.2659928,41.8033905 C28.5665236,42.3398307 27.872776,42.5495394 26.0689702,42.5793129 C24.2647502,42.6086203 23.9532939,42.9969698 23.640802,43.5641154 C23.640802,43.5641154 24.4387308,43.2054876 25.7914816,43.4144196 C25.7914816,43.4144196 23.7095658,44.399274 23.640802,45.9212934 C23.640802,45.9212934 24.5772421,44.8768403 25.8258634,44.9959342 C25.8258634,44.9959342 25.6415786,46.0388338 24.4387308,46.9055263 C23.1549509,47.8306784 21.6980189,48.2184583 20.8662778,48.4273904 C20.0329833,48.6365295 18.4031063,49.2328272 17.7787439,49.7999729 C17.7787439,49.7999729 19.4431581,47.7410991 21.4900707,46.6670797 C21.4900707,46.6670797 21.0740189,45.4439859 18.8191581,45.7718565 C18.8191581,45.7718565 19.8944202,44.100918 20.4496564,43.5339795 C21.4425367,42.5191963 21.7552357,42.3082449 23.1725561,41.699054 C24.1437923,41.2813452 25.8258634,40.4905103 25.8258634,40.4905103 C25.8258634,40.4905103 20.6573458,41.0578631 19.4089833,41.6245944 C19.4089833,41.6245944 19.617294,40.0723873 24.4387308,38.3424198 C24.4387308,38.3424198 19.4781613,38.4912871 17.4312488,37.6854877 C17.4312488,37.6854877 21.2819671,37.3572029 24.0918052,35.3580315 C24.0918052,35.3580315 18.2291775,33.5380186 14.7259543,30.0173973 C14.7259543,30.0173973 19.0277277,32.1061998 22.5303295,31.8375655 C22.5303295,31.8375655 14.4482068,25.0044266 14.0671582,17.8733976 C14.0671582,17.8733976 16.8072488,21.5440771 23.0507697,22.3792357 C23.0507697,22.3792357 16.00932,16.3515336 16.7374494,8.8925823 C16.7374494,8.8925823 20.1719089,13.3084786 30.3357403,15.1579543 C30.3357403,15.1579543 28.1846465,13.5161679 26.6585883,11.8462651 C26.6585883,11.8462651 31.7924652,13.9055531 36.5099279,11.0706017 C36.5099279,11.0706017 36.1977984,9.96603211 34.6365299,9.60823277 C34.6365299,9.60823277 37.7589117,8.32626516 42.5461219,8.5633137 C42.5461219,8.5633137 40.7416948,7.25079594 39.7364391,7.13165031 C39.7364391,7.13165031 42.443753,5.51818756 46.7431445,5.25162446 C51.0784712,4.98381865 54.6516491,5.72996749 57.0454355,10.8013978 C57.0454355,10.8013978 62.0059531,8.65351435 65.0583803,3.40190024 C65.0583803,3.40190024 67.278186,11.1306664 62.2477654,17.1268345 C62.2477654,17.1268345 65.5435582,16.2619543 68.2842701,13.2779285 C68.2842701,13.2779285 68.7352734,17.3058378 65.4394806,21.7522325 C65.4394806,21.7522325 69.948995,20.6187179 71.6137199,19.3946403 C71.6137199,19.3946403 71.683105,20.6187179 70.6081536,22.737035 C70.6081536,22.737035 68.3531374,22.9458117 64.2604515,22.737035 C64.2604515,22.737035 62.2477654,21.5139412 59.9590924,18.4097859 C57.6693837,15.3076501 56.0735261,11.7566858 55.2414226,10.0260968 C55.2414226,10.0260968 54.3766977,10.0918056 52.6399987,10.0556114 C49.7953127,9.99658227 49.3784324,9.5186017 47.9921283,9.48929426 C46.6045814,9.45972792 45.0431057,9.48929426 43.966808,10.2342004 C42.8927886,10.9809706 42.9959342,12.3531388 42.9271704,13.2483621 C42.85763,14.1435854 42.0596494,18.3211905 36.9255654,20.0218506 C36.9255654,20.0218506 39.7012288,20.2599348 40.672931,19.604349 C40.672931,19.604349 40.7629245,20.9336435 38.6959731,22.7971515 C37.2380573,24.1092033 34.4629635,24.1092033 34.4629635,24.1092033 C34.6015266,24.4075593 34.7407111,25.1537081 34.8796367,25.8404136 C35.0181998,26.5262906 35.053203,27.4219281 35.7467434,28.8240252 C36.4401285,30.2261222 38.868711,31.7182646 38.868711,31.7182646 C36.3707434,32.2550672 30.8211772,31.8375655 30.8211772,31.8375655 C40.6954035,33.6877144 42.5104973,32.0165688 42.5104973,32.0165688 C41.9191187,31.8260704 41.3778113,31.6306529 40.8976559,31.412038 C40.348478,31.1614232 39.1690864,30.6239992 38.2904327,28.3962194 C39.1005298,29.0331643 40.3725556,29.4290219 42.1524909,29.3308989 C44.3260571,29.2121676 44.9237529,28.6889313 46.0835199,28.03842 C47.7484001,27.1031708 49.6454098,26.1684913 50.8005683,25.925954 C51.7975392,25.717022 52.8212285,25.5833262 53.784853,25.571624 C57.0454355,25.5315463 57.7848529,27.2625495 57.7848529,27.2625495 C59.8891894,25.1143036 61.3234936,25.2928926 62.710678,25.273268 C64.0983803,25.253022 65.7641408,25.5119217 67.1968915,25.7305884 C68.6301601,25.949255 69.5099012,25.949255 70.0411633,25.9296304 C70.5729432,25.9095916 71.2201924,25.6310673 71.2201924,25.6310673 C71.3594804,26.2874298 71.0027167,27.201242 71.0027167,27.201242 C70.4595452,27.2198828 69.8314546,27.2117534 68.7699659,27.1632356 C65.9712605,27.0337857 64.7477006,26.5707696 64.5897718,26.7041029 C64.4240761,26.8430285 65.1044644,27.2625495 66.1716488,27.567378 C66.7391569,27.7277404 67.3900307,27.8313003 68.1335905,27.8980446 C68.8699012,27.9662388 69.6797394,27.9888666 70.8836228,27.897475 C70.8370209,28.3879346 70.7577976,28.6448148 70.7577976,28.6448148 C69.6253704,28.6153003 68.9506779,28.5349896 67.8798689,28.3962194 C66.0411634,28.1577728 65.0350793,27.6699022 64.8621343,27.8096563 C64.6576036,27.972297 65.5342378,28.624776 67.0353381,29.0070672 C67.928542,29.2336044 69.5715193,29.3780187 70.5263413,29.371132 C70.5263413,29.371132 70.2462118,30.5926206 69.3126196,31.280517 C66.204788,33.5701739 63.2429758,34.1053713 63.2429758,34.1053713 C65.7641408,32.9520768 65.092555,31.4995979 64.1905486,31.0619021 C63.2895777,30.6239992 61.6704192,30.7437144 60.5364386,30.3452678 C59.4040115,29.9482193 58.4564387,28.714407 58.4564387,28.714407 C58.1550795,31.280517 55.7965035,32.0764782 54.5941734,32.7724523 C53.8847883,33.1830671 53.5300957,33.6417856 53.4239469,34.0714037 C45.3391833,36.5436884 38.9376819,35.5076755 38.9376819,35.5076755 C46.3616299,34.6419668 49.3137075,32.976517 50.0734227,32.4941351 C51.3565812,31.6786011 50.6994421,31.5242969 49.7265489,31.9164782 C39.6777725,35.9745234 24.4387308,36.4026916 24.4387308,36.4026916 C30.8555591,36.5821091 37.8974748,35.7164004 37.8974748,35.7164004 C41.7138113,36.880258 44.9742901,37.1482709 44.9742901,37.1482709 C43.4826138,37.8349764 42.684685,38.6106398 41.8867562,39.6551446 C41.0887757,40.6994423 41.2271317,40.8485168 40.672931,41.654109 C40.3242449,42.1607756 39.492711,42.727973 39.492711,42.727973 C40.4304456,42.8179666 42.1292417,42.1017465 42.1292417,42.1017465 C41.4700831,42.8776171 38.1745492,45.0853581 38.1745492,45.0853581 C39.2502256,44.4287885 41.4700831,43.891986 43.6563355,43.5339795 C45.8410345,43.1761802 47.7140182,42.7583161 50.7671703,41.4453841 C53.8190278,40.1328663 56.7684128,37.6264068 56.7684128,37.6264068 C60.06317,39.0580702 52.3619404,42.8179666 52.3619404,42.8179666 C61.312102,40.0723873 60.7228464,37.5962709 60.7228464,37.5962709 C63.3926198,42.6385491 48.7556752,46.0103031 48.7556752,46.0103031 C64.6068592,43.2054876 63.7048528,38.4619796 63.7048528,38.4619796 C68.8383154,39.6250087 71.1637523,37.8651123 71.1637523,37.8651123 C67.6018106,38.4878696 63.8477654,36.9271706 62.7049823,36.3948211 C64.6979919,37.2198826 68.8647232,36.8505363 69.8102248,36.8505363 C70.8168267,36.8505363 72.2029755,37.2979149 72.2029755,37.2979149 C72.1688008,36.2534619 71.1637523,35.2987435 71.1637523,35.2987435 C71.3009691,35.2688147 71.7530079,35.2393001 71.7530079,35.2393001 C70.7810986,33.508504 68.6653705,33.0309377 68.6653705,33.0309377 C69.8449173,32.3745752 71.3719076,31.0619021 71.3719076,31.0619021 C73.2095775,32.553216 74.3187036,35.2393001 72.7937846,37.6553518 C71.2667943,40.0723873 66.9312605,42.1911187 66.9312605,42.1911187 C67.9021342,42.5793129 69.185241,42.9674552 70.8510015,42.9969698 C72.5157263,43.0268986 73.9034286,42.6385491 77.0252408,42.907753 C80.147053,43.1761802 81.4658879,44.7271445 81.4658879,44.7271445 C80.2511307,43.8026138 78.1001922,43.7127756 77.0594155,43.683261 Z" id="path48" fill="#F9A81F"></path>
                        <path d="M62.8518431,36.6649259 C62.6729575,36.5305259 62.5050689,36.385726 62.3518431,36.223326 C62.3518431,36.223326 62.5307287,36.394126 62.8518431,36.6649259" id="path50" fill="#F9A81F"></path>
                        <path d="M50.9755327,37.6854877 C50.9755327,37.6854877 49.5869502,38.3723486 48.9973839,40.2522191 C48.9973839,40.2522191 48.1650732,38.9092029 48.963002,37.8349764 C48.963002,37.8349764 46.9170733,38.5210605 46.6389632,39.7445168 C46.3616299,40.9680249 48.2002318,41.0279342 50.0036233,40.3115071 C51.707701,39.6344844 52.6399987,38.7898502 52.6399987,38.2827693 C52.6399987,37.775067 51.8767625,37.6553518 50.9755327,37.6854877" id="path52" fill="#F9A81F"></path>
                        <path d="M67.8332669,35.6270282 C67.8332669,35.6270282 65.9945615,34.5530088 64.7456294,34.8211771 C63.4966974,35.0900185 65.0236877,35.8956108 66.1333317,35.9852418 C67.2424579,36.074614 68.6482831,36.0446852 68.8740436,35.6270282 C69.0759853,35.2518308 67.9720371,34.0453066 66.2374093,34.1053713 C66.2374093,34.1053713 67.9720371,34.7918697 67.8332669,35.6270282" id="path54" fill="#F9A81F"></path>
                        <path d="M74.5506777,37.387546 C74.5506777,37.387546 73.3022635,40.8485168 70.1804513,41.4251381 C70.1804513,41.4251381 72.7471826,41.7637789 73.9950791,41.8432611 C75.2440111,41.9225362 79.5464058,41.8033905 81.5813572,44.7670151 C81.5813572,44.7670151 81.0956614,43.2152222 79.7535255,41.9823938 C78.3896421,40.7295783 76.6550143,40.2714294 75.8922958,39.7544586 C75.1088654,39.2237142 74.6433638,38.7202579 74.5506777,37.387546" id="path56" fill="#FFFFFF"></path>
                        <path d="M71.0824578,36.154148 C71.0824578,36.154148 70.5962442,35.8555849 69.6952733,35.8357531 C69.6952733,35.8357531 69.7175387,34.6027694 68.8150145,34.1850606 C68.8150145,34.1850606 70.1105484,34.54286 70.434173,34.9405299 C70.434173,34.9405299 70.1105484,34.8812936 69.925694,34.9603616 C69.925694,34.9603616 70.6195452,35.4379279 71.0824578,36.154148" id="path58" fill="#FFFFFF"></path>
                        <path d="M63.5666004,35.7564781 C63.5666004,35.7564781 63.0576036,35.2589247 63.2652411,34.6027694 C63.2652411,34.6027694 62.1322962,34.9405299 62.1089952,35.2987435 C62.0867298,35.6567499 63.3812282,35.7564781 63.5666004,35.7564781" id="path60" fill="#FFFFFF"></path>
                        <path d="M53.021099,37.3272741 C53.021099,37.3272741 53.8537203,37.566135 53.4027171,38.6704974 C53.4027171,38.6704974 54.6516491,37.8047887 55.4495779,36.9996107 C55.4495779,36.9996107 54.4088012,37.3272741 53.021099,37.3272741" id="path62" fill="#FFFFFF"></path>
                        <path d="M46.9170733,41.6245944 C46.9170733,41.6245944 45.7368532,41.5048792 45.2855911,40.6697207 C44.8345361,39.8339408 45.8754163,38.5210605 47.0200118,37.8940055 C47.0200118,37.8940055 44.0722319,38.1334877 42.4073517,40.9680249 C42.4073517,40.9680249 43.0659407,40.7590928 43.8292805,40.818588 C43.8292805,40.818588 44.0722319,42.0422514 43.1001154,42.6688921 C43.1001154,42.6688921 45.6324649,42.3398307 46.9170733,41.6245944" id="path64" fill="#FFFFFF"></path>
                        <path d="M59.5189629,31.2206594 C59.5189629,31.2206594 62.617992,32.8515202 57.1143028,35.0003875 C57.1143028,35.0003875 63.4966974,34.1648665 63.866924,32.8515202 C64.2371505,31.5388471 60.0279597,31.1415915 59.5189629,31.2206594" id="path66" fill="#FFFFFF"></path>
                        <path d="M38.8921673,35.4781609 C47.2174487,36.074614 53.7382511,33.4884652 53.7382511,33.4884652 C52.3971508,35.5970994 55.8198044,35.5970994 55.8198044,35.5970994 C55.8198044,35.5970994 53.9225876,36.2702386 50.7780958,36.4326204 C43.8406203,36.7906787 38.8921673,35.4781609 38.8921673,35.4781609" id="path68" fill="#FFFFFF"></path>
                        <path d="M33.7121545,40.5697854 C33.7121545,40.5697854 33.8966464,47.5719859 21.3167632,49.36207 C21.3167632,49.36207 27.9769572,47.1342901 27.4676498,45.6229892 C27.4676498,45.6229892 30.243106,46.1003484 33.7121545,40.5697854" id="path70" fill="#FFFFFF"></path>
                        <path d="M70.8551439,27.9027048 C71.7571503,27.8321288 72.965694,27.6739411 72.965694,27.6739411 C72.756503,28.006886 72.5209043,28.3420058 72.2516487,28.6755721 C71.5852409,28.6735527 70.6821989,28.6434168 70.6821989,28.6434168 C70.7458882,28.4099928 70.8033639,28.1593779 70.8541083,27.8907954 L70.8551439,27.9027048 Z M70.9581859,27.2026919 C71.0027167,26.8217987 71.03016,26.4111838 71.0358558,25.9694492 C71.0358558,25.9694492 70.5263413,26.3673262 68.1227167,26.0888019 C65.7175388,25.8104848 64.1905486,25.3715463 61.8785745,25.5315463 C59.5666005,25.6909249 58.3632348,27.3616563 58.1328141,28.03842 C58.1328141,28.03842 56.9765682,26.3673262 58.2700309,25.1739541 C59.5666005,23.9803748 61.3700956,23.820789 64.6068592,23.8606596 C67.6126844,23.8984589 70.6609691,23.9652033 72.0533315,23.4629897 C73.4866001,22.9458117 74.1804512,22.2700318 74.4595451,21.9105755 C74.4595451,21.9105755 74.7790273,24.3448538 73.3074415,27.0847372 C73.3074415,27.0847372 72.9325548,27.1134751 72.1584448,27.166653 C72.4582506,26.869954 72.919092,26.0455139 73.2447878,23.7509897 C73.2447878,23.7509897 71.9606455,24.5271191 70.5729432,24.7063295 C69.185241,24.8849185 67.9021342,24.6166984 66.7225873,24.5271191 C65.5435582,24.4374881 62.7686716,24.1092033 60.7911959,25.1537081 C60.7911959,25.1537081 62.733979,24.9154686 63.9818754,24.9154686 C65.2313252,24.9154686 66.1333317,25.094679 66.8965679,25.2137728 C67.6592863,25.3327113 70.1571503,25.8104848 72.0999335,24.9154686 C72.0999335,24.9154686 72.4406454,26.4099929 71.5971503,27.1782 C71.5971503,27.1782 71.5122312,27.1855009 70.9581859,27.2026919 Z M71.6592862,29.3553909 C71.0177329,30.0305494 70.235338,30.689708 69.2784449,31.2999345 C69.2784449,31.2999345 69.9350144,30.7204653 70.4455646,29.371132 C71.2636875,29.3693197 71.6592862,29.3553909 71.6592862,29.3553909 Z" id="path72" fill="#FFFFFF"></path>
                        <path d="M52.4893191,25.7305884 C52.4893191,25.7305884 49.6221606,26.407145 47.494316,27.5210349 C45.367507,28.6349249 42.8231963,30.544517 38.753656,28.9134491 C38.753656,28.9134491 39.1690864,30.0269248 41.2040896,31.5778892 C41.2040896,31.5778892 36.8568017,30.1863035 36.1630023,26.3673262 C36.1630023,26.3673262 37.5515848,27.8357533 40.0026398,28.2366336 C41.9443873,28.5552355 43.1001154,28.5155721 45.1361024,27.6799993 C46.9117917,26.9510414 48.8818629,26.1288278 52.4893191,25.7305884" id="path74" fill="#FFFFFF"></path>
                        <path d="M49.8527366,24.7756628 C49.8527366,24.7756628 47.4480247,25.2137728 45.9217076,26.0888019 C45.9217076,26.0888019 47.2629632,23.7016434 46.2453322,19.8828733 C46.2453322,19.8828733 49.0671315,20.9961419 49.8527366,24.7756628" id="path76" fill="#FFFFFF"></path>
                        <path d="M50.8711444,24.6959735 C50.8711444,24.6959735 50.9179016,23.5827049 50.4544712,22.786226 C50.4544712,22.786226 51.6571638,23.1047761 52.0724906,23.4231192 C52.0724906,23.4231192 52.4893191,22.8661224 52.8595456,22.5475205 C52.8595456,22.5475205 54.2928142,22.8262519 54.8023287,23.3036111 C54.8023287,23.3036111 55.3108077,23.1450091 55.7276361,22.6677017 C56.143429,22.1907567 56.3282834,21.6729574 56.651908,21.3940189 C56.651908,21.3940189 57.3457591,22.2689962 57.4845293,23.6219541 C57.4845293,23.6219541 56.5618109,23.9983942 55.2181216,24.1387696 C53.3219404,24.3385884 51.6571638,24.5370091 50.8711444,24.6959735" id="path78" fill="#FFFFFF"></path>
                        <path d="M61.7853706,22.9458117 C61.7853706,22.9458117 59.7970212,23.0649056 58.4098367,23.4629897 C58.4098367,23.4629897 58.6868594,20.718239 57.6693837,18.4097859 C57.6693837,18.4097859 60.5364386,19.9217082 61.7853706,22.9458117" id="path80" fill="#FFFFFF"></path>
                        <path d="M54.5128789,11.5479609 C54.5128789,11.5479609 56.3515844,12.8905628 55.6924258,14.5910158 C55.6924258,14.5910158 54.9297074,12.8009835 52.1879599,12.1745499 C52.1879599,12.1745499 52.0849178,12.5918443 51.8420699,13.0691518 C51.8420699,13.0691518 51.1128531,12.5918443 50.6974227,12.4431842 C50.6974227,12.4431842 50.6630408,12.7119738 50.5588596,12.9807634 C50.5588596,12.9807634 49.9346525,12.7119738 49.1703289,12.6814236 C49.1703289,12.6814236 49.414057,13.5766469 49.0671315,15.0390158 C49.0671315,15.0390158 48.1650732,12.9506275 46.0835199,13.3974366 C46.0835199,13.3974366 46.500193,12.2635596 48.6160765,11.8462651 C50.7318046,11.4277796 52.8129437,11.2491907 54.5128789,11.5479609" id="path82" fill="#FFFFFF"></path>
                        <path d="M55.1715197,10.0260968 C55.1715197,10.0260968 53.645565,10.6225499 52.3619404,10.6822522 C51.0784712,10.7423169 51.0784712,10.7423169 51.0784712,10.7423169 C51.0784712,10.7423169 49.0327496,10.6822522 47.887947,11.0706017 C46.7431445,11.4583298 45.3899794,12.0548347 45.3555976,14.0835207 C45.319973,16.1124656 45.008672,20.7079348 43.8636623,22.9162454 C42.7190669,25.1241935 39.319766,27.1824459 34.4973454,24.1092033 C34.4973454,24.1092033 37.9672224,23.8705496 40.2210993,22.4383166 C42.4761154,21.0056694 43.0315588,18.8577859 43.2398695,17.4554818 C43.4482319,16.0544203 43.6563355,14.7997407 43.6907174,13.7548734 C43.7253064,12.7119738 44.0722319,11.3687505 45.0774875,10.6225499 C46.0835199,9.87598681 47.3994551,9.51352727 48.6505101,9.60823277 C50.1075975,9.71805801 50.5356104,10.1551324 55.1715197,10.0260968" id="path84" fill="#FFFFFF"></path>
                        <path d="M38.5918437,13.5161679 C38.5918437,13.5161679 36.4057467,17.6646209 30.8555591,19.3062519 C30.8555591,19.3062519 28.6357015,23.9000641 33.4920898,26.2874298 C33.4920898,26.2874298 32.7983422,27.0936433 28.7392614,27.0337857 C28.7392614,27.0337857 28.6357015,29.4208925 32.4858503,30.8231966 C32.4858503,30.8231966 27.5602841,30.3747824 25.8258634,26.0792744 C25.8258634,26.0792744 28.0805171,26.8248537 32.4858503,26.3472874 C32.4858503,26.3472874 27.5259022,23.7819541 27.1445948,18.0230416 C27.1445948,18.0230416 34.9831965,17.9929057 38.5918437,13.5161679" id="path86" fill="#FFFFFF"></path>
                    </g>
                </g>
            </g>
        </g>
    </g>
</svg>