<?xml version="1.0" encoding="UTF-8"?>
<svg width="200px" height="200px" viewBox="0 0 200 200" version="1.1" xmlns="http://www.w3.org/2000/svg" xmlns:xlink="http://www.w3.org/1999/xlink">
    <!-- Generator: Sketch 51.3 (57544) - http://www.bohemiancoding.com/sketch -->
    <title>widener</title>
    <desc>Created with Sketch.</desc>
    <defs>
        <polygon id="path-1" points="0.266018519 0.100279844 128.20213 0.100279844 128.20213 90.944 0.266018519 90.944"></polygon>
        <polygon id="path-3" points="0 0.870646369 44.9127778 0.870646369 44.9127778 10.9446778 0 10.9446778"></polygon>
    </defs>
    <g id="widener" stroke="none" stroke-width="1" fill="none" fill-rule="evenodd">
        <g id="widener_BGL" transform="translate(0.000000, 39.000000)">
            <g id="Group-19" transform="translate(0.000000, 3.000000)">
                <path d="M159.90037,64.0400736 C159.90037,64.0400736 158.128148,58.6947936 152.847593,57.3788896 C146.763333,55.8588256 138.004074,61.0110816 138.004074,61.0110816 C138.004074,61.0110816 144.95037,58.5314656 149.590185,59.3870816 C155.642963,60.4951136 156.938333,63.1389856 157.972593,63.7338336 C159.010556,64.3249696 159.90037,64.0400736 159.90037,64.0400736" id="Fill-1" fill="#0076BF"></path>
                <path d="M157.4625,65.3649792 C157.4625,65.3649792 156.469907,64.6003072 154.785648,63.0700352 C153.10787,61.5481152 151.425463,60.9569792 149.736574,61.1128832 C145.656944,61.4803712 141.121759,65.3649792 141.121759,65.3649792 C141.121759,65.3649792 146.170833,63.2955392 149.043981,63.0700352 C151.918056,62.8547392 154.688426,64.6003072 155.977315,65.2526912 C157.263426,65.9124992 157.4625,65.3649792 157.4625,65.3649792" id="Fill-3" fill="#0076BF"></path>
                <path d="M151.273981,52.3258368 C148.310093,50.9570368 146.600833,51.6483968 144.615648,51.4525888 C144.213796,51.0572608 143.805463,50.5644928 143.432315,49.9371648 C143.320278,49.7450688 143.211944,49.5269888 143.107315,49.2987008 C143.045278,47.4464128 142.629537,44.9166848 141.039722,43.3177408 C138.788796,41.0589888 132.798981,43.8652608 132.798981,43.8652608 C132.798981,43.8652608 137.954537,41.9331648 140.358241,45.3509888 C140.652685,45.7732288 140.810093,46.2427968 140.89713,46.7290688 C140.510093,46.5471808 140.075833,46.3968448 139.525833,46.3170368 C136.669352,45.9059328 132.385093,49.2606528 130.76287,51.2604928 C130.391574,51.7244928 130.639722,52.2172608 130.639722,52.2172608 C130.639722,52.2172608 133.616574,51.2382208 136.518426,50.9227008 C136.518426,50.7927808 136.515648,50.6637888 136.531389,50.5310848 C136.724907,49.0110208 137.996204,47.9503168 139.381389,48.1646848 C139.605463,48.1971648 139.819352,48.2788288 140.025833,48.3707008 C139.32213,48.7641728 138.795278,49.5130688 138.679537,50.4373568 C138.665648,50.5709888 138.660093,50.7074048 138.661944,50.8373248 C138.76287,50.8428928 138.864722,50.8428928 138.961944,50.8521728 C141.595278,51.0646848 142.770278,52.3276928 144.966574,52.7647808 C147.856389,53.5730688 150.611944,53.4041728 152.735093,54.5753088 C155.260093,55.9635968 156.677685,58.4376448 156.677685,58.4376448 C156.677685,58.4376448 155.026759,54.0547008 151.273981,52.3258368" id="Fill-5" fill="#0076BF"></path>
                <g id="Group-9" transform="translate(10.185185, 24.682944)">
                    <mask id="mask-2" fill="white">
                        <use xlink:href="#path-1"></use>
                    </mask>
                    <g id="Clip-8"></g>
                    <path d="M94.0058333,45.9128928 C98.3113889,43.6689888 97.3965741,42.1535648 97.3965741,42.1535648 C97.3965741,42.1535648 96.6660185,41.4900448 95.8289815,41.9614688 C94.9891667,42.4273248 93.9641667,43.9371808 91.3437963,44.7677408 C87.5169444,45.9815648 79.7817593,44.8976608 79.7817593,44.8976608 C79.7817593,44.8976608 89.3308333,48.3451808 94.0058333,45.9128928 M92.6262037,35.4237088 C92.6262037,35.4237088 94.3697222,35.8607968 97.0076852,35.4914528 C99.0891667,35.2084128 100.840093,34.4288928 101.66787,33.3236448 C102.395648,32.3446048 103.758611,30.3800288 102.9725,28.9444128 C102.337315,27.7918368 99.1910185,25.7762208 96.8502778,24.5540448 C98.7132407,26.1567008 100.521574,26.9287968 101.369722,28.9045088 C101.1225,29.0279328 100.684537,29.1095968 99.9067593,29.0947488 C99.3697222,29.0817568 98.8502778,28.1463328 98.2808333,28.6103328 C97.8956481,28.9221408 98.6771296,29.4408928 99.2975,29.7619808 C99.8799074,30.0607968 101.244722,30.5247968 100.261389,32.7325088 C99.2771296,34.9383648 92.6262037,35.4237088 92.6262037,35.4237088 M57.3437963,26.8564128 C61.5317593,28.5889888 62.9567593,32.1051808 66.9002778,34.8455648 C70.4187963,37.3001248 76.0937963,37.8003168 76.0937963,37.8003168 C76.0937963,37.8003168 71.0678704,35.0636448 68.3400926,32.3297568 C65.6086111,29.5930848 62.5428704,24.3276128 57.7715741,23.7587488 C47.6206481,22.5421408 41.5428704,27.0048928 41.5428704,27.0048928 C41.5428704,27.0048928 50.1725,23.8858848 57.3437963,26.8564128 M79.1280556,21.2809888 C79.1475,21.4118368 79.2039815,21.5167008 79.2447222,21.6289888 C81.034537,22.0363808 82.909537,22.5681248 82.909537,22.5681248 C82.909537,22.5681248 90.5113889,25.5859808 92.8234259,26.5845088 C88.7891667,23.9434208 83.6317593,21.7505568 82.2558333,21.1863328 C82.1650926,20.9459808 82.0965741,20.7121248 82.0808333,20.5302368 C82.0262037,19.8741408 82.3030556,19.2096928 81.8641667,19.0983328 C81.4234259,18.9897568 79.1919444,19.3999328 78.0697222,19.5447008 C76.310463,19.7618528 75.1002778,20.8643168 72.5743519,21.1399328 C72.5743519,21.1399328 72.9243519,21.6577568 74.1317593,21.7487008 C74.8660185,21.8062368 76.0123148,21.1575648 77.5650926,21.3116128 C77.6576852,20.4652768 78.3039815,19.7423648 79.1919444,19.6022368 C79.3669444,19.5734688 79.5336111,19.5846048 79.7067593,19.5994528 C79.2678704,20.0198368 79.035463,20.6378848 79.1280556,21.2809888 M111.603981,74.3486688 C122.865093,64.1657248 128.20213,65.8658208 128.20213,65.8658208 C128.20213,65.8658208 121.409537,62.9481888 108.486389,73.0578208 C111.634537,68.1570528 111.564167,63.7379168 111.564167,63.7379168 C111.564167,63.7379168 109.809537,66.8049568 106.834537,68.7157088 C102.113241,71.7456288 95.884537,70.1114208 86.1678704,75.7518048 C80.4132407,79.2058208 77.3975,79.9927648 67.1715741,80.6200928 C57.609537,81.2112288 52.9113889,75.8056288 52.9113889,75.8056288 C52.9113889,75.8056288 55.9493519,78.8039968 62.8280556,79.0035168 C69.8197222,79.2030368 74.6576852,78.4921888 81.559537,73.4568608 C78.4650926,73.7324768 76.2456481,71.5758048 71.4669444,71.0895328 C64.8308333,70.4158048 63.0743519,73.5802848 57.7132407,74.3161888 C49.5771296,75.4288608 46.0271296,70.6366688 46.0271296,70.6366688 C46.0271296,70.6366688 50.3826852,73.9895328 58.4863889,70.4519968 C62.6641667,68.6284768 68.2243519,68.1533408 73.3280556,68.5811488 C78.5771296,69.0238048 86.1456481,71.0171488 89.6567593,70.8436128 L89.7502778,70.8361888 C92.6363889,70.5679968 97.0475,71.4635168 102.825278,68.1756128 C112.016019,62.9481888 109.799352,49.6054048 117.82713,44.1005088 C119.159537,43.1864288 121.918796,42.6398368 121.918796,42.6398368 C121.918796,42.6398368 118.493796,41.2960928 115.000278,43.5891808 C108.424352,47.9099488 108.540093,60.7154208 99.3132407,66.4755168 C95.6076852,68.7880928 90.4178704,68.0596128 88.4252778,68.7843808 C89.7169444,68.0920928 93.2141667,67.1854368 96.0873148,64.4636128 C100.8475,59.9572448 99.9178704,54.0672288 107.103056,50.0629088 C98.7660185,51.5328608 93.1808333,64.5285728 81.060463,66.4495328 C69.6030556,68.2591328 62.7169444,61.9366688 54.3826852,64.0209568 C62.8743519,56.8438048 70.3975,64.8691488 80.409537,62.9296288 C92.7456481,60.5372448 96.1882407,53.9577248 105.946574,41.3601248 C110.110463,35.9842208 114.924352,33.3598368 122.709537,35.2603808 C118.345648,32.8847008 114.703981,32.6814688 109.340093,34.7175008 C107.936389,35.2501728 106.699352,36.0241248 105.483611,36.8648928 C108.556759,32.0040288 111.578981,27.9440288 114.974352,26.7580448 C107.16787,26.6800928 101.516019,20.9515488 100.134537,19.3887968 C99.6937963,18.8217888 99.2993519,18.3141728 98.959537,17.9281248 C98.3113889,17.1959328 97.6243519,16.4776608 96.9225,15.7621728 C102.659537,17.9513248 108.22713,18.6037088 112.916944,16.8618528 C99.3965741,17.9838048 94.7215741,8.5822368 85.4993519,4.0981408 C74.7530556,-1.1283552 67.4363889,-0.3237792 59.9799074,1.4412768 C48.6113889,4.1343328 37.7623148,16.9620768 28.9687963,14.5567008 C34.3271296,18.7883808 44.810463,14.1975648 50.735463,9.8535968 C44.4400926,14.6597088 41.3632407,19.5066528 35.5113889,21.8322208 C27.2160185,25.1201248 16.9678704,20.9942368 16.9678704,20.9942368 C16.9678704,20.9942368 25.9900926,26.3673568 33.2067593,25.5859808 C42.710463,24.5438368 50.3132407,17.7898528 56.9493519,9.6215968 C58.9576852,7.1503328 59.7669444,4.8683808 63.9363889,4.4572768 C66.7475,4.1714528 69.0058333,7.6180448 69.0058333,7.6180448 C69.0058333,7.6180448 69.2891667,7.5530848 69.7993519,7.4825568 C72.5363889,6.6436448 72.2465741,4.1760928 74.3002778,3.5803168 C75.9234259,3.1051808 79.510463,6.7884128 80.9641667,8.3743648 C82.5160185,8.8439328 84.1225,9.5000288 85.7280556,10.4020448 C90.4336111,13.0301408 94.6808333,19.3720928 97.6243519,21.9983328 C101.284537,25.2704608 105.729907,26.3562208 106.232685,29.3759328 C106.644722,31.8583328 103.729907,35.3494688 101.339167,36.8324128 C98.9521296,38.3144288 94.1086111,39.2080928 92.9076852,39.1050848 C86.2586111,38.5287968 82.6002778,41.2441248 83.9586111,41.7480288 C88.4817593,43.4221408 93.6150926,38.0740768 97.6280556,40.6780448 C99.3049074,41.7767968 99.6178704,44.6044128 94.4817593,47.1090848 C89.3437963,49.6156128 83.8558333,47.6129888 80.6437963,46.3156448 C79.6586111,45.2131808 78.4919444,44.2090848 77.1169444,43.4221408 C76.3030556,42.9581408 75.5123148,42.5637408 74.7336111,42.2157408 C78.0410185,42.1934688 80.1252778,41.5048928 80.1252778,41.5048928 C80.1252778,41.5048928 70.0697222,41.4325088 64.3243519,37.3288928 C59.8706481,34.1477088 59.4475,31.4527968 54.709537,29.0780448 C51.0549074,27.2461728 42.9882407,30.1294688 42.9882407,30.1294688 C42.9882407,30.1294688 48.2808333,28.6762208 53.2373148,31.1261408 C55.5789815,32.2796448 57.5187963,37.5933728 65.6715741,40.5935968 C64.7873148,40.6474208 63.8660185,40.7652768 62.9187963,40.9137568 C43.8169444,42.5089888 42.8289815,33.4062368 36.1021296,30.4394208 C25.1947222,25.6314528 20.9067593,33.7254688 13.9086111,33.6187488 C6.13453704,33.4971808 4.56231481,25.0876448 4.56231481,25.0876448 C4.56231481,25.0876448 3.20212963,34.5773728 11.4206481,36.8899488 C21.5743519,39.7463328 26.1039815,29.9011808 37.1391667,34.4363168 C41.4299074,36.1995168 44.2039815,40.9323168 51.1030556,43.4657568 C51.2206481,43.5093728 51.3317593,43.5344288 51.4484259,43.5715488 C43.4817593,44.9561248 36.3428704,43.4184288 30.5734259,40.0442208 C41.1437963,51.3231328 49.635463,46.4622688 58.7743519,44.7491808 C62.0956481,44.1292768 65.4160185,43.8063328 68.2937963,44.0819488 C78.8632407,45.1046048 80.7280556,51.9532448 80.7280556,51.9532448 C77.4993519,49.4439328 72.6484259,47.1777568 65.8549074,47.5294688 C61.1715741,47.7688928 57.0243519,48.9780768 53.0567593,50.4638048 C49.8660185,51.2971488 45.4336111,52.2437088 42.434537,52.0117088 C28.0465741,50.8916128 25.4419444,42.5340448 18.7650926,40.6242208 C8.69472222,37.7381408 0.266018519,41.0501728 0.266018519,41.0501728 C0.266018519,41.0501728 8.54842593,40.1184608 14.5030556,43.1288928 C22.7493519,47.2937568 24.4132407,55.1362848 35.8141667,56.6155168 C33.6225,57.0683808 31.3447222,57.3328608 28.9280556,57.2892448 C18.0771296,57.0869408 11.0965741,47.6603168 11.0965741,47.6603168 C11.0965741,47.6603168 15.6150926,57.5648608 25.8993519,60.7154208 C45.0410185,66.5729568 50.2252778,55.2921888 65.7123148,53.2153248 C73.4160185,52.1815328 81.9280556,55.2160928 85.3687963,56.9709408 C85.4132407,57.0646688 85.4400926,57.0646688 85.4576852,57.0284768 C85.6419444,57.1843808 85.8317593,57.3291488 86.0262037,57.4599968 C83.7382407,58.1921888 81.0475,58.6923808 77.860463,58.8445728 C72.6586111,59.0951328 68.3336111,57.0897248 62.7539815,57.5759968 C54.7965741,58.2682848 51.7141667,65.1271328 46.9141667,66.4495328 C41.4891667,67.9399008 40.2067593,64.4199968 35.6391667,63.7852448 C30.6243519,63.0818208 27.4706481,65.7572448 27.4706481,65.7572448 C31.0817593,64.6881888 34.6919444,65.3257248 37.5613889,68.0995168 C39.4567593,69.9258208 39.9910185,74.0517088 39.9910185,74.0517088 C35.2132407,72.8480928 30.1308333,64.8515168 22.3678704,65.3804768 C18.6465741,65.6338208 17.8252778,68.0846688 17.8252778,68.0846688 C17.8252778,68.0846688 20.4521296,65.6124768 25.2965741,67.9074208 C31.310463,70.7526688 35.3206481,77.3609568 48.6752778,81.5879968 C69.5428704,88.1925728 84.7687963,76.9990368 91.7632407,76.1322848 C81.1002778,80.4567648 74.0947222,90.9440928 74.0947222,90.9440928 C74.0947222,90.9440928 81.1919444,83.3753248 91.0475,80.8957088 C96.6549074,79.4814368 100.026204,80.7323808 104.568796,76.5276128 C103.545648,77.8648608 102.335463,79.4999968 100.688241,81.3235168 C98.7169444,81.1453408 96.6113889,81.1852448 94.2262037,81.8051488 C86.4493519,83.8207648 82.3067593,89.7692448 82.3067593,89.7692448 C82.3067593,89.7692448 87.5132407,86.0646688 92.6225,85.8614368 C93.7475,85.8178208 94.7706481,85.8911328 95.7400926,86.0136288 C94.1197222,87.3443808 92.235463,88.7150368 90.0039815,90.1098208 C90.0039815,90.1098208 96.4836111,88.9210528 98.9521296,87.4603808 C99.2863889,87.2608608 99.5919444,87.0576288 99.8956481,86.8553248 C103.176204,87.6376288 106.355833,88.2909408 111.332685,86.2641888 C119.465093,82.9512288 120.966019,76.2881888 120.966019,76.2881888 C120.966019,76.2881888 117.512315,80.3593248 113.746574,81.6056288 C110.537315,82.6644768 107.784537,82.3563808 104.981759,81.9174368 C106.987315,79.2429408 108.750278,76.9257248 111.603981,74.3486688 M72.9669444,7.7906528 C74.9437963,7.7887968 77.4669444,8.0096608 80.1937963,8.7891808 C78.5234259,7.5243168 75.3836111,5.2711328 74.4734259,5.4836448 C73.4326852,5.7258528 73.0660185,7.2561248 72.9669444,7.7906528 M59.7280556,10.2971808 C59.0836111,12.6014048 58.2400926,13.8644128 56.8789815,15.1580448 C54.2206481,17.6757088 54.260463,17.5253728 49.409537,19.7618528 C49.409537,19.7618528 53.2910185,19.0918368 55.9215741,17.5894048 C58.1558333,16.3059808 58.7280556,15.9236448 60.6428704,15.2239328 C62.4965741,14.5381408 64.8299074,14.7599328 64.8299074,14.7599328 C64.8299074,14.7599328 60.5900926,13.2482208 61.5169444,10.2971808 C61.835463,9.3144288 62.6789815,8.4300448 63.4113889,8.3864288 C64.7937963,8.3001248 67.2725,9.7208928 68.8975,10.7686048 L70.4873148,11.8506528 C73.2576852,11.7439328 76.9280556,11.8487968 80.9891667,13.3892768 C86.9678704,15.6675168 95.4993519,23.6863648 95.4993519,23.6863648 C95.4993519,23.6863648 92.9836111,20.9515488 90.7576852,18.0728928 C88.5326852,15.1914528 84.7512037,12.5011808 80.9725,11.3885088 C79.3308333,10.9059488 76.0493519,10.1264288 71.2697222,10.0252768 C68.8743519,9.9742368 64.5002778,7.7739488 64.5002778,7.7739488 L64.6317593,7.8611808 C64.2252778,7.6403168 63.8836111,7.4769888 63.659537,7.4278048 C62.3965741,7.1540448 60.3715741,7.9920288 59.7280556,10.2971808" id="Fill-7" fill="#0076BF" mask="url(#mask-2)"></path>
                </g>
                <path d="M178.386296,20.8318368 C176.016852,21.6633248 169.264074,32.4244128 169.264074,32.4244128 C169.264074,32.4244128 179.109444,22.8910688 180.845556,22.3110688 C182.579815,21.7310688 187.564074,23.2130848 187.564074,23.2130848 C187.564074,23.2130848 181.753889,19.6467808 178.386296,20.8318368 M196.774259,23.1555488 C195.125185,23.5685088 195.532593,24.8955488 193.645556,25.0551648 C190.902963,25.2778848 189.038148,23.3819808 189.038148,23.3819808 C189.038148,23.3819808 188.202963,22.5449248 188.370556,23.5508768 C188.539074,24.5549728 190.537222,25.2973728 190.537222,25.2973728 C190.537222,25.2973728 193.891852,26.5705888 194.730741,27.2406048 C195.411296,27.7844128 195.53537,28.9806048 195.559444,29.4158368 C195.273333,30.0032608 194.908519,30.7131808 194.383519,31.2393568 C193.351111,32.2740768 191.182593,33.3449888 188.79,33.8887968 C186.095556,34.4984928 181.301111,34.7249248 179.048333,35.5926048 C176.79463,36.4612128 170.454815,40.7652768 169.965926,42.8848288 C169.477963,45.0071648 169.78537,49.9747488 170.392778,52.1518368 C170.998333,54.3270688 174.200185,57.4043168 176.261296,58.9884128 C178.328889,60.5762208 182.827963,60.5762208 182.827963,60.5762208 C182.827963,60.5762208 182.596481,63.1356448 181.175185,65.0946528 C178.936296,68.1709728 174.255741,68.4948448 171.847407,67.9983648 C170.062222,67.6308768 169.188148,66.3585888 168.624259,65.1985888 C169.273333,63.6757408 169.730741,62.0155488 169.577037,60.5001248 C169.396481,58.7443488 162.793704,55.0806048 157.531667,52.5211808 C155.665,51.0465888 152.367778,48.0769888 148.777963,43.5446368 C154.16037,45.5760288 157.780741,44.5719328 157.780741,44.5719328 C157.780741,44.5719328 149.316852,43.4444128 144.407593,37.4885088 C140.951111,33.2948768 141.341852,25.5627808 141.341852,25.5627808 C141.341852,25.5627808 136.231667,25.4124448 132.017778,23.0646048 C131.127963,22.5718368 130.162222,21.4044128 130.162222,21.4044128 L129.327037,19.7265888 L126.646481,18.5517408 L127.48537,16.5361248 L125.141852,15.8688928 L126.147407,13.0162208 L123.468704,12.3452768 C123.468704,12.3452768 121.906667,10.0911648 121.071481,9.0870688 C120.233519,8.0792608 120.240926,4.6642208 121.413148,4.8349728 C122.584444,5.0010848 126.754815,7.8231328 128.847407,8.2787808 C131.290926,8.8114528 139.08537,9.2717408 139.08537,9.2717408 C139.08537,9.2717408 136.000185,8.1822688 132.997407,7.1586848 C135.124259,6.5712608 140.44463,5.1393568 143.096481,4.8089888 C146.422407,4.3960288 151.709444,3.9719328 159.408519,4.8089888 C167.104815,5.6506848 169.459444,5.7713248 173.308519,7.7832288 C177.156667,9.7969888 179.167778,12.6468768 181.006667,14.1585888 C182.847407,15.6703008 185.44463,16.9351648 188.71963,18.3215968 C192.108519,19.7553568 196.315,21.4303968 197.313148,22.4289248 C197.527037,22.6405088 197.629815,22.9448928 197.675185,23.2752608 C197.396481,23.1444128 197.092778,23.0757408 196.774259,23.1555488 M130.209444,30.7530848 C128.465926,27.5069408 123.03537,21.7087968 121.342778,19.8546528 C119.550185,17.8956448 121.015,14.7812768 121.015,14.7812768 C117.640926,15.8726048 117.640926,18.9285088 117.640926,18.9285088 C117.640926,18.9285088 117.427037,14.4518368 112.689074,12.4928288 C111.791852,12.1244128 110.927963,11.8404448 110.077963,11.6028768 L119.068704,10.0494048 C119.882593,11.1769248 120.421481,11.8088928 120.421481,11.8088928 C119.76037,13.0793248 119.752963,14.3247008 119.752963,14.3247008 C119.752963,14.3247008 120.631667,13.5349728 122.380741,13.8143008 C121.365926,15.6805088 121.929815,17.8483168 121.929815,17.8483168 L123.266852,17.8483168 L123.601111,20.0272608 L125.276111,20.5330208 L126.614074,22.0391648 C126.614074,22.0391648 128.657593,24.5401248 132.925185,25.5024608 C134.040926,25.7567328 135.478889,25.8291168 136.852037,25.8235488 C136.977963,26.7116448 137.649259,30.8533088 139.522407,34.8789728 C136.575185,33.3087968 133.232593,31.9622688 130.209444,30.7530848 M123.413148,35.7290208 C123.413148,35.7290208 125.261296,33.7625888 122.320556,30.8226848 C119.379815,27.8735008 114.36037,27.7769888 112.088148,26.1316448 C109.86963,24.5169248 109.184444,22.3110688 109.184444,22.3110688 C109.184444,22.3110688 110.728889,24.7739808 114.465,25.6852768 C117.264074,26.3710688 126.126111,26.9993248 127.329815,30.7103968 C128.74463,35.0747808 123.413148,35.7290208 123.413148,35.7290208 M198.817778,20.7176928 C197.477963,19.5428448 192.415926,17.4297888 189.989074,16.4164128 C185.99463,14.7423008 184.256667,13.0032288 182.918704,12.1661728 C181.579815,11.3254048 177.771481,6.7744928 174.382593,5.6228448 C163.987222,2.0945888 150.286296,1.8310368 143.356667,2.5687968 C142.920556,2.6179808 142.459444,2.6847968 141.989074,2.7646048 C140.789074,2.3841248 139.305741,1.9052768 138.428889,1.5684128 C136.774259,0.9290208 131.431667,-0.2207712 129.268704,0.0372128 C127.481667,0.2487968 126.997407,3.7584928 126.88537,4.9741728 C124.405741,3.6406368 120.827037,0.9383008 119.586296,1.0756448 C118.136296,1.2352608 116.852037,6.1907808 117.94463,8.3650848 L103.800185,9.2411168 C99.8853704,6.0747808 91.9307407,0.6645408 82.6992593,0.1151648 C66.4038889,-0.8527392 58.5362963,5.5671648 49.1798148,9.7969888 C46.7103704,7.3285088 45.0159259,4.8581728 45.0159259,4.8581728 C45.0159259,4.8581728 45.4937037,7.5465888 47.3048148,10.6052768 C44.94,11.5685408 42.4437037,12.3564128 39.6705556,12.8315488 C26.3862963,15.1079328 20.3038889,5.3490848 20.3038889,5.3490848 C20.3038889,5.3490848 23.4714815,15.9746848 36.1103704,15.9746848 C41.1038889,15.9746848 45.2418519,14.7942688 49.0890741,13.1396448 C51.6566667,16.1955488 55.7566667,19.0046048 62.2242593,19.3674528 C70.0659259,19.7971168 78.402963,16.3690848 88.84,19.0992608 C100.53537,22.1607328 109.415926,37.4124128 109.415926,37.4124128 C109.415926,37.4124128 101.579815,16.3226848 85.7798148,13.4059808 C72.4251852,10.9393568 70.265,15.5932768 57.5909259,14.7200288 C55.552963,14.5789728 53.4825926,13.4291808 51.6205556,11.9722208 C60.1612963,7.7869408 67.8261111,1.9275488 81.2594444,2.7209888 C90.9437037,3.2944928 98.4964815,9.1770848 100.489074,10.8771808 C97.2696296,11.1026848 94.2038889,11.4952288 90.9844444,10.9430688 C85.4066667,9.9890848 84.6159259,5.8390688 84.6159259,5.8390688 C84.6159259,5.8390688 84.5825926,10.4085408 89.0742593,12.3109408 C96.1705556,15.3223008 102.253889,11.1843488 109.748333,15.6025568 C114.005741,18.1090848 115.137222,22.6405088 115.137222,22.6405088 C115.137222,22.6405088 112.529815,23.2390688 109.587222,19.5307808 C107.115,16.4127008 104.257593,15.6118368 101.515926,14.9594528 C97.4390741,13.9896928 94.977963,16.4711648 94.977963,16.4711648 C94.977963,16.4711648 100.641852,14.5771168 106.84,22.6497888 C109.727037,26.4091168 108.063148,25.3632608 111.545556,29.8362208 C115.027037,34.3091808 122.154815,38.5872608 126.892778,38.3478368 C128.541852,38.2643168 131.446481,36.4992608 131.002963,33.1371168 C132.406667,33.3579808 134.439074,34.0632608 137.406667,35.7447968 C145.652963,40.4247008 144.103889,44.5719328 151.395556,50.1529248 C152.158519,50.7384928 153.418704,51.5449248 155.075185,52.2752608 C157.511296,53.6236448 161.146481,55.1529888 161.839074,55.5520288 C164.591852,57.1379808 167.951111,61.0875488 167.951111,61.0875488 C166.392778,60.9752608 166.671481,62.6317408 165.636296,62.8423968 C165.015,62.9723168 164.320556,63.2117408 163.415926,61.9737888 C162.898333,61.2685088 162.884444,60.0927328 162.402963,60.1103648 C161.499259,60.1447008 162.104815,61.5329888 162.392778,62.1890848 C162.770556,63.0669728 164.478889,65.4593568 164.478889,66.9311648 C164.478889,68.4066848 164.983519,69.2511648 163.962222,72.0203168 C163.166852,74.1807008 161.531667,76.2956128 160.461296,76.8208608 C157.524259,78.2750368 154.822407,81.1462688 151.487222,78.8550368 C150.46037,78.1479008 147.887222,76.9628448 146.015,77.1985568 C144.145556,77.4342688 142.142778,78.9673248 141.84463,80.1635168 C141.602037,81.1277088 142.36963,82.2190368 143.352963,82.1429408 C144.828889,82.0306528 145.99,80.1273248 147.36037,79.8665568 C148.800185,79.5909408 149.227037,80.2247648 151.092778,80.7797088 C155.676111,82.1503648 159.34,78.2527648 159.645556,79.3227488 C158.598333,81.6464608 158.424259,84.9445728 155.628889,87.1272288 C152.507593,89.5632288 145.476111,88.9145568 141.508519,88.1127648 C142.799259,89.1465568 151.722407,94.4463648 157.429815,89.1716128 C159.692778,87.0836128 160.674259,83.1507488 161.395556,79.0582688 C163.850185,76.2018848 165.159444,73.0086368 165.602037,70.2728928 C165.602037,70.2728928 166.493704,69.1546528 167.438148,67.5417888 C168.089074,68.7212768 169.121481,70.0743008 171.197407,70.5447968 C175.579815,71.5423968 179.46037,69.7513568 182.180741,65.9957408 C184.701111,62.5120288 184.552963,59.0143968 184.552963,59.0143968 C184.552963,59.0143968 184.958519,56.8447328 183.849259,56.9477408 C183.41037,56.9895008 182.83537,57.1147808 182.158519,57.1528288 C182.424259,56.3603168 183.001111,54.6240288 183.200185,53.8955488 C183.507593,52.7717408 183.556667,51.6154528 182.875185,51.3945888 C182.19463,51.1690848 181.822407,51.8344608 181.218704,52.8292768 C180.339074,54.2797408 178.570556,55.3469408 177.986296,55.6735968 C175.762222,54.1052768 173.326111,52.7550368 172.541852,49.5961248 C171.696481,46.2089248 171.774259,45.7133728 171.902963,43.9770848 C172.049259,41.9837408 176.790926,38.8953568 179.881667,37.0848288 C180.205741,36.9558368 180.480741,36.8593248 180.682593,36.8203488 C181.818704,36.5892768 184.142778,36.3108768 186.336296,35.9823648 C186.44463,36.2598368 186.527963,36.5864928 186.515,37.0170848 C186.480741,38.4090848 186.515,41.3313568 187.287222,41.6533728 C188.213148,42.0412768 190.04,37.3706528 190.871481,35.0812768 C193.058519,34.5124128 195.24463,33.6642208 196.105741,31.7970848 C196.416852,31.1252128 196.514074,29.7146528 196.441852,28.9230688 C197.147407,28.2391328 198.138148,26.9185888 198.914074,24.3879328 C198.914074,24.3879328 200.156667,21.8906848 198.817778,20.7176928 M173.955741,15.3436448 C173.813148,14.9343968 173.626111,14.5205088 173.364074,14.1799328 C172.451111,12.5290208 170.550185,9.6410848 168.204815,9.1687328 C170.967778,11.3653088 170.677037,13.4152608 170.677037,13.4152608 L170.711296,13.4328928 C169.802963,13.4672288 168.893704,13.5850848 168.529815,13.6834528 C166.280741,14.2783008 165.791852,15.7807328 162.302037,15.8252768 C162.302037,15.8252768 165.155741,17.2451168 167.637222,16.6614048 C167.640926,16.6344928 167.633519,16.6085088 167.637222,16.5853088 C167.852037,15.0392608 169.271481,13.9609248 170.815926,14.1799328 C171.071481,14.2124128 171.304815,14.2922208 171.532593,14.3905888 C170.749259,14.7924128 170.166852,15.5505888 170.034444,16.4850848 C170.011296,16.6558368 170.009444,16.8191648 170.013148,16.9843488 C170.013148,16.9843488 170.613148,17.4316448 171.847407,17.3407008 C178.91037,16.8191648 187.564074,23.2130848 187.564074,23.2130848 C187.133519,22.3945888 181.46963,16.1844128 173.955741,15.3436448" id="Fill-10" fill="#0076BF"></path>
                <path d="M50.4611111,33.4505024 C43.6675926,34.6105024 40.4435185,34.3274624 34.9490741,30.5616384 C29.4564815,26.7948864 25.8861111,24.9026944 20.9703704,25.4826944 C13.1333333,26.4069824 8.17962963,33.4634944 8.17962963,33.4634944 C8.17962963,33.4634944 14.0314815,28.1794624 19.8203704,28.4012544 C27.1138889,28.6833664 30.4157407,33.5665024 35.4259259,35.9737344 C40.4351852,38.3800384 45.9787037,37.2200384 50.4611111,33.4505024" id="Fill-12" fill="#0076BF"></path>
                <g id="Group-16" transform="translate(0.000000, 34.890944)">
                    <mask id="mask-4" fill="white">
                        <use xlink:href="#path-3"></use>
                    </mask>
                    <g id="Clip-15"></g>
                    <path d="M44.9127778,9.8876544 C35.0868519,13.5783104 34.7803704,6.5125184 27.772037,5.3293184 C20.7646296,4.1424064 16.4368519,10.5251904 6.70351852,8.7712704 C2.62944444,8.0353664 -0.000185185185,3.6561344 -0.000185185185,3.6561344 C12.2183333,11.0402304 17.3044444,-0.2516736 27.8646296,0.9630784 C37.7618519,2.0989504 37.5803704,9.1369024 44.9127778,9.8876544" id="Fill-14" fill="#0076BF" mask="url(#mask-4)"></path>
                </g>
                <path d="M68.7625926,21.0820256 C62.4598148,21.4949856 56.3894444,23.0252576 52.77,22.9816416 C45.582037,22.8906976 41.6681481,18.4214496 41.6681481,18.4214496 C41.6681481,18.4214496 43.9792593,24.2372256 49.4033333,25.6245856 C50.2051852,25.8306016 51.0088889,25.9688736 51.7875926,26.0551776 C49.2959259,26.6862176 46.7746296,26.9961696 44.2783333,26.5915616 C38.12,25.5986016 32.5227778,17.4609696 32.5227778,17.4609696 C32.5227778,17.4609696 36.4116667,30.3805856 47.0366667,30.9438816 C60.0190741,31.6306016 62.2375926,20.5205856 80.6662963,22.3765856 C80.6662963,22.3765856 75.9431481,20.3025056 68.7625926,21.0820256" id="Fill-17" fill="#0076BF"></path>
            </g>
        </g>
    </g>
</svg>