<?xml version="1.0" encoding="UTF-8"?>
<svg width="200px" height="200px" viewBox="0 0 200 200" version="1.1" xmlns="http://www.w3.org/2000/svg" xmlns:xlink="http://www.w3.org/1999/xlink">
    <!-- Generator: Sketch 51.3 (57544) - http://www.bohemiancoding.com/sketch -->
    <title>william-jewell</title>
    <desc>Created with Sketch.</desc>
    <defs></defs>
    <g id="william-jewell" stroke="none" stroke-width="1" fill="none" fill-rule="evenodd">
        <g id="william-jewell_BGL" transform="translate(15.899582, 0.000000)">
            <g id="william-jewell">
                <g id="g10" transform="translate(83.422468, 100.583166) scale(-1, 1) rotate(-180.000000) translate(-83.422468, -100.583166) translate(0.000000, 0.318603)" fill-rule="nonzero">
                    <g id="g12">
                        <polyline id="path14" fill="#231F20" points="118.68133 162.400481 118.68133 188.807231 62.5736735 188.807231 62.5736735 162.400481 118.68133 162.400481"></polyline>
                        <polyline id="path16" fill="#231F20" points="47.4547932 40.599964 47.4547932 51.8445879 9.5260395 51.8445879 9.5260395 22.2686658 47.4547932 0 71.7507652 0 109.417405 22.5336641 109.417405 188.279358 71.488403 188.279358 71.488403 40.599964 47.4547932 40.599964"></polyline>
                        <polyline id="path18" fill="#231F20" points="56.1066645 50.7889676 56.1066645 76.4909294 0 76.4909294 0 50.7889676 56.1066645 50.7889676"></polyline>
                        <path d="M48.2201091,5.98029705 L69.8503455,5.98029705 L103.479834,26.1981621 L103.479834,168.556288 L112.568851,168.556288 L112.568851,182.651424 L68.5112443,182.651424 L68.5112443,168.203956 L77.6002618,168.203956 L77.6002618,34.0693988 L41.1682746,34.0693988 L41.1682746,56.7692334 L50.60686,56.7692334 L50.60686,71.0391609 L5.5000402,71.0391609 L5.5000402,56.7692334 L15.9877144,56.7692334 L15.9877144,25.4929367 L48.2201091,5.98029705 Z M70.3297921,4.23040243 L47.7387398,4.23040243 L14.2510385,24.50316 L14.2510385,55.0193201 L3.76360618,55.0193201 L3.76360618,72.7883247 L52.3435359,72.7883247 L52.3435359,55.0193201 L42.9047024,55.0193201 L42.9047024,35.8190623 L75.8635858,35.8190623 L75.8635858,166.455417 L66.7745684,166.455417 L66.7745684,184.399963 L114.306148,184.399963 L114.306148,166.807124 L105.21713,166.807124 L105.21713,25.204762 L70.3297921,4.23040243 Z" id="path20" fill="#FFFFFF"></path>
                        <polyline id="path22" fill="#CE0F3E" points="71.1385869 179.829023 109.941509 179.829023 109.941509 171.554854 100.502675 171.554854 100.502675 27.8148266 68.3419184 9.33003928 49.3777276 9.33003928 18.2653648 27.1101011 18.2653648 59.2385528 8.4774594 59.2385528 8.4774594 68.0412193 48.3288994 68.0412193 48.3288994 59.2385528 38.5407459 59.2385528 38.5407459 31.4232264 80.5774205 31.4232264 80.5774205 171.026357 71.1385869 171.026357 71.1385869 179.829023"></polyline>
                        <path d="M68.554041,113.794345 C77.454505,112.942252 73.6753742,49.0341816 73.6753742,49.0341816 L119.319559,73.7509894 C150.759595,90.1425276 158.287465,104.352609 158.287465,104.352609 C148.76924,100.304544 137.830663,102.025596 137.830663,102.025596 C154.751469,111.534175 160.40683,122.434589 160.40683,122.434589 C150.562979,118.057306 139.900409,119.266103 139.900409,119.266103 C158.902744,130.89242 162.188783,145.454208 162.188783,145.454208 C154.912732,138.654959 141.998065,136.595318 141.998065,136.595318 C155.545998,148.248497 156.300212,169.873158 156.300212,169.873158 C150.700672,161.618355 138.288401,153.75274 138.288401,153.75274 C147.673894,171.473018 143.858169,190.452694 143.858169,190.452694 C136.889137,168.813665 122.538612,155.387584 109.039058,148.309718 C100.816517,143.998654 84.6468243,140.818924 69.2319648,135.194738 C57.7784012,131.014861 52.3132681,124.789088 53.4693981,119.269852 C53.4693981,119.269852 54.5363994,113.039081 61.6549099,112.911017 C65.6965889,112.837927 68.554041,113.794345 68.554041,113.794345" id="path24" fill="#CE0F3E"></path>
                        <path d="M68.2792741,116.233803 L68.7798089,116.188825 C72.7803659,115.805883 76.5253834,111.292416 76.840466,81.1199663 C76.9552107,70.1027336 76.5452311,59.0386484 76.2760464,53.1733277 L118.188859,75.8693516 C136.933174,85.6421792 146.967439,94.5497954 151.929991,99.9884452 C144.396539,98.5972353 137.82136,99.5930092 137.46224,99.6492324 L130.617256,100.725593 L136.66709,104.125842 C145.211536,108.927296 150.759595,114.069838 154.094633,117.856777 C146.459462,116.140723 139.984762,116.836015 139.633085,116.875996 L132.682039,117.663745 L138.660546,121.321371 C148.295996,127.216677 153.703261,133.920347 156.641344,138.851115 C149.845359,135.448367 142.776468,134.284548 142.37145,134.220204 L134.009356,132.886467 L140.447462,138.424444 C148.106823,145.012544 151.429456,155.208919 152.857872,162.213695 C146.924643,156.415217 139.950648,151.964845 139.559896,151.717463 L131.948914,146.894144 L136.182062,154.884699 C140.889074,163.773574 142.115291,173.04914 142.222593,179.830897 C133.084576,160.592595 118.660242,150.642352 110.141227,146.175738 C105.299622,143.637576 98.1203281,141.560444 89.8078529,139.15472 C83.6668428,137.377444 76.7058737,135.363407 70.0451013,132.933319 C60.6004995,129.486842 54.8780283,124.194997 55.8059715,119.765865 L55.822718,119.678406 C55.9038456,119.264229 56.7956907,115.4042 61.6975205,115.315492 C65.2252054,115.256146 67.7824607,116.070756 67.8078906,116.079502 L68.2792741,116.233803 Z M71.0374875,44.8747952 L71.2917865,49.1764261 C71.3004699,49.3257922 72.1688079,64.2124248 72.0776324,79.4732536 C71.9238125,105.240934 69.2282434,110.298516 68.3828544,111.25181 C67.1194226,110.935087 64.6669882,110.452192 61.6119892,110.505917 C54.4576907,110.63523 51.6314368,115.970179 51.1241413,118.815069 C49.6730866,125.892935 56.2944116,133.031397 68.4182081,137.455532 C75.2309396,139.941843 82.2744009,141.979619 88.4892197,143.778134 C96.5548388,146.112018 103.52015,148.12793 107.936268,150.442448 C117.159878,155.278261 133.795993,167.002655 141.586845,191.194839 L144.394058,199.910047 L146.19896,190.929966 C146.337894,190.240295 149.052691,176.177644 143.864992,160.728155 C147.497125,163.600532 151.732134,167.40184 154.328464,171.229385 L158.975933,178.079859 L158.6869,169.788199 C158.65961,169.004199 157.994091,153.18926 149.182941,140.95261 C152.962693,142.245742 157.393697,144.254157 160.564991,147.217115 L166.230276,152.510834 L164.51717,144.921338 C164.391881,144.363479 161.608858,132.69156 147.642262,121.718681 C151.119335,122.037903 155.377292,122.826901 159.442354,124.634787 L165.682603,127.410335 L162.523093,121.320746 C162.313452,120.916564 157.909118,112.626778 145.700906,104.122719 C149.191625,104.28764 153.431595,104.897973 157.358343,106.568424 L163.566339,109.208412 L160.394425,103.220025 C160.07252,102.612815 152.152657,88.1603502 120.417386,71.6151356 L71.0374875,44.8747952 Z" id="path26" fill="#231F20"></path>
                        <path d="M71.8462823,46.420931 C71.9827354,74.3744413 60.9678065,80.9862802 60.9678065,80.9862802 C51.7874895,88.5982659 31.9630239,92.5582476 31.9630239,92.5582476 C34.3686302,98.1205882 43.4762548,111.655992 60.9854833,114.084206 C73.1041319,115.765277 86.9243507,126.387074 86.9243507,126.387074 C98.6034961,117.258313 116.098025,117.586906 116.098025,117.586906 C108.643964,109.420811 95.0699809,107.865304 95.0699809,107.865304 C89.6490711,96.6537895 98.9018323,80.8757081 98.9018323,80.8757081 C98.9018323,80.8757081 76.6457102,79.8030959 75.5522247,52.7099242 L71.8462823,46.420931" id="path28" fill="#231F20"></path>
                        <path d="M58.4315774,109.546376 C58.4315774,109.546376 46.5667936,107.740364 36.318297,95.2900665 C36.318297,95.2900665 54.5880035,97.7638838 66.4352964,94.4498432 C66.4352964,94.4498432 64.5491423,100.255817 58.4315774,109.546376" id="path30" fill="#FAB217"></path>
                        <path d="M66.586015,89.1455042 C66.586015,89.1455042 55.5256844,94.3986177 41.4628892,93.6064964 C41.4628892,93.6064964 55.4180725,91.1720353 63.2962547,85.0168532 L66.586015,89.1455042" id="path32" fill="#FAB217"></path>
                        <path d="M82.0399497,117.137121 C82.0399497,117.137121 76.4670807,113.806839 70.9475525,112.479348 L77.3782153,111.832158 C77.3782153,111.832158 72.5812684,104.907968 65.958951,110.958201 L63.8743197,110.525282 C63.8743197,110.525282 68.8188841,104.982932 73.9178886,106.950117 C80.4645365,109.475784 82.0399497,117.137121 82.0399497,117.137121" id="path34" fill="#FFFFFF"></path>
                    </g>
                </g>
            </g>
        </g>
    </g>
</svg>