<?xml version="1.0" encoding="UTF-8"?>
<svg width="200px" height="200px" viewBox="0 0 200 200" version="1.1" xmlns="http://www.w3.org/2000/svg" xmlns:xlink="http://www.w3.org/1999/xlink">
    <!-- Generator: Sketch 51.3 (57544) - http://www.bohemiancoding.com/sketch -->
    <title>williams﻿</title>
    <desc>Created with Sketch.</desc>
    <defs></defs>
    <g id="williams﻿" stroke="none" stroke-width="1" fill="none" fill-rule="evenodd">
        <g id="williams﻿_BGL" transform="translate(0.000000, 25.000000)">
            <g id="williams﻿" transform="translate(0.000000, 0.936842)">
                <g fill-rule="nonzero" id="Shape">
                    <path d="M200,89.8694737 C199.949474,88.7915789 199.848421,87.6126316 199.545263,86.5852632 C198.972632,84.1094737 197.978947,81.8021053 196.513684,79.7136842 C195.014737,77.5073684 193.145263,75.7052632 191.107368,74.0210526 C187.722105,71.3263158 184.016842,69.0021053 180.311579,66.7789474 C178.711579,65.7852632 177.28,64.8084211 175.696842,63.7978947 C172.530526,61.7263158 169.178947,59.6378947 166.231579,57.2631579 C162.677895,54.4168421 159.713684,50.9305263 157.995789,46.6694737 C157.338947,44.8336842 156.766316,43.2168421 156.496842,41.28 C156.227368,40.1178947 156.277895,38.7873684 156.210526,37.5747368 C156.042105,36.1431579 156.227368,34.8126316 156.176842,33.3642105 C156.345263,32.1852632 156.261053,30.7031579 156.311579,29.4905263 C156.429474,28.8336842 156.261053,28.1094737 156.412632,27.4694737 C156.429474,25.7852632 156.429474,24.1010526 156.412632,22.4168421 C156.261053,21.9621053 156.395789,21.5410526 156.311579,21.0694737 C156.244211,20.4463158 156.328421,19.6547368 156.16,19.0315789 C156.042105,17.2968421 155.671579,15.4778947 155.098947,13.8273684 C154.408421,11.84 153.246316,10.0378947 151.36,8.99368421 C149.221053,7.83157895 146.425263,7.93263158 144.151579,8.60631579 C142.618947,9.11157895 141.305263,10.0547368 140.210526,11.2505263 C138.661053,12.8505263 137.549474,14.8210526 136.353684,16.6568421 C135.073684,18.6610526 133.726316,20.7831579 131.604211,21.9957895 C131.317895,22.2989474 131.587368,22.5852632 131.738947,22.8547368 C132.412632,23.7305263 133.793684,24 134.517895,24.6231579 L134.517895,24.7242105 C133.574737,24.8589474 132.429474,24.3368421 131.536842,24.0336842 C128.454737,22.7031579 125.490526,20.5978947 122.576842,18.9136842 C120.421053,17.6673684 118.214737,16.4378947 115.755789,15.9326316 C114.408421,15.68 112.875789,15.6968421 111.646316,16.3536842 C110.08,17.1284211 108.934737,18.8126316 108.328421,20.3957895 C107.823158,21.6757895 107.890526,22.9894737 108.008421,24.3368421 C108.261053,24.9094737 108.277895,25.5326316 108.547368,26.1052632 C109.608421,29.1031579 111.663158,31.68 112.926316,34.5263158 C112.96,34.7284211 113.145263,34.9305263 113.077895,35.1326316 C112.757895,35.0652632 112.421053,34.6778947 112.185263,34.4589474 C111.764211,33.9368421 111.343158,33.3978947 110.888421,32.8926316 C110.652632,32.6905263 110.416842,32.3536842 110.096842,32.3031579 C109.810526,32.3031579 109.541053,32.3536842 109.254737,32.3873684 C108.783158,32.5894737 108.294737,32.5052632 107.823158,32.7578947 C107.115789,32.7747368 106.593684,33.0105263 105.886316,33.0105263 C105.498947,33.1452632 105.111579,33.1621053 104.707368,33.1789474 C104.101053,33.3978947 103.427368,33.2463158 102.854737,33.4315789 C101.709474,33.5157895 100.816842,33.5326316 99.6547368,33.6505263 C97.9031579,33.7010526 96.1852632,33.7010526 94.4336842,33.6505263 C93.4736842,33.4315789 92.3621053,33.6168421 91.4021053,33.3642105 C89.7852632,33.28 87.9157895,32.9094737 86.3494737,32.5052632 C86.0126316,32.4715789 85.3726316,32.1010526 85.1031579,32.4042105 C84.9010526,32.8084211 84.7831579,33.2968421 84.7663158,33.7515789 C84.5978947,34.0042105 84.5473684,34.7284211 84.2273684,34.7957895 C83.8063158,33.1115789 83.1326316,31.4778947 81.9368421,30.1642105 C80.5894737,28.6652632 78.72,27.6210526 76.7663158,27.2168421 C76.2947368,27.0147368 75.7221053,27.1326316 75.2336842,26.9473684 C73.6336842,26.8294737 72.2863158,26.9810526 70.7368421,27.3347368 C68.7326316,27.9242105 66.8968421,28.9515789 65.6168421,30.6357895 C65.2631579,31.1410526 64.8926316,31.7136842 64.7410526,32.32 C64.5894737,33.0273684 63.7305263,32.6063158 63.2589474,32.5389474 C60.7157895,32.1684211 58.7621053,33.3136842 56.2021053,32.9431579 C56,32.8589474 55.5452632,32.7073684 55.7978947,32.4210526 C58.0547368,31.1410526 60.0421053,29.3726316 61.7768421,27.4357895 C63.9831579,24.9263158 65.8863158,22.0294737 66.7452632,18.7621053 C67.3178947,16.32 67.0989474,13.76 65.4484211,11.7894737 C65.1789474,11.5705263 64.7915789,11.9073684 64.5221053,12.0084211 C63.2757895,12.8 62.1642105,13.8947368 61.1368421,14.9894737 C59.5368421,16.6231579 57.9368421,18.5768421 56,19.7894737 C55.6126316,19.9578947 55.0568421,20.4126316 54.6357895,20.2947368 C55.1747368,18.9642105 55.6463158,17.6 55.7978947,16.1684211 C55.9663158,15.7136842 55.8652632,15.2926316 55.9494737,14.8210526 C55.9663158,13.3052632 55.9831579,11.9073684 55.5789474,10.4421053 C54.8042105,7.09052632 52.6989474,4.10947368 49.7852632,2.25684211 C47.6294737,0.909473684 45.0694737,0.0842105263 42.5094737,0.101052632 L42.5094737,0 L40.7578947,0 L40.6736842,0.0842105263 C40.1684211,0.117894737 39.5789474,0.0336842105 39.0905263,0.202105263 C38.1136842,0.892631579 36.9684211,1.41473684 36.0589474,2.20631579 C35.8568421,2.42526316 35.4694737,2.67789474 35.4526316,3.01473684 C35.4526316,3.85684211 35.4526316,4.69894737 35.4526316,5.54105263 C35.4526316,5.69263158 35.5031579,5.84421053 35.6210526,5.96210526 C37.1873684,6.93894737 39.0905263,7.61263158 40.5726316,8.72421053 C40.9094737,8.99368421 41.28,9.28 41.5157895,9.65052632 C41.9031579,10.88 42.0378947,12.3789474 41.6842105,13.6252632 C41.4147368,14.9221053 40.8252632,16.2189474 39.7136842,17.0273684 C39.4778947,17.1621053 39.3263158,17.3473684 39.04,17.3473684 C36.7663158,17.0442105 34.9642105,15.9831579 32.8084211,15.3431579 C32.3705263,15.3094737 31.6968421,14.9389474 31.3094737,15.1747368 C30.8715789,15.6631579 31.1242105,16.4042105 31.3936842,16.9094737 C31.5621053,17.3642105 31.8484211,17.92 31.4105263,18.3242105 C31.3094737,18.3410526 31.2084211,18.3242105 31.1073684,18.24 C30.4168421,17.7515789 30.0631579,17.0442105 29.8610526,16.2526316 C29.6757895,15.3768421 29.5410526,14.3831579 29.6421053,13.4905263 C29.6926316,13.2042105 30.0294737,13.1031579 30.2484211,12.9347368 C32.2526316,11.4021053 34.1052632,9.33052632 34.9642105,6.92210526 C35.0484211,6.38315789 35.2505263,5.96210526 35.1831579,5.40631579 C35.1494737,4.22736842 34.2568421,3.23368421 33.1789474,2.82947368 C32.5221053,2.47578947 31.68,2.40842105 30.9557895,2.24 C29.2042105,2.05473684 27.4526316,2.17263158 25.8021053,2.79578947 C23.1915789,3.78947368 21.1031579,5.72631579 19.6210526,8.08421053 C17.9031579,10.88 17.0442105,14.1136842 17.1957895,17.3810526 C17.0947368,17.8189474 16.7242105,17.3810526 16.4884211,17.3305263 C15.2252632,16.7242105 13.5578947,16.3873684 12.3452632,17.28 C12.1431579,17.5494737 12.2610526,17.7515789 12.2778947,18.0547368 C12.4631579,19.2 12.6821053,20.4631579 12.9852632,21.5915789 C13.4063158,22.7368421 13.6421053,23.7473684 14.2315789,24.8421053 C15.3431579,27.2168421 17.1621053,29.2547368 19.6884211,30.1305263 C20.0084211,30.2484211 19.8063158,30.4673684 19.7221053,30.6694737 C18.8631579,32.32 17.8189474,33.7347368 17.0610526,35.4526316 C16.5221053,36.7831579 16.1852632,38.3157895 16.2863158,39.7642105 C16.3536842,40.4042105 16.3705263,41.1957895 16.6905263,41.7515789 C17.9031579,43.0989474 19.8063158,44.2947368 20.9178947,45.9452632 C21.2378947,46.4505263 21.5410526,47.0568421 21.5578947,47.6631579 C21.6084211,48.2694737 21.4063158,48.9094737 21.1368421,49.4315789 C20.9347368,49.6842105 20.7831579,50.1389474 20.3789474,50.0378947 C19.2842105,49.7515789 18.24,49.2126316 17.1789474,48.8252632 C14.6694737,47.7473684 11.5031579,47.7978947 9.12842105,49.2294737 C7.30947368,50.2905263 6.13052632,51.8736842 4.44631579,53.12 C2.44210526,54.8378947 0.943157895,57.3136842 0.437894737,59.8905263 C0.134736842,60.7494737 0.101052632,61.6757895 0.101052632,62.5852632 L0,62.5852632 L0,64 C0.101052632,64.0673684 0.134736842,64.1852632 0.101052632,64.3536842 C0.0842105263,65.6505263 0.421052632,66.7957895 0.741052632,68.0252632 C1.80210526,71.3936842 3.85684211,74.4421053 6.90526316,76.3452632 C8.03368421,77.0189474 9.26315789,77.6421053 10.56,77.8947368 C10.88,78.0463158 11.1663158,77.8947368 11.3684211,78.2652632 C11.9747368,79.2252632 12.5978947,80.3031579 13.3726316,81.1621053 C14.1810526,82.0715789 15.0905263,82.8294737 16.3031579,83.1157895 C17.0947368,83.4021053 17.8189474,83.3684211 18.56,83.5031579 C19.84,83.6884211 21.6421053,83.84 22.9389474,83.8905263 C24.1010526,83.84 25.3810526,84.0252632 26.4757895,83.7052632 C28.0252632,83.2336842 29.0694737,82.0547368 30.5178947,81.4821053 C32.2189474,81.0105263 34.3073684,81.7515789 35.9073684,81.2631579 C37.1536842,81.0610526 38.3831579,80.5221053 39.4610526,79.8821053 C40.9768421,78.9557895 42.5263158,77.5073684 42.88,75.7052632 C43.2,75.0821053 43.0652632,74.2736842 43.2336842,73.6 C43.2168421,72.0336842 43.2505263,70.4336842 43.52,68.8842105 C43.6715789,68.5305263 43.5873684,68.0421053 43.7557895,67.6884211 C43.8736842,66.9642105 44.2105263,66.3747368 44.5473684,65.7515789 C45.5747368,64.2021053 47.0231579,62.7873684 48.7410526,62.0463158 C49.6336842,61.8105263 50.4421053,61.7094737 51.3852632,61.7431579 C53.5410526,61.6757895 55.4610526,62.9557895 56.4884211,64.7915789 C57.7010526,66.8463158 58.1052632,68.9684211 58.56,71.2421053 C58.7452632,72.2526316 58.8294737,73.28 59.0484211,74.2736842 C59.4021053,77.0694737 60.4294737,79.7136842 62.2821053,81.8863158 C63.7978947,83.6547368 65.5663158,85.0021053 67.4863158,86.2821053 C68.8673684,87.2421053 70.3831579,88.1178947 71.7136842,89.1284211 C71.7305263,89.2294737 71.68,89.3136842 71.5621053,89.3810526 C71.0063158,89.6673684 70.4505263,89.4484211 69.9452632,89.8021053 C69.7936842,90.1221053 70.0463158,90.3073684 70.0968421,90.6105263 C71.9326316,94.8884211 74.1894737,98.6105263 75.6715789,103.073684 C75.84,103.410526 75.7557895,103.730526 76.1263158,103.966316 C76.5978947,104.286316 77.3726316,103.713684 77.7768421,103.949474 C77.8273684,104.084211 77.7936842,104.185263 77.6757895,104.286316 C76.1263158,105.970526 75.3684211,108.395789 75.6042105,110.669474 C75.6210526,112.067368 76.1431579,113.448421 76.9178947,114.593684 C77.7094737,115.806316 78.9557895,116.665263 80.3368421,117.052632 C80.6063158,117.153684 81.1452632,117.069474 81.2126316,117.406316 C81.1957895,118.4 81.2463158,119.444211 81.1284211,120.437895 C80.96,121.633684 80.5894737,123.098947 79.6294737,123.924211 C79.3431579,123.974737 79.1073684,123.587368 78.8210526,123.503158 C77.5915789,122.762105 76.3284211,122.896842 74.9473684,123.031579 C73.0442105,123.486316 71.1915789,124.126316 69.2210526,123.974737 C68.2105263,123.806316 67.3010526,123.637895 66.3410526,123.183158 C64.8757895,122.576842 63.4610526,121.583158 62.0126316,120.892632 C61.4568421,120.555789 60.8673684,120.437895 60.2947368,120.168421 C59.84,120.134737 59.6042105,119.882105 59.2,120.016842 C58.56,120.606316 58.7452632,121.347368 58.7789474,122.122105 C58.7789474,122.661053 58.9978947,123.418947 58.7284211,123.924211 C58.1389474,124.109474 57.3473684,123.806316 56.7915789,123.587368 C55.9326316,123.132632 54.8884211,122.576842 53.8947368,122.627368 C53.4905263,122.661053 53.6084211,123.014737 53.5578947,123.301053 C53.5915789,123.688421 53.4063158,123.924211 53.4568421,124.311579 C53.3221053,125.962105 53.5578947,127.191579 53.7936842,128.774737 C54.0463158,129.313684 54.0294737,129.886316 54.3326316,130.425263 C54.8547368,131.991579 55.7642105,133.406316 56.8926316,134.618947 C59.1494737,136.875789 62.0631579,138.256842 65.1789474,138.812632 C67.0484211,139.267368 69.1536842,139.183158 71.0736842,139.115789 C74.3410526,138.778947 77.7094737,137.818947 80.5557895,136.151579 C82.8968421,134.871579 84.9178947,133.103158 86.3663158,130.88 C88,128.404211 88.7915789,125.423158 88.5894737,122.458947 C88.5557895,121.92 88.6063158,121.28 88.4210526,120.774737 C88.2694737,119.966316 88.1684211,119.225263 87.8652632,118.467368 C87.5621053,118.063158 87.1747368,118.113684 86.7368421,117.978947 C86.4673684,117.928421 85.7936842,117.928421 85.7094737,117.574737 C85.8105263,117.288421 86.1978947,117.12 86.4,116.901053 C87.1915789,116.075789 87.8315789,115.031579 88.1515789,113.936842 C88.5221053,113.364211 88.5052632,112.774737 88.6905263,112.168421 C88.7915789,111.073684 89.0273684,110.231579 88.7915789,109.136842 C88.6568421,107.385263 87.7473684,105.381053 86.1305263,104.522105 C86.0294737,104.404211 86.0463158,104.303158 86.1642105,104.202105 C86.9726316,103.545263 87.3936842,102.568421 87.5789474,101.574737 C87.7810526,100.513684 87.8821053,99.6884211 87.9831579,98.6273684 C88.1684211,98.4084211 88.0168421,97.8021053 88.3705263,97.7684211 C88.8757895,98.1557895 89.2294737,98.9305263 89.1957895,99.5705263 C89.2631579,100.446316 88.8757895,101.338947 88.6568421,102.164211 C88.4884211,102.972632 88.0842105,103.966316 88.3368421,104.791579 C88.4042105,105.650526 89.1452632,106.458947 89.6168421,107.132632 C90.6105263,108.328421 90.56,109.962105 90.1389474,111.36 C89.9705263,112.218947 89.5663158,113.061053 89.2968421,113.903158 C88.9768421,114.829474 88.7410526,115.957895 88.6231579,116.917895 C88.4884211,118.332632 88.6905263,119.410526 88.7915789,120.774737 C88.9936842,121.633684 88.8926316,122.610526 89.0778947,123.486316 C89.1621053,125.086316 89.1621053,126.871579 88.6063158,128.370526 C88.3536842,129.263158 87.8147368,129.953684 87.3768421,130.728421 C87.4105263,131.351579 87.9663158,131.991579 88.2863158,132.530526 C89.1957895,133.625263 90.2905263,134.686316 91.5705263,135.326316 C94.3157895,136.976842 97.4989474,137.701053 100.698947,137.414737 C102.214737,137.229474 103.663158,136.825263 104.976842,136.016842 C107.216842,134.770526 108.682105,132.648421 109.507368,130.273684 C109.709474,129.532632 110.012632,128.892632 110.029474,128.117895 C110.231579,127.696842 110.113684,127.141053 110.265263,126.686316 C110.298947,125.793684 110.332632,124.867368 110.214737,123.991579 C110.248421,123.755789 110.147368,123.570526 110.063158,123.368421 C109.675789,123.2 109.153684,123.435789 108.766316,123.503158 C107.991579,123.823158 107.469474,124.429474 106.728421,124.783158 C106.290526,124.917895 105.92,125.103158 105.431579,124.951579 C105.397895,124.816842 105.347368,124.698947 105.296842,124.581053 C105.162105,123.402105 105.313684,122.273684 104.825263,121.162105 C104.656842,120.993684 104.353684,121.128421 104.185263,121.229474 C101.608421,122.425263 98.88,123.738947 96.0336842,124.058947 C95.5621053,124.294737 94.9221053,124.126316 94.4336842,124.311579 C93.8105263,124.227368 93.7094737,124.850526 93.7263158,125.338947 C93.6926316,125.743158 93.8610526,126.248421 93.6926316,126.602105 C93.3894737,126.501053 93.3221053,126.012632 93.1536842,125.776842 C92.9010526,125.221053 92.8168421,124.564211 92.6484211,123.974737 C92.6315789,123.048421 92.5305263,122.004211 92.7663158,121.111579 C93.1873684,118.753684 94.2484211,116.463158 95.0568421,114.206316 C95.3936842,112.976842 95.8315789,111.898947 95.8484211,110.669474 C95.9831579,110.147368 96,109.507368 95.8484211,108.985263 C95.7978947,107.553684 95.1073684,106.105263 94.1642105,105.027368 L94.1642105,104.842105 C94.4673684,104.976842 94.7368421,105.145263 95.0905263,105.111579 C95.5789474,105.111579 95.9326316,104.741053 96.2189474,104.387368 C96.64,103.848421 96.9094737,103.208421 97.4821053,102.787368 C97.7515789,102.669474 97.9031579,102.837895 98.1221053,102.938947 C99.0315789,103.427368 100.092632,103.646316 101.052632,104.016842 C102.046316,104.269474 103.090526,104.522105 104.016842,104.943158 C104.774737,105.28 105.667368,105.785263 106.122105,106.526316 C106.256842,108.749474 106.913684,110.686316 107.637895,112.757895 C109.153684,116.597895 111.831579,119.949474 114.896842,122.677895 C115.082105,122.846316 115.149474,122.981053 115.048421,123.216842 C114.526316,124.362105 114.155789,125.591579 114.021053,126.821053 C113.785263,129.701053 114.913684,132.614737 116.614737,134.922105 C116.951579,135.326316 117.524211,135.932632 117.76,136.370526 C116.463158,136.538947 114.947368,136.336842 113.633684,136.471579 C113.566316,136.606316 113.549474,136.757895 113.6,136.926316 C113.768421,137.347368 113.818947,137.734737 114.071579,138.138947 C115.183158,140.463158 117.002105,141.978947 119.006316,143.511579 C120.437895,144.555789 122.021053,145.515789 123.604211,146.307368 C125.76,147.317895 128.151579,148.362105 130.543158,148.463158 L130.543158,148.547368 L132.378947,148.547368 L132.463158,148.463158 C134.130526,148.463158 135.781053,147.856842 137.263158,147.183158 C140.227368,145.751579 142.686316,143.68 145.852632,142.652632 C146.206316,142.551579 146.745263,142.467368 146.728421,141.995789 C146.694737,141.507368 146.24,141.086316 146.054737,140.648421 C145.970526,140.311579 145.936842,139.873684 146.374737,139.772632 C146.981053,139.705263 147.621053,139.907368 148.227368,139.789474 C148.530526,139.705263 148.631579,139.418947 148.547368,139.115789 C147.250526,136.572632 146.054737,133.591579 146.206316,130.694737 C146.138947,129.549474 146.408421,128.404211 146.964211,127.410526 C147.031579,127.292632 147.183158,127.04 147.334737,127.056842 C148.126316,127.494737 149.204211,127.242105 150.08,127.326316 C150.551579,127.292632 151.141053,127.494737 151.258947,128 C151.258947,128.387368 151.242105,128.791579 151.225263,129.178947 C150.888421,131.52 150.484211,133.288421 150.08,135.578947 C150.096842,136.033684 149.894737,136.269474 149.995789,136.673684 C150.366316,136.892632 150.804211,136.656842 151.090526,136.387368 C151.376842,136.117895 151.663158,135.696842 152.117895,135.747368 C152.673684,135.831579 152.926316,136.522105 153.263158,136.926316 C154.037895,137.903158 154.930526,138.778947 155.974737,139.469474 C157.995789,140.833684 160.32,141.490526 162.745263,141.658947 C164.463158,141.726316 166.315789,141.658947 167.966316,141.136842 C168.96,140.917895 169.818947,140.564211 170.762105,140.193684 C173.894737,138.812632 176.791579,136.218947 178.004211,132.968421 C178.206316,132.277895 178.458947,131.385263 178.56,130.661053 C178.694737,128.993684 178.644211,127.36 178.122105,125.776842 C178.021053,125.456842 178.138947,125.12 177.734737,125.035789 C176.842105,125.153684 175.983158,125.675789 175.208421,126.096842 C174.08,126.736842 172.530526,127.663158 171.216842,127.578947 C171.082105,127.275789 171.301053,127.090526 171.301053,126.787368 C171.452632,125.894737 171.738947,125.052632 171.738947,124.092632 C171.755789,123.52 171.671579,122.627368 171.098947,122.307368 C170.627368,122.341053 170.105263,122.593684 169.650526,122.728421 C168.454737,123.166316 167.174737,123.772632 165.945263,124.244211 C165.372632,124.412632 164.884211,124.732632 164.261053,124.783158 C163.789474,124.985263 163.301053,124.917895 162.829474,125.170526 C162.256842,125.136842 161.616842,125.322105 161.077895,125.204211 C160.673684,124.783158 160.437895,124.176842 160.101053,123.688421 C158.568421,121.246316 157.052632,118.686316 156.564211,115.806316 C156.48,114.88 156.395789,113.835789 156.597895,112.943158 C156.631579,112.269474 156.917895,111.612632 157.389474,111.124211 C157.995789,110.467368 158.652632,109.928421 159.141053,109.170526 C160.117895,107.301053 159.781053,104.926316 159.208421,102.989474 C159.124211,102.298947 158.652632,101.507368 158.753684,100.8 C160.64,96.3873684 163.705263,92.2105263 165.995789,88.0336842 C167.275789,85.7936842 168.286316,83.52 169.094737,81.0947368 C169.296842,80.1178947 169.684211,79.0568421 169.734737,78.0631579 C170.088421,76.4968421 170.054737,74.6273684 169.987368,73.0105263 C169.936842,72.5389474 169.953684,72.1178947 169.818947,71.6631579 C169.650526,71.2084211 169.717895,70.6021053 169.532632,70.1473684 C169.448421,69.7094737 169.330526,69.3221053 169.229474,68.8842105 C169.111579,68.4126316 168.724211,68.3115789 168.370526,68.0589474 C167.629474,67.4863158 166.821053,67.0652632 166.08,66.4926316 C162.661053,63.8821053 159.494737,60.9178947 156.446316,57.9031579 L156.345263,57.8863158 C156.092632,58.2063158 156.008421,58.6778947 155.873684,59.0484211 C155.435789,60.8842105 155.654737,62.8378947 156.092632,64.64 C156.345263,65.6842105 156.597895,66.7957895 157.035789,67.7726316 C157.44,68.0252632 157.978947,67.5368421 158.029474,67.1326316 C158.214737,66.7452632 158.096842,66.2905263 158.383158,66.0042105 C158.635789,65.9368421 158.787368,66.24 158.905263,66.4084211 C159.545263,67.4863158 159.292632,68.8842105 159.882105,69.9957895 C159.966316,70.2315789 160.286316,70.1810526 160.454737,70.08 C161.010526,69.6252632 160.96,68.7663158 161.532632,68.3284211 C161.768421,68.1768421 162.037895,68.1094737 162.307368,68.1936842 C162.627368,68.6821053 162.492632,69.1705263 162.627368,69.6926316 C162.829474,71.5115789 162.677895,73.2126316 162.475789,74.9978947 C162.374737,75.2673684 162.458947,75.6715789 162.037895,75.5368421 C161.212632,75.2336842 161.397895,73.9705263 160.741053,73.4652632 C160.505263,73.2631579 160,73.1957895 159.831579,73.4989474 C158.181053,75.8063158 158.467368,78.6694737 156.968421,80.9263158 C156.513684,81.6336842 155.84,82.0547368 155.082105,82.3747368 C154.88,82.7115789 154.997895,83.2168421 154.846316,83.6210526 C154.762105,84.4126316 154.526316,85.1368421 153.701053,85.3894737 C153.515789,85.1031579 153.414737,84.7831579 153.330526,84.4631579 C152.589474,81.5326316 152.724211,78.0631579 151.814737,75.1831579 C151.764211,74.9642105 151.595789,74.7284211 151.461053,75.0315789 C151.090526,76.0589474 150.854737,77.0021053 150.652632,78.08 C150.484211,79.6294737 150.332632,81.2294737 150.568421,82.7789474 C150.635789,84.3452632 150.989474,85.9452632 151.309474,87.4778947 C152.437895,92.2778947 154.138947,96.7915789 154.593684,101.810526 C154.610526,103.258947 154.694737,104.757895 154.458947,106.189474 C154.324211,107.587368 153.953684,109.052632 153.583158,110.4 C152.454737,113.936842 150.618947,117.406316 147.755789,119.865263 C147.233684,120.32 146.576842,120.825263 145.953684,121.094737 C145.768421,120.370526 145.953684,119.545263 145.751579,118.804211 C145.566316,117.322105 145.263158,115.486316 145.886316,114.088421 C146.442105,112.690526 147.503158,111.865263 148.547368,110.854737 C149.338947,110.113684 150.063158,109.406316 150.383158,108.345263 C150.871579,106.896842 150.568421,105.162105 149.625263,103.949474 C149.069474,103.191579 148.378947,102.635789 147.654737,102.029474 C145.532632,100.581053 144.151579,98.6105263 142.652632,96.5726316 C139.991579,92.8168421 137.92,89.3136842 135.393684,85.4568421 C135.124211,84.9852632 134.686316,84.4968421 134.501053,84.0084211 C135.427368,83.0315789 136.32,82.1557895 137.145263,81.0778947 C138.896842,78.7705263 140.176842,76.0084211 140.715789,73.1621053 C140.783158,72.96 140.850526,72.7747368 140.766316,72.5726316 C140.109474,72.4884211 139.52,72.7915789 139.149474,73.3305263 C138.56,74.1052632 138.509474,75.1326316 138.172632,76.0252632 C138.054737,76.7831579 137.549474,77.4063158 137.077895,77.9957895 C136.050526,79.1242105 134.871579,80.0336842 133.877895,81.1957895 C133.642105,81.2968421 133.524211,81.0610526 133.406316,80.9263158 C133.035789,80.4042105 132.951579,79.8315789 132.783158,79.2421053 C132.665263,77.6589474 132.766316,76.1094737 132.783158,74.5263158 C132.934737,73.5494737 132.867368,72.3536842 132.816842,71.3768421 L132.934737,71.3431579 C133.423158,71.5115789 134.029474,72 134.618947,71.8652632 C134.854737,71.7810526 135.208421,71.6631579 135.073684,71.3431579 C134.602105,69.8610526 134.332632,68.4968421 134.147368,66.9473684 C134.113684,65.7178947 134.096842,64.4715789 134.164211,63.2421053 C134.282105,62.4 134.383158,61.7263158 134.484211,60.8842105 C134.669474,60.3115789 134.568421,59.6210526 134.871579,59.1157895 C135.174737,59.0821053 135.309474,59.1157895 135.477895,59.3684211 C135.865263,59.8905263 135.696842,60.5305263 136.404211,60.8 C136.892632,59.6042105 136.724211,58.0378947 136.909474,56.8421053 C136.909474,55.6631579 136.892632,54.4842105 136.926316,53.3052632 C136.943158,51.7557895 137.061053,50.0547368 137.717895,48.6231579 C137.802105,48.4042105 138.054737,48.3705263 138.172632,48.5894737 C138.728421,49.2968421 138.492632,50.6610526 139.250526,51.2 C139.604211,51.3684211 139.890526,51.4189474 140.109474,51.0315789 C140.463158,49.9705263 139.941053,48.6736842 140.261053,47.6463158 C141.305263,47.8652632 141.002105,49.3642105 141.726316,49.8863158 C141.962105,49.9705263 142.096842,49.7515789 142.197895,49.5831579 C142.669474,48.8589474 142.938947,48.0673684 143.073684,47.2252632 C143.494737,44.7831579 143.056842,42.1221053 142.804211,39.68 C142.652632,38.4842105 142.484211,37.4905263 142.551579,36.2778947 C142.585263,36.0421053 142.821053,35.9073684 143.056842,35.9242105 C143.494737,36.0084211 143.730526,36.8 144.185263,36.7326316 C144.353684,36.0084211 144.185263,35.1494737 144.370526,34.4252632 C144.522105,32.9768421 144.825263,31.2421053 144.96,29.8778947 C145.313684,27.8905263 145.313684,25.8863158 145.313684,23.8821053 C145.431579,23.8652632 145.532632,23.8989474 145.583158,23.9831579 C146.593684,24.9936842 147.115789,26.6610526 147.907368,27.8568421 C147.991579,28.0084211 148.16,28.3115789 148.378947,28.16 C148.463158,27.9578947 148.530526,27.7389474 148.597895,27.52 C148.8,25.92 148.463158,24.4378947 148.008421,22.9221053 C147.738947,21.7431579 147.149474,20.5305263 147.014737,19.3347368 L147.031579,19.3347368 C148.648421,20.2610526 149.423158,22.4 149.743158,24.1347368 C149.877895,25.1284211 150.08,26.2063158 150.029474,27.1663158 C150.197895,27.8568421 150.063158,28.6652632 150.231579,29.3557895 C150.214737,31.0905263 150.265263,32.8421053 150.298947,34.5768421 C150.517895,37.6421053 150.871579,40.64 151.545263,43.6378947 C152.454737,47.6968421 153.886316,51.8905263 156.311579,55.3094737 C156.395789,55.5284211 156.345263,55.7305263 156.496842,55.9326316 C157.12,56.7915789 157.726316,57.6505263 158.433684,58.4252632 C160.724211,60.9010526 163.385263,62.8042105 166.197895,64.64 C167.764211,65.6 169.347368,66.6442105 170.981053,67.4526316 C175.427368,70.0463158 180.109474,72.5052632 184.286316,75.5368421 C186.509474,77.1536842 188.715789,79.0905263 190.248421,81.3810526 C191.477895,83.2842105 192.32,85.3557895 192.505263,87.6294737 C192.572632,88.0842105 192.606316,88.5221053 192.471579,88.9768421 C192.454737,91.1663158 191.275789,93.2378947 189.44,94.4336842 C187.065263,96.0505263 183.898947,97.1621053 181.389474,98.6778947 C179.52,99.7557895 177.717895,101.237895 176.909474,103.292632 C176.084211,105.145263 175.696842,107.486316 175.174737,109.355789 C175.023158,110.197895 174.686316,111.208421 174.618947,111.983158 C175.730526,112.404211 176.623158,111.511579 177.246316,110.72 C177.498947,110.366316 178.004211,109.793684 178.509474,109.962105 C178.593684,110.248421 178.458947,110.4 178.324211,110.635789 C178.122105,111.427368 177.751579,112.252632 177.701053,113.077895 C177.448421,113.717895 177.6,114.475789 177.414737,115.098947 C177.381053,116.48 177.482105,118.130526 177.785263,119.461053 C178.391579,121.970526 179.452632,124.294737 181.389474,126.096842 C182.433684,127.04 183.747368,127.814737 185.128421,128.117895 C185.650526,128.336842 186.307368,128.202105 186.829474,128.387368 C188.16,128.387368 189.591579,128.134737 190.72,127.427368 C191.545263,126.888421 192.370526,126.147368 192.707368,125.204211 C192.96,124.665263 192.875789,124.008421 192.808421,123.435789 C192.606316,123.2 192.151579,123.301053 191.882105,123.317895 C191.141053,123.351579 190.315789,123.368421 189.625263,123.098947 C188.227368,122.896842 186.846316,122.021053 186.273684,120.690526 C185.936842,120.151579 185.987368,119.595789 185.936842,118.972632 C185.953684,118.265263 185.970526,117.591579 186.290526,116.951579 C187.031579,115.418947 188.378947,114.122105 189.642105,113.027368 C191.578947,111.275789 193.498947,109.827368 195.048421,107.671579 C195.957895,106.475789 196.564211,105.044211 197.103158,103.646316 C197.911579,101.406316 198.467368,98.9642105 198.686316,96.5894737 C198.922105,94.08 198.787368,91.3515789 197.827368,88.9936842 C197.810526,88.7747368 197.557895,88.5726316 197.658947,88.3705263 C198.113684,88.5557895 198.4,89.4821053 198.888421,89.7515789 C199.258947,90.0547368 199.68,90.0884211 200.151579,90.0715789 L200.151579,89.9368421 L200,89.8694737 Z M130.172632,128.505263 C129.953684,129.061053 130.189474,129.869474 129.802105,130.307368 C129.094737,130.408421 128.32,130.324211 127.578947,130.442105 C126.871579,130.661053 126.063158,130.762105 125.322105,130.677895 C124.985263,130.593684 124.614737,130.408421 124.378947,130.138947 C124.244211,129.347368 124.294737,128.522105 124.884211,127.915789 C125.541053,127.393684 126.214737,127.595789 127.006316,127.578947 C128.033684,127.781053 129.145263,128.033684 130.206316,128.016842 C130.492632,128.033684 130.122105,128.32 130.172632,128.505263 Z" fill="#362061"></path>
                    <path d="M41.4315789,2.02105263 C42.88,1.92 44.2610526,2.18947368 45.6421053,2.52631579 C49.4147368,3.53684211 52.4463158,6.73684211 53.5578947,10.4421053 C54.2652632,12.8673684 54.3494737,15.6126316 53.5578947,18.0210526 C52.8505263,19.9073684 51.6884211,21.6926316 50.24,23.1242105 C49.3473684,24.0336842 48.3873684,24.7915789 47.2252632,25.3473684 C46.1136842,25.9705263 44.9010526,26.2231579 43.6210526,26.0884211 C41.8863158,25.8863158 40.3536842,24.4378947 39.5789474,22.9221053 C39.5621053,22.6021053 39.7810526,22.6357895 40,22.5010526 C40.7915789,22.3663158 41.3642105,23.0063158 41.9705263,23.3936842 C42.2905263,23.6126316 42.8294737,23.8989474 43.2168421,23.6968421 C43.2336842,23.5284211 43.2336842,23.36 43.2168421,23.1747368 C42.8126316,22.1810526 41.8021053,21.8105263 41.3810526,20.8 C40.9263158,19.7726316 41.1789474,18.6947368 41.5663158,17.7010526 C41.6842105,17.4147368 41.7515789,16.96 42.0378947,16.7915789 C42.2905263,16 42.8463158,15.2926316 43.1663158,14.5010526 C43.7221053,13.3726316 44.1431579,11.9242105 43.9073684,10.6610526 C43.6715789,9.38105263 43.2168421,8.21894737 42.1221053,7.41052632 C41.2968421,6.73684211 40.2694737,6.31578947 39.3263158,5.84421053 C38.7368421,5.52421053 37.9957895,5.27157895 37.4905263,4.81684211 C37.7094737,3.90736842 38.3157895,3.03157895 39.1578947,2.61052632 C39.8484211,2.24 40.64,2.02105263 41.4315789,2.02105263 Z" fill="#FECC06"></path>
                    <path d="M29.3221053,4.49684211 C30.5178947,4.66526316 31.6126316,5.13684211 32.6231579,5.79368421 C32.7915789,6.11368421 32.6568421,6.60210526 32.5221053,6.90526316 C32.32,7.69684211 31.8484211,8.45473684 31.2926316,9.06105263 C30.3157895,10.1557895 29.0189474,10.88 28.1263158,12.1263158 C27.5031579,13.0863158 27.1663158,14.2989474 27.5368421,15.4273684 C27.9410526,16.5557895 28.4463158,17.3305263 28.7326316,18.5263158 C28.7326316,18.8968421 28.7494737,19.2673684 28.7326316,19.6378947 C28.5136842,20.0757895 28.3284211,20.5305263 27.9915789,20.9010526 C27.0484211,22.0126316 25.8526316,22.6694737 24.8084211,23.6294737 C24.6063158,23.8147368 24.2863158,23.6463158 24.1010526,23.5452632 C22.4168421,22.7705263 21.1705263,21.2715789 20.5642105,19.5368421 C19.5536842,16.7747368 19.9410526,13.44 21.0189474,10.7621053 C22.0294737,8.30315789 23.6294737,6.02947368 26.1221053,4.93473684 C27.0821053,4.54736842 28.2610526,4.31157895 29.3221053,4.49684211 Z" fill="#FECC06"></path>
                    <path d="M146.947368,19.4526316 C148.581053,20.3789474 149.355789,22.5347368 149.675789,24.2526316 C149.810526,25.2463158 150.012632,26.3242105 149.962105,27.2842105 C150.130526,27.9747368 149.995789,28.7831579 150.164211,29.4736842 C150.147368,31.2084211 150.197895,32.96 150.231579,34.6947368 C150.450526,37.76 150.821053,40.7578947 151.477895,43.7557895 C152.387368,47.8147368 153.818947,52.0084211 156.244211,55.4273684 C156.328421,55.6463158 156.277895,55.8484211 156.429474,56.0505263 L156.345263,56.1010526 C156.261053,56.6905263 156.328421,57.3305263 156.311579,57.9368421 C156.058947,58.2568421 155.974737,58.7284211 155.84,59.0989474 C155.402105,60.9347368 155.621053,62.8884211 156.058947,64.6905263 C156.311579,65.7347368 156.564211,66.8463158 157.002105,67.8231579 C157.406316,68.0757895 157.945263,67.5873684 157.995789,67.1831579 C158.181053,66.7957895 158.063158,66.3410526 158.349474,66.0547368 C158.602105,65.9873684 158.753684,66.2905263 158.871579,66.4589474 C159.511579,67.5368421 159.258947,68.9347368 159.848421,70.0463158 C159.932632,70.2821053 160.235789,70.2315789 160.421053,70.1305263 C160.993684,69.6757895 160.926316,68.8168421 161.515789,68.3789474 C161.751579,68.2273684 162.021053,68.16 162.290526,68.2442105 C162.610526,68.7326316 162.475789,69.2210526 162.610526,69.7431579 C162.812632,71.5621053 162.661053,73.2631579 162.458947,75.0484211 C162.357895,75.3178947 162.442105,75.7221053 162.021053,75.5873684 C161.195789,75.2842105 161.381053,74.0210526 160.724211,73.5157895 C160.488421,73.3136842 160,73.2463158 159.814737,73.5494737 C158.164211,75.8568421 158.450526,78.72 156.951579,80.9768421 C156.496842,81.6842105 155.823158,82.1052632 155.065263,82.4252632 C154.863158,82.7621053 154.964211,83.2673684 154.829474,83.6715789 C154.745263,84.4631579 154.526316,85.1873684 153.684211,85.44 C153.498947,85.1536842 153.397895,84.8336842 153.313684,84.5136842 C152.572632,81.5831579 152.707368,78.1136842 151.797895,75.2336842 C151.747368,75.0147368 151.578947,74.7789474 151.444211,75.0821053 C151.073684,76.1094737 150.837895,77.0526316 150.635789,78.1305263 C150.467368,79.68 150.315789,81.28 150.551579,82.8294737 C150.618947,84.4126316 150.972632,85.9957895 151.309474,87.5284211 C152.437895,92.3284211 154.138947,96.8421053 154.593684,101.861053 C154.610526,103.309474 154.694737,104.808421 154.458947,106.24 C154.324211,107.637895 153.953684,109.103158 153.583158,110.450526 C152.454737,113.987368 150.618947,117.456842 147.755789,119.915789 C147.233684,120.370526 146.576842,120.875789 145.953684,121.145263 C145.768421,120.421053 145.953684,119.595789 145.751579,118.854737 C145.549474,117.372632 145.263158,115.536842 145.886316,114.138947 C146.442105,112.741053 147.503158,111.915789 148.547368,110.905263 C149.338947,110.164211 150.063158,109.456842 150.383158,108.395789 C150.871579,106.947368 150.568421,105.212632 149.625263,104 C149.069474,103.242105 148.378947,102.686316 147.654737,102.08 C145.532632,100.631579 144.151579,98.6610526 142.652632,96.6231579 C139.991579,92.8673684 137.92,89.3642105 135.393684,85.5073684 C135.124211,85.0357895 134.686316,84.5642105 134.501053,84.0589474 C135.427368,83.0821053 136.32,82.2063158 137.145263,81.1284211 C138.896842,78.8210526 140.176842,76.0589474 140.715789,73.2126316 C140.783158,73.0105263 140.850526,72.8252632 140.766316,72.6231579 C140.109474,72.5389474 139.52,72.8421053 139.149474,73.3810526 C138.56,74.1557895 138.509474,75.1831579 138.172632,76.0757895 C138.054737,76.8336842 137.549474,77.4568421 137.077895,78.0463158 C136.050526,79.1747368 134.871579,80.0842105 133.877895,81.2463158 C133.642105,81.3473684 133.524211,81.1115789 133.406316,80.9768421 C133.035789,80.4547368 132.951579,79.8821053 132.783158,79.2926316 C132.665263,77.7094737 132.766316,76.16 132.783158,74.5768421 C132.934737,73.6 132.867368,72.4042105 132.816842,71.4273684 L132.934737,71.3936842 C133.44,71.5621053 134.029474,72.0505263 134.618947,71.9157895 C134.854737,71.8315789 135.208421,71.7136842 135.073684,71.3936842 C134.602105,69.9115789 134.332632,68.5473684 134.147368,66.9978947 C134.113684,65.7684211 134.096842,64.5221053 134.164211,63.2926316 C134.282105,62.4505263 134.383158,61.7768421 134.484211,60.9347368 C134.652632,60.3621053 134.568421,59.6715789 134.871579,59.1663158 C135.174737,59.1326316 135.309474,59.1663158 135.477895,59.4189474 C135.865263,59.9410526 135.696842,60.5810526 136.404211,60.8505263 C136.892632,59.6547368 136.724211,58.0884211 136.909474,56.8926316 C136.909474,55.7136842 136.892632,54.5347368 136.926316,53.3557895 C136.943158,51.8063158 137.061053,50.1052632 137.717895,48.6736842 C137.818947,48.4547368 138.054737,48.4210526 138.172632,48.64 C138.728421,49.3473684 138.492632,50.7115789 139.250526,51.2505263 C139.604211,51.4189474 139.890526,51.4694737 140.109474,51.0821053 C140.463158,50.0210526 139.941053,48.7242105 140.261053,47.6968421 C141.305263,47.9157895 141.002105,49.4147368 141.726316,49.9368421 C141.962105,50.0210526 142.096842,49.8021053 142.197895,49.6336842 C142.669474,48.9094737 142.938947,48.1178947 143.073684,47.2757895 C143.494737,44.8336842 143.056842,42.1726316 142.804211,39.7305263 C142.652632,38.5347368 142.484211,37.5578947 142.551579,36.3284211 C142.585263,36.0926316 142.821053,35.9578947 143.056842,35.9747368 C143.494737,36.0421053 143.730526,36.8505263 144.185263,36.7831579 C144.353684,36.0589474 144.185263,35.2 144.370526,34.4757895 C144.522105,33.0273684 144.825263,31.2926316 144.96,29.9284211 C145.313684,27.9410526 145.313684,25.9368421 145.313684,23.9326316 C145.431579,23.9157895 145.532632,23.9494737 145.583158,24.0336842 C146.593684,25.0610526 147.115789,26.7115789 147.907368,27.9242105 C147.991579,28.0757895 148.16,28.3789474 148.378947,28.2273684 C148.463158,28.0252632 148.530526,27.8063158 148.597895,27.5873684 C148.8,25.9873684 148.463158,24.5052632 148.008421,22.9894737 C147.671579,21.8442105 147.082105,20.6484211 146.947368,19.4526316 Z" fill="#FECC06"></path>
                    <path d="M171.115789,21.2210526 C173.288421,21.4231579 175.258947,22.8378947 176.050526,24.9094737 C176.32,25.4315789 176.370526,26.0042105 176.589474,26.5263158 C176.64,26.7957895 176.623158,27.1326316 176.757895,27.3684211 C176.858947,28.4631579 176.808421,29.5578947 176.825263,30.6526316 C176.623158,31.8147368 176.656842,32.6736842 176.286316,33.8357895 C176.151579,34.1389474 176.202105,34.56 176.050526,34.8631579 C174.467368,40.7410526 171.536842,46.0968421 169.650526,51.7052632 C169.094737,53.2547368 168.858947,54.7368421 168.707368,56.3705263 C168.522105,56.5557895 168.134737,56.3873684 167.915789,56.3536842 C165.911579,55.7978947 164.597895,54.0294737 163.503158,52.3789474 C161.936842,49.8021053 160.370526,47.3094737 159.326316,44.4463158 C158.703158,42.7284211 158.197895,41.0610526 157.928421,39.2421053 C157.726316,38.72 157.861053,38.0631579 157.642105,37.5410526 C157.608421,36.7326316 157.473684,36.1431579 157.423158,35.3515789 C157.338947,34.9136842 157.473684,34.4421053 157.338947,34.0042105 C157.305263,32.5389474 157.305263,31.0905263 157.338947,29.6252632 C157.490526,29.0863158 157.322105,28.4968421 157.456842,27.9410526 C157.456842,27.1326316 157.642105,26.6105263 157.608421,25.7515789 C157.625263,25.5831579 157.608421,25.1621053 157.810526,25.1115789 C158.366316,25.0610526 158.888421,25.4147368 159.124211,25.92 C159.343158,26.2736842 159.68,26.9978947 160.134737,27.0484211 C160.185263,26.9136842 160.168421,26.7789474 160.117895,26.5936842 C159.949474,26.2231579 159.932632,25.5157895 160.050526,25.1284211 C161.111579,24.1684211 162.425263,23.4105263 163.705263,22.7705263 C165.945263,21.7094737 168.623158,20.9178947 171.115789,21.2210526 Z" fill="#362061"></path>
                    <path d="M61.7768421,22.0463158 C61.3894737,22.5515789 60.6315789,22.72 60.2610526,23.2252632 C59.3684211,24.5726316 58.7789474,25.8357895 57.8021053,27.1326316 C57.4652632,27.5368421 56.9431579,28.1768421 56.4547368,28.3789474 C56.4042105,28.2778947 56.4210526,28.1768421 56.5221053,28.0589474 C57.7178947,25.7347368 59.5031579,23.5789474 61.1705263,21.5747368 C61.4231579,21.2042105 62.0126316,21.7094737 61.7768421,22.0463158 Z" fill="#FFFFFF"></path>
                    <path d="M61.3894737,23.1578947 C61.5578947,23.8821053 60.9684211,24.6568421 60.6315789,25.2631579 C60.4126316,25.5831579 59.9073684,26.5263158 59.6715789,26.7115789 C59.4021053,26.2063158 59.7389474,25.7347368 60.0084211,25.3136842 C60.6147368,24.5389474 61.0357895,24.0673684 61.3894737,23.1578947 Z" fill="#FFFFFF"></path>
                    <path d="M56,23.6631579 C56.0842105,23.9663158 55.7473684,23.9663158 55.68,24.2526316 C55.6968421,25.1621053 54.6694737,25.4652632 54.6694737,26.3578947 C54.3326316,26.4589474 54.4168421,25.9536842 54.4336842,25.7684211 C54.7031579,24.9768421 55.4105263,24.2526316 56,23.6631579 Z" fill="#FFFFFF"></path>
                    <path d="M57.0105263,24.5052632 C57.0947368,24.6231579 57.1115789,24.7747368 57.1115789,24.9263158 C56.8084211,25.9705263 56.0336842,26.88 55.3263158,27.6884211 C55.1578947,27.8568421 54.8884211,28.1936842 54.6526316,28.2273684 C54.6357895,28.0926316 54.6863158,27.9578947 54.8042105,27.8231579 C55.5789474,26.7452632 56.4378947,25.7347368 57.0105263,24.5052632 Z" fill="#FFFFFF"></path>
                    <path d="M83.8568421,25.8189474 C86.6863158,26.1221053 89.6842105,27.8905263 90.7284211,30.6526316 C90.7621053,30.9221053 90.9978947,31.1915789 90.88,31.4610526 C90.6442105,31.68 90.3915789,31.6463158 90.1052632,31.7305263 C88.1347368,32.0505263 86.2315789,31.6968421 84.48,30.72 C82.6610526,29.8273684 81.0273684,28.2442105 79.4442105,26.9978947 C79.2084211,26.8294737 79.4778947,26.6610526 79.6463158,26.5936842 C80.4042105,26.1894737 81.2463158,25.92 82.0884211,25.8694737 C82.6442105,25.7010526 83.3178947,25.7515789 83.8568421,25.8189474 Z" fill="#362061"></path>
                    <path d="M24.0168421,26.5263158 C24.6231579,26.7452632 25.2126316,26.8968421 25.8694737,26.8631579 C25.9368421,27.0315789 25.9536842,27.2336842 25.8863158,27.4526316 C25.6505263,28.1768421 25.4989474,29.0526316 25.3642105,29.8105263 C24.9768421,31.9663158 24.7242105,34.3242105 25.3473684,36.48 C25.4652632,36.5305263 25.5663158,36.5136842 25.6505263,36.4294737 C26.1052632,36.2105263 26.4926316,35.7726316 26.7621053,35.3515789 C27.8063158,33.6842105 27.9242105,31.4778947 29.0694737,29.8778947 C29.2547368,29.6757895 29.3557895,29.4736842 29.6757895,29.5073684 C30.4168421,29.4905263 30.5178947,30.5852632 31.36,30.5515789 C31.9326316,30.5684211 32.0168421,30.1642105 32.3368421,29.7936842 C33.0778947,28.7663158 33.7347368,27.5705263 34.6105263,26.6442105 C34.8126316,26.4084211 35.0484211,26.3915789 35.3347368,26.5094737 C35.6715789,26.8968421 35.4189474,27.5705263 35.9073684,27.7894737 C36.3957895,27.8231579 36.9515789,27.6042105 37.4231579,27.4863158 C38.2821053,27.2842105 39.2252632,27.0147368 40.0505263,26.8463158 C40.1515789,27.0821053 40.0505263,27.2336842 39.9157895,27.4357895 C39.4778947,28.2105263 38.7873684,28.6484211 38.0463158,29.0694737 C37.1873684,29.4905263 36.3452632,29.8947368 35.5705263,30.4505263 C35.2673684,30.6021053 34.9978947,30.5010526 34.8294737,30.2484211 C34.7957895,30.0294737 34.8968421,29.6421053 34.5768421,29.6084211 C33.5494737,29.8778947 32.9263158,30.7031579 32.4884211,31.6126316 C32.1178947,32.3368421 31.8989474,33.1115789 31.4947368,33.8021053 C30.9726316,33.8863158 30.4842105,33.0105263 30.2652632,32.64 C30.0968421,32.4042105 29.9115789,31.8315789 29.5410526,32.0505263 C28.4968421,32.7073684 28.0589474,34.0210526 27.7726316,35.1494737 C27.4189474,36.3621053 27.3010526,37.7094737 26.7789474,38.8715789 L26.6778947,38.9052632 C25.7178947,38.7536842 24.8926316,37.8947368 24.5726316,36.9852632 C24.0842105,35.7557895 24.1684211,34.3242105 24.2021053,33.0105263 C24.32,32.5221053 24.2357895,32 24.2694737,31.4947368 C24.32,30.4505263 24.3031579,29.4063158 24.2526316,28.3621053 C24.1178947,27.9242105 24.0505263,27.4357895 23.9326316,26.9810526 C23.7642105,26.8126316 23.6968421,26.4252632 24.0168421,26.5263158 Z" fill="#FECC06"></path>
                    <path d="M40.1852632,31.04 C40.5557895,32.0505263 41.6505263,32.1010526 42.0547368,33.0105263 C42.1221053,33.2294737 42.24,33.6168421 42.0715789,33.8021053 C41.7852632,33.8021053 41.4484211,33.6673684 41.1789474,33.6 C39.9663158,33.2968421 38.5852632,33.1957895 37.3726316,33.5326316 C35.5705263,34.0042105 34.1894737,35.2168421 33.1452632,36.7326316 C31.7642105,38.6694737 30.9052632,41.0610526 30.1473684,43.3010526 C30.0631579,43.7221053 29.76,44.1431579 29.8610526,44.5810526 C29.9789474,44.5978947 30.0968421,44.5810526 30.2315789,44.5810526 C30.2315789,44.2947368 30.5852632,44.1263158 30.7368421,43.9073684 C31.36,43.3852632 31.6631579,42.5768421 32.2526316,42.0547368 C32.2863158,41.5494737 32.6905263,41.0778947 32.8757895,40.6231579 C33.0105263,40.2694737 33.2463158,40 33.3978947,39.6463158 C34.3242105,37.9621053 35.3347368,35.8736842 37.2210526,35.0821053 C38.4,34.6610526 40.2863158,34.8126316 40.8589474,36.1094737 C41.1957895,36.7157895 41.2294737,37.3557895 41.3305263,38.0126316 C41.4821053,38.4 41.3642105,38.8884211 41.5326316,39.2757895 C41.7178947,39.9157895 41.92,40.7915789 42.4589474,41.2463158 C42.6947368,41.3136842 42.88,41.0105263 43.0147368,40.8757895 C43.6547368,39.8652632 43.4189474,38.5515789 43.4189474,37.4063158 C43.4189474,36.8842105 43.0484211,36.0757895 43.3347368,35.6378947 C44.1768421,35.8568421 44.5305263,36.6147368 44.6147368,37.4063158 C44.9010526,38.4505263 44.6652632,39.5284211 44.8336842,40.5557895 C45.0357895,40.6736842 45.2547368,40.4884211 45.4568421,40.4378947 C46.5347368,39.9663158 47.4442105,39.0231579 48.5557895,38.6526316 C48.8252632,38.6021053 49.1115789,38.5178947 49.2631579,38.8210526 C49.4147368,40.5389474 49.8863158,42.1221053 50.4084211,43.7557895 C51.2842105,46.1978947 52.1768421,48.5894737 52.2442105,51.2168421 C52.2273684,51.5536842 52.3621053,52.0589474 52.1768421,52.3452632 C51.8568421,52.3621053 51.52,52.0926316 51.2,52.0252632 C49.0442105,51.2168421 46.72,51.2673684 44.5136842,51.7894737 C43.0315789,52.1263158 41.4652632,52.7326316 40.0673684,53.3557895 C38.9557895,53.9284211 37.6589474,54.4842105 36.5978947,55.1410526 C36.6484211,55.4273684 37.2884211,55.5789474 37.5578947,55.5621053 C38.6021053,55.6463158 39.6463158,55.3936842 40.6905263,55.4947368 C40.9263158,55.8652632 40.6231579,56.0673684 40.6568421,56.4210526 C40.1178947,61.5410526 41.4484211,66.1894737 41.28,71.2421053 C41.28,73.1621053 40.8926316,75.3684211 39.7136842,76.9347368 C38.8042105,78.1305263 37.5242105,78.8884211 36.0757895,79.2252632 C34.5263158,79.68 32.9768421,79.5789474 31.4610526,79.0736842 C30.7873684,78.8547368 30.1305263,78.8715789 29.4568421,78.7368421 C28.7831579,77.9284211 28.2610526,76.8168421 27.7052632,75.9242105 C26.56,73.92 25.4989474,71.9831579 23.9326316,70.2484211 C22.8715789,69.0863158 21.4568421,68.0421053 19.8905263,67.7389474 C18.2231579,67.4863158 16.64,67.7557895 15.1410526,68.5136842 C14.8715789,68.5978947 14.5347368,68.9178947 14.2484211,68.8336842 C14.0631579,68.3621053 13.9957895,67.8736842 13.8778947,67.3852632 C13.8105263,67.0821053 13.9115789,66.7115789 13.7768421,66.4421053 C12.6652632,67.0315789 12.4294737,68.48 12.2273684,69.6084211 C12.0926316,71.0905263 12.0421053,72.64 11.7557895,74.0884211 C11.6210526,74.4421053 11.5368421,75.1663158 11.1494737,75.3178947 C10.24,75.2505263 9.58315789,74.9810526 8.79157895,74.6105263 C7.12421053,73.8526316 5.69263158,72.4547368 4.73263158,70.9052632 C2.27368421,66.9810526 2.02105263,61.9452632 3.36842105,57.5831579 C3.41894737,57.3810526 3.57052632,57.1621053 3.72210526,57.4315789 C3.92421053,57.7515789 3.92421053,58.0884211 3.94105263,58.4421053 C3.95789474,59.7221053 3.85684211,61.0357895 3.95789474,62.3157895 C4.12631579,62.9389474 4.26105263,63.5957895 4.93473684,63.8484211 C5.45684211,64.0505263 5.74315789,63.4105263 5.77684211,62.9894737 C5.96210526,62.6021053 5.81052632,61.8105263 6.28210526,61.6084211 C7.05684211,61.5747368 6.93894737,63.1073684 7.88210526,62.9052632 C8.28631579,62.4505263 8.53894737,61.9115789 8.45473684,61.3052632 C8.21894737,60.0252632 7.32631579,58.9810526 6.82105263,57.7684211 C6.66947368,57.4652632 6.83789474,57.1957895 6.51789474,57.0105263 C6.51789474,56.6905263 6.46736842,56.5052632 6.09684211,56.5052632 C5.62526316,56.4884211 5.18736842,56.5221053 4.74947368,56.7073684 C4.56421053,56.7578947 4.41263158,56.7747368 4.26105263,56.7242105 C4.09263158,56.4042105 4.41263158,55.9494737 4.49684211,55.6463158 C4.96842105,55.3094737 5.38947368,54.72 5.92842105,54.5178947 C6.98947368,54.5010526 7.52842105,55.3263158 8.20210526,56 C8.38736842,56.1347368 8.67368421,56.4884211 8.92631579,56.3705263 C9.26315789,56 9.28,55.5452632 9.24631579,55.0568421 C9.11157895,54.3326316 8.57263158,53.8947368 8.23578947,53.2547368 C8.06736842,52.9515789 7.76421053,52.3789474 7.98315789,52.0589474 C8.33684211,51.7052632 8.90947368,51.4863158 9.33052632,51.2505263 C10.6947368,50.6947368 12.2105263,50.4421053 13.6757895,50.4421053 C14.72,50.4421053 15.7642105,50.4589474 16.7747368,50.7789474 C18.2063158,51.0989474 19.8231579,51.9242105 20.48,53.3221053 C20.5978947,53.4905263 20.6821053,53.8105263 20.4463158,53.9284211 C18.4589474,55.1578947 16.5557895,56.1178947 15.2084211,58.0884211 C15.0568421,58.3578947 14.7031579,58.7284211 14.7368421,59.0484211 C15.2421053,59.1157895 15.8652632,58.6273684 16.3705263,58.5431579 C18.4421053,57.4147368 20.6147368,55.9663158 22.9389474,55.4105263 C23.3094737,55.2084211 23.8147368,55.3263158 24.1852632,55.1410526 C25.4989474,55.1073684 26.6610526,55.0736842 27.9242105,55.4778947 C29.3557895,55.7810526 30.7031579,56.5389474 31.8821053,57.3810526 C33.8021053,58.8294737 35.52,60.8673684 36.9347368,62.8042105 C37.0357895,62.9389474 37.2042105,63.2757895 37.3726316,63.2757895 C37.5073684,62.9052632 37.3052632,62.3494737 37.2547368,61.9621053 C36.8,59.5536842 35.5536842,57.3305263 33.7347368,55.7136842 C30.8715789,53.2378947 27.1494737,52.5305263 23.4442105,52.7157895 C23.1915789,52.7157895 22.8715789,52.8336842 22.6863158,52.6315789 C22.7031579,51.9242105 22.8547368,51.1663158 23.0736842,50.5094737 C23.6631579,48.8926316 24.4715789,47.4105263 25.6,46.1305263 C25.7010526,45.6084211 25.3305263,45.0021053 25.3136842,44.4631579 C25.0442105,43.3010526 24.8421053,42.0042105 23.9326316,41.1284211 C23.1410526,40.4210526 22.08,40.4884211 21.1031579,40.6231579 C20.9515789,40.6736842 20.7831579,40.8252632 20.8505263,40.9936842 C21.1873684,41.2463158 21.5915789,41.3642105 21.8947368,41.6336842 C22.0968421,41.9536842 21.8442105,42.4252632 21.4568421,42.3747368 C20.9684211,42.3915789 20.4463158,42.4757895 20.0421053,42.1557895 C19.0315789,41.6673684 18.6778947,40.5726316 18.4926316,39.5621053 C18.3410526,38.0126316 18.6442105,36.3452632 19.4694737,35.0315789 C19.8568421,34.4084211 20.6147368,33.6168421 21.3726316,33.5831579 C22.6021053,37.2715789 25.0273684,39.9831579 25.8021053,43.9410526 C26.1052632,45.1536842 26.0547368,46.4842105 26.0715789,47.7305263 C26.8126316,47.8315789 27.5536842,47.6126316 27.9747368,46.9557895 C28.48,46.2315789 28.3621053,45.44 28.6147368,44.5978947 C28.6315789,43.6884211 28.5642105,42.7621053 28.7831579,41.8694737 C29.0526316,40.8084211 30.0631579,40.4884211 30.1810526,39.3768421 C30.2821053,38.9557895 29.9621053,38.3157895 30.3663158,38.0463158 C32.2357895,36.5136842 33.7684211,34.7115789 35.6547368,33.2126316 C36.8168421,32.3031579 38.0294737,31.5452632 39.4273684,31.0568421 C39.5957895,31.0063158 40,30.8715789 40.1852632,31.04 Z" fill="#FECC06"></path>
                    <path d="M44.0084211,31.2084211 C44.2778947,31.0568421 44.6484211,31.0905263 44.9347368,31.2084211 C45.7768421,31.6126316 46.1305263,32.5557895 46.4168421,33.3810526 C46.4842105,33.8526316 46.6694737,34.56 46.4842105,34.9978947 L46.3326316,34.9978947 C45.7094737,34.3915789 45.44,33.3810526 45.0357895,32.6231579 C44.7157895,31.9326316 44.4463158,31.7473684 44.0084211,31.2084211 Z" fill="#FECC06"></path>
                    <path d="M52.9178947,33.3473684 C53.1873684,33.1115789 53.6084211,33.5326316 53.5073684,33.8526316 C53.3389474,34.3073684 53.1536842,34.9642105 52.8,35.2842105 C52.2778947,35.1326316 52.7326316,34.3747368 52.5642105,34.0210526 C52.4463158,33.92 52.3957895,33.8189474 52.3957895,33.7178947 C52.5642105,33.5494737 52.8168421,33.5494737 52.9178947,33.3473684 Z" fill="#FFFFFF"></path>
                    <path d="M53.7936842,37.9789474 L53.8105263,37.9789474 C55.1242105,38.4842105 56.1515789,39.4610526 56.7073684,40.7578947 C57.5157895,42.7284211 57.5494737,45.0694737 57.28,47.1578947 C57.1621053,48.4715789 56.8252632,49.9031579 56.5052632,51.1663158 C56.4378947,51.2505263 56.32,51.7052632 56.5221053,51.6547368 C57.3473684,51.2505263 58.0547368,50.5768421 58.6273684,49.8863158 C59.2842105,49.0273684 59.6547368,48.0842105 60.0252632,47.0905263 C60.1431579,47.0568421 60.2610526,47.0568421 60.3789474,47.0905263 C60.7157895,47.4610526 60.6147368,48.0673684 60.5978947,48.5221053 C60.48,50.0884211 59.5873684,51.5368421 58.6273684,52.7326316 C57.7684211,53.7263158 56.7915789,54.7536842 55.5789474,55.2589474 C55.2252632,55.3431579 55.0231579,55.5789474 54.6526316,55.5115789 C53.8778947,54.6863158 53.9957895,53.5915789 54.5178947,52.6652632 C55.04,51.4357895 55.9157895,50.24 56,48.8757895 C56.3368421,47.0736842 56,45.0357895 55.5621053,43.3010526 C55.0905263,41.8189474 54.5515789,40.3536842 53.9621053,38.9052632 C53.8778947,38.6021053 53.6252632,38.2652632 53.7936842,37.9789474 Z" fill="#FECC06"></path>
                    <path d="M38.4673684,38.3326316 C39.7305263,39.7473684 40.6063158,41.5157895 40.4884211,43.4526316 C40.5052632,43.9242105 41.1284211,43.7894737 41.4484211,43.7894737 C42.2231579,43.5705263 43.0315789,43.0989474 43.8063158,42.8463158 C44.0421053,42.8126316 44.7326316,42.7115789 44.7494737,43.0652632 C43.6378947,43.8568421 42.4757895,44.5978947 41.4484211,45.4905263 C39.3936842,47.2084211 37.4905263,49.2631579 36.0084211,51.5031579 C35.8063158,51.7726316 35.7052632,51.7557895 35.3852632,51.6884211 C34.0210526,51.2 33.0778947,49.9536842 32.6063158,48.6231579 C32,46.8210526 32.0336842,44.9515789 32.4715789,43.1326316 C32.9431579,41.4147368 33.8694737,39.7473684 35.4526316,38.8378947 C36.2778947,38.3663158 37.5242105,38.0294737 38.4673684,38.3326316 Z" fill="#362061"></path>
                    <path d="M37.6926316,39.9663158 C37.7936842,40.1515789 37.5747368,40.3873684 37.5073684,40.5557895 C36.9347368,41.5494737 36.2273684,42.4589474 35.6884211,43.4526316 C35.0652632,44.5305263 34.6105263,45.7263158 34.6947368,46.9894737 C34.7284211,47.8484211 35.0989474,48.5389474 35.3178947,49.2968421 C35.2336842,49.2968421 35.1494737,49.2463158 35.0652632,49.1452632 C33.8021053,48.0168421 33.5663158,46.0463158 33.7515789,44.4631579 C33.92,43.2 34.3747368,41.92 35.1831579,40.9094737 C35.7894737,40.1852632 36.7326316,39.6968421 37.6926316,39.9663158 Z" fill="#FFFFFF"></path>
                    <path d="M64.6063158,47.2252632 C64.6905263,47.7136842 64.4715789,48.3705263 64.4042105,48.8757895 C64.2021053,50.56 63.9494737,52.0421053 63.7978947,53.7263158 C63.6463158,54.2989474 63.7305263,54.9052632 63.5789474,55.4778947 C63.4105263,56.9094737 63.2252632,58.5936842 62.9052632,59.9578947 C62.4842105,62.4336842 61.8610526,65.1115789 60.5810526,67.3010526 C60.3621053,67.6042105 60.2947368,67.4357895 60.0757895,67.2505263 C58.5431579,65.1789474 57.2631579,62.4 55.0905263,60.9178947 C53.9115789,60.0421053 52.5642105,59.7052632 51.1157895,59.5368421 C51.0821053,59.4189474 51.0989474,59.3178947 51.1831579,59.2505263 C51.8063158,58.4926316 52.6484211,57.9368421 53.5747368,57.6336842 C54.2821053,57.3642105 55.1747368,57.5326316 55.9326316,57.4821053 C57.0610526,57.8021053 58.0547368,58.0210526 59.1663158,58.5263158 C59.4526316,58.6273684 59.9242105,58.6947368 60.0589474,58.9978947 C60.1936842,59.7557895 60.2610526,60.5473684 60.48,61.2884211 C60.4968421,61.4231579 60.5978947,61.7936842 60.7831579,61.7431579 C61.12,61.5073684 61.3221053,60.9852632 61.4905263,60.6147368 C62.1305263,58.88 62.0968421,57.1789474 62.2989474,55.3936842 C62.3326316,54.7031579 62.2989474,54.0631579 62.4505263,53.3726316 C62.6189474,51.4694737 62.8884211,49.5326316 63.9326316,47.8989474 C64.1010526,47.7136842 64.3536842,47.3094737 64.6063158,47.2252632 Z" fill="#FECC06"></path>
                    <path d="M51.4694737,53.4736842 C51.7221053,54.0126316 51.4863158,54.8547368 51.3684211,55.4105263 C50.9810526,56.9263158 50.1221053,58.1894737 49.0105263,59.2842105 C47.0231579,61.1705263 44.7663158,62.2484211 42.4926316,63.7136842 C42.3915789,63.7978947 42.2905263,63.8147368 42.1726316,63.7642105 C41.8526316,62.8547368 42.0715789,61.76 42.0042105,60.7831579 C42.2063158,59.9915789 42.2905263,59.0315789 42.6105263,58.2568421 C43.2336842,56.4210526 44.6821053,54.8378947 46.4842105,54.0968421 C48.0336842,53.4568421 49.8189474,53.3052632 51.4694737,53.4736842 Z" fill="#FECC06"></path>
                    <path d="M26.6105263,56.4715789 C27.2505263,56.5052632 27.9747368,56.3873684 28.5305263,56.6736842 C29.3726316,56.8252632 30.1810526,57.2126316 30.8210526,57.7684211 C31.5115789,58.3242105 31.7473684,59.2673684 31.4442105,60.0926316 C31.0905263,60.2105263 30.5684211,59.84 30.2147368,59.7221053 C28.7831579,58.9978947 27.4021053,58.3915789 25.7684211,58.3915789 C25.0273684,58.4252632 24.2863158,58.5936842 23.5789474,58.7789474 C23.4105263,58.7789474 23.3431579,58.6778947 23.4105263,58.4421053 C23.8147368,57.0442105 25.28,56.5052632 26.6105263,56.4715789 Z" fill="#362061"></path>
                    <path d="M110.265263,59.0147368 C110.534737,59.3010526 110.618947,59.6547368 110.770526,59.9915789 C111.056842,61.5915789 110.349474,62.8547368 110.888421,64.4547368 C110.972632,64.4547368 111.056842,64.4210526 111.141053,64.3031579 C112.555789,62.7873684 112.926316,60.5473684 114.122105,59.0147368 C114.223158,59.3010526 114.206316,59.6547368 114.189474,59.9410526 C114.004211,61.3894737 113.751579,62.8042105 113.246316,64.1684211 C112.909474,65.3305263 112.404211,66.5936842 112.084211,67.7557895 C111.831579,68.6821053 111.848421,69.6084211 111.696842,70.5515789 C111.141053,76.5473684 111.68,82.8463158 114.543158,88.2357895 C116.597895,92.1936842 119.797895,95.4610526 123.301053,98.1894737 C125.406316,99.5536842 128.084211,100.244211 130.374737,101.338947 C131.52,101.877895 132.749474,102.602105 133.338947,103.781053 C134.4,105.953684 133.995789,108.867368 134.787368,111.141053 C135.477895,112.96 137.482105,114.273684 138.442105,115.856842 C138.543158,117.136842 138.475789,118.450526 138.391579,119.730526 C138.223158,120.404211 138.307368,121.077895 138.172632,121.751579 C138.088421,122.341053 138.172632,122.997895 138.071579,123.570526 C137.818947,123.823158 137.364211,123.907368 137.044211,124.025263 C134.534737,124.901053 131.856842,125.136842 129.195789,124.901053 C128.168421,124.715789 127.157895,124.530526 126.214737,124.042105 C125.911579,123.907368 126.029474,123.503158 126.096842,123.250526 C126.315789,122.138947 126.787368,120.858947 126.669474,119.730526 C126.618947,119.191579 126.265263,118.551579 125.658947,118.602105 C124.901053,119.225263 124.496842,120.404211 124.210526,121.313684 C123.806316,122.795789 123.553684,124.614737 123.048421,126.063158 C122.812632,126.787368 122.442105,127.578947 121.869474,128.084211 C121.128421,128.370526 120.404211,128.589474 119.595789,128.572632 C118.585263,128.522105 117.541053,128.151579 116.951579,127.309474 C116.850526,126.787368 116.951579,126.164211 117.035789,125.642105 C117.288421,123.738947 118.248421,122.172632 118.871579,120.404211 C119.427368,118.955789 119.461053,117.338947 118.635789,115.974737 C118.366316,115.755789 117.928421,115.957895 117.709474,116.176842 C117.136842,116.833684 117.221053,117.675789 117.136842,118.484211 C116.934737,118.972632 117.086316,119.427368 116.631579,119.831579 C116.345263,119.898947 116.227368,119.578947 115.941053,119.494737 C114.964211,118.602105 114.071579,117.911579 113.195789,116.884211 C110.703158,113.987368 108.951579,110.501053 108.362105,106.711579 C107.991579,105.077895 108.143158,103.141053 108.193684,101.456842 C108.429474,100.850526 108.378947,100.143158 108.581053,99.5368421 C108.850526,98.0378947 109.254737,96.6231579 109.692632,95.1747368 C109.776842,94.9221053 109.945263,94.7705263 109.911579,94.4842105 C110.181053,94.1305263 110.046316,93.6926316 110.248421,93.2715789 C110.585263,92.1936842 110.922105,91.0147368 111.174737,89.9368421 C111.242105,89.2463158 111.595789,88.7242105 111.410526,88 C110.585263,88.7578947 109.945263,89.8694737 109.355789,90.8294737 C107.587368,93.8778947 106.677895,97.6842105 105.818947,101.052632 C105.818947,101.355789 105.650526,101.591579 105.633684,101.894737 C105.566316,102.147368 105.6,102.568421 105.313684,102.652632 C101.962105,101.911579 98.5768421,100.901053 95.4947368,99.4021053 C90.7621053,97.2126316 86.6863158,93.9621053 83.1831579,90.1052632 C80.9768421,87.5789474 79.4105263,84.5305263 76.6315789,82.5263158 C75.5536842,81.7178947 74.2568421,81.1284211 72.96,80.7915789 C72.8084211,80.5389474 73.1452632,80.4884211 73.3136842,80.4042105 C73.9031579,80.2694737 74.7115789,80.5389474 75.2842105,80.32 L75.3347368,80.1515789 C75.1663158,79.7136842 75.0315789,79.2757895 74.8968421,78.8210526 C74.6610526,77.9452632 74.4421053,76.8 73.7178947,76.1768421 C73.2968421,75.8905263 72.8421053,76.3115789 72.6736842,76.6821053 C72.5389474,77.3726316 72.7747368,78.1305263 72.6063158,78.8042105 C72.4378947,79.2757895 71.8147368,79.4442105 71.4105263,79.1747368 C70.9052632,78.8547368 70.6357895,78.1810526 70.5178947,77.6252632 C70.6021053,77.2547368 71.2084211,77.5073684 71.4442105,77.3221053 C72.5389474,76.8842105 73.1621053,75.7389474 73.1957895,74.5936842 C73.2463158,73.2968421 72.4547368,71.9663158 71.8147368,70.8884211 C70.8042105,69.2547368 69.6084211,67.6210526 68.9852632,65.7852632 C68.6315789,64.5894737 68.3957895,63.2421053 68.8336842,62.0294737 C69.0863158,62.1473684 69.0694737,62.4673684 69.2042105,62.6863158 C69.6926316,63.8484211 69.9115789,64.9936842 70.5010526,66.1221053 C70.6021053,66.24 70.72,66.5094737 70.9052632,66.4757895 C71.5115789,65.7684211 71.5284211,64.5221053 71.7305263,63.6463158 C71.7473684,62.6694737 71.8315789,61.7263158 72.0168421,60.7831579 C72.2021053,60.3115789 72.0842105,60.2610526 72.4042105,59.84 C72.5052632,60.1263158 72.4715789,60.48 72.4715789,60.7831579 C72.4042105,62.0294737 72.4715789,63.2421053 72.5052632,64.4884211 C72.7915789,67.0484211 73.2968421,69.76 74.56,72.0336842 C75.1326316,73.0273684 75.9410526,73.9873684 77.0357895,74.4252632 C77.3557895,74.4926316 77.5578947,74.7452632 77.8778947,74.6947368 C78.2147368,74.7621053 78.72,74.6105263 78.9726316,74.8463158 C79.4105263,76.4631579 79.7473684,78.2989474 80.6736842,79.7136842 C80.8589474,79.9663158 81.0273684,80.1347368 81.3473684,79.9326316 C82.0210526,79.4778947 81.92,78.5515789 82.0715789,77.8105263 C82.1052632,77.5915789 82.0715789,76.8505263 82.4084211,76.8505263 C83.0147368,77.3726316 83.3852632,78.1473684 83.7389474,78.8378947 C84.5810526,80.4210526 85.2884211,82.6610526 86.72,83.8063158 C87.4947368,83.6042105 88.1178947,82.3578947 87.3936842,81.7852632 C87.4105263,81.7347368 87.4778947,81.6673684 87.5621053,81.6 C87.7305263,81.8694737 88.1684211,82.1726316 88.5052632,82.0547368 C89.0610526,81.8021053 89.2126316,80.9094737 89.8526316,80.7915789 C90.0378947,80.7410526 90.2063158,80.7578947 90.3242105,80.8421053 C90.5263158,81.2294737 90.2905263,81.6505263 90.56,82.0210526 C90.56,82.6105263 90.7621053,83.0484211 90.9473684,83.6042105 C91.1494737,84.3789474 91.6210526,85.1536842 92.2610526,85.6589474 C92.5978947,85.8947368 93.12,85.3894737 93.3052632,85.1368421 C93.8442105,84.1768421 93.4568421,83.0484211 94.1305263,82.0884211 C95.5115789,82.9473684 95.2084211,84.4294737 96.2863158,85.4905263 C96.8084211,86.0631579 97.9873684,85.6926316 97.9536842,84.8673684 C98.0378947,84.2442105 97.6842105,83.6715789 97.8357895,83.0989474 C98.6778947,83.0989474 99.0989474,82.5768421 99.4863158,81.8863158 C99.6547368,81.8526316 99.7894737,82.1389474 99.8736842,82.24 C100.345263,83.0147368 100.581053,83.8063158 101.086316,84.5305263 C101.322105,84.9178947 101.692632,85.2547368 102.130526,85.3894737 C102.652632,85.2547368 102.804211,84.3115789 102.821053,83.8568421 C102.989474,83.0652632 102.821053,82.2231579 103.107368,81.4989474 C103.157895,81.2463158 103.309474,80.7747368 103.646316,80.8084211 C104.404211,80.9768421 105.094737,81.5157895 105.212632,82.3242105 C105.414737,83.2842105 105.212632,84.5136842 105.263158,85.5410526 C105.347368,85.9621053 105.936842,85.7094737 106.172632,85.5578947 C106.56,85.3726316 106.442105,84.9852632 106.762105,84.8 C106.812632,84.3452632 106.930526,83.9073684 106.913684,83.4357895 C107.082105,83.1831579 107.048421,82.8294737 107.216842,82.56 C107.503158,82.4421053 107.856842,82.6610526 108.193684,82.5768421 C108.833684,82.5431579 109.305263,81.7852632 109.743158,81.3810526 C110.130526,80.9431579 110.618947,80.6568421 111.174737,80.4378947 C111.225263,80.32 111.225263,80.1852632 111.174737,80.0336842 C110.332632,76.4631579 110.871579,73.0442105 110.147368,69.5073684 C109.911579,68.5978947 109.608421,67.5031579 108.968421,66.7789474 C108.850526,65.6673684 108.934737,64.5052632 108.968421,63.3768421 C109.136842,62.8210526 109.035789,62.1642105 109.221053,61.6252632 C109.322105,61.0694737 109.490526,60.5642105 109.642105,60.0084211 C109.726316,59.7726316 109.894737,59.0315789 110.265263,59.0147368 Z" fill="#FECC06"></path>
                    <path d="M29.0189474,60.3957895 C29.5578947,60.5810526 29.6757895,61.0526316 29.9115789,61.5242105 C30.3157895,62.6863158 30.3494737,64.1178947 29.6421053,65.1789474 C29.3052632,65.7010526 28.7494737,66.1557895 28.1263158,66.24 C27.8568421,66.1389474 27.7726316,65.6673684 27.7052632,65.4147368 C27.5368421,64.9936842 27.5873684,64.2189474 27.2,63.9157895 C26.56,63.8147368 25.9536842,63.8652632 25.3642105,64.1010526 C24.3536842,64.5389474 23.8147368,65.5157895 22.7368421,65.8357895 C22.4168421,65.8863158 22.0631579,66.0547368 21.76,65.9705263 C21.5578947,65.7010526 21.8273684,65.1789474 21.7936842,64.8589474 C22.2147368,63.2926316 23.04,61.7768421 24.4210526,60.8505263 C25.7010526,59.8736842 27.5873684,59.84 29.0189474,60.3957895 Z" fill="#362061"></path>
                    <path d="M21.4736842,70.1473684 C22.3157895,70.9726316 22.9389474,71.9326316 23.5284211,72.9431579 C24.8589474,75.3684211 25.8189474,78.1810526 27.2336842,80.5389474 C27.4021053,80.8252632 27.0315789,80.96 26.8463158,81.0778947 C25.5326316,81.8189474 24,82.0547368 22.5347368,81.5663158 C20.2947368,80.9263158 18.4757895,79.1410526 17.2968421,77.1705263 C16.9263158,77.0357895 16.5894737,77.6757895 16.6231579,77.9789474 C16.6568421,78.8042105 17.3136842,79.5284211 17.5157895,80.3368421 C17.5326316,80.5557895 17.6673684,80.9936842 17.3473684,81.0442105 C15.9326316,80.8252632 14.6863158,79.8147368 14.1305263,78.4842105 C13.4231579,76.9178947 13.5073684,74.9978947 14.0968421,73.4315789 C14.6863158,71.8989474 15.7305263,70.6021053 17.28,69.9957895 C18.6442105,69.4568421 20.16,69.7431579 21.4736842,70.1473684 Z" fill="#FECC06"></path>
                    <path d="M190.08,96.4042105 C190.248421,96.6736842 190.181053,96.9936842 190.063158,97.2631579 C189.709474,97.7684211 189.271579,98.1726316 189.018947,98.7115789 C188.884211,99.0315789 189.12,99.3684211 189.473684,99.3010526 C189.945263,99.1663158 190.4,98.4084211 190.905263,98.4252632 C191.090526,99.2336842 190.467368,99.9410526 190.265263,100.682105 C189.574737,101.995789 188.698947,103.073684 188.176842,104.421053 C188.042105,104.623158 187.974737,104.757895 188.025263,105.010526 C188.311579,105.094737 188.581053,105.027368 188.884211,105.010526 C189.018947,104.757895 189.187368,104.842105 189.423158,104.690526 C190.08,104.202105 190.501053,103.477895 191.141053,103.023158 C191.376842,102.871579 191.646316,102.686316 191.932632,102.804211 C191.966316,103.023158 191.831579,103.124211 191.764211,103.343158 C191.461053,104.101053 191.006316,104.808421 190.484211,105.431579 C189.305263,106.913684 187.334737,108.210526 186.357895,109.743158 C186.711579,110.012632 187.166316,110.046316 187.570526,109.911579 C188.412632,109.642105 189.052632,108.917895 189.810526,108.48 C190.113684,108.328421 190.551579,108.025263 190.905263,108.193684 C189.507368,110.4 187.351579,112.269474 185.852632,114.458947 C184.943158,115.705263 184.286316,117.069474 183.949474,118.568421 C183.831579,119.730526 183.831579,120.943158 184.32,122.021053 C184.471579,122.644211 184.791579,123.216842 185.111579,123.772632 C185.28,124.075789 185.583158,123.941053 185.903158,124.126316 C186.694737,124.345263 187.385263,124.749474 188.193684,124.901053 C188.597895,125.086316 189.12,124.934737 189.541053,125.069474 C189.254737,126.012632 188.126316,126.282105 187.267368,126.164211 C185.566316,125.928421 183.915789,124.968421 182.551579,123.957895 C181.136842,122.913684 180.378947,121.28 180.025263,119.612632 C179.671579,117.692632 179.772632,115.621053 180.193684,113.717895 C180.261053,113.061053 180.564211,112.421053 180.614737,111.781053 C180.8,111.545263 180.833684,111.309474 180.917895,111.04 C181.288421,109.827368 181.76,108.749474 182.332632,107.604211 C183.275789,105.751579 184.353684,104 185.903158,102.585263 C186.122105,102.383158 186.307368,102.315789 186.526316,102.012632 C186.122105,102.029474 185.6,101.894737 185.263158,102.130526 C184.202105,102.484211 183.444211,103.275789 182.753684,104.117895 C182.046316,104.909474 181.338947,105.768421 180.496842,106.408421 C180.058947,106.677895 179.452632,107.082105 178.930526,107.082105 C178.694737,106.206316 178.997895,105.077895 179.317895,104.235789 C180.126316,102.298947 181.844211,100.985263 183.595789,99.9410526 C185.532632,98.7789474 187.621053,97.8863158 189.541053,96.6063158 C189.726316,96.4715789 189.844211,96.3031579 190.08,96.4042105 Z" fill="#FECC06"></path>
                    <path d="M152.336842,120.336842 C152.488421,120.606316 152.572632,120.875789 152.673684,121.162105 C153.094737,122.711579 152.286316,124.429474 150.804211,125.052632 C150.534737,125.237895 150.248421,125.170526 149.978947,125.406316 C149.524211,125.423158 149.069474,125.423158 148.614737,125.406316 C148.092632,125.002105 147.604211,124.513684 147.637895,123.806316 C147.705263,123.098947 148.227368,122.458947 148.749474,122.004211 C149.456842,121.431579 150.231579,120.993684 151.056842,120.623158 C151.444211,120.538947 151.966316,120.185263 152.336842,120.336842 Z" fill="#FECC06"></path>
                    <path d="M61.3726316,123.688421 C61.7431579,123.570526 62.0631579,123.823158 62.4842105,123.84 C64.1010526,124.210526 66.0547368,124.715789 67.3010526,125.877895 C67.3852632,126.197895 66.9810526,126.282105 66.7957895,126.4 C65.5157895,126.837895 64.0168421,126.753684 62.7873684,126.197895 C61.8273684,125.726316 61.0694737,124.8 61.3726316,123.688421 Z" fill="#FECC06"></path>
                    <path d="M103.376842,124.008421 C103.696842,124.749474 102.989474,125.086316 103.023158,125.945263 C102.618947,126.096842 101.962105,126.063158 101.625263,125.743158 C101.322105,125.355789 101.305263,124.8 101.44,124.345263 C101.844211,123.823158 102.821053,123.941053 103.376842,124.008421 Z" fill="#FECC06"></path>
                    <path d="M169.381053,125.355789 C169.684211,126.585263 169.212632,128 168.084211,128.64 C166.871579,128.842105 165.810526,128.117895 165.423158,126.972632 C165.44,126.534737 165.793684,126.096842 166.147368,125.877895 C166.871579,125.490526 167.781053,125.423158 168.589474,125.389474 C168.892632,125.44 169.077895,125.254737 169.381053,125.355789 Z" fill="#FECC06"></path>
                    <path d="M55.3263158,126.063158 C56,125.894737 56.4884211,126.164211 57.0947368,126.214737 C59.1157895,126.652632 60.7326316,127.578947 62.6694737,128.117895 C63.04,128.218947 63.4105263,128.252632 63.7642105,128.421053 C63.8315789,129.077895 63.6631579,129.903158 63.8484211,130.526316 L64.0168421,130.576842 C65.0778947,130.088421 66.2231579,129.566316 67.3684211,129.296842 C68.7831579,128.892632 70.2821053,128.858947 71.5115789,129.785263 C71.8315789,129.953684 71.8652632,130.206316 71.7978947,130.543158 C71.7305263,131.216842 71.0231579,131.621053 70.4336842,131.755789 C69.8273684,131.991579 69.1031579,132.008421 68.5810526,132.362105 C68.4294737,132.48 68.16,132.631579 68.2778947,132.867368 C68.8336842,133.355789 69.5578947,133.490526 70.2652632,133.608421 C70.8378947,133.793684 71.5115789,133.642105 72.0842105,133.793684 C72.2863158,134.164211 72.0505263,134.804211 71.6631579,134.989474 C71.3263158,135.292632 70.72,135.309474 70.5684211,135.781053 C70.6863158,136.303158 71.2926316,136.757895 71.6968421,137.044211 C71.2421053,137.347368 70.7705263,137.263158 70.2652632,137.414737 C67.7389474,137.650526 65.2294737,137.583158 62.8547368,136.656842 C60.9178947,135.882105 59.0989474,134.770526 57.8189474,133.086316 C56.7410526,131.806316 56.0336842,130.155789 55.6294737,128.538947 C55.5115789,127.646316 55.2084211,126.938947 55.3263158,126.063158 Z" fill="#FECC06"></path>
                    <path d="M108.412632,126.686316 C108.547368,127.107368 108.277895,127.595789 108.227368,128 C108.042105,128.791579 107.789474,129.616842 107.469474,130.357895 C106.812632,132.008421 105.566316,133.473684 104,134.315789 C103.797895,134.433684 103.646316,134.231579 103.629474,134.063158 C103.595789,133.355789 103.612632,132.682105 103.831579,132.008421 C104.117895,130.644211 104.404211,129.465263 104.134737,128.067368 C104.909474,127.730526 105.583158,127.275789 106.324211,126.905263 C106.964211,126.602105 107.772632,126.501053 108.412632,126.686316 Z" fill="#FECC06"></path>
                    <path d="M176.454737,128.724211 C176.505263,129.717895 176.168421,130.795789 175.915789,131.772632 C175.393684,133.76 174.298947,135.528421 172.8,136.926316 C172.395789,137.229474 172.025263,137.701053 171.536842,137.852632 C171.385263,138.189474 171.065263,138.071579 170.863158,138.357895 C168.623158,139.705263 165.776842,140.261053 163.2,140.412632 C162.627368,140.463158 161.970526,140.530526 161.414737,140.429474 C161.313684,139.957895 161.6,139.334737 161.802105,138.913684 C162.357895,137.852632 163.418947,137.212632 163.974737,136.185263 C164.261053,136.033684 164.648421,136.151579 164.901053,136.32 C165.574737,136.606316 165.945263,137.178947 166.282105,137.802105 C166.315789,137.92 166.4,137.970526 166.551579,137.936842 C167.292632,137.178947 167.225263,135.865263 166.905263,134.938947 C166.568421,133.894737 166.096842,133.002105 165.861053,131.924211 C165.776842,131.688421 165.709474,131.351579 165.810526,131.115789 C166.618947,130.930526 167.427368,131.115789 168.101053,131.587368 C168.202105,131.722105 168.505263,131.722105 168.623158,131.604211 C170.408421,130.037895 172.648421,129.077895 175.023158,128.842105 C175.444211,128.757895 176,128.606316 176.454737,128.724211 Z" fill="#FECC06"></path>
                    <path d="M118.298947,132.109474 C118.686316,132.008421 119.191579,132.143158 119.578947,132.210526 C120.926316,132.294737 122.071579,132.496842 123.452632,132.463158 C125.069474,132.682105 126.955789,132.496842 128.606316,132.463158 C128.724211,132.749474 128.522105,132.968421 128.454737,133.237895 C128.084211,134.063158 127.376842,134.770526 126.568421,135.191579 C125.793684,135.494737 125.12,135.848421 124.277895,135.898947 C122.627368,136.101053 120.976842,135.882105 119.612632,134.888421 C118.854737,134.248421 118.181053,133.103158 118.298947,132.109474 Z" fill="#FECC06"></path>
                    <path d="M130.391579,133.776842 C130.778947,133.709474 131.604211,133.692632 131.991579,133.776842 C132.042105,133.911579 132.042105,134.046316 131.974737,134.214737 C131.722105,135.393684 131.233684,136.707368 131.048421,137.936842 C130.997895,138.846316 130.896842,139.941053 131.402105,140.749474 C131.941053,140.901053 132.463158,140.176842 132.648421,139.772632 C132.867368,139.183158 133.322105,138.408421 134.046316,138.442105 C134.551579,138.341053 134.854737,138.863158 135.141053,139.2 C135.376842,139.469474 135.376842,139.84 135.629474,140.058947 C136.067368,140.934737 136.370526,141.76 137.162105,142.4 C137.448421,142.602105 137.616842,142.854737 138.004211,142.753684 C138.728421,142.315789 138.273684,141.204211 138.475789,140.530526 C139.334737,140.328421 140.345263,140.917895 140.901053,141.524211 C141.136842,141.776842 141.625263,142.147368 141.726316,142.450526 C141.322105,143.006316 140.581053,143.376842 140.025263,143.764211 C136.909474,145.465263 133.002105,145.987368 129.482105,145.785263 C128.926316,145.650526 128.286316,145.633684 127.696842,145.6 C127.36,145.431579 126.888421,145.448421 126.517895,145.431579 C126.265263,145.246316 125.911579,145.178947 125.591579,145.145263 C123.503158,144.606316 121.313684,143.764211 119.612632,142.383158 C118.315789,141.406316 117.271579,140.109474 116.901053,138.509474 C117.709474,138.24 118.703158,138.341053 119.511579,138.155789 C121.162105,138.021053 122.930526,137.633684 124.530526,137.195789 C126.08,136.741053 127.511579,136.067368 128.842105,135.124211 C129.465263,134.787368 129.92,134.214737 130.391579,133.776842 Z" fill="#FECC06"></path>
                    <path d="M101.473684,134.130526 C101.945263,133.928421 102.332632,134.197895 102.703158,134.433684 C102.938947,134.854737 102.72,135.562105 102.231579,135.696842 C101.995789,135.764211 101.692632,135.781053 101.456842,135.68 C101.389474,135.242105 101.389474,134.568421 101.473684,134.130526 Z" fill="#FECC06"></path>
                </g>
            </g>
        </g>
    </g>
</svg>