<?xml version="1.0" encoding="UTF-8"?>
<svg width="200px" height="200px" viewBox="0 0 200 200" version="1.1" xmlns="http://www.w3.org/2000/svg" xmlns:xlink="http://www.w3.org/1999/xlink">
    <!-- Generator: Sketch 51.3 (57544) - http://www.bohemiancoding.com/sketch -->
    <title>wingate</title>
    <desc>Created with Sketch.</desc>
    <defs></defs>
    <g id="wingate" stroke="none" stroke-width="1" fill="none" fill-rule="evenodd">
        <g id="wingate_BGL" transform="translate(0.000000, 55.721393)">
            <g id="wingate">
                <g id="g10" transform="translate(100.000000, 46.409091) scale(-1, 1) rotate(-180.000000) translate(-100.000000, -46.409091) translate(0.000000, 0.909091)" fill-rule="nonzero">
                    <g id="g12">
                        <path d="M94.9258562,81.2775737 C106.518381,81.2775737 117.724037,81.2775737 117.724037,81.2775737 C117.972724,81.279998 118.268684,81.2389879 118.406664,81.1640384 C118.442219,81.080402 118.394947,80.9769677 118.276563,80.8640384 C117.901613,80.610099 117.78727,80.5894929 117.676765,80.5626242 C116.796967,80.4159576 115.995957,80.1555536 115.376361,79.5682808 C114.650502,78.7113112 114.480805,77.9814122 114.338785,77.4723213 C114.102017,76.6224223 113.983634,75.7442405 113.983634,74.8658567 C113.983634,73.8107052 114.054543,67.8741397 114.15333,60.8884833 C114.247876,53.9086855 114.362421,45.8632312 114.437371,40.5523222 C114.449088,39.9383828 114.457169,39.3662616 114.461007,38.839999 L114.488684,35.528686 L115.719795,38.4533324 C115.909088,38.9070697 116.126058,39.4072717 116.358987,39.9541404 C116.591714,40.5042414 116.84424,41.0945444 117.112522,41.7337363 C118.347472,44.6402009 119.925856,48.3561604 121.575148,52.2759583 C124.877775,60.1088874 128.476158,68.7941397 130.20828,73.4832305 C130.531916,74.3733315 130.985653,75.369291 131.210502,76.4945435 C131.250098,76.7163617 131.265855,76.9303011 131.265855,77.1464627 C131.257977,77.7375738 131.159189,78.3545435 130.883027,78.910099 C130.71737,79.2046445 130.251714,80.0181798 129.486259,80.5430283 C129.348078,80.6337354 129.233734,80.7157556 129.143027,80.7868667 C129.082556,80.8346781 129.001007,80.9169677 128.898381,81.0337353 C128.957573,81.2389879 129.068078,81.2783818 129.277168,81.2775737 C130.251714,81.2775737 154.892723,81.2775737 154.892723,81.2775737 C155.220198,81.280806 155.468683,81.2096949 155.547673,81.1458566 C155.614744,81.0614121 155.634542,81.0084828 155.63838,80.8696949 C155.583228,80.749695 155.358178,80.5555535 155.070299,80.4325232 C154.48242,80.1759576 153.886461,79.9030283 153.377572,79.2818162 C152.706663,78.3254526 152.339794,77.3626243 152.331915,76.3123213 L152.339794,76.0377759 C152.371309,75.7741395 152.383229,75.6628264 152.403026,75.5137355 C152.430501,75.2557557 152.477976,74.9274729 152.529289,74.5305032 C152.635754,73.7476749 152.781814,72.6808063 152.959188,71.3999982 C153.227673,69.4846447 153.563026,67.0991902 153.941814,64.4585842 C154.064037,63.5771701 154.19434,62.6688873 154.328481,61.7399985 C154.592723,59.8878773 154.865047,57.954544 155.145249,56.0068673 C155.977774,50.1696957 156.837976,44.2076757 157.45737,39.8856556 C157.544238,39.2975748 157.627067,38.7365647 157.694137,38.2141405 L158.068885,35.5783829 L158.960602,38.0050496 C159.015956,38.1533324 159.078986,38.3222213 159.138178,38.5022213 C159.868279,40.5010091 160.842824,43.160605 161.927875,46.1292918 C164.102016,52.0644431 166.725854,59.2494935 168.765854,64.9092913 C170.115147,68.6828266 171.204238,71.7888871 171.705248,73.3632305 C171.772319,73.5739376 171.823632,73.7571699 171.871107,73.9038365 C171.910501,74.0474729 171.934137,74.1422204 171.957773,74.2345436 C172.151107,75.0260587 172.269491,75.8333314 172.297167,76.649291 C172.305046,76.7709072 172.309087,76.8963617 172.309087,77.028887 C172.305046,77.6034324 172.249895,78.2907051 171.926258,78.9377758 L171.76444,79.2179778 C171.436965,79.689897 171.050299,80.0016142 170.620198,80.2517152 C170.190097,80.4987859 169.720602,80.6692909 169.247066,80.710301 C168.955147,80.7363616 168.79737,80.850705 168.714541,80.9389879 C168.702622,81.1553515 168.79737,81.2113111 168.951309,81.2113111 L183.376763,81.2113111 L196.492318,81.2113111 C196.53178,81.2113111 196.590972,81.0548128 196.669894,80.7418162 C196.145046,80.5634323 195.742621,80.4521192 195.229692,80.2036344 C194.712722,79.9541394 194.065652,79.559594 193.339591,78.9212101 C193.087066,78.6765637 192.747874,78.2741395 192.325652,77.7335334 C191.907268,77.1787859 191.422015,76.4898971 190.921005,75.7024223 C189.922622,74.1232305 188.865248,72.1307053 188.127268,70.0040387 C187.780197,68.9907053 186.509692,65.5357559 184.734137,60.725251 C184.481612,60.0371702 184.217167,59.3222207 183.944844,58.5818167 C183.396561,57.1054531 182.812521,55.5311097 182.201006,53.8872714 C180.370097,48.952726 178.302622,43.3854535 176.254743,37.8969687 C173.536157,30.577575 170.864844,23.3995954 168.872319,18.0516157 C167.870097,15.3779996 167.04545,13.1612926 166.469289,11.6106462 C165.893329,10.0639189 165.561814,9.18401997 165.561814,9.18401997 C165.467269,8.92361594 165.265854,8.66082807 164.970097,8.46353514 C164.674137,8.26389878 164.291309,8.1399998 163.881006,8.1399998 L142.230906,8.1399998 C141.840198,8.1399998 141.47333,8.25442404 141.181411,8.43591898 C140.889289,8.61743413 140.680199,8.86599978 140.573734,9.11222199 C140.498784,9.27872704 140.471108,9.42866643 140.471108,9.57464623 C140.471108,9.86979773 140.585451,10.2012321 140.909087,10.5153129 L141.201007,10.8506866 C141.295754,11.3123432 141.31939,11.5688078 141.31939,11.9515553 C141.31939,12.1780401 141.311512,12.4408078 141.283835,12.7446259 C141.264239,12.977434 141.212926,13.4824845 141.133936,14.2029693 C141.047269,14.9345047 140.932724,15.8877774 140.798582,17.0123026 C140.664441,18.1328884 140.510502,19.4231308 140.336966,20.8292924 C140.163431,22.2325247 139.977976,23.7531307 139.780603,25.3329287 C138.99939,31.6509083 138.087875,38.9361606 137.480199,43.7563625 C137.389492,44.4420191 137.310704,45.081211 137.239593,45.661211 L136.947673,47.9127261 L136.004643,45.9642413 C135.827067,45.5894938 135.625855,45.1822211 135.408683,44.7355544 C134.296158,42.4282818 132.784845,39.2975748 131.115754,35.838787 C127.785653,28.9117164 123.839997,20.6913126 121.208078,15.2185855 C120.336159,13.3941007 119.610098,11.8789492 119.097169,10.819131 C118.974947,10.5524038 118.860401,10.3164442 118.761815,10.1112725 C118.663229,9.90371692 118.580401,9.73248461 118.505452,9.58806037 C118.442219,9.4483836 118.387068,9.33949472 118.355351,9.26452502 C118.189694,8.91335331 117.976563,8.67266645 117.684644,8.4951109 C117.400603,8.32149474 117.033532,8.21496949 116.658785,8.21496949 L94.0783815,8.21496949 C93.8573714,8.21496949 93.6466643,8.25284828 93.453331,8.31359575 C93.2599977,8.37436343 93.08323,8.4651109 92.9300987,8.57401999 C92.7785835,8.68292908 92.6555532,8.80682806 92.5608058,8.93860584 C92.4644421,9.07276745 92.3973714,9.21165634 92.3595937,9.3473735 C92.3272704,9.45628259 92.3137351,9.55886845 92.3137351,9.65751491 C92.3145431,9.84454521 92.3618159,10.0339391 92.4763613,10.2391109 C92.5907048,10.4387674 92.7769674,10.6439391 93.0389876,10.8072927 C93.1763613,10.9122422 93.3246441,11.0464038 93.4808057,11.2673533 C93.6151492,11.4607068 93.7973714,11.7700401 93.9315128,12.2040805 C94.0601997,12.6065249 94.1430279,13.1273734 94.1563613,13.7586865 C93.4161593,12.4960603 92.3911088,11.2555149 91.0399977,10.136525 C91.0155533,9.97474723 90.9761593,9.82086844 90.9769674,9.65751491 C90.9761593,9.35684825 91.0195937,9.05775735 91.1048462,8.76735332 C91.2074725,8.41381797 91.3660583,8.10448465 91.5585836,7.83064627 C91.7614118,7.54656547 92.0020179,7.30191901 92.2694926,7.11016144 C92.7919169,6.73531296 93.4161593,6.53250489 94.0783815,6.53014125 L116.402219,6.53014125 C117.230906,6.53250489 117.783229,6.68640387 118.264644,6.97995942 C118.698785,7.24274729 119.065654,7.6349493 119.341815,8.12658566 C119.53131,8.46353514 120.671512,10.8309694 122.352522,14.3450097 C124.984239,19.8177167 128.929896,28.0406054 132.260199,34.9644436 C133.763431,38.0775748 135.136562,40.9210091 136.201815,43.1383828 C136.809492,38.3246455 137.701209,31.2420194 138.462825,25.0725246 C138.85333,21.9145449 139.208481,18.9946258 139.480805,16.7613733 C139.614946,15.6368279 139.725451,14.6843431 139.812118,13.9583431 C139.891108,13.253636 139.942421,12.7264845 139.954138,12.5931108 C139.977976,12.3279593 139.981815,12.1212118 139.981815,11.9515553 C139.457168,11.1521411 139.133532,10.3929896 139.133532,9.57464623 C139.133532,9.1343028 139.228279,8.69238362 139.405855,8.29387858 C139.674138,7.68624223 140.100199,7.23642406 140.585451,6.92630286 C141.078784,6.61931297 141.638986,6.45753519 142.230906,6.45753519 L163.628481,6.45753519 C164.5004,6.45753519 165.088481,6.63826246 165.59737,6.97442407 C166.098582,7.309818 166.528481,7.81014122 166.773127,8.46985837 C166.773127,8.46985837 172.024844,22.5472722 177.466056,37.1804031 C180.196561,44.501211 182.96242,51.9585846 185.152319,57.8709076 L184.548682,58.2268672 L185.160197,57.8717157 C187.346056,63.7981802 188.936157,68.1193922 189.354541,69.3309074 C190.025248,71.2696952 191.019591,73.1612103 191.96646,74.6519173 C192.439995,75.3945436 192.897773,76.0456547 193.280399,76.5585839 C193.663227,77.0470688 193.998581,77.4375738 194.120803,77.5551496 C194.389288,77.7905031 196.583025,79.4650485 196.602823,79.4688869 C196.98949,79.7963616 197.399793,80.1010081 197.822015,80.3866647 C197.944237,80.5444424 197.987672,80.6171697 198.034945,80.6785838 C198.117975,80.9012101 198.125854,81.0014121 198.125854,81.0929273 C198.125854,81.5018161 197.995551,81.9042404 197.802217,82.1717151 C197.608884,82.4416141 197.387874,82.5993919 197.174945,82.7090888 C196.740803,82.9181797 196.322621,82.9577757 195.998985,82.9624222 L174.802622,82.9624222 C174.808009,82.9482808 172.857571,82.9267319 168.951309,82.8977757 C168.544844,82.8961595 168.162016,82.7500989 167.854339,82.4581798 C167.54646,82.1717151 167.321612,81.7038363 167.297976,81.179796 C167.302016,80.010301 168.075349,79.1121192 169.156359,79.0284829 C169.420804,79.009695 169.764036,78.8913112 170.059996,78.71919 C170.355955,78.5519172 170.612319,78.3246445 170.711107,78.1731294 C170.916157,77.7856546 170.971511,77.4503011 170.971511,77.028887 L170.963632,76.7321193 C170.943834,76.069291 170.845248,75.3907052 170.67939,74.728483 C170.572925,74.3561598 170.521612,74.1832305 170.46242,73.988281 C169.985046,72.4771699 168.895955,69.3654528 167.542622,65.6020186 C165.514541,59.9519177 162.886663,52.7698977 160.712521,46.8347463 C159.947067,44.7379787 159.244845,42.8133323 158.637168,41.1482818 C157.808481,46.8892918 156.640602,55.0149481 155.64242,62.0383823 C155.113733,65.7505034 154.636158,69.1406043 154.277168,71.6935336 C154.095552,72.968685 153.953532,74.0325234 153.847067,74.8113113 C153.791915,75.2123214 153.752319,75.5319173 153.728683,75.7599981 L153.689289,76.0543415 C153.669491,76.8347456 153.870703,77.4486849 154.245653,77.9860587 C154.565249,78.3884829 154.944037,78.6008061 155.508279,78.8438364 C155.827875,78.9890889 156.14343,79.1729273 156.431511,79.4737354 C156.711713,79.7632303 156.975956,80.2549475 156.975956,80.8585838 C156.968077,81.2729273 156.901006,81.6232303 156.763026,81.9254525 C156.549895,82.3856545 156.202622,82.6634323 155.879188,82.7935333 C155.547673,82.9300989 155.212319,82.9591898 154.892723,82.9624222 C154.640198,82.9624222 131.763027,82.9624222 129.277168,82.9624222 C128.854946,82.9577757 128.460401,82.8828262 128.113128,82.5567656 C127.943431,82.3949474 127.81333,82.180402 127.730502,81.9593919 C127.647472,81.7377757 127.604239,81.5151495 127.580401,81.2941394 L127.560805,81.0282808 C127.560805,80.7670687 127.612118,80.4995939 127.702825,80.2777758 C127.841007,79.9391899 128.042219,79.710301 128.235552,79.5288869 C128.436764,79.3442404 128.641815,79.1989879 128.862825,79.0553516 C129.064037,78.9212101 129.300805,78.6656546 129.470502,78.4446445 C129.55333,78.3341395 129.624441,78.2323213 129.671714,78.1612102 C129.829492,77.9268667 129.936158,77.4771698 129.92828,77.1464627 C129.750704,76.0771698 129.356158,75.1539375 128.993128,74.1959577 C127.292522,69.5785841 123.690098,60.885453 120.391512,53.0650492 C118.746058,49.1484836 117.167674,45.4339383 115.932724,42.5244434 C115.869694,42.370504 115.814341,42.2428272 115.75131,42.0943424 C115.680199,47.3509079 115.577573,54.5612108 115.490906,60.9169682 C115.396159,67.8929276 115.321209,73.8525234 115.321209,74.8658567 C115.321209,75.5571698 115.411916,76.2436345 115.601411,76.9199981 C115.743431,77.4573718 115.869694,77.8654526 116.074745,78.1139374 C116.47333,78.5187859 117.124442,78.7824223 117.656967,78.8430283 C118.256765,78.9149475 118.750098,79.1824223 119.112926,79.5478768 C119.472118,79.9163616 119.716765,80.3630283 119.791714,80.8838364 L119.807472,81.1458566 C119.81131,81.5325232 119.696967,81.9270687 119.511512,82.1977757 C119.227472,82.610503 118.880199,82.7636343 118.572522,82.8559575 C118.264644,82.9426242 117.968684,82.9591898 117.724037,82.9624222 C117.467674,82.9624222 107.358785,82.9624222 96.4100986,82.9624222 C95.5618158,82.9624222 94.7096946,82.9624222 93.8557552,82.9624222 C93.9315128,82.5567656 94.4216309,81.9254525 94.9258562,81.2775737 Z" id="path50-path" fill="#FFFFFF"></path>
                        <path d="M81.3935333,79.6709071 L88.4856544,86.7606039 C88.4856544,86.7606039 93.883432,82.6547454 93.7981795,78.3167657 L83.8234322,78.3167657 C83.8234322,78.3167657 82.7824222,78.249695 81.3935333,79.6709071" id="path14" fill="#C3B571"></path>
                        <path d="M89.2991897,71.6058568 L89.6874725,71.2167659 C89.4933311,71.6058568 89.2709069,71.9664628 88.9939372,72.3824224 C88.2173715,73.4927254 87.0509069,74.6866648 85.2737352,75.8531294 C86.1900989,74.7979779 87.4676746,73.4375739 89.2991897,71.6058568 Z M83.2472706,78.5179778 C83.421008,78.479392 83.3026242,78.3507051 83.6070686,77.9072708 C93.9622199,72.7715133 95.9888865,78.0452506 95.9888865,78.0452506 C95.9628259,79.0743415 95.5177754,80.1838364 94.933735,81.2658566 C106.510502,81.2658566 117.728078,81.2658566 117.728078,81.2658566 C117.976563,81.2933313 118.252926,81.2381798 118.422421,81.1553515 L118.44626,81.1268667 C118.44626,81.0717151 118.390906,80.9888869 118.280401,80.8783818 C118.197573,80.7947455 118.114745,80.7117152 117.976563,80.6565636 C117.893734,80.5989879 117.783229,80.5989879 117.672724,80.5721192 C117.617573,80.5436344 117.586058,80.5161596 117.534745,80.5161596 C116.808684,80.4056546 116.007674,80.1555536 115.364644,79.5723212 L115.364644,79.5446445 L115.17131,79.3789879 L115.17131,79.3505031 L115.143633,79.3228263 C114.646462,78.7113112 114.480805,78.0177758 114.338785,77.4905031 L114.338785,77.4628263 C114.08626,76.629493 113.975755,75.7410082 113.975755,74.8531294 C113.975755,73.7973719 114.062421,67.8858569 114.145452,60.8892914 C114.200603,57.3927258 114.259795,53.643433 114.311108,50.0915139 C114.3703,46.5648473 114.397977,43.2078777 114.449088,40.5422212 C114.449088,39.9305041 114.449088,39.3757566 114.449088,38.8478778 L114.480805,35.5468678 L115.723633,38.4612112 C115.921007,38.9046455 116.118179,39.4018172 116.366866,39.9606051 C116.587674,40.5121202 116.836361,41.0969687 117.112522,41.7361606 C118.335755,44.6496959 119.921815,48.3404028 121.583027,52.283029 C123.220401,56.1979784 124.944845,60.3345439 126.49535,64.0545439 C127.994744,67.8030286 129.328482,71.1616144 130.220199,73.4927254 C130.524037,74.3828264 130.993532,75.3812102 131.218381,76.4907052 C131.242017,76.7131294 131.273734,76.9357557 131.273734,77.1575738 C131.242017,77.7414122 131.163229,78.3507051 130.883027,78.9062607 C130.85535,78.9890889 130.85535,78.9890889 130.827876,79.0191899 L130.804037,79.0450485 L130.804037,79.0743415 C130.71737,79.2125233 130.247876,80.0173717 129.494138,80.5436344 L129.466461,80.5436344 C129.356158,80.6288869 129.245653,80.7117152 129.135148,80.7947455 C129.05232,80.849897 128.996966,80.9335333 128.941815,80.960402 L128.914138,81.0440384 L128.941815,81.210503 C128.96929,81.2381798 129.079795,81.2658566 129.273128,81.2658566 C130.247876,81.2658566 154.896562,81.2658566 154.896562,81.2658566 C155.231915,81.2933313 155.480602,81.210503 155.535754,81.1553515 L155.591107,81.0717151 C155.618784,81.0717151 155.646259,81.0163616 155.646259,80.8783818 L155.646259,80.849897 L155.618784,80.8222202 C155.591107,80.7377758 155.370097,80.5436344 155.06242,80.4325232 C154.47838,80.1838364 153.89838,79.9068667 153.373532,79.2961596 L153.373532,79.2676748 L153.259188,79.129493 L153.259188,79.1004021 L153.235552,79.1004021 C152.702824,78.3246445 152.343835,77.3517152 152.343835,76.3242405 L152.343835,76.268887 L152.343835,76.0464627 L152.343835,75.8797961 L152.371309,75.8254526 C152.371309,75.7703011 152.371309,75.6581799 152.398986,75.51919 C152.426663,75.2414123 152.481814,74.9652507 152.537168,74.5470688 C152.647471,73.7436345 152.789693,72.687877 152.95535,71.4100992 C153.235552,69.4957558 153.563026,67.1086852 153.953532,64.4696954 C154.064037,63.5818166 154.202218,62.665655 154.312723,61.7503015 C154.592723,59.8911096 154.872925,57.9458571 155.149087,56.0046451 C155.977774,50.1743422 156.841814,44.2052514 157.449491,39.8753525 C157.53636,39.2913121 157.615148,38.7365647 157.702016,38.2117162 L158.061006,35.5729284 L158.948885,38.0153526 C159.004036,38.1533324 159.086865,38.3222213 159.146057,38.5141405 C159.868279,40.5121202 160.834945,43.150302 161.919996,46.121413 C164.117774,52.062827 166.721814,59.2519177 168.750097,64.9147459 C170.107268,68.6909074 171.192319,71.7999982 171.693531,73.3545436 C171.776359,73.5763618 171.831511,73.7436345 171.859188,73.9094931 C171.914541,74.048281 171.942016,74.1311093 171.969693,74.2424224 C172.135349,75.0206042 172.277369,75.8254526 172.305046,76.6579779 C172.305046,76.7700991 172.305046,76.9080789 172.305046,77.0185839 C172.305046,77.6010082 172.249895,78.2955536 171.914541,78.9331293 L171.914541,78.9614122 L171.776359,79.2125233 L171.748683,79.2408061 L171.717167,79.2676748 C171.441006,79.6828263 171.054339,79.9905031 170.612319,80.2391899 C170.194137,80.4884828 169.720602,80.6565636 169.251107,80.7117152 C168.94343,80.7377758 168.805248,80.849897 168.71838,80.9335333 L168.639592,81.0440384 L168.639592,81.0717151 L168.667066,81.1268667 C168.694743,81.1553515 168.805248,81.210503 168.94343,81.210503 L183.376763,81.210503 L196.480399,81.210503 C196.539591,81.210503 196.622419,81.210503 196.650096,81.210503 L196.677773,80.7377758 L196.287066,80.5989879 C196.149086,80.5721192 195.734743,80.4608061 195.23353,80.2107051 C194.704844,79.9622202 194.069692,79.5723212 193.34747,78.9331293 L193.319995,78.9062607 C193.094945,78.6844425 192.735955,78.269493 192.317773,77.7414122 L192.317773,77.7131294 C191.90343,77.1850486 191.429894,76.4907052 190.928884,75.7141395 C189.9305,74.1311093 188.876965,72.1339376 188.127268,69.9953518 C187.76444,68.9953518 186.513531,65.5256549 184.737975,60.7220187 C184.48949,60.0292914 184.213127,59.334746 183.936965,58.585049 C183.40444,57.11414 182.824238,55.5319178 182.212723,53.893534 C180.382016,48.952726 178.298581,43.3727262 176.246864,37.9024233 C173.524238,30.577575 170.861006,23.4137368 168.8604,18.0531915 C167.862218,15.3882622 167.05737,13.1691916 166.473329,11.6161613 C165.893329,10.0599795 165.557976,9.17377755 165.557976,9.17377755 C165.471107,8.91886846 165.281814,8.67109069 164.973935,8.44933312 C164.670097,8.25599979 164.279592,8.14551495 163.892925,8.14551495 L142.238784,8.14551495 C141.852118,8.14551495 141.461411,8.25599979 141.181411,8.44933312 C140.877572,8.61743413 140.684239,8.86599978 140.573734,9.11458563 C140.490906,9.28187856 140.463229,9.4223432 140.463229,9.58806037 C140.463229,9.86662602 140.601411,10.1980806 140.905047,10.5034745 L140.932724,10.5602826 L141.070906,10.6991714 L141.212926,10.8388482 L141.240603,11.0598179 C141.291916,11.3099795 141.323431,11.5593532 141.323431,11.9475957 C141.323431,12.1685654 141.323431,12.4487068 141.291916,12.7525249 C141.264239,12.9734946 141.212926,13.4745855 141.126057,14.1966461 C141.043229,14.9447673 140.932724,15.8909491 140.794744,16.9981006 C140.656562,18.1384238 140.51838,19.415252 140.325047,20.8309086 C140.15939,22.2197974 139.989693,23.7492923 139.792522,25.3274741 C139.378178,28.4959589 138.963835,31.9088881 138.549491,35.1034335 C138.154946,38.3222213 137.768279,41.3446454 137.492118,43.7618171 C137.381613,44.4286858 137.326461,45.0939383 137.239593,45.6486857 L136.939795,47.9252513 L135.992724,45.9549483 C135.827067,45.5935342 135.629694,45.1783827 135.408683,44.7333322 C134.299997,42.4282818 132.773128,39.2913121 131.104037,35.8482819 C127.773734,28.9101003 123.832118,20.6937369 121.196361,15.2225451 C120.336159,13.391737 119.614138,11.8923633 119.085452,10.8112321 C118.974947,10.5602826 118.860401,10.3077573 118.750098,10.1167876 C118.671108,9.89426238 118.584239,9.72616137 118.501411,9.58806037 C118.44626,9.44995936 118.390906,9.33949472 118.363229,9.25505027 L118.335755,9.22900987 L118.308078,9.17377755 L118.308078,9.14220179 C118.197573,8.91886846 117.976563,8.67109069 117.696563,8.50537352 C117.396563,8.31201999 117.033532,8.22680788 116.643027,8.22680788 L94.073533,8.22680788 C93.8517148,8.22680788 93.6583815,8.25599979 93.463634,8.31201999 C93.2686845,8.36727252 93.0745431,8.47933312 92.9347452,8.55981797 C92.7707048,8.67109069 92.6585835,8.8091917 92.5464623,8.94886846 C92.462826,9.06171695 92.4076745,9.20139371 92.3525229,9.33949472 C92.3248462,9.44995936 92.3248462,9.56044421 92.3248462,9.64488865 C92.3248462,9.83664622 92.3525229,10.0315755 92.462826,10.2272725 C92.6026239,10.4482422 92.7707048,10.6415755 93.0468664,10.8112321 L93.0745431,10.8388482 L93.1020179,10.8664846 C93.1858563,10.9217169 93.3238361,11.0598179 93.4911088,11.2831512 C93.6016138,11.4488684 93.7965633,11.7803027 93.9353512,12.1985451 C94.0458562,12.6144239 94.1288865,13.1415754 94.1571694,13.7507875 C93.4074724,12.5039391 92.3808058,11.2555149 91.0472705,10.1420402 C88.2985837,7.86773718 84.1634322,6.14583823 77.8062607,6.0645453 C78.9725233,6.17503015 82.3870686,6.61694933 85.8561595,8.25599979 C87.5781796,9.06171695 89.3260584,10.1980806 90.7985836,11.6966462 C90.7985836,11.6966462 95.323634,16.3628481 94.4903007,23.7492923 C94.4903007,23.7492923 95.2399976,23.4951509 96.3226239,23.4137368 C96.7383814,23.3846459 97.1828259,23.3846459 97.6286844,23.4389893 C100.015755,23.6624237 102.957775,25.0773731 103.707472,30.577575 C103.707472,30.577575 103.566866,33.2939386 101.485856,34.3765648 L100.820806,36.6004031 C100.820806,36.6004031 102.874745,39.7080798 102.874745,43.7066656 C102.874745,43.8171706 102.84727,48.4256554 97.7107046,52.0335341 C97.7107046,52.0335341 101.429896,54.753736 101.429896,57.5860592 C101.429896,57.5860592 101.06929,60.9177763 96.7383814,61.3905035 C82.0818161,78.5733314 82.1086848,78.5464627 81.830907,79.3505031 C81.830907,79.3505031 82.7824222,78.6206041 83.2472706,78.5179778 Z M117.199391,33.9054537 C118.698785,37.1828274 134.27232,71.6058568 135.353532,74.3828264 C136.434744,77.1298971 135.302219,78.379796 133.91333,79.6828263 L133.802825,79.6828263 C134.382825,78.7672708 134.548684,77.0470688 134.1303,75.6581799 C133.104441,72.2167659 118.560603,37.1828274 117.199391,33.9054537 Z M139.571512,50.4789886 C140.15939,44.8153524 143.375148,21.385656 143.375148,21.385656 C143.599996,19.996848 145.237572,12.9482421 144.795552,11.8923633 C144.539188,11.2255351 144.124845,10.1980806 143.765855,9.4223432 L151.262622,9.4223432 C149.427875,9.75616137 146.654138,10.280929 145.600602,10.3929896 C146.070097,12.2237977 146.263431,12.9734946 145.959592,14.4728481 C145.651916,15.9722218 142.487471,34.5999991 142.487471,34.5999991 C142.293936,35.6850496 139.879188,48.842423 139.571512,50.4789886 Z M160.227269,33.017777 C160.254945,33.1006052 160.28242,33.2111103 160.337774,33.3531305 C162.085653,37.6262617 175.938986,72.0218164 176.965046,74.7143416 C177.911915,77.3783819 176.246864,78.6561596 174.913127,79.6006041 L174.775147,79.6006041 C175.524844,78.6844425 175.773329,77.3232304 175.497167,76.4353516 C174.995955,72.4100992 161.975147,37.6814132 160.337774,33.3531305 C160.28242,33.2111103 160.254945,33.1006052 160.227269,33.017777 Z" id="path16" fill="#15213A"></path>
                        <path d="M199.187268,83.3278767 C198.835955,83.8258565 198.394136,84.2052504 197.802217,84.5090888 C197.186662,84.8074726 196.527874,84.9581797 195.74646,84.9652504 L174.554137,84.9652504 L172.111713,84.9345433 L172.119592,84.9006039 L168.694743,84.9006039 C167.767471,84.8981797 166.887673,84.5454524 166.228683,83.9195939 C165.52242,83.2551494 165.088481,82.290099 165.041006,81.2341394 L165.037168,81.0709071 C165.056764,78.929897 166.654743,77.1937354 168.678986,77.0408062 C168.686864,77.03919 168.694743,77.0343415 168.714541,77.028887 L168.710501,76.789695 C168.694743,76.3242405 168.627673,75.8333314 168.513329,75.3298971 L168.42242,75.098584 L168.42242,74.9921193 C168.390905,74.8840385 168.347471,74.7474729 168.300198,74.5896951 C167.870097,73.2268669 166.867875,70.3551498 165.404036,66.2799983 C163.577168,61.1909076 161.265046,54.8579784 159.236966,49.3135341 C158.625249,53.5480795 157.970299,58.1313117 157.37838,62.3224227 C156.845855,66.0321196 156.368279,69.4199983 156.013329,71.9705033 C155.843632,73.1715133 155.705451,74.1824224 155.602824,74.9454527 L155.583228,75.0931294 C155.527875,75.4703011 155.492521,75.7765638 155.456966,76.0345436 L155.425249,76.3226244 C155.425249,76.3856547 155.468683,76.5735334 155.602824,76.7866647 C155.63838,76.809493 155.701612,76.8434324 155.812117,76.8963617 L156.104037,77.0272708 C156.498582,77.209695 157.090501,77.519796 157.615148,78.0775738 C158.317572,78.8028263 158.724036,79.8082808 158.724036,80.9177758 C158.724036,80.9288869 158.724036,80.9375737 158.724036,80.9470687 C158.716158,81.6042404 158.581814,82.2151495 158.33737,82.7541393 C157.934744,83.6355535 157.232521,84.3078767 156.384239,84.6464625 C155.701612,84.9282807 155.070299,84.9636342 154.640198,84.9652504 L129.008886,84.9652504 C128.630098,84.9628262 127.481815,84.9549474 126.483633,84.010503 C126.104845,83.6496949 125.801007,83.1864626 125.599795,82.6634323 C125.485249,82.3539373 125.402421,82.0256545 125.358987,81.7117151 L125.307674,81.0282808 C125.307674,80.5034323 125.406462,79.9802 125.595754,79.5218162 C125.820805,78.9678768 126.159997,78.4888869 126.625653,78.0539374 C126.917573,77.7856546 127.201613,77.5852506 127.470098,77.4076748 C127.497573,77.3816142 127.560805,77.3107051 127.631714,77.2254526 C127.643633,77.2064627 127.659391,77.1898971 127.66727,77.1709072 C127.564643,76.7109072 127.335956,76.118988 127.095148,75.4925234 L126.862421,74.8878769 C125.461613,71.0945437 122.585249,64.0143418 118.296159,53.8399987 C117.980603,53.1014128 117.676765,52.3713118 117.372926,51.6517159 L117.242825,60.9438369 C117.140199,68.4832306 117.073128,73.9464628 117.073128,74.8658567 C117.073128,75.3228264 117.12828,75.7757557 117.234947,76.2137355 L117.290098,76.4125233 L117.290098,76.4173718 L117.353128,76.6484829 L117.353128,76.649291 C117.369088,76.7038365 117.380805,76.7503011 117.396563,76.789695 C117.471512,76.8173718 117.56626,76.8434324 117.63333,76.8513112 L117.625452,77.0147455 L117.64525,76.8537355 C118.659189,76.9751496 119.570704,77.4187859 120.292724,78.1470688 C120.955553,78.8234324 121.381815,79.6662606 121.535755,80.6692909 L121.559391,81.120604 C121.571108,81.9151495 121.33434,82.7226242 120.90828,83.3325232 C120.190098,84.3852504 119.223431,84.6771696 118.86828,84.7846443 C118.304037,84.9432302 117.810906,84.9636342 117.467674,84.9652504 L92.2854522,84.9652504 C92.762826,84.3401999 93.2125229,83.6616141 93.6347451,82.9624222 C104.584846,82.9624222 117.467674,82.9624222 117.467674,82.9624222 C117.617573,82.9624222 117.724037,82.9624222 117.724037,82.9624222 C117.968684,82.9591898 118.264644,82.9426242 118.572522,82.8559575 C118.880199,82.7636343 119.227472,82.610503 119.511512,82.1977757 C119.696967,81.9270687 119.81131,81.5325232 119.807472,81.1458566 L119.803431,80.9484828 L119.799593,80.9177758 L119.791714,80.8838364 C119.716765,80.3630283 119.472118,79.9163616 119.112926,79.5478768 C118.750098,79.1824223 118.256765,78.9149475 117.656967,78.8430283 C117.124442,78.7824223 116.47333,78.5187859 116.18929,78.2355536 L116.074745,78.1139374 C115.869694,77.8654526 115.743431,77.4573718 115.601411,76.9246445 L115.601411,76.9224223 L115.601411,76.9199981 C115.411916,76.2436345 115.321209,75.5571698 115.321209,74.8658567 C115.321209,73.8525234 115.396159,67.8929276 115.490906,60.9169682 C115.577573,54.5612108 115.680199,47.3509079 115.75131,42.0943424 C115.814341,42.2428272 115.869694,42.370504 115.932724,42.5244434 C117.167674,45.4339383 118.746058,49.1484836 120.391512,53.0650492 C123.690098,60.885453 127.292522,69.5785841 128.993128,74.1951497 L128.993128,74.1959577 C129.356158,75.1539375 129.750704,76.0771698 129.908482,76.8907051 L129.92828,77.1464627 C129.936158,77.4771698 129.829492,77.9268667 129.738785,78.0531294 L129.723027,78.0816142 L129.671714,78.1612102 C129.624441,78.2323213 129.55333,78.3341395 129.470502,78.4446445 C129.300805,78.6656546 129.064037,78.9212101 128.862825,79.0531293 L128.866865,79.0507051 L128.862825,79.0553516 C128.641815,79.1989879 128.436764,79.3442404 128.235552,79.5288869 C128.042219,79.710301 127.841007,79.9391899 127.702825,80.2777758 C127.612118,80.4995939 127.560805,80.7670687 127.560805,81.0282808 L127.580401,81.2981798 L127.580401,81.300604 L127.580401,81.2941394 C127.604239,81.5151495 127.647472,81.7377757 127.730502,81.9593919 C127.81333,82.180402 127.943431,82.3949474 128.113128,82.5567656 C128.460401,82.8828262 128.854946,82.9577757 129.277168,82.9624222 C131.763027,82.9624222 154.640198,82.9624222 154.640198,82.9624222 C154.793936,82.9624222 154.892723,82.9624222 154.892723,82.9624222 C155.212319,82.9591898 155.547673,82.9300989 155.879188,82.7935333 C156.202622,82.6634323 156.549895,82.3856545 156.763026,81.9254525 C156.901006,81.6232303 156.968077,81.2729273 156.972117,80.910705 L156.972117,80.9177758 L156.975956,80.8585838 C156.975956,80.2549475 156.711713,79.7632303 156.431511,79.4737354 C156.14343,79.1729273 155.827875,78.9890889 155.519996,78.8470687 L155.512117,78.8462607 L155.508279,78.8438364 C154.944037,78.6008061 154.565249,78.3884829 154.312723,78.0783819 L154.245653,77.9860587 C153.870703,77.4486849 153.669491,76.8347456 153.673532,76.3131294 L153.673532,76.1640385 L153.67737,76.1561597 L153.689289,76.0543415 L153.724845,75.7804021 L153.724845,75.7703011 L153.728683,75.7599981 C153.752319,75.5319173 153.791915,75.2123214 153.847067,74.8177759 L153.847067,74.8113113 C153.953532,74.0325234 154.095552,72.968685 154.277168,71.6935336 C154.636158,69.1406043 155.113733,65.7505034 155.64242,62.0383823 C156.640602,55.0149481 157.808481,46.8892918 158.637168,41.1482818 C159.244845,42.8133323 159.947067,44.7379787 160.712521,46.8347463 C162.886663,52.7698977 165.514541,59.9519177 167.542622,65.6020186 C168.895955,69.3654528 169.985046,72.4771699 170.46242,73.988281 C170.521612,74.1832305 170.572925,74.3561598 170.612319,74.4862608 C170.651915,74.6125234 170.67939,74.7127254 170.67939,74.7127254 L170.67939,74.7206042 L170.67939,74.728483 C170.845248,75.3907052 170.943834,76.069291 170.963632,76.7266647 L170.963632,76.7321193 L170.971511,77.028887 C170.971511,77.4503011 170.916157,77.7856546 170.797774,78.0303011 L170.711107,78.1731294 C170.612319,78.3246445 170.355955,78.5519172 170.059996,78.71919 C169.764036,78.8913112 169.420804,79.009695 169.156359,79.0284829 C168.075349,79.1121192 167.302016,80.010301 167.293935,81.0874727 L167.297976,81.1711091 L167.297976,81.179796 C167.321612,81.7038363 167.54646,82.1717151 167.854339,82.4581798 C168.162016,82.7500989 168.544844,82.8961595 168.951309,82.8977757 L174.566056,82.8977757 L174.818581,82.8977757 C174.810703,82.9181797 174.810703,82.94121 174.802622,82.9624222 L195.74646,82.9624222 L195.998985,82.9624222 C196.322621,82.9577757 196.740803,82.9181797 197.174945,82.7090888 C197.387874,82.5993919 197.608884,82.4416141 197.802217,82.1717151 C197.995551,81.9042404 198.125854,81.5018161 198.125854,81.0929273 C198.125854,81.0014121 198.117975,80.9012101 198.102015,80.7961596 C198.078379,80.7608061 198.062621,80.7173717 198.034945,80.6785838 C197.987672,80.6171697 197.944237,80.5444424 197.904844,80.4751495 C197.877167,80.4458566 197.84949,80.4173717 197.822015,80.3866647 C197.399793,80.1010081 196.98949,79.7963616 196.602823,79.4688869 C196.583025,79.4650485 194.389288,77.7905031 194.120803,77.5551496 C193.998581,77.4375738 193.663227,77.0470688 193.280399,76.5585839 C192.897773,76.0456547 192.439995,75.3945436 191.96646,74.6519173 C191.019591,73.1612103 190.025248,71.2696952 189.3505,69.3284831 L189.354541,69.3309074 C188.936157,68.1193922 187.346056,63.7981802 185.160197,57.8717157 L184.548682,58.2268672 L185.152319,57.8709076 C182.96242,51.9585846 180.196561,44.501211 177.466056,37.1804031 C172.024844,22.5472722 166.773127,8.47143413 166.773127,8.47143413 L166.773127,8.46985837 C166.528481,7.81014122 166.098582,7.309818 165.59737,6.97442407 C165.088481,6.63826246 164.5004,6.45753519 163.881006,6.45753519 L163.628481,6.45753519 L142.230906,6.45753519 C141.638986,6.45753519 141.078784,6.61931297 140.585451,6.92630286 C140.100199,7.23642406 139.674138,7.68624223 139.405855,8.29230282 L139.405855,8.29387858 C139.228279,8.69238362 139.133532,9.1343028 139.133532,9.57464623 C139.133532,10.3929896 139.457168,11.1521411 139.973936,11.705333 C139.977976,11.7763633 139.981815,11.8450098 139.981815,11.9515553 C139.981815,12.1212118 139.977976,12.3279593 139.954138,12.5789088 L139.954138,12.5868078 L139.954138,12.5931108 C139.942421,12.7264845 139.891108,13.253636 139.812118,13.9583431 C139.725451,14.6843431 139.614946,15.6368279 139.480805,16.7613733 C139.208481,18.9946258 138.85333,21.9145449 138.462825,25.0725246 C137.701209,31.2420194 136.809492,38.3246455 136.201815,43.1383828 C135.136562,40.9210091 133.763431,38.0775748 132.260199,34.9644436 C128.929896,28.0406054 124.984239,19.8177167 122.352522,14.3450097 C120.671512,10.8309694 119.53131,8.46353514 119.448482,8.28597959 L119.432522,8.25836343 L119.405048,8.2070705 L119.345856,8.12026242 L119.341815,8.12658566 C119.065654,7.6349493 118.698785,7.24274729 118.264644,6.97995942 C117.783229,6.68640387 117.230906,6.53250489 116.658785,6.53014125 L116.402219,6.53014125 L94.0783815,6.53014125 C93.4161593,6.53250489 92.7919169,6.73531296 92.2694926,7.11016144 C92.0020179,7.30191901 91.2436341,9.85084824 91.0399977,10.136525 C90.4505028,9.7064442 89.4909069,9.02147452 88.8343412,8.66082807 C89.2109069,8.13763616 90.2533311,5.90830288 90.8498967,5.48294936 C91.7179775,4.86111099 92.7462603,4.52731302 93.8264623,4.52571706 L116.40626,4.52571706 C117.329492,4.52731302 118.233128,4.77983826 119.02626,5.24937361 L120.438785,6.53250489 C120.537371,6.66587862 120.632118,6.80476751 120.714946,6.94680791 L123.907068,13.4769492 C126.534946,18.9496561 130.480603,27.1725246 133.814744,34.0933325 L134.809088,36.1545446 C135.266663,32.5032315 135.767875,28.5038377 136.221613,24.8278782 C136.608279,21.6698984 136.97131,18.7539389 137.239593,16.5246258 L137.567067,13.7231714 C137.6303,13.1786663 137.673532,12.7446259 137.701209,12.4976361 L137.709087,12.4147674 C137.709087,12.4013532 137.709087,12.3855754 137.709087,12.3713734 C137.168481,11.5411916 136.880603,10.5745048 136.880603,9.57464623 C136.880603,8.85812099 137.030502,8.1360402 137.322421,7.47711092 C137.736764,6.54197963 138.411512,5.76705036 139.271714,5.23042411 C140.080401,4.72537362 141.015552,4.4570706 141.97838,4.45470696 L163.632319,4.45470696 C164.64242,4.4570706 165.621006,4.7522019 166.457572,5.30696956 C167.349289,5.90119177 168.024036,6.75505034 168.402824,7.76909071 C168.402824,7.76909071 173.650501,21.8474742 179.091713,36.479595 C181.486662,42.9080797 183.913329,49.4365644 185.953329,54.9361602 L185.957167,54.9345441 L186.785854,57.1779784 C186.900197,57.4905036 187.014743,57.8006046 187.129086,58.1014127 L187.369692,58.7468672 L187.361813,58.7476753 C189.433329,64.3466651 190.632925,67.6129276 190.999793,68.6781801 C191.536359,70.2399982 192.392722,71.9808063 193.410702,73.5795941 C193.907874,74.3632305 194.345854,74.9755537 194.617975,75.3345436 C194.913935,75.7125234 195.150702,75.988887 195.237571,76.0858567 C195.525652,76.318584 196.563227,77.1179779 197.139389,77.5551496 L197.640399,77.9355536 C197.959995,78.2030283 198.315147,78.4690889 198.697975,78.729493 L198.895147,78.8557556 L199.242419,79.2321192 L199.502823,79.6432303 C199.514742,79.6630283 199.52646,79.6820182 199.534338,79.7024222 L199.775147,80.0252505 L199.842217,80.5476748 C199.869692,80.7529273 199.877773,80.9525232 199.877773,81.0763616 C199.881611,81.8892909 199.629086,82.7139373 199.187268,83.3278767" id="path18" fill="#FFFFFF"></path>
                        <path d="M137.398393,43.7593928 C137.338526,44.4420191 137.286526,45.081211 137.239593,45.661211 C137.286526,45.081211 137.338526,44.4420191 137.398393,43.7593928 L137.398393,43.7579787 L137.398393,43.7563625 L137.398393,43.7579787 L137.398393,43.7593928" id="path20" fill="#FFFFFF"></path>
                        <path d="M152.48636,74.5305032 C152.452493,74.9274729 152.42116,75.2557557 152.403026,75.5137355 C152.42116,75.2557557 152.452493,74.9274729 152.48636,74.5313113 L152.48636,74.5305032" id="path22" fill="#FFFFFF"></path>
                        <path d="M155.145249,56.0068673 C154.865047,57.954544 154.592723,59.8878773 154.328481,61.7399985 C154.19434,62.6688873 154.064037,63.5771701 153.941814,64.4585842 C154.064037,63.5771701 154.19434,62.6688873 154.324441,61.7399985 C154.592723,59.8878773 154.865047,57.954544 155.145249,56.0068673" id="path24" fill="#FFFFFF"></path>
                        <path d="M116.358987,39.9541404 C116.126058,39.4072717 115.909088,38.9070697 115.719795,38.4533324 L114.488684,35.528686 L115.719795,38.4533324 C115.909088,38.9070697 116.126058,39.4072717 116.358987,39.9541404" id="path26" fill="#FFFFFF"></path>
                        <polygon id="path28" fill="#FFFFFF" points="129.478381 80.546301 129.483581 80.5436344 129.483581 80.5436344"></polygon>
                        <polygon id="path30" fill="#FFFFFF" points="171.96044 74.2376103 171.957773 74.2345436 171.96044 74.2350769"></polygon>
                        <path d="M118.175936,80.7921232 C118.129003,80.7426566 118.063936,80.6926566 117.980603,80.6525232 C118.063936,80.6926566 118.129003,80.7426566 118.175936,80.7921232" id="path32" fill="#FFFFFF"></path>
                        <polyline id="path34" fill="#FFFFFF" points="168.635551 81.0323212 168.638218 81.0165879 168.687685 80.9389879 168.638218 81.0165879 168.635551 81.0323212"></polyline>
                        <path d="M117.529399,80.5191899 C117.568466,80.5238566 117.591932,80.5395899 117.625799,80.5478566 C117.591932,80.5395899 117.565932,80.5238566 117.526866,80.5191899 L117.529399,80.5191899" id="path36" fill="#FFFFFF"></path>
                        <path d="M80.2872424,18.9496561 C80.2795091,18.9548561 80.2727091,18.9600694 80.2644424,18.9663228 C80.2727091,18.9569494 80.2795091,18.9559094 80.2872424,18.9496561" id="path38" fill="#FFFFFF"></path>
                        <path d="M80.5042404,18.7772278 C80.5411737,18.7522278 80.5574404,18.7418145 80.5673071,18.7381611 C80.5563737,18.7449345 80.5313071,18.7590011 80.5042404,18.7772278" id="path40" fill="#FFFFFF"></path>
                        <path d="M88.6846567,8.9845935 C88.6846567,8.9845935 88.1324192,9.46056226 85.8474726,8.25442404 C83.9361595,7.38636345 81.3155535,6.53646448 78.009695,6.23264631 C78.009695,6.23264631 69.1943417,5.34406047 65.116766,5.34406047 C65.116766,5.34406047 56.1828269,5.24937361 51.0147462,8.64109069 C51.0147462,8.64109069 47.3696958,2.15040399 38.8367667,2.15040399 C38.8367667,2.15040399 30.7464639,1.26499391 19.0143632,11.8426462 C19.0143632,11.8426462 7.36822204,21.8868681 12.1693532,37.88909 C12.1693532,37.88909 11.5561815,39.9424232 11.0692927,42.0242414 L6.50567661,43.2228272 L10.3164442,46.3682817 C10.3164442,46.3682817 9.51862602,50.3985846 9.65197956,53.5006047 L4.64567665,56.7795945 L9.91793915,58.8171702 C9.91793915,58.8171702 10.6715553,63.025655 11.422828,64.796362 L8.10133313,69.0941397 L14.1721815,69.1840387 L15.5445047,70.6014124 C15.5445047,70.6014124 18.2473127,73.7026244 19.8863631,85.1759575 C19.8863631,85.1759575 20.5941409,86.5056544 23.4729287,86.551513 C23.4729287,86.551513 25.9541408,86.0187857 27.2395953,87.4353513 C27.2395953,87.4353513 28.1258579,88.8090887 31.8466659,88.2773715 C31.8466659,88.2773715 36.4101001,88.4989877 38.4919182,81.9412101 C38.4919182,81.9412101 53.8660593,85.6644423 59.3591904,83.1834323 C59.3591904,83.1834323 64.0987863,84.511513 68.617372,83.8028262 C68.617372,83.8028262 81.5979778,88.9866644 86.4274726,88.7658564 C86.4274726,88.7658564 88.2882806,88.9866644 89.9715129,87.391917 C89.9715129,87.391917 91.0399977,86.3999978 92.273533,84.9652504 L95.0624219,84.9652504 C93.5606037,86.9381796 91.9650482,88.4587857 91.4385836,88.9401998 C89.5644422,90.7181796 87.4793918,90.9090886 86.6707049,90.9090886 C81.6832303,91.0416139 71.0307053,87.0305029 68.3593922,85.9935332 C67.5385842,86.0945433 66.6737357,86.1458564 65.7804024,86.1458564 C63.0840388,86.1458564 60.6763621,85.6842403 59.5060591,85.4167655 C58.0414127,85.9240383 56.1583824,86.1703009 53.7799987,86.1703009 C48.8084836,86.1703009 42.8424232,85.060806 39.8232313,84.4246444 C37.2822213,89.982624 32.868484,90.3874725 31.9957568,90.4103008 C31.3842416,90.4917149 30.7993932,90.5335331 30.2525245,90.5335331 C27.4258579,90.5335331 26.1331307,89.4555533 25.626666,88.8367655 C25.4490903,88.6836341 25.036363,88.5874725 24.5509085,88.5874725 C24.1832317,88.5874725 23.9046459,88.6395937 23.9046459,88.6395937 L23.4414136,88.6828261 C19.4878379,88.6230281 18.2133935,86.5806039 17.998747,86.1727251 L17.7730501,85.4781797 C16.5104238,76.6381799 14.489434,72.6965638 13.9614946,72.0351497 L13.2552118,71.3052507 L3.80444435,71.1670689 L9.02541392,64.4121196 C8.62137352,63.1036348 8.26941393,61.5032308 8.04450485,60.3804025 L0,57.2719178 L7.50868668,52.3547462 C7.54420183,50.4577765 7.80460587,48.4769685 8.00268667,47.2254534 L1.93576359,42.2127262 L9.30004017,40.2856556 C9.54781794,39.3111101 9.7924644,38.4327263 9.94713106,37.8866657 C7.54103011,29.2234336 9.65909067,22.2521207 11.8931512,17.8922016 C14.3418582,13.1115754 17.4786864,10.3495957 17.5860198,10.2572523 C28.1432316,0.739426244 36.1466658,0 38.3474738,0 C38.5220192,0 38.6844435,0.0102588482 38.8367667,0.0260416155 C45.611514,0.0181502622 49.7167664,3.62058577 51.6169684,5.85937359 C56.8214127,3.34989891 63.6214126,3.2117979 65.116766,3.2117979 C67.9852508,3.2117979 73.1345436,3.6379393 76.0298971,3.89836354 L77.3935334,3.90230293 C82.2947454,3.91414132 86.6052526,4.96983843 89.9,6.76909091 C89.7673499,7.05561583 89.5511523,7.45049268 89.38,7.76403484 C89.2658985,7.97306294 89.0341174,8.37991583 88.6846567,8.9845935 Z" id="path42" fill="#FFFFFF"></path>
                        <path d="M92.3137351,9.62082177 C92.3137351,9.52721023 92.3226684,9.42986036 92.3440017,9.32650999 C92.3689351,9.19771983 92.4132017,9.06591984 92.4768017,8.93860584 C92.4132017,9.06591984 92.3689351,9.19771983 92.3440017,9.32650999 C92.3226684,9.42986036 92.3137351,9.52721023 92.3137351,9.62082177" id="path44" fill="#FFFFFF"></path>
                        <polyline id="path46" fill="#15213A" points="166.773127 8.47089837 166.773127 8.46985837 166.773127 8.47089837"></polyline>
                        <path d="M89.9715129,87.391917 C88.2882806,88.9866644 86.4274726,88.7658564 86.4274726,88.7658564 C81.5979778,88.9866644 68.617372,83.8028262 68.617372,83.8028262 C64.0987863,84.511513 59.3591904,83.1834323 59.3591904,83.1834323 C53.8660593,85.6644423 38.4919182,81.9412101 38.4919182,81.9412101 C36.4101001,88.4989877 31.8466659,88.2773715 31.8466659,88.2773715 C28.1258579,88.8090887 27.2395953,87.4353513 27.2395953,87.4353513 C25.9541408,86.0187857 23.4729287,86.551513 23.4729287,86.551513 C20.5941409,86.5056544 19.8863631,85.1759575 19.8863631,85.1759575 C18.2473127,73.7026244 15.5445047,70.6014124 15.5445047,70.6014124 L14.1721815,69.1840387 L8.10133313,69.0941397 L11.422828,64.796362 C10.6715553,63.025655 9.91793915,58.8171702 9.91793915,58.8171702 L4.64567665,56.7795945 L9.65197956,53.5006047 C9.51862602,50.3985846 10.3164442,46.3682817 10.3164442,46.3682817 L6.50567661,43.2228272 L11.0692927,42.0242414 C11.5561815,39.9424232 12.1693532,37.88909 12.1693532,37.88909 C7.36822204,21.8868681 19.0143632,11.8426462 19.0143632,11.8426462 C30.7464639,1.26499391 38.8367667,2.15040399 38.8367667,2.15040399 C47.3696958,2.15040399 51.0147462,8.64109069 51.0147462,8.64109069 C56.1828269,5.24937361 65.116766,5.34406047 65.116766,5.34406047 C69.1943417,5.34406047 78.009695,6.23264631 78.009695,6.23264631 C81.3155535,6.53646448 83.9361595,7.38636345 85.8507049,8.25442404 C87.582018,9.07276745 89.3276745,10.1878179 90.8105028,11.7069088 C90.8105028,11.7069088 95.3307047,16.3604844 94.4886845,23.7585853 C94.4886845,23.7585853 95.2462602,23.5030297 96.3296946,23.425656 C96.7282804,23.3979792 97.1709067,23.3965651 97.6357551,23.4375752 C100.005452,23.6569691 102.968684,25.0773731 103.702624,30.5791912 C103.702624,30.5791912 103.570907,33.2820194 101.489088,34.3923224 L100.824644,36.6058577 C100.824644,36.6058577 102.863028,39.7056556 102.863028,43.690908 C102.863028,43.690908 102.906462,48.3892917 97.7232299,52.0210088 C97.7232299,52.0210088 101.429896,54.7395946 101.429896,57.5757561 C101.429896,57.5757561 101.079593,60.905049 96.7456541,61.3785843 C82.0761596,78.5755536 82.1212101,78.5353516 81.8181798,79.3561596 C81.8181798,79.3561596 87.8874726,85.6478766 88.6404018,85.9579776 C88.6404018,85.9579776 93.8682805,81.1719172 93.1606037,78.3822203 L83.2363616,78.5155536 C83.2363616,78.5155536 83.3151494,78.3404021 83.6127252,77.9159576 C93.9670684,72.7698972 95.9959572,78.0430284 95.9959572,78.0430284 C95.9517148,79.0688869 95.524038,80.1846445 94.9258562,81.2775737 C94.4886845,81.9254525 94.4886845,81.9412101 93.8557552,82.9624222 C92.1212098,85.4080787 89.9715129,87.391917 89.9715129,87.391917 Z M136.15838,43.4894939 L136.15838,43.49111 L136.15838,43.4856555 L136.15838,43.4894939 Z M100.1602,35.1143426 L97.0595935,36.1806052 L98.9187854,39.989696 L100.1602,35.1143426 Z M101.845048,30.3084841 C101.845048,27.1858579 98.6214117,26.98707 98.6214117,26.98707 C97.42424,26.9507064 95.7955532,27.4503023 95.7955532,27.4503023 C94.9999976,27.7161609 93.6363613,27.8842417 93.6363613,27.8842417 C91.8545432,27.997171 89.852523,27.3042417 89.3474725,27.1149488 C89.3505028,27.1149488 89.3575735,27.1149488 89.3608058,27.1133327 C89.3608058,27.1133327 80.6359576,22.6783833 79.8626243,19.7956157 C79.8626243,19.7956157 79.8444424,19.7403631 79.8161596,19.6480399 C79.8783818,19.3639591 80.079796,19.1351106 80.2644424,18.9749086 C80.2769677,18.9654339 80.2872707,18.9575349 80.2989879,18.9496561 C80.3747455,18.8857369 80.4490889,18.8312723 80.5042404,18.7973531 C80.5452505,18.7697369 80.5832303,18.7484238 80.599796,18.7381611 C80.6036343,18.7342218 80.6250485,18.724747 80.6250485,18.724747 C80.6250485,18.724747 81.5545434,18.1920804 81.6430283,19.2116561 C81.6430283,19.2116561 83.7248464,21.3359591 86.161614,22.665656 C86.161614,22.665656 89.7490887,10.1720401 74.1327254,9.3102826 C74.1327254,9.3102826 78.1589879,13.0587067 78.9260586,16.0890097 C78.8171697,16.1955552 78.279594,16.6272117 77.2577758,15.8009693 C77.2577758,15.8009693 70.5965639,12.5749694 64.7341398,11.7739997 C64.7341398,11.7739997 67.6208064,14.2361209 68.6749478,16.558545 C68.6749478,16.558545 67.4440387,16.5916966 66.2838367,15.4340198 C66.2838367,15.4340198 58.8234329,11.2113331 52.3517159,15.2911915 C52.3517159,15.2911915 49.7474735,16.6295753 52.0690896,21.8379793 C52.0690896,21.8379793 59.1367662,30.7670699 84.1856545,33.7949487 C84.1737353,33.7973729 84.1634322,33.7973729 84.1634322,33.7973729 C84.1927252,33.8012113 84.2195939,33.8012113 84.2478767,33.8028274 C84.4270686,33.8250497 84.6046443,33.8462618 84.7868666,33.8660598 C84.7868666,33.8660598 84.8050484,33.8565648 84.8303009,33.8343426 C94.3418158,34.3301002 99.6828258,33.0018174 99.6828258,33.0018174 C102.444846,32.4022214 101.845048,30.3084841 101.845048,30.3084841 Z M12.6459997,47.1361604 C12.6459997,47.1361604 14.3623835,46.211312 14.6930299,44.3640393 L8.68450483,43.8999989 L12.6459997,47.1361604 Z M12.7130704,59.0191904 C12.7130704,59.0191904 14.0988077,57.3690895 13.7689492,54.793332 L6.96812104,56.7755541 L12.7130704,59.0191904 Z M10.1373129,68.3941397 L14.9558178,68.3941397 C14.9558178,68.3941397 15.6826057,67.1393923 14.6930299,65.356766 L10.1373129,68.3941397 Z M49.0363624,35.4694941 C49.0363624,35.4694941 49.3915139,42.7335343 54.1753522,43.000403 C54.1753522,43.000403 57.0999986,43.7997969 60.0236349,39.2810091 C60.0236349,39.2810091 61.6185843,36.1781809 67.4644428,35.2036355 L66.4022206,32.6325244 C66.4022206,32.6325244 59.5802005,31.9262618 51.3408068,25.8995953 C51.3408068,25.8995953 49.1248473,32.0169689 48.7696958,32.6325244 C48.7696958,32.6325244 49.3915139,34.1397971 61.6185843,34.4957567 C61.6185843,34.4957567 61.6185843,37.0644435 49.0363624,35.4694941 Z M73.8454527,34.5840395 C73.2252507,34.5840395 68.617372,33.1660598 68.617372,33.1660598 L70.8325235,39.989696 L73.8454527,34.5840395 Z M78.9402,47.9640392 C78.9402,47.9640392 78.2307051,48.8486856 79.5147455,48.982019 C79.5147455,48.982019 85.3204019,50.2674735 91.5648462,48.9377766 C91.5648462,48.9377766 92.6286846,48.2749483 91.6541391,48.0066655 C91.6541391,48.0066655 84.8761595,48.6268675 78.9402,47.9640392 Z M17.0501814,70.8222205 C17.0501814,70.8222205 19.3094945,74.4547456 21.6571712,82.5624222 C21.6571712,82.5624222 22.2781813,84.9100989 23.6505045,84.7333312 C23.6505045,84.7333312 29.6323225,84.291311 32.0242416,86.3280786 C32.0242416,86.3280786 33.3096961,87.2585837 34.8161607,84.4688868 C34.8161607,84.4688868 34.8004032,84.44121 34.7759587,84.3993918 C35.778787,82.4123212 36.5868678,79.2850485 36.5868678,79.2850485 C38.2456556,74.7040385 39.5517162,72.7500992 40.399999,71.917574 C40.6573727,72.2143416 41.2634333,72.6238366 42.6569686,72.5955537 C42.6569686,72.5955537 39.8666657,77.0264627 39.5115142,78.2654526 C39.5115142,78.2654526 43.0547464,81.1458566 53.5117158,81.1458566 C53.5117158,81.1458566 60.7638369,82.8828262 70.8286851,74.8232305 C70.5862609,75.1056547 70.3795942,75.3179779 70.2565639,75.3858567 C70.2565639,75.3858567 72.738382,73.9692911 72.1165639,74.9432304 C72.1165639,74.9432304 69.7254528,78.8864627 63.1242408,81.1458566 C63.1242408,81.1458566 66.9341397,82.8282808 77.7888869,78.929897 C77.7888869,78.929897 80.0032303,77.9561597 81.3769677,76.5822203 C81.3769677,76.5822203 93.8698966,62.8038368 94.7995936,61.7399985 C94.7995936,61.7399985 90.9894927,61.3424227 90.2375735,61.0763621 C90.2375735,61.0763621 87.6254524,59.5698975 89.6614119,59.5256551 C89.6614119,59.5256551 91.3006038,59.3923217 92.5401997,60.0141399 C92.5401997,60.0141399 94.6220178,60.4119177 95.9082804,60.1010086 C95.9082804,60.1010086 99.894947,59.3480793 99.894947,56.8228269 C99.894947,56.8228269 99.0963612,53.8107057 95.7307047,51.9941401 C95.7307047,51.9941401 101.224846,47.4755544 101.224846,43.7563625 C101.224846,43.7563625 101.048078,40.9193929 100.203634,39.8555546 C100.203634,39.8555546 99.3197955,41.8048474 99.3197955,42.6452515 L95.7307047,36.3581809 C95.7307047,36.3581809 87.8456544,37.109292 87.3571695,36.9319183 L87.312119,41.4496959 C87.312119,41.4496959 86.9151493,42.3373727 88.421816,42.9569686 L91.4779775,44.8618171 C91.4779775,44.8618171 92.1866644,46.3682817 93.5606037,45.7923221 C93.5606037,45.7923221 94.4444421,45.7923221 94.4444421,47.122019 C94.4444421,47.122019 94.7925229,47.9947463 91.5088866,49.7395947 C91.3006038,49.7995947 88.4185836,50.622625 83.7688868,50.622625 C83.7688868,50.622625 80.0852505,50.5761604 76.7747456,49.5296957 C75.7054527,48.7737362 75.6179779,47.5624231 75.6179779,47.5624231 C75.6179779,46.4125241 77.4779779,45.7472716 77.4779779,45.7472716 C79.4729273,46.8561604 80.4016142,44.5517161 80.4016142,44.5517161 C80.6234323,44.5517161 83.4137353,43.0886858 83.4137353,43.0886858 C85.0094928,42.2466656 84.8319171,41.2262616 84.8319171,41.2262616 L85.0094928,36.7131304 C83.681412,36.6202011 75.6620183,35.1143426 75.6620183,35.1143426 L70.5682811,43.1345444 L68.1739377,36.9751506 C62.9024227,38.3507061 61.9278772,40.2107061 61.9278772,40.2107061 C59.2709076,44.330908 56.9232309,45.3054534 56.9232309,45.3054534 L56.9490895,45.3171706 C55.9612107,45.7787867 54.1824229,46.2278776 52.1820189,44.9503019 C52.1820189,44.9503019 49.3915139,42.0715141 45.9335342,42.0715141 C45.9335342,42.0715141 39.9541404,42.4700999 39.9541404,48.141615 C39.9541404,48.141615 40.1317162,50.3985846 40.9729283,52.3484835 C40.9729283,52.3484835 42.2585848,55.9808067 40.8395949,55.6266653 C40.8395949,55.6266653 36.8971708,53.8541401 32.378383,45.6163625 C32.378383,45.6163625 27.0628276,35.2943426 26.4426256,32.9876759 C26.4426256,32.9876759 24.8468681,29.0482821 24.8468681,22.9325247 C24.8468681,22.9325247 24.9369691,16.9073531 26.6202014,11.9460199 C26.6202014,11.9460199 21.1719187,14.9605451 21.3028278,25.9903024 C21.3028278,25.9903024 21.6571712,33.918787 23.2086863,38.8785849 C23.2086863,38.8785849 26.7076761,52.9703017 27.2846458,54.0767663 C27.2846458,54.0767663 25.9541408,56.3810087 19.1319389,48.5393927 C19.1319389,48.5393927 14.4365451,55.7599986 20.3290904,68.1202003 C20.3290904,68.1202003 26.7961609,64.8430287 34.9937365,66.8806044 C34.9937365,66.8806044 35.068686,66.7448468 35.2060597,66.6145438 C34.4894941,68.3300993 33.198383,70.9123215 33.198383,70.9123215 C32.468484,71.7092911 32.2016154,76.6927254 32.2016154,76.6927254 C31.7084841,78.809897 30.9492922,80.0907051 30.2517164,80.8640384 C30.1309083,80.7276747 29.9755548,80.5919172 29.7648477,80.480604 C29.7648477,80.480604 28.7903023,80.169695 28.656969,73.9692911 C28.656969,73.9692911 28.1258579,67.9876751 27.8163629,67.856766 C27.8163629,67.856766 22.5890903,69.6725235 21.4795954,70.0711094 C21.4795954,70.0711094 19.1769288,70.2462609 18.1139591,70.0711094 C18.1139591,70.0711094 16.1639794,69.7602003 17.0501814,70.8222205 Z" id="path50" fill="#15213A"></path>
                        <polygon id="path52" fill="#FFFFFF" points="136.15838 43.4881888 136.15838 43.4856555 136.15838 43.4892555"></polygon>
                        <polyline id="path54" fill="#C3B571" points="117.530692 80.5191899 117.522825 80.5191899 117.530692 80.5191899"></polyline>
                        <path d="M176.972925,74.7197961 C177.911915,77.3682809 176.242824,78.6561596 174.913127,79.6109071 L174.775147,79.6109071 C175.532723,78.6915132 175.761612,77.3199981 175.505046,76.4472708 C174.972319,72.1440386 160.175956,32.897777 160.175956,32.897777 C160.175956,32.897777 175.879794,71.8442406 176.972925,74.7197961" id="path56" fill="#FFFFFF"></path>
                        <path d="M135.345653,74.378988 C136.430704,77.1377758 135.306259,78.3688869 133.905451,79.6709071 L133.810704,79.6709071 C134.390704,78.759392 134.536764,77.0470688 134.142219,75.6628264 C133.061007,72.0414123 117.084846,33.6569689 117.084846,33.6569689 C117.084846,33.6569689 134.205249,71.4670689 135.345653,74.378988" id="path58" fill="#FFFFFF"></path>
                        <path d="M145.963633,14.4712724 C145.663633,15.9706461 142.503229,34.5905042 142.503229,34.5905042 C142.297976,35.7733324 139.543835,50.6399987 139.543835,50.6399987 C140.100199,45.2731302 143.387067,21.3842419 143.387067,21.3842419 C143.588279,20.003151 145.233532,12.9537573 144.803431,11.8844643 C144.535148,11.2215957 144.140602,10.2059593 143.750097,9.41288865 L151.250703,9.41288865 C149.427875,9.76325228 146.657976,10.2785654 145.584845,10.3890502 C146.066057,12.2143229 146.271309,12.977434 145.963633,14.4712724" id="path60" fill="#FFFFFF"></path>
                        <path d="M68.7066649,53.1014128 C68.7066649,53.1014128 71.4535336,52.5711098 73.7571699,55.4048471 C73.7571699,55.4048471 70.8325235,57.6222208 69.5044427,57.6222208 C69.5044427,57.6222208 70.2131296,55.3163623 68.7066649,53.1014128" id="path62" fill="#FFFFFF"></path>
                        <path d="M73.8454527,34.5840395 L70.8325235,39.989696 L68.617372,33.1660598 C68.617372,33.1660598 73.2252507,34.5840395 73.8454527,34.5840395" id="path64" fill="#FFFFFF"></path>
                        <path d="M95.1105027,56.0258572 L93.4272704,55.6266653 C94.2700987,53.6781805 92.4076745,53.1014128 92.4076745,53.1014128 L92.9838361,52.5711098 C95.8199976,53.9882815 95.1105027,56.0258572 95.1105027,56.0258572" id="path66" fill="#FFFFFF"></path>
                        <polygon id="path68" fill="#FFFFFF" points="98.9187854 39.989696 97.0595935 36.1806052 100.1602 35.1143426"></polygon>
                        <path d="M48.7696958,32.6325244 C49.1248473,32.0169689 51.3408068,25.8995953 51.3408068,25.8995953 C59.5802005,31.9262618 66.4022206,32.6325244 66.4022206,32.6325244 L67.4644428,35.2036355 C61.6185843,36.1781809 60.0236349,39.2810091 60.0236349,39.2810091 C57.0999986,43.7997969 54.1753522,43.000403 54.1753522,43.000403 C49.3915139,42.7335343 49.0363624,35.4694941 49.0363624,35.4694941 C61.6185843,37.0644435 61.6185843,34.4957567 61.6185843,34.4957567 C49.3915139,34.1397971 48.7696958,32.6325244 48.7696958,32.6325244" id="path70" fill="#FFFFFF"></path>
                        <path d="M91.6541391,48.0066655 C92.6286846,48.2749483 91.5648462,48.9377766 91.5648462,48.9377766 C85.3204019,50.2674735 79.5147455,48.982019 79.5147455,48.982019 C78.2307051,48.8486856 78.9402,47.9640392 78.9402,47.9640392 C84.8761595,48.6268675 91.6541391,48.0066655 91.6541391,48.0066655" id="path72" fill="#FFFFFF"></path>
                        <path d="M13.7689492,54.793332 C14.0988077,57.3690895 12.7130704,59.0191904 12.7130704,59.0191904 L6.96812104,56.7755541 L13.7689492,54.793332" id="path74" fill="#FFFFFF"></path>
                        <path d="M14.6930299,65.356766 C15.6826057,67.1393923 14.9558178,68.3941397 14.9558178,68.3941397 L10.1373129,68.3941397 L14.6930299,65.356766" id="path76" fill="#FFFFFF"></path>
                        <path d="M14.6930299,44.3640393 C14.3623835,46.211312 12.6459997,47.1361604 12.6459997,47.1361604 L8.68450483,43.8999989 L14.6930299,44.3640393" id="path78" fill="#FFFFFF"></path>
                        <path d="M58.6056551,63.1147459 C68.0406044,63.7349479 72.4715133,59.7032308 72.4715133,59.7032308 C73.0161598,59.5161601 73.6931295,59.3640389 73.3325234,60.1080793 C73.1408063,60.5074732 72.7793921,60.8806045 72.4519174,61.1781803 C71.6903012,61.8694934 70.7795942,62.3927257 69.8666649,62.8551499 C67.4842407,64.0593923 64.7096954,64.7103014 62.0587863,64.9614125 C61.1662611,65.0472711 60.2139379,65.2391903 59.314948,65.2226246 C58.8462612,65.2107054 58.3577763,65.1026246 58.0224228,64.7490893 C57.8315137,64.5478772 57.2963622,63.456362 57.5252511,63.2030287 C57.7997965,62.8977762 58.2686854,63.0919176 58.6056551,63.1147459" id="path80" fill="#15213A"></path>
                        <path d="M68.7066649,53.1014128 C70.2131296,55.3163623 69.5044427,57.6222208 69.5044427,57.6222208 C70.8325235,57.6222208 73.7571699,55.4048471 73.7571699,55.4048471 C71.4535336,52.5711098 68.7066649,53.1014128 68.7066649,53.1014128 Z M60.554746,60.4561601 C59.3141399,60.1474732 58.6056551,60.1900995 58.6056551,60.1900995 C57.8092915,60.1010086 57.45414,58.8171702 57.45414,58.8171702 C57.3658572,57.7967662 59.625251,58.5511096 59.625251,58.5511096 C60.6880793,58.9496955 61.8402005,58.8171702 61.8402005,58.8171702 C64.7640388,52.2608068 68.7058569,51.5955543 68.7058569,51.5955543 C67.066665,50.5319179 67.3777761,50.0907058 67.3777761,50.0907058 L68.8399983,50.3559583 C69.7686851,51.0204028 71.2753518,51.8616149 71.2753518,51.8616149 C72.4274729,52.1274734 74.3773719,54.2100997 74.3773719,54.2100997 C75.0402001,55.2280794 76.3707052,54.563635 76.3707052,54.563635 L76.989493,54.963635 L77.7777758,55.3747461 L76.6816142,55.8933319 C75.9715133,55.9375744 74.7325234,56.6020188 74.7325234,56.6020188 C67.3777761,61.5648469 60.554746,60.4561601 60.554746,60.4561601 Z" id="path82" fill="#15213A"></path>
                        <path d="M93.4272704,55.6266653 L95.1105027,56.0258572 C95.1105027,56.0258572 95.8199976,53.9882815 92.9838361,52.5711098 L92.4076745,53.1014128 C92.4076745,53.1014128 94.2700987,53.6781805 93.4272704,55.6266653 Z M86.991715,55.6266653 C87.4573716,55.2280794 88.6529271,54.3979784 88.6529271,54.3979784 C89.2842402,53.63313 90.18222,53.1359583 90.18222,53.1359583 C92.8062603,51.4741401 94.9329269,50.8759583 94.9329269,50.8759583 L93.7381795,52.1385846 C95.3662602,52.7698977 96.2286845,55.1286855 96.2286845,55.1286855 C96.2286845,55.5270693 98.0903006,56.8228269 98.0903006,56.8228269 C95.0985835,58.8826248 90.2810078,56.5246451 90.2810078,56.5246451 C87.1575736,56.3258572 86.991715,55.6266653 86.991715,55.6266653 Z" id="path84" fill="#15213A"></path>
                        <path d="M18.1139591,70.0711094 C19.1769288,70.2462609 21.4795954,70.0711094 21.4795954,70.0711094 C22.5890903,69.6725235 27.8163629,67.856766 27.8163629,67.856766 C28.1258579,67.9876751 28.656969,73.9692911 28.656969,73.9692911 C28.7903023,80.169695 29.7648477,80.480604 29.7648477,80.480604 C29.9755548,80.5919172 30.1309083,80.7276747 30.2517164,80.8640384 C30.5595952,81.2191899 30.6068679,81.5884828 30.6068679,81.5884828 C30.6951507,83.1834323 31.6256558,82.7399979 31.6256558,82.7399979 C33.588282,82.6618161 34.5747466,84.0751494 34.7759587,84.3993918 C34.8004032,84.44121 34.8161607,84.4688868 34.8161607,84.4688868 C33.3096961,87.2585837 32.0242416,86.3280786 32.0242416,86.3280786 C29.6323225,84.291311 23.6505045,84.7333312 23.6505045,84.7333312 C22.2781813,84.9100989 21.6571712,82.5624222 21.6571712,82.5624222 C19.3094945,74.4547456 17.0501814,70.8222205 17.0501814,70.8222205 C16.1639794,69.7602003 18.1139591,70.0711094 18.1139591,70.0711094" id="path86" fill="#C3B571"></path>
                        <path d="M36.6319183,66.9238367 C35.9840395,66.0999983 35.4757567,66.3517155 35.2060597,66.6145438 C35.068686,66.7448468 34.9937365,66.8806044 34.9937365,66.8806044 C26.7961609,64.8430287 20.3290904,68.1202003 20.3290904,68.1202003 C14.4365451,55.7599986 19.1319389,48.5393927 19.1319389,48.5393927 C25.9541408,56.3810087 27.2846458,54.0767663 27.2846458,54.0767663 C26.7076761,52.9703017 23.2086863,38.8785849 23.2086863,38.8785849 C21.6571712,33.918787 21.3028278,25.9903024 21.3028278,25.9903024 C21.1719187,14.9605451 26.6202014,11.9460199 26.6202014,11.9460199 C24.9369691,16.9073531 24.8468681,22.9325247 24.8468681,22.9325247 C24.8468681,29.0482821 26.4426256,32.9876759 26.4426256,32.9876759 C27.0628276,35.2943426 32.378383,45.6163625 32.378383,45.6163625 C36.8971708,53.8541401 40.8395949,55.6266653 40.8395949,55.6266653 C42.2585848,55.9808067 40.9729283,52.3484835 40.9729283,52.3484835 C40.1317162,50.3985846 39.9541404,48.141615 39.9541404,48.141615 C39.9541404,42.4700999 45.9335342,42.0715141 45.9335342,42.0715141 C49.3915139,42.0715141 52.1820189,44.9503019 52.1820189,44.9503019 C54.1824229,46.2278776 55.9612107,45.7787867 56.9490895,45.3171706 L63.65616,48.2749483 C56.9232309,48.0509079 53.3341401,49.5139382 53.3341401,49.5139382 C48.6379786,51.8616149 52.2246452,57.5757561 52.2246452,57.5757561 C45.9335342,63.9125237 50.6321199,68.1202003 50.6321199,68.1202003 C55.9470693,73.0824224 61.4418166,71.8868669 61.4418166,71.8868669 C65.7385842,71.8426245 70.2131296,66.2602004 70.2131296,66.2602004 C69.547877,68.3420185 68.0406044,70.5563619 68.0406044,70.5563619 L69.5919175,70.3353518 C75.0860587,62.495352 76.6816142,55.8933319 76.6816142,55.8933319 L77.7777758,55.3747461 L76.989493,54.963635 C77.8763617,52.4818169 76.8119173,49.5581806 76.8119173,49.5581806 C76.79919,49.5494937 76.7874728,49.5383826 76.7747456,49.5296957 C80.0852505,50.5761604 83.7688868,50.622625 83.7688868,50.622625 C88.4185836,50.622625 91.3006038,49.7995947 91.5088866,49.7395947 C91.5159573,49.7363624 91.5206038,49.7355543 91.5206038,49.7355543 C92.8511088,49.2038372 91.7874725,50.3117159 91.7874725,50.3117159 C91.343028,50.842827 87.2703008,52.1725239 87.2703008,52.1725239 C84.9195938,52.792726 83.2820181,54.4751502 83.2820181,54.4751502 C81.7321192,56.1151501 79.4262606,60.7662611 79.4262606,60.7662611 C78.629291,62.4486853 74.0672709,71.177372 74.0672709,71.177372 C73.4462608,72.5054527 71.4985841,74.278786 71.4985841,74.278786 C71.2721194,74.4664628 71.0503013,74.6456547 70.8286851,74.8232305 C60.7638369,82.8828262 53.5117158,81.1458566 53.5117158,81.1458566 C43.0547464,81.1458566 39.5115142,78.2654526 39.5115142,78.2654526 C39.8666657,77.0264627 42.6569686,72.5955537 42.6569686,72.5955537 C41.2634333,72.6238366 40.6573727,72.2143416 40.399999,71.917574 C40.2565647,71.7527255 40.2210091,71.6208063 40.2210091,71.6208063 C39.5557566,70.0711094 36.6319183,66.9238367 36.6319183,66.9238367" id="path88" fill="#C3B571"></path>
                        <path d="M88.5858564,28.1698983 C88.5858564,30.6999992 86.5466645,30.8436356 86.5466645,30.8436356 C85.3733312,30.9397972 84.9131292,31.7155548 84.7420181,32.1836356 C84.6670686,32.3848477 84.6464625,32.5298982 84.6464625,32.5298982 C84.7694928,32.6113123 84.8642403,32.6917164 84.9391898,32.7715143 C85.4135332,33.2820194 84.9739373,33.7161608 84.8303009,33.8343426 C84.8050484,33.8565648 84.7868666,33.8660598 84.7868666,33.8660598 C84.6046443,33.8462618 84.4270686,33.8250497 84.2478767,33.8028274 C84.2282807,33.8012113 84.2068666,33.7973729 84.1856545,33.7949487 C59.1367662,30.7670699 52.0690896,21.8379793 52.0690896,21.8379793 C49.7474735,16.6295753 52.3517159,15.2911915 52.3517159,15.2911915 C58.8234329,11.2113331 66.2838367,15.4340198 66.2838367,15.4340198 C67.4440387,16.5916966 68.6749478,16.558545 68.6749478,16.558545 C67.6208064,14.2361209 64.7341398,11.7739997 64.7341398,11.7739997 C70.5965639,12.5749694 77.2577758,15.8009693 77.2577758,15.8009693 C78.279594,16.6272117 78.8171697,16.1955552 78.9260586,16.0890097 C78.9402,16.0748077 78.9480788,16.0669289 78.9480788,16.0669289 C78.9521192,16.1245248 78.959998,16.1876562 78.9662607,16.2547269 C78.9945435,16.3904642 79.0167657,16.5222622 79.030099,16.6564036 C79.2226243,17.6688682 79.6725233,19.1761409 79.8161596,19.6480399 C79.8444424,19.7403631 79.8626243,19.7956157 79.8626243,19.7956157 C80.6359576,22.6783833 89.3608058,27.1133327 89.3608058,27.1133327 C89.3575735,27.1149488 89.3505028,27.1149488 89.3474725,27.1149488 C88.7262604,27.1977771 88.5858564,28.1698983 88.5858564,28.1698983" id="path90" fill="#C3B571"></path>
                        <path d="M174.913127,79.6006041 C176.246864,78.6561596 177.911915,77.3783819 176.965046,74.7143416 C175.938986,72.0218164 162.085653,37.6262617 160.337774,33.3531305 C161.975147,37.6814132 174.995955,72.4100992 175.497167,76.4353516 C175.773329,77.3232304 175.524844,78.6844425 174.775147,79.6006041 L174.913127,79.6006041" id="path92" fill="#FFFFFF"></path>
                        <path d="M151.262622,9.4223432 L143.765855,9.4223432 C144.124845,10.1980806 144.539188,11.2255351 144.795552,11.8923633 C145.237572,12.9482421 143.599996,19.996848 143.375148,21.385656 C143.375148,21.385656 140.15939,44.8153524 139.571512,50.4789886 C139.879188,48.842423 142.293936,35.6850496 142.487471,34.5999991 C142.487471,34.5999991 145.651916,15.9722218 145.959592,14.4728481 C146.263431,12.9734946 146.070097,12.2237977 145.600602,10.3929896 C146.654138,10.280929 149.427875,9.75616137 151.262622,9.4223432" id="path94" fill="#FFFFFF"></path>
                        <path d="M99.1240379,21.9002015 C99.1240379,21.9002015 99.4199975,16.9136763 99.3070682,14.9171309 C99.2187854,13.391737 99.2622197,12.7406866 98.7911086,10.9075149 C99.8444419,10.79703 102.62222,10.2683028 104.454745,9.93371692 L96.9585834,9.93371692 C97.3191895,10.7125856 97.7375733,11.7400603 97.9852501,12.4076765 C98.4296945,13.4627471 98.3159571,20.5137369 98.094139,21.9002015 L99.1240379,21.9002015" id="path96" fill="#FFFFFF"></path>
                        <path d="M133.91333,79.6828263 C135.302219,78.379796 136.434744,77.1298971 135.353532,74.3828264 C134.27232,71.6058568 118.698785,37.1828274 117.199391,33.9054537 C118.560603,37.1828274 133.104441,72.2167659 134.1303,75.6581799 C134.548684,77.0470688 134.382825,78.7672708 133.802825,79.6828263 L133.91333,79.6828263" id="path98" fill="#FFFFFF"></path>
                        <path d="M78.9662607,16.2547269 C78.959998,16.1876562 78.9521192,16.1245248 78.9480788,16.0669289 C78.9480788,16.0669289 78.9402,16.0748077 78.9260586,16.0890097 C78.1589879,13.0587067 74.1327254,9.3102826 74.1327254,9.3102826 C89.7490887,10.1720401 86.161614,22.665656 86.161614,22.665656 C83.7248464,21.3359591 81.6430283,19.2116561 81.6430283,19.2116561 C81.5545434,18.1920804 80.6250485,18.724747 80.6250485,18.724747 C80.6250485,18.724747 80.6036343,18.7342218 80.599796,18.7381611 C80.5848465,18.7436965 80.5602,18.7594743 80.5042404,18.7973531 C80.4490889,18.8312723 80.3747455,18.8857369 80.2989879,18.9496561 C80.2872707,18.9591308 80.2769677,18.9607066 80.2644424,18.9749086 C80.079796,19.1351106 79.8783818,19.3639591 79.8161596,19.6480399 C79.6725233,19.1761409 79.2226243,17.6688682 79.030099,16.6564036 C79.0167657,16.5222622 78.9945435,16.3904642 78.9662607,16.2547269" id="path100" fill="#E0D7B1"></path>
                        <path d="M31.6256558,82.7399979 C31.6256558,82.7399979 30.6951507,83.1834323 30.6068679,81.5884828 C30.6068679,81.5884828 30.5595952,81.2191899 30.2517164,80.8640384 C30.9492922,80.0907051 31.7084841,78.809897 32.2016154,76.6927254 C32.2016154,76.6927254 32.468484,71.7092911 33.198383,70.9123215 C33.198383,70.9123215 34.4894941,68.3300993 35.2060597,66.6145438 C35.4757567,66.3517155 35.9840395,66.0999983 36.6319183,66.9238367 C36.6319183,66.9238367 39.5557566,70.0711094 40.2210091,71.6208063 C40.2210091,71.6208063 40.2565647,71.7527255 40.399999,71.917574 C39.5517162,72.7500992 38.2456556,74.7040385 36.5868678,79.2850485 C36.5868678,79.2850485 35.778787,82.4123212 34.7759587,84.3993918 C34.5747466,84.0751494 33.588282,82.6618161 31.6256558,82.7399979" id="path102" fill="#E0D7B1"></path>
                        <path d="M84.1634322,33.7965487 C84.1634322,33.7965487 84.1702322,33.7965487 84.1780989,33.7949487 C84.1920989,33.7965487 84.2062322,33.799082 84.2191656,33.8001486 C84.2004989,33.799082 84.1827656,33.799082 84.1634322,33.7965487" id="path104" fill="#E0D7B1"></path>
                        <path d="M99.6828258,33.0018174 C99.6828258,33.0018174 94.3418158,34.3301002 84.8303009,33.8343426 C84.9739373,33.7161608 85.4135332,33.2820194 84.9391898,32.7715143 C84.8642403,32.6917164 84.7694928,32.6113123 84.6464625,32.5298982 C84.6464625,32.5298982 84.6670686,32.3848477 84.7420181,32.1836356 C84.9131292,31.7155548 85.3733312,30.9397972 86.5466645,30.8436356 C86.5466645,30.8436356 88.5858564,30.6999992 88.5858564,28.1698983 C88.5858564,28.1698983 88.7262604,27.1977771 89.3474725,27.1149488 C89.852523,27.3042417 91.8545432,27.997171 93.6363613,27.8842417 C93.6363613,27.8842417 94.9999976,27.7161609 95.7955532,27.4503023 C95.7955532,27.4503023 97.42424,26.9507064 98.6214117,26.98707 C98.6214117,26.98707 101.845048,27.1858579 101.845048,30.3084841 C101.845048,30.3084841 102.444846,32.4022214 99.6828258,33.0018174" id="path106" fill="#E0D7B1"></path>
                        <path d="M90.2810078,56.5246451 C90.2810078,56.5246451 95.0985835,58.8826248 98.0903006,56.8228269 C98.0903006,56.8228269 96.2286845,55.5270693 96.2286845,55.1286855 C96.2286845,55.1286855 95.3662602,52.7698977 93.7381795,52.1385846 L94.9329269,50.8759583 C94.9329269,50.8759583 92.8062603,51.4741401 90.18222,53.1359583 C90.18222,53.1359583 89.2842402,53.63313 88.6529271,54.3979784 C88.6529271,54.3979784 87.4573716,55.2280794 86.991715,55.6266653 C86.991715,55.6266653 87.1575736,56.3258572 90.2810078,56.5246451 Z M74.0672709,71.177372 C74.0672709,71.177372 78.629291,62.4486853 79.4262606,60.7662611 C79.4262606,60.7662611 81.7321192,56.1151501 83.2820181,54.4751502 C83.2820181,54.4751502 84.9195938,52.792726 87.2703008,52.1725239 C87.2703008,52.1725239 91.343028,50.842827 91.7874725,50.3117159 C91.7874725,50.3117159 92.8511088,49.2038372 91.5206038,49.7355543 C91.5206038,49.7355543 91.5159573,49.7363624 91.5088866,49.7395947 C94.7925229,47.9947463 94.4444421,47.122019 94.4444421,47.122019 C94.4444421,45.7923221 93.5606037,45.7923221 93.5606037,45.7923221 C92.1866644,46.3682817 91.4779775,44.8618171 91.4779775,44.8618171 L88.421816,42.9569686 C86.9151493,42.3373727 87.312119,41.4496959 87.312119,41.4496959 L87.3571695,36.9319183 C87.8456544,37.109292 95.7307047,36.3581809 95.7307047,36.3581809 L99.3197955,42.6452515 C99.3197955,41.8048474 100.203634,39.8555546 100.203634,39.8555546 C101.048078,40.9193929 101.224846,43.7563625 101.224846,43.7563625 C101.224846,47.4755544 95.7307047,51.9941401 95.7307047,51.9941401 C99.0963612,53.8107057 99.894947,56.8228269 99.894947,56.8228269 C99.894947,59.3480793 95.9082804,60.1010086 95.9082804,60.1010086 C94.6220178,60.4119177 92.5401997,60.0141399 92.5401997,60.0141399 C91.3006038,59.3923217 89.6614119,59.5256551 89.6614119,59.5256551 C87.6254524,59.5698975 90.2375735,61.0763621 90.2375735,61.0763621 C90.9894927,61.3424227 94.7995936,61.7399985 94.7995936,61.7399985 C93.8698966,62.8038368 81.3769677,76.5822203 81.3769677,76.5822203 C80.0032303,77.9561597 77.7888869,78.929897 77.7888869,78.929897 C66.9341397,82.8282808 63.1242408,81.1458566 63.1242408,81.1458566 C69.7254528,78.8864627 72.1165639,74.9432304 72.1165639,74.9432304 C72.738382,73.9692911 70.2565639,75.3858567 70.2565639,75.3858567 C70.3795942,75.3179779 70.5862609,75.1056547 70.8286851,74.8232305 C71.0503013,74.6456547 71.2721194,74.4664628 71.4985841,74.278786 C71.4985841,74.278786 73.4462608,72.5054527 74.0672709,71.177372 Z" id="path108" fill="#E0D7B1"></path>
                        <path d="M58.0224228,64.7490893 C58.3577763,65.1026246 58.8462612,65.2107054 59.314948,65.2226246 C60.2139379,65.2391903 61.1662611,65.0472711 62.0587863,64.9614125 C64.7096954,64.7103014 67.4842407,64.0593923 69.8666649,62.8551499 C70.7795942,62.3927257 71.6903012,61.8694934 72.4519174,61.1781803 C72.7793921,60.8806045 73.1408063,60.5074732 73.3325234,60.1080793 C73.6931295,59.3640389 73.0161598,59.5161601 72.4715133,59.7032308 C72.4715133,59.7032308 68.0406044,63.7349479 58.6056551,63.1147459 C58.2686854,63.0919176 57.7997965,62.8977762 57.5252511,63.2030287 C57.2963622,63.456362 57.8315137,64.5478772 58.0224228,64.7490893 Z M76.989493,54.963635 L76.3707052,54.563635 C76.3707052,54.563635 75.0402001,55.2280794 74.3773719,54.2100997 C74.3773719,54.2100997 72.4274729,52.1274734 71.2753518,51.8616149 C71.2753518,51.8616149 69.7686851,51.0204028 68.8399983,50.3559583 L67.3777761,50.0907058 C67.3777761,50.0907058 67.066665,50.5319179 68.7058569,51.5955543 C68.7058569,51.5955543 64.7640388,52.2608068 61.8402005,58.8171702 C61.8402005,58.8171702 60.6880793,58.9496955 59.625251,58.5511096 C59.625251,58.5511096 57.3658572,57.7967662 57.45414,58.8171702 C57.45414,58.8171702 57.8092915,60.1010086 58.6056551,60.1900995 C58.6056551,60.1900995 59.3141399,60.1474732 60.554746,60.4561601 C60.554746,60.4561601 67.3777761,61.5648469 74.7325234,56.6020188 C74.7325234,56.6020188 75.9715133,55.9375744 76.6816142,55.8933319 C76.6816142,55.8933319 75.0860587,62.495352 69.5919175,70.3353518 L68.0406044,70.5563619 C68.0406044,70.5563619 69.547877,68.3420185 70.2131296,66.2602004 C70.2131296,66.2602004 65.7385842,71.8426245 61.4418166,71.8868669 C61.4418166,71.8868669 55.9470693,73.0824224 50.6321199,68.1202003 C50.6321199,68.1202003 45.9335342,63.9125237 52.2246452,57.5757561 C52.2246452,57.5757561 48.6379786,51.8616149 53.3341401,49.5139382 C53.3341401,49.5139382 56.9232309,48.0509079 63.65616,48.2749483 L56.9490895,45.3171706 L56.9232309,45.3054534 C56.9232309,45.3054534 59.2709076,44.330908 61.9278772,40.2107061 C61.9278772,40.2107061 62.9024227,38.3507061 68.1739377,36.9751506 L70.5682811,43.1345444 L75.6620183,35.1143426 C75.6620183,35.1143426 83.681412,36.6202011 85.0094928,36.7131304 L84.8319171,41.2262616 C84.8319171,41.2262616 85.0094928,42.2466656 83.4137353,43.0886858 C83.4137353,43.0886858 80.6234323,44.5517161 80.4016142,44.5517161 C80.4016142,44.5517161 79.4729273,46.8561604 77.4779779,45.7472716 C77.4779779,45.7472716 75.6179779,46.4125241 75.6179779,47.5624231 C75.6179779,47.5624231 75.7054527,48.7737362 76.7747456,49.5296957 C76.7874728,49.5383826 76.79919,49.5494937 76.8119173,49.5581806 C76.8119173,49.5581806 77.8763617,52.4818169 76.989493,54.963635 Z" id="path110" fill="#E0D7B1"></path>
                        <path d="M88.1937352,76.1214122 C88.1937352,76.1214122 93.42323,71.0725235 93.7997956,66.9656549 L94.613331,66.1404024 C94.613331,66.1404024 94.3703007,71.548281 92.6325229,73.4808062 C91.9199977,74.2668668 89.7797957,75.799392 89.7797957,75.799392 C89.3931291,75.8444425 88.1937352,76.1214122 88.1937352,76.1214122" id="path112" fill="#FFFFFF"></path>
                        <path d="M102.418785,35.9927264 C104.813735,38.9220192 104.766462,42.4187868 104.766462,42.4187868 C104.766462,48.2268675 99.8444419,52.0391906 99.8444419,52.0391906 C103.393331,54.1666653 103.349896,57.844847 103.349896,57.844847 C103.349896,61.3470692 97.6735329,63.0294934 97.6735329,63.0294934 L89.2109069,71.6272709 C85.6163615,75.1894931 84.1145434,77.0826243 83.5117151,77.9420183 C83.2181797,78.3680788 83.1375737,78.5432304 83.1375737,78.5432304 L93.0666643,78.409897 C93.7729269,81.2018162 88.5448463,85.9856544 88.5448463,85.9856544 C87.7935332,85.6755534 81.7226242,79.3836344 81.7226242,79.3836344 C82.0242404,78.5622203 81.9751495,78.6056546 96.6533309,61.3975742 C100.990301,60.9280793 101.343028,57.5955541 101.343028,57.5955541 C101.343028,54.7585845 97.6303006,52.0391906 97.6303006,52.0391906 C102.818785,48.4028271 102.767472,43.7026252 102.767472,43.7026252 C102.767472,39.7175748 100.731513,36.6107062 100.731513,36.6107062 L101.399189,34.398585 C103.484038,33.2874739 103.614341,30.5816154 103.614341,30.5816154 C102.882826,25.0852519 99.9195935,23.6569691 97.5450481,23.4389893 C97.0777754,23.3979792 96.6351491,23.3979792 96.2381794,23.425656 C95.1531289,23.5030297 94.3955532,23.7610095 94.3955532,23.7610095 C95.2399976,16.3652117 90.7157553,11.7069088 90.7157553,11.7069088 C89.232119,10.1862422 87.4896948,9.0672321 85.7521191,8.25442404 C81.4820182,6.23579782 77.2876748,6.02905035 77.2876748,6.02905035 C97.0517147,6.07402005 96.1686845,21.6799995 96.1686845,21.6799995 C104.549492,20.6581813 105.519997,30.6305043 105.519997,30.6305043 C105.519997,33.9977769 102.418785,35.9927264 102.418785,35.9927264" id="path114" fill="#FFFFFF"></path>
                        <path d="M83.1375737,78.5432304 L93.0666643,78.409897 C93.7729269,81.2018162 88.5448463,85.9856544 88.5448463,85.9856544 C87.7935332,85.6755534 81.7226242,79.3836344 81.7226242,79.3836344 C82.0242404,78.5622203 83.1375737,78.5432304 83.1375737,78.5432304 Z" id="path114" fill="#C3B571"></path>
                    </g>
                </g>
            </g>
        </g>
    </g>
</svg>