<?xml version="1.0" encoding="UTF-8"?>
<svg width="200px" height="200px" viewBox="0 0 200 200" version="1.1" xmlns="http://www.w3.org/2000/svg" xmlns:xlink="http://www.w3.org/1999/xlink">
    <!-- Generator: Sketch 51.3 (57544) - http://www.bohemiancoding.com/sketch -->
    <title>winona-st</title>
    <desc>Created with Sketch.</desc>
    <defs></defs>
    <g id="winona-st" stroke="none" stroke-width="1" fill="none" fill-rule="evenodd">
        <g id="winona-st_BGL" transform="translate(19.000000, 0.000000)">
            <g id="winona-st" transform="translate(0.934426, 0.000000)">
                <g fill-rule="nonzero" id="Shape">
                    <path d="M111.353005,0.087431694 C113.293989,0.0174863388 115.2,5.86336535e-15 117.088525,0.43715847 C120.008743,1.04918033 122.859016,2.43060109 124.957377,4.58142077 C125.167213,4.80874317 125.446995,4.6863388 125.70929,4.6863388 C129.206557,4.45901639 132.843716,4.61639344 136.253552,5.49071038 C138.963934,6.20765027 141.551913,7.41420765 143.580328,9.3726776 C145.678689,11.3836066 147.042623,14.1114754 147.287432,17.031694 C148.686339,17.4513661 150.085246,17.8885246 151.414208,18.5180328 C154.334426,19.8644809 156.939891,21.8579235 158.531148,24.7081967 C159.457923,26.3344262 159.895082,28.1355191 160.139891,29.9715847 L160.139891,32.8393443 C159.877596,34.3431694 159.685246,36.1092896 159.003279,37.5081967 C158.531148,37.6480874 158.006557,37.6655738 157.51694,37.7530055 C151.816393,38.5923497 146.045902,39.9562842 140.695082,42.0896175 C134.190164,44.6775956 128.244809,48.4021858 123.645902,53.7180328 C117.718033,60.5027322 114.692896,69.6830601 115.322404,78.6710383 C115.357377,79.020765 115.427322,79.0907104 115.759563,79.1781421 C123.278689,81.2240437 130.238251,85.1759563 135.851366,90.579235 C141.586885,96.052459 146.028415,102.959563 149.036066,110.268852 C150.015301,112.646995 150.872131,115.095082 151.501639,117.595628 C151.728962,118.522404 151.991257,119.344262 151.851366,120.306011 C151.676503,121.669945 150.92459,122.824044 149.87541,123.680874 C148.511475,124.817486 146.955191,125.464481 145.276503,125.971585 C145.363934,126.146448 145.451366,126.321311 145.538798,126.496175 C148.896175,131.742077 152.16612,137.07541 155.22623,142.513661 C155.785792,143.492896 155.960656,144.646995 155.663388,145.748634 C155.331148,146.850273 154.561749,147.742077 153.704918,148.493989 C152.393443,149.595628 150.819672,150.4 149.228415,151.012022 C149.053552,151.11694 148.703825,151.151913 148.738798,151.431694 C148.738798,153.285246 148.511475,155.243716 147.549727,156.869945 C147.165027,157.534426 146.622951,158.04153 146.010929,158.478689 C146.640437,158.985792 147.409836,159.353005 147.777049,160.104918 C148.056831,160.594536 147.444809,161.206557 147.287432,161.678689 C146.885246,162.745355 146.430601,163.91694 146.308197,165.071038 C147.986885,167.046995 148.10929,169.79235 148.196721,172.257923 C148.021858,173.289617 148.406557,174.23388 148.161749,175.265574 C147.91694,177.04918 146.850273,178.553005 145.398907,179.567213 C143.28306,181.053552 140.485246,181.718033 137.967213,182.102732 C133.805464,182.679781 129.521311,182.627322 125.342077,182.190164 C125.062295,182.120219 124.957377,182.4 124.834973,182.59235 C123.296175,185.145355 121.774863,187.925683 120.918033,190.775956 C120.463388,192.297268 120.183607,193.95847 120.428415,195.53224 C120.638251,196.77377 121.355191,197.997814 122.579235,198.469945 C123.995628,198.907104 125.604372,199.256831 126.845902,200.061202 L108.695082,200.061202 C108.362842,199.204372 108.187978,198.260109 107.978142,197.35082 C107.243716,194.028415 106.666667,190.653552 106.12459,187.296175 C106.019672,186.64918 106.054645,186.019672 106.054645,185.372678 C106.089617,183.046995 105.93224,180.598907 105.26776,178.360656 C104.918033,177.24153 104.306011,175.930055 103.291803,175.265574 C102.977049,175.108197 102.469945,174.723497 102.330055,175.28306 C100.354098,180.511475 96.4721311,184.88306 91.6808743,187.715847 C91.5060109,187.803279 91.3486339,187.873224 91.1737705,187.943169 C92.1005464,186.579235 92.8874317,185.180328 93.5868852,183.676503 C95.3355191,179.969399 96.8393443,176.122404 98.273224,172.292896 C98.3606557,171.995628 98.5530055,171.768306 98.3431694,171.471038 C97.8885246,171.103825 97.2240437,171.138798 96.6819672,171.121311 C95.6852459,171.156284 94.6710383,171.278689 93.7092896,171.540984 C93.2196721,171.873224 92.8699454,172.362842 92.3103825,172.625137 C89.8448087,173.989071 86.7497268,174.163934 84.0218579,174.408743 C83.7945355,176.017486 83.5846995,177.643716 83.2349727,179.234973 C82.8153005,181.140984 82.2907104,183.169399 81.3464481,184.900546 C80.8743169,185.757377 80.2448087,186.64918 79.3355191,187.086339 C78.5661202,187.488525 77.4994536,187.36612 76.8699454,186.771585 C76.7300546,184.918033 76.6251366,183.064481 75.5409836,181.473224 C74.8065574,180.371585 73.4775956,179.829508 72.1836066,180.004372 C71.7289617,180.074317 71.3092896,180.091803 71.0295082,180.528962 C68.8961749,183.396721 66.8502732,186.369399 65.1540984,189.51694 C64.052459,191.580328 62.9857923,193.871038 62.5311475,196.179235 C62.2688525,197.473224 62.3213115,198.767213 62.6360656,200.061202 L58.3868852,200.061202 C58.1245902,198.749727 57.9147541,197.49071 57.1978142,196.336612 C56.4983607,195.130055 55.431694,194.133333 54.1027322,193.661202 C53.8579235,193.556284 53.7005464,193.696175 53.5081967,193.801093 C51.3398907,195.165027 48.8568306,196.126776 46.3912568,196.808743 C42.2295082,197.945355 37.8404372,198.434973 33.5387978,198.469945 C32.6644809,198.522404 31.8076503,198.73224 30.915847,198.749727 C28.852459,198.784699 26.7715847,198.295082 24.9530055,197.298361 C24.4284153,197.001093 23.9213115,196.721311 23.5016393,196.266667 C24.4284153,195.182514 25.1453552,193.888525 25.7398907,192.612022 C26.9114754,190.04153 27.6459016,187.278689 28.1879781,184.515847 C28.8174863,181.263388 29.1497268,178.028415 29.3945355,174.723497 C29.7617486,168.533333 29.6918033,162.413115 29.2896175,156.222951 C28.2928962,155.855738 27.2437158,155.680874 26.2644809,155.261202 C23.6240437,154.246995 21.2808743,152.498361 19.5846995,150.242623 C17.2939891,147.2 16.1748634,143.545355 15.8775956,139.768306 C14.3038251,139.121311 12.8349727,138.264481 11.6284153,137.040437 C9.30273224,134.802186 7.99125683,131.759563 7.3442623,128.699454 C6.7147541,125.866667 6.67978142,123.016393 6.87213115,120.131148 C4.65136612,118.032787 2.93770492,115.479781 2.15081967,112.52459 C1.27650273,109.289617 1.55628415,105.862295 2.69289617,102.73224 C2.83278689,102.365027 3.02513661,101.997814 3.11256831,101.613115 C2.83278689,101.088525 2.46557377,100.616393 2.18579235,100.091803 C0.786885246,97.6786885 -0.087431694,94.968306 0.0524590164,92.1530055 C0.192349727,89.2327869 1.46885246,86.3825137 3.46229508,84.2666667 C3.58469945,84.1092896 3.79453552,83.9519126 3.81202186,83.7595628 C3.63715847,83.147541 3.35737705,82.5879781 3.18251366,81.9759563 C2.27322404,79.2131148 2.0284153,76.2579235 2.76284153,73.442623 C3.54972678,70.4349727 5.42076503,67.6371585 7.90382514,65.7486339 C7.78142077,64.3147541 7.50163934,63.020765 7.71147541,61.5868852 C7.90382514,58.789071 8.95300546,56.1136612 10.7016393,53.9103825 C12.9923497,51.0076503 16.1398907,49.031694 19.5497268,47.7202186 C19.3748634,44.5377049 20.4939891,41.442623 22.6448087,39.0994536 C25.3027322,36.1617486 29.2196721,34.3431694 33.0142077,33.3989071 C33.2590164,32.4546448 33.5038251,31.5103825 33.8885246,30.6010929 C35.0251366,27.8907104 36.9486339,25.6699454 39.2743169,23.9038251 C42.7191257,21.2983607 46.968306,19.6721311 51.1825137,18.7978142 C51.4622951,18.7628415 51.5672131,18.5530055 51.7245902,18.3431694 C53.9103825,14.9508197 56.9879781,12.0655738 60.6251366,10.2819672 C64.0174863,8.60327869 67.8819672,7.83387978 71.6590164,7.90382514 C72.9879781,7.8863388 74.3519126,8.13114754 75.6808743,8.28852459 C76.695082,7.15191257 77.779235,6.10273224 79.0032787,5.2284153 C81.7136612,3.21748634 84.9311475,2.04590164 88.2710383,1.64371585 C92.0830601,1.24153005 95.9650273,1.64371585 99.6196721,2.83278689 C99.8994536,2.92021858 100.196721,3.04262295 100.493989,3.07759563 C100.913661,2.95519126 101.315847,2.74535519 101.718033,2.5704918 C104.743169,1.29398907 108.065574,0.332240437 111.353005,0.087431694 Z" fill="#5F287C"></path>
                    <path d="M112.577049,5.03606557 C115.619672,5.12349727 118.574863,6.31256831 120.795628,8.41092896 C120.218579,9.11038251 119.606557,9.77486339 119.046995,10.4918033 C114.587978,16.0174863 111.318033,22.6098361 108.974863,29.2896175 C106.194536,37.263388 104.533333,45.6218579 103.851366,54.0327869 C102.504918,54.2601093 101.15847,54.4874317 99.8120219,54.7846995 C99.4797814,54.8546448 99.147541,54.8896175 98.8153005,54.9071038 C98.7628415,48.3672131 98.7453552,41.8797814 99.0601093,35.3224044 C99.304918,29.6568306 99.7420765,23.9562842 100.598907,18.3256831 C101.036066,15.5978142 101.543169,12.852459 102.365027,10.2120219 C102.644809,9.35519126 102.92459,8.49836066 103.344262,7.69398907 C103.501639,7.30928962 104.02623,7.15191257 104.35847,6.95956284 C106.928962,5.71803279 109.70929,4.93114754 112.577049,5.03606557 Z" fill="#FFFFFF"></path>
                    <path d="M95.9300546,7.92131148 C96.0699454,7.95628415 96.1224044,8.06120219 96.104918,8.21857923 C95.3879781,16.8218579 94.8459016,25.4601093 94.7759563,34.0983607 C94.7584699,34.5704918 94.7234973,35.0251366 94.7409836,35.4972678 C94.7409836,39.6939891 94.8284153,43.9081967 95.1081967,48.0874317 C95.3005464,50.4306011 95.4928962,52.7912568 95.9125683,55.0994536 C95.895082,55.3092896 96.104918,55.6415301 95.7901639,55.6765027 C94.0415301,56.0961749 92.3278689,56.6382514 90.579235,57.0754098 C89.6,54.0502732 88.7606557,50.9901639 87.9737705,47.895082 C84.9836066,35.9868852 82.3956284,23.9737705 79.8251366,11.9606557 C79.7901639,11.6808743 79.6327869,11.3661202 79.8601093,11.1387978 C81.6612022,9.0579235 84.179235,7.60655738 86.9071038,7.09945355 C89.8972678,6.53989071 93.0797814,6.90710383 95.9300546,7.92131148 Z" fill="#FFFFFF"></path>
                    <path d="M137.809836,11.6808743 C140.013115,13.2021858 141.84918,15.4754098 142.723497,18.0284153 C140.345355,19.1125683 138.072131,20.4240437 135.938798,21.9628415 C131.095082,25.442623 126.863388,29.9016393 123.208743,34.5879781 C118.784699,40.3060109 115.042623,46.4961749 111.877596,52.9836066 C110.198907,53.1934426 108.502732,53.3508197 106.806557,53.5781421 C108.013115,41.757377 112,30.2513661 118.522404,20.284153 C120.865574,16.7169399 123.506011,13.3071038 126.548634,10.2994536 C126.828415,10.0371585 127.09071,9.72240437 127.422951,9.53005464 C131.025137,9.04043716 134.767213,9.58251366 137.809836,11.6808743 Z" fill="#FFFFFF"></path>
                    <path d="M73.704918,12.8874317 C74.5617486,16.4896175 75.6983607,20.0393443 76.747541,23.589071 C80.104918,34.5704918 83.6021858,45.4994536 87.0994536,56.4284153 C87.2568306,56.9530055 87.484153,57.495082 87.5715847,58.0371585 C87.3967213,58.1770492 87.1519126,58.2469945 86.9420765,58.3169399 C84.5289617,59.1562842 82.1857923,60.1530055 79.8601093,61.2196721 C71.9387978,47.7027322 64.0699454,34.1333333 56.1486339,20.6163934 C57.8972678,17.7486339 60.3103825,15.3530055 63.3879781,13.936612 C66.6404372,12.4852459 70.2601093,12.1879781 73.704918,12.8874317 Z" fill="#FFFFFF"></path>
                    <path d="M147.549727,21.5606557 C149.123497,21.9978142 150.679781,22.7147541 151.956284,23.7464481 C153.180328,24.7431694 154.107104,26.0896175 154.579235,27.5934426 C155.17377,29.4644809 155.121311,31.5628415 154.596721,33.4338798 C149.15847,34.168306 143.842623,35.5497268 138.824044,37.7704918 C132.004372,40.7781421 125.691803,45.2371585 120.813115,50.8852459 C120.306011,51.4448087 119.903825,52.0743169 119.379235,52.6163934 C117.753005,52.6863388 116.144262,52.6863388 114.518033,52.7912568 C118.522404,44.1879781 124.730055,36.9661202 132.074317,31.0382514 C136.55082,27.4360656 141.429508,24.2710383 146.605464,21.7704918 C146.937705,21.6480874 147.2,21.4557377 147.549727,21.5606557 Z" fill="#FFFFFF"></path>
                    <path d="M50.4480874,23.8163934 C50.8153005,24.4459016 51.2349727,25.0229508 51.6371585,25.6349727 C59.9431694,38.0852459 68.2491803,50.5180328 76.5377049,62.968306 C74.2994536,64.1923497 72.1136612,65.5387978 70.0502732,67.0601093 C68.4415301,65.5038251 66.9027322,63.895082 65.3114754,62.3213115 C55.8513661,52.7562842 46.3737705,43.2262295 36.8961749,33.6786885 C37.315847,31.9825137 38.2076503,30.3737705 39.379235,29.0797814 C41.2677596,26.9639344 43.8557377,25.5650273 46.5136612,24.6907104 C47.7901639,24.2885246 49.1016393,23.9387978 50.4480874,23.8163934 Z" fill="#FFFFFF"></path>
                    <path d="M31.9650273,38.1377049 C43.6808743,48.4721311 55.431694,58.9114754 67.1650273,69.2459016 C66.6229508,69.7704918 66.0459016,70.2251366 65.4863388,70.7322404 C64.5595628,71.5715847 63.7027322,72.4983607 62.7934426,73.3726776 C50.0284153,65.1016393 37.2284153,56.8655738 24.463388,48.5945355 C24.1661202,48.4021858 23.8688525,48.2273224 23.5715847,48.052459 C23.484153,45.7442623 24.2710383,43.3136612 25.8448087,41.5825137 C27.4010929,39.8163934 29.6568306,38.6448087 31.9650273,38.1377049 Z" fill="#FFFFFF"></path>
                    <path d="M19.7770492,52.9486339 C27.0513661,57.0404372 34.3606557,61.0972678 41.6349727,65.189071 C47.9650273,68.7213115 54.295082,72.3060109 60.642623,75.8032787 C59.6983607,77.0972678 58.7016393,78.3213115 57.8448087,79.6852459 C55.7639344,79.0032787 53.7005464,78.2338798 51.6371585,77.5169399 C38.7322404,72.9879781 25.8273224,68.4765027 12.9398907,63.947541 C12.6251366,63.0032787 12.4327869,62.0065574 12.4852459,61.0098361 C12.5202186,59.4010929 13.1672131,57.8972678 14.1464481,56.6382514 C15.3879781,55.0819672 17.1191257,53.8579235 18.9027322,53.0010929 C19.2174863,52.8961749 19.4448087,52.7213115 19.7770492,52.9486339 Z" fill="#FFFFFF"></path>
                    <path d="M107.348634,60.852459 C108.625137,60.7650273 109.919126,60.8349727 111.195628,60.8174863 C110.356284,61.9191257 110.128962,63.4579235 109.901639,64.7868852 C109.272131,69.0710383 109.167213,73.4775956 109.097268,77.8142077 C106.876503,77.726776 104.673224,77.6918033 102.452459,77.7967213 C95.1606557,78.1639344 87.8338798,79.4579235 80.7693989,81.2415301 C80.6295082,81.2765027 80.4896175,81.2939891 80.3497268,81.3114754 C80.2972678,80.6644809 80.2273224,80.0349727 80.157377,79.3879781 C86.3650273,76.9398907 92.7125683,75.0163934 99.304918,73.8972678 C101.438251,73.547541 103.589071,73.2677596 105.757377,73.1628415 C105.512568,71.9737705 105.739891,70.6273224 105.862295,69.420765 C106.229508,66.5355191 106.736612,63.6852459 107.348634,60.852459 Z" fill="#FFFFFF"></path>
                    <path d="M11.0163934,69.6306011 C11.4710383,69.6480874 11.9431694,69.8579235 12.3803279,69.9803279 C26.9289617,74.2120219 41.4601093,78.4786885 56.0087432,82.7103825 C55.2393443,84.2666667 54.4349727,85.8054645 53.8229508,87.431694 C53.6830601,87.6765027 53.6830601,88.0786885 53.315847,87.9562842 C49.8710383,87.326776 46.4437158,86.8021858 42.9989071,86.2775956 C31.7027322,84.5989071 20.389071,83.042623 9.07540984,81.5213115 C8.69071038,81.4513661 8.2010929,81.4688525 7.86885246,81.2939891 C6.67978142,79.4754098 6.24262295,77.1846995 6.88961749,75.0863388 C7.55409836,72.9005464 9.16284153,70.9595628 11.0163934,69.6306011 Z" fill="#FFFFFF"></path>
                    <path d="M94.0415301,82.5704918 C98.3081967,82.5704918 102.784699,83.3224044 106.561749,85.4032787 C109.70929,87.0994536 112.279781,89.7224044 113.95847,92.8699454 C115.72459,96.1398907 116.668852,99.9519126 116.703825,103.676503 C117.927869,103.361749 119.151913,102.959563 120.375956,102.644809 C120.428415,104.061202 120.953005,105.337705 122.054645,106.264481 C123.75082,107.733333 126.286339,108.327869 128.472131,108.590164 C129.486339,108.747541 130.518033,108.677596 131.53224,108.8 C132.24918,110.915847 132.913661,113.031694 133.35082,115.234973 C133.49071,115.951913 133.648087,116.63388 133.648087,117.368306 C128.33224,117.87541 123.016393,118.784699 117.87541,120.201093 C114.29071,121.197814 110.706011,122.491803 107.418579,124.240437 C106.107104,124.939891 104.795628,125.726776 103.659016,126.653552 C102.365027,126.671038 101.088525,126.653552 99.7945355,126.653552 C100.039344,127.318033 100.371585,127.930055 100.598907,128.594536 C101.560656,131.322404 101.68306,134.242623 101.175956,137.07541 C100.77377,139.383607 99.9519126,141.569399 98.9027322,143.632787 C98.5180328,145.95847 97.4163934,147.899454 96.1923497,149.87541 C94.3737705,152.743169 92.2054645,155.453552 90.0196721,158.04153 C86.2601093,162.48306 82.220765,166.662295 78.0765027,170.754098 C76.5901639,172.660109 74.8765027,174.303825 72.6032787,175.248087 C70.3300546,176.209836 67.7420765,176.402186 65.3639344,175.772678 C64.7693989,175.66776 64.4371585,175.160656 64.104918,174.688525 C63.6153005,173.919126 63.5103825,172.957377 63.895082,172.118033 C64.3322404,171.103825 65.2590164,170.281967 66.1508197,169.669945 C66.5180328,169.442623 66.6054645,169.092896 66.7978142,168.725683 C68.4939891,165.123497 69.8579235,161.154098 70.1377049,157.167213 C70.3825137,153.967213 69.8754098,150.73224 68.389071,147.864481 C66.7453552,144.646995 63.9825137,142.024044 60.7300546,140.46776 C60.4677596,140.362842 60.4852459,140.118033 60.3978142,139.89071 C58.8590164,134.172678 57.8098361,128.139891 57.8797814,122.194536 C57.8797814,116.511475 58.9464481,110.740984 61.3071038,105.547541 C63.6153005,100.406557 67.2,95.9125683 71.5715847,92.3803279 C77.0098361,87.9562842 83.6196721,84.8786885 90.4043716,83.147541 C91.5934426,82.9027322 92.852459,82.5180328 94.0415301,82.5704918 Z" fill="#FFFFFF"></path>
                    <path d="M9.25027322,87.0819672 C10.9989071,87.1519126 12.747541,87.2568306 14.4961749,87.379235 C21.9628415,87.9562842 29.4295082,88.7256831 36.8786885,89.5125683 C42.0721311,90.0896175 47.2830601,90.631694 52.4590164,91.2786885 C51.9344262,93.0622951 51.4797814,94.8459016 51.147541,96.6644809 C47.1956284,96.5595628 43.2786885,96.7169399 39.326776,96.8393443 C30.7584699,97.189071 22.1901639,97.6437158 13.6218579,98.168306 C11.2612022,98.2907104 8.90054645,98.5005464 6.52240437,98.5879781 C5.91038251,97.5562842 5.38579235,96.4896175 5.14098361,95.3005464 C4.49398907,92.5027322 5.24590164,89.4775956 6.85464481,87.1519126 C7.62404372,87.0295082 8.46338798,87.0644809 9.25027322,87.0819672 Z" fill="#FFFFFF"></path>
                    <path d="M50.6054645,100.004372 C50.4131148,101.87541 50.273224,103.763934 50.1857923,105.652459 C49.9759563,105.774863 49.6961749,105.757377 49.4688525,105.79235 C47.4754098,105.984699 45.4819672,106.31694 43.5234973,106.666667 C37.5781421,107.75082 31.6852459,109.272131 25.8797814,110.915847 C20.5289617,112.437158 15.2131148,114.098361 9.93224044,115.864481 C9.77486339,115.91694 9.61748634,115.951913 9.46010929,116.004372 C8.18360656,114.727869 7.11693989,113.276503 6.52240437,111.545355 C5.66557377,109.13224 5.84043716,106.386885 6.80218579,104.02623 C6.9420765,103.728962 7.01202186,103.44918 7.37923497,103.379235 C8.60327869,103.064481 9.87978142,102.942077 11.1213115,102.784699 C16.9092896,102.155191 22.7147541,101.770492 28.5202186,101.35082 C35.8295082,100.861202 43.2262295,100.406557 50.6054645,100.004372 Z" fill="#FFFFFF"></path>
                    <path d="M49.2065574,109.412022 C49.5387978,109.342077 49.8710383,109.272131 50.2032787,109.219672 C50.220765,111.47541 50.4655738,113.713661 50.6404372,115.969399 C48.8743169,116.546448 47.1606557,117.298361 45.4469945,118.06776 C40.0786885,120.55082 34.8852459,123.610929 29.9191257,126.845902 C25.652459,129.643716 21.473224,132.598907 17.4338798,135.728962 C14.968306,133.927869 12.9923497,131.514754 11.9081967,128.646995 C11.1038251,126.496175 10.7191257,124.08306 11.0338798,121.79235 C16,119.186885 21.4032787,117.193443 26.736612,115.462295 C34.115847,113.04918 41.652459,111.108197 49.2065574,109.412022 Z" fill="#FFFFFF"></path>
                    <path d="M51.2174863,119.851366 C51.5672131,122.072131 52.0218579,124.257923 52.5114754,126.443716 C49.3289617,128.454645 46.3912568,130.990164 43.610929,133.525683 C38.2775956,138.491803 33.2939891,143.877596 28.5377049,149.403279 L28.4502732,149.473224 C26.4568306,149.385792 24.515847,148.598907 23.1868852,147.077596 C21.7005464,145.398907 21.1060109,143.28306 20.8961749,141.097268 C21.9103825,139.855738 23.0994536,138.719126 24.2710383,137.617486 C27.0688525,135.081967 30.1289617,132.791257 33.2240437,130.657923 C38.4174863,127.09071 43.8907104,123.820765 49.4163934,120.795628 C50.010929,120.480874 50.6054645,120.131148 51.2174863,119.851366 Z" fill="#FFFFFF"></path>
                    <path d="M133.578142,120.288525 C134.015301,120.236066 134.4,120.638251 134.714754,120.900546 C136.078689,122.159563 136.603279,124.048087 136.323497,125.84918 C133.962842,126.268852 131.584699,126.723497 129.276503,127.405464 C128.122404,127.755191 126.863388,128.157377 125.831694,128.839344 C125.464481,129.101639 125.027322,129.43388 124.99235,129.923497 C124.939891,130.48306 125.412022,130.885246 125.831694,131.182514 C126.775956,131.812022 127.930055,132.214208 129.014208,132.563934 C130.185792,132.913661 131.374863,133.228415 132.581421,133.438251 C132.563934,134.749727 132.371585,136.096175 132.074317,137.372678 C131.637158,139.156284 130.832787,141.009836 129.468852,142.286339 C128.279781,143.422951 126.671038,144.069945 125.027322,144.034973 C125.167213,145.731148 124.887432,147.304918 124.485246,148.931148 C125.219672,149.595628 125.70929,150.347541 126.006557,151.291803 C126.531148,152.970492 126.391257,154.701639 125.989071,156.397814 C127.178142,156.397814 128.33224,156.118033 129.328962,155.436066 C130.518033,154.614208 131.269945,153.355191 131.619672,151.956284 C133.857923,151.921311 136.02623,151.274317 137.879781,149.997814 C140.415301,148.266667 142.268852,145.538798 143.370492,142.723497 C143.650273,142.128962 143.405464,141.534426 143.213115,140.939891 C142.461202,138.806557 141.359563,136.760656 140.310383,134.767213 C140.030601,134.190164 140.222951,133.368306 140.415301,132.77377 C140.782514,131.829508 141.70929,131.427322 142.671038,131.444809 C143.248087,131.479781 143.982514,131.409836 144.33224,131.969399 C147.269945,135.501639 149.68306,139.506011 151.816393,143.562842 C152.16612,144.157377 152.02623,144.874317 151.676503,145.451366 C151.221858,146.185792 150.434973,146.727869 149.68306,147.130055 C147.794536,148.10929 145.853552,148.563934 143.790164,148.96612 C143.80765,149.578142 143.772678,150.155191 144.174863,150.662295 C144.542077,151.169399 145.04918,151.361749 145.591257,151.571585 C145.57377,152.480874 145.591257,153.320219 145.206557,154.177049 C144.961749,154.736612 144.489617,155.261202 143.860109,155.348634 C140.292896,155.803279 136.638251,156.432787 133.245902,157.656831 C132.983607,157.761749 133.053552,157.936612 133.263388,158.076503 C133.770492,158.478689 134.452459,158.671038 135.064481,158.880874 C136.498361,159.300546 137.949727,159.650273 139.436066,159.825137 C140.625137,160.017486 141.919126,160.227322 143.020765,160.751913 C143.457923,160.961749 143.947541,161.276503 144.017486,161.801093 C144.017486,162.185792 143.790164,162.395628 143.545355,162.657923 C143.195628,163.00765 143.055738,163.479781 142.898361,163.91694 C142.461202,165.368306 142.618579,166.977049 143.318033,168.323497 C143.842623,169.355191 144.279781,170.456831 144.489617,171.593443 C144.664481,172.660109 144.629508,173.779235 144.087432,174.740984 C143.440437,175.895082 142.198907,176.559563 140.939891,176.856831 C139.138798,177.206557 137.355191,177.486339 135.519126,177.503825 C130.640437,177.591257 125.674317,176.646995 121.005464,175.265574 C120.323497,175.108197 119.903825,174.653552 119.291803,174.356284 C117.595628,173.464481 115.846995,172.642623 114.115847,171.838251 C110.181421,170.019672 106.246995,168.271038 102.277596,166.539891 C101.560656,166.242623 100.896175,165.87541 100.266667,165.403279 C97.8535519,163.584699 96.1224044,160.681967 95.0032787,157.919126 C94.9333333,157.656831 94.6535519,157.254645 94.8983607,157.027322 C97.7661202,153.530055 100.406557,149.68306 102.330055,145.57377 C103.711475,142.601093 104.760656,139.383607 105.057923,136.096175 C105.285246,133.613115 105.07541,131.095082 104.113661,128.786885 C104.708197,128.472131 105.26776,128.104918 105.862295,127.790164 C111.370492,124.695082 117.613115,122.701639 123.803279,121.530055 C127.003279,120.848087 130.29071,120.445902 133.578142,120.288525 Z" fill="#FFFFFF"></path>
                    <path d="M54.1726776,135.64153 C54.7672131,138.50929 55.8338798,141.254645 57.2327869,143.825137 C59.8907104,145.101639 62.3737705,146.972678 64.0174863,149.455738 C65.5213115,151.693989 66.2382514,154.334426 66.2907104,157.027322 C66.3256831,160.472131 65.4513661,163.899454 63.9825137,167.012022 C63.7377049,167.64153 63.1081967,167.83388 62.6010929,168.253552 C60.9923497,169.442623 59.2262295,171.016393 58.5967213,172.974863 C58.1071038,174.443716 58.526776,175.947541 59.4360656,177.136612 C60.6251366,178.67541 62.3737705,179.812022 64.1224044,180.581421 C63.1431694,181.315847 62.4786885,182.295082 61.726776,183.274317 C60.3803279,185.057923 59.1912568,186.928962 57.9147541,188.747541 C56.7256831,188.048087 55.1693989,188.013115 53.8404372,188.135519 C51.0775956,188.397814 48.2972678,189.32459 45.7442623,190.338798 C44.747541,181.700546 44.2928962,173.044809 44.904918,164.354098 C45.4295082,157.377049 46.6535519,150.085246 49.3289617,143.580328 C50.3431694,141.149727 51.5846995,138.719126 53.1934426,136.620765 C53.4907104,136.271038 53.7530055,135.868852 54.1726776,135.64153 Z" fill="#FFFFFF"></path>
                    <path d="M45.0797814,139.418579 C45.4469945,139.383607 45.5693989,139.768306 45.5868852,140.065574 C45.5868852,140.572678 45.6568306,141.254645 45.2546448,141.639344 C43.5060109,143.66776 42.1420765,146.028415 41.0754098,148.476503 C39.5540984,152.008743 38.6273224,155.698361 38.0327869,159.492896 C37.315847,164.10929 37.1060109,168.813115 37.3333333,173.481967 C37.6306011,175.685246 37.420765,177.783607 37.2284153,179.969399 C36.8262295,183.816393 36.2491803,187.645902 35.6196721,191.457923 C35.5672131,191.737705 35.5147541,192.017486 35.4448087,192.279781 C34.4830601,192.52459 33.5213115,192.734426 32.5071038,192.681967 C31.5453552,192.681967 30.6010929,192.419672 29.936612,191.685246 C30.4786885,190.845902 30.6710383,189.971585 30.915847,189.027322 C31.4928962,186.544262 31.8775956,184.02623 32.2622951,181.508197 C32.7344262,178.185792 33.1715847,174.863388 33.5213115,171.540984 C33.5737705,169.914754 33.5213115,168.288525 33.6262295,166.644809 C33.9759563,160.751913 35.2874317,154.893989 37.5256831,149.420765 C37.9453552,148.44153 38.3125683,147.497268 38.9245902,146.640437 C40.3409836,144.559563 41.7748634,142.391257 43.4885246,140.555191 C43.9081967,140.135519 44.4502732,139.506011 45.0797814,139.418579 Z" fill="#FFFFFF"></path>
                    <path d="M96.6644809,171.103825 C97.2065574,171.103825 97.8885246,171.086339 98.3256831,171.453552 C98.5180328,171.75082 98.3256831,171.978142 98.2557377,172.27541 C96.8218579,176.104918 95.3180328,179.951913 93.5693989,183.659016 C92.8699454,185.162842 92.0830601,186.561749 91.1562842,187.925683 C91.3311475,187.855738 91.5060109,187.785792 91.663388,187.698361 C96.4546448,184.865574 100.336612,180.493989 102.312568,175.265574 C102.452459,174.706011 102.942077,175.09071 103.274317,175.248087 C104.288525,175.912568 104.900546,177.224044 105.250273,178.343169 C105.914754,180.598907 106.072131,183.029508 106.037158,185.355191 C106.037158,186.002186 106.002186,186.631694 106.107104,187.278689 C106.64918,190.636066 107.22623,194.010929 107.960656,197.333333 C108.187978,198.242623 108.345355,199.186885 108.677596,200.043716 L62.6360656,200.043716 C62.3213115,198.767213 62.2688525,197.455738 62.5311475,196.161749 C62.9857923,193.853552 64.052459,191.580328 65.1540984,189.499454 C66.8502732,186.369399 68.8961749,183.379235 71.0295082,180.511475 C71.3092896,180.074317 71.7289617,180.074317 72.1836066,179.986885 C73.4775956,179.812022 74.8065574,180.354098 75.5409836,181.455738 C76.6251366,183.046995 76.7300546,184.900546 76.8699454,186.754098 C77.4994536,187.348634 78.5661202,187.471038 79.3355191,187.068852 C80.2448087,186.631694 80.8743169,185.739891 81.3464481,184.88306 C82.2907104,183.151913 82.8153005,181.123497 83.2349727,179.217486 C83.5846995,177.62623 83.7945355,176 84.0218579,174.391257 C86.7497268,174.128962 89.8448087,173.971585 92.3103825,172.60765 C92.852459,172.345355 93.2021858,171.838251 93.7092896,171.523497 C94.6535519,171.261202 95.6852459,171.138798 96.6644809,171.103825 Z" fill="#FFFFFF"></path>
                </g>
            </g>
        </g>
    </g>
</svg>