<?xml version="1.0" encoding="UTF-8"?>
<svg width="200px" height="200px" viewBox="0 0 200 200" version="1.1" xmlns="http://www.w3.org/2000/svg" xmlns:xlink="http://www.w3.org/1999/xlink">
    <!-- Generator: Sketch 51.3 (57544) - http://www.bohemiancoding.com/sketch -->
    <title>wis-la-crosse</title>
    <desc>Created with Sketch.</desc>
    <defs></defs>
    <g id="wis-la-crosse" stroke="none" stroke-width="1" fill="none" fill-rule="evenodd">
        <g id="wis-la-crosse_BGL" transform="translate(0.000000, 25.000000)" fill="#850129">
            <g id="wis-la-crosse">
                <path d="M70.6200318,0.445991561 C85.7551669,0.477848101 101.558029,0.445991561 116.693164,0.477848101 C118.410175,0.541561181 120.063593,0.254852321 121.780604,0.382278481 C129.189189,0.382278481 136.629571,0.414135021 144.038156,0.382278481 C146.327504,0.1592827 148.553259,0.605274262 150.810811,0.254852321 C150.874404,0.414135021 150.937997,0.573417722 150.969793,0.700843882 C149.062003,1.33797468 147.344992,2.54852321 145.532591,3.44050633 C134.308426,9.62067511 123.211447,16.5335443 113.259141,24.6251055 C111.128776,26.4090717 109.030207,28.2248945 107.09062,30.2 C105.246423,32.0795359 103.338633,33.8635021 101.717011,35.9660338 C98.8871224,39.5339662 96.3751987,43.5478903 95.6120827,48.1352321 C95.3895072,50.4607595 95.4213037,52.8181435 95.5484897,55.1755274 C96.1208267,60.0814346 97.6470588,64.7324895 101.335453,68.1729958 C96.2798092,71.0400844 91.6057234,74.67173 87.5675676,78.8449367 C81.8759936,84.5154008 77.2019078,92.0016878 75.8982512,100.061392 C74.9125596,105.7 75.5484897,111.720886 78.4737679,116.722363 C81.3036566,121.787553 86.200318,125.482911 91.3513514,127.999578 C95.1987281,129.815401 99.3322734,131.185232 103.529412,131.886076 C102.066773,127.744726 101.748808,123.061814 102.63911,118.761181 C103.529412,114.17384 105.945946,109.968776 109.348172,106.751266 C113.6407,102.578059 119.26868,100.061392 124.896661,98.2455696 C131.860095,95.8881857 138.887122,93.7219409 145.945946,91.7149789 C162.225755,87.0320675 178.600954,82.8907173 195.039746,78.9086498 C196.693164,78.5263713 198.346582,78.2396624 199.968203,77.6662447 C199.777424,78.5900844 199.332273,79.3864979 198.918919,80.2147679 C187.885533,103.342616 176.915739,126.566034 165.914149,149.725738 C165.500795,150.554008 165.437202,150.872574 164.419714,150.840717 C111.224165,150.840717 57.9968203,150.840717 4.80127186,150.840717 C3.21144674,150.872574 1.58982512,150.808861 1.70530257e-13,150.713291 C0.604133545,148.865612 1.3990461,147.081646 2.16216216,145.265823 C5.15103339,145.297679 8.10810811,145.329536 11.0969793,145.265823 C13.799682,144.915401 16.4705882,143.672996 18.6009539,142.016456 C20.63593,140.264346 22.4483307,138.352954 23.5930048,135.868143 C36.6295707,108.089241 49.8251192,80.3421941 62.8616852,52.5632911 C68.2352941,41.0949367 73.5771065,29.7540084 78.7917329,18.2219409 C79.872814,15.5778481 81.1764706,13.2523207 81.3672496,10.321519 C81.4308426,8.88797468 80.9220986,7.45443038 79.5866455,6.7535865 C77.6470588,5.76603376 75.8982512,6.14831224 73.799682,6.08459916 C71.4785374,6.05274262 69.1573927,6.18016878 66.8680445,6.02088608 C68.0445151,4.55548523 68.8712242,2.89894515 69.8887122,1.33797468 C70.0476948,0.955696203 70.2702703,0.382278481 70.6200318,0.445991561 Z" id="Shape" fill-rule="nonzero"></path>
                <path d="M150.715421,32.1751055 C150.937997,32.2388186 151.065183,32.3981013 151.096979,32.621097 C151.573927,34.5962025 152.019078,36.571308 152.464229,38.5464135 C150.556439,38.9924051 148.744038,39.8843882 147.154213,40.9993671 C144.515103,42.878903 142.829889,45.8097046 142.511924,49.0272152 C142.162162,51.0023207 142.670906,52.8181435 142.893482,54.7613924 C140.985692,55.271097 139.077901,55.8763713 137.233704,56.5453586 C136.756757,54.3472574 136.343402,52.02173 134.944356,50.1421941 C133.767886,48.5493671 131.860095,47.657384 129.856916,47.8166667 C128.553259,47.9440928 127.249603,48.3582278 126.041335,48.9316456 C124.45151,49.6962025 123.434022,51.4164557 123.434022,53.1685654 C123.27504,55.5896624 124.228935,57.9151899 125.18283,60.1132911 C122.193959,61.0052743 119.205087,61.992827 116.216216,62.9166667 C114.149444,60.3681435 112.782194,57.1187764 112.655008,53.8056962 C112.496025,51.0023207 113.513514,48.1670886 115.039746,45.8415612 C115.771065,44.8221519 116.629571,43.7708861 117.45628,42.8470464 C119.90461,40.6170886 122.54372,38.6738397 125.500795,37.2084388 C130.9062,34.5324895 137.488076,33.5449367 143.402226,32.7485232 C145.882353,32.621097 148.298887,32.3343882 150.715421,32.1751055 Z" id="Shape" fill-rule="nonzero"></path>
            </g>
        </g>
    </g>
</svg>