<?xml version="1.0" encoding="UTF-8"?>
<svg width="200px" height="200px" viewBox="0 0 200 200" version="1.1" xmlns="http://www.w3.org/2000/svg" xmlns:xlink="http://www.w3.org/1999/xlink">
    <!-- Generator: Sketch 51.3 (57544) - http://www.bohemiancoding.com/sketch -->
    <title>wis-stout</title>
    <desc>Created with Sketch.</desc>
    <defs></defs>
    <g id="wis-stout" stroke="none" stroke-width="1" fill="none" fill-rule="evenodd">
        <g id="wis-stout_BGL" transform="translate(0.000000, 37.810945)">
            <g id="wis-stout">
                <g id="g10" transform="translate(99.914308, 63.084591) scale(-1, 1) rotate(-180.000000) translate(-99.914308, -63.084591) translate(0.000000, 0.173433)" fill-rule="nonzero">
                    <g id="g12">
                        <path d="M166.9844,55.5383101 C167.994169,57.2596953 168.44147,58.4913938 168.639584,59.2361259 L158.510365,58.3665917 C158.510365,58.3665917 162.688599,55.7794128 166.9844,55.5383101" id="path14" fill="#FFFFFF"></path>
                        <path d="M158.510365,58.3665917 L168.639584,59.2361259 C168.44147,58.4913938 167.994169,57.2596953 166.9844,55.5383101 C162.688599,55.7794128 158.510365,58.3665917 158.510365,58.3665917 Z M158.26632,67.5403987 C152.520305,66.5042349 145.592113,61.3655836 145.592113,61.3655836 C145.592113,61.3655836 148.95321,63.0675854 153.940699,63.8551651 C157.078317,64.350973 160.03153,62.3048301 164.136414,60.7976828 C160.498025,60.1471475 153.742584,59.4751883 153.742584,59.4751883 C153.742584,59.4751883 158.74207,55.4111275 165.858094,53.7720368 C165.291513,52.8926408 164.449353,51.6269363 163.425531,50.5921328 C169.492712,53.4989684 171.888256,57.3827972 172.69614,59.1048626 C173.703852,59.0654156 174.844897,59.0069252 174.844897,59.0069252 C174.844897,59.0069252 177.002566,60.0764149 177.811135,62.7288853 C175.663063,60.5980674 158.457237,67.5750848 158.26632,67.5403987 Z" id="path16" fill="#1B458E"></path>
                        <path d="M153.305223,79.737682 C154.006851,79.1364553 154.875403,78.6930167 155.819019,78.4794588 C156.789371,78.8378824 157.776174,79.540447 158.698882,80.6806692 C164.11105,87.3696555 164.6365,96.5322406 160.657408,103.568088 C160.654323,103.571489 160.651238,103.57455 160.649867,103.57795 C157.92219,93.9896096 155.368634,92.1563445 152.130587,88.1133674 C151.261693,87.0278949 150.980288,85.3789425 151.22159,83.7622957 C153.598625,85.3082099 157.343269,89.0736978 160.214906,98.147527 C159.981487,87.5628098 155.869748,82.117424 153.305223,79.737682" id="path18" fill="#BDBCBC"></path>
                        <path d="M160.656037,103.569789 C164.6365,96.5332607 164.11105,87.3699956 158.698882,80.6806692 C157.774803,79.5394268 156.788,78.8368622 155.817648,78.4787787 C157.826217,78.0227578 160.173089,78.6124224 161.97943,80.9652997 C167.269919,87.8579821 166.45518,96.9930223 160.656037,103.569789" id="path20" fill="#FFFFFF"></path>
                        <path d="M160.540527,19.9061445 C159.948582,21.6389898 159.804966,24.8084539 159.804966,24.8084539 L159.804966,24.809134 C159.80428,24.809134 159.803595,24.809134 159.801881,24.8084539 C159.801881,30.2973674 161.991427,39.4663796 176.882601,47.9121175 C176.87883,47.9216392 175.799139,50.1371321 174.543955,51.7286144 C174.472318,51.7146719 151.058779,40.9779477 160.540527,19.9061445" id="path22" fill="#FFFFFF"></path>
                        <path d="M182.445925,63.2301342 L178.941898,67.4057348 C171.260664,67.6277942 163.898196,70.3356945 156.015763,73.050736 L158.333158,67.5346177 L158.344126,67.519655 C159.605137,67.1119227 175.737099,60.6701602 177.811135,62.7288853 C177.074888,60.3141171 175.227416,59.2147021 174.900767,59.0365105 L183.607536,45.1331446 C183.084828,45.1045796 182.491512,45.0681931 181.81045,45.0216048 C177.2329,44.7063689 175.825188,41.4880382 175.825188,41.4880382 C179.291169,44.3152996 188.011306,40.8864715 191.478316,42.6564854 C191.41799,42.8625619 180.334871,58.3053808 180.296139,58.4145402 C182.485342,60.7677575 182.445925,63.2301342 182.445925,63.2301342" id="path24" fill="#FFFFFF"></path>
                        <path d="M187.912592,7.38648404 C187.912592,7.38648404 184.310192,4.47485364 179.777888,2.45148799 C176.743783,3.02959052 114.40411,27.3085773 79.9598952,34.4406283 C74.2032544,35.6328797 59.1266481,36.4357621 54.6375308,36.559204 C56.5768623,37.1257445 78.881232,40.731744 79.5297324,49.7015149 C80.3369303,60.8820178 49.080033,68.1219018 13.8557666,81.1618545 C28.4329384,78.6508492 40.3465286,81.1390705 40.3465286,81.1390705 C40.3465286,81.1390705 19.310745,89.4202192 9.90652932,99.4264939 C35.4567258,88.5153187 79.5095096,93.3931438 81.7850879,97.4235386 C83.3480699,100.189589 58.120307,114.226939 52.748242,118.566448 C66.8373591,113.131605 86.6049678,111.596912 87.8508975,111.545903 C89.1821743,111.491494 111.661694,109.399103 120.71842,108.386403 C136.521676,106.536475 147.905395,103.472872 156.276603,99.7383292 C157.369319,102.188804 158.13093,105.131006 158.433586,109.051901 C163.876945,104.839914 167.29117,99.8743533 168.702309,94.9047119 C170.250895,97.3528061 171.427931,100.357239 172.078145,104.724293 C181.117048,96.652962 183.263749,86.5541909 178.967948,79.1044897 C181.901281,73.5084572 183.62296,68.2031762 186.833586,64.2333122 C185.281229,59.2096012 184.240955,58.4913938 184.26392,58.4917339 C184.185428,58.5855905 196.667005,41.5353065 196.667005,41.5353065 C196.667005,41.5353065 192.559035,37.0261068 187.03787,36.7081504 C185.125617,26.3978618 187.912592,7.38648404 187.912592,7.38648404 Z M199.71619,41.3737779 C199.71619,41.3737779 189.548239,55.2669419 187.147553,58.5498842 C187.792969,59.755398 188.445582,61.4240739 189.100252,63.5440099 L189.469061,64.7349011 L188.683457,65.7061134 C186.74721,68.0997979 185.382001,71.077366 183.800167,74.5252375 C183.122875,76.0048399 182.424674,77.5259297 181.640784,79.089527 C185.843012,87.7052951 184.366748,97.792164 170.378402,109.407944 C170.176174,105.185075 169.191084,102.100388 168.796225,100.810199 C166.760236,104.496793 161.831358,109.863965 156.406166,113.604969 C156.631359,111.003507 155.508137,104.740616 154.927503,102.873345 C145.91842,106.535795 134.782516,109.109371 120.984059,110.724318 C112.75441,111.644521 92.3622942,113.5543 87.8882583,113.899121 C83.4142224,114.244622 60.7996557,116.088089 39.5156802,125.741721 C39.5156802,125.741721 57.1557826,112.677624 61.7881733,109.754126 C66.8486701,106.559939 75.6877445,100.980229 78.6622088,98.2243807 C75.0005123,96.9015461 64.5768621,95.1254111 50.5264769,95.1243909 C34.6964859,95.1240508 14.0689285,98.3723069 9.09494679e-14,106.692903 C12.7839928,90.1846748 24.3085855,85.9182781 31.4425356,82.501012 C30.1621244,82.4343602 28.7653806,82.3932129 27.2747894,82.3921927 C22.8300251,82.3921927 9.01364159,83.211398 0.594875735,85.2486994 C15.3948582,77.775874 28.9220558,73.29898 36.4263915,70.7376457 C57.6291331,63.504903 77.5314462,56.6802326 77.1636656,49.8695047 C76.9765191,46.4015696 68.2190214,40.3083689 40.549442,35.3604914 C40.549442,35.3604914 70.4082245,34.0937667 79.4752337,32.1370257 C105.509166,26.5196714 147.664092,11.4672078 167.899567,4.12935237 C175.717562,1.29395669 176.527845,1.0899205 180.068205,0 C185.189713,2.10771082 190.453466,6.40469591 190.453466,6.40469591 C190.453466,6.40469591 187.832386,24.5091668 189.112592,34.6137189 C195.243526,35.617577 199.71619,41.3737779 199.71619,41.3737779 Z" id="path26" fill="#FFFFFF"></path>
                        <path d="M124.947383,102.811794 C108.03393,105.236424 91.4790037,105.126245 77.1297324,107.122739 C81.2490125,105.529896 94.7701776,98.9473489 90.0065102,95.0312144 C86.9083097,92.4848427 71.6692356,84.2251178 29.9148579,89.4032162 C47.7854315,81.4832115 61.9101955,78.2638606 61.9101955,78.2638606 C61.9101955,78.2638606 44.8949432,76.4492987 37.5770342,76.9930552 C100.696141,61.2013344 90.2440423,43.128149 80.2193639,39.3987076 C80.2646081,39.3939468 80.3101951,39.3885058 80.3547538,39.384085 C80.3568103,39.384085 80.3598952,39.384085 80.3622945,39.384085 C112.615935,40.7759519 100.997084,62.0028566 65.2551826,72.7008139 C67.3233916,72.458691 84.9086525,73.3275451 87.3144794,74.8275511 C91.0118229,77.13282 80.7019688,79.805354 65.7648655,82.2248831 C86.0219344,84.7440499 95.0005118,91.3126548 113.551668,91.9608098 C122.739671,92.2821668 110.109337,97.0079849 106.338643,98.0937975 C124.578574,103.12635 143.405309,97.1892371 150.821247,92.1740276 C150.881916,92.1100963 150.914135,92.0750701 150.914135,92.0750701 C150.914135,92.0750701 143.753895,100.115456 124.947383,102.811794" id="path28" fill="#BDBCBC"></path>
                        <path d="M174.77326,85.7829341 C176.103509,90.1751531 175.82416,94.9349773 173.952009,99.1034366 C173.948925,99.1537655 173.948239,99.2023941 173.945154,99.2527231 C174.16829,95.0897047 173.488256,91.5949049 172.334529,88.6904498 C173.224674,87.7284192 174.030844,86.7572069 174.77326,85.7829341" id="path30" fill="#BDBCBC"></path>
                        <path d="M175.725685,84.5233507 C175.715019,84.5433507 175.696352,84.5660174 175.685685,84.5860174 C175.696352,84.5660174 175.715019,84.5433507 175.725685,84.5233507" id="path32" fill="#BDBCBC"></path>
                        <path d="M174.77326,85.7829341 C175.407708,84.9521668 175.992455,84.1183389 176.535385,83.2848511 C178.496996,88.4826729 177.535557,94.4153651 173.945154,99.2527231 C173.948239,99.2023941 173.948925,99.1537655 173.952009,99.1034366 C175.82416,94.9349773 176.103509,90.1751531 174.77326,85.7829341" id="path34" fill="#FFFFFF"></path>
                        <path d="M180.371889,26.5474203 C180.41302,27.4840485 180.470604,28.434483 180.546354,29.392773 C176.746868,31.1580261 170.777716,33.5272943 163.872832,33.4309892 C163.476945,32.5563881 163.164349,31.7459563 162.918591,31.0128203 C164.600853,30.9746995 167.479687,30.7621619 170.028102,29.8409725 C167.189028,30.1351927 164.307108,29.9361894 162.534015,29.7441233 C162.175831,28.4103047 162.083972,27.5016976 162.113792,27.2150608 C168.727674,27.8465528 176.35578,27.0735957 180.371889,26.5474203" id="path36" fill="#FFFFFF"></path>
                        <path d="M184.134357,36.9563944 C179.285343,37.9660335 175.825188,41.4880382 175.825188,41.4880382 C175.825188,41.4880382 177.2329,44.7063689 181.81045,45.0216048 C182.491512,45.0681931 183.084828,45.1045796 183.607536,45.1331446 L174.900767,59.0365105 L174.900767,59.0368505 C174.868205,59.0188273 174.844897,59.0069252 174.844897,59.0069252 C174.844897,59.0069252 173.703852,59.0654156 172.69614,59.1048626 C171.888256,57.3827972 169.492712,53.4989684 163.425531,50.5921328 C164.449353,51.6269363 165.291513,52.8926408 165.858094,53.7720368 C158.74207,55.4111275 153.742584,59.4751883 153.742584,59.4751883 C153.742584,59.4751883 160.498025,60.1471475 164.136414,60.7976828 C160.03153,62.3048301 157.078317,64.350973 153.940699,63.8551651 C148.95321,63.0675854 145.592113,61.3655836 145.592113,61.3655836 C145.592113,61.3655836 152.520305,66.5042349 158.26632,67.5403987 C158.27249,67.5414189 158.300939,67.5335975 158.344126,67.5199951 L158.333158,67.5346177 L156.015763,73.0503959 C146.55081,76.3108942 136.337957,79.5805741 123.921848,78.5665142 C130.991599,77.8653099 146.3359,68.7057854 141.643527,64.5322252 C136.35201,59.8261305 126.476775,64.0864061 111.698369,64.0864061 C139.915678,54.2508417 156.896654,44.8995232 147.579088,37.8405512 C143.643184,34.8589024 134.934358,34.4569511 130.805481,34.8476804 C137.384744,30.3473223 138.885001,25.8704963 114.009937,30.0800689 C114.009937,29.8993948 153.659294,16.7540914 178.947725,7.15082224 C179.003594,7.15932375 182.211478,8.59329007 183.616791,9.22345583 C183.336756,11.2958514 182.625874,17.3882359 182.797253,24.5336172 C178.994683,24.9846052 170.16452,25.7551818 159.804966,24.8084539 C159.804966,24.8084539 159.948582,21.6389898 160.540527,19.9061445 C151.058779,40.9779477 174.472318,51.7146719 174.543955,51.7286144 C175.799139,50.1374722 176.878145,47.9226594 176.882601,47.9121175 C176.885,47.9134777 176.886714,47.915178 176.889798,47.9168783 C171.126645,44.1925378 167.550638,39.9526658 165.363149,36.2762738 C172.274203,35.758362 180.125445,31.7969654 183.120818,30.1432861 C183.335385,32.4142429 183.659293,34.7126765 184.134357,36.9563944" id="path38" fill="#BDBCBC"></path>
                        <path d="M162.918591,31.0128203 C163.164349,31.7459563 163.476945,32.5563881 163.872832,33.4309892 C170.777716,33.5272943 176.746868,31.1580261 180.546354,29.392773 C180.470604,28.434483 180.41302,27.4840485 180.371889,26.5474203 C176.35578,27.0735957 168.727674,27.8465528 162.113792,27.2150608 C162.083972,27.5016976 162.175831,28.4103047 162.534015,29.7441233 C164.307108,29.9361894 167.189028,30.1351927 170.028102,29.8409725 C167.479687,30.7621619 164.600853,30.9746995 162.918591,31.0128203 Z M175.825188,41.4880382 C175.825188,41.4880382 179.285343,37.9660335 184.134357,36.9563944 C183.659293,34.7126765 183.335385,32.4142429 183.120818,30.1432861 C180.125445,31.7969654 172.274203,35.758362 165.363149,36.2762738 C167.550638,39.9526658 171.126645,44.1925378 176.889798,47.9168783 C161.991427,39.4704603 159.801881,30.2986937 159.801881,24.8084539 C170.162806,25.7551818 178.993997,24.9846052 182.797253,24.5336172 C182.625874,17.3882359 183.336756,11.2958514 183.616791,9.22345583 C182.211478,8.59329007 179.003594,7.15932375 178.947725,7.15082224 C153.659294,16.7540914 114.009937,29.8993948 114.009937,30.0800689 C138.885001,25.8704963 137.384744,30.3473223 130.805481,34.8476804 C134.934358,34.4569511 143.643184,34.8589024 147.579088,37.8405512 C156.896654,44.8995232 139.915678,54.2508417 111.698369,64.0864061 C126.476775,64.0864061 136.35201,59.8261305 141.643527,64.5322252 C146.3359,68.7057854 130.991599,77.8653099 123.921848,78.5665142 C146.676603,80.425624 162.037699,67.8940614 178.941898,67.4057348 L182.445925,63.2301342 C182.445925,63.2301342 182.485342,60.7677575 180.296139,58.4145402 C180.334871,58.3053808 191.41799,42.8625619 191.478316,42.6564854 C188.011306,40.8864715 179.291169,44.3152996 175.825188,41.4880382 Z M80.2193639,39.3987076 C90.2440423,43.128149 100.696141,61.2013344 37.5770342,76.9930552 C44.8949432,76.4492987 61.9101955,78.2638606 61.9101955,78.2638606 C61.9101955,78.2638606 47.7854315,81.4832115 29.9148579,89.4032162 C71.6692356,84.2251178 86.9083097,92.4848427 90.0065102,95.0312144 C94.7701776,98.9473489 81.2490125,105.529896 77.1297324,107.122739 C91.4790037,105.126245 108.03393,105.236424 124.947383,102.811794 C143.753895,100.115456 150.914135,92.0750701 150.914135,92.0750701 C150.914135,92.0750701 140.608394,97.3708293 123.55441,94.228332 C128.590228,92.520209 137.404967,87.2720582 134.851753,85.1004331 C131.109508,81.9178086 114.749269,87.8015321 88.732817,82.2116207 C101.623991,81.2084428 119.116364,75.4604034 114.145327,71.9264966 C108.194342,67.6958063 89.3048821,68.1756314 89.3048821,68.1756314 C89.3048821,68.1756314 101.114993,65.0079696 111.316878,56.0222159 C121.584573,46.9786519 112.143956,36.0504738 80.2193639,39.3987076 Z M152.130587,88.1133674 C155.368634,92.1563445 157.92219,93.9896096 160.649867,103.57795 C166.45518,97.0011837 167.271975,87.8603626 161.97943,80.9652997 C159.32476,77.5082465 155.50231,77.8571484 153.305223,79.737682 C155.869748,82.117424 159.981487,87.5628098 160.214906,98.147527 C157.343269,89.0736978 153.598625,85.3082099 151.22159,83.7622957 C150.980288,85.3789425 151.261693,87.0278949 152.130587,88.1133674 Z M173.945154,99.2527231 C177.535557,94.4153651 178.496996,88.4826729 176.535385,83.2848511 C175.358008,85.094652 173.984914,86.9075136 172.334529,88.6904498 C173.488256,91.5949049 174.16829,95.0897047 173.945154,99.2527231 Z M196.667005,41.5353065 C196.667005,41.5353065 184.185428,58.5855905 184.26392,58.4917339 C184.240955,58.4913938 185.281229,59.2096012 186.833586,64.2333122 C183.62296,68.2031762 181.901281,73.5084572 178.967948,79.1044897 C183.263749,86.5541909 181.117048,96.652962 172.078145,104.724293 C171.427931,100.357239 170.250895,97.3528061 168.702309,94.9047119 C167.29117,99.8743533 163.876945,104.839914 158.433586,109.051901 C158.13093,105.131006 157.369319,102.188804 156.276603,99.7383292 C147.905395,103.472872 136.521676,106.536475 120.71842,108.386403 C111.661694,109.399103 89.1821743,111.491494 87.8508975,111.545903 C86.6049678,111.596912 66.8373591,113.131605 52.748242,118.566448 C58.120307,114.226939 83.3480699,100.189589 81.7850879,97.4235386 C79.5095096,93.3931438 35.4567258,88.5153187 9.90652932,99.4264939 C19.310745,89.4202192 40.3465286,81.1390705 40.3465286,81.1390705 C40.3465286,81.1390705 28.4329384,78.6508492 13.8557666,81.1618545 C49.080033,68.1219018 80.3369303,60.8820178 79.5297324,49.7015149 C78.881232,40.731744 56.5768623,37.1257445 54.6375308,36.559204 C59.1266481,36.4357621 74.2032544,35.6328797 79.9598952,34.4406283 C114.40411,27.3085773 176.743783,3.02959052 179.777888,2.45148799 C184.310192,4.47485364 187.912592,7.38648404 187.912592,7.38648404 C187.912592,7.38648404 185.125617,26.3978618 187.03787,36.7081504 C192.559035,37.0261068 196.667005,41.5353065 196.667005,41.5353065 Z" id="path40" fill="#1B458E"></path>
                        <path d="M111.316878,56.0222159 C101.114993,65.0079696 89.3048821,68.1756314 89.3048821,68.1756314 C89.3048821,68.1756314 108.194342,67.6958063 114.145327,71.9264966 C119.116364,75.4604034 101.623991,81.2084428 88.732817,82.2116207 C114.749269,87.8015321 131.109508,81.9178086 134.851753,85.1004331 C137.404967,87.2720582 128.590228,92.520209 123.55441,94.228332 C140.608394,97.3708293 150.914135,92.0750701 150.914135,92.0750701 C150.914135,92.0750701 150.881916,92.1100963 150.821247,92.1740276 C143.405309,97.1892371 124.578574,103.12635 106.338643,98.0937975 C110.109337,97.0079849 122.739671,92.2821668 113.551668,91.9608098 C95.0005118,91.3126548 86.0219344,84.7440499 65.7648655,82.2248831 C80.7019688,79.805354 91.0118229,77.13282 87.3144794,74.8275511 C84.9086525,73.3275451 67.3233916,72.458691 65.2551826,72.7008139 C100.997084,62.0028566 112.615935,40.7759519 80.3622945,39.384085 C112.17172,36.0844798 121.56812,46.9922544 111.316878,56.0222159" id="path42" fill="#FFFFFF"></path>
                    </g>
                </g>
            </g>
        </g>
    </g>
</svg>