<?xml version="1.0" encoding="UTF-8"?>
<svg width="200px" height="200px" viewBox="0 0 200 200" version="1.1" xmlns="http://www.w3.org/2000/svg" xmlns:xlink="http://www.w3.org/1999/xlink">
    <!-- Generator: Sketch 51.3 (57544) - http://www.bohemiancoding.com/sketch -->
    <title>wis-oshkosh</title>
    <desc>Created with Sketch.</desc>
    <defs></defs>
    <g id="wis-oshkosh" stroke="none" stroke-width="1" fill="none" fill-rule="evenodd">
        <g id="wis-oshkosh_BGL">
            <g id="wis-oshkosh" transform="translate(0.000000, 43.000000)">
                <path d="M132.031821,0.572108844 C133.563839,0.84829932 135.098668,1.1244898 136.630685,1.40349854 C142.654748,2.74781341 148.552313,4.77133139 154.135042,7.41205053 C157.657278,9.15655977 161.024906,11.1603499 164.268848,13.3783285 C176.347895,21.666861 186.498566,32.8328474 192.798111,46.1407191 C196.562096,53.9924198 198.824985,62.4641399 199.825715,71.102138 C197.500984,71.0852284 195.17063,71.0401361 192.843088,71.0091351 C189.992691,70.6653061 187.086074,70.8372206 184.218811,70.7413994 C182.712093,74.1402332 181.390903,77.6207969 179.732389,80.9548105 C175.420251,90.04655 170.008995,98.5633625 163.19503,105.98105 C161.539326,107.697376 159.863946,109.405248 158.115478,111.03139 C156.766178,112.178426 155.405633,113.370554 154.028223,114.480952 C153.359195,114.633139 152.67049,114.010301 152.082982,113.739747 C143.621746,109.357337 134.772587,105.625948 125.664811,102.827405 C118.527576,100.648882 111.17108,98.9156463 103.752741,98.0955296 C98.9571035,97.4191448 94.1530331,97.4304179 89.3180413,97.5431487 C87.8338112,97.5318756 86.3833137,97.8165209 84.8990836,97.8418853 C83.7915331,98.0419825 82.771125,98.140622 81.6438972,98.0927114 C83.9433294,93.4059281 86.341148,88.5613217 87.8591106,83.5588921 C88.426941,81.7241983 88.7670771,79.8444121 88.9807163,77.9420797 C89.1493788,74.9152575 88.2723337,71.9166181 86.001012,69.8254616 C83.1674819,67.252381 79.271378,66.0884354 75.6563783,65.1189504 C72.544555,64.4002915 69.3174791,63.7351798 66.149435,63.3575316 C66.1944116,63.0306122 66.2365773,62.7290573 66.422106,62.4472303 C67.0742677,61.3283771 67.7123742,60.1869776 68.2436611,59.0061224 C69.0195086,57.447619 68.8311688,55.4071914 68.7637038,53.702138 C68.2886378,50.6612245 66.4502165,48.0176871 64.0214764,46.191448 C62.0537471,44.6921283 59.7486929,43.35345 57.3087086,42.8517979 C47.0259178,40.0814383 36.4451566,38.2270165 25.8868837,36.9306122 C22.47709,36.614966 19.4411649,36.1386783 16.0482375,36.0090379 C14.735481,35.7272109 13.4255355,35.84276 12.1071569,35.6567541 C10.7156912,35.4792031 9.28768201,35.5778426 7.8934053,35.4622935 C6.14493731,35.1635569 4.33181537,35.2650146 2.55242593,35.2030126 C1.74846798,35.143829 1.05414066,35.3805637 0.379490639,34.8648202 C1.32962276,34.4477162 2.16450216,33.8558795 3.06403553,33.3457726 C15.9582841,25.8829932 29.6002699,18.8147716 43.6639118,13.8658892 C61.8119975,7.39514091 81.1435318,2.93663751 100.382302,1.87414966 C101.886209,1.64305151 103.376061,1.8516035 104.874346,1.52468416 C109.192107,1.47959184 113.490189,1.39222546 117.805139,1.47113703 C120.422218,1.80087464 123.04492,1.76987366 125.659189,2.23770651 C127.52291,2.35607386 129.333221,2.90845481 131.196942,2.9281827 C131.455557,2.15315841 131.598921,1.25976676 132.031821,0.572108844 Z" id="Shape" fill="#FDB629" fill-rule="nonzero"></path>
                <path d="M134.005172,3.91175899 C137.080452,4.42468416 140.077023,5.24198251 143.045483,6.18046647 C147.939506,7.77278912 152.656434,9.72303207 157.109125,12.3271137 C166.40524,17.7241011 174.768089,24.8599611 181.416203,33.328863 C188.772699,42.6488824 193.82133,53.7275024 195.999888,65.4120505 C196.16855,66.3251701 196.376567,67.22138 196.404678,68.1542274 C194.84736,67.951312 193.301287,68.0048591 191.735537,67.9400389 C188.626525,67.8977648 185.540001,67.6159378 182.425367,67.6441205 C182.16394,68.441691 181.888458,69.2364431 181.584865,70.0227405 C177.95581,79.4780369 173.106763,88.5049563 167.091134,96.649757 C163.150053,101.990379 158.598977,106.871623 153.505369,111.124393 C144.138978,106.183965 134.213189,102.263751 124.059707,99.2848397 C113.344015,96.1847425 101.993029,94.2373178 90.8191376,94.4909621 C89.3883173,94.5952381 87.9659302,94.7107872 86.5322989,94.750243 C88.5646821,90.3678328 90.5043009,85.8219631 91.4291336,81.0562682 C92.0194524,77.9336249 92.126272,74.4586978 90.7685388,71.5107872 C89.5204363,68.7009718 87.0635858,66.6436346 84.3930961,65.2429543 C79.7914207,62.8417881 75.0267049,61.9681244 70.0342947,60.9056365 C71.7321639,60.0404276 71.9205037,58.2282799 72.0891662,56.528863 C72.1172767,53.8994169 71.2767752,51.2136054 69.9780739,48.944898 C67.765784,45.0613217 63.9680666,42.0993197 59.8386462,40.5069971 C49.5670996,37.595724 38.9919604,35.529932 28.4140102,34.0926142 C22.4152471,33.2950437 16.3996177,32.7257532 10.3558779,32.3988338 C10.7381796,32.035277 11.1795131,31.7731778 11.640524,31.5279883 C14.5471412,29.8877551 17.5015461,28.33207 20.4896835,26.8496599 C41.5162759,16.5629738 64.2913364,9.18474247 87.5021083,6.03391642 C93.1804127,5.29834791 98.8755833,4.82206025 104.593242,4.57968902 C109.380446,4.52332362 114.142351,4.35422741 118.929555,4.54305151 C123.71957,4.83896987 128.487097,5.43362488 133.159049,6.55247813 C133.448586,5.67035957 133.673469,4.77696793 134.005172,3.91175899 Z" id="Shape" fill="#231F20" fill-rule="nonzero"></path>
                <path d="M135.489402,7.02031098 C135.762073,7.04567541 136.031933,7.07385811 136.301793,7.10485909 C147.784899,9.83858115 158.90538,15.198931 167.813572,23.0168124 C171.389217,26.2634597 174.827121,29.9582119 177.396413,34.0672498 C176.274807,33.5120505 175.240344,32.8103013 174.14966,32.1846453 C168.898634,29.0901846 163.554843,26.1281827 158.064879,23.4846453 C154.137853,21.6443149 150.016866,19.7814383 145.783437,18.7865889 C144.973857,18.5836735 144.155844,18.5498542 143.323776,18.5188533 C143.725755,20.3281827 144.417271,22.0726919 144.751785,23.8961127 C142.893686,23.0393586 140.945634,22.3686103 139.031315,21.6499514 C133.442964,19.6405248 127.697195,17.7889213 121.886771,16.5432459 C121.203688,16.3741497 120.514983,16.2867833 119.812222,16.241691 C120.714567,18.5780369 121.729353,20.8805637 122.561421,23.2394558 C116.942149,20.1929057 110.859054,17.4789116 104.598864,16.106414 C102.614269,15.6977648 100.638106,15.3736638 98.6029122,15.5004859 C100.129308,17.1886297 101.785012,18.7781341 103.390116,20.3901846 C97.0006184,19.0289602 90.5886321,17.9101069 84.0642042,17.4169096 C81.4386912,17.0589893 78.8272334,17.2619048 76.2017204,16.9998056 C75.3584078,17.0026239 74.5207174,17.1519922 73.6717828,17.1463557 C69.9527745,17.1097182 66.284365,17.890379 62.5541126,18.0876579 C61.5618148,18.1806608 60.5948164,18.3582119 59.5912745,18.2962099 C63.6757182,16.8307094 67.8922809,15.7034014 72.1678754,14.9452867 C73.4946871,15.1848397 74.6528363,14.781827 75.9543487,14.6380952 C77.2249396,14.4661808 78.4842863,14.6240039 79.7520661,14.4098154 C81.6157868,14.0913508 83.580705,14.3139942 85.4781582,14.2463557 C87.8731658,14.0969874 90.1360544,14.8100097 92.5451172,14.4887269 L92.4495418,14.2942663 C91.7580255,12.7836735 90.6336088,11.4844509 89.9814471,9.95976676 C93.7791646,9.00437318 97.6106145,8.9451895 101.503907,9.11428571 C106.164615,9.41020408 110.769101,10.2105928 115.3005,11.3435374 C114.735481,9.50038873 113.290605,7.85733722 111.587114,6.9808552 C113.68134,6.97521866 115.800866,6.97240039 117.886659,7.15840622 C126.01057,7.896793 134.606735,9.33129252 141.713049,13.5756074 C140.034857,11.2392614 138.061506,8.41817298 135.489402,7.02031098 Z" id="Shape" fill="#FDB629" fill-rule="nonzero"></path>
                <path d="M89.1325125,13.8940719 C90.2344409,14.0885326 91.3616686,14.0575316 92.4495418,14.2942663 L92.5451172,14.4887269 C90.1360544,14.8100097 87.8731658,14.0969874 85.4781582,14.2463557 C83.580705,14.3139942 81.6157868,14.0913508 79.7520661,14.4098154 C78.4842863,14.6240039 77.2249396,14.4661808 75.9543487,14.6380952 C74.6528363,14.781827 73.4946871,15.1848397 72.1678754,14.9452867 C77.7590375,13.8715258 83.4513971,13.5530612 89.1325125,13.8940719 Z" id="Shape" fill="#FDB629" fill-rule="nonzero"></path>
                <path d="M106.167426,19.4460641 C106.437286,19.4094266 106.701524,19.4122449 106.960139,19.4517007 C111.598358,20.8580175 116.00045,22.7857143 120.276044,25.0600583 C122.834092,26.4579203 125.31062,28.0051506 127.871479,29.3945578 C126.831394,26.1845481 125.268454,23.1351798 124.273346,19.913897 C125.698544,20.1393586 127.087199,20.6184645 128.492719,21.0017493 C135.109912,22.9012634 141.471299,25.4264334 147.832687,28.0333333 C147.425086,28.6956268 146.792601,29.0225462 146.160117,29.4368319 C144.473492,30.4598639 142.637882,31.2574344 140.79946,31.9676385 C138.418508,32.8187561 136.124698,34.0052478 133.86462,35.143829 C127.989543,38.2157434 122.063867,41.8090379 117.110811,46.2449951 C116.08197,47.245481 114.982853,48.2206025 114.114241,49.3648202 C116.391185,49.4296404 118.625963,49.0632653 120.900096,49.0435374 C122.159442,49.0068999 123.401923,48.77862 124.661269,48.7532556 C125.729465,50.7316812 126.986001,52.5776482 128.60235,54.1530612 C132.310114,57.9943635 137.161972,60.4349854 142.272446,61.8018465 C141.386968,62.8953353 140.192275,63.7239067 139.214033,64.7413022 C133.881486,70.152381 129.066172,76.7724976 127.120931,84.2240039 C126.910103,84.4241011 126.761118,84.4353741 126.676786,84.2606414 C124.804633,81.929932 122.859392,79.6471331 120.773599,77.5052478 C115.828976,72.3280855 110.021364,67.190379 103.536291,64.0705539 C100.888289,62.8868805 97.7343003,61.6806608 94.7995727,61.9991254 C95.3392927,61.9371234 95.8790128,61.8723032 96.4187328,61.8046647 C95.8762017,61.7933916 95.3336707,61.7793003 94.7911396,61.7652089 C96.0223759,58.563654 97.5037949,55.4494655 99.0779783,52.4029155 C100.910778,48.9702624 102.990948,45.492517 105.596784,42.5868805 C106.614381,41.445481 107.814696,40.5182702 109.082476,39.6756074 C100.730871,42.0401361 92.3764547,44.4159378 84.0389048,46.8199223 C80.9158374,44.3652089 77.7787148,41.5582119 74.222747,39.7629738 C81.087311,37.5675413 87.9912295,35.4735666 94.9457469,33.5853256 C96.4861978,33.2414966 97.917018,32.6468416 99.4996346,32.5059281 C98.248721,32.4382896 97.1158711,32.7398445 95.8818238,32.8610301 C89.9111711,33.6219631 83.8449429,34.4899903 77.9614325,35.7694849 C76.2326418,36.1922255 74.4082757,36.6008746 72.7891156,37.3505345 C72.3730815,37.4999028 72.0835442,37.7253644 71.6871873,37.3787172 C69.3736999,35.7413022 66.9252825,34.2955296 64.2913364,33.2330418 C63.2315736,32.8018465 62.1324563,32.4974733 61.0614494,32.1000972 C65.5281947,30.7078717 69.9696407,29.2310982 74.4588745,27.9036929 C76.1202001,27.4330418 77.7337381,26.8468416 79.4287963,26.5001944 C77.9389442,26.6072886 76.4209816,26.7735666 74.9451847,27.007483 C69.4355428,27.7655977 63.9146568,28.5800777 58.4387474,29.5551992 C56.6790353,29.8229349 55.1582617,29.386103 53.4407151,29.312828 C49.2494518,28.8816327 45.0357002,28.4645287 40.8416259,28.092517 C38.4691067,27.7825073 36.0600439,27.7035957 33.6987688,27.3034014 C35.0227694,26.6805637 36.4451566,26.2127308 37.8253781,25.713897 C43.1185697,23.8848397 48.5242031,22.3827017 53.9888683,21.1652089 C55.2369708,20.9312925 56.4147973,20.5620991 57.6797661,20.4521866 C57.7950188,20.6917396 57.9102715,20.9312925 58.0283353,21.1708455 C60.9967954,21.029932 63.9540114,20.6297376 66.9168494,20.3901846 C71.4707371,19.7391642 76.1173891,19.6038873 80.7078203,19.8857143 C89.5063811,20.3704568 98.3105639,21.8246842 106.839265,24.0482993 C108.50059,24.4090379 110.136617,24.9726919 111.823242,25.1868805 C109.993253,23.2901846 108.031146,21.3653061 106.198347,19.4883382 L106.167426,19.4460641 Z" id="Shape" fill="#B38808" fill-rule="nonzero"></path>
                <path d="M147.076517,21.9345967 C147.422275,22.0247813 147.765222,22.1177843 148.105358,22.2136054 C150.500365,23.0168124 152.839152,24.0088435 155.132962,25.0600583 C162.812728,28.6533528 170.219823,32.8666667 177.438579,37.3082604 C177.964244,36.7812439 178.49553,36.2655005 179.032439,35.7525753 C185.531568,43.7141885 189.571035,53.5076774 190.765728,63.7154519 C188.840164,63.7041788 186.914601,63.6449951 184.989037,63.6168124 C182.678361,63.3547133 180.333952,63.4167153 178.00922,63.3772595 C174.422331,74.9152575 168.64564,85.8135083 161.446562,95.491448 C158.767639,99.0114674 155.976275,102.348299 152.836341,105.468124 C152.61708,105.501944 152.423118,105.470943 152.260078,105.37794 C146.983752,102.291934 141.561253,99.4482993 136.037556,96.8357629 C130.825884,94.4289602 125.333108,92.0616132 119.719458,90.8018465 C117.234497,90.3086492 114.308203,89.7619048 111.941305,90.9512148 C110.985551,91.4077745 110.46832,92.1574344 110.080396,93.1184645 C109.908922,93.5496599 109.675606,93.3580175 109.492888,93.050826 C107.513915,90.1931001 105.47872,87.3748299 103.519424,84.5086492 C104.112554,84.5283771 104.705684,84.5565598 105.296003,84.6382896 C112.821162,85.7684159 120.163603,87.312828 127.35987,89.8239067 C128.97903,90.4129252 130.578512,90.9906706 132.118963,91.7713314 C136.72345,94.0400389 141.358858,96.2439261 145.954911,98.526725 C146.295047,98.6817298 146.60145,98.8226433 146.983752,98.7127308 C147.616237,98.2505345 148.136279,97.6248785 148.701299,97.0809524 C153.988868,91.5599611 158.843537,85.2301263 162.180244,78.3197279 C163.751616,78.7030126 165.258335,79.3624879 166.807219,79.8359572 C167.102378,79.4019436 167.332884,78.9622935 167.529656,78.4747328 C169.233148,74.492517 170.708945,70.3496599 171.594423,66.105345 C171.945803,64.5947522 171.836172,63.0587949 172.263451,61.5622935 C174.540395,61.2804665 176.792039,60.8013605 179.068983,60.5110787 C178.841289,60.1587949 178.591106,59.8544218 178.267836,59.5866861 C176.74144,58.2677357 175.021083,57.1573372 173.278237,56.1483965 C168.451678,53.3864917 163.082588,51.3601555 157.783775,49.7114674 C149.181987,47.0904762 140.47619,45.4389699 131.579243,44.2186589 C130.165289,44.0326531 128.748524,43.9030126 127.345814,43.6240039 C129.662113,42.2092323 132.144263,41.0650146 134.513971,39.7376093 C140.650475,36.4909621 146.758869,33.2133139 152.895373,29.9779397 C153.654354,29.6087464 154.269972,28.9661808 154.163153,28.0671526 C154.025412,27.1681244 153.415416,26.308552 152.757632,25.7026239 C151.284646,24.3780369 149.451847,23.4564626 147.649969,22.6729835 C147.304211,22.5461613 147.115871,22.3009718 147.076517,21.9345967 Z" id="Shape" fill="#B38808" fill-rule="nonzero"></path>
                <path d="M151.945241,57.8337221 C154.230618,57.5603499 156.485073,57.6843537 158.548378,58.7919339 C160.892787,60.127794 163.299039,61.5284742 165.873953,62.3739553 C165.494462,62.861516 164.853545,63.0897959 164.316636,63.3913508 C162.660932,64.2114674 161.168269,65.0766764 159.25395,64.9019436 C158.691741,63.6929057 157.887783,62.7403304 156.858942,61.9061224 C154.531399,60.0939747 151.759712,58.9328474 148.765953,59.1808552 C149.806038,58.6087464 150.744926,58.0253644 151.945241,57.8337221 Z" id="Shape" fill="#B38808" fill-rule="nonzero"></path>
            </g>
        </g>
    </g>
</svg>