<?xml version="1.0" encoding="UTF-8"?>
<svg width="200px" height="200px" viewBox="0 0 200 200" version="1.1" xmlns="http://www.w3.org/2000/svg" xmlns:xlink="http://www.w3.org/1999/xlink">
    <!-- Generator: Sketch 51.3 (57544) - http://www.bohemiancoding.com/sketch -->
    <title>wpi</title>
    <desc>Created with Sketch.</desc>
    <defs></defs>
    <g id="wpi" stroke="none" stroke-width="1" fill="none" fill-rule="evenodd">
        <g id="wpi_BGL" transform="translate(-3.000000, 23.000000)">
            <g id="wpi" transform="translate(0.979798, 0.232323)">
                <g id="g10" transform="translate(101.181012, 77.280424) scale(-1, 1) rotate(-180.000000) translate(-101.181012, -77.280424) translate(0.683656, 0.711009)" fill-rule="nonzero">
                    <g id="g12" transform="translate(1.230580, 0.000000)">
                        <path d="M122.908404,43.8581404 C124.954038,47.8211545 131.70623,61.339348 136.382297,76.5212854 C156.983708,70.9239245 168.119089,83.2938501 172.063781,89.0915222 C168.582607,88.8752136 166.222628,89.3559601 166.222628,89.3559601 C160.607082,89.9326919 153.040383,92.8142998 148.879656,103.272041 C145.833287,110.925838 141.668458,116.157306 136.018045,119.300617 C137.811273,119.636976 140.018113,119.801053 142.631045,119.801053 C146.432169,119.801053 151.050946,119.455397 156.744429,118.737012 C159.418889,118.397919 162.033187,118.227005 164.510755,118.227005 C164.51349,118.227005 164.514857,118.227005 164.517591,118.227005 C182.929801,118.227005 191.705203,127.36283 195.295762,132.812931 C201.370724,142.025326 198.124728,151.794763 198.124728,151.794763 C191.67102,137.865966 173.246505,138.5756 173.246505,138.5756 C167.907155,138.5756 161.989433,139.562799 155.647845,141.511217 C147.765297,143.932725 140.596486,145.16057 134.34473,145.16057 C119.459226,145.16057 108.492981,138.195488 101.71358,124.450458 C100.289115,124.559842 98.8400392,124.559842 97.4139339,124.450458 C90.6350795,138.195488 79.6682884,145.16057 64.7827839,145.16057 C58.5299341,145.16057 51.3633103,143.932725 43.4799422,141.511217 C37.1417721,139.562799 31.2222727,138.5756 25.8838805,138.5756 C25.8838805,138.5756 7.45719101,137.865966 1.00251651,151.794763 C1.00251651,151.794763 -2.24217123,142.025326 3.83060374,132.812931 C7.42407474,127.36283 16.1994903,118.227005 34.611153,118.227005 C34.6127937,118.227005 34.6153916,118.227005 34.6164855,118.227005 C37.0973345,118.227005 39.709172,118.397919 42.3824016,118.737012 C48.0786192,119.455397 52.6949345,119.801053 56.4976998,119.801053 C59.1106311,119.801053 61.3180179,119.636976 63.1109728,119.300617 C57.46015,116.157306 53.2940902,110.925838 50.2497723,103.272041 C46.0879511,92.8142998 38.520842,89.9326919 32.9062529,89.3559601 C32.9062529,89.3559601 30.5454538,88.8752136 27.0657841,89.0915222 C31.008562,83.2938501 42.146267,70.9239245 62.7467212,76.5212854 C67.422788,61.339348 74.1376522,47.8345542 76.1832861,43.8714033 C76.1832861,43.8714033 71.5487856,29.5600328 83.3953046,17.9832842 C83.3953046,17.9832842 82.4152161,14.7599853 79.3157956,10.9245959 C81.9105416,10.3589804 85.4339653,9.91033833 89.6720824,10.1741883 C89.6720824,10.1741883 95.2481133,-1.87470641 118.241362,0.90798063 C118.241362,0.90798063 114.81406,5.54188914 113.164809,9.83502684 C115.247771,10.075906 118.339124,10.5325742 121.590316,11.3951423 C121.590316,11.3951423 118.211007,14.7467224 116.297319,18.3197794 C119.427094,21.2521145 125.871094,29.290399 122.908404,43.8581404" id="path14" fill="#FFFFFF"></path>
                        <path d="M99.5637569,121.363206 C100.965798,121.363206 102.323948,121.248489 103.619201,121.03218 C112.370538,140.912335 128.743541,146.460883 154.718074,138.479889 C184.595186,129.300036 195.603407,143.54851 195.971213,144.068088 C196.87774,141.955593 191.444047,121.392603 164.510755,121.395338 C162.219142,121.395338 159.762084,121.54752 157.143683,121.877588 C141.649315,123.833527 133.054809,123.186242 129.289371,119.776989 C128.971608,119.492861 128.698146,119.183029 128.442869,118.857198 C136.181029,116.95855 141.937818,112.148897 145.931733,102.096974 C150.741933,90.0128163 159.692351,86.8402446 165.897208,86.2019839 C165.897208,86.2019839 153.559961,72.9320941 134.284842,80.6072208 C128.931546,61.7133075 119.491221,44.2240328 119.491221,44.2240328 C119.491221,44.2240328 124.361172,29.1648799 112.394603,19.096959 C113.128986,16.9070737 114.342474,15.0297557 115.640326,13.4995296 C112.892304,12.9814418 110.515644,12.8772938 108.477941,13.0535538 C109.458029,10.0251651 110.958927,6.10482475 112.517388,3.76811763 C96.6982833,3.53310422 92.5081588,10.9139172 91.5014078,13.6512055 C89.0979485,13.1657143 86.8040109,13.1277851 84.759881,13.3232696 C85.9616106,15.2460643 86.5930348,17.3290259 86.9161304,19.096959 C74.4410585,29.4052532 79.5791397,44.2240328 79.5791397,44.2240328 C79.5791397,44.2240328 70.1959681,61.7133075 64.8441762,80.6072208 C45.5709708,72.9320941 33.2304423,86.2019839 33.2304423,86.2019839 C39.4368036,86.8402446 48.387358,90.0128163 53.1953703,102.096974 C57.1920203,112.148897 62.9481261,116.95855 70.684645,118.857198 C70.4325129,119.183029 70.1585038,119.492861 69.8407407,119.776989 C66.0725684,123.186242 57.48148,123.833527 41.9860182,121.877588 C39.3662504,121.54752 36.9104231,121.395338 34.6164855,121.395338 C7.68577806,121.392603 2.25125018,141.955593 3.15764063,144.068088 C3.52617195,143.54851 14.5330117,129.300036 44.4120381,138.479889 C70.3854774,146.460883 86.7575223,140.912335 95.5098166,121.03218 C96.8050703,121.248489 98.163357,121.363206 99.5637569,121.363206" id="path16" fill="#C4122E"></path>
                        <path d="M114.492058,39.9991786 L114.494656,40.0605709 C113.752206,32.0597507 104.173099,25.7118727 98.6477953,22.6942174 C98.6307039,25.180399 96.5209431,27.8135664 92.2640938,30.5027937 C83.6794318,35.9266429 84.4752068,39.9697814 84.4752068,39.9697814 C84.4752068,39.9697814 81.3640274,32.8689253 88.1834909,25.5222267 C88.1834909,25.5222267 87.6665107,27.5491285 88.6412666,29.3811885 C90.0539724,27.3434849 92.230458,23.2816142 90.6549055,19.3186001 C90.6549055,19.3186001 92.5750203,19.6416957 94.1665703,21.4096288 C94.6515555,17.908629 96.5128759,12.9034641 102.989965,11.0479821 C102.989965,11.0479821 100.089898,15.2620619 102.067577,19.9809255 C102.067577,19.9809255 103.179611,17.6281935 105.973027,17.5453345 C105.973027,17.5453345 104.544324,21.2173848 108.096051,23.8558848 C116.517866,29.9766524 114.492058,39.9991786 114.492058,39.9991786" id="path18" fill="#C6C5C5"></path>
                        <path d="M99.5049626,37.430138 C92.4868288,37.430138 89.5722687,39.7508749 89.5722687,39.7508749 C91.4613455,32.6364825 99.5049626,32.0917458 99.5049626,32.0917458 C99.5049626,32.0917458 107.545982,32.6364825 109.436699,39.7508749 C109.436699,39.7508749 106.523096,37.430138 99.5049626,37.430138" id="path20" fill="#C6C5C5"></path>
                        <path d="M153.298805,133.86453 C121.127208,143.750872 111.268623,129.003603 106.362848,114.832792 C104.300259,115.449586 101.99552,115.796883 99.5637569,115.796883 C97.1325413,115.796883 94.8316304,115.449586 92.7661704,114.832792 C87.86313,129.003603 78.0008526,143.750872 45.8289824,133.86453 C36.4244808,130.976086 28.6788008,130.236371 22.3843847,130.668988 C23.8584827,130.180311 25.7306049,129.702299 28.0432747,129.356233 C32.9020143,129.022335 39.316617,129.062397 47.4579967,130.01473 L48.9811812,133.050023 L50.0654588,130.180311 C50.1135881,130.188241 50.1562482,130.193711 50.2043776,130.204376 L50.1044271,130.081454 L51.7745975,125.661758 L53.5585281,130.861232 C53.7588392,130.893364 53.9538177,130.922761 54.1556328,130.954756 C55.8140443,131.221792 57.3629342,131.39544 58.8291017,131.496895 L61.0680735,135.338628 L62.7932097,126.735371 L65.1834061,131.430033 C67.1728435,131.213725 68.9247791,130.815837 70.473669,130.276433 L74.2391067,132.99451 L71.8970397,123.106117 L75.8537642,127.293507 C81.4191301,122.670766 82.1706042,115.591239 82.692917,112.554852 C81.4965199,112.950005 66.3706422,117.636873 60.5926594,103.958431 C56.25049,93.6742016 51.2885184,88.0206442 46.416516,85.4115414 C51.37671,84.450185 63.9522792,83.9881707 72.614331,100.84985 C75.0739867,105.635438 78.5029292,107.686405 82.4403746,107.846653 C80.0170894,106.420548 76.9283339,103.458952 78.0969746,97.9069862 C78.0969746,97.9069862 73.5543573,97.6346179 71.8810421,92.6540509 C71.8810421,92.6540509 78.0115176,95.207094 88.6962325,80.6018883 C88.6962325,80.6018883 89.9674216,82.6287901 90.4893242,84.5676371 C90.4893242,84.5676371 92.4814963,77.8246062 89.0738838,71.7944914 C89.0738838,71.7944914 88.9351018,74.3074722 86.43429,77.9607904 C85.934948,76.5640822 85.066979,74.6733646 83.6581018,73.1564698 C83.6581018,73.1564698 80.3482521,76.1687926 79.0274297,80.0330869 C79.0274297,80.0330869 82.9797788,77.0367616 84.2925341,81.1333621 C84.2925341,81.1333621 83.2094871,82.1961729 81.7876204,83.5875485 C81.8100443,82.3804864 81.2614791,81.4003979 80.4015772,81.2614791 C79.3734961,81.0986324 78.2972856,82.1908404 78.0019465,83.7024027 C77.7577447,84.9307948 78.1076396,86.0470675 78.7949868,86.5144144 C78.008783,87.2781943 77.256762,88.0125771 76.6319009,88.6135102 C76.6319009,88.6135102 74.171288,82.692917 77.9030899,77.119484 C77.9030899,77.119484 74.0628603,79.151855 72.4354867,83.2804505 C72.4354867,83.2804505 71.2576851,81.2776134 71.3405441,78.0541777 C71.3405441,78.0541777 72.9412551,70.2055393 81.9248984,57.9425373 C81.9248984,57.9425373 86.7264844,64.3678051 92.2374313,65.8766327 C92.2374313,65.8766327 82.2469001,56.6125539 83.7665296,45.5458123 C83.7665296,45.5458123 85.4073027,47.1856284 90.2596159,43.671229 C95.1135699,40.1566928 99.0473236,41.743047 96.8879293,45.4844201 C94.8956205,48.9374272 89.2143067,46.4538435 89.2143067,54.5963172 C89.2143067,54.5963172 92.472472,52.0486066 99.5012708,52.0486066 C106.53007,52.0486066 109.789192,54.5963172 109.789192,54.5963172 C109.789192,46.4538435 104.107878,48.9374272 102.118304,45.4844201 C99.9563119,41.743047 103.887331,40.1566928 108.741285,43.671229 C113.596333,47.1856284 115.234371,45.5458123 115.234371,45.5458123 C116.756599,56.6125539 106.766204,65.8766327 106.766204,65.8766327 C112.274417,64.3678051 117.078737,57.9425373 117.078737,57.9425373 C126.06074,70.2055393 127.664595,78.0541777 127.664595,78.0541777 C127.743216,81.2776134 126.567055,83.2804505 126.567055,83.2804505 C124.938041,79.151855 121.101503,77.119484 121.101503,77.119484 C124.832347,82.692917 122.371598,88.6135102 122.371598,88.6135102 C121.746737,88.0125771 120.996357,87.280929 120.21234,86.517149 C120.901328,86.0524 121.252727,84.9335295 121.009756,83.7024027 C120.715921,82.1908404 119.636976,81.0986324 118.609989,81.2614791 C117.747352,81.4003979 117.198787,82.383221 117.222852,83.5956157 C115.796883,82.1989075 114.708367,81.1333621 114.708367,81.1333621 C116.021122,77.0367616 119.976206,80.0330869 119.976206,80.0330869 C118.655383,76.1687926 115.345534,73.1564698 115.345534,73.1564698 C113.935426,74.6733646 113.065953,76.5640822 112.568115,77.9607904 C110.065799,74.3074722 109.928111,71.7944914 109.928111,71.7944914 C106.519405,77.8246062 108.511577,84.5676371 108.511577,84.5676371 C109.034983,82.6287901 110.307266,80.6018883 110.307266,80.6018883 C120.991024,95.207094 127.119859,92.6540509 127.119859,92.6540509 C125.448048,97.6346179 120.906661,97.9069862 120.906661,97.9069862 C122.073661,103.458952 118.985452,106.420548 116.563261,107.846653 C120.499612,107.686405 123.929649,105.635438 126.389168,100.84985 C135.05245,83.9881707 147.627199,84.450185 152.587803,85.4115414 C147.71334,88.0206442 142.752735,93.6742016 138.408788,103.958431 C132.798438,117.244182 118.368522,113.203778 116.443074,112.597512 C116.967575,115.660562 117.735593,122.692096 123.272656,127.293507 L127.230474,123.106117 L124.888407,132.99451 L128.655486,130.276433 C130.202735,130.815837 131.956174,131.213725 133.945749,131.430033 L136.334304,126.735371 L138.061491,135.338628 L140.299779,131.496895 C141.766904,131.39544 143.3147,131.221792 144.973248,130.954756 C145.17561,130.922761 145.368401,130.893364 145.569396,130.861232 L147.353737,125.661758 L149.024591,130.081454 L148.924777,130.204376 C148.971266,130.193711 149.01502,130.188241 149.062875,130.180311 L150.144418,133.050023 L151.670338,130.01473 C159.812674,129.062397 166.22673,129.022335 171.086153,129.356233 C173.398276,129.702299 175.270125,130.180311 176.745454,130.668988 C170.447619,130.236371 162.704537,130.976086 153.298805,133.86453" id="path22" fill="#FFFFFF"></path>
                        <path d="M72.614331,100.84985 C75.0739867,105.635438 78.5029292,107.686405 82.4403746,107.846653 C82.4403746,107.846653 72.4086875,113.409421 65.7404485,99.6293879 C60.8971596,89.6176634 51.9188488,85.8522257 46.416516,85.4115414 C51.37671,84.450185 63.9522792,83.9881707 72.614331,100.84985" id="path24" fill="#C6C5C5"></path>
                        <path d="M126.389168,100.84985 C123.929649,105.635438 120.499612,107.686405 116.563261,107.846653 C116.563261,107.846653 126.592213,113.409421 133.262093,99.6293879 C138.106613,89.6176634 147.083009,85.8522257 152.587803,85.4115414 C147.627199,84.450185 135.05245,83.9881707 126.389168,100.84985" id="path26" fill="#C6C5C5"></path>
                        <path d="M108.411216,93.9385028 C109.968173,95.7598978 110.769281,98.0191057 110.496912,100.478625 C109.837321,106.48741 103.072824,111.35572 95.3966033,111.345055 C94.1933696,111.342321 93.026233,111.219536 91.9393575,110.99516 C94.2270055,110.218118 96.2726394,108.75195 97.9373405,106.372555 C103.051494,99.0846512 91.4175916,94.3444575 92.0889413,88.2529503 C92.7581033,82.1561107 99.8083689,80.3081899 99.8083689,80.3081899 C94.2670677,86.9550988 98.9778642,91.1558883 101.641386,92.8302973 L100.617544,88.394467 C104.366984,90.130405 106.840996,92.0290531 108.411216,93.9385028" id="path28" fill="#C6C5C5"></path>
                        <path d="M82.5354027,63.4357092 C72.5476062,75.3516876 72.4354867,83.2804505 72.4354867,83.2804505 C72.4354867,83.2804505 71.2576851,81.2776134 71.3405441,78.0541777 C71.3405441,78.0541777 72.9412551,70.2055393 81.9248984,57.9425373 C81.9248984,57.9425373 86.7264844,64.3678051 92.2374313,65.8766327 C86.2341157,66.4988959 82.5354027,63.4357092 82.5354027,63.4357092" id="path30" fill="#C6C5C5"></path>
                        <path d="M116.467139,63.4357092 C126.454935,75.3516876 126.567055,83.2804505 126.567055,83.2804505 C126.567055,83.2804505 127.743216,81.2776134 127.664595,78.0541777 C127.664595,78.0541777 126.06074,70.2055393 117.078737,57.9425373 C117.078737,57.9425373 112.274417,64.3678051 106.766204,65.8766327 C112.771161,66.4988959 116.467139,63.4357092 116.467139,63.4357092" id="path32" fill="#C6C5C5"></path>
                        <path d="M85.8147614,56.919652 C84.2632736,53.6535562 83.1933528,49.7278697 83.7665296,45.5458123 C83.7665296,45.5458123 85.4073027,47.1856284 90.2596159,43.671229 C95.1135699,40.1566928 99.0473236,41.743047 96.8879293,45.4844201 C96.0269336,46.9772502 94.4780438,47.3618748 92.9958787,47.9707383 C92.9861707,47.9760709 92.9782403,47.9786687 92.9690794,47.9814034 C92.9515778,47.9894705 92.9328456,47.9974009 92.9157542,48.005468 C87.7802709,50.0163723 86.2591375,54.6336447 85.8147614,56.919652" id="path34" fill="#C6C5C5"></path>
                        <path d="M113.195711,56.919652 C114.748429,53.6535562 115.819307,49.7278697 115.245036,45.5458123 C115.245036,45.5458123 113.604263,47.1856284 108.750309,43.671229 C103.895398,40.1566928 99.9632852,41.743047 102.123773,45.4844201 C102.983675,46.9772502 104.535163,47.3618748 106.01473,47.9707383 L106.015687,47.9707383 C106.023754,47.9760709 106.033326,47.9786687 106.042487,47.9814034 C106.060125,47.9894705 106.07872,47.9974009 106.097452,48.005468 C111.231295,50.0163723 112.752428,54.6336447 113.195711,56.919652" id="path36" fill="#C6C5C5"></path>
                        <path d="M134.0766,0 L132.717356,0 L132.717356,3.96253558 L132.57037,3.96253558 L131.325981,1.18838603 L130.370914,1.18838603 L129.109433,4.01006331 L128.930452,4.01006331 L128.930452,0 L127.640667,0 L127.640667,5.07132907 L129.846414,5.07132907 L130.869299,2.59254467 L131.933204,5.07132907 L134.0766,5.07132907 L134.0766,0 Z M126.836825,3.97321428 L125.385151,3.97321428 L125.385151,0 L124.020438,0 L124.020438,3.97321428 L122.569311,3.97321428 L122.569311,5.07132907 L126.836825,5.07132907 L126.836825,3.97321428 Z" id="path38" fill="#C6C5C5"></path>
                    </g>
                </g>
            </g>
        </g>
    </g>
</svg>